<?xml version="1.0" encoding="utf-8" standalone="no"?>
<!DOCTYPE svg PUBLIC "-//W3C//DTD SVG 1.1//EN"
  "http://www.w3.org/Graphics/SVG/1.1/DTD/svg11.dtd">
<svg xmlns:xlink="http://www.w3.org/1999/xlink" width="1050.580384pt" height="691.4825pt" viewBox="0 0 1050.580384 691.4825" xmlns="http://www.w3.org/2000/svg" version="1.1">
 <metadata>
  <rdf:RDF xmlns:dc="http://purl.org/dc/elements/1.1/" xmlns:cc="http://creativecommons.org/ns#" xmlns:rdf="http://www.w3.org/1999/02/22-rdf-syntax-ns#">
   <cc:Work>
    <dc:type rdf:resource="http://purl.org/dc/dcmitype/StillImage"/>
    <dc:date>2024-02-27T09:20:42.345594</dc:date>
    <dc:format>image/svg+xml</dc:format>
    <dc:creator>
     <cc:Agent>
      <dc:title>Matplotlib v3.7.4, https://matplotlib.org/</dc:title>
     </cc:Agent>
    </dc:creator>
   </cc:Work>
  </rdf:RDF>
 </metadata>
 <defs>
  <style type="text/css">*{stroke-linejoin: round; stroke-linecap: butt}</style>
 </defs>
 <g id="figure_1">
  <g id="patch_1">
   <path d="M 0 691.4825 
L 1050.580384 691.4825 
L 1050.580384 0 
L 0 0 
z
" style="fill: #ffffff"/>
  </g>
  <g id="axes_1">
   <g id="patch_2">
    <path d="M 71.6375 135.316875 
L 1032.489189 135.316875 
L 1032.489189 29.059375 
L 71.6375 29.059375 
z
" style="fill: #ffffff"/>
   </g>
   <g id="matplotlib.axis_1">
    <g id="xtick_1">
     <g id="line2d_1">
      <defs>
       <path id="mc9f29d2ec9" d="M 0 0 
L 0 3.5 
" style="stroke: #000000; stroke-width: 0.8"/>
      </defs>
      <g>
       <use xlink:href="#mc9f29d2ec9" x="115.312577" y="135.316875" style="stroke: #000000; stroke-width: 0.8"/>
      </g>
     </g>
     <g id="text_1">
      <!-- 0 -->
      <g transform="translate(110.312577 156.204375) scale(0.2 -0.2)">
       <defs>
        <path id="TimesNewRomanPSMT-30" d="M 231 2094 
Q 231 2819 450 3342 
Q 669 3866 1031 4122 
Q 1313 4325 1613 4325 
Q 2100 4325 2488 3828 
Q 2972 3213 2972 2159 
Q 2972 1422 2759 906 
Q 2547 391 2217 158 
Q 1888 -75 1581 -75 
Q 975 -75 572 641 
Q 231 1244 231 2094 
z
M 844 2016 
Q 844 1141 1059 588 
Q 1238 122 1591 122 
Q 1759 122 1940 273 
Q 2122 425 2216 781 
Q 2359 1319 2359 2297 
Q 2359 3022 2209 3506 
Q 2097 3866 1919 4016 
Q 1791 4119 1609 4119 
Q 1397 4119 1231 3928 
Q 1006 3669 925 3112 
Q 844 2556 844 2016 
z
" transform="scale(0.015625)"/>
       </defs>
       <use xlink:href="#TimesNewRomanPSMT-30"/>
      </g>
     </g>
    </g>
    <g id="xtick_2">
     <g id="line2d_2">
      <g>
       <use xlink:href="#mc9f29d2ec9" x="267.490545" y="135.316875" style="stroke: #000000; stroke-width: 0.8"/>
      </g>
     </g>
     <g id="text_2">
      <!-- 50 -->
      <g transform="translate(257.490545 156.204375) scale(0.2 -0.2)">
       <defs>
        <path id="TimesNewRomanPSMT-35" d="M 2778 4238 
L 2534 3706 
L 1259 3706 
L 981 3138 
Q 1809 3016 2294 2522 
Q 2709 2097 2709 1522 
Q 2709 1188 2573 903 
Q 2438 619 2231 419 
Q 2025 219 1772 97 
Q 1413 -75 1034 -75 
Q 653 -75 479 54 
Q 306 184 306 341 
Q 306 428 378 495 
Q 450 563 559 563 
Q 641 563 702 538 
Q 763 513 909 409 
Q 1144 247 1384 247 
Q 1750 247 2026 523 
Q 2303 800 2303 1197 
Q 2303 1581 2056 1914 
Q 1809 2247 1375 2428 
Q 1034 2569 447 2591 
L 1259 4238 
L 2778 4238 
z
" transform="scale(0.015625)"/>
       </defs>
       <use xlink:href="#TimesNewRomanPSMT-35"/>
       <use xlink:href="#TimesNewRomanPSMT-30" x="50"/>
      </g>
     </g>
    </g>
    <g id="xtick_3">
     <g id="line2d_3">
      <g>
       <use xlink:href="#mc9f29d2ec9" x="419.668513" y="135.316875" style="stroke: #000000; stroke-width: 0.8"/>
      </g>
     </g>
     <g id="text_3">
      <!-- 100 -->
      <g transform="translate(404.668513 156.204375) scale(0.2 -0.2)">
       <defs>
        <path id="TimesNewRomanPSMT-31" d="M 750 3822 
L 1781 4325 
L 1884 4325 
L 1884 747 
Q 1884 391 1914 303 
Q 1944 216 2037 169 
Q 2131 122 2419 116 
L 2419 0 
L 825 0 
L 825 116 
Q 1125 122 1212 167 
Q 1300 213 1334 289 
Q 1369 366 1369 747 
L 1369 3034 
Q 1369 3497 1338 3628 
Q 1316 3728 1258 3775 
Q 1200 3822 1119 3822 
Q 1003 3822 797 3725 
L 750 3822 
z
" transform="scale(0.015625)"/>
       </defs>
       <use xlink:href="#TimesNewRomanPSMT-31"/>
       <use xlink:href="#TimesNewRomanPSMT-30" x="50"/>
       <use xlink:href="#TimesNewRomanPSMT-30" x="100"/>
      </g>
     </g>
    </g>
    <g id="xtick_4">
     <g id="line2d_4">
      <g>
       <use xlink:href="#mc9f29d2ec9" x="571.84648" y="135.316875" style="stroke: #000000; stroke-width: 0.8"/>
      </g>
     </g>
     <g id="text_4">
      <!-- 150 -->
      <g transform="translate(556.84648 156.204375) scale(0.2 -0.2)">
       <use xlink:href="#TimesNewRomanPSMT-31"/>
       <use xlink:href="#TimesNewRomanPSMT-35" x="50"/>
       <use xlink:href="#TimesNewRomanPSMT-30" x="100"/>
      </g>
     </g>
    </g>
    <g id="xtick_5">
     <g id="line2d_5">
      <g>
       <use xlink:href="#mc9f29d2ec9" x="724.024448" y="135.316875" style="stroke: #000000; stroke-width: 0.8"/>
      </g>
     </g>
     <g id="text_5">
      <!-- 200 -->
      <g transform="translate(709.024448 156.204375) scale(0.2 -0.2)">
       <defs>
        <path id="TimesNewRomanPSMT-32" d="M 2934 816 
L 2638 0 
L 138 0 
L 138 116 
Q 1241 1122 1691 1759 
Q 2141 2397 2141 2925 
Q 2141 3328 1894 3587 
Q 1647 3847 1303 3847 
Q 991 3847 742 3664 
Q 494 3481 375 3128 
L 259 3128 
Q 338 3706 661 4015 
Q 984 4325 1469 4325 
Q 1984 4325 2329 3994 
Q 2675 3663 2675 3213 
Q 2675 2891 2525 2569 
Q 2294 2063 1775 1497 
Q 997 647 803 472 
L 1909 472 
Q 2247 472 2383 497 
Q 2519 522 2628 598 
Q 2738 675 2819 816 
L 2934 816 
z
" transform="scale(0.015625)"/>
       </defs>
       <use xlink:href="#TimesNewRomanPSMT-32"/>
       <use xlink:href="#TimesNewRomanPSMT-30" x="50"/>
       <use xlink:href="#TimesNewRomanPSMT-30" x="100"/>
      </g>
     </g>
    </g>
    <g id="xtick_6">
     <g id="line2d_6">
      <g>
       <use xlink:href="#mc9f29d2ec9" x="876.202416" y="135.316875" style="stroke: #000000; stroke-width: 0.8"/>
      </g>
     </g>
     <g id="text_6">
      <!-- 250 -->
      <g transform="translate(861.202416 156.204375) scale(0.2 -0.2)">
       <use xlink:href="#TimesNewRomanPSMT-32"/>
       <use xlink:href="#TimesNewRomanPSMT-35" x="50"/>
       <use xlink:href="#TimesNewRomanPSMT-30" x="100"/>
      </g>
     </g>
    </g>
    <g id="xtick_7">
     <g id="line2d_7">
      <g>
       <use xlink:href="#mc9f29d2ec9" x="1028.380384" y="135.316875" style="stroke: #000000; stroke-width: 0.8"/>
      </g>
     </g>
     <g id="text_7">
      <!-- 300 -->
      <g transform="translate(1013.380384 156.204375) scale(0.2 -0.2)">
       <defs>
        <path id="TimesNewRomanPSMT-33" d="M 325 3431 
Q 506 3859 782 4092 
Q 1059 4325 1472 4325 
Q 1981 4325 2253 3994 
Q 2459 3747 2459 3466 
Q 2459 3003 1878 2509 
Q 2269 2356 2469 2072 
Q 2669 1788 2669 1403 
Q 2669 853 2319 450 
Q 1863 -75 997 -75 
Q 569 -75 414 31 
Q 259 138 259 259 
Q 259 350 332 419 
Q 406 488 509 488 
Q 588 488 669 463 
Q 722 447 909 348 
Q 1097 250 1169 231 
Q 1284 197 1416 197 
Q 1734 197 1970 444 
Q 2206 691 2206 1028 
Q 2206 1275 2097 1509 
Q 2016 1684 1919 1775 
Q 1784 1900 1550 2001 
Q 1316 2103 1072 2103 
L 972 2103 
L 972 2197 
Q 1219 2228 1467 2375 
Q 1716 2522 1828 2728 
Q 1941 2934 1941 3181 
Q 1941 3503 1739 3701 
Q 1538 3900 1238 3900 
Q 753 3900 428 3381 
L 325 3431 
z
" transform="scale(0.015625)"/>
       </defs>
       <use xlink:href="#TimesNewRomanPSMT-33"/>
       <use xlink:href="#TimesNewRomanPSMT-30" x="50"/>
       <use xlink:href="#TimesNewRomanPSMT-30" x="100"/>
      </g>
     </g>
    </g>
   </g>
   <g id="matplotlib.axis_2">
    <g id="ytick_1">
     <g id="line2d_8">
      <defs>
       <path id="me139b87397" d="M 0 0 
L -3.5 0 
" style="stroke: #000000; stroke-width: 0.8"/>
      </defs>
      <g>
       <use xlink:href="#me139b87397" x="71.6375" y="133.986774" style="stroke: #000000; stroke-width: 0.8"/>
      </g>
     </g>
     <g id="text_8">
      <!-- 0.0 -->
      <g transform="translate(39.6375 140.930524) scale(0.2 -0.2)">
       <defs>
        <path id="TimesNewRomanPSMT-2e" d="M 800 606 
Q 947 606 1047 504 
Q 1147 403 1147 259 
Q 1147 116 1045 14 
Q 944 -88 800 -88 
Q 656 -88 554 14 
Q 453 116 453 259 
Q 453 406 554 506 
Q 656 606 800 606 
z
" transform="scale(0.015625)"/>
       </defs>
       <use xlink:href="#TimesNewRomanPSMT-30"/>
       <use xlink:href="#TimesNewRomanPSMT-2e" x="50"/>
       <use xlink:href="#TimesNewRomanPSMT-30" x="75"/>
      </g>
     </g>
    </g>
    <g id="ytick_2">
     <g id="line2d_9">
      <g>
       <use xlink:href="#me139b87397" x="71.6375" y="69.534002" style="stroke: #000000; stroke-width: 0.8"/>
      </g>
     </g>
     <g id="text_9">
      <!-- 2.0 -->
      <g transform="translate(39.6375 76.477752) scale(0.2 -0.2)">
       <use xlink:href="#TimesNewRomanPSMT-32"/>
       <use xlink:href="#TimesNewRomanPSMT-2e" x="50"/>
       <use xlink:href="#TimesNewRomanPSMT-30" x="75"/>
      </g>
     </g>
    </g>
    <g id="text_10">
     <!-- CPU使用率 -->
     <g transform="translate(33.059375 127.188125) rotate(-90) scale(0.2 -0.2)">
      <defs>
       <path id="SimSun-43" d="M 1725 50 
Q 1025 50 612 575 
Q 200 1100 200 2225 
Q 200 3175 637 3800 
Q 1075 4425 1825 4425 
Q 2000 4425 2175 4375 
Q 2350 4300 2475 4300 
Q 2575 4300 2637 4325 
Q 2700 4350 2750 4425 
L 2975 3325 
L 2825 3275 
Q 2675 3750 2425 4000 
Q 2175 4250 1775 4250 
Q 1250 4250 962 3675 
Q 675 3100 675 2250 
Q 675 1325 925 800 
Q 1175 275 1750 275 
Q 2150 275 2437 562 
Q 2725 850 2825 1325 
L 2975 1250 
Q 2850 725 2512 387 
Q 2175 50 1725 50 
z
" transform="scale(0.015625)"/>
       <path id="SimSun-50" d="M 950 2100 
L 950 450 
Q 950 350 1012 300 
Q 1075 250 1175 250 
L 1350 250 
L 1350 100 
L 150 100 
L 150 250 
L 325 250 
Q 450 250 500 300 
Q 550 350 550 450 
L 550 4025 
Q 550 4125 500 4175 
Q 450 4225 325 4225 
L 175 4225 
L 175 4375 
L 1650 4375 
Q 2275 4375 2612 4062 
Q 2950 3750 2950 3275 
Q 2950 2700 2587 2400 
Q 2225 2100 1725 2100 
L 950 2100 
z
M 1575 2250 
Q 1950 2250 2237 2475 
Q 2525 2700 2525 3250 
Q 2525 3750 2287 3987 
Q 2050 4225 1525 4225 
L 1175 4225 
Q 1075 4225 1012 4175 
Q 950 4125 950 4025 
L 950 2250 
L 1575 2250 
z
" transform="scale(0.015625)"/>
       <path id="SimSun-55" d="M 1625 250 
Q 2000 250 2262 500 
Q 2525 750 2525 1125 
L 2525 4025 
Q 2525 4125 2475 4175 
Q 2425 4225 2300 4225 
L 2150 4225 
L 2150 4375 
L 3050 4375 
L 3050 4225 
L 2900 4225 
Q 2800 4225 2737 4175 
Q 2675 4125 2675 4025 
L 2675 1125 
Q 2675 625 2337 337 
Q 2000 50 1575 50 
Q 1125 50 787 300 
Q 450 550 450 1100 
L 450 4025 
Q 450 4125 400 4175 
Q 350 4225 225 4225 
L 100 4225 
L 100 4375 
L 1200 4375 
L 1200 4225 
L 1075 4225 
Q 975 4225 912 4175 
Q 850 4125 850 4025 
L 850 1100 
Q 850 600 1062 425 
Q 1275 250 1625 250 
z
" transform="scale(0.015625)"/>
       <path id="SimSun-4f7f" d="M 2875 3150 
L 2875 2100 
L 3825 2100 
Q 3850 2825 3850 3150 
L 2875 3150 
z
M 4175 3150 
Q 4175 2800 4150 2100 
L 5150 2100 
L 5150 3150 
L 4175 3150 
z
M 5475 3100 
L 5475 2425 
Q 5475 2100 5500 1800 
L 5150 1675 
L 5150 1950 
L 4150 1950 
Q 4125 1175 3875 600 
Q 4275 275 4875 75 
Q 5475 -125 6075 -150 
L 6075 -250 
Q 5700 -300 5600 -575 
Q 4525 -325 3725 350 
Q 3425 25 2925 -225 
Q 2425 -475 1875 -650 
L 1825 -550 
Q 2400 -325 2850 -25 
Q 3300 275 3500 575 
Q 3200 925 2825 1650 
L 2900 1700 
Q 3325 1100 3625 825 
Q 3800 1300 3825 1950 
L 2875 1950 
L 2875 1825 
L 2525 1675 
Q 2550 2075 2550 2562 
Q 2550 3050 2525 3500 
L 2875 3300 
L 3850 3300 
L 3850 4025 
L 2975 4025 
Q 2650 4025 2375 3950 
L 2150 4175 
L 3850 4175 
L 3850 4525 
Q 3850 4775 3825 5225 
L 4350 5000 
L 4175 4825 
L 4175 4175 
L 5300 4175 
L 5600 4475 
L 6050 4025 
L 4175 4025 
L 4175 3300 
L 5100 3300 
L 5275 3525 
L 5650 3225 
L 5475 3100 
z
M 1675 3175 
L 1675 -450 
L 1325 -625 
Q 1350 -75 1350 350 
L 1350 3200 
Q 900 2475 350 1900 
L 275 1950 
Q 700 2525 1112 3400 
Q 1525 4275 1800 5250 
L 2325 4925 
L 2125 4800 
Q 1725 3925 1500 3525 
L 1875 3325 
L 1675 3175 
z
" transform="scale(0.015625)"/>
       <path id="SimSun-7528" d="M 3400 3150 
L 3400 1825 
L 5075 1825 
L 5075 3150 
L 3400 3150 
z
M 4075 100 
Q 4725 50 4900 62 
Q 5075 75 5075 400 
L 5075 1675 
L 3400 1675 
Q 3400 75 3425 -225 
L 3050 -400 
Q 3075 1025 3075 1675 
L 1425 1675 
Q 1250 350 375 -600 
L 300 -550 
Q 775 225 950 1025 
Q 1125 1825 1125 3225 
Q 1125 4625 1100 5075 
L 1475 4825 
L 5050 4825 
L 5225 5100 
L 5625 4800 
L 5425 4600 
L 5425 225 
Q 5450 -400 4875 -575 
Q 4825 -150 4075 -25 
L 4075 100 
z
M 1475 4675 
L 1475 3300 
L 3075 3300 
L 3075 4675 
L 1475 4675 
z
M 3400 4675 
L 3400 3300 
L 5075 3300 
L 5075 4675 
L 3400 4675 
z
M 1475 3150 
Q 1450 2100 1425 1825 
L 3075 1825 
L 3075 3150 
L 1475 3150 
z
" transform="scale(0.015625)"/>
       <path id="SimSun-7387" d="M 875 3725 
L 925 3800 
Q 1375 3650 1550 3525 
Q 1725 3400 1725 3250 
Q 1725 3175 1662 3025 
Q 1600 2875 1550 2875 
Q 1500 2875 1425 3050 
Q 1275 3325 875 3725 
z
M 550 1850 
Q 875 1925 2000 2575 
L 2050 2500 
Q 1675 2225 1337 1937 
Q 1000 1650 875 1425 
L 550 1850 
z
M 5200 3450 
Q 4800 3150 4275 2800 
L 4225 2875 
Q 4775 3400 5050 3925 
L 5450 3525 
L 5200 3450 
z
M 4325 2500 
L 4350 2575 
Q 5225 2350 5375 2212 
Q 5525 2075 5525 1900 
Q 5525 1775 5487 1662 
Q 5450 1550 5400 1550 
Q 5325 1550 5200 1800 
Q 4975 2150 4325 2500 
z
M 3150 3900 
Q 2500 3300 2300 3150 
Q 2800 3150 3400 3175 
Q 3700 3500 3850 3825 
L 4250 3450 
Q 4050 3400 3450 2825 
Q 2850 2250 2475 1950 
Q 3150 1975 3850 2000 
Q 3750 2175 3550 2450 
L 3600 2500 
Q 4050 2250 4200 2100 
Q 4350 1950 4350 1850 
Q 4350 1775 4250 1625 
Q 4150 1475 4100 1475 
Q 4075 1475 4050 1550 
Q 4000 1700 3900 1900 
Q 3650 1875 3075 1800 
L 3500 1550 
L 3325 1425 
L 3325 975 
L 5325 975 
L 5650 1300 
L 6100 825 
L 3325 825 
Q 3325 -275 3350 -525 
L 2975 -650 
Q 3000 0 3000 825 
L 1125 825 
Q 800 825 525 750 
L 300 975 
L 3000 975 
L 3000 1775 
Q 2450 1700 2200 1525 
L 1950 1950 
Q 2275 1950 2675 2350 
Q 3075 2750 3325 3050 
Q 2400 2950 2150 2775 
L 1950 3175 
Q 2150 3150 2475 3575 
Q 2800 4000 2900 4225 
L 1450 4225 
Q 1125 4225 850 4150 
L 625 4375 
L 3100 4375 
Q 3050 4800 2675 5200 
L 2725 5250 
Q 3225 5050 3337 4912 
Q 3450 4775 3450 4700 
Q 3450 4550 3250 4375 
L 5025 4375 
L 5350 4675 
L 5775 4225 
L 3050 4225 
L 3375 3950 
L 3150 3900 
z
" transform="scale(0.015625)"/>
      </defs>
      <use xlink:href="#SimSun-43"/>
      <use xlink:href="#SimSun-50" x="50"/>
      <use xlink:href="#SimSun-55" x="100"/>
      <use xlink:href="#SimSun-4f7f" x="150"/>
      <use xlink:href="#SimSun-7528" x="250"/>
      <use xlink:href="#SimSun-7387" x="350"/>
     </g>
    </g>
   </g>
   <g id="line2d_10">
    <path d="M 115.312577 94.735034 
L 118.356136 97.50006 
L 121.399695 99.182276 
L 124.443255 98.679545 
L 127.486814 97.983455 
L 130.530374 101.831286 
L 133.573933 100.419771 
L 136.617492 100.497115 
L 139.661052 102.778742 
L 142.704611 103.706862 
L 145.74817 102.624054 
L 148.79173 103.745534 
L 151.835289 119.504236 
L 154.878848 99.781686 
L 157.922408 99.627001 
L 160.965967 100.245746 
L 164.009526 101.096526 
L 167.053086 101.193202 
L 170.096645 103.030107 
L 173.140205 112.981617 
L 176.183764 114.934533 
L 179.227323 117.254834 
L 182.270883 119.96185 
L 185.314442 120.761066 
L 188.358001 119.175526 
L 191.401561 120.103646 
L 194.44512 120.812627 
L 197.488679 122.127463 
L 200.532239 121.843872 
L 203.575798 122.913787 
L 206.619357 123.674329 
L 209.662917 125.234088 
L 212.706476 126.278221 
L 215.750036 129.442857 
L 218.793595 125.246978 
L 221.837154 129.552426 
L 224.880714 124.692683 
L 227.924273 129.081919 
L 230.967832 124.421982 
L 234.011392 126.993649 
L 237.054951 121.998559 
L 240.09851 123.15871 
L 243.14207 122.881561 
L 246.185629 123.487418 
L 249.229188 123.56476 
L 252.272748 124.157726 
L 255.316307 124.073937 
L 258.359867 124.641122 
L 264.446985 124.679794 
L 267.490545 123.268276 
L 270.534104 124.267297 
L 273.577663 123.764564 
L 276.621223 125.13741 
L 279.664782 124.815144 
L 282.708341 125.446782 
L 285.751901 124.924713 
L 288.79546 127.754191 
L 291.83902 128.295596 
L 294.882579 129.455742 
L 297.926138 125.362993 
L 300.969698 125.95596 
L 304.013257 120.877079 
L 307.056816 125.388773 
L 310.100376 127.167673 
L 316.187494 127.818643 
L 319.231054 127.457709 
L 322.274613 126.7165 
L 325.318172 127.528607 
L 328.361732 126.632711 
L 331.405291 124.467099 
L 334.448851 126.020412 
L 337.49241 129.758674 
L 340.535969 128.437392 
L 343.579529 129.520198 
L 346.623088 130.28074 
L 349.666647 130.486989 
L 352.710207 130.441872 
L 355.753766 130.151836 
L 358.797325 125.988186 
L 361.840885 129.210823 
L 364.884444 126.162206 
L 367.928003 123.816126 
L 370.971563 125.362993 
L 374.015122 125.105182 
L 377.058682 126.097754 
L 380.102241 124.937606 
L 383.1458 122.862226 
L 386.18936 123.571207 
L 392.276478 123.416519 
L 395.320038 123.738783 
L 398.363597 122.617305 
L 401.407156 122.088793 
L 404.450716 121.77942 
L 407.494275 121.018876 
L 410.537834 120.902861 
L 413.581394 119.807163 
L 416.624953 112.543336 
L 419.668513 112.446656 
L 422.712072 121.005985 
L 425.755631 120.245443 
L 428.799191 120.348567 
L 431.84275 113.245873 
L 434.886309 110.596864 
L 437.929869 110.339052 
L 440.973428 111.344515 
L 444.016987 105.234393 
L 447.060547 98.0608 
L 450.104106 99.723681 
L 453.147665 100.445552 
L 456.191225 101.992418 
L 459.234784 102.404915 
L 462.278344 105.395524 
L 465.321903 105.936927 
L 468.365462 103.513504 
L 471.409022 107.303326 
L 474.452581 104.312719 
L 477.49614 105.086152 
L 480.5397 99.929929 
L 483.583259 92.414737 
L 486.626818 83.616934 
L 489.670378 78.879653 
L 492.713937 55.889352 
L 495.757496 76.946071 
L 498.801056 82.13452 
L 501.844615 85.292703 
L 504.888175 75.33475 
L 507.931734 77.75173 
L 510.975293 71.080871 
L 514.018853 77.783958 
L 517.062412 68.986154 
L 520.105971 58.280547 
L 523.149531 53.12433 
L 526.19309 57.262194 
L 529.236649 63.024275 
L 532.280209 62.482866 
L 535.323768 64.306883 
L 538.367327 68.960377 
L 541.410887 52.080191 
L 544.454446 65.808636 
L 547.498006 60.936004 
L 550.541565 61.206705 
L 553.585124 63.256305 
L 556.628684 59.118434 
L 559.672243 59.930543 
L 562.715802 66.20824 
L 565.759362 71.918754 
L 568.802921 68.986154 
L 571.84648 61.251821 
L 574.89004 56.991493 
L 577.933599 55.986032 
L 580.977158 56.991493 
L 584.020718 59.582494 
L 587.064277 59.079764 
L 590.107837 107.458014 
L 593.151396 56.759463 
L 596.194955 56.218062 
L 599.238515 62.753574 
L 602.282074 67.858228 
L 605.325633 64.764496 
L 608.369193 67.123468 
L 611.412752 81.038821 
L 614.456311 78.847428 
L 617.499871 77.590598 
L 620.54343 77.268335 
L 623.586989 80.007579 
L 626.630549 78.492937 
L 629.674108 74.110151 
L 632.717668 61.709435 
L 635.761227 63.836376 
L 638.804786 72.473048 
L 641.848346 78.91188 
L 644.891905 77.332787 
L 647.935464 77.75173 
L 650.979024 73.46562 
L 654.022583 84.551496 
L 657.066142 85.453835 
L 660.109702 84.583724 
L 663.153261 77.042751 
L 666.19682 65.325236 
L 669.24038 71.145319 
L 672.283939 80.619878 
L 675.327499 77.042751 
L 678.371058 79.10524 
L 681.414617 83.262442 
L 684.458177 82.424555 
L 687.501736 81.94116 
L 690.545295 83.069086 
L 693.588855 84.87376 
L 696.632414 83.778065 
L 699.675973 76.881619 
L 702.719533 67.974247 
L 705.763092 69.946499 
L 708.806651 69.211738 
L 711.850211 70.062514 
L 714.89377 69.173068 
L 717.93733 65.421916 
L 720.980889 63.759035 
L 724.024448 60.162566 
L 727.068008 63.101616 
L 730.111567 56.836804 
L 733.155126 58.770385 
L 736.198686 59.814524 
L 739.242245 57.339542 
L 742.285804 64.184425 
L 745.329364 69.327757 
L 748.372923 78.486495 
L 751.416482 80.555426 
L 754.460042 77.461694 
L 757.503601 73.169138 
L 760.547161 77.680832 
L 763.59072 84.87376 
L 766.634279 81.683349 
L 769.677839 82.811275 
L 772.721398 78.718525 
L 775.764957 79.427504 
L 778.808517 67.394168 
L 781.852076 73.046677 
L 784.895635 74.464639 
L 787.939195 76.269316 
L 790.982754 75.270301 
L 794.026313 79.137464 
L 797.069873 76.623808 
L 800.113432 78.879653 
L 803.156992 79.846447 
L 806.200551 77.526146 
L 809.24411 81.071049 
L 812.28767 78.976332 
L 815.331229 79.878671 
L 818.374788 79.52418 
L 821.418348 67.4264 
L 824.461907 66.156677 
L 827.505466 60.201244 
L 830.549026 64.184425 
L 833.592585 54.400492 
L 836.636144 53.066321 
L 839.679704 36.263484 
L 842.723263 38.383979 
L 845.766823 51.061837 
L 848.810382 47.587833 
L 851.853941 59.853195 
L 854.897501 51.886832 
L 857.94106 47.516938 
L 860.984619 59.118434 
L 864.028179 58.461014 
L 867.071738 62.212166 
L 870.115297 64.764496 
L 873.158857 63.410986 
L 876.202416 63.294975 
L 879.245975 66.466048 
L 882.289535 60.742645 
L 885.333094 58.461014 
L 888.376654 58.577033 
L 891.420213 55.554196 
L 894.463772 49.753444 
L 897.507332 49.12181 
L 900.550891 62.598885 
L 903.59445 59.002423 
L 906.63801 62.714904 
L 909.681569 65.731287 
L 912.725128 63.449657 
L 915.768688 66.775426 
L 918.812247 54.361822 
L 921.855806 67.83245 
L 924.899366 64.880515 
L 927.942925 66.607844 
L 930.986485 67.60042 
L 934.030044 68.309403 
L 937.073603 73.497848 
L 943.160722 72.40215 
L 946.204281 69.501778 
L 949.247841 69.340642 
L 952.2914 75.785921 
L 955.334959 76.881619 
L 958.378519 82.708149 
L 961.422078 82.914397 
L 964.465637 82.759712 
L 967.509197 82.192525 
L 970.552756 85.518291 
L 973.596316 86.317504 
L 976.639875 84.255014 
L 982.726994 93.433091 
L 985.770553 92.350281 
L 988.814112 88.508896 
L 988.814112 88.508896 
" clip-path="url(#p4ebf64cef6)" style="fill: none; stroke: #1f77b4; stroke-width: 1.5; stroke-linecap: square"/>
   </g>
   <g id="line2d_11">
    <path d="M 553.585124 51.161045 
L 556.628684 49.879574 
L 559.672243 49.509044 
L 562.715802 46.361813 
L 565.759362 51.343978 
L 568.802921 46.360538 
L 574.89004 47.112616 
L 577.933599 46.589755 
L 580.977158 45.444127 
L 584.020718 46.404164 
L 587.064277 48.473264 
L 590.107837 43.506527 
L 593.151396 42.721348 
L 596.194955 41.69641 
L 599.238515 43.148029 
L 602.282074 44.3764 
L 605.325633 43.036927 
L 608.369193 43.644543 
L 611.412752 40.198176 
L 614.456311 38.014969 
L 617.499871 40.219697 
L 620.54343 39.580179 
L 626.630549 40.926828 
L 629.674108 37.833058 
L 632.717668 38.523416 
L 635.761227 37.916492 
L 638.804786 36.073536 
L 641.848346 37.351879 
L 644.891905 35.472074 
L 647.935464 36.375876 
L 650.979024 36.683634 
L 654.022583 36.159259 
L 657.066142 36.451819 
L 660.109702 37.788955 
L 663.153261 35.816266 
L 666.19682 38.543601 
L 669.24038 35.674869 
L 672.283939 38.319239 
L 675.327499 38.69381 
L 678.371058 37.223521 
L 681.414617 38.392353 
L 684.458177 38.067562 
L 687.501736 37.200363 
L 690.545295 38.37827 
L 693.588855 39.783174 
L 696.632414 37.947087 
L 699.675973 38.530869 
L 702.719533 36.868695 
L 705.763092 33.889261 
L 708.806651 39.221927 
L 711.850211 37.729886 
L 714.89377 39.053623 
L 717.93733 37.389397 
L 720.980889 38.717498 
L 724.024448 37.038744 
L 727.068008 41.241193 
L 730.111567 38.054155 
L 733.155126 37.724254 
L 736.198686 39.763343 
L 739.242245 38.191894 
L 742.285804 38.755777 
L 745.329364 38.439683 
L 748.372923 37.281769 
L 751.416482 38.115737 
L 754.460042 35.705618 
L 757.503601 42.338409 
L 760.547161 38.220676 
L 763.59072 40.558518 
L 766.634279 39.672172 
L 769.677839 39.529646 
L 772.721398 38.532805 
L 775.764957 40.585041 
L 778.808517 41.230836 
L 781.852076 39.183602 
L 784.895635 40.51281 
L 787.939195 43.033293 
L 790.982754 44.399411 
L 794.026313 42.572744 
L 797.069873 42.377517 
L 800.113432 40.041105 
L 803.156992 42.597546 
L 806.200551 43.181144 
L 809.24411 42.765489 
L 812.28767 43.34115 
L 815.331229 42.862745 
L 818.374788 43.868206 
L 821.418348 43.077011 
L 824.461907 44.896694 
L 827.505466 44.879461 
L 830.549026 47.636292 
L 833.592585 44.712455 
L 836.636144 45.342122 
L 839.679704 48.890963 
L 842.723263 47.88604 
L 845.766823 49.306871 
L 848.810382 50.603878 
L 851.853941 48.621768 
L 854.897501 52.330938 
L 857.94106 47.294044 
L 860.984619 47.111641 
L 864.028179 52.596913 
L 867.071738 52.661469 
L 870.115297 54.424172 
L 873.158857 51.048223 
L 876.202416 54.08731 
L 879.245975 51.878995 
L 882.289535 53.74454 
L 885.333094 52.12003 
L 888.376654 54.443081 
L 891.420213 51.981683 
L 894.463772 55.896421 
L 897.507332 56.478536 
L 900.550891 59.664138 
L 903.59445 57.881266 
L 906.63801 57.241218 
L 909.681569 61.764717 
L 912.725128 55.882445 
L 915.768688 57.533155 
L 918.812247 60.320036 
L 924.899366 58.966995 
L 927.942925 59.658375 
L 930.986485 58.488997 
L 934.030044 63.228952 
L 937.073603 63.488381 
L 940.117163 65.236009 
L 943.160722 65.619832 
L 946.204281 65.239144 
L 949.247841 65.442162 
L 952.2914 64.860316 
L 955.334959 66.970184 
L 958.378519 66.996116 
L 961.422078 69.58976 
L 964.465637 70.586908 
L 967.509197 69.148681 
L 970.552756 72.3921 
L 973.596316 69.923241 
L 976.639875 68.268943 
L 979.683434 70.215424 
L 982.726994 74.641967 
L 985.770553 76.759146 
L 988.814112 74.32265 
L 988.814112 74.32265 
" clip-path="url(#p4ebf64cef6)" style="fill: none; stroke: #ff7f0e; stroke-width: 1.5; stroke-linecap: square"/>
   </g>
   <g id="line2d_12">
    <path d="M 553.585124 135.316875 
L 553.585124 29.059375 
" clip-path="url(#p4ebf64cef6)" style="fill: none; stroke-dasharray: 7.4,3.2; stroke-dashoffset: 0; stroke: #0000ff; stroke-width: 2"/>
   </g>
   <g id="patch_3">
    <path d="M 71.6375 135.316875 
L 71.6375 29.059375 
" style="fill: none; stroke: #000000; stroke-width: 0.8; stroke-linejoin: miter; stroke-linecap: square"/>
   </g>
   <g id="patch_4">
    <path d="M 1032.489189 135.316875 
L 1032.489189 29.059375 
" style="fill: none; stroke: #000000; stroke-width: 0.8; stroke-linejoin: miter; stroke-linecap: square"/>
   </g>
   <g id="patch_5">
    <path d="M 71.6375 135.316875 
L 1032.489189 135.316875 
" style="fill: none; stroke: #000000; stroke-width: 0.8; stroke-linejoin: miter; stroke-linecap: square"/>
   </g>
   <g id="patch_6">
    <path d="M 71.6375 29.059375 
L 1032.489189 29.059375 
" style="fill: none; stroke: #000000; stroke-width: 0.8; stroke-linejoin: miter; stroke-linecap: square"/>
   </g>
   <g id="text_11">
    <!-- 云函数ID: 28 -->
    <g transform="translate(492.063345 23.059375) scale(0.2 -0.2)">
     <defs>
      <path id="SimSun-4e91" d="M 1200 4450 
L 4500 4450 
L 4850 4800 
L 5350 4300 
L 1975 4300 
Q 1700 4300 1425 4225 
L 1200 4450 
z
M 1600 275 
Q 2300 300 4725 450 
Q 4425 975 3850 1700 
L 3925 1775 
Q 5200 725 5287 500 
Q 5375 275 5375 175 
Q 5375 0 5250 -162 
Q 5125 -325 5075 -325 
Q 5025 -325 4975 -200 
Q 4875 50 4775 300 
Q 1650 -25 1300 -300 
L 975 300 
Q 1225 350 1462 550 
Q 1700 750 2150 1462 
Q 2600 2175 2725 2600 
L 1250 2600 
Q 925 2600 650 2525 
L 425 2750 
L 5025 2750 
L 5450 3175 
L 6025 2600 
L 3250 2600 
Q 3000 2025 2500 1375 
Q 2000 725 1600 275 
z
" transform="scale(0.015625)"/>
      <path id="SimSun-51fd" d="M 3050 2275 
L 3050 3000 
Q 3050 3450 3025 3800 
L 3275 3625 
L 4450 4475 
L 1650 4475 
Q 1325 4475 1050 4400 
L 825 4625 
L 4450 4625 
L 4775 4875 
L 5150 4375 
Q 4875 4325 4550 4175 
Q 4225 4025 3400 3550 
L 3550 3450 
L 3375 3325 
L 3375 2400 
Q 4250 3225 4475 3600 
L 4875 3150 
L 4625 3125 
Q 3625 2425 3400 2275 
Q 4575 1675 4687 1487 
Q 4800 1300 4800 1150 
Q 4800 1025 4750 925 
Q 4700 825 4675 825 
Q 4575 825 4375 1150 
Q 4075 1600 3375 2150 
L 3375 725 
Q 3375 350 2875 150 
Q 2850 450 2200 650 
L 2200 750 
Q 2800 675 2925 700 
Q 3050 725 3050 850 
L 3050 2100 
Q 1850 1300 1625 1025 
L 1275 1400 
Q 1575 1475 2087 1725 
Q 2600 1975 3050 2275 
z
M 1700 3475 
L 1775 3550 
Q 2350 3200 2475 3025 
Q 2600 2850 2600 2775 
Q 2600 2650 2500 2525 
Q 2400 2400 2350 2400 
Q 2275 2400 2225 2575 
Q 2150 2875 1700 3475 
z
M 5150 0 
L 5150 2175 
Q 5150 2725 5125 3325 
L 5725 3050 
L 5500 2850 
L 5500 525 
Q 5500 100 5525 -400 
L 5150 -600 
L 5150 -150 
L 1250 -150 
L 1000 -375 
L 675 -50 
L 875 125 
L 875 2375 
Q 875 2800 850 3425 
L 1450 3150 
L 1225 2975 
L 1225 0 
L 5150 0 
z
" transform="scale(0.015625)"/>
      <path id="SimSun-6570" d="M 1875 1525 
Q 1675 1200 1500 900 
Q 1825 825 2275 725 
Q 2500 975 2725 1525 
L 1875 1525 
z
M 850 4900 
Q 1325 4600 1425 4450 
Q 1525 4300 1525 4225 
Q 1525 4100 1437 3975 
Q 1350 3850 1300 3850 
Q 1225 3850 1150 4100 
Q 1050 4450 775 4850 
L 850 4900 
z
M 3000 4975 
L 3450 4675 
Q 3250 4625 3100 4425 
Q 2925 4225 2525 3825 
L 2450 3875 
Q 2925 4625 3000 4975 
z
M 1875 5250 
L 2425 5000 
L 2225 4825 
L 2225 3675 
L 2850 3675 
L 3125 3950 
L 3550 3525 
L 2225 3525 
L 2225 3300 
Q 2800 3175 2937 3062 
Q 3075 2950 3075 2775 
Q 3075 2700 3050 2587 
Q 3025 2475 2975 2475 
Q 2925 2475 2800 2650 
Q 2600 2925 2225 3175 
L 2225 2400 
L 1925 2200 
L 2275 2050 
Q 2150 2000 1950 1675 
L 2725 1675 
L 2900 1900 
L 3275 1575 
L 3050 1450 
Q 2800 875 2600 650 
Q 3000 550 3137 437 
Q 3275 325 3275 150 
Q 3275 -25 3200 -25 
Q 3125 -25 3025 75 
Q 2750 275 2400 425 
Q 1525 -275 325 -500 
L 300 -425 
Q 1450 -50 2100 550 
Q 1600 725 1125 800 
Q 1225 950 1525 1525 
L 1200 1525 
Q 875 1525 600 1450 
L 375 1675 
L 1575 1675 
Q 1675 1925 1775 2275 
L 1900 2225 
L 1900 3250 
Q 1225 2475 350 2050 
L 300 2125 
Q 1225 2775 1700 3525 
L 1250 3525 
Q 925 3525 650 3450 
L 425 3675 
L 1900 3675 
Q 1900 4575 1875 5250 
z
M 3925 3525 
Q 4050 2075 4525 1100 
Q 4925 1950 5025 3525 
L 3925 3525 
z
M 4050 5250 
L 4625 4925 
Q 4425 4850 4325 4625 
Q 4225 4400 3950 3675 
L 5375 3675 
L 5675 3975 
L 6125 3525 
L 5400 3525 
Q 5250 1675 4750 775 
Q 5325 75 6100 -100 
L 6100 -200 
Q 5625 -275 5600 -500 
Q 4950 -50 4525 525 
Q 3700 -275 2550 -650 
L 2500 -575 
Q 3650 -50 4325 800 
Q 3850 1975 3825 3375 
Q 3575 2725 3100 2150 
L 3025 2200 
Q 3625 3200 4050 5250 
z
" transform="scale(0.015625)"/>
      <path id="SimSun-49" d="M 600 4225 
L 600 4375 
L 2600 4375 
L 2600 4225 
L 2025 4225 
Q 1925 4225 1862 4175 
Q 1800 4125 1800 4025 
L 1800 450 
Q 1800 350 1862 300 
Q 1925 250 2025 250 
L 2600 250 
L 2600 100 
L 600 100 
L 600 250 
L 1175 250 
Q 1300 250 1350 300 
Q 1400 350 1400 450 
L 1400 4025 
Q 1400 4125 1350 4175 
Q 1300 4225 1175 4225 
L 600 4225 
z
" transform="scale(0.015625)"/>
      <path id="SimSun-44" d="M 2500 2275 
Q 2500 3350 2175 3787 
Q 1850 4225 1275 4225 
Q 1100 4225 1012 4175 
Q 925 4125 925 4025 
L 925 450 
Q 925 350 1000 300 
Q 1075 250 1200 250 
Q 1750 250 2125 662 
Q 2500 1075 2500 2275 
z
M 525 4025 
Q 525 4125 475 4175 
Q 425 4225 300 4225 
L 150 4225 
L 150 4375 
L 1275 4375 
Q 2050 4375 2512 3875 
Q 2975 3375 2975 2325 
Q 2975 1175 2525 637 
Q 2075 100 1200 100 
L 125 100 
L 125 250 
L 300 250 
Q 425 250 475 300 
Q 525 350 525 450 
L 525 4025 
z
" transform="scale(0.015625)"/>
      <path id="SimSun-3a" d="M 1900 2725 
Q 1900 2575 1800 2475 
Q 1700 2375 1550 2375 
Q 1400 2375 1300 2475 
Q 1200 2575 1200 2725 
Q 1200 2875 1300 2975 
Q 1400 3075 1550 3075 
Q 1700 3075 1800 2975 
Q 1900 2875 1900 2725 
z
M 1900 375 
Q 1900 225 1800 125 
Q 1700 25 1550 25 
Q 1400 25 1300 125 
Q 1200 225 1200 375 
Q 1200 525 1300 625 
Q 1400 725 1550 725 
Q 1700 725 1800 625 
Q 1900 525 1900 375 
z
" transform="scale(0.015625)"/>
      <path id="SimSun-20" d="M 0 0 
Q 0 0 0 0 
z
" transform="scale(0.015625)"/>
      <path id="SimSun-32" d="M 2325 3325 
Q 2325 3775 2125 4012 
Q 1925 4250 1525 4250 
Q 1225 4250 1012 4087 
Q 800 3925 800 3675 
Q 800 3525 900 3425 
Q 975 3325 975 3225 
Q 975 3100 912 3037 
Q 850 2975 725 2975 
Q 575 2975 487 3062 
Q 400 3150 400 3350 
Q 400 3875 775 4150 
Q 1150 4425 1575 4425 
Q 2175 4425 2462 4125 
Q 2750 3825 2750 3375 
Q 2750 3075 2612 2775 
Q 2475 2475 2175 2200 
Q 1450 1500 1062 1062 
Q 675 625 600 475 
L 2075 475 
Q 2300 475 2450 650 
Q 2600 825 2650 1175 
L 2800 1175 
L 2650 100 
L 325 100 
L 325 425 
Q 450 650 737 1000 
Q 1025 1350 1500 1825 
Q 1925 2250 2125 2625 
Q 2325 3000 2325 3325 
z
" transform="scale(0.015625)"/>
      <path id="SimSun-38" d="M 625 1125 
Q 625 725 887 475 
Q 1150 225 1550 225 
Q 2025 225 2237 475 
Q 2450 725 2450 1100 
Q 2450 1425 2150 1725 
Q 1850 2025 1250 2275 
Q 950 2075 787 1775 
Q 625 1475 625 1125 
z
M 2825 1175 
Q 2825 700 2475 375 
Q 2125 50 1550 50 
Q 1025 50 650 375 
Q 275 700 275 1125 
Q 275 1550 487 1850 
Q 700 2150 1100 2375 
Q 750 2550 562 2812 
Q 375 3075 375 3400 
Q 375 3825 700 4125 
Q 1025 4425 1600 4425 
Q 2125 4425 2450 4125 
Q 2775 3825 2775 3400 
Q 2775 3100 2587 2837 
Q 2400 2575 2000 2375 
Q 2425 2125 2625 1825 
Q 2825 1525 2825 1175 
z
M 2425 3375 
Q 2425 3725 2225 3987 
Q 2025 4250 1600 4250 
Q 1125 4250 925 4000 
Q 725 3750 725 3475 
Q 725 3200 1012 2937 
Q 1300 2675 1825 2475 
Q 2125 2625 2275 2850 
Q 2425 3075 2425 3375 
z
" transform="scale(0.015625)"/>
     </defs>
     <use xlink:href="#SimSun-4e91"/>
     <use xlink:href="#SimSun-51fd" x="100"/>
     <use xlink:href="#SimSun-6570" x="200"/>
     <use xlink:href="#SimSun-49" x="300"/>
     <use xlink:href="#SimSun-44" x="350"/>
     <use xlink:href="#SimSun-3a" x="400"/>
     <use xlink:href="#SimSun-20" x="450"/>
     <use xlink:href="#SimSun-32" x="500"/>
     <use xlink:href="#SimSun-38" x="550"/>
    </g>
   </g>
   <g id="legend_1">
    <g id="patch_7">
     <path d="M 85.6375 101.934375 
L 209.6375 101.934375 
Q 213.6375 101.934375 213.6375 97.934375 
L 213.6375 43.059375 
Q 213.6375 39.059375 209.6375 39.059375 
L 85.6375 39.059375 
Q 81.6375 39.059375 81.6375 43.059375 
L 81.6375 97.934375 
Q 81.6375 101.934375 85.6375 101.934375 
z
" style="fill: #ffffff; opacity: 0.8; stroke: #cccccc; stroke-linejoin: miter"/>
    </g>
    <g id="line2d_13">
     <path d="M 89.6375 55.996875 
L 109.6375 55.996875 
L 129.6375 55.996875 
" style="fill: none; stroke: #1f77b4; stroke-width: 1.5; stroke-linecap: square"/>
    </g>
    <g id="text_12">
     <!-- 真实值 -->
     <g transform="translate(145.6375 62.996875) scale(0.2 -0.2)">
      <defs>
       <path id="SimSun-771f" d="M 2050 3450 
L 2050 2900 
L 4300 2900 
L 4300 3450 
L 2050 3450 
z
M 2050 2750 
L 2050 2225 
L 4300 2225 
L 4300 2750 
L 2050 2750 
z
M 2050 2075 
L 2050 1550 
L 4300 1550 
L 4300 2075 
L 2050 2075 
z
M 2050 1400 
L 2050 875 
L 4300 875 
L 4300 1400 
L 2050 1400 
z
M 2875 3600 
L 2925 4325 
L 1525 4325 
Q 1200 4325 925 4250 
L 700 4475 
L 2950 4475 
Q 2975 4825 2975 5275 
L 3550 5025 
L 3375 4925 
L 3300 4475 
L 5000 4475 
L 5325 4825 
L 5775 4325 
L 3275 4325 
L 3200 3600 
L 4275 3600 
L 4450 3875 
L 4850 3575 
L 4650 3375 
L 4650 875 
L 5300 875 
L 5675 1225 
L 6125 725 
L 1150 725 
Q 825 725 550 650 
L 325 875 
L 1700 875 
Q 1700 3200 1675 3775 
L 2050 3600 
L 2875 3600 
z
M 2425 725 
L 2825 350 
L 2575 300 
Q 1500 -425 800 -650 
L 775 -575 
Q 1950 125 2425 725 
z
M 3800 700 
Q 4575 375 4962 200 
Q 5350 25 5400 -112 
Q 5450 -250 5450 -325 
Q 5450 -400 5400 -525 
Q 5350 -650 5325 -650 
Q 5250 -650 5100 -450 
Q 4875 -150 3750 625 
L 3800 700 
z
" transform="scale(0.015625)"/>
       <path id="SimSun-5b9e" d="M 1950 3625 
Q 2575 3400 2700 3250 
Q 2825 3100 2825 2975 
Q 2825 2850 2750 2700 
Q 2675 2550 2625 2550 
Q 2550 2550 2450 2800 
Q 2275 3175 1900 3550 
L 1950 3625 
z
M 3575 1325 
Q 3500 1100 3425 925 
Q 4650 550 5087 325 
Q 5525 100 5512 -225 
Q 5500 -550 5400 -550 
Q 5300 -550 5075 -300 
Q 4625 175 3375 800 
Q 3025 175 2300 -150 
Q 1575 -475 425 -625 
L 425 -525 
Q 1475 -325 2200 100 
Q 2925 525 3200 1325 
L 1225 1325 
Q 900 1325 625 1250 
L 400 1475 
L 3225 1475 
Q 3325 1950 3375 2575 
Q 3425 3200 3425 3700 
L 4050 3400 
L 3850 3225 
Q 3750 2300 3625 1475 
L 5175 1475 
L 5550 1850 
L 6075 1325 
L 3575 1325 
z
M 1275 2700 
Q 1975 2425 2100 2262 
Q 2225 2100 2225 1975 
Q 2225 1850 2150 1700 
Q 2075 1550 2025 1550 
Q 1950 1550 1850 1800 
Q 1675 2175 1225 2625 
L 1275 2700 
z
M 2750 5225 
L 2825 5275 
Q 3225 5100 3425 4925 
Q 3625 4750 3625 4600 
Q 3625 4450 3512 4300 
Q 3400 4150 3325 4150 
Q 3250 4150 3200 4400 
Q 3100 4775 2750 5225 
z
M 4975 3225 
L 5350 3925 
L 1175 3925 
Q 1225 3525 1125 3300 
Q 1025 3075 787 3100 
Q 550 3125 550 3200 
Q 550 3300 700 3475 
Q 975 3825 1050 4375 
L 1150 4375 
L 1175 4075 
L 5300 4075 
L 5575 4350 
L 6050 3800 
Q 5625 3825 5050 3175 
L 4975 3225 
z
" transform="scale(0.015625)"/>
       <path id="SimSun-503c" d="M 1525 650 
Q 1525 -225 1550 -525 
L 1175 -650 
Q 1200 250 1200 550 
L 1200 3025 
Q 750 2300 325 1850 
L 250 1900 
Q 725 2625 1100 3525 
Q 1475 4425 1675 5200 
L 2200 4875 
L 1950 4725 
Q 1550 3800 1425 3475 
L 1725 3300 
L 1525 3150 
L 1525 650 
z
M 2875 3225 
L 2875 2475 
L 4800 2475 
L 4800 3225 
L 2875 3225 
z
M 2875 2325 
L 2875 1575 
L 4800 1575 
L 4800 2325 
L 2875 2325 
z
M 2875 1425 
L 2875 675 
L 4800 675 
L 4800 1425 
L 2875 1425 
z
M 2875 525 
L 2875 -225 
L 4800 -225 
L 4800 525 
L 2875 525 
z
M 3550 4250 
Q 3575 4825 3550 5225 
L 4125 4950 
L 3925 4800 
L 3900 4250 
L 5025 4250 
L 5350 4575 
L 5825 4100 
L 3900 4100 
L 3875 3375 
L 4750 3375 
L 4975 3625 
L 5350 3300 
L 5125 3150 
L 5125 -225 
L 5350 -225 
L 5675 100 
L 6150 -375 
L 2450 -375 
Q 2125 -375 1850 -450 
L 1625 -225 
L 2550 -225 
L 2550 2550 
Q 2550 2850 2525 3575 
L 2875 3375 
L 3525 3375 
L 3550 4100 
L 2800 4100 
Q 2475 4100 2200 4025 
L 1975 4250 
L 3550 4250 
z
" transform="scale(0.015625)"/>
      </defs>
      <use xlink:href="#SimSun-771f"/>
      <use xlink:href="#SimSun-5b9e" x="100"/>
      <use xlink:href="#SimSun-503c" x="200"/>
     </g>
    </g>
    <g id="line2d_14">
     <path d="M 89.6375 84.35625 
L 109.6375 84.35625 
L 129.6375 84.35625 
" style="fill: none; stroke: #ff7f0e; stroke-width: 1.5; stroke-linecap: square"/>
    </g>
    <g id="text_13">
     <!-- 预测值 -->
     <g transform="translate(145.6375 91.35625) scale(0.2 -0.2)">
      <defs>
       <path id="SimSun-9884" d="M 475 4825 
L 2225 4825 
L 2425 5075 
L 2825 4675 
Q 2600 4625 2387 4412 
Q 2175 4200 1800 3750 
Q 2050 3575 2037 3400 
Q 2025 3225 1937 3150 
Q 1850 3075 1825 3075 
Q 1725 3075 1650 3300 
Q 1525 3600 1050 4100 
L 1100 4150 
Q 1475 3975 1700 3825 
L 2225 4675 
L 1300 4675 
Q 975 4675 700 4600 
L 475 4825 
z
M 725 100 
Q 1175 50 1362 37 
Q 1550 25 1550 275 
L 1550 2875 
L 1125 2875 
Q 800 2875 525 2800 
L 300 3025 
L 2525 3025 
L 2725 3275 
L 3150 2875 
Q 2800 2825 2275 2075 
L 2200 2125 
L 2550 2875 
L 1875 2875 
L 1875 150 
Q 1875 -400 1350 -500 
Q 1325 -175 725 0 
L 725 100 
z
M 3250 775 
Q 3275 1425 3275 2287 
Q 3275 3150 3250 3900 
L 3600 3700 
L 4050 3700 
Q 4175 4400 4200 4675 
L 3650 4675 
Q 3325 4675 3050 4600 
L 2825 4825 
L 5325 4825 
L 5675 5150 
L 6125 4675 
L 4675 4675 
Q 4500 4425 4175 3700 
L 5300 3700 
L 5475 3975 
L 5875 3675 
L 5675 3475 
L 5675 1950 
Q 5675 1525 5700 1075 
L 5350 875 
L 5350 3550 
L 3600 3550 
L 3600 1000 
L 3250 775 
z
M 4850 2875 
L 4625 2675 
Q 4625 1475 4475 937 
Q 4325 400 3900 50 
Q 3475 -300 2425 -625 
L 2400 -550 
Q 3500 -50 3837 400 
Q 4175 850 4237 1587 
Q 4300 2325 4275 3175 
L 4850 2875 
z
M 4650 950 
Q 5725 375 5875 212 
Q 6025 50 6025 -125 
Q 6025 -225 5962 -387 
Q 5900 -550 5850 -550 
Q 5800 -550 5750 -450 
Q 5625 -250 5437 0 
Q 5250 250 4600 875 
L 4650 950 
z
" transform="scale(0.015625)"/>
       <path id="SimSun-6d4b" d="M 1975 1000 
Q 2000 1475 2000 2925 
Q 2000 4375 1975 5000 
L 2350 4775 
L 3575 4775 
L 3775 4975 
L 4100 4650 
L 3900 4500 
L 3900 2350 
Q 3900 1850 3925 1350 
L 3600 1200 
L 3600 4625 
L 2325 4625 
L 2325 1150 
L 1975 1000 
z
M 2775 3975 
L 3300 3700 
L 3125 3525 
Q 3150 1825 2875 937 
Q 2600 50 1375 -600 
L 1325 -500 
Q 2200 100 2475 725 
Q 2750 1350 2775 2187 
Q 2800 3025 2775 3975 
z
M 3100 950 
Q 3825 450 3937 262 
Q 4050 75 4050 -25 
Q 4050 -150 3975 -262 
Q 3900 -375 3850 -375 
Q 3750 -375 3650 -75 
Q 3500 375 3050 875 
L 3100 950 
z
M 4475 825 
Q 4500 1200 4500 1700 
L 4500 3400 
Q 4500 3950 4475 4300 
L 5025 4025 
L 4825 3825 
L 4825 1700 
Q 4825 1325 4850 950 
L 4475 825 
z
M 5375 150 
L 5375 4050 
Q 5375 4750 5350 5125 
L 5875 4875 
L 5700 4700 
L 5700 75 
Q 5700 -200 5600 -350 
Q 5500 -500 5200 -600 
Q 5025 -225 4450 -50 
L 4450 50 
Q 5125 -50 5250 -37 
Q 5375 -25 5375 150 
z
M 1850 3500 
Q 1375 1525 1300 1225 
Q 1200 900 1212 450 
Q 1225 0 1250 -175 
Q 1250 -275 1125 -275 
Q 1025 -275 875 -225 
Q 725 -175 725 0 
Q 725 125 800 375 
Q 875 625 875 775 
Q 875 950 762 1050 
Q 650 1150 275 1250 
L 275 1350 
Q 725 1300 837 1312 
Q 950 1325 1087 1537 
Q 1225 1750 1750 3525 
L 1850 3500 
z
M 375 3775 
Q 1075 3350 1112 3100 
Q 1150 2850 1050 2775 
Q 950 2700 900 2700 
Q 800 2700 725 2975 
Q 600 3350 325 3700 
L 375 3775 
z
M 800 5100 
Q 1475 4725 1550 4512 
Q 1625 4300 1525 4187 
Q 1425 4075 1350 4075 
Q 1275 4075 1200 4300 
Q 1075 4650 750 5025 
L 800 5100 
z
" transform="scale(0.015625)"/>
      </defs>
      <use xlink:href="#SimSun-9884"/>
      <use xlink:href="#SimSun-6d4b" x="100"/>
      <use xlink:href="#SimSun-503c" x="200"/>
     </g>
    </g>
   </g>
  </g>
  <g id="axes_2">
   <g id="patch_8">
    <path d="M 71.6375 309.916875 
L 1032.489189 309.916875 
L 1032.489189 203.659375 
L 71.6375 203.659375 
z
" style="fill: #ffffff"/>
   </g>
   <g id="matplotlib.axis_3">
    <g id="xtick_8">
     <g id="line2d_15">
      <g>
       <use xlink:href="#mc9f29d2ec9" x="115.312577" y="309.916875" style="stroke: #000000; stroke-width: 0.8"/>
      </g>
     </g>
     <g id="text_14">
      <!-- 0 -->
      <g transform="translate(110.312577 330.804375) scale(0.2 -0.2)">
       <use xlink:href="#TimesNewRomanPSMT-30"/>
      </g>
     </g>
    </g>
    <g id="xtick_9">
     <g id="line2d_16">
      <g>
       <use xlink:href="#mc9f29d2ec9" x="267.490545" y="309.916875" style="stroke: #000000; stroke-width: 0.8"/>
      </g>
     </g>
     <g id="text_15">
      <!-- 50 -->
      <g transform="translate(257.490545 330.804375) scale(0.2 -0.2)">
       <use xlink:href="#TimesNewRomanPSMT-35"/>
       <use xlink:href="#TimesNewRomanPSMT-30" x="50"/>
      </g>
     </g>
    </g>
    <g id="xtick_10">
     <g id="line2d_17">
      <g>
       <use xlink:href="#mc9f29d2ec9" x="419.668513" y="309.916875" style="stroke: #000000; stroke-width: 0.8"/>
      </g>
     </g>
     <g id="text_16">
      <!-- 100 -->
      <g transform="translate(404.668513 330.804375) scale(0.2 -0.2)">
       <use xlink:href="#TimesNewRomanPSMT-31"/>
       <use xlink:href="#TimesNewRomanPSMT-30" x="50"/>
       <use xlink:href="#TimesNewRomanPSMT-30" x="100"/>
      </g>
     </g>
    </g>
    <g id="xtick_11">
     <g id="line2d_18">
      <g>
       <use xlink:href="#mc9f29d2ec9" x="571.84648" y="309.916875" style="stroke: #000000; stroke-width: 0.8"/>
      </g>
     </g>
     <g id="text_17">
      <!-- 150 -->
      <g transform="translate(556.84648 330.804375) scale(0.2 -0.2)">
       <use xlink:href="#TimesNewRomanPSMT-31"/>
       <use xlink:href="#TimesNewRomanPSMT-35" x="50"/>
       <use xlink:href="#TimesNewRomanPSMT-30" x="100"/>
      </g>
     </g>
    </g>
    <g id="xtick_12">
     <g id="line2d_19">
      <g>
       <use xlink:href="#mc9f29d2ec9" x="724.024448" y="309.916875" style="stroke: #000000; stroke-width: 0.8"/>
      </g>
     </g>
     <g id="text_18">
      <!-- 200 -->
      <g transform="translate(709.024448 330.804375) scale(0.2 -0.2)">
       <use xlink:href="#TimesNewRomanPSMT-32"/>
       <use xlink:href="#TimesNewRomanPSMT-30" x="50"/>
       <use xlink:href="#TimesNewRomanPSMT-30" x="100"/>
      </g>
     </g>
    </g>
    <g id="xtick_13">
     <g id="line2d_20">
      <g>
       <use xlink:href="#mc9f29d2ec9" x="876.202416" y="309.916875" style="stroke: #000000; stroke-width: 0.8"/>
      </g>
     </g>
     <g id="text_19">
      <!-- 250 -->
      <g transform="translate(861.202416 330.804375) scale(0.2 -0.2)">
       <use xlink:href="#TimesNewRomanPSMT-32"/>
       <use xlink:href="#TimesNewRomanPSMT-35" x="50"/>
       <use xlink:href="#TimesNewRomanPSMT-30" x="100"/>
      </g>
     </g>
    </g>
    <g id="xtick_14">
     <g id="line2d_21">
      <g>
       <use xlink:href="#mc9f29d2ec9" x="1028.380384" y="309.916875" style="stroke: #000000; stroke-width: 0.8"/>
      </g>
     </g>
     <g id="text_20">
      <!-- 300 -->
      <g transform="translate(1013.380384 330.804375) scale(0.2 -0.2)">
       <use xlink:href="#TimesNewRomanPSMT-33"/>
       <use xlink:href="#TimesNewRomanPSMT-30" x="50"/>
       <use xlink:href="#TimesNewRomanPSMT-30" x="100"/>
      </g>
     </g>
    </g>
   </g>
   <g id="matplotlib.axis_4">
    <g id="ytick_3">
     <g id="line2d_22">
      <g>
       <use xlink:href="#me139b87397" x="71.6375" y="308.025661" style="stroke: #000000; stroke-width: 0.8"/>
      </g>
     </g>
     <g id="text_21">
      <!-- 0.0 -->
      <g transform="translate(39.6375 314.969411) scale(0.2 -0.2)">
       <use xlink:href="#TimesNewRomanPSMT-30"/>
       <use xlink:href="#TimesNewRomanPSMT-2e" x="50"/>
       <use xlink:href="#TimesNewRomanPSMT-30" x="75"/>
      </g>
     </g>
    </g>
    <g id="ytick_4">
     <g id="line2d_23">
      <g>
       <use xlink:href="#me139b87397" x="71.6375" y="234.750926" style="stroke: #000000; stroke-width: 0.8"/>
      </g>
     </g>
     <g id="text_22">
      <!-- 1.0 -->
      <g transform="translate(39.6375 241.694676) scale(0.2 -0.2)">
       <use xlink:href="#TimesNewRomanPSMT-31"/>
       <use xlink:href="#TimesNewRomanPSMT-2e" x="50"/>
       <use xlink:href="#TimesNewRomanPSMT-30" x="75"/>
      </g>
     </g>
    </g>
    <g id="text_23">
     <!-- CPU使用率 -->
     <g transform="translate(33.059375 301.788125) rotate(-90) scale(0.2 -0.2)">
      <use xlink:href="#SimSun-43"/>
      <use xlink:href="#SimSun-50" x="50"/>
      <use xlink:href="#SimSun-55" x="100"/>
      <use xlink:href="#SimSun-4f7f" x="150"/>
      <use xlink:href="#SimSun-7528" x="250"/>
      <use xlink:href="#SimSun-7387" x="350"/>
     </g>
    </g>
   </g>
   <g id="line2d_24">
    <path d="M 115.312577 231.350982 
L 118.356136 232.054413 
L 121.399695 228.185512 
L 124.443255 228.537228 
L 127.486814 224.668326 
L 130.530374 229.9441 
L 133.573933 225.020042 
L 136.617492 229.9441 
L 139.661052 230.999257 
L 142.704611 228.185512 
L 145.74817 228.537228 
L 148.79173 228.185512 
L 151.835289 222.558013 
L 154.878848 217.28223 
L 157.922408 225.020042 
L 160.965967 226.075199 
L 164.009526 225.020042 
L 167.053086 228.185512 
L 170.096645 226.426915 
L 173.140205 228.185512 
L 176.183764 229.592384 
L 179.227323 229.240668 
L 182.270883 227.833787 
L 185.314442 228.888944 
L 188.358001 228.185512 
L 191.401561 226.778631 
L 194.44512 228.185512 
L 197.488679 223.613169 
L 200.532239 226.075199 
L 203.575798 225.723483 
L 206.619357 225.723483 
L 209.662917 223.613169 
L 212.706476 221.854572 
L 215.750036 215.875357 
L 218.793595 216.578789 
L 221.837154 219.392543 
L 224.880714 216.578789 
L 227.924273 220.799416 
L 230.967832 221.854572 
L 234.011392 219.040818 
L 237.054951 221.502856 
L 240.09851 220.095975 
L 243.14207 219.744259 
L 246.185629 221.151132 
L 249.229188 223.261445 
L 252.272748 221.151132 
L 255.316307 221.502856 
L 258.359867 217.633946 
L 261.403426 221.854572 
L 264.446985 225.020042 
L 267.490545 218.689103 
L 270.534104 218.689103 
L 276.621223 217.985662 
L 279.664782 218.337387 
L 282.708341 220.4477 
L 285.751901 220.799416 
L 288.79546 219.392543 
L 291.83902 219.392543 
L 294.882579 220.4477 
L 297.926138 221.151132 
L 300.969698 221.502856 
L 304.013257 219.392543 
L 307.056816 214.468476 
L 310.100376 216.578789 
L 313.143935 215.523633 
L 316.187494 216.227073 
L 319.231054 217.633946 
L 322.274613 217.633946 
L 325.318172 221.854572 
L 328.361732 219.392543 
L 331.405291 218.689103 
L 334.448851 219.392543 
L 337.49241 221.151132 
L 340.535969 219.392543 
L 343.579529 219.392543 
L 346.623088 225.020042 
L 349.666647 224.668326 
L 352.710207 228.888944 
L 355.753766 228.537228 
L 358.797325 221.854572 
L 361.840885 208.489261 
L 364.884444 230.999257 
L 367.928003 227.833787 
L 370.971563 233.813011 
L 374.015122 232.054413 
L 377.058682 236.978476 
L 380.102241 226.075199 
L 383.1458 244.364572 
L 386.18936 245.419729 
L 389.232919 248.585194 
L 392.276478 251.398948 
L 395.320038 249.992071 
L 398.363597 244.364572 
L 401.407156 254.212697 
L 404.450716 257.378163 
L 407.494275 255.267854 
L 410.537834 258.78504 
L 413.581394 254.916134 
L 416.624953 249.288635 
L 419.668513 263.357382 
L 422.712072 265.115975 
L 425.755631 266.522852 
L 428.799191 265.467695 
L 431.84275 270.040037 
L 434.886309 268.984881 
L 437.929869 273.205507 
L 440.973428 274.260664 
L 444.016987 276.370977 
L 447.060547 277.426133 
L 450.104106 276.019257 
L 453.147665 295.363783 
L 456.191225 278.833006 
L 459.234784 280.591603 
L 462.278344 281.646755 
L 465.321903 283.405353 
L 468.365462 284.108789 
L 471.409022 284.460509 
L 474.452581 286.219102 
L 477.49614 286.922538 
L 480.5397 287.977695 
L 483.583259 289.384567 
L 489.670378 289.384567 
L 492.713937 291.143161 
L 498.801056 292.550034 
L 501.844615 292.901754 
L 504.888175 293.605195 
L 507.931734 293.25347 
L 510.975293 294.308627 
L 514.018853 295.012067 
L 517.062412 295.012067 
L 523.149531 295.715508 
L 526.19309 295.715508 
L 532.280209 297.122381 
L 535.323768 297.122381 
L 541.410887 297.825812 
L 544.454446 297.122381 
L 547.498006 297.825812 
L 550.541565 297.825812 
L 553.585124 298.529253 
L 556.628684 298.177537 
L 559.672243 299.232694 
L 562.715802 298.529253 
L 565.759362 298.529253 
L 568.802921 299.232694 
L 571.84648 299.232694 
L 574.89004 299.58441 
L 577.933599 299.232694 
L 584.020718 299.232694 
L 587.064277 299.58441 
L 590.107837 299.232694 
L 593.151396 299.58441 
L 596.194955 299.58441 
L 599.238515 299.232694 
L 602.282074 300.28785 
L 605.325633 299.58441 
L 608.369193 299.58441 
L 611.412752 299.232694 
L 626.630549 299.232694 
L 629.674108 298.880969 
L 632.717668 298.177537 
L 635.761227 296.41894 
L 641.848346 297.122381 
L 647.935464 295.715508 
L 650.979024 295.715508 
L 654.022583 293.956911 
L 657.066142 294.308627 
L 660.109702 294.308627 
L 663.153261 293.605195 
L 666.19682 292.198318 
L 669.24038 291.494877 
L 672.283939 281.295039 
L 675.327499 287.625975 
L 678.371058 284.812225 
L 681.414617 284.812225 
L 684.458177 282.350196 
L 687.501736 280.943319 
L 690.545295 273.557227 
L 693.588855 278.833006 
L 696.632414 274.9641 
L 699.675973 274.9641 
L 702.719533 271.446914 
L 705.763092 268.633165 
L 708.806651 240.847382 
L 711.850211 261.247069 
L 714.89377 253.509257 
L 717.93733 257.729883 
L 720.980889 253.860977 
L 724.024448 253.509257 
L 727.068008 236.978476 
L 730.111567 253.157541 
L 733.155126 250.695507 
L 736.198686 251.750664 
L 739.242245 248.585194 
L 742.285804 246.474885 
L 745.329364 233.813011 
L 748.372923 239.792225 
L 751.416482 239.44051 
L 754.460042 242.254259 
L 757.503601 240.847382 
L 760.547161 241.199102 
L 763.59072 236.27504 
L 766.634279 244.364572 
L 769.677839 244.012852 
L 772.721398 244.012852 
L 775.764957 240.847382 
L 778.808517 238.737073 
L 781.852076 231.702697 
L 784.895635 227.833787 
L 787.939195 229.240668 
L 790.982754 228.537228 
L 794.026313 226.426915 
L 797.069873 229.240668 
L 800.113432 227.482071 
L 803.156992 233.461286 
L 806.200551 233.461286 
L 812.28767 229.9441 
L 815.331229 229.592384 
L 818.374788 221.151132 
L 821.418348 220.4477 
L 824.461907 219.392543 
L 827.505466 221.151132 
L 830.549026 225.371758 
L 833.592585 226.075199 
L 836.636144 223.964885 
L 839.679704 223.261445 
L 842.723263 217.985662 
L 845.766823 220.4477 
L 848.810382 223.964885 
L 851.853941 223.613169 
L 854.897501 224.316601 
L 857.94106 210.599575 
L 860.984619 215.875357 
L 864.028179 225.020042 
L 867.071738 225.723483 
L 870.115297 221.151132 
L 873.158857 224.316601 
L 876.202416 226.778631 
L 879.245975 226.426915 
L 882.289535 225.723483 
L 885.333094 226.075199 
L 888.376654 227.130355 
L 891.420213 272.150351 
L 894.463772 209.896134 
L 897.507332 212.709888 
L 900.550891 219.744259 
L 903.59445 219.392543 
L 906.63801 221.151132 
L 909.681569 225.371758 
L 915.768688 228.185512 
L 918.812247 228.185512 
L 921.855806 230.647541 
L 924.899366 230.647541 
L 927.942925 226.426915 
L 930.986485 225.371758 
L 934.030044 227.130355 
L 937.073603 230.295825 
L 940.117163 234.164727 
L 943.160722 232.406138 
L 946.204281 232.757854 
L 949.247841 231.702697 
L 952.2914 233.813011 
L 955.334959 233.461286 
L 958.378519 232.757854 
L 961.422078 234.868163 
L 964.465637 225.723483 
L 967.509197 221.854572 
L 970.552756 229.240668 
L 973.596316 230.295825 
L 976.639875 230.295825 
L 979.683434 232.054413 
L 982.726994 229.240668 
L 985.770553 233.10957 
L 988.814112 231.350982 
L 988.814112 231.350982 
" clip-path="url(#p33c456180d)" style="fill: none; stroke: #1f77b4; stroke-width: 1.5; stroke-linecap: square"/>
   </g>
   <g id="line2d_25">
    <path d="M 553.585124 299.938082 
L 556.628684 299.122056 
L 559.672243 298.734387 
L 562.715802 299.830598 
L 565.759362 296.854652 
L 568.802921 300.044134 
L 571.84648 300.804169 
L 574.89004 302.86326 
L 577.933599 300.237563 
L 580.977158 301.720622 
L 584.020718 301.956887 
L 587.064277 304.975093 
L 590.107837 301.581473 
L 593.151396 299.193805 
L 596.194955 301.610264 
L 599.238515 302.633503 
L 602.282074 305.086989 
L 605.325633 297.1295 
L 608.369193 299.675918 
L 611.412752 300.970423 
L 614.456311 300.762852 
L 617.499871 301.475054 
L 620.54343 300.748684 
L 623.586989 297.203555 
L 626.630549 299.718239 
L 629.674108 298.807149 
L 632.717668 300.392461 
L 635.761227 297.364463 
L 638.804786 295.108895 
L 641.848346 293.986811 
L 644.891905 296.234657 
L 647.935464 298.73616 
L 650.979024 297.785684 
L 654.022583 293.156066 
L 660.109702 290.700278 
L 663.153261 295.973724 
L 666.19682 289.473036 
L 669.24038 291.681379 
L 672.283939 295.157095 
L 675.327499 291.769022 
L 678.371058 290.291387 
L 681.414617 282.65946 
L 684.458177 285.36596 
L 687.501736 286.386714 
L 690.545295 280.376586 
L 693.588855 279.550318 
L 696.632414 276.162349 
L 699.675973 276.489302 
L 702.719533 277.008071 
L 705.763092 279.368957 
L 708.806651 276.05459 
L 711.850211 276.454785 
L 714.89377 271.446032 
L 717.93733 273.521165 
L 720.980889 273.658283 
L 724.024448 269.909427 
L 727.068008 265.441804 
L 730.111567 266.518864 
L 733.155126 268.049621 
L 736.198686 264.511978 
L 739.242245 261.856123 
L 742.285804 258.667916 
L 745.329364 257.220998 
L 748.372923 255.573244 
L 751.416482 259.130886 
L 754.460042 256.343599 
L 757.503601 255.879026 
L 760.547161 249.442092 
L 763.59072 251.698433 
L 766.634279 253.089268 
L 769.677839 253.460327 
L 772.721398 254.130173 
L 775.764957 248.810488 
L 778.808517 250.370092 
L 781.852076 248.630712 
L 784.895635 250.278842 
L 787.939195 242.950336 
L 790.982754 243.75923 
L 794.026313 245.270766 
L 797.069873 244.820523 
L 800.113432 248.718495 
L 803.156992 251.984444 
L 806.200551 246.390173 
L 809.24411 243.097381 
L 812.28767 246.930815 
L 815.331229 247.829038 
L 818.374788 247.243393 
L 821.418348 242.32558 
L 824.461907 240.41474 
L 827.505466 248.114987 
L 830.549026 245.444597 
L 833.592585 238.092895 
L 836.636144 240.067169 
L 839.679704 238.727661 
L 842.723263 238.578113 
L 845.766823 244.302165 
L 848.810382 239.763824 
L 851.853941 241.271372 
L 854.897501 236.690128 
L 857.94106 239.945447 
L 860.984619 239.459351 
L 864.028179 240.293677 
L 867.071738 237.78699 
L 873.158857 240.726804 
L 876.202416 240.758538 
L 879.245975 237.691329 
L 882.289535 235.840193 
L 885.333094 234.130389 
L 888.376654 236.893266 
L 891.420213 238.312035 
L 894.463772 237.432706 
L 897.507332 239.665799 
L 900.550891 237.638076 
L 903.59445 240.10017 
L 906.63801 235.862751 
L 909.681569 238.408662 
L 912.725128 237.11607 
L 915.768688 231.183522 
L 918.812247 234.147894 
L 921.855806 235.347541 
L 924.899366 235.777768 
L 927.942925 234.718973 
L 930.986485 239.605842 
L 934.030044 241.170941 
L 937.073603 237.413022 
L 940.117163 237.115751 
L 943.160722 242.599956 
L 946.204281 238.913652 
L 949.247841 236.191878 
L 952.2914 233.138492 
L 955.334959 232.105208 
L 958.378519 239.65768 
L 961.422078 238.714655 
L 964.465637 238.351614 
L 967.509197 236.505994 
L 970.552756 245.422384 
L 973.596316 230.434031 
L 976.639875 234.712989 
L 979.683434 235.968956 
L 982.726994 236.129602 
L 985.770553 242.057197 
L 988.814112 236.018889 
L 988.814112 236.018889 
" clip-path="url(#p33c456180d)" style="fill: none; stroke: #ff7f0e; stroke-width: 1.5; stroke-linecap: square"/>
   </g>
   <g id="line2d_26">
    <path d="M 553.585124 309.916875 
L 553.585124 203.659375 
" clip-path="url(#p33c456180d)" style="fill: none; stroke-dasharray: 7.4,3.2; stroke-dashoffset: 0; stroke: #0000ff; stroke-width: 2"/>
   </g>
   <g id="patch_9">
    <path d="M 71.6375 309.916875 
L 71.6375 203.659375 
" style="fill: none; stroke: #000000; stroke-width: 0.8; stroke-linejoin: miter; stroke-linecap: square"/>
   </g>
   <g id="patch_10">
    <path d="M 1032.489189 309.916875 
L 1032.489189 203.659375 
" style="fill: none; stroke: #000000; stroke-width: 0.8; stroke-linejoin: miter; stroke-linecap: square"/>
   </g>
   <g id="patch_11">
    <path d="M 71.6375 309.916875 
L 1032.489189 309.916875 
" style="fill: none; stroke: #000000; stroke-width: 0.8; stroke-linejoin: miter; stroke-linecap: square"/>
   </g>
   <g id="patch_12">
    <path d="M 71.6375 203.659375 
L 1032.489189 203.659375 
" style="fill: none; stroke: #000000; stroke-width: 0.8; stroke-linejoin: miter; stroke-linecap: square"/>
   </g>
   <g id="text_24">
    <!-- 云函数ID: 72 -->
    <g transform="translate(492.063345 197.659375) scale(0.2 -0.2)">
     <defs>
      <path id="SimSun-37" d="M 2825 4200 
Q 2300 3350 1987 2537 
Q 1675 1725 1675 1125 
Q 1675 1025 1700 850 
Q 1700 650 1700 400 
Q 1700 200 1637 125 
Q 1575 50 1425 50 
Q 1300 50 1212 137 
Q 1125 225 1125 450 
Q 1125 925 1337 1625 
Q 1550 2325 2475 4000 
L 1225 4000 
Q 950 4000 787 3825 
Q 625 3650 550 3300 
L 400 3325 
L 575 4375 
L 2825 4375 
L 2825 4200 
z
" transform="scale(0.015625)"/>
     </defs>
     <use xlink:href="#SimSun-4e91"/>
     <use xlink:href="#SimSun-51fd" x="100"/>
     <use xlink:href="#SimSun-6570" x="200"/>
     <use xlink:href="#SimSun-49" x="300"/>
     <use xlink:href="#SimSun-44" x="350"/>
     <use xlink:href="#SimSun-3a" x="400"/>
     <use xlink:href="#SimSun-20" x="450"/>
     <use xlink:href="#SimSun-37" x="500"/>
     <use xlink:href="#SimSun-32" x="550"/>
    </g>
   </g>
  </g>
  <g id="axes_3">
   <g id="patch_13">
    <path d="M 71.6375 484.516875 
L 1032.489189 484.516875 
L 1032.489189 378.259375 
L 71.6375 378.259375 
z
" style="fill: #ffffff"/>
   </g>
   <g id="matplotlib.axis_5">
    <g id="xtick_15">
     <g id="line2d_27">
      <g>
       <use xlink:href="#mc9f29d2ec9" x="115.312577" y="484.516875" style="stroke: #000000; stroke-width: 0.8"/>
      </g>
     </g>
     <g id="text_25">
      <!-- 0 -->
      <g transform="translate(110.312577 505.404375) scale(0.2 -0.2)">
       <use xlink:href="#TimesNewRomanPSMT-30"/>
      </g>
     </g>
    </g>
    <g id="xtick_16">
     <g id="line2d_28">
      <g>
       <use xlink:href="#mc9f29d2ec9" x="267.490545" y="484.516875" style="stroke: #000000; stroke-width: 0.8"/>
      </g>
     </g>
     <g id="text_26">
      <!-- 50 -->
      <g transform="translate(257.490545 505.404375) scale(0.2 -0.2)">
       <use xlink:href="#TimesNewRomanPSMT-35"/>
       <use xlink:href="#TimesNewRomanPSMT-30" x="50"/>
      </g>
     </g>
    </g>
    <g id="xtick_17">
     <g id="line2d_29">
      <g>
       <use xlink:href="#mc9f29d2ec9" x="419.668513" y="484.516875" style="stroke: #000000; stroke-width: 0.8"/>
      </g>
     </g>
     <g id="text_27">
      <!-- 100 -->
      <g transform="translate(404.668513 505.404375) scale(0.2 -0.2)">
       <use xlink:href="#TimesNewRomanPSMT-31"/>
       <use xlink:href="#TimesNewRomanPSMT-30" x="50"/>
       <use xlink:href="#TimesNewRomanPSMT-30" x="100"/>
      </g>
     </g>
    </g>
    <g id="xtick_18">
     <g id="line2d_30">
      <g>
       <use xlink:href="#mc9f29d2ec9" x="571.84648" y="484.516875" style="stroke: #000000; stroke-width: 0.8"/>
      </g>
     </g>
     <g id="text_28">
      <!-- 150 -->
      <g transform="translate(556.84648 505.404375) scale(0.2 -0.2)">
       <use xlink:href="#TimesNewRomanPSMT-31"/>
       <use xlink:href="#TimesNewRomanPSMT-35" x="50"/>
       <use xlink:href="#TimesNewRomanPSMT-30" x="100"/>
      </g>
     </g>
    </g>
    <g id="xtick_19">
     <g id="line2d_31">
      <g>
       <use xlink:href="#mc9f29d2ec9" x="724.024448" y="484.516875" style="stroke: #000000; stroke-width: 0.8"/>
      </g>
     </g>
     <g id="text_29">
      <!-- 200 -->
      <g transform="translate(709.024448 505.404375) scale(0.2 -0.2)">
       <use xlink:href="#TimesNewRomanPSMT-32"/>
       <use xlink:href="#TimesNewRomanPSMT-30" x="50"/>
       <use xlink:href="#TimesNewRomanPSMT-30" x="100"/>
      </g>
     </g>
    </g>
    <g id="xtick_20">
     <g id="line2d_32">
      <g>
       <use xlink:href="#mc9f29d2ec9" x="876.202416" y="484.516875" style="stroke: #000000; stroke-width: 0.8"/>
      </g>
     </g>
     <g id="text_30">
      <!-- 250 -->
      <g transform="translate(861.202416 505.404375) scale(0.2 -0.2)">
       <use xlink:href="#TimesNewRomanPSMT-32"/>
       <use xlink:href="#TimesNewRomanPSMT-35" x="50"/>
       <use xlink:href="#TimesNewRomanPSMT-30" x="100"/>
      </g>
     </g>
    </g>
    <g id="xtick_21">
     <g id="line2d_33">
      <g>
       <use xlink:href="#mc9f29d2ec9" x="1028.380384" y="484.516875" style="stroke: #000000; stroke-width: 0.8"/>
      </g>
     </g>
     <g id="text_31">
      <!-- 300 -->
      <g transform="translate(1013.380384 505.404375) scale(0.2 -0.2)">
       <use xlink:href="#TimesNewRomanPSMT-33"/>
       <use xlink:href="#TimesNewRomanPSMT-30" x="50"/>
       <use xlink:href="#TimesNewRomanPSMT-30" x="100"/>
      </g>
     </g>
    </g>
   </g>
   <g id="matplotlib.axis_6">
    <g id="ytick_5">
     <g id="line2d_34">
      <g>
       <use xlink:href="#me139b87397" x="71.6375" y="457.10859" style="stroke: #000000; stroke-width: 0.8"/>
      </g>
     </g>
     <g id="text_32">
      <!-- 1.0 -->
      <g transform="translate(39.6375 464.05234) scale(0.2 -0.2)">
       <use xlink:href="#TimesNewRomanPSMT-31"/>
       <use xlink:href="#TimesNewRomanPSMT-2e" x="50"/>
       <use xlink:href="#TimesNewRomanPSMT-30" x="75"/>
      </g>
     </g>
    </g>
    <g id="ytick_6">
     <g id="line2d_35">
      <g>
       <use xlink:href="#me139b87397" x="71.6375" y="422.351205" style="stroke: #000000; stroke-width: 0.8"/>
      </g>
     </g>
     <g id="text_33">
      <!-- 2.0 -->
      <g transform="translate(39.6375 429.294955) scale(0.2 -0.2)">
       <use xlink:href="#TimesNewRomanPSMT-32"/>
       <use xlink:href="#TimesNewRomanPSMT-2e" x="50"/>
       <use xlink:href="#TimesNewRomanPSMT-30" x="75"/>
      </g>
     </g>
    </g>
    <g id="ytick_7">
     <g id="line2d_36">
      <g>
       <use xlink:href="#me139b87397" x="71.6375" y="387.59382" style="stroke: #000000; stroke-width: 0.8"/>
      </g>
     </g>
     <g id="text_34">
      <!-- 3.0 -->
      <g transform="translate(39.6375 394.53757) scale(0.2 -0.2)">
       <use xlink:href="#TimesNewRomanPSMT-33"/>
       <use xlink:href="#TimesNewRomanPSMT-2e" x="50"/>
       <use xlink:href="#TimesNewRomanPSMT-30" x="75"/>
      </g>
     </g>
    </g>
    <g id="text_35">
     <!-- CPU使用率 -->
     <g transform="translate(33.059375 476.388125) rotate(-90) scale(0.2 -0.2)">
      <use xlink:href="#SimSun-43"/>
      <use xlink:href="#SimSun-50" x="50"/>
      <use xlink:href="#SimSun-55" x="100"/>
      <use xlink:href="#SimSun-4f7f" x="150"/>
      <use xlink:href="#SimSun-7528" x="250"/>
      <use xlink:href="#SimSun-7387" x="350"/>
     </g>
    </g>
   </g>
   <g id="line2d_37">
    <path d="M 115.312577 398.604964 
L 118.356136 397.103444 
L 121.399695 397.437112 
L 124.443255 399.2723 
L 127.486814 397.770781 
L 130.530374 398.938632 
L 133.573933 397.103444 
L 136.617492 398.104457 
L 139.661052 383.089261 
L 142.704611 394.267235 
L 145.74817 399.10547 
L 148.79173 398.771794 
L 151.835289 399.605977 
L 154.878848 401.274326 
L 157.922408 399.10547 
L 160.965967 402.27534 
L 164.009526 404.777872 
L 167.053086 405.278379 
L 170.096645 404.777872 
L 173.140205 407.614073 
L 176.183764 404.94471 
L 179.227323 408.948763 
L 182.270883 408.948763 
L 185.314442 414.120658 
L 188.358001 413.95382 
L 191.401561 417.290527 
L 194.44512 417.457365 
L 197.488679 418.958885 
L 200.532239 421.461418 
L 206.619357 427.467492 
L 209.662917 424.130784 
L 212.706476 452.159138 
L 215.750036 430.470531 
L 218.793595 431.805217 
L 221.837154 433.974073 
L 224.880714 437.310784 
L 227.924273 438.645466 
L 230.967832 441.648505 
L 234.011392 442.649518 
L 237.054951 444.317872 
L 240.09851 446.65357 
L 243.14207 448.82243 
L 246.185629 450.657618 
L 249.229188 451.658631 
L 252.272748 454.161164 
L 255.316307 455.662683 
L 258.359867 456.830531 
L 261.403426 459.166227 
L 264.446985 461.168253 
L 267.490545 460.334076 
L 273.577663 464.004456 
L 276.621223 464.838633 
L 279.664782 466.173316 
L 282.708341 466.340153 
L 285.751901 465.839646 
L 288.79546 464.838633 
L 291.83902 465.839646 
L 294.882579 467.007493 
L 297.926138 467.17433 
L 300.969698 468.175343 
L 304.013257 468.509013 
L 307.056816 469.34319 
L 310.100376 470.344203 
L 313.143935 470.677873 
L 316.187494 470.511037 
L 319.231054 471.51205 
L 322.274613 473.01357 
L 325.318172 474.681925 
L 328.361732 475.516102 
L 331.405291 475.849773 
L 334.448851 476.683949 
L 340.535969 476.683949 
L 343.579529 477.01762 
L 346.623088 477.518126 
L 352.710207 477.851799 
L 355.753766 477.851799 
L 358.797325 472.846733 
L 361.840885 479.520152 
L 364.884444 479.186482 
L 367.928003 479.520152 
L 370.971563 479.186482 
L 374.015122 479.686989 
L 377.058682 479.186482 
L 380.102241 479.186482 
L 386.18936 479.520152 
L 389.232919 479.353316 
L 392.276478 479.353316 
L 395.320038 477.851799 
L 398.363597 478.352305 
L 401.407156 478.018633 
L 404.450716 478.018633 
L 407.494275 477.684963 
L 413.581394 476.016609 
L 416.624953 475.682936 
L 419.668513 475.015596 
L 422.712072 474.181419 
L 425.755631 473.514076 
L 428.799191 472.012557 
L 431.84275 465.839646 
L 434.886309 468.008506 
L 437.929869 466.340153 
L 440.973428 465.33914 
L 444.016987 463.337113 
L 447.060547 462.169266 
L 450.104106 456.16319 
L 453.147665 456.830531 
L 456.191225 454.494836 
L 459.234784 452.993317 
L 462.278344 449.990277 
L 465.321903 449.656605 
L 468.365462 426.800151 
L 471.409022 441.815339 
L 474.452581 439.646479 
L 477.49614 437.811291 
L 480.5397 434.808252 
L 483.583259 434.975086 
L 486.626818 430.971038 
L 489.670378 430.470531 
L 492.713937 427.63433 
L 495.757496 429.13585 
L 498.801056 424.297619 
L 501.844615 422.629265 
L 504.888175 412.785977 
L 507.931734 414.454326 
L 510.975293 414.287496 
L 514.018853 414.454326 
L 517.062412 412.118632 
L 520.105971 412.28547 
L 523.149531 410.617112 
L 526.19309 415.121671 
L 529.236649 415.455339 
L 532.280209 414.621165 
L 535.323768 414.621165 
L 538.367327 409.782937 
L 541.410887 409.782937 
L 544.454446 408.781924 
L 547.498006 409.616099 
L 550.541565 409.115593 
L 553.585124 403.943697 
L 556.628684 410.950781 
L 559.672243 407.280405 
L 562.715802 412.4523 
L 565.759362 413.620151 
L 568.802921 413.95382 
L 571.84648 409.449261 
L 574.89004 412.785977 
L 577.933599 401.107488 
L 580.977158 404.110527 
L 584.020718 403.443191 
L 587.064277 409.115593 
L 590.107837 410.450274 
L 593.151396 412.619138 
L 596.194955 413.119645 
L 599.238515 410.283444 
L 602.282074 409.282431 
L 605.325633 409.782937 
L 608.369193 412.28547 
L 611.412752 414.454326 
L 614.456311 411.784964 
L 617.499871 407.94775 
L 620.54343 409.115593 
L 623.586989 413.620151 
L 626.630549 413.286483 
L 629.674108 409.115593 
L 632.717668 412.785977 
L 635.761227 415.121671 
L 638.804786 414.621165 
L 641.848346 411.784964 
L 644.891905 411.618125 
L 647.935464 413.119645 
L 650.979024 439.31281 
L 654.022583 397.937619 
L 657.066142 399.2723 
L 660.109702 405.11154 
L 663.153261 405.945724 
L 666.19682 405.945724 
L 669.24038 407.780911 
L 672.283939 410.783951 
L 675.327499 409.782937 
L 678.371058 412.952807 
L 681.414617 410.450274 
L 684.458177 413.95382 
L 687.501736 409.115593 
L 690.545295 408.615086 
L 696.632414 416.790021 
L 699.675973 415.955846 
L 702.719533 415.455339 
L 705.763092 413.119645 
L 708.806651 415.789008 
L 711.850211 415.789008 
L 714.89377 417.457365 
L 717.93733 415.455339 
L 720.980889 416.456352 
L 724.024448 407.780911 
L 727.068008 405.445217 
L 730.111567 413.620151 
L 733.155126 414.287496 
L 736.198686 409.282431 
L 739.242245 408.948763 
L 742.285804 407.280405 
L 745.329364 410.617112 
L 748.372923 413.286483 
L 751.416482 417.457365 
L 754.460042 414.954833 
L 757.503601 413.78699 
L 760.547161 409.282431 
L 763.59072 409.449261 
L 769.677839 415.121671 
L 772.721398 414.954833 
L 775.764957 415.789008 
L 778.808517 413.620151 
L 784.895635 413.620151 
L 787.939195 415.121671 
L 790.982754 414.954833 
L 794.026313 413.453313 
L 797.069873 412.118632 
L 800.113432 412.118632 
L 803.156992 415.789008 
L 806.200551 408.11458 
L 809.24411 409.282431 
L 812.28767 412.952807 
L 815.331229 405.445217 
L 818.374788 409.949767 
L 821.418348 411.784964 
L 824.461907 411.951794 
L 827.505466 403.776859 
L 830.549026 407.280405 
L 833.592585 404.277366 
L 836.636144 404.277366 
L 839.679704 399.2723 
L 842.723263 405.11154 
L 845.766823 403.943697 
L 848.810382 402.108501 
L 851.853941 397.103444 
L 854.897501 398.604964 
L 857.94106 397.603951 
L 860.984619 396.936606 
L 864.028179 399.10547 
L 867.071738 397.270274 
L 870.115297 390.763698 
L 873.158857 395.435086 
L 876.202416 392.098379 
L 879.245975 389.09534 
L 882.289535 390.430021 
L 885.333094 388.761671 
L 888.376654 384.423943 
L 891.420213 390.930528 
L 894.463772 386.592807 
L 897.507332 388.427995 
L 900.550891 388.427995 
L 903.59445 385.258126 
L 906.63801 390.263191 
L 909.681569 392.098379 
L 912.725128 395.268248 
L 915.768688 391.431034 
L 918.812247 385.758632 
L 921.855806 397.603951 
L 924.899366 393.099392 
L 927.942925 396.436099 
L 930.986485 397.437112 
L 934.030044 399.2723 
L 937.073603 396.436099 
L 940.117163 398.604964 
L 943.160722 390.930528 
L 946.204281 394.767742 
L 949.247841 394.93458 
L 952.2914 398.438126 
L 955.334959 394.767742 
L 958.378519 397.770781 
L 961.422078 397.270274 
L 964.465637 395.435086 
L 967.509197 399.10547 
L 970.552756 399.10547 
L 973.596316 397.937619 
L 976.639875 395.435086 
L 979.683434 384.590781 
L 982.726994 393.766728 
L 985.770553 393.266222 
L 988.814112 394.434073 
L 988.814112 394.434073 
" clip-path="url(#pf9fa2382ab)" style="fill: none; stroke: #1f77b4; stroke-width: 1.5; stroke-linecap: square"/>
   </g>
   <g id="line2d_38">
    <path d="M 553.585124 413.753826 
L 556.628684 413.480875 
L 559.672243 413.358156 
L 562.715802 413.44878 
L 565.759362 412.361386 
L 568.802921 409.495568 
L 571.84648 411.826638 
L 574.89004 410.167014 
L 577.933599 408.273521 
L 580.977158 409.833553 
L 584.020718 410.104747 
L 587.064277 408.527801 
L 590.107837 409.776565 
L 593.151396 410.89501 
L 596.194955 411.490252 
L 599.238515 411.544895 
L 602.282074 409.650407 
L 605.325633 414.147789 
L 608.369193 410.093809 
L 611.412752 408.852039 
L 614.456311 410.462712 
L 617.499871 411.30089 
L 620.54343 410.097115 
L 623.586989 410.574037 
L 626.630549 415.047057 
L 629.674108 413.230514 
L 632.717668 412.83728 
L 635.761227 410.795618 
L 638.804786 409.625836 
L 641.848346 412.044026 
L 644.891905 409.524132 
L 647.935464 411.816014 
L 650.979024 410.379455 
L 654.022583 412.926024 
L 657.066142 414.54902 
L 660.109702 413.822333 
L 663.153261 408.143956 
L 666.19682 414.910523 
L 669.24038 412.318841 
L 672.283939 415.099752 
L 675.327499 416.858785 
L 678.371058 414.249791 
L 681.414617 413.476085 
L 684.458177 414.498006 
L 687.501736 413.542222 
L 690.545295 415.194089 
L 693.588855 415.519852 
L 696.632414 417.632631 
L 699.675973 416.795026 
L 702.719533 412.232136 
L 705.763092 414.163376 
L 708.806651 416.339368 
L 711.850211 418.35631 
L 714.89377 415.566441 
L 717.93733 421.197698 
L 720.980889 418.19098 
L 724.024448 416.466711 
L 730.111567 417.125761 
L 733.155126 417.997781 
L 736.198686 416.85368 
L 739.242245 416.233678 
L 742.285804 417.217852 
L 745.329364 417.970932 
L 748.372923 419.696303 
L 751.416482 416.297834 
L 754.460042 417.029344 
L 757.503601 419.604477 
L 760.547161 417.794547 
L 763.59072 416.897691 
L 766.634279 415.842068 
L 769.677839 416.214999 
L 772.721398 414.328988 
L 775.764957 416.325843 
L 778.808517 415.909017 
L 781.852076 416.075449 
L 784.895635 416.696943 
L 787.939195 417.717679 
L 790.982754 414.58839 
L 797.069873 412.098636 
L 800.113432 413.763314 
L 803.156992 411.492729 
L 806.200551 411.004032 
L 809.24411 410.696856 
L 812.28767 411.822337 
L 815.331229 411.039789 
L 818.374788 405.569784 
L 821.418348 407.643897 
L 824.461907 413.332707 
L 827.505466 408.422542 
L 830.549026 406.42553 
L 833.592585 408.644165 
L 836.636144 407.275764 
L 839.679704 404.843147 
L 842.723263 402.200841 
L 845.766823 405.115062 
L 848.810382 403.998051 
L 851.853941 402.101582 
L 854.897501 402.834682 
L 857.94106 400.183625 
L 860.984619 399.611885 
L 864.028179 399.847206 
L 867.071738 400.992028 
L 870.115297 397.339759 
L 873.158857 395.207373 
L 876.202416 393.52661 
L 882.289535 395.800535 
L 885.333094 390.25033 
L 888.376654 395.221229 
L 891.420213 396.888891 
L 894.463772 391.314795 
L 897.507332 388.951821 
L 900.550891 390.809731 
L 903.59445 388.598678 
L 906.63801 388.851376 
L 909.681569 385.322241 
L 912.725128 388.73788 
L 915.768688 390.804891 
L 918.812247 387.717136 
L 921.855806 389.394303 
L 924.899366 387.53394 
L 927.942925 385.159687 
L 930.986485 385.931429 
L 934.030044 389.29951 
L 937.073603 385.901704 
L 940.117163 387.557317 
L 943.160722 385.259302 
L 946.204281 386.199217 
L 949.247841 383.363828 
L 952.2914 387.021111 
L 955.334959 386.891928 
L 958.378519 384.076866 
L 961.422078 387.147252 
L 964.465637 385.457473 
L 967.509197 385.740658 
L 970.552756 385.642302 
L 973.596316 384.38734 
L 976.639875 386.763383 
L 979.683434 385.380696 
L 982.726994 387.365287 
L 985.770553 388.17011 
L 988.814112 387.015418 
L 988.814112 387.015418 
" clip-path="url(#pf9fa2382ab)" style="fill: none; stroke: #ff7f0e; stroke-width: 1.5; stroke-linecap: square"/>
   </g>
   <g id="line2d_39">
    <path d="M 553.585124 484.516875 
L 553.585124 378.259375 
" clip-path="url(#pf9fa2382ab)" style="fill: none; stroke-dasharray: 7.4,3.2; stroke-dashoffset: 0; stroke: #0000ff; stroke-width: 2"/>
   </g>
   <g id="patch_14">
    <path d="M 71.6375 484.516875 
L 71.6375 378.259375 
" style="fill: none; stroke: #000000; stroke-width: 0.8; stroke-linejoin: miter; stroke-linecap: square"/>
   </g>
   <g id="patch_15">
    <path d="M 1032.489189 484.516875 
L 1032.489189 378.259375 
" style="fill: none; stroke: #000000; stroke-width: 0.8; stroke-linejoin: miter; stroke-linecap: square"/>
   </g>
   <g id="patch_16">
    <path d="M 71.6375 484.516875 
L 1032.489189 484.516875 
" style="fill: none; stroke: #000000; stroke-width: 0.8; stroke-linejoin: miter; stroke-linecap: square"/>
   </g>
   <g id="patch_17">
    <path d="M 71.6375 378.259375 
L 1032.489189 378.259375 
" style="fill: none; stroke: #000000; stroke-width: 0.8; stroke-linejoin: miter; stroke-linecap: square"/>
   </g>
   <g id="text_36">
    <!-- 云函数ID: 150 -->
    <g transform="translate(487.063345 372.259375) scale(0.2 -0.2)">
     <defs>
      <path id="SimSun-31" d="M 1825 4450 
L 1825 650 
Q 1825 450 1950 350 
Q 2075 250 2300 250 
L 2550 250 
L 2550 100 
L 725 100 
L 725 250 
L 950 250 
Q 1200 250 1312 350 
Q 1425 450 1425 650 
L 1425 3675 
Q 1425 3775 1362 3837 
Q 1300 3900 1175 3900 
L 725 3900 
L 725 4050 
L 950 4050 
Q 1250 4050 1437 4150 
Q 1625 4250 1725 4450 
L 1825 4450 
z
" transform="scale(0.015625)"/>
      <path id="SimSun-35" d="M 1725 2850 
Q 2200 2850 2500 2487 
Q 2800 2125 2800 1525 
Q 2800 850 2487 450 
Q 2175 50 1525 50 
Q 1075 50 725 312 
Q 375 575 375 950 
Q 375 1100 462 1212 
Q 550 1325 700 1325 
Q 850 1325 900 1225 
Q 950 1125 950 1050 
Q 950 900 875 825 
Q 800 725 800 625 
Q 800 425 1037 325 
Q 1275 225 1550 225 
Q 1950 225 2162 550 
Q 2375 875 2375 1475 
Q 2375 1975 2187 2287 
Q 2000 2600 1625 2600 
Q 1350 2600 1150 2500 
Q 950 2400 775 2075 
L 550 2100 
L 675 4375 
L 2725 4375 
L 2650 4000 
L 850 4000 
L 750 2350 
Q 1000 2700 1237 2775 
Q 1475 2850 1725 2850 
z
" transform="scale(0.015625)"/>
      <path id="SimSun-30" d="M 1600 4225 
Q 1250 4225 1012 3687 
Q 775 3150 775 2250 
Q 775 1300 1012 775 
Q 1250 250 1600 250 
Q 1975 250 2187 775 
Q 2400 1300 2400 2250 
Q 2400 3150 2200 3687 
Q 2000 4225 1600 4225 
z
M 1600 50 
Q 1050 50 675 625 
Q 300 1200 300 2250 
Q 300 3225 662 3825 
Q 1025 4425 1600 4425 
Q 2150 4425 2512 3850 
Q 2875 3275 2875 2250 
Q 2875 1225 2512 637 
Q 2150 50 1600 50 
z
" transform="scale(0.015625)"/>
     </defs>
     <use xlink:href="#SimSun-4e91"/>
     <use xlink:href="#SimSun-51fd" x="100"/>
     <use xlink:href="#SimSun-6570" x="200"/>
     <use xlink:href="#SimSun-49" x="300"/>
     <use xlink:href="#SimSun-44" x="350"/>
     <use xlink:href="#SimSun-3a" x="400"/>
     <use xlink:href="#SimSun-20" x="450"/>
     <use xlink:href="#SimSun-31" x="500"/>
     <use xlink:href="#SimSun-35" x="550"/>
     <use xlink:href="#SimSun-30" x="600"/>
    </g>
   </g>
  </g>
  <g id="axes_4">
   <g id="patch_18">
    <path d="M 71.6375 659.116875 
L 1032.489189 659.116875 
L 1032.489189 552.859375 
L 71.6375 552.859375 
z
" style="fill: #ffffff"/>
   </g>
   <g id="matplotlib.axis_7">
    <g id="xtick_22">
     <g id="line2d_40">
      <g>
       <use xlink:href="#mc9f29d2ec9" x="115.312577" y="659.116875" style="stroke: #000000; stroke-width: 0.8"/>
      </g>
     </g>
     <g id="text_37">
      <!-- 0 -->
      <g transform="translate(110.312577 680.004375) scale(0.2 -0.2)">
       <use xlink:href="#TimesNewRomanPSMT-30"/>
      </g>
     </g>
    </g>
    <g id="xtick_23">
     <g id="line2d_41">
      <g>
       <use xlink:href="#mc9f29d2ec9" x="267.490545" y="659.116875" style="stroke: #000000; stroke-width: 0.8"/>
      </g>
     </g>
     <g id="text_38">
      <!-- 50 -->
      <g transform="translate(257.490545 680.004375) scale(0.2 -0.2)">
       <use xlink:href="#TimesNewRomanPSMT-35"/>
       <use xlink:href="#TimesNewRomanPSMT-30" x="50"/>
      </g>
     </g>
    </g>
    <g id="xtick_24">
     <g id="line2d_42">
      <g>
       <use xlink:href="#mc9f29d2ec9" x="419.668513" y="659.116875" style="stroke: #000000; stroke-width: 0.8"/>
      </g>
     </g>
     <g id="text_39">
      <!-- 100 -->
      <g transform="translate(404.668513 680.004375) scale(0.2 -0.2)">
       <use xlink:href="#TimesNewRomanPSMT-31"/>
       <use xlink:href="#TimesNewRomanPSMT-30" x="50"/>
       <use xlink:href="#TimesNewRomanPSMT-30" x="100"/>
      </g>
     </g>
    </g>
    <g id="xtick_25">
     <g id="line2d_43">
      <g>
       <use xlink:href="#mc9f29d2ec9" x="571.84648" y="659.116875" style="stroke: #000000; stroke-width: 0.8"/>
      </g>
     </g>
     <g id="text_40">
      <!-- 150 -->
      <g transform="translate(556.84648 680.004375) scale(0.2 -0.2)">
       <use xlink:href="#TimesNewRomanPSMT-31"/>
       <use xlink:href="#TimesNewRomanPSMT-35" x="50"/>
       <use xlink:href="#TimesNewRomanPSMT-30" x="100"/>
      </g>
     </g>
    </g>
    <g id="xtick_26">
     <g id="line2d_44">
      <g>
       <use xlink:href="#mc9f29d2ec9" x="724.024448" y="659.116875" style="stroke: #000000; stroke-width: 0.8"/>
      </g>
     </g>
     <g id="text_41">
      <!-- 200 -->
      <g transform="translate(709.024448 680.004375) scale(0.2 -0.2)">
       <use xlink:href="#TimesNewRomanPSMT-32"/>
       <use xlink:href="#TimesNewRomanPSMT-30" x="50"/>
       <use xlink:href="#TimesNewRomanPSMT-30" x="100"/>
      </g>
     </g>
    </g>
    <g id="xtick_27">
     <g id="line2d_45">
      <g>
       <use xlink:href="#mc9f29d2ec9" x="876.202416" y="659.116875" style="stroke: #000000; stroke-width: 0.8"/>
      </g>
     </g>
     <g id="text_42">
      <!-- 250 -->
      <g transform="translate(861.202416 680.004375) scale(0.2 -0.2)">
       <use xlink:href="#TimesNewRomanPSMT-32"/>
       <use xlink:href="#TimesNewRomanPSMT-35" x="50"/>
       <use xlink:href="#TimesNewRomanPSMT-30" x="100"/>
      </g>
     </g>
    </g>
    <g id="xtick_28">
     <g id="line2d_46">
      <g>
       <use xlink:href="#mc9f29d2ec9" x="1028.380384" y="659.116875" style="stroke: #000000; stroke-width: 0.8"/>
      </g>
     </g>
     <g id="text_43">
      <!-- 300 -->
      <g transform="translate(1013.380384 680.004375) scale(0.2 -0.2)">
       <use xlink:href="#TimesNewRomanPSMT-33"/>
       <use xlink:href="#TimesNewRomanPSMT-30" x="50"/>
       <use xlink:href="#TimesNewRomanPSMT-30" x="100"/>
      </g>
     </g>
    </g>
   </g>
   <g id="matplotlib.axis_8">
    <g id="ytick_8">
     <g id="line2d_47">
      <g>
       <use xlink:href="#me139b87397" x="71.6375" y="624.278848" style="stroke: #000000; stroke-width: 0.8"/>
      </g>
     </g>
     <g id="text_44">
      <!-- 10.0 -->
      <g transform="translate(29.6375 631.222598) scale(0.2 -0.2)">
       <use xlink:href="#TimesNewRomanPSMT-31"/>
       <use xlink:href="#TimesNewRomanPSMT-30" x="50"/>
       <use xlink:href="#TimesNewRomanPSMT-2e" x="100"/>
       <use xlink:href="#TimesNewRomanPSMT-30" x="125"/>
      </g>
     </g>
    </g>
    <g id="ytick_9">
     <g id="line2d_48">
      <g>
       <use xlink:href="#me139b87397" x="71.6375" y="554.528165" style="stroke: #000000; stroke-width: 0.8"/>
      </g>
     </g>
     <g id="text_45">
      <!-- 20.0 -->
      <g transform="translate(29.6375 561.471915) scale(0.2 -0.2)">
       <use xlink:href="#TimesNewRomanPSMT-32"/>
       <use xlink:href="#TimesNewRomanPSMT-30" x="50"/>
       <use xlink:href="#TimesNewRomanPSMT-2e" x="100"/>
       <use xlink:href="#TimesNewRomanPSMT-30" x="125"/>
      </g>
     </g>
    </g>
    <g id="text_46">
     <!-- CPU使用率 -->
     <g transform="translate(23.059375 650.988125) rotate(-90) scale(0.2 -0.2)">
      <use xlink:href="#SimSun-43"/>
      <use xlink:href="#SimSun-50" x="50"/>
      <use xlink:href="#SimSun-55" x="100"/>
      <use xlink:href="#SimSun-4f7f" x="150"/>
      <use xlink:href="#SimSun-7528" x="250"/>
      <use xlink:href="#SimSun-7387" x="350"/>
     </g>
    </g>
   </g>
   <g id="line2d_49">
    <path d="M 115.312577 595.060286 
L 118.356136 594.3279 
L 121.399695 599.7015 
L 124.443255 600.963985 
L 127.486814 599.278809 
L 130.530374 601.960021 
L 133.573933 602.738438 
L 136.617492 601.095122 
L 139.661052 601.268099 
L 142.704611 604.425011 
L 145.74817 605.808868 
L 148.79173 600.749147 
L 151.835289 654.286989 
L 154.878848 599.840998 
L 157.922408 599.624769 
L 160.965967 600.489682 
L 164.009526 604.338523 
L 167.053086 600.403187 
L 170.096645 602.003272 
L 173.140205 601.18161 
L 176.183764 601.61406 
L 179.227323 600.619421 
L 185.314442 604.770979 
L 188.358001 598.976092 
L 191.401561 604.684484 
L 194.44512 605.852113 
L 197.488679 604.381767 
L 200.532239 608.317103 
L 203.575798 608.749553 
L 206.619357 604.857468 
L 209.662917 606.457553 
L 212.706476 606.933253 
L 215.750036 610.306394 
L 218.793595 613.969692 
L 221.837154 616.020367 
L 224.880714 609.156905 
L 227.924273 613.132691 
L 230.967832 614.806706 
L 234.011392 616.104068 
L 237.054951 616.731825 
L 240.09851 618.531395 
L 243.14207 616.271471 
L 246.185629 615.769262 
L 252.272748 619.368396 
L 255.316307 616.271471 
L 258.359867 617.150326 
L 261.403426 613.802296 
L 264.446985 619.159146 
L 267.490545 619.6195 
L 270.534104 618.112888 
L 273.577663 618.40584 
L 276.621223 619.41025 
L 279.664782 616.39702 
L 282.708341 618.40584 
L 285.751901 618.99175 
L 288.79546 618.280291 
L 291.83902 617.275881 
L 294.882579 619.954306 
L 297.926138 613.46749 
L 300.969698 619.075445 
L 304.013257 615.267061 
L 307.056816 614.890401 
L 310.100376 615.476311 
L 313.143935 617.066624 
L 316.187494 615.560012 
L 319.231054 617.819937 
L 322.274613 616.731825 
L 325.318172 615.267061 
L 328.361732 617.108472 
L 331.405291 619.954306 
L 334.448851 615.05781 
L 337.49241 614.430047 
L 340.535969 613.383789 
L 346.623088 613.132691 
L 349.666647 615.015956 
L 352.710207 617.778083 
L 355.753766 616.522568 
L 358.797325 617.485131 
L 361.840885 617.610687 
L 364.884444 618.698792 
L 367.928003 617.987333 
L 370.971563 613.718595 
L 374.015122 614.388199 
L 377.058682 612.756038 
L 380.102241 616.313325 
L 383.1458 616.187763 
L 386.18936 612.630483 
L 389.232919 612.46308 
L 392.276478 613.634893 
L 395.320038 612.923435 
L 398.363597 610.454266 
L 401.407156 611.66792 
L 404.450716 610.789065 
L 407.494275 609.073197 
L 410.537834 610.161308 
L 413.581394 593.030538 
L 416.624953 586.564656 
L 419.668513 591.691329 
L 422.712072 594.718509 
L 425.755631 594.376732 
L 428.799191 596.329749 
L 431.84275 596.280924 
L 434.886309 599.601055 
L 437.929869 601.700548 
L 440.973428 604.07905 
L 444.016987 602.248788 
L 447.060547 581.198041 
L 456.191225 586.875748 
L 459.234784 588.0629 
L 462.278344 599.181158 
L 465.321903 598.644073 
L 468.365462 601.222061 
L 471.409022 600.623599 
L 474.452581 598.690112 
L 477.49614 595.145384 
L 480.5397 602.000484 
L 483.583259 581.350091 
L 486.626818 572.317391 
L 489.670378 575.922105 
L 492.713937 569.984913 
L 495.757496 585.729046 
L 498.801056 589.492789 
L 501.844615 593.998682 
L 504.888175 596.65479 
L 507.931734 594.994724 
L 510.975293 597.603397 
L 514.018853 600.733808 
L 517.062412 594.378129 
L 520.105971 577.982532 
L 523.149531 578.907431 
L 526.19309 582.062953 
L 529.236649 592.911967 
L 532.280209 591.740154 
L 535.323768 591.398377 
L 538.367327 587.541162 
L 541.410887 589.005926 
L 544.454446 591.544853 
L 547.498006 594.572033 
L 550.541565 598.673369 
L 553.585124 597.745689 
L 556.628684 581.517494 
L 562.715802 596.23768 
L 565.759362 595.240241 
L 568.802921 595.731287 
L 571.84648 595.552722 
L 574.89004 597.025862 
L 577.933599 592.427899 
L 580.977158 593.142145 
L 584.020718 594.749194 
L 587.064277 597.918672 
L 590.107837 642.235463 
L 593.151396 565.891946 
L 596.194955 557.689261 
L 599.238515 572.16115 
L 602.282074 581.535627 
L 605.325633 584.850184 
L 608.369193 587.511866 
L 611.412752 592.081938 
L 614.456311 592.165633 
L 617.499871 597.338343 
L 620.54343 598.09723 
L 623.586989 599.570363 
L 626.630549 601.17742 
L 629.674108 585.123606 
L 632.717668 583.042239 
L 635.761227 590.073111 
L 638.804786 598.476677 
L 641.848346 595.240241 
L 644.891905 597.963307 
L 647.935464 597.47226 
L 650.979024 598.231154 
L 654.022583 599.436446 
L 657.066142 600.373891 
L 660.109702 602.56127 
L 663.153261 596.043769 
L 666.19682 590.508354 
L 669.24038 598.766835 
L 672.283939 603.766569 
L 675.327499 599.347164 
L 678.371058 602.56127 
L 681.414617 602.56127 
L 684.458177 598.990041 
L 687.501736 602.6952 
L 690.545295 602.516635 
L 693.588855 602.963041 
L 696.632414 598.9454 
L 699.675973 597.47226 
L 702.719533 597.740108 
L 705.763092 602.427353 
L 708.806651 603.543363 
L 711.850211 600.597097 
L 714.89377 602.159512 
L 717.93733 600.95422 
L 720.980889 594.70456 
L 724.024448 602.338071 
L 727.068008 602.382718 
L 730.111567 603.543363 
L 733.155126 602.204154 
L 736.198686 600.46318 
L 739.242245 601.623825 
L 742.285804 601.757742 
L 745.329364 601.088144 
L 748.372923 604.391532 
L 751.416482 607.025316 
L 754.460042 603.230881 
L 757.503601 603.320164 
L 760.547161 605.730748 
L 763.59072 603.588004 
L 766.634279 598.900759 
L 769.677839 603.855845 
L 772.721398 600.418533 
L 775.764957 600.731021 
L 778.808517 602.114871 
L 781.852076 600.552456 
L 784.895635 599.972134 
L 787.939195 602.276693 
L 790.982754 602.204154 
L 794.026313 599.972134 
L 797.069873 600.597097 
L 800.113432 600.284616 
L 803.156992 603.320164 
L 806.200551 604.257615 
L 809.24411 591.942433 
L 812.28767 592.734799 
L 815.331229 593.88987 
L 818.374788 589.068707 
L 821.418348 590.776195 
L 824.461907 590.374437 
L 827.505466 580.308024 
L 830.549026 580.023441 
L 833.592585 577.467778 
L 836.636144 576.262485 
L 839.679704 578.371737 
L 842.723263 574.354096 
L 845.766823 588.666936 
L 848.810382 582.640482 
L 851.853941 586.75856 
L 854.897501 583.59467 
L 857.94106 578.221084 
L 860.984619 589.018478 
L 864.028179 588.666936 
L 867.071738 589.671353 
L 870.115297 589.621124 
L 873.158857 590.022895 
L 876.202416 590.022895 
L 879.245975 591.730389 
L 882.289535 589.922451 
L 885.333094 588.466054 
L 888.376654 578.522403 
L 891.420213 578.968802 
L 894.463772 578.466607 
L 897.507332 585.553268 
L 900.550891 584.297754 
L 903.59445 584.59908 
L 906.63801 586.457241 
L 909.681569 589.269583 
L 912.725128 589.520687 
L 915.768688 590.424653 
L 918.812247 576.395005 
L 924.899366 586.658123 
L 927.942925 586.457241 
L 930.986485 586.105692 
L 934.030044 586.959442 
L 937.073603 586.858998 
L 940.117163 585.452824 
L 943.160722 585.854595 
L 946.204281 582.389378 
L 949.247841 581.234308 
L 952.2914 584.699524 
L 955.334959 586.407012 
L 961.422078 587.662526 
L 964.465637 585.90481 
L 967.509197 588.164735 
L 970.552756 588.767381 
L 973.596316 588.114513 
L 976.639875 582.74092 
L 979.683434 589.169138 
L 982.726994 592.483695 
L 985.770553 591.981493 
L 988.814112 583.192906 
L 988.814112 583.192906 
" clip-path="url(#pb9f6bd20dc)" style="fill: none; stroke: #1f77b4; stroke-width: 1.5; stroke-linecap: square"/>
   </g>
   <g id="line2d_50">
    <path d="M 553.585124 608.829449 
L 556.628684 610.1228 
L 559.672243 611.685801 
L 562.715802 610.715708 
L 565.759362 611.758493 
L 568.802921 609.479052 
L 571.84648 611.976996 
L 574.89004 608.80382 
L 577.933599 609.923229 
L 580.977158 610.474475 
L 584.020718 611.349352 
L 587.064277 609.318713 
L 590.107837 610.555975 
L 593.151396 610.276433 
L 596.194955 613.282693 
L 599.238515 610.392683 
L 602.282074 609.514141 
L 605.325633 610.852904 
L 608.369193 609.222746 
L 611.412752 609.729231 
L 614.456311 609.804012 
L 617.499871 611.055456 
L 620.54343 609.224588 
L 623.586989 613.798757 
L 626.630549 608.627011 
L 629.674108 610.653106 
L 632.717668 610.129718 
L 635.761227 610.926475 
L 638.804786 609.99473 
L 641.848346 609.53391 
L 647.935464 609.116833 
L 650.979024 610.665772 
L 654.022583 611.70732 
L 657.066142 609.983309 
L 660.109702 609.550713 
L 663.153261 611.361552 
L 666.19682 609.993925 
L 669.24038 610.212834 
L 672.283939 609.082795 
L 675.327499 610.772908 
L 678.371058 609.572106 
L 681.414617 610.319578 
L 684.458177 608.816299 
L 687.501736 610.457286 
L 690.545295 609.020141 
L 693.588855 609.777318 
L 696.632414 608.619507 
L 699.675973 612.109643 
L 702.719533 610.174599 
L 705.763092 608.49656 
L 708.806651 606.989302 
L 711.850211 607.810345 
L 714.89377 609.563764 
L 717.93733 607.513795 
L 720.980889 608.881594 
L 724.024448 610.049403 
L 727.068008 610.843718 
L 730.111567 609.674093 
L 733.155126 608.7766 
L 736.198686 611.573083 
L 739.242245 608.459894 
L 742.285804 607.951439 
L 745.329364 609.067589 
L 748.372923 609.960566 
L 751.416482 609.475579 
L 754.460042 611.701905 
L 757.503601 611.316012 
L 760.547161 612.135545 
L 766.634279 610.065786 
L 769.677839 609.188262 
L 772.721398 610.290389 
L 775.764957 610.44228 
L 778.808517 608.629073 
L 781.852076 610.662818 
L 784.895635 614.380576 
L 787.939195 609.974655 
L 790.982754 610.642922 
L 797.069873 609.382159 
L 800.113432 609.407417 
L 803.156992 607.366142 
L 806.200551 609.478892 
L 809.24411 611.042897 
L 812.28767 610.060418 
L 815.331229 611.793442 
L 818.374788 607.959881 
L 821.418348 609.398137 
L 827.505466 611.491424 
L 830.549026 608.423628 
L 833.592585 610.176574 
L 836.636144 611.068487 
L 839.679704 610.782221 
L 842.723263 608.939226 
L 845.766823 607.648098 
L 848.810382 607.808436 
L 851.853941 608.148623 
L 854.897501 608.843558 
L 857.94106 607.927685 
L 860.984619 609.437843 
L 864.028179 608.655348 
L 867.071738 608.489096 
L 870.115297 608.586507 
L 873.158857 607.304265 
L 876.202416 608.124031 
L 879.245975 609.37729 
L 882.289535 608.187138 
L 885.333094 608.781256 
L 888.376654 609.100909 
L 891.420213 606.769875 
L 894.463772 606.371144 
L 897.507332 608.142809 
L 900.550891 608.753551 
L 903.59445 608.202264 
L 906.63801 609.810984 
L 909.681569 608.240899 
L 912.725128 608.385918 
L 915.768688 609.513256 
L 918.812247 609.147971 
L 921.855806 609.586194 
L 924.899366 607.126924 
L 927.942925 606.751416 
L 930.986485 605.791194 
L 934.030044 609.306953 
L 937.073603 607.441654 
L 940.117163 610.876405 
L 943.160722 608.676355 
L 946.204281 609.749633 
L 949.247841 606.871024 
L 952.2914 609.237353 
L 955.334959 609.374869 
L 958.378519 608.034995 
L 961.422078 608.432754 
L 964.465637 610.162386 
L 967.509197 609.496307 
L 970.552756 609.252174 
L 973.596316 608.852 
L 976.639875 611.231094 
L 979.683434 612.534742 
L 982.726994 610.709541 
L 985.770553 609.219087 
L 988.814112 608.401982 
L 988.814112 608.401982 
" clip-path="url(#pb9f6bd20dc)" style="fill: none; stroke: #ff7f0e; stroke-width: 1.5; stroke-linecap: square"/>
   </g>
   <g id="line2d_51">
    <path d="M 553.585124 659.116875 
L 553.585124 552.859375 
" clip-path="url(#pb9f6bd20dc)" style="fill: none; stroke-dasharray: 7.4,3.2; stroke-dashoffset: 0; stroke: #0000ff; stroke-width: 2"/>
   </g>
   <g id="patch_19">
    <path d="M 71.6375 659.116875 
L 71.6375 552.859375 
" style="fill: none; stroke: #000000; stroke-width: 0.8; stroke-linejoin: miter; stroke-linecap: square"/>
   </g>
   <g id="patch_20">
    <path d="M 1032.489189 659.116875 
L 1032.489189 552.859375 
" style="fill: none; stroke: #000000; stroke-width: 0.8; stroke-linejoin: miter; stroke-linecap: square"/>
   </g>
   <g id="patch_21">
    <path d="M 71.6375 659.116875 
L 1032.489189 659.116875 
" style="fill: none; stroke: #000000; stroke-width: 0.8; stroke-linejoin: miter; stroke-linecap: square"/>
   </g>
   <g id="patch_22">
    <path d="M 71.6375 552.859375 
L 1032.489189 552.859375 
" style="fill: none; stroke: #000000; stroke-width: 0.8; stroke-linejoin: miter; stroke-linecap: square"/>
   </g>
   <g id="text_47">
    <!-- 云函数ID: 165 -->
    <g transform="translate(487.063345 546.859375) scale(0.2 -0.2)">
     <defs>
      <path id="SimSun-36" d="M 775 1800 
Q 775 1050 1037 637 
Q 1300 225 1675 225 
Q 2050 225 2250 500 
Q 2450 775 2450 1525 
Q 2450 2025 2237 2300 
Q 2025 2575 1725 2575 
Q 1450 2575 1212 2412 
Q 975 2250 775 1800 
z
M 1750 2825 
Q 2350 2825 2612 2425 
Q 2875 2025 2875 1525 
Q 2875 775 2512 412 
Q 2150 50 1675 50 
Q 1000 50 650 562 
Q 300 1075 300 2050 
Q 300 3200 725 3812 
Q 1150 4425 1875 4425 
Q 2225 4425 2437 4225 
Q 2650 4025 2650 3875 
Q 2650 3725 2587 3650 
Q 2525 3575 2375 3575 
Q 2250 3575 2187 3637 
Q 2125 3700 2125 3825 
Q 2125 3875 2150 3925 
Q 2150 3975 2150 4025 
Q 2150 4125 2075 4187 
Q 2000 4250 1800 4250 
Q 1375 4250 1075 3862 
Q 775 3475 775 2175 
Q 925 2500 1187 2662 
Q 1450 2825 1750 2825 
z
" transform="scale(0.015625)"/>
     </defs>
     <use xlink:href="#SimSun-4e91"/>
     <use xlink:href="#SimSun-51fd" x="100"/>
     <use xlink:href="#SimSun-6570" x="200"/>
     <use xlink:href="#SimSun-49" x="300"/>
     <use xlink:href="#SimSun-44" x="350"/>
     <use xlink:href="#SimSun-3a" x="400"/>
     <use xlink:href="#SimSun-20" x="450"/>
     <use xlink:href="#SimSun-31" x="500"/>
     <use xlink:href="#SimSun-36" x="550"/>
     <use xlink:href="#SimSun-35" x="600"/>
    </g>
   </g>
  </g>
 </g>
 <defs>
  <clipPath id="p4ebf64cef6">
   <rect x="71.6375" y="29.059375" width="960.851689" height="106.2575"/>
  </clipPath>
  <clipPath id="p33c456180d">
   <rect x="71.6375" y="203.659375" width="960.851689" height="106.2575"/>
  </clipPath>
  <clipPath id="pf9fa2382ab">
   <rect x="71.6375" y="378.259375" width="960.851689" height="106.2575"/>
  </clipPath>
  <clipPath id="pb9f6bd20dc">
   <rect x="71.6375" y="552.859375" width="960.851689" height="106.2575"/>
  </clipPath>
 </defs>
</svg>
