<?xml version="1.0" encoding="utf-8" standalone="no"?>
<!DOCTYPE svg PUBLIC "-//W3C//DTD SVG 1.1//EN"
  "http://www.w3.org/Graphics/SVG/1.1/DTD/svg11.dtd">
<svg xmlns:xlink="http://www.w3.org/1999/xlink" width="835.18pt" height="546.7pt" viewBox="0 0 835.18 546.7" xmlns="http://www.w3.org/2000/svg" version="1.1">
 <metadata>
  <rdf:RDF xmlns:dc="http://purl.org/dc/elements/1.1/" xmlns:cc="http://creativecommons.org/ns#" xmlns:rdf="http://www.w3.org/1999/02/22-rdf-syntax-ns#">
   <cc:Work>
    <dc:type rdf:resource="http://purl.org/dc/dcmitype/StillImage"/>
    <dc:date>2024-03-08T22:30:36.393961</dc:date>
    <dc:format>image/svg+xml</dc:format>
    <dc:creator>
     <cc:Agent>
      <dc:title>Matplotlib v3.7.1, https://matplotlib.org/</dc:title>
     </cc:Agent>
    </dc:creator>
   </cc:Work>
  </rdf:RDF>
 </metadata>
 <defs>
  <style type="text/css">*{stroke-linejoin: round; stroke-linecap: butt}</style>
 </defs>
 <g id="figure_1">
  <g id="patch_1">
   <path d="M 0 546.7 
L 835.18 546.7 
L 835.18 0 
L 0 0 
z
" style="fill: #ffffff"/>
  </g>
  <g id="axes_1">
   <g id="patch_2">
    <path d="M 39.2 491.81875 
L 827.98 491.81875 
L 827.98 7.2 
L 39.2 7.2 
z
" style="fill: #ffffff"/>
   </g>
   <g id="matplotlib.axis_1">
    <g id="xtick_1">
     <g id="line2d_1">
      <path d="M 75.053636 491.81875 
L 75.053636 7.2 
" clip-path="url(#p4303425461)" style="fill: none; stroke: #b0b0b0; stroke-width: 0.8; stroke-linecap: square"/>
     </g>
     <g id="line2d_2">
      <defs>
       <path id="m6f61bd1c37" d="M 0 0 
L 0 3.5 
" style="stroke: #000000; stroke-width: 0.8"/>
      </defs>
      <g>
       <use xlink:href="#m6f61bd1c37" x="75.053636" y="491.81875" style="stroke: #000000; stroke-width: 0.8"/>
      </g>
     </g>
     <g id="text_1">
      <!-- 0 -->
      <g transform="translate(70.053636 512.70625) scale(0.2 -0.2)">
       <defs>
        <path id="TimesNewRomanPSMT-30" d="M 231 2094 
Q 231 2819 450 3342 
Q 669 3866 1031 4122 
Q 1313 4325 1613 4325 
Q 2100 4325 2488 3828 
Q 2972 3213 2972 2159 
Q 2972 1422 2759 906 
Q 2547 391 2217 158 
Q 1888 -75 1581 -75 
Q 975 -75 572 641 
Q 231 1244 231 2094 
z
M 844 2016 
Q 844 1141 1059 588 
Q 1238 122 1591 122 
Q 1759 122 1940 273 
Q 2122 425 2216 781 
Q 2359 1319 2359 2297 
Q 2359 3022 2209 3506 
Q 2097 3866 1919 4016 
Q 1791 4119 1609 4119 
Q 1397 4119 1231 3928 
Q 1006 3669 925 3112 
Q 844 2556 844 2016 
z
" transform="scale(0.015625)"/>
       </defs>
       <use xlink:href="#TimesNewRomanPSMT-30"/>
      </g>
     </g>
    </g>
    <g id="xtick_2">
     <g id="line2d_3">
      <path d="M 195.570061 491.81875 
L 195.570061 7.2 
" clip-path="url(#p4303425461)" style="fill: none; stroke: #b0b0b0; stroke-width: 0.8; stroke-linecap: square"/>
     </g>
     <g id="line2d_4">
      <g>
       <use xlink:href="#m6f61bd1c37" x="195.570061" y="491.81875" style="stroke: #000000; stroke-width: 0.8"/>
      </g>
     </g>
     <g id="text_2">
      <!-- 20 -->
      <g transform="translate(185.570061 512.70625) scale(0.2 -0.2)">
       <defs>
        <path id="TimesNewRomanPSMT-32" d="M 2934 816 
L 2638 0 
L 138 0 
L 138 116 
Q 1241 1122 1691 1759 
Q 2141 2397 2141 2925 
Q 2141 3328 1894 3587 
Q 1647 3847 1303 3847 
Q 991 3847 742 3664 
Q 494 3481 375 3128 
L 259 3128 
Q 338 3706 661 4015 
Q 984 4325 1469 4325 
Q 1984 4325 2329 3994 
Q 2675 3663 2675 3213 
Q 2675 2891 2525 2569 
Q 2294 2063 1775 1497 
Q 997 647 803 472 
L 1909 472 
Q 2247 472 2383 497 
Q 2519 522 2628 598 
Q 2738 675 2819 816 
L 2934 816 
z
" transform="scale(0.015625)"/>
       </defs>
       <use xlink:href="#TimesNewRomanPSMT-32"/>
       <use xlink:href="#TimesNewRomanPSMT-30" x="50"/>
      </g>
     </g>
    </g>
    <g id="xtick_3">
     <g id="line2d_5">
      <path d="M 316.086486 491.81875 
L 316.086486 7.2 
" clip-path="url(#p4303425461)" style="fill: none; stroke: #b0b0b0; stroke-width: 0.8; stroke-linecap: square"/>
     </g>
     <g id="line2d_6">
      <g>
       <use xlink:href="#m6f61bd1c37" x="316.086486" y="491.81875" style="stroke: #000000; stroke-width: 0.8"/>
      </g>
     </g>
     <g id="text_3">
      <!-- 40 -->
      <g transform="translate(306.086486 512.70625) scale(0.2 -0.2)">
       <defs>
        <path id="TimesNewRomanPSMT-34" d="M 2978 1563 
L 2978 1119 
L 2409 1119 
L 2409 0 
L 1894 0 
L 1894 1119 
L 100 1119 
L 100 1519 
L 2066 4325 
L 2409 4325 
L 2409 1563 
L 2978 1563 
z
M 1894 1563 
L 1894 3666 
L 406 1563 
L 1894 1563 
z
" transform="scale(0.015625)"/>
       </defs>
       <use xlink:href="#TimesNewRomanPSMT-34"/>
       <use xlink:href="#TimesNewRomanPSMT-30" x="50"/>
      </g>
     </g>
    </g>
    <g id="xtick_4">
     <g id="line2d_7">
      <path d="M 436.602911 491.81875 
L 436.602911 7.2 
" clip-path="url(#p4303425461)" style="fill: none; stroke: #b0b0b0; stroke-width: 0.8; stroke-linecap: square"/>
     </g>
     <g id="line2d_8">
      <g>
       <use xlink:href="#m6f61bd1c37" x="436.602911" y="491.81875" style="stroke: #000000; stroke-width: 0.8"/>
      </g>
     </g>
     <g id="text_4">
      <!-- 60 -->
      <g transform="translate(426.602911 512.70625) scale(0.2 -0.2)">
       <defs>
        <path id="TimesNewRomanPSMT-36" d="M 2869 4325 
L 2869 4209 
Q 2456 4169 2195 4045 
Q 1934 3922 1679 3669 
Q 1425 3416 1258 3105 
Q 1091 2794 978 2366 
Q 1428 2675 1881 2675 
Q 2316 2675 2634 2325 
Q 2953 1975 2953 1425 
Q 2953 894 2631 456 
Q 2244 -75 1606 -75 
Q 1172 -75 869 213 
Q 275 772 275 1663 
Q 275 2231 503 2743 
Q 731 3256 1154 3653 
Q 1578 4050 1965 4187 
Q 2353 4325 2688 4325 
L 2869 4325 
z
M 925 2138 
Q 869 1716 869 1456 
Q 869 1156 980 804 
Q 1091 453 1309 247 
Q 1469 100 1697 100 
Q 1969 100 2183 356 
Q 2397 613 2397 1088 
Q 2397 1622 2184 2012 
Q 1972 2403 1581 2403 
Q 1463 2403 1327 2353 
Q 1191 2303 925 2138 
z
" transform="scale(0.015625)"/>
       </defs>
       <use xlink:href="#TimesNewRomanPSMT-36"/>
       <use xlink:href="#TimesNewRomanPSMT-30" x="50"/>
      </g>
     </g>
    </g>
    <g id="xtick_5">
     <g id="line2d_9">
      <path d="M 557.119335 491.81875 
L 557.119335 7.2 
" clip-path="url(#p4303425461)" style="fill: none; stroke: #b0b0b0; stroke-width: 0.8; stroke-linecap: square"/>
     </g>
     <g id="line2d_10">
      <g>
       <use xlink:href="#m6f61bd1c37" x="557.119335" y="491.81875" style="stroke: #000000; stroke-width: 0.8"/>
      </g>
     </g>
     <g id="text_5">
      <!-- 80 -->
      <g transform="translate(547.119335 512.70625) scale(0.2 -0.2)">
       <defs>
        <path id="TimesNewRomanPSMT-38" d="M 1228 2134 
Q 725 2547 579 2797 
Q 434 3047 434 3316 
Q 434 3728 753 4026 
Q 1072 4325 1600 4325 
Q 2113 4325 2425 4047 
Q 2738 3769 2738 3413 
Q 2738 3175 2569 2928 
Q 2400 2681 1866 2347 
Q 2416 1922 2594 1678 
Q 2831 1359 2831 1006 
Q 2831 559 2490 242 
Q 2150 -75 1597 -75 
Q 994 -75 656 303 
Q 388 606 388 966 
Q 388 1247 577 1523 
Q 766 1800 1228 2134 
z
M 1719 2469 
Q 2094 2806 2194 3001 
Q 2294 3197 2294 3444 
Q 2294 3772 2109 3958 
Q 1925 4144 1606 4144 
Q 1288 4144 1088 3959 
Q 888 3775 888 3528 
Q 888 3366 970 3203 
Q 1053 3041 1206 2894 
L 1719 2469 
z
M 1375 2016 
Q 1116 1797 991 1539 
Q 866 1281 866 981 
Q 866 578 1086 336 
Q 1306 94 1647 94 
Q 1984 94 2187 284 
Q 2391 475 2391 747 
Q 2391 972 2272 1150 
Q 2050 1481 1375 2016 
z
" transform="scale(0.015625)"/>
       </defs>
       <use xlink:href="#TimesNewRomanPSMT-38"/>
       <use xlink:href="#TimesNewRomanPSMT-30" x="50"/>
      </g>
     </g>
    </g>
    <g id="xtick_6">
     <g id="line2d_11">
      <path d="M 677.63576 491.81875 
L 677.63576 7.2 
" clip-path="url(#p4303425461)" style="fill: none; stroke: #b0b0b0; stroke-width: 0.8; stroke-linecap: square"/>
     </g>
     <g id="line2d_12">
      <g>
       <use xlink:href="#m6f61bd1c37" x="677.63576" y="491.81875" style="stroke: #000000; stroke-width: 0.8"/>
      </g>
     </g>
     <g id="text_6">
      <!-- 100 -->
      <g transform="translate(662.63576 512.70625) scale(0.2 -0.2)">
       <defs>
        <path id="TimesNewRomanPSMT-31" d="M 750 3822 
L 1781 4325 
L 1884 4325 
L 1884 747 
Q 1884 391 1914 303 
Q 1944 216 2037 169 
Q 2131 122 2419 116 
L 2419 0 
L 825 0 
L 825 116 
Q 1125 122 1212 167 
Q 1300 213 1334 289 
Q 1369 366 1369 747 
L 1369 3034 
Q 1369 3497 1338 3628 
Q 1316 3728 1258 3775 
Q 1200 3822 1119 3822 
Q 1003 3822 797 3725 
L 750 3822 
z
" transform="scale(0.015625)"/>
       </defs>
       <use xlink:href="#TimesNewRomanPSMT-31"/>
       <use xlink:href="#TimesNewRomanPSMT-30" x="50"/>
       <use xlink:href="#TimesNewRomanPSMT-30" x="100"/>
      </g>
     </g>
    </g>
    <g id="xtick_7">
     <g id="line2d_13">
      <path d="M 798.152185 491.81875 
L 798.152185 7.2 
" clip-path="url(#p4303425461)" style="fill: none; stroke: #b0b0b0; stroke-width: 0.8; stroke-linecap: square"/>
     </g>
     <g id="line2d_14">
      <g>
       <use xlink:href="#m6f61bd1c37" x="798.152185" y="491.81875" style="stroke: #000000; stroke-width: 0.8"/>
      </g>
     </g>
     <g id="text_7">
      <!-- 120 -->
      <g transform="translate(783.152185 512.70625) scale(0.2 -0.2)">
       <use xlink:href="#TimesNewRomanPSMT-31"/>
       <use xlink:href="#TimesNewRomanPSMT-32" x="50"/>
       <use xlink:href="#TimesNewRomanPSMT-30" x="100"/>
      </g>
     </g>
    </g>
    <g id="text_8">
     <!-- 时间步 -->
     <g transform="translate(403.59 536.921875) scale(0.2 -0.2)">
      <defs>
       <path id="SimSun-65f6" d="M 4500 3600 
Q 4500 4575 4475 5225 
L 5100 4900 
L 4850 4725 
L 4850 3600 
L 5225 3600 
L 5550 3925 
L 6025 3450 
L 4850 3450 
L 4850 100 
Q 4850 -375 4300 -575 
Q 4275 -200 3475 -25 
L 3475 100 
Q 4150 0 4325 25 
Q 4500 50 4500 325 
L 4500 3450 
L 3200 3450 
Q 2875 3450 2600 3375 
L 2375 3600 
L 4500 3600 
z
M 2875 2825 
Q 3525 2375 3637 2200 
Q 3750 2025 3750 1925 
Q 3750 1800 3637 1637 
Q 3525 1475 3475 1475 
Q 3400 1475 3325 1775 
Q 3200 2225 2800 2750 
L 2875 2825 
z
M 925 4150 
L 925 2650 
L 1950 2650 
L 1950 4150 
L 925 4150 
z
M 925 2500 
L 925 900 
L 1950 900 
L 1950 2500 
L 925 2500 
z
M 2300 2000 
Q 2300 800 2325 450 
L 1950 250 
L 1950 750 
L 925 750 
L 925 225 
L 550 25 
Q 575 825 575 2425 
Q 575 4025 550 4500 
L 950 4300 
L 1900 4300 
L 2100 4550 
L 2500 4225 
L 2300 4050 
L 2300 2000 
z
" transform="scale(0.015625)"/>
       <path id="SimSun-95f4" d="M 2150 525 
Q 2175 1325 2175 2112 
Q 2175 2900 2150 3675 
L 2525 3450 
L 3750 3450 
L 4000 3700 
L 4325 3375 
L 4125 3200 
Q 4125 1550 4150 775 
L 3800 575 
L 3800 975 
L 2500 975 
L 2500 700 
L 2150 525 
z
M 2500 3300 
L 2500 2325 
L 3800 2325 
L 3800 3300 
L 2500 3300 
z
M 2500 2175 
L 2500 1125 
L 3800 1125 
L 3800 2175 
L 2500 2175 
z
M 1275 5200 
Q 1850 4825 1950 4675 
Q 2050 4525 2050 4425 
Q 2050 4275 1950 4137 
Q 1850 4000 1825 4000 
Q 1750 4000 1675 4275 
Q 1550 4650 1200 5125 
L 1275 5200 
z
M 1125 425 
Q 1125 25 1150 -375 
L 750 -525 
Q 775 -150 775 1950 
Q 775 4050 750 4425 
L 1350 4125 
L 1125 3975 
L 1125 425 
z
M 4225 125 
Q 5025 0 5125 37 
Q 5225 75 5225 250 
L 5225 4450 
L 3225 4450 
Q 2900 4450 2625 4375 
L 2400 4600 
L 5175 4600 
L 5425 4850 
L 5775 4500 
L 5575 4350 
L 5575 225 
Q 5575 -100 5462 -250 
Q 5350 -400 5000 -550 
Q 4800 -125 4225 25 
L 4225 125 
z
" transform="scale(0.015625)"/>
       <path id="SimSun-6b65" d="M 3125 2975 
Q 3125 4700 3100 5275 
L 3700 5000 
L 3475 4825 
L 3475 4200 
L 4800 4200 
L 5100 4500 
L 5550 4050 
L 3475 4050 
L 3475 2975 
L 5175 2975 
L 5550 3350 
L 6075 2825 
L 1150 2825 
Q 825 2825 550 2750 
L 325 2975 
L 1500 2975 
Q 1500 4225 1475 4650 
L 2075 4375 
L 1850 4200 
L 1850 2975 
L 3125 2975 
z
M 3100 650 
Q 3125 950 3125 1737 
Q 3125 2525 3100 2775 
L 3675 2500 
L 3475 2325 
Q 3475 1175 3500 800 
L 3100 650 
z
M 1850 2300 
L 2350 1925 
L 2075 1825 
Q 1275 750 550 250 
L 500 325 
Q 975 800 1350 1387 
Q 1725 1975 1850 2300 
z
M 5250 2275 
L 5700 1825 
L 5475 1775 
Q 3950 325 2875 -62 
Q 1800 -450 375 -650 
L 375 -550 
Q 1125 -425 2075 -112 
Q 3025 200 3862 837 
Q 4700 1475 5250 2275 
z
" transform="scale(0.015625)"/>
      </defs>
      <use xlink:href="#SimSun-65f6"/>
      <use xlink:href="#SimSun-95f4" x="100"/>
      <use xlink:href="#SimSun-6b65" x="200"/>
     </g>
    </g>
   </g>
   <g id="matplotlib.axis_2">
    <g id="ytick_1">
     <g id="line2d_15">
      <path d="M 39.2 471.584661 
L 827.98 471.584661 
" clip-path="url(#p4303425461)" style="fill: none; stroke: #b0b0b0; stroke-width: 0.8; stroke-linecap: square"/>
     </g>
     <g id="line2d_16">
      <defs>
       <path id="mc388919b98" d="M 0 0 
L -3.5 0 
" style="stroke: #000000; stroke-width: 0.8"/>
      </defs>
      <g>
       <use xlink:href="#mc388919b98" x="39.2" y="471.584661" style="stroke: #000000; stroke-width: 0.8"/>
      </g>
     </g>
     <g id="text_9">
      <!-- 0.0 -->
      <g transform="translate(7.2 478.528411) scale(0.2 -0.2)">
       <defs>
        <path id="TimesNewRomanPSMT-2e" d="M 800 606 
Q 947 606 1047 504 
Q 1147 403 1147 259 
Q 1147 116 1045 14 
Q 944 -88 800 -88 
Q 656 -88 554 14 
Q 453 116 453 259 
Q 453 406 554 506 
Q 656 606 800 606 
z
" transform="scale(0.015625)"/>
       </defs>
       <use xlink:href="#TimesNewRomanPSMT-30"/>
       <use xlink:href="#TimesNewRomanPSMT-2e" x="50"/>
       <use xlink:href="#TimesNewRomanPSMT-30" x="75"/>
      </g>
     </g>
    </g>
    <g id="ytick_2">
     <g id="line2d_17">
      <path d="M 39.2 383.113354 
L 827.98 383.113354 
" clip-path="url(#p4303425461)" style="fill: none; stroke: #b0b0b0; stroke-width: 0.8; stroke-linecap: square"/>
     </g>
     <g id="line2d_18">
      <g>
       <use xlink:href="#mc388919b98" x="39.2" y="383.113354" style="stroke: #000000; stroke-width: 0.8"/>
      </g>
     </g>
     <g id="text_10">
      <!-- 0.2 -->
      <g transform="translate(7.2 390.057104) scale(0.2 -0.2)">
       <use xlink:href="#TimesNewRomanPSMT-30"/>
       <use xlink:href="#TimesNewRomanPSMT-2e" x="50"/>
       <use xlink:href="#TimesNewRomanPSMT-32" x="75"/>
      </g>
     </g>
    </g>
    <g id="ytick_3">
     <g id="line2d_19">
      <path d="M 39.2 294.642047 
L 827.98 294.642047 
" clip-path="url(#p4303425461)" style="fill: none; stroke: #b0b0b0; stroke-width: 0.8; stroke-linecap: square"/>
     </g>
     <g id="line2d_20">
      <g>
       <use xlink:href="#mc388919b98" x="39.2" y="294.642047" style="stroke: #000000; stroke-width: 0.8"/>
      </g>
     </g>
     <g id="text_11">
      <!-- 0.4 -->
      <g transform="translate(7.2 301.585797) scale(0.2 -0.2)">
       <use xlink:href="#TimesNewRomanPSMT-30"/>
       <use xlink:href="#TimesNewRomanPSMT-2e" x="50"/>
       <use xlink:href="#TimesNewRomanPSMT-34" x="75"/>
      </g>
     </g>
    </g>
    <g id="ytick_4">
     <g id="line2d_21">
      <path d="M 39.2 206.170739 
L 827.98 206.170739 
" clip-path="url(#p4303425461)" style="fill: none; stroke: #b0b0b0; stroke-width: 0.8; stroke-linecap: square"/>
     </g>
     <g id="line2d_22">
      <g>
       <use xlink:href="#mc388919b98" x="39.2" y="206.170739" style="stroke: #000000; stroke-width: 0.8"/>
      </g>
     </g>
     <g id="text_12">
      <!-- 0.6 -->
      <g transform="translate(7.2 213.114489) scale(0.2 -0.2)">
       <use xlink:href="#TimesNewRomanPSMT-30"/>
       <use xlink:href="#TimesNewRomanPSMT-2e" x="50"/>
       <use xlink:href="#TimesNewRomanPSMT-36" x="75"/>
      </g>
     </g>
    </g>
    <g id="ytick_5">
     <g id="line2d_23">
      <path d="M 39.2 117.699432 
L 827.98 117.699432 
" clip-path="url(#p4303425461)" style="fill: none; stroke: #b0b0b0; stroke-width: 0.8; stroke-linecap: square"/>
     </g>
     <g id="line2d_24">
      <g>
       <use xlink:href="#mc388919b98" x="39.2" y="117.699432" style="stroke: #000000; stroke-width: 0.8"/>
      </g>
     </g>
     <g id="text_13">
      <!-- 0.8 -->
      <g transform="translate(7.2 124.643182) scale(0.2 -0.2)">
       <use xlink:href="#TimesNewRomanPSMT-30"/>
       <use xlink:href="#TimesNewRomanPSMT-2e" x="50"/>
       <use xlink:href="#TimesNewRomanPSMT-38" x="75"/>
      </g>
     </g>
    </g>
    <g id="ytick_6">
     <g id="line2d_25">
      <path d="M 39.2 29.228125 
L 827.98 29.228125 
" clip-path="url(#p4303425461)" style="fill: none; stroke: #b0b0b0; stroke-width: 0.8; stroke-linecap: square"/>
     </g>
     <g id="line2d_26">
      <g>
       <use xlink:href="#mc388919b98" x="39.2" y="29.228125" style="stroke: #000000; stroke-width: 0.8"/>
      </g>
     </g>
     <g id="text_14">
      <!-- 1.0 -->
      <g transform="translate(7.2 36.171875) scale(0.2 -0.2)">
       <use xlink:href="#TimesNewRomanPSMT-31"/>
       <use xlink:href="#TimesNewRomanPSMT-2e" x="50"/>
       <use xlink:href="#TimesNewRomanPSMT-30" x="75"/>
      </g>
     </g>
    </g>
   </g>
   <g id="line2d_27">
    <path d="M 75.053636 465.03913 
L 81.079458 454.524658 
L 87.105279 441.746132 
L 93.1311 431.506021 
L 99.156921 423.888741 
L 105.182743 419.85739 
L 111.208564 405.3265 
L 117.234385 399.579801 
L 123.260206 391.869345 
L 129.286028 384.765536 
L 135.311849 384.491519 
L 141.33767 376.804513 
L 147.363491 373.821212 
L 153.389312 361.343237 
L 159.415134 355.634029 
L 165.440955 349.425751 
L 171.466776 342.550933 
L 177.492597 339.636276 
L 183.518419 313.801312 
L 189.54424 312.425952 
L 195.570061 299.367289 
L 201.595882 293.21694 
L 207.621704 289.48848 
L 213.647525 273.006283 
L 219.673346 269.74418 
L 225.699167 159.300419 
L 231.724989 29.228125 
L 237.75081 219.608568 
L 243.776631 219.838606 
L 249.802452 150.499444 
L 255.828273 112.197961 
L 261.854095 101.948525 
L 267.879916 238.054681 
L 273.905737 212.950538 
L 279.931558 231.209996 
L 285.95738 175.363555 
L 291.983201 262.637891 
L 298.009022 271.524031 
L 304.034843 283.539362 
L 310.060665 288.16899 
L 316.086486 293.615408 
L 322.112307 303.969719 
L 328.138128 306.094694 
L 334.16395 316.382525 
L 340.189771 299.451913 
L 346.215592 298.062092 
L 352.241413 342.950065 
L 358.267235 351.615773 
L 364.293056 367.007704 
L 370.318877 367.844665 
L 376.344698 381.193436 
L 382.370519 388.065693 
L 388.396341 396.620282 
L 394.422162 404.049059 
L 400.447983 414.75076 
L 406.473804 408.824174 
L 412.499626 437.343445 
L 418.525447 450.543963 
L 424.551268 459.201358 
L 430.577089 467.766741 
L 436.602911 462.937496 
L 442.628732 452.198258 
L 448.654553 444.30775 
L 454.680374 435.075355 
L 460.706196 424.928646 
L 466.732017 416.271188 
L 472.757838 409.707492 
L 478.783659 405.650347 
L 484.809481 396.281508 
L 490.835302 386.385073 
L 496.861123 385.232594 
L 502.886944 376.891779 
L 508.912765 372.16658 
L 514.938587 366.142809 
L 520.964408 365.382898 
L 526.990229 267.738814 
L 533.01605 326.076278 
L 539.041872 320.363172 
L 545.067693 315.988411 
L 551.093514 307.3116 
L 557.119335 301.269928 
L 563.145157 287.680959 
L 569.170978 282.796259 
L 575.196799 285.916086 
L 581.22262 269.816768 
L 587.248442 263.239105 
L 593.274263 266.040304 
L 599.300084 134.40091 
L 605.325905 87.586221 
L 611.351727 127.534389 
L 617.377548 215.475637 
L 623.403369 220.205524 
L 629.42919 241.42841 
L 635.455011 206.229768 
L 641.480833 205.188059 
L 647.506654 260.125134 
L 653.532475 267.736432 
L 659.558296 268.899462 
L 665.584118 277.767697 
L 671.609939 284.617684 
L 677.63576 302.425273 
L 683.661581 307.560113 
L 689.687403 313.430286 
L 695.713224 297.192299 
L 701.739045 297.156574 
L 707.764866 345.084249 
L 713.790688 357.07145 
L 719.816509 360.227456 
L 725.84233 372.669625 
L 731.868151 379.576729 
L 737.893972 387.561862 
L 743.919794 394.664213 
L 749.945615 401.597998 
L 755.971436 393.393055 
L 761.997257 399.706792 
L 768.023079 430.474591 
L 774.0489 439.836932 
L 780.074721 450.261733 
L 786.100542 458.301168 
L 792.126364 469.790625 
" clip-path="url(#p4303425461)" style="fill: none; stroke: #1f77b4; stroke-width: 1.5; stroke-linecap: square"/>
   </g>
   <g id="line2d_28">
    <path d="M 75.053636 397.858572 
L 81.079458 397.858572 
L 87.105279 397.858572 
L 93.1311 397.858572 
L 99.156921 397.858572 
L 105.182743 397.858572 
L 111.208564 397.858572 
L 117.234385 397.858572 
L 123.260206 397.858572 
L 129.286028 397.858572 
L 135.311849 397.858572 
L 141.33767 397.858572 
L 147.363491 324.132482 
L 153.389312 324.132482 
L 159.415134 324.132482 
L 165.440955 324.132482 
L 171.466776 324.132482 
L 177.492597 324.132482 
L 183.518419 324.132482 
L 189.54424 250.406393 
L 195.570061 176.680304 
L 201.595882 176.680304 
L 207.621704 102.954214 
L 213.647525 29.228125 
L 219.673346 29.228125 
L 225.699167 29.228125 
L 231.724989 29.228125 
L 237.75081 29.228125 
L 243.776631 29.228125 
L 249.802452 176.680304 
L 255.828273 176.680304 
L 261.854095 176.680304 
L 267.879916 176.680304 
L 273.905737 176.680304 
L 279.931558 176.680304 
L 285.95738 176.680304 
L 291.983201 176.680304 
L 298.009022 176.680304 
L 304.034843 250.406393 
L 310.060665 250.406393 
L 316.086486 250.406393 
L 322.112307 250.406393 
L 328.138128 250.406393 
L 334.16395 250.406393 
L 340.189771 250.406393 
L 346.215592 250.406393 
L 352.241413 250.406393 
L 358.267235 250.406393 
L 364.293056 250.406393 
L 370.318877 324.132482 
L 376.344698 324.132482 
L 382.370519 324.132482 
L 388.396341 324.132482 
L 394.422162 324.132482 
L 400.447983 324.132482 
L 406.473804 397.858572 
L 412.499626 397.858572 
L 418.525447 397.858572 
L 424.551268 397.858572 
L 430.577089 397.858572 
L 436.602911 397.858572 
L 442.628732 397.858572 
L 448.654553 397.858572 
L 454.680374 397.858572 
L 460.706196 397.858572 
L 466.732017 397.858572 
L 472.757838 397.858572 
L 478.783659 397.858572 
L 484.809481 397.858572 
L 490.835302 324.132482 
L 496.861123 324.132482 
L 502.886944 324.132482 
L 508.912765 324.132482 
L 514.938587 324.132482 
L 520.964408 324.132482 
L 526.990229 324.132482 
L 533.01605 324.132482 
L 539.041872 324.132482 
L 545.067693 324.132482 
L 551.093514 324.132482 
L 557.119335 250.406393 
L 563.145157 250.406393 
L 569.170978 176.680304 
L 575.196799 176.680304 
L 581.22262 102.954214 
L 587.248442 102.954214 
L 593.274263 102.954214 
L 599.300084 102.954214 
L 605.325905 102.954214 
L 611.351727 102.954214 
L 617.377548 102.954214 
L 623.403369 176.680304 
L 629.42919 176.680304 
L 635.455011 176.680304 
L 641.480833 176.680304 
L 647.506654 176.680304 
L 653.532475 176.680304 
L 659.558296 250.406393 
L 665.584118 250.406393 
L 671.609939 250.406393 
L 677.63576 250.406393 
L 683.661581 250.406393 
L 689.687403 250.406393 
L 695.713224 250.406393 
L 701.739045 250.406393 
L 707.764866 250.406393 
L 713.790688 250.406393 
L 719.816509 324.132482 
L 725.84233 324.132482 
L 731.868151 324.132482 
L 737.893972 324.132482 
L 743.919794 324.132482 
L 749.945615 324.132482 
L 755.971436 324.132482 
L 761.997257 324.132482 
L 768.023079 324.132482 
L 774.0489 397.858572 
L 780.074721 397.858572 
L 786.100542 397.858572 
L 792.126364 397.858572 
" clip-path="url(#p4303425461)" style="fill: none; stroke: #ff7f0e; stroke-width: 1.5; stroke-linecap: square"/>
   </g>
   <g id="patch_3">
    <path d="M 39.2 491.81875 
L 39.2 7.2 
" style="fill: none; stroke: #000000; stroke-width: 0.8; stroke-linejoin: miter; stroke-linecap: square"/>
   </g>
   <g id="patch_4">
    <path d="M 827.98 491.81875 
L 827.98 7.2 
" style="fill: none; stroke: #000000; stroke-width: 0.8; stroke-linejoin: miter; stroke-linecap: square"/>
   </g>
   <g id="patch_5">
    <path d="M 39.2 491.81875 
L 827.98 491.81875 
" style="fill: none; stroke: #000000; stroke-width: 0.8; stroke-linejoin: miter; stroke-linecap: square"/>
   </g>
   <g id="patch_6">
    <path d="M 39.2 7.2 
L 827.98 7.2 
" style="fill: none; stroke: #000000; stroke-width: 0.8; stroke-linejoin: miter; stroke-linecap: square"/>
   </g>
   <g id="legend_1">
    <g id="patch_7">
     <path d="M 629.98 80.075 
L 813.98 80.075 
Q 817.98 80.075 817.98 76.075 
L 817.98 21.2 
Q 817.98 17.2 813.98 17.2 
L 629.98 17.2 
Q 625.98 17.2 625.98 21.2 
L 625.98 76.075 
Q 625.98 80.075 629.98 80.075 
z
" style="fill: #ffffff; opacity: 0.8; stroke: #cccccc; stroke-linejoin: miter"/>
    </g>
    <g id="line2d_29">
     <path d="M 633.98 34.059375 
L 653.98 34.059375 
L 673.98 34.059375 
" style="fill: none; stroke: #1f77b4; stroke-width: 1.5; stroke-linecap: square"/>
    </g>
    <g id="text_15">
     <!-- 实例所需资源 -->
     <g transform="translate(689.98 41.059375) scale(0.2 -0.2)">
      <defs>
       <path id="SimSun-5b9e" d="M 1950 3625 
Q 2575 3400 2700 3250 
Q 2825 3100 2825 2975 
Q 2825 2850 2750 2700 
Q 2675 2550 2625 2550 
Q 2550 2550 2450 2800 
Q 2275 3175 1900 3550 
L 1950 3625 
z
M 3575 1325 
Q 3500 1100 3425 925 
Q 4650 550 5087 325 
Q 5525 100 5512 -225 
Q 5500 -550 5400 -550 
Q 5300 -550 5075 -300 
Q 4625 175 3375 800 
Q 3025 175 2300 -150 
Q 1575 -475 425 -625 
L 425 -525 
Q 1475 -325 2200 100 
Q 2925 525 3200 1325 
L 1225 1325 
Q 900 1325 625 1250 
L 400 1475 
L 3225 1475 
Q 3325 1950 3375 2575 
Q 3425 3200 3425 3700 
L 4050 3400 
L 3850 3225 
Q 3750 2300 3625 1475 
L 5175 1475 
L 5550 1850 
L 6075 1325 
L 3575 1325 
z
M 1275 2700 
Q 1975 2425 2100 2262 
Q 2225 2100 2225 1975 
Q 2225 1850 2150 1700 
Q 2075 1550 2025 1550 
Q 1950 1550 1850 1800 
Q 1675 2175 1225 2625 
L 1275 2700 
z
M 2750 5225 
L 2825 5275 
Q 3225 5100 3425 4925 
Q 3625 4750 3625 4600 
Q 3625 4450 3512 4300 
Q 3400 4150 3325 4150 
Q 3250 4150 3200 4400 
Q 3100 4775 2750 5225 
z
M 4975 3225 
L 5350 3925 
L 1175 3925 
Q 1225 3525 1125 3300 
Q 1025 3075 787 3100 
Q 550 3125 550 3200 
Q 550 3300 700 3475 
Q 975 3825 1050 4375 
L 1150 4375 
L 1175 4075 
L 5300 4075 
L 5575 4350 
L 6050 3800 
Q 5625 3825 5050 3175 
L 4975 3225 
z
" transform="scale(0.015625)"/>
       <path id="SimSun-4f8b" d="M 3900 3000 
Q 3625 1850 3300 1250 
Q 2975 650 2550 250 
Q 2125 -150 1625 -400 
L 1575 -325 
Q 2175 100 2525 575 
Q 2875 1050 3112 1625 
Q 3350 2200 3550 3075 
L 2700 3075 
Q 2550 2725 2400 2450 
Q 2775 2200 2875 2050 
Q 2975 1900 2975 1825 
Q 2975 1700 2887 1587 
Q 2800 1475 2775 1475 
Q 2700 1475 2650 1725 
Q 2575 2050 2350 2350 
Q 2125 1950 1750 1550 
L 1675 1625 
Q 2100 2200 2362 3012 
Q 2625 3825 2675 4250 
L 2325 4250 
L 2050 4200 
L 1825 4400 
L 3600 4400 
L 3875 4675 
L 4300 4250 
L 3075 4250 
Q 3000 3975 2750 3225 
L 3525 3225 
L 3725 3475 
L 4150 3150 
L 3900 3000 
z
M 4725 2000 
Q 4725 1750 4750 975 
L 4375 800 
Q 4400 1625 4400 1900 
L 4400 3300 
Q 4400 3725 4375 4075 
L 4925 3825 
L 4725 3625 
L 4725 2000 
z
M 5350 3950 
Q 5350 4375 5325 5125 
L 5875 4850 
L 5675 4700 
L 5675 -25 
Q 5700 -425 5175 -600 
Q 5150 -275 4400 -125 
L 4425 0 
Q 5050 -100 5200 -62 
Q 5350 -25 5350 225 
L 5350 3950 
z
M 1100 -600 
Q 1125 225 1125 575 
L 1125 3150 
Q 625 2375 325 2050 
L 250 2100 
Q 800 3025 1075 3800 
Q 1350 4575 1475 5200 
L 2025 4900 
L 1825 4775 
Q 1425 3825 1300 3525 
L 1650 3375 
L 1450 3200 
L 1450 525 
Q 1450 100 1475 -425 
L 1100 -600 
z
" transform="scale(0.015625)"/>
       <path id="SimSun-6240" d="M 5150 450 
Q 5150 125 5175 -375 
L 4775 -575 
Q 4800 175 4800 800 
L 4800 2925 
L 3800 2925 
Q 3825 700 2125 -625 
L 2050 -550 
Q 2600 -50 2987 762 
Q 3375 1575 3400 2262 
Q 3425 2950 3425 3525 
Q 3425 4200 3400 4750 
L 3800 4525 
Q 5200 4875 5525 5175 
L 6000 4700 
Q 5650 4750 3800 4400 
L 3800 3075 
L 5425 3075 
L 5725 3375 
L 6175 2925 
L 5150 2925 
L 5150 450 
z
M 1350 3225 
L 1325 1975 
L 2500 1975 
L 2500 3225 
L 1350 3225 
z
M 2775 5150 
L 3175 4725 
Q 2725 4725 1350 4375 
L 1350 3375 
L 2475 3375 
L 2675 3600 
L 3050 3275 
L 2850 3125 
Q 2850 2050 2875 1600 
L 2500 1450 
L 2500 1825 
L 1325 1825 
Q 1300 450 325 -625 
L 250 -575 
Q 725 150 862 912 
Q 1000 1675 987 2950 
Q 975 4225 950 4750 
L 1350 4525 
Q 1800 4650 2175 4800 
Q 2550 4950 2775 5150 
z
" transform="scale(0.015625)"/>
       <path id="SimSun-9700" d="M 2625 1600 
L 2800 2225 
L 1325 2225 
Q 1125 2225 850 2150 
L 625 2375 
L 5050 2375 
L 5375 2700 
L 5825 2225 
L 3250 2225 
Q 2875 1825 2750 1600 
L 4975 1600 
L 5125 1825 
L 5525 1525 
L 5325 1350 
L 5325 -100 
Q 5325 -475 4875 -600 
Q 4825 -275 4300 -175 
L 4300 -75 
Q 4625 -100 4812 -100 
Q 5000 -100 5000 75 
L 5000 1450 
L 4000 1450 
L 4000 -150 
L 3675 -325 
L 3675 1450 
L 2800 1450 
L 2800 -200 
L 2475 -375 
L 2475 1450 
L 1500 1450 
L 1500 -450 
L 1125 -625 
Q 1150 -100 1150 687 
Q 1150 1475 1125 1800 
L 1500 1600 
L 2625 1600 
z
M 3725 3000 
L 4875 3000 
L 4875 2850 
L 3725 2850 
L 3725 3000 
z
M 3450 2775 
L 3075 2625 
Q 3100 3325 3100 4075 
L 1125 4075 
Q 1175 3825 1100 3637 
Q 1025 3450 850 3437 
Q 675 3425 637 3475 
Q 600 3525 600 3550 
Q 600 3625 725 3750 
Q 900 3925 1025 4450 
L 1100 4450 
L 1125 4225 
L 3100 4225 
L 3100 4700 
L 1875 4700 
Q 1675 4700 1400 4625 
L 1175 4850 
L 4625 4850 
L 4950 5175 
L 5425 4700 
L 3425 4700 
L 3425 4225 
L 5350 4225 
L 5575 4475 
L 6000 4025 
Q 5850 4025 5662 3950 
Q 5475 3875 5150 3450 
L 5075 3500 
L 5375 4075 
L 3425 4075 
Q 3425 2875 3450 2775 
z
M 1500 3600 
L 2625 3600 
L 2625 3450 
L 1500 3450 
L 1500 3600 
z
M 3725 3600 
L 4875 3600 
L 4875 3450 
L 3725 3450 
L 3725 3600 
z
M 1425 3000 
L 2625 3000 
L 2625 2850 
L 1425 2850 
L 1425 3000 
z
" transform="scale(0.015625)"/>
       <path id="SimSun-8d44" d="M 4575 3775 
L 4975 4450 
L 3125 4450 
Q 2700 3900 2150 3550 
L 2100 3600 
Q 2500 3975 2750 4387 
Q 3000 4800 3150 5250 
L 3625 5000 
L 3425 4900 
L 3175 4600 
L 4950 4600 
L 5150 4875 
L 5600 4475 
Q 5250 4425 4650 3725 
L 4575 3775 
z
M 3575 4225 
L 4100 4000 
L 3925 3900 
L 3900 3800 
Q 4525 2875 5925 2700 
L 5925 2625 
Q 5475 2575 5375 2300 
Q 4250 2850 3825 3675 
Q 3400 2600 1475 2400 
L 1450 2475 
Q 2650 2750 3112 3200 
Q 3575 3650 3575 4225 
z
M 850 5025 
Q 1525 4900 1625 4775 
Q 1725 4650 1725 4575 
Q 1725 4500 1662 4362 
Q 1600 4225 1550 4225 
Q 1475 4225 1400 4400 
Q 1225 4675 800 4950 
L 850 5025 
z
M 2425 4775 
L 2500 4725 
Q 1900 4000 1650 3687 
Q 1400 3375 1337 3137 
Q 1275 2900 1275 2550 
Q 1275 2300 1150 2300 
Q 1125 2300 975 2387 
Q 825 2475 825 2600 
Q 825 2700 875 2800 
Q 975 3050 1012 3212 
Q 1050 3375 525 3550 
L 550 3625 
Q 925 3575 1012 3587 
Q 1100 3600 1262 3675 
Q 1425 3750 2425 4775 
z
M 1425 400 
Q 1450 1025 1450 1462 
Q 1450 1900 1425 2400 
L 1775 2250 
L 4425 2250 
L 4575 2475 
L 4975 2200 
L 4775 2025 
Q 4775 1175 4800 725 
L 4450 550 
L 4450 2100 
L 1775 2100 
L 1775 550 
L 1425 400 
z
M 2950 1850 
L 3575 1525 
L 3325 1350 
Q 3225 575 2950 262 
Q 2675 -50 2100 -262 
Q 1525 -475 550 -600 
L 525 -525 
Q 1150 -400 1750 -162 
Q 2350 75 2575 350 
Q 2800 625 2875 962 
Q 2950 1300 2950 1850 
z
M 3250 350 
L 3250 450 
Q 4200 300 4750 175 
Q 5300 50 5400 -112 
Q 5500 -275 5487 -437 
Q 5475 -600 5400 -600 
Q 5325 -600 5150 -475 
Q 4825 -250 4375 -50 
Q 3925 150 3250 350 
z
" transform="scale(0.015625)"/>
       <path id="SimSun-6e90" d="M 3575 3525 
L 3575 2800 
L 5225 2800 
L 5225 3525 
L 3575 3525 
z
M 3575 2650 
L 3575 1900 
L 5225 1900 
L 5225 2650 
L 3575 2650 
z
M 3375 1325 
L 3825 975 
Q 3550 850 3250 500 
Q 2925 150 2275 -325 
L 2225 -250 
Q 3125 625 3375 1325 
z
M 4800 1150 
L 4850 1225 
Q 5675 700 5812 525 
Q 5950 350 5950 200 
Q 5950 75 5875 -87 
Q 5800 -250 5750 -250 
Q 5675 -250 5550 50 
Q 5375 475 4800 1150 
z
M 3225 1475 
Q 3250 2125 3250 2700 
Q 3250 3275 3225 3875 
L 3575 3675 
L 3925 3675 
Q 4175 4250 4225 4550 
L 2700 4550 
Q 2700 3525 2687 2575 
Q 2675 1625 2325 875 
Q 1975 125 1275 -550 
L 1225 -475 
Q 1850 300 2100 1112 
Q 2350 1925 2350 3112 
Q 2350 4300 2325 4950 
L 2700 4700 
L 5300 4700 
L 5650 5050 
L 6125 4550 
L 4350 4550 
L 4750 4325 
Q 4550 4250 4437 4137 
Q 4325 4025 4075 3675 
L 5200 3675 
L 5375 3925 
L 5750 3600 
L 5550 3425 
Q 5550 1875 5575 1675 
L 5225 1500 
L 5225 1750 
L 4575 1750 
L 4575 100 
Q 4600 -400 4050 -550 
Q 4025 -200 3450 -75 
L 3450 25 
Q 3775 0 4000 -12 
Q 4225 -25 4225 175 
L 4225 1750 
L 3575 1750 
L 3575 1625 
L 3225 1475 
z
M 2150 4250 
Q 1375 1525 1312 1200 
Q 1250 875 1237 425 
Q 1225 -25 1250 -200 
Q 1250 -300 1150 -300 
Q 1075 -300 912 -237 
Q 750 -175 750 25 
Q 750 200 800 375 
Q 875 625 875 775 
Q 875 925 762 1025 
Q 650 1125 275 1225 
L 275 1325 
Q 725 1275 837 1287 
Q 950 1300 1087 1512 
Q 1225 1725 2050 4275 
L 2150 4250 
z
M 275 3575 
Q 1150 3175 1150 2925 
Q 1150 2675 1050 2562 
Q 950 2450 900 2450 
Q 825 2450 750 2700 
Q 625 3025 225 3500 
L 275 3575 
z
M 825 5025 
Q 1550 4725 1625 4512 
Q 1700 4300 1587 4137 
Q 1475 3975 1425 3975 
Q 1325 3975 1275 4175 
Q 1150 4500 775 4950 
L 825 5025 
z
" transform="scale(0.015625)"/>
      </defs>
      <use xlink:href="#SimSun-5b9e"/>
      <use xlink:href="#SimSun-4f8b" x="100"/>
      <use xlink:href="#SimSun-6240" x="200"/>
      <use xlink:href="#SimSun-9700" x="300"/>
      <use xlink:href="#SimSun-8d44" x="400"/>
      <use xlink:href="#SimSun-6e90" x="500"/>
     </g>
    </g>
    <g id="line2d_30">
     <path d="M 633.98 62.496875 
L 653.98 62.496875 
L 673.98 62.496875 
" style="fill: none; stroke: #ff7f0e; stroke-width: 1.5; stroke-linecap: square"/>
    </g>
    <g id="text_16">
     <!-- 实例扩容资源 -->
     <g transform="translate(689.98 69.496875) scale(0.2 -0.2)">
      <defs>
       <path id="SimSun-6269" d="M 3925 5100 
Q 4525 4800 4662 4675 
Q 4800 4550 4787 4387 
Q 4775 4225 4687 4150 
Q 4600 4075 4550 4075 
Q 4450 4075 4375 4300 
Q 4250 4600 3850 5025 
L 3925 5100 
z
M 3325 3950 
L 5300 3950 
L 5625 4275 
L 6100 3800 
L 3325 3800 
Q 3350 2075 3175 1150 
Q 3000 225 2000 -625 
L 1925 -550 
Q 2650 150 2837 1100 
Q 3025 2050 2950 4175 
L 3325 3950 
z
M 250 1975 
Q 625 2050 1450 2350 
L 1450 3600 
L 775 3600 
L 475 3550 
L 275 3750 
L 1450 3750 
Q 1450 4575 1425 5200 
L 2025 4925 
L 1800 4750 
L 1800 3750 
L 2100 3750 
L 2400 4050 
L 2850 3600 
L 1800 3600 
L 1800 2450 
L 2725 2800 
L 2775 2700 
L 1800 2225 
L 1800 50 
Q 1775 -350 1250 -575 
Q 1300 -275 500 0 
L 500 100 
Q 1125 0 1287 12 
Q 1450 25 1450 300 
L 1450 2075 
Q 600 1675 575 1500 
L 250 1975 
z
" transform="scale(0.015625)"/>
       <path id="SimSun-5bb9" d="M 2125 3950 
L 2575 3550 
Q 2375 3550 1925 3150 
Q 1475 2725 675 2325 
L 625 2400 
Q 1650 3100 2125 3950 
z
M 3675 3800 
Q 4750 3425 5075 3225 
Q 5400 3025 5350 2750 
Q 5300 2475 5200 2475 
Q 5100 2475 4950 2700 
Q 4650 3100 3625 3725 
L 3675 3800 
z
M 3100 3525 
L 3575 3150 
L 3300 3000 
Q 4000 2225 4700 1912 
Q 5400 1600 6075 1550 
L 6075 1450 
Q 5700 1375 5575 1075 
Q 4900 1325 4275 1800 
Q 3650 2275 3225 2900 
Q 2650 2150 2000 1625 
L 2200 1425 
L 4175 1425 
L 4375 1650 
L 4800 1300 
L 4575 1150 
Q 4575 -25 4600 -425 
L 4225 -600 
L 4225 -250 
L 2200 -250 
L 2200 -450 
L 1825 -625 
Q 1850 -125 1850 1525 
Q 1225 1075 350 825 
L 325 900 
Q 1075 1250 1562 1637 
Q 2050 2025 2450 2512 
Q 2850 3000 3100 3525 
z
M 2200 1275 
L 2200 -100 
L 4225 -100 
L 4225 1275 
L 2200 1275 
z
M 2625 5175 
L 2675 5250 
Q 3150 5100 3325 4987 
Q 3500 4875 3500 4725 
Q 3500 4625 3425 4475 
Q 3350 4325 3300 4325 
Q 3225 4325 3150 4525 
Q 3000 4825 2625 5175 
z
M 5000 3575 
L 5300 4150 
L 1150 4150 
Q 1200 3800 1087 3600 
Q 975 3400 775 3425 
Q 575 3450 575 3525 
Q 575 3625 700 3775 
Q 925 4075 1025 4600 
L 1125 4600 
L 1150 4300 
L 5275 4300 
L 5500 4550 
L 5950 4075 
Q 5600 4075 5075 3525 
L 5000 3575 
z
" transform="scale(0.015625)"/>
      </defs>
      <use xlink:href="#SimSun-5b9e"/>
      <use xlink:href="#SimSun-4f8b" x="100"/>
      <use xlink:href="#SimSun-6269" x="200"/>
      <use xlink:href="#SimSun-5bb9" x="300"/>
      <use xlink:href="#SimSun-8d44" x="400"/>
      <use xlink:href="#SimSun-6e90" x="500"/>
     </g>
    </g>
   </g>
  </g>
 </g>
 <defs>
  <clipPath id="p4303425461">
   <rect x="39.2" y="7.2" width="788.78" height="484.61875"/>
  </clipPath>
 </defs>
</svg>
