<?xml version="1.0" encoding="utf-8" standalone="no"?>
<!DOCTYPE svg PUBLIC "-//W3C//DTD SVG 1.1//EN"
  "http://www.w3.org/Graphics/SVG/1.1/DTD/svg11.dtd">
<svg xmlns:xlink="http://www.w3.org/1999/xlink" width="834.859375pt" height="546.645625pt" viewBox="0 0 834.859375 546.645625" xmlns="http://www.w3.org/2000/svg" version="1.1">
 <metadata>
  <rdf:RDF xmlns:dc="http://purl.org/dc/elements/1.1/" xmlns:cc="http://creativecommons.org/ns#" xmlns:rdf="http://www.w3.org/1999/02/22-rdf-syntax-ns#">
   <cc:Work>
    <dc:type rdf:resource="http://purl.org/dc/dcmitype/StillImage"/>
    <dc:date>2024-05-24T09:35:08.177781</dc:date>
    <dc:format>image/svg+xml</dc:format>
    <dc:creator>
     <cc:Agent>
      <dc:title>Matplotlib v3.7.1, https://matplotlib.org/</dc:title>
     </cc:Agent>
    </dc:creator>
   </cc:Work>
  </rdf:RDF>
 </metadata>
 <defs>
  <style type="text/css">*{stroke-linejoin: round; stroke-linecap: butt}</style>
 </defs>
 <g id="figure_1">
  <g id="patch_1">
   <path d="M 0 546.645625 
L 834.859375 546.645625 
L 834.859375 0 
L 0 0 
z
" style="fill: #ffffff"/>
  </g>
  <g id="axes_1">
   <g id="patch_2">
    <path d="M 46.715625 514.28 
L 827.659375 514.28 
L 827.659375 7.2 
L 46.715625 7.2 
z
" style="fill: #ffffff"/>
   </g>
   <g id="line2d_1">
    <path d="M 82.213068 491.230909 
L 88.179025 491.230909 
L 94.144982 491.230909 
L 100.110939 491.230909 
L 106.076896 491.230909 
L 112.042852 491.230909 
L 118.008809 491.230909 
L 123.974766 491.230909 
L 129.940723 491.230909 
L 135.90668 491.230909 
L 141.872637 491.230909 
L 147.838593 491.230909 
L 153.80455 491.230909 
L 159.770507 491.230909 
L 165.736464 491.230909 
L 171.702421 491.230909 
L 177.668378 399.034545 
L 183.634334 399.034545 
L 189.600291 399.034545 
L 195.566248 399.034545 
L 201.532205 399.034545 
L 207.498162 399.034545 
L 213.464119 399.034545 
L 219.430075 306.838182 
L 225.396032 214.641818 
L 231.361989 214.641818 
L 237.327946 122.445455 
L 243.293903 30.249091 
L 249.25986 30.249091 
L 255.225816 30.249091 
L 261.191773 30.249091 
L 267.15773 30.249091 
L 273.123687 30.249091 
L 279.089644 214.641818 
L 285.055601 214.641818 
L 291.021557 214.641818 
L 296.987514 214.641818 
L 302.953471 214.641818 
L 308.919428 214.641818 
L 314.885385 214.641818 
L 320.851342 214.641818 
L 326.817299 214.641818 
L 332.783255 306.838182 
L 338.749212 306.838182 
L 344.715169 306.838182 
L 350.681126 306.838182 
L 356.647083 306.838182 
L 362.61304 306.838182 
L 368.578996 399.034545 
L 374.544953 399.034545 
L 380.51091 399.034545 
L 386.476867 399.034545 
L 392.442824 399.034545 
L 398.408781 399.034545 
L 404.374737 399.034545 
L 410.340694 399.034545 
L 416.306651 491.230909 
L 422.272608 491.230909 
L 428.238565 491.230909 
L 434.204522 491.230909 
L 440.170478 491.230909 
L 446.136435 491.230909 
L 452.102392 491.230909 
L 458.068349 491.230909 
L 464.034306 491.230909 
L 470.000263 491.230909 
L 475.966219 491.230909 
L 481.932176 491.230909 
L 487.898133 491.230909 
L 493.86409 491.230909 
L 499.830047 491.230909 
L 505.796004 491.230909 
L 511.76196 491.230909 
L 517.727917 399.034545 
L 523.693874 399.034545 
L 529.659831 399.034545 
L 535.625788 399.034545 
L 541.591745 399.034545 
L 547.557701 399.034545 
L 553.523658 399.034545 
L 559.489615 399.034545 
L 565.455572 399.034545 
L 571.421529 399.034545 
L 577.387486 399.034545 
L 583.353443 306.838182 
L 589.319399 306.838182 
L 595.285356 214.641818 
L 601.251313 214.641818 
L 607.21727 122.445455 
L 613.183227 122.445455 
L 619.149184 122.445455 
L 625.11514 122.445455 
L 631.081097 122.445455 
L 637.047054 122.445455 
L 643.013011 122.445455 
L 648.978968 214.641818 
L 654.944925 214.641818 
L 660.910881 214.641818 
L 666.876838 214.641818 
L 672.842795 214.641818 
L 678.808752 214.641818 
L 684.774709 306.838182 
L 690.740666 306.838182 
L 696.706622 306.838182 
L 702.672579 306.838182 
L 708.638536 306.838182 
L 714.604493 306.838182 
L 720.57045 306.838182 
L 726.536407 306.838182 
L 732.502363 306.838182 
L 738.46832 306.838182 
L 744.434277 399.034545 
L 750.400234 399.034545 
L 756.366191 399.034545 
L 762.332148 399.034545 
L 768.298104 399.034545 
L 774.264061 399.034545 
L 780.230018 399.034545 
L 786.195975 399.034545 
L 792.161932 399.034545 
" clip-path="url(#p2d1bbae9ad)" style="fill: none; stroke: #2ca02c; stroke-width: 1.5; stroke-linecap: square"/>
   </g>
   <g id="matplotlib.axis_1">
    <g id="xtick_1">
     <g id="line2d_2">
      <path d="M 82.213068 514.28 
L 82.213068 7.2 
" clip-path="url(#p2d1bbae9ad)" style="fill: none; stroke: #b0b0b0; stroke-width: 0.8; stroke-linecap: square"/>
     </g>
     <g id="line2d_3">
      <defs>
       <path id="mf8224a78b4" d="M 0 0 
L 0 3.5 
" style="stroke: #000000; stroke-width: 0.8"/>
      </defs>
      <g>
       <use xlink:href="#mf8224a78b4" x="82.213068" y="514.28" style="stroke: #000000; stroke-width: 0.8"/>
      </g>
     </g>
     <g id="text_1">
      <!-- 0 -->
      <g transform="translate(77.213068 535.1675) scale(0.2 -0.2)">
       <defs>
        <path id="TimesNewRomanPSMT-30" d="M 231 2094 
Q 231 2819 450 3342 
Q 669 3866 1031 4122 
Q 1313 4325 1613 4325 
Q 2100 4325 2488 3828 
Q 2972 3213 2972 2159 
Q 2972 1422 2759 906 
Q 2547 391 2217 158 
Q 1888 -75 1581 -75 
Q 975 -75 572 641 
Q 231 1244 231 2094 
z
M 844 2016 
Q 844 1141 1059 588 
Q 1238 122 1591 122 
Q 1759 122 1940 273 
Q 2122 425 2216 781 
Q 2359 1319 2359 2297 
Q 2359 3022 2209 3506 
Q 2097 3866 1919 4016 
Q 1791 4119 1609 4119 
Q 1397 4119 1231 3928 
Q 1006 3669 925 3112 
Q 844 2556 844 2016 
z
" transform="scale(0.015625)"/>
       </defs>
       <use xlink:href="#TimesNewRomanPSMT-30"/>
      </g>
     </g>
    </g>
    <g id="xtick_2">
     <g id="line2d_4">
      <path d="M 171.702421 514.28 
L 171.702421 7.2 
" clip-path="url(#p2d1bbae9ad)" style="fill: none; stroke: #b0b0b0; stroke-width: 0.8; stroke-linecap: square"/>
     </g>
     <g id="line2d_5">
      <g>
       <use xlink:href="#mf8224a78b4" x="171.702421" y="514.28" style="stroke: #000000; stroke-width: 0.8"/>
      </g>
     </g>
     <g id="text_2">
      <!-- 15 -->
      <g transform="translate(161.702421 535.1675) scale(0.2 -0.2)">
       <defs>
        <path id="TimesNewRomanPSMT-31" d="M 750 3822 
L 1781 4325 
L 1884 4325 
L 1884 747 
Q 1884 391 1914 303 
Q 1944 216 2037 169 
Q 2131 122 2419 116 
L 2419 0 
L 825 0 
L 825 116 
Q 1125 122 1212 167 
Q 1300 213 1334 289 
Q 1369 366 1369 747 
L 1369 3034 
Q 1369 3497 1338 3628 
Q 1316 3728 1258 3775 
Q 1200 3822 1119 3822 
Q 1003 3822 797 3725 
L 750 3822 
z
" transform="scale(0.015625)"/>
        <path id="TimesNewRomanPSMT-35" d="M 2778 4238 
L 2534 3706 
L 1259 3706 
L 981 3138 
Q 1809 3016 2294 2522 
Q 2709 2097 2709 1522 
Q 2709 1188 2573 903 
Q 2438 619 2231 419 
Q 2025 219 1772 97 
Q 1413 -75 1034 -75 
Q 653 -75 479 54 
Q 306 184 306 341 
Q 306 428 378 495 
Q 450 563 559 563 
Q 641 563 702 538 
Q 763 513 909 409 
Q 1144 247 1384 247 
Q 1750 247 2026 523 
Q 2303 800 2303 1197 
Q 2303 1581 2056 1914 
Q 1809 2247 1375 2428 
Q 1034 2569 447 2591 
L 1259 4238 
L 2778 4238 
z
" transform="scale(0.015625)"/>
       </defs>
       <use xlink:href="#TimesNewRomanPSMT-31"/>
       <use xlink:href="#TimesNewRomanPSMT-35" x="50"/>
      </g>
     </g>
    </g>
    <g id="xtick_3">
     <g id="line2d_6">
      <path d="M 261.191773 514.28 
L 261.191773 7.2 
" clip-path="url(#p2d1bbae9ad)" style="fill: none; stroke: #b0b0b0; stroke-width: 0.8; stroke-linecap: square"/>
     </g>
     <g id="line2d_7">
      <g>
       <use xlink:href="#mf8224a78b4" x="261.191773" y="514.28" style="stroke: #000000; stroke-width: 0.8"/>
      </g>
     </g>
     <g id="text_3">
      <!-- 30 -->
      <g transform="translate(251.191773 535.1675) scale(0.2 -0.2)">
       <defs>
        <path id="TimesNewRomanPSMT-33" d="M 325 3431 
Q 506 3859 782 4092 
Q 1059 4325 1472 4325 
Q 1981 4325 2253 3994 
Q 2459 3747 2459 3466 
Q 2459 3003 1878 2509 
Q 2269 2356 2469 2072 
Q 2669 1788 2669 1403 
Q 2669 853 2319 450 
Q 1863 -75 997 -75 
Q 569 -75 414 31 
Q 259 138 259 259 
Q 259 350 332 419 
Q 406 488 509 488 
Q 588 488 669 463 
Q 722 447 909 348 
Q 1097 250 1169 231 
Q 1284 197 1416 197 
Q 1734 197 1970 444 
Q 2206 691 2206 1028 
Q 2206 1275 2097 1509 
Q 2016 1684 1919 1775 
Q 1784 1900 1550 2001 
Q 1316 2103 1072 2103 
L 972 2103 
L 972 2197 
Q 1219 2228 1467 2375 
Q 1716 2522 1828 2728 
Q 1941 2934 1941 3181 
Q 1941 3503 1739 3701 
Q 1538 3900 1238 3900 
Q 753 3900 428 3381 
L 325 3431 
z
" transform="scale(0.015625)"/>
       </defs>
       <use xlink:href="#TimesNewRomanPSMT-33"/>
       <use xlink:href="#TimesNewRomanPSMT-30" x="50"/>
      </g>
     </g>
    </g>
    <g id="xtick_4">
     <g id="line2d_8">
      <path d="M 350.681126 514.28 
L 350.681126 7.2 
" clip-path="url(#p2d1bbae9ad)" style="fill: none; stroke: #b0b0b0; stroke-width: 0.8; stroke-linecap: square"/>
     </g>
     <g id="line2d_9">
      <g>
       <use xlink:href="#mf8224a78b4" x="350.681126" y="514.28" style="stroke: #000000; stroke-width: 0.8"/>
      </g>
     </g>
     <g id="text_4">
      <!-- 45 -->
      <g transform="translate(340.681126 535.1675) scale(0.2 -0.2)">
       <defs>
        <path id="TimesNewRomanPSMT-34" d="M 2978 1563 
L 2978 1119 
L 2409 1119 
L 2409 0 
L 1894 0 
L 1894 1119 
L 100 1119 
L 100 1519 
L 2066 4325 
L 2409 4325 
L 2409 1563 
L 2978 1563 
z
M 1894 1563 
L 1894 3666 
L 406 1563 
L 1894 1563 
z
" transform="scale(0.015625)"/>
       </defs>
       <use xlink:href="#TimesNewRomanPSMT-34"/>
       <use xlink:href="#TimesNewRomanPSMT-35" x="50"/>
      </g>
     </g>
    </g>
    <g id="xtick_5">
     <g id="line2d_10">
      <path d="M 440.170478 514.28 
L 440.170478 7.2 
" clip-path="url(#p2d1bbae9ad)" style="fill: none; stroke: #b0b0b0; stroke-width: 0.8; stroke-linecap: square"/>
     </g>
     <g id="line2d_11">
      <g>
       <use xlink:href="#mf8224a78b4" x="440.170478" y="514.28" style="stroke: #000000; stroke-width: 0.8"/>
      </g>
     </g>
     <g id="text_5">
      <!-- 60 -->
      <g transform="translate(430.170478 535.1675) scale(0.2 -0.2)">
       <defs>
        <path id="TimesNewRomanPSMT-36" d="M 2869 4325 
L 2869 4209 
Q 2456 4169 2195 4045 
Q 1934 3922 1679 3669 
Q 1425 3416 1258 3105 
Q 1091 2794 978 2366 
Q 1428 2675 1881 2675 
Q 2316 2675 2634 2325 
Q 2953 1975 2953 1425 
Q 2953 894 2631 456 
Q 2244 -75 1606 -75 
Q 1172 -75 869 213 
Q 275 772 275 1663 
Q 275 2231 503 2743 
Q 731 3256 1154 3653 
Q 1578 4050 1965 4187 
Q 2353 4325 2688 4325 
L 2869 4325 
z
M 925 2138 
Q 869 1716 869 1456 
Q 869 1156 980 804 
Q 1091 453 1309 247 
Q 1469 100 1697 100 
Q 1969 100 2183 356 
Q 2397 613 2397 1088 
Q 2397 1622 2184 2012 
Q 1972 2403 1581 2403 
Q 1463 2403 1327 2353 
Q 1191 2303 925 2138 
z
" transform="scale(0.015625)"/>
       </defs>
       <use xlink:href="#TimesNewRomanPSMT-36"/>
       <use xlink:href="#TimesNewRomanPSMT-30" x="50"/>
      </g>
     </g>
    </g>
    <g id="xtick_6">
     <g id="line2d_12">
      <path d="M 529.659831 514.28 
L 529.659831 7.2 
" clip-path="url(#p2d1bbae9ad)" style="fill: none; stroke: #b0b0b0; stroke-width: 0.8; stroke-linecap: square"/>
     </g>
     <g id="line2d_13">
      <g>
       <use xlink:href="#mf8224a78b4" x="529.659831" y="514.28" style="stroke: #000000; stroke-width: 0.8"/>
      </g>
     </g>
     <g id="text_6">
      <!-- 75 -->
      <g transform="translate(519.659831 535.1675) scale(0.2 -0.2)">
       <defs>
        <path id="TimesNewRomanPSMT-37" d="M 644 4238 
L 2916 4238 
L 2916 4119 
L 1503 -88 
L 1153 -88 
L 2419 3728 
L 1253 3728 
Q 900 3728 750 3644 
Q 488 3500 328 3200 
L 238 3234 
L 644 4238 
z
" transform="scale(0.015625)"/>
       </defs>
       <use xlink:href="#TimesNewRomanPSMT-37"/>
       <use xlink:href="#TimesNewRomanPSMT-35" x="50"/>
      </g>
     </g>
    </g>
    <g id="xtick_7">
     <g id="line2d_14">
      <path d="M 619.149184 514.28 
L 619.149184 7.2 
" clip-path="url(#p2d1bbae9ad)" style="fill: none; stroke: #b0b0b0; stroke-width: 0.8; stroke-linecap: square"/>
     </g>
     <g id="line2d_15">
      <g>
       <use xlink:href="#mf8224a78b4" x="619.149184" y="514.28" style="stroke: #000000; stroke-width: 0.8"/>
      </g>
     </g>
     <g id="text_7">
      <!-- 90 -->
      <g transform="translate(609.149184 535.1675) scale(0.2 -0.2)">
       <defs>
        <path id="TimesNewRomanPSMT-39" d="M 338 -88 
L 338 28 
Q 744 34 1094 217 
Q 1444 400 1770 856 
Q 2097 1313 2225 1859 
Q 1734 1544 1338 1544 
Q 891 1544 572 1889 
Q 253 2234 253 2806 
Q 253 3363 572 3797 
Q 956 4325 1575 4325 
Q 2097 4325 2469 3894 
Q 2925 3359 2925 2575 
Q 2925 1869 2578 1258 
Q 2231 647 1613 244 
Q 1109 -88 516 -88 
L 338 -88 
z
M 2275 2091 
Q 2331 2497 2331 2741 
Q 2331 3044 2228 3395 
Q 2125 3747 1936 3934 
Q 1747 4122 1506 4122 
Q 1228 4122 1018 3872 
Q 809 3622 809 3128 
Q 809 2469 1088 2097 
Q 1291 1828 1588 1828 
Q 1731 1828 1928 1897 
Q 2125 1966 2275 2091 
z
" transform="scale(0.015625)"/>
       </defs>
       <use xlink:href="#TimesNewRomanPSMT-39"/>
       <use xlink:href="#TimesNewRomanPSMT-30" x="50"/>
      </g>
     </g>
    </g>
    <g id="xtick_8">
     <g id="line2d_16">
      <path d="M 708.638536 514.28 
L 708.638536 7.2 
" clip-path="url(#p2d1bbae9ad)" style="fill: none; stroke: #b0b0b0; stroke-width: 0.8; stroke-linecap: square"/>
     </g>
     <g id="line2d_17">
      <g>
       <use xlink:href="#mf8224a78b4" x="708.638536" y="514.28" style="stroke: #000000; stroke-width: 0.8"/>
      </g>
     </g>
     <g id="text_8">
      <!-- 105 -->
      <g transform="translate(693.638536 535.1675) scale(0.2 -0.2)">
       <use xlink:href="#TimesNewRomanPSMT-31"/>
       <use xlink:href="#TimesNewRomanPSMT-30" x="50"/>
       <use xlink:href="#TimesNewRomanPSMT-35" x="100"/>
      </g>
     </g>
    </g>
    <g id="xtick_9">
     <g id="line2d_18">
      <path d="M 798.127889 514.28 
L 798.127889 7.2 
" clip-path="url(#p2d1bbae9ad)" style="fill: none; stroke: #b0b0b0; stroke-width: 0.8; stroke-linecap: square"/>
     </g>
     <g id="line2d_19">
      <g>
       <use xlink:href="#mf8224a78b4" x="798.127889" y="514.28" style="stroke: #000000; stroke-width: 0.8"/>
      </g>
     </g>
     <g id="text_9">
      <!-- 120 -->
      <g transform="translate(783.127889 535.1675) scale(0.2 -0.2)">
       <defs>
        <path id="TimesNewRomanPSMT-32" d="M 2934 816 
L 2638 0 
L 138 0 
L 138 116 
Q 1241 1122 1691 1759 
Q 2141 2397 2141 2925 
Q 2141 3328 1894 3587 
Q 1647 3847 1303 3847 
Q 991 3847 742 3664 
Q 494 3481 375 3128 
L 259 3128 
Q 338 3706 661 4015 
Q 984 4325 1469 4325 
Q 1984 4325 2329 3994 
Q 2675 3663 2675 3213 
Q 2675 2891 2525 2569 
Q 2294 2063 1775 1497 
Q 997 647 803 472 
L 1909 472 
Q 2247 472 2383 497 
Q 2519 522 2628 598 
Q 2738 675 2819 816 
L 2934 816 
z
" transform="scale(0.015625)"/>
       </defs>
       <use xlink:href="#TimesNewRomanPSMT-31"/>
       <use xlink:href="#TimesNewRomanPSMT-32" x="50"/>
       <use xlink:href="#TimesNewRomanPSMT-30" x="100"/>
      </g>
     </g>
    </g>
   </g>
   <g id="matplotlib.axis_2">
    <g id="ytick_1">
     <g id="line2d_20">
      <path d="M 46.715625 491.230909 
L 827.659375 491.230909 
" clip-path="url(#p2d1bbae9ad)" style="fill: none; stroke: #b0b0b0; stroke-width: 0.8; stroke-linecap: square"/>
     </g>
     <g id="line2d_21">
      <defs>
       <path id="mce9dbfabe5" d="M 0 0 
L -3.5 0 
" style="stroke: #000000; stroke-width: 0.8"/>
      </defs>
      <g>
       <use xlink:href="#mce9dbfabe5" x="46.715625" y="491.230909" style="stroke: #000000; stroke-width: 0.8"/>
      </g>
     </g>
     <g id="text_10">
      <!-- 1 -->
      <g transform="translate(29.715625 498.174659) scale(0.2 -0.2)">
       <use xlink:href="#TimesNewRomanPSMT-31"/>
      </g>
     </g>
    </g>
    <g id="ytick_2">
     <g id="line2d_22">
      <path d="M 46.715625 399.034545 
L 827.659375 399.034545 
" clip-path="url(#p2d1bbae9ad)" style="fill: none; stroke: #b0b0b0; stroke-width: 0.8; stroke-linecap: square"/>
     </g>
     <g id="line2d_23">
      <g>
       <use xlink:href="#mce9dbfabe5" x="46.715625" y="399.034545" style="stroke: #000000; stroke-width: 0.8"/>
      </g>
     </g>
     <g id="text_11">
      <!-- 2 -->
      <g transform="translate(29.715625 405.978295) scale(0.2 -0.2)">
       <use xlink:href="#TimesNewRomanPSMT-32"/>
      </g>
     </g>
    </g>
    <g id="ytick_3">
     <g id="line2d_24">
      <path d="M 46.715625 306.838182 
L 827.659375 306.838182 
" clip-path="url(#p2d1bbae9ad)" style="fill: none; stroke: #b0b0b0; stroke-width: 0.8; stroke-linecap: square"/>
     </g>
     <g id="line2d_25">
      <g>
       <use xlink:href="#mce9dbfabe5" x="46.715625" y="306.838182" style="stroke: #000000; stroke-width: 0.8"/>
      </g>
     </g>
     <g id="text_12">
      <!-- 3 -->
      <g transform="translate(29.715625 313.781932) scale(0.2 -0.2)">
       <use xlink:href="#TimesNewRomanPSMT-33"/>
      </g>
     </g>
    </g>
    <g id="ytick_4">
     <g id="line2d_26">
      <path d="M 46.715625 214.641818 
L 827.659375 214.641818 
" clip-path="url(#p2d1bbae9ad)" style="fill: none; stroke: #b0b0b0; stroke-width: 0.8; stroke-linecap: square"/>
     </g>
     <g id="line2d_27">
      <g>
       <use xlink:href="#mce9dbfabe5" x="46.715625" y="214.641818" style="stroke: #000000; stroke-width: 0.8"/>
      </g>
     </g>
     <g id="text_13">
      <!-- 4 -->
      <g transform="translate(29.715625 221.585568) scale(0.2 -0.2)">
       <use xlink:href="#TimesNewRomanPSMT-34"/>
      </g>
     </g>
    </g>
    <g id="ytick_5">
     <g id="line2d_28">
      <path d="M 46.715625 122.445455 
L 827.659375 122.445455 
" clip-path="url(#p2d1bbae9ad)" style="fill: none; stroke: #b0b0b0; stroke-width: 0.8; stroke-linecap: square"/>
     </g>
     <g id="line2d_29">
      <g>
       <use xlink:href="#mce9dbfabe5" x="46.715625" y="122.445455" style="stroke: #000000; stroke-width: 0.8"/>
      </g>
     </g>
     <g id="text_14">
      <!-- 5 -->
      <g transform="translate(29.715625 129.389205) scale(0.2 -0.2)">
       <use xlink:href="#TimesNewRomanPSMT-35"/>
      </g>
     </g>
    </g>
    <g id="ytick_6">
     <g id="line2d_30">
      <path d="M 46.715625 30.249091 
L 827.659375 30.249091 
" clip-path="url(#p2d1bbae9ad)" style="fill: none; stroke: #b0b0b0; stroke-width: 0.8; stroke-linecap: square"/>
     </g>
     <g id="line2d_31">
      <g>
       <use xlink:href="#mce9dbfabe5" x="46.715625" y="30.249091" style="stroke: #000000; stroke-width: 0.8"/>
      </g>
     </g>
     <g id="text_15">
      <!-- 6 -->
      <g transform="translate(29.715625 37.192841) scale(0.2 -0.2)">
       <use xlink:href="#TimesNewRomanPSMT-36"/>
      </g>
     </g>
    </g>
    <g id="text_16">
     <!-- 实例数 -->
     <g transform="translate(23.1375 290.74) rotate(-90) scale(0.2 -0.2)">
      <defs>
       <path id="SimSun-5b9e" d="M 1950 3625 
Q 2575 3400 2700 3250 
Q 2825 3100 2825 2975 
Q 2825 2850 2750 2700 
Q 2675 2550 2625 2550 
Q 2550 2550 2450 2800 
Q 2275 3175 1900 3550 
L 1950 3625 
z
M 3575 1325 
Q 3500 1100 3425 925 
Q 4650 550 5087 325 
Q 5525 100 5512 -225 
Q 5500 -550 5400 -550 
Q 5300 -550 5075 -300 
Q 4625 175 3375 800 
Q 3025 175 2300 -150 
Q 1575 -475 425 -625 
L 425 -525 
Q 1475 -325 2200 100 
Q 2925 525 3200 1325 
L 1225 1325 
Q 900 1325 625 1250 
L 400 1475 
L 3225 1475 
Q 3325 1950 3375 2575 
Q 3425 3200 3425 3700 
L 4050 3400 
L 3850 3225 
Q 3750 2300 3625 1475 
L 5175 1475 
L 5550 1850 
L 6075 1325 
L 3575 1325 
z
M 1275 2700 
Q 1975 2425 2100 2262 
Q 2225 2100 2225 1975 
Q 2225 1850 2150 1700 
Q 2075 1550 2025 1550 
Q 1950 1550 1850 1800 
Q 1675 2175 1225 2625 
L 1275 2700 
z
M 2750 5225 
L 2825 5275 
Q 3225 5100 3425 4925 
Q 3625 4750 3625 4600 
Q 3625 4450 3512 4300 
Q 3400 4150 3325 4150 
Q 3250 4150 3200 4400 
Q 3100 4775 2750 5225 
z
M 4975 3225 
L 5350 3925 
L 1175 3925 
Q 1225 3525 1125 3300 
Q 1025 3075 787 3100 
Q 550 3125 550 3200 
Q 550 3300 700 3475 
Q 975 3825 1050 4375 
L 1150 4375 
L 1175 4075 
L 5300 4075 
L 5575 4350 
L 6050 3800 
Q 5625 3825 5050 3175 
L 4975 3225 
z
" transform="scale(0.015625)"/>
       <path id="SimSun-4f8b" d="M 3900 3000 
Q 3625 1850 3300 1250 
Q 2975 650 2550 250 
Q 2125 -150 1625 -400 
L 1575 -325 
Q 2175 100 2525 575 
Q 2875 1050 3112 1625 
Q 3350 2200 3550 3075 
L 2700 3075 
Q 2550 2725 2400 2450 
Q 2775 2200 2875 2050 
Q 2975 1900 2975 1825 
Q 2975 1700 2887 1587 
Q 2800 1475 2775 1475 
Q 2700 1475 2650 1725 
Q 2575 2050 2350 2350 
Q 2125 1950 1750 1550 
L 1675 1625 
Q 2100 2200 2362 3012 
Q 2625 3825 2675 4250 
L 2325 4250 
L 2050 4200 
L 1825 4400 
L 3600 4400 
L 3875 4675 
L 4300 4250 
L 3075 4250 
Q 3000 3975 2750 3225 
L 3525 3225 
L 3725 3475 
L 4150 3150 
L 3900 3000 
z
M 4725 2000 
Q 4725 1750 4750 975 
L 4375 800 
Q 4400 1625 4400 1900 
L 4400 3300 
Q 4400 3725 4375 4075 
L 4925 3825 
L 4725 3625 
L 4725 2000 
z
M 5350 3950 
Q 5350 4375 5325 5125 
L 5875 4850 
L 5675 4700 
L 5675 -25 
Q 5700 -425 5175 -600 
Q 5150 -275 4400 -125 
L 4425 0 
Q 5050 -100 5200 -62 
Q 5350 -25 5350 225 
L 5350 3950 
z
M 1100 -600 
Q 1125 225 1125 575 
L 1125 3150 
Q 625 2375 325 2050 
L 250 2100 
Q 800 3025 1075 3800 
Q 1350 4575 1475 5200 
L 2025 4900 
L 1825 4775 
Q 1425 3825 1300 3525 
L 1650 3375 
L 1450 3200 
L 1450 525 
Q 1450 100 1475 -425 
L 1100 -600 
z
" transform="scale(0.015625)"/>
       <path id="SimSun-6570" d="M 1875 1525 
Q 1675 1200 1500 900 
Q 1825 825 2275 725 
Q 2500 975 2725 1525 
L 1875 1525 
z
M 850 4900 
Q 1325 4600 1425 4450 
Q 1525 4300 1525 4225 
Q 1525 4100 1437 3975 
Q 1350 3850 1300 3850 
Q 1225 3850 1150 4100 
Q 1050 4450 775 4850 
L 850 4900 
z
M 3000 4975 
L 3450 4675 
Q 3250 4625 3100 4425 
Q 2925 4225 2525 3825 
L 2450 3875 
Q 2925 4625 3000 4975 
z
M 1875 5250 
L 2425 5000 
L 2225 4825 
L 2225 3675 
L 2850 3675 
L 3125 3950 
L 3550 3525 
L 2225 3525 
L 2225 3300 
Q 2800 3175 2937 3062 
Q 3075 2950 3075 2775 
Q 3075 2700 3050 2587 
Q 3025 2475 2975 2475 
Q 2925 2475 2800 2650 
Q 2600 2925 2225 3175 
L 2225 2400 
L 1925 2200 
L 2275 2050 
Q 2150 2000 1950 1675 
L 2725 1675 
L 2900 1900 
L 3275 1575 
L 3050 1450 
Q 2800 875 2600 650 
Q 3000 550 3137 437 
Q 3275 325 3275 150 
Q 3275 -25 3200 -25 
Q 3125 -25 3025 75 
Q 2750 275 2400 425 
Q 1525 -275 325 -500 
L 300 -425 
Q 1450 -50 2100 550 
Q 1600 725 1125 800 
Q 1225 950 1525 1525 
L 1200 1525 
Q 875 1525 600 1450 
L 375 1675 
L 1575 1675 
Q 1675 1925 1775 2275 
L 1900 2225 
L 1900 3250 
Q 1225 2475 350 2050 
L 300 2125 
Q 1225 2775 1700 3525 
L 1250 3525 
Q 925 3525 650 3450 
L 425 3675 
L 1900 3675 
Q 1900 4575 1875 5250 
z
M 3925 3525 
Q 4050 2075 4525 1100 
Q 4925 1950 5025 3525 
L 3925 3525 
z
M 4050 5250 
L 4625 4925 
Q 4425 4850 4325 4625 
Q 4225 4400 3950 3675 
L 5375 3675 
L 5675 3975 
L 6125 3525 
L 5400 3525 
Q 5250 1675 4750 775 
Q 5325 75 6100 -100 
L 6100 -200 
Q 5625 -275 5600 -500 
Q 4950 -50 4525 525 
Q 3700 -275 2550 -650 
L 2500 -575 
Q 3650 -50 4325 800 
Q 3850 1975 3825 3375 
Q 3575 2725 3100 2150 
L 3025 2200 
Q 3625 3200 4050 5250 
z
" transform="scale(0.015625)"/>
      </defs>
      <use xlink:href="#SimSun-5b9e"/>
      <use xlink:href="#SimSun-4f8b" x="100"/>
      <use xlink:href="#SimSun-6570" x="200"/>
     </g>
    </g>
   </g>
   <g id="line2d_32">
    <path d="M 82.213068 491.230909 
L 88.179025 491.230909 
L 94.144982 491.230909 
L 100.110939 491.230909 
L 106.076896 491.230909 
L 112.042852 491.230909 
L 118.008809 491.230909 
L 123.974766 491.230909 
L 129.940723 491.230909 
L 135.90668 491.230909 
L 141.872637 491.230909 
L 147.838593 491.230909 
L 153.80455 491.230909 
L 159.770507 491.230909 
L 165.736464 491.230909 
L 171.702421 399.034545 
L 177.668378 399.034545 
L 183.634334 399.034545 
L 189.600291 399.034545 
L 195.566248 399.034545 
L 201.532205 399.034545 
L 207.498162 399.034545 
L 213.464119 306.838182 
L 219.430075 306.838182 
L 225.396032 306.838182 
L 231.361989 214.641818 
L 237.327946 214.641818 
L 243.293903 214.641818 
L 249.25986 122.445455 
L 255.225816 122.445455 
L 261.191773 122.445455 
L 267.15773 122.445455 
L 273.123687 122.445455 
L 279.089644 122.445455 
L 285.055601 122.445455 
L 291.021557 214.641818 
L 296.987514 214.641818 
L 302.953471 214.641818 
L 308.919428 306.838182 
L 314.885385 306.838182 
L 320.851342 306.838182 
L 326.817299 306.838182 
L 332.783255 399.034545 
L 338.749212 399.034545 
L 344.715169 399.034545 
L 350.681126 399.034545 
L 356.647083 399.034545 
L 362.61304 399.034545 
L 368.578996 491.230909 
L 374.544953 491.230909 
L 380.51091 491.230909 
L 386.476867 491.230909 
L 392.442824 491.230909 
L 398.408781 491.230909 
L 404.374737 491.230909 
L 410.340694 491.230909 
L 416.306651 491.230909 
L 422.272608 491.230909 
L 428.238565 491.230909 
L 434.204522 491.230909 
L 440.170478 491.230909 
L 446.136435 491.230909 
L 452.102392 491.230909 
L 458.068349 491.230909 
L 464.034306 491.230909 
L 470.000263 491.230909 
L 475.966219 491.230909 
L 481.932176 491.230909 
L 487.898133 491.230909 
L 493.86409 491.230909 
L 499.830047 491.230909 
L 505.796004 491.230909 
L 511.76196 399.034545 
L 517.727917 399.034545 
L 523.693874 399.034545 
L 529.659831 399.034545 
L 535.625788 399.034545 
L 541.591745 399.034545 
L 547.557701 399.034545 
L 553.523658 399.034545 
L 559.489615 399.034545 
L 565.455572 306.838182 
L 571.421529 306.838182 
L 577.387486 306.838182 
L 583.353443 306.838182 
L 589.319399 214.641818 
L 595.285356 214.641818 
L 601.251313 214.641818 
L 607.21727 122.445455 
L 613.183227 122.445455 
L 619.149184 122.445455 
L 625.11514 122.445455 
L 631.081097 122.445455 
L 637.047054 122.445455 
L 643.013011 122.445455 
L 648.978968 122.445455 
L 654.944925 214.641818 
L 660.910881 214.641818 
L 666.876838 214.641818 
L 672.842795 306.838182 
L 678.808752 306.838182 
L 684.774709 306.838182 
L 690.740666 306.838182 
L 696.706622 399.034545 
L 702.672579 399.034545 
L 708.638536 399.034545 
L 714.604493 399.034545 
L 720.57045 399.034545 
L 726.536407 399.034545 
L 732.502363 491.230909 
L 738.46832 491.230909 
L 744.434277 491.230909 
L 750.400234 491.230909 
L 756.366191 491.230909 
L 762.332148 491.230909 
L 768.298104 491.230909 
L 774.264061 491.230909 
L 780.230018 491.230909 
L 786.195975 491.230909 
L 792.161932 491.230909 
" clip-path="url(#p2d1bbae9ad)" style="fill: none; stroke: #1f77b4; stroke-width: 1.5; stroke-linecap: square"/>
   </g>
   <g id="line2d_33">
    <path d="M 82.213068 491.230909 
L 88.179025 491.230909 
L 94.144982 491.230909 
L 100.110939 491.230909 
L 106.076896 491.230909 
L 112.042852 491.230909 
L 118.008809 491.230909 
L 123.974766 491.230909 
L 129.940723 491.230909 
L 135.90668 491.230909 
L 141.872637 491.230909 
L 147.838593 491.230909 
L 153.80455 491.230909 
L 159.770507 491.230909 
L 165.736464 491.230909 
L 171.702421 491.230909 
L 177.668378 491.230909 
L 183.634334 491.230909 
L 189.600291 399.034545 
L 195.566248 399.034545 
L 201.532205 399.034545 
L 207.498162 399.034545 
L 213.464119 399.034545 
L 219.430075 399.034545 
L 225.396032 399.034545 
L 231.361989 306.838182 
L 237.327946 214.641818 
L 243.293903 214.641818 
L 249.25986 122.445455 
L 255.225816 30.249091 
L 261.191773 30.249091 
L 267.15773 30.249091 
L 273.123687 30.249091 
L 279.089644 30.249091 
L 285.055601 30.249091 
L 291.021557 214.641818 
L 296.987514 214.641818 
L 302.953471 214.641818 
L 308.919428 214.641818 
L 314.885385 214.641818 
L 320.851342 214.641818 
L 326.817299 214.641818 
L 332.783255 214.641818 
L 338.749212 214.641818 
L 344.715169 306.838182 
L 350.681126 306.838182 
L 356.647083 306.838182 
L 362.61304 306.838182 
L 368.578996 306.838182 
L 374.544953 306.838182 
L 380.51091 306.838182 
L 386.476867 306.838182 
L 392.442824 306.838182 
L 398.408781 306.838182 
L 404.374737 306.838182 
L 410.340694 399.034545 
L 416.306651 399.034545 
L 422.272608 399.034545 
L 428.238565 399.034545 
L 434.204522 399.034545 
L 440.170478 399.034545 
L 446.136435 491.230909 
L 452.102392 491.230909 
L 458.068349 491.230909 
L 464.034306 491.230909 
L 470.000263 491.230909 
L 475.966219 491.230909 
L 481.932176 491.230909 
L 487.898133 491.230909 
L 493.86409 491.230909 
L 499.830047 491.230909 
L 505.796004 491.230909 
L 511.76196 491.230909 
L 517.727917 491.230909 
L 523.693874 491.230909 
L 529.659831 399.034545 
L 535.625788 399.034545 
L 541.591745 399.034545 
L 547.557701 399.034545 
L 553.523658 399.034545 
L 559.489615 399.034545 
L 565.455572 399.034545 
L 571.421529 399.034545 
L 577.387486 399.034545 
L 583.353443 399.034545 
L 589.319399 399.034545 
L 595.285356 306.838182 
L 601.251313 306.838182 
L 607.21727 214.641818 
L 613.183227 214.641818 
L 619.149184 122.445455 
L 625.11514 122.445455 
L 631.081097 122.445455 
L 637.047054 122.445455 
L 643.013011 122.445455 
L 648.978968 122.445455 
L 654.944925 122.445455 
L 660.910881 214.641818 
L 666.876838 214.641818 
L 672.842795 214.641818 
L 678.808752 214.641818 
L 684.774709 214.641818 
L 690.740666 214.641818 
L 696.706622 306.838182 
L 702.672579 306.838182 
L 708.638536 306.838182 
L 714.604493 306.838182 
L 720.57045 306.838182 
L 726.536407 306.838182 
L 732.502363 306.838182 
L 738.46832 306.838182 
L 744.434277 306.838182 
L 750.400234 306.838182 
L 756.366191 399.034545 
L 762.332148 399.034545 
L 768.298104 399.034545 
L 774.264061 399.034545 
L 780.230018 399.034545 
L 786.195975 399.034545 
L 792.161932 399.034545 
" clip-path="url(#p2d1bbae9ad)" style="fill: none; stroke: #ff7f0e; stroke-width: 1.5; stroke-linecap: square"/>
   </g>
   <g id="patch_3">
    <path d="M 46.715625 514.28 
L 46.715625 7.2 
" style="fill: none; stroke: #000000; stroke-width: 0.8; stroke-linejoin: miter; stroke-linecap: square"/>
   </g>
   <g id="patch_4">
    <path d="M 827.659375 514.28 
L 827.659375 7.2 
" style="fill: none; stroke: #000000; stroke-width: 0.8; stroke-linejoin: miter; stroke-linecap: square"/>
   </g>
   <g id="patch_5">
    <path d="M 46.715625 514.28 
L 827.659375 514.28 
" style="fill: none; stroke: #000000; stroke-width: 0.8; stroke-linejoin: miter; stroke-linecap: square"/>
   </g>
   <g id="patch_6">
    <path d="M 46.715625 7.2 
L 827.659375 7.2 
" style="fill: none; stroke: #000000; stroke-width: 0.8; stroke-linejoin: miter; stroke-linecap: square"/>
   </g>
   <g id="legend_1">
    <g id="patch_7">
     <path d="M 569.659375 108.2 
L 813.659375 108.2 
Q 817.659375 108.2 817.659375 104.2 
L 817.659375 21.2 
Q 817.659375 17.2 813.659375 17.2 
L 569.659375 17.2 
Q 565.659375 17.2 565.659375 21.2 
L 565.659375 104.2 
Q 565.659375 108.2 569.659375 108.2 
z
" style="fill: #ffffff; opacity: 0.8; stroke: #cccccc; stroke-linejoin: miter"/>
    </g>
    <g id="line2d_34">
     <path d="M 573.659375 33.903125 
L 593.659375 33.903125 
L 613.659375 33.903125 
" style="fill: none; stroke: #1f77b4; stroke-width: 1.5; stroke-linecap: square"/>
    </g>
    <g id="text_17">
     <!-- 预测组—预测式 -->
     <g transform="translate(629.659375 40.903125) scale(0.2 -0.2)">
      <defs>
       <path id="SimSun-9884" d="M 475 4825 
L 2225 4825 
L 2425 5075 
L 2825 4675 
Q 2600 4625 2387 4412 
Q 2175 4200 1800 3750 
Q 2050 3575 2037 3400 
Q 2025 3225 1937 3150 
Q 1850 3075 1825 3075 
Q 1725 3075 1650 3300 
Q 1525 3600 1050 4100 
L 1100 4150 
Q 1475 3975 1700 3825 
L 2225 4675 
L 1300 4675 
Q 975 4675 700 4600 
L 475 4825 
z
M 725 100 
Q 1175 50 1362 37 
Q 1550 25 1550 275 
L 1550 2875 
L 1125 2875 
Q 800 2875 525 2800 
L 300 3025 
L 2525 3025 
L 2725 3275 
L 3150 2875 
Q 2800 2825 2275 2075 
L 2200 2125 
L 2550 2875 
L 1875 2875 
L 1875 150 
Q 1875 -400 1350 -500 
Q 1325 -175 725 0 
L 725 100 
z
M 3250 775 
Q 3275 1425 3275 2287 
Q 3275 3150 3250 3900 
L 3600 3700 
L 4050 3700 
Q 4175 4400 4200 4675 
L 3650 4675 
Q 3325 4675 3050 4600 
L 2825 4825 
L 5325 4825 
L 5675 5150 
L 6125 4675 
L 4675 4675 
Q 4500 4425 4175 3700 
L 5300 3700 
L 5475 3975 
L 5875 3675 
L 5675 3475 
L 5675 1950 
Q 5675 1525 5700 1075 
L 5350 875 
L 5350 3550 
L 3600 3550 
L 3600 1000 
L 3250 775 
z
M 4850 2875 
L 4625 2675 
Q 4625 1475 4475 937 
Q 4325 400 3900 50 
Q 3475 -300 2425 -625 
L 2400 -550 
Q 3500 -50 3837 400 
Q 4175 850 4237 1587 
Q 4300 2325 4275 3175 
L 4850 2875 
z
M 4650 950 
Q 5725 375 5875 212 
Q 6025 50 6025 -125 
Q 6025 -225 5962 -387 
Q 5900 -550 5850 -550 
Q 5800 -550 5750 -450 
Q 5625 -250 5437 0 
Q 5250 250 4600 875 
L 4650 950 
z
" transform="scale(0.015625)"/>
       <path id="SimSun-6d4b" d="M 1975 1000 
Q 2000 1475 2000 2925 
Q 2000 4375 1975 5000 
L 2350 4775 
L 3575 4775 
L 3775 4975 
L 4100 4650 
L 3900 4500 
L 3900 2350 
Q 3900 1850 3925 1350 
L 3600 1200 
L 3600 4625 
L 2325 4625 
L 2325 1150 
L 1975 1000 
z
M 2775 3975 
L 3300 3700 
L 3125 3525 
Q 3150 1825 2875 937 
Q 2600 50 1375 -600 
L 1325 -500 
Q 2200 100 2475 725 
Q 2750 1350 2775 2187 
Q 2800 3025 2775 3975 
z
M 3100 950 
Q 3825 450 3937 262 
Q 4050 75 4050 -25 
Q 4050 -150 3975 -262 
Q 3900 -375 3850 -375 
Q 3750 -375 3650 -75 
Q 3500 375 3050 875 
L 3100 950 
z
M 4475 825 
Q 4500 1200 4500 1700 
L 4500 3400 
Q 4500 3950 4475 4300 
L 5025 4025 
L 4825 3825 
L 4825 1700 
Q 4825 1325 4850 950 
L 4475 825 
z
M 5375 150 
L 5375 4050 
Q 5375 4750 5350 5125 
L 5875 4875 
L 5700 4700 
L 5700 75 
Q 5700 -200 5600 -350 
Q 5500 -500 5200 -600 
Q 5025 -225 4450 -50 
L 4450 50 
Q 5125 -50 5250 -37 
Q 5375 -25 5375 150 
z
M 1850 3500 
Q 1375 1525 1300 1225 
Q 1200 900 1212 450 
Q 1225 0 1250 -175 
Q 1250 -275 1125 -275 
Q 1025 -275 875 -225 
Q 725 -175 725 0 
Q 725 125 800 375 
Q 875 625 875 775 
Q 875 950 762 1050 
Q 650 1150 275 1250 
L 275 1350 
Q 725 1300 837 1312 
Q 950 1325 1087 1537 
Q 1225 1750 1750 3525 
L 1850 3500 
z
M 375 3775 
Q 1075 3350 1112 3100 
Q 1150 2850 1050 2775 
Q 950 2700 900 2700 
Q 800 2700 725 2975 
Q 600 3350 325 3700 
L 375 3775 
z
M 800 5100 
Q 1475 4725 1550 4512 
Q 1625 4300 1525 4187 
Q 1425 4075 1350 4075 
Q 1275 4075 1200 4300 
Q 1075 4650 750 5025 
L 800 5100 
z
" transform="scale(0.015625)"/>
       <path id="SimSun-7ec4" d="M 1000 1525 
Q 1950 1675 2400 1775 
L 2425 1675 
Q 2100 1575 1537 1387 
Q 975 1200 750 1025 
L 475 1475 
Q 725 1550 987 1875 
Q 1250 2200 1750 3000 
Q 1375 2925 1087 2812 
Q 800 2700 625 2600 
L 400 3025 
Q 650 3075 1025 3912 
Q 1400 4750 1475 5175 
L 1925 4875 
Q 1700 4650 1475 4200 
Q 1225 3750 775 3025 
L 1800 3125 
Q 2050 3600 2200 4075 
L 2625 3775 
Q 2500 3650 2125 3075 
Q 1750 2475 1000 1525 
z
M 325 250 
Q 625 300 1312 475 
Q 2000 650 2525 825 
L 2575 700 
Q 2225 575 1525 262 
Q 825 -50 625 -225 
L 325 250 
z
M 3250 4550 
L 3250 3175 
L 4850 3175 
L 4850 4550 
L 3250 4550 
z
M 3250 3025 
L 3250 1625 
L 4850 1625 
L 4850 3025 
L 3250 3025 
z
M 3250 1475 
L 3250 -50 
L 4850 -50 
L 4850 1475 
L 3250 1475 
z
M 2925 3475 
Q 2925 4500 2900 4925 
L 3250 4700 
L 4825 4700 
L 5025 4975 
L 5425 4650 
L 5200 4450 
L 5200 -50 
L 5375 -50 
L 5750 300 
L 6175 -200 
L 2825 -200 
Q 2500 -200 2225 -275 
L 2000 -50 
L 2925 -50 
L 2925 3475 
z
" transform="scale(0.015625)"/>
       <path id="SimSun-2014" d="M 200 2200 
L 200 2450 
L 6225 2450 
L 6225 2200 
L 200 2200 
z
" transform="scale(0.015625)"/>
       <path id="SimSun-5f0f" d="M 2200 575 
L 3650 900 
L 3675 800 
Q 2150 325 1487 87 
Q 825 -150 725 -300 
L 375 175 
Q 1175 325 1850 475 
L 1850 2400 
L 1425 2400 
Q 1100 2400 825 2325 
L 600 2550 
L 2625 2550 
L 2950 2875 
L 3425 2400 
L 2200 2400 
L 2200 575 
z
M 4425 4975 
Q 4900 4800 5112 4662 
Q 5325 4525 5312 4350 
Q 5300 4175 5225 4100 
Q 5150 4025 5100 4025 
Q 5000 4025 4925 4225 
Q 4775 4525 4375 4900 
L 4425 4975 
z
M 3875 4775 
Q 3875 4200 3900 3775 
L 5050 3775 
L 5450 4175 
L 6000 3625 
L 3900 3625 
Q 4000 2350 4237 1662 
Q 4475 975 4787 600 
Q 5100 225 5600 25 
Q 5675 525 5775 1225 
L 5900 1225 
Q 5875 250 5937 -62 
Q 6000 -375 6100 -525 
Q 6150 -600 6050 -600 
Q 5950 -600 5487 -437 
Q 5025 -275 4600 187 
Q 4175 650 3900 1475 
Q 3625 2300 3550 3625 
L 1350 3625 
Q 1025 3625 750 3550 
L 525 3775 
L 3525 3775 
Q 3500 4500 3475 5225 
L 4100 4950 
L 3875 4775 
z
" transform="scale(0.015625)"/>
      </defs>
      <use xlink:href="#SimSun-9884"/>
      <use xlink:href="#SimSun-6d4b" x="100"/>
      <use xlink:href="#SimSun-7ec4" x="200"/>
      <use xlink:href="#SimSun-2014" x="300"/>
      <use xlink:href="#SimSun-9884" x="400"/>
      <use xlink:href="#SimSun-6d4b" x="500"/>
      <use xlink:href="#SimSun-5f0f" x="600"/>
     </g>
    </g>
    <g id="line2d_35">
     <path d="M 573.659375 62.340625 
L 593.659375 62.340625 
L 613.659375 62.340625 
" style="fill: none; stroke: #ff7f0e; stroke-width: 1.5; stroke-linecap: square"/>
    </g>
    <g id="text_18">
     <!-- HPA组—被动式 -->
     <g transform="translate(629.659375 69.340625) scale(0.2 -0.2)">
      <defs>
       <path id="SimSun-48" d="M 2725 450 
Q 2725 350 2787 300 
Q 2850 250 2950 250 
L 3075 250 
L 3075 100 
L 1975 100 
L 1975 250 
L 2100 250 
Q 2225 250 2275 300 
Q 2325 350 2325 450 
L 2325 2275 
L 850 2275 
L 850 450 
Q 850 350 912 300 
Q 975 250 1075 250 
L 1200 250 
L 1200 100 
L 100 100 
L 100 250 
L 225 250 
Q 350 250 400 300 
Q 450 350 450 450 
L 450 4025 
Q 450 4125 400 4175 
Q 350 4225 225 4225 
L 125 4225 
L 125 4375 
L 1175 4375 
L 1175 4225 
L 1075 4225 
Q 975 4225 912 4175 
Q 850 4125 850 4025 
L 850 2425 
L 2325 2425 
L 2325 4025 
Q 2325 4125 2275 4175 
Q 2225 4225 2100 4225 
L 2000 4225 
L 2000 4375 
L 3050 4375 
L 3050 4225 
L 2950 4225 
Q 2850 4225 2787 4175 
Q 2725 4125 2725 4025 
L 2725 450 
z
" transform="scale(0.015625)"/>
       <path id="SimSun-50" d="M 950 2100 
L 950 450 
Q 950 350 1012 300 
Q 1075 250 1175 250 
L 1350 250 
L 1350 100 
L 150 100 
L 150 250 
L 325 250 
Q 450 250 500 300 
Q 550 350 550 450 
L 550 4025 
Q 550 4125 500 4175 
Q 450 4225 325 4225 
L 175 4225 
L 175 4375 
L 1650 4375 
Q 2275 4375 2612 4062 
Q 2950 3750 2950 3275 
Q 2950 2700 2587 2400 
Q 2225 2100 1725 2100 
L 950 2100 
z
M 1575 2250 
Q 1950 2250 2237 2475 
Q 2525 2700 2525 3250 
Q 2525 3750 2287 3987 
Q 2050 4225 1525 4225 
L 1175 4225 
Q 1075 4225 1012 4175 
Q 950 4125 950 4025 
L 950 2250 
L 1575 2250 
z
" transform="scale(0.015625)"/>
       <path id="SimSun-41" d="M 2025 1700 
L 900 1700 
L 675 750 
Q 650 625 650 550 
Q 650 450 687 350 
Q 725 250 900 250 
L 975 250 
L 975 100 
L 50 100 
L 50 250 
L 125 250 
Q 225 250 300 312 
Q 375 375 400 525 
L 1375 4350 
L 1750 4475 
L 2700 525 
Q 2750 375 2825 312 
Q 2900 250 3000 250 
L 3075 250 
L 3075 100 
L 2000 100 
L 2000 250 
L 2100 250 
Q 2250 250 2275 312 
Q 2300 375 2300 425 
Q 2300 525 2275 600 
L 2025 1700 
z
M 325 250 
L 325 250 
z
M 575 250 
L 575 250 
z
M 2350 250 
L 2350 250 
z
M 2775 250 
L 2775 250 
z
M 1500 3925 
L 1475 3925 
L 950 1850 
L 2000 1850 
L 1500 3925 
z
" transform="scale(0.015625)"/>
       <path id="SimSun-88ab" d="M 3125 3825 
L 3125 2500 
L 4025 2500 
L 4025 3825 
L 3125 3825 
z
M 3550 2350 
Q 3875 1425 4325 875 
Q 4750 1400 5050 2350 
L 3550 2350 
z
M 5400 2200 
Q 5025 1200 4525 625 
Q 5150 0 6125 -150 
L 6125 -225 
Q 5800 -275 5650 -525 
Q 4950 -225 4325 425 
Q 3475 -275 2450 -600 
L 2425 -500 
Q 3375 -75 4125 650 
Q 3700 1300 3450 2350 
L 3125 2350 
Q 3100 1350 2837 650 
Q 2575 -50 1850 -650 
L 1775 -575 
Q 2300 -25 2537 662 
Q 2775 1350 2787 2487 
Q 2800 3625 2775 4225 
L 3175 3975 
L 4025 3975 
Q 4025 4825 4000 5250 
L 4525 5025 
L 4350 4825 
L 4350 3975 
L 5350 3975 
L 5600 4225 
L 6025 3750 
Q 5850 3725 5687 3650 
Q 5525 3575 5175 3125 
L 5075 3175 
L 5375 3825 
L 4350 3825 
L 4350 2500 
L 5025 2500 
L 5250 2725 
L 5625 2350 
L 5400 2200 
z
M 2150 3650 
Q 1950 3200 1600 2625 
L 1600 2125 
L 1750 2050 
Q 2075 2600 2200 3025 
L 2625 2700 
L 2425 2600 
Q 2125 2300 1825 2000 
Q 2350 1700 2387 1575 
Q 2425 1450 2425 1375 
Q 2425 1225 2350 1137 
Q 2275 1050 2250 1050 
Q 2175 1050 2125 1250 
Q 2025 1525 1600 2000 
Q 1600 150 1625 -425 
L 1250 -600 
Q 1275 0 1275 2200 
Q 825 1650 300 1275 
L 250 1350 
Q 775 1850 1162 2475 
Q 1550 3100 1800 3750 
L 1200 3750 
Q 875 3750 600 3675 
L 375 3900 
L 1775 3900 
L 2025 4150 
L 2375 3800 
L 2150 3650 
z
M 1050 5225 
Q 1575 4950 1675 4812 
Q 1775 4675 1775 4575 
Q 1775 4475 1687 4350 
Q 1600 4225 1575 4225 
Q 1500 4225 1425 4450 
Q 1300 4800 1000 5150 
L 1050 5225 
z
" transform="scale(0.015625)"/>
       <path id="SimSun-52a8" d="M 5950 3500 
L 5750 3325 
Q 5725 675 5587 137 
Q 5450 -400 4850 -575 
Q 4825 -300 4075 25 
L 4100 150 
Q 4625 25 4925 25 
Q 5075 25 5162 87 
Q 5250 150 5312 737 
Q 5375 1325 5425 3425 
L 4375 3425 
Q 4350 2475 4162 1725 
Q 3975 975 3487 400 
Q 3000 -175 2200 -625 
L 2125 -550 
Q 2925 0 3312 562 
Q 3700 1125 3862 1825 
Q 4025 2525 4050 3425 
L 3600 3425 
L 3300 3375 
L 3100 3575 
L 4050 3575 
Q 4050 4625 4025 5175 
L 4550 4925 
L 4375 4750 
L 4375 3575 
L 5375 3575 
L 5575 3800 
L 5950 3500 
z
M 475 4325 
L 2275 4325 
L 2575 4625 
L 3025 4175 
L 1200 4175 
Q 925 4175 700 4100 
L 475 4325 
z
M 275 3050 
L 2625 3050 
L 2925 3350 
L 3375 2900 
L 1700 2900 
L 2100 2600 
Q 1850 2500 1450 1875 
Q 1025 1250 675 875 
L 2650 1100 
Q 2400 1600 2125 2025 
L 2200 2075 
Q 3075 1275 3125 987 
Q 3175 700 3062 587 
Q 2950 475 2925 475 
Q 2850 475 2825 600 
Q 2775 775 2700 975 
Q 875 650 600 350 
L 325 850 
Q 600 925 1025 1687 
Q 1450 2450 1550 2900 
L 750 2900 
L 475 2850 
L 275 3050 
z
" transform="scale(0.015625)"/>
      </defs>
      <use xlink:href="#SimSun-48"/>
      <use xlink:href="#SimSun-50" x="50"/>
      <use xlink:href="#SimSun-41" x="100"/>
      <use xlink:href="#SimSun-7ec4" x="150"/>
      <use xlink:href="#SimSun-2014" x="250"/>
      <use xlink:href="#SimSun-88ab" x="350"/>
      <use xlink:href="#SimSun-52a8" x="450"/>
      <use xlink:href="#SimSun-5f0f" x="550"/>
     </g>
    </g>
    <g id="line2d_36">
     <path d="M 573.659375 90.621875 
L 593.659375 90.621875 
L 613.659375 90.621875 
" style="fill: none; stroke: #2ca02c; stroke-width: 1.5; stroke-linecap: square"/>
    </g>
    <g id="text_19">
     <!-- K-AGRUED组—预测式 -->
     <g transform="translate(629.659375 97.621875) scale(0.2 -0.2)">
      <defs>
       <path id="SimSun-4b" d="M 3075 100 
L 2000 100 
L 2000 250 
L 2075 250 
Q 2225 250 2250 350 
Q 2275 450 2175 625 
L 1325 2450 
L 925 1875 
L 925 450 
Q 925 350 987 300 
Q 1050 250 1150 250 
L 1300 250 
L 1300 100 
L 150 100 
L 150 250 
L 300 250 
Q 425 250 475 300 
Q 525 350 525 450 
L 525 4025 
Q 525 4125 475 4175 
Q 425 4225 300 4225 
L 150 4225 
L 150 4375 
L 1300 4375 
L 1300 4225 
L 1150 4225 
Q 1050 4225 987 4175 
Q 925 4125 925 4025 
L 925 2200 
L 2100 3875 
Q 2225 4050 2175 4137 
Q 2125 4225 1950 4225 
L 1850 4225 
L 1850 4375 
L 2925 4375 
L 2925 4225 
L 2875 4225 
Q 2750 4225 2625 4150 
Q 2500 4075 2375 3925 
L 1575 2825 
L 2650 525 
Q 2725 375 2812 312 
Q 2900 250 2950 250 
L 3075 250 
L 3075 100 
z
M 2600 4225 
L 2600 4225 
z
M 2350 4225 
L 2350 4225 
z
M 2350 250 
L 2350 250 
z
M 2775 250 
L 2775 250 
z
" transform="scale(0.015625)"/>
       <path id="SimSun-2d" d="M 200 2225 
L 200 2450 
L 2975 2450 
L 2975 2225 
L 200 2225 
z
" transform="scale(0.015625)"/>
       <path id="SimSun-47" d="M 1625 4250 
Q 1250 4250 937 3737 
Q 625 3225 625 2175 
Q 625 1475 862 850 
Q 1100 225 1650 225 
Q 1925 225 2087 337 
Q 2250 450 2275 675 
L 2275 1525 
Q 2275 1675 2200 1750 
Q 2125 1825 1975 1825 
L 1825 1825 
L 1825 1975 
L 3075 1975 
L 3075 1825 
L 2950 1825 
Q 2825 1825 2750 1750 
Q 2675 1675 2675 1550 
L 2675 300 
Q 2625 325 2587 337 
Q 2550 350 2500 350 
Q 2450 350 2400 337 
Q 2350 325 2300 275 
Q 2150 150 1987 100 
Q 1825 50 1625 50 
Q 875 50 525 712 
Q 175 1375 175 2175 
Q 175 3100 587 3762 
Q 1000 4425 1625 4425 
Q 1775 4425 1975 4350 
Q 2175 4275 2225 4275 
Q 2300 4275 2375 4312 
Q 2450 4350 2500 4425 
L 2700 3300 
L 2550 3250 
Q 2400 3775 2175 4012 
Q 1950 4250 1625 4250 
z
" transform="scale(0.015625)"/>
       <path id="SimSun-52" d="M 2825 3375 
Q 2825 2875 2550 2600 
Q 2275 2325 1925 2275 
L 2675 425 
Q 2725 325 2787 287 
Q 2850 250 2925 250 
L 3075 250 
L 3075 100 
L 2375 100 
L 1550 2250 
L 975 2250 
L 975 450 
Q 975 350 1037 300 
Q 1100 250 1200 250 
L 1350 250 
L 1350 100 
L 200 100 
L 200 250 
L 350 250 
Q 475 250 525 300 
Q 575 350 575 450 
L 575 4025 
Q 575 4125 525 4175 
Q 475 4225 350 4225 
L 200 4225 
L 200 4375 
L 1625 4375 
Q 2200 4375 2512 4125 
Q 2825 3875 2825 3375 
z
M 2750 250 
L 2750 250 
z
M 975 2400 
L 1525 2400 
Q 1900 2400 2150 2625 
Q 2400 2850 2400 3325 
Q 2400 3750 2175 3987 
Q 1950 4225 1475 4225 
L 1200 4225 
Q 1100 4225 1037 4175 
Q 975 4125 975 4025 
L 975 2400 
z
" transform="scale(0.015625)"/>
       <path id="SimSun-55" d="M 1625 250 
Q 2000 250 2262 500 
Q 2525 750 2525 1125 
L 2525 4025 
Q 2525 4125 2475 4175 
Q 2425 4225 2300 4225 
L 2150 4225 
L 2150 4375 
L 3050 4375 
L 3050 4225 
L 2900 4225 
Q 2800 4225 2737 4175 
Q 2675 4125 2675 4025 
L 2675 1125 
Q 2675 625 2337 337 
Q 2000 50 1575 50 
Q 1125 50 787 300 
Q 450 550 450 1100 
L 450 4025 
Q 450 4125 400 4175 
Q 350 4225 225 4225 
L 100 4225 
L 100 4375 
L 1200 4375 
L 1200 4225 
L 1075 4225 
Q 975 4225 912 4175 
Q 850 4125 850 4025 
L 850 1100 
Q 850 600 1062 425 
Q 1275 250 1625 250 
z
" transform="scale(0.015625)"/>
       <path id="SimSun-45" d="M 200 4225 
L 200 4375 
L 2650 4375 
L 2925 3525 
L 2800 3475 
Q 2600 3850 2375 4037 
Q 2150 4225 1875 4225 
L 1175 4225 
Q 1075 4225 1012 4175 
Q 950 4125 950 4025 
L 950 2475 
L 1675 2475 
Q 1925 2475 2037 2600 
Q 2150 2725 2150 2975 
L 2150 3125 
L 2300 3125 
L 2300 1650 
L 2150 1650 
L 2150 1750 
Q 2150 2025 2037 2175 
Q 1925 2325 1675 2325 
L 950 2325 
L 950 450 
Q 950 350 1012 300 
Q 1075 250 1175 250 
L 1825 250 
Q 2200 250 2462 462 
Q 2725 675 2875 1125 
L 3000 1075 
L 2725 100 
L 175 100 
L 175 250 
L 325 250 
Q 450 250 500 300 
Q 550 350 550 450 
L 550 4025 
Q 550 4125 500 4175 
Q 450 4225 325 4225 
L 200 4225 
z
" transform="scale(0.015625)"/>
       <path id="SimSun-44" d="M 2500 2275 
Q 2500 3350 2175 3787 
Q 1850 4225 1275 4225 
Q 1100 4225 1012 4175 
Q 925 4125 925 4025 
L 925 450 
Q 925 350 1000 300 
Q 1075 250 1200 250 
Q 1750 250 2125 662 
Q 2500 1075 2500 2275 
z
M 525 4025 
Q 525 4125 475 4175 
Q 425 4225 300 4225 
L 150 4225 
L 150 4375 
L 1275 4375 
Q 2050 4375 2512 3875 
Q 2975 3375 2975 2325 
Q 2975 1175 2525 637 
Q 2075 100 1200 100 
L 125 100 
L 125 250 
L 300 250 
Q 425 250 475 300 
Q 525 350 525 450 
L 525 4025 
z
" transform="scale(0.015625)"/>
      </defs>
      <use xlink:href="#SimSun-4b"/>
      <use xlink:href="#SimSun-2d" x="50"/>
      <use xlink:href="#SimSun-41" x="100"/>
      <use xlink:href="#SimSun-47" x="150"/>
      <use xlink:href="#SimSun-52" x="200"/>
      <use xlink:href="#SimSun-55" x="250"/>
      <use xlink:href="#SimSun-45" x="300"/>
      <use xlink:href="#SimSun-44" x="350"/>
      <use xlink:href="#SimSun-7ec4" x="400"/>
      <use xlink:href="#SimSun-2014" x="500"/>
      <use xlink:href="#SimSun-9884" x="600"/>
      <use xlink:href="#SimSun-6d4b" x="700"/>
      <use xlink:href="#SimSun-5f0f" x="800"/>
     </g>
    </g>
   </g>
  </g>
 </g>
 <defs>
  <clipPath id="p2d1bbae9ad">
   <rect x="46.715625" y="7.2" width="780.94375" height="507.08"/>
  </clipPath>
 </defs>
</svg>
