<?xml version="1.0" encoding="utf-8" standalone="no"?>
<!DOCTYPE svg PUBLIC "-//W3C//DTD SVG 1.1//EN"
  "http://www.w3.org/Graphics/SVG/1.1/DTD/svg11.dtd">
<svg xmlns:xlink="http://www.w3.org/1999/xlink" width="834.859375pt" height="618.60375pt" viewBox="0 0 834.859375 618.60375" xmlns="http://www.w3.org/2000/svg" version="1.1">
 <metadata>
  <rdf:RDF xmlns:dc="http://purl.org/dc/elements/1.1/" xmlns:cc="http://creativecommons.org/ns#" xmlns:rdf="http://www.w3.org/1999/02/22-rdf-syntax-ns#">
   <cc:Work>
    <dc:type rdf:resource="http://purl.org/dc/dcmitype/StillImage"/>
    <dc:date>2024-02-05T13:35:23.042599</dc:date>
    <dc:format>image/svg+xml</dc:format>
    <dc:creator>
     <cc:Agent>
      <dc:title>Matplotlib v3.7.1, https://matplotlib.org/</dc:title>
     </cc:Agent>
    </dc:creator>
   </cc:Work>
  </rdf:RDF>
 </metadata>
 <defs>
  <style type="text/css">*{stroke-linejoin: round; stroke-linecap: butt}</style>
 </defs>
 <g id="figure_1">
  <g id="patch_1">
   <path d="M 0 618.60375 
L 834.859375 618.60375 
L 834.859375 0 
L 0 0 
z
" style="fill: #ffffff"/>
  </g>
  <g id="axes_1">
   <g id="patch_2">
    <path d="M 46.715625 587.52875 
L 827.659375 587.52875 
L 827.659375 32.325 
L 46.715625 32.325 
z
" style="fill: #ffffff"/>
   </g>
   <g id="matplotlib.axis_1">
    <g id="xtick_1">
     <g id="line2d_1">
      <path d="M 82.213068 587.52875 
L 82.213068 32.325 
" clip-path="url(#pca895bf51c)" style="fill: none; stroke: #b0b0b0; stroke-width: 0.8; stroke-linecap: square"/>
     </g>
     <g id="line2d_2">
      <defs>
       <path id="m47342c966a" d="M 0 0 
L 0 3.5 
" style="stroke: #000000; stroke-width: 0.8"/>
      </defs>
      <g>
       <use xlink:href="#m47342c966a" x="82.213068" y="587.52875" style="stroke: #000000; stroke-width: 0.8"/>
      </g>
     </g>
     <g id="text_1">
      <!-- 0 -->
      <g transform="translate(77.213068 608.825625) scale(0.2 -0.2)">
       <defs>
        <path id="SimSun-30" d="M 1600 4225 
Q 1250 4225 1012 3687 
Q 775 3150 775 2250 
Q 775 1300 1012 775 
Q 1250 250 1600 250 
Q 1975 250 2187 775 
Q 2400 1300 2400 2250 
Q 2400 3150 2200 3687 
Q 2000 4225 1600 4225 
z
M 1600 50 
Q 1050 50 675 625 
Q 300 1200 300 2250 
Q 300 3225 662 3825 
Q 1025 4425 1600 4425 
Q 2150 4425 2512 3850 
Q 2875 3275 2875 2250 
Q 2875 1225 2512 637 
Q 2150 50 1600 50 
z
" transform="scale(0.015625)"/>
       </defs>
       <use xlink:href="#SimSun-30"/>
      </g>
     </g>
    </g>
    <g id="xtick_2">
     <g id="line2d_3">
      <path d="M 171.702421 587.52875 
L 171.702421 32.325 
" clip-path="url(#pca895bf51c)" style="fill: none; stroke: #b0b0b0; stroke-width: 0.8; stroke-linecap: square"/>
     </g>
     <g id="line2d_4">
      <g>
       <use xlink:href="#m47342c966a" x="171.702421" y="587.52875" style="stroke: #000000; stroke-width: 0.8"/>
      </g>
     </g>
     <g id="text_2">
      <!-- 15 -->
      <g transform="translate(161.702421 608.825625) scale(0.2 -0.2)">
       <defs>
        <path id="SimSun-31" d="M 1825 4450 
L 1825 650 
Q 1825 450 1950 350 
Q 2075 250 2300 250 
L 2550 250 
L 2550 100 
L 725 100 
L 725 250 
L 950 250 
Q 1200 250 1312 350 
Q 1425 450 1425 650 
L 1425 3675 
Q 1425 3775 1362 3837 
Q 1300 3900 1175 3900 
L 725 3900 
L 725 4050 
L 950 4050 
Q 1250 4050 1437 4150 
Q 1625 4250 1725 4450 
L 1825 4450 
z
" transform="scale(0.015625)"/>
        <path id="SimSun-35" d="M 1725 2850 
Q 2200 2850 2500 2487 
Q 2800 2125 2800 1525 
Q 2800 850 2487 450 
Q 2175 50 1525 50 
Q 1075 50 725 312 
Q 375 575 375 950 
Q 375 1100 462 1212 
Q 550 1325 700 1325 
Q 850 1325 900 1225 
Q 950 1125 950 1050 
Q 950 900 875 825 
Q 800 725 800 625 
Q 800 425 1037 325 
Q 1275 225 1550 225 
Q 1950 225 2162 550 
Q 2375 875 2375 1475 
Q 2375 1975 2187 2287 
Q 2000 2600 1625 2600 
Q 1350 2600 1150 2500 
Q 950 2400 775 2075 
L 550 2100 
L 675 4375 
L 2725 4375 
L 2650 4000 
L 850 4000 
L 750 2350 
Q 1000 2700 1237 2775 
Q 1475 2850 1725 2850 
z
" transform="scale(0.015625)"/>
       </defs>
       <use xlink:href="#SimSun-31"/>
       <use xlink:href="#SimSun-35" x="50"/>
      </g>
     </g>
    </g>
    <g id="xtick_3">
     <g id="line2d_5">
      <path d="M 261.191773 587.52875 
L 261.191773 32.325 
" clip-path="url(#pca895bf51c)" style="fill: none; stroke: #b0b0b0; stroke-width: 0.8; stroke-linecap: square"/>
     </g>
     <g id="line2d_6">
      <g>
       <use xlink:href="#m47342c966a" x="261.191773" y="587.52875" style="stroke: #000000; stroke-width: 0.8"/>
      </g>
     </g>
     <g id="text_3">
      <!-- 30 -->
      <g transform="translate(251.191773 608.825625) scale(0.2 -0.2)">
       <defs>
        <path id="SimSun-33" d="M 2800 1250 
Q 2800 775 2450 412 
Q 2100 50 1475 50 
Q 1025 50 700 300 
Q 375 550 375 875 
Q 375 1025 475 1137 
Q 575 1250 675 1250 
Q 825 1250 887 1137 
Q 950 1025 950 950 
Q 950 825 900 750 
Q 850 650 850 575 
Q 850 425 1037 325 
Q 1225 225 1450 225 
Q 1900 225 2125 487 
Q 2350 750 2350 1300 
Q 2350 1750 2112 2025 
Q 1875 2300 1225 2300 
L 1225 2475 
Q 1725 2475 1962 2712 
Q 2200 2950 2200 3375 
Q 2200 3725 2012 3987 
Q 1825 4250 1425 4250 
Q 1250 4250 1050 4162 
Q 850 4075 850 3875 
Q 850 3675 900 3625 
Q 950 3575 950 3500 
Q 950 3375 900 3300 
Q 850 3225 725 3225 
Q 625 3225 537 3300 
Q 450 3375 450 3575 
Q 450 3950 775 4187 
Q 1100 4425 1525 4425 
Q 2025 4425 2325 4112 
Q 2625 3800 2625 3450 
Q 2625 3075 2437 2812 
Q 2250 2550 1850 2425 
Q 2400 2225 2600 1900 
Q 2800 1575 2800 1250 
z
" transform="scale(0.015625)"/>
       </defs>
       <use xlink:href="#SimSun-33"/>
       <use xlink:href="#SimSun-30" x="50"/>
      </g>
     </g>
    </g>
    <g id="xtick_4">
     <g id="line2d_7">
      <path d="M 350.681126 587.52875 
L 350.681126 32.325 
" clip-path="url(#pca895bf51c)" style="fill: none; stroke: #b0b0b0; stroke-width: 0.8; stroke-linecap: square"/>
     </g>
     <g id="line2d_8">
      <g>
       <use xlink:href="#m47342c966a" x="350.681126" y="587.52875" style="stroke: #000000; stroke-width: 0.8"/>
      </g>
     </g>
     <g id="text_4">
      <!-- 45 -->
      <g transform="translate(340.681126 608.825625) scale(0.2 -0.2)">
       <defs>
        <path id="SimSun-34" d="M 2300 575 
Q 2300 400 2400 325 
Q 2500 250 2675 250 
L 2900 250 
L 2900 100 
L 1250 100 
L 1250 250 
L 1525 250 
Q 1725 250 1812 325 
Q 1900 400 1900 575 
L 1900 1400 
L 225 1400 
L 225 1525 
L 2050 4425 
L 2300 4425 
L 2300 1550 
L 2975 1550 
L 2975 1400 
L 2300 1400 
L 2300 575 
z
M 1875 3800 
L 450 1550 
L 1900 1550 
L 1900 3800 
L 1875 3800 
z
" transform="scale(0.015625)"/>
       </defs>
       <use xlink:href="#SimSun-34"/>
       <use xlink:href="#SimSun-35" x="50"/>
      </g>
     </g>
    </g>
    <g id="xtick_5">
     <g id="line2d_9">
      <path d="M 440.170478 587.52875 
L 440.170478 32.325 
" clip-path="url(#pca895bf51c)" style="fill: none; stroke: #b0b0b0; stroke-width: 0.8; stroke-linecap: square"/>
     </g>
     <g id="line2d_10">
      <g>
       <use xlink:href="#m47342c966a" x="440.170478" y="587.52875" style="stroke: #000000; stroke-width: 0.8"/>
      </g>
     </g>
     <g id="text_5">
      <!-- 60 -->
      <g transform="translate(430.170478 608.825625) scale(0.2 -0.2)">
       <defs>
        <path id="SimSun-36" d="M 775 1800 
Q 775 1050 1037 637 
Q 1300 225 1675 225 
Q 2050 225 2250 500 
Q 2450 775 2450 1525 
Q 2450 2025 2237 2300 
Q 2025 2575 1725 2575 
Q 1450 2575 1212 2412 
Q 975 2250 775 1800 
z
M 1750 2825 
Q 2350 2825 2612 2425 
Q 2875 2025 2875 1525 
Q 2875 775 2512 412 
Q 2150 50 1675 50 
Q 1000 50 650 562 
Q 300 1075 300 2050 
Q 300 3200 725 3812 
Q 1150 4425 1875 4425 
Q 2225 4425 2437 4225 
Q 2650 4025 2650 3875 
Q 2650 3725 2587 3650 
Q 2525 3575 2375 3575 
Q 2250 3575 2187 3637 
Q 2125 3700 2125 3825 
Q 2125 3875 2150 3925 
Q 2150 3975 2150 4025 
Q 2150 4125 2075 4187 
Q 2000 4250 1800 4250 
Q 1375 4250 1075 3862 
Q 775 3475 775 2175 
Q 925 2500 1187 2662 
Q 1450 2825 1750 2825 
z
" transform="scale(0.015625)"/>
       </defs>
       <use xlink:href="#SimSun-36"/>
       <use xlink:href="#SimSun-30" x="50"/>
      </g>
     </g>
    </g>
    <g id="xtick_6">
     <g id="line2d_11">
      <path d="M 529.659831 587.52875 
L 529.659831 32.325 
" clip-path="url(#pca895bf51c)" style="fill: none; stroke: #b0b0b0; stroke-width: 0.8; stroke-linecap: square"/>
     </g>
     <g id="line2d_12">
      <g>
       <use xlink:href="#m47342c966a" x="529.659831" y="587.52875" style="stroke: #000000; stroke-width: 0.8"/>
      </g>
     </g>
     <g id="text_6">
      <!-- 75 -->
      <g transform="translate(519.659831 608.825625) scale(0.2 -0.2)">
       <defs>
        <path id="SimSun-37" d="M 2825 4200 
Q 2300 3350 1987 2537 
Q 1675 1725 1675 1125 
Q 1675 1025 1700 850 
Q 1700 650 1700 400 
Q 1700 200 1637 125 
Q 1575 50 1425 50 
Q 1300 50 1212 137 
Q 1125 225 1125 450 
Q 1125 925 1337 1625 
Q 1550 2325 2475 4000 
L 1225 4000 
Q 950 4000 787 3825 
Q 625 3650 550 3300 
L 400 3325 
L 575 4375 
L 2825 4375 
L 2825 4200 
z
" transform="scale(0.015625)"/>
       </defs>
       <use xlink:href="#SimSun-37"/>
       <use xlink:href="#SimSun-35" x="50"/>
      </g>
     </g>
    </g>
    <g id="xtick_7">
     <g id="line2d_13">
      <path d="M 619.149184 587.52875 
L 619.149184 32.325 
" clip-path="url(#pca895bf51c)" style="fill: none; stroke: #b0b0b0; stroke-width: 0.8; stroke-linecap: square"/>
     </g>
     <g id="line2d_14">
      <g>
       <use xlink:href="#m47342c966a" x="619.149184" y="587.52875" style="stroke: #000000; stroke-width: 0.8"/>
      </g>
     </g>
     <g id="text_7">
      <!-- 90 -->
      <g transform="translate(609.149184 608.825625) scale(0.2 -0.2)">
       <defs>
        <path id="SimSun-39" d="M 700 3050 
Q 700 2500 912 2212 
Q 1125 1925 1450 1925 
Q 1825 1925 2100 2275 
Q 2375 2625 2375 2925 
Q 2375 3525 2175 3887 
Q 1975 4250 1525 4250 
Q 1100 4250 900 3912 
Q 700 3575 700 3050 
z
M 1375 1700 
Q 875 1700 575 2012 
Q 275 2325 275 3025 
Q 275 3625 600 4025 
Q 925 4425 1525 4425 
Q 2150 4425 2500 3925 
Q 2850 3425 2850 2475 
Q 2850 1425 2437 737 
Q 2025 50 1300 50 
Q 975 50 737 200 
Q 500 350 500 600 
Q 500 700 562 800 
Q 625 900 775 900 
Q 925 900 975 787 
Q 1025 675 1025 525 
Q 1025 425 1050 362 
Q 1075 300 1100 275 
Q 1125 250 1187 237 
Q 1250 225 1325 225 
Q 1775 225 2050 725 
Q 2325 1225 2375 2400 
Q 2250 2100 2000 1900 
Q 1750 1700 1375 1700 
z
" transform="scale(0.015625)"/>
       </defs>
       <use xlink:href="#SimSun-39"/>
       <use xlink:href="#SimSun-30" x="50"/>
      </g>
     </g>
    </g>
    <g id="xtick_8">
     <g id="line2d_15">
      <path d="M 708.638536 587.52875 
L 708.638536 32.325 
" clip-path="url(#pca895bf51c)" style="fill: none; stroke: #b0b0b0; stroke-width: 0.8; stroke-linecap: square"/>
     </g>
     <g id="line2d_16">
      <g>
       <use xlink:href="#m47342c966a" x="708.638536" y="587.52875" style="stroke: #000000; stroke-width: 0.8"/>
      </g>
     </g>
     <g id="text_8">
      <!-- 105 -->
      <g transform="translate(693.638536 608.825625) scale(0.2 -0.2)">
       <use xlink:href="#SimSun-31"/>
       <use xlink:href="#SimSun-30" x="50"/>
       <use xlink:href="#SimSun-35" x="100"/>
      </g>
     </g>
    </g>
    <g id="xtick_9">
     <g id="line2d_17">
      <path d="M 798.127889 587.52875 
L 798.127889 32.325 
" clip-path="url(#pca895bf51c)" style="fill: none; stroke: #b0b0b0; stroke-width: 0.8; stroke-linecap: square"/>
     </g>
     <g id="line2d_18">
      <g>
       <use xlink:href="#m47342c966a" x="798.127889" y="587.52875" style="stroke: #000000; stroke-width: 0.8"/>
      </g>
     </g>
     <g id="text_9">
      <!-- 120 -->
      <g transform="translate(783.127889 608.825625) scale(0.2 -0.2)">
       <defs>
        <path id="SimSun-32" d="M 2325 3325 
Q 2325 3775 2125 4012 
Q 1925 4250 1525 4250 
Q 1225 4250 1012 4087 
Q 800 3925 800 3675 
Q 800 3525 900 3425 
Q 975 3325 975 3225 
Q 975 3100 912 3037 
Q 850 2975 725 2975 
Q 575 2975 487 3062 
Q 400 3150 400 3350 
Q 400 3875 775 4150 
Q 1150 4425 1575 4425 
Q 2175 4425 2462 4125 
Q 2750 3825 2750 3375 
Q 2750 3075 2612 2775 
Q 2475 2475 2175 2200 
Q 1450 1500 1062 1062 
Q 675 625 600 475 
L 2075 475 
Q 2300 475 2450 650 
Q 2600 825 2650 1175 
L 2800 1175 
L 2650 100 
L 325 100 
L 325 425 
Q 450 650 737 1000 
Q 1025 1350 1500 1825 
Q 1925 2250 2125 2625 
Q 2325 3000 2325 3325 
z
" transform="scale(0.015625)"/>
       </defs>
       <use xlink:href="#SimSun-31"/>
       <use xlink:href="#SimSun-32" x="50"/>
       <use xlink:href="#SimSun-30" x="100"/>
      </g>
     </g>
    </g>
   </g>
   <g id="matplotlib.axis_2">
    <g id="ytick_1">
     <g id="line2d_19">
      <path d="M 46.715625 562.292216 
L 827.659375 562.292216 
" clip-path="url(#pca895bf51c)" style="fill: none; stroke: #b0b0b0; stroke-width: 0.8; stroke-linecap: square"/>
     </g>
     <g id="line2d_20">
      <defs>
       <path id="m1b39626d56" d="M 0 0 
L -3.5 0 
" style="stroke: #000000; stroke-width: 0.8"/>
      </defs>
      <g>
       <use xlink:href="#m1b39626d56" x="46.715625" y="562.292216" style="stroke: #000000; stroke-width: 0.8"/>
      </g>
     </g>
     <g id="text_10">
      <!-- 1 -->
      <g transform="translate(29.715625 569.440653) scale(0.2 -0.2)">
       <use xlink:href="#SimSun-31"/>
      </g>
     </g>
    </g>
    <g id="ytick_2">
     <g id="line2d_21">
      <path d="M 46.715625 461.34608 
L 827.659375 461.34608 
" clip-path="url(#pca895bf51c)" style="fill: none; stroke: #b0b0b0; stroke-width: 0.8; stroke-linecap: square"/>
     </g>
     <g id="line2d_22">
      <g>
       <use xlink:href="#m1b39626d56" x="46.715625" y="461.34608" style="stroke: #000000; stroke-width: 0.8"/>
      </g>
     </g>
     <g id="text_11">
      <!-- 2 -->
      <g transform="translate(29.715625 468.494517) scale(0.2 -0.2)">
       <use xlink:href="#SimSun-32"/>
      </g>
     </g>
    </g>
    <g id="ytick_3">
     <g id="line2d_23">
      <path d="M 46.715625 360.399943 
L 827.659375 360.399943 
" clip-path="url(#pca895bf51c)" style="fill: none; stroke: #b0b0b0; stroke-width: 0.8; stroke-linecap: square"/>
     </g>
     <g id="line2d_24">
      <g>
       <use xlink:href="#m1b39626d56" x="46.715625" y="360.399943" style="stroke: #000000; stroke-width: 0.8"/>
      </g>
     </g>
     <g id="text_12">
      <!-- 3 -->
      <g transform="translate(29.715625 367.548381) scale(0.2 -0.2)">
       <use xlink:href="#SimSun-33"/>
      </g>
     </g>
    </g>
    <g id="ytick_4">
     <g id="line2d_25">
      <path d="M 46.715625 259.453807 
L 827.659375 259.453807 
" clip-path="url(#pca895bf51c)" style="fill: none; stroke: #b0b0b0; stroke-width: 0.8; stroke-linecap: square"/>
     </g>
     <g id="line2d_26">
      <g>
       <use xlink:href="#m1b39626d56" x="46.715625" y="259.453807" style="stroke: #000000; stroke-width: 0.8"/>
      </g>
     </g>
     <g id="text_13">
      <!-- 4 -->
      <g transform="translate(29.715625 266.602244) scale(0.2 -0.2)">
       <use xlink:href="#SimSun-34"/>
      </g>
     </g>
    </g>
    <g id="ytick_5">
     <g id="line2d_27">
      <path d="M 46.715625 158.50767 
L 827.659375 158.50767 
" clip-path="url(#pca895bf51c)" style="fill: none; stroke: #b0b0b0; stroke-width: 0.8; stroke-linecap: square"/>
     </g>
     <g id="line2d_28">
      <g>
       <use xlink:href="#m1b39626d56" x="46.715625" y="158.50767" style="stroke: #000000; stroke-width: 0.8"/>
      </g>
     </g>
     <g id="text_14">
      <!-- 5 -->
      <g transform="translate(29.715625 165.656108) scale(0.2 -0.2)">
       <use xlink:href="#SimSun-35"/>
      </g>
     </g>
    </g>
    <g id="ytick_6">
     <g id="line2d_29">
      <path d="M 46.715625 57.561534 
L 827.659375 57.561534 
" clip-path="url(#pca895bf51c)" style="fill: none; stroke: #b0b0b0; stroke-width: 0.8; stroke-linecap: square"/>
     </g>
     <g id="line2d_30">
      <g>
       <use xlink:href="#m1b39626d56" x="46.715625" y="57.561534" style="stroke: #000000; stroke-width: 0.8"/>
      </g>
     </g>
     <g id="text_15">
      <!-- 6 -->
      <g transform="translate(29.715625 64.709972) scale(0.2 -0.2)">
       <use xlink:href="#SimSun-36"/>
      </g>
     </g>
    </g>
    <g id="text_16">
     <!-- 实例数 -->
     <g transform="translate(23.1375 339.926875) rotate(-90) scale(0.2 -0.2)">
      <defs>
       <path id="SimSun-5b9e" d="M 1950 3625 
Q 2575 3400 2700 3250 
Q 2825 3100 2825 2975 
Q 2825 2850 2750 2700 
Q 2675 2550 2625 2550 
Q 2550 2550 2450 2800 
Q 2275 3175 1900 3550 
L 1950 3625 
z
M 3575 1325 
Q 3500 1100 3425 925 
Q 4650 550 5087 325 
Q 5525 100 5512 -225 
Q 5500 -550 5400 -550 
Q 5300 -550 5075 -300 
Q 4625 175 3375 800 
Q 3025 175 2300 -150 
Q 1575 -475 425 -625 
L 425 -525 
Q 1475 -325 2200 100 
Q 2925 525 3200 1325 
L 1225 1325 
Q 900 1325 625 1250 
L 400 1475 
L 3225 1475 
Q 3325 1950 3375 2575 
Q 3425 3200 3425 3700 
L 4050 3400 
L 3850 3225 
Q 3750 2300 3625 1475 
L 5175 1475 
L 5550 1850 
L 6075 1325 
L 3575 1325 
z
M 1275 2700 
Q 1975 2425 2100 2262 
Q 2225 2100 2225 1975 
Q 2225 1850 2150 1700 
Q 2075 1550 2025 1550 
Q 1950 1550 1850 1800 
Q 1675 2175 1225 2625 
L 1275 2700 
z
M 2750 5225 
L 2825 5275 
Q 3225 5100 3425 4925 
Q 3625 4750 3625 4600 
Q 3625 4450 3512 4300 
Q 3400 4150 3325 4150 
Q 3250 4150 3200 4400 
Q 3100 4775 2750 5225 
z
M 4975 3225 
L 5350 3925 
L 1175 3925 
Q 1225 3525 1125 3300 
Q 1025 3075 787 3100 
Q 550 3125 550 3200 
Q 550 3300 700 3475 
Q 975 3825 1050 4375 
L 1150 4375 
L 1175 4075 
L 5300 4075 
L 5575 4350 
L 6050 3800 
Q 5625 3825 5050 3175 
L 4975 3225 
z
" transform="scale(0.015625)"/>
       <path id="SimSun-4f8b" d="M 3900 3000 
Q 3625 1850 3300 1250 
Q 2975 650 2550 250 
Q 2125 -150 1625 -400 
L 1575 -325 
Q 2175 100 2525 575 
Q 2875 1050 3112 1625 
Q 3350 2200 3550 3075 
L 2700 3075 
Q 2550 2725 2400 2450 
Q 2775 2200 2875 2050 
Q 2975 1900 2975 1825 
Q 2975 1700 2887 1587 
Q 2800 1475 2775 1475 
Q 2700 1475 2650 1725 
Q 2575 2050 2350 2350 
Q 2125 1950 1750 1550 
L 1675 1625 
Q 2100 2200 2362 3012 
Q 2625 3825 2675 4250 
L 2325 4250 
L 2050 4200 
L 1825 4400 
L 3600 4400 
L 3875 4675 
L 4300 4250 
L 3075 4250 
Q 3000 3975 2750 3225 
L 3525 3225 
L 3725 3475 
L 4150 3150 
L 3900 3000 
z
M 4725 2000 
Q 4725 1750 4750 975 
L 4375 800 
Q 4400 1625 4400 1900 
L 4400 3300 
Q 4400 3725 4375 4075 
L 4925 3825 
L 4725 3625 
L 4725 2000 
z
M 5350 3950 
Q 5350 4375 5325 5125 
L 5875 4850 
L 5675 4700 
L 5675 -25 
Q 5700 -425 5175 -600 
Q 5150 -275 4400 -125 
L 4425 0 
Q 5050 -100 5200 -62 
Q 5350 -25 5350 225 
L 5350 3950 
z
M 1100 -600 
Q 1125 225 1125 575 
L 1125 3150 
Q 625 2375 325 2050 
L 250 2100 
Q 800 3025 1075 3800 
Q 1350 4575 1475 5200 
L 2025 4900 
L 1825 4775 
Q 1425 3825 1300 3525 
L 1650 3375 
L 1450 3200 
L 1450 525 
Q 1450 100 1475 -425 
L 1100 -600 
z
" transform="scale(0.015625)"/>
       <path id="SimSun-6570" d="M 1875 1525 
Q 1675 1200 1500 900 
Q 1825 825 2275 725 
Q 2500 975 2725 1525 
L 1875 1525 
z
M 850 4900 
Q 1325 4600 1425 4450 
Q 1525 4300 1525 4225 
Q 1525 4100 1437 3975 
Q 1350 3850 1300 3850 
Q 1225 3850 1150 4100 
Q 1050 4450 775 4850 
L 850 4900 
z
M 3000 4975 
L 3450 4675 
Q 3250 4625 3100 4425 
Q 2925 4225 2525 3825 
L 2450 3875 
Q 2925 4625 3000 4975 
z
M 1875 5250 
L 2425 5000 
L 2225 4825 
L 2225 3675 
L 2850 3675 
L 3125 3950 
L 3550 3525 
L 2225 3525 
L 2225 3300 
Q 2800 3175 2937 3062 
Q 3075 2950 3075 2775 
Q 3075 2700 3050 2587 
Q 3025 2475 2975 2475 
Q 2925 2475 2800 2650 
Q 2600 2925 2225 3175 
L 2225 2400 
L 1925 2200 
L 2275 2050 
Q 2150 2000 1950 1675 
L 2725 1675 
L 2900 1900 
L 3275 1575 
L 3050 1450 
Q 2800 875 2600 650 
Q 3000 550 3137 437 
Q 3275 325 3275 150 
Q 3275 -25 3200 -25 
Q 3125 -25 3025 75 
Q 2750 275 2400 425 
Q 1525 -275 325 -500 
L 300 -425 
Q 1450 -50 2100 550 
Q 1600 725 1125 800 
Q 1225 950 1525 1525 
L 1200 1525 
Q 875 1525 600 1450 
L 375 1675 
L 1575 1675 
Q 1675 1925 1775 2275 
L 1900 2225 
L 1900 3250 
Q 1225 2475 350 2050 
L 300 2125 
Q 1225 2775 1700 3525 
L 1250 3525 
Q 925 3525 650 3450 
L 425 3675 
L 1900 3675 
Q 1900 4575 1875 5250 
z
M 3925 3525 
Q 4050 2075 4525 1100 
Q 4925 1950 5025 3525 
L 3925 3525 
z
M 4050 5250 
L 4625 4925 
Q 4425 4850 4325 4625 
Q 4225 4400 3950 3675 
L 5375 3675 
L 5675 3975 
L 6125 3525 
L 5400 3525 
Q 5250 1675 4750 775 
Q 5325 75 6100 -100 
L 6100 -200 
Q 5625 -275 5600 -500 
Q 4950 -50 4525 525 
Q 3700 -275 2550 -650 
L 2500 -575 
Q 3650 -50 4325 800 
Q 3850 1975 3825 3375 
Q 3575 2725 3100 2150 
L 3025 2200 
Q 3625 3200 4050 5250 
z
" transform="scale(0.015625)"/>
      </defs>
      <use xlink:href="#SimSun-5b9e"/>
      <use xlink:href="#SimSun-4f8b" x="100"/>
      <use xlink:href="#SimSun-6570" x="200"/>
     </g>
    </g>
   </g>
   <g id="line2d_31">
    <path d="M 82.213068 562.292216 
L 88.179025 562.292216 
L 94.144982 562.292216 
L 100.110939 562.292216 
L 106.076896 562.292216 
L 112.042852 562.292216 
L 118.008809 562.292216 
L 123.974766 562.292216 
L 129.940723 562.292216 
L 135.90668 562.292216 
L 141.872637 562.292216 
L 147.838593 562.292216 
L 153.80455 562.292216 
L 159.770507 562.292216 
L 165.736464 562.292216 
L 171.702421 461.34608 
L 177.668378 461.34608 
L 183.634334 461.34608 
L 189.600291 461.34608 
L 195.566248 461.34608 
L 201.532205 461.34608 
L 207.498162 461.34608 
L 213.464119 360.399943 
L 219.430075 360.399943 
L 225.396032 360.399943 
L 231.361989 259.453807 
L 237.327946 259.453807 
L 243.293903 259.453807 
L 249.25986 158.50767 
L 255.225816 158.50767 
L 261.191773 158.50767 
L 267.15773 158.50767 
L 273.123687 158.50767 
L 279.089644 158.50767 
L 285.055601 158.50767 
L 291.021557 259.453807 
L 296.987514 259.453807 
L 302.953471 259.453807 
L 308.919428 360.399943 
L 314.885385 360.399943 
L 320.851342 360.399943 
L 326.817299 360.399943 
L 332.783255 461.34608 
L 338.749212 461.34608 
L 344.715169 461.34608 
L 350.681126 461.34608 
L 356.647083 461.34608 
L 362.61304 461.34608 
L 368.578996 562.292216 
L 374.544953 562.292216 
L 380.51091 562.292216 
L 386.476867 562.292216 
L 392.442824 562.292216 
L 398.408781 562.292216 
L 404.374737 562.292216 
L 410.340694 562.292216 
L 416.306651 562.292216 
L 422.272608 562.292216 
L 428.238565 562.292216 
L 434.204522 562.292216 
L 440.170478 562.292216 
L 446.136435 562.292216 
L 452.102392 562.292216 
L 458.068349 562.292216 
L 464.034306 562.292216 
L 470.000263 562.292216 
L 475.966219 562.292216 
L 481.932176 562.292216 
L 487.898133 562.292216 
L 493.86409 562.292216 
L 499.830047 562.292216 
L 505.796004 562.292216 
L 511.76196 562.292216 
L 517.727917 461.34608 
L 523.693874 461.34608 
L 529.659831 461.34608 
L 535.625788 461.34608 
L 541.591745 461.34608 
L 547.557701 461.34608 
L 553.523658 461.34608 
L 559.489615 461.34608 
L 565.455572 360.399943 
L 571.421529 360.399943 
L 577.387486 360.399943 
L 583.353443 360.399943 
L 589.319399 259.453807 
L 595.285356 259.453807 
L 601.251313 259.453807 
L 607.21727 158.50767 
L 613.183227 158.50767 
L 619.149184 158.50767 
L 625.11514 158.50767 
L 631.081097 158.50767 
L 637.047054 158.50767 
L 643.013011 158.50767 
L 648.978968 158.50767 
L 654.944925 259.453807 
L 660.910881 259.453807 
L 666.876838 259.453807 
L 672.842795 360.399943 
L 678.808752 360.399943 
L 684.774709 360.399943 
L 690.740666 360.399943 
L 696.706622 461.34608 
L 702.672579 461.34608 
L 708.638536 461.34608 
L 714.604493 461.34608 
L 720.57045 461.34608 
L 726.536407 461.34608 
L 732.502363 562.292216 
L 738.46832 562.292216 
L 744.434277 562.292216 
L 750.400234 562.292216 
L 756.366191 562.292216 
L 762.332148 562.292216 
L 768.298104 562.292216 
L 774.264061 562.292216 
L 780.230018 562.292216 
L 786.195975 562.292216 
L 792.161932 562.292216 
" clip-path="url(#pca895bf51c)" style="fill: none; stroke: #1f77b4; stroke-width: 1.5; stroke-linecap: square"/>
   </g>
   <g id="line2d_32">
    <path d="M 82.213068 562.292216 
L 88.179025 562.292216 
L 94.144982 562.292216 
L 100.110939 562.292216 
L 106.076896 562.292216 
L 112.042852 562.292216 
L 118.008809 562.292216 
L 123.974766 562.292216 
L 129.940723 562.292216 
L 135.90668 562.292216 
L 141.872637 562.292216 
L 147.838593 562.292216 
L 153.80455 562.292216 
L 159.770507 562.292216 
L 165.736464 562.292216 
L 171.702421 562.292216 
L 177.668378 562.292216 
L 183.634334 562.292216 
L 189.600291 461.34608 
L 195.566248 461.34608 
L 201.532205 461.34608 
L 207.498162 461.34608 
L 213.464119 461.34608 
L 219.430075 461.34608 
L 225.396032 461.34608 
L 231.361989 360.399943 
L 237.327946 259.453807 
L 243.293903 259.453807 
L 249.25986 158.50767 
L 255.225816 57.561534 
L 261.191773 57.561534 
L 267.15773 57.561534 
L 273.123687 57.561534 
L 279.089644 57.561534 
L 285.055601 57.561534 
L 291.021557 259.453807 
L 296.987514 259.453807 
L 302.953471 259.453807 
L 308.919428 259.453807 
L 314.885385 259.453807 
L 320.851342 259.453807 
L 326.817299 259.453807 
L 332.783255 259.453807 
L 338.749212 259.453807 
L 344.715169 360.399943 
L 350.681126 360.399943 
L 356.647083 360.399943 
L 362.61304 360.399943 
L 368.578996 360.399943 
L 374.544953 360.399943 
L 380.51091 360.399943 
L 386.476867 360.399943 
L 392.442824 360.399943 
L 398.408781 360.399943 
L 404.374737 360.399943 
L 410.340694 461.34608 
L 416.306651 461.34608 
L 422.272608 461.34608 
L 428.238565 461.34608 
L 434.204522 461.34608 
L 440.170478 461.34608 
L 446.136435 562.292216 
L 452.102392 562.292216 
L 458.068349 562.292216 
L 464.034306 562.292216 
L 470.000263 562.292216 
L 475.966219 562.292216 
L 481.932176 562.292216 
L 487.898133 562.292216 
L 493.86409 562.292216 
L 499.830047 562.292216 
L 505.796004 562.292216 
L 511.76196 562.292216 
L 517.727917 562.292216 
L 523.693874 562.292216 
L 529.659831 461.34608 
L 535.625788 461.34608 
L 541.591745 461.34608 
L 547.557701 461.34608 
L 553.523658 461.34608 
L 559.489615 461.34608 
L 565.455572 461.34608 
L 571.421529 461.34608 
L 577.387486 461.34608 
L 583.353443 461.34608 
L 589.319399 461.34608 
L 595.285356 360.399943 
L 601.251313 360.399943 
L 607.21727 259.453807 
L 613.183227 259.453807 
L 619.149184 158.50767 
L 625.11514 158.50767 
L 631.081097 158.50767 
L 637.047054 158.50767 
L 643.013011 158.50767 
L 648.978968 158.50767 
L 654.944925 158.50767 
L 660.910881 259.453807 
L 666.876838 259.453807 
L 672.842795 259.453807 
L 678.808752 259.453807 
L 684.774709 259.453807 
L 690.740666 259.453807 
L 696.706622 360.399943 
L 702.672579 360.399943 
L 708.638536 360.399943 
L 714.604493 360.399943 
L 720.57045 360.399943 
L 726.536407 360.399943 
L 732.502363 360.399943 
L 738.46832 360.399943 
L 744.434277 360.399943 
L 750.400234 360.399943 
L 756.366191 461.34608 
L 762.332148 461.34608 
L 768.298104 461.34608 
L 774.264061 461.34608 
L 780.230018 461.34608 
L 786.195975 461.34608 
L 792.161932 461.34608 
" clip-path="url(#pca895bf51c)" style="fill: none; stroke: #ff7f0e; stroke-width: 1.5; stroke-linecap: square"/>
   </g>
   <g id="patch_3">
    <path d="M 46.715625 587.52875 
L 46.715625 32.325 
" style="fill: none; stroke: #000000; stroke-width: 0.8; stroke-linejoin: miter; stroke-linecap: square"/>
   </g>
   <g id="patch_4">
    <path d="M 827.659375 587.52875 
L 827.659375 32.325 
" style="fill: none; stroke: #000000; stroke-width: 0.8; stroke-linejoin: miter; stroke-linecap: square"/>
   </g>
   <g id="patch_5">
    <path d="M 46.715625 587.52875 
L 827.659375 587.52875 
" style="fill: none; stroke: #000000; stroke-width: 0.8; stroke-linejoin: miter; stroke-linecap: square"/>
   </g>
   <g id="patch_6">
    <path d="M 46.715625 32.325 
L 827.659375 32.325 
" style="fill: none; stroke: #000000; stroke-width: 0.8; stroke-linejoin: miter; stroke-linecap: square"/>
   </g>
   <g id="text_17">
    <!-- API实例数变化 -->
    <g transform="translate(359.1875 26.325) scale(0.24 -0.24)">
     <defs>
      <path id="SimSun-41" d="M 2025 1700 
L 900 1700 
L 675 750 
Q 650 625 650 550 
Q 650 450 687 350 
Q 725 250 900 250 
L 975 250 
L 975 100 
L 50 100 
L 50 250 
L 125 250 
Q 225 250 300 312 
Q 375 375 400 525 
L 1375 4350 
L 1750 4475 
L 2700 525 
Q 2750 375 2825 312 
Q 2900 250 3000 250 
L 3075 250 
L 3075 100 
L 2000 100 
L 2000 250 
L 2100 250 
Q 2250 250 2275 312 
Q 2300 375 2300 425 
Q 2300 525 2275 600 
L 2025 1700 
z
M 325 250 
L 325 250 
z
M 575 250 
L 575 250 
z
M 2350 250 
L 2350 250 
z
M 2775 250 
L 2775 250 
z
M 1500 3925 
L 1475 3925 
L 950 1850 
L 2000 1850 
L 1500 3925 
z
" transform="scale(0.015625)"/>
      <path id="SimSun-50" d="M 950 2100 
L 950 450 
Q 950 350 1012 300 
Q 1075 250 1175 250 
L 1350 250 
L 1350 100 
L 150 100 
L 150 250 
L 325 250 
Q 450 250 500 300 
Q 550 350 550 450 
L 550 4025 
Q 550 4125 500 4175 
Q 450 4225 325 4225 
L 175 4225 
L 175 4375 
L 1650 4375 
Q 2275 4375 2612 4062 
Q 2950 3750 2950 3275 
Q 2950 2700 2587 2400 
Q 2225 2100 1725 2100 
L 950 2100 
z
M 1575 2250 
Q 1950 2250 2237 2475 
Q 2525 2700 2525 3250 
Q 2525 3750 2287 3987 
Q 2050 4225 1525 4225 
L 1175 4225 
Q 1075 4225 1012 4175 
Q 950 4125 950 4025 
L 950 2250 
L 1575 2250 
z
" transform="scale(0.015625)"/>
      <path id="SimSun-49" d="M 600 4225 
L 600 4375 
L 2600 4375 
L 2600 4225 
L 2025 4225 
Q 1925 4225 1862 4175 
Q 1800 4125 1800 4025 
L 1800 450 
Q 1800 350 1862 300 
Q 1925 250 2025 250 
L 2600 250 
L 2600 100 
L 600 100 
L 600 250 
L 1175 250 
Q 1300 250 1350 300 
Q 1400 350 1400 450 
L 1400 4025 
Q 1400 4125 1350 4175 
Q 1300 4225 1175 4225 
L 600 4225 
z
" transform="scale(0.015625)"/>
      <path id="SimSun-53d8" d="M 2750 4225 
L 2750 2225 
L 3650 2225 
L 3650 4225 
L 2750 4225 
z
M 375 4375 
L 3100 4375 
Q 3050 4750 2650 5200 
L 2700 5275 
Q 3150 5075 3325 4925 
Q 3500 4775 3500 4700 
Q 3500 4550 3300 4375 
L 5125 4375 
L 5525 4775 
L 6075 4225 
L 4000 4225 
L 4000 2225 
L 4425 2225 
L 4675 2500 
L 5100 2100 
L 4825 1975 
Q 4300 1325 3525 650 
Q 4500 -50 6125 -175 
L 6125 -275 
Q 5750 -325 5625 -575 
Q 4175 -250 3300 450 
Q 2150 -300 350 -600 
L 325 -500 
Q 2050 -100 3075 675 
Q 2525 1250 2100 2075 
L 1650 2075 
L 1375 2025 
L 1175 2225 
L 2400 2225 
L 2400 4225 
L 1200 4225 
Q 875 4225 600 4150 
L 375 4375 
z
M 2275 2075 
Q 2725 1350 3300 850 
Q 3800 1300 4425 2075 
L 2275 2075 
z
M 1675 3850 
L 2125 3450 
L 1875 3350 
Q 1150 2575 325 1950 
L 250 2025 
Q 700 2425 1087 2937 
Q 1475 3450 1675 3850 
z
M 4350 3700 
Q 5675 3050 5812 2875 
Q 5950 2700 5950 2575 
Q 5950 2475 5900 2375 
Q 5850 2275 5800 2275 
Q 5700 2275 5500 2550 
Q 5200 2950 4275 3625 
L 4350 3700 
z
" transform="scale(0.015625)"/>
      <path id="SimSun-5316" d="M 1375 -600 
Q 1400 200 1400 925 
L 1400 3125 
Q 850 2300 350 1775 
L 275 1850 
Q 825 2625 1300 3650 
Q 1775 4675 1900 5200 
L 2450 4875 
L 2200 4725 
Q 1875 4000 1600 3475 
L 1950 3275 
L 1750 3075 
L 1750 350 
Q 1750 75 1775 -400 
L 1375 -600 
z
M 3450 2125 
L 3450 3925 
Q 3450 4475 3425 5200 
L 4000 4925 
L 3800 4725 
L 3800 2400 
Q 4150 2725 4562 3225 
Q 4975 3725 5150 4025 
L 5600 3600 
L 5325 3525 
Q 4600 2700 3800 2000 
L 3800 425 
Q 3800 0 4225 0 
L 5300 0 
Q 5500 0 5550 325 
Q 5600 650 5600 1325 
L 5725 1325 
Q 5775 650 5850 425 
Q 5925 200 6125 125 
Q 5900 -325 5400 -325 
L 4075 -325 
Q 3450 -325 3450 250 
L 3450 1775 
Q 2800 1275 1950 925 
L 1925 1025 
Q 2800 1525 3450 2125 
z
" transform="scale(0.015625)"/>
     </defs>
     <use xlink:href="#SimSun-41"/>
     <use xlink:href="#SimSun-50" x="50"/>
     <use xlink:href="#SimSun-49" x="100"/>
     <use xlink:href="#SimSun-5b9e" x="150"/>
     <use xlink:href="#SimSun-4f8b" x="250"/>
     <use xlink:href="#SimSun-6570" x="350"/>
     <use xlink:href="#SimSun-53d8" x="450"/>
     <use xlink:href="#SimSun-5316" x="550"/>
    </g>
   </g>
   <g id="legend_1">
    <g id="patch_7">
     <path d="M 609.659375 105.2 
L 813.659375 105.2 
Q 817.659375 105.2 817.659375 101.2 
L 817.659375 46.325 
Q 817.659375 42.325 813.659375 42.325 
L 609.659375 42.325 
Q 605.659375 42.325 605.659375 46.325 
L 605.659375 101.2 
Q 605.659375 105.2 609.659375 105.2 
z
" style="fill: #ffffff; opacity: 0.8; stroke: #cccccc; stroke-linejoin: miter"/>
    </g>
    <g id="line2d_33">
     <path d="M 613.659375 59.184375 
L 633.659375 59.184375 
L 653.659375 59.184375 
" style="fill: none; stroke: #1f77b4; stroke-width: 1.5; stroke-linecap: square"/>
    </g>
    <g id="text_18">
     <!-- 实验组—预测式 -->
     <g transform="translate(669.659375 66.184375) scale(0.2 -0.2)">
      <defs>
       <path id="SimSun-9a8c" d="M 4050 5225 
L 4550 4925 
L 4350 4800 
Q 5050 3225 6125 2975 
L 6125 2900 
Q 5750 2850 5650 2600 
Q 4700 3325 4275 4725 
Q 3575 3225 2525 2475 
L 2475 2550 
Q 3075 3150 3500 3925 
Q 3925 4700 4050 5225 
z
M 3025 2800 
L 4650 2800 
L 4950 3100 
L 5350 2650 
L 3850 2650 
Q 3525 2650 3250 2575 
L 3025 2800 
z
M 2925 2000 
L 3000 2050 
Q 3475 1300 3537 1100 
Q 3600 900 3600 775 
Q 3600 625 3512 475 
Q 3425 325 3312 337 
Q 3200 350 3175 800 
Q 3150 1250 2925 2000 
z
M 3650 2225 
L 3725 2275 
Q 4375 1450 4425 1100 
Q 4475 750 4337 650 
Q 4200 550 4175 550 
Q 4075 550 4050 800 
Q 4025 1150 3900 1562 
Q 3775 1975 3650 2225 
z
M 5175 2300 
L 5700 1950 
Q 5525 1875 5325 1412 
Q 5125 950 4675 -150 
L 5300 -150 
L 5650 200 
L 6100 -300 
L 3375 -300 
Q 3050 -300 2775 -375 
L 2550 -150 
L 4525 -150 
Q 5175 1900 5175 2300 
z
M 400 4675 
L 1950 4675 
L 2150 4925 
L 2525 4600 
L 2300 4450 
L 2050 2275 
L 2225 2275 
L 2375 2475 
L 2750 2175 
L 2550 2025 
Q 2425 500 2300 175 
Q 2175 -150 1975 -287 
Q 1775 -425 1550 -475 
Q 1525 -125 825 100 
L 850 200 
Q 1550 50 1725 62 
Q 1900 75 2012 437 
Q 2125 800 2225 2125 
L 1000 2125 
L 825 1925 
L 500 2225 
L 675 2325 
Q 875 3750 900 4200 
L 1400 3925 
L 1200 3775 
L 1000 2275 
L 1725 2275 
L 1975 4525 
L 1225 4525 
Q 900 4525 625 4450 
L 400 4675 
z
M 225 1075 
Q 725 1125 2000 1375 
L 2025 1275 
Q 600 850 500 650 
L 225 1075 
z
" transform="scale(0.015625)"/>
       <path id="SimSun-7ec4" d="M 1000 1525 
Q 1950 1675 2400 1775 
L 2425 1675 
Q 2100 1575 1537 1387 
Q 975 1200 750 1025 
L 475 1475 
Q 725 1550 987 1875 
Q 1250 2200 1750 3000 
Q 1375 2925 1087 2812 
Q 800 2700 625 2600 
L 400 3025 
Q 650 3075 1025 3912 
Q 1400 4750 1475 5175 
L 1925 4875 
Q 1700 4650 1475 4200 
Q 1225 3750 775 3025 
L 1800 3125 
Q 2050 3600 2200 4075 
L 2625 3775 
Q 2500 3650 2125 3075 
Q 1750 2475 1000 1525 
z
M 325 250 
Q 625 300 1312 475 
Q 2000 650 2525 825 
L 2575 700 
Q 2225 575 1525 262 
Q 825 -50 625 -225 
L 325 250 
z
M 3250 4550 
L 3250 3175 
L 4850 3175 
L 4850 4550 
L 3250 4550 
z
M 3250 3025 
L 3250 1625 
L 4850 1625 
L 4850 3025 
L 3250 3025 
z
M 3250 1475 
L 3250 -50 
L 4850 -50 
L 4850 1475 
L 3250 1475 
z
M 2925 3475 
Q 2925 4500 2900 4925 
L 3250 4700 
L 4825 4700 
L 5025 4975 
L 5425 4650 
L 5200 4450 
L 5200 -50 
L 5375 -50 
L 5750 300 
L 6175 -200 
L 2825 -200 
Q 2500 -200 2225 -275 
L 2000 -50 
L 2925 -50 
L 2925 3475 
z
" transform="scale(0.015625)"/>
       <path id="SimSun-2014" d="M 200 2200 
L 200 2450 
L 6225 2450 
L 6225 2200 
L 200 2200 
z
" transform="scale(0.015625)"/>
       <path id="SimSun-9884" d="M 475 4825 
L 2225 4825 
L 2425 5075 
L 2825 4675 
Q 2600 4625 2387 4412 
Q 2175 4200 1800 3750 
Q 2050 3575 2037 3400 
Q 2025 3225 1937 3150 
Q 1850 3075 1825 3075 
Q 1725 3075 1650 3300 
Q 1525 3600 1050 4100 
L 1100 4150 
Q 1475 3975 1700 3825 
L 2225 4675 
L 1300 4675 
Q 975 4675 700 4600 
L 475 4825 
z
M 725 100 
Q 1175 50 1362 37 
Q 1550 25 1550 275 
L 1550 2875 
L 1125 2875 
Q 800 2875 525 2800 
L 300 3025 
L 2525 3025 
L 2725 3275 
L 3150 2875 
Q 2800 2825 2275 2075 
L 2200 2125 
L 2550 2875 
L 1875 2875 
L 1875 150 
Q 1875 -400 1350 -500 
Q 1325 -175 725 0 
L 725 100 
z
M 3250 775 
Q 3275 1425 3275 2287 
Q 3275 3150 3250 3900 
L 3600 3700 
L 4050 3700 
Q 4175 4400 4200 4675 
L 3650 4675 
Q 3325 4675 3050 4600 
L 2825 4825 
L 5325 4825 
L 5675 5150 
L 6125 4675 
L 4675 4675 
Q 4500 4425 4175 3700 
L 5300 3700 
L 5475 3975 
L 5875 3675 
L 5675 3475 
L 5675 1950 
Q 5675 1525 5700 1075 
L 5350 875 
L 5350 3550 
L 3600 3550 
L 3600 1000 
L 3250 775 
z
M 4850 2875 
L 4625 2675 
Q 4625 1475 4475 937 
Q 4325 400 3900 50 
Q 3475 -300 2425 -625 
L 2400 -550 
Q 3500 -50 3837 400 
Q 4175 850 4237 1587 
Q 4300 2325 4275 3175 
L 4850 2875 
z
M 4650 950 
Q 5725 375 5875 212 
Q 6025 50 6025 -125 
Q 6025 -225 5962 -387 
Q 5900 -550 5850 -550 
Q 5800 -550 5750 -450 
Q 5625 -250 5437 0 
Q 5250 250 4600 875 
L 4650 950 
z
" transform="scale(0.015625)"/>
       <path id="SimSun-6d4b" d="M 1975 1000 
Q 2000 1475 2000 2925 
Q 2000 4375 1975 5000 
L 2350 4775 
L 3575 4775 
L 3775 4975 
L 4100 4650 
L 3900 4500 
L 3900 2350 
Q 3900 1850 3925 1350 
L 3600 1200 
L 3600 4625 
L 2325 4625 
L 2325 1150 
L 1975 1000 
z
M 2775 3975 
L 3300 3700 
L 3125 3525 
Q 3150 1825 2875 937 
Q 2600 50 1375 -600 
L 1325 -500 
Q 2200 100 2475 725 
Q 2750 1350 2775 2187 
Q 2800 3025 2775 3975 
z
M 3100 950 
Q 3825 450 3937 262 
Q 4050 75 4050 -25 
Q 4050 -150 3975 -262 
Q 3900 -375 3850 -375 
Q 3750 -375 3650 -75 
Q 3500 375 3050 875 
L 3100 950 
z
M 4475 825 
Q 4500 1200 4500 1700 
L 4500 3400 
Q 4500 3950 4475 4300 
L 5025 4025 
L 4825 3825 
L 4825 1700 
Q 4825 1325 4850 950 
L 4475 825 
z
M 5375 150 
L 5375 4050 
Q 5375 4750 5350 5125 
L 5875 4875 
L 5700 4700 
L 5700 75 
Q 5700 -200 5600 -350 
Q 5500 -500 5200 -600 
Q 5025 -225 4450 -50 
L 4450 50 
Q 5125 -50 5250 -37 
Q 5375 -25 5375 150 
z
M 1850 3500 
Q 1375 1525 1300 1225 
Q 1200 900 1212 450 
Q 1225 0 1250 -175 
Q 1250 -275 1125 -275 
Q 1025 -275 875 -225 
Q 725 -175 725 0 
Q 725 125 800 375 
Q 875 625 875 775 
Q 875 950 762 1050 
Q 650 1150 275 1250 
L 275 1350 
Q 725 1300 837 1312 
Q 950 1325 1087 1537 
Q 1225 1750 1750 3525 
L 1850 3500 
z
M 375 3775 
Q 1075 3350 1112 3100 
Q 1150 2850 1050 2775 
Q 950 2700 900 2700 
Q 800 2700 725 2975 
Q 600 3350 325 3700 
L 375 3775 
z
M 800 5100 
Q 1475 4725 1550 4512 
Q 1625 4300 1525 4187 
Q 1425 4075 1350 4075 
Q 1275 4075 1200 4300 
Q 1075 4650 750 5025 
L 800 5100 
z
" transform="scale(0.015625)"/>
       <path id="SimSun-5f0f" d="M 2200 575 
L 3650 900 
L 3675 800 
Q 2150 325 1487 87 
Q 825 -150 725 -300 
L 375 175 
Q 1175 325 1850 475 
L 1850 2400 
L 1425 2400 
Q 1100 2400 825 2325 
L 600 2550 
L 2625 2550 
L 2950 2875 
L 3425 2400 
L 2200 2400 
L 2200 575 
z
M 4425 4975 
Q 4900 4800 5112 4662 
Q 5325 4525 5312 4350 
Q 5300 4175 5225 4100 
Q 5150 4025 5100 4025 
Q 5000 4025 4925 4225 
Q 4775 4525 4375 4900 
L 4425 4975 
z
M 3875 4775 
Q 3875 4200 3900 3775 
L 5050 3775 
L 5450 4175 
L 6000 3625 
L 3900 3625 
Q 4000 2350 4237 1662 
Q 4475 975 4787 600 
Q 5100 225 5600 25 
Q 5675 525 5775 1225 
L 5900 1225 
Q 5875 250 5937 -62 
Q 6000 -375 6100 -525 
Q 6150 -600 6050 -600 
Q 5950 -600 5487 -437 
Q 5025 -275 4600 187 
Q 4175 650 3900 1475 
Q 3625 2300 3550 3625 
L 1350 3625 
Q 1025 3625 750 3550 
L 525 3775 
L 3525 3775 
Q 3500 4500 3475 5225 
L 4100 4950 
L 3875 4775 
z
" transform="scale(0.015625)"/>
      </defs>
      <use xlink:href="#SimSun-5b9e"/>
      <use xlink:href="#SimSun-9a8c" x="100"/>
      <use xlink:href="#SimSun-7ec4" x="200"/>
      <use xlink:href="#SimSun-2014" x="300"/>
      <use xlink:href="#SimSun-9884" x="400"/>
      <use xlink:href="#SimSun-6d4b" x="500"/>
      <use xlink:href="#SimSun-5f0f" x="600"/>
     </g>
    </g>
    <g id="line2d_34">
     <path d="M 613.659375 87.621875 
L 633.659375 87.621875 
L 653.659375 87.621875 
" style="fill: none; stroke: #ff7f0e; stroke-width: 1.5; stroke-linecap: square"/>
    </g>
    <g id="text_19">
     <!-- 对照组—被动式 -->
     <g transform="translate(669.659375 94.621875) scale(0.2 -0.2)">
      <defs>
       <path id="SimSun-5bf9" d="M 400 4250 
L 2375 4250 
L 2575 4500 
L 3000 4150 
L 2750 3950 
Q 2400 2850 2075 2100 
Q 2575 1375 2675 1062 
Q 2775 750 2762 537 
Q 2750 325 2662 237 
Q 2575 150 2550 150 
Q 2450 150 2375 575 
Q 2250 1075 1925 1800 
Q 1675 1350 1275 875 
Q 875 400 250 -100 
L 225 25 
Q 675 450 1087 1037 
Q 1500 1625 1725 2100 
Q 1000 3125 675 3550 
L 750 3625 
Q 1300 3025 1850 2400 
Q 2100 3050 2375 4100 
L 1225 4100 
Q 900 4100 625 4025 
L 400 4250 
z
M 3600 125 
Q 4375 0 4537 25 
Q 4700 50 4700 225 
L 4700 3350 
L 3525 3350 
Q 3200 3350 2925 3275 
L 2700 3500 
L 4700 3500 
L 4700 4350 
Q 4700 4800 4675 5125 
L 5275 4825 
L 5050 4625 
L 5050 3500 
L 5325 3500 
L 5650 3825 
L 6125 3350 
L 5050 3350 
L 5050 50 
Q 5050 -375 4500 -600 
Q 4500 -300 3600 0 
L 3600 125 
z
M 3100 2775 
L 3175 2825 
Q 3700 2400 3812 2175 
Q 3925 1950 3925 1800 
Q 3925 1625 3800 1462 
Q 3675 1300 3650 1300 
Q 3550 1300 3525 1650 
Q 3450 2125 3100 2775 
z
" transform="scale(0.015625)"/>
       <path id="SimSun-7167" d="M 750 4975 
L 1100 4750 
L 2050 4750 
L 2225 5025 
L 2600 4700 
L 2400 4525 
Q 2400 1700 2425 1350 
L 2075 1225 
L 2075 1625 
L 1100 1625 
L 1100 1200 
L 750 1025 
Q 775 1575 775 2950 
Q 775 4325 750 4975 
z
M 1100 4600 
L 1100 3275 
L 2075 3275 
L 2075 4600 
L 1100 4600 
z
M 1100 3125 
L 1100 1775 
L 2075 1775 
L 2075 3125 
L 1100 3125 
z
M 4075 4725 
Q 3825 3375 2625 2750 
L 2575 2825 
Q 3575 3675 3700 4725 
L 3650 4725 
Q 3325 4725 3050 4650 
L 2825 4875 
L 5125 4875 
L 5300 5100 
L 5700 4775 
L 5500 4625 
Q 5400 3825 5250 3537 
Q 5100 3250 4700 3150 
Q 4700 3500 4150 3650 
L 4175 3750 
Q 4500 3675 4700 3675 
Q 4825 3675 4937 3725 
Q 5050 3775 5150 4725 
L 4075 4725 
z
M 3600 2725 
L 3600 1725 
L 5075 1725 
L 5075 2725 
L 3600 2725 
z
M 3225 1300 
Q 3250 1825 3250 2237 
Q 3250 2650 3225 3050 
L 3600 2875 
L 5050 2875 
L 5225 3125 
L 5600 2850 
L 5425 2675 
Q 5425 1775 5450 1475 
L 5075 1350 
L 5075 1575 
L 3600 1575 
L 3600 1425 
L 3225 1300 
z
M 1250 950 
Q 1275 100 1100 -175 
Q 925 -450 687 -400 
Q 450 -350 450 -275 
Q 450 -175 600 -50 
Q 900 250 1150 950 
L 1250 950 
z
M 2125 1000 
Q 2525 650 2662 425 
Q 2800 200 2800 75 
Q 2800 -100 2675 -237 
Q 2550 -375 2500 -375 
Q 2400 -375 2375 -50 
Q 2325 425 2050 950 
L 2125 1000 
z
M 3500 1025 
Q 4050 575 4150 412 
Q 4250 250 4250 125 
Q 4250 -50 4150 -187 
Q 4050 -325 3975 -325 
Q 3900 -325 3850 -75 
Q 3775 350 3425 975 
L 3500 1025 
z
M 4900 1025 
Q 5650 525 5762 337 
Q 5875 150 5875 50 
Q 5875 -100 5762 -275 
Q 5650 -450 5600 -450 
Q 5525 -450 5450 -175 
Q 5325 275 4825 975 
L 4900 1025 
z
" transform="scale(0.015625)"/>
       <path id="SimSun-88ab" d="M 3125 3825 
L 3125 2500 
L 4025 2500 
L 4025 3825 
L 3125 3825 
z
M 3550 2350 
Q 3875 1425 4325 875 
Q 4750 1400 5050 2350 
L 3550 2350 
z
M 5400 2200 
Q 5025 1200 4525 625 
Q 5150 0 6125 -150 
L 6125 -225 
Q 5800 -275 5650 -525 
Q 4950 -225 4325 425 
Q 3475 -275 2450 -600 
L 2425 -500 
Q 3375 -75 4125 650 
Q 3700 1300 3450 2350 
L 3125 2350 
Q 3100 1350 2837 650 
Q 2575 -50 1850 -650 
L 1775 -575 
Q 2300 -25 2537 662 
Q 2775 1350 2787 2487 
Q 2800 3625 2775 4225 
L 3175 3975 
L 4025 3975 
Q 4025 4825 4000 5250 
L 4525 5025 
L 4350 4825 
L 4350 3975 
L 5350 3975 
L 5600 4225 
L 6025 3750 
Q 5850 3725 5687 3650 
Q 5525 3575 5175 3125 
L 5075 3175 
L 5375 3825 
L 4350 3825 
L 4350 2500 
L 5025 2500 
L 5250 2725 
L 5625 2350 
L 5400 2200 
z
M 2150 3650 
Q 1950 3200 1600 2625 
L 1600 2125 
L 1750 2050 
Q 2075 2600 2200 3025 
L 2625 2700 
L 2425 2600 
Q 2125 2300 1825 2000 
Q 2350 1700 2387 1575 
Q 2425 1450 2425 1375 
Q 2425 1225 2350 1137 
Q 2275 1050 2250 1050 
Q 2175 1050 2125 1250 
Q 2025 1525 1600 2000 
Q 1600 150 1625 -425 
L 1250 -600 
Q 1275 0 1275 2200 
Q 825 1650 300 1275 
L 250 1350 
Q 775 1850 1162 2475 
Q 1550 3100 1800 3750 
L 1200 3750 
Q 875 3750 600 3675 
L 375 3900 
L 1775 3900 
L 2025 4150 
L 2375 3800 
L 2150 3650 
z
M 1050 5225 
Q 1575 4950 1675 4812 
Q 1775 4675 1775 4575 
Q 1775 4475 1687 4350 
Q 1600 4225 1575 4225 
Q 1500 4225 1425 4450 
Q 1300 4800 1000 5150 
L 1050 5225 
z
" transform="scale(0.015625)"/>
       <path id="SimSun-52a8" d="M 5950 3500 
L 5750 3325 
Q 5725 675 5587 137 
Q 5450 -400 4850 -575 
Q 4825 -300 4075 25 
L 4100 150 
Q 4625 25 4925 25 
Q 5075 25 5162 87 
Q 5250 150 5312 737 
Q 5375 1325 5425 3425 
L 4375 3425 
Q 4350 2475 4162 1725 
Q 3975 975 3487 400 
Q 3000 -175 2200 -625 
L 2125 -550 
Q 2925 0 3312 562 
Q 3700 1125 3862 1825 
Q 4025 2525 4050 3425 
L 3600 3425 
L 3300 3375 
L 3100 3575 
L 4050 3575 
Q 4050 4625 4025 5175 
L 4550 4925 
L 4375 4750 
L 4375 3575 
L 5375 3575 
L 5575 3800 
L 5950 3500 
z
M 475 4325 
L 2275 4325 
L 2575 4625 
L 3025 4175 
L 1200 4175 
Q 925 4175 700 4100 
L 475 4325 
z
M 275 3050 
L 2625 3050 
L 2925 3350 
L 3375 2900 
L 1700 2900 
L 2100 2600 
Q 1850 2500 1450 1875 
Q 1025 1250 675 875 
L 2650 1100 
Q 2400 1600 2125 2025 
L 2200 2075 
Q 3075 1275 3125 987 
Q 3175 700 3062 587 
Q 2950 475 2925 475 
Q 2850 475 2825 600 
Q 2775 775 2700 975 
Q 875 650 600 350 
L 325 850 
Q 600 925 1025 1687 
Q 1450 2450 1550 2900 
L 750 2900 
L 475 2850 
L 275 3050 
z
" transform="scale(0.015625)"/>
      </defs>
      <use xlink:href="#SimSun-5bf9"/>
      <use xlink:href="#SimSun-7167" x="100"/>
      <use xlink:href="#SimSun-7ec4" x="200"/>
      <use xlink:href="#SimSun-2014" x="300"/>
      <use xlink:href="#SimSun-88ab" x="400"/>
      <use xlink:href="#SimSun-52a8" x="500"/>
      <use xlink:href="#SimSun-5f0f" x="600"/>
     </g>
    </g>
   </g>
  </g>
 </g>
 <defs>
  <clipPath id="pca895bf51c">
   <rect x="46.715625" y="32.325" width="780.94375" height="555.20375"/>
  </clipPath>
 </defs>
</svg>
