<?xml version="1.0" encoding="utf-8" standalone="no"?>
<!DOCTYPE svg PUBLIC "-//W3C//DTD SVG 1.1//EN"
  "http://www.w3.org/Graphics/SVG/1.1/DTD/svg11.dtd">
<svg xmlns:xlink="http://www.w3.org/1999/xlink" width="834.971875pt" height="618.4425pt" viewBox="0 0 834.971875 618.4425" xmlns="http://www.w3.org/2000/svg" version="1.1">
 <metadata>
  <rdf:RDF xmlns:dc="http://purl.org/dc/elements/1.1/" xmlns:cc="http://creativecommons.org/ns#" xmlns:rdf="http://www.w3.org/1999/02/22-rdf-syntax-ns#">
   <cc:Work>
    <dc:type rdf:resource="http://purl.org/dc/dcmitype/StillImage"/>
    <dc:date>2024-02-05T19:17:11.221309</dc:date>
    <dc:format>image/svg+xml</dc:format>
    <dc:creator>
     <cc:Agent>
      <dc:title>Matplotlib v3.7.1, https://matplotlib.org/</dc:title>
     </cc:Agent>
    </dc:creator>
   </cc:Work>
  </rdf:RDF>
 </metadata>
 <defs>
  <style type="text/css">*{stroke-linejoin: round; stroke-linecap: butt}</style>
 </defs>
 <g id="figure_1">
  <g id="patch_1">
   <path d="M 0 618.4425 
L 834.971875 618.4425 
L 834.971875 0 
L 0 0 
z
" style="fill: #ffffff"/>
  </g>
  <g id="axes_1">
   <g id="patch_2">
    <path d="M 66.403125 587.3675 
L 827.771875 587.3675 
L 827.771875 31.95 
L 66.403125 31.95 
z
" style="fill: #ffffff"/>
   </g>
   <g id="matplotlib.axis_1">
    <g id="xtick_1">
     <g id="line2d_1">
      <path d="M 101.010795 587.3675 
L 101.010795 31.95 
" clip-path="url(#pba471e0cd3)" style="fill: none; stroke: #b0b0b0; stroke-width: 0.8; stroke-linecap: square"/>
     </g>
     <g id="line2d_2">
      <defs>
       <path id="m7275561d2a" d="M 0 0 
L 0 3.5 
" style="stroke: #000000; stroke-width: 0.8"/>
      </defs>
      <g>
       <use xlink:href="#m7275561d2a" x="101.010795" y="587.3675" style="stroke: #000000; stroke-width: 0.8"/>
      </g>
     </g>
     <g id="text_1">
      <!-- 0 -->
      <g transform="translate(96.010795 608.664375) scale(0.2 -0.2)">
       <defs>
        <path id="SimSun-30" d="M 1600 4225 
Q 1250 4225 1012 3687 
Q 775 3150 775 2250 
Q 775 1300 1012 775 
Q 1250 250 1600 250 
Q 1975 250 2187 775 
Q 2400 1300 2400 2250 
Q 2400 3150 2200 3687 
Q 2000 4225 1600 4225 
z
M 1600 50 
Q 1050 50 675 625 
Q 300 1200 300 2250 
Q 300 3225 662 3825 
Q 1025 4425 1600 4425 
Q 2150 4425 2512 3850 
Q 2875 3275 2875 2250 
Q 2875 1225 2512 637 
Q 2150 50 1600 50 
z
" transform="scale(0.015625)"/>
       </defs>
       <use xlink:href="#SimSun-30"/>
      </g>
     </g>
    </g>
    <g id="xtick_2">
     <g id="line2d_3">
      <path d="M 188.257023 587.3675 
L 188.257023 31.95 
" clip-path="url(#pba471e0cd3)" style="fill: none; stroke: #b0b0b0; stroke-width: 0.8; stroke-linecap: square"/>
     </g>
     <g id="line2d_4">
      <g>
       <use xlink:href="#m7275561d2a" x="188.257023" y="587.3675" style="stroke: #000000; stroke-width: 0.8"/>
      </g>
     </g>
     <g id="text_2">
      <!-- 15 -->
      <g transform="translate(178.257023 608.664375) scale(0.2 -0.2)">
       <defs>
        <path id="SimSun-31" d="M 1825 4450 
L 1825 650 
Q 1825 450 1950 350 
Q 2075 250 2300 250 
L 2550 250 
L 2550 100 
L 725 100 
L 725 250 
L 950 250 
Q 1200 250 1312 350 
Q 1425 450 1425 650 
L 1425 3675 
Q 1425 3775 1362 3837 
Q 1300 3900 1175 3900 
L 725 3900 
L 725 4050 
L 950 4050 
Q 1250 4050 1437 4150 
Q 1625 4250 1725 4450 
L 1825 4450 
z
" transform="scale(0.015625)"/>
        <path id="SimSun-35" d="M 1725 2850 
Q 2200 2850 2500 2487 
Q 2800 2125 2800 1525 
Q 2800 850 2487 450 
Q 2175 50 1525 50 
Q 1075 50 725 312 
Q 375 575 375 950 
Q 375 1100 462 1212 
Q 550 1325 700 1325 
Q 850 1325 900 1225 
Q 950 1125 950 1050 
Q 950 900 875 825 
Q 800 725 800 625 
Q 800 425 1037 325 
Q 1275 225 1550 225 
Q 1950 225 2162 550 
Q 2375 875 2375 1475 
Q 2375 1975 2187 2287 
Q 2000 2600 1625 2600 
Q 1350 2600 1150 2500 
Q 950 2400 775 2075 
L 550 2100 
L 675 4375 
L 2725 4375 
L 2650 4000 
L 850 4000 
L 750 2350 
Q 1000 2700 1237 2775 
Q 1475 2850 1725 2850 
z
" transform="scale(0.015625)"/>
       </defs>
       <use xlink:href="#SimSun-31"/>
       <use xlink:href="#SimSun-35" x="50"/>
      </g>
     </g>
    </g>
    <g id="xtick_3">
     <g id="line2d_5">
      <path d="M 275.503252 587.3675 
L 275.503252 31.95 
" clip-path="url(#pba471e0cd3)" style="fill: none; stroke: #b0b0b0; stroke-width: 0.8; stroke-linecap: square"/>
     </g>
     <g id="line2d_6">
      <g>
       <use xlink:href="#m7275561d2a" x="275.503252" y="587.3675" style="stroke: #000000; stroke-width: 0.8"/>
      </g>
     </g>
     <g id="text_3">
      <!-- 30 -->
      <g transform="translate(265.503252 608.664375) scale(0.2 -0.2)">
       <defs>
        <path id="SimSun-33" d="M 2800 1250 
Q 2800 775 2450 412 
Q 2100 50 1475 50 
Q 1025 50 700 300 
Q 375 550 375 875 
Q 375 1025 475 1137 
Q 575 1250 675 1250 
Q 825 1250 887 1137 
Q 950 1025 950 950 
Q 950 825 900 750 
Q 850 650 850 575 
Q 850 425 1037 325 
Q 1225 225 1450 225 
Q 1900 225 2125 487 
Q 2350 750 2350 1300 
Q 2350 1750 2112 2025 
Q 1875 2300 1225 2300 
L 1225 2475 
Q 1725 2475 1962 2712 
Q 2200 2950 2200 3375 
Q 2200 3725 2012 3987 
Q 1825 4250 1425 4250 
Q 1250 4250 1050 4162 
Q 850 4075 850 3875 
Q 850 3675 900 3625 
Q 950 3575 950 3500 
Q 950 3375 900 3300 
Q 850 3225 725 3225 
Q 625 3225 537 3300 
Q 450 3375 450 3575 
Q 450 3950 775 4187 
Q 1100 4425 1525 4425 
Q 2025 4425 2325 4112 
Q 2625 3800 2625 3450 
Q 2625 3075 2437 2812 
Q 2250 2550 1850 2425 
Q 2400 2225 2600 1900 
Q 2800 1575 2800 1250 
z
" transform="scale(0.015625)"/>
       </defs>
       <use xlink:href="#SimSun-33"/>
       <use xlink:href="#SimSun-30" x="50"/>
      </g>
     </g>
    </g>
    <g id="xtick_4">
     <g id="line2d_7">
      <path d="M 362.74948 587.3675 
L 362.74948 31.95 
" clip-path="url(#pba471e0cd3)" style="fill: none; stroke: #b0b0b0; stroke-width: 0.8; stroke-linecap: square"/>
     </g>
     <g id="line2d_8">
      <g>
       <use xlink:href="#m7275561d2a" x="362.74948" y="587.3675" style="stroke: #000000; stroke-width: 0.8"/>
      </g>
     </g>
     <g id="text_4">
      <!-- 45 -->
      <g transform="translate(352.74948 608.664375) scale(0.2 -0.2)">
       <defs>
        <path id="SimSun-34" d="M 2300 575 
Q 2300 400 2400 325 
Q 2500 250 2675 250 
L 2900 250 
L 2900 100 
L 1250 100 
L 1250 250 
L 1525 250 
Q 1725 250 1812 325 
Q 1900 400 1900 575 
L 1900 1400 
L 225 1400 
L 225 1525 
L 2050 4425 
L 2300 4425 
L 2300 1550 
L 2975 1550 
L 2975 1400 
L 2300 1400 
L 2300 575 
z
M 1875 3800 
L 450 1550 
L 1900 1550 
L 1900 3800 
L 1875 3800 
z
" transform="scale(0.015625)"/>
       </defs>
       <use xlink:href="#SimSun-34"/>
       <use xlink:href="#SimSun-35" x="50"/>
      </g>
     </g>
    </g>
    <g id="xtick_5">
     <g id="line2d_9">
      <path d="M 449.995708 587.3675 
L 449.995708 31.95 
" clip-path="url(#pba471e0cd3)" style="fill: none; stroke: #b0b0b0; stroke-width: 0.8; stroke-linecap: square"/>
     </g>
     <g id="line2d_10">
      <g>
       <use xlink:href="#m7275561d2a" x="449.995708" y="587.3675" style="stroke: #000000; stroke-width: 0.8"/>
      </g>
     </g>
     <g id="text_5">
      <!-- 60 -->
      <g transform="translate(439.995708 608.664375) scale(0.2 -0.2)">
       <defs>
        <path id="SimSun-36" d="M 775 1800 
Q 775 1050 1037 637 
Q 1300 225 1675 225 
Q 2050 225 2250 500 
Q 2450 775 2450 1525 
Q 2450 2025 2237 2300 
Q 2025 2575 1725 2575 
Q 1450 2575 1212 2412 
Q 975 2250 775 1800 
z
M 1750 2825 
Q 2350 2825 2612 2425 
Q 2875 2025 2875 1525 
Q 2875 775 2512 412 
Q 2150 50 1675 50 
Q 1000 50 650 562 
Q 300 1075 300 2050 
Q 300 3200 725 3812 
Q 1150 4425 1875 4425 
Q 2225 4425 2437 4225 
Q 2650 4025 2650 3875 
Q 2650 3725 2587 3650 
Q 2525 3575 2375 3575 
Q 2250 3575 2187 3637 
Q 2125 3700 2125 3825 
Q 2125 3875 2150 3925 
Q 2150 3975 2150 4025 
Q 2150 4125 2075 4187 
Q 2000 4250 1800 4250 
Q 1375 4250 1075 3862 
Q 775 3475 775 2175 
Q 925 2500 1187 2662 
Q 1450 2825 1750 2825 
z
" transform="scale(0.015625)"/>
       </defs>
       <use xlink:href="#SimSun-36"/>
       <use xlink:href="#SimSun-30" x="50"/>
      </g>
     </g>
    </g>
    <g id="xtick_6">
     <g id="line2d_11">
      <path d="M 537.241936 587.3675 
L 537.241936 31.95 
" clip-path="url(#pba471e0cd3)" style="fill: none; stroke: #b0b0b0; stroke-width: 0.8; stroke-linecap: square"/>
     </g>
     <g id="line2d_12">
      <g>
       <use xlink:href="#m7275561d2a" x="537.241936" y="587.3675" style="stroke: #000000; stroke-width: 0.8"/>
      </g>
     </g>
     <g id="text_6">
      <!-- 75 -->
      <g transform="translate(527.241936 608.664375) scale(0.2 -0.2)">
       <defs>
        <path id="SimSun-37" d="M 2825 4200 
Q 2300 3350 1987 2537 
Q 1675 1725 1675 1125 
Q 1675 1025 1700 850 
Q 1700 650 1700 400 
Q 1700 200 1637 125 
Q 1575 50 1425 50 
Q 1300 50 1212 137 
Q 1125 225 1125 450 
Q 1125 925 1337 1625 
Q 1550 2325 2475 4000 
L 1225 4000 
Q 950 4000 787 3825 
Q 625 3650 550 3300 
L 400 3325 
L 575 4375 
L 2825 4375 
L 2825 4200 
z
" transform="scale(0.015625)"/>
       </defs>
       <use xlink:href="#SimSun-37"/>
       <use xlink:href="#SimSun-35" x="50"/>
      </g>
     </g>
    </g>
    <g id="xtick_7">
     <g id="line2d_13">
      <path d="M 624.488164 587.3675 
L 624.488164 31.95 
" clip-path="url(#pba471e0cd3)" style="fill: none; stroke: #b0b0b0; stroke-width: 0.8; stroke-linecap: square"/>
     </g>
     <g id="line2d_14">
      <g>
       <use xlink:href="#m7275561d2a" x="624.488164" y="587.3675" style="stroke: #000000; stroke-width: 0.8"/>
      </g>
     </g>
     <g id="text_7">
      <!-- 90 -->
      <g transform="translate(614.488164 608.664375) scale(0.2 -0.2)">
       <defs>
        <path id="SimSun-39" d="M 700 3050 
Q 700 2500 912 2212 
Q 1125 1925 1450 1925 
Q 1825 1925 2100 2275 
Q 2375 2625 2375 2925 
Q 2375 3525 2175 3887 
Q 1975 4250 1525 4250 
Q 1100 4250 900 3912 
Q 700 3575 700 3050 
z
M 1375 1700 
Q 875 1700 575 2012 
Q 275 2325 275 3025 
Q 275 3625 600 4025 
Q 925 4425 1525 4425 
Q 2150 4425 2500 3925 
Q 2850 3425 2850 2475 
Q 2850 1425 2437 737 
Q 2025 50 1300 50 
Q 975 50 737 200 
Q 500 350 500 600 
Q 500 700 562 800 
Q 625 900 775 900 
Q 925 900 975 787 
Q 1025 675 1025 525 
Q 1025 425 1050 362 
Q 1075 300 1100 275 
Q 1125 250 1187 237 
Q 1250 225 1325 225 
Q 1775 225 2050 725 
Q 2325 1225 2375 2400 
Q 2250 2100 2000 1900 
Q 1750 1700 1375 1700 
z
" transform="scale(0.015625)"/>
       </defs>
       <use xlink:href="#SimSun-39"/>
       <use xlink:href="#SimSun-30" x="50"/>
      </g>
     </g>
    </g>
    <g id="xtick_8">
     <g id="line2d_15">
      <path d="M 711.734392 587.3675 
L 711.734392 31.95 
" clip-path="url(#pba471e0cd3)" style="fill: none; stroke: #b0b0b0; stroke-width: 0.8; stroke-linecap: square"/>
     </g>
     <g id="line2d_16">
      <g>
       <use xlink:href="#m7275561d2a" x="711.734392" y="587.3675" style="stroke: #000000; stroke-width: 0.8"/>
      </g>
     </g>
     <g id="text_8">
      <!-- 105 -->
      <g transform="translate(696.734392 608.664375) scale(0.2 -0.2)">
       <use xlink:href="#SimSun-31"/>
       <use xlink:href="#SimSun-30" x="50"/>
       <use xlink:href="#SimSun-35" x="100"/>
      </g>
     </g>
    </g>
    <g id="xtick_9">
     <g id="line2d_17">
      <path d="M 798.98062 587.3675 
L 798.98062 31.95 
" clip-path="url(#pba471e0cd3)" style="fill: none; stroke: #b0b0b0; stroke-width: 0.8; stroke-linecap: square"/>
     </g>
     <g id="line2d_18">
      <g>
       <use xlink:href="#m7275561d2a" x="798.98062" y="587.3675" style="stroke: #000000; stroke-width: 0.8"/>
      </g>
     </g>
     <g id="text_9">
      <!-- 120 -->
      <g transform="translate(783.98062 608.664375) scale(0.2 -0.2)">
       <defs>
        <path id="SimSun-32" d="M 2325 3325 
Q 2325 3775 2125 4012 
Q 1925 4250 1525 4250 
Q 1225 4250 1012 4087 
Q 800 3925 800 3675 
Q 800 3525 900 3425 
Q 975 3325 975 3225 
Q 975 3100 912 3037 
Q 850 2975 725 2975 
Q 575 2975 487 3062 
Q 400 3150 400 3350 
Q 400 3875 775 4150 
Q 1150 4425 1575 4425 
Q 2175 4425 2462 4125 
Q 2750 3825 2750 3375 
Q 2750 3075 2612 2775 
Q 2475 2475 2175 2200 
Q 1450 1500 1062 1062 
Q 675 625 600 475 
L 2075 475 
Q 2300 475 2450 650 
Q 2600 825 2650 1175 
L 2800 1175 
L 2650 100 
L 325 100 
L 325 425 
Q 450 650 737 1000 
Q 1025 1350 1500 1825 
Q 1925 2250 2125 2625 
Q 2325 3000 2325 3325 
z
" transform="scale(0.015625)"/>
       </defs>
       <use xlink:href="#SimSun-31"/>
       <use xlink:href="#SimSun-32" x="50"/>
       <use xlink:href="#SimSun-30" x="100"/>
      </g>
     </g>
    </g>
   </g>
   <g id="matplotlib.axis_2">
    <g id="ytick_1">
     <g id="line2d_19">
      <path d="M 66.403125 569.386879 
L 827.771875 569.386879 
" clip-path="url(#pba471e0cd3)" style="fill: none; stroke: #b0b0b0; stroke-width: 0.8; stroke-linecap: square"/>
     </g>
     <g id="line2d_20">
      <defs>
       <path id="m929d4670ed" d="M 0 0 
L -3.5 0 
" style="stroke: #000000; stroke-width: 0.8"/>
      </defs>
      <g>
       <use xlink:href="#m929d4670ed" x="66.403125" y="569.386879" style="stroke: #000000; stroke-width: 0.8"/>
      </g>
     </g>
     <g id="text_10">
      <!-- 0 -->
      <g transform="translate(49.403125 576.535317) scale(0.2 -0.2)">
       <use xlink:href="#SimSun-30"/>
      </g>
     </g>
    </g>
    <g id="ytick_2">
     <g id="line2d_21">
      <path d="M 66.403125 492.699622 
L 827.771875 492.699622 
" clip-path="url(#pba471e0cd3)" style="fill: none; stroke: #b0b0b0; stroke-width: 0.8; stroke-linecap: square"/>
     </g>
     <g id="line2d_22">
      <g>
       <use xlink:href="#m929d4670ed" x="66.403125" y="492.699622" style="stroke: #000000; stroke-width: 0.8"/>
      </g>
     </g>
     <g id="text_11">
      <!-- 100 -->
      <g transform="translate(29.403125 499.84806) scale(0.2 -0.2)">
       <use xlink:href="#SimSun-31"/>
       <use xlink:href="#SimSun-30" x="50"/>
       <use xlink:href="#SimSun-30" x="100"/>
      </g>
     </g>
    </g>
    <g id="ytick_3">
     <g id="line2d_23">
      <path d="M 66.403125 416.012366 
L 827.771875 416.012366 
" clip-path="url(#pba471e0cd3)" style="fill: none; stroke: #b0b0b0; stroke-width: 0.8; stroke-linecap: square"/>
     </g>
     <g id="line2d_24">
      <g>
       <use xlink:href="#m929d4670ed" x="66.403125" y="416.012366" style="stroke: #000000; stroke-width: 0.8"/>
      </g>
     </g>
     <g id="text_12">
      <!-- 200 -->
      <g transform="translate(29.403125 423.160803) scale(0.2 -0.2)">
       <use xlink:href="#SimSun-32"/>
       <use xlink:href="#SimSun-30" x="50"/>
       <use xlink:href="#SimSun-30" x="100"/>
      </g>
     </g>
    </g>
    <g id="ytick_4">
     <g id="line2d_25">
      <path d="M 66.403125 339.325109 
L 827.771875 339.325109 
" clip-path="url(#pba471e0cd3)" style="fill: none; stroke: #b0b0b0; stroke-width: 0.8; stroke-linecap: square"/>
     </g>
     <g id="line2d_26">
      <g>
       <use xlink:href="#m929d4670ed" x="66.403125" y="339.325109" style="stroke: #000000; stroke-width: 0.8"/>
      </g>
     </g>
     <g id="text_13">
      <!-- 300 -->
      <g transform="translate(29.403125 346.473546) scale(0.2 -0.2)">
       <use xlink:href="#SimSun-33"/>
       <use xlink:href="#SimSun-30" x="50"/>
       <use xlink:href="#SimSun-30" x="100"/>
      </g>
     </g>
    </g>
    <g id="ytick_5">
     <g id="line2d_27">
      <path d="M 66.403125 262.637852 
L 827.771875 262.637852 
" clip-path="url(#pba471e0cd3)" style="fill: none; stroke: #b0b0b0; stroke-width: 0.8; stroke-linecap: square"/>
     </g>
     <g id="line2d_28">
      <g>
       <use xlink:href="#m929d4670ed" x="66.403125" y="262.637852" style="stroke: #000000; stroke-width: 0.8"/>
      </g>
     </g>
     <g id="text_14">
      <!-- 400 -->
      <g transform="translate(29.403125 269.78629) scale(0.2 -0.2)">
       <use xlink:href="#SimSun-34"/>
       <use xlink:href="#SimSun-30" x="50"/>
       <use xlink:href="#SimSun-30" x="100"/>
      </g>
     </g>
    </g>
    <g id="ytick_6">
     <g id="line2d_29">
      <path d="M 66.403125 185.950595 
L 827.771875 185.950595 
" clip-path="url(#pba471e0cd3)" style="fill: none; stroke: #b0b0b0; stroke-width: 0.8; stroke-linecap: square"/>
     </g>
     <g id="line2d_30">
      <g>
       <use xlink:href="#m929d4670ed" x="66.403125" y="185.950595" style="stroke: #000000; stroke-width: 0.8"/>
      </g>
     </g>
     <g id="text_15">
      <!-- 500 -->
      <g transform="translate(29.403125 193.099033) scale(0.2 -0.2)">
       <use xlink:href="#SimSun-35"/>
       <use xlink:href="#SimSun-30" x="50"/>
       <use xlink:href="#SimSun-30" x="100"/>
      </g>
     </g>
    </g>
    <g id="ytick_7">
     <g id="line2d_31">
      <path d="M 66.403125 109.263339 
L 827.771875 109.263339 
" clip-path="url(#pba471e0cd3)" style="fill: none; stroke: #b0b0b0; stroke-width: 0.8; stroke-linecap: square"/>
     </g>
     <g id="line2d_32">
      <g>
       <use xlink:href="#m929d4670ed" x="66.403125" y="109.263339" style="stroke: #000000; stroke-width: 0.8"/>
      </g>
     </g>
     <g id="text_16">
      <!-- 600 -->
      <g transform="translate(29.403125 116.411776) scale(0.2 -0.2)">
       <use xlink:href="#SimSun-36"/>
       <use xlink:href="#SimSun-30" x="50"/>
       <use xlink:href="#SimSun-30" x="100"/>
      </g>
     </g>
    </g>
    <g id="ytick_8">
     <g id="line2d_33">
      <path d="M 66.403125 32.576082 
L 827.771875 32.576082 
" clip-path="url(#pba471e0cd3)" style="fill: none; stroke: #b0b0b0; stroke-width: 0.8; stroke-linecap: square"/>
     </g>
     <g id="line2d_34">
      <g>
       <use xlink:href="#m929d4670ed" x="66.403125" y="32.576082" style="stroke: #000000; stroke-width: 0.8"/>
      </g>
     </g>
     <g id="text_17">
      <!-- 700 -->
      <g transform="translate(29.403125 39.724519) scale(0.2 -0.2)">
       <use xlink:href="#SimSun-37"/>
       <use xlink:href="#SimSun-30" x="50"/>
       <use xlink:href="#SimSun-30" x="100"/>
      </g>
     </g>
    </g>
    <g id="text_18">
     <!-- 响应时间(ms) -->
     <g transform="translate(22.825 369.65875) rotate(-90) scale(0.2 -0.2)">
      <defs>
       <path id="SimSun-54cd" d="M 4350 125 
Q 4800 100 5087 100 
Q 5375 100 5350 475 
L 5350 3900 
L 2800 3900 
L 2800 -375 
L 2475 -525 
Q 2500 250 2500 1912 
Q 2500 3575 2475 4275 
L 2800 4050 
L 3425 4050 
Q 3700 4725 3775 5250 
L 4275 4950 
Q 4150 4875 4012 4712 
Q 3875 4550 3575 4050 
L 5300 4050 
L 5475 4325 
L 5875 4000 
L 5675 3825 
L 5675 250 
Q 5725 -325 5175 -500 
Q 5175 -125 4350 25 
L 4350 125 
z
M 4800 2725 
Q 4800 1625 4825 1075 
L 4475 925 
L 4475 1325 
L 3625 1325 
L 3625 1000 
L 3275 850 
Q 3300 1150 3300 1937 
Q 3300 2725 3275 3175 
L 3625 2950 
L 4450 2950 
L 4625 3200 
L 5000 2900 
L 4800 2725 
z
M 3625 2800 
L 3625 1475 
L 4475 1475 
L 4475 2800 
L 3625 2800 
z
M 2050 3850 
L 2050 2100 
Q 2050 1725 2075 1100 
L 1725 925 
L 1725 1350 
L 925 1350 
L 925 850 
L 575 675 
Q 600 1550 600 2562 
Q 600 3575 575 4300 
L 925 4075 
L 1700 4075 
L 1875 4300 
L 2225 4025 
L 2050 3850 
z
M 925 3925 
L 925 1500 
L 1725 1500 
L 1725 3925 
L 925 3925 
z
" transform="scale(0.015625)"/>
       <path id="SimSun-5e94" d="M 1850 3225 
Q 2650 2125 2750 1850 
Q 2850 1575 2850 1400 
Q 2850 1275 2812 1137 
Q 2775 1000 2637 925 
Q 2500 850 2400 1475 
Q 2275 2075 1775 3175 
L 1850 3225 
z
M 3100 3425 
Q 3650 2675 3862 2287 
Q 4075 1900 4037 1637 
Q 4000 1375 3900 1300 
Q 3800 1225 3775 1225 
Q 3625 1225 3575 1725 
Q 3475 2350 3000 3375 
L 3100 3425 
z
M 1175 75 
L 4075 75 
Q 4600 1400 4800 2087 
Q 5000 2775 5125 3450 
L 5700 3100 
Q 5525 3025 5150 2100 
Q 4750 1175 4250 75 
L 5125 75 
L 5550 500 
L 6125 -75 
L 2000 -75 
Q 1675 -75 1400 -150 
L 1175 75 
z
M 975 4475 
L 1350 4225 
L 5075 4225 
L 5475 4625 
L 6025 4075 
L 1350 4075 
Q 1350 3200 1337 2387 
Q 1325 1575 1100 850 
Q 875 125 325 -575 
L 250 -525 
Q 750 375 875 1225 
Q 1000 2075 1000 2850 
Q 1000 3625 975 4475 
z
M 3175 5225 
Q 3725 4925 3787 4812 
Q 3850 4700 3850 4625 
Q 3850 4525 3787 4412 
Q 3725 4300 3612 4250 
Q 3500 4200 3450 4450 
Q 3400 4700 3100 5175 
L 3175 5225 
z
" transform="scale(0.015625)"/>
       <path id="SimSun-65f6" d="M 4500 3600 
Q 4500 4575 4475 5225 
L 5100 4900 
L 4850 4725 
L 4850 3600 
L 5225 3600 
L 5550 3925 
L 6025 3450 
L 4850 3450 
L 4850 100 
Q 4850 -375 4300 -575 
Q 4275 -200 3475 -25 
L 3475 100 
Q 4150 0 4325 25 
Q 4500 50 4500 325 
L 4500 3450 
L 3200 3450 
Q 2875 3450 2600 3375 
L 2375 3600 
L 4500 3600 
z
M 2875 2825 
Q 3525 2375 3637 2200 
Q 3750 2025 3750 1925 
Q 3750 1800 3637 1637 
Q 3525 1475 3475 1475 
Q 3400 1475 3325 1775 
Q 3200 2225 2800 2750 
L 2875 2825 
z
M 925 4150 
L 925 2650 
L 1950 2650 
L 1950 4150 
L 925 4150 
z
M 925 2500 
L 925 900 
L 1950 900 
L 1950 2500 
L 925 2500 
z
M 2300 2000 
Q 2300 800 2325 450 
L 1950 250 
L 1950 750 
L 925 750 
L 925 225 
L 550 25 
Q 575 825 575 2425 
Q 575 4025 550 4500 
L 950 4300 
L 1900 4300 
L 2100 4550 
L 2500 4225 
L 2300 4050 
L 2300 2000 
z
" transform="scale(0.015625)"/>
       <path id="SimSun-95f4" d="M 2150 525 
Q 2175 1325 2175 2112 
Q 2175 2900 2150 3675 
L 2525 3450 
L 3750 3450 
L 4000 3700 
L 4325 3375 
L 4125 3200 
Q 4125 1550 4150 775 
L 3800 575 
L 3800 975 
L 2500 975 
L 2500 700 
L 2150 525 
z
M 2500 3300 
L 2500 2325 
L 3800 2325 
L 3800 3300 
L 2500 3300 
z
M 2500 2175 
L 2500 1125 
L 3800 1125 
L 3800 2175 
L 2500 2175 
z
M 1275 5200 
Q 1850 4825 1950 4675 
Q 2050 4525 2050 4425 
Q 2050 4275 1950 4137 
Q 1850 4000 1825 4000 
Q 1750 4000 1675 4275 
Q 1550 4650 1200 5125 
L 1275 5200 
z
M 1125 425 
Q 1125 25 1150 -375 
L 750 -525 
Q 775 -150 775 1950 
Q 775 4050 750 4425 
L 1350 4125 
L 1125 3975 
L 1125 425 
z
M 4225 125 
Q 5025 0 5125 37 
Q 5225 75 5225 250 
L 5225 4450 
L 3225 4450 
Q 2900 4450 2625 4375 
L 2400 4600 
L 5175 4600 
L 5425 4850 
L 5775 4500 
L 5575 4350 
L 5575 225 
Q 5575 -100 5462 -250 
Q 5350 -400 5000 -550 
Q 4800 -125 4225 25 
L 4225 125 
z
" transform="scale(0.015625)"/>
       <path id="SimSun-28" d="M 2900 5025 
Q 2325 4425 2037 3737 
Q 1750 3050 1750 2300 
Q 1750 1525 2037 850 
Q 2325 175 2900 -425 
L 2775 -550 
Q 2075 75 1725 787 
Q 1375 1500 1375 2300 
Q 1375 3075 1725 3787 
Q 2075 4500 2775 5150 
L 2900 5025 
z
" transform="scale(0.015625)"/>
       <path id="SimSun-6d" d="M 175 2900 
Q 300 2900 425 2925 
Q 550 2950 625 3000 
L 675 3000 
L 675 2575 
Q 800 2775 950 2862 
Q 1100 2950 1275 2950 
Q 1500 2950 1625 2862 
Q 1750 2775 1775 2575 
Q 1900 2775 2062 2862 
Q 2225 2950 2400 2950 
Q 2700 2950 2812 2775 
Q 2925 2600 2925 2325 
L 2925 425 
Q 2925 325 2975 287 
Q 3025 250 3125 250 
L 3175 250 
L 3175 100 
L 2325 100 
L 2325 250 
L 2375 250 
Q 2475 250 2525 287 
Q 2575 325 2575 425 
L 2575 2300 
Q 2575 2575 2512 2662 
Q 2450 2750 2325 2750 
Q 2150 2750 2012 2625 
Q 1875 2500 1800 2275 
L 1800 425 
Q 1800 325 1850 287 
Q 1900 250 2000 250 
L 2050 250 
L 2050 100 
L 1200 100 
L 1200 250 
L 1250 250 
Q 1350 250 1400 287 
Q 1450 325 1450 425 
L 1450 2300 
Q 1450 2525 1400 2637 
Q 1350 2750 1200 2750 
Q 1025 2750 887 2625 
Q 750 2500 675 2250 
L 675 425 
Q 675 325 725 287 
Q 775 250 875 250 
L 925 250 
L 925 100 
L 75 100 
L 75 250 
L 125 250 
Q 225 250 275 287 
Q 325 325 325 425 
L 325 2600 
Q 325 2675 300 2712 
Q 275 2750 200 2750 
L 100 2750 
L 100 2900 
L 175 2900 
z
" transform="scale(0.015625)"/>
       <path id="SimSun-73" d="M 625 2175 
Q 625 2550 912 2750 
Q 1200 2950 1600 2950 
Q 1825 2950 2025 2900 
Q 2225 2825 2300 2825 
Q 2375 2825 2425 2850 
Q 2475 2875 2550 2950 
L 2650 2125 
L 2500 2100 
Q 2400 2425 2162 2612 
Q 1925 2800 1625 2800 
Q 1300 2800 1112 2675 
Q 925 2550 925 2325 
Q 925 2125 1012 2012 
Q 1100 1900 1325 1850 
Q 1500 1775 1775 1700 
Q 2025 1600 2250 1500 
Q 2450 1400 2587 1237 
Q 2725 1075 2725 875 
Q 2725 500 2462 287 
Q 2200 75 1700 75 
Q 1375 75 1225 150 
Q 1050 200 950 200 
Q 875 200 787 162 
Q 700 125 600 75 
L 525 1000 
L 675 1025 
Q 750 625 1000 425 
Q 1250 225 1700 225 
Q 2050 225 2237 350 
Q 2425 475 2425 725 
Q 2425 900 2325 1012 
Q 2225 1125 2125 1175 
Q 1875 1275 1575 1400 
Q 1275 1500 1050 1600 
Q 825 1700 725 1850 
Q 625 2000 625 2175 
z
" transform="scale(0.015625)"/>
       <path id="SimSun-29" d="M 275 5025 
L 400 5150 
Q 1100 4500 1450 3787 
Q 1800 3075 1800 2300 
Q 1800 1500 1450 787 
Q 1100 75 400 -550 
L 275 -425 
Q 850 175 1137 850 
Q 1425 1525 1425 2300 
Q 1425 3050 1137 3737 
Q 850 4425 275 5025 
z
" transform="scale(0.015625)"/>
      </defs>
      <use xlink:href="#SimSun-54cd"/>
      <use xlink:href="#SimSun-5e94" x="100"/>
      <use xlink:href="#SimSun-65f6" x="200"/>
      <use xlink:href="#SimSun-95f4" x="300"/>
      <use xlink:href="#SimSun-28" x="400"/>
      <use xlink:href="#SimSun-6d" x="450"/>
      <use xlink:href="#SimSun-73" x="500"/>
      <use xlink:href="#SimSun-29" x="550"/>
     </g>
    </g>
   </g>
   <g id="line2d_35">
    <path d="M 101.010795 559.435269 
L 106.827211 558.611378 
L 112.643626 559.997822 
L 118.460041 559.147992 
L 124.276456 560.997432 
L 130.092871 559.763968 
L 135.909287 558.829757 
L 141.725702 559.488792 
L 147.542117 558.131226 
L 153.358532 560.158239 
L 159.174947 557.321548 
L 164.991363 555.419521 
L 170.807778 559.393495 
L 176.624193 555.765144 
L 182.440608 558.455286 
L 188.257023 560.807381 
L 194.073439 552.460874 
L 199.889854 559.899259 
L 205.706269 552.917729 
L 211.522684 514.800906 
L 217.3391 542.039745 
L 223.155515 543.841916 
L 228.97193 556.817392 
L 234.788345 547.195826 
L 240.60476 542.159558 
L 246.421176 535.672036 
L 252.237591 534.137674 
L 258.054006 538.891897 
L 263.870421 524.38121 
L 269.686836 527.376738 
L 275.503252 496.968682 
L 281.319667 505.897056 
L 287.136082 523.370641 
L 292.952497 524.999168 
L 298.768912 530.289647 
L 304.585328 519.536023 
L 310.401743 499.471234 
L 316.218158 527.663542 
L 322.034573 542.274708 
L 327.850988 560.465387 
L 333.667404 553.629197 
L 339.483819 559.872087 
L 345.300234 553.543028 
L 351.116649 557.845199 
L 356.933064 557.452623 
L 362.74948 552.502176 
L 368.565895 558.577398 
L 374.38231 559.471039 
L 380.198725 558.02236 
L 386.01514 562.12125 
L 391.831556 561.387142 
L 397.647971 561.265441 
L 403.464386 560.767212 
L 409.280801 558.408204 
L 415.097216 557.819914 
L 420.913632 560.800196 
L 426.730047 560.694638 
L 432.546462 561.289084 
L 438.362877 560.803963 
L 444.179292 560.53597 
L 449.995708 560.74405 
L 455.812123 559.435269 
L 461.628538 558.611378 
L 467.444953 559.997822 
L 473.261368 559.147992 
L 479.077784 560.997432 
L 484.894199 559.763968 
L 490.710614 558.829757 
L 496.527029 559.488792 
L 502.343444 558.131226 
L 508.15986 560.158239 
L 513.976275 557.321548 
L 519.79269 555.419521 
L 525.609105 559.393495 
L 531.42552 555.765144 
L 537.241936 558.455286 
L 543.058351 560.807381 
L 548.874766 552.460874 
L 554.691181 559.899259 
L 560.507596 552.917729 
L 566.324012 537.807083 
L 572.140427 542.039745 
L 577.956842 543.841916 
L 583.773257 556.817392 
L 589.589672 547.195826 
L 595.406088 542.159558 
L 601.222503 535.672036 
L 607.038918 534.137674 
L 612.855333 538.891897 
L 618.671748 524.38121 
L 624.488164 496.701835 
L 630.304579 506.171153 
L 636.120994 541.173194 
L 641.937409 546.376818 
L 647.753824 540.33662 
L 653.57024 545.627098 
L 659.386655 542.5422 
L 665.20307 545.483588 
L 671.019485 543.000993 
L 676.8359 542.274708 
L 682.652316 560.465387 
L 688.468731 553.629197 
L 694.285146 559.872087 
L 700.101561 553.543028 
L 705.917977 557.845199 
L 711.734392 557.452623 
L 717.550807 552.502176 
L 723.367222 558.577398 
L 729.183637 559.471039 
L 735.000053 558.02236 
L 740.816468 562.12125 
L 746.632883 561.387142 
L 752.449298 561.265441 
L 758.265713 560.767212 
L 764.082129 558.408204 
L 769.898544 557.819914 
L 775.714959 560.800196 
L 781.531374 560.694638 
L 787.347789 561.289084 
L 793.164205 560.803963 
" clip-path="url(#pba471e0cd3)" style="fill: none; stroke: #1f77b4; stroke-width: 1.5; stroke-linecap: square"/>
   </g>
   <g id="line2d_36">
    <path d="M 101.010795 561.0966 
L 106.827211 560.860168 
L 112.643626 561.168989 
L 118.460041 561.352188 
L 124.276456 561.648601 
L 130.092871 561.315709 
L 135.909287 561.40952 
L 141.725702 561.484578 
L 147.542117 558.813149 
L 153.358532 550.736949 
L 159.174947 545.00319 
L 164.991363 544.021481 
L 170.807778 542.543917 
L 176.624193 539.468818 
L 182.440608 539.190264 
L 188.257023 539.626308 
L 194.073439 535.89429 
L 199.889854 528.971507 
L 205.706269 523.500553 
L 211.522684 519.475509 
L 217.3391 515.51183 
L 223.155515 509.102928 
L 228.97193 504.394034 
L 234.788345 484.45882 
L 240.60476 494.894937 
L 246.421176 466.567581 
L 252.237591 446.070676 
L 258.054006 415.576036 
L 263.870421 428.30191 
L 269.686836 57.19625 
L 275.503252 369.970221 
L 281.319667 357.561609 
L 287.136082 453.97011 
L 292.952497 485.50226 
L 298.768912 480.626311 
L 304.585328 493.24704 
L 310.401743 505.017367 
L 316.218158 519.630101 
L 322.034573 522.975024 
L 327.850988 546.230424 
L 333.667404 532.79125 
L 339.483819 530.884609 
L 345.300234 532.756203 
L 351.116649 535.359296 
L 356.933064 533.71953 
L 362.74948 538.224514 
L 368.565895 539.693104 
L 374.38231 541.711273 
L 380.198725 543.962324 
L 386.01514 552.179367 
L 391.831556 552.622985 
L 397.647971 552.378505 
L 403.464386 555.692972 
L 409.280801 555.284449 
L 415.097216 555.591708 
L 420.913632 556.055469 
L 426.730047 553.295964 
L 432.546462 557.178858 
L 438.362877 555.520568 
L 444.179292 556.28744 
L 449.995708 557.458161 
L 455.812123 554.912746 
L 461.628538 555.928321 
L 467.444953 556.415295 
L 473.261368 547.734802 
L 479.077784 555.266742 
L 484.894199 555.422714 
L 490.710614 553.342968 
L 496.527029 555.026054 
L 502.343444 559.077944 
L 508.15986 559.637152 
L 513.976275 558.471995 
L 519.79269 557.575359 
L 525.609105 558.418357 
L 531.42552 496.956232 
L 537.241936 557.533099 
L 543.058351 557.854461 
L 548.874766 551.390285 
L 554.691181 554.44208 
L 560.507596 551.109621 
L 566.324012 551.4337 
L 572.140427 545.165673 
L 577.956842 540.92656 
L 583.773257 540.149575 
L 589.589672 515.035464 
L 595.406088 531.678332 
L 601.222503 504.641854 
L 607.038918 486.131243 
L 612.855333 345.696953 
L 618.671748 166.766545 
L 624.488164 324.215899 
L 630.304579 402.426161 
L 636.120994 479.972785 
L 641.937409 495.08213 
L 647.753824 509.724275 
L 653.57024 536.61517 
L 659.386655 560.09034 
L 665.20307 558.187346 
L 671.019485 560.571223 
L 676.8359 560.996375 
L 682.652316 561.04132 
L 688.468731 560.763877 
L 694.285146 561.321907 
L 700.101561 561.241566 
L 705.917977 556.673449 
L 711.734392 556.972682 
L 717.550807 553.07771 
L 723.367222 558.30151 
L 729.183637 558.298067 
L 735.000053 557.442535 
L 740.816468 557.880882 
L 746.632883 555.687925 
L 752.449298 555.12827 
L 758.265713 553.109354 
L 764.082129 548.391144 
L 769.898544 548.812053 
L 775.714959 551.740715 
L 781.531374 551.185892 
L 787.347789 543.481511 
" clip-path="url(#pba471e0cd3)" style="fill: none; stroke: #ff7f0e; stroke-width: 1.5; stroke-linecap: square"/>
   </g>
   <g id="patch_3">
    <path d="M 66.403125 587.3675 
L 66.403125 31.95 
" style="fill: none; stroke: #000000; stroke-width: 0.8; stroke-linejoin: miter; stroke-linecap: square"/>
   </g>
   <g id="patch_4">
    <path d="M 827.771875 587.3675 
L 827.771875 31.95 
" style="fill: none; stroke: #000000; stroke-width: 0.8; stroke-linejoin: miter; stroke-linecap: square"/>
   </g>
   <g id="patch_5">
    <path d="M 66.403125 587.3675 
L 827.771875 587.3675 
" style="fill: none; stroke: #000000; stroke-width: 0.8; stroke-linejoin: miter; stroke-linecap: square"/>
   </g>
   <g id="patch_6">
    <path d="M 66.403125 31.95 
L 827.771875 31.95 
" style="fill: none; stroke: #000000; stroke-width: 0.8; stroke-linejoin: miter; stroke-linecap: square"/>
   </g>
   <g id="text_19">
    <!-- 响应时间 -->
    <g transform="translate(399.0875 25.95) scale(0.24 -0.24)">
     <use xlink:href="#SimSun-54cd"/>
     <use xlink:href="#SimSun-5e94" x="100"/>
     <use xlink:href="#SimSun-65f6" x="200"/>
     <use xlink:href="#SimSun-95f4" x="300"/>
    </g>
   </g>
   <g id="legend_1">
    <g id="patch_7">
     <path d="M 609.771875 104.825 
L 813.771875 104.825 
Q 817.771875 104.825 817.771875 100.825 
L 817.771875 45.95 
Q 817.771875 41.95 813.771875 41.95 
L 609.771875 41.95 
Q 605.771875 41.95 605.771875 45.95 
L 605.771875 100.825 
Q 605.771875 104.825 609.771875 104.825 
z
" style="fill: #ffffff; opacity: 0.8; stroke: #cccccc; stroke-linejoin: miter"/>
    </g>
    <g id="line2d_37">
     <path d="M 613.771875 58.809375 
L 633.771875 58.809375 
L 653.771875 58.809375 
" style="fill: none; stroke: #1f77b4; stroke-width: 1.5; stroke-linecap: square"/>
    </g>
    <g id="text_20">
     <!-- 实验组—预测式 -->
     <g transform="translate(669.771875 65.809375) scale(0.2 -0.2)">
      <defs>
       <path id="SimSun-5b9e" d="M 1950 3625 
Q 2575 3400 2700 3250 
Q 2825 3100 2825 2975 
Q 2825 2850 2750 2700 
Q 2675 2550 2625 2550 
Q 2550 2550 2450 2800 
Q 2275 3175 1900 3550 
L 1950 3625 
z
M 3575 1325 
Q 3500 1100 3425 925 
Q 4650 550 5087 325 
Q 5525 100 5512 -225 
Q 5500 -550 5400 -550 
Q 5300 -550 5075 -300 
Q 4625 175 3375 800 
Q 3025 175 2300 -150 
Q 1575 -475 425 -625 
L 425 -525 
Q 1475 -325 2200 100 
Q 2925 525 3200 1325 
L 1225 1325 
Q 900 1325 625 1250 
L 400 1475 
L 3225 1475 
Q 3325 1950 3375 2575 
Q 3425 3200 3425 3700 
L 4050 3400 
L 3850 3225 
Q 3750 2300 3625 1475 
L 5175 1475 
L 5550 1850 
L 6075 1325 
L 3575 1325 
z
M 1275 2700 
Q 1975 2425 2100 2262 
Q 2225 2100 2225 1975 
Q 2225 1850 2150 1700 
Q 2075 1550 2025 1550 
Q 1950 1550 1850 1800 
Q 1675 2175 1225 2625 
L 1275 2700 
z
M 2750 5225 
L 2825 5275 
Q 3225 5100 3425 4925 
Q 3625 4750 3625 4600 
Q 3625 4450 3512 4300 
Q 3400 4150 3325 4150 
Q 3250 4150 3200 4400 
Q 3100 4775 2750 5225 
z
M 4975 3225 
L 5350 3925 
L 1175 3925 
Q 1225 3525 1125 3300 
Q 1025 3075 787 3100 
Q 550 3125 550 3200 
Q 550 3300 700 3475 
Q 975 3825 1050 4375 
L 1150 4375 
L 1175 4075 
L 5300 4075 
L 5575 4350 
L 6050 3800 
Q 5625 3825 5050 3175 
L 4975 3225 
z
" transform="scale(0.015625)"/>
       <path id="SimSun-9a8c" d="M 4050 5225 
L 4550 4925 
L 4350 4800 
Q 5050 3225 6125 2975 
L 6125 2900 
Q 5750 2850 5650 2600 
Q 4700 3325 4275 4725 
Q 3575 3225 2525 2475 
L 2475 2550 
Q 3075 3150 3500 3925 
Q 3925 4700 4050 5225 
z
M 3025 2800 
L 4650 2800 
L 4950 3100 
L 5350 2650 
L 3850 2650 
Q 3525 2650 3250 2575 
L 3025 2800 
z
M 2925 2000 
L 3000 2050 
Q 3475 1300 3537 1100 
Q 3600 900 3600 775 
Q 3600 625 3512 475 
Q 3425 325 3312 337 
Q 3200 350 3175 800 
Q 3150 1250 2925 2000 
z
M 3650 2225 
L 3725 2275 
Q 4375 1450 4425 1100 
Q 4475 750 4337 650 
Q 4200 550 4175 550 
Q 4075 550 4050 800 
Q 4025 1150 3900 1562 
Q 3775 1975 3650 2225 
z
M 5175 2300 
L 5700 1950 
Q 5525 1875 5325 1412 
Q 5125 950 4675 -150 
L 5300 -150 
L 5650 200 
L 6100 -300 
L 3375 -300 
Q 3050 -300 2775 -375 
L 2550 -150 
L 4525 -150 
Q 5175 1900 5175 2300 
z
M 400 4675 
L 1950 4675 
L 2150 4925 
L 2525 4600 
L 2300 4450 
L 2050 2275 
L 2225 2275 
L 2375 2475 
L 2750 2175 
L 2550 2025 
Q 2425 500 2300 175 
Q 2175 -150 1975 -287 
Q 1775 -425 1550 -475 
Q 1525 -125 825 100 
L 850 200 
Q 1550 50 1725 62 
Q 1900 75 2012 437 
Q 2125 800 2225 2125 
L 1000 2125 
L 825 1925 
L 500 2225 
L 675 2325 
Q 875 3750 900 4200 
L 1400 3925 
L 1200 3775 
L 1000 2275 
L 1725 2275 
L 1975 4525 
L 1225 4525 
Q 900 4525 625 4450 
L 400 4675 
z
M 225 1075 
Q 725 1125 2000 1375 
L 2025 1275 
Q 600 850 500 650 
L 225 1075 
z
" transform="scale(0.015625)"/>
       <path id="SimSun-7ec4" d="M 1000 1525 
Q 1950 1675 2400 1775 
L 2425 1675 
Q 2100 1575 1537 1387 
Q 975 1200 750 1025 
L 475 1475 
Q 725 1550 987 1875 
Q 1250 2200 1750 3000 
Q 1375 2925 1087 2812 
Q 800 2700 625 2600 
L 400 3025 
Q 650 3075 1025 3912 
Q 1400 4750 1475 5175 
L 1925 4875 
Q 1700 4650 1475 4200 
Q 1225 3750 775 3025 
L 1800 3125 
Q 2050 3600 2200 4075 
L 2625 3775 
Q 2500 3650 2125 3075 
Q 1750 2475 1000 1525 
z
M 325 250 
Q 625 300 1312 475 
Q 2000 650 2525 825 
L 2575 700 
Q 2225 575 1525 262 
Q 825 -50 625 -225 
L 325 250 
z
M 3250 4550 
L 3250 3175 
L 4850 3175 
L 4850 4550 
L 3250 4550 
z
M 3250 3025 
L 3250 1625 
L 4850 1625 
L 4850 3025 
L 3250 3025 
z
M 3250 1475 
L 3250 -50 
L 4850 -50 
L 4850 1475 
L 3250 1475 
z
M 2925 3475 
Q 2925 4500 2900 4925 
L 3250 4700 
L 4825 4700 
L 5025 4975 
L 5425 4650 
L 5200 4450 
L 5200 -50 
L 5375 -50 
L 5750 300 
L 6175 -200 
L 2825 -200 
Q 2500 -200 2225 -275 
L 2000 -50 
L 2925 -50 
L 2925 3475 
z
" transform="scale(0.015625)"/>
       <path id="SimSun-2014" d="M 200 2200 
L 200 2450 
L 6225 2450 
L 6225 2200 
L 200 2200 
z
" transform="scale(0.015625)"/>
       <path id="SimSun-9884" d="M 475 4825 
L 2225 4825 
L 2425 5075 
L 2825 4675 
Q 2600 4625 2387 4412 
Q 2175 4200 1800 3750 
Q 2050 3575 2037 3400 
Q 2025 3225 1937 3150 
Q 1850 3075 1825 3075 
Q 1725 3075 1650 3300 
Q 1525 3600 1050 4100 
L 1100 4150 
Q 1475 3975 1700 3825 
L 2225 4675 
L 1300 4675 
Q 975 4675 700 4600 
L 475 4825 
z
M 725 100 
Q 1175 50 1362 37 
Q 1550 25 1550 275 
L 1550 2875 
L 1125 2875 
Q 800 2875 525 2800 
L 300 3025 
L 2525 3025 
L 2725 3275 
L 3150 2875 
Q 2800 2825 2275 2075 
L 2200 2125 
L 2550 2875 
L 1875 2875 
L 1875 150 
Q 1875 -400 1350 -500 
Q 1325 -175 725 0 
L 725 100 
z
M 3250 775 
Q 3275 1425 3275 2287 
Q 3275 3150 3250 3900 
L 3600 3700 
L 4050 3700 
Q 4175 4400 4200 4675 
L 3650 4675 
Q 3325 4675 3050 4600 
L 2825 4825 
L 5325 4825 
L 5675 5150 
L 6125 4675 
L 4675 4675 
Q 4500 4425 4175 3700 
L 5300 3700 
L 5475 3975 
L 5875 3675 
L 5675 3475 
L 5675 1950 
Q 5675 1525 5700 1075 
L 5350 875 
L 5350 3550 
L 3600 3550 
L 3600 1000 
L 3250 775 
z
M 4850 2875 
L 4625 2675 
Q 4625 1475 4475 937 
Q 4325 400 3900 50 
Q 3475 -300 2425 -625 
L 2400 -550 
Q 3500 -50 3837 400 
Q 4175 850 4237 1587 
Q 4300 2325 4275 3175 
L 4850 2875 
z
M 4650 950 
Q 5725 375 5875 212 
Q 6025 50 6025 -125 
Q 6025 -225 5962 -387 
Q 5900 -550 5850 -550 
Q 5800 -550 5750 -450 
Q 5625 -250 5437 0 
Q 5250 250 4600 875 
L 4650 950 
z
" transform="scale(0.015625)"/>
       <path id="SimSun-6d4b" d="M 1975 1000 
Q 2000 1475 2000 2925 
Q 2000 4375 1975 5000 
L 2350 4775 
L 3575 4775 
L 3775 4975 
L 4100 4650 
L 3900 4500 
L 3900 2350 
Q 3900 1850 3925 1350 
L 3600 1200 
L 3600 4625 
L 2325 4625 
L 2325 1150 
L 1975 1000 
z
M 2775 3975 
L 3300 3700 
L 3125 3525 
Q 3150 1825 2875 937 
Q 2600 50 1375 -600 
L 1325 -500 
Q 2200 100 2475 725 
Q 2750 1350 2775 2187 
Q 2800 3025 2775 3975 
z
M 3100 950 
Q 3825 450 3937 262 
Q 4050 75 4050 -25 
Q 4050 -150 3975 -262 
Q 3900 -375 3850 -375 
Q 3750 -375 3650 -75 
Q 3500 375 3050 875 
L 3100 950 
z
M 4475 825 
Q 4500 1200 4500 1700 
L 4500 3400 
Q 4500 3950 4475 4300 
L 5025 4025 
L 4825 3825 
L 4825 1700 
Q 4825 1325 4850 950 
L 4475 825 
z
M 5375 150 
L 5375 4050 
Q 5375 4750 5350 5125 
L 5875 4875 
L 5700 4700 
L 5700 75 
Q 5700 -200 5600 -350 
Q 5500 -500 5200 -600 
Q 5025 -225 4450 -50 
L 4450 50 
Q 5125 -50 5250 -37 
Q 5375 -25 5375 150 
z
M 1850 3500 
Q 1375 1525 1300 1225 
Q 1200 900 1212 450 
Q 1225 0 1250 -175 
Q 1250 -275 1125 -275 
Q 1025 -275 875 -225 
Q 725 -175 725 0 
Q 725 125 800 375 
Q 875 625 875 775 
Q 875 950 762 1050 
Q 650 1150 275 1250 
L 275 1350 
Q 725 1300 837 1312 
Q 950 1325 1087 1537 
Q 1225 1750 1750 3525 
L 1850 3500 
z
M 375 3775 
Q 1075 3350 1112 3100 
Q 1150 2850 1050 2775 
Q 950 2700 900 2700 
Q 800 2700 725 2975 
Q 600 3350 325 3700 
L 375 3775 
z
M 800 5100 
Q 1475 4725 1550 4512 
Q 1625 4300 1525 4187 
Q 1425 4075 1350 4075 
Q 1275 4075 1200 4300 
Q 1075 4650 750 5025 
L 800 5100 
z
" transform="scale(0.015625)"/>
       <path id="SimSun-5f0f" d="M 2200 575 
L 3650 900 
L 3675 800 
Q 2150 325 1487 87 
Q 825 -150 725 -300 
L 375 175 
Q 1175 325 1850 475 
L 1850 2400 
L 1425 2400 
Q 1100 2400 825 2325 
L 600 2550 
L 2625 2550 
L 2950 2875 
L 3425 2400 
L 2200 2400 
L 2200 575 
z
M 4425 4975 
Q 4900 4800 5112 4662 
Q 5325 4525 5312 4350 
Q 5300 4175 5225 4100 
Q 5150 4025 5100 4025 
Q 5000 4025 4925 4225 
Q 4775 4525 4375 4900 
L 4425 4975 
z
M 3875 4775 
Q 3875 4200 3900 3775 
L 5050 3775 
L 5450 4175 
L 6000 3625 
L 3900 3625 
Q 4000 2350 4237 1662 
Q 4475 975 4787 600 
Q 5100 225 5600 25 
Q 5675 525 5775 1225 
L 5900 1225 
Q 5875 250 5937 -62 
Q 6000 -375 6100 -525 
Q 6150 -600 6050 -600 
Q 5950 -600 5487 -437 
Q 5025 -275 4600 187 
Q 4175 650 3900 1475 
Q 3625 2300 3550 3625 
L 1350 3625 
Q 1025 3625 750 3550 
L 525 3775 
L 3525 3775 
Q 3500 4500 3475 5225 
L 4100 4950 
L 3875 4775 
z
" transform="scale(0.015625)"/>
      </defs>
      <use xlink:href="#SimSun-5b9e"/>
      <use xlink:href="#SimSun-9a8c" x="100"/>
      <use xlink:href="#SimSun-7ec4" x="200"/>
      <use xlink:href="#SimSun-2014" x="300"/>
      <use xlink:href="#SimSun-9884" x="400"/>
      <use xlink:href="#SimSun-6d4b" x="500"/>
      <use xlink:href="#SimSun-5f0f" x="600"/>
     </g>
    </g>
    <g id="line2d_38">
     <path d="M 613.771875 87.246875 
L 633.771875 87.246875 
L 653.771875 87.246875 
" style="fill: none; stroke: #ff7f0e; stroke-width: 1.5; stroke-linecap: square"/>
    </g>
    <g id="text_21">
     <!-- 对照组—被动式 -->
     <g transform="translate(669.771875 94.246875) scale(0.2 -0.2)">
      <defs>
       <path id="SimSun-5bf9" d="M 400 4250 
L 2375 4250 
L 2575 4500 
L 3000 4150 
L 2750 3950 
Q 2400 2850 2075 2100 
Q 2575 1375 2675 1062 
Q 2775 750 2762 537 
Q 2750 325 2662 237 
Q 2575 150 2550 150 
Q 2450 150 2375 575 
Q 2250 1075 1925 1800 
Q 1675 1350 1275 875 
Q 875 400 250 -100 
L 225 25 
Q 675 450 1087 1037 
Q 1500 1625 1725 2100 
Q 1000 3125 675 3550 
L 750 3625 
Q 1300 3025 1850 2400 
Q 2100 3050 2375 4100 
L 1225 4100 
Q 900 4100 625 4025 
L 400 4250 
z
M 3600 125 
Q 4375 0 4537 25 
Q 4700 50 4700 225 
L 4700 3350 
L 3525 3350 
Q 3200 3350 2925 3275 
L 2700 3500 
L 4700 3500 
L 4700 4350 
Q 4700 4800 4675 5125 
L 5275 4825 
L 5050 4625 
L 5050 3500 
L 5325 3500 
L 5650 3825 
L 6125 3350 
L 5050 3350 
L 5050 50 
Q 5050 -375 4500 -600 
Q 4500 -300 3600 0 
L 3600 125 
z
M 3100 2775 
L 3175 2825 
Q 3700 2400 3812 2175 
Q 3925 1950 3925 1800 
Q 3925 1625 3800 1462 
Q 3675 1300 3650 1300 
Q 3550 1300 3525 1650 
Q 3450 2125 3100 2775 
z
" transform="scale(0.015625)"/>
       <path id="SimSun-7167" d="M 750 4975 
L 1100 4750 
L 2050 4750 
L 2225 5025 
L 2600 4700 
L 2400 4525 
Q 2400 1700 2425 1350 
L 2075 1225 
L 2075 1625 
L 1100 1625 
L 1100 1200 
L 750 1025 
Q 775 1575 775 2950 
Q 775 4325 750 4975 
z
M 1100 4600 
L 1100 3275 
L 2075 3275 
L 2075 4600 
L 1100 4600 
z
M 1100 3125 
L 1100 1775 
L 2075 1775 
L 2075 3125 
L 1100 3125 
z
M 4075 4725 
Q 3825 3375 2625 2750 
L 2575 2825 
Q 3575 3675 3700 4725 
L 3650 4725 
Q 3325 4725 3050 4650 
L 2825 4875 
L 5125 4875 
L 5300 5100 
L 5700 4775 
L 5500 4625 
Q 5400 3825 5250 3537 
Q 5100 3250 4700 3150 
Q 4700 3500 4150 3650 
L 4175 3750 
Q 4500 3675 4700 3675 
Q 4825 3675 4937 3725 
Q 5050 3775 5150 4725 
L 4075 4725 
z
M 3600 2725 
L 3600 1725 
L 5075 1725 
L 5075 2725 
L 3600 2725 
z
M 3225 1300 
Q 3250 1825 3250 2237 
Q 3250 2650 3225 3050 
L 3600 2875 
L 5050 2875 
L 5225 3125 
L 5600 2850 
L 5425 2675 
Q 5425 1775 5450 1475 
L 5075 1350 
L 5075 1575 
L 3600 1575 
L 3600 1425 
L 3225 1300 
z
M 1250 950 
Q 1275 100 1100 -175 
Q 925 -450 687 -400 
Q 450 -350 450 -275 
Q 450 -175 600 -50 
Q 900 250 1150 950 
L 1250 950 
z
M 2125 1000 
Q 2525 650 2662 425 
Q 2800 200 2800 75 
Q 2800 -100 2675 -237 
Q 2550 -375 2500 -375 
Q 2400 -375 2375 -50 
Q 2325 425 2050 950 
L 2125 1000 
z
M 3500 1025 
Q 4050 575 4150 412 
Q 4250 250 4250 125 
Q 4250 -50 4150 -187 
Q 4050 -325 3975 -325 
Q 3900 -325 3850 -75 
Q 3775 350 3425 975 
L 3500 1025 
z
M 4900 1025 
Q 5650 525 5762 337 
Q 5875 150 5875 50 
Q 5875 -100 5762 -275 
Q 5650 -450 5600 -450 
Q 5525 -450 5450 -175 
Q 5325 275 4825 975 
L 4900 1025 
z
" transform="scale(0.015625)"/>
       <path id="SimSun-88ab" d="M 3125 3825 
L 3125 2500 
L 4025 2500 
L 4025 3825 
L 3125 3825 
z
M 3550 2350 
Q 3875 1425 4325 875 
Q 4750 1400 5050 2350 
L 3550 2350 
z
M 5400 2200 
Q 5025 1200 4525 625 
Q 5150 0 6125 -150 
L 6125 -225 
Q 5800 -275 5650 -525 
Q 4950 -225 4325 425 
Q 3475 -275 2450 -600 
L 2425 -500 
Q 3375 -75 4125 650 
Q 3700 1300 3450 2350 
L 3125 2350 
Q 3100 1350 2837 650 
Q 2575 -50 1850 -650 
L 1775 -575 
Q 2300 -25 2537 662 
Q 2775 1350 2787 2487 
Q 2800 3625 2775 4225 
L 3175 3975 
L 4025 3975 
Q 4025 4825 4000 5250 
L 4525 5025 
L 4350 4825 
L 4350 3975 
L 5350 3975 
L 5600 4225 
L 6025 3750 
Q 5850 3725 5687 3650 
Q 5525 3575 5175 3125 
L 5075 3175 
L 5375 3825 
L 4350 3825 
L 4350 2500 
L 5025 2500 
L 5250 2725 
L 5625 2350 
L 5400 2200 
z
M 2150 3650 
Q 1950 3200 1600 2625 
L 1600 2125 
L 1750 2050 
Q 2075 2600 2200 3025 
L 2625 2700 
L 2425 2600 
Q 2125 2300 1825 2000 
Q 2350 1700 2387 1575 
Q 2425 1450 2425 1375 
Q 2425 1225 2350 1137 
Q 2275 1050 2250 1050 
Q 2175 1050 2125 1250 
Q 2025 1525 1600 2000 
Q 1600 150 1625 -425 
L 1250 -600 
Q 1275 0 1275 2200 
Q 825 1650 300 1275 
L 250 1350 
Q 775 1850 1162 2475 
Q 1550 3100 1800 3750 
L 1200 3750 
Q 875 3750 600 3675 
L 375 3900 
L 1775 3900 
L 2025 4150 
L 2375 3800 
L 2150 3650 
z
M 1050 5225 
Q 1575 4950 1675 4812 
Q 1775 4675 1775 4575 
Q 1775 4475 1687 4350 
Q 1600 4225 1575 4225 
Q 1500 4225 1425 4450 
Q 1300 4800 1000 5150 
L 1050 5225 
z
" transform="scale(0.015625)"/>
       <path id="SimSun-52a8" d="M 5950 3500 
L 5750 3325 
Q 5725 675 5587 137 
Q 5450 -400 4850 -575 
Q 4825 -300 4075 25 
L 4100 150 
Q 4625 25 4925 25 
Q 5075 25 5162 87 
Q 5250 150 5312 737 
Q 5375 1325 5425 3425 
L 4375 3425 
Q 4350 2475 4162 1725 
Q 3975 975 3487 400 
Q 3000 -175 2200 -625 
L 2125 -550 
Q 2925 0 3312 562 
Q 3700 1125 3862 1825 
Q 4025 2525 4050 3425 
L 3600 3425 
L 3300 3375 
L 3100 3575 
L 4050 3575 
Q 4050 4625 4025 5175 
L 4550 4925 
L 4375 4750 
L 4375 3575 
L 5375 3575 
L 5575 3800 
L 5950 3500 
z
M 475 4325 
L 2275 4325 
L 2575 4625 
L 3025 4175 
L 1200 4175 
Q 925 4175 700 4100 
L 475 4325 
z
M 275 3050 
L 2625 3050 
L 2925 3350 
L 3375 2900 
L 1700 2900 
L 2100 2600 
Q 1850 2500 1450 1875 
Q 1025 1250 675 875 
L 2650 1100 
Q 2400 1600 2125 2025 
L 2200 2075 
Q 3075 1275 3125 987 
Q 3175 700 3062 587 
Q 2950 475 2925 475 
Q 2850 475 2825 600 
Q 2775 775 2700 975 
Q 875 650 600 350 
L 325 850 
Q 600 925 1025 1687 
Q 1450 2450 1550 2900 
L 750 2900 
L 475 2850 
L 275 3050 
z
" transform="scale(0.015625)"/>
      </defs>
      <use xlink:href="#SimSun-5bf9"/>
      <use xlink:href="#SimSun-7167" x="100"/>
      <use xlink:href="#SimSun-7ec4" x="200"/>
      <use xlink:href="#SimSun-2014" x="300"/>
      <use xlink:href="#SimSun-88ab" x="400"/>
      <use xlink:href="#SimSun-52a8" x="500"/>
      <use xlink:href="#SimSun-5f0f" x="600"/>
     </g>
    </g>
   </g>
  </g>
 </g>
 <defs>
  <clipPath id="pba471e0cd3">
   <rect x="66.403125" y="31.95" width="761.36875" height="555.4175"/>
  </clipPath>
 </defs>
</svg>
