<?xml version="1.0" encoding="utf-8" standalone="no"?>
<!DOCTYPE svg PUBLIC "-//W3C//DTD SVG 1.1//EN"
  "http://www.w3.org/Graphics/SVG/1.1/DTD/svg11.dtd">
<svg xmlns:xlink="http://www.w3.org/1999/xlink" width="1395.590422pt" height="1411.34625pt" viewBox="0 0 1395.590422 1411.34625" xmlns="http://www.w3.org/2000/svg" version="1.1">
 <metadata>
  <rdf:RDF xmlns:dc="http://purl.org/dc/elements/1.1/" xmlns:cc="http://creativecommons.org/ns#" xmlns:rdf="http://www.w3.org/1999/02/22-rdf-syntax-ns#">
   <cc:Work>
    <dc:type rdf:resource="http://purl.org/dc/dcmitype/StillImage"/>
    <dc:date>2024-02-28T09:37:37.343844</dc:date>
    <dc:format>image/svg+xml</dc:format>
    <dc:creator>
     <cc:Agent>
      <dc:title>Matplotlib v3.7.4, https://matplotlib.org/</dc:title>
     </cc:Agent>
    </dc:creator>
   </cc:Work>
  </rdf:RDF>
 </metadata>
 <defs>
  <style type="text/css">*{stroke-linejoin: round; stroke-linecap: butt}</style>
 </defs>
 <g id="figure_1">
  <g id="patch_1">
   <path d="M 0 1411.34625 
L 1395.590422 1411.34625 
L 1395.590422 0 
L 0 0 
z
" style="fill: #ffffff"/>
  </g>
  <g id="axes_1">
   <g id="patch_2">
    <path d="M 56.6375 244.260625 
L 1376.846466 244.260625 
L 1376.846466 27.340625 
L 56.6375 27.340625 
z
" style="fill: #ffffff"/>
   </g>
   <g id="matplotlib.axis_1">
    <g id="xtick_1">
     <g id="line2d_1">
      <defs>
       <path id="m3de4ce46f6" d="M 0 0 
L 0 3.5 
" style="stroke: #000000; stroke-width: 0.8"/>
      </defs>
      <g>
       <use xlink:href="#m3de4ce46f6" x="116.646998" y="244.260625" style="stroke: #000000; stroke-width: 0.8"/>
      </g>
     </g>
     <g id="text_1">
      <!-- 0 -->
      <g transform="translate(111.646998 265.148125) scale(0.2 -0.2)">
       <defs>
        <path id="TimesNewRomanPSMT-30" d="M 231 2094 
Q 231 2819 450 3342 
Q 669 3866 1031 4122 
Q 1313 4325 1613 4325 
Q 2100 4325 2488 3828 
Q 2972 3213 2972 2159 
Q 2972 1422 2759 906 
Q 2547 391 2217 158 
Q 1888 -75 1581 -75 
Q 975 -75 572 641 
Q 231 1244 231 2094 
z
M 844 2016 
Q 844 1141 1059 588 
Q 1238 122 1591 122 
Q 1759 122 1940 273 
Q 2122 425 2216 781 
Q 2359 1319 2359 2297 
Q 2359 3022 2209 3506 
Q 2097 3866 1919 4016 
Q 1791 4119 1609 4119 
Q 1397 4119 1231 3928 
Q 1006 3669 925 3112 
Q 844 2556 844 2016 
z
" transform="scale(0.015625)"/>
       </defs>
       <use xlink:href="#TimesNewRomanPSMT-30"/>
      </g>
     </g>
    </g>
    <g id="xtick_2">
     <g id="line2d_2">
      <g>
       <use xlink:href="#m3de4ce46f6" x="273.739926" y="244.260625" style="stroke: #000000; stroke-width: 0.8"/>
      </g>
     </g>
     <g id="text_2">
      <!-- 25 -->
      <g transform="translate(263.739926 265.148125) scale(0.2 -0.2)">
       <defs>
        <path id="TimesNewRomanPSMT-32" d="M 2934 816 
L 2638 0 
L 138 0 
L 138 116 
Q 1241 1122 1691 1759 
Q 2141 2397 2141 2925 
Q 2141 3328 1894 3587 
Q 1647 3847 1303 3847 
Q 991 3847 742 3664 
Q 494 3481 375 3128 
L 259 3128 
Q 338 3706 661 4015 
Q 984 4325 1469 4325 
Q 1984 4325 2329 3994 
Q 2675 3663 2675 3213 
Q 2675 2891 2525 2569 
Q 2294 2063 1775 1497 
Q 997 647 803 472 
L 1909 472 
Q 2247 472 2383 497 
Q 2519 522 2628 598 
Q 2738 675 2819 816 
L 2934 816 
z
" transform="scale(0.015625)"/>
        <path id="TimesNewRomanPSMT-35" d="M 2778 4238 
L 2534 3706 
L 1259 3706 
L 981 3138 
Q 1809 3016 2294 2522 
Q 2709 2097 2709 1522 
Q 2709 1188 2573 903 
Q 2438 619 2231 419 
Q 2025 219 1772 97 
Q 1413 -75 1034 -75 
Q 653 -75 479 54 
Q 306 184 306 341 
Q 306 428 378 495 
Q 450 563 559 563 
Q 641 563 702 538 
Q 763 513 909 409 
Q 1144 247 1384 247 
Q 1750 247 2026 523 
Q 2303 800 2303 1197 
Q 2303 1581 2056 1914 
Q 1809 2247 1375 2428 
Q 1034 2569 447 2591 
L 1259 4238 
L 2778 4238 
z
" transform="scale(0.015625)"/>
       </defs>
       <use xlink:href="#TimesNewRomanPSMT-32"/>
       <use xlink:href="#TimesNewRomanPSMT-35" x="50"/>
      </g>
     </g>
    </g>
    <g id="xtick_3">
     <g id="line2d_3">
      <g>
       <use xlink:href="#m3de4ce46f6" x="430.832854" y="244.260625" style="stroke: #000000; stroke-width: 0.8"/>
      </g>
     </g>
     <g id="text_3">
      <!-- 50 -->
      <g transform="translate(420.832854 265.148125) scale(0.2 -0.2)">
       <use xlink:href="#TimesNewRomanPSMT-35"/>
       <use xlink:href="#TimesNewRomanPSMT-30" x="50"/>
      </g>
     </g>
    </g>
    <g id="xtick_4">
     <g id="line2d_4">
      <g>
       <use xlink:href="#m3de4ce46f6" x="587.925782" y="244.260625" style="stroke: #000000; stroke-width: 0.8"/>
      </g>
     </g>
     <g id="text_4">
      <!-- 75 -->
      <g transform="translate(577.925782 265.148125) scale(0.2 -0.2)">
       <defs>
        <path id="TimesNewRomanPSMT-37" d="M 644 4238 
L 2916 4238 
L 2916 4119 
L 1503 -88 
L 1153 -88 
L 2419 3728 
L 1253 3728 
Q 900 3728 750 3644 
Q 488 3500 328 3200 
L 238 3234 
L 644 4238 
z
" transform="scale(0.015625)"/>
       </defs>
       <use xlink:href="#TimesNewRomanPSMT-37"/>
       <use xlink:href="#TimesNewRomanPSMT-35" x="50"/>
      </g>
     </g>
    </g>
    <g id="xtick_5">
     <g id="line2d_5">
      <g>
       <use xlink:href="#m3de4ce46f6" x="745.01871" y="244.260625" style="stroke: #000000; stroke-width: 0.8"/>
      </g>
     </g>
     <g id="text_5">
      <!-- 100 -->
      <g transform="translate(730.01871 265.148125) scale(0.2 -0.2)">
       <defs>
        <path id="TimesNewRomanPSMT-31" d="M 750 3822 
L 1781 4325 
L 1884 4325 
L 1884 747 
Q 1884 391 1914 303 
Q 1944 216 2037 169 
Q 2131 122 2419 116 
L 2419 0 
L 825 0 
L 825 116 
Q 1125 122 1212 167 
Q 1300 213 1334 289 
Q 1369 366 1369 747 
L 1369 3034 
Q 1369 3497 1338 3628 
Q 1316 3728 1258 3775 
Q 1200 3822 1119 3822 
Q 1003 3822 797 3725 
L 750 3822 
z
" transform="scale(0.015625)"/>
       </defs>
       <use xlink:href="#TimesNewRomanPSMT-31"/>
       <use xlink:href="#TimesNewRomanPSMT-30" x="50"/>
       <use xlink:href="#TimesNewRomanPSMT-30" x="100"/>
      </g>
     </g>
    </g>
    <g id="xtick_6">
     <g id="line2d_6">
      <g>
       <use xlink:href="#m3de4ce46f6" x="902.111638" y="244.260625" style="stroke: #000000; stroke-width: 0.8"/>
      </g>
     </g>
     <g id="text_6">
      <!-- 125 -->
      <g transform="translate(887.111638 265.148125) scale(0.2 -0.2)">
       <use xlink:href="#TimesNewRomanPSMT-31"/>
       <use xlink:href="#TimesNewRomanPSMT-32" x="50"/>
       <use xlink:href="#TimesNewRomanPSMT-35" x="100"/>
      </g>
     </g>
    </g>
    <g id="xtick_7">
     <g id="line2d_7">
      <g>
       <use xlink:href="#m3de4ce46f6" x="1059.204566" y="244.260625" style="stroke: #000000; stroke-width: 0.8"/>
      </g>
     </g>
     <g id="text_7">
      <!-- 150 -->
      <g transform="translate(1044.204566 265.148125) scale(0.2 -0.2)">
       <use xlink:href="#TimesNewRomanPSMT-31"/>
       <use xlink:href="#TimesNewRomanPSMT-35" x="50"/>
       <use xlink:href="#TimesNewRomanPSMT-30" x="100"/>
      </g>
     </g>
    </g>
    <g id="xtick_8">
     <g id="line2d_8">
      <g>
       <use xlink:href="#m3de4ce46f6" x="1216.297494" y="244.260625" style="stroke: #000000; stroke-width: 0.8"/>
      </g>
     </g>
     <g id="text_8">
      <!-- 175 -->
      <g transform="translate(1201.297494 265.148125) scale(0.2 -0.2)">
       <use xlink:href="#TimesNewRomanPSMT-31"/>
       <use xlink:href="#TimesNewRomanPSMT-37" x="50"/>
       <use xlink:href="#TimesNewRomanPSMT-35" x="100"/>
      </g>
     </g>
    </g>
    <g id="xtick_9">
     <g id="line2d_9">
      <g>
       <use xlink:href="#m3de4ce46f6" x="1373.390422" y="244.260625" style="stroke: #000000; stroke-width: 0.8"/>
      </g>
     </g>
     <g id="text_9">
      <!-- 200 -->
      <g transform="translate(1358.390422 265.148125) scale(0.2 -0.2)">
       <use xlink:href="#TimesNewRomanPSMT-32"/>
       <use xlink:href="#TimesNewRomanPSMT-30" x="50"/>
       <use xlink:href="#TimesNewRomanPSMT-30" x="100"/>
      </g>
     </g>
    </g>
   </g>
   <g id="matplotlib.axis_2">
    <g id="ytick_1">
     <g id="line2d_10">
      <defs>
       <path id="mcab4f1b87d" d="M 0 0 
L -3.5 0 
" style="stroke: #000000; stroke-width: 0.8"/>
      </defs>
      <g>
       <use xlink:href="#mcab4f1b87d" x="56.6375" y="236.127923" style="stroke: #000000; stroke-width: 0.8"/>
      </g>
     </g>
     <g id="text_10">
      <!-- 2 -->
      <g transform="translate(39.6375 243.071673) scale(0.2 -0.2)">
       <use xlink:href="#TimesNewRomanPSMT-32"/>
      </g>
     </g>
    </g>
    <g id="ytick_2">
     <g id="line2d_11">
      <g>
       <use xlink:href="#mcab4f1b87d" x="56.6375" y="178.55128" style="stroke: #000000; stroke-width: 0.8"/>
      </g>
     </g>
     <g id="text_11">
      <!-- 4 -->
      <g transform="translate(39.6375 185.49503) scale(0.2 -0.2)">
       <defs>
        <path id="TimesNewRomanPSMT-34" d="M 2978 1563 
L 2978 1119 
L 2409 1119 
L 2409 0 
L 1894 0 
L 1894 1119 
L 100 1119 
L 100 1519 
L 2066 4325 
L 2409 4325 
L 2409 1563 
L 2978 1563 
z
M 1894 1563 
L 1894 3666 
L 406 1563 
L 1894 1563 
z
" transform="scale(0.015625)"/>
       </defs>
       <use xlink:href="#TimesNewRomanPSMT-34"/>
      </g>
     </g>
    </g>
    <g id="ytick_3">
     <g id="line2d_12">
      <g>
       <use xlink:href="#mcab4f1b87d" x="56.6375" y="120.974636" style="stroke: #000000; stroke-width: 0.8"/>
      </g>
     </g>
     <g id="text_12">
      <!-- 6 -->
      <g transform="translate(39.6375 127.918386) scale(0.2 -0.2)">
       <defs>
        <path id="TimesNewRomanPSMT-36" d="M 2869 4325 
L 2869 4209 
Q 2456 4169 2195 4045 
Q 1934 3922 1679 3669 
Q 1425 3416 1258 3105 
Q 1091 2794 978 2366 
Q 1428 2675 1881 2675 
Q 2316 2675 2634 2325 
Q 2953 1975 2953 1425 
Q 2953 894 2631 456 
Q 2244 -75 1606 -75 
Q 1172 -75 869 213 
Q 275 772 275 1663 
Q 275 2231 503 2743 
Q 731 3256 1154 3653 
Q 1578 4050 1965 4187 
Q 2353 4325 2688 4325 
L 2869 4325 
z
M 925 2138 
Q 869 1716 869 1456 
Q 869 1156 980 804 
Q 1091 453 1309 247 
Q 1469 100 1697 100 
Q 1969 100 2183 356 
Q 2397 613 2397 1088 
Q 2397 1622 2184 2012 
Q 1972 2403 1581 2403 
Q 1463 2403 1327 2353 
Q 1191 2303 925 2138 
z
" transform="scale(0.015625)"/>
       </defs>
       <use xlink:href="#TimesNewRomanPSMT-36"/>
      </g>
     </g>
    </g>
    <g id="ytick_4">
     <g id="line2d_13">
      <g>
       <use xlink:href="#mcab4f1b87d" x="56.6375" y="63.397993" style="stroke: #000000; stroke-width: 0.8"/>
      </g>
     </g>
     <g id="text_13">
      <!-- 8 -->
      <g transform="translate(39.6375 70.341743) scale(0.2 -0.2)">
       <defs>
        <path id="TimesNewRomanPSMT-38" d="M 1228 2134 
Q 725 2547 579 2797 
Q 434 3047 434 3316 
Q 434 3728 753 4026 
Q 1072 4325 1600 4325 
Q 2113 4325 2425 4047 
Q 2738 3769 2738 3413 
Q 2738 3175 2569 2928 
Q 2400 2681 1866 2347 
Q 2416 1922 2594 1678 
Q 2831 1359 2831 1006 
Q 2831 559 2490 242 
Q 2150 -75 1597 -75 
Q 994 -75 656 303 
Q 388 606 388 966 
Q 388 1247 577 1523 
Q 766 1800 1228 2134 
z
M 1719 2469 
Q 2094 2806 2194 3001 
Q 2294 3197 2294 3444 
Q 2294 3772 2109 3958 
Q 1925 4144 1606 4144 
Q 1288 4144 1088 3959 
Q 888 3775 888 3528 
Q 888 3366 970 3203 
Q 1053 3041 1206 2894 
L 1719 2469 
z
M 1375 2016 
Q 1116 1797 991 1539 
Q 866 1281 866 981 
Q 866 578 1086 336 
Q 1306 94 1647 94 
Q 1984 94 2187 284 
Q 2391 475 2391 747 
Q 2391 972 2272 1150 
Q 2050 1481 1375 2016 
z
" transform="scale(0.015625)"/>
       </defs>
       <use xlink:href="#TimesNewRomanPSMT-38"/>
      </g>
     </g>
    </g>
    <g id="text_14">
     <!-- CPU使用率 -->
     <g transform="translate(33.059375 180.800625) rotate(-90) scale(0.2 -0.2)">
      <defs>
       <path id="SimSun-43" d="M 1725 50 
Q 1025 50 612 575 
Q 200 1100 200 2225 
Q 200 3175 637 3800 
Q 1075 4425 1825 4425 
Q 2000 4425 2175 4375 
Q 2350 4300 2475 4300 
Q 2575 4300 2637 4325 
Q 2700 4350 2750 4425 
L 2975 3325 
L 2825 3275 
Q 2675 3750 2425 4000 
Q 2175 4250 1775 4250 
Q 1250 4250 962 3675 
Q 675 3100 675 2250 
Q 675 1325 925 800 
Q 1175 275 1750 275 
Q 2150 275 2437 562 
Q 2725 850 2825 1325 
L 2975 1250 
Q 2850 725 2512 387 
Q 2175 50 1725 50 
z
" transform="scale(0.015625)"/>
       <path id="SimSun-50" d="M 950 2100 
L 950 450 
Q 950 350 1012 300 
Q 1075 250 1175 250 
L 1350 250 
L 1350 100 
L 150 100 
L 150 250 
L 325 250 
Q 450 250 500 300 
Q 550 350 550 450 
L 550 4025 
Q 550 4125 500 4175 
Q 450 4225 325 4225 
L 175 4225 
L 175 4375 
L 1650 4375 
Q 2275 4375 2612 4062 
Q 2950 3750 2950 3275 
Q 2950 2700 2587 2400 
Q 2225 2100 1725 2100 
L 950 2100 
z
M 1575 2250 
Q 1950 2250 2237 2475 
Q 2525 2700 2525 3250 
Q 2525 3750 2287 3987 
Q 2050 4225 1525 4225 
L 1175 4225 
Q 1075 4225 1012 4175 
Q 950 4125 950 4025 
L 950 2250 
L 1575 2250 
z
" transform="scale(0.015625)"/>
       <path id="SimSun-55" d="M 1625 250 
Q 2000 250 2262 500 
Q 2525 750 2525 1125 
L 2525 4025 
Q 2525 4125 2475 4175 
Q 2425 4225 2300 4225 
L 2150 4225 
L 2150 4375 
L 3050 4375 
L 3050 4225 
L 2900 4225 
Q 2800 4225 2737 4175 
Q 2675 4125 2675 4025 
L 2675 1125 
Q 2675 625 2337 337 
Q 2000 50 1575 50 
Q 1125 50 787 300 
Q 450 550 450 1100 
L 450 4025 
Q 450 4125 400 4175 
Q 350 4225 225 4225 
L 100 4225 
L 100 4375 
L 1200 4375 
L 1200 4225 
L 1075 4225 
Q 975 4225 912 4175 
Q 850 4125 850 4025 
L 850 1100 
Q 850 600 1062 425 
Q 1275 250 1625 250 
z
" transform="scale(0.015625)"/>
       <path id="SimSun-4f7f" d="M 2875 3150 
L 2875 2100 
L 3825 2100 
Q 3850 2825 3850 3150 
L 2875 3150 
z
M 4175 3150 
Q 4175 2800 4150 2100 
L 5150 2100 
L 5150 3150 
L 4175 3150 
z
M 5475 3100 
L 5475 2425 
Q 5475 2100 5500 1800 
L 5150 1675 
L 5150 1950 
L 4150 1950 
Q 4125 1175 3875 600 
Q 4275 275 4875 75 
Q 5475 -125 6075 -150 
L 6075 -250 
Q 5700 -300 5600 -575 
Q 4525 -325 3725 350 
Q 3425 25 2925 -225 
Q 2425 -475 1875 -650 
L 1825 -550 
Q 2400 -325 2850 -25 
Q 3300 275 3500 575 
Q 3200 925 2825 1650 
L 2900 1700 
Q 3325 1100 3625 825 
Q 3800 1300 3825 1950 
L 2875 1950 
L 2875 1825 
L 2525 1675 
Q 2550 2075 2550 2562 
Q 2550 3050 2525 3500 
L 2875 3300 
L 3850 3300 
L 3850 4025 
L 2975 4025 
Q 2650 4025 2375 3950 
L 2150 4175 
L 3850 4175 
L 3850 4525 
Q 3850 4775 3825 5225 
L 4350 5000 
L 4175 4825 
L 4175 4175 
L 5300 4175 
L 5600 4475 
L 6050 4025 
L 4175 4025 
L 4175 3300 
L 5100 3300 
L 5275 3525 
L 5650 3225 
L 5475 3100 
z
M 1675 3175 
L 1675 -450 
L 1325 -625 
Q 1350 -75 1350 350 
L 1350 3200 
Q 900 2475 350 1900 
L 275 1950 
Q 700 2525 1112 3400 
Q 1525 4275 1800 5250 
L 2325 4925 
L 2125 4800 
Q 1725 3925 1500 3525 
L 1875 3325 
L 1675 3175 
z
" transform="scale(0.015625)"/>
       <path id="SimSun-7528" d="M 3400 3150 
L 3400 1825 
L 5075 1825 
L 5075 3150 
L 3400 3150 
z
M 4075 100 
Q 4725 50 4900 62 
Q 5075 75 5075 400 
L 5075 1675 
L 3400 1675 
Q 3400 75 3425 -225 
L 3050 -400 
Q 3075 1025 3075 1675 
L 1425 1675 
Q 1250 350 375 -600 
L 300 -550 
Q 775 225 950 1025 
Q 1125 1825 1125 3225 
Q 1125 4625 1100 5075 
L 1475 4825 
L 5050 4825 
L 5225 5100 
L 5625 4800 
L 5425 4600 
L 5425 225 
Q 5450 -400 4875 -575 
Q 4825 -150 4075 -25 
L 4075 100 
z
M 1475 4675 
L 1475 3300 
L 3075 3300 
L 3075 4675 
L 1475 4675 
z
M 3400 4675 
L 3400 3300 
L 5075 3300 
L 5075 4675 
L 3400 4675 
z
M 1475 3150 
Q 1450 2100 1425 1825 
L 3075 1825 
L 3075 3150 
L 1475 3150 
z
" transform="scale(0.015625)"/>
       <path id="SimSun-7387" d="M 875 3725 
L 925 3800 
Q 1375 3650 1550 3525 
Q 1725 3400 1725 3250 
Q 1725 3175 1662 3025 
Q 1600 2875 1550 2875 
Q 1500 2875 1425 3050 
Q 1275 3325 875 3725 
z
M 550 1850 
Q 875 1925 2000 2575 
L 2050 2500 
Q 1675 2225 1337 1937 
Q 1000 1650 875 1425 
L 550 1850 
z
M 5200 3450 
Q 4800 3150 4275 2800 
L 4225 2875 
Q 4775 3400 5050 3925 
L 5450 3525 
L 5200 3450 
z
M 4325 2500 
L 4350 2575 
Q 5225 2350 5375 2212 
Q 5525 2075 5525 1900 
Q 5525 1775 5487 1662 
Q 5450 1550 5400 1550 
Q 5325 1550 5200 1800 
Q 4975 2150 4325 2500 
z
M 3150 3900 
Q 2500 3300 2300 3150 
Q 2800 3150 3400 3175 
Q 3700 3500 3850 3825 
L 4250 3450 
Q 4050 3400 3450 2825 
Q 2850 2250 2475 1950 
Q 3150 1975 3850 2000 
Q 3750 2175 3550 2450 
L 3600 2500 
Q 4050 2250 4200 2100 
Q 4350 1950 4350 1850 
Q 4350 1775 4250 1625 
Q 4150 1475 4100 1475 
Q 4075 1475 4050 1550 
Q 4000 1700 3900 1900 
Q 3650 1875 3075 1800 
L 3500 1550 
L 3325 1425 
L 3325 975 
L 5325 975 
L 5650 1300 
L 6100 825 
L 3325 825 
Q 3325 -275 3350 -525 
L 2975 -650 
Q 3000 0 3000 825 
L 1125 825 
Q 800 825 525 750 
L 300 975 
L 3000 975 
L 3000 1775 
Q 2450 1700 2200 1525 
L 1950 1950 
Q 2275 1950 2675 2350 
Q 3075 2750 3325 3050 
Q 2400 2950 2150 2775 
L 1950 3175 
Q 2150 3150 2475 3575 
Q 2800 4000 2900 4225 
L 1450 4225 
Q 1125 4225 850 4150 
L 625 4375 
L 3100 4375 
Q 3050 4800 2675 5200 
L 2725 5250 
Q 3225 5050 3337 4912 
Q 3450 4775 3450 4700 
Q 3450 4550 3250 4375 
L 5025 4375 
L 5350 4675 
L 5775 4225 
L 3050 4225 
L 3375 3950 
L 3150 3900 
z
" transform="scale(0.015625)"/>
      </defs>
      <use xlink:href="#SimSun-43"/>
      <use xlink:href="#SimSun-50" x="50"/>
      <use xlink:href="#SimSun-55" x="100"/>
      <use xlink:href="#SimSun-4f7f" x="150"/>
      <use xlink:href="#SimSun-7528" x="250"/>
      <use xlink:href="#SimSun-7387" x="350"/>
     </g>
    </g>
   </g>
   <g id="line2d_14">
    <path d="M 116.646998 234.400625 
L 122.930716 220.870106 
L 129.214433 214.248799 
L 135.49815 182.005882 
L 141.781867 180.278577 
L 148.065584 193.809089 
L 154.349301 214.824564 
L 160.633018 211.082079 
L 166.916735 166.172306 
L 173.200452 186.612009 
L 179.48417 211.369962 
L 185.767887 194.960628 
L 192.051604 201.294052 
L 198.335321 204.172882 
L 204.619038 220.294347 
L 210.902755 127.308061 
L 217.186472 167.323838 
L 223.470189 144.293175 
L 229.753907 118.095807 
L 236.037624 90.746907 
L 242.321341 149.187192 
L 248.605058 178.263403 
L 254.888775 163.869229 
L 261.172492 185.74836 
L 267.456209 196.400042 
L 273.739926 187.475658 
L 280.023643 197.551574 
L 286.307361 231.233906 
L 292.591078 175.960326 
L 298.874795 191.793909 
L 305.158512 98.807629 
L 311.442229 152.929677 
L 317.725946 194.672738 
L 324.009663 201.00617 
L 330.29338 160.9904 
L 336.577097 184.021062 
L 342.860815 210.21843 
L 349.144532 194.384855 
L 355.428249 186.324126 
L 361.711966 182.581648 
L 367.995683 209.354782 
L 374.2794 208.20325 
L 380.563117 222.309528 
L 386.846834 214.824564 
L 393.130552 211.082079 
L 399.414269 165.884416 
L 405.697986 186.612009 
L 411.981703 139.399158 
L 418.26542 173.369387 
L 424.549137 204.748655 
L 430.832854 191.793909 
L 437.116571 213.960916 
L 443.400288 224.900474 
L 449.684006 230.65814 
L 455.967723 218.854932 
L 462.25144 213.097267 
L 468.535157 210.21843 
L 474.818874 194.384855 
L 481.102591 201.00617 
L 487.386308 218.567043 
L 493.670025 212.809384 
L 499.953742 224.612598 
L 506.23746 215.976096 
L 512.521177 226.052013 
L 518.804894 216.551862 
L 525.088611 226.339889 
L 531.372328 216.839745 
L 537.656045 226.627772 
L 543.939762 216.839745 
L 550.223479 154.656975 
L 556.507197 152.066021 
L 562.790914 179.702811 
L 569.074631 207.915367 
L 575.358348 207.627484 
L 581.642065 222.021645 
L 587.925782 185.74836 
L 594.209499 182.293758 
L 600.493216 209.066899 
L 606.776933 208.20325 
L 613.060651 135.944563 
L 619.344368 171.642075 
L 625.628085 203.884999 
L 631.911802 76.064856 
L 638.195519 156.096383 
L 644.479236 181.717992 
L 650.762953 179.990694 
L 657.04667 179.414928 
L 663.330388 106.868352 
L 669.614105 114.065432 
L 675.897822 88.73172 
L 682.181539 119.247339 
L 688.465256 91.322659 
L 694.748973 149.187192 
L 701.03269 163.869229 
L 707.316407 113.777556 
L 713.600124 131.626312 
L 719.883842 155.232741 
L 726.167559 181.142226 
L 732.451276 165.59654 
L 738.734993 200.718287 
L 745.01871 175.38456 
L 751.302427 205.612303 
L 757.586144 206.475952 
L 763.869861 221.445879 
L 770.153578 214.248799 
L 776.437296 210.794196 
L 782.721013 93.913612 
L 789.00473 179.414928 
L 795.288447 193.521206 
L 801.572164 171.642075 
L 807.855881 160.702523 
L 814.139598 184.021062 
L 820.423315 195.536387 
L 826.707033 215.976096 
L 832.99075 211.657852 
L 839.274467 209.354782 
L 845.558184 222.885294 
L 851.841901 215.112447 
L 858.125618 225.47624 
L 864.409335 216.551862 
L 870.693052 226.339889 
L 876.976769 216.839745 
L 883.260487 226.339889 
L 889.544204 216.839745 
L 895.827921 212.233611 
L 902.111638 224.036825 
L 908.395355 230.082374 
L 914.679072 218.854932 
L 920.962789 198.703106 
L 927.246506 217.415511 
L 933.530223 226.627772 
L 939.813941 231.521789 
L 946.097658 219.430691 
L 952.381375 98.231863 
L 958.665092 181.430116 
L 964.948809 165.59654 
L 971.232526 143.429533 
L 977.516243 189.778728 
L 983.79996 212.809384 
L 990.083678 181.430116 
L 996.367395 194.384855 
L 1002.651112 186.324126 
L 1008.934829 125.004998 
L 1015.218546 122.989824 
L 1021.502263 150.626614 
L 1027.78598 193.521206 
L 1034.069697 200.430404 
L 1040.353414 160.702523 
L 1046.637132 169.626901 
L 1052.920849 101.974349 
L 1059.204566 97.080332 
L 1065.488283 37.200625 
L 1071.772 107.732007 
L 1078.055717 128.747483 
L 1084.339434 153.793319 
L 1090.623151 194.960628 
L 1096.906868 172.217855 
L 1103.190586 132.202078 
L 1109.474303 169.914778 
L 1115.75802 145.444707 
L 1122.041737 147.459894 
L 1128.325454 177.399748 
L 1134.609171 177.975514 
L 1140.892888 163.869229 
L 1147.176605 200.142521 
L 1153.460323 189.202962 
L 1159.74404 198.415223 
L 1166.027757 217.127628 
L 1172.311474 212.233611 
L 1178.595191 195.536387 
L 1184.878908 186.899892 
L 1191.162625 125.292887 
L 1197.446342 180.56646 
L 1203.730059 194.096972 
L 1210.013777 215.112447 
L 1216.297494 211.082079 
L 1222.581211 209.354782 
L 1228.864928 193.809089 
L 1235.148645 186.324126 
L 1241.432362 196.687919 
L 1247.716079 187.763547 
L 1253.999796 197.551574 
L 1260.283513 216.839745 
L 1266.567231 226.339889 
L 1272.850948 216.839745 
L 1279.134665 226.627772 
L 1285.418382 231.233906 
L 1291.702099 233.824852 
L 1297.985816 220.58223 
L 1304.269533 213.960916 
L 1310.55325 66.564712 
L 1316.836968 137.096095 
L 1316.836968 137.096095 
" clip-path="url(#p9d603902b9)" style="fill: none; stroke: #1f77b4; stroke-width: 1.5; stroke-linecap: square"/>
   </g>
   <g id="line2d_15">
    <path d="M 1021.502263 180.952658 
L 1027.78598 179.503065 
L 1034.069697 180.606359 
L 1040.353414 181.293515 
L 1046.637132 180.091583 
L 1052.920849 180.141983 
L 1059.204566 179.703758 
L 1065.488283 180.590881 
L 1071.772 180.156466 
L 1078.055717 178.842656 
L 1084.339434 179.693209 
L 1090.623151 179.27329 
L 1096.906868 179.834971 
L 1103.190586 180.635598 
L 1109.474303 180.457094 
L 1115.75802 180.353412 
L 1122.041737 180.646298 
L 1128.325454 180.657301 
L 1134.609171 180.012857 
L 1140.892888 180.373028 
L 1147.176605 180.039165 
L 1153.460323 179.055334 
L 1159.74404 179.000452 
L 1166.027757 180.968596 
L 1172.311474 179.614675 
L 1178.595191 180.625344 
L 1184.878908 179.180404 
L 1191.162625 180.664013 
L 1197.446342 180.564916 
L 1203.730059 181.153551 
L 1210.013777 180.449805 
L 1216.297494 182.359189 
L 1222.581211 180.634747 
L 1228.864928 180.622735 
L 1235.148645 180.295867 
L 1241.432362 180.489086 
L 1247.716079 180.250615 
L 1253.999796 180.196707 
L 1260.283513 180.137144 
L 1266.567231 181.733538 
L 1272.850948 182.482268 
L 1279.134665 181.994433 
L 1285.418382 181.250356 
L 1291.702099 181.374575 
L 1297.985816 182.331817 
L 1304.269533 181.924636 
L 1310.55325 182.667663 
L 1316.836968 181.631818 
" clip-path="url(#p9d603902b9)" style="fill: none; stroke: #ff7f0e; stroke-width: 1.5; stroke-linecap: square"/>
   </g>
   <g id="line2d_16">
    <path d="M 1021.502263 244.260625 
L 1021.502263 27.340625 
" clip-path="url(#p9d603902b9)" style="fill: none; stroke-dasharray: 7.4,3.2; stroke-dashoffset: 0; stroke: #0000ff; stroke-width: 2"/>
   </g>
   <g id="patch_3">
    <path d="M 56.6375 244.260625 
L 56.6375 27.340625 
" style="fill: none; stroke: #000000; stroke-width: 0.8; stroke-linejoin: miter; stroke-linecap: square"/>
   </g>
   <g id="patch_4">
    <path d="M 1376.846466 244.260625 
L 1376.846466 27.340625 
" style="fill: none; stroke: #000000; stroke-width: 0.8; stroke-linejoin: miter; stroke-linecap: square"/>
   </g>
   <g id="patch_5">
    <path d="M 56.6375 244.260625 
L 1376.846466 244.260625 
" style="fill: none; stroke: #000000; stroke-width: 0.8; stroke-linejoin: miter; stroke-linecap: square"/>
   </g>
   <g id="patch_6">
    <path d="M 56.6375 27.340625 
L 1376.846466 27.340625 
" style="fill: none; stroke: #000000; stroke-width: 0.8; stroke-linejoin: miter; stroke-linecap: square"/>
   </g>
   <g id="text_15">
    <!-- API_ID: 2 -->
    <g transform="translate(671.741983 21.340625) scale(0.2 -0.2)">
     <defs>
      <path id="SimSun-41" d="M 2025 1700 
L 900 1700 
L 675 750 
Q 650 625 650 550 
Q 650 450 687 350 
Q 725 250 900 250 
L 975 250 
L 975 100 
L 50 100 
L 50 250 
L 125 250 
Q 225 250 300 312 
Q 375 375 400 525 
L 1375 4350 
L 1750 4475 
L 2700 525 
Q 2750 375 2825 312 
Q 2900 250 3000 250 
L 3075 250 
L 3075 100 
L 2000 100 
L 2000 250 
L 2100 250 
Q 2250 250 2275 312 
Q 2300 375 2300 425 
Q 2300 525 2275 600 
L 2025 1700 
z
M 325 250 
L 325 250 
z
M 575 250 
L 575 250 
z
M 2350 250 
L 2350 250 
z
M 2775 250 
L 2775 250 
z
M 1500 3925 
L 1475 3925 
L 950 1850 
L 2000 1850 
L 1500 3925 
z
" transform="scale(0.015625)"/>
      <path id="SimSun-49" d="M 600 4225 
L 600 4375 
L 2600 4375 
L 2600 4225 
L 2025 4225 
Q 1925 4225 1862 4175 
Q 1800 4125 1800 4025 
L 1800 450 
Q 1800 350 1862 300 
Q 1925 250 2025 250 
L 2600 250 
L 2600 100 
L 600 100 
L 600 250 
L 1175 250 
Q 1300 250 1350 300 
Q 1400 350 1400 450 
L 1400 4025 
Q 1400 4125 1350 4175 
Q 1300 4225 1175 4225 
L 600 4225 
z
" transform="scale(0.015625)"/>
      <path id="SimSun-5f" d="M 0 -875 
L 0 -725 
L 3175 -725 
L 3175 -875 
L 0 -875 
z
" transform="scale(0.015625)"/>
      <path id="SimSun-44" d="M 2500 2275 
Q 2500 3350 2175 3787 
Q 1850 4225 1275 4225 
Q 1100 4225 1012 4175 
Q 925 4125 925 4025 
L 925 450 
Q 925 350 1000 300 
Q 1075 250 1200 250 
Q 1750 250 2125 662 
Q 2500 1075 2500 2275 
z
M 525 4025 
Q 525 4125 475 4175 
Q 425 4225 300 4225 
L 150 4225 
L 150 4375 
L 1275 4375 
Q 2050 4375 2512 3875 
Q 2975 3375 2975 2325 
Q 2975 1175 2525 637 
Q 2075 100 1200 100 
L 125 100 
L 125 250 
L 300 250 
Q 425 250 475 300 
Q 525 350 525 450 
L 525 4025 
z
" transform="scale(0.015625)"/>
      <path id="SimSun-3a" d="M 1900 2725 
Q 1900 2575 1800 2475 
Q 1700 2375 1550 2375 
Q 1400 2375 1300 2475 
Q 1200 2575 1200 2725 
Q 1200 2875 1300 2975 
Q 1400 3075 1550 3075 
Q 1700 3075 1800 2975 
Q 1900 2875 1900 2725 
z
M 1900 375 
Q 1900 225 1800 125 
Q 1700 25 1550 25 
Q 1400 25 1300 125 
Q 1200 225 1200 375 
Q 1200 525 1300 625 
Q 1400 725 1550 725 
Q 1700 725 1800 625 
Q 1900 525 1900 375 
z
" transform="scale(0.015625)"/>
      <path id="SimSun-20" d="M 0 0 
Q 0 0 0 0 
z
" transform="scale(0.015625)"/>
      <path id="SimSun-32" d="M 2325 3325 
Q 2325 3775 2125 4012 
Q 1925 4250 1525 4250 
Q 1225 4250 1012 4087 
Q 800 3925 800 3675 
Q 800 3525 900 3425 
Q 975 3325 975 3225 
Q 975 3100 912 3037 
Q 850 2975 725 2975 
Q 575 2975 487 3062 
Q 400 3150 400 3350 
Q 400 3875 775 4150 
Q 1150 4425 1575 4425 
Q 2175 4425 2462 4125 
Q 2750 3825 2750 3375 
Q 2750 3075 2612 2775 
Q 2475 2475 2175 2200 
Q 1450 1500 1062 1062 
Q 675 625 600 475 
L 2075 475 
Q 2300 475 2450 650 
Q 2600 825 2650 1175 
L 2800 1175 
L 2650 100 
L 325 100 
L 325 425 
Q 450 650 737 1000 
Q 1025 1350 1500 1825 
Q 1925 2250 2125 2625 
Q 2325 3000 2325 3325 
z
" transform="scale(0.015625)"/>
     </defs>
     <use xlink:href="#SimSun-41"/>
     <use xlink:href="#SimSun-50" x="50"/>
     <use xlink:href="#SimSun-49" x="100"/>
     <use xlink:href="#SimSun-5f" x="150"/>
     <use xlink:href="#SimSun-49" x="200"/>
     <use xlink:href="#SimSun-44" x="250"/>
     <use xlink:href="#SimSun-3a" x="300"/>
     <use xlink:href="#SimSun-20" x="350"/>
     <use xlink:href="#SimSun-32" x="400"/>
    </g>
   </g>
   <g id="legend_1">
    <g id="patch_7">
     <path d="M 70.6375 100.215625 
L 194.6375 100.215625 
Q 198.6375 100.215625 198.6375 96.215625 
L 198.6375 41.340625 
Q 198.6375 37.340625 194.6375 37.340625 
L 70.6375 37.340625 
Q 66.6375 37.340625 66.6375 41.340625 
L 66.6375 96.215625 
Q 66.6375 100.215625 70.6375 100.215625 
z
" style="fill: #ffffff; opacity: 0.8; stroke: #cccccc; stroke-linejoin: miter"/>
    </g>
    <g id="line2d_17">
     <path d="M 74.6375 54.278125 
L 94.6375 54.278125 
L 114.6375 54.278125 
" style="fill: none; stroke: #1f77b4; stroke-width: 1.5; stroke-linecap: square"/>
    </g>
    <g id="text_16">
     <!-- 真实值 -->
     <g transform="translate(130.6375 61.278125) scale(0.2 -0.2)">
      <defs>
       <path id="SimSun-771f" d="M 2050 3450 
L 2050 2900 
L 4300 2900 
L 4300 3450 
L 2050 3450 
z
M 2050 2750 
L 2050 2225 
L 4300 2225 
L 4300 2750 
L 2050 2750 
z
M 2050 2075 
L 2050 1550 
L 4300 1550 
L 4300 2075 
L 2050 2075 
z
M 2050 1400 
L 2050 875 
L 4300 875 
L 4300 1400 
L 2050 1400 
z
M 2875 3600 
L 2925 4325 
L 1525 4325 
Q 1200 4325 925 4250 
L 700 4475 
L 2950 4475 
Q 2975 4825 2975 5275 
L 3550 5025 
L 3375 4925 
L 3300 4475 
L 5000 4475 
L 5325 4825 
L 5775 4325 
L 3275 4325 
L 3200 3600 
L 4275 3600 
L 4450 3875 
L 4850 3575 
L 4650 3375 
L 4650 875 
L 5300 875 
L 5675 1225 
L 6125 725 
L 1150 725 
Q 825 725 550 650 
L 325 875 
L 1700 875 
Q 1700 3200 1675 3775 
L 2050 3600 
L 2875 3600 
z
M 2425 725 
L 2825 350 
L 2575 300 
Q 1500 -425 800 -650 
L 775 -575 
Q 1950 125 2425 725 
z
M 3800 700 
Q 4575 375 4962 200 
Q 5350 25 5400 -112 
Q 5450 -250 5450 -325 
Q 5450 -400 5400 -525 
Q 5350 -650 5325 -650 
Q 5250 -650 5100 -450 
Q 4875 -150 3750 625 
L 3800 700 
z
" transform="scale(0.015625)"/>
       <path id="SimSun-5b9e" d="M 1950 3625 
Q 2575 3400 2700 3250 
Q 2825 3100 2825 2975 
Q 2825 2850 2750 2700 
Q 2675 2550 2625 2550 
Q 2550 2550 2450 2800 
Q 2275 3175 1900 3550 
L 1950 3625 
z
M 3575 1325 
Q 3500 1100 3425 925 
Q 4650 550 5087 325 
Q 5525 100 5512 -225 
Q 5500 -550 5400 -550 
Q 5300 -550 5075 -300 
Q 4625 175 3375 800 
Q 3025 175 2300 -150 
Q 1575 -475 425 -625 
L 425 -525 
Q 1475 -325 2200 100 
Q 2925 525 3200 1325 
L 1225 1325 
Q 900 1325 625 1250 
L 400 1475 
L 3225 1475 
Q 3325 1950 3375 2575 
Q 3425 3200 3425 3700 
L 4050 3400 
L 3850 3225 
Q 3750 2300 3625 1475 
L 5175 1475 
L 5550 1850 
L 6075 1325 
L 3575 1325 
z
M 1275 2700 
Q 1975 2425 2100 2262 
Q 2225 2100 2225 1975 
Q 2225 1850 2150 1700 
Q 2075 1550 2025 1550 
Q 1950 1550 1850 1800 
Q 1675 2175 1225 2625 
L 1275 2700 
z
M 2750 5225 
L 2825 5275 
Q 3225 5100 3425 4925 
Q 3625 4750 3625 4600 
Q 3625 4450 3512 4300 
Q 3400 4150 3325 4150 
Q 3250 4150 3200 4400 
Q 3100 4775 2750 5225 
z
M 4975 3225 
L 5350 3925 
L 1175 3925 
Q 1225 3525 1125 3300 
Q 1025 3075 787 3100 
Q 550 3125 550 3200 
Q 550 3300 700 3475 
Q 975 3825 1050 4375 
L 1150 4375 
L 1175 4075 
L 5300 4075 
L 5575 4350 
L 6050 3800 
Q 5625 3825 5050 3175 
L 4975 3225 
z
" transform="scale(0.015625)"/>
       <path id="SimSun-503c" d="M 1525 650 
Q 1525 -225 1550 -525 
L 1175 -650 
Q 1200 250 1200 550 
L 1200 3025 
Q 750 2300 325 1850 
L 250 1900 
Q 725 2625 1100 3525 
Q 1475 4425 1675 5200 
L 2200 4875 
L 1950 4725 
Q 1550 3800 1425 3475 
L 1725 3300 
L 1525 3150 
L 1525 650 
z
M 2875 3225 
L 2875 2475 
L 4800 2475 
L 4800 3225 
L 2875 3225 
z
M 2875 2325 
L 2875 1575 
L 4800 1575 
L 4800 2325 
L 2875 2325 
z
M 2875 1425 
L 2875 675 
L 4800 675 
L 4800 1425 
L 2875 1425 
z
M 2875 525 
L 2875 -225 
L 4800 -225 
L 4800 525 
L 2875 525 
z
M 3550 4250 
Q 3575 4825 3550 5225 
L 4125 4950 
L 3925 4800 
L 3900 4250 
L 5025 4250 
L 5350 4575 
L 5825 4100 
L 3900 4100 
L 3875 3375 
L 4750 3375 
L 4975 3625 
L 5350 3300 
L 5125 3150 
L 5125 -225 
L 5350 -225 
L 5675 100 
L 6150 -375 
L 2450 -375 
Q 2125 -375 1850 -450 
L 1625 -225 
L 2550 -225 
L 2550 2550 
Q 2550 2850 2525 3575 
L 2875 3375 
L 3525 3375 
L 3550 4100 
L 2800 4100 
Q 2475 4100 2200 4025 
L 1975 4250 
L 3550 4250 
z
" transform="scale(0.015625)"/>
      </defs>
      <use xlink:href="#SimSun-771f"/>
      <use xlink:href="#SimSun-5b9e" x="100"/>
      <use xlink:href="#SimSun-503c" x="200"/>
     </g>
    </g>
    <g id="line2d_18">
     <path d="M 74.6375 82.6375 
L 94.6375 82.6375 
L 114.6375 82.6375 
" style="fill: none; stroke: #ff7f0e; stroke-width: 1.5; stroke-linecap: square"/>
    </g>
    <g id="text_17">
     <!-- 预测值 -->
     <g transform="translate(130.6375 89.6375) scale(0.2 -0.2)">
      <defs>
       <path id="SimSun-9884" d="M 475 4825 
L 2225 4825 
L 2425 5075 
L 2825 4675 
Q 2600 4625 2387 4412 
Q 2175 4200 1800 3750 
Q 2050 3575 2037 3400 
Q 2025 3225 1937 3150 
Q 1850 3075 1825 3075 
Q 1725 3075 1650 3300 
Q 1525 3600 1050 4100 
L 1100 4150 
Q 1475 3975 1700 3825 
L 2225 4675 
L 1300 4675 
Q 975 4675 700 4600 
L 475 4825 
z
M 725 100 
Q 1175 50 1362 37 
Q 1550 25 1550 275 
L 1550 2875 
L 1125 2875 
Q 800 2875 525 2800 
L 300 3025 
L 2525 3025 
L 2725 3275 
L 3150 2875 
Q 2800 2825 2275 2075 
L 2200 2125 
L 2550 2875 
L 1875 2875 
L 1875 150 
Q 1875 -400 1350 -500 
Q 1325 -175 725 0 
L 725 100 
z
M 3250 775 
Q 3275 1425 3275 2287 
Q 3275 3150 3250 3900 
L 3600 3700 
L 4050 3700 
Q 4175 4400 4200 4675 
L 3650 4675 
Q 3325 4675 3050 4600 
L 2825 4825 
L 5325 4825 
L 5675 5150 
L 6125 4675 
L 4675 4675 
Q 4500 4425 4175 3700 
L 5300 3700 
L 5475 3975 
L 5875 3675 
L 5675 3475 
L 5675 1950 
Q 5675 1525 5700 1075 
L 5350 875 
L 5350 3550 
L 3600 3550 
L 3600 1000 
L 3250 775 
z
M 4850 2875 
L 4625 2675 
Q 4625 1475 4475 937 
Q 4325 400 3900 50 
Q 3475 -300 2425 -625 
L 2400 -550 
Q 3500 -50 3837 400 
Q 4175 850 4237 1587 
Q 4300 2325 4275 3175 
L 4850 2875 
z
M 4650 950 
Q 5725 375 5875 212 
Q 6025 50 6025 -125 
Q 6025 -225 5962 -387 
Q 5900 -550 5850 -550 
Q 5800 -550 5750 -450 
Q 5625 -250 5437 0 
Q 5250 250 4600 875 
L 4650 950 
z
" transform="scale(0.015625)"/>
       <path id="SimSun-6d4b" d="M 1975 1000 
Q 2000 1475 2000 2925 
Q 2000 4375 1975 5000 
L 2350 4775 
L 3575 4775 
L 3775 4975 
L 4100 4650 
L 3900 4500 
L 3900 2350 
Q 3900 1850 3925 1350 
L 3600 1200 
L 3600 4625 
L 2325 4625 
L 2325 1150 
L 1975 1000 
z
M 2775 3975 
L 3300 3700 
L 3125 3525 
Q 3150 1825 2875 937 
Q 2600 50 1375 -600 
L 1325 -500 
Q 2200 100 2475 725 
Q 2750 1350 2775 2187 
Q 2800 3025 2775 3975 
z
M 3100 950 
Q 3825 450 3937 262 
Q 4050 75 4050 -25 
Q 4050 -150 3975 -262 
Q 3900 -375 3850 -375 
Q 3750 -375 3650 -75 
Q 3500 375 3050 875 
L 3100 950 
z
M 4475 825 
Q 4500 1200 4500 1700 
L 4500 3400 
Q 4500 3950 4475 4300 
L 5025 4025 
L 4825 3825 
L 4825 1700 
Q 4825 1325 4850 950 
L 4475 825 
z
M 5375 150 
L 5375 4050 
Q 5375 4750 5350 5125 
L 5875 4875 
L 5700 4700 
L 5700 75 
Q 5700 -200 5600 -350 
Q 5500 -500 5200 -600 
Q 5025 -225 4450 -50 
L 4450 50 
Q 5125 -50 5250 -37 
Q 5375 -25 5375 150 
z
M 1850 3500 
Q 1375 1525 1300 1225 
Q 1200 900 1212 450 
Q 1225 0 1250 -175 
Q 1250 -275 1125 -275 
Q 1025 -275 875 -225 
Q 725 -175 725 0 
Q 725 125 800 375 
Q 875 625 875 775 
Q 875 950 762 1050 
Q 650 1150 275 1250 
L 275 1350 
Q 725 1300 837 1312 
Q 950 1325 1087 1537 
Q 1225 1750 1750 3525 
L 1850 3500 
z
M 375 3775 
Q 1075 3350 1112 3100 
Q 1150 2850 1050 2775 
Q 950 2700 900 2700 
Q 800 2700 725 2975 
Q 600 3350 325 3700 
L 375 3775 
z
M 800 5100 
Q 1475 4725 1550 4512 
Q 1625 4300 1525 4187 
Q 1425 4075 1350 4075 
Q 1275 4075 1200 4300 
Q 1075 4650 750 5025 
L 800 5100 
z
" transform="scale(0.015625)"/>
      </defs>
      <use xlink:href="#SimSun-9884"/>
      <use xlink:href="#SimSun-6d4b" x="100"/>
      <use xlink:href="#SimSun-503c" x="200"/>
     </g>
    </g>
   </g>
  </g>
  <g id="axes_2">
   <g id="patch_8">
    <path d="M 56.6375 527.940625 
L 1376.846466 527.940625 
L 1376.846466 311.020625 
L 56.6375 311.020625 
z
" style="fill: #ffffff"/>
   </g>
   <g id="matplotlib.axis_3">
    <g id="xtick_10">
     <g id="line2d_19">
      <g>
       <use xlink:href="#m3de4ce46f6" x="116.646998" y="527.940625" style="stroke: #000000; stroke-width: 0.8"/>
      </g>
     </g>
     <g id="text_18">
      <!-- 0 -->
      <g transform="translate(111.646998 548.828125) scale(0.2 -0.2)">
       <use xlink:href="#TimesNewRomanPSMT-30"/>
      </g>
     </g>
    </g>
    <g id="xtick_11">
     <g id="line2d_20">
      <g>
       <use xlink:href="#m3de4ce46f6" x="273.739926" y="527.940625" style="stroke: #000000; stroke-width: 0.8"/>
      </g>
     </g>
     <g id="text_19">
      <!-- 25 -->
      <g transform="translate(263.739926 548.828125) scale(0.2 -0.2)">
       <use xlink:href="#TimesNewRomanPSMT-32"/>
       <use xlink:href="#TimesNewRomanPSMT-35" x="50"/>
      </g>
     </g>
    </g>
    <g id="xtick_12">
     <g id="line2d_21">
      <g>
       <use xlink:href="#m3de4ce46f6" x="430.832854" y="527.940625" style="stroke: #000000; stroke-width: 0.8"/>
      </g>
     </g>
     <g id="text_20">
      <!-- 50 -->
      <g transform="translate(420.832854 548.828125) scale(0.2 -0.2)">
       <use xlink:href="#TimesNewRomanPSMT-35"/>
       <use xlink:href="#TimesNewRomanPSMT-30" x="50"/>
      </g>
     </g>
    </g>
    <g id="xtick_13">
     <g id="line2d_22">
      <g>
       <use xlink:href="#m3de4ce46f6" x="587.925782" y="527.940625" style="stroke: #000000; stroke-width: 0.8"/>
      </g>
     </g>
     <g id="text_21">
      <!-- 75 -->
      <g transform="translate(577.925782 548.828125) scale(0.2 -0.2)">
       <use xlink:href="#TimesNewRomanPSMT-37"/>
       <use xlink:href="#TimesNewRomanPSMT-35" x="50"/>
      </g>
     </g>
    </g>
    <g id="xtick_14">
     <g id="line2d_23">
      <g>
       <use xlink:href="#m3de4ce46f6" x="745.01871" y="527.940625" style="stroke: #000000; stroke-width: 0.8"/>
      </g>
     </g>
     <g id="text_22">
      <!-- 100 -->
      <g transform="translate(730.01871 548.828125) scale(0.2 -0.2)">
       <use xlink:href="#TimesNewRomanPSMT-31"/>
       <use xlink:href="#TimesNewRomanPSMT-30" x="50"/>
       <use xlink:href="#TimesNewRomanPSMT-30" x="100"/>
      </g>
     </g>
    </g>
    <g id="xtick_15">
     <g id="line2d_24">
      <g>
       <use xlink:href="#m3de4ce46f6" x="902.111638" y="527.940625" style="stroke: #000000; stroke-width: 0.8"/>
      </g>
     </g>
     <g id="text_23">
      <!-- 125 -->
      <g transform="translate(887.111638 548.828125) scale(0.2 -0.2)">
       <use xlink:href="#TimesNewRomanPSMT-31"/>
       <use xlink:href="#TimesNewRomanPSMT-32" x="50"/>
       <use xlink:href="#TimesNewRomanPSMT-35" x="100"/>
      </g>
     </g>
    </g>
    <g id="xtick_16">
     <g id="line2d_25">
      <g>
       <use xlink:href="#m3de4ce46f6" x="1059.204566" y="527.940625" style="stroke: #000000; stroke-width: 0.8"/>
      </g>
     </g>
     <g id="text_24">
      <!-- 150 -->
      <g transform="translate(1044.204566 548.828125) scale(0.2 -0.2)">
       <use xlink:href="#TimesNewRomanPSMT-31"/>
       <use xlink:href="#TimesNewRomanPSMT-35" x="50"/>
       <use xlink:href="#TimesNewRomanPSMT-30" x="100"/>
      </g>
     </g>
    </g>
    <g id="xtick_17">
     <g id="line2d_26">
      <g>
       <use xlink:href="#m3de4ce46f6" x="1216.297494" y="527.940625" style="stroke: #000000; stroke-width: 0.8"/>
      </g>
     </g>
     <g id="text_25">
      <!-- 175 -->
      <g transform="translate(1201.297494 548.828125) scale(0.2 -0.2)">
       <use xlink:href="#TimesNewRomanPSMT-31"/>
       <use xlink:href="#TimesNewRomanPSMT-37" x="50"/>
       <use xlink:href="#TimesNewRomanPSMT-35" x="100"/>
      </g>
     </g>
    </g>
    <g id="xtick_18">
     <g id="line2d_27">
      <g>
       <use xlink:href="#m3de4ce46f6" x="1373.390422" y="527.940625" style="stroke: #000000; stroke-width: 0.8"/>
      </g>
     </g>
     <g id="text_26">
      <!-- 200 -->
      <g transform="translate(1358.390422 548.828125) scale(0.2 -0.2)">
       <use xlink:href="#TimesNewRomanPSMT-32"/>
       <use xlink:href="#TimesNewRomanPSMT-30" x="50"/>
       <use xlink:href="#TimesNewRomanPSMT-30" x="100"/>
      </g>
     </g>
    </g>
   </g>
   <g id="matplotlib.axis_4">
    <g id="ytick_5">
     <g id="line2d_28">
      <g>
       <use xlink:href="#mcab4f1b87d" x="56.6375" y="520.56425" style="stroke: #000000; stroke-width: 0.8"/>
      </g>
     </g>
     <g id="text_27">
      <!-- 2 -->
      <g transform="translate(39.6375 527.508) scale(0.2 -0.2)">
       <use xlink:href="#TimesNewRomanPSMT-32"/>
      </g>
     </g>
    </g>
    <g id="ytick_6">
     <g id="line2d_29">
      <g>
       <use xlink:href="#mcab4f1b87d" x="56.6375" y="470.891706" style="stroke: #000000; stroke-width: 0.8"/>
      </g>
     </g>
     <g id="text_28">
      <!-- 4 -->
      <g transform="translate(39.6375 477.835456) scale(0.2 -0.2)">
       <use xlink:href="#TimesNewRomanPSMT-34"/>
      </g>
     </g>
    </g>
    <g id="ytick_7">
     <g id="line2d_30">
      <g>
       <use xlink:href="#mcab4f1b87d" x="56.6375" y="421.219162" style="stroke: #000000; stroke-width: 0.8"/>
      </g>
     </g>
     <g id="text_29">
      <!-- 6 -->
      <g transform="translate(39.6375 428.162912) scale(0.2 -0.2)">
       <use xlink:href="#TimesNewRomanPSMT-36"/>
      </g>
     </g>
    </g>
    <g id="ytick_8">
     <g id="line2d_31">
      <g>
       <use xlink:href="#mcab4f1b87d" x="56.6375" y="371.546619" style="stroke: #000000; stroke-width: 0.8"/>
      </g>
     </g>
     <g id="text_30">
      <!-- 8 -->
      <g transform="translate(39.6375 378.490369) scale(0.2 -0.2)">
       <use xlink:href="#TimesNewRomanPSMT-38"/>
      </g>
     </g>
    </g>
    <g id="ytick_9">
     <g id="line2d_32">
      <g>
       <use xlink:href="#mcab4f1b87d" x="56.6375" y="321.874075" style="stroke: #000000; stroke-width: 0.8"/>
      </g>
     </g>
     <g id="text_31">
      <!-- 10 -->
      <g transform="translate(29.6375 328.817825) scale(0.2 -0.2)">
       <use xlink:href="#TimesNewRomanPSMT-31"/>
       <use xlink:href="#TimesNewRomanPSMT-30" x="50"/>
      </g>
     </g>
    </g>
    <g id="text_32">
     <!-- CPU使用率 -->
     <g transform="translate(23.059375 464.480625) rotate(-90) scale(0.2 -0.2)">
      <use xlink:href="#SimSun-43"/>
      <use xlink:href="#SimSun-50" x="50"/>
      <use xlink:href="#SimSun-55" x="100"/>
      <use xlink:href="#SimSun-4f7f" x="150"/>
      <use xlink:href="#SimSun-7528" x="250"/>
      <use xlink:href="#SimSun-7387" x="350"/>
     </g>
    </g>
   </g>
   <g id="line2d_33">
    <path d="M 116.646998 414.265013 
L 122.930716 430.160224 
L 129.214433 400.853415 
L 135.49815 435.872567 
L 141.781867 478.342586 
L 148.065584 487.035285 
L 154.349301 466.421181 
L 166.916735 320.880625 
L 173.200452 420.722437 
L 179.48417 445.807078 
L 185.767887 445.807078 
L 192.051604 470.891706 
L 198.335321 483.309842 
L 204.619038 501.937046 
L 210.902755 486.290198 
L 217.186472 491.009085 
L 223.470189 481.07458 
L 229.753907 500.695234 
L 236.037624 498.211603 
L 242.321341 509.387926 
L 248.605058 502.682133 
L 254.888775 511.623195 
L 261.172492 503.675583 
L 267.456209 512.119914 
L 273.739926 491.50581 
L 280.023643 493.492716 
L 286.307361 494.734528 
L 292.591078 495.231253 
L 298.874795 483.06148 
L 305.158512 489.270548 
L 311.442229 504.917396 
L 317.725946 512.865007 
L 324.009663 504.172308 
L 330.29338 499.95014 
L 336.577097 485.545104 
L 342.860815 490.51236 
L 349.144532 480.826217 
L 355.428249 488.277098 
L 361.711966 492.002535 
L 367.995683 493.741078 
L 374.2794 494.734528 
L 380.563117 445.558709 
L 386.846834 458.225202 
L 393.130552 464.682638 
L 399.414269 467.662988 
L 405.697986 469.401531 
L 411.981703 482.564755 
L 418.26542 489.022185 
L 424.549137 504.917396 
L 430.832854 487.780367 
L 437.116571 466.917906 
L 443.400288 444.068534 
L 449.684006 370.553169 
L 455.967723 408.304301 
L 462.25144 414.761738 
L 468.535157 417.990444 
L 474.818874 432.147123 
L 481.102591 426.683137 
L 487.386308 448.787427 
L 493.670025 472.133519 
L 499.953742 446.800528 
L 506.23746 433.885667 
L 512.521177 378.004055 
L 518.804894 449.284152 
L 525.088611 447.545609 
L 531.372328 421.964256 
L 537.656045 421.715887 
L 543.939762 409.049383 
L 550.223479 452.264502 
L 556.507197 486.538554 
L 562.790914 478.590949 
L 569.074631 437.611098 
L 575.358348 466.669538 
L 581.642065 493.492716 
L 587.925782 482.316392 
L 594.209499 489.022185 
L 600.493216 504.669039 
L 606.776933 500.198503 
L 613.060651 485.545104 
L 619.344368 503.178858 
L 625.628085 511.871557 
L 631.911802 503.675583 
L 638.195519 499.701784 
L 644.479236 497.714878 
L 650.762953 496.721428 
L 657.04667 508.642839 
L 663.330388 502.185408 
L 669.614105 498.95669 
L 675.897822 497.466515 
L 682.181539 508.891201 
L 688.465256 514.851907 
L 694.748973 505.165758 
L 701.03269 500.446871 
L 707.316407 510.629745 
L 713.600124 515.596994 
L 719.883842 518.080625 
L 726.167559 506.904301 
L 732.451276 501.191953 
L 738.734993 510.878101 
L 745.01871 503.427221 
L 751.302427 499.453421 
L 757.586144 423.206062 
L 763.869861 372.540069 
L 770.153578 409.297751 
L 776.437296 440.094735 
L 782.721013 380.984405 
L 789.00473 425.938055 
L 795.288447 473.126968 
L 801.572164 484.551654 
L 807.855881 440.343091 
L 814.139598 455.741577 
L 820.423315 488.028735 
L 826.707033 492.002535 
L 832.99075 493.741078 
L 839.274467 482.316392 
L 845.558184 389.677098 
L 851.841901 455.244852 
L 858.125618 413.271551 
L 864.409335 466.917906 
L 870.693052 444.068534 
L 876.976769 482.316392 
L 883.260487 451.767777 
L 889.544204 486.290198 
L 895.827921 491.009085 
L 902.111638 493.244353 
L 908.395355 494.486166 
L 914.679072 408.304301 
L 920.962789 452.016134 
L 927.246506 486.290198 
L 933.530223 503.427221 
L 939.813941 499.453421 
L 946.097658 460.46047 
L 952.381375 490.51236 
L 958.665092 505.414121 
L 964.948809 513.113369 
L 971.232526 504.420671 
L 977.516243 499.95014 
L 983.79996 473.126968 
L 990.083678 496.721428 
L 996.367395 496.224703 
L 1002.651112 495.97634 
L 1008.934829 495.97634 
L 1015.218546 495.727978 
L 1021.502263 495.727978 
L 1027.78598 483.309842 
L 1034.069697 489.51891 
L 1040.353414 505.165758 
L 1046.637132 512.865007 
L 1052.920849 504.172308 
L 1059.204566 499.95014 
L 1065.488283 510.381376 
L 1071.772 515.348632 
L 1078.055717 505.662489 
L 1084.339434 500.695234 
L 1090.623151 498.211603 
L 1096.906868 496.96979 
L 1103.190586 496.224703 
L 1109.474303 433.885667 
L 1115.75802 440.094735 
L 1122.041737 480.329492 
L 1128.325454 488.028735 
L 1134.609171 504.172308 
L 1140.892888 499.95014 
L 1147.176605 497.96324 
L 1153.460323 459.46702 
L 1159.74404 390.670548 
L 1166.027757 406.069033 
L 1172.311474 463.192463 
L 1178.595191 467.166263 
L 1184.878908 456.48667 
L 1191.162625 426.43478 
L 1197.446342 386.696748 
L 1203.730059 378.997505 
L 1210.013777 437.362741 
L 1216.297494 466.669538 
L 1222.581211 481.07458 
L 1228.864928 426.43478 
L 1235.148645 374.030243 
L 1241.432362 434.879117 
L 1247.716079 453.009596 
L 1253.999796 449.532509 
L 1260.283513 447.793978 
L 1266.567231 471.636794 
L 1272.850948 496.224703 
L 1279.134665 458.721927 
L 1285.418382 464.682638 
L 1291.702099 430.656949 
L 1297.985816 475.610599 
L 1304.269533 497.96324 
L 1310.55325 434.879117 
L 1316.836968 415.506819 
L 1316.836968 415.506819 
" clip-path="url(#p737de7c2c5)" style="fill: none; stroke: #1f77b4; stroke-width: 1.5; stroke-linecap: square"/>
   </g>
   <g id="line2d_34">
    <path d="M 1021.502263 470.816824 
L 1027.78598 470.03998 
L 1034.069697 470.888402 
L 1040.353414 470.331432 
L 1046.637132 469.450454 
L 1052.920849 469.703654 
L 1059.204566 469.562807 
L 1065.488283 469.545303 
L 1071.772 469.792997 
L 1078.055717 468.190244 
L 1084.339434 469.218606 
L 1090.623151 467.885136 
L 1096.906868 468.946043 
L 1103.190586 470.295418 
L 1109.474303 469.328117 
L 1115.75802 469.088773 
L 1122.041737 469.818518 
L 1128.325454 470.131087 
L 1134.609171 469.662785 
L 1140.892888 470.374078 
L 1147.176605 469.185257 
L 1153.460323 469.097513 
L 1159.74404 469.091379 
L 1166.027757 470.605334 
L 1172.311474 468.981785 
L 1178.595191 470.208267 
L 1184.878908 468.6605 
L 1191.162625 470.548026 
L 1197.446342 470.920159 
L 1203.730059 471.040263 
L 1210.013777 469.903206 
L 1216.297494 471.940367 
L 1222.581211 470.751949 
L 1228.864928 470.885086 
L 1235.148645 470.966281 
L 1241.432362 468.948767 
L 1247.716079 469.827685 
L 1253.999796 469.952224 
L 1260.283513 469.562452 
L 1266.567231 471.165347 
L 1272.850948 471.462988 
L 1279.134665 470.978236 
L 1285.418382 469.815404 
L 1291.702099 470.681566 
L 1297.985816 471.285564 
L 1304.269533 471.147796 
L 1310.55325 471.397817 
L 1316.836968 470.640377 
" clip-path="url(#p737de7c2c5)" style="fill: none; stroke: #ff7f0e; stroke-width: 1.5; stroke-linecap: square"/>
   </g>
   <g id="line2d_35">
    <path d="M 1021.502263 527.940625 
L 1021.502263 311.020625 
" clip-path="url(#p737de7c2c5)" style="fill: none; stroke-dasharray: 7.4,3.2; stroke-dashoffset: 0; stroke: #0000ff; stroke-width: 2"/>
   </g>
   <g id="patch_9">
    <path d="M 56.6375 527.940625 
L 56.6375 311.020625 
" style="fill: none; stroke: #000000; stroke-width: 0.8; stroke-linejoin: miter; stroke-linecap: square"/>
   </g>
   <g id="patch_10">
    <path d="M 1376.846466 527.940625 
L 1376.846466 311.020625 
" style="fill: none; stroke: #000000; stroke-width: 0.8; stroke-linejoin: miter; stroke-linecap: square"/>
   </g>
   <g id="patch_11">
    <path d="M 56.6375 527.940625 
L 1376.846466 527.940625 
" style="fill: none; stroke: #000000; stroke-width: 0.8; stroke-linejoin: miter; stroke-linecap: square"/>
   </g>
   <g id="patch_12">
    <path d="M 56.6375 311.020625 
L 1376.846466 311.020625 
" style="fill: none; stroke: #000000; stroke-width: 0.8; stroke-linejoin: miter; stroke-linecap: square"/>
   </g>
   <g id="text_33">
    <!-- API_ID: 3 -->
    <g transform="translate(671.741983 305.020625) scale(0.2 -0.2)">
     <defs>
      <path id="SimSun-33" d="M 2800 1250 
Q 2800 775 2450 412 
Q 2100 50 1475 50 
Q 1025 50 700 300 
Q 375 550 375 875 
Q 375 1025 475 1137 
Q 575 1250 675 1250 
Q 825 1250 887 1137 
Q 950 1025 950 950 
Q 950 825 900 750 
Q 850 650 850 575 
Q 850 425 1037 325 
Q 1225 225 1450 225 
Q 1900 225 2125 487 
Q 2350 750 2350 1300 
Q 2350 1750 2112 2025 
Q 1875 2300 1225 2300 
L 1225 2475 
Q 1725 2475 1962 2712 
Q 2200 2950 2200 3375 
Q 2200 3725 2012 3987 
Q 1825 4250 1425 4250 
Q 1250 4250 1050 4162 
Q 850 4075 850 3875 
Q 850 3675 900 3625 
Q 950 3575 950 3500 
Q 950 3375 900 3300 
Q 850 3225 725 3225 
Q 625 3225 537 3300 
Q 450 3375 450 3575 
Q 450 3950 775 4187 
Q 1100 4425 1525 4425 
Q 2025 4425 2325 4112 
Q 2625 3800 2625 3450 
Q 2625 3075 2437 2812 
Q 2250 2550 1850 2425 
Q 2400 2225 2600 1900 
Q 2800 1575 2800 1250 
z
" transform="scale(0.015625)"/>
     </defs>
     <use xlink:href="#SimSun-41"/>
     <use xlink:href="#SimSun-50" x="50"/>
     <use xlink:href="#SimSun-49" x="100"/>
     <use xlink:href="#SimSun-5f" x="150"/>
     <use xlink:href="#SimSun-49" x="200"/>
     <use xlink:href="#SimSun-44" x="250"/>
     <use xlink:href="#SimSun-3a" x="300"/>
     <use xlink:href="#SimSun-20" x="350"/>
     <use xlink:href="#SimSun-33" x="400"/>
    </g>
   </g>
  </g>
  <g id="axes_3">
   <g id="patch_13">
    <path d="M 56.6375 811.620625 
L 1376.846466 811.620625 
L 1376.846466 594.700625 
L 56.6375 594.700625 
z
" style="fill: #ffffff"/>
   </g>
   <g id="matplotlib.axis_5">
    <g id="xtick_19">
     <g id="line2d_36">
      <g>
       <use xlink:href="#m3de4ce46f6" x="116.646998" y="811.620625" style="stroke: #000000; stroke-width: 0.8"/>
      </g>
     </g>
     <g id="text_34">
      <!-- 0 -->
      <g transform="translate(111.646998 832.508125) scale(0.2 -0.2)">
       <use xlink:href="#TimesNewRomanPSMT-30"/>
      </g>
     </g>
    </g>
    <g id="xtick_20">
     <g id="line2d_37">
      <g>
       <use xlink:href="#m3de4ce46f6" x="273.739926" y="811.620625" style="stroke: #000000; stroke-width: 0.8"/>
      </g>
     </g>
     <g id="text_35">
      <!-- 25 -->
      <g transform="translate(263.739926 832.508125) scale(0.2 -0.2)">
       <use xlink:href="#TimesNewRomanPSMT-32"/>
       <use xlink:href="#TimesNewRomanPSMT-35" x="50"/>
      </g>
     </g>
    </g>
    <g id="xtick_21">
     <g id="line2d_38">
      <g>
       <use xlink:href="#m3de4ce46f6" x="430.832854" y="811.620625" style="stroke: #000000; stroke-width: 0.8"/>
      </g>
     </g>
     <g id="text_36">
      <!-- 50 -->
      <g transform="translate(420.832854 832.508125) scale(0.2 -0.2)">
       <use xlink:href="#TimesNewRomanPSMT-35"/>
       <use xlink:href="#TimesNewRomanPSMT-30" x="50"/>
      </g>
     </g>
    </g>
    <g id="xtick_22">
     <g id="line2d_39">
      <g>
       <use xlink:href="#m3de4ce46f6" x="587.925782" y="811.620625" style="stroke: #000000; stroke-width: 0.8"/>
      </g>
     </g>
     <g id="text_37">
      <!-- 75 -->
      <g transform="translate(577.925782 832.508125) scale(0.2 -0.2)">
       <use xlink:href="#TimesNewRomanPSMT-37"/>
       <use xlink:href="#TimesNewRomanPSMT-35" x="50"/>
      </g>
     </g>
    </g>
    <g id="xtick_23">
     <g id="line2d_40">
      <g>
       <use xlink:href="#m3de4ce46f6" x="745.01871" y="811.620625" style="stroke: #000000; stroke-width: 0.8"/>
      </g>
     </g>
     <g id="text_38">
      <!-- 100 -->
      <g transform="translate(730.01871 832.508125) scale(0.2 -0.2)">
       <use xlink:href="#TimesNewRomanPSMT-31"/>
       <use xlink:href="#TimesNewRomanPSMT-30" x="50"/>
       <use xlink:href="#TimesNewRomanPSMT-30" x="100"/>
      </g>
     </g>
    </g>
    <g id="xtick_24">
     <g id="line2d_41">
      <g>
       <use xlink:href="#m3de4ce46f6" x="902.111638" y="811.620625" style="stroke: #000000; stroke-width: 0.8"/>
      </g>
     </g>
     <g id="text_39">
      <!-- 125 -->
      <g transform="translate(887.111638 832.508125) scale(0.2 -0.2)">
       <use xlink:href="#TimesNewRomanPSMT-31"/>
       <use xlink:href="#TimesNewRomanPSMT-32" x="50"/>
       <use xlink:href="#TimesNewRomanPSMT-35" x="100"/>
      </g>
     </g>
    </g>
    <g id="xtick_25">
     <g id="line2d_42">
      <g>
       <use xlink:href="#m3de4ce46f6" x="1059.204566" y="811.620625" style="stroke: #000000; stroke-width: 0.8"/>
      </g>
     </g>
     <g id="text_40">
      <!-- 150 -->
      <g transform="translate(1044.204566 832.508125) scale(0.2 -0.2)">
       <use xlink:href="#TimesNewRomanPSMT-31"/>
       <use xlink:href="#TimesNewRomanPSMT-35" x="50"/>
       <use xlink:href="#TimesNewRomanPSMT-30" x="100"/>
      </g>
     </g>
    </g>
    <g id="xtick_26">
     <g id="line2d_43">
      <g>
       <use xlink:href="#m3de4ce46f6" x="1216.297494" y="811.620625" style="stroke: #000000; stroke-width: 0.8"/>
      </g>
     </g>
     <g id="text_41">
      <!-- 175 -->
      <g transform="translate(1201.297494 832.508125) scale(0.2 -0.2)">
       <use xlink:href="#TimesNewRomanPSMT-31"/>
       <use xlink:href="#TimesNewRomanPSMT-37" x="50"/>
       <use xlink:href="#TimesNewRomanPSMT-35" x="100"/>
      </g>
     </g>
    </g>
    <g id="xtick_27">
     <g id="line2d_44">
      <g>
       <use xlink:href="#m3de4ce46f6" x="1373.390422" y="811.620625" style="stroke: #000000; stroke-width: 0.8"/>
      </g>
     </g>
     <g id="text_42">
      <!-- 200 -->
      <g transform="translate(1358.390422 832.508125) scale(0.2 -0.2)">
       <use xlink:href="#TimesNewRomanPSMT-32"/>
       <use xlink:href="#TimesNewRomanPSMT-30" x="50"/>
       <use xlink:href="#TimesNewRomanPSMT-30" x="100"/>
      </g>
     </g>
    </g>
   </g>
   <g id="matplotlib.axis_6">
    <g id="ytick_10">
     <g id="line2d_45">
      <g>
       <use xlink:href="#mcab4f1b87d" x="56.6375" y="795.21348" style="stroke: #000000; stroke-width: 0.8"/>
      </g>
     </g>
     <g id="text_43">
      <!-- 2 -->
      <g transform="translate(39.6375 802.15723) scale(0.2 -0.2)">
       <use xlink:href="#TimesNewRomanPSMT-32"/>
      </g>
     </g>
    </g>
    <g id="ytick_11">
     <g id="line2d_46">
      <g>
       <use xlink:href="#mcab4f1b87d" x="56.6375" y="742.83632" style="stroke: #000000; stroke-width: 0.8"/>
      </g>
     </g>
     <g id="text_44">
      <!-- 4 -->
      <g transform="translate(39.6375 749.78007) scale(0.2 -0.2)">
       <use xlink:href="#TimesNewRomanPSMT-34"/>
      </g>
     </g>
    </g>
    <g id="ytick_12">
     <g id="line2d_47">
      <g>
       <use xlink:href="#mcab4f1b87d" x="56.6375" y="690.45916" style="stroke: #000000; stroke-width: 0.8"/>
      </g>
     </g>
     <g id="text_45">
      <!-- 6 -->
      <g transform="translate(39.6375 697.40291) scale(0.2 -0.2)">
       <use xlink:href="#TimesNewRomanPSMT-36"/>
      </g>
     </g>
    </g>
    <g id="ytick_13">
     <g id="line2d_48">
      <g>
       <use xlink:href="#mcab4f1b87d" x="56.6375" y="638.082" style="stroke: #000000; stroke-width: 0.8"/>
      </g>
     </g>
     <g id="text_46">
      <!-- 8 -->
      <g transform="translate(39.6375 645.02575) scale(0.2 -0.2)">
       <use xlink:href="#TimesNewRomanPSMT-38"/>
      </g>
     </g>
    </g>
    <g id="text_47">
     <!-- CPU使用率 -->
     <g transform="translate(33.059375 748.160625) rotate(-90) scale(0.2 -0.2)">
      <use xlink:href="#SimSun-43"/>
      <use xlink:href="#SimSun-50" x="50"/>
      <use xlink:href="#SimSun-55" x="100"/>
      <use xlink:href="#SimSun-4f7f" x="150"/>
      <use xlink:href="#SimSun-7528" x="250"/>
      <use xlink:href="#SimSun-7387" x="350"/>
     </g>
    </g>
   </g>
   <g id="line2d_49">
    <path d="M 116.646998 765.358496 
L 122.930716 754.097411 
L 129.214433 761.692098 
L 135.49815 765.358496 
L 141.781867 780.285985 
L 148.065584 748.335923 
L 154.349301 758.811357 
L 160.633018 763.787183 
L 166.916735 792.594625 
L 173.200452 793.904046 
L 179.48417 781.595419 
L 185.767887 788.404449 
L 192.051604 791.808962 
L 198.335321 780.285985 
L 204.619038 774.786382 
L 210.902755 784.999931 
L 217.186472 789.975763 
L 223.470189 779.500335 
L 229.753907 774.262617 
L 236.037624 771.643756 
L 242.321341 770.334328 
L 254.888775 769.286786 
L 261.172492 782.381076 
L 267.456209 683.912015 
L 273.739926 608.750794 
L 280.023643 662.699267 
L 286.307361 728.956367 
L 292.591078 748.859694 
L 298.874795 772.167527 
L 305.158512 757.501923 
L 311.442229 750.169122 
L 317.725946 746.502724 
L 324.009663 705.386655 
L 330.29338 645.414808 
L 336.577097 720.314138 
L 342.860815 731.575235 
L 349.144532 724.242427 
L 355.428249 746.502724 
L 361.711966 770.858099 
L 367.995683 756.978152 
L 374.2794 763.001526 
L 380.563117 739.693694 
L 386.846834 741.265007 
L 393.130552 742.05067 
L 399.414269 768.763015 
L 405.697986 768.763015 
L 411.981703 742.83632 
L 418.26542 755.93061 
L 424.549137 749.383465 
L 430.832854 706.696077 
L 437.116571 698.577619 
L 443.400288 733.932199 
L 449.684006 751.47855 
L 455.967723 773.215075 
L 462.25144 771.119984 
L 468.535157 770.072442 
L 474.818874 769.548671 
L 481.102591 769.286786 
L 487.386308 769.286786 
L 493.670025 769.0249 
L 499.953742 769.0249 
L 506.23746 782.11919 
L 512.521177 801.760625 
L 518.804894 785.523702 
L 525.088611 777.143358 
L 531.372328 760.120785 
L 537.656045 777.667129 
L 543.939762 773.215075 
L 550.223479 771.119984 
L 556.507197 770.072442 
L 562.790914 782.642961 
L 569.074631 788.928221 
L 575.358348 792.070847 
L 581.642065 767.453587 
L 587.925782 781.333527 
L 594.209499 775.31016 
L 600.493216 785.261817 
L 606.776933 777.143358 
L 613.060651 772.95319 
L 619.344368 784.214274 
L 625.628085 776.619587 
L 631.911802 772.691298 
L 638.195519 679.198075 
L 644.479236 698.053847 
L 650.762953 681.031268 
L 657.04667 711.9338 
L 663.330388 714.290764 
L 669.614105 754.883068 
L 675.897822 775.048274 
L 682.181539 667.151328 
L 688.465256 731.313343 
L 694.748973 737.074838 
L 701.03269 726.861283 
L 707.316407 747.812152 
L 713.600124 745.455182 
L 719.883842 639.391434 
L 726.167559 677.888641 
L 732.451276 710.362487 
L 738.734993 700.410824 
L 745.01871 747.812152 
L 751.302427 758.549466 
L 757.586144 711.410029 
L 763.869861 753.311755 
L 770.153578 748.074037 
L 776.437296 758.549466 
L 782.721013 763.787183 
L 789.00473 753.311755 
L 795.288447 734.979741 
L 801.572164 752.002321 
L 807.855881 773.476954 
L 814.139598 771.38187 
L 820.423315 770.072442 
L 826.707033 769.548671 
L 832.99075 756.192496 
L 839.274467 775.833931 
L 845.558184 772.429412 
L 851.841901 770.596213 
L 858.125618 769.810557 
L 864.409335 769.548671 
L 870.693052 782.381076 
L 876.976769 775.572045 
L 883.260487 772.429412 
L 889.544204 783.690503 
L 895.827921 776.357702 
L 902.111638 772.691298 
L 908.395355 770.858099 
L 914.679072 770.072442 
L 920.962789 782.642961 
L 927.246506 775.833931 
L 933.530223 772.429412 
L 939.813941 770.596213 
L 946.097658 782.904847 
L 952.381375 776.095816 
L 958.665092 759.335122 
L 964.948809 777.405244 
L 971.232526 773.215075 
L 977.516243 784.214274 
L 983.79996 763.525297 
L 990.083678 726.861283 
L 996.367395 761.168327 
L 1002.651112 699.625161 
L 1008.934829 747.288381 
L 1015.218546 758.28758 
L 1021.502263 776.619587 
L 1027.78598 733.67032 
L 1034.069697 698.83951 
L 1040.353414 747.026495 
L 1046.637132 758.025694 
L 1052.920849 737.336717 
L 1059.204566 740.217465 
L 1065.488283 741.526899 
L 1071.772 715.862077 
L 1078.055717 755.668725 
L 1084.339434 762.21587 
L 1090.623151 765.620388 
L 1096.906868 741.265007 
L 1103.190586 728.956367 
L 1109.474303 709.576824 
L 1115.75802 739.431802 
L 1122.041737 727.908825 
L 1128.325454 604.560625 
L 1134.609171 686.792763 
L 1140.892888 675.531665 
L 1147.176605 722.147343 
L 1153.460323 680.245618 
L 1159.74404 632.844289 
L 1166.027757 661.651725 
L 1172.311474 728.432596 
L 1178.595191 748.859694 
L 1184.878908 719.528487 
L 1191.162625 744.407633 
L 1197.446342 717.433403 
L 1203.730059 743.098206 
L 1210.013777 756.192496 
L 1216.297494 775.572045 
L 1222.581211 772.429412 
L 1228.864928 770.596213 
L 1235.148645 769.810557 
L 1241.432362 769.548671 
L 1247.716079 782.381076 
L 1253.999796 788.666335 
L 1260.283513 778.976557 
L 1266.567231 774.000732 
L 1272.850948 784.47616 
L 1279.134665 776.881473 
L 1285.418382 772.95319 
L 1291.702099 783.952389 
L 1297.985816 763.525297 
L 1304.269533 779.238443 
L 1310.55325 774.262617 
L 1316.836968 771.643756 
L 1316.836968 771.643756 
" clip-path="url(#p2fe18ddc58)" style="fill: none; stroke: #1f77b4; stroke-width: 1.5; stroke-linecap: square"/>
   </g>
   <g id="line2d_50">
    <path d="M 1021.502263 750.715514 
L 1027.78598 749.203343 
L 1034.069697 748.953264 
L 1040.353414 748.045703 
L 1046.637132 747.685627 
L 1052.920849 748.168519 
L 1059.204566 748.06888 
L 1065.488283 748.478907 
L 1071.772 748.30486 
L 1078.055717 747.753272 
L 1084.339434 747.833731 
L 1090.623151 747.299876 
L 1096.906868 747.981897 
L 1103.190586 748.648896 
L 1109.474303 747.796005 
L 1115.75802 747.417291 
L 1122.041737 748.339513 
L 1128.325454 746.631179 
L 1134.609171 746.79212 
L 1140.892888 746.885859 
L 1147.176605 746.777416 
L 1153.460323 747.742321 
L 1159.74404 746.522049 
L 1166.027757 747.38064 
L 1172.311474 747.050378 
L 1178.595191 747.186743 
L 1184.878908 745.680984 
L 1191.162625 746.704369 
L 1197.446342 746.908505 
L 1203.730059 746.754407 
L 1210.013777 746.480265 
L 1216.297494 747.493934 
L 1222.581211 746.224773 
L 1228.864928 747.277772 
L 1235.148645 746.649573 
L 1241.432362 749.275266 
L 1247.716079 746.376761 
L 1253.999796 750.06021 
L 1260.283513 749.677581 
L 1266.567231 746.291083 
L 1272.850948 746.916716 
L 1279.134665 748.540009 
L 1285.418382 747.145159 
L 1291.702099 750.599366 
L 1297.985816 748.949087 
L 1304.269533 751.19511 
L 1310.55325 751.032202 
L 1316.836968 752.111894 
" clip-path="url(#p2fe18ddc58)" style="fill: none; stroke: #ff7f0e; stroke-width: 1.5; stroke-linecap: square"/>
   </g>
   <g id="line2d_51">
    <path d="M 1021.502263 811.620625 
L 1021.502263 594.700625 
" clip-path="url(#p2fe18ddc58)" style="fill: none; stroke-dasharray: 7.4,3.2; stroke-dashoffset: 0; stroke: #0000ff; stroke-width: 2"/>
   </g>
   <g id="patch_14">
    <path d="M 56.6375 811.620625 
L 56.6375 594.700625 
" style="fill: none; stroke: #000000; stroke-width: 0.8; stroke-linejoin: miter; stroke-linecap: square"/>
   </g>
   <g id="patch_15">
    <path d="M 1376.846466 811.620625 
L 1376.846466 594.700625 
" style="fill: none; stroke: #000000; stroke-width: 0.8; stroke-linejoin: miter; stroke-linecap: square"/>
   </g>
   <g id="patch_16">
    <path d="M 56.6375 811.620625 
L 1376.846466 811.620625 
" style="fill: none; stroke: #000000; stroke-width: 0.8; stroke-linejoin: miter; stroke-linecap: square"/>
   </g>
   <g id="patch_17">
    <path d="M 56.6375 594.700625 
L 1376.846466 594.700625 
" style="fill: none; stroke: #000000; stroke-width: 0.8; stroke-linejoin: miter; stroke-linecap: square"/>
   </g>
   <g id="text_48">
    <!-- API_ID: 4 -->
    <g transform="translate(671.741983 588.700625) scale(0.2 -0.2)">
     <defs>
      <path id="SimSun-34" d="M 2300 575 
Q 2300 400 2400 325 
Q 2500 250 2675 250 
L 2900 250 
L 2900 100 
L 1250 100 
L 1250 250 
L 1525 250 
Q 1725 250 1812 325 
Q 1900 400 1900 575 
L 1900 1400 
L 225 1400 
L 225 1525 
L 2050 4425 
L 2300 4425 
L 2300 1550 
L 2975 1550 
L 2975 1400 
L 2300 1400 
L 2300 575 
z
M 1875 3800 
L 450 1550 
L 1900 1550 
L 1900 3800 
L 1875 3800 
z
" transform="scale(0.015625)"/>
     </defs>
     <use xlink:href="#SimSun-41"/>
     <use xlink:href="#SimSun-50" x="50"/>
     <use xlink:href="#SimSun-49" x="100"/>
     <use xlink:href="#SimSun-5f" x="150"/>
     <use xlink:href="#SimSun-49" x="200"/>
     <use xlink:href="#SimSun-44" x="250"/>
     <use xlink:href="#SimSun-3a" x="300"/>
     <use xlink:href="#SimSun-20" x="350"/>
     <use xlink:href="#SimSun-34" x="400"/>
    </g>
   </g>
  </g>
  <g id="axes_4">
   <g id="patch_18">
    <path d="M 56.6375 1095.300625 
L 1376.846466 1095.300625 
L 1376.846466 878.380625 
L 56.6375 878.380625 
z
" style="fill: #ffffff"/>
   </g>
   <g id="matplotlib.axis_7">
    <g id="xtick_28">
     <g id="line2d_52">
      <g>
       <use xlink:href="#m3de4ce46f6" x="116.646998" y="1095.300625" style="stroke: #000000; stroke-width: 0.8"/>
      </g>
     </g>
     <g id="text_49">
      <!-- 0 -->
      <g transform="translate(111.646998 1116.188125) scale(0.2 -0.2)">
       <use xlink:href="#TimesNewRomanPSMT-30"/>
      </g>
     </g>
    </g>
    <g id="xtick_29">
     <g id="line2d_53">
      <g>
       <use xlink:href="#m3de4ce46f6" x="273.739926" y="1095.300625" style="stroke: #000000; stroke-width: 0.8"/>
      </g>
     </g>
     <g id="text_50">
      <!-- 25 -->
      <g transform="translate(263.739926 1116.188125) scale(0.2 -0.2)">
       <use xlink:href="#TimesNewRomanPSMT-32"/>
       <use xlink:href="#TimesNewRomanPSMT-35" x="50"/>
      </g>
     </g>
    </g>
    <g id="xtick_30">
     <g id="line2d_54">
      <g>
       <use xlink:href="#m3de4ce46f6" x="430.832854" y="1095.300625" style="stroke: #000000; stroke-width: 0.8"/>
      </g>
     </g>
     <g id="text_51">
      <!-- 50 -->
      <g transform="translate(420.832854 1116.188125) scale(0.2 -0.2)">
       <use xlink:href="#TimesNewRomanPSMT-35"/>
       <use xlink:href="#TimesNewRomanPSMT-30" x="50"/>
      </g>
     </g>
    </g>
    <g id="xtick_31">
     <g id="line2d_55">
      <g>
       <use xlink:href="#m3de4ce46f6" x="587.925782" y="1095.300625" style="stroke: #000000; stroke-width: 0.8"/>
      </g>
     </g>
     <g id="text_52">
      <!-- 75 -->
      <g transform="translate(577.925782 1116.188125) scale(0.2 -0.2)">
       <use xlink:href="#TimesNewRomanPSMT-37"/>
       <use xlink:href="#TimesNewRomanPSMT-35" x="50"/>
      </g>
     </g>
    </g>
    <g id="xtick_32">
     <g id="line2d_56">
      <g>
       <use xlink:href="#m3de4ce46f6" x="745.01871" y="1095.300625" style="stroke: #000000; stroke-width: 0.8"/>
      </g>
     </g>
     <g id="text_53">
      <!-- 100 -->
      <g transform="translate(730.01871 1116.188125) scale(0.2 -0.2)">
       <use xlink:href="#TimesNewRomanPSMT-31"/>
       <use xlink:href="#TimesNewRomanPSMT-30" x="50"/>
       <use xlink:href="#TimesNewRomanPSMT-30" x="100"/>
      </g>
     </g>
    </g>
    <g id="xtick_33">
     <g id="line2d_57">
      <g>
       <use xlink:href="#m3de4ce46f6" x="902.111638" y="1095.300625" style="stroke: #000000; stroke-width: 0.8"/>
      </g>
     </g>
     <g id="text_54">
      <!-- 125 -->
      <g transform="translate(887.111638 1116.188125) scale(0.2 -0.2)">
       <use xlink:href="#TimesNewRomanPSMT-31"/>
       <use xlink:href="#TimesNewRomanPSMT-32" x="50"/>
       <use xlink:href="#TimesNewRomanPSMT-35" x="100"/>
      </g>
     </g>
    </g>
    <g id="xtick_34">
     <g id="line2d_58">
      <g>
       <use xlink:href="#m3de4ce46f6" x="1059.204566" y="1095.300625" style="stroke: #000000; stroke-width: 0.8"/>
      </g>
     </g>
     <g id="text_55">
      <!-- 150 -->
      <g transform="translate(1044.204566 1116.188125) scale(0.2 -0.2)">
       <use xlink:href="#TimesNewRomanPSMT-31"/>
       <use xlink:href="#TimesNewRomanPSMT-35" x="50"/>
       <use xlink:href="#TimesNewRomanPSMT-30" x="100"/>
      </g>
     </g>
    </g>
    <g id="xtick_35">
     <g id="line2d_59">
      <g>
       <use xlink:href="#m3de4ce46f6" x="1216.297494" y="1095.300625" style="stroke: #000000; stroke-width: 0.8"/>
      </g>
     </g>
     <g id="text_56">
      <!-- 175 -->
      <g transform="translate(1201.297494 1116.188125) scale(0.2 -0.2)">
       <use xlink:href="#TimesNewRomanPSMT-31"/>
       <use xlink:href="#TimesNewRomanPSMT-37" x="50"/>
       <use xlink:href="#TimesNewRomanPSMT-35" x="100"/>
      </g>
     </g>
    </g>
    <g id="xtick_36">
     <g id="line2d_60">
      <g>
       <use xlink:href="#m3de4ce46f6" x="1373.390422" y="1095.300625" style="stroke: #000000; stroke-width: 0.8"/>
      </g>
     </g>
     <g id="text_57">
      <!-- 200 -->
      <g transform="translate(1358.390422 1116.188125) scale(0.2 -0.2)">
       <use xlink:href="#TimesNewRomanPSMT-32"/>
       <use xlink:href="#TimesNewRomanPSMT-30" x="50"/>
       <use xlink:href="#TimesNewRomanPSMT-30" x="100"/>
      </g>
     </g>
    </g>
   </g>
   <g id="matplotlib.axis_8">
    <g id="ytick_14">
     <g id="line2d_61">
      <g>
       <use xlink:href="#mcab4f1b87d" x="56.6375" y="1052.2702" style="stroke: #000000; stroke-width: 0.8"/>
      </g>
     </g>
     <g id="text_58">
      <!-- 10 -->
      <g transform="translate(29.6375 1059.21395) scale(0.2 -0.2)">
       <use xlink:href="#TimesNewRomanPSMT-31"/>
       <use xlink:href="#TimesNewRomanPSMT-30" x="50"/>
      </g>
     </g>
    </g>
    <g id="ytick_15">
     <g id="line2d_62">
      <g>
       <use xlink:href="#mcab4f1b87d" x="56.6375" y="1006.706429" style="stroke: #000000; stroke-width: 0.8"/>
      </g>
     </g>
     <g id="text_59">
      <!-- 20 -->
      <g transform="translate(29.6375 1013.650179) scale(0.2 -0.2)">
       <use xlink:href="#TimesNewRomanPSMT-32"/>
       <use xlink:href="#TimesNewRomanPSMT-30" x="50"/>
      </g>
     </g>
    </g>
    <g id="ytick_16">
     <g id="line2d_63">
      <g>
       <use xlink:href="#mcab4f1b87d" x="56.6375" y="961.142658" style="stroke: #000000; stroke-width: 0.8"/>
      </g>
     </g>
     <g id="text_60">
      <!-- 30 -->
      <g transform="translate(29.6375 968.086408) scale(0.2 -0.2)">
       <defs>
        <path id="TimesNewRomanPSMT-33" d="M 325 3431 
Q 506 3859 782 4092 
Q 1059 4325 1472 4325 
Q 1981 4325 2253 3994 
Q 2459 3747 2459 3466 
Q 2459 3003 1878 2509 
Q 2269 2356 2469 2072 
Q 2669 1788 2669 1403 
Q 2669 853 2319 450 
Q 1863 -75 997 -75 
Q 569 -75 414 31 
Q 259 138 259 259 
Q 259 350 332 419 
Q 406 488 509 488 
Q 588 488 669 463 
Q 722 447 909 348 
Q 1097 250 1169 231 
Q 1284 197 1416 197 
Q 1734 197 1970 444 
Q 2206 691 2206 1028 
Q 2206 1275 2097 1509 
Q 2016 1684 1919 1775 
Q 1784 1900 1550 2001 
Q 1316 2103 1072 2103 
L 972 2103 
L 972 2197 
Q 1219 2228 1467 2375 
Q 1716 2522 1828 2728 
Q 1941 2934 1941 3181 
Q 1941 3503 1739 3701 
Q 1538 3900 1238 3900 
Q 753 3900 428 3381 
L 325 3431 
z
" transform="scale(0.015625)"/>
       </defs>
       <use xlink:href="#TimesNewRomanPSMT-33"/>
       <use xlink:href="#TimesNewRomanPSMT-30" x="50"/>
      </g>
     </g>
    </g>
    <g id="ytick_17">
     <g id="line2d_64">
      <g>
       <use xlink:href="#mcab4f1b87d" x="56.6375" y="915.578887" style="stroke: #000000; stroke-width: 0.8"/>
      </g>
     </g>
     <g id="text_61">
      <!-- 40 -->
      <g transform="translate(29.6375 922.522637) scale(0.2 -0.2)">
       <use xlink:href="#TimesNewRomanPSMT-34"/>
       <use xlink:href="#TimesNewRomanPSMT-30" x="50"/>
      </g>
     </g>
    </g>
    <g id="text_62">
     <!-- CPU使用率 -->
     <g transform="translate(23.059375 1031.840625) rotate(-90) scale(0.2 -0.2)">
      <use xlink:href="#SimSun-43"/>
      <use xlink:href="#SimSun-50" x="50"/>
      <use xlink:href="#SimSun-55" x="100"/>
      <use xlink:href="#SimSun-4f7f" x="150"/>
      <use xlink:href="#SimSun-7528" x="250"/>
      <use xlink:href="#SimSun-7387" x="350"/>
     </g>
    </g>
   </g>
   <g id="line2d_65">
    <path d="M 116.646998 1019.054207 
L 122.930716 1017.459482 
L 129.214433 1028.030275 
L 135.49815 1008.255598 
L 141.781867 1014.315579 
L 148.065584 1001.375468 
L 154.349301 1017.732862 
L 160.633018 1053.227039 
L 166.916735 1052.725839 
L 173.200452 1063.888962 
L 179.48417 1074.049683 
L 185.767887 1074.550883 
L 192.051604 1081.613269 
L 198.335321 1069.219924 
L 204.619038 1069.857816 
L 210.902755 1056.507632 
L 217.186472 1074.915393 
L 223.470189 1068.126392 
L 229.753907 1010.078147 
L 236.037624 974.219456 
L 242.321341 983.651155 
L 248.605058 974.675095 
L 254.888775 929.156889 
L 261.172492 924.646086 
L 267.456209 901.909756 
L 273.739926 892.797019 
L 280.023643 888.240625 
L 286.307361 901.909756 
L 292.591078 913.300699 
L 298.874795 907.605228 
L 305.158512 895.621951 
L 311.442229 937.495068 
L 317.725946 958.454395 
L 324.009663 978.001257 
L 330.29338 980.962892 
L 336.577097 961.962808 
L 342.860815 952.439979 
L 349.144532 963.603097 
L 355.428249 976.042005 
L 361.711966 975.44968 
L 367.995683 1004.747186 
L 374.2794 1005.704021 
L 380.563117 1028.987115 
L 386.846834 1056.598757 
L 393.130552 1052.13351 
L 399.414269 1049.946447 
L 405.697986 1055.641918 
L 411.981703 1035.730555 
L 418.26542 1039.466778 
L 424.549137 1027.620201 
L 430.832854 1044.52436 
L 437.116571 1011.946261 
L 443.400288 1000.190809 
L 449.684006 982.9677 
L 455.967723 978.866962 
L 462.25144 965.471211 
L 468.535157 972.396907 
L 474.818874 975.905319 
L 481.102591 979.914936 
L 487.386308 1025.205322 
L 493.670025 1041.015952 
L 499.953742 1037.507539 
L 506.23746 1035.776115 
L 512.521177 1025.797652 
L 518.804894 1041.334892 
L 525.088611 1008.073339 
L 531.372328 1016.502638 
L 537.656045 1029.80726 
L 543.939762 1029.670569 
L 550.223479 1047.804953 
L 556.507197 1045.481199 
L 562.790914 1048.852917 
L 569.074631 1061.975284 
L 575.358348 1061.656336 
L 581.642065 1061.519646 
L 587.925782 1072.865024 
L 594.209499 1058.011236 
L 600.493216 1071.088038 
L 606.776933 1052.54358 
L 613.060651 1047.850513 
L 619.344368 1047.804953 
L 625.628085 1015.864748 
L 631.911802 1004.428241 
L 638.195519 973.672695 
L 644.479236 937.814013 
L 650.762953 942.643761 
L 657.04667 949.61503 
L 663.330388 948.521492 
L 669.614105 945.742099 
L 675.897822 901.044051 
L 682.181539 906.010503 
L 688.465256 908.516506 
L 694.748973 916.626852 
L 701.03269 954.809288 
L 707.316407 989.893395 
L 713.600124 1002.833507 
L 719.883842 1032.131017 
L 726.167559 1039.922418 
L 732.451276 1030.126209 
L 738.734993 1043.476391 
L 745.01871 1061.565209 
L 751.302427 1047.804953 
L 757.586144 1061.428519 
L 763.869861 1068.21752 
L 770.153578 1062.522048 
L 776.437296 1075.644415 
L 782.721013 1082.160033 
L 789.00473 1085.440625 
L 795.288447 1068.855412 
L 801.572164 1060.562805 
L 807.855881 1042.747371 
L 820.423315 1052.17907 
L 826.707033 1033.999127 
L 832.99075 1022.608184 
L 839.274467 1010.123712 
L 845.558184 1003.835915 
L 851.841901 1007.572143 
L 858.125618 995.725552 
L 864.409335 1005.79515 
L 870.693052 990.30347 
L 876.976769 991.67038 
L 883.260487 1006.022966 
L 889.544204 1029.123805 
L 895.827921 1031.584248 
L 902.111638 1035.092661 
L 908.395355 1009.531378 
L 914.679072 1030.900793 
L 920.962789 1011.946261 
L 927.246506 1018.461882 
L 933.530223 996.636831 
L 939.813941 1017.596168 
L 946.097658 1034.955966 
L 952.381375 1034.500331 
L 958.665092 1013.76881 
L 964.948809 1014.771219 
L 971.232526 1017.596168 
L 977.516243 1030.354029 
L 983.79996 1023.109388 
L 990.083678 1001.238782 
L 996.367395 994.859847 
L 1002.651112 993.948568 
L 1008.934829 998.049306 
L 1015.218546 1013.76881 
L 1021.502263 978.320193 
L 1027.78598 972.032397 
L 1034.069697 943.782873 
L 1040.353414 950.207364 
L 1046.637132 935.171305 
L 1052.920849 943.600614 
L 1059.204566 945.514284 
L 1065.488283 969.298569 
L 1071.772 926.468626 
L 1078.055717 936.993863 
L 1084.339434 933.120932 
L 1090.623151 931.161689 
L 1096.906868 927.926665 
L 1103.190586 965.061137 
L 1109.474303 988.161967 
L 1115.75802 1008.802358 
L 1122.041737 1041.927226 
L 1128.325454 1040.286928 
L 1134.609171 1037.143029 
L 1140.892888 1033.315672 
L 1147.176605 994.950968 
L 1153.460323 984.881379 
L 1159.74404 991.260314 
L 1166.027757 1010.351527 
L 1172.311474 1006.25079 
L 1178.595191 999.644039 
L 1184.878908 1016.867148 
L 1191.162625 1016.320379 
L 1197.446342 1020.648941 
L 1203.730059 984.061229 
L 1210.013777 993.082863 
L 1216.297494 974.857354 
L 1222.581211 999.871855 
L 1228.864928 985.063629 
L 1235.148645 986.795057 
L 1241.432362 1001.284338 
L 1247.716079 1015.409109 
L 1253.999796 1026.982306 
L 1260.283513 1039.649033 
L 1266.567231 1039.102273 
L 1272.850948 1032.039888 
L 1279.134665 1019.373161 
L 1285.418382 999.370659 
L 1291.702099 998.459389 
L 1297.985816 1000.327494 
L 1304.269533 1026.298851 
L 1310.55325 1050.675471 
L 1316.836968 1058.284616 
L 1316.836968 1058.284616 
" clip-path="url(#p18af7bf2b7)" style="fill: none; stroke: #1f77b4; stroke-width: 1.5; stroke-linecap: square"/>
   </g>
   <g id="line2d_66">
    <path d="M 1021.502263 1014.0248 
L 1027.78598 1015.012226 
L 1034.069697 1015.233411 
L 1040.353414 1008.512466 
L 1046.637132 1007.678351 
L 1052.920849 1009.450903 
L 1059.204566 1007.757097 
L 1065.488283 1007.656338 
L 1071.772 1008.489045 
L 1078.055717 1007.775903 
L 1084.339434 1008.718694 
L 1090.623151 1007.430817 
L 1096.906868 1008.598703 
L 1103.190586 1008.217003 
L 1109.474303 1009.387436 
L 1115.75802 1010.386585 
L 1122.041737 1012.402135 
L 1128.325454 1012.689151 
L 1134.609171 1012.878119 
L 1140.892888 1017.145212 
L 1147.176605 1014.384478 
L 1153.460323 1018.385517 
L 1159.74404 1020.453619 
L 1166.027757 1021.001397 
L 1172.311474 1019.313126 
L 1178.595191 1019.080861 
L 1184.878908 1019.060803 
L 1191.162625 1021.355 
L 1197.446342 1021.322219 
L 1203.730059 1019.357092 
L 1210.013777 1018.263701 
L 1216.297494 1018.896047 
L 1222.581211 1017.814554 
L 1228.864928 1018.607892 
L 1235.148645 1018.65981 
L 1241.432362 1015.829012 
L 1247.716079 1013.391986 
L 1253.999796 1017.919154 
L 1260.283513 1017.061652 
L 1266.567231 1011.33181 
L 1272.850948 1011.278936 
L 1279.134665 1013.310346 
L 1285.418382 1010.395606 
L 1291.702099 1018.777507 
L 1297.985816 1011.097598 
L 1304.269533 1018.318191 
L 1310.55325 1021.141289 
L 1316.836968 1019.257819 
" clip-path="url(#p18af7bf2b7)" style="fill: none; stroke: #ff7f0e; stroke-width: 1.5; stroke-linecap: square"/>
   </g>
   <g id="line2d_67">
    <path d="M 1021.502263 1095.300625 
L 1021.502263 878.380625 
" clip-path="url(#p18af7bf2b7)" style="fill: none; stroke-dasharray: 7.4,3.2; stroke-dashoffset: 0; stroke: #0000ff; stroke-width: 2"/>
   </g>
   <g id="patch_19">
    <path d="M 56.6375 1095.300625 
L 56.6375 878.380625 
" style="fill: none; stroke: #000000; stroke-width: 0.8; stroke-linejoin: miter; stroke-linecap: square"/>
   </g>
   <g id="patch_20">
    <path d="M 1376.846466 1095.300625 
L 1376.846466 878.380625 
" style="fill: none; stroke: #000000; stroke-width: 0.8; stroke-linejoin: miter; stroke-linecap: square"/>
   </g>
   <g id="patch_21">
    <path d="M 56.6375 1095.300625 
L 1376.846466 1095.300625 
" style="fill: none; stroke: #000000; stroke-width: 0.8; stroke-linejoin: miter; stroke-linecap: square"/>
   </g>
   <g id="patch_22">
    <path d="M 56.6375 878.380625 
L 1376.846466 878.380625 
" style="fill: none; stroke: #000000; stroke-width: 0.8; stroke-linejoin: miter; stroke-linecap: square"/>
   </g>
   <g id="text_63">
    <!-- API_ID: 5 -->
    <g transform="translate(671.741983 872.380625) scale(0.2 -0.2)">
     <defs>
      <path id="SimSun-35" d="M 1725 2850 
Q 2200 2850 2500 2487 
Q 2800 2125 2800 1525 
Q 2800 850 2487 450 
Q 2175 50 1525 50 
Q 1075 50 725 312 
Q 375 575 375 950 
Q 375 1100 462 1212 
Q 550 1325 700 1325 
Q 850 1325 900 1225 
Q 950 1125 950 1050 
Q 950 900 875 825 
Q 800 725 800 625 
Q 800 425 1037 325 
Q 1275 225 1550 225 
Q 1950 225 2162 550 
Q 2375 875 2375 1475 
Q 2375 1975 2187 2287 
Q 2000 2600 1625 2600 
Q 1350 2600 1150 2500 
Q 950 2400 775 2075 
L 550 2100 
L 675 4375 
L 2725 4375 
L 2650 4000 
L 850 4000 
L 750 2350 
Q 1000 2700 1237 2775 
Q 1475 2850 1725 2850 
z
" transform="scale(0.015625)"/>
     </defs>
     <use xlink:href="#SimSun-41"/>
     <use xlink:href="#SimSun-50" x="50"/>
     <use xlink:href="#SimSun-49" x="100"/>
     <use xlink:href="#SimSun-5f" x="150"/>
     <use xlink:href="#SimSun-49" x="200"/>
     <use xlink:href="#SimSun-44" x="250"/>
     <use xlink:href="#SimSun-3a" x="300"/>
     <use xlink:href="#SimSun-20" x="350"/>
     <use xlink:href="#SimSun-35" x="400"/>
    </g>
   </g>
  </g>
  <g id="axes_5">
   <g id="patch_23">
    <path d="M 56.6375 1378.980625 
L 1376.846466 1378.980625 
L 1376.846466 1162.060625 
L 56.6375 1162.060625 
z
" style="fill: #ffffff"/>
   </g>
   <g id="matplotlib.axis_9">
    <g id="xtick_37">
     <g id="line2d_68">
      <g>
       <use xlink:href="#m3de4ce46f6" x="116.646998" y="1378.980625" style="stroke: #000000; stroke-width: 0.8"/>
      </g>
     </g>
     <g id="text_64">
      <!-- 0 -->
      <g transform="translate(111.646998 1399.868125) scale(0.2 -0.2)">
       <use xlink:href="#TimesNewRomanPSMT-30"/>
      </g>
     </g>
    </g>
    <g id="xtick_38">
     <g id="line2d_69">
      <g>
       <use xlink:href="#m3de4ce46f6" x="273.739926" y="1378.980625" style="stroke: #000000; stroke-width: 0.8"/>
      </g>
     </g>
     <g id="text_65">
      <!-- 25 -->
      <g transform="translate(263.739926 1399.868125) scale(0.2 -0.2)">
       <use xlink:href="#TimesNewRomanPSMT-32"/>
       <use xlink:href="#TimesNewRomanPSMT-35" x="50"/>
      </g>
     </g>
    </g>
    <g id="xtick_39">
     <g id="line2d_70">
      <g>
       <use xlink:href="#m3de4ce46f6" x="430.832854" y="1378.980625" style="stroke: #000000; stroke-width: 0.8"/>
      </g>
     </g>
     <g id="text_66">
      <!-- 50 -->
      <g transform="translate(420.832854 1399.868125) scale(0.2 -0.2)">
       <use xlink:href="#TimesNewRomanPSMT-35"/>
       <use xlink:href="#TimesNewRomanPSMT-30" x="50"/>
      </g>
     </g>
    </g>
    <g id="xtick_40">
     <g id="line2d_71">
      <g>
       <use xlink:href="#m3de4ce46f6" x="587.925782" y="1378.980625" style="stroke: #000000; stroke-width: 0.8"/>
      </g>
     </g>
     <g id="text_67">
      <!-- 75 -->
      <g transform="translate(577.925782 1399.868125) scale(0.2 -0.2)">
       <use xlink:href="#TimesNewRomanPSMT-37"/>
       <use xlink:href="#TimesNewRomanPSMT-35" x="50"/>
      </g>
     </g>
    </g>
    <g id="xtick_41">
     <g id="line2d_72">
      <g>
       <use xlink:href="#m3de4ce46f6" x="745.01871" y="1378.980625" style="stroke: #000000; stroke-width: 0.8"/>
      </g>
     </g>
     <g id="text_68">
      <!-- 100 -->
      <g transform="translate(730.01871 1399.868125) scale(0.2 -0.2)">
       <use xlink:href="#TimesNewRomanPSMT-31"/>
       <use xlink:href="#TimesNewRomanPSMT-30" x="50"/>
       <use xlink:href="#TimesNewRomanPSMT-30" x="100"/>
      </g>
     </g>
    </g>
    <g id="xtick_42">
     <g id="line2d_73">
      <g>
       <use xlink:href="#m3de4ce46f6" x="902.111638" y="1378.980625" style="stroke: #000000; stroke-width: 0.8"/>
      </g>
     </g>
     <g id="text_69">
      <!-- 125 -->
      <g transform="translate(887.111638 1399.868125) scale(0.2 -0.2)">
       <use xlink:href="#TimesNewRomanPSMT-31"/>
       <use xlink:href="#TimesNewRomanPSMT-32" x="50"/>
       <use xlink:href="#TimesNewRomanPSMT-35" x="100"/>
      </g>
     </g>
    </g>
    <g id="xtick_43">
     <g id="line2d_74">
      <g>
       <use xlink:href="#m3de4ce46f6" x="1059.204566" y="1378.980625" style="stroke: #000000; stroke-width: 0.8"/>
      </g>
     </g>
     <g id="text_70">
      <!-- 150 -->
      <g transform="translate(1044.204566 1399.868125) scale(0.2 -0.2)">
       <use xlink:href="#TimesNewRomanPSMT-31"/>
       <use xlink:href="#TimesNewRomanPSMT-35" x="50"/>
       <use xlink:href="#TimesNewRomanPSMT-30" x="100"/>
      </g>
     </g>
    </g>
    <g id="xtick_44">
     <g id="line2d_75">
      <g>
       <use xlink:href="#m3de4ce46f6" x="1216.297494" y="1378.980625" style="stroke: #000000; stroke-width: 0.8"/>
      </g>
     </g>
     <g id="text_71">
      <!-- 175 -->
      <g transform="translate(1201.297494 1399.868125) scale(0.2 -0.2)">
       <use xlink:href="#TimesNewRomanPSMT-31"/>
       <use xlink:href="#TimesNewRomanPSMT-37" x="50"/>
       <use xlink:href="#TimesNewRomanPSMT-35" x="100"/>
      </g>
     </g>
    </g>
    <g id="xtick_45">
     <g id="line2d_76">
      <g>
       <use xlink:href="#m3de4ce46f6" x="1373.390422" y="1378.980625" style="stroke: #000000; stroke-width: 0.8"/>
      </g>
     </g>
     <g id="text_72">
      <!-- 200 -->
      <g transform="translate(1358.390422 1399.868125) scale(0.2 -0.2)">
       <use xlink:href="#TimesNewRomanPSMT-32"/>
       <use xlink:href="#TimesNewRomanPSMT-30" x="50"/>
       <use xlink:href="#TimesNewRomanPSMT-30" x="100"/>
      </g>
     </g>
    </g>
   </g>
   <g id="matplotlib.axis_10">
    <g id="ytick_18">
     <g id="line2d_77">
      <g>
       <use xlink:href="#mcab4f1b87d" x="56.6375" y="1376.853959" style="stroke: #000000; stroke-width: 0.8"/>
      </g>
     </g>
     <g id="text_73">
      <!-- 0 -->
      <g transform="translate(39.6375 1383.797709) scale(0.2 -0.2)">
       <use xlink:href="#TimesNewRomanPSMT-30"/>
      </g>
     </g>
    </g>
    <g id="ytick_19">
     <g id="line2d_78">
      <g>
       <use xlink:href="#mcab4f1b87d" x="56.6375" y="1299.520626" style="stroke: #000000; stroke-width: 0.8"/>
      </g>
     </g>
     <g id="text_74">
      <!-- 20 -->
      <g transform="translate(29.6375 1306.464376) scale(0.2 -0.2)">
       <use xlink:href="#TimesNewRomanPSMT-32"/>
       <use xlink:href="#TimesNewRomanPSMT-30" x="50"/>
      </g>
     </g>
    </g>
    <g id="ytick_20">
     <g id="line2d_79">
      <g>
       <use xlink:href="#mcab4f1b87d" x="56.6375" y="1222.187292" style="stroke: #000000; stroke-width: 0.8"/>
      </g>
     </g>
     <g id="text_75">
      <!-- 40 -->
      <g transform="translate(29.6375 1229.131042) scale(0.2 -0.2)">
       <use xlink:href="#TimesNewRomanPSMT-34"/>
       <use xlink:href="#TimesNewRomanPSMT-30" x="50"/>
      </g>
     </g>
    </g>
    <g id="text_76">
     <!-- CPU使用率 -->
     <g transform="translate(23.059375 1315.520625) rotate(-90) scale(0.2 -0.2)">
      <use xlink:href="#SimSun-43"/>
      <use xlink:href="#SimSun-50" x="50"/>
      <use xlink:href="#SimSun-55" x="100"/>
      <use xlink:href="#SimSun-4f7f" x="150"/>
      <use xlink:href="#SimSun-7528" x="250"/>
      <use xlink:href="#SimSun-7387" x="350"/>
     </g>
    </g>
   </g>
   <g id="line2d_80">
    <path d="M 116.646998 1287.920618 
L 122.930716 1264.720618 
L 129.214433 1195.120625 
L 135.49815 1226.053959 
L 141.781867 1191.253973 
L 148.065584 1195.120625 
L 154.349301 1195.120625 
L 160.633018 1222.187292 
L 166.916735 1229.92064 
L 173.200452 1210.587292 
L 179.48417 1195.120625 
L 185.767887 1276.320625 
L 192.051604 1276.320625 
L 198.335321 1291.787292 
L 204.619038 1280.187285 
L 210.902755 1245.387292 
L 217.186472 1245.387292 
L 223.470189 1272.453951 
L 229.753907 1284.053959 
L 236.037624 1272.453951 
L 242.321341 1322.720626 
L 248.605058 1299.520626 
L 254.888775 1338.187292 
L 261.172492 1365.253959 
L 267.456209 1334.320626 
L 273.739926 1334.320626 
L 280.023643 1345.920626 
L 286.307361 1307.253959 
L 292.591078 1330.453959 
L 298.874795 1307.253959 
L 305.158512 1345.920626 
L 311.442229 1276.320625 
L 317.725946 1284.053959 
L 324.009663 1264.720618 
L 330.29338 1272.453951 
L 336.577097 1253.120625 
L 342.860815 1276.320625 
L 349.144532 1276.320625 
L 355.428249 1280.187285 
L 361.711966 1353.653959 
L 367.995683 1342.053959 
L 374.2794 1322.720626 
L 380.563117 1322.720626 
L 386.846834 1307.253959 
L 393.130552 1342.053959 
L 399.414269 1272.453951 
L 405.697986 1314.987296 
L 411.981703 1330.453959 
L 418.26542 1318.853963 
L 424.549137 1349.787292 
L 430.832854 1330.453959 
L 437.116571 1338.187292 
L 443.400288 1357.520626 
L 449.684006 1345.920626 
L 455.967723 1345.920626 
L 462.25144 1365.253959 
L 468.535157 1330.453959 
L 474.818874 1365.253959 
L 481.102591 1322.720626 
L 487.386308 1330.453959 
L 493.670025 1334.320626 
L 499.953742 1280.187285 
L 506.23746 1287.920618 
L 512.521177 1245.387292 
L 518.804894 1210.587292 
L 525.088611 1249.253959 
L 531.372328 1256.987292 
L 537.656045 1249.253959 
L 543.939762 1245.387292 
L 550.223479 1171.920625 
L 556.507197 1218.32064 
L 562.790914 1218.32064 
L 569.074631 1229.92064 
L 575.358348 1287.920618 
L 581.642065 1314.987296 
L 587.925782 1307.253959 
L 594.209499 1345.920626 
L 600.493216 1334.320626 
L 606.776933 1311.120626 
L 613.060651 1342.053959 
L 619.344368 1361.387293 
L 625.628085 1322.720626 
L 631.911802 1357.520626 
L 638.195519 1357.520626 
L 644.479236 1342.053959 
L 650.762953 1369.120625 
L 663.330388 1369.120625 
L 669.614105 1338.187292 
L 675.897822 1338.187292 
L 682.181539 1314.987296 
L 688.465256 1338.187292 
L 694.748973 1342.053959 
L 701.03269 1307.253959 
L 707.316407 1303.387292 
L 713.600124 1291.787292 
L 719.883842 1291.787292 
L 726.167559 1303.387292 
L 732.451276 1280.187285 
L 738.734993 1307.253959 
L 745.01871 1272.453951 
L 751.302427 1287.920618 
L 757.586144 1311.120626 
L 763.869861 1338.187292 
L 770.153578 1322.720626 
L 776.437296 1326.587292 
L 782.721013 1280.187285 
L 789.00473 1338.187292 
L 795.288447 1287.920618 
L 801.572164 1314.987296 
L 807.855881 1272.453951 
L 814.139598 1326.587292 
L 820.423315 1338.187292 
L 826.707033 1322.720626 
L 832.99075 1287.920618 
L 839.274467 1307.253959 
L 845.558184 1311.120626 
L 851.841901 1330.453959 
L 858.125618 1307.253959 
L 864.409335 1276.320625 
L 870.693052 1284.053959 
L 876.976769 1287.920618 
L 883.260487 1295.653959 
L 889.544204 1318.853963 
L 895.827921 1245.387292 
L 902.111638 1264.720618 
L 908.395355 1222.187292 
L 914.679072 1256.987292 
L 920.962789 1226.053959 
L 927.246506 1253.120625 
L 933.530223 1249.253959 
L 939.813941 1287.920618 
L 946.097658 1195.120625 
L 952.381375 1249.253959 
L 958.665092 1233.787292 
L 964.948809 1233.787292 
L 971.232526 1229.92064 
L 977.516243 1295.653959 
L 983.79996 1303.387292 
L 990.083678 1318.853963 
L 996.367395 1357.520626 
L 1002.651112 1326.587292 
L 1015.218546 1318.853963 
L 1021.502263 1256.987292 
L 1027.78598 1272.453951 
L 1034.069697 1291.787292 
L 1040.353414 1318.853963 
L 1046.637132 1295.653959 
L 1052.920849 1287.920618 
L 1059.204566 1322.720626 
L 1065.488283 1307.253959 
L 1071.772 1314.987296 
L 1078.055717 1249.253959 
L 1084.339434 1295.653959 
L 1090.623151 1256.987292 
L 1096.906868 1314.987296 
L 1103.190586 1268.587292 
L 1109.474303 1284.053959 
L 1115.75802 1307.253959 
L 1122.041737 1318.853963 
L 1128.325454 1326.587292 
L 1134.609171 1338.187292 
L 1147.176605 1314.987296 
L 1153.460323 1299.520626 
L 1159.74404 1276.320625 
L 1166.027757 1291.787292 
L 1172.311474 1295.653959 
L 1178.595191 1338.187292 
L 1184.878908 1357.520626 
L 1197.446342 1342.053959 
L 1203.730059 1357.520626 
L 1210.013777 1369.120625 
L 1216.297494 1338.187292 
L 1222.581211 1365.253959 
L 1228.864928 1345.920626 
L 1241.432362 1322.720626 
L 1247.716079 1330.453959 
L 1253.999796 1322.720626 
L 1260.283513 1318.853963 
L 1266.567231 1303.387292 
L 1272.850948 1318.853963 
L 1279.134665 1280.187285 
L 1285.418382 1307.253959 
L 1291.702099 1264.720618 
L 1297.985816 1245.387292 
L 1304.269533 1272.453951 
L 1310.55325 1272.453951 
L 1316.836968 1322.720626 
L 1316.836968 1322.720626 
" clip-path="url(#p324360e5b7)" style="fill: none; stroke: #1f77b4; stroke-width: 1.5; stroke-linecap: square"/>
   </g>
   <g id="line2d_81">
    <path d="M 1021.502263 1303.625817 
L 1027.78598 1301.363651 
L 1034.069697 1304.698338 
L 1040.353414 1307.581796 
L 1046.637132 1306.512011 
L 1052.920849 1318.315202 
L 1059.204566 1309.996095 
L 1065.488283 1315.180472 
L 1071.772 1317.633431 
L 1078.055717 1318.339857 
L 1084.339434 1320.913572 
L 1090.623151 1318.168888 
L 1096.906868 1318.929111 
L 1103.190586 1319.839639 
L 1109.474303 1320.724092 
L 1115.75802 1319.422216 
L 1122.041737 1321.129433 
L 1128.325454 1320.645809 
L 1134.609171 1320.860195 
L 1140.892888 1320.495117 
L 1147.176605 1320.52527 
L 1153.460323 1321.149689 
L 1159.74404 1320.268872 
L 1166.027757 1319.86183 
L 1172.311474 1318.268901 
L 1178.595191 1315.706676 
L 1184.878908 1315.920672 
L 1191.162625 1316.172169 
L 1197.446342 1316.349249 
L 1203.730059 1313.392202 
L 1210.013777 1315.997446 
L 1216.297494 1312.173957 
L 1222.581211 1311.657849 
L 1228.864928 1311.050393 
L 1235.148645 1310.473108 
L 1241.432362 1310.61485 
L 1247.716079 1301.62897 
L 1253.999796 1309.519849 
L 1260.283513 1308.655903 
L 1266.567231 1284.538915 
L 1272.850948 1280.284614 
L 1279.134665 1276.376698 
L 1285.418382 1272.55527 
L 1291.702099 1292.766445 
L 1297.985816 1271.587932 
L 1304.269533 1293.1942 
L 1310.55325 1291.121337 
L 1316.836968 1292.298798 
" clip-path="url(#p324360e5b7)" style="fill: none; stroke: #ff7f0e; stroke-width: 1.5; stroke-linecap: square"/>
   </g>
   <g id="line2d_82">
    <path d="M 1021.502263 1378.980625 
L 1021.502263 1162.060625 
" clip-path="url(#p324360e5b7)" style="fill: none; stroke-dasharray: 7.4,3.2; stroke-dashoffset: 0; stroke: #0000ff; stroke-width: 2"/>
   </g>
   <g id="patch_24">
    <path d="M 56.6375 1378.980625 
L 56.6375 1162.060625 
" style="fill: none; stroke: #000000; stroke-width: 0.8; stroke-linejoin: miter; stroke-linecap: square"/>
   </g>
   <g id="patch_25">
    <path d="M 1376.846466 1378.980625 
L 1376.846466 1162.060625 
" style="fill: none; stroke: #000000; stroke-width: 0.8; stroke-linejoin: miter; stroke-linecap: square"/>
   </g>
   <g id="patch_26">
    <path d="M 56.6375 1378.980625 
L 1376.846466 1378.980625 
" style="fill: none; stroke: #000000; stroke-width: 0.8; stroke-linejoin: miter; stroke-linecap: square"/>
   </g>
   <g id="patch_27">
    <path d="M 56.6375 1162.060625 
L 1376.846466 1162.060625 
" style="fill: none; stroke: #000000; stroke-width: 0.8; stroke-linejoin: miter; stroke-linecap: square"/>
   </g>
   <g id="text_77">
    <!-- API_ID: 36 -->
    <g transform="translate(666.741983 1156.060625) scale(0.2 -0.2)">
     <defs>
      <path id="SimSun-36" d="M 775 1800 
Q 775 1050 1037 637 
Q 1300 225 1675 225 
Q 2050 225 2250 500 
Q 2450 775 2450 1525 
Q 2450 2025 2237 2300 
Q 2025 2575 1725 2575 
Q 1450 2575 1212 2412 
Q 975 2250 775 1800 
z
M 1750 2825 
Q 2350 2825 2612 2425 
Q 2875 2025 2875 1525 
Q 2875 775 2512 412 
Q 2150 50 1675 50 
Q 1000 50 650 562 
Q 300 1075 300 2050 
Q 300 3200 725 3812 
Q 1150 4425 1875 4425 
Q 2225 4425 2437 4225 
Q 2650 4025 2650 3875 
Q 2650 3725 2587 3650 
Q 2525 3575 2375 3575 
Q 2250 3575 2187 3637 
Q 2125 3700 2125 3825 
Q 2125 3875 2150 3925 
Q 2150 3975 2150 4025 
Q 2150 4125 2075 4187 
Q 2000 4250 1800 4250 
Q 1375 4250 1075 3862 
Q 775 3475 775 2175 
Q 925 2500 1187 2662 
Q 1450 2825 1750 2825 
z
" transform="scale(0.015625)"/>
     </defs>
     <use xlink:href="#SimSun-41"/>
     <use xlink:href="#SimSun-50" x="50"/>
     <use xlink:href="#SimSun-49" x="100"/>
     <use xlink:href="#SimSun-5f" x="150"/>
     <use xlink:href="#SimSun-49" x="200"/>
     <use xlink:href="#SimSun-44" x="250"/>
     <use xlink:href="#SimSun-3a" x="300"/>
     <use xlink:href="#SimSun-20" x="350"/>
     <use xlink:href="#SimSun-33" x="400"/>
     <use xlink:href="#SimSun-36" x="450"/>
    </g>
   </g>
  </g>
 </g>
 <defs>
  <clipPath id="p9d603902b9">
   <rect x="56.6375" y="27.340625" width="1320.208966" height="216.92"/>
  </clipPath>
  <clipPath id="p737de7c2c5">
   <rect x="56.6375" y="311.020625" width="1320.208966" height="216.92"/>
  </clipPath>
  <clipPath id="p2fe18ddc58">
   <rect x="56.6375" y="594.700625" width="1320.208966" height="216.92"/>
  </clipPath>
  <clipPath id="p18af7bf2b7">
   <rect x="56.6375" y="878.380625" width="1320.208966" height="216.92"/>
  </clipPath>
  <clipPath id="p324360e5b7">
   <rect x="56.6375" y="1162.060625" width="1320.208966" height="216.92"/>
  </clipPath>
 </defs>
</svg>
