<?xml version="1.0" encoding="utf-8" standalone="no"?>
<!DOCTYPE svg PUBLIC "-//W3C//DTD SVG 1.1//EN"
  "http://www.w3.org/Graphics/SVG/1.1/DTD/svg11.dtd">
<svg xmlns:xlink="http://www.w3.org/1999/xlink" width="1050.557536pt" height="691.4825pt" viewBox="0 0 1050.557536 691.4825" xmlns="http://www.w3.org/2000/svg" version="1.1">
 <metadata>
  <rdf:RDF xmlns:dc="http://purl.org/dc/elements/1.1/" xmlns:cc="http://creativecommons.org/ns#" xmlns:rdf="http://www.w3.org/1999/02/22-rdf-syntax-ns#">
   <cc:Work>
    <dc:type rdf:resource="http://purl.org/dc/dcmitype/StillImage"/>
    <dc:date>2024-02-24T10:11:26.840292</dc:date>
    <dc:format>image/svg+xml</dc:format>
    <dc:creator>
     <cc:Agent>
      <dc:title>Matplotlib v3.7.4, https://matplotlib.org/</dc:title>
     </cc:Agent>
    </dc:creator>
   </cc:Work>
  </rdf:RDF>
 </metadata>
 <defs>
  <style type="text/css">*{stroke-linejoin: round; stroke-linecap: butt}</style>
 </defs>
 <g id="figure_1">
  <g id="patch_1">
   <path d="M 0 691.4825 
L 1050.557536 691.4825 
L 1050.557536 0 
L 0 0 
z
" style="fill: #ffffff"/>
  </g>
  <g id="axes_1">
   <g id="patch_2">
    <path d="M 61.6375 193.516875 
L 1032.509189 193.516875 
L 1032.509189 29.059375 
L 61.6375 29.059375 
z
" style="fill: #ffffff"/>
   </g>
   <g id="matplotlib.axis_1">
    <g id="xtick_1">
     <g id="line2d_1">
      <defs>
       <path id="m0b35345035" d="M 0 0 
L 0 3.5 
" style="stroke: #000000; stroke-width: 0.8"/>
      </defs>
      <g>
       <use xlink:href="#m0b35345035" x="105.768031" y="193.516875" style="stroke: #000000; stroke-width: 0.8"/>
      </g>
     </g>
     <g id="text_1">
      <!-- 0 -->
      <g transform="translate(100.768031 214.404375) scale(0.2 -0.2)">
       <defs>
        <path id="TimesNewRomanPSMT-30" d="M 231 2094 
Q 231 2819 450 3342 
Q 669 3866 1031 4122 
Q 1313 4325 1613 4325 
Q 2100 4325 2488 3828 
Q 2972 3213 2972 2159 
Q 2972 1422 2759 906 
Q 2547 391 2217 158 
Q 1888 -75 1581 -75 
Q 975 -75 572 641 
Q 231 1244 231 2094 
z
M 844 2016 
Q 844 1141 1059 588 
Q 1238 122 1591 122 
Q 1759 122 1940 273 
Q 2122 425 2216 781 
Q 2359 1319 2359 2297 
Q 2359 3022 2209 3506 
Q 2097 3866 1919 4016 
Q 1791 4119 1609 4119 
Q 1397 4119 1231 3928 
Q 1006 3669 925 3112 
Q 844 2556 844 2016 
z
" transform="scale(0.015625)"/>
       </defs>
       <use xlink:href="#TimesNewRomanPSMT-30"/>
      </g>
     </g>
    </g>
    <g id="xtick_2">
     <g id="line2d_2">
      <g>
       <use xlink:href="#m0b35345035" x="259.532949" y="193.516875" style="stroke: #000000; stroke-width: 0.8"/>
      </g>
     </g>
     <g id="text_2">
      <!-- 50 -->
      <g transform="translate(249.532949 214.404375) scale(0.2 -0.2)">
       <defs>
        <path id="TimesNewRomanPSMT-35" d="M 2778 4238 
L 2534 3706 
L 1259 3706 
L 981 3138 
Q 1809 3016 2294 2522 
Q 2709 2097 2709 1522 
Q 2709 1188 2573 903 
Q 2438 619 2231 419 
Q 2025 219 1772 97 
Q 1413 -75 1034 -75 
Q 653 -75 479 54 
Q 306 184 306 341 
Q 306 428 378 495 
Q 450 563 559 563 
Q 641 563 702 538 
Q 763 513 909 409 
Q 1144 247 1384 247 
Q 1750 247 2026 523 
Q 2303 800 2303 1197 
Q 2303 1581 2056 1914 
Q 1809 2247 1375 2428 
Q 1034 2569 447 2591 
L 1259 4238 
L 2778 4238 
z
" transform="scale(0.015625)"/>
       </defs>
       <use xlink:href="#TimesNewRomanPSMT-35"/>
       <use xlink:href="#TimesNewRomanPSMT-30" x="50"/>
      </g>
     </g>
    </g>
    <g id="xtick_3">
     <g id="line2d_3">
      <g>
       <use xlink:href="#m0b35345035" x="413.297866" y="193.516875" style="stroke: #000000; stroke-width: 0.8"/>
      </g>
     </g>
     <g id="text_3">
      <!-- 100 -->
      <g transform="translate(398.297866 214.404375) scale(0.2 -0.2)">
       <defs>
        <path id="TimesNewRomanPSMT-31" d="M 750 3822 
L 1781 4325 
L 1884 4325 
L 1884 747 
Q 1884 391 1914 303 
Q 1944 216 2037 169 
Q 2131 122 2419 116 
L 2419 0 
L 825 0 
L 825 116 
Q 1125 122 1212 167 
Q 1300 213 1334 289 
Q 1369 366 1369 747 
L 1369 3034 
Q 1369 3497 1338 3628 
Q 1316 3728 1258 3775 
Q 1200 3822 1119 3822 
Q 1003 3822 797 3725 
L 750 3822 
z
" transform="scale(0.015625)"/>
       </defs>
       <use xlink:href="#TimesNewRomanPSMT-31"/>
       <use xlink:href="#TimesNewRomanPSMT-30" x="50"/>
       <use xlink:href="#TimesNewRomanPSMT-30" x="100"/>
      </g>
     </g>
    </g>
    <g id="xtick_4">
     <g id="line2d_4">
      <g>
       <use xlink:href="#m0b35345035" x="567.062784" y="193.516875" style="stroke: #000000; stroke-width: 0.8"/>
      </g>
     </g>
     <g id="text_4">
      <!-- 150 -->
      <g transform="translate(552.062784 214.404375) scale(0.2 -0.2)">
       <use xlink:href="#TimesNewRomanPSMT-31"/>
       <use xlink:href="#TimesNewRomanPSMT-35" x="50"/>
       <use xlink:href="#TimesNewRomanPSMT-30" x="100"/>
      </g>
     </g>
    </g>
    <g id="xtick_5">
     <g id="line2d_5">
      <g>
       <use xlink:href="#m0b35345035" x="720.827701" y="193.516875" style="stroke: #000000; stroke-width: 0.8"/>
      </g>
     </g>
     <g id="text_5">
      <!-- 200 -->
      <g transform="translate(705.827701 214.404375) scale(0.2 -0.2)">
       <defs>
        <path id="TimesNewRomanPSMT-32" d="M 2934 816 
L 2638 0 
L 138 0 
L 138 116 
Q 1241 1122 1691 1759 
Q 2141 2397 2141 2925 
Q 2141 3328 1894 3587 
Q 1647 3847 1303 3847 
Q 991 3847 742 3664 
Q 494 3481 375 3128 
L 259 3128 
Q 338 3706 661 4015 
Q 984 4325 1469 4325 
Q 1984 4325 2329 3994 
Q 2675 3663 2675 3213 
Q 2675 2891 2525 2569 
Q 2294 2063 1775 1497 
Q 997 647 803 472 
L 1909 472 
Q 2247 472 2383 497 
Q 2519 522 2628 598 
Q 2738 675 2819 816 
L 2934 816 
z
" transform="scale(0.015625)"/>
       </defs>
       <use xlink:href="#TimesNewRomanPSMT-32"/>
       <use xlink:href="#TimesNewRomanPSMT-30" x="50"/>
       <use xlink:href="#TimesNewRomanPSMT-30" x="100"/>
      </g>
     </g>
    </g>
    <g id="xtick_6">
     <g id="line2d_6">
      <g>
       <use xlink:href="#m0b35345035" x="874.592619" y="193.516875" style="stroke: #000000; stroke-width: 0.8"/>
      </g>
     </g>
     <g id="text_6">
      <!-- 250 -->
      <g transform="translate(859.592619 214.404375) scale(0.2 -0.2)">
       <use xlink:href="#TimesNewRomanPSMT-32"/>
       <use xlink:href="#TimesNewRomanPSMT-35" x="50"/>
       <use xlink:href="#TimesNewRomanPSMT-30" x="100"/>
      </g>
     </g>
    </g>
    <g id="xtick_7">
     <g id="line2d_7">
      <g>
       <use xlink:href="#m0b35345035" x="1028.357536" y="193.516875" style="stroke: #000000; stroke-width: 0.8"/>
      </g>
     </g>
     <g id="text_7">
      <!-- 300 -->
      <g transform="translate(1013.357536 214.404375) scale(0.2 -0.2)">
       <defs>
        <path id="TimesNewRomanPSMT-33" d="M 325 3431 
Q 506 3859 782 4092 
Q 1059 4325 1472 4325 
Q 1981 4325 2253 3994 
Q 2459 3747 2459 3466 
Q 2459 3003 1878 2509 
Q 2269 2356 2469 2072 
Q 2669 1788 2669 1403 
Q 2669 853 2319 450 
Q 1863 -75 997 -75 
Q 569 -75 414 31 
Q 259 138 259 259 
Q 259 350 332 419 
Q 406 488 509 488 
Q 588 488 669 463 
Q 722 447 909 348 
Q 1097 250 1169 231 
Q 1284 197 1416 197 
Q 1734 197 1970 444 
Q 2206 691 2206 1028 
Q 2206 1275 2097 1509 
Q 2016 1684 1919 1775 
Q 1784 1900 1550 2001 
Q 1316 2103 1072 2103 
L 972 2103 
L 972 2197 
Q 1219 2228 1467 2375 
Q 1716 2522 1828 2728 
Q 1941 2934 1941 3181 
Q 1941 3503 1739 3701 
Q 1538 3900 1238 3900 
Q 753 3900 428 3381 
L 325 3431 
z
" transform="scale(0.015625)"/>
       </defs>
       <use xlink:href="#TimesNewRomanPSMT-33"/>
       <use xlink:href="#TimesNewRomanPSMT-30" x="50"/>
       <use xlink:href="#TimesNewRomanPSMT-30" x="100"/>
      </g>
     </g>
    </g>
   </g>
   <g id="matplotlib.axis_2">
    <g id="ytick_1">
     <g id="line2d_8">
      <defs>
       <path id="maf4ffd3c74" d="M 0 0 
L -3.5 0 
" style="stroke: #000000; stroke-width: 0.8"/>
      </defs>
      <g>
       <use xlink:href="#maf4ffd3c74" x="61.6375" y="191.344017" style="stroke: #000000; stroke-width: 0.8"/>
      </g>
     </g>
     <g id="text_8">
      <!-- 0.0 -->
      <g transform="translate(29.6375 198.287767) scale(0.2 -0.2)">
       <defs>
        <path id="TimesNewRomanPSMT-2e" d="M 800 606 
Q 947 606 1047 504 
Q 1147 403 1147 259 
Q 1147 116 1045 14 
Q 944 -88 800 -88 
Q 656 -88 554 14 
Q 453 116 453 259 
Q 453 406 554 506 
Q 656 606 800 606 
z
" transform="scale(0.015625)"/>
       </defs>
       <use xlink:href="#TimesNewRomanPSMT-30"/>
       <use xlink:href="#TimesNewRomanPSMT-2e" x="50"/>
       <use xlink:href="#TimesNewRomanPSMT-30" x="75"/>
      </g>
     </g>
    </g>
    <g id="ytick_2">
     <g id="line2d_9">
      <g>
       <use xlink:href="#maf4ffd3c74" x="61.6375" y="142.518207" style="stroke: #000000; stroke-width: 0.8"/>
      </g>
     </g>
     <g id="text_9">
      <!-- 1.0 -->
      <g transform="translate(29.6375 149.461957) scale(0.2 -0.2)">
       <use xlink:href="#TimesNewRomanPSMT-31"/>
       <use xlink:href="#TimesNewRomanPSMT-2e" x="50"/>
       <use xlink:href="#TimesNewRomanPSMT-30" x="75"/>
      </g>
     </g>
    </g>
    <g id="ytick_3">
     <g id="line2d_10">
      <g>
       <use xlink:href="#maf4ffd3c74" x="61.6375" y="93.692396" style="stroke: #000000; stroke-width: 0.8"/>
      </g>
     </g>
     <g id="text_10">
      <!-- 2.0 -->
      <g transform="translate(29.6375 100.636146) scale(0.2 -0.2)">
       <use xlink:href="#TimesNewRomanPSMT-32"/>
       <use xlink:href="#TimesNewRomanPSMT-2e" x="50"/>
       <use xlink:href="#TimesNewRomanPSMT-30" x="75"/>
      </g>
     </g>
    </g>
    <g id="ytick_4">
     <g id="line2d_11">
      <g>
       <use xlink:href="#maf4ffd3c74" x="61.6375" y="44.866585" style="stroke: #000000; stroke-width: 0.8"/>
      </g>
     </g>
     <g id="text_11">
      <!-- 3.0 -->
      <g transform="translate(29.6375 51.810335) scale(0.2 -0.2)">
       <use xlink:href="#TimesNewRomanPSMT-33"/>
       <use xlink:href="#TimesNewRomanPSMT-2e" x="50"/>
       <use xlink:href="#TimesNewRomanPSMT-30" x="75"/>
      </g>
     </g>
    </g>
    <g id="text_12">
     <!-- CPU使用率 -->
     <g transform="translate(23.059375 156.288125) rotate(-90) scale(0.2 -0.2)">
      <defs>
       <path id="SimSun-43" d="M 1725 50 
Q 1025 50 612 575 
Q 200 1100 200 2225 
Q 200 3175 637 3800 
Q 1075 4425 1825 4425 
Q 2000 4425 2175 4375 
Q 2350 4300 2475 4300 
Q 2575 4300 2637 4325 
Q 2700 4350 2750 4425 
L 2975 3325 
L 2825 3275 
Q 2675 3750 2425 4000 
Q 2175 4250 1775 4250 
Q 1250 4250 962 3675 
Q 675 3100 675 2250 
Q 675 1325 925 800 
Q 1175 275 1750 275 
Q 2150 275 2437 562 
Q 2725 850 2825 1325 
L 2975 1250 
Q 2850 725 2512 387 
Q 2175 50 1725 50 
z
" transform="scale(0.015625)"/>
       <path id="SimSun-50" d="M 950 2100 
L 950 450 
Q 950 350 1012 300 
Q 1075 250 1175 250 
L 1350 250 
L 1350 100 
L 150 100 
L 150 250 
L 325 250 
Q 450 250 500 300 
Q 550 350 550 450 
L 550 4025 
Q 550 4125 500 4175 
Q 450 4225 325 4225 
L 175 4225 
L 175 4375 
L 1650 4375 
Q 2275 4375 2612 4062 
Q 2950 3750 2950 3275 
Q 2950 2700 2587 2400 
Q 2225 2100 1725 2100 
L 950 2100 
z
M 1575 2250 
Q 1950 2250 2237 2475 
Q 2525 2700 2525 3250 
Q 2525 3750 2287 3987 
Q 2050 4225 1525 4225 
L 1175 4225 
Q 1075 4225 1012 4175 
Q 950 4125 950 4025 
L 950 2250 
L 1575 2250 
z
" transform="scale(0.015625)"/>
       <path id="SimSun-55" d="M 1625 250 
Q 2000 250 2262 500 
Q 2525 750 2525 1125 
L 2525 4025 
Q 2525 4125 2475 4175 
Q 2425 4225 2300 4225 
L 2150 4225 
L 2150 4375 
L 3050 4375 
L 3050 4225 
L 2900 4225 
Q 2800 4225 2737 4175 
Q 2675 4125 2675 4025 
L 2675 1125 
Q 2675 625 2337 337 
Q 2000 50 1575 50 
Q 1125 50 787 300 
Q 450 550 450 1100 
L 450 4025 
Q 450 4125 400 4175 
Q 350 4225 225 4225 
L 100 4225 
L 100 4375 
L 1200 4375 
L 1200 4225 
L 1075 4225 
Q 975 4225 912 4175 
Q 850 4125 850 4025 
L 850 1100 
Q 850 600 1062 425 
Q 1275 250 1625 250 
z
" transform="scale(0.015625)"/>
       <path id="SimSun-4f7f" d="M 2875 3150 
L 2875 2100 
L 3825 2100 
Q 3850 2825 3850 3150 
L 2875 3150 
z
M 4175 3150 
Q 4175 2800 4150 2100 
L 5150 2100 
L 5150 3150 
L 4175 3150 
z
M 5475 3100 
L 5475 2425 
Q 5475 2100 5500 1800 
L 5150 1675 
L 5150 1950 
L 4150 1950 
Q 4125 1175 3875 600 
Q 4275 275 4875 75 
Q 5475 -125 6075 -150 
L 6075 -250 
Q 5700 -300 5600 -575 
Q 4525 -325 3725 350 
Q 3425 25 2925 -225 
Q 2425 -475 1875 -650 
L 1825 -550 
Q 2400 -325 2850 -25 
Q 3300 275 3500 575 
Q 3200 925 2825 1650 
L 2900 1700 
Q 3325 1100 3625 825 
Q 3800 1300 3825 1950 
L 2875 1950 
L 2875 1825 
L 2525 1675 
Q 2550 2075 2550 2562 
Q 2550 3050 2525 3500 
L 2875 3300 
L 3850 3300 
L 3850 4025 
L 2975 4025 
Q 2650 4025 2375 3950 
L 2150 4175 
L 3850 4175 
L 3850 4525 
Q 3850 4775 3825 5225 
L 4350 5000 
L 4175 4825 
L 4175 4175 
L 5300 4175 
L 5600 4475 
L 6050 4025 
L 4175 4025 
L 4175 3300 
L 5100 3300 
L 5275 3525 
L 5650 3225 
L 5475 3100 
z
M 1675 3175 
L 1675 -450 
L 1325 -625 
Q 1350 -75 1350 350 
L 1350 3200 
Q 900 2475 350 1900 
L 275 1950 
Q 700 2525 1112 3400 
Q 1525 4275 1800 5250 
L 2325 4925 
L 2125 4800 
Q 1725 3925 1500 3525 
L 1875 3325 
L 1675 3175 
z
" transform="scale(0.015625)"/>
       <path id="SimSun-7528" d="M 3400 3150 
L 3400 1825 
L 5075 1825 
L 5075 3150 
L 3400 3150 
z
M 4075 100 
Q 4725 50 4900 62 
Q 5075 75 5075 400 
L 5075 1675 
L 3400 1675 
Q 3400 75 3425 -225 
L 3050 -400 
Q 3075 1025 3075 1675 
L 1425 1675 
Q 1250 350 375 -600 
L 300 -550 
Q 775 225 950 1025 
Q 1125 1825 1125 3225 
Q 1125 4625 1100 5075 
L 1475 4825 
L 5050 4825 
L 5225 5100 
L 5625 4800 
L 5425 4600 
L 5425 225 
Q 5450 -400 4875 -575 
Q 4825 -150 4075 -25 
L 4075 100 
z
M 1475 4675 
L 1475 3300 
L 3075 3300 
L 3075 4675 
L 1475 4675 
z
M 3400 4675 
L 3400 3300 
L 5075 3300 
L 5075 4675 
L 3400 4675 
z
M 1475 3150 
Q 1450 2100 1425 1825 
L 3075 1825 
L 3075 3150 
L 1475 3150 
z
" transform="scale(0.015625)"/>
       <path id="SimSun-7387" d="M 875 3725 
L 925 3800 
Q 1375 3650 1550 3525 
Q 1725 3400 1725 3250 
Q 1725 3175 1662 3025 
Q 1600 2875 1550 2875 
Q 1500 2875 1425 3050 
Q 1275 3325 875 3725 
z
M 550 1850 
Q 875 1925 2000 2575 
L 2050 2500 
Q 1675 2225 1337 1937 
Q 1000 1650 875 1425 
L 550 1850 
z
M 5200 3450 
Q 4800 3150 4275 2800 
L 4225 2875 
Q 4775 3400 5050 3925 
L 5450 3525 
L 5200 3450 
z
M 4325 2500 
L 4350 2575 
Q 5225 2350 5375 2212 
Q 5525 2075 5525 1900 
Q 5525 1775 5487 1662 
Q 5450 1550 5400 1550 
Q 5325 1550 5200 1800 
Q 4975 2150 4325 2500 
z
M 3150 3900 
Q 2500 3300 2300 3150 
Q 2800 3150 3400 3175 
Q 3700 3500 3850 3825 
L 4250 3450 
Q 4050 3400 3450 2825 
Q 2850 2250 2475 1950 
Q 3150 1975 3850 2000 
Q 3750 2175 3550 2450 
L 3600 2500 
Q 4050 2250 4200 2100 
Q 4350 1950 4350 1850 
Q 4350 1775 4250 1625 
Q 4150 1475 4100 1475 
Q 4075 1475 4050 1550 
Q 4000 1700 3900 1900 
Q 3650 1875 3075 1800 
L 3500 1550 
L 3325 1425 
L 3325 975 
L 5325 975 
L 5650 1300 
L 6100 825 
L 3325 825 
Q 3325 -275 3350 -525 
L 2975 -650 
Q 3000 0 3000 825 
L 1125 825 
Q 800 825 525 750 
L 300 975 
L 3000 975 
L 3000 1775 
Q 2450 1700 2200 1525 
L 1950 1950 
Q 2275 1950 2675 2350 
Q 3075 2750 3325 3050 
Q 2400 2950 2150 2775 
L 1950 3175 
Q 2150 3150 2475 3575 
Q 2800 4000 2900 4225 
L 1450 4225 
Q 1125 4225 850 4150 
L 625 4375 
L 3100 4375 
Q 3050 4800 2675 5200 
L 2725 5250 
Q 3225 5050 3337 4912 
Q 3450 4775 3450 4700 
Q 3450 4550 3250 4375 
L 5025 4375 
L 5350 4675 
L 5775 4225 
L 3050 4225 
L 3375 3950 
L 3150 3900 
z
" transform="scale(0.015625)"/>
      </defs>
      <use xlink:href="#SimSun-43"/>
      <use xlink:href="#SimSun-50" x="50"/>
      <use xlink:href="#SimSun-55" x="100"/>
      <use xlink:href="#SimSun-4f7f" x="150"/>
      <use xlink:href="#SimSun-7528" x="250"/>
      <use xlink:href="#SimSun-7387" x="350"/>
     </g>
    </g>
   </g>
   <g id="line2d_12">
    <path d="M 105.768031 131.874177 
L 108.84333 136.063434 
L 111.918628 138.61214 
L 114.993926 137.850459 
L 118.069225 136.795821 
L 121.144523 142.625624 
L 124.219821 140.487053 
L 127.29512 140.604237 
L 130.370418 144.061102 
L 133.445716 145.467286 
L 136.521015 143.826737 
L 139.596313 145.525878 
L 142.671612 169.401698 
L 145.74691 139.520299 
L 148.822208 139.285937 
L 151.897507 140.223391 
L 154.972805 141.512397 
L 158.048103 141.658869 
L 161.123402 144.441943 
L 164.1987 159.519355 
L 167.273998 162.478195 
L 170.349297 165.993655 
L 173.424595 170.095023 
L 176.499893 171.305906 
L 179.575192 168.903673 
L 182.65049 170.309857 
L 185.725788 171.384026 
L 188.801087 173.376118 
L 191.876385 172.946452 
L 194.951683 174.567467 
L 198.026982 175.719755 
L 201.10228 178.082927 
L 204.177579 179.664881 
L 207.252877 184.459583 
L 210.328175 178.102457 
L 213.403474 184.625589 
L 216.478772 177.262651 
L 219.55407 183.912731 
L 222.629369 176.852516 
L 225.704667 180.748817 
L 228.779965 173.180817 
L 231.855264 174.938547 
L 234.930562 174.518642 
L 238.00586 175.436568 
L 241.081159 175.553749 
L 244.156457 176.452145 
L 247.231755 176.325197 
L 250.307054 177.184531 
L 253.382352 177.14547 
L 256.45765 177.243123 
L 259.532949 175.10455 
L 262.608247 176.618154 
L 265.683546 175.85647 
L 268.758844 177.936451 
L 271.834142 177.448191 
L 274.909441 178.405178 
L 277.984739 177.614197 
L 281.060037 181.901105 
L 284.135336 182.721381 
L 287.210634 184.479105 
L 290.285932 178.27823 
L 293.361231 179.176627 
L 296.436529 171.481676 
L 299.511827 178.317289 
L 302.587126 181.012479 
L 308.737722 181.998755 
L 311.813021 181.451909 
L 314.888319 180.328912 
L 317.963617 181.559326 
L 321.038916 180.201964 
L 324.114214 176.920872 
L 327.189513 179.274277 
L 330.264811 184.938074 
L 333.340109 182.936215 
L 336.415408 184.576761 
L 339.490706 185.729049 
L 342.566004 186.041534 
L 345.641303 185.973178 
L 348.716601 185.533749 
L 351.791899 179.225452 
L 354.867198 184.108031 
L 357.942496 179.489108 
L 361.017794 175.93459 
L 364.093093 178.27823 
L 367.168391 177.887623 
L 370.243689 179.391458 
L 373.318988 177.63373 
L 376.394286 174.489347 
L 379.469584 175.563516 
L 382.544883 175.368212 
L 385.620181 175.329151 
L 388.69548 175.817409 
L 391.770778 174.118271 
L 394.846076 173.317528 
L 397.921375 172.848801 
L 400.996673 171.69651 
L 404.071971 171.520737 
L 407.14727 169.860658 
L 410.222568 158.855321 
L 413.297866 158.708843 
L 416.373165 171.67698 
L 419.448463 170.524691 
L 422.523761 170.680934 
L 425.59906 159.919726 
L 428.674358 155.906245 
L 431.749656 155.515638 
L 434.824955 157.039003 
L 437.900253 147.781629 
L 440.975551 136.913005 
L 444.05085 139.432415 
L 447.126148 140.526115 
L 450.201447 142.869752 
L 453.276745 143.494722 
L 456.352043 148.025758 
L 459.427342 148.846031 
L 462.50264 145.174332 
L 465.577938 150.916246 
L 468.653237 146.385212 
L 471.728535 147.557031 
L 474.803833 139.7449 
L 477.879132 128.358723 
L 480.95443 115.029277 
L 484.029728 107.851879 
L 487.105027 73.019551 
L 490.180325 104.922333 
L 493.255623 112.783289 
L 496.330922 117.568215 
L 499.40622 102.481039 
L 502.481518 106.142977 
L 505.556817 96.036039 
L 508.632115 106.191805 
L 511.707414 92.862359 
L 514.782712 76.642422 
L 517.85801 68.8303 
L 520.933309 75.099526 
L 524.008607 83.829587 
L 527.083905 83.009305 
L 530.159204 85.77285 
L 533.234502 92.823303 
L 536.3098 67.248337 
L 539.385099 88.048138 
L 542.460397 80.665673 
L 545.535695 81.075808 
L 548.610994 84.181133 
L 551.686292 77.911894 
L 554.76159 79.142311 
L 557.836889 88.653574 
L 560.912187 97.305506 
L 563.987485 92.862359 
L 567.062784 81.144164 
L 570.138082 74.689391 
L 573.213381 73.166029 
L 576.288679 74.689391 
L 579.363977 78.614986 
L 582.439276 77.853305 
L 585.514574 151.15061 
L 588.589872 74.337845 
L 591.665171 73.517575 
L 594.740469 83.419452 
L 597.815767 91.153451 
L 600.891066 86.466176 
L 603.966364 90.040224 
L 607.041662 111.12321 
L 610.116961 107.803057 
L 613.192259 105.898848 
L 616.267557 105.410591 
L 619.342856 109.560786 
L 622.418154 107.265971 
L 625.493452 100.625665 
L 628.568751 81.837489 
L 631.644049 85.059992 
L 634.719348 98.145309 
L 637.794646 107.900707 
L 640.869944 105.508241 
L 643.945243 106.142977 
L 647.020541 99.649144 
L 650.095839 116.445222 
L 653.171138 117.812344 
L 656.246436 116.49405 
L 659.321734 105.068812 
L 662.397033 87.315746 
L 665.472331 96.133684 
L 668.547629 110.488474 
L 671.622928 105.068812 
L 674.698226 108.193664 
L 677.773524 114.492191 
L 680.848823 113.222719 
L 683.924121 112.490332 
L 686.999419 114.19924 
L 690.074718 116.933479 
L 693.150016 115.273406 
L 696.225315 104.824683 
L 699.300613 91.32923 
L 702.375911 94.317365 
L 705.45121 93.204138 
L 708.526508 94.493138 
L 711.601806 93.145549 
L 714.677105 87.462224 
L 717.752403 84.942814 
L 720.827701 79.493845 
L 723.903 83.946765 
L 726.978298 74.455024 
L 730.053596 77.384569 
L 733.128895 78.966532 
L 736.204193 75.216716 
L 739.279491 85.587316 
L 742.35479 93.379917 
L 745.430088 107.25621 
L 748.505386 110.390823 
L 751.580685 105.703548 
L 754.655983 99.199947 
L 757.731282 106.03556 
L 760.80658 116.933479 
L 763.881878 112.099725 
L 766.957177 113.808633 
L 770.032475 107.607756 
L 773.107773 108.681922 
L 776.183072 90.450359 
L 779.25837 99.014407 
L 782.333668 101.162745 
L 785.408967 103.89699 
L 788.484265 102.383394 
L 791.559563 108.242486 
L 794.634862 104.434075 
L 797.71016 107.851879 
L 800.785458 109.316658 
L 803.860757 105.801198 
L 806.936055 111.172038 
L 810.011353 107.998357 
L 813.086652 109.36548 
L 816.16195 108.828394 
L 819.237249 90.499193 
L 822.312547 88.575451 
L 825.387845 79.552446 
L 828.463144 85.587316 
L 831.538442 70.763797 
L 834.61374 68.74241 
L 837.689039 43.284634 
L 840.764337 46.49737 
L 843.839635 65.705441 
L 846.914934 60.442019 
L 849.990232 79.025121 
L 853.06553 66.95538 
L 856.140829 60.334607 
L 859.216127 77.911894 
L 862.291425 76.915845 
L 865.366724 82.59917 
L 868.442022 86.466176 
L 871.51732 84.415489 
L 874.592619 84.239722 
L 877.667917 89.044175 
L 880.743216 80.372716 
L 883.818514 76.915845 
L 886.893812 77.091624 
L 889.969111 72.51176 
L 893.044409 63.72311 
L 896.119707 62.766129 
L 899.195006 83.185084 
L 902.270304 77.736127 
L 905.345602 83.360862 
L 908.420901 87.930948 
L 911.496199 84.474078 
L 914.571497 89.512911 
L 917.646796 70.705208 
L 920.722094 91.114396 
L 923.797392 86.641954 
L 926.872691 89.25901 
L 929.947989 90.76285 
L 933.023287 91.837021 
L 936.098586 99.697972 
L 942.249183 98.037892 
L 945.324481 93.643573 
L 948.399779 93.399439 
L 951.475078 103.164603 
L 954.550376 104.824683 
L 957.625674 113.652387 
L 960.700973 113.964872 
L 963.776271 113.73051 
L 966.851569 112.871173 
L 969.926868 117.91 
L 973.002166 119.120878 
L 976.077464 115.996025 
L 982.228061 129.901619 
L 985.303359 128.261067 
L 988.378658 122.441031 
L 988.378658 122.441031 
" clip-path="url(#pa16c441045)" style="fill: none; stroke: #1f77b4; stroke-width: 1.5; stroke-linecap: square"/>
   </g>
   <g id="line2d_13">
    <path d="M 548.610994 72.347226 
L 551.686292 80.569134 
L 554.76159 80.335511 
L 557.836889 82.352486 
L 560.912187 85.536282 
L 563.987485 85.774108 
L 567.062784 84.4731 
L 570.138082 83.651549 
L 573.213381 81.000712 
L 576.288679 80.403856 
L 579.363977 69.964795 
L 582.439276 76.999963 
L 585.514574 131.266466 
L 588.589872 71.287955 
L 591.665171 67.754557 
L 594.740469 66.445528 
L 597.815767 64.508167 
L 600.891066 63.86832 
L 603.966364 62.591165 
L 607.041662 57.973456 
L 610.116961 57.99583 
L 613.192259 64.95681 
L 616.267557 64.88069 
L 619.342856 66.667731 
L 622.418154 65.19772 
L 625.493452 71.053983 
L 628.568751 69.866347 
L 631.644049 71.057173 
L 634.719348 67.791854 
L 637.794646 69.181752 
L 640.869944 67.782763 
L 643.945243 65.851862 
L 647.020541 63.441736 
L 650.095839 68.872847 
L 653.171138 68.974811 
L 656.246436 74.901711 
L 659.321734 68.384566 
L 662.397033 67.539396 
L 665.472331 66.092108 
L 668.547629 59.577373 
L 671.622928 52.572856 
L 674.698226 53.213808 
L 677.773524 53.40018 
L 680.848823 54.436565 
L 683.924121 53.809314 
L 686.999419 52.482719 
L 690.074718 48.467943 
L 693.150016 51.007027 
L 696.225315 36.534716 
L 699.300613 42.525048 
L 702.375911 50.131009 
L 705.45121 52.448553 
L 708.526508 52.54061 
L 711.601806 59.197318 
L 714.677105 50.218374 
L 717.752403 53.842689 
L 720.827701 48.516649 
L 723.903 60.392579 
L 726.978298 59.935496 
L 730.053596 72.083395 
L 733.128895 60.272875 
L 736.204193 60.135314 
L 739.279491 55.072221 
L 742.35479 54.834023 
L 745.430088 54.807179 
L 748.505386 53.426116 
L 751.580685 50.562109 
L 754.655983 50.175791 
L 757.731282 49.944474 
L 760.80658 46.88023 
L 763.881878 47.617814 
L 766.957177 47.992665 
L 770.032475 54.078337 
L 773.107773 54.948163 
L 776.183072 59.483931 
L 779.25837 58.757976 
L 782.333668 64.502882 
L 785.408967 64.954691 
L 788.484265 56.740361 
L 791.559563 56.532465 
L 794.634862 52.156458 
L 797.71016 50.75117 
L 800.785458 48.965979 
L 803.860757 50.595449 
L 806.936055 51.327073 
L 810.011353 58.361519 
L 813.086652 59.139125 
L 816.16195 57.630838 
L 819.237249 56.59535 
L 822.312547 52.779425 
L 825.387845 52.028523 
L 828.463144 50.276113 
L 831.538442 49.895744 
L 834.61374 49.389874 
L 837.689039 47.447623 
L 840.764337 53.657364 
L 843.839635 51.031171 
L 846.914934 55.342291 
L 849.990232 57.109963 
L 853.06553 54.584743 
L 856.140829 54.36169 
L 859.216127 55.557952 
L 862.291425 57.64135 
L 865.366724 53.669855 
L 868.442022 49.006548 
L 871.51732 47.445504 
L 874.592619 45.746992 
L 877.667917 49.191069 
L 880.743216 54.664181 
L 883.818514 59.652178 
L 886.893812 61.968605 
L 889.969111 61.352669 
L 893.044409 58.291115 
L 896.119707 60.60533 
L 899.195006 63.569321 
L 902.270304 67.684338 
L 905.345602 72.084501 
L 908.420901 78.101561 
L 911.496199 92.399944 
L 914.571497 92.762759 
L 917.646796 86.786093 
L 920.722094 70.252793 
L 923.797392 72.15068 
L 926.872691 64.298431 
L 929.947989 77.499652 
L 933.023287 76.094365 
L 936.098586 75.068503 
L 939.173884 74.817733 
L 942.249183 64.882843 
L 945.324481 65.993637 
L 948.399779 56.996184 
L 951.475078 70.720073 
L 954.550376 65.672684 
L 957.625674 75.158523 
L 960.700973 89.968842 
L 963.776271 99.096354 
L 966.851569 96.048972 
L 969.926868 96.456581 
L 973.002166 102.658389 
L 976.077464 98.27868 
L 979.152763 109.759236 
L 982.228061 99.104357 
L 985.303359 118.43981 
L 988.378658 115.757932 
L 988.378658 115.757932 
" clip-path="url(#pa16c441045)" style="fill: none; stroke: #ff7f0e; stroke-width: 1.5; stroke-linecap: square"/>
   </g>
   <g id="line2d_14">
    <path d="M 548.610994 193.516875 
L 548.610994 29.059375 
" clip-path="url(#pa16c441045)" style="fill: none; stroke-dasharray: 7.4,3.2; stroke-dashoffset: 0; stroke: #0000ff; stroke-width: 2"/>
   </g>
   <g id="patch_3">
    <path d="M 61.6375 193.516875 
L 61.6375 29.059375 
" style="fill: none; stroke: #000000; stroke-width: 0.8; stroke-linejoin: miter; stroke-linecap: square"/>
   </g>
   <g id="patch_4">
    <path d="M 1032.509189 193.516875 
L 1032.509189 29.059375 
" style="fill: none; stroke: #000000; stroke-width: 0.8; stroke-linejoin: miter; stroke-linecap: square"/>
   </g>
   <g id="patch_5">
    <path d="M 61.6375 193.516875 
L 1032.509189 193.516875 
" style="fill: none; stroke: #000000; stroke-width: 0.8; stroke-linejoin: miter; stroke-linecap: square"/>
   </g>
   <g id="patch_6">
    <path d="M 61.6375 29.059375 
L 1032.509189 29.059375 
" style="fill: none; stroke: #000000; stroke-width: 0.8; stroke-linejoin: miter; stroke-linecap: square"/>
   </g>
   <g id="text_13">
    <!-- 云函数ID: 28 -->
    <g transform="translate(487.073345 23.059375) scale(0.2 -0.2)">
     <defs>
      <path id="SimSun-4e91" d="M 1200 4450 
L 4500 4450 
L 4850 4800 
L 5350 4300 
L 1975 4300 
Q 1700 4300 1425 4225 
L 1200 4450 
z
M 1600 275 
Q 2300 300 4725 450 
Q 4425 975 3850 1700 
L 3925 1775 
Q 5200 725 5287 500 
Q 5375 275 5375 175 
Q 5375 0 5250 -162 
Q 5125 -325 5075 -325 
Q 5025 -325 4975 -200 
Q 4875 50 4775 300 
Q 1650 -25 1300 -300 
L 975 300 
Q 1225 350 1462 550 
Q 1700 750 2150 1462 
Q 2600 2175 2725 2600 
L 1250 2600 
Q 925 2600 650 2525 
L 425 2750 
L 5025 2750 
L 5450 3175 
L 6025 2600 
L 3250 2600 
Q 3000 2025 2500 1375 
Q 2000 725 1600 275 
z
" transform="scale(0.015625)"/>
      <path id="SimSun-51fd" d="M 3050 2275 
L 3050 3000 
Q 3050 3450 3025 3800 
L 3275 3625 
L 4450 4475 
L 1650 4475 
Q 1325 4475 1050 4400 
L 825 4625 
L 4450 4625 
L 4775 4875 
L 5150 4375 
Q 4875 4325 4550 4175 
Q 4225 4025 3400 3550 
L 3550 3450 
L 3375 3325 
L 3375 2400 
Q 4250 3225 4475 3600 
L 4875 3150 
L 4625 3125 
Q 3625 2425 3400 2275 
Q 4575 1675 4687 1487 
Q 4800 1300 4800 1150 
Q 4800 1025 4750 925 
Q 4700 825 4675 825 
Q 4575 825 4375 1150 
Q 4075 1600 3375 2150 
L 3375 725 
Q 3375 350 2875 150 
Q 2850 450 2200 650 
L 2200 750 
Q 2800 675 2925 700 
Q 3050 725 3050 850 
L 3050 2100 
Q 1850 1300 1625 1025 
L 1275 1400 
Q 1575 1475 2087 1725 
Q 2600 1975 3050 2275 
z
M 1700 3475 
L 1775 3550 
Q 2350 3200 2475 3025 
Q 2600 2850 2600 2775 
Q 2600 2650 2500 2525 
Q 2400 2400 2350 2400 
Q 2275 2400 2225 2575 
Q 2150 2875 1700 3475 
z
M 5150 0 
L 5150 2175 
Q 5150 2725 5125 3325 
L 5725 3050 
L 5500 2850 
L 5500 525 
Q 5500 100 5525 -400 
L 5150 -600 
L 5150 -150 
L 1250 -150 
L 1000 -375 
L 675 -50 
L 875 125 
L 875 2375 
Q 875 2800 850 3425 
L 1450 3150 
L 1225 2975 
L 1225 0 
L 5150 0 
z
" transform="scale(0.015625)"/>
      <path id="SimSun-6570" d="M 1875 1525 
Q 1675 1200 1500 900 
Q 1825 825 2275 725 
Q 2500 975 2725 1525 
L 1875 1525 
z
M 850 4900 
Q 1325 4600 1425 4450 
Q 1525 4300 1525 4225 
Q 1525 4100 1437 3975 
Q 1350 3850 1300 3850 
Q 1225 3850 1150 4100 
Q 1050 4450 775 4850 
L 850 4900 
z
M 3000 4975 
L 3450 4675 
Q 3250 4625 3100 4425 
Q 2925 4225 2525 3825 
L 2450 3875 
Q 2925 4625 3000 4975 
z
M 1875 5250 
L 2425 5000 
L 2225 4825 
L 2225 3675 
L 2850 3675 
L 3125 3950 
L 3550 3525 
L 2225 3525 
L 2225 3300 
Q 2800 3175 2937 3062 
Q 3075 2950 3075 2775 
Q 3075 2700 3050 2587 
Q 3025 2475 2975 2475 
Q 2925 2475 2800 2650 
Q 2600 2925 2225 3175 
L 2225 2400 
L 1925 2200 
L 2275 2050 
Q 2150 2000 1950 1675 
L 2725 1675 
L 2900 1900 
L 3275 1575 
L 3050 1450 
Q 2800 875 2600 650 
Q 3000 550 3137 437 
Q 3275 325 3275 150 
Q 3275 -25 3200 -25 
Q 3125 -25 3025 75 
Q 2750 275 2400 425 
Q 1525 -275 325 -500 
L 300 -425 
Q 1450 -50 2100 550 
Q 1600 725 1125 800 
Q 1225 950 1525 1525 
L 1200 1525 
Q 875 1525 600 1450 
L 375 1675 
L 1575 1675 
Q 1675 1925 1775 2275 
L 1900 2225 
L 1900 3250 
Q 1225 2475 350 2050 
L 300 2125 
Q 1225 2775 1700 3525 
L 1250 3525 
Q 925 3525 650 3450 
L 425 3675 
L 1900 3675 
Q 1900 4575 1875 5250 
z
M 3925 3525 
Q 4050 2075 4525 1100 
Q 4925 1950 5025 3525 
L 3925 3525 
z
M 4050 5250 
L 4625 4925 
Q 4425 4850 4325 4625 
Q 4225 4400 3950 3675 
L 5375 3675 
L 5675 3975 
L 6125 3525 
L 5400 3525 
Q 5250 1675 4750 775 
Q 5325 75 6100 -100 
L 6100 -200 
Q 5625 -275 5600 -500 
Q 4950 -50 4525 525 
Q 3700 -275 2550 -650 
L 2500 -575 
Q 3650 -50 4325 800 
Q 3850 1975 3825 3375 
Q 3575 2725 3100 2150 
L 3025 2200 
Q 3625 3200 4050 5250 
z
" transform="scale(0.015625)"/>
      <path id="SimSun-49" d="M 600 4225 
L 600 4375 
L 2600 4375 
L 2600 4225 
L 2025 4225 
Q 1925 4225 1862 4175 
Q 1800 4125 1800 4025 
L 1800 450 
Q 1800 350 1862 300 
Q 1925 250 2025 250 
L 2600 250 
L 2600 100 
L 600 100 
L 600 250 
L 1175 250 
Q 1300 250 1350 300 
Q 1400 350 1400 450 
L 1400 4025 
Q 1400 4125 1350 4175 
Q 1300 4225 1175 4225 
L 600 4225 
z
" transform="scale(0.015625)"/>
      <path id="SimSun-44" d="M 2500 2275 
Q 2500 3350 2175 3787 
Q 1850 4225 1275 4225 
Q 1100 4225 1012 4175 
Q 925 4125 925 4025 
L 925 450 
Q 925 350 1000 300 
Q 1075 250 1200 250 
Q 1750 250 2125 662 
Q 2500 1075 2500 2275 
z
M 525 4025 
Q 525 4125 475 4175 
Q 425 4225 300 4225 
L 150 4225 
L 150 4375 
L 1275 4375 
Q 2050 4375 2512 3875 
Q 2975 3375 2975 2325 
Q 2975 1175 2525 637 
Q 2075 100 1200 100 
L 125 100 
L 125 250 
L 300 250 
Q 425 250 475 300 
Q 525 350 525 450 
L 525 4025 
z
" transform="scale(0.015625)"/>
      <path id="SimSun-3a" d="M 1900 2725 
Q 1900 2575 1800 2475 
Q 1700 2375 1550 2375 
Q 1400 2375 1300 2475 
Q 1200 2575 1200 2725 
Q 1200 2875 1300 2975 
Q 1400 3075 1550 3075 
Q 1700 3075 1800 2975 
Q 1900 2875 1900 2725 
z
M 1900 375 
Q 1900 225 1800 125 
Q 1700 25 1550 25 
Q 1400 25 1300 125 
Q 1200 225 1200 375 
Q 1200 525 1300 625 
Q 1400 725 1550 725 
Q 1700 725 1800 625 
Q 1900 525 1900 375 
z
" transform="scale(0.015625)"/>
      <path id="SimSun-20" d="M 0 0 
Q 0 0 0 0 
z
" transform="scale(0.015625)"/>
      <path id="SimSun-32" d="M 2325 3325 
Q 2325 3775 2125 4012 
Q 1925 4250 1525 4250 
Q 1225 4250 1012 4087 
Q 800 3925 800 3675 
Q 800 3525 900 3425 
Q 975 3325 975 3225 
Q 975 3100 912 3037 
Q 850 2975 725 2975 
Q 575 2975 487 3062 
Q 400 3150 400 3350 
Q 400 3875 775 4150 
Q 1150 4425 1575 4425 
Q 2175 4425 2462 4125 
Q 2750 3825 2750 3375 
Q 2750 3075 2612 2775 
Q 2475 2475 2175 2200 
Q 1450 1500 1062 1062 
Q 675 625 600 475 
L 2075 475 
Q 2300 475 2450 650 
Q 2600 825 2650 1175 
L 2800 1175 
L 2650 100 
L 325 100 
L 325 425 
Q 450 650 737 1000 
Q 1025 1350 1500 1825 
Q 1925 2250 2125 2625 
Q 2325 3000 2325 3325 
z
" transform="scale(0.015625)"/>
      <path id="SimSun-38" d="M 625 1125 
Q 625 725 887 475 
Q 1150 225 1550 225 
Q 2025 225 2237 475 
Q 2450 725 2450 1100 
Q 2450 1425 2150 1725 
Q 1850 2025 1250 2275 
Q 950 2075 787 1775 
Q 625 1475 625 1125 
z
M 2825 1175 
Q 2825 700 2475 375 
Q 2125 50 1550 50 
Q 1025 50 650 375 
Q 275 700 275 1125 
Q 275 1550 487 1850 
Q 700 2150 1100 2375 
Q 750 2550 562 2812 
Q 375 3075 375 3400 
Q 375 3825 700 4125 
Q 1025 4425 1600 4425 
Q 2125 4425 2450 4125 
Q 2775 3825 2775 3400 
Q 2775 3100 2587 2837 
Q 2400 2575 2000 2375 
Q 2425 2125 2625 1825 
Q 2825 1525 2825 1175 
z
M 2425 3375 
Q 2425 3725 2225 3987 
Q 2025 4250 1600 4250 
Q 1125 4250 925 4000 
Q 725 3750 725 3475 
Q 725 3200 1012 2937 
Q 1300 2675 1825 2475 
Q 2125 2625 2275 2850 
Q 2425 3075 2425 3375 
z
" transform="scale(0.015625)"/>
     </defs>
     <use xlink:href="#SimSun-4e91"/>
     <use xlink:href="#SimSun-51fd" x="100"/>
     <use xlink:href="#SimSun-6570" x="200"/>
     <use xlink:href="#SimSun-49" x="300"/>
     <use xlink:href="#SimSun-44" x="350"/>
     <use xlink:href="#SimSun-3a" x="400"/>
     <use xlink:href="#SimSun-20" x="450"/>
     <use xlink:href="#SimSun-32" x="500"/>
     <use xlink:href="#SimSun-38" x="550"/>
    </g>
   </g>
   <g id="legend_1">
    <g id="patch_7">
     <path d="M 75.6375 101.934375 
L 199.6375 101.934375 
Q 203.6375 101.934375 203.6375 97.934375 
L 203.6375 43.059375 
Q 203.6375 39.059375 199.6375 39.059375 
L 75.6375 39.059375 
Q 71.6375 39.059375 71.6375 43.059375 
L 71.6375 97.934375 
Q 71.6375 101.934375 75.6375 101.934375 
z
" style="fill: #ffffff; opacity: 0.8; stroke: #cccccc; stroke-linejoin: miter"/>
    </g>
    <g id="line2d_15">
     <path d="M 79.6375 55.996875 
L 99.6375 55.996875 
L 119.6375 55.996875 
" style="fill: none; stroke: #1f77b4; stroke-width: 1.5; stroke-linecap: square"/>
    </g>
    <g id="text_14">
     <!-- 真实值 -->
     <g transform="translate(135.6375 62.996875) scale(0.2 -0.2)">
      <defs>
       <path id="SimSun-771f" d="M 2050 3450 
L 2050 2900 
L 4300 2900 
L 4300 3450 
L 2050 3450 
z
M 2050 2750 
L 2050 2225 
L 4300 2225 
L 4300 2750 
L 2050 2750 
z
M 2050 2075 
L 2050 1550 
L 4300 1550 
L 4300 2075 
L 2050 2075 
z
M 2050 1400 
L 2050 875 
L 4300 875 
L 4300 1400 
L 2050 1400 
z
M 2875 3600 
L 2925 4325 
L 1525 4325 
Q 1200 4325 925 4250 
L 700 4475 
L 2950 4475 
Q 2975 4825 2975 5275 
L 3550 5025 
L 3375 4925 
L 3300 4475 
L 5000 4475 
L 5325 4825 
L 5775 4325 
L 3275 4325 
L 3200 3600 
L 4275 3600 
L 4450 3875 
L 4850 3575 
L 4650 3375 
L 4650 875 
L 5300 875 
L 5675 1225 
L 6125 725 
L 1150 725 
Q 825 725 550 650 
L 325 875 
L 1700 875 
Q 1700 3200 1675 3775 
L 2050 3600 
L 2875 3600 
z
M 2425 725 
L 2825 350 
L 2575 300 
Q 1500 -425 800 -650 
L 775 -575 
Q 1950 125 2425 725 
z
M 3800 700 
Q 4575 375 4962 200 
Q 5350 25 5400 -112 
Q 5450 -250 5450 -325 
Q 5450 -400 5400 -525 
Q 5350 -650 5325 -650 
Q 5250 -650 5100 -450 
Q 4875 -150 3750 625 
L 3800 700 
z
" transform="scale(0.015625)"/>
       <path id="SimSun-5b9e" d="M 1950 3625 
Q 2575 3400 2700 3250 
Q 2825 3100 2825 2975 
Q 2825 2850 2750 2700 
Q 2675 2550 2625 2550 
Q 2550 2550 2450 2800 
Q 2275 3175 1900 3550 
L 1950 3625 
z
M 3575 1325 
Q 3500 1100 3425 925 
Q 4650 550 5087 325 
Q 5525 100 5512 -225 
Q 5500 -550 5400 -550 
Q 5300 -550 5075 -300 
Q 4625 175 3375 800 
Q 3025 175 2300 -150 
Q 1575 -475 425 -625 
L 425 -525 
Q 1475 -325 2200 100 
Q 2925 525 3200 1325 
L 1225 1325 
Q 900 1325 625 1250 
L 400 1475 
L 3225 1475 
Q 3325 1950 3375 2575 
Q 3425 3200 3425 3700 
L 4050 3400 
L 3850 3225 
Q 3750 2300 3625 1475 
L 5175 1475 
L 5550 1850 
L 6075 1325 
L 3575 1325 
z
M 1275 2700 
Q 1975 2425 2100 2262 
Q 2225 2100 2225 1975 
Q 2225 1850 2150 1700 
Q 2075 1550 2025 1550 
Q 1950 1550 1850 1800 
Q 1675 2175 1225 2625 
L 1275 2700 
z
M 2750 5225 
L 2825 5275 
Q 3225 5100 3425 4925 
Q 3625 4750 3625 4600 
Q 3625 4450 3512 4300 
Q 3400 4150 3325 4150 
Q 3250 4150 3200 4400 
Q 3100 4775 2750 5225 
z
M 4975 3225 
L 5350 3925 
L 1175 3925 
Q 1225 3525 1125 3300 
Q 1025 3075 787 3100 
Q 550 3125 550 3200 
Q 550 3300 700 3475 
Q 975 3825 1050 4375 
L 1150 4375 
L 1175 4075 
L 5300 4075 
L 5575 4350 
L 6050 3800 
Q 5625 3825 5050 3175 
L 4975 3225 
z
" transform="scale(0.015625)"/>
       <path id="SimSun-503c" d="M 1525 650 
Q 1525 -225 1550 -525 
L 1175 -650 
Q 1200 250 1200 550 
L 1200 3025 
Q 750 2300 325 1850 
L 250 1900 
Q 725 2625 1100 3525 
Q 1475 4425 1675 5200 
L 2200 4875 
L 1950 4725 
Q 1550 3800 1425 3475 
L 1725 3300 
L 1525 3150 
L 1525 650 
z
M 2875 3225 
L 2875 2475 
L 4800 2475 
L 4800 3225 
L 2875 3225 
z
M 2875 2325 
L 2875 1575 
L 4800 1575 
L 4800 2325 
L 2875 2325 
z
M 2875 1425 
L 2875 675 
L 4800 675 
L 4800 1425 
L 2875 1425 
z
M 2875 525 
L 2875 -225 
L 4800 -225 
L 4800 525 
L 2875 525 
z
M 3550 4250 
Q 3575 4825 3550 5225 
L 4125 4950 
L 3925 4800 
L 3900 4250 
L 5025 4250 
L 5350 4575 
L 5825 4100 
L 3900 4100 
L 3875 3375 
L 4750 3375 
L 4975 3625 
L 5350 3300 
L 5125 3150 
L 5125 -225 
L 5350 -225 
L 5675 100 
L 6150 -375 
L 2450 -375 
Q 2125 -375 1850 -450 
L 1625 -225 
L 2550 -225 
L 2550 2550 
Q 2550 2850 2525 3575 
L 2875 3375 
L 3525 3375 
L 3550 4100 
L 2800 4100 
Q 2475 4100 2200 4025 
L 1975 4250 
L 3550 4250 
z
" transform="scale(0.015625)"/>
      </defs>
      <use xlink:href="#SimSun-771f"/>
      <use xlink:href="#SimSun-5b9e" x="100"/>
      <use xlink:href="#SimSun-503c" x="200"/>
     </g>
    </g>
    <g id="line2d_16">
     <path d="M 79.6375 84.35625 
L 99.6375 84.35625 
L 119.6375 84.35625 
" style="fill: none; stroke: #ff7f0e; stroke-width: 1.5; stroke-linecap: square"/>
    </g>
    <g id="text_15">
     <!-- 预测值 -->
     <g transform="translate(135.6375 91.35625) scale(0.2 -0.2)">
      <defs>
       <path id="SimSun-9884" d="M 475 4825 
L 2225 4825 
L 2425 5075 
L 2825 4675 
Q 2600 4625 2387 4412 
Q 2175 4200 1800 3750 
Q 2050 3575 2037 3400 
Q 2025 3225 1937 3150 
Q 1850 3075 1825 3075 
Q 1725 3075 1650 3300 
Q 1525 3600 1050 4100 
L 1100 4150 
Q 1475 3975 1700 3825 
L 2225 4675 
L 1300 4675 
Q 975 4675 700 4600 
L 475 4825 
z
M 725 100 
Q 1175 50 1362 37 
Q 1550 25 1550 275 
L 1550 2875 
L 1125 2875 
Q 800 2875 525 2800 
L 300 3025 
L 2525 3025 
L 2725 3275 
L 3150 2875 
Q 2800 2825 2275 2075 
L 2200 2125 
L 2550 2875 
L 1875 2875 
L 1875 150 
Q 1875 -400 1350 -500 
Q 1325 -175 725 0 
L 725 100 
z
M 3250 775 
Q 3275 1425 3275 2287 
Q 3275 3150 3250 3900 
L 3600 3700 
L 4050 3700 
Q 4175 4400 4200 4675 
L 3650 4675 
Q 3325 4675 3050 4600 
L 2825 4825 
L 5325 4825 
L 5675 5150 
L 6125 4675 
L 4675 4675 
Q 4500 4425 4175 3700 
L 5300 3700 
L 5475 3975 
L 5875 3675 
L 5675 3475 
L 5675 1950 
Q 5675 1525 5700 1075 
L 5350 875 
L 5350 3550 
L 3600 3550 
L 3600 1000 
L 3250 775 
z
M 4850 2875 
L 4625 2675 
Q 4625 1475 4475 937 
Q 4325 400 3900 50 
Q 3475 -300 2425 -625 
L 2400 -550 
Q 3500 -50 3837 400 
Q 4175 850 4237 1587 
Q 4300 2325 4275 3175 
L 4850 2875 
z
M 4650 950 
Q 5725 375 5875 212 
Q 6025 50 6025 -125 
Q 6025 -225 5962 -387 
Q 5900 -550 5850 -550 
Q 5800 -550 5750 -450 
Q 5625 -250 5437 0 
Q 5250 250 4600 875 
L 4650 950 
z
" transform="scale(0.015625)"/>
       <path id="SimSun-6d4b" d="M 1975 1000 
Q 2000 1475 2000 2925 
Q 2000 4375 1975 5000 
L 2350 4775 
L 3575 4775 
L 3775 4975 
L 4100 4650 
L 3900 4500 
L 3900 2350 
Q 3900 1850 3925 1350 
L 3600 1200 
L 3600 4625 
L 2325 4625 
L 2325 1150 
L 1975 1000 
z
M 2775 3975 
L 3300 3700 
L 3125 3525 
Q 3150 1825 2875 937 
Q 2600 50 1375 -600 
L 1325 -500 
Q 2200 100 2475 725 
Q 2750 1350 2775 2187 
Q 2800 3025 2775 3975 
z
M 3100 950 
Q 3825 450 3937 262 
Q 4050 75 4050 -25 
Q 4050 -150 3975 -262 
Q 3900 -375 3850 -375 
Q 3750 -375 3650 -75 
Q 3500 375 3050 875 
L 3100 950 
z
M 4475 825 
Q 4500 1200 4500 1700 
L 4500 3400 
Q 4500 3950 4475 4300 
L 5025 4025 
L 4825 3825 
L 4825 1700 
Q 4825 1325 4850 950 
L 4475 825 
z
M 5375 150 
L 5375 4050 
Q 5375 4750 5350 5125 
L 5875 4875 
L 5700 4700 
L 5700 75 
Q 5700 -200 5600 -350 
Q 5500 -500 5200 -600 
Q 5025 -225 4450 -50 
L 4450 50 
Q 5125 -50 5250 -37 
Q 5375 -25 5375 150 
z
M 1850 3500 
Q 1375 1525 1300 1225 
Q 1200 900 1212 450 
Q 1225 0 1250 -175 
Q 1250 -275 1125 -275 
Q 1025 -275 875 -225 
Q 725 -175 725 0 
Q 725 125 800 375 
Q 875 625 875 775 
Q 875 950 762 1050 
Q 650 1150 275 1250 
L 275 1350 
Q 725 1300 837 1312 
Q 950 1325 1087 1537 
Q 1225 1750 1750 3525 
L 1850 3500 
z
M 375 3775 
Q 1075 3350 1112 3100 
Q 1150 2850 1050 2775 
Q 950 2700 900 2700 
Q 800 2700 725 2975 
Q 600 3350 325 3700 
L 375 3775 
z
M 800 5100 
Q 1475 4725 1550 4512 
Q 1625 4300 1525 4187 
Q 1425 4075 1350 4075 
Q 1275 4075 1200 4300 
Q 1075 4650 750 5025 
L 800 5100 
z
" transform="scale(0.015625)"/>
      </defs>
      <use xlink:href="#SimSun-9884"/>
      <use xlink:href="#SimSun-6d4b" x="100"/>
      <use xlink:href="#SimSun-503c" x="200"/>
     </g>
    </g>
   </g>
  </g>
  <g id="axes_2">
   <g id="patch_8">
    <path d="M 61.6375 426.316875 
L 1032.509189 426.316875 
L 1032.509189 261.859375 
L 61.6375 261.859375 
z
" style="fill: #ffffff"/>
   </g>
   <g id="matplotlib.axis_3">
    <g id="xtick_8">
     <g id="line2d_17">
      <g>
       <use xlink:href="#m0b35345035" x="105.768031" y="426.316875" style="stroke: #000000; stroke-width: 0.8"/>
      </g>
     </g>
     <g id="text_16">
      <!-- 0 -->
      <g transform="translate(100.768031 447.204375) scale(0.2 -0.2)">
       <use xlink:href="#TimesNewRomanPSMT-30"/>
      </g>
     </g>
    </g>
    <g id="xtick_9">
     <g id="line2d_18">
      <g>
       <use xlink:href="#m0b35345035" x="259.532949" y="426.316875" style="stroke: #000000; stroke-width: 0.8"/>
      </g>
     </g>
     <g id="text_17">
      <!-- 50 -->
      <g transform="translate(249.532949 447.204375) scale(0.2 -0.2)">
       <use xlink:href="#TimesNewRomanPSMT-35"/>
       <use xlink:href="#TimesNewRomanPSMT-30" x="50"/>
      </g>
     </g>
    </g>
    <g id="xtick_10">
     <g id="line2d_19">
      <g>
       <use xlink:href="#m0b35345035" x="413.297866" y="426.316875" style="stroke: #000000; stroke-width: 0.8"/>
      </g>
     </g>
     <g id="text_18">
      <!-- 100 -->
      <g transform="translate(398.297866 447.204375) scale(0.2 -0.2)">
       <use xlink:href="#TimesNewRomanPSMT-31"/>
       <use xlink:href="#TimesNewRomanPSMT-30" x="50"/>
       <use xlink:href="#TimesNewRomanPSMT-30" x="100"/>
      </g>
     </g>
    </g>
    <g id="xtick_11">
     <g id="line2d_20">
      <g>
       <use xlink:href="#m0b35345035" x="567.062784" y="426.316875" style="stroke: #000000; stroke-width: 0.8"/>
      </g>
     </g>
     <g id="text_19">
      <!-- 150 -->
      <g transform="translate(552.062784 447.204375) scale(0.2 -0.2)">
       <use xlink:href="#TimesNewRomanPSMT-31"/>
       <use xlink:href="#TimesNewRomanPSMT-35" x="50"/>
       <use xlink:href="#TimesNewRomanPSMT-30" x="100"/>
      </g>
     </g>
    </g>
    <g id="xtick_12">
     <g id="line2d_21">
      <g>
       <use xlink:href="#m0b35345035" x="720.827701" y="426.316875" style="stroke: #000000; stroke-width: 0.8"/>
      </g>
     </g>
     <g id="text_20">
      <!-- 200 -->
      <g transform="translate(705.827701 447.204375) scale(0.2 -0.2)">
       <use xlink:href="#TimesNewRomanPSMT-32"/>
       <use xlink:href="#TimesNewRomanPSMT-30" x="50"/>
       <use xlink:href="#TimesNewRomanPSMT-30" x="100"/>
      </g>
     </g>
    </g>
    <g id="xtick_13">
     <g id="line2d_22">
      <g>
       <use xlink:href="#m0b35345035" x="874.592619" y="426.316875" style="stroke: #000000; stroke-width: 0.8"/>
      </g>
     </g>
     <g id="text_21">
      <!-- 250 -->
      <g transform="translate(859.592619 447.204375) scale(0.2 -0.2)">
       <use xlink:href="#TimesNewRomanPSMT-32"/>
       <use xlink:href="#TimesNewRomanPSMT-35" x="50"/>
       <use xlink:href="#TimesNewRomanPSMT-30" x="100"/>
      </g>
     </g>
    </g>
    <g id="xtick_14">
     <g id="line2d_23">
      <g>
       <use xlink:href="#m0b35345035" x="1028.357536" y="426.316875" style="stroke: #000000; stroke-width: 0.8"/>
      </g>
     </g>
     <g id="text_22">
      <!-- 300 -->
      <g transform="translate(1013.357536 447.204375) scale(0.2 -0.2)">
       <use xlink:href="#TimesNewRomanPSMT-33"/>
       <use xlink:href="#TimesNewRomanPSMT-30" x="50"/>
       <use xlink:href="#TimesNewRomanPSMT-30" x="100"/>
      </g>
     </g>
    </g>
   </g>
   <g id="matplotlib.axis_4">
    <g id="ytick_5">
     <g id="line2d_24">
      <g>
       <use xlink:href="#maf4ffd3c74" x="61.6375" y="371.547343" style="stroke: #000000; stroke-width: 0.8"/>
      </g>
     </g>
     <g id="text_23">
      <!-- 0.5 -->
      <g transform="translate(29.6375 378.491093) scale(0.2 -0.2)">
       <use xlink:href="#TimesNewRomanPSMT-30"/>
       <use xlink:href="#TimesNewRomanPSMT-2e" x="50"/>
       <use xlink:href="#TimesNewRomanPSMT-35" x="75"/>
      </g>
     </g>
    </g>
    <g id="ytick_6">
     <g id="line2d_25">
      <g>
       <use xlink:href="#maf4ffd3c74" x="61.6375" y="312.01063" style="stroke: #000000; stroke-width: 0.8"/>
      </g>
     </g>
     <g id="text_24">
      <!-- 1.0 -->
      <g transform="translate(29.6375 318.95438) scale(0.2 -0.2)">
       <use xlink:href="#TimesNewRomanPSMT-31"/>
       <use xlink:href="#TimesNewRomanPSMT-2e" x="50"/>
       <use xlink:href="#TimesNewRomanPSMT-30" x="75"/>
      </g>
     </g>
    </g>
    <g id="text_25">
     <!-- CPU使用率 -->
     <g transform="translate(23.059375 389.088125) rotate(-90) scale(0.2 -0.2)">
      <use xlink:href="#SimSun-43"/>
      <use xlink:href="#SimSun-50" x="50"/>
      <use xlink:href="#SimSun-55" x="100"/>
      <use xlink:href="#SimSun-4f7f" x="150"/>
      <use xlink:href="#SimSun-7528" x="250"/>
      <use xlink:href="#SimSun-7387" x="350"/>
     </g>
    </g>
   </g>
   <g id="line2d_26">
    <path d="M 105.768031 306.485629 
L 108.84333 307.628725 
L 111.918628 301.341655 
L 114.993926 301.913203 
L 118.069225 295.626133 
L 121.144523 304.199409 
L 124.219821 296.197681 
L 127.29512 304.199409 
L 130.370418 305.914067 
L 133.445716 301.341655 
L 136.521015 301.913203 
L 139.596313 301.341655 
L 142.671612 292.196817 
L 145.74691 283.623528 
L 148.822208 296.197681 
L 151.897507 297.912339 
L 154.972805 296.197681 
L 158.048103 301.341655 
L 161.123402 298.483887 
L 164.1987 301.341655 
L 167.273998 303.627861 
L 170.349297 303.056313 
L 173.424595 300.770093 
L 176.499893 302.484751 
L 179.575192 301.341655 
L 182.65049 299.055435 
L 185.725788 301.341655 
L 188.801087 293.911475 
L 191.876385 297.912339 
L 194.951683 297.340791 
L 198.026982 297.340791 
L 201.10228 293.911475 
L 204.177579 291.053707 
L 207.252877 281.337322 
L 210.328175 282.480418 
L 213.403474 287.052844 
L 216.478772 282.480418 
L 219.55407 289.339049 
L 222.629369 291.053707 
L 225.704667 286.481281 
L 228.779965 290.482159 
L 231.855264 288.195939 
L 234.930562 287.624391 
L 238.00586 289.910597 
L 241.081159 293.339913 
L 244.156457 289.910597 
L 247.231755 290.482159 
L 250.307054 284.195076 
L 253.382352 291.053707 
L 256.45765 296.197681 
L 259.532949 285.909733 
L 262.608247 285.909733 
L 268.758844 284.766623 
L 271.834142 285.338186 
L 274.909441 288.767502 
L 277.984739 289.339049 
L 281.060037 287.052844 
L 284.135336 287.052844 
L 287.210634 288.767502 
L 290.285932 289.910597 
L 293.361231 290.482159 
L 296.436529 287.052844 
L 299.511827 279.051102 
L 302.587126 282.480418 
L 305.662424 280.76576 
L 308.737722 281.90887 
L 311.813021 284.195076 
L 314.888319 284.195076 
L 317.963617 291.053707 
L 321.038916 287.052844 
L 324.114214 285.909733 
L 327.189513 287.052844 
L 330.264811 289.910597 
L 333.340109 287.052844 
L 336.415408 287.052844 
L 339.490706 296.197681 
L 342.566004 295.626133 
L 345.641303 302.484751 
L 348.716601 301.913203 
L 351.791899 291.053707 
L 354.867198 269.334716 
L 357.942496 305.914067 
L 361.017794 300.770093 
L 364.093093 310.486493 
L 367.168391 307.628725 
L 370.243689 315.63046 
L 373.318988 297.912339 
L 376.394286 327.633066 
L 379.469584 329.347724 
L 382.544883 334.49169 
L 385.620181 339.064116 
L 388.69548 336.777903 
L 391.770778 327.633066 
L 394.846076 343.636535 
L 397.921375 348.780502 
L 400.996673 345.351193 
L 404.071971 351.066715 
L 407.14727 344.779638 
L 410.222568 335.6348 
L 413.297866 358.496895 
L 416.373165 361.354656 
L 419.448463 363.640869 
L 422.523761 361.926211 
L 425.59906 369.356391 
L 428.674358 367.641733 
L 431.749656 374.500365 
L 434.824955 376.215022 
L 437.900253 379.644338 
L 440.975551 381.358996 
L 444.05085 379.072783 
L 447.126148 410.508162 
L 450.201447 383.645202 
L 453.276745 386.50297 
L 456.352043 388.217621 
L 459.427342 391.075389 
L 462.50264 392.218492 
L 465.577938 392.790047 
L 468.653237 395.647808 
L 471.728535 396.790911 
L 474.803833 398.505569 
L 477.879132 400.791775 
L 484.029728 400.791775 
L 487.105027 403.649538 
L 493.255623 405.935743 
L 496.330922 406.507298 
L 499.40622 407.650409 
L 502.481518 407.078846 
L 505.556817 408.793504 
L 508.632115 409.936614 
L 511.707414 409.936614 
L 517.85801 411.079724 
L 520.933309 411.079724 
L 527.083905 413.36593 
L 530.159204 413.36593 
L 536.3098 414.509026 
L 539.385099 413.36593 
L 542.460397 414.509026 
L 545.535695 414.509026 
L 548.610994 415.652136 
L 551.686292 415.080588 
L 554.76159 416.795246 
L 557.836889 415.652136 
L 560.912187 415.652136 
L 563.987485 416.795246 
L 567.062784 416.795246 
L 570.138082 417.366794 
L 573.213381 416.795246 
L 579.363977 416.795246 
L 582.439276 417.366794 
L 585.514574 416.795246 
L 588.589872 417.366794 
L 591.665171 417.366794 
L 594.740469 416.795246 
L 597.815767 418.509904 
L 600.891066 417.366794 
L 603.966364 417.366794 
L 607.041662 416.795246 
L 622.418154 416.795246 
L 625.493452 416.223684 
L 628.568751 415.080588 
L 631.644049 412.22282 
L 637.794646 413.36593 
L 643.945243 411.079724 
L 647.020541 411.079724 
L 650.095839 408.221956 
L 653.171138 408.793504 
L 656.246436 408.793504 
L 659.321734 407.650409 
L 662.397033 405.364196 
L 665.472331 404.221086 
L 668.547629 387.646073 
L 671.622928 397.934014 
L 674.698226 393.361595 
L 677.773524 393.361595 
L 680.848823 389.360731 
L 683.924121 387.074518 
L 686.999419 375.07192 
L 690.074718 383.645202 
L 693.150016 377.358125 
L 696.225315 377.358125 
L 699.300613 371.642604 
L 702.375911 367.070185 
L 705.45121 321.917537 
L 708.526508 355.067579 
L 711.601806 342.493425 
L 714.677105 349.352057 
L 717.752403 343.06498 
L 720.827701 342.493425 
L 723.903 315.63046 
L 726.978298 341.921877 
L 730.053596 337.921006 
L 733.128895 339.635664 
L 736.204193 334.49169 
L 739.279491 331.062382 
L 742.35479 310.486493 
L 745.430088 320.202879 
L 748.505386 319.631331 
L 751.580685 324.20375 
L 754.655983 321.917537 
L 757.731282 322.489092 
L 760.80658 314.487357 
L 763.881878 327.633066 
L 766.957177 327.061511 
L 770.032475 327.061511 
L 773.107773 321.917537 
L 776.183072 318.488228 
L 779.25837 307.057177 
L 782.333668 300.770093 
L 785.408967 303.056313 
L 788.484265 301.913203 
L 791.559563 298.483887 
L 794.634862 303.056313 
L 797.71016 300.198545 
L 800.785458 309.914931 
L 803.860757 309.914931 
L 810.011353 304.199409 
L 813.086652 303.627861 
L 816.16195 289.910597 
L 819.237249 288.767502 
L 822.312547 287.052844 
L 825.387845 289.910597 
L 828.463144 296.769229 
L 831.538442 297.912339 
L 834.61374 294.483023 
L 837.689039 293.339913 
L 840.764337 284.766623 
L 843.839635 288.767502 
L 846.914934 294.483023 
L 849.990232 293.911475 
L 853.06553 295.054571 
L 856.140829 272.764032 
L 859.216127 281.337322 
L 862.291425 296.197681 
L 865.366724 297.340791 
L 868.442022 289.910597 
L 871.51732 295.054571 
L 874.592619 299.055435 
L 877.667917 298.483887 
L 880.743216 297.340791 
L 883.818514 297.912339 
L 886.893812 299.626997 
L 889.969111 372.785707 
L 893.044409 271.620922 
L 896.119707 276.193348 
L 899.195006 287.624391 
L 902.270304 287.052844 
L 905.345602 289.910597 
L 908.420901 296.769229 
L 914.571497 301.341655 
L 917.646796 301.341655 
L 920.722094 305.342519 
L 923.797392 305.342519 
L 926.872691 298.483887 
L 929.947989 296.769229 
L 933.023287 299.626997 
L 936.098586 304.770971 
L 939.173884 311.058041 
L 942.249183 308.200287 
L 945.324481 308.771835 
L 948.399779 307.057177 
L 951.475078 310.486493 
L 954.550376 309.914931 
L 957.625674 308.771835 
L 960.700973 312.201144 
L 963.776271 297.340791 
L 966.851569 291.053707 
L 969.926868 303.056313 
L 973.002166 304.770971 
L 976.077464 304.770971 
L 979.152763 307.628725 
L 982.228061 303.056313 
L 985.303359 309.343383 
L 988.378658 306.485629 
L 988.378658 306.485629 
" clip-path="url(#p3a55e1c235)" style="fill: none; stroke: #1f77b4; stroke-width: 1.5; stroke-linecap: square"/>
   </g>
   <g id="line2d_27">
    <path d="M 548.610994 418.270824 
L 551.686292 415.172697 
L 554.76159 418.841534 
L 557.836889 412.298762 
L 560.912187 412.608574 
L 570.138082 409.077355 
L 573.213381 413.709214 
L 576.288679 413.237185 
L 579.363977 414.843978 
L 582.439276 413.626615 
L 585.514574 416.197098 
L 588.589872 417.227119 
L 591.665171 415.802798 
L 594.740469 409.318607 
L 597.815767 408.426927 
L 600.891066 407.210885 
L 603.966364 407.448773 
L 607.041662 405.50287 
L 610.116961 405.484275 
L 613.192259 403.895446 
L 616.267557 401.955774 
L 619.342856 400.424857 
L 622.418154 401.034049 
L 625.493452 402.661951 
L 628.568751 401.298063 
L 631.644049 389.34005 
L 634.719348 393.357855 
L 637.794646 390.204497 
L 643.945243 387.328865 
L 647.020541 384.800413 
L 650.095839 383.439046 
L 653.171138 383.245289 
L 656.246436 380.653763 
L 659.321734 378.870148 
L 662.397033 380.38278 
L 665.472331 379.469702 
L 668.547629 368.441396 
L 671.622928 371.743776 
L 674.698226 371.302507 
L 680.848823 368.33622 
L 683.924121 366.954009 
L 686.999419 364.616127 
L 693.150016 362.737343 
L 696.225315 361.316948 
L 699.300613 361.705782 
L 702.375911 360.187834 
L 705.45121 346.447894 
L 708.526508 351.331651 
L 711.601806 351.38662 
L 714.677105 352.346023 
L 717.752403 350.659967 
L 720.827701 349.87777 
L 723.903 347.328722 
L 726.978298 345.838411 
L 730.053596 345.360888 
L 736.204193 342.534852 
L 739.279491 342.379194 
L 742.35479 326.400345 
L 745.430088 332.151992 
L 748.505386 335.695518 
L 751.580685 335.403193 
L 754.655983 335.841013 
L 757.731282 335.244362 
L 760.80658 333.144823 
L 763.881878 332.21195 
L 766.957177 330.341257 
L 770.032475 325.152932 
L 773.107773 325.421673 
L 776.183072 325.006053 
L 779.25837 314.915631 
L 782.333668 318.131701 
L 785.408967 319.624397 
L 788.484265 319.499519 
L 791.559563 320.645418 
L 794.634862 318.014346 
L 797.71016 309.168817 
L 800.785458 319.543608 
L 803.860757 316.205067 
L 806.936055 320.439234 
L 810.011353 319.665504 
L 813.086652 322.079995 
L 816.16195 308.579171 
L 819.237249 311.24463 
L 822.312547 313.136678 
L 825.387845 315.673846 
L 828.463144 315.716188 
L 831.538442 318.750233 
L 834.61374 316.294713 
L 837.689039 314.612745 
L 840.764337 317.420704 
L 843.839635 317.227962 
L 846.914934 317.184477 
L 849.990232 312.097864 
L 853.06553 306.436544 
L 856.140829 299.467322 
L 859.216127 304.69493 
L 862.291425 308.158654 
L 868.442022 311.93466 
L 874.592619 311.902424 
L 877.667917 311.505854 
L 880.743216 309.646013 
L 883.818514 314.170049 
L 886.893812 315.947441 
L 889.969111 359.044709 
L 893.044409 311.780123 
L 896.119707 304.350738 
L 899.195006 308.870701 
L 902.270304 312.117658 
L 905.345602 311.78248 
L 908.420901 312.741151 
L 911.496199 311.114067 
L 914.571497 310.090732 
L 917.646796 309.95804 
L 920.722094 310.380047 
L 923.797392 311.0176 
L 926.872691 298.207702 
L 929.947989 304.077278 
L 933.023287 308.982966 
L 939.173884 309.924143 
L 942.249183 313.649687 
L 945.324481 314.735345 
L 948.399779 311.023108 
L 951.475078 309.323439 
L 954.550376 309.201607 
L 957.625674 311.404547 
L 960.700973 310.495123 
L 963.776271 302.717827 
L 966.851569 304.984615 
L 969.926868 307.676547 
L 973.002166 307.621855 
L 976.077464 306.638236 
L 979.152763 305.94795 
L 982.228061 308.851907 
L 985.303359 306.793568 
L 988.378658 306.070804 
L 988.378658 306.070804 
" clip-path="url(#p3a55e1c235)" style="fill: none; stroke: #ff7f0e; stroke-width: 1.5; stroke-linecap: square"/>
   </g>
   <g id="line2d_28">
    <path d="M 548.610994 426.316875 
L 548.610994 261.859375 
" clip-path="url(#p3a55e1c235)" style="fill: none; stroke-dasharray: 7.4,3.2; stroke-dashoffset: 0; stroke: #0000ff; stroke-width: 2"/>
   </g>
   <g id="patch_9">
    <path d="M 61.6375 426.316875 
L 61.6375 261.859375 
" style="fill: none; stroke: #000000; stroke-width: 0.8; stroke-linejoin: miter; stroke-linecap: square"/>
   </g>
   <g id="patch_10">
    <path d="M 1032.509189 426.316875 
L 1032.509189 261.859375 
" style="fill: none; stroke: #000000; stroke-width: 0.8; stroke-linejoin: miter; stroke-linecap: square"/>
   </g>
   <g id="patch_11">
    <path d="M 61.6375 426.316875 
L 1032.509189 426.316875 
" style="fill: none; stroke: #000000; stroke-width: 0.8; stroke-linejoin: miter; stroke-linecap: square"/>
   </g>
   <g id="patch_12">
    <path d="M 61.6375 261.859375 
L 1032.509189 261.859375 
" style="fill: none; stroke: #000000; stroke-width: 0.8; stroke-linejoin: miter; stroke-linecap: square"/>
   </g>
   <g id="text_26">
    <!-- 云函数ID: 72 -->
    <g transform="translate(487.073345 255.859375) scale(0.2 -0.2)">
     <defs>
      <path id="SimSun-37" d="M 2825 4200 
Q 2300 3350 1987 2537 
Q 1675 1725 1675 1125 
Q 1675 1025 1700 850 
Q 1700 650 1700 400 
Q 1700 200 1637 125 
Q 1575 50 1425 50 
Q 1300 50 1212 137 
Q 1125 225 1125 450 
Q 1125 925 1337 1625 
Q 1550 2325 2475 4000 
L 1225 4000 
Q 950 4000 787 3825 
Q 625 3650 550 3300 
L 400 3325 
L 575 4375 
L 2825 4375 
L 2825 4200 
z
" transform="scale(0.015625)"/>
     </defs>
     <use xlink:href="#SimSun-4e91"/>
     <use xlink:href="#SimSun-51fd" x="100"/>
     <use xlink:href="#SimSun-6570" x="200"/>
     <use xlink:href="#SimSun-49" x="300"/>
     <use xlink:href="#SimSun-44" x="350"/>
     <use xlink:href="#SimSun-3a" x="400"/>
     <use xlink:href="#SimSun-20" x="450"/>
     <use xlink:href="#SimSun-37" x="500"/>
     <use xlink:href="#SimSun-32" x="550"/>
    </g>
   </g>
  </g>
  <g id="axes_3">
   <g id="patch_13">
    <path d="M 61.6375 659.116875 
L 1032.509189 659.116875 
L 1032.509189 494.659375 
L 61.6375 494.659375 
z
" style="fill: #ffffff"/>
   </g>
   <g id="matplotlib.axis_5">
    <g id="xtick_15">
     <g id="line2d_29">
      <g>
       <use xlink:href="#m0b35345035" x="105.768031" y="659.116875" style="stroke: #000000; stroke-width: 0.8"/>
      </g>
     </g>
     <g id="text_27">
      <!-- 0 -->
      <g transform="translate(100.768031 680.004375) scale(0.2 -0.2)">
       <use xlink:href="#TimesNewRomanPSMT-30"/>
      </g>
     </g>
    </g>
    <g id="xtick_16">
     <g id="line2d_30">
      <g>
       <use xlink:href="#m0b35345035" x="259.532949" y="659.116875" style="stroke: #000000; stroke-width: 0.8"/>
      </g>
     </g>
     <g id="text_28">
      <!-- 50 -->
      <g transform="translate(249.532949 680.004375) scale(0.2 -0.2)">
       <use xlink:href="#TimesNewRomanPSMT-35"/>
       <use xlink:href="#TimesNewRomanPSMT-30" x="50"/>
      </g>
     </g>
    </g>
    <g id="xtick_17">
     <g id="line2d_31">
      <g>
       <use xlink:href="#m0b35345035" x="413.297866" y="659.116875" style="stroke: #000000; stroke-width: 0.8"/>
      </g>
     </g>
     <g id="text_29">
      <!-- 100 -->
      <g transform="translate(398.297866 680.004375) scale(0.2 -0.2)">
       <use xlink:href="#TimesNewRomanPSMT-31"/>
       <use xlink:href="#TimesNewRomanPSMT-30" x="50"/>
       <use xlink:href="#TimesNewRomanPSMT-30" x="100"/>
      </g>
     </g>
    </g>
    <g id="xtick_18">
     <g id="line2d_32">
      <g>
       <use xlink:href="#m0b35345035" x="567.062784" y="659.116875" style="stroke: #000000; stroke-width: 0.8"/>
      </g>
     </g>
     <g id="text_30">
      <!-- 150 -->
      <g transform="translate(552.062784 680.004375) scale(0.2 -0.2)">
       <use xlink:href="#TimesNewRomanPSMT-31"/>
       <use xlink:href="#TimesNewRomanPSMT-35" x="50"/>
       <use xlink:href="#TimesNewRomanPSMT-30" x="100"/>
      </g>
     </g>
    </g>
    <g id="xtick_19">
     <g id="line2d_33">
      <g>
       <use xlink:href="#m0b35345035" x="720.827701" y="659.116875" style="stroke: #000000; stroke-width: 0.8"/>
      </g>
     </g>
     <g id="text_31">
      <!-- 200 -->
      <g transform="translate(705.827701 680.004375) scale(0.2 -0.2)">
       <use xlink:href="#TimesNewRomanPSMT-32"/>
       <use xlink:href="#TimesNewRomanPSMT-30" x="50"/>
       <use xlink:href="#TimesNewRomanPSMT-30" x="100"/>
      </g>
     </g>
    </g>
    <g id="xtick_20">
     <g id="line2d_34">
      <g>
       <use xlink:href="#m0b35345035" x="874.592619" y="659.116875" style="stroke: #000000; stroke-width: 0.8"/>
      </g>
     </g>
     <g id="text_32">
      <!-- 250 -->
      <g transform="translate(859.592619 680.004375) scale(0.2 -0.2)">
       <use xlink:href="#TimesNewRomanPSMT-32"/>
       <use xlink:href="#TimesNewRomanPSMT-35" x="50"/>
       <use xlink:href="#TimesNewRomanPSMT-30" x="100"/>
      </g>
     </g>
    </g>
    <g id="xtick_21">
     <g id="line2d_35">
      <g>
       <use xlink:href="#m0b35345035" x="1028.357536" y="659.116875" style="stroke: #000000; stroke-width: 0.8"/>
      </g>
     </g>
     <g id="text_33">
      <!-- 300 -->
      <g transform="translate(1013.357536 680.004375) scale(0.2 -0.2)">
       <use xlink:href="#TimesNewRomanPSMT-33"/>
       <use xlink:href="#TimesNewRomanPSMT-30" x="50"/>
       <use xlink:href="#TimesNewRomanPSMT-30" x="100"/>
      </g>
     </g>
    </g>
   </g>
   <g id="matplotlib.axis_6">
    <g id="ytick_7">
     <g id="line2d_36">
      <g>
       <use xlink:href="#maf4ffd3c74" x="61.6375" y="616.696359" style="stroke: #000000; stroke-width: 0.8"/>
      </g>
     </g>
     <g id="text_34">
      <!-- 1.0 -->
      <g transform="translate(29.6375 623.640109) scale(0.2 -0.2)">
       <use xlink:href="#TimesNewRomanPSMT-31"/>
       <use xlink:href="#TimesNewRomanPSMT-2e" x="50"/>
       <use xlink:href="#TimesNewRomanPSMT-30" x="75"/>
      </g>
     </g>
    </g>
    <g id="ytick_8">
     <g id="line2d_37">
      <g>
       <use xlink:href="#maf4ffd3c74" x="61.6375" y="562.901449" style="stroke: #000000; stroke-width: 0.8"/>
      </g>
     </g>
     <g id="text_35">
      <!-- 2.0 -->
      <g transform="translate(29.6375 569.845199) scale(0.2 -0.2)">
       <use xlink:href="#TimesNewRomanPSMT-32"/>
       <use xlink:href="#TimesNewRomanPSMT-2e" x="50"/>
       <use xlink:href="#TimesNewRomanPSMT-30" x="75"/>
      </g>
     </g>
    </g>
    <g id="ytick_9">
     <g id="line2d_38">
      <g>
       <use xlink:href="#maf4ffd3c74" x="61.6375" y="509.106539" style="stroke: #000000; stroke-width: 0.8"/>
      </g>
     </g>
     <g id="text_36">
      <!-- 3.0 -->
      <g transform="translate(29.6375 516.050289) scale(0.2 -0.2)">
       <use xlink:href="#TimesNewRomanPSMT-33"/>
       <use xlink:href="#TimesNewRomanPSMT-2e" x="50"/>
       <use xlink:href="#TimesNewRomanPSMT-30" x="75"/>
      </g>
     </g>
    </g>
    <g id="text_37">
     <!-- CPU使用率 -->
     <g transform="translate(23.059375 621.888125) rotate(-90) scale(0.2 -0.2)">
      <use xlink:href="#SimSun-43"/>
      <use xlink:href="#SimSun-50" x="50"/>
      <use xlink:href="#SimSun-55" x="100"/>
      <use xlink:href="#SimSun-4f7f" x="150"/>
      <use xlink:href="#SimSun-7528" x="250"/>
      <use xlink:href="#SimSun-7387" x="350"/>
     </g>
    </g>
   </g>
   <g id="line2d_39">
    <path d="M 105.768031 526.148773 
L 108.84333 523.824832 
L 111.918628 524.341259 
L 114.993926 527.181627 
L 118.069225 524.857686 
L 121.144523 526.6652 
L 124.219821 523.824832 
L 127.29512 525.374126 
L 130.370418 502.134716 
L 133.445716 519.435157 
L 136.521015 526.92342 
L 139.596313 526.40698 
L 142.671612 527.698067 
L 145.74691 530.280215 
L 148.822208 526.92342 
L 151.897507 531.829509 
L 154.972805 535.702744 
L 158.048103 536.477391 
L 161.123402 535.702744 
L 164.1987 540.092406 
L 167.273998 535.960964 
L 170.349297 542.15814 
L 173.424595 542.15814 
L 176.499893 550.162817 
L 179.575192 549.904597 
L 182.65049 555.068906 
L 185.725788 555.327126 
L 188.801087 557.651067 
L 191.876385 561.524302 
L 198.026982 570.820059 
L 201.10228 565.65575 
L 204.177579 609.035962 
L 207.252877 575.467941 
L 210.328175 577.533668 
L 213.403474 580.890464 
L 216.478772 586.054779 
L 219.55407 588.1205 
L 222.629369 592.768382 
L 225.704667 594.317676 
L 228.779965 596.89983 
L 231.855264 600.514852 
L 234.930562 603.871653 
L 238.00586 606.712021 
L 241.081159 608.261315 
L 244.156457 612.13455 
L 247.231755 614.458491 
L 250.307054 616.265999 
L 253.382352 619.881017 
L 256.45765 622.979605 
L 259.532949 621.688528 
L 265.683546 627.36927 
L 268.758844 628.660347 
L 271.834142 630.726072 
L 274.909441 630.984288 
L 277.984739 630.209641 
L 281.060037 628.660347 
L 284.135336 630.209641 
L 287.210634 632.017149 
L 290.285932 632.275366 
L 293.361231 633.82466 
L 296.436529 634.34109 
L 299.511827 635.632167 
L 302.587126 637.181461 
L 305.662424 637.697891 
L 308.737722 637.439675 
L 311.813021 638.988969 
L 314.888319 641.31291 
L 317.963617 643.895067 
L 321.038916 645.186145 
L 324.114214 645.702575 
L 327.189513 646.993652 
L 333.340109 646.993652 
L 336.415408 647.510082 
L 339.490706 648.284729 
L 345.641303 648.801163 
L 348.716601 648.801163 
L 351.791899 641.054693 
L 354.867198 651.383317 
L 357.942496 650.866887 
L 361.017794 651.383317 
L 364.093093 650.866887 
L 367.168391 651.641534 
L 370.243689 650.866887 
L 373.318988 650.866887 
L 379.469584 651.383317 
L 382.544883 651.125101 
L 385.620181 651.125101 
L 388.69548 648.801163 
L 391.770778 649.57581 
L 394.846076 649.059376 
L 397.921375 649.059376 
L 400.996673 648.542946 
L 407.14727 645.960792 
L 410.222568 645.444358 
L 413.297866 644.411498 
L 416.373165 643.12042 
L 419.448463 642.087557 
L 422.523761 639.763616 
L 425.59906 630.209641 
L 428.674358 633.566443 
L 431.749656 630.984288 
L 434.824955 629.434994 
L 437.900253 626.336406 
L 440.975551 624.528899 
L 444.05085 615.233138 
L 447.126148 616.265999 
L 450.201447 612.650984 
L 453.276745 610.327043 
L 456.352043 605.679161 
L 459.427342 605.162727 
L 462.50264 569.787199 
L 465.577938 593.026595 
L 468.653237 589.669794 
L 471.728535 586.829426 
L 474.803833 582.181544 
L 477.879132 582.439758 
L 480.95443 576.242588 
L 484.029728 575.467941 
L 487.105027 571.078279 
L 490.180325 573.40222 
L 493.255623 565.913964 
L 496.330922 563.331809 
L 499.40622 548.097096 
L 502.481518 550.679244 
L 505.556817 550.421037 
L 508.632115 550.679244 
L 511.707414 547.064229 
L 514.782712 547.322449 
L 517.85801 544.740288 
L 520.933309 551.712111 
L 524.008607 552.228538 
L 527.083905 550.937464 
L 530.159204 550.937464 
L 533.234502 543.449214 
L 536.3098 543.449214 
L 539.385099 541.89992 
L 542.460397 543.190994 
L 545.535695 542.416347 
L 548.610994 534.41167 
L 551.686292 545.256715 
L 554.76159 539.575979 
L 557.836889 547.580656 
L 560.912187 549.38817 
L 563.987485 549.904597 
L 567.062784 542.932774 
L 570.138082 548.097096 
L 573.213381 530.021995 
L 576.288679 534.669877 
L 579.363977 533.637023 
L 582.439276 542.416347 
L 585.514574 544.482068 
L 588.589872 547.838876 
L 591.665171 548.613523 
L 594.740469 544.223861 
L 597.815767 542.674567 
L 600.891066 543.449214 
L 603.966364 547.322449 
L 607.041662 550.679244 
L 610.116961 546.547802 
L 613.192259 540.608846 
L 616.267557 542.416347 
L 619.342856 549.38817 
L 622.418154 548.871743 
L 625.493452 542.416347 
L 628.568751 548.097096 
L 631.644049 551.712111 
L 634.719348 550.937464 
L 637.794646 546.547802 
L 640.869944 546.289582 
L 643.945243 548.613523 
L 647.020541 589.153367 
L 650.095839 525.115906 
L 653.171138 527.181627 
L 656.246436 536.219171 
L 659.321734 537.510258 
L 662.397033 537.510258 
L 665.472331 540.350626 
L 668.547629 544.998508 
L 671.622928 543.449214 
L 674.698226 548.355303 
L 677.773524 544.482068 
L 680.848823 549.904597 
L 683.924121 542.416347 
L 686.999419 541.6417 
L 690.074718 547.838876 
L 693.150016 554.294259 
L 696.225315 553.003185 
L 699.300613 552.228538 
L 702.375911 548.613523 
L 705.45121 552.744965 
L 708.526508 552.744965 
L 711.601806 555.327126 
L 714.677105 552.228538 
L 717.752403 553.777832 
L 720.827701 540.350626 
L 723.903 536.735611 
L 726.978298 549.38817 
L 730.053596 550.421037 
L 733.128895 542.674567 
L 736.204193 542.15814 
L 739.279491 539.575979 
L 742.35479 544.740288 
L 745.430088 548.871743 
L 748.505386 555.327126 
L 751.580685 551.453891 
L 754.655983 549.64639 
L 757.731282 542.674567 
L 760.80658 542.932774 
L 766.957177 551.712111 
L 770.032475 551.453891 
L 773.107773 552.744965 
L 776.183072 549.38817 
L 782.333668 549.38817 
L 785.408967 551.712111 
L 788.484265 551.453891 
L 791.559563 549.12995 
L 794.634862 547.064229 
L 797.71016 547.064229 
L 800.785458 552.744965 
L 803.860757 540.867053 
L 806.936055 542.674567 
L 810.011353 548.355303 
L 813.086652 536.735611 
L 816.16195 543.707421 
L 819.237249 546.547802 
L 822.312547 546.806009 
L 825.387845 534.15345 
L 828.463144 539.575979 
L 831.538442 534.928097 
L 834.61374 534.928097 
L 837.689039 527.181627 
L 840.764337 536.219171 
L 843.839635 534.41167 
L 846.914934 531.571289 
L 849.990232 523.824832 
L 853.06553 526.148773 
L 856.140829 524.599479 
L 859.216127 523.566612 
L 862.291425 526.92342 
L 865.366724 524.083039 
L 868.442022 514.012641 
L 871.51732 521.242671 
L 874.592619 516.078362 
L 877.667917 511.43048 
L 880.743216 513.496201 
L 883.818514 510.914053 
L 886.893812 504.200437 
L 889.969111 514.270848 
L 893.044409 507.557245 
L 896.119707 510.397613 
L 899.195006 510.397613 
L 902.270304 505.491524 
L 905.345602 513.237994 
L 908.420901 516.078362 
L 911.496199 520.984451 
L 914.571497 515.045495 
L 917.646796 506.266171 
L 920.722094 524.599479 
L 923.797392 517.627656 
L 926.872691 522.791965 
L 929.947989 524.341259 
L 933.023287 527.181627 
L 936.098586 522.791965 
L 939.173884 526.148773 
L 942.249183 514.270848 
L 945.324481 520.209804 
L 948.399779 520.468024 
L 951.475078 525.890553 
L 954.550376 520.209804 
L 957.625674 524.857686 
L 960.700973 524.083039 
L 963.776271 521.242671 
L 966.851569 526.92342 
L 969.926868 526.92342 
L 973.002166 525.115906 
L 976.077464 521.242671 
L 979.152763 504.458657 
L 982.228061 518.66051 
L 985.303359 517.885863 
L 988.378658 519.693377 
L 988.378658 519.693377 
" clip-path="url(#pd946d3fc17)" style="fill: none; stroke: #1f77b4; stroke-width: 1.5; stroke-linecap: square"/>
   </g>
   <g id="line2d_40">
    <path d="M 548.610994 542.275456 
L 551.686292 541.314477 
L 554.76159 542.238095 
L 557.836889 540.974866 
L 563.987485 542.667179 
L 567.062784 541.694952 
L 570.138082 540.19691 
L 573.213381 530.062011 
L 576.288679 535.238543 
L 579.363977 537.974304 
L 582.439276 540.474368 
L 585.514574 541.112216 
L 591.665171 544.070388 
L 594.740469 543.561028 
L 597.815767 544.319899 
L 603.966364 544.259144 
L 607.041662 542.594278 
L 610.116961 538.487871 
L 613.192259 535.648401 
L 616.267557 539.146112 
L 619.342856 540.467275 
L 622.418154 541.244962 
L 625.493452 541.687423 
L 628.568751 541.004519 
L 631.644049 542.673746 
L 634.719348 542.369777 
L 637.794646 546.21137 
L 640.869944 542.810391 
L 643.945243 545.830729 
L 647.020541 594.95696 
L 650.095839 533.640434 
L 653.171138 536.728236 
L 656.246436 537.393557 
L 659.321734 536.92225 
L 662.397033 537.606476 
L 665.472331 538.647846 
L 668.547629 537.613787 
L 671.622928 538.158276 
L 674.698226 539.171815 
L 677.773524 540.34134 
L 680.848823 538.954958 
L 683.924121 533.835488 
L 686.999419 537.354759 
L 690.074718 538.209233 
L 693.150016 537.496688 
L 696.225315 537.903699 
L 699.300613 538.179875 
L 702.375911 539.598283 
L 708.526508 541.426651 
L 711.601806 542.685943 
L 717.752403 542.708978 
L 720.827701 538.973183 
L 723.903 542.24379 
L 726.978298 545.801897 
L 730.053596 546.876422 
L 733.128895 547.194756 
L 736.204193 548.241949 
L 739.279491 547.640103 
L 742.35479 548.76443 
L 745.430088 550.671099 
L 748.505386 551.002298 
L 751.580685 552.477356 
L 754.655983 552.361425 
L 757.731282 545.024518 
L 760.80658 546.771315 
L 763.881878 548.369167 
L 766.957177 549.539205 
L 770.032475 544.009723 
L 773.107773 544.940676 
L 776.183072 545.265244 
L 779.25837 545.425616 
L 782.333668 544.690742 
L 785.408967 544.461854 
L 788.484265 545.814402 
L 791.559563 542.350705 
L 794.634862 532.891695 
L 797.71016 534.5492 
L 800.785458 537.95159 
L 803.860757 538.861536 
L 806.936055 537.925439 
L 810.011353 537.848189 
L 813.086652 536.867523 
L 816.16195 535.671462 
L 819.237249 533.193112 
L 822.312547 532.416811 
L 825.387845 532.458032 
L 828.463144 532.189526 
L 831.538442 524.007713 
L 834.61374 526.808989 
L 837.689039 530.576745 
L 840.764337 529.557858 
L 843.839635 527.937253 
L 846.914934 527.078662 
L 849.990232 525.772415 
L 856.140829 522.802084 
L 859.216127 522.609609 
L 862.291425 522.56704 
L 865.366724 518.028651 
L 868.442022 509.87317 
L 871.51732 515.009788 
L 874.592619 518.968365 
L 877.667917 520.849896 
L 880.743216 517.919838 
L 883.818514 517.062145 
L 886.893812 517.071892 
L 889.969111 517.335986 
L 893.044409 519.535428 
L 896.119707 520.990479 
L 899.195006 518.709299 
L 902.270304 516.662393 
L 905.345602 503.865353 
L 908.420901 519.546484 
L 911.496199 523.307763 
L 914.571497 523.057008 
L 917.646796 522.666145 
L 920.722094 521.513934 
L 923.797392 521.55658 
L 929.947989 519.786632 
L 933.023287 522.286401 
L 936.098586 521.318394 
L 939.173884 519.701316 
L 942.249183 508.240432 
L 945.324481 517.809139 
L 948.399779 524.347441 
L 951.475078 519.824032 
L 954.550376 518.707144 
L 960.700973 521.197768 
L 963.776271 522.077624 
L 966.851569 521.947097 
L 969.926868 522.384492 
L 973.002166 524.720566 
L 976.077464 520.067349 
L 979.152763 510.817898 
L 982.228061 521.51101 
L 985.303359 520.283667 
L 988.378658 521.642204 
L 988.378658 521.642204 
" clip-path="url(#pd946d3fc17)" style="fill: none; stroke: #ff7f0e; stroke-width: 1.5; stroke-linecap: square"/>
   </g>
   <g id="line2d_41">
    <path d="M 548.610994 659.116875 
L 548.610994 494.659375 
" clip-path="url(#pd946d3fc17)" style="fill: none; stroke-dasharray: 7.4,3.2; stroke-dashoffset: 0; stroke: #0000ff; stroke-width: 2"/>
   </g>
   <g id="patch_14">
    <path d="M 61.6375 659.116875 
L 61.6375 494.659375 
" style="fill: none; stroke: #000000; stroke-width: 0.8; stroke-linejoin: miter; stroke-linecap: square"/>
   </g>
   <g id="patch_15">
    <path d="M 1032.509189 659.116875 
L 1032.509189 494.659375 
" style="fill: none; stroke: #000000; stroke-width: 0.8; stroke-linejoin: miter; stroke-linecap: square"/>
   </g>
   <g id="patch_16">
    <path d="M 61.6375 659.116875 
L 1032.509189 659.116875 
" style="fill: none; stroke: #000000; stroke-width: 0.8; stroke-linejoin: miter; stroke-linecap: square"/>
   </g>
   <g id="patch_17">
    <path d="M 61.6375 494.659375 
L 1032.509189 494.659375 
" style="fill: none; stroke: #000000; stroke-width: 0.8; stroke-linejoin: miter; stroke-linecap: square"/>
   </g>
   <g id="text_38">
    <!-- 云函数ID: 150 -->
    <g transform="translate(482.073345 488.659375) scale(0.2 -0.2)">
     <defs>
      <path id="SimSun-31" d="M 1825 4450 
L 1825 650 
Q 1825 450 1950 350 
Q 2075 250 2300 250 
L 2550 250 
L 2550 100 
L 725 100 
L 725 250 
L 950 250 
Q 1200 250 1312 350 
Q 1425 450 1425 650 
L 1425 3675 
Q 1425 3775 1362 3837 
Q 1300 3900 1175 3900 
L 725 3900 
L 725 4050 
L 950 4050 
Q 1250 4050 1437 4150 
Q 1625 4250 1725 4450 
L 1825 4450 
z
" transform="scale(0.015625)"/>
      <path id="SimSun-35" d="M 1725 2850 
Q 2200 2850 2500 2487 
Q 2800 2125 2800 1525 
Q 2800 850 2487 450 
Q 2175 50 1525 50 
Q 1075 50 725 312 
Q 375 575 375 950 
Q 375 1100 462 1212 
Q 550 1325 700 1325 
Q 850 1325 900 1225 
Q 950 1125 950 1050 
Q 950 900 875 825 
Q 800 725 800 625 
Q 800 425 1037 325 
Q 1275 225 1550 225 
Q 1950 225 2162 550 
Q 2375 875 2375 1475 
Q 2375 1975 2187 2287 
Q 2000 2600 1625 2600 
Q 1350 2600 1150 2500 
Q 950 2400 775 2075 
L 550 2100 
L 675 4375 
L 2725 4375 
L 2650 4000 
L 850 4000 
L 750 2350 
Q 1000 2700 1237 2775 
Q 1475 2850 1725 2850 
z
" transform="scale(0.015625)"/>
      <path id="SimSun-30" d="M 1600 4225 
Q 1250 4225 1012 3687 
Q 775 3150 775 2250 
Q 775 1300 1012 775 
Q 1250 250 1600 250 
Q 1975 250 2187 775 
Q 2400 1300 2400 2250 
Q 2400 3150 2200 3687 
Q 2000 4225 1600 4225 
z
M 1600 50 
Q 1050 50 675 625 
Q 300 1200 300 2250 
Q 300 3225 662 3825 
Q 1025 4425 1600 4425 
Q 2150 4425 2512 3850 
Q 2875 3275 2875 2250 
Q 2875 1225 2512 637 
Q 2150 50 1600 50 
z
" transform="scale(0.015625)"/>
     </defs>
     <use xlink:href="#SimSun-4e91"/>
     <use xlink:href="#SimSun-51fd" x="100"/>
     <use xlink:href="#SimSun-6570" x="200"/>
     <use xlink:href="#SimSun-49" x="300"/>
     <use xlink:href="#SimSun-44" x="350"/>
     <use xlink:href="#SimSun-3a" x="400"/>
     <use xlink:href="#SimSun-20" x="450"/>
     <use xlink:href="#SimSun-31" x="500"/>
     <use xlink:href="#SimSun-35" x="550"/>
     <use xlink:href="#SimSun-30" x="600"/>
    </g>
   </g>
  </g>
 </g>
 <defs>
  <clipPath id="pa16c441045">
   <rect x="61.6375" y="29.059375" width="970.871689" height="164.4575"/>
  </clipPath>
  <clipPath id="p3a55e1c235">
   <rect x="61.6375" y="261.859375" width="970.871689" height="164.4575"/>
  </clipPath>
  <clipPath id="pd946d3fc17">
   <rect x="61.6375" y="494.659375" width="970.871689" height="164.4575"/>
  </clipPath>
 </defs>
</svg>
