<?xml version="1.0" encoding="utf-8" standalone="no"?>
<!DOCTYPE svg PUBLIC "-//W3C//DTD SVG 1.1//EN"
  "http://www.w3.org/Graphics/SVG/1.1/DTD/svg11.dtd">
<svg xmlns:xlink="http://www.w3.org/1999/xlink" width="1050.602344pt" height="690.95375pt" viewBox="0 0 1050.602344 690.95375" xmlns="http://www.w3.org/2000/svg" version="1.1">
 <metadata>
  <rdf:RDF xmlns:dc="http://purl.org/dc/elements/1.1/" xmlns:cc="http://creativecommons.org/ns#" xmlns:rdf="http://www.w3.org/1999/02/22-rdf-syntax-ns#">
   <cc:Work>
    <dc:type rdf:resource="http://purl.org/dc/dcmitype/StillImage"/>
    <dc:date>2024-02-22T19:15:09.465145</dc:date>
    <dc:format>image/svg+xml</dc:format>
    <dc:creator>
     <cc:Agent>
      <dc:title>Matplotlib v3.7.1, https://matplotlib.org/</dc:title>
     </cc:Agent>
    </dc:creator>
   </cc:Work>
  </rdf:RDF>
 </metadata>
 <defs>
  <style type="text/css">*{stroke-linejoin: round; stroke-linecap: butt}</style>
 </defs>
 <g id="figure_1">
  <g id="patch_1">
   <path d="M 0 690.95375 
L 1050.602344 690.95375 
L 1050.602344 0 
L 0 0 
z
" style="fill: #ffffff"/>
  </g>
  <g id="axes_1">
   <g id="patch_2">
    <path d="M 61.6375 192.988125 
L 1032.554189 192.988125 
L 1032.554189 29.059375 
L 61.6375 29.059375 
z
" style="fill: #ffffff"/>
   </g>
   <g id="matplotlib.axis_1">
    <g id="xtick_1">
     <g id="line2d_1">
      <defs>
       <path id="mb98a4069cb" d="M 0 0 
L 0 3.5 
" style="stroke: #000000; stroke-width: 0.8"/>
      </defs>
      <g>
       <use xlink:href="#mb98a4069cb" x="105.770077" y="192.988125" style="stroke: #000000; stroke-width: 0.8"/>
      </g>
     </g>
     <g id="text_1">
      <!-- 0 -->
      <g transform="translate(100.770077 213.875625) scale(0.2 -0.2)">
       <defs>
        <path id="TimesNewRomanPSMT-30" d="M 231 2094 
Q 231 2819 450 3342 
Q 669 3866 1031 4122 
Q 1313 4325 1613 4325 
Q 2100 4325 2488 3828 
Q 2972 3213 2972 2159 
Q 2972 1422 2759 906 
Q 2547 391 2217 158 
Q 1888 -75 1581 -75 
Q 975 -75 572 641 
Q 231 1244 231 2094 
z
M 844 2016 
Q 844 1141 1059 588 
Q 1238 122 1591 122 
Q 1759 122 1940 273 
Q 2122 425 2216 781 
Q 2359 1319 2359 2297 
Q 2359 3022 2209 3506 
Q 2097 3866 1919 4016 
Q 1791 4119 1609 4119 
Q 1397 4119 1231 3928 
Q 1006 3669 925 3112 
Q 844 2556 844 2016 
z
" transform="scale(0.015625)"/>
       </defs>
       <use xlink:href="#TimesNewRomanPSMT-30"/>
      </g>
     </g>
    </g>
    <g id="xtick_2">
     <g id="line2d_2">
      <g>
       <use xlink:href="#mb98a4069cb" x="259.542121" y="192.988125" style="stroke: #000000; stroke-width: 0.8"/>
      </g>
     </g>
     <g id="text_2">
      <!-- 50 -->
      <g transform="translate(249.542121 213.875625) scale(0.2 -0.2)">
       <defs>
        <path id="TimesNewRomanPSMT-35" d="M 2778 4238 
L 2534 3706 
L 1259 3706 
L 981 3138 
Q 1809 3016 2294 2522 
Q 2709 2097 2709 1522 
Q 2709 1188 2573 903 
Q 2438 619 2231 419 
Q 2025 219 1772 97 
Q 1413 -75 1034 -75 
Q 653 -75 479 54 
Q 306 184 306 341 
Q 306 428 378 495 
Q 450 563 559 563 
Q 641 563 702 538 
Q 763 513 909 409 
Q 1144 247 1384 247 
Q 1750 247 2026 523 
Q 2303 800 2303 1197 
Q 2303 1581 2056 1914 
Q 1809 2247 1375 2428 
Q 1034 2569 447 2591 
L 1259 4238 
L 2778 4238 
z
" transform="scale(0.015625)"/>
       </defs>
       <use xlink:href="#TimesNewRomanPSMT-35"/>
       <use xlink:href="#TimesNewRomanPSMT-30" x="50"/>
      </g>
     </g>
    </g>
    <g id="xtick_3">
     <g id="line2d_3">
      <g>
       <use xlink:href="#mb98a4069cb" x="413.314166" y="192.988125" style="stroke: #000000; stroke-width: 0.8"/>
      </g>
     </g>
     <g id="text_3">
      <!-- 100 -->
      <g transform="translate(398.314166 213.875625) scale(0.2 -0.2)">
       <defs>
        <path id="TimesNewRomanPSMT-31" d="M 750 3822 
L 1781 4325 
L 1884 4325 
L 1884 747 
Q 1884 391 1914 303 
Q 1944 216 2037 169 
Q 2131 122 2419 116 
L 2419 0 
L 825 0 
L 825 116 
Q 1125 122 1212 167 
Q 1300 213 1334 289 
Q 1369 366 1369 747 
L 1369 3034 
Q 1369 3497 1338 3628 
Q 1316 3728 1258 3775 
Q 1200 3822 1119 3822 
Q 1003 3822 797 3725 
L 750 3822 
z
" transform="scale(0.015625)"/>
       </defs>
       <use xlink:href="#TimesNewRomanPSMT-31"/>
       <use xlink:href="#TimesNewRomanPSMT-30" x="50"/>
       <use xlink:href="#TimesNewRomanPSMT-30" x="100"/>
      </g>
     </g>
    </g>
    <g id="xtick_4">
     <g id="line2d_4">
      <g>
       <use xlink:href="#mb98a4069cb" x="567.08621" y="192.988125" style="stroke: #000000; stroke-width: 0.8"/>
      </g>
     </g>
     <g id="text_4">
      <!-- 150 -->
      <g transform="translate(552.08621 213.875625) scale(0.2 -0.2)">
       <use xlink:href="#TimesNewRomanPSMT-31"/>
       <use xlink:href="#TimesNewRomanPSMT-35" x="50"/>
       <use xlink:href="#TimesNewRomanPSMT-30" x="100"/>
      </g>
     </g>
    </g>
    <g id="xtick_5">
     <g id="line2d_5">
      <g>
       <use xlink:href="#mb98a4069cb" x="720.858255" y="192.988125" style="stroke: #000000; stroke-width: 0.8"/>
      </g>
     </g>
     <g id="text_5">
      <!-- 200 -->
      <g transform="translate(705.858255 213.875625) scale(0.2 -0.2)">
       <defs>
        <path id="TimesNewRomanPSMT-32" d="M 2934 816 
L 2638 0 
L 138 0 
L 138 116 
Q 1241 1122 1691 1759 
Q 2141 2397 2141 2925 
Q 2141 3328 1894 3587 
Q 1647 3847 1303 3847 
Q 991 3847 742 3664 
Q 494 3481 375 3128 
L 259 3128 
Q 338 3706 661 4015 
Q 984 4325 1469 4325 
Q 1984 4325 2329 3994 
Q 2675 3663 2675 3213 
Q 2675 2891 2525 2569 
Q 2294 2063 1775 1497 
Q 997 647 803 472 
L 1909 472 
Q 2247 472 2383 497 
Q 2519 522 2628 598 
Q 2738 675 2819 816 
L 2934 816 
z
" transform="scale(0.015625)"/>
       </defs>
       <use xlink:href="#TimesNewRomanPSMT-32"/>
       <use xlink:href="#TimesNewRomanPSMT-30" x="50"/>
       <use xlink:href="#TimesNewRomanPSMT-30" x="100"/>
      </g>
     </g>
    </g>
    <g id="xtick_6">
     <g id="line2d_6">
      <g>
       <use xlink:href="#mb98a4069cb" x="874.630299" y="192.988125" style="stroke: #000000; stroke-width: 0.8"/>
      </g>
     </g>
     <g id="text_6">
      <!-- 250 -->
      <g transform="translate(859.630299 213.875625) scale(0.2 -0.2)">
       <use xlink:href="#TimesNewRomanPSMT-32"/>
       <use xlink:href="#TimesNewRomanPSMT-35" x="50"/>
       <use xlink:href="#TimesNewRomanPSMT-30" x="100"/>
      </g>
     </g>
    </g>
    <g id="xtick_7">
     <g id="line2d_7">
      <g>
       <use xlink:href="#mb98a4069cb" x="1028.402344" y="192.988125" style="stroke: #000000; stroke-width: 0.8"/>
      </g>
     </g>
     <g id="text_7">
      <!-- 300 -->
      <g transform="translate(1013.402344 213.875625) scale(0.2 -0.2)">
       <defs>
        <path id="TimesNewRomanPSMT-33" d="M 325 3431 
Q 506 3859 782 4092 
Q 1059 4325 1472 4325 
Q 1981 4325 2253 3994 
Q 2459 3747 2459 3466 
Q 2459 3003 1878 2509 
Q 2269 2356 2469 2072 
Q 2669 1788 2669 1403 
Q 2669 853 2319 450 
Q 1863 -75 997 -75 
Q 569 -75 414 31 
Q 259 138 259 259 
Q 259 350 332 419 
Q 406 488 509 488 
Q 588 488 669 463 
Q 722 447 909 348 
Q 1097 250 1169 231 
Q 1284 197 1416 197 
Q 1734 197 1970 444 
Q 2206 691 2206 1028 
Q 2206 1275 2097 1509 
Q 2016 1684 1919 1775 
Q 1784 1900 1550 2001 
Q 1316 2103 1072 2103 
L 972 2103 
L 972 2197 
Q 1219 2228 1467 2375 
Q 1716 2522 1828 2728 
Q 1941 2934 1941 3181 
Q 1941 3503 1739 3701 
Q 1538 3900 1238 3900 
Q 753 3900 428 3381 
L 325 3431 
z
" transform="scale(0.015625)"/>
       </defs>
       <use xlink:href="#TimesNewRomanPSMT-33"/>
       <use xlink:href="#TimesNewRomanPSMT-30" x="50"/>
       <use xlink:href="#TimesNewRomanPSMT-30" x="100"/>
      </g>
     </g>
    </g>
   </g>
   <g id="matplotlib.axis_2">
    <g id="ytick_1">
     <g id="line2d_8">
      <defs>
       <path id="m516b4a3b33" d="M 0 0 
L -3.5 0 
" style="stroke: #000000; stroke-width: 0.8"/>
      </defs>
      <g>
       <use xlink:href="#m516b4a3b33" x="61.6375" y="191.072163" style="stroke: #000000; stroke-width: 0.8"/>
      </g>
     </g>
     <g id="text_8">
      <!-- 0.0 -->
      <g transform="translate(29.6375 198.015913) scale(0.2 -0.2)">
       <defs>
        <path id="TimesNewRomanPSMT-2e" d="M 800 606 
Q 947 606 1047 504 
Q 1147 403 1147 259 
Q 1147 116 1045 14 
Q 944 -88 800 -88 
Q 656 -88 554 14 
Q 453 116 453 259 
Q 453 406 554 506 
Q 656 606 800 606 
z
" transform="scale(0.015625)"/>
       </defs>
       <use xlink:href="#TimesNewRomanPSMT-30"/>
       <use xlink:href="#TimesNewRomanPSMT-2e" x="50"/>
       <use xlink:href="#TimesNewRomanPSMT-30" x="75"/>
      </g>
     </g>
    </g>
    <g id="ytick_2">
     <g id="line2d_9">
      <g>
       <use xlink:href="#m516b4a3b33" x="61.6375" y="140.102143" style="stroke: #000000; stroke-width: 0.8"/>
      </g>
     </g>
     <g id="text_9">
      <!-- 1.0 -->
      <g transform="translate(29.6375 147.045893) scale(0.2 -0.2)">
       <use xlink:href="#TimesNewRomanPSMT-31"/>
       <use xlink:href="#TimesNewRomanPSMT-2e" x="50"/>
       <use xlink:href="#TimesNewRomanPSMT-30" x="75"/>
      </g>
     </g>
    </g>
    <g id="ytick_3">
     <g id="line2d_10">
      <g>
       <use xlink:href="#m516b4a3b33" x="61.6375" y="89.132124" style="stroke: #000000; stroke-width: 0.8"/>
      </g>
     </g>
     <g id="text_10">
      <!-- 2.0 -->
      <g transform="translate(29.6375 96.075874) scale(0.2 -0.2)">
       <use xlink:href="#TimesNewRomanPSMT-32"/>
       <use xlink:href="#TimesNewRomanPSMT-2e" x="50"/>
       <use xlink:href="#TimesNewRomanPSMT-30" x="75"/>
      </g>
     </g>
    </g>
    <g id="ytick_4">
     <g id="line2d_11">
      <g>
       <use xlink:href="#m516b4a3b33" x="61.6375" y="38.162105" style="stroke: #000000; stroke-width: 0.8"/>
      </g>
     </g>
     <g id="text_11">
      <!-- 3.0 -->
      <g transform="translate(29.6375 45.105855) scale(0.2 -0.2)">
       <use xlink:href="#TimesNewRomanPSMT-33"/>
       <use xlink:href="#TimesNewRomanPSMT-2e" x="50"/>
       <use xlink:href="#TimesNewRomanPSMT-30" x="75"/>
      </g>
     </g>
    </g>
    <g id="text_12">
     <!-- CPU使用率 -->
     <g transform="translate(23.059375 156.02375) rotate(-90) scale(0.2 -0.2)">
      <defs>
       <path id="SimSun-43" d="M 1725 50 
Q 1025 50 612 575 
Q 200 1100 200 2225 
Q 200 3175 637 3800 
Q 1075 4425 1825 4425 
Q 2000 4425 2175 4375 
Q 2350 4300 2475 4300 
Q 2575 4300 2637 4325 
Q 2700 4350 2750 4425 
L 2975 3325 
L 2825 3275 
Q 2675 3750 2425 4000 
Q 2175 4250 1775 4250 
Q 1250 4250 962 3675 
Q 675 3100 675 2250 
Q 675 1325 925 800 
Q 1175 275 1750 275 
Q 2150 275 2437 562 
Q 2725 850 2825 1325 
L 2975 1250 
Q 2850 725 2512 387 
Q 2175 50 1725 50 
z
" transform="scale(0.015625)"/>
       <path id="SimSun-50" d="M 950 2100 
L 950 450 
Q 950 350 1012 300 
Q 1075 250 1175 250 
L 1350 250 
L 1350 100 
L 150 100 
L 150 250 
L 325 250 
Q 450 250 500 300 
Q 550 350 550 450 
L 550 4025 
Q 550 4125 500 4175 
Q 450 4225 325 4225 
L 175 4225 
L 175 4375 
L 1650 4375 
Q 2275 4375 2612 4062 
Q 2950 3750 2950 3275 
Q 2950 2700 2587 2400 
Q 2225 2100 1725 2100 
L 950 2100 
z
M 1575 2250 
Q 1950 2250 2237 2475 
Q 2525 2700 2525 3250 
Q 2525 3750 2287 3987 
Q 2050 4225 1525 4225 
L 1175 4225 
Q 1075 4225 1012 4175 
Q 950 4125 950 4025 
L 950 2250 
L 1575 2250 
z
" transform="scale(0.015625)"/>
       <path id="SimSun-55" d="M 1625 250 
Q 2000 250 2262 500 
Q 2525 750 2525 1125 
L 2525 4025 
Q 2525 4125 2475 4175 
Q 2425 4225 2300 4225 
L 2150 4225 
L 2150 4375 
L 3050 4375 
L 3050 4225 
L 2900 4225 
Q 2800 4225 2737 4175 
Q 2675 4125 2675 4025 
L 2675 1125 
Q 2675 625 2337 337 
Q 2000 50 1575 50 
Q 1125 50 787 300 
Q 450 550 450 1100 
L 450 4025 
Q 450 4125 400 4175 
Q 350 4225 225 4225 
L 100 4225 
L 100 4375 
L 1200 4375 
L 1200 4225 
L 1075 4225 
Q 975 4225 912 4175 
Q 850 4125 850 4025 
L 850 1100 
Q 850 600 1062 425 
Q 1275 250 1625 250 
z
" transform="scale(0.015625)"/>
       <path id="SimSun-4f7f" d="M 2875 3150 
L 2875 2100 
L 3825 2100 
Q 3850 2825 3850 3150 
L 2875 3150 
z
M 4175 3150 
Q 4175 2800 4150 2100 
L 5150 2100 
L 5150 3150 
L 4175 3150 
z
M 5475 3100 
L 5475 2425 
Q 5475 2100 5500 1800 
L 5150 1675 
L 5150 1950 
L 4150 1950 
Q 4125 1175 3875 600 
Q 4275 275 4875 75 
Q 5475 -125 6075 -150 
L 6075 -250 
Q 5700 -300 5600 -575 
Q 4525 -325 3725 350 
Q 3425 25 2925 -225 
Q 2425 -475 1875 -650 
L 1825 -550 
Q 2400 -325 2850 -25 
Q 3300 275 3500 575 
Q 3200 925 2825 1650 
L 2900 1700 
Q 3325 1100 3625 825 
Q 3800 1300 3825 1950 
L 2875 1950 
L 2875 1825 
L 2525 1675 
Q 2550 2075 2550 2562 
Q 2550 3050 2525 3500 
L 2875 3300 
L 3850 3300 
L 3850 4025 
L 2975 4025 
Q 2650 4025 2375 3950 
L 2150 4175 
L 3850 4175 
L 3850 4525 
Q 3850 4775 3825 5225 
L 4350 5000 
L 4175 4825 
L 4175 4175 
L 5300 4175 
L 5600 4475 
L 6050 4025 
L 4175 4025 
L 4175 3300 
L 5100 3300 
L 5275 3525 
L 5650 3225 
L 5475 3100 
z
M 1675 3175 
L 1675 -450 
L 1325 -625 
Q 1350 -75 1350 350 
L 1350 3200 
Q 900 2475 350 1900 
L 275 1950 
Q 700 2525 1112 3400 
Q 1525 4275 1800 5250 
L 2325 4925 
L 2125 4800 
Q 1725 3925 1500 3525 
L 1875 3325 
L 1675 3175 
z
" transform="scale(0.015625)"/>
       <path id="SimSun-7528" d="M 3400 3150 
L 3400 1825 
L 5075 1825 
L 5075 3150 
L 3400 3150 
z
M 4075 100 
Q 4725 50 4900 62 
Q 5075 75 5075 400 
L 5075 1675 
L 3400 1675 
Q 3400 75 3425 -225 
L 3050 -400 
Q 3075 1025 3075 1675 
L 1425 1675 
Q 1250 350 375 -600 
L 300 -550 
Q 775 225 950 1025 
Q 1125 1825 1125 3225 
Q 1125 4625 1100 5075 
L 1475 4825 
L 5050 4825 
L 5225 5100 
L 5625 4800 
L 5425 4600 
L 5425 225 
Q 5450 -400 4875 -575 
Q 4825 -150 4075 -25 
L 4075 100 
z
M 1475 4675 
L 1475 3300 
L 3075 3300 
L 3075 4675 
L 1475 4675 
z
M 3400 4675 
L 3400 3300 
L 5075 3300 
L 5075 4675 
L 3400 4675 
z
M 1475 3150 
Q 1450 2100 1425 1825 
L 3075 1825 
L 3075 3150 
L 1475 3150 
z
" transform="scale(0.015625)"/>
       <path id="SimSun-7387" d="M 875 3725 
L 925 3800 
Q 1375 3650 1550 3525 
Q 1725 3400 1725 3250 
Q 1725 3175 1662 3025 
Q 1600 2875 1550 2875 
Q 1500 2875 1425 3050 
Q 1275 3325 875 3725 
z
M 550 1850 
Q 875 1925 2000 2575 
L 2050 2500 
Q 1675 2225 1337 1937 
Q 1000 1650 875 1425 
L 550 1850 
z
M 5200 3450 
Q 4800 3150 4275 2800 
L 4225 2875 
Q 4775 3400 5050 3925 
L 5450 3525 
L 5200 3450 
z
M 4325 2500 
L 4350 2575 
Q 5225 2350 5375 2212 
Q 5525 2075 5525 1900 
Q 5525 1775 5487 1662 
Q 5450 1550 5400 1550 
Q 5325 1550 5200 1800 
Q 4975 2150 4325 2500 
z
M 3150 3900 
Q 2500 3300 2300 3150 
Q 2800 3150 3400 3175 
Q 3700 3500 3850 3825 
L 4250 3450 
Q 4050 3400 3450 2825 
Q 2850 2250 2475 1950 
Q 3150 1975 3850 2000 
Q 3750 2175 3550 2450 
L 3600 2500 
Q 4050 2250 4200 2100 
Q 4350 1950 4350 1850 
Q 4350 1775 4250 1625 
Q 4150 1475 4100 1475 
Q 4075 1475 4050 1550 
Q 4000 1700 3900 1900 
Q 3650 1875 3075 1800 
L 3500 1550 
L 3325 1425 
L 3325 975 
L 5325 975 
L 5650 1300 
L 6100 825 
L 3325 825 
Q 3325 -275 3350 -525 
L 2975 -650 
Q 3000 0 3000 825 
L 1125 825 
Q 800 825 525 750 
L 300 975 
L 3000 975 
L 3000 1775 
Q 2450 1700 2200 1525 
L 1950 1950 
Q 2275 1950 2675 2350 
Q 3075 2750 3325 3050 
Q 2400 2950 2150 2775 
L 1950 3175 
Q 2150 3150 2475 3575 
Q 2800 4000 2900 4225 
L 1450 4225 
Q 1125 4225 850 4150 
L 625 4375 
L 3100 4375 
Q 3050 4800 2675 5200 
L 2725 5250 
Q 3225 5050 3337 4912 
Q 3450 4775 3450 4700 
Q 3450 4550 3250 4375 
L 5025 4375 
L 5350 4675 
L 5775 4225 
L 3050 4225 
L 3375 3950 
L 3150 3900 
z
" transform="scale(0.015625)"/>
      </defs>
      <use xlink:href="#SimSun-43"/>
      <use xlink:href="#SimSun-50" x="50"/>
      <use xlink:href="#SimSun-55" x="100"/>
      <use xlink:href="#SimSun-4f7f" x="150"/>
      <use xlink:href="#SimSun-7528" x="250"/>
      <use xlink:href="#SimSun-7387" x="350"/>
     </g>
    </g>
   </g>
   <g id="line2d_12">
    <path d="M 105.770077 128.990676 
L 108.845518 133.363907 
L 111.920959 136.02454 
L 114.996399 135.229409 
L 118.07184 134.128456 
L 121.147281 140.214278 
L 124.222722 137.981791 
L 127.298163 138.104121 
L 130.373604 141.712796 
L 133.449045 143.180733 
L 136.524486 141.468139 
L 139.599927 143.241898 
L 142.675367 168.166236 
L 145.750808 136.972581 
L 148.826249 136.727927 
L 151.90169 137.70655 
L 154.977131 139.052163 
L 158.052572 139.205068 
L 161.128013 142.110361 
L 164.203454 157.849905 
L 167.278895 160.938684 
L 170.354335 164.608527 
L 173.429776 168.890008 
L 176.505217 170.154068 
L 179.580658 167.64634 
L 182.656099 169.114277 
L 185.73154 170.235618 
L 188.806981 172.315194 
L 191.882422 171.866659 
L 194.957863 173.558862 
L 198.033303 174.761754 
L 201.108744 177.228705 
L 204.184185 178.880132 
L 207.259626 183.885395 
L 210.335067 177.249093 
L 213.410508 184.058691 
L 216.485949 176.372406 
L 219.56139 183.314527 
L 222.636831 175.94426 
L 225.712272 180.011669 
L 228.787712 172.111316 
L 231.863153 173.946238 
L 234.938594 173.507893 
L 238.014035 174.46613 
L 241.089476 174.588457 
L 244.164917 175.526306 
L 247.240358 175.393784 
L 250.315799 176.290856 
L 253.39124 176.250079 
L 256.46668 176.352021 
L 259.542121 174.119531 
L 262.617562 175.699606 
L 265.693003 174.904472 
L 268.768444 177.075797 
L 271.843885 176.566094 
L 274.919326 177.565108 
L 277.994767 176.739391 
L 281.070208 181.21456 
L 284.145648 182.070859 
L 287.221089 183.905774 
L 290.29653 177.432585 
L 293.371971 178.370435 
L 296.447412 170.337557 
L 299.522853 177.473359 
L 302.598294 180.28691 
L 308.749176 181.316499 
L 311.824616 180.745637 
L 314.900057 179.573324 
L 317.975498 180.857772 
L 321.050939 179.440801 
L 324.12638 176.015618 
L 327.201821 178.472374 
L 330.277262 184.384899 
L 333.352703 182.295128 
L 336.428144 184.007719 
L 339.503584 185.210611 
L 342.579025 185.536818 
L 345.654466 185.46546 
L 348.729907 185.006733 
L 351.805348 178.421405 
L 354.880789 183.518405 
L 357.95623 178.69664 
L 361.031671 174.986023 
L 364.107112 177.432585 
L 367.182552 177.024824 
L 370.257993 178.594701 
L 373.333434 176.759782 
L 376.408875 173.477312 
L 379.484316 174.598653 
L 382.559757 174.394772 
L 385.635198 174.353996 
L 388.710639 174.863695 
L 391.78608 173.089939 
L 394.86152 172.254032 
L 397.936961 171.764721 
L 401.012402 170.561826 
L 404.087843 170.378334 
L 407.163284 168.645351 
L 410.238725 157.15671 
L 413.314166 157.003799 
L 416.389607 170.541438 
L 419.465048 169.338546 
L 422.540488 169.50165 
L 425.615929 158.267859 
L 428.69137 154.078124 
L 431.766811 153.670363 
L 434.842252 155.260627 
L 437.917693 145.596712 
L 440.993134 134.250786 
L 444.068575 136.880838 
L 447.144016 138.022568 
L 450.219457 140.469128 
L 453.294897 141.121543 
L 456.370338 145.851562 
L 459.445779 146.707857 
L 462.52122 142.874914 
L 465.596661 148.868986 
L 468.672102 144.13897 
L 471.747543 145.36225 
L 474.822984 137.207046 
L 477.898425 125.32084 
L 480.973865 111.406024 
L 484.049306 103.913428 
L 487.124747 67.551422 
L 490.200188 100.85523 
L 493.275629 109.061403 
L 496.35107 114.056462 
L 499.426511 98.306725 
L 502.501952 102.129479 
L 505.577393 91.57869 
L 508.652833 102.180451 
L 511.728274 88.265636 
L 514.803715 71.333393 
L 517.879156 63.178198 
L 520.954597 69.72274 
L 524.030038 78.836185 
L 527.105479 77.979881 
L 530.18092 80.864788 
L 533.256361 88.224865 
L 536.331801 61.526762 
L 539.407242 83.239997 
L 542.482683 75.533327 
L 545.558124 75.961473 
L 548.633565 79.20317 
L 551.709006 72.658615 
L 554.784447 73.943066 
L 557.859888 83.87202 
L 560.935329 92.903906 
L 564.010769 88.265636 
L 567.08621 76.032831 
L 570.161651 69.294594 
L 573.237092 67.704333 
L 576.312533 69.294594 
L 579.387974 73.392583 
L 582.463415 72.597453 
L 585.538856 149.113643 
L 588.614297 68.92761 
L 591.689737 68.071317 
L 594.765178 78.408039 
L 597.840619 86.481681 
L 600.91606 81.588561 
L 603.991501 85.319566 
L 607.066942 107.328421 
L 610.142383 103.862461 
L 613.217824 101.874629 
L 616.293265 101.364929 
L 619.368705 105.697383 
L 622.444146 103.301789 
L 625.519587 96.369871 
L 628.595028 76.756604 
L 631.670469 80.120624 
L 634.74591 93.78059 
L 637.821351 103.9644 
L 640.896792 101.466868 
L 643.972233 102.129479 
L 647.047673 95.350465 
L 650.123114 112.884151 
L 653.198555 114.311312 
L 656.273996 112.935124 
L 659.349437 101.008141 
L 662.424878 82.475441 
L 665.500319 91.680623 
L 668.57576 106.66581 
L 671.651201 101.008141 
L 674.726642 104.270222 
L 677.802082 110.845352 
L 680.877523 109.520131 
L 683.952964 108.755581 
L 687.028405 110.539536 
L 690.103846 113.393851 
L 693.179287 111.660874 
L 696.254728 100.753291 
L 699.330169 86.665179 
L 702.40561 89.784539 
L 705.48105 88.622424 
L 708.556491 89.968031 
L 711.631932 88.561262 
L 714.707373 82.628352 
L 717.782814 79.9983 
L 720.858255 74.310038 
L 723.933696 78.958509 
L 727.009137 69.049934 
L 730.084578 72.108132 
L 733.160018 73.759567 
L 736.235459 69.845077 
L 739.3109 80.671107 
L 742.386341 88.805923 
L 745.461782 103.2916 
L 748.537223 106.563871 
L 751.612664 101.670752 
L 754.688105 94.881542 
L 757.763546 102.017344 
L 760.838986 113.393851 
L 763.914427 108.34782 
L 766.989868 110.131775 
L 770.065309 103.658584 
L 773.14075 104.779922 
L 776.216191 85.747712 
L 779.291632 94.687855 
L 782.367073 96.930537 
L 785.442514 99.784858 
L 788.517954 98.204792 
L 791.593395 104.321189 
L 794.668836 100.34553 
L 797.744277 103.913428 
L 800.819718 105.442533 
L 803.895159 101.77269 
L 806.9706 107.379393 
L 810.046041 104.066339 
L 813.121482 105.493499 
L 816.196922 104.932827 
L 819.272363 85.798691 
L 822.347804 83.790467 
L 825.423245 74.371212 
L 828.498686 80.671107 
L 831.574127 65.196605 
L 834.649568 63.086449 
L 837.725009 36.510682 
L 840.80045 39.864507 
L 843.87589 59.91611 
L 846.951331 54.421541 
L 850.026772 73.820729 
L 853.102213 61.22094 
L 856.177654 54.309413 
L 859.253095 72.658615 
L 862.328536 71.618824 
L 865.403977 77.551734 
L 868.479418 81.588561 
L 871.554858 79.447818 
L 874.630299 79.264332 
L 877.70574 84.279775 
L 880.781181 75.227505 
L 883.856622 71.618824 
L 886.932063 71.802322 
L 890.007504 67.021331 
L 893.082945 57.846724 
L 896.158386 56.847716 
L 899.233827 78.163379 
L 902.309267 72.475129 
L 905.384708 78.346877 
L 908.460149 83.11766 
L 911.53559 79.50898 
L 914.611031 84.769096 
L 917.686472 65.135443 
L 920.761913 86.44091 
L 923.837354 81.772059 
L 926.912795 84.504044 
L 929.988235 86.073926 
L 933.063676 87.19527 
L 936.139117 95.401438 
L 942.289999 93.668455 
L 945.36544 89.081158 
L 948.440881 88.826302 
L 951.516322 99.020308 
L 954.591763 100.753291 
L 957.667203 109.968668 
L 960.742644 110.294876 
L 963.818085 110.050222 
L 966.893526 109.153146 
L 969.968967 114.413256 
L 973.044408 115.67731 
L 976.119849 112.415228 
L 982.270731 126.931492 
L 985.346171 125.218895 
L 988.421612 119.143269 
L 988.421612 119.143269 
" clip-path="url(#p09c12256b3)" style="fill: none; stroke: #1f77b4; stroke-width: 1.5; stroke-linecap: square"/>
   </g>
   <g id="line2d_13">
    <path d="M 548.633565 82.839339 
L 551.709006 80.349085 
L 554.784447 81.082313 
L 557.859888 80.897405 
L 560.935329 80.514708 
L 564.010769 80.354931 
L 567.08621 80.853766 
L 570.161651 80.226117 
L 573.237092 82.516248 
L 576.312533 83.342075 
L 579.387974 82.317584 
L 582.463415 70.536865 
L 585.538856 115.287637 
L 588.614297 61.642451 
L 591.689737 79.342652 
L 594.765178 78.070111 
L 597.840619 80.112069 
L 600.91606 80.543557 
L 603.991501 77.059254 
L 607.066942 80.086634 
L 610.142383 78.338942 
L 613.217824 73.804202 
L 616.293265 74.108408 
L 619.368705 76.73558 
L 622.444146 71.472937 
L 625.519587 79.041229 
L 628.595028 85.528365 
L 631.670469 88.485992 
L 634.74591 89.543209 
L 637.821351 90.310389 
L 640.896792 89.503501 
L 643.972233 82.954371 
L 647.047673 77.429349 
L 650.123114 75.085044 
L 653.198555 75.125681 
L 656.273996 79.87899 
L 659.349437 79.741937 
L 662.424878 91.355369 
L 665.500319 92.877742 
L 668.57576 96.860291 
L 671.651201 93.595664 
L 674.726642 87.01227 
L 677.802082 85.283863 
L 680.877523 88.190061 
L 683.952964 87.929822 
L 687.028405 89.046099 
L 690.103846 89.104928 
L 693.179287 86.439039 
L 696.254728 79.281867 
L 699.330169 84.146344 
L 702.40561 84.315515 
L 705.48105 82.451793 
L 708.556491 85.738902 
L 711.631932 84.57731 
L 714.707373 86.015231 
L 717.782814 85.700221 
L 720.858255 94.319807 
L 723.933696 92.978143 
L 727.009137 86.48478 
L 730.084578 88.857047 
L 733.160018 87.164817 
L 736.235459 95.063303 
L 739.3109 97.800106 
L 742.386341 98.18386 
L 745.461782 94.417614 
L 748.537223 95.402939 
L 751.612664 94.191401 
L 754.688105 97.562597 
L 757.763546 93.68322 
L 760.838986 92.365399 
L 763.914427 93.246938 
L 766.989868 91.050118 
L 770.065309 81.229998 
L 773.14075 90.460275 
L 776.216191 87.341692 
L 779.291632 81.866385 
L 782.367073 79.871601 
L 785.442514 83.115546 
L 788.517954 82.533747 
L 791.593395 85.2974 
L 794.668836 83.910555 
L 797.744277 78.515428 
L 800.819718 78.325963 
L 803.895159 82.715678 
L 806.9706 80.895193 
L 810.046041 81.732942 
L 813.121482 81.385085 
L 816.196922 84.394565 
L 819.272363 83.161238 
L 822.347804 82.108469 
L 825.423245 83.111305 
L 828.498686 83.991476 
L 831.574127 84.097966 
L 834.649568 83.623313 
L 837.725009 86.708489 
L 840.80045 80.173498 
L 843.87589 70.336998 
L 846.951331 75.790297 
L 850.026772 76.597045 
L 853.102213 75.954121 
L 856.177654 74.699613 
L 859.253095 79.965027 
L 862.328536 79.840771 
L 865.403977 81.187271 
L 868.479418 81.140157 
L 871.554858 79.083677 
L 874.630299 80.093865 
L 877.70574 77.850569 
L 880.781181 71.648329 
L 883.856622 72.055793 
L 886.932063 74.031461 
L 890.007504 78.317019 
L 893.082945 79.089522 
L 896.158386 79.493024 
L 899.233827 82.37747 
L 902.309267 83.321356 
L 905.384708 82.488881 
L 908.460149 83.115242 
L 911.53559 84.042929 
L 914.611031 82.993027 
L 917.686472 77.589795 
L 920.761913 80.800686 
L 923.837354 84.42627 
L 926.912795 92.160313 
L 929.988235 88.336374 
L 933.063676 100.071249 
L 936.139117 91.833303 
L 939.214558 91.984683 
L 942.289999 91.341923 
L 945.36544 98.020243 
L 948.440881 96.749621 
L 951.516322 98.721735 
L 954.591763 89.897427 
L 957.667203 98.958241 
L 960.742644 101.162692 
L 963.818085 103.744622 
L 966.893526 106.138684 
L 969.968967 105.464923 
L 973.044408 105.596155 
L 976.119849 109.192501 
L 979.19529 112.023101 
L 982.270731 116.78903 
L 985.346171 117.544902 
L 988.421612 115.719192 
L 988.421612 115.719192 
" clip-path="url(#p09c12256b3)" style="fill: none; stroke: #ff7f0e; stroke-width: 1.5; stroke-linecap: square"/>
   </g>
   <g id="line2d_14">
    <path d="M 548.633565 192.988125 
L 548.633565 29.059375 
" clip-path="url(#p09c12256b3)" style="fill: none; stroke-dasharray: 7.4,3.2; stroke-dashoffset: 0; stroke: #0000ff; stroke-width: 2"/>
   </g>
   <g id="patch_3">
    <path d="M 61.6375 192.988125 
L 61.6375 29.059375 
" style="fill: none; stroke: #000000; stroke-width: 0.8; stroke-linejoin: miter; stroke-linecap: square"/>
   </g>
   <g id="patch_4">
    <path d="M 1032.554189 192.988125 
L 1032.554189 29.059375 
" style="fill: none; stroke: #000000; stroke-width: 0.8; stroke-linejoin: miter; stroke-linecap: square"/>
   </g>
   <g id="patch_5">
    <path d="M 61.6375 192.988125 
L 1032.554189 192.988125 
" style="fill: none; stroke: #000000; stroke-width: 0.8; stroke-linejoin: miter; stroke-linecap: square"/>
   </g>
   <g id="patch_6">
    <path d="M 61.6375 29.059375 
L 1032.554189 29.059375 
" style="fill: none; stroke: #000000; stroke-width: 0.8; stroke-linejoin: miter; stroke-linecap: square"/>
   </g>
   <g id="text_13">
    <!-- 云函数ID: 28 -->
    <g transform="translate(487.095845 23.059375) scale(0.2 -0.2)">
     <defs>
      <path id="SimSun-4e91" d="M 1200 4450 
L 4500 4450 
L 4850 4800 
L 5350 4300 
L 1975 4300 
Q 1700 4300 1425 4225 
L 1200 4450 
z
M 1600 275 
Q 2300 300 4725 450 
Q 4425 975 3850 1700 
L 3925 1775 
Q 5200 725 5287 500 
Q 5375 275 5375 175 
Q 5375 0 5250 -162 
Q 5125 -325 5075 -325 
Q 5025 -325 4975 -200 
Q 4875 50 4775 300 
Q 1650 -25 1300 -300 
L 975 300 
Q 1225 350 1462 550 
Q 1700 750 2150 1462 
Q 2600 2175 2725 2600 
L 1250 2600 
Q 925 2600 650 2525 
L 425 2750 
L 5025 2750 
L 5450 3175 
L 6025 2600 
L 3250 2600 
Q 3000 2025 2500 1375 
Q 2000 725 1600 275 
z
" transform="scale(0.015625)"/>
      <path id="SimSun-51fd" d="M 3050 2275 
L 3050 3000 
Q 3050 3450 3025 3800 
L 3275 3625 
L 4450 4475 
L 1650 4475 
Q 1325 4475 1050 4400 
L 825 4625 
L 4450 4625 
L 4775 4875 
L 5150 4375 
Q 4875 4325 4550 4175 
Q 4225 4025 3400 3550 
L 3550 3450 
L 3375 3325 
L 3375 2400 
Q 4250 3225 4475 3600 
L 4875 3150 
L 4625 3125 
Q 3625 2425 3400 2275 
Q 4575 1675 4687 1487 
Q 4800 1300 4800 1150 
Q 4800 1025 4750 925 
Q 4700 825 4675 825 
Q 4575 825 4375 1150 
Q 4075 1600 3375 2150 
L 3375 725 
Q 3375 350 2875 150 
Q 2850 450 2200 650 
L 2200 750 
Q 2800 675 2925 700 
Q 3050 725 3050 850 
L 3050 2100 
Q 1850 1300 1625 1025 
L 1275 1400 
Q 1575 1475 2087 1725 
Q 2600 1975 3050 2275 
z
M 1700 3475 
L 1775 3550 
Q 2350 3200 2475 3025 
Q 2600 2850 2600 2775 
Q 2600 2650 2500 2525 
Q 2400 2400 2350 2400 
Q 2275 2400 2225 2575 
Q 2150 2875 1700 3475 
z
M 5150 0 
L 5150 2175 
Q 5150 2725 5125 3325 
L 5725 3050 
L 5500 2850 
L 5500 525 
Q 5500 100 5525 -400 
L 5150 -600 
L 5150 -150 
L 1250 -150 
L 1000 -375 
L 675 -50 
L 875 125 
L 875 2375 
Q 875 2800 850 3425 
L 1450 3150 
L 1225 2975 
L 1225 0 
L 5150 0 
z
" transform="scale(0.015625)"/>
      <path id="SimSun-6570" d="M 1875 1525 
Q 1675 1200 1500 900 
Q 1825 825 2275 725 
Q 2500 975 2725 1525 
L 1875 1525 
z
M 850 4900 
Q 1325 4600 1425 4450 
Q 1525 4300 1525 4225 
Q 1525 4100 1437 3975 
Q 1350 3850 1300 3850 
Q 1225 3850 1150 4100 
Q 1050 4450 775 4850 
L 850 4900 
z
M 3000 4975 
L 3450 4675 
Q 3250 4625 3100 4425 
Q 2925 4225 2525 3825 
L 2450 3875 
Q 2925 4625 3000 4975 
z
M 1875 5250 
L 2425 5000 
L 2225 4825 
L 2225 3675 
L 2850 3675 
L 3125 3950 
L 3550 3525 
L 2225 3525 
L 2225 3300 
Q 2800 3175 2937 3062 
Q 3075 2950 3075 2775 
Q 3075 2700 3050 2587 
Q 3025 2475 2975 2475 
Q 2925 2475 2800 2650 
Q 2600 2925 2225 3175 
L 2225 2400 
L 1925 2200 
L 2275 2050 
Q 2150 2000 1950 1675 
L 2725 1675 
L 2900 1900 
L 3275 1575 
L 3050 1450 
Q 2800 875 2600 650 
Q 3000 550 3137 437 
Q 3275 325 3275 150 
Q 3275 -25 3200 -25 
Q 3125 -25 3025 75 
Q 2750 275 2400 425 
Q 1525 -275 325 -500 
L 300 -425 
Q 1450 -50 2100 550 
Q 1600 725 1125 800 
Q 1225 950 1525 1525 
L 1200 1525 
Q 875 1525 600 1450 
L 375 1675 
L 1575 1675 
Q 1675 1925 1775 2275 
L 1900 2225 
L 1900 3250 
Q 1225 2475 350 2050 
L 300 2125 
Q 1225 2775 1700 3525 
L 1250 3525 
Q 925 3525 650 3450 
L 425 3675 
L 1900 3675 
Q 1900 4575 1875 5250 
z
M 3925 3525 
Q 4050 2075 4525 1100 
Q 4925 1950 5025 3525 
L 3925 3525 
z
M 4050 5250 
L 4625 4925 
Q 4425 4850 4325 4625 
Q 4225 4400 3950 3675 
L 5375 3675 
L 5675 3975 
L 6125 3525 
L 5400 3525 
Q 5250 1675 4750 775 
Q 5325 75 6100 -100 
L 6100 -200 
Q 5625 -275 5600 -500 
Q 4950 -50 4525 525 
Q 3700 -275 2550 -650 
L 2500 -575 
Q 3650 -50 4325 800 
Q 3850 1975 3825 3375 
Q 3575 2725 3100 2150 
L 3025 2200 
Q 3625 3200 4050 5250 
z
" transform="scale(0.015625)"/>
      <path id="SimSun-49" d="M 600 4225 
L 600 4375 
L 2600 4375 
L 2600 4225 
L 2025 4225 
Q 1925 4225 1862 4175 
Q 1800 4125 1800 4025 
L 1800 450 
Q 1800 350 1862 300 
Q 1925 250 2025 250 
L 2600 250 
L 2600 100 
L 600 100 
L 600 250 
L 1175 250 
Q 1300 250 1350 300 
Q 1400 350 1400 450 
L 1400 4025 
Q 1400 4125 1350 4175 
Q 1300 4225 1175 4225 
L 600 4225 
z
" transform="scale(0.015625)"/>
      <path id="SimSun-44" d="M 2500 2275 
Q 2500 3350 2175 3787 
Q 1850 4225 1275 4225 
Q 1100 4225 1012 4175 
Q 925 4125 925 4025 
L 925 450 
Q 925 350 1000 300 
Q 1075 250 1200 250 
Q 1750 250 2125 662 
Q 2500 1075 2500 2275 
z
M 525 4025 
Q 525 4125 475 4175 
Q 425 4225 300 4225 
L 150 4225 
L 150 4375 
L 1275 4375 
Q 2050 4375 2512 3875 
Q 2975 3375 2975 2325 
Q 2975 1175 2525 637 
Q 2075 100 1200 100 
L 125 100 
L 125 250 
L 300 250 
Q 425 250 475 300 
Q 525 350 525 450 
L 525 4025 
z
" transform="scale(0.015625)"/>
      <path id="SimSun-3a" d="M 1900 2725 
Q 1900 2575 1800 2475 
Q 1700 2375 1550 2375 
Q 1400 2375 1300 2475 
Q 1200 2575 1200 2725 
Q 1200 2875 1300 2975 
Q 1400 3075 1550 3075 
Q 1700 3075 1800 2975 
Q 1900 2875 1900 2725 
z
M 1900 375 
Q 1900 225 1800 125 
Q 1700 25 1550 25 
Q 1400 25 1300 125 
Q 1200 225 1200 375 
Q 1200 525 1300 625 
Q 1400 725 1550 725 
Q 1700 725 1800 625 
Q 1900 525 1900 375 
z
" transform="scale(0.015625)"/>
      <path id="SimSun-20" d="M 0 0 
Q 0 0 0 0 
z
" transform="scale(0.015625)"/>
      <path id="SimSun-32" d="M 2325 3325 
Q 2325 3775 2125 4012 
Q 1925 4250 1525 4250 
Q 1225 4250 1012 4087 
Q 800 3925 800 3675 
Q 800 3525 900 3425 
Q 975 3325 975 3225 
Q 975 3100 912 3037 
Q 850 2975 725 2975 
Q 575 2975 487 3062 
Q 400 3150 400 3350 
Q 400 3875 775 4150 
Q 1150 4425 1575 4425 
Q 2175 4425 2462 4125 
Q 2750 3825 2750 3375 
Q 2750 3075 2612 2775 
Q 2475 2475 2175 2200 
Q 1450 1500 1062 1062 
Q 675 625 600 475 
L 2075 475 
Q 2300 475 2450 650 
Q 2600 825 2650 1175 
L 2800 1175 
L 2650 100 
L 325 100 
L 325 425 
Q 450 650 737 1000 
Q 1025 1350 1500 1825 
Q 1925 2250 2125 2625 
Q 2325 3000 2325 3325 
z
" transform="scale(0.015625)"/>
      <path id="SimSun-38" d="M 625 1125 
Q 625 725 887 475 
Q 1150 225 1550 225 
Q 2025 225 2237 475 
Q 2450 725 2450 1100 
Q 2450 1425 2150 1725 
Q 1850 2025 1250 2275 
Q 950 2075 787 1775 
Q 625 1475 625 1125 
z
M 2825 1175 
Q 2825 700 2475 375 
Q 2125 50 1550 50 
Q 1025 50 650 375 
Q 275 700 275 1125 
Q 275 1550 487 1850 
Q 700 2150 1100 2375 
Q 750 2550 562 2812 
Q 375 3075 375 3400 
Q 375 3825 700 4125 
Q 1025 4425 1600 4425 
Q 2125 4425 2450 4125 
Q 2775 3825 2775 3400 
Q 2775 3100 2587 2837 
Q 2400 2575 2000 2375 
Q 2425 2125 2625 1825 
Q 2825 1525 2825 1175 
z
M 2425 3375 
Q 2425 3725 2225 3987 
Q 2025 4250 1600 4250 
Q 1125 4250 925 4000 
Q 725 3750 725 3475 
Q 725 3200 1012 2937 
Q 1300 2675 1825 2475 
Q 2125 2625 2275 2850 
Q 2425 3075 2425 3375 
z
" transform="scale(0.015625)"/>
     </defs>
     <use xlink:href="#SimSun-4e91"/>
     <use xlink:href="#SimSun-51fd" x="100"/>
     <use xlink:href="#SimSun-6570" x="200"/>
     <use xlink:href="#SimSun-49" x="300"/>
     <use xlink:href="#SimSun-44" x="350"/>
     <use xlink:href="#SimSun-3a" x="400"/>
     <use xlink:href="#SimSun-20" x="450"/>
     <use xlink:href="#SimSun-32" x="500"/>
     <use xlink:href="#SimSun-38" x="550"/>
    </g>
   </g>
   <g id="legend_1">
    <g id="patch_7">
     <path d="M 75.6375 101.934375 
L 199.6375 101.934375 
Q 203.6375 101.934375 203.6375 97.934375 
L 203.6375 43.059375 
Q 203.6375 39.059375 199.6375 39.059375 
L 75.6375 39.059375 
Q 71.6375 39.059375 71.6375 43.059375 
L 71.6375 97.934375 
Q 71.6375 101.934375 75.6375 101.934375 
z
" style="fill: #ffffff; opacity: 0.8; stroke: #cccccc; stroke-linejoin: miter"/>
    </g>
    <g id="line2d_15">
     <path d="M 79.6375 55.996875 
L 99.6375 55.996875 
L 119.6375 55.996875 
" style="fill: none; stroke: #1f77b4; stroke-width: 1.5; stroke-linecap: square"/>
    </g>
    <g id="text_14">
     <!-- 真实值 -->
     <g transform="translate(135.6375 62.996875) scale(0.2 -0.2)">
      <defs>
       <path id="SimSun-771f" d="M 2050 3450 
L 2050 2900 
L 4300 2900 
L 4300 3450 
L 2050 3450 
z
M 2050 2750 
L 2050 2225 
L 4300 2225 
L 4300 2750 
L 2050 2750 
z
M 2050 2075 
L 2050 1550 
L 4300 1550 
L 4300 2075 
L 2050 2075 
z
M 2050 1400 
L 2050 875 
L 4300 875 
L 4300 1400 
L 2050 1400 
z
M 2875 3600 
L 2925 4325 
L 1525 4325 
Q 1200 4325 925 4250 
L 700 4475 
L 2950 4475 
Q 2975 4825 2975 5275 
L 3550 5025 
L 3375 4925 
L 3300 4475 
L 5000 4475 
L 5325 4825 
L 5775 4325 
L 3275 4325 
L 3200 3600 
L 4275 3600 
L 4450 3875 
L 4850 3575 
L 4650 3375 
L 4650 875 
L 5300 875 
L 5675 1225 
L 6125 725 
L 1150 725 
Q 825 725 550 650 
L 325 875 
L 1700 875 
Q 1700 3200 1675 3775 
L 2050 3600 
L 2875 3600 
z
M 2425 725 
L 2825 350 
L 2575 300 
Q 1500 -425 800 -650 
L 775 -575 
Q 1950 125 2425 725 
z
M 3800 700 
Q 4575 375 4962 200 
Q 5350 25 5400 -112 
Q 5450 -250 5450 -325 
Q 5450 -400 5400 -525 
Q 5350 -650 5325 -650 
Q 5250 -650 5100 -450 
Q 4875 -150 3750 625 
L 3800 700 
z
" transform="scale(0.015625)"/>
       <path id="SimSun-5b9e" d="M 1950 3625 
Q 2575 3400 2700 3250 
Q 2825 3100 2825 2975 
Q 2825 2850 2750 2700 
Q 2675 2550 2625 2550 
Q 2550 2550 2450 2800 
Q 2275 3175 1900 3550 
L 1950 3625 
z
M 3575 1325 
Q 3500 1100 3425 925 
Q 4650 550 5087 325 
Q 5525 100 5512 -225 
Q 5500 -550 5400 -550 
Q 5300 -550 5075 -300 
Q 4625 175 3375 800 
Q 3025 175 2300 -150 
Q 1575 -475 425 -625 
L 425 -525 
Q 1475 -325 2200 100 
Q 2925 525 3200 1325 
L 1225 1325 
Q 900 1325 625 1250 
L 400 1475 
L 3225 1475 
Q 3325 1950 3375 2575 
Q 3425 3200 3425 3700 
L 4050 3400 
L 3850 3225 
Q 3750 2300 3625 1475 
L 5175 1475 
L 5550 1850 
L 6075 1325 
L 3575 1325 
z
M 1275 2700 
Q 1975 2425 2100 2262 
Q 2225 2100 2225 1975 
Q 2225 1850 2150 1700 
Q 2075 1550 2025 1550 
Q 1950 1550 1850 1800 
Q 1675 2175 1225 2625 
L 1275 2700 
z
M 2750 5225 
L 2825 5275 
Q 3225 5100 3425 4925 
Q 3625 4750 3625 4600 
Q 3625 4450 3512 4300 
Q 3400 4150 3325 4150 
Q 3250 4150 3200 4400 
Q 3100 4775 2750 5225 
z
M 4975 3225 
L 5350 3925 
L 1175 3925 
Q 1225 3525 1125 3300 
Q 1025 3075 787 3100 
Q 550 3125 550 3200 
Q 550 3300 700 3475 
Q 975 3825 1050 4375 
L 1150 4375 
L 1175 4075 
L 5300 4075 
L 5575 4350 
L 6050 3800 
Q 5625 3825 5050 3175 
L 4975 3225 
z
" transform="scale(0.015625)"/>
       <path id="SimSun-503c" d="M 1525 650 
Q 1525 -225 1550 -525 
L 1175 -650 
Q 1200 250 1200 550 
L 1200 3025 
Q 750 2300 325 1850 
L 250 1900 
Q 725 2625 1100 3525 
Q 1475 4425 1675 5200 
L 2200 4875 
L 1950 4725 
Q 1550 3800 1425 3475 
L 1725 3300 
L 1525 3150 
L 1525 650 
z
M 2875 3225 
L 2875 2475 
L 4800 2475 
L 4800 3225 
L 2875 3225 
z
M 2875 2325 
L 2875 1575 
L 4800 1575 
L 4800 2325 
L 2875 2325 
z
M 2875 1425 
L 2875 675 
L 4800 675 
L 4800 1425 
L 2875 1425 
z
M 2875 525 
L 2875 -225 
L 4800 -225 
L 4800 525 
L 2875 525 
z
M 3550 4250 
Q 3575 4825 3550 5225 
L 4125 4950 
L 3925 4800 
L 3900 4250 
L 5025 4250 
L 5350 4575 
L 5825 4100 
L 3900 4100 
L 3875 3375 
L 4750 3375 
L 4975 3625 
L 5350 3300 
L 5125 3150 
L 5125 -225 
L 5350 -225 
L 5675 100 
L 6150 -375 
L 2450 -375 
Q 2125 -375 1850 -450 
L 1625 -225 
L 2550 -225 
L 2550 2550 
Q 2550 2850 2525 3575 
L 2875 3375 
L 3525 3375 
L 3550 4100 
L 2800 4100 
Q 2475 4100 2200 4025 
L 1975 4250 
L 3550 4250 
z
" transform="scale(0.015625)"/>
      </defs>
      <use xlink:href="#SimSun-771f"/>
      <use xlink:href="#SimSun-5b9e" x="100"/>
      <use xlink:href="#SimSun-503c" x="200"/>
     </g>
    </g>
    <g id="line2d_16">
     <path d="M 79.6375 84.35625 
L 99.6375 84.35625 
L 119.6375 84.35625 
" style="fill: none; stroke: #ff7f0e; stroke-width: 1.5; stroke-linecap: square"/>
    </g>
    <g id="text_15">
     <!-- 预测值 -->
     <g transform="translate(135.6375 91.35625) scale(0.2 -0.2)">
      <defs>
       <path id="SimSun-9884" d="M 475 4825 
L 2225 4825 
L 2425 5075 
L 2825 4675 
Q 2600 4625 2387 4412 
Q 2175 4200 1800 3750 
Q 2050 3575 2037 3400 
Q 2025 3225 1937 3150 
Q 1850 3075 1825 3075 
Q 1725 3075 1650 3300 
Q 1525 3600 1050 4100 
L 1100 4150 
Q 1475 3975 1700 3825 
L 2225 4675 
L 1300 4675 
Q 975 4675 700 4600 
L 475 4825 
z
M 725 100 
Q 1175 50 1362 37 
Q 1550 25 1550 275 
L 1550 2875 
L 1125 2875 
Q 800 2875 525 2800 
L 300 3025 
L 2525 3025 
L 2725 3275 
L 3150 2875 
Q 2800 2825 2275 2075 
L 2200 2125 
L 2550 2875 
L 1875 2875 
L 1875 150 
Q 1875 -400 1350 -500 
Q 1325 -175 725 0 
L 725 100 
z
M 3250 775 
Q 3275 1425 3275 2287 
Q 3275 3150 3250 3900 
L 3600 3700 
L 4050 3700 
Q 4175 4400 4200 4675 
L 3650 4675 
Q 3325 4675 3050 4600 
L 2825 4825 
L 5325 4825 
L 5675 5150 
L 6125 4675 
L 4675 4675 
Q 4500 4425 4175 3700 
L 5300 3700 
L 5475 3975 
L 5875 3675 
L 5675 3475 
L 5675 1950 
Q 5675 1525 5700 1075 
L 5350 875 
L 5350 3550 
L 3600 3550 
L 3600 1000 
L 3250 775 
z
M 4850 2875 
L 4625 2675 
Q 4625 1475 4475 937 
Q 4325 400 3900 50 
Q 3475 -300 2425 -625 
L 2400 -550 
Q 3500 -50 3837 400 
Q 4175 850 4237 1587 
Q 4300 2325 4275 3175 
L 4850 2875 
z
M 4650 950 
Q 5725 375 5875 212 
Q 6025 50 6025 -125 
Q 6025 -225 5962 -387 
Q 5900 -550 5850 -550 
Q 5800 -550 5750 -450 
Q 5625 -250 5437 0 
Q 5250 250 4600 875 
L 4650 950 
z
" transform="scale(0.015625)"/>
       <path id="SimSun-6d4b" d="M 1975 1000 
Q 2000 1475 2000 2925 
Q 2000 4375 1975 5000 
L 2350 4775 
L 3575 4775 
L 3775 4975 
L 4100 4650 
L 3900 4500 
L 3900 2350 
Q 3900 1850 3925 1350 
L 3600 1200 
L 3600 4625 
L 2325 4625 
L 2325 1150 
L 1975 1000 
z
M 2775 3975 
L 3300 3700 
L 3125 3525 
Q 3150 1825 2875 937 
Q 2600 50 1375 -600 
L 1325 -500 
Q 2200 100 2475 725 
Q 2750 1350 2775 2187 
Q 2800 3025 2775 3975 
z
M 3100 950 
Q 3825 450 3937 262 
Q 4050 75 4050 -25 
Q 4050 -150 3975 -262 
Q 3900 -375 3850 -375 
Q 3750 -375 3650 -75 
Q 3500 375 3050 875 
L 3100 950 
z
M 4475 825 
Q 4500 1200 4500 1700 
L 4500 3400 
Q 4500 3950 4475 4300 
L 5025 4025 
L 4825 3825 
L 4825 1700 
Q 4825 1325 4850 950 
L 4475 825 
z
M 5375 150 
L 5375 4050 
Q 5375 4750 5350 5125 
L 5875 4875 
L 5700 4700 
L 5700 75 
Q 5700 -200 5600 -350 
Q 5500 -500 5200 -600 
Q 5025 -225 4450 -50 
L 4450 50 
Q 5125 -50 5250 -37 
Q 5375 -25 5375 150 
z
M 1850 3500 
Q 1375 1525 1300 1225 
Q 1200 900 1212 450 
Q 1225 0 1250 -175 
Q 1250 -275 1125 -275 
Q 1025 -275 875 -225 
Q 725 -175 725 0 
Q 725 125 800 375 
Q 875 625 875 775 
Q 875 950 762 1050 
Q 650 1150 275 1250 
L 275 1350 
Q 725 1300 837 1312 
Q 950 1325 1087 1537 
Q 1225 1750 1750 3525 
L 1850 3500 
z
M 375 3775 
Q 1075 3350 1112 3100 
Q 1150 2850 1050 2775 
Q 950 2700 900 2700 
Q 800 2700 725 2975 
Q 600 3350 325 3700 
L 375 3775 
z
M 800 5100 
Q 1475 4725 1550 4512 
Q 1625 4300 1525 4187 
Q 1425 4075 1350 4075 
Q 1275 4075 1200 4300 
Q 1075 4650 750 5025 
L 800 5100 
z
" transform="scale(0.015625)"/>
      </defs>
      <use xlink:href="#SimSun-9884"/>
      <use xlink:href="#SimSun-6d4b" x="100"/>
      <use xlink:href="#SimSun-503c" x="200"/>
     </g>
    </g>
   </g>
  </g>
  <g id="axes_2">
   <g id="patch_8">
    <path d="M 61.6375 425.788125 
L 1032.554189 425.788125 
L 1032.554189 261.859375 
L 61.6375 261.859375 
z
" style="fill: #ffffff"/>
   </g>
   <g id="matplotlib.axis_3">
    <g id="xtick_8">
     <g id="line2d_17">
      <g>
       <use xlink:href="#mb98a4069cb" x="105.770077" y="425.788125" style="stroke: #000000; stroke-width: 0.8"/>
      </g>
     </g>
     <g id="text_16">
      <!-- 0 -->
      <g transform="translate(100.770077 446.675625) scale(0.2 -0.2)">
       <use xlink:href="#TimesNewRomanPSMT-30"/>
      </g>
     </g>
    </g>
    <g id="xtick_9">
     <g id="line2d_18">
      <g>
       <use xlink:href="#mb98a4069cb" x="259.542121" y="425.788125" style="stroke: #000000; stroke-width: 0.8"/>
      </g>
     </g>
     <g id="text_17">
      <!-- 50 -->
      <g transform="translate(249.542121 446.675625) scale(0.2 -0.2)">
       <use xlink:href="#TimesNewRomanPSMT-35"/>
       <use xlink:href="#TimesNewRomanPSMT-30" x="50"/>
      </g>
     </g>
    </g>
    <g id="xtick_10">
     <g id="line2d_19">
      <g>
       <use xlink:href="#mb98a4069cb" x="413.314166" y="425.788125" style="stroke: #000000; stroke-width: 0.8"/>
      </g>
     </g>
     <g id="text_18">
      <!-- 100 -->
      <g transform="translate(398.314166 446.675625) scale(0.2 -0.2)">
       <use xlink:href="#TimesNewRomanPSMT-31"/>
       <use xlink:href="#TimesNewRomanPSMT-30" x="50"/>
       <use xlink:href="#TimesNewRomanPSMT-30" x="100"/>
      </g>
     </g>
    </g>
    <g id="xtick_11">
     <g id="line2d_20">
      <g>
       <use xlink:href="#mb98a4069cb" x="567.08621" y="425.788125" style="stroke: #000000; stroke-width: 0.8"/>
      </g>
     </g>
     <g id="text_19">
      <!-- 150 -->
      <g transform="translate(552.08621 446.675625) scale(0.2 -0.2)">
       <use xlink:href="#TimesNewRomanPSMT-31"/>
       <use xlink:href="#TimesNewRomanPSMT-35" x="50"/>
       <use xlink:href="#TimesNewRomanPSMT-30" x="100"/>
      </g>
     </g>
    </g>
    <g id="xtick_12">
     <g id="line2d_21">
      <g>
       <use xlink:href="#mb98a4069cb" x="720.858255" y="425.788125" style="stroke: #000000; stroke-width: 0.8"/>
      </g>
     </g>
     <g id="text_20">
      <!-- 200 -->
      <g transform="translate(705.858255 446.675625) scale(0.2 -0.2)">
       <use xlink:href="#TimesNewRomanPSMT-32"/>
       <use xlink:href="#TimesNewRomanPSMT-30" x="50"/>
       <use xlink:href="#TimesNewRomanPSMT-30" x="100"/>
      </g>
     </g>
    </g>
    <g id="xtick_13">
     <g id="line2d_22">
      <g>
       <use xlink:href="#mb98a4069cb" x="874.630299" y="425.788125" style="stroke: #000000; stroke-width: 0.8"/>
      </g>
     </g>
     <g id="text_21">
      <!-- 250 -->
      <g transform="translate(859.630299 446.675625) scale(0.2 -0.2)">
       <use xlink:href="#TimesNewRomanPSMT-32"/>
       <use xlink:href="#TimesNewRomanPSMT-35" x="50"/>
       <use xlink:href="#TimesNewRomanPSMT-30" x="100"/>
      </g>
     </g>
    </g>
    <g id="xtick_14">
     <g id="line2d_23">
      <g>
       <use xlink:href="#mb98a4069cb" x="1028.402344" y="425.788125" style="stroke: #000000; stroke-width: 0.8"/>
      </g>
     </g>
     <g id="text_22">
      <!-- 300 -->
      <g transform="translate(1013.402344 446.675625) scale(0.2 -0.2)">
       <use xlink:href="#TimesNewRomanPSMT-33"/>
       <use xlink:href="#TimesNewRomanPSMT-30" x="50"/>
       <use xlink:href="#TimesNewRomanPSMT-30" x="100"/>
      </g>
     </g>
    </g>
   </g>
   <g id="matplotlib.axis_4">
    <g id="ytick_5">
     <g id="line2d_24">
      <g>
       <use xlink:href="#m516b4a3b33" x="61.6375" y="419.907118" style="stroke: #000000; stroke-width: 0.8"/>
      </g>
     </g>
     <g id="text_23">
      <!-- 0.0 -->
      <g transform="translate(29.6375 426.850868) scale(0.2 -0.2)">
       <use xlink:href="#TimesNewRomanPSMT-30"/>
       <use xlink:href="#TimesNewRomanPSMT-2e" x="50"/>
       <use xlink:href="#TimesNewRomanPSMT-30" x="75"/>
      </g>
     </g>
    </g>
    <g id="ytick_6">
     <g id="line2d_25">
      <g>
       <use xlink:href="#m516b4a3b33" x="61.6375" y="364.475567" style="stroke: #000000; stroke-width: 0.8"/>
      </g>
     </g>
     <g id="text_24">
      <!-- 0.5 -->
      <g transform="translate(29.6375 371.419317) scale(0.2 -0.2)">
       <use xlink:href="#TimesNewRomanPSMT-30"/>
       <use xlink:href="#TimesNewRomanPSMT-2e" x="50"/>
       <use xlink:href="#TimesNewRomanPSMT-35" x="75"/>
      </g>
     </g>
    </g>
    <g id="ytick_7">
     <g id="line2d_26">
      <g>
       <use xlink:href="#m516b4a3b33" x="61.6375" y="309.044016" style="stroke: #000000; stroke-width: 0.8"/>
      </g>
     </g>
     <g id="text_25">
      <!-- 1.0 -->
      <g transform="translate(29.6375 315.987766) scale(0.2 -0.2)">
       <use xlink:href="#TimesNewRomanPSMT-31"/>
       <use xlink:href="#TimesNewRomanPSMT-2e" x="50"/>
       <use xlink:href="#TimesNewRomanPSMT-30" x="75"/>
      </g>
     </g>
    </g>
    <g id="text_26">
     <!-- CPU使用率 -->
     <g transform="translate(23.059375 388.82375) rotate(-90) scale(0.2 -0.2)">
      <use xlink:href="#SimSun-43"/>
      <use xlink:href="#SimSun-50" x="50"/>
      <use xlink:href="#SimSun-55" x="100"/>
      <use xlink:href="#SimSun-4f7f" x="150"/>
      <use xlink:href="#SimSun-7528" x="250"/>
      <use xlink:href="#SimSun-7387" x="350"/>
     </g>
    </g>
   </g>
   <g id="line2d_27">
    <path d="M 105.770077 303.899974 
L 108.845518 304.964251 
L 111.920959 299.110686 
L 114.996399 299.642825 
L 118.07184 293.789259 
L 121.147281 301.771393 
L 124.222722 294.321398 
L 127.298163 301.771393 
L 130.373604 303.367822 
L 133.449045 299.110686 
L 136.524486 299.642825 
L 139.599927 299.110686 
L 142.675367 290.596401 
L 145.750808 282.614255 
L 148.826249 294.321398 
L 151.90169 295.917827 
L 154.977131 294.321398 
L 158.052572 299.110686 
L 161.128013 296.449966 
L 164.203454 299.110686 
L 167.278895 301.239254 
L 170.354335 300.707115 
L 173.429776 298.578534 
L 176.505217 300.174963 
L 179.580658 299.110686 
L 182.656099 296.982105 
L 185.73154 299.110686 
L 188.806981 292.19283 
L 191.882422 295.917827 
L 194.957863 295.385689 
L 198.033303 295.385689 
L 201.108744 292.19283 
L 204.184185 289.53211 
L 207.259626 280.485687 
L 210.335067 281.549964 
L 213.410508 285.807113 
L 216.485949 281.549964 
L 219.56139 287.935681 
L 222.636831 289.53211 
L 225.712272 285.274961 
L 228.787712 288.999972 
L 231.863153 286.87139 
L 234.938594 286.339252 
L 238.014035 288.46782 
L 241.089476 291.660678 
L 244.164917 288.46782 
L 247.240358 288.999972 
L 250.315799 283.146393 
L 253.39124 289.53211 
L 256.46668 294.321398 
L 259.542121 284.742823 
L 262.617562 284.742823 
L 268.768444 283.678532 
L 271.843885 284.210684 
L 274.919326 287.403542 
L 277.994767 287.935681 
L 281.070208 285.807113 
L 284.145648 285.807113 
L 287.221089 287.403542 
L 290.29653 288.46782 
L 293.371971 288.999972 
L 296.447412 285.807113 
L 299.522853 278.357105 
L 302.598294 281.549964 
L 305.673735 279.953535 
L 308.749176 281.017825 
L 311.824616 283.146393 
L 314.900057 283.146393 
L 317.975498 289.53211 
L 321.050939 285.807113 
L 324.12638 284.742823 
L 327.201821 285.807113 
L 330.277262 288.46782 
L 333.352703 285.807113 
L 336.428144 285.807113 
L 339.503584 294.321398 
L 342.579025 293.789259 
L 345.654466 300.174963 
L 348.729907 299.642825 
L 351.805348 289.53211 
L 354.880789 269.310682 
L 357.95623 303.367822 
L 361.031671 298.578534 
L 364.107112 307.624971 
L 367.182552 304.964251 
L 370.257993 312.414252 
L 373.333434 295.917827 
L 376.408875 323.589257 
L 379.484316 325.185686 
L 382.559757 329.974967 
L 385.635198 334.232116 
L 388.710639 332.103542 
L 391.78608 323.589257 
L 394.86152 338.489259 
L 397.936961 343.27854 
L 401.012402 340.085688 
L 404.087843 345.407115 
L 407.163284 339.553543 
L 410.238725 331.039258 
L 413.314166 352.32497 
L 416.389607 354.985684 
L 419.465048 357.114258 
L 422.540488 355.517829 
L 425.615929 362.435685 
L 428.69137 360.839255 
L 431.766811 367.224972 
L 434.842252 368.821402 
L 437.917693 372.01426 
L 440.993134 373.610689 
L 444.068575 371.482115 
L 447.144016 400.749969 
L 450.219457 375.739257 
L 453.294897 378.399977 
L 456.370338 379.9964 
L 459.445779 382.65712 
L 462.52122 383.721404 
L 465.596661 384.253549 
L 468.672102 386.914262 
L 471.747543 387.978546 
L 474.822984 389.574975 
L 477.898425 391.703543 
L 484.049306 391.703543 
L 487.124747 394.364258 
L 493.275629 396.492826 
L 496.35107 397.024972 
L 499.426511 398.089262 
L 502.501952 397.55711 
L 505.577393 399.153539 
L 508.652833 400.21783 
L 511.728274 400.21783 
L 517.879156 401.282121 
L 520.954597 401.282121 
L 527.105479 403.410689 
L 530.18092 403.410689 
L 536.331801 404.474966 
L 539.407242 403.410689 
L 542.482683 404.474966 
L 545.558124 404.474966 
L 548.633565 405.539257 
L 551.709006 405.007118 
L 554.784447 406.603547 
L 557.859888 405.539257 
L 560.935329 405.539257 
L 564.010769 406.603547 
L 567.08621 406.603547 
L 570.161651 407.135686 
L 573.237092 406.603547 
L 579.387974 406.603547 
L 582.463415 407.135686 
L 585.538856 406.603547 
L 588.614297 407.135686 
L 591.689737 407.135686 
L 594.765178 406.603547 
L 597.840619 408.199976 
L 600.91606 407.135686 
L 603.991501 407.135686 
L 607.066942 406.603547 
L 622.444146 406.603547 
L 625.519587 406.071395 
L 628.595028 405.007118 
L 631.670469 402.346398 
L 637.821351 403.410689 
L 643.972233 401.282121 
L 647.047673 401.282121 
L 650.123114 398.621401 
L 653.198555 399.153539 
L 656.273996 399.153539 
L 659.349437 398.089262 
L 662.424878 395.960688 
L 665.500319 394.896397 
L 668.57576 379.464261 
L 671.651201 389.04283 
L 674.726642 384.785688 
L 677.802082 384.785688 
L 680.877523 381.06069 
L 683.952964 378.932116 
L 687.028405 367.757118 
L 690.103846 375.739257 
L 693.179287 369.885686 
L 696.254728 369.885686 
L 699.330169 364.564259 
L 702.40561 360.307117 
L 705.48105 318.267824 
L 708.556491 349.132112 
L 711.631932 337.424968 
L 714.707373 343.810685 
L 717.782814 337.957114 
L 720.858255 337.424968 
L 723.933696 312.414252 
L 727.009137 336.89283 
L 730.084578 333.167826 
L 733.160018 334.764255 
L 736.235459 329.974967 
L 739.3109 326.782115 
L 742.386341 307.624971 
L 745.461782 316.671395 
L 748.537223 316.139256 
L 751.612664 320.396398 
L 754.688105 318.267824 
L 757.763546 318.799969 
L 760.838986 311.349968 
L 763.914427 323.589257 
L 766.989868 323.057112 
L 770.065309 323.057112 
L 773.14075 318.267824 
L 776.216191 315.074972 
L 779.291632 304.432112 
L 782.367073 298.578534 
L 785.442514 300.707115 
L 788.517954 299.642825 
L 791.593395 296.449966 
L 794.668836 300.707115 
L 797.744277 298.046395 
L 800.819718 307.092819 
L 803.895159 307.092819 
L 810.046041 301.771393 
L 813.121482 301.239254 
L 816.196922 288.46782 
L 819.272363 287.403542 
L 822.347804 285.807113 
L 825.423245 288.46782 
L 828.498686 294.853537 
L 831.574127 295.917827 
L 834.649568 292.724969 
L 837.725009 291.660678 
L 840.80045 283.678532 
L 843.87589 287.403542 
L 846.951331 292.724969 
L 850.026772 292.19283 
L 853.102213 293.257108 
L 856.177654 272.50354 
L 859.253095 280.485687 
L 862.328536 294.321398 
L 865.403977 295.385689 
L 868.479418 288.46782 
L 871.554858 293.257108 
L 874.630299 296.982105 
L 877.70574 296.449966 
L 880.781181 295.385689 
L 883.856622 295.917827 
L 886.932063 297.514257 
L 890.007504 365.628543 
L 893.082945 271.43925 
L 896.158386 275.696399 
L 899.233827 286.339252 
L 902.309267 285.807113 
L 905.384708 288.46782 
L 908.460149 294.853537 
L 914.611031 299.110686 
L 917.686472 299.110686 
L 920.761913 302.835683 
L 923.837354 302.835683 
L 926.912795 296.449966 
L 929.988235 294.853537 
L 933.063676 297.514257 
L 936.139117 302.303544 
L 939.214558 308.15711 
L 942.289999 305.496403 
L 945.36544 306.028542 
L 948.440881 304.432112 
L 951.516322 307.624971 
L 954.591763 307.092819 
L 957.667203 306.028542 
L 960.742644 309.221394 
L 963.818085 295.385689 
L 966.893526 289.53211 
L 969.968967 300.707115 
L 973.044408 302.303544 
L 976.119849 302.303544 
L 979.19529 304.964251 
L 982.270731 300.707115 
L 985.346171 306.56068 
L 988.421612 303.899974 
L 988.421612 303.899974 
" clip-path="url(#p3db540c563)" style="fill: none; stroke: #1f77b4; stroke-width: 1.5; stroke-linecap: square"/>
   </g>
   <g id="line2d_28">
    <path d="M 548.633565 412.266658 
L 551.709006 413.756632 
L 554.784447 410.579224 
L 557.859888 410.776894 
L 560.935329 411.583144 
L 564.010769 410.245681 
L 567.08621 410.750938 
L 570.161651 412.392738 
L 573.237092 411.067578 
L 576.312533 412.031996 
L 579.387974 413.880955 
L 582.463415 415.090924 
L 585.538856 416.125902 
L 588.614297 414.507296 
L 591.689737 418.336818 
L 594.765178 416.126867 
L 597.840619 415.074735 
L 600.91606 416.054073 
L 603.991501 416.335281 
L 607.066942 415.744398 
L 610.142383 417.584595 
L 613.217824 417.103126 
L 616.293265 415.47482 
L 619.368705 415.605684 
L 622.444146 417.607894 
L 625.519587 415.551181 
L 628.595028 416.762816 
L 631.670469 408.346395 
L 634.74591 409.511431 
L 637.821351 406.063413 
L 640.896792 405.893218 
L 643.972233 405.413639 
L 647.047673 407.543767 
L 650.123114 407.504872 
L 653.198555 405.317441 
L 656.273996 405.13514 
L 659.349437 403.040894 
L 662.424878 402.333869 
L 665.500319 399.589017 
L 668.57576 390.169995 
L 671.651201 391.116777 
L 674.726642 390.75067 
L 677.802082 390.230994 
L 680.877523 384.722496 
L 683.952964 383.696412 
L 687.028405 379.900585 
L 690.103846 380.544252 
L 693.179287 375.416882 
L 696.254728 373.834131 
L 699.330169 373.547676 
L 702.40561 371.517646 
L 705.48105 356.135144 
L 708.556491 361.602996 
L 711.631932 361.345848 
L 714.707373 352.992004 
L 717.782814 348.301459 
L 720.858255 341.763058 
L 723.933696 342.122016 
L 727.009137 339.786176 
L 730.084578 336.968015 
L 733.160018 332.404197 
L 736.235459 331.520608 
L 739.3109 331.036066 
L 742.386341 313.140731 
L 745.461782 319.098517 
L 748.537223 315.618291 
L 751.612664 323.491129 
L 754.688105 320.091184 
L 757.763546 318.814454 
L 760.838986 311.843107 
L 763.914427 311.77517 
L 766.989868 313.15727 
L 770.065309 299.661142 
L 773.14075 296.99614 
L 776.216191 301.314043 
L 779.291632 296.888087 
L 782.367073 297.232216 
L 785.442514 295.105511 
L 788.517954 297.174264 
L 791.593395 299.74994 
L 794.668836 301.969539 
L 797.744277 307.136947 
L 800.819718 306.414777 
L 803.895159 306.731694 
L 806.9706 309.094085 
L 810.046041 309.190171 
L 813.121482 306.787875 
L 816.196922 287.258128 
L 819.272363 294.111754 
L 822.347804 294.954639 
L 825.423245 295.363076 
L 828.498686 297.480265 
L 831.574127 296.727262 
L 834.649568 299.030492 
L 837.725009 299.107184 
L 840.80045 298.633155 
L 843.87589 300.037372 
L 846.951331 301.804564 
L 850.026772 305.646417 
L 853.102213 292.619902 
L 856.177654 292.087922 
L 859.253095 290.089452 
L 862.328536 290.840618 
L 865.403977 291.129637 
L 868.479418 294.72373 
L 871.554858 295.116163 
L 874.630299 295.964215 
L 877.70574 299.115034 
L 880.781181 300.4627 
L 883.856622 300.215245 
L 886.932063 294.572025 
L 890.007504 353.65165 
L 893.082945 280.159756 
L 896.158386 290.519458 
L 899.233827 291.320659 
L 902.309267 291.697722 
L 905.384708 294.734461 
L 908.460149 294.046282 
L 911.53559 294.999031 
L 914.611031 298.535186 
L 917.686472 299.391167 
L 920.761913 301.254677 
L 923.837354 297.704024 
L 926.912795 282.447919 
L 929.988235 286.259745 
L 933.063676 286.890593 
L 936.139117 289.045091 
L 939.214558 295.760822 
L 942.289999 290.93749 
L 945.36544 296.667381 
L 948.440881 299.265167 
L 951.516322 298.497838 
L 954.591763 297.43549 
L 957.667203 297.233313 
L 960.742644 299.559022 
L 963.818085 289.005205 
L 966.893526 293.51528 
L 969.968967 294.325706 
L 973.044408 296.277882 
L 976.119849 297.32104 
L 982.270731 299.186664 
L 985.346171 302.452118 
L 988.421612 303.903463 
L 988.421612 303.903463 
" clip-path="url(#p3db540c563)" style="fill: none; stroke: #ff7f0e; stroke-width: 1.5; stroke-linecap: square"/>
   </g>
   <g id="line2d_29">
    <path d="M 548.633565 425.788125 
L 548.633565 261.859375 
" clip-path="url(#p3db540c563)" style="fill: none; stroke-dasharray: 7.4,3.2; stroke-dashoffset: 0; stroke: #0000ff; stroke-width: 2"/>
   </g>
   <g id="patch_9">
    <path d="M 61.6375 425.788125 
L 61.6375 261.859375 
" style="fill: none; stroke: #000000; stroke-width: 0.8; stroke-linejoin: miter; stroke-linecap: square"/>
   </g>
   <g id="patch_10">
    <path d="M 1032.554189 425.788125 
L 1032.554189 261.859375 
" style="fill: none; stroke: #000000; stroke-width: 0.8; stroke-linejoin: miter; stroke-linecap: square"/>
   </g>
   <g id="patch_11">
    <path d="M 61.6375 425.788125 
L 1032.554189 425.788125 
" style="fill: none; stroke: #000000; stroke-width: 0.8; stroke-linejoin: miter; stroke-linecap: square"/>
   </g>
   <g id="patch_12">
    <path d="M 61.6375 261.859375 
L 1032.554189 261.859375 
" style="fill: none; stroke: #000000; stroke-width: 0.8; stroke-linejoin: miter; stroke-linecap: square"/>
   </g>
   <g id="text_27">
    <!-- 云函数ID: 72 -->
    <g transform="translate(487.095845 255.859375) scale(0.2 -0.2)">
     <defs>
      <path id="SimSun-37" d="M 2825 4200 
Q 2300 3350 1987 2537 
Q 1675 1725 1675 1125 
Q 1675 1025 1700 850 
Q 1700 650 1700 400 
Q 1700 200 1637 125 
Q 1575 50 1425 50 
Q 1300 50 1212 137 
Q 1125 225 1125 450 
Q 1125 925 1337 1625 
Q 1550 2325 2475 4000 
L 1225 4000 
Q 950 4000 787 3825 
Q 625 3650 550 3300 
L 400 3325 
L 575 4375 
L 2825 4375 
L 2825 4200 
z
" transform="scale(0.015625)"/>
     </defs>
     <use xlink:href="#SimSun-4e91"/>
     <use xlink:href="#SimSun-51fd" x="100"/>
     <use xlink:href="#SimSun-6570" x="200"/>
     <use xlink:href="#SimSun-49" x="300"/>
     <use xlink:href="#SimSun-44" x="350"/>
     <use xlink:href="#SimSun-3a" x="400"/>
     <use xlink:href="#SimSun-20" x="450"/>
     <use xlink:href="#SimSun-37" x="500"/>
     <use xlink:href="#SimSun-32" x="550"/>
    </g>
   </g>
  </g>
  <g id="axes_3">
   <g id="patch_13">
    <path d="M 61.6375 658.588125 
L 1032.554189 658.588125 
L 1032.554189 494.659375 
L 61.6375 494.659375 
z
" style="fill: #ffffff"/>
   </g>
   <g id="matplotlib.axis_5">
    <g id="xtick_15">
     <g id="line2d_30">
      <g>
       <use xlink:href="#mb98a4069cb" x="105.770077" y="658.588125" style="stroke: #000000; stroke-width: 0.8"/>
      </g>
     </g>
     <g id="text_28">
      <!-- 0 -->
      <g transform="translate(100.770077 679.475625) scale(0.2 -0.2)">
       <use xlink:href="#TimesNewRomanPSMT-30"/>
      </g>
     </g>
    </g>
    <g id="xtick_16">
     <g id="line2d_31">
      <g>
       <use xlink:href="#mb98a4069cb" x="259.542121" y="658.588125" style="stroke: #000000; stroke-width: 0.8"/>
      </g>
     </g>
     <g id="text_29">
      <!-- 50 -->
      <g transform="translate(249.542121 679.475625) scale(0.2 -0.2)">
       <use xlink:href="#TimesNewRomanPSMT-35"/>
       <use xlink:href="#TimesNewRomanPSMT-30" x="50"/>
      </g>
     </g>
    </g>
    <g id="xtick_17">
     <g id="line2d_32">
      <g>
       <use xlink:href="#mb98a4069cb" x="413.314166" y="658.588125" style="stroke: #000000; stroke-width: 0.8"/>
      </g>
     </g>
     <g id="text_30">
      <!-- 100 -->
      <g transform="translate(398.314166 679.475625) scale(0.2 -0.2)">
       <use xlink:href="#TimesNewRomanPSMT-31"/>
       <use xlink:href="#TimesNewRomanPSMT-30" x="50"/>
       <use xlink:href="#TimesNewRomanPSMT-30" x="100"/>
      </g>
     </g>
    </g>
    <g id="xtick_18">
     <g id="line2d_33">
      <g>
       <use xlink:href="#mb98a4069cb" x="567.08621" y="658.588125" style="stroke: #000000; stroke-width: 0.8"/>
      </g>
     </g>
     <g id="text_31">
      <!-- 150 -->
      <g transform="translate(552.08621 679.475625) scale(0.2 -0.2)">
       <use xlink:href="#TimesNewRomanPSMT-31"/>
       <use xlink:href="#TimesNewRomanPSMT-35" x="50"/>
       <use xlink:href="#TimesNewRomanPSMT-30" x="100"/>
      </g>
     </g>
    </g>
    <g id="xtick_19">
     <g id="line2d_34">
      <g>
       <use xlink:href="#mb98a4069cb" x="720.858255" y="658.588125" style="stroke: #000000; stroke-width: 0.8"/>
      </g>
     </g>
     <g id="text_32">
      <!-- 200 -->
      <g transform="translate(705.858255 679.475625) scale(0.2 -0.2)">
       <use xlink:href="#TimesNewRomanPSMT-32"/>
       <use xlink:href="#TimesNewRomanPSMT-30" x="50"/>
       <use xlink:href="#TimesNewRomanPSMT-30" x="100"/>
      </g>
     </g>
    </g>
    <g id="xtick_20">
     <g id="line2d_35">
      <g>
       <use xlink:href="#mb98a4069cb" x="874.630299" y="658.588125" style="stroke: #000000; stroke-width: 0.8"/>
      </g>
     </g>
     <g id="text_33">
      <!-- 250 -->
      <g transform="translate(859.630299 679.475625) scale(0.2 -0.2)">
       <use xlink:href="#TimesNewRomanPSMT-32"/>
       <use xlink:href="#TimesNewRomanPSMT-35" x="50"/>
       <use xlink:href="#TimesNewRomanPSMT-30" x="100"/>
      </g>
     </g>
    </g>
    <g id="xtick_21">
     <g id="line2d_36">
      <g>
       <use xlink:href="#mb98a4069cb" x="1028.402344" y="658.588125" style="stroke: #000000; stroke-width: 0.8"/>
      </g>
     </g>
     <g id="text_34">
      <!-- 300 -->
      <g transform="translate(1013.402344 679.475625) scale(0.2 -0.2)">
       <use xlink:href="#TimesNewRomanPSMT-33"/>
       <use xlink:href="#TimesNewRomanPSMT-30" x="50"/>
       <use xlink:href="#TimesNewRomanPSMT-30" x="100"/>
      </g>
     </g>
    </g>
   </g>
   <g id="matplotlib.axis_6">
    <g id="ytick_8">
     <g id="line2d_37">
      <g>
       <use xlink:href="#m516b4a3b33" x="61.6375" y="616.303996" style="stroke: #000000; stroke-width: 0.8"/>
      </g>
     </g>
     <g id="text_35">
      <!-- 1.0 -->
      <g transform="translate(29.6375 623.247746) scale(0.2 -0.2)">
       <use xlink:href="#TimesNewRomanPSMT-31"/>
       <use xlink:href="#TimesNewRomanPSMT-2e" x="50"/>
       <use xlink:href="#TimesNewRomanPSMT-30" x="75"/>
      </g>
     </g>
    </g>
    <g id="ytick_9">
     <g id="line2d_38">
      <g>
       <use xlink:href="#m516b4a3b33" x="61.6375" y="562.682043" style="stroke: #000000; stroke-width: 0.8"/>
      </g>
     </g>
     <g id="text_36">
      <!-- 2.0 -->
      <g transform="translate(29.6375 569.625793) scale(0.2 -0.2)">
       <use xlink:href="#TimesNewRomanPSMT-32"/>
       <use xlink:href="#TimesNewRomanPSMT-2e" x="50"/>
       <use xlink:href="#TimesNewRomanPSMT-30" x="75"/>
      </g>
     </g>
    </g>
    <g id="ytick_10">
     <g id="line2d_39">
      <g>
       <use xlink:href="#m516b4a3b33" x="61.6375" y="509.06009" style="stroke: #000000; stroke-width: 0.8"/>
      </g>
     </g>
     <g id="text_37">
      <!-- 3.0 -->
      <g transform="translate(29.6375 516.00384) scale(0.2 -0.2)">
       <use xlink:href="#TimesNewRomanPSMT-33"/>
       <use xlink:href="#TimesNewRomanPSMT-2e" x="50"/>
       <use xlink:href="#TimesNewRomanPSMT-30" x="75"/>
      </g>
     </g>
    </g>
    <g id="text_38">
     <!-- CPU使用率 -->
     <g transform="translate(23.059375 621.62375) rotate(-90) scale(0.2 -0.2)">
      <use xlink:href="#SimSun-43"/>
      <use xlink:href="#SimSun-50" x="50"/>
      <use xlink:href="#SimSun-55" x="100"/>
      <use xlink:href="#SimSun-4f7f" x="150"/>
      <use xlink:href="#SimSun-7528" x="250"/>
      <use xlink:href="#SimSun-7387" x="350"/>
     </g>
    </g>
   </g>
   <g id="line2d_40">
    <path d="M 105.770077 526.047531 
L 108.845518 523.731061 
L 111.920959 524.245828 
L 114.996399 527.077064 
L 118.07184 524.760595 
L 121.147281 526.562297 
L 124.222722 523.731061 
L 127.298163 525.275374 
L 130.373604 502.110682 
L 133.449045 519.3555 
L 136.524486 526.819687 
L 139.599927 526.304908 
L 142.675367 527.591843 
L 145.750808 530.16569 
L 148.826249 526.819687 
L 151.90169 531.710002 
L 154.977131 535.570784 
L 158.052572 536.342941 
L 161.128013 535.570784 
L 164.203454 539.946333 
L 167.278895 535.828174 
L 170.354335 542.005426 
L 173.429776 542.005426 
L 176.505217 549.984367 
L 179.580658 549.726977 
L 182.656099 554.874682 
L 185.73154 555.132072 
L 188.806981 557.448541 
L 191.882422 561.309323 
L 198.033303 570.575194 
L 201.108744 565.427488 
L 204.184185 608.668228 
L 207.259626 575.208132 
L 210.335067 577.267218 
L 213.410508 580.613221 
L 216.485949 585.760932 
L 219.56139 587.820012 
L 222.636831 592.45295 
L 225.712272 593.997263 
L 228.787712 596.571115 
L 231.863153 600.174514 
L 234.938594 603.520523 
L 238.014035 606.351759 
L 241.089476 607.896072 
L 244.164917 611.756854 
L 247.240358 614.073323 
L 250.315799 615.875019 
L 253.39124 619.478415 
L 256.46668 622.567041 
L 259.542121 621.280114 
L 265.693003 626.942592 
L 268.768444 628.229519 
L 271.843885 630.288601 
L 274.919326 630.545988 
L 277.994767 629.773832 
L 281.070208 628.229519 
L 284.145648 629.773832 
L 287.221089 631.575528 
L 290.29653 631.832914 
L 293.371971 633.377227 
L 296.447412 633.891997 
L 299.522853 635.178923 
L 302.598294 636.723236 
L 305.673735 637.238006 
L 308.749176 636.980619 
L 311.824616 638.524932 
L 314.900057 640.841401 
L 317.975498 643.415257 
L 321.050939 644.702184 
L 324.12638 645.216953 
L 327.201821 646.50388 
L 333.352703 646.50388 
L 336.428144 647.01865 
L 339.503584 647.790806 
L 345.654466 648.305579 
L 348.729907 648.305579 
L 351.805348 640.584015 
L 354.880789 650.879432 
L 357.95623 650.364662 
L 361.031671 650.879432 
L 364.107112 650.364662 
L 367.182552 651.136818 
L 370.257993 650.364662 
L 373.333434 650.364662 
L 379.484316 650.879432 
L 382.559757 650.622045 
L 385.635198 650.622045 
L 388.710639 648.305579 
L 391.78608 649.077735 
L 394.86152 648.562962 
L 397.936961 648.562962 
L 401.012402 648.048193 
L 407.163284 645.47434 
L 410.238725 644.959567 
L 413.314166 643.930027 
L 416.389607 642.643101 
L 419.465048 641.613558 
L 422.540488 639.297089 
L 425.615929 629.773832 
L 428.69137 633.119841 
L 431.766811 630.545988 
L 434.842252 629.001675 
L 437.917693 625.91305 
L 440.993134 624.111353 
L 444.068575 614.84548 
L 447.144016 615.875019 
L 450.219457 612.271627 
L 453.294897 609.955158 
L 456.370338 605.322219 
L 459.445779 604.807446 
L 462.52122 569.545654 
L 465.596661 592.710333 
L 468.672102 589.364324 
L 471.747543 586.533088 
L 474.822984 581.90015 
L 477.898425 582.157533 
L 480.973865 575.980288 
L 484.049306 575.208132 
L 487.124747 570.832583 
L 490.200188 573.149053 
L 493.275629 565.684872 
L 496.35107 563.111019 
L 499.426511 547.925287 
L 502.501952 550.499133 
L 505.577393 550.241756 
L 508.652833 550.499133 
L 511.728274 546.895741 
L 514.803715 547.153131 
L 517.879156 544.579272 
L 520.954597 551.528679 
L 524.030038 552.043446 
L 527.105479 550.756523 
L 530.18092 550.756523 
L 533.256361 543.292349 
L 536.331801 543.292349 
L 539.407242 541.748036 
L 542.482683 543.034959 
L 545.558124 542.262802 
L 548.633565 534.283861 
L 551.709006 545.094038 
L 554.784447 539.431567 
L 557.859888 547.410508 
L 560.935329 549.21221 
L 564.010769 549.726977 
L 567.08621 542.777569 
L 570.161651 547.925287 
L 573.237092 529.9083 
L 576.312533 534.541238 
L 579.387974 533.511705 
L 582.463415 542.262802 
L 585.538856 544.321882 
L 588.614297 547.667897 
L 591.689737 548.440054 
L 594.765178 544.064505 
L 597.840619 542.520192 
L 600.91606 543.292349 
L 603.991501 547.153131 
L 607.066942 550.499133 
L 610.142383 546.380974 
L 613.217824 540.461113 
L 616.293265 542.262802 
L 619.368705 549.21221 
L 622.444146 548.697443 
L 625.519587 542.262802 
L 628.595028 547.925287 
L 631.670469 551.528679 
L 634.74591 550.756523 
L 637.821351 546.380974 
L 640.896792 546.123585 
L 643.972233 548.440054 
L 647.047673 588.849558 
L 650.123114 525.017984 
L 653.198555 527.077064 
L 656.273996 536.085551 
L 659.349437 537.372487 
L 662.424878 537.372487 
L 665.500319 540.203723 
L 668.57576 544.836661 
L 671.651201 543.292349 
L 674.726642 548.182664 
L 677.802082 544.321882 
L 680.877523 549.726977 
L 683.952964 542.262802 
L 687.028405 541.490646 
L 690.103846 547.667897 
L 693.179287 554.102526 
L 696.254728 552.815602 
L 699.330169 552.043446 
L 702.40561 548.440054 
L 705.48105 552.558213 
L 708.556491 552.558213 
L 711.631932 555.132072 
L 714.707373 552.043446 
L 717.782814 553.587759 
L 720.858255 540.203723 
L 723.933696 536.600331 
L 727.009137 549.21221 
L 730.084578 550.241756 
L 733.160018 542.520192 
L 736.235459 542.005426 
L 739.3109 539.431567 
L 742.386341 544.579272 
L 745.461782 548.697443 
L 748.537223 555.132072 
L 751.612664 551.27129 
L 754.688105 549.4696 
L 757.763546 542.520192 
L 760.838986 542.777569 
L 766.989868 551.528679 
L 770.065309 551.27129 
L 773.14075 552.558213 
L 776.216191 549.21221 
L 782.367073 549.21221 
L 785.442514 551.528679 
L 788.517954 551.27129 
L 791.593395 548.95482 
L 794.668836 546.895741 
L 797.744277 546.895741 
L 800.819718 552.558213 
L 803.895159 540.71849 
L 806.9706 542.520192 
L 810.046041 548.182664 
L 813.121482 536.600331 
L 816.196922 543.549726 
L 819.272363 546.380974 
L 822.347804 546.638351 
L 825.423245 534.026472 
L 828.498686 539.431567 
L 831.574127 534.798628 
L 834.649568 534.798628 
L 837.725009 527.077064 
L 840.80045 536.085551 
L 843.87589 534.283861 
L 846.951331 531.452613 
L 850.026772 523.731061 
L 853.102213 526.047531 
L 856.177654 524.503218 
L 859.253095 523.473672 
L 862.328536 526.819687 
L 865.403977 523.988438 
L 868.479418 513.950418 
L 871.554858 521.157202 
L 874.630299 516.009497 
L 877.70574 511.376559 
L 880.781181 513.435638 
L 883.856622 510.861792 
L 886.932063 504.169761 
L 890.007504 514.207795 
L 893.082945 507.515777 
L 896.158386 510.347013 
L 899.233827 510.347013 
L 902.309267 505.456697 
L 905.384708 513.178261 
L 908.460149 516.009497 
L 911.53559 520.899813 
L 914.611031 514.979951 
L 917.686472 506.228854 
L 920.761913 524.503218 
L 923.837354 517.55381 
L 926.912795 522.701515 
L 929.988235 524.245828 
L 933.063676 527.077064 
L 936.139117 522.701515 
L 939.214558 526.047531 
L 942.289999 514.207795 
L 945.36544 520.127656 
L 948.440881 520.385046 
L 951.516322 525.790141 
L 954.591763 520.127656 
L 957.667203 524.760595 
L 960.742644 523.988438 
L 963.818085 521.157202 
L 966.893526 526.819687 
L 969.968967 526.819687 
L 973.044408 525.017984 
L 976.119849 521.157202 
L 979.19529 504.427151 
L 982.270731 518.583343 
L 985.346171 517.811187 
L 988.421612 519.61289 
L 988.421612 519.61289 
" clip-path="url(#p01c13b71dc)" style="fill: none; stroke: #1f77b4; stroke-width: 1.5; stroke-linecap: square"/>
   </g>
   <g id="line2d_41">
    <path d="M 548.633565 547.612387 
L 551.709006 548.915304 
L 554.784447 547.340845 
L 557.859888 551.134445 
L 560.935329 551.284381 
L 564.010769 549.971378 
L 567.08621 551.91477 
L 570.161651 547.368447 
L 573.237092 546.185103 
L 576.312533 546.924148 
L 579.387974 546.941663 
L 582.463415 545.714609 
L 585.538856 549.011788 
L 588.614297 549.156508 
L 591.689737 550.319665 
L 594.765178 554.753498 
L 597.840619 554.490151 
L 600.91606 553.121011 
L 603.991501 554.976945 
L 607.066942 550.325469 
L 610.142383 544.197144 
L 613.217824 544.854138 
L 616.293265 545.395573 
L 622.444146 548.100153 
L 625.519587 547.510469 
L 628.595028 548.447047 
L 631.670469 549.585299 
L 634.74591 547.935873 
L 637.821351 540.752547 
L 640.896792 540.678385 
L 643.972233 551.188139 
L 647.047673 607.214538 
L 650.123114 533.491991 
L 653.198555 534.245713 
L 656.273996 535.424965 
L 659.349437 538.240974 
L 662.424878 542.518556 
L 665.500319 545.533441 
L 668.57576 547.119623 
L 674.726642 545.563522 
L 677.802082 547.626246 
L 680.877523 549.302008 
L 683.952964 532.58331 
L 687.028405 537.785604 
L 690.103846 544.806516 
L 693.179287 544.788758 
L 696.254728 546.285909 
L 699.330169 542.761077 
L 702.40561 546.664726 
L 705.48105 544.881791 
L 708.556491 551.007214 
L 711.631932 552.16472 
L 714.707373 552.055527 
L 717.782814 550.63112 
L 720.858255 543.029756 
L 723.933696 547.725325 
L 727.009137 547.967668 
L 730.084578 548.874892 
L 733.160018 552.404863 
L 736.235459 551.109809 
L 739.3109 554.22991 
L 742.386341 553.977928 
L 745.461782 553.538372 
L 748.537223 554.557908 
L 751.612664 553.079909 
L 754.688105 554.524234 
L 757.763546 544.322764 
L 760.838986 550.139979 
L 763.914427 552.817149 
L 766.989868 553.313033 
L 770.065309 561.51188 
L 773.14075 556.953309 
L 776.216191 557.781039 
L 779.291632 556.301122 
L 782.367073 556.039692 
L 785.442514 559.862006 
L 788.517954 559.434506 
L 791.593395 555.537173 
L 794.668836 547.792124 
L 797.744277 553.348293 
L 800.819718 552.478962 
L 803.895159 552.987554 
L 806.9706 550.502675 
L 810.046041 548.966199 
L 813.121482 548.192738 
L 816.196922 552.413902 
L 819.272363 551.74117 
L 822.347804 547.932996 
L 828.498686 547.72218 
L 831.574127 539.918054 
L 834.649568 543.89497 
L 837.725009 542.300235 
L 840.80045 541.173067 
L 843.87589 538.198223 
L 846.951331 537.328381 
L 850.026772 534.45052 
L 853.102213 534.491494 
L 856.177654 534.809354 
L 859.253095 532.798562 
L 862.328536 529.068526 
L 865.403977 529.318795 
L 868.479418 520.24342 
L 871.554858 522.593435 
L 874.630299 523.334641 
L 877.70574 521.57638 
L 880.781181 520.090428 
L 883.856622 518.774139 
L 886.932063 520.191195 
L 890.007504 522.940546 
L 893.082945 524.731472 
L 896.158386 526.030105 
L 899.233827 527.561634 
L 902.309267 534.353831 
L 905.384708 516.076667 
L 908.460149 529.468233 
L 911.53559 521.311242 
L 914.611031 516.414458 
L 917.686472 529.645553 
L 920.761913 524.020809 
L 923.837354 524.142299 
L 926.912795 527.210316 
L 929.988235 523.765912 
L 933.063676 531.851757 
L 936.139117 531.412163 
L 939.214558 528.192995 
L 942.289999 510.734433 
L 945.36544 521.960796 
L 948.440881 523.678492 
L 951.516322 529.540785 
L 954.591763 520.632643 
L 957.667203 520.716215 
L 960.742644 519.385786 
L 963.818085 521.701348 
L 966.893526 520.542487 
L 969.968967 522.462548 
L 973.044408 521.919144 
L 976.119849 521.838768 
L 979.19529 514.502822 
L 982.270731 519.052636 
L 985.346171 518.696128 
L 988.421612 519.905539 
L 988.421612 519.905539 
" clip-path="url(#p01c13b71dc)" style="fill: none; stroke: #ff7f0e; stroke-width: 1.5; stroke-linecap: square"/>
   </g>
   <g id="line2d_42">
    <path d="M 548.633565 658.588125 
L 548.633565 494.659375 
" clip-path="url(#p01c13b71dc)" style="fill: none; stroke-dasharray: 7.4,3.2; stroke-dashoffset: 0; stroke: #0000ff; stroke-width: 2"/>
   </g>
   <g id="patch_14">
    <path d="M 61.6375 658.588125 
L 61.6375 494.659375 
" style="fill: none; stroke: #000000; stroke-width: 0.8; stroke-linejoin: miter; stroke-linecap: square"/>
   </g>
   <g id="patch_15">
    <path d="M 1032.554189 658.588125 
L 1032.554189 494.659375 
" style="fill: none; stroke: #000000; stroke-width: 0.8; stroke-linejoin: miter; stroke-linecap: square"/>
   </g>
   <g id="patch_16">
    <path d="M 61.6375 658.588125 
L 1032.554189 658.588125 
" style="fill: none; stroke: #000000; stroke-width: 0.8; stroke-linejoin: miter; stroke-linecap: square"/>
   </g>
   <g id="patch_17">
    <path d="M 61.6375 494.659375 
L 1032.554189 494.659375 
" style="fill: none; stroke: #000000; stroke-width: 0.8; stroke-linejoin: miter; stroke-linecap: square"/>
   </g>
   <g id="text_39">
    <!-- 云函数ID: 150 -->
    <g transform="translate(482.095845 488.659375) scale(0.2 -0.2)">
     <defs>
      <path id="SimSun-31" d="M 1825 4450 
L 1825 650 
Q 1825 450 1950 350 
Q 2075 250 2300 250 
L 2550 250 
L 2550 100 
L 725 100 
L 725 250 
L 950 250 
Q 1200 250 1312 350 
Q 1425 450 1425 650 
L 1425 3675 
Q 1425 3775 1362 3837 
Q 1300 3900 1175 3900 
L 725 3900 
L 725 4050 
L 950 4050 
Q 1250 4050 1437 4150 
Q 1625 4250 1725 4450 
L 1825 4450 
z
" transform="scale(0.015625)"/>
      <path id="SimSun-35" d="M 1725 2850 
Q 2200 2850 2500 2487 
Q 2800 2125 2800 1525 
Q 2800 850 2487 450 
Q 2175 50 1525 50 
Q 1075 50 725 312 
Q 375 575 375 950 
Q 375 1100 462 1212 
Q 550 1325 700 1325 
Q 850 1325 900 1225 
Q 950 1125 950 1050 
Q 950 900 875 825 
Q 800 725 800 625 
Q 800 425 1037 325 
Q 1275 225 1550 225 
Q 1950 225 2162 550 
Q 2375 875 2375 1475 
Q 2375 1975 2187 2287 
Q 2000 2600 1625 2600 
Q 1350 2600 1150 2500 
Q 950 2400 775 2075 
L 550 2100 
L 675 4375 
L 2725 4375 
L 2650 4000 
L 850 4000 
L 750 2350 
Q 1000 2700 1237 2775 
Q 1475 2850 1725 2850 
z
" transform="scale(0.015625)"/>
      <path id="SimSun-30" d="M 1600 4225 
Q 1250 4225 1012 3687 
Q 775 3150 775 2250 
Q 775 1300 1012 775 
Q 1250 250 1600 250 
Q 1975 250 2187 775 
Q 2400 1300 2400 2250 
Q 2400 3150 2200 3687 
Q 2000 4225 1600 4225 
z
M 1600 50 
Q 1050 50 675 625 
Q 300 1200 300 2250 
Q 300 3225 662 3825 
Q 1025 4425 1600 4425 
Q 2150 4425 2512 3850 
Q 2875 3275 2875 2250 
Q 2875 1225 2512 637 
Q 2150 50 1600 50 
z
" transform="scale(0.015625)"/>
     </defs>
     <use xlink:href="#SimSun-4e91"/>
     <use xlink:href="#SimSun-51fd" x="100"/>
     <use xlink:href="#SimSun-6570" x="200"/>
     <use xlink:href="#SimSun-49" x="300"/>
     <use xlink:href="#SimSun-44" x="350"/>
     <use xlink:href="#SimSun-3a" x="400"/>
     <use xlink:href="#SimSun-20" x="450"/>
     <use xlink:href="#SimSun-31" x="500"/>
     <use xlink:href="#SimSun-35" x="550"/>
     <use xlink:href="#SimSun-30" x="600"/>
    </g>
   </g>
  </g>
 </g>
 <defs>
  <clipPath id="p09c12256b3">
   <rect x="61.6375" y="29.059375" width="970.916689" height="163.92875"/>
  </clipPath>
  <clipPath id="p3db540c563">
   <rect x="61.6375" y="261.859375" width="970.916689" height="163.92875"/>
  </clipPath>
  <clipPath id="p01c13b71dc">
   <rect x="61.6375" y="494.659375" width="970.916689" height="163.92875"/>
  </clipPath>
 </defs>
</svg>
