<?xml version="1.0" encoding="utf-8" standalone="no"?>
<!DOCTYPE svg PUBLIC "-//W3C//DTD SVG 1.1//EN"
  "http://www.w3.org/Graphics/SVG/1.1/DTD/svg11.dtd">
<svg xmlns:xlink="http://www.w3.org/1999/xlink" width="1050.602344pt" height="690.86625pt" viewBox="0 0 1050.602344 690.86625" xmlns="http://www.w3.org/2000/svg" version="1.1">
 <metadata>
  <rdf:RDF xmlns:dc="http://purl.org/dc/elements/1.1/" xmlns:cc="http://creativecommons.org/ns#" xmlns:rdf="http://www.w3.org/1999/02/22-rdf-syntax-ns#">
   <cc:Work>
    <dc:type rdf:resource="http://purl.org/dc/dcmitype/StillImage"/>
    <dc:date>2024-02-27T19:51:20.017101</dc:date>
    <dc:format>image/svg+xml</dc:format>
    <dc:creator>
     <cc:Agent>
      <dc:title>Matplotlib v3.7.1, https://matplotlib.org/</dc:title>
     </cc:Agent>
    </dc:creator>
   </cc:Work>
  </rdf:RDF>
 </metadata>
 <defs>
  <style type="text/css">*{stroke-linejoin: round; stroke-linecap: butt}</style>
 </defs>
 <g id="figure_1">
  <g id="patch_1">
   <path d="M 0 690.86625 
L 1050.602344 690.86625 
L 1050.602344 0 
L 0 0 
z
" style="fill: #ffffff"/>
  </g>
  <g id="axes_1">
   <g id="patch_2">
    <path d="M 61.6375 192.900625 
L 1032.554189 192.900625 
L 1032.554189 27.340625 
L 61.6375 27.340625 
z
" style="fill: #ffffff"/>
   </g>
   <g id="matplotlib.axis_1">
    <g id="xtick_1">
     <g id="line2d_1">
      <defs>
       <path id="m4888b5973a" d="M 0 0 
L 0 3.5 
" style="stroke: #000000; stroke-width: 0.8"/>
      </defs>
      <g>
       <use xlink:href="#m4888b5973a" x="105.770077" y="192.900625" style="stroke: #000000; stroke-width: 0.8"/>
      </g>
     </g>
     <g id="text_1">
      <!-- 0 -->
      <g transform="translate(100.770077 213.788125) scale(0.2 -0.2)">
       <defs>
        <path id="TimesNewRomanPSMT-30" d="M 231 2094 
Q 231 2819 450 3342 
Q 669 3866 1031 4122 
Q 1313 4325 1613 4325 
Q 2100 4325 2488 3828 
Q 2972 3213 2972 2159 
Q 2972 1422 2759 906 
Q 2547 391 2217 158 
Q 1888 -75 1581 -75 
Q 975 -75 572 641 
Q 231 1244 231 2094 
z
M 844 2016 
Q 844 1141 1059 588 
Q 1238 122 1591 122 
Q 1759 122 1940 273 
Q 2122 425 2216 781 
Q 2359 1319 2359 2297 
Q 2359 3022 2209 3506 
Q 2097 3866 1919 4016 
Q 1791 4119 1609 4119 
Q 1397 4119 1231 3928 
Q 1006 3669 925 3112 
Q 844 2556 844 2016 
z
" transform="scale(0.015625)"/>
       </defs>
       <use xlink:href="#TimesNewRomanPSMT-30"/>
      </g>
     </g>
    </g>
    <g id="xtick_2">
     <g id="line2d_2">
      <g>
       <use xlink:href="#m4888b5973a" x="259.542121" y="192.900625" style="stroke: #000000; stroke-width: 0.8"/>
      </g>
     </g>
     <g id="text_2">
      <!-- 50 -->
      <g transform="translate(249.542121 213.788125) scale(0.2 -0.2)">
       <defs>
        <path id="TimesNewRomanPSMT-35" d="M 2778 4238 
L 2534 3706 
L 1259 3706 
L 981 3138 
Q 1809 3016 2294 2522 
Q 2709 2097 2709 1522 
Q 2709 1188 2573 903 
Q 2438 619 2231 419 
Q 2025 219 1772 97 
Q 1413 -75 1034 -75 
Q 653 -75 479 54 
Q 306 184 306 341 
Q 306 428 378 495 
Q 450 563 559 563 
Q 641 563 702 538 
Q 763 513 909 409 
Q 1144 247 1384 247 
Q 1750 247 2026 523 
Q 2303 800 2303 1197 
Q 2303 1581 2056 1914 
Q 1809 2247 1375 2428 
Q 1034 2569 447 2591 
L 1259 4238 
L 2778 4238 
z
" transform="scale(0.015625)"/>
       </defs>
       <use xlink:href="#TimesNewRomanPSMT-35"/>
       <use xlink:href="#TimesNewRomanPSMT-30" x="50"/>
      </g>
     </g>
    </g>
    <g id="xtick_3">
     <g id="line2d_3">
      <g>
       <use xlink:href="#m4888b5973a" x="413.314166" y="192.900625" style="stroke: #000000; stroke-width: 0.8"/>
      </g>
     </g>
     <g id="text_3">
      <!-- 100 -->
      <g transform="translate(398.314166 213.788125) scale(0.2 -0.2)">
       <defs>
        <path id="TimesNewRomanPSMT-31" d="M 750 3822 
L 1781 4325 
L 1884 4325 
L 1884 747 
Q 1884 391 1914 303 
Q 1944 216 2037 169 
Q 2131 122 2419 116 
L 2419 0 
L 825 0 
L 825 116 
Q 1125 122 1212 167 
Q 1300 213 1334 289 
Q 1369 366 1369 747 
L 1369 3034 
Q 1369 3497 1338 3628 
Q 1316 3728 1258 3775 
Q 1200 3822 1119 3822 
Q 1003 3822 797 3725 
L 750 3822 
z
" transform="scale(0.015625)"/>
       </defs>
       <use xlink:href="#TimesNewRomanPSMT-31"/>
       <use xlink:href="#TimesNewRomanPSMT-30" x="50"/>
       <use xlink:href="#TimesNewRomanPSMT-30" x="100"/>
      </g>
     </g>
    </g>
    <g id="xtick_4">
     <g id="line2d_4">
      <g>
       <use xlink:href="#m4888b5973a" x="567.08621" y="192.900625" style="stroke: #000000; stroke-width: 0.8"/>
      </g>
     </g>
     <g id="text_4">
      <!-- 150 -->
      <g transform="translate(552.08621 213.788125) scale(0.2 -0.2)">
       <use xlink:href="#TimesNewRomanPSMT-31"/>
       <use xlink:href="#TimesNewRomanPSMT-35" x="50"/>
       <use xlink:href="#TimesNewRomanPSMT-30" x="100"/>
      </g>
     </g>
    </g>
    <g id="xtick_5">
     <g id="line2d_5">
      <g>
       <use xlink:href="#m4888b5973a" x="720.858255" y="192.900625" style="stroke: #000000; stroke-width: 0.8"/>
      </g>
     </g>
     <g id="text_5">
      <!-- 200 -->
      <g transform="translate(705.858255 213.788125) scale(0.2 -0.2)">
       <defs>
        <path id="TimesNewRomanPSMT-32" d="M 2934 816 
L 2638 0 
L 138 0 
L 138 116 
Q 1241 1122 1691 1759 
Q 2141 2397 2141 2925 
Q 2141 3328 1894 3587 
Q 1647 3847 1303 3847 
Q 991 3847 742 3664 
Q 494 3481 375 3128 
L 259 3128 
Q 338 3706 661 4015 
Q 984 4325 1469 4325 
Q 1984 4325 2329 3994 
Q 2675 3663 2675 3213 
Q 2675 2891 2525 2569 
Q 2294 2063 1775 1497 
Q 997 647 803 472 
L 1909 472 
Q 2247 472 2383 497 
Q 2519 522 2628 598 
Q 2738 675 2819 816 
L 2934 816 
z
" transform="scale(0.015625)"/>
       </defs>
       <use xlink:href="#TimesNewRomanPSMT-32"/>
       <use xlink:href="#TimesNewRomanPSMT-30" x="50"/>
       <use xlink:href="#TimesNewRomanPSMT-30" x="100"/>
      </g>
     </g>
    </g>
    <g id="xtick_6">
     <g id="line2d_6">
      <g>
       <use xlink:href="#m4888b5973a" x="874.630299" y="192.900625" style="stroke: #000000; stroke-width: 0.8"/>
      </g>
     </g>
     <g id="text_6">
      <!-- 250 -->
      <g transform="translate(859.630299 213.788125) scale(0.2 -0.2)">
       <use xlink:href="#TimesNewRomanPSMT-32"/>
       <use xlink:href="#TimesNewRomanPSMT-35" x="50"/>
       <use xlink:href="#TimesNewRomanPSMT-30" x="100"/>
      </g>
     </g>
    </g>
    <g id="xtick_7">
     <g id="line2d_7">
      <g>
       <use xlink:href="#m4888b5973a" x="1028.402344" y="192.900625" style="stroke: #000000; stroke-width: 0.8"/>
      </g>
     </g>
     <g id="text_7">
      <!-- 300 -->
      <g transform="translate(1013.402344 213.788125) scale(0.2 -0.2)">
       <defs>
        <path id="TimesNewRomanPSMT-33" d="M 325 3431 
Q 506 3859 782 4092 
Q 1059 4325 1472 4325 
Q 1981 4325 2253 3994 
Q 2459 3747 2459 3466 
Q 2459 3003 1878 2509 
Q 2269 2356 2469 2072 
Q 2669 1788 2669 1403 
Q 2669 853 2319 450 
Q 1863 -75 997 -75 
Q 569 -75 414 31 
Q 259 138 259 259 
Q 259 350 332 419 
Q 406 488 509 488 
Q 588 488 669 463 
Q 722 447 909 348 
Q 1097 250 1169 231 
Q 1284 197 1416 197 
Q 1734 197 1970 444 
Q 2206 691 2206 1028 
Q 2206 1275 2097 1509 
Q 2016 1684 1919 1775 
Q 1784 1900 1550 2001 
Q 1316 2103 1072 2103 
L 972 2103 
L 972 2197 
Q 1219 2228 1467 2375 
Q 1716 2522 1828 2728 
Q 1941 2934 1941 3181 
Q 1941 3503 1739 3701 
Q 1538 3900 1238 3900 
Q 753 3900 428 3381 
L 325 3431 
z
" transform="scale(0.015625)"/>
       </defs>
       <use xlink:href="#TimesNewRomanPSMT-33"/>
       <use xlink:href="#TimesNewRomanPSMT-30" x="50"/>
       <use xlink:href="#TimesNewRomanPSMT-30" x="100"/>
      </g>
     </g>
    </g>
   </g>
   <g id="matplotlib.axis_2">
    <g id="ytick_1">
     <g id="line2d_8">
      <defs>
       <path id="m21924fae60" d="M 0 0 
L -3.5 0 
" style="stroke: #000000; stroke-width: 0.8"/>
      </defs>
      <g>
       <use xlink:href="#m21924fae60" x="61.6375" y="170.384225" style="stroke: #000000; stroke-width: 0.8"/>
      </g>
     </g>
     <g id="text_8">
      <!-- 2.5 -->
      <g transform="translate(29.6375 177.327975) scale(0.2 -0.2)">
       <defs>
        <path id="TimesNewRomanPSMT-2e" d="M 800 606 
Q 947 606 1047 504 
Q 1147 403 1147 259 
Q 1147 116 1045 14 
Q 944 -88 800 -88 
Q 656 -88 554 14 
Q 453 116 453 259 
Q 453 406 554 506 
Q 656 606 800 606 
z
" transform="scale(0.015625)"/>
       </defs>
       <use xlink:href="#TimesNewRomanPSMT-32"/>
       <use xlink:href="#TimesNewRomanPSMT-2e" x="50"/>
       <use xlink:href="#TimesNewRomanPSMT-35" x="75"/>
      </g>
     </g>
    </g>
    <g id="ytick_2">
     <g id="line2d_9">
      <g>
       <use xlink:href="#m21924fae60" x="61.6375" y="120.414405" style="stroke: #000000; stroke-width: 0.8"/>
      </g>
     </g>
     <g id="text_9">
      <!-- 5.0 -->
      <g transform="translate(29.6375 127.358155) scale(0.2 -0.2)">
       <use xlink:href="#TimesNewRomanPSMT-35"/>
       <use xlink:href="#TimesNewRomanPSMT-2e" x="50"/>
       <use xlink:href="#TimesNewRomanPSMT-30" x="75"/>
      </g>
     </g>
    </g>
    <g id="ytick_3">
     <g id="line2d_10">
      <g>
       <use xlink:href="#m21924fae60" x="61.6375" y="70.444586" style="stroke: #000000; stroke-width: 0.8"/>
      </g>
     </g>
     <g id="text_10">
      <!-- 7.5 -->
      <g transform="translate(29.6375 77.388336) scale(0.2 -0.2)">
       <defs>
        <path id="TimesNewRomanPSMT-37" d="M 644 4238 
L 2916 4238 
L 2916 4119 
L 1503 -88 
L 1153 -88 
L 2419 3728 
L 1253 3728 
Q 900 3728 750 3644 
Q 488 3500 328 3200 
L 238 3234 
L 644 4238 
z
" transform="scale(0.015625)"/>
       </defs>
       <use xlink:href="#TimesNewRomanPSMT-37"/>
       <use xlink:href="#TimesNewRomanPSMT-2e" x="50"/>
       <use xlink:href="#TimesNewRomanPSMT-35" x="75"/>
      </g>
     </g>
    </g>
    <g id="text_11">
     <!-- CPU使用率 -->
     <g transform="translate(23.059375 155.120625) rotate(-90) scale(0.2 -0.2)">
      <defs>
       <path id="SimSun-43" d="M 1725 50 
Q 1025 50 612 575 
Q 200 1100 200 2225 
Q 200 3175 637 3800 
Q 1075 4425 1825 4425 
Q 2000 4425 2175 4375 
Q 2350 4300 2475 4300 
Q 2575 4300 2637 4325 
Q 2700 4350 2750 4425 
L 2975 3325 
L 2825 3275 
Q 2675 3750 2425 4000 
Q 2175 4250 1775 4250 
Q 1250 4250 962 3675 
Q 675 3100 675 2250 
Q 675 1325 925 800 
Q 1175 275 1750 275 
Q 2150 275 2437 562 
Q 2725 850 2825 1325 
L 2975 1250 
Q 2850 725 2512 387 
Q 2175 50 1725 50 
z
" transform="scale(0.015625)"/>
       <path id="SimSun-50" d="M 950 2100 
L 950 450 
Q 950 350 1012 300 
Q 1075 250 1175 250 
L 1350 250 
L 1350 100 
L 150 100 
L 150 250 
L 325 250 
Q 450 250 500 300 
Q 550 350 550 450 
L 550 4025 
Q 550 4125 500 4175 
Q 450 4225 325 4225 
L 175 4225 
L 175 4375 
L 1650 4375 
Q 2275 4375 2612 4062 
Q 2950 3750 2950 3275 
Q 2950 2700 2587 2400 
Q 2225 2100 1725 2100 
L 950 2100 
z
M 1575 2250 
Q 1950 2250 2237 2475 
Q 2525 2700 2525 3250 
Q 2525 3750 2287 3987 
Q 2050 4225 1525 4225 
L 1175 4225 
Q 1075 4225 1012 4175 
Q 950 4125 950 4025 
L 950 2250 
L 1575 2250 
z
" transform="scale(0.015625)"/>
       <path id="SimSun-55" d="M 1625 250 
Q 2000 250 2262 500 
Q 2525 750 2525 1125 
L 2525 4025 
Q 2525 4125 2475 4175 
Q 2425 4225 2300 4225 
L 2150 4225 
L 2150 4375 
L 3050 4375 
L 3050 4225 
L 2900 4225 
Q 2800 4225 2737 4175 
Q 2675 4125 2675 4025 
L 2675 1125 
Q 2675 625 2337 337 
Q 2000 50 1575 50 
Q 1125 50 787 300 
Q 450 550 450 1100 
L 450 4025 
Q 450 4125 400 4175 
Q 350 4225 225 4225 
L 100 4225 
L 100 4375 
L 1200 4375 
L 1200 4225 
L 1075 4225 
Q 975 4225 912 4175 
Q 850 4125 850 4025 
L 850 1100 
Q 850 600 1062 425 
Q 1275 250 1625 250 
z
" transform="scale(0.015625)"/>
       <path id="SimSun-4f7f" d="M 2875 3150 
L 2875 2100 
L 3825 2100 
Q 3850 2825 3850 3150 
L 2875 3150 
z
M 4175 3150 
Q 4175 2800 4150 2100 
L 5150 2100 
L 5150 3150 
L 4175 3150 
z
M 5475 3100 
L 5475 2425 
Q 5475 2100 5500 1800 
L 5150 1675 
L 5150 1950 
L 4150 1950 
Q 4125 1175 3875 600 
Q 4275 275 4875 75 
Q 5475 -125 6075 -150 
L 6075 -250 
Q 5700 -300 5600 -575 
Q 4525 -325 3725 350 
Q 3425 25 2925 -225 
Q 2425 -475 1875 -650 
L 1825 -550 
Q 2400 -325 2850 -25 
Q 3300 275 3500 575 
Q 3200 925 2825 1650 
L 2900 1700 
Q 3325 1100 3625 825 
Q 3800 1300 3825 1950 
L 2875 1950 
L 2875 1825 
L 2525 1675 
Q 2550 2075 2550 2562 
Q 2550 3050 2525 3500 
L 2875 3300 
L 3850 3300 
L 3850 4025 
L 2975 4025 
Q 2650 4025 2375 3950 
L 2150 4175 
L 3850 4175 
L 3850 4525 
Q 3850 4775 3825 5225 
L 4350 5000 
L 4175 4825 
L 4175 4175 
L 5300 4175 
L 5600 4475 
L 6050 4025 
L 4175 4025 
L 4175 3300 
L 5100 3300 
L 5275 3525 
L 5650 3225 
L 5475 3100 
z
M 1675 3175 
L 1675 -450 
L 1325 -625 
Q 1350 -75 1350 350 
L 1350 3200 
Q 900 2475 350 1900 
L 275 1950 
Q 700 2525 1112 3400 
Q 1525 4275 1800 5250 
L 2325 4925 
L 2125 4800 
Q 1725 3925 1500 3525 
L 1875 3325 
L 1675 3175 
z
" transform="scale(0.015625)"/>
       <path id="SimSun-7528" d="M 3400 3150 
L 3400 1825 
L 5075 1825 
L 5075 3150 
L 3400 3150 
z
M 4075 100 
Q 4725 50 4900 62 
Q 5075 75 5075 400 
L 5075 1675 
L 3400 1675 
Q 3400 75 3425 -225 
L 3050 -400 
Q 3075 1025 3075 1675 
L 1425 1675 
Q 1250 350 375 -600 
L 300 -550 
Q 775 225 950 1025 
Q 1125 1825 1125 3225 
Q 1125 4625 1100 5075 
L 1475 4825 
L 5050 4825 
L 5225 5100 
L 5625 4800 
L 5425 4600 
L 5425 225 
Q 5450 -400 4875 -575 
Q 4825 -150 4075 -25 
L 4075 100 
z
M 1475 4675 
L 1475 3300 
L 3075 3300 
L 3075 4675 
L 1475 4675 
z
M 3400 4675 
L 3400 3300 
L 5075 3300 
L 5075 4675 
L 3400 4675 
z
M 1475 3150 
Q 1450 2100 1425 1825 
L 3075 1825 
L 3075 3150 
L 1475 3150 
z
" transform="scale(0.015625)"/>
       <path id="SimSun-7387" d="M 875 3725 
L 925 3800 
Q 1375 3650 1550 3525 
Q 1725 3400 1725 3250 
Q 1725 3175 1662 3025 
Q 1600 2875 1550 2875 
Q 1500 2875 1425 3050 
Q 1275 3325 875 3725 
z
M 550 1850 
Q 875 1925 2000 2575 
L 2050 2500 
Q 1675 2225 1337 1937 
Q 1000 1650 875 1425 
L 550 1850 
z
M 5200 3450 
Q 4800 3150 4275 2800 
L 4225 2875 
Q 4775 3400 5050 3925 
L 5450 3525 
L 5200 3450 
z
M 4325 2500 
L 4350 2575 
Q 5225 2350 5375 2212 
Q 5525 2075 5525 1900 
Q 5525 1775 5487 1662 
Q 5450 1550 5400 1550 
Q 5325 1550 5200 1800 
Q 4975 2150 4325 2500 
z
M 3150 3900 
Q 2500 3300 2300 3150 
Q 2800 3150 3400 3175 
Q 3700 3500 3850 3825 
L 4250 3450 
Q 4050 3400 3450 2825 
Q 2850 2250 2475 1950 
Q 3150 1975 3850 2000 
Q 3750 2175 3550 2450 
L 3600 2500 
Q 4050 2250 4200 2100 
Q 4350 1950 4350 1850 
Q 4350 1775 4250 1625 
Q 4150 1475 4100 1475 
Q 4075 1475 4050 1550 
Q 4000 1700 3900 1900 
Q 3650 1875 3075 1800 
L 3500 1550 
L 3325 1425 
L 3325 975 
L 5325 975 
L 5650 1300 
L 6100 825 
L 3325 825 
Q 3325 -275 3350 -525 
L 2975 -650 
Q 3000 0 3000 825 
L 1125 825 
Q 800 825 525 750 
L 300 975 
L 3000 975 
L 3000 1775 
Q 2450 1700 2200 1525 
L 1950 1950 
Q 2275 1950 2675 2350 
Q 3075 2750 3325 3050 
Q 2400 2950 2150 2775 
L 1950 3175 
Q 2150 3150 2475 3575 
Q 2800 4000 2900 4225 
L 1450 4225 
Q 1125 4225 850 4150 
L 625 4375 
L 3100 4375 
Q 3050 4800 2675 5200 
L 2725 5250 
Q 3225 5050 3337 4912 
Q 3450 4775 3450 4700 
Q 3450 4550 3250 4375 
L 5025 4375 
L 5350 4675 
L 5775 4225 
L 3050 4225 
L 3375 3950 
L 3150 3900 
z
" transform="scale(0.015625)"/>
      </defs>
      <use xlink:href="#SimSun-43"/>
      <use xlink:href="#SimSun-50" x="50"/>
      <use xlink:href="#SimSun-55" x="100"/>
      <use xlink:href="#SimSun-4f7f" x="150"/>
      <use xlink:href="#SimSun-7528" x="250"/>
      <use xlink:href="#SimSun-7387" x="350"/>
     </g>
    </g>
   </g>
   <g id="line2d_11">
    <path d="M 105.770077 107.822008 
L 108.845518 134.206076 
L 111.920959 77.240484 
L 114.996399 38.863661 
L 118.07184 99.626961 
L 121.147281 100.026719 
L 124.222722 100.226603 
L 127.298163 80.43855 
L 130.373604 120.414405 
L 133.449045 130.408369 
L 136.524486 145.399315 
L 139.599927 112.81899 
L 142.675367 136.604626 
L 145.750808 138.603416 
L 151.90169 100.026719 
L 154.977131 100.226603 
L 158.052572 120.214531 
L 161.128013 110.420441 
L 164.203454 115.417423 
L 167.278895 147.797869 
L 170.354335 144.20004 
L 173.429776 162.189173 
L 176.505217 161.389656 
L 179.580658 170.783983 
L 182.656099 115.617307 
L 185.73154 98.027928 
L 188.806981 109.221167 
L 191.882422 124.811745 
L 194.957863 152.594972 
L 198.033303 166.586517 
L 201.108744 153.394488 
L 204.184185 156.992311 
L 207.259626 168.585313 
L 210.335067 184.575654 
L 213.410508 172.38302 
L 216.485949 166.386638 
L 219.56139 173.382416 
L 222.636831 176.980239 
L 225.712272 178.579272 
L 228.787712 169.584708 
L 231.863153 174.981448 
L 234.938594 167.585917 
L 238.014035 163.988084 
L 241.089476 152.195209 
L 244.164917 156.392674 
L 247.240358 168.385434 
L 250.315799 164.387847 
L 253.39124 162.389052 
L 256.46668 161.389656 
L 259.542121 160.790019 
L 262.617562 160.59014 
L 265.693003 160.59014 
L 268.768444 160.390261 
L 271.843885 170.384225 
L 274.919326 165.387243 
L 277.994767 162.988689 
L 281.070208 161.589535 
L 284.145648 170.983862 
L 287.221089 145.799073 
L 290.29653 93.030946 
L 293.371971 86.83469 
L 296.447412 103.624543 
L 299.522853 112.019474 
L 302.598294 86.235048 
L 305.673735 133.206676 
L 308.749176 156.792432 
L 311.824616 168.585313 
L 314.900057 104.623943 
L 317.975498 132.40716 
L 321.050939 116.416823 
L 324.12638 98.427686 
L 327.201821 99.427077 
L 333.352703 140.202459 
L 336.428144 150.196418 
L 339.503584 115.417423 
L 342.579025 137.8039 
L 345.654466 129.209095 
L 348.729907 154.793642 
L 351.805348 127.610062 
L 354.880789 134.006193 
L 357.95623 137.204268 
L 361.031671 158.791228 
L 364.107112 169.584708 
L 367.182552 174.981448 
L 370.257993 177.579877 
L 373.333434 168.985066 
L 376.408875 164.787601 
L 379.484316 182.576858 
L 382.559757 181.377584 
L 385.635198 150.995934 
L 388.710639 155.593158 
L 391.78608 157.991707 
L 394.86152 169.18495 
L 397.936961 174.781569 
L 401.012402 157.591949 
L 404.087843 148.997143 
L 407.163284 154.793642 
L 410.238725 157.591949 
L 413.314166 168.985066 
L 416.389607 144.599799 
L 419.465048 152.594972 
L 422.540488 156.392674 
L 425.615929 178.379398 
L 428.69137 179.378788 
L 431.766811 169.984466 
L 434.842252 175.181327 
L 437.917693 177.779756 
L 440.993134 168.985066 
L 444.068575 164.787601 
L 447.144016 172.582895 
L 450.219457 176.380602 
L 453.294897 168.385434 
L 456.370338 164.387847 
L 459.445779 162.389052 
L 462.52122 161.389656 
L 468.672102 160.59014 
L 471.747543 170.584104 
L 474.822984 95.429495 
L 477.898425 38.064145 
L 480.973865 79.239275 
L 484.049306 129.808727 
L 487.124747 144.999557 
L 490.200188 162.78881 
L 493.275629 151.595571 
L 496.35107 145.998952 
L 499.426511 143.200645 
L 502.501952 111.8196 
L 505.577393 66.047246 
L 508.652833 123.212712 
L 511.728274 131.807527 
L 514.803715 126.210903 
L 517.879156 143.200645 
L 520.954597 161.789414 
L 524.030038 151.195813 
L 527.105479 155.793037 
L 530.18092 138.003784 
L 533.256361 139.203058 
L 536.331801 139.8027 
L 539.407242 160.190382 
L 542.482683 160.190382 
L 545.558124 140.402333 
L 548.633565 150.396297 
L 551.709006 145.399315 
L 554.784447 112.81899 
L 557.859888 106.622734 
L 560.935329 133.606434 
L 564.010769 146.998348 
L 567.08621 163.588331 
L 570.161651 161.989293 
L 573.237092 161.189777 
L 576.312533 160.790019 
L 579.387974 160.59014 
L 582.463415 160.59014 
L 585.538856 160.390261 
L 588.614297 160.390261 
L 591.689737 170.384225 
L 594.765178 185.37517 
L 597.840619 172.982653 
L 600.91606 166.586517 
L 603.991501 153.594367 
L 607.066942 166.986275 
L 610.142383 163.588331 
L 613.217824 161.989293 
L 616.293265 161.189777 
L 619.368705 170.783983 
L 622.444146 175.581086 
L 625.519587 177.979635 
L 628.595028 159.190986 
L 631.670469 169.784583 
L 634.74591 165.187364 
L 637.821351 172.782774 
L 640.896792 166.586517 
L 643.972233 163.388452 
L 647.047673 171.983257 
L 650.123114 166.186759 
L 653.198555 163.188568 
L 656.273996 91.831672 
L 659.349437 106.222976 
L 662.424878 93.230821 
L 665.500319 116.816582 
L 668.57576 118.615489 
L 671.651201 149.59678 
L 674.726642 164.987484 
L 677.802082 82.637224 
L 680.877523 131.607644 
L 683.952964 136.004993 
L 687.028405 128.209694 
L 690.103846 144.20004 
L 693.179287 142.401129 
L 696.254728 61.450022 
L 699.330169 90.832272 
L 702.40561 115.617307 
L 705.48105 108.021892 
L 708.556491 144.20004 
L 711.631932 152.395088 
L 714.707373 116.416823 
L 717.782814 148.397506 
L 720.858255 144.399919 
L 723.933696 152.395088 
L 727.009137 156.392674 
L 730.084578 148.397506 
L 733.160018 134.405951 
L 736.235459 147.398106 
L 739.3109 163.788205 
L 742.386341 162.189173 
L 745.461782 161.189777 
L 748.537223 160.790019 
L 751.612664 150.596176 
L 754.688105 165.587122 
L 757.763546 162.988689 
L 760.838986 161.589535 
L 763.914427 160.989898 
L 766.989868 160.790019 
L 770.065309 170.584104 
L 773.14075 165.387243 
L 776.216191 162.988689 
L 779.291632 171.583499 
L 782.367073 165.98688 
L 785.442514 163.188568 
L 788.517954 161.789414 
L 791.593395 161.189777 
L 794.668836 170.783983 
L 797.744277 165.587122 
L 800.819718 162.988689 
L 803.895159 161.589535 
L 806.9706 170.983862 
L 810.046041 165.787001 
L 813.121482 152.994725 
L 816.196922 166.786396 
L 819.272363 163.588331 
L 822.347804 171.983257 
L 825.423245 156.192795 
L 828.498686 128.209694 
L 831.574127 154.393883 
L 834.649568 107.42225 
L 837.725009 143.800282 
L 840.80045 152.195209 
L 843.87589 166.186759 
L 846.951331 133.40656 
L 850.026772 106.822618 
L 853.102213 143.600403 
L 856.177654 151.99533 
L 859.253095 136.204867 
L 862.328536 138.403542 
L 865.403977 139.402942 
L 868.479418 119.814763 
L 871.554858 150.196418 
L 874.630299 155.1934 
L 877.70574 157.791833 
L 880.781181 139.203058 
L 883.856622 129.808727 
L 886.932063 115.017665 
L 890.007504 137.8039 
L 893.082945 129.009211 
L 896.158386 34.86608 
L 899.233827 97.62817 
L 902.309267 89.033355 
L 905.384708 124.611871 
L 908.460149 92.631188 
L 911.53559 56.45304 
L 914.611031 78.439759 
L 917.686472 129.408969 
L 920.761913 144.999557 
L 923.837354 122.61308 
L 926.912795 141.601607 
L 929.988235 121.014047 
L 933.063676 140.602212 
L 936.139117 150.596176 
L 939.214558 165.387243 
L 942.289999 162.988689 
L 945.36544 161.589535 
L 948.440881 160.989898 
L 951.516322 160.790019 
L 954.591763 170.584104 
L 957.667203 175.381207 
L 960.742644 167.985671 
L 963.818085 164.187968 
L 966.893526 172.183136 
L 969.968967 166.386638 
L 973.044408 163.388452 
L 976.119849 171.783378 
L 979.19529 156.192795 
L 982.270731 168.18555 
L 985.346171 164.387847 
L 988.421612 162.389052 
L 988.421612 162.389052 
" clip-path="url(#pd86b2dc33b)" style="fill: none; stroke: #1f77b4; stroke-width: 1.5; stroke-linecap: square"/>
   </g>
   <g id="line2d_12">
    <path d="M 548.633565 148.839868 
L 551.709006 152.597369 
L 554.784447 152.597045 
L 557.859888 154.937769 
L 560.935329 157.560844 
L 564.010769 155.608731 
L 567.08621 156.933172 
L 570.161651 155.246092 
L 573.237092 155.824642 
L 576.312533 151.946807 
L 579.387974 152.422704 
L 582.463415 155.221287 
L 585.538856 155.341445 
L 588.614297 158.716891 
L 591.689737 158.828813 
L 594.765178 160.881607 
L 597.840619 161.579428 
L 600.91606 159.63931 
L 603.991501 165.871355 
L 607.066942 165.509025 
L 610.142383 168.394035 
L 613.217824 162.561653 
L 616.293265 167.546464 
L 619.368705 163.647247 
L 622.444146 169.596856 
L 625.519587 169.608979 
L 628.595028 163.292103 
L 631.670469 161.101391 
L 634.74591 154.300156 
L 637.821351 156.200139 
L 640.896792 150.970596 
L 643.972233 149.952882 
L 647.047673 146.886716 
L 650.123114 148.427195 
L 656.273996 136.68867 
L 659.349437 138.605103 
L 662.424878 141.652374 
L 665.500319 131.068237 
L 668.57576 127.814759 
L 671.651201 122.84921 
L 674.726642 123.379505 
L 677.802082 119.974502 
L 680.877523 120.358344 
L 683.952964 125.156004 
L 687.028405 130.396522 
L 690.103846 131.760301 
L 693.179287 128.468499 
L 696.254728 121.990211 
L 699.330169 132.65162 
L 702.40561 139.250008 
L 705.48105 141.145226 
L 708.556491 139.74805 
L 711.631932 147.611972 
L 714.707373 143.31749 
L 717.782814 144.773887 
L 720.858255 140.128813 
L 723.933696 143.52558 
L 727.009137 147.788714 
L 730.084578 153.658306 
L 733.160018 152.006147 
L 736.235459 154.192832 
L 739.3109 155.608765 
L 742.386341 155.189597 
L 745.461782 149.930022 
L 748.537223 154.067409 
L 751.612664 157.414491 
L 754.688105 157.534901 
L 757.763546 156.330079 
L 760.838986 159.680831 
L 763.914427 160.167393 
L 766.989868 159.880653 
L 770.065309 162.397005 
L 773.14075 157.723295 
L 776.216191 164.874614 
L 779.291632 164.238425 
L 782.367073 167.518367 
L 785.442514 165.610192 
L 788.517954 161.957379 
L 791.593395 165.102023 
L 794.668836 160.868559 
L 797.744277 163.859878 
L 800.819718 167.565297 
L 803.895159 169.18526 
L 806.9706 164.684251 
L 810.046041 160.995988 
L 813.121482 159.209209 
L 816.196922 156.944895 
L 819.272363 152.602034 
L 822.347804 144.616082 
L 825.423245 144.60891 
L 828.498686 142.403187 
L 831.574127 137.504417 
L 834.649568 139.83847 
L 837.725009 143.372369 
L 840.80045 143.723053 
L 843.87589 141.092934 
L 846.951331 141.753779 
L 850.026772 135.616157 
L 853.102213 133.866783 
L 856.177654 124.560642 
L 859.253095 122.49683 
L 862.328536 122.395202 
L 865.403977 126.633241 
L 868.479418 124.713967 
L 871.554858 124.053498 
L 874.630299 128.820831 
L 877.70574 129.284075 
L 880.781181 130.606737 
L 883.856622 133.16534 
L 886.932063 137.307517 
L 890.007504 138.963021 
L 893.082945 133.594263 
L 899.233827 137.395812 
L 902.309267 139.203954 
L 905.384708 145.417357 
L 908.460149 141.767647 
L 911.53559 142.343209 
L 914.611031 146.964303 
L 917.686472 150.31271 
L 920.761913 155.433824 
L 923.837354 157.065123 
L 926.912795 158.993104 
L 929.988235 157.163383 
L 933.063676 154.311521 
L 936.139117 153.22345 
L 939.214558 156.344038 
L 942.289999 155.583241 
L 945.36544 155.865434 
L 948.440881 155.043425 
L 951.516322 161.567695 
L 954.591763 164.459296 
L 957.667203 165.598583 
L 960.742644 164.470595 
L 966.893526 157.556513 
L 969.968967 153.248707 
L 973.044408 159.272076 
L 976.119849 162.616008 
L 979.19529 159.540402 
L 982.270731 163.063693 
L 985.346171 159.171343 
L 988.421612 158.53728 
L 988.421612 158.53728 
" clip-path="url(#pd86b2dc33b)" style="fill: none; stroke: #ff7f0e; stroke-width: 1.5; stroke-linecap: square"/>
   </g>
   <g id="line2d_13">
    <path d="M 548.633565 192.900625 
L 548.633565 27.340625 
" clip-path="url(#pd86b2dc33b)" style="fill: none; stroke-dasharray: 7.4,3.2; stroke-dashoffset: 0; stroke: #0000ff; stroke-width: 2"/>
   </g>
   <g id="patch_3">
    <path d="M 61.6375 192.900625 
L 61.6375 27.340625 
" style="fill: none; stroke: #000000; stroke-width: 0.8; stroke-linejoin: miter; stroke-linecap: square"/>
   </g>
   <g id="patch_4">
    <path d="M 1032.554189 192.900625 
L 1032.554189 27.340625 
" style="fill: none; stroke: #000000; stroke-width: 0.8; stroke-linejoin: miter; stroke-linecap: square"/>
   </g>
   <g id="patch_5">
    <path d="M 61.6375 192.900625 
L 1032.554189 192.900625 
" style="fill: none; stroke: #000000; stroke-width: 0.8; stroke-linejoin: miter; stroke-linecap: square"/>
   </g>
   <g id="patch_6">
    <path d="M 61.6375 27.340625 
L 1032.554189 27.340625 
" style="fill: none; stroke: #000000; stroke-width: 0.8; stroke-linejoin: miter; stroke-linecap: square"/>
   </g>
   <g id="text_12">
    <!-- API_ID: 4 -->
    <g transform="translate(502.095845 21.340625) scale(0.2 -0.2)">
     <defs>
      <path id="SimSun-41" d="M 2025 1700 
L 900 1700 
L 675 750 
Q 650 625 650 550 
Q 650 450 687 350 
Q 725 250 900 250 
L 975 250 
L 975 100 
L 50 100 
L 50 250 
L 125 250 
Q 225 250 300 312 
Q 375 375 400 525 
L 1375 4350 
L 1750 4475 
L 2700 525 
Q 2750 375 2825 312 
Q 2900 250 3000 250 
L 3075 250 
L 3075 100 
L 2000 100 
L 2000 250 
L 2100 250 
Q 2250 250 2275 312 
Q 2300 375 2300 425 
Q 2300 525 2275 600 
L 2025 1700 
z
M 325 250 
L 325 250 
z
M 575 250 
L 575 250 
z
M 2350 250 
L 2350 250 
z
M 2775 250 
L 2775 250 
z
M 1500 3925 
L 1475 3925 
L 950 1850 
L 2000 1850 
L 1500 3925 
z
" transform="scale(0.015625)"/>
      <path id="SimSun-49" d="M 600 4225 
L 600 4375 
L 2600 4375 
L 2600 4225 
L 2025 4225 
Q 1925 4225 1862 4175 
Q 1800 4125 1800 4025 
L 1800 450 
Q 1800 350 1862 300 
Q 1925 250 2025 250 
L 2600 250 
L 2600 100 
L 600 100 
L 600 250 
L 1175 250 
Q 1300 250 1350 300 
Q 1400 350 1400 450 
L 1400 4025 
Q 1400 4125 1350 4175 
Q 1300 4225 1175 4225 
L 600 4225 
z
" transform="scale(0.015625)"/>
      <path id="SimSun-5f" d="M 0 -875 
L 0 -725 
L 3175 -725 
L 3175 -875 
L 0 -875 
z
" transform="scale(0.015625)"/>
      <path id="SimSun-44" d="M 2500 2275 
Q 2500 3350 2175 3787 
Q 1850 4225 1275 4225 
Q 1100 4225 1012 4175 
Q 925 4125 925 4025 
L 925 450 
Q 925 350 1000 300 
Q 1075 250 1200 250 
Q 1750 250 2125 662 
Q 2500 1075 2500 2275 
z
M 525 4025 
Q 525 4125 475 4175 
Q 425 4225 300 4225 
L 150 4225 
L 150 4375 
L 1275 4375 
Q 2050 4375 2512 3875 
Q 2975 3375 2975 2325 
Q 2975 1175 2525 637 
Q 2075 100 1200 100 
L 125 100 
L 125 250 
L 300 250 
Q 425 250 475 300 
Q 525 350 525 450 
L 525 4025 
z
" transform="scale(0.015625)"/>
      <path id="SimSun-3a" d="M 1900 2725 
Q 1900 2575 1800 2475 
Q 1700 2375 1550 2375 
Q 1400 2375 1300 2475 
Q 1200 2575 1200 2725 
Q 1200 2875 1300 2975 
Q 1400 3075 1550 3075 
Q 1700 3075 1800 2975 
Q 1900 2875 1900 2725 
z
M 1900 375 
Q 1900 225 1800 125 
Q 1700 25 1550 25 
Q 1400 25 1300 125 
Q 1200 225 1200 375 
Q 1200 525 1300 625 
Q 1400 725 1550 725 
Q 1700 725 1800 625 
Q 1900 525 1900 375 
z
" transform="scale(0.015625)"/>
      <path id="SimSun-20" d="M 0 0 
Q 0 0 0 0 
z
" transform="scale(0.015625)"/>
      <path id="SimSun-34" d="M 2300 575 
Q 2300 400 2400 325 
Q 2500 250 2675 250 
L 2900 250 
L 2900 100 
L 1250 100 
L 1250 250 
L 1525 250 
Q 1725 250 1812 325 
Q 1900 400 1900 575 
L 1900 1400 
L 225 1400 
L 225 1525 
L 2050 4425 
L 2300 4425 
L 2300 1550 
L 2975 1550 
L 2975 1400 
L 2300 1400 
L 2300 575 
z
M 1875 3800 
L 450 1550 
L 1900 1550 
L 1900 3800 
L 1875 3800 
z
" transform="scale(0.015625)"/>
     </defs>
     <use xlink:href="#SimSun-41"/>
     <use xlink:href="#SimSun-50" x="50"/>
     <use xlink:href="#SimSun-49" x="100"/>
     <use xlink:href="#SimSun-5f" x="150"/>
     <use xlink:href="#SimSun-49" x="200"/>
     <use xlink:href="#SimSun-44" x="250"/>
     <use xlink:href="#SimSun-3a" x="300"/>
     <use xlink:href="#SimSun-20" x="350"/>
     <use xlink:href="#SimSun-34" x="400"/>
    </g>
   </g>
   <g id="legend_1">
    <g id="patch_7">
     <path d="M 75.6375 100.215625 
L 199.6375 100.215625 
Q 203.6375 100.215625 203.6375 96.215625 
L 203.6375 41.340625 
Q 203.6375 37.340625 199.6375 37.340625 
L 75.6375 37.340625 
Q 71.6375 37.340625 71.6375 41.340625 
L 71.6375 96.215625 
Q 71.6375 100.215625 75.6375 100.215625 
z
" style="fill: #ffffff; opacity: 0.8; stroke: #cccccc; stroke-linejoin: miter"/>
    </g>
    <g id="line2d_14">
     <path d="M 79.6375 54.278125 
L 99.6375 54.278125 
L 119.6375 54.278125 
" style="fill: none; stroke: #1f77b4; stroke-width: 1.5; stroke-linecap: square"/>
    </g>
    <g id="text_13">
     <!-- 真实值 -->
     <g transform="translate(135.6375 61.278125) scale(0.2 -0.2)">
      <defs>
       <path id="SimSun-771f" d="M 2050 3450 
L 2050 2900 
L 4300 2900 
L 4300 3450 
L 2050 3450 
z
M 2050 2750 
L 2050 2225 
L 4300 2225 
L 4300 2750 
L 2050 2750 
z
M 2050 2075 
L 2050 1550 
L 4300 1550 
L 4300 2075 
L 2050 2075 
z
M 2050 1400 
L 2050 875 
L 4300 875 
L 4300 1400 
L 2050 1400 
z
M 2875 3600 
L 2925 4325 
L 1525 4325 
Q 1200 4325 925 4250 
L 700 4475 
L 2950 4475 
Q 2975 4825 2975 5275 
L 3550 5025 
L 3375 4925 
L 3300 4475 
L 5000 4475 
L 5325 4825 
L 5775 4325 
L 3275 4325 
L 3200 3600 
L 4275 3600 
L 4450 3875 
L 4850 3575 
L 4650 3375 
L 4650 875 
L 5300 875 
L 5675 1225 
L 6125 725 
L 1150 725 
Q 825 725 550 650 
L 325 875 
L 1700 875 
Q 1700 3200 1675 3775 
L 2050 3600 
L 2875 3600 
z
M 2425 725 
L 2825 350 
L 2575 300 
Q 1500 -425 800 -650 
L 775 -575 
Q 1950 125 2425 725 
z
M 3800 700 
Q 4575 375 4962 200 
Q 5350 25 5400 -112 
Q 5450 -250 5450 -325 
Q 5450 -400 5400 -525 
Q 5350 -650 5325 -650 
Q 5250 -650 5100 -450 
Q 4875 -150 3750 625 
L 3800 700 
z
" transform="scale(0.015625)"/>
       <path id="SimSun-5b9e" d="M 1950 3625 
Q 2575 3400 2700 3250 
Q 2825 3100 2825 2975 
Q 2825 2850 2750 2700 
Q 2675 2550 2625 2550 
Q 2550 2550 2450 2800 
Q 2275 3175 1900 3550 
L 1950 3625 
z
M 3575 1325 
Q 3500 1100 3425 925 
Q 4650 550 5087 325 
Q 5525 100 5512 -225 
Q 5500 -550 5400 -550 
Q 5300 -550 5075 -300 
Q 4625 175 3375 800 
Q 3025 175 2300 -150 
Q 1575 -475 425 -625 
L 425 -525 
Q 1475 -325 2200 100 
Q 2925 525 3200 1325 
L 1225 1325 
Q 900 1325 625 1250 
L 400 1475 
L 3225 1475 
Q 3325 1950 3375 2575 
Q 3425 3200 3425 3700 
L 4050 3400 
L 3850 3225 
Q 3750 2300 3625 1475 
L 5175 1475 
L 5550 1850 
L 6075 1325 
L 3575 1325 
z
M 1275 2700 
Q 1975 2425 2100 2262 
Q 2225 2100 2225 1975 
Q 2225 1850 2150 1700 
Q 2075 1550 2025 1550 
Q 1950 1550 1850 1800 
Q 1675 2175 1225 2625 
L 1275 2700 
z
M 2750 5225 
L 2825 5275 
Q 3225 5100 3425 4925 
Q 3625 4750 3625 4600 
Q 3625 4450 3512 4300 
Q 3400 4150 3325 4150 
Q 3250 4150 3200 4400 
Q 3100 4775 2750 5225 
z
M 4975 3225 
L 5350 3925 
L 1175 3925 
Q 1225 3525 1125 3300 
Q 1025 3075 787 3100 
Q 550 3125 550 3200 
Q 550 3300 700 3475 
Q 975 3825 1050 4375 
L 1150 4375 
L 1175 4075 
L 5300 4075 
L 5575 4350 
L 6050 3800 
Q 5625 3825 5050 3175 
L 4975 3225 
z
" transform="scale(0.015625)"/>
       <path id="SimSun-503c" d="M 1525 650 
Q 1525 -225 1550 -525 
L 1175 -650 
Q 1200 250 1200 550 
L 1200 3025 
Q 750 2300 325 1850 
L 250 1900 
Q 725 2625 1100 3525 
Q 1475 4425 1675 5200 
L 2200 4875 
L 1950 4725 
Q 1550 3800 1425 3475 
L 1725 3300 
L 1525 3150 
L 1525 650 
z
M 2875 3225 
L 2875 2475 
L 4800 2475 
L 4800 3225 
L 2875 3225 
z
M 2875 2325 
L 2875 1575 
L 4800 1575 
L 4800 2325 
L 2875 2325 
z
M 2875 1425 
L 2875 675 
L 4800 675 
L 4800 1425 
L 2875 1425 
z
M 2875 525 
L 2875 -225 
L 4800 -225 
L 4800 525 
L 2875 525 
z
M 3550 4250 
Q 3575 4825 3550 5225 
L 4125 4950 
L 3925 4800 
L 3900 4250 
L 5025 4250 
L 5350 4575 
L 5825 4100 
L 3900 4100 
L 3875 3375 
L 4750 3375 
L 4975 3625 
L 5350 3300 
L 5125 3150 
L 5125 -225 
L 5350 -225 
L 5675 100 
L 6150 -375 
L 2450 -375 
Q 2125 -375 1850 -450 
L 1625 -225 
L 2550 -225 
L 2550 2550 
Q 2550 2850 2525 3575 
L 2875 3375 
L 3525 3375 
L 3550 4100 
L 2800 4100 
Q 2475 4100 2200 4025 
L 1975 4250 
L 3550 4250 
z
" transform="scale(0.015625)"/>
      </defs>
      <use xlink:href="#SimSun-771f"/>
      <use xlink:href="#SimSun-5b9e" x="100"/>
      <use xlink:href="#SimSun-503c" x="200"/>
     </g>
    </g>
    <g id="line2d_15">
     <path d="M 79.6375 82.6375 
L 99.6375 82.6375 
L 119.6375 82.6375 
" style="fill: none; stroke: #ff7f0e; stroke-width: 1.5; stroke-linecap: square"/>
    </g>
    <g id="text_14">
     <!-- 预测值 -->
     <g transform="translate(135.6375 89.6375) scale(0.2 -0.2)">
      <defs>
       <path id="SimSun-9884" d="M 475 4825 
L 2225 4825 
L 2425 5075 
L 2825 4675 
Q 2600 4625 2387 4412 
Q 2175 4200 1800 3750 
Q 2050 3575 2037 3400 
Q 2025 3225 1937 3150 
Q 1850 3075 1825 3075 
Q 1725 3075 1650 3300 
Q 1525 3600 1050 4100 
L 1100 4150 
Q 1475 3975 1700 3825 
L 2225 4675 
L 1300 4675 
Q 975 4675 700 4600 
L 475 4825 
z
M 725 100 
Q 1175 50 1362 37 
Q 1550 25 1550 275 
L 1550 2875 
L 1125 2875 
Q 800 2875 525 2800 
L 300 3025 
L 2525 3025 
L 2725 3275 
L 3150 2875 
Q 2800 2825 2275 2075 
L 2200 2125 
L 2550 2875 
L 1875 2875 
L 1875 150 
Q 1875 -400 1350 -500 
Q 1325 -175 725 0 
L 725 100 
z
M 3250 775 
Q 3275 1425 3275 2287 
Q 3275 3150 3250 3900 
L 3600 3700 
L 4050 3700 
Q 4175 4400 4200 4675 
L 3650 4675 
Q 3325 4675 3050 4600 
L 2825 4825 
L 5325 4825 
L 5675 5150 
L 6125 4675 
L 4675 4675 
Q 4500 4425 4175 3700 
L 5300 3700 
L 5475 3975 
L 5875 3675 
L 5675 3475 
L 5675 1950 
Q 5675 1525 5700 1075 
L 5350 875 
L 5350 3550 
L 3600 3550 
L 3600 1000 
L 3250 775 
z
M 4850 2875 
L 4625 2675 
Q 4625 1475 4475 937 
Q 4325 400 3900 50 
Q 3475 -300 2425 -625 
L 2400 -550 
Q 3500 -50 3837 400 
Q 4175 850 4237 1587 
Q 4300 2325 4275 3175 
L 4850 2875 
z
M 4650 950 
Q 5725 375 5875 212 
Q 6025 50 6025 -125 
Q 6025 -225 5962 -387 
Q 5900 -550 5850 -550 
Q 5800 -550 5750 -450 
Q 5625 -250 5437 0 
Q 5250 250 4600 875 
L 4650 950 
z
" transform="scale(0.015625)"/>
       <path id="SimSun-6d4b" d="M 1975 1000 
Q 2000 1475 2000 2925 
Q 2000 4375 1975 5000 
L 2350 4775 
L 3575 4775 
L 3775 4975 
L 4100 4650 
L 3900 4500 
L 3900 2350 
Q 3900 1850 3925 1350 
L 3600 1200 
L 3600 4625 
L 2325 4625 
L 2325 1150 
L 1975 1000 
z
M 2775 3975 
L 3300 3700 
L 3125 3525 
Q 3150 1825 2875 937 
Q 2600 50 1375 -600 
L 1325 -500 
Q 2200 100 2475 725 
Q 2750 1350 2775 2187 
Q 2800 3025 2775 3975 
z
M 3100 950 
Q 3825 450 3937 262 
Q 4050 75 4050 -25 
Q 4050 -150 3975 -262 
Q 3900 -375 3850 -375 
Q 3750 -375 3650 -75 
Q 3500 375 3050 875 
L 3100 950 
z
M 4475 825 
Q 4500 1200 4500 1700 
L 4500 3400 
Q 4500 3950 4475 4300 
L 5025 4025 
L 4825 3825 
L 4825 1700 
Q 4825 1325 4850 950 
L 4475 825 
z
M 5375 150 
L 5375 4050 
Q 5375 4750 5350 5125 
L 5875 4875 
L 5700 4700 
L 5700 75 
Q 5700 -200 5600 -350 
Q 5500 -500 5200 -600 
Q 5025 -225 4450 -50 
L 4450 50 
Q 5125 -50 5250 -37 
Q 5375 -25 5375 150 
z
M 1850 3500 
Q 1375 1525 1300 1225 
Q 1200 900 1212 450 
Q 1225 0 1250 -175 
Q 1250 -275 1125 -275 
Q 1025 -275 875 -225 
Q 725 -175 725 0 
Q 725 125 800 375 
Q 875 625 875 775 
Q 875 950 762 1050 
Q 650 1150 275 1250 
L 275 1350 
Q 725 1300 837 1312 
Q 950 1325 1087 1537 
Q 1225 1750 1750 3525 
L 1850 3500 
z
M 375 3775 
Q 1075 3350 1112 3100 
Q 1150 2850 1050 2775 
Q 950 2700 900 2700 
Q 800 2700 725 2975 
Q 600 3350 325 3700 
L 375 3775 
z
M 800 5100 
Q 1475 4725 1550 4512 
Q 1625 4300 1525 4187 
Q 1425 4075 1350 4075 
Q 1275 4075 1200 4300 
Q 1075 4650 750 5025 
L 800 5100 
z
" transform="scale(0.015625)"/>
      </defs>
      <use xlink:href="#SimSun-9884"/>
      <use xlink:href="#SimSun-6d4b" x="100"/>
      <use xlink:href="#SimSun-503c" x="200"/>
     </g>
    </g>
   </g>
  </g>
  <g id="axes_2">
   <g id="patch_8">
    <path d="M 61.6375 425.700625 
L 1032.554189 425.700625 
L 1032.554189 260.140625 
L 61.6375 260.140625 
z
" style="fill: #ffffff"/>
   </g>
   <g id="matplotlib.axis_3">
    <g id="xtick_8">
     <g id="line2d_16">
      <g>
       <use xlink:href="#m4888b5973a" x="105.770077" y="425.700625" style="stroke: #000000; stroke-width: 0.8"/>
      </g>
     </g>
     <g id="text_15">
      <!-- 0 -->
      <g transform="translate(100.770077 446.588125) scale(0.2 -0.2)">
       <use xlink:href="#TimesNewRomanPSMT-30"/>
      </g>
     </g>
    </g>
    <g id="xtick_9">
     <g id="line2d_17">
      <g>
       <use xlink:href="#m4888b5973a" x="259.542121" y="425.700625" style="stroke: #000000; stroke-width: 0.8"/>
      </g>
     </g>
     <g id="text_16">
      <!-- 50 -->
      <g transform="translate(249.542121 446.588125) scale(0.2 -0.2)">
       <use xlink:href="#TimesNewRomanPSMT-35"/>
       <use xlink:href="#TimesNewRomanPSMT-30" x="50"/>
      </g>
     </g>
    </g>
    <g id="xtick_10">
     <g id="line2d_18">
      <g>
       <use xlink:href="#m4888b5973a" x="413.314166" y="425.700625" style="stroke: #000000; stroke-width: 0.8"/>
      </g>
     </g>
     <g id="text_17">
      <!-- 100 -->
      <g transform="translate(398.314166 446.588125) scale(0.2 -0.2)">
       <use xlink:href="#TimesNewRomanPSMT-31"/>
       <use xlink:href="#TimesNewRomanPSMT-30" x="50"/>
       <use xlink:href="#TimesNewRomanPSMT-30" x="100"/>
      </g>
     </g>
    </g>
    <g id="xtick_11">
     <g id="line2d_19">
      <g>
       <use xlink:href="#m4888b5973a" x="567.08621" y="425.700625" style="stroke: #000000; stroke-width: 0.8"/>
      </g>
     </g>
     <g id="text_18">
      <!-- 150 -->
      <g transform="translate(552.08621 446.588125) scale(0.2 -0.2)">
       <use xlink:href="#TimesNewRomanPSMT-31"/>
       <use xlink:href="#TimesNewRomanPSMT-35" x="50"/>
       <use xlink:href="#TimesNewRomanPSMT-30" x="100"/>
      </g>
     </g>
    </g>
    <g id="xtick_12">
     <g id="line2d_20">
      <g>
       <use xlink:href="#m4888b5973a" x="720.858255" y="425.700625" style="stroke: #000000; stroke-width: 0.8"/>
      </g>
     </g>
     <g id="text_19">
      <!-- 200 -->
      <g transform="translate(705.858255 446.588125) scale(0.2 -0.2)">
       <use xlink:href="#TimesNewRomanPSMT-32"/>
       <use xlink:href="#TimesNewRomanPSMT-30" x="50"/>
       <use xlink:href="#TimesNewRomanPSMT-30" x="100"/>
      </g>
     </g>
    </g>
    <g id="xtick_13">
     <g id="line2d_21">
      <g>
       <use xlink:href="#m4888b5973a" x="874.630299" y="425.700625" style="stroke: #000000; stroke-width: 0.8"/>
      </g>
     </g>
     <g id="text_20">
      <!-- 250 -->
      <g transform="translate(859.630299 446.588125) scale(0.2 -0.2)">
       <use xlink:href="#TimesNewRomanPSMT-32"/>
       <use xlink:href="#TimesNewRomanPSMT-35" x="50"/>
       <use xlink:href="#TimesNewRomanPSMT-30" x="100"/>
      </g>
     </g>
    </g>
    <g id="xtick_14">
     <g id="line2d_22">
      <g>
       <use xlink:href="#m4888b5973a" x="1028.402344" y="425.700625" style="stroke: #000000; stroke-width: 0.8"/>
      </g>
     </g>
     <g id="text_21">
      <!-- 300 -->
      <g transform="translate(1013.402344 446.588125) scale(0.2 -0.2)">
       <use xlink:href="#TimesNewRomanPSMT-33"/>
       <use xlink:href="#TimesNewRomanPSMT-30" x="50"/>
       <use xlink:href="#TimesNewRomanPSMT-30" x="100"/>
      </g>
     </g>
    </g>
   </g>
   <g id="matplotlib.axis_4">
    <g id="ytick_4">
     <g id="line2d_23">
      <g>
       <use xlink:href="#m21924fae60" x="61.6375" y="361.990229" style="stroke: #000000; stroke-width: 0.8"/>
      </g>
     </g>
     <g id="text_22">
      <!-- 20 -->
      <g transform="translate(34.6375 368.933979) scale(0.2 -0.2)">
       <use xlink:href="#TimesNewRomanPSMT-32"/>
       <use xlink:href="#TimesNewRomanPSMT-30" x="50"/>
      </g>
     </g>
    </g>
    <g id="ytick_5">
     <g id="line2d_24">
      <g>
       <use xlink:href="#m21924fae60" x="61.6375" y="297.998268" style="stroke: #000000; stroke-width: 0.8"/>
      </g>
     </g>
     <g id="text_23">
      <!-- 40 -->
      <g transform="translate(34.6375 304.942018) scale(0.2 -0.2)">
       <defs>
        <path id="TimesNewRomanPSMT-34" d="M 2978 1563 
L 2978 1119 
L 2409 1119 
L 2409 0 
L 1894 0 
L 1894 1119 
L 100 1119 
L 100 1519 
L 2066 4325 
L 2409 4325 
L 2409 1563 
L 2978 1563 
z
M 1894 1563 
L 1894 3666 
L 406 1563 
L 1894 1563 
z
" transform="scale(0.015625)"/>
       </defs>
       <use xlink:href="#TimesNewRomanPSMT-34"/>
       <use xlink:href="#TimesNewRomanPSMT-30" x="50"/>
      </g>
     </g>
    </g>
    <g id="text_24">
     <!-- CPU使用率 -->
     <g transform="translate(28.059375 387.920625) rotate(-90) scale(0.2 -0.2)">
      <use xlink:href="#SimSun-43"/>
      <use xlink:href="#SimSun-50" x="50"/>
      <use xlink:href="#SimSun-55" x="100"/>
      <use xlink:href="#SimSun-4f7f" x="150"/>
      <use xlink:href="#SimSun-7528" x="250"/>
      <use xlink:href="#SimSun-7387" x="350"/>
     </g>
    </g>
   </g>
   <g id="line2d_25">
    <path d="M 105.770077 310.316715 
L 108.845518 308.940887 
L 111.920959 306.669175 
L 114.996399 332.745898 
L 118.07184 348.96786 
L 121.147281 363.462041 
L 124.222722 386.723123 
L 127.298163 385.571266 
L 130.373604 383.363545 
L 133.449045 380.675882 
L 136.524486 353.73526 
L 139.599927 346.664151 
L 142.675367 351.143593 
L 145.750808 364.549905 
L 148.826249 361.670268 
L 151.90169 357.030848 
L 154.977131 369.125331 
L 158.052572 368.741377 
L 161.128013 371.780997 
L 164.203454 346.088223 
L 167.278895 352.423431 
L 170.354335 339.625039 
L 173.429776 357.190826 
L 176.505217 346.792132 
L 179.580658 348.007983 
L 185.73154 368.101461 
L 188.806981 376.22844 
L 191.882422 385.123321 
L 194.957863 384.739373 
L 198.033303 379.779995 
L 201.108744 370.885114 
L 204.184185 356.838874 
L 207.259626 356.198958 
L 210.335067 357.510787 
L 213.410508 375.748501 
L 216.485949 392.866352 
L 219.56139 398.209678 
L 222.636831 397.697743 
L 225.712272 403.840971 
L 228.787712 411.711982 
L 231.863153 402.849096 
L 234.938594 409.632243 
L 238.014035 404.992827 
L 241.089476 397.88972 
L 244.164917 389.538767 
L 247.240358 388.578887 
L 250.315799 384.867357 
L 253.39124 381.443785 
L 256.46668 373.316803 
L 259.542121 375.652514 
L 262.617562 360.806375 
L 265.693003 364.613898 
L 271.843885 333.033863 
L 274.919326 336.329451 
L 277.994767 337.961247 
L 281.070208 359.558534 
L 284.145648 346.376187 
L 287.221089 330.186222 
L 290.29653 350.88762 
L 293.371971 351.655522 
L 296.447412 364.805872 
L 299.522853 350.599661 
L 302.598294 346.696148 
L 305.673735 363.941979 
L 308.749176 366.181701 
L 311.824616 351.271574 
L 314.900057 363.046096 
L 317.975498 348.103973 
L 321.050939 356.646894 
L 324.12638 352.93536 
L 327.201821 349.447804 
L 330.277262 350.919616 
L 333.352703 338.85713 
L 336.428144 315.244099 
L 339.503584 301.805797 
L 342.579025 299.918034 
L 345.654466 313.356336 
L 348.729907 280.080523 
L 351.805348 284.239998 
L 354.880789 311.916514 
L 357.95623 319.339593 
L 361.031671 356.678896 
L 364.107112 354.535166 
L 367.182552 372.64489 
L 370.257993 359.334563 
L 373.333434 367.045593 
L 376.408875 369.317305 
L 379.484316 364.069966 
L 382.559757 371.013094 
L 385.635198 376.100459 
L 388.710639 385.059331 
L 391.78608 400.705365 
L 394.86152 408.544381 
L 397.936961 399.681493 
L 401.012402 387.235059 
L 404.087843 363.398048 
L 407.163284 370.693133 
L 410.238725 382.339674 
L 413.314166 368.965354 
L 416.389607 357.478796 
L 419.465048 351.751513 
L 422.540488 347.272076 
L 425.615929 349.831752 
L 428.69137 360.710391 
L 431.766811 350.151714 
L 434.842252 349.671775 
L 437.917693 349.415807 
L 440.993134 346.120219 
L 444.068575 350.855623 
L 447.144016 366.021717 
L 450.219457 365.605772 
L 453.294897 374.980598 
L 456.370338 363.686018 
L 459.445779 364.453921 
L 462.52122 364.805872 
L 465.596661 345.800258 
L 468.672102 344.296449 
L 474.822984 375.172572 
L 477.898425 373.380796 
L 480.973865 375.684508 
L 484.049306 372.036965 
L 487.124747 370.213195 
L 490.200188 337.289328 
L 493.275629 301.645807 
L 496.35107 299.822038 
L 499.426511 286.127762 
L 502.501952 285.647829 
L 505.577393 274.225265 
L 508.652833 279.728566 
L 511.728274 311.244614 
L 514.803715 307.821033 
L 517.879156 309.324848 
L 520.954597 342.056728 
L 524.030038 342.408686 
L 527.105479 336.201464 
L 530.18092 336.297454 
L 536.331801 287.567583 
L 539.407242 310.380721 
L 542.482683 318.603675 
L 545.558124 314.700173 
L 548.633565 355.942984 
L 551.709006 382.947597 
L 554.784447 394.882096 
L 557.859888 400.833349 
L 560.935329 408.608373 
L 564.010769 409.280289 
L 567.08621 409.632243 
L 570.161651 414.623617 
L 573.237092 412.28791 
L 576.312533 411.136055 
L 579.387974 415.359524 
L 582.463415 411.072063 
L 585.538856 410.528132 
L 588.614297 407.072566 
L 591.689737 411.711982 
L 594.765178 402.849096 
L 597.840619 408.032444 
L 600.91606 413.791721 
L 603.991501 408.70436 
L 607.066942 404.544884 
L 610.142383 412.063939 
L 613.217824 407.808473 
L 616.293265 405.696738 
L 619.368705 396.641875 
L 622.444146 388.930845 
L 625.519587 385.059331 
L 628.595028 384.707376 
L 631.670469 368.549402 
L 634.74591 370.085208 
L 637.821351 348.423928 
L 640.896792 368.00547 
L 643.972233 344.200465 
L 647.047673 348.295947 
L 650.123114 348.743889 
L 653.198555 336.169473 
L 656.273996 344.296449 
L 659.349437 351.527542 
L 662.424878 364.773882 
L 665.500319 363.366057 
L 668.57576 378.692131 
L 671.651201 373.54078 
L 674.726642 367.749503 
L 677.802082 347.272076 
L 680.877523 325.834767 
L 683.952964 324.714913 
L 687.028405 296.974397 
L 690.103846 299.086131 
L 693.179287 311.340598 
L 696.254728 306.253224 
L 699.330169 318.123742 
L 702.40561 308.077006 
L 705.48105 285.423859 
L 708.556491 269.329872 
L 711.631932 267.66608 
L 714.707373 306.829165 
L 717.782814 297.614319 
L 720.858255 301.005898 
L 723.933696 302.701681 
L 727.009137 309.932767 
L 730.084578 319.979515 
L 733.160018 332.969869 
L 736.235459 315.500073 
L 739.3109 317.931774 
L 742.386341 330.378197 
L 745.461782 323.787032 
L 748.537223 330.090232 
L 751.612664 355.623023 
L 754.688105 365.221817 
L 757.763546 377.988222 
L 760.838986 398.785606 
L 763.914427 401.185305 
L 766.989868 404.000952 
L 770.065309 410.176175 
L 773.14075 414.879585 
L 776.216191 410.848091 
L 779.291632 411.999947 
L 782.367073 414.20767 
L 785.442514 415.295533 
L 788.517954 414.239665 
L 791.593395 415.295533 
L 794.668836 415.839464 
L 797.744277 412.92783 
L 800.819718 414.655613 
L 803.895159 413.919705 
L 806.9706 410.336156 
L 810.046041 400.577381 
L 813.121482 405.280791 
L 816.196922 409.216297 
L 819.272363 406.40065 
L 822.347804 409.792224 
L 825.423245 411.48801 
L 828.498686 399.553509 
L 831.574127 401.569256 
L 834.649568 397.761736 
L 837.725009 400.67337 
L 840.80045 397.345788 
L 843.87589 390.850605 
L 846.951331 381.219814 
L 850.026772 365.221817 
L 853.102213 361.990229 
L 856.177654 339.593036 
L 859.253095 350.791629 
L 862.328536 361.190329 
L 865.403977 348.807882 
L 868.479418 352.199454 
L 871.554858 368.293435 
L 874.630299 358.726637 
L 877.70574 379.556021 
L 880.781181 372.388922 
L 883.856622 384.771367 
L 886.932063 370.181198 
L 890.007504 354.887117 
L 893.082945 321.643295 
L 896.158386 309.836783 
L 899.233827 313.516326 
L 902.309267 300.941904 
L 905.384708 296.270482 
L 908.460149 281.136397 
L 911.53559 303.981513 
L 914.611031 276.976909 
L 917.686472 290.703188 
L 920.761913 316.747914 
L 923.837354 326.570673 
L 926.912795 349.06385 
L 929.988235 336.329451 
L 933.063676 339.561046 
L 936.139117 328.394443 
L 939.214558 329.194343 
L 942.289999 321.579314 
L 945.36544 341.800761 
L 948.440881 348.679895 
L 951.516322 360.134462 
L 954.591763 369.061338 
L 957.667203 363.941979 
L 960.742644 383.747496 
L 963.818085 400.065444 
L 966.893526 403.425025 
L 969.968967 409.920208 
L 973.044408 409.952204 
L 976.119849 411.552002 
L 979.19529 413.983697 
L 982.270731 416.767347 
L 985.346171 418.17517 
L 988.421612 417.279283 
L 988.421612 417.279283 
" clip-path="url(#p7ed4078e17)" style="fill: none; stroke: #1f77b4; stroke-width: 1.5; stroke-linecap: square"/>
   </g>
   <g id="line2d_26">
    <path d="M 548.633565 331.895773 
L 551.709006 340.488468 
L 554.784447 350.87279 
L 557.859888 363.358789 
L 560.935329 364.559663 
L 564.010769 370.855692 
L 567.08621 372.346972 
L 570.161651 378.736511 
L 573.237092 375.374335 
L 576.312533 378.970243 
L 579.387974 380.064298 
L 582.463415 380.757796 
L 585.538856 384.827429 
L 588.614297 377.300723 
L 591.689737 381.632384 
L 594.765178 379.307328 
L 597.840619 380.51924 
L 600.91606 384.10022 
L 603.991501 373.748328 
L 607.066942 372.177731 
L 610.142383 371.133819 
L 613.217824 377.473175 
L 616.293265 369.950429 
L 619.368705 367.695756 
L 622.444146 365.260246 
L 625.519587 365.363072 
L 628.595028 362.677941 
L 631.670469 360.420956 
L 634.74591 361.540029 
L 637.821351 356.720334 
L 640.896792 356.882014 
L 643.972233 355.021976 
L 647.047673 356.058424 
L 650.123114 360.374441 
L 653.198555 357.587999 
L 656.273996 363.326993 
L 659.349437 358.306494 
L 662.424878 355.496208 
L 665.500319 359.896315 
L 668.57576 345.801692 
L 671.651201 347.287632 
L 674.726642 341.740282 
L 677.802082 337.76292 
L 680.877523 334.762796 
L 683.952964 328.709632 
L 687.028405 324.290735 
L 690.103846 315.859195 
L 693.179287 308.460967 
L 696.254728 319.109788 
L 699.330169 315.883496 
L 702.40561 312.200902 
L 705.48105 321.799208 
L 708.556491 326.421211 
L 711.631932 321.335497 
L 714.707373 328.697884 
L 720.858255 338.560036 
L 723.933696 341.653245 
L 727.009137 342.320385 
L 730.084578 342.088737 
L 733.160018 342.61405 
L 736.235459 342.670024 
L 739.3109 352.162795 
L 742.386341 353.006866 
L 745.461782 364.905146 
L 748.537223 368.917307 
L 751.612664 373.193131 
L 754.688105 376.569894 
L 757.763546 385.187278 
L 760.838986 385.170914 
L 763.914427 382.386107 
L 766.989868 387.652841 
L 770.065309 380.684227 
L 773.14075 382.965173 
L 776.216191 376.210119 
L 779.291632 375.75446 
L 782.367073 373.830148 
L 785.442514 367.035884 
L 788.517954 369.8379 
L 791.593395 365.890374 
L 794.668836 368.711278 
L 797.744277 368.236856 
L 800.819718 363.584218 
L 803.895159 363.284903 
L 806.9706 358.993138 
L 810.046041 357.8488 
L 813.121482 357.854194 
L 816.196922 358.950602 
L 819.272363 360.585657 
L 822.347804 361.518444 
L 825.423245 359.099692 
L 828.498686 355.135261 
L 831.574127 361.315936 
L 834.649568 356.493599 
L 837.725009 353.082186 
L 840.80045 354.144687 
L 843.87589 346.693658 
L 846.951331 346.482039 
L 850.026772 340.391587 
L 853.102213 340.523266 
L 856.177654 337.407813 
L 859.253095 344.175755 
L 862.328536 338.918414 
L 865.403977 336.218619 
L 868.479418 336.335908 
L 871.554858 333.58098 
L 874.630299 331.766059 
L 877.70574 326.612617 
L 880.781181 325.010615 
L 883.856622 319.665028 
L 886.932063 322.240095 
L 890.007504 320.988812 
L 893.082945 327.188729 
L 896.158386 323.438932 
L 899.233827 326.325562 
L 902.309267 330.333579 
L 905.384708 332.020715 
L 908.460149 340.530254 
L 911.53559 347.871739 
L 914.611031 348.443841 
L 917.686472 352.0463 
L 920.761913 351.025206 
L 923.837354 354.431938 
L 926.912795 355.253734 
L 933.063676 362.315365 
L 936.139117 363.687653 
L 939.214558 368.22927 
L 942.289999 371.492868 
L 945.36544 375.109568 
L 948.440881 379.310682 
L 951.516322 381.322239 
L 954.591763 384.429155 
L 957.667203 381.447178 
L 960.742644 381.576083 
L 966.893526 379.229234 
L 969.968967 381.421351 
L 973.044408 368.204432 
L 976.119849 375.624267 
L 979.19529 379.128664 
L 985.346171 368.221453 
L 988.421612 368.168219 
L 988.421612 368.168219 
" clip-path="url(#p7ed4078e17)" style="fill: none; stroke: #ff7f0e; stroke-width: 1.5; stroke-linecap: square"/>
   </g>
   <g id="line2d_27">
    <path d="M 548.633565 425.700625 
L 548.633565 260.140625 
" clip-path="url(#p7ed4078e17)" style="fill: none; stroke-dasharray: 7.4,3.2; stroke-dashoffset: 0; stroke: #0000ff; stroke-width: 2"/>
   </g>
   <g id="patch_9">
    <path d="M 61.6375 425.700625 
L 61.6375 260.140625 
" style="fill: none; stroke: #000000; stroke-width: 0.8; stroke-linejoin: miter; stroke-linecap: square"/>
   </g>
   <g id="patch_10">
    <path d="M 1032.554189 425.700625 
L 1032.554189 260.140625 
" style="fill: none; stroke: #000000; stroke-width: 0.8; stroke-linejoin: miter; stroke-linecap: square"/>
   </g>
   <g id="patch_11">
    <path d="M 61.6375 425.700625 
L 1032.554189 425.700625 
" style="fill: none; stroke: #000000; stroke-width: 0.8; stroke-linejoin: miter; stroke-linecap: square"/>
   </g>
   <g id="patch_12">
    <path d="M 61.6375 260.140625 
L 1032.554189 260.140625 
" style="fill: none; stroke: #000000; stroke-width: 0.8; stroke-linejoin: miter; stroke-linecap: square"/>
   </g>
   <g id="text_25">
    <!-- API_ID: 5 -->
    <g transform="translate(502.095845 254.140625) scale(0.2 -0.2)">
     <defs>
      <path id="SimSun-35" d="M 1725 2850 
Q 2200 2850 2500 2487 
Q 2800 2125 2800 1525 
Q 2800 850 2487 450 
Q 2175 50 1525 50 
Q 1075 50 725 312 
Q 375 575 375 950 
Q 375 1100 462 1212 
Q 550 1325 700 1325 
Q 850 1325 900 1225 
Q 950 1125 950 1050 
Q 950 900 875 825 
Q 800 725 800 625 
Q 800 425 1037 325 
Q 1275 225 1550 225 
Q 1950 225 2162 550 
Q 2375 875 2375 1475 
Q 2375 1975 2187 2287 
Q 2000 2600 1625 2600 
Q 1350 2600 1150 2500 
Q 950 2400 775 2075 
L 550 2100 
L 675 4375 
L 2725 4375 
L 2650 4000 
L 850 4000 
L 750 2350 
Q 1000 2700 1237 2775 
Q 1475 2850 1725 2850 
z
" transform="scale(0.015625)"/>
     </defs>
     <use xlink:href="#SimSun-41"/>
     <use xlink:href="#SimSun-50" x="50"/>
     <use xlink:href="#SimSun-49" x="100"/>
     <use xlink:href="#SimSun-5f" x="150"/>
     <use xlink:href="#SimSun-49" x="200"/>
     <use xlink:href="#SimSun-44" x="250"/>
     <use xlink:href="#SimSun-3a" x="300"/>
     <use xlink:href="#SimSun-20" x="350"/>
     <use xlink:href="#SimSun-35" x="400"/>
    </g>
   </g>
  </g>
  <g id="axes_3">
   <g id="patch_13">
    <path d="M 61.6375 658.500625 
L 1032.554189 658.500625 
L 1032.554189 492.940625 
L 61.6375 492.940625 
z
" style="fill: #ffffff"/>
   </g>
   <g id="matplotlib.axis_5">
    <g id="xtick_15">
     <g id="line2d_28">
      <g>
       <use xlink:href="#m4888b5973a" x="105.770077" y="658.500625" style="stroke: #000000; stroke-width: 0.8"/>
      </g>
     </g>
     <g id="text_26">
      <!-- 0 -->
      <g transform="translate(100.770077 679.388125) scale(0.2 -0.2)">
       <use xlink:href="#TimesNewRomanPSMT-30"/>
      </g>
     </g>
    </g>
    <g id="xtick_16">
     <g id="line2d_29">
      <g>
       <use xlink:href="#m4888b5973a" x="259.542121" y="658.500625" style="stroke: #000000; stroke-width: 0.8"/>
      </g>
     </g>
     <g id="text_27">
      <!-- 50 -->
      <g transform="translate(249.542121 679.388125) scale(0.2 -0.2)">
       <use xlink:href="#TimesNewRomanPSMT-35"/>
       <use xlink:href="#TimesNewRomanPSMT-30" x="50"/>
      </g>
     </g>
    </g>
    <g id="xtick_17">
     <g id="line2d_30">
      <g>
       <use xlink:href="#m4888b5973a" x="413.314166" y="658.500625" style="stroke: #000000; stroke-width: 0.8"/>
      </g>
     </g>
     <g id="text_28">
      <!-- 100 -->
      <g transform="translate(398.314166 679.388125) scale(0.2 -0.2)">
       <use xlink:href="#TimesNewRomanPSMT-31"/>
       <use xlink:href="#TimesNewRomanPSMT-30" x="50"/>
       <use xlink:href="#TimesNewRomanPSMT-30" x="100"/>
      </g>
     </g>
    </g>
    <g id="xtick_18">
     <g id="line2d_31">
      <g>
       <use xlink:href="#m4888b5973a" x="567.08621" y="658.500625" style="stroke: #000000; stroke-width: 0.8"/>
      </g>
     </g>
     <g id="text_29">
      <!-- 150 -->
      <g transform="translate(552.08621 679.388125) scale(0.2 -0.2)">
       <use xlink:href="#TimesNewRomanPSMT-31"/>
       <use xlink:href="#TimesNewRomanPSMT-35" x="50"/>
       <use xlink:href="#TimesNewRomanPSMT-30" x="100"/>
      </g>
     </g>
    </g>
    <g id="xtick_19">
     <g id="line2d_32">
      <g>
       <use xlink:href="#m4888b5973a" x="720.858255" y="658.500625" style="stroke: #000000; stroke-width: 0.8"/>
      </g>
     </g>
     <g id="text_30">
      <!-- 200 -->
      <g transform="translate(705.858255 679.388125) scale(0.2 -0.2)">
       <use xlink:href="#TimesNewRomanPSMT-32"/>
       <use xlink:href="#TimesNewRomanPSMT-30" x="50"/>
       <use xlink:href="#TimesNewRomanPSMT-30" x="100"/>
      </g>
     </g>
    </g>
    <g id="xtick_20">
     <g id="line2d_33">
      <g>
       <use xlink:href="#m4888b5973a" x="874.630299" y="658.500625" style="stroke: #000000; stroke-width: 0.8"/>
      </g>
     </g>
     <g id="text_31">
      <!-- 250 -->
      <g transform="translate(859.630299 679.388125) scale(0.2 -0.2)">
       <use xlink:href="#TimesNewRomanPSMT-32"/>
       <use xlink:href="#TimesNewRomanPSMT-35" x="50"/>
       <use xlink:href="#TimesNewRomanPSMT-30" x="100"/>
      </g>
     </g>
    </g>
    <g id="xtick_21">
     <g id="line2d_34">
      <g>
       <use xlink:href="#m4888b5973a" x="1028.402344" y="658.500625" style="stroke: #000000; stroke-width: 0.8"/>
      </g>
     </g>
     <g id="text_32">
      <!-- 300 -->
      <g transform="translate(1013.402344 679.388125) scale(0.2 -0.2)">
       <use xlink:href="#TimesNewRomanPSMT-33"/>
       <use xlink:href="#TimesNewRomanPSMT-30" x="50"/>
       <use xlink:href="#TimesNewRomanPSMT-30" x="100"/>
      </g>
     </g>
    </g>
   </g>
   <g id="matplotlib.axis_6">
    <g id="ytick_6">
     <g id="line2d_35">
      <g>
       <use xlink:href="#m21924fae60" x="61.6375" y="653.814965" style="stroke: #000000; stroke-width: 0.8"/>
      </g>
     </g>
     <g id="text_33">
      <!-- 0 -->
      <g transform="translate(44.6375 660.758715) scale(0.2 -0.2)">
       <use xlink:href="#TimesNewRomanPSMT-30"/>
      </g>
     </g>
    </g>
    <g id="ytick_7">
     <g id="line2d_36">
      <g>
       <use xlink:href="#m21924fae60" x="61.6375" y="597.019082" style="stroke: #000000; stroke-width: 0.8"/>
      </g>
     </g>
     <g id="text_34">
      <!-- 20 -->
      <g transform="translate(34.6375 603.962832) scale(0.2 -0.2)">
       <use xlink:href="#TimesNewRomanPSMT-32"/>
       <use xlink:href="#TimesNewRomanPSMT-30" x="50"/>
      </g>
     </g>
    </g>
    <g id="ytick_8">
     <g id="line2d_37">
      <g>
       <use xlink:href="#m21924fae60" x="61.6375" y="540.223198" style="stroke: #000000; stroke-width: 0.8"/>
      </g>
     </g>
     <g id="text_35">
      <!-- 40 -->
      <g transform="translate(34.6375 547.166948) scale(0.2 -0.2)">
       <use xlink:href="#TimesNewRomanPSMT-34"/>
       <use xlink:href="#TimesNewRomanPSMT-30" x="50"/>
      </g>
     </g>
    </g>
    <g id="text_36">
     <!-- CPU使用率 -->
     <g transform="translate(28.059375 620.720625) rotate(-90) scale(0.2 -0.2)">
      <use xlink:href="#SimSun-43"/>
      <use xlink:href="#SimSun-50" x="50"/>
      <use xlink:href="#SimSun-55" x="100"/>
      <use xlink:href="#SimSun-4f7f" x="150"/>
      <use xlink:href="#SimSun-7528" x="250"/>
      <use xlink:href="#SimSun-7387" x="350"/>
     </g>
    </g>
   </g>
   <g id="line2d_38">
    <path d="M 105.770077 605.538464 
L 108.845518 582.820105 
L 111.920959 579.980317 
L 114.996399 582.820105 
L 118.07184 594.179288 
L 121.147281 557.261963 
L 124.222722 579.980317 
L 127.298163 625.417024 
L 130.373604 616.897641 
L 139.599927 616.897641 
L 142.675367 605.538464 
L 145.750808 625.417024 
L 148.826249 597.019082 
L 151.90169 619.737435 
L 154.977131 597.019082 
L 158.052572 628.256818 
L 161.128013 628.256818 
L 164.203454 639.615994 
L 167.278895 636.7762 
L 170.354335 639.615994 
L 173.429776 639.615994 
L 176.505217 648.135376 
L 179.580658 645.295583 
L 182.656099 633.936406 
L 185.73154 619.737435 
L 188.806981 577.140517 
L 191.882422 591.339493 
L 194.957863 534.54361 
L 198.033303 537.383415 
L 201.108744 500.46608 
L 204.184185 543.062992 
L 207.259626 554.422169 
L 210.335067 511.825256 
L 213.410508 568.62114 
L 216.485949 545.902797 
L 219.56139 537.383415 
L 222.636831 577.140517 
L 225.712272 557.261963 
L 228.787712 614.057847 
L 231.863153 574.300728 
L 234.938594 560.101757 
L 238.014035 560.101757 
L 241.089476 548.742581 
L 244.164917 585.659905 
L 247.240358 557.261963 
L 250.315799 568.62114 
L 253.39124 526.024238 
L 256.46668 639.615994 
L 259.542121 599.858876 
L 262.617562 648.135376 
L 265.693003 639.615994 
L 268.768444 650.97517 
L 271.843885 645.295583 
L 274.919326 628.256818 
L 277.994767 631.096612 
L 281.070208 639.615994 
L 284.145648 622.577229 
L 287.221089 636.7762 
L 290.29653 591.339493 
L 293.371971 611.218055 
L 296.447412 616.897641 
L 299.522853 611.218055 
L 302.598294 594.179288 
L 305.673735 602.69867 
L 308.749176 582.820105 
L 311.824616 585.659905 
L 314.900057 591.339493 
L 317.975498 565.781346 
L 321.050939 597.019082 
L 324.12638 588.499694 
L 327.201821 602.69867 
L 330.277262 602.69867 
L 333.352703 639.615994 
L 336.428144 599.858876 
L 339.503584 599.858876 
L 342.579025 602.69867 
L 345.654466 616.897641 
L 348.729907 585.659905 
L 351.805348 605.538464 
L 354.880789 585.659905 
L 357.95623 614.057847 
L 361.031671 648.135376 
L 364.107112 625.417024 
L 367.182552 639.615994 
L 370.257993 645.295583 
L 373.333434 639.615994 
L 376.408875 648.135376 
L 379.484316 628.256818 
L 382.559757 636.7762 
L 385.635198 619.737435 
L 388.710639 650.97517 
L 391.78608 631.096612 
L 394.86152 562.941552 
L 397.936961 554.422169 
L 401.012402 588.499694 
L 404.087843 571.460929 
L 407.163284 520.344639 
L 410.238725 543.062992 
L 413.314166 517.504855 
L 416.389607 520.344639 
L 419.465048 520.344639 
L 422.540488 540.223198 
L 425.615929 545.902797 
L 428.69137 531.703816 
L 431.766811 520.344639 
L 434.842252 579.980317 
L 437.917693 579.980317 
L 440.993134 591.339493 
L 444.068575 582.820105 
L 447.144016 557.261963 
L 450.219457 557.261963 
L 453.294897 577.140517 
L 456.370338 585.659905 
L 459.445779 577.140517 
L 462.52122 614.057847 
L 465.596661 597.019082 
L 468.672102 625.417024 
L 471.747543 645.295583 
L 474.822984 622.577229 
L 477.898425 622.577229 
L 480.973865 631.096612 
L 484.049306 602.69867 
L 487.124747 619.737435 
L 490.200188 602.69867 
L 493.275629 631.096612 
L 496.35107 579.980317 
L 499.426511 585.659905 
L 502.501952 571.460929 
L 505.577393 577.140517 
L 508.652833 562.941552 
L 511.728274 579.980317 
L 514.803715 579.980317 
L 517.879156 582.820105 
L 520.954597 636.7762 
L 524.030038 628.256818 
L 527.105479 614.057847 
L 530.18092 614.057847 
L 533.256361 602.69867 
L 536.331801 628.256818 
L 539.407242 577.140517 
L 542.482683 608.378261 
L 545.558124 619.737435 
L 548.633565 611.218055 
L 551.709006 633.936406 
L 554.784447 619.737435 
L 557.859888 625.417024 
L 560.935329 639.615994 
L 564.010769 631.096612 
L 567.08621 631.096612 
L 570.161651 645.295583 
L 573.237092 619.737435 
L 576.312533 645.295583 
L 579.387974 614.057847 
L 582.463415 619.737435 
L 585.538856 622.577229 
L 588.614297 582.820105 
L 591.689737 588.499694 
L 594.765178 557.261963 
L 597.840619 531.703816 
L 600.91606 560.101757 
L 603.991501 565.781346 
L 607.066942 560.101757 
L 610.142383 557.261963 
L 613.217824 503.305874 
L 616.293265 537.383415 
L 619.368705 537.383415 
L 622.444146 545.902797 
L 625.519587 588.499694 
L 628.595028 608.378261 
L 631.670469 602.69867 
L 634.74591 631.096612 
L 637.821351 622.577229 
L 640.896792 605.538464 
L 643.972233 628.256818 
L 647.047673 642.455789 
L 650.123114 614.057847 
L 653.198555 639.615994 
L 656.273996 639.615994 
L 659.349437 628.256818 
L 662.424878 648.135376 
L 668.57576 648.135376 
L 671.651201 625.417024 
L 674.726642 625.417024 
L 677.802082 608.378261 
L 680.877523 625.417024 
L 683.952964 628.256818 
L 687.028405 602.69867 
L 690.103846 599.858876 
L 693.179287 591.339493 
L 696.254728 591.339493 
L 699.330169 599.858876 
L 702.40561 582.820105 
L 705.48105 602.69867 
L 708.556491 577.140517 
L 711.631932 588.499694 
L 714.707373 605.538464 
L 717.782814 625.417024 
L 720.858255 614.057847 
L 723.933696 616.897641 
L 727.009137 582.820105 
L 730.084578 625.417024 
L 733.160018 588.499694 
L 736.235459 608.378261 
L 739.3109 577.140517 
L 742.386341 616.897641 
L 745.461782 625.417024 
L 748.537223 614.057847 
L 751.612664 588.499694 
L 754.688105 602.69867 
L 757.763546 605.538464 
L 760.838986 619.737435 
L 763.914427 602.69867 
L 766.989868 579.980317 
L 770.065309 585.659905 
L 773.14075 588.499694 
L 776.216191 594.179288 
L 779.291632 611.218055 
L 782.367073 557.261963 
L 785.442514 571.460929 
L 788.517954 540.223198 
L 791.593395 565.781346 
L 794.668836 543.062992 
L 797.744277 562.941552 
L 800.819718 560.101757 
L 803.895159 588.499694 
L 806.9706 520.344639 
L 810.046041 560.101757 
L 813.121482 548.742581 
L 816.196922 548.742581 
L 819.272363 545.902797 
L 822.347804 594.179288 
L 825.423245 599.858876 
L 828.498686 611.218055 
L 831.574127 639.615994 
L 834.649568 616.897641 
L 840.80045 611.218055 
L 843.87589 565.781346 
L 846.951331 577.140517 
L 850.026772 591.339493 
L 853.102213 611.218055 
L 856.177654 594.179288 
L 859.253095 588.499694 
L 862.328536 614.057847 
L 865.403977 602.69867 
L 868.479418 608.378261 
L 871.554858 560.101757 
L 874.630299 594.179288 
L 877.70574 565.781346 
L 880.781181 608.378261 
L 883.856622 574.300728 
L 886.932063 585.659905 
L 890.007504 602.69867 
L 893.082945 611.218055 
L 896.158386 616.897641 
L 899.233827 625.417024 
L 905.384708 608.378261 
L 908.460149 597.019082 
L 911.53559 579.980317 
L 914.611031 591.339493 
L 917.686472 594.179288 
L 920.761913 625.417024 
L 923.837354 639.615994 
L 929.988235 628.256818 
L 933.063676 639.615994 
L 936.139117 648.135376 
L 939.214558 625.417024 
L 942.289999 645.295583 
L 945.36544 631.096612 
L 951.516322 614.057847 
L 954.591763 619.737435 
L 957.667203 614.057847 
L 960.742644 611.218055 
L 963.818085 599.858876 
L 966.893526 611.218055 
L 969.968967 582.820105 
L 973.044408 602.69867 
L 976.119849 571.460929 
L 979.19529 557.261963 
L 982.270731 577.140517 
L 985.346171 577.140517 
L 988.421612 614.057847 
L 988.421612 614.057847 
" clip-path="url(#p4f829067e1)" style="fill: none; stroke: #1f77b4; stroke-width: 1.5; stroke-linecap: square"/>
   </g>
   <g id="line2d_39">
    <path d="M 548.633565 621.200391 
L 551.709006 615.491263 
L 554.784447 620.779165 
L 557.859888 626.607565 
L 560.935329 618.680477 
L 564.010769 619.499568 
L 567.08621 611.121737 
L 570.161651 606.472211 
L 573.237092 594.597667 
L 576.312533 593.975585 
L 579.387974 588.52175 
L 582.463415 576.195943 
L 585.538856 568.701277 
L 591.689737 551.063151 
L 594.765178 548.037301 
L 597.840619 545.246071 
L 600.91606 554.093562 
L 603.991501 542.467927 
L 607.066942 548.818953 
L 610.142383 545.803925 
L 613.217824 569.835325 
L 616.293265 568.966717 
L 619.368705 571.675443 
L 622.444146 570.903189 
L 625.519587 576.66794 
L 628.595028 576.163834 
L 631.670469 579.839439 
L 634.74591 592.093776 
L 637.821351 593.628291 
L 640.896792 593.524018 
L 643.972233 600.961833 
L 647.047673 603.249959 
L 650.123114 610.340629 
L 653.198555 610.625013 
L 656.273996 620.050388 
L 659.349437 623.257466 
L 662.424878 621.723961 
L 665.500319 620.436256 
L 668.57576 613.201407 
L 671.651201 613.725741 
L 674.726642 600.404548 
L 677.802082 598.434944 
L 680.877523 598.1266 
L 683.952964 592.531102 
L 687.028405 589.424379 
L 690.103846 586.982804 
L 693.179287 583.057753 
L 696.254728 589.834682 
L 699.330169 590.375653 
L 702.40561 582.148489 
L 705.48105 586.808285 
L 708.556491 597.380908 
L 711.631932 595.600642 
L 714.707373 606.407213 
L 717.782814 604.960461 
L 720.858255 615.037076 
L 723.933696 615.148964 
L 727.009137 608.951576 
L 730.084578 606.027404 
L 733.160018 610.001116 
L 736.235459 611.348194 
L 739.3109 615.238 
L 742.386341 613.477772 
L 745.461782 620.769269 
L 748.537223 617.701917 
L 751.612664 612.754683 
L 754.688105 612.128622 
L 757.763546 612.981379 
L 760.838986 607.102478 
L 763.914427 605.505608 
L 766.989868 598.779188 
L 770.065309 584.049635 
L 773.14075 591.774447 
L 776.216191 578.210369 
L 779.291632 574.99719 
L 782.367073 563.099182 
L 785.442514 564.421414 
L 788.517954 560.310032 
L 791.593395 561.324928 
L 794.668836 554.970165 
L 797.744277 561.256615 
L 800.819718 557.746012 
L 803.895159 563.992516 
L 806.9706 567.529888 
L 810.046041 575.247642 
L 813.121482 576.020005 
L 816.196922 582.456806 
L 819.272363 582.027664 
L 822.347804 588.066181 
L 825.423245 592.136718 
L 828.498686 590.146828 
L 831.574127 594.814017 
L 834.649568 592.172537 
L 837.725009 599.323425 
L 840.80045 600.989961 
L 843.87589 601.007191 
L 846.951331 600.822489 
L 850.026772 600.392469 
L 853.102213 604.187465 
L 856.177654 609.935144 
L 859.253095 612.249339 
L 862.328536 606.582344 
L 865.403977 610.440582 
L 868.479418 607.568739 
L 871.554858 603.523697 
L 874.630299 605.310046 
L 877.70574 604.719709 
L 880.781181 597.780606 
L 883.856622 596.530255 
L 886.932063 601.98604 
L 890.007504 602.222784 
L 893.082945 610.448011 
L 896.158386 605.747145 
L 899.233827 607.424411 
L 902.309267 612.551952 
L 905.384708 613.538442 
L 911.53559 617.572001 
L 914.611031 615.607942 
L 917.686472 613.018227 
L 920.761913 608.90659 
L 926.912795 602.55763 
L 929.988235 601.324661 
L 933.063676 600.747476 
L 936.139117 596.223694 
L 939.214558 590.440586 
L 942.289999 588.278978 
L 945.36544 589.366899 
L 948.440881 589.328675 
L 951.516322 586.154413 
L 954.591763 576.527637 
L 957.667203 578.028559 
L 960.742644 578.834629 
L 963.818085 580.700941 
L 966.893526 576.770723 
L 969.968967 580.229372 
L 973.044408 567.770563 
L 976.119849 571.003962 
L 979.19529 569.413728 
L 982.270731 568.565491 
L 985.346171 565.316384 
L 988.421612 569.249744 
L 988.421612 569.249744 
" clip-path="url(#p4f829067e1)" style="fill: none; stroke: #ff7f0e; stroke-width: 1.5; stroke-linecap: square"/>
   </g>
   <g id="line2d_40">
    <path d="M 548.633565 658.500625 
L 548.633565 492.940625 
" clip-path="url(#p4f829067e1)" style="fill: none; stroke-dasharray: 7.4,3.2; stroke-dashoffset: 0; stroke: #0000ff; stroke-width: 2"/>
   </g>
   <g id="patch_14">
    <path d="M 61.6375 658.500625 
L 61.6375 492.940625 
" style="fill: none; stroke: #000000; stroke-width: 0.8; stroke-linejoin: miter; stroke-linecap: square"/>
   </g>
   <g id="patch_15">
    <path d="M 1032.554189 658.500625 
L 1032.554189 492.940625 
" style="fill: none; stroke: #000000; stroke-width: 0.8; stroke-linejoin: miter; stroke-linecap: square"/>
   </g>
   <g id="patch_16">
    <path d="M 61.6375 658.500625 
L 1032.554189 658.500625 
" style="fill: none; stroke: #000000; stroke-width: 0.8; stroke-linejoin: miter; stroke-linecap: square"/>
   </g>
   <g id="patch_17">
    <path d="M 61.6375 492.940625 
L 1032.554189 492.940625 
" style="fill: none; stroke: #000000; stroke-width: 0.8; stroke-linejoin: miter; stroke-linecap: square"/>
   </g>
   <g id="text_37">
    <!-- API_ID: 36 -->
    <g transform="translate(497.095845 486.940625) scale(0.2 -0.2)">
     <defs>
      <path id="SimSun-33" d="M 2800 1250 
Q 2800 775 2450 412 
Q 2100 50 1475 50 
Q 1025 50 700 300 
Q 375 550 375 875 
Q 375 1025 475 1137 
Q 575 1250 675 1250 
Q 825 1250 887 1137 
Q 950 1025 950 950 
Q 950 825 900 750 
Q 850 650 850 575 
Q 850 425 1037 325 
Q 1225 225 1450 225 
Q 1900 225 2125 487 
Q 2350 750 2350 1300 
Q 2350 1750 2112 2025 
Q 1875 2300 1225 2300 
L 1225 2475 
Q 1725 2475 1962 2712 
Q 2200 2950 2200 3375 
Q 2200 3725 2012 3987 
Q 1825 4250 1425 4250 
Q 1250 4250 1050 4162 
Q 850 4075 850 3875 
Q 850 3675 900 3625 
Q 950 3575 950 3500 
Q 950 3375 900 3300 
Q 850 3225 725 3225 
Q 625 3225 537 3300 
Q 450 3375 450 3575 
Q 450 3950 775 4187 
Q 1100 4425 1525 4425 
Q 2025 4425 2325 4112 
Q 2625 3800 2625 3450 
Q 2625 3075 2437 2812 
Q 2250 2550 1850 2425 
Q 2400 2225 2600 1900 
Q 2800 1575 2800 1250 
z
" transform="scale(0.015625)"/>
      <path id="SimSun-36" d="M 775 1800 
Q 775 1050 1037 637 
Q 1300 225 1675 225 
Q 2050 225 2250 500 
Q 2450 775 2450 1525 
Q 2450 2025 2237 2300 
Q 2025 2575 1725 2575 
Q 1450 2575 1212 2412 
Q 975 2250 775 1800 
z
M 1750 2825 
Q 2350 2825 2612 2425 
Q 2875 2025 2875 1525 
Q 2875 775 2512 412 
Q 2150 50 1675 50 
Q 1000 50 650 562 
Q 300 1075 300 2050 
Q 300 3200 725 3812 
Q 1150 4425 1875 4425 
Q 2225 4425 2437 4225 
Q 2650 4025 2650 3875 
Q 2650 3725 2587 3650 
Q 2525 3575 2375 3575 
Q 2250 3575 2187 3637 
Q 2125 3700 2125 3825 
Q 2125 3875 2150 3925 
Q 2150 3975 2150 4025 
Q 2150 4125 2075 4187 
Q 2000 4250 1800 4250 
Q 1375 4250 1075 3862 
Q 775 3475 775 2175 
Q 925 2500 1187 2662 
Q 1450 2825 1750 2825 
z
" transform="scale(0.015625)"/>
     </defs>
     <use xlink:href="#SimSun-41"/>
     <use xlink:href="#SimSun-50" x="50"/>
     <use xlink:href="#SimSun-49" x="100"/>
     <use xlink:href="#SimSun-5f" x="150"/>
     <use xlink:href="#SimSun-49" x="200"/>
     <use xlink:href="#SimSun-44" x="250"/>
     <use xlink:href="#SimSun-3a" x="300"/>
     <use xlink:href="#SimSun-20" x="350"/>
     <use xlink:href="#SimSun-33" x="400"/>
     <use xlink:href="#SimSun-36" x="450"/>
    </g>
   </g>
  </g>
 </g>
 <defs>
  <clipPath id="pd86b2dc33b">
   <rect x="61.6375" y="27.340625" width="970.916689" height="165.56"/>
  </clipPath>
  <clipPath id="p7ed4078e17">
   <rect x="61.6375" y="260.140625" width="970.916689" height="165.56"/>
  </clipPath>
  <clipPath id="p4f829067e1">
   <rect x="61.6375" y="492.940625" width="970.916689" height="165.56"/>
  </clipPath>
 </defs>
</svg>
