<?xml version="1.0" encoding="utf-8" standalone="no"?>
<!DOCTYPE svg PUBLIC "-//W3C//DTD SVG 1.1//EN"
  "http://www.w3.org/Graphics/SVG/1.1/DTD/svg11.dtd">
<svg xmlns:xlink="http://www.w3.org/1999/xlink" width="1050.561048pt" height="690.86625pt" viewBox="0 0 1050.561048 690.86625" xmlns="http://www.w3.org/2000/svg" version="1.1">
 <metadata>
  <rdf:RDF xmlns:dc="http://purl.org/dc/elements/1.1/" xmlns:cc="http://creativecommons.org/ns#" xmlns:rdf="http://www.w3.org/1999/02/22-rdf-syntax-ns#">
   <cc:Work>
    <dc:type rdf:resource="http://purl.org/dc/dcmitype/StillImage"/>
    <dc:date>2024-02-27T17:03:17.827150</dc:date>
    <dc:format>image/svg+xml</dc:format>
    <dc:creator>
     <cc:Agent>
      <dc:title>Matplotlib v3.7.1, https://matplotlib.org/</dc:title>
     </cc:Agent>
    </dc:creator>
   </cc:Work>
  </rdf:RDF>
 </metadata>
 <defs>
  <style type="text/css">*{stroke-linejoin: round; stroke-linecap: butt}</style>
 </defs>
 <g id="figure_1">
  <g id="patch_1">
   <path d="M 0 690.86625 
L 1050.561048 690.86625 
L 1050.561048 0 
L 0 0 
z
" style="fill: #ffffff"/>
  </g>
  <g id="axes_1">
   <g id="patch_2">
    <path d="M 56.6375 192.900625 
L 1032.534189 192.900625 
L 1032.534189 27.340625 
L 56.6375 27.340625 
z
" style="fill: #ffffff"/>
   </g>
   <g id="matplotlib.axis_1">
    <g id="xtick_1">
     <g id="line2d_1">
      <defs>
       <path id="m0513df6ef9" d="M 0 0 
L 0 3.5 
" style="stroke: #000000; stroke-width: 0.8"/>
      </defs>
      <g>
       <use xlink:href="#m0513df6ef9" x="100.99644" y="192.900625" style="stroke: #000000; stroke-width: 0.8"/>
      </g>
     </g>
     <g id="text_1">
      <!-- 0 -->
      <g transform="translate(95.99644 213.788125) scale(0.2 -0.2)">
       <defs>
        <path id="TimesNewRomanPSMT-30" d="M 231 2094 
Q 231 2819 450 3342 
Q 669 3866 1031 4122 
Q 1313 4325 1613 4325 
Q 2100 4325 2488 3828 
Q 2972 3213 2972 2159 
Q 2972 1422 2759 906 
Q 2547 391 2217 158 
Q 1888 -75 1581 -75 
Q 975 -75 572 641 
Q 231 1244 231 2094 
z
M 844 2016 
Q 844 1141 1059 588 
Q 1238 122 1591 122 
Q 1759 122 1940 273 
Q 2122 425 2216 781 
Q 2359 1319 2359 2297 
Q 2359 3022 2209 3506 
Q 2097 3866 1919 4016 
Q 1791 4119 1609 4119 
Q 1397 4119 1231 3928 
Q 1006 3669 925 3112 
Q 844 2556 844 2016 
z
" transform="scale(0.015625)"/>
       </defs>
       <use xlink:href="#TimesNewRomanPSMT-30"/>
      </g>
     </g>
    </g>
    <g id="xtick_2">
     <g id="line2d_2">
      <g>
       <use xlink:href="#m0513df6ef9" x="255.557208" y="192.900625" style="stroke: #000000; stroke-width: 0.8"/>
      </g>
     </g>
     <g id="text_2">
      <!-- 50 -->
      <g transform="translate(245.557208 213.788125) scale(0.2 -0.2)">
       <defs>
        <path id="TimesNewRomanPSMT-35" d="M 2778 4238 
L 2534 3706 
L 1259 3706 
L 981 3138 
Q 1809 3016 2294 2522 
Q 2709 2097 2709 1522 
Q 2709 1188 2573 903 
Q 2438 619 2231 419 
Q 2025 219 1772 97 
Q 1413 -75 1034 -75 
Q 653 -75 479 54 
Q 306 184 306 341 
Q 306 428 378 495 
Q 450 563 559 563 
Q 641 563 702 538 
Q 763 513 909 409 
Q 1144 247 1384 247 
Q 1750 247 2026 523 
Q 2303 800 2303 1197 
Q 2303 1581 2056 1914 
Q 1809 2247 1375 2428 
Q 1034 2569 447 2591 
L 1259 4238 
L 2778 4238 
z
" transform="scale(0.015625)"/>
       </defs>
       <use xlink:href="#TimesNewRomanPSMT-35"/>
       <use xlink:href="#TimesNewRomanPSMT-30" x="50"/>
      </g>
     </g>
    </g>
    <g id="xtick_3">
     <g id="line2d_3">
      <g>
       <use xlink:href="#m0513df6ef9" x="410.117976" y="192.900625" style="stroke: #000000; stroke-width: 0.8"/>
      </g>
     </g>
     <g id="text_3">
      <!-- 100 -->
      <g transform="translate(395.117976 213.788125) scale(0.2 -0.2)">
       <defs>
        <path id="TimesNewRomanPSMT-31" d="M 750 3822 
L 1781 4325 
L 1884 4325 
L 1884 747 
Q 1884 391 1914 303 
Q 1944 216 2037 169 
Q 2131 122 2419 116 
L 2419 0 
L 825 0 
L 825 116 
Q 1125 122 1212 167 
Q 1300 213 1334 289 
Q 1369 366 1369 747 
L 1369 3034 
Q 1369 3497 1338 3628 
Q 1316 3728 1258 3775 
Q 1200 3822 1119 3822 
Q 1003 3822 797 3725 
L 750 3822 
z
" transform="scale(0.015625)"/>
       </defs>
       <use xlink:href="#TimesNewRomanPSMT-31"/>
       <use xlink:href="#TimesNewRomanPSMT-30" x="50"/>
       <use xlink:href="#TimesNewRomanPSMT-30" x="100"/>
      </g>
     </g>
    </g>
    <g id="xtick_4">
     <g id="line2d_4">
      <g>
       <use xlink:href="#m0513df6ef9" x="564.678744" y="192.900625" style="stroke: #000000; stroke-width: 0.8"/>
      </g>
     </g>
     <g id="text_4">
      <!-- 150 -->
      <g transform="translate(549.678744 213.788125) scale(0.2 -0.2)">
       <use xlink:href="#TimesNewRomanPSMT-31"/>
       <use xlink:href="#TimesNewRomanPSMT-35" x="50"/>
       <use xlink:href="#TimesNewRomanPSMT-30" x="100"/>
      </g>
     </g>
    </g>
    <g id="xtick_5">
     <g id="line2d_5">
      <g>
       <use xlink:href="#m0513df6ef9" x="719.239512" y="192.900625" style="stroke: #000000; stroke-width: 0.8"/>
      </g>
     </g>
     <g id="text_5">
      <!-- 200 -->
      <g transform="translate(704.239512 213.788125) scale(0.2 -0.2)">
       <defs>
        <path id="TimesNewRomanPSMT-32" d="M 2934 816 
L 2638 0 
L 138 0 
L 138 116 
Q 1241 1122 1691 1759 
Q 2141 2397 2141 2925 
Q 2141 3328 1894 3587 
Q 1647 3847 1303 3847 
Q 991 3847 742 3664 
Q 494 3481 375 3128 
L 259 3128 
Q 338 3706 661 4015 
Q 984 4325 1469 4325 
Q 1984 4325 2329 3994 
Q 2675 3663 2675 3213 
Q 2675 2891 2525 2569 
Q 2294 2063 1775 1497 
Q 997 647 803 472 
L 1909 472 
Q 2247 472 2383 497 
Q 2519 522 2628 598 
Q 2738 675 2819 816 
L 2934 816 
z
" transform="scale(0.015625)"/>
       </defs>
       <use xlink:href="#TimesNewRomanPSMT-32"/>
       <use xlink:href="#TimesNewRomanPSMT-30" x="50"/>
       <use xlink:href="#TimesNewRomanPSMT-30" x="100"/>
      </g>
     </g>
    </g>
    <g id="xtick_6">
     <g id="line2d_6">
      <g>
       <use xlink:href="#m0513df6ef9" x="873.80028" y="192.900625" style="stroke: #000000; stroke-width: 0.8"/>
      </g>
     </g>
     <g id="text_6">
      <!-- 250 -->
      <g transform="translate(858.80028 213.788125) scale(0.2 -0.2)">
       <use xlink:href="#TimesNewRomanPSMT-32"/>
       <use xlink:href="#TimesNewRomanPSMT-35" x="50"/>
       <use xlink:href="#TimesNewRomanPSMT-30" x="100"/>
      </g>
     </g>
    </g>
    <g id="xtick_7">
     <g id="line2d_7">
      <g>
       <use xlink:href="#m0513df6ef9" x="1028.361048" y="192.900625" style="stroke: #000000; stroke-width: 0.8"/>
      </g>
     </g>
     <g id="text_7">
      <!-- 300 -->
      <g transform="translate(1013.361048 213.788125) scale(0.2 -0.2)">
       <defs>
        <path id="TimesNewRomanPSMT-33" d="M 325 3431 
Q 506 3859 782 4092 
Q 1059 4325 1472 4325 
Q 1981 4325 2253 3994 
Q 2459 3747 2459 3466 
Q 2459 3003 1878 2509 
Q 2269 2356 2469 2072 
Q 2669 1788 2669 1403 
Q 2669 853 2319 450 
Q 1863 -75 997 -75 
Q 569 -75 414 31 
Q 259 138 259 259 
Q 259 350 332 419 
Q 406 488 509 488 
Q 588 488 669 463 
Q 722 447 909 348 
Q 1097 250 1169 231 
Q 1284 197 1416 197 
Q 1734 197 1970 444 
Q 2206 691 2206 1028 
Q 2206 1275 2097 1509 
Q 2016 1684 1919 1775 
Q 1784 1900 1550 2001 
Q 1316 2103 1072 2103 
L 972 2103 
L 972 2197 
Q 1219 2228 1467 2375 
Q 1716 2522 1828 2728 
Q 1941 2934 1941 3181 
Q 1941 3503 1739 3701 
Q 1538 3900 1238 3900 
Q 753 3900 428 3381 
L 325 3431 
z
" transform="scale(0.015625)"/>
       </defs>
       <use xlink:href="#TimesNewRomanPSMT-33"/>
       <use xlink:href="#TimesNewRomanPSMT-30" x="50"/>
       <use xlink:href="#TimesNewRomanPSMT-30" x="100"/>
      </g>
     </g>
    </g>
   </g>
   <g id="matplotlib.axis_2">
    <g id="ytick_1">
     <g id="line2d_8">
      <defs>
       <path id="m8d3d6a325a" d="M 0 0 
L -3.5 0 
" style="stroke: #000000; stroke-width: 0.8"/>
      </defs>
      <g>
       <use xlink:href="#m8d3d6a325a" x="56.6375" y="142.154656" style="stroke: #000000; stroke-width: 0.8"/>
      </g>
     </g>
     <g id="text_8">
      <!-- 4 -->
      <g transform="translate(39.6375 149.098406) scale(0.2 -0.2)">
       <defs>
        <path id="TimesNewRomanPSMT-34" d="M 2978 1563 
L 2978 1119 
L 2409 1119 
L 2409 0 
L 1894 0 
L 1894 1119 
L 100 1119 
L 100 1519 
L 2066 4325 
L 2409 4325 
L 2409 1563 
L 2978 1563 
z
M 1894 1563 
L 1894 3666 
L 406 1563 
L 1894 1563 
z
" transform="scale(0.015625)"/>
       </defs>
       <use xlink:href="#TimesNewRomanPSMT-34"/>
      </g>
     </g>
    </g>
    <g id="ytick_2">
     <g id="line2d_9">
      <g>
       <use xlink:href="#m8d3d6a325a" x="56.6375" y="91.306992" style="stroke: #000000; stroke-width: 0.8"/>
      </g>
     </g>
     <g id="text_9">
      <!-- 6 -->
      <g transform="translate(39.6375 98.250742) scale(0.2 -0.2)">
       <defs>
        <path id="TimesNewRomanPSMT-36" d="M 2869 4325 
L 2869 4209 
Q 2456 4169 2195 4045 
Q 1934 3922 1679 3669 
Q 1425 3416 1258 3105 
Q 1091 2794 978 2366 
Q 1428 2675 1881 2675 
Q 2316 2675 2634 2325 
Q 2953 1975 2953 1425 
Q 2953 894 2631 456 
Q 2244 -75 1606 -75 
Q 1172 -75 869 213 
Q 275 772 275 1663 
Q 275 2231 503 2743 
Q 731 3256 1154 3653 
Q 1578 4050 1965 4187 
Q 2353 4325 2688 4325 
L 2869 4325 
z
M 925 2138 
Q 869 1716 869 1456 
Q 869 1156 980 804 
Q 1091 453 1309 247 
Q 1469 100 1697 100 
Q 1969 100 2183 356 
Q 2397 613 2397 1088 
Q 2397 1622 2184 2012 
Q 1972 2403 1581 2403 
Q 1463 2403 1327 2353 
Q 1191 2303 925 2138 
z
" transform="scale(0.015625)"/>
       </defs>
       <use xlink:href="#TimesNewRomanPSMT-36"/>
      </g>
     </g>
    </g>
    <g id="ytick_3">
     <g id="line2d_10">
      <g>
       <use xlink:href="#m8d3d6a325a" x="56.6375" y="40.459329" style="stroke: #000000; stroke-width: 0.8"/>
      </g>
     </g>
     <g id="text_10">
      <!-- 8 -->
      <g transform="translate(39.6375 47.403079) scale(0.2 -0.2)">
       <defs>
        <path id="TimesNewRomanPSMT-38" d="M 1228 2134 
Q 725 2547 579 2797 
Q 434 3047 434 3316 
Q 434 3728 753 4026 
Q 1072 4325 1600 4325 
Q 2113 4325 2425 4047 
Q 2738 3769 2738 3413 
Q 2738 3175 2569 2928 
Q 2400 2681 1866 2347 
Q 2416 1922 2594 1678 
Q 2831 1359 2831 1006 
Q 2831 559 2490 242 
Q 2150 -75 1597 -75 
Q 994 -75 656 303 
Q 388 606 388 966 
Q 388 1247 577 1523 
Q 766 1800 1228 2134 
z
M 1719 2469 
Q 2094 2806 2194 3001 
Q 2294 3197 2294 3444 
Q 2294 3772 2109 3958 
Q 1925 4144 1606 4144 
Q 1288 4144 1088 3959 
Q 888 3775 888 3528 
Q 888 3366 970 3203 
Q 1053 3041 1206 2894 
L 1719 2469 
z
M 1375 2016 
Q 1116 1797 991 1539 
Q 866 1281 866 981 
Q 866 578 1086 336 
Q 1306 94 1647 94 
Q 1984 94 2187 284 
Q 2391 475 2391 747 
Q 2391 972 2272 1150 
Q 2050 1481 1375 2016 
z
" transform="scale(0.015625)"/>
       </defs>
       <use xlink:href="#TimesNewRomanPSMT-38"/>
      </g>
     </g>
    </g>
    <g id="text_11">
     <!-- CPU使用率 -->
     <g transform="translate(33.059375 155.120625) rotate(-90) scale(0.2 -0.2)">
      <defs>
       <path id="SimSun-43" d="M 1725 50 
Q 1025 50 612 575 
Q 200 1100 200 2225 
Q 200 3175 637 3800 
Q 1075 4425 1825 4425 
Q 2000 4425 2175 4375 
Q 2350 4300 2475 4300 
Q 2575 4300 2637 4325 
Q 2700 4350 2750 4425 
L 2975 3325 
L 2825 3275 
Q 2675 3750 2425 4000 
Q 2175 4250 1775 4250 
Q 1250 4250 962 3675 
Q 675 3100 675 2250 
Q 675 1325 925 800 
Q 1175 275 1750 275 
Q 2150 275 2437 562 
Q 2725 850 2825 1325 
L 2975 1250 
Q 2850 725 2512 387 
Q 2175 50 1725 50 
z
" transform="scale(0.015625)"/>
       <path id="SimSun-50" d="M 950 2100 
L 950 450 
Q 950 350 1012 300 
Q 1075 250 1175 250 
L 1350 250 
L 1350 100 
L 150 100 
L 150 250 
L 325 250 
Q 450 250 500 300 
Q 550 350 550 450 
L 550 4025 
Q 550 4125 500 4175 
Q 450 4225 325 4225 
L 175 4225 
L 175 4375 
L 1650 4375 
Q 2275 4375 2612 4062 
Q 2950 3750 2950 3275 
Q 2950 2700 2587 2400 
Q 2225 2100 1725 2100 
L 950 2100 
z
M 1575 2250 
Q 1950 2250 2237 2475 
Q 2525 2700 2525 3250 
Q 2525 3750 2287 3987 
Q 2050 4225 1525 4225 
L 1175 4225 
Q 1075 4225 1012 4175 
Q 950 4125 950 4025 
L 950 2250 
L 1575 2250 
z
" transform="scale(0.015625)"/>
       <path id="SimSun-55" d="M 1625 250 
Q 2000 250 2262 500 
Q 2525 750 2525 1125 
L 2525 4025 
Q 2525 4125 2475 4175 
Q 2425 4225 2300 4225 
L 2150 4225 
L 2150 4375 
L 3050 4375 
L 3050 4225 
L 2900 4225 
Q 2800 4225 2737 4175 
Q 2675 4125 2675 4025 
L 2675 1125 
Q 2675 625 2337 337 
Q 2000 50 1575 50 
Q 1125 50 787 300 
Q 450 550 450 1100 
L 450 4025 
Q 450 4125 400 4175 
Q 350 4225 225 4225 
L 100 4225 
L 100 4375 
L 1200 4375 
L 1200 4225 
L 1075 4225 
Q 975 4225 912 4175 
Q 850 4125 850 4025 
L 850 1100 
Q 850 600 1062 425 
Q 1275 250 1625 250 
z
" transform="scale(0.015625)"/>
       <path id="SimSun-4f7f" d="M 2875 3150 
L 2875 2100 
L 3825 2100 
Q 3850 2825 3850 3150 
L 2875 3150 
z
M 4175 3150 
Q 4175 2800 4150 2100 
L 5150 2100 
L 5150 3150 
L 4175 3150 
z
M 5475 3100 
L 5475 2425 
Q 5475 2100 5500 1800 
L 5150 1675 
L 5150 1950 
L 4150 1950 
Q 4125 1175 3875 600 
Q 4275 275 4875 75 
Q 5475 -125 6075 -150 
L 6075 -250 
Q 5700 -300 5600 -575 
Q 4525 -325 3725 350 
Q 3425 25 2925 -225 
Q 2425 -475 1875 -650 
L 1825 -550 
Q 2400 -325 2850 -25 
Q 3300 275 3500 575 
Q 3200 925 2825 1650 
L 2900 1700 
Q 3325 1100 3625 825 
Q 3800 1300 3825 1950 
L 2875 1950 
L 2875 1825 
L 2525 1675 
Q 2550 2075 2550 2562 
Q 2550 3050 2525 3500 
L 2875 3300 
L 3850 3300 
L 3850 4025 
L 2975 4025 
Q 2650 4025 2375 3950 
L 2150 4175 
L 3850 4175 
L 3850 4525 
Q 3850 4775 3825 5225 
L 4350 5000 
L 4175 4825 
L 4175 4175 
L 5300 4175 
L 5600 4475 
L 6050 4025 
L 4175 4025 
L 4175 3300 
L 5100 3300 
L 5275 3525 
L 5650 3225 
L 5475 3100 
z
M 1675 3175 
L 1675 -450 
L 1325 -625 
Q 1350 -75 1350 350 
L 1350 3200 
Q 900 2475 350 1900 
L 275 1950 
Q 700 2525 1112 3400 
Q 1525 4275 1800 5250 
L 2325 4925 
L 2125 4800 
Q 1725 3925 1500 3525 
L 1875 3325 
L 1675 3175 
z
" transform="scale(0.015625)"/>
       <path id="SimSun-7528" d="M 3400 3150 
L 3400 1825 
L 5075 1825 
L 5075 3150 
L 3400 3150 
z
M 4075 100 
Q 4725 50 4900 62 
Q 5075 75 5075 400 
L 5075 1675 
L 3400 1675 
Q 3400 75 3425 -225 
L 3050 -400 
Q 3075 1025 3075 1675 
L 1425 1675 
Q 1250 350 375 -600 
L 300 -550 
Q 775 225 950 1025 
Q 1125 1825 1125 3225 
Q 1125 4625 1100 5075 
L 1475 4825 
L 5050 4825 
L 5225 5100 
L 5625 4800 
L 5425 4600 
L 5425 225 
Q 5450 -400 4875 -575 
Q 4825 -150 4075 -25 
L 4075 100 
z
M 1475 4675 
L 1475 3300 
L 3075 3300 
L 3075 4675 
L 1475 4675 
z
M 3400 4675 
L 3400 3300 
L 5075 3300 
L 5075 4675 
L 3400 4675 
z
M 1475 3150 
Q 1450 2100 1425 1825 
L 3075 1825 
L 3075 3150 
L 1475 3150 
z
" transform="scale(0.015625)"/>
       <path id="SimSun-7387" d="M 875 3725 
L 925 3800 
Q 1375 3650 1550 3525 
Q 1725 3400 1725 3250 
Q 1725 3175 1662 3025 
Q 1600 2875 1550 2875 
Q 1500 2875 1425 3050 
Q 1275 3325 875 3725 
z
M 550 1850 
Q 875 1925 2000 2575 
L 2050 2500 
Q 1675 2225 1337 1937 
Q 1000 1650 875 1425 
L 550 1850 
z
M 5200 3450 
Q 4800 3150 4275 2800 
L 4225 2875 
Q 4775 3400 5050 3925 
L 5450 3525 
L 5200 3450 
z
M 4325 2500 
L 4350 2575 
Q 5225 2350 5375 2212 
Q 5525 2075 5525 1900 
Q 5525 1775 5487 1662 
Q 5450 1550 5400 1550 
Q 5325 1550 5200 1800 
Q 4975 2150 4325 2500 
z
M 3150 3900 
Q 2500 3300 2300 3150 
Q 2800 3150 3400 3175 
Q 3700 3500 3850 3825 
L 4250 3450 
Q 4050 3400 3450 2825 
Q 2850 2250 2475 1950 
Q 3150 1975 3850 2000 
Q 3750 2175 3550 2450 
L 3600 2500 
Q 4050 2250 4200 2100 
Q 4350 1950 4350 1850 
Q 4350 1775 4250 1625 
Q 4150 1475 4100 1475 
Q 4075 1475 4050 1550 
Q 4000 1700 3900 1900 
Q 3650 1875 3075 1800 
L 3500 1550 
L 3325 1425 
L 3325 975 
L 5325 975 
L 5650 1300 
L 6100 825 
L 3325 825 
Q 3325 -275 3350 -525 
L 2975 -650 
Q 3000 0 3000 825 
L 1125 825 
Q 800 825 525 750 
L 300 975 
L 3000 975 
L 3000 1775 
Q 2450 1700 2200 1525 
L 1950 1950 
Q 2275 1950 2675 2350 
Q 3075 2750 3325 3050 
Q 2400 2950 2150 2775 
L 1950 3175 
Q 2150 3150 2475 3575 
Q 2800 4000 2900 4225 
L 1450 4225 
Q 1125 4225 850 4150 
L 625 4375 
L 3100 4375 
Q 3050 4800 2675 5200 
L 2725 5250 
Q 3225 5050 3337 4912 
Q 3450 4775 3450 4700 
Q 3450 4550 3250 4375 
L 5025 4375 
L 5350 4675 
L 5775 4225 
L 3050 4225 
L 3375 3950 
L 3150 3900 
z
" transform="scale(0.015625)"/>
      </defs>
      <use xlink:href="#SimSun-43"/>
      <use xlink:href="#SimSun-50" x="50"/>
      <use xlink:href="#SimSun-55" x="100"/>
      <use xlink:href="#SimSun-4f7f" x="150"/>
      <use xlink:href="#SimSun-7528" x="250"/>
      <use xlink:href="#SimSun-7387" x="350"/>
     </g>
    </g>
   </g>
   <g id="line2d_11">
    <path d="M 100.99644 172.663249 
L 104.087656 170.883588 
L 107.178871 178.764968 
L 110.270086 174.697153 
L 113.361302 172.154772 
L 116.452517 170.62935 
L 119.543733 178.51073 
L 122.634948 174.697153 
L 125.726163 181.307355 
L 128.817379 185.37517 
L 131.908594 179.019206 
L 134.999809 174.951391 
L 138.091025 163.256434 
L 141.18224 164.781862 
L 144.273455 165.798821 
L 147.364671 157.408952 
L 150.455886 160.968291 
L 153.547102 172.409011 
L 156.638317 125.120686 
L 159.729532 140.374983 
L 162.820748 159.188619 
L 165.911963 116.730824 
L 169.003178 135.035977 
L 172.094394 146.730941 
L 175.185609 154.103857 
L 178.276824 149.781804 
L 181.36804 83.425606 
L 184.459255 104.527384 
L 187.55047 118.00202 
L 190.641686 62.832304 
L 193.732901 63.849256 
L 196.824117 92.069701 
L 199.915332 119.018973 
L 203.006547 118.256252 
L 206.097763 144.95128 
L 209.188978 162.239482 
L 212.280193 118.510497 
L 215.371409 127.154591 
L 218.462624 114.188443 
L 221.553839 115.205396 
L 224.645055 97.408706 
L 227.73627 86.222219 
L 230.827486 106.307057 
L 233.918701 109.86639 
L 237.009916 66.900113 
L 240.101132 103.001956 
L 243.192347 126.137639 
L 246.283562 131.730889 
L 249.374778 144.697036 
L 252.465993 143.680084 
L 255.557208 124.866454 
L 258.648424 140.120751 
L 261.739639 150.036042 
L 264.830854 156.392 
L 267.92207 151.307232 
L 271.013285 166.307297 
L 274.104501 175.714112 
L 277.195716 182.070069 
L 280.286931 167.578487 
L 286.469362 167.578487 
L 289.560577 176.731064 
L 292.651793 164.273386 
L 295.743008 156.392 
L 298.834223 160.459809 
L 301.925439 172.154772 
L 305.016654 170.375106 
L 308.10787 169.358154 
L 314.2903 168.341201 
L 317.381516 177.23954 
L 320.472731 173.680201 
L 323.563946 162.49372 
L 326.655162 164.273386 
L 329.746377 138.086846 
L 332.837592 148.764852 
L 335.928808 155.375048 
L 339.020023 159.697095 
L 342.111238 171.646296 
L 345.202454 170.120868 
L 351.384885 168.595439 
L 354.4761 140.883459 
L 357.567315 159.697095 
L 360.658531 162.49372 
L 363.749746 164.273386 
L 366.840961 138.086846 
L 369.932177 139.612275 
L 373.023392 158.680142 
L 376.114607 125.374931 
L 379.205823 122.324062 
L 382.297038 93.086665 
L 385.388254 101.476527 
L 388.479469 115.968104 
L 391.570684 107.069765 
L 394.6619 137.832602 
L 397.753115 139.358031 
L 400.84433 94.866325 
L 403.935546 111.900295 
L 407.026761 140.883459 
L 410.117976 86.730695 
L 413.209192 124.866454 
L 416.300407 130.968168 
L 419.391622 144.18856 
L 422.482838 134.273269 
L 425.574053 137.069894 
L 428.665269 120.798633 
L 431.756484 119.273205 
L 434.847699 127.408835 
L 437.938915 141.900411 
L 441.03013 123.849502 
L 444.121345 139.358031 
L 447.212561 140.374983 
L 450.303776 104.527384 
L 453.394991 136.307174 
L 456.486207 147.493661 
L 459.577422 145.459757 
L 462.668638 162.49372 
L 465.759853 164.273386 
L 468.851068 174.697153 
L 471.942284 172.154772 
L 475.033499 161.476767 
L 478.124714 154.612333 
L 481.21593 159.188619 
L 484.307145 171.392064 
L 487.39836 169.86663 
L 490.489576 169.103916 
L 493.580791 177.748016 
L 496.672006 173.934439 
L 499.763222 180.798879 
L 502.854437 175.96835 
L 505.945653 182.070069 
L 509.036868 176.985302 
L 512.128083 173.680201 
L 515.219299 171.392064 
L 518.310514 170.120868 
L 521.401729 159.951333 
L 524.492945 171.900534 
L 527.58416 179.527683 
L 530.675375 166.053059 
L 536.857806 167.070011 
L 539.949022 176.222588 
L 543.040237 164.019148 
L 546.131452 165.290338 
L 549.222668 156.900476 
L 552.313883 133.510549 
L 555.405098 145.713995 
L 558.496314 153.595381 
L 561.587529 122.06983 
L 564.678744 101.985004 
L 567.76996 134.527501 
L 570.861175 146.476703 
L 573.95239 117.493544 
L 577.043606 98.934147 
L 580.134821 78.0866 
L 583.226037 100.968051 
L 586.317252 79.357785 
L 589.408467 56.222102 
L 592.499683 86.984939 
L 595.590898 115.968104 
L 598.682113 107.069765 
L 601.773329 110.62911 
L 604.864544 140.120751 
L 607.955759 95.374802 
L 611.046975 84.69679 
L 614.13819 105.290105 
L 617.229406 136.81565 
L 620.320621 156.900476 
L 623.411836 160.714053 
L 626.503052 135.798698 
L 629.594267 83.425606 
L 632.685482 122.578306 
L 635.776698 138.849555 
L 638.867913 121.815585 
L 641.959128 138.086846 
L 645.050344 157.917428 
L 648.141559 161.222529 
L 651.232774 163.510672 
L 654.32399 165.0361 
L 657.415205 184.103974 
L 660.506421 178.256492 
L 663.597636 174.442915 
L 666.688851 171.900534 
L 669.780067 179.527683 
L 672.871282 175.205629 
L 675.962497 172.409011 
L 679.053713 161.731005 
L 682.144928 163.76491 
L 685.236143 174.188677 
L 688.327359 181.053117 
L 691.418574 185.37517 
L 694.50979 179.019206 
L 697.601005 174.951391 
L 700.69222 181.307355 
L 703.783436 176.476826 
L 706.874651 173.171725 
L 709.965866 162.239482 
L 713.057082 173.171725 
L 716.148297 180.290397 
L 719.239512 184.866688 
L 722.330728 178.764968 
L 725.421943 156.392 
L 728.513158 160.459809 
L 731.604374 163.002196 
L 734.695589 173.680201 
L 737.786805 125.883407 
L 740.87802 150.036042 
L 743.969235 165.290338 
L 747.060451 138.849555 
L 750.151666 103.510432 
L 753.242881 99.188379 
L 756.334097 96.391754 
L 759.425312 94.612093 
L 762.516527 66.137393 
L 765.607743 102.49348 
L 768.698958 52.917013 
L 771.790174 48.340716 
L 774.881389 63.849256 
L 777.972604 82.662886 
L 781.06382 85.713743 
L 784.155035 96.90023 
L 787.24625 58.510251 
L 790.337466 106.561289 
L 793.428681 101.222283 
L 796.519896 134.019025 
L 799.611112 127.917311 
L 802.702327 114.696919 
L 805.793542 97.154474 
L 808.884758 95.12057 
L 811.975973 111.900295 
L 815.067189 131.985121 
L 818.158404 163.002196 
L 821.249619 164.527624 
L 824.340835 110.883342 
L 827.43205 140.374983 
L 830.523265 159.188619 
L 833.614481 171.392064 
L 836.705696 169.86663 
L 839.796911 169.103916 
L 842.888127 168.595439 
L 845.979342 159.188619 
L 849.070557 171.137826 
L 852.161773 179.019206 
L 855.252988 184.103974 
L 858.344204 169.103916 
L 864.526634 168.086963 
L 867.61785 176.985302 
L 870.709065 173.680201 
L 873.80028 135.035977 
L 876.891496 146.730941 
L 879.982711 117.747776 
L 883.073926 126.391883 
L 886.165142 141.137703 
L 889.256357 150.544518 
L 892.347573 147.493661 
L 895.438788 154.866571 
L 898.530003 131.985121 
L 901.621219 153.849619 
L 904.712434 158.680142 
L 907.803649 98.171426 
L 910.894865 104.781628 
L 917.077295 150.798756 
L 920.168511 156.900476 
L 923.259726 169.86663 
L 926.350941 169.103916 
L 929.442157 168.595439 
L 935.624588 60.035679 
L 938.715803 34.86608 
L 941.807018 82.408654 
L 944.898234 112.917247 
L 947.989449 132.493597 
L 951.080664 154.103857 
L 954.17188 140.629227 
L 957.263095 104.781628 
L 960.35431 127.408835 
L 963.445526 141.646179 
L 966.536741 151.052994 
L 969.627957 156.900476 
L 972.719172 124.357978 
L 975.810387 139.866507 
L 978.901603 158.934381 
L 981.992818 161.985243 
L 985.084033 145.713995 
L 988.175249 153.595381 
L 988.175249 153.595381 
" clip-path="url(#pc74a1c3615)" style="fill: none; stroke: #1f77b4; stroke-width: 1.5; stroke-linecap: square"/>
   </g>
   <g id="line2d_12">
    <path d="M 546.131452 160.304604 
L 549.222668 157.96569 
L 552.313883 157.106555 
L 555.405098 156.608438 
L 558.496314 152.302733 
L 561.587529 147.397459 
L 564.678744 142.078911 
L 567.76996 137.718282 
L 570.861175 132.058719 
L 573.95239 129.56431 
L 577.043606 126.607867 
L 580.134821 122.086523 
L 583.226037 119.530807 
L 586.317252 119.947888 
L 589.408467 119.087674 
L 592.499683 119.418814 
L 595.590898 119.490389 
L 598.682113 120.097934 
L 601.773329 119.966278 
L 604.864544 120.590299 
L 607.955759 120.595669 
L 611.046975 119.968169 
L 614.13819 121.25001 
L 617.229406 123.621274 
L 620.320621 125.408717 
L 623.411836 126.402915 
L 626.503052 129.440849 
L 629.594267 133.998101 
L 635.776698 140.737728 
L 638.867913 144.153834 
L 641.959128 146.856117 
L 645.050344 147.700031 
L 648.141559 149.85162 
L 651.232774 151.822794 
L 654.32399 154.279962 
L 657.415205 155.680645 
L 660.506421 158.327023 
L 663.597636 162.563336 
L 666.688851 162.768997 
L 669.780067 162.677371 
L 672.871282 163.201377 
L 675.962497 164.201769 
L 679.053713 163.481031 
L 682.144928 165.479227 
L 685.236143 167.164546 
L 688.327359 169.041258 
L 691.418574 168.12643 
L 694.50979 167.639345 
L 697.601005 166.828793 
L 700.69222 164.59995 
L 703.783436 163.766886 
L 706.874651 160.967533 
L 709.965866 160.49556 
L 716.148297 157.790591 
L 722.330728 152.976834 
L 728.513158 149.456367 
L 731.604374 147.329552 
L 734.695589 146.122613 
L 737.786805 145.464333 
L 740.87802 144.961561 
L 743.969235 145.415598 
L 747.060451 141.564701 
L 750.151666 138.464515 
L 753.242881 137.881555 
L 759.425312 132.834472 
L 765.607743 127.530793 
L 768.698958 124.983393 
L 771.790174 123.508348 
L 774.881389 122.976341 
L 777.972604 122.639915 
L 781.06382 123.50556 
L 784.155035 125.044614 
L 787.24625 125.86087 
L 790.337466 128.05138 
L 796.519896 131.318621 
L 799.611112 133.834864 
L 802.702327 133.916573 
L 805.793542 135.720528 
L 808.884758 139.972862 
L 811.975973 143.210286 
L 815.067189 144.674421 
L 818.158404 147.006261 
L 821.249619 147.663159 
L 824.340835 145.526488 
L 827.43205 146.83743 
L 830.523265 147.90185 
L 833.614481 149.205736 
L 836.705696 149.623168 
L 839.796911 151.621704 
L 842.888127 152.284403 
L 845.979342 154.408054 
L 849.070557 157.818498 
L 852.161773 161.439356 
L 855.252988 161.858782 
L 858.344204 161.675797 
L 861.435419 162.165422 
L 864.526634 160.794956 
L 867.61785 160.436096 
L 870.709065 160.735177 
L 873.80028 161.767035 
L 876.891496 163.486874 
L 879.982711 167.115836 
L 883.073926 169.886378 
L 886.165142 169.570398 
L 889.256357 166.956564 
L 892.347573 166.067697 
L 895.438788 163.475539 
L 898.530003 160.472156 
L 901.621219 159.015417 
L 904.712434 157.208267 
L 910.894865 152.956031 
L 913.98608 148.951837 
L 917.077295 147.52726 
L 920.168511 145.289555 
L 923.259726 143.997816 
L 926.350941 140.596095 
L 929.442157 138.157936 
L 932.533372 137.519646 
L 935.624588 136.488595 
L 938.715803 135.199044 
L 941.807018 131.936434 
L 944.898234 131.158524 
L 947.989449 128.867514 
L 951.080664 127.749529 
L 954.17188 126.012008 
L 957.263095 124.70437 
L 960.35431 124.52998 
L 963.445526 125.551478 
L 969.627957 125.802364 
L 972.719172 125.531815 
L 975.810387 126.726588 
L 978.901603 128.846566 
L 981.992818 132.222647 
L 985.084033 133.451692 
L 988.175249 135.204294 
L 988.175249 135.204294 
" clip-path="url(#pc74a1c3615)" style="fill: none; stroke: #ff7f0e; stroke-width: 1.5; stroke-linecap: square"/>
   </g>
   <g id="line2d_13">
    <path d="M 546.131452 192.900625 
L 546.131452 27.340625 
" clip-path="url(#pc74a1c3615)" style="fill: none; stroke-dasharray: 7.4,3.2; stroke-dashoffset: 0; stroke: #0000ff; stroke-width: 2"/>
   </g>
   <g id="patch_3">
    <path d="M 56.6375 192.900625 
L 56.6375 27.340625 
" style="fill: none; stroke: #000000; stroke-width: 0.8; stroke-linejoin: miter; stroke-linecap: square"/>
   </g>
   <g id="patch_4">
    <path d="M 1032.534189 192.900625 
L 1032.534189 27.340625 
" style="fill: none; stroke: #000000; stroke-width: 0.8; stroke-linejoin: miter; stroke-linecap: square"/>
   </g>
   <g id="patch_5">
    <path d="M 56.6375 192.900625 
L 1032.534189 192.900625 
" style="fill: none; stroke: #000000; stroke-width: 0.8; stroke-linejoin: miter; stroke-linecap: square"/>
   </g>
   <g id="patch_6">
    <path d="M 56.6375 27.340625 
L 1032.534189 27.340625 
" style="fill: none; stroke: #000000; stroke-width: 0.8; stroke-linejoin: miter; stroke-linecap: square"/>
   </g>
   <g id="text_12">
    <!-- API_ID: 3 -->
    <g transform="translate(499.585845 21.340625) scale(0.2 -0.2)">
     <defs>
      <path id="SimSun-41" d="M 2025 1700 
L 900 1700 
L 675 750 
Q 650 625 650 550 
Q 650 450 687 350 
Q 725 250 900 250 
L 975 250 
L 975 100 
L 50 100 
L 50 250 
L 125 250 
Q 225 250 300 312 
Q 375 375 400 525 
L 1375 4350 
L 1750 4475 
L 2700 525 
Q 2750 375 2825 312 
Q 2900 250 3000 250 
L 3075 250 
L 3075 100 
L 2000 100 
L 2000 250 
L 2100 250 
Q 2250 250 2275 312 
Q 2300 375 2300 425 
Q 2300 525 2275 600 
L 2025 1700 
z
M 325 250 
L 325 250 
z
M 575 250 
L 575 250 
z
M 2350 250 
L 2350 250 
z
M 2775 250 
L 2775 250 
z
M 1500 3925 
L 1475 3925 
L 950 1850 
L 2000 1850 
L 1500 3925 
z
" transform="scale(0.015625)"/>
      <path id="SimSun-49" d="M 600 4225 
L 600 4375 
L 2600 4375 
L 2600 4225 
L 2025 4225 
Q 1925 4225 1862 4175 
Q 1800 4125 1800 4025 
L 1800 450 
Q 1800 350 1862 300 
Q 1925 250 2025 250 
L 2600 250 
L 2600 100 
L 600 100 
L 600 250 
L 1175 250 
Q 1300 250 1350 300 
Q 1400 350 1400 450 
L 1400 4025 
Q 1400 4125 1350 4175 
Q 1300 4225 1175 4225 
L 600 4225 
z
" transform="scale(0.015625)"/>
      <path id="SimSun-5f" d="M 0 -875 
L 0 -725 
L 3175 -725 
L 3175 -875 
L 0 -875 
z
" transform="scale(0.015625)"/>
      <path id="SimSun-44" d="M 2500 2275 
Q 2500 3350 2175 3787 
Q 1850 4225 1275 4225 
Q 1100 4225 1012 4175 
Q 925 4125 925 4025 
L 925 450 
Q 925 350 1000 300 
Q 1075 250 1200 250 
Q 1750 250 2125 662 
Q 2500 1075 2500 2275 
z
M 525 4025 
Q 525 4125 475 4175 
Q 425 4225 300 4225 
L 150 4225 
L 150 4375 
L 1275 4375 
Q 2050 4375 2512 3875 
Q 2975 3375 2975 2325 
Q 2975 1175 2525 637 
Q 2075 100 1200 100 
L 125 100 
L 125 250 
L 300 250 
Q 425 250 475 300 
Q 525 350 525 450 
L 525 4025 
z
" transform="scale(0.015625)"/>
      <path id="SimSun-3a" d="M 1900 2725 
Q 1900 2575 1800 2475 
Q 1700 2375 1550 2375 
Q 1400 2375 1300 2475 
Q 1200 2575 1200 2725 
Q 1200 2875 1300 2975 
Q 1400 3075 1550 3075 
Q 1700 3075 1800 2975 
Q 1900 2875 1900 2725 
z
M 1900 375 
Q 1900 225 1800 125 
Q 1700 25 1550 25 
Q 1400 25 1300 125 
Q 1200 225 1200 375 
Q 1200 525 1300 625 
Q 1400 725 1550 725 
Q 1700 725 1800 625 
Q 1900 525 1900 375 
z
" transform="scale(0.015625)"/>
      <path id="SimSun-20" d="M 0 0 
Q 0 0 0 0 
z
" transform="scale(0.015625)"/>
      <path id="SimSun-33" d="M 2800 1250 
Q 2800 775 2450 412 
Q 2100 50 1475 50 
Q 1025 50 700 300 
Q 375 550 375 875 
Q 375 1025 475 1137 
Q 575 1250 675 1250 
Q 825 1250 887 1137 
Q 950 1025 950 950 
Q 950 825 900 750 
Q 850 650 850 575 
Q 850 425 1037 325 
Q 1225 225 1450 225 
Q 1900 225 2125 487 
Q 2350 750 2350 1300 
Q 2350 1750 2112 2025 
Q 1875 2300 1225 2300 
L 1225 2475 
Q 1725 2475 1962 2712 
Q 2200 2950 2200 3375 
Q 2200 3725 2012 3987 
Q 1825 4250 1425 4250 
Q 1250 4250 1050 4162 
Q 850 4075 850 3875 
Q 850 3675 900 3625 
Q 950 3575 950 3500 
Q 950 3375 900 3300 
Q 850 3225 725 3225 
Q 625 3225 537 3300 
Q 450 3375 450 3575 
Q 450 3950 775 4187 
Q 1100 4425 1525 4425 
Q 2025 4425 2325 4112 
Q 2625 3800 2625 3450 
Q 2625 3075 2437 2812 
Q 2250 2550 1850 2425 
Q 2400 2225 2600 1900 
Q 2800 1575 2800 1250 
z
" transform="scale(0.015625)"/>
     </defs>
     <use xlink:href="#SimSun-41"/>
     <use xlink:href="#SimSun-50" x="50"/>
     <use xlink:href="#SimSun-49" x="100"/>
     <use xlink:href="#SimSun-5f" x="150"/>
     <use xlink:href="#SimSun-49" x="200"/>
     <use xlink:href="#SimSun-44" x="250"/>
     <use xlink:href="#SimSun-3a" x="300"/>
     <use xlink:href="#SimSun-20" x="350"/>
     <use xlink:href="#SimSun-33" x="400"/>
    </g>
   </g>
   <g id="legend_1">
    <g id="patch_7">
     <path d="M 70.6375 100.215625 
L 194.6375 100.215625 
Q 198.6375 100.215625 198.6375 96.215625 
L 198.6375 41.340625 
Q 198.6375 37.340625 194.6375 37.340625 
L 70.6375 37.340625 
Q 66.6375 37.340625 66.6375 41.340625 
L 66.6375 96.215625 
Q 66.6375 100.215625 70.6375 100.215625 
z
" style="fill: #ffffff; opacity: 0.8; stroke: #cccccc; stroke-linejoin: miter"/>
    </g>
    <g id="line2d_14">
     <path d="M 74.6375 54.278125 
L 94.6375 54.278125 
L 114.6375 54.278125 
" style="fill: none; stroke: #1f77b4; stroke-width: 1.5; stroke-linecap: square"/>
    </g>
    <g id="text_13">
     <!-- 真实值 -->
     <g transform="translate(130.6375 61.278125) scale(0.2 -0.2)">
      <defs>
       <path id="SimSun-771f" d="M 2050 3450 
L 2050 2900 
L 4300 2900 
L 4300 3450 
L 2050 3450 
z
M 2050 2750 
L 2050 2225 
L 4300 2225 
L 4300 2750 
L 2050 2750 
z
M 2050 2075 
L 2050 1550 
L 4300 1550 
L 4300 2075 
L 2050 2075 
z
M 2050 1400 
L 2050 875 
L 4300 875 
L 4300 1400 
L 2050 1400 
z
M 2875 3600 
L 2925 4325 
L 1525 4325 
Q 1200 4325 925 4250 
L 700 4475 
L 2950 4475 
Q 2975 4825 2975 5275 
L 3550 5025 
L 3375 4925 
L 3300 4475 
L 5000 4475 
L 5325 4825 
L 5775 4325 
L 3275 4325 
L 3200 3600 
L 4275 3600 
L 4450 3875 
L 4850 3575 
L 4650 3375 
L 4650 875 
L 5300 875 
L 5675 1225 
L 6125 725 
L 1150 725 
Q 825 725 550 650 
L 325 875 
L 1700 875 
Q 1700 3200 1675 3775 
L 2050 3600 
L 2875 3600 
z
M 2425 725 
L 2825 350 
L 2575 300 
Q 1500 -425 800 -650 
L 775 -575 
Q 1950 125 2425 725 
z
M 3800 700 
Q 4575 375 4962 200 
Q 5350 25 5400 -112 
Q 5450 -250 5450 -325 
Q 5450 -400 5400 -525 
Q 5350 -650 5325 -650 
Q 5250 -650 5100 -450 
Q 4875 -150 3750 625 
L 3800 700 
z
" transform="scale(0.015625)"/>
       <path id="SimSun-5b9e" d="M 1950 3625 
Q 2575 3400 2700 3250 
Q 2825 3100 2825 2975 
Q 2825 2850 2750 2700 
Q 2675 2550 2625 2550 
Q 2550 2550 2450 2800 
Q 2275 3175 1900 3550 
L 1950 3625 
z
M 3575 1325 
Q 3500 1100 3425 925 
Q 4650 550 5087 325 
Q 5525 100 5512 -225 
Q 5500 -550 5400 -550 
Q 5300 -550 5075 -300 
Q 4625 175 3375 800 
Q 3025 175 2300 -150 
Q 1575 -475 425 -625 
L 425 -525 
Q 1475 -325 2200 100 
Q 2925 525 3200 1325 
L 1225 1325 
Q 900 1325 625 1250 
L 400 1475 
L 3225 1475 
Q 3325 1950 3375 2575 
Q 3425 3200 3425 3700 
L 4050 3400 
L 3850 3225 
Q 3750 2300 3625 1475 
L 5175 1475 
L 5550 1850 
L 6075 1325 
L 3575 1325 
z
M 1275 2700 
Q 1975 2425 2100 2262 
Q 2225 2100 2225 1975 
Q 2225 1850 2150 1700 
Q 2075 1550 2025 1550 
Q 1950 1550 1850 1800 
Q 1675 2175 1225 2625 
L 1275 2700 
z
M 2750 5225 
L 2825 5275 
Q 3225 5100 3425 4925 
Q 3625 4750 3625 4600 
Q 3625 4450 3512 4300 
Q 3400 4150 3325 4150 
Q 3250 4150 3200 4400 
Q 3100 4775 2750 5225 
z
M 4975 3225 
L 5350 3925 
L 1175 3925 
Q 1225 3525 1125 3300 
Q 1025 3075 787 3100 
Q 550 3125 550 3200 
Q 550 3300 700 3475 
Q 975 3825 1050 4375 
L 1150 4375 
L 1175 4075 
L 5300 4075 
L 5575 4350 
L 6050 3800 
Q 5625 3825 5050 3175 
L 4975 3225 
z
" transform="scale(0.015625)"/>
       <path id="SimSun-503c" d="M 1525 650 
Q 1525 -225 1550 -525 
L 1175 -650 
Q 1200 250 1200 550 
L 1200 3025 
Q 750 2300 325 1850 
L 250 1900 
Q 725 2625 1100 3525 
Q 1475 4425 1675 5200 
L 2200 4875 
L 1950 4725 
Q 1550 3800 1425 3475 
L 1725 3300 
L 1525 3150 
L 1525 650 
z
M 2875 3225 
L 2875 2475 
L 4800 2475 
L 4800 3225 
L 2875 3225 
z
M 2875 2325 
L 2875 1575 
L 4800 1575 
L 4800 2325 
L 2875 2325 
z
M 2875 1425 
L 2875 675 
L 4800 675 
L 4800 1425 
L 2875 1425 
z
M 2875 525 
L 2875 -225 
L 4800 -225 
L 4800 525 
L 2875 525 
z
M 3550 4250 
Q 3575 4825 3550 5225 
L 4125 4950 
L 3925 4800 
L 3900 4250 
L 5025 4250 
L 5350 4575 
L 5825 4100 
L 3900 4100 
L 3875 3375 
L 4750 3375 
L 4975 3625 
L 5350 3300 
L 5125 3150 
L 5125 -225 
L 5350 -225 
L 5675 100 
L 6150 -375 
L 2450 -375 
Q 2125 -375 1850 -450 
L 1625 -225 
L 2550 -225 
L 2550 2550 
Q 2550 2850 2525 3575 
L 2875 3375 
L 3525 3375 
L 3550 4100 
L 2800 4100 
Q 2475 4100 2200 4025 
L 1975 4250 
L 3550 4250 
z
" transform="scale(0.015625)"/>
      </defs>
      <use xlink:href="#SimSun-771f"/>
      <use xlink:href="#SimSun-5b9e" x="100"/>
      <use xlink:href="#SimSun-503c" x="200"/>
     </g>
    </g>
    <g id="line2d_15">
     <path d="M 74.6375 82.6375 
L 94.6375 82.6375 
L 114.6375 82.6375 
" style="fill: none; stroke: #ff7f0e; stroke-width: 1.5; stroke-linecap: square"/>
    </g>
    <g id="text_14">
     <!-- 预测值 -->
     <g transform="translate(130.6375 89.6375) scale(0.2 -0.2)">
      <defs>
       <path id="SimSun-9884" d="M 475 4825 
L 2225 4825 
L 2425 5075 
L 2825 4675 
Q 2600 4625 2387 4412 
Q 2175 4200 1800 3750 
Q 2050 3575 2037 3400 
Q 2025 3225 1937 3150 
Q 1850 3075 1825 3075 
Q 1725 3075 1650 3300 
Q 1525 3600 1050 4100 
L 1100 4150 
Q 1475 3975 1700 3825 
L 2225 4675 
L 1300 4675 
Q 975 4675 700 4600 
L 475 4825 
z
M 725 100 
Q 1175 50 1362 37 
Q 1550 25 1550 275 
L 1550 2875 
L 1125 2875 
Q 800 2875 525 2800 
L 300 3025 
L 2525 3025 
L 2725 3275 
L 3150 2875 
Q 2800 2825 2275 2075 
L 2200 2125 
L 2550 2875 
L 1875 2875 
L 1875 150 
Q 1875 -400 1350 -500 
Q 1325 -175 725 0 
L 725 100 
z
M 3250 775 
Q 3275 1425 3275 2287 
Q 3275 3150 3250 3900 
L 3600 3700 
L 4050 3700 
Q 4175 4400 4200 4675 
L 3650 4675 
Q 3325 4675 3050 4600 
L 2825 4825 
L 5325 4825 
L 5675 5150 
L 6125 4675 
L 4675 4675 
Q 4500 4425 4175 3700 
L 5300 3700 
L 5475 3975 
L 5875 3675 
L 5675 3475 
L 5675 1950 
Q 5675 1525 5700 1075 
L 5350 875 
L 5350 3550 
L 3600 3550 
L 3600 1000 
L 3250 775 
z
M 4850 2875 
L 4625 2675 
Q 4625 1475 4475 937 
Q 4325 400 3900 50 
Q 3475 -300 2425 -625 
L 2400 -550 
Q 3500 -50 3837 400 
Q 4175 850 4237 1587 
Q 4300 2325 4275 3175 
L 4850 2875 
z
M 4650 950 
Q 5725 375 5875 212 
Q 6025 50 6025 -125 
Q 6025 -225 5962 -387 
Q 5900 -550 5850 -550 
Q 5800 -550 5750 -450 
Q 5625 -250 5437 0 
Q 5250 250 4600 875 
L 4650 950 
z
" transform="scale(0.015625)"/>
       <path id="SimSun-6d4b" d="M 1975 1000 
Q 2000 1475 2000 2925 
Q 2000 4375 1975 5000 
L 2350 4775 
L 3575 4775 
L 3775 4975 
L 4100 4650 
L 3900 4500 
L 3900 2350 
Q 3900 1850 3925 1350 
L 3600 1200 
L 3600 4625 
L 2325 4625 
L 2325 1150 
L 1975 1000 
z
M 2775 3975 
L 3300 3700 
L 3125 3525 
Q 3150 1825 2875 937 
Q 2600 50 1375 -600 
L 1325 -500 
Q 2200 100 2475 725 
Q 2750 1350 2775 2187 
Q 2800 3025 2775 3975 
z
M 3100 950 
Q 3825 450 3937 262 
Q 4050 75 4050 -25 
Q 4050 -150 3975 -262 
Q 3900 -375 3850 -375 
Q 3750 -375 3650 -75 
Q 3500 375 3050 875 
L 3100 950 
z
M 4475 825 
Q 4500 1200 4500 1700 
L 4500 3400 
Q 4500 3950 4475 4300 
L 5025 4025 
L 4825 3825 
L 4825 1700 
Q 4825 1325 4850 950 
L 4475 825 
z
M 5375 150 
L 5375 4050 
Q 5375 4750 5350 5125 
L 5875 4875 
L 5700 4700 
L 5700 75 
Q 5700 -200 5600 -350 
Q 5500 -500 5200 -600 
Q 5025 -225 4450 -50 
L 4450 50 
Q 5125 -50 5250 -37 
Q 5375 -25 5375 150 
z
M 1850 3500 
Q 1375 1525 1300 1225 
Q 1200 900 1212 450 
Q 1225 0 1250 -175 
Q 1250 -275 1125 -275 
Q 1025 -275 875 -225 
Q 725 -175 725 0 
Q 725 125 800 375 
Q 875 625 875 775 
Q 875 950 762 1050 
Q 650 1150 275 1250 
L 275 1350 
Q 725 1300 837 1312 
Q 950 1325 1087 1537 
Q 1225 1750 1750 3525 
L 1850 3500 
z
M 375 3775 
Q 1075 3350 1112 3100 
Q 1150 2850 1050 2775 
Q 950 2700 900 2700 
Q 800 2700 725 2975 
Q 600 3350 325 3700 
L 375 3775 
z
M 800 5100 
Q 1475 4725 1550 4512 
Q 1625 4300 1525 4187 
Q 1425 4075 1350 4075 
Q 1275 4075 1200 4300 
Q 1075 4650 750 5025 
L 800 5100 
z
" transform="scale(0.015625)"/>
      </defs>
      <use xlink:href="#SimSun-9884"/>
      <use xlink:href="#SimSun-6d4b" x="100"/>
      <use xlink:href="#SimSun-503c" x="200"/>
     </g>
    </g>
   </g>
  </g>
  <g id="axes_2">
   <g id="patch_8">
    <path d="M 56.6375 425.700625 
L 1032.534189 425.700625 
L 1032.534189 260.140625 
L 56.6375 260.140625 
z
" style="fill: #ffffff"/>
   </g>
   <g id="matplotlib.axis_3">
    <g id="xtick_8">
     <g id="line2d_16">
      <g>
       <use xlink:href="#m0513df6ef9" x="100.99644" y="425.700625" style="stroke: #000000; stroke-width: 0.8"/>
      </g>
     </g>
     <g id="text_15">
      <!-- 0 -->
      <g transform="translate(95.99644 446.588125) scale(0.2 -0.2)">
       <use xlink:href="#TimesNewRomanPSMT-30"/>
      </g>
     </g>
    </g>
    <g id="xtick_9">
     <g id="line2d_17">
      <g>
       <use xlink:href="#m0513df6ef9" x="255.557208" y="425.700625" style="stroke: #000000; stroke-width: 0.8"/>
      </g>
     </g>
     <g id="text_16">
      <!-- 50 -->
      <g transform="translate(245.557208 446.588125) scale(0.2 -0.2)">
       <use xlink:href="#TimesNewRomanPSMT-35"/>
       <use xlink:href="#TimesNewRomanPSMT-30" x="50"/>
      </g>
     </g>
    </g>
    <g id="xtick_10">
     <g id="line2d_18">
      <g>
       <use xlink:href="#m0513df6ef9" x="410.117976" y="425.700625" style="stroke: #000000; stroke-width: 0.8"/>
      </g>
     </g>
     <g id="text_17">
      <!-- 100 -->
      <g transform="translate(395.117976 446.588125) scale(0.2 -0.2)">
       <use xlink:href="#TimesNewRomanPSMT-31"/>
       <use xlink:href="#TimesNewRomanPSMT-30" x="50"/>
       <use xlink:href="#TimesNewRomanPSMT-30" x="100"/>
      </g>
     </g>
    </g>
    <g id="xtick_11">
     <g id="line2d_19">
      <g>
       <use xlink:href="#m0513df6ef9" x="564.678744" y="425.700625" style="stroke: #000000; stroke-width: 0.8"/>
      </g>
     </g>
     <g id="text_18">
      <!-- 150 -->
      <g transform="translate(549.678744 446.588125) scale(0.2 -0.2)">
       <use xlink:href="#TimesNewRomanPSMT-31"/>
       <use xlink:href="#TimesNewRomanPSMT-35" x="50"/>
       <use xlink:href="#TimesNewRomanPSMT-30" x="100"/>
      </g>
     </g>
    </g>
    <g id="xtick_12">
     <g id="line2d_20">
      <g>
       <use xlink:href="#m0513df6ef9" x="719.239512" y="425.700625" style="stroke: #000000; stroke-width: 0.8"/>
      </g>
     </g>
     <g id="text_19">
      <!-- 200 -->
      <g transform="translate(704.239512 446.588125) scale(0.2 -0.2)">
       <use xlink:href="#TimesNewRomanPSMT-32"/>
       <use xlink:href="#TimesNewRomanPSMT-30" x="50"/>
       <use xlink:href="#TimesNewRomanPSMT-30" x="100"/>
      </g>
     </g>
    </g>
    <g id="xtick_13">
     <g id="line2d_21">
      <g>
       <use xlink:href="#m0513df6ef9" x="873.80028" y="425.700625" style="stroke: #000000; stroke-width: 0.8"/>
      </g>
     </g>
     <g id="text_20">
      <!-- 250 -->
      <g transform="translate(858.80028 446.588125) scale(0.2 -0.2)">
       <use xlink:href="#TimesNewRomanPSMT-32"/>
       <use xlink:href="#TimesNewRomanPSMT-35" x="50"/>
       <use xlink:href="#TimesNewRomanPSMT-30" x="100"/>
      </g>
     </g>
    </g>
    <g id="xtick_14">
     <g id="line2d_22">
      <g>
       <use xlink:href="#m0513df6ef9" x="1028.361048" y="425.700625" style="stroke: #000000; stroke-width: 0.8"/>
      </g>
     </g>
     <g id="text_21">
      <!-- 300 -->
      <g transform="translate(1013.361048 446.588125) scale(0.2 -0.2)">
       <use xlink:href="#TimesNewRomanPSMT-33"/>
       <use xlink:href="#TimesNewRomanPSMT-30" x="50"/>
       <use xlink:href="#TimesNewRomanPSMT-30" x="100"/>
      </g>
     </g>
    </g>
   </g>
   <g id="matplotlib.axis_4">
    <g id="ytick_4">
     <g id="line2d_23">
      <g>
       <use xlink:href="#m8d3d6a325a" x="56.6375" y="424.135927" style="stroke: #000000; stroke-width: 0.8"/>
      </g>
     </g>
     <g id="text_22">
      <!-- 2 -->
      <g transform="translate(39.6375 431.079677) scale(0.2 -0.2)">
       <use xlink:href="#TimesNewRomanPSMT-32"/>
      </g>
     </g>
    </g>
    <g id="ytick_5">
     <g id="line2d_24">
      <g>
       <use xlink:href="#m8d3d6a325a" x="56.6375" y="374.462961" style="stroke: #000000; stroke-width: 0.8"/>
      </g>
     </g>
     <g id="text_23">
      <!-- 4 -->
      <g transform="translate(39.6375 381.406711) scale(0.2 -0.2)">
       <use xlink:href="#TimesNewRomanPSMT-34"/>
      </g>
     </g>
    </g>
    <g id="ytick_6">
     <g id="line2d_25">
      <g>
       <use xlink:href="#m8d3d6a325a" x="56.6375" y="324.789995" style="stroke: #000000; stroke-width: 0.8"/>
      </g>
     </g>
     <g id="text_24">
      <!-- 6 -->
      <g transform="translate(39.6375 331.733745) scale(0.2 -0.2)">
       <use xlink:href="#TimesNewRomanPSMT-36"/>
      </g>
     </g>
    </g>
    <g id="ytick_7">
     <g id="line2d_26">
      <g>
       <use xlink:href="#m8d3d6a325a" x="56.6375" y="275.117029" style="stroke: #000000; stroke-width: 0.8"/>
      </g>
     </g>
     <g id="text_25">
      <!-- 8 -->
      <g transform="translate(39.6375 282.060779) scale(0.2 -0.2)">
       <use xlink:href="#TimesNewRomanPSMT-38"/>
      </g>
     </g>
    </g>
    <g id="text_26">
     <!-- CPU使用率 -->
     <g transform="translate(33.059375 387.920625) rotate(-90) scale(0.2 -0.2)">
      <use xlink:href="#SimSun-43"/>
      <use xlink:href="#SimSun-50" x="50"/>
      <use xlink:href="#SimSun-55" x="100"/>
      <use xlink:href="#SimSun-4f7f" x="150"/>
      <use xlink:href="#SimSun-7528" x="250"/>
      <use xlink:href="#SimSun-7387" x="350"/>
     </g>
    </g>
   </g>
   <g id="line2d_27">
    <path d="M 100.99644 397.064156 
L 104.087656 406.750381 
L 107.178871 404.018371 
L 110.270086 402.279825 
L 113.361302 410.227492 
L 116.452517 415.194789 
L 119.543733 409.482398 
L 122.634948 414.69806 
L 125.726163 418.17517 
L 128.817379 411.469315 
L 131.908594 406.998746 
L 134.999809 395.325604 
L 138.091025 405.756923 
L 141.18224 385.639379 
L 144.273455 408.240575 
L 147.364671 405.011829 
L 150.455886 403.024918 
L 153.547102 401.78309 
L 156.638317 409.730762 
L 159.729532 414.946425 
L 162.820748 373.717861 
L 165.911963 320.567791 
L 169.003178 348.881378 
L 172.094394 375.704784 
L 175.185609 366.515282 
L 178.276824 378.188436 
L 181.36804 350.123207 
L 184.459255 349.874848 
L 187.55047 331.992574 
L 190.641686 356.083969 
L 193.732901 371.482586 
L 196.824117 319.325962 
L 199.915332 365.770194 
L 203.006547 368.750569 
L 206.097763 379.678623 
L 209.188978 315.600499 
L 212.280193 354.345411 
L 215.371409 352.855223 
L 218.462624 360.554532 
L 221.553839 312.123383 
L 224.645055 307.65282 
L 227.73627 304.920804 
L 230.827486 267.66608 
L 233.918701 288.032 
L 237.009916 336.711507 
L 240.101132 368.00547 
L 243.192347 379.181888 
L 246.283562 377.443342 
L 249.374778 376.449878 
L 252.465993 393.587052 
L 255.557208 404.5151 
L 258.648424 393.835417 
L 261.739639 395.822333 
L 264.830854 379.181888 
L 267.92207 395.325604 
L 271.013285 396.815792 
L 274.104501 388.868119 
L 277.195716 401.534725 
L 280.286931 400.789631 
L 286.469362 399.796173 
L 289.560577 399.547808 
L 295.743008 399.547808 
L 298.834223 399.299444 
L 311.199085 399.299444 
L 314.2903 408.240575 
L 317.381516 405.011829 
L 320.472731 394.083781 
L 323.563946 395.822333 
L 326.655162 397.064156 
L 329.746377 406.750381 
L 332.837592 412.959508 
L 335.928808 390.358307 
L 339.020023 393.587052 
L 342.111238 404.5151 
L 345.202454 393.835417 
L 348.293669 386.881202 
L 351.384885 382.410634 
L 354.4761 361.796349 
L 357.567315 384.149186 
L 360.658531 362.789819 
L 363.749746 375.953148 
L 366.840961 330.999116 
L 369.932177 292.999303 
L 373.023392 313.365212 
L 376.114607 335.22132 
L 379.205823 313.613571 
L 382.297038 344.410816 
L 385.388254 355.090499 
L 388.479469 344.162457 
L 391.570684 346.149374 
L 394.6619 338.450065 
L 397.753115 351.365036 
L 400.84433 341.92717 
L 403.935546 362.541449 
L 407.026761 348.881378 
L 410.117976 331.495845 
L 413.209192 329.012199 
L 416.300407 354.097041 
L 419.391622 361.54799 
L 422.482838 321.561249 
L 425.574053 304.920804 
L 428.665269 321.06452 
L 431.756484 313.365212 
L 434.847699 353.103582 
L 437.938915 369.744028 
L 441.03013 371.482586 
L 444.121345 390.358307 
L 447.212561 384.645921 
L 450.303776 389.861577 
L 453.394991 366.515282 
L 456.486207 369.495669 
L 459.577422 380.175352 
L 462.668638 386.881202 
L 465.759853 391.351765 
L 468.851068 394.332146 
L 471.942284 396.070698 
L 475.033499 388.37139 
L 478.124714 392.345223 
L 481.21593 394.828875 
L 484.307145 405.260194 
L 487.39836 403.024918 
L 490.489576 401.78309 
L 493.580791 400.789631 
L 496.672006 400.292902 
L 499.763222 391.1034 
L 502.854437 394.083781 
L 505.945653 404.763465 
L 509.036868 402.776554 
L 512.128083 410.475856 
L 515.219299 406.502017 
L 518.310514 412.711144 
L 521.401729 407.99221 
L 524.492945 404.763465 
L 527.58416 402.776554 
L 530.675375 392.593594 
L 533.766591 395.07724 
L 536.857806 396.567427 
L 539.949022 299.705142 
L 543.040237 317.587416 
L 546.131452 355.835599 
L 549.222668 362.541449 
L 552.313883 331.247474 
L 555.405098 302.188799 
L 558.496314 310.384837 
L 561.587529 351.116665 
L 564.678744 377.194977 
L 567.76996 376.201513 
L 570.861175 375.704784 
L 573.95239 339.691882 
L 577.043606 352.110124 
L 580.134821 306.659362 
L 583.226037 313.116841 
L 586.317252 344.162457 
L 589.408467 363.783277 
L 592.499683 358.815974 
L 595.590898 364.280007 
L 598.682113 385.887744 
L 601.773329 399.547808 
L 604.864544 399.547808 
L 607.955759 390.606671 
L 611.046975 393.587052 
L 614.13819 395.573969 
L 617.229406 388.123025 
L 620.320621 383.155727 
L 623.411836 371.234215 
L 626.503052 372.227674 
L 629.594267 355.338869 
L 632.685482 308.894649 
L 635.776698 332.240945 
L 638.867913 347.391191 
L 641.959128 366.018553 
L 645.050344 386.881202 
L 648.141559 391.351765 
L 651.232774 394.083781 
L 654.32399 396.070698 
L 660.506421 398.057621 
L 663.597636 407.247117 
L 666.688851 404.5151 
L 669.780067 402.528189 
L 672.871282 401.534725 
L 675.962497 409.482398 
L 679.053713 406.005288 
L 682.144928 412.462779 
L 685.236143 407.743846 
L 688.327359 404.763465 
L 691.418574 402.776554 
L 694.50979 392.593594 
L 697.601005 404.018371 
L 700.69222 411.22095 
L 703.783436 406.998746 
L 706.874651 412.959508 
L 709.965866 408.240575 
L 713.057082 405.011829 
L 716.148297 403.024918 
L 719.239512 401.534725 
L 722.330728 382.907363 
L 725.421943 362.044719 
L 728.513158 366.515282 
L 731.604374 387.129567 
L 734.695589 400.541267 
L 737.786805 400.044537 
L 743.969235 399.547808 
L 747.060451 399.547808 
L 750.151666 337.208236 
L 753.242881 341.678799 
L 756.334097 344.410816 
L 759.425312 372.972773 
L 762.516527 355.835599 
L 765.607743 291.260745 
L 768.698958 338.946794 
L 771.790174 325.038354 
L 777.972604 377.691706 
L 781.06382 385.391015 
L 784.155035 399.299444 
L 787.24625 363.783277 
L 790.337466 349.626478 
L 793.428681 340.685341 
L 796.519896 334.972949 
L 799.611112 349.129749 
L 802.702327 340.436982 
L 805.793542 308.14955 
L 808.884758 349.626478 
L 811.975973 367.50874 
L 815.067189 361.051261 
L 818.158404 365.770194 
L 821.249619 386.632838 
L 824.340835 364.528365 
L 827.43205 376.946607 
L 830.523265 393.835417 
L 833.614481 395.822333 
L 836.705696 406.005288 
L 839.796911 394.580511 
L 842.888127 396.319063 
L 845.979342 397.312521 
L 849.070557 406.998746 
L 852.161773 404.266736 
L 855.252988 393.587052 
L 858.344204 404.5151 
L 861.435419 402.528189 
L 864.526634 374.711325 
L 867.61785 392.345223 
L 870.709065 394.828875 
L 873.80028 405.260194 
L 876.891496 403.273277 
L 879.982711 401.78309 
L 883.073926 400.789631 
L 886.165142 400.292902 
L 889.256357 400.044537 
L 892.347573 408.737304 
L 895.438788 414.201331 
L 898.530003 408.737304 
L 901.621219 405.508558 
L 904.712434 403.273277 
L 907.803649 410.724221 
L 910.894865 370.985856 
L 913.98608 345.652644 
L 917.077295 329.260558 
L 920.168511 327.522011 
L 923.259726 362.29309 
L 926.350941 339.940253 
L 929.442157 369.992398 
L 932.533372 389.364848 
L 935.624588 357.325786 
L 938.715803 381.417175 
L 941.807018 343.168987 
L 944.898234 327.77037 
L 947.989449 362.29309 
L 951.080664 357.822515 
L 954.17188 372.724403 
L 957.263095 346.646103 
L 960.35431 365.521824 
L 963.445526 386.384473 
L 966.536741 400.044537 
L 969.627957 399.796173 
L 972.719172 364.031636 
L 975.810387 358.815974 
L 978.901603 373.221132 
L 981.992818 382.658998 
L 985.084033 379.678623 
L 988.175249 360.057803 
L 988.175249 360.057803 
" clip-path="url(#pdb6c4e40c6)" style="fill: none; stroke: #1f77b4; stroke-width: 1.5; stroke-linecap: square"/>
   </g>
   <g id="line2d_28">
    <path d="M 546.131452 317.943723 
L 549.222668 318.58933 
L 552.313883 321.818549 
L 555.405098 324.061831 
L 558.496314 325.141932 
L 561.587529 324.278616 
L 564.678744 323.955351 
L 567.76996 322.984607 
L 570.861175 323.479264 
L 573.95239 325.273271 
L 577.043606 327.762021 
L 580.134821 328.561882 
L 583.226037 330.396238 
L 586.317252 334.44814 
L 589.408467 337.049754 
L 592.499683 340.693441 
L 595.590898 343.868207 
L 601.773329 348.721439 
L 604.864544 350.731402 
L 607.955759 352.394367 
L 611.046975 353.313676 
L 614.13819 356.486511 
L 617.229406 358.987329 
L 620.320621 361.893816 
L 623.411836 362.649219 
L 626.503052 364.430542 
L 629.594267 368.47046 
L 632.685482 372.056259 
L 635.776698 376.406982 
L 638.867913 379.812733 
L 641.959128 381.981291 
L 645.050344 382.592429 
L 648.141559 384.703922 
L 651.232774 385.236606 
L 654.32399 387.462845 
L 657.415205 389.145469 
L 660.506421 392.6693 
L 663.597636 396.866693 
L 666.688851 396.692264 
L 669.780067 397.941424 
L 672.871282 398.940211 
L 675.962497 398.371512 
L 679.053713 398.03657 
L 685.236143 400.202653 
L 688.327359 402.631454 
L 691.418574 400.620194 
L 694.50979 398.977978 
L 697.601005 396.359364 
L 700.69222 390.832161 
L 703.783436 387.078932 
L 706.874651 382.541208 
L 709.965866 379.655032 
L 713.057082 375.352136 
L 716.148297 371.413589 
L 719.239512 365.878403 
L 722.330728 362.069187 
L 725.421943 359.151864 
L 728.513158 354.518745 
L 731.604374 349.417118 
L 737.786805 341.160729 
L 740.87802 338.215433 
L 743.969235 336.804534 
L 747.060451 333.1894 
L 750.151666 330.90712 
L 756.334097 330.641908 
L 759.425312 328.788403 
L 762.516527 328.846575 
L 765.607743 329.340427 
L 768.698958 330.504956 
L 771.790174 333.452195 
L 774.881389 337.968614 
L 777.972604 341.270679 
L 784.155035 349.781573 
L 787.24625 353.268685 
L 790.337466 356.476279 
L 793.428681 358.173884 
L 796.519896 360.979718 
L 799.611112 363.504056 
L 802.702327 363.447281 
L 805.793542 364.497372 
L 808.884758 367.480945 
L 811.975973 368.952835 
L 815.067189 369.217229 
L 818.158404 371.795204 
L 821.249619 373.574135 
L 824.340835 373.546979 
L 827.43205 376.766511 
L 830.523265 378.755269 
L 833.614481 381.776822 
L 836.705696 382.725603 
L 839.796911 384.516087 
L 842.888127 385.591463 
L 845.979342 386.390235 
L 849.070557 389.138648 
L 852.161773 392.836108 
L 855.252988 394.861348 
L 858.344204 396.546288 
L 861.435419 397.31817 
L 864.526634 396.904051 
L 867.61785 397.915097 
L 870.709065 398.64544 
L 873.80028 398.284052 
L 876.891496 398.319788 
L 879.982711 399.843823 
L 883.073926 399.636275 
L 886.165142 396.882497 
L 889.256357 393.037101 
L 892.347573 389.735823 
L 895.438788 383.996293 
L 898.530003 379.062245 
L 901.621219 375.094611 
L 904.712434 370.235866 
L 907.803649 365.987726 
L 910.894865 363.38205 
L 913.98608 358.718613 
L 917.077295 356.360786 
L 920.168511 352.634494 
L 923.259726 348.136646 
L 926.350941 340.485834 
L 929.442157 334.341352 
L 932.533372 330.909926 
L 935.624588 329.434258 
L 938.715803 328.741279 
L 941.807018 325.519474 
L 947.989449 325.267124 
L 951.080664 325.763569 
L 954.17188 326.421339 
L 957.263095 326.95606 
L 960.35431 329.7156 
L 963.445526 334.156377 
L 969.627957 344.316001 
L 972.719172 348.132986 
L 975.810387 353.180502 
L 978.901603 356.839159 
L 981.992818 361.005097 
L 985.084033 364.070552 
L 988.175249 367.836186 
L 988.175249 367.836186 
" clip-path="url(#pdb6c4e40c6)" style="fill: none; stroke: #ff7f0e; stroke-width: 1.5; stroke-linecap: square"/>
   </g>
   <g id="line2d_29">
    <path d="M 546.131452 425.700625 
L 546.131452 260.140625 
" clip-path="url(#pdb6c4e40c6)" style="fill: none; stroke-dasharray: 7.4,3.2; stroke-dashoffset: 0; stroke: #0000ff; stroke-width: 2"/>
   </g>
   <g id="patch_9">
    <path d="M 56.6375 425.700625 
L 56.6375 260.140625 
" style="fill: none; stroke: #000000; stroke-width: 0.8; stroke-linejoin: miter; stroke-linecap: square"/>
   </g>
   <g id="patch_10">
    <path d="M 1032.534189 425.700625 
L 1032.534189 260.140625 
" style="fill: none; stroke: #000000; stroke-width: 0.8; stroke-linejoin: miter; stroke-linecap: square"/>
   </g>
   <g id="patch_11">
    <path d="M 56.6375 425.700625 
L 1032.534189 425.700625 
" style="fill: none; stroke: #000000; stroke-width: 0.8; stroke-linejoin: miter; stroke-linecap: square"/>
   </g>
   <g id="patch_12">
    <path d="M 56.6375 260.140625 
L 1032.534189 260.140625 
" style="fill: none; stroke: #000000; stroke-width: 0.8; stroke-linejoin: miter; stroke-linecap: square"/>
   </g>
   <g id="text_27">
    <!-- API_ID: 4 -->
    <g transform="translate(499.585845 254.140625) scale(0.2 -0.2)">
     <defs>
      <path id="SimSun-34" d="M 2300 575 
Q 2300 400 2400 325 
Q 2500 250 2675 250 
L 2900 250 
L 2900 100 
L 1250 100 
L 1250 250 
L 1525 250 
Q 1725 250 1812 325 
Q 1900 400 1900 575 
L 1900 1400 
L 225 1400 
L 225 1525 
L 2050 4425 
L 2300 4425 
L 2300 1550 
L 2975 1550 
L 2975 1400 
L 2300 1400 
L 2300 575 
z
M 1875 3800 
L 450 1550 
L 1900 1550 
L 1900 3800 
L 1875 3800 
z
" transform="scale(0.015625)"/>
     </defs>
     <use xlink:href="#SimSun-41"/>
     <use xlink:href="#SimSun-50" x="50"/>
     <use xlink:href="#SimSun-49" x="100"/>
     <use xlink:href="#SimSun-5f" x="150"/>
     <use xlink:href="#SimSun-49" x="200"/>
     <use xlink:href="#SimSun-44" x="250"/>
     <use xlink:href="#SimSun-3a" x="300"/>
     <use xlink:href="#SimSun-20" x="350"/>
     <use xlink:href="#SimSun-34" x="400"/>
    </g>
   </g>
  </g>
  <g id="axes_3">
   <g id="patch_13">
    <path d="M 56.6375 658.500625 
L 1032.534189 658.500625 
L 1032.534189 492.940625 
L 56.6375 492.940625 
z
" style="fill: #ffffff"/>
   </g>
   <g id="matplotlib.axis_5">
    <g id="xtick_15">
     <g id="line2d_30">
      <g>
       <use xlink:href="#m0513df6ef9" x="100.99644" y="658.500625" style="stroke: #000000; stroke-width: 0.8"/>
      </g>
     </g>
     <g id="text_28">
      <!-- 0 -->
      <g transform="translate(95.99644 679.388125) scale(0.2 -0.2)">
       <use xlink:href="#TimesNewRomanPSMT-30"/>
      </g>
     </g>
    </g>
    <g id="xtick_16">
     <g id="line2d_31">
      <g>
       <use xlink:href="#m0513df6ef9" x="255.557208" y="658.500625" style="stroke: #000000; stroke-width: 0.8"/>
      </g>
     </g>
     <g id="text_29">
      <!-- 50 -->
      <g transform="translate(245.557208 679.388125) scale(0.2 -0.2)">
       <use xlink:href="#TimesNewRomanPSMT-35"/>
       <use xlink:href="#TimesNewRomanPSMT-30" x="50"/>
      </g>
     </g>
    </g>
    <g id="xtick_17">
     <g id="line2d_32">
      <g>
       <use xlink:href="#m0513df6ef9" x="410.117976" y="658.500625" style="stroke: #000000; stroke-width: 0.8"/>
      </g>
     </g>
     <g id="text_30">
      <!-- 100 -->
      <g transform="translate(395.117976 679.388125) scale(0.2 -0.2)">
       <use xlink:href="#TimesNewRomanPSMT-31"/>
       <use xlink:href="#TimesNewRomanPSMT-30" x="50"/>
       <use xlink:href="#TimesNewRomanPSMT-30" x="100"/>
      </g>
     </g>
    </g>
    <g id="xtick_18">
     <g id="line2d_33">
      <g>
       <use xlink:href="#m0513df6ef9" x="564.678744" y="658.500625" style="stroke: #000000; stroke-width: 0.8"/>
      </g>
     </g>
     <g id="text_31">
      <!-- 150 -->
      <g transform="translate(549.678744 679.388125) scale(0.2 -0.2)">
       <use xlink:href="#TimesNewRomanPSMT-31"/>
       <use xlink:href="#TimesNewRomanPSMT-35" x="50"/>
       <use xlink:href="#TimesNewRomanPSMT-30" x="100"/>
      </g>
     </g>
    </g>
    <g id="xtick_19">
     <g id="line2d_34">
      <g>
       <use xlink:href="#m0513df6ef9" x="719.239512" y="658.500625" style="stroke: #000000; stroke-width: 0.8"/>
      </g>
     </g>
     <g id="text_32">
      <!-- 200 -->
      <g transform="translate(704.239512 679.388125) scale(0.2 -0.2)">
       <use xlink:href="#TimesNewRomanPSMT-32"/>
       <use xlink:href="#TimesNewRomanPSMT-30" x="50"/>
       <use xlink:href="#TimesNewRomanPSMT-30" x="100"/>
      </g>
     </g>
    </g>
    <g id="xtick_20">
     <g id="line2d_35">
      <g>
       <use xlink:href="#m0513df6ef9" x="873.80028" y="658.500625" style="stroke: #000000; stroke-width: 0.8"/>
      </g>
     </g>
     <g id="text_33">
      <!-- 250 -->
      <g transform="translate(858.80028 679.388125) scale(0.2 -0.2)">
       <use xlink:href="#TimesNewRomanPSMT-32"/>
       <use xlink:href="#TimesNewRomanPSMT-35" x="50"/>
       <use xlink:href="#TimesNewRomanPSMT-30" x="100"/>
      </g>
     </g>
    </g>
    <g id="xtick_21">
     <g id="line2d_36">
      <g>
       <use xlink:href="#m0513df6ef9" x="1028.361048" y="658.500625" style="stroke: #000000; stroke-width: 0.8"/>
      </g>
     </g>
     <g id="text_34">
      <!-- 300 -->
      <g transform="translate(1013.361048 679.388125) scale(0.2 -0.2)">
       <use xlink:href="#TimesNewRomanPSMT-33"/>
       <use xlink:href="#TimesNewRomanPSMT-30" x="50"/>
       <use xlink:href="#TimesNewRomanPSMT-30" x="100"/>
      </g>
     </g>
    </g>
   </g>
   <g id="matplotlib.axis_6">
    <g id="ytick_8">
     <g id="line2d_37">
      <g>
       <use xlink:href="#m8d3d6a325a" x="56.6375" y="593.509299" style="stroke: #000000; stroke-width: 0.8"/>
      </g>
     </g>
     <g id="text_35">
      <!-- 20 -->
      <g transform="translate(29.6375 600.453049) scale(0.2 -0.2)">
       <use xlink:href="#TimesNewRomanPSMT-32"/>
       <use xlink:href="#TimesNewRomanPSMT-30" x="50"/>
      </g>
     </g>
    </g>
    <g id="ytick_9">
     <g id="line2d_38">
      <g>
       <use xlink:href="#m8d3d6a325a" x="56.6375" y="525.742941" style="stroke: #000000; stroke-width: 0.8"/>
      </g>
     </g>
     <g id="text_36">
      <!-- 40 -->
      <g transform="translate(29.6375 532.686691) scale(0.2 -0.2)">
       <use xlink:href="#TimesNewRomanPSMT-34"/>
       <use xlink:href="#TimesNewRomanPSMT-30" x="50"/>
      </g>
     </g>
    </g>
    <g id="text_37">
     <!-- CPU使用率 -->
     <g transform="translate(23.059375 620.720625) rotate(-90) scale(0.2 -0.2)">
      <use xlink:href="#SimSun-43"/>
      <use xlink:href="#SimSun-50" x="50"/>
      <use xlink:href="#SimSun-55" x="100"/>
      <use xlink:href="#SimSun-4f7f" x="150"/>
      <use xlink:href="#SimSun-7528" x="250"/>
      <use xlink:href="#SimSun-7387" x="350"/>
     </g>
    </g>
   </g>
   <g id="line2d_39">
    <path d="M 100.99644 540.7193 
L 104.087656 538.991263 
L 107.178871 536.687206 
L 110.270086 555.831201 
L 116.452517 584.835207 
L 119.543733 606.147723 
L 122.634948 610.112058 
L 125.726163 611.467384 
L 128.817379 611.09467 
L 131.908594 591.442423 
L 134.999809 583.683178 
L 138.091025 584.767439 
L 141.18224 593.983661 
L 144.273455 592.594451 
L 147.364671 589.273901 
L 150.455886 598.083529 
L 153.547102 598.862841 
L 156.638317 601.810674 
L 159.729532 583.039396 
L 162.820748 585.580634 
L 165.911963 575.076848 
L 169.003178 586.529366 
L 172.094394 579.312245 
L 175.185609 579.549433 
L 178.276824 586.969844 
L 181.36804 595.372871 
L 184.459255 603.199884 
L 187.55047 611.873982 
L 190.641686 613.805322 
L 193.732901 611.365736 
L 196.824117 604.96181 
L 199.915332 593.577067 
L 203.006547 591.137474 
L 206.097763 590.764757 
L 209.188978 603.87755 
L 212.280193 618.379553 
L 215.371409 625.257837 
L 218.462624 627.223061 
L 221.553839 633.355918 
L 224.645055 640.945749 
L 227.73627 636.066571 
L 230.827486 641.453997 
L 233.918701 638.844993 
L 237.009916 633.525335 
L 240.101132 626.47763 
L 243.192347 624.376874 
L 249.374778 616.956459 
L 252.465993 609.773225 
L 255.557208 610.01041 
L 258.648424 598.049639 
L 261.739639 598.828957 
L 264.830854 586.021113 
L 267.92207 571.688536 
L 271.013285 571.01087 
L 274.104501 570.570392 
L 277.195716 586.088881 
L 280.286931 577.82139 
L 283.378147 565.216843 
L 286.469362 579.007302 
L 289.560577 580.565925 
L 292.651793 591.27301 
L 295.743008 582.361736 
L 298.834223 579.075064 
L 301.925439 591.510191 
L 305.016654 594.661327 
L 308.10787 584.530258 
L 311.199085 592.594451 
L 314.2903 582.022897 
L 317.381516 587.342561 
L 320.472731 584.699671 
L 323.563946 581.785716 
L 326.655162 582.327846 
L 329.746377 572.976094 
L 332.837592 553.628796 
L 335.928808 540.007756 
L 339.020023 534.891389 
L 342.111238 542.548995 
L 345.202454 517.102733 
L 348.293669 516.56059 
L 351.384885 535.636823 
L 354.4761 543.023357 
L 357.567315 573.247159 
L 360.658531 576.872658 
L 363.749746 593.74648 
L 366.840961 587.579742 
L 369.932177 594.559676 
L 373.023392 597.846342 
L 376.114607 595.067922 
L 379.205823 600.590884 
L 382.297038 605.334527 
L 385.388254 613.229311 
L 388.479469 626.816463 
L 391.570684 635.524441 
L 394.6619 631.390694 
L 397.753115 622.682715 
L 400.84433 603.74202 
L 403.935546 606.147723 
L 407.026761 613.737558 
L 413.209192 594.220842 
L 416.300407 587.884692 
L 419.391622 582.632801 
L 422.482838 582.869983 
L 425.574053 590.324278 
L 428.665269 582.971635 
L 431.756484 581.887367 
L 434.847699 581.209701 
L 437.938915 578.329636 
L 441.03013 581.345237 
L 444.121345 592.967168 
L 447.212561 594.390262 
L 450.303776 602.556108 
L 453.394991 595.67782 
L 456.486207 596.118299 
L 459.577422 596.38937 
L 462.668638 582.022897 
L 465.759853 578.837883 
L 468.851068 588.968952 
L 471.942284 601.505725 
L 475.033499 602.285043 
L 478.124714 605.198998 
L 481.21593 603.437071 
L 484.307145 602.31892 
L 487.39836 577.313143 
L 490.489576 546.682734 
L 493.580791 539.194567 
L 496.672006 524.658667 
L 499.763222 520.186089 
L 502.854437 508.835229 
L 505.945653 510.021135 
L 509.036868 532.6551 
L 512.128083 532.621222 
L 515.219299 534.993047 
L 518.310514 560.812032 
L 521.401729 565.250727 
L 524.492945 563.217735 
L 527.58416 564.369764 
L 530.675375 546.886037 
L 533.766591 525.946232 
L 536.857806 539.228445 
L 539.949022 545.327414 
L 543.040237 543.158893 
L 546.131452 574.568601 
L 549.222668 599.540507 
L 552.313883 614.381337 
L 558.496314 633.660867 
L 561.587529 637.489665 
L 564.678744 639.929253 
L 567.76996 645.147263 
L 570.861175 644.842315 
L 573.95239 644.672899 
L 577.043606 648.19675 
L 580.134821 645.587744 
L 583.226037 645.147263 
L 586.317252 642.436609 
L 589.408467 645.553862 
L 592.499683 639.048292 
L 595.590898 642.13166 
L 598.682113 646.570357 
L 604.864544 640.064786 
L 607.955759 645.215031 
L 611.046975 642.470492 
L 614.13819 640.708567 
L 620.320621 626.47763 
L 623.411836 621.937284 
L 626.503052 620.243125 
L 629.594267 607.028686 
L 632.685482 605.842774 
L 635.776698 588.054111 
L 638.867913 599.70992 
L 641.959128 581.717954 
L 645.050344 582.293962 
L 648.141559 581.446889 
L 651.232774 571.214167 
L 654.32399 575.551217 
L 657.415205 580.769223 
L 660.506421 591.408539 
L 663.597636 592.153966 
L 666.688851 604.792397 
L 669.780067 603.166 
L 672.871282 599.70992 
L 675.962497 584.123657 
L 679.053713 565.657328 
L 682.144928 561.049214 
L 685.236143 537.466518 
L 688.327359 534.484794 
L 691.418574 541.058139 
L 694.50979 536.788852 
L 697.601005 544.988588 
L 700.69222 538.076416 
L 703.783436 520.321624 
L 706.874651 505.277498 
L 709.965866 500.46608 
L 713.057082 527.742049 
L 716.148297 523.371116 
L 719.239512 526.657775 
L 722.330728 528.758542 
L 725.421943 534.959157 
L 728.513158 543.802669 
L 731.604374 555.526252 
L 734.695589 544.853052 
L 737.786805 546.51332 
L 740.87802 556.068382 
L 743.969235 552.476767 
L 747.060451 557.457592 
L 750.151666 577.65197 
L 753.242881 588.189641 
L 756.334097 601.031362 
L 759.425312 620.17536 
L 762.516527 626.409866 
L 765.607743 631.627875 
L 768.698958 638.60781 
L 771.790174 644.300183 
L 774.881389 643.08039 
L 777.972604 644.740665 
L 781.06382 647.044722 
L 784.155035 648.501698 
L 787.24625 648.230633 
L 790.337466 649.247128 
L 793.428681 649.924791 
L 796.519896 647.925684 
L 799.611112 649.077713 
L 802.702327 648.569465 
L 805.793542 645.85881 
L 808.884758 638.031796 
L 811.975973 640.268085 
L 815.067189 642.944857 
L 818.158404 641.013516 
L 821.249619 643.419221 
L 824.340835 644.943964 
L 827.43205 636.235988 
L 830.523265 636.710352 
L 833.614481 633.355918 
L 836.705696 634.88066 
L 839.796911 632.203889 
L 842.888127 626.816463 
L 845.979342 618.548969 
L 849.070557 604.724629 
L 852.161773 599.472739 
L 855.252988 580.362628 
L 858.344204 585.072388 
L 861.435419 591.747372 
L 864.526634 582.666685 
L 867.61785 584.123657 
L 870.709065 595.982769 
L 873.80028 590.222633 
L 876.891496 605.97831 
L 879.982711 602.725521 
L 883.073926 612.788829 
L 886.165142 603.437071 
L 889.256357 591.374655 
L 892.347573 564.234234 
L 895.438788 550.443781 
L 898.530003 548.885158 
L 901.621219 536.958265 
L 904.712434 530.520469 
L 907.803649 516.662235 
L 910.894865 530.825418 
L 913.98608 510.800459 
L 917.077295 518.593588 
L 920.168511 538.144184 
L 923.259726 548.27526 
L 926.350941 568.130792 
L 929.442157 562.641727 
L 932.533372 566.43664 
L 935.624588 559.117873 
L 938.715803 559.321177 
L 941.807018 553.35773 
L 944.898234 567.724198 
L 947.989449 574.534717 
L 951.080664 584.970736 
L 954.17188 594.119197 
L 957.263095 592.662219 
L 960.35431 608.756733 
L 963.445526 623.936392 
L 966.536741 630.035365 
L 969.627957 637.591314 
L 972.719172 639.99702 
L 975.810387 642.775441 
L 981.992818 648.874413 
L 985.084033 650.907404 
L 988.175249 650.97517 
L 988.175249 650.97517 
" clip-path="url(#pa941fffe27)" style="fill: none; stroke: #1f77b4; stroke-width: 1.5; stroke-linecap: square"/>
   </g>
   <g id="line2d_40">
    <path d="M 546.131452 552.366151 
L 549.222668 560.527751 
L 552.313883 565.57825 
L 555.405098 569.675908 
L 558.496314 577.012124 
L 561.587529 585.669115 
L 564.678744 593.037256 
L 567.76996 596.946966 
L 570.861175 601.823528 
L 573.95239 604.010106 
L 577.043606 604.353244 
L 580.134821 608.771109 
L 583.226037 609.336802 
L 586.317252 608.529937 
L 589.408467 608.188134 
L 592.499683 607.227356 
L 595.590898 608.162157 
L 598.682113 609.379689 
L 601.773329 608.313223 
L 604.864544 608.656974 
L 607.955759 609.434405 
L 611.046975 608.949463 
L 614.13819 607.319456 
L 617.229406 605.432832 
L 620.320621 604.476662 
L 623.411836 604.474775 
L 626.503052 602.58223 
L 629.594267 597.375101 
L 632.685482 595.222458 
L 635.776698 593.806376 
L 638.867913 591.839259 
L 641.959128 590.679927 
L 645.050344 594.118331 
L 648.141559 593.954107 
L 651.232774 596.362175 
L 654.32399 594.588331 
L 657.415205 595.541102 
L 660.506421 592.797561 
L 663.597636 586.988172 
L 669.780067 581.585591 
L 672.871282 576.435049 
L 675.962497 571.715667 
L 679.053713 568.653437 
L 685.236143 558.580538 
L 688.327359 550.860186 
L 691.418574 548.59802 
L 694.50979 547.287617 
L 697.601005 547.257526 
L 700.69222 550.172206 
L 706.874651 552.998359 
L 709.965866 552.765223 
L 713.057082 555.141908 
L 716.148297 556.706477 
L 719.239512 560.384647 
L 722.330728 562.617421 
L 725.421943 564.573681 
L 728.513158 568.590336 
L 731.604374 571.333792 
L 734.695589 575.927488 
L 737.786805 580.724992 
L 740.87802 584.852126 
L 743.969235 585.926383 
L 747.060451 593.134229 
L 750.151666 599.579477 
L 753.242881 601.399872 
L 756.334097 604.839103 
L 759.425312 609.613639 
L 762.516527 611.468299 
L 765.607743 612.734769 
L 768.698958 613.050175 
L 771.790174 611.295412 
L 774.881389 608.519354 
L 777.972604 607.817253 
L 781.06382 604.928314 
L 784.155035 603.201118 
L 787.24625 601.179642 
L 790.337466 600.619753 
L 793.428681 598.31101 
L 796.519896 594.301478 
L 799.611112 592.485148 
L 802.702327 591.944717 
L 805.793542 589.405017 
L 808.884758 585.057828 
L 811.975973 581.660766 
L 815.067189 580.7786 
L 818.158404 577.905586 
L 821.249619 578.293904 
L 824.340835 583.080273 
L 827.43205 585.219925 
L 830.523265 587.652474 
L 833.614481 588.612153 
L 836.705696 592.67888 
L 839.796911 592.154677 
L 842.888127 592.33193 
L 845.979342 590.453746 
L 849.070557 585.963336 
L 852.161773 581.187386 
L 855.252988 579.977522 
L 858.344204 580.194068 
L 861.435419 577.20298 
L 864.526634 576.909302 
L 867.61785 575.345929 
L 870.709065 570.77851 
L 876.891496 564.23552 
L 879.982711 555.574166 
L 883.073926 550.90739 
L 886.165142 549.69001 
L 889.256357 549.851694 
L 892.347573 547.18897 
L 895.438788 547.975016 
L 898.530003 547.763491 
L 901.621219 548.081237 
L 904.712434 551.425944 
L 907.803649 555.706807 
L 910.894865 558.485692 
L 913.98608 566.401069 
L 917.077295 570.37728 
L 920.168511 575.185402 
L 923.259726 578.490635 
L 926.350941 585.002164 
L 929.442157 588.828098 
L 932.533372 589.211 
L 935.624588 589.408733 
L 938.715803 591.44928 
L 941.807018 597.094199 
L 944.898234 598.243203 
L 947.989449 601.483991 
L 954.17188 607.586185 
L 957.263095 609.660661 
L 960.35431 610.047819 
L 963.445526 608.150392 
L 966.536741 607.310344 
L 969.627957 606.768033 
L 972.719172 605.936283 
L 975.810387 604.515231 
L 978.901603 601.945434 
L 981.992818 597.811133 
L 985.084033 595.469404 
L 988.175249 595.338095 
L 988.175249 595.338095 
" clip-path="url(#pa941fffe27)" style="fill: none; stroke: #ff7f0e; stroke-width: 1.5; stroke-linecap: square"/>
   </g>
   <g id="line2d_41">
    <path d="M 546.131452 658.500625 
L 546.131452 492.940625 
" clip-path="url(#pa941fffe27)" style="fill: none; stroke-dasharray: 7.4,3.2; stroke-dashoffset: 0; stroke: #0000ff; stroke-width: 2"/>
   </g>
   <g id="patch_14">
    <path d="M 56.6375 658.500625 
L 56.6375 492.940625 
" style="fill: none; stroke: #000000; stroke-width: 0.8; stroke-linejoin: miter; stroke-linecap: square"/>
   </g>
   <g id="patch_15">
    <path d="M 1032.534189 658.500625 
L 1032.534189 492.940625 
" style="fill: none; stroke: #000000; stroke-width: 0.8; stroke-linejoin: miter; stroke-linecap: square"/>
   </g>
   <g id="patch_16">
    <path d="M 56.6375 658.500625 
L 1032.534189 658.500625 
" style="fill: none; stroke: #000000; stroke-width: 0.8; stroke-linejoin: miter; stroke-linecap: square"/>
   </g>
   <g id="patch_17">
    <path d="M 56.6375 492.940625 
L 1032.534189 492.940625 
" style="fill: none; stroke: #000000; stroke-width: 0.8; stroke-linejoin: miter; stroke-linecap: square"/>
   </g>
   <g id="text_38">
    <!-- API_ID: 36 -->
    <g transform="translate(494.585845 486.940625) scale(0.2 -0.2)">
     <defs>
      <path id="SimSun-36" d="M 775 1800 
Q 775 1050 1037 637 
Q 1300 225 1675 225 
Q 2050 225 2250 500 
Q 2450 775 2450 1525 
Q 2450 2025 2237 2300 
Q 2025 2575 1725 2575 
Q 1450 2575 1212 2412 
Q 975 2250 775 1800 
z
M 1750 2825 
Q 2350 2825 2612 2425 
Q 2875 2025 2875 1525 
Q 2875 775 2512 412 
Q 2150 50 1675 50 
Q 1000 50 650 562 
Q 300 1075 300 2050 
Q 300 3200 725 3812 
Q 1150 4425 1875 4425 
Q 2225 4425 2437 4225 
Q 2650 4025 2650 3875 
Q 2650 3725 2587 3650 
Q 2525 3575 2375 3575 
Q 2250 3575 2187 3637 
Q 2125 3700 2125 3825 
Q 2125 3875 2150 3925 
Q 2150 3975 2150 4025 
Q 2150 4125 2075 4187 
Q 2000 4250 1800 4250 
Q 1375 4250 1075 3862 
Q 775 3475 775 2175 
Q 925 2500 1187 2662 
Q 1450 2825 1750 2825 
z
" transform="scale(0.015625)"/>
     </defs>
     <use xlink:href="#SimSun-41"/>
     <use xlink:href="#SimSun-50" x="50"/>
     <use xlink:href="#SimSun-49" x="100"/>
     <use xlink:href="#SimSun-5f" x="150"/>
     <use xlink:href="#SimSun-49" x="200"/>
     <use xlink:href="#SimSun-44" x="250"/>
     <use xlink:href="#SimSun-3a" x="300"/>
     <use xlink:href="#SimSun-20" x="350"/>
     <use xlink:href="#SimSun-33" x="400"/>
     <use xlink:href="#SimSun-36" x="450"/>
    </g>
   </g>
  </g>
 </g>
 <defs>
  <clipPath id="pc74a1c3615">
   <rect x="56.6375" y="27.340625" width="975.896689" height="165.56"/>
  </clipPath>
  <clipPath id="pdb6c4e40c6">
   <rect x="56.6375" y="260.140625" width="975.896689" height="165.56"/>
  </clipPath>
  <clipPath id="pa941fffe27">
   <rect x="56.6375" y="492.940625" width="975.896689" height="165.56"/>
  </clipPath>
 </defs>
</svg>
