<?xml version="1.0" encoding="utf-8" standalone="no"?>
<!DOCTYPE svg PUBLIC "-//W3C//DTD SVG 1.1//EN"
  "http://www.w3.org/Graphics/SVG/1.1/DTD/svg11.dtd">
<svg xmlns:xlink="http://www.w3.org/1999/xlink" width="1050.602344pt" height="690.86625pt" viewBox="0 0 1050.602344 690.86625" xmlns="http://www.w3.org/2000/svg" version="1.1">
 <metadata>
  <rdf:RDF xmlns:dc="http://purl.org/dc/elements/1.1/" xmlns:cc="http://creativecommons.org/ns#" xmlns:rdf="http://www.w3.org/1999/02/22-rdf-syntax-ns#">
   <cc:Work>
    <dc:type rdf:resource="http://purl.org/dc/dcmitype/StillImage"/>
    <dc:date>2024-02-27T19:34:49.810397</dc:date>
    <dc:format>image/svg+xml</dc:format>
    <dc:creator>
     <cc:Agent>
      <dc:title>Matplotlib v3.7.1, https://matplotlib.org/</dc:title>
     </cc:Agent>
    </dc:creator>
   </cc:Work>
  </rdf:RDF>
 </metadata>
 <defs>
  <style type="text/css">*{stroke-linejoin: round; stroke-linecap: butt}</style>
 </defs>
 <g id="figure_1">
  <g id="patch_1">
   <path d="M 0 690.86625 
L 1050.602344 690.86625 
L 1050.602344 0 
L 0 0 
z
" style="fill: #ffffff"/>
  </g>
  <g id="axes_1">
   <g id="patch_2">
    <path d="M 61.6375 192.900625 
L 1032.554189 192.900625 
L 1032.554189 27.340625 
L 61.6375 27.340625 
z
" style="fill: #ffffff"/>
   </g>
   <g id="matplotlib.axis_1">
    <g id="xtick_1">
     <g id="line2d_1">
      <defs>
       <path id="m2482c151f0" d="M 0 0 
L 0 3.5 
" style="stroke: #000000; stroke-width: 0.8"/>
      </defs>
      <g>
       <use xlink:href="#m2482c151f0" x="105.770077" y="192.900625" style="stroke: #000000; stroke-width: 0.8"/>
      </g>
     </g>
     <g id="text_1">
      <!-- 0 -->
      <g transform="translate(100.770077 213.788125) scale(0.2 -0.2)">
       <defs>
        <path id="TimesNewRomanPSMT-30" d="M 231 2094 
Q 231 2819 450 3342 
Q 669 3866 1031 4122 
Q 1313 4325 1613 4325 
Q 2100 4325 2488 3828 
Q 2972 3213 2972 2159 
Q 2972 1422 2759 906 
Q 2547 391 2217 158 
Q 1888 -75 1581 -75 
Q 975 -75 572 641 
Q 231 1244 231 2094 
z
M 844 2016 
Q 844 1141 1059 588 
Q 1238 122 1591 122 
Q 1759 122 1940 273 
Q 2122 425 2216 781 
Q 2359 1319 2359 2297 
Q 2359 3022 2209 3506 
Q 2097 3866 1919 4016 
Q 1791 4119 1609 4119 
Q 1397 4119 1231 3928 
Q 1006 3669 925 3112 
Q 844 2556 844 2016 
z
" transform="scale(0.015625)"/>
       </defs>
       <use xlink:href="#TimesNewRomanPSMT-30"/>
      </g>
     </g>
    </g>
    <g id="xtick_2">
     <g id="line2d_2">
      <g>
       <use xlink:href="#m2482c151f0" x="259.542121" y="192.900625" style="stroke: #000000; stroke-width: 0.8"/>
      </g>
     </g>
     <g id="text_2">
      <!-- 50 -->
      <g transform="translate(249.542121 213.788125) scale(0.2 -0.2)">
       <defs>
        <path id="TimesNewRomanPSMT-35" d="M 2778 4238 
L 2534 3706 
L 1259 3706 
L 981 3138 
Q 1809 3016 2294 2522 
Q 2709 2097 2709 1522 
Q 2709 1188 2573 903 
Q 2438 619 2231 419 
Q 2025 219 1772 97 
Q 1413 -75 1034 -75 
Q 653 -75 479 54 
Q 306 184 306 341 
Q 306 428 378 495 
Q 450 563 559 563 
Q 641 563 702 538 
Q 763 513 909 409 
Q 1144 247 1384 247 
Q 1750 247 2026 523 
Q 2303 800 2303 1197 
Q 2303 1581 2056 1914 
Q 1809 2247 1375 2428 
Q 1034 2569 447 2591 
L 1259 4238 
L 2778 4238 
z
" transform="scale(0.015625)"/>
       </defs>
       <use xlink:href="#TimesNewRomanPSMT-35"/>
       <use xlink:href="#TimesNewRomanPSMT-30" x="50"/>
      </g>
     </g>
    </g>
    <g id="xtick_3">
     <g id="line2d_3">
      <g>
       <use xlink:href="#m2482c151f0" x="413.314166" y="192.900625" style="stroke: #000000; stroke-width: 0.8"/>
      </g>
     </g>
     <g id="text_3">
      <!-- 100 -->
      <g transform="translate(398.314166 213.788125) scale(0.2 -0.2)">
       <defs>
        <path id="TimesNewRomanPSMT-31" d="M 750 3822 
L 1781 4325 
L 1884 4325 
L 1884 747 
Q 1884 391 1914 303 
Q 1944 216 2037 169 
Q 2131 122 2419 116 
L 2419 0 
L 825 0 
L 825 116 
Q 1125 122 1212 167 
Q 1300 213 1334 289 
Q 1369 366 1369 747 
L 1369 3034 
Q 1369 3497 1338 3628 
Q 1316 3728 1258 3775 
Q 1200 3822 1119 3822 
Q 1003 3822 797 3725 
L 750 3822 
z
" transform="scale(0.015625)"/>
       </defs>
       <use xlink:href="#TimesNewRomanPSMT-31"/>
       <use xlink:href="#TimesNewRomanPSMT-30" x="50"/>
       <use xlink:href="#TimesNewRomanPSMT-30" x="100"/>
      </g>
     </g>
    </g>
    <g id="xtick_4">
     <g id="line2d_4">
      <g>
       <use xlink:href="#m2482c151f0" x="567.08621" y="192.900625" style="stroke: #000000; stroke-width: 0.8"/>
      </g>
     </g>
     <g id="text_4">
      <!-- 150 -->
      <g transform="translate(552.08621 213.788125) scale(0.2 -0.2)">
       <use xlink:href="#TimesNewRomanPSMT-31"/>
       <use xlink:href="#TimesNewRomanPSMT-35" x="50"/>
       <use xlink:href="#TimesNewRomanPSMT-30" x="100"/>
      </g>
     </g>
    </g>
    <g id="xtick_5">
     <g id="line2d_5">
      <g>
       <use xlink:href="#m2482c151f0" x="720.858255" y="192.900625" style="stroke: #000000; stroke-width: 0.8"/>
      </g>
     </g>
     <g id="text_5">
      <!-- 200 -->
      <g transform="translate(705.858255 213.788125) scale(0.2 -0.2)">
       <defs>
        <path id="TimesNewRomanPSMT-32" d="M 2934 816 
L 2638 0 
L 138 0 
L 138 116 
Q 1241 1122 1691 1759 
Q 2141 2397 2141 2925 
Q 2141 3328 1894 3587 
Q 1647 3847 1303 3847 
Q 991 3847 742 3664 
Q 494 3481 375 3128 
L 259 3128 
Q 338 3706 661 4015 
Q 984 4325 1469 4325 
Q 1984 4325 2329 3994 
Q 2675 3663 2675 3213 
Q 2675 2891 2525 2569 
Q 2294 2063 1775 1497 
Q 997 647 803 472 
L 1909 472 
Q 2247 472 2383 497 
Q 2519 522 2628 598 
Q 2738 675 2819 816 
L 2934 816 
z
" transform="scale(0.015625)"/>
       </defs>
       <use xlink:href="#TimesNewRomanPSMT-32"/>
       <use xlink:href="#TimesNewRomanPSMT-30" x="50"/>
       <use xlink:href="#TimesNewRomanPSMT-30" x="100"/>
      </g>
     </g>
    </g>
    <g id="xtick_6">
     <g id="line2d_6">
      <g>
       <use xlink:href="#m2482c151f0" x="874.630299" y="192.900625" style="stroke: #000000; stroke-width: 0.8"/>
      </g>
     </g>
     <g id="text_6">
      <!-- 250 -->
      <g transform="translate(859.630299 213.788125) scale(0.2 -0.2)">
       <use xlink:href="#TimesNewRomanPSMT-32"/>
       <use xlink:href="#TimesNewRomanPSMT-35" x="50"/>
       <use xlink:href="#TimesNewRomanPSMT-30" x="100"/>
      </g>
     </g>
    </g>
    <g id="xtick_7">
     <g id="line2d_7">
      <g>
       <use xlink:href="#m2482c151f0" x="1028.402344" y="192.900625" style="stroke: #000000; stroke-width: 0.8"/>
      </g>
     </g>
     <g id="text_7">
      <!-- 300 -->
      <g transform="translate(1013.402344 213.788125) scale(0.2 -0.2)">
       <defs>
        <path id="TimesNewRomanPSMT-33" d="M 325 3431 
Q 506 3859 782 4092 
Q 1059 4325 1472 4325 
Q 1981 4325 2253 3994 
Q 2459 3747 2459 3466 
Q 2459 3003 1878 2509 
Q 2269 2356 2469 2072 
Q 2669 1788 2669 1403 
Q 2669 853 2319 450 
Q 1863 -75 997 -75 
Q 569 -75 414 31 
Q 259 138 259 259 
Q 259 350 332 419 
Q 406 488 509 488 
Q 588 488 669 463 
Q 722 447 909 348 
Q 1097 250 1169 231 
Q 1284 197 1416 197 
Q 1734 197 1970 444 
Q 2206 691 2206 1028 
Q 2206 1275 2097 1509 
Q 2016 1684 1919 1775 
Q 1784 1900 1550 2001 
Q 1316 2103 1072 2103 
L 972 2103 
L 972 2197 
Q 1219 2228 1467 2375 
Q 1716 2522 1828 2728 
Q 1941 2934 1941 3181 
Q 1941 3503 1739 3701 
Q 1538 3900 1238 3900 
Q 753 3900 428 3381 
L 325 3431 
z
" transform="scale(0.015625)"/>
       </defs>
       <use xlink:href="#TimesNewRomanPSMT-33"/>
       <use xlink:href="#TimesNewRomanPSMT-30" x="50"/>
       <use xlink:href="#TimesNewRomanPSMT-30" x="100"/>
      </g>
     </g>
    </g>
   </g>
   <g id="matplotlib.axis_2">
    <g id="ytick_1">
     <g id="line2d_8">
      <defs>
       <path id="m502100655c" d="M 0 0 
L -3.5 0 
" style="stroke: #000000; stroke-width: 0.8"/>
      </defs>
      <g>
       <use xlink:href="#m502100655c" x="61.6375" y="170.384218" style="stroke: #000000; stroke-width: 0.8"/>
      </g>
     </g>
     <g id="text_8">
      <!-- 2.5 -->
      <g transform="translate(29.6375 177.327968) scale(0.2 -0.2)">
       <defs>
        <path id="TimesNewRomanPSMT-2e" d="M 800 606 
Q 947 606 1047 504 
Q 1147 403 1147 259 
Q 1147 116 1045 14 
Q 944 -88 800 -88 
Q 656 -88 554 14 
Q 453 116 453 259 
Q 453 406 554 506 
Q 656 606 800 606 
z
" transform="scale(0.015625)"/>
       </defs>
       <use xlink:href="#TimesNewRomanPSMT-32"/>
       <use xlink:href="#TimesNewRomanPSMT-2e" x="50"/>
       <use xlink:href="#TimesNewRomanPSMT-35" x="75"/>
      </g>
     </g>
    </g>
    <g id="ytick_2">
     <g id="line2d_9">
      <g>
       <use xlink:href="#m502100655c" x="61.6375" y="120.414401" style="stroke: #000000; stroke-width: 0.8"/>
      </g>
     </g>
     <g id="text_9">
      <!-- 5.0 -->
      <g transform="translate(29.6375 127.358151) scale(0.2 -0.2)">
       <use xlink:href="#TimesNewRomanPSMT-35"/>
       <use xlink:href="#TimesNewRomanPSMT-2e" x="50"/>
       <use xlink:href="#TimesNewRomanPSMT-30" x="75"/>
      </g>
     </g>
    </g>
    <g id="ytick_3">
     <g id="line2d_10">
      <g>
       <use xlink:href="#m502100655c" x="61.6375" y="70.444584" style="stroke: #000000; stroke-width: 0.8"/>
      </g>
     </g>
     <g id="text_10">
      <!-- 7.5 -->
      <g transform="translate(29.6375 77.388334) scale(0.2 -0.2)">
       <defs>
        <path id="TimesNewRomanPSMT-37" d="M 644 4238 
L 2916 4238 
L 2916 4119 
L 1503 -88 
L 1153 -88 
L 2419 3728 
L 1253 3728 
Q 900 3728 750 3644 
Q 488 3500 328 3200 
L 238 3234 
L 644 4238 
z
" transform="scale(0.015625)"/>
       </defs>
       <use xlink:href="#TimesNewRomanPSMT-37"/>
       <use xlink:href="#TimesNewRomanPSMT-2e" x="50"/>
       <use xlink:href="#TimesNewRomanPSMT-35" x="75"/>
      </g>
     </g>
    </g>
    <g id="text_11">
     <!-- CPU使用率 -->
     <g transform="translate(23.059375 155.120625) rotate(-90) scale(0.2 -0.2)">
      <defs>
       <path id="SimSun-43" d="M 1725 50 
Q 1025 50 612 575 
Q 200 1100 200 2225 
Q 200 3175 637 3800 
Q 1075 4425 1825 4425 
Q 2000 4425 2175 4375 
Q 2350 4300 2475 4300 
Q 2575 4300 2637 4325 
Q 2700 4350 2750 4425 
L 2975 3325 
L 2825 3275 
Q 2675 3750 2425 4000 
Q 2175 4250 1775 4250 
Q 1250 4250 962 3675 
Q 675 3100 675 2250 
Q 675 1325 925 800 
Q 1175 275 1750 275 
Q 2150 275 2437 562 
Q 2725 850 2825 1325 
L 2975 1250 
Q 2850 725 2512 387 
Q 2175 50 1725 50 
z
" transform="scale(0.015625)"/>
       <path id="SimSun-50" d="M 950 2100 
L 950 450 
Q 950 350 1012 300 
Q 1075 250 1175 250 
L 1350 250 
L 1350 100 
L 150 100 
L 150 250 
L 325 250 
Q 450 250 500 300 
Q 550 350 550 450 
L 550 4025 
Q 550 4125 500 4175 
Q 450 4225 325 4225 
L 175 4225 
L 175 4375 
L 1650 4375 
Q 2275 4375 2612 4062 
Q 2950 3750 2950 3275 
Q 2950 2700 2587 2400 
Q 2225 2100 1725 2100 
L 950 2100 
z
M 1575 2250 
Q 1950 2250 2237 2475 
Q 2525 2700 2525 3250 
Q 2525 3750 2287 3987 
Q 2050 4225 1525 4225 
L 1175 4225 
Q 1075 4225 1012 4175 
Q 950 4125 950 4025 
L 950 2250 
L 1575 2250 
z
" transform="scale(0.015625)"/>
       <path id="SimSun-55" d="M 1625 250 
Q 2000 250 2262 500 
Q 2525 750 2525 1125 
L 2525 4025 
Q 2525 4125 2475 4175 
Q 2425 4225 2300 4225 
L 2150 4225 
L 2150 4375 
L 3050 4375 
L 3050 4225 
L 2900 4225 
Q 2800 4225 2737 4175 
Q 2675 4125 2675 4025 
L 2675 1125 
Q 2675 625 2337 337 
Q 2000 50 1575 50 
Q 1125 50 787 300 
Q 450 550 450 1100 
L 450 4025 
Q 450 4125 400 4175 
Q 350 4225 225 4225 
L 100 4225 
L 100 4375 
L 1200 4375 
L 1200 4225 
L 1075 4225 
Q 975 4225 912 4175 
Q 850 4125 850 4025 
L 850 1100 
Q 850 600 1062 425 
Q 1275 250 1625 250 
z
" transform="scale(0.015625)"/>
       <path id="SimSun-4f7f" d="M 2875 3150 
L 2875 2100 
L 3825 2100 
Q 3850 2825 3850 3150 
L 2875 3150 
z
M 4175 3150 
Q 4175 2800 4150 2100 
L 5150 2100 
L 5150 3150 
L 4175 3150 
z
M 5475 3100 
L 5475 2425 
Q 5475 2100 5500 1800 
L 5150 1675 
L 5150 1950 
L 4150 1950 
Q 4125 1175 3875 600 
Q 4275 275 4875 75 
Q 5475 -125 6075 -150 
L 6075 -250 
Q 5700 -300 5600 -575 
Q 4525 -325 3725 350 
Q 3425 25 2925 -225 
Q 2425 -475 1875 -650 
L 1825 -550 
Q 2400 -325 2850 -25 
Q 3300 275 3500 575 
Q 3200 925 2825 1650 
L 2900 1700 
Q 3325 1100 3625 825 
Q 3800 1300 3825 1950 
L 2875 1950 
L 2875 1825 
L 2525 1675 
Q 2550 2075 2550 2562 
Q 2550 3050 2525 3500 
L 2875 3300 
L 3850 3300 
L 3850 4025 
L 2975 4025 
Q 2650 4025 2375 3950 
L 2150 4175 
L 3850 4175 
L 3850 4525 
Q 3850 4775 3825 5225 
L 4350 5000 
L 4175 4825 
L 4175 4175 
L 5300 4175 
L 5600 4475 
L 6050 4025 
L 4175 4025 
L 4175 3300 
L 5100 3300 
L 5275 3525 
L 5650 3225 
L 5475 3100 
z
M 1675 3175 
L 1675 -450 
L 1325 -625 
Q 1350 -75 1350 350 
L 1350 3200 
Q 900 2475 350 1900 
L 275 1950 
Q 700 2525 1112 3400 
Q 1525 4275 1800 5250 
L 2325 4925 
L 2125 4800 
Q 1725 3925 1500 3525 
L 1875 3325 
L 1675 3175 
z
" transform="scale(0.015625)"/>
       <path id="SimSun-7528" d="M 3400 3150 
L 3400 1825 
L 5075 1825 
L 5075 3150 
L 3400 3150 
z
M 4075 100 
Q 4725 50 4900 62 
Q 5075 75 5075 400 
L 5075 1675 
L 3400 1675 
Q 3400 75 3425 -225 
L 3050 -400 
Q 3075 1025 3075 1675 
L 1425 1675 
Q 1250 350 375 -600 
L 300 -550 
Q 775 225 950 1025 
Q 1125 1825 1125 3225 
Q 1125 4625 1100 5075 
L 1475 4825 
L 5050 4825 
L 5225 5100 
L 5625 4800 
L 5425 4600 
L 5425 225 
Q 5450 -400 4875 -575 
Q 4825 -150 4075 -25 
L 4075 100 
z
M 1475 4675 
L 1475 3300 
L 3075 3300 
L 3075 4675 
L 1475 4675 
z
M 3400 4675 
L 3400 3300 
L 5075 3300 
L 5075 4675 
L 3400 4675 
z
M 1475 3150 
Q 1450 2100 1425 1825 
L 3075 1825 
L 3075 3150 
L 1475 3150 
z
" transform="scale(0.015625)"/>
       <path id="SimSun-7387" d="M 875 3725 
L 925 3800 
Q 1375 3650 1550 3525 
Q 1725 3400 1725 3250 
Q 1725 3175 1662 3025 
Q 1600 2875 1550 2875 
Q 1500 2875 1425 3050 
Q 1275 3325 875 3725 
z
M 550 1850 
Q 875 1925 2000 2575 
L 2050 2500 
Q 1675 2225 1337 1937 
Q 1000 1650 875 1425 
L 550 1850 
z
M 5200 3450 
Q 4800 3150 4275 2800 
L 4225 2875 
Q 4775 3400 5050 3925 
L 5450 3525 
L 5200 3450 
z
M 4325 2500 
L 4350 2575 
Q 5225 2350 5375 2212 
Q 5525 2075 5525 1900 
Q 5525 1775 5487 1662 
Q 5450 1550 5400 1550 
Q 5325 1550 5200 1800 
Q 4975 2150 4325 2500 
z
M 3150 3900 
Q 2500 3300 2300 3150 
Q 2800 3150 3400 3175 
Q 3700 3500 3850 3825 
L 4250 3450 
Q 4050 3400 3450 2825 
Q 2850 2250 2475 1950 
Q 3150 1975 3850 2000 
Q 3750 2175 3550 2450 
L 3600 2500 
Q 4050 2250 4200 2100 
Q 4350 1950 4350 1850 
Q 4350 1775 4250 1625 
Q 4150 1475 4100 1475 
Q 4075 1475 4050 1550 
Q 4000 1700 3900 1900 
Q 3650 1875 3075 1800 
L 3500 1550 
L 3325 1425 
L 3325 975 
L 5325 975 
L 5650 1300 
L 6100 825 
L 3325 825 
Q 3325 -275 3350 -525 
L 2975 -650 
Q 3000 0 3000 825 
L 1125 825 
Q 800 825 525 750 
L 300 975 
L 3000 975 
L 3000 1775 
Q 2450 1700 2200 1525 
L 1950 1950 
Q 2275 1950 2675 2350 
Q 3075 2750 3325 3050 
Q 2400 2950 2150 2775 
L 1950 3175 
Q 2150 3150 2475 3575 
Q 2800 4000 2900 4225 
L 1450 4225 
Q 1125 4225 850 4150 
L 625 4375 
L 3100 4375 
Q 3050 4800 2675 5200 
L 2725 5250 
Q 3225 5050 3337 4912 
Q 3450 4775 3450 4700 
Q 3450 4550 3250 4375 
L 5025 4375 
L 5350 4675 
L 5775 4225 
L 3050 4225 
L 3375 3950 
L 3150 3900 
z
" transform="scale(0.015625)"/>
      </defs>
      <use xlink:href="#SimSun-43"/>
      <use xlink:href="#SimSun-50" x="50"/>
      <use xlink:href="#SimSun-55" x="100"/>
      <use xlink:href="#SimSun-4f7f" x="150"/>
      <use xlink:href="#SimSun-7528" x="250"/>
      <use xlink:href="#SimSun-7387" x="350"/>
     </g>
    </g>
   </g>
   <g id="line2d_11">
    <path d="M 105.770077 107.822005 
L 108.845518 134.206072 
L 111.920959 77.240482 
L 114.996399 38.863661 
L 118.07184 99.626958 
L 121.147281 100.026716 
L 124.222722 100.22659 
L 127.298163 80.438547 
L 130.373604 120.414401 
L 133.449045 130.408364 
L 136.524486 145.39931 
L 139.599927 112.818987 
L 142.675367 136.604621 
L 145.750808 138.603411 
L 151.90169 100.026716 
L 154.977131 100.22659 
L 158.052572 120.214527 
L 161.128013 110.420438 
L 164.203454 115.417419 
L 167.278895 147.797859 
L 170.354335 144.200035 
L 173.429776 162.189171 
L 176.505217 161.389655 
L 179.580658 170.783986 
L 182.656099 115.617303 
L 185.73154 98.027925 
L 188.806981 109.221163 
L 191.882422 124.81175 
L 194.957863 152.594966 
L 198.033303 166.586511 
L 201.108744 153.394482 
L 204.184185 156.992306 
L 207.259626 168.585302 
L 210.335067 184.575654 
L 213.410508 172.383018 
L 216.485949 166.386637 
L 219.56139 173.382419 
L 222.636831 176.980233 
L 225.712272 178.579265 
L 228.787712 169.584692 
L 231.863153 174.981442 
L 234.938594 167.585902 
L 238.014035 163.988078 
L 241.089476 152.195208 
L 244.164917 156.392673 
L 247.240358 168.385427 
L 250.315799 164.387846 
L 253.39124 162.389046 
L 256.46668 161.389655 
L 259.542121 160.790013 
L 262.617562 160.590139 
L 265.693003 160.590139 
L 268.768444 160.390255 
L 271.843885 170.384218 
L 274.919326 165.387236 
L 277.994767 162.988688 
L 281.070208 161.589529 
L 284.145648 170.98386 
L 287.221089 145.799068 
L 290.29653 93.030944 
L 293.371971 86.834687 
L 296.447412 103.624539 
L 299.522853 112.01947 
L 302.598294 86.235045 
L 305.673735 133.206681 
L 308.749176 156.792422 
L 311.824616 168.585302 
L 314.900057 104.62394 
L 317.975498 132.407155 
L 321.050939 116.41681 
L 324.12638 98.427683 
L 327.201821 99.427074 
L 333.352703 140.202454 
L 336.428144 150.196407 
L 339.503584 115.417419 
L 342.579025 137.803895 
L 345.654466 129.20909 
L 348.729907 154.793641 
L 351.805348 127.610057 
L 354.880789 134.006188 
L 357.95623 137.204263 
L 361.031671 158.791222 
L 364.107112 169.584692 
L 367.182552 174.981442 
L 370.257993 177.579875 
L 373.333434 168.985069 
L 376.408875 164.787594 
L 379.484316 182.576844 
L 382.559757 181.37757 
L 385.635198 150.995933 
L 388.710639 155.593157 
L 391.78608 157.991706 
L 394.86152 169.184944 
L 397.936961 174.781558 
L 401.012402 157.591948 
L 404.087843 148.997143 
L 407.163284 154.793641 
L 410.238725 157.591948 
L 413.314166 168.985069 
L 416.389607 144.599793 
L 419.465048 152.594966 
L 422.540488 156.392673 
L 425.615929 178.379391 
L 428.69137 179.378781 
L 431.766811 169.98446 
L 434.842252 175.181326 
L 437.917693 177.779749 
L 440.993134 168.985069 
L 444.068575 164.787594 
L 447.144016 172.582893 
L 450.219457 176.3806 
L 453.294897 168.385427 
L 456.370338 164.387846 
L 459.445779 162.389046 
L 462.52122 161.389655 
L 468.672102 160.590139 
L 471.747543 170.584102 
L 474.822984 95.429493 
L 477.898425 38.064145 
L 480.973865 79.239273 
L 484.049306 129.808723 
L 487.124747 144.999551 
L 490.200188 162.788804 
L 493.275629 151.595566 
L 496.35107 145.998952 
L 499.426511 143.200635 
L 502.501952 111.819596 
L 505.577393 66.047244 
L 508.652833 123.212708 
L 511.728274 131.807523 
L 514.803715 126.210899 
L 517.879156 143.200635 
L 520.954597 161.789413 
L 524.030038 151.195808 
L 527.105479 155.793031 
L 530.18092 138.003779 
L 533.256361 139.203053 
L 536.331801 139.802695 
L 539.407242 160.19038 
L 542.482683 160.19038 
L 545.558124 140.402328 
L 548.633565 150.396291 
L 551.709006 145.39931 
L 554.784447 112.818987 
L 557.859888 106.62273 
L 560.935329 133.60643 
L 564.010769 146.998342 
L 567.08621 163.58832 
L 570.161651 161.989297 
L 573.237092 161.189771 
L 576.312533 160.790013 
L 579.387974 160.590139 
L 582.463415 160.590139 
L 585.538856 160.390255 
L 588.614297 160.390255 
L 591.689737 170.384218 
L 594.765178 185.37517 
L 597.840619 172.982651 
L 600.91606 166.586511 
L 603.991501 153.594366 
L 607.066942 166.986279 
L 610.142383 163.58832 
L 613.217824 161.989297 
L 616.293265 161.189771 
L 619.368705 170.783986 
L 622.444146 175.581084 
L 625.519587 177.979642 
L 628.595028 159.19098 
L 631.670469 169.784586 
L 634.74591 165.187362 
L 637.821351 172.782767 
L 640.896792 166.586511 
L 643.972233 163.388446 
L 647.047673 171.983251 
L 650.123114 166.186753 
L 653.198555 163.188562 
L 656.273996 91.831669 
L 659.349437 106.222972 
L 662.424878 93.230818 
L 665.500319 116.816568 
L 668.57576 118.615485 
L 671.651201 149.596775 
L 674.726642 164.987488 
L 677.802082 82.637222 
L 680.877523 131.607639 
L 683.952964 136.004988 
L 687.028405 128.209699 
L 690.103846 144.200035 
L 693.179287 142.401119 
L 696.254728 61.450021 
L 699.330169 90.832269 
L 702.40561 115.617303 
L 705.48105 108.021879 
L 708.556491 144.200035 
L 711.631932 152.395082 
L 714.707373 116.41681 
L 717.782814 148.397501 
L 720.858255 144.399919 
L 723.933696 152.395082 
L 727.009137 156.392673 
L 730.084578 148.397501 
L 733.160018 134.405946 
L 736.235459 147.3981 
L 739.3109 163.788204 
L 742.386341 162.189171 
L 745.461782 161.189771 
L 748.537223 160.790013 
L 751.612664 150.596175 
L 754.688105 165.587111 
L 757.763546 162.988688 
L 760.838986 161.589529 
L 763.914427 160.989887 
L 766.989868 160.790013 
L 770.065309 170.584102 
L 773.14075 165.387236 
L 776.216191 162.988688 
L 779.291632 171.583502 
L 782.367073 165.986878 
L 785.442514 163.188562 
L 788.517954 161.789413 
L 791.593395 161.189771 
L 794.668836 170.783986 
L 797.744277 165.587111 
L 800.819718 162.988688 
L 803.895159 161.589529 
L 806.9706 170.98386 
L 810.046041 165.786995 
L 813.121482 152.994724 
L 816.196922 166.786385 
L 819.272363 163.58832 
L 822.347804 171.983251 
L 825.423245 156.192789 
L 828.498686 128.209699 
L 831.574127 154.393873 
L 834.649568 107.422247 
L 837.725009 143.800277 
L 840.80045 152.195208 
L 843.87589 166.186753 
L 846.951331 133.406555 
L 850.026772 106.822614 
L 853.102213 143.600393 
L 856.177654 151.995324 
L 859.253095 136.204863 
L 862.328536 138.403537 
L 865.403977 139.402937 
L 868.479418 119.814769 
L 871.554858 150.196407 
L 874.630299 155.193399 
L 877.70574 157.791832 
L 880.781181 139.203053 
L 883.856622 129.808723 
L 886.932063 115.017661 
L 890.007504 137.803895 
L 893.082945 129.009216 
L 896.158386 34.86608 
L 899.233827 97.628167 
L 902.309267 89.033353 
L 905.384708 124.611866 
L 908.460149 92.631185 
L 911.53559 56.453039 
L 914.611031 78.439757 
L 917.686472 129.408964 
L 920.761913 144.999551 
L 923.837354 122.613076 
L 926.912795 141.601612 
L 929.988235 121.014034 
L 933.063676 140.602212 
L 936.139117 150.596175 
L 939.214558 165.387236 
L 942.289999 162.988688 
L 945.36544 161.589529 
L 948.440881 160.989887 
L 951.516322 160.790013 
L 954.591763 170.584102 
L 957.667203 175.381209 
L 960.742644 167.985669 
L 963.818085 164.187972 
L 966.893526 172.183125 
L 969.968967 166.386637 
L 973.044408 163.388446 
L 976.119849 171.783376 
L 979.19529 156.192789 
L 982.270731 168.185544 
L 985.346171 164.387846 
L 988.421612 162.389046 
L 988.421612 162.389046 
" clip-path="url(#p3f2ca75873)" style="fill: none; stroke: #1f77b4; stroke-width: 1.5; stroke-linecap: square"/>
   </g>
   <g id="line2d_12">
    <path d="M 548.633565 151.489067 
L 551.709006 158.481198 
L 554.784447 149.014441 
L 557.859888 156.7571 
L 560.935329 160.269268 
L 564.010769 160.995244 
L 567.08621 155.268493 
L 570.161651 151.983639 
L 573.237092 150.470805 
L 576.312533 153.225069 
L 579.387974 156.772254 
L 582.463415 152.115777 
L 585.538856 160.603339 
L 588.614297 160.792977 
L 591.689737 160.313292 
L 594.765178 157.634904 
L 597.840619 157.254713 
L 600.91606 160.088513 
L 603.991501 155.122279 
L 607.066942 147.452608 
L 610.142383 152.393462 
L 613.217824 156.937712 
L 616.293265 153.82838 
L 619.368705 154.086136 
L 622.444146 152.853237 
L 625.519587 154.607434 
L 628.595028 156.095773 
L 631.670469 151.731649 
L 634.74591 144.209976 
L 637.821351 147.072303 
L 640.896792 147.680237 
L 643.972233 143.654577 
L 647.047673 143.229257 
L 650.123114 142.148833 
L 653.198555 137.308284 
L 656.273996 140.146249 
L 659.349437 143.657827 
L 662.424878 147.852404 
L 665.500319 137.214995 
L 668.57576 129.306916 
L 671.651201 125.437298 
L 674.726642 130.90816 
L 677.802082 121.278242 
L 680.877523 130.357135 
L 683.952964 126.33281 
L 687.028405 130.550233 
L 690.103846 133.659832 
L 693.179287 129.996702 
L 696.254728 127.391855 
L 699.330169 128.872046 
L 702.40561 137.34698 
L 705.48105 132.522185 
L 708.556491 138.540783 
L 711.631932 143.099502 
L 714.707373 142.800105 
L 717.782814 145.008673 
L 723.933696 154.320789 
L 727.009137 152.254309 
L 730.084578 157.402005 
L 733.160018 153.356644 
L 736.235459 156.567138 
L 739.3109 157.976847 
L 742.386341 162.252028 
L 745.461782 157.270439 
L 748.537223 159.982452 
L 751.612664 154.972051 
L 754.688105 161.218021 
L 757.763546 161.776775 
L 760.838986 163.325474 
L 763.914427 157.451404 
L 766.989868 153.650723 
L 770.065309 155.51466 
L 773.14075 152.740294 
L 776.216191 154.494673 
L 779.291632 160.011198 
L 782.367073 158.119469 
L 785.442514 154.967829 
L 788.517954 156.27041 
L 791.593395 154.612943 
L 794.668836 144.44603 
L 797.744277 149.789577 
L 800.819718 153.858803 
L 803.895159 155.116179 
L 806.9706 154.775208 
L 810.046041 149.368127 
L 813.121482 153.183733 
L 816.196922 153.167692 
L 819.272363 144.693664 
L 822.347804 144.066954 
L 825.423245 135.983343 
L 828.498686 133.804245 
L 831.574127 134.973526 
L 834.649568 134.534481 
L 837.725009 143.751583 
L 840.80045 144.907797 
L 843.87589 133.863042 
L 846.951331 137.052091 
L 850.026772 130.011037 
L 853.102213 130.47186 
L 856.177654 123.365852 
L 859.253095 121.702676 
L 862.328536 121.880619 
L 865.403977 129.061322 
L 868.479418 124.722064 
L 871.554858 124.456559 
L 874.630299 130.740615 
L 877.70574 134.785746 
L 880.781181 134.250782 
L 883.856622 136.749911 
L 886.932063 141.695359 
L 890.007504 145.260415 
L 893.082945 142.077456 
L 896.158386 144.976496 
L 899.233827 148.824298 
L 902.309267 148.455725 
L 905.384708 151.665895 
L 908.460149 147.138858 
L 911.53559 150.53898 
L 914.611031 153.739247 
L 917.686472 154.128511 
L 920.761913 157.220049 
L 923.837354 157.046127 
L 926.912795 157.163282 
L 929.988235 161.789156 
L 933.063676 159.475985 
L 936.139117 162.19428 
L 939.214558 158.076608 
L 942.289999 160.085158 
L 945.36544 163.451655 
L 948.440881 164.519431 
L 951.516322 173.09016 
L 954.591763 171.132096 
L 957.667203 172.63781 
L 960.742644 177.392743 
L 963.818085 176.901192 
L 966.893526 168.198115 
L 969.968967 169.240385 
L 973.044408 166.321159 
L 976.119849 167.064947 
L 979.19529 166.16242 
L 982.270731 163.433651 
L 985.346171 151.353622 
L 988.421612 155.199451 
L 988.421612 155.199451 
" clip-path="url(#p3f2ca75873)" style="fill: none; stroke: #ff7f0e; stroke-width: 1.5; stroke-linecap: square"/>
   </g>
   <g id="line2d_13">
    <path d="M 548.633565 192.900625 
L 548.633565 27.340625 
" clip-path="url(#p3f2ca75873)" style="fill: none; stroke-dasharray: 7.4,3.2; stroke-dashoffset: 0; stroke: #0000ff; stroke-width: 2"/>
   </g>
   <g id="patch_3">
    <path d="M 61.6375 192.900625 
L 61.6375 27.340625 
" style="fill: none; stroke: #000000; stroke-width: 0.8; stroke-linejoin: miter; stroke-linecap: square"/>
   </g>
   <g id="patch_4">
    <path d="M 1032.554189 192.900625 
L 1032.554189 27.340625 
" style="fill: none; stroke: #000000; stroke-width: 0.8; stroke-linejoin: miter; stroke-linecap: square"/>
   </g>
   <g id="patch_5">
    <path d="M 61.6375 192.900625 
L 1032.554189 192.900625 
" style="fill: none; stroke: #000000; stroke-width: 0.8; stroke-linejoin: miter; stroke-linecap: square"/>
   </g>
   <g id="patch_6">
    <path d="M 61.6375 27.340625 
L 1032.554189 27.340625 
" style="fill: none; stroke: #000000; stroke-width: 0.8; stroke-linejoin: miter; stroke-linecap: square"/>
   </g>
   <g id="text_12">
    <!-- API_ID: 4 -->
    <g transform="translate(502.095845 21.340625) scale(0.2 -0.2)">
     <defs>
      <path id="SimSun-41" d="M 2025 1700 
L 900 1700 
L 675 750 
Q 650 625 650 550 
Q 650 450 687 350 
Q 725 250 900 250 
L 975 250 
L 975 100 
L 50 100 
L 50 250 
L 125 250 
Q 225 250 300 312 
Q 375 375 400 525 
L 1375 4350 
L 1750 4475 
L 2700 525 
Q 2750 375 2825 312 
Q 2900 250 3000 250 
L 3075 250 
L 3075 100 
L 2000 100 
L 2000 250 
L 2100 250 
Q 2250 250 2275 312 
Q 2300 375 2300 425 
Q 2300 525 2275 600 
L 2025 1700 
z
M 325 250 
L 325 250 
z
M 575 250 
L 575 250 
z
M 2350 250 
L 2350 250 
z
M 2775 250 
L 2775 250 
z
M 1500 3925 
L 1475 3925 
L 950 1850 
L 2000 1850 
L 1500 3925 
z
" transform="scale(0.015625)"/>
      <path id="SimSun-49" d="M 600 4225 
L 600 4375 
L 2600 4375 
L 2600 4225 
L 2025 4225 
Q 1925 4225 1862 4175 
Q 1800 4125 1800 4025 
L 1800 450 
Q 1800 350 1862 300 
Q 1925 250 2025 250 
L 2600 250 
L 2600 100 
L 600 100 
L 600 250 
L 1175 250 
Q 1300 250 1350 300 
Q 1400 350 1400 450 
L 1400 4025 
Q 1400 4125 1350 4175 
Q 1300 4225 1175 4225 
L 600 4225 
z
" transform="scale(0.015625)"/>
      <path id="SimSun-5f" d="M 0 -875 
L 0 -725 
L 3175 -725 
L 3175 -875 
L 0 -875 
z
" transform="scale(0.015625)"/>
      <path id="SimSun-44" d="M 2500 2275 
Q 2500 3350 2175 3787 
Q 1850 4225 1275 4225 
Q 1100 4225 1012 4175 
Q 925 4125 925 4025 
L 925 450 
Q 925 350 1000 300 
Q 1075 250 1200 250 
Q 1750 250 2125 662 
Q 2500 1075 2500 2275 
z
M 525 4025 
Q 525 4125 475 4175 
Q 425 4225 300 4225 
L 150 4225 
L 150 4375 
L 1275 4375 
Q 2050 4375 2512 3875 
Q 2975 3375 2975 2325 
Q 2975 1175 2525 637 
Q 2075 100 1200 100 
L 125 100 
L 125 250 
L 300 250 
Q 425 250 475 300 
Q 525 350 525 450 
L 525 4025 
z
" transform="scale(0.015625)"/>
      <path id="SimSun-3a" d="M 1900 2725 
Q 1900 2575 1800 2475 
Q 1700 2375 1550 2375 
Q 1400 2375 1300 2475 
Q 1200 2575 1200 2725 
Q 1200 2875 1300 2975 
Q 1400 3075 1550 3075 
Q 1700 3075 1800 2975 
Q 1900 2875 1900 2725 
z
M 1900 375 
Q 1900 225 1800 125 
Q 1700 25 1550 25 
Q 1400 25 1300 125 
Q 1200 225 1200 375 
Q 1200 525 1300 625 
Q 1400 725 1550 725 
Q 1700 725 1800 625 
Q 1900 525 1900 375 
z
" transform="scale(0.015625)"/>
      <path id="SimSun-20" d="M 0 0 
Q 0 0 0 0 
z
" transform="scale(0.015625)"/>
      <path id="SimSun-34" d="M 2300 575 
Q 2300 400 2400 325 
Q 2500 250 2675 250 
L 2900 250 
L 2900 100 
L 1250 100 
L 1250 250 
L 1525 250 
Q 1725 250 1812 325 
Q 1900 400 1900 575 
L 1900 1400 
L 225 1400 
L 225 1525 
L 2050 4425 
L 2300 4425 
L 2300 1550 
L 2975 1550 
L 2975 1400 
L 2300 1400 
L 2300 575 
z
M 1875 3800 
L 450 1550 
L 1900 1550 
L 1900 3800 
L 1875 3800 
z
" transform="scale(0.015625)"/>
     </defs>
     <use xlink:href="#SimSun-41"/>
     <use xlink:href="#SimSun-50" x="50"/>
     <use xlink:href="#SimSun-49" x="100"/>
     <use xlink:href="#SimSun-5f" x="150"/>
     <use xlink:href="#SimSun-49" x="200"/>
     <use xlink:href="#SimSun-44" x="250"/>
     <use xlink:href="#SimSun-3a" x="300"/>
     <use xlink:href="#SimSun-20" x="350"/>
     <use xlink:href="#SimSun-34" x="400"/>
    </g>
   </g>
   <g id="legend_1">
    <g id="patch_7">
     <path d="M 75.6375 100.215625 
L 199.6375 100.215625 
Q 203.6375 100.215625 203.6375 96.215625 
L 203.6375 41.340625 
Q 203.6375 37.340625 199.6375 37.340625 
L 75.6375 37.340625 
Q 71.6375 37.340625 71.6375 41.340625 
L 71.6375 96.215625 
Q 71.6375 100.215625 75.6375 100.215625 
z
" style="fill: #ffffff; opacity: 0.8; stroke: #cccccc; stroke-linejoin: miter"/>
    </g>
    <g id="line2d_14">
     <path d="M 79.6375 54.278125 
L 99.6375 54.278125 
L 119.6375 54.278125 
" style="fill: none; stroke: #1f77b4; stroke-width: 1.5; stroke-linecap: square"/>
    </g>
    <g id="text_13">
     <!-- 真实值 -->
     <g transform="translate(135.6375 61.278125) scale(0.2 -0.2)">
      <defs>
       <path id="SimSun-771f" d="M 2050 3450 
L 2050 2900 
L 4300 2900 
L 4300 3450 
L 2050 3450 
z
M 2050 2750 
L 2050 2225 
L 4300 2225 
L 4300 2750 
L 2050 2750 
z
M 2050 2075 
L 2050 1550 
L 4300 1550 
L 4300 2075 
L 2050 2075 
z
M 2050 1400 
L 2050 875 
L 4300 875 
L 4300 1400 
L 2050 1400 
z
M 2875 3600 
L 2925 4325 
L 1525 4325 
Q 1200 4325 925 4250 
L 700 4475 
L 2950 4475 
Q 2975 4825 2975 5275 
L 3550 5025 
L 3375 4925 
L 3300 4475 
L 5000 4475 
L 5325 4825 
L 5775 4325 
L 3275 4325 
L 3200 3600 
L 4275 3600 
L 4450 3875 
L 4850 3575 
L 4650 3375 
L 4650 875 
L 5300 875 
L 5675 1225 
L 6125 725 
L 1150 725 
Q 825 725 550 650 
L 325 875 
L 1700 875 
Q 1700 3200 1675 3775 
L 2050 3600 
L 2875 3600 
z
M 2425 725 
L 2825 350 
L 2575 300 
Q 1500 -425 800 -650 
L 775 -575 
Q 1950 125 2425 725 
z
M 3800 700 
Q 4575 375 4962 200 
Q 5350 25 5400 -112 
Q 5450 -250 5450 -325 
Q 5450 -400 5400 -525 
Q 5350 -650 5325 -650 
Q 5250 -650 5100 -450 
Q 4875 -150 3750 625 
L 3800 700 
z
" transform="scale(0.015625)"/>
       <path id="SimSun-5b9e" d="M 1950 3625 
Q 2575 3400 2700 3250 
Q 2825 3100 2825 2975 
Q 2825 2850 2750 2700 
Q 2675 2550 2625 2550 
Q 2550 2550 2450 2800 
Q 2275 3175 1900 3550 
L 1950 3625 
z
M 3575 1325 
Q 3500 1100 3425 925 
Q 4650 550 5087 325 
Q 5525 100 5512 -225 
Q 5500 -550 5400 -550 
Q 5300 -550 5075 -300 
Q 4625 175 3375 800 
Q 3025 175 2300 -150 
Q 1575 -475 425 -625 
L 425 -525 
Q 1475 -325 2200 100 
Q 2925 525 3200 1325 
L 1225 1325 
Q 900 1325 625 1250 
L 400 1475 
L 3225 1475 
Q 3325 1950 3375 2575 
Q 3425 3200 3425 3700 
L 4050 3400 
L 3850 3225 
Q 3750 2300 3625 1475 
L 5175 1475 
L 5550 1850 
L 6075 1325 
L 3575 1325 
z
M 1275 2700 
Q 1975 2425 2100 2262 
Q 2225 2100 2225 1975 
Q 2225 1850 2150 1700 
Q 2075 1550 2025 1550 
Q 1950 1550 1850 1800 
Q 1675 2175 1225 2625 
L 1275 2700 
z
M 2750 5225 
L 2825 5275 
Q 3225 5100 3425 4925 
Q 3625 4750 3625 4600 
Q 3625 4450 3512 4300 
Q 3400 4150 3325 4150 
Q 3250 4150 3200 4400 
Q 3100 4775 2750 5225 
z
M 4975 3225 
L 5350 3925 
L 1175 3925 
Q 1225 3525 1125 3300 
Q 1025 3075 787 3100 
Q 550 3125 550 3200 
Q 550 3300 700 3475 
Q 975 3825 1050 4375 
L 1150 4375 
L 1175 4075 
L 5300 4075 
L 5575 4350 
L 6050 3800 
Q 5625 3825 5050 3175 
L 4975 3225 
z
" transform="scale(0.015625)"/>
       <path id="SimSun-503c" d="M 1525 650 
Q 1525 -225 1550 -525 
L 1175 -650 
Q 1200 250 1200 550 
L 1200 3025 
Q 750 2300 325 1850 
L 250 1900 
Q 725 2625 1100 3525 
Q 1475 4425 1675 5200 
L 2200 4875 
L 1950 4725 
Q 1550 3800 1425 3475 
L 1725 3300 
L 1525 3150 
L 1525 650 
z
M 2875 3225 
L 2875 2475 
L 4800 2475 
L 4800 3225 
L 2875 3225 
z
M 2875 2325 
L 2875 1575 
L 4800 1575 
L 4800 2325 
L 2875 2325 
z
M 2875 1425 
L 2875 675 
L 4800 675 
L 4800 1425 
L 2875 1425 
z
M 2875 525 
L 2875 -225 
L 4800 -225 
L 4800 525 
L 2875 525 
z
M 3550 4250 
Q 3575 4825 3550 5225 
L 4125 4950 
L 3925 4800 
L 3900 4250 
L 5025 4250 
L 5350 4575 
L 5825 4100 
L 3900 4100 
L 3875 3375 
L 4750 3375 
L 4975 3625 
L 5350 3300 
L 5125 3150 
L 5125 -225 
L 5350 -225 
L 5675 100 
L 6150 -375 
L 2450 -375 
Q 2125 -375 1850 -450 
L 1625 -225 
L 2550 -225 
L 2550 2550 
Q 2550 2850 2525 3575 
L 2875 3375 
L 3525 3375 
L 3550 4100 
L 2800 4100 
Q 2475 4100 2200 4025 
L 1975 4250 
L 3550 4250 
z
" transform="scale(0.015625)"/>
      </defs>
      <use xlink:href="#SimSun-771f"/>
      <use xlink:href="#SimSun-5b9e" x="100"/>
      <use xlink:href="#SimSun-503c" x="200"/>
     </g>
    </g>
    <g id="line2d_15">
     <path d="M 79.6375 82.6375 
L 99.6375 82.6375 
L 119.6375 82.6375 
" style="fill: none; stroke: #ff7f0e; stroke-width: 1.5; stroke-linecap: square"/>
    </g>
    <g id="text_14">
     <!-- 预测值 -->
     <g transform="translate(135.6375 89.6375) scale(0.2 -0.2)">
      <defs>
       <path id="SimSun-9884" d="M 475 4825 
L 2225 4825 
L 2425 5075 
L 2825 4675 
Q 2600 4625 2387 4412 
Q 2175 4200 1800 3750 
Q 2050 3575 2037 3400 
Q 2025 3225 1937 3150 
Q 1850 3075 1825 3075 
Q 1725 3075 1650 3300 
Q 1525 3600 1050 4100 
L 1100 4150 
Q 1475 3975 1700 3825 
L 2225 4675 
L 1300 4675 
Q 975 4675 700 4600 
L 475 4825 
z
M 725 100 
Q 1175 50 1362 37 
Q 1550 25 1550 275 
L 1550 2875 
L 1125 2875 
Q 800 2875 525 2800 
L 300 3025 
L 2525 3025 
L 2725 3275 
L 3150 2875 
Q 2800 2825 2275 2075 
L 2200 2125 
L 2550 2875 
L 1875 2875 
L 1875 150 
Q 1875 -400 1350 -500 
Q 1325 -175 725 0 
L 725 100 
z
M 3250 775 
Q 3275 1425 3275 2287 
Q 3275 3150 3250 3900 
L 3600 3700 
L 4050 3700 
Q 4175 4400 4200 4675 
L 3650 4675 
Q 3325 4675 3050 4600 
L 2825 4825 
L 5325 4825 
L 5675 5150 
L 6125 4675 
L 4675 4675 
Q 4500 4425 4175 3700 
L 5300 3700 
L 5475 3975 
L 5875 3675 
L 5675 3475 
L 5675 1950 
Q 5675 1525 5700 1075 
L 5350 875 
L 5350 3550 
L 3600 3550 
L 3600 1000 
L 3250 775 
z
M 4850 2875 
L 4625 2675 
Q 4625 1475 4475 937 
Q 4325 400 3900 50 
Q 3475 -300 2425 -625 
L 2400 -550 
Q 3500 -50 3837 400 
Q 4175 850 4237 1587 
Q 4300 2325 4275 3175 
L 4850 2875 
z
M 4650 950 
Q 5725 375 5875 212 
Q 6025 50 6025 -125 
Q 6025 -225 5962 -387 
Q 5900 -550 5850 -550 
Q 5800 -550 5750 -450 
Q 5625 -250 5437 0 
Q 5250 250 4600 875 
L 4650 950 
z
" transform="scale(0.015625)"/>
       <path id="SimSun-6d4b" d="M 1975 1000 
Q 2000 1475 2000 2925 
Q 2000 4375 1975 5000 
L 2350 4775 
L 3575 4775 
L 3775 4975 
L 4100 4650 
L 3900 4500 
L 3900 2350 
Q 3900 1850 3925 1350 
L 3600 1200 
L 3600 4625 
L 2325 4625 
L 2325 1150 
L 1975 1000 
z
M 2775 3975 
L 3300 3700 
L 3125 3525 
Q 3150 1825 2875 937 
Q 2600 50 1375 -600 
L 1325 -500 
Q 2200 100 2475 725 
Q 2750 1350 2775 2187 
Q 2800 3025 2775 3975 
z
M 3100 950 
Q 3825 450 3937 262 
Q 4050 75 4050 -25 
Q 4050 -150 3975 -262 
Q 3900 -375 3850 -375 
Q 3750 -375 3650 -75 
Q 3500 375 3050 875 
L 3100 950 
z
M 4475 825 
Q 4500 1200 4500 1700 
L 4500 3400 
Q 4500 3950 4475 4300 
L 5025 4025 
L 4825 3825 
L 4825 1700 
Q 4825 1325 4850 950 
L 4475 825 
z
M 5375 150 
L 5375 4050 
Q 5375 4750 5350 5125 
L 5875 4875 
L 5700 4700 
L 5700 75 
Q 5700 -200 5600 -350 
Q 5500 -500 5200 -600 
Q 5025 -225 4450 -50 
L 4450 50 
Q 5125 -50 5250 -37 
Q 5375 -25 5375 150 
z
M 1850 3500 
Q 1375 1525 1300 1225 
Q 1200 900 1212 450 
Q 1225 0 1250 -175 
Q 1250 -275 1125 -275 
Q 1025 -275 875 -225 
Q 725 -175 725 0 
Q 725 125 800 375 
Q 875 625 875 775 
Q 875 950 762 1050 
Q 650 1150 275 1250 
L 275 1350 
Q 725 1300 837 1312 
Q 950 1325 1087 1537 
Q 1225 1750 1750 3525 
L 1850 3500 
z
M 375 3775 
Q 1075 3350 1112 3100 
Q 1150 2850 1050 2775 
Q 950 2700 900 2700 
Q 800 2700 725 2975 
Q 600 3350 325 3700 
L 375 3775 
z
M 800 5100 
Q 1475 4725 1550 4512 
Q 1625 4300 1525 4187 
Q 1425 4075 1350 4075 
Q 1275 4075 1200 4300 
Q 1075 4650 750 5025 
L 800 5100 
z
" transform="scale(0.015625)"/>
      </defs>
      <use xlink:href="#SimSun-9884"/>
      <use xlink:href="#SimSun-6d4b" x="100"/>
      <use xlink:href="#SimSun-503c" x="200"/>
     </g>
    </g>
   </g>
  </g>
  <g id="axes_2">
   <g id="patch_8">
    <path d="M 61.6375 425.700625 
L 1032.554189 425.700625 
L 1032.554189 260.140625 
L 61.6375 260.140625 
z
" style="fill: #ffffff"/>
   </g>
   <g id="matplotlib.axis_3">
    <g id="xtick_8">
     <g id="line2d_16">
      <g>
       <use xlink:href="#m2482c151f0" x="105.770077" y="425.700625" style="stroke: #000000; stroke-width: 0.8"/>
      </g>
     </g>
     <g id="text_15">
      <!-- 0 -->
      <g transform="translate(100.770077 446.588125) scale(0.2 -0.2)">
       <use xlink:href="#TimesNewRomanPSMT-30"/>
      </g>
     </g>
    </g>
    <g id="xtick_9">
     <g id="line2d_17">
      <g>
       <use xlink:href="#m2482c151f0" x="259.542121" y="425.700625" style="stroke: #000000; stroke-width: 0.8"/>
      </g>
     </g>
     <g id="text_16">
      <!-- 50 -->
      <g transform="translate(249.542121 446.588125) scale(0.2 -0.2)">
       <use xlink:href="#TimesNewRomanPSMT-35"/>
       <use xlink:href="#TimesNewRomanPSMT-30" x="50"/>
      </g>
     </g>
    </g>
    <g id="xtick_10">
     <g id="line2d_18">
      <g>
       <use xlink:href="#m2482c151f0" x="413.314166" y="425.700625" style="stroke: #000000; stroke-width: 0.8"/>
      </g>
     </g>
     <g id="text_17">
      <!-- 100 -->
      <g transform="translate(398.314166 446.588125) scale(0.2 -0.2)">
       <use xlink:href="#TimesNewRomanPSMT-31"/>
       <use xlink:href="#TimesNewRomanPSMT-30" x="50"/>
       <use xlink:href="#TimesNewRomanPSMT-30" x="100"/>
      </g>
     </g>
    </g>
    <g id="xtick_11">
     <g id="line2d_19">
      <g>
       <use xlink:href="#m2482c151f0" x="567.08621" y="425.700625" style="stroke: #000000; stroke-width: 0.8"/>
      </g>
     </g>
     <g id="text_18">
      <!-- 150 -->
      <g transform="translate(552.08621 446.588125) scale(0.2 -0.2)">
       <use xlink:href="#TimesNewRomanPSMT-31"/>
       <use xlink:href="#TimesNewRomanPSMT-35" x="50"/>
       <use xlink:href="#TimesNewRomanPSMT-30" x="100"/>
      </g>
     </g>
    </g>
    <g id="xtick_12">
     <g id="line2d_20">
      <g>
       <use xlink:href="#m2482c151f0" x="720.858255" y="425.700625" style="stroke: #000000; stroke-width: 0.8"/>
      </g>
     </g>
     <g id="text_19">
      <!-- 200 -->
      <g transform="translate(705.858255 446.588125) scale(0.2 -0.2)">
       <use xlink:href="#TimesNewRomanPSMT-32"/>
       <use xlink:href="#TimesNewRomanPSMT-30" x="50"/>
       <use xlink:href="#TimesNewRomanPSMT-30" x="100"/>
      </g>
     </g>
    </g>
    <g id="xtick_13">
     <g id="line2d_21">
      <g>
       <use xlink:href="#m2482c151f0" x="874.630299" y="425.700625" style="stroke: #000000; stroke-width: 0.8"/>
      </g>
     </g>
     <g id="text_20">
      <!-- 250 -->
      <g transform="translate(859.630299 446.588125) scale(0.2 -0.2)">
       <use xlink:href="#TimesNewRomanPSMT-32"/>
       <use xlink:href="#TimesNewRomanPSMT-35" x="50"/>
       <use xlink:href="#TimesNewRomanPSMT-30" x="100"/>
      </g>
     </g>
    </g>
    <g id="xtick_14">
     <g id="line2d_22">
      <g>
       <use xlink:href="#m2482c151f0" x="1028.402344" y="425.700625" style="stroke: #000000; stroke-width: 0.8"/>
      </g>
     </g>
     <g id="text_21">
      <!-- 300 -->
      <g transform="translate(1013.402344 446.588125) scale(0.2 -0.2)">
       <use xlink:href="#TimesNewRomanPSMT-33"/>
       <use xlink:href="#TimesNewRomanPSMT-30" x="50"/>
       <use xlink:href="#TimesNewRomanPSMT-30" x="100"/>
      </g>
     </g>
    </g>
   </g>
   <g id="matplotlib.axis_4">
    <g id="ytick_4">
     <g id="line2d_23">
      <g>
       <use xlink:href="#m502100655c" x="61.6375" y="361.990228" style="stroke: #000000; stroke-width: 0.8"/>
      </g>
     </g>
     <g id="text_22">
      <!-- 20 -->
      <g transform="translate(34.6375 368.933978) scale(0.2 -0.2)">
       <use xlink:href="#TimesNewRomanPSMT-32"/>
       <use xlink:href="#TimesNewRomanPSMT-30" x="50"/>
      </g>
     </g>
    </g>
    <g id="ytick_5">
     <g id="line2d_24">
      <g>
       <use xlink:href="#m502100655c" x="61.6375" y="297.998267" style="stroke: #000000; stroke-width: 0.8"/>
      </g>
     </g>
     <g id="text_23">
      <!-- 40 -->
      <g transform="translate(34.6375 304.942017) scale(0.2 -0.2)">
       <defs>
        <path id="TimesNewRomanPSMT-34" d="M 2978 1563 
L 2978 1119 
L 2409 1119 
L 2409 0 
L 1894 0 
L 1894 1119 
L 100 1119 
L 100 1519 
L 2066 4325 
L 2409 4325 
L 2409 1563 
L 2978 1563 
z
M 1894 1563 
L 1894 3666 
L 406 1563 
L 1894 1563 
z
" transform="scale(0.015625)"/>
       </defs>
       <use xlink:href="#TimesNewRomanPSMT-34"/>
       <use xlink:href="#TimesNewRomanPSMT-30" x="50"/>
      </g>
     </g>
    </g>
    <g id="text_24">
     <!-- CPU使用率 -->
     <g transform="translate(28.059375 387.920625) rotate(-90) scale(0.2 -0.2)">
      <use xlink:href="#SimSun-43"/>
      <use xlink:href="#SimSun-50" x="50"/>
      <use xlink:href="#SimSun-55" x="100"/>
      <use xlink:href="#SimSun-4f7f" x="150"/>
      <use xlink:href="#SimSun-7528" x="250"/>
      <use xlink:href="#SimSun-7387" x="350"/>
     </g>
    </g>
   </g>
   <g id="line2d_25">
    <path d="M 105.770077 310.316715 
L 108.845518 308.940899 
L 111.920959 306.669175 
L 114.996399 332.745898 
L 118.07184 348.967865 
L 121.147281 363.46204 
L 124.222722 386.723119 
L 127.298163 385.571265 
L 130.373604 383.363544 
L 133.449045 380.675881 
L 136.524486 353.735265 
L 139.599927 346.66415 
L 142.675367 351.143586 
L 145.750808 364.549904 
L 148.826249 361.670267 
L 151.90169 357.030847 
L 154.977131 369.12533 
L 158.052572 368.741375 
L 161.128013 371.780996 
L 164.203454 346.088228 
L 167.278895 352.42343 
L 170.354335 339.625038 
L 173.429776 357.190831 
L 176.505217 346.792137 
L 179.580658 348.007982 
L 185.73154 368.10146 
L 188.806981 376.228438 
L 191.882422 385.12332 
L 194.957863 384.739369 
L 198.033303 379.779991 
L 201.108744 370.885106 
L 204.184185 356.838873 
L 207.259626 356.198951 
L 210.335067 357.510792 
L 213.410508 375.7485 
L 216.485949 392.866348 
L 219.56139 398.209676 
L 222.636831 397.697741 
L 225.712272 403.84097 
L 228.787712 411.711981 
L 231.863153 402.849095 
L 234.938594 409.632242 
L 238.014035 404.992825 
L 241.089476 397.889718 
L 244.164917 389.538766 
L 247.240358 388.578889 
L 250.315799 384.867352 
L 253.39124 381.443784 
L 256.46668 373.316808 
L 259.542121 375.65251 
L 262.617562 360.806374 
L 265.693003 364.613897 
L 271.843885 333.033862 
L 274.919326 336.32945 
L 277.994767 337.961246 
L 281.070208 359.558533 
L 284.145648 346.376186 
L 287.221089 330.186228 
L 290.29653 350.887619 
L 293.371971 351.655528 
L 296.447412 364.805871 
L 299.522853 350.599654 
L 302.598294 346.696147 
L 305.673735 363.941985 
L 308.749176 366.1817 
L 311.824616 351.271573 
L 314.900057 363.046095 
L 317.975498 348.103972 
L 321.050939 356.646899 
L 324.12638 352.935366 
L 327.201821 349.447803 
L 330.277262 350.919615 
L 333.352703 338.857136 
L 336.428144 315.244099 
L 339.503584 301.805785 
L 342.579025 299.918021 
L 345.654466 313.356335 
L 348.729907 280.080523 
L 351.805348 284.239998 
L 354.880789 311.916514 
L 357.95623 319.339593 
L 361.031671 356.678896 
L 364.107112 354.535165 
L 367.182552 372.644889 
L 370.257993 359.334562 
L 373.333434 367.045592 
L 376.408875 369.317304 
L 379.484316 364.069965 
L 382.559757 371.013093 
L 385.635198 376.100455 
L 388.710639 385.05933 
L 391.78608 400.705364 
L 394.86152 408.54438 
L 397.936961 399.681492 
L 401.012402 387.235057 
L 404.087843 363.398053 
L 407.163284 370.693132 
L 410.238725 382.33967 
L 413.314166 368.965346 
L 416.389607 357.478795 
L 419.465048 351.751512 
L 422.540488 347.272076 
L 425.615929 349.831758 
L 428.69137 360.710384 
L 431.766811 350.151713 
L 434.842252 349.671774 
L 437.917693 349.415807 
L 440.993134 346.120218 
L 444.068575 350.855622 
L 447.144016 366.021722 
L 450.219457 365.605771 
L 453.294897 374.980594 
L 456.370338 363.686011 
L 459.445779 364.45392 
L 462.52122 364.805871 
L 465.596661 345.800264 
L 468.672102 344.296449 
L 474.822984 375.172571 
L 477.898425 373.380795 
L 480.973865 375.684507 
L 484.049306 372.036964 
L 487.124747 370.213194 
L 490.200188 337.289333 
L 493.275629 301.645807 
L 496.35107 299.822037 
L 499.426511 286.127762 
L 502.501952 285.647817 
L 505.577393 274.225253 
L 508.652833 279.728566 
L 511.728274 311.244601 
L 514.803715 307.821032 
L 517.879156 309.324835 
L 520.954597 342.056734 
L 524.030038 342.408691 
L 527.105479 336.201469 
L 530.18092 336.297453 
L 536.331801 287.567583 
L 539.407242 310.380708 
L 542.482683 318.603674 
L 545.558124 314.700161 
L 548.633565 355.942983 
L 551.709006 382.947595 
L 554.784447 394.882095 
L 557.859888 400.833347 
L 560.935329 408.608372 
L 564.010769 409.280287 
L 567.08621 409.632242 
L 570.161651 414.623615 
L 573.237092 412.28791 
L 576.312533 411.136054 
L 579.387974 415.359522 
L 582.463415 411.072062 
L 585.538856 410.528129 
L 588.614297 407.072564 
L 591.689737 411.711981 
L 594.765178 402.849095 
L 597.840619 408.032443 
L 600.91606 413.79172 
L 603.991501 408.704359 
L 607.066942 404.544882 
L 610.142383 412.063937 
L 613.217824 407.808472 
L 616.293265 405.696736 
L 619.368705 396.641874 
L 622.444146 388.930843 
L 625.519587 385.05933 
L 628.595028 384.707375 
L 631.670469 368.549401 
L 634.74591 370.085207 
L 637.821351 348.423933 
L 640.896792 368.005469 
L 643.972233 344.200465 
L 647.047673 348.295946 
L 650.123114 348.743888 
L 653.198555 336.169473 
L 656.273996 344.296449 
L 659.349437 351.527541 
L 662.424878 364.773875 
L 665.500319 363.366056 
L 668.57576 378.69213 
L 671.651201 373.540779 
L 674.726642 367.749502 
L 677.802082 347.272076 
L 680.877523 325.834773 
L 683.952964 324.714912 
L 687.028405 296.974385 
L 690.103846 299.086131 
L 693.179287 311.340585 
L 696.254728 306.253224 
L 699.330169 318.123742 
L 702.40561 308.077006 
L 705.48105 285.423846 
L 708.556491 269.329872 
L 711.631932 267.66608 
L 714.707373 306.829153 
L 717.782814 297.614319 
L 720.858255 301.005885 
L 723.933696 302.70168 
L 727.009137 309.932767 
L 730.084578 319.979502 
L 733.160018 332.969875 
L 736.235459 315.50006 
L 739.3109 317.931762 
L 742.386341 330.378196 
L 745.461782 323.787032 
L 748.537223 330.090232 
L 751.612664 355.623022 
L 754.688105 365.221823 
L 757.763546 377.988218 
L 760.838986 398.785605 
L 763.914427 401.185304 
L 766.989868 404.00095 
L 770.065309 410.176174 
L 773.14075 414.879584 
L 776.216191 410.84809 
L 779.291632 411.999945 
L 782.367073 414.207668 
L 785.442514 415.295532 
L 788.517954 414.239663 
L 791.593395 415.295532 
L 794.668836 415.839462 
L 797.744277 412.927829 
L 800.819718 414.655611 
L 803.895159 413.919704 
L 806.9706 410.336154 
L 810.046041 400.57738 
L 813.121482 405.280788 
L 816.196922 409.216295 
L 819.272363 406.400649 
L 822.347804 409.792221 
L 825.423245 411.488009 
L 828.498686 399.553508 
L 831.574127 401.569255 
L 834.649568 397.761735 
L 837.725009 400.673368 
L 840.80045 397.345787 
L 843.87589 390.8506 
L 846.951331 381.219813 
L 850.026772 365.221823 
L 853.102213 361.990228 
L 856.177654 339.593042 
L 859.253095 350.791635 
L 862.328536 361.190328 
L 865.403977 348.807881 
L 868.479418 352.19946 
L 871.554858 368.293434 
L 874.630299 358.726636 
L 877.70574 379.55602 
L 880.781181 372.388921 
L 883.856622 384.771365 
L 886.932063 370.181197 
L 890.007504 354.887122 
L 893.082945 321.643295 
L 896.158386 309.83677 
L 899.233827 313.516313 
L 902.309267 300.941892 
L 905.384708 296.270481 
L 908.460149 281.136384 
L 911.53559 303.981512 
L 914.611031 276.976909 
L 917.686472 290.703188 
L 920.761913 316.747914 
L 923.837354 326.570679 
L 926.912795 349.063849 
L 929.988235 336.32945 
L 933.063676 339.561045 
L 936.139117 328.394449 
L 939.214558 329.194348 
L 942.289999 321.579301 
L 945.36544 341.800766 
L 948.440881 348.679901 
L 951.516322 360.134461 
L 954.591763 369.061337 
L 957.667203 363.941985 
L 960.742644 383.747495 
L 963.818085 400.065443 
L 966.893526 403.425022 
L 969.968967 409.920206 
L 973.044408 409.952203 
L 976.119849 411.552002 
L 979.19529 413.983696 
L 982.270731 416.767346 
L 985.346171 418.17517 
L 988.421612 417.279282 
L 988.421612 417.279282 
" clip-path="url(#p5a26b5b817)" style="fill: none; stroke: #1f77b4; stroke-width: 1.5; stroke-linecap: square"/>
   </g>
   <g id="line2d_26">
    <path d="M 548.633565 333.196689 
L 551.709006 344.312261 
L 554.784447 357.613202 
L 557.859888 364.683139 
L 560.935329 373.877931 
L 564.010769 377.723209 
L 567.08621 385.157926 
L 570.161651 386.324445 
L 573.237092 389.769239 
L 576.312533 390.512105 
L 579.387974 390.455359 
L 582.463415 389.261982 
L 585.538856 387.218165 
L 588.614297 386.229468 
L 591.689737 386.142671 
L 594.765178 383.984922 
L 597.840619 385.161099 
L 600.91606 381.714007 
L 603.991501 384.039179 
L 607.066942 383.303816 
L 610.142383 385.247142 
L 613.217824 379.549695 
L 616.293265 379.138897 
L 619.368705 374.413557 
L 622.444146 374.790869 
L 625.519587 369.615552 
L 628.595028 365.035927 
L 631.670469 365.751608 
L 634.74591 367.561861 
L 637.821351 363.798289 
L 640.896792 361.00002 
L 643.972233 361.892956 
L 647.047673 362.277387 
L 650.123114 365.156926 
L 653.198555 366.944671 
L 656.273996 361.978065 
L 659.349437 360.30131 
L 662.424878 356.562589 
L 665.500319 353.173617 
L 668.57576 350.484563 
L 671.651201 346.64586 
L 674.726642 339.300494 
L 677.802082 343.16329 
L 680.877523 330.834627 
L 683.952964 328.259242 
L 687.028405 322.912813 
L 690.103846 319.192358 
L 693.179287 313.390914 
L 696.254728 313.833766 
L 699.330169 315.863137 
L 702.40561 316.024262 
L 705.48105 321.29971 
L 708.556491 320.851903 
L 711.631932 323.74961 
L 714.707373 325.68268 
L 717.782814 329.418551 
L 720.858255 330.359192 
L 723.933696 328.718212 
L 727.009137 333.364216 
L 730.084578 333.741903 
L 733.160018 339.803757 
L 736.235459 342.403901 
L 739.3109 351.63725 
L 742.386341 355.027492 
L 745.461782 361.779475 
L 748.537223 369.486118 
L 751.612664 380.861801 
L 757.763546 387.389979 
L 760.838986 391.692142 
L 763.914427 394.569707 
L 766.989868 394.512945 
L 770.065309 393.214738 
L 773.14075 393.208639 
L 776.216191 391.02307 
L 779.291632 382.528361 
L 782.367073 381.58563 
L 785.442514 377.464977 
L 788.517954 375.880936 
L 791.593395 375.942787 
L 794.668836 378.213254 
L 797.744277 373.426981 
L 800.819718 370.450719 
L 803.895159 367.226838 
L 806.9706 363.075248 
L 810.046041 360.911073 
L 813.121482 356.862839 
L 816.196922 355.650003 
L 819.272363 357.743422 
L 822.347804 357.707892 
L 825.423245 361.358636 
L 828.498686 361.87939 
L 831.574127 362.959167 
L 834.649568 362.491758 
L 837.725009 359.50907 
L 840.80045 355.388903 
L 843.87589 354.452576 
L 850.026772 349.07971 
L 853.102213 348.078163 
L 856.177654 345.822685 
L 859.253095 346.55496 
L 862.328536 345.365241 
L 865.403977 341.668501 
L 868.479418 339.625099 
L 871.554858 337.162597 
L 874.630299 333.539298 
L 877.70574 325.747857 
L 880.781181 321.567242 
L 883.856622 320.358507 
L 886.932063 318.565398 
L 890.007504 318.086503 
L 893.082945 318.172308 
L 896.158386 316.354201 
L 899.233827 319.160172 
L 902.309267 324.063023 
L 905.384708 326.59036 
L 908.460149 332.537641 
L 911.53559 334.310191 
L 914.611031 337.720261 
L 917.686472 343.038599 
L 920.761913 344.995049 
L 923.837354 348.618812 
L 926.912795 354.806841 
L 929.988235 355.434563 
L 933.063676 359.438266 
L 936.139117 359.957158 
L 939.214558 368.693243 
L 942.289999 372.639397 
L 945.36544 374.863635 
L 948.440881 377.498835 
L 951.516322 378.220147 
L 954.591763 382.984609 
L 957.667203 381.808105 
L 960.742644 382.65611 
L 963.818085 380.186703 
L 966.893526 380.513041 
L 969.968967 376.959688 
L 973.044408 376.517999 
L 976.119849 375.736273 
L 979.19529 376.829434 
L 982.270731 373.971547 
L 985.346171 374.153074 
L 988.421612 371.895093 
L 988.421612 371.895093 
" clip-path="url(#p5a26b5b817)" style="fill: none; stroke: #ff7f0e; stroke-width: 1.5; stroke-linecap: square"/>
   </g>
   <g id="line2d_27">
    <path d="M 548.633565 425.700625 
L 548.633565 260.140625 
" clip-path="url(#p5a26b5b817)" style="fill: none; stroke-dasharray: 7.4,3.2; stroke-dashoffset: 0; stroke: #0000ff; stroke-width: 2"/>
   </g>
   <g id="patch_9">
    <path d="M 61.6375 425.700625 
L 61.6375 260.140625 
" style="fill: none; stroke: #000000; stroke-width: 0.8; stroke-linejoin: miter; stroke-linecap: square"/>
   </g>
   <g id="patch_10">
    <path d="M 1032.554189 425.700625 
L 1032.554189 260.140625 
" style="fill: none; stroke: #000000; stroke-width: 0.8; stroke-linejoin: miter; stroke-linecap: square"/>
   </g>
   <g id="patch_11">
    <path d="M 61.6375 425.700625 
L 1032.554189 425.700625 
" style="fill: none; stroke: #000000; stroke-width: 0.8; stroke-linejoin: miter; stroke-linecap: square"/>
   </g>
   <g id="patch_12">
    <path d="M 61.6375 260.140625 
L 1032.554189 260.140625 
" style="fill: none; stroke: #000000; stroke-width: 0.8; stroke-linejoin: miter; stroke-linecap: square"/>
   </g>
   <g id="text_25">
    <!-- API_ID: 5 -->
    <g transform="translate(502.095845 254.140625) scale(0.2 -0.2)">
     <defs>
      <path id="SimSun-35" d="M 1725 2850 
Q 2200 2850 2500 2487 
Q 2800 2125 2800 1525 
Q 2800 850 2487 450 
Q 2175 50 1525 50 
Q 1075 50 725 312 
Q 375 575 375 950 
Q 375 1100 462 1212 
Q 550 1325 700 1325 
Q 850 1325 900 1225 
Q 950 1125 950 1050 
Q 950 900 875 825 
Q 800 725 800 625 
Q 800 425 1037 325 
Q 1275 225 1550 225 
Q 1950 225 2162 550 
Q 2375 875 2375 1475 
Q 2375 1975 2187 2287 
Q 2000 2600 1625 2600 
Q 1350 2600 1150 2500 
Q 950 2400 775 2075 
L 550 2100 
L 675 4375 
L 2725 4375 
L 2650 4000 
L 850 4000 
L 750 2350 
Q 1000 2700 1237 2775 
Q 1475 2850 1725 2850 
z
" transform="scale(0.015625)"/>
     </defs>
     <use xlink:href="#SimSun-41"/>
     <use xlink:href="#SimSun-50" x="50"/>
     <use xlink:href="#SimSun-49" x="100"/>
     <use xlink:href="#SimSun-5f" x="150"/>
     <use xlink:href="#SimSun-49" x="200"/>
     <use xlink:href="#SimSun-44" x="250"/>
     <use xlink:href="#SimSun-3a" x="300"/>
     <use xlink:href="#SimSun-20" x="350"/>
     <use xlink:href="#SimSun-35" x="400"/>
    </g>
   </g>
  </g>
  <g id="axes_3">
   <g id="patch_13">
    <path d="M 61.6375 658.500625 
L 1032.554189 658.500625 
L 1032.554189 492.940625 
L 61.6375 492.940625 
z
" style="fill: #ffffff"/>
   </g>
   <g id="matplotlib.axis_5">
    <g id="xtick_15">
     <g id="line2d_28">
      <g>
       <use xlink:href="#m2482c151f0" x="105.770077" y="658.500625" style="stroke: #000000; stroke-width: 0.8"/>
      </g>
     </g>
     <g id="text_26">
      <!-- 0 -->
      <g transform="translate(100.770077 679.388125) scale(0.2 -0.2)">
       <use xlink:href="#TimesNewRomanPSMT-30"/>
      </g>
     </g>
    </g>
    <g id="xtick_16">
     <g id="line2d_29">
      <g>
       <use xlink:href="#m2482c151f0" x="259.542121" y="658.500625" style="stroke: #000000; stroke-width: 0.8"/>
      </g>
     </g>
     <g id="text_27">
      <!-- 50 -->
      <g transform="translate(249.542121 679.388125) scale(0.2 -0.2)">
       <use xlink:href="#TimesNewRomanPSMT-35"/>
       <use xlink:href="#TimesNewRomanPSMT-30" x="50"/>
      </g>
     </g>
    </g>
    <g id="xtick_17">
     <g id="line2d_30">
      <g>
       <use xlink:href="#m2482c151f0" x="413.314166" y="658.500625" style="stroke: #000000; stroke-width: 0.8"/>
      </g>
     </g>
     <g id="text_28">
      <!-- 100 -->
      <g transform="translate(398.314166 679.388125) scale(0.2 -0.2)">
       <use xlink:href="#TimesNewRomanPSMT-31"/>
       <use xlink:href="#TimesNewRomanPSMT-30" x="50"/>
       <use xlink:href="#TimesNewRomanPSMT-30" x="100"/>
      </g>
     </g>
    </g>
    <g id="xtick_18">
     <g id="line2d_31">
      <g>
       <use xlink:href="#m2482c151f0" x="567.08621" y="658.500625" style="stroke: #000000; stroke-width: 0.8"/>
      </g>
     </g>
     <g id="text_29">
      <!-- 150 -->
      <g transform="translate(552.08621 679.388125) scale(0.2 -0.2)">
       <use xlink:href="#TimesNewRomanPSMT-31"/>
       <use xlink:href="#TimesNewRomanPSMT-35" x="50"/>
       <use xlink:href="#TimesNewRomanPSMT-30" x="100"/>
      </g>
     </g>
    </g>
    <g id="xtick_19">
     <g id="line2d_32">
      <g>
       <use xlink:href="#m2482c151f0" x="720.858255" y="658.500625" style="stroke: #000000; stroke-width: 0.8"/>
      </g>
     </g>
     <g id="text_30">
      <!-- 200 -->
      <g transform="translate(705.858255 679.388125) scale(0.2 -0.2)">
       <use xlink:href="#TimesNewRomanPSMT-32"/>
       <use xlink:href="#TimesNewRomanPSMT-30" x="50"/>
       <use xlink:href="#TimesNewRomanPSMT-30" x="100"/>
      </g>
     </g>
    </g>
    <g id="xtick_20">
     <g id="line2d_33">
      <g>
       <use xlink:href="#m2482c151f0" x="874.630299" y="658.500625" style="stroke: #000000; stroke-width: 0.8"/>
      </g>
     </g>
     <g id="text_31">
      <!-- 250 -->
      <g transform="translate(859.630299 679.388125) scale(0.2 -0.2)">
       <use xlink:href="#TimesNewRomanPSMT-32"/>
       <use xlink:href="#TimesNewRomanPSMT-35" x="50"/>
       <use xlink:href="#TimesNewRomanPSMT-30" x="100"/>
      </g>
     </g>
    </g>
    <g id="xtick_21">
     <g id="line2d_34">
      <g>
       <use xlink:href="#m2482c151f0" x="1028.402344" y="658.500625" style="stroke: #000000; stroke-width: 0.8"/>
      </g>
     </g>
     <g id="text_32">
      <!-- 300 -->
      <g transform="translate(1013.402344 679.388125) scale(0.2 -0.2)">
       <use xlink:href="#TimesNewRomanPSMT-33"/>
       <use xlink:href="#TimesNewRomanPSMT-30" x="50"/>
       <use xlink:href="#TimesNewRomanPSMT-30" x="100"/>
      </g>
     </g>
    </g>
   </g>
   <g id="matplotlib.axis_6">
    <g id="ytick_6">
     <g id="line2d_35">
      <g>
       <use xlink:href="#m502100655c" x="61.6375" y="653.814963" style="stroke: #000000; stroke-width: 0.8"/>
      </g>
     </g>
     <g id="text_33">
      <!-- 0 -->
      <g transform="translate(44.6375 660.758713) scale(0.2 -0.2)">
       <use xlink:href="#TimesNewRomanPSMT-30"/>
      </g>
     </g>
    </g>
    <g id="ytick_7">
     <g id="line2d_36">
      <g>
       <use xlink:href="#m502100655c" x="61.6375" y="597.019081" style="stroke: #000000; stroke-width: 0.8"/>
      </g>
     </g>
     <g id="text_34">
      <!-- 20 -->
      <g transform="translate(34.6375 603.962831) scale(0.2 -0.2)">
       <use xlink:href="#TimesNewRomanPSMT-32"/>
       <use xlink:href="#TimesNewRomanPSMT-30" x="50"/>
      </g>
     </g>
    </g>
    <g id="ytick_8">
     <g id="line2d_37">
      <g>
       <use xlink:href="#m502100655c" x="61.6375" y="540.223198" style="stroke: #000000; stroke-width: 0.8"/>
      </g>
     </g>
     <g id="text_35">
      <!-- 40 -->
      <g transform="translate(34.6375 547.166948) scale(0.2 -0.2)">
       <use xlink:href="#TimesNewRomanPSMT-34"/>
       <use xlink:href="#TimesNewRomanPSMT-30" x="50"/>
      </g>
     </g>
    </g>
    <g id="text_36">
     <!-- CPU使用率 -->
     <g transform="translate(28.059375 620.720625) rotate(-90) scale(0.2 -0.2)">
      <use xlink:href="#SimSun-43"/>
      <use xlink:href="#SimSun-50" x="50"/>
      <use xlink:href="#SimSun-55" x="100"/>
      <use xlink:href="#SimSun-4f7f" x="150"/>
      <use xlink:href="#SimSun-7528" x="250"/>
      <use xlink:href="#SimSun-7387" x="350"/>
     </g>
    </g>
   </g>
   <g id="line2d_38">
    <path d="M 105.770077 605.538463 
L 108.845518 582.82011 
L 111.920959 579.980316 
L 114.996399 582.82011 
L 118.07184 594.179286 
L 121.147281 557.261962 
L 124.222722 579.980316 
L 127.298163 625.417022 
L 130.373604 616.89764 
L 139.599927 616.89764 
L 142.675367 605.538463 
L 145.750808 625.417022 
L 148.826249 597.019081 
L 151.90169 619.737434 
L 154.977131 597.019081 
L 158.052572 628.256816 
L 161.128013 628.256816 
L 164.203454 639.615993 
L 167.278895 636.776199 
L 170.354335 639.615993 
L 173.429776 639.615993 
L 176.505217 648.135375 
L 179.580658 645.295581 
L 182.656099 633.936404 
L 185.73154 619.737434 
L 188.806981 577.140521 
L 191.882422 591.339492 
L 194.957863 534.543609 
L 198.033303 537.383403 
L 201.108744 500.46608 
L 204.184185 543.062992 
L 207.259626 554.422168 
L 210.335067 511.825256 
L 213.410508 568.621139 
L 216.485949 545.902786 
L 219.56139 537.383403 
L 222.636831 577.140521 
L 225.712272 557.261962 
L 228.787712 614.057845 
L 231.863153 574.300727 
L 234.938594 560.101757 
L 238.014035 560.101757 
L 241.089476 548.74258 
L 244.164917 585.659904 
L 247.240358 557.261962 
L 250.315799 568.621139 
L 253.39124 526.024227 
L 256.46668 639.615993 
L 259.542121 599.858875 
L 262.617562 648.135375 
L 265.693003 639.615993 
L 268.768444 650.97517 
L 271.843885 645.295581 
L 274.919326 628.256816 
L 277.994767 631.09661 
L 281.070208 639.615993 
L 284.145648 622.577228 
L 287.221089 636.776199 
L 290.29653 591.339492 
L 293.371971 611.218051 
L 296.447412 616.89764 
L 299.522853 611.218051 
L 302.598294 594.179286 
L 305.673735 602.698669 
L 308.749176 582.82011 
L 311.824616 585.659904 
L 314.900057 591.339492 
L 317.975498 565.781345 
L 321.050939 597.019081 
L 324.12638 588.499693 
L 327.201821 602.698669 
L 330.277262 602.698669 
L 333.352703 639.615993 
L 336.428144 599.858875 
L 339.503584 599.858875 
L 342.579025 602.698669 
L 345.654466 616.89764 
L 348.729907 585.659904 
L 351.805348 605.538463 
L 354.880789 585.659904 
L 357.95623 614.057845 
L 361.031671 648.135375 
L 364.107112 625.417022 
L 367.182552 639.615993 
L 370.257993 645.295581 
L 373.333434 639.615993 
L 376.408875 648.135375 
L 379.484316 628.256816 
L 382.559757 636.776199 
L 385.635198 619.737434 
L 388.710639 650.97517 
L 391.78608 631.09661 
L 394.86152 562.941551 
L 397.936961 554.422168 
L 401.012402 588.499693 
L 404.087843 571.460933 
L 407.163284 520.344639 
L 410.238725 543.062992 
L 413.314166 517.504844 
L 416.389607 520.344639 
L 419.465048 520.344639 
L 422.540488 540.223198 
L 425.615929 545.902786 
L 428.69137 531.703815 
L 431.766811 520.344639 
L 434.842252 579.980316 
L 437.917693 579.980316 
L 440.993134 591.339492 
L 444.068575 582.82011 
L 447.144016 557.261962 
L 450.219457 557.261962 
L 453.294897 577.140521 
L 456.370338 585.659904 
L 459.445779 577.140521 
L 462.52122 614.057845 
L 465.596661 597.019081 
L 468.672102 625.417022 
L 471.747543 645.295581 
L 474.822984 622.577228 
L 477.898425 622.577228 
L 480.973865 631.09661 
L 484.049306 602.698669 
L 487.124747 619.737434 
L 490.200188 602.698669 
L 493.275629 631.09661 
L 496.35107 579.980316 
L 499.426511 585.659904 
L 502.501952 571.460933 
L 505.577393 577.140521 
L 508.652833 562.941551 
L 511.728274 579.980316 
L 514.803715 579.980316 
L 517.879156 582.82011 
L 520.954597 636.776199 
L 524.030038 628.256816 
L 527.105479 614.057845 
L 530.18092 614.057845 
L 533.256361 602.698669 
L 536.331801 628.256816 
L 539.407242 577.140521 
L 542.482683 608.378257 
L 545.558124 619.737434 
L 548.633565 611.218051 
L 551.709006 633.936404 
L 554.784447 619.737434 
L 557.859888 625.417022 
L 560.935329 639.615993 
L 564.010769 631.09661 
L 567.08621 631.09661 
L 570.161651 645.295581 
L 573.237092 619.737434 
L 576.312533 645.295581 
L 579.387974 614.057845 
L 582.463415 619.737434 
L 585.538856 622.577228 
L 588.614297 582.82011 
L 591.689737 588.499693 
L 594.765178 557.261962 
L 597.840619 531.703815 
L 600.91606 560.101757 
L 603.991501 565.781345 
L 607.066942 560.101757 
L 610.142383 557.261962 
L 613.217824 503.305874 
L 616.293265 537.383403 
L 619.368705 537.383403 
L 622.444146 545.902786 
L 625.519587 588.499693 
L 628.595028 608.378257 
L 631.670469 602.698669 
L 634.74591 631.09661 
L 637.821351 622.577228 
L 640.896792 605.538463 
L 643.972233 628.256816 
L 647.047673 642.455787 
L 650.123114 614.057845 
L 653.198555 639.615993 
L 656.273996 639.615993 
L 659.349437 628.256816 
L 662.424878 648.135375 
L 668.57576 648.135375 
L 671.651201 625.417022 
L 674.726642 625.417022 
L 677.802082 608.378257 
L 680.877523 625.417022 
L 683.952964 628.256816 
L 687.028405 602.698669 
L 690.103846 599.858875 
L 693.179287 591.339492 
L 696.254728 591.339492 
L 699.330169 599.858875 
L 702.40561 582.82011 
L 705.48105 602.698669 
L 708.556491 577.140521 
L 711.631932 588.499693 
L 714.707373 605.538463 
L 717.782814 625.417022 
L 720.858255 614.057845 
L 723.933696 616.89764 
L 727.009137 582.82011 
L 730.084578 625.417022 
L 733.160018 588.499693 
L 736.235459 608.378257 
L 739.3109 577.140521 
L 742.386341 616.89764 
L 745.461782 625.417022 
L 748.537223 614.057845 
L 751.612664 588.499693 
L 754.688105 602.698669 
L 757.763546 605.538463 
L 760.838986 619.737434 
L 763.914427 602.698669 
L 766.989868 579.980316 
L 770.065309 585.659904 
L 773.14075 588.499693 
L 776.216191 594.179286 
L 779.291632 611.218051 
L 782.367073 557.261962 
L 785.442514 571.460933 
L 788.517954 540.223198 
L 791.593395 565.781345 
L 794.668836 543.062992 
L 797.744277 562.941551 
L 800.819718 560.101757 
L 803.895159 588.499693 
L 806.9706 520.344639 
L 810.046041 560.101757 
L 813.121482 548.74258 
L 816.196922 548.74258 
L 819.272363 545.902786 
L 822.347804 594.179286 
L 825.423245 599.858875 
L 828.498686 611.218051 
L 831.574127 639.615993 
L 834.649568 616.89764 
L 840.80045 611.218051 
L 843.87589 565.781345 
L 846.951331 577.140521 
L 850.026772 591.339492 
L 853.102213 611.218051 
L 856.177654 594.179286 
L 859.253095 588.499693 
L 862.328536 614.057845 
L 865.403977 602.698669 
L 868.479418 608.378257 
L 871.554858 560.101757 
L 874.630299 594.179286 
L 877.70574 565.781345 
L 880.781181 608.378257 
L 883.856622 574.300727 
L 886.932063 585.659904 
L 890.007504 602.698669 
L 893.082945 611.218051 
L 896.158386 616.89764 
L 899.233827 625.417022 
L 905.384708 608.378257 
L 908.460149 597.019081 
L 911.53559 579.980316 
L 914.611031 591.339492 
L 917.686472 594.179286 
L 920.761913 625.417022 
L 923.837354 639.615993 
L 929.988235 628.256816 
L 933.063676 639.615993 
L 936.139117 648.135375 
L 939.214558 625.417022 
L 942.289999 645.295581 
L 945.36544 631.09661 
L 951.516322 614.057845 
L 954.591763 619.737434 
L 957.667203 614.057845 
L 960.742644 611.218051 
L 963.818085 599.858875 
L 966.893526 611.218051 
L 969.968967 582.82011 
L 973.044408 602.698669 
L 976.119849 571.460933 
L 979.19529 557.261962 
L 982.270731 577.140521 
L 985.346171 577.140521 
L 988.421612 614.057845 
L 988.421612 614.057845 
" clip-path="url(#p0ee06ad234)" style="fill: none; stroke: #1f77b4; stroke-width: 1.5; stroke-linecap: square"/>
   </g>
   <g id="line2d_39">
    <path d="M 548.633565 619.138712 
L 551.709006 620.587756 
L 554.784447 627.048947 
L 557.859888 628.788378 
L 560.935329 626.684182 
L 564.010769 620.730927 
L 567.08621 617.384787 
L 570.161651 612.854402 
L 573.237092 604.201427 
L 576.312533 594.915494 
L 579.387974 591.843458 
L 585.538856 568.029389 
L 591.689737 552.002086 
L 594.765178 550.765624 
L 597.840619 544.058259 
L 600.91606 549.462105 
L 603.991501 550.775904 
L 607.066942 560.812518 
L 610.142383 563.136073 
L 613.217824 569.963245 
L 619.368705 572.732018 
L 622.444146 575.951648 
L 625.519587 576.046214 
L 628.595028 573.615798 
L 631.670469 578.966741 
L 634.74591 589.071299 
L 637.821351 591.236444 
L 640.896792 596.121456 
L 643.972233 598.195187 
L 647.047673 606.666845 
L 650.123114 612.264929 
L 653.198555 614.934908 
L 656.273996 615.495202 
L 659.349437 621.533692 
L 662.424878 620.8252 
L 665.500319 620.835497 
L 668.57576 616.230294 
L 671.651201 615.392243 
L 674.726642 602.304615 
L 677.802082 604.974965 
L 680.877523 598.123273 
L 683.952964 597.603405 
L 687.028405 593.036393 
L 690.103846 591.726554 
L 693.179287 585.532644 
L 696.254728 588.327324 
L 699.330169 591.423366 
L 702.40561 587.924815 
L 705.48105 591.362166 
L 708.556491 594.13082 
L 711.631932 595.706143 
L 714.707373 600.800307 
L 717.782814 602.84149 
L 720.858255 603.773645 
L 723.933696 600.486585 
L 727.009137 599.794727 
L 730.084578 596.261342 
L 733.160018 602.502657 
L 736.235459 605.949492 
L 739.3109 607.861666 
L 742.386341 602.019069 
L 745.461782 611.114337 
L 748.537223 610.656939 
L 751.612664 613.642483 
L 754.688105 610.614721 
L 757.763546 605.230097 
L 760.838986 607.853103 
L 763.914427 605.693174 
L 766.989868 599.54012 
L 770.065309 588.970043 
L 773.14075 588.497656 
L 776.216191 583.524246 
L 779.291632 577.290715 
L 782.367073 568.764768 
L 785.442514 571.913485 
L 788.517954 566.178291 
L 791.593395 567.178758 
L 794.668836 569.572142 
L 797.744277 569.548099 
L 800.819718 572.083611 
L 803.895159 575.654668 
L 806.9706 575.518964 
L 810.046041 579.994566 
L 813.121482 581.377225 
L 816.196922 586.198323 
L 819.272363 583.711489 
L 822.347804 586.964138 
L 825.423245 592.793946 
L 828.498686 593.015291 
L 831.574127 591.200587 
L 834.649568 593.543083 
L 837.725009 599.155204 
L 840.80045 602.875641 
L 843.87589 606.252793 
L 846.951331 604.800425 
L 850.026772 610.659071 
L 853.102213 607.016939 
L 856.177654 612.481948 
L 859.253095 608.794002 
L 862.328536 609.003644 
L 865.403977 608.361731 
L 868.479418 605.507129 
L 871.554858 604.523458 
L 874.630299 604.197164 
L 877.70574 602.360962 
L 880.781181 601.648484 
L 883.856622 597.867572 
L 886.932063 598.867491 
L 893.082945 605.015421 
L 899.233827 603.022812 
L 902.309267 606.293135 
L 905.384708 604.824652 
L 908.460149 607.677424 
L 911.53559 604.089869 
L 914.611031 605.819389 
L 917.686472 604.071199 
L 920.761913 600.46799 
L 923.837354 599.00546 
L 926.912795 597.683693 
L 929.988235 592.239922 
L 933.063676 589.687347 
L 939.214558 586.166177 
L 942.289999 586.791942 
L 945.36544 582.139242 
L 948.440881 578.455713 
L 951.516322 575.423043 
L 954.591763 570.258871 
L 957.667203 575.0885 
L 960.742644 570.293151 
L 963.818085 569.249754 
L 966.893526 568.035163 
L 969.968967 570.766747 
L 973.044408 570.950181 
L 976.119849 570.531812 
L 979.19529 567.839872 
L 982.270731 568.197121 
L 985.346171 575.578063 
L 988.421612 574.466038 
L 988.421612 574.466038 
" clip-path="url(#p0ee06ad234)" style="fill: none; stroke: #ff7f0e; stroke-width: 1.5; stroke-linecap: square"/>
   </g>
   <g id="line2d_40">
    <path d="M 548.633565 658.500625 
L 548.633565 492.940625 
" clip-path="url(#p0ee06ad234)" style="fill: none; stroke-dasharray: 7.4,3.2; stroke-dashoffset: 0; stroke: #0000ff; stroke-width: 2"/>
   </g>
   <g id="patch_14">
    <path d="M 61.6375 658.500625 
L 61.6375 492.940625 
" style="fill: none; stroke: #000000; stroke-width: 0.8; stroke-linejoin: miter; stroke-linecap: square"/>
   </g>
   <g id="patch_15">
    <path d="M 1032.554189 658.500625 
L 1032.554189 492.940625 
" style="fill: none; stroke: #000000; stroke-width: 0.8; stroke-linejoin: miter; stroke-linecap: square"/>
   </g>
   <g id="patch_16">
    <path d="M 61.6375 658.500625 
L 1032.554189 658.500625 
" style="fill: none; stroke: #000000; stroke-width: 0.8; stroke-linejoin: miter; stroke-linecap: square"/>
   </g>
   <g id="patch_17">
    <path d="M 61.6375 492.940625 
L 1032.554189 492.940625 
" style="fill: none; stroke: #000000; stroke-width: 0.8; stroke-linejoin: miter; stroke-linecap: square"/>
   </g>
   <g id="text_37">
    <!-- API_ID: 36 -->
    <g transform="translate(497.095845 486.940625) scale(0.2 -0.2)">
     <defs>
      <path id="SimSun-33" d="M 2800 1250 
Q 2800 775 2450 412 
Q 2100 50 1475 50 
Q 1025 50 700 300 
Q 375 550 375 875 
Q 375 1025 475 1137 
Q 575 1250 675 1250 
Q 825 1250 887 1137 
Q 950 1025 950 950 
Q 950 825 900 750 
Q 850 650 850 575 
Q 850 425 1037 325 
Q 1225 225 1450 225 
Q 1900 225 2125 487 
Q 2350 750 2350 1300 
Q 2350 1750 2112 2025 
Q 1875 2300 1225 2300 
L 1225 2475 
Q 1725 2475 1962 2712 
Q 2200 2950 2200 3375 
Q 2200 3725 2012 3987 
Q 1825 4250 1425 4250 
Q 1250 4250 1050 4162 
Q 850 4075 850 3875 
Q 850 3675 900 3625 
Q 950 3575 950 3500 
Q 950 3375 900 3300 
Q 850 3225 725 3225 
Q 625 3225 537 3300 
Q 450 3375 450 3575 
Q 450 3950 775 4187 
Q 1100 4425 1525 4425 
Q 2025 4425 2325 4112 
Q 2625 3800 2625 3450 
Q 2625 3075 2437 2812 
Q 2250 2550 1850 2425 
Q 2400 2225 2600 1900 
Q 2800 1575 2800 1250 
z
" transform="scale(0.015625)"/>
      <path id="SimSun-36" d="M 775 1800 
Q 775 1050 1037 637 
Q 1300 225 1675 225 
Q 2050 225 2250 500 
Q 2450 775 2450 1525 
Q 2450 2025 2237 2300 
Q 2025 2575 1725 2575 
Q 1450 2575 1212 2412 
Q 975 2250 775 1800 
z
M 1750 2825 
Q 2350 2825 2612 2425 
Q 2875 2025 2875 1525 
Q 2875 775 2512 412 
Q 2150 50 1675 50 
Q 1000 50 650 562 
Q 300 1075 300 2050 
Q 300 3200 725 3812 
Q 1150 4425 1875 4425 
Q 2225 4425 2437 4225 
Q 2650 4025 2650 3875 
Q 2650 3725 2587 3650 
Q 2525 3575 2375 3575 
Q 2250 3575 2187 3637 
Q 2125 3700 2125 3825 
Q 2125 3875 2150 3925 
Q 2150 3975 2150 4025 
Q 2150 4125 2075 4187 
Q 2000 4250 1800 4250 
Q 1375 4250 1075 3862 
Q 775 3475 775 2175 
Q 925 2500 1187 2662 
Q 1450 2825 1750 2825 
z
" transform="scale(0.015625)"/>
     </defs>
     <use xlink:href="#SimSun-41"/>
     <use xlink:href="#SimSun-50" x="50"/>
     <use xlink:href="#SimSun-49" x="100"/>
     <use xlink:href="#SimSun-5f" x="150"/>
     <use xlink:href="#SimSun-49" x="200"/>
     <use xlink:href="#SimSun-44" x="250"/>
     <use xlink:href="#SimSun-3a" x="300"/>
     <use xlink:href="#SimSun-20" x="350"/>
     <use xlink:href="#SimSun-33" x="400"/>
     <use xlink:href="#SimSun-36" x="450"/>
    </g>
   </g>
  </g>
 </g>
 <defs>
  <clipPath id="p3f2ca75873">
   <rect x="61.6375" y="27.340625" width="970.916689" height="165.56"/>
  </clipPath>
  <clipPath id="p5a26b5b817">
   <rect x="61.6375" y="260.140625" width="970.916689" height="165.56"/>
  </clipPath>
  <clipPath id="p0ee06ad234">
   <rect x="61.6375" y="492.940625" width="970.916689" height="165.56"/>
  </clipPath>
 </defs>
</svg>
