<?xml version="1.0" encoding="utf-8" standalone="no"?>
<!DOCTYPE svg PUBLIC "-//W3C//DTD SVG 1.1//EN"
  "http://www.w3.org/Graphics/SVG/1.1/DTD/svg11.dtd">
<svg xmlns:xlink="http://www.w3.org/1999/xlink" width="1050.602344pt" height="690.86625pt" viewBox="0 0 1050.602344 690.86625" xmlns="http://www.w3.org/2000/svg" version="1.1">
 <metadata>
  <rdf:RDF xmlns:dc="http://purl.org/dc/elements/1.1/" xmlns:cc="http://creativecommons.org/ns#" xmlns:rdf="http://www.w3.org/1999/02/22-rdf-syntax-ns#">
   <cc:Work>
    <dc:type rdf:resource="http://purl.org/dc/dcmitype/StillImage"/>
    <dc:date>2024-02-27T19:53:32.222142</dc:date>
    <dc:format>image/svg+xml</dc:format>
    <dc:creator>
     <cc:Agent>
      <dc:title>Matplotlib v3.7.1, https://matplotlib.org/</dc:title>
     </cc:Agent>
    </dc:creator>
   </cc:Work>
  </rdf:RDF>
 </metadata>
 <defs>
  <style type="text/css">*{stroke-linejoin: round; stroke-linecap: butt}</style>
 </defs>
 <g id="figure_1">
  <g id="patch_1">
   <path d="M 0 690.86625 
L 1050.602344 690.86625 
L 1050.602344 0 
L 0 0 
z
" style="fill: #ffffff"/>
  </g>
  <g id="axes_1">
   <g id="patch_2">
    <path d="M 61.6375 192.900625 
L 1032.554189 192.900625 
L 1032.554189 27.340625 
L 61.6375 27.340625 
z
" style="fill: #ffffff"/>
   </g>
   <g id="matplotlib.axis_1">
    <g id="xtick_1">
     <g id="line2d_1">
      <defs>
       <path id="m8fe34d5de5" d="M 0 0 
L 0 3.5 
" style="stroke: #000000; stroke-width: 0.8"/>
      </defs>
      <g>
       <use xlink:href="#m8fe34d5de5" x="105.770077" y="192.900625" style="stroke: #000000; stroke-width: 0.8"/>
      </g>
     </g>
     <g id="text_1">
      <!-- 0 -->
      <g transform="translate(100.770077 213.788125) scale(0.2 -0.2)">
       <defs>
        <path id="TimesNewRomanPSMT-30" d="M 231 2094 
Q 231 2819 450 3342 
Q 669 3866 1031 4122 
Q 1313 4325 1613 4325 
Q 2100 4325 2488 3828 
Q 2972 3213 2972 2159 
Q 2972 1422 2759 906 
Q 2547 391 2217 158 
Q 1888 -75 1581 -75 
Q 975 -75 572 641 
Q 231 1244 231 2094 
z
M 844 2016 
Q 844 1141 1059 588 
Q 1238 122 1591 122 
Q 1759 122 1940 273 
Q 2122 425 2216 781 
Q 2359 1319 2359 2297 
Q 2359 3022 2209 3506 
Q 2097 3866 1919 4016 
Q 1791 4119 1609 4119 
Q 1397 4119 1231 3928 
Q 1006 3669 925 3112 
Q 844 2556 844 2016 
z
" transform="scale(0.015625)"/>
       </defs>
       <use xlink:href="#TimesNewRomanPSMT-30"/>
      </g>
     </g>
    </g>
    <g id="xtick_2">
     <g id="line2d_2">
      <g>
       <use xlink:href="#m8fe34d5de5" x="259.542121" y="192.900625" style="stroke: #000000; stroke-width: 0.8"/>
      </g>
     </g>
     <g id="text_2">
      <!-- 50 -->
      <g transform="translate(249.542121 213.788125) scale(0.2 -0.2)">
       <defs>
        <path id="TimesNewRomanPSMT-35" d="M 2778 4238 
L 2534 3706 
L 1259 3706 
L 981 3138 
Q 1809 3016 2294 2522 
Q 2709 2097 2709 1522 
Q 2709 1188 2573 903 
Q 2438 619 2231 419 
Q 2025 219 1772 97 
Q 1413 -75 1034 -75 
Q 653 -75 479 54 
Q 306 184 306 341 
Q 306 428 378 495 
Q 450 563 559 563 
Q 641 563 702 538 
Q 763 513 909 409 
Q 1144 247 1384 247 
Q 1750 247 2026 523 
Q 2303 800 2303 1197 
Q 2303 1581 2056 1914 
Q 1809 2247 1375 2428 
Q 1034 2569 447 2591 
L 1259 4238 
L 2778 4238 
z
" transform="scale(0.015625)"/>
       </defs>
       <use xlink:href="#TimesNewRomanPSMT-35"/>
       <use xlink:href="#TimesNewRomanPSMT-30" x="50"/>
      </g>
     </g>
    </g>
    <g id="xtick_3">
     <g id="line2d_3">
      <g>
       <use xlink:href="#m8fe34d5de5" x="413.314166" y="192.900625" style="stroke: #000000; stroke-width: 0.8"/>
      </g>
     </g>
     <g id="text_3">
      <!-- 100 -->
      <g transform="translate(398.314166 213.788125) scale(0.2 -0.2)">
       <defs>
        <path id="TimesNewRomanPSMT-31" d="M 750 3822 
L 1781 4325 
L 1884 4325 
L 1884 747 
Q 1884 391 1914 303 
Q 1944 216 2037 169 
Q 2131 122 2419 116 
L 2419 0 
L 825 0 
L 825 116 
Q 1125 122 1212 167 
Q 1300 213 1334 289 
Q 1369 366 1369 747 
L 1369 3034 
Q 1369 3497 1338 3628 
Q 1316 3728 1258 3775 
Q 1200 3822 1119 3822 
Q 1003 3822 797 3725 
L 750 3822 
z
" transform="scale(0.015625)"/>
       </defs>
       <use xlink:href="#TimesNewRomanPSMT-31"/>
       <use xlink:href="#TimesNewRomanPSMT-30" x="50"/>
       <use xlink:href="#TimesNewRomanPSMT-30" x="100"/>
      </g>
     </g>
    </g>
    <g id="xtick_4">
     <g id="line2d_4">
      <g>
       <use xlink:href="#m8fe34d5de5" x="567.08621" y="192.900625" style="stroke: #000000; stroke-width: 0.8"/>
      </g>
     </g>
     <g id="text_4">
      <!-- 150 -->
      <g transform="translate(552.08621 213.788125) scale(0.2 -0.2)">
       <use xlink:href="#TimesNewRomanPSMT-31"/>
       <use xlink:href="#TimesNewRomanPSMT-35" x="50"/>
       <use xlink:href="#TimesNewRomanPSMT-30" x="100"/>
      </g>
     </g>
    </g>
    <g id="xtick_5">
     <g id="line2d_5">
      <g>
       <use xlink:href="#m8fe34d5de5" x="720.858255" y="192.900625" style="stroke: #000000; stroke-width: 0.8"/>
      </g>
     </g>
     <g id="text_5">
      <!-- 200 -->
      <g transform="translate(705.858255 213.788125) scale(0.2 -0.2)">
       <defs>
        <path id="TimesNewRomanPSMT-32" d="M 2934 816 
L 2638 0 
L 138 0 
L 138 116 
Q 1241 1122 1691 1759 
Q 2141 2397 2141 2925 
Q 2141 3328 1894 3587 
Q 1647 3847 1303 3847 
Q 991 3847 742 3664 
Q 494 3481 375 3128 
L 259 3128 
Q 338 3706 661 4015 
Q 984 4325 1469 4325 
Q 1984 4325 2329 3994 
Q 2675 3663 2675 3213 
Q 2675 2891 2525 2569 
Q 2294 2063 1775 1497 
Q 997 647 803 472 
L 1909 472 
Q 2247 472 2383 497 
Q 2519 522 2628 598 
Q 2738 675 2819 816 
L 2934 816 
z
" transform="scale(0.015625)"/>
       </defs>
       <use xlink:href="#TimesNewRomanPSMT-32"/>
       <use xlink:href="#TimesNewRomanPSMT-30" x="50"/>
       <use xlink:href="#TimesNewRomanPSMT-30" x="100"/>
      </g>
     </g>
    </g>
    <g id="xtick_6">
     <g id="line2d_6">
      <g>
       <use xlink:href="#m8fe34d5de5" x="874.630299" y="192.900625" style="stroke: #000000; stroke-width: 0.8"/>
      </g>
     </g>
     <g id="text_6">
      <!-- 250 -->
      <g transform="translate(859.630299 213.788125) scale(0.2 -0.2)">
       <use xlink:href="#TimesNewRomanPSMT-32"/>
       <use xlink:href="#TimesNewRomanPSMT-35" x="50"/>
       <use xlink:href="#TimesNewRomanPSMT-30" x="100"/>
      </g>
     </g>
    </g>
    <g id="xtick_7">
     <g id="line2d_7">
      <g>
       <use xlink:href="#m8fe34d5de5" x="1028.402344" y="192.900625" style="stroke: #000000; stroke-width: 0.8"/>
      </g>
     </g>
     <g id="text_7">
      <!-- 300 -->
      <g transform="translate(1013.402344 213.788125) scale(0.2 -0.2)">
       <defs>
        <path id="TimesNewRomanPSMT-33" d="M 325 3431 
Q 506 3859 782 4092 
Q 1059 4325 1472 4325 
Q 1981 4325 2253 3994 
Q 2459 3747 2459 3466 
Q 2459 3003 1878 2509 
Q 2269 2356 2469 2072 
Q 2669 1788 2669 1403 
Q 2669 853 2319 450 
Q 1863 -75 997 -75 
Q 569 -75 414 31 
Q 259 138 259 259 
Q 259 350 332 419 
Q 406 488 509 488 
Q 588 488 669 463 
Q 722 447 909 348 
Q 1097 250 1169 231 
Q 1284 197 1416 197 
Q 1734 197 1970 444 
Q 2206 691 2206 1028 
Q 2206 1275 2097 1509 
Q 2016 1684 1919 1775 
Q 1784 1900 1550 2001 
Q 1316 2103 1072 2103 
L 972 2103 
L 972 2197 
Q 1219 2228 1467 2375 
Q 1716 2522 1828 2728 
Q 1941 2934 1941 3181 
Q 1941 3503 1739 3701 
Q 1538 3900 1238 3900 
Q 753 3900 428 3381 
L 325 3431 
z
" transform="scale(0.015625)"/>
       </defs>
       <use xlink:href="#TimesNewRomanPSMT-33"/>
       <use xlink:href="#TimesNewRomanPSMT-30" x="50"/>
       <use xlink:href="#TimesNewRomanPSMT-30" x="100"/>
      </g>
     </g>
    </g>
   </g>
   <g id="matplotlib.axis_2">
    <g id="ytick_1">
     <g id="line2d_8">
      <defs>
       <path id="md624023935" d="M 0 0 
L -3.5 0 
" style="stroke: #000000; stroke-width: 0.8"/>
      </defs>
      <g>
       <use xlink:href="#md624023935" x="61.6375" y="170.384225" style="stroke: #000000; stroke-width: 0.8"/>
      </g>
     </g>
     <g id="text_8">
      <!-- 2.5 -->
      <g transform="translate(29.6375 177.327975) scale(0.2 -0.2)">
       <defs>
        <path id="TimesNewRomanPSMT-2e" d="M 800 606 
Q 947 606 1047 504 
Q 1147 403 1147 259 
Q 1147 116 1045 14 
Q 944 -88 800 -88 
Q 656 -88 554 14 
Q 453 116 453 259 
Q 453 406 554 506 
Q 656 606 800 606 
z
" transform="scale(0.015625)"/>
       </defs>
       <use xlink:href="#TimesNewRomanPSMT-32"/>
       <use xlink:href="#TimesNewRomanPSMT-2e" x="50"/>
       <use xlink:href="#TimesNewRomanPSMT-35" x="75"/>
      </g>
     </g>
    </g>
    <g id="ytick_2">
     <g id="line2d_9">
      <g>
       <use xlink:href="#md624023935" x="61.6375" y="120.414405" style="stroke: #000000; stroke-width: 0.8"/>
      </g>
     </g>
     <g id="text_9">
      <!-- 5.0 -->
      <g transform="translate(29.6375 127.358155) scale(0.2 -0.2)">
       <use xlink:href="#TimesNewRomanPSMT-35"/>
       <use xlink:href="#TimesNewRomanPSMT-2e" x="50"/>
       <use xlink:href="#TimesNewRomanPSMT-30" x="75"/>
      </g>
     </g>
    </g>
    <g id="ytick_3">
     <g id="line2d_10">
      <g>
       <use xlink:href="#md624023935" x="61.6375" y="70.444586" style="stroke: #000000; stroke-width: 0.8"/>
      </g>
     </g>
     <g id="text_10">
      <!-- 7.5 -->
      <g transform="translate(29.6375 77.388336) scale(0.2 -0.2)">
       <defs>
        <path id="TimesNewRomanPSMT-37" d="M 644 4238 
L 2916 4238 
L 2916 4119 
L 1503 -88 
L 1153 -88 
L 2419 3728 
L 1253 3728 
Q 900 3728 750 3644 
Q 488 3500 328 3200 
L 238 3234 
L 644 4238 
z
" transform="scale(0.015625)"/>
       </defs>
       <use xlink:href="#TimesNewRomanPSMT-37"/>
       <use xlink:href="#TimesNewRomanPSMT-2e" x="50"/>
       <use xlink:href="#TimesNewRomanPSMT-35" x="75"/>
      </g>
     </g>
    </g>
    <g id="text_11">
     <!-- CPU使用率 -->
     <g transform="translate(23.059375 155.120625) rotate(-90) scale(0.2 -0.2)">
      <defs>
       <path id="SimSun-43" d="M 1725 50 
Q 1025 50 612 575 
Q 200 1100 200 2225 
Q 200 3175 637 3800 
Q 1075 4425 1825 4425 
Q 2000 4425 2175 4375 
Q 2350 4300 2475 4300 
Q 2575 4300 2637 4325 
Q 2700 4350 2750 4425 
L 2975 3325 
L 2825 3275 
Q 2675 3750 2425 4000 
Q 2175 4250 1775 4250 
Q 1250 4250 962 3675 
Q 675 3100 675 2250 
Q 675 1325 925 800 
Q 1175 275 1750 275 
Q 2150 275 2437 562 
Q 2725 850 2825 1325 
L 2975 1250 
Q 2850 725 2512 387 
Q 2175 50 1725 50 
z
" transform="scale(0.015625)"/>
       <path id="SimSun-50" d="M 950 2100 
L 950 450 
Q 950 350 1012 300 
Q 1075 250 1175 250 
L 1350 250 
L 1350 100 
L 150 100 
L 150 250 
L 325 250 
Q 450 250 500 300 
Q 550 350 550 450 
L 550 4025 
Q 550 4125 500 4175 
Q 450 4225 325 4225 
L 175 4225 
L 175 4375 
L 1650 4375 
Q 2275 4375 2612 4062 
Q 2950 3750 2950 3275 
Q 2950 2700 2587 2400 
Q 2225 2100 1725 2100 
L 950 2100 
z
M 1575 2250 
Q 1950 2250 2237 2475 
Q 2525 2700 2525 3250 
Q 2525 3750 2287 3987 
Q 2050 4225 1525 4225 
L 1175 4225 
Q 1075 4225 1012 4175 
Q 950 4125 950 4025 
L 950 2250 
L 1575 2250 
z
" transform="scale(0.015625)"/>
       <path id="SimSun-55" d="M 1625 250 
Q 2000 250 2262 500 
Q 2525 750 2525 1125 
L 2525 4025 
Q 2525 4125 2475 4175 
Q 2425 4225 2300 4225 
L 2150 4225 
L 2150 4375 
L 3050 4375 
L 3050 4225 
L 2900 4225 
Q 2800 4225 2737 4175 
Q 2675 4125 2675 4025 
L 2675 1125 
Q 2675 625 2337 337 
Q 2000 50 1575 50 
Q 1125 50 787 300 
Q 450 550 450 1100 
L 450 4025 
Q 450 4125 400 4175 
Q 350 4225 225 4225 
L 100 4225 
L 100 4375 
L 1200 4375 
L 1200 4225 
L 1075 4225 
Q 975 4225 912 4175 
Q 850 4125 850 4025 
L 850 1100 
Q 850 600 1062 425 
Q 1275 250 1625 250 
z
" transform="scale(0.015625)"/>
       <path id="SimSun-4f7f" d="M 2875 3150 
L 2875 2100 
L 3825 2100 
Q 3850 2825 3850 3150 
L 2875 3150 
z
M 4175 3150 
Q 4175 2800 4150 2100 
L 5150 2100 
L 5150 3150 
L 4175 3150 
z
M 5475 3100 
L 5475 2425 
Q 5475 2100 5500 1800 
L 5150 1675 
L 5150 1950 
L 4150 1950 
Q 4125 1175 3875 600 
Q 4275 275 4875 75 
Q 5475 -125 6075 -150 
L 6075 -250 
Q 5700 -300 5600 -575 
Q 4525 -325 3725 350 
Q 3425 25 2925 -225 
Q 2425 -475 1875 -650 
L 1825 -550 
Q 2400 -325 2850 -25 
Q 3300 275 3500 575 
Q 3200 925 2825 1650 
L 2900 1700 
Q 3325 1100 3625 825 
Q 3800 1300 3825 1950 
L 2875 1950 
L 2875 1825 
L 2525 1675 
Q 2550 2075 2550 2562 
Q 2550 3050 2525 3500 
L 2875 3300 
L 3850 3300 
L 3850 4025 
L 2975 4025 
Q 2650 4025 2375 3950 
L 2150 4175 
L 3850 4175 
L 3850 4525 
Q 3850 4775 3825 5225 
L 4350 5000 
L 4175 4825 
L 4175 4175 
L 5300 4175 
L 5600 4475 
L 6050 4025 
L 4175 4025 
L 4175 3300 
L 5100 3300 
L 5275 3525 
L 5650 3225 
L 5475 3100 
z
M 1675 3175 
L 1675 -450 
L 1325 -625 
Q 1350 -75 1350 350 
L 1350 3200 
Q 900 2475 350 1900 
L 275 1950 
Q 700 2525 1112 3400 
Q 1525 4275 1800 5250 
L 2325 4925 
L 2125 4800 
Q 1725 3925 1500 3525 
L 1875 3325 
L 1675 3175 
z
" transform="scale(0.015625)"/>
       <path id="SimSun-7528" d="M 3400 3150 
L 3400 1825 
L 5075 1825 
L 5075 3150 
L 3400 3150 
z
M 4075 100 
Q 4725 50 4900 62 
Q 5075 75 5075 400 
L 5075 1675 
L 3400 1675 
Q 3400 75 3425 -225 
L 3050 -400 
Q 3075 1025 3075 1675 
L 1425 1675 
Q 1250 350 375 -600 
L 300 -550 
Q 775 225 950 1025 
Q 1125 1825 1125 3225 
Q 1125 4625 1100 5075 
L 1475 4825 
L 5050 4825 
L 5225 5100 
L 5625 4800 
L 5425 4600 
L 5425 225 
Q 5450 -400 4875 -575 
Q 4825 -150 4075 -25 
L 4075 100 
z
M 1475 4675 
L 1475 3300 
L 3075 3300 
L 3075 4675 
L 1475 4675 
z
M 3400 4675 
L 3400 3300 
L 5075 3300 
L 5075 4675 
L 3400 4675 
z
M 1475 3150 
Q 1450 2100 1425 1825 
L 3075 1825 
L 3075 3150 
L 1475 3150 
z
" transform="scale(0.015625)"/>
       <path id="SimSun-7387" d="M 875 3725 
L 925 3800 
Q 1375 3650 1550 3525 
Q 1725 3400 1725 3250 
Q 1725 3175 1662 3025 
Q 1600 2875 1550 2875 
Q 1500 2875 1425 3050 
Q 1275 3325 875 3725 
z
M 550 1850 
Q 875 1925 2000 2575 
L 2050 2500 
Q 1675 2225 1337 1937 
Q 1000 1650 875 1425 
L 550 1850 
z
M 5200 3450 
Q 4800 3150 4275 2800 
L 4225 2875 
Q 4775 3400 5050 3925 
L 5450 3525 
L 5200 3450 
z
M 4325 2500 
L 4350 2575 
Q 5225 2350 5375 2212 
Q 5525 2075 5525 1900 
Q 5525 1775 5487 1662 
Q 5450 1550 5400 1550 
Q 5325 1550 5200 1800 
Q 4975 2150 4325 2500 
z
M 3150 3900 
Q 2500 3300 2300 3150 
Q 2800 3150 3400 3175 
Q 3700 3500 3850 3825 
L 4250 3450 
Q 4050 3400 3450 2825 
Q 2850 2250 2475 1950 
Q 3150 1975 3850 2000 
Q 3750 2175 3550 2450 
L 3600 2500 
Q 4050 2250 4200 2100 
Q 4350 1950 4350 1850 
Q 4350 1775 4250 1625 
Q 4150 1475 4100 1475 
Q 4075 1475 4050 1550 
Q 4000 1700 3900 1900 
Q 3650 1875 3075 1800 
L 3500 1550 
L 3325 1425 
L 3325 975 
L 5325 975 
L 5650 1300 
L 6100 825 
L 3325 825 
Q 3325 -275 3350 -525 
L 2975 -650 
Q 3000 0 3000 825 
L 1125 825 
Q 800 825 525 750 
L 300 975 
L 3000 975 
L 3000 1775 
Q 2450 1700 2200 1525 
L 1950 1950 
Q 2275 1950 2675 2350 
Q 3075 2750 3325 3050 
Q 2400 2950 2150 2775 
L 1950 3175 
Q 2150 3150 2475 3575 
Q 2800 4000 2900 4225 
L 1450 4225 
Q 1125 4225 850 4150 
L 625 4375 
L 3100 4375 
Q 3050 4800 2675 5200 
L 2725 5250 
Q 3225 5050 3337 4912 
Q 3450 4775 3450 4700 
Q 3450 4550 3250 4375 
L 5025 4375 
L 5350 4675 
L 5775 4225 
L 3050 4225 
L 3375 3950 
L 3150 3900 
z
" transform="scale(0.015625)"/>
      </defs>
      <use xlink:href="#SimSun-43"/>
      <use xlink:href="#SimSun-50" x="50"/>
      <use xlink:href="#SimSun-55" x="100"/>
      <use xlink:href="#SimSun-4f7f" x="150"/>
      <use xlink:href="#SimSun-7528" x="250"/>
      <use xlink:href="#SimSun-7387" x="350"/>
     </g>
    </g>
   </g>
   <g id="line2d_11">
    <path d="M 105.770077 107.822008 
L 108.845518 134.206076 
L 111.920959 77.240484 
L 114.996399 38.863661 
L 118.07184 99.626961 
L 121.147281 100.026719 
L 124.222722 100.226603 
L 127.298163 80.43855 
L 130.373604 120.414405 
L 133.449045 130.408369 
L 136.524486 145.399315 
L 139.599927 112.81899 
L 142.675367 136.604626 
L 145.750808 138.603416 
L 151.90169 100.026719 
L 154.977131 100.226603 
L 158.052572 120.214531 
L 161.128013 110.420441 
L 164.203454 115.417423 
L 167.278895 147.797869 
L 170.354335 144.20004 
L 173.429776 162.189173 
L 176.505217 161.389656 
L 179.580658 170.783983 
L 182.656099 115.617307 
L 185.73154 98.027928 
L 188.806981 109.221167 
L 191.882422 124.811745 
L 194.957863 152.594972 
L 198.033303 166.586517 
L 201.108744 153.394488 
L 204.184185 156.992311 
L 207.259626 168.585313 
L 210.335067 184.575654 
L 213.410508 172.38302 
L 216.485949 166.386638 
L 219.56139 173.382416 
L 222.636831 176.980239 
L 225.712272 178.579272 
L 228.787712 169.584708 
L 231.863153 174.981448 
L 234.938594 167.585917 
L 238.014035 163.988084 
L 241.089476 152.195209 
L 244.164917 156.392674 
L 247.240358 168.385434 
L 250.315799 164.387847 
L 253.39124 162.389052 
L 256.46668 161.389656 
L 259.542121 160.790019 
L 262.617562 160.59014 
L 265.693003 160.59014 
L 268.768444 160.390261 
L 271.843885 170.384225 
L 274.919326 165.387243 
L 277.994767 162.988689 
L 281.070208 161.589535 
L 284.145648 170.983862 
L 287.221089 145.799073 
L 290.29653 93.030946 
L 293.371971 86.83469 
L 296.447412 103.624543 
L 299.522853 112.019474 
L 302.598294 86.235048 
L 305.673735 133.206676 
L 308.749176 156.792432 
L 311.824616 168.585313 
L 314.900057 104.623943 
L 317.975498 132.40716 
L 321.050939 116.416823 
L 324.12638 98.427686 
L 327.201821 99.427077 
L 333.352703 140.202459 
L 336.428144 150.196418 
L 339.503584 115.417423 
L 342.579025 137.8039 
L 345.654466 129.209095 
L 348.729907 154.793642 
L 351.805348 127.610062 
L 354.880789 134.006193 
L 357.95623 137.204268 
L 361.031671 158.791228 
L 364.107112 169.584708 
L 367.182552 174.981448 
L 370.257993 177.579877 
L 373.333434 168.985066 
L 376.408875 164.787601 
L 379.484316 182.576858 
L 382.559757 181.377584 
L 385.635198 150.995934 
L 388.710639 155.593158 
L 391.78608 157.991707 
L 394.86152 169.18495 
L 397.936961 174.781569 
L 401.012402 157.591949 
L 404.087843 148.997143 
L 407.163284 154.793642 
L 410.238725 157.591949 
L 413.314166 168.985066 
L 416.389607 144.599799 
L 419.465048 152.594972 
L 422.540488 156.392674 
L 425.615929 178.379398 
L 428.69137 179.378788 
L 431.766811 169.984466 
L 434.842252 175.181327 
L 437.917693 177.779756 
L 440.993134 168.985066 
L 444.068575 164.787601 
L 447.144016 172.582895 
L 450.219457 176.380602 
L 453.294897 168.385434 
L 456.370338 164.387847 
L 459.445779 162.389052 
L 462.52122 161.389656 
L 468.672102 160.59014 
L 471.747543 170.584104 
L 474.822984 95.429495 
L 477.898425 38.064145 
L 480.973865 79.239275 
L 484.049306 129.808727 
L 487.124747 144.999557 
L 490.200188 162.78881 
L 493.275629 151.595571 
L 496.35107 145.998952 
L 499.426511 143.200645 
L 502.501952 111.8196 
L 505.577393 66.047246 
L 508.652833 123.212712 
L 511.728274 131.807527 
L 514.803715 126.210903 
L 517.879156 143.200645 
L 520.954597 161.789414 
L 524.030038 151.195813 
L 527.105479 155.793037 
L 530.18092 138.003784 
L 533.256361 139.203058 
L 536.331801 139.8027 
L 539.407242 160.190382 
L 542.482683 160.190382 
L 545.558124 140.402333 
L 548.633565 150.396297 
L 551.709006 145.399315 
L 554.784447 112.81899 
L 557.859888 106.622734 
L 560.935329 133.606434 
L 564.010769 146.998348 
L 567.08621 163.588331 
L 570.161651 161.989293 
L 573.237092 161.189777 
L 576.312533 160.790019 
L 579.387974 160.59014 
L 582.463415 160.59014 
L 585.538856 160.390261 
L 588.614297 160.390261 
L 591.689737 170.384225 
L 594.765178 185.37517 
L 597.840619 172.982653 
L 600.91606 166.586517 
L 603.991501 153.594367 
L 607.066942 166.986275 
L 610.142383 163.588331 
L 613.217824 161.989293 
L 616.293265 161.189777 
L 619.368705 170.783983 
L 622.444146 175.581086 
L 625.519587 177.979635 
L 628.595028 159.190986 
L 631.670469 169.784583 
L 634.74591 165.187364 
L 637.821351 172.782774 
L 640.896792 166.586517 
L 643.972233 163.388452 
L 647.047673 171.983257 
L 650.123114 166.186759 
L 653.198555 163.188568 
L 656.273996 91.831672 
L 659.349437 106.222976 
L 662.424878 93.230821 
L 665.500319 116.816582 
L 668.57576 118.615489 
L 671.651201 149.59678 
L 674.726642 164.987484 
L 677.802082 82.637224 
L 680.877523 131.607644 
L 683.952964 136.004993 
L 687.028405 128.209694 
L 690.103846 144.20004 
L 693.179287 142.401129 
L 696.254728 61.450022 
L 699.330169 90.832272 
L 702.40561 115.617307 
L 705.48105 108.021892 
L 708.556491 144.20004 
L 711.631932 152.395088 
L 714.707373 116.416823 
L 717.782814 148.397506 
L 720.858255 144.399919 
L 723.933696 152.395088 
L 727.009137 156.392674 
L 730.084578 148.397506 
L 733.160018 134.405951 
L 736.235459 147.398106 
L 739.3109 163.788205 
L 742.386341 162.189173 
L 745.461782 161.189777 
L 748.537223 160.790019 
L 751.612664 150.596176 
L 754.688105 165.587122 
L 757.763546 162.988689 
L 760.838986 161.589535 
L 763.914427 160.989898 
L 766.989868 160.790019 
L 770.065309 170.584104 
L 773.14075 165.387243 
L 776.216191 162.988689 
L 779.291632 171.583499 
L 782.367073 165.98688 
L 785.442514 163.188568 
L 788.517954 161.789414 
L 791.593395 161.189777 
L 794.668836 170.783983 
L 797.744277 165.587122 
L 800.819718 162.988689 
L 803.895159 161.589535 
L 806.9706 170.983862 
L 810.046041 165.787001 
L 813.121482 152.994725 
L 816.196922 166.786396 
L 819.272363 163.588331 
L 822.347804 171.983257 
L 825.423245 156.192795 
L 828.498686 128.209694 
L 831.574127 154.393883 
L 834.649568 107.42225 
L 837.725009 143.800282 
L 840.80045 152.195209 
L 843.87589 166.186759 
L 846.951331 133.40656 
L 850.026772 106.822618 
L 853.102213 143.600403 
L 856.177654 151.99533 
L 859.253095 136.204867 
L 862.328536 138.403542 
L 865.403977 139.402942 
L 868.479418 119.814763 
L 871.554858 150.196418 
L 874.630299 155.1934 
L 877.70574 157.791833 
L 880.781181 139.203058 
L 883.856622 129.808727 
L 886.932063 115.017665 
L 890.007504 137.8039 
L 893.082945 129.009211 
L 896.158386 34.86608 
L 899.233827 97.62817 
L 902.309267 89.033355 
L 905.384708 124.611871 
L 908.460149 92.631188 
L 911.53559 56.45304 
L 914.611031 78.439759 
L 917.686472 129.408969 
L 920.761913 144.999557 
L 923.837354 122.61308 
L 926.912795 141.601607 
L 929.988235 121.014047 
L 933.063676 140.602212 
L 936.139117 150.596176 
L 939.214558 165.387243 
L 942.289999 162.988689 
L 945.36544 161.589535 
L 948.440881 160.989898 
L 951.516322 160.790019 
L 954.591763 170.584104 
L 957.667203 175.381207 
L 960.742644 167.985671 
L 963.818085 164.187968 
L 966.893526 172.183136 
L 969.968967 166.386638 
L 973.044408 163.388452 
L 976.119849 171.783378 
L 979.19529 156.192795 
L 982.270731 168.18555 
L 985.346171 164.387847 
L 988.421612 162.389052 
L 988.421612 162.389052 
" clip-path="url(#pe7121911f6)" style="fill: none; stroke: #1f77b4; stroke-width: 1.5; stroke-linecap: square"/>
   </g>
   <g id="line2d_12">
    <path d="M 548.633565 145.973848 
L 551.709006 151.607652 
L 554.784447 158.133242 
L 557.859888 160.114896 
L 560.935329 157.127432 
L 564.010769 159.280582 
L 567.08621 160.235201 
L 570.161651 158.448684 
L 573.237092 155.344242 
L 576.312533 153.214605 
L 579.387974 157.596157 
L 582.463415 157.272122 
L 585.538856 160.838689 
L 588.614297 158.171833 
L 591.689737 159.768107 
L 594.765178 156.522505 
L 597.840619 160.311311 
L 600.91606 160.66716 
L 603.991501 163.54355 
L 607.066942 166.64946 
L 610.142383 169.032321 
L 613.217824 165.443366 
L 616.293265 165.416184 
L 619.368705 166.043928 
L 622.444146 163.167023 
L 625.519587 160.715549 
L 631.670469 161.056696 
L 634.74591 158.451811 
L 637.821351 153.364975 
L 643.972233 149.684432 
L 647.047673 148.738663 
L 650.123114 146.103755 
L 653.198555 143.14974 
L 656.273996 139.122922 
L 659.349437 134.796979 
L 662.424878 136.764193 
L 665.500319 132.640688 
L 668.57576 125.555467 
L 671.651201 119.666804 
L 674.726642 119.262604 
L 677.802082 118.980382 
L 680.877523 116.884328 
L 683.952964 113.173209 
L 687.028405 119.501727 
L 690.103846 121.829881 
L 693.179287 119.808482 
L 696.254728 121.50007 
L 699.330169 124.54502 
L 702.40561 128.755715 
L 705.48105 134.079972 
L 708.556491 133.944927 
L 711.631932 139.26928 
L 714.707373 141.87722 
L 717.782814 142.601398 
L 720.858255 146.907532 
L 723.933696 148.314853 
L 727.009137 152.043356 
L 730.084578 161.203954 
L 733.160018 156.915516 
L 736.235459 162.415986 
L 739.3109 163.430545 
L 742.386341 160.442767 
L 745.461782 162.348087 
L 748.537223 160.173769 
L 751.612664 159.893034 
L 754.688105 160.365599 
L 757.763546 160.964955 
L 760.838986 163.860112 
L 763.914427 161.375226 
L 766.989868 161.401665 
L 770.065309 162.492387 
L 773.14075 165.58157 
L 776.216191 166.236282 
L 779.291632 160.301942 
L 782.367073 162.328835 
L 785.442514 165.010197 
L 788.517954 162.494907 
L 791.593395 160.616503 
L 794.668836 159.42917 
L 797.744277 165.511918 
L 800.819718 164.810918 
L 803.895159 164.692844 
L 806.9706 165.664223 
L 810.046041 165.911952 
L 813.121482 164.041887 
L 816.196922 157.814197 
L 819.272363 158.030612 
L 822.347804 149.950909 
L 825.423245 148.497953 
L 828.498686 141.967631 
L 831.574127 146.156294 
L 834.649568 144.21357 
L 837.725009 143.978107 
L 840.80045 143.102442 
L 843.87589 141.938342 
L 846.951331 136.795388 
L 850.026772 128.514705 
L 853.102213 125.55377 
L 856.177654 121.277865 
L 859.253095 117.884729 
L 862.328536 118.420256 
L 865.403977 117.181514 
L 868.479418 121.829375 
L 871.554858 121.250921 
L 874.630299 120.382562 
L 877.70574 123.701785 
L 880.781181 119.96764 
L 883.856622 123.080146 
L 886.932063 131.260944 
L 890.007504 134.883529 
L 893.082945 134.09565 
L 896.158386 140.43663 
L 899.233827 136.210929 
L 902.309267 139.737613 
L 905.384708 144.9749 
L 908.460149 145.388469 
L 911.53559 147.998405 
L 914.611031 152.332193 
L 917.686472 149.586663 
L 920.761913 152.664877 
L 923.837354 156.754723 
L 926.912795 157.915183 
L 929.988235 162.618358 
L 933.063676 160.401622 
L 936.139117 162.15946 
L 939.214558 156.969256 
L 942.289999 159.775183 
L 945.36544 161.381526 
L 948.440881 163.19006 
L 951.516322 165.205649 
L 954.591763 158.808174 
L 957.667203 164.171041 
L 960.742644 164.085205 
L 963.818085 157.680711 
L 966.893526 159.53262 
L 969.968967 161.749365 
L 973.044408 160.912802 
L 976.119849 163.731929 
L 979.19529 163.527471 
L 982.270731 165.749982 
L 985.346171 163.060791 
L 988.421612 166.052949 
L 988.421612 166.052949 
" clip-path="url(#pe7121911f6)" style="fill: none; stroke: #ff7f0e; stroke-width: 1.5; stroke-linecap: square"/>
   </g>
   <g id="line2d_13">
    <path d="M 548.633565 192.900625 
L 548.633565 27.340625 
" clip-path="url(#pe7121911f6)" style="fill: none; stroke-dasharray: 7.4,3.2; stroke-dashoffset: 0; stroke: #0000ff; stroke-width: 2"/>
   </g>
   <g id="patch_3">
    <path d="M 61.6375 192.900625 
L 61.6375 27.340625 
" style="fill: none; stroke: #000000; stroke-width: 0.8; stroke-linejoin: miter; stroke-linecap: square"/>
   </g>
   <g id="patch_4">
    <path d="M 1032.554189 192.900625 
L 1032.554189 27.340625 
" style="fill: none; stroke: #000000; stroke-width: 0.8; stroke-linejoin: miter; stroke-linecap: square"/>
   </g>
   <g id="patch_5">
    <path d="M 61.6375 192.900625 
L 1032.554189 192.900625 
" style="fill: none; stroke: #000000; stroke-width: 0.8; stroke-linejoin: miter; stroke-linecap: square"/>
   </g>
   <g id="patch_6">
    <path d="M 61.6375 27.340625 
L 1032.554189 27.340625 
" style="fill: none; stroke: #000000; stroke-width: 0.8; stroke-linejoin: miter; stroke-linecap: square"/>
   </g>
   <g id="text_12">
    <!-- API_ID: 4 -->
    <g transform="translate(502.095845 21.340625) scale(0.2 -0.2)">
     <defs>
      <path id="SimSun-41" d="M 2025 1700 
L 900 1700 
L 675 750 
Q 650 625 650 550 
Q 650 450 687 350 
Q 725 250 900 250 
L 975 250 
L 975 100 
L 50 100 
L 50 250 
L 125 250 
Q 225 250 300 312 
Q 375 375 400 525 
L 1375 4350 
L 1750 4475 
L 2700 525 
Q 2750 375 2825 312 
Q 2900 250 3000 250 
L 3075 250 
L 3075 100 
L 2000 100 
L 2000 250 
L 2100 250 
Q 2250 250 2275 312 
Q 2300 375 2300 425 
Q 2300 525 2275 600 
L 2025 1700 
z
M 325 250 
L 325 250 
z
M 575 250 
L 575 250 
z
M 2350 250 
L 2350 250 
z
M 2775 250 
L 2775 250 
z
M 1500 3925 
L 1475 3925 
L 950 1850 
L 2000 1850 
L 1500 3925 
z
" transform="scale(0.015625)"/>
      <path id="SimSun-49" d="M 600 4225 
L 600 4375 
L 2600 4375 
L 2600 4225 
L 2025 4225 
Q 1925 4225 1862 4175 
Q 1800 4125 1800 4025 
L 1800 450 
Q 1800 350 1862 300 
Q 1925 250 2025 250 
L 2600 250 
L 2600 100 
L 600 100 
L 600 250 
L 1175 250 
Q 1300 250 1350 300 
Q 1400 350 1400 450 
L 1400 4025 
Q 1400 4125 1350 4175 
Q 1300 4225 1175 4225 
L 600 4225 
z
" transform="scale(0.015625)"/>
      <path id="SimSun-5f" d="M 0 -875 
L 0 -725 
L 3175 -725 
L 3175 -875 
L 0 -875 
z
" transform="scale(0.015625)"/>
      <path id="SimSun-44" d="M 2500 2275 
Q 2500 3350 2175 3787 
Q 1850 4225 1275 4225 
Q 1100 4225 1012 4175 
Q 925 4125 925 4025 
L 925 450 
Q 925 350 1000 300 
Q 1075 250 1200 250 
Q 1750 250 2125 662 
Q 2500 1075 2500 2275 
z
M 525 4025 
Q 525 4125 475 4175 
Q 425 4225 300 4225 
L 150 4225 
L 150 4375 
L 1275 4375 
Q 2050 4375 2512 3875 
Q 2975 3375 2975 2325 
Q 2975 1175 2525 637 
Q 2075 100 1200 100 
L 125 100 
L 125 250 
L 300 250 
Q 425 250 475 300 
Q 525 350 525 450 
L 525 4025 
z
" transform="scale(0.015625)"/>
      <path id="SimSun-3a" d="M 1900 2725 
Q 1900 2575 1800 2475 
Q 1700 2375 1550 2375 
Q 1400 2375 1300 2475 
Q 1200 2575 1200 2725 
Q 1200 2875 1300 2975 
Q 1400 3075 1550 3075 
Q 1700 3075 1800 2975 
Q 1900 2875 1900 2725 
z
M 1900 375 
Q 1900 225 1800 125 
Q 1700 25 1550 25 
Q 1400 25 1300 125 
Q 1200 225 1200 375 
Q 1200 525 1300 625 
Q 1400 725 1550 725 
Q 1700 725 1800 625 
Q 1900 525 1900 375 
z
" transform="scale(0.015625)"/>
      <path id="SimSun-20" d="M 0 0 
Q 0 0 0 0 
z
" transform="scale(0.015625)"/>
      <path id="SimSun-34" d="M 2300 575 
Q 2300 400 2400 325 
Q 2500 250 2675 250 
L 2900 250 
L 2900 100 
L 1250 100 
L 1250 250 
L 1525 250 
Q 1725 250 1812 325 
Q 1900 400 1900 575 
L 1900 1400 
L 225 1400 
L 225 1525 
L 2050 4425 
L 2300 4425 
L 2300 1550 
L 2975 1550 
L 2975 1400 
L 2300 1400 
L 2300 575 
z
M 1875 3800 
L 450 1550 
L 1900 1550 
L 1900 3800 
L 1875 3800 
z
" transform="scale(0.015625)"/>
     </defs>
     <use xlink:href="#SimSun-41"/>
     <use xlink:href="#SimSun-50" x="50"/>
     <use xlink:href="#SimSun-49" x="100"/>
     <use xlink:href="#SimSun-5f" x="150"/>
     <use xlink:href="#SimSun-49" x="200"/>
     <use xlink:href="#SimSun-44" x="250"/>
     <use xlink:href="#SimSun-3a" x="300"/>
     <use xlink:href="#SimSun-20" x="350"/>
     <use xlink:href="#SimSun-34" x="400"/>
    </g>
   </g>
   <g id="legend_1">
    <g id="patch_7">
     <path d="M 75.6375 100.215625 
L 199.6375 100.215625 
Q 203.6375 100.215625 203.6375 96.215625 
L 203.6375 41.340625 
Q 203.6375 37.340625 199.6375 37.340625 
L 75.6375 37.340625 
Q 71.6375 37.340625 71.6375 41.340625 
L 71.6375 96.215625 
Q 71.6375 100.215625 75.6375 100.215625 
z
" style="fill: #ffffff; opacity: 0.8; stroke: #cccccc; stroke-linejoin: miter"/>
    </g>
    <g id="line2d_14">
     <path d="M 79.6375 54.278125 
L 99.6375 54.278125 
L 119.6375 54.278125 
" style="fill: none; stroke: #1f77b4; stroke-width: 1.5; stroke-linecap: square"/>
    </g>
    <g id="text_13">
     <!-- 真实值 -->
     <g transform="translate(135.6375 61.278125) scale(0.2 -0.2)">
      <defs>
       <path id="SimSun-771f" d="M 2050 3450 
L 2050 2900 
L 4300 2900 
L 4300 3450 
L 2050 3450 
z
M 2050 2750 
L 2050 2225 
L 4300 2225 
L 4300 2750 
L 2050 2750 
z
M 2050 2075 
L 2050 1550 
L 4300 1550 
L 4300 2075 
L 2050 2075 
z
M 2050 1400 
L 2050 875 
L 4300 875 
L 4300 1400 
L 2050 1400 
z
M 2875 3600 
L 2925 4325 
L 1525 4325 
Q 1200 4325 925 4250 
L 700 4475 
L 2950 4475 
Q 2975 4825 2975 5275 
L 3550 5025 
L 3375 4925 
L 3300 4475 
L 5000 4475 
L 5325 4825 
L 5775 4325 
L 3275 4325 
L 3200 3600 
L 4275 3600 
L 4450 3875 
L 4850 3575 
L 4650 3375 
L 4650 875 
L 5300 875 
L 5675 1225 
L 6125 725 
L 1150 725 
Q 825 725 550 650 
L 325 875 
L 1700 875 
Q 1700 3200 1675 3775 
L 2050 3600 
L 2875 3600 
z
M 2425 725 
L 2825 350 
L 2575 300 
Q 1500 -425 800 -650 
L 775 -575 
Q 1950 125 2425 725 
z
M 3800 700 
Q 4575 375 4962 200 
Q 5350 25 5400 -112 
Q 5450 -250 5450 -325 
Q 5450 -400 5400 -525 
Q 5350 -650 5325 -650 
Q 5250 -650 5100 -450 
Q 4875 -150 3750 625 
L 3800 700 
z
" transform="scale(0.015625)"/>
       <path id="SimSun-5b9e" d="M 1950 3625 
Q 2575 3400 2700 3250 
Q 2825 3100 2825 2975 
Q 2825 2850 2750 2700 
Q 2675 2550 2625 2550 
Q 2550 2550 2450 2800 
Q 2275 3175 1900 3550 
L 1950 3625 
z
M 3575 1325 
Q 3500 1100 3425 925 
Q 4650 550 5087 325 
Q 5525 100 5512 -225 
Q 5500 -550 5400 -550 
Q 5300 -550 5075 -300 
Q 4625 175 3375 800 
Q 3025 175 2300 -150 
Q 1575 -475 425 -625 
L 425 -525 
Q 1475 -325 2200 100 
Q 2925 525 3200 1325 
L 1225 1325 
Q 900 1325 625 1250 
L 400 1475 
L 3225 1475 
Q 3325 1950 3375 2575 
Q 3425 3200 3425 3700 
L 4050 3400 
L 3850 3225 
Q 3750 2300 3625 1475 
L 5175 1475 
L 5550 1850 
L 6075 1325 
L 3575 1325 
z
M 1275 2700 
Q 1975 2425 2100 2262 
Q 2225 2100 2225 1975 
Q 2225 1850 2150 1700 
Q 2075 1550 2025 1550 
Q 1950 1550 1850 1800 
Q 1675 2175 1225 2625 
L 1275 2700 
z
M 2750 5225 
L 2825 5275 
Q 3225 5100 3425 4925 
Q 3625 4750 3625 4600 
Q 3625 4450 3512 4300 
Q 3400 4150 3325 4150 
Q 3250 4150 3200 4400 
Q 3100 4775 2750 5225 
z
M 4975 3225 
L 5350 3925 
L 1175 3925 
Q 1225 3525 1125 3300 
Q 1025 3075 787 3100 
Q 550 3125 550 3200 
Q 550 3300 700 3475 
Q 975 3825 1050 4375 
L 1150 4375 
L 1175 4075 
L 5300 4075 
L 5575 4350 
L 6050 3800 
Q 5625 3825 5050 3175 
L 4975 3225 
z
" transform="scale(0.015625)"/>
       <path id="SimSun-503c" d="M 1525 650 
Q 1525 -225 1550 -525 
L 1175 -650 
Q 1200 250 1200 550 
L 1200 3025 
Q 750 2300 325 1850 
L 250 1900 
Q 725 2625 1100 3525 
Q 1475 4425 1675 5200 
L 2200 4875 
L 1950 4725 
Q 1550 3800 1425 3475 
L 1725 3300 
L 1525 3150 
L 1525 650 
z
M 2875 3225 
L 2875 2475 
L 4800 2475 
L 4800 3225 
L 2875 3225 
z
M 2875 2325 
L 2875 1575 
L 4800 1575 
L 4800 2325 
L 2875 2325 
z
M 2875 1425 
L 2875 675 
L 4800 675 
L 4800 1425 
L 2875 1425 
z
M 2875 525 
L 2875 -225 
L 4800 -225 
L 4800 525 
L 2875 525 
z
M 3550 4250 
Q 3575 4825 3550 5225 
L 4125 4950 
L 3925 4800 
L 3900 4250 
L 5025 4250 
L 5350 4575 
L 5825 4100 
L 3900 4100 
L 3875 3375 
L 4750 3375 
L 4975 3625 
L 5350 3300 
L 5125 3150 
L 5125 -225 
L 5350 -225 
L 5675 100 
L 6150 -375 
L 2450 -375 
Q 2125 -375 1850 -450 
L 1625 -225 
L 2550 -225 
L 2550 2550 
Q 2550 2850 2525 3575 
L 2875 3375 
L 3525 3375 
L 3550 4100 
L 2800 4100 
Q 2475 4100 2200 4025 
L 1975 4250 
L 3550 4250 
z
" transform="scale(0.015625)"/>
      </defs>
      <use xlink:href="#SimSun-771f"/>
      <use xlink:href="#SimSun-5b9e" x="100"/>
      <use xlink:href="#SimSun-503c" x="200"/>
     </g>
    </g>
    <g id="line2d_15">
     <path d="M 79.6375 82.6375 
L 99.6375 82.6375 
L 119.6375 82.6375 
" style="fill: none; stroke: #ff7f0e; stroke-width: 1.5; stroke-linecap: square"/>
    </g>
    <g id="text_14">
     <!-- 预测值 -->
     <g transform="translate(135.6375 89.6375) scale(0.2 -0.2)">
      <defs>
       <path id="SimSun-9884" d="M 475 4825 
L 2225 4825 
L 2425 5075 
L 2825 4675 
Q 2600 4625 2387 4412 
Q 2175 4200 1800 3750 
Q 2050 3575 2037 3400 
Q 2025 3225 1937 3150 
Q 1850 3075 1825 3075 
Q 1725 3075 1650 3300 
Q 1525 3600 1050 4100 
L 1100 4150 
Q 1475 3975 1700 3825 
L 2225 4675 
L 1300 4675 
Q 975 4675 700 4600 
L 475 4825 
z
M 725 100 
Q 1175 50 1362 37 
Q 1550 25 1550 275 
L 1550 2875 
L 1125 2875 
Q 800 2875 525 2800 
L 300 3025 
L 2525 3025 
L 2725 3275 
L 3150 2875 
Q 2800 2825 2275 2075 
L 2200 2125 
L 2550 2875 
L 1875 2875 
L 1875 150 
Q 1875 -400 1350 -500 
Q 1325 -175 725 0 
L 725 100 
z
M 3250 775 
Q 3275 1425 3275 2287 
Q 3275 3150 3250 3900 
L 3600 3700 
L 4050 3700 
Q 4175 4400 4200 4675 
L 3650 4675 
Q 3325 4675 3050 4600 
L 2825 4825 
L 5325 4825 
L 5675 5150 
L 6125 4675 
L 4675 4675 
Q 4500 4425 4175 3700 
L 5300 3700 
L 5475 3975 
L 5875 3675 
L 5675 3475 
L 5675 1950 
Q 5675 1525 5700 1075 
L 5350 875 
L 5350 3550 
L 3600 3550 
L 3600 1000 
L 3250 775 
z
M 4850 2875 
L 4625 2675 
Q 4625 1475 4475 937 
Q 4325 400 3900 50 
Q 3475 -300 2425 -625 
L 2400 -550 
Q 3500 -50 3837 400 
Q 4175 850 4237 1587 
Q 4300 2325 4275 3175 
L 4850 2875 
z
M 4650 950 
Q 5725 375 5875 212 
Q 6025 50 6025 -125 
Q 6025 -225 5962 -387 
Q 5900 -550 5850 -550 
Q 5800 -550 5750 -450 
Q 5625 -250 5437 0 
Q 5250 250 4600 875 
L 4650 950 
z
" transform="scale(0.015625)"/>
       <path id="SimSun-6d4b" d="M 1975 1000 
Q 2000 1475 2000 2925 
Q 2000 4375 1975 5000 
L 2350 4775 
L 3575 4775 
L 3775 4975 
L 4100 4650 
L 3900 4500 
L 3900 2350 
Q 3900 1850 3925 1350 
L 3600 1200 
L 3600 4625 
L 2325 4625 
L 2325 1150 
L 1975 1000 
z
M 2775 3975 
L 3300 3700 
L 3125 3525 
Q 3150 1825 2875 937 
Q 2600 50 1375 -600 
L 1325 -500 
Q 2200 100 2475 725 
Q 2750 1350 2775 2187 
Q 2800 3025 2775 3975 
z
M 3100 950 
Q 3825 450 3937 262 
Q 4050 75 4050 -25 
Q 4050 -150 3975 -262 
Q 3900 -375 3850 -375 
Q 3750 -375 3650 -75 
Q 3500 375 3050 875 
L 3100 950 
z
M 4475 825 
Q 4500 1200 4500 1700 
L 4500 3400 
Q 4500 3950 4475 4300 
L 5025 4025 
L 4825 3825 
L 4825 1700 
Q 4825 1325 4850 950 
L 4475 825 
z
M 5375 150 
L 5375 4050 
Q 5375 4750 5350 5125 
L 5875 4875 
L 5700 4700 
L 5700 75 
Q 5700 -200 5600 -350 
Q 5500 -500 5200 -600 
Q 5025 -225 4450 -50 
L 4450 50 
Q 5125 -50 5250 -37 
Q 5375 -25 5375 150 
z
M 1850 3500 
Q 1375 1525 1300 1225 
Q 1200 900 1212 450 
Q 1225 0 1250 -175 
Q 1250 -275 1125 -275 
Q 1025 -275 875 -225 
Q 725 -175 725 0 
Q 725 125 800 375 
Q 875 625 875 775 
Q 875 950 762 1050 
Q 650 1150 275 1250 
L 275 1350 
Q 725 1300 837 1312 
Q 950 1325 1087 1537 
Q 1225 1750 1750 3525 
L 1850 3500 
z
M 375 3775 
Q 1075 3350 1112 3100 
Q 1150 2850 1050 2775 
Q 950 2700 900 2700 
Q 800 2700 725 2975 
Q 600 3350 325 3700 
L 375 3775 
z
M 800 5100 
Q 1475 4725 1550 4512 
Q 1625 4300 1525 4187 
Q 1425 4075 1350 4075 
Q 1275 4075 1200 4300 
Q 1075 4650 750 5025 
L 800 5100 
z
" transform="scale(0.015625)"/>
      </defs>
      <use xlink:href="#SimSun-9884"/>
      <use xlink:href="#SimSun-6d4b" x="100"/>
      <use xlink:href="#SimSun-503c" x="200"/>
     </g>
    </g>
   </g>
  </g>
  <g id="axes_2">
   <g id="patch_8">
    <path d="M 61.6375 425.700625 
L 1032.554189 425.700625 
L 1032.554189 260.140625 
L 61.6375 260.140625 
z
" style="fill: #ffffff"/>
   </g>
   <g id="matplotlib.axis_3">
    <g id="xtick_8">
     <g id="line2d_16">
      <g>
       <use xlink:href="#m8fe34d5de5" x="105.770077" y="425.700625" style="stroke: #000000; stroke-width: 0.8"/>
      </g>
     </g>
     <g id="text_15">
      <!-- 0 -->
      <g transform="translate(100.770077 446.588125) scale(0.2 -0.2)">
       <use xlink:href="#TimesNewRomanPSMT-30"/>
      </g>
     </g>
    </g>
    <g id="xtick_9">
     <g id="line2d_17">
      <g>
       <use xlink:href="#m8fe34d5de5" x="259.542121" y="425.700625" style="stroke: #000000; stroke-width: 0.8"/>
      </g>
     </g>
     <g id="text_16">
      <!-- 50 -->
      <g transform="translate(249.542121 446.588125) scale(0.2 -0.2)">
       <use xlink:href="#TimesNewRomanPSMT-35"/>
       <use xlink:href="#TimesNewRomanPSMT-30" x="50"/>
      </g>
     </g>
    </g>
    <g id="xtick_10">
     <g id="line2d_18">
      <g>
       <use xlink:href="#m8fe34d5de5" x="413.314166" y="425.700625" style="stroke: #000000; stroke-width: 0.8"/>
      </g>
     </g>
     <g id="text_17">
      <!-- 100 -->
      <g transform="translate(398.314166 446.588125) scale(0.2 -0.2)">
       <use xlink:href="#TimesNewRomanPSMT-31"/>
       <use xlink:href="#TimesNewRomanPSMT-30" x="50"/>
       <use xlink:href="#TimesNewRomanPSMT-30" x="100"/>
      </g>
     </g>
    </g>
    <g id="xtick_11">
     <g id="line2d_19">
      <g>
       <use xlink:href="#m8fe34d5de5" x="567.08621" y="425.700625" style="stroke: #000000; stroke-width: 0.8"/>
      </g>
     </g>
     <g id="text_18">
      <!-- 150 -->
      <g transform="translate(552.08621 446.588125) scale(0.2 -0.2)">
       <use xlink:href="#TimesNewRomanPSMT-31"/>
       <use xlink:href="#TimesNewRomanPSMT-35" x="50"/>
       <use xlink:href="#TimesNewRomanPSMT-30" x="100"/>
      </g>
     </g>
    </g>
    <g id="xtick_12">
     <g id="line2d_20">
      <g>
       <use xlink:href="#m8fe34d5de5" x="720.858255" y="425.700625" style="stroke: #000000; stroke-width: 0.8"/>
      </g>
     </g>
     <g id="text_19">
      <!-- 200 -->
      <g transform="translate(705.858255 446.588125) scale(0.2 -0.2)">
       <use xlink:href="#TimesNewRomanPSMT-32"/>
       <use xlink:href="#TimesNewRomanPSMT-30" x="50"/>
       <use xlink:href="#TimesNewRomanPSMT-30" x="100"/>
      </g>
     </g>
    </g>
    <g id="xtick_13">
     <g id="line2d_21">
      <g>
       <use xlink:href="#m8fe34d5de5" x="874.630299" y="425.700625" style="stroke: #000000; stroke-width: 0.8"/>
      </g>
     </g>
     <g id="text_20">
      <!-- 250 -->
      <g transform="translate(859.630299 446.588125) scale(0.2 -0.2)">
       <use xlink:href="#TimesNewRomanPSMT-32"/>
       <use xlink:href="#TimesNewRomanPSMT-35" x="50"/>
       <use xlink:href="#TimesNewRomanPSMT-30" x="100"/>
      </g>
     </g>
    </g>
    <g id="xtick_14">
     <g id="line2d_22">
      <g>
       <use xlink:href="#m8fe34d5de5" x="1028.402344" y="425.700625" style="stroke: #000000; stroke-width: 0.8"/>
      </g>
     </g>
     <g id="text_21">
      <!-- 300 -->
      <g transform="translate(1013.402344 446.588125) scale(0.2 -0.2)">
       <use xlink:href="#TimesNewRomanPSMT-33"/>
       <use xlink:href="#TimesNewRomanPSMT-30" x="50"/>
       <use xlink:href="#TimesNewRomanPSMT-30" x="100"/>
      </g>
     </g>
    </g>
   </g>
   <g id="matplotlib.axis_4">
    <g id="ytick_4">
     <g id="line2d_23">
      <g>
       <use xlink:href="#md624023935" x="61.6375" y="361.990229" style="stroke: #000000; stroke-width: 0.8"/>
      </g>
     </g>
     <g id="text_22">
      <!-- 20 -->
      <g transform="translate(34.6375 368.933979) scale(0.2 -0.2)">
       <use xlink:href="#TimesNewRomanPSMT-32"/>
       <use xlink:href="#TimesNewRomanPSMT-30" x="50"/>
      </g>
     </g>
    </g>
    <g id="ytick_5">
     <g id="line2d_24">
      <g>
       <use xlink:href="#md624023935" x="61.6375" y="297.998268" style="stroke: #000000; stroke-width: 0.8"/>
      </g>
     </g>
     <g id="text_23">
      <!-- 40 -->
      <g transform="translate(34.6375 304.942018) scale(0.2 -0.2)">
       <defs>
        <path id="TimesNewRomanPSMT-34" d="M 2978 1563 
L 2978 1119 
L 2409 1119 
L 2409 0 
L 1894 0 
L 1894 1119 
L 100 1119 
L 100 1519 
L 2066 4325 
L 2409 4325 
L 2409 1563 
L 2978 1563 
z
M 1894 1563 
L 1894 3666 
L 406 1563 
L 1894 1563 
z
" transform="scale(0.015625)"/>
       </defs>
       <use xlink:href="#TimesNewRomanPSMT-34"/>
       <use xlink:href="#TimesNewRomanPSMT-30" x="50"/>
      </g>
     </g>
    </g>
    <g id="text_24">
     <!-- CPU使用率 -->
     <g transform="translate(28.059375 387.920625) rotate(-90) scale(0.2 -0.2)">
      <use xlink:href="#SimSun-43"/>
      <use xlink:href="#SimSun-50" x="50"/>
      <use xlink:href="#SimSun-55" x="100"/>
      <use xlink:href="#SimSun-4f7f" x="150"/>
      <use xlink:href="#SimSun-7528" x="250"/>
      <use xlink:href="#SimSun-7387" x="350"/>
     </g>
    </g>
   </g>
   <g id="line2d_25">
    <path d="M 105.770077 310.316715 
L 108.845518 308.940887 
L 111.920959 306.669175 
L 114.996399 332.745898 
L 118.07184 348.96786 
L 121.147281 363.462041 
L 124.222722 386.723123 
L 127.298163 385.571266 
L 130.373604 383.363545 
L 133.449045 380.675882 
L 136.524486 353.73526 
L 139.599927 346.664151 
L 142.675367 351.143593 
L 145.750808 364.549905 
L 148.826249 361.670268 
L 151.90169 357.030848 
L 154.977131 369.125331 
L 158.052572 368.741377 
L 161.128013 371.780997 
L 164.203454 346.088223 
L 167.278895 352.423431 
L 170.354335 339.625039 
L 173.429776 357.190826 
L 176.505217 346.792132 
L 179.580658 348.007983 
L 185.73154 368.101461 
L 188.806981 376.22844 
L 191.882422 385.123321 
L 194.957863 384.739373 
L 198.033303 379.779995 
L 201.108744 370.885114 
L 204.184185 356.838874 
L 207.259626 356.198958 
L 210.335067 357.510787 
L 213.410508 375.748501 
L 216.485949 392.866352 
L 219.56139 398.209678 
L 222.636831 397.697743 
L 225.712272 403.840971 
L 228.787712 411.711982 
L 231.863153 402.849096 
L 234.938594 409.632243 
L 238.014035 404.992827 
L 241.089476 397.88972 
L 244.164917 389.538767 
L 247.240358 388.578887 
L 250.315799 384.867357 
L 253.39124 381.443785 
L 256.46668 373.316803 
L 259.542121 375.652514 
L 262.617562 360.806375 
L 265.693003 364.613898 
L 271.843885 333.033863 
L 274.919326 336.329451 
L 277.994767 337.961247 
L 281.070208 359.558534 
L 284.145648 346.376187 
L 287.221089 330.186222 
L 290.29653 350.88762 
L 293.371971 351.655522 
L 296.447412 364.805872 
L 299.522853 350.599661 
L 302.598294 346.696148 
L 305.673735 363.941979 
L 308.749176 366.181701 
L 311.824616 351.271574 
L 314.900057 363.046096 
L 317.975498 348.103973 
L 321.050939 356.646894 
L 324.12638 352.93536 
L 327.201821 349.447804 
L 330.277262 350.919616 
L 333.352703 338.85713 
L 336.428144 315.244099 
L 339.503584 301.805797 
L 342.579025 299.918034 
L 345.654466 313.356336 
L 348.729907 280.080523 
L 351.805348 284.239998 
L 354.880789 311.916514 
L 357.95623 319.339593 
L 361.031671 356.678896 
L 364.107112 354.535166 
L 367.182552 372.64489 
L 370.257993 359.334563 
L 373.333434 367.045593 
L 376.408875 369.317305 
L 379.484316 364.069966 
L 382.559757 371.013094 
L 385.635198 376.100459 
L 388.710639 385.059331 
L 391.78608 400.705365 
L 394.86152 408.544381 
L 397.936961 399.681493 
L 401.012402 387.235059 
L 404.087843 363.398048 
L 407.163284 370.693133 
L 410.238725 382.339674 
L 413.314166 368.965354 
L 416.389607 357.478796 
L 419.465048 351.751513 
L 422.540488 347.272076 
L 425.615929 349.831752 
L 428.69137 360.710391 
L 431.766811 350.151714 
L 434.842252 349.671775 
L 437.917693 349.415807 
L 440.993134 346.120219 
L 444.068575 350.855623 
L 447.144016 366.021717 
L 450.219457 365.605772 
L 453.294897 374.980598 
L 456.370338 363.686018 
L 459.445779 364.453921 
L 462.52122 364.805872 
L 465.596661 345.800258 
L 468.672102 344.296449 
L 474.822984 375.172572 
L 477.898425 373.380796 
L 480.973865 375.684508 
L 484.049306 372.036965 
L 487.124747 370.213195 
L 490.200188 337.289328 
L 493.275629 301.645807 
L 496.35107 299.822038 
L 499.426511 286.127762 
L 502.501952 285.647829 
L 505.577393 274.225265 
L 508.652833 279.728566 
L 511.728274 311.244614 
L 514.803715 307.821033 
L 517.879156 309.324848 
L 520.954597 342.056728 
L 524.030038 342.408686 
L 527.105479 336.201464 
L 530.18092 336.297454 
L 536.331801 287.567583 
L 539.407242 310.380721 
L 542.482683 318.603675 
L 545.558124 314.700173 
L 548.633565 355.942984 
L 551.709006 382.947597 
L 554.784447 394.882096 
L 557.859888 400.833349 
L 560.935329 408.608373 
L 564.010769 409.280289 
L 567.08621 409.632243 
L 570.161651 414.623617 
L 573.237092 412.28791 
L 576.312533 411.136055 
L 579.387974 415.359524 
L 582.463415 411.072063 
L 585.538856 410.528132 
L 588.614297 407.072566 
L 591.689737 411.711982 
L 594.765178 402.849096 
L 597.840619 408.032444 
L 600.91606 413.791721 
L 603.991501 408.70436 
L 607.066942 404.544884 
L 610.142383 412.063939 
L 613.217824 407.808473 
L 616.293265 405.696738 
L 619.368705 396.641875 
L 622.444146 388.930845 
L 625.519587 385.059331 
L 628.595028 384.707376 
L 631.670469 368.549402 
L 634.74591 370.085208 
L 637.821351 348.423928 
L 640.896792 368.00547 
L 643.972233 344.200465 
L 647.047673 348.295947 
L 650.123114 348.743889 
L 653.198555 336.169473 
L 656.273996 344.296449 
L 659.349437 351.527542 
L 662.424878 364.773882 
L 665.500319 363.366057 
L 668.57576 378.692131 
L 671.651201 373.54078 
L 674.726642 367.749503 
L 677.802082 347.272076 
L 680.877523 325.834767 
L 683.952964 324.714913 
L 687.028405 296.974397 
L 690.103846 299.086131 
L 693.179287 311.340598 
L 696.254728 306.253224 
L 699.330169 318.123742 
L 702.40561 308.077006 
L 705.48105 285.423859 
L 708.556491 269.329872 
L 711.631932 267.66608 
L 714.707373 306.829165 
L 717.782814 297.614319 
L 720.858255 301.005898 
L 723.933696 302.701681 
L 727.009137 309.932767 
L 730.084578 319.979515 
L 733.160018 332.969869 
L 736.235459 315.500073 
L 739.3109 317.931774 
L 742.386341 330.378197 
L 745.461782 323.787032 
L 748.537223 330.090232 
L 751.612664 355.623023 
L 754.688105 365.221817 
L 757.763546 377.988222 
L 760.838986 398.785606 
L 763.914427 401.185305 
L 766.989868 404.000952 
L 770.065309 410.176175 
L 773.14075 414.879585 
L 776.216191 410.848091 
L 779.291632 411.999947 
L 782.367073 414.20767 
L 785.442514 415.295533 
L 788.517954 414.239665 
L 791.593395 415.295533 
L 794.668836 415.839464 
L 797.744277 412.92783 
L 800.819718 414.655613 
L 803.895159 413.919705 
L 806.9706 410.336156 
L 810.046041 400.577381 
L 813.121482 405.280791 
L 816.196922 409.216297 
L 819.272363 406.40065 
L 822.347804 409.792224 
L 825.423245 411.48801 
L 828.498686 399.553509 
L 831.574127 401.569256 
L 834.649568 397.761736 
L 837.725009 400.67337 
L 840.80045 397.345788 
L 843.87589 390.850605 
L 846.951331 381.219814 
L 850.026772 365.221817 
L 853.102213 361.990229 
L 856.177654 339.593036 
L 859.253095 350.791629 
L 862.328536 361.190329 
L 865.403977 348.807882 
L 868.479418 352.199454 
L 871.554858 368.293435 
L 874.630299 358.726637 
L 877.70574 379.556021 
L 880.781181 372.388922 
L 883.856622 384.771367 
L 886.932063 370.181198 
L 890.007504 354.887117 
L 893.082945 321.643295 
L 896.158386 309.836783 
L 899.233827 313.516326 
L 902.309267 300.941904 
L 905.384708 296.270482 
L 908.460149 281.136397 
L 911.53559 303.981513 
L 914.611031 276.976909 
L 917.686472 290.703188 
L 920.761913 316.747914 
L 923.837354 326.570673 
L 926.912795 349.06385 
L 929.988235 336.329451 
L 933.063676 339.561046 
L 936.139117 328.394443 
L 939.214558 329.194343 
L 942.289999 321.579314 
L 945.36544 341.800761 
L 948.440881 348.679895 
L 951.516322 360.134462 
L 954.591763 369.061338 
L 957.667203 363.941979 
L 960.742644 383.747496 
L 963.818085 400.065444 
L 966.893526 403.425025 
L 969.968967 409.920208 
L 973.044408 409.952204 
L 976.119849 411.552002 
L 979.19529 413.983697 
L 982.270731 416.767347 
L 985.346171 418.17517 
L 988.421612 417.279283 
L 988.421612 417.279283 
" clip-path="url(#pd07c8c0bf6)" style="fill: none; stroke: #1f77b4; stroke-width: 1.5; stroke-linecap: square"/>
   </g>
   <g id="line2d_26">
    <path d="M 548.633565 337.548585 
L 551.709006 347.141459 
L 554.784447 350.019168 
L 557.859888 356.693439 
L 560.935329 368.451703 
L 564.010769 370.009491 
L 567.08621 371.173633 
L 570.161651 376.203345 
L 573.237092 383.491016 
L 576.312533 381.389611 
L 579.387974 383.691092 
L 582.463415 382.991594 
L 585.538856 383.623034 
L 588.614297 383.486176 
L 591.689737 380.359183 
L 594.765178 378.537421 
L 597.840619 377.591943 
L 603.991501 373.200448 
L 607.066942 365.142567 
L 610.142383 365.918684 
L 613.217824 364.24448 
L 616.293265 359.472485 
L 619.368705 361.020398 
L 622.444146 358.288747 
L 625.519587 358.523318 
L 628.595028 358.319791 
L 631.670469 359.415613 
L 634.74591 361.486557 
L 637.821351 360.111278 
L 640.896792 359.211391 
L 643.972233 360.039546 
L 647.047673 359.884744 
L 650.123114 363.104341 
L 653.198555 362.965088 
L 656.273996 361.270788 
L 659.349437 362.568434 
L 662.424878 362.948788 
L 665.500319 358.244795 
L 668.57576 362.864863 
L 671.651201 360.967896 
L 674.726642 355.373055 
L 677.802082 348.912111 
L 680.877523 347.969383 
L 683.952964 342.633963 
L 687.028405 327.446747 
L 690.103846 331.720594 
L 693.179287 326.413186 
L 696.254728 322.443634 
L 699.330169 327.851268 
L 702.40561 329.208861 
L 705.48105 320.344862 
L 708.556491 327.555596 
L 711.631932 319.112339 
L 714.707373 328.943019 
L 717.782814 325.288058 
L 720.858255 326.125392 
L 723.933696 330.611871 
L 727.009137 330.85401 
L 730.084578 333.94706 
L 733.160018 338.473029 
L 736.235459 341.597509 
L 739.3109 346.193477 
L 742.386341 353.79702 
L 745.461782 356.57493 
L 748.537223 365.007617 
L 751.612664 371.173987 
L 754.688105 372.162767 
L 757.763546 382.182266 
L 760.838986 379.049777 
L 763.914427 382.116045 
L 766.989868 383.240507 
L 770.065309 379.618123 
L 773.14075 378.152224 
L 776.216191 381.045019 
L 779.291632 379.873175 
L 782.367073 376.802263 
L 785.442514 367.775574 
L 788.517954 368.237497 
L 791.593395 370.680971 
L 794.668836 373.268933 
L 797.744277 365.558116 
L 800.819718 359.602839 
L 803.895159 357.949751 
L 806.9706 356.59643 
L 810.046041 350.379419 
L 813.121482 348.001611 
L 816.196922 348.337061 
L 819.272363 347.131152 
L 822.347804 355.89401 
L 825.423245 357.501108 
L 828.498686 360.870338 
L 831.574127 362.672602 
L 834.649568 359.928806 
L 837.725009 359.382335 
L 840.80045 361.714598 
L 843.87589 351.267827 
L 846.951331 350.867316 
L 850.026772 358.752672 
L 853.102213 358.206738 
L 856.177654 353.704826 
L 859.253095 350.882322 
L 862.328536 351.810075 
L 865.403977 352.011178 
L 868.479418 346.257958 
L 871.554858 343.578766 
L 874.630299 346.846953 
L 877.70574 343.634771 
L 880.781181 339.528726 
L 883.856622 333.585783 
L 886.932063 333.506051 
L 890.007504 332.043789 
L 893.082945 332.306946 
L 896.158386 320.425174 
L 899.233827 330.890779 
L 902.309267 330.909795 
L 905.384708 338.180268 
L 908.460149 332.821109 
L 911.53559 338.480359 
L 914.611031 338.174825 
L 917.686472 344.010627 
L 920.761913 353.23041 
L 923.837354 356.840387 
L 926.912795 356.488173 
L 929.988235 353.608652 
L 933.063676 359.929373 
L 936.139117 359.236858 
L 939.214558 363.687818 
L 942.289999 363.100581 
L 945.36544 372.19101 
L 948.440881 369.943063 
L 951.516322 373.108394 
L 954.591763 378.03409 
L 957.667203 373.689284 
L 960.742644 372.149206 
L 963.818085 374.182526 
L 966.893526 375.304767 
L 969.968967 372.431861 
L 973.044408 373.406678 
L 976.119849 374.197991 
L 979.19529 370.359563 
L 982.270731 371.380443 
L 985.346171 365.711233 
L 988.421612 361.347945 
L 988.421612 361.347945 
" clip-path="url(#pd07c8c0bf6)" style="fill: none; stroke: #ff7f0e; stroke-width: 1.5; stroke-linecap: square"/>
   </g>
   <g id="line2d_27">
    <path d="M 548.633565 425.700625 
L 548.633565 260.140625 
" clip-path="url(#pd07c8c0bf6)" style="fill: none; stroke-dasharray: 7.4,3.2; stroke-dashoffset: 0; stroke: #0000ff; stroke-width: 2"/>
   </g>
   <g id="patch_9">
    <path d="M 61.6375 425.700625 
L 61.6375 260.140625 
" style="fill: none; stroke: #000000; stroke-width: 0.8; stroke-linejoin: miter; stroke-linecap: square"/>
   </g>
   <g id="patch_10">
    <path d="M 1032.554189 425.700625 
L 1032.554189 260.140625 
" style="fill: none; stroke: #000000; stroke-width: 0.8; stroke-linejoin: miter; stroke-linecap: square"/>
   </g>
   <g id="patch_11">
    <path d="M 61.6375 425.700625 
L 1032.554189 425.700625 
" style="fill: none; stroke: #000000; stroke-width: 0.8; stroke-linejoin: miter; stroke-linecap: square"/>
   </g>
   <g id="patch_12">
    <path d="M 61.6375 260.140625 
L 1032.554189 260.140625 
" style="fill: none; stroke: #000000; stroke-width: 0.8; stroke-linejoin: miter; stroke-linecap: square"/>
   </g>
   <g id="text_25">
    <!-- API_ID: 5 -->
    <g transform="translate(502.095845 254.140625) scale(0.2 -0.2)">
     <defs>
      <path id="SimSun-35" d="M 1725 2850 
Q 2200 2850 2500 2487 
Q 2800 2125 2800 1525 
Q 2800 850 2487 450 
Q 2175 50 1525 50 
Q 1075 50 725 312 
Q 375 575 375 950 
Q 375 1100 462 1212 
Q 550 1325 700 1325 
Q 850 1325 900 1225 
Q 950 1125 950 1050 
Q 950 900 875 825 
Q 800 725 800 625 
Q 800 425 1037 325 
Q 1275 225 1550 225 
Q 1950 225 2162 550 
Q 2375 875 2375 1475 
Q 2375 1975 2187 2287 
Q 2000 2600 1625 2600 
Q 1350 2600 1150 2500 
Q 950 2400 775 2075 
L 550 2100 
L 675 4375 
L 2725 4375 
L 2650 4000 
L 850 4000 
L 750 2350 
Q 1000 2700 1237 2775 
Q 1475 2850 1725 2850 
z
" transform="scale(0.015625)"/>
     </defs>
     <use xlink:href="#SimSun-41"/>
     <use xlink:href="#SimSun-50" x="50"/>
     <use xlink:href="#SimSun-49" x="100"/>
     <use xlink:href="#SimSun-5f" x="150"/>
     <use xlink:href="#SimSun-49" x="200"/>
     <use xlink:href="#SimSun-44" x="250"/>
     <use xlink:href="#SimSun-3a" x="300"/>
     <use xlink:href="#SimSun-20" x="350"/>
     <use xlink:href="#SimSun-35" x="400"/>
    </g>
   </g>
  </g>
  <g id="axes_3">
   <g id="patch_13">
    <path d="M 61.6375 658.500625 
L 1032.554189 658.500625 
L 1032.554189 492.940625 
L 61.6375 492.940625 
z
" style="fill: #ffffff"/>
   </g>
   <g id="matplotlib.axis_5">
    <g id="xtick_15">
     <g id="line2d_28">
      <g>
       <use xlink:href="#m8fe34d5de5" x="105.770077" y="658.500625" style="stroke: #000000; stroke-width: 0.8"/>
      </g>
     </g>
     <g id="text_26">
      <!-- 0 -->
      <g transform="translate(100.770077 679.388125) scale(0.2 -0.2)">
       <use xlink:href="#TimesNewRomanPSMT-30"/>
      </g>
     </g>
    </g>
    <g id="xtick_16">
     <g id="line2d_29">
      <g>
       <use xlink:href="#m8fe34d5de5" x="259.542121" y="658.500625" style="stroke: #000000; stroke-width: 0.8"/>
      </g>
     </g>
     <g id="text_27">
      <!-- 50 -->
      <g transform="translate(249.542121 679.388125) scale(0.2 -0.2)">
       <use xlink:href="#TimesNewRomanPSMT-35"/>
       <use xlink:href="#TimesNewRomanPSMT-30" x="50"/>
      </g>
     </g>
    </g>
    <g id="xtick_17">
     <g id="line2d_30">
      <g>
       <use xlink:href="#m8fe34d5de5" x="413.314166" y="658.500625" style="stroke: #000000; stroke-width: 0.8"/>
      </g>
     </g>
     <g id="text_28">
      <!-- 100 -->
      <g transform="translate(398.314166 679.388125) scale(0.2 -0.2)">
       <use xlink:href="#TimesNewRomanPSMT-31"/>
       <use xlink:href="#TimesNewRomanPSMT-30" x="50"/>
       <use xlink:href="#TimesNewRomanPSMT-30" x="100"/>
      </g>
     </g>
    </g>
    <g id="xtick_18">
     <g id="line2d_31">
      <g>
       <use xlink:href="#m8fe34d5de5" x="567.08621" y="658.500625" style="stroke: #000000; stroke-width: 0.8"/>
      </g>
     </g>
     <g id="text_29">
      <!-- 150 -->
      <g transform="translate(552.08621 679.388125) scale(0.2 -0.2)">
       <use xlink:href="#TimesNewRomanPSMT-31"/>
       <use xlink:href="#TimesNewRomanPSMT-35" x="50"/>
       <use xlink:href="#TimesNewRomanPSMT-30" x="100"/>
      </g>
     </g>
    </g>
    <g id="xtick_19">
     <g id="line2d_32">
      <g>
       <use xlink:href="#m8fe34d5de5" x="720.858255" y="658.500625" style="stroke: #000000; stroke-width: 0.8"/>
      </g>
     </g>
     <g id="text_30">
      <!-- 200 -->
      <g transform="translate(705.858255 679.388125) scale(0.2 -0.2)">
       <use xlink:href="#TimesNewRomanPSMT-32"/>
       <use xlink:href="#TimesNewRomanPSMT-30" x="50"/>
       <use xlink:href="#TimesNewRomanPSMT-30" x="100"/>
      </g>
     </g>
    </g>
    <g id="xtick_20">
     <g id="line2d_33">
      <g>
       <use xlink:href="#m8fe34d5de5" x="874.630299" y="658.500625" style="stroke: #000000; stroke-width: 0.8"/>
      </g>
     </g>
     <g id="text_31">
      <!-- 250 -->
      <g transform="translate(859.630299 679.388125) scale(0.2 -0.2)">
       <use xlink:href="#TimesNewRomanPSMT-32"/>
       <use xlink:href="#TimesNewRomanPSMT-35" x="50"/>
       <use xlink:href="#TimesNewRomanPSMT-30" x="100"/>
      </g>
     </g>
    </g>
    <g id="xtick_21">
     <g id="line2d_34">
      <g>
       <use xlink:href="#m8fe34d5de5" x="1028.402344" y="658.500625" style="stroke: #000000; stroke-width: 0.8"/>
      </g>
     </g>
     <g id="text_32">
      <!-- 300 -->
      <g transform="translate(1013.402344 679.388125) scale(0.2 -0.2)">
       <use xlink:href="#TimesNewRomanPSMT-33"/>
       <use xlink:href="#TimesNewRomanPSMT-30" x="50"/>
       <use xlink:href="#TimesNewRomanPSMT-30" x="100"/>
      </g>
     </g>
    </g>
   </g>
   <g id="matplotlib.axis_6">
    <g id="ytick_6">
     <g id="line2d_35">
      <g>
       <use xlink:href="#md624023935" x="61.6375" y="653.814965" style="stroke: #000000; stroke-width: 0.8"/>
      </g>
     </g>
     <g id="text_33">
      <!-- 0 -->
      <g transform="translate(44.6375 660.758715) scale(0.2 -0.2)">
       <use xlink:href="#TimesNewRomanPSMT-30"/>
      </g>
     </g>
    </g>
    <g id="ytick_7">
     <g id="line2d_36">
      <g>
       <use xlink:href="#md624023935" x="61.6375" y="597.019082" style="stroke: #000000; stroke-width: 0.8"/>
      </g>
     </g>
     <g id="text_34">
      <!-- 20 -->
      <g transform="translate(34.6375 603.962832) scale(0.2 -0.2)">
       <use xlink:href="#TimesNewRomanPSMT-32"/>
       <use xlink:href="#TimesNewRomanPSMT-30" x="50"/>
      </g>
     </g>
    </g>
    <g id="ytick_8">
     <g id="line2d_37">
      <g>
       <use xlink:href="#md624023935" x="61.6375" y="540.223198" style="stroke: #000000; stroke-width: 0.8"/>
      </g>
     </g>
     <g id="text_35">
      <!-- 40 -->
      <g transform="translate(34.6375 547.166948) scale(0.2 -0.2)">
       <use xlink:href="#TimesNewRomanPSMT-34"/>
       <use xlink:href="#TimesNewRomanPSMT-30" x="50"/>
      </g>
     </g>
    </g>
    <g id="text_36">
     <!-- CPU使用率 -->
     <g transform="translate(28.059375 620.720625) rotate(-90) scale(0.2 -0.2)">
      <use xlink:href="#SimSun-43"/>
      <use xlink:href="#SimSun-50" x="50"/>
      <use xlink:href="#SimSun-55" x="100"/>
      <use xlink:href="#SimSun-4f7f" x="150"/>
      <use xlink:href="#SimSun-7528" x="250"/>
      <use xlink:href="#SimSun-7387" x="350"/>
     </g>
    </g>
   </g>
   <g id="line2d_38">
    <path d="M 105.770077 605.538464 
L 108.845518 582.820105 
L 111.920959 579.980317 
L 114.996399 582.820105 
L 118.07184 594.179288 
L 121.147281 557.261963 
L 124.222722 579.980317 
L 127.298163 625.417024 
L 130.373604 616.897641 
L 139.599927 616.897641 
L 142.675367 605.538464 
L 145.750808 625.417024 
L 148.826249 597.019082 
L 151.90169 619.737435 
L 154.977131 597.019082 
L 158.052572 628.256818 
L 161.128013 628.256818 
L 164.203454 639.615994 
L 167.278895 636.7762 
L 170.354335 639.615994 
L 173.429776 639.615994 
L 176.505217 648.135376 
L 179.580658 645.295583 
L 182.656099 633.936406 
L 185.73154 619.737435 
L 188.806981 577.140517 
L 191.882422 591.339493 
L 194.957863 534.54361 
L 198.033303 537.383415 
L 201.108744 500.46608 
L 204.184185 543.062992 
L 207.259626 554.422169 
L 210.335067 511.825256 
L 213.410508 568.62114 
L 216.485949 545.902797 
L 219.56139 537.383415 
L 222.636831 577.140517 
L 225.712272 557.261963 
L 228.787712 614.057847 
L 231.863153 574.300728 
L 234.938594 560.101757 
L 238.014035 560.101757 
L 241.089476 548.742581 
L 244.164917 585.659905 
L 247.240358 557.261963 
L 250.315799 568.62114 
L 253.39124 526.024238 
L 256.46668 639.615994 
L 259.542121 599.858876 
L 262.617562 648.135376 
L 265.693003 639.615994 
L 268.768444 650.97517 
L 271.843885 645.295583 
L 274.919326 628.256818 
L 277.994767 631.096612 
L 281.070208 639.615994 
L 284.145648 622.577229 
L 287.221089 636.7762 
L 290.29653 591.339493 
L 293.371971 611.218055 
L 296.447412 616.897641 
L 299.522853 611.218055 
L 302.598294 594.179288 
L 305.673735 602.69867 
L 308.749176 582.820105 
L 311.824616 585.659905 
L 314.900057 591.339493 
L 317.975498 565.781346 
L 321.050939 597.019082 
L 324.12638 588.499694 
L 327.201821 602.69867 
L 330.277262 602.69867 
L 333.352703 639.615994 
L 336.428144 599.858876 
L 339.503584 599.858876 
L 342.579025 602.69867 
L 345.654466 616.897641 
L 348.729907 585.659905 
L 351.805348 605.538464 
L 354.880789 585.659905 
L 357.95623 614.057847 
L 361.031671 648.135376 
L 364.107112 625.417024 
L 367.182552 639.615994 
L 370.257993 645.295583 
L 373.333434 639.615994 
L 376.408875 648.135376 
L 379.484316 628.256818 
L 382.559757 636.7762 
L 385.635198 619.737435 
L 388.710639 650.97517 
L 391.78608 631.096612 
L 394.86152 562.941552 
L 397.936961 554.422169 
L 401.012402 588.499694 
L 404.087843 571.460929 
L 407.163284 520.344639 
L 410.238725 543.062992 
L 413.314166 517.504855 
L 416.389607 520.344639 
L 419.465048 520.344639 
L 422.540488 540.223198 
L 425.615929 545.902797 
L 428.69137 531.703816 
L 431.766811 520.344639 
L 434.842252 579.980317 
L 437.917693 579.980317 
L 440.993134 591.339493 
L 444.068575 582.820105 
L 447.144016 557.261963 
L 450.219457 557.261963 
L 453.294897 577.140517 
L 456.370338 585.659905 
L 459.445779 577.140517 
L 462.52122 614.057847 
L 465.596661 597.019082 
L 468.672102 625.417024 
L 471.747543 645.295583 
L 474.822984 622.577229 
L 477.898425 622.577229 
L 480.973865 631.096612 
L 484.049306 602.69867 
L 487.124747 619.737435 
L 490.200188 602.69867 
L 493.275629 631.096612 
L 496.35107 579.980317 
L 499.426511 585.659905 
L 502.501952 571.460929 
L 505.577393 577.140517 
L 508.652833 562.941552 
L 511.728274 579.980317 
L 514.803715 579.980317 
L 517.879156 582.820105 
L 520.954597 636.7762 
L 524.030038 628.256818 
L 527.105479 614.057847 
L 530.18092 614.057847 
L 533.256361 602.69867 
L 536.331801 628.256818 
L 539.407242 577.140517 
L 542.482683 608.378261 
L 545.558124 619.737435 
L 548.633565 611.218055 
L 551.709006 633.936406 
L 554.784447 619.737435 
L 557.859888 625.417024 
L 560.935329 639.615994 
L 564.010769 631.096612 
L 567.08621 631.096612 
L 570.161651 645.295583 
L 573.237092 619.737435 
L 576.312533 645.295583 
L 579.387974 614.057847 
L 582.463415 619.737435 
L 585.538856 622.577229 
L 588.614297 582.820105 
L 591.689737 588.499694 
L 594.765178 557.261963 
L 597.840619 531.703816 
L 600.91606 560.101757 
L 603.991501 565.781346 
L 607.066942 560.101757 
L 610.142383 557.261963 
L 613.217824 503.305874 
L 616.293265 537.383415 
L 619.368705 537.383415 
L 622.444146 545.902797 
L 625.519587 588.499694 
L 628.595028 608.378261 
L 631.670469 602.69867 
L 634.74591 631.096612 
L 637.821351 622.577229 
L 640.896792 605.538464 
L 643.972233 628.256818 
L 647.047673 642.455789 
L 650.123114 614.057847 
L 653.198555 639.615994 
L 656.273996 639.615994 
L 659.349437 628.256818 
L 662.424878 648.135376 
L 668.57576 648.135376 
L 671.651201 625.417024 
L 674.726642 625.417024 
L 677.802082 608.378261 
L 680.877523 625.417024 
L 683.952964 628.256818 
L 687.028405 602.69867 
L 690.103846 599.858876 
L 693.179287 591.339493 
L 696.254728 591.339493 
L 699.330169 599.858876 
L 702.40561 582.820105 
L 705.48105 602.69867 
L 708.556491 577.140517 
L 711.631932 588.499694 
L 714.707373 605.538464 
L 717.782814 625.417024 
L 720.858255 614.057847 
L 723.933696 616.897641 
L 727.009137 582.820105 
L 730.084578 625.417024 
L 733.160018 588.499694 
L 736.235459 608.378261 
L 739.3109 577.140517 
L 742.386341 616.897641 
L 745.461782 625.417024 
L 748.537223 614.057847 
L 751.612664 588.499694 
L 754.688105 602.69867 
L 757.763546 605.538464 
L 760.838986 619.737435 
L 763.914427 602.69867 
L 766.989868 579.980317 
L 770.065309 585.659905 
L 773.14075 588.499694 
L 776.216191 594.179288 
L 779.291632 611.218055 
L 782.367073 557.261963 
L 785.442514 571.460929 
L 788.517954 540.223198 
L 791.593395 565.781346 
L 794.668836 543.062992 
L 797.744277 562.941552 
L 800.819718 560.101757 
L 803.895159 588.499694 
L 806.9706 520.344639 
L 810.046041 560.101757 
L 813.121482 548.742581 
L 816.196922 548.742581 
L 819.272363 545.902797 
L 822.347804 594.179288 
L 825.423245 599.858876 
L 828.498686 611.218055 
L 831.574127 639.615994 
L 834.649568 616.897641 
L 840.80045 611.218055 
L 843.87589 565.781346 
L 846.951331 577.140517 
L 850.026772 591.339493 
L 853.102213 611.218055 
L 856.177654 594.179288 
L 859.253095 588.499694 
L 862.328536 614.057847 
L 865.403977 602.69867 
L 868.479418 608.378261 
L 871.554858 560.101757 
L 874.630299 594.179288 
L 877.70574 565.781346 
L 880.781181 608.378261 
L 883.856622 574.300728 
L 886.932063 585.659905 
L 890.007504 602.69867 
L 893.082945 611.218055 
L 896.158386 616.897641 
L 899.233827 625.417024 
L 905.384708 608.378261 
L 908.460149 597.019082 
L 911.53559 579.980317 
L 914.611031 591.339493 
L 917.686472 594.179288 
L 920.761913 625.417024 
L 923.837354 639.615994 
L 929.988235 628.256818 
L 933.063676 639.615994 
L 936.139117 648.135376 
L 939.214558 625.417024 
L 942.289999 645.295583 
L 945.36544 631.096612 
L 951.516322 614.057847 
L 954.591763 619.737435 
L 957.667203 614.057847 
L 960.742644 611.218055 
L 963.818085 599.858876 
L 966.893526 611.218055 
L 969.968967 582.820105 
L 973.044408 602.69867 
L 976.119849 571.460929 
L 979.19529 557.261963 
L 982.270731 577.140517 
L 985.346171 577.140517 
L 988.421612 614.057847 
L 988.421612 614.057847 
" clip-path="url(#p35a96af47b)" style="fill: none; stroke: #1f77b4; stroke-width: 1.5; stroke-linecap: square"/>
   </g>
   <g id="line2d_39">
    <path d="M 548.633565 622.232923 
L 551.709006 620.163912 
L 554.784447 617.766008 
L 557.859888 623.391109 
L 560.935329 628.323849 
L 564.010769 622.943678 
L 567.08621 615.411576 
L 570.161651 610.120658 
L 573.237092 603.222996 
L 576.312533 601.524031 
L 579.387974 592.924501 
L 582.463415 586.757597 
L 585.538856 576.408756 
L 588.614297 569.569543 
L 591.689737 561.331525 
L 594.765178 561.355336 
L 597.840619 553.747016 
L 600.91606 557.132325 
L 607.066942 555.880967 
L 610.142383 558.579099 
L 613.217824 563.331738 
L 616.293265 565.020753 
L 619.368705 569.408392 
L 622.444146 576.450869 
L 625.519587 575.471511 
L 628.595028 579.383957 
L 631.670469 585.53603 
L 634.74591 589.864381 
L 637.821351 596.360373 
L 640.896792 599.255497 
L 643.972233 606.046102 
L 647.047673 606.555278 
L 650.123114 612.943631 
L 653.198555 609.512369 
L 656.273996 613.645187 
L 659.349437 618.447309 
L 662.424878 618.081171 
L 665.500319 616.914792 
L 668.57576 620.05093 
L 671.651201 621.511778 
L 674.726642 610.942061 
L 677.802082 606.219982 
L 680.877523 604.189393 
L 683.952964 600.742569 
L 687.028405 594.687727 
L 690.103846 598.067029 
L 693.179287 595.999495 
L 696.254728 593.40699 
L 699.330169 602.033852 
L 702.40561 601.043221 
L 705.48105 599.27466 
L 708.556491 605.722749 
L 711.631932 600.549531 
L 714.707373 608.670962 
L 717.782814 607.589711 
L 720.858255 609.896979 
L 723.933696 609.55641 
L 727.009137 607.579377 
L 730.084578 602.821218 
L 733.160018 607.185165 
L 736.235459 608.708219 
L 739.3109 609.779851 
L 742.386341 609.867944 
L 745.461782 606.566918 
L 748.537223 610.552885 
L 751.612664 612.817265 
L 754.688105 606.267766 
L 757.763546 605.288218 
L 760.838986 596.548476 
L 763.914427 599.285395 
L 766.989868 591.593364 
L 770.065309 586.853772 
L 773.14075 585.814139 
L 776.216191 580.865965 
L 779.291632 580.797771 
L 782.367073 577.368957 
L 785.442514 571.362587 
L 788.517954 567.752088 
L 791.593395 572.233627 
L 794.668836 569.159917 
L 797.744277 567.916212 
L 800.819718 567.859069 
L 803.895159 569.619743 
L 806.9706 573.202971 
L 810.046041 571.439712 
L 813.121482 572.697164 
L 819.272363 581.781712 
L 822.347804 588.522925 
L 825.423245 590.032107 
L 828.498686 596.345803 
L 831.574127 597.173738 
L 834.649568 598.936601 
L 837.725009 605.115876 
L 840.80045 607.306977 
L 843.87589 608.943311 
L 846.951331 606.038237 
L 850.026772 609.235616 
L 853.102213 612.162805 
L 856.177654 613.053299 
L 859.253095 612.471634 
L 862.328536 611.404956 
L 865.403977 616.128531 
L 868.479418 610.87906 
L 871.554858 611.539401 
L 874.630299 614.860861 
L 877.70574 611.783942 
L 880.781181 612.07453 
L 883.856622 614.360739 
L 886.932063 616.505621 
L 890.007504 610.520213 
L 893.082945 612.600286 
L 896.158386 609.516203 
L 899.233827 613.960087 
L 902.309267 613.452748 
L 905.384708 616.105684 
L 908.460149 612.361208 
L 911.53559 611.061305 
L 914.611031 605.405501 
L 917.686472 604.916496 
L 920.761913 607.9292 
L 923.837354 607.790089 
L 926.912795 604.327237 
L 929.988235 600.273659 
L 933.063676 602.553541 
L 936.139117 594.210541 
L 939.214558 591.599078 
L 942.289999 590.075401 
L 945.36544 588.333803 
L 948.440881 589.104351 
L 951.516322 583.205407 
L 954.591763 580.956745 
L 957.667203 578.165715 
L 960.742644 578.94318 
L 963.818085 579.858825 
L 966.893526 571.802654 
L 969.968967 570.557184 
L 973.044408 569.818089 
L 976.119849 571.792379 
L 979.19529 572.83256 
L 982.270731 575.690981 
L 985.346171 574.260392 
L 988.421612 573.746877 
L 988.421612 573.746877 
" clip-path="url(#p35a96af47b)" style="fill: none; stroke: #ff7f0e; stroke-width: 1.5; stroke-linecap: square"/>
   </g>
   <g id="line2d_40">
    <path d="M 548.633565 658.500625 
L 548.633565 492.940625 
" clip-path="url(#p35a96af47b)" style="fill: none; stroke-dasharray: 7.4,3.2; stroke-dashoffset: 0; stroke: #0000ff; stroke-width: 2"/>
   </g>
   <g id="patch_14">
    <path d="M 61.6375 658.500625 
L 61.6375 492.940625 
" style="fill: none; stroke: #000000; stroke-width: 0.8; stroke-linejoin: miter; stroke-linecap: square"/>
   </g>
   <g id="patch_15">
    <path d="M 1032.554189 658.500625 
L 1032.554189 492.940625 
" style="fill: none; stroke: #000000; stroke-width: 0.8; stroke-linejoin: miter; stroke-linecap: square"/>
   </g>
   <g id="patch_16">
    <path d="M 61.6375 658.500625 
L 1032.554189 658.500625 
" style="fill: none; stroke: #000000; stroke-width: 0.8; stroke-linejoin: miter; stroke-linecap: square"/>
   </g>
   <g id="patch_17">
    <path d="M 61.6375 492.940625 
L 1032.554189 492.940625 
" style="fill: none; stroke: #000000; stroke-width: 0.8; stroke-linejoin: miter; stroke-linecap: square"/>
   </g>
   <g id="text_37">
    <!-- API_ID: 36 -->
    <g transform="translate(497.095845 486.940625) scale(0.2 -0.2)">
     <defs>
      <path id="SimSun-33" d="M 2800 1250 
Q 2800 775 2450 412 
Q 2100 50 1475 50 
Q 1025 50 700 300 
Q 375 550 375 875 
Q 375 1025 475 1137 
Q 575 1250 675 1250 
Q 825 1250 887 1137 
Q 950 1025 950 950 
Q 950 825 900 750 
Q 850 650 850 575 
Q 850 425 1037 325 
Q 1225 225 1450 225 
Q 1900 225 2125 487 
Q 2350 750 2350 1300 
Q 2350 1750 2112 2025 
Q 1875 2300 1225 2300 
L 1225 2475 
Q 1725 2475 1962 2712 
Q 2200 2950 2200 3375 
Q 2200 3725 2012 3987 
Q 1825 4250 1425 4250 
Q 1250 4250 1050 4162 
Q 850 4075 850 3875 
Q 850 3675 900 3625 
Q 950 3575 950 3500 
Q 950 3375 900 3300 
Q 850 3225 725 3225 
Q 625 3225 537 3300 
Q 450 3375 450 3575 
Q 450 3950 775 4187 
Q 1100 4425 1525 4425 
Q 2025 4425 2325 4112 
Q 2625 3800 2625 3450 
Q 2625 3075 2437 2812 
Q 2250 2550 1850 2425 
Q 2400 2225 2600 1900 
Q 2800 1575 2800 1250 
z
" transform="scale(0.015625)"/>
      <path id="SimSun-36" d="M 775 1800 
Q 775 1050 1037 637 
Q 1300 225 1675 225 
Q 2050 225 2250 500 
Q 2450 775 2450 1525 
Q 2450 2025 2237 2300 
Q 2025 2575 1725 2575 
Q 1450 2575 1212 2412 
Q 975 2250 775 1800 
z
M 1750 2825 
Q 2350 2825 2612 2425 
Q 2875 2025 2875 1525 
Q 2875 775 2512 412 
Q 2150 50 1675 50 
Q 1000 50 650 562 
Q 300 1075 300 2050 
Q 300 3200 725 3812 
Q 1150 4425 1875 4425 
Q 2225 4425 2437 4225 
Q 2650 4025 2650 3875 
Q 2650 3725 2587 3650 
Q 2525 3575 2375 3575 
Q 2250 3575 2187 3637 
Q 2125 3700 2125 3825 
Q 2125 3875 2150 3925 
Q 2150 3975 2150 4025 
Q 2150 4125 2075 4187 
Q 2000 4250 1800 4250 
Q 1375 4250 1075 3862 
Q 775 3475 775 2175 
Q 925 2500 1187 2662 
Q 1450 2825 1750 2825 
z
" transform="scale(0.015625)"/>
     </defs>
     <use xlink:href="#SimSun-41"/>
     <use xlink:href="#SimSun-50" x="50"/>
     <use xlink:href="#SimSun-49" x="100"/>
     <use xlink:href="#SimSun-5f" x="150"/>
     <use xlink:href="#SimSun-49" x="200"/>
     <use xlink:href="#SimSun-44" x="250"/>
     <use xlink:href="#SimSun-3a" x="300"/>
     <use xlink:href="#SimSun-20" x="350"/>
     <use xlink:href="#SimSun-33" x="400"/>
     <use xlink:href="#SimSun-36" x="450"/>
    </g>
   </g>
  </g>
 </g>
 <defs>
  <clipPath id="pe7121911f6">
   <rect x="61.6375" y="27.340625" width="970.916689" height="165.56"/>
  </clipPath>
  <clipPath id="pd07c8c0bf6">
   <rect x="61.6375" y="260.140625" width="970.916689" height="165.56"/>
  </clipPath>
  <clipPath id="p35a96af47b">
   <rect x="61.6375" y="492.940625" width="970.916689" height="165.56"/>
  </clipPath>
 </defs>
</svg>
