<?xml version="1.0" encoding="utf-8" standalone="no"?>
<!DOCTYPE svg PUBLIC "-//W3C//DTD SVG 1.1//EN"
  "http://www.w3.org/Graphics/SVG/1.1/DTD/svg11.dtd">
<svg xmlns:xlink="http://www.w3.org/1999/xlink" width="1050.135921pt" height="691.4825pt" viewBox="0 0 1050.135921 691.4825" xmlns="http://www.w3.org/2000/svg" version="1.1">
 <metadata>
  <rdf:RDF xmlns:dc="http://purl.org/dc/elements/1.1/" xmlns:cc="http://creativecommons.org/ns#" xmlns:rdf="http://www.w3.org/1999/02/22-rdf-syntax-ns#">
   <cc:Work>
    <dc:type rdf:resource="http://purl.org/dc/dcmitype/StillImage"/>
    <dc:date>2024-02-26T18:35:04.340191</dc:date>
    <dc:format>image/svg+xml</dc:format>
    <dc:creator>
     <cc:Agent>
      <dc:title>Matplotlib v3.7.4, https://matplotlib.org/</dc:title>
     </cc:Agent>
    </dc:creator>
   </cc:Work>
  </rdf:RDF>
 </metadata>
 <defs>
  <style type="text/css">*{stroke-linejoin: round; stroke-linecap: butt}</style>
 </defs>
 <g id="figure_1">
  <g id="patch_1">
   <path d="M 0 691.4825 
L 1050.135921 691.4825 
L 1050.135921 0 
L 0 0 
z
" style="fill: #ffffff"/>
  </g>
  <g id="axes_1">
   <g id="patch_2">
    <path d="M 71.6375 135.316875 
L 1035.235909 135.316875 
L 1035.235909 29.059375 
L 71.6375 29.059375 
z
" style="fill: #ffffff"/>
   </g>
   <g id="matplotlib.axis_1">
    <g id="xtick_1">
     <g id="line2d_1">
      <defs>
       <path id="mbc623712f2" d="M 0 0 
L 0 3.5 
" style="stroke: #000000; stroke-width: 0.8"/>
      </defs>
      <g>
       <use xlink:href="#mbc623712f2" x="115.437428" y="135.316875" style="stroke: #000000; stroke-width: 0.8"/>
      </g>
     </g>
     <g id="text_1">
      <!-- 0 -->
      <g transform="translate(110.437428 156.204375) scale(0.2 -0.2)">
       <defs>
        <path id="TimesNewRomanPSMT-30" d="M 231 2094 
Q 231 2819 450 3342 
Q 669 3866 1031 4122 
Q 1313 4325 1613 4325 
Q 2100 4325 2488 3828 
Q 2972 3213 2972 2159 
Q 2972 1422 2759 906 
Q 2547 391 2217 158 
Q 1888 -75 1581 -75 
Q 975 -75 572 641 
Q 231 1244 231 2094 
z
M 844 2016 
Q 844 1141 1059 588 
Q 1238 122 1591 122 
Q 1759 122 1940 273 
Q 2122 425 2216 781 
Q 2359 1319 2359 2297 
Q 2359 3022 2209 3506 
Q 2097 3866 1919 4016 
Q 1791 4119 1609 4119 
Q 1397 4119 1231 3928 
Q 1006 3669 925 3112 
Q 844 2556 844 2016 
z
" transform="scale(0.015625)"/>
       </defs>
       <use xlink:href="#TimesNewRomanPSMT-30"/>
      </g>
     </g>
    </g>
    <g id="xtick_2">
     <g id="line2d_2">
      <g>
       <use xlink:href="#mbc623712f2" x="229.499739" y="135.316875" style="stroke: #000000; stroke-width: 0.8"/>
      </g>
     </g>
     <g id="text_2">
      <!-- 25 -->
      <g transform="translate(219.499739 156.204375) scale(0.2 -0.2)">
       <defs>
        <path id="TimesNewRomanPSMT-32" d="M 2934 816 
L 2638 0 
L 138 0 
L 138 116 
Q 1241 1122 1691 1759 
Q 2141 2397 2141 2925 
Q 2141 3328 1894 3587 
Q 1647 3847 1303 3847 
Q 991 3847 742 3664 
Q 494 3481 375 3128 
L 259 3128 
Q 338 3706 661 4015 
Q 984 4325 1469 4325 
Q 1984 4325 2329 3994 
Q 2675 3663 2675 3213 
Q 2675 2891 2525 2569 
Q 2294 2063 1775 1497 
Q 997 647 803 472 
L 1909 472 
Q 2247 472 2383 497 
Q 2519 522 2628 598 
Q 2738 675 2819 816 
L 2934 816 
z
" transform="scale(0.015625)"/>
        <path id="TimesNewRomanPSMT-35" d="M 2778 4238 
L 2534 3706 
L 1259 3706 
L 981 3138 
Q 1809 3016 2294 2522 
Q 2709 2097 2709 1522 
Q 2709 1188 2573 903 
Q 2438 619 2231 419 
Q 2025 219 1772 97 
Q 1413 -75 1034 -75 
Q 653 -75 479 54 
Q 306 184 306 341 
Q 306 428 378 495 
Q 450 563 559 563 
Q 641 563 702 538 
Q 763 513 909 409 
Q 1144 247 1384 247 
Q 1750 247 2026 523 
Q 2303 800 2303 1197 
Q 2303 1581 2056 1914 
Q 1809 2247 1375 2428 
Q 1034 2569 447 2591 
L 1259 4238 
L 2778 4238 
z
" transform="scale(0.015625)"/>
       </defs>
       <use xlink:href="#TimesNewRomanPSMT-32"/>
       <use xlink:href="#TimesNewRomanPSMT-35" x="50"/>
      </g>
     </g>
    </g>
    <g id="xtick_3">
     <g id="line2d_3">
      <g>
       <use xlink:href="#mbc623712f2" x="343.562051" y="135.316875" style="stroke: #000000; stroke-width: 0.8"/>
      </g>
     </g>
     <g id="text_3">
      <!-- 50 -->
      <g transform="translate(333.562051 156.204375) scale(0.2 -0.2)">
       <use xlink:href="#TimesNewRomanPSMT-35"/>
       <use xlink:href="#TimesNewRomanPSMT-30" x="50"/>
      </g>
     </g>
    </g>
    <g id="xtick_4">
     <g id="line2d_4">
      <g>
       <use xlink:href="#mbc623712f2" x="457.624363" y="135.316875" style="stroke: #000000; stroke-width: 0.8"/>
      </g>
     </g>
     <g id="text_4">
      <!-- 75 -->
      <g transform="translate(447.624363 156.204375) scale(0.2 -0.2)">
       <defs>
        <path id="TimesNewRomanPSMT-37" d="M 644 4238 
L 2916 4238 
L 2916 4119 
L 1503 -88 
L 1153 -88 
L 2419 3728 
L 1253 3728 
Q 900 3728 750 3644 
Q 488 3500 328 3200 
L 238 3234 
L 644 4238 
z
" transform="scale(0.015625)"/>
       </defs>
       <use xlink:href="#TimesNewRomanPSMT-37"/>
       <use xlink:href="#TimesNewRomanPSMT-35" x="50"/>
      </g>
     </g>
    </g>
    <g id="xtick_5">
     <g id="line2d_5">
      <g>
       <use xlink:href="#mbc623712f2" x="571.686674" y="135.316875" style="stroke: #000000; stroke-width: 0.8"/>
      </g>
     </g>
     <g id="text_5">
      <!-- 100 -->
      <g transform="translate(556.686674 156.204375) scale(0.2 -0.2)">
       <defs>
        <path id="TimesNewRomanPSMT-31" d="M 750 3822 
L 1781 4325 
L 1884 4325 
L 1884 747 
Q 1884 391 1914 303 
Q 1944 216 2037 169 
Q 2131 122 2419 116 
L 2419 0 
L 825 0 
L 825 116 
Q 1125 122 1212 167 
Q 1300 213 1334 289 
Q 1369 366 1369 747 
L 1369 3034 
Q 1369 3497 1338 3628 
Q 1316 3728 1258 3775 
Q 1200 3822 1119 3822 
Q 1003 3822 797 3725 
L 750 3822 
z
" transform="scale(0.015625)"/>
       </defs>
       <use xlink:href="#TimesNewRomanPSMT-31"/>
       <use xlink:href="#TimesNewRomanPSMT-30" x="50"/>
       <use xlink:href="#TimesNewRomanPSMT-30" x="100"/>
      </g>
     </g>
    </g>
    <g id="xtick_6">
     <g id="line2d_6">
      <g>
       <use xlink:href="#mbc623712f2" x="685.748986" y="135.316875" style="stroke: #000000; stroke-width: 0.8"/>
      </g>
     </g>
     <g id="text_6">
      <!-- 125 -->
      <g transform="translate(670.748986 156.204375) scale(0.2 -0.2)">
       <use xlink:href="#TimesNewRomanPSMT-31"/>
       <use xlink:href="#TimesNewRomanPSMT-32" x="50"/>
       <use xlink:href="#TimesNewRomanPSMT-35" x="100"/>
      </g>
     </g>
    </g>
    <g id="xtick_7">
     <g id="line2d_7">
      <g>
       <use xlink:href="#mbc623712f2" x="799.811298" y="135.316875" style="stroke: #000000; stroke-width: 0.8"/>
      </g>
     </g>
     <g id="text_7">
      <!-- 150 -->
      <g transform="translate(784.811298 156.204375) scale(0.2 -0.2)">
       <use xlink:href="#TimesNewRomanPSMT-31"/>
       <use xlink:href="#TimesNewRomanPSMT-35" x="50"/>
       <use xlink:href="#TimesNewRomanPSMT-30" x="100"/>
      </g>
     </g>
    </g>
    <g id="xtick_8">
     <g id="line2d_8">
      <g>
       <use xlink:href="#mbc623712f2" x="913.873609" y="135.316875" style="stroke: #000000; stroke-width: 0.8"/>
      </g>
     </g>
     <g id="text_8">
      <!-- 175 -->
      <g transform="translate(898.873609 156.204375) scale(0.2 -0.2)">
       <use xlink:href="#TimesNewRomanPSMT-31"/>
       <use xlink:href="#TimesNewRomanPSMT-37" x="50"/>
       <use xlink:href="#TimesNewRomanPSMT-35" x="100"/>
      </g>
     </g>
    </g>
    <g id="xtick_9">
     <g id="line2d_9">
      <g>
       <use xlink:href="#mbc623712f2" x="1027.935921" y="135.316875" style="stroke: #000000; stroke-width: 0.8"/>
      </g>
     </g>
     <g id="text_9">
      <!-- 200 -->
      <g transform="translate(1012.935921 156.204375) scale(0.2 -0.2)">
       <use xlink:href="#TimesNewRomanPSMT-32"/>
       <use xlink:href="#TimesNewRomanPSMT-30" x="50"/>
       <use xlink:href="#TimesNewRomanPSMT-30" x="100"/>
      </g>
     </g>
    </g>
   </g>
   <g id="matplotlib.axis_2">
    <g id="ytick_1">
     <g id="line2d_10">
      <defs>
       <path id="m6062c480e1" d="M 0 0 
L -3.5 0 
" style="stroke: #000000; stroke-width: 0.8"/>
      </defs>
      <g>
       <use xlink:href="#m6062c480e1" x="71.6375" y="107.873742" style="stroke: #000000; stroke-width: 0.8"/>
      </g>
     </g>
     <g id="text_10">
      <!-- 1.0 -->
      <g transform="translate(39.6375 114.817492) scale(0.2 -0.2)">
       <defs>
        <path id="TimesNewRomanPSMT-2e" d="M 800 606 
Q 947 606 1047 504 
Q 1147 403 1147 259 
Q 1147 116 1045 14 
Q 944 -88 800 -88 
Q 656 -88 554 14 
Q 453 116 453 259 
Q 453 406 554 506 
Q 656 606 800 606 
z
" transform="scale(0.015625)"/>
       </defs>
       <use xlink:href="#TimesNewRomanPSMT-31"/>
       <use xlink:href="#TimesNewRomanPSMT-2e" x="50"/>
       <use xlink:href="#TimesNewRomanPSMT-30" x="75"/>
      </g>
     </g>
    </g>
    <g id="ytick_2">
     <g id="line2d_11">
      <g>
       <use xlink:href="#m6062c480e1" x="71.6375" y="71.47122" style="stroke: #000000; stroke-width: 0.8"/>
      </g>
     </g>
     <g id="text_11">
      <!-- 2.0 -->
      <g transform="translate(39.6375 78.41497) scale(0.2 -0.2)">
       <use xlink:href="#TimesNewRomanPSMT-32"/>
       <use xlink:href="#TimesNewRomanPSMT-2e" x="50"/>
       <use xlink:href="#TimesNewRomanPSMT-30" x="75"/>
      </g>
     </g>
    </g>
    <g id="ytick_3">
     <g id="line2d_12">
      <g>
       <use xlink:href="#m6062c480e1" x="71.6375" y="35.068699" style="stroke: #000000; stroke-width: 0.8"/>
      </g>
     </g>
     <g id="text_12">
      <!-- 3.0 -->
      <g transform="translate(39.6375 42.012449) scale(0.2 -0.2)">
       <defs>
        <path id="TimesNewRomanPSMT-33" d="M 325 3431 
Q 506 3859 782 4092 
Q 1059 4325 1472 4325 
Q 1981 4325 2253 3994 
Q 2459 3747 2459 3466 
Q 2459 3003 1878 2509 
Q 2269 2356 2469 2072 
Q 2669 1788 2669 1403 
Q 2669 853 2319 450 
Q 1863 -75 997 -75 
Q 569 -75 414 31 
Q 259 138 259 259 
Q 259 350 332 419 
Q 406 488 509 488 
Q 588 488 669 463 
Q 722 447 909 348 
Q 1097 250 1169 231 
Q 1284 197 1416 197 
Q 1734 197 1970 444 
Q 2206 691 2206 1028 
Q 2206 1275 2097 1509 
Q 2016 1684 1919 1775 
Q 1784 1900 1550 2001 
Q 1316 2103 1072 2103 
L 972 2103 
L 972 2197 
Q 1219 2228 1467 2375 
Q 1716 2522 1828 2728 
Q 1941 2934 1941 3181 
Q 1941 3503 1739 3701 
Q 1538 3900 1238 3900 
Q 753 3900 428 3381 
L 325 3431 
z
" transform="scale(0.015625)"/>
       </defs>
       <use xlink:href="#TimesNewRomanPSMT-33"/>
       <use xlink:href="#TimesNewRomanPSMT-2e" x="50"/>
       <use xlink:href="#TimesNewRomanPSMT-30" x="75"/>
      </g>
     </g>
    </g>
    <g id="text_13">
     <!-- CPU使用率 -->
     <g transform="translate(33.059375 127.188125) rotate(-90) scale(0.2 -0.2)">
      <defs>
       <path id="SimSun-43" d="M 1725 50 
Q 1025 50 612 575 
Q 200 1100 200 2225 
Q 200 3175 637 3800 
Q 1075 4425 1825 4425 
Q 2000 4425 2175 4375 
Q 2350 4300 2475 4300 
Q 2575 4300 2637 4325 
Q 2700 4350 2750 4425 
L 2975 3325 
L 2825 3275 
Q 2675 3750 2425 4000 
Q 2175 4250 1775 4250 
Q 1250 4250 962 3675 
Q 675 3100 675 2250 
Q 675 1325 925 800 
Q 1175 275 1750 275 
Q 2150 275 2437 562 
Q 2725 850 2825 1325 
L 2975 1250 
Q 2850 725 2512 387 
Q 2175 50 1725 50 
z
" transform="scale(0.015625)"/>
       <path id="SimSun-50" d="M 950 2100 
L 950 450 
Q 950 350 1012 300 
Q 1075 250 1175 250 
L 1350 250 
L 1350 100 
L 150 100 
L 150 250 
L 325 250 
Q 450 250 500 300 
Q 550 350 550 450 
L 550 4025 
Q 550 4125 500 4175 
Q 450 4225 325 4225 
L 175 4225 
L 175 4375 
L 1650 4375 
Q 2275 4375 2612 4062 
Q 2950 3750 2950 3275 
Q 2950 2700 2587 2400 
Q 2225 2100 1725 2100 
L 950 2100 
z
M 1575 2250 
Q 1950 2250 2237 2475 
Q 2525 2700 2525 3250 
Q 2525 3750 2287 3987 
Q 2050 4225 1525 4225 
L 1175 4225 
Q 1075 4225 1012 4175 
Q 950 4125 950 4025 
L 950 2250 
L 1575 2250 
z
" transform="scale(0.015625)"/>
       <path id="SimSun-55" d="M 1625 250 
Q 2000 250 2262 500 
Q 2525 750 2525 1125 
L 2525 4025 
Q 2525 4125 2475 4175 
Q 2425 4225 2300 4225 
L 2150 4225 
L 2150 4375 
L 3050 4375 
L 3050 4225 
L 2900 4225 
Q 2800 4225 2737 4175 
Q 2675 4125 2675 4025 
L 2675 1125 
Q 2675 625 2337 337 
Q 2000 50 1575 50 
Q 1125 50 787 300 
Q 450 550 450 1100 
L 450 4025 
Q 450 4125 400 4175 
Q 350 4225 225 4225 
L 100 4225 
L 100 4375 
L 1200 4375 
L 1200 4225 
L 1075 4225 
Q 975 4225 912 4175 
Q 850 4125 850 4025 
L 850 1100 
Q 850 600 1062 425 
Q 1275 250 1625 250 
z
" transform="scale(0.015625)"/>
       <path id="SimSun-4f7f" d="M 2875 3150 
L 2875 2100 
L 3825 2100 
Q 3850 2825 3850 3150 
L 2875 3150 
z
M 4175 3150 
Q 4175 2800 4150 2100 
L 5150 2100 
L 5150 3150 
L 4175 3150 
z
M 5475 3100 
L 5475 2425 
Q 5475 2100 5500 1800 
L 5150 1675 
L 5150 1950 
L 4150 1950 
Q 4125 1175 3875 600 
Q 4275 275 4875 75 
Q 5475 -125 6075 -150 
L 6075 -250 
Q 5700 -300 5600 -575 
Q 4525 -325 3725 350 
Q 3425 25 2925 -225 
Q 2425 -475 1875 -650 
L 1825 -550 
Q 2400 -325 2850 -25 
Q 3300 275 3500 575 
Q 3200 925 2825 1650 
L 2900 1700 
Q 3325 1100 3625 825 
Q 3800 1300 3825 1950 
L 2875 1950 
L 2875 1825 
L 2525 1675 
Q 2550 2075 2550 2562 
Q 2550 3050 2525 3500 
L 2875 3300 
L 3850 3300 
L 3850 4025 
L 2975 4025 
Q 2650 4025 2375 3950 
L 2150 4175 
L 3850 4175 
L 3850 4525 
Q 3850 4775 3825 5225 
L 4350 5000 
L 4175 4825 
L 4175 4175 
L 5300 4175 
L 5600 4475 
L 6050 4025 
L 4175 4025 
L 4175 3300 
L 5100 3300 
L 5275 3525 
L 5650 3225 
L 5475 3100 
z
M 1675 3175 
L 1675 -450 
L 1325 -625 
Q 1350 -75 1350 350 
L 1350 3200 
Q 900 2475 350 1900 
L 275 1950 
Q 700 2525 1112 3400 
Q 1525 4275 1800 5250 
L 2325 4925 
L 2125 4800 
Q 1725 3925 1500 3525 
L 1875 3325 
L 1675 3175 
z
" transform="scale(0.015625)"/>
       <path id="SimSun-7528" d="M 3400 3150 
L 3400 1825 
L 5075 1825 
L 5075 3150 
L 3400 3150 
z
M 4075 100 
Q 4725 50 4900 62 
Q 5075 75 5075 400 
L 5075 1675 
L 3400 1675 
Q 3400 75 3425 -225 
L 3050 -400 
Q 3075 1025 3075 1675 
L 1425 1675 
Q 1250 350 375 -600 
L 300 -550 
Q 775 225 950 1025 
Q 1125 1825 1125 3225 
Q 1125 4625 1100 5075 
L 1475 4825 
L 5050 4825 
L 5225 5100 
L 5625 4800 
L 5425 4600 
L 5425 225 
Q 5450 -400 4875 -575 
Q 4825 -150 4075 -25 
L 4075 100 
z
M 1475 4675 
L 1475 3300 
L 3075 3300 
L 3075 4675 
L 1475 4675 
z
M 3400 4675 
L 3400 3300 
L 5075 3300 
L 5075 4675 
L 3400 4675 
z
M 1475 3150 
Q 1450 2100 1425 1825 
L 3075 1825 
L 3075 3150 
L 1475 3150 
z
" transform="scale(0.015625)"/>
       <path id="SimSun-7387" d="M 875 3725 
L 925 3800 
Q 1375 3650 1550 3525 
Q 1725 3400 1725 3250 
Q 1725 3175 1662 3025 
Q 1600 2875 1550 2875 
Q 1500 2875 1425 3050 
Q 1275 3325 875 3725 
z
M 550 1850 
Q 875 1925 2000 2575 
L 2050 2500 
Q 1675 2225 1337 1937 
Q 1000 1650 875 1425 
L 550 1850 
z
M 5200 3450 
Q 4800 3150 4275 2800 
L 4225 2875 
Q 4775 3400 5050 3925 
L 5450 3525 
L 5200 3450 
z
M 4325 2500 
L 4350 2575 
Q 5225 2350 5375 2212 
Q 5525 2075 5525 1900 
Q 5525 1775 5487 1662 
Q 5450 1550 5400 1550 
Q 5325 1550 5200 1800 
Q 4975 2150 4325 2500 
z
M 3150 3900 
Q 2500 3300 2300 3150 
Q 2800 3150 3400 3175 
Q 3700 3500 3850 3825 
L 4250 3450 
Q 4050 3400 3450 2825 
Q 2850 2250 2475 1950 
Q 3150 1975 3850 2000 
Q 3750 2175 3550 2450 
L 3600 2500 
Q 4050 2250 4200 2100 
Q 4350 1950 4350 1850 
Q 4350 1775 4250 1625 
Q 4150 1475 4100 1475 
Q 4075 1475 4050 1550 
Q 4000 1700 3900 1900 
Q 3650 1875 3075 1800 
L 3500 1550 
L 3325 1425 
L 3325 975 
L 5325 975 
L 5650 1300 
L 6100 825 
L 3325 825 
Q 3325 -275 3350 -525 
L 2975 -650 
Q 3000 0 3000 825 
L 1125 825 
Q 800 825 525 750 
L 300 975 
L 3000 975 
L 3000 1775 
Q 2450 1700 2200 1525 
L 1950 1950 
Q 2275 1950 2675 2350 
Q 3075 2750 3325 3050 
Q 2400 2950 2150 2775 
L 1950 3175 
Q 2150 3150 2475 3575 
Q 2800 4000 2900 4225 
L 1450 4225 
Q 1125 4225 850 4150 
L 625 4375 
L 3100 4375 
Q 3050 4800 2675 5200 
L 2725 5250 
Q 3225 5050 3337 4912 
Q 3450 4775 3450 4700 
Q 3450 4550 3250 4375 
L 5025 4375 
L 5350 4675 
L 5775 4225 
L 3050 4225 
L 3375 3950 
L 3150 3900 
z
" transform="scale(0.015625)"/>
      </defs>
      <use xlink:href="#SimSun-43"/>
      <use xlink:href="#SimSun-50" x="50"/>
      <use xlink:href="#SimSun-55" x="100"/>
      <use xlink:href="#SimSun-4f7f" x="150"/>
      <use xlink:href="#SimSun-7528" x="250"/>
      <use xlink:href="#SimSun-7387" x="350"/>
     </g>
    </g>
   </g>
   <g id="line2d_13">
    <path d="M 115.437428 130.486989 
L 119.99992 129.627888 
L 124.562413 129.496838 
L 129.124905 128.259151 
L 133.687398 120.054024 
L 138.24989 119.944816 
L 142.812382 129.613326 
L 147.374875 128.754228 
L 151.937367 128.870715 
L 156.49986 120.847601 
L 161.062352 117.855314 
L 165.624845 117.564093 
L 170.187337 118.699851 
L 174.74983 111.797934 
L 179.312322 103.694733 
L 183.874815 105.573102 
L 188.437307 106.38852 
L 192.9998 108.13584 
L 197.562292 108.601791 
L 202.124785 111.979946 
L 206.687277 112.591508 
L 211.249769 109.85404 
L 215.812262 114.134975 
L 220.374754 110.756822 
L 224.937247 111.630482 
L 229.499739 105.806078 
L 234.062232 97.317012 
L 238.624724 87.379123 
L 243.187217 82.02795 
L 247.749709 56.058396 
L 252.312202 79.843801 
L 256.874694 85.704607 
L 261.437187 89.272052 
L 265.999679 78.023672 
L 270.562172 80.753863 
L 275.124664 73.218545 
L 279.687157 80.790267 
L 284.249649 70.852379 
L 288.812141 58.75946 
L 293.374634 52.935062 
L 297.937126 57.60914 
L 302.499619 64.117915 
L 307.062111 63.506346 
L 311.624604 65.566732 
L 316.187096 70.823261 
L 320.749589 51.755615 
L 325.312081 67.263094 
L 329.874574 61.75903 
L 334.437066 62.06481 
L 338.999559 64.380013 
L 343.562051 59.705926 
L 348.124544 60.623274 
L 352.687036 67.714482 
L 357.249528 74.165007 
L 361.812021 70.852379 
L 366.374513 62.115774 
L 370.937006 57.30336 
L 375.499498 56.167604 
L 380.061991 57.30336 
L 384.624483 60.230122 
L 389.186976 59.662244 
L 393.749468 114.309708 
L 398.311961 57.041262 
L 402.874453 56.429702 
L 407.436946 63.812135 
L 411.999438 69.578288 
L 416.561931 66.083647 
L 421.124423 68.748311 
L 425.686915 84.46692 
L 430.249408 81.99155 
L 434.8119 80.571851 
L 439.374393 80.207826 
L 443.936885 83.302041 
L 448.499378 81.591121 
L 453.06187 76.640381 
L 457.624363 62.632688 
L 462.186855 65.035254 
L 466.749348 74.79113 
L 471.31184 82.064354 
L 475.874333 80.28063 
L 480.436825 80.753863 
L 484.999318 75.912327 
L 489.56181 88.434794 
L 494.124302 89.454064 
L 498.686795 88.471198 
L 503.249287 79.953009 
L 507.81178 66.717052 
L 512.374272 73.291345 
L 516.936765 83.993687 
L 521.499257 79.953009 
L 526.06175 82.282771 
L 530.624242 86.978694 
L 535.186735 86.032228 
L 539.749227 85.486191 
L 544.31172 86.760282 
L 548.874212 88.798819 
L 553.436705 87.561136 
L 557.999197 79.770997 
L 562.561689 69.709341 
L 567.124182 71.937172 
L 571.686674 71.107195 
L 576.249167 72.068221 
L 580.811659 71.063514 
L 585.374152 66.82626 
L 589.936644 64.947891 
L 594.499137 60.885364 
L 599.061629 64.205278 
L 603.624122 57.128625 
L 608.186614 59.312774 
L 612.749107 60.492221 
L 617.311599 57.696512 
L 621.874092 65.428406 
L 626.436584 71.238249 
L 630.999076 81.583844 
L 635.561569 83.920883 
L 640.124061 80.426242 
L 644.686554 75.577425 
L 649.249046 80.673777 
L 653.811539 88.798819 
L 658.374031 85.19497 
L 662.936524 86.469061 
L 667.499016 81.845942 
L 672.061509 82.646796 
L 676.624001 69.054091 
L 681.186494 75.439094 
L 685.748986 77.040806 
L 690.311479 79.079347 
L 694.873971 77.950872 
L 699.436463 82.319171 
L 703.998956 79.479776 
L 708.561448 82.02795 
L 713.123941 83.120029 
L 717.686433 80.499047 
L 722.248926 84.503324 
L 726.811418 82.137158 
L 731.373911 83.156429 
L 735.936403 82.756 
L 740.498896 69.0905 
L 745.061388 67.656237 
L 749.623881 60.929054 
L 754.186373 65.428406 
L 758.748866 54.376598 
L 763.311358 52.869535 
L 767.873851 33.889261 
L 772.436343 36.284545 
L 776.998835 50.605296 
L 781.561328 46.681104 
L 786.12382 60.535902 
L 790.686313 51.537199 
L 795.248805 46.601022 
L 799.811298 59.705926 
L 804.37379 58.963313 
L 808.936283 63.200566 
L 813.498775 66.083647 
L 818.061268 64.554739 
L 822.62376 64.423694 
L 827.186253 68.005698 
L 831.748745 61.540614 
L 836.311238 58.963313 
L 840.87373 59.094366 
L 845.436222 55.679807 
L 849.998715 49.127351 
L 854.561207 48.413865 
L 859.1237 63.6374 
L 863.686192 59.574881 
L 868.248685 63.768453 
L 872.811177 67.175722 
L 877.37367 64.598421 
L 881.936162 68.355168 
L 886.498655 54.332916 
L 891.061147 69.549169 
L 895.62364 66.214701 
L 900.186132 68.16587 
L 904.748625 69.287071 
L 909.311117 70.087929 
L 913.873609 75.948731 
L 922.998594 74.711044 
L 927.561087 71.43482 
L 932.123579 71.252804 
L 936.686072 78.53331 
L 941.248564 79.770997 
L 945.811057 86.352571 
L 950.373549 86.585547 
L 954.936042 86.410816 
L 959.498534 85.77013 
L 964.061027 89.526873 
L 968.623519 90.429653 
L 973.186012 88.099891 
L 982.310996 98.467331 
L 986.873489 97.244203 
L 991.435981 92.905023 
L 991.435981 92.905023 
" clip-path="url(#p04e3c2d9be)" style="fill: none; stroke: #1f77b4; stroke-width: 1.5; stroke-linecap: square"/>
   </g>
   <g id="line2d_14">
    <path d="M 776.998835 43.459219 
L 781.561328 38.63758 
L 786.12382 37.396148 
L 790.686313 39.730097 
L 795.248805 42.297235 
L 799.811298 43.995054 
L 804.37379 45.322088 
L 808.936283 45.745304 
L 813.498775 46.457601 
L 818.061268 46.988906 
L 822.62376 47.540485 
L 827.186253 47.814456 
L 831.748745 48.217892 
L 836.311238 44.570258 
L 840.87373 44.2508 
L 845.436222 46.728587 
L 849.998715 49.392574 
L 854.561207 51.006953 
L 859.1237 51.962463 
L 863.686192 51.943976 
L 868.248685 52.672122 
L 872.811177 53.276747 
L 877.37367 54.085763 
L 881.936162 54.744398 
L 886.498655 55.95751 
L 891.061147 53.111463 
L 895.62364 52.717886 
L 900.186132 53.84288 
L 904.748625 55.203701 
L 909.311117 56.968974 
L 913.873609 58.186305 
L 918.436102 59.562947 
L 922.998594 60.667303 
L 927.561087 62.125051 
L 932.123579 63.349004 
L 936.686072 64.935775 
L 941.248564 66.036329 
L 945.811057 65.093812 
L 950.373549 64.982173 
L 954.936042 66.103036 
L 959.498534 67.370245 
L 964.061027 68.188557 
L 968.623519 69.206894 
L 973.186012 70.652214 
L 977.748504 72.020998 
L 982.310996 73.13188 
L 986.873489 74.34547 
L 991.435981 76.190547 
" clip-path="url(#p04e3c2d9be)" style="fill: none; stroke: #ff7f0e; stroke-width: 1.5; stroke-linecap: square"/>
   </g>
   <g id="line2d_15">
    <path d="M 776.998835 135.316875 
L 776.998835 29.059375 
" clip-path="url(#p04e3c2d9be)" style="fill: none; stroke-dasharray: 7.4,3.2; stroke-dashoffset: 0; stroke: #0000ff; stroke-width: 2"/>
   </g>
   <g id="patch_3">
    <path d="M 71.6375 135.316875 
L 71.6375 29.059375 
" style="fill: none; stroke: #000000; stroke-width: 0.8; stroke-linejoin: miter; stroke-linecap: square"/>
   </g>
   <g id="patch_4">
    <path d="M 1035.235909 135.316875 
L 1035.235909 29.059375 
" style="fill: none; stroke: #000000; stroke-width: 0.8; stroke-linejoin: miter; stroke-linecap: square"/>
   </g>
   <g id="patch_5">
    <path d="M 71.6375 135.316875 
L 1035.235909 135.316875 
" style="fill: none; stroke: #000000; stroke-width: 0.8; stroke-linejoin: miter; stroke-linecap: square"/>
   </g>
   <g id="patch_6">
    <path d="M 71.6375 29.059375 
L 1035.235909 29.059375 
" style="fill: none; stroke: #000000; stroke-width: 0.8; stroke-linejoin: miter; stroke-linecap: square"/>
   </g>
   <g id="text_14">
    <!-- 云函数ID: 28 -->
    <g transform="translate(493.436705 23.059375) scale(0.2 -0.2)">
     <defs>
      <path id="SimSun-4e91" d="M 1200 4450 
L 4500 4450 
L 4850 4800 
L 5350 4300 
L 1975 4300 
Q 1700 4300 1425 4225 
L 1200 4450 
z
M 1600 275 
Q 2300 300 4725 450 
Q 4425 975 3850 1700 
L 3925 1775 
Q 5200 725 5287 500 
Q 5375 275 5375 175 
Q 5375 0 5250 -162 
Q 5125 -325 5075 -325 
Q 5025 -325 4975 -200 
Q 4875 50 4775 300 
Q 1650 -25 1300 -300 
L 975 300 
Q 1225 350 1462 550 
Q 1700 750 2150 1462 
Q 2600 2175 2725 2600 
L 1250 2600 
Q 925 2600 650 2525 
L 425 2750 
L 5025 2750 
L 5450 3175 
L 6025 2600 
L 3250 2600 
Q 3000 2025 2500 1375 
Q 2000 725 1600 275 
z
" transform="scale(0.015625)"/>
      <path id="SimSun-51fd" d="M 3050 2275 
L 3050 3000 
Q 3050 3450 3025 3800 
L 3275 3625 
L 4450 4475 
L 1650 4475 
Q 1325 4475 1050 4400 
L 825 4625 
L 4450 4625 
L 4775 4875 
L 5150 4375 
Q 4875 4325 4550 4175 
Q 4225 4025 3400 3550 
L 3550 3450 
L 3375 3325 
L 3375 2400 
Q 4250 3225 4475 3600 
L 4875 3150 
L 4625 3125 
Q 3625 2425 3400 2275 
Q 4575 1675 4687 1487 
Q 4800 1300 4800 1150 
Q 4800 1025 4750 925 
Q 4700 825 4675 825 
Q 4575 825 4375 1150 
Q 4075 1600 3375 2150 
L 3375 725 
Q 3375 350 2875 150 
Q 2850 450 2200 650 
L 2200 750 
Q 2800 675 2925 700 
Q 3050 725 3050 850 
L 3050 2100 
Q 1850 1300 1625 1025 
L 1275 1400 
Q 1575 1475 2087 1725 
Q 2600 1975 3050 2275 
z
M 1700 3475 
L 1775 3550 
Q 2350 3200 2475 3025 
Q 2600 2850 2600 2775 
Q 2600 2650 2500 2525 
Q 2400 2400 2350 2400 
Q 2275 2400 2225 2575 
Q 2150 2875 1700 3475 
z
M 5150 0 
L 5150 2175 
Q 5150 2725 5125 3325 
L 5725 3050 
L 5500 2850 
L 5500 525 
Q 5500 100 5525 -400 
L 5150 -600 
L 5150 -150 
L 1250 -150 
L 1000 -375 
L 675 -50 
L 875 125 
L 875 2375 
Q 875 2800 850 3425 
L 1450 3150 
L 1225 2975 
L 1225 0 
L 5150 0 
z
" transform="scale(0.015625)"/>
      <path id="SimSun-6570" d="M 1875 1525 
Q 1675 1200 1500 900 
Q 1825 825 2275 725 
Q 2500 975 2725 1525 
L 1875 1525 
z
M 850 4900 
Q 1325 4600 1425 4450 
Q 1525 4300 1525 4225 
Q 1525 4100 1437 3975 
Q 1350 3850 1300 3850 
Q 1225 3850 1150 4100 
Q 1050 4450 775 4850 
L 850 4900 
z
M 3000 4975 
L 3450 4675 
Q 3250 4625 3100 4425 
Q 2925 4225 2525 3825 
L 2450 3875 
Q 2925 4625 3000 4975 
z
M 1875 5250 
L 2425 5000 
L 2225 4825 
L 2225 3675 
L 2850 3675 
L 3125 3950 
L 3550 3525 
L 2225 3525 
L 2225 3300 
Q 2800 3175 2937 3062 
Q 3075 2950 3075 2775 
Q 3075 2700 3050 2587 
Q 3025 2475 2975 2475 
Q 2925 2475 2800 2650 
Q 2600 2925 2225 3175 
L 2225 2400 
L 1925 2200 
L 2275 2050 
Q 2150 2000 1950 1675 
L 2725 1675 
L 2900 1900 
L 3275 1575 
L 3050 1450 
Q 2800 875 2600 650 
Q 3000 550 3137 437 
Q 3275 325 3275 150 
Q 3275 -25 3200 -25 
Q 3125 -25 3025 75 
Q 2750 275 2400 425 
Q 1525 -275 325 -500 
L 300 -425 
Q 1450 -50 2100 550 
Q 1600 725 1125 800 
Q 1225 950 1525 1525 
L 1200 1525 
Q 875 1525 600 1450 
L 375 1675 
L 1575 1675 
Q 1675 1925 1775 2275 
L 1900 2225 
L 1900 3250 
Q 1225 2475 350 2050 
L 300 2125 
Q 1225 2775 1700 3525 
L 1250 3525 
Q 925 3525 650 3450 
L 425 3675 
L 1900 3675 
Q 1900 4575 1875 5250 
z
M 3925 3525 
Q 4050 2075 4525 1100 
Q 4925 1950 5025 3525 
L 3925 3525 
z
M 4050 5250 
L 4625 4925 
Q 4425 4850 4325 4625 
Q 4225 4400 3950 3675 
L 5375 3675 
L 5675 3975 
L 6125 3525 
L 5400 3525 
Q 5250 1675 4750 775 
Q 5325 75 6100 -100 
L 6100 -200 
Q 5625 -275 5600 -500 
Q 4950 -50 4525 525 
Q 3700 -275 2550 -650 
L 2500 -575 
Q 3650 -50 4325 800 
Q 3850 1975 3825 3375 
Q 3575 2725 3100 2150 
L 3025 2200 
Q 3625 3200 4050 5250 
z
" transform="scale(0.015625)"/>
      <path id="SimSun-49" d="M 600 4225 
L 600 4375 
L 2600 4375 
L 2600 4225 
L 2025 4225 
Q 1925 4225 1862 4175 
Q 1800 4125 1800 4025 
L 1800 450 
Q 1800 350 1862 300 
Q 1925 250 2025 250 
L 2600 250 
L 2600 100 
L 600 100 
L 600 250 
L 1175 250 
Q 1300 250 1350 300 
Q 1400 350 1400 450 
L 1400 4025 
Q 1400 4125 1350 4175 
Q 1300 4225 1175 4225 
L 600 4225 
z
" transform="scale(0.015625)"/>
      <path id="SimSun-44" d="M 2500 2275 
Q 2500 3350 2175 3787 
Q 1850 4225 1275 4225 
Q 1100 4225 1012 4175 
Q 925 4125 925 4025 
L 925 450 
Q 925 350 1000 300 
Q 1075 250 1200 250 
Q 1750 250 2125 662 
Q 2500 1075 2500 2275 
z
M 525 4025 
Q 525 4125 475 4175 
Q 425 4225 300 4225 
L 150 4225 
L 150 4375 
L 1275 4375 
Q 2050 4375 2512 3875 
Q 2975 3375 2975 2325 
Q 2975 1175 2525 637 
Q 2075 100 1200 100 
L 125 100 
L 125 250 
L 300 250 
Q 425 250 475 300 
Q 525 350 525 450 
L 525 4025 
z
" transform="scale(0.015625)"/>
      <path id="SimSun-3a" d="M 1900 2725 
Q 1900 2575 1800 2475 
Q 1700 2375 1550 2375 
Q 1400 2375 1300 2475 
Q 1200 2575 1200 2725 
Q 1200 2875 1300 2975 
Q 1400 3075 1550 3075 
Q 1700 3075 1800 2975 
Q 1900 2875 1900 2725 
z
M 1900 375 
Q 1900 225 1800 125 
Q 1700 25 1550 25 
Q 1400 25 1300 125 
Q 1200 225 1200 375 
Q 1200 525 1300 625 
Q 1400 725 1550 725 
Q 1700 725 1800 625 
Q 1900 525 1900 375 
z
" transform="scale(0.015625)"/>
      <path id="SimSun-20" d="M 0 0 
Q 0 0 0 0 
z
" transform="scale(0.015625)"/>
      <path id="SimSun-32" d="M 2325 3325 
Q 2325 3775 2125 4012 
Q 1925 4250 1525 4250 
Q 1225 4250 1012 4087 
Q 800 3925 800 3675 
Q 800 3525 900 3425 
Q 975 3325 975 3225 
Q 975 3100 912 3037 
Q 850 2975 725 2975 
Q 575 2975 487 3062 
Q 400 3150 400 3350 
Q 400 3875 775 4150 
Q 1150 4425 1575 4425 
Q 2175 4425 2462 4125 
Q 2750 3825 2750 3375 
Q 2750 3075 2612 2775 
Q 2475 2475 2175 2200 
Q 1450 1500 1062 1062 
Q 675 625 600 475 
L 2075 475 
Q 2300 475 2450 650 
Q 2600 825 2650 1175 
L 2800 1175 
L 2650 100 
L 325 100 
L 325 425 
Q 450 650 737 1000 
Q 1025 1350 1500 1825 
Q 1925 2250 2125 2625 
Q 2325 3000 2325 3325 
z
" transform="scale(0.015625)"/>
      <path id="SimSun-38" d="M 625 1125 
Q 625 725 887 475 
Q 1150 225 1550 225 
Q 2025 225 2237 475 
Q 2450 725 2450 1100 
Q 2450 1425 2150 1725 
Q 1850 2025 1250 2275 
Q 950 2075 787 1775 
Q 625 1475 625 1125 
z
M 2825 1175 
Q 2825 700 2475 375 
Q 2125 50 1550 50 
Q 1025 50 650 375 
Q 275 700 275 1125 
Q 275 1550 487 1850 
Q 700 2150 1100 2375 
Q 750 2550 562 2812 
Q 375 3075 375 3400 
Q 375 3825 700 4125 
Q 1025 4425 1600 4425 
Q 2125 4425 2450 4125 
Q 2775 3825 2775 3400 
Q 2775 3100 2587 2837 
Q 2400 2575 2000 2375 
Q 2425 2125 2625 1825 
Q 2825 1525 2825 1175 
z
M 2425 3375 
Q 2425 3725 2225 3987 
Q 2025 4250 1600 4250 
Q 1125 4250 925 4000 
Q 725 3750 725 3475 
Q 725 3200 1012 2937 
Q 1300 2675 1825 2475 
Q 2125 2625 2275 2850 
Q 2425 3075 2425 3375 
z
" transform="scale(0.015625)"/>
     </defs>
     <use xlink:href="#SimSun-4e91"/>
     <use xlink:href="#SimSun-51fd" x="100"/>
     <use xlink:href="#SimSun-6570" x="200"/>
     <use xlink:href="#SimSun-49" x="300"/>
     <use xlink:href="#SimSun-44" x="350"/>
     <use xlink:href="#SimSun-3a" x="400"/>
     <use xlink:href="#SimSun-20" x="450"/>
     <use xlink:href="#SimSun-32" x="500"/>
     <use xlink:href="#SimSun-38" x="550"/>
    </g>
   </g>
   <g id="legend_1">
    <g id="patch_7">
     <path d="M 85.6375 101.934375 
L 209.6375 101.934375 
Q 213.6375 101.934375 213.6375 97.934375 
L 213.6375 43.059375 
Q 213.6375 39.059375 209.6375 39.059375 
L 85.6375 39.059375 
Q 81.6375 39.059375 81.6375 43.059375 
L 81.6375 97.934375 
Q 81.6375 101.934375 85.6375 101.934375 
z
" style="fill: #ffffff; opacity: 0.8; stroke: #cccccc; stroke-linejoin: miter"/>
    </g>
    <g id="line2d_16">
     <path d="M 89.6375 55.996875 
L 109.6375 55.996875 
L 129.6375 55.996875 
" style="fill: none; stroke: #1f77b4; stroke-width: 1.5; stroke-linecap: square"/>
    </g>
    <g id="text_15">
     <!-- 真实值 -->
     <g transform="translate(145.6375 62.996875) scale(0.2 -0.2)">
      <defs>
       <path id="SimSun-771f" d="M 2050 3450 
L 2050 2900 
L 4300 2900 
L 4300 3450 
L 2050 3450 
z
M 2050 2750 
L 2050 2225 
L 4300 2225 
L 4300 2750 
L 2050 2750 
z
M 2050 2075 
L 2050 1550 
L 4300 1550 
L 4300 2075 
L 2050 2075 
z
M 2050 1400 
L 2050 875 
L 4300 875 
L 4300 1400 
L 2050 1400 
z
M 2875 3600 
L 2925 4325 
L 1525 4325 
Q 1200 4325 925 4250 
L 700 4475 
L 2950 4475 
Q 2975 4825 2975 5275 
L 3550 5025 
L 3375 4925 
L 3300 4475 
L 5000 4475 
L 5325 4825 
L 5775 4325 
L 3275 4325 
L 3200 3600 
L 4275 3600 
L 4450 3875 
L 4850 3575 
L 4650 3375 
L 4650 875 
L 5300 875 
L 5675 1225 
L 6125 725 
L 1150 725 
Q 825 725 550 650 
L 325 875 
L 1700 875 
Q 1700 3200 1675 3775 
L 2050 3600 
L 2875 3600 
z
M 2425 725 
L 2825 350 
L 2575 300 
Q 1500 -425 800 -650 
L 775 -575 
Q 1950 125 2425 725 
z
M 3800 700 
Q 4575 375 4962 200 
Q 5350 25 5400 -112 
Q 5450 -250 5450 -325 
Q 5450 -400 5400 -525 
Q 5350 -650 5325 -650 
Q 5250 -650 5100 -450 
Q 4875 -150 3750 625 
L 3800 700 
z
" transform="scale(0.015625)"/>
       <path id="SimSun-5b9e" d="M 1950 3625 
Q 2575 3400 2700 3250 
Q 2825 3100 2825 2975 
Q 2825 2850 2750 2700 
Q 2675 2550 2625 2550 
Q 2550 2550 2450 2800 
Q 2275 3175 1900 3550 
L 1950 3625 
z
M 3575 1325 
Q 3500 1100 3425 925 
Q 4650 550 5087 325 
Q 5525 100 5512 -225 
Q 5500 -550 5400 -550 
Q 5300 -550 5075 -300 
Q 4625 175 3375 800 
Q 3025 175 2300 -150 
Q 1575 -475 425 -625 
L 425 -525 
Q 1475 -325 2200 100 
Q 2925 525 3200 1325 
L 1225 1325 
Q 900 1325 625 1250 
L 400 1475 
L 3225 1475 
Q 3325 1950 3375 2575 
Q 3425 3200 3425 3700 
L 4050 3400 
L 3850 3225 
Q 3750 2300 3625 1475 
L 5175 1475 
L 5550 1850 
L 6075 1325 
L 3575 1325 
z
M 1275 2700 
Q 1975 2425 2100 2262 
Q 2225 2100 2225 1975 
Q 2225 1850 2150 1700 
Q 2075 1550 2025 1550 
Q 1950 1550 1850 1800 
Q 1675 2175 1225 2625 
L 1275 2700 
z
M 2750 5225 
L 2825 5275 
Q 3225 5100 3425 4925 
Q 3625 4750 3625 4600 
Q 3625 4450 3512 4300 
Q 3400 4150 3325 4150 
Q 3250 4150 3200 4400 
Q 3100 4775 2750 5225 
z
M 4975 3225 
L 5350 3925 
L 1175 3925 
Q 1225 3525 1125 3300 
Q 1025 3075 787 3100 
Q 550 3125 550 3200 
Q 550 3300 700 3475 
Q 975 3825 1050 4375 
L 1150 4375 
L 1175 4075 
L 5300 4075 
L 5575 4350 
L 6050 3800 
Q 5625 3825 5050 3175 
L 4975 3225 
z
" transform="scale(0.015625)"/>
       <path id="SimSun-503c" d="M 1525 650 
Q 1525 -225 1550 -525 
L 1175 -650 
Q 1200 250 1200 550 
L 1200 3025 
Q 750 2300 325 1850 
L 250 1900 
Q 725 2625 1100 3525 
Q 1475 4425 1675 5200 
L 2200 4875 
L 1950 4725 
Q 1550 3800 1425 3475 
L 1725 3300 
L 1525 3150 
L 1525 650 
z
M 2875 3225 
L 2875 2475 
L 4800 2475 
L 4800 3225 
L 2875 3225 
z
M 2875 2325 
L 2875 1575 
L 4800 1575 
L 4800 2325 
L 2875 2325 
z
M 2875 1425 
L 2875 675 
L 4800 675 
L 4800 1425 
L 2875 1425 
z
M 2875 525 
L 2875 -225 
L 4800 -225 
L 4800 525 
L 2875 525 
z
M 3550 4250 
Q 3575 4825 3550 5225 
L 4125 4950 
L 3925 4800 
L 3900 4250 
L 5025 4250 
L 5350 4575 
L 5825 4100 
L 3900 4100 
L 3875 3375 
L 4750 3375 
L 4975 3625 
L 5350 3300 
L 5125 3150 
L 5125 -225 
L 5350 -225 
L 5675 100 
L 6150 -375 
L 2450 -375 
Q 2125 -375 1850 -450 
L 1625 -225 
L 2550 -225 
L 2550 2550 
Q 2550 2850 2525 3575 
L 2875 3375 
L 3525 3375 
L 3550 4100 
L 2800 4100 
Q 2475 4100 2200 4025 
L 1975 4250 
L 3550 4250 
z
" transform="scale(0.015625)"/>
      </defs>
      <use xlink:href="#SimSun-771f"/>
      <use xlink:href="#SimSun-5b9e" x="100"/>
      <use xlink:href="#SimSun-503c" x="200"/>
     </g>
    </g>
    <g id="line2d_17">
     <path d="M 89.6375 84.35625 
L 109.6375 84.35625 
L 129.6375 84.35625 
" style="fill: none; stroke: #ff7f0e; stroke-width: 1.5; stroke-linecap: square"/>
    </g>
    <g id="text_16">
     <!-- 预测值 -->
     <g transform="translate(145.6375 91.35625) scale(0.2 -0.2)">
      <defs>
       <path id="SimSun-9884" d="M 475 4825 
L 2225 4825 
L 2425 5075 
L 2825 4675 
Q 2600 4625 2387 4412 
Q 2175 4200 1800 3750 
Q 2050 3575 2037 3400 
Q 2025 3225 1937 3150 
Q 1850 3075 1825 3075 
Q 1725 3075 1650 3300 
Q 1525 3600 1050 4100 
L 1100 4150 
Q 1475 3975 1700 3825 
L 2225 4675 
L 1300 4675 
Q 975 4675 700 4600 
L 475 4825 
z
M 725 100 
Q 1175 50 1362 37 
Q 1550 25 1550 275 
L 1550 2875 
L 1125 2875 
Q 800 2875 525 2800 
L 300 3025 
L 2525 3025 
L 2725 3275 
L 3150 2875 
Q 2800 2825 2275 2075 
L 2200 2125 
L 2550 2875 
L 1875 2875 
L 1875 150 
Q 1875 -400 1350 -500 
Q 1325 -175 725 0 
L 725 100 
z
M 3250 775 
Q 3275 1425 3275 2287 
Q 3275 3150 3250 3900 
L 3600 3700 
L 4050 3700 
Q 4175 4400 4200 4675 
L 3650 4675 
Q 3325 4675 3050 4600 
L 2825 4825 
L 5325 4825 
L 5675 5150 
L 6125 4675 
L 4675 4675 
Q 4500 4425 4175 3700 
L 5300 3700 
L 5475 3975 
L 5875 3675 
L 5675 3475 
L 5675 1950 
Q 5675 1525 5700 1075 
L 5350 875 
L 5350 3550 
L 3600 3550 
L 3600 1000 
L 3250 775 
z
M 4850 2875 
L 4625 2675 
Q 4625 1475 4475 937 
Q 4325 400 3900 50 
Q 3475 -300 2425 -625 
L 2400 -550 
Q 3500 -50 3837 400 
Q 4175 850 4237 1587 
Q 4300 2325 4275 3175 
L 4850 2875 
z
M 4650 950 
Q 5725 375 5875 212 
Q 6025 50 6025 -125 
Q 6025 -225 5962 -387 
Q 5900 -550 5850 -550 
Q 5800 -550 5750 -450 
Q 5625 -250 5437 0 
Q 5250 250 4600 875 
L 4650 950 
z
" transform="scale(0.015625)"/>
       <path id="SimSun-6d4b" d="M 1975 1000 
Q 2000 1475 2000 2925 
Q 2000 4375 1975 5000 
L 2350 4775 
L 3575 4775 
L 3775 4975 
L 4100 4650 
L 3900 4500 
L 3900 2350 
Q 3900 1850 3925 1350 
L 3600 1200 
L 3600 4625 
L 2325 4625 
L 2325 1150 
L 1975 1000 
z
M 2775 3975 
L 3300 3700 
L 3125 3525 
Q 3150 1825 2875 937 
Q 2600 50 1375 -600 
L 1325 -500 
Q 2200 100 2475 725 
Q 2750 1350 2775 2187 
Q 2800 3025 2775 3975 
z
M 3100 950 
Q 3825 450 3937 262 
Q 4050 75 4050 -25 
Q 4050 -150 3975 -262 
Q 3900 -375 3850 -375 
Q 3750 -375 3650 -75 
Q 3500 375 3050 875 
L 3100 950 
z
M 4475 825 
Q 4500 1200 4500 1700 
L 4500 3400 
Q 4500 3950 4475 4300 
L 5025 4025 
L 4825 3825 
L 4825 1700 
Q 4825 1325 4850 950 
L 4475 825 
z
M 5375 150 
L 5375 4050 
Q 5375 4750 5350 5125 
L 5875 4875 
L 5700 4700 
L 5700 75 
Q 5700 -200 5600 -350 
Q 5500 -500 5200 -600 
Q 5025 -225 4450 -50 
L 4450 50 
Q 5125 -50 5250 -37 
Q 5375 -25 5375 150 
z
M 1850 3500 
Q 1375 1525 1300 1225 
Q 1200 900 1212 450 
Q 1225 0 1250 -175 
Q 1250 -275 1125 -275 
Q 1025 -275 875 -225 
Q 725 -175 725 0 
Q 725 125 800 375 
Q 875 625 875 775 
Q 875 950 762 1050 
Q 650 1150 275 1250 
L 275 1350 
Q 725 1300 837 1312 
Q 950 1325 1087 1537 
Q 1225 1750 1750 3525 
L 1850 3500 
z
M 375 3775 
Q 1075 3350 1112 3100 
Q 1150 2850 1050 2775 
Q 950 2700 900 2700 
Q 800 2700 725 2975 
Q 600 3350 325 3700 
L 375 3775 
z
M 800 5100 
Q 1475 4725 1550 4512 
Q 1625 4300 1525 4187 
Q 1425 4075 1350 4075 
Q 1275 4075 1200 4300 
Q 1075 4650 750 5025 
L 800 5100 
z
" transform="scale(0.015625)"/>
      </defs>
      <use xlink:href="#SimSun-9884"/>
      <use xlink:href="#SimSun-6d4b" x="100"/>
      <use xlink:href="#SimSun-503c" x="200"/>
     </g>
    </g>
   </g>
  </g>
  <g id="axes_2">
   <g id="patch_8">
    <path d="M 71.6375 309.916875 
L 1035.235909 309.916875 
L 1035.235909 203.659375 
L 71.6375 203.659375 
z
" style="fill: #ffffff"/>
   </g>
   <g id="matplotlib.axis_3">
    <g id="xtick_10">
     <g id="line2d_18">
      <g>
       <use xlink:href="#mbc623712f2" x="115.437428" y="309.916875" style="stroke: #000000; stroke-width: 0.8"/>
      </g>
     </g>
     <g id="text_17">
      <!-- 0 -->
      <g transform="translate(110.437428 330.804375) scale(0.2 -0.2)">
       <use xlink:href="#TimesNewRomanPSMT-30"/>
      </g>
     </g>
    </g>
    <g id="xtick_11">
     <g id="line2d_19">
      <g>
       <use xlink:href="#mbc623712f2" x="229.499739" y="309.916875" style="stroke: #000000; stroke-width: 0.8"/>
      </g>
     </g>
     <g id="text_18">
      <!-- 25 -->
      <g transform="translate(219.499739 330.804375) scale(0.2 -0.2)">
       <use xlink:href="#TimesNewRomanPSMT-32"/>
       <use xlink:href="#TimesNewRomanPSMT-35" x="50"/>
      </g>
     </g>
    </g>
    <g id="xtick_12">
     <g id="line2d_20">
      <g>
       <use xlink:href="#mbc623712f2" x="343.562051" y="309.916875" style="stroke: #000000; stroke-width: 0.8"/>
      </g>
     </g>
     <g id="text_19">
      <!-- 50 -->
      <g transform="translate(333.562051 330.804375) scale(0.2 -0.2)">
       <use xlink:href="#TimesNewRomanPSMT-35"/>
       <use xlink:href="#TimesNewRomanPSMT-30" x="50"/>
      </g>
     </g>
    </g>
    <g id="xtick_13">
     <g id="line2d_21">
      <g>
       <use xlink:href="#mbc623712f2" x="457.624363" y="309.916875" style="stroke: #000000; stroke-width: 0.8"/>
      </g>
     </g>
     <g id="text_20">
      <!-- 75 -->
      <g transform="translate(447.624363 330.804375) scale(0.2 -0.2)">
       <use xlink:href="#TimesNewRomanPSMT-37"/>
       <use xlink:href="#TimesNewRomanPSMT-35" x="50"/>
      </g>
     </g>
    </g>
    <g id="xtick_14">
     <g id="line2d_22">
      <g>
       <use xlink:href="#mbc623712f2" x="571.686674" y="309.916875" style="stroke: #000000; stroke-width: 0.8"/>
      </g>
     </g>
     <g id="text_21">
      <!-- 100 -->
      <g transform="translate(556.686674 330.804375) scale(0.2 -0.2)">
       <use xlink:href="#TimesNewRomanPSMT-31"/>
       <use xlink:href="#TimesNewRomanPSMT-30" x="50"/>
       <use xlink:href="#TimesNewRomanPSMT-30" x="100"/>
      </g>
     </g>
    </g>
    <g id="xtick_15">
     <g id="line2d_23">
      <g>
       <use xlink:href="#mbc623712f2" x="685.748986" y="309.916875" style="stroke: #000000; stroke-width: 0.8"/>
      </g>
     </g>
     <g id="text_22">
      <!-- 125 -->
      <g transform="translate(670.748986 330.804375) scale(0.2 -0.2)">
       <use xlink:href="#TimesNewRomanPSMT-31"/>
       <use xlink:href="#TimesNewRomanPSMT-32" x="50"/>
       <use xlink:href="#TimesNewRomanPSMT-35" x="100"/>
      </g>
     </g>
    </g>
    <g id="xtick_16">
     <g id="line2d_24">
      <g>
       <use xlink:href="#mbc623712f2" x="799.811298" y="309.916875" style="stroke: #000000; stroke-width: 0.8"/>
      </g>
     </g>
     <g id="text_23">
      <!-- 150 -->
      <g transform="translate(784.811298 330.804375) scale(0.2 -0.2)">
       <use xlink:href="#TimesNewRomanPSMT-31"/>
       <use xlink:href="#TimesNewRomanPSMT-35" x="50"/>
       <use xlink:href="#TimesNewRomanPSMT-30" x="100"/>
      </g>
     </g>
    </g>
    <g id="xtick_17">
     <g id="line2d_25">
      <g>
       <use xlink:href="#mbc623712f2" x="913.873609" y="309.916875" style="stroke: #000000; stroke-width: 0.8"/>
      </g>
     </g>
     <g id="text_24">
      <!-- 175 -->
      <g transform="translate(898.873609 330.804375) scale(0.2 -0.2)">
       <use xlink:href="#TimesNewRomanPSMT-31"/>
       <use xlink:href="#TimesNewRomanPSMT-37" x="50"/>
       <use xlink:href="#TimesNewRomanPSMT-35" x="100"/>
      </g>
     </g>
    </g>
    <g id="xtick_18">
     <g id="line2d_26">
      <g>
       <use xlink:href="#mbc623712f2" x="1027.935921" y="309.916875" style="stroke: #000000; stroke-width: 0.8"/>
      </g>
     </g>
     <g id="text_25">
      <!-- 200 -->
      <g transform="translate(1012.935921 330.804375) scale(0.2 -0.2)">
       <use xlink:href="#TimesNewRomanPSMT-32"/>
       <use xlink:href="#TimesNewRomanPSMT-30" x="50"/>
       <use xlink:href="#TimesNewRomanPSMT-30" x="100"/>
      </g>
     </g>
    </g>
   </g>
   <g id="matplotlib.axis_4">
    <g id="ytick_4">
     <g id="line2d_27">
      <g>
       <use xlink:href="#m6062c480e1" x="71.6375" y="274.203279" style="stroke: #000000; stroke-width: 0.8"/>
      </g>
     </g>
     <g id="text_26">
      <!-- 0.5 -->
      <g transform="translate(39.6375 281.147029) scale(0.2 -0.2)">
       <use xlink:href="#TimesNewRomanPSMT-30"/>
       <use xlink:href="#TimesNewRomanPSMT-2e" x="50"/>
       <use xlink:href="#TimesNewRomanPSMT-35" x="75"/>
      </g>
     </g>
    </g>
    <g id="ytick_5">
     <g id="line2d_28">
      <g>
       <use xlink:href="#m6062c480e1" x="71.6375" y="235.050505" style="stroke: #000000; stroke-width: 0.8"/>
      </g>
     </g>
     <g id="text_27">
      <!-- 1.0 -->
      <g transform="translate(39.6375 241.994255) scale(0.2 -0.2)">
       <use xlink:href="#TimesNewRomanPSMT-31"/>
       <use xlink:href="#TimesNewRomanPSMT-2e" x="50"/>
       <use xlink:href="#TimesNewRomanPSMT-30" x="75"/>
      </g>
     </g>
    </g>
    <g id="text_28">
     <!-- CPU使用率 -->
     <g transform="translate(33.059375 301.788125) rotate(-90) scale(0.2 -0.2)">
      <use xlink:href="#SimSun-43"/>
      <use xlink:href="#SimSun-50" x="50"/>
      <use xlink:href="#SimSun-55" x="100"/>
      <use xlink:href="#SimSun-4f7f" x="150"/>
      <use xlink:href="#SimSun-7528" x="250"/>
      <use xlink:href="#SimSun-7387" x="350"/>
     </g>
    </g>
   </g>
   <g id="line2d_29">
    <path d="M 115.437428 259.231257 
L 119.99992 256.976061 
L 124.562413 260.734726 
L 129.124905 256.600193 
L 133.687398 250.586327 
L 138.24989 265.62099 
L 142.812382 267.500323 
L 147.374875 269.003791 
L 151.937367 267.876191 
L 156.49986 272.762456 
L 161.062352 271.634856 
L 165.624845 276.145257 
L 170.187337 277.272857 
L 174.74983 279.528058 
L 179.312322 280.655658 
L 183.874815 279.15219 
L 188.437307 299.824851 
L 192.9998 282.159122 
L 197.562292 284.038459 
L 202.124785 285.166055 
L 206.687277 287.045392 
L 211.249769 287.797124 
L 215.812262 288.172992 
L 220.374754 290.052324 
L 224.937247 290.804056 
L 229.499739 291.931657 
L 234.062232 293.435121 
L 243.187217 293.435121 
L 247.749709 295.314454 
L 256.874694 296.817918 
L 261.437187 297.193786 
L 265.999679 297.945523 
L 270.562172 297.56965 
L 275.124664 298.69725 
L 279.687157 299.448987 
L 284.249649 299.448987 
L 293.374634 300.200724 
L 297.937126 300.200724 
L 307.062111 301.704188 
L 311.624604 301.704188 
L 320.749589 302.455915 
L 325.312081 301.704188 
L 329.874574 302.455915 
L 334.437066 302.455915 
L 338.999559 303.207652 
L 343.562051 302.831788 
L 348.124544 303.959388 
L 352.687036 303.207652 
L 357.249528 303.207652 
L 361.812021 303.959388 
L 366.374513 303.959388 
L 370.937006 304.335252 
L 375.499498 303.959388 
L 384.624483 303.959388 
L 389.186976 304.335252 
L 393.749468 303.959388 
L 398.311961 304.335252 
L 402.874453 304.335252 
L 407.436946 303.959388 
L 411.999438 305.086989 
L 416.561931 304.335252 
L 421.124423 304.335252 
L 425.686915 303.959388 
L 448.499378 303.959388 
L 453.06187 303.583515 
L 457.624363 302.831788 
L 462.186855 300.952451 
L 471.31184 301.704188 
L 480.436825 300.200724 
L 484.999318 300.200724 
L 489.56181 298.321387 
L 494.124302 298.69725 
L 498.686795 298.69725 
L 503.249287 297.945523 
L 507.81178 296.442054 
L 512.374272 295.690318 
L 516.936765 284.790191 
L 521.499257 291.555788 
L 526.06175 288.548856 
L 530.624242 288.548856 
L 535.186735 285.917791 
L 539.749227 284.414323 
L 544.31172 276.521125 
L 548.874212 282.159122 
L 553.436705 278.024589 
L 557.999197 278.024589 
L 562.561689 274.265925 
L 567.124182 271.258992 
L 571.686674 241.565525 
L 576.249167 263.36579 
L 580.811659 255.096724 
L 585.374152 259.607125 
L 589.936644 255.472592 
L 594.499137 255.096724 
L 599.061629 237.430992 
L 603.624122 254.72086 
L 608.186614 252.089791 
L 612.749107 253.217392 
L 617.311599 249.834591 
L 621.874092 247.579395 
L 626.436584 234.048196 
L 630.999076 240.437925 
L 635.561569 240.062061 
L 640.124061 243.068993 
L 644.686554 241.565525 
L 649.249046 241.941393 
L 653.811539 236.67926 
L 658.374031 245.324194 
L 662.936524 244.948326 
L 667.499016 244.948326 
L 672.061509 241.565525 
L 676.624001 239.310329 
L 681.186494 231.792995 
L 685.748986 227.658457 
L 690.311479 229.161931 
L 694.873971 228.410194 
L 699.436463 226.154993 
L 703.998956 229.161931 
L 708.561448 227.282594 
L 713.123941 233.672323 
L 717.686433 233.672323 
L 726.811418 229.913658 
L 731.373911 229.537794 
L 735.936403 220.516992 
L 740.498896 219.765265 
L 745.061388 218.637664 
L 749.623881 220.516992 
L 754.186373 225.027393 
L 758.748866 225.77913 
L 763.311358 223.523929 
L 767.873851 222.772192 
L 772.436343 217.134191 
L 776.998835 219.765265 
L 781.561328 223.523929 
L 786.12382 223.148065 
L 790.686313 223.899793 
L 795.248805 209.240998 
L 799.811298 214.879 
L 804.37379 224.651529 
L 808.936283 225.403266 
L 813.498775 220.516992 
L 818.061268 223.899793 
L 822.62376 226.530857 
L 827.186253 226.154993 
L 831.748745 225.403266 
L 836.311238 225.77913 
L 840.87373 226.90673 
L 845.436222 275.017657 
L 849.998715 208.489261 
L 854.561207 211.496199 
L 859.1237 219.013528 
L 863.686192 218.637664 
L 868.248685 220.516992 
L 872.811177 225.027393 
L 881.936162 228.03433 
L 886.498655 228.03433 
L 891.061147 230.665395 
L 895.62364 230.665395 
L 900.186132 226.154993 
L 904.748625 225.027393 
L 909.311117 226.90673 
L 913.873609 230.289531 
L 918.436102 234.424059 
L 922.998594 232.544732 
L 927.561087 232.920595 
L 932.123579 231.792995 
L 936.686072 234.048196 
L 941.248564 233.672323 
L 945.811057 232.920595 
L 950.373549 235.175791 
L 954.936042 225.403266 
L 959.498534 221.268728 
L 964.061027 229.161931 
L 968.623519 230.289531 
L 973.186012 230.289531 
L 977.748504 232.168859 
L 982.310996 229.161931 
L 986.873489 233.296459 
L 991.435981 231.417131 
L 991.435981 231.417131 
" clip-path="url(#p3cf36d6134)" style="fill: none; stroke: #1f77b4; stroke-width: 1.5; stroke-linecap: square"/>
   </g>
   <g id="line2d_30">
    <path d="M 776.998835 239.720614 
L 781.561328 235.825298 
L 786.12382 230.920868 
L 790.686313 225.942385 
L 795.248805 232.061126 
L 799.811298 236.17608 
L 804.37379 239.195572 
L 808.936283 241.382372 
L 813.498775 243.031169 
L 818.061268 243.733422 
L 822.62376 245.010402 
L 827.186253 244.671653 
L 831.748745 242.538546 
L 836.311238 239.291207 
L 840.87373 234.258797 
L 845.436222 228.559513 
L 849.998715 229.868749 
L 854.561207 233.728312 
L 859.1237 235.124175 
L 863.686192 235.809173 
L 868.248685 237.156224 
L 872.811177 237.800769 
L 877.37367 238.586391 
L 881.936162 238.01741 
L 886.498655 236.529372 
L 891.061147 233.989863 
L 895.62364 228.769031 
L 900.186132 222.9879 
L 904.748625 222.150946 
L 909.311117 224.259395 
L 913.873609 225.813958 
L 918.436102 226.770928 
L 922.998594 228.08078 
L 927.561087 228.140074 
L 932.123579 228.590233 
L 936.686072 228.487262 
L 941.248564 228.36774 
L 945.811057 227.569068 
L 950.373549 225.401324 
L 954.936042 222.283742 
L 959.498534 222.235071 
L 964.061027 224.290228 
L 968.623519 225.499115 
L 973.186012 226.452623 
L 977.748504 227.443562 
L 982.310996 227.805032 
L 986.873489 228.481988 
L 991.435981 228.683497 
" clip-path="url(#p3cf36d6134)" style="fill: none; stroke: #ff7f0e; stroke-width: 1.5; stroke-linecap: square"/>
   </g>
   <g id="line2d_31">
    <path d="M 776.998835 309.916875 
L 776.998835 203.659375 
" clip-path="url(#p3cf36d6134)" style="fill: none; stroke-dasharray: 7.4,3.2; stroke-dashoffset: 0; stroke: #0000ff; stroke-width: 2"/>
   </g>
   <g id="patch_9">
    <path d="M 71.6375 309.916875 
L 71.6375 203.659375 
" style="fill: none; stroke: #000000; stroke-width: 0.8; stroke-linejoin: miter; stroke-linecap: square"/>
   </g>
   <g id="patch_10">
    <path d="M 1035.235909 309.916875 
L 1035.235909 203.659375 
" style="fill: none; stroke: #000000; stroke-width: 0.8; stroke-linejoin: miter; stroke-linecap: square"/>
   </g>
   <g id="patch_11">
    <path d="M 71.6375 309.916875 
L 1035.235909 309.916875 
" style="fill: none; stroke: #000000; stroke-width: 0.8; stroke-linejoin: miter; stroke-linecap: square"/>
   </g>
   <g id="patch_12">
    <path d="M 71.6375 203.659375 
L 1035.235909 203.659375 
" style="fill: none; stroke: #000000; stroke-width: 0.8; stroke-linejoin: miter; stroke-linecap: square"/>
   </g>
   <g id="text_29">
    <!-- 云函数ID: 72 -->
    <g transform="translate(493.436705 197.659375) scale(0.2 -0.2)">
     <defs>
      <path id="SimSun-37" d="M 2825 4200 
Q 2300 3350 1987 2537 
Q 1675 1725 1675 1125 
Q 1675 1025 1700 850 
Q 1700 650 1700 400 
Q 1700 200 1637 125 
Q 1575 50 1425 50 
Q 1300 50 1212 137 
Q 1125 225 1125 450 
Q 1125 925 1337 1625 
Q 1550 2325 2475 4000 
L 1225 4000 
Q 950 4000 787 3825 
Q 625 3650 550 3300 
L 400 3325 
L 575 4375 
L 2825 4375 
L 2825 4200 
z
" transform="scale(0.015625)"/>
     </defs>
     <use xlink:href="#SimSun-4e91"/>
     <use xlink:href="#SimSun-51fd" x="100"/>
     <use xlink:href="#SimSun-6570" x="200"/>
     <use xlink:href="#SimSun-49" x="300"/>
     <use xlink:href="#SimSun-44" x="350"/>
     <use xlink:href="#SimSun-3a" x="400"/>
     <use xlink:href="#SimSun-20" x="450"/>
     <use xlink:href="#SimSun-37" x="500"/>
     <use xlink:href="#SimSun-32" x="550"/>
    </g>
   </g>
  </g>
  <g id="axes_3">
   <g id="patch_13">
    <path d="M 71.6375 484.516875 
L 1035.235909 484.516875 
L 1035.235909 378.259375 
L 71.6375 378.259375 
z
" style="fill: #ffffff"/>
   </g>
   <g id="matplotlib.axis_5">
    <g id="xtick_19">
     <g id="line2d_32">
      <g>
       <use xlink:href="#mbc623712f2" x="115.437428" y="484.516875" style="stroke: #000000; stroke-width: 0.8"/>
      </g>
     </g>
     <g id="text_30">
      <!-- 0 -->
      <g transform="translate(110.437428 505.404375) scale(0.2 -0.2)">
       <use xlink:href="#TimesNewRomanPSMT-30"/>
      </g>
     </g>
    </g>
    <g id="xtick_20">
     <g id="line2d_33">
      <g>
       <use xlink:href="#mbc623712f2" x="229.499739" y="484.516875" style="stroke: #000000; stroke-width: 0.8"/>
      </g>
     </g>
     <g id="text_31">
      <!-- 25 -->
      <g transform="translate(219.499739 505.404375) scale(0.2 -0.2)">
       <use xlink:href="#TimesNewRomanPSMT-32"/>
       <use xlink:href="#TimesNewRomanPSMT-35" x="50"/>
      </g>
     </g>
    </g>
    <g id="xtick_21">
     <g id="line2d_34">
      <g>
       <use xlink:href="#mbc623712f2" x="343.562051" y="484.516875" style="stroke: #000000; stroke-width: 0.8"/>
      </g>
     </g>
     <g id="text_32">
      <!-- 50 -->
      <g transform="translate(333.562051 505.404375) scale(0.2 -0.2)">
       <use xlink:href="#TimesNewRomanPSMT-35"/>
       <use xlink:href="#TimesNewRomanPSMT-30" x="50"/>
      </g>
     </g>
    </g>
    <g id="xtick_22">
     <g id="line2d_35">
      <g>
       <use xlink:href="#mbc623712f2" x="457.624363" y="484.516875" style="stroke: #000000; stroke-width: 0.8"/>
      </g>
     </g>
     <g id="text_33">
      <!-- 75 -->
      <g transform="translate(447.624363 505.404375) scale(0.2 -0.2)">
       <use xlink:href="#TimesNewRomanPSMT-37"/>
       <use xlink:href="#TimesNewRomanPSMT-35" x="50"/>
      </g>
     </g>
    </g>
    <g id="xtick_23">
     <g id="line2d_36">
      <g>
       <use xlink:href="#mbc623712f2" x="571.686674" y="484.516875" style="stroke: #000000; stroke-width: 0.8"/>
      </g>
     </g>
     <g id="text_34">
      <!-- 100 -->
      <g transform="translate(556.686674 505.404375) scale(0.2 -0.2)">
       <use xlink:href="#TimesNewRomanPSMT-31"/>
       <use xlink:href="#TimesNewRomanPSMT-30" x="50"/>
       <use xlink:href="#TimesNewRomanPSMT-30" x="100"/>
      </g>
     </g>
    </g>
    <g id="xtick_24">
     <g id="line2d_37">
      <g>
       <use xlink:href="#mbc623712f2" x="685.748986" y="484.516875" style="stroke: #000000; stroke-width: 0.8"/>
      </g>
     </g>
     <g id="text_35">
      <!-- 125 -->
      <g transform="translate(670.748986 505.404375) scale(0.2 -0.2)">
       <use xlink:href="#TimesNewRomanPSMT-31"/>
       <use xlink:href="#TimesNewRomanPSMT-32" x="50"/>
       <use xlink:href="#TimesNewRomanPSMT-35" x="100"/>
      </g>
     </g>
    </g>
    <g id="xtick_25">
     <g id="line2d_38">
      <g>
       <use xlink:href="#mbc623712f2" x="799.811298" y="484.516875" style="stroke: #000000; stroke-width: 0.8"/>
      </g>
     </g>
     <g id="text_36">
      <!-- 150 -->
      <g transform="translate(784.811298 505.404375) scale(0.2 -0.2)">
       <use xlink:href="#TimesNewRomanPSMT-31"/>
       <use xlink:href="#TimesNewRomanPSMT-35" x="50"/>
       <use xlink:href="#TimesNewRomanPSMT-30" x="100"/>
      </g>
     </g>
    </g>
    <g id="xtick_26">
     <g id="line2d_39">
      <g>
       <use xlink:href="#mbc623712f2" x="913.873609" y="484.516875" style="stroke: #000000; stroke-width: 0.8"/>
      </g>
     </g>
     <g id="text_37">
      <!-- 175 -->
      <g transform="translate(898.873609 505.404375) scale(0.2 -0.2)">
       <use xlink:href="#TimesNewRomanPSMT-31"/>
       <use xlink:href="#TimesNewRomanPSMT-37" x="50"/>
       <use xlink:href="#TimesNewRomanPSMT-35" x="100"/>
      </g>
     </g>
    </g>
    <g id="xtick_27">
     <g id="line2d_40">
      <g>
       <use xlink:href="#mbc623712f2" x="1027.935921" y="484.516875" style="stroke: #000000; stroke-width: 0.8"/>
      </g>
     </g>
     <g id="text_38">
      <!-- 200 -->
      <g transform="translate(1012.935921 505.404375) scale(0.2 -0.2)">
       <use xlink:href="#TimesNewRomanPSMT-32"/>
       <use xlink:href="#TimesNewRomanPSMT-30" x="50"/>
       <use xlink:href="#TimesNewRomanPSMT-30" x="100"/>
      </g>
     </g>
    </g>
   </g>
   <g id="matplotlib.axis_6">
    <g id="ytick_6">
     <g id="line2d_41">
      <g>
       <use xlink:href="#m6062c480e1" x="71.6375" y="435.587476" style="stroke: #000000; stroke-width: 0.8"/>
      </g>
     </g>
     <g id="text_39">
      <!-- 2.0 -->
      <g transform="translate(39.6375 442.531226) scale(0.2 -0.2)">
       <use xlink:href="#TimesNewRomanPSMT-32"/>
       <use xlink:href="#TimesNewRomanPSMT-2e" x="50"/>
       <use xlink:href="#TimesNewRomanPSMT-30" x="75"/>
      </g>
     </g>
    </g>
    <g id="ytick_7">
     <g id="line2d_42">
      <g>
       <use xlink:href="#m6062c480e1" x="71.6375" y="380.518154" style="stroke: #000000; stroke-width: 0.8"/>
      </g>
     </g>
     <g id="text_40">
      <!-- 4.0 -->
      <g transform="translate(39.6375 387.461904) scale(0.2 -0.2)">
       <defs>
        <path id="TimesNewRomanPSMT-34" d="M 2978 1563 
L 2978 1119 
L 2409 1119 
L 2409 0 
L 1894 0 
L 1894 1119 
L 100 1119 
L 100 1519 
L 2066 4325 
L 2409 4325 
L 2409 1563 
L 2978 1563 
z
M 1894 1563 
L 1894 3666 
L 406 1563 
L 1894 1563 
z
" transform="scale(0.015625)"/>
       </defs>
       <use xlink:href="#TimesNewRomanPSMT-34"/>
       <use xlink:href="#TimesNewRomanPSMT-2e" x="50"/>
       <use xlink:href="#TimesNewRomanPSMT-30" x="75"/>
      </g>
     </g>
    </g>
    <g id="text_41">
     <!-- CPU使用率 -->
     <g transform="translate(33.059375 476.388125) rotate(-90) scale(0.2 -0.2)">
      <use xlink:href="#SimSun-43"/>
      <use xlink:href="#SimSun-50" x="50"/>
      <use xlink:href="#SimSun-55" x="100"/>
      <use xlink:href="#SimSun-4f7f" x="150"/>
      <use xlink:href="#SimSun-7528" x="250"/>
      <use xlink:href="#SimSun-7387" x="350"/>
     </g>
    </g>
   </g>
   <g id="line2d_43">
    <path d="M 115.437428 479.686989 
L 119.99992 479.422656 
L 129.124905 478.100993 
L 133.687398 477.836659 
L 138.24989 477.307995 
L 142.812382 476.647163 
L 147.374875 476.118497 
L 151.937367 474.928999 
L 156.49986 470.038844 
L 161.062352 471.757007 
L 165.624845 470.435344 
L 170.187337 469.642345 
L 174.74983 468.056348 
L 179.312322 467.131184 
L 183.874815 462.373195 
L 188.437307 462.901859 
L 192.9998 461.051531 
L 197.562292 459.862034 
L 202.124785 457.483038 
L 206.687277 457.218704 
L 211.249769 439.111913 
L 215.812262 451.006885 
L 220.374754 449.288722 
L 224.937247 447.834894 
L 229.499739 445.455898 
L 234.062232 445.588063 
L 238.624724 442.416073 
L 243.187217 442.019573 
L 247.749709 439.772746 
L 252.312202 440.962244 
L 256.874694 437.129417 
L 261.437187 435.807754 
L 265.999679 428.00994 
L 270.562172 429.3316 
L 275.124664 429.199438 
L 279.687157 429.3316 
L 284.249649 427.481272 
L 288.812141 427.613441 
L 293.374634 426.291775 
L 297.937126 429.860268 
L 302.499619 430.124599 
L 307.062111 429.463769 
L 311.624604 429.463769 
L 316.187096 425.630945 
L 320.749589 425.630945 
L 325.312081 424.837946 
L 329.874574 425.498776 
L 334.437066 425.102277 
L 338.999559 421.005122 
L 343.562051 426.556105 
L 348.124544 423.648448 
L 352.687036 427.745603 
L 357.249528 428.67077 
L 361.812021 428.935101 
L 366.374513 425.366608 
L 370.937006 428.00994 
L 375.499498 418.758289 
L 380.061991 421.137284 
L 384.624483 420.608623 
L 389.186976 425.102277 
L 393.749468 426.159606 
L 398.311961 427.877772 
L 402.874453 428.274271 
L 407.436946 426.027444 
L 411.999438 425.234445 
L 416.561931 425.630945 
L 421.124423 427.613441 
L 425.686915 429.3316 
L 430.249408 427.216942 
L 434.8119 424.177116 
L 439.374393 425.102277 
L 443.936885 428.67077 
L 448.499378 428.40644 
L 453.06187 425.102277 
L 457.624363 428.00994 
L 462.186855 429.860268 
L 466.749348 429.463769 
L 471.31184 427.216942 
L 475.874333 427.084773 
L 480.436825 428.274271 
L 484.999318 449.024391 
L 489.56181 416.247131 
L 494.124302 417.30446 
L 498.686795 421.930283 
L 503.249287 422.591119 
L 507.81178 422.591119 
L 512.374272 424.044948 
L 516.936765 426.423943 
L 521.499257 425.630945 
L 526.06175 428.142102 
L 530.624242 426.159606 
L 535.186735 428.935101 
L 539.749227 425.102277 
L 544.31172 424.705778 
L 553.436705 431.181928 
L 557.999197 430.521098 
L 562.561689 430.124599 
L 567.124182 428.274271 
L 571.686674 430.388929 
L 576.249167 430.388929 
L 580.811659 431.710596 
L 585.374152 430.124599 
L 589.936644 430.917597 
L 594.499137 424.044948 
L 599.061629 422.19462 
L 603.624122 428.67077 
L 608.186614 429.199438 
L 612.749107 425.234445 
L 617.311599 424.970115 
L 621.874092 423.648448 
L 626.436584 426.291775 
L 630.999076 428.40644 
L 635.561569 431.710596 
L 640.124061 429.728099 
L 644.686554 428.802939 
L 649.249046 425.234445 
L 653.811539 425.366608 
L 662.936524 429.860268 
L 667.499016 429.728099 
L 672.061509 430.388929 
L 676.624001 428.67077 
L 685.748986 428.67077 
L 690.311479 429.860268 
L 694.873971 429.728099 
L 699.436463 428.538602 
L 703.998956 427.481272 
L 708.561448 427.481272 
L 713.123941 430.388929 
L 717.686433 424.309278 
L 722.248926 425.234445 
L 726.811418 428.142102 
L 731.373911 422.19462 
L 735.936403 425.763107 
L 740.498896 427.216942 
L 745.061388 427.349104 
L 749.623881 420.872954 
L 754.186373 423.648448 
L 758.748866 421.269453 
L 763.311358 421.269453 
L 767.873851 417.30446 
L 772.436343 421.930283 
L 776.998835 421.005122 
L 781.561328 419.551287 
L 786.12382 415.586301 
L 790.686313 416.775799 
L 795.248805 415.9828 
L 799.811298 415.454133 
L 804.37379 417.172298 
L 808.936283 415.718463 
L 813.498775 410.563979 
L 818.061268 414.264635 
L 822.62376 411.621308 
L 827.186253 409.242313 
L 831.748745 410.299642 
L 836.311238 408.977982 
L 840.87373 405.541651 
L 845.436222 410.696141 
L 849.998715 407.259817 
L 854.561207 408.713645 
L 859.1237 408.713645 
L 863.686192 406.202487 
L 868.248685 410.16748 
L 872.811177 411.621308 
L 877.37367 414.132466 
L 881.936162 411.092641 
L 886.498655 406.598987 
L 891.061147 415.9828 
L 895.62364 412.414307 
L 900.186132 415.057633 
L 904.748625 415.850632 
L 909.311117 417.30446 
L 913.873609 415.057633 
L 918.436102 416.775799 
L 922.998594 410.696141 
L 927.561087 413.735967 
L 932.123579 413.868135 
L 936.686072 416.64363 
L 941.248564 413.735967 
L 945.811057 416.114962 
L 950.373549 415.718463 
L 954.936042 414.264635 
L 959.498534 417.172298 
L 964.061027 417.172298 
L 968.623519 416.247131 
L 973.186012 414.264635 
L 977.748504 405.67382 
L 982.310996 412.942968 
L 986.873489 412.546469 
L 991.435981 413.471636 
L 991.435981 413.471636 
" clip-path="url(#p505fc43498)" style="fill: none; stroke: #1f77b4; stroke-width: 1.5; stroke-linecap: square"/>
   </g>
   <g id="line2d_44">
    <path d="M 776.998835 394.412395 
L 781.561328 395.889771 
L 786.12382 395.279181 
L 790.686313 394.913261 
L 795.248805 394.667226 
L 799.811298 394.213246 
L 804.37379 395.341639 
L 808.936283 395.34221 
L 813.498775 396.26416 
L 818.061268 388.865915 
L 822.62376 384.280144 
L 827.186253 388.309833 
L 831.748745 391.079853 
L 836.311238 391.825578 
L 840.87373 391.500904 
L 845.436222 392.0802 
L 849.998715 392.337512 
L 854.561207 393.414385 
L 859.1237 395.096293 
L 863.686192 396.705805 
L 868.248685 397.986626 
L 872.811177 389.088763 
L 877.37367 383.089261 
L 881.936162 386.222123 
L 886.498655 389.182055 
L 891.061147 390.578836 
L 895.62364 390.875071 
L 900.186132 391.13438 
L 904.748625 392.119043 
L 909.311117 394.499588 
L 913.873609 397.074037 
L 918.436102 398.383919 
L 922.998594 399.584466 
L 927.561087 390.11254 
L 932.123579 384.048848 
L 936.686072 388.3021 
L 941.248564 391.83471 
L 945.811057 393.815289 
L 950.373549 395.131113 
L 954.936042 395.284926 
L 959.498534 396.804139 
L 964.061027 399.664477 
L 968.623519 402.867293 
L 973.186012 403.695006 
L 977.748504 405.363161 
L 982.310996 395.877876 
L 986.873489 390.00665 
L 991.435981 393.189049 
" clip-path="url(#p505fc43498)" style="fill: none; stroke: #ff7f0e; stroke-width: 1.5; stroke-linecap: square"/>
   </g>
   <g id="line2d_45">
    <path d="M 776.998835 484.516875 
L 776.998835 378.259375 
" clip-path="url(#p505fc43498)" style="fill: none; stroke-dasharray: 7.4,3.2; stroke-dashoffset: 0; stroke: #0000ff; stroke-width: 2"/>
   </g>
   <g id="patch_14">
    <path d="M 71.6375 484.516875 
L 71.6375 378.259375 
" style="fill: none; stroke: #000000; stroke-width: 0.8; stroke-linejoin: miter; stroke-linecap: square"/>
   </g>
   <g id="patch_15">
    <path d="M 1035.235909 484.516875 
L 1035.235909 378.259375 
" style="fill: none; stroke: #000000; stroke-width: 0.8; stroke-linejoin: miter; stroke-linecap: square"/>
   </g>
   <g id="patch_16">
    <path d="M 71.6375 484.516875 
L 1035.235909 484.516875 
" style="fill: none; stroke: #000000; stroke-width: 0.8; stroke-linejoin: miter; stroke-linecap: square"/>
   </g>
   <g id="patch_17">
    <path d="M 71.6375 378.259375 
L 1035.235909 378.259375 
" style="fill: none; stroke: #000000; stroke-width: 0.8; stroke-linejoin: miter; stroke-linecap: square"/>
   </g>
   <g id="text_42">
    <!-- 云函数ID: 150 -->
    <g transform="translate(488.436705 372.259375) scale(0.2 -0.2)">
     <defs>
      <path id="SimSun-31" d="M 1825 4450 
L 1825 650 
Q 1825 450 1950 350 
Q 2075 250 2300 250 
L 2550 250 
L 2550 100 
L 725 100 
L 725 250 
L 950 250 
Q 1200 250 1312 350 
Q 1425 450 1425 650 
L 1425 3675 
Q 1425 3775 1362 3837 
Q 1300 3900 1175 3900 
L 725 3900 
L 725 4050 
L 950 4050 
Q 1250 4050 1437 4150 
Q 1625 4250 1725 4450 
L 1825 4450 
z
" transform="scale(0.015625)"/>
      <path id="SimSun-35" d="M 1725 2850 
Q 2200 2850 2500 2487 
Q 2800 2125 2800 1525 
Q 2800 850 2487 450 
Q 2175 50 1525 50 
Q 1075 50 725 312 
Q 375 575 375 950 
Q 375 1100 462 1212 
Q 550 1325 700 1325 
Q 850 1325 900 1225 
Q 950 1125 950 1050 
Q 950 900 875 825 
Q 800 725 800 625 
Q 800 425 1037 325 
Q 1275 225 1550 225 
Q 1950 225 2162 550 
Q 2375 875 2375 1475 
Q 2375 1975 2187 2287 
Q 2000 2600 1625 2600 
Q 1350 2600 1150 2500 
Q 950 2400 775 2075 
L 550 2100 
L 675 4375 
L 2725 4375 
L 2650 4000 
L 850 4000 
L 750 2350 
Q 1000 2700 1237 2775 
Q 1475 2850 1725 2850 
z
" transform="scale(0.015625)"/>
      <path id="SimSun-30" d="M 1600 4225 
Q 1250 4225 1012 3687 
Q 775 3150 775 2250 
Q 775 1300 1012 775 
Q 1250 250 1600 250 
Q 1975 250 2187 775 
Q 2400 1300 2400 2250 
Q 2400 3150 2200 3687 
Q 2000 4225 1600 4225 
z
M 1600 50 
Q 1050 50 675 625 
Q 300 1200 300 2250 
Q 300 3225 662 3825 
Q 1025 4425 1600 4425 
Q 2150 4425 2512 3850 
Q 2875 3275 2875 2250 
Q 2875 1225 2512 637 
Q 2150 50 1600 50 
z
" transform="scale(0.015625)"/>
     </defs>
     <use xlink:href="#SimSun-4e91"/>
     <use xlink:href="#SimSun-51fd" x="100"/>
     <use xlink:href="#SimSun-6570" x="200"/>
     <use xlink:href="#SimSun-49" x="300"/>
     <use xlink:href="#SimSun-44" x="350"/>
     <use xlink:href="#SimSun-3a" x="400"/>
     <use xlink:href="#SimSun-20" x="450"/>
     <use xlink:href="#SimSun-31" x="500"/>
     <use xlink:href="#SimSun-35" x="550"/>
     <use xlink:href="#SimSun-30" x="600"/>
    </g>
   </g>
  </g>
  <g id="axes_4">
   <g id="patch_18">
    <path d="M 71.6375 659.116875 
L 1035.235909 659.116875 
L 1035.235909 552.859375 
L 71.6375 552.859375 
z
" style="fill: #ffffff"/>
   </g>
   <g id="matplotlib.axis_7">
    <g id="xtick_28">
     <g id="line2d_46">
      <g>
       <use xlink:href="#mbc623712f2" x="115.437428" y="659.116875" style="stroke: #000000; stroke-width: 0.8"/>
      </g>
     </g>
     <g id="text_43">
      <!-- 0 -->
      <g transform="translate(110.437428 680.004375) scale(0.2 -0.2)">
       <use xlink:href="#TimesNewRomanPSMT-30"/>
      </g>
     </g>
    </g>
    <g id="xtick_29">
     <g id="line2d_47">
      <g>
       <use xlink:href="#mbc623712f2" x="229.499739" y="659.116875" style="stroke: #000000; stroke-width: 0.8"/>
      </g>
     </g>
     <g id="text_44">
      <!-- 25 -->
      <g transform="translate(219.499739 680.004375) scale(0.2 -0.2)">
       <use xlink:href="#TimesNewRomanPSMT-32"/>
       <use xlink:href="#TimesNewRomanPSMT-35" x="50"/>
      </g>
     </g>
    </g>
    <g id="xtick_30">
     <g id="line2d_48">
      <g>
       <use xlink:href="#mbc623712f2" x="343.562051" y="659.116875" style="stroke: #000000; stroke-width: 0.8"/>
      </g>
     </g>
     <g id="text_45">
      <!-- 50 -->
      <g transform="translate(333.562051 680.004375) scale(0.2 -0.2)">
       <use xlink:href="#TimesNewRomanPSMT-35"/>
       <use xlink:href="#TimesNewRomanPSMT-30" x="50"/>
      </g>
     </g>
    </g>
    <g id="xtick_31">
     <g id="line2d_49">
      <g>
       <use xlink:href="#mbc623712f2" x="457.624363" y="659.116875" style="stroke: #000000; stroke-width: 0.8"/>
      </g>
     </g>
     <g id="text_46">
      <!-- 75 -->
      <g transform="translate(447.624363 680.004375) scale(0.2 -0.2)">
       <use xlink:href="#TimesNewRomanPSMT-37"/>
       <use xlink:href="#TimesNewRomanPSMT-35" x="50"/>
      </g>
     </g>
    </g>
    <g id="xtick_32">
     <g id="line2d_50">
      <g>
       <use xlink:href="#mbc623712f2" x="571.686674" y="659.116875" style="stroke: #000000; stroke-width: 0.8"/>
      </g>
     </g>
     <g id="text_47">
      <!-- 100 -->
      <g transform="translate(556.686674 680.004375) scale(0.2 -0.2)">
       <use xlink:href="#TimesNewRomanPSMT-31"/>
       <use xlink:href="#TimesNewRomanPSMT-30" x="50"/>
       <use xlink:href="#TimesNewRomanPSMT-30" x="100"/>
      </g>
     </g>
    </g>
    <g id="xtick_33">
     <g id="line2d_51">
      <g>
       <use xlink:href="#mbc623712f2" x="685.748986" y="659.116875" style="stroke: #000000; stroke-width: 0.8"/>
      </g>
     </g>
     <g id="text_48">
      <!-- 125 -->
      <g transform="translate(670.748986 680.004375) scale(0.2 -0.2)">
       <use xlink:href="#TimesNewRomanPSMT-31"/>
       <use xlink:href="#TimesNewRomanPSMT-32" x="50"/>
       <use xlink:href="#TimesNewRomanPSMT-35" x="100"/>
      </g>
     </g>
    </g>
    <g id="xtick_34">
     <g id="line2d_52">
      <g>
       <use xlink:href="#mbc623712f2" x="799.811298" y="659.116875" style="stroke: #000000; stroke-width: 0.8"/>
      </g>
     </g>
     <g id="text_49">
      <!-- 150 -->
      <g transform="translate(784.811298 680.004375) scale(0.2 -0.2)">
       <use xlink:href="#TimesNewRomanPSMT-31"/>
       <use xlink:href="#TimesNewRomanPSMT-35" x="50"/>
       <use xlink:href="#TimesNewRomanPSMT-30" x="100"/>
      </g>
     </g>
    </g>
    <g id="xtick_35">
     <g id="line2d_53">
      <g>
       <use xlink:href="#mbc623712f2" x="913.873609" y="659.116875" style="stroke: #000000; stroke-width: 0.8"/>
      </g>
     </g>
     <g id="text_50">
      <!-- 175 -->
      <g transform="translate(898.873609 680.004375) scale(0.2 -0.2)">
       <use xlink:href="#TimesNewRomanPSMT-31"/>
       <use xlink:href="#TimesNewRomanPSMT-37" x="50"/>
       <use xlink:href="#TimesNewRomanPSMT-35" x="100"/>
      </g>
     </g>
    </g>
    <g id="xtick_36">
     <g id="line2d_54">
      <g>
       <use xlink:href="#mbc623712f2" x="1027.935921" y="659.116875" style="stroke: #000000; stroke-width: 0.8"/>
      </g>
     </g>
     <g id="text_51">
      <!-- 200 -->
      <g transform="translate(1012.935921 680.004375) scale(0.2 -0.2)">
       <use xlink:href="#TimesNewRomanPSMT-32"/>
       <use xlink:href="#TimesNewRomanPSMT-30" x="50"/>
       <use xlink:href="#TimesNewRomanPSMT-30" x="100"/>
      </g>
     </g>
    </g>
   </g>
   <g id="matplotlib.axis_8">
    <g id="ytick_8">
     <g id="line2d_55">
      <g>
       <use xlink:href="#m6062c480e1" x="71.6375" y="633.770771" style="stroke: #000000; stroke-width: 0.8"/>
      </g>
     </g>
     <g id="text_52">
      <!-- 10.0 -->
      <g transform="translate(29.6375 640.714521) scale(0.2 -0.2)">
       <use xlink:href="#TimesNewRomanPSMT-31"/>
       <use xlink:href="#TimesNewRomanPSMT-30" x="50"/>
       <use xlink:href="#TimesNewRomanPSMT-2e" x="100"/>
       <use xlink:href="#TimesNewRomanPSMT-30" x="125"/>
      </g>
     </g>
    </g>
    <g id="ytick_9">
     <g id="line2d_56">
      <g>
       <use xlink:href="#m6062c480e1" x="71.6375" y="554.07757" style="stroke: #000000; stroke-width: 0.8"/>
      </g>
     </g>
     <g id="text_53">
      <!-- 20.0 -->
      <g transform="translate(29.6375 561.02132) scale(0.2 -0.2)">
       <use xlink:href="#TimesNewRomanPSMT-32"/>
       <use xlink:href="#TimesNewRomanPSMT-30" x="50"/>
       <use xlink:href="#TimesNewRomanPSMT-2e" x="100"/>
       <use xlink:href="#TimesNewRomanPSMT-30" x="125"/>
      </g>
     </g>
    </g>
    <g id="text_54">
     <!-- CPU使用率 -->
     <g transform="translate(23.059375 650.988125) rotate(-90) scale(0.2 -0.2)">
      <use xlink:href="#SimSun-43"/>
      <use xlink:href="#SimSun-50" x="50"/>
      <use xlink:href="#SimSun-55" x="100"/>
      <use xlink:href="#SimSun-4f7f" x="150"/>
      <use xlink:href="#SimSun-7528" x="250"/>
      <use xlink:href="#SimSun-7387" x="350"/>
     </g>
    </g>
   </g>
   <g id="line2d_57">
    <path d="M 115.437428 618.358106 
L 119.99992 616.397651 
L 124.562413 617.640866 
L 129.124905 598.068213 
L 133.687398 590.680661 
L 138.24989 596.538108 
L 142.812382 599.996793 
L 147.374875 599.606298 
L 151.937367 601.837706 
L 156.49986 601.781921 
L 161.062352 605.575316 
L 165.624845 607.974079 
L 170.187337 610.691621 
L 174.74983 608.600467 
L 179.312322 584.549069 
L 192.9998 591.036096 
L 197.562292 592.39247 
L 202.124785 605.095565 
L 206.687277 604.481922 
L 211.249769 607.427386 
L 215.812262 606.743617 
L 220.374754 604.534523 
L 224.937247 600.484517 
L 229.499739 608.316769 
L 234.062232 584.722793 
L 238.624724 574.402538 
L 243.187217 578.521082 
L 247.749709 571.737581 
L 252.312202 589.725939 
L 256.874694 594.02618 
L 261.437187 599.17436 
L 265.999679 602.209079 
L 270.562172 600.312382 
L 275.124664 603.292904 
L 279.687157 606.869536 
L 284.249649 599.607895 
L 288.812141 580.875209 
L 293.374634 581.931947 
L 297.937126 585.537269 
L 302.499619 597.932741 
L 307.062111 596.593893 
L 311.624604 596.203398 
L 316.187096 591.796361 
L 320.749589 593.469918 
L 325.312081 596.370753 
L 329.874574 599.829438 
L 334.437066 604.515393 
L 338.999559 603.455479 
L 343.562051 584.914058 
L 352.687036 601.732513 
L 357.249528 600.592895 
L 361.812021 601.153937 
L 366.374513 600.949919 
L 370.937006 602.633045 
L 375.499498 597.379671 
L 380.061991 598.195728 
L 384.624483 600.031853 
L 389.186976 603.65312 
L 393.749468 654.286989 
L 398.311961 567.061187 
L 402.874453 557.689261 
L 407.436946 574.224026 
L 411.999438 584.934776 
L 416.561931 588.721802 
L 421.124423 591.76289 
L 425.686915 596.984396 
L 430.249408 597.080021 
L 434.8119 602.990069 
L 439.374393 603.85713 
L 443.936885 605.540249 
L 448.499378 607.376381 
L 453.06187 589.034198 
L 457.624363 586.656146 
L 462.186855 594.689223 
L 466.749348 604.290665 
L 471.31184 600.592895 
L 475.874333 603.704117 
L 480.436825 603.143075 
L 484.999318 604.010144 
L 489.56181 605.387243 
L 494.124302 606.458315 
L 498.686795 608.95749 
L 503.249287 601.510961 
L 507.81178 595.186508 
L 512.374272 604.622183 
L 516.936765 610.334597 
L 521.499257 605.285234 
L 526.06175 608.95749 
L 530.624242 608.95749 
L 535.186735 604.877206 
L 539.749227 609.110512 
L 544.31172 608.906494 
L 548.874212 609.416531 
L 553.436705 604.826201 
L 557.999197 603.143075 
L 562.561689 603.449102 
L 567.124182 608.804485 
L 571.686674 610.079575 
L 576.249167 606.713338 
L 580.811659 608.498465 
L 585.374152 607.121366 
L 589.936644 599.980856 
L 594.499137 608.702476 
L 599.061629 608.753488 
L 603.624122 610.079575 
L 608.186614 608.54947 
L 612.749107 606.560332 
L 617.311599 607.886419 
L 621.874092 608.039424 
L 626.436584 607.27438 
L 630.999076 611.048645 
L 635.561569 614.057858 
L 640.124061 609.722551 
L 644.686554 609.82456 
L 649.249046 612.578758 
L 653.811539 610.130579 
L 658.374031 604.775197 
L 662.936524 610.436599 
L 667.499016 606.50932 
L 672.061509 606.866351 
L 676.624001 608.447461 
L 681.186494 606.662333 
L 685.748986 605.99929 
L 690.311479 608.632349 
L 694.873971 608.54947 
L 699.436463 605.99929 
L 703.998956 606.713338 
L 708.561448 606.356314 
L 713.123941 609.82456 
L 717.686433 610.895639 
L 722.248926 596.825006 
L 726.811418 597.730319 
L 731.373911 599.050037 
L 735.936403 593.541648 
L 740.498896 595.492527 
L 745.061388 595.033502 
L 749.623881 583.532186 
L 754.186373 583.207037 
L 758.748866 580.28708 
L 763.311358 578.909981 
L 767.873851 581.319893 
L 772.436343 576.729563 
L 776.998835 593.082608 
L 781.561328 586.19712 
L 786.12382 590.902205 
L 790.686313 587.287322 
L 795.248805 581.147765 
L 799.811298 593.48426 
L 804.37379 593.082608 
L 808.936283 594.230198 
L 813.498775 594.172809 
L 818.061268 594.63185 
L 822.62376 594.63185 
L 827.186253 596.582736 
L 831.748745 594.517088 
L 836.311238 592.853091 
L 840.87373 581.492036 
L 845.436222 582.002066 
L 849.998715 581.428286 
L 854.561207 589.525106 
L 859.1237 588.090626 
L 863.686192 588.434904 
L 868.248685 590.557934 
L 872.811177 593.771157 
L 877.37367 594.058055 
L 881.936162 595.090875 
L 886.498655 579.061391 
L 891.061147 585.038381 
L 895.62364 590.78745 
L 900.186132 590.557934 
L 904.748625 590.156274 
L 909.311117 591.131721 
L 913.873609 591.016959 
L 918.436102 589.410344 
L 922.998594 589.869384 
L 927.561087 585.910223 
L 932.123579 584.590505 
L 936.686072 588.549666 
L 941.248564 590.500545 
L 950.373549 591.935025 
L 954.936042 589.926758 
L 959.498534 592.50882 
L 964.061027 593.19737 
L 968.623519 592.451439 
L 973.186012 586.311875 
L 977.748504 593.656395 
L 982.310996 597.443421 
L 986.873489 596.869634 
L 991.435981 586.828289 
L 991.435981 586.828289 
" clip-path="url(#p0ee02305be)" style="fill: none; stroke: #1f77b4; stroke-width: 1.5; stroke-linecap: square"/>
   </g>
   <g id="line2d_58">
    <path d="M 776.998835 627.707641 
L 781.561328 627.533826 
L 786.12382 627.54151 
L 790.686313 627.568848 
L 795.248805 627.571576 
L 799.811298 627.681664 
L 804.37379 627.666844 
L 808.936283 627.707193 
L 813.498775 627.695002 
L 818.061268 627.740026 
L 822.62376 627.735047 
L 827.186253 627.730936 
L 831.748745 627.685434 
L 836.311238 627.529798 
L 840.87373 627.53619 
L 845.436222 627.55896 
L 849.998715 627.560252 
L 854.561207 627.656614 
L 859.1237 627.667794 
L 863.686192 627.716724 
L 868.248685 627.698559 
L 872.811177 627.748728 
L 877.37367 627.738057 
L 881.936162 627.697062 
L 886.498655 627.690055 
L 891.061147 627.525231 
L 895.62364 627.533317 
L 900.186132 627.546974 
L 904.748625 627.556163 
L 909.311117 627.617732 
L 913.873609 627.632985 
L 918.436102 627.661797 
L 922.998594 627.649516 
L 927.561087 627.714246 
L 932.123579 627.722044 
L 936.686072 627.714823 
L 941.248564 627.715865 
L 945.811057 627.523026 
L 950.373549 627.528438 
L 954.936042 627.547157 
L 959.498534 627.567936 
L 964.061027 627.62502 
L 968.623519 627.641087 
L 973.186012 627.631959 
L 977.748504 627.655854 
L 982.310996 627.632985 
L 986.873489 627.651925 
L 991.435981 627.627718 
" clip-path="url(#p0ee02305be)" style="fill: none; stroke: #ff7f0e; stroke-width: 1.5; stroke-linecap: square"/>
   </g>
   <g id="line2d_59">
    <path d="M 776.998835 659.116875 
L 776.998835 552.859375 
" clip-path="url(#p0ee02305be)" style="fill: none; stroke-dasharray: 7.4,3.2; stroke-dashoffset: 0; stroke: #0000ff; stroke-width: 2"/>
   </g>
   <g id="patch_19">
    <path d="M 71.6375 659.116875 
L 71.6375 552.859375 
" style="fill: none; stroke: #000000; stroke-width: 0.8; stroke-linejoin: miter; stroke-linecap: square"/>
   </g>
   <g id="patch_20">
    <path d="M 1035.235909 659.116875 
L 1035.235909 552.859375 
" style="fill: none; stroke: #000000; stroke-width: 0.8; stroke-linejoin: miter; stroke-linecap: square"/>
   </g>
   <g id="patch_21">
    <path d="M 71.6375 659.116875 
L 1035.235909 659.116875 
" style="fill: none; stroke: #000000; stroke-width: 0.8; stroke-linejoin: miter; stroke-linecap: square"/>
   </g>
   <g id="patch_22">
    <path d="M 71.6375 552.859375 
L 1035.235909 552.859375 
" style="fill: none; stroke: #000000; stroke-width: 0.8; stroke-linejoin: miter; stroke-linecap: square"/>
   </g>
   <g id="text_55">
    <!-- 云函数ID: 165 -->
    <g transform="translate(488.436705 546.859375) scale(0.2 -0.2)">
     <defs>
      <path id="SimSun-36" d="M 775 1800 
Q 775 1050 1037 637 
Q 1300 225 1675 225 
Q 2050 225 2250 500 
Q 2450 775 2450 1525 
Q 2450 2025 2237 2300 
Q 2025 2575 1725 2575 
Q 1450 2575 1212 2412 
Q 975 2250 775 1800 
z
M 1750 2825 
Q 2350 2825 2612 2425 
Q 2875 2025 2875 1525 
Q 2875 775 2512 412 
Q 2150 50 1675 50 
Q 1000 50 650 562 
Q 300 1075 300 2050 
Q 300 3200 725 3812 
Q 1150 4425 1875 4425 
Q 2225 4425 2437 4225 
Q 2650 4025 2650 3875 
Q 2650 3725 2587 3650 
Q 2525 3575 2375 3575 
Q 2250 3575 2187 3637 
Q 2125 3700 2125 3825 
Q 2125 3875 2150 3925 
Q 2150 3975 2150 4025 
Q 2150 4125 2075 4187 
Q 2000 4250 1800 4250 
Q 1375 4250 1075 3862 
Q 775 3475 775 2175 
Q 925 2500 1187 2662 
Q 1450 2825 1750 2825 
z
" transform="scale(0.015625)"/>
     </defs>
     <use xlink:href="#SimSun-4e91"/>
     <use xlink:href="#SimSun-51fd" x="100"/>
     <use xlink:href="#SimSun-6570" x="200"/>
     <use xlink:href="#SimSun-49" x="300"/>
     <use xlink:href="#SimSun-44" x="350"/>
     <use xlink:href="#SimSun-3a" x="400"/>
     <use xlink:href="#SimSun-20" x="450"/>
     <use xlink:href="#SimSun-31" x="500"/>
     <use xlink:href="#SimSun-36" x="550"/>
     <use xlink:href="#SimSun-35" x="600"/>
    </g>
   </g>
  </g>
 </g>
 <defs>
  <clipPath id="p04e3c2d9be">
   <rect x="71.6375" y="29.059375" width="963.598409" height="106.2575"/>
  </clipPath>
  <clipPath id="p3cf36d6134">
   <rect x="71.6375" y="203.659375" width="963.598409" height="106.2575"/>
  </clipPath>
  <clipPath id="p505fc43498">
   <rect x="71.6375" y="378.259375" width="963.598409" height="106.2575"/>
  </clipPath>
  <clipPath id="p0ee02305be">
   <rect x="71.6375" y="552.859375" width="963.598409" height="106.2575"/>
  </clipPath>
 </defs>
</svg>
