<?xml version="1.0" encoding="utf-8" standalone="no"?>
<!DOCTYPE svg PUBLIC "-//W3C//DTD SVG 1.1//EN"
  "http://www.w3.org/Graphics/SVG/1.1/DTD/svg11.dtd">
<svg xmlns:xlink="http://www.w3.org/1999/xlink" width="1050.602344pt" height="690.95375pt" viewBox="0 0 1050.602344 690.95375" xmlns="http://www.w3.org/2000/svg" version="1.1">
 <metadata>
  <rdf:RDF xmlns:dc="http://purl.org/dc/elements/1.1/" xmlns:cc="http://creativecommons.org/ns#" xmlns:rdf="http://www.w3.org/1999/02/22-rdf-syntax-ns#">
   <cc:Work>
    <dc:type rdf:resource="http://purl.org/dc/dcmitype/StillImage"/>
    <dc:date>2024-02-21T19:07:26.716259</dc:date>
    <dc:format>image/svg+xml</dc:format>
    <dc:creator>
     <cc:Agent>
      <dc:title>Matplotlib v3.7.1, https://matplotlib.org/</dc:title>
     </cc:Agent>
    </dc:creator>
   </cc:Work>
  </rdf:RDF>
 </metadata>
 <defs>
  <style type="text/css">*{stroke-linejoin: round; stroke-linecap: butt}</style>
 </defs>
 <g id="figure_1">
  <g id="patch_1">
   <path d="M 0 690.95375 
L 1050.602344 690.95375 
L 1050.602344 0 
L 0 0 
z
" style="fill: #ffffff"/>
  </g>
  <g id="axes_1">
   <g id="patch_2">
    <path d="M 61.6375 192.988125 
L 1032.554189 192.988125 
L 1032.554189 29.059375 
L 61.6375 29.059375 
z
" style="fill: #ffffff"/>
   </g>
   <g id="matplotlib.axis_1">
    <g id="xtick_1">
     <g id="line2d_1">
      <defs>
       <path id="mbb01c109e5" d="M 0 0 
L 0 3.5 
" style="stroke: #000000; stroke-width: 0.8"/>
      </defs>
      <g>
       <use xlink:href="#mbb01c109e5" x="105.770077" y="192.988125" style="stroke: #000000; stroke-width: 0.8"/>
      </g>
     </g>
     <g id="text_1">
      <!-- 0 -->
      <g transform="translate(100.770077 213.875625) scale(0.2 -0.2)">
       <defs>
        <path id="TimesNewRomanPSMT-30" d="M 231 2094 
Q 231 2819 450 3342 
Q 669 3866 1031 4122 
Q 1313 4325 1613 4325 
Q 2100 4325 2488 3828 
Q 2972 3213 2972 2159 
Q 2972 1422 2759 906 
Q 2547 391 2217 158 
Q 1888 -75 1581 -75 
Q 975 -75 572 641 
Q 231 1244 231 2094 
z
M 844 2016 
Q 844 1141 1059 588 
Q 1238 122 1591 122 
Q 1759 122 1940 273 
Q 2122 425 2216 781 
Q 2359 1319 2359 2297 
Q 2359 3022 2209 3506 
Q 2097 3866 1919 4016 
Q 1791 4119 1609 4119 
Q 1397 4119 1231 3928 
Q 1006 3669 925 3112 
Q 844 2556 844 2016 
z
" transform="scale(0.015625)"/>
       </defs>
       <use xlink:href="#TimesNewRomanPSMT-30"/>
      </g>
     </g>
    </g>
    <g id="xtick_2">
     <g id="line2d_2">
      <g>
       <use xlink:href="#mbb01c109e5" x="259.542121" y="192.988125" style="stroke: #000000; stroke-width: 0.8"/>
      </g>
     </g>
     <g id="text_2">
      <!-- 50 -->
      <g transform="translate(249.542121 213.875625) scale(0.2 -0.2)">
       <defs>
        <path id="TimesNewRomanPSMT-35" d="M 2778 4238 
L 2534 3706 
L 1259 3706 
L 981 3138 
Q 1809 3016 2294 2522 
Q 2709 2097 2709 1522 
Q 2709 1188 2573 903 
Q 2438 619 2231 419 
Q 2025 219 1772 97 
Q 1413 -75 1034 -75 
Q 653 -75 479 54 
Q 306 184 306 341 
Q 306 428 378 495 
Q 450 563 559 563 
Q 641 563 702 538 
Q 763 513 909 409 
Q 1144 247 1384 247 
Q 1750 247 2026 523 
Q 2303 800 2303 1197 
Q 2303 1581 2056 1914 
Q 1809 2247 1375 2428 
Q 1034 2569 447 2591 
L 1259 4238 
L 2778 4238 
z
" transform="scale(0.015625)"/>
       </defs>
       <use xlink:href="#TimesNewRomanPSMT-35"/>
       <use xlink:href="#TimesNewRomanPSMT-30" x="50"/>
      </g>
     </g>
    </g>
    <g id="xtick_3">
     <g id="line2d_3">
      <g>
       <use xlink:href="#mbb01c109e5" x="413.314166" y="192.988125" style="stroke: #000000; stroke-width: 0.8"/>
      </g>
     </g>
     <g id="text_3">
      <!-- 100 -->
      <g transform="translate(398.314166 213.875625) scale(0.2 -0.2)">
       <defs>
        <path id="TimesNewRomanPSMT-31" d="M 750 3822 
L 1781 4325 
L 1884 4325 
L 1884 747 
Q 1884 391 1914 303 
Q 1944 216 2037 169 
Q 2131 122 2419 116 
L 2419 0 
L 825 0 
L 825 116 
Q 1125 122 1212 167 
Q 1300 213 1334 289 
Q 1369 366 1369 747 
L 1369 3034 
Q 1369 3497 1338 3628 
Q 1316 3728 1258 3775 
Q 1200 3822 1119 3822 
Q 1003 3822 797 3725 
L 750 3822 
z
" transform="scale(0.015625)"/>
       </defs>
       <use xlink:href="#TimesNewRomanPSMT-31"/>
       <use xlink:href="#TimesNewRomanPSMT-30" x="50"/>
       <use xlink:href="#TimesNewRomanPSMT-30" x="100"/>
      </g>
     </g>
    </g>
    <g id="xtick_4">
     <g id="line2d_4">
      <g>
       <use xlink:href="#mbb01c109e5" x="567.08621" y="192.988125" style="stroke: #000000; stroke-width: 0.8"/>
      </g>
     </g>
     <g id="text_4">
      <!-- 150 -->
      <g transform="translate(552.08621 213.875625) scale(0.2 -0.2)">
       <use xlink:href="#TimesNewRomanPSMT-31"/>
       <use xlink:href="#TimesNewRomanPSMT-35" x="50"/>
       <use xlink:href="#TimesNewRomanPSMT-30" x="100"/>
      </g>
     </g>
    </g>
    <g id="xtick_5">
     <g id="line2d_5">
      <g>
       <use xlink:href="#mbb01c109e5" x="720.858255" y="192.988125" style="stroke: #000000; stroke-width: 0.8"/>
      </g>
     </g>
     <g id="text_5">
      <!-- 200 -->
      <g transform="translate(705.858255 213.875625) scale(0.2 -0.2)">
       <defs>
        <path id="TimesNewRomanPSMT-32" d="M 2934 816 
L 2638 0 
L 138 0 
L 138 116 
Q 1241 1122 1691 1759 
Q 2141 2397 2141 2925 
Q 2141 3328 1894 3587 
Q 1647 3847 1303 3847 
Q 991 3847 742 3664 
Q 494 3481 375 3128 
L 259 3128 
Q 338 3706 661 4015 
Q 984 4325 1469 4325 
Q 1984 4325 2329 3994 
Q 2675 3663 2675 3213 
Q 2675 2891 2525 2569 
Q 2294 2063 1775 1497 
Q 997 647 803 472 
L 1909 472 
Q 2247 472 2383 497 
Q 2519 522 2628 598 
Q 2738 675 2819 816 
L 2934 816 
z
" transform="scale(0.015625)"/>
       </defs>
       <use xlink:href="#TimesNewRomanPSMT-32"/>
       <use xlink:href="#TimesNewRomanPSMT-30" x="50"/>
       <use xlink:href="#TimesNewRomanPSMT-30" x="100"/>
      </g>
     </g>
    </g>
    <g id="xtick_6">
     <g id="line2d_6">
      <g>
       <use xlink:href="#mbb01c109e5" x="874.630299" y="192.988125" style="stroke: #000000; stroke-width: 0.8"/>
      </g>
     </g>
     <g id="text_6">
      <!-- 250 -->
      <g transform="translate(859.630299 213.875625) scale(0.2 -0.2)">
       <use xlink:href="#TimesNewRomanPSMT-32"/>
       <use xlink:href="#TimesNewRomanPSMT-35" x="50"/>
       <use xlink:href="#TimesNewRomanPSMT-30" x="100"/>
      </g>
     </g>
    </g>
    <g id="xtick_7">
     <g id="line2d_7">
      <g>
       <use xlink:href="#mbb01c109e5" x="1028.402344" y="192.988125" style="stroke: #000000; stroke-width: 0.8"/>
      </g>
     </g>
     <g id="text_7">
      <!-- 300 -->
      <g transform="translate(1013.402344 213.875625) scale(0.2 -0.2)">
       <defs>
        <path id="TimesNewRomanPSMT-33" d="M 325 3431 
Q 506 3859 782 4092 
Q 1059 4325 1472 4325 
Q 1981 4325 2253 3994 
Q 2459 3747 2459 3466 
Q 2459 3003 1878 2509 
Q 2269 2356 2469 2072 
Q 2669 1788 2669 1403 
Q 2669 853 2319 450 
Q 1863 -75 997 -75 
Q 569 -75 414 31 
Q 259 138 259 259 
Q 259 350 332 419 
Q 406 488 509 488 
Q 588 488 669 463 
Q 722 447 909 348 
Q 1097 250 1169 231 
Q 1284 197 1416 197 
Q 1734 197 1970 444 
Q 2206 691 2206 1028 
Q 2206 1275 2097 1509 
Q 2016 1684 1919 1775 
Q 1784 1900 1550 2001 
Q 1316 2103 1072 2103 
L 972 2103 
L 972 2197 
Q 1219 2228 1467 2375 
Q 1716 2522 1828 2728 
Q 1941 2934 1941 3181 
Q 1941 3503 1739 3701 
Q 1538 3900 1238 3900 
Q 753 3900 428 3381 
L 325 3431 
z
" transform="scale(0.015625)"/>
       </defs>
       <use xlink:href="#TimesNewRomanPSMT-33"/>
       <use xlink:href="#TimesNewRomanPSMT-30" x="50"/>
       <use xlink:href="#TimesNewRomanPSMT-30" x="100"/>
      </g>
     </g>
    </g>
   </g>
   <g id="matplotlib.axis_2">
    <g id="ytick_1">
     <g id="line2d_8">
      <defs>
       <path id="m403b38e1f8" d="M 0 0 
L -3.5 0 
" style="stroke: #000000; stroke-width: 0.8"/>
      </defs>
      <g>
       <use xlink:href="#m403b38e1f8" x="61.6375" y="187.536324" style="stroke: #000000; stroke-width: 0.8"/>
      </g>
     </g>
     <g id="text_8">
      <!-- 0.0 -->
      <g transform="translate(29.6375 194.480074) scale(0.2 -0.2)">
       <defs>
        <path id="TimesNewRomanPSMT-2e" d="M 800 606 
Q 947 606 1047 504 
Q 1147 403 1147 259 
Q 1147 116 1045 14 
Q 944 -88 800 -88 
Q 656 -88 554 14 
Q 453 116 453 259 
Q 453 406 554 506 
Q 656 606 800 606 
z
" transform="scale(0.015625)"/>
       </defs>
       <use xlink:href="#TimesNewRomanPSMT-30"/>
       <use xlink:href="#TimesNewRomanPSMT-2e" x="50"/>
       <use xlink:href="#TimesNewRomanPSMT-30" x="75"/>
      </g>
     </g>
    </g>
    <g id="ytick_2">
     <g id="line2d_9">
      <g>
       <use xlink:href="#m403b38e1f8" x="61.6375" y="140.676153" style="stroke: #000000; stroke-width: 0.8"/>
      </g>
     </g>
     <g id="text_9">
      <!-- 1.0 -->
      <g transform="translate(29.6375 147.619903) scale(0.2 -0.2)">
       <use xlink:href="#TimesNewRomanPSMT-31"/>
       <use xlink:href="#TimesNewRomanPSMT-2e" x="50"/>
       <use xlink:href="#TimesNewRomanPSMT-30" x="75"/>
      </g>
     </g>
    </g>
    <g id="ytick_3">
     <g id="line2d_10">
      <g>
       <use xlink:href="#m403b38e1f8" x="61.6375" y="93.815981" style="stroke: #000000; stroke-width: 0.8"/>
      </g>
     </g>
     <g id="text_10">
      <!-- 2.0 -->
      <g transform="translate(29.6375 100.759731) scale(0.2 -0.2)">
       <use xlink:href="#TimesNewRomanPSMT-32"/>
       <use xlink:href="#TimesNewRomanPSMT-2e" x="50"/>
       <use xlink:href="#TimesNewRomanPSMT-30" x="75"/>
      </g>
     </g>
    </g>
    <g id="ytick_4">
     <g id="line2d_11">
      <g>
       <use xlink:href="#m403b38e1f8" x="61.6375" y="46.95581" style="stroke: #000000; stroke-width: 0.8"/>
      </g>
     </g>
     <g id="text_11">
      <!-- 3.0 -->
      <g transform="translate(29.6375 53.89956) scale(0.2 -0.2)">
       <use xlink:href="#TimesNewRomanPSMT-33"/>
       <use xlink:href="#TimesNewRomanPSMT-2e" x="50"/>
       <use xlink:href="#TimesNewRomanPSMT-30" x="75"/>
      </g>
     </g>
    </g>
    <g id="text_12">
     <!-- CPU使用率 -->
     <g transform="translate(23.059375 156.02375) rotate(-90) scale(0.2 -0.2)">
      <defs>
       <path id="SimSun-43" d="M 1725 50 
Q 1025 50 612 575 
Q 200 1100 200 2225 
Q 200 3175 637 3800 
Q 1075 4425 1825 4425 
Q 2000 4425 2175 4375 
Q 2350 4300 2475 4300 
Q 2575 4300 2637 4325 
Q 2700 4350 2750 4425 
L 2975 3325 
L 2825 3275 
Q 2675 3750 2425 4000 
Q 2175 4250 1775 4250 
Q 1250 4250 962 3675 
Q 675 3100 675 2250 
Q 675 1325 925 800 
Q 1175 275 1750 275 
Q 2150 275 2437 562 
Q 2725 850 2825 1325 
L 2975 1250 
Q 2850 725 2512 387 
Q 2175 50 1725 50 
z
" transform="scale(0.015625)"/>
       <path id="SimSun-50" d="M 950 2100 
L 950 450 
Q 950 350 1012 300 
Q 1075 250 1175 250 
L 1350 250 
L 1350 100 
L 150 100 
L 150 250 
L 325 250 
Q 450 250 500 300 
Q 550 350 550 450 
L 550 4025 
Q 550 4125 500 4175 
Q 450 4225 325 4225 
L 175 4225 
L 175 4375 
L 1650 4375 
Q 2275 4375 2612 4062 
Q 2950 3750 2950 3275 
Q 2950 2700 2587 2400 
Q 2225 2100 1725 2100 
L 950 2100 
z
M 1575 2250 
Q 1950 2250 2237 2475 
Q 2525 2700 2525 3250 
Q 2525 3750 2287 3987 
Q 2050 4225 1525 4225 
L 1175 4225 
Q 1075 4225 1012 4175 
Q 950 4125 950 4025 
L 950 2250 
L 1575 2250 
z
" transform="scale(0.015625)"/>
       <path id="SimSun-55" d="M 1625 250 
Q 2000 250 2262 500 
Q 2525 750 2525 1125 
L 2525 4025 
Q 2525 4125 2475 4175 
Q 2425 4225 2300 4225 
L 2150 4225 
L 2150 4375 
L 3050 4375 
L 3050 4225 
L 2900 4225 
Q 2800 4225 2737 4175 
Q 2675 4125 2675 4025 
L 2675 1125 
Q 2675 625 2337 337 
Q 2000 50 1575 50 
Q 1125 50 787 300 
Q 450 550 450 1100 
L 450 4025 
Q 450 4125 400 4175 
Q 350 4225 225 4225 
L 100 4225 
L 100 4375 
L 1200 4375 
L 1200 4225 
L 1075 4225 
Q 975 4225 912 4175 
Q 850 4125 850 4025 
L 850 1100 
Q 850 600 1062 425 
Q 1275 250 1625 250 
z
" transform="scale(0.015625)"/>
       <path id="SimSun-4f7f" d="M 2875 3150 
L 2875 2100 
L 3825 2100 
Q 3850 2825 3850 3150 
L 2875 3150 
z
M 4175 3150 
Q 4175 2800 4150 2100 
L 5150 2100 
L 5150 3150 
L 4175 3150 
z
M 5475 3100 
L 5475 2425 
Q 5475 2100 5500 1800 
L 5150 1675 
L 5150 1950 
L 4150 1950 
Q 4125 1175 3875 600 
Q 4275 275 4875 75 
Q 5475 -125 6075 -150 
L 6075 -250 
Q 5700 -300 5600 -575 
Q 4525 -325 3725 350 
Q 3425 25 2925 -225 
Q 2425 -475 1875 -650 
L 1825 -550 
Q 2400 -325 2850 -25 
Q 3300 275 3500 575 
Q 3200 925 2825 1650 
L 2900 1700 
Q 3325 1100 3625 825 
Q 3800 1300 3825 1950 
L 2875 1950 
L 2875 1825 
L 2525 1675 
Q 2550 2075 2550 2562 
Q 2550 3050 2525 3500 
L 2875 3300 
L 3850 3300 
L 3850 4025 
L 2975 4025 
Q 2650 4025 2375 3950 
L 2150 4175 
L 3850 4175 
L 3850 4525 
Q 3850 4775 3825 5225 
L 4350 5000 
L 4175 4825 
L 4175 4175 
L 5300 4175 
L 5600 4475 
L 6050 4025 
L 4175 4025 
L 4175 3300 
L 5100 3300 
L 5275 3525 
L 5650 3225 
L 5475 3100 
z
M 1675 3175 
L 1675 -450 
L 1325 -625 
Q 1350 -75 1350 350 
L 1350 3200 
Q 900 2475 350 1900 
L 275 1950 
Q 700 2525 1112 3400 
Q 1525 4275 1800 5250 
L 2325 4925 
L 2125 4800 
Q 1725 3925 1500 3525 
L 1875 3325 
L 1675 3175 
z
" transform="scale(0.015625)"/>
       <path id="SimSun-7528" d="M 3400 3150 
L 3400 1825 
L 5075 1825 
L 5075 3150 
L 3400 3150 
z
M 4075 100 
Q 4725 50 4900 62 
Q 5075 75 5075 400 
L 5075 1675 
L 3400 1675 
Q 3400 75 3425 -225 
L 3050 -400 
Q 3075 1025 3075 1675 
L 1425 1675 
Q 1250 350 375 -600 
L 300 -550 
Q 775 225 950 1025 
Q 1125 1825 1125 3225 
Q 1125 4625 1100 5075 
L 1475 4825 
L 5050 4825 
L 5225 5100 
L 5625 4800 
L 5425 4600 
L 5425 225 
Q 5450 -400 4875 -575 
Q 4825 -150 4075 -25 
L 4075 100 
z
M 1475 4675 
L 1475 3300 
L 3075 3300 
L 3075 4675 
L 1475 4675 
z
M 3400 4675 
L 3400 3300 
L 5075 3300 
L 5075 4675 
L 3400 4675 
z
M 1475 3150 
Q 1450 2100 1425 1825 
L 3075 1825 
L 3075 3150 
L 1475 3150 
z
" transform="scale(0.015625)"/>
       <path id="SimSun-7387" d="M 875 3725 
L 925 3800 
Q 1375 3650 1550 3525 
Q 1725 3400 1725 3250 
Q 1725 3175 1662 3025 
Q 1600 2875 1550 2875 
Q 1500 2875 1425 3050 
Q 1275 3325 875 3725 
z
M 550 1850 
Q 875 1925 2000 2575 
L 2050 2500 
Q 1675 2225 1337 1937 
Q 1000 1650 875 1425 
L 550 1850 
z
M 5200 3450 
Q 4800 3150 4275 2800 
L 4225 2875 
Q 4775 3400 5050 3925 
L 5450 3525 
L 5200 3450 
z
M 4325 2500 
L 4350 2575 
Q 5225 2350 5375 2212 
Q 5525 2075 5525 1900 
Q 5525 1775 5487 1662 
Q 5450 1550 5400 1550 
Q 5325 1550 5200 1800 
Q 4975 2150 4325 2500 
z
M 3150 3900 
Q 2500 3300 2300 3150 
Q 2800 3150 3400 3175 
Q 3700 3500 3850 3825 
L 4250 3450 
Q 4050 3400 3450 2825 
Q 2850 2250 2475 1950 
Q 3150 1975 3850 2000 
Q 3750 2175 3550 2450 
L 3600 2500 
Q 4050 2250 4200 2100 
Q 4350 1950 4350 1850 
Q 4350 1775 4250 1625 
Q 4150 1475 4100 1475 
Q 4075 1475 4050 1550 
Q 4000 1700 3900 1900 
Q 3650 1875 3075 1800 
L 3500 1550 
L 3325 1425 
L 3325 975 
L 5325 975 
L 5650 1300 
L 6100 825 
L 3325 825 
Q 3325 -275 3350 -525 
L 2975 -650 
Q 3000 0 3000 825 
L 1125 825 
Q 800 825 525 750 
L 300 975 
L 3000 975 
L 3000 1775 
Q 2450 1700 2200 1525 
L 1950 1950 
Q 2275 1950 2675 2350 
Q 3075 2750 3325 3050 
Q 2400 2950 2150 2775 
L 1950 3175 
Q 2150 3150 2475 3575 
Q 2800 4000 2900 4225 
L 1450 4225 
Q 1125 4225 850 4150 
L 625 4375 
L 3100 4375 
Q 3050 4800 2675 5200 
L 2725 5250 
Q 3225 5050 3337 4912 
Q 3450 4775 3450 4700 
Q 3450 4550 3250 4375 
L 5025 4375 
L 5350 4675 
L 5775 4225 
L 3050 4225 
L 3375 3950 
L 3150 3900 
z
" transform="scale(0.015625)"/>
      </defs>
      <use xlink:href="#SimSun-43"/>
      <use xlink:href="#SimSun-50" x="50"/>
      <use xlink:href="#SimSun-55" x="100"/>
      <use xlink:href="#SimSun-4f7f" x="150"/>
      <use xlink:href="#SimSun-7528" x="250"/>
      <use xlink:href="#SimSun-7387" x="350"/>
     </g>
    </g>
   </g>
   <g id="line2d_12">
    <path d="M 105.770077 113.947111 
L 108.845518 120.263866 
L 111.920959 127.227286 
L 114.996399 132.063254 
L 118.07184 134.181333 
L 121.147281 139.120394 
L 124.222722 154.668601 
L 127.298163 140.97606 
L 130.373604 147.920739 
L 133.449045 146.229085 
L 136.524486 155.483969 
L 139.599927 155.924455 
L 142.675367 155.071598 
L 145.750808 158.904759 
L 148.826249 158.886018 
L 151.90169 158.679832 
L 154.977131 162.578597 
L 158.052572 163.215895 
L 161.128013 163.30962 
L 164.203454 163.731359 
L 167.278895 165.109046 
L 170.354335 164.115613 
L 173.429776 162.156853 
L 176.505217 170.394874 
L 179.580658 173.932811 
L 182.656099 167.555145 
L 185.73154 169.841927 
L 188.806981 180.066809 
L 191.882422 181.018078 
L 194.957863 180.910292 
L 198.033303 171.828793 
L 201.108744 173.281459 
L 204.184185 179.049948 
L 207.259626 174.81847 
L 210.335067 178.047141 
L 213.410508 179.120239 
L 216.485949 176.439833 
L 219.56139 178.300189 
L 222.636831 180.624448 
L 225.712272 181.378899 
L 228.787712 179.720048 
L 231.863153 174.513885 
L 234.938594 175.765047 
L 238.014035 174.959057 
L 241.089476 175.746305 
L 244.164917 173.459523 
L 247.240358 172.606672 
L 250.315799 171.463284 
L 253.39124 172.494206 
L 256.46668 171.84754 
L 259.542121 163.262752 
L 262.617562 168.914092 
L 265.693003 155.188751 
L 268.768444 146.810153 
L 271.843885 137.630244 
L 274.919326 122.025804 
L 277.994767 122.79431 
L 281.070208 129.167295 
L 284.145648 126.224474 
L 287.221089 123.843979 
L 290.29653 102.77096 
L 293.371971 92.260222 
L 296.447412 107.967755 
L 299.522853 90.085907 
L 302.598294 99.753167 
L 305.673735 104.406378 
L 308.749176 84.073749 
L 311.824616 82.29775 
L 314.900057 88.567643 
L 317.975498 88.876915 
L 321.050939 92.756944 
L 324.12638 84.237759 
L 327.201821 73.136592 
L 330.277262 54.406573 
L 333.352703 79.42522 
L 336.428144 75.21249 
L 339.503584 64.640835 
L 342.579025 58.839555 
L 345.654466 77.995988 
L 348.729907 39.983021 
L 351.805348 65.924804 
L 354.880789 64.29876 
L 361.031671 83.647324 
L 364.107112 72.264993 
L 367.182552 49.809593 
L 370.257993 68.905114 
L 373.333434 65.58273 
L 376.408875 70.268743 
L 379.484316 66.627712 
L 382.559757 56.145089 
L 385.635198 58.886412 
L 388.710639 59.148828 
L 391.78608 57.04949 
L 394.86152 63.741127 
L 397.936961 66.365296 
L 401.012402 50.259447 
L 404.087843 56.838623 
L 407.163284 69.650186 
L 410.238725 78.614544 
L 413.314166 52.236951 
L 416.389607 36.510682 
L 419.465048 70.512422 
L 422.540488 74.678285 
L 425.615929 77.377431 
L 428.69137 72.007258 
L 431.766811 74.650175 
L 434.842252 73.862916 
L 437.917693 70.704542 
L 440.993134 72.466486 
L 444.068575 72.288421 
L 447.144016 51.749602 
L 450.219457 70.423379 
L 453.294897 83.506742 
L 456.370338 91.491722 
L 459.445779 78.291206 
L 462.52122 90.235862 
L 465.596661 81.257461 
L 468.672102 47.546246 
L 471.747543 51.669943 
L 474.822984 55.310974 
L 477.898425 44.092653 
L 480.973865 49.701814 
L 484.049306 50.751488 
L 487.124747 53.375657 
L 490.200188 71.922907 
L 493.275629 71.332472 
L 496.35107 70.12348 
L 499.426511 70.826376 
L 502.501952 75.071908 
L 505.577393 77.883527 
L 508.652833 81.22934 
L 511.728274 82.269641 
L 514.803715 79.401792 
L 517.879156 86.17778 
L 520.954597 89.903161 
L 524.030038 91.05123 
L 527.105479 96.088697 
L 530.18092 99.46263 
L 533.256361 104.97339 
L 536.331801 115.634078 
L 539.407242 118.483174 
L 542.482683 123.712771 
L 545.558124 129.612463 
L 548.633565 132.470938 
L 551.709006 136.561828 
L 554.784447 137.981693 
L 557.859888 138.783 
L 560.935329 142.831721 
L 564.010769 142.747375 
L 567.08621 152.13815 
L 570.161651 138.023868 
L 573.237092 139.78112 
L 576.312533 149.757655 
L 579.387974 161.51956 
L 582.463415 167.723842 
L 585.538856 166.674179 
L 588.614297 169.335831 
L 591.689737 170.657289 
L 594.765178 173.675082 
L 597.840619 178.628203 
L 603.991501 177.213031 
L 607.066942 175.497944 
L 610.142383 170.947826 
L 619.368705 173.534507 
L 622.444146 173.956245 
L 625.519587 172.676963 
L 631.670469 174.659147 
L 634.74591 176.416405 
L 637.821351 180.104298 
L 640.896792 175.427653 
L 643.972233 171.753821 
L 647.047673 177.850324 
L 650.123114 178.30487 
L 653.198555 177.555112 
L 656.273996 175.26833 
L 659.349437 178.670379 
L 662.424878 180.254247 
L 665.500319 182.29736 
L 668.57576 182.170834 
L 674.726642 174.452967 
L 680.877523 175.221468 
L 683.952964 171.875655 
L 687.028405 172.184933 
L 690.103846 171.819419 
L 693.179287 170.010618 
L 696.254728 168.595446 
L 699.330169 161.636708 
L 702.40561 162.438016 
L 705.48105 167.630128 
L 708.556491 155.451167 
L 711.631932 153.881353 
L 714.707373 140.512143 
L 717.782814 138.239422 
L 720.858255 141.313453 
L 723.933696 146.355607 
L 727.009137 145.980724 
L 730.084578 144.9498 
L 733.160018 132.550602 
L 739.3109 89.284605 
L 742.386341 114.434459 
L 745.461782 104.008067 
L 748.537223 100.938725 
L 751.612664 85.235885 
L 754.688105 72.963208 
L 757.763546 83.956608 
L 760.838986 89.59857 
L 763.914427 78.417732 
L 766.989868 81.510503 
L 770.065309 81.679194 
L 773.14075 84.415835 
L 776.216191 95.151494 
L 779.291632 78.675456 
L 782.367073 74.846987 
L 785.442514 78.980047 
L 788.517954 112.100821 
L 791.593395 79.20498 
L 794.668836 89.129969 
L 797.744277 100.427954 
L 800.819718 106.444798 
L 803.895159 107.053981 
L 806.9706 103.656619 
L 810.046041 83.984717 
L 813.121482 102.77096 
L 816.196922 105.460733 
L 819.272363 107.592873 
L 822.347804 116.332293 
L 825.423245 96.215224 
L 828.498686 103.047436 
L 831.574127 106.233926 
L 834.649568 113.169231 
L 837.725009 112.677202 
L 840.80045 115.3248 
L 843.87589 98.024025 
L 846.951331 93.881585 
L 850.026772 93.937816 
L 853.102213 86.627634 
L 856.177654 82.325871 
L 859.253095 76.758875 
L 862.328536 77.883527 
L 865.403977 89.776635 
L 868.479418 108.33795 
L 871.554858 102.222694 
L 874.630299 110.891829 
L 877.70574 112.30232 
L 880.781181 107.686592 
L 883.856622 94.814101 
L 886.932063 102.297672 
L 890.007504 104.968704 
L 893.082945 105.765325 
L 896.158386 107.124272 
L 899.233827 109.068968 
L 902.309267 108.600366 
L 905.384708 89.828184 
L 908.460149 83.141239 
L 911.53559 70.840442 
L 914.611031 46.979238 
L 917.686472 64.429968 
L 920.761913 73.947267 
L 923.837354 70.235941 
L 926.912795 80.442092 
L 929.988235 85.896617 
L 933.063676 87.049378 
L 936.139117 79.373682 
L 939.214558 75.685783 
L 942.289999 64.593978 
L 945.36544 81.116879 
L 948.440881 86.093428 
L 951.516322 87.386771 
L 954.591763 81.547986 
L 957.667203 88.305227 
L 960.742644 91.519832 
L 963.818085 99.204901 
L 966.893526 95.87783 
L 969.968967 98.220837 
L 973.044408 108.736261 
L 976.119849 113.159858 
L 979.19529 114.640639 
L 982.270731 116.721235 
L 985.346171 125.249783 
L 988.421612 124.20012 
L 988.421612 124.20012 
" clip-path="url(#p40abb3bb2a)" style="fill: none; stroke: #1f77b4; stroke-width: 1.5; stroke-linecap: square"/>
   </g>
   <g id="line2d_13">
    <path d="M 548.633565 95.058105 
L 551.709006 103.176818 
L 554.784447 122.080029 
L 557.859888 116.590178 
L 560.935329 113.727558 
L 564.010769 118.32036 
L 567.08621 123.465438 
L 570.161651 124.971346 
L 573.237092 127.711294 
L 576.312533 128.322968 
L 579.387974 131.78513 
L 582.463415 158.640835 
L 585.538856 168.403332 
L 588.614297 168.874916 
L 591.689737 173.854745 
L 594.765178 174.929903 
L 597.840619 175.421095 
L 600.91606 174.222035 
L 603.991501 177.588321 
L 607.066942 182.007237 
L 610.142383 178.316149 
L 613.217824 177.823192 
L 616.293265 181.512878 
L 619.368705 182.115173 
L 622.444146 184.705971 
L 625.519587 184.164336 
L 628.595028 185.216189 
L 631.670469 185.282782 
L 634.74591 185.536818 
L 637.821351 182.573909 
L 640.896792 182.143322 
L 643.972233 179.398402 
L 647.047673 182.476207 
L 650.123114 179.892431 
L 653.198555 181.502504 
L 656.273996 179.169419 
L 659.349437 179.675509 
L 662.424878 178.486907 
L 668.57576 174.350428 
L 671.651201 175.335945 
L 674.726642 171.027172 
L 677.802082 170.34805 
L 680.877523 166.068403 
L 683.952964 163.499533 
L 687.028405 157.629878 
L 690.103846 156.089733 
L 693.179287 147.338057 
L 696.254728 134.280979 
L 699.330169 129.560472 
L 702.40561 131.497062 
L 705.48105 119.104473 
L 708.556491 120.034358 
L 711.631932 110.589986 
L 714.707373 105.495803 
L 717.782814 98.76746 
L 720.858255 93.712414 
L 723.933696 94.681653 
L 727.009137 86.336818 
L 730.084578 80.571334 
L 733.160018 80.844252 
L 736.235459 77.984849 
L 739.3109 77.902866 
L 742.386341 73.528718 
L 745.461782 69.851556 
L 748.537223 70.596796 
L 751.612664 68.564671 
L 754.688105 71.234714 
L 757.763546 67.330854 
L 760.838986 67.920519 
L 763.914427 68.791894 
L 766.989868 67.821778 
L 770.065309 67.586187 
L 773.14075 65.578965 
L 776.216191 66.040829 
L 779.291632 66.668402 
L 782.367073 65.563011 
L 785.442514 64.596771 
L 788.517954 63.836058 
L 791.593395 63.720558 
L 794.668836 65.049731 
L 797.744277 63.400929 
L 800.819718 63.388651 
L 803.895159 63.898757 
L 806.9706 61.168786 
L 810.046041 62.484909 
L 813.121482 64.482311 
L 816.196922 62.772664 
L 819.272363 62.699765 
L 822.347804 62.906721 
L 825.423245 63.265621 
L 828.498686 57.993239 
L 834.649568 65.036961 
L 837.725009 63.804977 
L 840.80045 61.580945 
L 843.87589 64.256104 
L 846.951331 68.24922 
L 850.026772 63.55361 
L 853.102213 62.424009 
L 856.177654 66.688422 
L 859.253095 68.388829 
L 862.328536 71.63932 
L 865.403977 66.412153 
L 868.479418 69.286929 
L 871.554858 66.813184 
L 874.630299 63.347157 
L 877.70574 58.579228 
L 880.781181 65.268419 
L 883.856622 63.389869 
L 886.932063 62.65217 
L 890.007504 62.857797 
L 893.082945 61.097294 
L 896.158386 59.798968 
L 899.233827 61.585548 
L 902.309267 58.971713 
L 905.384708 56.676099 
L 908.460149 57.537386 
L 911.53559 54.545055 
L 914.611031 53.099857 
L 917.686472 53.502408 
L 920.761913 51.979685 
L 923.837354 51.400612 
L 926.912795 51.268298 
L 929.988235 51.441592 
L 933.063676 51.831965 
L 936.139117 53.0752 
L 939.214558 52.545765 
L 942.289999 51.704902 
L 945.36544 53.713576 
L 948.440881 53.720067 
L 951.516322 56.127828 
L 954.591763 51.803754 
L 957.667203 57.714579 
L 960.742644 56.995997 
L 963.818085 59.410752 
L 966.893526 63.915214 
L 969.968967 60.361741 
L 973.044408 65.588741 
L 976.119849 69.568583 
L 979.19529 74.662889 
L 982.270731 78.412559 
L 985.346171 80.462303 
L 988.421612 94.196433 
L 988.421612 94.196433 
" clip-path="url(#p40abb3bb2a)" style="fill: none; stroke: #ff7f0e; stroke-width: 1.5; stroke-linecap: square"/>
   </g>
   <g id="line2d_14">
    <path d="M 548.633565 192.988125 
L 548.633565 29.059375 
" clip-path="url(#p40abb3bb2a)" style="fill: none; stroke-dasharray: 7.4,3.2; stroke-dashoffset: 0; stroke: #0000ff; stroke-width: 2"/>
   </g>
   <g id="patch_3">
    <path d="M 61.6375 192.988125 
L 61.6375 29.059375 
" style="fill: none; stroke: #000000; stroke-width: 0.8; stroke-linejoin: miter; stroke-linecap: square"/>
   </g>
   <g id="patch_4">
    <path d="M 1032.554189 192.988125 
L 1032.554189 29.059375 
" style="fill: none; stroke: #000000; stroke-width: 0.8; stroke-linejoin: miter; stroke-linecap: square"/>
   </g>
   <g id="patch_5">
    <path d="M 61.6375 192.988125 
L 1032.554189 192.988125 
" style="fill: none; stroke: #000000; stroke-width: 0.8; stroke-linejoin: miter; stroke-linecap: square"/>
   </g>
   <g id="patch_6">
    <path d="M 61.6375 29.059375 
L 1032.554189 29.059375 
" style="fill: none; stroke: #000000; stroke-width: 0.8; stroke-linejoin: miter; stroke-linecap: square"/>
   </g>
   <g id="text_13">
    <!-- 云函数ID: 28 -->
    <g transform="translate(487.095845 23.059375) scale(0.2 -0.2)">
     <defs>
      <path id="SimSun-4e91" d="M 1200 4450 
L 4500 4450 
L 4850 4800 
L 5350 4300 
L 1975 4300 
Q 1700 4300 1425 4225 
L 1200 4450 
z
M 1600 275 
Q 2300 300 4725 450 
Q 4425 975 3850 1700 
L 3925 1775 
Q 5200 725 5287 500 
Q 5375 275 5375 175 
Q 5375 0 5250 -162 
Q 5125 -325 5075 -325 
Q 5025 -325 4975 -200 
Q 4875 50 4775 300 
Q 1650 -25 1300 -300 
L 975 300 
Q 1225 350 1462 550 
Q 1700 750 2150 1462 
Q 2600 2175 2725 2600 
L 1250 2600 
Q 925 2600 650 2525 
L 425 2750 
L 5025 2750 
L 5450 3175 
L 6025 2600 
L 3250 2600 
Q 3000 2025 2500 1375 
Q 2000 725 1600 275 
z
" transform="scale(0.015625)"/>
      <path id="SimSun-51fd" d="M 3050 2275 
L 3050 3000 
Q 3050 3450 3025 3800 
L 3275 3625 
L 4450 4475 
L 1650 4475 
Q 1325 4475 1050 4400 
L 825 4625 
L 4450 4625 
L 4775 4875 
L 5150 4375 
Q 4875 4325 4550 4175 
Q 4225 4025 3400 3550 
L 3550 3450 
L 3375 3325 
L 3375 2400 
Q 4250 3225 4475 3600 
L 4875 3150 
L 4625 3125 
Q 3625 2425 3400 2275 
Q 4575 1675 4687 1487 
Q 4800 1300 4800 1150 
Q 4800 1025 4750 925 
Q 4700 825 4675 825 
Q 4575 825 4375 1150 
Q 4075 1600 3375 2150 
L 3375 725 
Q 3375 350 2875 150 
Q 2850 450 2200 650 
L 2200 750 
Q 2800 675 2925 700 
Q 3050 725 3050 850 
L 3050 2100 
Q 1850 1300 1625 1025 
L 1275 1400 
Q 1575 1475 2087 1725 
Q 2600 1975 3050 2275 
z
M 1700 3475 
L 1775 3550 
Q 2350 3200 2475 3025 
Q 2600 2850 2600 2775 
Q 2600 2650 2500 2525 
Q 2400 2400 2350 2400 
Q 2275 2400 2225 2575 
Q 2150 2875 1700 3475 
z
M 5150 0 
L 5150 2175 
Q 5150 2725 5125 3325 
L 5725 3050 
L 5500 2850 
L 5500 525 
Q 5500 100 5525 -400 
L 5150 -600 
L 5150 -150 
L 1250 -150 
L 1000 -375 
L 675 -50 
L 875 125 
L 875 2375 
Q 875 2800 850 3425 
L 1450 3150 
L 1225 2975 
L 1225 0 
L 5150 0 
z
" transform="scale(0.015625)"/>
      <path id="SimSun-6570" d="M 1875 1525 
Q 1675 1200 1500 900 
Q 1825 825 2275 725 
Q 2500 975 2725 1525 
L 1875 1525 
z
M 850 4900 
Q 1325 4600 1425 4450 
Q 1525 4300 1525 4225 
Q 1525 4100 1437 3975 
Q 1350 3850 1300 3850 
Q 1225 3850 1150 4100 
Q 1050 4450 775 4850 
L 850 4900 
z
M 3000 4975 
L 3450 4675 
Q 3250 4625 3100 4425 
Q 2925 4225 2525 3825 
L 2450 3875 
Q 2925 4625 3000 4975 
z
M 1875 5250 
L 2425 5000 
L 2225 4825 
L 2225 3675 
L 2850 3675 
L 3125 3950 
L 3550 3525 
L 2225 3525 
L 2225 3300 
Q 2800 3175 2937 3062 
Q 3075 2950 3075 2775 
Q 3075 2700 3050 2587 
Q 3025 2475 2975 2475 
Q 2925 2475 2800 2650 
Q 2600 2925 2225 3175 
L 2225 2400 
L 1925 2200 
L 2275 2050 
Q 2150 2000 1950 1675 
L 2725 1675 
L 2900 1900 
L 3275 1575 
L 3050 1450 
Q 2800 875 2600 650 
Q 3000 550 3137 437 
Q 3275 325 3275 150 
Q 3275 -25 3200 -25 
Q 3125 -25 3025 75 
Q 2750 275 2400 425 
Q 1525 -275 325 -500 
L 300 -425 
Q 1450 -50 2100 550 
Q 1600 725 1125 800 
Q 1225 950 1525 1525 
L 1200 1525 
Q 875 1525 600 1450 
L 375 1675 
L 1575 1675 
Q 1675 1925 1775 2275 
L 1900 2225 
L 1900 3250 
Q 1225 2475 350 2050 
L 300 2125 
Q 1225 2775 1700 3525 
L 1250 3525 
Q 925 3525 650 3450 
L 425 3675 
L 1900 3675 
Q 1900 4575 1875 5250 
z
M 3925 3525 
Q 4050 2075 4525 1100 
Q 4925 1950 5025 3525 
L 3925 3525 
z
M 4050 5250 
L 4625 4925 
Q 4425 4850 4325 4625 
Q 4225 4400 3950 3675 
L 5375 3675 
L 5675 3975 
L 6125 3525 
L 5400 3525 
Q 5250 1675 4750 775 
Q 5325 75 6100 -100 
L 6100 -200 
Q 5625 -275 5600 -500 
Q 4950 -50 4525 525 
Q 3700 -275 2550 -650 
L 2500 -575 
Q 3650 -50 4325 800 
Q 3850 1975 3825 3375 
Q 3575 2725 3100 2150 
L 3025 2200 
Q 3625 3200 4050 5250 
z
" transform="scale(0.015625)"/>
      <path id="SimSun-49" d="M 600 4225 
L 600 4375 
L 2600 4375 
L 2600 4225 
L 2025 4225 
Q 1925 4225 1862 4175 
Q 1800 4125 1800 4025 
L 1800 450 
Q 1800 350 1862 300 
Q 1925 250 2025 250 
L 2600 250 
L 2600 100 
L 600 100 
L 600 250 
L 1175 250 
Q 1300 250 1350 300 
Q 1400 350 1400 450 
L 1400 4025 
Q 1400 4125 1350 4175 
Q 1300 4225 1175 4225 
L 600 4225 
z
" transform="scale(0.015625)"/>
      <path id="SimSun-44" d="M 2500 2275 
Q 2500 3350 2175 3787 
Q 1850 4225 1275 4225 
Q 1100 4225 1012 4175 
Q 925 4125 925 4025 
L 925 450 
Q 925 350 1000 300 
Q 1075 250 1200 250 
Q 1750 250 2125 662 
Q 2500 1075 2500 2275 
z
M 525 4025 
Q 525 4125 475 4175 
Q 425 4225 300 4225 
L 150 4225 
L 150 4375 
L 1275 4375 
Q 2050 4375 2512 3875 
Q 2975 3375 2975 2325 
Q 2975 1175 2525 637 
Q 2075 100 1200 100 
L 125 100 
L 125 250 
L 300 250 
Q 425 250 475 300 
Q 525 350 525 450 
L 525 4025 
z
" transform="scale(0.015625)"/>
      <path id="SimSun-3a" d="M 1900 2725 
Q 1900 2575 1800 2475 
Q 1700 2375 1550 2375 
Q 1400 2375 1300 2475 
Q 1200 2575 1200 2725 
Q 1200 2875 1300 2975 
Q 1400 3075 1550 3075 
Q 1700 3075 1800 2975 
Q 1900 2875 1900 2725 
z
M 1900 375 
Q 1900 225 1800 125 
Q 1700 25 1550 25 
Q 1400 25 1300 125 
Q 1200 225 1200 375 
Q 1200 525 1300 625 
Q 1400 725 1550 725 
Q 1700 725 1800 625 
Q 1900 525 1900 375 
z
" transform="scale(0.015625)"/>
      <path id="SimSun-20" d="M 0 0 
Q 0 0 0 0 
z
" transform="scale(0.015625)"/>
      <path id="SimSun-32" d="M 2325 3325 
Q 2325 3775 2125 4012 
Q 1925 4250 1525 4250 
Q 1225 4250 1012 4087 
Q 800 3925 800 3675 
Q 800 3525 900 3425 
Q 975 3325 975 3225 
Q 975 3100 912 3037 
Q 850 2975 725 2975 
Q 575 2975 487 3062 
Q 400 3150 400 3350 
Q 400 3875 775 4150 
Q 1150 4425 1575 4425 
Q 2175 4425 2462 4125 
Q 2750 3825 2750 3375 
Q 2750 3075 2612 2775 
Q 2475 2475 2175 2200 
Q 1450 1500 1062 1062 
Q 675 625 600 475 
L 2075 475 
Q 2300 475 2450 650 
Q 2600 825 2650 1175 
L 2800 1175 
L 2650 100 
L 325 100 
L 325 425 
Q 450 650 737 1000 
Q 1025 1350 1500 1825 
Q 1925 2250 2125 2625 
Q 2325 3000 2325 3325 
z
" transform="scale(0.015625)"/>
      <path id="SimSun-38" d="M 625 1125 
Q 625 725 887 475 
Q 1150 225 1550 225 
Q 2025 225 2237 475 
Q 2450 725 2450 1100 
Q 2450 1425 2150 1725 
Q 1850 2025 1250 2275 
Q 950 2075 787 1775 
Q 625 1475 625 1125 
z
M 2825 1175 
Q 2825 700 2475 375 
Q 2125 50 1550 50 
Q 1025 50 650 375 
Q 275 700 275 1125 
Q 275 1550 487 1850 
Q 700 2150 1100 2375 
Q 750 2550 562 2812 
Q 375 3075 375 3400 
Q 375 3825 700 4125 
Q 1025 4425 1600 4425 
Q 2125 4425 2450 4125 
Q 2775 3825 2775 3400 
Q 2775 3100 2587 2837 
Q 2400 2575 2000 2375 
Q 2425 2125 2625 1825 
Q 2825 1525 2825 1175 
z
M 2425 3375 
Q 2425 3725 2225 3987 
Q 2025 4250 1600 4250 
Q 1125 4250 925 4000 
Q 725 3750 725 3475 
Q 725 3200 1012 2937 
Q 1300 2675 1825 2475 
Q 2125 2625 2275 2850 
Q 2425 3075 2425 3375 
z
" transform="scale(0.015625)"/>
     </defs>
     <use xlink:href="#SimSun-4e91"/>
     <use xlink:href="#SimSun-51fd" x="100"/>
     <use xlink:href="#SimSun-6570" x="200"/>
     <use xlink:href="#SimSun-49" x="300"/>
     <use xlink:href="#SimSun-44" x="350"/>
     <use xlink:href="#SimSun-3a" x="400"/>
     <use xlink:href="#SimSun-20" x="450"/>
     <use xlink:href="#SimSun-32" x="500"/>
     <use xlink:href="#SimSun-38" x="550"/>
    </g>
   </g>
   <g id="legend_1">
    <g id="patch_7">
     <path d="M 75.6375 101.934375 
L 199.6375 101.934375 
Q 203.6375 101.934375 203.6375 97.934375 
L 203.6375 43.059375 
Q 203.6375 39.059375 199.6375 39.059375 
L 75.6375 39.059375 
Q 71.6375 39.059375 71.6375 43.059375 
L 71.6375 97.934375 
Q 71.6375 101.934375 75.6375 101.934375 
z
" style="fill: #ffffff; opacity: 0.8; stroke: #cccccc; stroke-linejoin: miter"/>
    </g>
    <g id="line2d_15">
     <path d="M 79.6375 55.996875 
L 99.6375 55.996875 
L 119.6375 55.996875 
" style="fill: none; stroke: #1f77b4; stroke-width: 1.5; stroke-linecap: square"/>
    </g>
    <g id="text_14">
     <!-- 真实值 -->
     <g transform="translate(135.6375 62.996875) scale(0.2 -0.2)">
      <defs>
       <path id="SimSun-771f" d="M 2050 3450 
L 2050 2900 
L 4300 2900 
L 4300 3450 
L 2050 3450 
z
M 2050 2750 
L 2050 2225 
L 4300 2225 
L 4300 2750 
L 2050 2750 
z
M 2050 2075 
L 2050 1550 
L 4300 1550 
L 4300 2075 
L 2050 2075 
z
M 2050 1400 
L 2050 875 
L 4300 875 
L 4300 1400 
L 2050 1400 
z
M 2875 3600 
L 2925 4325 
L 1525 4325 
Q 1200 4325 925 4250 
L 700 4475 
L 2950 4475 
Q 2975 4825 2975 5275 
L 3550 5025 
L 3375 4925 
L 3300 4475 
L 5000 4475 
L 5325 4825 
L 5775 4325 
L 3275 4325 
L 3200 3600 
L 4275 3600 
L 4450 3875 
L 4850 3575 
L 4650 3375 
L 4650 875 
L 5300 875 
L 5675 1225 
L 6125 725 
L 1150 725 
Q 825 725 550 650 
L 325 875 
L 1700 875 
Q 1700 3200 1675 3775 
L 2050 3600 
L 2875 3600 
z
M 2425 725 
L 2825 350 
L 2575 300 
Q 1500 -425 800 -650 
L 775 -575 
Q 1950 125 2425 725 
z
M 3800 700 
Q 4575 375 4962 200 
Q 5350 25 5400 -112 
Q 5450 -250 5450 -325 
Q 5450 -400 5400 -525 
Q 5350 -650 5325 -650 
Q 5250 -650 5100 -450 
Q 4875 -150 3750 625 
L 3800 700 
z
" transform="scale(0.015625)"/>
       <path id="SimSun-5b9e" d="M 1950 3625 
Q 2575 3400 2700 3250 
Q 2825 3100 2825 2975 
Q 2825 2850 2750 2700 
Q 2675 2550 2625 2550 
Q 2550 2550 2450 2800 
Q 2275 3175 1900 3550 
L 1950 3625 
z
M 3575 1325 
Q 3500 1100 3425 925 
Q 4650 550 5087 325 
Q 5525 100 5512 -225 
Q 5500 -550 5400 -550 
Q 5300 -550 5075 -300 
Q 4625 175 3375 800 
Q 3025 175 2300 -150 
Q 1575 -475 425 -625 
L 425 -525 
Q 1475 -325 2200 100 
Q 2925 525 3200 1325 
L 1225 1325 
Q 900 1325 625 1250 
L 400 1475 
L 3225 1475 
Q 3325 1950 3375 2575 
Q 3425 3200 3425 3700 
L 4050 3400 
L 3850 3225 
Q 3750 2300 3625 1475 
L 5175 1475 
L 5550 1850 
L 6075 1325 
L 3575 1325 
z
M 1275 2700 
Q 1975 2425 2100 2262 
Q 2225 2100 2225 1975 
Q 2225 1850 2150 1700 
Q 2075 1550 2025 1550 
Q 1950 1550 1850 1800 
Q 1675 2175 1225 2625 
L 1275 2700 
z
M 2750 5225 
L 2825 5275 
Q 3225 5100 3425 4925 
Q 3625 4750 3625 4600 
Q 3625 4450 3512 4300 
Q 3400 4150 3325 4150 
Q 3250 4150 3200 4400 
Q 3100 4775 2750 5225 
z
M 4975 3225 
L 5350 3925 
L 1175 3925 
Q 1225 3525 1125 3300 
Q 1025 3075 787 3100 
Q 550 3125 550 3200 
Q 550 3300 700 3475 
Q 975 3825 1050 4375 
L 1150 4375 
L 1175 4075 
L 5300 4075 
L 5575 4350 
L 6050 3800 
Q 5625 3825 5050 3175 
L 4975 3225 
z
" transform="scale(0.015625)"/>
       <path id="SimSun-503c" d="M 1525 650 
Q 1525 -225 1550 -525 
L 1175 -650 
Q 1200 250 1200 550 
L 1200 3025 
Q 750 2300 325 1850 
L 250 1900 
Q 725 2625 1100 3525 
Q 1475 4425 1675 5200 
L 2200 4875 
L 1950 4725 
Q 1550 3800 1425 3475 
L 1725 3300 
L 1525 3150 
L 1525 650 
z
M 2875 3225 
L 2875 2475 
L 4800 2475 
L 4800 3225 
L 2875 3225 
z
M 2875 2325 
L 2875 1575 
L 4800 1575 
L 4800 2325 
L 2875 2325 
z
M 2875 1425 
L 2875 675 
L 4800 675 
L 4800 1425 
L 2875 1425 
z
M 2875 525 
L 2875 -225 
L 4800 -225 
L 4800 525 
L 2875 525 
z
M 3550 4250 
Q 3575 4825 3550 5225 
L 4125 4950 
L 3925 4800 
L 3900 4250 
L 5025 4250 
L 5350 4575 
L 5825 4100 
L 3900 4100 
L 3875 3375 
L 4750 3375 
L 4975 3625 
L 5350 3300 
L 5125 3150 
L 5125 -225 
L 5350 -225 
L 5675 100 
L 6150 -375 
L 2450 -375 
Q 2125 -375 1850 -450 
L 1625 -225 
L 2550 -225 
L 2550 2550 
Q 2550 2850 2525 3575 
L 2875 3375 
L 3525 3375 
L 3550 4100 
L 2800 4100 
Q 2475 4100 2200 4025 
L 1975 4250 
L 3550 4250 
z
" transform="scale(0.015625)"/>
      </defs>
      <use xlink:href="#SimSun-771f"/>
      <use xlink:href="#SimSun-5b9e" x="100"/>
      <use xlink:href="#SimSun-503c" x="200"/>
     </g>
    </g>
    <g id="line2d_16">
     <path d="M 79.6375 84.35625 
L 99.6375 84.35625 
L 119.6375 84.35625 
" style="fill: none; stroke: #ff7f0e; stroke-width: 1.5; stroke-linecap: square"/>
    </g>
    <g id="text_15">
     <!-- 预测值 -->
     <g transform="translate(135.6375 91.35625) scale(0.2 -0.2)">
      <defs>
       <path id="SimSun-9884" d="M 475 4825 
L 2225 4825 
L 2425 5075 
L 2825 4675 
Q 2600 4625 2387 4412 
Q 2175 4200 1800 3750 
Q 2050 3575 2037 3400 
Q 2025 3225 1937 3150 
Q 1850 3075 1825 3075 
Q 1725 3075 1650 3300 
Q 1525 3600 1050 4100 
L 1100 4150 
Q 1475 3975 1700 3825 
L 2225 4675 
L 1300 4675 
Q 975 4675 700 4600 
L 475 4825 
z
M 725 100 
Q 1175 50 1362 37 
Q 1550 25 1550 275 
L 1550 2875 
L 1125 2875 
Q 800 2875 525 2800 
L 300 3025 
L 2525 3025 
L 2725 3275 
L 3150 2875 
Q 2800 2825 2275 2075 
L 2200 2125 
L 2550 2875 
L 1875 2875 
L 1875 150 
Q 1875 -400 1350 -500 
Q 1325 -175 725 0 
L 725 100 
z
M 3250 775 
Q 3275 1425 3275 2287 
Q 3275 3150 3250 3900 
L 3600 3700 
L 4050 3700 
Q 4175 4400 4200 4675 
L 3650 4675 
Q 3325 4675 3050 4600 
L 2825 4825 
L 5325 4825 
L 5675 5150 
L 6125 4675 
L 4675 4675 
Q 4500 4425 4175 3700 
L 5300 3700 
L 5475 3975 
L 5875 3675 
L 5675 3475 
L 5675 1950 
Q 5675 1525 5700 1075 
L 5350 875 
L 5350 3550 
L 3600 3550 
L 3600 1000 
L 3250 775 
z
M 4850 2875 
L 4625 2675 
Q 4625 1475 4475 937 
Q 4325 400 3900 50 
Q 3475 -300 2425 -625 
L 2400 -550 
Q 3500 -50 3837 400 
Q 4175 850 4237 1587 
Q 4300 2325 4275 3175 
L 4850 2875 
z
M 4650 950 
Q 5725 375 5875 212 
Q 6025 50 6025 -125 
Q 6025 -225 5962 -387 
Q 5900 -550 5850 -550 
Q 5800 -550 5750 -450 
Q 5625 -250 5437 0 
Q 5250 250 4600 875 
L 4650 950 
z
" transform="scale(0.015625)"/>
       <path id="SimSun-6d4b" d="M 1975 1000 
Q 2000 1475 2000 2925 
Q 2000 4375 1975 5000 
L 2350 4775 
L 3575 4775 
L 3775 4975 
L 4100 4650 
L 3900 4500 
L 3900 2350 
Q 3900 1850 3925 1350 
L 3600 1200 
L 3600 4625 
L 2325 4625 
L 2325 1150 
L 1975 1000 
z
M 2775 3975 
L 3300 3700 
L 3125 3525 
Q 3150 1825 2875 937 
Q 2600 50 1375 -600 
L 1325 -500 
Q 2200 100 2475 725 
Q 2750 1350 2775 2187 
Q 2800 3025 2775 3975 
z
M 3100 950 
Q 3825 450 3937 262 
Q 4050 75 4050 -25 
Q 4050 -150 3975 -262 
Q 3900 -375 3850 -375 
Q 3750 -375 3650 -75 
Q 3500 375 3050 875 
L 3100 950 
z
M 4475 825 
Q 4500 1200 4500 1700 
L 4500 3400 
Q 4500 3950 4475 4300 
L 5025 4025 
L 4825 3825 
L 4825 1700 
Q 4825 1325 4850 950 
L 4475 825 
z
M 5375 150 
L 5375 4050 
Q 5375 4750 5350 5125 
L 5875 4875 
L 5700 4700 
L 5700 75 
Q 5700 -200 5600 -350 
Q 5500 -500 5200 -600 
Q 5025 -225 4450 -50 
L 4450 50 
Q 5125 -50 5250 -37 
Q 5375 -25 5375 150 
z
M 1850 3500 
Q 1375 1525 1300 1225 
Q 1200 900 1212 450 
Q 1225 0 1250 -175 
Q 1250 -275 1125 -275 
Q 1025 -275 875 -225 
Q 725 -175 725 0 
Q 725 125 800 375 
Q 875 625 875 775 
Q 875 950 762 1050 
Q 650 1150 275 1250 
L 275 1350 
Q 725 1300 837 1312 
Q 950 1325 1087 1537 
Q 1225 1750 1750 3525 
L 1850 3500 
z
M 375 3775 
Q 1075 3350 1112 3100 
Q 1150 2850 1050 2775 
Q 950 2700 900 2700 
Q 800 2700 725 2975 
Q 600 3350 325 3700 
L 375 3775 
z
M 800 5100 
Q 1475 4725 1550 4512 
Q 1625 4300 1525 4187 
Q 1425 4075 1350 4075 
Q 1275 4075 1200 4300 
Q 1075 4650 750 5025 
L 800 5100 
z
" transform="scale(0.015625)"/>
      </defs>
      <use xlink:href="#SimSun-9884"/>
      <use xlink:href="#SimSun-6d4b" x="100"/>
      <use xlink:href="#SimSun-503c" x="200"/>
     </g>
    </g>
   </g>
  </g>
  <g id="axes_2">
   <g id="patch_8">
    <path d="M 61.6375 425.788125 
L 1032.554189 425.788125 
L 1032.554189 261.859375 
L 61.6375 261.859375 
z
" style="fill: #ffffff"/>
   </g>
   <g id="matplotlib.axis_3">
    <g id="xtick_8">
     <g id="line2d_17">
      <g>
       <use xlink:href="#mbb01c109e5" x="105.770077" y="425.788125" style="stroke: #000000; stroke-width: 0.8"/>
      </g>
     </g>
     <g id="text_16">
      <!-- 0 -->
      <g transform="translate(100.770077 446.675625) scale(0.2 -0.2)">
       <use xlink:href="#TimesNewRomanPSMT-30"/>
      </g>
     </g>
    </g>
    <g id="xtick_9">
     <g id="line2d_18">
      <g>
       <use xlink:href="#mbb01c109e5" x="259.542121" y="425.788125" style="stroke: #000000; stroke-width: 0.8"/>
      </g>
     </g>
     <g id="text_17">
      <!-- 50 -->
      <g transform="translate(249.542121 446.675625) scale(0.2 -0.2)">
       <use xlink:href="#TimesNewRomanPSMT-35"/>
       <use xlink:href="#TimesNewRomanPSMT-30" x="50"/>
      </g>
     </g>
    </g>
    <g id="xtick_10">
     <g id="line2d_19">
      <g>
       <use xlink:href="#mbb01c109e5" x="413.314166" y="425.788125" style="stroke: #000000; stroke-width: 0.8"/>
      </g>
     </g>
     <g id="text_18">
      <!-- 100 -->
      <g transform="translate(398.314166 446.675625) scale(0.2 -0.2)">
       <use xlink:href="#TimesNewRomanPSMT-31"/>
       <use xlink:href="#TimesNewRomanPSMT-30" x="50"/>
       <use xlink:href="#TimesNewRomanPSMT-30" x="100"/>
      </g>
     </g>
    </g>
    <g id="xtick_11">
     <g id="line2d_20">
      <g>
       <use xlink:href="#mbb01c109e5" x="567.08621" y="425.788125" style="stroke: #000000; stroke-width: 0.8"/>
      </g>
     </g>
     <g id="text_19">
      <!-- 150 -->
      <g transform="translate(552.08621 446.675625) scale(0.2 -0.2)">
       <use xlink:href="#TimesNewRomanPSMT-31"/>
       <use xlink:href="#TimesNewRomanPSMT-35" x="50"/>
       <use xlink:href="#TimesNewRomanPSMT-30" x="100"/>
      </g>
     </g>
    </g>
    <g id="xtick_12">
     <g id="line2d_21">
      <g>
       <use xlink:href="#mbb01c109e5" x="720.858255" y="425.788125" style="stroke: #000000; stroke-width: 0.8"/>
      </g>
     </g>
     <g id="text_20">
      <!-- 200 -->
      <g transform="translate(705.858255 446.675625) scale(0.2 -0.2)">
       <use xlink:href="#TimesNewRomanPSMT-32"/>
       <use xlink:href="#TimesNewRomanPSMT-30" x="50"/>
       <use xlink:href="#TimesNewRomanPSMT-30" x="100"/>
      </g>
     </g>
    </g>
    <g id="xtick_13">
     <g id="line2d_22">
      <g>
       <use xlink:href="#mbb01c109e5" x="874.630299" y="425.788125" style="stroke: #000000; stroke-width: 0.8"/>
      </g>
     </g>
     <g id="text_21">
      <!-- 250 -->
      <g transform="translate(859.630299 446.675625) scale(0.2 -0.2)">
       <use xlink:href="#TimesNewRomanPSMT-32"/>
       <use xlink:href="#TimesNewRomanPSMT-35" x="50"/>
       <use xlink:href="#TimesNewRomanPSMT-30" x="100"/>
      </g>
     </g>
    </g>
    <g id="xtick_14">
     <g id="line2d_23">
      <g>
       <use xlink:href="#mbb01c109e5" x="1028.402344" y="425.788125" style="stroke: #000000; stroke-width: 0.8"/>
      </g>
     </g>
     <g id="text_22">
      <!-- 300 -->
      <g transform="translate(1013.402344 446.675625) scale(0.2 -0.2)">
       <use xlink:href="#TimesNewRomanPSMT-33"/>
       <use xlink:href="#TimesNewRomanPSMT-30" x="50"/>
       <use xlink:href="#TimesNewRomanPSMT-30" x="100"/>
      </g>
     </g>
    </g>
   </g>
   <g id="matplotlib.axis_4">
    <g id="ytick_5">
     <g id="line2d_24">
      <g>
       <use xlink:href="#m403b38e1f8" x="61.6375" y="414.255434" style="stroke: #000000; stroke-width: 0.8"/>
      </g>
     </g>
     <g id="text_23">
      <!-- 0.0 -->
      <g transform="translate(29.6375 421.199184) scale(0.2 -0.2)">
       <use xlink:href="#TimesNewRomanPSMT-30"/>
       <use xlink:href="#TimesNewRomanPSMT-2e" x="50"/>
       <use xlink:href="#TimesNewRomanPSMT-30" x="75"/>
      </g>
     </g>
    </g>
    <g id="ytick_6">
     <g id="line2d_25">
      <g>
       <use xlink:href="#m403b38e1f8" x="61.6375" y="361.670987" style="stroke: #000000; stroke-width: 0.8"/>
      </g>
     </g>
     <g id="text_24">
      <!-- 0.5 -->
      <g transform="translate(29.6375 368.614737) scale(0.2 -0.2)">
       <use xlink:href="#TimesNewRomanPSMT-30"/>
       <use xlink:href="#TimesNewRomanPSMT-2e" x="50"/>
       <use xlink:href="#TimesNewRomanPSMT-35" x="75"/>
      </g>
     </g>
    </g>
    <g id="ytick_7">
     <g id="line2d_26">
      <g>
       <use xlink:href="#m403b38e1f8" x="61.6375" y="309.086541" style="stroke: #000000; stroke-width: 0.8"/>
      </g>
     </g>
     <g id="text_25">
      <!-- 1.0 -->
      <g transform="translate(29.6375 316.030291) scale(0.2 -0.2)">
       <use xlink:href="#TimesNewRomanPSMT-31"/>
       <use xlink:href="#TimesNewRomanPSMT-2e" x="50"/>
       <use xlink:href="#TimesNewRomanPSMT-30" x="75"/>
      </g>
     </g>
    </g>
    <g id="text_26">
     <!-- CPU使用率 -->
     <g transform="translate(23.059375 388.82375) rotate(-90) scale(0.2 -0.2)">
      <use xlink:href="#SimSun-43"/>
      <use xlink:href="#SimSun-50" x="50"/>
      <use xlink:href="#SimSun-55" x="100"/>
      <use xlink:href="#SimSun-4f7f" x="150"/>
      <use xlink:href="#SimSun-7528" x="250"/>
      <use xlink:href="#SimSun-7387" x="350"/>
     </g>
    </g>
   </g>
   <g id="line2d_27">
    <path d="M 105.770077 374.122973 
L 108.845518 371.598927 
L 111.920959 363.521969 
L 114.996399 350.144488 
L 118.07184 352.163715 
L 121.147281 351.658909 
L 124.222722 344.843962 
L 127.298163 343.329542 
L 130.373604 340.300676 
L 133.449045 328.690022 
L 136.524486 327.427999 
L 139.599927 327.427999 
L 142.675367 324.146724 
L 145.750808 323.894315 
L 148.826249 320.613052 
L 151.90169 303.70189 
L 154.977131 303.44948 
L 158.052572 305.468732 
L 161.128013 301.682651 
L 164.203454 303.44948 
L 167.278895 296.129727 
L 170.354335 285.781121 
L 173.429776 280.228197 
L 179.580658 289.314793 
L 182.656099 292.343658 
L 185.73154 286.538325 
L 188.806981 275.937309 
L 191.882422 282.752256 
L 194.957863 290.072009 
L 198.033303 289.819599 
L 201.108744 287.54795 
L 204.184185 286.285927 
L 207.259626 308.749995 
L 210.335067 283.257062 
L 213.410508 291.838839 
L 216.485949 290.324406 
L 219.56139 294.110488 
L 222.636831 294.110488 
L 225.712272 293.100874 
L 228.787712 294.615294 
L 231.863153 299.411002 
L 234.938594 297.896569 
L 238.014035 298.401376 
L 241.089476 298.401376 
L 244.164917 282.247436 
L 247.240358 275.937309 
L 250.315799 284.014279 
L 253.39124 290.576816 
L 256.46668 294.867704 
L 259.542121 300.168218 
L 262.617562 291.081622 
L 265.693003 295.62492 
L 268.768444 301.430241 
L 271.843885 296.886943 
L 274.919326 295.120114 
L 277.994767 294.362897 
L 281.070208 291.838839 
L 284.145648 289.062383 
L 287.221089 291.081622 
L 290.29653 291.838839 
L 293.371971 287.043144 
L 296.447412 273.66566 
L 299.522853 276.189706 
L 302.598294 276.946922 
L 305.673735 277.956548 
L 308.749176 277.704138 
L 311.824616 287.80036 
L 314.900057 287.295541 
L 317.975498 285.781121 
L 321.050939 292.343658 
L 327.201821 288.809973 
L 330.277262 290.072009 
L 333.352703 285.781121 
L 336.428144 282.247436 
L 339.503584 285.781121 
L 342.579025 285.023904 
L 345.654466 283.004653 
L 348.729907 284.014279 
L 351.805348 280.985413 
L 354.880789 273.160841 
L 357.95623 273.66566 
L 361.031671 278.208958 
L 364.107112 278.713764 
L 367.182552 278.966174 
L 370.257993 281.49022 
L 373.333434 281.995039 
L 376.408875 285.528711 
L 379.484316 282.247436 
L 382.559757 275.684899 
L 385.635198 292.848465 
L 388.710639 296.129727 
L 391.78608 302.439867 
L 394.86152 316.826971 
L 397.936961 319.351029 
L 401.012402 321.370269 
L 404.087843 329.194829 
L 407.163284 329.447238 
L 410.238725 328.942432 
L 413.314166 343.834348 
L 416.389607 348.377646 
L 419.465048 351.911318 
L 422.540488 357.969036 
L 425.615929 358.473855 
L 428.69137 376.142224 
L 431.766811 364.783992 
L 434.842252 367.812858 
L 437.917693 372.356155 
L 440.993134 376.647044 
L 444.068575 378.666271 
L 447.144016 378.413886 
L 450.219457 383.209568 
L 453.294897 385.986024 
L 456.370338 387.248072 
L 459.445779 390.276925 
L 462.52122 391.53896 
L 465.596661 393.053393 
L 468.672102 393.810597 
L 471.747543 395.325029 
L 477.898425 397.344281 
L 480.973865 397.596678 
L 484.049306 397.596678 
L 487.124747 398.606304 
L 493.275629 399.615918 
L 496.35107 400.373146 
L 499.426511 400.120737 
L 502.501952 399.615918 
L 505.577393 400.120737 
L 508.652833 400.373146 
L 511.728274 399.615918 
L 514.803715 400.120737 
L 517.879156 399.111111 
L 520.954597 397.091872 
L 524.030038 397.344281 
L 527.105479 396.587052 
L 530.18092 394.820223 
L 533.256361 394.063006 
L 536.331801 391.791357 
L 539.407242 385.22882 
L 542.482683 386.490843 
L 545.558124 383.714388 
L 548.633565 377.909067 
L 551.709006 376.647044 
L 554.784447 370.841723 
L 557.859888 355.6974 
L 560.935329 357.716639 
L 564.010769 356.202206 
L 567.08621 350.901692 
L 570.161651 349.134863 
L 573.237092 345.601191 
L 576.312533 334.242946 
L 579.387974 332.476104 
L 582.463415 330.456864 
L 585.538856 328.942432 
L 588.614297 330.709261 
L 591.689737 326.418373 
L 594.765178 310.516843 
L 597.840619 303.70189 
L 600.91606 308.245188 
L 603.991501 307.235562 
L 607.066942 305.216323 
L 610.142383 299.411002 
L 613.217824 287.80036 
L 616.293265 285.781121 
L 619.368705 293.858078 
L 622.444146 294.110488 
L 625.519587 295.120114 
L 628.595028 291.081622 
L 631.670469 282.499846 
L 634.74591 286.790734 
L 637.821351 291.334032 
L 640.896792 290.829225 
L 643.972233 288.557576 
L 647.047673 290.324406 
L 650.123114 300.673025 
L 653.198555 275.684899 
L 656.273996 293.605681 
L 659.349437 291.081622 
L 662.424878 298.148979 
L 665.500319 300.925434 
L 668.57576 296.886943 
L 671.651201 300.420628 
L 674.726642 301.177832 
L 677.802082 301.430241 
L 680.877523 300.168218 
L 683.952964 302.692264 
L 687.028405 299.158592 
L 690.103846 297.391763 
L 693.179287 299.411002 
L 696.254728 301.682651 
L 699.330169 303.44948 
L 702.40561 302.439867 
L 705.48105 297.391763 
L 708.556491 298.653786 
L 711.631932 302.944674 
L 714.707373 299.915809 
L 717.782814 295.62492 
L 720.858255 289.56719 
L 723.933696 295.87733 
L 727.009137 298.401376 
L 730.084578 300.673025 
L 733.160018 300.168218 
L 736.235459 300.168218 
L 739.3109 298.653786 
L 742.386341 294.867704 
L 745.461782 296.129727 
L 748.537223 291.838839 
L 751.612664 282.499846 
L 754.688105 285.023904 
L 757.763546 289.819599 
L 760.838986 288.305167 
L 763.914427 287.80036 
L 766.989868 291.081622 
L 770.065309 289.819599 
L 773.14075 287.54795 
L 776.216191 290.576816 
L 779.291632 285.781121 
L 782.367073 285.276302 
L 785.442514 288.809973 
L 788.517954 287.043144 
L 791.593395 289.062383 
L 794.668836 288.557576 
L 797.744277 281.49022 
L 800.819718 281.995039 
L 803.895159 284.519085 
L 806.9706 288.809973 
L 810.046041 286.538325 
L 813.121482 288.305167 
L 816.196922 291.081622 
L 819.272363 297.64416 
L 822.347804 295.372511 
L 825.423245 287.54795 
L 828.498686 303.44948 
L 831.574127 308.749995 
L 834.649568 309.759627 
L 837.725009 326.670783 
L 840.80045 331.971297 
L 843.87589 329.952045 
L 846.951331 340.048267 
L 850.026772 340.805483 
L 853.102213 340.048267 
L 856.177654 353.678148 
L 859.253095 356.454616 
L 862.328536 361.250311 
L 865.403977 367.308038 
L 868.479418 369.32729 
L 871.554858 384.219207 
L 874.630299 375.637405 
L 877.70574 379.423499 
L 880.781181 381.695136 
L 883.856622 384.724001 
L 886.932063 387.500457 
L 890.007504 388.762492 
L 893.082945 391.53896 
L 896.158386 393.053393 
L 899.233827 393.810597 
L 902.309267 395.577439 
L 908.460149 397.091872 
L 911.53559 398.606304 
L 914.611031 399.363521 
L 917.686472 399.111111 
L 920.761913 400.120737 
L 923.837354 400.877953 
L 926.912795 400.625544 
L 929.988235 401.635169 
L 933.063676 401.887579 
L 936.139117 401.635169 
L 945.36544 402.392386 
L 948.440881 402.139976 
L 951.516322 401.635169 
L 957.667203 401.635169 
L 960.742644 400.625544 
L 963.818085 397.849088 
L 966.893526 398.101485 
L 969.968967 396.587052 
L 973.044408 394.315416 
L 976.119849 394.063006 
L 979.19529 391.034141 
L 982.270731 380.433113 
L 985.346171 380.937932 
L 988.421612 376.394634 
L 988.421612 376.394634 
" clip-path="url(#p430848733e)" style="fill: none; stroke: #1f77b4; stroke-width: 1.5; stroke-linecap: square"/>
   </g>
   <g id="line2d_28">
    <path d="M 548.633565 407.594747 
L 551.709006 406.681281 
L 554.784447 403.175378 
L 557.859888 396.598963 
L 560.935329 398.681941 
L 564.010769 397.268294 
L 567.08621 379.057641 
L 570.161651 374.234954 
L 573.237092 381.040059 
L 576.312533 355.371949 
L 579.387974 351.609688 
L 582.463415 344.929628 
L 585.538856 341.395993 
L 588.614297 335.63874 
L 591.689737 334.64387 
L 594.765178 314.961311 
L 597.840619 316.897304 
L 600.91606 328.510767 
L 603.991501 311.688831 
L 607.066942 312.458089 
L 610.142383 311.861354 
L 613.217824 309.360257 
L 616.293265 319.603608 
L 619.368705 307.170369 
L 622.444146 307.364481 
L 625.519587 306.197276 
L 631.670469 306.241933 
L 634.74591 304.360226 
L 637.821351 296.672195 
L 640.896792 294.792958 
L 643.972233 299.486964 
L 647.047673 297.21791 
L 650.123114 297.062663 
L 653.198555 295.301325 
L 656.273996 295.604297 
L 659.349437 290.642435 
L 662.424878 292.190793 
L 665.500319 288.988878 
L 668.57576 289.018315 
L 671.651201 287.009419 
L 674.726642 287.656898 
L 677.802082 289.534869 
L 680.877523 285.424578 
L 683.952964 287.50397 
L 687.028405 285.018025 
L 690.103846 284.469576 
L 693.179287 286.099012 
L 696.254728 286.404666 
L 699.330169 284.592578 
L 702.40561 287.60532 
L 705.48105 284.526545 
L 708.556491 285.916396 
L 711.631932 285.143997 
L 714.707373 284.213217 
L 717.782814 286.723485 
L 720.858255 284.917552 
L 723.933696 287.925656 
L 727.009137 285.753476 
L 733.160018 283.139677 
L 736.235459 284.366784 
L 739.3109 284.411868 
L 742.386341 283.036459 
L 745.461782 283.790378 
L 748.537223 284.418676 
L 751.612664 282.295027 
L 754.688105 281.914965 
L 757.763546 280.361329 
L 760.838986 281.422432 
L 763.914427 281.979606 
L 766.989868 281.084018 
L 770.065309 279.944858 
L 773.14075 279.09997 
L 776.216191 278.930807 
L 779.291632 278.165918 
L 782.367073 277.73083 
L 785.442514 276.950069 
L 788.517954 276.473395 
L 791.593395 276.258698 
L 794.668836 277.360246 
L 797.744277 273.715984 
L 800.819718 274.066484 
L 803.895159 274.705575 
L 806.9706 272.64475 
L 810.046041 273.376592 
L 813.121482 273.987212 
L 816.196922 271.136361 
L 819.272363 272.299817 
L 822.347804 272.268988 
L 825.423245 271.318237 
L 828.498686 285.151996 
L 831.574127 269.310682 
L 834.649568 273.741045 
L 837.725009 270.539293 
L 840.80045 270.556971 
L 843.87589 272.276673 
L 846.951331 276.803498 
L 850.026772 277.096026 
L 853.102213 280.665253 
L 856.177654 293.377029 
L 859.253095 295.235668 
L 862.328536 302.032975 
L 865.403977 301.651897 
L 868.479418 315.287527 
L 871.554858 327.480505 
L 874.630299 329.130576 
L 877.70574 374.535042 
L 880.781181 351.350333 
L 883.856622 356.325722 
L 886.932063 359.830885 
L 890.007504 368.770893 
L 893.082945 366.316403 
L 896.158386 374.682027 
L 899.233827 378.808843 
L 905.384708 392.570652 
L 908.460149 390.353614 
L 911.53559 399.019916 
L 914.611031 406.936674 
L 917.686472 407.81604 
L 920.761913 409.832358 
L 923.837354 413.036542 
L 926.912795 412.50028 
L 929.988235 416.980604 
L 933.063676 418.336818 
L 936.139117 414.428124 
L 939.214558 416.757142 
L 942.289999 416.198852 
L 945.36544 415.927462 
L 948.440881 414.048111 
L 951.516322 414.486722 
L 954.591763 415.338769 
L 957.667203 414.569831 
L 960.742644 413.50454 
L 963.818085 413.173823 
L 966.893526 413.20306 
L 969.968967 413.781974 
L 973.044408 411.129146 
L 976.119849 413.046584 
L 979.19529 410.389269 
L 982.270731 412.366572 
L 985.346171 410.416675 
L 988.421612 408.687356 
L 988.421612 408.687356 
" clip-path="url(#p430848733e)" style="fill: none; stroke: #ff7f0e; stroke-width: 1.5; stroke-linecap: square"/>
   </g>
   <g id="line2d_29">
    <path d="M 548.633565 425.788125 
L 548.633565 261.859375 
" clip-path="url(#p430848733e)" style="fill: none; stroke-dasharray: 7.4,3.2; stroke-dashoffset: 0; stroke: #0000ff; stroke-width: 2"/>
   </g>
   <g id="patch_9">
    <path d="M 61.6375 425.788125 
L 61.6375 261.859375 
" style="fill: none; stroke: #000000; stroke-width: 0.8; stroke-linejoin: miter; stroke-linecap: square"/>
   </g>
   <g id="patch_10">
    <path d="M 1032.554189 425.788125 
L 1032.554189 261.859375 
" style="fill: none; stroke: #000000; stroke-width: 0.8; stroke-linejoin: miter; stroke-linecap: square"/>
   </g>
   <g id="patch_11">
    <path d="M 61.6375 425.788125 
L 1032.554189 425.788125 
" style="fill: none; stroke: #000000; stroke-width: 0.8; stroke-linejoin: miter; stroke-linecap: square"/>
   </g>
   <g id="patch_12">
    <path d="M 61.6375 261.859375 
L 1032.554189 261.859375 
" style="fill: none; stroke: #000000; stroke-width: 0.8; stroke-linejoin: miter; stroke-linecap: square"/>
   </g>
   <g id="text_27">
    <!-- 云函数ID: 72 -->
    <g transform="translate(487.095845 255.859375) scale(0.2 -0.2)">
     <defs>
      <path id="SimSun-37" d="M 2825 4200 
Q 2300 3350 1987 2537 
Q 1675 1725 1675 1125 
Q 1675 1025 1700 850 
Q 1700 650 1700 400 
Q 1700 200 1637 125 
Q 1575 50 1425 50 
Q 1300 50 1212 137 
Q 1125 225 1125 450 
Q 1125 925 1337 1625 
Q 1550 2325 2475 4000 
L 1225 4000 
Q 950 4000 787 3825 
Q 625 3650 550 3300 
L 400 3325 
L 575 4375 
L 2825 4375 
L 2825 4200 
z
" transform="scale(0.015625)"/>
     </defs>
     <use xlink:href="#SimSun-4e91"/>
     <use xlink:href="#SimSun-51fd" x="100"/>
     <use xlink:href="#SimSun-6570" x="200"/>
     <use xlink:href="#SimSun-49" x="300"/>
     <use xlink:href="#SimSun-44" x="350"/>
     <use xlink:href="#SimSun-3a" x="400"/>
     <use xlink:href="#SimSun-20" x="450"/>
     <use xlink:href="#SimSun-37" x="500"/>
     <use xlink:href="#SimSun-32" x="550"/>
    </g>
   </g>
  </g>
  <g id="axes_3">
   <g id="patch_13">
    <path d="M 61.6375 658.588125 
L 1032.554189 658.588125 
L 1032.554189 494.659375 
L 61.6375 494.659375 
z
" style="fill: #ffffff"/>
   </g>
   <g id="matplotlib.axis_5">
    <g id="xtick_15">
     <g id="line2d_30">
      <g>
       <use xlink:href="#mbb01c109e5" x="105.770077" y="658.588125" style="stroke: #000000; stroke-width: 0.8"/>
      </g>
     </g>
     <g id="text_28">
      <!-- 0 -->
      <g transform="translate(100.770077 679.475625) scale(0.2 -0.2)">
       <use xlink:href="#TimesNewRomanPSMT-30"/>
      </g>
     </g>
    </g>
    <g id="xtick_16">
     <g id="line2d_31">
      <g>
       <use xlink:href="#mbb01c109e5" x="259.542121" y="658.588125" style="stroke: #000000; stroke-width: 0.8"/>
      </g>
     </g>
     <g id="text_29">
      <!-- 50 -->
      <g transform="translate(249.542121 679.475625) scale(0.2 -0.2)">
       <use xlink:href="#TimesNewRomanPSMT-35"/>
       <use xlink:href="#TimesNewRomanPSMT-30" x="50"/>
      </g>
     </g>
    </g>
    <g id="xtick_17">
     <g id="line2d_32">
      <g>
       <use xlink:href="#mbb01c109e5" x="413.314166" y="658.588125" style="stroke: #000000; stroke-width: 0.8"/>
      </g>
     </g>
     <g id="text_30">
      <!-- 100 -->
      <g transform="translate(398.314166 679.475625) scale(0.2 -0.2)">
       <use xlink:href="#TimesNewRomanPSMT-31"/>
       <use xlink:href="#TimesNewRomanPSMT-30" x="50"/>
       <use xlink:href="#TimesNewRomanPSMT-30" x="100"/>
      </g>
     </g>
    </g>
    <g id="xtick_18">
     <g id="line2d_33">
      <g>
       <use xlink:href="#mbb01c109e5" x="567.08621" y="658.588125" style="stroke: #000000; stroke-width: 0.8"/>
      </g>
     </g>
     <g id="text_31">
      <!-- 150 -->
      <g transform="translate(552.08621 679.475625) scale(0.2 -0.2)">
       <use xlink:href="#TimesNewRomanPSMT-31"/>
       <use xlink:href="#TimesNewRomanPSMT-35" x="50"/>
       <use xlink:href="#TimesNewRomanPSMT-30" x="100"/>
      </g>
     </g>
    </g>
    <g id="xtick_19">
     <g id="line2d_34">
      <g>
       <use xlink:href="#mbb01c109e5" x="720.858255" y="658.588125" style="stroke: #000000; stroke-width: 0.8"/>
      </g>
     </g>
     <g id="text_32">
      <!-- 200 -->
      <g transform="translate(705.858255 679.475625) scale(0.2 -0.2)">
       <use xlink:href="#TimesNewRomanPSMT-32"/>
       <use xlink:href="#TimesNewRomanPSMT-30" x="50"/>
       <use xlink:href="#TimesNewRomanPSMT-30" x="100"/>
      </g>
     </g>
    </g>
    <g id="xtick_20">
     <g id="line2d_35">
      <g>
       <use xlink:href="#mbb01c109e5" x="874.630299" y="658.588125" style="stroke: #000000; stroke-width: 0.8"/>
      </g>
     </g>
     <g id="text_33">
      <!-- 250 -->
      <g transform="translate(859.630299 679.475625) scale(0.2 -0.2)">
       <use xlink:href="#TimesNewRomanPSMT-32"/>
       <use xlink:href="#TimesNewRomanPSMT-35" x="50"/>
       <use xlink:href="#TimesNewRomanPSMT-30" x="100"/>
      </g>
     </g>
    </g>
    <g id="xtick_21">
     <g id="line2d_36">
      <g>
       <use xlink:href="#mbb01c109e5" x="1028.402344" y="658.588125" style="stroke: #000000; stroke-width: 0.8"/>
      </g>
     </g>
     <g id="text_34">
      <!-- 300 -->
      <g transform="translate(1013.402344 679.475625) scale(0.2 -0.2)">
       <use xlink:href="#TimesNewRomanPSMT-33"/>
       <use xlink:href="#TimesNewRomanPSMT-30" x="50"/>
       <use xlink:href="#TimesNewRomanPSMT-30" x="100"/>
      </g>
     </g>
    </g>
   </g>
   <g id="matplotlib.axis_6">
    <g id="ytick_8">
     <g id="line2d_37">
      <g>
       <use xlink:href="#m403b38e1f8" x="61.6375" y="615.200483" style="stroke: #000000; stroke-width: 0.8"/>
      </g>
     </g>
     <g id="text_35">
      <!-- 1.0 -->
      <g transform="translate(29.6375 622.144233) scale(0.2 -0.2)">
       <use xlink:href="#TimesNewRomanPSMT-31"/>
       <use xlink:href="#TimesNewRomanPSMT-2e" x="50"/>
       <use xlink:href="#TimesNewRomanPSMT-30" x="75"/>
      </g>
     </g>
    </g>
    <g id="ytick_9">
     <g id="line2d_38">
      <g>
       <use xlink:href="#m403b38e1f8" x="61.6375" y="559.259743" style="stroke: #000000; stroke-width: 0.8"/>
      </g>
     </g>
     <g id="text_36">
      <!-- 2.0 -->
      <g transform="translate(29.6375 566.203493) scale(0.2 -0.2)">
       <use xlink:href="#TimesNewRomanPSMT-32"/>
       <use xlink:href="#TimesNewRomanPSMT-2e" x="50"/>
       <use xlink:href="#TimesNewRomanPSMT-30" x="75"/>
      </g>
     </g>
    </g>
    <g id="ytick_10">
     <g id="line2d_39">
      <g>
       <use xlink:href="#m403b38e1f8" x="61.6375" y="503.319002" style="stroke: #000000; stroke-width: 0.8"/>
      </g>
     </g>
     <g id="text_37">
      <!-- 3.0 -->
      <g transform="translate(29.6375 510.262752) scale(0.2 -0.2)">
       <use xlink:href="#TimesNewRomanPSMT-33"/>
       <use xlink:href="#TimesNewRomanPSMT-2e" x="50"/>
       <use xlink:href="#TimesNewRomanPSMT-30" x="75"/>
      </g>
     </g>
    </g>
    <g id="text_38">
     <!-- CPU使用率 -->
     <g transform="translate(23.059375 621.62375) rotate(-90) scale(0.2 -0.2)">
      <use xlink:href="#SimSun-43"/>
      <use xlink:href="#SimSun-50" x="50"/>
      <use xlink:href="#SimSun-55" x="100"/>
      <use xlink:href="#SimSun-4f7f" x="150"/>
      <use xlink:href="#SimSun-7528" x="250"/>
      <use xlink:href="#SimSun-7387" x="350"/>
     </g>
    </g>
   </g>
   <g id="line2d_40">
    <path d="M 105.770077 526.814118 
L 108.845518 521.175289 
L 111.920959 514.999433 
L 114.996399 517.684581 
L 118.07184 523.860436 
L 121.147281 523.457663 
L 124.222722 524.934504 
L 127.298163 523.726183 
L 130.373604 518.892901 
L 133.449045 518.355874 
L 136.524486 518.892901 
L 139.599927 517.281807 
L 142.675367 518.892901 
L 145.750808 517.550327 
L 148.826249 507.883764 
L 151.90169 520.638249 
L 154.977131 520.369742 
L 158.052572 523.32341 
L 161.128013 525.068757 
L 164.203454 527.216891 
L 167.278895 524.80025 
L 170.354335 536.346414 
L 173.429776 541.85099 
L 176.505217 548.295365 
L 179.580658 554.336954 
L 182.656099 552.860127 
L 185.73154 577.69781 
L 188.806981 564.943325 
L 191.882422 573.938595 
L 194.957863 580.919997 
L 198.033303 590.183787 
L 201.108744 592.063395 
L 204.184185 581.859804 
L 207.259626 595.688356 
L 210.335067 602.938272 
L 213.410508 607.637294 
L 216.485949 614.88721 
L 219.56139 620.928815 
L 222.636831 617.035341 
L 225.712272 619.183465 
L 231.863153 625.359324 
L 234.938594 628.178738 
L 238.014035 629.521312 
L 241.089476 634.891627 
L 244.164917 639.456389 
L 247.240358 642.007283 
L 250.315799 642.94709 
L 253.39124 644.155416 
L 259.542121 641.738776 
L 262.617562 647.78037 
L 268.768444 648.854437 
L 271.843885 649.257204 
L 274.919326 649.391464 
L 277.994767 642.275803 
L 281.070208 645.095209 
L 284.145648 645.76651 
L 287.221089 644.826703 
L 290.29653 644.021156 
L 293.371971 642.544323 
L 296.447412 636.905495 
L 299.522853 637.711042 
L 302.598294 634.623114 
L 305.673735 629.252798 
L 308.749176 627.641705 
L 311.824616 623.61397 
L 314.900057 604.012333 
L 317.975498 614.752956 
L 321.050939 610.590968 
L 324.12638 603.878079 
L 327.201821 599.581831 
L 330.277262 594.480036 
L 333.352703 577.429296 
L 336.428144 576.086716 
L 339.503584 571.387694 
L 342.579025 573.133048 
L 345.654466 571.521954 
L 348.729907 566.420159 
L 351.805348 556.082315 
L 354.880789 553.934181 
L 357.95623 557.693409 
L 361.031671 555.813795 
L 364.107112 555.276768 
L 367.182552 552.323087 
L 370.257993 540.105629 
L 373.333434 541.58247 
L 376.408875 550.30922 
L 379.484316 549.906446 
L 382.559757 549.906446 
L 385.635198 546.147231 
L 388.710639 540.239896 
L 391.78608 544.670404 
L 394.86152 550.040713 
L 397.936961 547.087045 
L 401.012402 543.327817 
L 404.087843 546.012978 
L 407.163284 559.438756 
L 410.238725 531.513133 
L 413.314166 546.415751 
L 416.389607 546.012978 
L 419.465048 547.892592 
L 422.540488 550.980513 
L 425.615929 546.952778 
L 428.69137 551.114766 
L 431.766811 552.591607 
L 434.842252 549.100899 
L 437.917693 550.711993 
L 440.993134 553.799927 
L 444.068575 547.489818 
L 447.144016 547.355552 
L 450.219457 550.84626 
L 453.294897 552.860127 
L 456.370338 555.142501 
L 459.445779 553.397154 
L 462.52122 550.57774 
L 465.596661 551.78606 
L 468.672102 553.128634 
L 471.747543 549.369419 
L 474.822984 547.221298 
L 477.898425 540.642669 
L 480.973865 544.670404 
L 484.049306 546.147231 
L 487.124747 548.161099 
L 490.200188 544.536137 
L 493.275629 546.281498 
L 496.35107 541.58247 
L 499.426511 535.406614 
L 502.501952 533.392747 
L 505.577393 529.633532 
L 508.652833 520.101222 
L 511.728274 522.249343 
L 514.803715 524.80025 
L 517.879156 523.59193 
L 520.954597 522.517863 
L 524.030038 526.814118 
L 527.105479 523.994703 
L 530.18092 526.814118 
L 533.256361 526.545597 
L 536.331801 523.726183 
L 539.407242 525.874304 
L 542.482683 527.082624 
L 545.558124 524.397477 
L 548.633565 526.948371 
L 551.709006 526.411344 
L 554.784447 519.295675 
L 557.859888 523.860436 
L 560.935329 526.679851 
L 564.010769 527.351144 
L 567.08621 527.485398 
L 570.161651 525.337277 
L 573.237092 521.578062 
L 576.312533 518.892901 
L 579.387974 519.832702 
L 582.463415 520.638249 
L 585.538856 520.638249 
L 588.614297 519.429928 
L 591.689737 505.06435 
L 594.765178 521.578062 
L 597.840619 523.994703 
L 600.91606 524.397477 
L 603.991501 531.378879 
L 607.066942 533.258493 
L 610.142383 534.4668 
L 613.217824 541.85099 
L 616.293265 548.429619 
L 619.368705 552.591607 
L 622.444146 560.244303 
L 625.519587 564.809065 
L 628.595028 589.781014 
L 631.670469 576.220976 
L 634.74591 584.410699 
L 637.821351 591.123588 
L 640.896792 596.493896 
L 643.972233 603.341046 
L 647.047673 608.442841 
L 650.123114 613.813149 
L 653.198555 620.123268 
L 656.273996 621.868622 
L 659.349437 626.970418 
L 662.424878 629.924085 
L 665.500319 628.447252 
L 668.57576 630.192605 
L 674.726642 634.220334 
L 677.802082 636.771235 
L 680.877523 637.576782 
L 683.952964 642.141543 
L 687.028405 645.095209 
L 690.103846 646.706303 
L 693.179287 646.974823 
L 696.254728 648.18315 
L 699.330169 648.585917 
L 702.40561 645.900756 
L 705.48105 651.002558 
L 708.556491 651.136818 
L 711.631932 650.734038 
L 714.707373 651.136818 
L 717.782814 651.002558 
L 720.858255 648.988684 
L 723.933696 648.854437 
L 727.009137 647.64611 
L 730.084578 645.363729 
L 733.160018 643.349869 
L 736.235459 640.396196 
L 739.3109 630.998152 
L 742.386341 629.252798 
L 745.461782 624.285257 
L 748.537223 614.215923 
L 751.612664 609.785421 
L 754.688105 603.475306 
L 757.763546 578.503357 
L 760.838986 585.619019 
L 763.914427 579.443164 
L 766.989868 572.730274 
L 770.065309 568.971053 
L 773.14075 561.049843 
L 776.216191 545.207431 
L 779.291632 546.415751 
L 782.367073 542.925043 
L 785.442514 543.999111 
L 788.517954 547.489818 
L 794.668836 538.226028 
L 797.744277 538.360282 
L 800.819718 535.272347 
L 803.895159 539.165829 
L 806.9706 545.475951 
L 810.046041 541.179696 
L 813.121482 527.485398 
L 816.196922 533.392747 
L 819.272363 541.85099 
L 822.347804 542.119497 
L 825.423245 538.628802 
L 828.498686 544.804657 
L 831.574127 539.165829 
L 834.649568 541.58247 
L 837.725009 541.31395 
L 840.80045 545.744458 
L 843.87589 544.536137 
L 846.951331 543.193564 
L 850.026772 553.262901 
L 853.102213 526.814118 
L 856.177654 532.85572 
L 859.253095 538.226028 
L 862.328536 541.58247 
L 865.403977 542.925043 
L 868.479418 537.554735 
L 871.554858 546.952778 
L 874.630299 548.563872 
L 877.70574 546.550005 
L 880.781181 550.040713 
L 883.856622 548.966646 
L 886.932063 533.929773 
L 890.007504 545.744458 
L 893.082945 537.957508 
L 896.158386 537.688988 
L 899.233827 548.026845 
L 902.309267 546.415751 
L 905.384708 538.360282 
L 908.460149 545.341684 
L 911.53559 548.026845 
L 914.611031 545.207431 
L 917.686472 546.415751 
L 920.761913 546.147231 
L 923.837354 542.79079 
L 926.912795 542.52227 
L 929.988235 541.179696 
L 933.063676 535.675121 
L 936.139117 542.388017 
L 939.214558 532.184426 
L 942.289999 530.170559 
L 945.36544 526.814118 
L 948.440881 528.156691 
L 951.516322 519.832702 
L 954.591763 518.892901 
L 957.667203 520.369742 
L 960.742644 512.180019 
L 963.818085 508.152284 
L 966.893526 506.54119 
L 969.968967 503.453256 
L 973.044408 503.184749 
L 976.119849 502.110682 
L 979.19529 509.092084 
L 982.270731 512.582792 
L 985.346171 509.897631 
L 988.421612 514.865166 
L 988.421612 514.865166 
" clip-path="url(#pd7d4547509)" style="fill: none; stroke: #1f77b4; stroke-width: 1.5; stroke-linecap: square"/>
   </g>
   <g id="line2d_41">
    <path d="M 548.633565 521.017882 
L 551.709006 521.925406 
L 554.784447 517.3237 
L 557.859888 520.769408 
L 560.935329 520.721567 
L 564.010769 519.788448 
L 567.08621 517.967212 
L 570.161651 518.458558 
L 573.237092 518.215619 
L 576.312533 517.518625 
L 579.387974 517.677125 
L 582.463415 513.277533 
L 585.538856 513.147974 
L 588.614297 515.504957 
L 591.689737 514.455911 
L 594.765178 513.696365 
L 597.840619 514.564904 
L 600.91606 517.639808 
L 603.991501 515.644799 
L 607.066942 516.669785 
L 610.142383 519.720562 
L 613.217824 524.536625 
L 616.293265 524.269012 
L 619.368705 529.730521 
L 622.444146 526.861478 
L 625.519587 534.848994 
L 628.595028 544.270045 
L 631.670469 544.148275 
L 634.74591 551.765641 
L 637.821351 555.576604 
L 640.896792 578.887818 
L 643.972233 590.343335 
L 647.047673 587.089918 
L 650.123114 588.379256 
L 653.198555 595.328329 
L 656.273996 592.637326 
L 659.349437 608.01636 
L 662.424878 610.87736 
L 665.500319 622.521677 
L 668.57576 620.041361 
L 671.651201 621.522616 
L 674.726642 634.247202 
L 677.802082 633.504867 
L 680.877523 631.164375 
L 683.952964 639.254655 
L 687.028405 641.076072 
L 690.103846 643.418496 
L 693.179287 646.422765 
L 696.254728 647.467157 
L 699.330169 646.941307 
L 702.40561 648.944891 
L 705.48105 646.233822 
L 708.556491 646.849453 
L 711.631932 648.379209 
L 714.707373 649.519122 
L 717.782814 649.264786 
L 720.858255 648.306274 
L 723.933696 648.784543 
L 727.009137 643.79989 
L 730.084578 644.055239 
L 733.160018 641.555102 
L 736.235459 640.199237 
L 739.3109 637.398915 
L 742.386341 637.193707 
L 745.461782 633.044796 
L 748.537223 628.377577 
L 751.612664 621.296135 
L 754.688105 616.818423 
L 757.763546 616.655441 
L 760.838986 610.437869 
L 766.989868 595.998762 
L 770.065309 590.160074 
L 773.14075 576.467969 
L 776.216191 569.380415 
L 779.291632 572.516751 
L 782.367073 560.079381 
L 785.442514 559.849252 
L 788.517954 556.339018 
L 791.593395 552.494458 
L 794.668836 552.167667 
L 800.819718 550.395432 
L 803.895159 549.835412 
L 806.9706 548.802957 
L 810.046041 548.915124 
L 813.121482 550.353206 
L 816.196922 550.191304 
L 819.272363 551.871339 
L 822.347804 549.961943 
L 825.423245 549.131628 
L 828.498686 543.68511 
L 831.574127 550.583661 
L 834.649568 550.060599 
L 837.725009 549.933427 
L 840.80045 550.316128 
L 843.87589 548.273812 
L 846.951331 549.576188 
L 850.026772 550.021134 
L 853.102213 549.252758 
L 856.177654 549.268016 
L 859.253095 549.5298 
L 862.328536 550.344897 
L 865.403977 550.247975 
L 868.479418 550.318662 
L 871.554858 549.41694 
L 874.630299 549.775767 
L 877.70574 552.718178 
L 880.781181 550.721743 
L 883.856622 550.801233 
L 886.932063 549.923224 
L 890.007504 550.373839 
L 896.158386 547.333198 
L 899.233827 548.107656 
L 902.309267 549.175588 
L 905.384708 548.544373 
L 908.460149 547.3372 
L 911.53559 547.10261 
L 914.611031 546.553739 
L 917.686472 545.483087 
L 920.761913 543.327684 
L 923.837354 542.256564 
L 926.912795 538.76899 
L 929.988235 540.232707 
L 933.063676 538.311494 
L 936.139117 536.566107 
L 939.214558 537.404823 
L 942.289999 535.708211 
L 945.36544 534.175727 
L 948.440881 533.490282 
L 951.516322 531.009409 
L 954.591763 529.204017 
L 957.667203 531.716233 
L 960.742644 528.136179 
L 963.818085 528.638382 
L 966.893526 525.795667 
L 969.968967 527.674014 
L 973.044408 526.750285 
L 976.119849 524.927742 
L 979.19529 526.64316 
L 982.270731 523.231542 
L 985.346171 522.054471 
L 988.421612 521.800822 
L 988.421612 521.800822 
" clip-path="url(#pd7d4547509)" style="fill: none; stroke: #ff7f0e; stroke-width: 1.5; stroke-linecap: square"/>
   </g>
   <g id="line2d_42">
    <path d="M 548.633565 658.588125 
L 548.633565 494.659375 
" clip-path="url(#pd7d4547509)" style="fill: none; stroke-dasharray: 7.4,3.2; stroke-dashoffset: 0; stroke: #0000ff; stroke-width: 2"/>
   </g>
   <g id="patch_14">
    <path d="M 61.6375 658.588125 
L 61.6375 494.659375 
" style="fill: none; stroke: #000000; stroke-width: 0.8; stroke-linejoin: miter; stroke-linecap: square"/>
   </g>
   <g id="patch_15">
    <path d="M 1032.554189 658.588125 
L 1032.554189 494.659375 
" style="fill: none; stroke: #000000; stroke-width: 0.8; stroke-linejoin: miter; stroke-linecap: square"/>
   </g>
   <g id="patch_16">
    <path d="M 61.6375 658.588125 
L 1032.554189 658.588125 
" style="fill: none; stroke: #000000; stroke-width: 0.8; stroke-linejoin: miter; stroke-linecap: square"/>
   </g>
   <g id="patch_17">
    <path d="M 61.6375 494.659375 
L 1032.554189 494.659375 
" style="fill: none; stroke: #000000; stroke-width: 0.8; stroke-linejoin: miter; stroke-linecap: square"/>
   </g>
   <g id="text_39">
    <!-- 云函数ID: 150 -->
    <g transform="translate(482.095845 488.659375) scale(0.2 -0.2)">
     <defs>
      <path id="SimSun-31" d="M 1825 4450 
L 1825 650 
Q 1825 450 1950 350 
Q 2075 250 2300 250 
L 2550 250 
L 2550 100 
L 725 100 
L 725 250 
L 950 250 
Q 1200 250 1312 350 
Q 1425 450 1425 650 
L 1425 3675 
Q 1425 3775 1362 3837 
Q 1300 3900 1175 3900 
L 725 3900 
L 725 4050 
L 950 4050 
Q 1250 4050 1437 4150 
Q 1625 4250 1725 4450 
L 1825 4450 
z
" transform="scale(0.015625)"/>
      <path id="SimSun-35" d="M 1725 2850 
Q 2200 2850 2500 2487 
Q 2800 2125 2800 1525 
Q 2800 850 2487 450 
Q 2175 50 1525 50 
Q 1075 50 725 312 
Q 375 575 375 950 
Q 375 1100 462 1212 
Q 550 1325 700 1325 
Q 850 1325 900 1225 
Q 950 1125 950 1050 
Q 950 900 875 825 
Q 800 725 800 625 
Q 800 425 1037 325 
Q 1275 225 1550 225 
Q 1950 225 2162 550 
Q 2375 875 2375 1475 
Q 2375 1975 2187 2287 
Q 2000 2600 1625 2600 
Q 1350 2600 1150 2500 
Q 950 2400 775 2075 
L 550 2100 
L 675 4375 
L 2725 4375 
L 2650 4000 
L 850 4000 
L 750 2350 
Q 1000 2700 1237 2775 
Q 1475 2850 1725 2850 
z
" transform="scale(0.015625)"/>
      <path id="SimSun-30" d="M 1600 4225 
Q 1250 4225 1012 3687 
Q 775 3150 775 2250 
Q 775 1300 1012 775 
Q 1250 250 1600 250 
Q 1975 250 2187 775 
Q 2400 1300 2400 2250 
Q 2400 3150 2200 3687 
Q 2000 4225 1600 4225 
z
M 1600 50 
Q 1050 50 675 625 
Q 300 1200 300 2250 
Q 300 3225 662 3825 
Q 1025 4425 1600 4425 
Q 2150 4425 2512 3850 
Q 2875 3275 2875 2250 
Q 2875 1225 2512 637 
Q 2150 50 1600 50 
z
" transform="scale(0.015625)"/>
     </defs>
     <use xlink:href="#SimSun-4e91"/>
     <use xlink:href="#SimSun-51fd" x="100"/>
     <use xlink:href="#SimSun-6570" x="200"/>
     <use xlink:href="#SimSun-49" x="300"/>
     <use xlink:href="#SimSun-44" x="350"/>
     <use xlink:href="#SimSun-3a" x="400"/>
     <use xlink:href="#SimSun-20" x="450"/>
     <use xlink:href="#SimSun-31" x="500"/>
     <use xlink:href="#SimSun-35" x="550"/>
     <use xlink:href="#SimSun-30" x="600"/>
    </g>
   </g>
  </g>
 </g>
 <defs>
  <clipPath id="p40abb3bb2a">
   <rect x="61.6375" y="29.059375" width="970.916689" height="163.92875"/>
  </clipPath>
  <clipPath id="p430848733e">
   <rect x="61.6375" y="261.859375" width="970.916689" height="163.92875"/>
  </clipPath>
  <clipPath id="pd7d4547509">
   <rect x="61.6375" y="494.659375" width="970.916689" height="163.92875"/>
  </clipPath>
 </defs>
</svg>
