<?xml version="1.0" encoding="utf-8" standalone="no"?>
<!DOCTYPE svg PUBLIC "-//W3C//DTD SVG 1.1//EN"
  "http://www.w3.org/Graphics/SVG/1.1/DTD/svg11.dtd">
<svg xmlns:xlink="http://www.w3.org/1999/xlink" width="1050.557536pt" height="691.4825pt" viewBox="0 0 1050.557536 691.4825" xmlns="http://www.w3.org/2000/svg" version="1.1">
 <metadata>
  <rdf:RDF xmlns:dc="http://purl.org/dc/elements/1.1/" xmlns:cc="http://creativecommons.org/ns#" xmlns:rdf="http://www.w3.org/1999/02/22-rdf-syntax-ns#">
   <cc:Work>
    <dc:type rdf:resource="http://purl.org/dc/dcmitype/StillImage"/>
    <dc:date>2024-02-25T19:59:13.888506</dc:date>
    <dc:format>image/svg+xml</dc:format>
    <dc:creator>
     <cc:Agent>
      <dc:title>Matplotlib v3.7.4, https://matplotlib.org/</dc:title>
     </cc:Agent>
    </dc:creator>
   </cc:Work>
  </rdf:RDF>
 </metadata>
 <defs>
  <style type="text/css">*{stroke-linejoin: round; stroke-linecap: butt}</style>
 </defs>
 <g id="figure_1">
  <g id="patch_1">
   <path d="M 0 691.4825 
L 1050.557536 691.4825 
L 1050.557536 0 
L 0 0 
z
" style="fill: #ffffff"/>
  </g>
  <g id="axes_1">
   <g id="patch_2">
    <path d="M 61.6375 193.516875 
L 1032.509189 193.516875 
L 1032.509189 29.059375 
L 61.6375 29.059375 
z
" style="fill: #ffffff"/>
   </g>
   <g id="matplotlib.axis_1">
    <g id="xtick_1">
     <g id="line2d_1">
      <defs>
       <path id="m9a00778e56" d="M 0 0 
L 0 3.5 
" style="stroke: #000000; stroke-width: 0.8"/>
      </defs>
      <g>
       <use xlink:href="#m9a00778e56" x="105.768031" y="193.516875" style="stroke: #000000; stroke-width: 0.8"/>
      </g>
     </g>
     <g id="text_1">
      <!-- 0 -->
      <g transform="translate(100.768031 214.404375) scale(0.2 -0.2)">
       <defs>
        <path id="TimesNewRomanPSMT-30" d="M 231 2094 
Q 231 2819 450 3342 
Q 669 3866 1031 4122 
Q 1313 4325 1613 4325 
Q 2100 4325 2488 3828 
Q 2972 3213 2972 2159 
Q 2972 1422 2759 906 
Q 2547 391 2217 158 
Q 1888 -75 1581 -75 
Q 975 -75 572 641 
Q 231 1244 231 2094 
z
M 844 2016 
Q 844 1141 1059 588 
Q 1238 122 1591 122 
Q 1759 122 1940 273 
Q 2122 425 2216 781 
Q 2359 1319 2359 2297 
Q 2359 3022 2209 3506 
Q 2097 3866 1919 4016 
Q 1791 4119 1609 4119 
Q 1397 4119 1231 3928 
Q 1006 3669 925 3112 
Q 844 2556 844 2016 
z
" transform="scale(0.015625)"/>
       </defs>
       <use xlink:href="#TimesNewRomanPSMT-30"/>
      </g>
     </g>
    </g>
    <g id="xtick_2">
     <g id="line2d_2">
      <g>
       <use xlink:href="#m9a00778e56" x="259.532949" y="193.516875" style="stroke: #000000; stroke-width: 0.8"/>
      </g>
     </g>
     <g id="text_2">
      <!-- 50 -->
      <g transform="translate(249.532949 214.404375) scale(0.2 -0.2)">
       <defs>
        <path id="TimesNewRomanPSMT-35" d="M 2778 4238 
L 2534 3706 
L 1259 3706 
L 981 3138 
Q 1809 3016 2294 2522 
Q 2709 2097 2709 1522 
Q 2709 1188 2573 903 
Q 2438 619 2231 419 
Q 2025 219 1772 97 
Q 1413 -75 1034 -75 
Q 653 -75 479 54 
Q 306 184 306 341 
Q 306 428 378 495 
Q 450 563 559 563 
Q 641 563 702 538 
Q 763 513 909 409 
Q 1144 247 1384 247 
Q 1750 247 2026 523 
Q 2303 800 2303 1197 
Q 2303 1581 2056 1914 
Q 1809 2247 1375 2428 
Q 1034 2569 447 2591 
L 1259 4238 
L 2778 4238 
z
" transform="scale(0.015625)"/>
       </defs>
       <use xlink:href="#TimesNewRomanPSMT-35"/>
       <use xlink:href="#TimesNewRomanPSMT-30" x="50"/>
      </g>
     </g>
    </g>
    <g id="xtick_3">
     <g id="line2d_3">
      <g>
       <use xlink:href="#m9a00778e56" x="413.297866" y="193.516875" style="stroke: #000000; stroke-width: 0.8"/>
      </g>
     </g>
     <g id="text_3">
      <!-- 100 -->
      <g transform="translate(398.297866 214.404375) scale(0.2 -0.2)">
       <defs>
        <path id="TimesNewRomanPSMT-31" d="M 750 3822 
L 1781 4325 
L 1884 4325 
L 1884 747 
Q 1884 391 1914 303 
Q 1944 216 2037 169 
Q 2131 122 2419 116 
L 2419 0 
L 825 0 
L 825 116 
Q 1125 122 1212 167 
Q 1300 213 1334 289 
Q 1369 366 1369 747 
L 1369 3034 
Q 1369 3497 1338 3628 
Q 1316 3728 1258 3775 
Q 1200 3822 1119 3822 
Q 1003 3822 797 3725 
L 750 3822 
z
" transform="scale(0.015625)"/>
       </defs>
       <use xlink:href="#TimesNewRomanPSMT-31"/>
       <use xlink:href="#TimesNewRomanPSMT-30" x="50"/>
       <use xlink:href="#TimesNewRomanPSMT-30" x="100"/>
      </g>
     </g>
    </g>
    <g id="xtick_4">
     <g id="line2d_4">
      <g>
       <use xlink:href="#m9a00778e56" x="567.062784" y="193.516875" style="stroke: #000000; stroke-width: 0.8"/>
      </g>
     </g>
     <g id="text_4">
      <!-- 150 -->
      <g transform="translate(552.062784 214.404375) scale(0.2 -0.2)">
       <use xlink:href="#TimesNewRomanPSMT-31"/>
       <use xlink:href="#TimesNewRomanPSMT-35" x="50"/>
       <use xlink:href="#TimesNewRomanPSMT-30" x="100"/>
      </g>
     </g>
    </g>
    <g id="xtick_5">
     <g id="line2d_5">
      <g>
       <use xlink:href="#m9a00778e56" x="720.827701" y="193.516875" style="stroke: #000000; stroke-width: 0.8"/>
      </g>
     </g>
     <g id="text_5">
      <!-- 200 -->
      <g transform="translate(705.827701 214.404375) scale(0.2 -0.2)">
       <defs>
        <path id="TimesNewRomanPSMT-32" d="M 2934 816 
L 2638 0 
L 138 0 
L 138 116 
Q 1241 1122 1691 1759 
Q 2141 2397 2141 2925 
Q 2141 3328 1894 3587 
Q 1647 3847 1303 3847 
Q 991 3847 742 3664 
Q 494 3481 375 3128 
L 259 3128 
Q 338 3706 661 4015 
Q 984 4325 1469 4325 
Q 1984 4325 2329 3994 
Q 2675 3663 2675 3213 
Q 2675 2891 2525 2569 
Q 2294 2063 1775 1497 
Q 997 647 803 472 
L 1909 472 
Q 2247 472 2383 497 
Q 2519 522 2628 598 
Q 2738 675 2819 816 
L 2934 816 
z
" transform="scale(0.015625)"/>
       </defs>
       <use xlink:href="#TimesNewRomanPSMT-32"/>
       <use xlink:href="#TimesNewRomanPSMT-30" x="50"/>
       <use xlink:href="#TimesNewRomanPSMT-30" x="100"/>
      </g>
     </g>
    </g>
    <g id="xtick_6">
     <g id="line2d_6">
      <g>
       <use xlink:href="#m9a00778e56" x="874.592619" y="193.516875" style="stroke: #000000; stroke-width: 0.8"/>
      </g>
     </g>
     <g id="text_6">
      <!-- 250 -->
      <g transform="translate(859.592619 214.404375) scale(0.2 -0.2)">
       <use xlink:href="#TimesNewRomanPSMT-32"/>
       <use xlink:href="#TimesNewRomanPSMT-35" x="50"/>
       <use xlink:href="#TimesNewRomanPSMT-30" x="100"/>
      </g>
     </g>
    </g>
    <g id="xtick_7">
     <g id="line2d_7">
      <g>
       <use xlink:href="#m9a00778e56" x="1028.357536" y="193.516875" style="stroke: #000000; stroke-width: 0.8"/>
      </g>
     </g>
     <g id="text_7">
      <!-- 300 -->
      <g transform="translate(1013.357536 214.404375) scale(0.2 -0.2)">
       <defs>
        <path id="TimesNewRomanPSMT-33" d="M 325 3431 
Q 506 3859 782 4092 
Q 1059 4325 1472 4325 
Q 1981 4325 2253 3994 
Q 2459 3747 2459 3466 
Q 2459 3003 1878 2509 
Q 2269 2356 2469 2072 
Q 2669 1788 2669 1403 
Q 2669 853 2319 450 
Q 1863 -75 997 -75 
Q 569 -75 414 31 
Q 259 138 259 259 
Q 259 350 332 419 
Q 406 488 509 488 
Q 588 488 669 463 
Q 722 447 909 348 
Q 1097 250 1169 231 
Q 1284 197 1416 197 
Q 1734 197 1970 444 
Q 2206 691 2206 1028 
Q 2206 1275 2097 1509 
Q 2016 1684 1919 1775 
Q 1784 1900 1550 2001 
Q 1316 2103 1072 2103 
L 972 2103 
L 972 2197 
Q 1219 2228 1467 2375 
Q 1716 2522 1828 2728 
Q 1941 2934 1941 3181 
Q 1941 3503 1739 3701 
Q 1538 3900 1238 3900 
Q 753 3900 428 3381 
L 325 3431 
z
" transform="scale(0.015625)"/>
       </defs>
       <use xlink:href="#TimesNewRomanPSMT-33"/>
       <use xlink:href="#TimesNewRomanPSMT-30" x="50"/>
       <use xlink:href="#TimesNewRomanPSMT-30" x="100"/>
      </g>
     </g>
    </g>
   </g>
   <g id="matplotlib.axis_2">
    <g id="ytick_1">
     <g id="line2d_8">
      <defs>
       <path id="m5da1f50ef4" d="M 0 0 
L -3.5 0 
" style="stroke: #000000; stroke-width: 0.8"/>
      </defs>
      <g>
       <use xlink:href="#m5da1f50ef4" x="61.6375" y="191.329126" style="stroke: #000000; stroke-width: 0.8"/>
      </g>
     </g>
     <g id="text_8">
      <!-- 0.0 -->
      <g transform="translate(29.6375 198.272876) scale(0.2 -0.2)">
       <defs>
        <path id="TimesNewRomanPSMT-2e" d="M 800 606 
Q 947 606 1047 504 
Q 1147 403 1147 259 
Q 1147 116 1045 14 
Q 944 -88 800 -88 
Q 656 -88 554 14 
Q 453 116 453 259 
Q 453 406 554 506 
Q 656 606 800 606 
z
" transform="scale(0.015625)"/>
       </defs>
       <use xlink:href="#TimesNewRomanPSMT-30"/>
       <use xlink:href="#TimesNewRomanPSMT-2e" x="50"/>
       <use xlink:href="#TimesNewRomanPSMT-30" x="75"/>
      </g>
     </g>
    </g>
    <g id="ytick_2">
     <g id="line2d_9">
      <g>
       <use xlink:href="#m5da1f50ef4" x="61.6375" y="142.640433" style="stroke: #000000; stroke-width: 0.8"/>
      </g>
     </g>
     <g id="text_9">
      <!-- 1.0 -->
      <g transform="translate(29.6375 149.584183) scale(0.2 -0.2)">
       <use xlink:href="#TimesNewRomanPSMT-31"/>
       <use xlink:href="#TimesNewRomanPSMT-2e" x="50"/>
       <use xlink:href="#TimesNewRomanPSMT-30" x="75"/>
      </g>
     </g>
    </g>
    <g id="ytick_3">
     <g id="line2d_10">
      <g>
       <use xlink:href="#m5da1f50ef4" x="61.6375" y="93.95174" style="stroke: #000000; stroke-width: 0.8"/>
      </g>
     </g>
     <g id="text_10">
      <!-- 2.0 -->
      <g transform="translate(29.6375 100.89549) scale(0.2 -0.2)">
       <use xlink:href="#TimesNewRomanPSMT-32"/>
       <use xlink:href="#TimesNewRomanPSMT-2e" x="50"/>
       <use xlink:href="#TimesNewRomanPSMT-30" x="75"/>
      </g>
     </g>
    </g>
    <g id="ytick_4">
     <g id="line2d_11">
      <g>
       <use xlink:href="#m5da1f50ef4" x="61.6375" y="45.263047" style="stroke: #000000; stroke-width: 0.8"/>
      </g>
     </g>
     <g id="text_11">
      <!-- 3.0 -->
      <g transform="translate(29.6375 52.206797) scale(0.2 -0.2)">
       <use xlink:href="#TimesNewRomanPSMT-33"/>
       <use xlink:href="#TimesNewRomanPSMT-2e" x="50"/>
       <use xlink:href="#TimesNewRomanPSMT-30" x="75"/>
      </g>
     </g>
    </g>
    <g id="text_12">
     <!-- CPU使用率 -->
     <g transform="translate(23.059375 156.288125) rotate(-90) scale(0.2 -0.2)">
      <defs>
       <path id="SimSun-43" d="M 1725 50 
Q 1025 50 612 575 
Q 200 1100 200 2225 
Q 200 3175 637 3800 
Q 1075 4425 1825 4425 
Q 2000 4425 2175 4375 
Q 2350 4300 2475 4300 
Q 2575 4300 2637 4325 
Q 2700 4350 2750 4425 
L 2975 3325 
L 2825 3275 
Q 2675 3750 2425 4000 
Q 2175 4250 1775 4250 
Q 1250 4250 962 3675 
Q 675 3100 675 2250 
Q 675 1325 925 800 
Q 1175 275 1750 275 
Q 2150 275 2437 562 
Q 2725 850 2825 1325 
L 2975 1250 
Q 2850 725 2512 387 
Q 2175 50 1725 50 
z
" transform="scale(0.015625)"/>
       <path id="SimSun-50" d="M 950 2100 
L 950 450 
Q 950 350 1012 300 
Q 1075 250 1175 250 
L 1350 250 
L 1350 100 
L 150 100 
L 150 250 
L 325 250 
Q 450 250 500 300 
Q 550 350 550 450 
L 550 4025 
Q 550 4125 500 4175 
Q 450 4225 325 4225 
L 175 4225 
L 175 4375 
L 1650 4375 
Q 2275 4375 2612 4062 
Q 2950 3750 2950 3275 
Q 2950 2700 2587 2400 
Q 2225 2100 1725 2100 
L 950 2100 
z
M 1575 2250 
Q 1950 2250 2237 2475 
Q 2525 2700 2525 3250 
Q 2525 3750 2287 3987 
Q 2050 4225 1525 4225 
L 1175 4225 
Q 1075 4225 1012 4175 
Q 950 4125 950 4025 
L 950 2250 
L 1575 2250 
z
" transform="scale(0.015625)"/>
       <path id="SimSun-55" d="M 1625 250 
Q 2000 250 2262 500 
Q 2525 750 2525 1125 
L 2525 4025 
Q 2525 4125 2475 4175 
Q 2425 4225 2300 4225 
L 2150 4225 
L 2150 4375 
L 3050 4375 
L 3050 4225 
L 2900 4225 
Q 2800 4225 2737 4175 
Q 2675 4125 2675 4025 
L 2675 1125 
Q 2675 625 2337 337 
Q 2000 50 1575 50 
Q 1125 50 787 300 
Q 450 550 450 1100 
L 450 4025 
Q 450 4125 400 4175 
Q 350 4225 225 4225 
L 100 4225 
L 100 4375 
L 1200 4375 
L 1200 4225 
L 1075 4225 
Q 975 4225 912 4175 
Q 850 4125 850 4025 
L 850 1100 
Q 850 600 1062 425 
Q 1275 250 1625 250 
z
" transform="scale(0.015625)"/>
       <path id="SimSun-4f7f" d="M 2875 3150 
L 2875 2100 
L 3825 2100 
Q 3850 2825 3850 3150 
L 2875 3150 
z
M 4175 3150 
Q 4175 2800 4150 2100 
L 5150 2100 
L 5150 3150 
L 4175 3150 
z
M 5475 3100 
L 5475 2425 
Q 5475 2100 5500 1800 
L 5150 1675 
L 5150 1950 
L 4150 1950 
Q 4125 1175 3875 600 
Q 4275 275 4875 75 
Q 5475 -125 6075 -150 
L 6075 -250 
Q 5700 -300 5600 -575 
Q 4525 -325 3725 350 
Q 3425 25 2925 -225 
Q 2425 -475 1875 -650 
L 1825 -550 
Q 2400 -325 2850 -25 
Q 3300 275 3500 575 
Q 3200 925 2825 1650 
L 2900 1700 
Q 3325 1100 3625 825 
Q 3800 1300 3825 1950 
L 2875 1950 
L 2875 1825 
L 2525 1675 
Q 2550 2075 2550 2562 
Q 2550 3050 2525 3500 
L 2875 3300 
L 3850 3300 
L 3850 4025 
L 2975 4025 
Q 2650 4025 2375 3950 
L 2150 4175 
L 3850 4175 
L 3850 4525 
Q 3850 4775 3825 5225 
L 4350 5000 
L 4175 4825 
L 4175 4175 
L 5300 4175 
L 5600 4475 
L 6050 4025 
L 4175 4025 
L 4175 3300 
L 5100 3300 
L 5275 3525 
L 5650 3225 
L 5475 3100 
z
M 1675 3175 
L 1675 -450 
L 1325 -625 
Q 1350 -75 1350 350 
L 1350 3200 
Q 900 2475 350 1900 
L 275 1950 
Q 700 2525 1112 3400 
Q 1525 4275 1800 5250 
L 2325 4925 
L 2125 4800 
Q 1725 3925 1500 3525 
L 1875 3325 
L 1675 3175 
z
" transform="scale(0.015625)"/>
       <path id="SimSun-7528" d="M 3400 3150 
L 3400 1825 
L 5075 1825 
L 5075 3150 
L 3400 3150 
z
M 4075 100 
Q 4725 50 4900 62 
Q 5075 75 5075 400 
L 5075 1675 
L 3400 1675 
Q 3400 75 3425 -225 
L 3050 -400 
Q 3075 1025 3075 1675 
L 1425 1675 
Q 1250 350 375 -600 
L 300 -550 
Q 775 225 950 1025 
Q 1125 1825 1125 3225 
Q 1125 4625 1100 5075 
L 1475 4825 
L 5050 4825 
L 5225 5100 
L 5625 4800 
L 5425 4600 
L 5425 225 
Q 5450 -400 4875 -575 
Q 4825 -150 4075 -25 
L 4075 100 
z
M 1475 4675 
L 1475 3300 
L 3075 3300 
L 3075 4675 
L 1475 4675 
z
M 3400 4675 
L 3400 3300 
L 5075 3300 
L 5075 4675 
L 3400 4675 
z
M 1475 3150 
Q 1450 2100 1425 1825 
L 3075 1825 
L 3075 3150 
L 1475 3150 
z
" transform="scale(0.015625)"/>
       <path id="SimSun-7387" d="M 875 3725 
L 925 3800 
Q 1375 3650 1550 3525 
Q 1725 3400 1725 3250 
Q 1725 3175 1662 3025 
Q 1600 2875 1550 2875 
Q 1500 2875 1425 3050 
Q 1275 3325 875 3725 
z
M 550 1850 
Q 875 1925 2000 2575 
L 2050 2500 
Q 1675 2225 1337 1937 
Q 1000 1650 875 1425 
L 550 1850 
z
M 5200 3450 
Q 4800 3150 4275 2800 
L 4225 2875 
Q 4775 3400 5050 3925 
L 5450 3525 
L 5200 3450 
z
M 4325 2500 
L 4350 2575 
Q 5225 2350 5375 2212 
Q 5525 2075 5525 1900 
Q 5525 1775 5487 1662 
Q 5450 1550 5400 1550 
Q 5325 1550 5200 1800 
Q 4975 2150 4325 2500 
z
M 3150 3900 
Q 2500 3300 2300 3150 
Q 2800 3150 3400 3175 
Q 3700 3500 3850 3825 
L 4250 3450 
Q 4050 3400 3450 2825 
Q 2850 2250 2475 1950 
Q 3150 1975 3850 2000 
Q 3750 2175 3550 2450 
L 3600 2500 
Q 4050 2250 4200 2100 
Q 4350 1950 4350 1850 
Q 4350 1775 4250 1625 
Q 4150 1475 4100 1475 
Q 4075 1475 4050 1550 
Q 4000 1700 3900 1900 
Q 3650 1875 3075 1800 
L 3500 1550 
L 3325 1425 
L 3325 975 
L 5325 975 
L 5650 1300 
L 6100 825 
L 3325 825 
Q 3325 -275 3350 -525 
L 2975 -650 
Q 3000 0 3000 825 
L 1125 825 
Q 800 825 525 750 
L 300 975 
L 3000 975 
L 3000 1775 
Q 2450 1700 2200 1525 
L 1950 1950 
Q 2275 1950 2675 2350 
Q 3075 2750 3325 3050 
Q 2400 2950 2150 2775 
L 1950 3175 
Q 2150 3150 2475 3575 
Q 2800 4000 2900 4225 
L 1450 4225 
Q 1125 4225 850 4150 
L 625 4375 
L 3100 4375 
Q 3050 4800 2675 5200 
L 2725 5250 
Q 3225 5050 3337 4912 
Q 3450 4775 3450 4700 
Q 3450 4550 3250 4375 
L 5025 4375 
L 5350 4675 
L 5775 4225 
L 3050 4225 
L 3375 3950 
L 3150 3900 
z
" transform="scale(0.015625)"/>
      </defs>
      <use xlink:href="#SimSun-43"/>
      <use xlink:href="#SimSun-50" x="50"/>
      <use xlink:href="#SimSun-55" x="100"/>
      <use xlink:href="#SimSun-4f7f" x="150"/>
      <use xlink:href="#SimSun-7528" x="250"/>
      <use xlink:href="#SimSun-7387" x="350"/>
     </g>
    </g>
   </g>
   <g id="line2d_12">
    <path d="M 105.768031 132.026295 
L 108.84333 136.203788 
L 111.918628 138.745336 
L 114.993926 137.985794 
L 118.069225 136.934117 
L 121.144523 142.747549 
L 124.219821 140.614984 
L 127.29512 140.731839 
L 130.370418 144.178996 
L 133.445716 145.581231 
L 136.521015 143.945289 
L 139.596313 145.639658 
L 142.671612 169.448427 
L 145.74691 139.650945 
L 148.822208 139.417241 
L 151.897507 140.352062 
L 154.972805 141.637448 
L 158.048103 141.783509 
L 161.123402 144.558767 
L 164.1987 159.593837 
L 167.273998 162.544368 
L 170.349297 166.049956 
L 173.424595 170.139805 
L 176.499893 171.347288 
L 179.575192 168.951801 
L 182.65049 170.354036 
L 185.725788 171.425188 
L 188.801087 173.411686 
L 191.876385 172.983227 
L 194.951683 174.59969 
L 198.026982 175.748742 
L 201.10228 178.105277 
L 204.177579 179.682789 
L 207.252877 184.464026 
L 210.328175 178.124753 
L 213.403474 184.629566 
L 216.478772 177.287305 
L 219.55407 183.918709 
L 222.629369 176.878321 
L 225.704667 180.76368 
L 228.779965 173.216934 
L 231.855264 174.969727 
L 234.930562 174.551002 
L 238.00586 175.46635 
L 241.081159 175.583202 
L 244.156457 176.479075 
L 247.231755 176.352483 
L 250.307054 177.209404 
L 253.382352 177.170453 
L 256.45765 177.267832 
L 259.532949 175.135264 
L 262.608247 176.644618 
L 265.683546 175.885073 
L 268.758844 177.959213 
L 271.834142 177.472323 
L 274.909441 178.426623 
L 277.984739 177.637863 
L 281.060037 181.912733 
L 284.135336 182.730705 
L 287.210634 184.483493 
L 290.285932 178.300032 
L 293.361231 179.195905 
L 296.436529 171.522564 
L 299.511827 178.338981 
L 302.587126 181.026602 
L 308.737722 182.010109 
L 311.813021 181.464798 
L 314.888319 180.344955 
L 317.963617 181.571913 
L 321.038916 180.218364 
L 324.114214 176.946485 
L 327.189513 179.293282 
L 330.264811 184.941173 
L 333.340109 182.944936 
L 336.415408 184.580875 
L 339.490706 185.729927 
L 342.566004 186.041534 
L 345.641303 185.97337 
L 348.716601 185.535175 
L 351.791899 179.244594 
L 354.867198 184.113461 
L 357.942496 179.50751 
L 361.017794 175.962973 
L 364.093093 178.300032 
L 367.168391 177.910522 
L 370.243689 179.410134 
L 373.318988 177.657342 
L 376.394286 174.521789 
L 379.469584 175.592941 
L 382.544883 175.398186 
L 385.620181 175.359235 
L 388.69548 175.846121 
L 391.770778 174.151755 
L 394.846076 173.353261 
L 397.921375 172.885851 
L 400.996673 171.736795 
L 404.071971 171.561516 
L 407.14727 169.906099 
L 410.222568 158.931669 
L 413.297866 158.785601 
L 416.373165 171.71732 
L 419.448463 170.568267 
L 422.523761 170.724071 
L 425.59906 159.993084 
L 428.674358 155.990874 
L 431.749656 155.601364 
L 434.824955 157.12045 
L 437.900253 147.889075 
L 440.975551 137.050972 
L 444.05085 139.563308 
L 447.126148 140.653936 
L 450.201447 142.990992 
L 453.276745 143.614206 
L 456.352043 148.132518 
L 459.427342 148.950487 
L 462.50264 145.289099 
L 465.577938 151.014888 
L 468.653237 146.496579 
L 471.728535 147.665107 
L 474.803833 139.874915 
L 477.879132 128.520714 
L 480.95443 115.228701 
L 484.029728 108.071459 
L 487.105027 73.336951 
L 490.180325 105.15014 
L 493.255623 112.98902 
L 496.330922 117.760509 
L 499.40622 102.715702 
L 502.481518 106.367356 
L 505.556817 96.288802 
L 508.632115 106.416047 
L 511.707414 93.124034 
L 514.782712 76.949648 
L 517.85801 69.159464 
L 520.933309 75.411085 
L 524.008607 84.116629 
L 527.083905 83.29865 
L 530.159204 86.054435 
L 533.234502 93.085088 
L 536.3098 67.581944 
L 539.385099 88.323333 
L 542.460397 80.9616 
L 545.535695 81.370583 
L 548.610994 84.467187 
L 551.686292 78.215555 
L 554.76159 79.442516 
L 557.836889 88.927069 
L 560.912187 97.554703 
L 563.987485 93.124034 
L 567.062784 81.438747 
L 570.138082 75.002102 
L 573.213381 73.483018 
L 576.288679 75.002102 
L 579.363977 78.916672 
L 582.439276 78.15713 
L 585.514574 151.248595 
L 588.589872 74.651543 
L 591.665171 73.833577 
L 594.740469 83.707645 
L 597.815767 91.419926 
L 600.891066 86.745813 
L 603.966364 90.309825 
L 607.041662 111.333603 
L 610.116961 108.022774 
L 613.192259 106.123913 
L 616.267557 105.637027 
L 619.342856 109.775567 
L 622.418154 107.487196 
L 625.493452 100.865538 
L 628.568751 82.130125 
L 631.644049 85.343578 
L 634.719348 98.392148 
L 637.794646 108.12015 
L 640.869944 105.734403 
L 643.945243 106.367356 
L 647.020541 99.891759 
L 650.095839 116.640669 
L 653.171138 118.003952 
L 656.246436 116.68936 
L 659.321734 105.296207 
L 662.397033 87.592998 
L 665.472331 96.386172 
L 668.547629 110.700649 
L 671.622928 105.296207 
L 674.698226 108.412284 
L 677.773524 114.693123 
L 680.848823 113.427216 
L 683.924121 112.696886 
L 686.999419 114.400995 
L 690.074718 117.127555 
L 693.150016 115.472144 
L 696.225315 105.052764 
L 699.300613 91.595211 
L 702.375911 94.574954 
L 705.45121 93.464853 
L 708.526508 94.750233 
L 711.601806 93.406429 
L 714.677105 87.739065 
L 717.752403 85.226729 
L 720.827701 79.793063 
L 723.903 84.233478 
L 726.978298 74.768392 
L 730.053596 77.689711 
L 733.128895 79.267231 
L 736.204193 75.527946 
L 739.279491 85.869422 
L 742.35479 93.640139 
L 745.430088 107.477463 
L 748.505386 110.603273 
L 751.580685 105.929161 
L 754.655983 99.443825 
L 757.731282 106.260241 
L 760.80658 117.127555 
L 763.881878 112.307376 
L 766.957177 114.011484 
L 770.032475 107.828022 
L 773.107773 108.899171 
L 776.183072 90.718808 
L 779.25837 99.258806 
L 782.333668 101.40111 
L 785.408967 104.127676 
L 788.484265 102.618332 
L 791.559563 108.460969 
L 794.634862 104.663254 
L 797.71016 108.071459 
L 800.785458 109.532124 
L 803.860757 106.026537 
L 806.936055 111.382294 
L 810.011353 108.217526 
L 813.086652 109.580809 
L 816.16195 109.045232 
L 819.237249 90.767505 
L 822.312547 88.849165 
L 825.387845 79.851499 
L 828.463144 85.869422 
L 831.538442 71.087531 
L 834.61374 69.071822 
L 837.689039 43.685538 
L 840.764337 46.889252 
L 843.839635 66.043381 
L 846.914934 60.79474 
L 849.990232 79.325655 
L 853.06553 67.28981 
L 856.140829 60.68763 
L 859.216127 78.215555 
L 862.291425 77.222303 
L 865.366724 82.889667 
L 868.442022 86.745813 
L 871.51732 84.700885 
L 874.592619 84.525612 
L 877.667917 89.316573 
L 880.743216 80.669466 
L 883.818514 77.222303 
L 886.893812 77.397588 
L 889.969111 72.830586 
L 893.044409 64.066617 
L 896.119707 63.112323 
L 899.195006 83.473936 
L 902.270304 78.040281 
L 905.345602 83.649221 
L 908.420901 88.206473 
L 911.496199 84.75931 
L 914.571497 89.783993 
L 917.646796 71.029107 
L 920.722094 91.38098 
L 923.797392 86.921098 
L 926.872691 89.530804 
L 929.947989 91.030421 
L 933.023287 92.101576 
L 936.098586 99.94045 
L 942.249183 98.285033 
L 945.324481 93.903055 
L 948.399779 93.659606 
L 951.475078 103.397347 
L 954.550376 105.052764 
L 957.625674 113.855678 
L 960.700973 114.167285 
L 963.776271 113.933581 
L 966.851569 113.076657 
L 969.926868 118.101334 
L 973.002166 119.308811 
L 976.077464 116.192734 
L 982.228061 130.059277 
L 985.303359 128.423332 
L 988.378658 122.61964 
L 988.378658 122.61964 
" clip-path="url(#p263e31b821)" style="fill: none; stroke: #1f77b4; stroke-width: 1.5; stroke-linecap: square"/>
   </g>
   <g id="line2d_13">
    <path d="M 548.610994 51.88301 
L 551.686292 47.991993 
L 554.76159 47.869966 
L 560.912187 47.090133 
L 563.987485 46.274546 
L 567.062784 44.973478 
L 570.138082 45.334054 
L 573.213381 46.054349 
L 576.288679 44.84538 
L 579.363977 42.538953 
L 582.439276 41.232184 
L 585.514574 41.601548 
L 588.589872 38.922553 
L 591.665171 38.294637 
L 594.740469 38.431267 
L 597.815767 37.672421 
L 603.966364 37.027 
L 607.041662 39.141288 
L 610.116961 39.939427 
L 613.192259 41.728984 
L 616.267557 40.01913 
L 619.342856 41.41166 
L 622.418154 38.19029 
L 625.493452 38.986085 
L 628.568751 36.898938 
L 631.644049 40.252433 
L 634.719348 39.363308 
L 637.794646 39.497372 
L 640.869944 39.492102 
L 643.945243 40.655879 
L 647.020541 39.717477 
L 650.095839 41.438939 
L 653.171138 41.465139 
L 656.246436 39.734158 
L 659.321734 40.529616 
L 662.397033 36.534716 
L 665.472331 38.350078 
L 668.547629 40.38998 
L 671.622928 41.726755 
L 674.698226 39.728226 
L 677.773524 38.239335 
L 680.848823 39.675466 
L 683.924121 40.879977 
L 686.999419 40.278865 
L 690.074718 40.043031 
L 693.150016 40.690066 
L 696.225315 39.535006 
L 699.300613 38.518259 
L 702.375911 39.081029 
L 705.45121 38.817625 
L 708.526508 39.572466 
L 711.601806 41.19383 
L 714.677105 40.243959 
L 717.752403 40.447383 
L 720.827701 42.292892 
L 723.903 43.50489 
L 726.978298 45.773649 
L 730.053596 46.763395 
L 733.128895 44.028192 
L 736.204193 42.062955 
L 739.279491 43.873453 
L 742.35479 44.674738 
L 745.430088 43.831373 
L 748.505386 44.852194 
L 751.580685 46.267802 
L 754.655983 46.223447 
L 757.731282 49.269079 
L 760.80658 49.407798 
L 763.881878 51.639456 
L 766.957177 50.148372 
L 770.032475 47.581744 
L 773.107773 45.962713 
L 776.183072 47.548138 
L 779.25837 49.858281 
L 782.333668 50.406935 
L 785.408967 49.58754 
L 788.484265 50.791715 
L 791.559563 50.130588 
L 794.634862 51.579105 
L 797.71016 53.509296 
L 800.785458 53.177717 
L 803.860757 51.054457 
L 806.936055 48.533856 
L 810.011353 45.000606 
L 813.086652 44.769416 
L 816.16195 45.465449 
L 819.237249 49.143988 
L 822.312547 48.592629 
L 825.387845 50.672115 
L 828.463144 50.461087 
L 831.538442 48.239667 
L 834.61374 52.360621 
L 837.689039 49.682229 
L 840.764337 51.35265 
L 843.839635 50.461436 
L 846.914934 46.413707 
L 849.990232 46.060106 
L 853.06553 47.314986 
L 856.140829 48.0788 
L 859.216127 47.577066 
L 862.291425 51.910278 
L 865.366724 46.134852 
L 868.442022 51.138176 
L 871.51732 50.657337 
L 874.592619 49.134481 
L 877.667917 48.584282 
L 880.743216 46.545124 
L 883.818514 48.38628 
L 886.893812 48.845864 
L 889.969111 52.183641 
L 893.044409 51.320774 
L 896.119707 56.646982 
L 899.195006 51.078892 
L 902.270304 54.804398 
L 905.345602 56.927868 
L 908.420901 58.623943 
L 911.496199 58.013777 
L 914.571497 59.853459 
L 917.646796 59.249967 
L 920.722094 59.576102 
L 923.797392 61.2478 
L 926.872691 62.261737 
L 929.947989 63.841684 
L 933.023287 68.099848 
L 936.098586 66.813928 
L 939.173884 68.759686 
L 942.249183 72.745926 
L 945.324481 75.906759 
L 948.399779 76.124612 
L 951.475078 75.757917 
L 954.550376 75.180231 
L 957.625674 78.161611 
L 960.700973 77.420677 
L 963.776271 80.996425 
L 966.851569 81.363595 
L 969.926868 84.033664 
L 973.002166 86.271963 
L 976.077464 87.687756 
L 979.152763 89.407861 
L 982.228061 93.729279 
L 985.303359 90.356049 
L 988.378658 91.580399 
L 988.378658 91.580399 
" clip-path="url(#p263e31b821)" style="fill: none; stroke: #ff7f0e; stroke-width: 1.5; stroke-linecap: square"/>
   </g>
   <g id="line2d_14">
    <path d="M 548.610994 193.516875 
L 548.610994 29.059375 
" clip-path="url(#p263e31b821)" style="fill: none; stroke-dasharray: 7.4,3.2; stroke-dashoffset: 0; stroke: #0000ff; stroke-width: 2"/>
   </g>
   <g id="patch_3">
    <path d="M 61.6375 193.516875 
L 61.6375 29.059375 
" style="fill: none; stroke: #000000; stroke-width: 0.8; stroke-linejoin: miter; stroke-linecap: square"/>
   </g>
   <g id="patch_4">
    <path d="M 1032.509189 193.516875 
L 1032.509189 29.059375 
" style="fill: none; stroke: #000000; stroke-width: 0.8; stroke-linejoin: miter; stroke-linecap: square"/>
   </g>
   <g id="patch_5">
    <path d="M 61.6375 193.516875 
L 1032.509189 193.516875 
" style="fill: none; stroke: #000000; stroke-width: 0.8; stroke-linejoin: miter; stroke-linecap: square"/>
   </g>
   <g id="patch_6">
    <path d="M 61.6375 29.059375 
L 1032.509189 29.059375 
" style="fill: none; stroke: #000000; stroke-width: 0.8; stroke-linejoin: miter; stroke-linecap: square"/>
   </g>
   <g id="text_13">
    <!-- 云函数ID: 28 -->
    <g transform="translate(487.073345 23.059375) scale(0.2 -0.2)">
     <defs>
      <path id="SimSun-4e91" d="M 1200 4450 
L 4500 4450 
L 4850 4800 
L 5350 4300 
L 1975 4300 
Q 1700 4300 1425 4225 
L 1200 4450 
z
M 1600 275 
Q 2300 300 4725 450 
Q 4425 975 3850 1700 
L 3925 1775 
Q 5200 725 5287 500 
Q 5375 275 5375 175 
Q 5375 0 5250 -162 
Q 5125 -325 5075 -325 
Q 5025 -325 4975 -200 
Q 4875 50 4775 300 
Q 1650 -25 1300 -300 
L 975 300 
Q 1225 350 1462 550 
Q 1700 750 2150 1462 
Q 2600 2175 2725 2600 
L 1250 2600 
Q 925 2600 650 2525 
L 425 2750 
L 5025 2750 
L 5450 3175 
L 6025 2600 
L 3250 2600 
Q 3000 2025 2500 1375 
Q 2000 725 1600 275 
z
" transform="scale(0.015625)"/>
      <path id="SimSun-51fd" d="M 3050 2275 
L 3050 3000 
Q 3050 3450 3025 3800 
L 3275 3625 
L 4450 4475 
L 1650 4475 
Q 1325 4475 1050 4400 
L 825 4625 
L 4450 4625 
L 4775 4875 
L 5150 4375 
Q 4875 4325 4550 4175 
Q 4225 4025 3400 3550 
L 3550 3450 
L 3375 3325 
L 3375 2400 
Q 4250 3225 4475 3600 
L 4875 3150 
L 4625 3125 
Q 3625 2425 3400 2275 
Q 4575 1675 4687 1487 
Q 4800 1300 4800 1150 
Q 4800 1025 4750 925 
Q 4700 825 4675 825 
Q 4575 825 4375 1150 
Q 4075 1600 3375 2150 
L 3375 725 
Q 3375 350 2875 150 
Q 2850 450 2200 650 
L 2200 750 
Q 2800 675 2925 700 
Q 3050 725 3050 850 
L 3050 2100 
Q 1850 1300 1625 1025 
L 1275 1400 
Q 1575 1475 2087 1725 
Q 2600 1975 3050 2275 
z
M 1700 3475 
L 1775 3550 
Q 2350 3200 2475 3025 
Q 2600 2850 2600 2775 
Q 2600 2650 2500 2525 
Q 2400 2400 2350 2400 
Q 2275 2400 2225 2575 
Q 2150 2875 1700 3475 
z
M 5150 0 
L 5150 2175 
Q 5150 2725 5125 3325 
L 5725 3050 
L 5500 2850 
L 5500 525 
Q 5500 100 5525 -400 
L 5150 -600 
L 5150 -150 
L 1250 -150 
L 1000 -375 
L 675 -50 
L 875 125 
L 875 2375 
Q 875 2800 850 3425 
L 1450 3150 
L 1225 2975 
L 1225 0 
L 5150 0 
z
" transform="scale(0.015625)"/>
      <path id="SimSun-6570" d="M 1875 1525 
Q 1675 1200 1500 900 
Q 1825 825 2275 725 
Q 2500 975 2725 1525 
L 1875 1525 
z
M 850 4900 
Q 1325 4600 1425 4450 
Q 1525 4300 1525 4225 
Q 1525 4100 1437 3975 
Q 1350 3850 1300 3850 
Q 1225 3850 1150 4100 
Q 1050 4450 775 4850 
L 850 4900 
z
M 3000 4975 
L 3450 4675 
Q 3250 4625 3100 4425 
Q 2925 4225 2525 3825 
L 2450 3875 
Q 2925 4625 3000 4975 
z
M 1875 5250 
L 2425 5000 
L 2225 4825 
L 2225 3675 
L 2850 3675 
L 3125 3950 
L 3550 3525 
L 2225 3525 
L 2225 3300 
Q 2800 3175 2937 3062 
Q 3075 2950 3075 2775 
Q 3075 2700 3050 2587 
Q 3025 2475 2975 2475 
Q 2925 2475 2800 2650 
Q 2600 2925 2225 3175 
L 2225 2400 
L 1925 2200 
L 2275 2050 
Q 2150 2000 1950 1675 
L 2725 1675 
L 2900 1900 
L 3275 1575 
L 3050 1450 
Q 2800 875 2600 650 
Q 3000 550 3137 437 
Q 3275 325 3275 150 
Q 3275 -25 3200 -25 
Q 3125 -25 3025 75 
Q 2750 275 2400 425 
Q 1525 -275 325 -500 
L 300 -425 
Q 1450 -50 2100 550 
Q 1600 725 1125 800 
Q 1225 950 1525 1525 
L 1200 1525 
Q 875 1525 600 1450 
L 375 1675 
L 1575 1675 
Q 1675 1925 1775 2275 
L 1900 2225 
L 1900 3250 
Q 1225 2475 350 2050 
L 300 2125 
Q 1225 2775 1700 3525 
L 1250 3525 
Q 925 3525 650 3450 
L 425 3675 
L 1900 3675 
Q 1900 4575 1875 5250 
z
M 3925 3525 
Q 4050 2075 4525 1100 
Q 4925 1950 5025 3525 
L 3925 3525 
z
M 4050 5250 
L 4625 4925 
Q 4425 4850 4325 4625 
Q 4225 4400 3950 3675 
L 5375 3675 
L 5675 3975 
L 6125 3525 
L 5400 3525 
Q 5250 1675 4750 775 
Q 5325 75 6100 -100 
L 6100 -200 
Q 5625 -275 5600 -500 
Q 4950 -50 4525 525 
Q 3700 -275 2550 -650 
L 2500 -575 
Q 3650 -50 4325 800 
Q 3850 1975 3825 3375 
Q 3575 2725 3100 2150 
L 3025 2200 
Q 3625 3200 4050 5250 
z
" transform="scale(0.015625)"/>
      <path id="SimSun-49" d="M 600 4225 
L 600 4375 
L 2600 4375 
L 2600 4225 
L 2025 4225 
Q 1925 4225 1862 4175 
Q 1800 4125 1800 4025 
L 1800 450 
Q 1800 350 1862 300 
Q 1925 250 2025 250 
L 2600 250 
L 2600 100 
L 600 100 
L 600 250 
L 1175 250 
Q 1300 250 1350 300 
Q 1400 350 1400 450 
L 1400 4025 
Q 1400 4125 1350 4175 
Q 1300 4225 1175 4225 
L 600 4225 
z
" transform="scale(0.015625)"/>
      <path id="SimSun-44" d="M 2500 2275 
Q 2500 3350 2175 3787 
Q 1850 4225 1275 4225 
Q 1100 4225 1012 4175 
Q 925 4125 925 4025 
L 925 450 
Q 925 350 1000 300 
Q 1075 250 1200 250 
Q 1750 250 2125 662 
Q 2500 1075 2500 2275 
z
M 525 4025 
Q 525 4125 475 4175 
Q 425 4225 300 4225 
L 150 4225 
L 150 4375 
L 1275 4375 
Q 2050 4375 2512 3875 
Q 2975 3375 2975 2325 
Q 2975 1175 2525 637 
Q 2075 100 1200 100 
L 125 100 
L 125 250 
L 300 250 
Q 425 250 475 300 
Q 525 350 525 450 
L 525 4025 
z
" transform="scale(0.015625)"/>
      <path id="SimSun-3a" d="M 1900 2725 
Q 1900 2575 1800 2475 
Q 1700 2375 1550 2375 
Q 1400 2375 1300 2475 
Q 1200 2575 1200 2725 
Q 1200 2875 1300 2975 
Q 1400 3075 1550 3075 
Q 1700 3075 1800 2975 
Q 1900 2875 1900 2725 
z
M 1900 375 
Q 1900 225 1800 125 
Q 1700 25 1550 25 
Q 1400 25 1300 125 
Q 1200 225 1200 375 
Q 1200 525 1300 625 
Q 1400 725 1550 725 
Q 1700 725 1800 625 
Q 1900 525 1900 375 
z
" transform="scale(0.015625)"/>
      <path id="SimSun-20" d="M 0 0 
Q 0 0 0 0 
z
" transform="scale(0.015625)"/>
      <path id="SimSun-32" d="M 2325 3325 
Q 2325 3775 2125 4012 
Q 1925 4250 1525 4250 
Q 1225 4250 1012 4087 
Q 800 3925 800 3675 
Q 800 3525 900 3425 
Q 975 3325 975 3225 
Q 975 3100 912 3037 
Q 850 2975 725 2975 
Q 575 2975 487 3062 
Q 400 3150 400 3350 
Q 400 3875 775 4150 
Q 1150 4425 1575 4425 
Q 2175 4425 2462 4125 
Q 2750 3825 2750 3375 
Q 2750 3075 2612 2775 
Q 2475 2475 2175 2200 
Q 1450 1500 1062 1062 
Q 675 625 600 475 
L 2075 475 
Q 2300 475 2450 650 
Q 2600 825 2650 1175 
L 2800 1175 
L 2650 100 
L 325 100 
L 325 425 
Q 450 650 737 1000 
Q 1025 1350 1500 1825 
Q 1925 2250 2125 2625 
Q 2325 3000 2325 3325 
z
" transform="scale(0.015625)"/>
      <path id="SimSun-38" d="M 625 1125 
Q 625 725 887 475 
Q 1150 225 1550 225 
Q 2025 225 2237 475 
Q 2450 725 2450 1100 
Q 2450 1425 2150 1725 
Q 1850 2025 1250 2275 
Q 950 2075 787 1775 
Q 625 1475 625 1125 
z
M 2825 1175 
Q 2825 700 2475 375 
Q 2125 50 1550 50 
Q 1025 50 650 375 
Q 275 700 275 1125 
Q 275 1550 487 1850 
Q 700 2150 1100 2375 
Q 750 2550 562 2812 
Q 375 3075 375 3400 
Q 375 3825 700 4125 
Q 1025 4425 1600 4425 
Q 2125 4425 2450 4125 
Q 2775 3825 2775 3400 
Q 2775 3100 2587 2837 
Q 2400 2575 2000 2375 
Q 2425 2125 2625 1825 
Q 2825 1525 2825 1175 
z
M 2425 3375 
Q 2425 3725 2225 3987 
Q 2025 4250 1600 4250 
Q 1125 4250 925 4000 
Q 725 3750 725 3475 
Q 725 3200 1012 2937 
Q 1300 2675 1825 2475 
Q 2125 2625 2275 2850 
Q 2425 3075 2425 3375 
z
" transform="scale(0.015625)"/>
     </defs>
     <use xlink:href="#SimSun-4e91"/>
     <use xlink:href="#SimSun-51fd" x="100"/>
     <use xlink:href="#SimSun-6570" x="200"/>
     <use xlink:href="#SimSun-49" x="300"/>
     <use xlink:href="#SimSun-44" x="350"/>
     <use xlink:href="#SimSun-3a" x="400"/>
     <use xlink:href="#SimSun-20" x="450"/>
     <use xlink:href="#SimSun-32" x="500"/>
     <use xlink:href="#SimSun-38" x="550"/>
    </g>
   </g>
   <g id="legend_1">
    <g id="patch_7">
     <path d="M 75.6375 101.934375 
L 199.6375 101.934375 
Q 203.6375 101.934375 203.6375 97.934375 
L 203.6375 43.059375 
Q 203.6375 39.059375 199.6375 39.059375 
L 75.6375 39.059375 
Q 71.6375 39.059375 71.6375 43.059375 
L 71.6375 97.934375 
Q 71.6375 101.934375 75.6375 101.934375 
z
" style="fill: #ffffff; opacity: 0.8; stroke: #cccccc; stroke-linejoin: miter"/>
    </g>
    <g id="line2d_15">
     <path d="M 79.6375 55.996875 
L 99.6375 55.996875 
L 119.6375 55.996875 
" style="fill: none; stroke: #1f77b4; stroke-width: 1.5; stroke-linecap: square"/>
    </g>
    <g id="text_14">
     <!-- 真实值 -->
     <g transform="translate(135.6375 62.996875) scale(0.2 -0.2)">
      <defs>
       <path id="SimSun-771f" d="M 2050 3450 
L 2050 2900 
L 4300 2900 
L 4300 3450 
L 2050 3450 
z
M 2050 2750 
L 2050 2225 
L 4300 2225 
L 4300 2750 
L 2050 2750 
z
M 2050 2075 
L 2050 1550 
L 4300 1550 
L 4300 2075 
L 2050 2075 
z
M 2050 1400 
L 2050 875 
L 4300 875 
L 4300 1400 
L 2050 1400 
z
M 2875 3600 
L 2925 4325 
L 1525 4325 
Q 1200 4325 925 4250 
L 700 4475 
L 2950 4475 
Q 2975 4825 2975 5275 
L 3550 5025 
L 3375 4925 
L 3300 4475 
L 5000 4475 
L 5325 4825 
L 5775 4325 
L 3275 4325 
L 3200 3600 
L 4275 3600 
L 4450 3875 
L 4850 3575 
L 4650 3375 
L 4650 875 
L 5300 875 
L 5675 1225 
L 6125 725 
L 1150 725 
Q 825 725 550 650 
L 325 875 
L 1700 875 
Q 1700 3200 1675 3775 
L 2050 3600 
L 2875 3600 
z
M 2425 725 
L 2825 350 
L 2575 300 
Q 1500 -425 800 -650 
L 775 -575 
Q 1950 125 2425 725 
z
M 3800 700 
Q 4575 375 4962 200 
Q 5350 25 5400 -112 
Q 5450 -250 5450 -325 
Q 5450 -400 5400 -525 
Q 5350 -650 5325 -650 
Q 5250 -650 5100 -450 
Q 4875 -150 3750 625 
L 3800 700 
z
" transform="scale(0.015625)"/>
       <path id="SimSun-5b9e" d="M 1950 3625 
Q 2575 3400 2700 3250 
Q 2825 3100 2825 2975 
Q 2825 2850 2750 2700 
Q 2675 2550 2625 2550 
Q 2550 2550 2450 2800 
Q 2275 3175 1900 3550 
L 1950 3625 
z
M 3575 1325 
Q 3500 1100 3425 925 
Q 4650 550 5087 325 
Q 5525 100 5512 -225 
Q 5500 -550 5400 -550 
Q 5300 -550 5075 -300 
Q 4625 175 3375 800 
Q 3025 175 2300 -150 
Q 1575 -475 425 -625 
L 425 -525 
Q 1475 -325 2200 100 
Q 2925 525 3200 1325 
L 1225 1325 
Q 900 1325 625 1250 
L 400 1475 
L 3225 1475 
Q 3325 1950 3375 2575 
Q 3425 3200 3425 3700 
L 4050 3400 
L 3850 3225 
Q 3750 2300 3625 1475 
L 5175 1475 
L 5550 1850 
L 6075 1325 
L 3575 1325 
z
M 1275 2700 
Q 1975 2425 2100 2262 
Q 2225 2100 2225 1975 
Q 2225 1850 2150 1700 
Q 2075 1550 2025 1550 
Q 1950 1550 1850 1800 
Q 1675 2175 1225 2625 
L 1275 2700 
z
M 2750 5225 
L 2825 5275 
Q 3225 5100 3425 4925 
Q 3625 4750 3625 4600 
Q 3625 4450 3512 4300 
Q 3400 4150 3325 4150 
Q 3250 4150 3200 4400 
Q 3100 4775 2750 5225 
z
M 4975 3225 
L 5350 3925 
L 1175 3925 
Q 1225 3525 1125 3300 
Q 1025 3075 787 3100 
Q 550 3125 550 3200 
Q 550 3300 700 3475 
Q 975 3825 1050 4375 
L 1150 4375 
L 1175 4075 
L 5300 4075 
L 5575 4350 
L 6050 3800 
Q 5625 3825 5050 3175 
L 4975 3225 
z
" transform="scale(0.015625)"/>
       <path id="SimSun-503c" d="M 1525 650 
Q 1525 -225 1550 -525 
L 1175 -650 
Q 1200 250 1200 550 
L 1200 3025 
Q 750 2300 325 1850 
L 250 1900 
Q 725 2625 1100 3525 
Q 1475 4425 1675 5200 
L 2200 4875 
L 1950 4725 
Q 1550 3800 1425 3475 
L 1725 3300 
L 1525 3150 
L 1525 650 
z
M 2875 3225 
L 2875 2475 
L 4800 2475 
L 4800 3225 
L 2875 3225 
z
M 2875 2325 
L 2875 1575 
L 4800 1575 
L 4800 2325 
L 2875 2325 
z
M 2875 1425 
L 2875 675 
L 4800 675 
L 4800 1425 
L 2875 1425 
z
M 2875 525 
L 2875 -225 
L 4800 -225 
L 4800 525 
L 2875 525 
z
M 3550 4250 
Q 3575 4825 3550 5225 
L 4125 4950 
L 3925 4800 
L 3900 4250 
L 5025 4250 
L 5350 4575 
L 5825 4100 
L 3900 4100 
L 3875 3375 
L 4750 3375 
L 4975 3625 
L 5350 3300 
L 5125 3150 
L 5125 -225 
L 5350 -225 
L 5675 100 
L 6150 -375 
L 2450 -375 
Q 2125 -375 1850 -450 
L 1625 -225 
L 2550 -225 
L 2550 2550 
Q 2550 2850 2525 3575 
L 2875 3375 
L 3525 3375 
L 3550 4100 
L 2800 4100 
Q 2475 4100 2200 4025 
L 1975 4250 
L 3550 4250 
z
" transform="scale(0.015625)"/>
      </defs>
      <use xlink:href="#SimSun-771f"/>
      <use xlink:href="#SimSun-5b9e" x="100"/>
      <use xlink:href="#SimSun-503c" x="200"/>
     </g>
    </g>
    <g id="line2d_16">
     <path d="M 79.6375 84.35625 
L 99.6375 84.35625 
L 119.6375 84.35625 
" style="fill: none; stroke: #ff7f0e; stroke-width: 1.5; stroke-linecap: square"/>
    </g>
    <g id="text_15">
     <!-- 预测值 -->
     <g transform="translate(135.6375 91.35625) scale(0.2 -0.2)">
      <defs>
       <path id="SimSun-9884" d="M 475 4825 
L 2225 4825 
L 2425 5075 
L 2825 4675 
Q 2600 4625 2387 4412 
Q 2175 4200 1800 3750 
Q 2050 3575 2037 3400 
Q 2025 3225 1937 3150 
Q 1850 3075 1825 3075 
Q 1725 3075 1650 3300 
Q 1525 3600 1050 4100 
L 1100 4150 
Q 1475 3975 1700 3825 
L 2225 4675 
L 1300 4675 
Q 975 4675 700 4600 
L 475 4825 
z
M 725 100 
Q 1175 50 1362 37 
Q 1550 25 1550 275 
L 1550 2875 
L 1125 2875 
Q 800 2875 525 2800 
L 300 3025 
L 2525 3025 
L 2725 3275 
L 3150 2875 
Q 2800 2825 2275 2075 
L 2200 2125 
L 2550 2875 
L 1875 2875 
L 1875 150 
Q 1875 -400 1350 -500 
Q 1325 -175 725 0 
L 725 100 
z
M 3250 775 
Q 3275 1425 3275 2287 
Q 3275 3150 3250 3900 
L 3600 3700 
L 4050 3700 
Q 4175 4400 4200 4675 
L 3650 4675 
Q 3325 4675 3050 4600 
L 2825 4825 
L 5325 4825 
L 5675 5150 
L 6125 4675 
L 4675 4675 
Q 4500 4425 4175 3700 
L 5300 3700 
L 5475 3975 
L 5875 3675 
L 5675 3475 
L 5675 1950 
Q 5675 1525 5700 1075 
L 5350 875 
L 5350 3550 
L 3600 3550 
L 3600 1000 
L 3250 775 
z
M 4850 2875 
L 4625 2675 
Q 4625 1475 4475 937 
Q 4325 400 3900 50 
Q 3475 -300 2425 -625 
L 2400 -550 
Q 3500 -50 3837 400 
Q 4175 850 4237 1587 
Q 4300 2325 4275 3175 
L 4850 2875 
z
M 4650 950 
Q 5725 375 5875 212 
Q 6025 50 6025 -125 
Q 6025 -225 5962 -387 
Q 5900 -550 5850 -550 
Q 5800 -550 5750 -450 
Q 5625 -250 5437 0 
Q 5250 250 4600 875 
L 4650 950 
z
" transform="scale(0.015625)"/>
       <path id="SimSun-6d4b" d="M 1975 1000 
Q 2000 1475 2000 2925 
Q 2000 4375 1975 5000 
L 2350 4775 
L 3575 4775 
L 3775 4975 
L 4100 4650 
L 3900 4500 
L 3900 2350 
Q 3900 1850 3925 1350 
L 3600 1200 
L 3600 4625 
L 2325 4625 
L 2325 1150 
L 1975 1000 
z
M 2775 3975 
L 3300 3700 
L 3125 3525 
Q 3150 1825 2875 937 
Q 2600 50 1375 -600 
L 1325 -500 
Q 2200 100 2475 725 
Q 2750 1350 2775 2187 
Q 2800 3025 2775 3975 
z
M 3100 950 
Q 3825 450 3937 262 
Q 4050 75 4050 -25 
Q 4050 -150 3975 -262 
Q 3900 -375 3850 -375 
Q 3750 -375 3650 -75 
Q 3500 375 3050 875 
L 3100 950 
z
M 4475 825 
Q 4500 1200 4500 1700 
L 4500 3400 
Q 4500 3950 4475 4300 
L 5025 4025 
L 4825 3825 
L 4825 1700 
Q 4825 1325 4850 950 
L 4475 825 
z
M 5375 150 
L 5375 4050 
Q 5375 4750 5350 5125 
L 5875 4875 
L 5700 4700 
L 5700 75 
Q 5700 -200 5600 -350 
Q 5500 -500 5200 -600 
Q 5025 -225 4450 -50 
L 4450 50 
Q 5125 -50 5250 -37 
Q 5375 -25 5375 150 
z
M 1850 3500 
Q 1375 1525 1300 1225 
Q 1200 900 1212 450 
Q 1225 0 1250 -175 
Q 1250 -275 1125 -275 
Q 1025 -275 875 -225 
Q 725 -175 725 0 
Q 725 125 800 375 
Q 875 625 875 775 
Q 875 950 762 1050 
Q 650 1150 275 1250 
L 275 1350 
Q 725 1300 837 1312 
Q 950 1325 1087 1537 
Q 1225 1750 1750 3525 
L 1850 3500 
z
M 375 3775 
Q 1075 3350 1112 3100 
Q 1150 2850 1050 2775 
Q 950 2700 900 2700 
Q 800 2700 725 2975 
Q 600 3350 325 3700 
L 375 3775 
z
M 800 5100 
Q 1475 4725 1550 4512 
Q 1625 4300 1525 4187 
Q 1425 4075 1350 4075 
Q 1275 4075 1200 4300 
Q 1075 4650 750 5025 
L 800 5100 
z
" transform="scale(0.015625)"/>
      </defs>
      <use xlink:href="#SimSun-9884"/>
      <use xlink:href="#SimSun-6d4b" x="100"/>
      <use xlink:href="#SimSun-503c" x="200"/>
     </g>
    </g>
   </g>
  </g>
  <g id="axes_2">
   <g id="patch_8">
    <path d="M 61.6375 426.316875 
L 1032.509189 426.316875 
L 1032.509189 261.859375 
L 61.6375 261.859375 
z
" style="fill: #ffffff"/>
   </g>
   <g id="matplotlib.axis_3">
    <g id="xtick_8">
     <g id="line2d_17">
      <g>
       <use xlink:href="#m9a00778e56" x="105.768031" y="426.316875" style="stroke: #000000; stroke-width: 0.8"/>
      </g>
     </g>
     <g id="text_16">
      <!-- 0 -->
      <g transform="translate(100.768031 447.204375) scale(0.2 -0.2)">
       <use xlink:href="#TimesNewRomanPSMT-30"/>
      </g>
     </g>
    </g>
    <g id="xtick_9">
     <g id="line2d_18">
      <g>
       <use xlink:href="#m9a00778e56" x="259.532949" y="426.316875" style="stroke: #000000; stroke-width: 0.8"/>
      </g>
     </g>
     <g id="text_17">
      <!-- 50 -->
      <g transform="translate(249.532949 447.204375) scale(0.2 -0.2)">
       <use xlink:href="#TimesNewRomanPSMT-35"/>
       <use xlink:href="#TimesNewRomanPSMT-30" x="50"/>
      </g>
     </g>
    </g>
    <g id="xtick_10">
     <g id="line2d_19">
      <g>
       <use xlink:href="#m9a00778e56" x="413.297866" y="426.316875" style="stroke: #000000; stroke-width: 0.8"/>
      </g>
     </g>
     <g id="text_18">
      <!-- 100 -->
      <g transform="translate(398.297866 447.204375) scale(0.2 -0.2)">
       <use xlink:href="#TimesNewRomanPSMT-31"/>
       <use xlink:href="#TimesNewRomanPSMT-30" x="50"/>
       <use xlink:href="#TimesNewRomanPSMT-30" x="100"/>
      </g>
     </g>
    </g>
    <g id="xtick_11">
     <g id="line2d_20">
      <g>
       <use xlink:href="#m9a00778e56" x="567.062784" y="426.316875" style="stroke: #000000; stroke-width: 0.8"/>
      </g>
     </g>
     <g id="text_19">
      <!-- 150 -->
      <g transform="translate(552.062784 447.204375) scale(0.2 -0.2)">
       <use xlink:href="#TimesNewRomanPSMT-31"/>
       <use xlink:href="#TimesNewRomanPSMT-35" x="50"/>
       <use xlink:href="#TimesNewRomanPSMT-30" x="100"/>
      </g>
     </g>
    </g>
    <g id="xtick_12">
     <g id="line2d_21">
      <g>
       <use xlink:href="#m9a00778e56" x="720.827701" y="426.316875" style="stroke: #000000; stroke-width: 0.8"/>
      </g>
     </g>
     <g id="text_20">
      <!-- 200 -->
      <g transform="translate(705.827701 447.204375) scale(0.2 -0.2)">
       <use xlink:href="#TimesNewRomanPSMT-32"/>
       <use xlink:href="#TimesNewRomanPSMT-30" x="50"/>
       <use xlink:href="#TimesNewRomanPSMT-30" x="100"/>
      </g>
     </g>
    </g>
    <g id="xtick_13">
     <g id="line2d_22">
      <g>
       <use xlink:href="#m9a00778e56" x="874.592619" y="426.316875" style="stroke: #000000; stroke-width: 0.8"/>
      </g>
     </g>
     <g id="text_21">
      <!-- 250 -->
      <g transform="translate(859.592619 447.204375) scale(0.2 -0.2)">
       <use xlink:href="#TimesNewRomanPSMT-32"/>
       <use xlink:href="#TimesNewRomanPSMT-35" x="50"/>
       <use xlink:href="#TimesNewRomanPSMT-30" x="100"/>
      </g>
     </g>
    </g>
    <g id="xtick_14">
     <g id="line2d_23">
      <g>
       <use xlink:href="#m9a00778e56" x="1028.357536" y="426.316875" style="stroke: #000000; stroke-width: 0.8"/>
      </g>
     </g>
     <g id="text_22">
      <!-- 300 -->
      <g transform="translate(1013.357536 447.204375) scale(0.2 -0.2)">
       <use xlink:href="#TimesNewRomanPSMT-33"/>
       <use xlink:href="#TimesNewRomanPSMT-30" x="50"/>
       <use xlink:href="#TimesNewRomanPSMT-30" x="100"/>
      </g>
     </g>
    </g>
   </g>
   <g id="matplotlib.axis_4">
    <g id="ytick_5">
     <g id="line2d_24">
      <g>
       <use xlink:href="#m5da1f50ef4" x="61.6375" y="370.497091" style="stroke: #000000; stroke-width: 0.8"/>
      </g>
     </g>
     <g id="text_23">
      <!-- 0.5 -->
      <g transform="translate(29.6375 377.440841) scale(0.2 -0.2)">
       <use xlink:href="#TimesNewRomanPSMT-30"/>
       <use xlink:href="#TimesNewRomanPSMT-2e" x="50"/>
       <use xlink:href="#TimesNewRomanPSMT-35" x="75"/>
      </g>
     </g>
    </g>
    <g id="ytick_6">
     <g id="line2d_25">
      <g>
       <use xlink:href="#m5da1f50ef4" x="61.6375" y="311.572128" style="stroke: #000000; stroke-width: 0.8"/>
      </g>
     </g>
     <g id="text_24">
      <!-- 1.0 -->
      <g transform="translate(29.6375 318.515878) scale(0.2 -0.2)">
       <use xlink:href="#TimesNewRomanPSMT-31"/>
       <use xlink:href="#TimesNewRomanPSMT-2e" x="50"/>
       <use xlink:href="#TimesNewRomanPSMT-30" x="75"/>
      </g>
     </g>
    </g>
    <g id="text_25">
     <!-- CPU使用率 -->
     <g transform="translate(23.059375 389.088125) rotate(-90) scale(0.2 -0.2)">
      <use xlink:href="#SimSun-43"/>
      <use xlink:href="#SimSun-50" x="50"/>
      <use xlink:href="#SimSun-55" x="100"/>
      <use xlink:href="#SimSun-4f7f" x="150"/>
      <use xlink:href="#SimSun-7528" x="250"/>
      <use xlink:href="#SimSun-7387" x="350"/>
     </g>
    </g>
   </g>
   <g id="line2d_26">
    <path d="M 105.768031 306.103897 
L 108.84333 307.235247 
L 111.918628 301.012778 
L 114.993926 301.578453 
L 118.069225 295.355984 
L 121.144523 303.841168 
L 124.219821 295.92166 
L 127.29512 303.841168 
L 130.370418 305.538208 
L 133.445716 301.012778 
L 136.521015 301.578453 
L 139.596313 301.012778 
L 142.671612 291.961905 
L 145.74691 283.476708 
L 148.822208 295.92166 
L 151.897507 297.618699 
L 154.972805 295.92166 
L 158.048103 301.012778 
L 161.123402 298.184374 
L 164.1987 301.012778 
L 167.273998 303.275493 
L 170.349297 302.709818 
L 173.424595 300.447089 
L 176.499893 302.144129 
L 179.575192 301.012778 
L 182.65049 298.75005 
L 185.725788 301.012778 
L 188.801087 293.658945 
L 191.876385 297.618699 
L 194.951683 297.053024 
L 198.026982 297.053024 
L 201.10228 293.658945 
L 204.177579 290.830541 
L 207.252877 281.213993 
L 210.328175 282.345343 
L 213.403474 286.870787 
L 216.478772 282.345343 
L 219.55407 289.133501 
L 222.629369 290.830541 
L 225.704667 286.305097 
L 228.779965 290.264866 
L 231.855264 288.002137 
L 234.930562 287.436462 
L 238.00586 289.699177 
L 241.081159 293.093256 
L 244.156457 289.699177 
L 247.231755 290.264866 
L 250.307054 284.042383 
L 253.382352 290.830541 
L 256.45765 295.92166 
L 259.532949 285.739422 
L 262.608247 285.739422 
L 268.758844 284.608058 
L 271.834142 285.173747 
L 274.909441 288.567826 
L 277.984739 289.133501 
L 281.060037 286.870787 
L 284.135336 286.870787 
L 287.210634 288.567826 
L 290.285932 289.699177 
L 293.361231 290.264866 
L 296.436529 286.870787 
L 299.511827 278.951264 
L 302.587126 282.345343 
L 305.662424 280.648304 
L 308.737722 281.779668 
L 311.813021 284.042383 
L 314.888319 284.042383 
L 317.963617 290.830541 
L 321.038916 286.870787 
L 324.114214 285.739422 
L 327.189513 286.870787 
L 330.264811 289.699177 
L 333.340109 286.870787 
L 336.415408 286.870787 
L 339.490706 295.92166 
L 342.566004 295.355984 
L 345.641303 302.144129 
L 348.716601 301.578453 
L 351.791899 290.830541 
L 354.867198 269.334716 
L 357.942496 305.538208 
L 361.017794 300.447089 
L 364.093093 310.063651 
L 367.168391 307.235247 
L 370.243689 315.154763 
L 373.318988 297.618699 
L 376.394286 327.03404 
L 379.469584 328.731079 
L 382.544883 333.822191 
L 385.620181 338.347635 
L 388.69548 336.084913 
L 391.770778 327.03404 
L 394.846076 342.873071 
L 397.921375 347.964183 
L 400.996673 344.570111 
L 404.071971 350.226904 
L 407.14727 344.004428 
L 410.222568 334.953555 
L 413.297866 357.580738 
L 416.373165 360.409135 
L 419.448463 362.671856 
L 422.523761 360.974817 
L 425.59906 368.32865 
L 428.674358 366.631611 
L 431.749656 373.419769 
L 434.824955 375.116809 
L 437.900253 378.510888 
L 440.975551 380.207927 
L 444.05085 377.945205 
L 447.126148 409.05758 
L 450.201447 382.470642 
L 453.276745 385.299046 
L 456.352043 386.996078 
L 459.427342 389.824482 
L 462.50264 390.95584 
L 465.577938 391.521522 
L 468.653237 394.349919 
L 471.728535 395.481276 
L 474.803833 397.178316 
L 477.879132 399.441031 
L 484.029728 399.441031 
L 487.105027 402.269429 
L 493.255623 404.532144 
L 496.330922 405.097826 
L 499.40622 406.22919 
L 502.481518 405.663501 
L 505.556817 407.360541 
L 508.632115 408.491905 
L 511.707414 408.491905 
L 517.85801 409.62327 
L 520.933309 409.62327 
L 527.083905 411.885984 
L 530.159204 411.885984 
L 536.3098 413.017335 
L 539.385099 411.885984 
L 542.460397 413.017335 
L 545.535695 413.017335 
L 548.610994 414.148699 
L 551.686292 413.583024 
L 554.76159 415.280063 
L 557.836889 414.148699 
L 560.912187 414.148699 
L 563.987485 415.280063 
L 567.062784 415.280063 
L 570.138082 415.845739 
L 573.213381 415.280063 
L 579.363977 415.280063 
L 582.439276 415.845739 
L 585.514574 415.280063 
L 588.589872 415.845739 
L 591.665171 415.845739 
L 594.740469 415.280063 
L 597.815767 416.977103 
L 600.891066 415.845739 
L 603.966364 415.845739 
L 607.041662 415.280063 
L 622.418154 415.280063 
L 625.493452 414.714374 
L 628.568751 413.583024 
L 631.644049 410.75462 
L 637.794646 411.885984 
L 643.945243 409.62327 
L 647.020541 409.62327 
L 650.095839 406.794866 
L 653.171138 407.360541 
L 656.246436 407.360541 
L 659.321734 406.22919 
L 662.397033 403.966469 
L 665.472331 402.835104 
L 668.547629 386.430403 
L 671.622928 396.612634 
L 674.698226 392.087197 
L 677.773524 392.087197 
L 680.848823 388.127443 
L 683.924121 385.864721 
L 686.999419 373.985451 
L 690.074718 382.470642 
L 693.150016 376.248166 
L 696.225315 376.248166 
L 699.300613 370.591372 
L 702.375911 366.065936 
L 705.45121 321.377239 
L 708.526508 354.186659 
L 711.601806 341.741707 
L 714.677105 348.529865 
L 717.752403 342.307389 
L 720.827701 341.741707 
L 723.903 315.154763 
L 726.978298 341.176031 
L 730.053596 337.21627 
L 733.128895 338.91331 
L 736.204193 333.822191 
L 739.279491 330.428119 
L 742.35479 310.063651 
L 745.430088 319.680199 
L 748.505386 319.114524 
L 751.580685 323.639961 
L 754.655983 321.377239 
L 757.731282 321.942921 
L 760.80658 314.023406 
L 763.881878 327.03404 
L 766.957177 326.468358 
L 770.032475 326.468358 
L 773.107773 321.377239 
L 776.183072 317.983167 
L 779.25837 306.669572 
L 782.333668 300.447089 
L 785.408967 302.709818 
L 788.484265 301.578453 
L 791.559563 298.184374 
L 794.634862 302.709818 
L 797.71016 299.881414 
L 800.785458 309.497962 
L 803.860757 309.497962 
L 810.011353 303.841168 
L 813.086652 303.275493 
L 816.16195 289.699177 
L 819.237249 288.567826 
L 822.312547 286.870787 
L 825.387845 289.699177 
L 828.463144 296.487335 
L 831.538442 297.618699 
L 834.61374 294.22462 
L 837.689039 293.093256 
L 840.764337 284.608058 
L 843.839635 288.567826 
L 846.914934 294.22462 
L 849.990232 293.658945 
L 853.06553 294.790295 
L 856.140829 272.728795 
L 859.216127 281.213993 
L 862.291425 295.92166 
L 865.366724 297.053024 
L 868.442022 289.699177 
L 871.51732 294.790295 
L 874.592619 298.75005 
L 877.667917 298.184374 
L 880.743216 297.053024 
L 883.818514 297.618699 
L 886.893812 299.315739 
L 889.969111 371.722729 
L 893.044409 271.597431 
L 896.119707 276.122874 
L 899.195006 287.436462 
L 902.270304 286.870787 
L 905.345602 289.699177 
L 908.420901 296.487335 
L 914.571497 301.012778 
L 917.646796 301.012778 
L 920.722094 304.972533 
L 923.797392 304.972533 
L 926.872691 298.184374 
L 929.947989 296.487335 
L 933.023287 299.315739 
L 936.098586 304.406857 
L 939.173884 310.629326 
L 942.249183 307.800937 
L 945.324481 308.366612 
L 948.399779 306.669572 
L 951.475078 310.063651 
L 954.550376 309.497962 
L 957.625674 308.366612 
L 960.700973 311.760684 
L 963.776271 297.053024 
L 966.851569 290.830541 
L 969.926868 302.709818 
L 973.002166 304.406857 
L 976.077464 304.406857 
L 979.152763 307.235247 
L 982.228061 302.709818 
L 985.303359 308.932287 
L 988.378658 306.103897 
L 988.378658 306.103897 
" clip-path="url(#pf5d5d567f1)" style="fill: none; stroke: #1f77b4; stroke-width: 1.5; stroke-linecap: square"/>
   </g>
   <g id="line2d_27">
    <path d="M 548.610994 398.43508 
L 551.686292 400.031778 
L 554.76159 399.02272 
L 557.836889 401.779618 
L 560.912187 403.001843 
L 563.987485 402.730848 
L 567.062784 403.844286 
L 570.138082 400.902017 
L 573.213381 406.090641 
L 576.288679 407.183793 
L 579.363977 412.091013 
L 582.439276 412.6441 
L 585.514574 409.833103 
L 588.589872 412.638972 
L 591.665171 412.309682 
L 594.740469 410.548679 
L 597.815767 411.243083 
L 600.891066 413.499419 
L 603.966364 416.253014 
L 607.041662 415.212531 
L 610.116961 412.893579 
L 613.192259 415.947466 
L 616.267557 417.222845 
L 619.342856 416.767326 
L 622.418154 418.841534 
L 625.493452 415.100014 
L 628.568751 414.133259 
L 631.644049 414.863516 
L 634.719348 411.135553 
L 637.794646 412.388257 
L 640.869944 414.582512 
L 643.945243 415.65778 
L 647.020541 415.055044 
L 650.095839 411.411893 
L 653.171138 414.611495 
L 656.246436 413.475284 
L 659.321734 406.720871 
L 662.397033 408.992366 
L 665.472331 403.763744 
L 668.547629 398.041334 
L 674.698226 398.370589 
L 677.773524 397.196383 
L 680.848823 396.608243 
L 683.924121 395.333553 
L 686.999419 393.913156 
L 690.074718 387.873356 
L 693.150016 387.916289 
L 696.225315 386.007316 
L 699.300613 381.382049 
L 702.375911 375.622116 
L 705.45121 372.615903 
L 708.526508 371.811153 
L 711.601806 371.635831 
L 714.677105 369.079805 
L 717.752403 369.728101 
L 720.827701 368.716566 
L 723.903 362.868547 
L 726.978298 362.930945 
L 730.053596 360.7403 
L 733.128895 359.267641 
L 736.204193 358.860753 
L 739.279491 352.867665 
L 742.35479 350.445651 
L 745.430088 348.397371 
L 748.505386 348.778634 
L 751.580685 349.699372 
L 754.655983 348.592389 
L 757.731282 350.228267 
L 760.80658 349.00777 
L 763.881878 349.841672 
L 766.957177 345.180651 
L 770.032475 347.989555 
L 773.107773 345.275129 
L 776.183072 343.129883 
L 779.25837 339.138407 
L 782.333668 342.068236 
L 785.408967 341.132775 
L 788.484265 339.774937 
L 791.559563 340.686178 
L 794.634862 340.044189 
L 797.71016 342.550356 
L 800.785458 340.978273 
L 803.860757 341.75801 
L 806.936055 340.414277 
L 810.011353 340.523415 
L 813.086652 339.861646 
L 816.16195 335.91913 
L 819.237249 333.82002 
L 822.312547 336.589167 
L 825.387845 337.3695 
L 828.463144 339.422993 
L 831.538442 340.669059 
L 834.61374 336.645186 
L 837.689039 338.004998 
L 840.764337 340.946081 
L 843.839635 337.428864 
L 846.914934 338.576117 
L 849.990232 336.785119 
L 853.06553 336.133346 
L 856.140829 338.045515 
L 859.216127 337.437216 
L 862.291425 333.926033 
L 865.366724 342.746372 
L 868.442022 340.3337 
L 871.51732 342.908657 
L 874.592619 344.229097 
L 877.667917 342.762577 
L 880.743216 343.877504 
L 883.818514 345.175677 
L 886.893812 342.571717 
L 889.969111 336.602204 
L 893.044409 340.467747 
L 896.119707 337.600287 
L 899.195006 343.132229 
L 902.270304 344.664968 
L 905.345602 345.319825 
L 908.420901 342.002298 
L 911.496199 343.282081 
L 914.571497 342.570165 
L 917.646796 344.889777 
L 920.722094 341.893146 
L 923.797392 339.739941 
L 926.872691 338.705816 
L 929.947989 337.395814 
L 933.023287 339.628555 
L 936.098586 339.578134 
L 939.173884 340.637281 
L 945.324481 334.48382 
L 948.399779 336.667404 
L 951.475078 336.532459 
L 954.550376 336.022663 
L 960.700973 330.360635 
L 963.776271 330.885941 
L 966.851569 329.639475 
L 969.926868 328.790962 
L 973.002166 324.779537 
L 976.077464 326.9072 
L 979.152763 326.120291 
L 982.228061 325.568749 
L 985.303359 325.357259 
L 988.378658 324.910436 
L 988.378658 324.910436 
" clip-path="url(#pf5d5d567f1)" style="fill: none; stroke: #ff7f0e; stroke-width: 1.5; stroke-linecap: square"/>
   </g>
   <g id="line2d_28">
    <path d="M 548.610994 426.316875 
L 548.610994 261.859375 
" clip-path="url(#pf5d5d567f1)" style="fill: none; stroke-dasharray: 7.4,3.2; stroke-dashoffset: 0; stroke: #0000ff; stroke-width: 2"/>
   </g>
   <g id="patch_9">
    <path d="M 61.6375 426.316875 
L 61.6375 261.859375 
" style="fill: none; stroke: #000000; stroke-width: 0.8; stroke-linejoin: miter; stroke-linecap: square"/>
   </g>
   <g id="patch_10">
    <path d="M 1032.509189 426.316875 
L 1032.509189 261.859375 
" style="fill: none; stroke: #000000; stroke-width: 0.8; stroke-linejoin: miter; stroke-linecap: square"/>
   </g>
   <g id="patch_11">
    <path d="M 61.6375 426.316875 
L 1032.509189 426.316875 
" style="fill: none; stroke: #000000; stroke-width: 0.8; stroke-linejoin: miter; stroke-linecap: square"/>
   </g>
   <g id="patch_12">
    <path d="M 61.6375 261.859375 
L 1032.509189 261.859375 
" style="fill: none; stroke: #000000; stroke-width: 0.8; stroke-linejoin: miter; stroke-linecap: square"/>
   </g>
   <g id="text_26">
    <!-- 云函数ID: 72 -->
    <g transform="translate(487.073345 255.859375) scale(0.2 -0.2)">
     <defs>
      <path id="SimSun-37" d="M 2825 4200 
Q 2300 3350 1987 2537 
Q 1675 1725 1675 1125 
Q 1675 1025 1700 850 
Q 1700 650 1700 400 
Q 1700 200 1637 125 
Q 1575 50 1425 50 
Q 1300 50 1212 137 
Q 1125 225 1125 450 
Q 1125 925 1337 1625 
Q 1550 2325 2475 4000 
L 1225 4000 
Q 950 4000 787 3825 
Q 625 3650 550 3300 
L 400 3325 
L 575 4375 
L 2825 4375 
L 2825 4200 
z
" transform="scale(0.015625)"/>
     </defs>
     <use xlink:href="#SimSun-4e91"/>
     <use xlink:href="#SimSun-51fd" x="100"/>
     <use xlink:href="#SimSun-6570" x="200"/>
     <use xlink:href="#SimSun-49" x="300"/>
     <use xlink:href="#SimSun-44" x="350"/>
     <use xlink:href="#SimSun-3a" x="400"/>
     <use xlink:href="#SimSun-20" x="450"/>
     <use xlink:href="#SimSun-37" x="500"/>
     <use xlink:href="#SimSun-32" x="550"/>
    </g>
   </g>
  </g>
  <g id="axes_3">
   <g id="patch_13">
    <path d="M 61.6375 659.116875 
L 1032.509189 659.116875 
L 1032.509189 494.659375 
L 61.6375 494.659375 
z
" style="fill: #ffffff"/>
   </g>
   <g id="matplotlib.axis_5">
    <g id="xtick_15">
     <g id="line2d_29">
      <g>
       <use xlink:href="#m9a00778e56" x="105.768031" y="659.116875" style="stroke: #000000; stroke-width: 0.8"/>
      </g>
     </g>
     <g id="text_27">
      <!-- 0 -->
      <g transform="translate(100.768031 680.004375) scale(0.2 -0.2)">
       <use xlink:href="#TimesNewRomanPSMT-30"/>
      </g>
     </g>
    </g>
    <g id="xtick_16">
     <g id="line2d_30">
      <g>
       <use xlink:href="#m9a00778e56" x="259.532949" y="659.116875" style="stroke: #000000; stroke-width: 0.8"/>
      </g>
     </g>
     <g id="text_28">
      <!-- 50 -->
      <g transform="translate(249.532949 680.004375) scale(0.2 -0.2)">
       <use xlink:href="#TimesNewRomanPSMT-35"/>
       <use xlink:href="#TimesNewRomanPSMT-30" x="50"/>
      </g>
     </g>
    </g>
    <g id="xtick_17">
     <g id="line2d_31">
      <g>
       <use xlink:href="#m9a00778e56" x="413.297866" y="659.116875" style="stroke: #000000; stroke-width: 0.8"/>
      </g>
     </g>
     <g id="text_29">
      <!-- 100 -->
      <g transform="translate(398.297866 680.004375) scale(0.2 -0.2)">
       <use xlink:href="#TimesNewRomanPSMT-31"/>
       <use xlink:href="#TimesNewRomanPSMT-30" x="50"/>
       <use xlink:href="#TimesNewRomanPSMT-30" x="100"/>
      </g>
     </g>
    </g>
    <g id="xtick_18">
     <g id="line2d_32">
      <g>
       <use xlink:href="#m9a00778e56" x="567.062784" y="659.116875" style="stroke: #000000; stroke-width: 0.8"/>
      </g>
     </g>
     <g id="text_30">
      <!-- 150 -->
      <g transform="translate(552.062784 680.004375) scale(0.2 -0.2)">
       <use xlink:href="#TimesNewRomanPSMT-31"/>
       <use xlink:href="#TimesNewRomanPSMT-35" x="50"/>
       <use xlink:href="#TimesNewRomanPSMT-30" x="100"/>
      </g>
     </g>
    </g>
    <g id="xtick_19">
     <g id="line2d_33">
      <g>
       <use xlink:href="#m9a00778e56" x="720.827701" y="659.116875" style="stroke: #000000; stroke-width: 0.8"/>
      </g>
     </g>
     <g id="text_31">
      <!-- 200 -->
      <g transform="translate(705.827701 680.004375) scale(0.2 -0.2)">
       <use xlink:href="#TimesNewRomanPSMT-32"/>
       <use xlink:href="#TimesNewRomanPSMT-30" x="50"/>
       <use xlink:href="#TimesNewRomanPSMT-30" x="100"/>
      </g>
     </g>
    </g>
    <g id="xtick_20">
     <g id="line2d_34">
      <g>
       <use xlink:href="#m9a00778e56" x="874.592619" y="659.116875" style="stroke: #000000; stroke-width: 0.8"/>
      </g>
     </g>
     <g id="text_32">
      <!-- 250 -->
      <g transform="translate(859.592619 680.004375) scale(0.2 -0.2)">
       <use xlink:href="#TimesNewRomanPSMT-32"/>
       <use xlink:href="#TimesNewRomanPSMT-35" x="50"/>
       <use xlink:href="#TimesNewRomanPSMT-30" x="100"/>
      </g>
     </g>
    </g>
    <g id="xtick_21">
     <g id="line2d_35">
      <g>
       <use xlink:href="#m9a00778e56" x="1028.357536" y="659.116875" style="stroke: #000000; stroke-width: 0.8"/>
      </g>
     </g>
     <g id="text_33">
      <!-- 300 -->
      <g transform="translate(1013.357536 680.004375) scale(0.2 -0.2)">
       <use xlink:href="#TimesNewRomanPSMT-33"/>
       <use xlink:href="#TimesNewRomanPSMT-30" x="50"/>
       <use xlink:href="#TimesNewRomanPSMT-30" x="100"/>
      </g>
     </g>
    </g>
   </g>
   <g id="matplotlib.axis_6">
    <g id="ytick_7">
     <g id="line2d_36">
      <g>
       <use xlink:href="#m5da1f50ef4" x="61.6375" y="591.649612" style="stroke: #000000; stroke-width: 0.8"/>
      </g>
     </g>
     <g id="text_34">
      <!-- 2.0 -->
      <g transform="translate(29.6375 598.593362) scale(0.2 -0.2)">
       <use xlink:href="#TimesNewRomanPSMT-32"/>
       <use xlink:href="#TimesNewRomanPSMT-2e" x="50"/>
       <use xlink:href="#TimesNewRomanPSMT-30" x="75"/>
      </g>
     </g>
    </g>
    <g id="ytick_8">
     <g id="line2d_37">
      <g>
       <use xlink:href="#m5da1f50ef4" x="61.6375" y="518.914499" style="stroke: #000000; stroke-width: 0.8"/>
      </g>
     </g>
     <g id="text_35">
      <!-- 4.0 -->
      <g transform="translate(29.6375 525.858249) scale(0.2 -0.2)">
       <defs>
        <path id="TimesNewRomanPSMT-34" d="M 2978 1563 
L 2978 1119 
L 2409 1119 
L 2409 0 
L 1894 0 
L 1894 1119 
L 100 1119 
L 100 1519 
L 2066 4325 
L 2409 4325 
L 2409 1563 
L 2978 1563 
z
M 1894 1563 
L 1894 3666 
L 406 1563 
L 1894 1563 
z
" transform="scale(0.015625)"/>
       </defs>
       <use xlink:href="#TimesNewRomanPSMT-34"/>
       <use xlink:href="#TimesNewRomanPSMT-2e" x="50"/>
       <use xlink:href="#TimesNewRomanPSMT-30" x="75"/>
      </g>
     </g>
    </g>
    <g id="text_36">
     <!-- CPU使用率 -->
     <g transform="translate(23.059375 621.888125) rotate(-90) scale(0.2 -0.2)">
      <use xlink:href="#SimSun-43"/>
      <use xlink:href="#SimSun-50" x="50"/>
      <use xlink:href="#SimSun-55" x="100"/>
      <use xlink:href="#SimSun-4f7f" x="150"/>
      <use xlink:href="#SimSun-7528" x="250"/>
      <use xlink:href="#SimSun-7387" x="350"/>
     </g>
    </g>
   </g>
   <g id="line2d_38">
    <path d="M 105.768031 566.803302 
L 108.84333 565.232223 
L 111.918628 565.581349 
L 114.993926 567.501553 
L 118.069225 565.930474 
L 121.144523 567.152428 
L 124.219821 565.232223 
L 127.29512 566.279609 
L 130.370418 550.568819 
L 133.445716 562.264623 
L 136.521015 567.326995 
L 139.596313 566.97786 
L 142.671612 567.850688 
L 145.74691 569.596325 
L 148.822208 567.326995 
L 151.897507 570.643712 
L 154.972805 573.262177 
L 158.048103 573.78587 
L 161.123402 573.262177 
L 164.1987 576.229767 
L 167.273998 573.436744 
L 170.349297 577.626288 
L 173.424595 577.626288 
L 176.499893 583.037776 
L 179.575192 582.863209 
L 182.65049 586.354493 
L 185.725788 586.52906 
L 188.801087 588.100139 
L 191.876385 590.718604 
L 198.026982 597.002916 
L 201.10228 593.511632 
L 204.177579 622.838427 
L 207.252877 600.145074 
L 210.328175 601.54159 
L 213.403474 603.810921 
L 216.478772 607.302209 
L 219.55407 608.698721 
L 222.629369 611.840879 
L 225.704667 612.888265 
L 228.779965 614.633907 
L 231.855264 617.077809 
L 234.930562 619.347144 
L 238.00586 621.267348 
L 241.081159 622.314734 
L 244.156457 624.933199 
L 247.231755 626.504279 
L 250.307054 627.726227 
L 253.382352 630.170127 
L 256.45765 632.264899 
L 259.532949 631.392078 
L 265.683546 635.232492 
L 268.758844 636.105313 
L 271.834142 637.501827 
L 274.909441 637.676392 
L 277.984739 637.152699 
L 281.060037 636.105313 
L 284.135336 637.152699 
L 287.210634 638.374648 
L 290.285932 638.549213 
L 293.361231 639.596599 
L 296.436529 639.945727 
L 299.511827 640.818548 
L 302.587126 641.865934 
L 305.662424 642.215062 
L 308.737722 642.040497 
L 311.813021 643.087883 
L 314.888319 644.658962 
L 317.963617 646.404606 
L 321.038916 647.277427 
L 324.114214 647.626555 
L 327.189513 648.499376 
L 333.340109 648.499376 
L 336.415408 648.848504 
L 339.490706 649.372197 
L 345.641303 649.721327 
L 348.716601 649.721327 
L 351.791899 644.484397 
L 354.867198 651.466969 
L 357.942496 651.117841 
L 361.017794 651.466969 
L 364.093093 651.117841 
L 367.168391 651.641534 
L 370.243689 651.117841 
L 373.318988 651.117841 
L 379.469584 651.466969 
L 382.544883 651.292404 
L 385.620181 651.292404 
L 388.69548 649.721327 
L 391.770778 650.24502 
L 394.846076 649.89589 
L 397.921375 649.89589 
L 400.996673 649.546762 
L 407.14727 647.80112 
L 410.222568 647.45199 
L 413.297866 646.753734 
L 416.373165 645.880913 
L 419.448463 645.182655 
L 422.523761 643.611576 
L 425.59906 637.152699 
L 428.674358 639.422034 
L 431.749656 637.676392 
L 434.824955 636.629006 
L 437.900253 634.534234 
L 440.975551 633.312285 
L 444.05085 627.027972 
L 447.126148 627.726227 
L 450.201447 625.28233 
L 453.276745 623.711251 
L 456.352043 620.569093 
L 459.427342 620.219962 
L 462.50264 596.30466 
L 465.577938 612.015442 
L 468.653237 609.746107 
L 471.728535 607.825902 
L 474.803833 604.683744 
L 477.879132 604.858307 
L 480.95443 600.668767 
L 484.029728 600.145074 
L 487.105027 597.177483 
L 490.180325 598.748562 
L 493.255623 593.686195 
L 496.330922 591.940553 
L 499.40622 581.641265 
L 502.481518 583.386902 
L 505.556817 583.212344 
L 508.632115 583.386902 
L 511.707414 580.943004 
L 514.782712 581.117572 
L 517.85801 579.371925 
L 520.933309 584.085162 
L 524.008607 584.434288 
L 527.083905 583.561469 
L 530.159204 583.561469 
L 533.234502 578.499107 
L 536.3098 578.499107 
L 539.385099 577.451721 
L 542.460397 578.324539 
L 545.535695 577.800846 
L 548.610994 572.389358 
L 551.686292 579.721051 
L 554.76159 575.880642 
L 557.836889 581.29213 
L 560.912187 582.514083 
L 563.987485 582.863209 
L 567.062784 578.149972 
L 570.138082 581.641265 
L 573.213381 569.421758 
L 576.288679 572.563916 
L 579.363977 571.865665 
L 582.439276 577.800846 
L 585.514574 579.197358 
L 588.589872 581.466697 
L 591.665171 581.99039 
L 594.740469 579.0228 
L 597.815767 577.975414 
L 600.891066 578.499107 
L 603.966364 581.117572 
L 607.041662 583.386902 
L 610.116961 580.593879 
L 613.192259 576.578902 
L 616.267557 577.800846 
L 619.342856 582.514083 
L 622.418154 582.164958 
L 625.493452 577.800846 
L 628.568751 581.641265 
L 631.644049 584.085162 
L 634.719348 583.561469 
L 637.794646 580.593879 
L 640.869944 580.419311 
L 643.945243 581.99039 
L 647.020541 609.396981 
L 650.095839 566.105042 
L 653.171138 567.501553 
L 656.246436 573.611302 
L 659.321734 574.48413 
L 662.397033 574.48413 
L 665.472331 576.404335 
L 668.547629 579.546493 
L 671.622928 578.499107 
L 674.698226 581.815823 
L 677.773524 579.197358 
L 680.848823 582.863209 
L 683.924121 577.800846 
L 686.999419 577.277153 
L 693.150016 585.8308 
L 696.225315 584.957981 
L 699.300613 584.434288 
L 702.375911 581.99039 
L 705.45121 584.783414 
L 708.526508 584.783414 
L 711.601806 586.52906 
L 714.677105 584.434288 
L 717.752403 585.481674 
L 720.827701 576.404335 
L 723.903 573.960437 
L 726.978298 582.514083 
L 730.053596 583.212344 
L 733.128895 577.975414 
L 736.204193 577.626288 
L 739.279491 575.880642 
L 742.35479 579.371925 
L 745.430088 582.164958 
L 748.505386 586.52906 
L 751.580685 583.910595 
L 754.655983 582.688651 
L 757.731282 577.975414 
L 760.80658 578.149972 
L 766.957177 584.085162 
L 770.032475 583.910595 
L 773.107773 584.783414 
L 776.183072 582.514083 
L 782.333668 582.514083 
L 785.408967 584.085162 
L 788.484265 583.910595 
L 791.559563 582.339516 
L 794.634862 580.943004 
L 797.71016 580.943004 
L 800.785458 584.783414 
L 803.860757 576.75346 
L 806.936055 577.975414 
L 810.011353 581.815823 
L 813.086652 573.960437 
L 816.16195 578.673665 
L 819.237249 580.593879 
L 822.312547 580.768437 
L 825.387845 572.214791 
L 828.463144 575.880642 
L 831.538442 572.738484 
L 834.61374 572.738484 
L 837.689039 567.501553 
L 840.764337 573.611302 
L 843.839635 572.389358 
L 846.914934 570.469144 
L 849.990232 565.232223 
L 853.06553 566.803302 
L 856.140829 565.755916 
L 859.216127 565.057656 
L 862.291425 567.326995 
L 865.366724 565.406781 
L 868.442022 558.598781 
L 871.51732 563.486577 
L 874.592619 559.995293 
L 877.667917 556.853135 
L 880.743216 558.249647 
L 883.818514 556.504009 
L 886.893812 551.965331 
L 889.969111 558.77334 
L 893.044409 554.23467 
L 896.119707 556.154875 
L 899.195006 556.154875 
L 902.270304 552.838158 
L 905.345602 558.075088 
L 908.420901 559.995293 
L 911.496199 563.312009 
L 914.571497 559.297033 
L 917.646796 553.361851 
L 920.722094 565.755916 
L 923.797392 561.042679 
L 926.872691 564.533963 
L 929.947989 565.581349 
L 933.023287 567.501553 
L 936.098586 564.533963 
L 939.173884 566.803302 
L 942.249183 558.77334 
L 945.324481 562.788316 
L 948.399779 562.962884 
L 951.475078 566.628735 
L 954.550376 562.788316 
L 957.625674 565.930474 
L 960.700973 565.406781 
L 963.776271 563.486577 
L 966.851569 567.326995 
L 969.926868 567.326995 
L 973.002166 566.105042 
L 976.077464 563.486577 
L 979.152763 552.139898 
L 982.228061 561.74093 
L 985.303359 561.217237 
L 988.378658 562.439191 
L 988.378658 562.439191 
" clip-path="url(#p0e297b2e14)" style="fill: none; stroke: #1f77b4; stroke-width: 1.5; stroke-linecap: square"/>
   </g>
   <g id="line2d_39">
    <path d="M 548.610994 544.402944 
L 551.686292 545.093991 
L 554.76159 548.029127 
L 557.836889 546.350895 
L 560.912187 548.404724 
L 563.987485 548.421511 
L 567.062784 549.779291 
L 570.138082 550.271067 
L 573.213381 546.967504 
L 576.288679 546.926795 
L 579.363977 543.64333 
L 582.439276 545.254364 
L 585.514574 547.949833 
L 588.589872 545.655445 
L 591.665171 546.622471 
L 594.740469 546.219595 
L 597.815767 546.345728 
L 600.891066 547.247203 
L 603.966364 545.580616 
L 607.041662 546.534714 
L 610.116961 546.736646 
L 613.192259 543.195861 
L 616.267557 543.535935 
L 622.418154 546.433987 
L 625.493452 549.562228 
L 628.568751 550.203106 
L 631.644049 550.079002 
L 634.719348 552.08718 
L 637.794646 550.244214 
L 640.869944 549.698853 
L 643.945243 553.276609 
L 647.020541 548.268933 
L 650.095839 545.664774 
L 653.171138 548.82449 
L 656.246436 547.529322 
L 659.321734 549.268257 
L 662.397033 550.639025 
L 665.472331 553.716136 
L 668.547629 554.139127 
L 671.622928 556.319765 
L 674.698226 555.096789 
L 677.773524 555.008521 
L 680.848823 555.732083 
L 683.924121 554.109369 
L 686.999419 552.032884 
L 690.074718 549.098944 
L 693.150016 553.688866 
L 696.225315 554.846717 
L 699.300613 557.058284 
L 702.375911 557.120331 
L 705.45121 556.593083 
L 708.526508 556.252281 
L 711.601806 560.136382 
L 714.677105 558.851931 
L 717.752403 556.599482 
L 720.827701 557.820846 
L 723.903 558.332833 
L 726.978298 555.131628 
L 730.053596 559.005376 
L 733.128895 559.481302 
L 736.204193 560.154938 
L 739.279491 559.124832 
L 742.35479 561.794186 
L 745.430088 559.869715 
L 748.505386 561.040225 
L 751.580685 558.167422 
L 754.655983 560.616314 
L 757.731282 558.744614 
L 760.80658 556.643573 
L 763.881878 559.762875 
L 766.957177 558.417277 
L 770.032475 557.927981 
L 773.107773 558.00685 
L 776.183072 560.177516 
L 779.25837 557.967225 
L 782.333668 559.895562 
L 785.408967 556.939469 
L 788.484265 556.72291 
L 791.559563 558.195732 
L 794.634862 554.520543 
L 797.71016 551.901618 
L 800.785458 552.183693 
L 803.860757 549.279711 
L 806.936055 547.646385 
L 810.011353 547.479526 
L 816.16195 545.687197 
L 819.237249 547.303667 
L 822.312547 543.168714 
L 825.387845 543.166771 
L 828.463144 537.830076 
L 831.538442 536.417367 
L 834.61374 535.581902 
L 837.689039 530.606272 
L 840.764337 529.54575 
L 843.839635 531.191441 
L 846.914934 528.516096 
L 849.990232 528.949345 
L 853.06553 525.453327 
L 856.140829 521.251548 
L 859.216127 522.50997 
L 862.291425 522.574324 
L 865.366724 522.298284 
L 868.442022 517.714093 
L 871.51732 511.777923 
L 874.592619 510.635055 
L 877.667917 514.886959 
L 880.743216 514.231818 
L 883.818514 516.36488 
L 886.893812 514.093902 
L 889.969111 515.541198 
L 893.044409 513.24367 
L 896.119707 514.634589 
L 899.195006 510.95379 
L 902.270304 510.203722 
L 905.345602 510.773578 
L 908.420901 509.970689 
L 911.496199 504.645057 
L 914.571497 508.966032 
L 917.646796 509.936682 
L 920.722094 508.55348 
L 923.797392 510.914477 
L 926.872691 510.533851 
L 929.947989 509.15592 
L 933.023287 508.526861 
L 936.098586 509.256362 
L 939.173884 507.835164 
L 942.249183 506.186326 
L 945.324481 505.169323 
L 948.399779 506.287236 
L 951.475078 506.672059 
L 954.550376 508.823815 
L 957.625674 512.38449 
L 960.700973 507.595246 
L 963.776271 508.222242 
L 966.851569 509.542529 
L 969.926868 511.339237 
L 973.002166 509.36256 
L 976.077464 505.997132 
L 979.152763 504.174065 
L 982.228061 505.281972 
L 985.303359 502.134716 
L 988.378658 505.53344 
L 988.378658 505.53344 
" clip-path="url(#p0e297b2e14)" style="fill: none; stroke: #ff7f0e; stroke-width: 1.5; stroke-linecap: square"/>
   </g>
   <g id="line2d_40">
    <path d="M 548.610994 659.116875 
L 548.610994 494.659375 
" clip-path="url(#p0e297b2e14)" style="fill: none; stroke-dasharray: 7.4,3.2; stroke-dashoffset: 0; stroke: #0000ff; stroke-width: 2"/>
   </g>
   <g id="patch_14">
    <path d="M 61.6375 659.116875 
L 61.6375 494.659375 
" style="fill: none; stroke: #000000; stroke-width: 0.8; stroke-linejoin: miter; stroke-linecap: square"/>
   </g>
   <g id="patch_15">
    <path d="M 1032.509189 659.116875 
L 1032.509189 494.659375 
" style="fill: none; stroke: #000000; stroke-width: 0.8; stroke-linejoin: miter; stroke-linecap: square"/>
   </g>
   <g id="patch_16">
    <path d="M 61.6375 659.116875 
L 1032.509189 659.116875 
" style="fill: none; stroke: #000000; stroke-width: 0.8; stroke-linejoin: miter; stroke-linecap: square"/>
   </g>
   <g id="patch_17">
    <path d="M 61.6375 494.659375 
L 1032.509189 494.659375 
" style="fill: none; stroke: #000000; stroke-width: 0.8; stroke-linejoin: miter; stroke-linecap: square"/>
   </g>
   <g id="text_37">
    <!-- 云函数ID: 150 -->
    <g transform="translate(482.073345 488.659375) scale(0.2 -0.2)">
     <defs>
      <path id="SimSun-31" d="M 1825 4450 
L 1825 650 
Q 1825 450 1950 350 
Q 2075 250 2300 250 
L 2550 250 
L 2550 100 
L 725 100 
L 725 250 
L 950 250 
Q 1200 250 1312 350 
Q 1425 450 1425 650 
L 1425 3675 
Q 1425 3775 1362 3837 
Q 1300 3900 1175 3900 
L 725 3900 
L 725 4050 
L 950 4050 
Q 1250 4050 1437 4150 
Q 1625 4250 1725 4450 
L 1825 4450 
z
" transform="scale(0.015625)"/>
      <path id="SimSun-35" d="M 1725 2850 
Q 2200 2850 2500 2487 
Q 2800 2125 2800 1525 
Q 2800 850 2487 450 
Q 2175 50 1525 50 
Q 1075 50 725 312 
Q 375 575 375 950 
Q 375 1100 462 1212 
Q 550 1325 700 1325 
Q 850 1325 900 1225 
Q 950 1125 950 1050 
Q 950 900 875 825 
Q 800 725 800 625 
Q 800 425 1037 325 
Q 1275 225 1550 225 
Q 1950 225 2162 550 
Q 2375 875 2375 1475 
Q 2375 1975 2187 2287 
Q 2000 2600 1625 2600 
Q 1350 2600 1150 2500 
Q 950 2400 775 2075 
L 550 2100 
L 675 4375 
L 2725 4375 
L 2650 4000 
L 850 4000 
L 750 2350 
Q 1000 2700 1237 2775 
Q 1475 2850 1725 2850 
z
" transform="scale(0.015625)"/>
      <path id="SimSun-30" d="M 1600 4225 
Q 1250 4225 1012 3687 
Q 775 3150 775 2250 
Q 775 1300 1012 775 
Q 1250 250 1600 250 
Q 1975 250 2187 775 
Q 2400 1300 2400 2250 
Q 2400 3150 2200 3687 
Q 2000 4225 1600 4225 
z
M 1600 50 
Q 1050 50 675 625 
Q 300 1200 300 2250 
Q 300 3225 662 3825 
Q 1025 4425 1600 4425 
Q 2150 4425 2512 3850 
Q 2875 3275 2875 2250 
Q 2875 1225 2512 637 
Q 2150 50 1600 50 
z
" transform="scale(0.015625)"/>
     </defs>
     <use xlink:href="#SimSun-4e91"/>
     <use xlink:href="#SimSun-51fd" x="100"/>
     <use xlink:href="#SimSun-6570" x="200"/>
     <use xlink:href="#SimSun-49" x="300"/>
     <use xlink:href="#SimSun-44" x="350"/>
     <use xlink:href="#SimSun-3a" x="400"/>
     <use xlink:href="#SimSun-20" x="450"/>
     <use xlink:href="#SimSun-31" x="500"/>
     <use xlink:href="#SimSun-35" x="550"/>
     <use xlink:href="#SimSun-30" x="600"/>
    </g>
   </g>
  </g>
 </g>
 <defs>
  <clipPath id="p263e31b821">
   <rect x="61.6375" y="29.059375" width="970.871689" height="164.4575"/>
  </clipPath>
  <clipPath id="pf5d5d567f1">
   <rect x="61.6375" y="261.859375" width="970.871689" height="164.4575"/>
  </clipPath>
  <clipPath id="p0e297b2e14">
   <rect x="61.6375" y="494.659375" width="970.871689" height="164.4575"/>
  </clipPath>
 </defs>
</svg>
