<?xml version="1.0" encoding="utf-8" standalone="no"?>
<!DOCTYPE svg PUBLIC "-//W3C//DTD SVG 1.1//EN"
  "http://www.w3.org/Graphics/SVG/1.1/DTD/svg11.dtd">
<svg xmlns:xlink="http://www.w3.org/1999/xlink" width="1050.73919pt" height="690.95375pt" viewBox="0 0 1050.73919 690.95375" xmlns="http://www.w3.org/2000/svg" version="1.1">
 <metadata>
  <rdf:RDF xmlns:dc="http://purl.org/dc/elements/1.1/" xmlns:cc="http://creativecommons.org/ns#" xmlns:rdf="http://www.w3.org/1999/02/22-rdf-syntax-ns#">
   <cc:Work>
    <dc:type rdf:resource="http://purl.org/dc/dcmitype/StillImage"/>
    <dc:date>2024-05-20T22:22:56.387243</dc:date>
    <dc:format>image/svg+xml</dc:format>
    <dc:creator>
     <cc:Agent>
      <dc:title>Matplotlib v3.7.1, https://matplotlib.org/</dc:title>
     </cc:Agent>
    </dc:creator>
   </cc:Work>
  </rdf:RDF>
 </metadata>
 <defs>
  <style type="text/css">*{stroke-linejoin: round; stroke-linecap: butt}</style>
 </defs>
 <g id="figure_1">
  <g id="patch_1">
   <path d="M 0 690.95375 
L 1050.73919 690.95375 
L 1050.73919 0 
L 0 0 
z
" style="fill: #ffffff"/>
  </g>
  <g id="axes_1">
   <g id="patch_2">
    <path d="M 71.6375 134.788125 
L 1032.009534 134.788125 
L 1032.009534 29.059375 
L 71.6375 29.059375 
z
" style="fill: #ffffff"/>
   </g>
   <g id="matplotlib.axis_1">
    <g id="xtick_1">
     <g id="line2d_1">
      <defs>
       <path id="m273b4b03d9" d="M 0 0 
L 0 3.5 
" style="stroke: #000000; stroke-width: 0.8"/>
      </defs>
      <g>
       <use xlink:href="#m273b4b03d9" x="115.290774" y="134.788125" style="stroke: #000000; stroke-width: 0.8"/>
      </g>
     </g>
     <g id="text_1">
      <!-- 0 -->
      <g transform="translate(110.290774 155.675625) scale(0.2 -0.2)">
       <defs>
        <path id="TimesNewRomanPSMT-30" d="M 231 2094 
Q 231 2819 450 3342 
Q 669 3866 1031 4122 
Q 1313 4325 1613 4325 
Q 2100 4325 2488 3828 
Q 2972 3213 2972 2159 
Q 2972 1422 2759 906 
Q 2547 391 2217 158 
Q 1888 -75 1581 -75 
Q 975 -75 572 641 
Q 231 1244 231 2094 
z
M 844 2016 
Q 844 1141 1059 588 
Q 1238 122 1591 122 
Q 1759 122 1940 273 
Q 2122 425 2216 781 
Q 2359 1319 2359 2297 
Q 2359 3022 2209 3506 
Q 2097 3866 1919 4016 
Q 1791 4119 1609 4119 
Q 1397 4119 1231 3928 
Q 1006 3669 925 3112 
Q 844 2556 844 2016 
z
" transform="scale(0.015625)"/>
       </defs>
       <use xlink:href="#TimesNewRomanPSMT-30"/>
      </g>
     </g>
    </g>
    <g id="xtick_2">
     <g id="line2d_2">
      <g>
       <use xlink:href="#m273b4b03d9" x="297.940457" y="134.788125" style="stroke: #000000; stroke-width: 0.8"/>
      </g>
     </g>
     <g id="text_2">
      <!-- 50 -->
      <g transform="translate(287.940457 155.675625) scale(0.2 -0.2)">
       <defs>
        <path id="TimesNewRomanPSMT-35" d="M 2778 4238 
L 2534 3706 
L 1259 3706 
L 981 3138 
Q 1809 3016 2294 2522 
Q 2709 2097 2709 1522 
Q 2709 1188 2573 903 
Q 2438 619 2231 419 
Q 2025 219 1772 97 
Q 1413 -75 1034 -75 
Q 653 -75 479 54 
Q 306 184 306 341 
Q 306 428 378 495 
Q 450 563 559 563 
Q 641 563 702 538 
Q 763 513 909 409 
Q 1144 247 1384 247 
Q 1750 247 2026 523 
Q 2303 800 2303 1197 
Q 2303 1581 2056 1914 
Q 1809 2247 1375 2428 
Q 1034 2569 447 2591 
L 1259 4238 
L 2778 4238 
z
" transform="scale(0.015625)"/>
       </defs>
       <use xlink:href="#TimesNewRomanPSMT-35"/>
       <use xlink:href="#TimesNewRomanPSMT-30" x="50"/>
      </g>
     </g>
    </g>
    <g id="xtick_3">
     <g id="line2d_3">
      <g>
       <use xlink:href="#m273b4b03d9" x="480.590141" y="134.788125" style="stroke: #000000; stroke-width: 0.8"/>
      </g>
     </g>
     <g id="text_3">
      <!-- 100 -->
      <g transform="translate(465.590141 155.675625) scale(0.2 -0.2)">
       <defs>
        <path id="TimesNewRomanPSMT-31" d="M 750 3822 
L 1781 4325 
L 1884 4325 
L 1884 747 
Q 1884 391 1914 303 
Q 1944 216 2037 169 
Q 2131 122 2419 116 
L 2419 0 
L 825 0 
L 825 116 
Q 1125 122 1212 167 
Q 1300 213 1334 289 
Q 1369 366 1369 747 
L 1369 3034 
Q 1369 3497 1338 3628 
Q 1316 3728 1258 3775 
Q 1200 3822 1119 3822 
Q 1003 3822 797 3725 
L 750 3822 
z
" transform="scale(0.015625)"/>
       </defs>
       <use xlink:href="#TimesNewRomanPSMT-31"/>
       <use xlink:href="#TimesNewRomanPSMT-30" x="50"/>
       <use xlink:href="#TimesNewRomanPSMT-30" x="100"/>
      </g>
     </g>
    </g>
    <g id="xtick_4">
     <g id="line2d_4">
      <g>
       <use xlink:href="#m273b4b03d9" x="663.239824" y="134.788125" style="stroke: #000000; stroke-width: 0.8"/>
      </g>
     </g>
     <g id="text_4">
      <!-- 150 -->
      <g transform="translate(648.239824 155.675625) scale(0.2 -0.2)">
       <use xlink:href="#TimesNewRomanPSMT-31"/>
       <use xlink:href="#TimesNewRomanPSMT-35" x="50"/>
       <use xlink:href="#TimesNewRomanPSMT-30" x="100"/>
      </g>
     </g>
    </g>
    <g id="xtick_5">
     <g id="line2d_5">
      <g>
       <use xlink:href="#m273b4b03d9" x="845.889507" y="134.788125" style="stroke: #000000; stroke-width: 0.8"/>
      </g>
     </g>
     <g id="text_5">
      <!-- 200 -->
      <g transform="translate(830.889507 155.675625) scale(0.2 -0.2)">
       <defs>
        <path id="TimesNewRomanPSMT-32" d="M 2934 816 
L 2638 0 
L 138 0 
L 138 116 
Q 1241 1122 1691 1759 
Q 2141 2397 2141 2925 
Q 2141 3328 1894 3587 
Q 1647 3847 1303 3847 
Q 991 3847 742 3664 
Q 494 3481 375 3128 
L 259 3128 
Q 338 3706 661 4015 
Q 984 4325 1469 4325 
Q 1984 4325 2329 3994 
Q 2675 3663 2675 3213 
Q 2675 2891 2525 2569 
Q 2294 2063 1775 1497 
Q 997 647 803 472 
L 1909 472 
Q 2247 472 2383 497 
Q 2519 522 2628 598 
Q 2738 675 2819 816 
L 2934 816 
z
" transform="scale(0.015625)"/>
       </defs>
       <use xlink:href="#TimesNewRomanPSMT-32"/>
       <use xlink:href="#TimesNewRomanPSMT-30" x="50"/>
       <use xlink:href="#TimesNewRomanPSMT-30" x="100"/>
      </g>
     </g>
    </g>
    <g id="xtick_6">
     <g id="line2d_6">
      <g>
       <use xlink:href="#m273b4b03d9" x="1028.53919" y="134.788125" style="stroke: #000000; stroke-width: 0.8"/>
      </g>
     </g>
     <g id="text_6">
      <!-- 250 -->
      <g transform="translate(1013.53919 155.675625) scale(0.2 -0.2)">
       <use xlink:href="#TimesNewRomanPSMT-32"/>
       <use xlink:href="#TimesNewRomanPSMT-35" x="50"/>
       <use xlink:href="#TimesNewRomanPSMT-30" x="100"/>
      </g>
     </g>
    </g>
   </g>
   <g id="matplotlib.axis_2">
    <g id="ytick_1">
     <g id="line2d_7">
      <defs>
       <path id="m593efb55fe" d="M 0 0 
L -3.5 0 
" style="stroke: #000000; stroke-width: 0.8"/>
      </defs>
      <g>
       <use xlink:href="#m593efb55fe" x="71.6375" y="133.552391" style="stroke: #000000; stroke-width: 0.8"/>
      </g>
     </g>
     <g id="text_7">
      <!-- 0.0 -->
      <g transform="translate(39.6375 140.496141) scale(0.2 -0.2)">
       <defs>
        <path id="TimesNewRomanPSMT-2e" d="M 800 606 
Q 947 606 1047 504 
Q 1147 403 1147 259 
Q 1147 116 1045 14 
Q 944 -88 800 -88 
Q 656 -88 554 14 
Q 453 116 453 259 
Q 453 406 554 506 
Q 656 606 800 606 
z
" transform="scale(0.015625)"/>
       </defs>
       <use xlink:href="#TimesNewRomanPSMT-30"/>
       <use xlink:href="#TimesNewRomanPSMT-2e" x="50"/>
       <use xlink:href="#TimesNewRomanPSMT-30" x="75"/>
      </g>
     </g>
    </g>
    <g id="ytick_2">
     <g id="line2d_8">
      <g>
       <use xlink:href="#m593efb55fe" x="71.6375" y="67.804358" style="stroke: #000000; stroke-width: 0.8"/>
      </g>
     </g>
     <g id="text_8">
      <!-- 2.0 -->
      <g transform="translate(39.6375 74.748108) scale(0.2 -0.2)">
       <use xlink:href="#TimesNewRomanPSMT-32"/>
       <use xlink:href="#TimesNewRomanPSMT-2e" x="50"/>
       <use xlink:href="#TimesNewRomanPSMT-30" x="75"/>
      </g>
     </g>
    </g>
    <g id="text_9">
     <!-- CPU使用率 -->
     <g transform="translate(33.059375 126.92375) rotate(-90) scale(0.2 -0.2)">
      <defs>
       <path id="SimSun-43" d="M 1725 50 
Q 1025 50 612 575 
Q 200 1100 200 2225 
Q 200 3175 637 3800 
Q 1075 4425 1825 4425 
Q 2000 4425 2175 4375 
Q 2350 4300 2475 4300 
Q 2575 4300 2637 4325 
Q 2700 4350 2750 4425 
L 2975 3325 
L 2825 3275 
Q 2675 3750 2425 4000 
Q 2175 4250 1775 4250 
Q 1250 4250 962 3675 
Q 675 3100 675 2250 
Q 675 1325 925 800 
Q 1175 275 1750 275 
Q 2150 275 2437 562 
Q 2725 850 2825 1325 
L 2975 1250 
Q 2850 725 2512 387 
Q 2175 50 1725 50 
z
" transform="scale(0.015625)"/>
       <path id="SimSun-50" d="M 950 2100 
L 950 450 
Q 950 350 1012 300 
Q 1075 250 1175 250 
L 1350 250 
L 1350 100 
L 150 100 
L 150 250 
L 325 250 
Q 450 250 500 300 
Q 550 350 550 450 
L 550 4025 
Q 550 4125 500 4175 
Q 450 4225 325 4225 
L 175 4225 
L 175 4375 
L 1650 4375 
Q 2275 4375 2612 4062 
Q 2950 3750 2950 3275 
Q 2950 2700 2587 2400 
Q 2225 2100 1725 2100 
L 950 2100 
z
M 1575 2250 
Q 1950 2250 2237 2475 
Q 2525 2700 2525 3250 
Q 2525 3750 2287 3987 
Q 2050 4225 1525 4225 
L 1175 4225 
Q 1075 4225 1012 4175 
Q 950 4125 950 4025 
L 950 2250 
L 1575 2250 
z
" transform="scale(0.015625)"/>
       <path id="SimSun-55" d="M 1625 250 
Q 2000 250 2262 500 
Q 2525 750 2525 1125 
L 2525 4025 
Q 2525 4125 2475 4175 
Q 2425 4225 2300 4225 
L 2150 4225 
L 2150 4375 
L 3050 4375 
L 3050 4225 
L 2900 4225 
Q 2800 4225 2737 4175 
Q 2675 4125 2675 4025 
L 2675 1125 
Q 2675 625 2337 337 
Q 2000 50 1575 50 
Q 1125 50 787 300 
Q 450 550 450 1100 
L 450 4025 
Q 450 4125 400 4175 
Q 350 4225 225 4225 
L 100 4225 
L 100 4375 
L 1200 4375 
L 1200 4225 
L 1075 4225 
Q 975 4225 912 4175 
Q 850 4125 850 4025 
L 850 1100 
Q 850 600 1062 425 
Q 1275 250 1625 250 
z
" transform="scale(0.015625)"/>
       <path id="SimSun-4f7f" d="M 2875 3150 
L 2875 2100 
L 3825 2100 
Q 3850 2825 3850 3150 
L 2875 3150 
z
M 4175 3150 
Q 4175 2800 4150 2100 
L 5150 2100 
L 5150 3150 
L 4175 3150 
z
M 5475 3100 
L 5475 2425 
Q 5475 2100 5500 1800 
L 5150 1675 
L 5150 1950 
L 4150 1950 
Q 4125 1175 3875 600 
Q 4275 275 4875 75 
Q 5475 -125 6075 -150 
L 6075 -250 
Q 5700 -300 5600 -575 
Q 4525 -325 3725 350 
Q 3425 25 2925 -225 
Q 2425 -475 1875 -650 
L 1825 -550 
Q 2400 -325 2850 -25 
Q 3300 275 3500 575 
Q 3200 925 2825 1650 
L 2900 1700 
Q 3325 1100 3625 825 
Q 3800 1300 3825 1950 
L 2875 1950 
L 2875 1825 
L 2525 1675 
Q 2550 2075 2550 2562 
Q 2550 3050 2525 3500 
L 2875 3300 
L 3850 3300 
L 3850 4025 
L 2975 4025 
Q 2650 4025 2375 3950 
L 2150 4175 
L 3850 4175 
L 3850 4525 
Q 3850 4775 3825 5225 
L 4350 5000 
L 4175 4825 
L 4175 4175 
L 5300 4175 
L 5600 4475 
L 6050 4025 
L 4175 4025 
L 4175 3300 
L 5100 3300 
L 5275 3525 
L 5650 3225 
L 5475 3100 
z
M 1675 3175 
L 1675 -450 
L 1325 -625 
Q 1350 -75 1350 350 
L 1350 3200 
Q 900 2475 350 1900 
L 275 1950 
Q 700 2525 1112 3400 
Q 1525 4275 1800 5250 
L 2325 4925 
L 2125 4800 
Q 1725 3925 1500 3525 
L 1875 3325 
L 1675 3175 
z
" transform="scale(0.015625)"/>
       <path id="SimSun-7528" d="M 3400 3150 
L 3400 1825 
L 5075 1825 
L 5075 3150 
L 3400 3150 
z
M 4075 100 
Q 4725 50 4900 62 
Q 5075 75 5075 400 
L 5075 1675 
L 3400 1675 
Q 3400 75 3425 -225 
L 3050 -400 
Q 3075 1025 3075 1675 
L 1425 1675 
Q 1250 350 375 -600 
L 300 -550 
Q 775 225 950 1025 
Q 1125 1825 1125 3225 
Q 1125 4625 1100 5075 
L 1475 4825 
L 5050 4825 
L 5225 5100 
L 5625 4800 
L 5425 4600 
L 5425 225 
Q 5450 -400 4875 -575 
Q 4825 -150 4075 -25 
L 4075 100 
z
M 1475 4675 
L 1475 3300 
L 3075 3300 
L 3075 4675 
L 1475 4675 
z
M 3400 4675 
L 3400 3300 
L 5075 3300 
L 5075 4675 
L 3400 4675 
z
M 1475 3150 
Q 1450 2100 1425 1825 
L 3075 1825 
L 3075 3150 
L 1475 3150 
z
" transform="scale(0.015625)"/>
       <path id="SimSun-7387" d="M 875 3725 
L 925 3800 
Q 1375 3650 1550 3525 
Q 1725 3400 1725 3250 
Q 1725 3175 1662 3025 
Q 1600 2875 1550 2875 
Q 1500 2875 1425 3050 
Q 1275 3325 875 3725 
z
M 550 1850 
Q 875 1925 2000 2575 
L 2050 2500 
Q 1675 2225 1337 1937 
Q 1000 1650 875 1425 
L 550 1850 
z
M 5200 3450 
Q 4800 3150 4275 2800 
L 4225 2875 
Q 4775 3400 5050 3925 
L 5450 3525 
L 5200 3450 
z
M 4325 2500 
L 4350 2575 
Q 5225 2350 5375 2212 
Q 5525 2075 5525 1900 
Q 5525 1775 5487 1662 
Q 5450 1550 5400 1550 
Q 5325 1550 5200 1800 
Q 4975 2150 4325 2500 
z
M 3150 3900 
Q 2500 3300 2300 3150 
Q 2800 3150 3400 3175 
Q 3700 3500 3850 3825 
L 4250 3450 
Q 4050 3400 3450 2825 
Q 2850 2250 2475 1950 
Q 3150 1975 3850 2000 
Q 3750 2175 3550 2450 
L 3600 2500 
Q 4050 2250 4200 2100 
Q 4350 1950 4350 1850 
Q 4350 1775 4250 1625 
Q 4150 1475 4100 1475 
Q 4075 1475 4050 1550 
Q 4000 1700 3900 1900 
Q 3650 1875 3075 1800 
L 3500 1550 
L 3325 1425 
L 3325 975 
L 5325 975 
L 5650 1300 
L 6100 825 
L 3325 825 
Q 3325 -275 3350 -525 
L 2975 -650 
Q 3000 0 3000 825 
L 1125 825 
Q 800 825 525 750 
L 300 975 
L 3000 975 
L 3000 1775 
Q 2450 1700 2200 1525 
L 1950 1950 
Q 2275 1950 2675 2350 
Q 3075 2750 3325 3050 
Q 2400 2950 2150 2775 
L 1950 3175 
Q 2150 3150 2475 3575 
Q 2800 4000 2900 4225 
L 1450 4225 
Q 1125 4225 850 4150 
L 625 4375 
L 3100 4375 
Q 3050 4800 2675 5200 
L 2725 5250 
Q 3225 5050 3337 4912 
Q 3450 4775 3450 4700 
Q 3450 4550 3250 4375 
L 5025 4375 
L 5350 4675 
L 5775 4225 
L 3050 4225 
L 3375 3950 
L 3150 3900 
z
" transform="scale(0.015625)"/>
      </defs>
      <use xlink:href="#SimSun-43"/>
      <use xlink:href="#SimSun-50" x="50"/>
      <use xlink:href="#SimSun-55" x="100"/>
      <use xlink:href="#SimSun-4f7f" x="150"/>
      <use xlink:href="#SimSun-7528" x="250"/>
      <use xlink:href="#SimSun-7387" x="350"/>
     </g>
    </g>
   </g>
   <g id="line2d_9">
    <path d="M 115.290774 123.992626 
L 118.943768 124.058375 
L 122.596762 122.618491 
L 126.249755 123.637588 
L 129.902749 123.124753 
L 133.555743 124.525187 
L 137.208736 124.196445 
L 140.86173 124.840777 
L 144.514724 124.308216 
L 148.167717 127.194556 
L 151.820711 127.746841 
L 155.473705 128.930302 
L 159.126698 124.755304 
L 162.779692 125.360187 
L 166.432686 120.17924 
L 170.085679 124.781602 
L 173.738673 126.596251 
L 181.04466 127.260303 
L 184.697654 126.892116 
L 188.350648 126.136011 
L 192.003641 126.964439 
L 195.656635 126.050538 
L 199.309629 123.841406 
L 202.962622 125.425934 
L 206.615616 129.239322 
L 210.26861 127.891487 
L 213.921603 128.996053 
L 217.574597 129.771879 
L 221.227591 129.982273 
L 224.880584 129.936249 
L 228.533578 129.640385 
L 232.186571 125.393061 
L 235.839565 128.680461 
L 239.492559 125.570579 
L 243.145552 123.17735 
L 246.798546 124.755304 
L 250.45154 124.492312 
L 254.104533 125.504831 
L 257.757527 124.321368 
L 261.410521 122.204281 
L 265.063514 122.927509 
L 272.369502 122.769713 
L 276.022495 123.098453 
L 279.675489 121.954438 
L 283.328483 121.415305 
L 286.981476 121.099715 
L 290.63447 120.323886 
L 294.287464 120.20554 
L 297.940457 119.087822 
L 301.593451 111.67802 
L 305.246445 111.579397 
L 308.899438 120.310737 
L 312.552432 119.53491 
L 316.205426 119.640107 
L 319.858419 112.394675 
L 323.511413 109.692431 
L 327.164407 109.429438 
L 330.8174 110.455107 
L 334.470394 104.222194 
L 338.123388 96.904438 
L 341.776381 98.600737 
L 345.429375 99.337116 
L 349.082369 100.915068 
L 352.735362 101.335854 
L 356.388356 104.386564 
L 360.04135 104.938847 
L 363.694343 102.466722 
L 367.347337 106.332705 
L 371.000331 103.281998 
L 374.653324 104.070974 
L 378.306318 98.81113 
L 381.959312 91.144911 
L 385.612305 82.170305 
L 389.265299 77.337822 
L 392.918293 53.885502 
L 396.571286 75.365383 
L 400.22428 80.6581 
L 403.877274 83.879751 
L 407.530267 73.72168 
L 411.183261 76.187232 
L 414.836255 69.382314 
L 418.489248 76.220108 
L 422.142242 67.245501 
L 425.795236 56.324751 
L 429.448229 51.064914 
L 433.101223 55.285933 
L 436.754217 61.16381 
L 440.40721 60.611521 
L 444.060204 62.472194 
L 447.713198 67.219206 
L 451.366191 49.999791 
L 455.019185 64.004126 
L 458.672179 59.033573 
L 462.325172 59.309714 
L 465.978166 61.400503 
L 469.63116 57.179477 
L 473.284153 58.007906 
L 476.937147 64.411761 
L 480.590141 70.237036 
L 484.243134 67.245501 
L 487.896128 59.355737 
L 491.549122 55.009792 
L 495.202115 53.984125 
L 498.855109 55.009792 
L 502.508103 57.652863 
L 506.161096 57.140029 
L 509.81409 106.490501 
L 513.467084 54.773099 
L 517.120077 54.220818 
L 520.773071 60.88767 
L 524.426065 66.094908 
L 528.079058 62.939004 
L 531.732052 65.345381 
L 535.385046 79.540382 
L 539.038039 77.30495 
L 542.691033 76.022862 
L 546.344027 75.694123 
L 549.99702 78.488415 
L 553.650014 76.943335 
L 557.303008 72.472471 
L 560.956001 59.822547 
L 564.608995 61.992232 
L 568.261989 70.802468 
L 571.914982 77.370697 
L 575.567976 75.75987 
L 579.220969 76.187232 
L 582.873963 71.814988 
L 586.526957 83.123649 
L 590.17995 84.044121 
L 593.832944 83.156524 
L 597.485938 75.464005 
L 601.138931 63.511013 
L 604.791925 69.448058 
L 608.444919 79.113019 
L 612.097912 75.464005 
L 615.750906 77.567943 
L 619.4039 81.808689 
L 623.056893 80.953964 
L 626.709887 80.460854 
L 630.362881 81.611448 
L 634.015874 83.452388 
L 637.668868 82.334675 
L 641.321862 75.299635 
L 644.974855 66.213258 
L 648.627849 68.225145 
L 652.280843 67.475618 
L 655.933836 68.343491 
L 659.58683 67.436171 
L 663.239824 63.609635 
L 666.892817 61.913337 
L 670.545811 58.244591 
L 674.198805 61.242705 
L 677.851798 54.851994 
L 681.504792 56.824433 
L 685.157786 57.889556 
L 688.810779 55.364835 
L 692.463773 62.347275 
L 696.116767 67.593969 
L 699.76976 76.936763 
L 703.422754 79.047272 
L 707.075748 75.891368 
L 710.728741 71.512547 
L 714.381735 76.114909 
L 718.034729 83.452388 
L 721.687722 80.197862 
L 725.340716 81.348455 
L 728.99371 77.173456 
L 732.646703 77.896683 
L 736.299697 65.621522 
L 739.952691 71.387625 
L 743.605684 72.834083 
L 747.258678 74.675027 
L 750.911672 73.655936 
L 754.564665 77.600814 
L 758.217659 75.036643 
L 761.870653 77.337822 
L 765.523646 78.324045 
L 769.17664 75.957115 
L 772.829634 79.573257 
L 776.482627 77.436445 
L 780.135621 78.356917 
L 783.788615 77.995301 
L 787.441608 65.654401 
L 791.094602 64.359162 
L 794.747596 58.284047 
L 798.400589 62.347275 
L 802.053583 52.366721 
L 805.706577 51.005739 
L 809.35957 33.865227 
L 813.012564 36.028336 
L 816.665558 48.960972 
L 820.318551 45.417153 
L 823.971545 57.929003 
L 827.624539 49.802546 
L 831.277532 45.344834 
L 834.930526 57.179477 
L 838.58352 56.508845 
L 842.236513 60.335381 
L 845.889507 62.939004 
L 849.542501 61.558293 
L 853.195494 61.439951 
L 856.848488 64.67475 
L 860.501482 58.836328 
L 864.154475 56.508845 
L 867.807469 56.627196 
L 871.460463 53.543611 
L 875.113456 47.626285 
L 878.76645 46.981957 
L 882.419444 60.729872 
L 886.072437 57.061134 
L 889.725431 60.848222 
L 893.378425 63.925223 
L 897.031418 61.597741 
L 900.684412 64.990346 
L 904.337406 52.327274 
L 907.990399 66.068612 
L 911.643393 63.057354 
L 915.296387 64.819396 
L 918.94938 65.831919 
L 922.602374 66.55515 
L 926.255367 71.847863 
L 933.561355 70.730145 
L 937.214348 67.771487 
L 940.867342 67.607113 
L 944.520336 74.181918 
L 948.173329 75.299635 
L 951.826323 81.243256 
L 955.479317 81.45365 
L 959.13231 81.295856 
L 962.785304 80.717271 
L 966.438298 84.109872 
L 970.091291 84.925146 
L 973.744285 82.821208 
L 981.050272 92.18373 
L 984.703266 91.07916 
L 988.35626 87.160578 
L 988.35626 87.160578 
" clip-path="url(#p6974bdb123)" style="fill: none; stroke: #1f77b4; stroke-width: 1.5; stroke-linecap: square"/>
   </g>
   <g id="line2d_10">
    <path d="M 641.321862 83.594868 
L 644.974855 82.941397 
L 648.627849 81.869542 
L 652.280843 81.596007 
L 655.933836 82.759172 
L 659.58683 85.956679 
L 663.239824 88.005243 
L 666.892817 88.604974 
L 670.545811 90.33162 
L 674.198805 90.236599 
L 677.851798 90.240745 
L 681.504792 90.749821 
L 685.157786 89.480109 
L 688.810779 90.737053 
L 692.463773 88.049871 
L 696.116767 88.945137 
L 699.76976 91.689582 
L 703.422754 94.623258 
L 707.075748 94.762664 
L 710.728741 95.794888 
L 714.381735 95.8598 
L 718.034729 97.163528 
L 721.687722 97.186116 
L 725.340716 98.068689 
L 728.99371 97.123136 
L 732.646703 97.751432 
L 736.299697 94.95059 
L 739.952691 95.94763 
L 743.605684 96.483366 
L 747.258678 98.988903 
L 750.911672 100.250652 
L 754.564665 101.259836 
L 758.217659 100.381397 
L 761.870653 101.126286 
L 765.523646 100.483939 
L 769.17664 100.703507 
L 772.829634 100.3604 
L 776.482627 100.822225 
L 780.135621 99.018334 
L 783.788615 99.1703 
L 787.441608 99.064 
L 791.094602 100.295797 
L 794.747596 101.995815 
L 798.400589 101.3241 
L 802.053583 99.613295 
L 805.706577 99.689988 
L 809.35957 100.878365 
L 813.012564 101.532365 
L 816.665558 98.87937 
L 820.318551 98.672754 
L 823.971545 96.978125 
L 827.624539 95.542672 
L 831.277532 96.891831 
L 834.930526 99.916327 
L 838.58352 100.030488 
L 842.236513 98.962956 
L 845.889507 96.326916 
L 849.542501 97.161494 
L 853.195494 96.874424 
L 856.848488 97.536002 
L 860.501482 96.342223 
L 864.154475 94.169717 
L 867.807469 93.697303 
L 871.460463 94.183076 
L 875.113456 94.921367 
L 878.76645 94.605916 
L 882.419444 96.721987 
L 886.072437 96.491823 
L 889.725431 94.593592 
L 893.378425 94.855083 
L 897.031418 94.894527 
L 900.684412 95.383804 
L 904.337406 95.385023 
L 907.990399 94.188257 
L 911.643393 93.00652 
L 915.296387 93.448101 
L 918.94938 90.754664 
L 922.602374 96.208918 
L 926.255367 97.199731 
L 929.908361 96.251689 
L 933.561355 94.578794 
L 937.214348 95.081532 
L 940.867342 95.15574 
L 944.520336 97.116728 
L 948.173329 96.26988 
L 951.826323 94.174141 
L 955.479317 92.573275 
L 959.13231 94.413507 
L 962.785304 96.139452 
L 966.438298 97.141637 
L 970.091291 98.110884 
L 973.744285 98.445298 
L 977.397279 94.498625 
L 981.050272 96.883343 
L 984.703266 96.480971 
L 988.35626 96.90311 
" clip-path="url(#p6974bdb123)" style="fill: none; stroke: #ff7f0e; stroke-width: 1.5; stroke-linecap: square"/>
   </g>
   <g id="line2d_11">
    <path d="M 641.321862 134.788125 
L 641.321862 29.059375 
" clip-path="url(#p6974bdb123)" style="fill: none; stroke-dasharray: 7.4,3.2; stroke-dashoffset: 0; stroke: #0000ff; stroke-width: 2"/>
   </g>
   <g id="patch_3">
    <path d="M 71.6375 134.788125 
L 71.6375 29.059375 
" style="fill: none; stroke: #000000; stroke-width: 0.8; stroke-linejoin: miter; stroke-linecap: square"/>
   </g>
   <g id="patch_4">
    <path d="M 1032.009534 134.788125 
L 1032.009534 29.059375 
" style="fill: none; stroke: #000000; stroke-width: 0.8; stroke-linejoin: miter; stroke-linecap: square"/>
   </g>
   <g id="patch_5">
    <path d="M 71.6375 134.788125 
L 1032.009534 134.788125 
" style="fill: none; stroke: #000000; stroke-width: 0.8; stroke-linejoin: miter; stroke-linecap: square"/>
   </g>
   <g id="patch_6">
    <path d="M 71.6375 29.059375 
L 1032.009534 29.059375 
" style="fill: none; stroke: #000000; stroke-width: 0.8; stroke-linejoin: miter; stroke-linecap: square"/>
   </g>
   <g id="text_10">
    <!-- 云函数ID: 28 -->
    <g transform="translate(491.823517 23.059375) scale(0.2 -0.2)">
     <defs>
      <path id="SimSun-4e91" d="M 1200 4450 
L 4500 4450 
L 4850 4800 
L 5350 4300 
L 1975 4300 
Q 1700 4300 1425 4225 
L 1200 4450 
z
M 1600 275 
Q 2300 300 4725 450 
Q 4425 975 3850 1700 
L 3925 1775 
Q 5200 725 5287 500 
Q 5375 275 5375 175 
Q 5375 0 5250 -162 
Q 5125 -325 5075 -325 
Q 5025 -325 4975 -200 
Q 4875 50 4775 300 
Q 1650 -25 1300 -300 
L 975 300 
Q 1225 350 1462 550 
Q 1700 750 2150 1462 
Q 2600 2175 2725 2600 
L 1250 2600 
Q 925 2600 650 2525 
L 425 2750 
L 5025 2750 
L 5450 3175 
L 6025 2600 
L 3250 2600 
Q 3000 2025 2500 1375 
Q 2000 725 1600 275 
z
" transform="scale(0.015625)"/>
      <path id="SimSun-51fd" d="M 3050 2275 
L 3050 3000 
Q 3050 3450 3025 3800 
L 3275 3625 
L 4450 4475 
L 1650 4475 
Q 1325 4475 1050 4400 
L 825 4625 
L 4450 4625 
L 4775 4875 
L 5150 4375 
Q 4875 4325 4550 4175 
Q 4225 4025 3400 3550 
L 3550 3450 
L 3375 3325 
L 3375 2400 
Q 4250 3225 4475 3600 
L 4875 3150 
L 4625 3125 
Q 3625 2425 3400 2275 
Q 4575 1675 4687 1487 
Q 4800 1300 4800 1150 
Q 4800 1025 4750 925 
Q 4700 825 4675 825 
Q 4575 825 4375 1150 
Q 4075 1600 3375 2150 
L 3375 725 
Q 3375 350 2875 150 
Q 2850 450 2200 650 
L 2200 750 
Q 2800 675 2925 700 
Q 3050 725 3050 850 
L 3050 2100 
Q 1850 1300 1625 1025 
L 1275 1400 
Q 1575 1475 2087 1725 
Q 2600 1975 3050 2275 
z
M 1700 3475 
L 1775 3550 
Q 2350 3200 2475 3025 
Q 2600 2850 2600 2775 
Q 2600 2650 2500 2525 
Q 2400 2400 2350 2400 
Q 2275 2400 2225 2575 
Q 2150 2875 1700 3475 
z
M 5150 0 
L 5150 2175 
Q 5150 2725 5125 3325 
L 5725 3050 
L 5500 2850 
L 5500 525 
Q 5500 100 5525 -400 
L 5150 -600 
L 5150 -150 
L 1250 -150 
L 1000 -375 
L 675 -50 
L 875 125 
L 875 2375 
Q 875 2800 850 3425 
L 1450 3150 
L 1225 2975 
L 1225 0 
L 5150 0 
z
" transform="scale(0.015625)"/>
      <path id="SimSun-6570" d="M 1875 1525 
Q 1675 1200 1500 900 
Q 1825 825 2275 725 
Q 2500 975 2725 1525 
L 1875 1525 
z
M 850 4900 
Q 1325 4600 1425 4450 
Q 1525 4300 1525 4225 
Q 1525 4100 1437 3975 
Q 1350 3850 1300 3850 
Q 1225 3850 1150 4100 
Q 1050 4450 775 4850 
L 850 4900 
z
M 3000 4975 
L 3450 4675 
Q 3250 4625 3100 4425 
Q 2925 4225 2525 3825 
L 2450 3875 
Q 2925 4625 3000 4975 
z
M 1875 5250 
L 2425 5000 
L 2225 4825 
L 2225 3675 
L 2850 3675 
L 3125 3950 
L 3550 3525 
L 2225 3525 
L 2225 3300 
Q 2800 3175 2937 3062 
Q 3075 2950 3075 2775 
Q 3075 2700 3050 2587 
Q 3025 2475 2975 2475 
Q 2925 2475 2800 2650 
Q 2600 2925 2225 3175 
L 2225 2400 
L 1925 2200 
L 2275 2050 
Q 2150 2000 1950 1675 
L 2725 1675 
L 2900 1900 
L 3275 1575 
L 3050 1450 
Q 2800 875 2600 650 
Q 3000 550 3137 437 
Q 3275 325 3275 150 
Q 3275 -25 3200 -25 
Q 3125 -25 3025 75 
Q 2750 275 2400 425 
Q 1525 -275 325 -500 
L 300 -425 
Q 1450 -50 2100 550 
Q 1600 725 1125 800 
Q 1225 950 1525 1525 
L 1200 1525 
Q 875 1525 600 1450 
L 375 1675 
L 1575 1675 
Q 1675 1925 1775 2275 
L 1900 2225 
L 1900 3250 
Q 1225 2475 350 2050 
L 300 2125 
Q 1225 2775 1700 3525 
L 1250 3525 
Q 925 3525 650 3450 
L 425 3675 
L 1900 3675 
Q 1900 4575 1875 5250 
z
M 3925 3525 
Q 4050 2075 4525 1100 
Q 4925 1950 5025 3525 
L 3925 3525 
z
M 4050 5250 
L 4625 4925 
Q 4425 4850 4325 4625 
Q 4225 4400 3950 3675 
L 5375 3675 
L 5675 3975 
L 6125 3525 
L 5400 3525 
Q 5250 1675 4750 775 
Q 5325 75 6100 -100 
L 6100 -200 
Q 5625 -275 5600 -500 
Q 4950 -50 4525 525 
Q 3700 -275 2550 -650 
L 2500 -575 
Q 3650 -50 4325 800 
Q 3850 1975 3825 3375 
Q 3575 2725 3100 2150 
L 3025 2200 
Q 3625 3200 4050 5250 
z
" transform="scale(0.015625)"/>
      <path id="SimSun-49" d="M 600 4225 
L 600 4375 
L 2600 4375 
L 2600 4225 
L 2025 4225 
Q 1925 4225 1862 4175 
Q 1800 4125 1800 4025 
L 1800 450 
Q 1800 350 1862 300 
Q 1925 250 2025 250 
L 2600 250 
L 2600 100 
L 600 100 
L 600 250 
L 1175 250 
Q 1300 250 1350 300 
Q 1400 350 1400 450 
L 1400 4025 
Q 1400 4125 1350 4175 
Q 1300 4225 1175 4225 
L 600 4225 
z
" transform="scale(0.015625)"/>
      <path id="SimSun-44" d="M 2500 2275 
Q 2500 3350 2175 3787 
Q 1850 4225 1275 4225 
Q 1100 4225 1012 4175 
Q 925 4125 925 4025 
L 925 450 
Q 925 350 1000 300 
Q 1075 250 1200 250 
Q 1750 250 2125 662 
Q 2500 1075 2500 2275 
z
M 525 4025 
Q 525 4125 475 4175 
Q 425 4225 300 4225 
L 150 4225 
L 150 4375 
L 1275 4375 
Q 2050 4375 2512 3875 
Q 2975 3375 2975 2325 
Q 2975 1175 2525 637 
Q 2075 100 1200 100 
L 125 100 
L 125 250 
L 300 250 
Q 425 250 475 300 
Q 525 350 525 450 
L 525 4025 
z
" transform="scale(0.015625)"/>
      <path id="SimSun-3a" d="M 1900 2725 
Q 1900 2575 1800 2475 
Q 1700 2375 1550 2375 
Q 1400 2375 1300 2475 
Q 1200 2575 1200 2725 
Q 1200 2875 1300 2975 
Q 1400 3075 1550 3075 
Q 1700 3075 1800 2975 
Q 1900 2875 1900 2725 
z
M 1900 375 
Q 1900 225 1800 125 
Q 1700 25 1550 25 
Q 1400 25 1300 125 
Q 1200 225 1200 375 
Q 1200 525 1300 625 
Q 1400 725 1550 725 
Q 1700 725 1800 625 
Q 1900 525 1900 375 
z
" transform="scale(0.015625)"/>
      <path id="SimSun-20" d="M 0 0 
Q 0 0 0 0 
z
" transform="scale(0.015625)"/>
      <path id="SimSun-32" d="M 2325 3325 
Q 2325 3775 2125 4012 
Q 1925 4250 1525 4250 
Q 1225 4250 1012 4087 
Q 800 3925 800 3675 
Q 800 3525 900 3425 
Q 975 3325 975 3225 
Q 975 3100 912 3037 
Q 850 2975 725 2975 
Q 575 2975 487 3062 
Q 400 3150 400 3350 
Q 400 3875 775 4150 
Q 1150 4425 1575 4425 
Q 2175 4425 2462 4125 
Q 2750 3825 2750 3375 
Q 2750 3075 2612 2775 
Q 2475 2475 2175 2200 
Q 1450 1500 1062 1062 
Q 675 625 600 475 
L 2075 475 
Q 2300 475 2450 650 
Q 2600 825 2650 1175 
L 2800 1175 
L 2650 100 
L 325 100 
L 325 425 
Q 450 650 737 1000 
Q 1025 1350 1500 1825 
Q 1925 2250 2125 2625 
Q 2325 3000 2325 3325 
z
" transform="scale(0.015625)"/>
      <path id="SimSun-38" d="M 625 1125 
Q 625 725 887 475 
Q 1150 225 1550 225 
Q 2025 225 2237 475 
Q 2450 725 2450 1100 
Q 2450 1425 2150 1725 
Q 1850 2025 1250 2275 
Q 950 2075 787 1775 
Q 625 1475 625 1125 
z
M 2825 1175 
Q 2825 700 2475 375 
Q 2125 50 1550 50 
Q 1025 50 650 375 
Q 275 700 275 1125 
Q 275 1550 487 1850 
Q 700 2150 1100 2375 
Q 750 2550 562 2812 
Q 375 3075 375 3400 
Q 375 3825 700 4125 
Q 1025 4425 1600 4425 
Q 2125 4425 2450 4125 
Q 2775 3825 2775 3400 
Q 2775 3100 2587 2837 
Q 2400 2575 2000 2375 
Q 2425 2125 2625 1825 
Q 2825 1525 2825 1175 
z
M 2425 3375 
Q 2425 3725 2225 3987 
Q 2025 4250 1600 4250 
Q 1125 4250 925 4000 
Q 725 3750 725 3475 
Q 725 3200 1012 2937 
Q 1300 2675 1825 2475 
Q 2125 2625 2275 2850 
Q 2425 3075 2425 3375 
z
" transform="scale(0.015625)"/>
     </defs>
     <use xlink:href="#SimSun-4e91"/>
     <use xlink:href="#SimSun-51fd" x="100"/>
     <use xlink:href="#SimSun-6570" x="200"/>
     <use xlink:href="#SimSun-49" x="300"/>
     <use xlink:href="#SimSun-44" x="350"/>
     <use xlink:href="#SimSun-3a" x="400"/>
     <use xlink:href="#SimSun-20" x="450"/>
     <use xlink:href="#SimSun-32" x="500"/>
     <use xlink:href="#SimSun-38" x="550"/>
    </g>
   </g>
   <g id="legend_1">
    <g id="patch_7">
     <path d="M 85.6375 101.934375 
L 209.6375 101.934375 
Q 213.6375 101.934375 213.6375 97.934375 
L 213.6375 43.059375 
Q 213.6375 39.059375 209.6375 39.059375 
L 85.6375 39.059375 
Q 81.6375 39.059375 81.6375 43.059375 
L 81.6375 97.934375 
Q 81.6375 101.934375 85.6375 101.934375 
z
" style="fill: #ffffff; opacity: 0.8; stroke: #cccccc; stroke-linejoin: miter"/>
    </g>
    <g id="line2d_12">
     <path d="M 89.6375 55.996875 
L 109.6375 55.996875 
L 129.6375 55.996875 
" style="fill: none; stroke: #1f77b4; stroke-width: 1.5; stroke-linecap: square"/>
    </g>
    <g id="text_11">
     <!-- 真实值 -->
     <g transform="translate(145.6375 62.996875) scale(0.2 -0.2)">
      <defs>
       <path id="SimSun-771f" d="M 2050 3450 
L 2050 2900 
L 4300 2900 
L 4300 3450 
L 2050 3450 
z
M 2050 2750 
L 2050 2225 
L 4300 2225 
L 4300 2750 
L 2050 2750 
z
M 2050 2075 
L 2050 1550 
L 4300 1550 
L 4300 2075 
L 2050 2075 
z
M 2050 1400 
L 2050 875 
L 4300 875 
L 4300 1400 
L 2050 1400 
z
M 2875 3600 
L 2925 4325 
L 1525 4325 
Q 1200 4325 925 4250 
L 700 4475 
L 2950 4475 
Q 2975 4825 2975 5275 
L 3550 5025 
L 3375 4925 
L 3300 4475 
L 5000 4475 
L 5325 4825 
L 5775 4325 
L 3275 4325 
L 3200 3600 
L 4275 3600 
L 4450 3875 
L 4850 3575 
L 4650 3375 
L 4650 875 
L 5300 875 
L 5675 1225 
L 6125 725 
L 1150 725 
Q 825 725 550 650 
L 325 875 
L 1700 875 
Q 1700 3200 1675 3775 
L 2050 3600 
L 2875 3600 
z
M 2425 725 
L 2825 350 
L 2575 300 
Q 1500 -425 800 -650 
L 775 -575 
Q 1950 125 2425 725 
z
M 3800 700 
Q 4575 375 4962 200 
Q 5350 25 5400 -112 
Q 5450 -250 5450 -325 
Q 5450 -400 5400 -525 
Q 5350 -650 5325 -650 
Q 5250 -650 5100 -450 
Q 4875 -150 3750 625 
L 3800 700 
z
" transform="scale(0.015625)"/>
       <path id="SimSun-5b9e" d="M 1950 3625 
Q 2575 3400 2700 3250 
Q 2825 3100 2825 2975 
Q 2825 2850 2750 2700 
Q 2675 2550 2625 2550 
Q 2550 2550 2450 2800 
Q 2275 3175 1900 3550 
L 1950 3625 
z
M 3575 1325 
Q 3500 1100 3425 925 
Q 4650 550 5087 325 
Q 5525 100 5512 -225 
Q 5500 -550 5400 -550 
Q 5300 -550 5075 -300 
Q 4625 175 3375 800 
Q 3025 175 2300 -150 
Q 1575 -475 425 -625 
L 425 -525 
Q 1475 -325 2200 100 
Q 2925 525 3200 1325 
L 1225 1325 
Q 900 1325 625 1250 
L 400 1475 
L 3225 1475 
Q 3325 1950 3375 2575 
Q 3425 3200 3425 3700 
L 4050 3400 
L 3850 3225 
Q 3750 2300 3625 1475 
L 5175 1475 
L 5550 1850 
L 6075 1325 
L 3575 1325 
z
M 1275 2700 
Q 1975 2425 2100 2262 
Q 2225 2100 2225 1975 
Q 2225 1850 2150 1700 
Q 2075 1550 2025 1550 
Q 1950 1550 1850 1800 
Q 1675 2175 1225 2625 
L 1275 2700 
z
M 2750 5225 
L 2825 5275 
Q 3225 5100 3425 4925 
Q 3625 4750 3625 4600 
Q 3625 4450 3512 4300 
Q 3400 4150 3325 4150 
Q 3250 4150 3200 4400 
Q 3100 4775 2750 5225 
z
M 4975 3225 
L 5350 3925 
L 1175 3925 
Q 1225 3525 1125 3300 
Q 1025 3075 787 3100 
Q 550 3125 550 3200 
Q 550 3300 700 3475 
Q 975 3825 1050 4375 
L 1150 4375 
L 1175 4075 
L 5300 4075 
L 5575 4350 
L 6050 3800 
Q 5625 3825 5050 3175 
L 4975 3225 
z
" transform="scale(0.015625)"/>
       <path id="SimSun-503c" d="M 1525 650 
Q 1525 -225 1550 -525 
L 1175 -650 
Q 1200 250 1200 550 
L 1200 3025 
Q 750 2300 325 1850 
L 250 1900 
Q 725 2625 1100 3525 
Q 1475 4425 1675 5200 
L 2200 4875 
L 1950 4725 
Q 1550 3800 1425 3475 
L 1725 3300 
L 1525 3150 
L 1525 650 
z
M 2875 3225 
L 2875 2475 
L 4800 2475 
L 4800 3225 
L 2875 3225 
z
M 2875 2325 
L 2875 1575 
L 4800 1575 
L 4800 2325 
L 2875 2325 
z
M 2875 1425 
L 2875 675 
L 4800 675 
L 4800 1425 
L 2875 1425 
z
M 2875 525 
L 2875 -225 
L 4800 -225 
L 4800 525 
L 2875 525 
z
M 3550 4250 
Q 3575 4825 3550 5225 
L 4125 4950 
L 3925 4800 
L 3900 4250 
L 5025 4250 
L 5350 4575 
L 5825 4100 
L 3900 4100 
L 3875 3375 
L 4750 3375 
L 4975 3625 
L 5350 3300 
L 5125 3150 
L 5125 -225 
L 5350 -225 
L 5675 100 
L 6150 -375 
L 2450 -375 
Q 2125 -375 1850 -450 
L 1625 -225 
L 2550 -225 
L 2550 2550 
Q 2550 2850 2525 3575 
L 2875 3375 
L 3525 3375 
L 3550 4100 
L 2800 4100 
Q 2475 4100 2200 4025 
L 1975 4250 
L 3550 4250 
z
" transform="scale(0.015625)"/>
      </defs>
      <use xlink:href="#SimSun-771f"/>
      <use xlink:href="#SimSun-5b9e" x="100"/>
      <use xlink:href="#SimSun-503c" x="200"/>
     </g>
    </g>
    <g id="line2d_13">
     <path d="M 89.6375 84.35625 
L 109.6375 84.35625 
L 129.6375 84.35625 
" style="fill: none; stroke: #ff7f0e; stroke-width: 1.5; stroke-linecap: square"/>
    </g>
    <g id="text_12">
     <!-- 预测值 -->
     <g transform="translate(145.6375 91.35625) scale(0.2 -0.2)">
      <defs>
       <path id="SimSun-9884" d="M 475 4825 
L 2225 4825 
L 2425 5075 
L 2825 4675 
Q 2600 4625 2387 4412 
Q 2175 4200 1800 3750 
Q 2050 3575 2037 3400 
Q 2025 3225 1937 3150 
Q 1850 3075 1825 3075 
Q 1725 3075 1650 3300 
Q 1525 3600 1050 4100 
L 1100 4150 
Q 1475 3975 1700 3825 
L 2225 4675 
L 1300 4675 
Q 975 4675 700 4600 
L 475 4825 
z
M 725 100 
Q 1175 50 1362 37 
Q 1550 25 1550 275 
L 1550 2875 
L 1125 2875 
Q 800 2875 525 2800 
L 300 3025 
L 2525 3025 
L 2725 3275 
L 3150 2875 
Q 2800 2825 2275 2075 
L 2200 2125 
L 2550 2875 
L 1875 2875 
L 1875 150 
Q 1875 -400 1350 -500 
Q 1325 -175 725 0 
L 725 100 
z
M 3250 775 
Q 3275 1425 3275 2287 
Q 3275 3150 3250 3900 
L 3600 3700 
L 4050 3700 
Q 4175 4400 4200 4675 
L 3650 4675 
Q 3325 4675 3050 4600 
L 2825 4825 
L 5325 4825 
L 5675 5150 
L 6125 4675 
L 4675 4675 
Q 4500 4425 4175 3700 
L 5300 3700 
L 5475 3975 
L 5875 3675 
L 5675 3475 
L 5675 1950 
Q 5675 1525 5700 1075 
L 5350 875 
L 5350 3550 
L 3600 3550 
L 3600 1000 
L 3250 775 
z
M 4850 2875 
L 4625 2675 
Q 4625 1475 4475 937 
Q 4325 400 3900 50 
Q 3475 -300 2425 -625 
L 2400 -550 
Q 3500 -50 3837 400 
Q 4175 850 4237 1587 
Q 4300 2325 4275 3175 
L 4850 2875 
z
M 4650 950 
Q 5725 375 5875 212 
Q 6025 50 6025 -125 
Q 6025 -225 5962 -387 
Q 5900 -550 5850 -550 
Q 5800 -550 5750 -450 
Q 5625 -250 5437 0 
Q 5250 250 4600 875 
L 4650 950 
z
" transform="scale(0.015625)"/>
       <path id="SimSun-6d4b" d="M 1975 1000 
Q 2000 1475 2000 2925 
Q 2000 4375 1975 5000 
L 2350 4775 
L 3575 4775 
L 3775 4975 
L 4100 4650 
L 3900 4500 
L 3900 2350 
Q 3900 1850 3925 1350 
L 3600 1200 
L 3600 4625 
L 2325 4625 
L 2325 1150 
L 1975 1000 
z
M 2775 3975 
L 3300 3700 
L 3125 3525 
Q 3150 1825 2875 937 
Q 2600 50 1375 -600 
L 1325 -500 
Q 2200 100 2475 725 
Q 2750 1350 2775 2187 
Q 2800 3025 2775 3975 
z
M 3100 950 
Q 3825 450 3937 262 
Q 4050 75 4050 -25 
Q 4050 -150 3975 -262 
Q 3900 -375 3850 -375 
Q 3750 -375 3650 -75 
Q 3500 375 3050 875 
L 3100 950 
z
M 4475 825 
Q 4500 1200 4500 1700 
L 4500 3400 
Q 4500 3950 4475 4300 
L 5025 4025 
L 4825 3825 
L 4825 1700 
Q 4825 1325 4850 950 
L 4475 825 
z
M 5375 150 
L 5375 4050 
Q 5375 4750 5350 5125 
L 5875 4875 
L 5700 4700 
L 5700 75 
Q 5700 -200 5600 -350 
Q 5500 -500 5200 -600 
Q 5025 -225 4450 -50 
L 4450 50 
Q 5125 -50 5250 -37 
Q 5375 -25 5375 150 
z
M 1850 3500 
Q 1375 1525 1300 1225 
Q 1200 900 1212 450 
Q 1225 0 1250 -175 
Q 1250 -275 1125 -275 
Q 1025 -275 875 -225 
Q 725 -175 725 0 
Q 725 125 800 375 
Q 875 625 875 775 
Q 875 950 762 1050 
Q 650 1150 275 1250 
L 275 1350 
Q 725 1300 837 1312 
Q 950 1325 1087 1537 
Q 1225 1750 1750 3525 
L 1850 3500 
z
M 375 3775 
Q 1075 3350 1112 3100 
Q 1150 2850 1050 2775 
Q 950 2700 900 2700 
Q 800 2700 725 2975 
Q 600 3350 325 3700 
L 375 3775 
z
M 800 5100 
Q 1475 4725 1550 4512 
Q 1625 4300 1525 4187 
Q 1425 4075 1350 4075 
Q 1275 4075 1200 4300 
Q 1075 4650 750 5025 
L 800 5100 
z
" transform="scale(0.015625)"/>
      </defs>
      <use xlink:href="#SimSun-9884"/>
      <use xlink:href="#SimSun-6d4b" x="100"/>
      <use xlink:href="#SimSun-503c" x="200"/>
     </g>
    </g>
   </g>
  </g>
  <g id="axes_2">
   <g id="patch_8">
    <path d="M 71.6375 309.388125 
L 1032.009534 309.388125 
L 1032.009534 203.659375 
L 71.6375 203.659375 
z
" style="fill: #ffffff"/>
   </g>
   <g id="matplotlib.axis_3">
    <g id="xtick_7">
     <g id="line2d_14">
      <g>
       <use xlink:href="#m273b4b03d9" x="115.290774" y="309.388125" style="stroke: #000000; stroke-width: 0.8"/>
      </g>
     </g>
     <g id="text_13">
      <!-- 0 -->
      <g transform="translate(110.290774 330.275625) scale(0.2 -0.2)">
       <use xlink:href="#TimesNewRomanPSMT-30"/>
      </g>
     </g>
    </g>
    <g id="xtick_8">
     <g id="line2d_15">
      <g>
       <use xlink:href="#m273b4b03d9" x="297.940457" y="309.388125" style="stroke: #000000; stroke-width: 0.8"/>
      </g>
     </g>
     <g id="text_14">
      <!-- 50 -->
      <g transform="translate(287.940457 330.275625) scale(0.2 -0.2)">
       <use xlink:href="#TimesNewRomanPSMT-35"/>
       <use xlink:href="#TimesNewRomanPSMT-30" x="50"/>
      </g>
     </g>
    </g>
    <g id="xtick_9">
     <g id="line2d_16">
      <g>
       <use xlink:href="#m273b4b03d9" x="480.590141" y="309.388125" style="stroke: #000000; stroke-width: 0.8"/>
      </g>
     </g>
     <g id="text_15">
      <!-- 100 -->
      <g transform="translate(465.590141 330.275625) scale(0.2 -0.2)">
       <use xlink:href="#TimesNewRomanPSMT-31"/>
       <use xlink:href="#TimesNewRomanPSMT-30" x="50"/>
       <use xlink:href="#TimesNewRomanPSMT-30" x="100"/>
      </g>
     </g>
    </g>
    <g id="xtick_10">
     <g id="line2d_17">
      <g>
       <use xlink:href="#m273b4b03d9" x="663.239824" y="309.388125" style="stroke: #000000; stroke-width: 0.8"/>
      </g>
     </g>
     <g id="text_16">
      <!-- 150 -->
      <g transform="translate(648.239824 330.275625) scale(0.2 -0.2)">
       <use xlink:href="#TimesNewRomanPSMT-31"/>
       <use xlink:href="#TimesNewRomanPSMT-35" x="50"/>
       <use xlink:href="#TimesNewRomanPSMT-30" x="100"/>
      </g>
     </g>
    </g>
    <g id="xtick_11">
     <g id="line2d_18">
      <g>
       <use xlink:href="#m273b4b03d9" x="845.889507" y="309.388125" style="stroke: #000000; stroke-width: 0.8"/>
      </g>
     </g>
     <g id="text_17">
      <!-- 200 -->
      <g transform="translate(830.889507 330.275625) scale(0.2 -0.2)">
       <use xlink:href="#TimesNewRomanPSMT-32"/>
       <use xlink:href="#TimesNewRomanPSMT-30" x="50"/>
       <use xlink:href="#TimesNewRomanPSMT-30" x="100"/>
      </g>
     </g>
    </g>
    <g id="xtick_12">
     <g id="line2d_19">
      <g>
       <use xlink:href="#m273b4b03d9" x="1028.53919" y="309.388125" style="stroke: #000000; stroke-width: 0.8"/>
      </g>
     </g>
     <g id="text_18">
      <!-- 250 -->
      <g transform="translate(1013.53919 330.275625) scale(0.2 -0.2)">
       <use xlink:href="#TimesNewRomanPSMT-32"/>
       <use xlink:href="#TimesNewRomanPSMT-35" x="50"/>
       <use xlink:href="#TimesNewRomanPSMT-30" x="100"/>
      </g>
     </g>
    </g>
   </g>
   <g id="matplotlib.axis_4">
    <g id="ytick_3">
     <g id="line2d_20">
      <g>
       <use xlink:href="#m593efb55fe" x="71.6375" y="274.323202" style="stroke: #000000; stroke-width: 0.8"/>
      </g>
     </g>
     <g id="text_19">
      <!-- 0.5 -->
      <g transform="translate(39.6375 281.266952) scale(0.2 -0.2)">
       <use xlink:href="#TimesNewRomanPSMT-30"/>
       <use xlink:href="#TimesNewRomanPSMT-2e" x="50"/>
       <use xlink:href="#TimesNewRomanPSMT-35" x="75"/>
      </g>
     </g>
    </g>
    <g id="ytick_4">
     <g id="line2d_21">
      <g>
       <use xlink:href="#m593efb55fe" x="71.6375" y="235.962312" style="stroke: #000000; stroke-width: 0.8"/>
      </g>
     </g>
     <g id="text_20">
      <!-- 1.0 -->
      <g transform="translate(39.6375 242.906062) scale(0.2 -0.2)">
       <use xlink:href="#TimesNewRomanPSMT-31"/>
       <use xlink:href="#TimesNewRomanPSMT-2e" x="50"/>
       <use xlink:href="#TimesNewRomanPSMT-30" x="75"/>
      </g>
     </g>
    </g>
    <g id="text_21">
     <!-- CPU使用率 -->
     <g transform="translate(33.059375 301.52375) rotate(-90) scale(0.2 -0.2)">
      <use xlink:href="#SimSun-43"/>
      <use xlink:href="#SimSun-50" x="50"/>
      <use xlink:href="#SimSun-55" x="100"/>
      <use xlink:href="#SimSun-4f7f" x="150"/>
      <use xlink:href="#SimSun-7528" x="250"/>
      <use xlink:href="#SimSun-7387" x="350"/>
     </g>
    </g>
   </g>
   <g id="line2d_22">
    <path d="M 115.290774 222.459279 
L 118.943768 225.773661 
L 122.596762 219.144897 
L 126.249755 219.144897 
L 133.555743 218.408364 
L 137.208736 218.776635 
L 140.86173 220.986223 
L 144.514724 221.354485 
L 148.167717 219.881429 
L 151.820711 219.881429 
L 155.473705 220.986223 
L 159.126698 221.722747 
L 162.779692 222.091017 
L 166.432686 219.881429 
L 170.085679 214.725721 
L 173.738673 216.935309 
L 177.391667 215.830515 
L 181.04466 216.567047 
L 184.697654 218.040103 
L 188.350648 218.040103 
L 192.003641 222.459279 
L 195.656635 219.881429 
L 199.309629 219.144897 
L 202.962622 219.881429 
L 206.615616 221.722747 
L 210.26861 219.881429 
L 213.921603 219.881429 
L 217.574597 225.773661 
L 221.227591 225.405399 
L 224.880584 229.824566 
L 228.533578 229.456305 
L 232.186571 222.459279 
L 235.839565 208.465227 
L 239.492559 232.034154 
L 243.145552 228.719772 
L 246.798546 234.980275 
L 250.45154 233.138948 
L 254.104533 238.294652 
L 257.757527 226.878455 
L 261.410521 246.028211 
L 265.063514 247.133005 
L 268.716508 250.447382 
L 272.369502 253.393503 
L 276.022495 251.920442 
L 279.675489 246.028211 
L 283.328483 256.339619 
L 286.981476 259.653996 
L 290.63447 257.444413 
L 294.287464 261.127056 
L 297.940457 257.076146 
L 301.593451 251.183915 
L 305.246445 265.914494 
L 308.899438 267.755816 
L 312.552432 269.228876 
L 316.205426 268.124082 
L 319.858419 272.91152 
L 323.511413 271.806726 
L 327.164407 276.225902 
L 330.8174 277.330696 
L 334.470394 279.540284 
L 338.123388 280.645078 
L 341.776381 279.172018 
L 345.429375 299.426564 
L 349.082369 282.118134 
L 352.735362 283.95946 
L 356.388356 285.06425 
L 360.04135 286.905576 
L 363.694343 287.642104 
L 367.347337 288.01037 
L 371.000331 289.851692 
L 374.653324 290.58822 
L 378.306318 291.693014 
L 381.959312 293.16607 
L 389.265299 293.16607 
L 392.918293 295.007393 
L 400.22428 296.480448 
L 403.877274 296.848714 
L 407.530267 297.585247 
L 411.183261 297.216976 
L 414.836255 298.32177 
L 418.489248 299.058303 
L 422.142242 299.058303 
L 429.448229 299.794835 
L 433.101223 299.794835 
L 440.40721 301.267891 
L 444.060204 301.267891 
L 451.366191 302.004414 
L 455.019185 301.267891 
L 458.672179 302.004414 
L 462.325172 302.004414 
L 465.978166 302.740946 
L 469.63116 302.372685 
L 473.284153 303.477479 
L 476.937147 302.740946 
L 480.590141 302.740946 
L 484.243134 303.477479 
L 487.896128 303.477479 
L 491.549122 303.84574 
L 495.202115 303.477479 
L 502.508103 303.477479 
L 506.161096 303.84574 
L 509.81409 303.477479 
L 513.467084 303.84574 
L 517.120077 303.84574 
L 520.773071 303.477479 
L 524.426065 304.582273 
L 528.079058 303.84574 
L 531.732052 303.84574 
L 535.385046 303.477479 
L 553.650014 303.477479 
L 557.303008 303.109208 
L 560.956001 302.372685 
L 564.608995 300.531358 
L 571.914982 301.267891 
L 579.220969 299.794835 
L 582.873963 299.794835 
L 586.526957 297.953509 
L 590.17995 298.32177 
L 593.832944 298.32177 
L 597.485938 297.585247 
L 601.138931 296.112187 
L 604.791925 295.375654 
L 608.444919 284.695988 
L 612.097912 291.324748 
L 615.750906 288.378632 
L 619.4039 288.378632 
L 623.056893 285.800782 
L 626.709887 284.327722 
L 630.362881 276.594168 
L 634.015874 282.118134 
L 637.668868 278.067224 
L 641.321862 278.067224 
L 644.974855 274.38458 
L 648.627849 271.438464 
L 652.280843 242.345562 
L 655.933836 263.704906 
L 659.58683 255.603086 
L 663.239824 260.022262 
L 666.892817 255.971352 
L 670.545811 255.603086 
L 674.198805 238.294652 
L 677.851798 255.234825 
L 681.504792 252.65697 
L 685.157786 253.761764 
L 688.810779 250.447382 
L 692.463773 248.237799 
L 696.116767 234.980275 
L 699.76976 241.240768 
L 703.422754 240.872507 
L 707.075748 243.818623 
L 710.728741 242.345562 
L 714.381735 242.713829 
L 718.034729 237.558125 
L 721.687722 246.028211 
L 725.340716 245.659944 
L 728.99371 245.659944 
L 732.646703 242.345562 
L 736.299697 240.135979 
L 739.952691 232.770687 
L 743.605684 228.719772 
L 747.258678 230.192837 
L 750.911672 229.456305 
L 754.564665 227.246717 
L 758.217659 230.192837 
L 761.870653 228.351511 
L 765.523646 234.612004 
L 769.17664 234.612004 
L 776.482627 230.92936 
L 780.135621 230.561099 
L 783.788615 221.722747 
L 787.441608 220.986223 
L 791.094602 219.881429 
L 794.747596 221.722747 
L 798.400589 226.141923 
L 802.053583 226.878455 
L 805.706577 224.668867 
L 809.35957 223.932335 
L 813.012564 218.408364 
L 816.665558 220.986223 
L 820.318551 224.668867 
L 823.971545 224.300605 
L 827.624539 225.037129 
L 831.277532 210.674815 
L 834.930526 216.198786 
L 838.58352 225.773661 
L 842.236513 226.510193 
L 845.889507 221.722747 
L 849.542501 225.037129 
L 853.195494 227.614978 
L 856.848488 227.246717 
L 860.501482 226.510193 
L 864.154475 226.878455 
L 867.807469 227.983249 
L 871.460463 275.121108 
L 875.113456 209.938283 
L 878.76645 212.884403 
L 882.419444 220.249691 
L 886.072437 219.881429 
L 889.725431 221.722747 
L 893.378425 226.141923 
L 900.684412 229.088043 
L 904.337406 229.088043 
L 907.990399 231.665893 
L 911.643393 231.665893 
L 915.296387 227.246717 
L 918.94938 226.141923 
L 922.602374 227.983249 
L 926.255367 231.297631 
L 929.908361 235.348537 
L 933.561355 233.507219 
L 937.214348 233.875481 
L 940.867342 232.770687 
L 944.520336 234.980275 
L 948.173329 234.612004 
L 951.826323 233.875481 
L 955.479317 236.085064 
L 959.13231 226.510193 
L 962.785304 222.459279 
L 966.438298 230.192837 
L 970.091291 231.297631 
L 973.744285 231.297631 
L 977.397279 233.138948 
L 981.050272 230.192837 
L 984.703266 234.243743 
L 988.35626 232.402425 
L 988.35626 232.402425 
" clip-path="url(#p0520f3bb94)" style="fill: none; stroke: #1f77b4; stroke-width: 1.5; stroke-linecap: square"/>
   </g>
   <g id="line2d_23">
    <path d="M 641.321862 280.71874 
L 644.974855 281.993315 
L 648.627849 276.955122 
L 652.280843 279.62011 
L 655.933836 278.931992 
L 659.58683 276.771504 
L 663.239824 275.714081 
L 666.892817 275.523246 
L 670.545811 276.985212 
L 674.198805 275.784066 
L 677.851798 276.430181 
L 681.504792 276.459595 
L 685.157786 277.380761 
L 688.810779 276.372923 
L 692.463773 274.788269 
L 696.116767 271.14396 
L 699.76976 270.316961 
L 703.422754 271.261303 
L 707.075748 272.968307 
L 710.728741 273.821597 
L 714.381735 272.494661 
L 718.034729 272.598646 
L 721.687722 270.389401 
L 725.340716 272.536975 
L 728.99371 271.545659 
L 732.646703 271.373802 
L 736.299697 269.217224 
L 739.952691 267.058744 
L 743.605684 269.781035 
L 747.258678 268.933288 
L 750.911672 268.37828 
L 754.564665 270.248567 
L 758.217659 267.857802 
L 761.870653 265.299063 
L 765.523646 268.084631 
L 769.17664 268.706894 
L 772.829634 269.128028 
L 776.482627 267.30857 
L 780.135621 268.995746 
L 783.788615 264.8429 
L 787.441608 267.610139 
L 791.094602 267.422995 
L 794.747596 266.947182 
L 798.400589 268.566888 
L 802.053583 266.358919 
L 805.706577 263.09676 
L 809.35957 266.397451 
L 813.012564 268.146613 
L 816.665558 266.10248 
L 820.318551 266.993817 
L 823.971545 266.099229 
L 827.624539 263.11411 
L 831.277532 266.517775 
L 834.930526 266.677769 
L 838.58352 265.168555 
L 842.236513 264.634921 
L 845.889507 265.947657 
L 849.542501 264.150446 
L 853.195494 264.835734 
L 856.848488 267.338528 
L 860.501482 266.665724 
L 864.154475 265.5718 
L 867.807469 262.894145 
L 871.460463 267.093558 
L 875.113456 264.92354 
L 878.76645 267.121878 
L 882.419444 267.048747 
L 886.072437 266.327672 
L 889.725431 267.315132 
L 893.378425 266.396467 
L 897.031418 267.154237 
L 900.684412 267.501719 
L 904.337406 267.168856 
L 907.990399 265.139686 
L 911.643393 266.273857 
L 915.296387 265.042396 
L 918.94938 265.994837 
L 922.602374 267.50037 
L 926.255367 266.305392 
L 929.908361 267.286835 
L 933.561355 266.634564 
L 937.214348 266.073579 
L 940.867342 264.569564 
L 944.520336 265.46824 
L 948.173329 265.949102 
L 951.826323 264.537407 
L 955.479317 265.196391 
L 959.13231 264.909748 
L 962.785304 266.752382 
L 966.438298 266.162464 
L 970.091291 265.824786 
L 973.744285 265.751692 
L 977.397279 264.120361 
L 981.050272 262.701129 
L 984.703266 262.522394 
L 988.35626 262.198312 
" clip-path="url(#p0520f3bb94)" style="fill: none; stroke: #ff7f0e; stroke-width: 1.5; stroke-linecap: square"/>
   </g>
   <g id="line2d_24">
    <path d="M 641.321862 309.388125 
L 641.321862 203.659375 
" clip-path="url(#p0520f3bb94)" style="fill: none; stroke-dasharray: 7.4,3.2; stroke-dashoffset: 0; stroke: #0000ff; stroke-width: 2"/>
   </g>
   <g id="patch_9">
    <path d="M 71.6375 309.388125 
L 71.6375 203.659375 
" style="fill: none; stroke: #000000; stroke-width: 0.8; stroke-linejoin: miter; stroke-linecap: square"/>
   </g>
   <g id="patch_10">
    <path d="M 1032.009534 309.388125 
L 1032.009534 203.659375 
" style="fill: none; stroke: #000000; stroke-width: 0.8; stroke-linejoin: miter; stroke-linecap: square"/>
   </g>
   <g id="patch_11">
    <path d="M 71.6375 309.388125 
L 1032.009534 309.388125 
" style="fill: none; stroke: #000000; stroke-width: 0.8; stroke-linejoin: miter; stroke-linecap: square"/>
   </g>
   <g id="patch_12">
    <path d="M 71.6375 203.659375 
L 1032.009534 203.659375 
" style="fill: none; stroke: #000000; stroke-width: 0.8; stroke-linejoin: miter; stroke-linecap: square"/>
   </g>
   <g id="text_22">
    <!-- 云函数ID: 72 -->
    <g transform="translate(491.823517 197.659375) scale(0.2 -0.2)">
     <defs>
      <path id="SimSun-37" d="M 2825 4200 
Q 2300 3350 1987 2537 
Q 1675 1725 1675 1125 
Q 1675 1025 1700 850 
Q 1700 650 1700 400 
Q 1700 200 1637 125 
Q 1575 50 1425 50 
Q 1300 50 1212 137 
Q 1125 225 1125 450 
Q 1125 925 1337 1625 
Q 1550 2325 2475 4000 
L 1225 4000 
Q 950 4000 787 3825 
Q 625 3650 550 3300 
L 400 3325 
L 575 4375 
L 2825 4375 
L 2825 4200 
z
" transform="scale(0.015625)"/>
     </defs>
     <use xlink:href="#SimSun-4e91"/>
     <use xlink:href="#SimSun-51fd" x="100"/>
     <use xlink:href="#SimSun-6570" x="200"/>
     <use xlink:href="#SimSun-49" x="300"/>
     <use xlink:href="#SimSun-44" x="350"/>
     <use xlink:href="#SimSun-3a" x="400"/>
     <use xlink:href="#SimSun-20" x="450"/>
     <use xlink:href="#SimSun-37" x="500"/>
     <use xlink:href="#SimSun-32" x="550"/>
    </g>
   </g>
  </g>
  <g id="axes_3">
   <g id="patch_13">
    <path d="M 71.6375 483.988125 
L 1032.009534 483.988125 
L 1032.009534 378.259375 
L 71.6375 378.259375 
z
" style="fill: #ffffff"/>
   </g>
   <g id="matplotlib.axis_5">
    <g id="xtick_13">
     <g id="line2d_25">
      <g>
       <use xlink:href="#m273b4b03d9" x="115.290774" y="483.988125" style="stroke: #000000; stroke-width: 0.8"/>
      </g>
     </g>
     <g id="text_23">
      <!-- 0 -->
      <g transform="translate(110.290774 504.875625) scale(0.2 -0.2)">
       <use xlink:href="#TimesNewRomanPSMT-30"/>
      </g>
     </g>
    </g>
    <g id="xtick_14">
     <g id="line2d_26">
      <g>
       <use xlink:href="#m273b4b03d9" x="297.940457" y="483.988125" style="stroke: #000000; stroke-width: 0.8"/>
      </g>
     </g>
     <g id="text_24">
      <!-- 50 -->
      <g transform="translate(287.940457 504.875625) scale(0.2 -0.2)">
       <use xlink:href="#TimesNewRomanPSMT-35"/>
       <use xlink:href="#TimesNewRomanPSMT-30" x="50"/>
      </g>
     </g>
    </g>
    <g id="xtick_15">
     <g id="line2d_27">
      <g>
       <use xlink:href="#m273b4b03d9" x="480.590141" y="483.988125" style="stroke: #000000; stroke-width: 0.8"/>
      </g>
     </g>
     <g id="text_25">
      <!-- 100 -->
      <g transform="translate(465.590141 504.875625) scale(0.2 -0.2)">
       <use xlink:href="#TimesNewRomanPSMT-31"/>
       <use xlink:href="#TimesNewRomanPSMT-30" x="50"/>
       <use xlink:href="#TimesNewRomanPSMT-30" x="100"/>
      </g>
     </g>
    </g>
    <g id="xtick_16">
     <g id="line2d_28">
      <g>
       <use xlink:href="#m273b4b03d9" x="663.239824" y="483.988125" style="stroke: #000000; stroke-width: 0.8"/>
      </g>
     </g>
     <g id="text_26">
      <!-- 150 -->
      <g transform="translate(648.239824 504.875625) scale(0.2 -0.2)">
       <use xlink:href="#TimesNewRomanPSMT-31"/>
       <use xlink:href="#TimesNewRomanPSMT-35" x="50"/>
       <use xlink:href="#TimesNewRomanPSMT-30" x="100"/>
      </g>
     </g>
    </g>
    <g id="xtick_17">
     <g id="line2d_29">
      <g>
       <use xlink:href="#m273b4b03d9" x="845.889507" y="483.988125" style="stroke: #000000; stroke-width: 0.8"/>
      </g>
     </g>
     <g id="text_27">
      <!-- 200 -->
      <g transform="translate(830.889507 504.875625) scale(0.2 -0.2)">
       <use xlink:href="#TimesNewRomanPSMT-32"/>
       <use xlink:href="#TimesNewRomanPSMT-30" x="50"/>
       <use xlink:href="#TimesNewRomanPSMT-30" x="100"/>
      </g>
     </g>
    </g>
    <g id="xtick_18">
     <g id="line2d_30">
      <g>
       <use xlink:href="#m273b4b03d9" x="1028.53919" y="483.988125" style="stroke: #000000; stroke-width: 0.8"/>
      </g>
     </g>
     <g id="text_28">
      <!-- 250 -->
      <g transform="translate(1013.53919 504.875625) scale(0.2 -0.2)">
       <use xlink:href="#TimesNewRomanPSMT-32"/>
       <use xlink:href="#TimesNewRomanPSMT-35" x="50"/>
       <use xlink:href="#TimesNewRomanPSMT-30" x="100"/>
      </g>
     </g>
    </g>
   </g>
   <g id="matplotlib.axis_6">
    <g id="ytick_5">
     <g id="line2d_31">
      <g>
       <use xlink:href="#m593efb55fe" x="71.6375" y="456.401467" style="stroke: #000000; stroke-width: 0.8"/>
      </g>
     </g>
     <g id="text_29">
      <!-- 1.0 -->
      <g transform="translate(39.6375 463.345217) scale(0.2 -0.2)">
       <use xlink:href="#TimesNewRomanPSMT-31"/>
       <use xlink:href="#TimesNewRomanPSMT-2e" x="50"/>
       <use xlink:href="#TimesNewRomanPSMT-30" x="75"/>
      </g>
     </g>
    </g>
    <g id="ytick_6">
     <g id="line2d_32">
      <g>
       <use xlink:href="#m593efb55fe" x="71.6375" y="421.332494" style="stroke: #000000; stroke-width: 0.8"/>
      </g>
     </g>
     <g id="text_30">
      <!-- 2.0 -->
      <g transform="translate(39.6375 428.276244) scale(0.2 -0.2)">
       <use xlink:href="#TimesNewRomanPSMT-32"/>
       <use xlink:href="#TimesNewRomanPSMT-2e" x="50"/>
       <use xlink:href="#TimesNewRomanPSMT-30" x="75"/>
      </g>
     </g>
    </g>
    <g id="ytick_7">
     <g id="line2d_33">
      <g>
       <use xlink:href="#m593efb55fe" x="71.6375" y="386.263522" style="stroke: #000000; stroke-width: 0.8"/>
      </g>
     </g>
     <g id="text_31">
      <!-- 3.0 -->
      <g transform="translate(39.6375 393.207272) scale(0.2 -0.2)">
       <defs>
        <path id="TimesNewRomanPSMT-33" d="M 325 3431 
Q 506 3859 782 4092 
Q 1059 4325 1472 4325 
Q 1981 4325 2253 3994 
Q 2459 3747 2459 3466 
Q 2459 3003 1878 2509 
Q 2269 2356 2469 2072 
Q 2669 1788 2669 1403 
Q 2669 853 2319 450 
Q 1863 -75 997 -75 
Q 569 -75 414 31 
Q 259 138 259 259 
Q 259 350 332 419 
Q 406 488 509 488 
Q 588 488 669 463 
Q 722 447 909 348 
Q 1097 250 1169 231 
Q 1284 197 1416 197 
Q 1734 197 1970 444 
Q 2206 691 2206 1028 
Q 2206 1275 2097 1509 
Q 2016 1684 1919 1775 
Q 1784 1900 1550 2001 
Q 1316 2103 1072 2103 
L 972 2103 
L 972 2197 
Q 1219 2228 1467 2375 
Q 1716 2522 1828 2728 
Q 1941 2934 1941 3181 
Q 1941 3503 1739 3701 
Q 1538 3900 1238 3900 
Q 753 3900 428 3381 
L 325 3431 
z
" transform="scale(0.015625)"/>
       </defs>
       <use xlink:href="#TimesNewRomanPSMT-33"/>
       <use xlink:href="#TimesNewRomanPSMT-2e" x="50"/>
       <use xlink:href="#TimesNewRomanPSMT-30" x="75"/>
      </g>
     </g>
    </g>
    <g id="text_32">
     <!-- CPU使用率 -->
     <g transform="translate(33.059375 476.12375) rotate(-90) scale(0.2 -0.2)">
      <use xlink:href="#SimSun-43"/>
      <use xlink:href="#SimSun-50" x="50"/>
      <use xlink:href="#SimSun-55" x="100"/>
      <use xlink:href="#SimSun-4f7f" x="150"/>
      <use xlink:href="#SimSun-7528" x="250"/>
      <use xlink:href="#SimSun-7387" x="350"/>
     </g>
    </g>
   </g>
   <g id="line2d_34">
    <path d="M 115.290774 458.47755 
L 118.943768 460.497523 
L 122.596762 459.655868 
L 129.902749 463.359152 
L 133.555743 464.200807 
L 137.208736 465.547455 
L 140.86173 465.715787 
L 144.514724 465.210794 
L 148.167717 464.200807 
L 151.820711 465.210794 
L 155.473705 466.38911 
L 159.126698 466.557442 
L 162.779692 467.567429 
L 166.432686 467.90409 
L 170.085679 468.745745 
L 173.738673 469.755732 
L 177.391667 470.092394 
L 181.04466 469.924062 
L 184.697654 470.934049 
L 188.350648 472.449029 
L 192.003641 474.132341 
L 195.656635 474.973996 
L 199.309629 475.310657 
L 202.962622 476.152312 
L 210.26861 476.152312 
L 213.921603 476.488974 
L 217.574597 476.993967 
L 224.880584 477.330631 
L 228.533578 477.330631 
L 232.186571 472.280697 
L 235.839565 479.013941 
L 239.492559 478.677279 
L 243.145552 479.013941 
L 246.798546 478.677279 
L 250.45154 479.182273 
L 254.104533 478.677279 
L 257.757527 478.677279 
L 265.063514 479.013941 
L 268.716508 478.845609 
L 272.369502 478.845609 
L 276.022495 477.330631 
L 279.675489 477.835624 
L 283.328483 477.498961 
L 286.981476 477.498961 
L 290.63447 477.162299 
L 297.940457 475.478989 
L 301.593451 475.142326 
L 305.246445 474.469002 
L 308.899438 473.627347 
L 312.552432 472.954022 
L 316.205426 471.439042 
L 319.858419 465.210794 
L 323.511413 467.399097 
L 327.164407 465.715787 
L 330.8174 464.7058 
L 334.470394 462.685827 
L 338.123388 461.50751 
L 341.776381 455.447592 
L 345.429375 456.120915 
L 349.082369 453.764282 
L 352.735362 452.249301 
L 356.388356 449.219341 
L 360.04135 448.882677 
L 363.694343 425.821324 
L 367.347337 440.971117 
L 371.000331 438.782814 
L 374.653324 436.931174 
L 378.306318 433.901214 
L 381.959312 434.069543 
L 385.612305 430.0296 
L 389.265299 429.524607 
L 392.918293 426.662981 
L 396.571286 428.177961 
L 400.22428 423.296357 
L 403.877274 421.613047 
L 407.530267 411.681517 
L 411.183261 413.364823 
L 414.836255 413.196497 
L 418.489248 413.364823 
L 422.142242 411.00819 
L 425.795236 411.176523 
L 429.448229 409.493209 
L 433.101223 414.03815 
L 436.754217 414.374809 
L 440.40721 413.533157 
L 444.060204 413.533157 
L 447.713198 408.651556 
L 451.366191 408.651556 
L 455.019185 407.64157 
L 458.672179 408.483223 
L 462.325172 407.978229 
L 465.978166 402.75997 
L 469.63116 409.829869 
L 473.284153 406.12659 
L 476.937147 411.344849 
L 480.590141 412.52317 
L 484.243134 412.859829 
L 487.896128 408.314889 
L 491.549122 411.681517 
L 495.202115 399.898335 
L 498.855109 402.928295 
L 502.508103 402.254976 
L 506.161096 407.978229 
L 509.81409 409.324875 
L 513.467084 411.513183 
L 517.120077 412.018176 
L 520.773071 409.15655 
L 524.426065 408.146563 
L 528.079058 408.651556 
L 531.732052 411.176523 
L 535.385046 413.364823 
L 539.038039 410.67153 
L 542.691033 406.799917 
L 546.344027 407.978229 
L 549.99702 412.52317 
L 553.650014 412.18651 
L 557.303008 407.978229 
L 560.956001 411.681517 
L 564.608995 414.03815 
L 568.261989 413.533157 
L 571.914982 410.67153 
L 575.567976 410.503196 
L 579.220969 412.018176 
L 582.873963 438.446154 
L 586.526957 396.700049 
L 590.17995 398.046695 
L 593.832944 403.938282 
L 597.485938 404.779943 
L 601.138931 404.779943 
L 604.791925 406.631583 
L 608.444919 409.661543 
L 612.097912 408.651556 
L 615.750906 411.849842 
L 619.4039 409.324875 
L 623.056893 412.859829 
L 626.709887 407.978229 
L 630.362881 407.473236 
L 634.015874 411.513183 
L 637.668868 415.721456 
L 641.321862 414.879803 
L 644.974855 414.374809 
L 648.627849 412.018176 
L 652.280843 414.711469 
L 655.933836 414.711469 
L 659.58683 416.394783 
L 663.239824 414.374809 
L 666.892817 415.384796 
L 670.545811 406.631583 
L 674.198805 404.27495 
L 677.851798 412.52317 
L 681.504792 413.196497 
L 685.157786 408.146563 
L 688.810779 407.809904 
L 692.463773 406.12659 
L 696.116767 409.493209 
L 699.76976 412.18651 
L 703.422754 416.394783 
L 707.075748 413.869816 
L 710.728741 412.691504 
L 714.381735 408.146563 
L 718.034729 408.314889 
L 725.340716 414.03815 
L 728.99371 413.869816 
L 732.646703 414.711469 
L 736.299697 412.52317 
L 743.605684 412.52317 
L 747.258678 414.03815 
L 750.911672 413.869816 
L 754.564665 412.354836 
L 758.217659 411.00819 
L 761.870653 411.00819 
L 765.523646 414.711469 
L 769.17664 406.968242 
L 772.829634 408.146563 
L 776.482627 411.849842 
L 780.135621 404.27495 
L 783.788615 408.819882 
L 787.441608 410.67153 
L 791.094602 410.839856 
L 794.747596 402.591636 
L 798.400589 406.12659 
L 802.053583 403.096629 
L 805.706577 403.096629 
L 809.35957 398.046695 
L 813.012564 403.938282 
L 816.665558 402.75997 
L 820.318551 400.908322 
L 823.971545 395.858396 
L 827.624539 397.373376 
L 831.277532 396.363389 
L 834.930526 395.690062 
L 838.58352 397.87837 
L 842.236513 396.026722 
L 845.889507 389.461816 
L 849.542501 394.175082 
L 853.195494 390.808462 
L 856.848488 387.778502 
L 860.501482 389.125148 
L 864.154475 387.441842 
L 867.807469 383.065227 
L 871.460463 389.630141 
L 875.113456 385.253535 
L 878.76645 387.105174 
L 882.419444 387.105174 
L 886.072437 383.906889 
L 889.725431 388.956822 
L 893.378425 390.808462 
L 897.031418 394.006748 
L 900.684412 390.135135 
L 904.337406 384.411882 
L 907.990399 396.363389 
L 911.643393 391.818449 
L 915.296387 395.185069 
L 918.94938 396.195056 
L 922.602374 398.046695 
L 926.255367 395.185069 
L 929.908361 397.373376 
L 933.561355 389.630141 
L 937.214348 393.501755 
L 940.867342 393.670089 
L 944.520336 397.205042 
L 948.173329 393.501755 
L 951.826323 396.531715 
L 955.479317 396.026722 
L 959.13231 394.175082 
L 962.785304 397.87837 
L 966.438298 397.87837 
L 970.091291 396.700049 
L 973.744285 394.175082 
L 977.397279 383.233561 
L 981.050272 392.491768 
L 984.703266 391.986774 
L 988.35626 393.165095 
L 988.35626 393.165095 
" clip-path="url(#p2d3220a768)" style="fill: none; stroke: #1f77b4; stroke-width: 1.5; stroke-linecap: square"/>
   </g>
   <g id="line2d_35">
    <path d="M 641.321862 413.864992 
L 644.974855 414.312076 
L 648.627849 415.792274 
L 652.280843 414.805665 
L 655.933836 416.36291 
L 659.58683 417.741538 
L 663.239824 418.226155 
L 666.892817 419.014306 
L 670.545811 419.390664 
L 674.198805 419.178258 
L 677.851798 418.632563 
L 681.504792 421.232763 
L 685.157786 421.978518 
L 688.810779 423.751162 
L 692.463773 424.675582 
L 696.116767 425.147587 
L 699.76976 426.711053 
L 703.422754 427.730316 
L 707.075748 427.500587 
L 710.728741 427.003348 
L 714.381735 428.181109 
L 718.034729 428.306906 
L 721.687722 428.643548 
L 725.340716 429.620103 
L 728.99371 430.552131 
L 732.646703 431.301829 
L 736.299697 431.229668 
L 739.952691 432.680778 
L 743.605684 432.779322 
L 747.258678 433.556666 
L 750.911672 434.285715 
L 754.564665 433.340832 
L 758.217659 431.783453 
L 761.870653 433.494856 
L 765.523646 433.286226 
L 769.17664 433.761746 
L 772.829634 434.368085 
L 776.482627 434.841373 
L 780.135621 433.114083 
L 783.788615 433.842974 
L 787.441608 434.250536 
L 791.094602 434.877752 
L 794.747596 434.477916 
L 798.400589 432.949278 
L 802.053583 432.209162 
L 805.706577 432.922619 
L 809.35957 432.191675 
L 813.012564 433.33227 
L 816.665558 433.335941 
L 820.318551 433.395443 
L 823.971545 433.246611 
L 827.624539 433.340711 
L 831.277532 433.443782 
L 834.930526 433.40441 
L 838.58352 433.266076 
L 842.236513 432.599103 
L 845.889507 430.916796 
L 849.542501 431.579237 
L 853.195494 432.081108 
L 856.848488 431.528322 
L 860.501482 432.219906 
L 864.154475 433.21185 
L 867.807469 432.216449 
L 871.460463 432.664917 
L 875.113456 432.458511 
L 878.76645 432.941322 
L 882.419444 434.118146 
L 886.072437 434.235407 
L 889.725431 427.687311 
L 893.378425 432.310143 
L 897.031418 432.061836 
L 900.684412 431.421568 
L 904.337406 431.949404 
L 907.990399 433.310849 
L 911.643393 432.477558 
L 915.296387 432.90126 
L 918.94938 432.343592 
L 922.602374 433.512715 
L 926.255367 432.987923 
L 929.908361 432.147211 
L 933.561355 430.646273 
L 937.214348 430.299137 
L 940.867342 431.722011 
L 944.520336 432.440041 
L 948.173329 432.014136 
L 951.826323 432.088817 
L 955.479317 431.630002 
L 959.13231 431.92019 
L 962.785304 430.901115 
L 966.438298 431.405364 
L 970.091291 431.217365 
L 973.744285 429.543286 
L 977.397279 429.816434 
L 981.050272 428.026713 
L 984.703266 428.588382 
L 988.35626 429.198763 
" clip-path="url(#p2d3220a768)" style="fill: none; stroke: #ff7f0e; stroke-width: 1.5; stroke-linecap: square"/>
   </g>
   <g id="line2d_36">
    <path d="M 641.321862 483.988125 
L 641.321862 378.259375 
" clip-path="url(#p2d3220a768)" style="fill: none; stroke-dasharray: 7.4,3.2; stroke-dashoffset: 0; stroke: #0000ff; stroke-width: 2"/>
   </g>
   <g id="patch_14">
    <path d="M 71.6375 483.988125 
L 71.6375 378.259375 
" style="fill: none; stroke: #000000; stroke-width: 0.8; stroke-linejoin: miter; stroke-linecap: square"/>
   </g>
   <g id="patch_15">
    <path d="M 1032.009534 483.988125 
L 1032.009534 378.259375 
" style="fill: none; stroke: #000000; stroke-width: 0.8; stroke-linejoin: miter; stroke-linecap: square"/>
   </g>
   <g id="patch_16">
    <path d="M 71.6375 483.988125 
L 1032.009534 483.988125 
" style="fill: none; stroke: #000000; stroke-width: 0.8; stroke-linejoin: miter; stroke-linecap: square"/>
   </g>
   <g id="patch_17">
    <path d="M 71.6375 378.259375 
L 1032.009534 378.259375 
" style="fill: none; stroke: #000000; stroke-width: 0.8; stroke-linejoin: miter; stroke-linecap: square"/>
   </g>
   <g id="text_33">
    <!-- 云函数ID: 150 -->
    <g transform="translate(486.823517 372.259375) scale(0.2 -0.2)">
     <defs>
      <path id="SimSun-31" d="M 1825 4450 
L 1825 650 
Q 1825 450 1950 350 
Q 2075 250 2300 250 
L 2550 250 
L 2550 100 
L 725 100 
L 725 250 
L 950 250 
Q 1200 250 1312 350 
Q 1425 450 1425 650 
L 1425 3675 
Q 1425 3775 1362 3837 
Q 1300 3900 1175 3900 
L 725 3900 
L 725 4050 
L 950 4050 
Q 1250 4050 1437 4150 
Q 1625 4250 1725 4450 
L 1825 4450 
z
" transform="scale(0.015625)"/>
      <path id="SimSun-35" d="M 1725 2850 
Q 2200 2850 2500 2487 
Q 2800 2125 2800 1525 
Q 2800 850 2487 450 
Q 2175 50 1525 50 
Q 1075 50 725 312 
Q 375 575 375 950 
Q 375 1100 462 1212 
Q 550 1325 700 1325 
Q 850 1325 900 1225 
Q 950 1125 950 1050 
Q 950 900 875 825 
Q 800 725 800 625 
Q 800 425 1037 325 
Q 1275 225 1550 225 
Q 1950 225 2162 550 
Q 2375 875 2375 1475 
Q 2375 1975 2187 2287 
Q 2000 2600 1625 2600 
Q 1350 2600 1150 2500 
Q 950 2400 775 2075 
L 550 2100 
L 675 4375 
L 2725 4375 
L 2650 4000 
L 850 4000 
L 750 2350 
Q 1000 2700 1237 2775 
Q 1475 2850 1725 2850 
z
" transform="scale(0.015625)"/>
      <path id="SimSun-30" d="M 1600 4225 
Q 1250 4225 1012 3687 
Q 775 3150 775 2250 
Q 775 1300 1012 775 
Q 1250 250 1600 250 
Q 1975 250 2187 775 
Q 2400 1300 2400 2250 
Q 2400 3150 2200 3687 
Q 2000 4225 1600 4225 
z
M 1600 50 
Q 1050 50 675 625 
Q 300 1200 300 2250 
Q 300 3225 662 3825 
Q 1025 4425 1600 4425 
Q 2150 4425 2512 3850 
Q 2875 3275 2875 2250 
Q 2875 1225 2512 637 
Q 2150 50 1600 50 
z
" transform="scale(0.015625)"/>
     </defs>
     <use xlink:href="#SimSun-4e91"/>
     <use xlink:href="#SimSun-51fd" x="100"/>
     <use xlink:href="#SimSun-6570" x="200"/>
     <use xlink:href="#SimSun-49" x="300"/>
     <use xlink:href="#SimSun-44" x="350"/>
     <use xlink:href="#SimSun-3a" x="400"/>
     <use xlink:href="#SimSun-20" x="450"/>
     <use xlink:href="#SimSun-31" x="500"/>
     <use xlink:href="#SimSun-35" x="550"/>
     <use xlink:href="#SimSun-30" x="600"/>
    </g>
   </g>
  </g>
  <g id="axes_4">
   <g id="patch_18">
    <path d="M 71.6375 658.588125 
L 1032.009534 658.588125 
L 1032.009534 552.859375 
L 71.6375 552.859375 
z
" style="fill: #ffffff"/>
   </g>
   <g id="matplotlib.axis_7">
    <g id="xtick_19">
     <g id="line2d_37">
      <g>
       <use xlink:href="#m273b4b03d9" x="115.290774" y="658.588125" style="stroke: #000000; stroke-width: 0.8"/>
      </g>
     </g>
     <g id="text_34">
      <!-- 0 -->
      <g transform="translate(110.290774 679.475625) scale(0.2 -0.2)">
       <use xlink:href="#TimesNewRomanPSMT-30"/>
      </g>
     </g>
    </g>
    <g id="xtick_20">
     <g id="line2d_38">
      <g>
       <use xlink:href="#m273b4b03d9" x="297.940457" y="658.588125" style="stroke: #000000; stroke-width: 0.8"/>
      </g>
     </g>
     <g id="text_35">
      <!-- 50 -->
      <g transform="translate(287.940457 679.475625) scale(0.2 -0.2)">
       <use xlink:href="#TimesNewRomanPSMT-35"/>
       <use xlink:href="#TimesNewRomanPSMT-30" x="50"/>
      </g>
     </g>
    </g>
    <g id="xtick_21">
     <g id="line2d_39">
      <g>
       <use xlink:href="#m273b4b03d9" x="480.590141" y="658.588125" style="stroke: #000000; stroke-width: 0.8"/>
      </g>
     </g>
     <g id="text_36">
      <!-- 100 -->
      <g transform="translate(465.590141 679.475625) scale(0.2 -0.2)">
       <use xlink:href="#TimesNewRomanPSMT-31"/>
       <use xlink:href="#TimesNewRomanPSMT-30" x="50"/>
       <use xlink:href="#TimesNewRomanPSMT-30" x="100"/>
      </g>
     </g>
    </g>
    <g id="xtick_22">
     <g id="line2d_40">
      <g>
       <use xlink:href="#m273b4b03d9" x="663.239824" y="658.588125" style="stroke: #000000; stroke-width: 0.8"/>
      </g>
     </g>
     <g id="text_37">
      <!-- 150 -->
      <g transform="translate(648.239824 679.475625) scale(0.2 -0.2)">
       <use xlink:href="#TimesNewRomanPSMT-31"/>
       <use xlink:href="#TimesNewRomanPSMT-35" x="50"/>
       <use xlink:href="#TimesNewRomanPSMT-30" x="100"/>
      </g>
     </g>
    </g>
    <g id="xtick_23">
     <g id="line2d_41">
      <g>
       <use xlink:href="#m273b4b03d9" x="845.889507" y="658.588125" style="stroke: #000000; stroke-width: 0.8"/>
      </g>
     </g>
     <g id="text_38">
      <!-- 200 -->
      <g transform="translate(830.889507 679.475625) scale(0.2 -0.2)">
       <use xlink:href="#TimesNewRomanPSMT-32"/>
       <use xlink:href="#TimesNewRomanPSMT-30" x="50"/>
       <use xlink:href="#TimesNewRomanPSMT-30" x="100"/>
      </g>
     </g>
    </g>
    <g id="xtick_24">
     <g id="line2d_42">
      <g>
       <use xlink:href="#m273b4b03d9" x="1028.53919" y="658.588125" style="stroke: #000000; stroke-width: 0.8"/>
      </g>
     </g>
     <g id="text_39">
      <!-- 250 -->
      <g transform="translate(1013.53919 679.475625) scale(0.2 -0.2)">
       <use xlink:href="#TimesNewRomanPSMT-32"/>
       <use xlink:href="#TimesNewRomanPSMT-35" x="50"/>
       <use xlink:href="#TimesNewRomanPSMT-30" x="100"/>
      </g>
     </g>
    </g>
   </g>
   <g id="matplotlib.axis_8">
    <g id="ytick_8">
     <g id="line2d_43">
      <g>
       <use xlink:href="#m593efb55fe" x="71.6375" y="633.368147" style="stroke: #000000; stroke-width: 0.8"/>
      </g>
     </g>
     <g id="text_40">
      <!-- 10.0 -->
      <g transform="translate(29.6375 640.311897) scale(0.2 -0.2)">
       <use xlink:href="#TimesNewRomanPSMT-31"/>
       <use xlink:href="#TimesNewRomanPSMT-30" x="50"/>
       <use xlink:href="#TimesNewRomanPSMT-2e" x="100"/>
       <use xlink:href="#TimesNewRomanPSMT-30" x="125"/>
      </g>
     </g>
    </g>
    <g id="ytick_9">
     <g id="line2d_44">
      <g>
       <use xlink:href="#m593efb55fe" x="71.6375" y="554.071508" style="stroke: #000000; stroke-width: 0.8"/>
      </g>
     </g>
     <g id="text_41">
      <!-- 20.0 -->
      <g transform="translate(29.6375 561.015258) scale(0.2 -0.2)">
       <use xlink:href="#TimesNewRomanPSMT-32"/>
       <use xlink:href="#TimesNewRomanPSMT-30" x="50"/>
       <use xlink:href="#TimesNewRomanPSMT-2e" x="100"/>
       <use xlink:href="#TimesNewRomanPSMT-30" x="125"/>
      </g>
     </g>
    </g>
    <g id="text_42">
     <!-- CPU使用率 -->
     <g transform="translate(23.059375 650.72375) rotate(-90) scale(0.2 -0.2)">
      <use xlink:href="#SimSun-43"/>
      <use xlink:href="#SimSun-50" x="50"/>
      <use xlink:href="#SimSun-55" x="100"/>
      <use xlink:href="#SimSun-4f7f" x="150"/>
      <use xlink:href="#SimSun-7528" x="250"/>
      <use xlink:href="#SimSun-7387" x="350"/>
     </g>
    </g>
   </g>
   <g id="line2d_45">
    <path d="M 115.290774 621.457793 
L 118.943768 627.547772 
L 122.596762 628.071129 
L 126.249755 626.358325 
L 129.902749 626.69137 
L 133.555743 627.833242 
L 137.208736 624.407626 
L 140.86173 626.69137 
L 144.514724 627.357466 
L 148.167717 626.548638 
L 151.820711 625.406766 
L 155.473705 628.451756 
L 159.126698 621.077166 
L 162.779692 627.452615 
L 166.432686 623.123022 
L 170.085679 622.694814 
L 173.738673 623.36091 
L 177.391667 625.168871 
L 181.04466 623.456067 
L 184.697654 626.025281 
L 188.350648 624.788252 
L 192.003641 623.123022 
L 195.656635 625.216446 
L 199.309629 628.451756 
L 202.962622 622.885135 
L 206.615616 622.171456 
L 210.26861 620.98201 
L 217.574597 620.696547 
L 221.227591 622.837553 
L 224.880584 625.977699 
L 228.533578 624.550357 
L 232.186571 625.644654 
L 235.839565 625.787393 
L 239.492559 627.024414 
L 243.145552 626.215586 
L 246.798546 621.362636 
L 250.45154 622.123882 
L 254.104533 620.268346 
L 257.757527 624.312477 
L 261.410521 624.16973 
L 265.063514 620.125607 
L 268.716508 619.935294 
L 272.369502 621.267479 
L 276.022495 620.458652 
L 279.675489 617.651558 
L 283.328483 619.03131 
L 286.981476 618.032177 
L 290.63447 616.081477 
L 294.287464 617.318506 
L 297.940457 597.843249 
L 301.593451 590.492458 
L 305.246445 596.320758 
L 308.899438 599.762232 
L 312.552432 599.37368 
L 316.205426 601.593984 
L 319.858419 601.538477 
L 323.511413 605.312995 
L 327.164407 607.699821 
L 330.8174 610.403841 
L 334.470394 608.323092 
L 338.123388 584.391377 
L 349.082369 590.846125 
L 352.735362 592.195748 
L 356.388356 604.835632 
L 360.04135 604.225043 
L 363.694343 607.155849 
L 367.347337 606.475482 
L 371.000331 604.277381 
L 374.653324 600.247529 
L 378.306318 608.040806 
L 381.959312 584.564237 
L 385.612305 574.295336 
L 389.265299 578.393386 
L 392.918293 571.64364 
L 396.571286 589.542487 
L 400.22428 593.821329 
L 403.877274 598.943891 
L 407.530267 601.963509 
L 411.183261 600.07625 
L 414.836255 603.041941 
L 418.489248 606.600775 
L 422.142242 599.375268 
L 425.795236 580.735799 
L 429.448229 581.787278 
L 433.101223 585.37466 
L 436.754217 597.708451 
L 440.40721 596.376265 
L 444.060204 595.987713 
L 447.713198 591.602606 
L 451.366191 593.267835 
L 455.019185 596.154236 
L 458.672179 599.59571 
L 462.325172 604.258347 
L 465.978166 603.203706 
L 469.63116 584.75455 
L 476.937147 601.489314 
L 480.590141 600.355367 
L 484.243134 600.913617 
L 487.896128 600.710615 
L 491.549122 602.385365 
L 495.202115 597.158133 
L 498.855109 597.970129 
L 502.508103 599.797117 
L 506.161096 603.400364 
L 509.81409 653.782273 
L 513.467084 566.990517 
L 517.120077 557.665227 
L 520.773071 574.117713 
L 524.426065 584.775165 
L 528.079058 588.543346 
L 531.732052 591.569301 
L 535.385046 596.764825 
L 539.038039 596.859974 
L 542.691033 602.740613 
L 546.344027 603.60336 
L 549.99702 605.278103 
L 553.650014 607.105098 
L 557.303008 588.854188 
L 560.956001 586.487969 
L 564.608995 594.481073 
L 568.261989 604.034737 
L 571.914982 600.355367 
L 575.567976 603.451107 
L 579.220969 602.892857 
L 582.873963 603.755612 
L 586.526957 605.125858 
L 590.17995 606.1916 
L 593.832944 608.67834 
L 597.485938 601.268865 
L 601.138931 594.975883 
L 604.791925 604.364605 
L 608.444919 610.048594 
L 612.097912 605.024357 
L 615.750906 608.67834 
L 619.4039 608.67834 
L 623.056893 604.618359 
L 626.709887 608.830599 
L 630.362881 608.627596 
L 634.015874 609.135096 
L 637.668868 604.567608 
L 641.321862 602.892857 
L 644.974855 603.197361 
L 648.627849 608.526095 
L 652.280843 609.79484 
L 655.933836 606.445354 
L 659.58683 608.221598 
L 663.239824 606.851352 
L 666.892817 599.746374 
L 670.545811 608.424594 
L 674.198805 608.475352 
L 677.851798 609.79484 
L 681.504792 608.272349 
L 685.157786 606.293109 
L 688.810779 607.612597 
L 692.463773 607.764842 
L 696.116767 607.003604 
L 699.76976 610.759088 
L 703.422754 613.753327 
L 707.075748 609.439593 
L 710.728741 609.541094 
L 714.381735 612.281587 
L 718.034729 609.845591 
L 721.687722 604.516857 
L 725.340716 610.150087 
L 728.99371 606.242351 
L 732.646703 606.597606 
L 736.299697 608.170848 
L 739.952691 606.394603 
L 743.605684 605.734859 
L 747.258678 608.354816 
L 750.911672 608.272349 
L 754.564665 605.734859 
L 758.217659 606.445354 
L 761.870653 606.090106 
L 765.523646 609.541094 
L 769.17664 610.606844 
L 772.829634 596.606228 
L 776.482627 597.507036 
L 780.135621 598.820187 
L 783.788615 593.339209 
L 787.441608 595.28038 
L 791.094602 594.823638 
L 794.747596 583.379554 
L 798.400589 583.056023 
L 802.053583 580.150596 
L 805.706577 578.78035 
L 809.35957 581.17827 
L 813.012564 576.610782 
L 816.665558 592.882452 
L 820.318551 586.031228 
L 823.971545 590.712899 
L 827.624539 587.116004 
L 831.277532 581.006998 
L 834.930526 593.282106 
L 838.58352 592.882452 
L 842.236513 594.024332 
L 845.889507 593.967229 
L 849.542501 594.423985 
L 853.195494 594.423985 
L 856.848488 596.365164 
L 860.501482 594.309794 
L 864.154475 592.654078 
L 867.807469 581.349556 
L 871.460463 581.857048 
L 875.113456 581.286124 
L 878.76645 589.342653 
L 882.419444 587.915311 
L 886.072437 588.257876 
L 889.725431 590.370341 
L 893.378425 593.567575 
L 897.031418 593.853045 
L 900.684412 594.880726 
L 904.337406 578.931006 
L 907.990399 584.878254 
L 911.643393 590.598716 
L 915.296387 590.370341 
L 918.94938 589.97068 
L 922.602374 590.941274 
L 926.255367 590.827083 
L 929.908361 589.228462 
L 933.561355 589.685218 
L 937.214348 585.745758 
L 940.867342 584.432607 
L 944.520336 588.372067 
L 948.173329 590.313238 
L 955.479317 591.74058 
L 959.13231 589.742306 
L 962.785304 592.31152 
L 966.438298 592.996643 
L 970.091291 592.254425 
L 973.744285 586.145411 
L 977.397279 593.453384 
L 981.050272 597.221566 
L 984.703266 596.650634 
L 988.35626 586.659255 
L 988.35626 586.659255 
" clip-path="url(#pfa43c2385c)" style="fill: none; stroke: #1f77b4; stroke-width: 1.5; stroke-linecap: square"/>
   </g>
   <g id="line2d_46">
    <path d="M 641.321862 606.182737 
L 644.974855 605.065738 
L 648.627849 604.224044 
L 652.280843 597.134244 
L 655.933836 602.144332 
L 659.58683 607.740907 
L 663.239824 609.011558 
L 666.892817 610.232842 
L 670.545811 606.852796 
L 674.198805 606.381051 
L 677.851798 608.534572 
L 681.504792 607.13751 
L 685.157786 602.038557 
L 688.810779 604.896886 
L 692.463773 601.98246 
L 696.116767 604.007762 
L 699.76976 609.866017 
L 703.422754 609.727263 
L 707.075748 608.603117 
L 710.728741 607.263763 
L 714.381735 608.028971 
L 718.034729 607.749256 
L 721.687722 610.391756 
L 725.340716 607.658765 
L 728.99371 607.697522 
L 732.646703 604.410773 
L 736.299697 606.051191 
L 739.952691 606.686176 
L 743.605684 605.721587 
L 747.258678 607.285762 
L 750.911672 611.07387 
L 754.564665 608.085855 
L 758.217659 609.696553 
L 761.870653 608.433759 
L 765.523646 611.501224 
L 769.17664 607.615297 
L 772.829634 606.658346 
L 776.482627 607.190234 
L 780.135621 602.956139 
L 783.788615 606.183342 
L 787.441608 607.978228 
L 791.094602 607.323868 
L 794.747596 609.007966 
L 798.400589 607.176736 
L 802.053583 607.724376 
L 805.706577 611.584046 
L 809.35957 614.050783 
L 813.012564 608.127205 
L 816.665558 607.745044 
L 820.318551 608.4211 
L 823.971545 603.559952 
L 827.624539 604.176901 
L 831.277532 607.161293 
L 834.930526 608.969511 
L 838.58352 611.434554 
L 842.236513 610.070827 
L 845.889507 607.786001 
L 849.542501 611.14432 
L 853.195494 612.369801 
L 856.848488 610.794556 
L 860.501482 609.586385 
L 864.154475 603.562538 
L 867.807469 606.555703 
L 871.460463 607.48608 
L 875.113456 606.738462 
L 878.76645 606.009621 
L 882.419444 609.414478 
L 886.072437 607.888304 
L 889.725431 607.934775 
L 893.378425 609.548354 
L 897.031418 609.82698 
L 900.684412 609.056947 
L 904.337406 612.484469 
L 907.990399 608.116096 
L 911.643393 603.526617 
L 915.296387 606.962397 
L 918.94938 605.121283 
L 922.602374 607.268807 
L 926.255367 609.186837 
L 929.908361 605.4313 
L 933.561355 606.449914 
L 937.214348 606.078385 
L 940.867342 611.957307 
L 944.520336 611.417048 
L 948.173329 609.192396 
L 951.826323 603.879089 
L 955.479317 601.858824 
L 959.13231 601.352398 
L 962.785304 603.763824 
L 966.438298 605.937937 
L 970.091291 606.879748 
L 973.744285 605.332846 
L 977.397279 605.494922 
L 981.050272 607.240078 
L 984.703266 607.502725 
L 988.35626 608.290536 
" clip-path="url(#pfa43c2385c)" style="fill: none; stroke: #ff7f0e; stroke-width: 1.5; stroke-linecap: square"/>
   </g>
   <g id="line2d_47">
    <path d="M 641.321862 658.588125 
L 641.321862 552.859375 
" clip-path="url(#pfa43c2385c)" style="fill: none; stroke-dasharray: 7.4,3.2; stroke-dashoffset: 0; stroke: #0000ff; stroke-width: 2"/>
   </g>
   <g id="patch_19">
    <path d="M 71.6375 658.588125 
L 71.6375 552.859375 
" style="fill: none; stroke: #000000; stroke-width: 0.8; stroke-linejoin: miter; stroke-linecap: square"/>
   </g>
   <g id="patch_20">
    <path d="M 1032.009534 658.588125 
L 1032.009534 552.859375 
" style="fill: none; stroke: #000000; stroke-width: 0.8; stroke-linejoin: miter; stroke-linecap: square"/>
   </g>
   <g id="patch_21">
    <path d="M 71.6375 658.588125 
L 1032.009534 658.588125 
" style="fill: none; stroke: #000000; stroke-width: 0.8; stroke-linejoin: miter; stroke-linecap: square"/>
   </g>
   <g id="patch_22">
    <path d="M 71.6375 552.859375 
L 1032.009534 552.859375 
" style="fill: none; stroke: #000000; stroke-width: 0.8; stroke-linejoin: miter; stroke-linecap: square"/>
   </g>
   <g id="text_43">
    <!-- 云函数ID: 165 -->
    <g transform="translate(486.823517 546.859375) scale(0.2 -0.2)">
     <defs>
      <path id="SimSun-36" d="M 775 1800 
Q 775 1050 1037 637 
Q 1300 225 1675 225 
Q 2050 225 2250 500 
Q 2450 775 2450 1525 
Q 2450 2025 2237 2300 
Q 2025 2575 1725 2575 
Q 1450 2575 1212 2412 
Q 975 2250 775 1800 
z
M 1750 2825 
Q 2350 2825 2612 2425 
Q 2875 2025 2875 1525 
Q 2875 775 2512 412 
Q 2150 50 1675 50 
Q 1000 50 650 562 
Q 300 1075 300 2050 
Q 300 3200 725 3812 
Q 1150 4425 1875 4425 
Q 2225 4425 2437 4225 
Q 2650 4025 2650 3875 
Q 2650 3725 2587 3650 
Q 2525 3575 2375 3575 
Q 2250 3575 2187 3637 
Q 2125 3700 2125 3825 
Q 2125 3875 2150 3925 
Q 2150 3975 2150 4025 
Q 2150 4125 2075 4187 
Q 2000 4250 1800 4250 
Q 1375 4250 1075 3862 
Q 775 3475 775 2175 
Q 925 2500 1187 2662 
Q 1450 2825 1750 2825 
z
" transform="scale(0.015625)"/>
     </defs>
     <use xlink:href="#SimSun-4e91"/>
     <use xlink:href="#SimSun-51fd" x="100"/>
     <use xlink:href="#SimSun-6570" x="200"/>
     <use xlink:href="#SimSun-49" x="300"/>
     <use xlink:href="#SimSun-44" x="350"/>
     <use xlink:href="#SimSun-3a" x="400"/>
     <use xlink:href="#SimSun-20" x="450"/>
     <use xlink:href="#SimSun-31" x="500"/>
     <use xlink:href="#SimSun-36" x="550"/>
     <use xlink:href="#SimSun-35" x="600"/>
    </g>
   </g>
  </g>
 </g>
 <defs>
  <clipPath id="p6974bdb123">
   <rect x="71.6375" y="29.059375" width="960.372034" height="105.72875"/>
  </clipPath>
  <clipPath id="p0520f3bb94">
   <rect x="71.6375" y="203.659375" width="960.372034" height="105.72875"/>
  </clipPath>
  <clipPath id="p2d3220a768">
   <rect x="71.6375" y="378.259375" width="960.372034" height="105.72875"/>
  </clipPath>
  <clipPath id="pfa43c2385c">
   <rect x="71.6375" y="552.859375" width="960.372034" height="105.72875"/>
  </clipPath>
 </defs>
</svg>
