<?xml version="1.0" encoding="utf-8" standalone="no"?>
<!DOCTYPE svg PUBLIC "-//W3C//DTD SVG 1.1//EN"
  "http://www.w3.org/Graphics/SVG/1.1/DTD/svg11.dtd">
<svg xmlns:xlink="http://www.w3.org/1999/xlink" width="1050.580384pt" height="691.4825pt" viewBox="0 0 1050.580384 691.4825" xmlns="http://www.w3.org/2000/svg" version="1.1">
 <metadata>
  <rdf:RDF xmlns:dc="http://purl.org/dc/elements/1.1/" xmlns:cc="http://creativecommons.org/ns#" xmlns:rdf="http://www.w3.org/1999/02/22-rdf-syntax-ns#">
   <cc:Work>
    <dc:type rdf:resource="http://purl.org/dc/dcmitype/StillImage"/>
    <dc:date>2024-02-27T09:49:08.492163</dc:date>
    <dc:format>image/svg+xml</dc:format>
    <dc:creator>
     <cc:Agent>
      <dc:title>Matplotlib v3.7.4, https://matplotlib.org/</dc:title>
     </cc:Agent>
    </dc:creator>
   </cc:Work>
  </rdf:RDF>
 </metadata>
 <defs>
  <style type="text/css">*{stroke-linejoin: round; stroke-linecap: butt}</style>
 </defs>
 <g id="figure_1">
  <g id="patch_1">
   <path d="M 0 691.4825 
L 1050.580384 691.4825 
L 1050.580384 0 
L 0 0 
z
" style="fill: #ffffff"/>
  </g>
  <g id="axes_1">
   <g id="patch_2">
    <path d="M 71.6375 135.316875 
L 1032.489189 135.316875 
L 1032.489189 29.059375 
L 71.6375 29.059375 
z
" style="fill: #ffffff"/>
   </g>
   <g id="matplotlib.axis_1">
    <g id="xtick_1">
     <g id="line2d_1">
      <defs>
       <path id="maf4b6dad0f" d="M 0 0 
L 0 3.5 
" style="stroke: #000000; stroke-width: 0.8"/>
      </defs>
      <g>
       <use xlink:href="#maf4b6dad0f" x="115.312577" y="135.316875" style="stroke: #000000; stroke-width: 0.8"/>
      </g>
     </g>
     <g id="text_1">
      <!-- 0 -->
      <g transform="translate(110.312577 156.204375) scale(0.2 -0.2)">
       <defs>
        <path id="TimesNewRomanPSMT-30" d="M 231 2094 
Q 231 2819 450 3342 
Q 669 3866 1031 4122 
Q 1313 4325 1613 4325 
Q 2100 4325 2488 3828 
Q 2972 3213 2972 2159 
Q 2972 1422 2759 906 
Q 2547 391 2217 158 
Q 1888 -75 1581 -75 
Q 975 -75 572 641 
Q 231 1244 231 2094 
z
M 844 2016 
Q 844 1141 1059 588 
Q 1238 122 1591 122 
Q 1759 122 1940 273 
Q 2122 425 2216 781 
Q 2359 1319 2359 2297 
Q 2359 3022 2209 3506 
Q 2097 3866 1919 4016 
Q 1791 4119 1609 4119 
Q 1397 4119 1231 3928 
Q 1006 3669 925 3112 
Q 844 2556 844 2016 
z
" transform="scale(0.015625)"/>
       </defs>
       <use xlink:href="#TimesNewRomanPSMT-30"/>
      </g>
     </g>
    </g>
    <g id="xtick_2">
     <g id="line2d_2">
      <g>
       <use xlink:href="#maf4b6dad0f" x="267.490545" y="135.316875" style="stroke: #000000; stroke-width: 0.8"/>
      </g>
     </g>
     <g id="text_2">
      <!-- 50 -->
      <g transform="translate(257.490545 156.204375) scale(0.2 -0.2)">
       <defs>
        <path id="TimesNewRomanPSMT-35" d="M 2778 4238 
L 2534 3706 
L 1259 3706 
L 981 3138 
Q 1809 3016 2294 2522 
Q 2709 2097 2709 1522 
Q 2709 1188 2573 903 
Q 2438 619 2231 419 
Q 2025 219 1772 97 
Q 1413 -75 1034 -75 
Q 653 -75 479 54 
Q 306 184 306 341 
Q 306 428 378 495 
Q 450 563 559 563 
Q 641 563 702 538 
Q 763 513 909 409 
Q 1144 247 1384 247 
Q 1750 247 2026 523 
Q 2303 800 2303 1197 
Q 2303 1581 2056 1914 
Q 1809 2247 1375 2428 
Q 1034 2569 447 2591 
L 1259 4238 
L 2778 4238 
z
" transform="scale(0.015625)"/>
       </defs>
       <use xlink:href="#TimesNewRomanPSMT-35"/>
       <use xlink:href="#TimesNewRomanPSMT-30" x="50"/>
      </g>
     </g>
    </g>
    <g id="xtick_3">
     <g id="line2d_3">
      <g>
       <use xlink:href="#maf4b6dad0f" x="419.668513" y="135.316875" style="stroke: #000000; stroke-width: 0.8"/>
      </g>
     </g>
     <g id="text_3">
      <!-- 100 -->
      <g transform="translate(404.668513 156.204375) scale(0.2 -0.2)">
       <defs>
        <path id="TimesNewRomanPSMT-31" d="M 750 3822 
L 1781 4325 
L 1884 4325 
L 1884 747 
Q 1884 391 1914 303 
Q 1944 216 2037 169 
Q 2131 122 2419 116 
L 2419 0 
L 825 0 
L 825 116 
Q 1125 122 1212 167 
Q 1300 213 1334 289 
Q 1369 366 1369 747 
L 1369 3034 
Q 1369 3497 1338 3628 
Q 1316 3728 1258 3775 
Q 1200 3822 1119 3822 
Q 1003 3822 797 3725 
L 750 3822 
z
" transform="scale(0.015625)"/>
       </defs>
       <use xlink:href="#TimesNewRomanPSMT-31"/>
       <use xlink:href="#TimesNewRomanPSMT-30" x="50"/>
       <use xlink:href="#TimesNewRomanPSMT-30" x="100"/>
      </g>
     </g>
    </g>
    <g id="xtick_4">
     <g id="line2d_4">
      <g>
       <use xlink:href="#maf4b6dad0f" x="571.84648" y="135.316875" style="stroke: #000000; stroke-width: 0.8"/>
      </g>
     </g>
     <g id="text_4">
      <!-- 150 -->
      <g transform="translate(556.84648 156.204375) scale(0.2 -0.2)">
       <use xlink:href="#TimesNewRomanPSMT-31"/>
       <use xlink:href="#TimesNewRomanPSMT-35" x="50"/>
       <use xlink:href="#TimesNewRomanPSMT-30" x="100"/>
      </g>
     </g>
    </g>
    <g id="xtick_5">
     <g id="line2d_5">
      <g>
       <use xlink:href="#maf4b6dad0f" x="724.024448" y="135.316875" style="stroke: #000000; stroke-width: 0.8"/>
      </g>
     </g>
     <g id="text_5">
      <!-- 200 -->
      <g transform="translate(709.024448 156.204375) scale(0.2 -0.2)">
       <defs>
        <path id="TimesNewRomanPSMT-32" d="M 2934 816 
L 2638 0 
L 138 0 
L 138 116 
Q 1241 1122 1691 1759 
Q 2141 2397 2141 2925 
Q 2141 3328 1894 3587 
Q 1647 3847 1303 3847 
Q 991 3847 742 3664 
Q 494 3481 375 3128 
L 259 3128 
Q 338 3706 661 4015 
Q 984 4325 1469 4325 
Q 1984 4325 2329 3994 
Q 2675 3663 2675 3213 
Q 2675 2891 2525 2569 
Q 2294 2063 1775 1497 
Q 997 647 803 472 
L 1909 472 
Q 2247 472 2383 497 
Q 2519 522 2628 598 
Q 2738 675 2819 816 
L 2934 816 
z
" transform="scale(0.015625)"/>
       </defs>
       <use xlink:href="#TimesNewRomanPSMT-32"/>
       <use xlink:href="#TimesNewRomanPSMT-30" x="50"/>
       <use xlink:href="#TimesNewRomanPSMT-30" x="100"/>
      </g>
     </g>
    </g>
    <g id="xtick_6">
     <g id="line2d_6">
      <g>
       <use xlink:href="#maf4b6dad0f" x="876.202416" y="135.316875" style="stroke: #000000; stroke-width: 0.8"/>
      </g>
     </g>
     <g id="text_6">
      <!-- 250 -->
      <g transform="translate(861.202416 156.204375) scale(0.2 -0.2)">
       <use xlink:href="#TimesNewRomanPSMT-32"/>
       <use xlink:href="#TimesNewRomanPSMT-35" x="50"/>
       <use xlink:href="#TimesNewRomanPSMT-30" x="100"/>
      </g>
     </g>
    </g>
    <g id="xtick_7">
     <g id="line2d_7">
      <g>
       <use xlink:href="#maf4b6dad0f" x="1028.380384" y="135.316875" style="stroke: #000000; stroke-width: 0.8"/>
      </g>
     </g>
     <g id="text_7">
      <!-- 300 -->
      <g transform="translate(1013.380384 156.204375) scale(0.2 -0.2)">
       <defs>
        <path id="TimesNewRomanPSMT-33" d="M 325 3431 
Q 506 3859 782 4092 
Q 1059 4325 1472 4325 
Q 1981 4325 2253 3994 
Q 2459 3747 2459 3466 
Q 2459 3003 1878 2509 
Q 2269 2356 2469 2072 
Q 2669 1788 2669 1403 
Q 2669 853 2319 450 
Q 1863 -75 997 -75 
Q 569 -75 414 31 
Q 259 138 259 259 
Q 259 350 332 419 
Q 406 488 509 488 
Q 588 488 669 463 
Q 722 447 909 348 
Q 1097 250 1169 231 
Q 1284 197 1416 197 
Q 1734 197 1970 444 
Q 2206 691 2206 1028 
Q 2206 1275 2097 1509 
Q 2016 1684 1919 1775 
Q 1784 1900 1550 2001 
Q 1316 2103 1072 2103 
L 972 2103 
L 972 2197 
Q 1219 2228 1467 2375 
Q 1716 2522 1828 2728 
Q 1941 2934 1941 3181 
Q 1941 3503 1739 3701 
Q 1538 3900 1238 3900 
Q 753 3900 428 3381 
L 325 3431 
z
" transform="scale(0.015625)"/>
       </defs>
       <use xlink:href="#TimesNewRomanPSMT-33"/>
       <use xlink:href="#TimesNewRomanPSMT-30" x="50"/>
       <use xlink:href="#TimesNewRomanPSMT-30" x="100"/>
      </g>
     </g>
    </g>
   </g>
   <g id="matplotlib.axis_2">
    <g id="ytick_1">
     <g id="line2d_8">
      <defs>
       <path id="m49d8f43b47" d="M 0 0 
L -3.5 0 
" style="stroke: #000000; stroke-width: 0.8"/>
      </defs>
      <g>
       <use xlink:href="#m49d8f43b47" x="71.6375" y="134.074961" style="stroke: #000000; stroke-width: 0.8"/>
      </g>
     </g>
     <g id="text_8">
      <!-- 0.0 -->
      <g transform="translate(39.6375 141.018711) scale(0.2 -0.2)">
       <defs>
        <path id="TimesNewRomanPSMT-2e" d="M 800 606 
Q 947 606 1047 504 
Q 1147 403 1147 259 
Q 1147 116 1045 14 
Q 944 -88 800 -88 
Q 656 -88 554 14 
Q 453 116 453 259 
Q 453 406 554 506 
Q 656 606 800 606 
z
" transform="scale(0.015625)"/>
       </defs>
       <use xlink:href="#TimesNewRomanPSMT-30"/>
       <use xlink:href="#TimesNewRomanPSMT-2e" x="50"/>
       <use xlink:href="#TimesNewRomanPSMT-30" x="75"/>
      </g>
     </g>
    </g>
    <g id="ytick_2">
     <g id="line2d_9">
      <g>
       <use xlink:href="#m49d8f43b47" x="71.6375" y="67.998122" style="stroke: #000000; stroke-width: 0.8"/>
      </g>
     </g>
     <g id="text_9">
      <!-- 2.0 -->
      <g transform="translate(39.6375 74.941872) scale(0.2 -0.2)">
       <use xlink:href="#TimesNewRomanPSMT-32"/>
       <use xlink:href="#TimesNewRomanPSMT-2e" x="50"/>
       <use xlink:href="#TimesNewRomanPSMT-30" x="75"/>
      </g>
     </g>
    </g>
    <g id="text_10">
     <!-- CPU使用率 -->
     <g transform="translate(33.059375 127.188125) rotate(-90) scale(0.2 -0.2)">
      <defs>
       <path id="SimSun-43" d="M 1725 50 
Q 1025 50 612 575 
Q 200 1100 200 2225 
Q 200 3175 637 3800 
Q 1075 4425 1825 4425 
Q 2000 4425 2175 4375 
Q 2350 4300 2475 4300 
Q 2575 4300 2637 4325 
Q 2700 4350 2750 4425 
L 2975 3325 
L 2825 3275 
Q 2675 3750 2425 4000 
Q 2175 4250 1775 4250 
Q 1250 4250 962 3675 
Q 675 3100 675 2250 
Q 675 1325 925 800 
Q 1175 275 1750 275 
Q 2150 275 2437 562 
Q 2725 850 2825 1325 
L 2975 1250 
Q 2850 725 2512 387 
Q 2175 50 1725 50 
z
" transform="scale(0.015625)"/>
       <path id="SimSun-50" d="M 950 2100 
L 950 450 
Q 950 350 1012 300 
Q 1075 250 1175 250 
L 1350 250 
L 1350 100 
L 150 100 
L 150 250 
L 325 250 
Q 450 250 500 300 
Q 550 350 550 450 
L 550 4025 
Q 550 4125 500 4175 
Q 450 4225 325 4225 
L 175 4225 
L 175 4375 
L 1650 4375 
Q 2275 4375 2612 4062 
Q 2950 3750 2950 3275 
Q 2950 2700 2587 2400 
Q 2225 2100 1725 2100 
L 950 2100 
z
M 1575 2250 
Q 1950 2250 2237 2475 
Q 2525 2700 2525 3250 
Q 2525 3750 2287 3987 
Q 2050 4225 1525 4225 
L 1175 4225 
Q 1075 4225 1012 4175 
Q 950 4125 950 4025 
L 950 2250 
L 1575 2250 
z
" transform="scale(0.015625)"/>
       <path id="SimSun-55" d="M 1625 250 
Q 2000 250 2262 500 
Q 2525 750 2525 1125 
L 2525 4025 
Q 2525 4125 2475 4175 
Q 2425 4225 2300 4225 
L 2150 4225 
L 2150 4375 
L 3050 4375 
L 3050 4225 
L 2900 4225 
Q 2800 4225 2737 4175 
Q 2675 4125 2675 4025 
L 2675 1125 
Q 2675 625 2337 337 
Q 2000 50 1575 50 
Q 1125 50 787 300 
Q 450 550 450 1100 
L 450 4025 
Q 450 4125 400 4175 
Q 350 4225 225 4225 
L 100 4225 
L 100 4375 
L 1200 4375 
L 1200 4225 
L 1075 4225 
Q 975 4225 912 4175 
Q 850 4125 850 4025 
L 850 1100 
Q 850 600 1062 425 
Q 1275 250 1625 250 
z
" transform="scale(0.015625)"/>
       <path id="SimSun-4f7f" d="M 2875 3150 
L 2875 2100 
L 3825 2100 
Q 3850 2825 3850 3150 
L 2875 3150 
z
M 4175 3150 
Q 4175 2800 4150 2100 
L 5150 2100 
L 5150 3150 
L 4175 3150 
z
M 5475 3100 
L 5475 2425 
Q 5475 2100 5500 1800 
L 5150 1675 
L 5150 1950 
L 4150 1950 
Q 4125 1175 3875 600 
Q 4275 275 4875 75 
Q 5475 -125 6075 -150 
L 6075 -250 
Q 5700 -300 5600 -575 
Q 4525 -325 3725 350 
Q 3425 25 2925 -225 
Q 2425 -475 1875 -650 
L 1825 -550 
Q 2400 -325 2850 -25 
Q 3300 275 3500 575 
Q 3200 925 2825 1650 
L 2900 1700 
Q 3325 1100 3625 825 
Q 3800 1300 3825 1950 
L 2875 1950 
L 2875 1825 
L 2525 1675 
Q 2550 2075 2550 2562 
Q 2550 3050 2525 3500 
L 2875 3300 
L 3850 3300 
L 3850 4025 
L 2975 4025 
Q 2650 4025 2375 3950 
L 2150 4175 
L 3850 4175 
L 3850 4525 
Q 3850 4775 3825 5225 
L 4350 5000 
L 4175 4825 
L 4175 4175 
L 5300 4175 
L 5600 4475 
L 6050 4025 
L 4175 4025 
L 4175 3300 
L 5100 3300 
L 5275 3525 
L 5650 3225 
L 5475 3100 
z
M 1675 3175 
L 1675 -450 
L 1325 -625 
Q 1350 -75 1350 350 
L 1350 3200 
Q 900 2475 350 1900 
L 275 1950 
Q 700 2525 1112 3400 
Q 1525 4275 1800 5250 
L 2325 4925 
L 2125 4800 
Q 1725 3925 1500 3525 
L 1875 3325 
L 1675 3175 
z
" transform="scale(0.015625)"/>
       <path id="SimSun-7528" d="M 3400 3150 
L 3400 1825 
L 5075 1825 
L 5075 3150 
L 3400 3150 
z
M 4075 100 
Q 4725 50 4900 62 
Q 5075 75 5075 400 
L 5075 1675 
L 3400 1675 
Q 3400 75 3425 -225 
L 3050 -400 
Q 3075 1025 3075 1675 
L 1425 1675 
Q 1250 350 375 -600 
L 300 -550 
Q 775 225 950 1025 
Q 1125 1825 1125 3225 
Q 1125 4625 1100 5075 
L 1475 4825 
L 5050 4825 
L 5225 5100 
L 5625 4800 
L 5425 4600 
L 5425 225 
Q 5450 -400 4875 -575 
Q 4825 -150 4075 -25 
L 4075 100 
z
M 1475 4675 
L 1475 3300 
L 3075 3300 
L 3075 4675 
L 1475 4675 
z
M 3400 4675 
L 3400 3300 
L 5075 3300 
L 5075 4675 
L 3400 4675 
z
M 1475 3150 
Q 1450 2100 1425 1825 
L 3075 1825 
L 3075 3150 
L 1475 3150 
z
" transform="scale(0.015625)"/>
       <path id="SimSun-7387" d="M 875 3725 
L 925 3800 
Q 1375 3650 1550 3525 
Q 1725 3400 1725 3250 
Q 1725 3175 1662 3025 
Q 1600 2875 1550 2875 
Q 1500 2875 1425 3050 
Q 1275 3325 875 3725 
z
M 550 1850 
Q 875 1925 2000 2575 
L 2050 2500 
Q 1675 2225 1337 1937 
Q 1000 1650 875 1425 
L 550 1850 
z
M 5200 3450 
Q 4800 3150 4275 2800 
L 4225 2875 
Q 4775 3400 5050 3925 
L 5450 3525 
L 5200 3450 
z
M 4325 2500 
L 4350 2575 
Q 5225 2350 5375 2212 
Q 5525 2075 5525 1900 
Q 5525 1775 5487 1662 
Q 5450 1550 5400 1550 
Q 5325 1550 5200 1800 
Q 4975 2150 4325 2500 
z
M 3150 3900 
Q 2500 3300 2300 3150 
Q 2800 3150 3400 3175 
Q 3700 3500 3850 3825 
L 4250 3450 
Q 4050 3400 3450 2825 
Q 2850 2250 2475 1950 
Q 3150 1975 3850 2000 
Q 3750 2175 3550 2450 
L 3600 2500 
Q 4050 2250 4200 2100 
Q 4350 1950 4350 1850 
Q 4350 1775 4250 1625 
Q 4150 1475 4100 1475 
Q 4075 1475 4050 1550 
Q 4000 1700 3900 1900 
Q 3650 1875 3075 1800 
L 3500 1550 
L 3325 1425 
L 3325 975 
L 5325 975 
L 5650 1300 
L 6100 825 
L 3325 825 
Q 3325 -275 3350 -525 
L 2975 -650 
Q 3000 0 3000 825 
L 1125 825 
Q 800 825 525 750 
L 300 975 
L 3000 975 
L 3000 1775 
Q 2450 1700 2200 1525 
L 1950 1950 
Q 2275 1950 2675 2350 
Q 3075 2750 3325 3050 
Q 2400 2950 2150 2775 
L 1950 3175 
Q 2150 3150 2475 3575 
Q 2800 4000 2900 4225 
L 1450 4225 
Q 1125 4225 850 4150 
L 625 4375 
L 3100 4375 
Q 3050 4800 2675 5200 
L 2725 5250 
Q 3225 5050 3337 4912 
Q 3450 4775 3450 4700 
Q 3450 4550 3250 4375 
L 5025 4375 
L 5350 4675 
L 5775 4225 
L 3050 4225 
L 3375 3950 
L 3150 3900 
z
" transform="scale(0.015625)"/>
      </defs>
      <use xlink:href="#SimSun-43"/>
      <use xlink:href="#SimSun-50" x="50"/>
      <use xlink:href="#SimSun-55" x="100"/>
      <use xlink:href="#SimSun-4f7f" x="150"/>
      <use xlink:href="#SimSun-7528" x="250"/>
      <use xlink:href="#SimSun-7387" x="350"/>
     </g>
    </g>
   </g>
   <g id="line2d_10">
    <path d="M 115.312577 93.834164 
L 118.356136 96.668863 
L 121.399695 98.393467 
L 124.443255 97.878068 
L 127.486814 97.164438 
L 130.530374 101.109226 
L 133.573933 99.662144 
L 136.617492 99.741437 
L 139.661052 102.080556 
L 142.704611 103.032062 
L 145.74817 101.921971 
L 148.79173 103.071709 
L 151.835289 119.227495 
L 154.878848 99.007981 
L 157.922408 98.849398 
L 160.965967 99.483734 
L 164.009526 100.355951 
L 167.053086 100.455064 
L 170.096645 102.338255 
L 173.140205 112.54052 
L 176.183764 114.542646 
L 179.227323 116.921413 
L 182.270883 119.69664 
L 185.314442 120.515995 
L 188.358001 118.890503 
L 191.401561 119.842009 
L 194.44512 120.568855 
L 197.488679 121.916822 
L 200.532239 121.626085 
L 203.575798 122.722959 
L 206.619357 123.502665 
L 209.662917 125.101726 
L 212.706476 126.17217 
L 215.750036 129.416547 
L 218.793595 125.114942 
L 221.837154 129.528877 
L 224.880714 124.546679 
L 227.924273 129.046515 
L 230.967832 124.269158 
L 234.011392 126.905624 
L 237.054951 121.78467 
L 240.09851 122.974053 
L 243.14207 122.689921 
L 246.185629 123.311044 
L 249.229188 123.390336 
L 252.272748 123.998243 
L 255.316307 123.912343 
L 258.359867 124.493819 
L 264.446985 124.533466 
L 267.490545 123.086381 
L 270.534104 124.110575 
L 273.577663 123.595174 
L 276.621223 125.002612 
L 279.664782 124.672226 
L 282.708341 125.31978 
L 285.751901 124.784556 
L 288.79546 127.68533 
L 291.83902 128.240377 
L 294.882579 129.429757 
L 297.926138 125.23388 
L 300.969698 125.841788 
L 304.013257 120.634931 
L 307.056816 125.260309 
L 310.100376 127.084034 
L 316.187494 127.751406 
L 319.231054 127.381378 
L 322.274613 126.621492 
L 325.318172 127.454063 
L 328.361732 126.535592 
L 331.405291 124.315411 
L 334.448851 125.907864 
L 337.49241 129.740322 
L 340.535969 128.385747 
L 343.579529 129.495837 
L 346.623088 130.275543 
L 349.666647 130.486989 
L 352.710207 130.440735 
L 355.753766 130.143391 
L 358.797325 125.874826 
L 361.840885 129.178667 
L 364.884444 126.053232 
L 367.928003 123.648035 
L 370.971563 125.23388 
L 374.015122 124.969572 
L 377.058682 125.987156 
L 380.102241 124.797773 
L 383.1458 122.670099 
L 386.18936 123.396944 
L 392.276478 123.238359 
L 395.320038 123.568743 
L 398.363597 122.419006 
L 401.407156 121.877177 
L 404.450716 121.560009 
L 407.494275 120.780301 
L 410.537834 120.661362 
L 413.581394 119.538055 
L 416.624953 112.091196 
L 419.668513 111.99208 
L 422.712072 120.767085 
L 425.755631 119.987379 
L 428.799191 120.093102 
L 431.84275 112.811435 
L 434.886309 110.095677 
L 437.929869 109.831369 
L 440.973428 110.862168 
L 444.016987 104.598084 
L 447.060547 97.243732 
L 450.104106 98.948514 
L 453.147665 99.688575 
L 456.191225 101.274418 
L 459.234784 101.697309 
L 462.278344 104.763275 
L 465.321903 105.31832 
L 468.365462 102.833833 
L 471.409022 106.71915 
L 474.452581 103.653185 
L 477.49614 104.446107 
L 480.5397 99.159959 
L 483.583259 91.455401 
L 486.626818 82.435913 
L 489.670378 77.579263 
L 492.713937 54.009658 
L 495.757496 75.596959 
L 498.801056 80.916145 
L 501.844615 84.153908 
L 504.888175 73.945036 
L 507.931734 76.422919 
L 510.975293 69.583969 
L 514.018853 76.455959 
L 517.062412 67.43647 
L 520.105971 56.461106 
L 523.149531 51.174964 
L 526.19309 55.417092 
L 529.236649 61.324365 
L 532.280209 60.769314 
L 535.323768 62.639291 
L 538.367327 67.410043 
L 541.410887 50.104514 
L 544.454446 64.178885 
L 547.498006 59.183474 
L 550.541565 59.460996 
L 553.585124 61.562241 
L 556.628684 57.320105 
L 559.672243 58.152678 
L 562.715802 64.588559 
L 565.759362 70.442965 
L 568.802921 67.43647 
L 571.84648 59.507249 
L 574.89004 55.13957 
L 577.933599 54.108774 
L 580.977158 55.13957 
L 584.020718 57.795859 
L 587.064277 57.280461 
L 590.107837 106.877735 
L 593.151396 54.901693 
L 596.194955 54.34665 
L 599.238515 61.046843 
L 602.282074 66.280123 
L 605.325633 63.108436 
L 608.369193 65.526848 
L 611.412752 79.792838 
L 614.456311 77.546227 
L 617.499871 76.257727 
L 620.54343 75.927343 
L 623.586989 78.73561 
L 626.630549 77.182803 
L 629.674108 72.68958 
L 632.717668 59.976394 
L 635.761227 62.156929 
L 638.804786 71.011226 
L 641.848346 77.612303 
L 644.891905 75.993419 
L 647.935464 76.422919 
L 650.979024 72.028809 
L 654.022583 83.394024 
L 657.066142 84.3191 
L 660.109702 83.427064 
L 663.153261 75.696075 
L 666.19682 63.683305 
L 669.24038 69.650042 
L 672.283939 79.363338 
L 675.327499 75.696075 
L 678.371058 77.810534 
L 681.414617 82.072489 
L 684.458177 81.213489 
L 687.501736 80.717913 
L 690.545295 81.874261 
L 693.588855 83.724408 
L 696.632414 82.601105 
L 699.675973 75.530883 
L 702.719533 66.399065 
L 705.763092 68.421013 
L 708.806651 67.667738 
L 711.850211 68.539952 
L 714.89377 67.628093 
L 717.93733 63.782421 
L 720.980889 62.07764 
L 724.024448 58.390547 
L 727.068008 61.403654 
L 730.111567 54.980983 
L 733.155126 56.963286 
L 736.198686 58.033735 
L 739.242245 55.496389 
L 742.285804 62.513748 
L 745.329364 67.786681 
L 748.372923 77.176198 
L 751.416482 79.297262 
L 754.460042 76.125575 
L 757.503601 71.724856 
L 760.547161 76.350234 
L 763.59072 83.724408 
L 766.634279 80.453605 
L 769.677839 81.609953 
L 772.721398 77.414075 
L 775.764957 78.140918 
L 778.808517 65.804369 
L 781.852076 71.599309 
L 784.895635 73.053 
L 787.939195 74.903152 
L 790.982754 73.878964 
L 794.026313 77.84357 
L 797.069873 75.266575 
L 800.113432 77.579263 
L 803.156992 78.570418 
L 806.200551 76.191651 
L 809.24411 79.825878 
L 812.28767 77.678378 
L 815.331229 78.603454 
L 818.374788 78.24003 
L 821.418348 65.837413 
L 824.461907 64.535696 
L 827.505466 58.430199 
L 830.549026 62.513748 
L 833.592585 52.483282 
L 836.636144 51.115492 
L 839.679704 33.889261 
L 842.723263 36.063188 
L 845.766823 49.0605 
L 848.810382 45.498959 
L 851.853941 58.07338 
L 854.897501 49.906283 
L 857.94106 45.426278 
L 860.984619 57.320105 
L 864.028179 56.64612 
L 867.071738 60.491792 
L 870.115297 63.108436 
L 873.158857 61.720821 
L 876.202416 61.601886 
L 879.245975 64.852863 
L 882.289535 58.985242 
L 885.333094 56.64612 
L 888.376654 56.765062 
L 891.420213 53.666056 
L 894.463772 47.719139 
L 897.507332 47.071588 
L 900.550891 60.888256 
L 903.59445 57.201171 
L 906.63801 61.007198 
L 909.681569 64.099588 
L 912.725128 61.760465 
L 915.768688 65.170037 
L 918.812247 52.443637 
L 921.855806 66.253696 
L 924.899366 63.227378 
L 927.942925 64.998232 
L 930.986485 66.015819 
L 934.030044 66.742667 
L 937.073603 72.061849 
L 943.160722 70.938541 
L 946.204281 67.965086 
L 949.247841 67.79989 
L 952.2914 74.407576 
L 955.334959 75.530883 
L 958.378519 81.504228 
L 961.422078 81.715674 
L 964.465637 81.557091 
L 967.509197 80.975612 
L 970.552756 84.38518 
L 973.596316 85.204531 
L 976.639875 83.090072 
L 982.726994 92.499415 
L 985.770553 91.389321 
L 988.814112 87.451142 
L 988.814112 87.451142 
" clip-path="url(#p9b8e6889cd)" style="fill: none; stroke: #1f77b4; stroke-width: 1.5; stroke-linecap: square"/>
   </g>
   <g id="line2d_11">
    <path d="M 553.585124 55.634638 
L 556.628684 52.940445 
L 559.672243 52.518437 
L 562.715802 53.310427 
L 565.759362 53.056709 
L 568.802921 54.112704 
L 571.84648 53.708939 
L 574.89004 54.255711 
L 577.933599 54.963543 
L 580.977158 54.789289 
L 584.020718 56.188232 
L 587.064277 53.653642 
L 590.107837 55.077571 
L 593.151396 54.14155 
L 596.194955 56.962845 
L 599.238515 56.830599 
L 602.282074 58.028797 
L 605.325633 57.75163 
L 608.369193 58.143879 
L 614.456311 57.501614 
L 617.499871 58.155072 
L 620.54343 57.727928 
L 623.586989 56.723897 
L 626.630549 55.595253 
L 629.674108 54.637295 
L 632.717668 57.064096 
L 635.761227 55.469663 
L 638.804786 57.308314 
L 641.848346 57.353905 
L 644.891905 60.121551 
L 647.935464 59.057837 
L 650.979024 58.493302 
L 654.022583 59.543625 
L 657.066142 59.764377 
L 660.109702 59.600552 
L 663.153261 58.493396 
L 666.19682 55.209581 
L 669.24038 57.33096 
L 672.283939 59.288632 
L 675.327499 58.4801 
L 678.371058 59.543688 
L 684.458177 58.202752 
L 687.501736 59.794916 
L 690.545295 60.113658 
L 693.588855 57.154311 
L 696.632414 55.920556 
L 699.675973 54.206566 
L 702.719533 54.841821 
L 705.763092 56.390481 
L 708.806651 56.656644 
L 711.850211 57.540416 
L 714.89377 57.51009 
L 717.93733 56.807921 
L 720.980889 58.763356 
L 724.024448 56.370859 
L 727.068008 58.07401 
L 730.111567 58.237576 
L 733.155126 56.477561 
L 736.198686 56.835609 
L 739.242245 54.529522 
L 742.285804 55.340827 
L 745.329364 56.752428 
L 748.372923 58.003315 
L 751.416482 57.249606 
L 754.460042 56.363471 
L 757.503601 57.659784 
L 760.547161 57.769707 
L 763.59072 57.638564 
L 766.634279 56.80258 
L 769.677839 56.983924 
L 772.721398 55.357313 
L 775.764957 54.614428 
L 778.808517 53.518946 
L 781.852076 54.297514 
L 784.895635 55.266531 
L 787.939195 55.38905 
L 790.982754 56.537694 
L 794.026313 55.653464 
L 797.069873 55.714707 
L 800.113432 54.409099 
L 803.156992 54.704289 
L 806.200551 55.826434 
L 809.24411 54.47176 
L 812.28767 54.088561 
L 815.331229 52.555482 
L 818.374788 52.899658 
L 821.418348 53.074007 
L 824.461907 54.055132 
L 827.505466 52.059532 
L 830.549026 55.641176 
L 833.592585 52.8732 
L 836.636144 53.61911 
L 839.679704 51.589379 
L 842.723263 50.003445 
L 845.766823 50.491305 
L 848.810382 48.880173 
L 851.853941 49.711627 
L 854.897501 50.900861 
L 857.94106 52.375658 
L 860.984619 52.115199 
L 864.028179 52.47954 
L 867.071738 51.511413 
L 870.115297 52.942462 
L 873.158857 52.440833 
L 876.202416 50.617739 
L 879.245975 52.463061 
L 882.289535 50.932432 
L 885.333094 50.004162 
L 888.376654 51.747249 
L 891.420213 51.826578 
L 894.463772 53.23569 
L 897.507332 55.432562 
L 900.550891 53.997015 
L 903.59445 55.483172 
L 906.63801 55.351256 
L 909.681569 55.107889 
L 912.725128 57.28551 
L 915.768688 56.799067 
L 918.812247 57.98337 
L 921.855806 61.071782 
L 924.899366 58.275472 
L 927.942925 60.154256 
L 930.986485 60.867453 
L 934.030044 60.945506 
L 937.073603 64.062818 
L 940.117163 63.910942 
L 943.160722 64.39024 
L 946.204281 67.278088 
L 949.247841 66.647127 
L 952.2914 67.484402 
L 955.334959 69.828869 
L 958.378519 67.412761 
L 961.422078 68.686058 
L 964.465637 70.955311 
L 967.509197 71.333323 
L 970.552756 74.64444 
L 976.639875 75.101183 
L 979.683434 75.933578 
L 982.726994 77.647461 
L 985.770553 78.914874 
L 988.814112 80.689982 
L 988.814112 80.689982 
" clip-path="url(#p9b8e6889cd)" style="fill: none; stroke: #ff7f0e; stroke-width: 1.5; stroke-linecap: square"/>
   </g>
   <g id="line2d_12">
    <path d="M 553.585124 135.316875 
L 553.585124 29.059375 
" clip-path="url(#p9b8e6889cd)" style="fill: none; stroke-dasharray: 7.4,3.2; stroke-dashoffset: 0; stroke: #0000ff; stroke-width: 2"/>
   </g>
   <g id="patch_3">
    <path d="M 71.6375 135.316875 
L 71.6375 29.059375 
" style="fill: none; stroke: #000000; stroke-width: 0.8; stroke-linejoin: miter; stroke-linecap: square"/>
   </g>
   <g id="patch_4">
    <path d="M 1032.489189 135.316875 
L 1032.489189 29.059375 
" style="fill: none; stroke: #000000; stroke-width: 0.8; stroke-linejoin: miter; stroke-linecap: square"/>
   </g>
   <g id="patch_5">
    <path d="M 71.6375 135.316875 
L 1032.489189 135.316875 
" style="fill: none; stroke: #000000; stroke-width: 0.8; stroke-linejoin: miter; stroke-linecap: square"/>
   </g>
   <g id="patch_6">
    <path d="M 71.6375 29.059375 
L 1032.489189 29.059375 
" style="fill: none; stroke: #000000; stroke-width: 0.8; stroke-linejoin: miter; stroke-linecap: square"/>
   </g>
   <g id="text_11">
    <!-- 云函数ID: 28 -->
    <g transform="translate(492.063345 23.059375) scale(0.2 -0.2)">
     <defs>
      <path id="SimSun-4e91" d="M 1200 4450 
L 4500 4450 
L 4850 4800 
L 5350 4300 
L 1975 4300 
Q 1700 4300 1425 4225 
L 1200 4450 
z
M 1600 275 
Q 2300 300 4725 450 
Q 4425 975 3850 1700 
L 3925 1775 
Q 5200 725 5287 500 
Q 5375 275 5375 175 
Q 5375 0 5250 -162 
Q 5125 -325 5075 -325 
Q 5025 -325 4975 -200 
Q 4875 50 4775 300 
Q 1650 -25 1300 -300 
L 975 300 
Q 1225 350 1462 550 
Q 1700 750 2150 1462 
Q 2600 2175 2725 2600 
L 1250 2600 
Q 925 2600 650 2525 
L 425 2750 
L 5025 2750 
L 5450 3175 
L 6025 2600 
L 3250 2600 
Q 3000 2025 2500 1375 
Q 2000 725 1600 275 
z
" transform="scale(0.015625)"/>
      <path id="SimSun-51fd" d="M 3050 2275 
L 3050 3000 
Q 3050 3450 3025 3800 
L 3275 3625 
L 4450 4475 
L 1650 4475 
Q 1325 4475 1050 4400 
L 825 4625 
L 4450 4625 
L 4775 4875 
L 5150 4375 
Q 4875 4325 4550 4175 
Q 4225 4025 3400 3550 
L 3550 3450 
L 3375 3325 
L 3375 2400 
Q 4250 3225 4475 3600 
L 4875 3150 
L 4625 3125 
Q 3625 2425 3400 2275 
Q 4575 1675 4687 1487 
Q 4800 1300 4800 1150 
Q 4800 1025 4750 925 
Q 4700 825 4675 825 
Q 4575 825 4375 1150 
Q 4075 1600 3375 2150 
L 3375 725 
Q 3375 350 2875 150 
Q 2850 450 2200 650 
L 2200 750 
Q 2800 675 2925 700 
Q 3050 725 3050 850 
L 3050 2100 
Q 1850 1300 1625 1025 
L 1275 1400 
Q 1575 1475 2087 1725 
Q 2600 1975 3050 2275 
z
M 1700 3475 
L 1775 3550 
Q 2350 3200 2475 3025 
Q 2600 2850 2600 2775 
Q 2600 2650 2500 2525 
Q 2400 2400 2350 2400 
Q 2275 2400 2225 2575 
Q 2150 2875 1700 3475 
z
M 5150 0 
L 5150 2175 
Q 5150 2725 5125 3325 
L 5725 3050 
L 5500 2850 
L 5500 525 
Q 5500 100 5525 -400 
L 5150 -600 
L 5150 -150 
L 1250 -150 
L 1000 -375 
L 675 -50 
L 875 125 
L 875 2375 
Q 875 2800 850 3425 
L 1450 3150 
L 1225 2975 
L 1225 0 
L 5150 0 
z
" transform="scale(0.015625)"/>
      <path id="SimSun-6570" d="M 1875 1525 
Q 1675 1200 1500 900 
Q 1825 825 2275 725 
Q 2500 975 2725 1525 
L 1875 1525 
z
M 850 4900 
Q 1325 4600 1425 4450 
Q 1525 4300 1525 4225 
Q 1525 4100 1437 3975 
Q 1350 3850 1300 3850 
Q 1225 3850 1150 4100 
Q 1050 4450 775 4850 
L 850 4900 
z
M 3000 4975 
L 3450 4675 
Q 3250 4625 3100 4425 
Q 2925 4225 2525 3825 
L 2450 3875 
Q 2925 4625 3000 4975 
z
M 1875 5250 
L 2425 5000 
L 2225 4825 
L 2225 3675 
L 2850 3675 
L 3125 3950 
L 3550 3525 
L 2225 3525 
L 2225 3300 
Q 2800 3175 2937 3062 
Q 3075 2950 3075 2775 
Q 3075 2700 3050 2587 
Q 3025 2475 2975 2475 
Q 2925 2475 2800 2650 
Q 2600 2925 2225 3175 
L 2225 2400 
L 1925 2200 
L 2275 2050 
Q 2150 2000 1950 1675 
L 2725 1675 
L 2900 1900 
L 3275 1575 
L 3050 1450 
Q 2800 875 2600 650 
Q 3000 550 3137 437 
Q 3275 325 3275 150 
Q 3275 -25 3200 -25 
Q 3125 -25 3025 75 
Q 2750 275 2400 425 
Q 1525 -275 325 -500 
L 300 -425 
Q 1450 -50 2100 550 
Q 1600 725 1125 800 
Q 1225 950 1525 1525 
L 1200 1525 
Q 875 1525 600 1450 
L 375 1675 
L 1575 1675 
Q 1675 1925 1775 2275 
L 1900 2225 
L 1900 3250 
Q 1225 2475 350 2050 
L 300 2125 
Q 1225 2775 1700 3525 
L 1250 3525 
Q 925 3525 650 3450 
L 425 3675 
L 1900 3675 
Q 1900 4575 1875 5250 
z
M 3925 3525 
Q 4050 2075 4525 1100 
Q 4925 1950 5025 3525 
L 3925 3525 
z
M 4050 5250 
L 4625 4925 
Q 4425 4850 4325 4625 
Q 4225 4400 3950 3675 
L 5375 3675 
L 5675 3975 
L 6125 3525 
L 5400 3525 
Q 5250 1675 4750 775 
Q 5325 75 6100 -100 
L 6100 -200 
Q 5625 -275 5600 -500 
Q 4950 -50 4525 525 
Q 3700 -275 2550 -650 
L 2500 -575 
Q 3650 -50 4325 800 
Q 3850 1975 3825 3375 
Q 3575 2725 3100 2150 
L 3025 2200 
Q 3625 3200 4050 5250 
z
" transform="scale(0.015625)"/>
      <path id="SimSun-49" d="M 600 4225 
L 600 4375 
L 2600 4375 
L 2600 4225 
L 2025 4225 
Q 1925 4225 1862 4175 
Q 1800 4125 1800 4025 
L 1800 450 
Q 1800 350 1862 300 
Q 1925 250 2025 250 
L 2600 250 
L 2600 100 
L 600 100 
L 600 250 
L 1175 250 
Q 1300 250 1350 300 
Q 1400 350 1400 450 
L 1400 4025 
Q 1400 4125 1350 4175 
Q 1300 4225 1175 4225 
L 600 4225 
z
" transform="scale(0.015625)"/>
      <path id="SimSun-44" d="M 2500 2275 
Q 2500 3350 2175 3787 
Q 1850 4225 1275 4225 
Q 1100 4225 1012 4175 
Q 925 4125 925 4025 
L 925 450 
Q 925 350 1000 300 
Q 1075 250 1200 250 
Q 1750 250 2125 662 
Q 2500 1075 2500 2275 
z
M 525 4025 
Q 525 4125 475 4175 
Q 425 4225 300 4225 
L 150 4225 
L 150 4375 
L 1275 4375 
Q 2050 4375 2512 3875 
Q 2975 3375 2975 2325 
Q 2975 1175 2525 637 
Q 2075 100 1200 100 
L 125 100 
L 125 250 
L 300 250 
Q 425 250 475 300 
Q 525 350 525 450 
L 525 4025 
z
" transform="scale(0.015625)"/>
      <path id="SimSun-3a" d="M 1900 2725 
Q 1900 2575 1800 2475 
Q 1700 2375 1550 2375 
Q 1400 2375 1300 2475 
Q 1200 2575 1200 2725 
Q 1200 2875 1300 2975 
Q 1400 3075 1550 3075 
Q 1700 3075 1800 2975 
Q 1900 2875 1900 2725 
z
M 1900 375 
Q 1900 225 1800 125 
Q 1700 25 1550 25 
Q 1400 25 1300 125 
Q 1200 225 1200 375 
Q 1200 525 1300 625 
Q 1400 725 1550 725 
Q 1700 725 1800 625 
Q 1900 525 1900 375 
z
" transform="scale(0.015625)"/>
      <path id="SimSun-20" d="M 0 0 
Q 0 0 0 0 
z
" transform="scale(0.015625)"/>
      <path id="SimSun-32" d="M 2325 3325 
Q 2325 3775 2125 4012 
Q 1925 4250 1525 4250 
Q 1225 4250 1012 4087 
Q 800 3925 800 3675 
Q 800 3525 900 3425 
Q 975 3325 975 3225 
Q 975 3100 912 3037 
Q 850 2975 725 2975 
Q 575 2975 487 3062 
Q 400 3150 400 3350 
Q 400 3875 775 4150 
Q 1150 4425 1575 4425 
Q 2175 4425 2462 4125 
Q 2750 3825 2750 3375 
Q 2750 3075 2612 2775 
Q 2475 2475 2175 2200 
Q 1450 1500 1062 1062 
Q 675 625 600 475 
L 2075 475 
Q 2300 475 2450 650 
Q 2600 825 2650 1175 
L 2800 1175 
L 2650 100 
L 325 100 
L 325 425 
Q 450 650 737 1000 
Q 1025 1350 1500 1825 
Q 1925 2250 2125 2625 
Q 2325 3000 2325 3325 
z
" transform="scale(0.015625)"/>
      <path id="SimSun-38" d="M 625 1125 
Q 625 725 887 475 
Q 1150 225 1550 225 
Q 2025 225 2237 475 
Q 2450 725 2450 1100 
Q 2450 1425 2150 1725 
Q 1850 2025 1250 2275 
Q 950 2075 787 1775 
Q 625 1475 625 1125 
z
M 2825 1175 
Q 2825 700 2475 375 
Q 2125 50 1550 50 
Q 1025 50 650 375 
Q 275 700 275 1125 
Q 275 1550 487 1850 
Q 700 2150 1100 2375 
Q 750 2550 562 2812 
Q 375 3075 375 3400 
Q 375 3825 700 4125 
Q 1025 4425 1600 4425 
Q 2125 4425 2450 4125 
Q 2775 3825 2775 3400 
Q 2775 3100 2587 2837 
Q 2400 2575 2000 2375 
Q 2425 2125 2625 1825 
Q 2825 1525 2825 1175 
z
M 2425 3375 
Q 2425 3725 2225 3987 
Q 2025 4250 1600 4250 
Q 1125 4250 925 4000 
Q 725 3750 725 3475 
Q 725 3200 1012 2937 
Q 1300 2675 1825 2475 
Q 2125 2625 2275 2850 
Q 2425 3075 2425 3375 
z
" transform="scale(0.015625)"/>
     </defs>
     <use xlink:href="#SimSun-4e91"/>
     <use xlink:href="#SimSun-51fd" x="100"/>
     <use xlink:href="#SimSun-6570" x="200"/>
     <use xlink:href="#SimSun-49" x="300"/>
     <use xlink:href="#SimSun-44" x="350"/>
     <use xlink:href="#SimSun-3a" x="400"/>
     <use xlink:href="#SimSun-20" x="450"/>
     <use xlink:href="#SimSun-32" x="500"/>
     <use xlink:href="#SimSun-38" x="550"/>
    </g>
   </g>
   <g id="legend_1">
    <g id="patch_7">
     <path d="M 85.6375 101.934375 
L 209.6375 101.934375 
Q 213.6375 101.934375 213.6375 97.934375 
L 213.6375 43.059375 
Q 213.6375 39.059375 209.6375 39.059375 
L 85.6375 39.059375 
Q 81.6375 39.059375 81.6375 43.059375 
L 81.6375 97.934375 
Q 81.6375 101.934375 85.6375 101.934375 
z
" style="fill: #ffffff; opacity: 0.8; stroke: #cccccc; stroke-linejoin: miter"/>
    </g>
    <g id="line2d_13">
     <path d="M 89.6375 55.996875 
L 109.6375 55.996875 
L 129.6375 55.996875 
" style="fill: none; stroke: #1f77b4; stroke-width: 1.5; stroke-linecap: square"/>
    </g>
    <g id="text_12">
     <!-- 真实值 -->
     <g transform="translate(145.6375 62.996875) scale(0.2 -0.2)">
      <defs>
       <path id="SimSun-771f" d="M 2050 3450 
L 2050 2900 
L 4300 2900 
L 4300 3450 
L 2050 3450 
z
M 2050 2750 
L 2050 2225 
L 4300 2225 
L 4300 2750 
L 2050 2750 
z
M 2050 2075 
L 2050 1550 
L 4300 1550 
L 4300 2075 
L 2050 2075 
z
M 2050 1400 
L 2050 875 
L 4300 875 
L 4300 1400 
L 2050 1400 
z
M 2875 3600 
L 2925 4325 
L 1525 4325 
Q 1200 4325 925 4250 
L 700 4475 
L 2950 4475 
Q 2975 4825 2975 5275 
L 3550 5025 
L 3375 4925 
L 3300 4475 
L 5000 4475 
L 5325 4825 
L 5775 4325 
L 3275 4325 
L 3200 3600 
L 4275 3600 
L 4450 3875 
L 4850 3575 
L 4650 3375 
L 4650 875 
L 5300 875 
L 5675 1225 
L 6125 725 
L 1150 725 
Q 825 725 550 650 
L 325 875 
L 1700 875 
Q 1700 3200 1675 3775 
L 2050 3600 
L 2875 3600 
z
M 2425 725 
L 2825 350 
L 2575 300 
Q 1500 -425 800 -650 
L 775 -575 
Q 1950 125 2425 725 
z
M 3800 700 
Q 4575 375 4962 200 
Q 5350 25 5400 -112 
Q 5450 -250 5450 -325 
Q 5450 -400 5400 -525 
Q 5350 -650 5325 -650 
Q 5250 -650 5100 -450 
Q 4875 -150 3750 625 
L 3800 700 
z
" transform="scale(0.015625)"/>
       <path id="SimSun-5b9e" d="M 1950 3625 
Q 2575 3400 2700 3250 
Q 2825 3100 2825 2975 
Q 2825 2850 2750 2700 
Q 2675 2550 2625 2550 
Q 2550 2550 2450 2800 
Q 2275 3175 1900 3550 
L 1950 3625 
z
M 3575 1325 
Q 3500 1100 3425 925 
Q 4650 550 5087 325 
Q 5525 100 5512 -225 
Q 5500 -550 5400 -550 
Q 5300 -550 5075 -300 
Q 4625 175 3375 800 
Q 3025 175 2300 -150 
Q 1575 -475 425 -625 
L 425 -525 
Q 1475 -325 2200 100 
Q 2925 525 3200 1325 
L 1225 1325 
Q 900 1325 625 1250 
L 400 1475 
L 3225 1475 
Q 3325 1950 3375 2575 
Q 3425 3200 3425 3700 
L 4050 3400 
L 3850 3225 
Q 3750 2300 3625 1475 
L 5175 1475 
L 5550 1850 
L 6075 1325 
L 3575 1325 
z
M 1275 2700 
Q 1975 2425 2100 2262 
Q 2225 2100 2225 1975 
Q 2225 1850 2150 1700 
Q 2075 1550 2025 1550 
Q 1950 1550 1850 1800 
Q 1675 2175 1225 2625 
L 1275 2700 
z
M 2750 5225 
L 2825 5275 
Q 3225 5100 3425 4925 
Q 3625 4750 3625 4600 
Q 3625 4450 3512 4300 
Q 3400 4150 3325 4150 
Q 3250 4150 3200 4400 
Q 3100 4775 2750 5225 
z
M 4975 3225 
L 5350 3925 
L 1175 3925 
Q 1225 3525 1125 3300 
Q 1025 3075 787 3100 
Q 550 3125 550 3200 
Q 550 3300 700 3475 
Q 975 3825 1050 4375 
L 1150 4375 
L 1175 4075 
L 5300 4075 
L 5575 4350 
L 6050 3800 
Q 5625 3825 5050 3175 
L 4975 3225 
z
" transform="scale(0.015625)"/>
       <path id="SimSun-503c" d="M 1525 650 
Q 1525 -225 1550 -525 
L 1175 -650 
Q 1200 250 1200 550 
L 1200 3025 
Q 750 2300 325 1850 
L 250 1900 
Q 725 2625 1100 3525 
Q 1475 4425 1675 5200 
L 2200 4875 
L 1950 4725 
Q 1550 3800 1425 3475 
L 1725 3300 
L 1525 3150 
L 1525 650 
z
M 2875 3225 
L 2875 2475 
L 4800 2475 
L 4800 3225 
L 2875 3225 
z
M 2875 2325 
L 2875 1575 
L 4800 1575 
L 4800 2325 
L 2875 2325 
z
M 2875 1425 
L 2875 675 
L 4800 675 
L 4800 1425 
L 2875 1425 
z
M 2875 525 
L 2875 -225 
L 4800 -225 
L 4800 525 
L 2875 525 
z
M 3550 4250 
Q 3575 4825 3550 5225 
L 4125 4950 
L 3925 4800 
L 3900 4250 
L 5025 4250 
L 5350 4575 
L 5825 4100 
L 3900 4100 
L 3875 3375 
L 4750 3375 
L 4975 3625 
L 5350 3300 
L 5125 3150 
L 5125 -225 
L 5350 -225 
L 5675 100 
L 6150 -375 
L 2450 -375 
Q 2125 -375 1850 -450 
L 1625 -225 
L 2550 -225 
L 2550 2550 
Q 2550 2850 2525 3575 
L 2875 3375 
L 3525 3375 
L 3550 4100 
L 2800 4100 
Q 2475 4100 2200 4025 
L 1975 4250 
L 3550 4250 
z
" transform="scale(0.015625)"/>
      </defs>
      <use xlink:href="#SimSun-771f"/>
      <use xlink:href="#SimSun-5b9e" x="100"/>
      <use xlink:href="#SimSun-503c" x="200"/>
     </g>
    </g>
    <g id="line2d_14">
     <path d="M 89.6375 84.35625 
L 109.6375 84.35625 
L 129.6375 84.35625 
" style="fill: none; stroke: #ff7f0e; stroke-width: 1.5; stroke-linecap: square"/>
    </g>
    <g id="text_13">
     <!-- 预测值 -->
     <g transform="translate(145.6375 91.35625) scale(0.2 -0.2)">
      <defs>
       <path id="SimSun-9884" d="M 475 4825 
L 2225 4825 
L 2425 5075 
L 2825 4675 
Q 2600 4625 2387 4412 
Q 2175 4200 1800 3750 
Q 2050 3575 2037 3400 
Q 2025 3225 1937 3150 
Q 1850 3075 1825 3075 
Q 1725 3075 1650 3300 
Q 1525 3600 1050 4100 
L 1100 4150 
Q 1475 3975 1700 3825 
L 2225 4675 
L 1300 4675 
Q 975 4675 700 4600 
L 475 4825 
z
M 725 100 
Q 1175 50 1362 37 
Q 1550 25 1550 275 
L 1550 2875 
L 1125 2875 
Q 800 2875 525 2800 
L 300 3025 
L 2525 3025 
L 2725 3275 
L 3150 2875 
Q 2800 2825 2275 2075 
L 2200 2125 
L 2550 2875 
L 1875 2875 
L 1875 150 
Q 1875 -400 1350 -500 
Q 1325 -175 725 0 
L 725 100 
z
M 3250 775 
Q 3275 1425 3275 2287 
Q 3275 3150 3250 3900 
L 3600 3700 
L 4050 3700 
Q 4175 4400 4200 4675 
L 3650 4675 
Q 3325 4675 3050 4600 
L 2825 4825 
L 5325 4825 
L 5675 5150 
L 6125 4675 
L 4675 4675 
Q 4500 4425 4175 3700 
L 5300 3700 
L 5475 3975 
L 5875 3675 
L 5675 3475 
L 5675 1950 
Q 5675 1525 5700 1075 
L 5350 875 
L 5350 3550 
L 3600 3550 
L 3600 1000 
L 3250 775 
z
M 4850 2875 
L 4625 2675 
Q 4625 1475 4475 937 
Q 4325 400 3900 50 
Q 3475 -300 2425 -625 
L 2400 -550 
Q 3500 -50 3837 400 
Q 4175 850 4237 1587 
Q 4300 2325 4275 3175 
L 4850 2875 
z
M 4650 950 
Q 5725 375 5875 212 
Q 6025 50 6025 -125 
Q 6025 -225 5962 -387 
Q 5900 -550 5850 -550 
Q 5800 -550 5750 -450 
Q 5625 -250 5437 0 
Q 5250 250 4600 875 
L 4650 950 
z
" transform="scale(0.015625)"/>
       <path id="SimSun-6d4b" d="M 1975 1000 
Q 2000 1475 2000 2925 
Q 2000 4375 1975 5000 
L 2350 4775 
L 3575 4775 
L 3775 4975 
L 4100 4650 
L 3900 4500 
L 3900 2350 
Q 3900 1850 3925 1350 
L 3600 1200 
L 3600 4625 
L 2325 4625 
L 2325 1150 
L 1975 1000 
z
M 2775 3975 
L 3300 3700 
L 3125 3525 
Q 3150 1825 2875 937 
Q 2600 50 1375 -600 
L 1325 -500 
Q 2200 100 2475 725 
Q 2750 1350 2775 2187 
Q 2800 3025 2775 3975 
z
M 3100 950 
Q 3825 450 3937 262 
Q 4050 75 4050 -25 
Q 4050 -150 3975 -262 
Q 3900 -375 3850 -375 
Q 3750 -375 3650 -75 
Q 3500 375 3050 875 
L 3100 950 
z
M 4475 825 
Q 4500 1200 4500 1700 
L 4500 3400 
Q 4500 3950 4475 4300 
L 5025 4025 
L 4825 3825 
L 4825 1700 
Q 4825 1325 4850 950 
L 4475 825 
z
M 5375 150 
L 5375 4050 
Q 5375 4750 5350 5125 
L 5875 4875 
L 5700 4700 
L 5700 75 
Q 5700 -200 5600 -350 
Q 5500 -500 5200 -600 
Q 5025 -225 4450 -50 
L 4450 50 
Q 5125 -50 5250 -37 
Q 5375 -25 5375 150 
z
M 1850 3500 
Q 1375 1525 1300 1225 
Q 1200 900 1212 450 
Q 1225 0 1250 -175 
Q 1250 -275 1125 -275 
Q 1025 -275 875 -225 
Q 725 -175 725 0 
Q 725 125 800 375 
Q 875 625 875 775 
Q 875 950 762 1050 
Q 650 1150 275 1250 
L 275 1350 
Q 725 1300 837 1312 
Q 950 1325 1087 1537 
Q 1225 1750 1750 3525 
L 1850 3500 
z
M 375 3775 
Q 1075 3350 1112 3100 
Q 1150 2850 1050 2775 
Q 950 2700 900 2700 
Q 800 2700 725 2975 
Q 600 3350 325 3700 
L 375 3775 
z
M 800 5100 
Q 1475 4725 1550 4512 
Q 1625 4300 1525 4187 
Q 1425 4075 1350 4075 
Q 1275 4075 1200 4300 
Q 1075 4650 750 5025 
L 800 5100 
z
" transform="scale(0.015625)"/>
      </defs>
      <use xlink:href="#SimSun-9884"/>
      <use xlink:href="#SimSun-6d4b" x="100"/>
      <use xlink:href="#SimSun-503c" x="200"/>
     </g>
    </g>
   </g>
  </g>
  <g id="axes_2">
   <g id="patch_8">
    <path d="M 71.6375 309.916875 
L 1032.489189 309.916875 
L 1032.489189 203.659375 
L 71.6375 203.659375 
z
" style="fill: #ffffff"/>
   </g>
   <g id="matplotlib.axis_3">
    <g id="xtick_8">
     <g id="line2d_15">
      <g>
       <use xlink:href="#maf4b6dad0f" x="115.312577" y="309.916875" style="stroke: #000000; stroke-width: 0.8"/>
      </g>
     </g>
     <g id="text_14">
      <!-- 0 -->
      <g transform="translate(110.312577 330.804375) scale(0.2 -0.2)">
       <use xlink:href="#TimesNewRomanPSMT-30"/>
      </g>
     </g>
    </g>
    <g id="xtick_9">
     <g id="line2d_16">
      <g>
       <use xlink:href="#maf4b6dad0f" x="267.490545" y="309.916875" style="stroke: #000000; stroke-width: 0.8"/>
      </g>
     </g>
     <g id="text_15">
      <!-- 50 -->
      <g transform="translate(257.490545 330.804375) scale(0.2 -0.2)">
       <use xlink:href="#TimesNewRomanPSMT-35"/>
       <use xlink:href="#TimesNewRomanPSMT-30" x="50"/>
      </g>
     </g>
    </g>
    <g id="xtick_10">
     <g id="line2d_17">
      <g>
       <use xlink:href="#maf4b6dad0f" x="419.668513" y="309.916875" style="stroke: #000000; stroke-width: 0.8"/>
      </g>
     </g>
     <g id="text_16">
      <!-- 100 -->
      <g transform="translate(404.668513 330.804375) scale(0.2 -0.2)">
       <use xlink:href="#TimesNewRomanPSMT-31"/>
       <use xlink:href="#TimesNewRomanPSMT-30" x="50"/>
       <use xlink:href="#TimesNewRomanPSMT-30" x="100"/>
      </g>
     </g>
    </g>
    <g id="xtick_11">
     <g id="line2d_18">
      <g>
       <use xlink:href="#maf4b6dad0f" x="571.84648" y="309.916875" style="stroke: #000000; stroke-width: 0.8"/>
      </g>
     </g>
     <g id="text_17">
      <!-- 150 -->
      <g transform="translate(556.84648 330.804375) scale(0.2 -0.2)">
       <use xlink:href="#TimesNewRomanPSMT-31"/>
       <use xlink:href="#TimesNewRomanPSMT-35" x="50"/>
       <use xlink:href="#TimesNewRomanPSMT-30" x="100"/>
      </g>
     </g>
    </g>
    <g id="xtick_12">
     <g id="line2d_19">
      <g>
       <use xlink:href="#maf4b6dad0f" x="724.024448" y="309.916875" style="stroke: #000000; stroke-width: 0.8"/>
      </g>
     </g>
     <g id="text_18">
      <!-- 200 -->
      <g transform="translate(709.024448 330.804375) scale(0.2 -0.2)">
       <use xlink:href="#TimesNewRomanPSMT-32"/>
       <use xlink:href="#TimesNewRomanPSMT-30" x="50"/>
       <use xlink:href="#TimesNewRomanPSMT-30" x="100"/>
      </g>
     </g>
    </g>
    <g id="xtick_13">
     <g id="line2d_20">
      <g>
       <use xlink:href="#maf4b6dad0f" x="876.202416" y="309.916875" style="stroke: #000000; stroke-width: 0.8"/>
      </g>
     </g>
     <g id="text_19">
      <!-- 250 -->
      <g transform="translate(861.202416 330.804375) scale(0.2 -0.2)">
       <use xlink:href="#TimesNewRomanPSMT-32"/>
       <use xlink:href="#TimesNewRomanPSMT-35" x="50"/>
       <use xlink:href="#TimesNewRomanPSMT-30" x="100"/>
      </g>
     </g>
    </g>
    <g id="xtick_14">
     <g id="line2d_21">
      <g>
       <use xlink:href="#maf4b6dad0f" x="1028.380384" y="309.916875" style="stroke: #000000; stroke-width: 0.8"/>
      </g>
     </g>
     <g id="text_20">
      <!-- 300 -->
      <g transform="translate(1013.380384 330.804375) scale(0.2 -0.2)">
       <use xlink:href="#TimesNewRomanPSMT-33"/>
       <use xlink:href="#TimesNewRomanPSMT-30" x="50"/>
       <use xlink:href="#TimesNewRomanPSMT-30" x="100"/>
      </g>
     </g>
    </g>
   </g>
   <g id="matplotlib.axis_4">
    <g id="ytick_3">
     <g id="line2d_22">
      <g>
       <use xlink:href="#m49d8f43b47" x="71.6375" y="306.2159" style="stroke: #000000; stroke-width: 0.8"/>
      </g>
     </g>
     <g id="text_21">
      <!-- 0.0 -->
      <g transform="translate(39.6375 313.15965) scale(0.2 -0.2)">
       <use xlink:href="#TimesNewRomanPSMT-30"/>
       <use xlink:href="#TimesNewRomanPSMT-2e" x="50"/>
       <use xlink:href="#TimesNewRomanPSMT-30" x="75"/>
      </g>
     </g>
    </g>
    <g id="ytick_4">
     <g id="line2d_23">
      <g>
       <use xlink:href="#m49d8f43b47" x="71.6375" y="234.273439" style="stroke: #000000; stroke-width: 0.8"/>
      </g>
     </g>
     <g id="text_22">
      <!-- 1.0 -->
      <g transform="translate(39.6375 241.217189) scale(0.2 -0.2)">
       <use xlink:href="#TimesNewRomanPSMT-31"/>
       <use xlink:href="#TimesNewRomanPSMT-2e" x="50"/>
       <use xlink:href="#TimesNewRomanPSMT-30" x="75"/>
      </g>
     </g>
    </g>
    <g id="text_23">
     <!-- CPU使用率 -->
     <g transform="translate(33.059375 301.788125) rotate(-90) scale(0.2 -0.2)">
      <use xlink:href="#SimSun-43"/>
      <use xlink:href="#SimSun-50" x="50"/>
      <use xlink:href="#SimSun-55" x="100"/>
      <use xlink:href="#SimSun-4f7f" x="150"/>
      <use xlink:href="#SimSun-7528" x="250"/>
      <use xlink:href="#SimSun-7387" x="350"/>
     </g>
    </g>
   </g>
   <g id="line2d_24">
    <path d="M 115.312577 230.935312 
L 118.356136 231.625954 
L 121.399695 227.827396 
L 124.443255 228.172718 
L 127.486814 224.37416 
L 130.530374 229.55401 
L 133.573933 224.719481 
L 136.617492 229.55401 
L 139.661052 230.589982 
L 142.704611 227.827396 
L 145.74817 228.172718 
L 148.79173 227.827396 
L 151.835289 222.302216 
L 154.878848 217.122357 
L 157.922408 224.719481 
L 160.965967 225.755453 
L 164.009526 224.719481 
L 167.053086 227.827396 
L 170.096645 226.100774 
L 173.140205 227.827396 
L 176.183764 229.208689 
L 179.227323 228.863368 
L 182.270883 227.482067 
L 185.314442 228.518039 
L 188.358001 227.827396 
L 191.401561 226.446095 
L 194.44512 227.827396 
L 197.488679 223.338188 
L 200.532239 225.755453 
L 203.575798 225.410132 
L 206.619357 225.410132 
L 209.662917 223.338188 
L 212.706476 221.611565 
L 215.750036 215.741064 
L 218.793595 216.431706 
L 221.837154 219.194301 
L 224.880714 216.431706 
L 227.924273 220.575594 
L 230.967832 221.611565 
L 234.011392 218.848971 
L 237.054951 221.266244 
L 240.09851 219.884943 
L 243.14207 219.539622 
L 246.185629 220.920915 
L 249.229188 222.992858 
L 252.272748 220.920915 
L 255.316307 221.266244 
L 258.359867 217.467678 
L 261.403426 221.611565 
L 264.446985 224.719481 
L 267.490545 218.50365 
L 270.534104 218.50365 
L 276.621223 217.812999 
L 279.664782 218.158329 
L 282.708341 220.230273 
L 285.751901 220.575594 
L 288.79546 219.194301 
L 291.83902 219.194301 
L 294.882579 220.230273 
L 297.926138 220.920915 
L 300.969698 221.266244 
L 304.013257 219.194301 
L 307.056816 214.359763 
L 310.100376 216.431706 
L 313.143935 215.395735 
L 316.187494 216.086385 
L 319.231054 217.467678 
L 322.274613 217.467678 
L 325.318172 221.611565 
L 328.361732 219.194301 
L 331.405291 218.50365 
L 334.448851 219.194301 
L 337.49241 220.920915 
L 340.535969 219.194301 
L 343.579529 219.194301 
L 346.623088 224.719481 
L 349.666647 224.37416 
L 352.710207 228.518039 
L 355.753766 228.172718 
L 358.797325 221.611565 
L 361.840885 208.489261 
L 364.884444 230.589982 
L 367.928003 227.482067 
L 370.971563 233.352577 
L 374.015122 231.625954 
L 377.058682 236.460488 
L 380.102241 225.755453 
L 383.1458 243.712291 
L 386.18936 244.748263 
L 389.232919 247.856174 
L 392.276478 250.618768 
L 395.320038 249.237471 
L 398.363597 243.712291 
L 401.407156 253.381358 
L 404.450716 256.489269 
L 407.494275 254.41733 
L 410.537834 257.870567 
L 413.581394 254.072005 
L 416.624953 248.546824 
L 419.668513 262.359775 
L 422.712072 264.086393 
L 425.755631 265.467691 
L 428.799191 264.431719 
L 431.84275 268.920927 
L 434.886309 267.884955 
L 437.929869 272.028843 
L 440.973428 273.064814 
L 444.016987 275.136758 
L 447.060547 276.17273 
L 450.104106 274.791433 
L 453.147665 293.784239 
L 456.191225 277.554023 
L 459.234784 279.280645 
L 462.278344 280.316613 
L 465.321903 282.043235 
L 468.365462 282.733882 
L 471.409022 283.079207 
L 474.452581 284.805826 
L 477.49614 285.496472 
L 480.5397 286.532444 
L 483.583259 287.913737 
L 489.670378 287.913737 
L 492.713937 289.640356 
L 498.801056 291.021649 
L 501.844615 291.366974 
L 504.888175 292.057625 
L 507.931734 291.712296 
L 510.975293 292.748267 
L 514.018853 293.438918 
L 517.062412 293.438918 
L 523.149531 294.129569 
L 526.19309 294.129569 
L 532.280209 295.510862 
L 535.323768 295.510862 
L 541.410887 296.201504 
L 544.454446 295.510862 
L 547.498006 296.201504 
L 550.541565 296.201504 
L 553.585124 296.892155 
L 556.628684 296.546834 
L 559.672243 297.582805 
L 562.715802 296.892155 
L 565.759362 296.892155 
L 568.802921 297.582805 
L 571.84648 297.582805 
L 574.89004 297.928126 
L 577.933599 297.582805 
L 584.020718 297.582805 
L 587.064277 297.928126 
L 590.107837 297.582805 
L 593.151396 297.928126 
L 596.194955 297.928126 
L 599.238515 297.582805 
L 602.282074 298.618777 
L 605.325633 297.928126 
L 608.369193 297.928126 
L 611.412752 297.582805 
L 626.630549 297.582805 
L 629.674108 297.237476 
L 632.717668 296.546834 
L 635.761227 294.820211 
L 641.848346 295.510862 
L 647.935464 294.129569 
L 650.979024 294.129569 
L 654.022583 292.402946 
L 657.066142 292.748267 
L 660.109702 292.748267 
L 663.153261 292.057625 
L 666.19682 290.676328 
L 669.24038 289.985677 
L 672.283939 279.971292 
L 675.327499 286.187119 
L 678.371058 283.424528 
L 681.414617 283.424528 
L 684.458177 281.007264 
L 687.501736 279.625966 
L 690.545295 272.374168 
L 693.588855 277.554023 
L 696.632414 273.755461 
L 699.675973 273.755461 
L 702.719533 270.302224 
L 705.763092 267.539634 
L 708.806651 240.25905 
L 711.850211 260.287831 
L 714.89377 252.690707 
L 717.93733 256.834595 
L 720.980889 253.036033 
L 724.024448 252.690707 
L 727.068008 236.460488 
L 730.111567 252.345386 
L 733.155126 249.928117 
L 736.198686 250.964089 
L 739.242245 247.856174 
L 742.285804 245.784234 
L 745.329364 233.352577 
L 748.372923 239.223078 
L 751.416482 238.877757 
L 754.460042 241.640347 
L 757.503601 240.25905 
L 760.547161 240.604375 
L 763.59072 235.769841 
L 766.634279 243.712291 
L 769.677839 243.366965 
L 772.721398 243.366965 
L 775.764957 240.25905 
L 778.808517 238.18711 
L 781.852076 231.280633 
L 784.895635 227.482067 
L 787.939195 228.863368 
L 790.982754 228.172718 
L 794.026313 226.100774 
L 797.069873 228.863368 
L 800.113432 227.136746 
L 803.156992 233.007247 
L 806.200551 233.007247 
L 812.28767 229.55401 
L 815.331229 229.208689 
L 818.374788 220.920915 
L 821.418348 220.230273 
L 824.461907 219.194301 
L 827.505466 220.920915 
L 830.549026 225.064802 
L 833.592585 225.755453 
L 836.636144 223.683509 
L 839.679704 222.992858 
L 842.723263 217.812999 
L 845.766823 220.230273 
L 848.810382 223.683509 
L 851.853941 223.338188 
L 854.897501 224.02883 
L 857.94106 210.561205 
L 860.984619 215.741064 
L 864.028179 224.719481 
L 867.071738 225.410132 
L 870.115297 220.920915 
L 873.158857 224.02883 
L 876.202416 226.446095 
L 879.245975 226.100774 
L 882.289535 225.410132 
L 885.333094 225.755453 
L 888.376654 226.791425 
L 891.420213 270.992871 
L 894.463772 209.870554 
L 897.507332 212.633149 
L 900.550891 219.539622 
L 903.59445 219.194301 
L 906.63801 220.920915 
L 909.681569 225.064802 
L 915.768688 227.827396 
L 918.812247 227.827396 
L 921.855806 230.244661 
L 924.899366 230.244661 
L 927.942925 226.100774 
L 930.986485 225.064802 
L 934.030044 226.791425 
L 937.073603 229.89934 
L 940.117163 233.697898 
L 943.160722 231.971284 
L 946.204281 232.316605 
L 949.247841 231.280633 
L 952.2914 233.352577 
L 955.334959 233.007247 
L 958.378519 232.316605 
L 961.422078 234.388544 
L 964.465637 225.410132 
L 967.509197 221.611565 
L 970.552756 228.863368 
L 973.596316 229.89934 
L 976.639875 229.89934 
L 979.683434 231.625954 
L 982.726994 228.863368 
L 985.770553 232.661926 
L 988.814112 230.935312 
L 988.814112 230.935312 
" clip-path="url(#p83e40b2255)" style="fill: none; stroke: #1f77b4; stroke-width: 1.5; stroke-linecap: square"/>
   </g>
   <g id="line2d_25">
    <path d="M 553.585124 294.76781 
L 556.628684 297.671904 
L 559.672243 298.302555 
L 562.715802 297.170213 
L 565.759362 298.377588 
L 568.802921 301.015914 
L 571.84648 303.281028 
L 574.89004 300.757873 
L 577.933599 301.341432 
L 580.977158 302.635488 
L 584.020718 301.128734 
L 587.064277 305.086989 
L 590.107837 304.648624 
L 593.151396 302.950655 
L 596.194955 303.482131 
L 599.238515 302.637898 
L 602.282074 299.681464 
L 605.325633 300.55369 
L 608.369193 302.878923 
L 611.412752 302.014467 
L 614.456311 301.460839 
L 617.499871 303.017146 
L 620.54343 301.290086 
L 623.586989 304.437204 
L 626.630549 303.545252 
L 629.674108 304.0825 
L 632.717668 301.249564 
L 635.761227 301.387469 
L 638.804786 299.047691 
L 641.848346 300.907219 
L 644.891905 296.467958 
L 647.935464 297.771148 
L 650.979024 299.80334 
L 654.022583 295.044179 
L 657.066142 297.402482 
L 660.109702 294.678249 
L 666.19682 292.163944 
L 669.24038 291.718102 
L 672.283939 289.472666 
L 675.327499 286.367403 
L 681.414617 284.62729 
L 684.458177 282.572456 
L 687.501736 279.70166 
L 690.545295 281.527338 
L 693.588855 280.045823 
L 696.632414 279.418577 
L 699.675973 281.683674 
L 705.763092 274.680645 
L 708.806651 272.59269 
L 711.850211 270.21527 
L 714.89377 267.319204 
L 717.93733 267.66049 
L 720.980889 266.569691 
L 724.024448 266.045221 
L 727.068008 263.700678 
L 730.111567 263.003218 
L 733.155126 260.821615 
L 736.198686 261.283203 
L 739.242245 259.623149 
L 742.285804 260.49595 
L 745.329364 256.412894 
L 748.372923 254.143865 
L 751.416482 255.081815 
L 754.460042 255.869733 
L 757.503601 255.45997 
L 760.547161 254.185862 
L 763.59072 253.972435 
L 766.634279 252.391668 
L 769.677839 251.652484 
L 772.721398 251.260903 
L 775.764957 251.667506 
L 778.808517 251.04953 
L 781.852076 250.552748 
L 784.895635 250.722159 
L 787.939195 251.519111 
L 790.982754 249.332954 
L 794.026313 250.821205 
L 797.069873 248.586614 
L 800.113432 250.708921 
L 803.156992 251.843215 
L 806.200551 249.245571 
L 809.24411 249.596342 
L 812.28767 247.502632 
L 815.331229 250.900329 
L 818.374788 247.530496 
L 821.418348 248.995892 
L 824.461907 248.444913 
L 827.505466 248.130398 
L 830.549026 249.382679 
L 833.592585 249.153806 
L 836.636144 248.558154 
L 839.679704 250.664248 
L 845.766823 249.68225 
L 848.810382 249.290502 
L 851.853941 246.848139 
L 854.897501 245.560781 
L 857.94106 246.008163 
L 860.984619 244.561906 
L 864.028179 246.386983 
L 867.071738 247.493597 
L 870.115297 245.90199 
L 876.202416 244.994194 
L 879.245975 242.757789 
L 882.289535 246.574987 
L 885.333094 245.495195 
L 888.376654 244.816027 
L 891.420213 243.868644 
L 894.463772 241.140744 
L 897.507332 240.442662 
L 900.550891 245.165945 
L 903.59445 239.779644 
L 906.63801 241.43089 
L 909.681569 242.544014 
L 912.725128 242.111854 
L 915.768688 239.583476 
L 918.812247 241.308756 
L 921.855806 237.574495 
L 924.899366 236.541306 
L 927.942925 237.260515 
L 930.986485 234.94035 
L 934.030044 237.864456 
L 937.073603 235.191668 
L 940.117163 236.452684 
L 943.160722 236.534831 
L 946.204281 236.074906 
L 949.247841 237.345939 
L 952.2914 235.010126 
L 955.334959 233.978065 
L 958.378519 234.376872 
L 961.422078 235.727218 
L 964.465637 233.152271 
L 967.509197 233.673953 
L 970.552756 231.647137 
L 973.596316 230.756601 
L 976.639875 233.567582 
L 979.683434 234.037721 
L 982.726994 234.333163 
L 985.770553 232.313715 
L 988.814112 232.406612 
L 988.814112 232.406612 
" clip-path="url(#p83e40b2255)" style="fill: none; stroke: #ff7f0e; stroke-width: 1.5; stroke-linecap: square"/>
   </g>
   <g id="line2d_26">
    <path d="M 553.585124 309.916875 
L 553.585124 203.659375 
" clip-path="url(#p83e40b2255)" style="fill: none; stroke-dasharray: 7.4,3.2; stroke-dashoffset: 0; stroke: #0000ff; stroke-width: 2"/>
   </g>
   <g id="patch_9">
    <path d="M 71.6375 309.916875 
L 71.6375 203.659375 
" style="fill: none; stroke: #000000; stroke-width: 0.8; stroke-linejoin: miter; stroke-linecap: square"/>
   </g>
   <g id="patch_10">
    <path d="M 1032.489189 309.916875 
L 1032.489189 203.659375 
" style="fill: none; stroke: #000000; stroke-width: 0.8; stroke-linejoin: miter; stroke-linecap: square"/>
   </g>
   <g id="patch_11">
    <path d="M 71.6375 309.916875 
L 1032.489189 309.916875 
" style="fill: none; stroke: #000000; stroke-width: 0.8; stroke-linejoin: miter; stroke-linecap: square"/>
   </g>
   <g id="patch_12">
    <path d="M 71.6375 203.659375 
L 1032.489189 203.659375 
" style="fill: none; stroke: #000000; stroke-width: 0.8; stroke-linejoin: miter; stroke-linecap: square"/>
   </g>
   <g id="text_24">
    <!-- 云函数ID: 72 -->
    <g transform="translate(492.063345 197.659375) scale(0.2 -0.2)">
     <defs>
      <path id="SimSun-37" d="M 2825 4200 
Q 2300 3350 1987 2537 
Q 1675 1725 1675 1125 
Q 1675 1025 1700 850 
Q 1700 650 1700 400 
Q 1700 200 1637 125 
Q 1575 50 1425 50 
Q 1300 50 1212 137 
Q 1125 225 1125 450 
Q 1125 925 1337 1625 
Q 1550 2325 2475 4000 
L 1225 4000 
Q 950 4000 787 3825 
Q 625 3650 550 3300 
L 400 3325 
L 575 4375 
L 2825 4375 
L 2825 4200 
z
" transform="scale(0.015625)"/>
     </defs>
     <use xlink:href="#SimSun-4e91"/>
     <use xlink:href="#SimSun-51fd" x="100"/>
     <use xlink:href="#SimSun-6570" x="200"/>
     <use xlink:href="#SimSun-49" x="300"/>
     <use xlink:href="#SimSun-44" x="350"/>
     <use xlink:href="#SimSun-3a" x="400"/>
     <use xlink:href="#SimSun-20" x="450"/>
     <use xlink:href="#SimSun-37" x="500"/>
     <use xlink:href="#SimSun-32" x="550"/>
    </g>
   </g>
  </g>
  <g id="axes_3">
   <g id="patch_13">
    <path d="M 71.6375 484.516875 
L 1032.489189 484.516875 
L 1032.489189 378.259375 
L 71.6375 378.259375 
z
" style="fill: #ffffff"/>
   </g>
   <g id="matplotlib.axis_5">
    <g id="xtick_15">
     <g id="line2d_27">
      <g>
       <use xlink:href="#maf4b6dad0f" x="115.312577" y="484.516875" style="stroke: #000000; stroke-width: 0.8"/>
      </g>
     </g>
     <g id="text_25">
      <!-- 0 -->
      <g transform="translate(110.312577 505.404375) scale(0.2 -0.2)">
       <use xlink:href="#TimesNewRomanPSMT-30"/>
      </g>
     </g>
    </g>
    <g id="xtick_16">
     <g id="line2d_28">
      <g>
       <use xlink:href="#maf4b6dad0f" x="267.490545" y="484.516875" style="stroke: #000000; stroke-width: 0.8"/>
      </g>
     </g>
     <g id="text_26">
      <!-- 50 -->
      <g transform="translate(257.490545 505.404375) scale(0.2 -0.2)">
       <use xlink:href="#TimesNewRomanPSMT-35"/>
       <use xlink:href="#TimesNewRomanPSMT-30" x="50"/>
      </g>
     </g>
    </g>
    <g id="xtick_17">
     <g id="line2d_29">
      <g>
       <use xlink:href="#maf4b6dad0f" x="419.668513" y="484.516875" style="stroke: #000000; stroke-width: 0.8"/>
      </g>
     </g>
     <g id="text_27">
      <!-- 100 -->
      <g transform="translate(404.668513 505.404375) scale(0.2 -0.2)">
       <use xlink:href="#TimesNewRomanPSMT-31"/>
       <use xlink:href="#TimesNewRomanPSMT-30" x="50"/>
       <use xlink:href="#TimesNewRomanPSMT-30" x="100"/>
      </g>
     </g>
    </g>
    <g id="xtick_18">
     <g id="line2d_30">
      <g>
       <use xlink:href="#maf4b6dad0f" x="571.84648" y="484.516875" style="stroke: #000000; stroke-width: 0.8"/>
      </g>
     </g>
     <g id="text_28">
      <!-- 150 -->
      <g transform="translate(556.84648 505.404375) scale(0.2 -0.2)">
       <use xlink:href="#TimesNewRomanPSMT-31"/>
       <use xlink:href="#TimesNewRomanPSMT-35" x="50"/>
       <use xlink:href="#TimesNewRomanPSMT-30" x="100"/>
      </g>
     </g>
    </g>
    <g id="xtick_19">
     <g id="line2d_31">
      <g>
       <use xlink:href="#maf4b6dad0f" x="724.024448" y="484.516875" style="stroke: #000000; stroke-width: 0.8"/>
      </g>
     </g>
     <g id="text_29">
      <!-- 200 -->
      <g transform="translate(709.024448 505.404375) scale(0.2 -0.2)">
       <use xlink:href="#TimesNewRomanPSMT-32"/>
       <use xlink:href="#TimesNewRomanPSMT-30" x="50"/>
       <use xlink:href="#TimesNewRomanPSMT-30" x="100"/>
      </g>
     </g>
    </g>
    <g id="xtick_20">
     <g id="line2d_32">
      <g>
       <use xlink:href="#maf4b6dad0f" x="876.202416" y="484.516875" style="stroke: #000000; stroke-width: 0.8"/>
      </g>
     </g>
     <g id="text_30">
      <!-- 250 -->
      <g transform="translate(861.202416 505.404375) scale(0.2 -0.2)">
       <use xlink:href="#TimesNewRomanPSMT-32"/>
       <use xlink:href="#TimesNewRomanPSMT-35" x="50"/>
       <use xlink:href="#TimesNewRomanPSMT-30" x="100"/>
      </g>
     </g>
    </g>
    <g id="xtick_21">
     <g id="line2d_33">
      <g>
       <use xlink:href="#maf4b6dad0f" x="1028.380384" y="484.516875" style="stroke: #000000; stroke-width: 0.8"/>
      </g>
     </g>
     <g id="text_31">
      <!-- 300 -->
      <g transform="translate(1013.380384 505.404375) scale(0.2 -0.2)">
       <use xlink:href="#TimesNewRomanPSMT-33"/>
       <use xlink:href="#TimesNewRomanPSMT-30" x="50"/>
       <use xlink:href="#TimesNewRomanPSMT-30" x="100"/>
      </g>
     </g>
    </g>
   </g>
   <g id="matplotlib.axis_6">
    <g id="ytick_5">
     <g id="line2d_34">
      <g>
       <use xlink:href="#m49d8f43b47" x="71.6375" y="434.86512" style="stroke: #000000; stroke-width: 0.8"/>
      </g>
     </g>
     <g id="text_32">
      <!-- 2.0 -->
      <g transform="translate(39.6375 441.80887) scale(0.2 -0.2)">
       <use xlink:href="#TimesNewRomanPSMT-32"/>
       <use xlink:href="#TimesNewRomanPSMT-2e" x="50"/>
       <use xlink:href="#TimesNewRomanPSMT-30" x="75"/>
      </g>
     </g>
    </g>
    <g id="ytick_6">
     <g id="line2d_35">
      <g>
       <use xlink:href="#m49d8f43b47" x="71.6375" y="380.522409" style="stroke: #000000; stroke-width: 0.8"/>
      </g>
     </g>
     <g id="text_33">
      <!-- 4.0 -->
      <g transform="translate(39.6375 387.466159) scale(0.2 -0.2)">
       <defs>
        <path id="TimesNewRomanPSMT-34" d="M 2978 1563 
L 2978 1119 
L 2409 1119 
L 2409 0 
L 1894 0 
L 1894 1119 
L 100 1119 
L 100 1519 
L 2066 4325 
L 2409 4325 
L 2409 1563 
L 2978 1563 
z
M 1894 1563 
L 1894 3666 
L 406 1563 
L 1894 1563 
z
" transform="scale(0.015625)"/>
       </defs>
       <use xlink:href="#TimesNewRomanPSMT-34"/>
       <use xlink:href="#TimesNewRomanPSMT-2e" x="50"/>
       <use xlink:href="#TimesNewRomanPSMT-30" x="75"/>
      </g>
     </g>
    </g>
    <g id="text_34">
     <!-- CPU使用率 -->
     <g transform="translate(33.059375 476.388125) rotate(-90) scale(0.2 -0.2)">
      <use xlink:href="#SimSun-43"/>
      <use xlink:href="#SimSun-50" x="50"/>
      <use xlink:href="#SimSun-55" x="100"/>
      <use xlink:href="#SimSun-4f7f" x="150"/>
      <use xlink:href="#SimSun-7528" x="250"/>
      <use xlink:href="#SimSun-7387" x="350"/>
     </g>
    </g>
   </g>
   <g id="line2d_36">
    <path d="M 115.312577 416.301653 
L 118.356136 415.12785 
L 121.399695 415.388693 
L 124.443255 416.823339 
L 127.486814 415.649536 
L 130.530374 416.562496 
L 133.573933 415.12785 
L 136.617492 415.910385 
L 139.661052 404.172355 
L 142.704611 412.910662 
L 145.74817 416.69292 
L 148.79173 416.432071 
L 151.835289 417.084188 
L 154.878848 418.388409 
L 157.922408 416.69292 
L 160.965967 419.170945 
L 164.009526 421.127283 
L 167.053086 421.518551 
L 170.096645 421.127283 
L 173.140205 423.344464 
L 176.183764 421.257708 
L 179.227323 424.387849 
L 182.270883 424.387849 
L 185.314442 428.430944 
L 188.358001 428.300519 
L 191.401561 430.908968 
L 194.44512 431.039393 
L 197.488679 432.213196 
L 200.532239 434.169534 
L 206.619357 438.864743 
L 209.662917 436.256294 
L 212.706476 458.167274 
L 215.750036 441.212349 
L 218.793595 442.25573 
L 221.837154 443.951219 
L 224.880714 446.559672 
L 227.924273 447.60305 
L 230.967832 449.950656 
L 234.011392 450.733191 
L 237.054951 452.037416 
L 240.09851 453.863332 
L 243.14207 455.558825 
L 246.185629 456.993471 
L 249.229188 457.776006 
L 252.272748 459.732344 
L 255.316307 460.906147 
L 258.359867 461.819104 
L 261.403426 463.645019 
L 264.446985 465.21009 
L 267.490545 464.557978 
L 273.577663 467.427273 
L 276.621223 468.079385 
L 279.664782 469.122765 
L 282.708341 469.253188 
L 285.751901 468.86192 
L 288.79546 468.079385 
L 291.83902 468.86192 
L 294.882579 469.774877 
L 297.926138 469.9053 
L 300.969698 470.687836 
L 304.013257 470.94868 
L 307.056816 471.600792 
L 310.100376 472.383328 
L 313.143935 472.644172 
L 316.187494 472.513749 
L 319.231054 473.296285 
L 322.274613 474.470088 
L 325.318172 475.774314 
L 328.361732 476.426426 
L 331.405291 476.68727 
L 334.448851 477.339383 
L 340.535969 477.339383 
L 343.579529 477.600227 
L 346.623088 477.991495 
L 352.710207 478.252341 
L 355.753766 478.252341 
L 358.797325 474.339664 
L 361.840885 479.556566 
L 364.884444 479.295721 
L 367.928003 479.556566 
L 370.971563 479.295721 
L 374.015122 479.686989 
L 377.058682 479.295721 
L 380.102241 479.295721 
L 386.18936 479.556566 
L 389.232919 479.426142 
L 392.276478 479.426142 
L 395.320038 478.252341 
L 398.363597 478.643609 
L 401.407156 478.382763 
L 404.450716 478.382763 
L 407.494275 478.121918 
L 413.581394 476.817694 
L 416.624953 476.556847 
L 419.668513 476.035158 
L 422.712072 475.383046 
L 425.755631 474.861355 
L 428.799191 473.687552 
L 431.84275 468.86192 
L 434.886309 470.557412 
L 437.929869 469.253188 
L 440.973428 468.470653 
L 444.016987 466.905582 
L 447.060547 465.992625 
L 450.104106 461.297415 
L 453.147665 461.819104 
L 456.191225 459.99319 
L 459.234784 458.819387 
L 462.278344 456.471781 
L 465.321903 456.210935 
L 468.365462 438.343054 
L 471.409022 450.081077 
L 474.452581 448.385585 
L 477.49614 446.950939 
L 480.5397 444.603333 
L 483.583259 444.733755 
L 486.626818 441.603617 
L 489.670378 441.212349 
L 492.713937 438.995168 
L 495.757496 440.168971 
L 498.801056 436.386716 
L 501.844615 435.082491 
L 504.888175 427.387566 
L 507.931734 428.691787 
L 510.975293 428.561369 
L 514.018853 428.691787 
L 517.062412 426.865873 
L 520.105971 426.996298 
L 523.149531 425.69207 
L 526.19309 429.213479 
L 529.236649 429.474322 
L 532.280209 428.822212 
L 535.323768 428.822212 
L 538.367327 425.03996 
L 541.410887 425.03996 
L 544.454446 424.257424 
L 547.498006 424.909535 
L 550.541565 424.518267 
L 553.585124 420.475172 
L 556.628684 425.952913 
L 559.672243 423.083621 
L 562.715802 427.126716 
L 565.759362 428.039676 
L 568.802921 428.300519 
L 571.84648 424.77911 
L 574.89004 427.387566 
L 577.933599 418.257985 
L 580.977158 420.605591 
L 584.020718 420.083905 
L 587.064277 424.518267 
L 590.107837 425.561646 
L 593.151396 427.257141 
L 596.194955 427.648409 
L 599.238515 425.431227 
L 602.282074 424.648692 
L 605.325633 425.03996 
L 608.369193 426.996298 
L 611.412752 428.691787 
L 614.456311 426.60503 
L 617.499871 423.605314 
L 620.54343 424.518267 
L 623.586989 428.039676 
L 626.630549 427.778833 
L 629.674108 424.518267 
L 632.717668 427.387566 
L 635.761227 429.213479 
L 638.804786 428.822212 
L 641.848346 426.60503 
L 644.891905 426.474606 
L 647.935464 427.648409 
L 650.979024 448.124742 
L 654.022583 415.77996 
L 657.066142 416.823339 
L 660.109702 421.388126 
L 663.153261 422.040243 
L 666.19682 422.040243 
L 669.24038 423.474889 
L 672.283939 425.822495 
L 675.327499 425.03996 
L 678.371058 427.517984 
L 681.414617 425.561646 
L 684.458177 428.300519 
L 687.501736 424.518267 
L 690.545295 424.127 
L 696.632414 430.517701 
L 699.675973 429.86559 
L 702.719533 429.474322 
L 705.763092 427.648409 
L 708.806651 429.735165 
L 711.850211 429.735165 
L 714.89377 431.039393 
L 717.93733 429.474322 
L 720.980889 430.256858 
L 724.024448 423.474889 
L 727.068008 421.648975 
L 730.111567 428.039676 
L 733.155126 428.561369 
L 736.198686 424.648692 
L 739.242245 424.387849 
L 742.285804 423.083621 
L 745.329364 425.69207 
L 748.372923 427.778833 
L 751.416482 431.039393 
L 754.460042 429.083055 
L 757.503601 428.170101 
L 760.547161 424.648692 
L 763.59072 424.77911 
L 769.677839 429.213479 
L 772.721398 429.083055 
L 775.764957 429.735165 
L 778.808517 428.039676 
L 784.895635 428.039676 
L 787.939195 429.213479 
L 790.982754 429.083055 
L 794.026313 427.909252 
L 797.069873 426.865873 
L 800.113432 426.865873 
L 803.156992 429.735165 
L 806.200551 423.735732 
L 809.24411 424.648692 
L 812.28767 427.517984 
L 815.331229 421.648975 
L 818.374788 425.170378 
L 821.418348 426.60503 
L 824.461907 426.735449 
L 827.505466 420.344748 
L 830.549026 423.083621 
L 833.592585 420.736015 
L 836.636144 420.736015 
L 839.679704 416.823339 
L 842.723263 421.388126 
L 845.766823 420.475172 
L 848.810382 419.04052 
L 851.853941 415.12785 
L 854.897501 416.301653 
L 857.94106 415.519118 
L 860.984619 414.997425 
L 864.028179 416.69292 
L 867.071738 415.258268 
L 870.115297 410.171795 
L 873.158857 413.823622 
L 876.202416 411.215173 
L 879.245975 408.867567 
L 882.289535 409.910945 
L 885.333094 408.606724 
L 888.376654 405.215734 
L 891.420213 410.302213 
L 894.463772 406.911229 
L 897.507332 408.345875 
L 900.550891 408.345875 
L 903.59445 405.867851 
L 906.63801 409.780527 
L 909.681569 411.215173 
L 912.725128 413.693197 
L 915.768688 410.693481 
L 918.812247 406.259118 
L 921.855806 415.519118 
L 924.899366 411.997709 
L 927.942925 414.606157 
L 930.986485 415.388693 
L 934.030044 416.823339 
L 937.073603 414.606157 
L 940.117163 416.301653 
L 943.160722 410.302213 
L 946.204281 413.30193 
L 949.247841 413.432354 
L 952.2914 416.171228 
L 955.334959 413.30193 
L 958.378519 415.649536 
L 961.422078 415.258268 
L 964.465637 413.823622 
L 967.509197 416.69292 
L 970.552756 416.69292 
L 973.596316 415.77996 
L 976.639875 413.823622 
L 979.683434 405.346158 
L 982.726994 412.519394 
L 985.770553 412.128127 
L 988.814112 413.041087 
L 988.814112 413.041087 
" clip-path="url(#pcbc563cbb0)" style="fill: none; stroke: #1f77b4; stroke-width: 1.5; stroke-linecap: square"/>
   </g>
   <g id="line2d_37">
    <path d="M 553.585124 432.636226 
L 556.628684 427.990837 
L 559.672243 429.217515 
L 562.715802 426.882121 
L 565.759362 426.999369 
L 568.802921 426.717413 
L 571.84648 423.304416 
L 574.89004 425.122692 
L 577.933599 424.946486 
L 580.977158 422.387006 
L 584.020718 423.463028 
L 587.064277 423.220136 
L 590.107837 423.757324 
L 596.194955 422.277078 
L 599.238515 421.247395 
L 602.282074 423.049773 
L 605.325633 423.723572 
L 608.369193 423.23429 
L 611.412752 421.495819 
L 614.456311 419.49116 
L 617.499871 417.626701 
L 620.54343 417.880937 
L 623.586989 417.37829 
L 626.630549 417.982857 
L 629.674108 417.815306 
L 632.717668 418.590359 
L 635.761227 418.703617 
L 638.804786 415.936907 
L 641.848346 416.356367 
L 644.891905 418.883049 
L 647.935464 418.672969 
L 650.979024 413.305687 
L 654.022583 417.86822 
L 657.066142 412.589637 
L 660.109702 415.387196 
L 663.153261 412.76149 
L 666.19682 414.834785 
L 669.24038 412.535285 
L 672.283939 414.244974 
L 675.327499 411.339897 
L 678.371058 413.800612 
L 681.414617 412.230475 
L 684.458177 413.050804 
L 687.501736 408.431406 
L 690.545295 413.254698 
L 693.588855 409.462055 
L 696.632414 414.281317 
L 699.675973 411.563044 
L 702.719533 414.429122 
L 705.763092 412.811158 
L 708.806651 414.175263 
L 711.850211 415.074126 
L 714.89377 414.851693 
L 717.93733 412.999756 
L 720.980889 414.199634 
L 724.024448 416.646757 
L 727.068008 411.656381 
L 730.111567 415.314803 
L 733.155126 416.657498 
L 736.198686 417.370788 
L 739.242245 414.23529 
L 742.285804 417.917124 
L 745.329364 418.609962 
L 748.372923 420.387607 
L 751.416482 420.133275 
L 754.460042 423.017641 
L 757.503601 420.631542 
L 760.547161 418.434832 
L 763.59072 420.730392 
L 766.634279 420.599035 
L 769.677839 418.19398 
L 772.721398 421.321705 
L 775.764957 423.462853 
L 778.808517 419.328759 
L 781.852076 421.321226 
L 784.895635 422.308529 
L 787.939195 421.860066 
L 790.982754 422.003084 
L 794.026313 421.546342 
L 797.069873 419.738904 
L 800.113432 421.865346 
L 803.156992 420.084818 
L 806.200551 418.489857 
L 809.24411 420.863 
L 812.28767 416.556342 
L 815.331229 414.31098 
L 818.374788 416.636431 
L 821.418348 412.385582 
L 824.461907 412.389799 
L 827.505466 411.352575 
L 830.549026 409.664698 
L 833.592585 406.499108 
L 836.636144 406.692468 
L 839.679704 406.283716 
L 845.766823 401.851361 
L 848.810382 399.335796 
L 851.853941 400.959851 
L 854.897501 396.829003 
L 857.94106 398.124725 
L 860.984619 396.14533 
L 864.028179 395.946315 
L 867.071738 390.509432 
L 870.115297 392.817547 
L 873.158857 393.117298 
L 876.202416 389.506562 
L 879.245975 386.115804 
L 882.289535 389.36092 
L 885.333094 388.583087 
L 888.376654 386.521278 
L 891.420213 391.126995 
L 894.463772 385.78065 
L 897.507332 387.093183 
L 900.550891 384.588067 
L 903.59445 383.089261 
L 906.63801 384.920429 
L 909.681569 385.483523 
L 912.725128 384.675924 
L 915.768688 384.378952 
L 918.812247 384.656826 
L 921.855806 388.664693 
L 924.899366 386.688279 
L 927.942925 388.70533 
L 930.986485 389.039681 
L 934.030044 390.009798 
L 937.073603 392.294935 
L 940.117163 390.144297 
L 943.160722 391.697876 
L 946.204281 391.145781 
L 949.247841 390.037621 
L 952.2914 391.683326 
L 955.334959 396.022135 
L 958.378519 394.178394 
L 961.422078 392.096464 
L 964.465637 395.054344 
L 967.509197 396.888271 
L 973.596316 395.646506 
L 976.639875 396.209827 
L 979.683434 392.920219 
L 982.726994 396.596417 
L 985.770553 402.182609 
L 988.814112 400.682229 
L 988.814112 400.682229 
" clip-path="url(#pcbc563cbb0)" style="fill: none; stroke: #ff7f0e; stroke-width: 1.5; stroke-linecap: square"/>
   </g>
   <g id="line2d_38">
    <path d="M 553.585124 484.516875 
L 553.585124 378.259375 
" clip-path="url(#pcbc563cbb0)" style="fill: none; stroke-dasharray: 7.4,3.2; stroke-dashoffset: 0; stroke: #0000ff; stroke-width: 2"/>
   </g>
   <g id="patch_14">
    <path d="M 71.6375 484.516875 
L 71.6375 378.259375 
" style="fill: none; stroke: #000000; stroke-width: 0.8; stroke-linejoin: miter; stroke-linecap: square"/>
   </g>
   <g id="patch_15">
    <path d="M 1032.489189 484.516875 
L 1032.489189 378.259375 
" style="fill: none; stroke: #000000; stroke-width: 0.8; stroke-linejoin: miter; stroke-linecap: square"/>
   </g>
   <g id="patch_16">
    <path d="M 71.6375 484.516875 
L 1032.489189 484.516875 
" style="fill: none; stroke: #000000; stroke-width: 0.8; stroke-linejoin: miter; stroke-linecap: square"/>
   </g>
   <g id="patch_17">
    <path d="M 71.6375 378.259375 
L 1032.489189 378.259375 
" style="fill: none; stroke: #000000; stroke-width: 0.8; stroke-linejoin: miter; stroke-linecap: square"/>
   </g>
   <g id="text_35">
    <!-- 云函数ID: 150 -->
    <g transform="translate(487.063345 372.259375) scale(0.2 -0.2)">
     <defs>
      <path id="SimSun-31" d="M 1825 4450 
L 1825 650 
Q 1825 450 1950 350 
Q 2075 250 2300 250 
L 2550 250 
L 2550 100 
L 725 100 
L 725 250 
L 950 250 
Q 1200 250 1312 350 
Q 1425 450 1425 650 
L 1425 3675 
Q 1425 3775 1362 3837 
Q 1300 3900 1175 3900 
L 725 3900 
L 725 4050 
L 950 4050 
Q 1250 4050 1437 4150 
Q 1625 4250 1725 4450 
L 1825 4450 
z
" transform="scale(0.015625)"/>
      <path id="SimSun-35" d="M 1725 2850 
Q 2200 2850 2500 2487 
Q 2800 2125 2800 1525 
Q 2800 850 2487 450 
Q 2175 50 1525 50 
Q 1075 50 725 312 
Q 375 575 375 950 
Q 375 1100 462 1212 
Q 550 1325 700 1325 
Q 850 1325 900 1225 
Q 950 1125 950 1050 
Q 950 900 875 825 
Q 800 725 800 625 
Q 800 425 1037 325 
Q 1275 225 1550 225 
Q 1950 225 2162 550 
Q 2375 875 2375 1475 
Q 2375 1975 2187 2287 
Q 2000 2600 1625 2600 
Q 1350 2600 1150 2500 
Q 950 2400 775 2075 
L 550 2100 
L 675 4375 
L 2725 4375 
L 2650 4000 
L 850 4000 
L 750 2350 
Q 1000 2700 1237 2775 
Q 1475 2850 1725 2850 
z
" transform="scale(0.015625)"/>
      <path id="SimSun-30" d="M 1600 4225 
Q 1250 4225 1012 3687 
Q 775 3150 775 2250 
Q 775 1300 1012 775 
Q 1250 250 1600 250 
Q 1975 250 2187 775 
Q 2400 1300 2400 2250 
Q 2400 3150 2200 3687 
Q 2000 4225 1600 4225 
z
M 1600 50 
Q 1050 50 675 625 
Q 300 1200 300 2250 
Q 300 3225 662 3825 
Q 1025 4425 1600 4425 
Q 2150 4425 2512 3850 
Q 2875 3275 2875 2250 
Q 2875 1225 2512 637 
Q 2150 50 1600 50 
z
" transform="scale(0.015625)"/>
     </defs>
     <use xlink:href="#SimSun-4e91"/>
     <use xlink:href="#SimSun-51fd" x="100"/>
     <use xlink:href="#SimSun-6570" x="200"/>
     <use xlink:href="#SimSun-49" x="300"/>
     <use xlink:href="#SimSun-44" x="350"/>
     <use xlink:href="#SimSun-3a" x="400"/>
     <use xlink:href="#SimSun-20" x="450"/>
     <use xlink:href="#SimSun-31" x="500"/>
     <use xlink:href="#SimSun-35" x="550"/>
     <use xlink:href="#SimSun-30" x="600"/>
    </g>
   </g>
  </g>
  <g id="axes_4">
   <g id="patch_18">
    <path d="M 71.6375 659.116875 
L 1032.489189 659.116875 
L 1032.489189 552.859375 
L 71.6375 552.859375 
z
" style="fill: #ffffff"/>
   </g>
   <g id="matplotlib.axis_7">
    <g id="xtick_22">
     <g id="line2d_39">
      <g>
       <use xlink:href="#maf4b6dad0f" x="115.312577" y="659.116875" style="stroke: #000000; stroke-width: 0.8"/>
      </g>
     </g>
     <g id="text_36">
      <!-- 0 -->
      <g transform="translate(110.312577 680.004375) scale(0.2 -0.2)">
       <use xlink:href="#TimesNewRomanPSMT-30"/>
      </g>
     </g>
    </g>
    <g id="xtick_23">
     <g id="line2d_40">
      <g>
       <use xlink:href="#maf4b6dad0f" x="267.490545" y="659.116875" style="stroke: #000000; stroke-width: 0.8"/>
      </g>
     </g>
     <g id="text_37">
      <!-- 50 -->
      <g transform="translate(257.490545 680.004375) scale(0.2 -0.2)">
       <use xlink:href="#TimesNewRomanPSMT-35"/>
       <use xlink:href="#TimesNewRomanPSMT-30" x="50"/>
      </g>
     </g>
    </g>
    <g id="xtick_24">
     <g id="line2d_41">
      <g>
       <use xlink:href="#maf4b6dad0f" x="419.668513" y="659.116875" style="stroke: #000000; stroke-width: 0.8"/>
      </g>
     </g>
     <g id="text_38">
      <!-- 100 -->
      <g transform="translate(404.668513 680.004375) scale(0.2 -0.2)">
       <use xlink:href="#TimesNewRomanPSMT-31"/>
       <use xlink:href="#TimesNewRomanPSMT-30" x="50"/>
       <use xlink:href="#TimesNewRomanPSMT-30" x="100"/>
      </g>
     </g>
    </g>
    <g id="xtick_25">
     <g id="line2d_42">
      <g>
       <use xlink:href="#maf4b6dad0f" x="571.84648" y="659.116875" style="stroke: #000000; stroke-width: 0.8"/>
      </g>
     </g>
     <g id="text_39">
      <!-- 150 -->
      <g transform="translate(556.84648 680.004375) scale(0.2 -0.2)">
       <use xlink:href="#TimesNewRomanPSMT-31"/>
       <use xlink:href="#TimesNewRomanPSMT-35" x="50"/>
       <use xlink:href="#TimesNewRomanPSMT-30" x="100"/>
      </g>
     </g>
    </g>
    <g id="xtick_26">
     <g id="line2d_43">
      <g>
       <use xlink:href="#maf4b6dad0f" x="724.024448" y="659.116875" style="stroke: #000000; stroke-width: 0.8"/>
      </g>
     </g>
     <g id="text_40">
      <!-- 200 -->
      <g transform="translate(709.024448 680.004375) scale(0.2 -0.2)">
       <use xlink:href="#TimesNewRomanPSMT-32"/>
       <use xlink:href="#TimesNewRomanPSMT-30" x="50"/>
       <use xlink:href="#TimesNewRomanPSMT-30" x="100"/>
      </g>
     </g>
    </g>
    <g id="xtick_27">
     <g id="line2d_44">
      <g>
       <use xlink:href="#maf4b6dad0f" x="876.202416" y="659.116875" style="stroke: #000000; stroke-width: 0.8"/>
      </g>
     </g>
     <g id="text_41">
      <!-- 250 -->
      <g transform="translate(861.202416 680.004375) scale(0.2 -0.2)">
       <use xlink:href="#TimesNewRomanPSMT-32"/>
       <use xlink:href="#TimesNewRomanPSMT-35" x="50"/>
       <use xlink:href="#TimesNewRomanPSMT-30" x="100"/>
      </g>
     </g>
    </g>
    <g id="xtick_28">
     <g id="line2d_45">
      <g>
       <use xlink:href="#maf4b6dad0f" x="1028.380384" y="659.116875" style="stroke: #000000; stroke-width: 0.8"/>
      </g>
     </g>
     <g id="text_42">
      <!-- 300 -->
      <g transform="translate(1013.380384 680.004375) scale(0.2 -0.2)">
       <use xlink:href="#TimesNewRomanPSMT-33"/>
       <use xlink:href="#TimesNewRomanPSMT-30" x="50"/>
       <use xlink:href="#TimesNewRomanPSMT-30" x="100"/>
      </g>
     </g>
    </g>
   </g>
   <g id="matplotlib.axis_8">
    <g id="ytick_7">
     <g id="line2d_46">
      <g>
       <use xlink:href="#m49d8f43b47" x="71.6375" y="624.278848" style="stroke: #000000; stroke-width: 0.8"/>
      </g>
     </g>
     <g id="text_43">
      <!-- 10.0 -->
      <g transform="translate(29.6375 631.222598) scale(0.2 -0.2)">
       <use xlink:href="#TimesNewRomanPSMT-31"/>
       <use xlink:href="#TimesNewRomanPSMT-30" x="50"/>
       <use xlink:href="#TimesNewRomanPSMT-2e" x="100"/>
       <use xlink:href="#TimesNewRomanPSMT-30" x="125"/>
      </g>
     </g>
    </g>
    <g id="ytick_8">
     <g id="line2d_47">
      <g>
       <use xlink:href="#m49d8f43b47" x="71.6375" y="554.528165" style="stroke: #000000; stroke-width: 0.8"/>
      </g>
     </g>
     <g id="text_44">
      <!-- 20.0 -->
      <g transform="translate(29.6375 561.471915) scale(0.2 -0.2)">
       <use xlink:href="#TimesNewRomanPSMT-32"/>
       <use xlink:href="#TimesNewRomanPSMT-30" x="50"/>
       <use xlink:href="#TimesNewRomanPSMT-2e" x="100"/>
       <use xlink:href="#TimesNewRomanPSMT-30" x="125"/>
      </g>
     </g>
    </g>
    <g id="text_45">
     <!-- CPU使用率 -->
     <g transform="translate(23.059375 650.988125) rotate(-90) scale(0.2 -0.2)">
      <use xlink:href="#SimSun-43"/>
      <use xlink:href="#SimSun-50" x="50"/>
      <use xlink:href="#SimSun-55" x="100"/>
      <use xlink:href="#SimSun-4f7f" x="150"/>
      <use xlink:href="#SimSun-7528" x="250"/>
      <use xlink:href="#SimSun-7387" x="350"/>
     </g>
    </g>
   </g>
   <g id="line2d_48">
    <path d="M 115.312577 595.060286 
L 118.356136 594.3279 
L 121.399695 599.7015 
L 124.443255 600.963985 
L 127.486814 599.278809 
L 130.530374 601.960021 
L 133.573933 602.738438 
L 136.617492 601.095122 
L 139.661052 601.268099 
L 142.704611 604.425011 
L 145.74817 605.808868 
L 148.79173 600.749147 
L 151.835289 654.286989 
L 154.878848 599.840998 
L 157.922408 599.624769 
L 160.965967 600.489682 
L 164.009526 604.338523 
L 167.053086 600.403187 
L 170.096645 602.003272 
L 173.140205 601.18161 
L 176.183764 601.61406 
L 179.227323 600.619421 
L 185.314442 604.770979 
L 188.358001 598.976092 
L 191.401561 604.684484 
L 194.44512 605.852113 
L 197.488679 604.381767 
L 200.532239 608.317103 
L 203.575798 608.749553 
L 206.619357 604.857468 
L 209.662917 606.457553 
L 212.706476 606.933253 
L 215.750036 610.306394 
L 218.793595 613.969692 
L 221.837154 616.020367 
L 224.880714 609.156905 
L 227.924273 613.132691 
L 230.967832 614.806706 
L 234.011392 616.104068 
L 237.054951 616.731825 
L 240.09851 618.531395 
L 243.14207 616.271471 
L 246.185629 615.769262 
L 252.272748 619.368396 
L 255.316307 616.271471 
L 258.359867 617.150326 
L 261.403426 613.802296 
L 264.446985 619.159146 
L 267.490545 619.6195 
L 270.534104 618.112888 
L 273.577663 618.40584 
L 276.621223 619.41025 
L 279.664782 616.39702 
L 282.708341 618.40584 
L 285.751901 618.99175 
L 288.79546 618.280291 
L 291.83902 617.275881 
L 294.882579 619.954306 
L 297.926138 613.46749 
L 300.969698 619.075445 
L 304.013257 615.267061 
L 307.056816 614.890401 
L 310.100376 615.476311 
L 313.143935 617.066624 
L 316.187494 615.560012 
L 319.231054 617.819937 
L 322.274613 616.731825 
L 325.318172 615.267061 
L 328.361732 617.108472 
L 331.405291 619.954306 
L 334.448851 615.05781 
L 337.49241 614.430047 
L 340.535969 613.383789 
L 346.623088 613.132691 
L 349.666647 615.015956 
L 352.710207 617.778083 
L 355.753766 616.522568 
L 358.797325 617.485131 
L 361.840885 617.610687 
L 364.884444 618.698792 
L 367.928003 617.987333 
L 370.971563 613.718595 
L 374.015122 614.388199 
L 377.058682 612.756038 
L 380.102241 616.313325 
L 383.1458 616.187763 
L 386.18936 612.630483 
L 389.232919 612.46308 
L 392.276478 613.634893 
L 395.320038 612.923435 
L 398.363597 610.454266 
L 401.407156 611.66792 
L 404.450716 610.789065 
L 407.494275 609.073197 
L 410.537834 610.161308 
L 413.581394 593.030538 
L 416.624953 586.564656 
L 419.668513 591.691329 
L 422.712072 594.718509 
L 425.755631 594.376732 
L 428.799191 596.329749 
L 431.84275 596.280924 
L 434.886309 599.601055 
L 437.929869 601.700548 
L 440.973428 604.07905 
L 444.016987 602.248788 
L 447.060547 581.198041 
L 456.191225 586.875748 
L 459.234784 588.0629 
L 462.278344 599.181158 
L 465.321903 598.644073 
L 468.365462 601.222061 
L 471.409022 600.623599 
L 474.452581 598.690112 
L 477.49614 595.145384 
L 480.5397 602.000484 
L 483.583259 581.350091 
L 486.626818 572.317391 
L 489.670378 575.922105 
L 492.713937 569.984913 
L 495.757496 585.729046 
L 498.801056 589.492789 
L 501.844615 593.998682 
L 504.888175 596.65479 
L 507.931734 594.994724 
L 510.975293 597.603397 
L 514.018853 600.733808 
L 517.062412 594.378129 
L 520.105971 577.982532 
L 523.149531 578.907431 
L 526.19309 582.062953 
L 529.236649 592.911967 
L 532.280209 591.740154 
L 535.323768 591.398377 
L 538.367327 587.541162 
L 541.410887 589.005926 
L 544.454446 591.544853 
L 547.498006 594.572033 
L 550.541565 598.673369 
L 553.585124 597.745689 
L 556.628684 581.517494 
L 562.715802 596.23768 
L 565.759362 595.240241 
L 568.802921 595.731287 
L 571.84648 595.552722 
L 574.89004 597.025862 
L 577.933599 592.427899 
L 580.977158 593.142145 
L 584.020718 594.749194 
L 587.064277 597.918672 
L 590.107837 642.235463 
L 593.151396 565.891946 
L 596.194955 557.689261 
L 599.238515 572.16115 
L 602.282074 581.535627 
L 605.325633 584.850184 
L 608.369193 587.511866 
L 611.412752 592.081938 
L 614.456311 592.165633 
L 617.499871 597.338343 
L 620.54343 598.09723 
L 623.586989 599.570363 
L 626.630549 601.17742 
L 629.674108 585.123606 
L 632.717668 583.042239 
L 635.761227 590.073111 
L 638.804786 598.476677 
L 641.848346 595.240241 
L 644.891905 597.963307 
L 647.935464 597.47226 
L 650.979024 598.231154 
L 654.022583 599.436446 
L 657.066142 600.373891 
L 660.109702 602.56127 
L 663.153261 596.043769 
L 666.19682 590.508354 
L 669.24038 598.766835 
L 672.283939 603.766569 
L 675.327499 599.347164 
L 678.371058 602.56127 
L 681.414617 602.56127 
L 684.458177 598.990041 
L 687.501736 602.6952 
L 690.545295 602.516635 
L 693.588855 602.963041 
L 696.632414 598.9454 
L 699.675973 597.47226 
L 702.719533 597.740108 
L 705.763092 602.427353 
L 708.806651 603.543363 
L 711.850211 600.597097 
L 714.89377 602.159512 
L 717.93733 600.95422 
L 720.980889 594.70456 
L 724.024448 602.338071 
L 727.068008 602.382718 
L 730.111567 603.543363 
L 733.155126 602.204154 
L 736.198686 600.46318 
L 739.242245 601.623825 
L 742.285804 601.757742 
L 745.329364 601.088144 
L 748.372923 604.391532 
L 751.416482 607.025316 
L 754.460042 603.230881 
L 757.503601 603.320164 
L 760.547161 605.730748 
L 763.59072 603.588004 
L 766.634279 598.900759 
L 769.677839 603.855845 
L 772.721398 600.418533 
L 775.764957 600.731021 
L 778.808517 602.114871 
L 781.852076 600.552456 
L 784.895635 599.972134 
L 787.939195 602.276693 
L 790.982754 602.204154 
L 794.026313 599.972134 
L 797.069873 600.597097 
L 800.113432 600.284616 
L 803.156992 603.320164 
L 806.200551 604.257615 
L 809.24411 591.942433 
L 812.28767 592.734799 
L 815.331229 593.88987 
L 818.374788 589.068707 
L 821.418348 590.776195 
L 824.461907 590.374437 
L 827.505466 580.308024 
L 830.549026 580.023441 
L 833.592585 577.467778 
L 836.636144 576.262485 
L 839.679704 578.371737 
L 842.723263 574.354096 
L 845.766823 588.666936 
L 848.810382 582.640482 
L 851.853941 586.75856 
L 854.897501 583.59467 
L 857.94106 578.221084 
L 860.984619 589.018478 
L 864.028179 588.666936 
L 867.071738 589.671353 
L 870.115297 589.621124 
L 873.158857 590.022895 
L 876.202416 590.022895 
L 879.245975 591.730389 
L 882.289535 589.922451 
L 885.333094 588.466054 
L 888.376654 578.522403 
L 891.420213 578.968802 
L 894.463772 578.466607 
L 897.507332 585.553268 
L 900.550891 584.297754 
L 903.59445 584.59908 
L 906.63801 586.457241 
L 909.681569 589.269583 
L 912.725128 589.520687 
L 915.768688 590.424653 
L 918.812247 576.395005 
L 924.899366 586.658123 
L 927.942925 586.457241 
L 930.986485 586.105692 
L 934.030044 586.959442 
L 937.073603 586.858998 
L 940.117163 585.452824 
L 943.160722 585.854595 
L 946.204281 582.389378 
L 949.247841 581.234308 
L 952.2914 584.699524 
L 955.334959 586.407012 
L 961.422078 587.662526 
L 964.465637 585.90481 
L 967.509197 588.164735 
L 970.552756 588.767381 
L 973.596316 588.114513 
L 976.639875 582.74092 
L 979.683434 589.169138 
L 982.726994 592.483695 
L 985.770553 591.981493 
L 988.814112 583.192906 
L 988.814112 583.192906 
" clip-path="url(#pcb63370aae)" style="fill: none; stroke: #1f77b4; stroke-width: 1.5; stroke-linecap: square"/>
   </g>
   <g id="line2d_49">
    <path d="M 553.585124 610.876785 
L 556.628684 609.293655 
L 559.672243 609.767021 
L 562.715802 608.91206 
L 565.759362 610.128115 
L 568.802921 608.685142 
L 571.84648 608.983542 
L 574.89004 610.020839 
L 577.933599 610.488777 
L 580.977158 610.183439 
L 584.020718 611.769695 
L 587.064277 609.491511 
L 590.107837 608.216127 
L 593.151396 608.435874 
L 596.194955 609.769954 
L 599.238515 609.776906 
L 602.282074 612.025436 
L 605.325633 611.223078 
L 608.369193 612.523852 
L 611.412752 612.495648 
L 614.456311 610.646202 
L 617.499871 611.096339 
L 620.54343 611.342587 
L 623.586989 609.496147 
L 626.630549 609.279879 
L 629.674108 608.693171 
L 632.717668 610.079742 
L 635.761227 609.17557 
L 641.848346 608.560631 
L 644.891905 612.383131 
L 647.935464 611.070536 
L 650.979024 610.515903 
L 654.022583 613.114159 
L 657.066142 611.412193 
L 660.109702 611.777079 
L 663.153261 612.598806 
L 666.19682 609.609104 
L 669.24038 610.020759 
L 672.283939 611.173588 
L 675.327499 611.075678 
L 678.371058 610.7733 
L 681.414617 612.298312 
L 684.458177 612.750724 
L 687.501736 613.783198 
L 690.545295 613.757741 
L 693.588855 612.236302 
L 696.632414 612.560032 
L 699.675973 608.955983 
L 702.719533 610.012511 
L 705.763092 611.984719 
L 711.850211 613.579855 
L 714.89377 615.190118 
L 717.93733 614.234446 
L 720.980889 615.499726 
L 724.024448 613.383496 
L 727.068008 615.054019 
L 733.155126 616.671638 
L 736.198686 616.214344 
L 739.242245 612.556254 
L 742.285804 614.443144 
L 745.329364 615.793934 
L 748.372923 615.457938 
L 751.416482 616.042212 
L 754.460042 615.743985 
L 760.547161 616.037236 
L 763.59072 616.522269 
L 766.634279 617.992415 
L 769.677839 617.618523 
L 772.721398 617.559234 
L 775.764957 615.078405 
L 778.808517 614.479171 
L 781.852076 615.485637 
L 784.895635 614.522841 
L 787.939195 615.852711 
L 790.982754 616.51593 
L 794.026313 616.731313 
L 797.069873 619.09852 
L 800.113432 618.348048 
L 803.156992 618.577101 
L 806.200551 619.742781 
L 809.24411 618.224309 
L 812.28767 618.230814 
L 815.331229 615.678956 
L 818.374788 616.993273 
L 821.418348 616.223065 
L 824.461907 617.57132 
L 827.505466 617.052635 
L 830.549026 618.11068 
L 833.592585 617.101534 
L 836.636144 617.738224 
L 839.679704 616.438328 
L 842.723263 616.79009 
L 845.766823 614.841336 
L 848.810382 614.827214 
L 851.853941 616.678423 
L 854.897501 616.312726 
L 857.94106 617.713433 
L 860.984619 617.608299 
L 864.028179 616.821859 
L 867.071738 614.558728 
L 870.115297 617.051504 
L 873.158857 617.563039 
L 876.202416 616.11982 
L 879.245975 617.355186 
L 882.289535 616.222819 
L 885.333094 614.409964 
L 888.376654 614.28107 
L 891.420213 616.166869 
L 894.463772 616.148782 
L 897.507332 617.940623 
L 900.550891 614.397931 
L 903.59445 615.263362 
L 906.63801 615.920042 
L 909.681569 615.014832 
L 915.768688 615.68153 
L 918.812247 615.467411 
L 921.855806 620.782021 
L 924.899366 614.794666 
L 927.942925 616.564948 
L 930.986485 617.913703 
L 934.030044 615.948878 
L 937.073603 616.684836 
L 940.117163 616.301365 
L 943.160722 616.730728 
L 946.204281 617.93169 
L 949.247841 615.395037 
L 952.2914 615.747976 
L 955.334959 617.550087 
L 958.378519 614.787143 
L 961.422078 613.546908 
L 964.465637 615.252207 
L 967.509197 615.317283 
L 970.552756 616.324307 
L 973.596316 616.033597 
L 976.639875 614.881747 
L 979.683434 615.093651 
L 982.726994 615.977808 
L 985.770553 617.306181 
L 988.814112 616.928031 
L 988.814112 616.928031 
" clip-path="url(#pcb63370aae)" style="fill: none; stroke: #ff7f0e; stroke-width: 1.5; stroke-linecap: square"/>
   </g>
   <g id="line2d_50">
    <path d="M 553.585124 659.116875 
L 553.585124 552.859375 
" clip-path="url(#pcb63370aae)" style="fill: none; stroke-dasharray: 7.4,3.2; stroke-dashoffset: 0; stroke: #0000ff; stroke-width: 2"/>
   </g>
   <g id="patch_19">
    <path d="M 71.6375 659.116875 
L 71.6375 552.859375 
" style="fill: none; stroke: #000000; stroke-width: 0.8; stroke-linejoin: miter; stroke-linecap: square"/>
   </g>
   <g id="patch_20">
    <path d="M 1032.489189 659.116875 
L 1032.489189 552.859375 
" style="fill: none; stroke: #000000; stroke-width: 0.8; stroke-linejoin: miter; stroke-linecap: square"/>
   </g>
   <g id="patch_21">
    <path d="M 71.6375 659.116875 
L 1032.489189 659.116875 
" style="fill: none; stroke: #000000; stroke-width: 0.8; stroke-linejoin: miter; stroke-linecap: square"/>
   </g>
   <g id="patch_22">
    <path d="M 71.6375 552.859375 
L 1032.489189 552.859375 
" style="fill: none; stroke: #000000; stroke-width: 0.8; stroke-linejoin: miter; stroke-linecap: square"/>
   </g>
   <g id="text_46">
    <!-- 云函数ID: 165 -->
    <g transform="translate(487.063345 546.859375) scale(0.2 -0.2)">
     <defs>
      <path id="SimSun-36" d="M 775 1800 
Q 775 1050 1037 637 
Q 1300 225 1675 225 
Q 2050 225 2250 500 
Q 2450 775 2450 1525 
Q 2450 2025 2237 2300 
Q 2025 2575 1725 2575 
Q 1450 2575 1212 2412 
Q 975 2250 775 1800 
z
M 1750 2825 
Q 2350 2825 2612 2425 
Q 2875 2025 2875 1525 
Q 2875 775 2512 412 
Q 2150 50 1675 50 
Q 1000 50 650 562 
Q 300 1075 300 2050 
Q 300 3200 725 3812 
Q 1150 4425 1875 4425 
Q 2225 4425 2437 4225 
Q 2650 4025 2650 3875 
Q 2650 3725 2587 3650 
Q 2525 3575 2375 3575 
Q 2250 3575 2187 3637 
Q 2125 3700 2125 3825 
Q 2125 3875 2150 3925 
Q 2150 3975 2150 4025 
Q 2150 4125 2075 4187 
Q 2000 4250 1800 4250 
Q 1375 4250 1075 3862 
Q 775 3475 775 2175 
Q 925 2500 1187 2662 
Q 1450 2825 1750 2825 
z
" transform="scale(0.015625)"/>
     </defs>
     <use xlink:href="#SimSun-4e91"/>
     <use xlink:href="#SimSun-51fd" x="100"/>
     <use xlink:href="#SimSun-6570" x="200"/>
     <use xlink:href="#SimSun-49" x="300"/>
     <use xlink:href="#SimSun-44" x="350"/>
     <use xlink:href="#SimSun-3a" x="400"/>
     <use xlink:href="#SimSun-20" x="450"/>
     <use xlink:href="#SimSun-31" x="500"/>
     <use xlink:href="#SimSun-36" x="550"/>
     <use xlink:href="#SimSun-35" x="600"/>
    </g>
   </g>
  </g>
 </g>
 <defs>
  <clipPath id="p9b8e6889cd">
   <rect x="71.6375" y="29.059375" width="960.851689" height="106.2575"/>
  </clipPath>
  <clipPath id="p83e40b2255">
   <rect x="71.6375" y="203.659375" width="960.851689" height="106.2575"/>
  </clipPath>
  <clipPath id="pcbc563cbb0">
   <rect x="71.6375" y="378.259375" width="960.851689" height="106.2575"/>
  </clipPath>
  <clipPath id="pcb63370aae">
   <rect x="71.6375" y="552.859375" width="960.851689" height="106.2575"/>
  </clipPath>
 </defs>
</svg>
