<?xml version="1.0" encoding="utf-8" standalone="no"?>
<!DOCTYPE svg PUBLIC "-//W3C//DTD SVG 1.1//EN"
  "http://www.w3.org/Graphics/SVG/1.1/DTD/svg11.dtd">
<svg xmlns:xlink="http://www.w3.org/1999/xlink" width="1050.557536pt" height="691.4825pt" viewBox="0 0 1050.557536 691.4825" xmlns="http://www.w3.org/2000/svg" version="1.1">
 <metadata>
  <rdf:RDF xmlns:dc="http://purl.org/dc/elements/1.1/" xmlns:cc="http://creativecommons.org/ns#" xmlns:rdf="http://www.w3.org/1999/02/22-rdf-syntax-ns#">
   <cc:Work>
    <dc:type rdf:resource="http://purl.org/dc/dcmitype/StillImage"/>
    <dc:date>2024-02-22T21:45:16.276518</dc:date>
    <dc:format>image/svg+xml</dc:format>
    <dc:creator>
     <cc:Agent>
      <dc:title>Matplotlib v3.7.4, https://matplotlib.org/</dc:title>
     </cc:Agent>
    </dc:creator>
   </cc:Work>
  </rdf:RDF>
 </metadata>
 <defs>
  <style type="text/css">*{stroke-linejoin: round; stroke-linecap: butt}</style>
 </defs>
 <g id="figure_1">
  <g id="patch_1">
   <path d="M 0 691.4825 
L 1050.557536 691.4825 
L 1050.557536 0 
L 0 0 
z
" style="fill: #ffffff"/>
  </g>
  <g id="axes_1">
   <g id="patch_2">
    <path d="M 61.6375 193.516875 
L 1032.509189 193.516875 
L 1032.509189 29.059375 
L 61.6375 29.059375 
z
" style="fill: #ffffff"/>
   </g>
   <g id="matplotlib.axis_1">
    <g id="xtick_1">
     <g id="line2d_1">
      <defs>
       <path id="m059eb5abba" d="M 0 0 
L 0 3.5 
" style="stroke: #000000; stroke-width: 0.8"/>
      </defs>
      <g>
       <use xlink:href="#m059eb5abba" x="105.768031" y="193.516875" style="stroke: #000000; stroke-width: 0.8"/>
      </g>
     </g>
     <g id="text_1">
      <!-- 0 -->
      <g transform="translate(100.768031 214.404375) scale(0.2 -0.2)">
       <defs>
        <path id="TimesNewRomanPSMT-30" d="M 231 2094 
Q 231 2819 450 3342 
Q 669 3866 1031 4122 
Q 1313 4325 1613 4325 
Q 2100 4325 2488 3828 
Q 2972 3213 2972 2159 
Q 2972 1422 2759 906 
Q 2547 391 2217 158 
Q 1888 -75 1581 -75 
Q 975 -75 572 641 
Q 231 1244 231 2094 
z
M 844 2016 
Q 844 1141 1059 588 
Q 1238 122 1591 122 
Q 1759 122 1940 273 
Q 2122 425 2216 781 
Q 2359 1319 2359 2297 
Q 2359 3022 2209 3506 
Q 2097 3866 1919 4016 
Q 1791 4119 1609 4119 
Q 1397 4119 1231 3928 
Q 1006 3669 925 3112 
Q 844 2556 844 2016 
z
" transform="scale(0.015625)"/>
       </defs>
       <use xlink:href="#TimesNewRomanPSMT-30"/>
      </g>
     </g>
    </g>
    <g id="xtick_2">
     <g id="line2d_2">
      <g>
       <use xlink:href="#m059eb5abba" x="259.532949" y="193.516875" style="stroke: #000000; stroke-width: 0.8"/>
      </g>
     </g>
     <g id="text_2">
      <!-- 50 -->
      <g transform="translate(249.532949 214.404375) scale(0.2 -0.2)">
       <defs>
        <path id="TimesNewRomanPSMT-35" d="M 2778 4238 
L 2534 3706 
L 1259 3706 
L 981 3138 
Q 1809 3016 2294 2522 
Q 2709 2097 2709 1522 
Q 2709 1188 2573 903 
Q 2438 619 2231 419 
Q 2025 219 1772 97 
Q 1413 -75 1034 -75 
Q 653 -75 479 54 
Q 306 184 306 341 
Q 306 428 378 495 
Q 450 563 559 563 
Q 641 563 702 538 
Q 763 513 909 409 
Q 1144 247 1384 247 
Q 1750 247 2026 523 
Q 2303 800 2303 1197 
Q 2303 1581 2056 1914 
Q 1809 2247 1375 2428 
Q 1034 2569 447 2591 
L 1259 4238 
L 2778 4238 
z
" transform="scale(0.015625)"/>
       </defs>
       <use xlink:href="#TimesNewRomanPSMT-35"/>
       <use xlink:href="#TimesNewRomanPSMT-30" x="50"/>
      </g>
     </g>
    </g>
    <g id="xtick_3">
     <g id="line2d_3">
      <g>
       <use xlink:href="#m059eb5abba" x="413.297866" y="193.516875" style="stroke: #000000; stroke-width: 0.8"/>
      </g>
     </g>
     <g id="text_3">
      <!-- 100 -->
      <g transform="translate(398.297866 214.404375) scale(0.2 -0.2)">
       <defs>
        <path id="TimesNewRomanPSMT-31" d="M 750 3822 
L 1781 4325 
L 1884 4325 
L 1884 747 
Q 1884 391 1914 303 
Q 1944 216 2037 169 
Q 2131 122 2419 116 
L 2419 0 
L 825 0 
L 825 116 
Q 1125 122 1212 167 
Q 1300 213 1334 289 
Q 1369 366 1369 747 
L 1369 3034 
Q 1369 3497 1338 3628 
Q 1316 3728 1258 3775 
Q 1200 3822 1119 3822 
Q 1003 3822 797 3725 
L 750 3822 
z
" transform="scale(0.015625)"/>
       </defs>
       <use xlink:href="#TimesNewRomanPSMT-31"/>
       <use xlink:href="#TimesNewRomanPSMT-30" x="50"/>
       <use xlink:href="#TimesNewRomanPSMT-30" x="100"/>
      </g>
     </g>
    </g>
    <g id="xtick_4">
     <g id="line2d_4">
      <g>
       <use xlink:href="#m059eb5abba" x="567.062784" y="193.516875" style="stroke: #000000; stroke-width: 0.8"/>
      </g>
     </g>
     <g id="text_4">
      <!-- 150 -->
      <g transform="translate(552.062784 214.404375) scale(0.2 -0.2)">
       <use xlink:href="#TimesNewRomanPSMT-31"/>
       <use xlink:href="#TimesNewRomanPSMT-35" x="50"/>
       <use xlink:href="#TimesNewRomanPSMT-30" x="100"/>
      </g>
     </g>
    </g>
    <g id="xtick_5">
     <g id="line2d_5">
      <g>
       <use xlink:href="#m059eb5abba" x="720.827701" y="193.516875" style="stroke: #000000; stroke-width: 0.8"/>
      </g>
     </g>
     <g id="text_5">
      <!-- 200 -->
      <g transform="translate(705.827701 214.404375) scale(0.2 -0.2)">
       <defs>
        <path id="TimesNewRomanPSMT-32" d="M 2934 816 
L 2638 0 
L 138 0 
L 138 116 
Q 1241 1122 1691 1759 
Q 2141 2397 2141 2925 
Q 2141 3328 1894 3587 
Q 1647 3847 1303 3847 
Q 991 3847 742 3664 
Q 494 3481 375 3128 
L 259 3128 
Q 338 3706 661 4015 
Q 984 4325 1469 4325 
Q 1984 4325 2329 3994 
Q 2675 3663 2675 3213 
Q 2675 2891 2525 2569 
Q 2294 2063 1775 1497 
Q 997 647 803 472 
L 1909 472 
Q 2247 472 2383 497 
Q 2519 522 2628 598 
Q 2738 675 2819 816 
L 2934 816 
z
" transform="scale(0.015625)"/>
       </defs>
       <use xlink:href="#TimesNewRomanPSMT-32"/>
       <use xlink:href="#TimesNewRomanPSMT-30" x="50"/>
       <use xlink:href="#TimesNewRomanPSMT-30" x="100"/>
      </g>
     </g>
    </g>
    <g id="xtick_6">
     <g id="line2d_6">
      <g>
       <use xlink:href="#m059eb5abba" x="874.592619" y="193.516875" style="stroke: #000000; stroke-width: 0.8"/>
      </g>
     </g>
     <g id="text_6">
      <!-- 250 -->
      <g transform="translate(859.592619 214.404375) scale(0.2 -0.2)">
       <use xlink:href="#TimesNewRomanPSMT-32"/>
       <use xlink:href="#TimesNewRomanPSMT-35" x="50"/>
       <use xlink:href="#TimesNewRomanPSMT-30" x="100"/>
      </g>
     </g>
    </g>
    <g id="xtick_7">
     <g id="line2d_7">
      <g>
       <use xlink:href="#m059eb5abba" x="1028.357536" y="193.516875" style="stroke: #000000; stroke-width: 0.8"/>
      </g>
     </g>
     <g id="text_7">
      <!-- 300 -->
      <g transform="translate(1013.357536 214.404375) scale(0.2 -0.2)">
       <defs>
        <path id="TimesNewRomanPSMT-33" d="M 325 3431 
Q 506 3859 782 4092 
Q 1059 4325 1472 4325 
Q 1981 4325 2253 3994 
Q 2459 3747 2459 3466 
Q 2459 3003 1878 2509 
Q 2269 2356 2469 2072 
Q 2669 1788 2669 1403 
Q 2669 853 2319 450 
Q 1863 -75 997 -75 
Q 569 -75 414 31 
Q 259 138 259 259 
Q 259 350 332 419 
Q 406 488 509 488 
Q 588 488 669 463 
Q 722 447 909 348 
Q 1097 250 1169 231 
Q 1284 197 1416 197 
Q 1734 197 1970 444 
Q 2206 691 2206 1028 
Q 2206 1275 2097 1509 
Q 2016 1684 1919 1775 
Q 1784 1900 1550 2001 
Q 1316 2103 1072 2103 
L 972 2103 
L 972 2197 
Q 1219 2228 1467 2375 
Q 1716 2522 1828 2728 
Q 1941 2934 1941 3181 
Q 1941 3503 1739 3701 
Q 1538 3900 1238 3900 
Q 753 3900 428 3381 
L 325 3431 
z
" transform="scale(0.015625)"/>
       </defs>
       <use xlink:href="#TimesNewRomanPSMT-33"/>
       <use xlink:href="#TimesNewRomanPSMT-30" x="50"/>
       <use xlink:href="#TimesNewRomanPSMT-30" x="100"/>
      </g>
     </g>
    </g>
   </g>
   <g id="matplotlib.axis_2">
    <g id="ytick_1">
     <g id="line2d_8">
      <defs>
       <path id="m3868f19b3b" d="M 0 0 
L -3.5 0 
" style="stroke: #000000; stroke-width: 0.8"/>
      </defs>
      <g>
       <use xlink:href="#m3868f19b3b" x="61.6375" y="191.594733" style="stroke: #000000; stroke-width: 0.8"/>
      </g>
     </g>
     <g id="text_8">
      <!-- 0.0 -->
      <g transform="translate(29.6375 198.538483) scale(0.2 -0.2)">
       <defs>
        <path id="TimesNewRomanPSMT-2e" d="M 800 606 
Q 947 606 1047 504 
Q 1147 403 1147 259 
Q 1147 116 1045 14 
Q 944 -88 800 -88 
Q 656 -88 554 14 
Q 453 116 453 259 
Q 453 406 554 506 
Q 656 606 800 606 
z
" transform="scale(0.015625)"/>
       </defs>
       <use xlink:href="#TimesNewRomanPSMT-30"/>
       <use xlink:href="#TimesNewRomanPSMT-2e" x="50"/>
       <use xlink:href="#TimesNewRomanPSMT-30" x="75"/>
      </g>
     </g>
    </g>
    <g id="ytick_2">
     <g id="line2d_9">
      <g>
       <use xlink:href="#m3868f19b3b" x="61.6375" y="140.46031" style="stroke: #000000; stroke-width: 0.8"/>
      </g>
     </g>
     <g id="text_9">
      <!-- 1.0 -->
      <g transform="translate(29.6375 147.40406) scale(0.2 -0.2)">
       <use xlink:href="#TimesNewRomanPSMT-31"/>
       <use xlink:href="#TimesNewRomanPSMT-2e" x="50"/>
       <use xlink:href="#TimesNewRomanPSMT-30" x="75"/>
      </g>
     </g>
    </g>
    <g id="ytick_3">
     <g id="line2d_10">
      <g>
       <use xlink:href="#m3868f19b3b" x="61.6375" y="89.325888" style="stroke: #000000; stroke-width: 0.8"/>
      </g>
     </g>
     <g id="text_10">
      <!-- 2.0 -->
      <g transform="translate(29.6375 96.269638) scale(0.2 -0.2)">
       <use xlink:href="#TimesNewRomanPSMT-32"/>
       <use xlink:href="#TimesNewRomanPSMT-2e" x="50"/>
       <use xlink:href="#TimesNewRomanPSMT-30" x="75"/>
      </g>
     </g>
    </g>
    <g id="ytick_4">
     <g id="line2d_11">
      <g>
       <use xlink:href="#m3868f19b3b" x="61.6375" y="38.191466" style="stroke: #000000; stroke-width: 0.8"/>
      </g>
     </g>
     <g id="text_11">
      <!-- 3.0 -->
      <g transform="translate(29.6375 45.135216) scale(0.2 -0.2)">
       <use xlink:href="#TimesNewRomanPSMT-33"/>
       <use xlink:href="#TimesNewRomanPSMT-2e" x="50"/>
       <use xlink:href="#TimesNewRomanPSMT-30" x="75"/>
      </g>
     </g>
    </g>
    <g id="text_12">
     <!-- CPU使用率 -->
     <g transform="translate(23.059375 156.288125) rotate(-90) scale(0.2 -0.2)">
      <defs>
       <path id="SimSun-43" d="M 1725 50 
Q 1025 50 612 575 
Q 200 1100 200 2225 
Q 200 3175 637 3800 
Q 1075 4425 1825 4425 
Q 2000 4425 2175 4375 
Q 2350 4300 2475 4300 
Q 2575 4300 2637 4325 
Q 2700 4350 2750 4425 
L 2975 3325 
L 2825 3275 
Q 2675 3750 2425 4000 
Q 2175 4250 1775 4250 
Q 1250 4250 962 3675 
Q 675 3100 675 2250 
Q 675 1325 925 800 
Q 1175 275 1750 275 
Q 2150 275 2437 562 
Q 2725 850 2825 1325 
L 2975 1250 
Q 2850 725 2512 387 
Q 2175 50 1725 50 
z
" transform="scale(0.015625)"/>
       <path id="SimSun-50" d="M 950 2100 
L 950 450 
Q 950 350 1012 300 
Q 1075 250 1175 250 
L 1350 250 
L 1350 100 
L 150 100 
L 150 250 
L 325 250 
Q 450 250 500 300 
Q 550 350 550 450 
L 550 4025 
Q 550 4125 500 4175 
Q 450 4225 325 4225 
L 175 4225 
L 175 4375 
L 1650 4375 
Q 2275 4375 2612 4062 
Q 2950 3750 2950 3275 
Q 2950 2700 2587 2400 
Q 2225 2100 1725 2100 
L 950 2100 
z
M 1575 2250 
Q 1950 2250 2237 2475 
Q 2525 2700 2525 3250 
Q 2525 3750 2287 3987 
Q 2050 4225 1525 4225 
L 1175 4225 
Q 1075 4225 1012 4175 
Q 950 4125 950 4025 
L 950 2250 
L 1575 2250 
z
" transform="scale(0.015625)"/>
       <path id="SimSun-55" d="M 1625 250 
Q 2000 250 2262 500 
Q 2525 750 2525 1125 
L 2525 4025 
Q 2525 4125 2475 4175 
Q 2425 4225 2300 4225 
L 2150 4225 
L 2150 4375 
L 3050 4375 
L 3050 4225 
L 2900 4225 
Q 2800 4225 2737 4175 
Q 2675 4125 2675 4025 
L 2675 1125 
Q 2675 625 2337 337 
Q 2000 50 1575 50 
Q 1125 50 787 300 
Q 450 550 450 1100 
L 450 4025 
Q 450 4125 400 4175 
Q 350 4225 225 4225 
L 100 4225 
L 100 4375 
L 1200 4375 
L 1200 4225 
L 1075 4225 
Q 975 4225 912 4175 
Q 850 4125 850 4025 
L 850 1100 
Q 850 600 1062 425 
Q 1275 250 1625 250 
z
" transform="scale(0.015625)"/>
       <path id="SimSun-4f7f" d="M 2875 3150 
L 2875 2100 
L 3825 2100 
Q 3850 2825 3850 3150 
L 2875 3150 
z
M 4175 3150 
Q 4175 2800 4150 2100 
L 5150 2100 
L 5150 3150 
L 4175 3150 
z
M 5475 3100 
L 5475 2425 
Q 5475 2100 5500 1800 
L 5150 1675 
L 5150 1950 
L 4150 1950 
Q 4125 1175 3875 600 
Q 4275 275 4875 75 
Q 5475 -125 6075 -150 
L 6075 -250 
Q 5700 -300 5600 -575 
Q 4525 -325 3725 350 
Q 3425 25 2925 -225 
Q 2425 -475 1875 -650 
L 1825 -550 
Q 2400 -325 2850 -25 
Q 3300 275 3500 575 
Q 3200 925 2825 1650 
L 2900 1700 
Q 3325 1100 3625 825 
Q 3800 1300 3825 1950 
L 2875 1950 
L 2875 1825 
L 2525 1675 
Q 2550 2075 2550 2562 
Q 2550 3050 2525 3500 
L 2875 3300 
L 3850 3300 
L 3850 4025 
L 2975 4025 
Q 2650 4025 2375 3950 
L 2150 4175 
L 3850 4175 
L 3850 4525 
Q 3850 4775 3825 5225 
L 4350 5000 
L 4175 4825 
L 4175 4175 
L 5300 4175 
L 5600 4475 
L 6050 4025 
L 4175 4025 
L 4175 3300 
L 5100 3300 
L 5275 3525 
L 5650 3225 
L 5475 3100 
z
M 1675 3175 
L 1675 -450 
L 1325 -625 
Q 1350 -75 1350 350 
L 1350 3200 
Q 900 2475 350 1900 
L 275 1950 
Q 700 2525 1112 3400 
Q 1525 4275 1800 5250 
L 2325 4925 
L 2125 4800 
Q 1725 3925 1500 3525 
L 1875 3325 
L 1675 3175 
z
" transform="scale(0.015625)"/>
       <path id="SimSun-7528" d="M 3400 3150 
L 3400 1825 
L 5075 1825 
L 5075 3150 
L 3400 3150 
z
M 4075 100 
Q 4725 50 4900 62 
Q 5075 75 5075 400 
L 5075 1675 
L 3400 1675 
Q 3400 75 3425 -225 
L 3050 -400 
Q 3075 1025 3075 1675 
L 1425 1675 
Q 1250 350 375 -600 
L 300 -550 
Q 775 225 950 1025 
Q 1125 1825 1125 3225 
Q 1125 4625 1100 5075 
L 1475 4825 
L 5050 4825 
L 5225 5100 
L 5625 4800 
L 5425 4600 
L 5425 225 
Q 5450 -400 4875 -575 
Q 4825 -150 4075 -25 
L 4075 100 
z
M 1475 4675 
L 1475 3300 
L 3075 3300 
L 3075 4675 
L 1475 4675 
z
M 3400 4675 
L 3400 3300 
L 5075 3300 
L 5075 4675 
L 3400 4675 
z
M 1475 3150 
Q 1450 2100 1425 1825 
L 3075 1825 
L 3075 3150 
L 1475 3150 
z
" transform="scale(0.015625)"/>
       <path id="SimSun-7387" d="M 875 3725 
L 925 3800 
Q 1375 3650 1550 3525 
Q 1725 3400 1725 3250 
Q 1725 3175 1662 3025 
Q 1600 2875 1550 2875 
Q 1500 2875 1425 3050 
Q 1275 3325 875 3725 
z
M 550 1850 
Q 875 1925 2000 2575 
L 2050 2500 
Q 1675 2225 1337 1937 
Q 1000 1650 875 1425 
L 550 1850 
z
M 5200 3450 
Q 4800 3150 4275 2800 
L 4225 2875 
Q 4775 3400 5050 3925 
L 5450 3525 
L 5200 3450 
z
M 4325 2500 
L 4350 2575 
Q 5225 2350 5375 2212 
Q 5525 2075 5525 1900 
Q 5525 1775 5487 1662 
Q 5450 1550 5400 1550 
Q 5325 1550 5200 1800 
Q 4975 2150 4325 2500 
z
M 3150 3900 
Q 2500 3300 2300 3150 
Q 2800 3150 3400 3175 
Q 3700 3500 3850 3825 
L 4250 3450 
Q 4050 3400 3450 2825 
Q 2850 2250 2475 1950 
Q 3150 1975 3850 2000 
Q 3750 2175 3550 2450 
L 3600 2500 
Q 4050 2250 4200 2100 
Q 4350 1950 4350 1850 
Q 4350 1775 4250 1625 
Q 4150 1475 4100 1475 
Q 4075 1475 4050 1550 
Q 4000 1700 3900 1900 
Q 3650 1875 3075 1800 
L 3500 1550 
L 3325 1425 
L 3325 975 
L 5325 975 
L 5650 1300 
L 6100 825 
L 3325 825 
Q 3325 -275 3350 -525 
L 2975 -650 
Q 3000 0 3000 825 
L 1125 825 
Q 800 825 525 750 
L 300 975 
L 3000 975 
L 3000 1775 
Q 2450 1700 2200 1525 
L 1950 1950 
Q 2275 1950 2675 2350 
Q 3075 2750 3325 3050 
Q 2400 2950 2150 2775 
L 1950 3175 
Q 2150 3150 2475 3575 
Q 2800 4000 2900 4225 
L 1450 4225 
Q 1125 4225 850 4150 
L 625 4375 
L 3100 4375 
Q 3050 4800 2675 5200 
L 2725 5250 
Q 3225 5050 3337 4912 
Q 3450 4775 3450 4700 
Q 3450 4550 3250 4375 
L 5025 4375 
L 5350 4675 
L 5775 4225 
L 3050 4225 
L 3375 3950 
L 3150 3900 
z
" transform="scale(0.015625)"/>
      </defs>
      <use xlink:href="#SimSun-43"/>
      <use xlink:href="#SimSun-50" x="50"/>
      <use xlink:href="#SimSun-55" x="100"/>
      <use xlink:href="#SimSun-4f7f" x="150"/>
      <use xlink:href="#SimSun-7528" x="250"/>
      <use xlink:href="#SimSun-7387" x="350"/>
     </g>
    </g>
   </g>
   <g id="line2d_12">
    <path d="M 105.768031 129.313003 
L 108.84333 133.70034 
L 111.918628 136.369554 
L 114.993926 135.571859 
L 118.069225 134.467355 
L 121.144523 140.572806 
L 124.219821 138.333119 
L 127.29512 138.455844 
L 130.370418 142.076158 
L 133.445716 143.54883 
L 136.521015 141.830712 
L 139.596313 143.610192 
L 142.671612 168.614923 
L 145.74691 137.320654 
L 148.822208 137.075211 
L 151.897507 138.05699 
L 154.972805 139.406943 
L 158.048103 139.560341 
L 161.123402 142.475006 
L 164.1987 158.265317 
L 167.273998 161.364059 
L 170.349297 165.045739 
L 173.424595 169.34103 
L 176.499893 170.609167 
L 179.575192 168.093351 
L 182.65049 169.566022 
L 185.725788 170.69098 
L 188.801087 172.777264 
L 191.876385 172.327282 
L 194.951683 174.024943 
L 198.026982 175.231715 
L 201.10228 177.706623 
L 204.177579 179.363377 
L 207.252877 184.384784 
L 210.328175 177.727077 
L 213.403474 184.55864 
L 216.478772 176.847562 
L 219.55407 183.812075 
L 222.629369 176.418035 
L 225.704667 180.498563 
L 228.779965 172.572729 
L 231.855264 174.413568 
L 234.930562 173.97381 
L 238.00586 174.935138 
L 241.081159 175.057859 
L 244.156457 175.998733 
L 247.231755 175.865783 
L 250.307054 176.765749 
L 253.382352 176.724841 
L 256.45765 176.827111 
L 259.532949 174.587421 
L 262.608247 176.172592 
L 265.683546 175.374894 
L 268.758844 177.553222 
L 271.834142 177.041875 
L 274.909441 178.044111 
L 277.984739 177.21573 
L 281.060037 181.705335 
L 284.135336 182.564395 
L 287.210634 184.405229 
L 290.285932 177.911161 
L 293.361231 178.852036 
L 296.436529 170.793248 
L 299.511827 177.952066 
L 302.587126 180.774692 
L 308.737722 181.807602 
L 311.813021 181.234899 
L 314.888319 180.058804 
L 317.963617 181.347395 
L 321.038916 179.925854 
L 324.114214 176.489623 
L 327.189513 178.954304 
L 330.264811 184.885899 
L 333.340109 182.789388 
L 336.415408 184.507503 
L 339.490706 185.714274 
L 342.566004 186.041534 
L 345.641303 185.969946 
L 348.716601 185.509739 
L 351.791899 178.90317 
L 354.867198 184.01661 
L 357.942496 179.179293 
L 361.017794 175.456707 
L 364.093093 177.911161 
L 367.168391 177.502085 
L 370.243689 179.077025 
L 373.318988 177.236188 
L 376.394286 173.94313 
L 379.469584 175.068088 
L 382.544883 174.86355 
L 385.620181 174.822642 
L 388.69548 175.333985 
L 391.770778 173.554508 
L 394.846076 172.715904 
L 397.921375 172.225015 
L 400.996673 171.01824 
L 404.071971 170.834156 
L 407.14727 169.095584 
L 410.222568 157.569887 
L 413.297866 157.416482 
L 416.373165 170.997786 
L 419.448463 169.791015 
L 422.523761 169.954645 
L 425.59906 158.684619 
L 428.674358 154.48137 
L 431.749656 154.072294 
L 434.824955 155.667687 
L 437.900253 145.972601 
L 440.975551 134.59008 
L 444.05085 137.228615 
L 447.126148 138.374027 
L 450.201447 140.828478 
L 453.276745 141.482998 
L 456.352043 146.228273 
L 459.427342 147.087331 
L 462.50264 143.242024 
L 465.577938 149.255431 
L 468.653237 144.510158 
L 471.728535 145.737384 
L 474.803833 137.555875 
L 477.879132 125.63133 
L 480.95443 111.671632 
L 484.029728 104.154869 
L 487.105027 67.675577 
L 490.180325 101.086806 
L 493.255623 109.319449 
L 496.330922 114.330619 
L 499.40622 98.530081 
L 502.481518 102.365165 
L 505.556817 91.780345 
L 508.632115 102.416302 
L 511.707414 88.456605 
L 514.782712 71.469747 
L 517.85801 63.288247 
L 520.933309 69.8539 
L 524.008607 78.99674 
L 527.083905 78.137673 
L 530.159204 81.031886 
L 533.234502 88.415703 
L 536.3098 61.631485 
L 539.385099 83.414755 
L 542.460397 75.683228 
L 545.535695 76.112755 
L 548.610994 79.364908 
L 551.686292 72.799243 
L 554.76159 74.087837 
L 557.836889 84.048818 
L 560.912187 93.109835 
L 563.987485 88.456605 
L 567.062784 76.184343 
L 570.138082 69.424372 
L 573.213381 67.828982 
L 576.288679 69.424372 
L 579.363977 73.535579 
L 582.439276 72.737884 
L 585.514574 149.500877 
L 588.589872 69.056204 
L 591.665171 68.19715 
L 594.740469 78.567212 
L 597.815767 86.666896 
L 600.891066 81.757993 
L 603.966364 85.501032 
L 607.041662 107.580876 
L 610.116961 104.103738 
L 613.192259 102.109494 
L 616.267557 101.59815 
L 619.342856 105.944578 
L 622.418154 103.541257 
L 625.493452 96.58698 
L 628.568751 76.91045 
L 631.644049 80.285322 
L 634.719348 93.989347 
L 637.794646 104.206005 
L 640.869944 101.700417 
L 643.945243 102.365165 
L 647.020541 95.564286 
L 650.095839 113.154527 
L 653.171138 114.58629 
L 656.246436 113.205664 
L 659.321734 101.24021 
L 662.397033 82.647734 
L 665.472331 91.882607 
L 668.547629 106.916128 
L 671.622928 101.24021 
L 674.698226 104.512814 
L 677.773524 111.109152 
L 680.848823 109.779656 
L 683.924121 109.01264 
L 686.999419 110.802349 
L 690.074718 113.665871 
L 693.150016 111.927304 
L 696.225315 100.984539 
L 699.300613 86.850986 
L 702.375911 89.980408 
L 705.45121 88.814544 
L 708.526508 90.164492 
L 711.601806 88.753185 
L 714.677105 82.801138 
L 717.752403 80.162603 
L 720.827701 74.455993 
L 723.903 79.119458 
L 726.978298 69.178923 
L 730.053596 72.246985 
L 733.128895 73.903747 
L 736.204193 69.97663 
L 739.279491 80.83758 
L 742.35479 88.998634 
L 745.430088 103.531035 
L 748.505386 106.813861 
L 751.580685 101.904959 
L 754.655983 95.093851 
L 757.731282 102.252669 
L 760.80658 113.665871 
L 763.881878 108.603564 
L 766.957177 110.393273 
L 770.032475 103.899203 
L 773.107773 105.024158 
L 776.183072 85.93056 
L 779.25837 94.899538 
L 782.333668 97.149454 
L 785.408967 100.012982 
L 788.484265 98.42782 
L 791.559563 104.563945 
L 794.634862 100.575462 
L 797.71016 104.154869 
L 800.785458 105.688906 
L 803.860757 102.007226 
L 806.936055 107.632013 
L 810.011353 104.308273 
L 813.086652 105.740037 
L 816.16195 105.177556 
L 819.237249 85.981703 
L 822.312547 83.967001 
L 825.387845 74.517365 
L 828.463144 80.83758 
L 831.538442 65.313165 
L 834.61374 63.196202 
L 837.689039 36.534716 
L 840.764337 39.899358 
L 843.839635 60.015638 
L 846.914934 54.503347 
L 849.990232 73.965107 
L 853.06553 61.324677 
L 856.140829 54.390857 
L 859.216127 72.799243 
L 862.291425 71.756099 
L 865.366724 77.708146 
L 868.442022 81.757993 
L 871.51732 79.610345 
L 874.592619 79.426267 
L 877.667917 84.457888 
L 880.743216 75.376419 
L 883.818514 71.756099 
L 886.893812 71.940189 
L 889.969111 67.143777 
L 893.044409 57.939577 
L 896.119707 56.937347 
L 899.195006 78.321763 
L 902.270304 72.615165 
L 905.345602 78.505853 
L 908.420901 83.292025 
L 911.496199 79.671704 
L 914.571497 84.948787 
L 917.646796 65.251806 
L 920.722094 86.625994 
L 923.797392 81.942084 
L 926.872691 84.68288 
L 929.947989 86.257826 
L 933.023287 87.382787 
L 936.098586 95.615423 
L 942.249183 93.876851 
L 945.324481 89.274757 
L 948.399779 89.019079 
L 951.475078 99.245966 
L 954.550376 100.984539 
L 957.625674 110.22964 
L 960.700973 110.5569 
L 963.776271 110.311457 
L 966.851569 109.411488 
L 969.926868 114.688564 
L 973.002166 115.956695 
L 976.077464 112.684091 
L 982.228061 127.247177 
L 985.303359 125.529056 
L 988.378658 119.433833 
L 988.378658 119.433833 
" clip-path="url(#p27e6305037)" style="fill: none; stroke: #1f77b4; stroke-width: 1.5; stroke-linecap: square"/>
   </g>
   <g id="line2d_13">
    <path d="M 548.610994 75.977284 
L 551.686292 80.571685 
L 554.76159 81.44938 
L 557.836889 84.203222 
L 560.912187 85.372377 
L 563.987485 87.005707 
L 567.062784 87.543091 
L 570.138082 87.625481 
L 573.213381 86.908237 
L 576.288679 85.518929 
L 579.363977 83.487965 
L 582.439276 82.464607 
L 585.514574 134.559297 
L 588.589872 77.84514 
L 591.665171 82.834469 
L 594.740469 86.191078 
L 597.815767 83.240504 
L 600.891066 83.688196 
L 603.966364 85.785458 
L 607.041662 92.212305 
L 610.116961 85.783129 
L 613.192259 81.130124 
L 616.267557 81.831032 
L 619.342856 87.446231 
L 622.418154 85.13829 
L 625.493452 80.371137 
L 628.568751 81.387436 
L 631.644049 82.25578 
L 634.719348 84.581862 
L 637.794646 86.109639 
L 640.869944 84.923112 
L 643.945243 84.199052 
L 647.020541 86.062471 
L 650.095839 87.465225 
L 653.171138 83.033226 
L 656.246436 88.550052 
L 659.321734 83.024911 
L 662.397033 83.786544 
L 665.472331 79.03919 
L 668.547629 83.145301 
L 671.622928 89.05124 
L 674.698226 93.002502 
L 677.773524 91.446447 
L 680.848823 87.993027 
L 683.924121 92.044911 
L 686.999419 92.775218 
L 690.074718 94.102319 
L 693.150016 91.982198 
L 696.225315 87.791613 
L 699.300613 88.137434 
L 702.375911 89.676604 
L 705.45121 86.950285 
L 708.526508 88.158745 
L 711.601806 91.366642 
L 714.677105 89.673635 
L 717.752403 89.689118 
L 720.827701 94.139594 
L 723.903 92.525483 
L 726.978298 88.97925 
L 730.053596 90.103376 
L 733.128895 84.62786 
L 736.204193 88.969387 
L 739.279491 89.080024 
L 742.35479 91.251086 
L 745.430088 94.185848 
L 748.505386 99.695359 
L 751.580685 100.047392 
L 754.655983 96.909613 
L 757.731282 95.171919 
L 760.80658 92.574103 
L 763.881878 92.739461 
L 766.957177 96.946602 
L 770.032475 90.253891 
L 776.183072 84.668616 
L 779.25837 84.911774 
L 782.333668 84.998223 
L 785.408967 85.225568 
L 788.484265 87.015533 
L 791.559563 87.991784 
L 794.634862 83.32143 
L 797.71016 88.166815 
L 800.785458 85.022776 
L 803.860757 84.662776 
L 806.936055 76.928445 
L 810.011353 80.057306 
L 813.086652 83.710116 
L 816.16195 85.349457 
L 819.237249 82.305509 
L 822.312547 86.52934 
L 825.387845 86.060288 
L 828.463144 83.00788 
L 831.538442 84.17684 
L 834.61374 84.120174 
L 837.689039 85.349603 
L 840.764337 82.977901 
L 843.839635 82.954701 
L 846.914934 77.049225 
L 849.990232 81.078579 
L 853.06553 80.82484 
L 856.140829 65.021462 
L 859.216127 78.667755 
L 862.291425 77.218746 
L 865.366724 74.824039 
L 868.442022 77.727396 
L 871.51732 82.798273 
L 874.592619 75.004057 
L 877.667917 72.340652 
L 880.743216 61.115789 
L 883.818514 68.606634 
L 886.893812 68.370133 
L 889.969111 72.750917 
L 893.044409 81.159944 
L 896.119707 76.572761 
L 899.195006 75.460503 
L 902.270304 86.742458 
L 905.345602 85.088659 
L 908.420901 89.233221 
L 911.496199 90.608898 
L 914.571497 89.368729 
L 917.646796 82.250245 
L 920.722094 87.311211 
L 923.797392 82.754043 
L 926.872691 71.314124 
L 929.947989 80.025438 
L 933.023287 83.919443 
L 936.098586 87.256301 
L 939.173884 87.837355 
L 942.249183 79.375185 
L 945.324481 87.985188 
L 948.399779 89.132203 
L 951.475078 90.708978 
L 954.550376 90.678609 
L 957.625674 90.034495 
L 960.700973 91.704247 
L 963.776271 93.781715 
L 966.851569 98.089899 
L 969.926868 103.368182 
L 973.002166 107.274123 
L 976.077464 107.117567 
L 979.152763 106.730819 
L 982.228061 112.319398 
L 985.303359 113.262482 
L 988.378658 115.783967 
L 988.378658 115.783967 
" clip-path="url(#p27e6305037)" style="fill: none; stroke: #ff7f0e; stroke-width: 1.5; stroke-linecap: square"/>
   </g>
   <g id="line2d_14">
    <path d="M 548.610994 193.516875 
L 548.610994 29.059375 
" clip-path="url(#p27e6305037)" style="fill: none; stroke-dasharray: 7.4,3.2; stroke-dashoffset: 0; stroke: #0000ff; stroke-width: 2"/>
   </g>
   <g id="patch_3">
    <path d="M 61.6375 193.516875 
L 61.6375 29.059375 
" style="fill: none; stroke: #000000; stroke-width: 0.8; stroke-linejoin: miter; stroke-linecap: square"/>
   </g>
   <g id="patch_4">
    <path d="M 1032.509189 193.516875 
L 1032.509189 29.059375 
" style="fill: none; stroke: #000000; stroke-width: 0.8; stroke-linejoin: miter; stroke-linecap: square"/>
   </g>
   <g id="patch_5">
    <path d="M 61.6375 193.516875 
L 1032.509189 193.516875 
" style="fill: none; stroke: #000000; stroke-width: 0.8; stroke-linejoin: miter; stroke-linecap: square"/>
   </g>
   <g id="patch_6">
    <path d="M 61.6375 29.059375 
L 1032.509189 29.059375 
" style="fill: none; stroke: #000000; stroke-width: 0.8; stroke-linejoin: miter; stroke-linecap: square"/>
   </g>
   <g id="text_13">
    <!-- 云函数ID: 28 -->
    <g transform="translate(487.073345 23.059375) scale(0.2 -0.2)">
     <defs>
      <path id="SimSun-4e91" d="M 1200 4450 
L 4500 4450 
L 4850 4800 
L 5350 4300 
L 1975 4300 
Q 1700 4300 1425 4225 
L 1200 4450 
z
M 1600 275 
Q 2300 300 4725 450 
Q 4425 975 3850 1700 
L 3925 1775 
Q 5200 725 5287 500 
Q 5375 275 5375 175 
Q 5375 0 5250 -162 
Q 5125 -325 5075 -325 
Q 5025 -325 4975 -200 
Q 4875 50 4775 300 
Q 1650 -25 1300 -300 
L 975 300 
Q 1225 350 1462 550 
Q 1700 750 2150 1462 
Q 2600 2175 2725 2600 
L 1250 2600 
Q 925 2600 650 2525 
L 425 2750 
L 5025 2750 
L 5450 3175 
L 6025 2600 
L 3250 2600 
Q 3000 2025 2500 1375 
Q 2000 725 1600 275 
z
" transform="scale(0.015625)"/>
      <path id="SimSun-51fd" d="M 3050 2275 
L 3050 3000 
Q 3050 3450 3025 3800 
L 3275 3625 
L 4450 4475 
L 1650 4475 
Q 1325 4475 1050 4400 
L 825 4625 
L 4450 4625 
L 4775 4875 
L 5150 4375 
Q 4875 4325 4550 4175 
Q 4225 4025 3400 3550 
L 3550 3450 
L 3375 3325 
L 3375 2400 
Q 4250 3225 4475 3600 
L 4875 3150 
L 4625 3125 
Q 3625 2425 3400 2275 
Q 4575 1675 4687 1487 
Q 4800 1300 4800 1150 
Q 4800 1025 4750 925 
Q 4700 825 4675 825 
Q 4575 825 4375 1150 
Q 4075 1600 3375 2150 
L 3375 725 
Q 3375 350 2875 150 
Q 2850 450 2200 650 
L 2200 750 
Q 2800 675 2925 700 
Q 3050 725 3050 850 
L 3050 2100 
Q 1850 1300 1625 1025 
L 1275 1400 
Q 1575 1475 2087 1725 
Q 2600 1975 3050 2275 
z
M 1700 3475 
L 1775 3550 
Q 2350 3200 2475 3025 
Q 2600 2850 2600 2775 
Q 2600 2650 2500 2525 
Q 2400 2400 2350 2400 
Q 2275 2400 2225 2575 
Q 2150 2875 1700 3475 
z
M 5150 0 
L 5150 2175 
Q 5150 2725 5125 3325 
L 5725 3050 
L 5500 2850 
L 5500 525 
Q 5500 100 5525 -400 
L 5150 -600 
L 5150 -150 
L 1250 -150 
L 1000 -375 
L 675 -50 
L 875 125 
L 875 2375 
Q 875 2800 850 3425 
L 1450 3150 
L 1225 2975 
L 1225 0 
L 5150 0 
z
" transform="scale(0.015625)"/>
      <path id="SimSun-6570" d="M 1875 1525 
Q 1675 1200 1500 900 
Q 1825 825 2275 725 
Q 2500 975 2725 1525 
L 1875 1525 
z
M 850 4900 
Q 1325 4600 1425 4450 
Q 1525 4300 1525 4225 
Q 1525 4100 1437 3975 
Q 1350 3850 1300 3850 
Q 1225 3850 1150 4100 
Q 1050 4450 775 4850 
L 850 4900 
z
M 3000 4975 
L 3450 4675 
Q 3250 4625 3100 4425 
Q 2925 4225 2525 3825 
L 2450 3875 
Q 2925 4625 3000 4975 
z
M 1875 5250 
L 2425 5000 
L 2225 4825 
L 2225 3675 
L 2850 3675 
L 3125 3950 
L 3550 3525 
L 2225 3525 
L 2225 3300 
Q 2800 3175 2937 3062 
Q 3075 2950 3075 2775 
Q 3075 2700 3050 2587 
Q 3025 2475 2975 2475 
Q 2925 2475 2800 2650 
Q 2600 2925 2225 3175 
L 2225 2400 
L 1925 2200 
L 2275 2050 
Q 2150 2000 1950 1675 
L 2725 1675 
L 2900 1900 
L 3275 1575 
L 3050 1450 
Q 2800 875 2600 650 
Q 3000 550 3137 437 
Q 3275 325 3275 150 
Q 3275 -25 3200 -25 
Q 3125 -25 3025 75 
Q 2750 275 2400 425 
Q 1525 -275 325 -500 
L 300 -425 
Q 1450 -50 2100 550 
Q 1600 725 1125 800 
Q 1225 950 1525 1525 
L 1200 1525 
Q 875 1525 600 1450 
L 375 1675 
L 1575 1675 
Q 1675 1925 1775 2275 
L 1900 2225 
L 1900 3250 
Q 1225 2475 350 2050 
L 300 2125 
Q 1225 2775 1700 3525 
L 1250 3525 
Q 925 3525 650 3450 
L 425 3675 
L 1900 3675 
Q 1900 4575 1875 5250 
z
M 3925 3525 
Q 4050 2075 4525 1100 
Q 4925 1950 5025 3525 
L 3925 3525 
z
M 4050 5250 
L 4625 4925 
Q 4425 4850 4325 4625 
Q 4225 4400 3950 3675 
L 5375 3675 
L 5675 3975 
L 6125 3525 
L 5400 3525 
Q 5250 1675 4750 775 
Q 5325 75 6100 -100 
L 6100 -200 
Q 5625 -275 5600 -500 
Q 4950 -50 4525 525 
Q 3700 -275 2550 -650 
L 2500 -575 
Q 3650 -50 4325 800 
Q 3850 1975 3825 3375 
Q 3575 2725 3100 2150 
L 3025 2200 
Q 3625 3200 4050 5250 
z
" transform="scale(0.015625)"/>
      <path id="SimSun-49" d="M 600 4225 
L 600 4375 
L 2600 4375 
L 2600 4225 
L 2025 4225 
Q 1925 4225 1862 4175 
Q 1800 4125 1800 4025 
L 1800 450 
Q 1800 350 1862 300 
Q 1925 250 2025 250 
L 2600 250 
L 2600 100 
L 600 100 
L 600 250 
L 1175 250 
Q 1300 250 1350 300 
Q 1400 350 1400 450 
L 1400 4025 
Q 1400 4125 1350 4175 
Q 1300 4225 1175 4225 
L 600 4225 
z
" transform="scale(0.015625)"/>
      <path id="SimSun-44" d="M 2500 2275 
Q 2500 3350 2175 3787 
Q 1850 4225 1275 4225 
Q 1100 4225 1012 4175 
Q 925 4125 925 4025 
L 925 450 
Q 925 350 1000 300 
Q 1075 250 1200 250 
Q 1750 250 2125 662 
Q 2500 1075 2500 2275 
z
M 525 4025 
Q 525 4125 475 4175 
Q 425 4225 300 4225 
L 150 4225 
L 150 4375 
L 1275 4375 
Q 2050 4375 2512 3875 
Q 2975 3375 2975 2325 
Q 2975 1175 2525 637 
Q 2075 100 1200 100 
L 125 100 
L 125 250 
L 300 250 
Q 425 250 475 300 
Q 525 350 525 450 
L 525 4025 
z
" transform="scale(0.015625)"/>
      <path id="SimSun-3a" d="M 1900 2725 
Q 1900 2575 1800 2475 
Q 1700 2375 1550 2375 
Q 1400 2375 1300 2475 
Q 1200 2575 1200 2725 
Q 1200 2875 1300 2975 
Q 1400 3075 1550 3075 
Q 1700 3075 1800 2975 
Q 1900 2875 1900 2725 
z
M 1900 375 
Q 1900 225 1800 125 
Q 1700 25 1550 25 
Q 1400 25 1300 125 
Q 1200 225 1200 375 
Q 1200 525 1300 625 
Q 1400 725 1550 725 
Q 1700 725 1800 625 
Q 1900 525 1900 375 
z
" transform="scale(0.015625)"/>
      <path id="SimSun-20" d="M 0 0 
Q 0 0 0 0 
z
" transform="scale(0.015625)"/>
      <path id="SimSun-32" d="M 2325 3325 
Q 2325 3775 2125 4012 
Q 1925 4250 1525 4250 
Q 1225 4250 1012 4087 
Q 800 3925 800 3675 
Q 800 3525 900 3425 
Q 975 3325 975 3225 
Q 975 3100 912 3037 
Q 850 2975 725 2975 
Q 575 2975 487 3062 
Q 400 3150 400 3350 
Q 400 3875 775 4150 
Q 1150 4425 1575 4425 
Q 2175 4425 2462 4125 
Q 2750 3825 2750 3375 
Q 2750 3075 2612 2775 
Q 2475 2475 2175 2200 
Q 1450 1500 1062 1062 
Q 675 625 600 475 
L 2075 475 
Q 2300 475 2450 650 
Q 2600 825 2650 1175 
L 2800 1175 
L 2650 100 
L 325 100 
L 325 425 
Q 450 650 737 1000 
Q 1025 1350 1500 1825 
Q 1925 2250 2125 2625 
Q 2325 3000 2325 3325 
z
" transform="scale(0.015625)"/>
      <path id="SimSun-38" d="M 625 1125 
Q 625 725 887 475 
Q 1150 225 1550 225 
Q 2025 225 2237 475 
Q 2450 725 2450 1100 
Q 2450 1425 2150 1725 
Q 1850 2025 1250 2275 
Q 950 2075 787 1775 
Q 625 1475 625 1125 
z
M 2825 1175 
Q 2825 700 2475 375 
Q 2125 50 1550 50 
Q 1025 50 650 375 
Q 275 700 275 1125 
Q 275 1550 487 1850 
Q 700 2150 1100 2375 
Q 750 2550 562 2812 
Q 375 3075 375 3400 
Q 375 3825 700 4125 
Q 1025 4425 1600 4425 
Q 2125 4425 2450 4125 
Q 2775 3825 2775 3400 
Q 2775 3100 2587 2837 
Q 2400 2575 2000 2375 
Q 2425 2125 2625 1825 
Q 2825 1525 2825 1175 
z
M 2425 3375 
Q 2425 3725 2225 3987 
Q 2025 4250 1600 4250 
Q 1125 4250 925 4000 
Q 725 3750 725 3475 
Q 725 3200 1012 2937 
Q 1300 2675 1825 2475 
Q 2125 2625 2275 2850 
Q 2425 3075 2425 3375 
z
" transform="scale(0.015625)"/>
     </defs>
     <use xlink:href="#SimSun-4e91"/>
     <use xlink:href="#SimSun-51fd" x="100"/>
     <use xlink:href="#SimSun-6570" x="200"/>
     <use xlink:href="#SimSun-49" x="300"/>
     <use xlink:href="#SimSun-44" x="350"/>
     <use xlink:href="#SimSun-3a" x="400"/>
     <use xlink:href="#SimSun-20" x="450"/>
     <use xlink:href="#SimSun-32" x="500"/>
     <use xlink:href="#SimSun-38" x="550"/>
    </g>
   </g>
   <g id="legend_1">
    <g id="patch_7">
     <path d="M 75.6375 101.934375 
L 199.6375 101.934375 
Q 203.6375 101.934375 203.6375 97.934375 
L 203.6375 43.059375 
Q 203.6375 39.059375 199.6375 39.059375 
L 75.6375 39.059375 
Q 71.6375 39.059375 71.6375 43.059375 
L 71.6375 97.934375 
Q 71.6375 101.934375 75.6375 101.934375 
z
" style="fill: #ffffff; opacity: 0.8; stroke: #cccccc; stroke-linejoin: miter"/>
    </g>
    <g id="line2d_15">
     <path d="M 79.6375 55.996875 
L 99.6375 55.996875 
L 119.6375 55.996875 
" style="fill: none; stroke: #1f77b4; stroke-width: 1.5; stroke-linecap: square"/>
    </g>
    <g id="text_14">
     <!-- 真实值 -->
     <g transform="translate(135.6375 62.996875) scale(0.2 -0.2)">
      <defs>
       <path id="SimSun-771f" d="M 2050 3450 
L 2050 2900 
L 4300 2900 
L 4300 3450 
L 2050 3450 
z
M 2050 2750 
L 2050 2225 
L 4300 2225 
L 4300 2750 
L 2050 2750 
z
M 2050 2075 
L 2050 1550 
L 4300 1550 
L 4300 2075 
L 2050 2075 
z
M 2050 1400 
L 2050 875 
L 4300 875 
L 4300 1400 
L 2050 1400 
z
M 2875 3600 
L 2925 4325 
L 1525 4325 
Q 1200 4325 925 4250 
L 700 4475 
L 2950 4475 
Q 2975 4825 2975 5275 
L 3550 5025 
L 3375 4925 
L 3300 4475 
L 5000 4475 
L 5325 4825 
L 5775 4325 
L 3275 4325 
L 3200 3600 
L 4275 3600 
L 4450 3875 
L 4850 3575 
L 4650 3375 
L 4650 875 
L 5300 875 
L 5675 1225 
L 6125 725 
L 1150 725 
Q 825 725 550 650 
L 325 875 
L 1700 875 
Q 1700 3200 1675 3775 
L 2050 3600 
L 2875 3600 
z
M 2425 725 
L 2825 350 
L 2575 300 
Q 1500 -425 800 -650 
L 775 -575 
Q 1950 125 2425 725 
z
M 3800 700 
Q 4575 375 4962 200 
Q 5350 25 5400 -112 
Q 5450 -250 5450 -325 
Q 5450 -400 5400 -525 
Q 5350 -650 5325 -650 
Q 5250 -650 5100 -450 
Q 4875 -150 3750 625 
L 3800 700 
z
" transform="scale(0.015625)"/>
       <path id="SimSun-5b9e" d="M 1950 3625 
Q 2575 3400 2700 3250 
Q 2825 3100 2825 2975 
Q 2825 2850 2750 2700 
Q 2675 2550 2625 2550 
Q 2550 2550 2450 2800 
Q 2275 3175 1900 3550 
L 1950 3625 
z
M 3575 1325 
Q 3500 1100 3425 925 
Q 4650 550 5087 325 
Q 5525 100 5512 -225 
Q 5500 -550 5400 -550 
Q 5300 -550 5075 -300 
Q 4625 175 3375 800 
Q 3025 175 2300 -150 
Q 1575 -475 425 -625 
L 425 -525 
Q 1475 -325 2200 100 
Q 2925 525 3200 1325 
L 1225 1325 
Q 900 1325 625 1250 
L 400 1475 
L 3225 1475 
Q 3325 1950 3375 2575 
Q 3425 3200 3425 3700 
L 4050 3400 
L 3850 3225 
Q 3750 2300 3625 1475 
L 5175 1475 
L 5550 1850 
L 6075 1325 
L 3575 1325 
z
M 1275 2700 
Q 1975 2425 2100 2262 
Q 2225 2100 2225 1975 
Q 2225 1850 2150 1700 
Q 2075 1550 2025 1550 
Q 1950 1550 1850 1800 
Q 1675 2175 1225 2625 
L 1275 2700 
z
M 2750 5225 
L 2825 5275 
Q 3225 5100 3425 4925 
Q 3625 4750 3625 4600 
Q 3625 4450 3512 4300 
Q 3400 4150 3325 4150 
Q 3250 4150 3200 4400 
Q 3100 4775 2750 5225 
z
M 4975 3225 
L 5350 3925 
L 1175 3925 
Q 1225 3525 1125 3300 
Q 1025 3075 787 3100 
Q 550 3125 550 3200 
Q 550 3300 700 3475 
Q 975 3825 1050 4375 
L 1150 4375 
L 1175 4075 
L 5300 4075 
L 5575 4350 
L 6050 3800 
Q 5625 3825 5050 3175 
L 4975 3225 
z
" transform="scale(0.015625)"/>
       <path id="SimSun-503c" d="M 1525 650 
Q 1525 -225 1550 -525 
L 1175 -650 
Q 1200 250 1200 550 
L 1200 3025 
Q 750 2300 325 1850 
L 250 1900 
Q 725 2625 1100 3525 
Q 1475 4425 1675 5200 
L 2200 4875 
L 1950 4725 
Q 1550 3800 1425 3475 
L 1725 3300 
L 1525 3150 
L 1525 650 
z
M 2875 3225 
L 2875 2475 
L 4800 2475 
L 4800 3225 
L 2875 3225 
z
M 2875 2325 
L 2875 1575 
L 4800 1575 
L 4800 2325 
L 2875 2325 
z
M 2875 1425 
L 2875 675 
L 4800 675 
L 4800 1425 
L 2875 1425 
z
M 2875 525 
L 2875 -225 
L 4800 -225 
L 4800 525 
L 2875 525 
z
M 3550 4250 
Q 3575 4825 3550 5225 
L 4125 4950 
L 3925 4800 
L 3900 4250 
L 5025 4250 
L 5350 4575 
L 5825 4100 
L 3900 4100 
L 3875 3375 
L 4750 3375 
L 4975 3625 
L 5350 3300 
L 5125 3150 
L 5125 -225 
L 5350 -225 
L 5675 100 
L 6150 -375 
L 2450 -375 
Q 2125 -375 1850 -450 
L 1625 -225 
L 2550 -225 
L 2550 2550 
Q 2550 2850 2525 3575 
L 2875 3375 
L 3525 3375 
L 3550 4100 
L 2800 4100 
Q 2475 4100 2200 4025 
L 1975 4250 
L 3550 4250 
z
" transform="scale(0.015625)"/>
      </defs>
      <use xlink:href="#SimSun-771f"/>
      <use xlink:href="#SimSun-5b9e" x="100"/>
      <use xlink:href="#SimSun-503c" x="200"/>
     </g>
    </g>
    <g id="line2d_16">
     <path d="M 79.6375 84.35625 
L 99.6375 84.35625 
L 119.6375 84.35625 
" style="fill: none; stroke: #ff7f0e; stroke-width: 1.5; stroke-linecap: square"/>
    </g>
    <g id="text_15">
     <!-- 预测值 -->
     <g transform="translate(135.6375 91.35625) scale(0.2 -0.2)">
      <defs>
       <path id="SimSun-9884" d="M 475 4825 
L 2225 4825 
L 2425 5075 
L 2825 4675 
Q 2600 4625 2387 4412 
Q 2175 4200 1800 3750 
Q 2050 3575 2037 3400 
Q 2025 3225 1937 3150 
Q 1850 3075 1825 3075 
Q 1725 3075 1650 3300 
Q 1525 3600 1050 4100 
L 1100 4150 
Q 1475 3975 1700 3825 
L 2225 4675 
L 1300 4675 
Q 975 4675 700 4600 
L 475 4825 
z
M 725 100 
Q 1175 50 1362 37 
Q 1550 25 1550 275 
L 1550 2875 
L 1125 2875 
Q 800 2875 525 2800 
L 300 3025 
L 2525 3025 
L 2725 3275 
L 3150 2875 
Q 2800 2825 2275 2075 
L 2200 2125 
L 2550 2875 
L 1875 2875 
L 1875 150 
Q 1875 -400 1350 -500 
Q 1325 -175 725 0 
L 725 100 
z
M 3250 775 
Q 3275 1425 3275 2287 
Q 3275 3150 3250 3900 
L 3600 3700 
L 4050 3700 
Q 4175 4400 4200 4675 
L 3650 4675 
Q 3325 4675 3050 4600 
L 2825 4825 
L 5325 4825 
L 5675 5150 
L 6125 4675 
L 4675 4675 
Q 4500 4425 4175 3700 
L 5300 3700 
L 5475 3975 
L 5875 3675 
L 5675 3475 
L 5675 1950 
Q 5675 1525 5700 1075 
L 5350 875 
L 5350 3550 
L 3600 3550 
L 3600 1000 
L 3250 775 
z
M 4850 2875 
L 4625 2675 
Q 4625 1475 4475 937 
Q 4325 400 3900 50 
Q 3475 -300 2425 -625 
L 2400 -550 
Q 3500 -50 3837 400 
Q 4175 850 4237 1587 
Q 4300 2325 4275 3175 
L 4850 2875 
z
M 4650 950 
Q 5725 375 5875 212 
Q 6025 50 6025 -125 
Q 6025 -225 5962 -387 
Q 5900 -550 5850 -550 
Q 5800 -550 5750 -450 
Q 5625 -250 5437 0 
Q 5250 250 4600 875 
L 4650 950 
z
" transform="scale(0.015625)"/>
       <path id="SimSun-6d4b" d="M 1975 1000 
Q 2000 1475 2000 2925 
Q 2000 4375 1975 5000 
L 2350 4775 
L 3575 4775 
L 3775 4975 
L 4100 4650 
L 3900 4500 
L 3900 2350 
Q 3900 1850 3925 1350 
L 3600 1200 
L 3600 4625 
L 2325 4625 
L 2325 1150 
L 1975 1000 
z
M 2775 3975 
L 3300 3700 
L 3125 3525 
Q 3150 1825 2875 937 
Q 2600 50 1375 -600 
L 1325 -500 
Q 2200 100 2475 725 
Q 2750 1350 2775 2187 
Q 2800 3025 2775 3975 
z
M 3100 950 
Q 3825 450 3937 262 
Q 4050 75 4050 -25 
Q 4050 -150 3975 -262 
Q 3900 -375 3850 -375 
Q 3750 -375 3650 -75 
Q 3500 375 3050 875 
L 3100 950 
z
M 4475 825 
Q 4500 1200 4500 1700 
L 4500 3400 
Q 4500 3950 4475 4300 
L 5025 4025 
L 4825 3825 
L 4825 1700 
Q 4825 1325 4850 950 
L 4475 825 
z
M 5375 150 
L 5375 4050 
Q 5375 4750 5350 5125 
L 5875 4875 
L 5700 4700 
L 5700 75 
Q 5700 -200 5600 -350 
Q 5500 -500 5200 -600 
Q 5025 -225 4450 -50 
L 4450 50 
Q 5125 -50 5250 -37 
Q 5375 -25 5375 150 
z
M 1850 3500 
Q 1375 1525 1300 1225 
Q 1200 900 1212 450 
Q 1225 0 1250 -175 
Q 1250 -275 1125 -275 
Q 1025 -275 875 -225 
Q 725 -175 725 0 
Q 725 125 800 375 
Q 875 625 875 775 
Q 875 950 762 1050 
Q 650 1150 275 1250 
L 275 1350 
Q 725 1300 837 1312 
Q 950 1325 1087 1537 
Q 1225 1750 1750 3525 
L 1850 3500 
z
M 375 3775 
Q 1075 3350 1112 3100 
Q 1150 2850 1050 2775 
Q 950 2700 900 2700 
Q 800 2700 725 2975 
Q 600 3350 325 3700 
L 375 3775 
z
M 800 5100 
Q 1475 4725 1550 4512 
Q 1625 4300 1525 4187 
Q 1425 4075 1350 4075 
Q 1275 4075 1200 4300 
Q 1075 4650 750 5025 
L 800 5100 
z
" transform="scale(0.015625)"/>
      </defs>
      <use xlink:href="#SimSun-9884"/>
      <use xlink:href="#SimSun-6d4b" x="100"/>
      <use xlink:href="#SimSun-503c" x="200"/>
     </g>
    </g>
   </g>
  </g>
  <g id="axes_2">
   <g id="patch_8">
    <path d="M 61.6375 426.316875 
L 1032.509189 426.316875 
L 1032.509189 261.859375 
L 61.6375 261.859375 
z
" style="fill: #ffffff"/>
   </g>
   <g id="matplotlib.axis_3">
    <g id="xtick_8">
     <g id="line2d_17">
      <g>
       <use xlink:href="#m059eb5abba" x="105.768031" y="426.316875" style="stroke: #000000; stroke-width: 0.8"/>
      </g>
     </g>
     <g id="text_16">
      <!-- 0 -->
      <g transform="translate(100.768031 447.204375) scale(0.2 -0.2)">
       <use xlink:href="#TimesNewRomanPSMT-30"/>
      </g>
     </g>
    </g>
    <g id="xtick_9">
     <g id="line2d_18">
      <g>
       <use xlink:href="#m059eb5abba" x="259.532949" y="426.316875" style="stroke: #000000; stroke-width: 0.8"/>
      </g>
     </g>
     <g id="text_17">
      <!-- 50 -->
      <g transform="translate(249.532949 447.204375) scale(0.2 -0.2)">
       <use xlink:href="#TimesNewRomanPSMT-35"/>
       <use xlink:href="#TimesNewRomanPSMT-30" x="50"/>
      </g>
     </g>
    </g>
    <g id="xtick_10">
     <g id="line2d_19">
      <g>
       <use xlink:href="#m059eb5abba" x="413.297866" y="426.316875" style="stroke: #000000; stroke-width: 0.8"/>
      </g>
     </g>
     <g id="text_18">
      <!-- 100 -->
      <g transform="translate(398.297866 447.204375) scale(0.2 -0.2)">
       <use xlink:href="#TimesNewRomanPSMT-31"/>
       <use xlink:href="#TimesNewRomanPSMT-30" x="50"/>
       <use xlink:href="#TimesNewRomanPSMT-30" x="100"/>
      </g>
     </g>
    </g>
    <g id="xtick_11">
     <g id="line2d_20">
      <g>
       <use xlink:href="#m059eb5abba" x="567.062784" y="426.316875" style="stroke: #000000; stroke-width: 0.8"/>
      </g>
     </g>
     <g id="text_19">
      <!-- 150 -->
      <g transform="translate(552.062784 447.204375) scale(0.2 -0.2)">
       <use xlink:href="#TimesNewRomanPSMT-31"/>
       <use xlink:href="#TimesNewRomanPSMT-35" x="50"/>
       <use xlink:href="#TimesNewRomanPSMT-30" x="100"/>
      </g>
     </g>
    </g>
    <g id="xtick_12">
     <g id="line2d_21">
      <g>
       <use xlink:href="#m059eb5abba" x="720.827701" y="426.316875" style="stroke: #000000; stroke-width: 0.8"/>
      </g>
     </g>
     <g id="text_20">
      <!-- 200 -->
      <g transform="translate(705.827701 447.204375) scale(0.2 -0.2)">
       <use xlink:href="#TimesNewRomanPSMT-32"/>
       <use xlink:href="#TimesNewRomanPSMT-30" x="50"/>
       <use xlink:href="#TimesNewRomanPSMT-30" x="100"/>
      </g>
     </g>
    </g>
    <g id="xtick_13">
     <g id="line2d_22">
      <g>
       <use xlink:href="#m059eb5abba" x="874.592619" y="426.316875" style="stroke: #000000; stroke-width: 0.8"/>
      </g>
     </g>
     <g id="text_21">
      <!-- 250 -->
      <g transform="translate(859.592619 447.204375) scale(0.2 -0.2)">
       <use xlink:href="#TimesNewRomanPSMT-32"/>
       <use xlink:href="#TimesNewRomanPSMT-35" x="50"/>
       <use xlink:href="#TimesNewRomanPSMT-30" x="100"/>
      </g>
     </g>
    </g>
    <g id="xtick_14">
     <g id="line2d_23">
      <g>
       <use xlink:href="#m059eb5abba" x="1028.357536" y="426.316875" style="stroke: #000000; stroke-width: 0.8"/>
      </g>
     </g>
     <g id="text_22">
      <!-- 300 -->
      <g transform="translate(1013.357536 447.204375) scale(0.2 -0.2)">
       <use xlink:href="#TimesNewRomanPSMT-33"/>
       <use xlink:href="#TimesNewRomanPSMT-30" x="50"/>
       <use xlink:href="#TimesNewRomanPSMT-30" x="100"/>
      </g>
     </g>
    </g>
   </g>
   <g id="matplotlib.axis_4">
    <g id="ytick_5">
     <g id="line2d_24">
      <g>
       <use xlink:href="#m3868f19b3b" x="61.6375" y="423.214634" style="stroke: #000000; stroke-width: 0.8"/>
      </g>
     </g>
     <g id="text_23">
      <!-- 0.0 -->
      <g transform="translate(29.6375 430.158384) scale(0.2 -0.2)">
       <use xlink:href="#TimesNewRomanPSMT-30"/>
       <use xlink:href="#TimesNewRomanPSMT-2e" x="50"/>
       <use xlink:href="#TimesNewRomanPSMT-30" x="75"/>
      </g>
     </g>
    </g>
    <g id="ytick_6">
     <g id="line2d_25">
      <g>
       <use xlink:href="#m3868f19b3b" x="61.6375" y="366.574499" style="stroke: #000000; stroke-width: 0.8"/>
      </g>
     </g>
     <g id="text_24">
      <!-- 0.5 -->
      <g transform="translate(29.6375 373.518249) scale(0.2 -0.2)">
       <use xlink:href="#TimesNewRomanPSMT-30"/>
       <use xlink:href="#TimesNewRomanPSMT-2e" x="50"/>
       <use xlink:href="#TimesNewRomanPSMT-35" x="75"/>
      </g>
     </g>
    </g>
    <g id="ytick_7">
     <g id="line2d_26">
      <g>
       <use xlink:href="#m3868f19b3b" x="61.6375" y="309.934363" style="stroke: #000000; stroke-width: 0.8"/>
      </g>
     </g>
     <g id="text_25">
      <!-- 1.0 -->
      <g transform="translate(29.6375 316.878113) scale(0.2 -0.2)">
       <use xlink:href="#TimesNewRomanPSMT-31"/>
       <use xlink:href="#TimesNewRomanPSMT-2e" x="50"/>
       <use xlink:href="#TimesNewRomanPSMT-30" x="75"/>
      </g>
     </g>
    </g>
    <g id="text_26">
     <!-- CPU使用率 -->
     <g transform="translate(23.059375 389.088125) rotate(-90) scale(0.2 -0.2)">
      <use xlink:href="#SimSun-43"/>
      <use xlink:href="#SimSun-50" x="50"/>
      <use xlink:href="#SimSun-55" x="100"/>
      <use xlink:href="#SimSun-4f7f" x="150"/>
      <use xlink:href="#SimSun-7528" x="250"/>
      <use xlink:href="#SimSun-7387" x="350"/>
     </g>
    </g>
   </g>
   <g id="line2d_27">
    <path d="M 105.768031 304.678164 
L 108.84333 305.765646 
L 111.918628 299.784455 
L 114.993926 300.328196 
L 118.069225 294.347004 
L 121.144523 302.503173 
L 124.219821 294.890745 
L 127.29512 302.503173 
L 130.370418 304.13441 
L 133.445716 299.784455 
L 136.521015 300.328196 
L 139.596313 299.784455 
L 142.671612 291.084531 
L 145.74691 282.928349 
L 148.822208 294.890745 
L 151.897507 296.521982 
L 154.972805 294.890745 
L 158.048103 299.784455 
L 161.123402 297.065723 
L 164.1987 299.784455 
L 167.273998 301.959432 
L 170.349297 301.415691 
L 173.424595 299.2407 
L 176.499893 300.871937 
L 179.575192 299.784455 
L 182.65049 297.609464 
L 185.725788 299.784455 
L 188.801087 292.715768 
L 191.876385 296.521982 
L 194.951683 295.978241 
L 198.026982 295.978241 
L 201.10228 292.715768 
L 204.177579 289.997036 
L 207.252877 280.753371 
L 210.328175 281.840853 
L 213.403474 286.190822 
L 216.478772 281.840853 
L 219.55407 288.365799 
L 222.629369 289.997036 
L 225.704667 285.647067 
L 228.779965 289.453295 
L 231.855264 287.278304 
L 234.930562 286.734563 
L 238.00586 288.90954 
L 241.081159 292.172013 
L 244.156457 288.90954 
L 247.231755 289.453295 
L 250.307054 283.47209 
L 253.382352 289.997036 
L 256.45765 294.890745 
L 259.532949 285.103326 
L 262.608247 285.103326 
L 268.758844 284.015831 
L 271.834142 284.559585 
L 274.909441 287.822058 
L 277.984739 288.365799 
L 281.060037 286.190822 
L 284.135336 286.190822 
L 287.210634 287.822058 
L 290.285932 288.90954 
L 293.361231 289.453295 
L 296.436529 286.190822 
L 299.511827 278.57838 
L 302.587126 281.840853 
L 305.662424 280.209617 
L 308.737722 281.297112 
L 311.813021 283.47209 
L 314.888319 283.47209 
L 317.963617 289.997036 
L 321.038916 286.190822 
L 324.114214 285.103326 
L 327.189513 286.190822 
L 330.264811 288.90954 
L 333.340109 286.190822 
L 336.415408 286.190822 
L 339.490706 294.890745 
L 342.566004 294.347004 
L 345.641303 300.871937 
L 348.716601 300.328196 
L 351.791899 289.997036 
L 354.867198 269.334716 
L 357.942496 304.13441 
L 361.017794 299.2407 
L 364.093093 308.484378 
L 367.168391 305.765646 
L 370.243689 313.378081 
L 373.318988 296.521982 
L 376.394286 324.796737 
L 379.469584 326.427973 
L 382.544883 331.321676 
L 385.620181 335.671644 
L 388.69548 333.49666 
L 391.770778 324.796737 
L 394.846076 340.021606 
L 397.921375 344.915309 
L 400.996673 341.652843 
L 404.071971 347.090293 
L 407.14727 341.109095 
L 410.222568 332.409171 
L 413.297866 354.15898 
L 416.373165 356.877705 
L 419.448463 359.05269 
L 422.523761 357.421453 
L 425.59906 364.49014 
L 428.674358 362.858904 
L 431.749656 369.38385 
L 434.824955 371.015086 
L 437.900253 374.277559 
L 440.975551 375.908796 
L 444.05085 373.733811 
L 447.126148 403.639797 
L 450.201447 378.083773 
L 453.276745 380.802505 
L 456.352043 382.433735 
L 459.427342 385.152467 
L 462.50264 386.239956 
L 465.577938 386.783703 
L 468.653237 389.502429 
L 471.728535 390.589917 
L 474.803833 392.221154 
L 477.879132 394.396131 
L 484.029728 394.396131 
L 487.105027 397.114858 
L 493.255623 399.289836 
L 496.330922 399.833583 
L 499.40622 400.921079 
L 502.481518 400.377324 
L 505.556817 402.008561 
L 508.632115 403.096056 
L 511.707414 403.096056 
L 517.85801 404.183552 
L 520.933309 404.183552 
L 527.083905 406.358529 
L 530.159204 406.358529 
L 536.3098 407.446011 
L 539.385099 406.358529 
L 542.460397 407.446011 
L 545.535695 407.446011 
L 548.610994 408.533507 
L 551.686292 407.989766 
L 554.76159 409.621002 
L 557.836889 408.533507 
L 560.912187 408.533507 
L 563.987485 409.621002 
L 567.062784 409.621002 
L 570.138082 410.164743 
L 573.213381 409.621002 
L 579.363977 409.621002 
L 582.439276 410.164743 
L 585.514574 409.621002 
L 588.589872 410.164743 
L 591.665171 410.164743 
L 594.740469 409.621002 
L 597.815767 411.252239 
L 600.891066 410.164743 
L 603.966364 410.164743 
L 607.041662 409.621002 
L 622.418154 409.621002 
L 625.493452 409.077248 
L 628.568751 407.989766 
L 631.644049 405.271034 
L 637.794646 406.358529 
L 643.945243 404.183552 
L 647.020541 404.183552 
L 650.095839 401.46482 
L 653.171138 402.008561 
L 656.246436 402.008561 
L 659.321734 400.921079 
L 662.397033 398.746095 
L 665.472331 397.658599 
L 668.547629 381.889994 
L 671.622928 391.677406 
L 674.698226 387.327444 
L 677.773524 387.327444 
L 680.848823 383.52123 
L 683.924121 381.346246 
L 686.999419 369.927597 
L 690.074718 378.083773 
L 693.150016 372.102575 
L 696.225315 372.102575 
L 699.300613 366.665124 
L 702.375911 362.315163 
L 705.45121 319.359279 
L 708.526508 350.896507 
L 711.601806 338.934111 
L 714.677105 345.459057 
L 717.752403 339.477858 
L 720.827701 338.934111 
L 723.903 313.378081 
L 726.978298 338.39037 
L 730.053596 334.584149 
L 733.128895 336.215385 
L 736.204193 331.321676 
L 739.279491 328.05921 
L 742.35479 308.484378 
L 745.430088 317.728043 
L 748.505386 317.184302 
L 751.580685 321.534264 
L 754.655983 319.359279 
L 757.731282 319.903027 
L 760.80658 312.290592 
L 763.881878 324.796737 
L 766.957177 324.252989 
L 770.032475 324.252989 
L 773.107773 319.359279 
L 776.183072 316.096813 
L 779.25837 305.221905 
L 782.333668 299.2407 
L 785.408967 301.415691 
L 788.484265 300.328196 
L 791.559563 297.065723 
L 794.634862 301.415691 
L 797.71016 298.696959 
L 800.785458 307.940624 
L 803.860757 307.940624 
L 810.011353 302.503173 
L 813.086652 301.959432 
L 816.16195 288.90954 
L 819.237249 287.822058 
L 822.312547 286.190822 
L 825.387845 288.90954 
L 828.463144 295.434486 
L 831.538442 296.521982 
L 834.61374 293.259509 
L 837.689039 292.172013 
L 840.764337 284.015831 
L 843.839635 287.822058 
L 846.914934 293.259509 
L 849.990232 292.715768 
L 853.06553 293.80325 
L 856.140829 272.597189 
L 859.216127 280.753371 
L 862.291425 294.890745 
L 865.366724 295.978241 
L 868.442022 288.90954 
L 871.51732 293.80325 
L 874.592619 297.609464 
L 877.667917 297.065723 
L 880.743216 295.978241 
L 883.818514 296.521982 
L 886.893812 298.153218 
L 889.969111 367.752613 
L 893.044409 271.509693 
L 896.119707 275.859662 
L 899.195006 286.734563 
L 902.270304 286.190822 
L 905.345602 288.90954 
L 908.420901 295.434486 
L 914.571497 299.784455 
L 917.646796 299.784455 
L 920.722094 303.590669 
L 923.797392 303.590669 
L 926.872691 297.065723 
L 929.947989 295.434486 
L 933.023287 298.153218 
L 936.098586 303.046928 
L 939.173884 309.028119 
L 942.249183 306.309401 
L 945.324481 306.853142 
L 948.399779 305.221905 
L 951.475078 308.484378 
L 954.550376 307.940624 
L 957.625674 306.853142 
L 960.700973 310.115608 
L 963.776271 295.978241 
L 966.851569 289.997036 
L 969.926868 301.415691 
L 973.002166 303.046928 
L 976.077464 303.046928 
L 979.152763 305.765646 
L 982.228061 301.415691 
L 985.303359 307.396883 
L 988.378658 304.678164 
L 988.378658 304.678164 
" clip-path="url(#pf2cd2a18e2)" style="fill: none; stroke: #1f77b4; stroke-width: 1.5; stroke-linecap: square"/>
   </g>
   <g id="line2d_28">
    <path d="M 548.610994 414.53748 
L 551.686292 414.032671 
L 554.76159 411.729175 
L 557.836889 408.890973 
L 560.912187 411.719777 
L 563.987485 412.919518 
L 567.062784 412.737483 
L 570.138082 413.705468 
L 573.213381 414.493605 
L 576.288679 413.371593 
L 579.363977 414.335513 
L 582.439276 415.683461 
L 585.514574 416.284743 
L 588.589872 418.841534 
L 591.665171 417.682102 
L 594.740469 414.494415 
L 597.815767 413.393483 
L 600.891066 414.709481 
L 603.966364 415.454838 
L 607.041662 413.643565 
L 610.116961 413.418236 
L 613.192259 415.68365 
L 616.267557 413.337766 
L 619.342856 413.86306 
L 622.418154 412.43479 
L 625.493452 410.568515 
L 628.568751 407.941151 
L 631.644049 404.158313 
L 634.719348 405.182717 
L 637.794646 407.518663 
L 640.869944 409.664269 
L 647.020541 401.70287 
L 650.095839 396.00207 
L 653.171138 393.551432 
L 656.246436 391.631762 
L 659.321734 392.111015 
L 662.397033 385.108754 
L 665.472331 381.228605 
L 668.547629 369.457919 
L 671.622928 374.521267 
L 674.698226 375.613374 
L 677.773524 370.304908 
L 680.848823 368.437343 
L 683.924121 370.780642 
L 686.999419 364.32454 
L 690.074718 359.512591 
L 693.150016 344.640798 
L 696.225315 347.786427 
L 699.300613 345.457652 
L 702.375911 344.528559 
L 705.45121 308.238051 
L 708.526508 328.13594 
L 711.601806 329.414288 
L 714.677105 331.031197 
L 720.827701 321.645503 
L 723.903 320.321572 
L 726.978298 317.056 
L 730.053596 318.355772 
L 733.128895 318.707756 
L 736.204193 316.063917 
L 739.279491 308.21639 
L 742.35479 293.444379 
L 745.430088 306.588948 
L 748.505386 304.000004 
L 751.580685 307.471358 
L 754.655983 305.599438 
L 757.731282 309.422924 
L 763.881878 310.161738 
L 766.957177 309.232773 
L 770.032475 313.1676 
L 773.107773 310.191447 
L 776.183072 309.669765 
L 779.25837 297.458786 
L 782.333668 297.713877 
L 785.408967 295.653009 
L 788.484265 296.937367 
L 791.559563 295.819285 
L 794.634862 301.371533 
L 797.71016 296.163611 
L 800.785458 299.052467 
L 803.860757 298.42673 
L 806.936055 302.965039 
L 810.011353 305.508799 
L 813.086652 301.468276 
L 816.16195 286.744313 
L 819.237249 289.528648 
L 822.312547 290.421995 
L 825.387845 292.488427 
L 828.463144 296.358853 
L 831.538442 298.109708 
L 834.61374 296.410519 
L 837.689039 295.638533 
L 840.764337 300.551999 
L 843.839635 295.638978 
L 846.914934 294.414808 
L 849.990232 298.317981 
L 853.06553 290.42583 
L 856.140829 281.959338 
L 859.216127 291.123855 
L 862.291425 292.388038 
L 865.366724 296.814169 
L 868.442022 295.84316 
L 871.51732 297.506387 
L 874.592619 297.397369 
L 877.667917 299.402614 
L 880.743216 297.657511 
L 883.818514 299.711519 
L 886.893812 300.284402 
L 889.969111 341.945577 
L 893.044409 289.464611 
L 896.119707 297.95059 
L 899.195006 299.138326 
L 902.270304 299.903088 
L 905.345602 299.827789 
L 908.420901 300.955932 
L 911.496199 303.742036 
L 914.571497 303.308096 
L 917.646796 306.062506 
L 920.722094 306.467263 
L 923.797392 301.511975 
L 926.872691 289.846601 
L 929.947989 296.237006 
L 933.023287 291.378812 
L 936.098586 298.237443 
L 939.173884 302.599835 
L 942.249183 301.797478 
L 945.324481 301.324012 
L 948.399779 301.651013 
L 951.475078 303.269677 
L 954.550376 305.318068 
L 957.625674 305.425182 
L 960.700973 304.567931 
L 963.776271 292.997962 
L 966.851569 297.196496 
L 969.926868 299.97046 
L 973.002166 300.879972 
L 976.077464 300.350478 
L 979.152763 302.199089 
L 982.228061 302.863448 
L 988.378658 304.628537 
L 988.378658 304.628537 
" clip-path="url(#pf2cd2a18e2)" style="fill: none; stroke: #ff7f0e; stroke-width: 1.5; stroke-linecap: square"/>
   </g>
   <g id="line2d_29">
    <path d="M 548.610994 426.316875 
L 548.610994 261.859375 
" clip-path="url(#pf2cd2a18e2)" style="fill: none; stroke-dasharray: 7.4,3.2; stroke-dashoffset: 0; stroke: #0000ff; stroke-width: 2"/>
   </g>
   <g id="patch_9">
    <path d="M 61.6375 426.316875 
L 61.6375 261.859375 
" style="fill: none; stroke: #000000; stroke-width: 0.8; stroke-linejoin: miter; stroke-linecap: square"/>
   </g>
   <g id="patch_10">
    <path d="M 1032.509189 426.316875 
L 1032.509189 261.859375 
" style="fill: none; stroke: #000000; stroke-width: 0.8; stroke-linejoin: miter; stroke-linecap: square"/>
   </g>
   <g id="patch_11">
    <path d="M 61.6375 426.316875 
L 1032.509189 426.316875 
" style="fill: none; stroke: #000000; stroke-width: 0.8; stroke-linejoin: miter; stroke-linecap: square"/>
   </g>
   <g id="patch_12">
    <path d="M 61.6375 261.859375 
L 1032.509189 261.859375 
" style="fill: none; stroke: #000000; stroke-width: 0.8; stroke-linejoin: miter; stroke-linecap: square"/>
   </g>
   <g id="text_27">
    <!-- 云函数ID: 72 -->
    <g transform="translate(487.073345 255.859375) scale(0.2 -0.2)">
     <defs>
      <path id="SimSun-37" d="M 2825 4200 
Q 2300 3350 1987 2537 
Q 1675 1725 1675 1125 
Q 1675 1025 1700 850 
Q 1700 650 1700 400 
Q 1700 200 1637 125 
Q 1575 50 1425 50 
Q 1300 50 1212 137 
Q 1125 225 1125 450 
Q 1125 925 1337 1625 
Q 1550 2325 2475 4000 
L 1225 4000 
Q 950 4000 787 3825 
Q 625 3650 550 3300 
L 400 3325 
L 575 4375 
L 2825 4375 
L 2825 4200 
z
" transform="scale(0.015625)"/>
     </defs>
     <use xlink:href="#SimSun-4e91"/>
     <use xlink:href="#SimSun-51fd" x="100"/>
     <use xlink:href="#SimSun-6570" x="200"/>
     <use xlink:href="#SimSun-49" x="300"/>
     <use xlink:href="#SimSun-44" x="350"/>
     <use xlink:href="#SimSun-3a" x="400"/>
     <use xlink:href="#SimSun-20" x="450"/>
     <use xlink:href="#SimSun-37" x="500"/>
     <use xlink:href="#SimSun-32" x="550"/>
    </g>
   </g>
  </g>
  <g id="axes_3">
   <g id="patch_13">
    <path d="M 61.6375 659.116875 
L 1032.509189 659.116875 
L 1032.509189 494.659375 
L 61.6375 494.659375 
z
" style="fill: #ffffff"/>
   </g>
   <g id="matplotlib.axis_5">
    <g id="xtick_15">
     <g id="line2d_30">
      <g>
       <use xlink:href="#m059eb5abba" x="105.768031" y="659.116875" style="stroke: #000000; stroke-width: 0.8"/>
      </g>
     </g>
     <g id="text_28">
      <!-- 0 -->
      <g transform="translate(100.768031 680.004375) scale(0.2 -0.2)">
       <use xlink:href="#TimesNewRomanPSMT-30"/>
      </g>
     </g>
    </g>
    <g id="xtick_16">
     <g id="line2d_31">
      <g>
       <use xlink:href="#m059eb5abba" x="259.532949" y="659.116875" style="stroke: #000000; stroke-width: 0.8"/>
      </g>
     </g>
     <g id="text_29">
      <!-- 50 -->
      <g transform="translate(249.532949 680.004375) scale(0.2 -0.2)">
       <use xlink:href="#TimesNewRomanPSMT-35"/>
       <use xlink:href="#TimesNewRomanPSMT-30" x="50"/>
      </g>
     </g>
    </g>
    <g id="xtick_17">
     <g id="line2d_32">
      <g>
       <use xlink:href="#m059eb5abba" x="413.297866" y="659.116875" style="stroke: #000000; stroke-width: 0.8"/>
      </g>
     </g>
     <g id="text_30">
      <!-- 100 -->
      <g transform="translate(398.297866 680.004375) scale(0.2 -0.2)">
       <use xlink:href="#TimesNewRomanPSMT-31"/>
       <use xlink:href="#TimesNewRomanPSMT-30" x="50"/>
       <use xlink:href="#TimesNewRomanPSMT-30" x="100"/>
      </g>
     </g>
    </g>
    <g id="xtick_18">
     <g id="line2d_33">
      <g>
       <use xlink:href="#m059eb5abba" x="567.062784" y="659.116875" style="stroke: #000000; stroke-width: 0.8"/>
      </g>
     </g>
     <g id="text_31">
      <!-- 150 -->
      <g transform="translate(552.062784 680.004375) scale(0.2 -0.2)">
       <use xlink:href="#TimesNewRomanPSMT-31"/>
       <use xlink:href="#TimesNewRomanPSMT-35" x="50"/>
       <use xlink:href="#TimesNewRomanPSMT-30" x="100"/>
      </g>
     </g>
    </g>
    <g id="xtick_19">
     <g id="line2d_34">
      <g>
       <use xlink:href="#m059eb5abba" x="720.827701" y="659.116875" style="stroke: #000000; stroke-width: 0.8"/>
      </g>
     </g>
     <g id="text_32">
      <!-- 200 -->
      <g transform="translate(705.827701 680.004375) scale(0.2 -0.2)">
       <use xlink:href="#TimesNewRomanPSMT-32"/>
       <use xlink:href="#TimesNewRomanPSMT-30" x="50"/>
       <use xlink:href="#TimesNewRomanPSMT-30" x="100"/>
      </g>
     </g>
    </g>
    <g id="xtick_20">
     <g id="line2d_35">
      <g>
       <use xlink:href="#m059eb5abba" x="874.592619" y="659.116875" style="stroke: #000000; stroke-width: 0.8"/>
      </g>
     </g>
     <g id="text_33">
      <!-- 250 -->
      <g transform="translate(859.592619 680.004375) scale(0.2 -0.2)">
       <use xlink:href="#TimesNewRomanPSMT-32"/>
       <use xlink:href="#TimesNewRomanPSMT-35" x="50"/>
       <use xlink:href="#TimesNewRomanPSMT-30" x="100"/>
      </g>
     </g>
    </g>
    <g id="xtick_21">
     <g id="line2d_36">
      <g>
       <use xlink:href="#m059eb5abba" x="1028.357536" y="659.116875" style="stroke: #000000; stroke-width: 0.8"/>
      </g>
     </g>
     <g id="text_34">
      <!-- 300 -->
      <g transform="translate(1013.357536 680.004375) scale(0.2 -0.2)">
       <use xlink:href="#TimesNewRomanPSMT-33"/>
       <use xlink:href="#TimesNewRomanPSMT-30" x="50"/>
       <use xlink:href="#TimesNewRomanPSMT-30" x="100"/>
      </g>
     </g>
    </g>
   </g>
   <g id="matplotlib.axis_6">
    <g id="ytick_8">
     <g id="line2d_37">
      <g>
       <use xlink:href="#m3868f19b3b" x="61.6375" y="616.696359" style="stroke: #000000; stroke-width: 0.8"/>
      </g>
     </g>
     <g id="text_35">
      <!-- 1.0 -->
      <g transform="translate(29.6375 623.640109) scale(0.2 -0.2)">
       <use xlink:href="#TimesNewRomanPSMT-31"/>
       <use xlink:href="#TimesNewRomanPSMT-2e" x="50"/>
       <use xlink:href="#TimesNewRomanPSMT-30" x="75"/>
      </g>
     </g>
    </g>
    <g id="ytick_9">
     <g id="line2d_38">
      <g>
       <use xlink:href="#m3868f19b3b" x="61.6375" y="562.901449" style="stroke: #000000; stroke-width: 0.8"/>
      </g>
     </g>
     <g id="text_36">
      <!-- 2.0 -->
      <g transform="translate(29.6375 569.845199) scale(0.2 -0.2)">
       <use xlink:href="#TimesNewRomanPSMT-32"/>
       <use xlink:href="#TimesNewRomanPSMT-2e" x="50"/>
       <use xlink:href="#TimesNewRomanPSMT-30" x="75"/>
      </g>
     </g>
    </g>
    <g id="ytick_10">
     <g id="line2d_39">
      <g>
       <use xlink:href="#m3868f19b3b" x="61.6375" y="509.106539" style="stroke: #000000; stroke-width: 0.8"/>
      </g>
     </g>
     <g id="text_37">
      <!-- 3.0 -->
      <g transform="translate(29.6375 516.050289) scale(0.2 -0.2)">
       <use xlink:href="#TimesNewRomanPSMT-33"/>
       <use xlink:href="#TimesNewRomanPSMT-2e" x="50"/>
       <use xlink:href="#TimesNewRomanPSMT-30" x="75"/>
      </g>
     </g>
    </g>
    <g id="text_38">
     <!-- CPU使用率 -->
     <g transform="translate(23.059375 621.888125) rotate(-90) scale(0.2 -0.2)">
      <use xlink:href="#SimSun-43"/>
      <use xlink:href="#SimSun-50" x="50"/>
      <use xlink:href="#SimSun-55" x="100"/>
      <use xlink:href="#SimSun-4f7f" x="150"/>
      <use xlink:href="#SimSun-7528" x="250"/>
      <use xlink:href="#SimSun-7387" x="350"/>
     </g>
    </g>
   </g>
   <g id="line2d_40">
    <path d="M 105.768031 526.148773 
L 108.84333 523.824832 
L 111.918628 524.341259 
L 114.993926 527.181627 
L 118.069225 524.857686 
L 121.144523 526.6652 
L 124.219821 523.824832 
L 127.29512 525.374126 
L 130.370418 502.134716 
L 133.445716 519.435157 
L 136.521015 526.92342 
L 139.596313 526.40698 
L 142.671612 527.698067 
L 145.74691 530.280215 
L 148.822208 526.92342 
L 151.897507 531.829509 
L 154.972805 535.702744 
L 158.048103 536.477391 
L 161.123402 535.702744 
L 164.1987 540.092406 
L 167.273998 535.960964 
L 170.349297 542.15814 
L 173.424595 542.15814 
L 176.499893 550.162817 
L 179.575192 549.904597 
L 182.65049 555.068906 
L 185.725788 555.327126 
L 188.801087 557.651067 
L 191.876385 561.524302 
L 198.026982 570.820059 
L 201.10228 565.65575 
L 204.177579 609.035962 
L 207.252877 575.467941 
L 210.328175 577.533668 
L 213.403474 580.890464 
L 216.478772 586.054779 
L 219.55407 588.1205 
L 222.629369 592.768382 
L 225.704667 594.317676 
L 228.779965 596.89983 
L 231.855264 600.514852 
L 234.930562 603.871653 
L 238.00586 606.712021 
L 241.081159 608.261315 
L 244.156457 612.13455 
L 247.231755 614.458491 
L 250.307054 616.265999 
L 253.382352 619.881017 
L 256.45765 622.979605 
L 259.532949 621.688528 
L 265.683546 627.36927 
L 268.758844 628.660347 
L 271.834142 630.726072 
L 274.909441 630.984288 
L 277.984739 630.209641 
L 281.060037 628.660347 
L 284.135336 630.209641 
L 287.210634 632.017149 
L 290.285932 632.275366 
L 293.361231 633.82466 
L 296.436529 634.34109 
L 299.511827 635.632167 
L 302.587126 637.181461 
L 305.662424 637.697891 
L 308.737722 637.439675 
L 311.813021 638.988969 
L 314.888319 641.31291 
L 317.963617 643.895067 
L 321.038916 645.186145 
L 324.114214 645.702575 
L 327.189513 646.993652 
L 333.340109 646.993652 
L 336.415408 647.510082 
L 339.490706 648.284729 
L 345.641303 648.801163 
L 348.716601 648.801163 
L 351.791899 641.054693 
L 354.867198 651.383317 
L 357.942496 650.866887 
L 361.017794 651.383317 
L 364.093093 650.866887 
L 367.168391 651.641534 
L 370.243689 650.866887 
L 373.318988 650.866887 
L 379.469584 651.383317 
L 382.544883 651.125101 
L 385.620181 651.125101 
L 388.69548 648.801163 
L 391.770778 649.57581 
L 394.846076 649.059376 
L 397.921375 649.059376 
L 400.996673 648.542946 
L 407.14727 645.960792 
L 410.222568 645.444358 
L 413.297866 644.411498 
L 416.373165 643.12042 
L 419.448463 642.087557 
L 422.523761 639.763616 
L 425.59906 630.209641 
L 428.674358 633.566443 
L 431.749656 630.984288 
L 434.824955 629.434994 
L 437.900253 626.336406 
L 440.975551 624.528899 
L 444.05085 615.233138 
L 447.126148 616.265999 
L 450.201447 612.650984 
L 453.276745 610.327043 
L 456.352043 605.679161 
L 459.427342 605.162727 
L 462.50264 569.787199 
L 465.577938 593.026595 
L 468.653237 589.669794 
L 471.728535 586.829426 
L 474.803833 582.181544 
L 477.879132 582.439758 
L 480.95443 576.242588 
L 484.029728 575.467941 
L 487.105027 571.078279 
L 490.180325 573.40222 
L 493.255623 565.913964 
L 496.330922 563.331809 
L 499.40622 548.097096 
L 502.481518 550.679244 
L 505.556817 550.421037 
L 508.632115 550.679244 
L 511.707414 547.064229 
L 514.782712 547.322449 
L 517.85801 544.740288 
L 520.933309 551.712111 
L 524.008607 552.228538 
L 527.083905 550.937464 
L 530.159204 550.937464 
L 533.234502 543.449214 
L 536.3098 543.449214 
L 539.385099 541.89992 
L 542.460397 543.190994 
L 545.535695 542.416347 
L 548.610994 534.41167 
L 551.686292 545.256715 
L 554.76159 539.575979 
L 557.836889 547.580656 
L 560.912187 549.38817 
L 563.987485 549.904597 
L 567.062784 542.932774 
L 570.138082 548.097096 
L 573.213381 530.021995 
L 576.288679 534.669877 
L 579.363977 533.637023 
L 582.439276 542.416347 
L 585.514574 544.482068 
L 588.589872 547.838876 
L 591.665171 548.613523 
L 594.740469 544.223861 
L 597.815767 542.674567 
L 600.891066 543.449214 
L 603.966364 547.322449 
L 607.041662 550.679244 
L 610.116961 546.547802 
L 613.192259 540.608846 
L 616.267557 542.416347 
L 619.342856 549.38817 
L 622.418154 548.871743 
L 625.493452 542.416347 
L 628.568751 548.097096 
L 631.644049 551.712111 
L 634.719348 550.937464 
L 637.794646 546.547802 
L 640.869944 546.289582 
L 643.945243 548.613523 
L 647.020541 589.153367 
L 650.095839 525.115906 
L 653.171138 527.181627 
L 656.246436 536.219171 
L 659.321734 537.510258 
L 662.397033 537.510258 
L 665.472331 540.350626 
L 668.547629 544.998508 
L 671.622928 543.449214 
L 674.698226 548.355303 
L 677.773524 544.482068 
L 680.848823 549.904597 
L 683.924121 542.416347 
L 686.999419 541.6417 
L 690.074718 547.838876 
L 693.150016 554.294259 
L 696.225315 553.003185 
L 699.300613 552.228538 
L 702.375911 548.613523 
L 705.45121 552.744965 
L 708.526508 552.744965 
L 711.601806 555.327126 
L 714.677105 552.228538 
L 717.752403 553.777832 
L 720.827701 540.350626 
L 723.903 536.735611 
L 726.978298 549.38817 
L 730.053596 550.421037 
L 733.128895 542.674567 
L 736.204193 542.15814 
L 739.279491 539.575979 
L 742.35479 544.740288 
L 745.430088 548.871743 
L 748.505386 555.327126 
L 751.580685 551.453891 
L 754.655983 549.64639 
L 757.731282 542.674567 
L 760.80658 542.932774 
L 766.957177 551.712111 
L 770.032475 551.453891 
L 773.107773 552.744965 
L 776.183072 549.38817 
L 782.333668 549.38817 
L 785.408967 551.712111 
L 788.484265 551.453891 
L 791.559563 549.12995 
L 794.634862 547.064229 
L 797.71016 547.064229 
L 800.785458 552.744965 
L 803.860757 540.867053 
L 806.936055 542.674567 
L 810.011353 548.355303 
L 813.086652 536.735611 
L 816.16195 543.707421 
L 819.237249 546.547802 
L 822.312547 546.806009 
L 825.387845 534.15345 
L 828.463144 539.575979 
L 831.538442 534.928097 
L 834.61374 534.928097 
L 837.689039 527.181627 
L 840.764337 536.219171 
L 843.839635 534.41167 
L 846.914934 531.571289 
L 849.990232 523.824832 
L 853.06553 526.148773 
L 856.140829 524.599479 
L 859.216127 523.566612 
L 862.291425 526.92342 
L 865.366724 524.083039 
L 868.442022 514.012641 
L 871.51732 521.242671 
L 874.592619 516.078362 
L 877.667917 511.43048 
L 880.743216 513.496201 
L 883.818514 510.914053 
L 886.893812 504.200437 
L 889.969111 514.270848 
L 893.044409 507.557245 
L 896.119707 510.397613 
L 899.195006 510.397613 
L 902.270304 505.491524 
L 905.345602 513.237994 
L 908.420901 516.078362 
L 911.496199 520.984451 
L 914.571497 515.045495 
L 917.646796 506.266171 
L 920.722094 524.599479 
L 923.797392 517.627656 
L 926.872691 522.791965 
L 929.947989 524.341259 
L 933.023287 527.181627 
L 936.098586 522.791965 
L 939.173884 526.148773 
L 942.249183 514.270848 
L 945.324481 520.209804 
L 948.399779 520.468024 
L 951.475078 525.890553 
L 954.550376 520.209804 
L 957.625674 524.857686 
L 960.700973 524.083039 
L 963.776271 521.242671 
L 966.851569 526.92342 
L 969.926868 526.92342 
L 973.002166 525.115906 
L 976.077464 521.242671 
L 979.152763 504.458657 
L 982.228061 518.66051 
L 985.303359 517.885863 
L 988.378658 519.693377 
L 988.378658 519.693377 
" clip-path="url(#pf732c93334)" style="fill: none; stroke: #1f77b4; stroke-width: 1.5; stroke-linecap: square"/>
   </g>
   <g id="line2d_41">
    <path d="M 548.610994 552.698754 
L 551.686292 557.870797 
L 554.76159 557.357448 
L 557.836889 558.48679 
L 560.912187 560.03212 
L 563.987485 563.432305 
L 567.062784 558.47481 
L 570.138082 558.005082 
L 573.213381 549.167837 
L 576.288679 552.666253 
L 579.363977 563.671408 
L 582.439276 562.842438 
L 585.514574 564.142092 
L 588.589872 564.526697 
L 594.740469 570.723629 
L 597.815767 570.308487 
L 600.891066 569.393218 
L 603.966364 570.534174 
L 607.041662 566.665345 
L 610.116961 560.325868 
L 613.192259 561.046236 
L 616.267557 562.038946 
L 619.342856 562.652771 
L 622.418154 564.414574 
L 625.493452 563.374724 
L 628.568751 565.211724 
L 631.644049 566.556833 
L 637.794646 566.859462 
L 643.945243 562.544227 
L 647.020541 595.746588 
L 650.095839 557.247211 
L 653.171138 554.463481 
L 656.246436 559.801117 
L 659.321734 558.274345 
L 662.397033 556.451081 
L 665.472331 555.694993 
L 668.547629 561.465047 
L 671.622928 562.527952 
L 674.698226 563.921086 
L 677.773524 564.472284 
L 680.848823 569.269316 
L 683.924121 553.536965 
L 686.999419 564.756533 
L 690.074718 561.763552 
L 693.150016 566.657887 
L 696.225315 565.161191 
L 699.300613 566.622757 
L 702.375911 564.058911 
L 705.45121 566.085706 
L 708.526508 566.154042 
L 711.601806 567.645761 
L 714.677105 565.494653 
L 717.752403 568.561446 
L 720.827701 561.033167 
L 723.903 562.33899 
L 726.978298 563.076834 
L 730.053596 564.158349 
L 733.128895 562.873348 
L 736.204193 564.203733 
L 739.279491 566.303134 
L 742.35479 567.712936 
L 745.430088 568.115778 
L 748.505386 568.208521 
L 751.580685 570.289043 
L 754.655983 565.812551 
L 757.731282 559.698473 
L 760.80658 563.279961 
L 763.881878 563.930372 
L 766.957177 565.458734 
L 770.032475 572.471324 
L 773.107773 570.271991 
L 776.183072 569.691756 
L 779.25837 568.938175 
L 782.333668 569.695475 
L 785.408967 570.944135 
L 788.484265 570.496473 
L 794.634862 568.828554 
L 797.71016 570.601137 
L 800.785458 570.337729 
L 803.860757 565.194974 
L 806.936055 567.233389 
L 810.011353 565.270466 
L 813.086652 563.059635 
L 816.16195 562.907541 
L 819.237249 564.937902 
L 822.312547 564.782685 
L 825.387845 563.483967 
L 828.463144 559.186252 
L 831.538442 555.475352 
L 834.61374 555.546907 
L 837.689039 554.585402 
L 840.764337 552.850264 
L 843.839635 550.69316 
L 846.914934 550.889342 
L 849.990232 548.941245 
L 853.06553 547.34388 
L 856.140829 547.48168 
L 859.216127 548.476172 
L 862.291425 547.187933 
L 865.366724 538.89805 
L 868.442022 537.460532 
L 871.51732 536.309861 
L 874.592619 539.40473 
L 877.667917 542.126563 
L 880.743216 543.025298 
L 883.818514 542.583491 
L 886.893812 543.710012 
L 893.044409 547.331606 
L 896.119707 549.694383 
L 899.195006 539.288978 
L 902.270304 545.532532 
L 905.345602 540.437789 
L 908.420901 539.566744 
L 911.496199 538.172551 
L 914.571497 539.349284 
L 917.646796 536.710241 
L 920.722094 545.929718 
L 923.797392 544.518724 
L 926.872691 548.209718 
L 929.947989 543.785606 
L 933.023287 547.557121 
L 936.098586 545.173412 
L 939.173884 537.123345 
L 942.249183 526.787236 
L 948.399779 541.898111 
L 951.475078 546.041738 
L 954.550376 545.472238 
L 957.625674 544.572874 
L 960.700973 546.249642 
L 963.776271 547.242519 
L 966.851569 549.779238 
L 969.926868 545.238066 
L 973.002166 544.805955 
L 976.077464 542.224038 
L 979.152763 530.438022 
L 982.228061 533.191419 
L 985.303359 534.103545 
L 988.378658 535.505702 
L 988.378658 535.505702 
" clip-path="url(#pf732c93334)" style="fill: none; stroke: #ff7f0e; stroke-width: 1.5; stroke-linecap: square"/>
   </g>
   <g id="line2d_42">
    <path d="M 548.610994 659.116875 
L 548.610994 494.659375 
" clip-path="url(#pf732c93334)" style="fill: none; stroke-dasharray: 7.4,3.2; stroke-dashoffset: 0; stroke: #0000ff; stroke-width: 2"/>
   </g>
   <g id="patch_14">
    <path d="M 61.6375 659.116875 
L 61.6375 494.659375 
" style="fill: none; stroke: #000000; stroke-width: 0.8; stroke-linejoin: miter; stroke-linecap: square"/>
   </g>
   <g id="patch_15">
    <path d="M 1032.509189 659.116875 
L 1032.509189 494.659375 
" style="fill: none; stroke: #000000; stroke-width: 0.8; stroke-linejoin: miter; stroke-linecap: square"/>
   </g>
   <g id="patch_16">
    <path d="M 61.6375 659.116875 
L 1032.509189 659.116875 
" style="fill: none; stroke: #000000; stroke-width: 0.8; stroke-linejoin: miter; stroke-linecap: square"/>
   </g>
   <g id="patch_17">
    <path d="M 61.6375 494.659375 
L 1032.509189 494.659375 
" style="fill: none; stroke: #000000; stroke-width: 0.8; stroke-linejoin: miter; stroke-linecap: square"/>
   </g>
   <g id="text_39">
    <!-- 云函数ID: 150 -->
    <g transform="translate(482.073345 488.659375) scale(0.2 -0.2)">
     <defs>
      <path id="SimSun-31" d="M 1825 4450 
L 1825 650 
Q 1825 450 1950 350 
Q 2075 250 2300 250 
L 2550 250 
L 2550 100 
L 725 100 
L 725 250 
L 950 250 
Q 1200 250 1312 350 
Q 1425 450 1425 650 
L 1425 3675 
Q 1425 3775 1362 3837 
Q 1300 3900 1175 3900 
L 725 3900 
L 725 4050 
L 950 4050 
Q 1250 4050 1437 4150 
Q 1625 4250 1725 4450 
L 1825 4450 
z
" transform="scale(0.015625)"/>
      <path id="SimSun-35" d="M 1725 2850 
Q 2200 2850 2500 2487 
Q 2800 2125 2800 1525 
Q 2800 850 2487 450 
Q 2175 50 1525 50 
Q 1075 50 725 312 
Q 375 575 375 950 
Q 375 1100 462 1212 
Q 550 1325 700 1325 
Q 850 1325 900 1225 
Q 950 1125 950 1050 
Q 950 900 875 825 
Q 800 725 800 625 
Q 800 425 1037 325 
Q 1275 225 1550 225 
Q 1950 225 2162 550 
Q 2375 875 2375 1475 
Q 2375 1975 2187 2287 
Q 2000 2600 1625 2600 
Q 1350 2600 1150 2500 
Q 950 2400 775 2075 
L 550 2100 
L 675 4375 
L 2725 4375 
L 2650 4000 
L 850 4000 
L 750 2350 
Q 1000 2700 1237 2775 
Q 1475 2850 1725 2850 
z
" transform="scale(0.015625)"/>
      <path id="SimSun-30" d="M 1600 4225 
Q 1250 4225 1012 3687 
Q 775 3150 775 2250 
Q 775 1300 1012 775 
Q 1250 250 1600 250 
Q 1975 250 2187 775 
Q 2400 1300 2400 2250 
Q 2400 3150 2200 3687 
Q 2000 4225 1600 4225 
z
M 1600 50 
Q 1050 50 675 625 
Q 300 1200 300 2250 
Q 300 3225 662 3825 
Q 1025 4425 1600 4425 
Q 2150 4425 2512 3850 
Q 2875 3275 2875 2250 
Q 2875 1225 2512 637 
Q 2150 50 1600 50 
z
" transform="scale(0.015625)"/>
     </defs>
     <use xlink:href="#SimSun-4e91"/>
     <use xlink:href="#SimSun-51fd" x="100"/>
     <use xlink:href="#SimSun-6570" x="200"/>
     <use xlink:href="#SimSun-49" x="300"/>
     <use xlink:href="#SimSun-44" x="350"/>
     <use xlink:href="#SimSun-3a" x="400"/>
     <use xlink:href="#SimSun-20" x="450"/>
     <use xlink:href="#SimSun-31" x="500"/>
     <use xlink:href="#SimSun-35" x="550"/>
     <use xlink:href="#SimSun-30" x="600"/>
    </g>
   </g>
  </g>
 </g>
 <defs>
  <clipPath id="p27e6305037">
   <rect x="61.6375" y="29.059375" width="970.871689" height="164.4575"/>
  </clipPath>
  <clipPath id="pf2cd2a18e2">
   <rect x="61.6375" y="261.859375" width="970.871689" height="164.4575"/>
  </clipPath>
  <clipPath id="pf732c93334">
   <rect x="61.6375" y="494.659375" width="970.871689" height="164.4575"/>
  </clipPath>
 </defs>
</svg>
