<?xml version="1.0" encoding="utf-8" standalone="no"?>
<!DOCTYPE svg PUBLIC "-//W3C//DTD SVG 1.1//EN"
  "http://www.w3.org/Graphics/SVG/1.1/DTD/svg11.dtd">
<svg xmlns:xlink="http://www.w3.org/1999/xlink" width="1051.413125pt" height="691.665625pt" viewBox="0 0 1051.413125 691.665625" xmlns="http://www.w3.org/2000/svg" version="1.1">
 <metadata>
  <rdf:RDF xmlns:dc="http://purl.org/dc/elements/1.1/" xmlns:cc="http://creativecommons.org/ns#" xmlns:rdf="http://www.w3.org/1999/02/22-rdf-syntax-ns#">
   <cc:Work>
    <dc:type rdf:resource="http://purl.org/dc/dcmitype/StillImage"/>
    <dc:date>2024-02-21T13:03:31.269110</dc:date>
    <dc:format>image/svg+xml</dc:format>
    <dc:creator>
     <cc:Agent>
      <dc:title>Matplotlib v3.7.4, https://matplotlib.org/</dc:title>
     </cc:Agent>
    </dc:creator>
   </cc:Work>
  </rdf:RDF>
 </metadata>
 <defs>
  <style type="text/css">*{stroke-linejoin: round; stroke-linecap: butt}</style>
 </defs>
 <g id="figure_1">
  <g id="patch_1">
   <path d="M 0 691.665625 
L 1051.413125 691.665625 
L 1051.413125 0 
L 0 0 
z
" style="fill: #ffffff"/>
  </g>
  <g id="axes_1">
   <g id="patch_2">
    <path d="M 61.403125 193.7 
L 1044.213125 193.7 
L 1044.213125 29.82 
L 61.403125 29.82 
z
" style="fill: #ffffff"/>
   </g>
   <g id="matplotlib.axis_1">
    <g id="xtick_1">
     <g id="line2d_1">
      <defs>
       <path id="mf572dfe4bb" d="M 0 0 
L 0 3.5 
" style="stroke: #000000; stroke-width: 0.8"/>
      </defs>
      <g>
       <use xlink:href="#mf572dfe4bb" x="106.076307" y="193.7" style="stroke: #000000; stroke-width: 0.8"/>
      </g>
     </g>
     <g id="text_1">
      <!-- 0 -->
      <g transform="translate(101.076307 214.5875) scale(0.2 -0.2)">
       <defs>
        <path id="TimesNewRomanPSMT-30" d="M 231 2094 
Q 231 2819 450 3342 
Q 669 3866 1031 4122 
Q 1313 4325 1613 4325 
Q 2100 4325 2488 3828 
Q 2972 3213 2972 2159 
Q 2972 1422 2759 906 
Q 2547 391 2217 158 
Q 1888 -75 1581 -75 
Q 975 -75 572 641 
Q 231 1244 231 2094 
z
M 844 2016 
Q 844 1141 1059 588 
Q 1238 122 1591 122 
Q 1759 122 1940 273 
Q 2122 425 2216 781 
Q 2359 1319 2359 2297 
Q 2359 3022 2209 3506 
Q 2097 3866 1919 4016 
Q 1791 4119 1609 4119 
Q 1397 4119 1231 3928 
Q 1006 3669 925 3112 
Q 844 2556 844 2016 
z
" transform="scale(0.015625)"/>
       </defs>
       <use xlink:href="#TimesNewRomanPSMT-30"/>
      </g>
     </g>
    </g>
    <g id="xtick_2">
     <g id="line2d_2">
      <g>
       <use xlink:href="#mf572dfe4bb" x="256.238263" y="193.7" style="stroke: #000000; stroke-width: 0.8"/>
      </g>
     </g>
     <g id="text_2">
      <!-- 20 -->
      <g transform="translate(246.238263 214.5875) scale(0.2 -0.2)">
       <defs>
        <path id="TimesNewRomanPSMT-32" d="M 2934 816 
L 2638 0 
L 138 0 
L 138 116 
Q 1241 1122 1691 1759 
Q 2141 2397 2141 2925 
Q 2141 3328 1894 3587 
Q 1647 3847 1303 3847 
Q 991 3847 742 3664 
Q 494 3481 375 3128 
L 259 3128 
Q 338 3706 661 4015 
Q 984 4325 1469 4325 
Q 1984 4325 2329 3994 
Q 2675 3663 2675 3213 
Q 2675 2891 2525 2569 
Q 2294 2063 1775 1497 
Q 997 647 803 472 
L 1909 472 
Q 2247 472 2383 497 
Q 2519 522 2628 598 
Q 2738 675 2819 816 
L 2934 816 
z
" transform="scale(0.015625)"/>
       </defs>
       <use xlink:href="#TimesNewRomanPSMT-32"/>
       <use xlink:href="#TimesNewRomanPSMT-30" x="50"/>
      </g>
     </g>
    </g>
    <g id="xtick_3">
     <g id="line2d_3">
      <g>
       <use xlink:href="#mf572dfe4bb" x="406.400218" y="193.7" style="stroke: #000000; stroke-width: 0.8"/>
      </g>
     </g>
     <g id="text_3">
      <!-- 40 -->
      <g transform="translate(396.400218 214.5875) scale(0.2 -0.2)">
       <defs>
        <path id="TimesNewRomanPSMT-34" d="M 2978 1563 
L 2978 1119 
L 2409 1119 
L 2409 0 
L 1894 0 
L 1894 1119 
L 100 1119 
L 100 1519 
L 2066 4325 
L 2409 4325 
L 2409 1563 
L 2978 1563 
z
M 1894 1563 
L 1894 3666 
L 406 1563 
L 1894 1563 
z
" transform="scale(0.015625)"/>
       </defs>
       <use xlink:href="#TimesNewRomanPSMT-34"/>
       <use xlink:href="#TimesNewRomanPSMT-30" x="50"/>
      </g>
     </g>
    </g>
    <g id="xtick_4">
     <g id="line2d_4">
      <g>
       <use xlink:href="#mf572dfe4bb" x="556.562174" y="193.7" style="stroke: #000000; stroke-width: 0.8"/>
      </g>
     </g>
     <g id="text_4">
      <!-- 60 -->
      <g transform="translate(546.562174 214.5875) scale(0.2 -0.2)">
       <defs>
        <path id="TimesNewRomanPSMT-36" d="M 2869 4325 
L 2869 4209 
Q 2456 4169 2195 4045 
Q 1934 3922 1679 3669 
Q 1425 3416 1258 3105 
Q 1091 2794 978 2366 
Q 1428 2675 1881 2675 
Q 2316 2675 2634 2325 
Q 2953 1975 2953 1425 
Q 2953 894 2631 456 
Q 2244 -75 1606 -75 
Q 1172 -75 869 213 
Q 275 772 275 1663 
Q 275 2231 503 2743 
Q 731 3256 1154 3653 
Q 1578 4050 1965 4187 
Q 2353 4325 2688 4325 
L 2869 4325 
z
M 925 2138 
Q 869 1716 869 1456 
Q 869 1156 980 804 
Q 1091 453 1309 247 
Q 1469 100 1697 100 
Q 1969 100 2183 356 
Q 2397 613 2397 1088 
Q 2397 1622 2184 2012 
Q 1972 2403 1581 2403 
Q 1463 2403 1327 2353 
Q 1191 2303 925 2138 
z
" transform="scale(0.015625)"/>
       </defs>
       <use xlink:href="#TimesNewRomanPSMT-36"/>
       <use xlink:href="#TimesNewRomanPSMT-30" x="50"/>
      </g>
     </g>
    </g>
    <g id="xtick_5">
     <g id="line2d_5">
      <g>
       <use xlink:href="#mf572dfe4bb" x="706.72413" y="193.7" style="stroke: #000000; stroke-width: 0.8"/>
      </g>
     </g>
     <g id="text_5">
      <!-- 80 -->
      <g transform="translate(696.72413 214.5875) scale(0.2 -0.2)">
       <defs>
        <path id="TimesNewRomanPSMT-38" d="M 1228 2134 
Q 725 2547 579 2797 
Q 434 3047 434 3316 
Q 434 3728 753 4026 
Q 1072 4325 1600 4325 
Q 2113 4325 2425 4047 
Q 2738 3769 2738 3413 
Q 2738 3175 2569 2928 
Q 2400 2681 1866 2347 
Q 2416 1922 2594 1678 
Q 2831 1359 2831 1006 
Q 2831 559 2490 242 
Q 2150 -75 1597 -75 
Q 994 -75 656 303 
Q 388 606 388 966 
Q 388 1247 577 1523 
Q 766 1800 1228 2134 
z
M 1719 2469 
Q 2094 2806 2194 3001 
Q 2294 3197 2294 3444 
Q 2294 3772 2109 3958 
Q 1925 4144 1606 4144 
Q 1288 4144 1088 3959 
Q 888 3775 888 3528 
Q 888 3366 970 3203 
Q 1053 3041 1206 2894 
L 1719 2469 
z
M 1375 2016 
Q 1116 1797 991 1539 
Q 866 1281 866 981 
Q 866 578 1086 336 
Q 1306 94 1647 94 
Q 1984 94 2187 284 
Q 2391 475 2391 747 
Q 2391 972 2272 1150 
Q 2050 1481 1375 2016 
z
" transform="scale(0.015625)"/>
       </defs>
       <use xlink:href="#TimesNewRomanPSMT-38"/>
       <use xlink:href="#TimesNewRomanPSMT-30" x="50"/>
      </g>
     </g>
    </g>
    <g id="xtick_6">
     <g id="line2d_6">
      <g>
       <use xlink:href="#mf572dfe4bb" x="856.886085" y="193.7" style="stroke: #000000; stroke-width: 0.8"/>
      </g>
     </g>
     <g id="text_6">
      <!-- 100 -->
      <g transform="translate(841.886085 214.5875) scale(0.2 -0.2)">
       <defs>
        <path id="TimesNewRomanPSMT-31" d="M 750 3822 
L 1781 4325 
L 1884 4325 
L 1884 747 
Q 1884 391 1914 303 
Q 1944 216 2037 169 
Q 2131 122 2419 116 
L 2419 0 
L 825 0 
L 825 116 
Q 1125 122 1212 167 
Q 1300 213 1334 289 
Q 1369 366 1369 747 
L 1369 3034 
Q 1369 3497 1338 3628 
Q 1316 3728 1258 3775 
Q 1200 3822 1119 3822 
Q 1003 3822 797 3725 
L 750 3822 
z
" transform="scale(0.015625)"/>
       </defs>
       <use xlink:href="#TimesNewRomanPSMT-31"/>
       <use xlink:href="#TimesNewRomanPSMT-30" x="50"/>
       <use xlink:href="#TimesNewRomanPSMT-30" x="100"/>
      </g>
     </g>
    </g>
    <g id="xtick_7">
     <g id="line2d_7">
      <g>
       <use xlink:href="#mf572dfe4bb" x="1007.048041" y="193.7" style="stroke: #000000; stroke-width: 0.8"/>
      </g>
     </g>
     <g id="text_7">
      <!-- 120 -->
      <g transform="translate(992.048041 214.5875) scale(0.2 -0.2)">
       <use xlink:href="#TimesNewRomanPSMT-31"/>
       <use xlink:href="#TimesNewRomanPSMT-32" x="50"/>
       <use xlink:href="#TimesNewRomanPSMT-30" x="100"/>
      </g>
     </g>
    </g>
   </g>
   <g id="matplotlib.axis_2">
    <g id="ytick_1">
     <g id="line2d_8">
      <defs>
       <path id="maa2e2372da" d="M 0 0 
L -3.5 0 
" style="stroke: #000000; stroke-width: 0.8"/>
      </defs>
      <g>
       <use xlink:href="#maa2e2372da" x="61.403125" y="162.310489" style="stroke: #000000; stroke-width: 0.8"/>
      </g>
     </g>
     <g id="text_8">
      <!-- 2.5 -->
      <g transform="translate(29.403125 169.254239) scale(0.2 -0.2)">
       <defs>
        <path id="TimesNewRomanPSMT-2e" d="M 800 606 
Q 947 606 1047 504 
Q 1147 403 1147 259 
Q 1147 116 1045 14 
Q 944 -88 800 -88 
Q 656 -88 554 14 
Q 453 116 453 259 
Q 453 406 554 506 
Q 656 606 800 606 
z
" transform="scale(0.015625)"/>
        <path id="TimesNewRomanPSMT-35" d="M 2778 4238 
L 2534 3706 
L 1259 3706 
L 981 3138 
Q 1809 3016 2294 2522 
Q 2709 2097 2709 1522 
Q 2709 1188 2573 903 
Q 2438 619 2231 419 
Q 2025 219 1772 97 
Q 1413 -75 1034 -75 
Q 653 -75 479 54 
Q 306 184 306 341 
Q 306 428 378 495 
Q 450 563 559 563 
Q 641 563 702 538 
Q 763 513 909 409 
Q 1144 247 1384 247 
Q 1750 247 2026 523 
Q 2303 800 2303 1197 
Q 2303 1581 2056 1914 
Q 1809 2247 1375 2428 
Q 1034 2569 447 2591 
L 1259 4238 
L 2778 4238 
z
" transform="scale(0.015625)"/>
       </defs>
       <use xlink:href="#TimesNewRomanPSMT-32"/>
       <use xlink:href="#TimesNewRomanPSMT-2e" x="50"/>
       <use xlink:href="#TimesNewRomanPSMT-35" x="75"/>
      </g>
     </g>
    </g>
    <g id="ytick_2">
     <g id="line2d_9">
      <g>
       <use xlink:href="#maa2e2372da" x="61.403125" y="119.25216" style="stroke: #000000; stroke-width: 0.8"/>
      </g>
     </g>
     <g id="text_9">
      <!-- 3.0 -->
      <g transform="translate(29.403125 126.19591) scale(0.2 -0.2)">
       <defs>
        <path id="TimesNewRomanPSMT-33" d="M 325 3431 
Q 506 3859 782 4092 
Q 1059 4325 1472 4325 
Q 1981 4325 2253 3994 
Q 2459 3747 2459 3466 
Q 2459 3003 1878 2509 
Q 2269 2356 2469 2072 
Q 2669 1788 2669 1403 
Q 2669 853 2319 450 
Q 1863 -75 997 -75 
Q 569 -75 414 31 
Q 259 138 259 259 
Q 259 350 332 419 
Q 406 488 509 488 
Q 588 488 669 463 
Q 722 447 909 348 
Q 1097 250 1169 231 
Q 1284 197 1416 197 
Q 1734 197 1970 444 
Q 2206 691 2206 1028 
Q 2206 1275 2097 1509 
Q 2016 1684 1919 1775 
Q 1784 1900 1550 2001 
Q 1316 2103 1072 2103 
L 972 2103 
L 972 2197 
Q 1219 2228 1467 2375 
Q 1716 2522 1828 2728 
Q 1941 2934 1941 3181 
Q 1941 3503 1739 3701 
Q 1538 3900 1238 3900 
Q 753 3900 428 3381 
L 325 3431 
z
" transform="scale(0.015625)"/>
       </defs>
       <use xlink:href="#TimesNewRomanPSMT-33"/>
       <use xlink:href="#TimesNewRomanPSMT-2e" x="50"/>
       <use xlink:href="#TimesNewRomanPSMT-30" x="75"/>
      </g>
     </g>
    </g>
    <g id="ytick_3">
     <g id="line2d_10">
      <g>
       <use xlink:href="#maa2e2372da" x="61.403125" y="76.193832" style="stroke: #000000; stroke-width: 0.8"/>
      </g>
     </g>
     <g id="text_10">
      <!-- 3.5 -->
      <g transform="translate(29.403125 83.137582) scale(0.2 -0.2)">
       <use xlink:href="#TimesNewRomanPSMT-33"/>
       <use xlink:href="#TimesNewRomanPSMT-2e" x="50"/>
       <use xlink:href="#TimesNewRomanPSMT-35" x="75"/>
      </g>
     </g>
    </g>
    <g id="ytick_4">
     <g id="line2d_11">
      <g>
       <use xlink:href="#maa2e2372da" x="61.403125" y="33.135504" style="stroke: #000000; stroke-width: 0.8"/>
      </g>
     </g>
     <g id="text_11">
      <!-- 4.0 -->
      <g transform="translate(29.403125 40.079254) scale(0.2 -0.2)">
       <use xlink:href="#TimesNewRomanPSMT-34"/>
       <use xlink:href="#TimesNewRomanPSMT-2e" x="50"/>
       <use xlink:href="#TimesNewRomanPSMT-30" x="75"/>
      </g>
     </g>
    </g>
    <g id="text_12">
     <!-- total_cpu_usage -->
     <g transform="translate(21.0875 176.742812) rotate(-90) scale(0.2 -0.2)">
      <defs>
       <path id="TimesNewRomanPSMT-74" d="M 1031 3803 
L 1031 2863 
L 1700 2863 
L 1700 2644 
L 1031 2644 
L 1031 788 
Q 1031 509 1111 412 
Q 1191 316 1316 316 
Q 1419 316 1516 380 
Q 1613 444 1666 569 
L 1788 569 
Q 1678 263 1478 108 
Q 1278 -47 1066 -47 
Q 922 -47 784 33 
Q 647 113 581 261 
Q 516 409 516 719 
L 516 2644 
L 63 2644 
L 63 2747 
Q 234 2816 414 2980 
Q 594 3144 734 3369 
Q 806 3488 934 3803 
L 1031 3803 
z
" transform="scale(0.015625)"/>
       <path id="TimesNewRomanPSMT-6f" d="M 1600 2947 
Q 2250 2947 2644 2453 
Q 2978 2031 2978 1484 
Q 2978 1100 2793 706 
Q 2609 313 2286 112 
Q 1963 -88 1566 -88 
Q 919 -88 538 428 
Q 216 863 216 1403 
Q 216 1797 411 2186 
Q 606 2575 925 2761 
Q 1244 2947 1600 2947 
z
M 1503 2744 
Q 1338 2744 1170 2645 
Q 1003 2547 900 2300 
Q 797 2053 797 1666 
Q 797 1041 1045 587 
Q 1294 134 1700 134 
Q 2003 134 2200 384 
Q 2397 634 2397 1244 
Q 2397 2006 2069 2444 
Q 1847 2744 1503 2744 
z
" transform="scale(0.015625)"/>
       <path id="TimesNewRomanPSMT-61" d="M 1822 413 
Q 1381 72 1269 19 
Q 1100 -59 909 -59 
Q 613 -59 420 144 
Q 228 347 228 678 
Q 228 888 322 1041 
Q 450 1253 767 1440 
Q 1084 1628 1822 1897 
L 1822 2009 
Q 1822 2438 1686 2597 
Q 1550 2756 1291 2756 
Q 1094 2756 978 2650 
Q 859 2544 859 2406 
L 866 2225 
Q 866 2081 792 2003 
Q 719 1925 600 1925 
Q 484 1925 411 2006 
Q 338 2088 338 2228 
Q 338 2497 613 2722 
Q 888 2947 1384 2947 
Q 1766 2947 2009 2819 
Q 2194 2722 2281 2516 
Q 2338 2381 2338 1966 
L 2338 994 
Q 2338 584 2353 492 
Q 2369 400 2405 369 
Q 2441 338 2488 338 
Q 2538 338 2575 359 
Q 2641 400 2828 588 
L 2828 413 
Q 2478 -56 2159 -56 
Q 2006 -56 1915 50 
Q 1825 156 1822 413 
z
M 1822 616 
L 1822 1706 
Q 1350 1519 1213 1441 
Q 966 1303 859 1153 
Q 753 1003 753 825 
Q 753 600 887 451 
Q 1022 303 1197 303 
Q 1434 303 1822 616 
z
" transform="scale(0.015625)"/>
       <path id="TimesNewRomanPSMT-6c" d="M 1184 4444 
L 1184 647 
Q 1184 378 1223 290 
Q 1263 203 1344 158 
Q 1425 113 1647 113 
L 1647 0 
L 244 0 
L 244 113 
Q 441 113 512 153 
Q 584 194 625 287 
Q 666 381 666 647 
L 666 3247 
Q 666 3731 644 3842 
Q 622 3953 573 3993 
Q 525 4034 450 4034 
Q 369 4034 244 3984 
L 191 4094 
L 1044 4444 
L 1184 4444 
z
" transform="scale(0.015625)"/>
       <path id="TimesNewRomanPSMT-5f" d="M 3256 -1381 
L -53 -1381 
L -53 -1119 
L 3256 -1119 
L 3256 -1381 
z
" transform="scale(0.015625)"/>
       <path id="TimesNewRomanPSMT-63" d="M 2631 1088 
Q 2516 522 2178 217 
Q 1841 -88 1431 -88 
Q 944 -88 581 321 
Q 219 731 219 1428 
Q 219 2103 620 2525 
Q 1022 2947 1584 2947 
Q 2006 2947 2278 2723 
Q 2550 2500 2550 2259 
Q 2550 2141 2473 2067 
Q 2397 1994 2259 1994 
Q 2075 1994 1981 2113 
Q 1928 2178 1911 2362 
Q 1894 2547 1784 2644 
Q 1675 2738 1481 2738 
Q 1169 2738 978 2506 
Q 725 2200 725 1697 
Q 725 1184 976 792 
Q 1228 400 1656 400 
Q 1963 400 2206 609 
Q 2378 753 2541 1131 
L 2631 1088 
z
" transform="scale(0.015625)"/>
       <path id="TimesNewRomanPSMT-70" d="M -6 2578 
L 875 2934 
L 994 2934 
L 994 2266 
Q 1216 2644 1439 2795 
Q 1663 2947 1909 2947 
Q 2341 2947 2628 2609 
Q 2981 2197 2981 1534 
Q 2981 794 2556 309 
Q 2206 -88 1675 -88 
Q 1444 -88 1275 -22 
Q 1150 25 994 166 
L 994 -706 
Q 994 -1000 1030 -1079 
Q 1066 -1159 1155 -1206 
Q 1244 -1253 1478 -1253 
L 1478 -1369 
L -22 -1369 
L -22 -1253 
L 56 -1253 
Q 228 -1256 350 -1188 
Q 409 -1153 442 -1076 
Q 475 -1000 475 -688 
L 475 2019 
Q 475 2297 450 2372 
Q 425 2447 370 2484 
Q 316 2522 222 2522 
Q 147 2522 31 2478 
L -6 2578 
z
M 994 2081 
L 994 1013 
Q 994 666 1022 556 
Q 1066 375 1236 237 
Q 1406 100 1666 100 
Q 1978 100 2172 344 
Q 2425 663 2425 1241 
Q 2425 1897 2138 2250 
Q 1938 2494 1663 2494 
Q 1513 2494 1366 2419 
Q 1253 2363 994 2081 
z
" transform="scale(0.015625)"/>
       <path id="TimesNewRomanPSMT-75" d="M 2709 2863 
L 2709 1128 
Q 2709 631 2732 520 
Q 2756 409 2807 365 
Q 2859 322 2928 322 
Q 3025 322 3147 375 
L 3191 266 
L 2334 -88 
L 2194 -88 
L 2194 519 
Q 1825 119 1631 15 
Q 1438 -88 1222 -88 
Q 981 -88 804 51 
Q 628 191 559 409 
Q 491 628 491 1028 
L 491 2306 
Q 491 2509 447 2587 
Q 403 2666 317 2708 
Q 231 2750 6 2747 
L 6 2863 
L 1009 2863 
L 1009 947 
Q 1009 547 1148 422 
Q 1288 297 1484 297 
Q 1619 297 1789 381 
Q 1959 466 2194 703 
L 2194 2325 
Q 2194 2569 2105 2655 
Q 2016 2741 1734 2747 
L 1734 2863 
L 2709 2863 
z
" transform="scale(0.015625)"/>
       <path id="TimesNewRomanPSMT-73" d="M 2050 2947 
L 2050 1972 
L 1947 1972 
Q 1828 2431 1642 2597 
Q 1456 2763 1169 2763 
Q 950 2763 815 2647 
Q 681 2531 681 2391 
Q 681 2216 781 2091 
Q 878 1963 1175 1819 
L 1631 1597 
Q 2266 1288 2266 781 
Q 2266 391 1970 151 
Q 1675 -88 1309 -88 
Q 1047 -88 709 6 
Q 606 38 541 38 
Q 469 38 428 -44 
L 325 -44 
L 325 978 
L 428 978 
Q 516 541 762 319 
Q 1009 97 1316 97 
Q 1531 97 1667 223 
Q 1803 350 1803 528 
Q 1803 744 1651 891 
Q 1500 1038 1047 1263 
Q 594 1488 453 1669 
Q 313 1847 313 2119 
Q 313 2472 555 2709 
Q 797 2947 1181 2947 
Q 1350 2947 1591 2875 
Q 1750 2828 1803 2828 
Q 1853 2828 1881 2850 
Q 1909 2872 1947 2947 
L 2050 2947 
z
" transform="scale(0.015625)"/>
       <path id="TimesNewRomanPSMT-67" d="M 966 1044 
Q 703 1172 562 1401 
Q 422 1631 422 1909 
Q 422 2334 742 2640 
Q 1063 2947 1563 2947 
Q 1972 2947 2272 2747 
L 2878 2747 
Q 3013 2747 3034 2739 
Q 3056 2731 3066 2713 
Q 3084 2684 3084 2613 
Q 3084 2531 3069 2500 
Q 3059 2484 3036 2475 
Q 3013 2466 2878 2466 
L 2506 2466 
Q 2681 2241 2681 1891 
Q 2681 1491 2375 1206 
Q 2069 922 1553 922 
Q 1341 922 1119 984 
Q 981 866 932 777 
Q 884 688 884 625 
Q 884 572 936 522 
Q 988 472 1138 450 
Q 1225 438 1575 428 
Q 2219 413 2409 384 
Q 2700 344 2873 169 
Q 3047 -6 3047 -263 
Q 3047 -616 2716 -925 
Q 2228 -1381 1444 -1381 
Q 841 -1381 425 -1109 
Q 191 -953 191 -784 
Q 191 -709 225 -634 
Q 278 -519 444 -313 
Q 466 -284 763 25 
Q 600 122 533 198 
Q 466 275 466 372 
Q 466 481 555 628 
Q 644 775 966 1044 
z
M 1509 2797 
Q 1278 2797 1122 2612 
Q 966 2428 966 2047 
Q 966 1553 1178 1281 
Q 1341 1075 1591 1075 
Q 1828 1075 1981 1253 
Q 2134 1431 2134 1813 
Q 2134 2309 1919 2591 
Q 1759 2797 1509 2797 
z
M 934 0 
Q 788 -159 713 -296 
Q 638 -434 638 -550 
Q 638 -700 819 -813 
Q 1131 -1006 1722 -1006 
Q 2284 -1006 2551 -807 
Q 2819 -609 2819 -384 
Q 2819 -222 2659 -153 
Q 2497 -84 2016 -72 
Q 1313 -53 934 0 
z
" transform="scale(0.015625)"/>
       <path id="TimesNewRomanPSMT-65" d="M 681 1784 
Q 678 1147 991 784 
Q 1303 422 1725 422 
Q 2006 422 2214 576 
Q 2422 731 2563 1106 
L 2659 1044 
Q 2594 616 2278 264 
Q 1963 -88 1488 -88 
Q 972 -88 605 314 
Q 238 716 238 1394 
Q 238 2128 614 2539 
Q 991 2950 1559 2950 
Q 2041 2950 2350 2633 
Q 2659 2316 2659 1784 
L 681 1784 
z
M 681 1966 
L 2006 1966 
Q 1991 2241 1941 2353 
Q 1863 2528 1708 2628 
Q 1553 2728 1384 2728 
Q 1125 2728 920 2526 
Q 716 2325 681 1966 
z
" transform="scale(0.015625)"/>
      </defs>
      <use xlink:href="#TimesNewRomanPSMT-74"/>
      <use xlink:href="#TimesNewRomanPSMT-6f" x="27.783203"/>
      <use xlink:href="#TimesNewRomanPSMT-74" x="77.783203"/>
      <use xlink:href="#TimesNewRomanPSMT-61" x="105.566406"/>
      <use xlink:href="#TimesNewRomanPSMT-6c" x="149.951172"/>
      <use xlink:href="#TimesNewRomanPSMT-5f" x="177.734375"/>
      <use xlink:href="#TimesNewRomanPSMT-63" x="227.734375"/>
      <use xlink:href="#TimesNewRomanPSMT-70" x="272.119141"/>
      <use xlink:href="#TimesNewRomanPSMT-75" x="322.119141"/>
      <use xlink:href="#TimesNewRomanPSMT-5f" x="372.119141"/>
      <use xlink:href="#TimesNewRomanPSMT-75" x="422.119141"/>
      <use xlink:href="#TimesNewRomanPSMT-73" x="472.119141"/>
      <use xlink:href="#TimesNewRomanPSMT-61" x="511.035156"/>
      <use xlink:href="#TimesNewRomanPSMT-67" x="555.419922"/>
      <use xlink:href="#TimesNewRomanPSMT-65" x="605.419922"/>
     </g>
    </g>
   </g>
   <g id="line2d_12">
    <path d="M 106.076307 128.552763 
L 113.584405 106.851357 
L 121.092502 67.582175 
L 128.6006 130.619557 
L 136.108698 42.780568 
L 143.616796 125.624803 
L 151.124894 53.286798 
L 158.632991 49.669894 
L 166.141089 141.986953 
L 173.649187 147.153947 
L 181.157285 125.452562 
L 188.665382 123.730231 
L 196.17348 186.250909 
L 203.681578 125.624803 
L 211.189676 118.046533 
L 218.697774 128.466652 
L 226.205871 147.412299 
L 233.713969 124.677507 
L 241.222067 130.361205 
L 248.730165 145.087153 
L 256.238263 71.715762 
L 263.74636 116.15196 
L 271.254458 140.953566 
L 278.762556 125.452562 
L 286.270654 119.25216 
L 293.778751 119.25216 
L 301.286849 126.485949 
L 308.794947 99.617549 
L 316.303045 140.953566 
L 323.811143 112.018352 
L 331.31924 124.419155 
L 338.827338 129.586149 
L 346.335436 138.886752 
L 353.843534 126.57208 
L 361.351631 152.148721 
L 368.859729 142.675898 
L 376.367827 150.254148 
L 383.875925 132.255778 
L 391.384023 157.832419 
L 398.89212 153.095997 
L 406.400218 128.466652 
L 413.908316 171.094388 
L 421.416414 131.308481 
L 428.924512 143.623174 
L 436.432609 147.412299 
L 443.940707 145.517747 
L 451.448805 137.939476 
L 458.956903 37.269091 
L 466.465 103.320563 
L 473.973098 84.288786 
L 481.481196 91.005891 
L 488.989294 49.583784 
L 496.497392 120.113326 
L 504.005489 106.679116 
L 511.513587 82.049751 
L 519.021685 117.185367 
L 526.529783 129.586149 
L 534.037881 85.149952 
L 541.545978 120.285568 
L 549.054076 130.619557 
L 556.562174 120.285568 
L 564.070272 99.617549 
L 571.578369 128.552763 
L 579.086467 90.316967 
L 586.594565 125.452562 
L 594.102663 134.753164 
L 601.610761 85.149952 
L 609.118858 118.218753 
L 616.626956 113.051759 
L 624.135054 123.385768 
L 631.643152 105.817971 
L 639.15125 113.051759 
L 646.659347 98.584162 
L 654.167445 122.352361 
L 661.675543 127.519356 
L 669.183641 112.018352 
L 676.691738 91.350353 
L 684.199836 119.25216 
L 691.707934 95.483961 
L 699.216032 146.465023 
L 706.72413 157.832419 
L 714.232227 112.362835 
L 721.740325 161.621565 
L 729.248423 92.469871 
L 736.756521 151.201445 
L 744.264619 130.361205 
L 751.772716 148.359596 
L 759.280814 167.305263 
L 766.788912 111.415538 
L 774.29701 131.308481 
L 781.805107 133.203054 
L 789.313205 138.886752 
L 796.821303 136.044903 
L 804.329401 127.519356 
L 811.837499 129.413929 
L 819.345596 91.005891 
L 826.853694 94.364444 
L 834.361792 43.986196 
L 841.86989 64.137491 
L 849.377987 92.125409 
L 856.886085 93.244926 
L 864.394183 83.169289 
L 871.902281 97.722996 
L 879.410379 73.093631 
L 886.918476 96.603479 
L 894.426574 81.016364 
L 901.934672 100.650956 
L 909.44277 128.552763 
L 916.950868 98.584162 
L 924.458965 116.15196 
L 931.967063 106.851357 
L 939.475161 69.648948 
L 946.983259 134.753164 
L 954.491356 79.982957 
L 961.999454 102.717749 
L 969.507552 81.016364 
L 977.01565 59.314959 
L 984.523748 62.41516 
L 992.031845 96.517348 
L 999.539943 87.216766 
" clip-path="url(#p1459976ade)" style="fill: none; stroke: #1f77b4; stroke-width: 1.5; stroke-linecap: square"/>
   </g>
   <g id="line2d_13">
    <path d="M 826.853694 128.254785 
L 834.361792 128.181178 
L 841.86989 129.09932 
L 849.377987 126.282663 
L 856.886085 126.873754 
L 864.394183 126.667368 
L 871.902281 126.6632 
L 879.410379 128.429901 
L 886.918476 127.11876 
L 894.426574 126.068701 
L 901.934672 125.728838 
L 909.44277 126.040224 
L 916.950868 125.686111 
L 924.458965 125.040427 
L 931.967063 124.994744 
L 939.475161 125.216179 
L 946.983259 125.198235 
L 954.491356 125.925985 
L 961.999454 125.196243 
L 969.507552 125.463649 
L 977.01565 126.493114 
L 984.523748 126.223675 
L 992.031845 125.095042 
L 999.539943 124.374765 
" clip-path="url(#p1459976ade)" style="fill: none; stroke: #ff7f0e; stroke-width: 1.5; stroke-linecap: square"/>
   </g>
   <g id="line2d_14">
    <path d="M 826.853694 193.7 
L 826.853694 29.82 
" clip-path="url(#p1459976ade)" style="fill: none; stroke-dasharray: 7.4,3.2; stroke-dashoffset: 0; stroke: #0000ff; stroke-width: 2"/>
   </g>
   <g id="patch_3">
    <path d="M 61.403125 193.7 
L 61.403125 29.82 
" style="fill: none; stroke: #000000; stroke-width: 0.8; stroke-linejoin: miter; stroke-linecap: square"/>
   </g>
   <g id="patch_4">
    <path d="M 1044.213125 193.7 
L 1044.213125 29.82 
" style="fill: none; stroke: #000000; stroke-width: 0.8; stroke-linejoin: miter; stroke-linecap: square"/>
   </g>
   <g id="patch_5">
    <path d="M 61.403125 193.7 
L 1044.213125 193.7 
" style="fill: none; stroke: #000000; stroke-width: 0.8; stroke-linejoin: miter; stroke-linecap: square"/>
   </g>
   <g id="patch_6">
    <path d="M 61.403125 29.82 
L 1044.213125 29.82 
" style="fill: none; stroke: #000000; stroke-width: 0.8; stroke-linejoin: miter; stroke-linecap: square"/>
   </g>
   <g id="text_13">
    <!-- API_ID: 65 -->
    <g transform="translate(496.4775 23.82) scale(0.24 -0.24)">
     <defs>
      <path id="TimesNewRomanPSMT-41" d="M 2928 1419 
L 1288 1419 
L 1000 750 
Q 894 503 894 381 
Q 894 284 986 211 
Q 1078 138 1384 116 
L 1384 0 
L 50 0 
L 50 116 
Q 316 163 394 238 
Q 553 388 747 847 
L 2238 4334 
L 2347 4334 
L 3822 809 
Q 4000 384 4145 257 
Q 4291 131 4550 116 
L 4550 0 
L 2878 0 
L 2878 116 
Q 3131 128 3220 200 
Q 3309 272 3309 375 
Q 3309 513 3184 809 
L 2928 1419 
z
M 2841 1650 
L 2122 3363 
L 1384 1650 
L 2841 1650 
z
" transform="scale(0.015625)"/>
      <path id="TimesNewRomanPSMT-50" d="M 1313 1984 
L 1313 750 
Q 1313 350 1400 253 
Q 1519 116 1759 116 
L 1922 116 
L 1922 0 
L 106 0 
L 106 116 
L 266 116 
Q 534 116 650 291 
Q 713 388 713 750 
L 713 3488 
Q 713 3888 628 3984 
Q 506 4122 266 4122 
L 106 4122 
L 106 4238 
L 1659 4238 
Q 2228 4238 2556 4120 
Q 2884 4003 3109 3725 
Q 3334 3447 3334 3066 
Q 3334 2547 2992 2222 
Q 2650 1897 2025 1897 
Q 1872 1897 1694 1919 
Q 1516 1941 1313 1984 
z
M 1313 2163 
Q 1478 2131 1606 2115 
Q 1734 2100 1825 2100 
Q 2150 2100 2386 2351 
Q 2622 2603 2622 3003 
Q 2622 3278 2509 3514 
Q 2397 3750 2190 3867 
Q 1984 3984 1722 3984 
Q 1563 3984 1313 3925 
L 1313 2163 
z
" transform="scale(0.015625)"/>
      <path id="TimesNewRomanPSMT-49" d="M 1975 116 
L 1975 0 
L 159 0 
L 159 116 
L 309 116 
Q 572 116 691 269 
Q 766 369 766 750 
L 766 3488 
Q 766 3809 725 3913 
Q 694 3991 597 4047 
Q 459 4122 309 4122 
L 159 4122 
L 159 4238 
L 1975 4238 
L 1975 4122 
L 1822 4122 
Q 1563 4122 1444 3969 
Q 1366 3869 1366 3488 
L 1366 750 
Q 1366 428 1406 325 
Q 1438 247 1538 191 
Q 1672 116 1822 116 
L 1975 116 
z
" transform="scale(0.015625)"/>
      <path id="TimesNewRomanPSMT-44" d="M 109 0 
L 109 116 
L 269 116 
Q 538 116 650 288 
Q 719 391 719 750 
L 719 3488 
Q 719 3884 631 3984 
Q 509 4122 269 4122 
L 109 4122 
L 109 4238 
L 1834 4238 
Q 2784 4238 3279 4022 
Q 3775 3806 4076 3303 
Q 4378 2800 4378 2141 
Q 4378 1256 3841 663 
Q 3238 0 2003 0 
L 109 0 
z
M 1319 306 
Q 1716 219 1984 219 
Q 2709 219 3187 728 
Q 3666 1238 3666 2109 
Q 3666 2988 3187 3494 
Q 2709 4000 1959 4000 
Q 1678 4000 1319 3909 
L 1319 306 
z
" transform="scale(0.015625)"/>
      <path id="TimesNewRomanPSMT-3a" d="M 903 2950 
Q 1047 2950 1148 2848 
Q 1250 2747 1250 2603 
Q 1250 2459 1148 2357 
Q 1047 2256 903 2256 
Q 759 2256 657 2357 
Q 556 2459 556 2603 
Q 556 2747 657 2848 
Q 759 2950 903 2950 
z
M 897 609 
Q 1044 609 1145 506 
Q 1247 403 1247 259 
Q 1247 116 1144 14 
Q 1041 -88 897 -88 
Q 753 -88 651 14 
Q 550 116 550 259 
Q 550 403 651 506 
Q 753 609 897 609 
z
" transform="scale(0.015625)"/>
      <path id="TimesNewRomanPSMT-20" transform="scale(0.015625)"/>
     </defs>
     <use xlink:href="#TimesNewRomanPSMT-41"/>
     <use xlink:href="#TimesNewRomanPSMT-50" x="72.216797"/>
     <use xlink:href="#TimesNewRomanPSMT-49" x="127.832031"/>
     <use xlink:href="#TimesNewRomanPSMT-5f" x="161.132812"/>
     <use xlink:href="#TimesNewRomanPSMT-49" x="211.132812"/>
     <use xlink:href="#TimesNewRomanPSMT-44" x="244.433594"/>
     <use xlink:href="#TimesNewRomanPSMT-3a" x="316.650391"/>
     <use xlink:href="#TimesNewRomanPSMT-20" x="344.433594"/>
     <use xlink:href="#TimesNewRomanPSMT-36" x="369.433594"/>
     <use xlink:href="#TimesNewRomanPSMT-35" x="419.433594"/>
    </g>
   </g>
   <g id="legend_1">
    <g id="patch_7">
     <path d="M 75.403125 102.37625 
L 272.896875 102.37625 
Q 276.896875 102.37625 276.896875 98.37625 
L 276.896875 43.82 
Q 276.896875 39.82 272.896875 39.82 
L 75.403125 39.82 
Q 71.403125 39.82 71.403125 43.82 
L 71.403125 98.37625 
Q 71.403125 102.37625 75.403125 102.37625 
z
" style="fill: #ffffff; opacity: 0.8; stroke: #cccccc; stroke-linejoin: miter"/>
    </g>
    <g id="line2d_15">
     <path d="M 79.403125 54.82 
L 99.403125 54.82 
L 119.403125 54.82 
" style="fill: none; stroke: #1f77b4; stroke-width: 1.5; stroke-linecap: square"/>
    </g>
    <g id="text_14">
     <!-- True Values -->
     <g transform="translate(135.403125 61.82) scale(0.2 -0.2)">
      <defs>
       <path id="TimesNewRomanPSMT-54" d="M 3703 4238 
L 3750 3244 
L 3631 3244 
Q 3597 3506 3538 3619 
Q 3441 3800 3280 3886 
Q 3119 3972 2856 3972 
L 2259 3972 
L 2259 734 
Q 2259 344 2344 247 
Q 2463 116 2709 116 
L 2856 116 
L 2856 0 
L 1059 0 
L 1059 116 
L 1209 116 
Q 1478 116 1591 278 
Q 1659 378 1659 734 
L 1659 3972 
L 1150 3972 
Q 853 3972 728 3928 
Q 566 3869 450 3700 
Q 334 3531 313 3244 
L 194 3244 
L 244 4238 
L 3703 4238 
z
" transform="scale(0.015625)"/>
       <path id="TimesNewRomanPSMT-72" d="M 1038 2947 
L 1038 2303 
Q 1397 2947 1775 2947 
Q 1947 2947 2059 2842 
Q 2172 2738 2172 2600 
Q 2172 2478 2090 2393 
Q 2009 2309 1897 2309 
Q 1788 2309 1652 2417 
Q 1516 2525 1450 2525 
Q 1394 2525 1328 2463 
Q 1188 2334 1038 2041 
L 1038 669 
Q 1038 431 1097 309 
Q 1138 225 1241 169 
Q 1344 113 1538 113 
L 1538 0 
L 72 0 
L 72 113 
Q 291 113 397 181 
Q 475 231 506 341 
Q 522 394 522 644 
L 522 1753 
Q 522 2253 501 2348 
Q 481 2444 426 2487 
Q 372 2531 291 2531 
Q 194 2531 72 2484 
L 41 2597 
L 906 2947 
L 1038 2947 
z
" transform="scale(0.015625)"/>
       <path id="TimesNewRomanPSMT-56" d="M 4544 4238 
L 4544 4122 
Q 4319 4081 4203 3978 
Q 4038 3825 3909 3509 
L 2431 -97 
L 2316 -97 
L 728 3556 
Q 606 3838 556 3900 
Q 478 3997 364 4051 
Q 250 4106 56 4122 
L 56 4238 
L 1788 4238 
L 1788 4122 
Q 1494 4094 1406 4022 
Q 1319 3950 1319 3838 
Q 1319 3681 1463 3350 
L 2541 866 
L 3541 3319 
Q 3688 3681 3688 3822 
Q 3688 3913 3597 3995 
Q 3506 4078 3291 4113 
Q 3275 4116 3238 4122 
L 3238 4238 
L 4544 4238 
z
" transform="scale(0.015625)"/>
      </defs>
      <use xlink:href="#TimesNewRomanPSMT-54"/>
      <use xlink:href="#TimesNewRomanPSMT-72" x="57.583984"/>
      <use xlink:href="#TimesNewRomanPSMT-75" x="90.884766"/>
      <use xlink:href="#TimesNewRomanPSMT-65" x="140.884766"/>
      <use xlink:href="#TimesNewRomanPSMT-20" x="185.269531"/>
      <use xlink:href="#TimesNewRomanPSMT-56" x="208.519531"/>
      <use xlink:href="#TimesNewRomanPSMT-61" x="269.611328"/>
      <use xlink:href="#TimesNewRomanPSMT-6c" x="313.996094"/>
      <use xlink:href="#TimesNewRomanPSMT-75" x="341.779297"/>
      <use xlink:href="#TimesNewRomanPSMT-65" x="391.779297"/>
      <use xlink:href="#TimesNewRomanPSMT-73" x="436.164062"/>
     </g>
    </g>
    <g id="line2d_16">
     <path d="M 79.403125 83.098125 
L 99.403125 83.098125 
L 119.403125 83.098125 
" style="fill: none; stroke: #ff7f0e; stroke-width: 1.5; stroke-linecap: square"/>
    </g>
    <g id="text_15">
     <!-- Predicted Values -->
     <g transform="translate(135.403125 90.098125) scale(0.2 -0.2)">
      <defs>
       <path id="TimesNewRomanPSMT-64" d="M 2222 322 
Q 2013 103 1813 7 
Q 1613 -88 1381 -88 
Q 913 -88 563 304 
Q 213 697 213 1313 
Q 213 1928 600 2439 
Q 988 2950 1597 2950 
Q 1975 2950 2222 2709 
L 2222 3238 
Q 2222 3728 2198 3840 
Q 2175 3953 2125 3993 
Q 2075 4034 2000 4034 
Q 1919 4034 1784 3984 
L 1744 4094 
L 2597 4444 
L 2738 4444 
L 2738 1134 
Q 2738 631 2761 520 
Q 2784 409 2836 365 
Q 2888 322 2956 322 
Q 3041 322 3181 375 
L 3216 266 
L 2366 -88 
L 2222 -88 
L 2222 322 
z
M 2222 541 
L 2222 2016 
Q 2203 2228 2109 2403 
Q 2016 2578 1861 2667 
Q 1706 2756 1559 2756 
Q 1284 2756 1069 2509 
Q 784 2184 784 1559 
Q 784 928 1059 592 
Q 1334 256 1672 256 
Q 1956 256 2222 541 
z
" transform="scale(0.015625)"/>
       <path id="TimesNewRomanPSMT-69" d="M 928 4444 
Q 1059 4444 1151 4351 
Q 1244 4259 1244 4128 
Q 1244 3997 1151 3903 
Q 1059 3809 928 3809 
Q 797 3809 703 3903 
Q 609 3997 609 4128 
Q 609 4259 701 4351 
Q 794 4444 928 4444 
z
M 1188 2947 
L 1188 647 
Q 1188 378 1227 289 
Q 1266 200 1342 156 
Q 1419 113 1622 113 
L 1622 0 
L 231 0 
L 231 113 
Q 441 113 512 153 
Q 584 194 626 287 
Q 669 381 669 647 
L 669 1750 
Q 669 2216 641 2353 
Q 619 2453 572 2492 
Q 525 2531 444 2531 
Q 356 2531 231 2484 
L 188 2597 
L 1050 2947 
L 1188 2947 
z
" transform="scale(0.015625)"/>
      </defs>
      <use xlink:href="#TimesNewRomanPSMT-50"/>
      <use xlink:href="#TimesNewRomanPSMT-72" x="55.615234"/>
      <use xlink:href="#TimesNewRomanPSMT-65" x="88.916016"/>
      <use xlink:href="#TimesNewRomanPSMT-64" x="133.300781"/>
      <use xlink:href="#TimesNewRomanPSMT-69" x="183.300781"/>
      <use xlink:href="#TimesNewRomanPSMT-63" x="211.083984"/>
      <use xlink:href="#TimesNewRomanPSMT-74" x="255.46875"/>
      <use xlink:href="#TimesNewRomanPSMT-65" x="283.251953"/>
      <use xlink:href="#TimesNewRomanPSMT-64" x="327.636719"/>
      <use xlink:href="#TimesNewRomanPSMT-20" x="377.636719"/>
      <use xlink:href="#TimesNewRomanPSMT-56" x="400.886719"/>
      <use xlink:href="#TimesNewRomanPSMT-61" x="461.978516"/>
      <use xlink:href="#TimesNewRomanPSMT-6c" x="506.363281"/>
      <use xlink:href="#TimesNewRomanPSMT-75" x="534.146484"/>
      <use xlink:href="#TimesNewRomanPSMT-65" x="584.146484"/>
      <use xlink:href="#TimesNewRomanPSMT-73" x="628.53125"/>
     </g>
    </g>
   </g>
  </g>
  <g id="axes_2">
   <g id="patch_8">
    <path d="M 61.403125 426.5 
L 1044.213125 426.5 
L 1044.213125 262.62 
L 61.403125 262.62 
z
" style="fill: #ffffff"/>
   </g>
   <g id="matplotlib.axis_3">
    <g id="xtick_8">
     <g id="line2d_17">
      <g>
       <use xlink:href="#mf572dfe4bb" x="106.076307" y="426.5" style="stroke: #000000; stroke-width: 0.8"/>
      </g>
     </g>
     <g id="text_16">
      <!-- 0 -->
      <g transform="translate(101.076307 447.3875) scale(0.2 -0.2)">
       <use xlink:href="#TimesNewRomanPSMT-30"/>
      </g>
     </g>
    </g>
    <g id="xtick_9">
     <g id="line2d_18">
      <g>
       <use xlink:href="#mf572dfe4bb" x="256.238263" y="426.5" style="stroke: #000000; stroke-width: 0.8"/>
      </g>
     </g>
     <g id="text_17">
      <!-- 20 -->
      <g transform="translate(246.238263 447.3875) scale(0.2 -0.2)">
       <use xlink:href="#TimesNewRomanPSMT-32"/>
       <use xlink:href="#TimesNewRomanPSMT-30" x="50"/>
      </g>
     </g>
    </g>
    <g id="xtick_10">
     <g id="line2d_19">
      <g>
       <use xlink:href="#mf572dfe4bb" x="406.400218" y="426.5" style="stroke: #000000; stroke-width: 0.8"/>
      </g>
     </g>
     <g id="text_18">
      <!-- 40 -->
      <g transform="translate(396.400218 447.3875) scale(0.2 -0.2)">
       <use xlink:href="#TimesNewRomanPSMT-34"/>
       <use xlink:href="#TimesNewRomanPSMT-30" x="50"/>
      </g>
     </g>
    </g>
    <g id="xtick_11">
     <g id="line2d_20">
      <g>
       <use xlink:href="#mf572dfe4bb" x="556.562174" y="426.5" style="stroke: #000000; stroke-width: 0.8"/>
      </g>
     </g>
     <g id="text_19">
      <!-- 60 -->
      <g transform="translate(546.562174 447.3875) scale(0.2 -0.2)">
       <use xlink:href="#TimesNewRomanPSMT-36"/>
       <use xlink:href="#TimesNewRomanPSMT-30" x="50"/>
      </g>
     </g>
    </g>
    <g id="xtick_12">
     <g id="line2d_21">
      <g>
       <use xlink:href="#mf572dfe4bb" x="706.72413" y="426.5" style="stroke: #000000; stroke-width: 0.8"/>
      </g>
     </g>
     <g id="text_20">
      <!-- 80 -->
      <g transform="translate(696.72413 447.3875) scale(0.2 -0.2)">
       <use xlink:href="#TimesNewRomanPSMT-38"/>
       <use xlink:href="#TimesNewRomanPSMT-30" x="50"/>
      </g>
     </g>
    </g>
    <g id="xtick_13">
     <g id="line2d_22">
      <g>
       <use xlink:href="#mf572dfe4bb" x="856.886085" y="426.5" style="stroke: #000000; stroke-width: 0.8"/>
      </g>
     </g>
     <g id="text_21">
      <!-- 100 -->
      <g transform="translate(841.886085 447.3875) scale(0.2 -0.2)">
       <use xlink:href="#TimesNewRomanPSMT-31"/>
       <use xlink:href="#TimesNewRomanPSMT-30" x="50"/>
       <use xlink:href="#TimesNewRomanPSMT-30" x="100"/>
      </g>
     </g>
    </g>
    <g id="xtick_14">
     <g id="line2d_23">
      <g>
       <use xlink:href="#mf572dfe4bb" x="1007.048041" y="426.5" style="stroke: #000000; stroke-width: 0.8"/>
      </g>
     </g>
     <g id="text_22">
      <!-- 120 -->
      <g transform="translate(992.048041 447.3875) scale(0.2 -0.2)">
       <use xlink:href="#TimesNewRomanPSMT-31"/>
       <use xlink:href="#TimesNewRomanPSMT-32" x="50"/>
       <use xlink:href="#TimesNewRomanPSMT-30" x="100"/>
      </g>
     </g>
    </g>
   </g>
   <g id="matplotlib.axis_4">
    <g id="ytick_5">
     <g id="line2d_24">
      <g>
       <use xlink:href="#maa2e2372da" x="61.403125" y="392.003617" style="stroke: #000000; stroke-width: 0.8"/>
      </g>
     </g>
     <g id="text_23">
      <!-- 2.5 -->
      <g transform="translate(29.403125 398.947367) scale(0.2 -0.2)">
       <use xlink:href="#TimesNewRomanPSMT-32"/>
       <use xlink:href="#TimesNewRomanPSMT-2e" x="50"/>
       <use xlink:href="#TimesNewRomanPSMT-35" x="75"/>
      </g>
     </g>
    </g>
    <g id="ytick_6">
     <g id="line2d_25">
      <g>
       <use xlink:href="#maa2e2372da" x="61.403125" y="336.578827" style="stroke: #000000; stroke-width: 0.8"/>
      </g>
     </g>
     <g id="text_24">
      <!-- 3.0 -->
      <g transform="translate(29.403125 343.522577) scale(0.2 -0.2)">
       <use xlink:href="#TimesNewRomanPSMT-33"/>
       <use xlink:href="#TimesNewRomanPSMT-2e" x="50"/>
       <use xlink:href="#TimesNewRomanPSMT-30" x="75"/>
      </g>
     </g>
    </g>
    <g id="ytick_7">
     <g id="line2d_26">
      <g>
       <use xlink:href="#maa2e2372da" x="61.403125" y="281.154038" style="stroke: #000000; stroke-width: 0.8"/>
      </g>
     </g>
     <g id="text_25">
      <!-- 3.5 -->
      <g transform="translate(29.403125 288.097788) scale(0.2 -0.2)">
       <use xlink:href="#TimesNewRomanPSMT-33"/>
       <use xlink:href="#TimesNewRomanPSMT-2e" x="50"/>
       <use xlink:href="#TimesNewRomanPSMT-35" x="75"/>
      </g>
     </g>
    </g>
    <g id="text_26">
     <!-- total_cpu_usage -->
     <g transform="translate(21.0875 409.542812) rotate(-90) scale(0.2 -0.2)">
      <use xlink:href="#TimesNewRomanPSMT-74"/>
      <use xlink:href="#TimesNewRomanPSMT-6f" x="27.783203"/>
      <use xlink:href="#TimesNewRomanPSMT-74" x="77.783203"/>
      <use xlink:href="#TimesNewRomanPSMT-61" x="105.566406"/>
      <use xlink:href="#TimesNewRomanPSMT-6c" x="149.951172"/>
      <use xlink:href="#TimesNewRomanPSMT-5f" x="177.734375"/>
      <use xlink:href="#TimesNewRomanPSMT-63" x="227.734375"/>
      <use xlink:href="#TimesNewRomanPSMT-70" x="272.119141"/>
      <use xlink:href="#TimesNewRomanPSMT-75" x="322.119141"/>
      <use xlink:href="#TimesNewRomanPSMT-5f" x="372.119141"/>
      <use xlink:href="#TimesNewRomanPSMT-75" x="422.119141"/>
      <use xlink:href="#TimesNewRomanPSMT-73" x="472.119141"/>
      <use xlink:href="#TimesNewRomanPSMT-61" x="511.035156"/>
      <use xlink:href="#TimesNewRomanPSMT-67" x="555.419922"/>
      <use xlink:href="#TimesNewRomanPSMT-65" x="605.419922"/>
     </g>
    </g>
   </g>
   <g id="line2d_27">
    <path d="M 106.076307 323.276864 
L 113.584405 387.126245 
L 121.092502 288.691792 
L 128.6006 315.295692 
L 136.108698 320.616482 
L 143.616796 392.447009 
L 151.124894 312.63531 
L 158.632991 376.484664 
L 166.141089 333.918445 
L 173.649187 365.843109 
L 181.157285 373.824282 
L 188.665382 325.937273 
L 196.17348 365.843109 
L 203.681578 352.541173 
L 211.189676 355.201555 
L 218.697774 341.899618 
L 226.205871 376.484664 
L 233.713969 341.899618 
L 241.222067 360.522345 
L 248.730165 371.1639 
L 256.238263 365.843109 
L 263.74636 336.578827 
L 271.254458 376.484664 
L 278.762556 347.220382 
L 286.270654 363.182727 
L 293.778751 371.1639 
L 301.286849 376.484664 
L 308.794947 317.9561 
L 316.303045 363.182727 
L 323.811143 360.522345 
L 331.31924 341.899618 
L 338.827338 344.56 
L 346.335436 381.805455 
L 353.843534 331.258037 
L 361.351631 355.201555 
L 368.859729 357.861937 
L 376.367827 333.918445 
L 383.875925 363.182727 
L 391.384023 379.145072 
L 398.89212 333.918445 
L 406.400218 365.843109 
L 413.908316 381.805455 
L 421.416414 360.522345 
L 428.924512 347.220382 
L 436.432609 333.918445 
L 443.940707 376.484664 
L 451.448805 349.880764 
L 458.956903 323.276864 
L 466.465 368.503491 
L 473.973098 379.145072 
L 481.481196 357.861937 
L 488.989294 317.9561 
L 496.497392 371.1639 
L 504.005489 352.541173 
L 511.513587 336.578827 
L 519.021685 347.220382 
L 526.529783 376.484664 
L 534.037881 339.239209 
L 541.545978 357.861937 
L 549.054076 347.220382 
L 556.562174 296.672964 
L 564.070272 270.069091 
L 571.578369 323.276864 
L 579.086467 315.295692 
L 586.594565 341.899618 
L 594.102663 363.182727 
L 601.610761 309.974928 
L 609.118858 328.597655 
L 616.626956 379.145072 
L 624.135054 339.239209 
L 631.643152 363.182727 
L 639.15125 323.276864 
L 646.659347 341.899618 
L 654.167445 371.1639 
L 661.675543 387.126245 
L 669.183641 355.201555 
L 676.691738 339.239209 
L 684.199836 368.503491 
L 691.707934 352.541173 
L 699.216032 363.182727 
L 706.72413 384.465837 
L 714.232227 341.899618 
L 721.740325 379.145072 
L 729.248423 325.937273 
L 736.756521 384.465837 
L 744.264619 352.541173 
L 751.772716 365.843109 
L 759.280814 387.126245 
L 766.788912 347.220382 
L 774.29701 384.465837 
L 781.805107 341.899618 
L 789.313205 352.541173 
L 796.821303 389.786627 
L 804.329401 384.465837 
L 811.837499 347.220382 
L 819.345596 371.1639 
L 826.853694 363.182727 
L 834.361792 355.201555 
L 841.86989 395.107418 
L 849.377987 331.258037 
L 856.886085 379.145072 
L 864.394183 392.447009 
L 871.902281 384.465837 
L 879.410379 371.1639 
L 886.918476 339.239209 
L 894.426574 384.465837 
L 901.934672 349.880764 
L 909.44277 419.050909 
L 916.950868 363.182727 
L 924.458965 387.126245 
L 931.967063 400.428182 
L 939.475161 373.824282 
L 946.983259 387.126245 
L 954.491356 368.503491 
L 961.999454 413.730145 
L 969.507552 381.805455 
L 977.01565 365.843109 
L 984.523748 379.145072 
L 992.031845 397.7678 
L 999.539943 379.145072 
" clip-path="url(#p784a4debeb)" style="fill: none; stroke: #1f77b4; stroke-width: 1.5; stroke-linecap: square"/>
   </g>
   <g id="line2d_28">
    <path d="M 826.853694 375.390546 
L 834.361792 378.645731 
L 841.86989 374.568802 
L 849.377987 375.975676 
L 856.886085 378.059782 
L 864.394183 376.653516 
L 871.902281 379.321404 
L 879.410379 377.030177 
L 886.918476 376.312455 
L 894.426574 375.567089 
L 901.934672 378.958751 
L 909.44277 378.315452 
L 916.950868 376.719905 
L 924.458965 377.196175 
L 931.967063 377.122994 
L 939.475161 377.016936 
L 946.983259 377.903933 
L 954.491356 378.576091 
L 961.999454 379.176866 
L 969.507552 375.974645 
L 977.01565 376.284256 
L 984.523748 377.280746 
L 992.031845 378.557512 
L 999.539943 376.627669 
" clip-path="url(#p784a4debeb)" style="fill: none; stroke: #ff7f0e; stroke-width: 1.5; stroke-linecap: square"/>
   </g>
   <g id="line2d_29">
    <path d="M 826.853694 426.5 
L 826.853694 262.62 
" clip-path="url(#p784a4debeb)" style="fill: none; stroke-dasharray: 7.4,3.2; stroke-dashoffset: 0; stroke: #0000ff; stroke-width: 2"/>
   </g>
   <g id="patch_9">
    <path d="M 61.403125 426.5 
L 61.403125 262.62 
" style="fill: none; stroke: #000000; stroke-width: 0.8; stroke-linejoin: miter; stroke-linecap: square"/>
   </g>
   <g id="patch_10">
    <path d="M 1044.213125 426.5 
L 1044.213125 262.62 
" style="fill: none; stroke: #000000; stroke-width: 0.8; stroke-linejoin: miter; stroke-linecap: square"/>
   </g>
   <g id="patch_11">
    <path d="M 61.403125 426.5 
L 1044.213125 426.5 
" style="fill: none; stroke: #000000; stroke-width: 0.8; stroke-linejoin: miter; stroke-linecap: square"/>
   </g>
   <g id="patch_12">
    <path d="M 61.403125 262.62 
L 1044.213125 262.62 
" style="fill: none; stroke: #000000; stroke-width: 0.8; stroke-linejoin: miter; stroke-linecap: square"/>
   </g>
   <g id="text_27">
    <!-- API_ID: 150 -->
    <g transform="translate(490.4775 256.62) scale(0.24 -0.24)">
     <use xlink:href="#TimesNewRomanPSMT-41"/>
     <use xlink:href="#TimesNewRomanPSMT-50" x="72.216797"/>
     <use xlink:href="#TimesNewRomanPSMT-49" x="127.832031"/>
     <use xlink:href="#TimesNewRomanPSMT-5f" x="161.132812"/>
     <use xlink:href="#TimesNewRomanPSMT-49" x="211.132812"/>
     <use xlink:href="#TimesNewRomanPSMT-44" x="244.433594"/>
     <use xlink:href="#TimesNewRomanPSMT-3a" x="316.650391"/>
     <use xlink:href="#TimesNewRomanPSMT-20" x="344.433594"/>
     <use xlink:href="#TimesNewRomanPSMT-31" x="369.433594"/>
     <use xlink:href="#TimesNewRomanPSMT-35" x="419.433594"/>
     <use xlink:href="#TimesNewRomanPSMT-30" x="469.433594"/>
    </g>
   </g>
  </g>
  <g id="axes_3">
   <g id="patch_13">
    <path d="M 61.403125 659.3 
L 1044.213125 659.3 
L 1044.213125 495.42 
L 61.403125 495.42 
z
" style="fill: #ffffff"/>
   </g>
   <g id="matplotlib.axis_5">
    <g id="xtick_15">
     <g id="line2d_30">
      <g>
       <use xlink:href="#mf572dfe4bb" x="106.076307" y="659.3" style="stroke: #000000; stroke-width: 0.8"/>
      </g>
     </g>
     <g id="text_28">
      <!-- 0 -->
      <g transform="translate(101.076307 680.1875) scale(0.2 -0.2)">
       <use xlink:href="#TimesNewRomanPSMT-30"/>
      </g>
     </g>
    </g>
    <g id="xtick_16">
     <g id="line2d_31">
      <g>
       <use xlink:href="#mf572dfe4bb" x="256.238263" y="659.3" style="stroke: #000000; stroke-width: 0.8"/>
      </g>
     </g>
     <g id="text_29">
      <!-- 20 -->
      <g transform="translate(246.238263 680.1875) scale(0.2 -0.2)">
       <use xlink:href="#TimesNewRomanPSMT-32"/>
       <use xlink:href="#TimesNewRomanPSMT-30" x="50"/>
      </g>
     </g>
    </g>
    <g id="xtick_17">
     <g id="line2d_32">
      <g>
       <use xlink:href="#mf572dfe4bb" x="406.400218" y="659.3" style="stroke: #000000; stroke-width: 0.8"/>
      </g>
     </g>
     <g id="text_30">
      <!-- 40 -->
      <g transform="translate(396.400218 680.1875) scale(0.2 -0.2)">
       <use xlink:href="#TimesNewRomanPSMT-34"/>
       <use xlink:href="#TimesNewRomanPSMT-30" x="50"/>
      </g>
     </g>
    </g>
    <g id="xtick_18">
     <g id="line2d_33">
      <g>
       <use xlink:href="#mf572dfe4bb" x="556.562174" y="659.3" style="stroke: #000000; stroke-width: 0.8"/>
      </g>
     </g>
     <g id="text_31">
      <!-- 60 -->
      <g transform="translate(546.562174 680.1875) scale(0.2 -0.2)">
       <use xlink:href="#TimesNewRomanPSMT-36"/>
       <use xlink:href="#TimesNewRomanPSMT-30" x="50"/>
      </g>
     </g>
    </g>
    <g id="xtick_19">
     <g id="line2d_34">
      <g>
       <use xlink:href="#mf572dfe4bb" x="706.72413" y="659.3" style="stroke: #000000; stroke-width: 0.8"/>
      </g>
     </g>
     <g id="text_32">
      <!-- 80 -->
      <g transform="translate(696.72413 680.1875) scale(0.2 -0.2)">
       <use xlink:href="#TimesNewRomanPSMT-38"/>
       <use xlink:href="#TimesNewRomanPSMT-30" x="50"/>
      </g>
     </g>
    </g>
    <g id="xtick_20">
     <g id="line2d_35">
      <g>
       <use xlink:href="#mf572dfe4bb" x="856.886085" y="659.3" style="stroke: #000000; stroke-width: 0.8"/>
      </g>
     </g>
     <g id="text_33">
      <!-- 100 -->
      <g transform="translate(841.886085 680.1875) scale(0.2 -0.2)">
       <use xlink:href="#TimesNewRomanPSMT-31"/>
       <use xlink:href="#TimesNewRomanPSMT-30" x="50"/>
       <use xlink:href="#TimesNewRomanPSMT-30" x="100"/>
      </g>
     </g>
    </g>
    <g id="xtick_21">
     <g id="line2d_36">
      <g>
       <use xlink:href="#mf572dfe4bb" x="1007.048041" y="659.3" style="stroke: #000000; stroke-width: 0.8"/>
      </g>
     </g>
     <g id="text_34">
      <!-- 120 -->
      <g transform="translate(992.048041 680.1875) scale(0.2 -0.2)">
       <use xlink:href="#TimesNewRomanPSMT-31"/>
       <use xlink:href="#TimesNewRomanPSMT-32" x="50"/>
       <use xlink:href="#TimesNewRomanPSMT-30" x="100"/>
      </g>
     </g>
    </g>
   </g>
   <g id="matplotlib.axis_6">
    <g id="ytick_8">
     <g id="line2d_37">
      <g>
       <use xlink:href="#maa2e2372da" x="61.403125" y="637.211053" style="stroke: #000000; stroke-width: 0.8"/>
      </g>
     </g>
     <g id="text_35">
      <!-- 0.8 -->
      <g transform="translate(29.403125 644.154803) scale(0.2 -0.2)">
       <use xlink:href="#TimesNewRomanPSMT-30"/>
       <use xlink:href="#TimesNewRomanPSMT-2e" x="50"/>
       <use xlink:href="#TimesNewRomanPSMT-38" x="75"/>
      </g>
     </g>
    </g>
    <g id="ytick_9">
     <g id="line2d_38">
      <g>
       <use xlink:href="#maa2e2372da" x="61.403125" y="594.152734" style="stroke: #000000; stroke-width: 0.8"/>
      </g>
     </g>
     <g id="text_36">
      <!-- 1.0 -->
      <g transform="translate(29.403125 601.096484) scale(0.2 -0.2)">
       <use xlink:href="#TimesNewRomanPSMT-31"/>
       <use xlink:href="#TimesNewRomanPSMT-2e" x="50"/>
       <use xlink:href="#TimesNewRomanPSMT-30" x="75"/>
      </g>
     </g>
    </g>
    <g id="ytick_10">
     <g id="line2d_39">
      <g>
       <use xlink:href="#maa2e2372da" x="61.403125" y="551.094414" style="stroke: #000000; stroke-width: 0.8"/>
      </g>
     </g>
     <g id="text_37">
      <!-- 1.2 -->
      <g transform="translate(29.403125 558.038164) scale(0.2 -0.2)">
       <use xlink:href="#TimesNewRomanPSMT-31"/>
       <use xlink:href="#TimesNewRomanPSMT-2e" x="50"/>
       <use xlink:href="#TimesNewRomanPSMT-32" x="75"/>
      </g>
     </g>
    </g>
    <g id="ytick_11">
     <g id="line2d_40">
      <g>
       <use xlink:href="#maa2e2372da" x="61.403125" y="508.036095" style="stroke: #000000; stroke-width: 0.8"/>
      </g>
     </g>
     <g id="text_38">
      <!-- 1.4 -->
      <g transform="translate(29.403125 514.979845) scale(0.2 -0.2)">
       <use xlink:href="#TimesNewRomanPSMT-31"/>
       <use xlink:href="#TimesNewRomanPSMT-2e" x="50"/>
       <use xlink:href="#TimesNewRomanPSMT-34" x="75"/>
      </g>
     </g>
    </g>
    <g id="text_39">
     <!-- total_cpu_usage -->
     <g transform="translate(21.0875 642.342813) rotate(-90) scale(0.2 -0.2)">
      <use xlink:href="#TimesNewRomanPSMT-74"/>
      <use xlink:href="#TimesNewRomanPSMT-6f" x="27.783203"/>
      <use xlink:href="#TimesNewRomanPSMT-74" x="77.783203"/>
      <use xlink:href="#TimesNewRomanPSMT-61" x="105.566406"/>
      <use xlink:href="#TimesNewRomanPSMT-6c" x="149.951172"/>
      <use xlink:href="#TimesNewRomanPSMT-5f" x="177.734375"/>
      <use xlink:href="#TimesNewRomanPSMT-63" x="227.734375"/>
      <use xlink:href="#TimesNewRomanPSMT-70" x="272.119141"/>
      <use xlink:href="#TimesNewRomanPSMT-75" x="322.119141"/>
      <use xlink:href="#TimesNewRomanPSMT-5f" x="372.119141"/>
      <use xlink:href="#TimesNewRomanPSMT-75" x="422.119141"/>
      <use xlink:href="#TimesNewRomanPSMT-73" x="472.119141"/>
      <use xlink:href="#TimesNewRomanPSMT-61" x="511.035156"/>
      <use xlink:href="#TimesNewRomanPSMT-67" x="555.419922"/>
      <use xlink:href="#TimesNewRomanPSMT-65" x="605.419922"/>
     </g>
    </g>
   </g>
   <g id="line2d_41">
    <path d="M 106.076307 581.235225 
L 113.584405 560.567241 
L 121.092502 555.400232 
L 128.6006 585.541078 
L 136.108698 521.814764 
L 143.616796 582.096406 
L 151.124894 568.317741 
L 158.632991 599.319743 
L 166.141089 502.869091 
L 173.649187 585.541078 
L 181.157285 564.011913 
L 188.665382 585.541078 
L 196.17348 550.233249 
L 203.681578 606.209062 
L 211.189676 567.45656 
L 218.697774 558.844904 
L 226.205871 612.237226 
L 233.713969 546.788576 
L 241.222067 531.287575 
L 248.730165 573.48475 
L 256.238263 588.12457 
L 263.74636 562.289577 
L 271.254458 561.428422 
L 278.762556 542.482748 
L 286.270654 600.180898 
L 293.778751 627.738227 
L 301.286849 575.207086 
L 308.794947 554.539076 
L 316.303045 567.45656 
L 323.811143 585.541078 
L 331.31924 582.096406 
L 338.827338 581.235225 
L 346.335436 601.903234 
L 353.843534 567.45656 
L 361.351631 588.12457 
L 368.859729 570.040077 
L 376.367827 591.569242 
L 383.875925 565.734249 
L 391.384023 601.042053 
L 398.89212 548.510912 
L 406.400218 568.317741 
L 413.908316 607.070243 
L 421.416414 605.347881 
L 428.924512 584.679897 
L 436.432609 570.040077 
L 443.940707 604.486726 
L 451.448805 557.983749 
L 458.956903 554.539076 
L 466.465 619.987727 
L 473.973098 624.293554 
L 481.481196 545.06624 
L 488.989294 596.736225 
L 496.497392 575.207086 
L 504.005489 621.710063 
L 511.513587 540.760412 
L 519.021685 585.541078 
L 526.529783 611.376071 
L 534.037881 588.985725 
L 541.545978 585.541078 
L 549.054076 595.87507 
L 556.562174 609.653735 
L 564.070272 619.987727 
L 571.578369 538.17692 
L 579.086467 558.844904 
L 586.594565 615.681899 
L 594.102663 607.070243 
L 601.610761 563.150732 
L 609.118858 573.48475 
L 616.626956 642.378047 
L 624.135054 605.347881 
L 631.643152 582.957586 
L 639.15125 576.929397 
L 646.659347 602.764415 
L 654.167445 638.072219 
L 661.675543 583.818742 
L 669.183641 590.708087 
L 676.691738 577.790578 
L 684.199836 613.098381 
L 691.707934 569.178896 
L 699.216032 605.347881 
L 706.72413 608.792554 
L 714.232227 597.597406 
L 721.740325 603.62557 
L 729.248423 595.013915 
L 736.756521 577.790578 
L 744.264619 627.738227 
L 751.772716 610.51489 
L 759.280814 612.237226 
L 766.788912 616.543054 
L 774.29701 619.126571 
L 781.805107 595.013915 
L 789.313205 613.959562 
L 796.821303 602.764415 
L 804.329401 607.931398 
L 811.837499 619.126571 
L 819.345596 576.929397 
L 826.853694 651.850909 
L 834.361792 554.539076 
L 841.86989 636.349908 
L 849.377987 607.070243 
L 856.886085 594.152734 
L 864.394183 644.100383 
L 871.902281 615.681899 
L 879.410379 606.209062 
L 886.918476 608.792554 
L 894.426574 601.042053 
L 901.934672 625.15471 
L 909.44277 622.571218 
L 916.950868 595.013915 
L 924.458965 636.349908 
L 931.967063 639.794555 
L 939.475161 619.126571 
L 946.983259 625.15471 
L 954.491356 585.541078 
L 961.999454 641.516891 
L 969.507552 646.6839 
L 977.01565 603.62557 
L 984.523748 606.209062 
L 992.031845 647.545056 
L 999.539943 592.430397 
" clip-path="url(#p8e12a6322d)" style="fill: none; stroke: #1f77b4; stroke-width: 1.5; stroke-linecap: square"/>
   </g>
   <g id="line2d_42">
    <path d="M 826.853694 602.513901 
L 834.361792 604.438912 
L 841.86989 604.425849 
L 849.377987 603.297421 
L 856.886085 604.969326 
L 864.394183 606.045167 
L 871.902281 608.119033 
L 879.410379 607.553793 
L 886.918476 606.323399 
L 894.426574 607.394312 
L 901.934672 606.879682 
L 909.44277 608.457372 
L 916.950868 608.770687 
L 924.458965 611.207145 
L 931.967063 610.096939 
L 939.475161 608.532236 
L 946.983259 611.707069 
L 954.491356 611.1832 
L 961.999454 613.550594 
L 969.507552 610.40584 
L 977.01565 612.766818 
L 984.523748 611.66888 
L 992.031845 611.697265 
L 999.539943 612.154688 
" clip-path="url(#p8e12a6322d)" style="fill: none; stroke: #ff7f0e; stroke-width: 1.5; stroke-linecap: square"/>
   </g>
   <g id="line2d_43">
    <path d="M 826.853694 659.3 
L 826.853694 495.42 
" clip-path="url(#p8e12a6322d)" style="fill: none; stroke-dasharray: 7.4,3.2; stroke-dashoffset: 0; stroke: #0000ff; stroke-width: 2"/>
   </g>
   <g id="patch_14">
    <path d="M 61.403125 659.3 
L 61.403125 495.42 
" style="fill: none; stroke: #000000; stroke-width: 0.8; stroke-linejoin: miter; stroke-linecap: square"/>
   </g>
   <g id="patch_15">
    <path d="M 1044.213125 659.3 
L 1044.213125 495.42 
" style="fill: none; stroke: #000000; stroke-width: 0.8; stroke-linejoin: miter; stroke-linecap: square"/>
   </g>
   <g id="patch_16">
    <path d="M 61.403125 659.3 
L 1044.213125 659.3 
" style="fill: none; stroke: #000000; stroke-width: 0.8; stroke-linejoin: miter; stroke-linecap: square"/>
   </g>
   <g id="patch_17">
    <path d="M 61.403125 495.42 
L 1044.213125 495.42 
" style="fill: none; stroke: #000000; stroke-width: 0.8; stroke-linejoin: miter; stroke-linecap: square"/>
   </g>
   <g id="text_40">
    <!-- API_ID: 160 -->
    <g transform="translate(490.4775 489.42) scale(0.24 -0.24)">
     <use xlink:href="#TimesNewRomanPSMT-41"/>
     <use xlink:href="#TimesNewRomanPSMT-50" x="72.216797"/>
     <use xlink:href="#TimesNewRomanPSMT-49" x="127.832031"/>
     <use xlink:href="#TimesNewRomanPSMT-5f" x="161.132812"/>
     <use xlink:href="#TimesNewRomanPSMT-49" x="211.132812"/>
     <use xlink:href="#TimesNewRomanPSMT-44" x="244.433594"/>
     <use xlink:href="#TimesNewRomanPSMT-3a" x="316.650391"/>
     <use xlink:href="#TimesNewRomanPSMT-20" x="344.433594"/>
     <use xlink:href="#TimesNewRomanPSMT-31" x="369.433594"/>
     <use xlink:href="#TimesNewRomanPSMT-36" x="419.433594"/>
     <use xlink:href="#TimesNewRomanPSMT-30" x="469.433594"/>
    </g>
   </g>
  </g>
 </g>
 <defs>
  <clipPath id="p1459976ade">
   <rect x="61.403125" y="29.82" width="982.81" height="163.88"/>
  </clipPath>
  <clipPath id="p784a4debeb">
   <rect x="61.403125" y="262.62" width="982.81" height="163.88"/>
  </clipPath>
  <clipPath id="p8e12a6322d">
   <rect x="61.403125" y="495.42" width="982.81" height="163.88"/>
  </clipPath>
 </defs>
</svg>
