<?xml version="1.0" encoding="utf-8" standalone="no"?>
<!DOCTYPE svg PUBLIC "-//W3C//DTD SVG 1.1//EN"
  "http://www.w3.org/Graphics/SVG/1.1/DTD/svg11.dtd">
<svg xmlns:xlink="http://www.w3.org/1999/xlink" width="1050.655063pt" height="690.95375pt" viewBox="0 0 1050.655063 690.95375" xmlns="http://www.w3.org/2000/svg" version="1.1">
 <metadata>
  <rdf:RDF xmlns:dc="http://purl.org/dc/elements/1.1/" xmlns:cc="http://creativecommons.org/ns#" xmlns:rdf="http://www.w3.org/1999/02/22-rdf-syntax-ns#">
   <cc:Work>
    <dc:type rdf:resource="http://purl.org/dc/dcmitype/StillImage"/>
    <dc:date>2024-02-26T17:34:38.254097</dc:date>
    <dc:format>image/svg+xml</dc:format>
    <dc:creator>
     <cc:Agent>
      <dc:title>Matplotlib v3.7.1, https://matplotlib.org/</dc:title>
     </cc:Agent>
    </dc:creator>
   </cc:Work>
  </rdf:RDF>
 </metadata>
 <defs>
  <style type="text/css">*{stroke-linejoin: round; stroke-linecap: butt}</style>
 </defs>
 <g id="figure_1">
  <g id="patch_1">
   <path d="M 0 690.95375 
L 1050.655063 690.95375 
L 1050.655063 0 
L 0 0 
z
" style="fill: #ffffff"/>
  </g>
  <g id="axes_1">
   <g id="patch_2">
    <path d="M 71.6375 134.788125 
L 1032.564189 134.788125 
L 1032.564189 29.059375 
L 71.6375 29.059375 
z
" style="fill: #ffffff"/>
   </g>
   <g id="matplotlib.axis_1">
    <g id="xtick_1">
     <g id="line2d_1">
      <defs>
       <path id="mdb637d108b" d="M 0 0 
L 0 3.5 
" style="stroke: #000000; stroke-width: 0.8"/>
      </defs>
      <g>
       <use xlink:href="#mdb637d108b" x="115.315986" y="134.788125" style="stroke: #000000; stroke-width: 0.8"/>
      </g>
     </g>
     <g id="text_1">
      <!-- 0 -->
      <g transform="translate(110.315986 155.675625) scale(0.2 -0.2)">
       <defs>
        <path id="TimesNewRomanPSMT-30" d="M 231 2094 
Q 231 2819 450 3342 
Q 669 3866 1031 4122 
Q 1313 4325 1613 4325 
Q 2100 4325 2488 3828 
Q 2972 3213 2972 2159 
Q 2972 1422 2759 906 
Q 2547 391 2217 158 
Q 1888 -75 1581 -75 
Q 975 -75 572 641 
Q 231 1244 231 2094 
z
M 844 2016 
Q 844 1141 1059 588 
Q 1238 122 1591 122 
Q 1759 122 1940 273 
Q 2122 425 2216 781 
Q 2359 1319 2359 2297 
Q 2359 3022 2209 3506 
Q 2097 3866 1919 4016 
Q 1791 4119 1609 4119 
Q 1397 4119 1231 3928 
Q 1006 3669 925 3112 
Q 844 2556 844 2016 
z
" transform="scale(0.015625)"/>
       </defs>
       <use xlink:href="#TimesNewRomanPSMT-30"/>
      </g>
     </g>
    </g>
    <g id="xtick_2">
     <g id="line2d_2">
      <g>
       <use xlink:href="#mdb637d108b" x="267.505832" y="134.788125" style="stroke: #000000; stroke-width: 0.8"/>
      </g>
     </g>
     <g id="text_2">
      <!-- 50 -->
      <g transform="translate(257.505832 155.675625) scale(0.2 -0.2)">
       <defs>
        <path id="TimesNewRomanPSMT-35" d="M 2778 4238 
L 2534 3706 
L 1259 3706 
L 981 3138 
Q 1809 3016 2294 2522 
Q 2709 2097 2709 1522 
Q 2709 1188 2573 903 
Q 2438 619 2231 419 
Q 2025 219 1772 97 
Q 1413 -75 1034 -75 
Q 653 -75 479 54 
Q 306 184 306 341 
Q 306 428 378 495 
Q 450 563 559 563 
Q 641 563 702 538 
Q 763 513 909 409 
Q 1144 247 1384 247 
Q 1750 247 2026 523 
Q 2303 800 2303 1197 
Q 2303 1581 2056 1914 
Q 1809 2247 1375 2428 
Q 1034 2569 447 2591 
L 1259 4238 
L 2778 4238 
z
" transform="scale(0.015625)"/>
       </defs>
       <use xlink:href="#TimesNewRomanPSMT-35"/>
       <use xlink:href="#TimesNewRomanPSMT-30" x="50"/>
      </g>
     </g>
    </g>
    <g id="xtick_3">
     <g id="line2d_3">
      <g>
       <use xlink:href="#mdb637d108b" x="419.695678" y="134.788125" style="stroke: #000000; stroke-width: 0.8"/>
      </g>
     </g>
     <g id="text_3">
      <!-- 100 -->
      <g transform="translate(404.695678 155.675625) scale(0.2 -0.2)">
       <defs>
        <path id="TimesNewRomanPSMT-31" d="M 750 3822 
L 1781 4325 
L 1884 4325 
L 1884 747 
Q 1884 391 1914 303 
Q 1944 216 2037 169 
Q 2131 122 2419 116 
L 2419 0 
L 825 0 
L 825 116 
Q 1125 122 1212 167 
Q 1300 213 1334 289 
Q 1369 366 1369 747 
L 1369 3034 
Q 1369 3497 1338 3628 
Q 1316 3728 1258 3775 
Q 1200 3822 1119 3822 
Q 1003 3822 797 3725 
L 750 3822 
z
" transform="scale(0.015625)"/>
       </defs>
       <use xlink:href="#TimesNewRomanPSMT-31"/>
       <use xlink:href="#TimesNewRomanPSMT-30" x="50"/>
       <use xlink:href="#TimesNewRomanPSMT-30" x="100"/>
      </g>
     </g>
    </g>
    <g id="xtick_4">
     <g id="line2d_4">
      <g>
       <use xlink:href="#mdb637d108b" x="571.885525" y="134.788125" style="stroke: #000000; stroke-width: 0.8"/>
      </g>
     </g>
     <g id="text_4">
      <!-- 150 -->
      <g transform="translate(556.885525 155.675625) scale(0.2 -0.2)">
       <use xlink:href="#TimesNewRomanPSMT-31"/>
       <use xlink:href="#TimesNewRomanPSMT-35" x="50"/>
       <use xlink:href="#TimesNewRomanPSMT-30" x="100"/>
      </g>
     </g>
    </g>
    <g id="xtick_5">
     <g id="line2d_5">
      <g>
       <use xlink:href="#mdb637d108b" x="724.075371" y="134.788125" style="stroke: #000000; stroke-width: 0.8"/>
      </g>
     </g>
     <g id="text_5">
      <!-- 200 -->
      <g transform="translate(709.075371 155.675625) scale(0.2 -0.2)">
       <defs>
        <path id="TimesNewRomanPSMT-32" d="M 2934 816 
L 2638 0 
L 138 0 
L 138 116 
Q 1241 1122 1691 1759 
Q 2141 2397 2141 2925 
Q 2141 3328 1894 3587 
Q 1647 3847 1303 3847 
Q 991 3847 742 3664 
Q 494 3481 375 3128 
L 259 3128 
Q 338 3706 661 4015 
Q 984 4325 1469 4325 
Q 1984 4325 2329 3994 
Q 2675 3663 2675 3213 
Q 2675 2891 2525 2569 
Q 2294 2063 1775 1497 
Q 997 647 803 472 
L 1909 472 
Q 2247 472 2383 497 
Q 2519 522 2628 598 
Q 2738 675 2819 816 
L 2934 816 
z
" transform="scale(0.015625)"/>
       </defs>
       <use xlink:href="#TimesNewRomanPSMT-32"/>
       <use xlink:href="#TimesNewRomanPSMT-30" x="50"/>
       <use xlink:href="#TimesNewRomanPSMT-30" x="100"/>
      </g>
     </g>
    </g>
    <g id="xtick_6">
     <g id="line2d_6">
      <g>
       <use xlink:href="#mdb637d108b" x="876.265217" y="134.788125" style="stroke: #000000; stroke-width: 0.8"/>
      </g>
     </g>
     <g id="text_6">
      <!-- 250 -->
      <g transform="translate(861.265217 155.675625) scale(0.2 -0.2)">
       <use xlink:href="#TimesNewRomanPSMT-32"/>
       <use xlink:href="#TimesNewRomanPSMT-35" x="50"/>
       <use xlink:href="#TimesNewRomanPSMT-30" x="100"/>
      </g>
     </g>
    </g>
    <g id="xtick_7">
     <g id="line2d_7">
      <g>
       <use xlink:href="#mdb637d108b" x="1028.455063" y="134.788125" style="stroke: #000000; stroke-width: 0.8"/>
      </g>
     </g>
     <g id="text_7">
      <!-- 300 -->
      <g transform="translate(1013.455063 155.675625) scale(0.2 -0.2)">
       <defs>
        <path id="TimesNewRomanPSMT-33" d="M 325 3431 
Q 506 3859 782 4092 
Q 1059 4325 1472 4325 
Q 1981 4325 2253 3994 
Q 2459 3747 2459 3466 
Q 2459 3003 1878 2509 
Q 2269 2356 2469 2072 
Q 2669 1788 2669 1403 
Q 2669 853 2319 450 
Q 1863 -75 997 -75 
Q 569 -75 414 31 
Q 259 138 259 259 
Q 259 350 332 419 
Q 406 488 509 488 
Q 588 488 669 463 
Q 722 447 909 348 
Q 1097 250 1169 231 
Q 1284 197 1416 197 
Q 1734 197 1970 444 
Q 2206 691 2206 1028 
Q 2206 1275 2097 1509 
Q 2016 1684 1919 1775 
Q 1784 1900 1550 2001 
Q 1316 2103 1072 2103 
L 972 2103 
L 972 2197 
Q 1219 2228 1467 2375 
Q 1716 2522 1828 2728 
Q 1941 2934 1941 3181 
Q 1941 3503 1739 3701 
Q 1538 3900 1238 3900 
Q 753 3900 428 3381 
L 325 3431 
z
" transform="scale(0.015625)"/>
       </defs>
       <use xlink:href="#TimesNewRomanPSMT-33"/>
       <use xlink:href="#TimesNewRomanPSMT-30" x="50"/>
       <use xlink:href="#TimesNewRomanPSMT-30" x="100"/>
      </g>
     </g>
    </g>
   </g>
   <g id="matplotlib.axis_2">
    <g id="ytick_1">
     <g id="line2d_8">
      <defs>
       <path id="m12f5057098" d="M 0 0 
L -3.5 0 
" style="stroke: #000000; stroke-width: 0.8"/>
      </defs>
      <g>
       <use xlink:href="#m12f5057098" x="71.6375" y="133.552391" style="stroke: #000000; stroke-width: 0.8"/>
      </g>
     </g>
     <g id="text_8">
      <!-- 0.0 -->
      <g transform="translate(39.6375 140.496141) scale(0.2 -0.2)">
       <defs>
        <path id="TimesNewRomanPSMT-2e" d="M 800 606 
Q 947 606 1047 504 
Q 1147 403 1147 259 
Q 1147 116 1045 14 
Q 944 -88 800 -88 
Q 656 -88 554 14 
Q 453 116 453 259 
Q 453 406 554 506 
Q 656 606 800 606 
z
" transform="scale(0.015625)"/>
       </defs>
       <use xlink:href="#TimesNewRomanPSMT-30"/>
       <use xlink:href="#TimesNewRomanPSMT-2e" x="50"/>
       <use xlink:href="#TimesNewRomanPSMT-30" x="75"/>
      </g>
     </g>
    </g>
    <g id="ytick_2">
     <g id="line2d_9">
      <g>
       <use xlink:href="#m12f5057098" x="71.6375" y="67.804358" style="stroke: #000000; stroke-width: 0.8"/>
      </g>
     </g>
     <g id="text_9">
      <!-- 2.0 -->
      <g transform="translate(39.6375 74.748108) scale(0.2 -0.2)">
       <use xlink:href="#TimesNewRomanPSMT-32"/>
       <use xlink:href="#TimesNewRomanPSMT-2e" x="50"/>
       <use xlink:href="#TimesNewRomanPSMT-30" x="75"/>
      </g>
     </g>
    </g>
    <g id="text_10">
     <!-- CPU使用率 -->
     <g transform="translate(33.059375 126.92375) rotate(-90) scale(0.2 -0.2)">
      <defs>
       <path id="SimSun-43" d="M 1725 50 
Q 1025 50 612 575 
Q 200 1100 200 2225 
Q 200 3175 637 3800 
Q 1075 4425 1825 4425 
Q 2000 4425 2175 4375 
Q 2350 4300 2475 4300 
Q 2575 4300 2637 4325 
Q 2700 4350 2750 4425 
L 2975 3325 
L 2825 3275 
Q 2675 3750 2425 4000 
Q 2175 4250 1775 4250 
Q 1250 4250 962 3675 
Q 675 3100 675 2250 
Q 675 1325 925 800 
Q 1175 275 1750 275 
Q 2150 275 2437 562 
Q 2725 850 2825 1325 
L 2975 1250 
Q 2850 725 2512 387 
Q 2175 50 1725 50 
z
" transform="scale(0.015625)"/>
       <path id="SimSun-50" d="M 950 2100 
L 950 450 
Q 950 350 1012 300 
Q 1075 250 1175 250 
L 1350 250 
L 1350 100 
L 150 100 
L 150 250 
L 325 250 
Q 450 250 500 300 
Q 550 350 550 450 
L 550 4025 
Q 550 4125 500 4175 
Q 450 4225 325 4225 
L 175 4225 
L 175 4375 
L 1650 4375 
Q 2275 4375 2612 4062 
Q 2950 3750 2950 3275 
Q 2950 2700 2587 2400 
Q 2225 2100 1725 2100 
L 950 2100 
z
M 1575 2250 
Q 1950 2250 2237 2475 
Q 2525 2700 2525 3250 
Q 2525 3750 2287 3987 
Q 2050 4225 1525 4225 
L 1175 4225 
Q 1075 4225 1012 4175 
Q 950 4125 950 4025 
L 950 2250 
L 1575 2250 
z
" transform="scale(0.015625)"/>
       <path id="SimSun-55" d="M 1625 250 
Q 2000 250 2262 500 
Q 2525 750 2525 1125 
L 2525 4025 
Q 2525 4125 2475 4175 
Q 2425 4225 2300 4225 
L 2150 4225 
L 2150 4375 
L 3050 4375 
L 3050 4225 
L 2900 4225 
Q 2800 4225 2737 4175 
Q 2675 4125 2675 4025 
L 2675 1125 
Q 2675 625 2337 337 
Q 2000 50 1575 50 
Q 1125 50 787 300 
Q 450 550 450 1100 
L 450 4025 
Q 450 4125 400 4175 
Q 350 4225 225 4225 
L 100 4225 
L 100 4375 
L 1200 4375 
L 1200 4225 
L 1075 4225 
Q 975 4225 912 4175 
Q 850 4125 850 4025 
L 850 1100 
Q 850 600 1062 425 
Q 1275 250 1625 250 
z
" transform="scale(0.015625)"/>
       <path id="SimSun-4f7f" d="M 2875 3150 
L 2875 2100 
L 3825 2100 
Q 3850 2825 3850 3150 
L 2875 3150 
z
M 4175 3150 
Q 4175 2800 4150 2100 
L 5150 2100 
L 5150 3150 
L 4175 3150 
z
M 5475 3100 
L 5475 2425 
Q 5475 2100 5500 1800 
L 5150 1675 
L 5150 1950 
L 4150 1950 
Q 4125 1175 3875 600 
Q 4275 275 4875 75 
Q 5475 -125 6075 -150 
L 6075 -250 
Q 5700 -300 5600 -575 
Q 4525 -325 3725 350 
Q 3425 25 2925 -225 
Q 2425 -475 1875 -650 
L 1825 -550 
Q 2400 -325 2850 -25 
Q 3300 275 3500 575 
Q 3200 925 2825 1650 
L 2900 1700 
Q 3325 1100 3625 825 
Q 3800 1300 3825 1950 
L 2875 1950 
L 2875 1825 
L 2525 1675 
Q 2550 2075 2550 2562 
Q 2550 3050 2525 3500 
L 2875 3300 
L 3850 3300 
L 3850 4025 
L 2975 4025 
Q 2650 4025 2375 3950 
L 2150 4175 
L 3850 4175 
L 3850 4525 
Q 3850 4775 3825 5225 
L 4350 5000 
L 4175 4825 
L 4175 4175 
L 5300 4175 
L 5600 4475 
L 6050 4025 
L 4175 4025 
L 4175 3300 
L 5100 3300 
L 5275 3525 
L 5650 3225 
L 5475 3100 
z
M 1675 3175 
L 1675 -450 
L 1325 -625 
Q 1350 -75 1350 350 
L 1350 3200 
Q 900 2475 350 1900 
L 275 1950 
Q 700 2525 1112 3400 
Q 1525 4275 1800 5250 
L 2325 4925 
L 2125 4800 
Q 1725 3925 1500 3525 
L 1875 3325 
L 1675 3175 
z
" transform="scale(0.015625)"/>
       <path id="SimSun-7528" d="M 3400 3150 
L 3400 1825 
L 5075 1825 
L 5075 3150 
L 3400 3150 
z
M 4075 100 
Q 4725 50 4900 62 
Q 5075 75 5075 400 
L 5075 1675 
L 3400 1675 
Q 3400 75 3425 -225 
L 3050 -400 
Q 3075 1025 3075 1675 
L 1425 1675 
Q 1250 350 375 -600 
L 300 -550 
Q 775 225 950 1025 
Q 1125 1825 1125 3225 
Q 1125 4625 1100 5075 
L 1475 4825 
L 5050 4825 
L 5225 5100 
L 5625 4800 
L 5425 4600 
L 5425 225 
Q 5450 -400 4875 -575 
Q 4825 -150 4075 -25 
L 4075 100 
z
M 1475 4675 
L 1475 3300 
L 3075 3300 
L 3075 4675 
L 1475 4675 
z
M 3400 4675 
L 3400 3300 
L 5075 3300 
L 5075 4675 
L 3400 4675 
z
M 1475 3150 
Q 1450 2100 1425 1825 
L 3075 1825 
L 3075 3150 
L 1475 3150 
z
" transform="scale(0.015625)"/>
       <path id="SimSun-7387" d="M 875 3725 
L 925 3800 
Q 1375 3650 1550 3525 
Q 1725 3400 1725 3250 
Q 1725 3175 1662 3025 
Q 1600 2875 1550 2875 
Q 1500 2875 1425 3050 
Q 1275 3325 875 3725 
z
M 550 1850 
Q 875 1925 2000 2575 
L 2050 2500 
Q 1675 2225 1337 1937 
Q 1000 1650 875 1425 
L 550 1850 
z
M 5200 3450 
Q 4800 3150 4275 2800 
L 4225 2875 
Q 4775 3400 5050 3925 
L 5450 3525 
L 5200 3450 
z
M 4325 2500 
L 4350 2575 
Q 5225 2350 5375 2212 
Q 5525 2075 5525 1900 
Q 5525 1775 5487 1662 
Q 5450 1550 5400 1550 
Q 5325 1550 5200 1800 
Q 4975 2150 4325 2500 
z
M 3150 3900 
Q 2500 3300 2300 3150 
Q 2800 3150 3400 3175 
Q 3700 3500 3850 3825 
L 4250 3450 
Q 4050 3400 3450 2825 
Q 2850 2250 2475 1950 
Q 3150 1975 3850 2000 
Q 3750 2175 3550 2450 
L 3600 2500 
Q 4050 2250 4200 2100 
Q 4350 1950 4350 1850 
Q 4350 1775 4250 1625 
Q 4150 1475 4100 1475 
Q 4075 1475 4050 1550 
Q 4000 1700 3900 1900 
Q 3650 1875 3075 1800 
L 3500 1550 
L 3325 1425 
L 3325 975 
L 5325 975 
L 5650 1300 
L 6100 825 
L 3325 825 
Q 3325 -275 3350 -525 
L 2975 -650 
Q 3000 0 3000 825 
L 1125 825 
Q 800 825 525 750 
L 300 975 
L 3000 975 
L 3000 1775 
Q 2450 1700 2200 1525 
L 1950 1950 
Q 2275 1950 2675 2350 
Q 3075 2750 3325 3050 
Q 2400 2950 2150 2775 
L 1950 3175 
Q 2150 3150 2475 3575 
Q 2800 4000 2900 4225 
L 1450 4225 
Q 1125 4225 850 4150 
L 625 4375 
L 3100 4375 
Q 3050 4800 2675 5200 
L 2725 5250 
Q 3225 5050 3337 4912 
Q 3450 4775 3450 4700 
Q 3450 4550 3250 4375 
L 5025 4375 
L 5350 4675 
L 5775 4225 
L 3050 4225 
L 3375 3950 
L 3150 3900 
z
" transform="scale(0.015625)"/>
      </defs>
      <use xlink:href="#SimSun-43"/>
      <use xlink:href="#SimSun-50" x="50"/>
      <use xlink:href="#SimSun-55" x="100"/>
      <use xlink:href="#SimSun-4f7f" x="150"/>
      <use xlink:href="#SimSun-7528" x="250"/>
      <use xlink:href="#SimSun-7387" x="350"/>
     </g>
    </g>
   </g>
   <g id="line2d_10">
    <path d="M 115.315986 93.511837 
L 118.359783 96.33243 
L 121.40358 98.048452 
L 124.447377 97.535618 
L 127.491174 96.825539 
L 130.53497 100.750698 
L 133.578767 99.310816 
L 136.622564 99.389715 
L 139.666361 101.717194 
L 142.710158 102.663966 
L 145.753955 101.559398 
L 148.797752 102.703415 
L 151.841549 118.778808 
L 154.885346 98.659908 
L 157.929143 98.502114 
L 160.97294 99.133294 
L 164.016737 100.001171 
L 167.060534 100.09979 
L 170.104331 101.97361 
L 173.148127 112.125108 
L 176.191924 114.117271 
L 179.235721 116.484201 
L 182.279518 119.245618 
L 185.323315 120.060896 
L 188.367112 118.443492 
L 191.410909 119.390264 
L 194.454706 120.113493 
L 197.498503 121.454752 
L 200.5423 121.165462 
L 203.586097 122.256878 
L 206.629894 123.032704 
L 209.673691 124.623808 
L 212.717487 125.688925 
L 215.761284 128.917158 
L 218.805081 124.636958 
L 221.848878 129.028929 
L 224.892675 124.071523 
L 227.936472 128.548967 
L 230.980269 123.795382 
L 234.024066 126.41873 
L 237.067863 121.323258 
L 240.11166 122.506723 
L 243.155457 122.224004 
L 246.199254 122.842036 
L 249.243051 122.920934 
L 252.286847 123.525816 
L 255.330644 123.440343 
L 258.374441 124.018926 
L 264.462035 124.058375 
L 267.505832 122.618491 
L 270.549629 123.637588 
L 273.593426 123.124753 
L 276.637223 124.525187 
L 279.68102 124.196445 
L 282.724817 124.840777 
L 285.768614 124.308216 
L 288.812411 127.194556 
L 291.856207 127.746841 
L 294.900004 128.930302 
L 297.943801 124.755304 
L 300.987598 125.360187 
L 304.031395 120.17924 
L 307.075192 124.781602 
L 310.118989 126.596251 
L 316.206583 127.260303 
L 319.25038 126.892116 
L 322.294177 126.136011 
L 325.337974 126.964439 
L 328.381771 126.050538 
L 331.425568 123.841406 
L 334.469364 125.425934 
L 337.513161 129.239322 
L 340.556958 127.891487 
L 343.600755 128.996053 
L 346.644552 129.771879 
L 349.688349 129.982273 
L 352.732146 129.936249 
L 355.775943 129.640385 
L 358.81974 125.393061 
L 361.863537 128.680461 
L 364.907334 125.570579 
L 367.951131 123.17735 
L 370.994928 124.755304 
L 374.038724 124.492312 
L 377.082521 125.504831 
L 380.126318 124.321368 
L 383.170115 122.204281 
L 386.213912 122.927509 
L 392.301506 122.769713 
L 395.345303 123.098453 
L 398.3891 121.954438 
L 401.432897 121.415305 
L 404.476694 121.099715 
L 407.520491 120.323886 
L 410.564288 120.20554 
L 413.608084 119.087822 
L 416.651881 111.67802 
L 419.695678 111.579397 
L 422.739475 120.310737 
L 425.783272 119.53491 
L 428.827069 119.640107 
L 431.870866 112.394675 
L 434.914663 109.692431 
L 437.95846 109.429438 
L 441.002257 110.455107 
L 444.046054 104.222194 
L 447.089851 96.904438 
L 450.133648 98.600737 
L 453.177445 99.337116 
L 456.221241 100.915068 
L 459.265038 101.335854 
L 462.308835 104.386564 
L 465.352632 104.938847 
L 468.396429 102.466722 
L 471.440226 106.332705 
L 474.484023 103.281998 
L 477.52782 104.070974 
L 480.571617 98.81113 
L 483.615414 91.144911 
L 486.659211 82.170305 
L 489.703008 77.337822 
L 492.746805 53.885502 
L 495.790601 75.365383 
L 498.834398 80.6581 
L 501.878195 83.879751 
L 504.921992 73.72168 
L 507.965789 76.187232 
L 511.009586 69.382314 
L 514.053383 76.220108 
L 517.09718 67.245501 
L 520.140977 56.324751 
L 523.184774 51.064914 
L 526.228571 55.285933 
L 529.272368 61.16381 
L 532.316165 60.611521 
L 535.359961 62.472194 
L 538.403758 67.219206 
L 541.447555 49.999791 
L 544.491352 64.004126 
L 547.535149 59.033573 
L 550.578946 59.309714 
L 553.622743 61.400503 
L 556.66654 57.179477 
L 559.710337 58.007906 
L 562.754134 64.411761 
L 565.797931 70.237036 
L 568.841728 67.245501 
L 571.885525 59.355737 
L 574.929321 55.009792 
L 577.973118 53.984125 
L 581.016915 55.009792 
L 584.060712 57.652863 
L 587.104509 57.140029 
L 590.148306 106.490501 
L 593.192103 54.773099 
L 596.2359 54.220818 
L 599.279697 60.88767 
L 602.323494 66.094908 
L 605.367291 62.939004 
L 608.411088 65.345381 
L 611.454885 79.540382 
L 614.498682 77.30495 
L 617.542478 76.022862 
L 620.586275 75.694123 
L 623.630072 78.488415 
L 626.673869 76.943335 
L 629.717666 72.472471 
L 632.761463 59.822547 
L 635.80526 61.992232 
L 638.849057 70.802468 
L 641.892854 77.370697 
L 644.936651 75.75987 
L 647.980448 76.187232 
L 651.024245 71.814988 
L 654.068042 83.123649 
L 657.111838 84.044121 
L 660.155635 83.156524 
L 663.199432 75.464005 
L 666.243229 63.511013 
L 669.287026 69.448058 
L 672.330823 79.113019 
L 675.37462 75.464005 
L 678.418417 77.567943 
L 681.462214 81.808689 
L 684.506011 80.953964 
L 687.549808 80.460854 
L 690.593605 81.611448 
L 693.637402 83.452388 
L 696.681198 82.334675 
L 699.724995 75.299635 
L 702.768792 66.213258 
L 705.812589 68.225145 
L 708.856386 67.475618 
L 711.900183 68.343491 
L 714.94398 67.436171 
L 717.987777 63.609635 
L 721.031574 61.913337 
L 724.075371 58.244591 
L 727.119168 61.242705 
L 730.162965 54.851994 
L 733.206762 56.824433 
L 736.250558 57.889556 
L 739.294355 55.364835 
L 742.338152 62.347275 
L 745.381949 67.593969 
L 748.425746 76.936763 
L 751.469543 79.047272 
L 754.51334 75.891368 
L 757.557137 71.512547 
L 760.600934 76.114909 
L 763.644731 83.452388 
L 766.688528 80.197862 
L 769.732325 81.348455 
L 772.776122 77.173456 
L 775.819919 77.896683 
L 778.863715 65.621522 
L 781.907512 71.387625 
L 784.951309 72.834083 
L 787.995106 74.675027 
L 791.038903 73.655936 
L 794.0827 77.600814 
L 797.126497 75.036643 
L 800.170294 77.337822 
L 803.214091 78.324045 
L 806.257888 75.957115 
L 809.301685 79.573257 
L 812.345482 77.436445 
L 815.389279 78.356917 
L 818.433075 77.995301 
L 821.476872 65.654401 
L 824.520669 64.359162 
L 827.564466 58.284047 
L 830.608263 62.347275 
L 833.65206 52.366721 
L 836.695857 51.005739 
L 839.739654 33.865227 
L 842.783451 36.028336 
L 845.827248 48.960972 
L 848.871045 45.417153 
L 851.914842 57.929003 
L 854.958639 49.802546 
L 858.002435 45.344834 
L 861.046232 57.179477 
L 864.090029 56.508845 
L 867.133826 60.335381 
L 870.177623 62.939004 
L 873.22142 61.558293 
L 876.265217 61.439951 
L 879.309014 64.67475 
L 882.352811 58.836328 
L 885.396608 56.508845 
L 888.440405 56.627196 
L 891.484202 53.543611 
L 894.527999 47.626285 
L 897.571795 46.981957 
L 900.615592 60.729872 
L 903.659389 57.061134 
L 906.703186 60.848222 
L 909.746983 63.925223 
L 912.79078 61.597741 
L 915.834577 64.990346 
L 918.878374 52.327274 
L 921.922171 66.068612 
L 924.965968 63.057354 
L 928.009765 64.819396 
L 931.053562 65.831919 
L 934.097359 66.55515 
L 937.141156 71.847863 
L 943.228749 70.730145 
L 946.272546 67.771487 
L 949.316343 67.607113 
L 952.36014 74.181918 
L 955.403937 75.299635 
L 958.447734 81.243256 
L 961.491531 81.45365 
L 964.535328 81.295856 
L 967.579125 80.717271 
L 970.622922 84.109872 
L 973.666719 84.925146 
L 976.710516 82.821208 
L 982.798109 92.18373 
L 985.841906 91.07916 
L 988.885703 87.160578 
L 988.885703 87.160578 
" clip-path="url(#pbf986f8801)" style="fill: none; stroke: #1f77b4; stroke-width: 1.5; stroke-linecap: square"/>
   </g>
   <g id="line2d_11">
    <path d="M 553.622743 48.120269 
L 556.66654 47.422934 
L 559.710337 47.182691 
L 562.754134 48.528319 
L 565.797931 47.387343 
L 568.841728 46.654864 
L 571.885525 47.903758 
L 574.929321 48.390523 
L 577.973118 48.02707 
L 581.016915 48.934379 
L 584.060712 48.7059 
L 587.104509 48.858321 
L 590.148306 47.524144 
L 593.192103 48.285411 
L 596.2359 48.291642 
L 599.279697 48.854504 
L 602.323494 49.003116 
L 605.367291 48.149394 
L 608.411088 48.631684 
L 611.454885 48.043702 
L 614.498682 48.693806 
L 617.542478 49.89163 
L 620.586275 48.03675 
L 623.630072 48.990552 
L 626.673869 48.206806 
L 629.717666 49.345133 
L 632.761463 48.941793 
L 635.80526 48.348834 
L 638.849057 48.581789 
L 641.892854 48.43081 
L 644.936651 49.03377 
L 647.980448 48.881623 
L 651.024245 49.248454 
L 654.068042 48.359697 
L 657.111838 48.61553 
L 660.155635 48.072584 
L 663.199432 48.146667 
L 666.243229 47.45097 
L 669.287026 47.892974 
L 672.330823 46.729283 
L 675.37462 47.199377 
L 678.418417 46.913612 
L 681.462214 47.585114 
L 684.506011 47.032182 
L 687.549808 46.922406 
L 690.593605 47.165746 
L 693.637402 47.16174 
L 696.681198 46.146811 
L 705.812589 46.617971 
L 708.856386 46.393983 
L 711.900183 45.6464 
L 714.94398 46.383198 
L 717.987777 45.794926 
L 721.031574 46.499989 
L 727.119168 45.872348 
L 730.162965 46.436934 
L 733.206762 46.248851 
L 736.250558 45.532431 
L 739.294355 45.362085 
L 742.338152 46.396828 
L 745.381949 46.210313 
L 748.425746 45.269286 
L 751.469543 46.223339 
L 754.51334 45.44098 
L 757.557137 45.623647 
L 760.600934 45.686036 
L 763.644731 45.559315 
L 766.688528 45.577914 
L 769.732325 44.489012 
L 775.819919 45.086611 
L 778.863715 44.441914 
L 781.907512 45.10039 
L 784.951309 46.130657 
L 787.995106 44.833701 
L 791.038903 45.779407 
L 794.0827 44.772473 
L 797.126497 44.573762 
L 800.170294 45.119592 
L 803.214091 44.954207 
L 806.257888 44.166667 
L 809.301685 44.677299 
L 812.345482 43.893066 
L 815.389279 44.813315 
L 818.433075 44.262171 
L 821.476872 44.769055 
L 824.520669 44.670158 
L 827.564466 44.76458 
L 830.608263 43.709694 
L 833.65206 44.061798 
L 836.695857 43.88591 
L 839.739654 44.01956 
L 842.783451 44.427665 
L 845.827248 44.58986 
L 848.871045 44.929267 
L 851.914842 44.763734 
L 854.958639 45.05613 
L 858.002435 44.131452 
L 861.046232 44.965094 
L 864.090029 44.218734 
L 867.133826 44.134893 
L 870.177623 43.908334 
L 873.22142 43.41689 
L 876.265217 43.707358 
L 879.309014 44.566112 
L 882.352811 44.564944 
L 885.396608 44.103581 
L 888.440405 45.665203 
L 891.484202 45.274373 
L 894.527999 45.022169 
L 897.571795 45.060096 
L 900.615592 46.002643 
L 903.659389 45.091823 
L 906.703186 45.209201 
L 909.746983 46.131645 
L 912.79078 48.216047 
L 915.834577 47.480158 
L 918.878374 47.664871 
L 921.922171 49.111763 
L 924.965968 49.189765 
L 928.009765 51.078834 
L 931.053562 51.623896 
L 934.097359 52.525962 
L 937.141156 53.770867 
L 940.184952 55.420201 
L 943.228749 55.861915 
L 946.272546 56.444897 
L 949.316343 58.308837 
L 955.403937 59.449289 
L 958.447734 61.682036 
L 961.491531 62.203585 
L 964.535328 63.190706 
L 967.579125 65.01701 
L 970.622922 66.313535 
L 973.666719 67.080328 
L 976.710516 69.787265 
L 979.754312 70.952566 
L 982.798109 73.671627 
L 985.841906 72.731811 
L 988.885703 76.056733 
L 988.885703 76.056733 
" clip-path="url(#pbf986f8801)" style="fill: none; stroke: #ff7f0e; stroke-width: 1.5; stroke-linecap: square"/>
   </g>
   <g id="line2d_12">
    <path d="M 553.622743 134.788125 
L 553.622743 29.059375 
" clip-path="url(#pbf986f8801)" style="fill: none; stroke-dasharray: 7.4,3.2; stroke-dashoffset: 0; stroke: #0000ff; stroke-width: 2"/>
   </g>
   <g id="patch_3">
    <path d="M 71.6375 134.788125 
L 71.6375 29.059375 
" style="fill: none; stroke: #000000; stroke-width: 0.8; stroke-linejoin: miter; stroke-linecap: square"/>
   </g>
   <g id="patch_4">
    <path d="M 1032.564189 134.788125 
L 1032.564189 29.059375 
" style="fill: none; stroke: #000000; stroke-width: 0.8; stroke-linejoin: miter; stroke-linecap: square"/>
   </g>
   <g id="patch_5">
    <path d="M 71.6375 134.788125 
L 1032.564189 134.788125 
" style="fill: none; stroke: #000000; stroke-width: 0.8; stroke-linejoin: miter; stroke-linecap: square"/>
   </g>
   <g id="patch_6">
    <path d="M 71.6375 29.059375 
L 1032.564189 29.059375 
" style="fill: none; stroke: #000000; stroke-width: 0.8; stroke-linejoin: miter; stroke-linecap: square"/>
   </g>
   <g id="text_11">
    <!-- 云函数ID: 28 -->
    <g transform="translate(492.100845 23.059375) scale(0.2 -0.2)">
     <defs>
      <path id="SimSun-4e91" d="M 1200 4450 
L 4500 4450 
L 4850 4800 
L 5350 4300 
L 1975 4300 
Q 1700 4300 1425 4225 
L 1200 4450 
z
M 1600 275 
Q 2300 300 4725 450 
Q 4425 975 3850 1700 
L 3925 1775 
Q 5200 725 5287 500 
Q 5375 275 5375 175 
Q 5375 0 5250 -162 
Q 5125 -325 5075 -325 
Q 5025 -325 4975 -200 
Q 4875 50 4775 300 
Q 1650 -25 1300 -300 
L 975 300 
Q 1225 350 1462 550 
Q 1700 750 2150 1462 
Q 2600 2175 2725 2600 
L 1250 2600 
Q 925 2600 650 2525 
L 425 2750 
L 5025 2750 
L 5450 3175 
L 6025 2600 
L 3250 2600 
Q 3000 2025 2500 1375 
Q 2000 725 1600 275 
z
" transform="scale(0.015625)"/>
      <path id="SimSun-51fd" d="M 3050 2275 
L 3050 3000 
Q 3050 3450 3025 3800 
L 3275 3625 
L 4450 4475 
L 1650 4475 
Q 1325 4475 1050 4400 
L 825 4625 
L 4450 4625 
L 4775 4875 
L 5150 4375 
Q 4875 4325 4550 4175 
Q 4225 4025 3400 3550 
L 3550 3450 
L 3375 3325 
L 3375 2400 
Q 4250 3225 4475 3600 
L 4875 3150 
L 4625 3125 
Q 3625 2425 3400 2275 
Q 4575 1675 4687 1487 
Q 4800 1300 4800 1150 
Q 4800 1025 4750 925 
Q 4700 825 4675 825 
Q 4575 825 4375 1150 
Q 4075 1600 3375 2150 
L 3375 725 
Q 3375 350 2875 150 
Q 2850 450 2200 650 
L 2200 750 
Q 2800 675 2925 700 
Q 3050 725 3050 850 
L 3050 2100 
Q 1850 1300 1625 1025 
L 1275 1400 
Q 1575 1475 2087 1725 
Q 2600 1975 3050 2275 
z
M 1700 3475 
L 1775 3550 
Q 2350 3200 2475 3025 
Q 2600 2850 2600 2775 
Q 2600 2650 2500 2525 
Q 2400 2400 2350 2400 
Q 2275 2400 2225 2575 
Q 2150 2875 1700 3475 
z
M 5150 0 
L 5150 2175 
Q 5150 2725 5125 3325 
L 5725 3050 
L 5500 2850 
L 5500 525 
Q 5500 100 5525 -400 
L 5150 -600 
L 5150 -150 
L 1250 -150 
L 1000 -375 
L 675 -50 
L 875 125 
L 875 2375 
Q 875 2800 850 3425 
L 1450 3150 
L 1225 2975 
L 1225 0 
L 5150 0 
z
" transform="scale(0.015625)"/>
      <path id="SimSun-6570" d="M 1875 1525 
Q 1675 1200 1500 900 
Q 1825 825 2275 725 
Q 2500 975 2725 1525 
L 1875 1525 
z
M 850 4900 
Q 1325 4600 1425 4450 
Q 1525 4300 1525 4225 
Q 1525 4100 1437 3975 
Q 1350 3850 1300 3850 
Q 1225 3850 1150 4100 
Q 1050 4450 775 4850 
L 850 4900 
z
M 3000 4975 
L 3450 4675 
Q 3250 4625 3100 4425 
Q 2925 4225 2525 3825 
L 2450 3875 
Q 2925 4625 3000 4975 
z
M 1875 5250 
L 2425 5000 
L 2225 4825 
L 2225 3675 
L 2850 3675 
L 3125 3950 
L 3550 3525 
L 2225 3525 
L 2225 3300 
Q 2800 3175 2937 3062 
Q 3075 2950 3075 2775 
Q 3075 2700 3050 2587 
Q 3025 2475 2975 2475 
Q 2925 2475 2800 2650 
Q 2600 2925 2225 3175 
L 2225 2400 
L 1925 2200 
L 2275 2050 
Q 2150 2000 1950 1675 
L 2725 1675 
L 2900 1900 
L 3275 1575 
L 3050 1450 
Q 2800 875 2600 650 
Q 3000 550 3137 437 
Q 3275 325 3275 150 
Q 3275 -25 3200 -25 
Q 3125 -25 3025 75 
Q 2750 275 2400 425 
Q 1525 -275 325 -500 
L 300 -425 
Q 1450 -50 2100 550 
Q 1600 725 1125 800 
Q 1225 950 1525 1525 
L 1200 1525 
Q 875 1525 600 1450 
L 375 1675 
L 1575 1675 
Q 1675 1925 1775 2275 
L 1900 2225 
L 1900 3250 
Q 1225 2475 350 2050 
L 300 2125 
Q 1225 2775 1700 3525 
L 1250 3525 
Q 925 3525 650 3450 
L 425 3675 
L 1900 3675 
Q 1900 4575 1875 5250 
z
M 3925 3525 
Q 4050 2075 4525 1100 
Q 4925 1950 5025 3525 
L 3925 3525 
z
M 4050 5250 
L 4625 4925 
Q 4425 4850 4325 4625 
Q 4225 4400 3950 3675 
L 5375 3675 
L 5675 3975 
L 6125 3525 
L 5400 3525 
Q 5250 1675 4750 775 
Q 5325 75 6100 -100 
L 6100 -200 
Q 5625 -275 5600 -500 
Q 4950 -50 4525 525 
Q 3700 -275 2550 -650 
L 2500 -575 
Q 3650 -50 4325 800 
Q 3850 1975 3825 3375 
Q 3575 2725 3100 2150 
L 3025 2200 
Q 3625 3200 4050 5250 
z
" transform="scale(0.015625)"/>
      <path id="SimSun-49" d="M 600 4225 
L 600 4375 
L 2600 4375 
L 2600 4225 
L 2025 4225 
Q 1925 4225 1862 4175 
Q 1800 4125 1800 4025 
L 1800 450 
Q 1800 350 1862 300 
Q 1925 250 2025 250 
L 2600 250 
L 2600 100 
L 600 100 
L 600 250 
L 1175 250 
Q 1300 250 1350 300 
Q 1400 350 1400 450 
L 1400 4025 
Q 1400 4125 1350 4175 
Q 1300 4225 1175 4225 
L 600 4225 
z
" transform="scale(0.015625)"/>
      <path id="SimSun-44" d="M 2500 2275 
Q 2500 3350 2175 3787 
Q 1850 4225 1275 4225 
Q 1100 4225 1012 4175 
Q 925 4125 925 4025 
L 925 450 
Q 925 350 1000 300 
Q 1075 250 1200 250 
Q 1750 250 2125 662 
Q 2500 1075 2500 2275 
z
M 525 4025 
Q 525 4125 475 4175 
Q 425 4225 300 4225 
L 150 4225 
L 150 4375 
L 1275 4375 
Q 2050 4375 2512 3875 
Q 2975 3375 2975 2325 
Q 2975 1175 2525 637 
Q 2075 100 1200 100 
L 125 100 
L 125 250 
L 300 250 
Q 425 250 475 300 
Q 525 350 525 450 
L 525 4025 
z
" transform="scale(0.015625)"/>
      <path id="SimSun-3a" d="M 1900 2725 
Q 1900 2575 1800 2475 
Q 1700 2375 1550 2375 
Q 1400 2375 1300 2475 
Q 1200 2575 1200 2725 
Q 1200 2875 1300 2975 
Q 1400 3075 1550 3075 
Q 1700 3075 1800 2975 
Q 1900 2875 1900 2725 
z
M 1900 375 
Q 1900 225 1800 125 
Q 1700 25 1550 25 
Q 1400 25 1300 125 
Q 1200 225 1200 375 
Q 1200 525 1300 625 
Q 1400 725 1550 725 
Q 1700 725 1800 625 
Q 1900 525 1900 375 
z
" transform="scale(0.015625)"/>
      <path id="SimSun-20" d="M 0 0 
Q 0 0 0 0 
z
" transform="scale(0.015625)"/>
      <path id="SimSun-32" d="M 2325 3325 
Q 2325 3775 2125 4012 
Q 1925 4250 1525 4250 
Q 1225 4250 1012 4087 
Q 800 3925 800 3675 
Q 800 3525 900 3425 
Q 975 3325 975 3225 
Q 975 3100 912 3037 
Q 850 2975 725 2975 
Q 575 2975 487 3062 
Q 400 3150 400 3350 
Q 400 3875 775 4150 
Q 1150 4425 1575 4425 
Q 2175 4425 2462 4125 
Q 2750 3825 2750 3375 
Q 2750 3075 2612 2775 
Q 2475 2475 2175 2200 
Q 1450 1500 1062 1062 
Q 675 625 600 475 
L 2075 475 
Q 2300 475 2450 650 
Q 2600 825 2650 1175 
L 2800 1175 
L 2650 100 
L 325 100 
L 325 425 
Q 450 650 737 1000 
Q 1025 1350 1500 1825 
Q 1925 2250 2125 2625 
Q 2325 3000 2325 3325 
z
" transform="scale(0.015625)"/>
      <path id="SimSun-38" d="M 625 1125 
Q 625 725 887 475 
Q 1150 225 1550 225 
Q 2025 225 2237 475 
Q 2450 725 2450 1100 
Q 2450 1425 2150 1725 
Q 1850 2025 1250 2275 
Q 950 2075 787 1775 
Q 625 1475 625 1125 
z
M 2825 1175 
Q 2825 700 2475 375 
Q 2125 50 1550 50 
Q 1025 50 650 375 
Q 275 700 275 1125 
Q 275 1550 487 1850 
Q 700 2150 1100 2375 
Q 750 2550 562 2812 
Q 375 3075 375 3400 
Q 375 3825 700 4125 
Q 1025 4425 1600 4425 
Q 2125 4425 2450 4125 
Q 2775 3825 2775 3400 
Q 2775 3100 2587 2837 
Q 2400 2575 2000 2375 
Q 2425 2125 2625 1825 
Q 2825 1525 2825 1175 
z
M 2425 3375 
Q 2425 3725 2225 3987 
Q 2025 4250 1600 4250 
Q 1125 4250 925 4000 
Q 725 3750 725 3475 
Q 725 3200 1012 2937 
Q 1300 2675 1825 2475 
Q 2125 2625 2275 2850 
Q 2425 3075 2425 3375 
z
" transform="scale(0.015625)"/>
     </defs>
     <use xlink:href="#SimSun-4e91"/>
     <use xlink:href="#SimSun-51fd" x="100"/>
     <use xlink:href="#SimSun-6570" x="200"/>
     <use xlink:href="#SimSun-49" x="300"/>
     <use xlink:href="#SimSun-44" x="350"/>
     <use xlink:href="#SimSun-3a" x="400"/>
     <use xlink:href="#SimSun-20" x="450"/>
     <use xlink:href="#SimSun-32" x="500"/>
     <use xlink:href="#SimSun-38" x="550"/>
    </g>
   </g>
   <g id="legend_1">
    <g id="patch_7">
     <path d="M 85.6375 101.934375 
L 209.6375 101.934375 
Q 213.6375 101.934375 213.6375 97.934375 
L 213.6375 43.059375 
Q 213.6375 39.059375 209.6375 39.059375 
L 85.6375 39.059375 
Q 81.6375 39.059375 81.6375 43.059375 
L 81.6375 97.934375 
Q 81.6375 101.934375 85.6375 101.934375 
z
" style="fill: #ffffff; opacity: 0.8; stroke: #cccccc; stroke-linejoin: miter"/>
    </g>
    <g id="line2d_13">
     <path d="M 89.6375 55.996875 
L 109.6375 55.996875 
L 129.6375 55.996875 
" style="fill: none; stroke: #1f77b4; stroke-width: 1.5; stroke-linecap: square"/>
    </g>
    <g id="text_12">
     <!-- 真实值 -->
     <g transform="translate(145.6375 62.996875) scale(0.2 -0.2)">
      <defs>
       <path id="SimSun-771f" d="M 2050 3450 
L 2050 2900 
L 4300 2900 
L 4300 3450 
L 2050 3450 
z
M 2050 2750 
L 2050 2225 
L 4300 2225 
L 4300 2750 
L 2050 2750 
z
M 2050 2075 
L 2050 1550 
L 4300 1550 
L 4300 2075 
L 2050 2075 
z
M 2050 1400 
L 2050 875 
L 4300 875 
L 4300 1400 
L 2050 1400 
z
M 2875 3600 
L 2925 4325 
L 1525 4325 
Q 1200 4325 925 4250 
L 700 4475 
L 2950 4475 
Q 2975 4825 2975 5275 
L 3550 5025 
L 3375 4925 
L 3300 4475 
L 5000 4475 
L 5325 4825 
L 5775 4325 
L 3275 4325 
L 3200 3600 
L 4275 3600 
L 4450 3875 
L 4850 3575 
L 4650 3375 
L 4650 875 
L 5300 875 
L 5675 1225 
L 6125 725 
L 1150 725 
Q 825 725 550 650 
L 325 875 
L 1700 875 
Q 1700 3200 1675 3775 
L 2050 3600 
L 2875 3600 
z
M 2425 725 
L 2825 350 
L 2575 300 
Q 1500 -425 800 -650 
L 775 -575 
Q 1950 125 2425 725 
z
M 3800 700 
Q 4575 375 4962 200 
Q 5350 25 5400 -112 
Q 5450 -250 5450 -325 
Q 5450 -400 5400 -525 
Q 5350 -650 5325 -650 
Q 5250 -650 5100 -450 
Q 4875 -150 3750 625 
L 3800 700 
z
" transform="scale(0.015625)"/>
       <path id="SimSun-5b9e" d="M 1950 3625 
Q 2575 3400 2700 3250 
Q 2825 3100 2825 2975 
Q 2825 2850 2750 2700 
Q 2675 2550 2625 2550 
Q 2550 2550 2450 2800 
Q 2275 3175 1900 3550 
L 1950 3625 
z
M 3575 1325 
Q 3500 1100 3425 925 
Q 4650 550 5087 325 
Q 5525 100 5512 -225 
Q 5500 -550 5400 -550 
Q 5300 -550 5075 -300 
Q 4625 175 3375 800 
Q 3025 175 2300 -150 
Q 1575 -475 425 -625 
L 425 -525 
Q 1475 -325 2200 100 
Q 2925 525 3200 1325 
L 1225 1325 
Q 900 1325 625 1250 
L 400 1475 
L 3225 1475 
Q 3325 1950 3375 2575 
Q 3425 3200 3425 3700 
L 4050 3400 
L 3850 3225 
Q 3750 2300 3625 1475 
L 5175 1475 
L 5550 1850 
L 6075 1325 
L 3575 1325 
z
M 1275 2700 
Q 1975 2425 2100 2262 
Q 2225 2100 2225 1975 
Q 2225 1850 2150 1700 
Q 2075 1550 2025 1550 
Q 1950 1550 1850 1800 
Q 1675 2175 1225 2625 
L 1275 2700 
z
M 2750 5225 
L 2825 5275 
Q 3225 5100 3425 4925 
Q 3625 4750 3625 4600 
Q 3625 4450 3512 4300 
Q 3400 4150 3325 4150 
Q 3250 4150 3200 4400 
Q 3100 4775 2750 5225 
z
M 4975 3225 
L 5350 3925 
L 1175 3925 
Q 1225 3525 1125 3300 
Q 1025 3075 787 3100 
Q 550 3125 550 3200 
Q 550 3300 700 3475 
Q 975 3825 1050 4375 
L 1150 4375 
L 1175 4075 
L 5300 4075 
L 5575 4350 
L 6050 3800 
Q 5625 3825 5050 3175 
L 4975 3225 
z
" transform="scale(0.015625)"/>
       <path id="SimSun-503c" d="M 1525 650 
Q 1525 -225 1550 -525 
L 1175 -650 
Q 1200 250 1200 550 
L 1200 3025 
Q 750 2300 325 1850 
L 250 1900 
Q 725 2625 1100 3525 
Q 1475 4425 1675 5200 
L 2200 4875 
L 1950 4725 
Q 1550 3800 1425 3475 
L 1725 3300 
L 1525 3150 
L 1525 650 
z
M 2875 3225 
L 2875 2475 
L 4800 2475 
L 4800 3225 
L 2875 3225 
z
M 2875 2325 
L 2875 1575 
L 4800 1575 
L 4800 2325 
L 2875 2325 
z
M 2875 1425 
L 2875 675 
L 4800 675 
L 4800 1425 
L 2875 1425 
z
M 2875 525 
L 2875 -225 
L 4800 -225 
L 4800 525 
L 2875 525 
z
M 3550 4250 
Q 3575 4825 3550 5225 
L 4125 4950 
L 3925 4800 
L 3900 4250 
L 5025 4250 
L 5350 4575 
L 5825 4100 
L 3900 4100 
L 3875 3375 
L 4750 3375 
L 4975 3625 
L 5350 3300 
L 5125 3150 
L 5125 -225 
L 5350 -225 
L 5675 100 
L 6150 -375 
L 2450 -375 
Q 2125 -375 1850 -450 
L 1625 -225 
L 2550 -225 
L 2550 2550 
Q 2550 2850 2525 3575 
L 2875 3375 
L 3525 3375 
L 3550 4100 
L 2800 4100 
Q 2475 4100 2200 4025 
L 1975 4250 
L 3550 4250 
z
" transform="scale(0.015625)"/>
      </defs>
      <use xlink:href="#SimSun-771f"/>
      <use xlink:href="#SimSun-5b9e" x="100"/>
      <use xlink:href="#SimSun-503c" x="200"/>
     </g>
    </g>
    <g id="line2d_14">
     <path d="M 89.6375 84.35625 
L 109.6375 84.35625 
L 129.6375 84.35625 
" style="fill: none; stroke: #ff7f0e; stroke-width: 1.5; stroke-linecap: square"/>
    </g>
    <g id="text_13">
     <!-- 预测值 -->
     <g transform="translate(145.6375 91.35625) scale(0.2 -0.2)">
      <defs>
       <path id="SimSun-9884" d="M 475 4825 
L 2225 4825 
L 2425 5075 
L 2825 4675 
Q 2600 4625 2387 4412 
Q 2175 4200 1800 3750 
Q 2050 3575 2037 3400 
Q 2025 3225 1937 3150 
Q 1850 3075 1825 3075 
Q 1725 3075 1650 3300 
Q 1525 3600 1050 4100 
L 1100 4150 
Q 1475 3975 1700 3825 
L 2225 4675 
L 1300 4675 
Q 975 4675 700 4600 
L 475 4825 
z
M 725 100 
Q 1175 50 1362 37 
Q 1550 25 1550 275 
L 1550 2875 
L 1125 2875 
Q 800 2875 525 2800 
L 300 3025 
L 2525 3025 
L 2725 3275 
L 3150 2875 
Q 2800 2825 2275 2075 
L 2200 2125 
L 2550 2875 
L 1875 2875 
L 1875 150 
Q 1875 -400 1350 -500 
Q 1325 -175 725 0 
L 725 100 
z
M 3250 775 
Q 3275 1425 3275 2287 
Q 3275 3150 3250 3900 
L 3600 3700 
L 4050 3700 
Q 4175 4400 4200 4675 
L 3650 4675 
Q 3325 4675 3050 4600 
L 2825 4825 
L 5325 4825 
L 5675 5150 
L 6125 4675 
L 4675 4675 
Q 4500 4425 4175 3700 
L 5300 3700 
L 5475 3975 
L 5875 3675 
L 5675 3475 
L 5675 1950 
Q 5675 1525 5700 1075 
L 5350 875 
L 5350 3550 
L 3600 3550 
L 3600 1000 
L 3250 775 
z
M 4850 2875 
L 4625 2675 
Q 4625 1475 4475 937 
Q 4325 400 3900 50 
Q 3475 -300 2425 -625 
L 2400 -550 
Q 3500 -50 3837 400 
Q 4175 850 4237 1587 
Q 4300 2325 4275 3175 
L 4850 2875 
z
M 4650 950 
Q 5725 375 5875 212 
Q 6025 50 6025 -125 
Q 6025 -225 5962 -387 
Q 5900 -550 5850 -550 
Q 5800 -550 5750 -450 
Q 5625 -250 5437 0 
Q 5250 250 4600 875 
L 4650 950 
z
" transform="scale(0.015625)"/>
       <path id="SimSun-6d4b" d="M 1975 1000 
Q 2000 1475 2000 2925 
Q 2000 4375 1975 5000 
L 2350 4775 
L 3575 4775 
L 3775 4975 
L 4100 4650 
L 3900 4500 
L 3900 2350 
Q 3900 1850 3925 1350 
L 3600 1200 
L 3600 4625 
L 2325 4625 
L 2325 1150 
L 1975 1000 
z
M 2775 3975 
L 3300 3700 
L 3125 3525 
Q 3150 1825 2875 937 
Q 2600 50 1375 -600 
L 1325 -500 
Q 2200 100 2475 725 
Q 2750 1350 2775 2187 
Q 2800 3025 2775 3975 
z
M 3100 950 
Q 3825 450 3937 262 
Q 4050 75 4050 -25 
Q 4050 -150 3975 -262 
Q 3900 -375 3850 -375 
Q 3750 -375 3650 -75 
Q 3500 375 3050 875 
L 3100 950 
z
M 4475 825 
Q 4500 1200 4500 1700 
L 4500 3400 
Q 4500 3950 4475 4300 
L 5025 4025 
L 4825 3825 
L 4825 1700 
Q 4825 1325 4850 950 
L 4475 825 
z
M 5375 150 
L 5375 4050 
Q 5375 4750 5350 5125 
L 5875 4875 
L 5700 4700 
L 5700 75 
Q 5700 -200 5600 -350 
Q 5500 -500 5200 -600 
Q 5025 -225 4450 -50 
L 4450 50 
Q 5125 -50 5250 -37 
Q 5375 -25 5375 150 
z
M 1850 3500 
Q 1375 1525 1300 1225 
Q 1200 900 1212 450 
Q 1225 0 1250 -175 
Q 1250 -275 1125 -275 
Q 1025 -275 875 -225 
Q 725 -175 725 0 
Q 725 125 800 375 
Q 875 625 875 775 
Q 875 950 762 1050 
Q 650 1150 275 1250 
L 275 1350 
Q 725 1300 837 1312 
Q 950 1325 1087 1537 
Q 1225 1750 1750 3525 
L 1850 3500 
z
M 375 3775 
Q 1075 3350 1112 3100 
Q 1150 2850 1050 2775 
Q 950 2700 900 2700 
Q 800 2700 725 2975 
Q 600 3350 325 3700 
L 375 3775 
z
M 800 5100 
Q 1475 4725 1550 4512 
Q 1625 4300 1525 4187 
Q 1425 4075 1350 4075 
Q 1275 4075 1200 4300 
Q 1075 4650 750 5025 
L 800 5100 
z
" transform="scale(0.015625)"/>
      </defs>
      <use xlink:href="#SimSun-9884"/>
      <use xlink:href="#SimSun-6d4b" x="100"/>
      <use xlink:href="#SimSun-503c" x="200"/>
     </g>
    </g>
   </g>
  </g>
  <g id="axes_2">
   <g id="patch_8">
    <path d="M 71.6375 309.388125 
L 1032.564189 309.388125 
L 1032.564189 203.659375 
L 71.6375 203.659375 
z
" style="fill: #ffffff"/>
   </g>
   <g id="matplotlib.axis_3">
    <g id="xtick_8">
     <g id="line2d_15">
      <g>
       <use xlink:href="#mdb637d108b" x="115.315986" y="309.388125" style="stroke: #000000; stroke-width: 0.8"/>
      </g>
     </g>
     <g id="text_14">
      <!-- 0 -->
      <g transform="translate(110.315986 330.275625) scale(0.2 -0.2)">
       <use xlink:href="#TimesNewRomanPSMT-30"/>
      </g>
     </g>
    </g>
    <g id="xtick_9">
     <g id="line2d_16">
      <g>
       <use xlink:href="#mdb637d108b" x="267.505832" y="309.388125" style="stroke: #000000; stroke-width: 0.8"/>
      </g>
     </g>
     <g id="text_15">
      <!-- 50 -->
      <g transform="translate(257.505832 330.275625) scale(0.2 -0.2)">
       <use xlink:href="#TimesNewRomanPSMT-35"/>
       <use xlink:href="#TimesNewRomanPSMT-30" x="50"/>
      </g>
     </g>
    </g>
    <g id="xtick_10">
     <g id="line2d_17">
      <g>
       <use xlink:href="#mdb637d108b" x="419.695678" y="309.388125" style="stroke: #000000; stroke-width: 0.8"/>
      </g>
     </g>
     <g id="text_16">
      <!-- 100 -->
      <g transform="translate(404.695678 330.275625) scale(0.2 -0.2)">
       <use xlink:href="#TimesNewRomanPSMT-31"/>
       <use xlink:href="#TimesNewRomanPSMT-30" x="50"/>
       <use xlink:href="#TimesNewRomanPSMT-30" x="100"/>
      </g>
     </g>
    </g>
    <g id="xtick_11">
     <g id="line2d_18">
      <g>
       <use xlink:href="#mdb637d108b" x="571.885525" y="309.388125" style="stroke: #000000; stroke-width: 0.8"/>
      </g>
     </g>
     <g id="text_17">
      <!-- 150 -->
      <g transform="translate(556.885525 330.275625) scale(0.2 -0.2)">
       <use xlink:href="#TimesNewRomanPSMT-31"/>
       <use xlink:href="#TimesNewRomanPSMT-35" x="50"/>
       <use xlink:href="#TimesNewRomanPSMT-30" x="100"/>
      </g>
     </g>
    </g>
    <g id="xtick_12">
     <g id="line2d_19">
      <g>
       <use xlink:href="#mdb637d108b" x="724.075371" y="309.388125" style="stroke: #000000; stroke-width: 0.8"/>
      </g>
     </g>
     <g id="text_18">
      <!-- 200 -->
      <g transform="translate(709.075371 330.275625) scale(0.2 -0.2)">
       <use xlink:href="#TimesNewRomanPSMT-32"/>
       <use xlink:href="#TimesNewRomanPSMT-30" x="50"/>
       <use xlink:href="#TimesNewRomanPSMT-30" x="100"/>
      </g>
     </g>
    </g>
    <g id="xtick_13">
     <g id="line2d_20">
      <g>
       <use xlink:href="#mdb637d108b" x="876.265217" y="309.388125" style="stroke: #000000; stroke-width: 0.8"/>
      </g>
     </g>
     <g id="text_19">
      <!-- 250 -->
      <g transform="translate(861.265217 330.275625) scale(0.2 -0.2)">
       <use xlink:href="#TimesNewRomanPSMT-32"/>
       <use xlink:href="#TimesNewRomanPSMT-35" x="50"/>
       <use xlink:href="#TimesNewRomanPSMT-30" x="100"/>
      </g>
     </g>
    </g>
    <g id="xtick_14">
     <g id="line2d_21">
      <g>
       <use xlink:href="#mdb637d108b" x="1028.455063" y="309.388125" style="stroke: #000000; stroke-width: 0.8"/>
      </g>
     </g>
     <g id="text_20">
      <!-- 300 -->
      <g transform="translate(1013.455063 330.275625) scale(0.2 -0.2)">
       <use xlink:href="#TimesNewRomanPSMT-33"/>
       <use xlink:href="#TimesNewRomanPSMT-30" x="50"/>
       <use xlink:href="#TimesNewRomanPSMT-30" x="100"/>
      </g>
     </g>
    </g>
   </g>
   <g id="matplotlib.axis_4">
    <g id="ytick_3">
     <g id="line2d_22">
      <g>
       <use xlink:href="#m12f5057098" x="71.6375" y="308.320275" style="stroke: #000000; stroke-width: 0.8"/>
      </g>
     </g>
     <g id="text_21">
      <!-- 0.0 -->
      <g transform="translate(39.6375 315.264025) scale(0.2 -0.2)">
       <use xlink:href="#TimesNewRomanPSMT-30"/>
       <use xlink:href="#TimesNewRomanPSMT-2e" x="50"/>
       <use xlink:href="#TimesNewRomanPSMT-30" x="75"/>
      </g>
     </g>
    </g>
    <g id="ytick_4">
     <g id="line2d_23">
      <g>
       <use xlink:href="#m12f5057098" x="71.6375" y="234.810964" style="stroke: #000000; stroke-width: 0.8"/>
      </g>
     </g>
     <g id="text_22">
      <!-- 1.0 -->
      <g transform="translate(39.6375 241.754714) scale(0.2 -0.2)">
       <use xlink:href="#TimesNewRomanPSMT-31"/>
       <use xlink:href="#TimesNewRomanPSMT-2e" x="50"/>
       <use xlink:href="#TimesNewRomanPSMT-30" x="75"/>
      </g>
     </g>
    </g>
    <g id="text_23">
     <!-- CPU使用率 -->
     <g transform="translate(33.059375 301.52375) rotate(-90) scale(0.2 -0.2)">
      <use xlink:href="#SimSun-43"/>
      <use xlink:href="#SimSun-50" x="50"/>
      <use xlink:href="#SimSun-55" x="100"/>
      <use xlink:href="#SimSun-4f7f" x="150"/>
      <use xlink:href="#SimSun-7528" x="250"/>
      <use xlink:href="#SimSun-7387" x="350"/>
     </g>
    </g>
   </g>
   <g id="line2d_24">
    <path d="M 115.315986 231.400135 
L 118.359783 232.105819 
L 121.40358 228.224532 
L 124.447377 228.577374 
L 127.491174 224.696086 
L 130.53497 229.98875 
L 133.578767 225.048928 
L 136.622564 229.98875 
L 139.666361 231.047285 
L 142.710158 228.224532 
L 145.753955 228.577374 
L 148.797752 228.224532 
L 151.841549 222.579017 
L 154.885346 217.286345 
L 157.929143 225.048928 
L 160.97294 226.107463 
L 164.016737 225.048928 
L 167.060534 228.224532 
L 170.104331 226.460305 
L 173.148127 228.224532 
L 176.191924 229.635908 
L 179.235721 229.283066 
L 182.279518 227.871681 
L 185.323315 228.930216 
L 188.367112 228.224532 
L 191.410909 226.813147 
L 194.454706 228.224532 
L 197.498503 223.637552 
L 200.5423 226.107463 
L 203.586097 225.754621 
L 206.629894 225.754621 
L 209.673691 223.637552 
L 212.717487 221.873325 
L 215.761284 215.874969 
L 218.805081 216.580652 
L 221.848878 219.403414 
L 224.892675 216.580652 
L 227.936472 220.81479 
L 230.980269 221.873325 
L 234.024066 219.050563 
L 237.067863 221.520483 
L 240.11166 220.109098 
L 243.155457 219.756256 
L 246.199254 221.167632 
L 249.243051 223.284701 
L 252.286847 221.167632 
L 255.330644 221.520483 
L 258.374441 217.639187 
L 261.418238 221.873325 
L 264.462035 225.048928 
L 267.505832 218.697721 
L 270.549629 218.697721 
L 276.637223 217.992029 
L 279.68102 218.34488 
L 282.724817 220.461948 
L 285.768614 220.81479 
L 288.812411 219.403414 
L 291.856207 219.403414 
L 294.900004 220.461948 
L 297.943801 221.167632 
L 300.987598 221.520483 
L 304.031395 219.403414 
L 307.075192 214.463583 
L 310.118989 216.580652 
L 313.162786 215.522118 
L 316.206583 216.227811 
L 319.25038 217.639187 
L 322.294177 217.639187 
L 325.337974 221.873325 
L 328.381771 219.403414 
L 331.425568 218.697721 
L 334.469364 219.403414 
L 337.513161 221.167632 
L 340.556958 219.403414 
L 343.600755 219.403414 
L 346.644552 225.048928 
L 349.688349 224.696086 
L 352.732146 228.930216 
L 355.775943 228.577374 
L 358.81974 221.873325 
L 361.863537 208.465227 
L 364.907334 231.047285 
L 367.951131 227.871681 
L 370.994928 233.870046 
L 374.038724 232.105819 
L 377.082521 237.045645 
L 380.126318 226.107463 
L 383.170115 244.455387 
L 386.213912 245.513921 
L 389.257709 248.68952 
L 392.301506 251.512282 
L 395.345303 250.100901 
L 398.3891 244.455387 
L 401.432897 254.335039 
L 404.476694 257.510638 
L 407.520491 255.393573 
L 410.564288 258.922019 
L 413.608084 255.040727 
L 416.651881 249.395213 
L 419.695678 263.508998 
L 422.739475 265.273221 
L 425.783272 266.684602 
L 428.827069 265.626067 
L 431.870866 270.213047 
L 434.914663 269.154513 
L 437.95846 273.388651 
L 441.002257 274.447185 
L 444.046054 276.564254 
L 447.089851 277.622789 
L 450.133648 276.211408 
L 453.177445 295.617863 
L 456.221241 279.034165 
L 459.265038 280.798392 
L 462.308835 281.856922 
L 465.352632 283.621149 
L 468.396429 284.326837 
L 471.440226 284.679684 
L 474.484023 286.443906 
L 477.52782 287.149595 
L 480.571617 288.208129 
L 483.615414 289.619505 
L 489.703008 289.619505 
L 492.746805 291.383729 
L 498.834398 292.795106 
L 501.878195 293.147952 
L 504.921992 293.853644 
L 507.965789 293.500794 
L 511.009586 294.559328 
L 514.053383 295.265021 
L 517.09718 295.265021 
L 523.184774 295.970713 
L 526.228571 295.970713 
L 532.316165 297.38209 
L 535.359961 297.38209 
L 541.447555 298.087774 
L 544.491352 297.38209 
L 547.535149 298.087774 
L 550.578946 298.087774 
L 553.622743 298.793466 
L 556.66654 298.440624 
L 559.710337 299.499159 
L 562.754134 298.793466 
L 565.797931 298.793466 
L 568.841728 299.499159 
L 571.885525 299.499159 
L 574.929321 299.852001 
L 577.973118 299.499159 
L 584.060712 299.499159 
L 587.104509 299.852001 
L 590.148306 299.499159 
L 593.192103 299.852001 
L 596.2359 299.852001 
L 599.279697 299.499159 
L 602.323494 300.557693 
L 605.367291 299.852001 
L 608.411088 299.852001 
L 611.454885 299.499159 
L 626.673869 299.499159 
L 629.717666 299.146308 
L 632.761463 298.440624 
L 635.80526 296.676397 
L 641.892854 297.38209 
L 647.980448 295.970713 
L 651.024245 295.970713 
L 654.068042 294.206486 
L 657.111838 294.559328 
L 660.155635 294.559328 
L 663.199432 293.853644 
L 666.243229 292.442264 
L 669.287026 291.736571 
L 672.330823 281.50408 
L 675.37462 287.855283 
L 678.418417 285.032526 
L 681.462214 285.032526 
L 684.506011 282.562615 
L 687.549808 281.151234 
L 690.593605 273.741497 
L 693.637402 279.034165 
L 696.681198 275.152873 
L 699.724995 275.152873 
L 702.768792 271.624428 
L 705.812589 268.801671 
L 708.856386 240.926937 
L 711.900183 261.391929 
L 714.94398 253.629346 
L 717.987777 257.863484 
L 721.031574 253.982192 
L 724.075371 253.629346 
L 727.119168 237.045645 
L 730.162965 253.276504 
L 733.206762 250.806589 
L 736.250558 251.865124 
L 739.294355 248.68952 
L 742.338152 246.572455 
L 745.381949 233.870046 
L 748.425746 239.868402 
L 751.469543 239.51556 
L 754.51334 242.338318 
L 757.557137 240.926937 
L 760.600934 241.279783 
L 763.644731 236.339957 
L 766.688528 244.455387 
L 769.732325 244.10254 
L 772.776122 244.10254 
L 775.819919 240.926937 
L 778.863715 238.809872 
L 781.907512 231.752977 
L 784.951309 227.871681 
L 787.995106 229.283066 
L 791.038903 228.577374 
L 794.0827 226.460305 
L 797.126497 229.283066 
L 800.170294 227.518839 
L 803.214091 233.517195 
L 806.257888 233.517195 
L 812.345482 229.98875 
L 815.389279 229.635908 
L 818.433075 221.167632 
L 821.476872 220.461948 
L 824.520669 219.403414 
L 827.564466 221.167632 
L 830.608263 225.40177 
L 833.65206 226.107463 
L 836.695857 223.990394 
L 839.739654 223.284701 
L 842.783451 217.992029 
L 845.827248 220.461948 
L 848.871045 223.990394 
L 851.914842 223.637552 
L 854.958639 224.343236 
L 858.002435 210.582296 
L 861.046232 215.874969 
L 864.090029 225.048928 
L 867.133826 225.754621 
L 870.177623 221.167632 
L 873.22142 224.343236 
L 876.265217 226.813147 
L 879.309014 226.460305 
L 882.352811 225.754621 
L 885.396608 226.107463 
L 888.440405 227.165997 
L 891.484202 272.330116 
L 894.527999 209.876604 
L 897.571795 212.699365 
L 900.615592 219.756256 
L 903.659389 219.403414 
L 906.703186 221.167632 
L 909.746983 225.40177 
L 915.834577 228.224532 
L 918.878374 228.224532 
L 921.922171 230.694443 
L 924.965968 230.694443 
L 928.009765 226.460305 
L 931.053562 225.40177 
L 934.097359 227.165997 
L 937.141156 230.341601 
L 940.184952 234.222888 
L 943.228749 232.45867 
L 946.272546 232.811512 
L 949.316343 231.752977 
L 952.36014 233.870046 
L 955.403937 233.517195 
L 958.447734 232.811512 
L 961.491531 234.928576 
L 964.535328 225.754621 
L 967.579125 221.873325 
L 970.622922 229.283066 
L 973.666719 230.341601 
L 976.710516 230.341601 
L 979.754312 232.105819 
L 982.798109 229.283066 
L 985.841906 233.164354 
L 988.885703 231.400135 
L 988.885703 231.400135 
" clip-path="url(#pa7dfbbff7f)" style="fill: none; stroke: #1f77b4; stroke-width: 1.5; stroke-linecap: square"/>
   </g>
   <g id="line2d_25">
    <path d="M 553.622743 304.452081 
L 556.66654 303.993855 
L 559.710337 304.518364 
L 562.754134 304.159003 
L 565.797931 304.40873 
L 568.841728 304.479527 
L 571.885525 304.138278 
L 574.929321 304.582273 
L 581.016915 304.48708 
L 584.060712 303.953204 
L 587.104509 304.283174 
L 590.148306 304.008402 
L 593.192103 304.062645 
L 596.2359 304.245125 
L 599.279697 303.513731 
L 602.323494 304.540237 
L 605.367291 303.830574 
L 608.411088 303.456088 
L 611.454885 303.575142 
L 614.498682 303.204082 
L 620.586275 302.945004 
L 623.630072 303.044674 
L 626.673869 302.912502 
L 629.717666 302.996732 
L 632.761463 302.33439 
L 635.80526 302.50051 
L 638.849057 302.096063 
L 641.892854 302.232117 
L 644.936651 301.451808 
L 647.980448 301.028897 
L 651.024245 300.377088 
L 654.068042 299.981509 
L 657.111838 298.811798 
L 660.155635 298.724537 
L 663.199432 297.204385 
L 666.243229 298.043337 
L 669.287026 297.567594 
L 672.330823 296.677203 
L 675.37462 295.274967 
L 678.418417 291.257634 
L 681.462214 289.717629 
L 687.549808 285.297944 
L 690.593605 286.522769 
L 693.637402 284.872645 
L 696.681198 281.74278 
L 699.724995 280.898728 
L 702.768792 278.524838 
L 705.812589 278.373194 
L 708.856386 278.491407 
L 711.900183 276.160175 
L 714.94398 270.754 
L 717.987777 272.810157 
L 721.031574 270.247065 
L 724.075371 266.010333 
L 727.119168 265.991383 
L 730.162965 267.19077 
L 733.206762 264.982794 
L 736.250558 263.920544 
L 739.294355 264.436368 
L 742.338152 262.785938 
L 745.381949 262.674407 
L 748.425746 260.567503 
L 751.469543 260.879763 
L 754.51334 260.251338 
L 757.557137 258.824644 
L 760.600934 258.429841 
L 763.644731 258.211392 
L 766.688528 258.364657 
L 769.732325 256.333746 
L 772.776122 256.928311 
L 775.819919 256.689922 
L 778.863715 256.915727 
L 781.907512 257.41924 
L 784.951309 256.150332 
L 787.995106 256.929853 
L 791.038903 256.99069 
L 794.0827 256.829894 
L 797.126497 256.551033 
L 800.170294 256.460192 
L 803.214091 256.794658 
L 806.257888 256.42014 
L 809.301685 256.810479 
L 812.345482 255.975489 
L 815.389279 255.258281 
L 818.433075 256.552676 
L 821.476872 256.278119 
L 830.608263 256.537797 
L 833.65206 256.801887 
L 836.695857 256.228599 
L 839.739654 256.070177 
L 842.783451 256.654515 
L 845.827248 256.571539 
L 848.871045 257.254408 
L 851.914842 256.097018 
L 854.958639 256.837491 
L 858.002435 256.906219 
L 861.046232 257.644939 
L 864.090029 256.497027 
L 867.133826 257.186521 
L 870.177623 256.740529 
L 873.22142 257.350665 
L 876.265217 256.570987 
L 879.309014 258.007346 
L 882.352811 256.563661 
L 885.396608 256.167608 
L 888.440405 256.781601 
L 894.527999 256.572099 
L 897.571795 256.730631 
L 900.615592 257.34911 
L 903.659389 256.58467 
L 906.703186 257.02168 
L 909.746983 256.770073 
L 912.79078 257.709168 
L 915.834577 257.700396 
L 918.878374 257.0768 
L 921.922171 257.885085 
L 924.965968 257.030947 
L 928.009765 257.402025 
L 931.053562 257.105625 
L 934.097359 257.591972 
L 937.141156 257.450603 
L 940.184952 257.560315 
L 943.228749 257.444714 
L 946.272546 258.144548 
L 949.316343 258.137428 
L 952.36014 257.164657 
L 955.403937 257.631155 
L 961.491531 257.833112 
L 964.535328 257.617949 
L 967.579125 257.056062 
L 970.622922 257.85668 
L 973.666719 258.168484 
L 976.710516 257.191875 
L 979.754312 256.955472 
L 985.841906 257.496424 
L 988.885703 257.05845 
L 988.885703 257.05845 
" clip-path="url(#pa7dfbbff7f)" style="fill: none; stroke: #ff7f0e; stroke-width: 1.5; stroke-linecap: square"/>
   </g>
   <g id="line2d_26">
    <path d="M 553.622743 309.388125 
L 553.622743 203.659375 
" clip-path="url(#pa7dfbbff7f)" style="fill: none; stroke-dasharray: 7.4,3.2; stroke-dashoffset: 0; stroke: #0000ff; stroke-width: 2"/>
   </g>
   <g id="patch_9">
    <path d="M 71.6375 309.388125 
L 71.6375 203.659375 
" style="fill: none; stroke: #000000; stroke-width: 0.8; stroke-linejoin: miter; stroke-linecap: square"/>
   </g>
   <g id="patch_10">
    <path d="M 1032.564189 309.388125 
L 1032.564189 203.659375 
" style="fill: none; stroke: #000000; stroke-width: 0.8; stroke-linejoin: miter; stroke-linecap: square"/>
   </g>
   <g id="patch_11">
    <path d="M 71.6375 309.388125 
L 1032.564189 309.388125 
" style="fill: none; stroke: #000000; stroke-width: 0.8; stroke-linejoin: miter; stroke-linecap: square"/>
   </g>
   <g id="patch_12">
    <path d="M 71.6375 203.659375 
L 1032.564189 203.659375 
" style="fill: none; stroke: #000000; stroke-width: 0.8; stroke-linejoin: miter; stroke-linecap: square"/>
   </g>
   <g id="text_24">
    <!-- 云函数ID: 72 -->
    <g transform="translate(492.100845 197.659375) scale(0.2 -0.2)">
     <defs>
      <path id="SimSun-37" d="M 2825 4200 
Q 2300 3350 1987 2537 
Q 1675 1725 1675 1125 
Q 1675 1025 1700 850 
Q 1700 650 1700 400 
Q 1700 200 1637 125 
Q 1575 50 1425 50 
Q 1300 50 1212 137 
Q 1125 225 1125 450 
Q 1125 925 1337 1625 
Q 1550 2325 2475 4000 
L 1225 4000 
Q 950 4000 787 3825 
Q 625 3650 550 3300 
L 400 3325 
L 575 4375 
L 2825 4375 
L 2825 4200 
z
" transform="scale(0.015625)"/>
     </defs>
     <use xlink:href="#SimSun-4e91"/>
     <use xlink:href="#SimSun-51fd" x="100"/>
     <use xlink:href="#SimSun-6570" x="200"/>
     <use xlink:href="#SimSun-49" x="300"/>
     <use xlink:href="#SimSun-44" x="350"/>
     <use xlink:href="#SimSun-3a" x="400"/>
     <use xlink:href="#SimSun-20" x="450"/>
     <use xlink:href="#SimSun-37" x="500"/>
     <use xlink:href="#SimSun-32" x="550"/>
    </g>
   </g>
  </g>
  <g id="axes_3">
   <g id="patch_13">
    <path d="M 71.6375 483.988125 
L 1032.564189 483.988125 
L 1032.564189 378.259375 
L 71.6375 378.259375 
z
" style="fill: #ffffff"/>
   </g>
   <g id="matplotlib.axis_5">
    <g id="xtick_15">
     <g id="line2d_27">
      <g>
       <use xlink:href="#mdb637d108b" x="115.315986" y="483.988125" style="stroke: #000000; stroke-width: 0.8"/>
      </g>
     </g>
     <g id="text_25">
      <!-- 0 -->
      <g transform="translate(110.315986 504.875625) scale(0.2 -0.2)">
       <use xlink:href="#TimesNewRomanPSMT-30"/>
      </g>
     </g>
    </g>
    <g id="xtick_16">
     <g id="line2d_28">
      <g>
       <use xlink:href="#mdb637d108b" x="267.505832" y="483.988125" style="stroke: #000000; stroke-width: 0.8"/>
      </g>
     </g>
     <g id="text_26">
      <!-- 50 -->
      <g transform="translate(257.505832 504.875625) scale(0.2 -0.2)">
       <use xlink:href="#TimesNewRomanPSMT-35"/>
       <use xlink:href="#TimesNewRomanPSMT-30" x="50"/>
      </g>
     </g>
    </g>
    <g id="xtick_17">
     <g id="line2d_29">
      <g>
       <use xlink:href="#mdb637d108b" x="419.695678" y="483.988125" style="stroke: #000000; stroke-width: 0.8"/>
      </g>
     </g>
     <g id="text_27">
      <!-- 100 -->
      <g transform="translate(404.695678 504.875625) scale(0.2 -0.2)">
       <use xlink:href="#TimesNewRomanPSMT-31"/>
       <use xlink:href="#TimesNewRomanPSMT-30" x="50"/>
       <use xlink:href="#TimesNewRomanPSMT-30" x="100"/>
      </g>
     </g>
    </g>
    <g id="xtick_18">
     <g id="line2d_30">
      <g>
       <use xlink:href="#mdb637d108b" x="571.885525" y="483.988125" style="stroke: #000000; stroke-width: 0.8"/>
      </g>
     </g>
     <g id="text_28">
      <!-- 150 -->
      <g transform="translate(556.885525 504.875625) scale(0.2 -0.2)">
       <use xlink:href="#TimesNewRomanPSMT-31"/>
       <use xlink:href="#TimesNewRomanPSMT-35" x="50"/>
       <use xlink:href="#TimesNewRomanPSMT-30" x="100"/>
      </g>
     </g>
    </g>
    <g id="xtick_19">
     <g id="line2d_31">
      <g>
       <use xlink:href="#mdb637d108b" x="724.075371" y="483.988125" style="stroke: #000000; stroke-width: 0.8"/>
      </g>
     </g>
     <g id="text_29">
      <!-- 200 -->
      <g transform="translate(709.075371 504.875625) scale(0.2 -0.2)">
       <use xlink:href="#TimesNewRomanPSMT-32"/>
       <use xlink:href="#TimesNewRomanPSMT-30" x="50"/>
       <use xlink:href="#TimesNewRomanPSMT-30" x="100"/>
      </g>
     </g>
    </g>
    <g id="xtick_20">
     <g id="line2d_32">
      <g>
       <use xlink:href="#mdb637d108b" x="876.265217" y="483.988125" style="stroke: #000000; stroke-width: 0.8"/>
      </g>
     </g>
     <g id="text_30">
      <!-- 250 -->
      <g transform="translate(861.265217 504.875625) scale(0.2 -0.2)">
       <use xlink:href="#TimesNewRomanPSMT-32"/>
       <use xlink:href="#TimesNewRomanPSMT-35" x="50"/>
       <use xlink:href="#TimesNewRomanPSMT-30" x="100"/>
      </g>
     </g>
    </g>
    <g id="xtick_21">
     <g id="line2d_33">
      <g>
       <use xlink:href="#mdb637d108b" x="1028.455063" y="483.988125" style="stroke: #000000; stroke-width: 0.8"/>
      </g>
     </g>
     <g id="text_31">
      <!-- 300 -->
      <g transform="translate(1013.455063 504.875625) scale(0.2 -0.2)">
       <use xlink:href="#TimesNewRomanPSMT-33"/>
       <use xlink:href="#TimesNewRomanPSMT-30" x="50"/>
       <use xlink:href="#TimesNewRomanPSMT-30" x="100"/>
      </g>
     </g>
    </g>
   </g>
   <g id="matplotlib.axis_6">
    <g id="ytick_5">
     <g id="line2d_34">
      <g>
       <use xlink:href="#m12f5057098" x="71.6375" y="456.716227" style="stroke: #000000; stroke-width: 0.8"/>
      </g>
     </g>
     <g id="text_32">
      <!-- 1.0 -->
      <g transform="translate(39.6375 463.659977) scale(0.2 -0.2)">
       <use xlink:href="#TimesNewRomanPSMT-31"/>
       <use xlink:href="#TimesNewRomanPSMT-2e" x="50"/>
       <use xlink:href="#TimesNewRomanPSMT-30" x="75"/>
      </g>
     </g>
    </g>
    <g id="ytick_6">
     <g id="line2d_35">
      <g>
       <use xlink:href="#m12f5057098" x="71.6375" y="422.131799" style="stroke: #000000; stroke-width: 0.8"/>
      </g>
     </g>
     <g id="text_33">
      <!-- 2.0 -->
      <g transform="translate(39.6375 429.075549) scale(0.2 -0.2)">
       <use xlink:href="#TimesNewRomanPSMT-32"/>
       <use xlink:href="#TimesNewRomanPSMT-2e" x="50"/>
       <use xlink:href="#TimesNewRomanPSMT-30" x="75"/>
      </g>
     </g>
    </g>
    <g id="ytick_7">
     <g id="line2d_36">
      <g>
       <use xlink:href="#m12f5057098" x="71.6375" y="387.547371" style="stroke: #000000; stroke-width: 0.8"/>
      </g>
     </g>
     <g id="text_34">
      <!-- 3.0 -->
      <g transform="translate(39.6375 394.491121) scale(0.2 -0.2)">
       <use xlink:href="#TimesNewRomanPSMT-33"/>
       <use xlink:href="#TimesNewRomanPSMT-2e" x="50"/>
       <use xlink:href="#TimesNewRomanPSMT-30" x="75"/>
      </g>
     </g>
    </g>
    <g id="text_35">
     <!-- CPU使用率 -->
     <g transform="translate(33.059375 476.12375) rotate(-90) scale(0.2 -0.2)">
      <use xlink:href="#SimSun-43"/>
      <use xlink:href="#SimSun-50" x="50"/>
      <use xlink:href="#SimSun-55" x="100"/>
      <use xlink:href="#SimSun-4f7f" x="150"/>
      <use xlink:href="#SimSun-7528" x="250"/>
      <use xlink:href="#SimSun-7387" x="350"/>
     </g>
    </g>
   </g>
   <g id="line2d_37">
    <path d="M 115.315986 398.503722 
L 118.359783 397.009674 
L 121.40358 397.341682 
L 124.447377 399.167738 
L 127.491174 397.67369 
L 130.53497 398.83573 
L 133.578767 397.009674 
L 136.622564 398.005706 
L 139.666361 383.065227 
L 142.710158 394.187578 
L 145.753955 399.001738 
L 148.797752 398.669722 
L 151.841549 399.499754 
L 154.885346 401.159801 
L 157.929143 399.001738 
L 160.97294 402.155833 
L 164.016737 404.645913 
L 167.060534 405.143929 
L 170.104331 404.645913 
L 173.148127 407.468001 
L 176.191924 404.811921 
L 179.235721 408.796049 
L 182.279518 408.796049 
L 185.323315 413.942208 
L 188.367112 413.7762 
L 191.410909 417.096303 
L 194.454706 417.262312 
L 197.498503 418.756359 
L 200.5423 421.246439 
L 206.629894 427.222626 
L 209.673691 423.902523 
L 212.717487 451.791404 
L 215.761284 430.210722 
L 218.805081 431.538766 
L 221.848878 433.69683 
L 224.892675 437.016937 
L 227.936472 438.344977 
L 230.980269 441.333073 
L 234.024066 442.329105 
L 237.067863 443.989157 
L 240.11166 446.313232 
L 243.155457 448.4713 
L 246.199254 450.297356 
L 249.243051 451.293388 
L 252.286847 453.783467 
L 255.330644 455.277515 
L 258.374441 456.439551 
L 261.418238 458.763625 
L 264.462035 460.755689 
L 267.505832 459.925663 
L 273.593426 463.577778 
L 276.637223 464.407804 
L 279.68102 465.735846 
L 282.724817 465.901852 
L 285.768614 465.403836 
L 288.812411 464.407804 
L 291.856207 465.403836 
L 294.900004 466.565872 
L 297.943801 466.731878 
L 300.987598 467.72791 
L 304.031395 468.05992 
L 307.075192 468.889946 
L 310.118989 469.885978 
L 313.162786 470.217988 
L 316.206583 470.051982 
L 319.25038 471.048014 
L 322.294177 472.542061 
L 325.337974 474.202115 
L 328.381771 475.032141 
L 331.425568 475.364151 
L 334.469364 476.194177 
L 340.556958 476.194177 
L 343.600755 476.526187 
L 346.644552 477.024203 
L 352.732146 477.356215 
L 355.775943 477.356215 
L 358.81974 472.376055 
L 361.863537 479.016267 
L 364.907334 478.684257 
L 367.951131 479.016267 
L 370.994928 478.684257 
L 374.038724 479.182273 
L 377.082521 478.684257 
L 380.126318 478.684257 
L 386.213912 479.016267 
L 389.257709 478.850261 
L 392.301506 478.850261 
L 395.345303 477.356215 
L 398.3891 477.854231 
L 401.432897 477.522219 
L 404.476694 477.522219 
L 407.520491 477.190209 
L 413.608084 475.530157 
L 416.651881 475.198145 
L 419.695678 474.534125 
L 422.739475 473.704099 
L 425.783272 473.040077 
L 428.827069 471.54603 
L 431.870866 465.403836 
L 434.914663 467.561904 
L 437.95846 465.901852 
L 441.002257 464.90582 
L 444.046054 462.913756 
L 447.089851 461.751721 
L 450.133648 455.775531 
L 453.177445 456.439551 
L 456.221241 454.11548 
L 459.265038 452.621432 
L 462.308835 449.633336 
L 465.352632 449.301324 
L 468.396429 426.558607 
L 471.440226 441.499077 
L 474.484023 439.341009 
L 477.52782 437.514953 
L 480.571617 434.526858 
L 483.615414 434.692862 
L 486.659211 430.708738 
L 489.703008 430.210722 
L 492.746805 427.388634 
L 495.790601 428.882682 
L 498.834398 424.068527 
L 501.878195 422.408475 
L 504.921992 412.614168 
L 507.965789 414.274216 
L 511.009586 414.108216 
L 514.053383 414.274216 
L 517.09718 411.950144 
L 520.140977 412.116152 
L 523.184774 410.456096 
L 526.228571 414.93824 
L 529.272368 415.270248 
L 532.316165 414.440224 
L 535.359961 414.440224 
L 538.403758 409.626072 
L 541.447555 409.626072 
L 544.491352 408.630041 
L 547.535149 409.460064 
L 550.578946 408.962048 
L 553.622743 403.815889 
L 556.66654 410.788104 
L 559.710337 407.135993 
L 562.754134 412.282152 
L 565.797931 413.444192 
L 568.841728 413.7762 
L 571.885525 409.294056 
L 574.929321 412.614168 
L 577.973118 400.993793 
L 581.016915 403.981889 
L 584.060712 403.317873 
L 587.104509 408.962048 
L 590.148306 410.290088 
L 593.192103 412.44816 
L 596.2359 412.946176 
L 599.279697 410.124088 
L 602.323494 409.128057 
L 605.367291 409.626072 
L 608.411088 412.116152 
L 611.454885 414.274216 
L 614.498682 411.618136 
L 617.542478 407.800017 
L 620.586275 408.962048 
L 623.630072 413.444192 
L 626.673869 413.112184 
L 629.717666 408.962048 
L 632.761463 412.614168 
L 635.80526 414.93824 
L 638.849057 414.440224 
L 641.892854 411.618136 
L 644.936651 411.452128 
L 647.980448 412.946176 
L 651.024245 439.009001 
L 654.068042 397.839698 
L 657.111838 399.167738 
L 660.155635 404.977921 
L 663.199432 405.807953 
L 666.243229 405.807953 
L 669.287026 407.634009 
L 672.330823 410.622104 
L 675.37462 409.626072 
L 678.418417 412.780168 
L 681.462214 410.290088 
L 684.506011 413.7762 
L 687.549808 408.962048 
L 690.593605 408.464033 
L 696.681198 416.598288 
L 699.724995 415.768264 
L 702.768792 415.270248 
L 705.812589 412.946176 
L 708.856386 415.602256 
L 711.900183 415.602256 
L 714.94398 417.262312 
L 717.987777 415.270248 
L 721.031574 416.26628 
L 724.075371 407.634009 
L 727.119168 405.309937 
L 730.162965 413.444192 
L 733.206762 414.108216 
L 736.250558 409.128057 
L 739.294355 408.796049 
L 742.338152 407.135993 
L 745.381949 410.456096 
L 748.425746 413.112184 
L 751.469543 417.262312 
L 754.51334 414.772232 
L 757.557137 413.6102 
L 760.600934 409.128057 
L 763.644731 409.294056 
L 769.732325 414.93824 
L 772.776122 414.772232 
L 775.819919 415.602256 
L 778.863715 413.444192 
L 784.951309 413.444192 
L 787.995106 414.93824 
L 791.038903 414.772232 
L 794.0827 413.278184 
L 797.126497 411.950144 
L 800.170294 411.950144 
L 803.214091 415.602256 
L 806.257888 407.966017 
L 809.301685 409.128057 
L 812.345482 412.780168 
L 815.389279 405.309937 
L 818.433075 409.792072 
L 821.476872 411.618136 
L 824.520669 411.784136 
L 827.564466 403.649881 
L 830.608263 407.135993 
L 833.65206 404.147897 
L 836.695857 404.147897 
L 839.739654 399.167738 
L 842.783451 404.977921 
L 845.827248 403.815889 
L 848.871045 401.989825 
L 851.914842 397.009674 
L 854.958639 398.503722 
L 858.002435 397.50769 
L 861.046232 396.843666 
L 864.090029 399.001738 
L 867.133826 397.175674 
L 870.177623 390.701475 
L 873.22142 395.349618 
L 876.265217 392.029514 
L 879.309014 389.041419 
L 882.352811 390.369458 
L 885.396608 388.709411 
L 888.440405 384.393267 
L 891.484202 390.867474 
L 894.527999 386.551339 
L 897.571795 388.377395 
L 900.615592 388.377395 
L 903.659389 385.223299 
L 906.703186 390.203459 
L 909.746983 392.029514 
L 912.79078 395.18361 
L 915.834577 391.36549 
L 918.878374 385.721315 
L 921.922171 397.50769 
L 924.965968 393.025546 
L 928.009765 396.34565 
L 931.053562 397.341682 
L 934.097359 399.167738 
L 937.141156 396.34565 
L 940.184952 398.503722 
L 943.228749 390.867474 
L 946.272546 394.685594 
L 949.316343 394.851602 
L 952.36014 398.337714 
L 955.403937 394.685594 
L 958.447734 397.67369 
L 961.491531 397.175674 
L 964.535328 395.349618 
L 967.579125 399.001738 
L 970.622922 399.001738 
L 973.666719 397.839698 
L 976.710516 395.349618 
L 979.754312 384.559275 
L 982.798109 393.689562 
L 985.841906 393.191546 
L 988.885703 394.353586 
L 988.885703 394.353586 
" clip-path="url(#p65cd113316)" style="fill: none; stroke: #1f77b4; stroke-width: 1.5; stroke-linecap: square"/>
   </g>
   <g id="line2d_38">
    <path d="M 553.622743 429.923113 
L 559.710337 429.371979 
L 562.754134 429.440371 
L 565.797931 427.638125 
L 568.841728 427.099974 
L 571.885525 427.004989 
L 574.929321 425.459625 
L 577.973118 424.56571 
L 581.016915 425.731118 
L 584.060712 425.418112 
L 587.104509 424.873332 
L 590.148306 423.444498 
L 593.192103 423.865286 
L 596.2359 423.106108 
L 599.279697 423.79907 
L 602.323494 422.903786 
L 605.367291 423.811009 
L 608.411088 424.023613 
L 611.454885 424.069092 
L 614.498682 423.074292 
L 617.542478 422.669587 
L 620.586275 421.57336 
L 623.630072 422.485113 
L 626.673869 421.430893 
L 629.717666 421.686992 
L 632.761463 422.895821 
L 635.80526 420.890099 
L 638.849057 421.415515 
L 641.892854 422.516315 
L 644.936651 422.315527 
L 647.980448 423.420957 
L 651.024245 422.990167 
L 654.068042 421.502769 
L 657.111838 422.209398 
L 660.155635 422.423643 
L 663.199432 422.909863 
L 666.243229 422.603627 
L 669.287026 423.231614 
L 672.330823 422.327066 
L 675.37462 423.322975 
L 678.418417 422.632775 
L 681.462214 424.048197 
L 684.506011 424.310308 
L 687.549808 425.661571 
L 690.593605 425.338357 
L 693.637402 425.351039 
L 696.681198 424.218699 
L 699.724995 424.507999 
L 702.768792 425.793129 
L 705.812589 424.817484 
L 708.856386 426.464203 
L 711.900183 427.780604 
L 714.94398 428.18622 
L 717.987777 428.043675 
L 721.031574 428.051059 
L 724.075371 429.363345 
L 727.119168 427.870337 
L 730.162965 429.523944 
L 733.206762 429.781771 
L 736.250558 428.941531 
L 739.294355 429.574704 
L 742.338152 430.80999 
L 745.381949 429.727993 
L 748.425746 430.574649 
L 751.469543 430.195179 
L 757.557137 431.78051 
L 760.600934 431.421011 
L 763.644731 430.944953 
L 766.688528 430.842069 
L 769.732325 431.226032 
L 772.776122 430.90058 
L 775.819919 430.776867 
L 778.863715 431.310727 
L 781.907512 431.064629 
L 784.951309 429.747263 
L 787.995106 431.600942 
L 791.038903 431.588561 
L 794.0827 430.626884 
L 797.126497 429.830655 
L 800.170294 429.893301 
L 803.214091 430.406559 
L 809.301685 429.020499 
L 812.345482 428.906768 
L 815.389279 428.376334 
L 818.433075 428.402044 
L 821.476872 427.507544 
L 824.520669 425.633635 
L 827.564466 426.512427 
L 830.608263 426.177674 
L 833.65206 425.50742 
L 836.695857 422.622604 
L 842.783451 424.063134 
L 845.827248 422.962973 
L 848.871045 420.506177 
L 851.914842 419.889977 
L 854.958639 418.785887 
L 858.002435 419.17201 
L 861.046232 416.795637 
L 864.090029 416.784514 
L 867.133826 414.862546 
L 870.177623 413.69602 
L 873.22142 414.020607 
L 876.265217 412.390697 
L 879.309014 413.20554 
L 882.352811 410.91013 
L 885.396608 410.44264 
L 888.440405 410.666861 
L 891.484202 409.500756 
L 894.527999 409.255937 
L 897.571795 409.614116 
L 900.615592 408.233618 
L 903.659389 408.127498 
L 906.703186 407.613238 
L 909.746983 407.62178 
L 912.79078 407.834228 
L 918.878374 406.844965 
L 921.922171 407.412797 
L 924.965968 407.074176 
L 928.009765 406.900969 
L 931.053562 407.920443 
L 934.097359 408.139157 
L 937.141156 406.42783 
L 940.184952 407.12576 
L 943.228749 405.998096 
L 946.272546 405.568601 
L 949.316343 407.415509 
L 952.36014 407.464175 
L 955.403937 407.680225 
L 958.447734 406.305219 
L 961.491531 407.963658 
L 964.535328 407.847701 
L 967.579125 408.268291 
L 970.622922 408.832428 
L 973.666719 408.872131 
L 976.710516 410.214245 
L 979.754312 408.273263 
L 982.798109 409.257512 
L 985.841906 409.115127 
L 988.885703 409.459025 
L 988.885703 409.459025 
" clip-path="url(#p65cd113316)" style="fill: none; stroke: #ff7f0e; stroke-width: 1.5; stroke-linecap: square"/>
   </g>
   <g id="line2d_39">
    <path d="M 553.622743 483.988125 
L 553.622743 378.259375 
" clip-path="url(#p65cd113316)" style="fill: none; stroke-dasharray: 7.4,3.2; stroke-dashoffset: 0; stroke: #0000ff; stroke-width: 2"/>
   </g>
   <g id="patch_14">
    <path d="M 71.6375 483.988125 
L 71.6375 378.259375 
" style="fill: none; stroke: #000000; stroke-width: 0.8; stroke-linejoin: miter; stroke-linecap: square"/>
   </g>
   <g id="patch_15">
    <path d="M 1032.564189 483.988125 
L 1032.564189 378.259375 
" style="fill: none; stroke: #000000; stroke-width: 0.8; stroke-linejoin: miter; stroke-linecap: square"/>
   </g>
   <g id="patch_16">
    <path d="M 71.6375 483.988125 
L 1032.564189 483.988125 
" style="fill: none; stroke: #000000; stroke-width: 0.8; stroke-linejoin: miter; stroke-linecap: square"/>
   </g>
   <g id="patch_17">
    <path d="M 71.6375 378.259375 
L 1032.564189 378.259375 
" style="fill: none; stroke: #000000; stroke-width: 0.8; stroke-linejoin: miter; stroke-linecap: square"/>
   </g>
   <g id="text_36">
    <!-- 云函数ID: 150 -->
    <g transform="translate(487.100845 372.259375) scale(0.2 -0.2)">
     <defs>
      <path id="SimSun-31" d="M 1825 4450 
L 1825 650 
Q 1825 450 1950 350 
Q 2075 250 2300 250 
L 2550 250 
L 2550 100 
L 725 100 
L 725 250 
L 950 250 
Q 1200 250 1312 350 
Q 1425 450 1425 650 
L 1425 3675 
Q 1425 3775 1362 3837 
Q 1300 3900 1175 3900 
L 725 3900 
L 725 4050 
L 950 4050 
Q 1250 4050 1437 4150 
Q 1625 4250 1725 4450 
L 1825 4450 
z
" transform="scale(0.015625)"/>
      <path id="SimSun-35" d="M 1725 2850 
Q 2200 2850 2500 2487 
Q 2800 2125 2800 1525 
Q 2800 850 2487 450 
Q 2175 50 1525 50 
Q 1075 50 725 312 
Q 375 575 375 950 
Q 375 1100 462 1212 
Q 550 1325 700 1325 
Q 850 1325 900 1225 
Q 950 1125 950 1050 
Q 950 900 875 825 
Q 800 725 800 625 
Q 800 425 1037 325 
Q 1275 225 1550 225 
Q 1950 225 2162 550 
Q 2375 875 2375 1475 
Q 2375 1975 2187 2287 
Q 2000 2600 1625 2600 
Q 1350 2600 1150 2500 
Q 950 2400 775 2075 
L 550 2100 
L 675 4375 
L 2725 4375 
L 2650 4000 
L 850 4000 
L 750 2350 
Q 1000 2700 1237 2775 
Q 1475 2850 1725 2850 
z
" transform="scale(0.015625)"/>
      <path id="SimSun-30" d="M 1600 4225 
Q 1250 4225 1012 3687 
Q 775 3150 775 2250 
Q 775 1300 1012 775 
Q 1250 250 1600 250 
Q 1975 250 2187 775 
Q 2400 1300 2400 2250 
Q 2400 3150 2200 3687 
Q 2000 4225 1600 4225 
z
M 1600 50 
Q 1050 50 675 625 
Q 300 1200 300 2250 
Q 300 3225 662 3825 
Q 1025 4425 1600 4425 
Q 2150 4425 2512 3850 
Q 2875 3275 2875 2250 
Q 2875 1225 2512 637 
Q 2150 50 1600 50 
z
" transform="scale(0.015625)"/>
     </defs>
     <use xlink:href="#SimSun-4e91"/>
     <use xlink:href="#SimSun-51fd" x="100"/>
     <use xlink:href="#SimSun-6570" x="200"/>
     <use xlink:href="#SimSun-49" x="300"/>
     <use xlink:href="#SimSun-44" x="350"/>
     <use xlink:href="#SimSun-3a" x="400"/>
     <use xlink:href="#SimSun-20" x="450"/>
     <use xlink:href="#SimSun-31" x="500"/>
     <use xlink:href="#SimSun-35" x="550"/>
     <use xlink:href="#SimSun-30" x="600"/>
    </g>
   </g>
  </g>
  <g id="axes_4">
   <g id="patch_18">
    <path d="M 71.6375 658.588125 
L 1032.564189 658.588125 
L 1032.564189 552.859375 
L 71.6375 552.859375 
z
" style="fill: #ffffff"/>
   </g>
   <g id="matplotlib.axis_7">
    <g id="xtick_22">
     <g id="line2d_40">
      <g>
       <use xlink:href="#mdb637d108b" x="115.315986" y="658.588125" style="stroke: #000000; stroke-width: 0.8"/>
      </g>
     </g>
     <g id="text_37">
      <!-- 0 -->
      <g transform="translate(110.315986 679.475625) scale(0.2 -0.2)">
       <use xlink:href="#TimesNewRomanPSMT-30"/>
      </g>
     </g>
    </g>
    <g id="xtick_23">
     <g id="line2d_41">
      <g>
       <use xlink:href="#mdb637d108b" x="267.505832" y="658.588125" style="stroke: #000000; stroke-width: 0.8"/>
      </g>
     </g>
     <g id="text_38">
      <!-- 50 -->
      <g transform="translate(257.505832 679.475625) scale(0.2 -0.2)">
       <use xlink:href="#TimesNewRomanPSMT-35"/>
       <use xlink:href="#TimesNewRomanPSMT-30" x="50"/>
      </g>
     </g>
    </g>
    <g id="xtick_24">
     <g id="line2d_42">
      <g>
       <use xlink:href="#mdb637d108b" x="419.695678" y="658.588125" style="stroke: #000000; stroke-width: 0.8"/>
      </g>
     </g>
     <g id="text_39">
      <!-- 100 -->
      <g transform="translate(404.695678 679.475625) scale(0.2 -0.2)">
       <use xlink:href="#TimesNewRomanPSMT-31"/>
       <use xlink:href="#TimesNewRomanPSMT-30" x="50"/>
       <use xlink:href="#TimesNewRomanPSMT-30" x="100"/>
      </g>
     </g>
    </g>
    <g id="xtick_25">
     <g id="line2d_43">
      <g>
       <use xlink:href="#mdb637d108b" x="571.885525" y="658.588125" style="stroke: #000000; stroke-width: 0.8"/>
      </g>
     </g>
     <g id="text_40">
      <!-- 150 -->
      <g transform="translate(556.885525 679.475625) scale(0.2 -0.2)">
       <use xlink:href="#TimesNewRomanPSMT-31"/>
       <use xlink:href="#TimesNewRomanPSMT-35" x="50"/>
       <use xlink:href="#TimesNewRomanPSMT-30" x="100"/>
      </g>
     </g>
    </g>
    <g id="xtick_26">
     <g id="line2d_44">
      <g>
       <use xlink:href="#mdb637d108b" x="724.075371" y="658.588125" style="stroke: #000000; stroke-width: 0.8"/>
      </g>
     </g>
     <g id="text_41">
      <!-- 200 -->
      <g transform="translate(709.075371 679.475625) scale(0.2 -0.2)">
       <use xlink:href="#TimesNewRomanPSMT-32"/>
       <use xlink:href="#TimesNewRomanPSMT-30" x="50"/>
       <use xlink:href="#TimesNewRomanPSMT-30" x="100"/>
      </g>
     </g>
    </g>
    <g id="xtick_27">
     <g id="line2d_45">
      <g>
       <use xlink:href="#mdb637d108b" x="876.265217" y="658.588125" style="stroke: #000000; stroke-width: 0.8"/>
      </g>
     </g>
     <g id="text_42">
      <!-- 250 -->
      <g transform="translate(861.265217 679.475625) scale(0.2 -0.2)">
       <use xlink:href="#TimesNewRomanPSMT-32"/>
       <use xlink:href="#TimesNewRomanPSMT-35" x="50"/>
       <use xlink:href="#TimesNewRomanPSMT-30" x="100"/>
      </g>
     </g>
    </g>
    <g id="xtick_28">
     <g id="line2d_46">
      <g>
       <use xlink:href="#mdb637d108b" x="1028.455063" y="658.588125" style="stroke: #000000; stroke-width: 0.8"/>
      </g>
     </g>
     <g id="text_43">
      <!-- 300 -->
      <g transform="translate(1013.455063 679.475625) scale(0.2 -0.2)">
       <use xlink:href="#TimesNewRomanPSMT-33"/>
       <use xlink:href="#TimesNewRomanPSMT-30" x="50"/>
       <use xlink:href="#TimesNewRomanPSMT-30" x="100"/>
      </g>
     </g>
    </g>
   </g>
   <g id="matplotlib.axis_8">
    <g id="ytick_8">
     <g id="line2d_47">
      <g>
       <use xlink:href="#m12f5057098" x="71.6375" y="623.923456" style="stroke: #000000; stroke-width: 0.8"/>
      </g>
     </g>
     <g id="text_44">
      <!-- 10.0 -->
      <g transform="translate(29.6375 630.867206) scale(0.2 -0.2)">
       <use xlink:href="#TimesNewRomanPSMT-31"/>
       <use xlink:href="#TimesNewRomanPSMT-30" x="50"/>
       <use xlink:href="#TimesNewRomanPSMT-2e" x="100"/>
       <use xlink:href="#TimesNewRomanPSMT-30" x="125"/>
      </g>
     </g>
    </g>
    <g id="ytick_9">
     <g id="line2d_48">
      <g>
       <use xlink:href="#m12f5057098" x="71.6375" y="554.519861" style="stroke: #000000; stroke-width: 0.8"/>
      </g>
     </g>
     <g id="text_45">
      <!-- 20.0 -->
      <g transform="translate(29.6375 561.463611) scale(0.2 -0.2)">
       <use xlink:href="#TimesNewRomanPSMT-32"/>
       <use xlink:href="#TimesNewRomanPSMT-30" x="50"/>
       <use xlink:href="#TimesNewRomanPSMT-2e" x="100"/>
       <use xlink:href="#TimesNewRomanPSMT-30" x="125"/>
      </g>
     </g>
    </g>
    <g id="text_46">
     <!-- CPU使用率 -->
     <g transform="translate(23.059375 650.72375) rotate(-90) scale(0.2 -0.2)">
      <use xlink:href="#SimSun-43"/>
      <use xlink:href="#SimSun-50" x="50"/>
      <use xlink:href="#SimSun-55" x="100"/>
      <use xlink:href="#SimSun-4f7f" x="150"/>
      <use xlink:href="#SimSun-7528" x="250"/>
      <use xlink:href="#SimSun-7387" x="350"/>
     </g>
    </g>
   </g>
   <g id="line2d_49">
    <path d="M 115.315986 594.850289 
L 118.359783 594.121548 
L 121.40358 599.468408 
L 124.447377 600.724611 
L 127.491174 599.04782 
L 130.53497 601.71569 
L 133.578767 602.490234 
L 136.622564 600.855095 
L 139.666361 601.027211 
L 142.710158 604.168415 
L 145.753955 605.545385 
L 148.797752 600.510842 
L 151.841549 653.782273 
L 154.885346 599.607211 
L 157.929143 599.392059 
L 160.97294 600.252668 
L 164.016737 604.082356 
L 167.060534 600.166603 
L 170.104331 601.758726 
L 173.148127 600.941153 
L 176.191924 601.371451 
L 179.235721 600.381762 
L 185.323315 604.512661 
L 188.367112 598.74661 
L 191.410909 604.426596 
L 194.454706 605.588415 
L 197.498503 604.125386 
L 200.5423 608.041139 
L 203.586097 608.471437 
L 206.629894 604.598719 
L 209.673691 606.190842 
L 212.717487 606.664175 
L 215.761284 610.020531 
L 218.805081 613.6656 
L 221.848878 615.70607 
L 224.892675 608.876761 
L 227.936472 612.832764 
L 230.980269 614.498449 
L 234.024066 615.789355 
L 237.067863 616.413988 
L 240.11166 618.204604 
L 243.155457 615.955925 
L 246.199254 615.456215 
L 252.286847 619.037439 
L 255.330644 615.955925 
L 258.374441 616.830406 
L 261.418238 613.499037 
L 264.462035 618.82923 
L 267.505832 619.287294 
L 270.549629 617.788179 
L 273.593426 618.079673 
L 276.637223 619.079085 
L 279.68102 616.080849 
L 282.724817 618.079673 
L 285.768614 618.662667 
L 288.812411 617.954749 
L 291.856207 616.955337 
L 294.900004 619.620434 
L 297.943801 613.165897 
L 300.987598 618.745946 
L 304.031395 614.956513 
L 307.075192 614.581727 
L 310.118989 615.164722 
L 313.162786 616.747121 
L 316.206583 615.248006 
L 319.25038 617.496685 
L 322.294177 616.413988 
L 325.337974 614.956513 
L 328.381771 616.78876 
L 331.425568 619.620434 
L 334.469364 614.748304 
L 337.513161 614.123664 
L 340.556958 613.082612 
L 346.644552 612.832764 
L 349.688349 614.706658 
L 352.732146 617.45504 
L 355.775943 616.205773 
L 358.81974 617.163546 
L 361.863537 617.288476 
L 364.907334 618.371167 
L 367.951131 617.663249 
L 370.994928 613.415752 
L 374.038724 614.082024 
L 377.082521 612.457986 
L 380.126318 615.99757 
L 383.170115 615.872633 
L 386.213912 612.333055 
L 389.257709 612.166485 
L 392.301506 613.332467 
L 395.345303 612.624549 
L 398.3891 610.167667 
L 401.432897 611.375282 
L 404.476694 610.5008 
L 407.520491 608.79347 
L 410.564288 609.876167 
L 413.608084 592.830642 
L 416.651881 586.396935 
L 419.695678 591.498097 
L 422.739475 594.510213 
L 425.783272 594.170137 
L 428.827069 596.113435 
L 431.870866 596.064853 
L 434.914663 599.368463 
L 437.95846 601.457509 
L 441.002257 603.824175 
L 444.046054 602.003021 
L 447.089851 581.057025 
L 456.221241 586.706478 
L 459.265038 587.887723 
L 462.308835 598.950655 
L 465.352632 598.416243 
L 468.396429 600.981402 
L 471.440226 600.385918 
L 474.484023 598.462052 
L 477.52782 594.934964 
L 480.571617 601.755952 
L 483.615414 581.208318 
L 486.659211 572.220565 
L 489.703008 575.807343 
L 492.746805 569.899695 
L 495.790601 585.565482 
L 498.834398 589.310496 
L 501.878195 593.793968 
L 504.921992 596.436859 
L 507.965789 594.785054 
L 511.009586 597.380745 
L 514.053383 600.495579 
L 517.09718 594.171527 
L 520.140977 577.857516 
L 523.184774 578.777813 
L 526.228571 581.917633 
L 529.272368 592.712661 
L 532.316165 591.546679 
L 535.359961 591.206603 
L 538.403758 587.368581 
L 541.447555 588.826057 
L 544.491352 591.35235 
L 547.535149 594.364466 
L 550.578946 598.445393 
L 553.622743 597.522329 
L 556.66654 581.374888 
L 562.754134 596.021824 
L 565.797931 595.029348 
L 568.841728 595.517951 
L 571.885525 595.340275 
L 574.929321 596.806084 
L 577.973118 592.231001 
L 581.016915 592.941693 
L 584.060712 594.540745 
L 587.104509 597.694452 
L 590.148306 641.790717 
L 593.192103 565.827094 
L 596.2359 557.665227 
L 599.279697 572.065102 
L 602.323494 581.392931 
L 605.367291 584.690994 
L 608.411088 587.339431 
L 611.454885 591.886762 
L 614.498682 591.97004 
L 617.542478 597.117011 
L 620.586275 597.872121 
L 623.630072 599.337924 
L 626.673869 600.936983 
L 629.717666 584.963055 
L 632.761463 582.892046 
L 635.80526 589.887931 
L 638.849057 598.24968 
L 641.892854 595.029348 
L 644.936651 597.738864 
L 647.980448 597.250261 
L 651.024245 598.005379 
L 654.068042 599.204673 
L 657.111838 600.137453 
L 660.155635 602.313947 
L 663.199432 595.828878 
L 666.243229 590.321008 
L 669.287026 598.538394 
L 672.330823 603.513249 
L 675.37462 599.115835 
L 678.418417 602.313947 
L 681.462214 602.313947 
L 684.506011 598.760489 
L 687.549808 602.447211 
L 690.593605 602.269535 
L 693.637402 602.713719 
L 696.681198 598.71607 
L 699.724995 597.250261 
L 702.768792 597.516776 
L 705.812589 602.180697 
L 708.856386 603.291153 
L 711.900183 600.359549 
L 714.94398 601.914189 
L 717.987777 600.714895 
L 721.031574 594.496333 
L 724.075371 602.091859 
L 727.119168 602.136284 
L 730.162965 603.291153 
L 733.206762 601.958608 
L 736.250558 600.226298 
L 739.294355 601.381167 
L 742.338152 601.514418 
L 745.381949 600.848152 
L 748.425746 604.135102 
L 751.469543 606.75578 
L 754.51334 602.980226 
L 757.557137 603.069065 
L 760.600934 605.467654 
L 763.644731 603.335572 
L 766.688528 598.671651 
L 769.732325 603.60208 
L 772.776122 600.181872 
L 775.819919 600.492806 
L 778.863715 601.86977 
L 781.907512 600.31513 
L 784.951309 599.737695 
L 787.995106 602.030787 
L 791.038903 601.958608 
L 794.0827 599.737695 
L 797.126497 600.359549 
L 800.170294 600.048622 
L 803.214091 603.069065 
L 806.257888 604.001851 
L 809.301685 591.747951 
L 812.345482 592.536375 
L 815.389279 593.685697 
L 818.433075 588.888525 
L 821.476872 590.587516 
L 824.520669 590.187758 
L 827.564466 580.171437 
L 830.608263 579.888269 
L 833.65206 577.345323 
L 836.695857 576.146029 
L 839.739654 578.244784 
L 842.783451 574.247136 
L 845.827248 588.488754 
L 848.871045 582.492288 
L 851.914842 586.589874 
L 854.958639 583.441727 
L 858.002435 578.094881 
L 861.046232 588.838546 
L 864.090029 588.488754 
L 867.133826 589.488173 
L 870.177623 589.438194 
L 873.22142 589.837965 
L 876.265217 589.837965 
L 879.309014 591.536962 
L 882.352811 589.738021 
L 885.396608 588.288871 
L 888.440405 578.394701 
L 891.484202 578.838878 
L 894.527999 578.339182 
L 897.571795 585.390579 
L 900.615592 584.141313 
L 903.659389 584.44114 
L 906.703186 586.290054 
L 909.746983 589.088401 
L 912.79078 589.338256 
L 915.834577 590.237723 
L 918.878374 576.277889 
L 924.965968 586.489936 
L 928.009765 586.290054 
L 931.053562 585.940254 
L 934.097359 586.789756 
L 937.141156 586.689812 
L 940.184952 585.290635 
L 943.228749 585.690406 
L 946.272546 582.242433 
L 949.316343 581.093111 
L 952.36014 584.541084 
L 955.403937 586.240075 
L 961.491531 587.489342 
L 964.535328 585.740372 
L 967.579125 587.989051 
L 970.622922 588.588698 
L 973.666719 587.939079 
L 976.710516 582.592225 
L 979.754312 588.988457 
L 982.798109 592.28652 
L 985.841906 591.786817 
L 988.885703 583.041963 
L 988.885703 583.041963 
" clip-path="url(#p43347b3e76)" style="fill: none; stroke: #1f77b4; stroke-width: 1.5; stroke-linecap: square"/>
   </g>
   <g id="line2d_50">
    <path d="M 553.622743 616.936083 
L 556.66654 617.825973 
L 559.710337 616.913929 
L 562.754134 617.009711 
L 565.797931 617.349211 
L 574.929321 617.296982 
L 577.973118 617.163447 
L 581.016915 617.201055 
L 584.060712 617.565918 
L 587.104509 617.188737 
L 590.148306 617.342804 
L 596.2359 617.304315 
L 599.279697 616.89821 
L 602.323494 617.301549 
L 605.367291 617.007275 
L 608.411088 617.319333 
L 611.454885 616.819816 
L 614.498682 616.903889 
L 620.586275 617.236029 
L 623.630072 617.01531 
L 635.80526 616.811834 
L 638.849057 616.960036 
L 641.892854 616.932052 
L 644.936651 616.548947 
L 647.980448 616.33715 
L 654.068042 616.821444 
L 657.111838 616.181799 
L 660.155635 616.359548 
L 663.199432 616.340539 
L 666.243229 616.524238 
L 669.287026 616.365022 
L 675.37462 616.399248 
L 678.418417 616.040924 
L 681.462214 616.33623 
L 684.506011 616.306498 
L 690.593605 616.031697 
L 693.637402 616.100599 
L 696.681198 616.318598 
L 705.812589 615.86199 
L 708.856386 616.1392 
L 714.94398 615.937107 
L 717.987777 616.165021 
L 724.075371 615.922102 
L 742.338152 615.889207 
L 745.381949 615.781062 
L 748.425746 616.002905 
L 751.469543 615.998921 
L 754.51334 616.166563 
L 760.600934 615.927106 
L 763.644731 615.932103 
L 766.688528 615.800812 
L 769.732325 616.055902 
L 772.776122 615.916536 
L 778.863715 616.017235 
L 781.907512 615.749794 
L 784.951309 615.949028 
L 794.0827 615.972948 
L 797.126497 616.128571 
L 806.257888 615.875605 
L 809.301685 616.025826 
L 812.345482 616.014813 
L 815.389279 616.137546 
L 845.827248 615.971797 
L 848.871045 616.331557 
L 851.914842 615.918515 
L 854.958639 616.335006 
L 858.002435 616.076123 
L 861.046232 616.165682 
L 864.090029 616.684328 
L 867.133826 616.396759 
L 870.177623 616.577249 
L 873.22142 616.204965 
L 876.265217 616.816579 
L 879.309014 616.731256 
L 882.352811 616.942629 
L 888.440405 616.913254 
L 891.484202 616.890426 
L 894.527999 617.010002 
L 897.571795 616.680933 
L 900.615592 616.787933 
L 903.659389 617.086562 
L 906.703186 617.04714 
L 912.79078 617.231521 
L 915.834577 616.934818 
L 918.878374 616.865221 
L 921.922171 616.653862 
L 924.965968 617.159747 
L 934.097359 616.574694 
L 937.141156 616.916643 
L 940.184952 616.538489 
L 943.228749 616.390994 
L 946.272546 616.119112 
L 952.36014 616.345219 
L 955.403937 616.288601 
L 958.447734 615.690694 
L 961.491531 615.828876 
L 964.535328 615.835918 
L 967.579125 615.44172 
L 976.710516 615.821999 
L 979.754312 616.280175 
L 982.798109 615.715575 
L 985.841906 615.59484 
L 988.885703 616.287006 
L 988.885703 616.287006 
" clip-path="url(#p43347b3e76)" style="fill: none; stroke: #ff7f0e; stroke-width: 1.5; stroke-linecap: square"/>
   </g>
   <g id="line2d_51">
    <path d="M 553.622743 658.588125 
L 553.622743 552.859375 
" clip-path="url(#p43347b3e76)" style="fill: none; stroke-dasharray: 7.4,3.2; stroke-dashoffset: 0; stroke: #0000ff; stroke-width: 2"/>
   </g>
   <g id="patch_19">
    <path d="M 71.6375 658.588125 
L 71.6375 552.859375 
" style="fill: none; stroke: #000000; stroke-width: 0.8; stroke-linejoin: miter; stroke-linecap: square"/>
   </g>
   <g id="patch_20">
    <path d="M 1032.564189 658.588125 
L 1032.564189 552.859375 
" style="fill: none; stroke: #000000; stroke-width: 0.8; stroke-linejoin: miter; stroke-linecap: square"/>
   </g>
   <g id="patch_21">
    <path d="M 71.6375 658.588125 
L 1032.564189 658.588125 
" style="fill: none; stroke: #000000; stroke-width: 0.8; stroke-linejoin: miter; stroke-linecap: square"/>
   </g>
   <g id="patch_22">
    <path d="M 71.6375 552.859375 
L 1032.564189 552.859375 
" style="fill: none; stroke: #000000; stroke-width: 0.8; stroke-linejoin: miter; stroke-linecap: square"/>
   </g>
   <g id="text_47">
    <!-- 云函数ID: 165 -->
    <g transform="translate(487.100845 546.859375) scale(0.2 -0.2)">
     <defs>
      <path id="SimSun-36" d="M 775 1800 
Q 775 1050 1037 637 
Q 1300 225 1675 225 
Q 2050 225 2250 500 
Q 2450 775 2450 1525 
Q 2450 2025 2237 2300 
Q 2025 2575 1725 2575 
Q 1450 2575 1212 2412 
Q 975 2250 775 1800 
z
M 1750 2825 
Q 2350 2825 2612 2425 
Q 2875 2025 2875 1525 
Q 2875 775 2512 412 
Q 2150 50 1675 50 
Q 1000 50 650 562 
Q 300 1075 300 2050 
Q 300 3200 725 3812 
Q 1150 4425 1875 4425 
Q 2225 4425 2437 4225 
Q 2650 4025 2650 3875 
Q 2650 3725 2587 3650 
Q 2525 3575 2375 3575 
Q 2250 3575 2187 3637 
Q 2125 3700 2125 3825 
Q 2125 3875 2150 3925 
Q 2150 3975 2150 4025 
Q 2150 4125 2075 4187 
Q 2000 4250 1800 4250 
Q 1375 4250 1075 3862 
Q 775 3475 775 2175 
Q 925 2500 1187 2662 
Q 1450 2825 1750 2825 
z
" transform="scale(0.015625)"/>
     </defs>
     <use xlink:href="#SimSun-4e91"/>
     <use xlink:href="#SimSun-51fd" x="100"/>
     <use xlink:href="#SimSun-6570" x="200"/>
     <use xlink:href="#SimSun-49" x="300"/>
     <use xlink:href="#SimSun-44" x="350"/>
     <use xlink:href="#SimSun-3a" x="400"/>
     <use xlink:href="#SimSun-20" x="450"/>
     <use xlink:href="#SimSun-31" x="500"/>
     <use xlink:href="#SimSun-36" x="550"/>
     <use xlink:href="#SimSun-35" x="600"/>
    </g>
   </g>
  </g>
 </g>
 <defs>
  <clipPath id="pbf986f8801">
   <rect x="71.6375" y="29.059375" width="960.926689" height="105.72875"/>
  </clipPath>
  <clipPath id="pa7dfbbff7f">
   <rect x="71.6375" y="203.659375" width="960.926689" height="105.72875"/>
  </clipPath>
  <clipPath id="p65cd113316">
   <rect x="71.6375" y="378.259375" width="960.926689" height="105.72875"/>
  </clipPath>
  <clipPath id="p43347b3e76">
   <rect x="71.6375" y="552.859375" width="960.926689" height="105.72875"/>
  </clipPath>
 </defs>
</svg>
