<?xml version="1.0" encoding="utf-8" standalone="no"?>
<!DOCTYPE svg PUBLIC "-//W3C//DTD SVG 1.1//EN"
  "http://www.w3.org/Graphics/SVG/1.1/DTD/svg11.dtd">
<svg xmlns:xlink="http://www.w3.org/1999/xlink" width="1395.650264pt" height="1410.86625pt" viewBox="0 0 1395.650264 1410.86625" xmlns="http://www.w3.org/2000/svg" version="1.1">
 <metadata>
  <rdf:RDF xmlns:dc="http://purl.org/dc/elements/1.1/" xmlns:cc="http://creativecommons.org/ns#" xmlns:rdf="http://www.w3.org/1999/02/22-rdf-syntax-ns#">
   <cc:Work>
    <dc:type rdf:resource="http://purl.org/dc/dcmitype/StillImage"/>
    <dc:date>2024-02-27T20:24:00.263689</dc:date>
    <dc:format>image/svg+xml</dc:format>
    <dc:creator>
     <cc:Agent>
      <dc:title>Matplotlib v3.7.1, https://matplotlib.org/</dc:title>
     </cc:Agent>
    </dc:creator>
   </cc:Work>
  </rdf:RDF>
 </metadata>
 <defs>
  <style type="text/css">*{stroke-linejoin: round; stroke-linecap: butt}</style>
 </defs>
 <g id="figure_1">
  <g id="patch_1">
   <path d="M -0 1410.86625 
L 1395.650264 1410.86625 
L 1395.650264 0 
L -0 0 
z
" style="fill: #ffffff"/>
  </g>
  <g id="axes_1">
   <g id="patch_2">
    <path d="M 56.6375 243.780625 
L 1376.906466 243.780625 
L 1376.906466 27.340625 
L 56.6375 27.340625 
z
" style="fill: #ffffff"/>
   </g>
   <g id="matplotlib.axis_1">
    <g id="xtick_1">
     <g id="line2d_1">
      <defs>
       <path id="m1ba53d2dc3" d="M 0 0 
L 0 3.5 
" style="stroke: #000000; stroke-width: 0.8"/>
      </defs>
      <g>
       <use xlink:href="#m1ba53d2dc3" x="116.649726" y="243.780625" style="stroke: #000000; stroke-width: 0.8"/>
      </g>
     </g>
     <g id="text_1">
      <!-- 0 -->
      <g transform="translate(111.649726 264.668125) scale(0.2 -0.2)">
       <defs>
        <path id="TimesNewRomanPSMT-30" d="M 231 2094 
Q 231 2819 450 3342 
Q 669 3866 1031 4122 
Q 1313 4325 1613 4325 
Q 2100 4325 2488 3828 
Q 2972 3213 2972 2159 
Q 2972 1422 2759 906 
Q 2547 391 2217 158 
Q 1888 -75 1581 -75 
Q 975 -75 572 641 
Q 231 1244 231 2094 
z
M 844 2016 
Q 844 1141 1059 588 
Q 1238 122 1591 122 
Q 1759 122 1940 273 
Q 2122 425 2216 781 
Q 2359 1319 2359 2297 
Q 2359 3022 2209 3506 
Q 2097 3866 1919 4016 
Q 1791 4119 1609 4119 
Q 1397 4119 1231 3928 
Q 1006 3669 925 3112 
Q 844 2556 844 2016 
z
" transform="scale(0.015625)"/>
       </defs>
       <use xlink:href="#TimesNewRomanPSMT-30"/>
      </g>
     </g>
    </g>
    <g id="xtick_2">
     <g id="line2d_2">
      <g>
       <use xlink:href="#m1ba53d2dc3" x="273.749793" y="243.780625" style="stroke: #000000; stroke-width: 0.8"/>
      </g>
     </g>
     <g id="text_2">
      <!-- 25 -->
      <g transform="translate(263.749793 264.668125) scale(0.2 -0.2)">
       <defs>
        <path id="TimesNewRomanPSMT-32" d="M 2934 816 
L 2638 0 
L 138 0 
L 138 116 
Q 1241 1122 1691 1759 
Q 2141 2397 2141 2925 
Q 2141 3328 1894 3587 
Q 1647 3847 1303 3847 
Q 991 3847 742 3664 
Q 494 3481 375 3128 
L 259 3128 
Q 338 3706 661 4015 
Q 984 4325 1469 4325 
Q 1984 4325 2329 3994 
Q 2675 3663 2675 3213 
Q 2675 2891 2525 2569 
Q 2294 2063 1775 1497 
Q 997 647 803 472 
L 1909 472 
Q 2247 472 2383 497 
Q 2519 522 2628 598 
Q 2738 675 2819 816 
L 2934 816 
z
" transform="scale(0.015625)"/>
        <path id="TimesNewRomanPSMT-35" d="M 2778 4238 
L 2534 3706 
L 1259 3706 
L 981 3138 
Q 1809 3016 2294 2522 
Q 2709 2097 2709 1522 
Q 2709 1188 2573 903 
Q 2438 619 2231 419 
Q 2025 219 1772 97 
Q 1413 -75 1034 -75 
Q 653 -75 479 54 
Q 306 184 306 341 
Q 306 428 378 495 
Q 450 563 559 563 
Q 641 563 702 538 
Q 763 513 909 409 
Q 1144 247 1384 247 
Q 1750 247 2026 523 
Q 2303 800 2303 1197 
Q 2303 1581 2056 1914 
Q 1809 2247 1375 2428 
Q 1034 2569 447 2591 
L 1259 4238 
L 2778 4238 
z
" transform="scale(0.015625)"/>
       </defs>
       <use xlink:href="#TimesNewRomanPSMT-32"/>
       <use xlink:href="#TimesNewRomanPSMT-35" x="50"/>
      </g>
     </g>
    </g>
    <g id="xtick_3">
     <g id="line2d_3">
      <g>
       <use xlink:href="#m1ba53d2dc3" x="430.84986" y="243.780625" style="stroke: #000000; stroke-width: 0.8"/>
      </g>
     </g>
     <g id="text_3">
      <!-- 50 -->
      <g transform="translate(420.84986 264.668125) scale(0.2 -0.2)">
       <use xlink:href="#TimesNewRomanPSMT-35"/>
       <use xlink:href="#TimesNewRomanPSMT-30" x="50"/>
      </g>
     </g>
    </g>
    <g id="xtick_4">
     <g id="line2d_4">
      <g>
       <use xlink:href="#m1ba53d2dc3" x="587.949928" y="243.780625" style="stroke: #000000; stroke-width: 0.8"/>
      </g>
     </g>
     <g id="text_4">
      <!-- 75 -->
      <g transform="translate(577.949928 264.668125) scale(0.2 -0.2)">
       <defs>
        <path id="TimesNewRomanPSMT-37" d="M 644 4238 
L 2916 4238 
L 2916 4119 
L 1503 -88 
L 1153 -88 
L 2419 3728 
L 1253 3728 
Q 900 3728 750 3644 
Q 488 3500 328 3200 
L 238 3234 
L 644 4238 
z
" transform="scale(0.015625)"/>
       </defs>
       <use xlink:href="#TimesNewRomanPSMT-37"/>
       <use xlink:href="#TimesNewRomanPSMT-35" x="50"/>
      </g>
     </g>
    </g>
    <g id="xtick_5">
     <g id="line2d_5">
      <g>
       <use xlink:href="#m1ba53d2dc3" x="745.049995" y="243.780625" style="stroke: #000000; stroke-width: 0.8"/>
      </g>
     </g>
     <g id="text_5">
      <!-- 100 -->
      <g transform="translate(730.049995 264.668125) scale(0.2 -0.2)">
       <defs>
        <path id="TimesNewRomanPSMT-31" d="M 750 3822 
L 1781 4325 
L 1884 4325 
L 1884 747 
Q 1884 391 1914 303 
Q 1944 216 2037 169 
Q 2131 122 2419 116 
L 2419 0 
L 825 0 
L 825 116 
Q 1125 122 1212 167 
Q 1300 213 1334 289 
Q 1369 366 1369 747 
L 1369 3034 
Q 1369 3497 1338 3628 
Q 1316 3728 1258 3775 
Q 1200 3822 1119 3822 
Q 1003 3822 797 3725 
L 750 3822 
z
" transform="scale(0.015625)"/>
       </defs>
       <use xlink:href="#TimesNewRomanPSMT-31"/>
       <use xlink:href="#TimesNewRomanPSMT-30" x="50"/>
       <use xlink:href="#TimesNewRomanPSMT-30" x="100"/>
      </g>
     </g>
    </g>
    <g id="xtick_6">
     <g id="line2d_6">
      <g>
       <use xlink:href="#m1ba53d2dc3" x="902.150062" y="243.780625" style="stroke: #000000; stroke-width: 0.8"/>
      </g>
     </g>
     <g id="text_6">
      <!-- 125 -->
      <g transform="translate(887.150062 264.668125) scale(0.2 -0.2)">
       <use xlink:href="#TimesNewRomanPSMT-31"/>
       <use xlink:href="#TimesNewRomanPSMT-32" x="50"/>
       <use xlink:href="#TimesNewRomanPSMT-35" x="100"/>
      </g>
     </g>
    </g>
    <g id="xtick_7">
     <g id="line2d_7">
      <g>
       <use xlink:href="#m1ba53d2dc3" x="1059.25013" y="243.780625" style="stroke: #000000; stroke-width: 0.8"/>
      </g>
     </g>
     <g id="text_7">
      <!-- 150 -->
      <g transform="translate(1044.25013 264.668125) scale(0.2 -0.2)">
       <use xlink:href="#TimesNewRomanPSMT-31"/>
       <use xlink:href="#TimesNewRomanPSMT-35" x="50"/>
       <use xlink:href="#TimesNewRomanPSMT-30" x="100"/>
      </g>
     </g>
    </g>
    <g id="xtick_8">
     <g id="line2d_8">
      <g>
       <use xlink:href="#m1ba53d2dc3" x="1216.350197" y="243.780625" style="stroke: #000000; stroke-width: 0.8"/>
      </g>
     </g>
     <g id="text_8">
      <!-- 175 -->
      <g transform="translate(1201.350197 264.668125) scale(0.2 -0.2)">
       <use xlink:href="#TimesNewRomanPSMT-31"/>
       <use xlink:href="#TimesNewRomanPSMT-37" x="50"/>
       <use xlink:href="#TimesNewRomanPSMT-35" x="100"/>
      </g>
     </g>
    </g>
    <g id="xtick_9">
     <g id="line2d_9">
      <g>
       <use xlink:href="#m1ba53d2dc3" x="1373.450264" y="243.780625" style="stroke: #000000; stroke-width: 0.8"/>
      </g>
     </g>
     <g id="text_9">
      <!-- 200 -->
      <g transform="translate(1358.450264 264.668125) scale(0.2 -0.2)">
       <use xlink:href="#TimesNewRomanPSMT-32"/>
       <use xlink:href="#TimesNewRomanPSMT-30" x="50"/>
       <use xlink:href="#TimesNewRomanPSMT-30" x="100"/>
      </g>
     </g>
    </g>
   </g>
   <g id="matplotlib.axis_2">
    <g id="ytick_1">
     <g id="line2d_10">
      <defs>
       <path id="mae5fdd3ff3" d="M 0 0 
L -3.5 0 
" style="stroke: #000000; stroke-width: 0.8"/>
      </defs>
      <g>
       <use xlink:href="#mae5fdd3ff3" x="56.6375" y="235.665919" style="stroke: #000000; stroke-width: 0.8"/>
      </g>
     </g>
     <g id="text_10">
      <!-- 2 -->
      <g transform="translate(39.6375 242.609669) scale(0.2 -0.2)">
       <use xlink:href="#TimesNewRomanPSMT-32"/>
      </g>
     </g>
    </g>
    <g id="ytick_2">
     <g id="line2d_11">
      <g>
       <use xlink:href="#mae5fdd3ff3" x="56.6375" y="178.216681" style="stroke: #000000; stroke-width: 0.8"/>
      </g>
     </g>
     <g id="text_11">
      <!-- 4 -->
      <g transform="translate(39.6375 185.160431) scale(0.2 -0.2)">
       <defs>
        <path id="TimesNewRomanPSMT-34" d="M 2978 1563 
L 2978 1119 
L 2409 1119 
L 2409 0 
L 1894 0 
L 1894 1119 
L 100 1119 
L 100 1519 
L 2066 4325 
L 2409 4325 
L 2409 1563 
L 2978 1563 
z
M 1894 1563 
L 1894 3666 
L 406 1563 
L 1894 1563 
z
" transform="scale(0.015625)"/>
       </defs>
       <use xlink:href="#TimesNewRomanPSMT-34"/>
      </g>
     </g>
    </g>
    <g id="ytick_3">
     <g id="line2d_12">
      <g>
       <use xlink:href="#mae5fdd3ff3" x="56.6375" y="120.767443" style="stroke: #000000; stroke-width: 0.8"/>
      </g>
     </g>
     <g id="text_12">
      <!-- 6 -->
      <g transform="translate(39.6375 127.711193) scale(0.2 -0.2)">
       <defs>
        <path id="TimesNewRomanPSMT-36" d="M 2869 4325 
L 2869 4209 
Q 2456 4169 2195 4045 
Q 1934 3922 1679 3669 
Q 1425 3416 1258 3105 
Q 1091 2794 978 2366 
Q 1428 2675 1881 2675 
Q 2316 2675 2634 2325 
Q 2953 1975 2953 1425 
Q 2953 894 2631 456 
Q 2244 -75 1606 -75 
Q 1172 -75 869 213 
Q 275 772 275 1663 
Q 275 2231 503 2743 
Q 731 3256 1154 3653 
Q 1578 4050 1965 4187 
Q 2353 4325 2688 4325 
L 2869 4325 
z
M 925 2138 
Q 869 1716 869 1456 
Q 869 1156 980 804 
Q 1091 453 1309 247 
Q 1469 100 1697 100 
Q 1969 100 2183 356 
Q 2397 613 2397 1088 
Q 2397 1622 2184 2012 
Q 1972 2403 1581 2403 
Q 1463 2403 1327 2353 
Q 1191 2303 925 2138 
z
" transform="scale(0.015625)"/>
       </defs>
       <use xlink:href="#TimesNewRomanPSMT-36"/>
      </g>
     </g>
    </g>
    <g id="ytick_4">
     <g id="line2d_13">
      <g>
       <use xlink:href="#mae5fdd3ff3" x="56.6375" y="63.318206" style="stroke: #000000; stroke-width: 0.8"/>
      </g>
     </g>
     <g id="text_13">
      <!-- 8 -->
      <g transform="translate(39.6375 70.261956) scale(0.2 -0.2)">
       <defs>
        <path id="TimesNewRomanPSMT-38" d="M 1228 2134 
Q 725 2547 579 2797 
Q 434 3047 434 3316 
Q 434 3728 753 4026 
Q 1072 4325 1600 4325 
Q 2113 4325 2425 4047 
Q 2738 3769 2738 3413 
Q 2738 3175 2569 2928 
Q 2400 2681 1866 2347 
Q 2416 1922 2594 1678 
Q 2831 1359 2831 1006 
Q 2831 559 2490 242 
Q 2150 -75 1597 -75 
Q 994 -75 656 303 
Q 388 606 388 966 
Q 388 1247 577 1523 
Q 766 1800 1228 2134 
z
M 1719 2469 
Q 2094 2806 2194 3001 
Q 2294 3197 2294 3444 
Q 2294 3772 2109 3958 
Q 1925 4144 1606 4144 
Q 1288 4144 1088 3959 
Q 888 3775 888 3528 
Q 888 3366 970 3203 
Q 1053 3041 1206 2894 
L 1719 2469 
z
M 1375 2016 
Q 1116 1797 991 1539 
Q 866 1281 866 981 
Q 866 578 1086 336 
Q 1306 94 1647 94 
Q 1984 94 2187 284 
Q 2391 475 2391 747 
Q 2391 972 2272 1150 
Q 2050 1481 1375 2016 
z
" transform="scale(0.015625)"/>
       </defs>
       <use xlink:href="#TimesNewRomanPSMT-38"/>
      </g>
     </g>
    </g>
    <g id="text_14">
     <!-- CPU使用率 -->
     <g transform="translate(33.059375 180.560625) rotate(-90) scale(0.2 -0.2)">
      <defs>
       <path id="SimSun-43" d="M 1725 50 
Q 1025 50 612 575 
Q 200 1100 200 2225 
Q 200 3175 637 3800 
Q 1075 4425 1825 4425 
Q 2000 4425 2175 4375 
Q 2350 4300 2475 4300 
Q 2575 4300 2637 4325 
Q 2700 4350 2750 4425 
L 2975 3325 
L 2825 3275 
Q 2675 3750 2425 4000 
Q 2175 4250 1775 4250 
Q 1250 4250 962 3675 
Q 675 3100 675 2250 
Q 675 1325 925 800 
Q 1175 275 1750 275 
Q 2150 275 2437 562 
Q 2725 850 2825 1325 
L 2975 1250 
Q 2850 725 2512 387 
Q 2175 50 1725 50 
z
" transform="scale(0.015625)"/>
       <path id="SimSun-50" d="M 950 2100 
L 950 450 
Q 950 350 1012 300 
Q 1075 250 1175 250 
L 1350 250 
L 1350 100 
L 150 100 
L 150 250 
L 325 250 
Q 450 250 500 300 
Q 550 350 550 450 
L 550 4025 
Q 550 4125 500 4175 
Q 450 4225 325 4225 
L 175 4225 
L 175 4375 
L 1650 4375 
Q 2275 4375 2612 4062 
Q 2950 3750 2950 3275 
Q 2950 2700 2587 2400 
Q 2225 2100 1725 2100 
L 950 2100 
z
M 1575 2250 
Q 1950 2250 2237 2475 
Q 2525 2700 2525 3250 
Q 2525 3750 2287 3987 
Q 2050 4225 1525 4225 
L 1175 4225 
Q 1075 4225 1012 4175 
Q 950 4125 950 4025 
L 950 2250 
L 1575 2250 
z
" transform="scale(0.015625)"/>
       <path id="SimSun-55" d="M 1625 250 
Q 2000 250 2262 500 
Q 2525 750 2525 1125 
L 2525 4025 
Q 2525 4125 2475 4175 
Q 2425 4225 2300 4225 
L 2150 4225 
L 2150 4375 
L 3050 4375 
L 3050 4225 
L 2900 4225 
Q 2800 4225 2737 4175 
Q 2675 4125 2675 4025 
L 2675 1125 
Q 2675 625 2337 337 
Q 2000 50 1575 50 
Q 1125 50 787 300 
Q 450 550 450 1100 
L 450 4025 
Q 450 4125 400 4175 
Q 350 4225 225 4225 
L 100 4225 
L 100 4375 
L 1200 4375 
L 1200 4225 
L 1075 4225 
Q 975 4225 912 4175 
Q 850 4125 850 4025 
L 850 1100 
Q 850 600 1062 425 
Q 1275 250 1625 250 
z
" transform="scale(0.015625)"/>
       <path id="SimSun-4f7f" d="M 2875 3150 
L 2875 2100 
L 3825 2100 
Q 3850 2825 3850 3150 
L 2875 3150 
z
M 4175 3150 
Q 4175 2800 4150 2100 
L 5150 2100 
L 5150 3150 
L 4175 3150 
z
M 5475 3100 
L 5475 2425 
Q 5475 2100 5500 1800 
L 5150 1675 
L 5150 1950 
L 4150 1950 
Q 4125 1175 3875 600 
Q 4275 275 4875 75 
Q 5475 -125 6075 -150 
L 6075 -250 
Q 5700 -300 5600 -575 
Q 4525 -325 3725 350 
Q 3425 25 2925 -225 
Q 2425 -475 1875 -650 
L 1825 -550 
Q 2400 -325 2850 -25 
Q 3300 275 3500 575 
Q 3200 925 2825 1650 
L 2900 1700 
Q 3325 1100 3625 825 
Q 3800 1300 3825 1950 
L 2875 1950 
L 2875 1825 
L 2525 1675 
Q 2550 2075 2550 2562 
Q 2550 3050 2525 3500 
L 2875 3300 
L 3850 3300 
L 3850 4025 
L 2975 4025 
Q 2650 4025 2375 3950 
L 2150 4175 
L 3850 4175 
L 3850 4525 
Q 3850 4775 3825 5225 
L 4350 5000 
L 4175 4825 
L 4175 4175 
L 5300 4175 
L 5600 4475 
L 6050 4025 
L 4175 4025 
L 4175 3300 
L 5100 3300 
L 5275 3525 
L 5650 3225 
L 5475 3100 
z
M 1675 3175 
L 1675 -450 
L 1325 -625 
Q 1350 -75 1350 350 
L 1350 3200 
Q 900 2475 350 1900 
L 275 1950 
Q 700 2525 1112 3400 
Q 1525 4275 1800 5250 
L 2325 4925 
L 2125 4800 
Q 1725 3925 1500 3525 
L 1875 3325 
L 1675 3175 
z
" transform="scale(0.015625)"/>
       <path id="SimSun-7528" d="M 3400 3150 
L 3400 1825 
L 5075 1825 
L 5075 3150 
L 3400 3150 
z
M 4075 100 
Q 4725 50 4900 62 
Q 5075 75 5075 400 
L 5075 1675 
L 3400 1675 
Q 3400 75 3425 -225 
L 3050 -400 
Q 3075 1025 3075 1675 
L 1425 1675 
Q 1250 350 375 -600 
L 300 -550 
Q 775 225 950 1025 
Q 1125 1825 1125 3225 
Q 1125 4625 1100 5075 
L 1475 4825 
L 5050 4825 
L 5225 5100 
L 5625 4800 
L 5425 4600 
L 5425 225 
Q 5450 -400 4875 -575 
Q 4825 -150 4075 -25 
L 4075 100 
z
M 1475 4675 
L 1475 3300 
L 3075 3300 
L 3075 4675 
L 1475 4675 
z
M 3400 4675 
L 3400 3300 
L 5075 3300 
L 5075 4675 
L 3400 4675 
z
M 1475 3150 
Q 1450 2100 1425 1825 
L 3075 1825 
L 3075 3150 
L 1475 3150 
z
" transform="scale(0.015625)"/>
       <path id="SimSun-7387" d="M 875 3725 
L 925 3800 
Q 1375 3650 1550 3525 
Q 1725 3400 1725 3250 
Q 1725 3175 1662 3025 
Q 1600 2875 1550 2875 
Q 1500 2875 1425 3050 
Q 1275 3325 875 3725 
z
M 550 1850 
Q 875 1925 2000 2575 
L 2050 2500 
Q 1675 2225 1337 1937 
Q 1000 1650 875 1425 
L 550 1850 
z
M 5200 3450 
Q 4800 3150 4275 2800 
L 4225 2875 
Q 4775 3400 5050 3925 
L 5450 3525 
L 5200 3450 
z
M 4325 2500 
L 4350 2575 
Q 5225 2350 5375 2212 
Q 5525 2075 5525 1900 
Q 5525 1775 5487 1662 
Q 5450 1550 5400 1550 
Q 5325 1550 5200 1800 
Q 4975 2150 4325 2500 
z
M 3150 3900 
Q 2500 3300 2300 3150 
Q 2800 3150 3400 3175 
Q 3700 3500 3850 3825 
L 4250 3450 
Q 4050 3400 3450 2825 
Q 2850 2250 2475 1950 
Q 3150 1975 3850 2000 
Q 3750 2175 3550 2450 
L 3600 2500 
Q 4050 2250 4200 2100 
Q 4350 1950 4350 1850 
Q 4350 1775 4250 1625 
Q 4150 1475 4100 1475 
Q 4075 1475 4050 1550 
Q 4000 1700 3900 1900 
Q 3650 1875 3075 1800 
L 3500 1550 
L 3325 1425 
L 3325 975 
L 5325 975 
L 5650 1300 
L 6100 825 
L 3325 825 
Q 3325 -275 3350 -525 
L 2975 -650 
Q 3000 0 3000 825 
L 1125 825 
Q 800 825 525 750 
L 300 975 
L 3000 975 
L 3000 1775 
Q 2450 1700 2200 1525 
L 1950 1950 
Q 2275 1950 2675 2350 
Q 3075 2750 3325 3050 
Q 2400 2950 2150 2775 
L 1950 3175 
Q 2150 3150 2475 3575 
Q 2800 4000 2900 4225 
L 1450 4225 
Q 1125 4225 850 4150 
L 625 4375 
L 3100 4375 
Q 3050 4800 2675 5200 
L 2725 5250 
Q 3225 5050 3337 4912 
Q 3450 4775 3450 4700 
Q 3450 4550 3250 4375 
L 5025 4375 
L 5350 4675 
L 5775 4225 
L 3050 4225 
L 3375 3950 
L 3150 3900 
z
" transform="scale(0.015625)"/>
      </defs>
      <use xlink:href="#SimSun-43"/>
      <use xlink:href="#SimSun-50" x="50"/>
      <use xlink:href="#SimSun-55" x="100"/>
      <use xlink:href="#SimSun-4f7f" x="150"/>
      <use xlink:href="#SimSun-7528" x="250"/>
      <use xlink:href="#SimSun-7387" x="350"/>
     </g>
    </g>
   </g>
   <g id="line2d_14">
    <path d="M 116.649726 233.942443 
L 122.933728 220.441865 
L 129.217731 213.835209 
L 135.501734 181.663639 
L 141.785737 179.940156 
L 148.069739 193.440728 
L 154.353742 214.4097 
L 160.637745 210.675497 
L 166.921747 165.8651 
L 173.20575 186.259573 
L 179.489753 210.962743 
L 185.773755 194.589719 
L 192.057758 200.909129 
L 198.341761 203.781588 
L 204.625763 219.86738 
L 210.909766 127.086853 
L 217.193769 167.014083 
L 223.477772 144.034383 
L 229.761774 117.894984 
L 236.045777 90.606602 
L 242.32978 148.91757 
L 248.613782 177.929442 
L 254.897785 163.567119 
L 261.181788 185.397836 
L 267.46579 196.025948 
L 273.749793 187.121311 
L 280.033796 197.174932 
L 286.317798 230.782731 
L 292.601801 175.631461 
L 298.885804 191.430007 
L 305.169807 98.649487 
L 311.453809 152.651774 
L 317.737812 194.302466 
L 324.021815 200.621883 
L 330.305817 160.69466 
L 336.58982 183.67436 
L 342.873823 209.813759 
L 349.157825 194.01522 
L 355.441828 185.972328 
L 361.725831 182.238131 
L 368.009833 208.952021 
L 374.293836 207.803038 
L 380.577839 221.878101 
L 386.861842 214.4097 
L 393.145844 210.675497 
L 399.429847 165.577847 
L 405.71385 186.259573 
L 411.997852 139.151196 
L 418.281855 173.046255 
L 424.565858 204.356087 
L 430.84986 191.430007 
L 437.133863 213.547963 
L 443.417866 224.463314 
L 449.701868 230.208239 
L 455.985871 218.43115 
L 462.269874 212.686225 
L 468.553877 209.813759 
L 474.837879 194.01522 
L 481.121882 200.621883 
L 487.405885 218.143897 
L 493.689887 212.398979 
L 499.97389 224.176075 
L 506.257893 215.558684 
L 512.541895 225.612305 
L 518.825898 216.133176 
L 525.109901 225.899544 
L 531.393904 216.420422 
L 537.677906 226.18679 
L 543.961909 216.420422 
L 550.245912 154.37525 
L 556.529914 151.790029 
L 562.813917 179.365665 
L 569.09792 207.515792 
L 575.381922 207.228546 
L 581.665925 221.590855 
L 587.949928 185.397836 
L 594.23393 181.950878 
L 600.517933 208.664775 
L 606.801936 207.803038 
L 613.085939 135.704245 
L 619.369941 171.322765 
L 625.653944 203.494342 
L 631.937947 75.95704 
L 638.221949 155.811472 
L 644.505952 181.376386 
L 650.789955 179.652911 
L 657.073957 179.078419 
L 663.35796 106.692373 
L 669.641963 113.873528 
L 675.925965 88.595873 
L 682.209968 119.043968 
L 688.493971 91.18108 
L 694.777974 148.91757 
L 701.061976 163.567119 
L 707.345979 113.586289 
L 713.629982 131.395549 
L 719.913984 154.949741 
L 726.197987 180.801894 
L 732.48199 165.290608 
L 738.765992 200.334637 
L 745.049995 175.056969 
L 751.333998 205.217824 
L 757.618 206.079562 
L 763.902003 221.016363 
L 770.186006 213.835209 
L 776.470009 210.388251 
L 782.754011 93.7663 
L 789.038014 179.078419 
L 795.322017 193.153482 
L 801.606019 171.322765 
L 807.890022 160.407421 
L 814.174025 183.67436 
L 820.458027 195.164204 
L 826.74203 215.558684 
L 833.026033 211.249995 
L 839.310036 208.952021 
L 845.594038 222.452593 
L 851.878041 214.696946 
L 858.162044 225.037806 
L 864.446046 216.133176 
L 870.730049 225.899544 
L 877.014052 216.420422 
L 883.298054 225.899544 
L 889.582057 216.420422 
L 895.86606 211.82448 
L 902.150062 223.601577 
L 908.434065 229.633748 
L 914.718068 218.43115 
L 921.002071 198.323916 
L 927.286073 216.994914 
L 933.570076 226.18679 
L 939.854079 231.069977 
L 946.138081 219.005635 
L 952.422084 98.074995 
L 958.706087 181.089147 
L 964.990089 165.290608 
L 971.274092 143.172652 
L 977.558095 189.419285 
L 983.842097 212.398979 
L 990.1261 181.089147 
L 996.410103 194.01522 
L 1002.694106 185.972328 
L 1008.978108 124.788886 
L 1015.262111 122.778172 
L 1021.546114 150.353807 
L 1027.830116 193.153482 
L 1034.114119 200.047391 
L 1040.398122 160.407421 
L 1046.682124 169.312051 
L 1052.966127 101.809199 
L 1059.25013 96.926012 
L 1065.534132 37.178807 
L 1071.818135 107.554118 
L 1078.102138 128.52309 
L 1084.386141 153.513505 
L 1090.670143 194.589719 
L 1096.954146 171.897271 
L 1103.238149 131.970041 
L 1109.522151 169.59929 
L 1115.806154 145.183367 
L 1122.090157 147.194095 
L 1128.374159 177.067697 
L 1134.658162 177.642189 
L 1140.942165 163.567119 
L 1147.226168 199.760145 
L 1153.51017 188.844794 
L 1159.794173 198.03667 
L 1166.078176 216.707668 
L 1172.362178 211.82448 
L 1178.646181 195.164204 
L 1184.930184 186.546819 
L 1191.214186 125.076139 
L 1197.498189 180.227402 
L 1203.782192 193.727974 
L 1210.066194 214.696946 
L 1216.350197 210.675497 
L 1222.6342 208.952021 
L 1228.918203 193.440728 
L 1235.202205 185.972328 
L 1241.486208 196.313187 
L 1247.770211 187.408564 
L 1254.054213 197.174932 
L 1260.338216 216.420422 
L 1266.622219 225.899544 
L 1272.906221 216.420422 
L 1279.190224 226.18679 
L 1285.474227 230.782731 
L 1291.758229 233.367945 
L 1298.042232 220.154626 
L 1304.326235 213.547963 
L 1310.610238 66.477917 
L 1316.89424 136.853228 
L 1316.89424 136.853228 
" clip-path="url(#p0239578350)" style="fill: none; stroke: #1f77b4; stroke-width: 1.5; stroke-linecap: square"/>
   </g>
   <g id="line2d_15">
    <path d="M 1021.546114 123.151701 
L 1027.830116 127.083005 
L 1034.114119 123.309792 
L 1040.398122 130.611562 
L 1046.682124 138.448692 
L 1052.966127 149.648523 
L 1059.25013 145.333924 
L 1065.534132 149.725458 
L 1071.818135 148.348817 
L 1078.102138 153.56932 
L 1084.386141 160.844998 
L 1090.670143 161.928962 
L 1096.954146 163.621194 
L 1103.238149 168.942986 
L 1109.522151 171.017734 
L 1115.806154 169.728932 
L 1122.090157 178.381599 
L 1128.374159 185.035921 
L 1134.658162 181.927572 
L 1140.942165 185.25686 
L 1147.226168 184.284964 
L 1153.51017 194.070453 
L 1159.794173 196.110746 
L 1166.078176 191.038308 
L 1172.362178 200.450404 
L 1178.646181 199.771212 
L 1184.930184 199.241927 
L 1191.214186 200.715461 
L 1197.498189 198.566783 
L 1203.782192 203.436938 
L 1210.066194 204.400492 
L 1216.350197 207.446752 
L 1222.6342 204.490961 
L 1228.918203 204.164589 
L 1235.202205 208.552652 
L 1241.486208 210.189343 
L 1247.770211 216.858807 
L 1254.054213 217.986286 
L 1260.338216 214.823267 
L 1266.622219 215.48772 
L 1272.906221 211.702536 
L 1279.190224 211.466339 
L 1285.474227 216.028291 
L 1291.758229 211.102732 
L 1298.042232 214.941191 
L 1304.326235 211.237894 
L 1310.610238 202.881211 
L 1316.89424 197.688349 
" clip-path="url(#p0239578350)" style="fill: none; stroke: #ff7f0e; stroke-width: 1.5; stroke-linecap: square"/>
   </g>
   <g id="line2d_16">
    <path d="M 1021.546114 243.780625 
L 1021.546114 27.340625 
" clip-path="url(#p0239578350)" style="fill: none; stroke-dasharray: 7.4,3.2; stroke-dashoffset: 0; stroke: #0000ff; stroke-width: 2"/>
   </g>
   <g id="patch_3">
    <path d="M 56.6375 243.780625 
L 56.6375 27.340625 
" style="fill: none; stroke: #000000; stroke-width: 0.8; stroke-linejoin: miter; stroke-linecap: square"/>
   </g>
   <g id="patch_4">
    <path d="M 1376.906466 243.780625 
L 1376.906466 27.340625 
" style="fill: none; stroke: #000000; stroke-width: 0.8; stroke-linejoin: miter; stroke-linecap: square"/>
   </g>
   <g id="patch_5">
    <path d="M 56.6375 243.780625 
L 1376.906466 243.780625 
" style="fill: none; stroke: #000000; stroke-width: 0.8; stroke-linejoin: miter; stroke-linecap: square"/>
   </g>
   <g id="patch_6">
    <path d="M 56.6375 27.340625 
L 1376.906466 27.340625 
" style="fill: none; stroke: #000000; stroke-width: 0.8; stroke-linejoin: miter; stroke-linecap: square"/>
   </g>
   <g id="text_15">
    <!-- API_ID: 2 -->
    <g transform="translate(671.771983 21.340625) scale(0.2 -0.2)">
     <defs>
      <path id="SimSun-41" d="M 2025 1700 
L 900 1700 
L 675 750 
Q 650 625 650 550 
Q 650 450 687 350 
Q 725 250 900 250 
L 975 250 
L 975 100 
L 50 100 
L 50 250 
L 125 250 
Q 225 250 300 312 
Q 375 375 400 525 
L 1375 4350 
L 1750 4475 
L 2700 525 
Q 2750 375 2825 312 
Q 2900 250 3000 250 
L 3075 250 
L 3075 100 
L 2000 100 
L 2000 250 
L 2100 250 
Q 2250 250 2275 312 
Q 2300 375 2300 425 
Q 2300 525 2275 600 
L 2025 1700 
z
M 325 250 
L 325 250 
z
M 575 250 
L 575 250 
z
M 2350 250 
L 2350 250 
z
M 2775 250 
L 2775 250 
z
M 1500 3925 
L 1475 3925 
L 950 1850 
L 2000 1850 
L 1500 3925 
z
" transform="scale(0.015625)"/>
      <path id="SimSun-49" d="M 600 4225 
L 600 4375 
L 2600 4375 
L 2600 4225 
L 2025 4225 
Q 1925 4225 1862 4175 
Q 1800 4125 1800 4025 
L 1800 450 
Q 1800 350 1862 300 
Q 1925 250 2025 250 
L 2600 250 
L 2600 100 
L 600 100 
L 600 250 
L 1175 250 
Q 1300 250 1350 300 
Q 1400 350 1400 450 
L 1400 4025 
Q 1400 4125 1350 4175 
Q 1300 4225 1175 4225 
L 600 4225 
z
" transform="scale(0.015625)"/>
      <path id="SimSun-5f" d="M 0 -875 
L 0 -725 
L 3175 -725 
L 3175 -875 
L 0 -875 
z
" transform="scale(0.015625)"/>
      <path id="SimSun-44" d="M 2500 2275 
Q 2500 3350 2175 3787 
Q 1850 4225 1275 4225 
Q 1100 4225 1012 4175 
Q 925 4125 925 4025 
L 925 450 
Q 925 350 1000 300 
Q 1075 250 1200 250 
Q 1750 250 2125 662 
Q 2500 1075 2500 2275 
z
M 525 4025 
Q 525 4125 475 4175 
Q 425 4225 300 4225 
L 150 4225 
L 150 4375 
L 1275 4375 
Q 2050 4375 2512 3875 
Q 2975 3375 2975 2325 
Q 2975 1175 2525 637 
Q 2075 100 1200 100 
L 125 100 
L 125 250 
L 300 250 
Q 425 250 475 300 
Q 525 350 525 450 
L 525 4025 
z
" transform="scale(0.015625)"/>
      <path id="SimSun-3a" d="M 1900 2725 
Q 1900 2575 1800 2475 
Q 1700 2375 1550 2375 
Q 1400 2375 1300 2475 
Q 1200 2575 1200 2725 
Q 1200 2875 1300 2975 
Q 1400 3075 1550 3075 
Q 1700 3075 1800 2975 
Q 1900 2875 1900 2725 
z
M 1900 375 
Q 1900 225 1800 125 
Q 1700 25 1550 25 
Q 1400 25 1300 125 
Q 1200 225 1200 375 
Q 1200 525 1300 625 
Q 1400 725 1550 725 
Q 1700 725 1800 625 
Q 1900 525 1900 375 
z
" transform="scale(0.015625)"/>
      <path id="SimSun-20" d="M 0 0 
Q 0 0 0 0 
z
" transform="scale(0.015625)"/>
      <path id="SimSun-32" d="M 2325 3325 
Q 2325 3775 2125 4012 
Q 1925 4250 1525 4250 
Q 1225 4250 1012 4087 
Q 800 3925 800 3675 
Q 800 3525 900 3425 
Q 975 3325 975 3225 
Q 975 3100 912 3037 
Q 850 2975 725 2975 
Q 575 2975 487 3062 
Q 400 3150 400 3350 
Q 400 3875 775 4150 
Q 1150 4425 1575 4425 
Q 2175 4425 2462 4125 
Q 2750 3825 2750 3375 
Q 2750 3075 2612 2775 
Q 2475 2475 2175 2200 
Q 1450 1500 1062 1062 
Q 675 625 600 475 
L 2075 475 
Q 2300 475 2450 650 
Q 2600 825 2650 1175 
L 2800 1175 
L 2650 100 
L 325 100 
L 325 425 
Q 450 650 737 1000 
Q 1025 1350 1500 1825 
Q 1925 2250 2125 2625 
Q 2325 3000 2325 3325 
z
" transform="scale(0.015625)"/>
     </defs>
     <use xlink:href="#SimSun-41"/>
     <use xlink:href="#SimSun-50" x="50"/>
     <use xlink:href="#SimSun-49" x="100"/>
     <use xlink:href="#SimSun-5f" x="150"/>
     <use xlink:href="#SimSun-49" x="200"/>
     <use xlink:href="#SimSun-44" x="250"/>
     <use xlink:href="#SimSun-3a" x="300"/>
     <use xlink:href="#SimSun-20" x="350"/>
     <use xlink:href="#SimSun-32" x="400"/>
    </g>
   </g>
   <g id="legend_1">
    <g id="patch_7">
     <path d="M 70.6375 100.215625 
L 194.6375 100.215625 
Q 198.6375 100.215625 198.6375 96.215625 
L 198.6375 41.340625 
Q 198.6375 37.340625 194.6375 37.340625 
L 70.6375 37.340625 
Q 66.6375 37.340625 66.6375 41.340625 
L 66.6375 96.215625 
Q 66.6375 100.215625 70.6375 100.215625 
z
" style="fill: #ffffff; opacity: 0.8; stroke: #cccccc; stroke-linejoin: miter"/>
    </g>
    <g id="line2d_17">
     <path d="M 74.6375 54.278125 
L 94.6375 54.278125 
L 114.6375 54.278125 
" style="fill: none; stroke: #1f77b4; stroke-width: 1.5; stroke-linecap: square"/>
    </g>
    <g id="text_16">
     <!-- 真实值 -->
     <g transform="translate(130.6375 61.278125) scale(0.2 -0.2)">
      <defs>
       <path id="SimSun-771f" d="M 2050 3450 
L 2050 2900 
L 4300 2900 
L 4300 3450 
L 2050 3450 
z
M 2050 2750 
L 2050 2225 
L 4300 2225 
L 4300 2750 
L 2050 2750 
z
M 2050 2075 
L 2050 1550 
L 4300 1550 
L 4300 2075 
L 2050 2075 
z
M 2050 1400 
L 2050 875 
L 4300 875 
L 4300 1400 
L 2050 1400 
z
M 2875 3600 
L 2925 4325 
L 1525 4325 
Q 1200 4325 925 4250 
L 700 4475 
L 2950 4475 
Q 2975 4825 2975 5275 
L 3550 5025 
L 3375 4925 
L 3300 4475 
L 5000 4475 
L 5325 4825 
L 5775 4325 
L 3275 4325 
L 3200 3600 
L 4275 3600 
L 4450 3875 
L 4850 3575 
L 4650 3375 
L 4650 875 
L 5300 875 
L 5675 1225 
L 6125 725 
L 1150 725 
Q 825 725 550 650 
L 325 875 
L 1700 875 
Q 1700 3200 1675 3775 
L 2050 3600 
L 2875 3600 
z
M 2425 725 
L 2825 350 
L 2575 300 
Q 1500 -425 800 -650 
L 775 -575 
Q 1950 125 2425 725 
z
M 3800 700 
Q 4575 375 4962 200 
Q 5350 25 5400 -112 
Q 5450 -250 5450 -325 
Q 5450 -400 5400 -525 
Q 5350 -650 5325 -650 
Q 5250 -650 5100 -450 
Q 4875 -150 3750 625 
L 3800 700 
z
" transform="scale(0.015625)"/>
       <path id="SimSun-5b9e" d="M 1950 3625 
Q 2575 3400 2700 3250 
Q 2825 3100 2825 2975 
Q 2825 2850 2750 2700 
Q 2675 2550 2625 2550 
Q 2550 2550 2450 2800 
Q 2275 3175 1900 3550 
L 1950 3625 
z
M 3575 1325 
Q 3500 1100 3425 925 
Q 4650 550 5087 325 
Q 5525 100 5512 -225 
Q 5500 -550 5400 -550 
Q 5300 -550 5075 -300 
Q 4625 175 3375 800 
Q 3025 175 2300 -150 
Q 1575 -475 425 -625 
L 425 -525 
Q 1475 -325 2200 100 
Q 2925 525 3200 1325 
L 1225 1325 
Q 900 1325 625 1250 
L 400 1475 
L 3225 1475 
Q 3325 1950 3375 2575 
Q 3425 3200 3425 3700 
L 4050 3400 
L 3850 3225 
Q 3750 2300 3625 1475 
L 5175 1475 
L 5550 1850 
L 6075 1325 
L 3575 1325 
z
M 1275 2700 
Q 1975 2425 2100 2262 
Q 2225 2100 2225 1975 
Q 2225 1850 2150 1700 
Q 2075 1550 2025 1550 
Q 1950 1550 1850 1800 
Q 1675 2175 1225 2625 
L 1275 2700 
z
M 2750 5225 
L 2825 5275 
Q 3225 5100 3425 4925 
Q 3625 4750 3625 4600 
Q 3625 4450 3512 4300 
Q 3400 4150 3325 4150 
Q 3250 4150 3200 4400 
Q 3100 4775 2750 5225 
z
M 4975 3225 
L 5350 3925 
L 1175 3925 
Q 1225 3525 1125 3300 
Q 1025 3075 787 3100 
Q 550 3125 550 3200 
Q 550 3300 700 3475 
Q 975 3825 1050 4375 
L 1150 4375 
L 1175 4075 
L 5300 4075 
L 5575 4350 
L 6050 3800 
Q 5625 3825 5050 3175 
L 4975 3225 
z
" transform="scale(0.015625)"/>
       <path id="SimSun-503c" d="M 1525 650 
Q 1525 -225 1550 -525 
L 1175 -650 
Q 1200 250 1200 550 
L 1200 3025 
Q 750 2300 325 1850 
L 250 1900 
Q 725 2625 1100 3525 
Q 1475 4425 1675 5200 
L 2200 4875 
L 1950 4725 
Q 1550 3800 1425 3475 
L 1725 3300 
L 1525 3150 
L 1525 650 
z
M 2875 3225 
L 2875 2475 
L 4800 2475 
L 4800 3225 
L 2875 3225 
z
M 2875 2325 
L 2875 1575 
L 4800 1575 
L 4800 2325 
L 2875 2325 
z
M 2875 1425 
L 2875 675 
L 4800 675 
L 4800 1425 
L 2875 1425 
z
M 2875 525 
L 2875 -225 
L 4800 -225 
L 4800 525 
L 2875 525 
z
M 3550 4250 
Q 3575 4825 3550 5225 
L 4125 4950 
L 3925 4800 
L 3900 4250 
L 5025 4250 
L 5350 4575 
L 5825 4100 
L 3900 4100 
L 3875 3375 
L 4750 3375 
L 4975 3625 
L 5350 3300 
L 5125 3150 
L 5125 -225 
L 5350 -225 
L 5675 100 
L 6150 -375 
L 2450 -375 
Q 2125 -375 1850 -450 
L 1625 -225 
L 2550 -225 
L 2550 2550 
Q 2550 2850 2525 3575 
L 2875 3375 
L 3525 3375 
L 3550 4100 
L 2800 4100 
Q 2475 4100 2200 4025 
L 1975 4250 
L 3550 4250 
z
" transform="scale(0.015625)"/>
      </defs>
      <use xlink:href="#SimSun-771f"/>
      <use xlink:href="#SimSun-5b9e" x="100"/>
      <use xlink:href="#SimSun-503c" x="200"/>
     </g>
    </g>
    <g id="line2d_18">
     <path d="M 74.6375 82.6375 
L 94.6375 82.6375 
L 114.6375 82.6375 
" style="fill: none; stroke: #ff7f0e; stroke-width: 1.5; stroke-linecap: square"/>
    </g>
    <g id="text_17">
     <!-- 预测值 -->
     <g transform="translate(130.6375 89.6375) scale(0.2 -0.2)">
      <defs>
       <path id="SimSun-9884" d="M 475 4825 
L 2225 4825 
L 2425 5075 
L 2825 4675 
Q 2600 4625 2387 4412 
Q 2175 4200 1800 3750 
Q 2050 3575 2037 3400 
Q 2025 3225 1937 3150 
Q 1850 3075 1825 3075 
Q 1725 3075 1650 3300 
Q 1525 3600 1050 4100 
L 1100 4150 
Q 1475 3975 1700 3825 
L 2225 4675 
L 1300 4675 
Q 975 4675 700 4600 
L 475 4825 
z
M 725 100 
Q 1175 50 1362 37 
Q 1550 25 1550 275 
L 1550 2875 
L 1125 2875 
Q 800 2875 525 2800 
L 300 3025 
L 2525 3025 
L 2725 3275 
L 3150 2875 
Q 2800 2825 2275 2075 
L 2200 2125 
L 2550 2875 
L 1875 2875 
L 1875 150 
Q 1875 -400 1350 -500 
Q 1325 -175 725 0 
L 725 100 
z
M 3250 775 
Q 3275 1425 3275 2287 
Q 3275 3150 3250 3900 
L 3600 3700 
L 4050 3700 
Q 4175 4400 4200 4675 
L 3650 4675 
Q 3325 4675 3050 4600 
L 2825 4825 
L 5325 4825 
L 5675 5150 
L 6125 4675 
L 4675 4675 
Q 4500 4425 4175 3700 
L 5300 3700 
L 5475 3975 
L 5875 3675 
L 5675 3475 
L 5675 1950 
Q 5675 1525 5700 1075 
L 5350 875 
L 5350 3550 
L 3600 3550 
L 3600 1000 
L 3250 775 
z
M 4850 2875 
L 4625 2675 
Q 4625 1475 4475 937 
Q 4325 400 3900 50 
Q 3475 -300 2425 -625 
L 2400 -550 
Q 3500 -50 3837 400 
Q 4175 850 4237 1587 
Q 4300 2325 4275 3175 
L 4850 2875 
z
M 4650 950 
Q 5725 375 5875 212 
Q 6025 50 6025 -125 
Q 6025 -225 5962 -387 
Q 5900 -550 5850 -550 
Q 5800 -550 5750 -450 
Q 5625 -250 5437 0 
Q 5250 250 4600 875 
L 4650 950 
z
" transform="scale(0.015625)"/>
       <path id="SimSun-6d4b" d="M 1975 1000 
Q 2000 1475 2000 2925 
Q 2000 4375 1975 5000 
L 2350 4775 
L 3575 4775 
L 3775 4975 
L 4100 4650 
L 3900 4500 
L 3900 2350 
Q 3900 1850 3925 1350 
L 3600 1200 
L 3600 4625 
L 2325 4625 
L 2325 1150 
L 1975 1000 
z
M 2775 3975 
L 3300 3700 
L 3125 3525 
Q 3150 1825 2875 937 
Q 2600 50 1375 -600 
L 1325 -500 
Q 2200 100 2475 725 
Q 2750 1350 2775 2187 
Q 2800 3025 2775 3975 
z
M 3100 950 
Q 3825 450 3937 262 
Q 4050 75 4050 -25 
Q 4050 -150 3975 -262 
Q 3900 -375 3850 -375 
Q 3750 -375 3650 -75 
Q 3500 375 3050 875 
L 3100 950 
z
M 4475 825 
Q 4500 1200 4500 1700 
L 4500 3400 
Q 4500 3950 4475 4300 
L 5025 4025 
L 4825 3825 
L 4825 1700 
Q 4825 1325 4850 950 
L 4475 825 
z
M 5375 150 
L 5375 4050 
Q 5375 4750 5350 5125 
L 5875 4875 
L 5700 4700 
L 5700 75 
Q 5700 -200 5600 -350 
Q 5500 -500 5200 -600 
Q 5025 -225 4450 -50 
L 4450 50 
Q 5125 -50 5250 -37 
Q 5375 -25 5375 150 
z
M 1850 3500 
Q 1375 1525 1300 1225 
Q 1200 900 1212 450 
Q 1225 0 1250 -175 
Q 1250 -275 1125 -275 
Q 1025 -275 875 -225 
Q 725 -175 725 0 
Q 725 125 800 375 
Q 875 625 875 775 
Q 875 950 762 1050 
Q 650 1150 275 1250 
L 275 1350 
Q 725 1300 837 1312 
Q 950 1325 1087 1537 
Q 1225 1750 1750 3525 
L 1850 3500 
z
M 375 3775 
Q 1075 3350 1112 3100 
Q 1150 2850 1050 2775 
Q 950 2700 900 2700 
Q 800 2700 725 2975 
Q 600 3350 325 3700 
L 375 3775 
z
M 800 5100 
Q 1475 4725 1550 4512 
Q 1625 4300 1525 4187 
Q 1425 4075 1350 4075 
Q 1275 4075 1200 4300 
Q 1075 4650 750 5025 
L 800 5100 
z
" transform="scale(0.015625)"/>
      </defs>
      <use xlink:href="#SimSun-9884"/>
      <use xlink:href="#SimSun-6d4b" x="100"/>
      <use xlink:href="#SimSun-503c" x="200"/>
     </g>
    </g>
   </g>
  </g>
  <g id="axes_2">
   <g id="patch_8">
    <path d="M 56.6375 527.460625 
L 1376.906466 527.460625 
L 1376.906466 311.020625 
L 56.6375 311.020625 
z
" style="fill: #ffffff"/>
   </g>
   <g id="matplotlib.axis_3">
    <g id="xtick_10">
     <g id="line2d_19">
      <g>
       <use xlink:href="#m1ba53d2dc3" x="116.649726" y="527.460625" style="stroke: #000000; stroke-width: 0.8"/>
      </g>
     </g>
     <g id="text_18">
      <!-- 0 -->
      <g transform="translate(111.649726 548.348125) scale(0.2 -0.2)">
       <use xlink:href="#TimesNewRomanPSMT-30"/>
      </g>
     </g>
    </g>
    <g id="xtick_11">
     <g id="line2d_20">
      <g>
       <use xlink:href="#m1ba53d2dc3" x="273.749793" y="527.460625" style="stroke: #000000; stroke-width: 0.8"/>
      </g>
     </g>
     <g id="text_19">
      <!-- 25 -->
      <g transform="translate(263.749793 548.348125) scale(0.2 -0.2)">
       <use xlink:href="#TimesNewRomanPSMT-32"/>
       <use xlink:href="#TimesNewRomanPSMT-35" x="50"/>
      </g>
     </g>
    </g>
    <g id="xtick_12">
     <g id="line2d_21">
      <g>
       <use xlink:href="#m1ba53d2dc3" x="430.84986" y="527.460625" style="stroke: #000000; stroke-width: 0.8"/>
      </g>
     </g>
     <g id="text_20">
      <!-- 50 -->
      <g transform="translate(420.84986 548.348125) scale(0.2 -0.2)">
       <use xlink:href="#TimesNewRomanPSMT-35"/>
       <use xlink:href="#TimesNewRomanPSMT-30" x="50"/>
      </g>
     </g>
    </g>
    <g id="xtick_13">
     <g id="line2d_22">
      <g>
       <use xlink:href="#m1ba53d2dc3" x="587.949928" y="527.460625" style="stroke: #000000; stroke-width: 0.8"/>
      </g>
     </g>
     <g id="text_21">
      <!-- 75 -->
      <g transform="translate(577.949928 548.348125) scale(0.2 -0.2)">
       <use xlink:href="#TimesNewRomanPSMT-37"/>
       <use xlink:href="#TimesNewRomanPSMT-35" x="50"/>
      </g>
     </g>
    </g>
    <g id="xtick_14">
     <g id="line2d_23">
      <g>
       <use xlink:href="#m1ba53d2dc3" x="745.049995" y="527.460625" style="stroke: #000000; stroke-width: 0.8"/>
      </g>
     </g>
     <g id="text_22">
      <!-- 100 -->
      <g transform="translate(730.049995 548.348125) scale(0.2 -0.2)">
       <use xlink:href="#TimesNewRomanPSMT-31"/>
       <use xlink:href="#TimesNewRomanPSMT-30" x="50"/>
       <use xlink:href="#TimesNewRomanPSMT-30" x="100"/>
      </g>
     </g>
    </g>
    <g id="xtick_15">
     <g id="line2d_24">
      <g>
       <use xlink:href="#m1ba53d2dc3" x="902.150062" y="527.460625" style="stroke: #000000; stroke-width: 0.8"/>
      </g>
     </g>
     <g id="text_23">
      <!-- 125 -->
      <g transform="translate(887.150062 548.348125) scale(0.2 -0.2)">
       <use xlink:href="#TimesNewRomanPSMT-31"/>
       <use xlink:href="#TimesNewRomanPSMT-32" x="50"/>
       <use xlink:href="#TimesNewRomanPSMT-35" x="100"/>
      </g>
     </g>
    </g>
    <g id="xtick_16">
     <g id="line2d_25">
      <g>
       <use xlink:href="#m1ba53d2dc3" x="1059.25013" y="527.460625" style="stroke: #000000; stroke-width: 0.8"/>
      </g>
     </g>
     <g id="text_24">
      <!-- 150 -->
      <g transform="translate(1044.25013 548.348125) scale(0.2 -0.2)">
       <use xlink:href="#TimesNewRomanPSMT-31"/>
       <use xlink:href="#TimesNewRomanPSMT-35" x="50"/>
       <use xlink:href="#TimesNewRomanPSMT-30" x="100"/>
      </g>
     </g>
    </g>
    <g id="xtick_17">
     <g id="line2d_26">
      <g>
       <use xlink:href="#m1ba53d2dc3" x="1216.350197" y="527.460625" style="stroke: #000000; stroke-width: 0.8"/>
      </g>
     </g>
     <g id="text_25">
      <!-- 175 -->
      <g transform="translate(1201.350197 548.348125) scale(0.2 -0.2)">
       <use xlink:href="#TimesNewRomanPSMT-31"/>
       <use xlink:href="#TimesNewRomanPSMT-37" x="50"/>
       <use xlink:href="#TimesNewRomanPSMT-35" x="100"/>
      </g>
     </g>
    </g>
    <g id="xtick_18">
     <g id="line2d_27">
      <g>
       <use xlink:href="#m1ba53d2dc3" x="1373.450264" y="527.460625" style="stroke: #000000; stroke-width: 0.8"/>
      </g>
     </g>
     <g id="text_26">
      <!-- 200 -->
      <g transform="translate(1358.450264 548.348125) scale(0.2 -0.2)">
       <use xlink:href="#TimesNewRomanPSMT-32"/>
       <use xlink:href="#TimesNewRomanPSMT-30" x="50"/>
       <use xlink:href="#TimesNewRomanPSMT-30" x="100"/>
      </g>
     </g>
    </g>
   </g>
   <g id="matplotlib.axis_4">
    <g id="ytick_5">
     <g id="line2d_28">
      <g>
       <use xlink:href="#mae5fdd3ff3" x="56.6375" y="520.100572" style="stroke: #000000; stroke-width: 0.8"/>
      </g>
     </g>
     <g id="text_27">
      <!-- 2 -->
      <g transform="translate(39.6375 527.044322) scale(0.2 -0.2)">
       <use xlink:href="#TimesNewRomanPSMT-32"/>
      </g>
     </g>
    </g>
    <g id="ytick_6">
     <g id="line2d_29">
      <g>
       <use xlink:href="#mae5fdd3ff3" x="56.6375" y="470.537944" style="stroke: #000000; stroke-width: 0.8"/>
      </g>
     </g>
     <g id="text_28">
      <!-- 4 -->
      <g transform="translate(39.6375 477.481694) scale(0.2 -0.2)">
       <use xlink:href="#TimesNewRomanPSMT-34"/>
      </g>
     </g>
    </g>
    <g id="ytick_7">
     <g id="line2d_30">
      <g>
       <use xlink:href="#mae5fdd3ff3" x="56.6375" y="420.975315" style="stroke: #000000; stroke-width: 0.8"/>
      </g>
     </g>
     <g id="text_29">
      <!-- 6 -->
      <g transform="translate(39.6375 427.919065) scale(0.2 -0.2)">
       <use xlink:href="#TimesNewRomanPSMT-36"/>
      </g>
     </g>
    </g>
    <g id="ytick_8">
     <g id="line2d_31">
      <g>
       <use xlink:href="#mae5fdd3ff3" x="56.6375" y="371.412687" style="stroke: #000000; stroke-width: 0.8"/>
      </g>
     </g>
     <g id="text_30">
      <!-- 8 -->
      <g transform="translate(39.6375 378.356437) scale(0.2 -0.2)">
       <use xlink:href="#TimesNewRomanPSMT-38"/>
      </g>
     </g>
    </g>
    <g id="ytick_9">
     <g id="line2d_32">
      <g>
       <use xlink:href="#mae5fdd3ff3" x="56.6375" y="321.850058" style="stroke: #000000; stroke-width: 0.8"/>
      </g>
     </g>
     <g id="text_31">
      <!-- 10 -->
      <g transform="translate(29.6375 328.793808) scale(0.2 -0.2)">
       <use xlink:href="#TimesNewRomanPSMT-31"/>
       <use xlink:href="#TimesNewRomanPSMT-30" x="50"/>
      </g>
     </g>
    </g>
    <g id="text_32">
     <!-- CPU使用率 -->
     <g transform="translate(23.059375 464.240625) rotate(-90) scale(0.2 -0.2)">
      <use xlink:href="#SimSun-43"/>
      <use xlink:href="#SimSun-50" x="50"/>
      <use xlink:href="#SimSun-55" x="100"/>
      <use xlink:href="#SimSun-4f7f" x="150"/>
      <use xlink:href="#SimSun-7528" x="250"/>
      <use xlink:href="#SimSun-7387" x="350"/>
     </g>
    </g>
   </g>
   <g id="line2d_33">
    <path d="M 116.649726 414.036554 
L 122.933728 429.896592 
L 129.217731 400.654633 
L 135.501734 435.596295 
L 141.785737 477.972337 
L 148.069739 486.6458 
L 154.353742 466.077311 
L 166.921747 320.858807 
L 173.20575 420.47969 
L 179.489753 445.508823 
L 185.773755 445.508823 
L 192.057758 470.537944 
L 198.341761 482.928601 
L 204.625763 501.514587 
L 210.909766 485.902362 
L 217.193769 490.610807 
L 223.477772 480.698285 
L 229.761774 500.275522 
L 236.045777 497.797387 
L 242.32978 508.94898 
L 248.613782 502.258025 
L 254.897785 511.179302 
L 261.181788 503.249277 
L 267.46579 511.674922 
L 273.749793 491.106433 
L 280.033796 493.088942 
L 286.317798 494.328006 
L 292.601801 494.823632 
L 298.885804 482.680788 
L 305.169807 488.876117 
L 311.453809 504.488341 
L 317.737812 512.418366 
L 324.021815 503.744903 
L 330.305817 499.532077 
L 336.58982 485.158917 
L 342.873823 490.115181 
L 349.157825 480.450472 
L 355.441828 487.884865 
L 361.725831 491.602059 
L 368.009833 493.336755 
L 374.293836 494.328006 
L 380.577839 445.261004 
L 386.861842 457.899468 
L 393.145844 464.342615 
L 399.429847 467.31637 
L 405.71385 469.051066 
L 411.997852 482.185162 
L 418.281855 488.628304 
L 424.565858 504.488341 
L 430.84986 487.389233 
L 437.133863 466.572937 
L 443.417866 443.774126 
L 449.701868 370.421435 
L 455.985871 408.089032 
L 462.269874 414.53218 
L 468.553877 417.753742 
L 474.837879 431.879095 
L 481.121882 426.427199 
L 487.405885 448.482577 
L 493.689887 471.777008 
L 499.97389 446.500074 
L 506.257893 433.613791 
L 512.541895 377.855834 
L 518.825898 448.978203 
L 525.109901 447.243507 
L 531.393904 421.71876 
L 537.677906 421.470941 
L 543.961909 408.832465 
L 550.245912 451.951958 
L 556.529914 486.150169 
L 562.813917 478.22015 
L 569.09792 437.330979 
L 575.381922 466.325118 
L 581.665925 493.088942 
L 587.949928 481.937349 
L 594.23393 488.628304 
L 600.517933 504.240534 
L 606.801936 499.77989 
L 613.085939 485.158917 
L 619.369941 502.753651 
L 625.653944 511.427115 
L 631.937947 503.249277 
L 638.221949 499.28427 
L 644.505952 497.301761 
L 650.789955 496.31051 
L 657.073957 508.205541 
L 663.35796 501.762399 
L 669.641963 498.540826 
L 675.925965 497.053948 
L 682.209968 508.453354 
L 688.493971 514.400869 
L 694.777974 504.736154 
L 701.061976 500.027709 
L 707.345979 510.18805 
L 713.629982 515.144308 
L 719.913984 517.622443 
L 726.197987 506.470851 
L 732.48199 500.771142 
L 738.765992 510.435857 
L 745.049995 503.001464 
L 751.333998 499.036458 
L 757.618 422.957819 
L 763.902003 372.403939 
L 770.186006 409.080284 
L 776.470009 439.80912 
L 782.754011 380.829589 
L 789.038014 425.683766 
L 795.322017 472.76826 
L 801.606019 484.167665 
L 807.890022 440.056927 
L 814.174025 455.421339 
L 820.458027 487.637052 
L 826.74203 491.602059 
L 833.026033 493.336755 
L 839.310036 481.937349 
L 845.594038 389.503047 
L 851.878041 454.925713 
L 858.162044 413.045291 
L 864.446046 466.572937 
L 870.730049 443.774126 
L 877.014052 481.937349 
L 883.298054 451.456332 
L 889.582057 485.902362 
L 895.86606 490.610807 
L 902.150062 492.841129 
L 908.434065 494.080193 
L 914.718068 408.089032 
L 921.002071 451.704139 
L 927.286073 485.902362 
L 933.570076 503.001464 
L 939.854079 499.036458 
L 946.138081 460.12979 
L 952.422084 490.115181 
L 958.706087 504.983967 
L 964.990089 512.666179 
L 971.274092 503.992716 
L 977.558095 499.532077 
L 983.842097 472.76826 
L 990.1261 496.31051 
L 996.410103 495.814884 
L 1002.694106 495.567071 
L 1008.978108 495.567071 
L 1015.262111 495.319258 
L 1021.546114 495.319258 
L 1027.830116 482.928601 
L 1034.114119 489.123929 
L 1040.398122 504.736154 
L 1046.682124 512.418366 
L 1052.966127 503.744903 
L 1059.25013 499.532077 
L 1065.534132 509.940231 
L 1071.818135 514.896495 
L 1078.102138 505.231786 
L 1084.386141 500.275522 
L 1090.670143 497.797387 
L 1096.954146 496.558323 
L 1103.238149 495.814884 
L 1109.522151 433.613791 
L 1115.806154 439.80912 
L 1122.090157 479.954846 
L 1128.374159 487.637052 
L 1134.658162 503.744903 
L 1140.942165 499.532077 
L 1147.226168 497.549574 
L 1153.51017 459.138538 
L 1159.794173 390.494298 
L 1166.078176 405.85871 
L 1172.362178 462.855738 
L 1178.646181 466.820744 
L 1184.930184 456.164783 
L 1191.214186 426.179392 
L 1197.498189 386.529292 
L 1203.782192 378.847086 
L 1210.066194 437.083172 
L 1216.350197 466.325118 
L 1222.6342 480.698285 
L 1228.918203 426.179392 
L 1235.202205 373.890816 
L 1241.486208 434.605043 
L 1247.770211 452.695403 
L 1254.054213 449.22601 
L 1260.338216 447.491326 
L 1266.622219 471.281383 
L 1272.906221 495.814884 
L 1279.190224 458.395094 
L 1285.474227 464.342615 
L 1291.758229 430.392218 
L 1298.042232 475.246395 
L 1304.326235 497.549574 
L 1310.610238 434.605043 
L 1316.89424 415.275613 
L 1316.89424 415.275613 
" clip-path="url(#p8080d9d81e)" style="fill: none; stroke: #1f77b4; stroke-width: 1.5; stroke-linecap: square"/>
   </g>
   <g id="line2d_34">
    <path d="M 1021.546114 492.076107 
L 1027.830116 493.82779 
L 1034.114119 494.216788 
L 1040.398122 488.14131 
L 1046.682124 489.372044 
L 1052.966127 486.662013 
L 1059.25013 484.679409 
L 1065.534132 481.748974 
L 1071.818135 482.581256 
L 1078.102138 488.535372 
L 1084.386141 480.759678 
L 1090.670143 479.233309 
L 1096.954146 475.083449 
L 1103.238149 477.245577 
L 1109.522151 476.601286 
L 1115.806154 477.221359 
L 1122.090157 468.03617 
L 1128.374159 463.717739 
L 1134.658162 460.170203 
L 1140.942165 461.116634 
L 1147.226168 455.725239 
L 1153.51017 456.349312 
L 1159.794173 452.333553 
L 1166.078176 443.109629 
L 1172.362178 441.15877 
L 1178.646181 447.507503 
L 1184.930184 454.71839 
L 1191.214186 454.886765 
L 1197.498189 450.78016 
L 1203.782192 455.339757 
L 1210.066194 450.130799 
L 1216.350197 455.581147 
L 1222.6342 454.068025 
L 1228.918203 455.311397 
L 1235.202205 452.685772 
L 1241.486208 452.378882 
L 1247.770211 452.405044 
L 1254.054213 455.385901 
L 1260.338216 458.296602 
L 1266.622219 465.859743 
L 1272.906221 463.564831 
L 1279.190224 470.827635 
L 1285.474227 478.702175 
L 1291.758229 479.281935 
L 1298.042232 474.64166 
L 1304.326235 471.364844 
L 1310.610238 472.17663 
L 1316.89424 474.500516 
" clip-path="url(#p8080d9d81e)" style="fill: none; stroke: #ff7f0e; stroke-width: 1.5; stroke-linecap: square"/>
   </g>
   <g id="line2d_35">
    <path d="M 1021.546114 527.460625 
L 1021.546114 311.020625 
" clip-path="url(#p8080d9d81e)" style="fill: none; stroke-dasharray: 7.4,3.2; stroke-dashoffset: 0; stroke: #0000ff; stroke-width: 2"/>
   </g>
   <g id="patch_9">
    <path d="M 56.6375 527.460625 
L 56.6375 311.020625 
" style="fill: none; stroke: #000000; stroke-width: 0.8; stroke-linejoin: miter; stroke-linecap: square"/>
   </g>
   <g id="patch_10">
    <path d="M 1376.906466 527.460625 
L 1376.906466 311.020625 
" style="fill: none; stroke: #000000; stroke-width: 0.8; stroke-linejoin: miter; stroke-linecap: square"/>
   </g>
   <g id="patch_11">
    <path d="M 56.6375 527.460625 
L 1376.906466 527.460625 
" style="fill: none; stroke: #000000; stroke-width: 0.8; stroke-linejoin: miter; stroke-linecap: square"/>
   </g>
   <g id="patch_12">
    <path d="M 56.6375 311.020625 
L 1376.906466 311.020625 
" style="fill: none; stroke: #000000; stroke-width: 0.8; stroke-linejoin: miter; stroke-linecap: square"/>
   </g>
   <g id="text_33">
    <!-- API_ID: 3 -->
    <g transform="translate(671.771983 305.020625) scale(0.2 -0.2)">
     <defs>
      <path id="SimSun-33" d="M 2800 1250 
Q 2800 775 2450 412 
Q 2100 50 1475 50 
Q 1025 50 700 300 
Q 375 550 375 875 
Q 375 1025 475 1137 
Q 575 1250 675 1250 
Q 825 1250 887 1137 
Q 950 1025 950 950 
Q 950 825 900 750 
Q 850 650 850 575 
Q 850 425 1037 325 
Q 1225 225 1450 225 
Q 1900 225 2125 487 
Q 2350 750 2350 1300 
Q 2350 1750 2112 2025 
Q 1875 2300 1225 2300 
L 1225 2475 
Q 1725 2475 1962 2712 
Q 2200 2950 2200 3375 
Q 2200 3725 2012 3987 
Q 1825 4250 1425 4250 
Q 1250 4250 1050 4162 
Q 850 4075 850 3875 
Q 850 3675 900 3625 
Q 950 3575 950 3500 
Q 950 3375 900 3300 
Q 850 3225 725 3225 
Q 625 3225 537 3300 
Q 450 3375 450 3575 
Q 450 3950 775 4187 
Q 1100 4425 1525 4425 
Q 2025 4425 2325 4112 
Q 2625 3800 2625 3450 
Q 2625 3075 2437 2812 
Q 2250 2550 1850 2425 
Q 2400 2225 2600 1900 
Q 2800 1575 2800 1250 
z
" transform="scale(0.015625)"/>
     </defs>
     <use xlink:href="#SimSun-41"/>
     <use xlink:href="#SimSun-50" x="50"/>
     <use xlink:href="#SimSun-49" x="100"/>
     <use xlink:href="#SimSun-5f" x="150"/>
     <use xlink:href="#SimSun-49" x="200"/>
     <use xlink:href="#SimSun-44" x="250"/>
     <use xlink:href="#SimSun-3a" x="300"/>
     <use xlink:href="#SimSun-20" x="350"/>
     <use xlink:href="#SimSun-33" x="400"/>
    </g>
   </g>
  </g>
  <g id="axes_3">
   <g id="patch_13">
    <path d="M 56.6375 811.140625 
L 1376.906466 811.140625 
L 1376.906466 594.700625 
L 56.6375 594.700625 
z
" style="fill: #ffffff"/>
   </g>
   <g id="matplotlib.axis_5">
    <g id="xtick_19">
     <g id="line2d_36">
      <g>
       <use xlink:href="#m1ba53d2dc3" x="116.649726" y="811.140625" style="stroke: #000000; stroke-width: 0.8"/>
      </g>
     </g>
     <g id="text_34">
      <!-- 0 -->
      <g transform="translate(111.649726 832.028125) scale(0.2 -0.2)">
       <use xlink:href="#TimesNewRomanPSMT-30"/>
      </g>
     </g>
    </g>
    <g id="xtick_20">
     <g id="line2d_37">
      <g>
       <use xlink:href="#m1ba53d2dc3" x="273.749793" y="811.140625" style="stroke: #000000; stroke-width: 0.8"/>
      </g>
     </g>
     <g id="text_35">
      <!-- 25 -->
      <g transform="translate(263.749793 832.028125) scale(0.2 -0.2)">
       <use xlink:href="#TimesNewRomanPSMT-32"/>
       <use xlink:href="#TimesNewRomanPSMT-35" x="50"/>
      </g>
     </g>
    </g>
    <g id="xtick_21">
     <g id="line2d_38">
      <g>
       <use xlink:href="#m1ba53d2dc3" x="430.84986" y="811.140625" style="stroke: #000000; stroke-width: 0.8"/>
      </g>
     </g>
     <g id="text_36">
      <!-- 50 -->
      <g transform="translate(420.84986 832.028125) scale(0.2 -0.2)">
       <use xlink:href="#TimesNewRomanPSMT-35"/>
       <use xlink:href="#TimesNewRomanPSMT-30" x="50"/>
      </g>
     </g>
    </g>
    <g id="xtick_22">
     <g id="line2d_39">
      <g>
       <use xlink:href="#m1ba53d2dc3" x="587.949928" y="811.140625" style="stroke: #000000; stroke-width: 0.8"/>
      </g>
     </g>
     <g id="text_37">
      <!-- 75 -->
      <g transform="translate(577.949928 832.028125) scale(0.2 -0.2)">
       <use xlink:href="#TimesNewRomanPSMT-37"/>
       <use xlink:href="#TimesNewRomanPSMT-35" x="50"/>
      </g>
     </g>
    </g>
    <g id="xtick_23">
     <g id="line2d_40">
      <g>
       <use xlink:href="#m1ba53d2dc3" x="745.049995" y="811.140625" style="stroke: #000000; stroke-width: 0.8"/>
      </g>
     </g>
     <g id="text_38">
      <!-- 100 -->
      <g transform="translate(730.049995 832.028125) scale(0.2 -0.2)">
       <use xlink:href="#TimesNewRomanPSMT-31"/>
       <use xlink:href="#TimesNewRomanPSMT-30" x="50"/>
       <use xlink:href="#TimesNewRomanPSMT-30" x="100"/>
      </g>
     </g>
    </g>
    <g id="xtick_24">
     <g id="line2d_41">
      <g>
       <use xlink:href="#m1ba53d2dc3" x="902.150062" y="811.140625" style="stroke: #000000; stroke-width: 0.8"/>
      </g>
     </g>
     <g id="text_39">
      <!-- 125 -->
      <g transform="translate(887.150062 832.028125) scale(0.2 -0.2)">
       <use xlink:href="#TimesNewRomanPSMT-31"/>
       <use xlink:href="#TimesNewRomanPSMT-32" x="50"/>
       <use xlink:href="#TimesNewRomanPSMT-35" x="100"/>
      </g>
     </g>
    </g>
    <g id="xtick_25">
     <g id="line2d_42">
      <g>
       <use xlink:href="#m1ba53d2dc3" x="1059.25013" y="811.140625" style="stroke: #000000; stroke-width: 0.8"/>
      </g>
     </g>
     <g id="text_40">
      <!-- 150 -->
      <g transform="translate(1044.25013 832.028125) scale(0.2 -0.2)">
       <use xlink:href="#TimesNewRomanPSMT-31"/>
       <use xlink:href="#TimesNewRomanPSMT-35" x="50"/>
       <use xlink:href="#TimesNewRomanPSMT-30" x="100"/>
      </g>
     </g>
    </g>
    <g id="xtick_26">
     <g id="line2d_43">
      <g>
       <use xlink:href="#m1ba53d2dc3" x="1216.350197" y="811.140625" style="stroke: #000000; stroke-width: 0.8"/>
      </g>
     </g>
     <g id="text_41">
      <!-- 175 -->
      <g transform="translate(1201.350197 832.028125) scale(0.2 -0.2)">
       <use xlink:href="#TimesNewRomanPSMT-31"/>
       <use xlink:href="#TimesNewRomanPSMT-37" x="50"/>
       <use xlink:href="#TimesNewRomanPSMT-35" x="100"/>
      </g>
     </g>
    </g>
    <g id="xtick_27">
     <g id="line2d_44">
      <g>
       <use xlink:href="#m1ba53d2dc3" x="1373.450264" y="811.140625" style="stroke: #000000; stroke-width: 0.8"/>
      </g>
     </g>
     <g id="text_42">
      <!-- 200 -->
      <g transform="translate(1358.450264 832.028125) scale(0.2 -0.2)">
       <use xlink:href="#TimesNewRomanPSMT-32"/>
       <use xlink:href="#TimesNewRomanPSMT-30" x="50"/>
       <use xlink:href="#TimesNewRomanPSMT-30" x="100"/>
      </g>
     </g>
    </g>
   </g>
   <g id="matplotlib.axis_6">
    <g id="ytick_10">
     <g id="line2d_45">
      <g>
       <use xlink:href="#mae5fdd3ff3" x="56.6375" y="794.769786" style="stroke: #000000; stroke-width: 0.8"/>
      </g>
     </g>
     <g id="text_43">
      <!-- 2 -->
      <g transform="translate(39.6375 801.713536) scale(0.2 -0.2)">
       <use xlink:href="#TimesNewRomanPSMT-32"/>
      </g>
     </g>
    </g>
    <g id="ytick_11">
     <g id="line2d_46">
      <g>
       <use xlink:href="#mae5fdd3ff3" x="56.6375" y="742.508526" style="stroke: #000000; stroke-width: 0.8"/>
      </g>
     </g>
     <g id="text_44">
      <!-- 4 -->
      <g transform="translate(39.6375 749.452276) scale(0.2 -0.2)">
       <use xlink:href="#TimesNewRomanPSMT-34"/>
      </g>
     </g>
    </g>
    <g id="ytick_12">
     <g id="line2d_47">
      <g>
       <use xlink:href="#mae5fdd3ff3" x="56.6375" y="690.247266" style="stroke: #000000; stroke-width: 0.8"/>
      </g>
     </g>
     <g id="text_45">
      <!-- 6 -->
      <g transform="translate(39.6375 697.191016) scale(0.2 -0.2)">
       <use xlink:href="#TimesNewRomanPSMT-36"/>
      </g>
     </g>
    </g>
    <g id="ytick_13">
     <g id="line2d_48">
      <g>
       <use xlink:href="#mae5fdd3ff3" x="56.6375" y="637.986006" style="stroke: #000000; stroke-width: 0.8"/>
      </g>
     </g>
     <g id="text_46">
      <!-- 8 -->
      <g transform="translate(39.6375 644.929756) scale(0.2 -0.2)">
       <use xlink:href="#TimesNewRomanPSMT-38"/>
      </g>
     </g>
    </g>
    <g id="text_47">
     <!-- CPU使用率 -->
     <g transform="translate(33.059375 747.920625) rotate(-90) scale(0.2 -0.2)">
      <use xlink:href="#SimSun-43"/>
      <use xlink:href="#SimSun-50" x="50"/>
      <use xlink:href="#SimSun-55" x="100"/>
      <use xlink:href="#SimSun-4f7f" x="150"/>
      <use xlink:href="#SimSun-7528" x="250"/>
      <use xlink:href="#SimSun-7387" x="350"/>
     </g>
    </g>
   </g>
   <g id="line2d_49">
    <path d="M 116.649726 764.980865 
L 122.933728 753.744698 
L 129.217731 761.32258 
L 135.501734 764.980865 
L 141.785737 779.875322 
L 148.069739 747.995959 
L 154.353742 758.448214 
L 160.637745 763.413029 
L 166.921747 792.156725 
L 173.20575 793.463249 
L 179.489753 781.181859 
L 185.773755 787.975822 
L 192.057758 791.372801 
L 198.341761 779.875322 
L 204.625763 774.387889 
L 210.909766 784.578837 
L 217.193769 789.543658 
L 223.477772 779.09141 
L 229.761774 773.865283 
L 236.045777 771.252216 
L 242.32978 769.945686 
L 254.897785 768.900462 
L 261.181788 781.965777 
L 267.46579 683.714609 
L 273.749793 608.719704 
L 280.033796 662.5488 
L 286.317798 728.659287 
L 292.601801 748.518571 
L 298.885804 771.774828 
L 305.169807 757.141677 
L 311.453809 749.825101 
L 317.737812 746.166817 
L 324.021815 705.14173 
L 330.305817 645.302588 
L 336.58982 720.036181 
L 342.873823 731.272359 
L 349.157825 723.955778 
L 355.441828 746.166817 
L 361.725831 770.468298 
L 368.009833 756.619065 
L 374.293836 762.62911 
L 380.577839 739.372853 
L 386.861842 740.94069 
L 393.145844 741.724614 
L 399.429847 768.37785 
L 405.71385 768.37785 
L 411.997852 742.508526 
L 418.281855 755.573841 
L 424.565858 749.041183 
L 430.84986 706.448254 
L 437.133863 698.34776 
L 443.417866 733.624108 
L 449.701868 751.131632 
L 455.985871 772.820059 
L 462.269874 770.729604 
L 468.553877 769.68438 
L 474.837879 769.161768 
L 481.121882 768.900462 
L 487.405885 768.900462 
L 493.689887 768.639156 
L 499.97389 768.639156 
L 506.257893 781.704471 
L 512.541895 801.302443 
L 518.825898 785.101449 
L 525.109901 776.73965 
L 531.393904 759.754744 
L 537.677906 777.262262 
L 543.961909 772.820059 
L 550.245912 770.729604 
L 556.529914 769.68438 
L 562.813917 782.227083 
L 569.09792 788.498434 
L 575.381922 791.634107 
L 581.665925 767.071319 
L 587.949928 780.920546 
L 594.23393 774.910507 
L 600.517933 784.840143 
L 606.801936 776.73965 
L 613.085939 772.558753 
L 619.369941 783.794919 
L 625.653944 776.217037 
L 631.937947 772.29744 
L 638.221949 679.0111 
L 644.505952 697.825148 
L 650.789955 680.840236 
L 657.073957 711.674387 
L 663.35796 714.026135 
L 669.641963 754.528617 
L 675.925965 774.649201 
L 682.209968 666.991009 
L 688.493971 731.011047 
L 694.777974 736.759793 
L 701.061976 726.568838 
L 707.345979 747.473347 
L 713.629982 745.121593 
L 719.913984 639.292543 
L 726.197987 677.704563 
L 732.48199 710.106551 
L 738.765992 700.176908 
L 745.049995 747.473347 
L 751.333998 758.186901 
L 757.618 711.151775 
L 763.902003 752.96078 
L 770.186006 747.734653 
L 776.470009 758.186901 
L 782.754011 763.413029 
L 789.038014 752.96078 
L 795.322017 734.669332 
L 801.606019 751.654244 
L 807.890022 773.081359 
L 814.174025 770.99091 
L 820.458027 769.68438 
L 826.74203 769.161768 
L 833.026033 755.835147 
L 839.310036 775.433119 
L 845.594038 772.036134 
L 851.878041 770.206992 
L 858.162044 769.423074 
L 864.446046 769.161768 
L 870.730049 781.965777 
L 877.014052 775.171813 
L 883.298054 772.036134 
L 889.582057 783.272307 
L 895.86606 775.955731 
L 902.150062 772.29744 
L 908.434065 770.468298 
L 914.718068 769.68438 
L 921.002071 782.227083 
L 927.286073 775.433119 
L 933.570076 772.036134 
L 939.854079 770.206992 
L 946.138081 782.488389 
L 952.422084 775.694425 
L 958.706087 758.970819 
L 964.990089 777.000956 
L 971.274092 772.820059 
L 977.558095 783.794919 
L 983.842097 763.151722 
L 990.1261 726.568838 
L 996.410103 760.799968 
L 1002.694106 699.392984 
L 1008.978108 746.950735 
L 1015.262111 757.925595 
L 1021.546114 776.217037 
L 1027.830116 733.362808 
L 1034.114119 698.609072 
L 1040.398122 746.689429 
L 1046.682124 757.664289 
L 1052.966127 737.021093 
L 1059.25013 739.895465 
L 1065.534132 741.202002 
L 1071.818135 715.593972 
L 1078.102138 755.312535 
L 1084.386141 761.845192 
L 1090.670143 765.242177 
L 1096.954146 740.94069 
L 1103.238149 728.659287 
L 1109.522151 709.322626 
L 1115.806154 739.111541 
L 1122.090157 727.614062 
L 1128.374159 604.538807 
L 1134.658162 686.588981 
L 1140.942165 675.352802 
L 1147.226168 721.865329 
L 1153.51017 680.056324 
L 1159.794173 632.759885 
L 1166.078176 661.503576 
L 1172.362178 728.136674 
L 1178.646181 748.518571 
L 1184.930184 719.252269 
L 1191.214186 744.076362 
L 1197.498189 717.16182 
L 1203.782192 742.769832 
L 1210.066194 755.835147 
L 1216.350197 775.171813 
L 1222.6342 772.036134 
L 1228.918203 770.206992 
L 1235.202205 769.423074 
L 1241.486208 769.161768 
L 1247.770211 781.965777 
L 1254.054213 788.237128 
L 1260.338216 778.568792 
L 1266.622219 773.603977 
L 1272.906221 784.056225 
L 1279.190224 776.478344 
L 1285.474227 772.558753 
L 1291.758229 783.533613 
L 1298.042232 763.151722 
L 1304.326235 778.830098 
L 1310.610238 773.865283 
L 1316.89424 771.252216 
L 1316.89424 771.252216 
" clip-path="url(#p93396d8fc9)" style="fill: none; stroke: #1f77b4; stroke-width: 1.5; stroke-linecap: square"/>
   </g>
   <g id="line2d_50">
    <path d="M 1021.546114 737.293756 
L 1027.830116 742.80077 
L 1034.114119 737.879541 
L 1040.398122 728.012971 
L 1046.682124 717.159577 
L 1052.966127 720.045276 
L 1059.25013 723.054517 
L 1065.534132 719.616352 
L 1071.818135 713.197018 
L 1078.102138 720.872325 
L 1084.386141 721.370117 
L 1090.670143 723.634047 
L 1096.954146 725.942334 
L 1103.238149 732.268641 
L 1109.522151 731.661437 
L 1115.806154 732.329757 
L 1122.090157 730.202215 
L 1128.374159 733.281057 
L 1134.658162 734.156526 
L 1140.942165 745.456824 
L 1147.226168 742.982388 
L 1153.51017 749.350037 
L 1159.794173 752.054654 
L 1166.078176 746.396107 
L 1172.362178 753.184089 
L 1178.646181 757.88348 
L 1184.930184 758.678812 
L 1191.214186 765.16019 
L 1197.498189 763.353451 
L 1203.782192 767.895048 
L 1210.066194 771.224823 
L 1216.350197 769.81898 
L 1222.6342 772.294867 
L 1228.918203 770.584071 
L 1235.202205 767.962357 
L 1241.486208 770.482253 
L 1247.770211 771.295191 
L 1254.054213 774.97016 
L 1260.338216 780.888075 
L 1266.622219 787.413786 
L 1272.906221 776.415638 
L 1279.190224 780.090595 
L 1285.474227 778.638743 
L 1291.758229 777.63402 
L 1298.042232 773.563052 
L 1304.326235 776.118921 
L 1310.610238 769.042818 
L 1316.89424 766.513819 
" clip-path="url(#p93396d8fc9)" style="fill: none; stroke: #ff7f0e; stroke-width: 1.5; stroke-linecap: square"/>
   </g>
   <g id="line2d_51">
    <path d="M 1021.546114 811.140625 
L 1021.546114 594.700625 
" clip-path="url(#p93396d8fc9)" style="fill: none; stroke-dasharray: 7.4,3.2; stroke-dashoffset: 0; stroke: #0000ff; stroke-width: 2"/>
   </g>
   <g id="patch_14">
    <path d="M 56.6375 811.140625 
L 56.6375 594.700625 
" style="fill: none; stroke: #000000; stroke-width: 0.8; stroke-linejoin: miter; stroke-linecap: square"/>
   </g>
   <g id="patch_15">
    <path d="M 1376.906466 811.140625 
L 1376.906466 594.700625 
" style="fill: none; stroke: #000000; stroke-width: 0.8; stroke-linejoin: miter; stroke-linecap: square"/>
   </g>
   <g id="patch_16">
    <path d="M 56.6375 811.140625 
L 1376.906466 811.140625 
" style="fill: none; stroke: #000000; stroke-width: 0.8; stroke-linejoin: miter; stroke-linecap: square"/>
   </g>
   <g id="patch_17">
    <path d="M 56.6375 594.700625 
L 1376.906466 594.700625 
" style="fill: none; stroke: #000000; stroke-width: 0.8; stroke-linejoin: miter; stroke-linecap: square"/>
   </g>
   <g id="text_48">
    <!-- API_ID: 4 -->
    <g transform="translate(671.771983 588.700625) scale(0.2 -0.2)">
     <defs>
      <path id="SimSun-34" d="M 2300 575 
Q 2300 400 2400 325 
Q 2500 250 2675 250 
L 2900 250 
L 2900 100 
L 1250 100 
L 1250 250 
L 1525 250 
Q 1725 250 1812 325 
Q 1900 400 1900 575 
L 1900 1400 
L 225 1400 
L 225 1525 
L 2050 4425 
L 2300 4425 
L 2300 1550 
L 2975 1550 
L 2975 1400 
L 2300 1400 
L 2300 575 
z
M 1875 3800 
L 450 1550 
L 1900 1550 
L 1900 3800 
L 1875 3800 
z
" transform="scale(0.015625)"/>
     </defs>
     <use xlink:href="#SimSun-41"/>
     <use xlink:href="#SimSun-50" x="50"/>
     <use xlink:href="#SimSun-49" x="100"/>
     <use xlink:href="#SimSun-5f" x="150"/>
     <use xlink:href="#SimSun-49" x="200"/>
     <use xlink:href="#SimSun-44" x="250"/>
     <use xlink:href="#SimSun-3a" x="300"/>
     <use xlink:href="#SimSun-20" x="350"/>
     <use xlink:href="#SimSun-34" x="400"/>
    </g>
   </g>
  </g>
  <g id="axes_4">
   <g id="patch_18">
    <path d="M 56.6375 1094.820625 
L 1376.906466 1094.820625 
L 1376.906466 878.380625 
L 56.6375 878.380625 
z
" style="fill: #ffffff"/>
   </g>
   <g id="matplotlib.axis_7">
    <g id="xtick_28">
     <g id="line2d_52">
      <g>
       <use xlink:href="#m1ba53d2dc3" x="116.649726" y="1094.820625" style="stroke: #000000; stroke-width: 0.8"/>
      </g>
     </g>
     <g id="text_49">
      <!-- 0 -->
      <g transform="translate(111.649726 1115.708125) scale(0.2 -0.2)">
       <use xlink:href="#TimesNewRomanPSMT-30"/>
      </g>
     </g>
    </g>
    <g id="xtick_29">
     <g id="line2d_53">
      <g>
       <use xlink:href="#m1ba53d2dc3" x="273.749793" y="1094.820625" style="stroke: #000000; stroke-width: 0.8"/>
      </g>
     </g>
     <g id="text_50">
      <!-- 25 -->
      <g transform="translate(263.749793 1115.708125) scale(0.2 -0.2)">
       <use xlink:href="#TimesNewRomanPSMT-32"/>
       <use xlink:href="#TimesNewRomanPSMT-35" x="50"/>
      </g>
     </g>
    </g>
    <g id="xtick_30">
     <g id="line2d_54">
      <g>
       <use xlink:href="#m1ba53d2dc3" x="430.84986" y="1094.820625" style="stroke: #000000; stroke-width: 0.8"/>
      </g>
     </g>
     <g id="text_51">
      <!-- 50 -->
      <g transform="translate(420.84986 1115.708125) scale(0.2 -0.2)">
       <use xlink:href="#TimesNewRomanPSMT-35"/>
       <use xlink:href="#TimesNewRomanPSMT-30" x="50"/>
      </g>
     </g>
    </g>
    <g id="xtick_31">
     <g id="line2d_55">
      <g>
       <use xlink:href="#m1ba53d2dc3" x="587.949928" y="1094.820625" style="stroke: #000000; stroke-width: 0.8"/>
      </g>
     </g>
     <g id="text_52">
      <!-- 75 -->
      <g transform="translate(577.949928 1115.708125) scale(0.2 -0.2)">
       <use xlink:href="#TimesNewRomanPSMT-37"/>
       <use xlink:href="#TimesNewRomanPSMT-35" x="50"/>
      </g>
     </g>
    </g>
    <g id="xtick_32">
     <g id="line2d_56">
      <g>
       <use xlink:href="#m1ba53d2dc3" x="745.049995" y="1094.820625" style="stroke: #000000; stroke-width: 0.8"/>
      </g>
     </g>
     <g id="text_53">
      <!-- 100 -->
      <g transform="translate(730.049995 1115.708125) scale(0.2 -0.2)">
       <use xlink:href="#TimesNewRomanPSMT-31"/>
       <use xlink:href="#TimesNewRomanPSMT-30" x="50"/>
       <use xlink:href="#TimesNewRomanPSMT-30" x="100"/>
      </g>
     </g>
    </g>
    <g id="xtick_33">
     <g id="line2d_57">
      <g>
       <use xlink:href="#m1ba53d2dc3" x="902.150062" y="1094.820625" style="stroke: #000000; stroke-width: 0.8"/>
      </g>
     </g>
     <g id="text_54">
      <!-- 125 -->
      <g transform="translate(887.150062 1115.708125) scale(0.2 -0.2)">
       <use xlink:href="#TimesNewRomanPSMT-31"/>
       <use xlink:href="#TimesNewRomanPSMT-32" x="50"/>
       <use xlink:href="#TimesNewRomanPSMT-35" x="100"/>
      </g>
     </g>
    </g>
    <g id="xtick_34">
     <g id="line2d_58">
      <g>
       <use xlink:href="#m1ba53d2dc3" x="1059.25013" y="1094.820625" style="stroke: #000000; stroke-width: 0.8"/>
      </g>
     </g>
     <g id="text_55">
      <!-- 150 -->
      <g transform="translate(1044.25013 1115.708125) scale(0.2 -0.2)">
       <use xlink:href="#TimesNewRomanPSMT-31"/>
       <use xlink:href="#TimesNewRomanPSMT-35" x="50"/>
       <use xlink:href="#TimesNewRomanPSMT-30" x="100"/>
      </g>
     </g>
    </g>
    <g id="xtick_35">
     <g id="line2d_59">
      <g>
       <use xlink:href="#m1ba53d2dc3" x="1216.350197" y="1094.820625" style="stroke: #000000; stroke-width: 0.8"/>
      </g>
     </g>
     <g id="text_56">
      <!-- 175 -->
      <g transform="translate(1201.350197 1115.708125) scale(0.2 -0.2)">
       <use xlink:href="#TimesNewRomanPSMT-31"/>
       <use xlink:href="#TimesNewRomanPSMT-37" x="50"/>
       <use xlink:href="#TimesNewRomanPSMT-35" x="100"/>
      </g>
     </g>
    </g>
    <g id="xtick_36">
     <g id="line2d_60">
      <g>
       <use xlink:href="#m1ba53d2dc3" x="1373.450264" y="1094.820625" style="stroke: #000000; stroke-width: 0.8"/>
      </g>
     </g>
     <g id="text_57">
      <!-- 200 -->
      <g transform="translate(1358.450264 1115.708125) scale(0.2 -0.2)">
       <use xlink:href="#TimesNewRomanPSMT-32"/>
       <use xlink:href="#TimesNewRomanPSMT-30" x="50"/>
       <use xlink:href="#TimesNewRomanPSMT-30" x="100"/>
      </g>
     </g>
    </g>
   </g>
   <g id="matplotlib.axis_8">
    <g id="ytick_14">
     <g id="line2d_61">
      <g>
       <use xlink:href="#mae5fdd3ff3" x="56.6375" y="1051.885418" style="stroke: #000000; stroke-width: 0.8"/>
      </g>
     </g>
     <g id="text_58">
      <!-- 10 -->
      <g transform="translate(29.6375 1058.829168) scale(0.2 -0.2)">
       <use xlink:href="#TimesNewRomanPSMT-31"/>
       <use xlink:href="#TimesNewRomanPSMT-30" x="50"/>
      </g>
     </g>
    </g>
    <g id="ytick_15">
     <g id="line2d_62">
      <g>
       <use xlink:href="#mae5fdd3ff3" x="56.6375" y="1006.42247" style="stroke: #000000; stroke-width: 0.8"/>
      </g>
     </g>
     <g id="text_59">
      <!-- 20 -->
      <g transform="translate(29.6375 1013.36622) scale(0.2 -0.2)">
       <use xlink:href="#TimesNewRomanPSMT-32"/>
       <use xlink:href="#TimesNewRomanPSMT-30" x="50"/>
      </g>
     </g>
    </g>
    <g id="ytick_16">
     <g id="line2d_63">
      <g>
       <use xlink:href="#mae5fdd3ff3" x="56.6375" y="960.959523" style="stroke: #000000; stroke-width: 0.8"/>
      </g>
     </g>
     <g id="text_60">
      <!-- 30 -->
      <g transform="translate(29.6375 967.903273) scale(0.2 -0.2)">
       <defs>
        <path id="TimesNewRomanPSMT-33" d="M 325 3431 
Q 506 3859 782 4092 
Q 1059 4325 1472 4325 
Q 1981 4325 2253 3994 
Q 2459 3747 2459 3466 
Q 2459 3003 1878 2509 
Q 2269 2356 2469 2072 
Q 2669 1788 2669 1403 
Q 2669 853 2319 450 
Q 1863 -75 997 -75 
Q 569 -75 414 31 
Q 259 138 259 259 
Q 259 350 332 419 
Q 406 488 509 488 
Q 588 488 669 463 
Q 722 447 909 348 
Q 1097 250 1169 231 
Q 1284 197 1416 197 
Q 1734 197 1970 444 
Q 2206 691 2206 1028 
Q 2206 1275 2097 1509 
Q 2016 1684 1919 1775 
Q 1784 1900 1550 2001 
Q 1316 2103 1072 2103 
L 972 2103 
L 972 2197 
Q 1219 2228 1467 2375 
Q 1716 2522 1828 2728 
Q 1941 2934 1941 3181 
Q 1941 3503 1739 3701 
Q 1538 3900 1238 3900 
Q 753 3900 428 3381 
L 325 3431 
z
" transform="scale(0.015625)"/>
       </defs>
       <use xlink:href="#TimesNewRomanPSMT-33"/>
       <use xlink:href="#TimesNewRomanPSMT-30" x="50"/>
      </g>
     </g>
    </g>
    <g id="ytick_17">
     <g id="line2d_64">
      <g>
       <use xlink:href="#mae5fdd3ff3" x="56.6375" y="915.496575" style="stroke: #000000; stroke-width: 0.8"/>
      </g>
     </g>
     <g id="text_61">
      <!-- 40 -->
      <g transform="translate(29.6375 922.440325) scale(0.2 -0.2)">
       <use xlink:href="#TimesNewRomanPSMT-34"/>
       <use xlink:href="#TimesNewRomanPSMT-30" x="50"/>
      </g>
     </g>
    </g>
    <g id="text_62">
     <!-- CPU使用率 -->
     <g transform="translate(23.059375 1031.600625) rotate(-90) scale(0.2 -0.2)">
      <use xlink:href="#SimSun-43"/>
      <use xlink:href="#SimSun-50" x="50"/>
      <use xlink:href="#SimSun-55" x="100"/>
      <use xlink:href="#SimSun-4f7f" x="150"/>
      <use xlink:href="#SimSun-7528" x="250"/>
      <use xlink:href="#SimSun-7387" x="350"/>
     </g>
    </g>
   </g>
   <g id="line2d_65">
    <path d="M 116.649726 1018.742925 
L 122.933728 1017.151729 
L 129.217731 1027.699131 
L 135.501734 1007.968211 
L 141.785737 1014.014783 
L 148.069739 1001.103305 
L 154.353742 1017.424504 
L 160.637745 1052.84014 
L 166.921747 1052.340049 
L 173.20575 1063.47847 
L 179.489753 1073.616707 
L 185.773755 1074.116798 
L 192.057758 1081.163556 
L 198.341761 1068.797635 
L 204.625763 1069.434116 
L 210.909766 1056.113473 
L 217.193769 1074.480502 
L 223.477772 1067.706523 
L 229.761774 1009.786727 
L 236.045777 974.007384 
L 242.32978 983.418213 
L 248.613782 974.462015 
L 254.897785 929.044532 
L 261.181788 924.543709 
L 267.46579 901.857691 
L 273.749793 892.765119 
L 280.033796 888.218807 
L 286.317798 901.857691 
L 292.601801 913.223428 
L 298.885804 907.540559 
L 305.169807 895.583799 
L 311.453809 937.364259 
L 317.737812 958.277208 
L 324.021815 977.780817 
L 330.305817 980.735898 
L 336.58982 961.777857 
L 342.873823 952.2761 
L 349.157825 963.414517 
L 355.441828 975.8259 
L 361.725831 975.234885 
L 368.009833 1004.467562 
L 374.293836 1005.42228 
L 380.577839 1028.653853 
L 386.861842 1056.204397 
L 393.145844 1051.74903 
L 399.429847 1049.566806 
L 405.71385 1055.249675 
L 411.997852 1035.382371 
L 418.281855 1039.110327 
L 424.565858 1027.289964 
L 430.84986 1044.156717 
L 437.133863 1011.650707 
L 443.417866 999.921267 
L 449.701868 982.73627 
L 455.985871 978.644606 
L 462.269874 965.278498 
L 468.553877 972.188868 
L 474.837879 975.689517 
L 481.121882 979.690261 
L 487.405885 1024.880429 
L 493.689887 1040.656073 
L 499.97389 1037.155424 
L 506.257893 1035.427831 
L 512.541895 1025.471448 
L 518.825898 1040.974308 
L 525.109901 1007.786355 
L 531.393904 1016.197002 
L 537.677906 1029.472183 
L 543.961909 1029.335795 
L 550.245912 1047.430051 
L 556.529914 1045.111439 
L 562.813917 1048.475697 
L 569.09792 1061.569026 
L 575.381922 1061.250784 
L 581.665925 1061.114397 
L 587.949928 1072.43467 
L 594.23393 1057.61375 
L 600.517933 1070.661615 
L 606.801936 1052.158193 
L 613.085939 1047.47551 
L 619.369941 1047.430051 
L 625.653944 1015.560524 
L 631.937947 1004.149323 
L 638.221949 973.461833 
L 644.505952 937.682498 
L 650.789955 942.50156 
L 657.073957 949.457403 
L 663.35796 948.366284 
L 669.641963 945.593042 
L 675.925965 900.993901 
L 682.209968 905.949363 
L 688.493971 908.449822 
L 694.777974 916.542221 
L 701.061976 954.640167 
L 707.345979 989.64664 
L 713.629982 1002.558118 
L 719.913984 1031.790799 
L 726.197987 1039.564959 
L 732.48199 1029.790427 
L 738.765992 1043.111067 
L 745.049995 1061.159859 
L 751.333998 1047.430051 
L 757.618 1061.023471 
L 763.902003 1067.797449 
L 770.186006 1062.114581 
L 776.470009 1075.20791 
L 782.754011 1081.709111 
L 789.038014 1084.982443 
L 795.322017 1068.43393 
L 801.606019 1060.159673 
L 807.890022 1042.383661 
L 820.458027 1051.79449 
L 826.74203 1033.654775 
L 833.026033 1022.289038 
L 839.310036 1009.832191 
L 845.594038 1003.558308 
L 851.878041 1007.286269 
L 858.162044 995.465892 
L 864.446046 1005.513208 
L 870.730049 990.055807 
L 877.014052 991.419692 
L 883.298054 1005.740519 
L 889.582057 1028.790241 
L 895.86606 1031.24524 
L 902.150062 1034.745889 
L 908.434065 1009.241168 
L 914.718068 1030.563297 
L 921.002071 1011.650707 
L 927.286073 1018.15191 
L 933.570076 996.375154 
L 939.854079 1017.288112 
L 946.138081 1034.609497 
L 952.422084 1034.15487 
L 958.706087 1013.469224 
L 964.990089 1014.469414 
L 971.274092 1017.288112 
L 977.558095 1030.017742 
L 983.842097 1022.789133 
L 990.1261 1000.966922 
L 996.410103 994.602102 
L 1002.694106 993.69284 
L 1008.978108 997.784503 
L 1015.262111 1013.469224 
L 1021.546114 978.099047 
L 1027.830116 971.825164 
L 1034.114119 943.638151 
L 1040.398122 950.048426 
L 1046.682124 935.045639 
L 1052.966127 943.456295 
L 1059.25013 945.36573 
L 1065.534132 969.097386 
L 1071.818135 926.362217 
L 1078.102138 936.864164 
L 1084.386141 932.999803 
L 1090.670143 931.044895 
L 1096.954146 927.81703 
L 1103.238149 964.86933 
L 1109.522151 987.919043 
L 1115.806154 1008.513762 
L 1122.090157 1041.565331 
L 1128.374159 1039.928662 
L 1134.658162 1036.79172 
L 1140.942165 1032.972832 
L 1147.226168 994.693021 
L 1153.51017 984.645714 
L 1159.794173 991.010534 
L 1166.078176 1010.059502 
L 1172.362178 1005.967839 
L 1178.646181 999.375708 
L 1184.930184 1016.560705 
L 1191.214186 1016.015146 
L 1197.498189 1020.33413 
L 1203.782192 983.82738 
L 1210.066194 992.82905 
L 1216.350197 974.643871 
L 1222.6342 999.603019 
L 1228.918203 984.827561 
L 1235.202205 986.555158 
L 1241.486208 1001.012377 
L 1247.770211 1015.105892 
L 1254.054213 1026.653481 
L 1260.338216 1039.292179 
L 1266.622219 1038.746629 
L 1272.906221 1031.699871 
L 1279.190224 1019.061173 
L 1285.474227 999.102933 
L 1291.758229 998.193679 
L 1298.042232 1000.057651 
L 1304.326235 1025.971538 
L 1310.610238 1050.294217 
L 1316.89424 1057.886525 
L 1316.89424 1057.886525 
" clip-path="url(#p70f766c189)" style="fill: none; stroke: #1f77b4; stroke-width: 1.5; stroke-linecap: square"/>
   </g>
   <g id="line2d_66">
    <path d="M 1021.546114 988.760157 
L 1027.830116 977.39782 
L 1034.114119 962.387212 
L 1040.398122 965.577443 
L 1046.682124 960.038779 
L 1052.966127 955.031827 
L 1059.25013 959.70997 
L 1065.534132 967.857397 
L 1071.818135 974.399096 
L 1078.102138 980.802824 
L 1084.386141 982.468143 
L 1090.670143 991.588385 
L 1096.954146 1004.293215 
L 1103.238149 1008.665493 
L 1109.522151 1017.531032 
L 1115.806154 1025.658931 
L 1122.090157 1034.287121 
L 1128.374159 1036.654873 
L 1134.658162 1047.955024 
L 1140.942165 1051.1869 
L 1147.226168 1062.458721 
L 1153.51017 1060.759467 
L 1159.794173 1059.697653 
L 1166.078176 1064.693259 
L 1172.362178 1063.475994 
L 1178.646181 1066.442693 
L 1184.930184 1056.988549 
L 1191.214186 1050.495107 
L 1197.498189 1048.399042 
L 1203.782192 1035.605126 
L 1210.066194 1035.496547 
L 1216.350197 1026.636593 
L 1222.6342 1031.199125 
L 1228.918203 1020.888299 
L 1235.202205 1013.510334 
L 1241.486208 1007.562469 
L 1247.770211 1004.820027 
L 1254.054213 1002.595639 
L 1260.338216 1002.728346 
L 1266.622219 999.058553 
L 1272.906221 1011.911109 
L 1279.190224 1013.153785 
L 1285.474227 1013.486887 
L 1291.758229 1028.095404 
L 1298.042232 1028.34778 
L 1304.326235 1033.004799 
L 1310.610238 1028.576439 
L 1316.89424 1030.14463 
" clip-path="url(#p70f766c189)" style="fill: none; stroke: #ff7f0e; stroke-width: 1.5; stroke-linecap: square"/>
   </g>
   <g id="line2d_67">
    <path d="M 1021.546114 1094.820625 
L 1021.546114 878.380625 
" clip-path="url(#p70f766c189)" style="fill: none; stroke-dasharray: 7.4,3.2; stroke-dashoffset: 0; stroke: #0000ff; stroke-width: 2"/>
   </g>
   <g id="patch_19">
    <path d="M 56.6375 1094.820625 
L 56.6375 878.380625 
" style="fill: none; stroke: #000000; stroke-width: 0.8; stroke-linejoin: miter; stroke-linecap: square"/>
   </g>
   <g id="patch_20">
    <path d="M 1376.906466 1094.820625 
L 1376.906466 878.380625 
" style="fill: none; stroke: #000000; stroke-width: 0.8; stroke-linejoin: miter; stroke-linecap: square"/>
   </g>
   <g id="patch_21">
    <path d="M 56.6375 1094.820625 
L 1376.906466 1094.820625 
" style="fill: none; stroke: #000000; stroke-width: 0.8; stroke-linejoin: miter; stroke-linecap: square"/>
   </g>
   <g id="patch_22">
    <path d="M 56.6375 878.380625 
L 1376.906466 878.380625 
" style="fill: none; stroke: #000000; stroke-width: 0.8; stroke-linejoin: miter; stroke-linecap: square"/>
   </g>
   <g id="text_63">
    <!-- API_ID: 5 -->
    <g transform="translate(671.771983 872.380625) scale(0.2 -0.2)">
     <defs>
      <path id="SimSun-35" d="M 1725 2850 
Q 2200 2850 2500 2487 
Q 2800 2125 2800 1525 
Q 2800 850 2487 450 
Q 2175 50 1525 50 
Q 1075 50 725 312 
Q 375 575 375 950 
Q 375 1100 462 1212 
Q 550 1325 700 1325 
Q 850 1325 900 1225 
Q 950 1125 950 1050 
Q 950 900 875 825 
Q 800 725 800 625 
Q 800 425 1037 325 
Q 1275 225 1550 225 
Q 1950 225 2162 550 
Q 2375 875 2375 1475 
Q 2375 1975 2187 2287 
Q 2000 2600 1625 2600 
Q 1350 2600 1150 2500 
Q 950 2400 775 2075 
L 550 2100 
L 675 4375 
L 2725 4375 
L 2650 4000 
L 850 4000 
L 750 2350 
Q 1000 2700 1237 2775 
Q 1475 2850 1725 2850 
z
" transform="scale(0.015625)"/>
     </defs>
     <use xlink:href="#SimSun-41"/>
     <use xlink:href="#SimSun-50" x="50"/>
     <use xlink:href="#SimSun-49" x="100"/>
     <use xlink:href="#SimSun-5f" x="150"/>
     <use xlink:href="#SimSun-49" x="200"/>
     <use xlink:href="#SimSun-44" x="250"/>
     <use xlink:href="#SimSun-3a" x="300"/>
     <use xlink:href="#SimSun-20" x="350"/>
     <use xlink:href="#SimSun-35" x="400"/>
    </g>
   </g>
  </g>
  <g id="axes_5">
   <g id="patch_23">
    <path d="M 56.6375 1378.500625 
L 1376.906466 1378.500625 
L 1376.906466 1162.060625 
L 56.6375 1162.060625 
z
" style="fill: #ffffff"/>
   </g>
   <g id="matplotlib.axis_9">
    <g id="xtick_37">
     <g id="line2d_68">
      <g>
       <use xlink:href="#m1ba53d2dc3" x="116.649726" y="1378.500625" style="stroke: #000000; stroke-width: 0.8"/>
      </g>
     </g>
     <g id="text_64">
      <!-- 0 -->
      <g transform="translate(111.649726 1399.388125) scale(0.2 -0.2)">
       <use xlink:href="#TimesNewRomanPSMT-30"/>
      </g>
     </g>
    </g>
    <g id="xtick_38">
     <g id="line2d_69">
      <g>
       <use xlink:href="#m1ba53d2dc3" x="273.749793" y="1378.500625" style="stroke: #000000; stroke-width: 0.8"/>
      </g>
     </g>
     <g id="text_65">
      <!-- 25 -->
      <g transform="translate(263.749793 1399.388125) scale(0.2 -0.2)">
       <use xlink:href="#TimesNewRomanPSMT-32"/>
       <use xlink:href="#TimesNewRomanPSMT-35" x="50"/>
      </g>
     </g>
    </g>
    <g id="xtick_39">
     <g id="line2d_70">
      <g>
       <use xlink:href="#m1ba53d2dc3" x="430.84986" y="1378.500625" style="stroke: #000000; stroke-width: 0.8"/>
      </g>
     </g>
     <g id="text_66">
      <!-- 50 -->
      <g transform="translate(420.84986 1399.388125) scale(0.2 -0.2)">
       <use xlink:href="#TimesNewRomanPSMT-35"/>
       <use xlink:href="#TimesNewRomanPSMT-30" x="50"/>
      </g>
     </g>
    </g>
    <g id="xtick_40">
     <g id="line2d_71">
      <g>
       <use xlink:href="#m1ba53d2dc3" x="587.949928" y="1378.500625" style="stroke: #000000; stroke-width: 0.8"/>
      </g>
     </g>
     <g id="text_67">
      <!-- 75 -->
      <g transform="translate(577.949928 1399.388125) scale(0.2 -0.2)">
       <use xlink:href="#TimesNewRomanPSMT-37"/>
       <use xlink:href="#TimesNewRomanPSMT-35" x="50"/>
      </g>
     </g>
    </g>
    <g id="xtick_41">
     <g id="line2d_72">
      <g>
       <use xlink:href="#m1ba53d2dc3" x="745.049995" y="1378.500625" style="stroke: #000000; stroke-width: 0.8"/>
      </g>
     </g>
     <g id="text_68">
      <!-- 100 -->
      <g transform="translate(730.049995 1399.388125) scale(0.2 -0.2)">
       <use xlink:href="#TimesNewRomanPSMT-31"/>
       <use xlink:href="#TimesNewRomanPSMT-30" x="50"/>
       <use xlink:href="#TimesNewRomanPSMT-30" x="100"/>
      </g>
     </g>
    </g>
    <g id="xtick_42">
     <g id="line2d_73">
      <g>
       <use xlink:href="#m1ba53d2dc3" x="902.150062" y="1378.500625" style="stroke: #000000; stroke-width: 0.8"/>
      </g>
     </g>
     <g id="text_69">
      <!-- 125 -->
      <g transform="translate(887.150062 1399.388125) scale(0.2 -0.2)">
       <use xlink:href="#TimesNewRomanPSMT-31"/>
       <use xlink:href="#TimesNewRomanPSMT-32" x="50"/>
       <use xlink:href="#TimesNewRomanPSMT-35" x="100"/>
      </g>
     </g>
    </g>
    <g id="xtick_43">
     <g id="line2d_74">
      <g>
       <use xlink:href="#m1ba53d2dc3" x="1059.25013" y="1378.500625" style="stroke: #000000; stroke-width: 0.8"/>
      </g>
     </g>
     <g id="text_70">
      <!-- 150 -->
      <g transform="translate(1044.25013 1399.388125) scale(0.2 -0.2)">
       <use xlink:href="#TimesNewRomanPSMT-31"/>
       <use xlink:href="#TimesNewRomanPSMT-35" x="50"/>
       <use xlink:href="#TimesNewRomanPSMT-30" x="100"/>
      </g>
     </g>
    </g>
    <g id="xtick_44">
     <g id="line2d_75">
      <g>
       <use xlink:href="#m1ba53d2dc3" x="1216.350197" y="1378.500625" style="stroke: #000000; stroke-width: 0.8"/>
      </g>
     </g>
     <g id="text_71">
      <!-- 175 -->
      <g transform="translate(1201.350197 1399.388125) scale(0.2 -0.2)">
       <use xlink:href="#TimesNewRomanPSMT-31"/>
       <use xlink:href="#TimesNewRomanPSMT-37" x="50"/>
       <use xlink:href="#TimesNewRomanPSMT-35" x="100"/>
      </g>
     </g>
    </g>
    <g id="xtick_45">
     <g id="line2d_76">
      <g>
       <use xlink:href="#m1ba53d2dc3" x="1373.450264" y="1378.500625" style="stroke: #000000; stroke-width: 0.8"/>
      </g>
     </g>
     <g id="text_72">
      <!-- 200 -->
      <g transform="translate(1358.450264 1399.388125) scale(0.2 -0.2)">
       <use xlink:href="#TimesNewRomanPSMT-32"/>
       <use xlink:href="#TimesNewRomanPSMT-30" x="50"/>
       <use xlink:href="#TimesNewRomanPSMT-30" x="100"/>
      </g>
     </g>
    </g>
   </g>
   <g id="matplotlib.axis_10">
    <g id="ytick_18">
     <g id="line2d_77">
      <g>
       <use xlink:href="#mae5fdd3ff3" x="56.6375" y="1376.378665" style="stroke: #000000; stroke-width: 0.8"/>
      </g>
     </g>
     <g id="text_73">
      <!-- 0 -->
      <g transform="translate(39.6375 1383.322415) scale(0.2 -0.2)">
       <use xlink:href="#TimesNewRomanPSMT-30"/>
      </g>
     </g>
    </g>
    <g id="ytick_19">
     <g id="line2d_78">
      <g>
       <use xlink:href="#mae5fdd3ff3" x="56.6375" y="1299.216454" style="stroke: #000000; stroke-width: 0.8"/>
      </g>
     </g>
     <g id="text_74">
      <!-- 20 -->
      <g transform="translate(29.6375 1306.160204) scale(0.2 -0.2)">
       <use xlink:href="#TimesNewRomanPSMT-32"/>
       <use xlink:href="#TimesNewRomanPSMT-30" x="50"/>
      </g>
     </g>
    </g>
    <g id="ytick_20">
     <g id="line2d_79">
      <g>
       <use xlink:href="#mae5fdd3ff3" x="56.6375" y="1222.054244" style="stroke: #000000; stroke-width: 0.8"/>
      </g>
     </g>
     <g id="text_75">
      <!-- 40 -->
      <g transform="translate(29.6375 1228.997994) scale(0.2 -0.2)">
       <use xlink:href="#TimesNewRomanPSMT-34"/>
       <use xlink:href="#TimesNewRomanPSMT-30" x="50"/>
      </g>
     </g>
    </g>
    <g id="text_76">
     <!-- CPU使用率 -->
     <g transform="translate(23.059375 1315.280625) rotate(-90) scale(0.2 -0.2)">
      <use xlink:href="#SimSun-43"/>
      <use xlink:href="#SimSun-50" x="50"/>
      <use xlink:href="#SimSun-55" x="100"/>
      <use xlink:href="#SimSun-4f7f" x="150"/>
      <use xlink:href="#SimSun-7528" x="250"/>
      <use xlink:href="#SimSun-7387" x="350"/>
     </g>
    </g>
   </g>
   <g id="line2d_80">
    <path d="M 116.649726 1287.642116 
L 122.933728 1264.493452 
L 129.217731 1195.04747 
L 135.501734 1225.912354 
L 141.785737 1191.189374 
L 148.069739 1195.04747 
L 154.353742 1195.04747 
L 160.637745 1222.054244 
L 166.921747 1229.77048 
L 173.20575 1210.479912 
L 179.489753 1195.04747 
L 185.773755 1276.067791 
L 192.057758 1276.067791 
L 198.341761 1291.500233 
L 204.625763 1279.925894 
L 210.909766 1245.202907 
L 217.193769 1245.202907 
L 223.477772 1272.209673 
L 229.761774 1283.784012 
L 236.045777 1272.209673 
L 242.32978 1322.365118 
L 248.613782 1299.216454 
L 254.897785 1337.79756 
L 261.181788 1364.804334 
L 267.46579 1333.939449 
L 273.749793 1333.939449 
L 280.033796 1345.513781 
L 286.317798 1306.932676 
L 292.601801 1330.081339 
L 298.885804 1306.932676 
L 305.169807 1345.513781 
L 311.453809 1276.067791 
L 317.737812 1283.784012 
L 324.021815 1264.493452 
L 330.305817 1272.209673 
L 336.58982 1252.919128 
L 342.873823 1276.067791 
L 349.157825 1276.067791 
L 355.441828 1279.925894 
L 361.725831 1353.230002 
L 368.009833 1341.65567 
L 374.293836 1322.365118 
L 380.577839 1322.365118 
L 386.861842 1306.932676 
L 393.145844 1341.65567 
L 399.429847 1272.209673 
L 405.71385 1314.6489 
L 411.997852 1330.081339 
L 418.281855 1318.507011 
L 424.565858 1349.371891 
L 430.84986 1330.081339 
L 437.133863 1337.79756 
L 443.417866 1357.088112 
L 449.701868 1345.513781 
L 455.985871 1345.513781 
L 462.269874 1364.804334 
L 468.553877 1330.081339 
L 474.837879 1364.804334 
L 481.121882 1322.365118 
L 487.405885 1330.081339 
L 493.689887 1333.939449 
L 499.97389 1279.925894 
L 506.257893 1287.642116 
L 512.541895 1245.202907 
L 518.825898 1210.479912 
L 525.109901 1249.061018 
L 531.393904 1256.777239 
L 537.677906 1249.061018 
L 543.961909 1245.202907 
L 550.245912 1171.898807 
L 556.529914 1218.196148 
L 562.813917 1218.196148 
L 569.09792 1229.77048 
L 575.381922 1287.642116 
L 581.665925 1314.6489 
L 587.949928 1306.932676 
L 594.23393 1345.513781 
L 600.517933 1333.939449 
L 606.801936 1310.790786 
L 613.085939 1341.65567 
L 619.369941 1360.946223 
L 625.653944 1322.365118 
L 631.937947 1357.088112 
L 638.221949 1357.088112 
L 644.505952 1341.65567 
L 650.789955 1368.662443 
L 663.35796 1368.662443 
L 669.641963 1337.79756 
L 675.925965 1337.79756 
L 682.209968 1314.6489 
L 688.493971 1337.79756 
L 694.777974 1341.65567 
L 701.061976 1306.932676 
L 707.345979 1303.074565 
L 713.629982 1291.500233 
L 719.913984 1291.500233 
L 726.197987 1303.074565 
L 732.48199 1279.925894 
L 738.765992 1306.932676 
L 745.049995 1272.209673 
L 751.333998 1287.642116 
L 757.618 1310.790786 
L 763.902003 1337.79756 
L 770.186006 1322.365118 
L 776.470009 1326.223228 
L 782.754011 1279.925894 
L 789.038014 1337.79756 
L 795.322017 1287.642116 
L 801.606019 1314.6489 
L 807.890022 1272.209673 
L 814.174025 1326.223228 
L 820.458027 1337.79756 
L 826.74203 1322.365118 
L 833.026033 1287.642116 
L 839.310036 1306.932676 
L 845.594038 1310.790786 
L 851.878041 1330.081339 
L 858.162044 1306.932676 
L 864.446046 1276.067791 
L 870.730049 1283.784012 
L 877.014052 1287.642116 
L 883.298054 1295.358344 
L 889.582057 1318.507011 
L 895.86606 1245.202907 
L 902.150062 1264.493452 
L 908.434065 1222.054244 
L 914.718068 1256.777239 
L 921.002071 1225.912354 
L 927.286073 1252.919128 
L 933.570076 1249.061018 
L 939.854079 1287.642116 
L 946.138081 1195.04747 
L 952.422084 1249.061018 
L 958.706087 1233.628575 
L 964.990089 1233.628575 
L 971.274092 1229.77048 
L 977.558095 1295.358344 
L 983.842097 1303.074565 
L 990.1261 1318.507011 
L 996.410103 1357.088112 
L 1002.694106 1326.223228 
L 1015.262111 1318.507011 
L 1021.546114 1256.777239 
L 1027.830116 1272.209673 
L 1034.114119 1291.500233 
L 1040.398122 1318.507011 
L 1046.682124 1295.358344 
L 1052.966127 1287.642116 
L 1059.25013 1322.365118 
L 1065.534132 1306.932676 
L 1071.818135 1314.6489 
L 1078.102138 1249.061018 
L 1084.386141 1295.358344 
L 1090.670143 1256.777239 
L 1096.954146 1314.6489 
L 1103.238149 1268.35157 
L 1109.522151 1283.784012 
L 1115.806154 1306.932676 
L 1122.090157 1318.507011 
L 1128.374159 1326.223228 
L 1134.658162 1337.79756 
L 1147.226168 1314.6489 
L 1153.51017 1299.216454 
L 1159.794173 1276.067791 
L 1166.078176 1291.500233 
L 1172.362178 1295.358344 
L 1178.646181 1337.79756 
L 1184.930184 1357.088112 
L 1197.498189 1341.65567 
L 1203.782192 1357.088112 
L 1210.066194 1368.662443 
L 1216.350197 1337.79756 
L 1222.6342 1364.804334 
L 1228.918203 1345.513781 
L 1241.486208 1322.365118 
L 1247.770211 1330.081339 
L 1254.054213 1322.365118 
L 1260.338216 1318.507011 
L 1266.622219 1303.074565 
L 1272.906221 1318.507011 
L 1279.190224 1279.925894 
L 1285.474227 1306.932676 
L 1291.758229 1264.493452 
L 1298.042232 1245.202907 
L 1304.326235 1272.209673 
L 1310.610238 1272.209673 
L 1316.89424 1322.365118 
L 1316.89424 1322.365118 
" clip-path="url(#p94f7657dac)" style="fill: none; stroke: #1f77b4; stroke-width: 1.5; stroke-linecap: square"/>
   </g>
   <g id="line2d_81">
    <path d="M 1021.546114 1340.337893 
L 1027.830116 1336.546614 
L 1034.114119 1333.096073 
L 1040.398122 1337.484555 
L 1046.682124 1353.987077 
L 1052.966127 1345.57089 
L 1059.25013 1347.830961 
L 1065.534132 1348.567831 
L 1071.818135 1333.344504 
L 1078.102138 1331.39444 
L 1084.386141 1324.931607 
L 1090.670143 1318.61326 
L 1096.954146 1315.05839 
L 1103.238149 1301.543876 
L 1109.522151 1296.99675 
L 1115.806154 1298.89016 
L 1122.090157 1297.604893 
L 1128.374159 1292.838954 
L 1134.658162 1297.57077 
L 1140.942165 1298.564034 
L 1147.226168 1303.840082 
L 1153.51017 1302.691225 
L 1159.794173 1306.313553 
L 1166.078176 1320.548872 
L 1172.362178 1313.962692 
L 1178.646181 1315.295379 
L 1184.930184 1307.749174 
L 1191.214186 1307.182351 
L 1197.498189 1304.180366 
L 1203.782192 1296.620813 
L 1210.066194 1299.744357 
L 1216.350197 1296.132029 
L 1222.6342 1296.235111 
L 1228.918203 1297.309998 
L 1235.202205 1295.254026 
L 1241.486208 1291.706463 
L 1247.770211 1284.45012 
L 1254.054213 1283.096807 
L 1260.338216 1270.569104 
L 1266.622219 1266.171544 
L 1272.906221 1272.038354 
L 1279.190224 1263.010206 
L 1285.474227 1258.454381 
L 1291.758229 1257.256662 
L 1298.042232 1261.645037 
L 1304.326235 1251.440179 
L 1310.610238 1254.053503 
L 1316.89424 1255.96606 
" clip-path="url(#p94f7657dac)" style="fill: none; stroke: #ff7f0e; stroke-width: 1.5; stroke-linecap: square"/>
   </g>
   <g id="line2d_82">
    <path d="M 1021.546114 1378.500625 
L 1021.546114 1162.060625 
" clip-path="url(#p94f7657dac)" style="fill: none; stroke-dasharray: 7.4,3.2; stroke-dashoffset: 0; stroke: #0000ff; stroke-width: 2"/>
   </g>
   <g id="patch_24">
    <path d="M 56.6375 1378.500625 
L 56.6375 1162.060625 
" style="fill: none; stroke: #000000; stroke-width: 0.8; stroke-linejoin: miter; stroke-linecap: square"/>
   </g>
   <g id="patch_25">
    <path d="M 1376.906466 1378.500625 
L 1376.906466 1162.060625 
" style="fill: none; stroke: #000000; stroke-width: 0.8; stroke-linejoin: miter; stroke-linecap: square"/>
   </g>
   <g id="patch_26">
    <path d="M 56.6375 1378.500625 
L 1376.906466 1378.500625 
" style="fill: none; stroke: #000000; stroke-width: 0.8; stroke-linejoin: miter; stroke-linecap: square"/>
   </g>
   <g id="patch_27">
    <path d="M 56.6375 1162.060625 
L 1376.906466 1162.060625 
" style="fill: none; stroke: #000000; stroke-width: 0.8; stroke-linejoin: miter; stroke-linecap: square"/>
   </g>
   <g id="text_77">
    <!-- API_ID: 36 -->
    <g transform="translate(666.771983 1156.060625) scale(0.2 -0.2)">
     <defs>
      <path id="SimSun-36" d="M 775 1800 
Q 775 1050 1037 637 
Q 1300 225 1675 225 
Q 2050 225 2250 500 
Q 2450 775 2450 1525 
Q 2450 2025 2237 2300 
Q 2025 2575 1725 2575 
Q 1450 2575 1212 2412 
Q 975 2250 775 1800 
z
M 1750 2825 
Q 2350 2825 2612 2425 
Q 2875 2025 2875 1525 
Q 2875 775 2512 412 
Q 2150 50 1675 50 
Q 1000 50 650 562 
Q 300 1075 300 2050 
Q 300 3200 725 3812 
Q 1150 4425 1875 4425 
Q 2225 4425 2437 4225 
Q 2650 4025 2650 3875 
Q 2650 3725 2587 3650 
Q 2525 3575 2375 3575 
Q 2250 3575 2187 3637 
Q 2125 3700 2125 3825 
Q 2125 3875 2150 3925 
Q 2150 3975 2150 4025 
Q 2150 4125 2075 4187 
Q 2000 4250 1800 4250 
Q 1375 4250 1075 3862 
Q 775 3475 775 2175 
Q 925 2500 1187 2662 
Q 1450 2825 1750 2825 
z
" transform="scale(0.015625)"/>
     </defs>
     <use xlink:href="#SimSun-41"/>
     <use xlink:href="#SimSun-50" x="50"/>
     <use xlink:href="#SimSun-49" x="100"/>
     <use xlink:href="#SimSun-5f" x="150"/>
     <use xlink:href="#SimSun-49" x="200"/>
     <use xlink:href="#SimSun-44" x="250"/>
     <use xlink:href="#SimSun-3a" x="300"/>
     <use xlink:href="#SimSun-20" x="350"/>
     <use xlink:href="#SimSun-33" x="400"/>
     <use xlink:href="#SimSun-36" x="450"/>
    </g>
   </g>
  </g>
 </g>
 <defs>
  <clipPath id="p0239578350">
   <rect x="56.6375" y="27.340625" width="1320.268966" height="216.44"/>
  </clipPath>
  <clipPath id="p8080d9d81e">
   <rect x="56.6375" y="311.020625" width="1320.268966" height="216.44"/>
  </clipPath>
  <clipPath id="p93396d8fc9">
   <rect x="56.6375" y="594.700625" width="1320.268966" height="216.44"/>
  </clipPath>
  <clipPath id="p70f766c189">
   <rect x="56.6375" y="878.380625" width="1320.268966" height="216.44"/>
  </clipPath>
  <clipPath id="p94f7657dac">
   <rect x="56.6375" y="1162.060625" width="1320.268966" height="216.44"/>
  </clipPath>
 </defs>
</svg>
