<?xml version="1.0" encoding="utf-8" standalone="no"?>
<!DOCTYPE svg PUBLIC "-//W3C//DTD SVG 1.1//EN"
  "http://www.w3.org/Graphics/SVG/1.1/DTD/svg11.dtd">
<svg xmlns:xlink="http://www.w3.org/1999/xlink" width="1395.590422pt" height="1411.34625pt" viewBox="0 0 1395.590422 1411.34625" xmlns="http://www.w3.org/2000/svg" version="1.1">
 <metadata>
  <rdf:RDF xmlns:dc="http://purl.org/dc/elements/1.1/" xmlns:cc="http://creativecommons.org/ns#" xmlns:rdf="http://www.w3.org/1999/02/22-rdf-syntax-ns#">
   <cc:Work>
    <dc:type rdf:resource="http://purl.org/dc/dcmitype/StillImage"/>
    <dc:date>2024-02-28T10:10:30.462677</dc:date>
    <dc:format>image/svg+xml</dc:format>
    <dc:creator>
     <cc:Agent>
      <dc:title>Matplotlib v3.7.4, https://matplotlib.org/</dc:title>
     </cc:Agent>
    </dc:creator>
   </cc:Work>
  </rdf:RDF>
 </metadata>
 <defs>
  <style type="text/css">*{stroke-linejoin: round; stroke-linecap: butt}</style>
 </defs>
 <g id="figure_1">
  <g id="patch_1">
   <path d="M 0 1411.34625 
L 1395.590422 1411.34625 
L 1395.590422 0 
L 0 0 
z
" style="fill: #ffffff"/>
  </g>
  <g id="axes_1">
   <g id="patch_2">
    <path d="M 56.6375 244.260625 
L 1376.846466 244.260625 
L 1376.846466 27.340625 
L 56.6375 27.340625 
z
" style="fill: #ffffff"/>
   </g>
   <g id="matplotlib.axis_1">
    <g id="xtick_1">
     <g id="line2d_1">
      <defs>
       <path id="m8215083493" d="M 0 0 
L 0 3.5 
" style="stroke: #000000; stroke-width: 0.8"/>
      </defs>
      <g>
       <use xlink:href="#m8215083493" x="116.646998" y="244.260625" style="stroke: #000000; stroke-width: 0.8"/>
      </g>
     </g>
     <g id="text_1">
      <!-- 0 -->
      <g transform="translate(111.646998 265.148125) scale(0.2 -0.2)">
       <defs>
        <path id="TimesNewRomanPSMT-30" d="M 231 2094 
Q 231 2819 450 3342 
Q 669 3866 1031 4122 
Q 1313 4325 1613 4325 
Q 2100 4325 2488 3828 
Q 2972 3213 2972 2159 
Q 2972 1422 2759 906 
Q 2547 391 2217 158 
Q 1888 -75 1581 -75 
Q 975 -75 572 641 
Q 231 1244 231 2094 
z
M 844 2016 
Q 844 1141 1059 588 
Q 1238 122 1591 122 
Q 1759 122 1940 273 
Q 2122 425 2216 781 
Q 2359 1319 2359 2297 
Q 2359 3022 2209 3506 
Q 2097 3866 1919 4016 
Q 1791 4119 1609 4119 
Q 1397 4119 1231 3928 
Q 1006 3669 925 3112 
Q 844 2556 844 2016 
z
" transform="scale(0.015625)"/>
       </defs>
       <use xlink:href="#TimesNewRomanPSMT-30"/>
      </g>
     </g>
    </g>
    <g id="xtick_2">
     <g id="line2d_2">
      <g>
       <use xlink:href="#m8215083493" x="273.739926" y="244.260625" style="stroke: #000000; stroke-width: 0.8"/>
      </g>
     </g>
     <g id="text_2">
      <!-- 25 -->
      <g transform="translate(263.739926 265.148125) scale(0.2 -0.2)">
       <defs>
        <path id="TimesNewRomanPSMT-32" d="M 2934 816 
L 2638 0 
L 138 0 
L 138 116 
Q 1241 1122 1691 1759 
Q 2141 2397 2141 2925 
Q 2141 3328 1894 3587 
Q 1647 3847 1303 3847 
Q 991 3847 742 3664 
Q 494 3481 375 3128 
L 259 3128 
Q 338 3706 661 4015 
Q 984 4325 1469 4325 
Q 1984 4325 2329 3994 
Q 2675 3663 2675 3213 
Q 2675 2891 2525 2569 
Q 2294 2063 1775 1497 
Q 997 647 803 472 
L 1909 472 
Q 2247 472 2383 497 
Q 2519 522 2628 598 
Q 2738 675 2819 816 
L 2934 816 
z
" transform="scale(0.015625)"/>
        <path id="TimesNewRomanPSMT-35" d="M 2778 4238 
L 2534 3706 
L 1259 3706 
L 981 3138 
Q 1809 3016 2294 2522 
Q 2709 2097 2709 1522 
Q 2709 1188 2573 903 
Q 2438 619 2231 419 
Q 2025 219 1772 97 
Q 1413 -75 1034 -75 
Q 653 -75 479 54 
Q 306 184 306 341 
Q 306 428 378 495 
Q 450 563 559 563 
Q 641 563 702 538 
Q 763 513 909 409 
Q 1144 247 1384 247 
Q 1750 247 2026 523 
Q 2303 800 2303 1197 
Q 2303 1581 2056 1914 
Q 1809 2247 1375 2428 
Q 1034 2569 447 2591 
L 1259 4238 
L 2778 4238 
z
" transform="scale(0.015625)"/>
       </defs>
       <use xlink:href="#TimesNewRomanPSMT-32"/>
       <use xlink:href="#TimesNewRomanPSMT-35" x="50"/>
      </g>
     </g>
    </g>
    <g id="xtick_3">
     <g id="line2d_3">
      <g>
       <use xlink:href="#m8215083493" x="430.832854" y="244.260625" style="stroke: #000000; stroke-width: 0.8"/>
      </g>
     </g>
     <g id="text_3">
      <!-- 50 -->
      <g transform="translate(420.832854 265.148125) scale(0.2 -0.2)">
       <use xlink:href="#TimesNewRomanPSMT-35"/>
       <use xlink:href="#TimesNewRomanPSMT-30" x="50"/>
      </g>
     </g>
    </g>
    <g id="xtick_4">
     <g id="line2d_4">
      <g>
       <use xlink:href="#m8215083493" x="587.925782" y="244.260625" style="stroke: #000000; stroke-width: 0.8"/>
      </g>
     </g>
     <g id="text_4">
      <!-- 75 -->
      <g transform="translate(577.925782 265.148125) scale(0.2 -0.2)">
       <defs>
        <path id="TimesNewRomanPSMT-37" d="M 644 4238 
L 2916 4238 
L 2916 4119 
L 1503 -88 
L 1153 -88 
L 2419 3728 
L 1253 3728 
Q 900 3728 750 3644 
Q 488 3500 328 3200 
L 238 3234 
L 644 4238 
z
" transform="scale(0.015625)"/>
       </defs>
       <use xlink:href="#TimesNewRomanPSMT-37"/>
       <use xlink:href="#TimesNewRomanPSMT-35" x="50"/>
      </g>
     </g>
    </g>
    <g id="xtick_5">
     <g id="line2d_5">
      <g>
       <use xlink:href="#m8215083493" x="745.01871" y="244.260625" style="stroke: #000000; stroke-width: 0.8"/>
      </g>
     </g>
     <g id="text_5">
      <!-- 100 -->
      <g transform="translate(730.01871 265.148125) scale(0.2 -0.2)">
       <defs>
        <path id="TimesNewRomanPSMT-31" d="M 750 3822 
L 1781 4325 
L 1884 4325 
L 1884 747 
Q 1884 391 1914 303 
Q 1944 216 2037 169 
Q 2131 122 2419 116 
L 2419 0 
L 825 0 
L 825 116 
Q 1125 122 1212 167 
Q 1300 213 1334 289 
Q 1369 366 1369 747 
L 1369 3034 
Q 1369 3497 1338 3628 
Q 1316 3728 1258 3775 
Q 1200 3822 1119 3822 
Q 1003 3822 797 3725 
L 750 3822 
z
" transform="scale(0.015625)"/>
       </defs>
       <use xlink:href="#TimesNewRomanPSMT-31"/>
       <use xlink:href="#TimesNewRomanPSMT-30" x="50"/>
       <use xlink:href="#TimesNewRomanPSMT-30" x="100"/>
      </g>
     </g>
    </g>
    <g id="xtick_6">
     <g id="line2d_6">
      <g>
       <use xlink:href="#m8215083493" x="902.111638" y="244.260625" style="stroke: #000000; stroke-width: 0.8"/>
      </g>
     </g>
     <g id="text_6">
      <!-- 125 -->
      <g transform="translate(887.111638 265.148125) scale(0.2 -0.2)">
       <use xlink:href="#TimesNewRomanPSMT-31"/>
       <use xlink:href="#TimesNewRomanPSMT-32" x="50"/>
       <use xlink:href="#TimesNewRomanPSMT-35" x="100"/>
      </g>
     </g>
    </g>
    <g id="xtick_7">
     <g id="line2d_7">
      <g>
       <use xlink:href="#m8215083493" x="1059.204566" y="244.260625" style="stroke: #000000; stroke-width: 0.8"/>
      </g>
     </g>
     <g id="text_7">
      <!-- 150 -->
      <g transform="translate(1044.204566 265.148125) scale(0.2 -0.2)">
       <use xlink:href="#TimesNewRomanPSMT-31"/>
       <use xlink:href="#TimesNewRomanPSMT-35" x="50"/>
       <use xlink:href="#TimesNewRomanPSMT-30" x="100"/>
      </g>
     </g>
    </g>
    <g id="xtick_8">
     <g id="line2d_8">
      <g>
       <use xlink:href="#m8215083493" x="1216.297494" y="244.260625" style="stroke: #000000; stroke-width: 0.8"/>
      </g>
     </g>
     <g id="text_8">
      <!-- 175 -->
      <g transform="translate(1201.297494 265.148125) scale(0.2 -0.2)">
       <use xlink:href="#TimesNewRomanPSMT-31"/>
       <use xlink:href="#TimesNewRomanPSMT-37" x="50"/>
       <use xlink:href="#TimesNewRomanPSMT-35" x="100"/>
      </g>
     </g>
    </g>
    <g id="xtick_9">
     <g id="line2d_9">
      <g>
       <use xlink:href="#m8215083493" x="1373.390422" y="244.260625" style="stroke: #000000; stroke-width: 0.8"/>
      </g>
     </g>
     <g id="text_9">
      <!-- 200 -->
      <g transform="translate(1358.390422 265.148125) scale(0.2 -0.2)">
       <use xlink:href="#TimesNewRomanPSMT-32"/>
       <use xlink:href="#TimesNewRomanPSMT-30" x="50"/>
       <use xlink:href="#TimesNewRomanPSMT-30" x="100"/>
      </g>
     </g>
    </g>
   </g>
   <g id="matplotlib.axis_2">
    <g id="ytick_1">
     <g id="line2d_10">
      <defs>
       <path id="m90c86a7190" d="M 0 0 
L -3.5 0 
" style="stroke: #000000; stroke-width: 0.8"/>
      </defs>
      <g>
       <use xlink:href="#m90c86a7190" x="56.6375" y="229.123447" style="stroke: #000000; stroke-width: 0.8"/>
      </g>
     </g>
     <g id="text_10">
      <!-- 2 -->
      <g transform="translate(39.6375 236.067197) scale(0.2 -0.2)">
       <use xlink:href="#TimesNewRomanPSMT-32"/>
      </g>
     </g>
    </g>
    <g id="ytick_2">
     <g id="line2d_11">
      <g>
       <use xlink:href="#m90c86a7190" x="56.6375" y="173.574148" style="stroke: #000000; stroke-width: 0.8"/>
      </g>
     </g>
     <g id="text_11">
      <!-- 4 -->
      <g transform="translate(39.6375 180.517898) scale(0.2 -0.2)">
       <defs>
        <path id="TimesNewRomanPSMT-34" d="M 2978 1563 
L 2978 1119 
L 2409 1119 
L 2409 0 
L 1894 0 
L 1894 1119 
L 100 1119 
L 100 1519 
L 2066 4325 
L 2409 4325 
L 2409 1563 
L 2978 1563 
z
M 1894 1563 
L 1894 3666 
L 406 1563 
L 1894 1563 
z
" transform="scale(0.015625)"/>
       </defs>
       <use xlink:href="#TimesNewRomanPSMT-34"/>
      </g>
     </g>
    </g>
    <g id="ytick_3">
     <g id="line2d_12">
      <g>
       <use xlink:href="#m90c86a7190" x="56.6375" y="118.02485" style="stroke: #000000; stroke-width: 0.8"/>
      </g>
     </g>
     <g id="text_12">
      <!-- 6 -->
      <g transform="translate(39.6375 124.9686) scale(0.2 -0.2)">
       <defs>
        <path id="TimesNewRomanPSMT-36" d="M 2869 4325 
L 2869 4209 
Q 2456 4169 2195 4045 
Q 1934 3922 1679 3669 
Q 1425 3416 1258 3105 
Q 1091 2794 978 2366 
Q 1428 2675 1881 2675 
Q 2316 2675 2634 2325 
Q 2953 1975 2953 1425 
Q 2953 894 2631 456 
Q 2244 -75 1606 -75 
Q 1172 -75 869 213 
Q 275 772 275 1663 
Q 275 2231 503 2743 
Q 731 3256 1154 3653 
Q 1578 4050 1965 4187 
Q 2353 4325 2688 4325 
L 2869 4325 
z
M 925 2138 
Q 869 1716 869 1456 
Q 869 1156 980 804 
Q 1091 453 1309 247 
Q 1469 100 1697 100 
Q 1969 100 2183 356 
Q 2397 613 2397 1088 
Q 2397 1622 2184 2012 
Q 1972 2403 1581 2403 
Q 1463 2403 1327 2353 
Q 1191 2303 925 2138 
z
" transform="scale(0.015625)"/>
       </defs>
       <use xlink:href="#TimesNewRomanPSMT-36"/>
      </g>
     </g>
    </g>
    <g id="ytick_4">
     <g id="line2d_13">
      <g>
       <use xlink:href="#m90c86a7190" x="56.6375" y="62.475552" style="stroke: #000000; stroke-width: 0.8"/>
      </g>
     </g>
     <g id="text_13">
      <!-- 8 -->
      <g transform="translate(39.6375 69.419302) scale(0.2 -0.2)">
       <defs>
        <path id="TimesNewRomanPSMT-38" d="M 1228 2134 
Q 725 2547 579 2797 
Q 434 3047 434 3316 
Q 434 3728 753 4026 
Q 1072 4325 1600 4325 
Q 2113 4325 2425 4047 
Q 2738 3769 2738 3413 
Q 2738 3175 2569 2928 
Q 2400 2681 1866 2347 
Q 2416 1922 2594 1678 
Q 2831 1359 2831 1006 
Q 2831 559 2490 242 
Q 2150 -75 1597 -75 
Q 994 -75 656 303 
Q 388 606 388 966 
Q 388 1247 577 1523 
Q 766 1800 1228 2134 
z
M 1719 2469 
Q 2094 2806 2194 3001 
Q 2294 3197 2294 3444 
Q 2294 3772 2109 3958 
Q 1925 4144 1606 4144 
Q 1288 4144 1088 3959 
Q 888 3775 888 3528 
Q 888 3366 970 3203 
Q 1053 3041 1206 2894 
L 1719 2469 
z
M 1375 2016 
Q 1116 1797 991 1539 
Q 866 1281 866 981 
Q 866 578 1086 336 
Q 1306 94 1647 94 
Q 1984 94 2187 284 
Q 2391 475 2391 747 
Q 2391 972 2272 1150 
Q 2050 1481 1375 2016 
z
" transform="scale(0.015625)"/>
       </defs>
       <use xlink:href="#TimesNewRomanPSMT-38"/>
      </g>
     </g>
    </g>
    <g id="text_14">
     <!-- CPU使用率 -->
     <g transform="translate(33.059375 180.800625) rotate(-90) scale(0.2 -0.2)">
      <defs>
       <path id="SimSun-43" d="M 1725 50 
Q 1025 50 612 575 
Q 200 1100 200 2225 
Q 200 3175 637 3800 
Q 1075 4425 1825 4425 
Q 2000 4425 2175 4375 
Q 2350 4300 2475 4300 
Q 2575 4300 2637 4325 
Q 2700 4350 2750 4425 
L 2975 3325 
L 2825 3275 
Q 2675 3750 2425 4000 
Q 2175 4250 1775 4250 
Q 1250 4250 962 3675 
Q 675 3100 675 2250 
Q 675 1325 925 800 
Q 1175 275 1750 275 
Q 2150 275 2437 562 
Q 2725 850 2825 1325 
L 2975 1250 
Q 2850 725 2512 387 
Q 2175 50 1725 50 
z
" transform="scale(0.015625)"/>
       <path id="SimSun-50" d="M 950 2100 
L 950 450 
Q 950 350 1012 300 
Q 1075 250 1175 250 
L 1350 250 
L 1350 100 
L 150 100 
L 150 250 
L 325 250 
Q 450 250 500 300 
Q 550 350 550 450 
L 550 4025 
Q 550 4125 500 4175 
Q 450 4225 325 4225 
L 175 4225 
L 175 4375 
L 1650 4375 
Q 2275 4375 2612 4062 
Q 2950 3750 2950 3275 
Q 2950 2700 2587 2400 
Q 2225 2100 1725 2100 
L 950 2100 
z
M 1575 2250 
Q 1950 2250 2237 2475 
Q 2525 2700 2525 3250 
Q 2525 3750 2287 3987 
Q 2050 4225 1525 4225 
L 1175 4225 
Q 1075 4225 1012 4175 
Q 950 4125 950 4025 
L 950 2250 
L 1575 2250 
z
" transform="scale(0.015625)"/>
       <path id="SimSun-55" d="M 1625 250 
Q 2000 250 2262 500 
Q 2525 750 2525 1125 
L 2525 4025 
Q 2525 4125 2475 4175 
Q 2425 4225 2300 4225 
L 2150 4225 
L 2150 4375 
L 3050 4375 
L 3050 4225 
L 2900 4225 
Q 2800 4225 2737 4175 
Q 2675 4125 2675 4025 
L 2675 1125 
Q 2675 625 2337 337 
Q 2000 50 1575 50 
Q 1125 50 787 300 
Q 450 550 450 1100 
L 450 4025 
Q 450 4125 400 4175 
Q 350 4225 225 4225 
L 100 4225 
L 100 4375 
L 1200 4375 
L 1200 4225 
L 1075 4225 
Q 975 4225 912 4175 
Q 850 4125 850 4025 
L 850 1100 
Q 850 600 1062 425 
Q 1275 250 1625 250 
z
" transform="scale(0.015625)"/>
       <path id="SimSun-4f7f" d="M 2875 3150 
L 2875 2100 
L 3825 2100 
Q 3850 2825 3850 3150 
L 2875 3150 
z
M 4175 3150 
Q 4175 2800 4150 2100 
L 5150 2100 
L 5150 3150 
L 4175 3150 
z
M 5475 3100 
L 5475 2425 
Q 5475 2100 5500 1800 
L 5150 1675 
L 5150 1950 
L 4150 1950 
Q 4125 1175 3875 600 
Q 4275 275 4875 75 
Q 5475 -125 6075 -150 
L 6075 -250 
Q 5700 -300 5600 -575 
Q 4525 -325 3725 350 
Q 3425 25 2925 -225 
Q 2425 -475 1875 -650 
L 1825 -550 
Q 2400 -325 2850 -25 
Q 3300 275 3500 575 
Q 3200 925 2825 1650 
L 2900 1700 
Q 3325 1100 3625 825 
Q 3800 1300 3825 1950 
L 2875 1950 
L 2875 1825 
L 2525 1675 
Q 2550 2075 2550 2562 
Q 2550 3050 2525 3500 
L 2875 3300 
L 3850 3300 
L 3850 4025 
L 2975 4025 
Q 2650 4025 2375 3950 
L 2150 4175 
L 3850 4175 
L 3850 4525 
Q 3850 4775 3825 5225 
L 4350 5000 
L 4175 4825 
L 4175 4175 
L 5300 4175 
L 5600 4475 
L 6050 4025 
L 4175 4025 
L 4175 3300 
L 5100 3300 
L 5275 3525 
L 5650 3225 
L 5475 3100 
z
M 1675 3175 
L 1675 -450 
L 1325 -625 
Q 1350 -75 1350 350 
L 1350 3200 
Q 900 2475 350 1900 
L 275 1950 
Q 700 2525 1112 3400 
Q 1525 4275 1800 5250 
L 2325 4925 
L 2125 4800 
Q 1725 3925 1500 3525 
L 1875 3325 
L 1675 3175 
z
" transform="scale(0.015625)"/>
       <path id="SimSun-7528" d="M 3400 3150 
L 3400 1825 
L 5075 1825 
L 5075 3150 
L 3400 3150 
z
M 4075 100 
Q 4725 50 4900 62 
Q 5075 75 5075 400 
L 5075 1675 
L 3400 1675 
Q 3400 75 3425 -225 
L 3050 -400 
Q 3075 1025 3075 1675 
L 1425 1675 
Q 1250 350 375 -600 
L 300 -550 
Q 775 225 950 1025 
Q 1125 1825 1125 3225 
Q 1125 4625 1100 5075 
L 1475 4825 
L 5050 4825 
L 5225 5100 
L 5625 4800 
L 5425 4600 
L 5425 225 
Q 5450 -400 4875 -575 
Q 4825 -150 4075 -25 
L 4075 100 
z
M 1475 4675 
L 1475 3300 
L 3075 3300 
L 3075 4675 
L 1475 4675 
z
M 3400 4675 
L 3400 3300 
L 5075 3300 
L 5075 4675 
L 3400 4675 
z
M 1475 3150 
Q 1450 2100 1425 1825 
L 3075 1825 
L 3075 3150 
L 1475 3150 
z
" transform="scale(0.015625)"/>
       <path id="SimSun-7387" d="M 875 3725 
L 925 3800 
Q 1375 3650 1550 3525 
Q 1725 3400 1725 3250 
Q 1725 3175 1662 3025 
Q 1600 2875 1550 2875 
Q 1500 2875 1425 3050 
Q 1275 3325 875 3725 
z
M 550 1850 
Q 875 1925 2000 2575 
L 2050 2500 
Q 1675 2225 1337 1937 
Q 1000 1650 875 1425 
L 550 1850 
z
M 5200 3450 
Q 4800 3150 4275 2800 
L 4225 2875 
Q 4775 3400 5050 3925 
L 5450 3525 
L 5200 3450 
z
M 4325 2500 
L 4350 2575 
Q 5225 2350 5375 2212 
Q 5525 2075 5525 1900 
Q 5525 1775 5487 1662 
Q 5450 1550 5400 1550 
Q 5325 1550 5200 1800 
Q 4975 2150 4325 2500 
z
M 3150 3900 
Q 2500 3300 2300 3150 
Q 2800 3150 3400 3175 
Q 3700 3500 3850 3825 
L 4250 3450 
Q 4050 3400 3450 2825 
Q 2850 2250 2475 1950 
Q 3150 1975 3850 2000 
Q 3750 2175 3550 2450 
L 3600 2500 
Q 4050 2250 4200 2100 
Q 4350 1950 4350 1850 
Q 4350 1775 4250 1625 
Q 4150 1475 4100 1475 
Q 4075 1475 4050 1550 
Q 4000 1700 3900 1900 
Q 3650 1875 3075 1800 
L 3500 1550 
L 3325 1425 
L 3325 975 
L 5325 975 
L 5650 1300 
L 6100 825 
L 3325 825 
Q 3325 -275 3350 -525 
L 2975 -650 
Q 3000 0 3000 825 
L 1125 825 
Q 800 825 525 750 
L 300 975 
L 3000 975 
L 3000 1775 
Q 2450 1700 2200 1525 
L 1950 1950 
Q 2275 1950 2675 2350 
Q 3075 2750 3325 3050 
Q 2400 2950 2150 2775 
L 1950 3175 
Q 2150 3150 2475 3575 
Q 2800 4000 2900 4225 
L 1450 4225 
Q 1125 4225 850 4150 
L 625 4375 
L 3100 4375 
Q 3050 4800 2675 5200 
L 2725 5250 
Q 3225 5050 3337 4912 
Q 3450 4775 3450 4700 
Q 3450 4550 3250 4375 
L 5025 4375 
L 5350 4675 
L 5775 4225 
L 3050 4225 
L 3375 3950 
L 3150 3900 
z
" transform="scale(0.015625)"/>
      </defs>
      <use xlink:href="#SimSun-43"/>
      <use xlink:href="#SimSun-50" x="50"/>
      <use xlink:href="#SimSun-55" x="100"/>
      <use xlink:href="#SimSun-4f7f" x="150"/>
      <use xlink:href="#SimSun-7528" x="250"/>
      <use xlink:href="#SimSun-7387" x="350"/>
     </g>
    </g>
   </g>
   <g id="line2d_14">
    <path d="M 116.646998 190.794434 
L 122.930716 209.958937 
L 129.214433 205.792744 
L 135.49815 203.570767 
L 141.781867 216.347107 
L 148.065584 222.735277 
L 154.349301 211.903161 
L 160.633018 234.400625 
L 166.916735 218.013591 
L 173.200452 209.681191 
L 179.48417 219.402322 
L 185.767887 224.124008 
L 192.051604 212.736406 
L 198.335321 207.181475 
L 204.619038 204.12626 
L 210.902755 202.737529 
L 217.186472 216.069361 
L 223.470189 222.457531 
L 229.753907 225.790485 
L 236.037624 227.456969 
L 242.321341 214.402877 
L 248.605058 208.014714 
L 254.888775 176.90711 
L 261.172492 175.240626 
L 267.456209 188.294712 
L 273.739926 208.570206 
L 280.023643 204.959498 
L 286.307361 161.631054 
L 292.591078 181.351049 
L 298.874795 205.237245 
L 305.158512 189.405703 
L 311.442229 195.51612 
L 317.725946 198.293582 
L 324.009663 213.847391 
L 330.29338 124.135267 
L 336.577097 162.742039 
L 342.860815 140.522314 
L 349.144532 115.247388 
L 355.428249 88.861476 
L 361.711966 145.244007 
L 367.995683 173.296409 
L 374.2794 159.409071 
L 380.563117 180.517811 
L 386.846834 190.794434 
L 393.130552 182.184288 
L 399.414269 191.905419 
L 405.697986 224.401754 
L 411.981703 171.074426 
L 418.26542 186.350488 
L 424.549137 96.638371 
L 430.832854 148.854714 
L 437.116571 189.12795 
L 443.400288 195.238374 
L 449.684006 156.631609 
L 455.967723 178.851333 
L 462.25144 204.12626 
L 468.535157 188.850204 
L 474.818874 181.073303 
L 481.102591 177.462602 
L 487.386308 203.293021 
L 493.670025 202.182036 
L 499.953742 215.791615 
L 506.23746 208.570206 
L 512.521177 204.959498 
L 518.804894 161.353301 
L 525.088611 181.351049 
L 531.372328 135.800622 
L 537.656045 168.574716 
L 543.939762 198.849081 
L 550.223479 186.350488 
L 556.507197 207.736967 
L 562.790914 218.291331 
L 569.074631 223.846262 
L 575.358348 212.45866 
L 581.642065 206.903729 
L 587.925782 204.12626 
L 594.209499 188.850204 
L 600.493216 195.238374 
L 606.776933 212.180907 
L 613.060651 206.625982 
L 619.344368 218.013591 
L 625.628085 209.681191 
L 631.911802 219.402322 
L 638.195519 210.236683 
L 644.479236 219.680062 
L 650.762953 210.51443 
L 657.04667 219.957808 
L 663.330388 210.51443 
L 669.614105 150.521192 
L 675.897822 148.021469 
L 682.181539 174.685133 
L 688.465256 201.90429 
L 694.748973 201.626544 
L 701.03269 215.513868 
L 707.316407 180.517811 
L 713.600124 177.184849 
L 719.883842 203.015275 
L 726.167559 202.182036 
L 732.451276 132.467667 
L 738.734993 166.908226 
L 745.01871 198.015836 
L 751.302427 74.696399 
L 757.586144 151.909916 
L 763.869861 176.629357 
L 770.153578 174.962879 
L 776.437296 174.407387 
L 782.721013 104.415265 
L 789.00473 111.358927 
L 795.288447 86.917246 
L 801.572164 116.358373 
L 807.855881 89.416955 
L 814.139598 145.244007 
L 820.423315 159.409071 
L 826.707033 111.081188 
L 832.99075 128.301467 
L 839.274467 151.076684 
L 845.558184 176.073864 
L 851.841901 161.075561 
L 858.125618 194.960628 
L 864.409335 170.518933 
L 870.693052 199.68232 
L 876.976769 200.515559 
L 883.260487 214.958376 
L 889.544204 208.014714 
L 895.827921 204.681752 
L 902.111638 91.916678 
L 908.395355 174.407387 
L 914.679072 188.016965 
L 920.962789 166.908226 
L 927.246506 156.353869 
L 933.530223 178.851333 
L 939.813941 189.961189 
L 946.097658 209.681191 
L 952.381375 205.514998 
L 958.665092 203.293021 
L 964.948809 216.347107 
L 971.232526 208.847952 
L 977.516243 218.846823 
L 983.79996 210.236683 
L 990.083678 219.680062 
L 996.367395 210.51443 
L 1002.651112 219.680062 
L 1008.934829 210.51443 
L 1015.218546 206.070483 
L 1021.502263 217.458092 
L 1027.78598 223.290769 
L 1034.069697 212.45866 
L 1040.353414 193.016404 
L 1046.637132 211.069922 
L 1052.920849 219.957808 
L 1059.204566 224.6795 
L 1065.488283 213.014146 
L 1071.772 96.082878 
L 1078.055717 176.351617 
L 1084.339434 161.075561 
L 1090.623151 139.689082 
L 1096.906868 184.406264 
L 1103.190586 206.625982 
L 1109.474303 176.351617 
L 1115.75802 188.850204 
L 1122.041737 181.073303 
L 1128.325454 121.913297 
L 1134.609171 119.96908 
L 1140.892888 146.632744 
L 1147.176605 188.016965 
L 1153.460323 194.682881 
L 1159.74404 156.353869 
L 1166.027757 164.964009 
L 1172.311474 99.693586 
L 1178.595191 94.971893 
L 1184.878908 37.200625 
L 1191.162625 105.24851 
L 1197.446342 125.524005 
L 1203.730059 149.687946 
L 1210.013777 189.405703 
L 1216.297494 167.463731 
L 1222.581211 128.856959 
L 1228.864928 165.241748 
L 1235.148645 141.633299 
L 1241.432362 143.577529 
L 1247.716079 172.463163 
L 1253.999796 173.018656 
L 1260.283513 159.409071 
L 1266.567231 194.405135 
L 1272.850948 183.850772 
L 1279.134665 192.738658 
L 1285.418382 210.792176 
L 1291.702099 206.070483 
L 1297.985816 189.961189 
L 1304.269533 181.628796 
L 1310.55325 122.19105 
L 1316.836968 175.518372 
L 1316.836968 175.518372 
" clip-path="url(#pbca6e1303a)" style="fill: none; stroke: #1f77b4; stroke-width: 1.5; stroke-linecap: square"/>
   </g>
   <g id="line2d_15">
    <path d="M 1021.502263 195.171803 
L 1027.78598 191.569823 
L 1034.069697 190.634387 
L 1040.353414 188.49606 
L 1046.637132 186.916655 
L 1052.920849 185.04279 
L 1059.204566 182.779718 
L 1065.488283 180.657694 
L 1071.772 178.374358 
L 1078.055717 176.494374 
L 1084.339434 171.195582 
L 1090.623151 171.303692 
L 1096.906868 168.468592 
L 1103.190586 164.428832 
L 1109.474303 164.86591 
L 1115.75802 163.905377 
L 1122.041737 159.53959 
L 1128.325454 159.134417 
L 1134.609171 160.763692 
L 1140.892888 159.350254 
L 1147.176605 157.949438 
L 1153.460323 158.523565 
L 1159.74404 159.769996 
L 1166.027757 159.585057 
L 1172.311474 161.675845 
L 1178.595191 159.946366 
L 1184.878908 159.407972 
L 1191.162625 161.685434 
L 1197.446342 160.699618 
L 1203.730059 164.082224 
L 1210.013777 164.496801 
L 1216.297494 167.666801 
L 1222.581211 168.782461 
L 1228.864928 170.683847 
L 1235.148645 173.335267 
L 1241.432362 176.860385 
L 1247.716079 177.530868 
L 1253.999796 177.531146 
L 1260.283513 182.406443 
L 1266.567231 184.968193 
L 1272.850948 183.078873 
L 1279.134665 184.425455 
L 1285.418382 186.727783 
L 1291.702099 188.114858 
L 1297.985816 189.952302 
L 1304.269533 189.583126 
L 1310.55325 191.546467 
L 1316.836968 191.041593 
" clip-path="url(#pbca6e1303a)" style="fill: none; stroke: #ff7f0e; stroke-width: 1.5; stroke-linecap: square"/>
   </g>
   <g id="line2d_16">
    <path d="M 1021.502263 244.260625 
L 1021.502263 27.340625 
" clip-path="url(#pbca6e1303a)" style="fill: none; stroke-dasharray: 7.4,3.2; stroke-dashoffset: 0; stroke: #0000ff; stroke-width: 2"/>
   </g>
   <g id="patch_3">
    <path d="M 56.6375 244.260625 
L 56.6375 27.340625 
" style="fill: none; stroke: #000000; stroke-width: 0.8; stroke-linejoin: miter; stroke-linecap: square"/>
   </g>
   <g id="patch_4">
    <path d="M 1376.846466 244.260625 
L 1376.846466 27.340625 
" style="fill: none; stroke: #000000; stroke-width: 0.8; stroke-linejoin: miter; stroke-linecap: square"/>
   </g>
   <g id="patch_5">
    <path d="M 56.6375 244.260625 
L 1376.846466 244.260625 
" style="fill: none; stroke: #000000; stroke-width: 0.8; stroke-linejoin: miter; stroke-linecap: square"/>
   </g>
   <g id="patch_6">
    <path d="M 56.6375 27.340625 
L 1376.846466 27.340625 
" style="fill: none; stroke: #000000; stroke-width: 0.8; stroke-linejoin: miter; stroke-linecap: square"/>
   </g>
   <g id="text_15">
    <!-- API_ID: 2 -->
    <g transform="translate(671.741983 21.340625) scale(0.2 -0.2)">
     <defs>
      <path id="SimSun-41" d="M 2025 1700 
L 900 1700 
L 675 750 
Q 650 625 650 550 
Q 650 450 687 350 
Q 725 250 900 250 
L 975 250 
L 975 100 
L 50 100 
L 50 250 
L 125 250 
Q 225 250 300 312 
Q 375 375 400 525 
L 1375 4350 
L 1750 4475 
L 2700 525 
Q 2750 375 2825 312 
Q 2900 250 3000 250 
L 3075 250 
L 3075 100 
L 2000 100 
L 2000 250 
L 2100 250 
Q 2250 250 2275 312 
Q 2300 375 2300 425 
Q 2300 525 2275 600 
L 2025 1700 
z
M 325 250 
L 325 250 
z
M 575 250 
L 575 250 
z
M 2350 250 
L 2350 250 
z
M 2775 250 
L 2775 250 
z
M 1500 3925 
L 1475 3925 
L 950 1850 
L 2000 1850 
L 1500 3925 
z
" transform="scale(0.015625)"/>
      <path id="SimSun-49" d="M 600 4225 
L 600 4375 
L 2600 4375 
L 2600 4225 
L 2025 4225 
Q 1925 4225 1862 4175 
Q 1800 4125 1800 4025 
L 1800 450 
Q 1800 350 1862 300 
Q 1925 250 2025 250 
L 2600 250 
L 2600 100 
L 600 100 
L 600 250 
L 1175 250 
Q 1300 250 1350 300 
Q 1400 350 1400 450 
L 1400 4025 
Q 1400 4125 1350 4175 
Q 1300 4225 1175 4225 
L 600 4225 
z
" transform="scale(0.015625)"/>
      <path id="SimSun-5f" d="M 0 -875 
L 0 -725 
L 3175 -725 
L 3175 -875 
L 0 -875 
z
" transform="scale(0.015625)"/>
      <path id="SimSun-44" d="M 2500 2275 
Q 2500 3350 2175 3787 
Q 1850 4225 1275 4225 
Q 1100 4225 1012 4175 
Q 925 4125 925 4025 
L 925 450 
Q 925 350 1000 300 
Q 1075 250 1200 250 
Q 1750 250 2125 662 
Q 2500 1075 2500 2275 
z
M 525 4025 
Q 525 4125 475 4175 
Q 425 4225 300 4225 
L 150 4225 
L 150 4375 
L 1275 4375 
Q 2050 4375 2512 3875 
Q 2975 3375 2975 2325 
Q 2975 1175 2525 637 
Q 2075 100 1200 100 
L 125 100 
L 125 250 
L 300 250 
Q 425 250 475 300 
Q 525 350 525 450 
L 525 4025 
z
" transform="scale(0.015625)"/>
      <path id="SimSun-3a" d="M 1900 2725 
Q 1900 2575 1800 2475 
Q 1700 2375 1550 2375 
Q 1400 2375 1300 2475 
Q 1200 2575 1200 2725 
Q 1200 2875 1300 2975 
Q 1400 3075 1550 3075 
Q 1700 3075 1800 2975 
Q 1900 2875 1900 2725 
z
M 1900 375 
Q 1900 225 1800 125 
Q 1700 25 1550 25 
Q 1400 25 1300 125 
Q 1200 225 1200 375 
Q 1200 525 1300 625 
Q 1400 725 1550 725 
Q 1700 725 1800 625 
Q 1900 525 1900 375 
z
" transform="scale(0.015625)"/>
      <path id="SimSun-20" d="M 0 0 
Q 0 0 0 0 
z
" transform="scale(0.015625)"/>
      <path id="SimSun-32" d="M 2325 3325 
Q 2325 3775 2125 4012 
Q 1925 4250 1525 4250 
Q 1225 4250 1012 4087 
Q 800 3925 800 3675 
Q 800 3525 900 3425 
Q 975 3325 975 3225 
Q 975 3100 912 3037 
Q 850 2975 725 2975 
Q 575 2975 487 3062 
Q 400 3150 400 3350 
Q 400 3875 775 4150 
Q 1150 4425 1575 4425 
Q 2175 4425 2462 4125 
Q 2750 3825 2750 3375 
Q 2750 3075 2612 2775 
Q 2475 2475 2175 2200 
Q 1450 1500 1062 1062 
Q 675 625 600 475 
L 2075 475 
Q 2300 475 2450 650 
Q 2600 825 2650 1175 
L 2800 1175 
L 2650 100 
L 325 100 
L 325 425 
Q 450 650 737 1000 
Q 1025 1350 1500 1825 
Q 1925 2250 2125 2625 
Q 2325 3000 2325 3325 
z
" transform="scale(0.015625)"/>
     </defs>
     <use xlink:href="#SimSun-41"/>
     <use xlink:href="#SimSun-50" x="50"/>
     <use xlink:href="#SimSun-49" x="100"/>
     <use xlink:href="#SimSun-5f" x="150"/>
     <use xlink:href="#SimSun-49" x="200"/>
     <use xlink:href="#SimSun-44" x="250"/>
     <use xlink:href="#SimSun-3a" x="300"/>
     <use xlink:href="#SimSun-20" x="350"/>
     <use xlink:href="#SimSun-32" x="400"/>
    </g>
   </g>
   <g id="legend_1">
    <g id="patch_7">
     <path d="M 70.6375 100.215625 
L 194.6375 100.215625 
Q 198.6375 100.215625 198.6375 96.215625 
L 198.6375 41.340625 
Q 198.6375 37.340625 194.6375 37.340625 
L 70.6375 37.340625 
Q 66.6375 37.340625 66.6375 41.340625 
L 66.6375 96.215625 
Q 66.6375 100.215625 70.6375 100.215625 
z
" style="fill: #ffffff; opacity: 0.8; stroke: #cccccc; stroke-linejoin: miter"/>
    </g>
    <g id="line2d_17">
     <path d="M 74.6375 54.278125 
L 94.6375 54.278125 
L 114.6375 54.278125 
" style="fill: none; stroke: #1f77b4; stroke-width: 1.5; stroke-linecap: square"/>
    </g>
    <g id="text_16">
     <!-- 真实值 -->
     <g transform="translate(130.6375 61.278125) scale(0.2 -0.2)">
      <defs>
       <path id="SimSun-771f" d="M 2050 3450 
L 2050 2900 
L 4300 2900 
L 4300 3450 
L 2050 3450 
z
M 2050 2750 
L 2050 2225 
L 4300 2225 
L 4300 2750 
L 2050 2750 
z
M 2050 2075 
L 2050 1550 
L 4300 1550 
L 4300 2075 
L 2050 2075 
z
M 2050 1400 
L 2050 875 
L 4300 875 
L 4300 1400 
L 2050 1400 
z
M 2875 3600 
L 2925 4325 
L 1525 4325 
Q 1200 4325 925 4250 
L 700 4475 
L 2950 4475 
Q 2975 4825 2975 5275 
L 3550 5025 
L 3375 4925 
L 3300 4475 
L 5000 4475 
L 5325 4825 
L 5775 4325 
L 3275 4325 
L 3200 3600 
L 4275 3600 
L 4450 3875 
L 4850 3575 
L 4650 3375 
L 4650 875 
L 5300 875 
L 5675 1225 
L 6125 725 
L 1150 725 
Q 825 725 550 650 
L 325 875 
L 1700 875 
Q 1700 3200 1675 3775 
L 2050 3600 
L 2875 3600 
z
M 2425 725 
L 2825 350 
L 2575 300 
Q 1500 -425 800 -650 
L 775 -575 
Q 1950 125 2425 725 
z
M 3800 700 
Q 4575 375 4962 200 
Q 5350 25 5400 -112 
Q 5450 -250 5450 -325 
Q 5450 -400 5400 -525 
Q 5350 -650 5325 -650 
Q 5250 -650 5100 -450 
Q 4875 -150 3750 625 
L 3800 700 
z
" transform="scale(0.015625)"/>
       <path id="SimSun-5b9e" d="M 1950 3625 
Q 2575 3400 2700 3250 
Q 2825 3100 2825 2975 
Q 2825 2850 2750 2700 
Q 2675 2550 2625 2550 
Q 2550 2550 2450 2800 
Q 2275 3175 1900 3550 
L 1950 3625 
z
M 3575 1325 
Q 3500 1100 3425 925 
Q 4650 550 5087 325 
Q 5525 100 5512 -225 
Q 5500 -550 5400 -550 
Q 5300 -550 5075 -300 
Q 4625 175 3375 800 
Q 3025 175 2300 -150 
Q 1575 -475 425 -625 
L 425 -525 
Q 1475 -325 2200 100 
Q 2925 525 3200 1325 
L 1225 1325 
Q 900 1325 625 1250 
L 400 1475 
L 3225 1475 
Q 3325 1950 3375 2575 
Q 3425 3200 3425 3700 
L 4050 3400 
L 3850 3225 
Q 3750 2300 3625 1475 
L 5175 1475 
L 5550 1850 
L 6075 1325 
L 3575 1325 
z
M 1275 2700 
Q 1975 2425 2100 2262 
Q 2225 2100 2225 1975 
Q 2225 1850 2150 1700 
Q 2075 1550 2025 1550 
Q 1950 1550 1850 1800 
Q 1675 2175 1225 2625 
L 1275 2700 
z
M 2750 5225 
L 2825 5275 
Q 3225 5100 3425 4925 
Q 3625 4750 3625 4600 
Q 3625 4450 3512 4300 
Q 3400 4150 3325 4150 
Q 3250 4150 3200 4400 
Q 3100 4775 2750 5225 
z
M 4975 3225 
L 5350 3925 
L 1175 3925 
Q 1225 3525 1125 3300 
Q 1025 3075 787 3100 
Q 550 3125 550 3200 
Q 550 3300 700 3475 
Q 975 3825 1050 4375 
L 1150 4375 
L 1175 4075 
L 5300 4075 
L 5575 4350 
L 6050 3800 
Q 5625 3825 5050 3175 
L 4975 3225 
z
" transform="scale(0.015625)"/>
       <path id="SimSun-503c" d="M 1525 650 
Q 1525 -225 1550 -525 
L 1175 -650 
Q 1200 250 1200 550 
L 1200 3025 
Q 750 2300 325 1850 
L 250 1900 
Q 725 2625 1100 3525 
Q 1475 4425 1675 5200 
L 2200 4875 
L 1950 4725 
Q 1550 3800 1425 3475 
L 1725 3300 
L 1525 3150 
L 1525 650 
z
M 2875 3225 
L 2875 2475 
L 4800 2475 
L 4800 3225 
L 2875 3225 
z
M 2875 2325 
L 2875 1575 
L 4800 1575 
L 4800 2325 
L 2875 2325 
z
M 2875 1425 
L 2875 675 
L 4800 675 
L 4800 1425 
L 2875 1425 
z
M 2875 525 
L 2875 -225 
L 4800 -225 
L 4800 525 
L 2875 525 
z
M 3550 4250 
Q 3575 4825 3550 5225 
L 4125 4950 
L 3925 4800 
L 3900 4250 
L 5025 4250 
L 5350 4575 
L 5825 4100 
L 3900 4100 
L 3875 3375 
L 4750 3375 
L 4975 3625 
L 5350 3300 
L 5125 3150 
L 5125 -225 
L 5350 -225 
L 5675 100 
L 6150 -375 
L 2450 -375 
Q 2125 -375 1850 -450 
L 1625 -225 
L 2550 -225 
L 2550 2550 
Q 2550 2850 2525 3575 
L 2875 3375 
L 3525 3375 
L 3550 4100 
L 2800 4100 
Q 2475 4100 2200 4025 
L 1975 4250 
L 3550 4250 
z
" transform="scale(0.015625)"/>
      </defs>
      <use xlink:href="#SimSun-771f"/>
      <use xlink:href="#SimSun-5b9e" x="100"/>
      <use xlink:href="#SimSun-503c" x="200"/>
     </g>
    </g>
    <g id="line2d_18">
     <path d="M 74.6375 82.6375 
L 94.6375 82.6375 
L 114.6375 82.6375 
" style="fill: none; stroke: #ff7f0e; stroke-width: 1.5; stroke-linecap: square"/>
    </g>
    <g id="text_17">
     <!-- 预测值 -->
     <g transform="translate(130.6375 89.6375) scale(0.2 -0.2)">
      <defs>
       <path id="SimSun-9884" d="M 475 4825 
L 2225 4825 
L 2425 5075 
L 2825 4675 
Q 2600 4625 2387 4412 
Q 2175 4200 1800 3750 
Q 2050 3575 2037 3400 
Q 2025 3225 1937 3150 
Q 1850 3075 1825 3075 
Q 1725 3075 1650 3300 
Q 1525 3600 1050 4100 
L 1100 4150 
Q 1475 3975 1700 3825 
L 2225 4675 
L 1300 4675 
Q 975 4675 700 4600 
L 475 4825 
z
M 725 100 
Q 1175 50 1362 37 
Q 1550 25 1550 275 
L 1550 2875 
L 1125 2875 
Q 800 2875 525 2800 
L 300 3025 
L 2525 3025 
L 2725 3275 
L 3150 2875 
Q 2800 2825 2275 2075 
L 2200 2125 
L 2550 2875 
L 1875 2875 
L 1875 150 
Q 1875 -400 1350 -500 
Q 1325 -175 725 0 
L 725 100 
z
M 3250 775 
Q 3275 1425 3275 2287 
Q 3275 3150 3250 3900 
L 3600 3700 
L 4050 3700 
Q 4175 4400 4200 4675 
L 3650 4675 
Q 3325 4675 3050 4600 
L 2825 4825 
L 5325 4825 
L 5675 5150 
L 6125 4675 
L 4675 4675 
Q 4500 4425 4175 3700 
L 5300 3700 
L 5475 3975 
L 5875 3675 
L 5675 3475 
L 5675 1950 
Q 5675 1525 5700 1075 
L 5350 875 
L 5350 3550 
L 3600 3550 
L 3600 1000 
L 3250 775 
z
M 4850 2875 
L 4625 2675 
Q 4625 1475 4475 937 
Q 4325 400 3900 50 
Q 3475 -300 2425 -625 
L 2400 -550 
Q 3500 -50 3837 400 
Q 4175 850 4237 1587 
Q 4300 2325 4275 3175 
L 4850 2875 
z
M 4650 950 
Q 5725 375 5875 212 
Q 6025 50 6025 -125 
Q 6025 -225 5962 -387 
Q 5900 -550 5850 -550 
Q 5800 -550 5750 -450 
Q 5625 -250 5437 0 
Q 5250 250 4600 875 
L 4650 950 
z
" transform="scale(0.015625)"/>
       <path id="SimSun-6d4b" d="M 1975 1000 
Q 2000 1475 2000 2925 
Q 2000 4375 1975 5000 
L 2350 4775 
L 3575 4775 
L 3775 4975 
L 4100 4650 
L 3900 4500 
L 3900 2350 
Q 3900 1850 3925 1350 
L 3600 1200 
L 3600 4625 
L 2325 4625 
L 2325 1150 
L 1975 1000 
z
M 2775 3975 
L 3300 3700 
L 3125 3525 
Q 3150 1825 2875 937 
Q 2600 50 1375 -600 
L 1325 -500 
Q 2200 100 2475 725 
Q 2750 1350 2775 2187 
Q 2800 3025 2775 3975 
z
M 3100 950 
Q 3825 450 3937 262 
Q 4050 75 4050 -25 
Q 4050 -150 3975 -262 
Q 3900 -375 3850 -375 
Q 3750 -375 3650 -75 
Q 3500 375 3050 875 
L 3100 950 
z
M 4475 825 
Q 4500 1200 4500 1700 
L 4500 3400 
Q 4500 3950 4475 4300 
L 5025 4025 
L 4825 3825 
L 4825 1700 
Q 4825 1325 4850 950 
L 4475 825 
z
M 5375 150 
L 5375 4050 
Q 5375 4750 5350 5125 
L 5875 4875 
L 5700 4700 
L 5700 75 
Q 5700 -200 5600 -350 
Q 5500 -500 5200 -600 
Q 5025 -225 4450 -50 
L 4450 50 
Q 5125 -50 5250 -37 
Q 5375 -25 5375 150 
z
M 1850 3500 
Q 1375 1525 1300 1225 
Q 1200 900 1212 450 
Q 1225 0 1250 -175 
Q 1250 -275 1125 -275 
Q 1025 -275 875 -225 
Q 725 -175 725 0 
Q 725 125 800 375 
Q 875 625 875 775 
Q 875 950 762 1050 
Q 650 1150 275 1250 
L 275 1350 
Q 725 1300 837 1312 
Q 950 1325 1087 1537 
Q 1225 1750 1750 3525 
L 1850 3500 
z
M 375 3775 
Q 1075 3350 1112 3100 
Q 1150 2850 1050 2775 
Q 950 2700 900 2700 
Q 800 2700 725 2975 
Q 600 3350 325 3700 
L 375 3775 
z
M 800 5100 
Q 1475 4725 1550 4512 
Q 1625 4300 1525 4187 
Q 1425 4075 1350 4075 
Q 1275 4075 1200 4300 
Q 1075 4650 750 5025 
L 800 5100 
z
" transform="scale(0.015625)"/>
      </defs>
      <use xlink:href="#SimSun-9884"/>
      <use xlink:href="#SimSun-6d4b" x="100"/>
      <use xlink:href="#SimSun-503c" x="200"/>
     </g>
    </g>
   </g>
  </g>
  <g id="axes_2">
   <g id="patch_8">
    <path d="M 56.6375 527.940625 
L 1376.846466 527.940625 
L 1376.846466 311.020625 
L 56.6375 311.020625 
z
" style="fill: #ffffff"/>
   </g>
   <g id="matplotlib.axis_3">
    <g id="xtick_10">
     <g id="line2d_19">
      <g>
       <use xlink:href="#m8215083493" x="116.646998" y="527.940625" style="stroke: #000000; stroke-width: 0.8"/>
      </g>
     </g>
     <g id="text_18">
      <!-- 0 -->
      <g transform="translate(111.646998 548.828125) scale(0.2 -0.2)">
       <use xlink:href="#TimesNewRomanPSMT-30"/>
      </g>
     </g>
    </g>
    <g id="xtick_11">
     <g id="line2d_20">
      <g>
       <use xlink:href="#m8215083493" x="273.739926" y="527.940625" style="stroke: #000000; stroke-width: 0.8"/>
      </g>
     </g>
     <g id="text_19">
      <!-- 25 -->
      <g transform="translate(263.739926 548.828125) scale(0.2 -0.2)">
       <use xlink:href="#TimesNewRomanPSMT-32"/>
       <use xlink:href="#TimesNewRomanPSMT-35" x="50"/>
      </g>
     </g>
    </g>
    <g id="xtick_12">
     <g id="line2d_21">
      <g>
       <use xlink:href="#m8215083493" x="430.832854" y="527.940625" style="stroke: #000000; stroke-width: 0.8"/>
      </g>
     </g>
     <g id="text_20">
      <!-- 50 -->
      <g transform="translate(420.832854 548.828125) scale(0.2 -0.2)">
       <use xlink:href="#TimesNewRomanPSMT-35"/>
       <use xlink:href="#TimesNewRomanPSMT-30" x="50"/>
      </g>
     </g>
    </g>
    <g id="xtick_13">
     <g id="line2d_22">
      <g>
       <use xlink:href="#m8215083493" x="587.925782" y="527.940625" style="stroke: #000000; stroke-width: 0.8"/>
      </g>
     </g>
     <g id="text_21">
      <!-- 75 -->
      <g transform="translate(577.925782 548.828125) scale(0.2 -0.2)">
       <use xlink:href="#TimesNewRomanPSMT-37"/>
       <use xlink:href="#TimesNewRomanPSMT-35" x="50"/>
      </g>
     </g>
    </g>
    <g id="xtick_14">
     <g id="line2d_23">
      <g>
       <use xlink:href="#m8215083493" x="745.01871" y="527.940625" style="stroke: #000000; stroke-width: 0.8"/>
      </g>
     </g>
     <g id="text_22">
      <!-- 100 -->
      <g transform="translate(730.01871 548.828125) scale(0.2 -0.2)">
       <use xlink:href="#TimesNewRomanPSMT-31"/>
       <use xlink:href="#TimesNewRomanPSMT-30" x="50"/>
       <use xlink:href="#TimesNewRomanPSMT-30" x="100"/>
      </g>
     </g>
    </g>
    <g id="xtick_15">
     <g id="line2d_24">
      <g>
       <use xlink:href="#m8215083493" x="902.111638" y="527.940625" style="stroke: #000000; stroke-width: 0.8"/>
      </g>
     </g>
     <g id="text_23">
      <!-- 125 -->
      <g transform="translate(887.111638 548.828125) scale(0.2 -0.2)">
       <use xlink:href="#TimesNewRomanPSMT-31"/>
       <use xlink:href="#TimesNewRomanPSMT-32" x="50"/>
       <use xlink:href="#TimesNewRomanPSMT-35" x="100"/>
      </g>
     </g>
    </g>
    <g id="xtick_16">
     <g id="line2d_25">
      <g>
       <use xlink:href="#m8215083493" x="1059.204566" y="527.940625" style="stroke: #000000; stroke-width: 0.8"/>
      </g>
     </g>
     <g id="text_24">
      <!-- 150 -->
      <g transform="translate(1044.204566 548.828125) scale(0.2 -0.2)">
       <use xlink:href="#TimesNewRomanPSMT-31"/>
       <use xlink:href="#TimesNewRomanPSMT-35" x="50"/>
       <use xlink:href="#TimesNewRomanPSMT-30" x="100"/>
      </g>
     </g>
    </g>
    <g id="xtick_17">
     <g id="line2d_26">
      <g>
       <use xlink:href="#m8215083493" x="1216.297494" y="527.940625" style="stroke: #000000; stroke-width: 0.8"/>
      </g>
     </g>
     <g id="text_25">
      <!-- 175 -->
      <g transform="translate(1201.297494 548.828125) scale(0.2 -0.2)">
       <use xlink:href="#TimesNewRomanPSMT-31"/>
       <use xlink:href="#TimesNewRomanPSMT-37" x="50"/>
       <use xlink:href="#TimesNewRomanPSMT-35" x="100"/>
      </g>
     </g>
    </g>
    <g id="xtick_18">
     <g id="line2d_27">
      <g>
       <use xlink:href="#m8215083493" x="1373.390422" y="527.940625" style="stroke: #000000; stroke-width: 0.8"/>
      </g>
     </g>
     <g id="text_26">
      <!-- 200 -->
      <g transform="translate(1358.390422 548.828125) scale(0.2 -0.2)">
       <use xlink:href="#TimesNewRomanPSMT-32"/>
       <use xlink:href="#TimesNewRomanPSMT-30" x="50"/>
       <use xlink:href="#TimesNewRomanPSMT-30" x="100"/>
      </g>
     </g>
    </g>
   </g>
   <g id="matplotlib.axis_4">
    <g id="ytick_5">
     <g id="line2d_28">
      <g>
       <use xlink:href="#m90c86a7190" x="56.6375" y="520.56425" style="stroke: #000000; stroke-width: 0.8"/>
      </g>
     </g>
     <g id="text_27">
      <!-- 2 -->
      <g transform="translate(39.6375 527.508) scale(0.2 -0.2)">
       <use xlink:href="#TimesNewRomanPSMT-32"/>
      </g>
     </g>
    </g>
    <g id="ytick_6">
     <g id="line2d_29">
      <g>
       <use xlink:href="#m90c86a7190" x="56.6375" y="470.891706" style="stroke: #000000; stroke-width: 0.8"/>
      </g>
     </g>
     <g id="text_28">
      <!-- 4 -->
      <g transform="translate(39.6375 477.835456) scale(0.2 -0.2)">
       <use xlink:href="#TimesNewRomanPSMT-34"/>
      </g>
     </g>
    </g>
    <g id="ytick_7">
     <g id="line2d_30">
      <g>
       <use xlink:href="#m90c86a7190" x="56.6375" y="421.219162" style="stroke: #000000; stroke-width: 0.8"/>
      </g>
     </g>
     <g id="text_29">
      <!-- 6 -->
      <g transform="translate(39.6375 428.162912) scale(0.2 -0.2)">
       <use xlink:href="#TimesNewRomanPSMT-36"/>
      </g>
     </g>
    </g>
    <g id="ytick_8">
     <g id="line2d_31">
      <g>
       <use xlink:href="#m90c86a7190" x="56.6375" y="371.546619" style="stroke: #000000; stroke-width: 0.8"/>
      </g>
     </g>
     <g id="text_30">
      <!-- 8 -->
      <g transform="translate(39.6375 378.490369) scale(0.2 -0.2)">
       <use xlink:href="#TimesNewRomanPSMT-38"/>
      </g>
     </g>
    </g>
    <g id="ytick_9">
     <g id="line2d_32">
      <g>
       <use xlink:href="#m90c86a7190" x="56.6375" y="321.874075" style="stroke: #000000; stroke-width: 0.8"/>
      </g>
     </g>
     <g id="text_31">
      <!-- 10 -->
      <g transform="translate(29.6375 328.817825) scale(0.2 -0.2)">
       <use xlink:href="#TimesNewRomanPSMT-31"/>
       <use xlink:href="#TimesNewRomanPSMT-30" x="50"/>
      </g>
     </g>
    </g>
    <g id="text_32">
     <!-- CPU使用率 -->
     <g transform="translate(23.059375 464.480625) rotate(-90) scale(0.2 -0.2)">
      <use xlink:href="#SimSun-43"/>
      <use xlink:href="#SimSun-50" x="50"/>
      <use xlink:href="#SimSun-55" x="100"/>
      <use xlink:href="#SimSun-4f7f" x="150"/>
      <use xlink:href="#SimSun-7528" x="250"/>
      <use xlink:href="#SimSun-7387" x="350"/>
     </g>
    </g>
   </g>
   <g id="line2d_33">
    <path d="M 116.646998 510.133014 
L 122.930716 490.51236 
L 129.214433 505.414121 
L 135.49815 513.113369 
L 141.781867 516.838813 
L 148.065584 493.741078 
L 154.349301 482.316392 
L 160.633018 501.440321 
L 166.916735 498.708328 
L 173.200452 509.636289 
L 179.48417 502.682133 
L 185.767887 511.623195 
L 192.051604 516.093719 
L 198.335321 493.492716 
L 204.619038 494.486166 
L 210.902755 482.813117 
L 217.186472 501.688683 
L 223.470189 486.290198 
L 229.753907 491.009085 
L 236.037624 505.662489 
L 242.321341 500.695234 
L 248.605058 510.629745 
L 254.888775 453.506321 
L 261.172492 462.199013 
L 267.456209 392.160722 
L 273.739926 443.820166 
L 280.023643 482.316392 
L 286.307361 489.022185 
L 292.591078 467.414631 
L 298.874795 456.735027 
L 305.158512 463.937545 
L 311.442229 479.832767 
L 317.725946 475.362237 
L 324.009663 473.126968 
L 330.29338 459.46702 
L 336.577097 440.343091 
L 342.860815 468.159713 
L 349.144532 407.310852 
L 355.428249 414.265013 
L 361.711966 430.160224 
L 367.995683 400.853415 
L 374.2794 435.872567 
L 380.563117 478.342586 
L 386.846834 487.035285 
L 393.130552 466.421181 
L 405.697986 320.880625 
L 411.981703 420.722437 
L 418.26542 445.807078 
L 424.549137 445.807078 
L 430.832854 470.891706 
L 437.116571 483.309842 
L 443.400288 501.937046 
L 449.684006 486.290198 
L 455.967723 491.009085 
L 462.25144 481.07458 
L 468.535157 500.695234 
L 474.818874 498.211603 
L 481.102591 509.387926 
L 487.386308 502.682133 
L 493.670025 511.623195 
L 499.953742 503.675583 
L 506.23746 512.119914 
L 512.521177 491.50581 
L 518.804894 493.492716 
L 525.088611 494.734528 
L 531.372328 495.231253 
L 537.656045 483.06148 
L 543.939762 489.270548 
L 550.223479 504.917396 
L 556.507197 512.865007 
L 562.790914 504.172308 
L 569.074631 499.95014 
L 575.358348 485.545104 
L 581.642065 490.51236 
L 587.925782 480.826217 
L 594.209499 488.277098 
L 600.493216 492.002535 
L 606.776933 493.741078 
L 613.060651 494.734528 
L 619.344368 445.558709 
L 625.628085 458.225202 
L 631.911802 464.682638 
L 638.195519 467.662988 
L 644.479236 469.401531 
L 650.762953 482.564755 
L 657.04667 489.022185 
L 663.330388 504.917396 
L 669.614105 487.780367 
L 675.897822 466.917906 
L 682.181539 444.068534 
L 688.465256 370.553169 
L 694.748973 408.304301 
L 701.03269 414.761738 
L 707.316407 417.990444 
L 713.600124 432.147123 
L 719.883842 426.683137 
L 726.167559 448.787427 
L 732.451276 472.133519 
L 738.734993 446.800528 
L 745.01871 433.885667 
L 751.302427 378.004055 
L 757.586144 449.284152 
L 763.869861 447.545609 
L 770.153578 421.964256 
L 776.437296 421.715887 
L 782.721013 409.049383 
L 789.00473 452.264502 
L 795.288447 486.538554 
L 801.572164 478.590949 
L 807.855881 437.611098 
L 814.139598 466.669538 
L 820.423315 493.492716 
L 826.707033 482.316392 
L 832.99075 489.022185 
L 839.274467 504.669039 
L 845.558184 500.198503 
L 851.841901 485.545104 
L 858.125618 503.178858 
L 864.409335 511.871557 
L 870.693052 503.675583 
L 876.976769 499.701784 
L 883.260487 497.714878 
L 889.544204 496.721428 
L 895.827921 508.642839 
L 902.111638 502.185408 
L 908.395355 498.95669 
L 914.679072 497.466515 
L 920.962789 508.891201 
L 927.246506 514.851907 
L 933.530223 505.165758 
L 939.813941 500.446871 
L 946.097658 510.629745 
L 952.381375 515.596994 
L 958.665092 518.080625 
L 964.948809 506.904301 
L 971.232526 501.191953 
L 977.516243 510.878101 
L 983.79996 503.427221 
L 990.083678 499.453421 
L 996.367395 423.206062 
L 1002.651112 372.540069 
L 1008.934829 409.297751 
L 1015.218546 440.094735 
L 1021.502263 380.984405 
L 1027.78598 425.938055 
L 1034.069697 473.126968 
L 1040.353414 484.551654 
L 1046.637132 440.343091 
L 1052.920849 455.741577 
L 1059.204566 488.028735 
L 1065.488283 492.002535 
L 1071.772 493.741078 
L 1078.055717 482.316392 
L 1084.339434 389.677098 
L 1090.623151 455.244852 
L 1096.906868 413.271551 
L 1103.190586 466.917906 
L 1109.474303 444.068534 
L 1115.75802 482.316392 
L 1122.041737 451.767777 
L 1128.325454 486.290198 
L 1134.609171 491.009085 
L 1140.892888 493.244353 
L 1147.176605 494.486166 
L 1153.460323 408.304301 
L 1159.74404 452.016134 
L 1166.027757 486.290198 
L 1172.311474 503.427221 
L 1178.595191 499.453421 
L 1184.878908 460.46047 
L 1191.162625 490.51236 
L 1197.446342 505.414121 
L 1203.730059 513.113369 
L 1210.013777 504.420671 
L 1216.297494 499.95014 
L 1222.581211 473.126968 
L 1228.864928 496.721428 
L 1235.148645 496.224703 
L 1241.432362 495.97634 
L 1247.716079 495.97634 
L 1253.999796 495.727978 
L 1260.283513 495.727978 
L 1266.567231 483.309842 
L 1272.850948 489.51891 
L 1279.134665 505.165758 
L 1285.418382 512.865007 
L 1291.702099 504.172308 
L 1297.985816 499.95014 
L 1304.269533 510.381376 
L 1310.55325 515.348632 
L 1316.836968 505.662489 
L 1316.836968 505.662489 
" clip-path="url(#p733a85180b)" style="fill: none; stroke: #1f77b4; stroke-width: 1.5; stroke-linecap: square"/>
   </g>
   <g id="line2d_34">
    <path d="M 1021.502263 439.944437 
L 1027.78598 437.445109 
L 1034.069697 437.13209 
L 1040.353414 433.672318 
L 1046.637132 432.436243 
L 1052.920849 431.520032 
L 1059.204566 429.749466 
L 1065.488283 429.645758 
L 1071.772 424.906815 
L 1078.055717 424.767673 
L 1084.339434 424.921429 
L 1090.623151 424.560861 
L 1096.906868 426.736442 
L 1103.190586 427.419905 
L 1109.474303 428.477946 
L 1115.75802 426.788183 
L 1122.041737 431.312131 
L 1128.325454 430.69391 
L 1134.609171 431.387238 
L 1140.892888 432.40737 
L 1147.176605 435.199383 
L 1153.460323 435.551933 
L 1159.74404 438.840304 
L 1166.027757 439.309352 
L 1172.311474 440.407433 
L 1178.595191 442.506627 
L 1184.878908 443.838688 
L 1191.162625 445.998115 
L 1197.446342 449.407567 
L 1203.730059 450.360112 
L 1210.013777 450.514827 
L 1216.297494 461.470547 
L 1222.581211 462.375981 
L 1228.864928 465.111148 
L 1235.148645 468.657421 
L 1241.432362 469.517414 
L 1247.716079 471.657305 
L 1253.999796 468.398524 
L 1260.283513 474.24542 
L 1266.567231 475.518633 
L 1272.850948 477.502596 
L 1279.134665 478.975368 
L 1285.418382 479.414395 
L 1291.702099 483.041963 
L 1297.985816 478.468381 
L 1304.269533 476.747798 
L 1310.55325 476.723443 
L 1316.836968 475.446066 
" clip-path="url(#p733a85180b)" style="fill: none; stroke: #ff7f0e; stroke-width: 1.5; stroke-linecap: square"/>
   </g>
   <g id="line2d_35">
    <path d="M 1021.502263 527.940625 
L 1021.502263 311.020625 
" clip-path="url(#p733a85180b)" style="fill: none; stroke-dasharray: 7.4,3.2; stroke-dashoffset: 0; stroke: #0000ff; stroke-width: 2"/>
   </g>
   <g id="patch_9">
    <path d="M 56.6375 527.940625 
L 56.6375 311.020625 
" style="fill: none; stroke: #000000; stroke-width: 0.8; stroke-linejoin: miter; stroke-linecap: square"/>
   </g>
   <g id="patch_10">
    <path d="M 1376.846466 527.940625 
L 1376.846466 311.020625 
" style="fill: none; stroke: #000000; stroke-width: 0.8; stroke-linejoin: miter; stroke-linecap: square"/>
   </g>
   <g id="patch_11">
    <path d="M 56.6375 527.940625 
L 1376.846466 527.940625 
" style="fill: none; stroke: #000000; stroke-width: 0.8; stroke-linejoin: miter; stroke-linecap: square"/>
   </g>
   <g id="patch_12">
    <path d="M 56.6375 311.020625 
L 1376.846466 311.020625 
" style="fill: none; stroke: #000000; stroke-width: 0.8; stroke-linejoin: miter; stroke-linecap: square"/>
   </g>
   <g id="text_33">
    <!-- API_ID: 3 -->
    <g transform="translate(671.741983 305.020625) scale(0.2 -0.2)">
     <defs>
      <path id="SimSun-33" d="M 2800 1250 
Q 2800 775 2450 412 
Q 2100 50 1475 50 
Q 1025 50 700 300 
Q 375 550 375 875 
Q 375 1025 475 1137 
Q 575 1250 675 1250 
Q 825 1250 887 1137 
Q 950 1025 950 950 
Q 950 825 900 750 
Q 850 650 850 575 
Q 850 425 1037 325 
Q 1225 225 1450 225 
Q 1900 225 2125 487 
Q 2350 750 2350 1300 
Q 2350 1750 2112 2025 
Q 1875 2300 1225 2300 
L 1225 2475 
Q 1725 2475 1962 2712 
Q 2200 2950 2200 3375 
Q 2200 3725 2012 3987 
Q 1825 4250 1425 4250 
Q 1250 4250 1050 4162 
Q 850 4075 850 3875 
Q 850 3675 900 3625 
Q 950 3575 950 3500 
Q 950 3375 900 3300 
Q 850 3225 725 3225 
Q 625 3225 537 3300 
Q 450 3375 450 3575 
Q 450 3950 775 4187 
Q 1100 4425 1525 4425 
Q 2025 4425 2325 4112 
Q 2625 3800 2625 3450 
Q 2625 3075 2437 2812 
Q 2250 2550 1850 2425 
Q 2400 2225 2600 1900 
Q 2800 1575 2800 1250 
z
" transform="scale(0.015625)"/>
     </defs>
     <use xlink:href="#SimSun-41"/>
     <use xlink:href="#SimSun-50" x="50"/>
     <use xlink:href="#SimSun-49" x="100"/>
     <use xlink:href="#SimSun-5f" x="150"/>
     <use xlink:href="#SimSun-49" x="200"/>
     <use xlink:href="#SimSun-44" x="250"/>
     <use xlink:href="#SimSun-3a" x="300"/>
     <use xlink:href="#SimSun-20" x="350"/>
     <use xlink:href="#SimSun-33" x="400"/>
    </g>
   </g>
  </g>
  <g id="axes_3">
   <g id="patch_13">
    <path d="M 56.6375 811.620625 
L 1376.846466 811.620625 
L 1376.846466 594.700625 
L 56.6375 594.700625 
z
" style="fill: #ffffff"/>
   </g>
   <g id="matplotlib.axis_5">
    <g id="xtick_19">
     <g id="line2d_36">
      <g>
       <use xlink:href="#m8215083493" x="116.646998" y="811.620625" style="stroke: #000000; stroke-width: 0.8"/>
      </g>
     </g>
     <g id="text_34">
      <!-- 0 -->
      <g transform="translate(111.646998 832.508125) scale(0.2 -0.2)">
       <use xlink:href="#TimesNewRomanPSMT-30"/>
      </g>
     </g>
    </g>
    <g id="xtick_20">
     <g id="line2d_37">
      <g>
       <use xlink:href="#m8215083493" x="273.739926" y="811.620625" style="stroke: #000000; stroke-width: 0.8"/>
      </g>
     </g>
     <g id="text_35">
      <!-- 25 -->
      <g transform="translate(263.739926 832.508125) scale(0.2 -0.2)">
       <use xlink:href="#TimesNewRomanPSMT-32"/>
       <use xlink:href="#TimesNewRomanPSMT-35" x="50"/>
      </g>
     </g>
    </g>
    <g id="xtick_21">
     <g id="line2d_38">
      <g>
       <use xlink:href="#m8215083493" x="430.832854" y="811.620625" style="stroke: #000000; stroke-width: 0.8"/>
      </g>
     </g>
     <g id="text_36">
      <!-- 50 -->
      <g transform="translate(420.832854 832.508125) scale(0.2 -0.2)">
       <use xlink:href="#TimesNewRomanPSMT-35"/>
       <use xlink:href="#TimesNewRomanPSMT-30" x="50"/>
      </g>
     </g>
    </g>
    <g id="xtick_22">
     <g id="line2d_39">
      <g>
       <use xlink:href="#m8215083493" x="587.925782" y="811.620625" style="stroke: #000000; stroke-width: 0.8"/>
      </g>
     </g>
     <g id="text_37">
      <!-- 75 -->
      <g transform="translate(577.925782 832.508125) scale(0.2 -0.2)">
       <use xlink:href="#TimesNewRomanPSMT-37"/>
       <use xlink:href="#TimesNewRomanPSMT-35" x="50"/>
      </g>
     </g>
    </g>
    <g id="xtick_23">
     <g id="line2d_40">
      <g>
       <use xlink:href="#m8215083493" x="745.01871" y="811.620625" style="stroke: #000000; stroke-width: 0.8"/>
      </g>
     </g>
     <g id="text_38">
      <!-- 100 -->
      <g transform="translate(730.01871 832.508125) scale(0.2 -0.2)">
       <use xlink:href="#TimesNewRomanPSMT-31"/>
       <use xlink:href="#TimesNewRomanPSMT-30" x="50"/>
       <use xlink:href="#TimesNewRomanPSMT-30" x="100"/>
      </g>
     </g>
    </g>
    <g id="xtick_24">
     <g id="line2d_41">
      <g>
       <use xlink:href="#m8215083493" x="902.111638" y="811.620625" style="stroke: #000000; stroke-width: 0.8"/>
      </g>
     </g>
     <g id="text_39">
      <!-- 125 -->
      <g transform="translate(887.111638 832.508125) scale(0.2 -0.2)">
       <use xlink:href="#TimesNewRomanPSMT-31"/>
       <use xlink:href="#TimesNewRomanPSMT-32" x="50"/>
       <use xlink:href="#TimesNewRomanPSMT-35" x="100"/>
      </g>
     </g>
    </g>
    <g id="xtick_25">
     <g id="line2d_42">
      <g>
       <use xlink:href="#m8215083493" x="1059.204566" y="811.620625" style="stroke: #000000; stroke-width: 0.8"/>
      </g>
     </g>
     <g id="text_40">
      <!-- 150 -->
      <g transform="translate(1044.204566 832.508125) scale(0.2 -0.2)">
       <use xlink:href="#TimesNewRomanPSMT-31"/>
       <use xlink:href="#TimesNewRomanPSMT-35" x="50"/>
       <use xlink:href="#TimesNewRomanPSMT-30" x="100"/>
      </g>
     </g>
    </g>
    <g id="xtick_26">
     <g id="line2d_43">
      <g>
       <use xlink:href="#m8215083493" x="1216.297494" y="811.620625" style="stroke: #000000; stroke-width: 0.8"/>
      </g>
     </g>
     <g id="text_41">
      <!-- 175 -->
      <g transform="translate(1201.297494 832.508125) scale(0.2 -0.2)">
       <use xlink:href="#TimesNewRomanPSMT-31"/>
       <use xlink:href="#TimesNewRomanPSMT-37" x="50"/>
       <use xlink:href="#TimesNewRomanPSMT-35" x="100"/>
      </g>
     </g>
    </g>
    <g id="xtick_27">
     <g id="line2d_44">
      <g>
       <use xlink:href="#m8215083493" x="1373.390422" y="811.620625" style="stroke: #000000; stroke-width: 0.8"/>
      </g>
     </g>
     <g id="text_42">
      <!-- 200 -->
      <g transform="translate(1358.390422 832.508125) scale(0.2 -0.2)">
       <use xlink:href="#TimesNewRomanPSMT-32"/>
       <use xlink:href="#TimesNewRomanPSMT-30" x="50"/>
       <use xlink:href="#TimesNewRomanPSMT-30" x="100"/>
      </g>
     </g>
    </g>
   </g>
   <g id="matplotlib.axis_6">
    <g id="ytick_10">
     <g id="line2d_45">
      <g>
       <use xlink:href="#m90c86a7190" x="56.6375" y="795.071344" style="stroke: #000000; stroke-width: 0.8"/>
      </g>
     </g>
     <g id="text_43">
      <!-- 2 -->
      <g transform="translate(39.6375 802.015094) scale(0.2 -0.2)">
       <use xlink:href="#TimesNewRomanPSMT-32"/>
      </g>
     </g>
    </g>
    <g id="ytick_11">
     <g id="line2d_46">
      <g>
       <use xlink:href="#m90c86a7190" x="56.6375" y="741.557096" style="stroke: #000000; stroke-width: 0.8"/>
      </g>
     </g>
     <g id="text_44">
      <!-- 4 -->
      <g transform="translate(39.6375 748.500846) scale(0.2 -0.2)">
       <use xlink:href="#TimesNewRomanPSMT-34"/>
      </g>
     </g>
    </g>
    <g id="ytick_12">
     <g id="line2d_47">
      <g>
       <use xlink:href="#m90c86a7190" x="56.6375" y="688.042848" style="stroke: #000000; stroke-width: 0.8"/>
      </g>
     </g>
     <g id="text_45">
      <!-- 6 -->
      <g transform="translate(39.6375 694.986598) scale(0.2 -0.2)">
       <use xlink:href="#TimesNewRomanPSMT-36"/>
      </g>
     </g>
    </g>
    <g id="ytick_13">
     <g id="line2d_48">
      <g>
       <use xlink:href="#m90c86a7190" x="56.6375" y="634.528601" style="stroke: #000000; stroke-width: 0.8"/>
      </g>
     </g>
     <g id="text_46">
      <!-- 8 -->
      <g transform="translate(39.6375 641.472351) scale(0.2 -0.2)">
       <use xlink:href="#TimesNewRomanPSMT-38"/>
      </g>
     </g>
    </g>
    <g id="text_47">
     <!-- CPU使用率 -->
     <g transform="translate(33.059375 748.160625) rotate(-90) scale(0.2 -0.2)">
      <use xlink:href="#SimSun-43"/>
      <use xlink:href="#SimSun-50" x="50"/>
      <use xlink:href="#SimSun-55" x="100"/>
      <use xlink:href="#SimSun-4f7f" x="150"/>
      <use xlink:href="#SimSun-7528" x="250"/>
      <use xlink:href="#SimSun-7387" x="350"/>
     </g>
    </g>
   </g>
   <g id="line2d_49">
    <path d="M 116.646998 792.663199 
L 122.930716 780.622498 
L 129.214433 787.846921 
L 135.49815 777.946788 
L 141.781867 773.130498 
L 148.065584 757.343797 
L 154.349301 762.962794 
L 160.633018 779.017072 
L 166.916735 773.665646 
L 173.200452 770.98993 
L 179.48417 769.652075 
L 185.767887 768.849362 
L 192.051604 768.581791 
L 198.335321 768.581791 
L 204.619038 768.31422 
L 210.902755 781.692782 
L 217.186472 775.003501 
L 223.470189 771.792643 
L 229.753907 769.919646 
L 236.037624 782.495495 
L 242.321341 748.781519 
L 248.605058 678.142716 
L 254.888775 669.848009 
L 261.172492 692.323984 
L 267.456209 703.561978 
L 273.739926 669.045289 
L 280.023643 731.924528 
L 286.307361 763.497936 
L 292.591078 779.284643 
L 298.874795 693.661846 
L 305.158512 730.854244 
L 311.442229 709.448553 
L 317.725946 685.367139 
L 324.009663 686.704987 
L 330.29338 714.26483 
L 336.577097 741.289532 
L 342.860815 754.668087 
L 349.144532 708.110691 
L 355.428249 738.078667 
L 361.711966 726.573108 
L 367.995683 760.822226 
L 374.2794 724.432541 
L 380.563117 732.994812 
L 386.846834 737.275961 
L 393.130552 766.173652 
L 399.414269 780.622498 
L 405.697986 787.846921 
L 411.981703 791.325344 
L 418.26542 779.819779 
L 424.549137 774.200782 
L 430.832854 798.014625 
L 437.116571 796.409199 
L 443.400288 755.738371 
L 449.684006 761.89251 
L 455.967723 765.103362 
L 462.25144 780.087356 
L 468.535157 787.57935 
L 474.818874 764.56822 
L 481.102591 753.062661 
L 487.386308 760.822226 
L 493.670025 764.56822 
L 499.953742 779.819779 
L 506.23746 747.176093 
L 512.521177 757.878945 
L 518.804894 762.962794 
L 525.088611 792.395634 
L 531.372328 793.733483 
L 537.656045 781.15764 
L 543.939762 788.114492 
L 550.223479 791.592915 
L 556.507197 779.819779 
L 562.790914 774.200782 
L 569.074631 784.636063 
L 575.358348 789.719918 
L 581.642065 779.017072 
L 587.925782 773.665646 
L 594.209499 770.98993 
L 600.493216 769.652075 
L 613.060651 768.581791 
L 619.344368 781.960353 
L 625.628085 681.353567 
L 631.911802 604.560625 
L 638.195519 659.680299 
L 644.479236 727.375815 
L 650.762953 747.711235 
L 657.04667 771.525072 
L 663.330388 756.541084 
L 669.614105 749.04909 
L 675.897822 745.303096 
L 682.181539 703.294414 
L 688.465256 642.020601 
L 694.748973 718.545966 
L 701.03269 730.051538 
L 707.316407 722.559537 
L 713.600124 745.303096 
L 719.883842 770.187217 
L 726.167559 756.005942 
L 732.451276 762.160081 
L 738.734993 738.346244 
L 745.01871 739.95167 
L 751.302427 740.75439 
L 757.586144 768.046649 
L 763.869861 768.046649 
L 770.153578 741.557096 
L 776.437296 754.935658 
L 782.721013 748.246377 
L 789.00473 704.632262 
L 795.288447 696.337555 
L 801.572164 732.45967 
L 807.855881 750.386945 
L 814.139598 772.595362 
L 820.423315 770.454788 
L 826.707033 769.384504 
L 832.99075 768.849362 
L 839.274467 768.581791 
L 845.558184 768.581791 
L 851.841901 768.31422 
L 858.125618 768.31422 
L 864.409335 781.692782 
L 870.693052 801.760625 
L 876.976769 785.171205 
L 883.260487 776.608927 
L 889.544204 759.2168 
L 895.827921 777.144069 
L 902.111638 772.595362 
L 908.395355 770.454788 
L 914.679072 769.384504 
L 920.962789 782.227924 
L 927.246506 788.649634 
L 933.530223 791.860486 
L 939.813941 766.708794 
L 946.097658 780.890063 
L 952.381375 774.73593 
L 958.665092 784.903634 
L 964.948809 776.608927 
L 971.232526 772.327791 
L 977.516243 783.83335 
L 983.79996 776.073785 
L 990.083678 772.060214 
L 996.367395 676.53729 
L 1002.651112 695.802413 
L 1008.934829 678.41028 
L 1015.218546 709.983695 
L 1021.502263 712.391827 
L 1027.78598 753.865374 
L 1034.069697 774.468359 
L 1040.353414 664.229012 
L 1046.637132 729.78396 
L 1052.920849 735.670535 
L 1059.204566 725.235247 
L 1065.488283 746.640951 
L 1071.772 744.232812 
L 1078.055717 635.866462 
L 1084.339434 675.199428 
L 1090.623151 708.378269 
L 1096.906868 698.210559 
L 1103.190586 746.640951 
L 1109.474303 757.611368 
L 1115.75802 709.448553 
L 1122.041737 752.259948 
L 1128.325454 746.908522 
L 1134.609171 757.611368 
L 1140.892888 762.962794 
L 1147.176605 752.259948 
L 1153.460323 733.529954 
L 1159.74404 750.922087 
L 1166.027757 772.862927 
L 1172.311474 770.722359 
L 1178.595191 769.384504 
L 1184.878908 768.849362 
L 1191.162625 755.203229 
L 1197.446342 775.271072 
L 1203.730059 771.792643 
L 1210.013777 769.919646 
L 1216.297494 769.116933 
L 1222.581211 768.849362 
L 1228.864928 781.960353 
L 1235.148645 775.003501 
L 1241.432362 771.792643 
L 1247.716079 783.298208 
L 1253.999796 775.806214 
L 1260.283513 772.060214 
L 1266.567231 770.187217 
L 1272.850948 769.384504 
L 1279.134665 782.227924 
L 1285.418382 775.271072 
L 1291.702099 771.792643 
L 1297.985816 769.919646 
L 1304.269533 782.495495 
L 1310.55325 775.538643 
L 1316.836968 758.414081 
L 1316.836968 758.414081 
" clip-path="url(#p9c09ba13cc)" style="fill: none; stroke: #1f77b4; stroke-width: 1.5; stroke-linecap: square"/>
   </g>
   <g id="line2d_50">
    <path d="M 1021.502263 720.829981 
L 1027.78598 715.792594 
L 1034.069697 717.872902 
L 1040.353414 713.198323 
L 1046.637132 714.733971 
L 1052.920849 714.379672 
L 1059.204566 714.420602 
L 1065.488283 715.142878 
L 1071.772 717.476473 
L 1078.055717 718.404076 
L 1084.339434 717.981543 
L 1090.623151 723.466075 
L 1096.906868 724.883691 
L 1103.190586 724.969226 
L 1109.474303 726.621069 
L 1115.75802 728.323359 
L 1122.041737 732.16928 
L 1128.325454 733.433663 
L 1134.609171 736.63746 
L 1140.892888 739.773966 
L 1147.176605 739.131969 
L 1153.460323 741.237335 
L 1159.74404 744.681833 
L 1166.027757 745.388108 
L 1172.311474 746.415912 
L 1178.595191 747.098424 
L 1184.878908 747.118162 
L 1191.162625 748.906389 
L 1197.446342 747.735968 
L 1203.730059 748.713642 
L 1210.013777 747.512428 
L 1216.297494 750.629662 
L 1222.581211 747.1268 
L 1228.864928 749.329203 
L 1235.148645 750.661738 
L 1241.432362 754.05231 
L 1247.716079 754.922638 
L 1253.999796 750.834575 
L 1260.283513 752.556609 
L 1266.567231 752.434444 
L 1272.850948 753.098794 
L 1279.134665 754.079639 
L 1285.418382 756.146582 
L 1291.702099 756.610396 
L 1297.985816 753.300351 
L 1304.269533 753.604795 
L 1310.55325 752.722978 
L 1316.836968 750.875403 
" clip-path="url(#p9c09ba13cc)" style="fill: none; stroke: #ff7f0e; stroke-width: 1.5; stroke-linecap: square"/>
   </g>
   <g id="line2d_51">
    <path d="M 1021.502263 811.620625 
L 1021.502263 594.700625 
" clip-path="url(#p9c09ba13cc)" style="fill: none; stroke-dasharray: 7.4,3.2; stroke-dashoffset: 0; stroke: #0000ff; stroke-width: 2"/>
   </g>
   <g id="patch_14">
    <path d="M 56.6375 811.620625 
L 56.6375 594.700625 
" style="fill: none; stroke: #000000; stroke-width: 0.8; stroke-linejoin: miter; stroke-linecap: square"/>
   </g>
   <g id="patch_15">
    <path d="M 1376.846466 811.620625 
L 1376.846466 594.700625 
" style="fill: none; stroke: #000000; stroke-width: 0.8; stroke-linejoin: miter; stroke-linecap: square"/>
   </g>
   <g id="patch_16">
    <path d="M 56.6375 811.620625 
L 1376.846466 811.620625 
" style="fill: none; stroke: #000000; stroke-width: 0.8; stroke-linejoin: miter; stroke-linecap: square"/>
   </g>
   <g id="patch_17">
    <path d="M 56.6375 594.700625 
L 1376.846466 594.700625 
" style="fill: none; stroke: #000000; stroke-width: 0.8; stroke-linejoin: miter; stroke-linecap: square"/>
   </g>
   <g id="text_48">
    <!-- API_ID: 4 -->
    <g transform="translate(671.741983 588.700625) scale(0.2 -0.2)">
     <defs>
      <path id="SimSun-34" d="M 2300 575 
Q 2300 400 2400 325 
Q 2500 250 2675 250 
L 2900 250 
L 2900 100 
L 1250 100 
L 1250 250 
L 1525 250 
Q 1725 250 1812 325 
Q 1900 400 1900 575 
L 1900 1400 
L 225 1400 
L 225 1525 
L 2050 4425 
L 2300 4425 
L 2300 1550 
L 2975 1550 
L 2975 1400 
L 2300 1400 
L 2300 575 
z
M 1875 3800 
L 450 1550 
L 1900 1550 
L 1900 3800 
L 1875 3800 
z
" transform="scale(0.015625)"/>
     </defs>
     <use xlink:href="#SimSun-41"/>
     <use xlink:href="#SimSun-50" x="50"/>
     <use xlink:href="#SimSun-49" x="100"/>
     <use xlink:href="#SimSun-5f" x="150"/>
     <use xlink:href="#SimSun-49" x="200"/>
     <use xlink:href="#SimSun-44" x="250"/>
     <use xlink:href="#SimSun-3a" x="300"/>
     <use xlink:href="#SimSun-20" x="350"/>
     <use xlink:href="#SimSun-34" x="400"/>
    </g>
   </g>
  </g>
  <g id="axes_4">
   <g id="patch_18">
    <path d="M 56.6375 1095.300625 
L 1376.846466 1095.300625 
L 1376.846466 878.380625 
L 56.6375 878.380625 
z
" style="fill: #ffffff"/>
   </g>
   <g id="matplotlib.axis_7">
    <g id="xtick_28">
     <g id="line2d_52">
      <g>
       <use xlink:href="#m8215083493" x="116.646998" y="1095.300625" style="stroke: #000000; stroke-width: 0.8"/>
      </g>
     </g>
     <g id="text_49">
      <!-- 0 -->
      <g transform="translate(111.646998 1116.188125) scale(0.2 -0.2)">
       <use xlink:href="#TimesNewRomanPSMT-30"/>
      </g>
     </g>
    </g>
    <g id="xtick_29">
     <g id="line2d_53">
      <g>
       <use xlink:href="#m8215083493" x="273.739926" y="1095.300625" style="stroke: #000000; stroke-width: 0.8"/>
      </g>
     </g>
     <g id="text_50">
      <!-- 25 -->
      <g transform="translate(263.739926 1116.188125) scale(0.2 -0.2)">
       <use xlink:href="#TimesNewRomanPSMT-32"/>
       <use xlink:href="#TimesNewRomanPSMT-35" x="50"/>
      </g>
     </g>
    </g>
    <g id="xtick_30">
     <g id="line2d_54">
      <g>
       <use xlink:href="#m8215083493" x="430.832854" y="1095.300625" style="stroke: #000000; stroke-width: 0.8"/>
      </g>
     </g>
     <g id="text_51">
      <!-- 50 -->
      <g transform="translate(420.832854 1116.188125) scale(0.2 -0.2)">
       <use xlink:href="#TimesNewRomanPSMT-35"/>
       <use xlink:href="#TimesNewRomanPSMT-30" x="50"/>
      </g>
     </g>
    </g>
    <g id="xtick_31">
     <g id="line2d_55">
      <g>
       <use xlink:href="#m8215083493" x="587.925782" y="1095.300625" style="stroke: #000000; stroke-width: 0.8"/>
      </g>
     </g>
     <g id="text_52">
      <!-- 75 -->
      <g transform="translate(577.925782 1116.188125) scale(0.2 -0.2)">
       <use xlink:href="#TimesNewRomanPSMT-37"/>
       <use xlink:href="#TimesNewRomanPSMT-35" x="50"/>
      </g>
     </g>
    </g>
    <g id="xtick_32">
     <g id="line2d_56">
      <g>
       <use xlink:href="#m8215083493" x="745.01871" y="1095.300625" style="stroke: #000000; stroke-width: 0.8"/>
      </g>
     </g>
     <g id="text_53">
      <!-- 100 -->
      <g transform="translate(730.01871 1116.188125) scale(0.2 -0.2)">
       <use xlink:href="#TimesNewRomanPSMT-31"/>
       <use xlink:href="#TimesNewRomanPSMT-30" x="50"/>
       <use xlink:href="#TimesNewRomanPSMT-30" x="100"/>
      </g>
     </g>
    </g>
    <g id="xtick_33">
     <g id="line2d_57">
      <g>
       <use xlink:href="#m8215083493" x="902.111638" y="1095.300625" style="stroke: #000000; stroke-width: 0.8"/>
      </g>
     </g>
     <g id="text_54">
      <!-- 125 -->
      <g transform="translate(887.111638 1116.188125) scale(0.2 -0.2)">
       <use xlink:href="#TimesNewRomanPSMT-31"/>
       <use xlink:href="#TimesNewRomanPSMT-32" x="50"/>
       <use xlink:href="#TimesNewRomanPSMT-35" x="100"/>
      </g>
     </g>
    </g>
    <g id="xtick_34">
     <g id="line2d_58">
      <g>
       <use xlink:href="#m8215083493" x="1059.204566" y="1095.300625" style="stroke: #000000; stroke-width: 0.8"/>
      </g>
     </g>
     <g id="text_55">
      <!-- 150 -->
      <g transform="translate(1044.204566 1116.188125) scale(0.2 -0.2)">
       <use xlink:href="#TimesNewRomanPSMT-31"/>
       <use xlink:href="#TimesNewRomanPSMT-35" x="50"/>
       <use xlink:href="#TimesNewRomanPSMT-30" x="100"/>
      </g>
     </g>
    </g>
    <g id="xtick_35">
     <g id="line2d_59">
      <g>
       <use xlink:href="#m8215083493" x="1216.297494" y="1095.300625" style="stroke: #000000; stroke-width: 0.8"/>
      </g>
     </g>
     <g id="text_56">
      <!-- 175 -->
      <g transform="translate(1201.297494 1116.188125) scale(0.2 -0.2)">
       <use xlink:href="#TimesNewRomanPSMT-31"/>
       <use xlink:href="#TimesNewRomanPSMT-37" x="50"/>
       <use xlink:href="#TimesNewRomanPSMT-35" x="100"/>
      </g>
     </g>
    </g>
    <g id="xtick_36">
     <g id="line2d_60">
      <g>
       <use xlink:href="#m8215083493" x="1373.390422" y="1095.300625" style="stroke: #000000; stroke-width: 0.8"/>
      </g>
     </g>
     <g id="text_57">
      <!-- 200 -->
      <g transform="translate(1358.390422 1116.188125) scale(0.2 -0.2)">
       <use xlink:href="#TimesNewRomanPSMT-32"/>
       <use xlink:href="#TimesNewRomanPSMT-30" x="50"/>
       <use xlink:href="#TimesNewRomanPSMT-30" x="100"/>
      </g>
     </g>
    </g>
   </g>
   <g id="matplotlib.axis_8">
    <g id="ytick_14">
     <g id="line2d_61">
      <g>
       <use xlink:href="#m90c86a7190" x="56.6375" y="1052.2702" style="stroke: #000000; stroke-width: 0.8"/>
      </g>
     </g>
     <g id="text_58">
      <!-- 10 -->
      <g transform="translate(29.6375 1059.21395) scale(0.2 -0.2)">
       <use xlink:href="#TimesNewRomanPSMT-31"/>
       <use xlink:href="#TimesNewRomanPSMT-30" x="50"/>
      </g>
     </g>
    </g>
    <g id="ytick_15">
     <g id="line2d_62">
      <g>
       <use xlink:href="#m90c86a7190" x="56.6375" y="1006.706429" style="stroke: #000000; stroke-width: 0.8"/>
      </g>
     </g>
     <g id="text_59">
      <!-- 20 -->
      <g transform="translate(29.6375 1013.650179) scale(0.2 -0.2)">
       <use xlink:href="#TimesNewRomanPSMT-32"/>
       <use xlink:href="#TimesNewRomanPSMT-30" x="50"/>
      </g>
     </g>
    </g>
    <g id="ytick_16">
     <g id="line2d_63">
      <g>
       <use xlink:href="#m90c86a7190" x="56.6375" y="961.142658" style="stroke: #000000; stroke-width: 0.8"/>
      </g>
     </g>
     <g id="text_60">
      <!-- 30 -->
      <g transform="translate(29.6375 968.086408) scale(0.2 -0.2)">
       <defs>
        <path id="TimesNewRomanPSMT-33" d="M 325 3431 
Q 506 3859 782 4092 
Q 1059 4325 1472 4325 
Q 1981 4325 2253 3994 
Q 2459 3747 2459 3466 
Q 2459 3003 1878 2509 
Q 2269 2356 2469 2072 
Q 2669 1788 2669 1403 
Q 2669 853 2319 450 
Q 1863 -75 997 -75 
Q 569 -75 414 31 
Q 259 138 259 259 
Q 259 350 332 419 
Q 406 488 509 488 
Q 588 488 669 463 
Q 722 447 909 348 
Q 1097 250 1169 231 
Q 1284 197 1416 197 
Q 1734 197 1970 444 
Q 2206 691 2206 1028 
Q 2206 1275 2097 1509 
Q 2016 1684 1919 1775 
Q 1784 1900 1550 2001 
Q 1316 2103 1072 2103 
L 972 2103 
L 972 2197 
Q 1219 2228 1467 2375 
Q 1716 2522 1828 2728 
Q 1941 2934 1941 3181 
Q 1941 3503 1739 3701 
Q 1538 3900 1238 3900 
Q 753 3900 428 3381 
L 325 3431 
z
" transform="scale(0.015625)"/>
       </defs>
       <use xlink:href="#TimesNewRomanPSMT-33"/>
       <use xlink:href="#TimesNewRomanPSMT-30" x="50"/>
      </g>
     </g>
    </g>
    <g id="ytick_17">
     <g id="line2d_64">
      <g>
       <use xlink:href="#m90c86a7190" x="56.6375" y="915.578887" style="stroke: #000000; stroke-width: 0.8"/>
      </g>
     </g>
     <g id="text_61">
      <!-- 40 -->
      <g transform="translate(29.6375 922.522637) scale(0.2 -0.2)">
       <use xlink:href="#TimesNewRomanPSMT-34"/>
       <use xlink:href="#TimesNewRomanPSMT-30" x="50"/>
      </g>
     </g>
    </g>
    <g id="text_62">
     <!-- CPU使用率 -->
     <g transform="translate(23.059375 1031.840625) rotate(-90) scale(0.2 -0.2)">
      <use xlink:href="#SimSun-43"/>
      <use xlink:href="#SimSun-50" x="50"/>
      <use xlink:href="#SimSun-55" x="100"/>
      <use xlink:href="#SimSun-4f7f" x="150"/>
      <use xlink:href="#SimSun-7528" x="250"/>
      <use xlink:href="#SimSun-7387" x="350"/>
     </g>
    </g>
   </g>
   <g id="line2d_65">
    <path d="M 116.646998 1017.231658 
L 122.930716 1000.600883 
L 129.214433 989.984516 
L 135.49815 986.931752 
L 141.781867 994.540902 
L 148.065584 968.7518 
L 154.349301 974.037196 
L 160.633018 1013.176485 
L 166.916735 1025.888781 
L 173.200452 1032.222138 
L 179.48417 1035.411606 
L 185.767887 1037.006339 
L 192.051604 1028.71373 
L 198.335321 1040.469183 
L 204.619038 1023.610584 
L 210.902755 1033.361237 
L 217.186472 1020.056615 
L 223.470189 1038.418814 
L 229.753907 1047.622693 
L 236.037624 1061.337389 
L 248.605058 1070.495708 
L 254.888775 1072.773897 
L 261.172492 1080.747557 
L 267.456209 1082.433417 
L 273.739926 1074.186373 
L 280.023643 1058.694691 
L 286.307361 1016.730462 
L 292.591078 1007.16206 
L 298.874795 956.814097 
L 305.158512 933.941082 
L 311.442229 892.842558 
L 317.725946 906.511707 
L 324.009663 922.413453 
L 330.29338 896.214285 
L 336.577097 928.701258 
L 342.860815 926.696459 
L 349.144532 918.859485 
L 355.428249 946.835637 
L 361.711966 944.876394 
L 367.995683 989.437756 
L 374.2794 979.869362 
L 380.563117 963.648662 
L 386.846834 955.583873 
L 393.130552 942.415963 
L 399.414269 965.425655 
L 405.697986 954.171398 
L 411.981703 957.679811 
L 418.26542 925.238419 
L 424.549137 1000.145244 
L 430.832854 1005.704021 
L 437.116571 1047.212619 
L 443.400288 1061.10957 
L 449.684006 1077.193582 
L 455.967723 1080.701993 
L 462.25144 1068.764284 
L 468.535157 1065.073619 
L 474.818874 1070.040071 
L 481.102591 1058.876946 
L 487.386308 1064.709109 
L 493.670025 1031.128613 
L 499.953742 1030.308464 
L 506.23746 1034.454766 
L 512.521177 1031.994323 
L 518.804894 1017.049399 
L 525.088611 1016.457073 
L 531.372328 1000.190809 
L 537.656045 994.313078 
L 543.939762 995.953376 
L 550.223479 976.269829 
L 556.507197 991.488129 
L 562.790914 992.262713 
L 569.074631 1004.063731 
L 575.358348 1009.941453 
L 581.642065 1042.473991 
L 587.925782 1026.891181 
L 594.209499 1019.054207 
L 600.493216 1017.459482 
L 606.776933 1028.030275 
L 613.060651 1008.255598 
L 619.344368 1014.315579 
L 625.628085 1001.375468 
L 631.911802 1017.732862 
L 638.195519 1053.227039 
L 644.479236 1052.725839 
L 650.762953 1063.888962 
L 657.04667 1074.049683 
L 663.330388 1074.550883 
L 669.614105 1081.613269 
L 675.897822 1069.219924 
L 682.181539 1069.857816 
L 688.465256 1056.507632 
L 694.748973 1074.915393 
L 701.03269 1068.126392 
L 707.316407 1010.078147 
L 713.600124 974.219456 
L 719.883842 983.651155 
L 726.167559 974.675095 
L 732.451276 929.156889 
L 738.734993 924.646086 
L 745.01871 901.909756 
L 751.302427 892.797019 
L 757.586144 888.240625 
L 763.869861 901.909756 
L 770.153578 913.300699 
L 776.437296 907.605228 
L 782.721013 895.621951 
L 789.00473 937.495068 
L 795.288447 958.454395 
L 801.572164 978.001257 
L 807.855881 980.962892 
L 814.139598 961.962808 
L 820.423315 952.439979 
L 826.707033 963.603097 
L 832.99075 976.042005 
L 839.274467 975.44968 
L 845.558184 1004.747186 
L 851.841901 1005.704021 
L 858.125618 1028.987115 
L 864.409335 1056.598757 
L 870.693052 1052.13351 
L 876.976769 1049.946447 
L 883.260487 1055.641918 
L 889.544204 1035.730555 
L 895.827921 1039.466778 
L 902.111638 1027.620201 
L 908.395355 1044.52436 
L 914.679072 1011.946261 
L 920.962789 1000.190809 
L 927.246506 982.9677 
L 933.530223 978.866962 
L 939.813941 965.471211 
L 946.097658 972.396907 
L 952.381375 975.905319 
L 958.665092 979.914936 
L 964.948809 1025.205322 
L 971.232526 1041.015952 
L 977.516243 1037.507539 
L 983.79996 1035.776115 
L 990.083678 1025.797652 
L 996.367395 1041.334892 
L 1002.651112 1008.073339 
L 1008.934829 1016.502638 
L 1015.218546 1029.80726 
L 1021.502263 1029.670569 
L 1027.78598 1047.804953 
L 1034.069697 1045.481199 
L 1040.353414 1048.852917 
L 1046.637132 1061.975284 
L 1052.920849 1061.656336 
L 1059.204566 1061.519646 
L 1065.488283 1072.865024 
L 1071.772 1058.011236 
L 1078.055717 1071.088038 
L 1084.339434 1052.54358 
L 1090.623151 1047.850513 
L 1096.906868 1047.804953 
L 1103.190586 1015.864748 
L 1109.474303 1004.428241 
L 1115.75802 973.672695 
L 1122.041737 937.814013 
L 1128.325454 942.643761 
L 1134.609171 949.61503 
L 1140.892888 948.521492 
L 1147.176605 945.742099 
L 1153.460323 901.044051 
L 1159.74404 906.010503 
L 1166.027757 908.516506 
L 1172.311474 916.626852 
L 1178.595191 954.809288 
L 1184.878908 989.893395 
L 1191.162625 1002.833507 
L 1197.446342 1032.131017 
L 1203.730059 1039.922418 
L 1210.013777 1030.126209 
L 1216.297494 1043.476391 
L 1222.581211 1061.565209 
L 1228.864928 1047.804953 
L 1235.148645 1061.428519 
L 1241.432362 1068.21752 
L 1247.716079 1062.522048 
L 1253.999796 1075.644415 
L 1260.283513 1082.160033 
L 1266.567231 1085.440625 
L 1272.850948 1068.855412 
L 1279.134665 1060.562805 
L 1285.418382 1042.747371 
L 1297.985816 1052.17907 
L 1304.269533 1033.999127 
L 1310.55325 1022.608184 
L 1316.836968 1010.123712 
L 1316.836968 1010.123712 
" clip-path="url(#p4166b06b45)" style="fill: none; stroke: #1f77b4; stroke-width: 1.5; stroke-linecap: square"/>
   </g>
   <g id="line2d_66">
    <path d="M 1021.502263 1051.23382 
L 1027.78598 1060.454177 
L 1034.069697 1067.126773 
L 1040.353414 1073.648736 
L 1046.637132 1071.167396 
L 1052.920849 1069.744252 
L 1059.204566 1060.508906 
L 1065.488283 1058.065952 
L 1071.772 1039.027277 
L 1078.055717 1020.339851 
L 1084.339434 1004.675123 
L 1090.623151 985.607496 
L 1096.906868 977.865545 
L 1103.190586 961.296708 
L 1109.474303 941.994834 
L 1115.75802 937.25698 
L 1122.041737 916.05694 
L 1128.325454 914.419179 
L 1134.609171 904.266473 
L 1140.892888 899.035966 
L 1147.176605 900.630795 
L 1153.460323 899.684337 
L 1159.74404 900.314249 
L 1166.027757 903.699516 
L 1172.311474 916.092936 
L 1178.595191 922.803835 
L 1184.878908 935.271873 
L 1191.162625 947.491899 
L 1197.446342 963.500331 
L 1203.730059 974.292518 
L 1210.013777 989.916538 
L 1216.297494 1002.666786 
L 1222.581211 1018.85036 
L 1228.864928 1025.259451 
L 1235.148645 1047.400592 
L 1241.432362 1048.215436 
L 1247.716079 1059.832217 
L 1253.999796 1053.874698 
L 1260.283513 1067.446863 
L 1266.567231 1060.907092 
L 1272.850948 1054.369288 
L 1279.134665 1048.942126 
L 1285.418382 1045.353721 
L 1291.702099 1032.632026 
L 1297.985816 1027.46845 
L 1304.269533 1013.903228 
L 1310.55325 1011.804613 
L 1316.836968 1011.52946 
" clip-path="url(#p4166b06b45)" style="fill: none; stroke: #ff7f0e; stroke-width: 1.5; stroke-linecap: square"/>
   </g>
   <g id="line2d_67">
    <path d="M 1021.502263 1095.300625 
L 1021.502263 878.380625 
" clip-path="url(#p4166b06b45)" style="fill: none; stroke-dasharray: 7.4,3.2; stroke-dashoffset: 0; stroke: #0000ff; stroke-width: 2"/>
   </g>
   <g id="patch_19">
    <path d="M 56.6375 1095.300625 
L 56.6375 878.380625 
" style="fill: none; stroke: #000000; stroke-width: 0.8; stroke-linejoin: miter; stroke-linecap: square"/>
   </g>
   <g id="patch_20">
    <path d="M 1376.846466 1095.300625 
L 1376.846466 878.380625 
" style="fill: none; stroke: #000000; stroke-width: 0.8; stroke-linejoin: miter; stroke-linecap: square"/>
   </g>
   <g id="patch_21">
    <path d="M 56.6375 1095.300625 
L 1376.846466 1095.300625 
" style="fill: none; stroke: #000000; stroke-width: 0.8; stroke-linejoin: miter; stroke-linecap: square"/>
   </g>
   <g id="patch_22">
    <path d="M 56.6375 878.380625 
L 1376.846466 878.380625 
" style="fill: none; stroke: #000000; stroke-width: 0.8; stroke-linejoin: miter; stroke-linecap: square"/>
   </g>
   <g id="text_63">
    <!-- API_ID: 5 -->
    <g transform="translate(671.741983 872.380625) scale(0.2 -0.2)">
     <defs>
      <path id="SimSun-35" d="M 1725 2850 
Q 2200 2850 2500 2487 
Q 2800 2125 2800 1525 
Q 2800 850 2487 450 
Q 2175 50 1525 50 
Q 1075 50 725 312 
Q 375 575 375 950 
Q 375 1100 462 1212 
Q 550 1325 700 1325 
Q 850 1325 900 1225 
Q 950 1125 950 1050 
Q 950 900 875 825 
Q 800 725 800 625 
Q 800 425 1037 325 
Q 1275 225 1550 225 
Q 1950 225 2162 550 
Q 2375 875 2375 1475 
Q 2375 1975 2187 2287 
Q 2000 2600 1625 2600 
Q 1350 2600 1150 2500 
Q 950 2400 775 2075 
L 550 2100 
L 675 4375 
L 2725 4375 
L 2650 4000 
L 850 4000 
L 750 2350 
Q 1000 2700 1237 2775 
Q 1475 2850 1725 2850 
z
" transform="scale(0.015625)"/>
     </defs>
     <use xlink:href="#SimSun-41"/>
     <use xlink:href="#SimSun-50" x="50"/>
     <use xlink:href="#SimSun-49" x="100"/>
     <use xlink:href="#SimSun-5f" x="150"/>
     <use xlink:href="#SimSun-49" x="200"/>
     <use xlink:href="#SimSun-44" x="250"/>
     <use xlink:href="#SimSun-3a" x="300"/>
     <use xlink:href="#SimSun-20" x="350"/>
     <use xlink:href="#SimSun-35" x="400"/>
    </g>
   </g>
  </g>
  <g id="axes_5">
   <g id="patch_23">
    <path d="M 56.6375 1378.980625 
L 1376.846466 1378.980625 
L 1376.846466 1162.060625 
L 56.6375 1162.060625 
z
" style="fill: #ffffff"/>
   </g>
   <g id="matplotlib.axis_9">
    <g id="xtick_37">
     <g id="line2d_68">
      <g>
       <use xlink:href="#m8215083493" x="116.646998" y="1378.980625" style="stroke: #000000; stroke-width: 0.8"/>
      </g>
     </g>
     <g id="text_64">
      <!-- 0 -->
      <g transform="translate(111.646998 1399.868125) scale(0.2 -0.2)">
       <use xlink:href="#TimesNewRomanPSMT-30"/>
      </g>
     </g>
    </g>
    <g id="xtick_38">
     <g id="line2d_69">
      <g>
       <use xlink:href="#m8215083493" x="273.739926" y="1378.980625" style="stroke: #000000; stroke-width: 0.8"/>
      </g>
     </g>
     <g id="text_65">
      <!-- 25 -->
      <g transform="translate(263.739926 1399.868125) scale(0.2 -0.2)">
       <use xlink:href="#TimesNewRomanPSMT-32"/>
       <use xlink:href="#TimesNewRomanPSMT-35" x="50"/>
      </g>
     </g>
    </g>
    <g id="xtick_39">
     <g id="line2d_70">
      <g>
       <use xlink:href="#m8215083493" x="430.832854" y="1378.980625" style="stroke: #000000; stroke-width: 0.8"/>
      </g>
     </g>
     <g id="text_66">
      <!-- 50 -->
      <g transform="translate(420.832854 1399.868125) scale(0.2 -0.2)">
       <use xlink:href="#TimesNewRomanPSMT-35"/>
       <use xlink:href="#TimesNewRomanPSMT-30" x="50"/>
      </g>
     </g>
    </g>
    <g id="xtick_40">
     <g id="line2d_71">
      <g>
       <use xlink:href="#m8215083493" x="587.925782" y="1378.980625" style="stroke: #000000; stroke-width: 0.8"/>
      </g>
     </g>
     <g id="text_67">
      <!-- 75 -->
      <g transform="translate(577.925782 1399.868125) scale(0.2 -0.2)">
       <use xlink:href="#TimesNewRomanPSMT-37"/>
       <use xlink:href="#TimesNewRomanPSMT-35" x="50"/>
      </g>
     </g>
    </g>
    <g id="xtick_41">
     <g id="line2d_72">
      <g>
       <use xlink:href="#m8215083493" x="745.01871" y="1378.980625" style="stroke: #000000; stroke-width: 0.8"/>
      </g>
     </g>
     <g id="text_68">
      <!-- 100 -->
      <g transform="translate(730.01871 1399.868125) scale(0.2 -0.2)">
       <use xlink:href="#TimesNewRomanPSMT-31"/>
       <use xlink:href="#TimesNewRomanPSMT-30" x="50"/>
       <use xlink:href="#TimesNewRomanPSMT-30" x="100"/>
      </g>
     </g>
    </g>
    <g id="xtick_42">
     <g id="line2d_73">
      <g>
       <use xlink:href="#m8215083493" x="902.111638" y="1378.980625" style="stroke: #000000; stroke-width: 0.8"/>
      </g>
     </g>
     <g id="text_69">
      <!-- 125 -->
      <g transform="translate(887.111638 1399.868125) scale(0.2 -0.2)">
       <use xlink:href="#TimesNewRomanPSMT-31"/>
       <use xlink:href="#TimesNewRomanPSMT-32" x="50"/>
       <use xlink:href="#TimesNewRomanPSMT-35" x="100"/>
      </g>
     </g>
    </g>
    <g id="xtick_43">
     <g id="line2d_74">
      <g>
       <use xlink:href="#m8215083493" x="1059.204566" y="1378.980625" style="stroke: #000000; stroke-width: 0.8"/>
      </g>
     </g>
     <g id="text_70">
      <!-- 150 -->
      <g transform="translate(1044.204566 1399.868125) scale(0.2 -0.2)">
       <use xlink:href="#TimesNewRomanPSMT-31"/>
       <use xlink:href="#TimesNewRomanPSMT-35" x="50"/>
       <use xlink:href="#TimesNewRomanPSMT-30" x="100"/>
      </g>
     </g>
    </g>
    <g id="xtick_44">
     <g id="line2d_75">
      <g>
       <use xlink:href="#m8215083493" x="1216.297494" y="1378.980625" style="stroke: #000000; stroke-width: 0.8"/>
      </g>
     </g>
     <g id="text_71">
      <!-- 175 -->
      <g transform="translate(1201.297494 1399.868125) scale(0.2 -0.2)">
       <use xlink:href="#TimesNewRomanPSMT-31"/>
       <use xlink:href="#TimesNewRomanPSMT-37" x="50"/>
       <use xlink:href="#TimesNewRomanPSMT-35" x="100"/>
      </g>
     </g>
    </g>
    <g id="xtick_45">
     <g id="line2d_76">
      <g>
       <use xlink:href="#m8215083493" x="1373.390422" y="1378.980625" style="stroke: #000000; stroke-width: 0.8"/>
      </g>
     </g>
     <g id="text_72">
      <!-- 200 -->
      <g transform="translate(1358.390422 1399.868125) scale(0.2 -0.2)">
       <use xlink:href="#TimesNewRomanPSMT-32"/>
       <use xlink:href="#TimesNewRomanPSMT-30" x="50"/>
       <use xlink:href="#TimesNewRomanPSMT-30" x="100"/>
      </g>
     </g>
    </g>
   </g>
   <g id="matplotlib.axis_10">
    <g id="ytick_18">
     <g id="line2d_77">
      <g>
       <use xlink:href="#m90c86a7190" x="56.6375" y="1372.841381" style="stroke: #000000; stroke-width: 0.8"/>
      </g>
     </g>
     <g id="text_73">
      <!-- 0 -->
      <g transform="translate(39.6375 1379.785131) scale(0.2 -0.2)">
       <use xlink:href="#TimesNewRomanPSMT-30"/>
      </g>
     </g>
    </g>
    <g id="ytick_19">
     <g id="line2d_78">
      <g>
       <use xlink:href="#m90c86a7190" x="56.6375" y="1298.426286" style="stroke: #000000; stroke-width: 0.8"/>
      </g>
     </g>
     <g id="text_74">
      <!-- 20 -->
      <g transform="translate(29.6375 1305.370036) scale(0.2 -0.2)">
       <use xlink:href="#TimesNewRomanPSMT-32"/>
       <use xlink:href="#TimesNewRomanPSMT-30" x="50"/>
      </g>
     </g>
    </g>
    <g id="ytick_20">
     <g id="line2d_79">
      <g>
       <use xlink:href="#m90c86a7190" x="56.6375" y="1224.011191" style="stroke: #000000; stroke-width: 0.8"/>
      </g>
     </g>
     <g id="text_75">
      <!-- 40 -->
      <g transform="translate(29.6375 1230.954941) scale(0.2 -0.2)">
       <use xlink:href="#TimesNewRomanPSMT-34"/>
       <use xlink:href="#TimesNewRomanPSMT-30" x="50"/>
      </g>
     </g>
    </g>
    <g id="text_76">
     <!-- CPU使用率 -->
     <g transform="translate(23.059375 1315.520625) rotate(-90) scale(0.2 -0.2)">
      <use xlink:href="#SimSun-43"/>
      <use xlink:href="#SimSun-50" x="50"/>
      <use xlink:href="#SimSun-55" x="100"/>
      <use xlink:href="#SimSun-4f7f" x="150"/>
      <use xlink:href="#SimSun-7528" x="250"/>
      <use xlink:href="#SimSun-7387" x="350"/>
     </g>
    </g>
   </g>
   <g id="line2d_80">
    <path d="M 116.646998 1279.822505 
L 122.930716 1276.101758 
L 129.214433 1279.822505 
L 135.49815 1294.705531 
L 141.781867 1246.33572 
L 148.065584 1276.101758 
L 154.349301 1335.633833 
L 160.633018 1324.471569 
L 179.48417 1324.471569 
L 185.767887 1309.58855 
L 192.051604 1335.633833 
L 198.335321 1298.426286 
L 204.619038 1328.192324 
L 210.902755 1298.426286 
L 217.186472 1339.354588 
L 223.470189 1339.354588 
L 229.753907 1354.237607 
L 236.037624 1350.516852 
L 242.321341 1354.237607 
L 248.605058 1354.237607 
L 254.888775 1365.39987 
L 261.172492 1361.679116 
L 267.456209 1346.796097 
L 273.739926 1328.192324 
L 280.023643 1272.380996 
L 286.307361 1290.984776 
L 292.591078 1216.569682 
L 298.874795 1220.290451 
L 305.158512 1171.920625 
L 311.442229 1227.731946 
L 317.725946 1242.614965 
L 324.009663 1186.803644 
L 330.29338 1261.218739 
L 336.577097 1231.452715 
L 342.860815 1220.290451 
L 349.144532 1272.380996 
L 355.428249 1246.33572 
L 361.711966 1320.750814 
L 367.995683 1268.660248 
L 374.2794 1250.056474 
L 380.563117 1250.056474 
L 386.846834 1235.173455 
L 393.130552 1283.543267 
L 399.414269 1246.33572 
L 405.697986 1261.218739 
L 411.981703 1205.407432 
L 418.26542 1354.237607 
L 424.549137 1302.147041 
L 430.832854 1365.39987 
L 437.116571 1354.237607 
L 443.400288 1369.120625 
L 449.684006 1361.679116 
L 455.967723 1339.354588 
L 462.25144 1343.075343 
L 468.535157 1354.237607 
L 474.818874 1331.913079 
L 481.102591 1350.516852 
L 487.386308 1290.984776 
L 493.670025 1317.030063 
L 499.953742 1324.471569 
L 506.23746 1317.030063 
L 512.521177 1294.705531 
L 518.804894 1305.867795 
L 525.088611 1279.822505 
L 531.372328 1283.543267 
L 537.656045 1290.984776 
L 543.939762 1257.497984 
L 550.223479 1298.426286 
L 556.507197 1287.264015 
L 562.790914 1305.867795 
L 569.074631 1305.867795 
L 575.358348 1354.237607 
L 581.642065 1302.147041 
L 587.925782 1302.147041 
L 594.209499 1305.867795 
L 600.493216 1324.471569 
L 606.776933 1283.543267 
L 613.060651 1309.58855 
L 619.344368 1283.543267 
L 625.628085 1320.750814 
L 631.911802 1365.39987 
L 638.195519 1335.633833 
L 644.479236 1354.237607 
L 650.762953 1361.679116 
L 657.04667 1354.237607 
L 663.330388 1365.39987 
L 669.614105 1339.354588 
L 675.897822 1350.516852 
L 682.181539 1328.192324 
L 688.465256 1369.120625 
L 694.748973 1343.075343 
L 701.03269 1253.777229 
L 707.316407 1242.614965 
L 713.600124 1287.264015 
L 719.883842 1264.939486 
L 726.167559 1197.965908 
L 732.451276 1227.731946 
L 738.734993 1194.245168 
L 745.01871 1197.965908 
L 751.302427 1197.965908 
L 757.586144 1224.011191 
L 763.869861 1231.452715 
L 770.153578 1212.848927 
L 776.437296 1197.965908 
L 782.721013 1276.101758 
L 789.00473 1276.101758 
L 795.288447 1290.984776 
L 801.572164 1279.822505 
L 807.855881 1246.33572 
L 814.139598 1246.33572 
L 820.423315 1272.380996 
L 826.707033 1283.543267 
L 832.99075 1272.380996 
L 839.274467 1320.750814 
L 845.558184 1298.426286 
L 851.841901 1335.633833 
L 858.125618 1361.679116 
L 864.409335 1331.913079 
L 870.693052 1331.913079 
L 876.976769 1343.075343 
L 883.260487 1305.867795 
L 889.544204 1328.192324 
L 895.827921 1305.867795 
L 902.111638 1343.075343 
L 908.395355 1276.101758 
L 914.679072 1283.543267 
L 920.962789 1264.939486 
L 927.246506 1272.380996 
L 933.530223 1253.777229 
L 939.813941 1276.101758 
L 946.097658 1276.101758 
L 952.381375 1279.822505 
L 958.665092 1350.516852 
L 964.948809 1339.354588 
L 971.232526 1320.750814 
L 977.516243 1320.750814 
L 983.79996 1305.867795 
L 990.083678 1339.354588 
L 996.367395 1272.380996 
L 1002.651112 1313.309308 
L 1008.934829 1328.192324 
L 1015.218546 1317.030063 
L 1021.502263 1346.796097 
L 1027.78598 1328.192324 
L 1034.069697 1335.633833 
L 1040.353414 1354.237607 
L 1046.637132 1343.075343 
L 1052.920849 1343.075343 
L 1059.204566 1361.679116 
L 1065.488283 1328.192324 
L 1071.772 1361.679116 
L 1078.055717 1320.750814 
L 1084.339434 1328.192324 
L 1090.623151 1331.913079 
L 1096.906868 1279.822505 
L 1103.190586 1287.264015 
L 1109.474303 1246.33572 
L 1115.75802 1212.848927 
L 1122.041737 1250.056474 
L 1128.325454 1257.497984 
L 1134.609171 1250.056474 
L 1140.892888 1246.33572 
L 1147.176605 1175.64138 
L 1153.460323 1220.290451 
L 1159.74404 1220.290451 
L 1166.027757 1231.452715 
L 1172.311474 1287.264015 
L 1178.595191 1313.309308 
L 1184.878908 1305.867795 
L 1191.162625 1343.075343 
L 1197.446342 1331.913079 
L 1203.730059 1309.58855 
L 1210.013777 1339.354588 
L 1216.297494 1357.958362 
L 1222.581211 1320.750814 
L 1228.864928 1354.237607 
L 1235.148645 1354.237607 
L 1241.432362 1339.354588 
L 1247.716079 1365.39987 
L 1260.283513 1365.39987 
L 1266.567231 1335.633833 
L 1272.850948 1335.633833 
L 1279.134665 1313.309308 
L 1285.418382 1335.633833 
L 1291.702099 1339.354588 
L 1297.985816 1305.867795 
L 1304.269533 1302.147041 
L 1310.55325 1290.984776 
L 1316.836968 1290.984776 
L 1316.836968 1290.984776 
" clip-path="url(#pb3e024069b)" style="fill: none; stroke: #1f77b4; stroke-width: 1.5; stroke-linecap: square"/>
   </g>
   <g id="line2d_81">
    <path d="M 1021.502263 1349.592307 
L 1027.78598 1356.159843 
L 1034.069697 1350.918003 
L 1040.353414 1349.992248 
L 1046.637132 1344.501117 
L 1052.920849 1333.931377 
L 1059.204566 1322.134778 
L 1065.488283 1315.18906 
L 1071.772 1297.495409 
L 1078.055717 1280.609758 
L 1084.339434 1264.072473 
L 1090.623151 1247.25048 
L 1096.906868 1241.34037 
L 1103.190586 1230.741107 
L 1109.474303 1217.542494 
L 1115.75802 1222.630272 
L 1122.041737 1204.788252 
L 1128.325454 1206.971803 
L 1134.609171 1207.012027 
L 1140.892888 1201.750122 
L 1147.176605 1207.894185 
L 1153.460323 1212.88847 
L 1159.74404 1217.209002 
L 1166.027757 1226.390556 
L 1172.311474 1236.700795 
L 1178.595191 1245.893562 
L 1184.878908 1258.13091 
L 1191.162625 1270.594936 
L 1197.446342 1282.386741 
L 1203.730059 1290.865579 
L 1210.013777 1303.607422 
L 1216.297494 1310.737334 
L 1222.581211 1324.627606 
L 1228.864928 1327.371379 
L 1235.148645 1338.638303 
L 1241.432362 1333.082485 
L 1247.716079 1341.140978 
L 1253.999796 1334.112096 
L 1260.283513 1339.493557 
L 1266.567231 1333.209124 
L 1272.850948 1324.341957 
L 1279.134665 1324.741541 
L 1285.418382 1317.450778 
L 1291.702099 1313.867002 
L 1297.985816 1308.315097 
L 1304.269533 1297.696524 
L 1310.55325 1300.187365 
L 1316.836968 1301.715039 
" clip-path="url(#pb3e024069b)" style="fill: none; stroke: #ff7f0e; stroke-width: 1.5; stroke-linecap: square"/>
   </g>
   <g id="line2d_82">
    <path d="M 1021.502263 1378.980625 
L 1021.502263 1162.060625 
" clip-path="url(#pb3e024069b)" style="fill: none; stroke-dasharray: 7.4,3.2; stroke-dashoffset: 0; stroke: #0000ff; stroke-width: 2"/>
   </g>
   <g id="patch_24">
    <path d="M 56.6375 1378.980625 
L 56.6375 1162.060625 
" style="fill: none; stroke: #000000; stroke-width: 0.8; stroke-linejoin: miter; stroke-linecap: square"/>
   </g>
   <g id="patch_25">
    <path d="M 1376.846466 1378.980625 
L 1376.846466 1162.060625 
" style="fill: none; stroke: #000000; stroke-width: 0.8; stroke-linejoin: miter; stroke-linecap: square"/>
   </g>
   <g id="patch_26">
    <path d="M 56.6375 1378.980625 
L 1376.846466 1378.980625 
" style="fill: none; stroke: #000000; stroke-width: 0.8; stroke-linejoin: miter; stroke-linecap: square"/>
   </g>
   <g id="patch_27">
    <path d="M 56.6375 1162.060625 
L 1376.846466 1162.060625 
" style="fill: none; stroke: #000000; stroke-width: 0.8; stroke-linejoin: miter; stroke-linecap: square"/>
   </g>
   <g id="text_77">
    <!-- API_ID: 36 -->
    <g transform="translate(666.741983 1156.060625) scale(0.2 -0.2)">
     <defs>
      <path id="SimSun-36" d="M 775 1800 
Q 775 1050 1037 637 
Q 1300 225 1675 225 
Q 2050 225 2250 500 
Q 2450 775 2450 1525 
Q 2450 2025 2237 2300 
Q 2025 2575 1725 2575 
Q 1450 2575 1212 2412 
Q 975 2250 775 1800 
z
M 1750 2825 
Q 2350 2825 2612 2425 
Q 2875 2025 2875 1525 
Q 2875 775 2512 412 
Q 2150 50 1675 50 
Q 1000 50 650 562 
Q 300 1075 300 2050 
Q 300 3200 725 3812 
Q 1150 4425 1875 4425 
Q 2225 4425 2437 4225 
Q 2650 4025 2650 3875 
Q 2650 3725 2587 3650 
Q 2525 3575 2375 3575 
Q 2250 3575 2187 3637 
Q 2125 3700 2125 3825 
Q 2125 3875 2150 3925 
Q 2150 3975 2150 4025 
Q 2150 4125 2075 4187 
Q 2000 4250 1800 4250 
Q 1375 4250 1075 3862 
Q 775 3475 775 2175 
Q 925 2500 1187 2662 
Q 1450 2825 1750 2825 
z
" transform="scale(0.015625)"/>
     </defs>
     <use xlink:href="#SimSun-41"/>
     <use xlink:href="#SimSun-50" x="50"/>
     <use xlink:href="#SimSun-49" x="100"/>
     <use xlink:href="#SimSun-5f" x="150"/>
     <use xlink:href="#SimSun-49" x="200"/>
     <use xlink:href="#SimSun-44" x="250"/>
     <use xlink:href="#SimSun-3a" x="300"/>
     <use xlink:href="#SimSun-20" x="350"/>
     <use xlink:href="#SimSun-33" x="400"/>
     <use xlink:href="#SimSun-36" x="450"/>
    </g>
   </g>
  </g>
 </g>
 <defs>
  <clipPath id="pbca6e1303a">
   <rect x="56.6375" y="27.340625" width="1320.208966" height="216.92"/>
  </clipPath>
  <clipPath id="p733a85180b">
   <rect x="56.6375" y="311.020625" width="1320.208966" height="216.92"/>
  </clipPath>
  <clipPath id="p9c09ba13cc">
   <rect x="56.6375" y="594.700625" width="1320.208966" height="216.92"/>
  </clipPath>
  <clipPath id="p4166b06b45">
   <rect x="56.6375" y="878.380625" width="1320.208966" height="216.92"/>
  </clipPath>
  <clipPath id="pb3e024069b">
   <rect x="56.6375" y="1162.060625" width="1320.208966" height="216.92"/>
  </clipPath>
 </defs>
</svg>
