<?xml version="1.0" encoding="utf-8" standalone="no"?>
<!DOCTYPE svg PUBLIC "-//W3C//DTD SVG 1.1//EN"
  "http://www.w3.org/Graphics/SVG/1.1/DTD/svg11.dtd">
<svg xmlns:xlink="http://www.w3.org/1999/xlink" width="1050.602344pt" height="690.95375pt" viewBox="0 0 1050.602344 690.95375" xmlns="http://www.w3.org/2000/svg" version="1.1">
 <metadata>
  <rdf:RDF xmlns:dc="http://purl.org/dc/elements/1.1/" xmlns:cc="http://creativecommons.org/ns#" xmlns:rdf="http://www.w3.org/1999/02/22-rdf-syntax-ns#">
   <cc:Work>
    <dc:type rdf:resource="http://purl.org/dc/dcmitype/StillImage"/>
    <dc:date>2024-02-21T16:04:20.176839</dc:date>
    <dc:format>image/svg+xml</dc:format>
    <dc:creator>
     <cc:Agent>
      <dc:title>Matplotlib v3.7.1, https://matplotlib.org/</dc:title>
     </cc:Agent>
    </dc:creator>
   </cc:Work>
  </rdf:RDF>
 </metadata>
 <defs>
  <style type="text/css">*{stroke-linejoin: round; stroke-linecap: butt}</style>
 </defs>
 <g id="figure_1">
  <g id="patch_1">
   <path d="M 0 690.95375 
L 1050.602344 690.95375 
L 1050.602344 0 
L 0 0 
z
" style="fill: #ffffff"/>
  </g>
  <g id="axes_1">
   <g id="patch_2">
    <path d="M 61.6375 192.988125 
L 1032.554189 192.988125 
L 1032.554189 29.059375 
L 61.6375 29.059375 
z
" style="fill: #ffffff"/>
   </g>
   <g id="matplotlib.axis_1">
    <g id="xtick_1">
     <g id="line2d_1">
      <defs>
       <path id="m689db7e5ac" d="M 0 0 
L 0 3.5 
" style="stroke: #000000; stroke-width: 0.8"/>
      </defs>
      <g>
       <use xlink:href="#m689db7e5ac" x="105.770077" y="192.988125" style="stroke: #000000; stroke-width: 0.8"/>
      </g>
     </g>
     <g id="text_1">
      <!-- 0 -->
      <g transform="translate(100.770077 213.875625) scale(0.2 -0.2)">
       <defs>
        <path id="TimesNewRomanPSMT-30" d="M 231 2094 
Q 231 2819 450 3342 
Q 669 3866 1031 4122 
Q 1313 4325 1613 4325 
Q 2100 4325 2488 3828 
Q 2972 3213 2972 2159 
Q 2972 1422 2759 906 
Q 2547 391 2217 158 
Q 1888 -75 1581 -75 
Q 975 -75 572 641 
Q 231 1244 231 2094 
z
M 844 2016 
Q 844 1141 1059 588 
Q 1238 122 1591 122 
Q 1759 122 1940 273 
Q 2122 425 2216 781 
Q 2359 1319 2359 2297 
Q 2359 3022 2209 3506 
Q 2097 3866 1919 4016 
Q 1791 4119 1609 4119 
Q 1397 4119 1231 3928 
Q 1006 3669 925 3112 
Q 844 2556 844 2016 
z
" transform="scale(0.015625)"/>
       </defs>
       <use xlink:href="#TimesNewRomanPSMT-30"/>
      </g>
     </g>
    </g>
    <g id="xtick_2">
     <g id="line2d_2">
      <g>
       <use xlink:href="#m689db7e5ac" x="259.542121" y="192.988125" style="stroke: #000000; stroke-width: 0.8"/>
      </g>
     </g>
     <g id="text_2">
      <!-- 50 -->
      <g transform="translate(249.542121 213.875625) scale(0.2 -0.2)">
       <defs>
        <path id="TimesNewRomanPSMT-35" d="M 2778 4238 
L 2534 3706 
L 1259 3706 
L 981 3138 
Q 1809 3016 2294 2522 
Q 2709 2097 2709 1522 
Q 2709 1188 2573 903 
Q 2438 619 2231 419 
Q 2025 219 1772 97 
Q 1413 -75 1034 -75 
Q 653 -75 479 54 
Q 306 184 306 341 
Q 306 428 378 495 
Q 450 563 559 563 
Q 641 563 702 538 
Q 763 513 909 409 
Q 1144 247 1384 247 
Q 1750 247 2026 523 
Q 2303 800 2303 1197 
Q 2303 1581 2056 1914 
Q 1809 2247 1375 2428 
Q 1034 2569 447 2591 
L 1259 4238 
L 2778 4238 
z
" transform="scale(0.015625)"/>
       </defs>
       <use xlink:href="#TimesNewRomanPSMT-35"/>
       <use xlink:href="#TimesNewRomanPSMT-30" x="50"/>
      </g>
     </g>
    </g>
    <g id="xtick_3">
     <g id="line2d_3">
      <g>
       <use xlink:href="#m689db7e5ac" x="413.314166" y="192.988125" style="stroke: #000000; stroke-width: 0.8"/>
      </g>
     </g>
     <g id="text_3">
      <!-- 100 -->
      <g transform="translate(398.314166 213.875625) scale(0.2 -0.2)">
       <defs>
        <path id="TimesNewRomanPSMT-31" d="M 750 3822 
L 1781 4325 
L 1884 4325 
L 1884 747 
Q 1884 391 1914 303 
Q 1944 216 2037 169 
Q 2131 122 2419 116 
L 2419 0 
L 825 0 
L 825 116 
Q 1125 122 1212 167 
Q 1300 213 1334 289 
Q 1369 366 1369 747 
L 1369 3034 
Q 1369 3497 1338 3628 
Q 1316 3728 1258 3775 
Q 1200 3822 1119 3822 
Q 1003 3822 797 3725 
L 750 3822 
z
" transform="scale(0.015625)"/>
       </defs>
       <use xlink:href="#TimesNewRomanPSMT-31"/>
       <use xlink:href="#TimesNewRomanPSMT-30" x="50"/>
       <use xlink:href="#TimesNewRomanPSMT-30" x="100"/>
      </g>
     </g>
    </g>
    <g id="xtick_4">
     <g id="line2d_4">
      <g>
       <use xlink:href="#m689db7e5ac" x="567.08621" y="192.988125" style="stroke: #000000; stroke-width: 0.8"/>
      </g>
     </g>
     <g id="text_4">
      <!-- 150 -->
      <g transform="translate(552.08621 213.875625) scale(0.2 -0.2)">
       <use xlink:href="#TimesNewRomanPSMT-31"/>
       <use xlink:href="#TimesNewRomanPSMT-35" x="50"/>
       <use xlink:href="#TimesNewRomanPSMT-30" x="100"/>
      </g>
     </g>
    </g>
    <g id="xtick_5">
     <g id="line2d_5">
      <g>
       <use xlink:href="#m689db7e5ac" x="720.858255" y="192.988125" style="stroke: #000000; stroke-width: 0.8"/>
      </g>
     </g>
     <g id="text_5">
      <!-- 200 -->
      <g transform="translate(705.858255 213.875625) scale(0.2 -0.2)">
       <defs>
        <path id="TimesNewRomanPSMT-32" d="M 2934 816 
L 2638 0 
L 138 0 
L 138 116 
Q 1241 1122 1691 1759 
Q 2141 2397 2141 2925 
Q 2141 3328 1894 3587 
Q 1647 3847 1303 3847 
Q 991 3847 742 3664 
Q 494 3481 375 3128 
L 259 3128 
Q 338 3706 661 4015 
Q 984 4325 1469 4325 
Q 1984 4325 2329 3994 
Q 2675 3663 2675 3213 
Q 2675 2891 2525 2569 
Q 2294 2063 1775 1497 
Q 997 647 803 472 
L 1909 472 
Q 2247 472 2383 497 
Q 2519 522 2628 598 
Q 2738 675 2819 816 
L 2934 816 
z
" transform="scale(0.015625)"/>
       </defs>
       <use xlink:href="#TimesNewRomanPSMT-32"/>
       <use xlink:href="#TimesNewRomanPSMT-30" x="50"/>
       <use xlink:href="#TimesNewRomanPSMT-30" x="100"/>
      </g>
     </g>
    </g>
    <g id="xtick_6">
     <g id="line2d_6">
      <g>
       <use xlink:href="#m689db7e5ac" x="874.630299" y="192.988125" style="stroke: #000000; stroke-width: 0.8"/>
      </g>
     </g>
     <g id="text_6">
      <!-- 250 -->
      <g transform="translate(859.630299 213.875625) scale(0.2 -0.2)">
       <use xlink:href="#TimesNewRomanPSMT-32"/>
       <use xlink:href="#TimesNewRomanPSMT-35" x="50"/>
       <use xlink:href="#TimesNewRomanPSMT-30" x="100"/>
      </g>
     </g>
    </g>
    <g id="xtick_7">
     <g id="line2d_7">
      <g>
       <use xlink:href="#m689db7e5ac" x="1028.402344" y="192.988125" style="stroke: #000000; stroke-width: 0.8"/>
      </g>
     </g>
     <g id="text_7">
      <!-- 300 -->
      <g transform="translate(1013.402344 213.875625) scale(0.2 -0.2)">
       <defs>
        <path id="TimesNewRomanPSMT-33" d="M 325 3431 
Q 506 3859 782 4092 
Q 1059 4325 1472 4325 
Q 1981 4325 2253 3994 
Q 2459 3747 2459 3466 
Q 2459 3003 1878 2509 
Q 2269 2356 2469 2072 
Q 2669 1788 2669 1403 
Q 2669 853 2319 450 
Q 1863 -75 997 -75 
Q 569 -75 414 31 
Q 259 138 259 259 
Q 259 350 332 419 
Q 406 488 509 488 
Q 588 488 669 463 
Q 722 447 909 348 
Q 1097 250 1169 231 
Q 1284 197 1416 197 
Q 1734 197 1970 444 
Q 2206 691 2206 1028 
Q 2206 1275 2097 1509 
Q 2016 1684 1919 1775 
Q 1784 1900 1550 2001 
Q 1316 2103 1072 2103 
L 972 2103 
L 972 2197 
Q 1219 2228 1467 2375 
Q 1716 2522 1828 2728 
Q 1941 2934 1941 3181 
Q 1941 3503 1739 3701 
Q 1538 3900 1238 3900 
Q 753 3900 428 3381 
L 325 3431 
z
" transform="scale(0.015625)"/>
       </defs>
       <use xlink:href="#TimesNewRomanPSMT-33"/>
       <use xlink:href="#TimesNewRomanPSMT-30" x="50"/>
       <use xlink:href="#TimesNewRomanPSMT-30" x="100"/>
      </g>
     </g>
    </g>
   </g>
   <g id="matplotlib.axis_2">
    <g id="ytick_1">
     <g id="line2d_8">
      <defs>
       <path id="m552f5830a1" d="M 0 0 
L -3.5 0 
" style="stroke: #000000; stroke-width: 0.8"/>
      </defs>
      <g>
       <use xlink:href="#m552f5830a1" x="61.6375" y="190.892194" style="stroke: #000000; stroke-width: 0.8"/>
      </g>
     </g>
     <g id="text_8">
      <!-- 0.0 -->
      <g transform="translate(29.6375 197.835944) scale(0.2 -0.2)">
       <defs>
        <path id="TimesNewRomanPSMT-2e" d="M 800 606 
Q 947 606 1047 504 
Q 1147 403 1147 259 
Q 1147 116 1045 14 
Q 944 -88 800 -88 
Q 656 -88 554 14 
Q 453 116 453 259 
Q 453 406 554 506 
Q 656 606 800 606 
z
" transform="scale(0.015625)"/>
       </defs>
       <use xlink:href="#TimesNewRomanPSMT-30"/>
       <use xlink:href="#TimesNewRomanPSMT-2e" x="50"/>
       <use xlink:href="#TimesNewRomanPSMT-30" x="75"/>
      </g>
     </g>
    </g>
    <g id="ytick_2">
     <g id="line2d_9">
      <g>
       <use xlink:href="#m552f5830a1" x="61.6375" y="142.990765" style="stroke: #000000; stroke-width: 0.8"/>
      </g>
     </g>
     <g id="text_9">
      <!-- 1.0 -->
      <g transform="translate(29.6375 149.934515) scale(0.2 -0.2)">
       <use xlink:href="#TimesNewRomanPSMT-31"/>
       <use xlink:href="#TimesNewRomanPSMT-2e" x="50"/>
       <use xlink:href="#TimesNewRomanPSMT-30" x="75"/>
      </g>
     </g>
    </g>
    <g id="ytick_3">
     <g id="line2d_10">
      <g>
       <use xlink:href="#m552f5830a1" x="61.6375" y="95.089336" style="stroke: #000000; stroke-width: 0.8"/>
      </g>
     </g>
     <g id="text_10">
      <!-- 2.0 -->
      <g transform="translate(29.6375 102.033086) scale(0.2 -0.2)">
       <use xlink:href="#TimesNewRomanPSMT-32"/>
       <use xlink:href="#TimesNewRomanPSMT-2e" x="50"/>
       <use xlink:href="#TimesNewRomanPSMT-30" x="75"/>
      </g>
     </g>
    </g>
    <g id="ytick_4">
     <g id="line2d_11">
      <g>
       <use xlink:href="#m552f5830a1" x="61.6375" y="47.187906" style="stroke: #000000; stroke-width: 0.8"/>
      </g>
     </g>
     <g id="text_11">
      <!-- 3.0 -->
      <g transform="translate(29.6375 54.131656) scale(0.2 -0.2)">
       <use xlink:href="#TimesNewRomanPSMT-33"/>
       <use xlink:href="#TimesNewRomanPSMT-2e" x="50"/>
       <use xlink:href="#TimesNewRomanPSMT-30" x="75"/>
      </g>
     </g>
    </g>
    <g id="text_12">
     <!-- CPU使用率 -->
     <g transform="translate(23.059375 156.02375) rotate(-90) scale(0.2 -0.2)">
      <defs>
       <path id="SimSun-43" d="M 1725 50 
Q 1025 50 612 575 
Q 200 1100 200 2225 
Q 200 3175 637 3800 
Q 1075 4425 1825 4425 
Q 2000 4425 2175 4375 
Q 2350 4300 2475 4300 
Q 2575 4300 2637 4325 
Q 2700 4350 2750 4425 
L 2975 3325 
L 2825 3275 
Q 2675 3750 2425 4000 
Q 2175 4250 1775 4250 
Q 1250 4250 962 3675 
Q 675 3100 675 2250 
Q 675 1325 925 800 
Q 1175 275 1750 275 
Q 2150 275 2437 562 
Q 2725 850 2825 1325 
L 2975 1250 
Q 2850 725 2512 387 
Q 2175 50 1725 50 
z
" transform="scale(0.015625)"/>
       <path id="SimSun-50" d="M 950 2100 
L 950 450 
Q 950 350 1012 300 
Q 1075 250 1175 250 
L 1350 250 
L 1350 100 
L 150 100 
L 150 250 
L 325 250 
Q 450 250 500 300 
Q 550 350 550 450 
L 550 4025 
Q 550 4125 500 4175 
Q 450 4225 325 4225 
L 175 4225 
L 175 4375 
L 1650 4375 
Q 2275 4375 2612 4062 
Q 2950 3750 2950 3275 
Q 2950 2700 2587 2400 
Q 2225 2100 1725 2100 
L 950 2100 
z
M 1575 2250 
Q 1950 2250 2237 2475 
Q 2525 2700 2525 3250 
Q 2525 3750 2287 3987 
Q 2050 4225 1525 4225 
L 1175 4225 
Q 1075 4225 1012 4175 
Q 950 4125 950 4025 
L 950 2250 
L 1575 2250 
z
" transform="scale(0.015625)"/>
       <path id="SimSun-55" d="M 1625 250 
Q 2000 250 2262 500 
Q 2525 750 2525 1125 
L 2525 4025 
Q 2525 4125 2475 4175 
Q 2425 4225 2300 4225 
L 2150 4225 
L 2150 4375 
L 3050 4375 
L 3050 4225 
L 2900 4225 
Q 2800 4225 2737 4175 
Q 2675 4125 2675 4025 
L 2675 1125 
Q 2675 625 2337 337 
Q 2000 50 1575 50 
Q 1125 50 787 300 
Q 450 550 450 1100 
L 450 4025 
Q 450 4125 400 4175 
Q 350 4225 225 4225 
L 100 4225 
L 100 4375 
L 1200 4375 
L 1200 4225 
L 1075 4225 
Q 975 4225 912 4175 
Q 850 4125 850 4025 
L 850 1100 
Q 850 600 1062 425 
Q 1275 250 1625 250 
z
" transform="scale(0.015625)"/>
       <path id="SimSun-4f7f" d="M 2875 3150 
L 2875 2100 
L 3825 2100 
Q 3850 2825 3850 3150 
L 2875 3150 
z
M 4175 3150 
Q 4175 2800 4150 2100 
L 5150 2100 
L 5150 3150 
L 4175 3150 
z
M 5475 3100 
L 5475 2425 
Q 5475 2100 5500 1800 
L 5150 1675 
L 5150 1950 
L 4150 1950 
Q 4125 1175 3875 600 
Q 4275 275 4875 75 
Q 5475 -125 6075 -150 
L 6075 -250 
Q 5700 -300 5600 -575 
Q 4525 -325 3725 350 
Q 3425 25 2925 -225 
Q 2425 -475 1875 -650 
L 1825 -550 
Q 2400 -325 2850 -25 
Q 3300 275 3500 575 
Q 3200 925 2825 1650 
L 2900 1700 
Q 3325 1100 3625 825 
Q 3800 1300 3825 1950 
L 2875 1950 
L 2875 1825 
L 2525 1675 
Q 2550 2075 2550 2562 
Q 2550 3050 2525 3500 
L 2875 3300 
L 3850 3300 
L 3850 4025 
L 2975 4025 
Q 2650 4025 2375 3950 
L 2150 4175 
L 3850 4175 
L 3850 4525 
Q 3850 4775 3825 5225 
L 4350 5000 
L 4175 4825 
L 4175 4175 
L 5300 4175 
L 5600 4475 
L 6050 4025 
L 4175 4025 
L 4175 3300 
L 5100 3300 
L 5275 3525 
L 5650 3225 
L 5475 3100 
z
M 1675 3175 
L 1675 -450 
L 1325 -625 
Q 1350 -75 1350 350 
L 1350 3200 
Q 900 2475 350 1900 
L 275 1950 
Q 700 2525 1112 3400 
Q 1525 4275 1800 5250 
L 2325 4925 
L 2125 4800 
Q 1725 3925 1500 3525 
L 1875 3325 
L 1675 3175 
z
" transform="scale(0.015625)"/>
       <path id="SimSun-7528" d="M 3400 3150 
L 3400 1825 
L 5075 1825 
L 5075 3150 
L 3400 3150 
z
M 4075 100 
Q 4725 50 4900 62 
Q 5075 75 5075 400 
L 5075 1675 
L 3400 1675 
Q 3400 75 3425 -225 
L 3050 -400 
Q 3075 1025 3075 1675 
L 1425 1675 
Q 1250 350 375 -600 
L 300 -550 
Q 775 225 950 1025 
Q 1125 1825 1125 3225 
Q 1125 4625 1100 5075 
L 1475 4825 
L 5050 4825 
L 5225 5100 
L 5625 4800 
L 5425 4600 
L 5425 225 
Q 5450 -400 4875 -575 
Q 4825 -150 4075 -25 
L 4075 100 
z
M 1475 4675 
L 1475 3300 
L 3075 3300 
L 3075 4675 
L 1475 4675 
z
M 3400 4675 
L 3400 3300 
L 5075 3300 
L 5075 4675 
L 3400 4675 
z
M 1475 3150 
Q 1450 2100 1425 1825 
L 3075 1825 
L 3075 3150 
L 1475 3150 
z
" transform="scale(0.015625)"/>
       <path id="SimSun-7387" d="M 875 3725 
L 925 3800 
Q 1375 3650 1550 3525 
Q 1725 3400 1725 3250 
Q 1725 3175 1662 3025 
Q 1600 2875 1550 2875 
Q 1500 2875 1425 3050 
Q 1275 3325 875 3725 
z
M 550 1850 
Q 875 1925 2000 2575 
L 2050 2500 
Q 1675 2225 1337 1937 
Q 1000 1650 875 1425 
L 550 1850 
z
M 5200 3450 
Q 4800 3150 4275 2800 
L 4225 2875 
Q 4775 3400 5050 3925 
L 5450 3525 
L 5200 3450 
z
M 4325 2500 
L 4350 2575 
Q 5225 2350 5375 2212 
Q 5525 2075 5525 1900 
Q 5525 1775 5487 1662 
Q 5450 1550 5400 1550 
Q 5325 1550 5200 1800 
Q 4975 2150 4325 2500 
z
M 3150 3900 
Q 2500 3300 2300 3150 
Q 2800 3150 3400 3175 
Q 3700 3500 3850 3825 
L 4250 3450 
Q 4050 3400 3450 2825 
Q 2850 2250 2475 1950 
Q 3150 1975 3850 2000 
Q 3750 2175 3550 2450 
L 3600 2500 
Q 4050 2250 4200 2100 
Q 4350 1950 4350 1850 
Q 4350 1775 4250 1625 
Q 4150 1475 4100 1475 
Q 4075 1475 4050 1550 
Q 4000 1700 3900 1900 
Q 3650 1875 3075 1800 
L 3500 1550 
L 3325 1425 
L 3325 975 
L 5325 975 
L 5650 1300 
L 6100 825 
L 3325 825 
Q 3325 -275 3350 -525 
L 2975 -650 
Q 3000 0 3000 825 
L 1125 825 
Q 800 825 525 750 
L 300 975 
L 3000 975 
L 3000 1775 
Q 2450 1700 2200 1525 
L 1950 1950 
Q 2275 1950 2675 2350 
Q 3075 2750 3325 3050 
Q 2400 2950 2150 2775 
L 1950 3175 
Q 2150 3150 2475 3575 
Q 2800 4000 2900 4225 
L 1450 4225 
Q 1125 4225 850 4150 
L 625 4375 
L 3100 4375 
Q 3050 4800 2675 5200 
L 2725 5250 
Q 3225 5050 3337 4912 
Q 3450 4775 3450 4700 
Q 3450 4550 3250 4375 
L 5025 4375 
L 5350 4675 
L 5775 4225 
L 3050 4225 
L 3375 3950 
L 3150 3900 
z
" transform="scale(0.015625)"/>
      </defs>
      <use xlink:href="#SimSun-43"/>
      <use xlink:href="#SimSun-50" x="50"/>
      <use xlink:href="#SimSun-55" x="100"/>
      <use xlink:href="#SimSun-4f7f" x="150"/>
      <use xlink:href="#SimSun-7528" x="250"/>
      <use xlink:href="#SimSun-7387" x="350"/>
     </g>
    </g>
   </g>
   <g id="line2d_12">
    <path d="M 105.770077 115.66779 
L 108.845518 122.124906 
L 111.920959 129.243058 
L 114.996399 134.186483 
L 118.07184 136.351627 
L 121.147281 141.400436 
L 124.222722 157.294133 
L 127.298163 143.297337 
L 130.373604 150.39633 
L 133.449045 148.667087 
L 136.524486 158.127619 
L 139.599927 158.577893 
L 142.675367 157.706085 
L 145.750808 161.624421 
L 148.826249 161.605263 
L 151.90169 161.394496 
L 154.977131 165.379894 
L 158.052572 166.031353 
L 161.128013 166.12716 
L 164.203454 166.55827 
L 167.278895 167.966571 
L 170.354335 166.951063 
L 173.429776 164.948778 
L 176.505217 173.369852 
L 179.580658 176.986405 
L 182.656099 170.467023 
L 185.73154 172.804618 
L 188.806981 183.256703 
L 191.882422 184.229109 
L 194.957863 184.118929 
L 198.033303 174.835633 
L 201.108744 176.320578 
L 204.184185 182.217246 
L 207.259626 177.891743 
L 210.335067 181.192157 
L 213.410508 182.289099 
L 216.485949 179.549134 
L 219.56139 181.450828 
L 222.636831 183.826733 
L 225.712272 184.597949 
L 228.787712 182.902236 
L 231.863153 177.58039 
L 234.938594 178.859353 
L 238.014035 178.035454 
L 241.089476 178.840195 
L 244.164917 176.5026 
L 247.240358 175.630798 
L 250.315799 174.462003 
L 253.39124 175.515832 
L 256.46668 174.854797 
L 259.542121 166.079251 
L 262.617562 171.856167 
L 265.693003 157.825841 
L 268.768444 149.261066 
L 271.843885 139.877175 
L 274.919326 123.925996 
L 277.994767 124.711579 
L 281.070208 131.226175 
L 284.145648 128.217963 
L 287.221089 125.784572 
L 290.29653 104.243299 
L 293.371971 93.499007 
L 296.447412 109.55557 
L 299.522853 91.276377 
L 302.598294 101.158449 
L 305.673735 105.915056 
L 308.749176 85.130626 
L 311.824616 83.315163 
L 314.900057 89.724376 
L 317.975498 90.040521 
L 321.050939 94.006766 
L 324.12638 85.298281 
L 327.201821 73.950439 
L 330.277262 54.80423 
L 333.352703 80.378804 
L 336.428144 76.072465 
L 339.503584 65.265902 
L 342.579025 59.335715 
L 345.654466 78.917813 
L 348.729907 40.060179 
L 351.805348 66.578402 
L 354.880789 64.916226 
L 361.031671 84.694725 
L 364.107112 73.059473 
L 367.182552 50.105102 
L 370.257993 69.624936 
L 373.333434 66.228726 
L 376.408875 71.018865 
L 379.484316 67.296928 
L 382.559757 56.581376 
L 385.635198 59.383613 
L 388.710639 59.651859 
L 391.78608 57.505873 
L 394.86152 64.346202 
L 397.936961 67.028682 
L 401.012402 50.564952 
L 404.087843 57.290321 
L 407.163284 70.386564 
L 410.238725 79.550114 
L 413.314166 52.586397 
L 416.389607 36.510682 
L 419.465048 71.267959 
L 422.540488 75.526389 
L 425.615929 78.285512 
L 428.69137 72.796011 
L 431.766811 75.497655 
L 434.842252 74.692903 
L 437.917693 71.464348 
L 440.993134 73.265443 
L 444.068575 73.083422 
L 447.144016 52.088219 
L 450.219457 71.176937 
L 453.294897 84.55102 
L 456.370338 92.71343 
L 459.445779 79.219591 
L 462.52122 91.429664 
L 465.596661 82.251758 
L 468.672102 47.791462 
L 471.747543 52.00679 
L 474.822984 55.728727 
L 477.898425 44.261129 
L 480.973865 49.994928 
L 484.049306 51.067926 
L 487.124747 53.750406 
L 490.200188 72.709786 
L 493.275629 72.106231 
L 496.35107 70.870374 
L 499.426511 71.588889 
L 502.501952 75.928759 
L 505.577393 78.802854 
L 508.652833 82.223012 
L 511.728274 83.286429 
L 514.803715 80.354855 
L 517.879156 87.281409 
L 520.954597 91.089571 
L 524.030038 92.263151 
L 527.105479 97.412552 
L 530.18092 100.861456 
L 533.256361 106.494668 
L 536.331801 117.392242 
L 539.407242 120.304647 
L 542.482683 125.650448 
L 545.558124 131.681234 
L 548.633565 134.603226 
L 551.709006 138.785018 
L 554.784447 140.236433 
L 557.859888 141.055546 
L 560.935329 145.194231 
L 564.010769 145.108011 
L 567.08621 154.707455 
L 570.161651 140.279545 
L 573.237092 142.075844 
L 576.312533 152.274064 
L 579.387974 164.297325 
L 582.463415 170.639468 
L 585.538856 169.566481 
L 588.614297 172.287277 
L 591.689737 173.638099 
L 594.765178 176.722949 
L 597.840619 181.786131 
L 603.991501 180.339513 
L 607.066942 178.586315 
L 610.142383 173.935091 
L 619.368705 176.579249 
L 622.444146 177.010359 
L 625.519587 175.70265 
L 631.670469 177.72888 
L 634.74591 179.525185 
L 637.821351 183.295025 
L 640.896792 178.514463 
L 643.972233 174.758995 
L 647.047673 180.990966 
L 650.123114 181.455613 
L 653.198555 180.689194 
L 656.273996 178.351599 
L 659.349437 181.829243 
L 662.424878 183.448306 
L 665.500319 185.536818 
L 668.57576 185.40748 
L 674.726642 177.518119 
L 680.877523 178.303696 
L 683.952964 174.883537 
L 687.028405 175.199687 
L 690.103846 174.826051 
L 693.179287 172.977058 
L 696.254728 171.53044 
L 699.330169 164.417075 
L 702.40561 165.236189 
L 705.48105 170.543673 
L 708.556491 158.094088 
L 711.631932 156.489392 
L 714.707373 142.823111 
L 717.782814 140.499889 
L 720.858255 143.642227 
L 723.933696 148.796419 
L 727.009137 148.413207 
L 730.084578 147.359375 
L 733.160018 134.684661 
L 739.3109 90.45727 
L 742.386341 116.165967 
L 745.461782 105.507895 
L 748.537223 102.370351 
L 751.612664 86.318585 
L 754.688105 73.773203 
L 757.763546 85.010881 
L 760.838986 90.778211 
L 763.914427 79.348929 
L 766.989868 82.510423 
L 770.065309 82.682862 
L 773.14075 85.480313 
L 776.216191 96.454525 
L 779.291632 79.61238 
L 782.367073 75.69884 
L 785.442514 79.923739 
L 788.517954 113.780474 
L 791.593395 80.15367 
L 794.668836 90.299197 
L 797.744277 101.84823 
L 800.819718 107.998772 
L 803.895159 108.621491 
L 806.9706 105.148638 
L 810.046041 85.039616 
L 813.121482 104.243299 
L 816.196922 106.99284 
L 819.272363 109.172357 
L 822.347804 118.105972 
L 825.423245 97.54189 
L 828.498686 104.525919 
L 831.574127 107.783214 
L 834.649568 114.872625 
L 837.725009 114.369663 
L 840.80045 117.076091 
L 843.87589 99.390884 
L 846.951331 95.156397 
L 850.026772 95.213877 
L 853.102213 87.741259 
L 856.177654 83.343909 
L 859.253095 77.653211 
L 862.328536 78.802854 
L 865.403977 90.960233 
L 868.479418 109.933991 
L 871.554858 103.682851 
L 874.630299 112.544618 
L 877.70574 113.98645 
L 880.781181 109.268159 
L 883.856622 96.109634 
L 886.932063 103.759494 
L 890.007504 106.489878 
L 893.082945 107.3042 
L 896.158386 108.693343 
L 899.233827 110.681251 
L 902.309267 110.202238 
L 905.384708 91.012927 
L 908.460149 84.177395 
L 911.53559 71.603268 
L 914.611031 47.211855 
L 917.686472 65.05035 
L 920.761913 74.779128 
L 923.837354 70.985334 
L 926.912795 81.418272 
L 929.988235 86.993998 
L 933.063676 88.172375 
L 936.139117 80.326121 
L 939.214558 76.556275 
L 942.289999 65.218004 
L 945.36544 82.108053 
L 948.440881 87.195184 
L 951.516322 88.517265 
L 954.591763 82.548739 
L 957.667203 89.456129 
L 960.742644 92.742164 
L 963.818085 100.598001 
L 966.893526 97.197 
L 969.968967 99.592069 
L 973.044408 110.341152 
L 976.119849 114.863044 
L 979.19529 116.376729 
L 982.270731 118.503557 
L 985.346171 127.221613 
L 988.421612 126.148626 
L 988.421612 126.148626 
" clip-path="url(#p5efe415278)" style="fill: none; stroke: #1f77b4; stroke-width: 1.5; stroke-linecap: square"/>
   </g>
   <g id="line2d_13">
    <path d="M 548.633565 120.261802 
L 551.709006 124.991217 
L 554.784447 126.284599 
L 557.859888 128.796381 
L 560.935329 130.14103 
L 564.010769 136.733903 
L 567.08621 137.776215 
L 570.161651 140.215116 
L 576.312533 147.977971 
L 579.387974 151.014549 
L 582.463415 150.286949 
L 585.538856 153.360858 
L 588.614297 156.185582 
L 591.689737 157.652751 
L 594.765178 160.957835 
L 597.840619 164.673273 
L 600.91606 167.311691 
L 603.991501 166.736089 
L 607.066942 169.88865 
L 610.142383 173.540847 
L 613.217824 170.597726 
L 616.293265 168.04274 
L 619.368705 173.141606 
L 622.444146 171.77238 
L 625.519587 172.367495 
L 628.595028 172.56349 
L 631.670469 170.712292 
L 634.74591 172.280624 
L 637.821351 170.016104 
L 640.896792 167.506321 
L 643.972233 168.043522 
L 647.047673 168.256054 
L 650.123114 167.792966 
L 653.198555 167.121064 
L 656.273996 164.273336 
L 659.349437 159.060538 
L 662.424878 160.443035 
L 665.500319 158.690694 
L 668.57576 159.7697 
L 671.651201 156.166178 
L 674.726642 151.843707 
L 677.802082 154.368349 
L 680.877523 149.008711 
L 683.952964 147.640661 
L 687.028405 145.392327 
L 690.103846 142.542593 
L 693.179287 139.887636 
L 696.254728 138.029335 
L 699.330169 135.678286 
L 702.40561 131.674953 
L 705.48105 131.133645 
L 708.556491 131.134148 
L 711.631932 123.630991 
L 714.707373 126.041906 
L 717.782814 122.008416 
L 720.858255 119.803808 
L 723.933696 116.548609 
L 727.009137 116.762088 
L 730.084578 116.56538 
L 733.160018 111.817458 
L 736.235459 107.691181 
L 739.3109 109.782628 
L 742.386341 106.699668 
L 745.461782 106.095644 
L 748.537223 101.171268 
L 751.612664 101.219578 
L 754.688105 100.150245 
L 757.763546 101.229485 
L 760.838986 97.240033 
L 763.914427 97.192746 
L 766.989868 99.006387 
L 770.065309 97.828547 
L 773.14075 94.866143 
L 776.216191 96.128564 
L 779.291632 95.847132 
L 782.367073 94.987795 
L 785.442514 91.878962 
L 788.517954 91.398235 
L 791.593395 90.691095 
L 794.668836 92.923877 
L 797.744277 91.708658 
L 800.819718 92.909385 
L 803.895159 90.783784 
L 806.9706 93.37426 
L 810.046041 90.941446 
L 813.121482 91.96175 
L 816.196922 91.454778 
L 819.272363 91.441542 
L 822.347804 91.078504 
L 825.423245 89.233177 
L 828.498686 88.920264 
L 831.574127 84.982239 
L 834.649568 90.434371 
L 837.725009 88.726662 
L 840.80045 91.219069 
L 843.87589 88.468545 
L 846.951331 86.256731 
L 850.026772 85.221991 
L 853.102213 83.446523 
L 856.177654 86.104129 
L 862.328536 86.452971 
L 865.403977 80.915926 
L 868.479418 84.565535 
L 871.554858 83.136009 
L 874.630299 81.4636 
L 877.70574 80.060466 
L 880.781181 83.194619 
L 883.856622 83.498441 
L 886.932063 80.826605 
L 890.007504 81.811985 
L 893.082945 77.295062 
L 896.158386 79.167319 
L 899.233827 78.122301 
L 902.309267 78.512679 
L 905.384708 77.535408 
L 908.460149 82.51932 
L 911.53559 77.708613 
L 914.611031 80.724688 
L 917.686472 80.362221 
L 920.761913 82.703157 
L 926.912795 81.296426 
L 929.988235 83.159444 
L 933.063676 85.958459 
L 936.139117 83.475075 
L 939.214558 83.733454 
L 942.289999 85.821469 
L 945.36544 89.274576 
L 948.440881 90.662224 
L 951.516322 88.777152 
L 954.591763 93.792002 
L 957.667203 94.455561 
L 963.818085 100.267951 
L 969.968967 102.181974 
L 973.044408 106.305218 
L 976.119849 109.901808 
L 979.19529 111.721924 
L 982.270731 115.426124 
L 985.346171 118.206284 
L 988.421612 119.269484 
L 988.421612 119.269484 
" clip-path="url(#p5efe415278)" style="fill: none; stroke: #ff7f0e; stroke-width: 1.5; stroke-linecap: square"/>
   </g>
   <g id="line2d_14">
    <path d="M 548.633565 192.988125 
L 548.633565 29.059375 
" clip-path="url(#p5efe415278)" style="fill: none; stroke-dasharray: 7.4,3.2; stroke-dashoffset: 0; stroke: #0000ff; stroke-width: 2"/>
   </g>
   <g id="patch_3">
    <path d="M 61.6375 192.988125 
L 61.6375 29.059375 
" style="fill: none; stroke: #000000; stroke-width: 0.8; stroke-linejoin: miter; stroke-linecap: square"/>
   </g>
   <g id="patch_4">
    <path d="M 1032.554189 192.988125 
L 1032.554189 29.059375 
" style="fill: none; stroke: #000000; stroke-width: 0.8; stroke-linejoin: miter; stroke-linecap: square"/>
   </g>
   <g id="patch_5">
    <path d="M 61.6375 192.988125 
L 1032.554189 192.988125 
" style="fill: none; stroke: #000000; stroke-width: 0.8; stroke-linejoin: miter; stroke-linecap: square"/>
   </g>
   <g id="patch_6">
    <path d="M 61.6375 29.059375 
L 1032.554189 29.059375 
" style="fill: none; stroke: #000000; stroke-width: 0.8; stroke-linejoin: miter; stroke-linecap: square"/>
   </g>
   <g id="text_13">
    <!-- 云函数ID: 28 -->
    <g transform="translate(487.095845 23.059375) scale(0.2 -0.2)">
     <defs>
      <path id="SimSun-4e91" d="M 1200 4450 
L 4500 4450 
L 4850 4800 
L 5350 4300 
L 1975 4300 
Q 1700 4300 1425 4225 
L 1200 4450 
z
M 1600 275 
Q 2300 300 4725 450 
Q 4425 975 3850 1700 
L 3925 1775 
Q 5200 725 5287 500 
Q 5375 275 5375 175 
Q 5375 0 5250 -162 
Q 5125 -325 5075 -325 
Q 5025 -325 4975 -200 
Q 4875 50 4775 300 
Q 1650 -25 1300 -300 
L 975 300 
Q 1225 350 1462 550 
Q 1700 750 2150 1462 
Q 2600 2175 2725 2600 
L 1250 2600 
Q 925 2600 650 2525 
L 425 2750 
L 5025 2750 
L 5450 3175 
L 6025 2600 
L 3250 2600 
Q 3000 2025 2500 1375 
Q 2000 725 1600 275 
z
" transform="scale(0.015625)"/>
      <path id="SimSun-51fd" d="M 3050 2275 
L 3050 3000 
Q 3050 3450 3025 3800 
L 3275 3625 
L 4450 4475 
L 1650 4475 
Q 1325 4475 1050 4400 
L 825 4625 
L 4450 4625 
L 4775 4875 
L 5150 4375 
Q 4875 4325 4550 4175 
Q 4225 4025 3400 3550 
L 3550 3450 
L 3375 3325 
L 3375 2400 
Q 4250 3225 4475 3600 
L 4875 3150 
L 4625 3125 
Q 3625 2425 3400 2275 
Q 4575 1675 4687 1487 
Q 4800 1300 4800 1150 
Q 4800 1025 4750 925 
Q 4700 825 4675 825 
Q 4575 825 4375 1150 
Q 4075 1600 3375 2150 
L 3375 725 
Q 3375 350 2875 150 
Q 2850 450 2200 650 
L 2200 750 
Q 2800 675 2925 700 
Q 3050 725 3050 850 
L 3050 2100 
Q 1850 1300 1625 1025 
L 1275 1400 
Q 1575 1475 2087 1725 
Q 2600 1975 3050 2275 
z
M 1700 3475 
L 1775 3550 
Q 2350 3200 2475 3025 
Q 2600 2850 2600 2775 
Q 2600 2650 2500 2525 
Q 2400 2400 2350 2400 
Q 2275 2400 2225 2575 
Q 2150 2875 1700 3475 
z
M 5150 0 
L 5150 2175 
Q 5150 2725 5125 3325 
L 5725 3050 
L 5500 2850 
L 5500 525 
Q 5500 100 5525 -400 
L 5150 -600 
L 5150 -150 
L 1250 -150 
L 1000 -375 
L 675 -50 
L 875 125 
L 875 2375 
Q 875 2800 850 3425 
L 1450 3150 
L 1225 2975 
L 1225 0 
L 5150 0 
z
" transform="scale(0.015625)"/>
      <path id="SimSun-6570" d="M 1875 1525 
Q 1675 1200 1500 900 
Q 1825 825 2275 725 
Q 2500 975 2725 1525 
L 1875 1525 
z
M 850 4900 
Q 1325 4600 1425 4450 
Q 1525 4300 1525 4225 
Q 1525 4100 1437 3975 
Q 1350 3850 1300 3850 
Q 1225 3850 1150 4100 
Q 1050 4450 775 4850 
L 850 4900 
z
M 3000 4975 
L 3450 4675 
Q 3250 4625 3100 4425 
Q 2925 4225 2525 3825 
L 2450 3875 
Q 2925 4625 3000 4975 
z
M 1875 5250 
L 2425 5000 
L 2225 4825 
L 2225 3675 
L 2850 3675 
L 3125 3950 
L 3550 3525 
L 2225 3525 
L 2225 3300 
Q 2800 3175 2937 3062 
Q 3075 2950 3075 2775 
Q 3075 2700 3050 2587 
Q 3025 2475 2975 2475 
Q 2925 2475 2800 2650 
Q 2600 2925 2225 3175 
L 2225 2400 
L 1925 2200 
L 2275 2050 
Q 2150 2000 1950 1675 
L 2725 1675 
L 2900 1900 
L 3275 1575 
L 3050 1450 
Q 2800 875 2600 650 
Q 3000 550 3137 437 
Q 3275 325 3275 150 
Q 3275 -25 3200 -25 
Q 3125 -25 3025 75 
Q 2750 275 2400 425 
Q 1525 -275 325 -500 
L 300 -425 
Q 1450 -50 2100 550 
Q 1600 725 1125 800 
Q 1225 950 1525 1525 
L 1200 1525 
Q 875 1525 600 1450 
L 375 1675 
L 1575 1675 
Q 1675 1925 1775 2275 
L 1900 2225 
L 1900 3250 
Q 1225 2475 350 2050 
L 300 2125 
Q 1225 2775 1700 3525 
L 1250 3525 
Q 925 3525 650 3450 
L 425 3675 
L 1900 3675 
Q 1900 4575 1875 5250 
z
M 3925 3525 
Q 4050 2075 4525 1100 
Q 4925 1950 5025 3525 
L 3925 3525 
z
M 4050 5250 
L 4625 4925 
Q 4425 4850 4325 4625 
Q 4225 4400 3950 3675 
L 5375 3675 
L 5675 3975 
L 6125 3525 
L 5400 3525 
Q 5250 1675 4750 775 
Q 5325 75 6100 -100 
L 6100 -200 
Q 5625 -275 5600 -500 
Q 4950 -50 4525 525 
Q 3700 -275 2550 -650 
L 2500 -575 
Q 3650 -50 4325 800 
Q 3850 1975 3825 3375 
Q 3575 2725 3100 2150 
L 3025 2200 
Q 3625 3200 4050 5250 
z
" transform="scale(0.015625)"/>
      <path id="SimSun-49" d="M 600 4225 
L 600 4375 
L 2600 4375 
L 2600 4225 
L 2025 4225 
Q 1925 4225 1862 4175 
Q 1800 4125 1800 4025 
L 1800 450 
Q 1800 350 1862 300 
Q 1925 250 2025 250 
L 2600 250 
L 2600 100 
L 600 100 
L 600 250 
L 1175 250 
Q 1300 250 1350 300 
Q 1400 350 1400 450 
L 1400 4025 
Q 1400 4125 1350 4175 
Q 1300 4225 1175 4225 
L 600 4225 
z
" transform="scale(0.015625)"/>
      <path id="SimSun-44" d="M 2500 2275 
Q 2500 3350 2175 3787 
Q 1850 4225 1275 4225 
Q 1100 4225 1012 4175 
Q 925 4125 925 4025 
L 925 450 
Q 925 350 1000 300 
Q 1075 250 1200 250 
Q 1750 250 2125 662 
Q 2500 1075 2500 2275 
z
M 525 4025 
Q 525 4125 475 4175 
Q 425 4225 300 4225 
L 150 4225 
L 150 4375 
L 1275 4375 
Q 2050 4375 2512 3875 
Q 2975 3375 2975 2325 
Q 2975 1175 2525 637 
Q 2075 100 1200 100 
L 125 100 
L 125 250 
L 300 250 
Q 425 250 475 300 
Q 525 350 525 450 
L 525 4025 
z
" transform="scale(0.015625)"/>
      <path id="SimSun-3a" d="M 1900 2725 
Q 1900 2575 1800 2475 
Q 1700 2375 1550 2375 
Q 1400 2375 1300 2475 
Q 1200 2575 1200 2725 
Q 1200 2875 1300 2975 
Q 1400 3075 1550 3075 
Q 1700 3075 1800 2975 
Q 1900 2875 1900 2725 
z
M 1900 375 
Q 1900 225 1800 125 
Q 1700 25 1550 25 
Q 1400 25 1300 125 
Q 1200 225 1200 375 
Q 1200 525 1300 625 
Q 1400 725 1550 725 
Q 1700 725 1800 625 
Q 1900 525 1900 375 
z
" transform="scale(0.015625)"/>
      <path id="SimSun-20" d="M 0 0 
Q 0 0 0 0 
z
" transform="scale(0.015625)"/>
      <path id="SimSun-32" d="M 2325 3325 
Q 2325 3775 2125 4012 
Q 1925 4250 1525 4250 
Q 1225 4250 1012 4087 
Q 800 3925 800 3675 
Q 800 3525 900 3425 
Q 975 3325 975 3225 
Q 975 3100 912 3037 
Q 850 2975 725 2975 
Q 575 2975 487 3062 
Q 400 3150 400 3350 
Q 400 3875 775 4150 
Q 1150 4425 1575 4425 
Q 2175 4425 2462 4125 
Q 2750 3825 2750 3375 
Q 2750 3075 2612 2775 
Q 2475 2475 2175 2200 
Q 1450 1500 1062 1062 
Q 675 625 600 475 
L 2075 475 
Q 2300 475 2450 650 
Q 2600 825 2650 1175 
L 2800 1175 
L 2650 100 
L 325 100 
L 325 425 
Q 450 650 737 1000 
Q 1025 1350 1500 1825 
Q 1925 2250 2125 2625 
Q 2325 3000 2325 3325 
z
" transform="scale(0.015625)"/>
      <path id="SimSun-38" d="M 625 1125 
Q 625 725 887 475 
Q 1150 225 1550 225 
Q 2025 225 2237 475 
Q 2450 725 2450 1100 
Q 2450 1425 2150 1725 
Q 1850 2025 1250 2275 
Q 950 2075 787 1775 
Q 625 1475 625 1125 
z
M 2825 1175 
Q 2825 700 2475 375 
Q 2125 50 1550 50 
Q 1025 50 650 375 
Q 275 700 275 1125 
Q 275 1550 487 1850 
Q 700 2150 1100 2375 
Q 750 2550 562 2812 
Q 375 3075 375 3400 
Q 375 3825 700 4125 
Q 1025 4425 1600 4425 
Q 2125 4425 2450 4125 
Q 2775 3825 2775 3400 
Q 2775 3100 2587 2837 
Q 2400 2575 2000 2375 
Q 2425 2125 2625 1825 
Q 2825 1525 2825 1175 
z
M 2425 3375 
Q 2425 3725 2225 3987 
Q 2025 4250 1600 4250 
Q 1125 4250 925 4000 
Q 725 3750 725 3475 
Q 725 3200 1012 2937 
Q 1300 2675 1825 2475 
Q 2125 2625 2275 2850 
Q 2425 3075 2425 3375 
z
" transform="scale(0.015625)"/>
     </defs>
     <use xlink:href="#SimSun-4e91"/>
     <use xlink:href="#SimSun-51fd" x="100"/>
     <use xlink:href="#SimSun-6570" x="200"/>
     <use xlink:href="#SimSun-49" x="300"/>
     <use xlink:href="#SimSun-44" x="350"/>
     <use xlink:href="#SimSun-3a" x="400"/>
     <use xlink:href="#SimSun-20" x="450"/>
     <use xlink:href="#SimSun-32" x="500"/>
     <use xlink:href="#SimSun-38" x="550"/>
    </g>
   </g>
   <g id="legend_1">
    <g id="patch_7">
     <path d="M 75.6375 101.934375 
L 199.6375 101.934375 
Q 203.6375 101.934375 203.6375 97.934375 
L 203.6375 43.059375 
Q 203.6375 39.059375 199.6375 39.059375 
L 75.6375 39.059375 
Q 71.6375 39.059375 71.6375 43.059375 
L 71.6375 97.934375 
Q 71.6375 101.934375 75.6375 101.934375 
z
" style="fill: #ffffff; opacity: 0.8; stroke: #cccccc; stroke-linejoin: miter"/>
    </g>
    <g id="line2d_15">
     <path d="M 79.6375 55.996875 
L 99.6375 55.996875 
L 119.6375 55.996875 
" style="fill: none; stroke: #1f77b4; stroke-width: 1.5; stroke-linecap: square"/>
    </g>
    <g id="text_14">
     <!-- 真实值 -->
     <g transform="translate(135.6375 62.996875) scale(0.2 -0.2)">
      <defs>
       <path id="SimSun-771f" d="M 2050 3450 
L 2050 2900 
L 4300 2900 
L 4300 3450 
L 2050 3450 
z
M 2050 2750 
L 2050 2225 
L 4300 2225 
L 4300 2750 
L 2050 2750 
z
M 2050 2075 
L 2050 1550 
L 4300 1550 
L 4300 2075 
L 2050 2075 
z
M 2050 1400 
L 2050 875 
L 4300 875 
L 4300 1400 
L 2050 1400 
z
M 2875 3600 
L 2925 4325 
L 1525 4325 
Q 1200 4325 925 4250 
L 700 4475 
L 2950 4475 
Q 2975 4825 2975 5275 
L 3550 5025 
L 3375 4925 
L 3300 4475 
L 5000 4475 
L 5325 4825 
L 5775 4325 
L 3275 4325 
L 3200 3600 
L 4275 3600 
L 4450 3875 
L 4850 3575 
L 4650 3375 
L 4650 875 
L 5300 875 
L 5675 1225 
L 6125 725 
L 1150 725 
Q 825 725 550 650 
L 325 875 
L 1700 875 
Q 1700 3200 1675 3775 
L 2050 3600 
L 2875 3600 
z
M 2425 725 
L 2825 350 
L 2575 300 
Q 1500 -425 800 -650 
L 775 -575 
Q 1950 125 2425 725 
z
M 3800 700 
Q 4575 375 4962 200 
Q 5350 25 5400 -112 
Q 5450 -250 5450 -325 
Q 5450 -400 5400 -525 
Q 5350 -650 5325 -650 
Q 5250 -650 5100 -450 
Q 4875 -150 3750 625 
L 3800 700 
z
" transform="scale(0.015625)"/>
       <path id="SimSun-5b9e" d="M 1950 3625 
Q 2575 3400 2700 3250 
Q 2825 3100 2825 2975 
Q 2825 2850 2750 2700 
Q 2675 2550 2625 2550 
Q 2550 2550 2450 2800 
Q 2275 3175 1900 3550 
L 1950 3625 
z
M 3575 1325 
Q 3500 1100 3425 925 
Q 4650 550 5087 325 
Q 5525 100 5512 -225 
Q 5500 -550 5400 -550 
Q 5300 -550 5075 -300 
Q 4625 175 3375 800 
Q 3025 175 2300 -150 
Q 1575 -475 425 -625 
L 425 -525 
Q 1475 -325 2200 100 
Q 2925 525 3200 1325 
L 1225 1325 
Q 900 1325 625 1250 
L 400 1475 
L 3225 1475 
Q 3325 1950 3375 2575 
Q 3425 3200 3425 3700 
L 4050 3400 
L 3850 3225 
Q 3750 2300 3625 1475 
L 5175 1475 
L 5550 1850 
L 6075 1325 
L 3575 1325 
z
M 1275 2700 
Q 1975 2425 2100 2262 
Q 2225 2100 2225 1975 
Q 2225 1850 2150 1700 
Q 2075 1550 2025 1550 
Q 1950 1550 1850 1800 
Q 1675 2175 1225 2625 
L 1275 2700 
z
M 2750 5225 
L 2825 5275 
Q 3225 5100 3425 4925 
Q 3625 4750 3625 4600 
Q 3625 4450 3512 4300 
Q 3400 4150 3325 4150 
Q 3250 4150 3200 4400 
Q 3100 4775 2750 5225 
z
M 4975 3225 
L 5350 3925 
L 1175 3925 
Q 1225 3525 1125 3300 
Q 1025 3075 787 3100 
Q 550 3125 550 3200 
Q 550 3300 700 3475 
Q 975 3825 1050 4375 
L 1150 4375 
L 1175 4075 
L 5300 4075 
L 5575 4350 
L 6050 3800 
Q 5625 3825 5050 3175 
L 4975 3225 
z
" transform="scale(0.015625)"/>
       <path id="SimSun-503c" d="M 1525 650 
Q 1525 -225 1550 -525 
L 1175 -650 
Q 1200 250 1200 550 
L 1200 3025 
Q 750 2300 325 1850 
L 250 1900 
Q 725 2625 1100 3525 
Q 1475 4425 1675 5200 
L 2200 4875 
L 1950 4725 
Q 1550 3800 1425 3475 
L 1725 3300 
L 1525 3150 
L 1525 650 
z
M 2875 3225 
L 2875 2475 
L 4800 2475 
L 4800 3225 
L 2875 3225 
z
M 2875 2325 
L 2875 1575 
L 4800 1575 
L 4800 2325 
L 2875 2325 
z
M 2875 1425 
L 2875 675 
L 4800 675 
L 4800 1425 
L 2875 1425 
z
M 2875 525 
L 2875 -225 
L 4800 -225 
L 4800 525 
L 2875 525 
z
M 3550 4250 
Q 3575 4825 3550 5225 
L 4125 4950 
L 3925 4800 
L 3900 4250 
L 5025 4250 
L 5350 4575 
L 5825 4100 
L 3900 4100 
L 3875 3375 
L 4750 3375 
L 4975 3625 
L 5350 3300 
L 5125 3150 
L 5125 -225 
L 5350 -225 
L 5675 100 
L 6150 -375 
L 2450 -375 
Q 2125 -375 1850 -450 
L 1625 -225 
L 2550 -225 
L 2550 2550 
Q 2550 2850 2525 3575 
L 2875 3375 
L 3525 3375 
L 3550 4100 
L 2800 4100 
Q 2475 4100 2200 4025 
L 1975 4250 
L 3550 4250 
z
" transform="scale(0.015625)"/>
      </defs>
      <use xlink:href="#SimSun-771f"/>
      <use xlink:href="#SimSun-5b9e" x="100"/>
      <use xlink:href="#SimSun-503c" x="200"/>
     </g>
    </g>
    <g id="line2d_16">
     <path d="M 79.6375 84.35625 
L 99.6375 84.35625 
L 119.6375 84.35625 
" style="fill: none; stroke: #ff7f0e; stroke-width: 1.5; stroke-linecap: square"/>
    </g>
    <g id="text_15">
     <!-- 预测值 -->
     <g transform="translate(135.6375 91.35625) scale(0.2 -0.2)">
      <defs>
       <path id="SimSun-9884" d="M 475 4825 
L 2225 4825 
L 2425 5075 
L 2825 4675 
Q 2600 4625 2387 4412 
Q 2175 4200 1800 3750 
Q 2050 3575 2037 3400 
Q 2025 3225 1937 3150 
Q 1850 3075 1825 3075 
Q 1725 3075 1650 3300 
Q 1525 3600 1050 4100 
L 1100 4150 
Q 1475 3975 1700 3825 
L 2225 4675 
L 1300 4675 
Q 975 4675 700 4600 
L 475 4825 
z
M 725 100 
Q 1175 50 1362 37 
Q 1550 25 1550 275 
L 1550 2875 
L 1125 2875 
Q 800 2875 525 2800 
L 300 3025 
L 2525 3025 
L 2725 3275 
L 3150 2875 
Q 2800 2825 2275 2075 
L 2200 2125 
L 2550 2875 
L 1875 2875 
L 1875 150 
Q 1875 -400 1350 -500 
Q 1325 -175 725 0 
L 725 100 
z
M 3250 775 
Q 3275 1425 3275 2287 
Q 3275 3150 3250 3900 
L 3600 3700 
L 4050 3700 
Q 4175 4400 4200 4675 
L 3650 4675 
Q 3325 4675 3050 4600 
L 2825 4825 
L 5325 4825 
L 5675 5150 
L 6125 4675 
L 4675 4675 
Q 4500 4425 4175 3700 
L 5300 3700 
L 5475 3975 
L 5875 3675 
L 5675 3475 
L 5675 1950 
Q 5675 1525 5700 1075 
L 5350 875 
L 5350 3550 
L 3600 3550 
L 3600 1000 
L 3250 775 
z
M 4850 2875 
L 4625 2675 
Q 4625 1475 4475 937 
Q 4325 400 3900 50 
Q 3475 -300 2425 -625 
L 2400 -550 
Q 3500 -50 3837 400 
Q 4175 850 4237 1587 
Q 4300 2325 4275 3175 
L 4850 2875 
z
M 4650 950 
Q 5725 375 5875 212 
Q 6025 50 6025 -125 
Q 6025 -225 5962 -387 
Q 5900 -550 5850 -550 
Q 5800 -550 5750 -450 
Q 5625 -250 5437 0 
Q 5250 250 4600 875 
L 4650 950 
z
" transform="scale(0.015625)"/>
       <path id="SimSun-6d4b" d="M 1975 1000 
Q 2000 1475 2000 2925 
Q 2000 4375 1975 5000 
L 2350 4775 
L 3575 4775 
L 3775 4975 
L 4100 4650 
L 3900 4500 
L 3900 2350 
Q 3900 1850 3925 1350 
L 3600 1200 
L 3600 4625 
L 2325 4625 
L 2325 1150 
L 1975 1000 
z
M 2775 3975 
L 3300 3700 
L 3125 3525 
Q 3150 1825 2875 937 
Q 2600 50 1375 -600 
L 1325 -500 
Q 2200 100 2475 725 
Q 2750 1350 2775 2187 
Q 2800 3025 2775 3975 
z
M 3100 950 
Q 3825 450 3937 262 
Q 4050 75 4050 -25 
Q 4050 -150 3975 -262 
Q 3900 -375 3850 -375 
Q 3750 -375 3650 -75 
Q 3500 375 3050 875 
L 3100 950 
z
M 4475 825 
Q 4500 1200 4500 1700 
L 4500 3400 
Q 4500 3950 4475 4300 
L 5025 4025 
L 4825 3825 
L 4825 1700 
Q 4825 1325 4850 950 
L 4475 825 
z
M 5375 150 
L 5375 4050 
Q 5375 4750 5350 5125 
L 5875 4875 
L 5700 4700 
L 5700 75 
Q 5700 -200 5600 -350 
Q 5500 -500 5200 -600 
Q 5025 -225 4450 -50 
L 4450 50 
Q 5125 -50 5250 -37 
Q 5375 -25 5375 150 
z
M 1850 3500 
Q 1375 1525 1300 1225 
Q 1200 900 1212 450 
Q 1225 0 1250 -175 
Q 1250 -275 1125 -275 
Q 1025 -275 875 -225 
Q 725 -175 725 0 
Q 725 125 800 375 
Q 875 625 875 775 
Q 875 950 762 1050 
Q 650 1150 275 1250 
L 275 1350 
Q 725 1300 837 1312 
Q 950 1325 1087 1537 
Q 1225 1750 1750 3525 
L 1850 3500 
z
M 375 3775 
Q 1075 3350 1112 3100 
Q 1150 2850 1050 2775 
Q 950 2700 900 2700 
Q 800 2700 725 2975 
Q 600 3350 325 3700 
L 375 3775 
z
M 800 5100 
Q 1475 4725 1550 4512 
Q 1625 4300 1525 4187 
Q 1425 4075 1350 4075 
Q 1275 4075 1200 4300 
Q 1075 4650 750 5025 
L 800 5100 
z
" transform="scale(0.015625)"/>
      </defs>
      <use xlink:href="#SimSun-9884"/>
      <use xlink:href="#SimSun-6d4b" x="100"/>
      <use xlink:href="#SimSun-503c" x="200"/>
     </g>
    </g>
   </g>
  </g>
  <g id="axes_2">
   <g id="patch_8">
    <path d="M 61.6375 425.788125 
L 1032.554189 425.788125 
L 1032.554189 261.859375 
L 61.6375 261.859375 
z
" style="fill: #ffffff"/>
   </g>
   <g id="matplotlib.axis_3">
    <g id="xtick_8">
     <g id="line2d_17">
      <g>
       <use xlink:href="#m689db7e5ac" x="105.770077" y="425.788125" style="stroke: #000000; stroke-width: 0.8"/>
      </g>
     </g>
     <g id="text_16">
      <!-- 0 -->
      <g transform="translate(100.770077 446.675625) scale(0.2 -0.2)">
       <use xlink:href="#TimesNewRomanPSMT-30"/>
      </g>
     </g>
    </g>
    <g id="xtick_9">
     <g id="line2d_18">
      <g>
       <use xlink:href="#m689db7e5ac" x="259.542121" y="425.788125" style="stroke: #000000; stroke-width: 0.8"/>
      </g>
     </g>
     <g id="text_17">
      <!-- 50 -->
      <g transform="translate(249.542121 446.675625) scale(0.2 -0.2)">
       <use xlink:href="#TimesNewRomanPSMT-35"/>
       <use xlink:href="#TimesNewRomanPSMT-30" x="50"/>
      </g>
     </g>
    </g>
    <g id="xtick_10">
     <g id="line2d_19">
      <g>
       <use xlink:href="#m689db7e5ac" x="413.314166" y="425.788125" style="stroke: #000000; stroke-width: 0.8"/>
      </g>
     </g>
     <g id="text_18">
      <!-- 100 -->
      <g transform="translate(398.314166 446.675625) scale(0.2 -0.2)">
       <use xlink:href="#TimesNewRomanPSMT-31"/>
       <use xlink:href="#TimesNewRomanPSMT-30" x="50"/>
       <use xlink:href="#TimesNewRomanPSMT-30" x="100"/>
      </g>
     </g>
    </g>
    <g id="xtick_11">
     <g id="line2d_20">
      <g>
       <use xlink:href="#m689db7e5ac" x="567.08621" y="425.788125" style="stroke: #000000; stroke-width: 0.8"/>
      </g>
     </g>
     <g id="text_19">
      <!-- 150 -->
      <g transform="translate(552.08621 446.675625) scale(0.2 -0.2)">
       <use xlink:href="#TimesNewRomanPSMT-31"/>
       <use xlink:href="#TimesNewRomanPSMT-35" x="50"/>
       <use xlink:href="#TimesNewRomanPSMT-30" x="100"/>
      </g>
     </g>
    </g>
    <g id="xtick_12">
     <g id="line2d_21">
      <g>
       <use xlink:href="#m689db7e5ac" x="720.858255" y="425.788125" style="stroke: #000000; stroke-width: 0.8"/>
      </g>
     </g>
     <g id="text_20">
      <!-- 200 -->
      <g transform="translate(705.858255 446.675625) scale(0.2 -0.2)">
       <use xlink:href="#TimesNewRomanPSMT-32"/>
       <use xlink:href="#TimesNewRomanPSMT-30" x="50"/>
       <use xlink:href="#TimesNewRomanPSMT-30" x="100"/>
      </g>
     </g>
    </g>
    <g id="xtick_13">
     <g id="line2d_22">
      <g>
       <use xlink:href="#m689db7e5ac" x="874.630299" y="425.788125" style="stroke: #000000; stroke-width: 0.8"/>
      </g>
     </g>
     <g id="text_21">
      <!-- 250 -->
      <g transform="translate(859.630299 446.675625) scale(0.2 -0.2)">
       <use xlink:href="#TimesNewRomanPSMT-32"/>
       <use xlink:href="#TimesNewRomanPSMT-35" x="50"/>
       <use xlink:href="#TimesNewRomanPSMT-30" x="100"/>
      </g>
     </g>
    </g>
    <g id="xtick_14">
     <g id="line2d_23">
      <g>
       <use xlink:href="#m689db7e5ac" x="1028.402344" y="425.788125" style="stroke: #000000; stroke-width: 0.8"/>
      </g>
     </g>
     <g id="text_22">
      <!-- 300 -->
      <g transform="translate(1013.402344 446.675625) scale(0.2 -0.2)">
       <use xlink:href="#TimesNewRomanPSMT-33"/>
       <use xlink:href="#TimesNewRomanPSMT-30" x="50"/>
       <use xlink:href="#TimesNewRomanPSMT-30" x="100"/>
      </g>
     </g>
    </g>
   </g>
   <g id="matplotlib.axis_4">
    <g id="ytick_5">
     <g id="line2d_24">
      <g>
       <use xlink:href="#m552f5830a1" x="61.6375" y="383.284681" style="stroke: #000000; stroke-width: 0.8"/>
      </g>
     </g>
     <g id="text_23">
      <!-- 1.0 -->
      <g transform="translate(29.6375 390.228431) scale(0.2 -0.2)">
       <use xlink:href="#TimesNewRomanPSMT-31"/>
       <use xlink:href="#TimesNewRomanPSMT-2e" x="50"/>
       <use xlink:href="#TimesNewRomanPSMT-30" x="75"/>
      </g>
     </g>
    </g>
    <g id="ytick_6">
     <g id="line2d_25">
      <g>
       <use xlink:href="#m552f5830a1" x="61.6375" y="328.720337" style="stroke: #000000; stroke-width: 0.8"/>
      </g>
     </g>
     <g id="text_24">
      <!-- 2.0 -->
      <g transform="translate(29.6375 335.664087) scale(0.2 -0.2)">
       <use xlink:href="#TimesNewRomanPSMT-32"/>
       <use xlink:href="#TimesNewRomanPSMT-2e" x="50"/>
       <use xlink:href="#TimesNewRomanPSMT-30" x="75"/>
      </g>
     </g>
    </g>
    <g id="ytick_7">
     <g id="line2d_26">
      <g>
       <use xlink:href="#m552f5830a1" x="61.6375" y="274.155993" style="stroke: #000000; stroke-width: 0.8"/>
      </g>
     </g>
     <g id="text_25">
      <!-- 3.0 -->
      <g transform="translate(29.6375 281.099743) scale(0.2 -0.2)">
       <use xlink:href="#TimesNewRomanPSMT-33"/>
       <use xlink:href="#TimesNewRomanPSMT-2e" x="50"/>
       <use xlink:href="#TimesNewRomanPSMT-30" x="75"/>
      </g>
     </g>
    </g>
    <g id="text_26">
     <!-- CPU使用率 -->
     <g transform="translate(23.059375 388.82375) rotate(-90) scale(0.2 -0.2)">
      <use xlink:href="#SimSun-43"/>
      <use xlink:href="#SimSun-50" x="50"/>
      <use xlink:href="#SimSun-55" x="100"/>
      <use xlink:href="#SimSun-4f7f" x="150"/>
      <use xlink:href="#SimSun-7528" x="250"/>
      <use xlink:href="#SimSun-7387" x="350"/>
     </g>
    </g>
   </g>
   <g id="line2d_27">
    <path d="M 105.770077 295.108704 
L 108.845518 306.370781 
L 111.920959 311.739918 
L 114.996399 318.025733 
L 118.07184 323.918671 
L 121.147281 322.478181 
L 124.222722 346.704743 
L 127.298163 334.264077 
L 130.373604 343.038022 
L 133.449045 349.847651 
L 136.524486 358.883509 
L 139.599927 360.71687 
L 142.675367 350.764334 
L 145.750808 364.252641 
L 148.826249 371.324176 
L 151.90169 375.90758 
L 154.977131 382.979115 
L 158.052572 388.87207 
L 161.128013 385.074392 
L 164.203454 387.169663 
L 170.354335 393.193567 
L 173.429776 395.943611 
L 176.505217 397.253152 
L 179.580658 402.491333 
L 182.656099 406.943781 
L 185.73154 409.431911 
L 188.806981 410.348595 
L 191.882422 411.52719 
L 198.033303 409.170011 
L 201.108744 415.062954 
L 207.259626 416.110594 
L 210.335067 416.503451 
L 213.410508 416.634408 
L 216.485949 409.693825 
L 219.56139 412.44386 
L 222.636831 413.098644 
L 225.712272 412.18196 
L 228.787712 411.396233 
L 231.863153 409.955738 
L 234.938594 404.45565 
L 238.014035 405.241377 
L 241.089476 402.229426 
L 244.164917 396.991245 
L 247.240358 395.419791 
L 250.315799 391.491157 
L 253.39124 372.371809 
L 256.46668 382.848165 
L 259.542121 378.788581 
L 262.617562 372.240859 
L 265.693003 368.050318 
L 268.768444 363.07405 
L 271.843885 346.442836 
L 274.919326 345.13329 
L 277.994767 340.549885 
L 281.070208 342.252296 
L 284.145648 340.680842 
L 287.221089 335.704574 
L 290.29653 325.621088 
L 293.371971 323.525808 
L 296.447412 327.192542 
L 299.522853 325.359175 
L 302.598294 324.835361 
L 305.673735 321.954354 
L 308.749176 310.037501 
L 311.824616 311.478005 
L 314.900057 319.990037 
L 317.975498 319.597174 
L 321.050939 319.597174 
L 324.12638 315.930453 
L 327.201821 310.168465 
L 330.277262 314.489962 
L 333.352703 319.728137 
L 336.428144 316.847143 
L 339.503584 313.180409 
L 342.579025 315.799503 
L 345.654466 328.894946 
L 348.729907 301.656419 
L 351.805348 316.192366 
L 354.880789 315.799503 
L 357.95623 317.63287 
L 361.031671 320.644814 
L 364.107112 316.71618 
L 367.182552 320.775764 
L 370.257993 322.216268 
L 373.333434 318.811447 
L 376.408875 320.382901 
L 379.484316 323.394858 
L 382.559757 317.240006 
L 385.635198 317.109043 
L 388.710639 320.513864 
L 391.78608 322.478181 
L 394.86152 324.704398 
L 397.936961 323.001994 
L 401.012402 320.25195 
L 404.087843 321.430541 
L 407.163284 322.740081 
L 410.238725 319.07336 
L 413.314166 316.978093 
L 416.389607 310.561328 
L 419.465048 314.489962 
L 422.540488 315.930453 
L 425.615929 317.89477 
L 428.69137 314.358999 
L 431.766811 316.061416 
L 434.842252 311.478005 
L 437.917693 305.454104 
L 440.993134 303.489786 
L 444.068575 299.823066 
L 447.144016 290.525294 
L 450.219457 292.620561 
L 453.294897 295.108704 
L 456.370338 293.930114 
L 459.445779 292.882474 
L 462.52122 297.073022 
L 465.596661 294.322978 
L 468.672102 297.073022 
L 471.747543 296.811108 
L 474.822984 294.061064 
L 477.898425 296.156332 
L 480.973865 297.334922 
L 484.049306 294.715841 
L 487.124747 297.203972 
L 490.200188 296.680158 
L 493.275629 289.739567 
L 496.35107 294.192014 
L 499.426511 296.942058 
L 502.501952 297.596835 
L 505.577393 297.727785 
L 508.652833 295.632518 
L 511.728274 291.965797 
L 514.803715 289.346703 
L 517.879156 290.26338 
L 520.954597 291.049107 
L 524.030038 291.049107 
L 527.105479 289.870517 
L 530.18092 275.858397 
L 533.256361 291.965797 
L 536.331801 294.322978 
L 539.407242 294.715841 
L 542.482683 301.525469 
L 545.558124 303.358836 
L 548.633565 304.537414 
L 551.709006 311.739918 
L 554.784447 318.156683 
L 557.859888 322.216268 
L 560.935329 329.680673 
L 564.010769 334.13312 
L 567.08621 358.490646 
L 570.161651 345.264246 
L 573.237092 353.252465 
L 576.312533 359.800186 
L 579.387974 365.038361 
L 582.463415 371.717039 
L 585.538856 376.693307 
L 588.614297 381.931482 
L 591.689737 388.086343 
L 594.765178 389.788753 
L 597.840619 394.765021 
L 600.91606 397.646015 
L 603.991501 396.205518 
L 607.066942 397.907928 
L 613.217824 401.836556 
L 616.293265 404.324693 
L 619.368705 405.11042 
L 622.444146 409.562868 
L 625.519587 412.44386 
L 628.595028 414.015314 
L 631.670469 414.277227 
L 634.74591 415.455824 
L 637.821351 415.848681 
L 640.896792 413.229587 
L 643.972233 418.205862 
L 647.047673 418.336818 
L 650.123114 417.943948 
L 653.198555 418.336818 
L 656.273996 418.205862 
L 659.349437 416.241538 
L 662.424878 416.110594 
L 665.500319 414.931998 
L 668.57576 412.705774 
L 671.651201 410.741463 
L 674.726642 407.860464 
L 677.802082 398.693655 
L 680.877523 396.991245 
L 683.952964 392.145927 
L 687.028405 382.324345 
L 690.103846 378.002854 
L 693.179287 371.847996 
L 696.254728 347.49047 
L 699.330169 354.431055 
L 702.40561 348.407154 
L 705.48105 341.859432 
L 708.556491 338.192705 
L 711.631932 330.466393 
L 714.707373 315.013776 
L 717.782814 316.192366 
L 720.858255 312.787545 
L 723.933696 313.835186 
L 727.009137 317.240006 
L 733.160018 308.204148 
L 736.235459 308.335098 
L 739.3109 305.32314 
L 742.386341 309.120824 
L 745.461782 315.275689 
L 748.537223 311.085142 
L 751.612664 297.727785 
L 754.688105 303.489786 
L 757.763546 311.739918 
L 760.838986 312.001819 
L 763.914427 308.597011 
L 766.989868 314.620912 
L 770.065309 309.120824 
L 773.14075 311.478005 
L 776.216191 311.216092 
L 779.291632 315.537589 
L 782.367073 314.358999 
L 785.442514 313.049459 
L 788.517954 322.871044 
L 791.593395 297.073022 
L 794.668836 302.965973 
L 797.744277 308.204148 
L 800.819718 311.478005 
L 803.895159 312.787545 
L 806.9706 307.549371 
L 810.046041 316.71618 
L 813.121482 318.287633 
L 816.196922 316.323316 
L 819.272363 319.728137 
L 822.347804 318.680497 
L 825.423245 304.0136 
L 828.498686 315.537589 
L 831.574127 307.942234 
L 834.649568 307.680321 
L 837.725009 317.76382 
L 840.80045 316.192366 
L 843.87589 308.335098 
L 846.951331 315.144726 
L 850.026772 317.76382 
L 853.102213 315.013776 
L 856.177654 316.192366 
L 859.253095 315.930453 
L 862.328536 312.656595 
L 865.403977 312.394682 
L 868.479418 311.085142 
L 871.554858 305.716004 
L 874.630299 312.263732 
L 877.70574 302.311196 
L 880.781181 300.346879 
L 883.856622 297.073022 
L 886.932063 298.382562 
L 890.007504 290.26338 
L 893.082945 289.346703 
L 896.158386 290.787207 
L 899.233827 282.798988 
L 902.309267 278.870354 
L 905.384708 277.2989 
L 908.460149 274.286943 
L 911.53559 274.025043 
L 914.611031 272.977403 
L 917.686472 279.787031 
L 920.761913 283.191852 
L 923.837354 280.572758 
L 926.912795 285.418069 
L 929.988235 291.049107 
L 933.063676 289.739567 
L 936.139117 282.406125 
L 939.214558 288.430026 
L 942.289999 287.77525 
L 945.36544 287.906213 
L 948.440881 292.227697 
L 951.516322 288.430026 
L 954.591763 276.644124 
L 957.667203 283.977579 
L 960.742644 284.632342 
L 963.818085 281.882298 
L 966.893526 285.025206 
L 969.968967 280.965621 
L 973.044408 269.310682 
L 976.119849 283.977579 
L 979.19529 288.299076 
L 982.270731 287.251436 
L 985.346171 294.061064 
L 988.421612 297.858748 
L 988.421612 297.858748 
" clip-path="url(#pebe77a348c)" style="fill: none; stroke: #1f77b4; stroke-width: 1.5; stroke-linecap: square"/>
   </g>
   <g id="line2d_28">
    <path d="M 548.633565 333.869034 
L 551.709006 338.17591 
L 554.784447 339.630171 
L 557.859888 340.851418 
L 560.935329 345.778225 
L 564.010769 348.561306 
L 567.08621 349.837679 
L 570.161651 351.242264 
L 573.237092 357.776118 
L 576.312533 360.688764 
L 579.387974 364.651872 
L 582.463415 363.387181 
L 585.538856 367.667979 
L 588.614297 373.201286 
L 591.689737 372.724819 
L 594.765178 377.06023 
L 597.840619 382.733639 
L 600.91606 386.377802 
L 607.066942 389.152479 
L 610.142383 397.4366 
L 613.217824 392.444839 
L 616.293265 391.513416 
L 619.368705 398.742719 
L 622.444146 398.470477 
L 625.519587 401.59696 
L 628.595028 400.143916 
L 631.670469 401.429519 
L 634.74591 404.977441 
L 637.821351 399.121175 
L 640.896792 404.276254 
L 643.972233 402.985551 
L 647.047673 402.233986 
L 650.123114 404.976667 
L 653.198555 406.852385 
L 656.273996 404.069083 
L 659.349437 400.046711 
L 662.424878 400.708721 
L 665.500319 400.525012 
L 668.57576 401.364981 
L 671.651201 396.713552 
L 674.726642 394.818664 
L 677.802082 397.592502 
L 680.877523 393.819067 
L 683.952964 392.953405 
L 687.028405 390.251072 
L 690.103846 385.708777 
L 693.179287 385.300764 
L 696.254728 385.240685 
L 699.330169 379.540022 
L 702.40561 376.388236 
L 705.48105 378.509411 
L 708.556491 373.730739 
L 711.631932 369.770688 
L 714.707373 372.28602 
L 717.782814 363.378159 
L 720.858255 364.124878 
L 723.933696 358.401026 
L 727.009137 361.349056 
L 730.084578 358.797207 
L 733.160018 355.51544 
L 736.235459 348.841568 
L 739.3109 352.210132 
L 742.386341 348.226287 
L 745.461782 346.354908 
L 748.537223 338.907102 
L 751.612664 341.271574 
L 754.688105 340.069269 
L 757.763546 340.121064 
L 760.838986 337.05631 
L 763.914427 335.264195 
L 766.989868 336.516618 
L 770.065309 335.412284 
L 773.14075 331.621599 
L 776.216191 333.433332 
L 779.291632 331.936271 
L 782.367073 330.853734 
L 785.442514 327.016684 
L 788.517954 327.94827 
L 791.593395 328.734179 
L 794.668836 329.78967 
L 797.744277 327.299256 
L 800.819718 328.839644 
L 803.895159 326.989443 
L 806.9706 332.437182 
L 810.046041 326.093971 
L 813.121482 327.658829 
L 816.196922 324.524104 
L 819.272363 328.625695 
L 825.423245 326.355793 
L 828.498686 325.403627 
L 831.574127 322.347556 
L 834.649568 328.314659 
L 837.725009 325.544204 
L 840.80045 329.236631 
L 843.87589 326.093802 
L 846.951331 323.510626 
L 850.026772 323.875624 
L 853.102213 322.908094 
L 856.177654 324.982404 
L 859.253095 325.696541 
L 862.328536 325.832292 
L 865.403977 321.662481 
L 868.479418 323.505995 
L 871.554858 324.986215 
L 874.630299 319.907962 
L 877.70574 322.267016 
L 880.781181 319.926136 
L 883.856622 322.854614 
L 886.932063 320.684323 
L 890.007504 319.830142 
L 893.082945 314.900362 
L 896.158386 316.766694 
L 902.309267 315.269965 
L 905.384708 312.417721 
L 908.460149 316.513471 
L 911.53559 311.85795 
L 914.611031 313.286577 
L 917.686472 310.52018 
L 920.761913 316.301734 
L 923.837354 312.245727 
L 926.912795 313.811132 
L 929.988235 312.804054 
L 933.063676 315.642781 
L 936.139117 312.42351 
L 939.214558 311.532709 
L 942.289999 312.285275 
L 945.36544 314.506835 
L 948.440881 314.435441 
L 951.516322 310.842573 
L 954.591763 316.815648 
L 957.667203 315.229741 
L 960.742644 315.928046 
L 963.818085 318.356959 
L 966.893526 321.049464 
L 969.968967 321.816808 
L 973.044408 323.489239 
L 976.119849 325.707755 
L 979.19529 326.960224 
L 982.270731 331.822467 
L 985.346171 333.21295 
L 988.421612 332.101604 
L 988.421612 332.101604 
" clip-path="url(#pebe77a348c)" style="fill: none; stroke: #ff7f0e; stroke-width: 1.5; stroke-linecap: square"/>
   </g>
   <g id="line2d_29">
    <path d="M 548.633565 425.788125 
L 548.633565 261.859375 
" clip-path="url(#pebe77a348c)" style="fill: none; stroke-dasharray: 7.4,3.2; stroke-dashoffset: 0; stroke: #0000ff; stroke-width: 2"/>
   </g>
   <g id="patch_9">
    <path d="M 61.6375 425.788125 
L 61.6375 261.859375 
" style="fill: none; stroke: #000000; stroke-width: 0.8; stroke-linejoin: miter; stroke-linecap: square"/>
   </g>
   <g id="patch_10">
    <path d="M 1032.554189 425.788125 
L 1032.554189 261.859375 
" style="fill: none; stroke: #000000; stroke-width: 0.8; stroke-linejoin: miter; stroke-linecap: square"/>
   </g>
   <g id="patch_11">
    <path d="M 61.6375 425.788125 
L 1032.554189 425.788125 
" style="fill: none; stroke: #000000; stroke-width: 0.8; stroke-linejoin: miter; stroke-linecap: square"/>
   </g>
   <g id="patch_12">
    <path d="M 61.6375 261.859375 
L 1032.554189 261.859375 
" style="fill: none; stroke: #000000; stroke-width: 0.8; stroke-linejoin: miter; stroke-linecap: square"/>
   </g>
   <g id="text_27">
    <!-- 云函数ID: 150 -->
    <g transform="translate(482.095845 255.859375) scale(0.2 -0.2)">
     <defs>
      <path id="SimSun-31" d="M 1825 4450 
L 1825 650 
Q 1825 450 1950 350 
Q 2075 250 2300 250 
L 2550 250 
L 2550 100 
L 725 100 
L 725 250 
L 950 250 
Q 1200 250 1312 350 
Q 1425 450 1425 650 
L 1425 3675 
Q 1425 3775 1362 3837 
Q 1300 3900 1175 3900 
L 725 3900 
L 725 4050 
L 950 4050 
Q 1250 4050 1437 4150 
Q 1625 4250 1725 4450 
L 1825 4450 
z
" transform="scale(0.015625)"/>
      <path id="SimSun-35" d="M 1725 2850 
Q 2200 2850 2500 2487 
Q 2800 2125 2800 1525 
Q 2800 850 2487 450 
Q 2175 50 1525 50 
Q 1075 50 725 312 
Q 375 575 375 950 
Q 375 1100 462 1212 
Q 550 1325 700 1325 
Q 850 1325 900 1225 
Q 950 1125 950 1050 
Q 950 900 875 825 
Q 800 725 800 625 
Q 800 425 1037 325 
Q 1275 225 1550 225 
Q 1950 225 2162 550 
Q 2375 875 2375 1475 
Q 2375 1975 2187 2287 
Q 2000 2600 1625 2600 
Q 1350 2600 1150 2500 
Q 950 2400 775 2075 
L 550 2100 
L 675 4375 
L 2725 4375 
L 2650 4000 
L 850 4000 
L 750 2350 
Q 1000 2700 1237 2775 
Q 1475 2850 1725 2850 
z
" transform="scale(0.015625)"/>
      <path id="SimSun-30" d="M 1600 4225 
Q 1250 4225 1012 3687 
Q 775 3150 775 2250 
Q 775 1300 1012 775 
Q 1250 250 1600 250 
Q 1975 250 2187 775 
Q 2400 1300 2400 2250 
Q 2400 3150 2200 3687 
Q 2000 4225 1600 4225 
z
M 1600 50 
Q 1050 50 675 625 
Q 300 1200 300 2250 
Q 300 3225 662 3825 
Q 1025 4425 1600 4425 
Q 2150 4425 2512 3850 
Q 2875 3275 2875 2250 
Q 2875 1225 2512 637 
Q 2150 50 1600 50 
z
" transform="scale(0.015625)"/>
     </defs>
     <use xlink:href="#SimSun-4e91"/>
     <use xlink:href="#SimSun-51fd" x="100"/>
     <use xlink:href="#SimSun-6570" x="200"/>
     <use xlink:href="#SimSun-49" x="300"/>
     <use xlink:href="#SimSun-44" x="350"/>
     <use xlink:href="#SimSun-3a" x="400"/>
     <use xlink:href="#SimSun-20" x="450"/>
     <use xlink:href="#SimSun-31" x="500"/>
     <use xlink:href="#SimSun-35" x="550"/>
     <use xlink:href="#SimSun-30" x="600"/>
    </g>
   </g>
  </g>
  <g id="axes_3">
   <g id="patch_13">
    <path d="M 61.6375 658.588125 
L 1032.554189 658.588125 
L 1032.554189 494.659375 
L 61.6375 494.659375 
z
" style="fill: #ffffff"/>
   </g>
   <g id="matplotlib.axis_5">
    <g id="xtick_15">
     <g id="line2d_30">
      <g>
       <use xlink:href="#m689db7e5ac" x="105.770077" y="658.588125" style="stroke: #000000; stroke-width: 0.8"/>
      </g>
     </g>
     <g id="text_28">
      <!-- 0 -->
      <g transform="translate(100.770077 679.475625) scale(0.2 -0.2)">
       <use xlink:href="#TimesNewRomanPSMT-30"/>
      </g>
     </g>
    </g>
    <g id="xtick_16">
     <g id="line2d_31">
      <g>
       <use xlink:href="#m689db7e5ac" x="259.542121" y="658.588125" style="stroke: #000000; stroke-width: 0.8"/>
      </g>
     </g>
     <g id="text_29">
      <!-- 50 -->
      <g transform="translate(249.542121 679.475625) scale(0.2 -0.2)">
       <use xlink:href="#TimesNewRomanPSMT-35"/>
       <use xlink:href="#TimesNewRomanPSMT-30" x="50"/>
      </g>
     </g>
    </g>
    <g id="xtick_17">
     <g id="line2d_32">
      <g>
       <use xlink:href="#m689db7e5ac" x="413.314166" y="658.588125" style="stroke: #000000; stroke-width: 0.8"/>
      </g>
     </g>
     <g id="text_30">
      <!-- 100 -->
      <g transform="translate(398.314166 679.475625) scale(0.2 -0.2)">
       <use xlink:href="#TimesNewRomanPSMT-31"/>
       <use xlink:href="#TimesNewRomanPSMT-30" x="50"/>
       <use xlink:href="#TimesNewRomanPSMT-30" x="100"/>
      </g>
     </g>
    </g>
    <g id="xtick_18">
     <g id="line2d_33">
      <g>
       <use xlink:href="#m689db7e5ac" x="567.08621" y="658.588125" style="stroke: #000000; stroke-width: 0.8"/>
      </g>
     </g>
     <g id="text_31">
      <!-- 150 -->
      <g transform="translate(552.08621 679.475625) scale(0.2 -0.2)">
       <use xlink:href="#TimesNewRomanPSMT-31"/>
       <use xlink:href="#TimesNewRomanPSMT-35" x="50"/>
       <use xlink:href="#TimesNewRomanPSMT-30" x="100"/>
      </g>
     </g>
    </g>
    <g id="xtick_19">
     <g id="line2d_34">
      <g>
       <use xlink:href="#m689db7e5ac" x="720.858255" y="658.588125" style="stroke: #000000; stroke-width: 0.8"/>
      </g>
     </g>
     <g id="text_32">
      <!-- 200 -->
      <g transform="translate(705.858255 679.475625) scale(0.2 -0.2)">
       <use xlink:href="#TimesNewRomanPSMT-32"/>
       <use xlink:href="#TimesNewRomanPSMT-30" x="50"/>
       <use xlink:href="#TimesNewRomanPSMT-30" x="100"/>
      </g>
     </g>
    </g>
    <g id="xtick_20">
     <g id="line2d_35">
      <g>
       <use xlink:href="#m689db7e5ac" x="874.630299" y="658.588125" style="stroke: #000000; stroke-width: 0.8"/>
      </g>
     </g>
     <g id="text_33">
      <!-- 250 -->
      <g transform="translate(859.630299 679.475625) scale(0.2 -0.2)">
       <use xlink:href="#TimesNewRomanPSMT-32"/>
       <use xlink:href="#TimesNewRomanPSMT-35" x="50"/>
       <use xlink:href="#TimesNewRomanPSMT-30" x="100"/>
      </g>
     </g>
    </g>
    <g id="xtick_21">
     <g id="line2d_36">
      <g>
       <use xlink:href="#m689db7e5ac" x="1028.402344" y="658.588125" style="stroke: #000000; stroke-width: 0.8"/>
      </g>
     </g>
     <g id="text_34">
      <!-- 300 -->
      <g transform="translate(1013.402344 679.475625) scale(0.2 -0.2)">
       <use xlink:href="#TimesNewRomanPSMT-33"/>
       <use xlink:href="#TimesNewRomanPSMT-30" x="50"/>
       <use xlink:href="#TimesNewRomanPSMT-30" x="100"/>
      </g>
     </g>
    </g>
   </g>
   <g id="matplotlib.axis_6">
    <g id="ytick_8">
     <g id="line2d_37">
      <g>
       <use xlink:href="#m552f5830a1" x="61.6375" y="622.802428" style="stroke: #000000; stroke-width: 0.8"/>
      </g>
     </g>
     <g id="text_35">
      <!-- 0.5 -->
      <g transform="translate(29.6375 629.746178) scale(0.2 -0.2)">
       <use xlink:href="#TimesNewRomanPSMT-30"/>
       <use xlink:href="#TimesNewRomanPSMT-2e" x="50"/>
       <use xlink:href="#TimesNewRomanPSMT-35" x="75"/>
      </g>
     </g>
    </g>
    <g id="ytick_9">
     <g id="line2d_38">
      <g>
       <use xlink:href="#m552f5830a1" x="61.6375" y="544.746252" style="stroke: #000000; stroke-width: 0.8"/>
      </g>
     </g>
     <g id="text_36">
      <!-- 1.0 -->
      <g transform="translate(29.6375 551.690002) scale(0.2 -0.2)">
       <use xlink:href="#TimesNewRomanPSMT-31"/>
       <use xlink:href="#TimesNewRomanPSMT-2e" x="50"/>
       <use xlink:href="#TimesNewRomanPSMT-30" x="75"/>
      </g>
     </g>
    </g>
    <g id="text_37">
     <!-- CPU使用率 -->
     <g transform="translate(23.059375 621.62375) rotate(-90) scale(0.2 -0.2)">
      <use xlink:href="#SimSun-43"/>
      <use xlink:href="#SimSun-50" x="50"/>
      <use xlink:href="#SimSun-55" x="100"/>
      <use xlink:href="#SimSun-4f7f" x="150"/>
      <use xlink:href="#SimSun-7528" x="250"/>
      <use xlink:href="#SimSun-7387" x="350"/>
     </g>
    </g>
   </g>
   <g id="line2d_39">
    <path d="M 105.770077 559.889151 
L 108.845518 569.724233 
L 111.920959 574.797888 
L 114.996399 581.120427 
L 118.07184 588.145495 
L 121.147281 590.253008 
L 124.222722 614.060128 
L 127.298163 594.624153 
L 130.373604 599.619759 
L 133.449045 606.957028 
L 136.524486 608.4401 
L 139.599927 612.967365 
L 142.675367 606.722858 
L 145.750808 617.572681 
L 148.826249 621.709637 
L 151.90169 622.412148 
L 154.977131 628.03219 
L 158.052572 629.437211 
L 161.128013 626.314967 
L 164.203454 632.013064 
L 167.278895 633.496136 
L 170.354335 635.99392 
L 173.429776 637.633092 
L 176.505217 638.179483 
L 179.580658 636.61838 
L 182.656099 643.955649 
L 185.73154 645.594841 
L 188.806981 646.843742 
L 191.882422 648.248744 
L 194.957863 646.219263 
L 198.033303 642.472578 
L 201.108744 649.887917 
L 204.184185 649.029305 
L 210.335067 651.136818 
L 213.410508 651.136818 
L 216.485949 641.067575 
L 219.56139 643.877599 
L 222.636831 644.033719 
L 225.712272 640.052844 
L 228.787712 640.677304 
L 231.863153 636.61838 
L 234.938594 632.013064 
L 238.014035 636.07197 
L 241.089476 632.247234 
L 244.164917 626.783288 
L 247.240358 625.300217 
L 250.315799 623.270773 
L 253.39124 604.615345 
L 256.46668 611.718445 
L 259.542121 609.610932 
L 262.617562 599.85391 
L 265.693003 531.632816 
L 268.768444 543.887641 
L 271.843885 529.993625 
L 274.919326 530.540034 
L 277.994767 531.242545 
L 281.070208 525.154158 
L 284.145648 527.339721 
L 287.221089 524.451647 
L 290.29653 512.430993 
L 293.371971 515.709356 
L 296.447412 525.310259 
L 299.522853 519.612161 
L 302.598294 521.719693 
L 305.673735 525.544429 
L 308.749176 514.772676 
L 311.824616 517.114359 
L 314.900057 531.008375 
L 317.975498 533.818379 
L 321.050939 533.89643 
L 324.12638 526.94945 
L 327.201821 528.198333 
L 330.277262 533.506159 
L 333.352703 536.862591 
L 336.428144 533.037837 
L 339.503584 537.487033 
L 342.579025 536.862591 
L 345.654466 560.201381 
L 348.729907 526.79333 
L 351.805348 539.594546 
L 354.880789 540.765397 
L 357.95623 542.404569 
L 361.031671 546.853774 
L 364.107112 539.672596 
L 367.182552 552.005471 
L 370.257993 553.644663 
L 373.333434 549.819908 
L 376.408875 555.908295 
L 379.484316 558.562199 
L 382.559757 548.414906 
L 385.635198 555.674125 
L 388.710639 557.313298 
L 391.78608 559.108599 
L 394.86152 560.513601 
L 397.936961 556.376626 
L 401.012402 556.454686 
L 404.087843 553.254382 
L 407.163284 558.249978 
L 410.238725 553.176332 
L 413.314166 549.351577 
L 416.389607 543.731521 
L 419.465048 548.961287 
L 422.540488 544.199861 
L 425.615929 548.961287 
L 428.69137 544.590151 
L 431.766811 541.780109 
L 434.842252 544.277912 
L 437.917693 539.828716 
L 440.993134 539.048155 
L 444.068575 532.569497 
L 447.144016 527.0275 
L 450.219457 522.812456 
L 453.294897 528.510572 
L 456.370338 519.846332 
L 459.445779 522.266065 
L 462.52122 522.500235 
L 465.596661 522.968576 
L 468.672102 529.993625 
L 471.747543 526.55916 
L 474.822984 528.432503 
L 477.898425 527.0275 
L 480.973865 528.120282 
L 484.049306 525.154158 
L 487.124747 526.40304 
L 490.200188 529.213082 
L 493.275629 516.411867 
L 496.35107 522.422185 
L 499.426511 529.993625 
L 502.501952 529.915574 
L 505.577393 534.677009 
L 508.652833 530.071694 
L 511.728274 527.261671 
L 514.803715 528.744742 
L 517.879156 528.822793 
L 520.954597 537.955355 
L 524.030038 537.096743 
L 527.105479 542.014279 
L 530.18092 537.330913 
L 533.256361 547.634335 
L 536.331801 548.571007 
L 539.407242 547.946556 
L 542.482683 562.074733 
L 545.558124 564.728646 
L 548.633565 568.943672 
L 551.709006 570.426743 
L 554.784447 578.856813 
L 557.859888 583.69628 
L 560.935329 590.721348 
L 564.010769 594.780254 
L 567.08621 611.640394 
L 570.161651 596.731666 
L 573.237092 601.649202 
L 576.312533 611.406224 
L 579.387974 614.372367 
L 582.463415 617.806851 
L 585.538856 616.24571 
L 588.614297 620.616855 
L 591.689737 628.188309 
L 594.765178 627.329698 
L 597.840619 629.359142 
L 600.91606 629.437211 
L 603.991501 628.50053 
L 607.066942 636.774481 
L 610.142383 638.647823 
L 613.217824 638.960063 
L 616.293265 642.004238 
L 619.368705 641.379796 
L 622.444146 638.960063 
L 625.519587 647.077912 
L 628.595028 647.390114 
L 631.670469 645.985112 
L 634.74591 647.468183 
L 637.821351 650.278188 
L 640.896792 643.643429 
L 643.972233 647.780404 
L 647.047673 648.639015 
L 650.123114 650.434326 
L 653.198555 650.824597 
L 656.273996 647.390114 
L 659.349437 645.594841 
L 662.424878 644.814261 
L 665.500319 643.487309 
L 668.57576 641.379796 
L 671.651201 641.067575 
L 674.726642 635.057239 
L 677.802082 627.954139 
L 680.877523 632.871657 
L 683.952964 625.534387 
L 687.028405 619.446023 
L 690.103846 619.602124 
L 693.179287 612.342924 
L 696.254728 598.995317 
L 699.330169 601.571152 
L 702.40561 602.273662 
L 705.48105 593.141082 
L 708.556491 515.084896 
L 711.631932 537.252863 
L 714.707373 530.071694 
L 717.782814 537.721184 
L 720.858255 533.89643 
L 723.933696 531.476696 
L 727.009137 533.662278 
L 730.084578 529.993625 
L 733.160018 522.578286 
L 736.235459 527.261671 
L 739.3109 518.36326 
L 742.386341 524.998038 
L 745.461782 528.510572 
L 748.537223 524.841918 
L 751.612664 510.869871 
L 754.688105 518.28521 
L 757.763546 527.261671 
L 760.838986 529.213082 
L 763.914427 522.344116 
L 766.989868 528.510572 
L 773.14075 527.261671 
L 776.216191 530.696135 
L 779.291632 533.193938 
L 782.367073 533.350058 
L 785.442514 529.993625 
L 788.517954 561.762512 
L 791.593395 521.407454 
L 794.668836 531.476696 
L 797.744277 533.350058 
L 800.819718 544.668202 
L 803.895159 549.741848 
L 806.9706 535.847842 
L 810.046041 547.478216 
L 813.121482 552.239642 
L 816.196922 549.351577 
L 819.272363 552.707991 
L 822.347804 559.73305 
L 825.423245 543.18513 
L 828.498686 545.448753 
L 831.574127 554.269104 
L 834.649568 549.507678 
L 837.725009 559.8111 
L 840.80045 556.844967 
L 843.87589 552.786042 
L 846.951331 550.912699 
L 850.026772 552.161591 
L 853.102213 547.868506 
L 856.177654 551.381039 
L 859.253095 553.644663 
L 862.328536 546.151273 
L 865.403977 545.682924 
L 868.479418 544.199861 
L 871.554858 539.672596 
L 874.630299 546.307374 
L 877.70574 538.111474 
L 880.781181 535.769791 
L 883.856622 534.833129 
L 886.932063 532.834876 
L 890.007504 527.76122 
L 893.082945 533.006591 
L 896.158386 535.691722 
L 899.233827 522.765633 
L 902.309267 520.018046 
L 905.384708 523.577422 
L 908.460149 512.274892 
L 911.53559 522.0163 
L 914.611031 515.209788 
L 917.686472 521.204511 
L 920.761913 521.891408 
L 923.837354 524.139426 
L 926.912795 521.516732 
L 929.988235 526.32499 
L 933.063676 524.014534 
L 936.139117 515.771793 
L 939.214558 525.076088 
L 942.289999 522.203628 
L 945.36544 529.946802 
L 948.440881 530.259023 
L 951.516322 528.885229 
L 954.591763 523.077854 
L 957.667203 526.94945 
L 960.742644 531.945037 
L 963.818085 534.317947 
L 966.893526 541.499116 
L 969.968967 537.877304 
L 973.044408 544.184247 
L 976.119849 544.683797 
L 979.19529 553.988102 
L 982.270731 553.738327 
L 985.346171 559.795486 
L 988.421612 564.041749 
L 988.421612 564.041749 
" clip-path="url(#p89acc04699)" style="fill: none; stroke: #1f77b4; stroke-width: 1.5; stroke-linecap: square"/>
   </g>
   <g id="line2d_40">
    <path d="M 548.633565 542.873486 
L 551.709006 542.396455 
L 554.784447 561.335644 
L 557.859888 560.643006 
L 560.935329 559.345272 
L 564.010769 576.764244 
L 567.08621 560.996783 
L 570.161651 571.854171 
L 573.237092 579.839814 
L 576.312533 570.059399 
L 579.387974 566.413245 
L 582.463415 579.592747 
L 585.538856 577.591851 
L 588.614297 574.119943 
L 591.689737 582.27626 
L 594.765178 574.570474 
L 597.840619 592.205927 
L 600.91606 591.006789 
L 603.991501 589.141839 
L 607.066942 584.112773 
L 610.142383 600.76891 
L 613.217824 596.900347 
L 616.293265 593.218872 
L 619.368705 617.787217 
L 622.444146 608.741676 
L 625.519587 608.301939 
L 628.595028 599.207918 
L 631.670469 620.003878 
L 634.74591 611.845998 
L 637.821351 601.956287 
L 640.896792 607.014236 
L 643.972233 599.212534 
L 647.047673 601.277671 
L 650.123114 607.883139 
L 653.198555 603.0872 
L 656.273996 603.106611 
L 659.349437 611.456211 
L 662.424878 596.806962 
L 665.500319 588.901081 
L 668.57576 599.508954 
L 671.651201 591.096117 
L 674.726642 592.267508 
L 677.802082 588.811325 
L 680.877523 590.54647 
L 683.952964 591.457264 
L 687.028405 577.97239 
L 690.103846 574.434974 
L 693.179287 576.52678 
L 696.254728 585.56458 
L 699.330169 561.944974 
L 702.40561 570.545215 
L 705.48105 573.386875 
L 708.556491 561.330247 
L 711.631932 580.650952 
L 714.707373 569.348775 
L 717.782814 551.920703 
L 720.858255 565.270012 
L 723.933696 558.261126 
L 727.009137 565.53848 
L 730.084578 573.582802 
L 733.160018 558.571374 
L 736.235459 552.154594 
L 739.3109 567.358524 
L 742.386341 554.104154 
L 745.461782 552.196038 
L 748.537223 535.160163 
L 751.612664 538.62085 
L 754.688105 545.791187 
L 757.763546 535.167459 
L 760.838986 547.136647 
L 763.914427 543.511718 
L 766.989868 546.371058 
L 770.065309 535.661946 
L 773.14075 535.961512 
L 776.216191 550.016663 
L 779.291632 547.02775 
L 782.367073 528.592828 
L 785.442514 558.449469 
L 788.517954 536.323849 
L 791.593395 561.064468 
L 794.668836 538.615006 
L 797.744277 541.817385 
L 800.819718 528.523785 
L 803.895159 549.90383 
L 806.9706 538.494097 
L 810.046041 539.145541 
L 813.121482 542.092218 
L 816.196922 546.313376 
L 819.272363 542.481875 
L 822.347804 551.949716 
L 825.423245 553.163332 
L 828.498686 528.321605 
L 831.574127 536.297609 
L 834.649568 526.805855 
L 837.725009 532.517575 
L 840.80045 536.557312 
L 843.87589 526.178212 
L 846.951331 540.576393 
L 850.026772 534.484861 
L 853.102213 538.764929 
L 856.177654 544.764583 
L 859.253095 531.296291 
L 862.328536 538.700091 
L 865.403977 534.75439 
L 868.479418 532.762669 
L 871.554858 548.686324 
L 874.630299 521.217482 
L 877.70574 544.751584 
L 880.781181 538.89317 
L 883.856622 535.795864 
L 886.932063 528.769512 
L 890.007504 534.603556 
L 893.082945 521.813655 
L 896.158386 519.837827 
L 899.233827 524.231006 
L 902.309267 518.348707 
L 905.384708 521.240112 
L 908.460149 528.604869 
L 911.53559 522.718122 
L 914.611031 535.689303 
L 917.686472 517.555733 
L 920.761913 502.110682 
L 923.837354 503.32039 
L 926.912795 517.97364 
L 929.988235 510.899516 
L 933.063676 544.694312 
L 936.139117 519.57416 
L 939.214558 522.943303 
L 942.289999 522.665865 
L 945.36544 517.852452 
L 948.440881 532.051709 
L 951.516322 524.399148 
L 954.591763 526.631479 
L 957.667203 531.619286 
L 960.742644 529.088711 
L 963.818085 526.088773 
L 966.893526 532.559317 
L 969.968967 531.686822 
L 973.044408 533.426657 
L 976.119849 537.30391 
L 979.19529 541.484433 
L 982.270731 535.267022 
L 985.346171 541.016688 
L 988.421612 549.600096 
L 988.421612 549.600096 
" clip-path="url(#p89acc04699)" style="fill: none; stroke: #ff7f0e; stroke-width: 1.5; stroke-linecap: square"/>
   </g>
   <g id="line2d_41">
    <path d="M 548.633565 658.588125 
L 548.633565 494.659375 
" clip-path="url(#p89acc04699)" style="fill: none; stroke-dasharray: 7.4,3.2; stroke-dashoffset: 0; stroke: #0000ff; stroke-width: 2"/>
   </g>
   <g id="patch_14">
    <path d="M 61.6375 658.588125 
L 61.6375 494.659375 
" style="fill: none; stroke: #000000; stroke-width: 0.8; stroke-linejoin: miter; stroke-linecap: square"/>
   </g>
   <g id="patch_15">
    <path d="M 1032.554189 658.588125 
L 1032.554189 494.659375 
" style="fill: none; stroke: #000000; stroke-width: 0.8; stroke-linejoin: miter; stroke-linecap: square"/>
   </g>
   <g id="patch_16">
    <path d="M 61.6375 658.588125 
L 1032.554189 658.588125 
" style="fill: none; stroke: #000000; stroke-width: 0.8; stroke-linejoin: miter; stroke-linecap: square"/>
   </g>
   <g id="patch_17">
    <path d="M 61.6375 494.659375 
L 1032.554189 494.659375 
" style="fill: none; stroke: #000000; stroke-width: 0.8; stroke-linejoin: miter; stroke-linecap: square"/>
   </g>
   <g id="text_38">
    <!-- 云函数ID: 160 -->
    <g transform="translate(482.095845 488.659375) scale(0.2 -0.2)">
     <defs>
      <path id="SimSun-36" d="M 775 1800 
Q 775 1050 1037 637 
Q 1300 225 1675 225 
Q 2050 225 2250 500 
Q 2450 775 2450 1525 
Q 2450 2025 2237 2300 
Q 2025 2575 1725 2575 
Q 1450 2575 1212 2412 
Q 975 2250 775 1800 
z
M 1750 2825 
Q 2350 2825 2612 2425 
Q 2875 2025 2875 1525 
Q 2875 775 2512 412 
Q 2150 50 1675 50 
Q 1000 50 650 562 
Q 300 1075 300 2050 
Q 300 3200 725 3812 
Q 1150 4425 1875 4425 
Q 2225 4425 2437 4225 
Q 2650 4025 2650 3875 
Q 2650 3725 2587 3650 
Q 2525 3575 2375 3575 
Q 2250 3575 2187 3637 
Q 2125 3700 2125 3825 
Q 2125 3875 2150 3925 
Q 2150 3975 2150 4025 
Q 2150 4125 2075 4187 
Q 2000 4250 1800 4250 
Q 1375 4250 1075 3862 
Q 775 3475 775 2175 
Q 925 2500 1187 2662 
Q 1450 2825 1750 2825 
z
" transform="scale(0.015625)"/>
     </defs>
     <use xlink:href="#SimSun-4e91"/>
     <use xlink:href="#SimSun-51fd" x="100"/>
     <use xlink:href="#SimSun-6570" x="200"/>
     <use xlink:href="#SimSun-49" x="300"/>
     <use xlink:href="#SimSun-44" x="350"/>
     <use xlink:href="#SimSun-3a" x="400"/>
     <use xlink:href="#SimSun-20" x="450"/>
     <use xlink:href="#SimSun-31" x="500"/>
     <use xlink:href="#SimSun-36" x="550"/>
     <use xlink:href="#SimSun-30" x="600"/>
    </g>
   </g>
  </g>
 </g>
 <defs>
  <clipPath id="p5efe415278">
   <rect x="61.6375" y="29.059375" width="970.916689" height="163.92875"/>
  </clipPath>
  <clipPath id="pebe77a348c">
   <rect x="61.6375" y="261.859375" width="970.916689" height="163.92875"/>
  </clipPath>
  <clipPath id="p89acc04699">
   <rect x="61.6375" y="494.659375" width="970.916689" height="163.92875"/>
  </clipPath>
 </defs>
</svg>
