<?xml version="1.0" encoding="utf-8" standalone="no"?>
<!DOCTYPE svg PUBLIC "-//W3C//DTD SVG 1.1//EN"
  "http://www.w3.org/Graphics/SVG/1.1/DTD/svg11.dtd">
<svg xmlns:xlink="http://www.w3.org/1999/xlink" width="1051.325625pt" height="691.665625pt" viewBox="0 0 1051.325625 691.665625" xmlns="http://www.w3.org/2000/svg" version="1.1">
 <metadata>
  <rdf:RDF xmlns:dc="http://purl.org/dc/elements/1.1/" xmlns:cc="http://creativecommons.org/ns#" xmlns:rdf="http://www.w3.org/1999/02/22-rdf-syntax-ns#">
   <cc:Work>
    <dc:type rdf:resource="http://purl.org/dc/dcmitype/StillImage"/>
    <dc:date>2024-02-20T14:37:39.020289</dc:date>
    <dc:format>image/svg+xml</dc:format>
    <dc:creator>
     <cc:Agent>
      <dc:title>Matplotlib v3.7.4, https://matplotlib.org/</dc:title>
     </cc:Agent>
    </dc:creator>
   </cc:Work>
  </rdf:RDF>
 </metadata>
 <defs>
  <style type="text/css">*{stroke-linejoin: round; stroke-linecap: butt}</style>
 </defs>
 <g id="figure_1">
  <g id="patch_1">
   <path d="M 0 691.665625 
L 1051.325625 691.665625 
L 1051.325625 0 
L 0 0 
z
" style="fill: #ffffff"/>
  </g>
  <g id="axes_1">
   <g id="patch_2">
    <path d="M 56.365625 193.7 
L 1044.125625 193.7 
L 1044.125625 29.82 
L 56.365625 29.82 
z
" style="fill: #ffffff"/>
   </g>
   <g id="matplotlib.axis_1">
    <g id="xtick_1">
     <g id="line2d_1">
      <defs>
       <path id="md24f173b0a" d="M 0 0 
L 0 3.5 
" style="stroke: #000000; stroke-width: 0.8"/>
      </defs>
      <g>
       <use xlink:href="#md24f173b0a" x="101.263807" y="193.7" style="stroke: #000000; stroke-width: 0.8"/>
      </g>
     </g>
     <g id="text_1">
      <!-- 0 -->
      <g transform="translate(96.263807 214.5875) scale(0.2 -0.2)">
       <defs>
        <path id="TimesNewRomanPSMT-30" d="M 231 2094 
Q 231 2819 450 3342 
Q 669 3866 1031 4122 
Q 1313 4325 1613 4325 
Q 2100 4325 2488 3828 
Q 2972 3213 2972 2159 
Q 2972 1422 2759 906 
Q 2547 391 2217 158 
Q 1888 -75 1581 -75 
Q 975 -75 572 641 
Q 231 1244 231 2094 
z
M 844 2016 
Q 844 1141 1059 588 
Q 1238 122 1591 122 
Q 1759 122 1940 273 
Q 2122 425 2216 781 
Q 2359 1319 2359 2297 
Q 2359 3022 2209 3506 
Q 2097 3866 1919 4016 
Q 1791 4119 1609 4119 
Q 1397 4119 1231 3928 
Q 1006 3669 925 3112 
Q 844 2556 844 2016 
z
" transform="scale(0.015625)"/>
       </defs>
       <use xlink:href="#TimesNewRomanPSMT-30"/>
      </g>
     </g>
    </g>
    <g id="xtick_2">
     <g id="line2d_2">
      <g>
       <use xlink:href="#md24f173b0a" x="252.182065" y="193.7" style="stroke: #000000; stroke-width: 0.8"/>
      </g>
     </g>
     <g id="text_2">
      <!-- 20 -->
      <g transform="translate(242.182065 214.5875) scale(0.2 -0.2)">
       <defs>
        <path id="TimesNewRomanPSMT-32" d="M 2934 816 
L 2638 0 
L 138 0 
L 138 116 
Q 1241 1122 1691 1759 
Q 2141 2397 2141 2925 
Q 2141 3328 1894 3587 
Q 1647 3847 1303 3847 
Q 991 3847 742 3664 
Q 494 3481 375 3128 
L 259 3128 
Q 338 3706 661 4015 
Q 984 4325 1469 4325 
Q 1984 4325 2329 3994 
Q 2675 3663 2675 3213 
Q 2675 2891 2525 2569 
Q 2294 2063 1775 1497 
Q 997 647 803 472 
L 1909 472 
Q 2247 472 2383 497 
Q 2519 522 2628 598 
Q 2738 675 2819 816 
L 2934 816 
z
" transform="scale(0.015625)"/>
       </defs>
       <use xlink:href="#TimesNewRomanPSMT-32"/>
       <use xlink:href="#TimesNewRomanPSMT-30" x="50"/>
      </g>
     </g>
    </g>
    <g id="xtick_3">
     <g id="line2d_3">
      <g>
       <use xlink:href="#md24f173b0a" x="403.100323" y="193.7" style="stroke: #000000; stroke-width: 0.8"/>
      </g>
     </g>
     <g id="text_3">
      <!-- 40 -->
      <g transform="translate(393.100323 214.5875) scale(0.2 -0.2)">
       <defs>
        <path id="TimesNewRomanPSMT-34" d="M 2978 1563 
L 2978 1119 
L 2409 1119 
L 2409 0 
L 1894 0 
L 1894 1119 
L 100 1119 
L 100 1519 
L 2066 4325 
L 2409 4325 
L 2409 1563 
L 2978 1563 
z
M 1894 1563 
L 1894 3666 
L 406 1563 
L 1894 1563 
z
" transform="scale(0.015625)"/>
       </defs>
       <use xlink:href="#TimesNewRomanPSMT-34"/>
       <use xlink:href="#TimesNewRomanPSMT-30" x="50"/>
      </g>
     </g>
    </g>
    <g id="xtick_4">
     <g id="line2d_4">
      <g>
       <use xlink:href="#md24f173b0a" x="554.018581" y="193.7" style="stroke: #000000; stroke-width: 0.8"/>
      </g>
     </g>
     <g id="text_4">
      <!-- 60 -->
      <g transform="translate(544.018581 214.5875) scale(0.2 -0.2)">
       <defs>
        <path id="TimesNewRomanPSMT-36" d="M 2869 4325 
L 2869 4209 
Q 2456 4169 2195 4045 
Q 1934 3922 1679 3669 
Q 1425 3416 1258 3105 
Q 1091 2794 978 2366 
Q 1428 2675 1881 2675 
Q 2316 2675 2634 2325 
Q 2953 1975 2953 1425 
Q 2953 894 2631 456 
Q 2244 -75 1606 -75 
Q 1172 -75 869 213 
Q 275 772 275 1663 
Q 275 2231 503 2743 
Q 731 3256 1154 3653 
Q 1578 4050 1965 4187 
Q 2353 4325 2688 4325 
L 2869 4325 
z
M 925 2138 
Q 869 1716 869 1456 
Q 869 1156 980 804 
Q 1091 453 1309 247 
Q 1469 100 1697 100 
Q 1969 100 2183 356 
Q 2397 613 2397 1088 
Q 2397 1622 2184 2012 
Q 1972 2403 1581 2403 
Q 1463 2403 1327 2353 
Q 1191 2303 925 2138 
z
" transform="scale(0.015625)"/>
       </defs>
       <use xlink:href="#TimesNewRomanPSMT-36"/>
       <use xlink:href="#TimesNewRomanPSMT-30" x="50"/>
      </g>
     </g>
    </g>
    <g id="xtick_5">
     <g id="line2d_5">
      <g>
       <use xlink:href="#md24f173b0a" x="704.93684" y="193.7" style="stroke: #000000; stroke-width: 0.8"/>
      </g>
     </g>
     <g id="text_5">
      <!-- 80 -->
      <g transform="translate(694.93684 214.5875) scale(0.2 -0.2)">
       <defs>
        <path id="TimesNewRomanPSMT-38" d="M 1228 2134 
Q 725 2547 579 2797 
Q 434 3047 434 3316 
Q 434 3728 753 4026 
Q 1072 4325 1600 4325 
Q 2113 4325 2425 4047 
Q 2738 3769 2738 3413 
Q 2738 3175 2569 2928 
Q 2400 2681 1866 2347 
Q 2416 1922 2594 1678 
Q 2831 1359 2831 1006 
Q 2831 559 2490 242 
Q 2150 -75 1597 -75 
Q 994 -75 656 303 
Q 388 606 388 966 
Q 388 1247 577 1523 
Q 766 1800 1228 2134 
z
M 1719 2469 
Q 2094 2806 2194 3001 
Q 2294 3197 2294 3444 
Q 2294 3772 2109 3958 
Q 1925 4144 1606 4144 
Q 1288 4144 1088 3959 
Q 888 3775 888 3528 
Q 888 3366 970 3203 
Q 1053 3041 1206 2894 
L 1719 2469 
z
M 1375 2016 
Q 1116 1797 991 1539 
Q 866 1281 866 981 
Q 866 578 1086 336 
Q 1306 94 1647 94 
Q 1984 94 2187 284 
Q 2391 475 2391 747 
Q 2391 972 2272 1150 
Q 2050 1481 1375 2016 
z
" transform="scale(0.015625)"/>
       </defs>
       <use xlink:href="#TimesNewRomanPSMT-38"/>
       <use xlink:href="#TimesNewRomanPSMT-30" x="50"/>
      </g>
     </g>
    </g>
    <g id="xtick_6">
     <g id="line2d_6">
      <g>
       <use xlink:href="#md24f173b0a" x="855.855098" y="193.7" style="stroke: #000000; stroke-width: 0.8"/>
      </g>
     </g>
     <g id="text_6">
      <!-- 100 -->
      <g transform="translate(840.855098 214.5875) scale(0.2 -0.2)">
       <defs>
        <path id="TimesNewRomanPSMT-31" d="M 750 3822 
L 1781 4325 
L 1884 4325 
L 1884 747 
Q 1884 391 1914 303 
Q 1944 216 2037 169 
Q 2131 122 2419 116 
L 2419 0 
L 825 0 
L 825 116 
Q 1125 122 1212 167 
Q 1300 213 1334 289 
Q 1369 366 1369 747 
L 1369 3034 
Q 1369 3497 1338 3628 
Q 1316 3728 1258 3775 
Q 1200 3822 1119 3822 
Q 1003 3822 797 3725 
L 750 3822 
z
" transform="scale(0.015625)"/>
       </defs>
       <use xlink:href="#TimesNewRomanPSMT-31"/>
       <use xlink:href="#TimesNewRomanPSMT-30" x="50"/>
       <use xlink:href="#TimesNewRomanPSMT-30" x="100"/>
      </g>
     </g>
    </g>
    <g id="xtick_7">
     <g id="line2d_7">
      <g>
       <use xlink:href="#md24f173b0a" x="1006.773356" y="193.7" style="stroke: #000000; stroke-width: 0.8"/>
      </g>
     </g>
     <g id="text_7">
      <!-- 120 -->
      <g transform="translate(991.773356 214.5875) scale(0.2 -0.2)">
       <use xlink:href="#TimesNewRomanPSMT-31"/>
       <use xlink:href="#TimesNewRomanPSMT-32" x="50"/>
       <use xlink:href="#TimesNewRomanPSMT-30" x="100"/>
      </g>
     </g>
    </g>
   </g>
   <g id="matplotlib.axis_2">
    <g id="ytick_1">
     <g id="line2d_8">
      <defs>
       <path id="m9a6889c069" d="M 0 0 
L -3.5 0 
" style="stroke: #000000; stroke-width: 0.8"/>
      </defs>
      <g>
       <use xlink:href="#m9a6889c069" x="56.365625" y="191.872865" style="stroke: #000000; stroke-width: 0.8"/>
      </g>
     </g>
     <g id="text_8">
      <!-- 0 -->
      <g transform="translate(39.365625 198.816615) scale(0.2 -0.2)">
       <use xlink:href="#TimesNewRomanPSMT-30"/>
      </g>
     </g>
    </g>
    <g id="ytick_2">
     <g id="line2d_9">
      <g>
       <use xlink:href="#m9a6889c069" x="56.365625" y="135.653311" style="stroke: #000000; stroke-width: 0.8"/>
      </g>
     </g>
     <g id="text_9">
      <!-- 20 -->
      <g transform="translate(29.365625 142.597061) scale(0.2 -0.2)">
       <use xlink:href="#TimesNewRomanPSMT-32"/>
       <use xlink:href="#TimesNewRomanPSMT-30" x="50"/>
      </g>
     </g>
    </g>
    <g id="ytick_3">
     <g id="line2d_10">
      <g>
       <use xlink:href="#m9a6889c069" x="56.365625" y="79.433757" style="stroke: #000000; stroke-width: 0.8"/>
      </g>
     </g>
     <g id="text_10">
      <!-- 40 -->
      <g transform="translate(29.365625 86.377507) scale(0.2 -0.2)">
       <use xlink:href="#TimesNewRomanPSMT-34"/>
       <use xlink:href="#TimesNewRomanPSMT-30" x="50"/>
      </g>
     </g>
    </g>
    <g id="text_11">
     <!-- CPU_USAGE -->
     <g transform="translate(21.05 169.5475) rotate(-90) scale(0.2 -0.2)">
      <defs>
       <path id="TimesNewRomanPSMT-43" d="M 3853 4334 
L 3950 2894 
L 3853 2894 
Q 3659 3541 3300 3825 
Q 2941 4109 2438 4109 
Q 2016 4109 1675 3895 
Q 1334 3681 1139 3212 
Q 944 2744 944 2047 
Q 944 1472 1128 1050 
Q 1313 628 1683 403 
Q 2053 178 2528 178 
Q 2941 178 3256 354 
Q 3572 531 3950 1056 
L 4047 994 
Q 3728 428 3303 165 
Q 2878 -97 2294 -97 
Q 1241 -97 663 684 
Q 231 1266 231 2053 
Q 231 2688 515 3219 
Q 800 3750 1298 4042 
Q 1797 4334 2388 4334 
Q 2847 4334 3294 4109 
Q 3425 4041 3481 4041 
Q 3566 4041 3628 4100 
Q 3709 4184 3744 4334 
L 3853 4334 
z
" transform="scale(0.015625)"/>
       <path id="TimesNewRomanPSMT-50" d="M 1313 1984 
L 1313 750 
Q 1313 350 1400 253 
Q 1519 116 1759 116 
L 1922 116 
L 1922 0 
L 106 0 
L 106 116 
L 266 116 
Q 534 116 650 291 
Q 713 388 713 750 
L 713 3488 
Q 713 3888 628 3984 
Q 506 4122 266 4122 
L 106 4122 
L 106 4238 
L 1659 4238 
Q 2228 4238 2556 4120 
Q 2884 4003 3109 3725 
Q 3334 3447 3334 3066 
Q 3334 2547 2992 2222 
Q 2650 1897 2025 1897 
Q 1872 1897 1694 1919 
Q 1516 1941 1313 1984 
z
M 1313 2163 
Q 1478 2131 1606 2115 
Q 1734 2100 1825 2100 
Q 2150 2100 2386 2351 
Q 2622 2603 2622 3003 
Q 2622 3278 2509 3514 
Q 2397 3750 2190 3867 
Q 1984 3984 1722 3984 
Q 1563 3984 1313 3925 
L 1313 2163 
z
" transform="scale(0.015625)"/>
       <path id="TimesNewRomanPSMT-55" d="M 3053 4122 
L 3053 4238 
L 4553 4238 
L 4553 4122 
L 4394 4122 
Q 4144 4122 4009 3913 
Q 3944 3816 3944 3463 
L 3944 1744 
Q 3944 1106 3817 754 
Q 3691 403 3320 151 
Q 2950 -100 2313 -100 
Q 1619 -100 1259 140 
Q 900 381 750 788 
Q 650 1066 650 1831 
L 650 3488 
Q 650 3878 542 4000 
Q 434 4122 194 4122 
L 34 4122 
L 34 4238 
L 1866 4238 
L 1866 4122 
L 1703 4122 
Q 1441 4122 1328 3956 
Q 1250 3844 1250 3488 
L 1250 1641 
Q 1250 1394 1295 1075 
Q 1341 756 1459 578 
Q 1578 400 1801 284 
Q 2025 169 2350 169 
Q 2766 169 3094 350 
Q 3422 531 3542 814 
Q 3663 1097 3663 1772 
L 3663 3488 
Q 3663 3884 3575 3984 
Q 3453 4122 3213 4122 
L 3053 4122 
z
" transform="scale(0.015625)"/>
       <path id="TimesNewRomanPSMT-5f" d="M 3256 -1381 
L -53 -1381 
L -53 -1119 
L 3256 -1119 
L 3256 -1381 
z
" transform="scale(0.015625)"/>
       <path id="TimesNewRomanPSMT-53" d="M 2934 4334 
L 2934 2869 
L 2819 2869 
Q 2763 3291 2617 3541 
Q 2472 3791 2203 3937 
Q 1934 4084 1647 4084 
Q 1322 4084 1109 3886 
Q 897 3688 897 3434 
Q 897 3241 1031 3081 
Q 1225 2847 1953 2456 
Q 2547 2138 2764 1967 
Q 2981 1797 3098 1565 
Q 3216 1334 3216 1081 
Q 3216 600 2842 251 
Q 2469 -97 1881 -97 
Q 1697 -97 1534 -69 
Q 1438 -53 1133 45 
Q 828 144 747 144 
Q 669 144 623 97 
Q 578 50 556 -97 
L 441 -97 
L 441 1356 
L 556 1356 
Q 638 900 775 673 
Q 913 447 1195 297 
Q 1478 147 1816 147 
Q 2206 147 2432 353 
Q 2659 559 2659 841 
Q 2659 997 2573 1156 
Q 2488 1316 2306 1453 
Q 2184 1547 1640 1851 
Q 1097 2156 867 2337 
Q 638 2519 519 2737 
Q 400 2956 400 3219 
Q 400 3675 750 4004 
Q 1100 4334 1641 4334 
Q 1978 4334 2356 4169 
Q 2531 4091 2603 4091 
Q 2684 4091 2736 4139 
Q 2788 4188 2819 4334 
L 2934 4334 
z
" transform="scale(0.015625)"/>
       <path id="TimesNewRomanPSMT-41" d="M 2928 1419 
L 1288 1419 
L 1000 750 
Q 894 503 894 381 
Q 894 284 986 211 
Q 1078 138 1384 116 
L 1384 0 
L 50 0 
L 50 116 
Q 316 163 394 238 
Q 553 388 747 847 
L 2238 4334 
L 2347 4334 
L 3822 809 
Q 4000 384 4145 257 
Q 4291 131 4550 116 
L 4550 0 
L 2878 0 
L 2878 116 
Q 3131 128 3220 200 
Q 3309 272 3309 375 
Q 3309 513 3184 809 
L 2928 1419 
z
M 2841 1650 
L 2122 3363 
L 1384 1650 
L 2841 1650 
z
" transform="scale(0.015625)"/>
       <path id="TimesNewRomanPSMT-47" d="M 3928 4334 
L 4038 2997 
L 3928 2997 
Q 3763 3497 3500 3750 
Q 3122 4116 2528 4116 
Q 1719 4116 1297 3475 
Q 944 2934 944 2188 
Q 944 1581 1178 1081 
Q 1413 581 1792 348 
Q 2172 116 2572 116 
Q 2806 116 3025 175 
Q 3244 234 3447 350 
L 3447 1575 
Q 3447 1894 3398 1992 
Q 3350 2091 3248 2142 
Q 3147 2194 2891 2194 
L 2891 2313 
L 4531 2313 
L 4531 2194 
L 4453 2194 
Q 4209 2194 4119 2031 
Q 4056 1916 4056 1575 
L 4056 278 
Q 3697 84 3347 -6 
Q 2997 -97 2569 -97 
Q 1341 -97 703 691 
Q 225 1281 225 2053 
Q 225 2613 494 3125 
Q 813 3734 1369 4063 
Q 1834 4334 2469 4334 
Q 2700 4334 2889 4296 
Q 3078 4259 3425 4131 
Q 3600 4066 3659 4066 
Q 3719 4066 3761 4120 
Q 3803 4175 3813 4334 
L 3928 4334 
z
" transform="scale(0.015625)"/>
       <path id="TimesNewRomanPSMT-45" d="M 1338 4006 
L 1338 2331 
L 2269 2331 
Q 2631 2331 2753 2441 
Q 2916 2584 2934 2947 
L 3050 2947 
L 3050 1472 
L 2934 1472 
Q 2891 1781 2847 1869 
Q 2791 1978 2662 2040 
Q 2534 2103 2269 2103 
L 1338 2103 
L 1338 706 
Q 1338 425 1363 364 
Q 1388 303 1450 267 
Q 1513 231 1688 231 
L 2406 231 
Q 2766 231 2928 281 
Q 3091 331 3241 478 
Q 3434 672 3638 1063 
L 3763 1063 
L 3397 0 
L 131 0 
L 131 116 
L 281 116 
Q 431 116 566 188 
Q 666 238 702 338 
Q 738 438 738 747 
L 738 3500 
Q 738 3903 656 3997 
Q 544 4122 281 4122 
L 131 4122 
L 131 4238 
L 3397 4238 
L 3444 3309 
L 3322 3309 
Q 3256 3644 3176 3769 
Q 3097 3894 2941 3959 
Q 2816 4006 2500 4006 
L 1338 4006 
z
" transform="scale(0.015625)"/>
      </defs>
      <use xlink:href="#TimesNewRomanPSMT-43"/>
      <use xlink:href="#TimesNewRomanPSMT-50" x="66.699219"/>
      <use xlink:href="#TimesNewRomanPSMT-55" x="122.314453"/>
      <use xlink:href="#TimesNewRomanPSMT-5f" x="194.53125"/>
      <use xlink:href="#TimesNewRomanPSMT-55" x="244.53125"/>
      <use xlink:href="#TimesNewRomanPSMT-53" x="316.748047"/>
      <use xlink:href="#TimesNewRomanPSMT-41" x="372.363281"/>
      <use xlink:href="#TimesNewRomanPSMT-47" x="444.580078"/>
      <use xlink:href="#TimesNewRomanPSMT-45" x="516.796875"/>
     </g>
    </g>
   </g>
   <g id="line2d_11">
    <path d="M 101.263807 152.519177 
L 108.80972 152.519177 
L 116.355633 155.330155 
L 123.901546 127.220378 
L 131.447458 144.086244 
L 138.993371 104.732561 
L 146.539284 158.141133 
L 154.085197 99.110601 
L 161.63111 127.220378 
L 169.177023 124.4094 
L 176.722936 101.921578 
L 184.268849 127.220378 
L 191.814762 132.842333 
L 199.360675 149.708199 
L 206.906588 135.653311 
L 214.4525 163.763088 
L 221.998413 141.275266 
L 229.544326 135.653311 
L 237.090239 104.732561 
L 244.636152 85.055712 
L 252.182065 101.921578 
L 259.727978 54.134957 
L 267.273891 82.244734 
L 274.819804 101.921578 
L 282.365717 82.244734 
L 289.91163 107.543539 
L 297.457542 79.433757 
L 305.003455 48.513012 
L 312.549368 40.080069 
L 320.095281 51.323979 
L 327.641194 121.598422 
L 335.187107 71.000823 
L 342.73302 85.055712 
L 350.278933 85.055712 
L 357.824846 96.299623 
L 365.370759 107.543539 
L 372.916672 121.598422 
L 380.462585 79.433757 
L 388.008497 99.110601 
L 395.55441 118.787445 
L 403.100323 96.299623 
L 410.646236 113.165489 
L 418.192149 152.519177 
L 425.738062 146.897224 
L 433.283975 160.95211 
L 440.829888 186.250909 
L 448.375801 172.196021 
L 455.921714 175.006999 
L 463.467627 183.439933 
L 471.013539 186.250909 
L 478.559452 175.006999 
L 486.105365 180.628954 
L 493.651278 183.439933 
L 501.197191 183.439933 
L 508.743104 180.628954 
L 516.289017 183.439933 
L 523.83493 183.439933 
L 531.380843 177.817977 
L 538.926756 183.439933 
L 546.472669 180.628954 
L 554.018581 175.006999 
L 561.564494 160.95211 
L 569.110407 177.817977 
L 576.65632 180.628954 
L 584.202233 172.196021 
L 591.748146 180.628954 
L 599.294059 180.628954 
L 606.839972 158.141133 
L 614.385885 172.196021 
L 621.931798 163.763088 
L 629.477711 172.196021 
L 637.023623 163.763088 
L 644.569536 155.330155 
L 652.115449 144.086244 
L 659.661362 124.4094 
L 667.207275 132.842333 
L 674.753188 96.299623 
L 682.299101 135.653311 
L 689.845014 144.086244 
L 697.390927 113.165489 
L 704.93684 130.031355 
L 712.482753 155.330155 
L 720.028665 124.4094 
L 727.574578 169.385043 
L 735.120491 138.464289 
L 742.666404 166.574066 
L 750.212317 130.031355 
L 757.75823 115.976467 
L 765.304143 71.000823 
L 772.850056 79.433757 
L 780.395969 96.299623 
L 787.941882 71.000823 
L 795.487795 73.811801 
L 803.033708 51.323979 
L 810.57962 104.732561 
L 818.125533 37.269091 
L 825.671446 85.055712 
L 833.217359 118.787445 
L 840.763272 113.165489 
L 848.309185 144.086244 
L 855.855098 101.921578 
L 863.401011 118.787445 
L 870.946924 96.299623 
L 878.492837 107.543539 
L 886.03875 93.488645 
L 893.584662 135.653311 
L 901.130575 130.031355 
L 908.676488 144.086244 
L 916.222401 149.708199 
L 923.768314 132.842333 
L 931.314227 172.196021 
L 938.86014 183.439933 
L 946.406053 175.006999 
L 953.951966 183.439933 
L 961.497879 177.817977 
L 969.043792 180.628954 
L 976.589704 183.439933 
L 984.135617 186.250909 
L 991.68153 186.250909 
L 999.227443 183.439933 
" clip-path="url(#pb972402b72)" style="fill: none; stroke: #1f77b4; stroke-width: 1.5; stroke-linecap: square"/>
   </g>
   <g id="line2d_12">
    <path d="M 825.671446 65.553568 
L 833.217359 77.666945 
L 840.763272 77.864956 
L 848.309185 83.152986 
L 855.855098 81.258044 
L 863.401011 83.749883 
L 870.946924 83.319579 
L 878.492837 89.584905 
L 886.03875 93.247431 
L 893.584662 93.201236 
L 901.130575 99.857063 
L 908.676488 97.070791 
L 916.222401 97.820234 
L 923.768314 99.426351 
L 931.314227 104.352934 
L 938.86014 106.40225 
L 946.406053 116.509648 
L 953.951966 114.119383 
L 961.497879 117.902049 
L 969.043792 115.65157 
L 976.589704 121.57792 
L 984.135617 124.75874 
L 991.68153 126.523381 
L 999.227443 131.978298 
" clip-path="url(#pb972402b72)" style="fill: none; stroke: #ff7f0e; stroke-width: 1.5; stroke-linecap: square"/>
   </g>
   <g id="line2d_13">
    <path d="M 825.671446 193.7 
L 825.671446 29.82 
" clip-path="url(#pb972402b72)" style="fill: none; stroke-dasharray: 7.4,3.2; stroke-dashoffset: 0; stroke: #0000ff; stroke-width: 2"/>
   </g>
   <g id="patch_3">
    <path d="M 56.365625 193.7 
L 56.365625 29.82 
" style="fill: none; stroke: #000000; stroke-width: 0.8; stroke-linejoin: miter; stroke-linecap: square"/>
   </g>
   <g id="patch_4">
    <path d="M 1044.125625 193.7 
L 1044.125625 29.82 
" style="fill: none; stroke: #000000; stroke-width: 0.8; stroke-linejoin: miter; stroke-linecap: square"/>
   </g>
   <g id="patch_5">
    <path d="M 56.365625 193.7 
L 1044.125625 193.7 
" style="fill: none; stroke: #000000; stroke-width: 0.8; stroke-linejoin: miter; stroke-linecap: square"/>
   </g>
   <g id="patch_6">
    <path d="M 56.365625 29.82 
L 1044.125625 29.82 
" style="fill: none; stroke: #000000; stroke-width: 0.8; stroke-linejoin: miter; stroke-linecap: square"/>
   </g>
   <g id="text_12">
    <!-- API_ID: 36 -->
    <g transform="translate(493.915 23.82) scale(0.24 -0.24)">
     <defs>
      <path id="TimesNewRomanPSMT-49" d="M 1975 116 
L 1975 0 
L 159 0 
L 159 116 
L 309 116 
Q 572 116 691 269 
Q 766 369 766 750 
L 766 3488 
Q 766 3809 725 3913 
Q 694 3991 597 4047 
Q 459 4122 309 4122 
L 159 4122 
L 159 4238 
L 1975 4238 
L 1975 4122 
L 1822 4122 
Q 1563 4122 1444 3969 
Q 1366 3869 1366 3488 
L 1366 750 
Q 1366 428 1406 325 
Q 1438 247 1538 191 
Q 1672 116 1822 116 
L 1975 116 
z
" transform="scale(0.015625)"/>
      <path id="TimesNewRomanPSMT-44" d="M 109 0 
L 109 116 
L 269 116 
Q 538 116 650 288 
Q 719 391 719 750 
L 719 3488 
Q 719 3884 631 3984 
Q 509 4122 269 4122 
L 109 4122 
L 109 4238 
L 1834 4238 
Q 2784 4238 3279 4022 
Q 3775 3806 4076 3303 
Q 4378 2800 4378 2141 
Q 4378 1256 3841 663 
Q 3238 0 2003 0 
L 109 0 
z
M 1319 306 
Q 1716 219 1984 219 
Q 2709 219 3187 728 
Q 3666 1238 3666 2109 
Q 3666 2988 3187 3494 
Q 2709 4000 1959 4000 
Q 1678 4000 1319 3909 
L 1319 306 
z
" transform="scale(0.015625)"/>
      <path id="TimesNewRomanPSMT-3a" d="M 903 2950 
Q 1047 2950 1148 2848 
Q 1250 2747 1250 2603 
Q 1250 2459 1148 2357 
Q 1047 2256 903 2256 
Q 759 2256 657 2357 
Q 556 2459 556 2603 
Q 556 2747 657 2848 
Q 759 2950 903 2950 
z
M 897 609 
Q 1044 609 1145 506 
Q 1247 403 1247 259 
Q 1247 116 1144 14 
Q 1041 -88 897 -88 
Q 753 -88 651 14 
Q 550 116 550 259 
Q 550 403 651 506 
Q 753 609 897 609 
z
" transform="scale(0.015625)"/>
      <path id="TimesNewRomanPSMT-20" transform="scale(0.015625)"/>
      <path id="TimesNewRomanPSMT-33" d="M 325 3431 
Q 506 3859 782 4092 
Q 1059 4325 1472 4325 
Q 1981 4325 2253 3994 
Q 2459 3747 2459 3466 
Q 2459 3003 1878 2509 
Q 2269 2356 2469 2072 
Q 2669 1788 2669 1403 
Q 2669 853 2319 450 
Q 1863 -75 997 -75 
Q 569 -75 414 31 
Q 259 138 259 259 
Q 259 350 332 419 
Q 406 488 509 488 
Q 588 488 669 463 
Q 722 447 909 348 
Q 1097 250 1169 231 
Q 1284 197 1416 197 
Q 1734 197 1970 444 
Q 2206 691 2206 1028 
Q 2206 1275 2097 1509 
Q 2016 1684 1919 1775 
Q 1784 1900 1550 2001 
Q 1316 2103 1072 2103 
L 972 2103 
L 972 2197 
Q 1219 2228 1467 2375 
Q 1716 2522 1828 2728 
Q 1941 2934 1941 3181 
Q 1941 3503 1739 3701 
Q 1538 3900 1238 3900 
Q 753 3900 428 3381 
L 325 3431 
z
" transform="scale(0.015625)"/>
     </defs>
     <use xlink:href="#TimesNewRomanPSMT-41"/>
     <use xlink:href="#TimesNewRomanPSMT-50" x="72.216797"/>
     <use xlink:href="#TimesNewRomanPSMT-49" x="127.832031"/>
     <use xlink:href="#TimesNewRomanPSMT-5f" x="161.132812"/>
     <use xlink:href="#TimesNewRomanPSMT-49" x="211.132812"/>
     <use xlink:href="#TimesNewRomanPSMT-44" x="244.433594"/>
     <use xlink:href="#TimesNewRomanPSMT-3a" x="316.650391"/>
     <use xlink:href="#TimesNewRomanPSMT-20" x="344.433594"/>
     <use xlink:href="#TimesNewRomanPSMT-33" x="369.433594"/>
     <use xlink:href="#TimesNewRomanPSMT-36" x="419.433594"/>
    </g>
   </g>
   <g id="legend_1">
    <g id="patch_7">
     <path d="M 832.631875 102.37625 
L 1030.125625 102.37625 
Q 1034.125625 102.37625 1034.125625 98.37625 
L 1034.125625 43.82 
Q 1034.125625 39.82 1030.125625 39.82 
L 832.631875 39.82 
Q 828.631875 39.82 828.631875 43.82 
L 828.631875 98.37625 
Q 828.631875 102.37625 832.631875 102.37625 
z
" style="fill: #ffffff; opacity: 0.8; stroke: #cccccc; stroke-linejoin: miter"/>
    </g>
    <g id="line2d_14">
     <path d="M 836.631875 54.82 
L 856.631875 54.82 
L 876.631875 54.82 
" style="fill: none; stroke: #1f77b4; stroke-width: 1.5; stroke-linecap: square"/>
    </g>
    <g id="text_13">
     <!-- True Values -->
     <g transform="translate(892.631875 61.82) scale(0.2 -0.2)">
      <defs>
       <path id="TimesNewRomanPSMT-54" d="M 3703 4238 
L 3750 3244 
L 3631 3244 
Q 3597 3506 3538 3619 
Q 3441 3800 3280 3886 
Q 3119 3972 2856 3972 
L 2259 3972 
L 2259 734 
Q 2259 344 2344 247 
Q 2463 116 2709 116 
L 2856 116 
L 2856 0 
L 1059 0 
L 1059 116 
L 1209 116 
Q 1478 116 1591 278 
Q 1659 378 1659 734 
L 1659 3972 
L 1150 3972 
Q 853 3972 728 3928 
Q 566 3869 450 3700 
Q 334 3531 313 3244 
L 194 3244 
L 244 4238 
L 3703 4238 
z
" transform="scale(0.015625)"/>
       <path id="TimesNewRomanPSMT-72" d="M 1038 2947 
L 1038 2303 
Q 1397 2947 1775 2947 
Q 1947 2947 2059 2842 
Q 2172 2738 2172 2600 
Q 2172 2478 2090 2393 
Q 2009 2309 1897 2309 
Q 1788 2309 1652 2417 
Q 1516 2525 1450 2525 
Q 1394 2525 1328 2463 
Q 1188 2334 1038 2041 
L 1038 669 
Q 1038 431 1097 309 
Q 1138 225 1241 169 
Q 1344 113 1538 113 
L 1538 0 
L 72 0 
L 72 113 
Q 291 113 397 181 
Q 475 231 506 341 
Q 522 394 522 644 
L 522 1753 
Q 522 2253 501 2348 
Q 481 2444 426 2487 
Q 372 2531 291 2531 
Q 194 2531 72 2484 
L 41 2597 
L 906 2947 
L 1038 2947 
z
" transform="scale(0.015625)"/>
       <path id="TimesNewRomanPSMT-75" d="M 2709 2863 
L 2709 1128 
Q 2709 631 2732 520 
Q 2756 409 2807 365 
Q 2859 322 2928 322 
Q 3025 322 3147 375 
L 3191 266 
L 2334 -88 
L 2194 -88 
L 2194 519 
Q 1825 119 1631 15 
Q 1438 -88 1222 -88 
Q 981 -88 804 51 
Q 628 191 559 409 
Q 491 628 491 1028 
L 491 2306 
Q 491 2509 447 2587 
Q 403 2666 317 2708 
Q 231 2750 6 2747 
L 6 2863 
L 1009 2863 
L 1009 947 
Q 1009 547 1148 422 
Q 1288 297 1484 297 
Q 1619 297 1789 381 
Q 1959 466 2194 703 
L 2194 2325 
Q 2194 2569 2105 2655 
Q 2016 2741 1734 2747 
L 1734 2863 
L 2709 2863 
z
" transform="scale(0.015625)"/>
       <path id="TimesNewRomanPSMT-65" d="M 681 1784 
Q 678 1147 991 784 
Q 1303 422 1725 422 
Q 2006 422 2214 576 
Q 2422 731 2563 1106 
L 2659 1044 
Q 2594 616 2278 264 
Q 1963 -88 1488 -88 
Q 972 -88 605 314 
Q 238 716 238 1394 
Q 238 2128 614 2539 
Q 991 2950 1559 2950 
Q 2041 2950 2350 2633 
Q 2659 2316 2659 1784 
L 681 1784 
z
M 681 1966 
L 2006 1966 
Q 1991 2241 1941 2353 
Q 1863 2528 1708 2628 
Q 1553 2728 1384 2728 
Q 1125 2728 920 2526 
Q 716 2325 681 1966 
z
" transform="scale(0.015625)"/>
       <path id="TimesNewRomanPSMT-56" d="M 4544 4238 
L 4544 4122 
Q 4319 4081 4203 3978 
Q 4038 3825 3909 3509 
L 2431 -97 
L 2316 -97 
L 728 3556 
Q 606 3838 556 3900 
Q 478 3997 364 4051 
Q 250 4106 56 4122 
L 56 4238 
L 1788 4238 
L 1788 4122 
Q 1494 4094 1406 4022 
Q 1319 3950 1319 3838 
Q 1319 3681 1463 3350 
L 2541 866 
L 3541 3319 
Q 3688 3681 3688 3822 
Q 3688 3913 3597 3995 
Q 3506 4078 3291 4113 
Q 3275 4116 3238 4122 
L 3238 4238 
L 4544 4238 
z
" transform="scale(0.015625)"/>
       <path id="TimesNewRomanPSMT-61" d="M 1822 413 
Q 1381 72 1269 19 
Q 1100 -59 909 -59 
Q 613 -59 420 144 
Q 228 347 228 678 
Q 228 888 322 1041 
Q 450 1253 767 1440 
Q 1084 1628 1822 1897 
L 1822 2009 
Q 1822 2438 1686 2597 
Q 1550 2756 1291 2756 
Q 1094 2756 978 2650 
Q 859 2544 859 2406 
L 866 2225 
Q 866 2081 792 2003 
Q 719 1925 600 1925 
Q 484 1925 411 2006 
Q 338 2088 338 2228 
Q 338 2497 613 2722 
Q 888 2947 1384 2947 
Q 1766 2947 2009 2819 
Q 2194 2722 2281 2516 
Q 2338 2381 2338 1966 
L 2338 994 
Q 2338 584 2353 492 
Q 2369 400 2405 369 
Q 2441 338 2488 338 
Q 2538 338 2575 359 
Q 2641 400 2828 588 
L 2828 413 
Q 2478 -56 2159 -56 
Q 2006 -56 1915 50 
Q 1825 156 1822 413 
z
M 1822 616 
L 1822 1706 
Q 1350 1519 1213 1441 
Q 966 1303 859 1153 
Q 753 1003 753 825 
Q 753 600 887 451 
Q 1022 303 1197 303 
Q 1434 303 1822 616 
z
" transform="scale(0.015625)"/>
       <path id="TimesNewRomanPSMT-6c" d="M 1184 4444 
L 1184 647 
Q 1184 378 1223 290 
Q 1263 203 1344 158 
Q 1425 113 1647 113 
L 1647 0 
L 244 0 
L 244 113 
Q 441 113 512 153 
Q 584 194 625 287 
Q 666 381 666 647 
L 666 3247 
Q 666 3731 644 3842 
Q 622 3953 573 3993 
Q 525 4034 450 4034 
Q 369 4034 244 3984 
L 191 4094 
L 1044 4444 
L 1184 4444 
z
" transform="scale(0.015625)"/>
       <path id="TimesNewRomanPSMT-73" d="M 2050 2947 
L 2050 1972 
L 1947 1972 
Q 1828 2431 1642 2597 
Q 1456 2763 1169 2763 
Q 950 2763 815 2647 
Q 681 2531 681 2391 
Q 681 2216 781 2091 
Q 878 1963 1175 1819 
L 1631 1597 
Q 2266 1288 2266 781 
Q 2266 391 1970 151 
Q 1675 -88 1309 -88 
Q 1047 -88 709 6 
Q 606 38 541 38 
Q 469 38 428 -44 
L 325 -44 
L 325 978 
L 428 978 
Q 516 541 762 319 
Q 1009 97 1316 97 
Q 1531 97 1667 223 
Q 1803 350 1803 528 
Q 1803 744 1651 891 
Q 1500 1038 1047 1263 
Q 594 1488 453 1669 
Q 313 1847 313 2119 
Q 313 2472 555 2709 
Q 797 2947 1181 2947 
Q 1350 2947 1591 2875 
Q 1750 2828 1803 2828 
Q 1853 2828 1881 2850 
Q 1909 2872 1947 2947 
L 2050 2947 
z
" transform="scale(0.015625)"/>
      </defs>
      <use xlink:href="#TimesNewRomanPSMT-54"/>
      <use xlink:href="#TimesNewRomanPSMT-72" x="57.583984"/>
      <use xlink:href="#TimesNewRomanPSMT-75" x="90.884766"/>
      <use xlink:href="#TimesNewRomanPSMT-65" x="140.884766"/>
      <use xlink:href="#TimesNewRomanPSMT-20" x="185.269531"/>
      <use xlink:href="#TimesNewRomanPSMT-56" x="208.519531"/>
      <use xlink:href="#TimesNewRomanPSMT-61" x="269.611328"/>
      <use xlink:href="#TimesNewRomanPSMT-6c" x="313.996094"/>
      <use xlink:href="#TimesNewRomanPSMT-75" x="341.779297"/>
      <use xlink:href="#TimesNewRomanPSMT-65" x="391.779297"/>
      <use xlink:href="#TimesNewRomanPSMT-73" x="436.164062"/>
     </g>
    </g>
    <g id="line2d_15">
     <path d="M 836.631875 83.098125 
L 856.631875 83.098125 
L 876.631875 83.098125 
" style="fill: none; stroke: #ff7f0e; stroke-width: 1.5; stroke-linecap: square"/>
    </g>
    <g id="text_14">
     <!-- Predicted Values -->
     <g transform="translate(892.631875 90.098125) scale(0.2 -0.2)">
      <defs>
       <path id="TimesNewRomanPSMT-64" d="M 2222 322 
Q 2013 103 1813 7 
Q 1613 -88 1381 -88 
Q 913 -88 563 304 
Q 213 697 213 1313 
Q 213 1928 600 2439 
Q 988 2950 1597 2950 
Q 1975 2950 2222 2709 
L 2222 3238 
Q 2222 3728 2198 3840 
Q 2175 3953 2125 3993 
Q 2075 4034 2000 4034 
Q 1919 4034 1784 3984 
L 1744 4094 
L 2597 4444 
L 2738 4444 
L 2738 1134 
Q 2738 631 2761 520 
Q 2784 409 2836 365 
Q 2888 322 2956 322 
Q 3041 322 3181 375 
L 3216 266 
L 2366 -88 
L 2222 -88 
L 2222 322 
z
M 2222 541 
L 2222 2016 
Q 2203 2228 2109 2403 
Q 2016 2578 1861 2667 
Q 1706 2756 1559 2756 
Q 1284 2756 1069 2509 
Q 784 2184 784 1559 
Q 784 928 1059 592 
Q 1334 256 1672 256 
Q 1956 256 2222 541 
z
" transform="scale(0.015625)"/>
       <path id="TimesNewRomanPSMT-69" d="M 928 4444 
Q 1059 4444 1151 4351 
Q 1244 4259 1244 4128 
Q 1244 3997 1151 3903 
Q 1059 3809 928 3809 
Q 797 3809 703 3903 
Q 609 3997 609 4128 
Q 609 4259 701 4351 
Q 794 4444 928 4444 
z
M 1188 2947 
L 1188 647 
Q 1188 378 1227 289 
Q 1266 200 1342 156 
Q 1419 113 1622 113 
L 1622 0 
L 231 0 
L 231 113 
Q 441 113 512 153 
Q 584 194 626 287 
Q 669 381 669 647 
L 669 1750 
Q 669 2216 641 2353 
Q 619 2453 572 2492 
Q 525 2531 444 2531 
Q 356 2531 231 2484 
L 188 2597 
L 1050 2947 
L 1188 2947 
z
" transform="scale(0.015625)"/>
       <path id="TimesNewRomanPSMT-63" d="M 2631 1088 
Q 2516 522 2178 217 
Q 1841 -88 1431 -88 
Q 944 -88 581 321 
Q 219 731 219 1428 
Q 219 2103 620 2525 
Q 1022 2947 1584 2947 
Q 2006 2947 2278 2723 
Q 2550 2500 2550 2259 
Q 2550 2141 2473 2067 
Q 2397 1994 2259 1994 
Q 2075 1994 1981 2113 
Q 1928 2178 1911 2362 
Q 1894 2547 1784 2644 
Q 1675 2738 1481 2738 
Q 1169 2738 978 2506 
Q 725 2200 725 1697 
Q 725 1184 976 792 
Q 1228 400 1656 400 
Q 1963 400 2206 609 
Q 2378 753 2541 1131 
L 2631 1088 
z
" transform="scale(0.015625)"/>
       <path id="TimesNewRomanPSMT-74" d="M 1031 3803 
L 1031 2863 
L 1700 2863 
L 1700 2644 
L 1031 2644 
L 1031 788 
Q 1031 509 1111 412 
Q 1191 316 1316 316 
Q 1419 316 1516 380 
Q 1613 444 1666 569 
L 1788 569 
Q 1678 263 1478 108 
Q 1278 -47 1066 -47 
Q 922 -47 784 33 
Q 647 113 581 261 
Q 516 409 516 719 
L 516 2644 
L 63 2644 
L 63 2747 
Q 234 2816 414 2980 
Q 594 3144 734 3369 
Q 806 3488 934 3803 
L 1031 3803 
z
" transform="scale(0.015625)"/>
      </defs>
      <use xlink:href="#TimesNewRomanPSMT-50"/>
      <use xlink:href="#TimesNewRomanPSMT-72" x="55.615234"/>
      <use xlink:href="#TimesNewRomanPSMT-65" x="88.916016"/>
      <use xlink:href="#TimesNewRomanPSMT-64" x="133.300781"/>
      <use xlink:href="#TimesNewRomanPSMT-69" x="183.300781"/>
      <use xlink:href="#TimesNewRomanPSMT-63" x="211.083984"/>
      <use xlink:href="#TimesNewRomanPSMT-74" x="255.46875"/>
      <use xlink:href="#TimesNewRomanPSMT-65" x="283.251953"/>
      <use xlink:href="#TimesNewRomanPSMT-64" x="327.636719"/>
      <use xlink:href="#TimesNewRomanPSMT-20" x="377.636719"/>
      <use xlink:href="#TimesNewRomanPSMT-56" x="400.886719"/>
      <use xlink:href="#TimesNewRomanPSMT-61" x="461.978516"/>
      <use xlink:href="#TimesNewRomanPSMT-6c" x="506.363281"/>
      <use xlink:href="#TimesNewRomanPSMT-75" x="534.146484"/>
      <use xlink:href="#TimesNewRomanPSMT-65" x="584.146484"/>
      <use xlink:href="#TimesNewRomanPSMT-73" x="628.53125"/>
     </g>
    </g>
   </g>
  </g>
  <g id="axes_2">
   <g id="patch_8">
    <path d="M 56.365625 426.5 
L 1044.125625 426.5 
L 1044.125625 262.62 
L 56.365625 262.62 
z
" style="fill: #ffffff"/>
   </g>
   <g id="matplotlib.axis_3">
    <g id="xtick_8">
     <g id="line2d_16">
      <g>
       <use xlink:href="#md24f173b0a" x="101.263807" y="426.5" style="stroke: #000000; stroke-width: 0.8"/>
      </g>
     </g>
     <g id="text_15">
      <!-- 0 -->
      <g transform="translate(96.263807 447.3875) scale(0.2 -0.2)">
       <use xlink:href="#TimesNewRomanPSMT-30"/>
      </g>
     </g>
    </g>
    <g id="xtick_9">
     <g id="line2d_17">
      <g>
       <use xlink:href="#md24f173b0a" x="252.182065" y="426.5" style="stroke: #000000; stroke-width: 0.8"/>
      </g>
     </g>
     <g id="text_16">
      <!-- 20 -->
      <g transform="translate(242.182065 447.3875) scale(0.2 -0.2)">
       <use xlink:href="#TimesNewRomanPSMT-32"/>
       <use xlink:href="#TimesNewRomanPSMT-30" x="50"/>
      </g>
     </g>
    </g>
    <g id="xtick_10">
     <g id="line2d_18">
      <g>
       <use xlink:href="#md24f173b0a" x="403.100323" y="426.5" style="stroke: #000000; stroke-width: 0.8"/>
      </g>
     </g>
     <g id="text_17">
      <!-- 40 -->
      <g transform="translate(393.100323 447.3875) scale(0.2 -0.2)">
       <use xlink:href="#TimesNewRomanPSMT-34"/>
       <use xlink:href="#TimesNewRomanPSMT-30" x="50"/>
      </g>
     </g>
    </g>
    <g id="xtick_11">
     <g id="line2d_19">
      <g>
       <use xlink:href="#md24f173b0a" x="554.018581" y="426.5" style="stroke: #000000; stroke-width: 0.8"/>
      </g>
     </g>
     <g id="text_18">
      <!-- 60 -->
      <g transform="translate(544.018581 447.3875) scale(0.2 -0.2)">
       <use xlink:href="#TimesNewRomanPSMT-36"/>
       <use xlink:href="#TimesNewRomanPSMT-30" x="50"/>
      </g>
     </g>
    </g>
    <g id="xtick_12">
     <g id="line2d_20">
      <g>
       <use xlink:href="#md24f173b0a" x="704.93684" y="426.5" style="stroke: #000000; stroke-width: 0.8"/>
      </g>
     </g>
     <g id="text_19">
      <!-- 80 -->
      <g transform="translate(694.93684 447.3875) scale(0.2 -0.2)">
       <use xlink:href="#TimesNewRomanPSMT-38"/>
       <use xlink:href="#TimesNewRomanPSMT-30" x="50"/>
      </g>
     </g>
    </g>
    <g id="xtick_13">
     <g id="line2d_21">
      <g>
       <use xlink:href="#md24f173b0a" x="855.855098" y="426.5" style="stroke: #000000; stroke-width: 0.8"/>
      </g>
     </g>
     <g id="text_20">
      <!-- 100 -->
      <g transform="translate(840.855098 447.3875) scale(0.2 -0.2)">
       <use xlink:href="#TimesNewRomanPSMT-31"/>
       <use xlink:href="#TimesNewRomanPSMT-30" x="50"/>
       <use xlink:href="#TimesNewRomanPSMT-30" x="100"/>
      </g>
     </g>
    </g>
    <g id="xtick_14">
     <g id="line2d_22">
      <g>
       <use xlink:href="#md24f173b0a" x="1006.773356" y="426.5" style="stroke: #000000; stroke-width: 0.8"/>
      </g>
     </g>
     <g id="text_21">
      <!-- 120 -->
      <g transform="translate(991.773356 447.3875) scale(0.2 -0.2)">
       <use xlink:href="#TimesNewRomanPSMT-31"/>
       <use xlink:href="#TimesNewRomanPSMT-32" x="50"/>
       <use xlink:href="#TimesNewRomanPSMT-30" x="100"/>
      </g>
     </g>
    </g>
   </g>
   <g id="matplotlib.axis_4">
    <g id="ytick_4">
     <g id="line2d_23">
      <g>
       <use xlink:href="#m9a6889c069" x="56.365625" y="419.050909" style="stroke: #000000; stroke-width: 0.8"/>
      </g>
     </g>
     <g id="text_22">
      <!-- 0 -->
      <g transform="translate(39.365625 425.994659) scale(0.2 -0.2)">
       <use xlink:href="#TimesNewRomanPSMT-30"/>
      </g>
     </g>
    </g>
    <g id="ytick_5">
     <g id="line2d_24">
      <g>
       <use xlink:href="#m9a6889c069" x="56.365625" y="338.08253" style="stroke: #000000; stroke-width: 0.8"/>
      </g>
     </g>
     <g id="text_23">
      <!-- 50 -->
      <g transform="translate(29.365625 345.02628) scale(0.2 -0.2)">
       <defs>
        <path id="TimesNewRomanPSMT-35" d="M 2778 4238 
L 2534 3706 
L 1259 3706 
L 981 3138 
Q 1809 3016 2294 2522 
Q 2709 2097 2709 1522 
Q 2709 1188 2573 903 
Q 2438 619 2231 419 
Q 2025 219 1772 97 
Q 1413 -75 1034 -75 
Q 653 -75 479 54 
Q 306 184 306 341 
Q 306 428 378 495 
Q 450 563 559 563 
Q 641 563 702 538 
Q 763 513 909 409 
Q 1144 247 1384 247 
Q 1750 247 2026 523 
Q 2303 800 2303 1197 
Q 2303 1581 2056 1914 
Q 1809 2247 1375 2428 
Q 1034 2569 447 2591 
L 1259 4238 
L 2778 4238 
z
" transform="scale(0.015625)"/>
       </defs>
       <use xlink:href="#TimesNewRomanPSMT-35"/>
       <use xlink:href="#TimesNewRomanPSMT-30" x="50"/>
      </g>
     </g>
    </g>
    <g id="text_24">
     <!-- CPU_USAGE -->
     <g transform="translate(21.05 402.3475) rotate(-90) scale(0.2 -0.2)">
      <use xlink:href="#TimesNewRomanPSMT-43"/>
      <use xlink:href="#TimesNewRomanPSMT-50" x="66.699219"/>
      <use xlink:href="#TimesNewRomanPSMT-55" x="122.314453"/>
      <use xlink:href="#TimesNewRomanPSMT-5f" x="194.53125"/>
      <use xlink:href="#TimesNewRomanPSMT-55" x="244.53125"/>
      <use xlink:href="#TimesNewRomanPSMT-53" x="316.748047"/>
      <use xlink:href="#TimesNewRomanPSMT-41" x="372.363281"/>
      <use xlink:href="#TimesNewRomanPSMT-47" x="444.580078"/>
      <use xlink:href="#TimesNewRomanPSMT-45" x="516.796875"/>
     </g>
    </g>
   </g>
   <g id="line2d_25">
    <path d="M 101.263807 419.050909 
L 108.80972 419.050909 
L 116.355633 419.050909 
L 123.901546 419.050909 
L 131.447458 419.050909 
L 138.993371 419.050909 
L 146.539284 419.050909 
L 154.085197 419.050909 
L 161.63111 419.050909 
L 169.177023 419.050909 
L 176.722936 419.050909 
L 184.268849 419.050909 
L 191.814762 419.050909 
L 199.360675 419.050909 
L 206.906588 419.050909 
L 214.4525 419.050909 
L 221.998413 419.050909 
L 229.544326 419.050909 
L 237.090239 419.050909 
L 244.636152 419.050909 
L 252.182065 419.050909 
L 259.727978 419.050909 
L 267.273891 419.050909 
L 274.819804 419.050909 
L 282.365717 419.050909 
L 289.91163 419.050909 
L 297.457542 419.050909 
L 305.003455 419.050909 
L 312.549368 419.050909 
L 320.095281 419.050909 
L 327.641194 419.050909 
L 335.187107 419.050909 
L 342.73302 404.476601 
L 350.278933 419.050909 
L 357.824846 417.431541 
L 365.370759 419.050909 
L 372.916672 419.050909 
L 380.462585 419.050909 
L 388.008497 419.050909 
L 395.55441 419.050909 
L 403.100323 419.050909 
L 410.646236 419.050909 
L 418.192149 407.715336 
L 425.738062 308.933901 
L 433.283975 357.514941 
L 440.829888 417.431541 
L 448.375801 417.431541 
L 455.921714 419.050909 
L 463.467627 419.050909 
L 471.013539 417.431541 
L 478.559452 419.050909 
L 486.105365 419.050909 
L 493.651278 419.050909 
L 501.197191 419.050909 
L 508.743104 419.050909 
L 516.289017 419.050909 
L 523.83493 419.050909 
L 531.380843 419.050909 
L 538.926756 417.431541 
L 546.472669 406.095968 
L 554.018581 276.546549 
L 561.564494 274.927194 
L 569.110407 286.262767 
L 576.65632 302.456443 
L 584.202233 283.024032 
L 591.748146 281.404652 
L 599.294059 294.359605 
L 606.839972 291.12087 
L 614.385885 286.262767 
L 621.931798 287.882134 
L 629.477711 412.573438 
L 637.023623 419.050909 
L 644.569536 419.050909 
L 652.115449 419.050909 
L 659.661362 419.050909 
L 667.207275 410.954071 
L 674.753188 271.688458 
L 682.299101 271.688458 
L 689.845014 286.262767 
L 697.390927 286.262767 
L 704.93684 271.688458 
L 712.482753 271.688458 
L 720.028665 294.359605 
L 727.574578 270.069091 
L 735.120491 271.688458 
L 742.666404 283.024032 
L 750.212317 270.069091 
L 757.75823 271.688458 
L 765.304143 289.50149 
L 772.850056 271.688458 
L 780.395969 270.069091 
L 787.941882 271.688458 
L 795.487795 292.740225 
L 803.033708 270.069091 
L 810.57962 270.069091 
L 818.125533 297.59834 
L 825.671446 270.069091 
L 833.217359 270.069091 
L 840.763272 273.307814 
L 848.309185 276.546549 
L 855.855098 270.069091 
L 863.401011 271.688458 
L 870.946924 294.359605 
L 878.492837 270.069091 
L 886.03875 270.069091 
L 893.584662 295.97896 
L 901.130575 271.688458 
L 908.676488 270.069091 
L 916.222401 270.069091 
L 923.768314 291.12087 
L 931.314227 270.069091 
L 938.86014 270.069091 
L 946.406053 283.024032 
L 953.951966 284.643387 
L 961.497879 270.069091 
L 969.043792 270.069091 
L 976.589704 357.514941 
L 984.135617 417.431541 
L 991.68153 419.050909 
L 999.227443 419.050909 
" clip-path="url(#pdce097fec0)" style="fill: none; stroke: #1f77b4; stroke-width: 1.5; stroke-linecap: square"/>
   </g>
   <g id="line2d_26">
    <path d="M 825.671446 290.69962 
L 833.217359 290.152229 
L 840.763272 291.222352 
L 848.309185 293.241792 
L 855.855098 298.654316 
L 863.401011 301.633057 
L 870.946924 302.699585 
L 878.492837 302.205801 
L 886.03875 308.342032 
L 893.584662 307.901843 
L 901.130575 311.18597 
L 908.676488 311.714125 
L 916.222401 315.694271 
L 923.768314 320.605308 
L 931.314227 320.93683 
L 938.86014 315.683065 
L 946.406053 324.99677 
L 953.951966 327.435946 
L 961.497879 328.957322 
L 969.043792 324.455309 
L 976.589704 330.568869 
L 984.135617 331.978996 
L 991.68153 334.767411 
L 999.227443 338.066264 
" clip-path="url(#pdce097fec0)" style="fill: none; stroke: #ff7f0e; stroke-width: 1.5; stroke-linecap: square"/>
   </g>
   <g id="line2d_27">
    <path d="M 825.671446 426.5 
L 825.671446 262.62 
" clip-path="url(#pdce097fec0)" style="fill: none; stroke-dasharray: 7.4,3.2; stroke-dashoffset: 0; stroke: #0000ff; stroke-width: 2"/>
   </g>
   <g id="patch_9">
    <path d="M 56.365625 426.5 
L 56.365625 262.62 
" style="fill: none; stroke: #000000; stroke-width: 0.8; stroke-linejoin: miter; stroke-linecap: square"/>
   </g>
   <g id="patch_10">
    <path d="M 1044.125625 426.5 
L 1044.125625 262.62 
" style="fill: none; stroke: #000000; stroke-width: 0.8; stroke-linejoin: miter; stroke-linecap: square"/>
   </g>
   <g id="patch_11">
    <path d="M 56.365625 426.5 
L 1044.125625 426.5 
" style="fill: none; stroke: #000000; stroke-width: 0.8; stroke-linejoin: miter; stroke-linecap: square"/>
   </g>
   <g id="patch_12">
    <path d="M 56.365625 262.62 
L 1044.125625 262.62 
" style="fill: none; stroke: #000000; stroke-width: 0.8; stroke-linejoin: miter; stroke-linecap: square"/>
   </g>
   <g id="text_25">
    <!-- API_ID: 291 -->
    <g transform="translate(487.915 256.62) scale(0.24 -0.24)">
     <defs>
      <path id="TimesNewRomanPSMT-39" d="M 338 -88 
L 338 28 
Q 744 34 1094 217 
Q 1444 400 1770 856 
Q 2097 1313 2225 1859 
Q 1734 1544 1338 1544 
Q 891 1544 572 1889 
Q 253 2234 253 2806 
Q 253 3363 572 3797 
Q 956 4325 1575 4325 
Q 2097 4325 2469 3894 
Q 2925 3359 2925 2575 
Q 2925 1869 2578 1258 
Q 2231 647 1613 244 
Q 1109 -88 516 -88 
L 338 -88 
z
M 2275 2091 
Q 2331 2497 2331 2741 
Q 2331 3044 2228 3395 
Q 2125 3747 1936 3934 
Q 1747 4122 1506 4122 
Q 1228 4122 1018 3872 
Q 809 3622 809 3128 
Q 809 2469 1088 2097 
Q 1291 1828 1588 1828 
Q 1731 1828 1928 1897 
Q 2125 1966 2275 2091 
z
" transform="scale(0.015625)"/>
     </defs>
     <use xlink:href="#TimesNewRomanPSMT-41"/>
     <use xlink:href="#TimesNewRomanPSMT-50" x="72.216797"/>
     <use xlink:href="#TimesNewRomanPSMT-49" x="127.832031"/>
     <use xlink:href="#TimesNewRomanPSMT-5f" x="161.132812"/>
     <use xlink:href="#TimesNewRomanPSMT-49" x="211.132812"/>
     <use xlink:href="#TimesNewRomanPSMT-44" x="244.433594"/>
     <use xlink:href="#TimesNewRomanPSMT-3a" x="316.650391"/>
     <use xlink:href="#TimesNewRomanPSMT-20" x="344.433594"/>
     <use xlink:href="#TimesNewRomanPSMT-32" x="369.433594"/>
     <use xlink:href="#TimesNewRomanPSMT-39" x="419.433594"/>
     <use xlink:href="#TimesNewRomanPSMT-31" x="469.433594"/>
    </g>
   </g>
  </g>
  <g id="axes_3">
   <g id="patch_13">
    <path d="M 56.365625 659.3 
L 1044.125625 659.3 
L 1044.125625 495.42 
L 56.365625 495.42 
z
" style="fill: #ffffff"/>
   </g>
   <g id="matplotlib.axis_5">
    <g id="xtick_15">
     <g id="line2d_28">
      <g>
       <use xlink:href="#md24f173b0a" x="101.263807" y="659.3" style="stroke: #000000; stroke-width: 0.8"/>
      </g>
     </g>
     <g id="text_26">
      <!-- 0 -->
      <g transform="translate(96.263807 680.1875) scale(0.2 -0.2)">
       <use xlink:href="#TimesNewRomanPSMT-30"/>
      </g>
     </g>
    </g>
    <g id="xtick_16">
     <g id="line2d_29">
      <g>
       <use xlink:href="#md24f173b0a" x="252.182065" y="659.3" style="stroke: #000000; stroke-width: 0.8"/>
      </g>
     </g>
     <g id="text_27">
      <!-- 20 -->
      <g transform="translate(242.182065 680.1875) scale(0.2 -0.2)">
       <use xlink:href="#TimesNewRomanPSMT-32"/>
       <use xlink:href="#TimesNewRomanPSMT-30" x="50"/>
      </g>
     </g>
    </g>
    <g id="xtick_17">
     <g id="line2d_30">
      <g>
       <use xlink:href="#md24f173b0a" x="403.100323" y="659.3" style="stroke: #000000; stroke-width: 0.8"/>
      </g>
     </g>
     <g id="text_28">
      <!-- 40 -->
      <g transform="translate(393.100323 680.1875) scale(0.2 -0.2)">
       <use xlink:href="#TimesNewRomanPSMT-34"/>
       <use xlink:href="#TimesNewRomanPSMT-30" x="50"/>
      </g>
     </g>
    </g>
    <g id="xtick_18">
     <g id="line2d_31">
      <g>
       <use xlink:href="#md24f173b0a" x="554.018581" y="659.3" style="stroke: #000000; stroke-width: 0.8"/>
      </g>
     </g>
     <g id="text_29">
      <!-- 60 -->
      <g transform="translate(544.018581 680.1875) scale(0.2 -0.2)">
       <use xlink:href="#TimesNewRomanPSMT-36"/>
       <use xlink:href="#TimesNewRomanPSMT-30" x="50"/>
      </g>
     </g>
    </g>
    <g id="xtick_19">
     <g id="line2d_32">
      <g>
       <use xlink:href="#md24f173b0a" x="704.93684" y="659.3" style="stroke: #000000; stroke-width: 0.8"/>
      </g>
     </g>
     <g id="text_30">
      <!-- 80 -->
      <g transform="translate(694.93684 680.1875) scale(0.2 -0.2)">
       <use xlink:href="#TimesNewRomanPSMT-38"/>
       <use xlink:href="#TimesNewRomanPSMT-30" x="50"/>
      </g>
     </g>
    </g>
    <g id="xtick_20">
     <g id="line2d_33">
      <g>
       <use xlink:href="#md24f173b0a" x="855.855098" y="659.3" style="stroke: #000000; stroke-width: 0.8"/>
      </g>
     </g>
     <g id="text_31">
      <!-- 100 -->
      <g transform="translate(840.855098 680.1875) scale(0.2 -0.2)">
       <use xlink:href="#TimesNewRomanPSMT-31"/>
       <use xlink:href="#TimesNewRomanPSMT-30" x="50"/>
       <use xlink:href="#TimesNewRomanPSMT-30" x="100"/>
      </g>
     </g>
    </g>
    <g id="xtick_21">
     <g id="line2d_34">
      <g>
       <use xlink:href="#md24f173b0a" x="1006.773356" y="659.3" style="stroke: #000000; stroke-width: 0.8"/>
      </g>
     </g>
     <g id="text_32">
      <!-- 120 -->
      <g transform="translate(991.773356 680.1875) scale(0.2 -0.2)">
       <use xlink:href="#TimesNewRomanPSMT-31"/>
       <use xlink:href="#TimesNewRomanPSMT-32" x="50"/>
       <use xlink:href="#TimesNewRomanPSMT-30" x="100"/>
      </g>
     </g>
    </g>
   </g>
   <g id="matplotlib.axis_6">
    <g id="ytick_6">
     <g id="line2d_35">
      <g>
       <use xlink:href="#m9a6889c069" x="56.365625" y="654.253841" style="stroke: #000000; stroke-width: 0.8"/>
      </g>
     </g>
     <g id="text_33">
      <!-- 0 -->
      <g transform="translate(39.365625 661.197591) scale(0.2 -0.2)">
       <use xlink:href="#TimesNewRomanPSMT-30"/>
      </g>
     </g>
    </g>
    <g id="ytick_7">
     <g id="line2d_36">
      <g>
       <use xlink:href="#m9a6889c069" x="56.365625" y="606.195188" style="stroke: #000000; stroke-width: 0.8"/>
      </g>
     </g>
     <g id="text_34">
      <!-- 20 -->
      <g transform="translate(29.365625 613.138938) scale(0.2 -0.2)">
       <use xlink:href="#TimesNewRomanPSMT-32"/>
       <use xlink:href="#TimesNewRomanPSMT-30" x="50"/>
      </g>
     </g>
    </g>
    <g id="ytick_8">
     <g id="line2d_37">
      <g>
       <use xlink:href="#m9a6889c069" x="56.365625" y="558.136534" style="stroke: #000000; stroke-width: 0.8"/>
      </g>
     </g>
     <g id="text_35">
      <!-- 40 -->
      <g transform="translate(29.365625 565.080284) scale(0.2 -0.2)">
       <use xlink:href="#TimesNewRomanPSMT-34"/>
       <use xlink:href="#TimesNewRomanPSMT-30" x="50"/>
      </g>
     </g>
    </g>
    <g id="ytick_9">
     <g id="line2d_38">
      <g>
       <use xlink:href="#m9a6889c069" x="56.365625" y="510.07788" style="stroke: #000000; stroke-width: 0.8"/>
      </g>
     </g>
     <g id="text_36">
      <!-- 60 -->
      <g transform="translate(29.365625 517.02163) scale(0.2 -0.2)">
       <use xlink:href="#TimesNewRomanPSMT-36"/>
       <use xlink:href="#TimesNewRomanPSMT-30" x="50"/>
      </g>
     </g>
    </g>
    <g id="text_37">
     <!-- CPU_USAGE -->
     <g transform="translate(21.05 635.1475) rotate(-90) scale(0.2 -0.2)">
      <use xlink:href="#TimesNewRomanPSMT-43"/>
      <use xlink:href="#TimesNewRomanPSMT-50" x="66.699219"/>
      <use xlink:href="#TimesNewRomanPSMT-55" x="122.314453"/>
      <use xlink:href="#TimesNewRomanPSMT-5f" x="194.53125"/>
      <use xlink:href="#TimesNewRomanPSMT-55" x="244.53125"/>
      <use xlink:href="#TimesNewRomanPSMT-53" x="316.748047"/>
      <use xlink:href="#TimesNewRomanPSMT-41" x="372.363281"/>
      <use xlink:href="#TimesNewRomanPSMT-47" x="444.580078"/>
      <use xlink:href="#TimesNewRomanPSMT-45" x="516.796875"/>
     </g>
    </g>
   </g>
   <g id="line2d_39">
    <path d="M 101.263807 647.045044 
L 108.80972 502.869091 
L 116.355633 611.001053 
L 123.901546 635.03038 
L 131.447458 558.136534 
L 138.993371 625.418649 
L 146.539284 594.180524 
L 154.085197 603.792255 
L 161.63111 620.612784 
L 169.177023 608.59812 
L 176.722936 538.913072 
L 184.268849 615.806921 
L 191.814762 615.806921 
L 199.360675 598.986389 
L 206.906588 642.239178 
L 214.4525 623.015716 
L 221.998413 625.418649 
L 229.544326 625.418649 
L 237.090239 558.136534 
L 244.636152 647.045044 
L 252.182065 649.447975 
L 259.727978 630.224514 
L 267.273891 632.627447 
L 274.819804 637.433313 
L 282.365717 598.986389 
L 289.91163 618.209851 
L 297.457542 630.224514 
L 305.003455 642.239178 
L 312.549368 627.821582 
L 320.095281 606.195188 
L 327.641194 644.642111 
L 335.187107 618.209851 
L 342.73302 618.209851 
L 350.278933 608.59812 
L 357.824846 615.806921 
L 365.370759 635.03038 
L 372.916672 618.209851 
L 380.462585 620.612784 
L 388.008497 572.55413 
L 395.55441 606.195188 
L 403.100323 603.792255 
L 410.646236 574.957063 
L 418.192149 601.389322 
L 425.738062 623.015716 
L 433.283975 618.209851 
L 440.829888 637.433313 
L 448.375801 625.418649 
L 455.921714 620.612784 
L 463.467627 637.433313 
L 471.013539 630.224514 
L 478.559452 620.612784 
L 486.105365 623.015716 
L 493.651278 639.836245 
L 501.197191 637.433313 
L 508.743104 598.986389 
L 516.289017 625.418649 
L 523.83493 649.447975 
L 531.380843 644.642111 
L 538.926756 560.539466 
L 546.472669 623.015716 
L 554.018581 627.821582 
L 561.564494 649.447975 
L 569.110407 608.59812 
L 576.65632 630.224514 
L 584.202233 637.433313 
L 591.748146 647.045044 
L 599.294059 644.642111 
L 606.839972 630.224514 
L 614.385885 644.642111 
L 621.931798 623.015716 
L 629.477711 620.612784 
L 637.023623 635.03038 
L 644.569536 618.209851 
L 652.115449 642.239178 
L 659.661362 635.03038 
L 667.207275 647.045044 
L 674.753188 642.239178 
L 682.299101 570.151197 
L 689.845014 620.612784 
L 697.390927 608.59812 
L 704.93684 630.224514 
L 712.482753 647.045044 
L 720.028665 635.03038 
L 727.574578 615.806921 
L 735.120491 635.03038 
L 742.666404 651.850909 
L 750.212317 635.03038 
L 757.75823 627.821582 
L 765.304143 611.001053 
L 772.850056 615.806921 
L 780.395969 639.836245 
L 787.941882 630.224514 
L 795.487795 642.239178 
L 803.033708 639.836245 
L 810.57962 635.03038 
L 818.125533 613.403986 
L 825.671446 639.836245 
L 833.217359 644.642111 
L 840.763272 647.045044 
L 848.309185 644.642111 
L 855.855098 577.359995 
L 863.401011 632.627447 
L 870.946924 637.433313 
L 878.492837 644.642111 
L 886.03875 630.224514 
L 893.584662 584.568793 
L 901.130575 570.151197 
L 908.676488 553.330668 
L 916.222401 562.942399 
L 923.768314 574.957063 
L 931.314227 562.942399 
L 938.86014 565.345332 
L 946.406053 589.374659 
L 953.951966 560.539466 
L 961.497879 570.151197 
L 969.043792 584.568793 
L 976.589704 541.316005 
L 984.135617 579.762932 
L 991.68153 536.510139 
L 999.227443 560.539466 
" clip-path="url(#p37b625a1d0)" style="fill: none; stroke: #1f77b4; stroke-width: 1.5; stroke-linecap: square"/>
   </g>
   <g id="line2d_40">
    <path d="M 825.671446 622.613157 
L 833.217359 625.209734 
L 840.763272 624.189445 
L 848.309185 623.899638 
L 855.855098 625.759408 
L 863.401011 626.228742 
L 870.946924 625.833447 
L 878.492837 629.338945 
L 886.03875 627.547207 
L 893.584662 627.959658 
L 901.130575 626.785561 
L 908.676488 622.187999 
L 916.222401 626.199675 
L 923.768314 625.127552 
L 931.314227 628.113559 
L 938.86014 623.263018 
L 946.406053 626.425411 
L 953.951966 625.657396 
L 961.497879 625.008576 
L 969.043792 626.412151 
L 976.589704 626.064557 
L 984.135617 623.446455 
L 991.68153 625.181217 
L 999.227443 627.094924 
" clip-path="url(#p37b625a1d0)" style="fill: none; stroke: #ff7f0e; stroke-width: 1.5; stroke-linecap: square"/>
   </g>
   <g id="line2d_41">
    <path d="M 825.671446 659.3 
L 825.671446 495.42 
" clip-path="url(#p37b625a1d0)" style="fill: none; stroke-dasharray: 7.4,3.2; stroke-dashoffset: 0; stroke: #0000ff; stroke-width: 2"/>
   </g>
   <g id="patch_14">
    <path d="M 56.365625 659.3 
L 56.365625 495.42 
" style="fill: none; stroke: #000000; stroke-width: 0.8; stroke-linejoin: miter; stroke-linecap: square"/>
   </g>
   <g id="patch_15">
    <path d="M 1044.125625 659.3 
L 1044.125625 495.42 
" style="fill: none; stroke: #000000; stroke-width: 0.8; stroke-linejoin: miter; stroke-linecap: square"/>
   </g>
   <g id="patch_16">
    <path d="M 56.365625 659.3 
L 1044.125625 659.3 
" style="fill: none; stroke: #000000; stroke-width: 0.8; stroke-linejoin: miter; stroke-linecap: square"/>
   </g>
   <g id="patch_17">
    <path d="M 56.365625 495.42 
L 1044.125625 495.42 
" style="fill: none; stroke: #000000; stroke-width: 0.8; stroke-linejoin: miter; stroke-linecap: square"/>
   </g>
   <g id="text_38">
    <!-- API_ID: 85153 -->
    <g transform="translate(475.915 489.42) scale(0.24 -0.24)">
     <use xlink:href="#TimesNewRomanPSMT-41"/>
     <use xlink:href="#TimesNewRomanPSMT-50" x="72.216797"/>
     <use xlink:href="#TimesNewRomanPSMT-49" x="127.832031"/>
     <use xlink:href="#TimesNewRomanPSMT-5f" x="161.132812"/>
     <use xlink:href="#TimesNewRomanPSMT-49" x="211.132812"/>
     <use xlink:href="#TimesNewRomanPSMT-44" x="244.433594"/>
     <use xlink:href="#TimesNewRomanPSMT-3a" x="316.650391"/>
     <use xlink:href="#TimesNewRomanPSMT-20" x="344.433594"/>
     <use xlink:href="#TimesNewRomanPSMT-38" x="369.433594"/>
     <use xlink:href="#TimesNewRomanPSMT-35" x="419.433594"/>
     <use xlink:href="#TimesNewRomanPSMT-31" x="469.433594"/>
     <use xlink:href="#TimesNewRomanPSMT-35" x="519.433594"/>
     <use xlink:href="#TimesNewRomanPSMT-33" x="569.433594"/>
    </g>
   </g>
  </g>
 </g>
 <defs>
  <clipPath id="pb972402b72">
   <rect x="56.365625" y="29.82" width="987.76" height="163.88"/>
  </clipPath>
  <clipPath id="pdce097fec0">
   <rect x="56.365625" y="262.62" width="987.76" height="163.88"/>
  </clipPath>
  <clipPath id="p37b625a1d0">
   <rect x="56.365625" y="495.42" width="987.76" height="163.88"/>
  </clipPath>
 </defs>
</svg>
