<?xml version="1.0" encoding="utf-8" standalone="no"?>
<!DOCTYPE svg PUBLIC "-//W3C//DTD SVG 1.1//EN"
  "http://www.w3.org/Graphics/SVG/1.1/DTD/svg11.dtd">
<svg xmlns:xlink="http://www.w3.org/1999/xlink" width="1050.557536pt" height="691.4825pt" viewBox="0 0 1050.557536 691.4825" xmlns="http://www.w3.org/2000/svg" version="1.1">
 <metadata>
  <rdf:RDF xmlns:dc="http://purl.org/dc/elements/1.1/" xmlns:cc="http://creativecommons.org/ns#" xmlns:rdf="http://www.w3.org/1999/02/22-rdf-syntax-ns#">
   <cc:Work>
    <dc:type rdf:resource="http://purl.org/dc/dcmitype/StillImage"/>
    <dc:date>2024-02-22T18:22:46.631146</dc:date>
    <dc:format>image/svg+xml</dc:format>
    <dc:creator>
     <cc:Agent>
      <dc:title>Matplotlib v3.7.4, https://matplotlib.org/</dc:title>
     </cc:Agent>
    </dc:creator>
   </cc:Work>
  </rdf:RDF>
 </metadata>
 <defs>
  <style type="text/css">*{stroke-linejoin: round; stroke-linecap: butt}</style>
 </defs>
 <g id="figure_1">
  <g id="patch_1">
   <path d="M 0 691.4825 
L 1050.557536 691.4825 
L 1050.557536 0 
L 0 0 
z
" style="fill: #ffffff"/>
  </g>
  <g id="axes_1">
   <g id="patch_2">
    <path d="M 61.6375 193.516875 
L 1032.509189 193.516875 
L 1032.509189 29.059375 
L 61.6375 29.059375 
z
" style="fill: #ffffff"/>
   </g>
   <g id="matplotlib.axis_1">
    <g id="xtick_1">
     <g id="line2d_1">
      <defs>
       <path id="m3e2e6a0767" d="M 0 0 
L 0 3.5 
" style="stroke: #000000; stroke-width: 0.8"/>
      </defs>
      <g>
       <use xlink:href="#m3e2e6a0767" x="105.768031" y="193.516875" style="stroke: #000000; stroke-width: 0.8"/>
      </g>
     </g>
     <g id="text_1">
      <!-- 0 -->
      <g transform="translate(100.768031 214.404375) scale(0.2 -0.2)">
       <defs>
        <path id="TimesNewRomanPSMT-30" d="M 231 2094 
Q 231 2819 450 3342 
Q 669 3866 1031 4122 
Q 1313 4325 1613 4325 
Q 2100 4325 2488 3828 
Q 2972 3213 2972 2159 
Q 2972 1422 2759 906 
Q 2547 391 2217 158 
Q 1888 -75 1581 -75 
Q 975 -75 572 641 
Q 231 1244 231 2094 
z
M 844 2016 
Q 844 1141 1059 588 
Q 1238 122 1591 122 
Q 1759 122 1940 273 
Q 2122 425 2216 781 
Q 2359 1319 2359 2297 
Q 2359 3022 2209 3506 
Q 2097 3866 1919 4016 
Q 1791 4119 1609 4119 
Q 1397 4119 1231 3928 
Q 1006 3669 925 3112 
Q 844 2556 844 2016 
z
" transform="scale(0.015625)"/>
       </defs>
       <use xlink:href="#TimesNewRomanPSMT-30"/>
      </g>
     </g>
    </g>
    <g id="xtick_2">
     <g id="line2d_2">
      <g>
       <use xlink:href="#m3e2e6a0767" x="259.532949" y="193.516875" style="stroke: #000000; stroke-width: 0.8"/>
      </g>
     </g>
     <g id="text_2">
      <!-- 50 -->
      <g transform="translate(249.532949 214.404375) scale(0.2 -0.2)">
       <defs>
        <path id="TimesNewRomanPSMT-35" d="M 2778 4238 
L 2534 3706 
L 1259 3706 
L 981 3138 
Q 1809 3016 2294 2522 
Q 2709 2097 2709 1522 
Q 2709 1188 2573 903 
Q 2438 619 2231 419 
Q 2025 219 1772 97 
Q 1413 -75 1034 -75 
Q 653 -75 479 54 
Q 306 184 306 341 
Q 306 428 378 495 
Q 450 563 559 563 
Q 641 563 702 538 
Q 763 513 909 409 
Q 1144 247 1384 247 
Q 1750 247 2026 523 
Q 2303 800 2303 1197 
Q 2303 1581 2056 1914 
Q 1809 2247 1375 2428 
Q 1034 2569 447 2591 
L 1259 4238 
L 2778 4238 
z
" transform="scale(0.015625)"/>
       </defs>
       <use xlink:href="#TimesNewRomanPSMT-35"/>
       <use xlink:href="#TimesNewRomanPSMT-30" x="50"/>
      </g>
     </g>
    </g>
    <g id="xtick_3">
     <g id="line2d_3">
      <g>
       <use xlink:href="#m3e2e6a0767" x="413.297866" y="193.516875" style="stroke: #000000; stroke-width: 0.8"/>
      </g>
     </g>
     <g id="text_3">
      <!-- 100 -->
      <g transform="translate(398.297866 214.404375) scale(0.2 -0.2)">
       <defs>
        <path id="TimesNewRomanPSMT-31" d="M 750 3822 
L 1781 4325 
L 1884 4325 
L 1884 747 
Q 1884 391 1914 303 
Q 1944 216 2037 169 
Q 2131 122 2419 116 
L 2419 0 
L 825 0 
L 825 116 
Q 1125 122 1212 167 
Q 1300 213 1334 289 
Q 1369 366 1369 747 
L 1369 3034 
Q 1369 3497 1338 3628 
Q 1316 3728 1258 3775 
Q 1200 3822 1119 3822 
Q 1003 3822 797 3725 
L 750 3822 
z
" transform="scale(0.015625)"/>
       </defs>
       <use xlink:href="#TimesNewRomanPSMT-31"/>
       <use xlink:href="#TimesNewRomanPSMT-30" x="50"/>
       <use xlink:href="#TimesNewRomanPSMT-30" x="100"/>
      </g>
     </g>
    </g>
    <g id="xtick_4">
     <g id="line2d_4">
      <g>
       <use xlink:href="#m3e2e6a0767" x="567.062784" y="193.516875" style="stroke: #000000; stroke-width: 0.8"/>
      </g>
     </g>
     <g id="text_4">
      <!-- 150 -->
      <g transform="translate(552.062784 214.404375) scale(0.2 -0.2)">
       <use xlink:href="#TimesNewRomanPSMT-31"/>
       <use xlink:href="#TimesNewRomanPSMT-35" x="50"/>
       <use xlink:href="#TimesNewRomanPSMT-30" x="100"/>
      </g>
     </g>
    </g>
    <g id="xtick_5">
     <g id="line2d_5">
      <g>
       <use xlink:href="#m3e2e6a0767" x="720.827701" y="193.516875" style="stroke: #000000; stroke-width: 0.8"/>
      </g>
     </g>
     <g id="text_5">
      <!-- 200 -->
      <g transform="translate(705.827701 214.404375) scale(0.2 -0.2)">
       <defs>
        <path id="TimesNewRomanPSMT-32" d="M 2934 816 
L 2638 0 
L 138 0 
L 138 116 
Q 1241 1122 1691 1759 
Q 2141 2397 2141 2925 
Q 2141 3328 1894 3587 
Q 1647 3847 1303 3847 
Q 991 3847 742 3664 
Q 494 3481 375 3128 
L 259 3128 
Q 338 3706 661 4015 
Q 984 4325 1469 4325 
Q 1984 4325 2329 3994 
Q 2675 3663 2675 3213 
Q 2675 2891 2525 2569 
Q 2294 2063 1775 1497 
Q 997 647 803 472 
L 1909 472 
Q 2247 472 2383 497 
Q 2519 522 2628 598 
Q 2738 675 2819 816 
L 2934 816 
z
" transform="scale(0.015625)"/>
       </defs>
       <use xlink:href="#TimesNewRomanPSMT-32"/>
       <use xlink:href="#TimesNewRomanPSMT-30" x="50"/>
       <use xlink:href="#TimesNewRomanPSMT-30" x="100"/>
      </g>
     </g>
    </g>
    <g id="xtick_6">
     <g id="line2d_6">
      <g>
       <use xlink:href="#m3e2e6a0767" x="874.592619" y="193.516875" style="stroke: #000000; stroke-width: 0.8"/>
      </g>
     </g>
     <g id="text_6">
      <!-- 250 -->
      <g transform="translate(859.592619 214.404375) scale(0.2 -0.2)">
       <use xlink:href="#TimesNewRomanPSMT-32"/>
       <use xlink:href="#TimesNewRomanPSMT-35" x="50"/>
       <use xlink:href="#TimesNewRomanPSMT-30" x="100"/>
      </g>
     </g>
    </g>
    <g id="xtick_7">
     <g id="line2d_7">
      <g>
       <use xlink:href="#m3e2e6a0767" x="1028.357536" y="193.516875" style="stroke: #000000; stroke-width: 0.8"/>
      </g>
     </g>
     <g id="text_7">
      <!-- 300 -->
      <g transform="translate(1013.357536 214.404375) scale(0.2 -0.2)">
       <defs>
        <path id="TimesNewRomanPSMT-33" d="M 325 3431 
Q 506 3859 782 4092 
Q 1059 4325 1472 4325 
Q 1981 4325 2253 3994 
Q 2459 3747 2459 3466 
Q 2459 3003 1878 2509 
Q 2269 2356 2469 2072 
Q 2669 1788 2669 1403 
Q 2669 853 2319 450 
Q 1863 -75 997 -75 
Q 569 -75 414 31 
Q 259 138 259 259 
Q 259 350 332 419 
Q 406 488 509 488 
Q 588 488 669 463 
Q 722 447 909 348 
Q 1097 250 1169 231 
Q 1284 197 1416 197 
Q 1734 197 1970 444 
Q 2206 691 2206 1028 
Q 2206 1275 2097 1509 
Q 2016 1684 1919 1775 
Q 1784 1900 1550 2001 
Q 1316 2103 1072 2103 
L 972 2103 
L 972 2197 
Q 1219 2228 1467 2375 
Q 1716 2522 1828 2728 
Q 1941 2934 1941 3181 
Q 1941 3503 1739 3701 
Q 1538 3900 1238 3900 
Q 753 3900 428 3381 
L 325 3431 
z
" transform="scale(0.015625)"/>
       </defs>
       <use xlink:href="#TimesNewRomanPSMT-33"/>
       <use xlink:href="#TimesNewRomanPSMT-30" x="50"/>
       <use xlink:href="#TimesNewRomanPSMT-30" x="100"/>
      </g>
     </g>
    </g>
   </g>
   <g id="matplotlib.axis_2">
    <g id="ytick_1">
     <g id="line2d_8">
      <defs>
       <path id="m0e05ab74f7" d="M 0 0 
L -3.5 0 
" style="stroke: #000000; stroke-width: 0.8"/>
      </defs>
      <g>
       <use xlink:href="#m0e05ab74f7" x="61.6375" y="191.594733" style="stroke: #000000; stroke-width: 0.8"/>
      </g>
     </g>
     <g id="text_8">
      <!-- 0.0 -->
      <g transform="translate(29.6375 198.538483) scale(0.2 -0.2)">
       <defs>
        <path id="TimesNewRomanPSMT-2e" d="M 800 606 
Q 947 606 1047 504 
Q 1147 403 1147 259 
Q 1147 116 1045 14 
Q 944 -88 800 -88 
Q 656 -88 554 14 
Q 453 116 453 259 
Q 453 406 554 506 
Q 656 606 800 606 
z
" transform="scale(0.015625)"/>
       </defs>
       <use xlink:href="#TimesNewRomanPSMT-30"/>
       <use xlink:href="#TimesNewRomanPSMT-2e" x="50"/>
       <use xlink:href="#TimesNewRomanPSMT-30" x="75"/>
      </g>
     </g>
    </g>
    <g id="ytick_2">
     <g id="line2d_9">
      <g>
       <use xlink:href="#m0e05ab74f7" x="61.6375" y="140.46031" style="stroke: #000000; stroke-width: 0.8"/>
      </g>
     </g>
     <g id="text_9">
      <!-- 1.0 -->
      <g transform="translate(29.6375 147.40406) scale(0.2 -0.2)">
       <use xlink:href="#TimesNewRomanPSMT-31"/>
       <use xlink:href="#TimesNewRomanPSMT-2e" x="50"/>
       <use xlink:href="#TimesNewRomanPSMT-30" x="75"/>
      </g>
     </g>
    </g>
    <g id="ytick_3">
     <g id="line2d_10">
      <g>
       <use xlink:href="#m0e05ab74f7" x="61.6375" y="89.325888" style="stroke: #000000; stroke-width: 0.8"/>
      </g>
     </g>
     <g id="text_10">
      <!-- 2.0 -->
      <g transform="translate(29.6375 96.269638) scale(0.2 -0.2)">
       <use xlink:href="#TimesNewRomanPSMT-32"/>
       <use xlink:href="#TimesNewRomanPSMT-2e" x="50"/>
       <use xlink:href="#TimesNewRomanPSMT-30" x="75"/>
      </g>
     </g>
    </g>
    <g id="ytick_4">
     <g id="line2d_11">
      <g>
       <use xlink:href="#m0e05ab74f7" x="61.6375" y="38.191466" style="stroke: #000000; stroke-width: 0.8"/>
      </g>
     </g>
     <g id="text_11">
      <!-- 3.0 -->
      <g transform="translate(29.6375 45.135216) scale(0.2 -0.2)">
       <use xlink:href="#TimesNewRomanPSMT-33"/>
       <use xlink:href="#TimesNewRomanPSMT-2e" x="50"/>
       <use xlink:href="#TimesNewRomanPSMT-30" x="75"/>
      </g>
     </g>
    </g>
    <g id="text_12">
     <!-- CPU使用率 -->
     <g transform="translate(23.059375 156.288125) rotate(-90) scale(0.2 -0.2)">
      <defs>
       <path id="SimSun-43" d="M 1725 50 
Q 1025 50 612 575 
Q 200 1100 200 2225 
Q 200 3175 637 3800 
Q 1075 4425 1825 4425 
Q 2000 4425 2175 4375 
Q 2350 4300 2475 4300 
Q 2575 4300 2637 4325 
Q 2700 4350 2750 4425 
L 2975 3325 
L 2825 3275 
Q 2675 3750 2425 4000 
Q 2175 4250 1775 4250 
Q 1250 4250 962 3675 
Q 675 3100 675 2250 
Q 675 1325 925 800 
Q 1175 275 1750 275 
Q 2150 275 2437 562 
Q 2725 850 2825 1325 
L 2975 1250 
Q 2850 725 2512 387 
Q 2175 50 1725 50 
z
" transform="scale(0.015625)"/>
       <path id="SimSun-50" d="M 950 2100 
L 950 450 
Q 950 350 1012 300 
Q 1075 250 1175 250 
L 1350 250 
L 1350 100 
L 150 100 
L 150 250 
L 325 250 
Q 450 250 500 300 
Q 550 350 550 450 
L 550 4025 
Q 550 4125 500 4175 
Q 450 4225 325 4225 
L 175 4225 
L 175 4375 
L 1650 4375 
Q 2275 4375 2612 4062 
Q 2950 3750 2950 3275 
Q 2950 2700 2587 2400 
Q 2225 2100 1725 2100 
L 950 2100 
z
M 1575 2250 
Q 1950 2250 2237 2475 
Q 2525 2700 2525 3250 
Q 2525 3750 2287 3987 
Q 2050 4225 1525 4225 
L 1175 4225 
Q 1075 4225 1012 4175 
Q 950 4125 950 4025 
L 950 2250 
L 1575 2250 
z
" transform="scale(0.015625)"/>
       <path id="SimSun-55" d="M 1625 250 
Q 2000 250 2262 500 
Q 2525 750 2525 1125 
L 2525 4025 
Q 2525 4125 2475 4175 
Q 2425 4225 2300 4225 
L 2150 4225 
L 2150 4375 
L 3050 4375 
L 3050 4225 
L 2900 4225 
Q 2800 4225 2737 4175 
Q 2675 4125 2675 4025 
L 2675 1125 
Q 2675 625 2337 337 
Q 2000 50 1575 50 
Q 1125 50 787 300 
Q 450 550 450 1100 
L 450 4025 
Q 450 4125 400 4175 
Q 350 4225 225 4225 
L 100 4225 
L 100 4375 
L 1200 4375 
L 1200 4225 
L 1075 4225 
Q 975 4225 912 4175 
Q 850 4125 850 4025 
L 850 1100 
Q 850 600 1062 425 
Q 1275 250 1625 250 
z
" transform="scale(0.015625)"/>
       <path id="SimSun-4f7f" d="M 2875 3150 
L 2875 2100 
L 3825 2100 
Q 3850 2825 3850 3150 
L 2875 3150 
z
M 4175 3150 
Q 4175 2800 4150 2100 
L 5150 2100 
L 5150 3150 
L 4175 3150 
z
M 5475 3100 
L 5475 2425 
Q 5475 2100 5500 1800 
L 5150 1675 
L 5150 1950 
L 4150 1950 
Q 4125 1175 3875 600 
Q 4275 275 4875 75 
Q 5475 -125 6075 -150 
L 6075 -250 
Q 5700 -300 5600 -575 
Q 4525 -325 3725 350 
Q 3425 25 2925 -225 
Q 2425 -475 1875 -650 
L 1825 -550 
Q 2400 -325 2850 -25 
Q 3300 275 3500 575 
Q 3200 925 2825 1650 
L 2900 1700 
Q 3325 1100 3625 825 
Q 3800 1300 3825 1950 
L 2875 1950 
L 2875 1825 
L 2525 1675 
Q 2550 2075 2550 2562 
Q 2550 3050 2525 3500 
L 2875 3300 
L 3850 3300 
L 3850 4025 
L 2975 4025 
Q 2650 4025 2375 3950 
L 2150 4175 
L 3850 4175 
L 3850 4525 
Q 3850 4775 3825 5225 
L 4350 5000 
L 4175 4825 
L 4175 4175 
L 5300 4175 
L 5600 4475 
L 6050 4025 
L 4175 4025 
L 4175 3300 
L 5100 3300 
L 5275 3525 
L 5650 3225 
L 5475 3100 
z
M 1675 3175 
L 1675 -450 
L 1325 -625 
Q 1350 -75 1350 350 
L 1350 3200 
Q 900 2475 350 1900 
L 275 1950 
Q 700 2525 1112 3400 
Q 1525 4275 1800 5250 
L 2325 4925 
L 2125 4800 
Q 1725 3925 1500 3525 
L 1875 3325 
L 1675 3175 
z
" transform="scale(0.015625)"/>
       <path id="SimSun-7528" d="M 3400 3150 
L 3400 1825 
L 5075 1825 
L 5075 3150 
L 3400 3150 
z
M 4075 100 
Q 4725 50 4900 62 
Q 5075 75 5075 400 
L 5075 1675 
L 3400 1675 
Q 3400 75 3425 -225 
L 3050 -400 
Q 3075 1025 3075 1675 
L 1425 1675 
Q 1250 350 375 -600 
L 300 -550 
Q 775 225 950 1025 
Q 1125 1825 1125 3225 
Q 1125 4625 1100 5075 
L 1475 4825 
L 5050 4825 
L 5225 5100 
L 5625 4800 
L 5425 4600 
L 5425 225 
Q 5450 -400 4875 -575 
Q 4825 -150 4075 -25 
L 4075 100 
z
M 1475 4675 
L 1475 3300 
L 3075 3300 
L 3075 4675 
L 1475 4675 
z
M 3400 4675 
L 3400 3300 
L 5075 3300 
L 5075 4675 
L 3400 4675 
z
M 1475 3150 
Q 1450 2100 1425 1825 
L 3075 1825 
L 3075 3150 
L 1475 3150 
z
" transform="scale(0.015625)"/>
       <path id="SimSun-7387" d="M 875 3725 
L 925 3800 
Q 1375 3650 1550 3525 
Q 1725 3400 1725 3250 
Q 1725 3175 1662 3025 
Q 1600 2875 1550 2875 
Q 1500 2875 1425 3050 
Q 1275 3325 875 3725 
z
M 550 1850 
Q 875 1925 2000 2575 
L 2050 2500 
Q 1675 2225 1337 1937 
Q 1000 1650 875 1425 
L 550 1850 
z
M 5200 3450 
Q 4800 3150 4275 2800 
L 4225 2875 
Q 4775 3400 5050 3925 
L 5450 3525 
L 5200 3450 
z
M 4325 2500 
L 4350 2575 
Q 5225 2350 5375 2212 
Q 5525 2075 5525 1900 
Q 5525 1775 5487 1662 
Q 5450 1550 5400 1550 
Q 5325 1550 5200 1800 
Q 4975 2150 4325 2500 
z
M 3150 3900 
Q 2500 3300 2300 3150 
Q 2800 3150 3400 3175 
Q 3700 3500 3850 3825 
L 4250 3450 
Q 4050 3400 3450 2825 
Q 2850 2250 2475 1950 
Q 3150 1975 3850 2000 
Q 3750 2175 3550 2450 
L 3600 2500 
Q 4050 2250 4200 2100 
Q 4350 1950 4350 1850 
Q 4350 1775 4250 1625 
Q 4150 1475 4100 1475 
Q 4075 1475 4050 1550 
Q 4000 1700 3900 1900 
Q 3650 1875 3075 1800 
L 3500 1550 
L 3325 1425 
L 3325 975 
L 5325 975 
L 5650 1300 
L 6100 825 
L 3325 825 
Q 3325 -275 3350 -525 
L 2975 -650 
Q 3000 0 3000 825 
L 1125 825 
Q 800 825 525 750 
L 300 975 
L 3000 975 
L 3000 1775 
Q 2450 1700 2200 1525 
L 1950 1950 
Q 2275 1950 2675 2350 
Q 3075 2750 3325 3050 
Q 2400 2950 2150 2775 
L 1950 3175 
Q 2150 3150 2475 3575 
Q 2800 4000 2900 4225 
L 1450 4225 
Q 1125 4225 850 4150 
L 625 4375 
L 3100 4375 
Q 3050 4800 2675 5200 
L 2725 5250 
Q 3225 5050 3337 4912 
Q 3450 4775 3450 4700 
Q 3450 4550 3250 4375 
L 5025 4375 
L 5350 4675 
L 5775 4225 
L 3050 4225 
L 3375 3950 
L 3150 3900 
z
" transform="scale(0.015625)"/>
      </defs>
      <use xlink:href="#SimSun-43"/>
      <use xlink:href="#SimSun-50" x="50"/>
      <use xlink:href="#SimSun-55" x="100"/>
      <use xlink:href="#SimSun-4f7f" x="150"/>
      <use xlink:href="#SimSun-7528" x="250"/>
      <use xlink:href="#SimSun-7387" x="350"/>
     </g>
    </g>
   </g>
   <g id="line2d_12">
    <path d="M 105.768031 129.313003 
L 108.84333 133.70034 
L 111.918628 136.369554 
L 114.993926 135.571859 
L 118.069225 134.467355 
L 121.144523 140.572806 
L 124.219821 138.333119 
L 127.29512 138.455844 
L 130.370418 142.076158 
L 133.445716 143.54883 
L 136.521015 141.830712 
L 139.596313 143.610192 
L 142.671612 168.614923 
L 145.74691 137.320654 
L 148.822208 137.075211 
L 151.897507 138.05699 
L 154.972805 139.406943 
L 158.048103 139.560341 
L 161.123402 142.475006 
L 164.1987 158.265317 
L 167.273998 161.364059 
L 170.349297 165.045739 
L 173.424595 169.34103 
L 176.499893 170.609167 
L 179.575192 168.093351 
L 182.65049 169.566022 
L 185.725788 170.69098 
L 188.801087 172.777264 
L 191.876385 172.327282 
L 194.951683 174.024943 
L 198.026982 175.231715 
L 201.10228 177.706623 
L 204.177579 179.363377 
L 207.252877 184.384784 
L 210.328175 177.727077 
L 213.403474 184.55864 
L 216.478772 176.847562 
L 219.55407 183.812075 
L 222.629369 176.418035 
L 225.704667 180.498563 
L 228.779965 172.572729 
L 231.855264 174.413568 
L 234.930562 173.97381 
L 238.00586 174.935138 
L 241.081159 175.057859 
L 244.156457 175.998733 
L 247.231755 175.865783 
L 250.307054 176.765749 
L 253.382352 176.724841 
L 256.45765 176.827111 
L 259.532949 174.587421 
L 262.608247 176.172592 
L 265.683546 175.374894 
L 268.758844 177.553222 
L 271.834142 177.041875 
L 274.909441 178.044111 
L 277.984739 177.21573 
L 281.060037 181.705335 
L 284.135336 182.564395 
L 287.210634 184.405229 
L 290.285932 177.911161 
L 293.361231 178.852036 
L 296.436529 170.793248 
L 299.511827 177.952066 
L 302.587126 180.774692 
L 308.737722 181.807602 
L 311.813021 181.234899 
L 314.888319 180.058804 
L 317.963617 181.347395 
L 321.038916 179.925854 
L 324.114214 176.489623 
L 327.189513 178.954304 
L 330.264811 184.885899 
L 333.340109 182.789388 
L 336.415408 184.507503 
L 339.490706 185.714274 
L 342.566004 186.041534 
L 345.641303 185.969946 
L 348.716601 185.509739 
L 351.791899 178.90317 
L 354.867198 184.01661 
L 357.942496 179.179293 
L 361.017794 175.456707 
L 364.093093 177.911161 
L 367.168391 177.502085 
L 370.243689 179.077025 
L 373.318988 177.236188 
L 376.394286 173.94313 
L 379.469584 175.068088 
L 382.544883 174.86355 
L 385.620181 174.822642 
L 388.69548 175.333985 
L 391.770778 173.554508 
L 394.846076 172.715904 
L 397.921375 172.225015 
L 400.996673 171.01824 
L 404.071971 170.834156 
L 407.14727 169.095584 
L 410.222568 157.569887 
L 413.297866 157.416482 
L 416.373165 170.997786 
L 419.448463 169.791015 
L 422.523761 169.954645 
L 425.59906 158.684619 
L 428.674358 154.48137 
L 431.749656 154.072294 
L 434.824955 155.667687 
L 437.900253 145.972601 
L 440.975551 134.59008 
L 444.05085 137.228615 
L 447.126148 138.374027 
L 450.201447 140.828478 
L 453.276745 141.482998 
L 456.352043 146.228273 
L 459.427342 147.087331 
L 462.50264 143.242024 
L 465.577938 149.255431 
L 468.653237 144.510158 
L 471.728535 145.737384 
L 474.803833 137.555875 
L 477.879132 125.63133 
L 480.95443 111.671632 
L 484.029728 104.154869 
L 487.105027 67.675577 
L 490.180325 101.086806 
L 493.255623 109.319449 
L 496.330922 114.330619 
L 499.40622 98.530081 
L 502.481518 102.365165 
L 505.556817 91.780345 
L 508.632115 102.416302 
L 511.707414 88.456605 
L 514.782712 71.469747 
L 517.85801 63.288247 
L 520.933309 69.8539 
L 524.008607 78.99674 
L 527.083905 78.137673 
L 530.159204 81.031886 
L 533.234502 88.415703 
L 536.3098 61.631485 
L 539.385099 83.414755 
L 542.460397 75.683228 
L 545.535695 76.112755 
L 548.610994 79.364908 
L 551.686292 72.799243 
L 554.76159 74.087837 
L 557.836889 84.048818 
L 560.912187 93.109835 
L 563.987485 88.456605 
L 567.062784 76.184343 
L 570.138082 69.424372 
L 573.213381 67.828982 
L 576.288679 69.424372 
L 579.363977 73.535579 
L 582.439276 72.737884 
L 585.514574 149.500877 
L 588.589872 69.056204 
L 591.665171 68.19715 
L 594.740469 78.567212 
L 597.815767 86.666896 
L 600.891066 81.757993 
L 603.966364 85.501032 
L 607.041662 107.580876 
L 610.116961 104.103738 
L 613.192259 102.109494 
L 616.267557 101.59815 
L 619.342856 105.944578 
L 622.418154 103.541257 
L 625.493452 96.58698 
L 628.568751 76.91045 
L 631.644049 80.285322 
L 634.719348 93.989347 
L 637.794646 104.206005 
L 640.869944 101.700417 
L 643.945243 102.365165 
L 647.020541 95.564286 
L 650.095839 113.154527 
L 653.171138 114.58629 
L 656.246436 113.205664 
L 659.321734 101.24021 
L 662.397033 82.647734 
L 665.472331 91.882607 
L 668.547629 106.916128 
L 671.622928 101.24021 
L 674.698226 104.512814 
L 677.773524 111.109152 
L 680.848823 109.779656 
L 683.924121 109.01264 
L 686.999419 110.802349 
L 690.074718 113.665871 
L 693.150016 111.927304 
L 696.225315 100.984539 
L 699.300613 86.850986 
L 702.375911 89.980408 
L 705.45121 88.814544 
L 708.526508 90.164492 
L 711.601806 88.753185 
L 714.677105 82.801138 
L 717.752403 80.162603 
L 720.827701 74.455993 
L 723.903 79.119458 
L 726.978298 69.178923 
L 730.053596 72.246985 
L 733.128895 73.903747 
L 736.204193 69.97663 
L 739.279491 80.83758 
L 742.35479 88.998634 
L 745.430088 103.531035 
L 748.505386 106.813861 
L 751.580685 101.904959 
L 754.655983 95.093851 
L 757.731282 102.252669 
L 760.80658 113.665871 
L 763.881878 108.603564 
L 766.957177 110.393273 
L 770.032475 103.899203 
L 773.107773 105.024158 
L 776.183072 85.93056 
L 779.25837 94.899538 
L 782.333668 97.149454 
L 785.408967 100.012982 
L 788.484265 98.42782 
L 791.559563 104.563945 
L 794.634862 100.575462 
L 797.71016 104.154869 
L 800.785458 105.688906 
L 803.860757 102.007226 
L 806.936055 107.632013 
L 810.011353 104.308273 
L 813.086652 105.740037 
L 816.16195 105.177556 
L 819.237249 85.981703 
L 822.312547 83.967001 
L 825.387845 74.517365 
L 828.463144 80.83758 
L 831.538442 65.313165 
L 834.61374 63.196202 
L 837.689039 36.534716 
L 840.764337 39.899358 
L 843.839635 60.015638 
L 846.914934 54.503347 
L 849.990232 73.965107 
L 853.06553 61.324677 
L 856.140829 54.390857 
L 859.216127 72.799243 
L 862.291425 71.756099 
L 865.366724 77.708146 
L 868.442022 81.757993 
L 871.51732 79.610345 
L 874.592619 79.426267 
L 877.667917 84.457888 
L 880.743216 75.376419 
L 883.818514 71.756099 
L 886.893812 71.940189 
L 889.969111 67.143777 
L 893.044409 57.939577 
L 896.119707 56.937347 
L 899.195006 78.321763 
L 902.270304 72.615165 
L 905.345602 78.505853 
L 908.420901 83.292025 
L 911.496199 79.671704 
L 914.571497 84.948787 
L 917.646796 65.251806 
L 920.722094 86.625994 
L 923.797392 81.942084 
L 926.872691 84.68288 
L 929.947989 86.257826 
L 933.023287 87.382787 
L 936.098586 95.615423 
L 942.249183 93.876851 
L 945.324481 89.274757 
L 948.399779 89.019079 
L 951.475078 99.245966 
L 954.550376 100.984539 
L 957.625674 110.22964 
L 960.700973 110.5569 
L 963.776271 110.311457 
L 966.851569 109.411488 
L 969.926868 114.688564 
L 973.002166 115.956695 
L 976.077464 112.684091 
L 982.228061 127.247177 
L 985.303359 125.529056 
L 988.378658 119.433833 
L 988.378658 119.433833 
" clip-path="url(#p6a3b291468)" style="fill: none; stroke: #1f77b4; stroke-width: 1.5; stroke-linecap: square"/>
   </g>
   <g id="line2d_13">
    <path d="M 548.610994 76.689457 
L 551.686292 80.307327 
L 554.76159 80.530649 
L 557.836889 78.775722 
L 560.912187 79.161128 
L 563.987485 73.817127 
L 567.062784 80.281737 
L 570.138082 81.034934 
L 573.213381 79.411564 
L 576.288679 80.497757 
L 579.363977 81.81878 
L 582.439276 75.596328 
L 585.514574 110.186324 
L 588.589872 73.758804 
L 591.665171 76.025318 
L 594.740469 77.323117 
L 600.891066 76.387647 
L 603.966364 78.149621 
L 607.041662 79.748949 
L 610.116961 78.139355 
L 613.192259 75.780515 
L 616.267557 72.737214 
L 619.342856 77.480788 
L 622.418154 73.138042 
L 625.493452 78.029755 
L 628.568751 84.007623 
L 631.644049 83.343314 
L 634.719348 85.679393 
L 637.794646 82.743119 
L 640.869944 83.688611 
L 643.945243 83.210354 
L 647.020541 84.544886 
L 650.095839 85.403623 
L 653.171138 88.07833 
L 656.246436 89.253654 
L 659.321734 84.670664 
L 662.397033 93.316169 
L 665.472331 88.157977 
L 668.547629 93.267153 
L 671.622928 87.396612 
L 674.698226 87.011278 
L 677.773524 87.750138 
L 680.848823 88.925742 
L 683.924121 90.949038 
L 686.999419 92.456017 
L 690.074718 94.674119 
L 693.150016 94.277856 
L 696.225315 88.158318 
L 699.300613 95.999818 
L 702.375911 97.311576 
L 705.45121 101.518936 
L 708.526508 101.034151 
L 711.601806 104.716551 
L 714.677105 103.170846 
L 717.752403 104.158983 
L 720.827701 101.240613 
L 723.903 102.085409 
L 726.978298 104.381915 
L 730.053596 111.05067 
L 733.128895 106.411868 
L 736.204193 109.029257 
L 739.279491 107.362614 
L 742.35479 114.636665 
L 745.430088 106.408631 
L 748.505386 106.33074 
L 751.580685 109.946239 
L 754.655983 116.731513 
L 757.731282 119.602319 
L 760.80658 117.460473 
L 763.881878 118.239863 
L 766.957177 116.734366 
L 770.032475 77.669279 
L 773.107773 80.17121 
L 776.183072 85.049609 
L 779.25837 82.863204 
L 782.333668 85.822349 
L 785.408967 90.843107 
L 788.484265 84.466397 
L 791.559563 85.440417 
L 794.634862 85.969779 
L 797.71016 85.053035 
L 800.785458 88.131363 
L 803.860757 88.963072 
L 806.936055 81.732087 
L 810.011353 84.342484 
L 813.086652 84.882514 
L 816.16195 86.759209 
L 819.237249 85.667348 
L 822.312547 87.493765 
L 825.387845 87.456313 
L 828.463144 89.46192 
L 831.538442 88.818275 
L 834.61374 91.010581 
L 837.689039 91.650909 
L 840.764337 91.281717 
L 843.839635 85.313675 
L 846.914934 86.412681 
L 849.990232 87.371888 
L 853.06553 88.007389 
L 856.140829 89.507686 
L 859.216127 92.43812 
L 862.291425 88.196648 
L 865.366724 90.313537 
L 868.442022 87.675295 
L 871.51732 93.148695 
L 874.592619 91.687904 
L 877.667917 89.988344 
L 880.743216 82.40404 
L 883.818514 88.024079 
L 886.893812 89.225163 
L 889.969111 90.2654 
L 893.044409 91.67706 
L 899.195006 92.603191 
L 902.270304 90.608082 
L 905.345602 90.861023 
L 908.420901 93.033231 
L 911.496199 91.902643 
L 914.571497 97.750051 
L 917.646796 94.672053 
L 920.722094 96.104548 
L 923.797392 99.073129 
L 926.872691 87.05073 
L 929.947989 94.772242 
L 933.023287 103.700501 
L 936.098586 106.468558 
L 939.173884 105.262018 
L 942.249183 102.755845 
L 945.324481 96.111449 
L 948.399779 106.459109 
L 951.475078 105.852112 
L 954.550376 104.599519 
L 957.625674 109.390653 
L 960.700973 110.162228 
L 963.776271 112.004476 
L 966.851569 114.531569 
L 969.926868 116.031532 
L 973.002166 116.794725 
L 976.077464 118.413737 
L 979.152763 120.194985 
L 982.228061 121.085542 
L 985.303359 122.611155 
L 988.378658 122.517214 
L 988.378658 122.517214 
" clip-path="url(#p6a3b291468)" style="fill: none; stroke: #ff7f0e; stroke-width: 1.5; stroke-linecap: square"/>
   </g>
   <g id="line2d_14">
    <path d="M 548.610994 193.516875 
L 548.610994 29.059375 
" clip-path="url(#p6a3b291468)" style="fill: none; stroke-dasharray: 7.4,3.2; stroke-dashoffset: 0; stroke: #0000ff; stroke-width: 2"/>
   </g>
   <g id="patch_3">
    <path d="M 61.6375 193.516875 
L 61.6375 29.059375 
" style="fill: none; stroke: #000000; stroke-width: 0.8; stroke-linejoin: miter; stroke-linecap: square"/>
   </g>
   <g id="patch_4">
    <path d="M 1032.509189 193.516875 
L 1032.509189 29.059375 
" style="fill: none; stroke: #000000; stroke-width: 0.8; stroke-linejoin: miter; stroke-linecap: square"/>
   </g>
   <g id="patch_5">
    <path d="M 61.6375 193.516875 
L 1032.509189 193.516875 
" style="fill: none; stroke: #000000; stroke-width: 0.8; stroke-linejoin: miter; stroke-linecap: square"/>
   </g>
   <g id="patch_6">
    <path d="M 61.6375 29.059375 
L 1032.509189 29.059375 
" style="fill: none; stroke: #000000; stroke-width: 0.8; stroke-linejoin: miter; stroke-linecap: square"/>
   </g>
   <g id="text_13">
    <!-- 云函数ID: 28 -->
    <g transform="translate(487.073345 23.059375) scale(0.2 -0.2)">
     <defs>
      <path id="SimSun-4e91" d="M 1200 4450 
L 4500 4450 
L 4850 4800 
L 5350 4300 
L 1975 4300 
Q 1700 4300 1425 4225 
L 1200 4450 
z
M 1600 275 
Q 2300 300 4725 450 
Q 4425 975 3850 1700 
L 3925 1775 
Q 5200 725 5287 500 
Q 5375 275 5375 175 
Q 5375 0 5250 -162 
Q 5125 -325 5075 -325 
Q 5025 -325 4975 -200 
Q 4875 50 4775 300 
Q 1650 -25 1300 -300 
L 975 300 
Q 1225 350 1462 550 
Q 1700 750 2150 1462 
Q 2600 2175 2725 2600 
L 1250 2600 
Q 925 2600 650 2525 
L 425 2750 
L 5025 2750 
L 5450 3175 
L 6025 2600 
L 3250 2600 
Q 3000 2025 2500 1375 
Q 2000 725 1600 275 
z
" transform="scale(0.015625)"/>
      <path id="SimSun-51fd" d="M 3050 2275 
L 3050 3000 
Q 3050 3450 3025 3800 
L 3275 3625 
L 4450 4475 
L 1650 4475 
Q 1325 4475 1050 4400 
L 825 4625 
L 4450 4625 
L 4775 4875 
L 5150 4375 
Q 4875 4325 4550 4175 
Q 4225 4025 3400 3550 
L 3550 3450 
L 3375 3325 
L 3375 2400 
Q 4250 3225 4475 3600 
L 4875 3150 
L 4625 3125 
Q 3625 2425 3400 2275 
Q 4575 1675 4687 1487 
Q 4800 1300 4800 1150 
Q 4800 1025 4750 925 
Q 4700 825 4675 825 
Q 4575 825 4375 1150 
Q 4075 1600 3375 2150 
L 3375 725 
Q 3375 350 2875 150 
Q 2850 450 2200 650 
L 2200 750 
Q 2800 675 2925 700 
Q 3050 725 3050 850 
L 3050 2100 
Q 1850 1300 1625 1025 
L 1275 1400 
Q 1575 1475 2087 1725 
Q 2600 1975 3050 2275 
z
M 1700 3475 
L 1775 3550 
Q 2350 3200 2475 3025 
Q 2600 2850 2600 2775 
Q 2600 2650 2500 2525 
Q 2400 2400 2350 2400 
Q 2275 2400 2225 2575 
Q 2150 2875 1700 3475 
z
M 5150 0 
L 5150 2175 
Q 5150 2725 5125 3325 
L 5725 3050 
L 5500 2850 
L 5500 525 
Q 5500 100 5525 -400 
L 5150 -600 
L 5150 -150 
L 1250 -150 
L 1000 -375 
L 675 -50 
L 875 125 
L 875 2375 
Q 875 2800 850 3425 
L 1450 3150 
L 1225 2975 
L 1225 0 
L 5150 0 
z
" transform="scale(0.015625)"/>
      <path id="SimSun-6570" d="M 1875 1525 
Q 1675 1200 1500 900 
Q 1825 825 2275 725 
Q 2500 975 2725 1525 
L 1875 1525 
z
M 850 4900 
Q 1325 4600 1425 4450 
Q 1525 4300 1525 4225 
Q 1525 4100 1437 3975 
Q 1350 3850 1300 3850 
Q 1225 3850 1150 4100 
Q 1050 4450 775 4850 
L 850 4900 
z
M 3000 4975 
L 3450 4675 
Q 3250 4625 3100 4425 
Q 2925 4225 2525 3825 
L 2450 3875 
Q 2925 4625 3000 4975 
z
M 1875 5250 
L 2425 5000 
L 2225 4825 
L 2225 3675 
L 2850 3675 
L 3125 3950 
L 3550 3525 
L 2225 3525 
L 2225 3300 
Q 2800 3175 2937 3062 
Q 3075 2950 3075 2775 
Q 3075 2700 3050 2587 
Q 3025 2475 2975 2475 
Q 2925 2475 2800 2650 
Q 2600 2925 2225 3175 
L 2225 2400 
L 1925 2200 
L 2275 2050 
Q 2150 2000 1950 1675 
L 2725 1675 
L 2900 1900 
L 3275 1575 
L 3050 1450 
Q 2800 875 2600 650 
Q 3000 550 3137 437 
Q 3275 325 3275 150 
Q 3275 -25 3200 -25 
Q 3125 -25 3025 75 
Q 2750 275 2400 425 
Q 1525 -275 325 -500 
L 300 -425 
Q 1450 -50 2100 550 
Q 1600 725 1125 800 
Q 1225 950 1525 1525 
L 1200 1525 
Q 875 1525 600 1450 
L 375 1675 
L 1575 1675 
Q 1675 1925 1775 2275 
L 1900 2225 
L 1900 3250 
Q 1225 2475 350 2050 
L 300 2125 
Q 1225 2775 1700 3525 
L 1250 3525 
Q 925 3525 650 3450 
L 425 3675 
L 1900 3675 
Q 1900 4575 1875 5250 
z
M 3925 3525 
Q 4050 2075 4525 1100 
Q 4925 1950 5025 3525 
L 3925 3525 
z
M 4050 5250 
L 4625 4925 
Q 4425 4850 4325 4625 
Q 4225 4400 3950 3675 
L 5375 3675 
L 5675 3975 
L 6125 3525 
L 5400 3525 
Q 5250 1675 4750 775 
Q 5325 75 6100 -100 
L 6100 -200 
Q 5625 -275 5600 -500 
Q 4950 -50 4525 525 
Q 3700 -275 2550 -650 
L 2500 -575 
Q 3650 -50 4325 800 
Q 3850 1975 3825 3375 
Q 3575 2725 3100 2150 
L 3025 2200 
Q 3625 3200 4050 5250 
z
" transform="scale(0.015625)"/>
      <path id="SimSun-49" d="M 600 4225 
L 600 4375 
L 2600 4375 
L 2600 4225 
L 2025 4225 
Q 1925 4225 1862 4175 
Q 1800 4125 1800 4025 
L 1800 450 
Q 1800 350 1862 300 
Q 1925 250 2025 250 
L 2600 250 
L 2600 100 
L 600 100 
L 600 250 
L 1175 250 
Q 1300 250 1350 300 
Q 1400 350 1400 450 
L 1400 4025 
Q 1400 4125 1350 4175 
Q 1300 4225 1175 4225 
L 600 4225 
z
" transform="scale(0.015625)"/>
      <path id="SimSun-44" d="M 2500 2275 
Q 2500 3350 2175 3787 
Q 1850 4225 1275 4225 
Q 1100 4225 1012 4175 
Q 925 4125 925 4025 
L 925 450 
Q 925 350 1000 300 
Q 1075 250 1200 250 
Q 1750 250 2125 662 
Q 2500 1075 2500 2275 
z
M 525 4025 
Q 525 4125 475 4175 
Q 425 4225 300 4225 
L 150 4225 
L 150 4375 
L 1275 4375 
Q 2050 4375 2512 3875 
Q 2975 3375 2975 2325 
Q 2975 1175 2525 637 
Q 2075 100 1200 100 
L 125 100 
L 125 250 
L 300 250 
Q 425 250 475 300 
Q 525 350 525 450 
L 525 4025 
z
" transform="scale(0.015625)"/>
      <path id="SimSun-3a" d="M 1900 2725 
Q 1900 2575 1800 2475 
Q 1700 2375 1550 2375 
Q 1400 2375 1300 2475 
Q 1200 2575 1200 2725 
Q 1200 2875 1300 2975 
Q 1400 3075 1550 3075 
Q 1700 3075 1800 2975 
Q 1900 2875 1900 2725 
z
M 1900 375 
Q 1900 225 1800 125 
Q 1700 25 1550 25 
Q 1400 25 1300 125 
Q 1200 225 1200 375 
Q 1200 525 1300 625 
Q 1400 725 1550 725 
Q 1700 725 1800 625 
Q 1900 525 1900 375 
z
" transform="scale(0.015625)"/>
      <path id="SimSun-20" d="M 0 0 
Q 0 0 0 0 
z
" transform="scale(0.015625)"/>
      <path id="SimSun-32" d="M 2325 3325 
Q 2325 3775 2125 4012 
Q 1925 4250 1525 4250 
Q 1225 4250 1012 4087 
Q 800 3925 800 3675 
Q 800 3525 900 3425 
Q 975 3325 975 3225 
Q 975 3100 912 3037 
Q 850 2975 725 2975 
Q 575 2975 487 3062 
Q 400 3150 400 3350 
Q 400 3875 775 4150 
Q 1150 4425 1575 4425 
Q 2175 4425 2462 4125 
Q 2750 3825 2750 3375 
Q 2750 3075 2612 2775 
Q 2475 2475 2175 2200 
Q 1450 1500 1062 1062 
Q 675 625 600 475 
L 2075 475 
Q 2300 475 2450 650 
Q 2600 825 2650 1175 
L 2800 1175 
L 2650 100 
L 325 100 
L 325 425 
Q 450 650 737 1000 
Q 1025 1350 1500 1825 
Q 1925 2250 2125 2625 
Q 2325 3000 2325 3325 
z
" transform="scale(0.015625)"/>
      <path id="SimSun-38" d="M 625 1125 
Q 625 725 887 475 
Q 1150 225 1550 225 
Q 2025 225 2237 475 
Q 2450 725 2450 1100 
Q 2450 1425 2150 1725 
Q 1850 2025 1250 2275 
Q 950 2075 787 1775 
Q 625 1475 625 1125 
z
M 2825 1175 
Q 2825 700 2475 375 
Q 2125 50 1550 50 
Q 1025 50 650 375 
Q 275 700 275 1125 
Q 275 1550 487 1850 
Q 700 2150 1100 2375 
Q 750 2550 562 2812 
Q 375 3075 375 3400 
Q 375 3825 700 4125 
Q 1025 4425 1600 4425 
Q 2125 4425 2450 4125 
Q 2775 3825 2775 3400 
Q 2775 3100 2587 2837 
Q 2400 2575 2000 2375 
Q 2425 2125 2625 1825 
Q 2825 1525 2825 1175 
z
M 2425 3375 
Q 2425 3725 2225 3987 
Q 2025 4250 1600 4250 
Q 1125 4250 925 4000 
Q 725 3750 725 3475 
Q 725 3200 1012 2937 
Q 1300 2675 1825 2475 
Q 2125 2625 2275 2850 
Q 2425 3075 2425 3375 
z
" transform="scale(0.015625)"/>
     </defs>
     <use xlink:href="#SimSun-4e91"/>
     <use xlink:href="#SimSun-51fd" x="100"/>
     <use xlink:href="#SimSun-6570" x="200"/>
     <use xlink:href="#SimSun-49" x="300"/>
     <use xlink:href="#SimSun-44" x="350"/>
     <use xlink:href="#SimSun-3a" x="400"/>
     <use xlink:href="#SimSun-20" x="450"/>
     <use xlink:href="#SimSun-32" x="500"/>
     <use xlink:href="#SimSun-38" x="550"/>
    </g>
   </g>
   <g id="legend_1">
    <g id="patch_7">
     <path d="M 75.6375 101.934375 
L 199.6375 101.934375 
Q 203.6375 101.934375 203.6375 97.934375 
L 203.6375 43.059375 
Q 203.6375 39.059375 199.6375 39.059375 
L 75.6375 39.059375 
Q 71.6375 39.059375 71.6375 43.059375 
L 71.6375 97.934375 
Q 71.6375 101.934375 75.6375 101.934375 
z
" style="fill: #ffffff; opacity: 0.8; stroke: #cccccc; stroke-linejoin: miter"/>
    </g>
    <g id="line2d_15">
     <path d="M 79.6375 55.996875 
L 99.6375 55.996875 
L 119.6375 55.996875 
" style="fill: none; stroke: #1f77b4; stroke-width: 1.5; stroke-linecap: square"/>
    </g>
    <g id="text_14">
     <!-- 真实值 -->
     <g transform="translate(135.6375 62.996875) scale(0.2 -0.2)">
      <defs>
       <path id="SimSun-771f" d="M 2050 3450 
L 2050 2900 
L 4300 2900 
L 4300 3450 
L 2050 3450 
z
M 2050 2750 
L 2050 2225 
L 4300 2225 
L 4300 2750 
L 2050 2750 
z
M 2050 2075 
L 2050 1550 
L 4300 1550 
L 4300 2075 
L 2050 2075 
z
M 2050 1400 
L 2050 875 
L 4300 875 
L 4300 1400 
L 2050 1400 
z
M 2875 3600 
L 2925 4325 
L 1525 4325 
Q 1200 4325 925 4250 
L 700 4475 
L 2950 4475 
Q 2975 4825 2975 5275 
L 3550 5025 
L 3375 4925 
L 3300 4475 
L 5000 4475 
L 5325 4825 
L 5775 4325 
L 3275 4325 
L 3200 3600 
L 4275 3600 
L 4450 3875 
L 4850 3575 
L 4650 3375 
L 4650 875 
L 5300 875 
L 5675 1225 
L 6125 725 
L 1150 725 
Q 825 725 550 650 
L 325 875 
L 1700 875 
Q 1700 3200 1675 3775 
L 2050 3600 
L 2875 3600 
z
M 2425 725 
L 2825 350 
L 2575 300 
Q 1500 -425 800 -650 
L 775 -575 
Q 1950 125 2425 725 
z
M 3800 700 
Q 4575 375 4962 200 
Q 5350 25 5400 -112 
Q 5450 -250 5450 -325 
Q 5450 -400 5400 -525 
Q 5350 -650 5325 -650 
Q 5250 -650 5100 -450 
Q 4875 -150 3750 625 
L 3800 700 
z
" transform="scale(0.015625)"/>
       <path id="SimSun-5b9e" d="M 1950 3625 
Q 2575 3400 2700 3250 
Q 2825 3100 2825 2975 
Q 2825 2850 2750 2700 
Q 2675 2550 2625 2550 
Q 2550 2550 2450 2800 
Q 2275 3175 1900 3550 
L 1950 3625 
z
M 3575 1325 
Q 3500 1100 3425 925 
Q 4650 550 5087 325 
Q 5525 100 5512 -225 
Q 5500 -550 5400 -550 
Q 5300 -550 5075 -300 
Q 4625 175 3375 800 
Q 3025 175 2300 -150 
Q 1575 -475 425 -625 
L 425 -525 
Q 1475 -325 2200 100 
Q 2925 525 3200 1325 
L 1225 1325 
Q 900 1325 625 1250 
L 400 1475 
L 3225 1475 
Q 3325 1950 3375 2575 
Q 3425 3200 3425 3700 
L 4050 3400 
L 3850 3225 
Q 3750 2300 3625 1475 
L 5175 1475 
L 5550 1850 
L 6075 1325 
L 3575 1325 
z
M 1275 2700 
Q 1975 2425 2100 2262 
Q 2225 2100 2225 1975 
Q 2225 1850 2150 1700 
Q 2075 1550 2025 1550 
Q 1950 1550 1850 1800 
Q 1675 2175 1225 2625 
L 1275 2700 
z
M 2750 5225 
L 2825 5275 
Q 3225 5100 3425 4925 
Q 3625 4750 3625 4600 
Q 3625 4450 3512 4300 
Q 3400 4150 3325 4150 
Q 3250 4150 3200 4400 
Q 3100 4775 2750 5225 
z
M 4975 3225 
L 5350 3925 
L 1175 3925 
Q 1225 3525 1125 3300 
Q 1025 3075 787 3100 
Q 550 3125 550 3200 
Q 550 3300 700 3475 
Q 975 3825 1050 4375 
L 1150 4375 
L 1175 4075 
L 5300 4075 
L 5575 4350 
L 6050 3800 
Q 5625 3825 5050 3175 
L 4975 3225 
z
" transform="scale(0.015625)"/>
       <path id="SimSun-503c" d="M 1525 650 
Q 1525 -225 1550 -525 
L 1175 -650 
Q 1200 250 1200 550 
L 1200 3025 
Q 750 2300 325 1850 
L 250 1900 
Q 725 2625 1100 3525 
Q 1475 4425 1675 5200 
L 2200 4875 
L 1950 4725 
Q 1550 3800 1425 3475 
L 1725 3300 
L 1525 3150 
L 1525 650 
z
M 2875 3225 
L 2875 2475 
L 4800 2475 
L 4800 3225 
L 2875 3225 
z
M 2875 2325 
L 2875 1575 
L 4800 1575 
L 4800 2325 
L 2875 2325 
z
M 2875 1425 
L 2875 675 
L 4800 675 
L 4800 1425 
L 2875 1425 
z
M 2875 525 
L 2875 -225 
L 4800 -225 
L 4800 525 
L 2875 525 
z
M 3550 4250 
Q 3575 4825 3550 5225 
L 4125 4950 
L 3925 4800 
L 3900 4250 
L 5025 4250 
L 5350 4575 
L 5825 4100 
L 3900 4100 
L 3875 3375 
L 4750 3375 
L 4975 3625 
L 5350 3300 
L 5125 3150 
L 5125 -225 
L 5350 -225 
L 5675 100 
L 6150 -375 
L 2450 -375 
Q 2125 -375 1850 -450 
L 1625 -225 
L 2550 -225 
L 2550 2550 
Q 2550 2850 2525 3575 
L 2875 3375 
L 3525 3375 
L 3550 4100 
L 2800 4100 
Q 2475 4100 2200 4025 
L 1975 4250 
L 3550 4250 
z
" transform="scale(0.015625)"/>
      </defs>
      <use xlink:href="#SimSun-771f"/>
      <use xlink:href="#SimSun-5b9e" x="100"/>
      <use xlink:href="#SimSun-503c" x="200"/>
     </g>
    </g>
    <g id="line2d_16">
     <path d="M 79.6375 84.35625 
L 99.6375 84.35625 
L 119.6375 84.35625 
" style="fill: none; stroke: #ff7f0e; stroke-width: 1.5; stroke-linecap: square"/>
    </g>
    <g id="text_15">
     <!-- 预测值 -->
     <g transform="translate(135.6375 91.35625) scale(0.2 -0.2)">
      <defs>
       <path id="SimSun-9884" d="M 475 4825 
L 2225 4825 
L 2425 5075 
L 2825 4675 
Q 2600 4625 2387 4412 
Q 2175 4200 1800 3750 
Q 2050 3575 2037 3400 
Q 2025 3225 1937 3150 
Q 1850 3075 1825 3075 
Q 1725 3075 1650 3300 
Q 1525 3600 1050 4100 
L 1100 4150 
Q 1475 3975 1700 3825 
L 2225 4675 
L 1300 4675 
Q 975 4675 700 4600 
L 475 4825 
z
M 725 100 
Q 1175 50 1362 37 
Q 1550 25 1550 275 
L 1550 2875 
L 1125 2875 
Q 800 2875 525 2800 
L 300 3025 
L 2525 3025 
L 2725 3275 
L 3150 2875 
Q 2800 2825 2275 2075 
L 2200 2125 
L 2550 2875 
L 1875 2875 
L 1875 150 
Q 1875 -400 1350 -500 
Q 1325 -175 725 0 
L 725 100 
z
M 3250 775 
Q 3275 1425 3275 2287 
Q 3275 3150 3250 3900 
L 3600 3700 
L 4050 3700 
Q 4175 4400 4200 4675 
L 3650 4675 
Q 3325 4675 3050 4600 
L 2825 4825 
L 5325 4825 
L 5675 5150 
L 6125 4675 
L 4675 4675 
Q 4500 4425 4175 3700 
L 5300 3700 
L 5475 3975 
L 5875 3675 
L 5675 3475 
L 5675 1950 
Q 5675 1525 5700 1075 
L 5350 875 
L 5350 3550 
L 3600 3550 
L 3600 1000 
L 3250 775 
z
M 4850 2875 
L 4625 2675 
Q 4625 1475 4475 937 
Q 4325 400 3900 50 
Q 3475 -300 2425 -625 
L 2400 -550 
Q 3500 -50 3837 400 
Q 4175 850 4237 1587 
Q 4300 2325 4275 3175 
L 4850 2875 
z
M 4650 950 
Q 5725 375 5875 212 
Q 6025 50 6025 -125 
Q 6025 -225 5962 -387 
Q 5900 -550 5850 -550 
Q 5800 -550 5750 -450 
Q 5625 -250 5437 0 
Q 5250 250 4600 875 
L 4650 950 
z
" transform="scale(0.015625)"/>
       <path id="SimSun-6d4b" d="M 1975 1000 
Q 2000 1475 2000 2925 
Q 2000 4375 1975 5000 
L 2350 4775 
L 3575 4775 
L 3775 4975 
L 4100 4650 
L 3900 4500 
L 3900 2350 
Q 3900 1850 3925 1350 
L 3600 1200 
L 3600 4625 
L 2325 4625 
L 2325 1150 
L 1975 1000 
z
M 2775 3975 
L 3300 3700 
L 3125 3525 
Q 3150 1825 2875 937 
Q 2600 50 1375 -600 
L 1325 -500 
Q 2200 100 2475 725 
Q 2750 1350 2775 2187 
Q 2800 3025 2775 3975 
z
M 3100 950 
Q 3825 450 3937 262 
Q 4050 75 4050 -25 
Q 4050 -150 3975 -262 
Q 3900 -375 3850 -375 
Q 3750 -375 3650 -75 
Q 3500 375 3050 875 
L 3100 950 
z
M 4475 825 
Q 4500 1200 4500 1700 
L 4500 3400 
Q 4500 3950 4475 4300 
L 5025 4025 
L 4825 3825 
L 4825 1700 
Q 4825 1325 4850 950 
L 4475 825 
z
M 5375 150 
L 5375 4050 
Q 5375 4750 5350 5125 
L 5875 4875 
L 5700 4700 
L 5700 75 
Q 5700 -200 5600 -350 
Q 5500 -500 5200 -600 
Q 5025 -225 4450 -50 
L 4450 50 
Q 5125 -50 5250 -37 
Q 5375 -25 5375 150 
z
M 1850 3500 
Q 1375 1525 1300 1225 
Q 1200 900 1212 450 
Q 1225 0 1250 -175 
Q 1250 -275 1125 -275 
Q 1025 -275 875 -225 
Q 725 -175 725 0 
Q 725 125 800 375 
Q 875 625 875 775 
Q 875 950 762 1050 
Q 650 1150 275 1250 
L 275 1350 
Q 725 1300 837 1312 
Q 950 1325 1087 1537 
Q 1225 1750 1750 3525 
L 1850 3500 
z
M 375 3775 
Q 1075 3350 1112 3100 
Q 1150 2850 1050 2775 
Q 950 2700 900 2700 
Q 800 2700 725 2975 
Q 600 3350 325 3700 
L 375 3775 
z
M 800 5100 
Q 1475 4725 1550 4512 
Q 1625 4300 1525 4187 
Q 1425 4075 1350 4075 
Q 1275 4075 1200 4300 
Q 1075 4650 750 5025 
L 800 5100 
z
" transform="scale(0.015625)"/>
      </defs>
      <use xlink:href="#SimSun-9884"/>
      <use xlink:href="#SimSun-6d4b" x="100"/>
      <use xlink:href="#SimSun-503c" x="200"/>
     </g>
    </g>
   </g>
  </g>
  <g id="axes_2">
   <g id="patch_8">
    <path d="M 61.6375 426.316875 
L 1032.509189 426.316875 
L 1032.509189 261.859375 
L 61.6375 261.859375 
z
" style="fill: #ffffff"/>
   </g>
   <g id="matplotlib.axis_3">
    <g id="xtick_8">
     <g id="line2d_17">
      <g>
       <use xlink:href="#m3e2e6a0767" x="105.768031" y="426.316875" style="stroke: #000000; stroke-width: 0.8"/>
      </g>
     </g>
     <g id="text_16">
      <!-- 0 -->
      <g transform="translate(100.768031 447.204375) scale(0.2 -0.2)">
       <use xlink:href="#TimesNewRomanPSMT-30"/>
      </g>
     </g>
    </g>
    <g id="xtick_9">
     <g id="line2d_18">
      <g>
       <use xlink:href="#m3e2e6a0767" x="259.532949" y="426.316875" style="stroke: #000000; stroke-width: 0.8"/>
      </g>
     </g>
     <g id="text_17">
      <!-- 50 -->
      <g transform="translate(249.532949 447.204375) scale(0.2 -0.2)">
       <use xlink:href="#TimesNewRomanPSMT-35"/>
       <use xlink:href="#TimesNewRomanPSMT-30" x="50"/>
      </g>
     </g>
    </g>
    <g id="xtick_10">
     <g id="line2d_19">
      <g>
       <use xlink:href="#m3e2e6a0767" x="413.297866" y="426.316875" style="stroke: #000000; stroke-width: 0.8"/>
      </g>
     </g>
     <g id="text_18">
      <!-- 100 -->
      <g transform="translate(398.297866 447.204375) scale(0.2 -0.2)">
       <use xlink:href="#TimesNewRomanPSMT-31"/>
       <use xlink:href="#TimesNewRomanPSMT-30" x="50"/>
       <use xlink:href="#TimesNewRomanPSMT-30" x="100"/>
      </g>
     </g>
    </g>
    <g id="xtick_11">
     <g id="line2d_20">
      <g>
       <use xlink:href="#m3e2e6a0767" x="567.062784" y="426.316875" style="stroke: #000000; stroke-width: 0.8"/>
      </g>
     </g>
     <g id="text_19">
      <!-- 150 -->
      <g transform="translate(552.062784 447.204375) scale(0.2 -0.2)">
       <use xlink:href="#TimesNewRomanPSMT-31"/>
       <use xlink:href="#TimesNewRomanPSMT-35" x="50"/>
       <use xlink:href="#TimesNewRomanPSMT-30" x="100"/>
      </g>
     </g>
    </g>
    <g id="xtick_12">
     <g id="line2d_21">
      <g>
       <use xlink:href="#m3e2e6a0767" x="720.827701" y="426.316875" style="stroke: #000000; stroke-width: 0.8"/>
      </g>
     </g>
     <g id="text_20">
      <!-- 200 -->
      <g transform="translate(705.827701 447.204375) scale(0.2 -0.2)">
       <use xlink:href="#TimesNewRomanPSMT-32"/>
       <use xlink:href="#TimesNewRomanPSMT-30" x="50"/>
       <use xlink:href="#TimesNewRomanPSMT-30" x="100"/>
      </g>
     </g>
    </g>
    <g id="xtick_13">
     <g id="line2d_22">
      <g>
       <use xlink:href="#m3e2e6a0767" x="874.592619" y="426.316875" style="stroke: #000000; stroke-width: 0.8"/>
      </g>
     </g>
     <g id="text_21">
      <!-- 250 -->
      <g transform="translate(859.592619 447.204375) scale(0.2 -0.2)">
       <use xlink:href="#TimesNewRomanPSMT-32"/>
       <use xlink:href="#TimesNewRomanPSMT-35" x="50"/>
       <use xlink:href="#TimesNewRomanPSMT-30" x="100"/>
      </g>
     </g>
    </g>
    <g id="xtick_14">
     <g id="line2d_23">
      <g>
       <use xlink:href="#m3e2e6a0767" x="1028.357536" y="426.316875" style="stroke: #000000; stroke-width: 0.8"/>
      </g>
     </g>
     <g id="text_22">
      <!-- 300 -->
      <g transform="translate(1013.357536 447.204375) scale(0.2 -0.2)">
       <use xlink:href="#TimesNewRomanPSMT-33"/>
       <use xlink:href="#TimesNewRomanPSMT-30" x="50"/>
       <use xlink:href="#TimesNewRomanPSMT-30" x="100"/>
      </g>
     </g>
    </g>
   </g>
   <g id="matplotlib.axis_4">
    <g id="ytick_5">
     <g id="line2d_24">
      <g>
       <use xlink:href="#m0e05ab74f7" x="61.6375" y="422.220439" style="stroke: #000000; stroke-width: 0.8"/>
      </g>
     </g>
     <g id="text_23">
      <!-- 0.0 -->
      <g transform="translate(29.6375 429.164189) scale(0.2 -0.2)">
       <use xlink:href="#TimesNewRomanPSMT-30"/>
       <use xlink:href="#TimesNewRomanPSMT-2e" x="50"/>
       <use xlink:href="#TimesNewRomanPSMT-30" x="75"/>
      </g>
     </g>
    </g>
    <g id="ytick_6">
     <g id="line2d_25">
      <g>
       <use xlink:href="#m0e05ab74f7" x="61.6375" y="366.893723" style="stroke: #000000; stroke-width: 0.8"/>
      </g>
     </g>
     <g id="text_24">
      <!-- 0.5 -->
      <g transform="translate(29.6375 373.837473) scale(0.2 -0.2)">
       <use xlink:href="#TimesNewRomanPSMT-30"/>
       <use xlink:href="#TimesNewRomanPSMT-2e" x="50"/>
       <use xlink:href="#TimesNewRomanPSMT-35" x="75"/>
      </g>
     </g>
    </g>
    <g id="ytick_7">
     <g id="line2d_26">
      <g>
       <use xlink:href="#m0e05ab74f7" x="61.6375" y="311.567007" style="stroke: #000000; stroke-width: 0.8"/>
      </g>
     </g>
     <g id="text_25">
      <!-- 1.0 -->
      <g transform="translate(29.6375 318.510757) scale(0.2 -0.2)">
       <use xlink:href="#TimesNewRomanPSMT-31"/>
       <use xlink:href="#TimesNewRomanPSMT-2e" x="50"/>
       <use xlink:href="#TimesNewRomanPSMT-30" x="75"/>
      </g>
     </g>
    </g>
    <g id="text_26">
     <!-- CPU使用率 -->
     <g transform="translate(23.059375 389.088125) rotate(-90) scale(0.2 -0.2)">
      <use xlink:href="#SimSun-43"/>
      <use xlink:href="#SimSun-50" x="50"/>
      <use xlink:href="#SimSun-55" x="100"/>
      <use xlink:href="#SimSun-4f7f" x="150"/>
      <use xlink:href="#SimSun-7528" x="250"/>
      <use xlink:href="#SimSun-7387" x="350"/>
     </g>
    </g>
   </g>
   <g id="line2d_27">
    <path d="M 105.768031 306.432693 
L 108.84333 307.494957 
L 111.918628 301.652463 
L 114.993926 302.183595 
L 118.069225 296.3411 
L 121.144523 304.308137 
L 124.219821 296.872233 
L 127.29512 304.308137 
L 130.370418 305.901547 
L 133.445716 301.652463 
L 136.521015 302.183595 
L 139.596313 301.652463 
L 142.671612 293.15428 
L 145.74691 285.18723 
L 148.822208 296.872233 
L 151.897507 298.465643 
L 154.972805 296.872233 
L 158.048103 301.652463 
L 161.123402 298.996775 
L 164.1987 301.652463 
L 167.273998 303.777005 
L 170.349297 303.245873 
L 173.424595 301.121317 
L 176.499893 302.714727 
L 179.575192 301.652463 
L 182.65049 299.527907 
L 185.725788 301.652463 
L 188.801087 294.74769 
L 191.876385 298.465643 
L 194.951683 297.93451 
L 198.026982 297.93451 
L 201.10228 294.74769 
L 204.177579 292.092003 
L 207.252877 283.062688 
L 210.328175 284.124953 
L 213.403474 288.37405 
L 216.478772 284.124953 
L 219.55407 290.498593 
L 222.629369 292.092003 
L 225.704667 287.842905 
L 228.779965 291.56087 
L 231.855264 289.436315 
L 234.930562 288.905183 
L 238.00586 291.029725 
L 241.081159 294.216545 
L 244.156457 291.029725 
L 247.231755 291.56087 
L 250.307054 285.718363 
L 253.382352 292.092003 
L 256.45765 296.872233 
L 259.532949 287.311773 
L 262.608247 287.311773 
L 268.758844 286.249495 
L 271.834142 286.78064 
L 274.909441 289.96746 
L 277.984739 290.498593 
L 281.060037 288.37405 
L 284.135336 288.37405 
L 287.210634 289.96746 
L 290.285932 291.029725 
L 293.361231 291.56087 
L 296.436529 288.37405 
L 299.511827 280.938132 
L 302.587126 284.124953 
L 305.662424 282.531543 
L 308.737722 283.59382 
L 311.813021 285.718363 
L 314.888319 285.718363 
L 317.963617 292.092003 
L 321.038916 288.37405 
L 324.114214 287.311773 
L 327.189513 288.37405 
L 330.264811 291.029725 
L 333.340109 288.37405 
L 336.415408 288.37405 
L 339.490706 296.872233 
L 342.566004 296.3411 
L 345.641303 302.714727 
L 348.716601 302.183595 
L 351.791899 292.092003 
L 354.867198 271.908818 
L 357.942496 305.901547 
L 361.017794 301.121317 
L 364.093093 310.150645 
L 367.168391 307.494957 
L 370.243689 314.930869 
L 373.318988 298.465643 
L 376.394286 326.084739 
L 379.469584 327.678149 
L 382.544883 332.458372 
L 385.620181 336.70747 
L 388.69548 334.582921 
L 391.770778 326.084739 
L 394.846076 340.956561 
L 397.921375 345.736785 
L 400.996673 342.549971 
L 404.071971 347.861333 
L 407.14727 342.018832 
L 410.222568 333.52065 
L 413.297866 354.766106 
L 416.373165 357.421787 
L 419.448463 359.546336 
L 422.523761 357.952926 
L 425.59906 364.857698 
L 428.674358 363.264288 
L 431.749656 369.637928 
L 434.824955 371.231338 
L 437.900253 374.418158 
L 440.975551 376.011568 
L 444.05085 373.887019 
L 447.126148 403.09952 
L 450.201447 378.136111 
L 453.276745 380.791798 
L 456.352043 382.385202 
L 459.427342 385.04089 
L 462.50264 386.103161 
L 465.577938 386.6343 
L 468.653237 389.289981 
L 471.728535 390.352252 
L 474.803833 391.945662 
L 477.879132 394.070204 
L 484.029728 394.070204 
L 487.105027 396.725887 
L 493.255623 398.850429 
L 496.330922 399.381568 
L 499.40622 400.443846 
L 502.481518 399.9127 
L 505.556817 401.50611 
L 508.632115 402.568388 
L 511.707414 402.568388 
L 517.85801 403.630666 
L 520.933309 403.630666 
L 527.083905 405.755208 
L 530.159204 405.755208 
L 536.3098 406.817473 
L 539.385099 405.755208 
L 542.460397 406.817473 
L 545.535695 406.817473 
L 548.610994 407.879751 
L 551.686292 407.348618 
L 554.76159 408.942028 
L 557.836889 407.879751 
L 560.912187 407.879751 
L 563.987485 408.942028 
L 567.062784 408.942028 
L 570.138082 409.473161 
L 573.213381 408.942028 
L 579.363977 408.942028 
L 582.439276 409.473161 
L 585.514574 408.942028 
L 588.589872 409.473161 
L 591.665171 409.473161 
L 594.740469 408.942028 
L 597.815767 410.535438 
L 600.891066 409.473161 
L 603.966364 409.473161 
L 607.041662 408.942028 
L 622.418154 408.942028 
L 625.493452 408.410883 
L 628.568751 407.348618 
L 631.644049 404.69293 
L 637.794646 405.755208 
L 643.945243 403.630666 
L 647.020541 403.630666 
L 650.095839 400.974978 
L 653.171138 401.50611 
L 656.246436 401.50611 
L 659.321734 400.443846 
L 662.397033 398.319297 
L 665.472331 397.257019 
L 668.547629 381.854069 
L 671.622928 391.414523 
L 674.698226 387.165432 
L 677.773524 387.165432 
L 680.848823 383.44748 
L 683.924121 381.322931 
L 686.999419 370.169067 
L 690.074718 378.136111 
L 693.150016 372.293609 
L 696.225315 372.293609 
L 699.300613 366.982247 
L 702.375911 362.733156 
L 705.45121 320.77337 
L 708.526508 351.579286 
L 711.601806 339.894283 
L 714.677105 346.267923 
L 717.752403 340.425422 
L 720.827701 339.894283 
L 723.903 314.930869 
L 726.978298 339.363151 
L 730.053596 335.645192 
L 733.128895 337.238602 
L 736.204193 332.458372 
L 739.279491 329.271559 
L 742.35479 310.150645 
L 745.430088 319.17996 
L 748.505386 318.648827 
L 751.580685 322.897919 
L 754.655983 320.77337 
L 757.731282 321.304509 
L 760.80658 313.868597 
L 763.881878 326.084739 
L 766.957177 325.5536 
L 770.032475 325.5536 
L 773.107773 320.77337 
L 776.183072 317.586556 
L 779.25837 306.963825 
L 782.333668 301.121317 
L 785.408967 303.245873 
L 788.484265 302.183595 
L 791.559563 298.996775 
L 794.634862 303.245873 
L 797.71016 300.590185 
L 800.785458 309.6195 
L 803.860757 309.6195 
L 810.011353 304.308137 
L 813.086652 303.777005 
L 816.16195 291.029725 
L 819.237249 289.96746 
L 822.312547 288.37405 
L 825.387845 291.029725 
L 828.463144 297.403365 
L 831.538442 298.465643 
L 834.61374 295.278823 
L 837.689039 294.216545 
L 840.764337 286.249495 
L 843.839635 289.96746 
L 846.914934 295.278823 
L 849.990232 294.74769 
L 853.06553 295.809955 
L 856.140829 275.095638 
L 859.216127 283.062688 
L 862.291425 296.872233 
L 865.366724 297.93451 
L 868.442022 291.029725 
L 871.51732 295.809955 
L 874.592619 299.527907 
L 877.667917 298.996775 
L 880.743216 297.93451 
L 883.818514 298.465643 
L 886.893812 300.059053 
L 889.969111 368.044518 
L 893.044409 274.03336 
L 896.119707 278.282458 
L 899.195006 288.905183 
L 902.270304 288.37405 
L 905.345602 291.029725 
L 908.420901 297.403365 
L 914.571497 301.652463 
L 917.646796 301.652463 
L 920.722094 305.370415 
L 923.797392 305.370415 
L 926.872691 298.996775 
L 929.947989 297.403365 
L 933.023287 300.059053 
L 936.098586 304.839283 
L 939.173884 310.681777 
L 942.249183 308.026103 
L 945.324481 308.557235 
L 948.399779 306.963825 
L 951.475078 310.150645 
L 954.550376 309.6195 
L 957.625674 308.557235 
L 960.700973 311.744049 
L 963.776271 297.93451 
L 966.851569 292.092003 
L 969.926868 303.245873 
L 973.002166 304.839283 
L 976.077464 304.839283 
L 979.152763 307.494957 
L 982.228061 303.245873 
L 985.303359 309.088367 
L 988.378658 306.432693 
L 988.378658 306.432693 
" clip-path="url(#p0f21655761)" style="fill: none; stroke: #1f77b4; stroke-width: 1.5; stroke-linecap: square"/>
   </g>
   <g id="line2d_28">
    <path d="M 548.610994 418.841534 
L 551.686292 416.666734 
L 554.76159 415.336668 
L 557.836889 412.076929 
L 560.912187 411.674091 
L 563.987485 411.814627 
L 567.062784 410.568257 
L 570.138082 411.098176 
L 573.213381 411.484287 
L 576.288679 410.24508 
L 579.363977 408.055533 
L 582.439276 410.491578 
L 585.514574 411.127737 
L 588.589872 414.204426 
L 591.665171 417.032822 
L 594.740469 394.972293 
L 597.815767 407.868077 
L 600.891066 401.24005 
L 603.966364 399.079219 
L 607.041662 399.644701 
L 610.116961 397.852543 
L 613.192259 411.345453 
L 616.267557 397.793157 
L 619.342856 410.730083 
L 622.418154 392.703111 
L 625.493452 393.317557 
L 628.568751 395.064379 
L 631.644049 383.064488 
L 634.719348 381.790984 
L 637.794646 382.417091 
L 640.869944 380.985922 
L 643.945243 381.283793 
L 647.020541 384.018026 
L 650.095839 384.276047 
L 653.171138 376.100574 
L 656.246436 378.526093 
L 659.321734 370.611774 
L 662.397033 368.975091 
L 665.472331 368.534376 
L 668.547629 356.791973 
L 671.622928 351.314781 
L 674.698226 350.996465 
L 677.773524 353.4181 
L 683.924121 354.660532 
L 686.999419 350.537678 
L 690.074718 345.396571 
L 693.150016 341.594118 
L 696.225315 340.45524 
L 699.300613 339.632391 
L 702.375911 339.473731 
L 705.45121 327.555434 
L 708.526508 328.358107 
L 711.601806 326.86946 
L 717.752403 326.046406 
L 720.827701 328.311181 
L 723.903 329.599623 
L 726.978298 324.933594 
L 730.053596 323.438496 
L 733.128895 318.368428 
L 736.204193 318.279759 
L 739.279491 319.502187 
L 742.35479 310.056079 
L 745.430088 312.642568 
L 748.505386 313.7584 
L 751.580685 316.334046 
L 754.655983 315.080889 
L 757.731282 313.311842 
L 760.80658 312.047723 
L 763.881878 309.633746 
L 766.957177 314.576237 
L 770.032475 294.106955 
L 776.183072 290.073357 
L 779.25837 285.217372 
L 782.333668 288.204455 
L 785.408967 292.866204 
L 788.484265 291.816866 
L 791.559563 291.255382 
L 794.634862 285.444427 
L 797.71016 289.341802 
L 800.785458 288.465477 
L 803.860757 292.383364 
L 806.936055 293.224298 
L 810.011353 291.991395 
L 813.086652 284.275039 
L 816.16195 281.957883 
L 819.237249 291.323777 
L 822.312547 292.401119 
L 825.387845 293.813127 
L 828.463144 292.408466 
L 831.538442 291.999495 
L 834.61374 290.063714 
L 837.689039 292.016801 
L 840.764337 288.681214 
L 843.839635 289.413547 
L 846.914934 288.260556 
L 849.990232 285.468817 
L 853.06553 283.251621 
L 856.140829 283.060406 
L 859.216127 282.371194 
L 862.291425 283.651412 
L 865.366724 282.05907 
L 868.442022 282.589741 
L 871.51732 280.316642 
L 874.592619 281.758502 
L 877.667917 282.533389 
L 880.743216 282.208814 
L 886.893812 280.360027 
L 889.969111 332.573476 
L 893.044409 269.334716 
L 896.119707 280.618635 
L 899.195006 283.775604 
L 902.270304 285.18231 
L 905.345602 286.10822 
L 908.420901 285.432832 
L 914.571497 285.004562 
L 917.646796 291.677676 
L 920.722094 289.841645 
L 923.797392 289.012161 
L 926.872691 286.907299 
L 929.947989 285.953174 
L 933.023287 291.064681 
L 936.098586 293.271891 
L 939.173884 282.932955 
L 942.249183 289.703972 
L 945.324481 295.279245 
L 948.399779 298.490705 
L 951.475078 298.966146 
L 954.550376 300.594274 
L 957.625674 298.436623 
L 960.700973 295.243616 
L 963.776271 291.005612 
L 966.851569 292.29815 
L 969.926868 295.965502 
L 973.002166 297.959323 
L 976.077464 297.199684 
L 979.152763 295.731034 
L 982.228061 295.800866 
L 985.303359 294.723063 
L 988.378658 294.686933 
L 988.378658 294.686933 
" clip-path="url(#p0f21655761)" style="fill: none; stroke: #ff7f0e; stroke-width: 1.5; stroke-linecap: square"/>
   </g>
   <g id="line2d_29">
    <path d="M 548.610994 426.316875 
L 548.610994 261.859375 
" clip-path="url(#p0f21655761)" style="fill: none; stroke-dasharray: 7.4,3.2; stroke-dashoffset: 0; stroke: #0000ff; stroke-width: 2"/>
   </g>
   <g id="patch_9">
    <path d="M 61.6375 426.316875 
L 61.6375 261.859375 
" style="fill: none; stroke: #000000; stroke-width: 0.8; stroke-linejoin: miter; stroke-linecap: square"/>
   </g>
   <g id="patch_10">
    <path d="M 1032.509189 426.316875 
L 1032.509189 261.859375 
" style="fill: none; stroke: #000000; stroke-width: 0.8; stroke-linejoin: miter; stroke-linecap: square"/>
   </g>
   <g id="patch_11">
    <path d="M 61.6375 426.316875 
L 1032.509189 426.316875 
" style="fill: none; stroke: #000000; stroke-width: 0.8; stroke-linejoin: miter; stroke-linecap: square"/>
   </g>
   <g id="patch_12">
    <path d="M 61.6375 261.859375 
L 1032.509189 261.859375 
" style="fill: none; stroke: #000000; stroke-width: 0.8; stroke-linejoin: miter; stroke-linecap: square"/>
   </g>
   <g id="text_27">
    <!-- 云函数ID: 72 -->
    <g transform="translate(487.073345 255.859375) scale(0.2 -0.2)">
     <defs>
      <path id="SimSun-37" d="M 2825 4200 
Q 2300 3350 1987 2537 
Q 1675 1725 1675 1125 
Q 1675 1025 1700 850 
Q 1700 650 1700 400 
Q 1700 200 1637 125 
Q 1575 50 1425 50 
Q 1300 50 1212 137 
Q 1125 225 1125 450 
Q 1125 925 1337 1625 
Q 1550 2325 2475 4000 
L 1225 4000 
Q 950 4000 787 3825 
Q 625 3650 550 3300 
L 400 3325 
L 575 4375 
L 2825 4375 
L 2825 4200 
z
" transform="scale(0.015625)"/>
     </defs>
     <use xlink:href="#SimSun-4e91"/>
     <use xlink:href="#SimSun-51fd" x="100"/>
     <use xlink:href="#SimSun-6570" x="200"/>
     <use xlink:href="#SimSun-49" x="300"/>
     <use xlink:href="#SimSun-44" x="350"/>
     <use xlink:href="#SimSun-3a" x="400"/>
     <use xlink:href="#SimSun-20" x="450"/>
     <use xlink:href="#SimSun-37" x="500"/>
     <use xlink:href="#SimSun-32" x="550"/>
    </g>
   </g>
  </g>
  <g id="axes_3">
   <g id="patch_13">
    <path d="M 61.6375 659.116875 
L 1032.509189 659.116875 
L 1032.509189 494.659375 
L 61.6375 494.659375 
z
" style="fill: #ffffff"/>
   </g>
   <g id="matplotlib.axis_5">
    <g id="xtick_15">
     <g id="line2d_30">
      <g>
       <use xlink:href="#m3e2e6a0767" x="105.768031" y="659.116875" style="stroke: #000000; stroke-width: 0.8"/>
      </g>
     </g>
     <g id="text_28">
      <!-- 0 -->
      <g transform="translate(100.768031 680.004375) scale(0.2 -0.2)">
       <use xlink:href="#TimesNewRomanPSMT-30"/>
      </g>
     </g>
    </g>
    <g id="xtick_16">
     <g id="line2d_31">
      <g>
       <use xlink:href="#m3e2e6a0767" x="259.532949" y="659.116875" style="stroke: #000000; stroke-width: 0.8"/>
      </g>
     </g>
     <g id="text_29">
      <!-- 50 -->
      <g transform="translate(249.532949 680.004375) scale(0.2 -0.2)">
       <use xlink:href="#TimesNewRomanPSMT-35"/>
       <use xlink:href="#TimesNewRomanPSMT-30" x="50"/>
      </g>
     </g>
    </g>
    <g id="xtick_17">
     <g id="line2d_32">
      <g>
       <use xlink:href="#m3e2e6a0767" x="413.297866" y="659.116875" style="stroke: #000000; stroke-width: 0.8"/>
      </g>
     </g>
     <g id="text_30">
      <!-- 100 -->
      <g transform="translate(398.297866 680.004375) scale(0.2 -0.2)">
       <use xlink:href="#TimesNewRomanPSMT-31"/>
       <use xlink:href="#TimesNewRomanPSMT-30" x="50"/>
       <use xlink:href="#TimesNewRomanPSMT-30" x="100"/>
      </g>
     </g>
    </g>
    <g id="xtick_18">
     <g id="line2d_33">
      <g>
       <use xlink:href="#m3e2e6a0767" x="567.062784" y="659.116875" style="stroke: #000000; stroke-width: 0.8"/>
      </g>
     </g>
     <g id="text_31">
      <!-- 150 -->
      <g transform="translate(552.062784 680.004375) scale(0.2 -0.2)">
       <use xlink:href="#TimesNewRomanPSMT-31"/>
       <use xlink:href="#TimesNewRomanPSMT-35" x="50"/>
       <use xlink:href="#TimesNewRomanPSMT-30" x="100"/>
      </g>
     </g>
    </g>
    <g id="xtick_19">
     <g id="line2d_34">
      <g>
       <use xlink:href="#m3e2e6a0767" x="720.827701" y="659.116875" style="stroke: #000000; stroke-width: 0.8"/>
      </g>
     </g>
     <g id="text_32">
      <!-- 200 -->
      <g transform="translate(705.827701 680.004375) scale(0.2 -0.2)">
       <use xlink:href="#TimesNewRomanPSMT-32"/>
       <use xlink:href="#TimesNewRomanPSMT-30" x="50"/>
       <use xlink:href="#TimesNewRomanPSMT-30" x="100"/>
      </g>
     </g>
    </g>
    <g id="xtick_20">
     <g id="line2d_35">
      <g>
       <use xlink:href="#m3e2e6a0767" x="874.592619" y="659.116875" style="stroke: #000000; stroke-width: 0.8"/>
      </g>
     </g>
     <g id="text_33">
      <!-- 250 -->
      <g transform="translate(859.592619 680.004375) scale(0.2 -0.2)">
       <use xlink:href="#TimesNewRomanPSMT-32"/>
       <use xlink:href="#TimesNewRomanPSMT-35" x="50"/>
       <use xlink:href="#TimesNewRomanPSMT-30" x="100"/>
      </g>
     </g>
    </g>
    <g id="xtick_21">
     <g id="line2d_36">
      <g>
       <use xlink:href="#m3e2e6a0767" x="1028.357536" y="659.116875" style="stroke: #000000; stroke-width: 0.8"/>
      </g>
     </g>
     <g id="text_34">
      <!-- 300 -->
      <g transform="translate(1013.357536 680.004375) scale(0.2 -0.2)">
       <use xlink:href="#TimesNewRomanPSMT-33"/>
       <use xlink:href="#TimesNewRomanPSMT-30" x="50"/>
       <use xlink:href="#TimesNewRomanPSMT-30" x="100"/>
      </g>
     </g>
    </g>
   </g>
   <g id="matplotlib.axis_6">
    <g id="ytick_8">
     <g id="line2d_37">
      <g>
       <use xlink:href="#m0e05ab74f7" x="61.6375" y="618.034831" style="stroke: #000000; stroke-width: 0.8"/>
      </g>
     </g>
     <g id="text_35">
      <!-- 1.0 -->
      <g transform="translate(29.6375 624.978581) scale(0.2 -0.2)">
       <use xlink:href="#TimesNewRomanPSMT-31"/>
       <use xlink:href="#TimesNewRomanPSMT-2e" x="50"/>
       <use xlink:href="#TimesNewRomanPSMT-30" x="75"/>
      </g>
     </g>
    </g>
    <g id="ytick_9">
     <g id="line2d_38">
      <g>
       <use xlink:href="#m0e05ab74f7" x="61.6375" y="566.300377" style="stroke: #000000; stroke-width: 0.8"/>
      </g>
     </g>
     <g id="text_36">
      <!-- 2.0 -->
      <g transform="translate(29.6375 573.244127) scale(0.2 -0.2)">
       <use xlink:href="#TimesNewRomanPSMT-32"/>
       <use xlink:href="#TimesNewRomanPSMT-2e" x="50"/>
       <use xlink:href="#TimesNewRomanPSMT-30" x="75"/>
      </g>
     </g>
    </g>
    <g id="ytick_10">
     <g id="line2d_39">
      <g>
       <use xlink:href="#m0e05ab74f7" x="61.6375" y="514.565922" style="stroke: #000000; stroke-width: 0.8"/>
      </g>
     </g>
     <g id="text_37">
      <!-- 3.0 -->
      <g transform="translate(29.6375 521.509672) scale(0.2 -0.2)">
       <use xlink:href="#TimesNewRomanPSMT-33"/>
       <use xlink:href="#TimesNewRomanPSMT-2e" x="50"/>
       <use xlink:href="#TimesNewRomanPSMT-30" x="75"/>
      </g>
     </g>
    </g>
    <g id="text_38">
     <!-- CPU使用率 -->
     <g transform="translate(23.059375 621.888125) rotate(-90) scale(0.2 -0.2)">
      <use xlink:href="#SimSun-43"/>
      <use xlink:href="#SimSun-50" x="50"/>
      <use xlink:href="#SimSun-55" x="100"/>
      <use xlink:href="#SimSun-4f7f" x="150"/>
      <use xlink:href="#SimSun-7528" x="250"/>
      <use xlink:href="#SimSun-7387" x="350"/>
     </g>
    </g>
   </g>
   <g id="line2d_40">
    <path d="M 105.768031 530.955404 
L 108.84333 528.720474 
L 111.918628 529.217121 
L 114.993926 531.948697 
L 118.069225 529.713768 
L 121.144523 531.45205 
L 124.219821 528.720474 
L 127.29512 530.210427 
L 130.370418 507.861135 
L 133.445716 524.498933 
L 136.521015 531.70038 
L 139.596313 531.203721 
L 142.671612 532.445357 
L 145.74691 534.928603 
L 148.822208 531.70038 
L 151.897507 536.418556 
L 154.972805 540.143438 
L 158.048103 540.888414 
L 161.123402 540.143438 
L 164.1987 544.364967 
L 167.273998 540.391768 
L 170.349297 546.351579 
L 173.424595 546.351579 
L 176.499893 554.04966 
L 179.575192 553.801331 
L 182.65049 558.767836 
L 185.725788 559.016166 
L 188.801087 561.251095 
L 191.876385 564.975977 
L 198.026982 573.915688 
L 201.10228 568.949182 
L 204.177579 610.667843 
L 207.252877 578.385546 
L 210.328175 580.372152 
L 213.403474 583.600375 
L 216.478772 588.566887 
L 219.55407 590.553486 
L 222.629369 595.023345 
L 225.704667 596.513298 
L 228.779965 598.99655 
L 231.855264 602.473109 
L 234.930562 605.701338 
L 238.00586 608.432914 
L 241.081159 609.922867 
L 244.156457 613.647749 
L 247.231755 615.882678 
L 250.307054 617.620955 
L 253.382352 621.09751 
L 256.45765 624.077416 
L 259.532949 622.83579 
L 265.683546 628.298948 
L 268.758844 629.540574 
L 271.834142 631.527177 
L 274.909441 631.775503 
L 277.984739 631.030527 
L 281.060037 629.540574 
L 284.135336 631.030527 
L 287.210634 632.768803 
L 290.285932 633.01713 
L 293.361231 634.507083 
L 296.436529 635.003733 
L 299.511827 636.245359 
L 302.587126 637.735312 
L 305.662424 638.231962 
L 308.737722 637.983635 
L 311.813021 639.473588 
L 314.888319 641.708517 
L 317.963617 644.191773 
L 321.038916 645.433399 
L 324.114214 645.930049 
L 327.189513 647.171676 
L 333.340109 647.171676 
L 336.415408 647.668325 
L 339.490706 648.413302 
L 345.641303 648.909955 
L 348.716601 648.909955 
L 351.791899 641.460191 
L 354.867198 651.393208 
L 357.942496 650.896558 
L 361.017794 651.393208 
L 364.093093 650.896558 
L 367.168391 651.641534 
L 370.243689 650.896558 
L 373.318988 650.896558 
L 379.469584 651.393208 
L 382.544883 651.144881 
L 385.620181 651.144881 
L 388.69548 648.909955 
L 391.770778 649.654931 
L 394.846076 649.158278 
L 397.921375 649.158278 
L 400.996673 648.661628 
L 407.14727 646.178376 
L 410.222568 645.681723 
L 413.297866 644.688423 
L 416.373165 643.446797 
L 419.448463 642.453494 
L 422.523761 640.218564 
L 425.59906 631.030527 
L 428.674358 634.258756 
L 431.749656 631.775503 
L 434.824955 630.285551 
L 437.900253 627.305645 
L 440.975551 625.567369 
L 444.05085 616.627655 
L 447.126148 617.620955 
L 450.201447 614.144402 
L 453.276745 611.909473 
L 456.352043 607.439614 
L 459.427342 606.942961 
L 462.50264 572.922388 
L 465.577938 595.271668 
L 468.653237 592.043439 
L 471.728535 589.311863 
L 474.803833 584.842005 
L 477.879132 585.090328 
L 480.95443 579.130523 
L 484.029728 578.385546 
L 487.105027 574.164017 
L 490.180325 576.398947 
L 493.255623 569.197506 
L 496.330922 566.714253 
L 499.40622 552.063061 
L 502.481518 554.546307 
L 505.556817 554.29799 
L 508.632115 554.546307 
L 511.707414 551.069755 
L 514.782712 551.318084 
L 517.85801 548.834825 
L 520.933309 555.539613 
L 524.008607 556.03626 
L 527.083905 554.794637 
L 530.159204 554.794637 
L 533.234502 547.593202 
L 536.3098 547.593202 
L 539.385099 546.103249 
L 542.460397 547.344873 
L 545.535695 546.599896 
L 548.610994 538.901815 
L 551.686292 549.331472 
L 554.76159 543.86832 
L 557.836889 551.566401 
L 560.912187 553.304684 
L 563.987485 553.801331 
L 567.062784 547.096543 
L 570.138082 552.063061 
L 573.213381 534.680273 
L 576.288679 539.150132 
L 579.363977 538.156838 
L 582.439276 546.599896 
L 585.514574 548.586496 
L 588.589872 551.814731 
L 591.665171 552.559707 
L 594.740469 548.338179 
L 597.815767 546.848226 
L 600.891066 547.593202 
L 603.966364 551.318084 
L 607.041662 554.546307 
L 610.116961 550.573108 
L 613.192259 544.861626 
L 616.267557 546.599896 
L 619.342856 553.304684 
L 622.418154 552.808037 
L 625.493452 546.599896 
L 628.568751 552.063061 
L 631.644049 555.539613 
L 634.719348 554.794637 
L 637.794646 550.573108 
L 640.869944 550.324778 
L 643.945243 552.559707 
L 647.020541 591.546792 
L 650.095839 529.962098 
L 653.171138 531.948697 
L 656.246436 540.640085 
L 659.321734 541.88172 
L 662.397033 541.88172 
L 665.472331 544.613296 
L 668.547629 549.083155 
L 671.622928 547.593202 
L 674.698226 552.311378 
L 677.773524 548.586496 
L 680.848823 553.801331 
L 683.924121 546.599896 
L 686.999419 545.85492 
L 690.074718 551.814731 
L 693.150016 558.02286 
L 696.225315 556.781236 
L 699.300613 556.03626 
L 702.375911 552.559707 
L 705.45121 556.532907 
L 708.526508 556.532907 
L 711.601806 559.016166 
L 714.677105 556.03626 
L 717.752403 557.526213 
L 720.827701 544.613296 
L 723.903 541.136744 
L 726.978298 553.304684 
L 730.053596 554.29799 
L 733.128895 546.848226 
L 736.204193 546.351579 
L 739.279491 543.86832 
L 742.35479 548.834825 
L 745.430088 552.808037 
L 748.505386 559.016166 
L 751.580685 555.291284 
L 754.655983 553.553013 
L 757.731282 546.848226 
L 760.80658 547.096543 
L 766.957177 555.539613 
L 770.032475 555.291284 
L 773.107773 556.532907 
L 776.183072 553.304684 
L 782.333668 553.304684 
L 785.408967 555.539613 
L 788.484265 555.291284 
L 791.559563 553.056354 
L 794.634862 551.069755 
L 797.71016 551.069755 
L 800.785458 556.532907 
L 803.860757 545.109943 
L 806.936055 546.848226 
L 810.011353 552.311378 
L 813.086652 541.136744 
L 816.16195 547.841519 
L 819.237249 550.573108 
L 822.312547 550.821425 
L 825.387845 538.653485 
L 828.463144 543.86832 
L 831.538442 539.398462 
L 834.61374 539.398462 
L 837.689039 531.948697 
L 840.764337 540.640085 
L 843.839635 538.901815 
L 846.914934 536.170226 
L 849.990232 528.720474 
L 853.06553 530.955404 
L 856.140829 529.465451 
L 859.216127 528.472145 
L 862.291425 531.70038 
L 865.366724 528.968792 
L 868.442022 519.284111 
L 871.51732 526.237216 
L 874.592619 521.27071 
L 877.667917 516.800852 
L 880.743216 518.787451 
L 883.818514 516.304205 
L 886.893812 509.847734 
L 889.969111 519.532428 
L 893.044409 513.07597 
L 896.119707 515.807546 
L 899.195006 515.807546 
L 902.270304 511.08937 
L 905.345602 518.539134 
L 908.420901 521.27071 
L 911.496199 525.988886 
L 914.571497 520.277404 
L 917.646796 511.834346 
L 920.722094 529.465451 
L 923.797392 522.760663 
L 926.872691 527.727168 
L 929.947989 529.217121 
L 933.023287 531.948697 
L 936.098586 527.727168 
L 939.173884 530.955404 
L 942.249183 519.532428 
L 945.324481 525.24391 
L 948.399779 525.492239 
L 951.475078 530.707074 
L 954.550376 525.24391 
L 957.625674 529.713768 
L 960.700973 528.968792 
L 963.776271 526.237216 
L 966.851569 531.70038 
L 969.926868 531.70038 
L 973.002166 529.962098 
L 976.077464 526.237216 
L 979.152763 510.096064 
L 982.228061 523.753957 
L 985.303359 523.00898 
L 988.378658 524.747263 
L 988.378658 524.747263 
" clip-path="url(#p612340d817)" style="fill: none; stroke: #1f77b4; stroke-width: 1.5; stroke-linecap: square"/>
   </g>
   <g id="line2d_41">
    <path d="M 548.610994 550.101549 
L 551.686292 546.996597 
L 554.76159 547.024756 
L 557.836889 547.635966 
L 560.912187 546.780436 
L 563.987485 549.589287 
L 570.138082 551.243572 
L 573.213381 535.951832 
L 576.288679 549.241591 
L 579.363977 556.288352 
L 582.439276 554.419077 
L 588.589872 554.295646 
L 591.665171 555.479668 
L 594.740469 556.129114 
L 597.815767 556.425437 
L 600.891066 556.287451 
L 603.966364 557.486027 
L 607.041662 551.646649 
L 610.116961 539.048262 
L 613.192259 545.08911 
L 616.267557 545.18379 
L 619.342856 545.743971 
L 622.418154 546.141375 
L 625.493452 545.278925 
L 628.568751 548.757451 
L 631.644049 548.768774 
L 634.719348 553.79541 
L 637.794646 557.158251 
L 640.869944 560.180489 
L 643.945243 555.035775 
L 647.020541 610.550999 
L 650.095839 543.853778 
L 653.171138 546.182362 
L 656.246436 543.33462 
L 659.321734 546.617448 
L 662.397033 548.132588 
L 665.472331 553.233822 
L 668.547629 554.767711 
L 671.622928 557.958338 
L 674.698226 557.25726 
L 677.773524 563.368316 
L 680.848823 562.542327 
L 683.924121 542.751521 
L 686.999419 543.792414 
L 690.074718 552.672876 
L 693.150016 552.641917 
L 696.225315 555.643223 
L 699.300613 555.59328 
L 702.375911 559.615299 
L 705.45121 558.337166 
L 708.526508 557.285247 
L 711.601806 558.490409 
L 714.677105 557.57058 
L 717.752403 563.701988 
L 720.827701 554.458177 
L 723.903 563.28031 
L 726.978298 565.318912 
L 730.053596 567.574785 
L 733.128895 568.352781 
L 736.204193 567.50031 
L 739.279491 568.293871 
L 742.35479 569.516876 
L 745.430088 571.14112 
L 748.505386 570.81113 
L 751.580685 570.270116 
L 754.655983 556.681722 
L 757.731282 560.64123 
L 760.80658 569.264063 
L 763.881878 571.136618 
L 766.957177 561.894078 
L 770.032475 552.029696 
L 773.107773 552.968743 
L 776.183072 556.025541 
L 779.25837 553.292251 
L 782.333668 559.321776 
L 785.408967 556.548621 
L 788.484265 555.01831 
L 791.559563 553.148012 
L 794.634862 542.150007 
L 797.71016 546.548979 
L 800.785458 543.510744 
L 803.860757 547.136124 
L 806.936055 542.408932 
L 810.011353 546.112895 
L 813.086652 543.211621 
L 816.16195 550.400425 
L 819.237249 537.20225 
L 822.312547 540.35548 
L 825.387845 540.908544 
L 828.463144 538.270143 
L 831.538442 525.832584 
L 834.61374 532.68726 
L 837.689039 534.425616 
L 840.764337 534.817075 
L 843.839635 532.158617 
L 849.990232 529.115128 
L 853.06553 528.709028 
L 859.216127 530.069987 
L 862.291425 527.867905 
L 865.366724 529.201567 
L 868.442022 519.0148 
L 871.51732 522.997213 
L 874.592619 519.302205 
L 877.667917 517.350635 
L 880.743216 515.2037 
L 883.818514 515.025763 
L 886.893812 515.233216 
L 889.969111 512.965885 
L 893.044409 513.012102 
L 896.119707 510.485154 
L 899.195006 510.165063 
L 902.270304 520.637768 
L 905.345602 502.134716 
L 908.420901 515.311146 
L 911.496199 516.027395 
L 914.571497 518.883216 
L 917.646796 524.254736 
L 920.722094 524.472439 
L 923.797392 524.872124 
L 926.872691 524.176597 
L 929.947989 516.816751 
L 933.023287 526.644536 
L 936.098586 529.379332 
L 939.173884 526.913723 
L 942.249183 520.641616 
L 945.324481 520.468132 
L 948.399779 521.688577 
L 951.475078 522.383142 
L 954.550376 525.080823 
L 957.625674 523.717521 
L 960.700973 516.064053 
L 963.776271 520.168331 
L 966.851569 520.786817 
L 969.926868 521.205227 
L 973.002166 520.248443 
L 976.077464 522.699028 
L 979.152763 516.816961 
L 982.228061 519.238017 
L 985.303359 522.214555 
L 988.378658 521.467827 
L 988.378658 521.467827 
" clip-path="url(#p612340d817)" style="fill: none; stroke: #ff7f0e; stroke-width: 1.5; stroke-linecap: square"/>
   </g>
   <g id="line2d_42">
    <path d="M 548.610994 659.116875 
L 548.610994 494.659375 
" clip-path="url(#p612340d817)" style="fill: none; stroke-dasharray: 7.4,3.2; stroke-dashoffset: 0; stroke: #0000ff; stroke-width: 2"/>
   </g>
   <g id="patch_14">
    <path d="M 61.6375 659.116875 
L 61.6375 494.659375 
" style="fill: none; stroke: #000000; stroke-width: 0.8; stroke-linejoin: miter; stroke-linecap: square"/>
   </g>
   <g id="patch_15">
    <path d="M 1032.509189 659.116875 
L 1032.509189 494.659375 
" style="fill: none; stroke: #000000; stroke-width: 0.8; stroke-linejoin: miter; stroke-linecap: square"/>
   </g>
   <g id="patch_16">
    <path d="M 61.6375 659.116875 
L 1032.509189 659.116875 
" style="fill: none; stroke: #000000; stroke-width: 0.8; stroke-linejoin: miter; stroke-linecap: square"/>
   </g>
   <g id="patch_17">
    <path d="M 61.6375 494.659375 
L 1032.509189 494.659375 
" style="fill: none; stroke: #000000; stroke-width: 0.8; stroke-linejoin: miter; stroke-linecap: square"/>
   </g>
   <g id="text_39">
    <!-- 云函数ID: 150 -->
    <g transform="translate(482.073345 488.659375) scale(0.2 -0.2)">
     <defs>
      <path id="SimSun-31" d="M 1825 4450 
L 1825 650 
Q 1825 450 1950 350 
Q 2075 250 2300 250 
L 2550 250 
L 2550 100 
L 725 100 
L 725 250 
L 950 250 
Q 1200 250 1312 350 
Q 1425 450 1425 650 
L 1425 3675 
Q 1425 3775 1362 3837 
Q 1300 3900 1175 3900 
L 725 3900 
L 725 4050 
L 950 4050 
Q 1250 4050 1437 4150 
Q 1625 4250 1725 4450 
L 1825 4450 
z
" transform="scale(0.015625)"/>
      <path id="SimSun-35" d="M 1725 2850 
Q 2200 2850 2500 2487 
Q 2800 2125 2800 1525 
Q 2800 850 2487 450 
Q 2175 50 1525 50 
Q 1075 50 725 312 
Q 375 575 375 950 
Q 375 1100 462 1212 
Q 550 1325 700 1325 
Q 850 1325 900 1225 
Q 950 1125 950 1050 
Q 950 900 875 825 
Q 800 725 800 625 
Q 800 425 1037 325 
Q 1275 225 1550 225 
Q 1950 225 2162 550 
Q 2375 875 2375 1475 
Q 2375 1975 2187 2287 
Q 2000 2600 1625 2600 
Q 1350 2600 1150 2500 
Q 950 2400 775 2075 
L 550 2100 
L 675 4375 
L 2725 4375 
L 2650 4000 
L 850 4000 
L 750 2350 
Q 1000 2700 1237 2775 
Q 1475 2850 1725 2850 
z
" transform="scale(0.015625)"/>
      <path id="SimSun-30" d="M 1600 4225 
Q 1250 4225 1012 3687 
Q 775 3150 775 2250 
Q 775 1300 1012 775 
Q 1250 250 1600 250 
Q 1975 250 2187 775 
Q 2400 1300 2400 2250 
Q 2400 3150 2200 3687 
Q 2000 4225 1600 4225 
z
M 1600 50 
Q 1050 50 675 625 
Q 300 1200 300 2250 
Q 300 3225 662 3825 
Q 1025 4425 1600 4425 
Q 2150 4425 2512 3850 
Q 2875 3275 2875 2250 
Q 2875 1225 2512 637 
Q 2150 50 1600 50 
z
" transform="scale(0.015625)"/>
     </defs>
     <use xlink:href="#SimSun-4e91"/>
     <use xlink:href="#SimSun-51fd" x="100"/>
     <use xlink:href="#SimSun-6570" x="200"/>
     <use xlink:href="#SimSun-49" x="300"/>
     <use xlink:href="#SimSun-44" x="350"/>
     <use xlink:href="#SimSun-3a" x="400"/>
     <use xlink:href="#SimSun-20" x="450"/>
     <use xlink:href="#SimSun-31" x="500"/>
     <use xlink:href="#SimSun-35" x="550"/>
     <use xlink:href="#SimSun-30" x="600"/>
    </g>
   </g>
  </g>
 </g>
 <defs>
  <clipPath id="p6a3b291468">
   <rect x="61.6375" y="29.059375" width="970.871689" height="164.4575"/>
  </clipPath>
  <clipPath id="p0f21655761">
   <rect x="61.6375" y="261.859375" width="970.871689" height="164.4575"/>
  </clipPath>
  <clipPath id="p612340d817">
   <rect x="61.6375" y="494.659375" width="970.871689" height="164.4575"/>
  </clipPath>
 </defs>
</svg>
