<?xml version="1.0" encoding="utf-8" standalone="no"?>
<!DOCTYPE svg PUBLIC "-//W3C//DTD SVG 1.1//EN"
  "http://www.w3.org/Graphics/SVG/1.1/DTD/svg11.dtd">
<svg xmlns:xlink="http://www.w3.org/1999/xlink" width="1050.602344pt" height="690.95375pt" viewBox="0 0 1050.602344 690.95375" xmlns="http://www.w3.org/2000/svg" version="1.1">
 <metadata>
  <rdf:RDF xmlns:dc="http://purl.org/dc/elements/1.1/" xmlns:cc="http://creativecommons.org/ns#" xmlns:rdf="http://www.w3.org/1999/02/22-rdf-syntax-ns#">
   <cc:Work>
    <dc:type rdf:resource="http://purl.org/dc/dcmitype/StillImage"/>
    <dc:date>2024-02-21T15:24:50.773344</dc:date>
    <dc:format>image/svg+xml</dc:format>
    <dc:creator>
     <cc:Agent>
      <dc:title>Matplotlib v3.7.1, https://matplotlib.org/</dc:title>
     </cc:Agent>
    </dc:creator>
   </cc:Work>
  </rdf:RDF>
 </metadata>
 <defs>
  <style type="text/css">*{stroke-linejoin: round; stroke-linecap: butt}</style>
 </defs>
 <g id="figure_1">
  <g id="patch_1">
   <path d="M 0 690.95375 
L 1050.602344 690.95375 
L 1050.602344 0 
L 0 0 
z
" style="fill: #ffffff"/>
  </g>
  <g id="axes_1">
   <g id="patch_2">
    <path d="M 61.6375 192.988125 
L 1032.554189 192.988125 
L 1032.554189 29.059375 
L 61.6375 29.059375 
z
" style="fill: #ffffff"/>
   </g>
   <g id="matplotlib.axis_1">
    <g id="xtick_1">
     <g id="line2d_1">
      <defs>
       <path id="m319981e467" d="M 0 0 
L 0 3.5 
" style="stroke: #000000; stroke-width: 0.8"/>
      </defs>
      <g>
       <use xlink:href="#m319981e467" x="105.770077" y="192.988125" style="stroke: #000000; stroke-width: 0.8"/>
      </g>
     </g>
     <g id="text_1">
      <!-- 0 -->
      <g transform="translate(100.770077 213.875625) scale(0.2 -0.2)">
       <defs>
        <path id="TimesNewRomanPSMT-30" d="M 231 2094 
Q 231 2819 450 3342 
Q 669 3866 1031 4122 
Q 1313 4325 1613 4325 
Q 2100 4325 2488 3828 
Q 2972 3213 2972 2159 
Q 2972 1422 2759 906 
Q 2547 391 2217 158 
Q 1888 -75 1581 -75 
Q 975 -75 572 641 
Q 231 1244 231 2094 
z
M 844 2016 
Q 844 1141 1059 588 
Q 1238 122 1591 122 
Q 1759 122 1940 273 
Q 2122 425 2216 781 
Q 2359 1319 2359 2297 
Q 2359 3022 2209 3506 
Q 2097 3866 1919 4016 
Q 1791 4119 1609 4119 
Q 1397 4119 1231 3928 
Q 1006 3669 925 3112 
Q 844 2556 844 2016 
z
" transform="scale(0.015625)"/>
       </defs>
       <use xlink:href="#TimesNewRomanPSMT-30"/>
      </g>
     </g>
    </g>
    <g id="xtick_2">
     <g id="line2d_2">
      <g>
       <use xlink:href="#m319981e467" x="259.542121" y="192.988125" style="stroke: #000000; stroke-width: 0.8"/>
      </g>
     </g>
     <g id="text_2">
      <!-- 50 -->
      <g transform="translate(249.542121 213.875625) scale(0.2 -0.2)">
       <defs>
        <path id="TimesNewRomanPSMT-35" d="M 2778 4238 
L 2534 3706 
L 1259 3706 
L 981 3138 
Q 1809 3016 2294 2522 
Q 2709 2097 2709 1522 
Q 2709 1188 2573 903 
Q 2438 619 2231 419 
Q 2025 219 1772 97 
Q 1413 -75 1034 -75 
Q 653 -75 479 54 
Q 306 184 306 341 
Q 306 428 378 495 
Q 450 563 559 563 
Q 641 563 702 538 
Q 763 513 909 409 
Q 1144 247 1384 247 
Q 1750 247 2026 523 
Q 2303 800 2303 1197 
Q 2303 1581 2056 1914 
Q 1809 2247 1375 2428 
Q 1034 2569 447 2591 
L 1259 4238 
L 2778 4238 
z
" transform="scale(0.015625)"/>
       </defs>
       <use xlink:href="#TimesNewRomanPSMT-35"/>
       <use xlink:href="#TimesNewRomanPSMT-30" x="50"/>
      </g>
     </g>
    </g>
    <g id="xtick_3">
     <g id="line2d_3">
      <g>
       <use xlink:href="#m319981e467" x="413.314166" y="192.988125" style="stroke: #000000; stroke-width: 0.8"/>
      </g>
     </g>
     <g id="text_3">
      <!-- 100 -->
      <g transform="translate(398.314166 213.875625) scale(0.2 -0.2)">
       <defs>
        <path id="TimesNewRomanPSMT-31" d="M 750 3822 
L 1781 4325 
L 1884 4325 
L 1884 747 
Q 1884 391 1914 303 
Q 1944 216 2037 169 
Q 2131 122 2419 116 
L 2419 0 
L 825 0 
L 825 116 
Q 1125 122 1212 167 
Q 1300 213 1334 289 
Q 1369 366 1369 747 
L 1369 3034 
Q 1369 3497 1338 3628 
Q 1316 3728 1258 3775 
Q 1200 3822 1119 3822 
Q 1003 3822 797 3725 
L 750 3822 
z
" transform="scale(0.015625)"/>
       </defs>
       <use xlink:href="#TimesNewRomanPSMT-31"/>
       <use xlink:href="#TimesNewRomanPSMT-30" x="50"/>
       <use xlink:href="#TimesNewRomanPSMT-30" x="100"/>
      </g>
     </g>
    </g>
    <g id="xtick_4">
     <g id="line2d_4">
      <g>
       <use xlink:href="#m319981e467" x="567.08621" y="192.988125" style="stroke: #000000; stroke-width: 0.8"/>
      </g>
     </g>
     <g id="text_4">
      <!-- 150 -->
      <g transform="translate(552.08621 213.875625) scale(0.2 -0.2)">
       <use xlink:href="#TimesNewRomanPSMT-31"/>
       <use xlink:href="#TimesNewRomanPSMT-35" x="50"/>
       <use xlink:href="#TimesNewRomanPSMT-30" x="100"/>
      </g>
     </g>
    </g>
    <g id="xtick_5">
     <g id="line2d_5">
      <g>
       <use xlink:href="#m319981e467" x="720.858255" y="192.988125" style="stroke: #000000; stroke-width: 0.8"/>
      </g>
     </g>
     <g id="text_5">
      <!-- 200 -->
      <g transform="translate(705.858255 213.875625) scale(0.2 -0.2)">
       <defs>
        <path id="TimesNewRomanPSMT-32" d="M 2934 816 
L 2638 0 
L 138 0 
L 138 116 
Q 1241 1122 1691 1759 
Q 2141 2397 2141 2925 
Q 2141 3328 1894 3587 
Q 1647 3847 1303 3847 
Q 991 3847 742 3664 
Q 494 3481 375 3128 
L 259 3128 
Q 338 3706 661 4015 
Q 984 4325 1469 4325 
Q 1984 4325 2329 3994 
Q 2675 3663 2675 3213 
Q 2675 2891 2525 2569 
Q 2294 2063 1775 1497 
Q 997 647 803 472 
L 1909 472 
Q 2247 472 2383 497 
Q 2519 522 2628 598 
Q 2738 675 2819 816 
L 2934 816 
z
" transform="scale(0.015625)"/>
       </defs>
       <use xlink:href="#TimesNewRomanPSMT-32"/>
       <use xlink:href="#TimesNewRomanPSMT-30" x="50"/>
       <use xlink:href="#TimesNewRomanPSMT-30" x="100"/>
      </g>
     </g>
    </g>
    <g id="xtick_6">
     <g id="line2d_6">
      <g>
       <use xlink:href="#m319981e467" x="874.630299" y="192.988125" style="stroke: #000000; stroke-width: 0.8"/>
      </g>
     </g>
     <g id="text_6">
      <!-- 250 -->
      <g transform="translate(859.630299 213.875625) scale(0.2 -0.2)">
       <use xlink:href="#TimesNewRomanPSMT-32"/>
       <use xlink:href="#TimesNewRomanPSMT-35" x="50"/>
       <use xlink:href="#TimesNewRomanPSMT-30" x="100"/>
      </g>
     </g>
    </g>
    <g id="xtick_7">
     <g id="line2d_7">
      <g>
       <use xlink:href="#m319981e467" x="1028.402344" y="192.988125" style="stroke: #000000; stroke-width: 0.8"/>
      </g>
     </g>
     <g id="text_7">
      <!-- 300 -->
      <g transform="translate(1013.402344 213.875625) scale(0.2 -0.2)">
       <defs>
        <path id="TimesNewRomanPSMT-33" d="M 325 3431 
Q 506 3859 782 4092 
Q 1059 4325 1472 4325 
Q 1981 4325 2253 3994 
Q 2459 3747 2459 3466 
Q 2459 3003 1878 2509 
Q 2269 2356 2469 2072 
Q 2669 1788 2669 1403 
Q 2669 853 2319 450 
Q 1863 -75 997 -75 
Q 569 -75 414 31 
Q 259 138 259 259 
Q 259 350 332 419 
Q 406 488 509 488 
Q 588 488 669 463 
Q 722 447 909 348 
Q 1097 250 1169 231 
Q 1284 197 1416 197 
Q 1734 197 1970 444 
Q 2206 691 2206 1028 
Q 2206 1275 2097 1509 
Q 2016 1684 1919 1775 
Q 1784 1900 1550 2001 
Q 1316 2103 1072 2103 
L 972 2103 
L 972 2197 
Q 1219 2228 1467 2375 
Q 1716 2522 1828 2728 
Q 1941 2934 1941 3181 
Q 1941 3503 1739 3701 
Q 1538 3900 1238 3900 
Q 753 3900 428 3381 
L 325 3431 
z
" transform="scale(0.015625)"/>
       </defs>
       <use xlink:href="#TimesNewRomanPSMT-33"/>
       <use xlink:href="#TimesNewRomanPSMT-30" x="50"/>
       <use xlink:href="#TimesNewRomanPSMT-30" x="100"/>
      </g>
     </g>
    </g>
   </g>
   <g id="matplotlib.axis_2">
    <g id="ytick_1">
     <g id="line2d_8">
      <defs>
       <path id="m777619f176" d="M 0 0 
L -3.5 0 
" style="stroke: #000000; stroke-width: 0.8"/>
      </defs>
      <g>
       <use xlink:href="#m777619f176" x="61.6375" y="190.696663" style="stroke: #000000; stroke-width: 0.8"/>
      </g>
     </g>
     <g id="text_8">
      <!-- 0.0 -->
      <g transform="translate(29.6375 197.640413) scale(0.2 -0.2)">
       <defs>
        <path id="TimesNewRomanPSMT-2e" d="M 800 606 
Q 947 606 1047 504 
Q 1147 403 1147 259 
Q 1147 116 1045 14 
Q 944 -88 800 -88 
Q 656 -88 554 14 
Q 453 116 453 259 
Q 453 406 554 506 
Q 656 606 800 606 
z
" transform="scale(0.015625)"/>
       </defs>
       <use xlink:href="#TimesNewRomanPSMT-30"/>
       <use xlink:href="#TimesNewRomanPSMT-2e" x="50"/>
       <use xlink:href="#TimesNewRomanPSMT-30" x="75"/>
      </g>
     </g>
    </g>
    <g id="ytick_2">
     <g id="line2d_9">
      <g>
       <use xlink:href="#m777619f176" x="61.6375" y="142.855903" style="stroke: #000000; stroke-width: 0.8"/>
      </g>
     </g>
     <g id="text_9">
      <!-- 1.0 -->
      <g transform="translate(29.6375 149.799653) scale(0.2 -0.2)">
       <use xlink:href="#TimesNewRomanPSMT-31"/>
       <use xlink:href="#TimesNewRomanPSMT-2e" x="50"/>
       <use xlink:href="#TimesNewRomanPSMT-30" x="75"/>
      </g>
     </g>
    </g>
    <g id="ytick_3">
     <g id="line2d_10">
      <g>
       <use xlink:href="#m777619f176" x="61.6375" y="95.015143" style="stroke: #000000; stroke-width: 0.8"/>
      </g>
     </g>
     <g id="text_10">
      <!-- 2.0 -->
      <g transform="translate(29.6375 101.958893) scale(0.2 -0.2)">
       <use xlink:href="#TimesNewRomanPSMT-32"/>
       <use xlink:href="#TimesNewRomanPSMT-2e" x="50"/>
       <use xlink:href="#TimesNewRomanPSMT-30" x="75"/>
      </g>
     </g>
    </g>
    <g id="ytick_4">
     <g id="line2d_11">
      <g>
       <use xlink:href="#m777619f176" x="61.6375" y="47.174383" style="stroke: #000000; stroke-width: 0.8"/>
      </g>
     </g>
     <g id="text_11">
      <!-- 3.0 -->
      <g transform="translate(29.6375 54.118133) scale(0.2 -0.2)">
       <use xlink:href="#TimesNewRomanPSMT-33"/>
       <use xlink:href="#TimesNewRomanPSMT-2e" x="50"/>
       <use xlink:href="#TimesNewRomanPSMT-30" x="75"/>
      </g>
     </g>
    </g>
    <g id="text_12">
     <!-- CPU使用率 -->
     <g transform="translate(23.059375 156.02375) rotate(-90) scale(0.2 -0.2)">
      <defs>
       <path id="SimSun-43" d="M 1725 50 
Q 1025 50 612 575 
Q 200 1100 200 2225 
Q 200 3175 637 3800 
Q 1075 4425 1825 4425 
Q 2000 4425 2175 4375 
Q 2350 4300 2475 4300 
Q 2575 4300 2637 4325 
Q 2700 4350 2750 4425 
L 2975 3325 
L 2825 3275 
Q 2675 3750 2425 4000 
Q 2175 4250 1775 4250 
Q 1250 4250 962 3675 
Q 675 3100 675 2250 
Q 675 1325 925 800 
Q 1175 275 1750 275 
Q 2150 275 2437 562 
Q 2725 850 2825 1325 
L 2975 1250 
Q 2850 725 2512 387 
Q 2175 50 1725 50 
z
" transform="scale(0.015625)"/>
       <path id="SimSun-50" d="M 950 2100 
L 950 450 
Q 950 350 1012 300 
Q 1075 250 1175 250 
L 1350 250 
L 1350 100 
L 150 100 
L 150 250 
L 325 250 
Q 450 250 500 300 
Q 550 350 550 450 
L 550 4025 
Q 550 4125 500 4175 
Q 450 4225 325 4225 
L 175 4225 
L 175 4375 
L 1650 4375 
Q 2275 4375 2612 4062 
Q 2950 3750 2950 3275 
Q 2950 2700 2587 2400 
Q 2225 2100 1725 2100 
L 950 2100 
z
M 1575 2250 
Q 1950 2250 2237 2475 
Q 2525 2700 2525 3250 
Q 2525 3750 2287 3987 
Q 2050 4225 1525 4225 
L 1175 4225 
Q 1075 4225 1012 4175 
Q 950 4125 950 4025 
L 950 2250 
L 1575 2250 
z
" transform="scale(0.015625)"/>
       <path id="SimSun-55" d="M 1625 250 
Q 2000 250 2262 500 
Q 2525 750 2525 1125 
L 2525 4025 
Q 2525 4125 2475 4175 
Q 2425 4225 2300 4225 
L 2150 4225 
L 2150 4375 
L 3050 4375 
L 3050 4225 
L 2900 4225 
Q 2800 4225 2737 4175 
Q 2675 4125 2675 4025 
L 2675 1125 
Q 2675 625 2337 337 
Q 2000 50 1575 50 
Q 1125 50 787 300 
Q 450 550 450 1100 
L 450 4025 
Q 450 4125 400 4175 
Q 350 4225 225 4225 
L 100 4225 
L 100 4375 
L 1200 4375 
L 1200 4225 
L 1075 4225 
Q 975 4225 912 4175 
Q 850 4125 850 4025 
L 850 1100 
Q 850 600 1062 425 
Q 1275 250 1625 250 
z
" transform="scale(0.015625)"/>
       <path id="SimSun-4f7f" d="M 2875 3150 
L 2875 2100 
L 3825 2100 
Q 3850 2825 3850 3150 
L 2875 3150 
z
M 4175 3150 
Q 4175 2800 4150 2100 
L 5150 2100 
L 5150 3150 
L 4175 3150 
z
M 5475 3100 
L 5475 2425 
Q 5475 2100 5500 1800 
L 5150 1675 
L 5150 1950 
L 4150 1950 
Q 4125 1175 3875 600 
Q 4275 275 4875 75 
Q 5475 -125 6075 -150 
L 6075 -250 
Q 5700 -300 5600 -575 
Q 4525 -325 3725 350 
Q 3425 25 2925 -225 
Q 2425 -475 1875 -650 
L 1825 -550 
Q 2400 -325 2850 -25 
Q 3300 275 3500 575 
Q 3200 925 2825 1650 
L 2900 1700 
Q 3325 1100 3625 825 
Q 3800 1300 3825 1950 
L 2875 1950 
L 2875 1825 
L 2525 1675 
Q 2550 2075 2550 2562 
Q 2550 3050 2525 3500 
L 2875 3300 
L 3850 3300 
L 3850 4025 
L 2975 4025 
Q 2650 4025 2375 3950 
L 2150 4175 
L 3850 4175 
L 3850 4525 
Q 3850 4775 3825 5225 
L 4350 5000 
L 4175 4825 
L 4175 4175 
L 5300 4175 
L 5600 4475 
L 6050 4025 
L 4175 4025 
L 4175 3300 
L 5100 3300 
L 5275 3525 
L 5650 3225 
L 5475 3100 
z
M 1675 3175 
L 1675 -450 
L 1325 -625 
Q 1350 -75 1350 350 
L 1350 3200 
Q 900 2475 350 1900 
L 275 1950 
Q 700 2525 1112 3400 
Q 1525 4275 1800 5250 
L 2325 4925 
L 2125 4800 
Q 1725 3925 1500 3525 
L 1875 3325 
L 1675 3175 
z
" transform="scale(0.015625)"/>
       <path id="SimSun-7528" d="M 3400 3150 
L 3400 1825 
L 5075 1825 
L 5075 3150 
L 3400 3150 
z
M 4075 100 
Q 4725 50 4900 62 
Q 5075 75 5075 400 
L 5075 1675 
L 3400 1675 
Q 3400 75 3425 -225 
L 3050 -400 
Q 3075 1025 3075 1675 
L 1425 1675 
Q 1250 350 375 -600 
L 300 -550 
Q 775 225 950 1025 
Q 1125 1825 1125 3225 
Q 1125 4625 1100 5075 
L 1475 4825 
L 5050 4825 
L 5225 5100 
L 5625 4800 
L 5425 4600 
L 5425 225 
Q 5450 -400 4875 -575 
Q 4825 -150 4075 -25 
L 4075 100 
z
M 1475 4675 
L 1475 3300 
L 3075 3300 
L 3075 4675 
L 1475 4675 
z
M 3400 4675 
L 3400 3300 
L 5075 3300 
L 5075 4675 
L 3400 4675 
z
M 1475 3150 
Q 1450 2100 1425 1825 
L 3075 1825 
L 3075 3150 
L 1475 3150 
z
" transform="scale(0.015625)"/>
       <path id="SimSun-7387" d="M 875 3725 
L 925 3800 
Q 1375 3650 1550 3525 
Q 1725 3400 1725 3250 
Q 1725 3175 1662 3025 
Q 1600 2875 1550 2875 
Q 1500 2875 1425 3050 
Q 1275 3325 875 3725 
z
M 550 1850 
Q 875 1925 2000 2575 
L 2050 2500 
Q 1675 2225 1337 1937 
Q 1000 1650 875 1425 
L 550 1850 
z
M 5200 3450 
Q 4800 3150 4275 2800 
L 4225 2875 
Q 4775 3400 5050 3925 
L 5450 3525 
L 5200 3450 
z
M 4325 2500 
L 4350 2575 
Q 5225 2350 5375 2212 
Q 5525 2075 5525 1900 
Q 5525 1775 5487 1662 
Q 5450 1550 5400 1550 
Q 5325 1550 5200 1800 
Q 4975 2150 4325 2500 
z
M 3150 3900 
Q 2500 3300 2300 3150 
Q 2800 3150 3400 3175 
Q 3700 3500 3850 3825 
L 4250 3450 
Q 4050 3400 3450 2825 
Q 2850 2250 2475 1950 
Q 3150 1975 3850 2000 
Q 3750 2175 3550 2450 
L 3600 2500 
Q 4050 2250 4200 2100 
Q 4350 1950 4350 1850 
Q 4350 1775 4250 1625 
Q 4150 1475 4100 1475 
Q 4075 1475 4050 1550 
Q 4000 1700 3900 1900 
Q 3650 1875 3075 1800 
L 3500 1550 
L 3325 1425 
L 3325 975 
L 5325 975 
L 5650 1300 
L 6100 825 
L 3325 825 
Q 3325 -275 3350 -525 
L 2975 -650 
Q 3000 0 3000 825 
L 1125 825 
Q 800 825 525 750 
L 300 975 
L 3000 975 
L 3000 1775 
Q 2450 1700 2200 1525 
L 1950 1950 
Q 2275 1950 2675 2350 
Q 3075 2750 3325 3050 
Q 2400 2950 2150 2775 
L 1950 3175 
Q 2150 3150 2475 3575 
Q 2800 4000 2900 4225 
L 1450 4225 
Q 1125 4225 850 4150 
L 625 4375 
L 3100 4375 
Q 3050 4800 2675 5200 
L 2725 5250 
Q 3225 5050 3337 4912 
Q 3450 4775 3450 4700 
Q 3450 4550 3250 4375 
L 5025 4375 
L 5350 4675 
L 5775 4225 
L 3050 4225 
L 3375 3950 
L 3150 3900 
z
" transform="scale(0.015625)"/>
      </defs>
      <use xlink:href="#SimSun-43"/>
      <use xlink:href="#SimSun-50" x="50"/>
      <use xlink:href="#SimSun-55" x="100"/>
      <use xlink:href="#SimSun-4f7f" x="150"/>
      <use xlink:href="#SimSun-7528" x="250"/>
      <use xlink:href="#SimSun-7387" x="350"/>
     </g>
    </g>
   </g>
   <g id="line2d_12">
    <path d="M 105.770077 115.567534 
L 108.845518 122.016472 
L 111.920959 129.125608 
L 114.996399 134.062772 
L 118.07184 136.225174 
L 121.147281 141.267589 
L 124.222722 157.141155 
L 127.298163 143.162086 
L 130.373604 150.252089 
L 133.449045 148.525036 
L 136.524486 157.973585 
L 139.599927 158.423289 
L 142.675367 157.552585 
L 145.750808 161.465959 
L 148.826249 161.446825 
L 151.90169 161.236325 
L 154.977131 165.216675 
L 158.052572 165.867309 
L 161.128013 165.962995 
L 164.203454 166.393559 
L 167.278895 167.800076 
L 170.354335 166.785854 
L 173.429776 164.786105 
L 176.505217 173.196513 
L 179.580658 176.808486 
L 182.656099 170.297361 
L 185.73154 172.631996 
L 188.806981 183.070842 
L 191.882422 184.042017 
L 194.957863 183.931976 
L 198.033303 174.660438 
L 201.108744 176.143503 
L 204.184185 182.032702 
L 207.259626 177.712678 
L 210.335067 181.008911 
L 213.410508 182.104464 
L 216.485949 179.367969 
L 219.56139 181.267254 
L 222.636831 183.640151 
L 225.712272 184.410389 
L 228.787712 182.716825 
L 231.863153 177.401718 
L 234.938594 178.679062 
L 238.014035 177.856207 
L 241.089476 178.659928 
L 244.164917 176.325294 
L 247.240358 175.454596 
L 250.315799 174.287281 
L 253.39124 175.339776 
L 256.46668 174.679578 
L 259.542121 165.915146 
L 262.617562 171.684745 
L 265.693003 157.67219 
L 268.768444 149.118263 
L 271.843885 139.746257 
L 274.919326 123.81528 
L 277.994767 124.599868 
L 281.070208 131.106213 
L 284.145648 128.101811 
L 287.221089 125.671502 
L 290.29653 104.157512 
L 293.371971 93.426829 
L 296.447412 109.463055 
L 299.522853 91.207014 
L 302.598294 101.076569 
L 305.673735 105.827152 
L 308.749176 85.069047 
L 311.824616 83.255883 
L 314.900057 89.656978 
L 317.975498 89.972723 
L 321.050939 93.933945 
L 324.12638 85.236489 
L 327.201821 73.90302 
L 330.277262 54.78106 
L 333.352703 80.323243 
L 336.428144 76.022358 
L 339.503584 65.229482 
L 342.579025 59.306806 
L 345.654466 78.864103 
L 348.729907 40.055683 
L 351.805348 66.54032 
L 354.880789 64.880249 
L 361.031671 84.633698 
L 364.107112 73.013182 
L 367.182552 50.087884 
L 370.257993 69.582995 
L 373.333434 66.191087 
L 376.408875 70.975158 
L 379.484316 67.257936 
L 382.559757 56.555956 
L 385.635198 59.354643 
L 388.710639 59.62255 
L 391.78608 57.479282 
L 394.86152 64.310947 
L 397.936961 66.990029 
L 401.012402 50.547152 
L 404.087843 57.264003 
L 407.163284 70.343658 
L 410.238725 79.495603 
L 413.314166 52.566036 
L 416.389607 36.510682 
L 419.465048 71.223937 
L 422.540488 75.476974 
L 425.615929 78.232603 
L 428.69137 72.750054 
L 431.766811 75.448276 
L 434.842252 74.644543 
L 437.917693 71.420077 
L 440.993134 73.218892 
L 444.068575 73.037101 
L 447.144016 52.068489 
L 450.219457 71.133031 
L 453.294897 84.490175 
L 456.370338 92.642247 
L 459.445779 79.165498 
L 462.52122 91.360107 
L 465.596661 82.193825 
L 468.672102 47.777174 
L 471.747543 51.987164 
L 474.822984 55.704386 
L 477.898425 44.251312 
L 480.973865 49.977849 
L 484.049306 51.049489 
L 487.124747 53.728571 
L 490.200188 72.663938 
L 493.275629 72.061147 
L 496.35107 70.826856 
L 499.426511 71.544461 
L 502.501952 75.878835 
L 505.577393 78.749289 
L 508.652833 82.165116 
L 511.728274 83.227186 
L 514.803715 80.299324 
L 517.879156 87.217105 
L 520.954597 91.020444 
L 524.030038 92.192537 
L 527.105479 97.335417 
L 530.18092 100.779953 
L 533.256361 106.40603 
L 536.331801 117.289802 
L 539.407242 120.198518 
L 542.482683 125.537548 
L 545.558124 131.560696 
L 548.633565 134.478987 
L 551.709006 138.655483 
L 554.784447 140.105059 
L 557.859888 140.923135 
L 560.935329 145.056578 
L 564.010769 144.970468 
L 567.08621 154.557753 
L 570.161651 140.148117 
L 573.237092 141.942141 
L 576.312533 152.127444 
L 579.387974 164.135477 
L 582.463415 170.469588 
L 585.538856 169.39796 
L 588.614297 172.11531 
L 591.689737 173.46442 
L 594.765178 176.545363 
L 597.840619 181.602132 
L 603.991501 180.157347 
L 607.066942 178.40637 
L 610.142383 173.761037 
L 619.368705 176.401846 
L 622.444146 176.83241 
L 625.519587 175.526357 
L 631.670469 177.550021 
L 634.74591 179.34405 
L 637.821351 183.109116 
L 640.896792 178.334608 
L 643.972233 174.583897 
L 647.047673 180.807975 
L 650.123114 181.272033 
L 653.198555 180.506585 
L 656.273996 178.171951 
L 659.349437 181.645191 
L 662.424878 183.262203 
L 665.500319 185.34807 
L 668.57576 185.218895 
L 674.726642 177.339526 
L 680.877523 178.124108 
L 683.952964 174.708281 
L 687.028405 175.024031 
L 690.103846 174.650869 
L 693.179287 172.804217 
L 696.254728 171.359431 
L 699.330169 164.255076 
L 702.40561 165.073152 
L 705.48105 170.373913 
L 708.556491 157.940097 
L 711.631932 156.337434 
L 714.707373 142.688461 
L 717.782814 140.368181 
L 720.858255 143.50654 
L 723.933696 148.654204 
L 727.009137 148.271477 
L 730.084578 147.21898 
L 733.160018 134.560319 
L 739.3109 90.388944 
L 742.386341 116.06508 
L 745.461782 105.420507 
L 748.537223 102.286936 
L 751.612664 86.255501 
L 754.688105 73.726008 
L 757.763546 84.949454 
L 760.838986 90.709479 
L 763.914427 79.294673 
L 766.989868 82.452162 
L 770.065309 82.624383 
L 773.14075 85.418291 
L 776.216191 96.378603 
L 779.291632 79.557789 
L 782.367073 75.649206 
L 785.442514 79.868754 
L 788.517954 113.682609 
L 791.593395 80.098394 
L 794.668836 90.231072 
L 797.744277 101.765477 
L 800.819718 107.908229 
L 803.895159 108.530159 
L 806.9706 105.061704 
L 810.046041 84.978151 
L 813.121482 104.157512 
L 816.196922 106.903571 
L 819.272363 109.080328 
L 822.347804 118.002627 
L 825.423245 97.464592 
L 828.498686 104.439774 
L 831.574127 107.692944 
L 834.649568 114.773376 
L 837.725009 114.271051 
L 840.80045 116.974051 
L 843.87589 99.311243 
L 846.951331 95.08212 
L 850.026772 95.139527 
L 853.102213 87.676373 
L 856.177654 83.284593 
L 859.253095 77.601103 
L 862.328536 78.749289 
L 865.403977 90.89127 
L 868.479418 109.840997 
L 871.554858 103.597774 
L 874.630299 112.448317 
L 877.70574 113.888324 
L 880.781181 109.176008 
L 883.856622 96.034149 
L 886.932063 103.67432 
L 890.007504 106.401246 
L 893.082945 107.214537 
L 896.158386 108.601921 
L 899.233827 110.587311 
L 902.309267 110.108904 
L 905.384708 90.943897 
L 908.460149 84.117023 
L 911.53559 71.558821 
L 914.611031 47.198302 
L 917.686472 65.014203 
L 920.761913 74.73066 
L 923.837354 70.94167 
L 926.912795 81.361394 
L 929.988235 86.930059 
L 933.063676 88.106943 
L 936.139117 80.270626 
L 939.214558 76.505556 
L 942.289999 65.181645 
L 945.36544 82.050301 
L 948.440881 87.130989 
L 951.516322 88.451397 
L 954.591763 82.49043 
L 957.667203 89.389071 
L 960.742644 92.670945 
L 963.818085 100.516831 
L 966.893526 97.120138 
L 969.968967 99.512174 
L 973.044408 110.247642 
L 976.119849 114.763807 
L 979.19529 116.275575 
L 982.270731 118.399709 
L 985.346171 127.106723 
L 988.421612 126.035095 
L 988.421612 126.035095 
" clip-path="url(#p85edd58fa6)" style="fill: none; stroke: #1f77b4; stroke-width: 1.5; stroke-linecap: square"/>
   </g>
   <g id="line2d_13">
    <path d="M 548.633565 127.95786 
L 551.709006 128.95402 
L 554.784447 137.243678 
L 557.859888 140.258643 
L 560.935329 139.757235 
L 564.010769 144.36403 
L 567.08621 157.623229 
L 570.161651 145.146852 
L 573.237092 153.114085 
L 576.312533 151.260989 
L 579.387974 155.275426 
L 582.463415 160.792073 
L 585.538856 159.694901 
L 588.614297 158.948655 
L 591.689737 162.551348 
L 594.765178 162.998725 
L 597.840619 168.350723 
L 600.91606 170.099026 
L 603.991501 167.442807 
L 607.066942 170.418203 
L 610.142383 170.298764 
L 613.217824 170.577393 
L 616.293265 172.53566 
L 619.368705 178.326339 
L 622.444146 177.938342 
L 625.519587 174.994558 
L 628.595028 176.97672 
L 631.670469 185.536818 
L 634.74591 183.643972 
L 637.821351 182.135392 
L 640.896792 180.820014 
L 643.972233 180.678801 
L 647.047673 184.547439 
L 650.123114 181.517607 
L 653.198555 184.374009 
L 656.273996 182.170956 
L 659.349437 177.588619 
L 662.424878 178.361093 
L 665.500319 180.867652 
L 668.57576 178.335743 
L 671.651201 180.48318 
L 674.726642 179.277524 
L 677.802082 177.933204 
L 680.877523 173.057113 
L 683.952964 178.374165 
L 687.028405 177.546091 
L 690.103846 168.39722 
L 693.179287 170.033942 
L 696.254728 167.03838 
L 699.330169 162.830633 
L 702.40561 159.136183 
L 705.48105 162.546062 
L 708.556491 155.560745 
L 711.631932 153.206275 
L 714.707373 141.389018 
L 717.782814 130.979759 
L 720.858255 128.446059 
L 723.933696 132.038407 
L 727.009137 128.025458 
L 730.084578 125.371196 
L 733.160018 110.112058 
L 736.235459 101.291569 
L 739.3109 112.195158 
L 742.386341 103.558668 
L 745.461782 106.25113 
L 748.537223 104.394532 
L 751.612664 87.317981 
L 754.688105 84.495341 
L 757.763546 86.690416 
L 760.838986 86.695823 
L 763.914427 89.293465 
L 766.989868 85.035034 
L 770.065309 75.468876 
L 773.14075 67.273072 
L 776.216191 82.809927 
L 779.291632 79.185094 
L 782.367073 72.603851 
L 785.442514 70.86607 
L 788.517954 80.516999 
L 791.593395 57.122236 
L 794.668836 70.436299 
L 797.744277 68.67752 
L 800.819718 71.970628 
L 803.895159 77.810679 
L 806.9706 70.28762 
L 810.046041 59.435615 
L 813.121482 69.418644 
L 816.196922 67.101068 
L 819.272363 70.153644 
L 822.347804 70.863219 
L 825.423245 64.733692 
L 828.498686 64.20179 
L 831.574127 65.466501 
L 834.649568 65.615363 
L 837.725009 67.81792 
L 840.80045 69.392136 
L 843.87589 61.95484 
L 846.951331 63.107087 
L 850.026772 69.088528 
L 853.102213 75.625801 
L 856.177654 62.50303 
L 859.253095 58.051208 
L 862.328536 70.86785 
L 865.403977 70.392442 
L 868.479418 75.801467 
L 871.554858 72.944289 
L 874.630299 73.353199 
L 877.70574 75.632371 
L 880.781181 74.76765 
L 883.856622 74.907911 
L 886.932063 77.301988 
L 890.007504 68.039758 
L 893.082945 72.940594 
L 896.158386 75.035751 
L 899.233827 77.505873 
L 902.309267 70.586084 
L 905.384708 76.267042 
L 908.460149 74.59471 
L 911.53559 57.812808 
L 914.611031 61.845228 
L 917.686472 64.034086 
L 920.761913 60.980803 
L 923.837354 64.485883 
L 926.912795 65.631491 
L 929.988235 62.3704 
L 933.063676 72.086514 
L 936.139117 71.189092 
L 939.214558 71.494822 
L 942.289999 75.775586 
L 945.36544 80.896503 
L 948.440881 79.418863 
L 951.516322 84.343378 
L 954.591763 86.234468 
L 957.667203 84.923448 
L 960.742644 93.90616 
L 963.818085 92.776531 
L 966.893526 93.479582 
L 969.968967 102.551918 
L 973.044408 102.228537 
L 976.119849 107.487263 
L 979.19529 114.5017 
L 982.270731 116.821934 
L 985.346171 119.462281 
L 988.421612 123.935016 
L 988.421612 123.935016 
" clip-path="url(#p85edd58fa6)" style="fill: none; stroke: #ff7f0e; stroke-width: 1.5; stroke-linecap: square"/>
   </g>
   <g id="line2d_14">
    <path d="M 548.633565 192.988125 
L 548.633565 29.059375 
" clip-path="url(#p85edd58fa6)" style="fill: none; stroke-dasharray: 7.4,3.2; stroke-dashoffset: 0; stroke: #0000ff; stroke-width: 2"/>
   </g>
   <g id="patch_3">
    <path d="M 61.6375 192.988125 
L 61.6375 29.059375 
" style="fill: none; stroke: #000000; stroke-width: 0.8; stroke-linejoin: miter; stroke-linecap: square"/>
   </g>
   <g id="patch_4">
    <path d="M 1032.554189 192.988125 
L 1032.554189 29.059375 
" style="fill: none; stroke: #000000; stroke-width: 0.8; stroke-linejoin: miter; stroke-linecap: square"/>
   </g>
   <g id="patch_5">
    <path d="M 61.6375 192.988125 
L 1032.554189 192.988125 
" style="fill: none; stroke: #000000; stroke-width: 0.8; stroke-linejoin: miter; stroke-linecap: square"/>
   </g>
   <g id="patch_6">
    <path d="M 61.6375 29.059375 
L 1032.554189 29.059375 
" style="fill: none; stroke: #000000; stroke-width: 0.8; stroke-linejoin: miter; stroke-linecap: square"/>
   </g>
   <g id="text_13">
    <!-- 云函数ID: 28 -->
    <g transform="translate(487.095845 23.059375) scale(0.2 -0.2)">
     <defs>
      <path id="SimSun-4e91" d="M 1200 4450 
L 4500 4450 
L 4850 4800 
L 5350 4300 
L 1975 4300 
Q 1700 4300 1425 4225 
L 1200 4450 
z
M 1600 275 
Q 2300 300 4725 450 
Q 4425 975 3850 1700 
L 3925 1775 
Q 5200 725 5287 500 
Q 5375 275 5375 175 
Q 5375 0 5250 -162 
Q 5125 -325 5075 -325 
Q 5025 -325 4975 -200 
Q 4875 50 4775 300 
Q 1650 -25 1300 -300 
L 975 300 
Q 1225 350 1462 550 
Q 1700 750 2150 1462 
Q 2600 2175 2725 2600 
L 1250 2600 
Q 925 2600 650 2525 
L 425 2750 
L 5025 2750 
L 5450 3175 
L 6025 2600 
L 3250 2600 
Q 3000 2025 2500 1375 
Q 2000 725 1600 275 
z
" transform="scale(0.015625)"/>
      <path id="SimSun-51fd" d="M 3050 2275 
L 3050 3000 
Q 3050 3450 3025 3800 
L 3275 3625 
L 4450 4475 
L 1650 4475 
Q 1325 4475 1050 4400 
L 825 4625 
L 4450 4625 
L 4775 4875 
L 5150 4375 
Q 4875 4325 4550 4175 
Q 4225 4025 3400 3550 
L 3550 3450 
L 3375 3325 
L 3375 2400 
Q 4250 3225 4475 3600 
L 4875 3150 
L 4625 3125 
Q 3625 2425 3400 2275 
Q 4575 1675 4687 1487 
Q 4800 1300 4800 1150 
Q 4800 1025 4750 925 
Q 4700 825 4675 825 
Q 4575 825 4375 1150 
Q 4075 1600 3375 2150 
L 3375 725 
Q 3375 350 2875 150 
Q 2850 450 2200 650 
L 2200 750 
Q 2800 675 2925 700 
Q 3050 725 3050 850 
L 3050 2100 
Q 1850 1300 1625 1025 
L 1275 1400 
Q 1575 1475 2087 1725 
Q 2600 1975 3050 2275 
z
M 1700 3475 
L 1775 3550 
Q 2350 3200 2475 3025 
Q 2600 2850 2600 2775 
Q 2600 2650 2500 2525 
Q 2400 2400 2350 2400 
Q 2275 2400 2225 2575 
Q 2150 2875 1700 3475 
z
M 5150 0 
L 5150 2175 
Q 5150 2725 5125 3325 
L 5725 3050 
L 5500 2850 
L 5500 525 
Q 5500 100 5525 -400 
L 5150 -600 
L 5150 -150 
L 1250 -150 
L 1000 -375 
L 675 -50 
L 875 125 
L 875 2375 
Q 875 2800 850 3425 
L 1450 3150 
L 1225 2975 
L 1225 0 
L 5150 0 
z
" transform="scale(0.015625)"/>
      <path id="SimSun-6570" d="M 1875 1525 
Q 1675 1200 1500 900 
Q 1825 825 2275 725 
Q 2500 975 2725 1525 
L 1875 1525 
z
M 850 4900 
Q 1325 4600 1425 4450 
Q 1525 4300 1525 4225 
Q 1525 4100 1437 3975 
Q 1350 3850 1300 3850 
Q 1225 3850 1150 4100 
Q 1050 4450 775 4850 
L 850 4900 
z
M 3000 4975 
L 3450 4675 
Q 3250 4625 3100 4425 
Q 2925 4225 2525 3825 
L 2450 3875 
Q 2925 4625 3000 4975 
z
M 1875 5250 
L 2425 5000 
L 2225 4825 
L 2225 3675 
L 2850 3675 
L 3125 3950 
L 3550 3525 
L 2225 3525 
L 2225 3300 
Q 2800 3175 2937 3062 
Q 3075 2950 3075 2775 
Q 3075 2700 3050 2587 
Q 3025 2475 2975 2475 
Q 2925 2475 2800 2650 
Q 2600 2925 2225 3175 
L 2225 2400 
L 1925 2200 
L 2275 2050 
Q 2150 2000 1950 1675 
L 2725 1675 
L 2900 1900 
L 3275 1575 
L 3050 1450 
Q 2800 875 2600 650 
Q 3000 550 3137 437 
Q 3275 325 3275 150 
Q 3275 -25 3200 -25 
Q 3125 -25 3025 75 
Q 2750 275 2400 425 
Q 1525 -275 325 -500 
L 300 -425 
Q 1450 -50 2100 550 
Q 1600 725 1125 800 
Q 1225 950 1525 1525 
L 1200 1525 
Q 875 1525 600 1450 
L 375 1675 
L 1575 1675 
Q 1675 1925 1775 2275 
L 1900 2225 
L 1900 3250 
Q 1225 2475 350 2050 
L 300 2125 
Q 1225 2775 1700 3525 
L 1250 3525 
Q 925 3525 650 3450 
L 425 3675 
L 1900 3675 
Q 1900 4575 1875 5250 
z
M 3925 3525 
Q 4050 2075 4525 1100 
Q 4925 1950 5025 3525 
L 3925 3525 
z
M 4050 5250 
L 4625 4925 
Q 4425 4850 4325 4625 
Q 4225 4400 3950 3675 
L 5375 3675 
L 5675 3975 
L 6125 3525 
L 5400 3525 
Q 5250 1675 4750 775 
Q 5325 75 6100 -100 
L 6100 -200 
Q 5625 -275 5600 -500 
Q 4950 -50 4525 525 
Q 3700 -275 2550 -650 
L 2500 -575 
Q 3650 -50 4325 800 
Q 3850 1975 3825 3375 
Q 3575 2725 3100 2150 
L 3025 2200 
Q 3625 3200 4050 5250 
z
" transform="scale(0.015625)"/>
      <path id="SimSun-49" d="M 600 4225 
L 600 4375 
L 2600 4375 
L 2600 4225 
L 2025 4225 
Q 1925 4225 1862 4175 
Q 1800 4125 1800 4025 
L 1800 450 
Q 1800 350 1862 300 
Q 1925 250 2025 250 
L 2600 250 
L 2600 100 
L 600 100 
L 600 250 
L 1175 250 
Q 1300 250 1350 300 
Q 1400 350 1400 450 
L 1400 4025 
Q 1400 4125 1350 4175 
Q 1300 4225 1175 4225 
L 600 4225 
z
" transform="scale(0.015625)"/>
      <path id="SimSun-44" d="M 2500 2275 
Q 2500 3350 2175 3787 
Q 1850 4225 1275 4225 
Q 1100 4225 1012 4175 
Q 925 4125 925 4025 
L 925 450 
Q 925 350 1000 300 
Q 1075 250 1200 250 
Q 1750 250 2125 662 
Q 2500 1075 2500 2275 
z
M 525 4025 
Q 525 4125 475 4175 
Q 425 4225 300 4225 
L 150 4225 
L 150 4375 
L 1275 4375 
Q 2050 4375 2512 3875 
Q 2975 3375 2975 2325 
Q 2975 1175 2525 637 
Q 2075 100 1200 100 
L 125 100 
L 125 250 
L 300 250 
Q 425 250 475 300 
Q 525 350 525 450 
L 525 4025 
z
" transform="scale(0.015625)"/>
      <path id="SimSun-3a" d="M 1900 2725 
Q 1900 2575 1800 2475 
Q 1700 2375 1550 2375 
Q 1400 2375 1300 2475 
Q 1200 2575 1200 2725 
Q 1200 2875 1300 2975 
Q 1400 3075 1550 3075 
Q 1700 3075 1800 2975 
Q 1900 2875 1900 2725 
z
M 1900 375 
Q 1900 225 1800 125 
Q 1700 25 1550 25 
Q 1400 25 1300 125 
Q 1200 225 1200 375 
Q 1200 525 1300 625 
Q 1400 725 1550 725 
Q 1700 725 1800 625 
Q 1900 525 1900 375 
z
" transform="scale(0.015625)"/>
      <path id="SimSun-20" d="M 0 0 
Q 0 0 0 0 
z
" transform="scale(0.015625)"/>
      <path id="SimSun-32" d="M 2325 3325 
Q 2325 3775 2125 4012 
Q 1925 4250 1525 4250 
Q 1225 4250 1012 4087 
Q 800 3925 800 3675 
Q 800 3525 900 3425 
Q 975 3325 975 3225 
Q 975 3100 912 3037 
Q 850 2975 725 2975 
Q 575 2975 487 3062 
Q 400 3150 400 3350 
Q 400 3875 775 4150 
Q 1150 4425 1575 4425 
Q 2175 4425 2462 4125 
Q 2750 3825 2750 3375 
Q 2750 3075 2612 2775 
Q 2475 2475 2175 2200 
Q 1450 1500 1062 1062 
Q 675 625 600 475 
L 2075 475 
Q 2300 475 2450 650 
Q 2600 825 2650 1175 
L 2800 1175 
L 2650 100 
L 325 100 
L 325 425 
Q 450 650 737 1000 
Q 1025 1350 1500 1825 
Q 1925 2250 2125 2625 
Q 2325 3000 2325 3325 
z
" transform="scale(0.015625)"/>
      <path id="SimSun-38" d="M 625 1125 
Q 625 725 887 475 
Q 1150 225 1550 225 
Q 2025 225 2237 475 
Q 2450 725 2450 1100 
Q 2450 1425 2150 1725 
Q 1850 2025 1250 2275 
Q 950 2075 787 1775 
Q 625 1475 625 1125 
z
M 2825 1175 
Q 2825 700 2475 375 
Q 2125 50 1550 50 
Q 1025 50 650 375 
Q 275 700 275 1125 
Q 275 1550 487 1850 
Q 700 2150 1100 2375 
Q 750 2550 562 2812 
Q 375 3075 375 3400 
Q 375 3825 700 4125 
Q 1025 4425 1600 4425 
Q 2125 4425 2450 4125 
Q 2775 3825 2775 3400 
Q 2775 3100 2587 2837 
Q 2400 2575 2000 2375 
Q 2425 2125 2625 1825 
Q 2825 1525 2825 1175 
z
M 2425 3375 
Q 2425 3725 2225 3987 
Q 2025 4250 1600 4250 
Q 1125 4250 925 4000 
Q 725 3750 725 3475 
Q 725 3200 1012 2937 
Q 1300 2675 1825 2475 
Q 2125 2625 2275 2850 
Q 2425 3075 2425 3375 
z
" transform="scale(0.015625)"/>
     </defs>
     <use xlink:href="#SimSun-4e91"/>
     <use xlink:href="#SimSun-51fd" x="100"/>
     <use xlink:href="#SimSun-6570" x="200"/>
     <use xlink:href="#SimSun-49" x="300"/>
     <use xlink:href="#SimSun-44" x="350"/>
     <use xlink:href="#SimSun-3a" x="400"/>
     <use xlink:href="#SimSun-20" x="450"/>
     <use xlink:href="#SimSun-32" x="500"/>
     <use xlink:href="#SimSun-38" x="550"/>
    </g>
   </g>
   <g id="legend_1">
    <g id="patch_7">
     <path d="M 75.6375 101.934375 
L 199.6375 101.934375 
Q 203.6375 101.934375 203.6375 97.934375 
L 203.6375 43.059375 
Q 203.6375 39.059375 199.6375 39.059375 
L 75.6375 39.059375 
Q 71.6375 39.059375 71.6375 43.059375 
L 71.6375 97.934375 
Q 71.6375 101.934375 75.6375 101.934375 
z
" style="fill: #ffffff; opacity: 0.8; stroke: #cccccc; stroke-linejoin: miter"/>
    </g>
    <g id="line2d_15">
     <path d="M 79.6375 55.996875 
L 99.6375 55.996875 
L 119.6375 55.996875 
" style="fill: none; stroke: #1f77b4; stroke-width: 1.5; stroke-linecap: square"/>
    </g>
    <g id="text_14">
     <!-- 真实值 -->
     <g transform="translate(135.6375 62.996875) scale(0.2 -0.2)">
      <defs>
       <path id="SimSun-771f" d="M 2050 3450 
L 2050 2900 
L 4300 2900 
L 4300 3450 
L 2050 3450 
z
M 2050 2750 
L 2050 2225 
L 4300 2225 
L 4300 2750 
L 2050 2750 
z
M 2050 2075 
L 2050 1550 
L 4300 1550 
L 4300 2075 
L 2050 2075 
z
M 2050 1400 
L 2050 875 
L 4300 875 
L 4300 1400 
L 2050 1400 
z
M 2875 3600 
L 2925 4325 
L 1525 4325 
Q 1200 4325 925 4250 
L 700 4475 
L 2950 4475 
Q 2975 4825 2975 5275 
L 3550 5025 
L 3375 4925 
L 3300 4475 
L 5000 4475 
L 5325 4825 
L 5775 4325 
L 3275 4325 
L 3200 3600 
L 4275 3600 
L 4450 3875 
L 4850 3575 
L 4650 3375 
L 4650 875 
L 5300 875 
L 5675 1225 
L 6125 725 
L 1150 725 
Q 825 725 550 650 
L 325 875 
L 1700 875 
Q 1700 3200 1675 3775 
L 2050 3600 
L 2875 3600 
z
M 2425 725 
L 2825 350 
L 2575 300 
Q 1500 -425 800 -650 
L 775 -575 
Q 1950 125 2425 725 
z
M 3800 700 
Q 4575 375 4962 200 
Q 5350 25 5400 -112 
Q 5450 -250 5450 -325 
Q 5450 -400 5400 -525 
Q 5350 -650 5325 -650 
Q 5250 -650 5100 -450 
Q 4875 -150 3750 625 
L 3800 700 
z
" transform="scale(0.015625)"/>
       <path id="SimSun-5b9e" d="M 1950 3625 
Q 2575 3400 2700 3250 
Q 2825 3100 2825 2975 
Q 2825 2850 2750 2700 
Q 2675 2550 2625 2550 
Q 2550 2550 2450 2800 
Q 2275 3175 1900 3550 
L 1950 3625 
z
M 3575 1325 
Q 3500 1100 3425 925 
Q 4650 550 5087 325 
Q 5525 100 5512 -225 
Q 5500 -550 5400 -550 
Q 5300 -550 5075 -300 
Q 4625 175 3375 800 
Q 3025 175 2300 -150 
Q 1575 -475 425 -625 
L 425 -525 
Q 1475 -325 2200 100 
Q 2925 525 3200 1325 
L 1225 1325 
Q 900 1325 625 1250 
L 400 1475 
L 3225 1475 
Q 3325 1950 3375 2575 
Q 3425 3200 3425 3700 
L 4050 3400 
L 3850 3225 
Q 3750 2300 3625 1475 
L 5175 1475 
L 5550 1850 
L 6075 1325 
L 3575 1325 
z
M 1275 2700 
Q 1975 2425 2100 2262 
Q 2225 2100 2225 1975 
Q 2225 1850 2150 1700 
Q 2075 1550 2025 1550 
Q 1950 1550 1850 1800 
Q 1675 2175 1225 2625 
L 1275 2700 
z
M 2750 5225 
L 2825 5275 
Q 3225 5100 3425 4925 
Q 3625 4750 3625 4600 
Q 3625 4450 3512 4300 
Q 3400 4150 3325 4150 
Q 3250 4150 3200 4400 
Q 3100 4775 2750 5225 
z
M 4975 3225 
L 5350 3925 
L 1175 3925 
Q 1225 3525 1125 3300 
Q 1025 3075 787 3100 
Q 550 3125 550 3200 
Q 550 3300 700 3475 
Q 975 3825 1050 4375 
L 1150 4375 
L 1175 4075 
L 5300 4075 
L 5575 4350 
L 6050 3800 
Q 5625 3825 5050 3175 
L 4975 3225 
z
" transform="scale(0.015625)"/>
       <path id="SimSun-503c" d="M 1525 650 
Q 1525 -225 1550 -525 
L 1175 -650 
Q 1200 250 1200 550 
L 1200 3025 
Q 750 2300 325 1850 
L 250 1900 
Q 725 2625 1100 3525 
Q 1475 4425 1675 5200 
L 2200 4875 
L 1950 4725 
Q 1550 3800 1425 3475 
L 1725 3300 
L 1525 3150 
L 1525 650 
z
M 2875 3225 
L 2875 2475 
L 4800 2475 
L 4800 3225 
L 2875 3225 
z
M 2875 2325 
L 2875 1575 
L 4800 1575 
L 4800 2325 
L 2875 2325 
z
M 2875 1425 
L 2875 675 
L 4800 675 
L 4800 1425 
L 2875 1425 
z
M 2875 525 
L 2875 -225 
L 4800 -225 
L 4800 525 
L 2875 525 
z
M 3550 4250 
Q 3575 4825 3550 5225 
L 4125 4950 
L 3925 4800 
L 3900 4250 
L 5025 4250 
L 5350 4575 
L 5825 4100 
L 3900 4100 
L 3875 3375 
L 4750 3375 
L 4975 3625 
L 5350 3300 
L 5125 3150 
L 5125 -225 
L 5350 -225 
L 5675 100 
L 6150 -375 
L 2450 -375 
Q 2125 -375 1850 -450 
L 1625 -225 
L 2550 -225 
L 2550 2550 
Q 2550 2850 2525 3575 
L 2875 3375 
L 3525 3375 
L 3550 4100 
L 2800 4100 
Q 2475 4100 2200 4025 
L 1975 4250 
L 3550 4250 
z
" transform="scale(0.015625)"/>
      </defs>
      <use xlink:href="#SimSun-771f"/>
      <use xlink:href="#SimSun-5b9e" x="100"/>
      <use xlink:href="#SimSun-503c" x="200"/>
     </g>
    </g>
    <g id="line2d_16">
     <path d="M 79.6375 84.35625 
L 99.6375 84.35625 
L 119.6375 84.35625 
" style="fill: none; stroke: #ff7f0e; stroke-width: 1.5; stroke-linecap: square"/>
    </g>
    <g id="text_15">
     <!-- 预测值 -->
     <g transform="translate(135.6375 91.35625) scale(0.2 -0.2)">
      <defs>
       <path id="SimSun-9884" d="M 475 4825 
L 2225 4825 
L 2425 5075 
L 2825 4675 
Q 2600 4625 2387 4412 
Q 2175 4200 1800 3750 
Q 2050 3575 2037 3400 
Q 2025 3225 1937 3150 
Q 1850 3075 1825 3075 
Q 1725 3075 1650 3300 
Q 1525 3600 1050 4100 
L 1100 4150 
Q 1475 3975 1700 3825 
L 2225 4675 
L 1300 4675 
Q 975 4675 700 4600 
L 475 4825 
z
M 725 100 
Q 1175 50 1362 37 
Q 1550 25 1550 275 
L 1550 2875 
L 1125 2875 
Q 800 2875 525 2800 
L 300 3025 
L 2525 3025 
L 2725 3275 
L 3150 2875 
Q 2800 2825 2275 2075 
L 2200 2125 
L 2550 2875 
L 1875 2875 
L 1875 150 
Q 1875 -400 1350 -500 
Q 1325 -175 725 0 
L 725 100 
z
M 3250 775 
Q 3275 1425 3275 2287 
Q 3275 3150 3250 3900 
L 3600 3700 
L 4050 3700 
Q 4175 4400 4200 4675 
L 3650 4675 
Q 3325 4675 3050 4600 
L 2825 4825 
L 5325 4825 
L 5675 5150 
L 6125 4675 
L 4675 4675 
Q 4500 4425 4175 3700 
L 5300 3700 
L 5475 3975 
L 5875 3675 
L 5675 3475 
L 5675 1950 
Q 5675 1525 5700 1075 
L 5350 875 
L 5350 3550 
L 3600 3550 
L 3600 1000 
L 3250 775 
z
M 4850 2875 
L 4625 2675 
Q 4625 1475 4475 937 
Q 4325 400 3900 50 
Q 3475 -300 2425 -625 
L 2400 -550 
Q 3500 -50 3837 400 
Q 4175 850 4237 1587 
Q 4300 2325 4275 3175 
L 4850 2875 
z
M 4650 950 
Q 5725 375 5875 212 
Q 6025 50 6025 -125 
Q 6025 -225 5962 -387 
Q 5900 -550 5850 -550 
Q 5800 -550 5750 -450 
Q 5625 -250 5437 0 
Q 5250 250 4600 875 
L 4650 950 
z
" transform="scale(0.015625)"/>
       <path id="SimSun-6d4b" d="M 1975 1000 
Q 2000 1475 2000 2925 
Q 2000 4375 1975 5000 
L 2350 4775 
L 3575 4775 
L 3775 4975 
L 4100 4650 
L 3900 4500 
L 3900 2350 
Q 3900 1850 3925 1350 
L 3600 1200 
L 3600 4625 
L 2325 4625 
L 2325 1150 
L 1975 1000 
z
M 2775 3975 
L 3300 3700 
L 3125 3525 
Q 3150 1825 2875 937 
Q 2600 50 1375 -600 
L 1325 -500 
Q 2200 100 2475 725 
Q 2750 1350 2775 2187 
Q 2800 3025 2775 3975 
z
M 3100 950 
Q 3825 450 3937 262 
Q 4050 75 4050 -25 
Q 4050 -150 3975 -262 
Q 3900 -375 3850 -375 
Q 3750 -375 3650 -75 
Q 3500 375 3050 875 
L 3100 950 
z
M 4475 825 
Q 4500 1200 4500 1700 
L 4500 3400 
Q 4500 3950 4475 4300 
L 5025 4025 
L 4825 3825 
L 4825 1700 
Q 4825 1325 4850 950 
L 4475 825 
z
M 5375 150 
L 5375 4050 
Q 5375 4750 5350 5125 
L 5875 4875 
L 5700 4700 
L 5700 75 
Q 5700 -200 5600 -350 
Q 5500 -500 5200 -600 
Q 5025 -225 4450 -50 
L 4450 50 
Q 5125 -50 5250 -37 
Q 5375 -25 5375 150 
z
M 1850 3500 
Q 1375 1525 1300 1225 
Q 1200 900 1212 450 
Q 1225 0 1250 -175 
Q 1250 -275 1125 -275 
Q 1025 -275 875 -225 
Q 725 -175 725 0 
Q 725 125 800 375 
Q 875 625 875 775 
Q 875 950 762 1050 
Q 650 1150 275 1250 
L 275 1350 
Q 725 1300 837 1312 
Q 950 1325 1087 1537 
Q 1225 1750 1750 3525 
L 1850 3500 
z
M 375 3775 
Q 1075 3350 1112 3100 
Q 1150 2850 1050 2775 
Q 950 2700 900 2700 
Q 800 2700 725 2975 
Q 600 3350 325 3700 
L 375 3775 
z
M 800 5100 
Q 1475 4725 1550 4512 
Q 1625 4300 1525 4187 
Q 1425 4075 1350 4075 
Q 1275 4075 1200 4300 
Q 1075 4650 750 5025 
L 800 5100 
z
" transform="scale(0.015625)"/>
      </defs>
      <use xlink:href="#SimSun-9884"/>
      <use xlink:href="#SimSun-6d4b" x="100"/>
      <use xlink:href="#SimSun-503c" x="200"/>
     </g>
    </g>
   </g>
  </g>
  <g id="axes_2">
   <g id="patch_8">
    <path d="M 61.6375 425.788125 
L 1032.554189 425.788125 
L 1032.554189 261.859375 
L 61.6375 261.859375 
z
" style="fill: #ffffff"/>
   </g>
   <g id="matplotlib.axis_3">
    <g id="xtick_8">
     <g id="line2d_17">
      <g>
       <use xlink:href="#m319981e467" x="105.770077" y="425.788125" style="stroke: #000000; stroke-width: 0.8"/>
      </g>
     </g>
     <g id="text_16">
      <!-- 0 -->
      <g transform="translate(100.770077 446.675625) scale(0.2 -0.2)">
       <use xlink:href="#TimesNewRomanPSMT-30"/>
      </g>
     </g>
    </g>
    <g id="xtick_9">
     <g id="line2d_18">
      <g>
       <use xlink:href="#m319981e467" x="259.542121" y="425.788125" style="stroke: #000000; stroke-width: 0.8"/>
      </g>
     </g>
     <g id="text_17">
      <!-- 50 -->
      <g transform="translate(249.542121 446.675625) scale(0.2 -0.2)">
       <use xlink:href="#TimesNewRomanPSMT-35"/>
       <use xlink:href="#TimesNewRomanPSMT-30" x="50"/>
      </g>
     </g>
    </g>
    <g id="xtick_10">
     <g id="line2d_19">
      <g>
       <use xlink:href="#m319981e467" x="413.314166" y="425.788125" style="stroke: #000000; stroke-width: 0.8"/>
      </g>
     </g>
     <g id="text_18">
      <!-- 100 -->
      <g transform="translate(398.314166 446.675625) scale(0.2 -0.2)">
       <use xlink:href="#TimesNewRomanPSMT-31"/>
       <use xlink:href="#TimesNewRomanPSMT-30" x="50"/>
       <use xlink:href="#TimesNewRomanPSMT-30" x="100"/>
      </g>
     </g>
    </g>
    <g id="xtick_11">
     <g id="line2d_20">
      <g>
       <use xlink:href="#m319981e467" x="567.08621" y="425.788125" style="stroke: #000000; stroke-width: 0.8"/>
      </g>
     </g>
     <g id="text_19">
      <!-- 150 -->
      <g transform="translate(552.08621 446.675625) scale(0.2 -0.2)">
       <use xlink:href="#TimesNewRomanPSMT-31"/>
       <use xlink:href="#TimesNewRomanPSMT-35" x="50"/>
       <use xlink:href="#TimesNewRomanPSMT-30" x="100"/>
      </g>
     </g>
    </g>
    <g id="xtick_12">
     <g id="line2d_21">
      <g>
       <use xlink:href="#m319981e467" x="720.858255" y="425.788125" style="stroke: #000000; stroke-width: 0.8"/>
      </g>
     </g>
     <g id="text_20">
      <!-- 200 -->
      <g transform="translate(705.858255 446.675625) scale(0.2 -0.2)">
       <use xlink:href="#TimesNewRomanPSMT-32"/>
       <use xlink:href="#TimesNewRomanPSMT-30" x="50"/>
       <use xlink:href="#TimesNewRomanPSMT-30" x="100"/>
      </g>
     </g>
    </g>
    <g id="xtick_13">
     <g id="line2d_22">
      <g>
       <use xlink:href="#m319981e467" x="874.630299" y="425.788125" style="stroke: #000000; stroke-width: 0.8"/>
      </g>
     </g>
     <g id="text_21">
      <!-- 250 -->
      <g transform="translate(859.630299 446.675625) scale(0.2 -0.2)">
       <use xlink:href="#TimesNewRomanPSMT-32"/>
       <use xlink:href="#TimesNewRomanPSMT-35" x="50"/>
       <use xlink:href="#TimesNewRomanPSMT-30" x="100"/>
      </g>
     </g>
    </g>
    <g id="xtick_14">
     <g id="line2d_23">
      <g>
       <use xlink:href="#m319981e467" x="1028.402344" y="425.788125" style="stroke: #000000; stroke-width: 0.8"/>
      </g>
     </g>
     <g id="text_22">
      <!-- 300 -->
      <g transform="translate(1013.402344 446.675625) scale(0.2 -0.2)">
       <use xlink:href="#TimesNewRomanPSMT-33"/>
       <use xlink:href="#TimesNewRomanPSMT-30" x="50"/>
       <use xlink:href="#TimesNewRomanPSMT-30" x="100"/>
      </g>
     </g>
    </g>
   </g>
   <g id="matplotlib.axis_4">
    <g id="ytick_5">
     <g id="line2d_24">
      <g>
       <use xlink:href="#m777619f176" x="61.6375" y="383.284681" style="stroke: #000000; stroke-width: 0.8"/>
      </g>
     </g>
     <g id="text_23">
      <!-- 1.0 -->
      <g transform="translate(29.6375 390.228431) scale(0.2 -0.2)">
       <use xlink:href="#TimesNewRomanPSMT-31"/>
       <use xlink:href="#TimesNewRomanPSMT-2e" x="50"/>
       <use xlink:href="#TimesNewRomanPSMT-30" x="75"/>
      </g>
     </g>
    </g>
    <g id="ytick_6">
     <g id="line2d_25">
      <g>
       <use xlink:href="#m777619f176" x="61.6375" y="328.720337" style="stroke: #000000; stroke-width: 0.8"/>
      </g>
     </g>
     <g id="text_24">
      <!-- 2.0 -->
      <g transform="translate(29.6375 335.664087) scale(0.2 -0.2)">
       <use xlink:href="#TimesNewRomanPSMT-32"/>
       <use xlink:href="#TimesNewRomanPSMT-2e" x="50"/>
       <use xlink:href="#TimesNewRomanPSMT-30" x="75"/>
      </g>
     </g>
    </g>
    <g id="ytick_7">
     <g id="line2d_26">
      <g>
       <use xlink:href="#m777619f176" x="61.6375" y="274.155993" style="stroke: #000000; stroke-width: 0.8"/>
      </g>
     </g>
     <g id="text_25">
      <!-- 3.0 -->
      <g transform="translate(29.6375 281.099743) scale(0.2 -0.2)">
       <use xlink:href="#TimesNewRomanPSMT-33"/>
       <use xlink:href="#TimesNewRomanPSMT-2e" x="50"/>
       <use xlink:href="#TimesNewRomanPSMT-30" x="75"/>
      </g>
     </g>
    </g>
    <g id="text_26">
     <!-- CPU使用率 -->
     <g transform="translate(23.059375 388.82375) rotate(-90) scale(0.2 -0.2)">
      <use xlink:href="#SimSun-43"/>
      <use xlink:href="#SimSun-50" x="50"/>
      <use xlink:href="#SimSun-55" x="100"/>
      <use xlink:href="#SimSun-4f7f" x="150"/>
      <use xlink:href="#SimSun-7528" x="250"/>
      <use xlink:href="#SimSun-7387" x="350"/>
     </g>
    </g>
   </g>
   <g id="line2d_27">
    <path d="M 105.770077 295.108704 
L 108.845518 306.370781 
L 111.920959 311.739918 
L 114.996399 318.025733 
L 118.07184 323.918671 
L 121.147281 322.478181 
L 124.222722 346.704743 
L 127.298163 334.264077 
L 130.373604 343.038022 
L 133.449045 349.847651 
L 136.524486 358.883509 
L 139.599927 360.71687 
L 142.675367 350.764334 
L 145.750808 364.252641 
L 148.826249 371.324176 
L 151.90169 375.90758 
L 154.977131 382.979115 
L 158.052572 388.87207 
L 161.128013 385.074392 
L 164.203454 387.169663 
L 170.354335 393.193567 
L 173.429776 395.943611 
L 176.505217 397.253152 
L 179.580658 402.491333 
L 182.656099 406.943781 
L 185.73154 409.431911 
L 188.806981 410.348595 
L 191.882422 411.52719 
L 198.033303 409.170011 
L 201.108744 415.062954 
L 207.259626 416.110594 
L 210.335067 416.503451 
L 213.410508 416.634408 
L 216.485949 409.693825 
L 219.56139 412.44386 
L 222.636831 413.098644 
L 225.712272 412.18196 
L 228.787712 411.396233 
L 231.863153 409.955738 
L 234.938594 404.45565 
L 238.014035 405.241377 
L 241.089476 402.229426 
L 244.164917 396.991245 
L 247.240358 395.419791 
L 250.315799 391.491157 
L 253.39124 372.371809 
L 256.46668 382.848165 
L 259.542121 378.788581 
L 262.617562 372.240859 
L 265.693003 368.050318 
L 268.768444 363.07405 
L 271.843885 346.442836 
L 274.919326 345.13329 
L 277.994767 340.549885 
L 281.070208 342.252296 
L 284.145648 340.680842 
L 287.221089 335.704574 
L 290.29653 325.621088 
L 293.371971 323.525808 
L 296.447412 327.192542 
L 299.522853 325.359175 
L 302.598294 324.835361 
L 305.673735 321.954354 
L 308.749176 310.037501 
L 311.824616 311.478005 
L 314.900057 319.990037 
L 317.975498 319.597174 
L 321.050939 319.597174 
L 324.12638 315.930453 
L 327.201821 310.168465 
L 330.277262 314.489962 
L 333.352703 319.728137 
L 336.428144 316.847143 
L 339.503584 313.180409 
L 342.579025 315.799503 
L 345.654466 328.894946 
L 348.729907 301.656419 
L 351.805348 316.192366 
L 354.880789 315.799503 
L 357.95623 317.63287 
L 361.031671 320.644814 
L 364.107112 316.71618 
L 367.182552 320.775764 
L 370.257993 322.216268 
L 373.333434 318.811447 
L 376.408875 320.382901 
L 379.484316 323.394858 
L 382.559757 317.240006 
L 385.635198 317.109043 
L 388.710639 320.513864 
L 391.78608 322.478181 
L 394.86152 324.704398 
L 397.936961 323.001994 
L 401.012402 320.25195 
L 404.087843 321.430541 
L 407.163284 322.740081 
L 410.238725 319.07336 
L 413.314166 316.978093 
L 416.389607 310.561328 
L 419.465048 314.489962 
L 422.540488 315.930453 
L 425.615929 317.89477 
L 428.69137 314.358999 
L 431.766811 316.061416 
L 434.842252 311.478005 
L 437.917693 305.454104 
L 440.993134 303.489786 
L 444.068575 299.823066 
L 447.144016 290.525294 
L 450.219457 292.620561 
L 453.294897 295.108704 
L 456.370338 293.930114 
L 459.445779 292.882474 
L 462.52122 297.073022 
L 465.596661 294.322978 
L 468.672102 297.073022 
L 471.747543 296.811108 
L 474.822984 294.061064 
L 477.898425 296.156332 
L 480.973865 297.334922 
L 484.049306 294.715841 
L 487.124747 297.203972 
L 490.200188 296.680158 
L 493.275629 289.739567 
L 496.35107 294.192014 
L 499.426511 296.942058 
L 502.501952 297.596835 
L 505.577393 297.727785 
L 508.652833 295.632518 
L 511.728274 291.965797 
L 514.803715 289.346703 
L 517.879156 290.26338 
L 520.954597 291.049107 
L 524.030038 291.049107 
L 527.105479 289.870517 
L 530.18092 275.858397 
L 533.256361 291.965797 
L 536.331801 294.322978 
L 539.407242 294.715841 
L 542.482683 301.525469 
L 545.558124 303.358836 
L 548.633565 304.537414 
L 551.709006 311.739918 
L 554.784447 318.156683 
L 557.859888 322.216268 
L 560.935329 329.680673 
L 564.010769 334.13312 
L 567.08621 358.490646 
L 570.161651 345.264246 
L 573.237092 353.252465 
L 576.312533 359.800186 
L 579.387974 365.038361 
L 582.463415 371.717039 
L 585.538856 376.693307 
L 588.614297 381.931482 
L 591.689737 388.086343 
L 594.765178 389.788753 
L 597.840619 394.765021 
L 600.91606 397.646015 
L 603.991501 396.205518 
L 607.066942 397.907928 
L 613.217824 401.836556 
L 616.293265 404.324693 
L 619.368705 405.11042 
L 622.444146 409.562868 
L 625.519587 412.44386 
L 628.595028 414.015314 
L 631.670469 414.277227 
L 634.74591 415.455824 
L 637.821351 415.848681 
L 640.896792 413.229587 
L 643.972233 418.205862 
L 647.047673 418.336818 
L 650.123114 417.943948 
L 653.198555 418.336818 
L 656.273996 418.205862 
L 659.349437 416.241538 
L 662.424878 416.110594 
L 665.500319 414.931998 
L 668.57576 412.705774 
L 671.651201 410.741463 
L 674.726642 407.860464 
L 677.802082 398.693655 
L 680.877523 396.991245 
L 683.952964 392.145927 
L 687.028405 382.324345 
L 690.103846 378.002854 
L 693.179287 371.847996 
L 696.254728 347.49047 
L 699.330169 354.431055 
L 702.40561 348.407154 
L 705.48105 341.859432 
L 708.556491 338.192705 
L 711.631932 330.466393 
L 714.707373 315.013776 
L 717.782814 316.192366 
L 720.858255 312.787545 
L 723.933696 313.835186 
L 727.009137 317.240006 
L 733.160018 308.204148 
L 736.235459 308.335098 
L 739.3109 305.32314 
L 742.386341 309.120824 
L 745.461782 315.275689 
L 748.537223 311.085142 
L 751.612664 297.727785 
L 754.688105 303.489786 
L 757.763546 311.739918 
L 760.838986 312.001819 
L 763.914427 308.597011 
L 766.989868 314.620912 
L 770.065309 309.120824 
L 773.14075 311.478005 
L 776.216191 311.216092 
L 779.291632 315.537589 
L 782.367073 314.358999 
L 785.442514 313.049459 
L 788.517954 322.871044 
L 791.593395 297.073022 
L 794.668836 302.965973 
L 797.744277 308.204148 
L 800.819718 311.478005 
L 803.895159 312.787545 
L 806.9706 307.549371 
L 810.046041 316.71618 
L 813.121482 318.287633 
L 816.196922 316.323316 
L 819.272363 319.728137 
L 822.347804 318.680497 
L 825.423245 304.0136 
L 828.498686 315.537589 
L 831.574127 307.942234 
L 834.649568 307.680321 
L 837.725009 317.76382 
L 840.80045 316.192366 
L 843.87589 308.335098 
L 846.951331 315.144726 
L 850.026772 317.76382 
L 853.102213 315.013776 
L 856.177654 316.192366 
L 859.253095 315.930453 
L 862.328536 312.656595 
L 865.403977 312.394682 
L 868.479418 311.085142 
L 871.554858 305.716004 
L 874.630299 312.263732 
L 877.70574 302.311196 
L 880.781181 300.346879 
L 883.856622 297.073022 
L 886.932063 298.382562 
L 890.007504 290.26338 
L 893.082945 289.346703 
L 896.158386 290.787207 
L 899.233827 282.798988 
L 902.309267 278.870354 
L 905.384708 277.2989 
L 908.460149 274.286943 
L 911.53559 274.025043 
L 914.611031 272.977403 
L 917.686472 279.787031 
L 920.761913 283.191852 
L 923.837354 280.572758 
L 926.912795 285.418069 
L 929.988235 291.049107 
L 933.063676 289.739567 
L 936.139117 282.406125 
L 939.214558 288.430026 
L 942.289999 287.77525 
L 945.36544 287.906213 
L 948.440881 292.227697 
L 951.516322 288.430026 
L 954.591763 276.644124 
L 957.667203 283.977579 
L 960.742644 284.632342 
L 963.818085 281.882298 
L 966.893526 285.025206 
L 969.968967 280.965621 
L 973.044408 269.310682 
L 976.119849 283.977579 
L 979.19529 288.299076 
L 982.270731 287.251436 
L 985.346171 294.061064 
L 988.421612 297.858748 
L 988.421612 297.858748 
" clip-path="url(#pdaabd2b01d)" style="fill: none; stroke: #1f77b4; stroke-width: 1.5; stroke-linecap: square"/>
   </g>
   <g id="line2d_28">
    <path d="M 548.633565 299.348322 
L 551.709006 307.29685 
L 554.784447 312.314689 
L 557.859888 316.380674 
L 560.935329 320.983182 
L 564.010769 322.1989 
L 567.08621 337.680268 
L 570.161651 330.024231 
L 573.237092 339.549507 
L 576.312533 344.50433 
L 579.387974 351.508972 
L 582.463415 355.927192 
L 585.538856 351.714516 
L 588.614297 361.601817 
L 591.689737 366.900491 
L 594.765178 369.950838 
L 597.840619 376.625594 
L 600.91606 381.189368 
L 603.991501 379.327186 
L 607.066942 384.187181 
L 610.142383 386.933159 
L 613.217824 390.415645 
L 616.293265 394.590204 
L 619.368705 394.940254 
L 622.444146 396.592319 
L 625.519587 399.3928 
L 628.595028 401.777495 
L 631.670469 402.950224 
L 634.74591 405.832805 
L 637.821351 404.299299 
L 640.896792 404.008733 
L 643.972233 408.986393 
L 647.047673 410.836053 
L 650.123114 409.8409 
L 653.198555 411.972818 
L 656.273996 410.240007 
L 659.349437 404.431316 
L 662.424878 406.594186 
L 665.500319 407.875093 
L 668.57576 406.684684 
L 671.651201 405.938505 
L 674.726642 403.767271 
L 677.802082 398.818159 
L 680.877523 397.512294 
L 683.952964 396.381025 
L 687.028405 392.477049 
L 690.103846 388.968002 
L 693.179287 384.651611 
L 696.254728 371.843677 
L 699.330169 375.659483 
L 702.40561 371.697903 
L 705.48105 365.311 
L 708.556491 363.108674 
L 711.631932 358.835896 
L 714.707373 345.668096 
L 717.782814 345.366856 
L 720.858255 341.685682 
L 723.933696 341.106131 
L 727.009137 337.772925 
L 730.084578 334.215 
L 733.160018 326.356457 
L 736.235459 323.108943 
L 739.3109 326.075524 
L 742.386341 324.25916 
L 745.461782 325.121146 
L 748.537223 322.904244 
L 751.612664 311.630772 
L 754.688105 315.185367 
L 757.763546 318.196699 
L 760.838986 317.099937 
L 763.914427 317.805852 
L 766.989868 315.733728 
L 770.065309 310.154194 
L 773.14075 312.865574 
L 776.216191 316.890151 
L 779.291632 314.896043 
L 782.367073 313.604182 
L 785.442514 312.561694 
L 788.517954 322.069628 
L 791.593395 305.083239 
L 794.668836 313.813942 
L 797.744277 314.603961 
L 800.819718 315.797044 
L 803.895159 317.971888 
L 806.9706 312.231053 
L 810.046041 315.617049 
L 813.121482 317.469748 
L 816.196922 316.406458 
L 822.347804 321.540871 
L 825.423245 318.011371 
L 828.498686 317.809092 
L 831.574127 320.268186 
L 834.649568 320.80242 
L 837.725009 322.30417 
L 840.80045 320.551434 
L 843.87589 319.963902 
L 846.951331 320.548845 
L 850.026772 320.938964 
L 853.102213 319.788057 
L 856.177654 318.355229 
L 859.253095 314.880003 
L 862.328536 314.083309 
L 865.403977 315.278343 
L 868.479418 315.834862 
L 871.554858 312.344753 
L 874.630299 312.297335 
L 880.781181 305.698546 
L 883.856622 304.523064 
L 886.932063 304.249001 
L 890.007504 299.00985 
L 893.082945 298.287803 
L 896.158386 298.223486 
L 899.233827 295.789942 
L 902.309267 295.944347 
L 905.384708 297.756444 
L 908.460149 295.71203 
L 911.53559 296.210085 
L 914.611031 295.442467 
L 917.686472 290.036358 
L 920.761913 295.012996 
L 923.837354 296.151961 
L 926.912795 294.103305 
L 929.988235 295.650848 
L 933.063676 295.483967 
L 936.139117 288.924634 
L 939.214558 292.993989 
L 942.289999 294.533726 
L 945.36544 294.91397 
L 948.440881 293.91289 
L 951.516322 292.673222 
L 957.667203 288.280018 
L 960.742644 290.732698 
L 963.818085 291.082437 
L 966.893526 290.685267 
L 969.968967 290.677709 
L 973.044408 281.556237 
L 976.119849 291.549764 
L 979.19529 293.813734 
L 982.270731 294.945882 
L 985.346171 300.385946 
L 988.421612 301.978201 
L 988.421612 301.978201 
" clip-path="url(#pdaabd2b01d)" style="fill: none; stroke: #ff7f0e; stroke-width: 1.5; stroke-linecap: square"/>
   </g>
   <g id="line2d_29">
    <path d="M 548.633565 425.788125 
L 548.633565 261.859375 
" clip-path="url(#pdaabd2b01d)" style="fill: none; stroke-dasharray: 7.4,3.2; stroke-dashoffset: 0; stroke: #0000ff; stroke-width: 2"/>
   </g>
   <g id="patch_9">
    <path d="M 61.6375 425.788125 
L 61.6375 261.859375 
" style="fill: none; stroke: #000000; stroke-width: 0.8; stroke-linejoin: miter; stroke-linecap: square"/>
   </g>
   <g id="patch_10">
    <path d="M 1032.554189 425.788125 
L 1032.554189 261.859375 
" style="fill: none; stroke: #000000; stroke-width: 0.8; stroke-linejoin: miter; stroke-linecap: square"/>
   </g>
   <g id="patch_11">
    <path d="M 61.6375 425.788125 
L 1032.554189 425.788125 
" style="fill: none; stroke: #000000; stroke-width: 0.8; stroke-linejoin: miter; stroke-linecap: square"/>
   </g>
   <g id="patch_12">
    <path d="M 61.6375 261.859375 
L 1032.554189 261.859375 
" style="fill: none; stroke: #000000; stroke-width: 0.8; stroke-linejoin: miter; stroke-linecap: square"/>
   </g>
   <g id="text_27">
    <!-- 云函数ID: 150 -->
    <g transform="translate(482.095845 255.859375) scale(0.2 -0.2)">
     <defs>
      <path id="SimSun-31" d="M 1825 4450 
L 1825 650 
Q 1825 450 1950 350 
Q 2075 250 2300 250 
L 2550 250 
L 2550 100 
L 725 100 
L 725 250 
L 950 250 
Q 1200 250 1312 350 
Q 1425 450 1425 650 
L 1425 3675 
Q 1425 3775 1362 3837 
Q 1300 3900 1175 3900 
L 725 3900 
L 725 4050 
L 950 4050 
Q 1250 4050 1437 4150 
Q 1625 4250 1725 4450 
L 1825 4450 
z
" transform="scale(0.015625)"/>
      <path id="SimSun-35" d="M 1725 2850 
Q 2200 2850 2500 2487 
Q 2800 2125 2800 1525 
Q 2800 850 2487 450 
Q 2175 50 1525 50 
Q 1075 50 725 312 
Q 375 575 375 950 
Q 375 1100 462 1212 
Q 550 1325 700 1325 
Q 850 1325 900 1225 
Q 950 1125 950 1050 
Q 950 900 875 825 
Q 800 725 800 625 
Q 800 425 1037 325 
Q 1275 225 1550 225 
Q 1950 225 2162 550 
Q 2375 875 2375 1475 
Q 2375 1975 2187 2287 
Q 2000 2600 1625 2600 
Q 1350 2600 1150 2500 
Q 950 2400 775 2075 
L 550 2100 
L 675 4375 
L 2725 4375 
L 2650 4000 
L 850 4000 
L 750 2350 
Q 1000 2700 1237 2775 
Q 1475 2850 1725 2850 
z
" transform="scale(0.015625)"/>
      <path id="SimSun-30" d="M 1600 4225 
Q 1250 4225 1012 3687 
Q 775 3150 775 2250 
Q 775 1300 1012 775 
Q 1250 250 1600 250 
Q 1975 250 2187 775 
Q 2400 1300 2400 2250 
Q 2400 3150 2200 3687 
Q 2000 4225 1600 4225 
z
M 1600 50 
Q 1050 50 675 625 
Q 300 1200 300 2250 
Q 300 3225 662 3825 
Q 1025 4425 1600 4425 
Q 2150 4425 2512 3850 
Q 2875 3275 2875 2250 
Q 2875 1225 2512 637 
Q 2150 50 1600 50 
z
" transform="scale(0.015625)"/>
     </defs>
     <use xlink:href="#SimSun-4e91"/>
     <use xlink:href="#SimSun-51fd" x="100"/>
     <use xlink:href="#SimSun-6570" x="200"/>
     <use xlink:href="#SimSun-49" x="300"/>
     <use xlink:href="#SimSun-44" x="350"/>
     <use xlink:href="#SimSun-3a" x="400"/>
     <use xlink:href="#SimSun-20" x="450"/>
     <use xlink:href="#SimSun-31" x="500"/>
     <use xlink:href="#SimSun-35" x="550"/>
     <use xlink:href="#SimSun-30" x="600"/>
    </g>
   </g>
  </g>
  <g id="axes_3">
   <g id="patch_13">
    <path d="M 61.6375 658.588125 
L 1032.554189 658.588125 
L 1032.554189 494.659375 
L 61.6375 494.659375 
z
" style="fill: #ffffff"/>
   </g>
   <g id="matplotlib.axis_5">
    <g id="xtick_15">
     <g id="line2d_30">
      <g>
       <use xlink:href="#m319981e467" x="105.770077" y="658.588125" style="stroke: #000000; stroke-width: 0.8"/>
      </g>
     </g>
     <g id="text_28">
      <!-- 0 -->
      <g transform="translate(100.770077 679.475625) scale(0.2 -0.2)">
       <use xlink:href="#TimesNewRomanPSMT-30"/>
      </g>
     </g>
    </g>
    <g id="xtick_16">
     <g id="line2d_31">
      <g>
       <use xlink:href="#m319981e467" x="259.542121" y="658.588125" style="stroke: #000000; stroke-width: 0.8"/>
      </g>
     </g>
     <g id="text_29">
      <!-- 50 -->
      <g transform="translate(249.542121 679.475625) scale(0.2 -0.2)">
       <use xlink:href="#TimesNewRomanPSMT-35"/>
       <use xlink:href="#TimesNewRomanPSMT-30" x="50"/>
      </g>
     </g>
    </g>
    <g id="xtick_17">
     <g id="line2d_32">
      <g>
       <use xlink:href="#m319981e467" x="413.314166" y="658.588125" style="stroke: #000000; stroke-width: 0.8"/>
      </g>
     </g>
     <g id="text_30">
      <!-- 100 -->
      <g transform="translate(398.314166 679.475625) scale(0.2 -0.2)">
       <use xlink:href="#TimesNewRomanPSMT-31"/>
       <use xlink:href="#TimesNewRomanPSMT-30" x="50"/>
       <use xlink:href="#TimesNewRomanPSMT-30" x="100"/>
      </g>
     </g>
    </g>
    <g id="xtick_18">
     <g id="line2d_33">
      <g>
       <use xlink:href="#m319981e467" x="567.08621" y="658.588125" style="stroke: #000000; stroke-width: 0.8"/>
      </g>
     </g>
     <g id="text_31">
      <!-- 150 -->
      <g transform="translate(552.08621 679.475625) scale(0.2 -0.2)">
       <use xlink:href="#TimesNewRomanPSMT-31"/>
       <use xlink:href="#TimesNewRomanPSMT-35" x="50"/>
       <use xlink:href="#TimesNewRomanPSMT-30" x="100"/>
      </g>
     </g>
    </g>
    <g id="xtick_19">
     <g id="line2d_34">
      <g>
       <use xlink:href="#m319981e467" x="720.858255" y="658.588125" style="stroke: #000000; stroke-width: 0.8"/>
      </g>
     </g>
     <g id="text_32">
      <!-- 200 -->
      <g transform="translate(705.858255 679.475625) scale(0.2 -0.2)">
       <use xlink:href="#TimesNewRomanPSMT-32"/>
       <use xlink:href="#TimesNewRomanPSMT-30" x="50"/>
       <use xlink:href="#TimesNewRomanPSMT-30" x="100"/>
      </g>
     </g>
    </g>
    <g id="xtick_20">
     <g id="line2d_35">
      <g>
       <use xlink:href="#m319981e467" x="874.630299" y="658.588125" style="stroke: #000000; stroke-width: 0.8"/>
      </g>
     </g>
     <g id="text_33">
      <!-- 250 -->
      <g transform="translate(859.630299 679.475625) scale(0.2 -0.2)">
       <use xlink:href="#TimesNewRomanPSMT-32"/>
       <use xlink:href="#TimesNewRomanPSMT-35" x="50"/>
       <use xlink:href="#TimesNewRomanPSMT-30" x="100"/>
      </g>
     </g>
    </g>
    <g id="xtick_21">
     <g id="line2d_36">
      <g>
       <use xlink:href="#m319981e467" x="1028.402344" y="658.588125" style="stroke: #000000; stroke-width: 0.8"/>
      </g>
     </g>
     <g id="text_34">
      <!-- 300 -->
      <g transform="translate(1013.402344 679.475625) scale(0.2 -0.2)">
       <use xlink:href="#TimesNewRomanPSMT-33"/>
       <use xlink:href="#TimesNewRomanPSMT-30" x="50"/>
       <use xlink:href="#TimesNewRomanPSMT-30" x="100"/>
      </g>
     </g>
    </g>
   </g>
   <g id="matplotlib.axis_6">
    <g id="ytick_8">
     <g id="line2d_37">
      <g>
       <use xlink:href="#m777619f176" x="61.6375" y="621.033043" style="stroke: #000000; stroke-width: 0.8"/>
      </g>
     </g>
     <g id="text_35">
      <!-- 0.5 -->
      <g transform="translate(29.6375 627.976793) scale(0.2 -0.2)">
       <use xlink:href="#TimesNewRomanPSMT-30"/>
       <use xlink:href="#TimesNewRomanPSMT-2e" x="50"/>
       <use xlink:href="#TimesNewRomanPSMT-35" x="75"/>
      </g>
     </g>
    </g>
    <g id="ytick_9">
     <g id="line2d_38">
      <g>
       <use xlink:href="#m777619f176" x="61.6375" y="579.567785" style="stroke: #000000; stroke-width: 0.8"/>
      </g>
     </g>
     <g id="text_36">
      <!-- 0.8 -->
      <g transform="translate(29.6375 586.511535) scale(0.2 -0.2)">
       <defs>
        <path id="TimesNewRomanPSMT-38" d="M 1228 2134 
Q 725 2547 579 2797 
Q 434 3047 434 3316 
Q 434 3728 753 4026 
Q 1072 4325 1600 4325 
Q 2113 4325 2425 4047 
Q 2738 3769 2738 3413 
Q 2738 3175 2569 2928 
Q 2400 2681 1866 2347 
Q 2416 1922 2594 1678 
Q 2831 1359 2831 1006 
Q 2831 559 2490 242 
Q 2150 -75 1597 -75 
Q 994 -75 656 303 
Q 388 606 388 966 
Q 388 1247 577 1523 
Q 766 1800 1228 2134 
z
M 1719 2469 
Q 2094 2806 2194 3001 
Q 2294 3197 2294 3444 
Q 2294 3772 2109 3958 
Q 1925 4144 1606 4144 
Q 1288 4144 1088 3959 
Q 888 3775 888 3528 
Q 888 3366 970 3203 
Q 1053 3041 1206 2894 
L 1719 2469 
z
M 1375 2016 
Q 1116 1797 991 1539 
Q 866 1281 866 981 
Q 866 578 1086 336 
Q 1306 94 1647 94 
Q 1984 94 2187 284 
Q 2391 475 2391 747 
Q 2391 972 2272 1150 
Q 2050 1481 1375 2016 
z
" transform="scale(0.015625)"/>
       </defs>
       <use xlink:href="#TimesNewRomanPSMT-30"/>
       <use xlink:href="#TimesNewRomanPSMT-2e" x="50"/>
       <use xlink:href="#TimesNewRomanPSMT-38" x="75"/>
      </g>
     </g>
    </g>
    <g id="ytick_10">
     <g id="line2d_39">
      <g>
       <use xlink:href="#m777619f176" x="61.6375" y="538.102527" style="stroke: #000000; stroke-width: 0.8"/>
      </g>
     </g>
     <g id="text_37">
      <!-- 1.0 -->
      <g transform="translate(29.6375 545.046277) scale(0.2 -0.2)">
       <use xlink:href="#TimesNewRomanPSMT-31"/>
       <use xlink:href="#TimesNewRomanPSMT-2e" x="50"/>
       <use xlink:href="#TimesNewRomanPSMT-30" x="75"/>
      </g>
     </g>
    </g>
    <g id="ytick_11">
     <g id="line2d_40">
      <g>
       <use xlink:href="#m777619f176" x="61.6375" y="496.637269" style="stroke: #000000; stroke-width: 0.8"/>
      </g>
     </g>
     <g id="text_38">
      <!-- 1.2 -->
      <g transform="translate(29.6375 503.581019) scale(0.2 -0.2)">
       <use xlink:href="#TimesNewRomanPSMT-31"/>
       <use xlink:href="#TimesNewRomanPSMT-2e" x="50"/>
       <use xlink:href="#TimesNewRomanPSMT-32" x="75"/>
      </g>
     </g>
    </g>
    <g id="text_39">
     <!-- CPU使用率 -->
     <g transform="translate(23.059375 621.62375) rotate(-90) scale(0.2 -0.2)">
      <use xlink:href="#SimSun-43"/>
      <use xlink:href="#SimSun-50" x="50"/>
      <use xlink:href="#SimSun-55" x="100"/>
      <use xlink:href="#SimSun-4f7f" x="150"/>
      <use xlink:href="#SimSun-7528" x="250"/>
      <use xlink:href="#SimSun-7387" x="350"/>
     </g>
    </g>
   </g>
   <g id="line2d_41">
    <path d="M 105.770077 554.191048 
L 108.845518 564.640296 
L 111.920959 570.030785 
L 114.996399 576.748144 
L 118.07184 584.211903 
L 121.147281 586.451023 
L 124.222722 611.744816 
L 127.298163 591.095131 
L 130.373604 596.402695 
L 133.449045 604.198152 
L 136.524486 605.773837 
L 139.599927 610.583814 
L 142.675367 603.949359 
L 145.750808 615.476716 
L 148.826249 619.872011 
L 151.90169 620.618391 
L 154.977131 626.589385 
L 158.052572 628.082145 
L 161.128013 624.764927 
L 164.203454 630.818851 
L 167.278895 632.394536 
L 170.354335 635.048298 
L 173.429776 636.789831 
L 176.505217 637.370342 
L 179.580658 635.711753 
L 182.656099 643.50721 
L 185.73154 645.248763 
L 188.806981 646.575654 
L 191.882422 648.068394 
L 194.957863 645.912179 
L 198.033303 641.931526 
L 201.108744 649.809927 
L 204.184185 648.897698 
L 210.335067 651.136818 
L 213.410508 651.136818 
L 216.485949 640.438786 
L 219.56139 643.424286 
L 222.636831 643.590154 
L 225.712272 639.360688 
L 228.787712 640.024144 
L 231.863153 635.711753 
L 234.938594 630.818851 
L 238.014035 635.131222 
L 241.089476 631.067645 
L 244.164917 625.262494 
L 247.240358 623.68681 
L 250.315799 621.530634 
L 253.39124 601.710239 
L 256.46668 609.256903 
L 259.542121 607.017783 
L 262.617562 596.651469 
L 265.693003 524.170202 
L 268.768444 537.190298 
L 271.843885 522.428649 
L 274.919326 523.00918 
L 277.994767 523.755559 
L 281.070208 517.286974 
L 284.145648 519.609018 
L 287.221089 516.540594 
L 290.29653 503.769291 
L 293.371971 507.252377 
L 296.447412 517.452823 
L 299.522853 511.398899 
L 302.598294 513.638038 
L 305.673735 517.701616 
L 308.749176 506.257204 
L 311.824616 508.745117 
L 314.900057 523.506766 
L 317.975498 526.492246 
L 321.050939 526.575171 
L 324.12638 519.194376 
L 327.201821 520.521247 
L 330.277262 526.160528 
L 333.352703 529.726559 
L 336.428144 525.662961 
L 339.503584 530.389994 
L 342.579025 529.726559 
L 345.654466 554.522775 
L 348.729907 519.028507 
L 351.805348 532.629114 
L 354.880789 533.873081 
L 357.95623 535.614614 
L 361.031671 540.341657 
L 364.107112 532.712039 
L 367.182552 545.81506 
L 370.257993 547.556613 
L 373.333434 543.493015 
L 376.408875 549.961601 
L 379.484316 552.781232 
L 382.559757 542.000275 
L 385.635198 549.712808 
L 388.710639 551.454341 
L 391.78608 553.361753 
L 394.86152 554.854493 
L 397.936961 550.459178 
L 401.012402 550.542112 
L 404.087843 547.14196 
L 407.163284 552.449514 
L 410.238725 547.059036 
L 413.314166 542.995439 
L 416.389607 537.024429 
L 419.465048 542.580777 
L 422.540488 537.522016 
L 425.615929 542.580777 
L 428.69137 537.936678 
L 431.766811 534.951159 
L 434.842252 537.60494 
L 437.917693 532.877907 
L 440.993134 532.048603 
L 444.068575 525.165375 
L 447.144016 519.2773 
L 450.219457 514.799041 
L 453.294897 520.852984 
L 456.370338 511.647692 
L 459.445779 514.21853 
L 462.52122 514.467323 
L 465.596661 514.964909 
L 468.672102 522.428649 
L 471.747543 518.779713 
L 474.822984 520.77004 
L 477.898425 519.2773 
L 480.973865 520.438322 
L 484.049306 517.286974 
L 487.124747 518.613845 
L 490.200188 521.599364 
L 493.275629 507.998757 
L 496.35107 514.384398 
L 499.426511 522.428649 
L 502.501952 522.345724 
L 505.577393 527.404495 
L 508.652833 522.511593 
L 511.728274 519.526093 
L 514.803715 521.101778 
L 517.879156 521.184702 
L 520.954597 530.887561 
L 524.030038 529.975332 
L 527.105479 535.199952 
L 530.18092 530.224126 
L 533.256361 541.170961 
L 536.331801 542.166124 
L 539.407242 541.502679 
L 542.482683 556.513112 
L 545.558124 559.332752 
L 548.633565 563.810992 
L 551.709006 565.386676 
L 554.784447 574.343175 
L 557.859888 579.484851 
L 560.935329 586.94861 
L 564.010769 591.260981 
L 567.08621 609.173979 
L 570.161651 593.334251 
L 573.237092 598.558871 
L 576.312533 608.925185 
L 579.387974 612.076554 
L 582.463415 615.725509 
L 585.538856 614.06688 
L 588.614297 618.710989 
L 591.689737 626.755254 
L 594.765178 625.843025 
L 597.840619 627.999201 
L 600.91606 628.082145 
L 603.991501 627.086972 
L 607.066942 635.877602 
L 610.142383 637.867929 
L 613.217824 638.199666 
L 616.293265 641.433939 
L 619.368705 640.770504 
L 622.444146 638.199666 
L 625.519587 646.824447 
L 628.595028 647.156145 
L 631.670469 645.663405 
L 634.74591 647.23909 
L 637.821351 650.22457 
L 640.896792 643.175492 
L 643.972233 647.570807 
L 647.047673 648.483036 
L 650.123114 650.390458 
L 653.198555 650.8051 
L 656.273996 647.156145 
L 659.349437 645.248763 
L 662.424878 644.419439 
L 665.500319 643.009624 
L 668.57576 640.770504 
L 671.651201 640.438786 
L 674.726642 634.053124 
L 677.802082 626.506461 
L 680.877523 631.73106 
L 683.952964 623.935603 
L 687.028405 617.467042 
L 690.103846 617.632891 
L 693.179287 609.920378 
L 696.254728 595.73926 
L 699.330169 598.475946 
L 702.40561 599.222326 
L 705.48105 589.519447 
L 708.556491 506.588921 
L 711.631932 530.141201 
L 714.707373 522.511593 
L 717.782814 530.638768 
L 720.858255 526.575171 
L 723.933696 524.004333 
L 727.009137 526.326397 
L 730.084578 522.428649 
L 733.160018 514.550247 
L 736.235459 519.526093 
L 739.3109 510.072008 
L 742.386341 517.121105 
L 745.461782 520.852984 
L 748.537223 516.955236 
L 751.612664 502.110682 
L 754.688105 509.989083 
L 757.763546 519.526093 
L 760.838986 521.599364 
L 763.914427 514.301454 
L 766.989868 520.852984 
L 773.14075 519.526093 
L 776.216191 523.175029 
L 779.291632 525.82881 
L 782.367073 525.994679 
L 785.442514 522.428649 
L 788.517954 556.181394 
L 791.593395 513.306301 
L 794.668836 524.004333 
L 797.744277 525.994679 
L 800.819718 538.019602 
L 803.895159 543.410081 
L 806.9706 528.648441 
L 810.046041 541.005092 
L 813.121482 546.063853 
L 816.196922 542.995439 
L 819.272363 546.561449 
L 822.347804 554.025199 
L 825.423245 536.443918 
L 828.498686 538.848897 
L 831.574127 548.220048 
L 834.649568 543.161288 
L 837.725009 554.108123 
L 840.80045 550.956764 
L 843.87589 546.644374 
L 846.951331 544.654047 
L 850.026772 545.980928 
L 853.102213 541.419754 
L 856.177654 545.151634 
L 859.253095 547.556613 
L 862.328536 539.595287 
L 865.403977 539.09769 
L 868.479418 537.522016 
L 871.554858 532.712039 
L 874.630299 539.761136 
L 877.70574 531.05343 
L 880.781181 528.565517 
L 883.856622 527.570363 
L 886.932063 525.447326 
L 890.007504 520.056838 
L 893.082945 525.629764 
L 896.158386 528.482573 
L 899.233827 514.749294 
L 902.309267 511.83013 
L 905.384708 515.611776 
L 908.460149 503.603442 
L 911.53559 513.953167 
L 914.611031 506.721613 
L 917.686472 513.090685 
L 920.761913 513.820476 
L 923.837354 516.208876 
L 926.912795 513.422403 
L 929.988235 518.53092 
L 933.063676 516.076185 
L 936.139117 507.318712 
L 939.214558 517.204029 
L 942.289999 514.152194 
L 945.36544 522.378902 
L 948.440881 522.71062 
L 951.516322 521.251038 
L 954.591763 515.081012 
L 957.667203 519.194376 
L 960.742644 524.50192 
L 963.818085 527.02301 
L 966.893526 534.652618 
L 969.968967 530.804637 
L 973.044408 537.505427 
L 976.119849 538.036172 
L 979.19529 547.921498 
L 982.270731 547.656126 
L 985.346171 554.091534 
L 988.421612 558.602961 
L 988.421612 558.602961 
" clip-path="url(#p84db1eb149)" style="fill: none; stroke: #1f77b4; stroke-width: 1.5; stroke-linecap: square"/>
   </g>
   <g id="line2d_42">
    <path d="M 548.633565 559.690708 
L 551.709006 568.792651 
L 554.784447 570.549251 
L 557.859888 576.470009 
L 560.935329 577.623162 
L 564.010769 581.062433 
L 567.08621 601.419509 
L 570.161651 588.845354 
L 573.237092 595.87547 
L 576.312533 601.025272 
L 579.387974 602.677237 
L 582.463415 605.230517 
L 585.538856 603.337074 
L 588.614297 610.025487 
L 591.689737 618.127927 
L 594.765178 622.317389 
L 597.840619 625.226192 
L 600.91606 624.459783 
L 603.991501 623.095088 
L 607.066942 631.34054 
L 610.142383 633.588834 
L 613.217824 633.717749 
L 616.293265 635.880548 
L 619.368705 634.985679 
L 622.444146 635.572438 
L 625.519587 634.598461 
L 628.595028 636.255527 
L 631.670469 639.775153 
L 634.74591 641.439653 
L 637.821351 639.307462 
L 640.896792 640.757197 
L 643.972233 648.07304 
L 647.047673 649.572562 
L 650.123114 642.957109 
L 653.198555 642.355085 
L 656.273996 643.035545 
L 659.349437 634.887431 
L 662.424878 636.409948 
L 665.500319 639.629649 
L 668.57576 634.051899 
L 671.651201 630.113261 
L 674.726642 627.144509 
L 677.802082 621.574964 
L 680.877523 621.107688 
L 683.952964 616.357526 
L 687.028405 611.005495 
L 693.179287 599.295444 
L 696.254728 585.827073 
L 699.330169 586.54415 
L 702.40561 583.920699 
L 705.48105 576.306711 
L 708.556491 541.488502 
L 711.631932 547.368579 
L 714.707373 534.515657 
L 717.782814 531.315273 
L 720.858255 530.355452 
L 723.933696 526.393168 
L 727.009137 526.131325 
L 730.084578 527.275758 
L 733.160018 512.381418 
L 736.235459 509.413416 
L 739.3109 521.723612 
L 742.386341 519.85791 
L 745.461782 520.851244 
L 748.537223 518.87725 
L 751.612664 513.092346 
L 754.688105 516.584646 
L 757.763546 518.039957 
L 760.838986 519.810042 
L 763.914427 523.724319 
L 766.989868 524.735627 
L 770.065309 524.030432 
L 773.14075 528.228401 
L 776.216191 528.375467 
L 779.291632 524.378502 
L 782.367073 532.234877 
L 785.442514 530.306496 
L 788.517954 545.911894 
L 791.593395 524.393212 
L 794.668836 536.950303 
L 797.744277 540.668115 
L 800.819718 539.562732 
L 803.895159 544.945143 
L 806.9706 538.604819 
L 810.046041 541.048008 
L 813.121482 544.219218 
L 816.196922 544.057392 
L 819.272363 553.210832 
L 822.347804 555.197906 
L 825.423245 549.151654 
L 828.498686 550.762533 
L 831.574127 553.874574 
L 834.649568 557.574591 
L 837.725009 555.810339 
L 840.80045 549.853774 
L 843.87589 548.964688 
L 846.951331 546.766813 
L 850.026772 545.930628 
L 853.102213 542.654497 
L 856.177654 541.475097 
L 859.253095 540.66856 
L 862.328536 540.836337 
L 865.403977 537.222902 
L 868.479418 539.232477 
L 871.554858 537.643417 
L 874.630299 534.10922 
L 877.70574 537.59539 
L 880.781181 534.03626 
L 883.856622 530.033067 
L 886.932063 531.680722 
L 890.007504 526.277204 
L 893.082945 524.506566 
L 896.158386 526.281139 
L 899.233827 517.960315 
L 902.309267 520.650497 
L 905.384708 520.477708 
L 908.460149 517.450489 
L 911.53559 521.765312 
L 914.611031 523.242471 
L 917.686472 515.740948 
L 920.761913 519.333473 
L 923.837354 523.785653 
L 926.912795 526.414324 
L 929.988235 517.693252 
L 933.063676 523.83103 
L 936.139117 517.458556 
L 939.214558 515.784011 
L 942.289999 523.863436 
L 945.36544 526.946907 
L 951.516322 531.300167 
L 954.591763 525.59977 
L 957.667203 529.250425 
L 960.742644 532.654403 
L 963.818085 538.557574 
L 966.893526 536.785819 
L 969.968967 539.683312 
L 973.044408 531.083049 
L 976.119849 538.66203 
L 979.19529 543.199942 
L 982.270731 543.200891 
L 985.346171 550.438931 
L 988.421612 553.753865 
L 988.421612 553.753865 
" clip-path="url(#p84db1eb149)" style="fill: none; stroke: #ff7f0e; stroke-width: 1.5; stroke-linecap: square"/>
   </g>
   <g id="line2d_43">
    <path d="M 548.633565 658.588125 
L 548.633565 494.659375 
" clip-path="url(#p84db1eb149)" style="fill: none; stroke-dasharray: 7.4,3.2; stroke-dashoffset: 0; stroke: #0000ff; stroke-width: 2"/>
   </g>
   <g id="patch_14">
    <path d="M 61.6375 658.588125 
L 61.6375 494.659375 
" style="fill: none; stroke: #000000; stroke-width: 0.8; stroke-linejoin: miter; stroke-linecap: square"/>
   </g>
   <g id="patch_15">
    <path d="M 1032.554189 658.588125 
L 1032.554189 494.659375 
" style="fill: none; stroke: #000000; stroke-width: 0.8; stroke-linejoin: miter; stroke-linecap: square"/>
   </g>
   <g id="patch_16">
    <path d="M 61.6375 658.588125 
L 1032.554189 658.588125 
" style="fill: none; stroke: #000000; stroke-width: 0.8; stroke-linejoin: miter; stroke-linecap: square"/>
   </g>
   <g id="patch_17">
    <path d="M 61.6375 494.659375 
L 1032.554189 494.659375 
" style="fill: none; stroke: #000000; stroke-width: 0.8; stroke-linejoin: miter; stroke-linecap: square"/>
   </g>
   <g id="text_40">
    <!-- 云函数ID: 160 -->
    <g transform="translate(482.095845 488.659375) scale(0.2 -0.2)">
     <defs>
      <path id="SimSun-36" d="M 775 1800 
Q 775 1050 1037 637 
Q 1300 225 1675 225 
Q 2050 225 2250 500 
Q 2450 775 2450 1525 
Q 2450 2025 2237 2300 
Q 2025 2575 1725 2575 
Q 1450 2575 1212 2412 
Q 975 2250 775 1800 
z
M 1750 2825 
Q 2350 2825 2612 2425 
Q 2875 2025 2875 1525 
Q 2875 775 2512 412 
Q 2150 50 1675 50 
Q 1000 50 650 562 
Q 300 1075 300 2050 
Q 300 3200 725 3812 
Q 1150 4425 1875 4425 
Q 2225 4425 2437 4225 
Q 2650 4025 2650 3875 
Q 2650 3725 2587 3650 
Q 2525 3575 2375 3575 
Q 2250 3575 2187 3637 
Q 2125 3700 2125 3825 
Q 2125 3875 2150 3925 
Q 2150 3975 2150 4025 
Q 2150 4125 2075 4187 
Q 2000 4250 1800 4250 
Q 1375 4250 1075 3862 
Q 775 3475 775 2175 
Q 925 2500 1187 2662 
Q 1450 2825 1750 2825 
z
" transform="scale(0.015625)"/>
     </defs>
     <use xlink:href="#SimSun-4e91"/>
     <use xlink:href="#SimSun-51fd" x="100"/>
     <use xlink:href="#SimSun-6570" x="200"/>
     <use xlink:href="#SimSun-49" x="300"/>
     <use xlink:href="#SimSun-44" x="350"/>
     <use xlink:href="#SimSun-3a" x="400"/>
     <use xlink:href="#SimSun-20" x="450"/>
     <use xlink:href="#SimSun-31" x="500"/>
     <use xlink:href="#SimSun-36" x="550"/>
     <use xlink:href="#SimSun-30" x="600"/>
    </g>
   </g>
  </g>
 </g>
 <defs>
  <clipPath id="p85edd58fa6">
   <rect x="61.6375" y="29.059375" width="970.916689" height="163.92875"/>
  </clipPath>
  <clipPath id="pdaabd2b01d">
   <rect x="61.6375" y="261.859375" width="970.916689" height="163.92875"/>
  </clipPath>
  <clipPath id="p84db1eb149">
   <rect x="61.6375" y="494.659375" width="970.916689" height="163.92875"/>
  </clipPath>
 </defs>
</svg>
