<?xml version="1.0" encoding="utf-8" standalone="no"?>
<!DOCTYPE svg PUBLIC "-//W3C//DTD SVG 1.1//EN"
  "http://www.w3.org/Graphics/SVG/1.1/DTD/svg11.dtd">
<svg xmlns:xlink="http://www.w3.org/1999/xlink" width="1050.580384pt" height="691.4825pt" viewBox="0 0 1050.580384 691.4825" xmlns="http://www.w3.org/2000/svg" version="1.1">
 <metadata>
  <rdf:RDF xmlns:dc="http://purl.org/dc/elements/1.1/" xmlns:cc="http://creativecommons.org/ns#" xmlns:rdf="http://www.w3.org/1999/02/22-rdf-syntax-ns#">
   <cc:Work>
    <dc:type rdf:resource="http://purl.org/dc/dcmitype/StillImage"/>
    <dc:date>2024-02-27T12:14:54.935363</dc:date>
    <dc:format>image/svg+xml</dc:format>
    <dc:creator>
     <cc:Agent>
      <dc:title>Matplotlib v3.7.4, https://matplotlib.org/</dc:title>
     </cc:Agent>
    </dc:creator>
   </cc:Work>
  </rdf:RDF>
 </metadata>
 <defs>
  <style type="text/css">*{stroke-linejoin: round; stroke-linecap: butt}</style>
 </defs>
 <g id="figure_1">
  <g id="patch_1">
   <path d="M 0 691.4825 
L 1050.580384 691.4825 
L 1050.580384 0 
L 0 0 
z
" style="fill: #ffffff"/>
  </g>
  <g id="axes_1">
   <g id="patch_2">
    <path d="M 71.6375 135.316875 
L 1032.489189 135.316875 
L 1032.489189 29.059375 
L 71.6375 29.059375 
z
" style="fill: #ffffff"/>
   </g>
   <g id="matplotlib.axis_1">
    <g id="xtick_1">
     <g id="line2d_1">
      <defs>
       <path id="m06dfa6ac2e" d="M 0 0 
L 0 3.5 
" style="stroke: #000000; stroke-width: 0.8"/>
      </defs>
      <g>
       <use xlink:href="#m06dfa6ac2e" x="115.312577" y="135.316875" style="stroke: #000000; stroke-width: 0.8"/>
      </g>
     </g>
     <g id="text_1">
      <!-- 0 -->
      <g transform="translate(110.312577 156.204375) scale(0.2 -0.2)">
       <defs>
        <path id="TimesNewRomanPSMT-30" d="M 231 2094 
Q 231 2819 450 3342 
Q 669 3866 1031 4122 
Q 1313 4325 1613 4325 
Q 2100 4325 2488 3828 
Q 2972 3213 2972 2159 
Q 2972 1422 2759 906 
Q 2547 391 2217 158 
Q 1888 -75 1581 -75 
Q 975 -75 572 641 
Q 231 1244 231 2094 
z
M 844 2016 
Q 844 1141 1059 588 
Q 1238 122 1591 122 
Q 1759 122 1940 273 
Q 2122 425 2216 781 
Q 2359 1319 2359 2297 
Q 2359 3022 2209 3506 
Q 2097 3866 1919 4016 
Q 1791 4119 1609 4119 
Q 1397 4119 1231 3928 
Q 1006 3669 925 3112 
Q 844 2556 844 2016 
z
" transform="scale(0.015625)"/>
       </defs>
       <use xlink:href="#TimesNewRomanPSMT-30"/>
      </g>
     </g>
    </g>
    <g id="xtick_2">
     <g id="line2d_2">
      <g>
       <use xlink:href="#m06dfa6ac2e" x="267.490545" y="135.316875" style="stroke: #000000; stroke-width: 0.8"/>
      </g>
     </g>
     <g id="text_2">
      <!-- 50 -->
      <g transform="translate(257.490545 156.204375) scale(0.2 -0.2)">
       <defs>
        <path id="TimesNewRomanPSMT-35" d="M 2778 4238 
L 2534 3706 
L 1259 3706 
L 981 3138 
Q 1809 3016 2294 2522 
Q 2709 2097 2709 1522 
Q 2709 1188 2573 903 
Q 2438 619 2231 419 
Q 2025 219 1772 97 
Q 1413 -75 1034 -75 
Q 653 -75 479 54 
Q 306 184 306 341 
Q 306 428 378 495 
Q 450 563 559 563 
Q 641 563 702 538 
Q 763 513 909 409 
Q 1144 247 1384 247 
Q 1750 247 2026 523 
Q 2303 800 2303 1197 
Q 2303 1581 2056 1914 
Q 1809 2247 1375 2428 
Q 1034 2569 447 2591 
L 1259 4238 
L 2778 4238 
z
" transform="scale(0.015625)"/>
       </defs>
       <use xlink:href="#TimesNewRomanPSMT-35"/>
       <use xlink:href="#TimesNewRomanPSMT-30" x="50"/>
      </g>
     </g>
    </g>
    <g id="xtick_3">
     <g id="line2d_3">
      <g>
       <use xlink:href="#m06dfa6ac2e" x="419.668513" y="135.316875" style="stroke: #000000; stroke-width: 0.8"/>
      </g>
     </g>
     <g id="text_3">
      <!-- 100 -->
      <g transform="translate(404.668513 156.204375) scale(0.2 -0.2)">
       <defs>
        <path id="TimesNewRomanPSMT-31" d="M 750 3822 
L 1781 4325 
L 1884 4325 
L 1884 747 
Q 1884 391 1914 303 
Q 1944 216 2037 169 
Q 2131 122 2419 116 
L 2419 0 
L 825 0 
L 825 116 
Q 1125 122 1212 167 
Q 1300 213 1334 289 
Q 1369 366 1369 747 
L 1369 3034 
Q 1369 3497 1338 3628 
Q 1316 3728 1258 3775 
Q 1200 3822 1119 3822 
Q 1003 3822 797 3725 
L 750 3822 
z
" transform="scale(0.015625)"/>
       </defs>
       <use xlink:href="#TimesNewRomanPSMT-31"/>
       <use xlink:href="#TimesNewRomanPSMT-30" x="50"/>
       <use xlink:href="#TimesNewRomanPSMT-30" x="100"/>
      </g>
     </g>
    </g>
    <g id="xtick_4">
     <g id="line2d_4">
      <g>
       <use xlink:href="#m06dfa6ac2e" x="571.84648" y="135.316875" style="stroke: #000000; stroke-width: 0.8"/>
      </g>
     </g>
     <g id="text_4">
      <!-- 150 -->
      <g transform="translate(556.84648 156.204375) scale(0.2 -0.2)">
       <use xlink:href="#TimesNewRomanPSMT-31"/>
       <use xlink:href="#TimesNewRomanPSMT-35" x="50"/>
       <use xlink:href="#TimesNewRomanPSMT-30" x="100"/>
      </g>
     </g>
    </g>
    <g id="xtick_5">
     <g id="line2d_5">
      <g>
       <use xlink:href="#m06dfa6ac2e" x="724.024448" y="135.316875" style="stroke: #000000; stroke-width: 0.8"/>
      </g>
     </g>
     <g id="text_5">
      <!-- 200 -->
      <g transform="translate(709.024448 156.204375) scale(0.2 -0.2)">
       <defs>
        <path id="TimesNewRomanPSMT-32" d="M 2934 816 
L 2638 0 
L 138 0 
L 138 116 
Q 1241 1122 1691 1759 
Q 2141 2397 2141 2925 
Q 2141 3328 1894 3587 
Q 1647 3847 1303 3847 
Q 991 3847 742 3664 
Q 494 3481 375 3128 
L 259 3128 
Q 338 3706 661 4015 
Q 984 4325 1469 4325 
Q 1984 4325 2329 3994 
Q 2675 3663 2675 3213 
Q 2675 2891 2525 2569 
Q 2294 2063 1775 1497 
Q 997 647 803 472 
L 1909 472 
Q 2247 472 2383 497 
Q 2519 522 2628 598 
Q 2738 675 2819 816 
L 2934 816 
z
" transform="scale(0.015625)"/>
       </defs>
       <use xlink:href="#TimesNewRomanPSMT-32"/>
       <use xlink:href="#TimesNewRomanPSMT-30" x="50"/>
       <use xlink:href="#TimesNewRomanPSMT-30" x="100"/>
      </g>
     </g>
    </g>
    <g id="xtick_6">
     <g id="line2d_6">
      <g>
       <use xlink:href="#m06dfa6ac2e" x="876.202416" y="135.316875" style="stroke: #000000; stroke-width: 0.8"/>
      </g>
     </g>
     <g id="text_6">
      <!-- 250 -->
      <g transform="translate(861.202416 156.204375) scale(0.2 -0.2)">
       <use xlink:href="#TimesNewRomanPSMT-32"/>
       <use xlink:href="#TimesNewRomanPSMT-35" x="50"/>
       <use xlink:href="#TimesNewRomanPSMT-30" x="100"/>
      </g>
     </g>
    </g>
    <g id="xtick_7">
     <g id="line2d_7">
      <g>
       <use xlink:href="#m06dfa6ac2e" x="1028.380384" y="135.316875" style="stroke: #000000; stroke-width: 0.8"/>
      </g>
     </g>
     <g id="text_7">
      <!-- 300 -->
      <g transform="translate(1013.380384 156.204375) scale(0.2 -0.2)">
       <defs>
        <path id="TimesNewRomanPSMT-33" d="M 325 3431 
Q 506 3859 782 4092 
Q 1059 4325 1472 4325 
Q 1981 4325 2253 3994 
Q 2459 3747 2459 3466 
Q 2459 3003 1878 2509 
Q 2269 2356 2469 2072 
Q 2669 1788 2669 1403 
Q 2669 853 2319 450 
Q 1863 -75 997 -75 
Q 569 -75 414 31 
Q 259 138 259 259 
Q 259 350 332 419 
Q 406 488 509 488 
Q 588 488 669 463 
Q 722 447 909 348 
Q 1097 250 1169 231 
Q 1284 197 1416 197 
Q 1734 197 1970 444 
Q 2206 691 2206 1028 
Q 2206 1275 2097 1509 
Q 2016 1684 1919 1775 
Q 1784 1900 1550 2001 
Q 1316 2103 1072 2103 
L 972 2103 
L 972 2197 
Q 1219 2228 1467 2375 
Q 1716 2522 1828 2728 
Q 1941 2934 1941 3181 
Q 1941 3503 1739 3701 
Q 1538 3900 1238 3900 
Q 753 3900 428 3381 
L 325 3431 
z
" transform="scale(0.015625)"/>
       </defs>
       <use xlink:href="#TimesNewRomanPSMT-33"/>
       <use xlink:href="#TimesNewRomanPSMT-30" x="50"/>
       <use xlink:href="#TimesNewRomanPSMT-30" x="100"/>
      </g>
     </g>
    </g>
   </g>
   <g id="matplotlib.axis_2">
    <g id="ytick_1">
     <g id="line2d_8">
      <defs>
       <path id="m9694676204" d="M 0 0 
L -3.5 0 
" style="stroke: #000000; stroke-width: 0.8"/>
      </defs>
      <g>
       <use xlink:href="#m9694676204" x="71.6375" y="134.074961" style="stroke: #000000; stroke-width: 0.8"/>
      </g>
     </g>
     <g id="text_8">
      <!-- 0.0 -->
      <g transform="translate(39.6375 141.018711) scale(0.2 -0.2)">
       <defs>
        <path id="TimesNewRomanPSMT-2e" d="M 800 606 
Q 947 606 1047 504 
Q 1147 403 1147 259 
Q 1147 116 1045 14 
Q 944 -88 800 -88 
Q 656 -88 554 14 
Q 453 116 453 259 
Q 453 406 554 506 
Q 656 606 800 606 
z
" transform="scale(0.015625)"/>
       </defs>
       <use xlink:href="#TimesNewRomanPSMT-30"/>
       <use xlink:href="#TimesNewRomanPSMT-2e" x="50"/>
       <use xlink:href="#TimesNewRomanPSMT-30" x="75"/>
      </g>
     </g>
    </g>
    <g id="ytick_2">
     <g id="line2d_9">
      <g>
       <use xlink:href="#m9694676204" x="71.6375" y="67.998122" style="stroke: #000000; stroke-width: 0.8"/>
      </g>
     </g>
     <g id="text_9">
      <!-- 2.0 -->
      <g transform="translate(39.6375 74.941872) scale(0.2 -0.2)">
       <use xlink:href="#TimesNewRomanPSMT-32"/>
       <use xlink:href="#TimesNewRomanPSMT-2e" x="50"/>
       <use xlink:href="#TimesNewRomanPSMT-30" x="75"/>
      </g>
     </g>
    </g>
    <g id="text_10">
     <!-- CPU使用率 -->
     <g transform="translate(33.059375 127.188125) rotate(-90) scale(0.2 -0.2)">
      <defs>
       <path id="SimSun-43" d="M 1725 50 
Q 1025 50 612 575 
Q 200 1100 200 2225 
Q 200 3175 637 3800 
Q 1075 4425 1825 4425 
Q 2000 4425 2175 4375 
Q 2350 4300 2475 4300 
Q 2575 4300 2637 4325 
Q 2700 4350 2750 4425 
L 2975 3325 
L 2825 3275 
Q 2675 3750 2425 4000 
Q 2175 4250 1775 4250 
Q 1250 4250 962 3675 
Q 675 3100 675 2250 
Q 675 1325 925 800 
Q 1175 275 1750 275 
Q 2150 275 2437 562 
Q 2725 850 2825 1325 
L 2975 1250 
Q 2850 725 2512 387 
Q 2175 50 1725 50 
z
" transform="scale(0.015625)"/>
       <path id="SimSun-50" d="M 950 2100 
L 950 450 
Q 950 350 1012 300 
Q 1075 250 1175 250 
L 1350 250 
L 1350 100 
L 150 100 
L 150 250 
L 325 250 
Q 450 250 500 300 
Q 550 350 550 450 
L 550 4025 
Q 550 4125 500 4175 
Q 450 4225 325 4225 
L 175 4225 
L 175 4375 
L 1650 4375 
Q 2275 4375 2612 4062 
Q 2950 3750 2950 3275 
Q 2950 2700 2587 2400 
Q 2225 2100 1725 2100 
L 950 2100 
z
M 1575 2250 
Q 1950 2250 2237 2475 
Q 2525 2700 2525 3250 
Q 2525 3750 2287 3987 
Q 2050 4225 1525 4225 
L 1175 4225 
Q 1075 4225 1012 4175 
Q 950 4125 950 4025 
L 950 2250 
L 1575 2250 
z
" transform="scale(0.015625)"/>
       <path id="SimSun-55" d="M 1625 250 
Q 2000 250 2262 500 
Q 2525 750 2525 1125 
L 2525 4025 
Q 2525 4125 2475 4175 
Q 2425 4225 2300 4225 
L 2150 4225 
L 2150 4375 
L 3050 4375 
L 3050 4225 
L 2900 4225 
Q 2800 4225 2737 4175 
Q 2675 4125 2675 4025 
L 2675 1125 
Q 2675 625 2337 337 
Q 2000 50 1575 50 
Q 1125 50 787 300 
Q 450 550 450 1100 
L 450 4025 
Q 450 4125 400 4175 
Q 350 4225 225 4225 
L 100 4225 
L 100 4375 
L 1200 4375 
L 1200 4225 
L 1075 4225 
Q 975 4225 912 4175 
Q 850 4125 850 4025 
L 850 1100 
Q 850 600 1062 425 
Q 1275 250 1625 250 
z
" transform="scale(0.015625)"/>
       <path id="SimSun-4f7f" d="M 2875 3150 
L 2875 2100 
L 3825 2100 
Q 3850 2825 3850 3150 
L 2875 3150 
z
M 4175 3150 
Q 4175 2800 4150 2100 
L 5150 2100 
L 5150 3150 
L 4175 3150 
z
M 5475 3100 
L 5475 2425 
Q 5475 2100 5500 1800 
L 5150 1675 
L 5150 1950 
L 4150 1950 
Q 4125 1175 3875 600 
Q 4275 275 4875 75 
Q 5475 -125 6075 -150 
L 6075 -250 
Q 5700 -300 5600 -575 
Q 4525 -325 3725 350 
Q 3425 25 2925 -225 
Q 2425 -475 1875 -650 
L 1825 -550 
Q 2400 -325 2850 -25 
Q 3300 275 3500 575 
Q 3200 925 2825 1650 
L 2900 1700 
Q 3325 1100 3625 825 
Q 3800 1300 3825 1950 
L 2875 1950 
L 2875 1825 
L 2525 1675 
Q 2550 2075 2550 2562 
Q 2550 3050 2525 3500 
L 2875 3300 
L 3850 3300 
L 3850 4025 
L 2975 4025 
Q 2650 4025 2375 3950 
L 2150 4175 
L 3850 4175 
L 3850 4525 
Q 3850 4775 3825 5225 
L 4350 5000 
L 4175 4825 
L 4175 4175 
L 5300 4175 
L 5600 4475 
L 6050 4025 
L 4175 4025 
L 4175 3300 
L 5100 3300 
L 5275 3525 
L 5650 3225 
L 5475 3100 
z
M 1675 3175 
L 1675 -450 
L 1325 -625 
Q 1350 -75 1350 350 
L 1350 3200 
Q 900 2475 350 1900 
L 275 1950 
Q 700 2525 1112 3400 
Q 1525 4275 1800 5250 
L 2325 4925 
L 2125 4800 
Q 1725 3925 1500 3525 
L 1875 3325 
L 1675 3175 
z
" transform="scale(0.015625)"/>
       <path id="SimSun-7528" d="M 3400 3150 
L 3400 1825 
L 5075 1825 
L 5075 3150 
L 3400 3150 
z
M 4075 100 
Q 4725 50 4900 62 
Q 5075 75 5075 400 
L 5075 1675 
L 3400 1675 
Q 3400 75 3425 -225 
L 3050 -400 
Q 3075 1025 3075 1675 
L 1425 1675 
Q 1250 350 375 -600 
L 300 -550 
Q 775 225 950 1025 
Q 1125 1825 1125 3225 
Q 1125 4625 1100 5075 
L 1475 4825 
L 5050 4825 
L 5225 5100 
L 5625 4800 
L 5425 4600 
L 5425 225 
Q 5450 -400 4875 -575 
Q 4825 -150 4075 -25 
L 4075 100 
z
M 1475 4675 
L 1475 3300 
L 3075 3300 
L 3075 4675 
L 1475 4675 
z
M 3400 4675 
L 3400 3300 
L 5075 3300 
L 5075 4675 
L 3400 4675 
z
M 1475 3150 
Q 1450 2100 1425 1825 
L 3075 1825 
L 3075 3150 
L 1475 3150 
z
" transform="scale(0.015625)"/>
       <path id="SimSun-7387" d="M 875 3725 
L 925 3800 
Q 1375 3650 1550 3525 
Q 1725 3400 1725 3250 
Q 1725 3175 1662 3025 
Q 1600 2875 1550 2875 
Q 1500 2875 1425 3050 
Q 1275 3325 875 3725 
z
M 550 1850 
Q 875 1925 2000 2575 
L 2050 2500 
Q 1675 2225 1337 1937 
Q 1000 1650 875 1425 
L 550 1850 
z
M 5200 3450 
Q 4800 3150 4275 2800 
L 4225 2875 
Q 4775 3400 5050 3925 
L 5450 3525 
L 5200 3450 
z
M 4325 2500 
L 4350 2575 
Q 5225 2350 5375 2212 
Q 5525 2075 5525 1900 
Q 5525 1775 5487 1662 
Q 5450 1550 5400 1550 
Q 5325 1550 5200 1800 
Q 4975 2150 4325 2500 
z
M 3150 3900 
Q 2500 3300 2300 3150 
Q 2800 3150 3400 3175 
Q 3700 3500 3850 3825 
L 4250 3450 
Q 4050 3400 3450 2825 
Q 2850 2250 2475 1950 
Q 3150 1975 3850 2000 
Q 3750 2175 3550 2450 
L 3600 2500 
Q 4050 2250 4200 2100 
Q 4350 1950 4350 1850 
Q 4350 1775 4250 1625 
Q 4150 1475 4100 1475 
Q 4075 1475 4050 1550 
Q 4000 1700 3900 1900 
Q 3650 1875 3075 1800 
L 3500 1550 
L 3325 1425 
L 3325 975 
L 5325 975 
L 5650 1300 
L 6100 825 
L 3325 825 
Q 3325 -275 3350 -525 
L 2975 -650 
Q 3000 0 3000 825 
L 1125 825 
Q 800 825 525 750 
L 300 975 
L 3000 975 
L 3000 1775 
Q 2450 1700 2200 1525 
L 1950 1950 
Q 2275 1950 2675 2350 
Q 3075 2750 3325 3050 
Q 2400 2950 2150 2775 
L 1950 3175 
Q 2150 3150 2475 3575 
Q 2800 4000 2900 4225 
L 1450 4225 
Q 1125 4225 850 4150 
L 625 4375 
L 3100 4375 
Q 3050 4800 2675 5200 
L 2725 5250 
Q 3225 5050 3337 4912 
Q 3450 4775 3450 4700 
Q 3450 4550 3250 4375 
L 5025 4375 
L 5350 4675 
L 5775 4225 
L 3050 4225 
L 3375 3950 
L 3150 3900 
z
" transform="scale(0.015625)"/>
      </defs>
      <use xlink:href="#SimSun-43"/>
      <use xlink:href="#SimSun-50" x="50"/>
      <use xlink:href="#SimSun-55" x="100"/>
      <use xlink:href="#SimSun-4f7f" x="150"/>
      <use xlink:href="#SimSun-7528" x="250"/>
      <use xlink:href="#SimSun-7387" x="350"/>
     </g>
    </g>
   </g>
   <g id="line2d_10">
    <path d="M 115.312577 93.834164 
L 118.356136 96.668863 
L 121.399695 98.393467 
L 124.443255 97.878068 
L 127.486814 97.164438 
L 130.530374 101.109226 
L 133.573933 99.662144 
L 136.617492 99.741437 
L 139.661052 102.080556 
L 142.704611 103.032062 
L 145.74817 101.921971 
L 148.79173 103.071709 
L 151.835289 119.227495 
L 154.878848 99.007981 
L 157.922408 98.849398 
L 160.965967 99.483734 
L 164.009526 100.355951 
L 167.053086 100.455064 
L 170.096645 102.338255 
L 173.140205 112.54052 
L 176.183764 114.542646 
L 179.227323 116.921413 
L 182.270883 119.69664 
L 185.314442 120.515995 
L 188.358001 118.890503 
L 191.401561 119.842009 
L 194.44512 120.568855 
L 197.488679 121.916822 
L 200.532239 121.626085 
L 203.575798 122.722959 
L 206.619357 123.502665 
L 209.662917 125.101726 
L 212.706476 126.17217 
L 215.750036 129.416547 
L 218.793595 125.114942 
L 221.837154 129.528877 
L 224.880714 124.546679 
L 227.924273 129.046515 
L 230.967832 124.269158 
L 234.011392 126.905624 
L 237.054951 121.78467 
L 240.09851 122.974053 
L 243.14207 122.689921 
L 246.185629 123.311044 
L 249.229188 123.390336 
L 252.272748 123.998243 
L 255.316307 123.912343 
L 258.359867 124.493819 
L 264.446985 124.533466 
L 267.490545 123.086381 
L 270.534104 124.110575 
L 273.577663 123.595174 
L 276.621223 125.002612 
L 279.664782 124.672226 
L 282.708341 125.31978 
L 285.751901 124.784556 
L 288.79546 127.68533 
L 291.83902 128.240377 
L 294.882579 129.429757 
L 297.926138 125.23388 
L 300.969698 125.841788 
L 304.013257 120.634931 
L 307.056816 125.260309 
L 310.100376 127.084034 
L 316.187494 127.751406 
L 319.231054 127.381378 
L 322.274613 126.621492 
L 325.318172 127.454063 
L 328.361732 126.535592 
L 331.405291 124.315411 
L 334.448851 125.907864 
L 337.49241 129.740322 
L 340.535969 128.385747 
L 343.579529 129.495837 
L 346.623088 130.275543 
L 349.666647 130.486989 
L 352.710207 130.440735 
L 355.753766 130.143391 
L 358.797325 125.874826 
L 361.840885 129.178667 
L 364.884444 126.053232 
L 367.928003 123.648035 
L 370.971563 125.23388 
L 374.015122 124.969572 
L 377.058682 125.987156 
L 380.102241 124.797773 
L 383.1458 122.670099 
L 386.18936 123.396944 
L 392.276478 123.238359 
L 395.320038 123.568743 
L 398.363597 122.419006 
L 401.407156 121.877177 
L 404.450716 121.560009 
L 407.494275 120.780301 
L 410.537834 120.661362 
L 413.581394 119.538055 
L 416.624953 112.091196 
L 419.668513 111.99208 
L 422.712072 120.767085 
L 425.755631 119.987379 
L 428.799191 120.093102 
L 431.84275 112.811435 
L 434.886309 110.095677 
L 437.929869 109.831369 
L 440.973428 110.862168 
L 444.016987 104.598084 
L 447.060547 97.243732 
L 450.104106 98.948514 
L 453.147665 99.688575 
L 456.191225 101.274418 
L 459.234784 101.697309 
L 462.278344 104.763275 
L 465.321903 105.31832 
L 468.365462 102.833833 
L 471.409022 106.71915 
L 474.452581 103.653185 
L 477.49614 104.446107 
L 480.5397 99.159959 
L 483.583259 91.455401 
L 486.626818 82.435913 
L 489.670378 77.579263 
L 492.713937 54.009658 
L 495.757496 75.596959 
L 498.801056 80.916145 
L 501.844615 84.153908 
L 504.888175 73.945036 
L 507.931734 76.422919 
L 510.975293 69.583969 
L 514.018853 76.455959 
L 517.062412 67.43647 
L 520.105971 56.461106 
L 523.149531 51.174964 
L 526.19309 55.417092 
L 529.236649 61.324365 
L 532.280209 60.769314 
L 535.323768 62.639291 
L 538.367327 67.410043 
L 541.410887 50.104514 
L 544.454446 64.178885 
L 547.498006 59.183474 
L 550.541565 59.460996 
L 553.585124 61.562241 
L 556.628684 57.320105 
L 559.672243 58.152678 
L 562.715802 64.588559 
L 565.759362 70.442965 
L 568.802921 67.43647 
L 571.84648 59.507249 
L 574.89004 55.13957 
L 577.933599 54.108774 
L 580.977158 55.13957 
L 584.020718 57.795859 
L 587.064277 57.280461 
L 590.107837 106.877735 
L 593.151396 54.901693 
L 596.194955 54.34665 
L 599.238515 61.046843 
L 602.282074 66.280123 
L 605.325633 63.108436 
L 608.369193 65.526848 
L 611.412752 79.792838 
L 614.456311 77.546227 
L 617.499871 76.257727 
L 620.54343 75.927343 
L 623.586989 78.73561 
L 626.630549 77.182803 
L 629.674108 72.68958 
L 632.717668 59.976394 
L 635.761227 62.156929 
L 638.804786 71.011226 
L 641.848346 77.612303 
L 644.891905 75.993419 
L 647.935464 76.422919 
L 650.979024 72.028809 
L 654.022583 83.394024 
L 657.066142 84.3191 
L 660.109702 83.427064 
L 663.153261 75.696075 
L 666.19682 63.683305 
L 669.24038 69.650042 
L 672.283939 79.363338 
L 675.327499 75.696075 
L 678.371058 77.810534 
L 681.414617 82.072489 
L 684.458177 81.213489 
L 687.501736 80.717913 
L 690.545295 81.874261 
L 693.588855 83.724408 
L 696.632414 82.601105 
L 699.675973 75.530883 
L 702.719533 66.399065 
L 705.763092 68.421013 
L 708.806651 67.667738 
L 711.850211 68.539952 
L 714.89377 67.628093 
L 717.93733 63.782421 
L 720.980889 62.07764 
L 724.024448 58.390547 
L 727.068008 61.403654 
L 730.111567 54.980983 
L 733.155126 56.963286 
L 736.198686 58.033735 
L 739.242245 55.496389 
L 742.285804 62.513748 
L 745.329364 67.786681 
L 748.372923 77.176198 
L 751.416482 79.297262 
L 754.460042 76.125575 
L 757.503601 71.724856 
L 760.547161 76.350234 
L 763.59072 83.724408 
L 766.634279 80.453605 
L 769.677839 81.609953 
L 772.721398 77.414075 
L 775.764957 78.140918 
L 778.808517 65.804369 
L 781.852076 71.599309 
L 784.895635 73.053 
L 787.939195 74.903152 
L 790.982754 73.878964 
L 794.026313 77.84357 
L 797.069873 75.266575 
L 800.113432 77.579263 
L 803.156992 78.570418 
L 806.200551 76.191651 
L 809.24411 79.825878 
L 812.28767 77.678378 
L 815.331229 78.603454 
L 818.374788 78.24003 
L 821.418348 65.837413 
L 824.461907 64.535696 
L 827.505466 58.430199 
L 830.549026 62.513748 
L 833.592585 52.483282 
L 836.636144 51.115492 
L 839.679704 33.889261 
L 842.723263 36.063188 
L 845.766823 49.0605 
L 848.810382 45.498959 
L 851.853941 58.07338 
L 854.897501 49.906283 
L 857.94106 45.426278 
L 860.984619 57.320105 
L 864.028179 56.64612 
L 867.071738 60.491792 
L 870.115297 63.108436 
L 873.158857 61.720821 
L 876.202416 61.601886 
L 879.245975 64.852863 
L 882.289535 58.985242 
L 885.333094 56.64612 
L 888.376654 56.765062 
L 891.420213 53.666056 
L 894.463772 47.719139 
L 897.507332 47.071588 
L 900.550891 60.888256 
L 903.59445 57.201171 
L 906.63801 61.007198 
L 909.681569 64.099588 
L 912.725128 61.760465 
L 915.768688 65.170037 
L 918.812247 52.443637 
L 921.855806 66.253696 
L 924.899366 63.227378 
L 927.942925 64.998232 
L 930.986485 66.015819 
L 934.030044 66.742667 
L 937.073603 72.061849 
L 943.160722 70.938541 
L 946.204281 67.965086 
L 949.247841 67.79989 
L 952.2914 74.407576 
L 955.334959 75.530883 
L 958.378519 81.504228 
L 961.422078 81.715674 
L 964.465637 81.557091 
L 967.509197 80.975612 
L 970.552756 84.38518 
L 973.596316 85.204531 
L 976.639875 83.090072 
L 982.726994 92.499415 
L 985.770553 91.389321 
L 988.814112 87.451142 
L 988.814112 87.451142 
" clip-path="url(#p78474e8b8d)" style="fill: none; stroke: #1f77b4; stroke-width: 1.5; stroke-linecap: square"/>
   </g>
   <g id="line2d_11">
    <path d="M 553.585124 52.126415 
L 556.628684 52.221569 
L 559.672243 50.619653 
L 562.715802 49.853239 
L 565.759362 52.297227 
L 568.802921 50.865974 
L 571.84648 50.60994 
L 574.89004 50.644615 
L 577.933599 50.333356 
L 580.977158 48.728825 
L 584.020718 51.604007 
L 587.064277 49.519586 
L 590.107837 49.754627 
L 593.151396 49.219592 
L 596.194955 51.247897 
L 599.238515 48.840394 
L 602.282074 49.15285 
L 605.325633 50.419491 
L 608.369193 50.027312 
L 611.412752 51.474486 
L 614.456311 50.119473 
L 617.499871 50.918332 
L 620.54343 50.064106 
L 623.586989 51.394668 
L 626.630549 49.885306 
L 629.674108 50.415174 
L 632.717668 50.179196 
L 635.761227 50.54583 
L 638.804786 52.435783 
L 641.848346 52.050828 
L 644.891905 54.414873 
L 647.935464 52.31625 
L 650.979024 52.431128 
L 654.022583 51.797914 
L 657.066142 52.877894 
L 660.109702 52.156805 
L 663.153261 51.875384 
L 666.19682 51.752243 
L 669.24038 52.753304 
L 672.283939 50.897489 
L 675.327499 52.916271 
L 678.371058 52.369609 
L 681.414617 52.346663 
L 684.458177 51.332416 
L 687.501736 51.922961 
L 690.545295 49.608998 
L 693.588855 51.242713 
L 696.632414 53.245914 
L 699.675973 50.299147 
L 702.719533 51.139045 
L 705.763092 49.21622 
L 708.806651 50.087288 
L 711.850211 49.897145 
L 714.89377 48.89651 
L 717.93733 50.2125 
L 724.024448 48.326004 
L 727.068008 46.708688 
L 730.111567 49.331421 
L 733.155126 46.907519 
L 736.198686 48.272023 
L 739.242245 46.566233 
L 742.285804 45.638326 
L 745.329364 44.057733 
L 751.416482 46.697984 
L 754.460042 42.674835 
L 757.503601 42.172726 
L 760.547161 43.745796 
L 763.59072 42.4164 
L 766.634279 41.455913 
L 769.677839 41.471793 
L 772.721398 40.314036 
L 775.764957 41.552146 
L 778.808517 39.49665 
L 781.852076 40.999309 
L 784.895635 39.745129 
L 787.939195 38.757002 
L 790.982754 38.982315 
L 794.026313 37.694383 
L 797.069873 37.168603 
L 800.113432 37.10242 
L 803.156992 38.326927 
L 806.200551 37.601781 
L 809.24411 37.292783 
L 812.28767 37.281559 
L 815.331229 38.750063 
L 818.374788 36.012925 
L 821.418348 39.838739 
L 824.461907 39.945874 
L 827.505466 37.783723 
L 830.549026 39.103605 
L 833.592585 38.702927 
L 836.636144 39.005954 
L 839.679704 38.48219 
L 842.723263 39.532553 
L 845.766823 39.849334 
L 848.810382 41.268906 
L 851.853941 41.626505 
L 854.897501 41.282092 
L 857.94106 41.774482 
L 860.984619 40.645916 
L 864.028179 43.646602 
L 867.071738 41.802358 
L 870.115297 43.544162 
L 873.158857 44.126388 
L 876.202416 43.809758 
L 879.245975 45.522148 
L 882.289535 44.936495 
L 885.333094 45.817511 
L 888.376654 48.372699 
L 891.420213 48.817669 
L 894.463772 49.526274 
L 897.507332 51.45755 
L 900.550891 49.991984 
L 903.59445 51.148481 
L 906.63801 49.905093 
L 909.681569 50.524278 
L 912.725128 51.676199 
L 915.768688 50.490376 
L 918.812247 52.731509 
L 921.855806 52.997522 
L 924.899366 54.554091 
L 927.942925 54.344382 
L 930.986485 55.022904 
L 934.030044 55.092111 
L 937.073603 57.294994 
L 940.117163 58.161784 
L 943.160722 59.145452 
L 946.204281 58.729635 
L 949.247841 61.03988 
L 952.2914 61.497185 
L 955.334959 62.094228 
L 958.378519 60.406437 
L 961.422078 63.457969 
L 964.465637 63.94434 
L 967.509197 64.066 
L 970.552756 65.59292 
L 973.596316 66.358444 
L 976.639875 65.509251 
L 979.683434 64.824978 
L 982.726994 65.146563 
L 985.770553 64.799874 
L 988.814112 66.174949 
L 988.814112 66.174949 
" clip-path="url(#p78474e8b8d)" style="fill: none; stroke: #ff7f0e; stroke-width: 1.5; stroke-linecap: square"/>
   </g>
   <g id="line2d_12">
    <path d="M 553.585124 135.316875 
L 553.585124 29.059375 
" clip-path="url(#p78474e8b8d)" style="fill: none; stroke-dasharray: 7.4,3.2; stroke-dashoffset: 0; stroke: #0000ff; stroke-width: 2"/>
   </g>
   <g id="patch_3">
    <path d="M 71.6375 135.316875 
L 71.6375 29.059375 
" style="fill: none; stroke: #000000; stroke-width: 0.8; stroke-linejoin: miter; stroke-linecap: square"/>
   </g>
   <g id="patch_4">
    <path d="M 1032.489189 135.316875 
L 1032.489189 29.059375 
" style="fill: none; stroke: #000000; stroke-width: 0.8; stroke-linejoin: miter; stroke-linecap: square"/>
   </g>
   <g id="patch_5">
    <path d="M 71.6375 135.316875 
L 1032.489189 135.316875 
" style="fill: none; stroke: #000000; stroke-width: 0.8; stroke-linejoin: miter; stroke-linecap: square"/>
   </g>
   <g id="patch_6">
    <path d="M 71.6375 29.059375 
L 1032.489189 29.059375 
" style="fill: none; stroke: #000000; stroke-width: 0.8; stroke-linejoin: miter; stroke-linecap: square"/>
   </g>
   <g id="text_11">
    <!-- 云函数ID: 28 -->
    <g transform="translate(492.063345 23.059375) scale(0.2 -0.2)">
     <defs>
      <path id="SimSun-4e91" d="M 1200 4450 
L 4500 4450 
L 4850 4800 
L 5350 4300 
L 1975 4300 
Q 1700 4300 1425 4225 
L 1200 4450 
z
M 1600 275 
Q 2300 300 4725 450 
Q 4425 975 3850 1700 
L 3925 1775 
Q 5200 725 5287 500 
Q 5375 275 5375 175 
Q 5375 0 5250 -162 
Q 5125 -325 5075 -325 
Q 5025 -325 4975 -200 
Q 4875 50 4775 300 
Q 1650 -25 1300 -300 
L 975 300 
Q 1225 350 1462 550 
Q 1700 750 2150 1462 
Q 2600 2175 2725 2600 
L 1250 2600 
Q 925 2600 650 2525 
L 425 2750 
L 5025 2750 
L 5450 3175 
L 6025 2600 
L 3250 2600 
Q 3000 2025 2500 1375 
Q 2000 725 1600 275 
z
" transform="scale(0.015625)"/>
      <path id="SimSun-51fd" d="M 3050 2275 
L 3050 3000 
Q 3050 3450 3025 3800 
L 3275 3625 
L 4450 4475 
L 1650 4475 
Q 1325 4475 1050 4400 
L 825 4625 
L 4450 4625 
L 4775 4875 
L 5150 4375 
Q 4875 4325 4550 4175 
Q 4225 4025 3400 3550 
L 3550 3450 
L 3375 3325 
L 3375 2400 
Q 4250 3225 4475 3600 
L 4875 3150 
L 4625 3125 
Q 3625 2425 3400 2275 
Q 4575 1675 4687 1487 
Q 4800 1300 4800 1150 
Q 4800 1025 4750 925 
Q 4700 825 4675 825 
Q 4575 825 4375 1150 
Q 4075 1600 3375 2150 
L 3375 725 
Q 3375 350 2875 150 
Q 2850 450 2200 650 
L 2200 750 
Q 2800 675 2925 700 
Q 3050 725 3050 850 
L 3050 2100 
Q 1850 1300 1625 1025 
L 1275 1400 
Q 1575 1475 2087 1725 
Q 2600 1975 3050 2275 
z
M 1700 3475 
L 1775 3550 
Q 2350 3200 2475 3025 
Q 2600 2850 2600 2775 
Q 2600 2650 2500 2525 
Q 2400 2400 2350 2400 
Q 2275 2400 2225 2575 
Q 2150 2875 1700 3475 
z
M 5150 0 
L 5150 2175 
Q 5150 2725 5125 3325 
L 5725 3050 
L 5500 2850 
L 5500 525 
Q 5500 100 5525 -400 
L 5150 -600 
L 5150 -150 
L 1250 -150 
L 1000 -375 
L 675 -50 
L 875 125 
L 875 2375 
Q 875 2800 850 3425 
L 1450 3150 
L 1225 2975 
L 1225 0 
L 5150 0 
z
" transform="scale(0.015625)"/>
      <path id="SimSun-6570" d="M 1875 1525 
Q 1675 1200 1500 900 
Q 1825 825 2275 725 
Q 2500 975 2725 1525 
L 1875 1525 
z
M 850 4900 
Q 1325 4600 1425 4450 
Q 1525 4300 1525 4225 
Q 1525 4100 1437 3975 
Q 1350 3850 1300 3850 
Q 1225 3850 1150 4100 
Q 1050 4450 775 4850 
L 850 4900 
z
M 3000 4975 
L 3450 4675 
Q 3250 4625 3100 4425 
Q 2925 4225 2525 3825 
L 2450 3875 
Q 2925 4625 3000 4975 
z
M 1875 5250 
L 2425 5000 
L 2225 4825 
L 2225 3675 
L 2850 3675 
L 3125 3950 
L 3550 3525 
L 2225 3525 
L 2225 3300 
Q 2800 3175 2937 3062 
Q 3075 2950 3075 2775 
Q 3075 2700 3050 2587 
Q 3025 2475 2975 2475 
Q 2925 2475 2800 2650 
Q 2600 2925 2225 3175 
L 2225 2400 
L 1925 2200 
L 2275 2050 
Q 2150 2000 1950 1675 
L 2725 1675 
L 2900 1900 
L 3275 1575 
L 3050 1450 
Q 2800 875 2600 650 
Q 3000 550 3137 437 
Q 3275 325 3275 150 
Q 3275 -25 3200 -25 
Q 3125 -25 3025 75 
Q 2750 275 2400 425 
Q 1525 -275 325 -500 
L 300 -425 
Q 1450 -50 2100 550 
Q 1600 725 1125 800 
Q 1225 950 1525 1525 
L 1200 1525 
Q 875 1525 600 1450 
L 375 1675 
L 1575 1675 
Q 1675 1925 1775 2275 
L 1900 2225 
L 1900 3250 
Q 1225 2475 350 2050 
L 300 2125 
Q 1225 2775 1700 3525 
L 1250 3525 
Q 925 3525 650 3450 
L 425 3675 
L 1900 3675 
Q 1900 4575 1875 5250 
z
M 3925 3525 
Q 4050 2075 4525 1100 
Q 4925 1950 5025 3525 
L 3925 3525 
z
M 4050 5250 
L 4625 4925 
Q 4425 4850 4325 4625 
Q 4225 4400 3950 3675 
L 5375 3675 
L 5675 3975 
L 6125 3525 
L 5400 3525 
Q 5250 1675 4750 775 
Q 5325 75 6100 -100 
L 6100 -200 
Q 5625 -275 5600 -500 
Q 4950 -50 4525 525 
Q 3700 -275 2550 -650 
L 2500 -575 
Q 3650 -50 4325 800 
Q 3850 1975 3825 3375 
Q 3575 2725 3100 2150 
L 3025 2200 
Q 3625 3200 4050 5250 
z
" transform="scale(0.015625)"/>
      <path id="SimSun-49" d="M 600 4225 
L 600 4375 
L 2600 4375 
L 2600 4225 
L 2025 4225 
Q 1925 4225 1862 4175 
Q 1800 4125 1800 4025 
L 1800 450 
Q 1800 350 1862 300 
Q 1925 250 2025 250 
L 2600 250 
L 2600 100 
L 600 100 
L 600 250 
L 1175 250 
Q 1300 250 1350 300 
Q 1400 350 1400 450 
L 1400 4025 
Q 1400 4125 1350 4175 
Q 1300 4225 1175 4225 
L 600 4225 
z
" transform="scale(0.015625)"/>
      <path id="SimSun-44" d="M 2500 2275 
Q 2500 3350 2175 3787 
Q 1850 4225 1275 4225 
Q 1100 4225 1012 4175 
Q 925 4125 925 4025 
L 925 450 
Q 925 350 1000 300 
Q 1075 250 1200 250 
Q 1750 250 2125 662 
Q 2500 1075 2500 2275 
z
M 525 4025 
Q 525 4125 475 4175 
Q 425 4225 300 4225 
L 150 4225 
L 150 4375 
L 1275 4375 
Q 2050 4375 2512 3875 
Q 2975 3375 2975 2325 
Q 2975 1175 2525 637 
Q 2075 100 1200 100 
L 125 100 
L 125 250 
L 300 250 
Q 425 250 475 300 
Q 525 350 525 450 
L 525 4025 
z
" transform="scale(0.015625)"/>
      <path id="SimSun-3a" d="M 1900 2725 
Q 1900 2575 1800 2475 
Q 1700 2375 1550 2375 
Q 1400 2375 1300 2475 
Q 1200 2575 1200 2725 
Q 1200 2875 1300 2975 
Q 1400 3075 1550 3075 
Q 1700 3075 1800 2975 
Q 1900 2875 1900 2725 
z
M 1900 375 
Q 1900 225 1800 125 
Q 1700 25 1550 25 
Q 1400 25 1300 125 
Q 1200 225 1200 375 
Q 1200 525 1300 625 
Q 1400 725 1550 725 
Q 1700 725 1800 625 
Q 1900 525 1900 375 
z
" transform="scale(0.015625)"/>
      <path id="SimSun-20" d="M 0 0 
Q 0 0 0 0 
z
" transform="scale(0.015625)"/>
      <path id="SimSun-32" d="M 2325 3325 
Q 2325 3775 2125 4012 
Q 1925 4250 1525 4250 
Q 1225 4250 1012 4087 
Q 800 3925 800 3675 
Q 800 3525 900 3425 
Q 975 3325 975 3225 
Q 975 3100 912 3037 
Q 850 2975 725 2975 
Q 575 2975 487 3062 
Q 400 3150 400 3350 
Q 400 3875 775 4150 
Q 1150 4425 1575 4425 
Q 2175 4425 2462 4125 
Q 2750 3825 2750 3375 
Q 2750 3075 2612 2775 
Q 2475 2475 2175 2200 
Q 1450 1500 1062 1062 
Q 675 625 600 475 
L 2075 475 
Q 2300 475 2450 650 
Q 2600 825 2650 1175 
L 2800 1175 
L 2650 100 
L 325 100 
L 325 425 
Q 450 650 737 1000 
Q 1025 1350 1500 1825 
Q 1925 2250 2125 2625 
Q 2325 3000 2325 3325 
z
" transform="scale(0.015625)"/>
      <path id="SimSun-38" d="M 625 1125 
Q 625 725 887 475 
Q 1150 225 1550 225 
Q 2025 225 2237 475 
Q 2450 725 2450 1100 
Q 2450 1425 2150 1725 
Q 1850 2025 1250 2275 
Q 950 2075 787 1775 
Q 625 1475 625 1125 
z
M 2825 1175 
Q 2825 700 2475 375 
Q 2125 50 1550 50 
Q 1025 50 650 375 
Q 275 700 275 1125 
Q 275 1550 487 1850 
Q 700 2150 1100 2375 
Q 750 2550 562 2812 
Q 375 3075 375 3400 
Q 375 3825 700 4125 
Q 1025 4425 1600 4425 
Q 2125 4425 2450 4125 
Q 2775 3825 2775 3400 
Q 2775 3100 2587 2837 
Q 2400 2575 2000 2375 
Q 2425 2125 2625 1825 
Q 2825 1525 2825 1175 
z
M 2425 3375 
Q 2425 3725 2225 3987 
Q 2025 4250 1600 4250 
Q 1125 4250 925 4000 
Q 725 3750 725 3475 
Q 725 3200 1012 2937 
Q 1300 2675 1825 2475 
Q 2125 2625 2275 2850 
Q 2425 3075 2425 3375 
z
" transform="scale(0.015625)"/>
     </defs>
     <use xlink:href="#SimSun-4e91"/>
     <use xlink:href="#SimSun-51fd" x="100"/>
     <use xlink:href="#SimSun-6570" x="200"/>
     <use xlink:href="#SimSun-49" x="300"/>
     <use xlink:href="#SimSun-44" x="350"/>
     <use xlink:href="#SimSun-3a" x="400"/>
     <use xlink:href="#SimSun-20" x="450"/>
     <use xlink:href="#SimSun-32" x="500"/>
     <use xlink:href="#SimSun-38" x="550"/>
    </g>
   </g>
   <g id="legend_1">
    <g id="patch_7">
     <path d="M 85.6375 101.934375 
L 209.6375 101.934375 
Q 213.6375 101.934375 213.6375 97.934375 
L 213.6375 43.059375 
Q 213.6375 39.059375 209.6375 39.059375 
L 85.6375 39.059375 
Q 81.6375 39.059375 81.6375 43.059375 
L 81.6375 97.934375 
Q 81.6375 101.934375 85.6375 101.934375 
z
" style="fill: #ffffff; opacity: 0.8; stroke: #cccccc; stroke-linejoin: miter"/>
    </g>
    <g id="line2d_13">
     <path d="M 89.6375 55.996875 
L 109.6375 55.996875 
L 129.6375 55.996875 
" style="fill: none; stroke: #1f77b4; stroke-width: 1.5; stroke-linecap: square"/>
    </g>
    <g id="text_12">
     <!-- 真实值 -->
     <g transform="translate(145.6375 62.996875) scale(0.2 -0.2)">
      <defs>
       <path id="SimSun-771f" d="M 2050 3450 
L 2050 2900 
L 4300 2900 
L 4300 3450 
L 2050 3450 
z
M 2050 2750 
L 2050 2225 
L 4300 2225 
L 4300 2750 
L 2050 2750 
z
M 2050 2075 
L 2050 1550 
L 4300 1550 
L 4300 2075 
L 2050 2075 
z
M 2050 1400 
L 2050 875 
L 4300 875 
L 4300 1400 
L 2050 1400 
z
M 2875 3600 
L 2925 4325 
L 1525 4325 
Q 1200 4325 925 4250 
L 700 4475 
L 2950 4475 
Q 2975 4825 2975 5275 
L 3550 5025 
L 3375 4925 
L 3300 4475 
L 5000 4475 
L 5325 4825 
L 5775 4325 
L 3275 4325 
L 3200 3600 
L 4275 3600 
L 4450 3875 
L 4850 3575 
L 4650 3375 
L 4650 875 
L 5300 875 
L 5675 1225 
L 6125 725 
L 1150 725 
Q 825 725 550 650 
L 325 875 
L 1700 875 
Q 1700 3200 1675 3775 
L 2050 3600 
L 2875 3600 
z
M 2425 725 
L 2825 350 
L 2575 300 
Q 1500 -425 800 -650 
L 775 -575 
Q 1950 125 2425 725 
z
M 3800 700 
Q 4575 375 4962 200 
Q 5350 25 5400 -112 
Q 5450 -250 5450 -325 
Q 5450 -400 5400 -525 
Q 5350 -650 5325 -650 
Q 5250 -650 5100 -450 
Q 4875 -150 3750 625 
L 3800 700 
z
" transform="scale(0.015625)"/>
       <path id="SimSun-5b9e" d="M 1950 3625 
Q 2575 3400 2700 3250 
Q 2825 3100 2825 2975 
Q 2825 2850 2750 2700 
Q 2675 2550 2625 2550 
Q 2550 2550 2450 2800 
Q 2275 3175 1900 3550 
L 1950 3625 
z
M 3575 1325 
Q 3500 1100 3425 925 
Q 4650 550 5087 325 
Q 5525 100 5512 -225 
Q 5500 -550 5400 -550 
Q 5300 -550 5075 -300 
Q 4625 175 3375 800 
Q 3025 175 2300 -150 
Q 1575 -475 425 -625 
L 425 -525 
Q 1475 -325 2200 100 
Q 2925 525 3200 1325 
L 1225 1325 
Q 900 1325 625 1250 
L 400 1475 
L 3225 1475 
Q 3325 1950 3375 2575 
Q 3425 3200 3425 3700 
L 4050 3400 
L 3850 3225 
Q 3750 2300 3625 1475 
L 5175 1475 
L 5550 1850 
L 6075 1325 
L 3575 1325 
z
M 1275 2700 
Q 1975 2425 2100 2262 
Q 2225 2100 2225 1975 
Q 2225 1850 2150 1700 
Q 2075 1550 2025 1550 
Q 1950 1550 1850 1800 
Q 1675 2175 1225 2625 
L 1275 2700 
z
M 2750 5225 
L 2825 5275 
Q 3225 5100 3425 4925 
Q 3625 4750 3625 4600 
Q 3625 4450 3512 4300 
Q 3400 4150 3325 4150 
Q 3250 4150 3200 4400 
Q 3100 4775 2750 5225 
z
M 4975 3225 
L 5350 3925 
L 1175 3925 
Q 1225 3525 1125 3300 
Q 1025 3075 787 3100 
Q 550 3125 550 3200 
Q 550 3300 700 3475 
Q 975 3825 1050 4375 
L 1150 4375 
L 1175 4075 
L 5300 4075 
L 5575 4350 
L 6050 3800 
Q 5625 3825 5050 3175 
L 4975 3225 
z
" transform="scale(0.015625)"/>
       <path id="SimSun-503c" d="M 1525 650 
Q 1525 -225 1550 -525 
L 1175 -650 
Q 1200 250 1200 550 
L 1200 3025 
Q 750 2300 325 1850 
L 250 1900 
Q 725 2625 1100 3525 
Q 1475 4425 1675 5200 
L 2200 4875 
L 1950 4725 
Q 1550 3800 1425 3475 
L 1725 3300 
L 1525 3150 
L 1525 650 
z
M 2875 3225 
L 2875 2475 
L 4800 2475 
L 4800 3225 
L 2875 3225 
z
M 2875 2325 
L 2875 1575 
L 4800 1575 
L 4800 2325 
L 2875 2325 
z
M 2875 1425 
L 2875 675 
L 4800 675 
L 4800 1425 
L 2875 1425 
z
M 2875 525 
L 2875 -225 
L 4800 -225 
L 4800 525 
L 2875 525 
z
M 3550 4250 
Q 3575 4825 3550 5225 
L 4125 4950 
L 3925 4800 
L 3900 4250 
L 5025 4250 
L 5350 4575 
L 5825 4100 
L 3900 4100 
L 3875 3375 
L 4750 3375 
L 4975 3625 
L 5350 3300 
L 5125 3150 
L 5125 -225 
L 5350 -225 
L 5675 100 
L 6150 -375 
L 2450 -375 
Q 2125 -375 1850 -450 
L 1625 -225 
L 2550 -225 
L 2550 2550 
Q 2550 2850 2525 3575 
L 2875 3375 
L 3525 3375 
L 3550 4100 
L 2800 4100 
Q 2475 4100 2200 4025 
L 1975 4250 
L 3550 4250 
z
" transform="scale(0.015625)"/>
      </defs>
      <use xlink:href="#SimSun-771f"/>
      <use xlink:href="#SimSun-5b9e" x="100"/>
      <use xlink:href="#SimSun-503c" x="200"/>
     </g>
    </g>
    <g id="line2d_14">
     <path d="M 89.6375 84.35625 
L 109.6375 84.35625 
L 129.6375 84.35625 
" style="fill: none; stroke: #ff7f0e; stroke-width: 1.5; stroke-linecap: square"/>
    </g>
    <g id="text_13">
     <!-- 预测值 -->
     <g transform="translate(145.6375 91.35625) scale(0.2 -0.2)">
      <defs>
       <path id="SimSun-9884" d="M 475 4825 
L 2225 4825 
L 2425 5075 
L 2825 4675 
Q 2600 4625 2387 4412 
Q 2175 4200 1800 3750 
Q 2050 3575 2037 3400 
Q 2025 3225 1937 3150 
Q 1850 3075 1825 3075 
Q 1725 3075 1650 3300 
Q 1525 3600 1050 4100 
L 1100 4150 
Q 1475 3975 1700 3825 
L 2225 4675 
L 1300 4675 
Q 975 4675 700 4600 
L 475 4825 
z
M 725 100 
Q 1175 50 1362 37 
Q 1550 25 1550 275 
L 1550 2875 
L 1125 2875 
Q 800 2875 525 2800 
L 300 3025 
L 2525 3025 
L 2725 3275 
L 3150 2875 
Q 2800 2825 2275 2075 
L 2200 2125 
L 2550 2875 
L 1875 2875 
L 1875 150 
Q 1875 -400 1350 -500 
Q 1325 -175 725 0 
L 725 100 
z
M 3250 775 
Q 3275 1425 3275 2287 
Q 3275 3150 3250 3900 
L 3600 3700 
L 4050 3700 
Q 4175 4400 4200 4675 
L 3650 4675 
Q 3325 4675 3050 4600 
L 2825 4825 
L 5325 4825 
L 5675 5150 
L 6125 4675 
L 4675 4675 
Q 4500 4425 4175 3700 
L 5300 3700 
L 5475 3975 
L 5875 3675 
L 5675 3475 
L 5675 1950 
Q 5675 1525 5700 1075 
L 5350 875 
L 5350 3550 
L 3600 3550 
L 3600 1000 
L 3250 775 
z
M 4850 2875 
L 4625 2675 
Q 4625 1475 4475 937 
Q 4325 400 3900 50 
Q 3475 -300 2425 -625 
L 2400 -550 
Q 3500 -50 3837 400 
Q 4175 850 4237 1587 
Q 4300 2325 4275 3175 
L 4850 2875 
z
M 4650 950 
Q 5725 375 5875 212 
Q 6025 50 6025 -125 
Q 6025 -225 5962 -387 
Q 5900 -550 5850 -550 
Q 5800 -550 5750 -450 
Q 5625 -250 5437 0 
Q 5250 250 4600 875 
L 4650 950 
z
" transform="scale(0.015625)"/>
       <path id="SimSun-6d4b" d="M 1975 1000 
Q 2000 1475 2000 2925 
Q 2000 4375 1975 5000 
L 2350 4775 
L 3575 4775 
L 3775 4975 
L 4100 4650 
L 3900 4500 
L 3900 2350 
Q 3900 1850 3925 1350 
L 3600 1200 
L 3600 4625 
L 2325 4625 
L 2325 1150 
L 1975 1000 
z
M 2775 3975 
L 3300 3700 
L 3125 3525 
Q 3150 1825 2875 937 
Q 2600 50 1375 -600 
L 1325 -500 
Q 2200 100 2475 725 
Q 2750 1350 2775 2187 
Q 2800 3025 2775 3975 
z
M 3100 950 
Q 3825 450 3937 262 
Q 4050 75 4050 -25 
Q 4050 -150 3975 -262 
Q 3900 -375 3850 -375 
Q 3750 -375 3650 -75 
Q 3500 375 3050 875 
L 3100 950 
z
M 4475 825 
Q 4500 1200 4500 1700 
L 4500 3400 
Q 4500 3950 4475 4300 
L 5025 4025 
L 4825 3825 
L 4825 1700 
Q 4825 1325 4850 950 
L 4475 825 
z
M 5375 150 
L 5375 4050 
Q 5375 4750 5350 5125 
L 5875 4875 
L 5700 4700 
L 5700 75 
Q 5700 -200 5600 -350 
Q 5500 -500 5200 -600 
Q 5025 -225 4450 -50 
L 4450 50 
Q 5125 -50 5250 -37 
Q 5375 -25 5375 150 
z
M 1850 3500 
Q 1375 1525 1300 1225 
Q 1200 900 1212 450 
Q 1225 0 1250 -175 
Q 1250 -275 1125 -275 
Q 1025 -275 875 -225 
Q 725 -175 725 0 
Q 725 125 800 375 
Q 875 625 875 775 
Q 875 950 762 1050 
Q 650 1150 275 1250 
L 275 1350 
Q 725 1300 837 1312 
Q 950 1325 1087 1537 
Q 1225 1750 1750 3525 
L 1850 3500 
z
M 375 3775 
Q 1075 3350 1112 3100 
Q 1150 2850 1050 2775 
Q 950 2700 900 2700 
Q 800 2700 725 2975 
Q 600 3350 325 3700 
L 375 3775 
z
M 800 5100 
Q 1475 4725 1550 4512 
Q 1625 4300 1525 4187 
Q 1425 4075 1350 4075 
Q 1275 4075 1200 4300 
Q 1075 4650 750 5025 
L 800 5100 
z
" transform="scale(0.015625)"/>
      </defs>
      <use xlink:href="#SimSun-9884"/>
      <use xlink:href="#SimSun-6d4b" x="100"/>
      <use xlink:href="#SimSun-503c" x="200"/>
     </g>
    </g>
   </g>
  </g>
  <g id="axes_2">
   <g id="patch_8">
    <path d="M 71.6375 309.916875 
L 1032.489189 309.916875 
L 1032.489189 203.659375 
L 71.6375 203.659375 
z
" style="fill: #ffffff"/>
   </g>
   <g id="matplotlib.axis_3">
    <g id="xtick_8">
     <g id="line2d_15">
      <g>
       <use xlink:href="#m06dfa6ac2e" x="115.312577" y="309.916875" style="stroke: #000000; stroke-width: 0.8"/>
      </g>
     </g>
     <g id="text_14">
      <!-- 0 -->
      <g transform="translate(110.312577 330.804375) scale(0.2 -0.2)">
       <use xlink:href="#TimesNewRomanPSMT-30"/>
      </g>
     </g>
    </g>
    <g id="xtick_9">
     <g id="line2d_16">
      <g>
       <use xlink:href="#m06dfa6ac2e" x="267.490545" y="309.916875" style="stroke: #000000; stroke-width: 0.8"/>
      </g>
     </g>
     <g id="text_15">
      <!-- 50 -->
      <g transform="translate(257.490545 330.804375) scale(0.2 -0.2)">
       <use xlink:href="#TimesNewRomanPSMT-35"/>
       <use xlink:href="#TimesNewRomanPSMT-30" x="50"/>
      </g>
     </g>
    </g>
    <g id="xtick_10">
     <g id="line2d_17">
      <g>
       <use xlink:href="#m06dfa6ac2e" x="419.668513" y="309.916875" style="stroke: #000000; stroke-width: 0.8"/>
      </g>
     </g>
     <g id="text_16">
      <!-- 100 -->
      <g transform="translate(404.668513 330.804375) scale(0.2 -0.2)">
       <use xlink:href="#TimesNewRomanPSMT-31"/>
       <use xlink:href="#TimesNewRomanPSMT-30" x="50"/>
       <use xlink:href="#TimesNewRomanPSMT-30" x="100"/>
      </g>
     </g>
    </g>
    <g id="xtick_11">
     <g id="line2d_18">
      <g>
       <use xlink:href="#m06dfa6ac2e" x="571.84648" y="309.916875" style="stroke: #000000; stroke-width: 0.8"/>
      </g>
     </g>
     <g id="text_17">
      <!-- 150 -->
      <g transform="translate(556.84648 330.804375) scale(0.2 -0.2)">
       <use xlink:href="#TimesNewRomanPSMT-31"/>
       <use xlink:href="#TimesNewRomanPSMT-35" x="50"/>
       <use xlink:href="#TimesNewRomanPSMT-30" x="100"/>
      </g>
     </g>
    </g>
    <g id="xtick_12">
     <g id="line2d_19">
      <g>
       <use xlink:href="#m06dfa6ac2e" x="724.024448" y="309.916875" style="stroke: #000000; stroke-width: 0.8"/>
      </g>
     </g>
     <g id="text_18">
      <!-- 200 -->
      <g transform="translate(709.024448 330.804375) scale(0.2 -0.2)">
       <use xlink:href="#TimesNewRomanPSMT-32"/>
       <use xlink:href="#TimesNewRomanPSMT-30" x="50"/>
       <use xlink:href="#TimesNewRomanPSMT-30" x="100"/>
      </g>
     </g>
    </g>
    <g id="xtick_13">
     <g id="line2d_20">
      <g>
       <use xlink:href="#m06dfa6ac2e" x="876.202416" y="309.916875" style="stroke: #000000; stroke-width: 0.8"/>
      </g>
     </g>
     <g id="text_19">
      <!-- 250 -->
      <g transform="translate(861.202416 330.804375) scale(0.2 -0.2)">
       <use xlink:href="#TimesNewRomanPSMT-32"/>
       <use xlink:href="#TimesNewRomanPSMT-35" x="50"/>
       <use xlink:href="#TimesNewRomanPSMT-30" x="100"/>
      </g>
     </g>
    </g>
    <g id="xtick_14">
     <g id="line2d_21">
      <g>
       <use xlink:href="#m06dfa6ac2e" x="1028.380384" y="309.916875" style="stroke: #000000; stroke-width: 0.8"/>
      </g>
     </g>
     <g id="text_20">
      <!-- 300 -->
      <g transform="translate(1013.380384 330.804375) scale(0.2 -0.2)">
       <use xlink:href="#TimesNewRomanPSMT-33"/>
       <use xlink:href="#TimesNewRomanPSMT-30" x="50"/>
       <use xlink:href="#TimesNewRomanPSMT-30" x="100"/>
      </g>
     </g>
    </g>
   </g>
   <g id="matplotlib.axis_4">
    <g id="ytick_3">
     <g id="line2d_22">
      <g>
       <use xlink:href="#m9694676204" x="71.6375" y="302.806409" style="stroke: #000000; stroke-width: 0.8"/>
      </g>
     </g>
     <g id="text_21">
      <!-- 0.0 -->
      <g transform="translate(39.6375 309.750159) scale(0.2 -0.2)">
       <use xlink:href="#TimesNewRomanPSMT-30"/>
       <use xlink:href="#TimesNewRomanPSMT-2e" x="50"/>
       <use xlink:href="#TimesNewRomanPSMT-30" x="75"/>
      </g>
     </g>
    </g>
    <g id="ytick_4">
     <g id="line2d_23">
      <g>
       <use xlink:href="#m9694676204" x="71.6375" y="233.373879" style="stroke: #000000; stroke-width: 0.8"/>
      </g>
     </g>
     <g id="text_22">
      <!-- 1.0 -->
      <g transform="translate(39.6375 240.317629) scale(0.2 -0.2)">
       <use xlink:href="#TimesNewRomanPSMT-31"/>
       <use xlink:href="#TimesNewRomanPSMT-2e" x="50"/>
       <use xlink:href="#TimesNewRomanPSMT-30" x="75"/>
      </g>
     </g>
    </g>
    <g id="text_23">
     <!-- CPU使用率 -->
     <g transform="translate(33.059375 301.788125) rotate(-90) scale(0.2 -0.2)">
      <use xlink:href="#SimSun-43"/>
      <use xlink:href="#SimSun-50" x="50"/>
      <use xlink:href="#SimSun-55" x="100"/>
      <use xlink:href="#SimSun-4f7f" x="150"/>
      <use xlink:href="#SimSun-7528" x="250"/>
      <use xlink:href="#SimSun-7387" x="350"/>
     </g>
    </g>
   </g>
   <g id="line2d_24">
    <path d="M 115.312577 230.152213 
L 118.356136 230.81876 
L 121.399695 227.152727 
L 124.443255 227.486 
L 127.486814 223.819967 
L 130.530374 228.819103 
L 133.573933 224.15324 
L 136.617492 228.819103 
L 139.661052 229.818931 
L 142.704611 227.152727 
L 145.74817 227.486 
L 148.79173 227.152727 
L 151.835289 221.820309 
L 154.878848 216.821165 
L 157.922408 224.15324 
L 160.965967 225.153069 
L 164.009526 224.15324 
L 167.053086 227.152727 
L 170.096645 225.486343 
L 173.140205 227.152727 
L 176.183764 228.485829 
L 179.227323 228.152556 
L 182.270883 226.819445 
L 185.314442 227.819274 
L 188.358001 227.152727 
L 191.401561 225.819616 
L 194.44512 227.152727 
L 197.488679 222.820138 
L 200.532239 225.153069 
L 203.575798 224.819796 
L 206.619357 224.819796 
L 209.662917 222.820138 
L 212.706476 221.153754 
L 215.750036 215.488063 
L 218.793595 216.15461 
L 221.837154 218.820823 
L 224.880714 216.15461 
L 227.924273 220.153925 
L 230.967832 221.153754 
L 234.011392 218.487541 
L 237.054951 220.82048 
L 240.09851 219.48737 
L 243.14207 219.154096 
L 246.185629 220.487199 
L 249.229188 222.486856 
L 252.272748 220.487199 
L 255.316307 220.82048 
L 258.359867 217.154439 
L 261.403426 221.153754 
L 264.446985 224.15324 
L 267.490545 218.154268 
L 270.534104 218.154268 
L 276.621223 217.487712 
L 279.664782 217.820994 
L 282.708341 219.820652 
L 285.751901 220.153925 
L 288.79546 218.820823 
L 291.83902 218.820823 
L 294.882579 219.820652 
L 297.926138 220.487199 
L 300.969698 220.82048 
L 304.013257 218.820823 
L 307.056816 214.154952 
L 310.100376 216.15461 
L 313.143935 215.154781 
L 316.187494 215.821336 
L 319.231054 217.154439 
L 322.274613 217.154439 
L 325.318172 221.153754 
L 328.361732 218.820823 
L 331.405291 218.154268 
L 334.448851 218.820823 
L 337.49241 220.487199 
L 340.535969 218.820823 
L 343.579529 218.820823 
L 346.623088 224.15324 
L 349.666647 223.819967 
L 352.710207 227.819274 
L 355.753766 227.486 
L 358.797325 221.153754 
L 361.840885 208.489261 
L 364.884444 229.818931 
L 367.928003 226.819445 
L 370.971563 232.485144 
L 374.015122 230.81876 
L 377.058682 235.484627 
L 380.102241 225.153069 
L 383.1458 242.483428 
L 386.18936 243.483257 
L 389.232919 246.482739 
L 392.276478 249.148952 
L 395.320038 247.815846 
L 398.363597 242.483428 
L 401.407156 251.815161 
L 404.450716 254.814643 
L 407.494275 252.81499 
L 410.537834 256.147749 
L 413.581394 252.481712 
L 416.624953 247.149294 
L 419.668513 260.480338 
L 422.712072 262.146718 
L 425.755631 263.479825 
L 428.799191 262.479996 
L 431.84275 266.812584 
L 434.886309 265.812756 
L 437.929869 269.812071 
L 440.973428 270.8119 
L 444.016987 272.811557 
L 447.060547 273.811386 
L 450.104106 272.47828 
L 453.147665 290.808464 
L 456.191225 275.144488 
L 459.234784 276.810872 
L 462.278344 277.810697 
L 465.321903 279.477081 
L 468.365462 280.143632 
L 471.409022 280.47691 
L 474.452581 282.14329 
L 477.49614 282.809841 
L 480.5397 283.80967 
L 483.583259 285.142772 
L 489.670378 285.142772 
L 492.713937 286.809153 
L 498.801056 288.142256 
L 501.844615 288.475533 
L 504.888175 289.142088 
L 507.931734 288.808807 
L 510.975293 289.808635 
L 514.018853 290.475191 
L 517.062412 290.475191 
L 523.149531 291.141746 
L 526.19309 291.141746 
L 532.280209 292.474848 
L 535.323768 292.474848 
L 541.410887 293.141395 
L 544.454446 292.474848 
L 547.498006 293.141395 
L 550.541565 293.141395 
L 553.585124 293.807951 
L 556.628684 293.474677 
L 559.672243 294.474506 
L 562.715802 293.807951 
L 565.759362 293.807951 
L 568.802921 294.474506 
L 571.84648 294.474506 
L 574.89004 294.807779 
L 577.933599 294.474506 
L 584.020718 294.474506 
L 587.064277 294.807779 
L 590.107837 294.474506 
L 593.151396 294.807779 
L 596.194955 294.807779 
L 599.238515 294.474506 
L 602.282074 295.474335 
L 605.325633 294.807779 
L 608.369193 294.807779 
L 611.412752 294.474506 
L 626.630549 294.474506 
L 629.674108 294.141224 
L 632.717668 293.474677 
L 635.761227 291.808293 
L 641.848346 292.474848 
L 647.935464 291.141746 
L 650.979024 291.141746 
L 654.022583 289.475362 
L 657.066142 289.808635 
L 660.109702 289.808635 
L 663.153261 289.142088 
L 666.19682 287.808982 
L 669.24038 287.142427 
L 672.283939 277.477424 
L 675.327499 283.476392 
L 678.371058 280.810184 
L 681.414617 280.810184 
L 684.458177 278.477252 
L 687.501736 277.144146 
L 690.545295 270.145349 
L 693.588855 275.144488 
L 696.632414 271.478451 
L 699.675973 271.478451 
L 702.719533 268.145691 
L 705.763092 265.479482 
L 708.806651 239.150664 
L 711.850211 258.480681 
L 714.89377 251.148605 
L 717.93733 255.147921 
L 720.980889 251.481883 
L 724.024448 251.148605 
L 727.068008 235.484627 
L 730.111567 250.815332 
L 733.155126 248.482397 
L 736.198686 249.482226 
L 739.242245 246.482739 
L 742.285804 244.483086 
L 745.329364 232.485144 
L 748.372923 238.150835 
L 751.416482 237.817562 
L 754.460042 240.48377 
L 757.503601 239.150664 
L 760.547161 239.483942 
L 763.59072 234.818075 
L 766.634279 242.483428 
L 769.677839 242.15015 
L 772.721398 242.15015 
L 775.764957 239.150664 
L 778.808517 237.151011 
L 781.852076 230.485487 
L 784.895635 226.819445 
L 787.939195 228.152556 
L 790.982754 227.486 
L 794.026313 225.486343 
L 797.069873 228.152556 
L 800.113432 226.486171 
L 803.156992 232.151862 
L 806.200551 232.151862 
L 812.28767 228.819103 
L 815.331229 228.485829 
L 818.374788 220.487199 
L 821.418348 219.820652 
L 824.461907 218.820823 
L 827.505466 220.487199 
L 830.549026 224.486514 
L 833.592585 225.153069 
L 836.636144 223.153412 
L 839.679704 222.486856 
L 842.723263 217.487712 
L 845.766823 219.820652 
L 848.810382 223.153412 
L 851.853941 222.820138 
L 854.897501 223.486685 
L 857.94106 210.488919 
L 860.984619 215.488063 
L 864.028179 224.15324 
L 867.071738 224.819796 
L 870.115297 220.487199 
L 873.158857 223.486685 
L 876.202416 225.819616 
L 879.245975 225.486343 
L 882.289535 224.819796 
L 885.333094 225.153069 
L 888.376654 226.152898 
L 891.420213 268.812242 
L 894.463772 209.822364 
L 897.507332 212.488577 
L 900.550891 219.154096 
L 903.59445 218.820823 
L 906.63801 220.487199 
L 909.681569 224.486514 
L 915.768688 227.152727 
L 918.812247 227.152727 
L 921.855806 229.485658 
L 924.899366 229.485658 
L 927.942925 225.486343 
L 930.986485 224.486514 
L 934.030044 226.152898 
L 937.073603 229.152384 
L 940.117163 232.818418 
L 943.160722 231.152042 
L 946.204281 231.485315 
L 949.247841 230.485487 
L 952.2914 232.485144 
L 955.334959 232.151862 
L 958.378519 231.485315 
L 961.422078 233.484969 
L 964.465637 224.819796 
L 967.509197 221.153754 
L 970.552756 228.152556 
L 973.596316 229.152384 
L 976.639875 229.152384 
L 979.683434 230.81876 
L 982.726994 228.152556 
L 985.770553 231.818589 
L 988.814112 230.152213 
L 988.814112 230.152213 
" clip-path="url(#p3ee99e6d12)" style="fill: none; stroke: #1f77b4; stroke-width: 1.5; stroke-linecap: square"/>
   </g>
   <g id="line2d_25">
    <path d="M 553.585124 297.897634 
L 556.628684 295.976732 
L 559.672243 296.6452 
L 562.715802 297.769473 
L 565.759362 298.357256 
L 568.802921 298.643458 
L 571.84648 301.026101 
L 574.89004 300.636213 
L 577.933599 299.499209 
L 580.977158 303.400384 
L 584.020718 302.596463 
L 587.064277 304.759625 
L 593.151396 303.439791 
L 596.194955 301.678834 
L 599.238515 302.448711 
L 602.282074 304.129695 
L 605.325633 302.139283 
L 608.369193 303.102652 
L 611.412752 303.139038 
L 614.456311 302.590148 
L 617.499871 305.086989 
L 620.54343 304.887331 
L 623.586989 304.467513 
L 626.630549 302.208603 
L 629.674108 303.515492 
L 632.717668 302.146493 
L 635.761227 300.430297 
L 638.804786 300.925279 
L 641.848346 297.856315 
L 644.891905 298.07405 
L 647.935464 299.988554 
L 650.979024 297.090527 
L 654.022583 295.882209 
L 657.066142 296.167112 
L 663.153261 294.634616 
L 666.19682 295.505059 
L 669.24038 293.176084 
L 672.283939 288.396115 
L 675.327499 288.941073 
L 678.371058 288.323965 
L 681.414617 288.823589 
L 684.458177 286.627788 
L 687.501736 284.843339 
L 690.545295 285.273859 
L 693.588855 283.316241 
L 696.632414 278.183328 
L 699.675973 278.638244 
L 702.719533 277.074176 
L 705.763092 273.056763 
L 708.806651 271.824711 
L 711.850211 270.976422 
L 714.89377 267.818654 
L 717.93733 266.606549 
L 720.980889 267.891612 
L 724.024448 266.514931 
L 727.068008 263.334211 
L 730.111567 263.258709 
L 736.198686 260.01988 
L 739.242245 258.101383 
L 745.329364 258.123172 
L 748.372923 255.680004 
L 751.416482 254.560129 
L 754.460042 254.226243 
L 760.547161 255.927399 
L 763.59072 255.727803 
L 766.634279 254.233113 
L 769.677839 254.078379 
L 772.721398 254.469248 
L 775.764957 253.310716 
L 778.808517 251.408789 
L 781.852076 252.49068 
L 784.895635 250.428593 
L 787.939195 249.596932 
L 790.982754 250.956534 
L 794.026313 251.083544 
L 797.069873 250.872253 
L 800.113432 251.406517 
L 803.156992 250.039678 
L 806.200551 249.068702 
L 809.24411 251.236979 
L 812.28767 251.569139 
L 815.331229 250.310373 
L 818.374788 247.18489 
L 821.418348 249.28424 
L 824.461907 247.542547 
L 827.505466 249.385136 
L 830.549026 249.006699 
L 833.592585 246.127751 
L 839.679704 249.48487 
L 842.723263 247.146708 
L 845.766823 244.561808 
L 848.810382 244.985558 
L 854.897501 245.297477 
L 857.94106 245.171964 
L 860.984619 244.668271 
L 864.028179 244.945956 
L 867.071738 244.49899 
L 870.115297 242.976489 
L 873.158857 245.236309 
L 876.202416 244.218553 
L 879.245975 243.575057 
L 882.289535 241.866791 
L 885.333094 242.288538 
L 888.376654 243.531793 
L 891.420213 241.794761 
L 894.463772 239.400907 
L 897.507332 240.572024 
L 900.550891 240.635082 
L 903.59445 241.905606 
L 906.63801 242.290454 
L 909.681569 243.362135 
L 912.725128 241.98305 
L 915.768688 242.969396 
L 918.812247 242.202258 
L 921.855806 241.792311 
L 924.899366 239.327871 
L 927.942925 240.95301 
L 930.986485 238.081238 
L 934.030044 241.059672 
L 937.073603 239.064111 
L 940.117163 240.641758 
L 943.160722 238.735622 
L 946.204281 240.039064 
L 949.247841 238.716055 
L 952.2914 239.366417 
L 955.334959 238.536477 
L 958.378519 241.181733 
L 961.422078 239.132277 
L 964.465637 239.690511 
L 967.509197 239.556701 
L 970.552756 238.613445 
L 973.596316 238.22722 
L 976.639875 238.826396 
L 979.683434 239.724368 
L 982.726994 238.961071 
L 985.770553 239.660155 
L 988.814112 239.221192 
L 988.814112 239.221192 
" clip-path="url(#p3ee99e6d12)" style="fill: none; stroke: #ff7f0e; stroke-width: 1.5; stroke-linecap: square"/>
   </g>
   <g id="line2d_26">
    <path d="M 553.585124 309.916875 
L 553.585124 203.659375 
" clip-path="url(#p3ee99e6d12)" style="fill: none; stroke-dasharray: 7.4,3.2; stroke-dashoffset: 0; stroke: #0000ff; stroke-width: 2"/>
   </g>
   <g id="patch_9">
    <path d="M 71.6375 309.916875 
L 71.6375 203.659375 
" style="fill: none; stroke: #000000; stroke-width: 0.8; stroke-linejoin: miter; stroke-linecap: square"/>
   </g>
   <g id="patch_10">
    <path d="M 1032.489189 309.916875 
L 1032.489189 203.659375 
" style="fill: none; stroke: #000000; stroke-width: 0.8; stroke-linejoin: miter; stroke-linecap: square"/>
   </g>
   <g id="patch_11">
    <path d="M 71.6375 309.916875 
L 1032.489189 309.916875 
" style="fill: none; stroke: #000000; stroke-width: 0.8; stroke-linejoin: miter; stroke-linecap: square"/>
   </g>
   <g id="patch_12">
    <path d="M 71.6375 203.659375 
L 1032.489189 203.659375 
" style="fill: none; stroke: #000000; stroke-width: 0.8; stroke-linejoin: miter; stroke-linecap: square"/>
   </g>
   <g id="text_24">
    <!-- 云函数ID: 72 -->
    <g transform="translate(492.063345 197.659375) scale(0.2 -0.2)">
     <defs>
      <path id="SimSun-37" d="M 2825 4200 
Q 2300 3350 1987 2537 
Q 1675 1725 1675 1125 
Q 1675 1025 1700 850 
Q 1700 650 1700 400 
Q 1700 200 1637 125 
Q 1575 50 1425 50 
Q 1300 50 1212 137 
Q 1125 225 1125 450 
Q 1125 925 1337 1625 
Q 1550 2325 2475 4000 
L 1225 4000 
Q 950 4000 787 3825 
Q 625 3650 550 3300 
L 400 3325 
L 575 4375 
L 2825 4375 
L 2825 4200 
z
" transform="scale(0.015625)"/>
     </defs>
     <use xlink:href="#SimSun-4e91"/>
     <use xlink:href="#SimSun-51fd" x="100"/>
     <use xlink:href="#SimSun-6570" x="200"/>
     <use xlink:href="#SimSun-49" x="300"/>
     <use xlink:href="#SimSun-44" x="350"/>
     <use xlink:href="#SimSun-3a" x="400"/>
     <use xlink:href="#SimSun-20" x="450"/>
     <use xlink:href="#SimSun-37" x="500"/>
     <use xlink:href="#SimSun-32" x="550"/>
    </g>
   </g>
  </g>
  <g id="axes_3">
   <g id="patch_13">
    <path d="M 71.6375 484.516875 
L 1032.489189 484.516875 
L 1032.489189 378.259375 
L 71.6375 378.259375 
z
" style="fill: #ffffff"/>
   </g>
   <g id="matplotlib.axis_5">
    <g id="xtick_15">
     <g id="line2d_27">
      <g>
       <use xlink:href="#m06dfa6ac2e" x="115.312577" y="484.516875" style="stroke: #000000; stroke-width: 0.8"/>
      </g>
     </g>
     <g id="text_25">
      <!-- 0 -->
      <g transform="translate(110.312577 505.404375) scale(0.2 -0.2)">
       <use xlink:href="#TimesNewRomanPSMT-30"/>
      </g>
     </g>
    </g>
    <g id="xtick_16">
     <g id="line2d_28">
      <g>
       <use xlink:href="#m06dfa6ac2e" x="267.490545" y="484.516875" style="stroke: #000000; stroke-width: 0.8"/>
      </g>
     </g>
     <g id="text_26">
      <!-- 50 -->
      <g transform="translate(257.490545 505.404375) scale(0.2 -0.2)">
       <use xlink:href="#TimesNewRomanPSMT-35"/>
       <use xlink:href="#TimesNewRomanPSMT-30" x="50"/>
      </g>
     </g>
    </g>
    <g id="xtick_17">
     <g id="line2d_29">
      <g>
       <use xlink:href="#m06dfa6ac2e" x="419.668513" y="484.516875" style="stroke: #000000; stroke-width: 0.8"/>
      </g>
     </g>
     <g id="text_27">
      <!-- 100 -->
      <g transform="translate(404.668513 505.404375) scale(0.2 -0.2)">
       <use xlink:href="#TimesNewRomanPSMT-31"/>
       <use xlink:href="#TimesNewRomanPSMT-30" x="50"/>
       <use xlink:href="#TimesNewRomanPSMT-30" x="100"/>
      </g>
     </g>
    </g>
    <g id="xtick_18">
     <g id="line2d_30">
      <g>
       <use xlink:href="#m06dfa6ac2e" x="571.84648" y="484.516875" style="stroke: #000000; stroke-width: 0.8"/>
      </g>
     </g>
     <g id="text_28">
      <!-- 150 -->
      <g transform="translate(556.84648 505.404375) scale(0.2 -0.2)">
       <use xlink:href="#TimesNewRomanPSMT-31"/>
       <use xlink:href="#TimesNewRomanPSMT-35" x="50"/>
       <use xlink:href="#TimesNewRomanPSMT-30" x="100"/>
      </g>
     </g>
    </g>
    <g id="xtick_19">
     <g id="line2d_31">
      <g>
       <use xlink:href="#m06dfa6ac2e" x="724.024448" y="484.516875" style="stroke: #000000; stroke-width: 0.8"/>
      </g>
     </g>
     <g id="text_29">
      <!-- 200 -->
      <g transform="translate(709.024448 505.404375) scale(0.2 -0.2)">
       <use xlink:href="#TimesNewRomanPSMT-32"/>
       <use xlink:href="#TimesNewRomanPSMT-30" x="50"/>
       <use xlink:href="#TimesNewRomanPSMT-30" x="100"/>
      </g>
     </g>
    </g>
    <g id="xtick_20">
     <g id="line2d_32">
      <g>
       <use xlink:href="#m06dfa6ac2e" x="876.202416" y="484.516875" style="stroke: #000000; stroke-width: 0.8"/>
      </g>
     </g>
     <g id="text_30">
      <!-- 250 -->
      <g transform="translate(861.202416 505.404375) scale(0.2 -0.2)">
       <use xlink:href="#TimesNewRomanPSMT-32"/>
       <use xlink:href="#TimesNewRomanPSMT-35" x="50"/>
       <use xlink:href="#TimesNewRomanPSMT-30" x="100"/>
      </g>
     </g>
    </g>
    <g id="xtick_21">
     <g id="line2d_33">
      <g>
       <use xlink:href="#m06dfa6ac2e" x="1028.380384" y="484.516875" style="stroke: #000000; stroke-width: 0.8"/>
      </g>
     </g>
     <g id="text_31">
      <!-- 300 -->
      <g transform="translate(1013.380384 505.404375) scale(0.2 -0.2)">
       <use xlink:href="#TimesNewRomanPSMT-33"/>
       <use xlink:href="#TimesNewRomanPSMT-30" x="50"/>
       <use xlink:href="#TimesNewRomanPSMT-30" x="100"/>
      </g>
     </g>
    </g>
   </g>
   <g id="matplotlib.axis_6">
    <g id="ytick_5">
     <g id="line2d_34">
      <g>
       <use xlink:href="#m9694676204" x="71.6375" y="457.10859" style="stroke: #000000; stroke-width: 0.8"/>
      </g>
     </g>
     <g id="text_32">
      <!-- 1.0 -->
      <g transform="translate(39.6375 464.05234) scale(0.2 -0.2)">
       <use xlink:href="#TimesNewRomanPSMT-31"/>
       <use xlink:href="#TimesNewRomanPSMT-2e" x="50"/>
       <use xlink:href="#TimesNewRomanPSMT-30" x="75"/>
      </g>
     </g>
    </g>
    <g id="ytick_6">
     <g id="line2d_35">
      <g>
       <use xlink:href="#m9694676204" x="71.6375" y="422.351205" style="stroke: #000000; stroke-width: 0.8"/>
      </g>
     </g>
     <g id="text_33">
      <!-- 2.0 -->
      <g transform="translate(39.6375 429.294955) scale(0.2 -0.2)">
       <use xlink:href="#TimesNewRomanPSMT-32"/>
       <use xlink:href="#TimesNewRomanPSMT-2e" x="50"/>
       <use xlink:href="#TimesNewRomanPSMT-30" x="75"/>
      </g>
     </g>
    </g>
    <g id="ytick_7">
     <g id="line2d_36">
      <g>
       <use xlink:href="#m9694676204" x="71.6375" y="387.59382" style="stroke: #000000; stroke-width: 0.8"/>
      </g>
     </g>
     <g id="text_34">
      <!-- 3.0 -->
      <g transform="translate(39.6375 394.53757) scale(0.2 -0.2)">
       <use xlink:href="#TimesNewRomanPSMT-33"/>
       <use xlink:href="#TimesNewRomanPSMT-2e" x="50"/>
       <use xlink:href="#TimesNewRomanPSMT-30" x="75"/>
      </g>
     </g>
    </g>
    <g id="text_35">
     <!-- CPU使用率 -->
     <g transform="translate(33.059375 476.388125) rotate(-90) scale(0.2 -0.2)">
      <use xlink:href="#SimSun-43"/>
      <use xlink:href="#SimSun-50" x="50"/>
      <use xlink:href="#SimSun-55" x="100"/>
      <use xlink:href="#SimSun-4f7f" x="150"/>
      <use xlink:href="#SimSun-7528" x="250"/>
      <use xlink:href="#SimSun-7387" x="350"/>
     </g>
    </g>
   </g>
   <g id="line2d_37">
    <path d="M 115.312577 398.604964 
L 118.356136 397.103444 
L 121.399695 397.437112 
L 124.443255 399.2723 
L 127.486814 397.770781 
L 130.530374 398.938632 
L 133.573933 397.103444 
L 136.617492 398.104457 
L 139.661052 383.089261 
L 142.704611 394.267235 
L 145.74817 399.10547 
L 148.79173 398.771794 
L 151.835289 399.605977 
L 154.878848 401.274326 
L 157.922408 399.10547 
L 160.965967 402.27534 
L 164.009526 404.777872 
L 167.053086 405.278379 
L 170.096645 404.777872 
L 173.140205 407.614073 
L 176.183764 404.94471 
L 179.227323 408.948763 
L 182.270883 408.948763 
L 185.314442 414.120658 
L 188.358001 413.95382 
L 191.401561 417.290527 
L 194.44512 417.457365 
L 197.488679 418.958885 
L 200.532239 421.461418 
L 206.619357 427.467492 
L 209.662917 424.130784 
L 212.706476 452.159138 
L 215.750036 430.470531 
L 218.793595 431.805217 
L 221.837154 433.974073 
L 224.880714 437.310784 
L 227.924273 438.645466 
L 230.967832 441.648505 
L 234.011392 442.649518 
L 237.054951 444.317872 
L 240.09851 446.65357 
L 243.14207 448.82243 
L 246.185629 450.657618 
L 249.229188 451.658631 
L 252.272748 454.161164 
L 255.316307 455.662683 
L 258.359867 456.830531 
L 261.403426 459.166227 
L 264.446985 461.168253 
L 267.490545 460.334076 
L 273.577663 464.004456 
L 276.621223 464.838633 
L 279.664782 466.173316 
L 282.708341 466.340153 
L 285.751901 465.839646 
L 288.79546 464.838633 
L 291.83902 465.839646 
L 294.882579 467.007493 
L 297.926138 467.17433 
L 300.969698 468.175343 
L 304.013257 468.509013 
L 307.056816 469.34319 
L 310.100376 470.344203 
L 313.143935 470.677873 
L 316.187494 470.511037 
L 319.231054 471.51205 
L 322.274613 473.01357 
L 325.318172 474.681925 
L 328.361732 475.516102 
L 331.405291 475.849773 
L 334.448851 476.683949 
L 340.535969 476.683949 
L 343.579529 477.01762 
L 346.623088 477.518126 
L 352.710207 477.851799 
L 355.753766 477.851799 
L 358.797325 472.846733 
L 361.840885 479.520152 
L 364.884444 479.186482 
L 367.928003 479.520152 
L 370.971563 479.186482 
L 374.015122 479.686989 
L 377.058682 479.186482 
L 380.102241 479.186482 
L 386.18936 479.520152 
L 389.232919 479.353316 
L 392.276478 479.353316 
L 395.320038 477.851799 
L 398.363597 478.352305 
L 401.407156 478.018633 
L 404.450716 478.018633 
L 407.494275 477.684963 
L 413.581394 476.016609 
L 416.624953 475.682936 
L 419.668513 475.015596 
L 422.712072 474.181419 
L 425.755631 473.514076 
L 428.799191 472.012557 
L 431.84275 465.839646 
L 434.886309 468.008506 
L 437.929869 466.340153 
L 440.973428 465.33914 
L 444.016987 463.337113 
L 447.060547 462.169266 
L 450.104106 456.16319 
L 453.147665 456.830531 
L 456.191225 454.494836 
L 459.234784 452.993317 
L 462.278344 449.990277 
L 465.321903 449.656605 
L 468.365462 426.800151 
L 471.409022 441.815339 
L 474.452581 439.646479 
L 477.49614 437.811291 
L 480.5397 434.808252 
L 483.583259 434.975086 
L 486.626818 430.971038 
L 489.670378 430.470531 
L 492.713937 427.63433 
L 495.757496 429.13585 
L 498.801056 424.297619 
L 501.844615 422.629265 
L 504.888175 412.785977 
L 507.931734 414.454326 
L 510.975293 414.287496 
L 514.018853 414.454326 
L 517.062412 412.118632 
L 520.105971 412.28547 
L 523.149531 410.617112 
L 526.19309 415.121671 
L 529.236649 415.455339 
L 532.280209 414.621165 
L 535.323768 414.621165 
L 538.367327 409.782937 
L 541.410887 409.782937 
L 544.454446 408.781924 
L 547.498006 409.616099 
L 550.541565 409.115593 
L 553.585124 403.943697 
L 556.628684 410.950781 
L 559.672243 407.280405 
L 562.715802 412.4523 
L 565.759362 413.620151 
L 568.802921 413.95382 
L 571.84648 409.449261 
L 574.89004 412.785977 
L 577.933599 401.107488 
L 580.977158 404.110527 
L 584.020718 403.443191 
L 587.064277 409.115593 
L 590.107837 410.450274 
L 593.151396 412.619138 
L 596.194955 413.119645 
L 599.238515 410.283444 
L 602.282074 409.282431 
L 605.325633 409.782937 
L 608.369193 412.28547 
L 611.412752 414.454326 
L 614.456311 411.784964 
L 617.499871 407.94775 
L 620.54343 409.115593 
L 623.586989 413.620151 
L 626.630549 413.286483 
L 629.674108 409.115593 
L 632.717668 412.785977 
L 635.761227 415.121671 
L 638.804786 414.621165 
L 641.848346 411.784964 
L 644.891905 411.618125 
L 647.935464 413.119645 
L 650.979024 439.31281 
L 654.022583 397.937619 
L 657.066142 399.2723 
L 660.109702 405.11154 
L 663.153261 405.945724 
L 666.19682 405.945724 
L 669.24038 407.780911 
L 672.283939 410.783951 
L 675.327499 409.782937 
L 678.371058 412.952807 
L 681.414617 410.450274 
L 684.458177 413.95382 
L 687.501736 409.115593 
L 690.545295 408.615086 
L 696.632414 416.790021 
L 699.675973 415.955846 
L 702.719533 415.455339 
L 705.763092 413.119645 
L 708.806651 415.789008 
L 711.850211 415.789008 
L 714.89377 417.457365 
L 717.93733 415.455339 
L 720.980889 416.456352 
L 724.024448 407.780911 
L 727.068008 405.445217 
L 730.111567 413.620151 
L 733.155126 414.287496 
L 736.198686 409.282431 
L 739.242245 408.948763 
L 742.285804 407.280405 
L 745.329364 410.617112 
L 748.372923 413.286483 
L 751.416482 417.457365 
L 754.460042 414.954833 
L 757.503601 413.78699 
L 760.547161 409.282431 
L 763.59072 409.449261 
L 769.677839 415.121671 
L 772.721398 414.954833 
L 775.764957 415.789008 
L 778.808517 413.620151 
L 784.895635 413.620151 
L 787.939195 415.121671 
L 790.982754 414.954833 
L 794.026313 413.453313 
L 797.069873 412.118632 
L 800.113432 412.118632 
L 803.156992 415.789008 
L 806.200551 408.11458 
L 809.24411 409.282431 
L 812.28767 412.952807 
L 815.331229 405.445217 
L 818.374788 409.949767 
L 821.418348 411.784964 
L 824.461907 411.951794 
L 827.505466 403.776859 
L 830.549026 407.280405 
L 833.592585 404.277366 
L 836.636144 404.277366 
L 839.679704 399.2723 
L 842.723263 405.11154 
L 845.766823 403.943697 
L 848.810382 402.108501 
L 851.853941 397.103444 
L 854.897501 398.604964 
L 857.94106 397.603951 
L 860.984619 396.936606 
L 864.028179 399.10547 
L 867.071738 397.270274 
L 870.115297 390.763698 
L 873.158857 395.435086 
L 876.202416 392.098379 
L 879.245975 389.09534 
L 882.289535 390.430021 
L 885.333094 388.761671 
L 888.376654 384.423943 
L 891.420213 390.930528 
L 894.463772 386.592807 
L 897.507332 388.427995 
L 900.550891 388.427995 
L 903.59445 385.258126 
L 906.63801 390.263191 
L 909.681569 392.098379 
L 912.725128 395.268248 
L 915.768688 391.431034 
L 918.812247 385.758632 
L 921.855806 397.603951 
L 924.899366 393.099392 
L 927.942925 396.436099 
L 930.986485 397.437112 
L 934.030044 399.2723 
L 937.073603 396.436099 
L 940.117163 398.604964 
L 943.160722 390.930528 
L 946.204281 394.767742 
L 949.247841 394.93458 
L 952.2914 398.438126 
L 955.334959 394.767742 
L 958.378519 397.770781 
L 961.422078 397.270274 
L 964.465637 395.435086 
L 967.509197 399.10547 
L 970.552756 399.10547 
L 973.596316 397.937619 
L 976.639875 395.435086 
L 979.683434 384.590781 
L 982.726994 393.766728 
L 985.770553 393.266222 
L 988.814112 394.434073 
L 988.814112 394.434073 
" clip-path="url(#p9e9c56d507)" style="fill: none; stroke: #1f77b4; stroke-width: 1.5; stroke-linecap: square"/>
   </g>
   <g id="line2d_38">
    <path d="M 553.585124 421.51887 
L 556.628684 421.84155 
L 559.672243 421.131454 
L 562.715802 418.974738 
L 565.759362 419.846907 
L 568.802921 417.803853 
L 571.84648 418.243178 
L 574.89004 416.811185 
L 577.933599 415.878439 
L 580.977158 417.871764 
L 584.020718 416.301903 
L 587.064277 417.199414 
L 590.107837 416.529193 
L 593.151396 417.493488 
L 596.194955 418.877194 
L 599.238515 415.979745 
L 602.282074 416.104147 
L 605.325633 417.718806 
L 608.369193 418.852491 
L 611.412752 417.418981 
L 614.456311 417.282149 
L 620.54343 417.833338 
L 623.586989 418.383159 
L 626.630549 417.691169 
L 629.674108 418.078064 
L 632.717668 418.319939 
L 635.761227 418.831815 
L 638.804786 419.626197 
L 641.848346 418.496647 
L 644.891905 420.549231 
L 647.935464 421.737675 
L 650.979024 419.929179 
L 654.022583 419.661076 
L 660.109702 420.758995 
L 663.153261 422.01675 
L 666.19682 420.624666 
L 669.24038 422.254598 
L 672.283939 423.423862 
L 675.327499 421.210336 
L 678.371058 422.244968 
L 681.414617 421.486104 
L 684.458177 423.683939 
L 687.501736 424.195964 
L 690.545295 422.462178 
L 693.588855 422.281977 
L 696.632414 424.275427 
L 699.675973 423.990721 
L 702.719533 423.310867 
L 705.763092 424.548895 
L 708.806651 423.960047 
L 711.850211 424.332017 
L 714.89377 423.113359 
L 717.93733 424.749842 
L 720.980889 424.824481 
L 727.068008 422.666912 
L 730.111567 424.634883 
L 733.155126 422.16573 
L 736.198686 422.005621 
L 739.242245 421.538427 
L 742.285804 422.769246 
L 745.329364 422.305785 
L 748.372923 420.701004 
L 751.416482 419.937225 
L 754.460042 417.92194 
L 757.503601 417.942367 
L 760.547161 421.129655 
L 763.59072 419.967986 
L 766.634279 418.30228 
L 769.677839 416.898379 
L 772.721398 415.724984 
L 775.764957 418.390427 
L 778.808517 416.571017 
L 781.852076 416.602159 
L 784.895635 415.366231 
L 787.939195 413.358462 
L 790.982754 414.012797 
L 794.026313 414.411848 
L 797.069873 412.173623 
L 800.113432 411.332073 
L 803.156992 411.608745 
L 806.200551 409.313879 
L 809.24411 409.397899 
L 812.28767 409.88194 
L 815.331229 409.086929 
L 818.374788 406.044386 
L 821.418348 408.642714 
L 827.505466 405.779117 
L 830.549026 406.771413 
L 833.592585 404.8798 
L 836.636144 402.298518 
L 839.679704 402.344435 
L 842.723263 402.659806 
L 848.810382 401.317973 
L 851.853941 401.228575 
L 854.897501 398.709808 
L 857.94106 399.9194 
L 860.984619 401.006248 
L 864.028179 399.893222 
L 867.071738 399.154329 
L 870.115297 398.067664 
L 873.158857 397.128777 
L 876.202416 396.825911 
L 879.245975 395.358334 
L 882.289535 396.130035 
L 885.333094 397.062532 
L 888.376654 395.800576 
L 891.420213 393.770955 
L 894.463772 395.74198 
L 897.507332 396.009147 
L 900.550891 394.314321 
L 903.59445 394.794467 
L 906.63801 393.496048 
L 909.681569 393.32147 
L 912.725128 395.837245 
L 915.768688 393.840415 
L 918.812247 393.906154 
L 921.855806 393.186884 
L 924.899366 394.252799 
L 927.942925 394.155678 
L 930.986485 394.260365 
L 934.030044 394.840036 
L 937.073603 394.477372 
L 940.117163 395.045938 
L 943.160722 393.662232 
L 946.204281 396.334984 
L 949.247841 397.352471 
L 952.2914 397.106842 
L 955.334959 395.911105 
L 961.422078 399.770429 
L 964.465637 399.377626 
L 967.509197 399.776304 
L 970.552756 401.576057 
L 976.639875 402.094878 
L 979.683434 403.331443 
L 982.726994 402.824597 
L 985.770553 405.003016 
L 988.814112 404.6126 
L 988.814112 404.6126 
" clip-path="url(#p9e9c56d507)" style="fill: none; stroke: #ff7f0e; stroke-width: 1.5; stroke-linecap: square"/>
   </g>
   <g id="line2d_39">
    <path d="M 553.585124 484.516875 
L 553.585124 378.259375 
" clip-path="url(#p9e9c56d507)" style="fill: none; stroke-dasharray: 7.4,3.2; stroke-dashoffset: 0; stroke: #0000ff; stroke-width: 2"/>
   </g>
   <g id="patch_14">
    <path d="M 71.6375 484.516875 
L 71.6375 378.259375 
" style="fill: none; stroke: #000000; stroke-width: 0.8; stroke-linejoin: miter; stroke-linecap: square"/>
   </g>
   <g id="patch_15">
    <path d="M 1032.489189 484.516875 
L 1032.489189 378.259375 
" style="fill: none; stroke: #000000; stroke-width: 0.8; stroke-linejoin: miter; stroke-linecap: square"/>
   </g>
   <g id="patch_16">
    <path d="M 71.6375 484.516875 
L 1032.489189 484.516875 
" style="fill: none; stroke: #000000; stroke-width: 0.8; stroke-linejoin: miter; stroke-linecap: square"/>
   </g>
   <g id="patch_17">
    <path d="M 71.6375 378.259375 
L 1032.489189 378.259375 
" style="fill: none; stroke: #000000; stroke-width: 0.8; stroke-linejoin: miter; stroke-linecap: square"/>
   </g>
   <g id="text_36">
    <!-- 云函数ID: 150 -->
    <g transform="translate(487.063345 372.259375) scale(0.2 -0.2)">
     <defs>
      <path id="SimSun-31" d="M 1825 4450 
L 1825 650 
Q 1825 450 1950 350 
Q 2075 250 2300 250 
L 2550 250 
L 2550 100 
L 725 100 
L 725 250 
L 950 250 
Q 1200 250 1312 350 
Q 1425 450 1425 650 
L 1425 3675 
Q 1425 3775 1362 3837 
Q 1300 3900 1175 3900 
L 725 3900 
L 725 4050 
L 950 4050 
Q 1250 4050 1437 4150 
Q 1625 4250 1725 4450 
L 1825 4450 
z
" transform="scale(0.015625)"/>
      <path id="SimSun-35" d="M 1725 2850 
Q 2200 2850 2500 2487 
Q 2800 2125 2800 1525 
Q 2800 850 2487 450 
Q 2175 50 1525 50 
Q 1075 50 725 312 
Q 375 575 375 950 
Q 375 1100 462 1212 
Q 550 1325 700 1325 
Q 850 1325 900 1225 
Q 950 1125 950 1050 
Q 950 900 875 825 
Q 800 725 800 625 
Q 800 425 1037 325 
Q 1275 225 1550 225 
Q 1950 225 2162 550 
Q 2375 875 2375 1475 
Q 2375 1975 2187 2287 
Q 2000 2600 1625 2600 
Q 1350 2600 1150 2500 
Q 950 2400 775 2075 
L 550 2100 
L 675 4375 
L 2725 4375 
L 2650 4000 
L 850 4000 
L 750 2350 
Q 1000 2700 1237 2775 
Q 1475 2850 1725 2850 
z
" transform="scale(0.015625)"/>
      <path id="SimSun-30" d="M 1600 4225 
Q 1250 4225 1012 3687 
Q 775 3150 775 2250 
Q 775 1300 1012 775 
Q 1250 250 1600 250 
Q 1975 250 2187 775 
Q 2400 1300 2400 2250 
Q 2400 3150 2200 3687 
Q 2000 4225 1600 4225 
z
M 1600 50 
Q 1050 50 675 625 
Q 300 1200 300 2250 
Q 300 3225 662 3825 
Q 1025 4425 1600 4425 
Q 2150 4425 2512 3850 
Q 2875 3275 2875 2250 
Q 2875 1225 2512 637 
Q 2150 50 1600 50 
z
" transform="scale(0.015625)"/>
     </defs>
     <use xlink:href="#SimSun-4e91"/>
     <use xlink:href="#SimSun-51fd" x="100"/>
     <use xlink:href="#SimSun-6570" x="200"/>
     <use xlink:href="#SimSun-49" x="300"/>
     <use xlink:href="#SimSun-44" x="350"/>
     <use xlink:href="#SimSun-3a" x="400"/>
     <use xlink:href="#SimSun-20" x="450"/>
     <use xlink:href="#SimSun-31" x="500"/>
     <use xlink:href="#SimSun-35" x="550"/>
     <use xlink:href="#SimSun-30" x="600"/>
    </g>
   </g>
  </g>
  <g id="axes_4">
   <g id="patch_18">
    <path d="M 71.6375 659.116875 
L 1032.489189 659.116875 
L 1032.489189 552.859375 
L 71.6375 552.859375 
z
" style="fill: #ffffff"/>
   </g>
   <g id="matplotlib.axis_7">
    <g id="xtick_22">
     <g id="line2d_40">
      <g>
       <use xlink:href="#m06dfa6ac2e" x="115.312577" y="659.116875" style="stroke: #000000; stroke-width: 0.8"/>
      </g>
     </g>
     <g id="text_37">
      <!-- 0 -->
      <g transform="translate(110.312577 680.004375) scale(0.2 -0.2)">
       <use xlink:href="#TimesNewRomanPSMT-30"/>
      </g>
     </g>
    </g>
    <g id="xtick_23">
     <g id="line2d_41">
      <g>
       <use xlink:href="#m06dfa6ac2e" x="267.490545" y="659.116875" style="stroke: #000000; stroke-width: 0.8"/>
      </g>
     </g>
     <g id="text_38">
      <!-- 50 -->
      <g transform="translate(257.490545 680.004375) scale(0.2 -0.2)">
       <use xlink:href="#TimesNewRomanPSMT-35"/>
       <use xlink:href="#TimesNewRomanPSMT-30" x="50"/>
      </g>
     </g>
    </g>
    <g id="xtick_24">
     <g id="line2d_42">
      <g>
       <use xlink:href="#m06dfa6ac2e" x="419.668513" y="659.116875" style="stroke: #000000; stroke-width: 0.8"/>
      </g>
     </g>
     <g id="text_39">
      <!-- 100 -->
      <g transform="translate(404.668513 680.004375) scale(0.2 -0.2)">
       <use xlink:href="#TimesNewRomanPSMT-31"/>
       <use xlink:href="#TimesNewRomanPSMT-30" x="50"/>
       <use xlink:href="#TimesNewRomanPSMT-30" x="100"/>
      </g>
     </g>
    </g>
    <g id="xtick_25">
     <g id="line2d_43">
      <g>
       <use xlink:href="#m06dfa6ac2e" x="571.84648" y="659.116875" style="stroke: #000000; stroke-width: 0.8"/>
      </g>
     </g>
     <g id="text_40">
      <!-- 150 -->
      <g transform="translate(556.84648 680.004375) scale(0.2 -0.2)">
       <use xlink:href="#TimesNewRomanPSMT-31"/>
       <use xlink:href="#TimesNewRomanPSMT-35" x="50"/>
       <use xlink:href="#TimesNewRomanPSMT-30" x="100"/>
      </g>
     </g>
    </g>
    <g id="xtick_26">
     <g id="line2d_44">
      <g>
       <use xlink:href="#m06dfa6ac2e" x="724.024448" y="659.116875" style="stroke: #000000; stroke-width: 0.8"/>
      </g>
     </g>
     <g id="text_41">
      <!-- 200 -->
      <g transform="translate(709.024448 680.004375) scale(0.2 -0.2)">
       <use xlink:href="#TimesNewRomanPSMT-32"/>
       <use xlink:href="#TimesNewRomanPSMT-30" x="50"/>
       <use xlink:href="#TimesNewRomanPSMT-30" x="100"/>
      </g>
     </g>
    </g>
    <g id="xtick_27">
     <g id="line2d_45">
      <g>
       <use xlink:href="#m06dfa6ac2e" x="876.202416" y="659.116875" style="stroke: #000000; stroke-width: 0.8"/>
      </g>
     </g>
     <g id="text_42">
      <!-- 250 -->
      <g transform="translate(861.202416 680.004375) scale(0.2 -0.2)">
       <use xlink:href="#TimesNewRomanPSMT-32"/>
       <use xlink:href="#TimesNewRomanPSMT-35" x="50"/>
       <use xlink:href="#TimesNewRomanPSMT-30" x="100"/>
      </g>
     </g>
    </g>
    <g id="xtick_28">
     <g id="line2d_46">
      <g>
       <use xlink:href="#m06dfa6ac2e" x="1028.380384" y="659.116875" style="stroke: #000000; stroke-width: 0.8"/>
      </g>
     </g>
     <g id="text_43">
      <!-- 300 -->
      <g transform="translate(1013.380384 680.004375) scale(0.2 -0.2)">
       <use xlink:href="#TimesNewRomanPSMT-33"/>
       <use xlink:href="#TimesNewRomanPSMT-30" x="50"/>
       <use xlink:href="#TimesNewRomanPSMT-30" x="100"/>
      </g>
     </g>
    </g>
   </g>
   <g id="matplotlib.axis_8">
    <g id="ytick_8">
     <g id="line2d_47">
      <g>
       <use xlink:href="#m9694676204" x="71.6375" y="624.278848" style="stroke: #000000; stroke-width: 0.8"/>
      </g>
     </g>
     <g id="text_44">
      <!-- 10.0 -->
      <g transform="translate(29.6375 631.222598) scale(0.2 -0.2)">
       <use xlink:href="#TimesNewRomanPSMT-31"/>
       <use xlink:href="#TimesNewRomanPSMT-30" x="50"/>
       <use xlink:href="#TimesNewRomanPSMT-2e" x="100"/>
       <use xlink:href="#TimesNewRomanPSMT-30" x="125"/>
      </g>
     </g>
    </g>
    <g id="ytick_9">
     <g id="line2d_48">
      <g>
       <use xlink:href="#m9694676204" x="71.6375" y="554.528165" style="stroke: #000000; stroke-width: 0.8"/>
      </g>
     </g>
     <g id="text_45">
      <!-- 20.0 -->
      <g transform="translate(29.6375 561.471915) scale(0.2 -0.2)">
       <use xlink:href="#TimesNewRomanPSMT-32"/>
       <use xlink:href="#TimesNewRomanPSMT-30" x="50"/>
       <use xlink:href="#TimesNewRomanPSMT-2e" x="100"/>
       <use xlink:href="#TimesNewRomanPSMT-30" x="125"/>
      </g>
     </g>
    </g>
    <g id="text_46">
     <!-- CPU使用率 -->
     <g transform="translate(23.059375 650.988125) rotate(-90) scale(0.2 -0.2)">
      <use xlink:href="#SimSun-43"/>
      <use xlink:href="#SimSun-50" x="50"/>
      <use xlink:href="#SimSun-55" x="100"/>
      <use xlink:href="#SimSun-4f7f" x="150"/>
      <use xlink:href="#SimSun-7528" x="250"/>
      <use xlink:href="#SimSun-7387" x="350"/>
     </g>
    </g>
   </g>
   <g id="line2d_49">
    <path d="M 115.312577 595.060286 
L 118.356136 594.3279 
L 121.399695 599.7015 
L 124.443255 600.963985 
L 127.486814 599.278809 
L 130.530374 601.960021 
L 133.573933 602.738438 
L 136.617492 601.095122 
L 139.661052 601.268099 
L 142.704611 604.425011 
L 145.74817 605.808868 
L 148.79173 600.749147 
L 151.835289 654.286989 
L 154.878848 599.840998 
L 157.922408 599.624769 
L 160.965967 600.489682 
L 164.009526 604.338523 
L 167.053086 600.403187 
L 170.096645 602.003272 
L 173.140205 601.18161 
L 176.183764 601.61406 
L 179.227323 600.619421 
L 185.314442 604.770979 
L 188.358001 598.976092 
L 191.401561 604.684484 
L 194.44512 605.852113 
L 197.488679 604.381767 
L 200.532239 608.317103 
L 203.575798 608.749553 
L 206.619357 604.857468 
L 209.662917 606.457553 
L 212.706476 606.933253 
L 215.750036 610.306394 
L 218.793595 613.969692 
L 221.837154 616.020367 
L 224.880714 609.156905 
L 227.924273 613.132691 
L 230.967832 614.806706 
L 234.011392 616.104068 
L 237.054951 616.731825 
L 240.09851 618.531395 
L 243.14207 616.271471 
L 246.185629 615.769262 
L 252.272748 619.368396 
L 255.316307 616.271471 
L 258.359867 617.150326 
L 261.403426 613.802296 
L 264.446985 619.159146 
L 267.490545 619.6195 
L 270.534104 618.112888 
L 273.577663 618.40584 
L 276.621223 619.41025 
L 279.664782 616.39702 
L 282.708341 618.40584 
L 285.751901 618.99175 
L 288.79546 618.280291 
L 291.83902 617.275881 
L 294.882579 619.954306 
L 297.926138 613.46749 
L 300.969698 619.075445 
L 304.013257 615.267061 
L 307.056816 614.890401 
L 310.100376 615.476311 
L 313.143935 617.066624 
L 316.187494 615.560012 
L 319.231054 617.819937 
L 322.274613 616.731825 
L 325.318172 615.267061 
L 328.361732 617.108472 
L 331.405291 619.954306 
L 334.448851 615.05781 
L 337.49241 614.430047 
L 340.535969 613.383789 
L 346.623088 613.132691 
L 349.666647 615.015956 
L 352.710207 617.778083 
L 355.753766 616.522568 
L 358.797325 617.485131 
L 361.840885 617.610687 
L 364.884444 618.698792 
L 367.928003 617.987333 
L 370.971563 613.718595 
L 374.015122 614.388199 
L 377.058682 612.756038 
L 380.102241 616.313325 
L 383.1458 616.187763 
L 386.18936 612.630483 
L 389.232919 612.46308 
L 392.276478 613.634893 
L 395.320038 612.923435 
L 398.363597 610.454266 
L 401.407156 611.66792 
L 404.450716 610.789065 
L 407.494275 609.073197 
L 410.537834 610.161308 
L 413.581394 593.030538 
L 416.624953 586.564656 
L 419.668513 591.691329 
L 422.712072 594.718509 
L 425.755631 594.376732 
L 428.799191 596.329749 
L 431.84275 596.280924 
L 434.886309 599.601055 
L 437.929869 601.700548 
L 440.973428 604.07905 
L 444.016987 602.248788 
L 447.060547 581.198041 
L 456.191225 586.875748 
L 459.234784 588.0629 
L 462.278344 599.181158 
L 465.321903 598.644073 
L 468.365462 601.222061 
L 471.409022 600.623599 
L 474.452581 598.690112 
L 477.49614 595.145384 
L 480.5397 602.000484 
L 483.583259 581.350091 
L 486.626818 572.317391 
L 489.670378 575.922105 
L 492.713937 569.984913 
L 495.757496 585.729046 
L 498.801056 589.492789 
L 501.844615 593.998682 
L 504.888175 596.65479 
L 507.931734 594.994724 
L 510.975293 597.603397 
L 514.018853 600.733808 
L 517.062412 594.378129 
L 520.105971 577.982532 
L 523.149531 578.907431 
L 526.19309 582.062953 
L 529.236649 592.911967 
L 532.280209 591.740154 
L 535.323768 591.398377 
L 538.367327 587.541162 
L 541.410887 589.005926 
L 544.454446 591.544853 
L 547.498006 594.572033 
L 550.541565 598.673369 
L 553.585124 597.745689 
L 556.628684 581.517494 
L 562.715802 596.23768 
L 565.759362 595.240241 
L 568.802921 595.731287 
L 571.84648 595.552722 
L 574.89004 597.025862 
L 577.933599 592.427899 
L 580.977158 593.142145 
L 584.020718 594.749194 
L 587.064277 597.918672 
L 590.107837 642.235463 
L 593.151396 565.891946 
L 596.194955 557.689261 
L 599.238515 572.16115 
L 602.282074 581.535627 
L 605.325633 584.850184 
L 608.369193 587.511866 
L 611.412752 592.081938 
L 614.456311 592.165633 
L 617.499871 597.338343 
L 620.54343 598.09723 
L 623.586989 599.570363 
L 626.630549 601.17742 
L 629.674108 585.123606 
L 632.717668 583.042239 
L 635.761227 590.073111 
L 638.804786 598.476677 
L 641.848346 595.240241 
L 644.891905 597.963307 
L 647.935464 597.47226 
L 650.979024 598.231154 
L 654.022583 599.436446 
L 657.066142 600.373891 
L 660.109702 602.56127 
L 663.153261 596.043769 
L 666.19682 590.508354 
L 669.24038 598.766835 
L 672.283939 603.766569 
L 675.327499 599.347164 
L 678.371058 602.56127 
L 681.414617 602.56127 
L 684.458177 598.990041 
L 687.501736 602.6952 
L 690.545295 602.516635 
L 693.588855 602.963041 
L 696.632414 598.9454 
L 699.675973 597.47226 
L 702.719533 597.740108 
L 705.763092 602.427353 
L 708.806651 603.543363 
L 711.850211 600.597097 
L 714.89377 602.159512 
L 717.93733 600.95422 
L 720.980889 594.70456 
L 724.024448 602.338071 
L 727.068008 602.382718 
L 730.111567 603.543363 
L 733.155126 602.204154 
L 736.198686 600.46318 
L 739.242245 601.623825 
L 742.285804 601.757742 
L 745.329364 601.088144 
L 748.372923 604.391532 
L 751.416482 607.025316 
L 754.460042 603.230881 
L 757.503601 603.320164 
L 760.547161 605.730748 
L 763.59072 603.588004 
L 766.634279 598.900759 
L 769.677839 603.855845 
L 772.721398 600.418533 
L 775.764957 600.731021 
L 778.808517 602.114871 
L 781.852076 600.552456 
L 784.895635 599.972134 
L 787.939195 602.276693 
L 790.982754 602.204154 
L 794.026313 599.972134 
L 797.069873 600.597097 
L 800.113432 600.284616 
L 803.156992 603.320164 
L 806.200551 604.257615 
L 809.24411 591.942433 
L 812.28767 592.734799 
L 815.331229 593.88987 
L 818.374788 589.068707 
L 821.418348 590.776195 
L 824.461907 590.374437 
L 827.505466 580.308024 
L 830.549026 580.023441 
L 833.592585 577.467778 
L 836.636144 576.262485 
L 839.679704 578.371737 
L 842.723263 574.354096 
L 845.766823 588.666936 
L 848.810382 582.640482 
L 851.853941 586.75856 
L 854.897501 583.59467 
L 857.94106 578.221084 
L 860.984619 589.018478 
L 864.028179 588.666936 
L 867.071738 589.671353 
L 870.115297 589.621124 
L 873.158857 590.022895 
L 876.202416 590.022895 
L 879.245975 591.730389 
L 882.289535 589.922451 
L 885.333094 588.466054 
L 888.376654 578.522403 
L 891.420213 578.968802 
L 894.463772 578.466607 
L 897.507332 585.553268 
L 900.550891 584.297754 
L 903.59445 584.59908 
L 906.63801 586.457241 
L 909.681569 589.269583 
L 912.725128 589.520687 
L 915.768688 590.424653 
L 918.812247 576.395005 
L 924.899366 586.658123 
L 927.942925 586.457241 
L 930.986485 586.105692 
L 934.030044 586.959442 
L 937.073603 586.858998 
L 940.117163 585.452824 
L 943.160722 585.854595 
L 946.204281 582.389378 
L 949.247841 581.234308 
L 952.2914 584.699524 
L 955.334959 586.407012 
L 961.422078 587.662526 
L 964.465637 585.90481 
L 967.509197 588.164735 
L 970.552756 588.767381 
L 973.596316 588.114513 
L 976.639875 582.74092 
L 979.683434 589.169138 
L 982.726994 592.483695 
L 985.770553 591.981493 
L 988.814112 583.192906 
L 988.814112 583.192906 
" clip-path="url(#p4a29eb5909)" style="fill: none; stroke: #1f77b4; stroke-width: 1.5; stroke-linecap: square"/>
   </g>
   <g id="line2d_50">
    <path d="M 553.585124 614.115682 
L 556.628684 614.759777 
L 559.672243 613.723298 
L 562.715802 612.276141 
L 565.759362 613.356716 
L 568.802921 613.771231 
L 571.84648 612.399501 
L 574.89004 612.609203 
L 577.933599 615.321706 
L 580.977158 612.072585 
L 584.020718 612.934098 
L 587.064277 612.650386 
L 590.107837 613.507096 
L 593.151396 613.920022 
L 596.194955 615.478114 
L 599.238515 614.19643 
L 602.282074 613.47822 
L 605.325633 615.375733 
L 608.369193 615.554225 
L 611.412752 615.270061 
L 614.456311 615.11809 
L 617.499871 614.429867 
L 620.54343 613.61505 
L 623.586989 614.766934 
L 626.630549 615.259271 
L 629.674108 614.386264 
L 635.761227 615.73736 
L 638.804786 615.826635 
L 641.848346 616.331498 
L 644.891905 616.98581 
L 647.935464 616.507901 
L 650.979024 616.441747 
L 654.022583 616.21775 
L 657.066142 615.438468 
L 660.109702 615.506205 
L 663.153261 616.487612 
L 666.19682 615.793529 
L 669.24038 615.34427 
L 672.283939 616.666623 
L 675.327499 615.769894 
L 678.371058 615.926601 
L 681.414617 614.023573 
L 684.458177 615.634787 
L 687.501736 616.117638 
L 690.545295 613.95108 
L 693.588855 615.029606 
L 696.632414 617.03099 
L 699.675973 616.157044 
L 702.719533 616.104254 
L 705.763092 617.864232 
L 708.806651 616.855019 
L 711.850211 616.753424 
L 714.89377 616.417754 
L 717.93733 617.48875 
L 720.980889 616.165113 
L 724.024448 616.34737 
L 727.068008 617.256477 
L 730.111567 616.642576 
L 733.155126 617.375334 
L 736.198686 617.687217 
L 739.242245 617.796269 
L 742.285804 617.571786 
L 745.329364 616.984273 
L 748.372923 617.362815 
L 751.416482 617.586227 
L 754.460042 616.442266 
L 757.503601 616.136563 
L 760.547161 616.813604 
L 763.59072 617.048963 
L 766.634279 615.482258 
L 769.677839 616.605591 
L 772.721398 615.635718 
L 775.764957 616.257681 
L 778.808517 617.343837 
L 784.895635 616.057445 
L 787.939195 617.163849 
L 790.982754 616.138432 
L 794.026313 615.740772 
L 797.069873 616.303054 
L 800.113432 615.778143 
L 803.156992 616.317043 
L 806.200551 616.267466 
L 809.24411 615.990499 
L 812.28767 615.476091 
L 815.331229 616.251282 
L 818.374788 616.327267 
L 821.418348 618.139902 
L 824.461907 617.900558 
L 827.505466 614.818474 
L 830.549026 616.34848 
L 833.592585 617.305808 
L 836.636144 615.407829 
L 839.679704 614.663171 
L 842.723263 616.120725 
L 845.766823 617.415186 
L 848.810382 616.866547 
L 851.853941 616.171951 
L 854.897501 617.397991 
L 857.94106 615.96612 
L 860.984619 615.639496 
L 864.028179 616.870006 
L 867.071738 615.117798 
L 870.115297 615.686093 
L 873.158857 614.892137 
L 876.202416 615.472007 
L 879.245975 615.260808 
L 882.289535 616.519362 
L 885.333094 615.253145 
L 891.420213 615.535606 
L 894.463772 616.988843 
L 897.507332 616.835549 
L 900.550891 616.055023 
L 903.59445 615.627569 
L 906.63801 614.552542 
L 909.681569 614.021764 
L 912.725128 615.325365 
L 915.768688 613.98863 
L 921.855806 613.95881 
L 924.899366 615.613234 
L 927.942925 614.526227 
L 930.986485 615.238318 
L 934.030044 614.259424 
L 937.073603 614.706162 
L 940.117163 614.240021 
L 946.204281 614.820263 
L 949.247841 615.79905 
L 952.2914 615.267367 
L 955.334959 616.114039 
L 958.378519 615.243154 
L 961.422078 617.159186 
L 964.465637 615.702723 
L 967.509197 617.648417 
L 970.552756 617.497005 
L 973.596316 617.106942 
L 976.639875 616.941774 
L 979.683434 615.65306 
L 982.726994 617.209029 
L 985.770553 615.865603 
L 988.814112 616.237799 
L 988.814112 616.237799 
" clip-path="url(#p4a29eb5909)" style="fill: none; stroke: #ff7f0e; stroke-width: 1.5; stroke-linecap: square"/>
   </g>
   <g id="line2d_51">
    <path d="M 553.585124 659.116875 
L 553.585124 552.859375 
" clip-path="url(#p4a29eb5909)" style="fill: none; stroke-dasharray: 7.4,3.2; stroke-dashoffset: 0; stroke: #0000ff; stroke-width: 2"/>
   </g>
   <g id="patch_19">
    <path d="M 71.6375 659.116875 
L 71.6375 552.859375 
" style="fill: none; stroke: #000000; stroke-width: 0.8; stroke-linejoin: miter; stroke-linecap: square"/>
   </g>
   <g id="patch_20">
    <path d="M 1032.489189 659.116875 
L 1032.489189 552.859375 
" style="fill: none; stroke: #000000; stroke-width: 0.8; stroke-linejoin: miter; stroke-linecap: square"/>
   </g>
   <g id="patch_21">
    <path d="M 71.6375 659.116875 
L 1032.489189 659.116875 
" style="fill: none; stroke: #000000; stroke-width: 0.8; stroke-linejoin: miter; stroke-linecap: square"/>
   </g>
   <g id="patch_22">
    <path d="M 71.6375 552.859375 
L 1032.489189 552.859375 
" style="fill: none; stroke: #000000; stroke-width: 0.8; stroke-linejoin: miter; stroke-linecap: square"/>
   </g>
   <g id="text_47">
    <!-- 云函数ID: 165 -->
    <g transform="translate(487.063345 546.859375) scale(0.2 -0.2)">
     <defs>
      <path id="SimSun-36" d="M 775 1800 
Q 775 1050 1037 637 
Q 1300 225 1675 225 
Q 2050 225 2250 500 
Q 2450 775 2450 1525 
Q 2450 2025 2237 2300 
Q 2025 2575 1725 2575 
Q 1450 2575 1212 2412 
Q 975 2250 775 1800 
z
M 1750 2825 
Q 2350 2825 2612 2425 
Q 2875 2025 2875 1525 
Q 2875 775 2512 412 
Q 2150 50 1675 50 
Q 1000 50 650 562 
Q 300 1075 300 2050 
Q 300 3200 725 3812 
Q 1150 4425 1875 4425 
Q 2225 4425 2437 4225 
Q 2650 4025 2650 3875 
Q 2650 3725 2587 3650 
Q 2525 3575 2375 3575 
Q 2250 3575 2187 3637 
Q 2125 3700 2125 3825 
Q 2125 3875 2150 3925 
Q 2150 3975 2150 4025 
Q 2150 4125 2075 4187 
Q 2000 4250 1800 4250 
Q 1375 4250 1075 3862 
Q 775 3475 775 2175 
Q 925 2500 1187 2662 
Q 1450 2825 1750 2825 
z
" transform="scale(0.015625)"/>
     </defs>
     <use xlink:href="#SimSun-4e91"/>
     <use xlink:href="#SimSun-51fd" x="100"/>
     <use xlink:href="#SimSun-6570" x="200"/>
     <use xlink:href="#SimSun-49" x="300"/>
     <use xlink:href="#SimSun-44" x="350"/>
     <use xlink:href="#SimSun-3a" x="400"/>
     <use xlink:href="#SimSun-20" x="450"/>
     <use xlink:href="#SimSun-31" x="500"/>
     <use xlink:href="#SimSun-36" x="550"/>
     <use xlink:href="#SimSun-35" x="600"/>
    </g>
   </g>
  </g>
 </g>
 <defs>
  <clipPath id="p78474e8b8d">
   <rect x="71.6375" y="29.059375" width="960.851689" height="106.2575"/>
  </clipPath>
  <clipPath id="p3ee99e6d12">
   <rect x="71.6375" y="203.659375" width="960.851689" height="106.2575"/>
  </clipPath>
  <clipPath id="p9e9c56d507">
   <rect x="71.6375" y="378.259375" width="960.851689" height="106.2575"/>
  </clipPath>
  <clipPath id="p4a29eb5909">
   <rect x="71.6375" y="552.859375" width="960.851689" height="106.2575"/>
  </clipPath>
 </defs>
</svg>
