<?xml version="1.0" encoding="utf-8" standalone="no"?>
<!DOCTYPE svg PUBLIC "-//W3C//DTD SVG 1.1//EN"
  "http://www.w3.org/Graphics/SVG/1.1/DTD/svg11.dtd">
<svg xmlns:xlink="http://www.w3.org/1999/xlink" width="1050.150808pt" height="691.4825pt" viewBox="0 0 1050.150808 691.4825" xmlns="http://www.w3.org/2000/svg" version="1.1">
 <metadata>
  <rdf:RDF xmlns:dc="http://purl.org/dc/elements/1.1/" xmlns:cc="http://creativecommons.org/ns#" xmlns:rdf="http://www.w3.org/1999/02/22-rdf-syntax-ns#">
   <cc:Work>
    <dc:type rdf:resource="http://purl.org/dc/dcmitype/StillImage"/>
    <dc:date>2024-02-26T16:33:28.697335</dc:date>
    <dc:format>image/svg+xml</dc:format>
    <dc:creator>
     <cc:Agent>
      <dc:title>Matplotlib v3.7.4, https://matplotlib.org/</dc:title>
     </cc:Agent>
    </dc:creator>
   </cc:Work>
  </rdf:RDF>
 </metadata>
 <defs>
  <style type="text/css">*{stroke-linejoin: round; stroke-linecap: butt}</style>
 </defs>
 <g id="figure_1">
  <g id="patch_1">
   <path d="M 0 691.4825 
L 1050.150808 691.4825 
L 1050.150808 0 
L 0 0 
z
" style="fill: #ffffff"/>
  </g>
  <g id="axes_1">
   <g id="patch_2">
    <path d="M 71.6375 135.316875 
L 1035.250909 135.316875 
L 1035.250909 29.059375 
L 71.6375 29.059375 
z
" style="fill: #ffffff"/>
   </g>
   <g id="matplotlib.axis_1">
    <g id="xtick_1">
     <g id="line2d_1">
      <defs>
       <path id="m3cfcffd979" d="M 0 0 
L 0 3.5 
" style="stroke: #000000; stroke-width: 0.8"/>
      </defs>
      <g>
       <use xlink:href="#m3cfcffd979" x="115.43811" y="135.316875" style="stroke: #000000; stroke-width: 0.8"/>
      </g>
     </g>
     <g id="text_1">
      <!-- 0 -->
      <g transform="translate(110.43811 156.204375) scale(0.2 -0.2)">
       <defs>
        <path id="TimesNewRomanPSMT-30" d="M 231 2094 
Q 231 2819 450 3342 
Q 669 3866 1031 4122 
Q 1313 4325 1613 4325 
Q 2100 4325 2488 3828 
Q 2972 3213 2972 2159 
Q 2972 1422 2759 906 
Q 2547 391 2217 158 
Q 1888 -75 1581 -75 
Q 975 -75 572 641 
Q 231 1244 231 2094 
z
M 844 2016 
Q 844 1141 1059 588 
Q 1238 122 1591 122 
Q 1759 122 1940 273 
Q 2122 425 2216 781 
Q 2359 1319 2359 2297 
Q 2359 3022 2209 3506 
Q 2097 3866 1919 4016 
Q 1791 4119 1609 4119 
Q 1397 4119 1231 3928 
Q 1006 3669 925 3112 
Q 844 2556 844 2016 
z
" transform="scale(0.015625)"/>
       </defs>
       <use xlink:href="#TimesNewRomanPSMT-30"/>
      </g>
     </g>
    </g>
    <g id="xtick_2">
     <g id="line2d_2">
      <g>
       <use xlink:href="#m3cfcffd979" x="267.523559" y="135.316875" style="stroke: #000000; stroke-width: 0.8"/>
      </g>
     </g>
     <g id="text_2">
      <!-- 50 -->
      <g transform="translate(257.523559 156.204375) scale(0.2 -0.2)">
       <defs>
        <path id="TimesNewRomanPSMT-35" d="M 2778 4238 
L 2534 3706 
L 1259 3706 
L 981 3138 
Q 1809 3016 2294 2522 
Q 2709 2097 2709 1522 
Q 2709 1188 2573 903 
Q 2438 619 2231 419 
Q 2025 219 1772 97 
Q 1413 -75 1034 -75 
Q 653 -75 479 54 
Q 306 184 306 341 
Q 306 428 378 495 
Q 450 563 559 563 
Q 641 563 702 538 
Q 763 513 909 409 
Q 1144 247 1384 247 
Q 1750 247 2026 523 
Q 2303 800 2303 1197 
Q 2303 1581 2056 1914 
Q 1809 2247 1375 2428 
Q 1034 2569 447 2591 
L 1259 4238 
L 2778 4238 
z
" transform="scale(0.015625)"/>
       </defs>
       <use xlink:href="#TimesNewRomanPSMT-35"/>
       <use xlink:href="#TimesNewRomanPSMT-30" x="50"/>
      </g>
     </g>
    </g>
    <g id="xtick_3">
     <g id="line2d_3">
      <g>
       <use xlink:href="#m3cfcffd979" x="419.609009" y="135.316875" style="stroke: #000000; stroke-width: 0.8"/>
      </g>
     </g>
     <g id="text_3">
      <!-- 100 -->
      <g transform="translate(404.609009 156.204375) scale(0.2 -0.2)">
       <defs>
        <path id="TimesNewRomanPSMT-31" d="M 750 3822 
L 1781 4325 
L 1884 4325 
L 1884 747 
Q 1884 391 1914 303 
Q 1944 216 2037 169 
Q 2131 122 2419 116 
L 2419 0 
L 825 0 
L 825 116 
Q 1125 122 1212 167 
Q 1300 213 1334 289 
Q 1369 366 1369 747 
L 1369 3034 
Q 1369 3497 1338 3628 
Q 1316 3728 1258 3775 
Q 1200 3822 1119 3822 
Q 1003 3822 797 3725 
L 750 3822 
z
" transform="scale(0.015625)"/>
       </defs>
       <use xlink:href="#TimesNewRomanPSMT-31"/>
       <use xlink:href="#TimesNewRomanPSMT-30" x="50"/>
       <use xlink:href="#TimesNewRomanPSMT-30" x="100"/>
      </g>
     </g>
    </g>
    <g id="xtick_4">
     <g id="line2d_4">
      <g>
       <use xlink:href="#m3cfcffd979" x="571.694459" y="135.316875" style="stroke: #000000; stroke-width: 0.8"/>
      </g>
     </g>
     <g id="text_4">
      <!-- 150 -->
      <g transform="translate(556.694459 156.204375) scale(0.2 -0.2)">
       <use xlink:href="#TimesNewRomanPSMT-31"/>
       <use xlink:href="#TimesNewRomanPSMT-35" x="50"/>
       <use xlink:href="#TimesNewRomanPSMT-30" x="100"/>
      </g>
     </g>
    </g>
    <g id="xtick_5">
     <g id="line2d_5">
      <g>
       <use xlink:href="#m3cfcffd979" x="723.779908" y="135.316875" style="stroke: #000000; stroke-width: 0.8"/>
      </g>
     </g>
     <g id="text_5">
      <!-- 200 -->
      <g transform="translate(708.779908 156.204375) scale(0.2 -0.2)">
       <defs>
        <path id="TimesNewRomanPSMT-32" d="M 2934 816 
L 2638 0 
L 138 0 
L 138 116 
Q 1241 1122 1691 1759 
Q 2141 2397 2141 2925 
Q 2141 3328 1894 3587 
Q 1647 3847 1303 3847 
Q 991 3847 742 3664 
Q 494 3481 375 3128 
L 259 3128 
Q 338 3706 661 4015 
Q 984 4325 1469 4325 
Q 1984 4325 2329 3994 
Q 2675 3663 2675 3213 
Q 2675 2891 2525 2569 
Q 2294 2063 1775 1497 
Q 997 647 803 472 
L 1909 472 
Q 2247 472 2383 497 
Q 2519 522 2628 598 
Q 2738 675 2819 816 
L 2934 816 
z
" transform="scale(0.015625)"/>
       </defs>
       <use xlink:href="#TimesNewRomanPSMT-32"/>
       <use xlink:href="#TimesNewRomanPSMT-30" x="50"/>
       <use xlink:href="#TimesNewRomanPSMT-30" x="100"/>
      </g>
     </g>
    </g>
    <g id="xtick_6">
     <g id="line2d_6">
      <g>
       <use xlink:href="#m3cfcffd979" x="875.865358" y="135.316875" style="stroke: #000000; stroke-width: 0.8"/>
      </g>
     </g>
     <g id="text_6">
      <!-- 250 -->
      <g transform="translate(860.865358 156.204375) scale(0.2 -0.2)">
       <use xlink:href="#TimesNewRomanPSMT-32"/>
       <use xlink:href="#TimesNewRomanPSMT-35" x="50"/>
       <use xlink:href="#TimesNewRomanPSMT-30" x="100"/>
      </g>
     </g>
    </g>
    <g id="xtick_7">
     <g id="line2d_7">
      <g>
       <use xlink:href="#m3cfcffd979" x="1027.950808" y="135.316875" style="stroke: #000000; stroke-width: 0.8"/>
      </g>
     </g>
     <g id="text_7">
      <!-- 300 -->
      <g transform="translate(1012.950808 156.204375) scale(0.2 -0.2)">
       <defs>
        <path id="TimesNewRomanPSMT-33" d="M 325 3431 
Q 506 3859 782 4092 
Q 1059 4325 1472 4325 
Q 1981 4325 2253 3994 
Q 2459 3747 2459 3466 
Q 2459 3003 1878 2509 
Q 2269 2356 2469 2072 
Q 2669 1788 2669 1403 
Q 2669 853 2319 450 
Q 1863 -75 997 -75 
Q 569 -75 414 31 
Q 259 138 259 259 
Q 259 350 332 419 
Q 406 488 509 488 
Q 588 488 669 463 
Q 722 447 909 348 
Q 1097 250 1169 231 
Q 1284 197 1416 197 
Q 1734 197 1970 444 
Q 2206 691 2206 1028 
Q 2206 1275 2097 1509 
Q 2016 1684 1919 1775 
Q 1784 1900 1550 2001 
Q 1316 2103 1072 2103 
L 972 2103 
L 972 2197 
Q 1219 2228 1467 2375 
Q 1716 2522 1828 2728 
Q 1941 2934 1941 3181 
Q 1941 3503 1739 3701 
Q 1538 3900 1238 3900 
Q 753 3900 428 3381 
L 325 3431 
z
" transform="scale(0.015625)"/>
       </defs>
       <use xlink:href="#TimesNewRomanPSMT-33"/>
       <use xlink:href="#TimesNewRomanPSMT-30" x="50"/>
       <use xlink:href="#TimesNewRomanPSMT-30" x="100"/>
      </g>
     </g>
    </g>
   </g>
   <g id="matplotlib.axis_2">
    <g id="ytick_1">
     <g id="line2d_8">
      <defs>
       <path id="mf42202572b" d="M 0 0 
L -3.5 0 
" style="stroke: #000000; stroke-width: 0.8"/>
      </defs>
      <g>
       <use xlink:href="#mf42202572b" x="71.6375" y="134.074961" style="stroke: #000000; stroke-width: 0.8"/>
      </g>
     </g>
     <g id="text_8">
      <!-- 0.0 -->
      <g transform="translate(39.6375 141.018711) scale(0.2 -0.2)">
       <defs>
        <path id="TimesNewRomanPSMT-2e" d="M 800 606 
Q 947 606 1047 504 
Q 1147 403 1147 259 
Q 1147 116 1045 14 
Q 944 -88 800 -88 
Q 656 -88 554 14 
Q 453 116 453 259 
Q 453 406 554 506 
Q 656 606 800 606 
z
" transform="scale(0.015625)"/>
       </defs>
       <use xlink:href="#TimesNewRomanPSMT-30"/>
       <use xlink:href="#TimesNewRomanPSMT-2e" x="50"/>
       <use xlink:href="#TimesNewRomanPSMT-30" x="75"/>
      </g>
     </g>
    </g>
    <g id="ytick_2">
     <g id="line2d_9">
      <g>
       <use xlink:href="#mf42202572b" x="71.6375" y="67.998122" style="stroke: #000000; stroke-width: 0.8"/>
      </g>
     </g>
     <g id="text_9">
      <!-- 2.0 -->
      <g transform="translate(39.6375 74.941872) scale(0.2 -0.2)">
       <use xlink:href="#TimesNewRomanPSMT-32"/>
       <use xlink:href="#TimesNewRomanPSMT-2e" x="50"/>
       <use xlink:href="#TimesNewRomanPSMT-30" x="75"/>
      </g>
     </g>
    </g>
    <g id="text_10">
     <!-- CPU使用率 -->
     <g transform="translate(33.059375 127.188125) rotate(-90) scale(0.2 -0.2)">
      <defs>
       <path id="SimSun-43" d="M 1725 50 
Q 1025 50 612 575 
Q 200 1100 200 2225 
Q 200 3175 637 3800 
Q 1075 4425 1825 4425 
Q 2000 4425 2175 4375 
Q 2350 4300 2475 4300 
Q 2575 4300 2637 4325 
Q 2700 4350 2750 4425 
L 2975 3325 
L 2825 3275 
Q 2675 3750 2425 4000 
Q 2175 4250 1775 4250 
Q 1250 4250 962 3675 
Q 675 3100 675 2250 
Q 675 1325 925 800 
Q 1175 275 1750 275 
Q 2150 275 2437 562 
Q 2725 850 2825 1325 
L 2975 1250 
Q 2850 725 2512 387 
Q 2175 50 1725 50 
z
" transform="scale(0.015625)"/>
       <path id="SimSun-50" d="M 950 2100 
L 950 450 
Q 950 350 1012 300 
Q 1075 250 1175 250 
L 1350 250 
L 1350 100 
L 150 100 
L 150 250 
L 325 250 
Q 450 250 500 300 
Q 550 350 550 450 
L 550 4025 
Q 550 4125 500 4175 
Q 450 4225 325 4225 
L 175 4225 
L 175 4375 
L 1650 4375 
Q 2275 4375 2612 4062 
Q 2950 3750 2950 3275 
Q 2950 2700 2587 2400 
Q 2225 2100 1725 2100 
L 950 2100 
z
M 1575 2250 
Q 1950 2250 2237 2475 
Q 2525 2700 2525 3250 
Q 2525 3750 2287 3987 
Q 2050 4225 1525 4225 
L 1175 4225 
Q 1075 4225 1012 4175 
Q 950 4125 950 4025 
L 950 2250 
L 1575 2250 
z
" transform="scale(0.015625)"/>
       <path id="SimSun-55" d="M 1625 250 
Q 2000 250 2262 500 
Q 2525 750 2525 1125 
L 2525 4025 
Q 2525 4125 2475 4175 
Q 2425 4225 2300 4225 
L 2150 4225 
L 2150 4375 
L 3050 4375 
L 3050 4225 
L 2900 4225 
Q 2800 4225 2737 4175 
Q 2675 4125 2675 4025 
L 2675 1125 
Q 2675 625 2337 337 
Q 2000 50 1575 50 
Q 1125 50 787 300 
Q 450 550 450 1100 
L 450 4025 
Q 450 4125 400 4175 
Q 350 4225 225 4225 
L 100 4225 
L 100 4375 
L 1200 4375 
L 1200 4225 
L 1075 4225 
Q 975 4225 912 4175 
Q 850 4125 850 4025 
L 850 1100 
Q 850 600 1062 425 
Q 1275 250 1625 250 
z
" transform="scale(0.015625)"/>
       <path id="SimSun-4f7f" d="M 2875 3150 
L 2875 2100 
L 3825 2100 
Q 3850 2825 3850 3150 
L 2875 3150 
z
M 4175 3150 
Q 4175 2800 4150 2100 
L 5150 2100 
L 5150 3150 
L 4175 3150 
z
M 5475 3100 
L 5475 2425 
Q 5475 2100 5500 1800 
L 5150 1675 
L 5150 1950 
L 4150 1950 
Q 4125 1175 3875 600 
Q 4275 275 4875 75 
Q 5475 -125 6075 -150 
L 6075 -250 
Q 5700 -300 5600 -575 
Q 4525 -325 3725 350 
Q 3425 25 2925 -225 
Q 2425 -475 1875 -650 
L 1825 -550 
Q 2400 -325 2850 -25 
Q 3300 275 3500 575 
Q 3200 925 2825 1650 
L 2900 1700 
Q 3325 1100 3625 825 
Q 3800 1300 3825 1950 
L 2875 1950 
L 2875 1825 
L 2525 1675 
Q 2550 2075 2550 2562 
Q 2550 3050 2525 3500 
L 2875 3300 
L 3850 3300 
L 3850 4025 
L 2975 4025 
Q 2650 4025 2375 3950 
L 2150 4175 
L 3850 4175 
L 3850 4525 
Q 3850 4775 3825 5225 
L 4350 5000 
L 4175 4825 
L 4175 4175 
L 5300 4175 
L 5600 4475 
L 6050 4025 
L 4175 4025 
L 4175 3300 
L 5100 3300 
L 5275 3525 
L 5650 3225 
L 5475 3100 
z
M 1675 3175 
L 1675 -450 
L 1325 -625 
Q 1350 -75 1350 350 
L 1350 3200 
Q 900 2475 350 1900 
L 275 1950 
Q 700 2525 1112 3400 
Q 1525 4275 1800 5250 
L 2325 4925 
L 2125 4800 
Q 1725 3925 1500 3525 
L 1875 3325 
L 1675 3175 
z
" transform="scale(0.015625)"/>
       <path id="SimSun-7528" d="M 3400 3150 
L 3400 1825 
L 5075 1825 
L 5075 3150 
L 3400 3150 
z
M 4075 100 
Q 4725 50 4900 62 
Q 5075 75 5075 400 
L 5075 1675 
L 3400 1675 
Q 3400 75 3425 -225 
L 3050 -400 
Q 3075 1025 3075 1675 
L 1425 1675 
Q 1250 350 375 -600 
L 300 -550 
Q 775 225 950 1025 
Q 1125 1825 1125 3225 
Q 1125 4625 1100 5075 
L 1475 4825 
L 5050 4825 
L 5225 5100 
L 5625 4800 
L 5425 4600 
L 5425 225 
Q 5450 -400 4875 -575 
Q 4825 -150 4075 -25 
L 4075 100 
z
M 1475 4675 
L 1475 3300 
L 3075 3300 
L 3075 4675 
L 1475 4675 
z
M 3400 4675 
L 3400 3300 
L 5075 3300 
L 5075 4675 
L 3400 4675 
z
M 1475 3150 
Q 1450 2100 1425 1825 
L 3075 1825 
L 3075 3150 
L 1475 3150 
z
" transform="scale(0.015625)"/>
       <path id="SimSun-7387" d="M 875 3725 
L 925 3800 
Q 1375 3650 1550 3525 
Q 1725 3400 1725 3250 
Q 1725 3175 1662 3025 
Q 1600 2875 1550 2875 
Q 1500 2875 1425 3050 
Q 1275 3325 875 3725 
z
M 550 1850 
Q 875 1925 2000 2575 
L 2050 2500 
Q 1675 2225 1337 1937 
Q 1000 1650 875 1425 
L 550 1850 
z
M 5200 3450 
Q 4800 3150 4275 2800 
L 4225 2875 
Q 4775 3400 5050 3925 
L 5450 3525 
L 5200 3450 
z
M 4325 2500 
L 4350 2575 
Q 5225 2350 5375 2212 
Q 5525 2075 5525 1900 
Q 5525 1775 5487 1662 
Q 5450 1550 5400 1550 
Q 5325 1550 5200 1800 
Q 4975 2150 4325 2500 
z
M 3150 3900 
Q 2500 3300 2300 3150 
Q 2800 3150 3400 3175 
Q 3700 3500 3850 3825 
L 4250 3450 
Q 4050 3400 3450 2825 
Q 2850 2250 2475 1950 
Q 3150 1975 3850 2000 
Q 3750 2175 3550 2450 
L 3600 2500 
Q 4050 2250 4200 2100 
Q 4350 1950 4350 1850 
Q 4350 1775 4250 1625 
Q 4150 1475 4100 1475 
Q 4075 1475 4050 1550 
Q 4000 1700 3900 1900 
Q 3650 1875 3075 1800 
L 3500 1550 
L 3325 1425 
L 3325 975 
L 5325 975 
L 5650 1300 
L 6100 825 
L 3325 825 
Q 3325 -275 3350 -525 
L 2975 -650 
Q 3000 0 3000 825 
L 1125 825 
Q 800 825 525 750 
L 300 975 
L 3000 975 
L 3000 1775 
Q 2450 1700 2200 1525 
L 1950 1950 
Q 2275 1950 2675 2350 
Q 3075 2750 3325 3050 
Q 2400 2950 2150 2775 
L 1950 3175 
Q 2150 3150 2475 3575 
Q 2800 4000 2900 4225 
L 1450 4225 
Q 1125 4225 850 4150 
L 625 4375 
L 3100 4375 
Q 3050 4800 2675 5200 
L 2725 5250 
Q 3225 5050 3337 4912 
Q 3450 4775 3450 4700 
Q 3450 4550 3250 4375 
L 5025 4375 
L 5350 4675 
L 5775 4225 
L 3050 4225 
L 3375 3950 
L 3150 3900 
z
" transform="scale(0.015625)"/>
      </defs>
      <use xlink:href="#SimSun-43"/>
      <use xlink:href="#SimSun-50" x="50"/>
      <use xlink:href="#SimSun-55" x="100"/>
      <use xlink:href="#SimSun-4f7f" x="150"/>
      <use xlink:href="#SimSun-7528" x="250"/>
      <use xlink:href="#SimSun-7387" x="350"/>
     </g>
    </g>
   </g>
   <g id="line2d_10">
    <path d="M 115.43811 95.135881 
L 118.479818 93.834164 
L 121.521527 96.668863 
L 124.563236 98.393467 
L 127.604945 97.878068 
L 130.646654 97.164438 
L 133.688363 101.109226 
L 136.730072 99.662144 
L 139.771781 99.741437 
L 142.81349 102.080556 
L 145.855199 103.032062 
L 148.896908 101.921971 
L 151.938617 103.071709 
L 154.980326 119.227495 
L 158.022035 99.007981 
L 161.063744 98.849398 
L 164.105453 99.483734 
L 167.147162 100.355951 
L 170.188871 100.455064 
L 173.23058 102.338255 
L 176.272289 112.54052 
L 179.313998 114.542646 
L 182.355707 116.921413 
L 185.397416 119.69664 
L 188.439125 120.515995 
L 191.480834 118.890503 
L 194.522543 119.842009 
L 197.564252 120.568855 
L 200.605961 121.916822 
L 203.64767 121.626085 
L 206.689379 122.722959 
L 209.731088 123.502665 
L 212.772797 125.101726 
L 215.814506 126.17217 
L 218.856215 129.416547 
L 221.897924 125.114942 
L 224.939633 129.528877 
L 227.981342 124.546679 
L 231.023051 129.046515 
L 234.06476 124.269158 
L 237.106469 126.905624 
L 240.148178 121.78467 
L 243.189887 122.974053 
L 246.231596 122.689921 
L 249.273305 123.311044 
L 252.315014 123.390336 
L 255.356723 123.998243 
L 258.398432 123.912343 
L 261.440141 124.493819 
L 267.523559 124.533466 
L 270.565268 123.086381 
L 273.606977 124.110575 
L 276.648686 123.595174 
L 279.690395 125.002612 
L 282.732104 124.672226 
L 285.773813 125.31978 
L 288.815522 124.784556 
L 291.857231 127.68533 
L 294.89894 128.240377 
L 297.940649 129.429757 
L 300.982358 125.23388 
L 304.024067 125.841788 
L 307.065776 120.634931 
L 310.107485 125.260309 
L 313.149194 127.084034 
L 319.232612 127.751406 
L 322.274321 127.381378 
L 325.31603 126.621492 
L 328.357739 127.454063 
L 331.399448 126.535592 
L 334.441157 124.315411 
L 337.482866 125.907864 
L 340.524575 129.740322 
L 343.566284 128.385747 
L 346.607993 129.495837 
L 349.649702 130.275543 
L 352.691411 130.486989 
L 355.73312 130.440735 
L 358.774829 130.143391 
L 361.816538 125.874826 
L 364.858247 129.178667 
L 367.899956 126.053232 
L 370.941665 123.648035 
L 373.983374 125.23388 
L 377.025083 124.969572 
L 380.066792 125.987156 
L 383.108501 124.797773 
L 386.15021 122.670099 
L 389.191919 123.396944 
L 395.275337 123.238359 
L 398.317046 123.568743 
L 401.358755 122.419006 
L 404.400464 121.877177 
L 407.442173 121.560009 
L 410.483882 120.780301 
L 413.525591 120.661362 
L 416.5673 119.538055 
L 419.609009 112.091196 
L 422.650718 111.99208 
L 425.692427 120.767085 
L 428.734136 119.987379 
L 431.775845 120.093102 
L 434.817554 112.811435 
L 437.859263 110.095677 
L 440.900972 109.831369 
L 443.942681 110.862168 
L 446.98439 104.598084 
L 450.026099 97.243732 
L 453.067808 98.948514 
L 456.109517 99.688575 
L 459.151226 101.274418 
L 462.192935 101.697309 
L 465.234644 104.763275 
L 468.276353 105.31832 
L 471.318062 102.833833 
L 474.359771 106.71915 
L 477.40148 103.653185 
L 480.443189 104.446107 
L 483.484898 99.159959 
L 486.526607 91.455401 
L 489.568316 82.435913 
L 492.610025 77.579263 
L 495.651734 54.009658 
L 498.693443 75.596959 
L 501.735152 80.916145 
L 504.776861 84.153908 
L 507.81857 73.945036 
L 510.860279 76.422919 
L 513.901988 69.583969 
L 516.943697 76.455959 
L 519.985406 67.43647 
L 523.027115 56.461106 
L 526.068824 51.174964 
L 529.110533 55.417092 
L 532.152242 61.324365 
L 535.193951 60.769314 
L 538.23566 62.639291 
L 541.277369 67.410043 
L 544.319078 50.104514 
L 547.360787 64.178885 
L 550.402496 59.183474 
L 553.444205 59.460996 
L 556.485914 61.562241 
L 559.527623 57.320105 
L 562.569332 58.152678 
L 565.611041 64.588559 
L 568.65275 70.442965 
L 571.694459 67.43647 
L 574.736167 59.507249 
L 577.777876 55.13957 
L 580.819585 54.108774 
L 583.861294 55.13957 
L 586.903003 57.795859 
L 589.944712 57.280461 
L 592.986421 106.877735 
L 596.02813 54.901693 
L 599.069839 54.34665 
L 602.111548 61.046843 
L 605.153257 66.280123 
L 608.194966 63.108436 
L 611.236675 65.526848 
L 614.278384 79.792838 
L 617.320093 77.546227 
L 620.361802 76.257727 
L 623.403511 75.927343 
L 626.44522 78.73561 
L 629.486929 77.182803 
L 632.528638 72.68958 
L 635.570347 59.976394 
L 638.612056 62.156929 
L 641.653765 71.011226 
L 644.695474 77.612303 
L 647.737183 75.993419 
L 650.778892 76.422919 
L 653.820601 72.028809 
L 656.86231 83.394024 
L 659.904019 84.3191 
L 662.945728 83.427064 
L 665.987437 75.696075 
L 669.029146 63.683305 
L 672.070855 69.650042 
L 675.112564 79.363338 
L 678.154273 75.696075 
L 681.195982 77.810534 
L 684.237691 82.072489 
L 687.2794 81.213489 
L 690.321109 80.717913 
L 693.362818 81.874261 
L 696.404527 83.724408 
L 699.446236 82.601105 
L 702.487945 75.530883 
L 705.529654 66.399065 
L 708.571363 68.421013 
L 711.613072 67.667738 
L 714.654781 68.539952 
L 717.69649 67.628093 
L 720.738199 63.782421 
L 723.779908 62.07764 
L 726.821617 58.390547 
L 729.863326 61.403654 
L 732.905035 54.980983 
L 735.946744 56.963286 
L 738.988453 58.033735 
L 742.030162 55.496389 
L 745.071871 62.513748 
L 748.11358 67.786681 
L 751.155289 77.176198 
L 754.196998 79.297262 
L 757.238707 76.125575 
L 760.280416 71.724856 
L 763.322125 76.350234 
L 766.363834 83.724408 
L 769.405543 80.453605 
L 772.447252 81.609953 
L 775.488961 77.414075 
L 778.53067 78.140918 
L 781.572379 65.804369 
L 784.614088 71.599309 
L 787.655797 73.053 
L 790.697506 74.903152 
L 793.739215 73.878964 
L 796.780924 77.84357 
L 799.822633 75.266575 
L 802.864342 77.579263 
L 805.906051 78.570418 
L 808.94776 76.191651 
L 811.989469 79.825878 
L 815.031178 77.678378 
L 818.072887 78.603454 
L 821.114596 78.24003 
L 824.156305 65.837413 
L 827.198014 64.535696 
L 830.239723 58.430199 
L 833.281432 62.513748 
L 836.323141 52.483282 
L 839.36485 51.115492 
L 842.406559 33.889261 
L 845.448268 36.063188 
L 848.489977 49.0605 
L 851.531686 45.498959 
L 854.573395 58.07338 
L 857.615104 49.906283 
L 860.656813 45.426278 
L 863.698522 57.320105 
L 866.740231 56.64612 
L 869.78194 60.491792 
L 872.823649 63.108436 
L 875.865358 61.720821 
L 878.907067 61.601886 
L 881.948776 64.852863 
L 884.990485 58.985242 
L 888.032194 56.64612 
L 891.073903 56.765062 
L 894.115612 53.666056 
L 897.157321 47.719139 
L 900.19903 47.071588 
L 903.240739 60.888256 
L 906.282448 57.201171 
L 909.324157 61.007198 
L 912.365866 64.099588 
L 915.407575 61.760465 
L 918.449284 65.170037 
L 921.490993 52.443637 
L 924.532702 66.253696 
L 927.574411 63.227378 
L 930.61612 64.998232 
L 933.657829 66.015819 
L 936.699538 66.742667 
L 939.741247 72.061849 
L 945.824665 70.938541 
L 948.866374 67.965086 
L 951.908083 67.79989 
L 954.949792 74.407576 
L 957.991501 75.530883 
L 961.03321 81.504228 
L 964.074919 81.715674 
L 967.116628 81.557091 
L 970.158337 80.975612 
L 973.200046 84.38518 
L 976.241755 85.204531 
L 979.283464 83.090072 
L 985.366882 92.499415 
L 988.408591 91.389321 
L 991.4503 87.451142 
L 991.4503 87.451142 
" clip-path="url(#p3fddac36cb)" style="fill: none; stroke: #1f77b4; stroke-width: 1.5; stroke-linecap: square"/>
   </g>
   <g id="line2d_11">
    <path d="M 556.485914 80.248485 
L 559.527623 53.711562 
L 562.569332 47.869904 
L 565.611041 39.687281 
L 568.65275 47.984435 
L 571.694459 44.384068 
L 574.736167 45.685667 
L 577.777876 43.120987 
L 580.819585 45.628866 
L 583.861294 44.575738 
L 586.903003 44.914149 
L 589.944712 44.240533 
L 592.986421 56.353325 
L 596.02813 44.133454 
L 599.069839 38.878237 
L 602.111548 40.063792 
L 605.153257 41.372591 
L 608.194966 41.473628 
L 611.236675 41.328306 
L 614.278384 40.799013 
L 617.320093 42.089813 
L 620.361802 43.612951 
L 623.403511 44.175052 
L 626.44522 45.324854 
L 629.486929 45.65805 
L 632.528638 40.859886 
L 635.570347 40.044265 
L 638.612056 41.740555 
L 641.653765 41.901773 
L 644.695474 43.125556 
L 647.737183 43.932733 
L 650.778892 44.520379 
L 653.820601 45.522369 
L 656.86231 47.04205 
L 659.904019 48.707423 
L 662.945728 49.328168 
L 665.987437 50.4481 
L 669.029146 45.592112 
L 672.070855 45.787177 
L 675.112564 45.74164 
L 678.154273 46.429788 
L 681.195982 46.386268 
L 684.237691 47.712884 
L 687.2794 47.277902 
L 693.362818 47.767346 
L 696.404527 48.118548 
L 702.487945 47.357499 
L 705.529654 42.675592 
L 708.571363 42.923393 
L 711.613072 43.907755 
L 717.69649 44.208317 
L 720.738199 44.678698 
L 723.779908 44.082167 
L 726.821617 44.014732 
L 732.905035 45.329344 
L 735.946744 45.487379 
L 738.988453 45.921141 
L 742.030162 40.907069 
L 745.071871 41.079803 
L 748.11358 41.705928 
L 751.155289 42.86178 
L 757.238707 44.76484 
L 760.280416 44.520536 
L 763.322125 44.836639 
L 769.405543 46.113394 
L 772.447252 45.846546 
L 775.488961 45.439936 
L 778.53067 41.524663 
L 784.614088 42.834596 
L 787.655797 43.874128 
L 793.739215 46.346639 
L 796.780924 46.395531 
L 799.822633 46.79487 
L 802.864342 46.552709 
L 805.906051 47.654658 
L 808.94776 47.038387 
L 811.989469 45.937312 
L 815.031178 43.096246 
L 818.072887 42.716481 
L 821.114596 43.516466 
L 824.156305 43.246743 
L 827.198014 43.524217 
L 830.239723 44.085073 
L 833.281432 43.585209 
L 836.323141 43.327513 
L 842.406559 43.827599 
L 845.448268 43.673636 
L 848.489977 43.123689 
L 851.531686 40.623561 
L 854.573395 40.194038 
L 857.615104 40.636842 
L 860.656813 39.782994 
L 863.698522 39.40367 
L 866.740231 40.431922 
L 869.78194 40.391025 
L 875.865358 40.824968 
L 878.907067 41.368313 
L 881.948776 41.495786 
L 884.990485 41.414795 
L 888.032194 39.288722 
L 891.073903 38.833456 
L 894.115612 39.397518 
L 897.157321 39.748052 
L 900.19903 40.246569 
L 903.240739 41.111611 
L 906.282448 41.436638 
L 909.324157 42.058383 
L 912.365866 42.930703 
L 915.407575 44.184378 
L 921.490993 45.089356 
L 924.532702 43.511378 
L 927.574411 42.630149 
L 936.699538 43.839107 
L 939.741247 45.165235 
L 942.782956 46.357399 
L 945.824665 48.273977 
L 948.866374 49.975348 
L 951.908083 52.331618 
L 954.949792 53.336263 
L 957.991501 55.309973 
L 961.03321 53.005415 
L 964.074919 54.235987 
L 967.116628 55.830475 
L 970.158337 58.632393 
L 973.200046 58.536712 
L 976.241755 60.849218 
L 979.283464 63.856205 
L 982.325173 67.861354 
L 985.366882 69.637545 
L 988.408591 72.673263 
L 991.4503 73.942744 
L 991.4503 73.942744 
" clip-path="url(#p3fddac36cb)" style="fill: none; stroke: #ff7f0e; stroke-width: 1.5; stroke-linecap: square"/>
   </g>
   <g id="line2d_12">
    <path d="M 556.485914 135.316875 
L 556.485914 29.059375 
" clip-path="url(#p3fddac36cb)" style="fill: none; stroke-dasharray: 7.4,3.2; stroke-dashoffset: 0; stroke: #0000ff; stroke-width: 2"/>
   </g>
   <g id="patch_3">
    <path d="M 71.6375 135.316875 
L 71.6375 29.059375 
" style="fill: none; stroke: #000000; stroke-width: 0.8; stroke-linejoin: miter; stroke-linecap: square"/>
   </g>
   <g id="patch_4">
    <path d="M 1035.250909 135.316875 
L 1035.250909 29.059375 
" style="fill: none; stroke: #000000; stroke-width: 0.8; stroke-linejoin: miter; stroke-linecap: square"/>
   </g>
   <g id="patch_5">
    <path d="M 71.6375 135.316875 
L 1035.250909 135.316875 
" style="fill: none; stroke: #000000; stroke-width: 0.8; stroke-linejoin: miter; stroke-linecap: square"/>
   </g>
   <g id="patch_6">
    <path d="M 71.6375 29.059375 
L 1035.250909 29.059375 
" style="fill: none; stroke: #000000; stroke-width: 0.8; stroke-linejoin: miter; stroke-linecap: square"/>
   </g>
   <g id="text_11">
    <!-- 云函数ID: 28 -->
    <g transform="translate(493.444205 23.059375) scale(0.2 -0.2)">
     <defs>
      <path id="SimSun-4e91" d="M 1200 4450 
L 4500 4450 
L 4850 4800 
L 5350 4300 
L 1975 4300 
Q 1700 4300 1425 4225 
L 1200 4450 
z
M 1600 275 
Q 2300 300 4725 450 
Q 4425 975 3850 1700 
L 3925 1775 
Q 5200 725 5287 500 
Q 5375 275 5375 175 
Q 5375 0 5250 -162 
Q 5125 -325 5075 -325 
Q 5025 -325 4975 -200 
Q 4875 50 4775 300 
Q 1650 -25 1300 -300 
L 975 300 
Q 1225 350 1462 550 
Q 1700 750 2150 1462 
Q 2600 2175 2725 2600 
L 1250 2600 
Q 925 2600 650 2525 
L 425 2750 
L 5025 2750 
L 5450 3175 
L 6025 2600 
L 3250 2600 
Q 3000 2025 2500 1375 
Q 2000 725 1600 275 
z
" transform="scale(0.015625)"/>
      <path id="SimSun-51fd" d="M 3050 2275 
L 3050 3000 
Q 3050 3450 3025 3800 
L 3275 3625 
L 4450 4475 
L 1650 4475 
Q 1325 4475 1050 4400 
L 825 4625 
L 4450 4625 
L 4775 4875 
L 5150 4375 
Q 4875 4325 4550 4175 
Q 4225 4025 3400 3550 
L 3550 3450 
L 3375 3325 
L 3375 2400 
Q 4250 3225 4475 3600 
L 4875 3150 
L 4625 3125 
Q 3625 2425 3400 2275 
Q 4575 1675 4687 1487 
Q 4800 1300 4800 1150 
Q 4800 1025 4750 925 
Q 4700 825 4675 825 
Q 4575 825 4375 1150 
Q 4075 1600 3375 2150 
L 3375 725 
Q 3375 350 2875 150 
Q 2850 450 2200 650 
L 2200 750 
Q 2800 675 2925 700 
Q 3050 725 3050 850 
L 3050 2100 
Q 1850 1300 1625 1025 
L 1275 1400 
Q 1575 1475 2087 1725 
Q 2600 1975 3050 2275 
z
M 1700 3475 
L 1775 3550 
Q 2350 3200 2475 3025 
Q 2600 2850 2600 2775 
Q 2600 2650 2500 2525 
Q 2400 2400 2350 2400 
Q 2275 2400 2225 2575 
Q 2150 2875 1700 3475 
z
M 5150 0 
L 5150 2175 
Q 5150 2725 5125 3325 
L 5725 3050 
L 5500 2850 
L 5500 525 
Q 5500 100 5525 -400 
L 5150 -600 
L 5150 -150 
L 1250 -150 
L 1000 -375 
L 675 -50 
L 875 125 
L 875 2375 
Q 875 2800 850 3425 
L 1450 3150 
L 1225 2975 
L 1225 0 
L 5150 0 
z
" transform="scale(0.015625)"/>
      <path id="SimSun-6570" d="M 1875 1525 
Q 1675 1200 1500 900 
Q 1825 825 2275 725 
Q 2500 975 2725 1525 
L 1875 1525 
z
M 850 4900 
Q 1325 4600 1425 4450 
Q 1525 4300 1525 4225 
Q 1525 4100 1437 3975 
Q 1350 3850 1300 3850 
Q 1225 3850 1150 4100 
Q 1050 4450 775 4850 
L 850 4900 
z
M 3000 4975 
L 3450 4675 
Q 3250 4625 3100 4425 
Q 2925 4225 2525 3825 
L 2450 3875 
Q 2925 4625 3000 4975 
z
M 1875 5250 
L 2425 5000 
L 2225 4825 
L 2225 3675 
L 2850 3675 
L 3125 3950 
L 3550 3525 
L 2225 3525 
L 2225 3300 
Q 2800 3175 2937 3062 
Q 3075 2950 3075 2775 
Q 3075 2700 3050 2587 
Q 3025 2475 2975 2475 
Q 2925 2475 2800 2650 
Q 2600 2925 2225 3175 
L 2225 2400 
L 1925 2200 
L 2275 2050 
Q 2150 2000 1950 1675 
L 2725 1675 
L 2900 1900 
L 3275 1575 
L 3050 1450 
Q 2800 875 2600 650 
Q 3000 550 3137 437 
Q 3275 325 3275 150 
Q 3275 -25 3200 -25 
Q 3125 -25 3025 75 
Q 2750 275 2400 425 
Q 1525 -275 325 -500 
L 300 -425 
Q 1450 -50 2100 550 
Q 1600 725 1125 800 
Q 1225 950 1525 1525 
L 1200 1525 
Q 875 1525 600 1450 
L 375 1675 
L 1575 1675 
Q 1675 1925 1775 2275 
L 1900 2225 
L 1900 3250 
Q 1225 2475 350 2050 
L 300 2125 
Q 1225 2775 1700 3525 
L 1250 3525 
Q 925 3525 650 3450 
L 425 3675 
L 1900 3675 
Q 1900 4575 1875 5250 
z
M 3925 3525 
Q 4050 2075 4525 1100 
Q 4925 1950 5025 3525 
L 3925 3525 
z
M 4050 5250 
L 4625 4925 
Q 4425 4850 4325 4625 
Q 4225 4400 3950 3675 
L 5375 3675 
L 5675 3975 
L 6125 3525 
L 5400 3525 
Q 5250 1675 4750 775 
Q 5325 75 6100 -100 
L 6100 -200 
Q 5625 -275 5600 -500 
Q 4950 -50 4525 525 
Q 3700 -275 2550 -650 
L 2500 -575 
Q 3650 -50 4325 800 
Q 3850 1975 3825 3375 
Q 3575 2725 3100 2150 
L 3025 2200 
Q 3625 3200 4050 5250 
z
" transform="scale(0.015625)"/>
      <path id="SimSun-49" d="M 600 4225 
L 600 4375 
L 2600 4375 
L 2600 4225 
L 2025 4225 
Q 1925 4225 1862 4175 
Q 1800 4125 1800 4025 
L 1800 450 
Q 1800 350 1862 300 
Q 1925 250 2025 250 
L 2600 250 
L 2600 100 
L 600 100 
L 600 250 
L 1175 250 
Q 1300 250 1350 300 
Q 1400 350 1400 450 
L 1400 4025 
Q 1400 4125 1350 4175 
Q 1300 4225 1175 4225 
L 600 4225 
z
" transform="scale(0.015625)"/>
      <path id="SimSun-44" d="M 2500 2275 
Q 2500 3350 2175 3787 
Q 1850 4225 1275 4225 
Q 1100 4225 1012 4175 
Q 925 4125 925 4025 
L 925 450 
Q 925 350 1000 300 
Q 1075 250 1200 250 
Q 1750 250 2125 662 
Q 2500 1075 2500 2275 
z
M 525 4025 
Q 525 4125 475 4175 
Q 425 4225 300 4225 
L 150 4225 
L 150 4375 
L 1275 4375 
Q 2050 4375 2512 3875 
Q 2975 3375 2975 2325 
Q 2975 1175 2525 637 
Q 2075 100 1200 100 
L 125 100 
L 125 250 
L 300 250 
Q 425 250 475 300 
Q 525 350 525 450 
L 525 4025 
z
" transform="scale(0.015625)"/>
      <path id="SimSun-3a" d="M 1900 2725 
Q 1900 2575 1800 2475 
Q 1700 2375 1550 2375 
Q 1400 2375 1300 2475 
Q 1200 2575 1200 2725 
Q 1200 2875 1300 2975 
Q 1400 3075 1550 3075 
Q 1700 3075 1800 2975 
Q 1900 2875 1900 2725 
z
M 1900 375 
Q 1900 225 1800 125 
Q 1700 25 1550 25 
Q 1400 25 1300 125 
Q 1200 225 1200 375 
Q 1200 525 1300 625 
Q 1400 725 1550 725 
Q 1700 725 1800 625 
Q 1900 525 1900 375 
z
" transform="scale(0.015625)"/>
      <path id="SimSun-20" d="M 0 0 
Q 0 0 0 0 
z
" transform="scale(0.015625)"/>
      <path id="SimSun-32" d="M 2325 3325 
Q 2325 3775 2125 4012 
Q 1925 4250 1525 4250 
Q 1225 4250 1012 4087 
Q 800 3925 800 3675 
Q 800 3525 900 3425 
Q 975 3325 975 3225 
Q 975 3100 912 3037 
Q 850 2975 725 2975 
Q 575 2975 487 3062 
Q 400 3150 400 3350 
Q 400 3875 775 4150 
Q 1150 4425 1575 4425 
Q 2175 4425 2462 4125 
Q 2750 3825 2750 3375 
Q 2750 3075 2612 2775 
Q 2475 2475 2175 2200 
Q 1450 1500 1062 1062 
Q 675 625 600 475 
L 2075 475 
Q 2300 475 2450 650 
Q 2600 825 2650 1175 
L 2800 1175 
L 2650 100 
L 325 100 
L 325 425 
Q 450 650 737 1000 
Q 1025 1350 1500 1825 
Q 1925 2250 2125 2625 
Q 2325 3000 2325 3325 
z
" transform="scale(0.015625)"/>
      <path id="SimSun-38" d="M 625 1125 
Q 625 725 887 475 
Q 1150 225 1550 225 
Q 2025 225 2237 475 
Q 2450 725 2450 1100 
Q 2450 1425 2150 1725 
Q 1850 2025 1250 2275 
Q 950 2075 787 1775 
Q 625 1475 625 1125 
z
M 2825 1175 
Q 2825 700 2475 375 
Q 2125 50 1550 50 
Q 1025 50 650 375 
Q 275 700 275 1125 
Q 275 1550 487 1850 
Q 700 2150 1100 2375 
Q 750 2550 562 2812 
Q 375 3075 375 3400 
Q 375 3825 700 4125 
Q 1025 4425 1600 4425 
Q 2125 4425 2450 4125 
Q 2775 3825 2775 3400 
Q 2775 3100 2587 2837 
Q 2400 2575 2000 2375 
Q 2425 2125 2625 1825 
Q 2825 1525 2825 1175 
z
M 2425 3375 
Q 2425 3725 2225 3987 
Q 2025 4250 1600 4250 
Q 1125 4250 925 4000 
Q 725 3750 725 3475 
Q 725 3200 1012 2937 
Q 1300 2675 1825 2475 
Q 2125 2625 2275 2850 
Q 2425 3075 2425 3375 
z
" transform="scale(0.015625)"/>
     </defs>
     <use xlink:href="#SimSun-4e91"/>
     <use xlink:href="#SimSun-51fd" x="100"/>
     <use xlink:href="#SimSun-6570" x="200"/>
     <use xlink:href="#SimSun-49" x="300"/>
     <use xlink:href="#SimSun-44" x="350"/>
     <use xlink:href="#SimSun-3a" x="400"/>
     <use xlink:href="#SimSun-20" x="450"/>
     <use xlink:href="#SimSun-32" x="500"/>
     <use xlink:href="#SimSun-38" x="550"/>
    </g>
   </g>
   <g id="legend_1">
    <g id="patch_7">
     <path d="M 85.6375 101.934375 
L 209.6375 101.934375 
Q 213.6375 101.934375 213.6375 97.934375 
L 213.6375 43.059375 
Q 213.6375 39.059375 209.6375 39.059375 
L 85.6375 39.059375 
Q 81.6375 39.059375 81.6375 43.059375 
L 81.6375 97.934375 
Q 81.6375 101.934375 85.6375 101.934375 
z
" style="fill: #ffffff; opacity: 0.8; stroke: #cccccc; stroke-linejoin: miter"/>
    </g>
    <g id="line2d_13">
     <path d="M 89.6375 55.996875 
L 109.6375 55.996875 
L 129.6375 55.996875 
" style="fill: none; stroke: #1f77b4; stroke-width: 1.5; stroke-linecap: square"/>
    </g>
    <g id="text_12">
     <!-- 真实值 -->
     <g transform="translate(145.6375 62.996875) scale(0.2 -0.2)">
      <defs>
       <path id="SimSun-771f" d="M 2050 3450 
L 2050 2900 
L 4300 2900 
L 4300 3450 
L 2050 3450 
z
M 2050 2750 
L 2050 2225 
L 4300 2225 
L 4300 2750 
L 2050 2750 
z
M 2050 2075 
L 2050 1550 
L 4300 1550 
L 4300 2075 
L 2050 2075 
z
M 2050 1400 
L 2050 875 
L 4300 875 
L 4300 1400 
L 2050 1400 
z
M 2875 3600 
L 2925 4325 
L 1525 4325 
Q 1200 4325 925 4250 
L 700 4475 
L 2950 4475 
Q 2975 4825 2975 5275 
L 3550 5025 
L 3375 4925 
L 3300 4475 
L 5000 4475 
L 5325 4825 
L 5775 4325 
L 3275 4325 
L 3200 3600 
L 4275 3600 
L 4450 3875 
L 4850 3575 
L 4650 3375 
L 4650 875 
L 5300 875 
L 5675 1225 
L 6125 725 
L 1150 725 
Q 825 725 550 650 
L 325 875 
L 1700 875 
Q 1700 3200 1675 3775 
L 2050 3600 
L 2875 3600 
z
M 2425 725 
L 2825 350 
L 2575 300 
Q 1500 -425 800 -650 
L 775 -575 
Q 1950 125 2425 725 
z
M 3800 700 
Q 4575 375 4962 200 
Q 5350 25 5400 -112 
Q 5450 -250 5450 -325 
Q 5450 -400 5400 -525 
Q 5350 -650 5325 -650 
Q 5250 -650 5100 -450 
Q 4875 -150 3750 625 
L 3800 700 
z
" transform="scale(0.015625)"/>
       <path id="SimSun-5b9e" d="M 1950 3625 
Q 2575 3400 2700 3250 
Q 2825 3100 2825 2975 
Q 2825 2850 2750 2700 
Q 2675 2550 2625 2550 
Q 2550 2550 2450 2800 
Q 2275 3175 1900 3550 
L 1950 3625 
z
M 3575 1325 
Q 3500 1100 3425 925 
Q 4650 550 5087 325 
Q 5525 100 5512 -225 
Q 5500 -550 5400 -550 
Q 5300 -550 5075 -300 
Q 4625 175 3375 800 
Q 3025 175 2300 -150 
Q 1575 -475 425 -625 
L 425 -525 
Q 1475 -325 2200 100 
Q 2925 525 3200 1325 
L 1225 1325 
Q 900 1325 625 1250 
L 400 1475 
L 3225 1475 
Q 3325 1950 3375 2575 
Q 3425 3200 3425 3700 
L 4050 3400 
L 3850 3225 
Q 3750 2300 3625 1475 
L 5175 1475 
L 5550 1850 
L 6075 1325 
L 3575 1325 
z
M 1275 2700 
Q 1975 2425 2100 2262 
Q 2225 2100 2225 1975 
Q 2225 1850 2150 1700 
Q 2075 1550 2025 1550 
Q 1950 1550 1850 1800 
Q 1675 2175 1225 2625 
L 1275 2700 
z
M 2750 5225 
L 2825 5275 
Q 3225 5100 3425 4925 
Q 3625 4750 3625 4600 
Q 3625 4450 3512 4300 
Q 3400 4150 3325 4150 
Q 3250 4150 3200 4400 
Q 3100 4775 2750 5225 
z
M 4975 3225 
L 5350 3925 
L 1175 3925 
Q 1225 3525 1125 3300 
Q 1025 3075 787 3100 
Q 550 3125 550 3200 
Q 550 3300 700 3475 
Q 975 3825 1050 4375 
L 1150 4375 
L 1175 4075 
L 5300 4075 
L 5575 4350 
L 6050 3800 
Q 5625 3825 5050 3175 
L 4975 3225 
z
" transform="scale(0.015625)"/>
       <path id="SimSun-503c" d="M 1525 650 
Q 1525 -225 1550 -525 
L 1175 -650 
Q 1200 250 1200 550 
L 1200 3025 
Q 750 2300 325 1850 
L 250 1900 
Q 725 2625 1100 3525 
Q 1475 4425 1675 5200 
L 2200 4875 
L 1950 4725 
Q 1550 3800 1425 3475 
L 1725 3300 
L 1525 3150 
L 1525 650 
z
M 2875 3225 
L 2875 2475 
L 4800 2475 
L 4800 3225 
L 2875 3225 
z
M 2875 2325 
L 2875 1575 
L 4800 1575 
L 4800 2325 
L 2875 2325 
z
M 2875 1425 
L 2875 675 
L 4800 675 
L 4800 1425 
L 2875 1425 
z
M 2875 525 
L 2875 -225 
L 4800 -225 
L 4800 525 
L 2875 525 
z
M 3550 4250 
Q 3575 4825 3550 5225 
L 4125 4950 
L 3925 4800 
L 3900 4250 
L 5025 4250 
L 5350 4575 
L 5825 4100 
L 3900 4100 
L 3875 3375 
L 4750 3375 
L 4975 3625 
L 5350 3300 
L 5125 3150 
L 5125 -225 
L 5350 -225 
L 5675 100 
L 6150 -375 
L 2450 -375 
Q 2125 -375 1850 -450 
L 1625 -225 
L 2550 -225 
L 2550 2550 
Q 2550 2850 2525 3575 
L 2875 3375 
L 3525 3375 
L 3550 4100 
L 2800 4100 
Q 2475 4100 2200 4025 
L 1975 4250 
L 3550 4250 
z
" transform="scale(0.015625)"/>
      </defs>
      <use xlink:href="#SimSun-771f"/>
      <use xlink:href="#SimSun-5b9e" x="100"/>
      <use xlink:href="#SimSun-503c" x="200"/>
     </g>
    </g>
    <g id="line2d_14">
     <path d="M 89.6375 84.35625 
L 109.6375 84.35625 
L 129.6375 84.35625 
" style="fill: none; stroke: #ff7f0e; stroke-width: 1.5; stroke-linecap: square"/>
    </g>
    <g id="text_13">
     <!-- 预测值 -->
     <g transform="translate(145.6375 91.35625) scale(0.2 -0.2)">
      <defs>
       <path id="SimSun-9884" d="M 475 4825 
L 2225 4825 
L 2425 5075 
L 2825 4675 
Q 2600 4625 2387 4412 
Q 2175 4200 1800 3750 
Q 2050 3575 2037 3400 
Q 2025 3225 1937 3150 
Q 1850 3075 1825 3075 
Q 1725 3075 1650 3300 
Q 1525 3600 1050 4100 
L 1100 4150 
Q 1475 3975 1700 3825 
L 2225 4675 
L 1300 4675 
Q 975 4675 700 4600 
L 475 4825 
z
M 725 100 
Q 1175 50 1362 37 
Q 1550 25 1550 275 
L 1550 2875 
L 1125 2875 
Q 800 2875 525 2800 
L 300 3025 
L 2525 3025 
L 2725 3275 
L 3150 2875 
Q 2800 2825 2275 2075 
L 2200 2125 
L 2550 2875 
L 1875 2875 
L 1875 150 
Q 1875 -400 1350 -500 
Q 1325 -175 725 0 
L 725 100 
z
M 3250 775 
Q 3275 1425 3275 2287 
Q 3275 3150 3250 3900 
L 3600 3700 
L 4050 3700 
Q 4175 4400 4200 4675 
L 3650 4675 
Q 3325 4675 3050 4600 
L 2825 4825 
L 5325 4825 
L 5675 5150 
L 6125 4675 
L 4675 4675 
Q 4500 4425 4175 3700 
L 5300 3700 
L 5475 3975 
L 5875 3675 
L 5675 3475 
L 5675 1950 
Q 5675 1525 5700 1075 
L 5350 875 
L 5350 3550 
L 3600 3550 
L 3600 1000 
L 3250 775 
z
M 4850 2875 
L 4625 2675 
Q 4625 1475 4475 937 
Q 4325 400 3900 50 
Q 3475 -300 2425 -625 
L 2400 -550 
Q 3500 -50 3837 400 
Q 4175 850 4237 1587 
Q 4300 2325 4275 3175 
L 4850 2875 
z
M 4650 950 
Q 5725 375 5875 212 
Q 6025 50 6025 -125 
Q 6025 -225 5962 -387 
Q 5900 -550 5850 -550 
Q 5800 -550 5750 -450 
Q 5625 -250 5437 0 
Q 5250 250 4600 875 
L 4650 950 
z
" transform="scale(0.015625)"/>
       <path id="SimSun-6d4b" d="M 1975 1000 
Q 2000 1475 2000 2925 
Q 2000 4375 1975 5000 
L 2350 4775 
L 3575 4775 
L 3775 4975 
L 4100 4650 
L 3900 4500 
L 3900 2350 
Q 3900 1850 3925 1350 
L 3600 1200 
L 3600 4625 
L 2325 4625 
L 2325 1150 
L 1975 1000 
z
M 2775 3975 
L 3300 3700 
L 3125 3525 
Q 3150 1825 2875 937 
Q 2600 50 1375 -600 
L 1325 -500 
Q 2200 100 2475 725 
Q 2750 1350 2775 2187 
Q 2800 3025 2775 3975 
z
M 3100 950 
Q 3825 450 3937 262 
Q 4050 75 4050 -25 
Q 4050 -150 3975 -262 
Q 3900 -375 3850 -375 
Q 3750 -375 3650 -75 
Q 3500 375 3050 875 
L 3100 950 
z
M 4475 825 
Q 4500 1200 4500 1700 
L 4500 3400 
Q 4500 3950 4475 4300 
L 5025 4025 
L 4825 3825 
L 4825 1700 
Q 4825 1325 4850 950 
L 4475 825 
z
M 5375 150 
L 5375 4050 
Q 5375 4750 5350 5125 
L 5875 4875 
L 5700 4700 
L 5700 75 
Q 5700 -200 5600 -350 
Q 5500 -500 5200 -600 
Q 5025 -225 4450 -50 
L 4450 50 
Q 5125 -50 5250 -37 
Q 5375 -25 5375 150 
z
M 1850 3500 
Q 1375 1525 1300 1225 
Q 1200 900 1212 450 
Q 1225 0 1250 -175 
Q 1250 -275 1125 -275 
Q 1025 -275 875 -225 
Q 725 -175 725 0 
Q 725 125 800 375 
Q 875 625 875 775 
Q 875 950 762 1050 
Q 650 1150 275 1250 
L 275 1350 
Q 725 1300 837 1312 
Q 950 1325 1087 1537 
Q 1225 1750 1750 3525 
L 1850 3500 
z
M 375 3775 
Q 1075 3350 1112 3100 
Q 1150 2850 1050 2775 
Q 950 2700 900 2700 
Q 800 2700 725 2975 
Q 600 3350 325 3700 
L 375 3775 
z
M 800 5100 
Q 1475 4725 1550 4512 
Q 1625 4300 1525 4187 
Q 1425 4075 1350 4075 
Q 1275 4075 1200 4300 
Q 1075 4650 750 5025 
L 800 5100 
z
" transform="scale(0.015625)"/>
      </defs>
      <use xlink:href="#SimSun-9884"/>
      <use xlink:href="#SimSun-6d4b" x="100"/>
      <use xlink:href="#SimSun-503c" x="200"/>
     </g>
    </g>
   </g>
  </g>
  <g id="axes_2">
   <g id="patch_8">
    <path d="M 71.6375 309.916875 
L 1035.250909 309.916875 
L 1035.250909 203.659375 
L 71.6375 203.659375 
z
" style="fill: #ffffff"/>
   </g>
   <g id="matplotlib.axis_3">
    <g id="xtick_8">
     <g id="line2d_15">
      <g>
       <use xlink:href="#m3cfcffd979" x="115.43811" y="309.916875" style="stroke: #000000; stroke-width: 0.8"/>
      </g>
     </g>
     <g id="text_14">
      <!-- 0 -->
      <g transform="translate(110.43811 330.804375) scale(0.2 -0.2)">
       <use xlink:href="#TimesNewRomanPSMT-30"/>
      </g>
     </g>
    </g>
    <g id="xtick_9">
     <g id="line2d_16">
      <g>
       <use xlink:href="#m3cfcffd979" x="267.523559" y="309.916875" style="stroke: #000000; stroke-width: 0.8"/>
      </g>
     </g>
     <g id="text_15">
      <!-- 50 -->
      <g transform="translate(257.523559 330.804375) scale(0.2 -0.2)">
       <use xlink:href="#TimesNewRomanPSMT-35"/>
       <use xlink:href="#TimesNewRomanPSMT-30" x="50"/>
      </g>
     </g>
    </g>
    <g id="xtick_10">
     <g id="line2d_17">
      <g>
       <use xlink:href="#m3cfcffd979" x="419.609009" y="309.916875" style="stroke: #000000; stroke-width: 0.8"/>
      </g>
     </g>
     <g id="text_16">
      <!-- 100 -->
      <g transform="translate(404.609009 330.804375) scale(0.2 -0.2)">
       <use xlink:href="#TimesNewRomanPSMT-31"/>
       <use xlink:href="#TimesNewRomanPSMT-30" x="50"/>
       <use xlink:href="#TimesNewRomanPSMT-30" x="100"/>
      </g>
     </g>
    </g>
    <g id="xtick_11">
     <g id="line2d_18">
      <g>
       <use xlink:href="#m3cfcffd979" x="571.694459" y="309.916875" style="stroke: #000000; stroke-width: 0.8"/>
      </g>
     </g>
     <g id="text_17">
      <!-- 150 -->
      <g transform="translate(556.694459 330.804375) scale(0.2 -0.2)">
       <use xlink:href="#TimesNewRomanPSMT-31"/>
       <use xlink:href="#TimesNewRomanPSMT-35" x="50"/>
       <use xlink:href="#TimesNewRomanPSMT-30" x="100"/>
      </g>
     </g>
    </g>
    <g id="xtick_12">
     <g id="line2d_19">
      <g>
       <use xlink:href="#m3cfcffd979" x="723.779908" y="309.916875" style="stroke: #000000; stroke-width: 0.8"/>
      </g>
     </g>
     <g id="text_18">
      <!-- 200 -->
      <g transform="translate(708.779908 330.804375) scale(0.2 -0.2)">
       <use xlink:href="#TimesNewRomanPSMT-32"/>
       <use xlink:href="#TimesNewRomanPSMT-30" x="50"/>
       <use xlink:href="#TimesNewRomanPSMT-30" x="100"/>
      </g>
     </g>
    </g>
    <g id="xtick_13">
     <g id="line2d_20">
      <g>
       <use xlink:href="#m3cfcffd979" x="875.865358" y="309.916875" style="stroke: #000000; stroke-width: 0.8"/>
      </g>
     </g>
     <g id="text_19">
      <!-- 250 -->
      <g transform="translate(860.865358 330.804375) scale(0.2 -0.2)">
       <use xlink:href="#TimesNewRomanPSMT-32"/>
       <use xlink:href="#TimesNewRomanPSMT-35" x="50"/>
       <use xlink:href="#TimesNewRomanPSMT-30" x="100"/>
      </g>
     </g>
    </g>
    <g id="xtick_14">
     <g id="line2d_21">
      <g>
       <use xlink:href="#m3cfcffd979" x="1027.950808" y="309.916875" style="stroke: #000000; stroke-width: 0.8"/>
      </g>
     </g>
     <g id="text_20">
      <!-- 300 -->
      <g transform="translate(1012.950808 330.804375) scale(0.2 -0.2)">
       <use xlink:href="#TimesNewRomanPSMT-33"/>
       <use xlink:href="#TimesNewRomanPSMT-30" x="50"/>
       <use xlink:href="#TimesNewRomanPSMT-30" x="100"/>
      </g>
     </g>
    </g>
   </g>
   <g id="matplotlib.axis_4">
    <g id="ytick_3">
     <g id="line2d_22">
      <g>
       <use xlink:href="#mf42202572b" x="71.6375" y="308.539935" style="stroke: #000000; stroke-width: 0.8"/>
      </g>
     </g>
     <g id="text_21">
      <!-- 0.0 -->
      <g transform="translate(39.6375 315.483685) scale(0.2 -0.2)">
       <use xlink:href="#TimesNewRomanPSMT-30"/>
       <use xlink:href="#TimesNewRomanPSMT-2e" x="50"/>
       <use xlink:href="#TimesNewRomanPSMT-30" x="75"/>
      </g>
     </g>
    </g>
    <g id="ytick_4">
     <g id="line2d_23">
      <g>
       <use xlink:href="#mf42202572b" x="71.6375" y="234.886612" style="stroke: #000000; stroke-width: 0.8"/>
      </g>
     </g>
     <g id="text_22">
      <!-- 1.0 -->
      <g transform="translate(39.6375 241.830362) scale(0.2 -0.2)">
       <use xlink:href="#TimesNewRomanPSMT-31"/>
       <use xlink:href="#TimesNewRomanPSMT-2e" x="50"/>
       <use xlink:href="#TimesNewRomanPSMT-30" x="75"/>
      </g>
     </g>
    </g>
    <g id="text_23">
     <!-- CPU使用率 -->
     <g transform="translate(33.059375 301.788125) rotate(-90) scale(0.2 -0.2)">
      <use xlink:href="#SimSun-43"/>
      <use xlink:href="#SimSun-50" x="50"/>
      <use xlink:href="#SimSun-55" x="100"/>
      <use xlink:href="#SimSun-4f7f" x="150"/>
      <use xlink:href="#SimSun-7528" x="250"/>
      <use xlink:href="#SimSun-7387" x="350"/>
     </g>
    </g>
   </g>
   <g id="line2d_24">
    <path d="M 115.43811 230.408493 
L 118.479818 231.469101 
L 121.521527 232.176167 
L 124.563236 228.287276 
L 127.604945 228.640809 
L 130.646654 224.751918 
L 133.688363 230.054951 
L 136.730072 225.105451 
L 139.771781 230.054951 
L 142.81349 231.115559 
L 145.855199 228.287276 
L 148.896908 228.640809 
L 151.938617 228.287276 
L 154.980326 222.630702 
L 158.022035 217.327661 
L 161.063744 225.105451 
L 164.105453 226.16606 
L 167.147162 225.105451 
L 170.188871 228.287276 
L 173.23058 226.519593 
L 176.272289 228.287276 
L 179.313998 229.701418 
L 182.355707 229.347884 
L 185.397416 227.933734 
L 188.439125 228.994343 
L 191.480834 228.287276 
L 194.522543 226.873126 
L 197.564252 228.287276 
L 200.605961 223.69131 
L 203.64767 226.16606 
L 206.689379 225.812527 
L 209.731088 225.812527 
L 212.772797 223.69131 
L 215.814506 221.923627 
L 218.856215 215.913519 
L 221.897924 216.620585 
L 224.939633 219.448877 
L 227.981342 216.620585 
L 231.023051 220.863018 
L 234.06476 221.923627 
L 237.106469 219.095335 
L 240.148178 221.570094 
L 243.189887 220.155943 
L 246.231596 219.80241 
L 249.273305 221.216552 
L 252.315014 223.337768 
L 255.356723 221.216552 
L 258.398432 221.570094 
L 261.440141 217.681194 
L 264.48185 221.923627 
L 267.523559 225.105451 
L 270.565268 218.741802 
L 273.606977 218.741802 
L 279.690395 218.034727 
L 282.732104 218.388269 
L 285.773813 220.509485 
L 288.815522 220.863018 
L 291.857231 219.448877 
L 294.89894 219.448877 
L 297.940649 220.509485 
L 300.982358 221.216552 
L 304.024067 221.570094 
L 307.065776 219.448877 
L 310.107485 214.499369 
L 313.149194 216.620585 
L 316.190903 215.559977 
L 319.232612 216.267052 
L 322.274321 217.681194 
L 325.31603 217.681194 
L 328.357739 221.923627 
L 331.399448 219.448877 
L 334.441157 218.741802 
L 337.482866 219.448877 
L 340.524575 221.216552 
L 343.566284 219.448877 
L 346.607993 219.448877 
L 349.649702 225.105451 
L 352.691411 224.751918 
L 355.73312 228.994343 
L 358.774829 228.640809 
L 361.816538 221.923627 
L 364.858247 208.489261 
L 367.899956 231.115559 
L 370.941665 227.933734 
L 373.983374 233.943851 
L 377.025083 232.176167 
L 380.066792 237.125671 
L 383.108501 226.16606 
L 386.15021 244.549929 
L 389.191919 245.610537 
L 392.233628 248.792357 
L 395.275337 251.620649 
L 398.317046 250.206503 
L 401.358755 244.549929 
L 404.400464 254.448936 
L 407.442173 257.630757 
L 410.483882 255.509544 
L 413.525591 259.044902 
L 416.5673 255.156007 
L 419.609009 249.499432 
L 422.650718 263.640869 
L 425.692427 265.408548 
L 428.734136 266.822693 
L 431.775845 265.762085 
L 434.817554 270.358051 
L 437.859263 269.297443 
L 440.900972 273.539876 
L 443.942681 274.600484 
L 446.98439 276.721701 
L 450.026099 277.782309 
L 453.067808 276.368163 
L 456.109517 295.812637 
L 459.151226 279.19645 
L 462.192935 280.964134 
L 465.234644 282.024738 
L 468.276353 283.792421 
L 471.318062 284.499492 
L 474.359771 284.853029 
L 477.40148 286.620708 
L 480.443189 287.327779 
L 483.484898 288.388387 
L 486.526607 289.802529 
L 492.610025 289.802529 
L 495.651734 291.570209 
L 501.735152 292.98435 
L 504.776861 293.337888 
L 507.81857 294.044963 
L 510.860279 293.691421 
L 513.901988 294.752029 
L 516.943697 295.459104 
L 519.985406 295.459104 
L 526.068824 296.166179 
L 529.110533 296.166179 
L 535.193951 297.580321 
L 538.23566 297.580321 
L 544.319078 298.287387 
L 547.360787 297.580321 
L 550.402496 298.287387 
L 553.444205 298.287387 
L 556.485914 298.994462 
L 559.527623 298.640929 
L 562.569332 299.701537 
L 565.611041 298.994462 
L 568.65275 298.994462 
L 571.694459 299.701537 
L 574.736167 299.701537 
L 577.777876 300.05507 
L 580.819585 299.701537 
L 586.903003 299.701537 
L 589.944712 300.05507 
L 592.986421 299.701537 
L 596.02813 300.05507 
L 599.069839 300.05507 
L 602.111548 299.701537 
L 605.153257 300.762145 
L 608.194966 300.05507 
L 611.236675 300.05507 
L 614.278384 299.701537 
L 629.486929 299.701537 
L 632.528638 299.347995 
L 635.570347 298.640929 
L 638.612056 296.873245 
L 644.695474 297.580321 
L 650.778892 296.166179 
L 653.820601 296.166179 
L 656.86231 294.398496 
L 659.904019 294.752029 
L 662.945728 294.752029 
L 665.987437 294.044963 
L 669.029146 292.630817 
L 672.070855 291.923742 
L 675.112564 281.671204 
L 678.154273 288.03485 
L 681.195982 285.206562 
L 684.237691 285.206562 
L 687.2794 282.731813 
L 690.321109 281.317667 
L 693.362818 273.893414 
L 696.404527 279.19645 
L 699.446236 275.307555 
L 702.487945 275.307555 
L 705.529654 271.772197 
L 708.571363 268.94391 
L 711.613072 241.014566 
L 714.654781 261.519652 
L 717.69649 253.741861 
L 720.738199 257.984294 
L 723.779908 254.095399 
L 726.821617 253.741861 
L 729.863326 237.125671 
L 732.905035 253.388328 
L 735.946744 250.913574 
L 738.988453 251.974182 
L 742.030162 248.792357 
L 745.071871 246.671145 
L 748.11358 233.943851 
L 751.155289 239.953958 
L 754.196998 239.600425 
L 757.238707 242.428712 
L 760.280416 241.014566 
L 763.322125 241.368104 
L 766.363834 236.4186 
L 769.405543 244.549929 
L 772.447252 244.196391 
L 775.488961 244.196391 
L 778.53067 241.014566 
L 781.572379 238.893354 
L 784.614088 231.822634 
L 787.655797 227.933734 
L 790.697506 229.347884 
L 793.739215 228.640809 
L 796.780924 226.519593 
L 799.822633 229.347884 
L 802.864342 227.580201 
L 805.906051 233.590309 
L 808.94776 233.590309 
L 815.031178 230.054951 
L 818.072887 229.701418 
L 821.114596 221.216552 
L 824.156305 220.509485 
L 827.198014 219.448877 
L 830.239723 221.216552 
L 833.281432 225.458985 
L 836.323141 226.16606 
L 839.36485 224.044843 
L 842.406559 223.337768 
L 845.448268 218.034727 
L 848.489977 220.509485 
L 851.531686 224.044843 
L 854.573395 223.69131 
L 857.615104 224.398376 
L 860.656813 210.610478 
L 863.698522 215.913519 
L 866.740231 225.105451 
L 869.78194 225.812527 
L 872.823649 221.216552 
L 875.865358 224.398376 
L 878.907067 226.873126 
L 881.948776 226.519593 
L 884.990485 225.812527 
L 888.032194 226.16606 
L 891.073903 227.226668 
L 894.115612 272.479268 
L 897.157321 209.903403 
L 900.19903 212.731694 
L 903.240739 219.80241 
L 906.282448 219.448877 
L 909.324157 221.216552 
L 912.365866 225.458985 
L 918.449284 228.287276 
L 921.490993 228.287276 
L 924.532702 230.762026 
L 927.574411 230.762026 
L 930.61612 226.519593 
L 933.657829 225.458985 
L 936.699538 227.226668 
L 939.741247 230.408493 
L 942.782956 234.297384 
L 945.824665 232.529709 
L 948.866374 232.883242 
L 951.908083 231.822634 
L 954.949792 233.943851 
L 957.991501 233.590309 
L 961.03321 232.883242 
L 964.074919 235.004455 
L 967.116628 225.812527 
L 970.158337 221.923627 
L 973.200046 229.347884 
L 976.241755 230.408493 
L 979.283464 230.408493 
L 982.325173 232.176167 
L 985.366882 229.347884 
L 988.408591 233.236776 
L 991.4503 231.469101 
L 991.4503 231.469101 
" clip-path="url(#p1d3f2f2832)" style="fill: none; stroke: #1f77b4; stroke-width: 1.5; stroke-linecap: square"/>
   </g>
   <g id="line2d_25">
    <path d="M 556.485914 292.773753 
L 559.527623 298.590794 
L 562.569332 299.219181 
L 565.611041 300.742039 
L 568.65275 300.543414 
L 571.694459 302.167919 
L 574.736167 304.201729 
L 577.777876 305.057048 
L 580.819585 304.529835 
L 589.944712 304.340157 
L 592.986421 304.143578 
L 599.069839 304.040121 
L 608.194966 304.077867 
L 617.320093 304.551882 
L 629.486929 304.965682 
L 635.570347 304.954189 
L 641.653765 304.897302 
L 656.86231 305.086989 
L 662.945728 305.022367 
L 669.029146 304.709082 
L 672.070855 304.398527 
L 675.112564 303.94433 
L 684.237691 303.294247 
L 687.2794 302.811347 
L 690.321109 302.68191 
L 693.362818 302.260664 
L 696.404527 302.016347 
L 699.446236 301.307955 
L 702.487945 300.777528 
L 705.529654 299.773095 
L 708.571363 298.502167 
L 711.613072 296.306741 
L 714.654781 295.202091 
L 717.69649 293.771057 
L 720.738199 292.53751 
L 723.779908 289.986433 
L 726.821617 288.846321 
L 729.863326 286.404225 
L 732.905035 284.827374 
L 735.946744 281.476079 
L 738.988453 279.679583 
L 742.030162 276.43703 
L 745.071871 273.516095 
L 748.11358 269.072421 
L 751.155289 268.324022 
L 757.238707 265.092822 
L 760.280416 261.831523 
L 763.322125 259.981465 
L 766.363834 257.091009 
L 769.405543 255.144839 
L 772.447252 251.514282 
L 775.488961 249.714393 
L 778.53067 246.22139 
L 781.572379 243.241672 
L 784.614088 237.819857 
L 787.655797 240.178945 
L 790.697506 240.662684 
L 793.739215 241.669035 
L 796.780924 240.397659 
L 799.822633 239.924733 
L 802.864342 238.154592 
L 805.906051 235.856297 
L 808.94776 234.716926 
L 811.989469 233.973536 
L 815.031178 232.919794 
L 818.072887 231.551397 
L 821.114596 229.220695 
L 824.156305 233.148307 
L 827.198014 236.83791 
L 830.239723 239.69335 
L 836.323141 241.781487 
L 839.36485 241.685494 
L 842.406559 241.239347 
L 845.448268 241.194437 
L 848.489977 241.33898 
L 851.531686 240.692225 
L 854.573395 240.274978 
L 857.615104 238.748517 
L 860.656813 232.88204 
L 863.698522 229.720927 
L 866.740231 229.013352 
L 869.78194 232.384371 
L 872.823649 234.140649 
L 875.865358 233.824572 
L 878.907067 238.787988 
L 881.948776 239.341006 
L 884.990485 238.038417 
L 888.032194 237.084075 
L 891.073903 243.973639 
L 894.115612 247.753542 
L 897.157321 232.92047 
L 900.19903 232.72563 
L 903.240739 236.502521 
L 909.324157 241.960765 
L 912.365866 243.758885 
L 915.407575 246.982073 
L 918.449284 248.78575 
L 921.490993 249.71423 
L 927.574411 250.057877 
L 930.61612 249.177245 
L 933.657829 247.142117 
L 936.699538 247.413402 
L 939.741247 249.350789 
L 942.782956 250.297229 
L 948.866374 252.583363 
L 951.908083 254.149765 
L 954.949792 254.742084 
L 957.991501 255.150958 
L 961.03321 254.989092 
L 964.074919 254.634272 
L 970.158337 252.327439 
L 973.200046 252.296085 
L 976.241755 253.861982 
L 979.283464 254.246777 
L 982.325173 255.825977 
L 985.366882 256.539558 
L 988.408591 257.918092 
L 991.4503 258.111106 
L 991.4503 258.111106 
" clip-path="url(#p1d3f2f2832)" style="fill: none; stroke: #ff7f0e; stroke-width: 1.5; stroke-linecap: square"/>
   </g>
   <g id="line2d_26">
    <path d="M 556.485914 309.916875 
L 556.485914 203.659375 
" clip-path="url(#p1d3f2f2832)" style="fill: none; stroke-dasharray: 7.4,3.2; stroke-dashoffset: 0; stroke: #0000ff; stroke-width: 2"/>
   </g>
   <g id="patch_9">
    <path d="M 71.6375 309.916875 
L 71.6375 203.659375 
" style="fill: none; stroke: #000000; stroke-width: 0.8; stroke-linejoin: miter; stroke-linecap: square"/>
   </g>
   <g id="patch_10">
    <path d="M 1035.250909 309.916875 
L 1035.250909 203.659375 
" style="fill: none; stroke: #000000; stroke-width: 0.8; stroke-linejoin: miter; stroke-linecap: square"/>
   </g>
   <g id="patch_11">
    <path d="M 71.6375 309.916875 
L 1035.250909 309.916875 
" style="fill: none; stroke: #000000; stroke-width: 0.8; stroke-linejoin: miter; stroke-linecap: square"/>
   </g>
   <g id="patch_12">
    <path d="M 71.6375 203.659375 
L 1035.250909 203.659375 
" style="fill: none; stroke: #000000; stroke-width: 0.8; stroke-linejoin: miter; stroke-linecap: square"/>
   </g>
   <g id="text_24">
    <!-- 云函数ID: 72 -->
    <g transform="translate(493.444205 197.659375) scale(0.2 -0.2)">
     <defs>
      <path id="SimSun-37" d="M 2825 4200 
Q 2300 3350 1987 2537 
Q 1675 1725 1675 1125 
Q 1675 1025 1700 850 
Q 1700 650 1700 400 
Q 1700 200 1637 125 
Q 1575 50 1425 50 
Q 1300 50 1212 137 
Q 1125 225 1125 450 
Q 1125 925 1337 1625 
Q 1550 2325 2475 4000 
L 1225 4000 
Q 950 4000 787 3825 
Q 625 3650 550 3300 
L 400 3325 
L 575 4375 
L 2825 4375 
L 2825 4200 
z
" transform="scale(0.015625)"/>
     </defs>
     <use xlink:href="#SimSun-4e91"/>
     <use xlink:href="#SimSun-51fd" x="100"/>
     <use xlink:href="#SimSun-6570" x="200"/>
     <use xlink:href="#SimSun-49" x="300"/>
     <use xlink:href="#SimSun-44" x="350"/>
     <use xlink:href="#SimSun-3a" x="400"/>
     <use xlink:href="#SimSun-20" x="450"/>
     <use xlink:href="#SimSun-37" x="500"/>
     <use xlink:href="#SimSun-32" x="550"/>
    </g>
   </g>
  </g>
  <g id="axes_3">
   <g id="patch_13">
    <path d="M 71.6375 484.516875 
L 1035.250909 484.516875 
L 1035.250909 378.259375 
L 71.6375 378.259375 
z
" style="fill: #ffffff"/>
   </g>
   <g id="matplotlib.axis_5">
    <g id="xtick_15">
     <g id="line2d_27">
      <g>
       <use xlink:href="#m3cfcffd979" x="115.43811" y="484.516875" style="stroke: #000000; stroke-width: 0.8"/>
      </g>
     </g>
     <g id="text_25">
      <!-- 0 -->
      <g transform="translate(110.43811 505.404375) scale(0.2 -0.2)">
       <use xlink:href="#TimesNewRomanPSMT-30"/>
      </g>
     </g>
    </g>
    <g id="xtick_16">
     <g id="line2d_28">
      <g>
       <use xlink:href="#m3cfcffd979" x="267.523559" y="484.516875" style="stroke: #000000; stroke-width: 0.8"/>
      </g>
     </g>
     <g id="text_26">
      <!-- 50 -->
      <g transform="translate(257.523559 505.404375) scale(0.2 -0.2)">
       <use xlink:href="#TimesNewRomanPSMT-35"/>
       <use xlink:href="#TimesNewRomanPSMT-30" x="50"/>
      </g>
     </g>
    </g>
    <g id="xtick_17">
     <g id="line2d_29">
      <g>
       <use xlink:href="#m3cfcffd979" x="419.609009" y="484.516875" style="stroke: #000000; stroke-width: 0.8"/>
      </g>
     </g>
     <g id="text_27">
      <!-- 100 -->
      <g transform="translate(404.609009 505.404375) scale(0.2 -0.2)">
       <use xlink:href="#TimesNewRomanPSMT-31"/>
       <use xlink:href="#TimesNewRomanPSMT-30" x="50"/>
       <use xlink:href="#TimesNewRomanPSMT-30" x="100"/>
      </g>
     </g>
    </g>
    <g id="xtick_18">
     <g id="line2d_30">
      <g>
       <use xlink:href="#m3cfcffd979" x="571.694459" y="484.516875" style="stroke: #000000; stroke-width: 0.8"/>
      </g>
     </g>
     <g id="text_28">
      <!-- 150 -->
      <g transform="translate(556.694459 505.404375) scale(0.2 -0.2)">
       <use xlink:href="#TimesNewRomanPSMT-31"/>
       <use xlink:href="#TimesNewRomanPSMT-35" x="50"/>
       <use xlink:href="#TimesNewRomanPSMT-30" x="100"/>
      </g>
     </g>
    </g>
    <g id="xtick_19">
     <g id="line2d_31">
      <g>
       <use xlink:href="#m3cfcffd979" x="723.779908" y="484.516875" style="stroke: #000000; stroke-width: 0.8"/>
      </g>
     </g>
     <g id="text_29">
      <!-- 200 -->
      <g transform="translate(708.779908 505.404375) scale(0.2 -0.2)">
       <use xlink:href="#TimesNewRomanPSMT-32"/>
       <use xlink:href="#TimesNewRomanPSMT-30" x="50"/>
       <use xlink:href="#TimesNewRomanPSMT-30" x="100"/>
      </g>
     </g>
    </g>
    <g id="xtick_20">
     <g id="line2d_32">
      <g>
       <use xlink:href="#m3cfcffd979" x="875.865358" y="484.516875" style="stroke: #000000; stroke-width: 0.8"/>
      </g>
     </g>
     <g id="text_30">
      <!-- 250 -->
      <g transform="translate(860.865358 505.404375) scale(0.2 -0.2)">
       <use xlink:href="#TimesNewRomanPSMT-32"/>
       <use xlink:href="#TimesNewRomanPSMT-35" x="50"/>
       <use xlink:href="#TimesNewRomanPSMT-30" x="100"/>
      </g>
     </g>
    </g>
    <g id="xtick_21">
     <g id="line2d_33">
      <g>
       <use xlink:href="#m3cfcffd979" x="1027.950808" y="484.516875" style="stroke: #000000; stroke-width: 0.8"/>
      </g>
     </g>
     <g id="text_31">
      <!-- 300 -->
      <g transform="translate(1012.950808 505.404375) scale(0.2 -0.2)">
       <use xlink:href="#TimesNewRomanPSMT-33"/>
       <use xlink:href="#TimesNewRomanPSMT-30" x="50"/>
       <use xlink:href="#TimesNewRomanPSMT-30" x="100"/>
      </g>
     </g>
    </g>
   </g>
   <g id="matplotlib.axis_6">
    <g id="ytick_5">
     <g id="line2d_34">
      <g>
       <use xlink:href="#mf42202572b" x="71.6375" y="457.10859" style="stroke: #000000; stroke-width: 0.8"/>
      </g>
     </g>
     <g id="text_32">
      <!-- 1.0 -->
      <g transform="translate(39.6375 464.05234) scale(0.2 -0.2)">
       <use xlink:href="#TimesNewRomanPSMT-31"/>
       <use xlink:href="#TimesNewRomanPSMT-2e" x="50"/>
       <use xlink:href="#TimesNewRomanPSMT-30" x="75"/>
      </g>
     </g>
    </g>
    <g id="ytick_6">
     <g id="line2d_35">
      <g>
       <use xlink:href="#mf42202572b" x="71.6375" y="422.351205" style="stroke: #000000; stroke-width: 0.8"/>
      </g>
     </g>
     <g id="text_33">
      <!-- 2.0 -->
      <g transform="translate(39.6375 429.294955) scale(0.2 -0.2)">
       <use xlink:href="#TimesNewRomanPSMT-32"/>
       <use xlink:href="#TimesNewRomanPSMT-2e" x="50"/>
       <use xlink:href="#TimesNewRomanPSMT-30" x="75"/>
      </g>
     </g>
    </g>
    <g id="ytick_7">
     <g id="line2d_36">
      <g>
       <use xlink:href="#mf42202572b" x="71.6375" y="387.59382" style="stroke: #000000; stroke-width: 0.8"/>
      </g>
     </g>
     <g id="text_34">
      <!-- 3.0 -->
      <g transform="translate(39.6375 394.53757) scale(0.2 -0.2)">
       <use xlink:href="#TimesNewRomanPSMT-33"/>
       <use xlink:href="#TimesNewRomanPSMT-2e" x="50"/>
       <use xlink:href="#TimesNewRomanPSMT-30" x="75"/>
      </g>
     </g>
    </g>
    <g id="text_35">
     <!-- CPU使用率 -->
     <g transform="translate(33.059375 476.388125) rotate(-90) scale(0.2 -0.2)">
      <use xlink:href="#SimSun-43"/>
      <use xlink:href="#SimSun-50" x="50"/>
      <use xlink:href="#SimSun-55" x="100"/>
      <use xlink:href="#SimSun-4f7f" x="150"/>
      <use xlink:href="#SimSun-7528" x="250"/>
      <use xlink:href="#SimSun-7387" x="350"/>
     </g>
    </g>
   </g>
   <g id="line2d_37">
    <path d="M 115.43811 398.271287 
L 118.479818 398.604964 
L 121.521527 397.103444 
L 124.563236 397.437112 
L 127.604945 399.2723 
L 130.646654 397.770781 
L 133.688363 398.938632 
L 136.730072 397.103444 
L 139.771781 398.104457 
L 142.81349 383.089261 
L 145.855199 394.267235 
L 148.896908 399.10547 
L 151.938617 398.771794 
L 154.980326 399.605977 
L 158.022035 401.274326 
L 161.063744 399.10547 
L 164.105453 402.27534 
L 167.147162 404.777872 
L 170.188871 405.278379 
L 173.23058 404.777872 
L 176.272289 407.614073 
L 179.313998 404.94471 
L 182.355707 408.948763 
L 185.397416 408.948763 
L 188.439125 414.120658 
L 191.480834 413.95382 
L 194.522543 417.290527 
L 197.564252 417.457365 
L 200.605961 418.958885 
L 203.64767 421.461418 
L 209.731088 427.467492 
L 212.772797 424.130784 
L 215.814506 452.159138 
L 218.856215 430.470531 
L 221.897924 431.805217 
L 224.939633 433.974073 
L 227.981342 437.310784 
L 231.023051 438.645466 
L 234.06476 441.648505 
L 237.106469 442.649518 
L 240.148178 444.317872 
L 243.189887 446.65357 
L 246.231596 448.82243 
L 249.273305 450.657618 
L 252.315014 451.658631 
L 255.356723 454.161164 
L 258.398432 455.662683 
L 261.440141 456.830531 
L 264.48185 459.166227 
L 267.523559 461.168253 
L 270.565268 460.334076 
L 276.648686 464.004456 
L 279.690395 464.838633 
L 282.732104 466.173316 
L 285.773813 466.340153 
L 288.815522 465.839646 
L 291.857231 464.838633 
L 294.89894 465.839646 
L 297.940649 467.007493 
L 300.982358 467.17433 
L 304.024067 468.175343 
L 307.065776 468.509013 
L 310.107485 469.34319 
L 313.149194 470.344203 
L 316.190903 470.677873 
L 319.232612 470.511037 
L 322.274321 471.51205 
L 325.31603 473.01357 
L 328.357739 474.681925 
L 331.399448 475.516102 
L 334.441157 475.849773 
L 337.482866 476.683949 
L 343.566284 476.683949 
L 346.607993 477.01762 
L 349.649702 477.518126 
L 355.73312 477.851799 
L 358.774829 477.851799 
L 361.816538 472.846733 
L 364.858247 479.520152 
L 367.899956 479.186482 
L 370.941665 479.520152 
L 373.983374 479.186482 
L 377.025083 479.686989 
L 380.066792 479.186482 
L 383.108501 479.186482 
L 389.191919 479.520152 
L 392.233628 479.353316 
L 395.275337 479.353316 
L 398.317046 477.851799 
L 401.358755 478.352305 
L 404.400464 478.018633 
L 407.442173 478.018633 
L 410.483882 477.684963 
L 416.5673 476.016609 
L 419.609009 475.682936 
L 422.650718 475.015596 
L 425.692427 474.181419 
L 428.734136 473.514076 
L 431.775845 472.012557 
L 434.817554 465.839646 
L 437.859263 468.008506 
L 440.900972 466.340153 
L 443.942681 465.33914 
L 446.98439 463.337113 
L 450.026099 462.169266 
L 453.067808 456.16319 
L 456.109517 456.830531 
L 459.151226 454.494836 
L 462.192935 452.993317 
L 465.234644 449.990277 
L 468.276353 449.656605 
L 471.318062 426.800151 
L 474.359771 441.815339 
L 477.40148 439.646479 
L 480.443189 437.811291 
L 483.484898 434.808252 
L 486.526607 434.975086 
L 489.568316 430.971038 
L 492.610025 430.470531 
L 495.651734 427.63433 
L 498.693443 429.13585 
L 501.735152 424.297619 
L 504.776861 422.629265 
L 507.81857 412.785977 
L 510.860279 414.454326 
L 513.901988 414.287496 
L 516.943697 414.454326 
L 519.985406 412.118632 
L 523.027115 412.28547 
L 526.068824 410.617112 
L 529.110533 415.121671 
L 532.152242 415.455339 
L 535.193951 414.621165 
L 538.23566 414.621165 
L 541.277369 409.782937 
L 544.319078 409.782937 
L 547.360787 408.781924 
L 550.402496 409.616099 
L 553.444205 409.115593 
L 556.485914 403.943697 
L 559.527623 410.950781 
L 562.569332 407.280405 
L 565.611041 412.4523 
L 568.65275 413.620151 
L 571.694459 413.95382 
L 574.736167 409.449261 
L 577.777876 412.785977 
L 580.819585 401.107488 
L 583.861294 404.110527 
L 586.903003 403.443191 
L 589.944712 409.115593 
L 592.986421 410.450274 
L 596.02813 412.619138 
L 599.069839 413.119645 
L 602.111548 410.283444 
L 605.153257 409.282431 
L 608.194966 409.782937 
L 611.236675 412.28547 
L 614.278384 414.454326 
L 617.320093 411.784964 
L 620.361802 407.94775 
L 623.403511 409.115593 
L 626.44522 413.620151 
L 629.486929 413.286483 
L 632.528638 409.115593 
L 635.570347 412.785977 
L 638.612056 415.121671 
L 641.653765 414.621165 
L 644.695474 411.784964 
L 647.737183 411.618125 
L 650.778892 413.119645 
L 653.820601 439.31281 
L 656.86231 397.937619 
L 659.904019 399.2723 
L 662.945728 405.11154 
L 665.987437 405.945724 
L 669.029146 405.945724 
L 672.070855 407.780911 
L 675.112564 410.783951 
L 678.154273 409.782937 
L 681.195982 412.952807 
L 684.237691 410.450274 
L 687.2794 413.95382 
L 690.321109 409.115593 
L 693.362818 408.615086 
L 699.446236 416.790021 
L 702.487945 415.955846 
L 705.529654 415.455339 
L 708.571363 413.119645 
L 711.613072 415.789008 
L 714.654781 415.789008 
L 717.69649 417.457365 
L 720.738199 415.455339 
L 723.779908 416.456352 
L 726.821617 407.780911 
L 729.863326 405.445217 
L 732.905035 413.620151 
L 735.946744 414.287496 
L 738.988453 409.282431 
L 742.030162 408.948763 
L 745.071871 407.280405 
L 748.11358 410.617112 
L 751.155289 413.286483 
L 754.196998 417.457365 
L 757.238707 414.954833 
L 760.280416 413.78699 
L 763.322125 409.282431 
L 766.363834 409.449261 
L 772.447252 415.121671 
L 775.488961 414.954833 
L 778.53067 415.789008 
L 781.572379 413.620151 
L 787.655797 413.620151 
L 790.697506 415.121671 
L 793.739215 414.954833 
L 796.780924 413.453313 
L 799.822633 412.118632 
L 802.864342 412.118632 
L 805.906051 415.789008 
L 808.94776 408.11458 
L 811.989469 409.282431 
L 815.031178 412.952807 
L 818.072887 405.445217 
L 821.114596 409.949767 
L 824.156305 411.784964 
L 827.198014 411.951794 
L 830.239723 403.776859 
L 833.281432 407.280405 
L 836.323141 404.277366 
L 839.36485 404.277366 
L 842.406559 399.2723 
L 845.448268 405.11154 
L 848.489977 403.943697 
L 851.531686 402.108501 
L 854.573395 397.103444 
L 857.615104 398.604964 
L 860.656813 397.603951 
L 863.698522 396.936606 
L 866.740231 399.10547 
L 869.78194 397.270274 
L 872.823649 390.763698 
L 875.865358 395.435086 
L 878.907067 392.098379 
L 881.948776 389.09534 
L 884.990485 390.430021 
L 888.032194 388.761671 
L 891.073903 384.423943 
L 894.115612 390.930528 
L 897.157321 386.592807 
L 900.19903 388.427995 
L 903.240739 388.427995 
L 906.282448 385.258126 
L 909.324157 390.263191 
L 912.365866 392.098379 
L 915.407575 395.268248 
L 918.449284 391.431034 
L 921.490993 385.758632 
L 924.532702 397.603951 
L 927.574411 393.099392 
L 930.61612 396.436099 
L 933.657829 397.437112 
L 936.699538 399.2723 
L 939.741247 396.436099 
L 942.782956 398.604964 
L 945.824665 390.930528 
L 948.866374 394.767742 
L 951.908083 394.93458 
L 954.949792 398.438126 
L 957.991501 394.767742 
L 961.03321 397.770781 
L 964.074919 397.270274 
L 967.116628 395.435086 
L 970.158337 399.10547 
L 973.200046 399.10547 
L 976.241755 397.937619 
L 979.283464 395.435086 
L 982.325173 384.590781 
L 985.366882 393.766728 
L 988.408591 393.266222 
L 991.4503 394.434073 
L 991.4503 394.434073 
" clip-path="url(#pc657b3ab3f)" style="fill: none; stroke: #1f77b4; stroke-width: 1.5; stroke-linecap: square"/>
   </g>
   <g id="line2d_38">
    <path d="M 556.485914 415.445594 
L 559.527623 413.052439 
L 562.569332 417.117399 
L 565.611041 417.390806 
L 568.65275 416.455176 
L 571.694459 415.810404 
L 577.777876 413.94985 
L 580.819585 410.794118 
L 583.861294 408.769677 
L 586.903003 408.747932 
L 589.944712 410.3907 
L 592.986421 411.43768 
L 596.02813 413.027322 
L 602.111548 415.159848 
L 605.153257 415.399627 
L 608.194966 415.785154 
L 611.236675 415.631699 
L 614.278384 414.903827 
L 617.320093 414.059767 
L 620.361802 409.515008 
L 623.403511 407.965848 
L 626.44522 409.170128 
L 629.486929 410.652522 
L 632.528638 413.611923 
L 635.570347 415.349276 
L 638.612056 413.987249 
L 641.653765 412.769254 
L 644.695474 413.244229 
L 647.737183 412.88667 
L 650.778892 424.252004 
L 653.820601 431.326865 
L 656.86231 408.40388 
L 659.904019 399.651447 
L 662.945728 402.046375 
L 665.987437 402.82918 
L 669.029146 405.816723 
L 672.070855 406.491658 
L 675.112564 407.834345 
L 678.154273 408.390795 
L 681.195982 407.496326 
L 684.237691 405.919446 
L 687.2794 405.301648 
L 690.321109 404.056895 
L 693.362818 400.417131 
L 696.404527 399.088623 
L 699.446236 401.614434 
L 702.487945 402.357901 
L 705.529654 404.521967 
L 708.571363 405.620947 
L 711.613072 407.790375 
L 714.654781 408.93412 
L 717.69649 411.007951 
L 720.738199 411.695615 
L 723.779908 412.16314 
L 726.821617 411.873085 
L 729.863326 408.245669 
L 732.905035 407.084728 
L 735.946744 408.752664 
L 738.988453 409.317211 
L 742.030162 410.653052 
L 745.071871 411.71436 
L 748.11358 413.169706 
L 751.155289 413.838119 
L 754.196998 415.327507 
L 757.238707 415.758322 
L 760.280416 415.57757 
L 763.322125 414.870108 
L 766.363834 411.523515 
L 769.405543 410.133602 
L 772.447252 411.112622 
L 775.488961 411.095642 
L 778.53067 411.828627 
L 781.572379 412.414222 
L 784.614088 413.453678 
L 787.655797 413.513765 
L 790.697506 414.538628 
L 793.739215 414.63802 
L 796.780924 414.28893 
L 799.822633 413.295599 
L 802.864342 409.972921 
L 805.906051 409.562508 
L 808.94776 410.102758 
L 811.989469 409.66645 
L 815.031178 410.184168 
L 818.072887 410.496166 
L 821.114596 411.079582 
L 824.156305 410.88442 
L 827.198014 411.518907 
L 830.239723 411.542541 
L 833.281432 411.072646 
L 836.323141 410.011769 
L 839.36485 408.166596 
L 842.406559 407.720144 
L 845.448268 408.121275 
L 848.489977 407.374029 
L 851.531686 407.596356 
L 854.573395 407.499848 
L 857.615104 407.84351 
L 860.656813 407.436064 
L 863.698522 407.979753 
L 866.740231 407.63426 
L 869.78194 407.00694 
L 872.823649 405.859532 
L 875.865358 404.324029 
L 878.907067 403.39434 
L 881.948776 403.339316 
L 884.990485 402.192911 
L 888.032194 402.44357 
L 891.073903 402.213959 
L 894.115612 402.554166 
L 897.157321 402.304799 
L 900.19903 402.855491 
L 903.240739 402.576391 
L 906.282448 402.159689 
L 909.324157 401.20906 
L 912.365866 399.210638 
L 915.407575 397.907828 
L 918.449284 398.596089 
L 921.490993 397.918178 
L 924.532702 398.659524 
L 927.574411 398.357271 
L 930.61612 399.261511 
L 933.657829 399.132477 
L 936.699538 399.53263 
L 942.782956 398.609256 
L 945.824665 397.691633 
L 948.866374 395.514192 
L 951.908083 393.596352 
L 954.949792 395.048764 
L 957.991501 395.293937 
L 961.03321 396.559614 
L 964.074919 396.771889 
L 967.116628 398.323304 
L 970.158337 398.949421 
L 973.200046 399.759937 
L 979.283464 398.995546 
L 982.325173 397.924368 
L 988.408591 394.409818 
L 991.4503 395.359221 
L 991.4503 395.359221 
" clip-path="url(#pc657b3ab3f)" style="fill: none; stroke: #ff7f0e; stroke-width: 1.5; stroke-linecap: square"/>
   </g>
   <g id="line2d_39">
    <path d="M 556.485914 484.516875 
L 556.485914 378.259375 
" clip-path="url(#pc657b3ab3f)" style="fill: none; stroke-dasharray: 7.4,3.2; stroke-dashoffset: 0; stroke: #0000ff; stroke-width: 2"/>
   </g>
   <g id="patch_14">
    <path d="M 71.6375 484.516875 
L 71.6375 378.259375 
" style="fill: none; stroke: #000000; stroke-width: 0.8; stroke-linejoin: miter; stroke-linecap: square"/>
   </g>
   <g id="patch_15">
    <path d="M 1035.250909 484.516875 
L 1035.250909 378.259375 
" style="fill: none; stroke: #000000; stroke-width: 0.8; stroke-linejoin: miter; stroke-linecap: square"/>
   </g>
   <g id="patch_16">
    <path d="M 71.6375 484.516875 
L 1035.250909 484.516875 
" style="fill: none; stroke: #000000; stroke-width: 0.8; stroke-linejoin: miter; stroke-linecap: square"/>
   </g>
   <g id="patch_17">
    <path d="M 71.6375 378.259375 
L 1035.250909 378.259375 
" style="fill: none; stroke: #000000; stroke-width: 0.8; stroke-linejoin: miter; stroke-linecap: square"/>
   </g>
   <g id="text_36">
    <!-- 云函数ID: 150 -->
    <g transform="translate(488.444205 372.259375) scale(0.2 -0.2)">
     <defs>
      <path id="SimSun-31" d="M 1825 4450 
L 1825 650 
Q 1825 450 1950 350 
Q 2075 250 2300 250 
L 2550 250 
L 2550 100 
L 725 100 
L 725 250 
L 950 250 
Q 1200 250 1312 350 
Q 1425 450 1425 650 
L 1425 3675 
Q 1425 3775 1362 3837 
Q 1300 3900 1175 3900 
L 725 3900 
L 725 4050 
L 950 4050 
Q 1250 4050 1437 4150 
Q 1625 4250 1725 4450 
L 1825 4450 
z
" transform="scale(0.015625)"/>
      <path id="SimSun-35" d="M 1725 2850 
Q 2200 2850 2500 2487 
Q 2800 2125 2800 1525 
Q 2800 850 2487 450 
Q 2175 50 1525 50 
Q 1075 50 725 312 
Q 375 575 375 950 
Q 375 1100 462 1212 
Q 550 1325 700 1325 
Q 850 1325 900 1225 
Q 950 1125 950 1050 
Q 950 900 875 825 
Q 800 725 800 625 
Q 800 425 1037 325 
Q 1275 225 1550 225 
Q 1950 225 2162 550 
Q 2375 875 2375 1475 
Q 2375 1975 2187 2287 
Q 2000 2600 1625 2600 
Q 1350 2600 1150 2500 
Q 950 2400 775 2075 
L 550 2100 
L 675 4375 
L 2725 4375 
L 2650 4000 
L 850 4000 
L 750 2350 
Q 1000 2700 1237 2775 
Q 1475 2850 1725 2850 
z
" transform="scale(0.015625)"/>
      <path id="SimSun-30" d="M 1600 4225 
Q 1250 4225 1012 3687 
Q 775 3150 775 2250 
Q 775 1300 1012 775 
Q 1250 250 1600 250 
Q 1975 250 2187 775 
Q 2400 1300 2400 2250 
Q 2400 3150 2200 3687 
Q 2000 4225 1600 4225 
z
M 1600 50 
Q 1050 50 675 625 
Q 300 1200 300 2250 
Q 300 3225 662 3825 
Q 1025 4425 1600 4425 
Q 2150 4425 2512 3850 
Q 2875 3275 2875 2250 
Q 2875 1225 2512 637 
Q 2150 50 1600 50 
z
" transform="scale(0.015625)"/>
     </defs>
     <use xlink:href="#SimSun-4e91"/>
     <use xlink:href="#SimSun-51fd" x="100"/>
     <use xlink:href="#SimSun-6570" x="200"/>
     <use xlink:href="#SimSun-49" x="300"/>
     <use xlink:href="#SimSun-44" x="350"/>
     <use xlink:href="#SimSun-3a" x="400"/>
     <use xlink:href="#SimSun-20" x="450"/>
     <use xlink:href="#SimSun-31" x="500"/>
     <use xlink:href="#SimSun-35" x="550"/>
     <use xlink:href="#SimSun-30" x="600"/>
    </g>
   </g>
  </g>
  <g id="axes_4">
   <g id="patch_18">
    <path d="M 71.6375 659.116875 
L 1035.250909 659.116875 
L 1035.250909 552.859375 
L 71.6375 552.859375 
z
" style="fill: #ffffff"/>
   </g>
   <g id="matplotlib.axis_7">
    <g id="xtick_22">
     <g id="line2d_40">
      <g>
       <use xlink:href="#m3cfcffd979" x="115.43811" y="659.116875" style="stroke: #000000; stroke-width: 0.8"/>
      </g>
     </g>
     <g id="text_37">
      <!-- 0 -->
      <g transform="translate(110.43811 680.004375) scale(0.2 -0.2)">
       <use xlink:href="#TimesNewRomanPSMT-30"/>
      </g>
     </g>
    </g>
    <g id="xtick_23">
     <g id="line2d_41">
      <g>
       <use xlink:href="#m3cfcffd979" x="267.523559" y="659.116875" style="stroke: #000000; stroke-width: 0.8"/>
      </g>
     </g>
     <g id="text_38">
      <!-- 50 -->
      <g transform="translate(257.523559 680.004375) scale(0.2 -0.2)">
       <use xlink:href="#TimesNewRomanPSMT-35"/>
       <use xlink:href="#TimesNewRomanPSMT-30" x="50"/>
      </g>
     </g>
    </g>
    <g id="xtick_24">
     <g id="line2d_42">
      <g>
       <use xlink:href="#m3cfcffd979" x="419.609009" y="659.116875" style="stroke: #000000; stroke-width: 0.8"/>
      </g>
     </g>
     <g id="text_39">
      <!-- 100 -->
      <g transform="translate(404.609009 680.004375) scale(0.2 -0.2)">
       <use xlink:href="#TimesNewRomanPSMT-31"/>
       <use xlink:href="#TimesNewRomanPSMT-30" x="50"/>
       <use xlink:href="#TimesNewRomanPSMT-30" x="100"/>
      </g>
     </g>
    </g>
    <g id="xtick_25">
     <g id="line2d_43">
      <g>
       <use xlink:href="#m3cfcffd979" x="571.694459" y="659.116875" style="stroke: #000000; stroke-width: 0.8"/>
      </g>
     </g>
     <g id="text_40">
      <!-- 150 -->
      <g transform="translate(556.694459 680.004375) scale(0.2 -0.2)">
       <use xlink:href="#TimesNewRomanPSMT-31"/>
       <use xlink:href="#TimesNewRomanPSMT-35" x="50"/>
       <use xlink:href="#TimesNewRomanPSMT-30" x="100"/>
      </g>
     </g>
    </g>
    <g id="xtick_26">
     <g id="line2d_44">
      <g>
       <use xlink:href="#m3cfcffd979" x="723.779908" y="659.116875" style="stroke: #000000; stroke-width: 0.8"/>
      </g>
     </g>
     <g id="text_41">
      <!-- 200 -->
      <g transform="translate(708.779908 680.004375) scale(0.2 -0.2)">
       <use xlink:href="#TimesNewRomanPSMT-32"/>
       <use xlink:href="#TimesNewRomanPSMT-30" x="50"/>
       <use xlink:href="#TimesNewRomanPSMT-30" x="100"/>
      </g>
     </g>
    </g>
    <g id="xtick_27">
     <g id="line2d_45">
      <g>
       <use xlink:href="#m3cfcffd979" x="875.865358" y="659.116875" style="stroke: #000000; stroke-width: 0.8"/>
      </g>
     </g>
     <g id="text_42">
      <!-- 250 -->
      <g transform="translate(860.865358 680.004375) scale(0.2 -0.2)">
       <use xlink:href="#TimesNewRomanPSMT-32"/>
       <use xlink:href="#TimesNewRomanPSMT-35" x="50"/>
       <use xlink:href="#TimesNewRomanPSMT-30" x="100"/>
      </g>
     </g>
    </g>
    <g id="xtick_28">
     <g id="line2d_46">
      <g>
       <use xlink:href="#m3cfcffd979" x="1027.950808" y="659.116875" style="stroke: #000000; stroke-width: 0.8"/>
      </g>
     </g>
     <g id="text_43">
      <!-- 300 -->
      <g transform="translate(1012.950808 680.004375) scale(0.2 -0.2)">
       <use xlink:href="#TimesNewRomanPSMT-33"/>
       <use xlink:href="#TimesNewRomanPSMT-30" x="50"/>
       <use xlink:href="#TimesNewRomanPSMT-30" x="100"/>
      </g>
     </g>
    </g>
   </g>
   <g id="matplotlib.axis_8">
    <g id="ytick_8">
     <g id="line2d_47">
      <g>
       <use xlink:href="#mf42202572b" x="71.6375" y="624.278848" style="stroke: #000000; stroke-width: 0.8"/>
      </g>
     </g>
     <g id="text_44">
      <!-- 10.0 -->
      <g transform="translate(29.6375 631.222598) scale(0.2 -0.2)">
       <use xlink:href="#TimesNewRomanPSMT-31"/>
       <use xlink:href="#TimesNewRomanPSMT-30" x="50"/>
       <use xlink:href="#TimesNewRomanPSMT-2e" x="100"/>
       <use xlink:href="#TimesNewRomanPSMT-30" x="125"/>
      </g>
     </g>
    </g>
    <g id="ytick_9">
     <g id="line2d_48">
      <g>
       <use xlink:href="#mf42202572b" x="71.6375" y="554.528165" style="stroke: #000000; stroke-width: 0.8"/>
      </g>
     </g>
     <g id="text_45">
      <!-- 20.0 -->
      <g transform="translate(29.6375 561.471915) scale(0.2 -0.2)">
       <use xlink:href="#TimesNewRomanPSMT-32"/>
       <use xlink:href="#TimesNewRomanPSMT-30" x="50"/>
       <use xlink:href="#TimesNewRomanPSMT-2e" x="100"/>
       <use xlink:href="#TimesNewRomanPSMT-30" x="125"/>
      </g>
     </g>
    </g>
    <g id="text_46">
     <!-- CPU使用率 -->
     <g transform="translate(23.059375 650.988125) rotate(-90) scale(0.2 -0.2)">
      <use xlink:href="#SimSun-43"/>
      <use xlink:href="#SimSun-50" x="50"/>
      <use xlink:href="#SimSun-55" x="100"/>
      <use xlink:href="#SimSun-4f7f" x="150"/>
      <use xlink:href="#SimSun-7528" x="250"/>
      <use xlink:href="#SimSun-7387" x="350"/>
     </g>
    </g>
   </g>
   <g id="line2d_49">
    <path d="M 115.43811 592.81431 
L 118.479818 595.060286 
L 121.521527 594.3279 
L 124.563236 599.7015 
L 127.604945 600.963985 
L 130.646654 599.278809 
L 133.688363 601.960021 
L 136.730072 602.738438 
L 139.771781 601.095122 
L 142.81349 601.268099 
L 145.855199 604.425011 
L 148.896908 605.808868 
L 151.938617 600.749147 
L 154.980326 654.286989 
L 158.022035 599.840998 
L 161.063744 599.624769 
L 164.105453 600.489682 
L 167.147162 604.338523 
L 170.188871 600.403187 
L 173.23058 602.003272 
L 176.272289 601.18161 
L 179.313998 601.61406 
L 182.355707 600.619421 
L 188.439125 604.770979 
L 191.480834 598.976092 
L 194.522543 604.684484 
L 197.564252 605.852113 
L 200.605961 604.381767 
L 203.64767 608.317103 
L 206.689379 608.749553 
L 209.731088 604.857468 
L 212.772797 606.457553 
L 215.814506 606.933253 
L 218.856215 610.306394 
L 221.897924 613.969692 
L 224.939633 616.020367 
L 227.981342 609.156905 
L 231.023051 613.132691 
L 234.06476 614.806706 
L 237.106469 616.104068 
L 240.148178 616.731825 
L 243.189887 618.531395 
L 246.231596 616.271471 
L 249.273305 615.769262 
L 255.356723 619.368396 
L 258.398432 616.271471 
L 261.440141 617.150326 
L 264.48185 613.802296 
L 267.523559 619.159146 
L 270.565268 619.6195 
L 273.606977 618.112888 
L 276.648686 618.40584 
L 279.690395 619.41025 
L 282.732104 616.39702 
L 285.773813 618.40584 
L 288.815522 618.99175 
L 291.857231 618.280291 
L 294.89894 617.275881 
L 297.940649 619.954306 
L 300.982358 613.46749 
L 304.024067 619.075445 
L 307.065776 615.267061 
L 310.107485 614.890401 
L 313.149194 615.476311 
L 316.190903 617.066624 
L 319.232612 615.560012 
L 322.274321 617.819937 
L 325.31603 616.731825 
L 328.357739 615.267061 
L 331.399448 617.108472 
L 334.441157 619.954306 
L 337.482866 615.05781 
L 340.524575 614.430047 
L 343.566284 613.383789 
L 349.649702 613.132691 
L 352.691411 615.015956 
L 355.73312 617.778083 
L 358.774829 616.522568 
L 361.816538 617.485131 
L 364.858247 617.610687 
L 367.899956 618.698792 
L 370.941665 617.987333 
L 373.983374 613.718595 
L 377.025083 614.388199 
L 380.066792 612.756038 
L 383.108501 616.313325 
L 386.15021 616.187763 
L 389.191919 612.630483 
L 392.233628 612.46308 
L 395.275337 613.634893 
L 398.317046 612.923435 
L 401.358755 610.454266 
L 404.400464 611.66792 
L 407.442173 610.789065 
L 410.483882 609.073197 
L 413.525591 610.161308 
L 416.5673 593.030538 
L 419.609009 586.564656 
L 422.650718 591.691329 
L 425.692427 594.718509 
L 428.734136 594.376732 
L 431.775845 596.329749 
L 434.817554 596.280924 
L 437.859263 599.601055 
L 440.900972 601.700548 
L 443.942681 604.07905 
L 446.98439 602.248788 
L 450.026099 581.198041 
L 459.151226 586.875748 
L 462.192935 588.0629 
L 465.234644 599.181158 
L 468.276353 598.644073 
L 471.318062 601.222061 
L 474.359771 600.623599 
L 477.40148 598.690112 
L 480.443189 595.145384 
L 483.484898 602.000484 
L 486.526607 581.350091 
L 489.568316 572.317391 
L 492.610025 575.922105 
L 495.651734 569.984913 
L 498.693443 585.729046 
L 501.735152 589.492789 
L 504.776861 593.998682 
L 507.81857 596.65479 
L 510.860279 594.994724 
L 513.901988 597.603397 
L 516.943697 600.733808 
L 519.985406 594.378129 
L 523.027115 577.982532 
L 526.068824 578.907431 
L 529.110533 582.062953 
L 532.152242 592.911967 
L 535.193951 591.740154 
L 538.23566 591.398377 
L 541.277369 587.541162 
L 544.319078 589.005926 
L 547.360787 591.544853 
L 550.402496 594.572033 
L 553.444205 598.673369 
L 556.485914 597.745689 
L 559.527623 581.517494 
L 565.611041 596.23768 
L 568.65275 595.240241 
L 571.694459 595.731287 
L 574.736167 595.552722 
L 577.777876 597.025862 
L 580.819585 592.427899 
L 583.861294 593.142145 
L 586.903003 594.749194 
L 589.944712 597.918672 
L 592.986421 642.235463 
L 596.02813 565.891946 
L 599.069839 557.689261 
L 602.111548 572.16115 
L 605.153257 581.535627 
L 608.194966 584.850184 
L 611.236675 587.511866 
L 614.278384 592.081938 
L 617.320093 592.165633 
L 620.361802 597.338343 
L 623.403511 598.09723 
L 626.44522 599.570363 
L 629.486929 601.17742 
L 632.528638 585.123606 
L 635.570347 583.042239 
L 638.612056 590.073111 
L 641.653765 598.476677 
L 644.695474 595.240241 
L 647.737183 597.963307 
L 650.778892 597.47226 
L 653.820601 598.231154 
L 656.86231 599.436446 
L 659.904019 600.373891 
L 662.945728 602.56127 
L 665.987437 596.043769 
L 669.029146 590.508354 
L 672.070855 598.766835 
L 675.112564 603.766569 
L 678.154273 599.347164 
L 681.195982 602.56127 
L 684.237691 602.56127 
L 687.2794 598.990041 
L 690.321109 602.6952 
L 693.362818 602.516635 
L 696.404527 602.963041 
L 699.446236 598.9454 
L 702.487945 597.47226 
L 705.529654 597.740108 
L 708.571363 602.427353 
L 711.613072 603.543363 
L 714.654781 600.597097 
L 717.69649 602.159512 
L 720.738199 600.95422 
L 723.779908 594.70456 
L 726.821617 602.338071 
L 729.863326 602.382718 
L 732.905035 603.543363 
L 735.946744 602.204154 
L 738.988453 600.46318 
L 742.030162 601.623825 
L 745.071871 601.757742 
L 748.11358 601.088144 
L 751.155289 604.391532 
L 754.196998 607.025316 
L 757.238707 603.230881 
L 760.280416 603.320164 
L 763.322125 605.730748 
L 766.363834 603.588004 
L 769.405543 598.900759 
L 772.447252 603.855845 
L 775.488961 600.418533 
L 778.53067 600.731021 
L 781.572379 602.114871 
L 784.614088 600.552456 
L 787.655797 599.972134 
L 790.697506 602.276693 
L 793.739215 602.204154 
L 796.780924 599.972134 
L 799.822633 600.597097 
L 802.864342 600.284616 
L 805.906051 603.320164 
L 808.94776 604.257615 
L 811.989469 591.942433 
L 815.031178 592.734799 
L 818.072887 593.88987 
L 821.114596 589.068707 
L 824.156305 590.776195 
L 827.198014 590.374437 
L 830.239723 580.308024 
L 833.281432 580.023441 
L 836.323141 577.467778 
L 839.36485 576.262485 
L 842.406559 578.371737 
L 845.448268 574.354096 
L 848.489977 588.666936 
L 851.531686 582.640482 
L 854.573395 586.75856 
L 857.615104 583.59467 
L 860.656813 578.221084 
L 863.698522 589.018478 
L 866.740231 588.666936 
L 869.78194 589.671353 
L 872.823649 589.621124 
L 875.865358 590.022895 
L 878.907067 590.022895 
L 881.948776 591.730389 
L 884.990485 589.922451 
L 888.032194 588.466054 
L 891.073903 578.522403 
L 894.115612 578.968802 
L 897.157321 578.466607 
L 900.19903 585.553268 
L 903.240739 584.297754 
L 906.282448 584.59908 
L 909.324157 586.457241 
L 912.365866 589.269583 
L 915.407575 589.520687 
L 918.449284 590.424653 
L 921.490993 576.395005 
L 927.574411 586.658123 
L 930.61612 586.457241 
L 933.657829 586.105692 
L 936.699538 586.959442 
L 939.741247 586.858998 
L 942.782956 585.452824 
L 945.824665 585.854595 
L 948.866374 582.389378 
L 951.908083 581.234308 
L 954.949792 584.699524 
L 957.991501 586.407012 
L 964.074919 587.662526 
L 967.116628 585.90481 
L 970.158337 588.164735 
L 973.200046 588.767381 
L 976.241755 588.114513 
L 979.283464 582.74092 
L 982.325173 589.169138 
L 985.366882 592.483695 
L 988.408591 591.981493 
L 991.4503 583.192906 
L 991.4503 583.192906 
" clip-path="url(#p331c3a48f8)" style="fill: none; stroke: #1f77b4; stroke-width: 1.5; stroke-linecap: square"/>
   </g>
   <g id="line2d_50">
    <path d="M 556.485914 632.877389 
L 559.527623 620.579808 
L 562.569332 618.408255 
L 565.611041 617.436559 
L 568.65275 617.830008 
L 571.694459 616.883576 
L 574.736167 616.720657 
L 577.777876 616.703927 
L 580.819585 616.885512 
L 586.903003 616.898124 
L 589.944712 616.943324 
L 592.986421 617.30966 
L 599.069839 616.707732 
L 602.111548 616.99628 
L 605.153257 616.837877 
L 608.194966 617.20688 
L 611.236675 616.941747 
L 614.278384 617.042198 
L 623.403511 616.863301 
L 629.486929 616.849033 
L 632.528638 616.682016 
L 653.820601 616.985564 
L 665.987437 617.067502 
L 669.029146 616.841981 
L 696.404527 617.613367 
L 702.487945 617.617678 
L 705.529654 617.213752 
L 714.654781 617.602432 
L 720.738199 617.897705 
L 729.863326 618.06556 
L 732.905035 618.08199 
L 735.946744 617.975499 
L 738.988453 618.033963 
L 742.030162 617.390408 
L 757.238707 617.839793 
L 769.405543 617.824713 
L 772.447252 617.718116 
L 775.488961 617.86507 
L 778.53067 617.330494 
L 781.572379 617.260262 
L 799.822633 617.698047 
L 811.989469 617.728133 
L 815.031178 617.293655 
L 821.114596 617.347383 
L 824.156305 617.41788 
L 827.198014 617.60629 
L 830.239723 617.531914 
L 836.323141 617.609988 
L 848.489977 617.423454 
L 851.531686 617.074427 
L 854.573395 617.045085 
L 857.615104 616.842527 
L 860.656813 616.822085 
L 863.698522 616.956308 
L 884.990485 617.061409 
L 891.073903 616.708776 
L 918.449284 617.010967 
L 921.490993 616.984792 
L 927.574411 616.707965 
L 939.741247 616.858445 
L 948.866374 617.026959 
L 951.908083 617.023486 
L 957.991501 617.184364 
L 961.03321 616.91633 
L 964.074919 616.838376 
L 982.325173 617.250331 
L 985.366882 617.167182 
L 991.4503 617.433732 
L 991.4503 617.433732 
" clip-path="url(#p331c3a48f8)" style="fill: none; stroke: #ff7f0e; stroke-width: 1.5; stroke-linecap: square"/>
   </g>
   <g id="line2d_51">
    <path d="M 556.485914 659.116875 
L 556.485914 552.859375 
" clip-path="url(#p331c3a48f8)" style="fill: none; stroke-dasharray: 7.4,3.2; stroke-dashoffset: 0; stroke: #0000ff; stroke-width: 2"/>
   </g>
   <g id="patch_19">
    <path d="M 71.6375 659.116875 
L 71.6375 552.859375 
" style="fill: none; stroke: #000000; stroke-width: 0.8; stroke-linejoin: miter; stroke-linecap: square"/>
   </g>
   <g id="patch_20">
    <path d="M 1035.250909 659.116875 
L 1035.250909 552.859375 
" style="fill: none; stroke: #000000; stroke-width: 0.8; stroke-linejoin: miter; stroke-linecap: square"/>
   </g>
   <g id="patch_21">
    <path d="M 71.6375 659.116875 
L 1035.250909 659.116875 
" style="fill: none; stroke: #000000; stroke-width: 0.8; stroke-linejoin: miter; stroke-linecap: square"/>
   </g>
   <g id="patch_22">
    <path d="M 71.6375 552.859375 
L 1035.250909 552.859375 
" style="fill: none; stroke: #000000; stroke-width: 0.8; stroke-linejoin: miter; stroke-linecap: square"/>
   </g>
   <g id="text_47">
    <!-- 云函数ID: 165 -->
    <g transform="translate(488.444205 546.859375) scale(0.2 -0.2)">
     <defs>
      <path id="SimSun-36" d="M 775 1800 
Q 775 1050 1037 637 
Q 1300 225 1675 225 
Q 2050 225 2250 500 
Q 2450 775 2450 1525 
Q 2450 2025 2237 2300 
Q 2025 2575 1725 2575 
Q 1450 2575 1212 2412 
Q 975 2250 775 1800 
z
M 1750 2825 
Q 2350 2825 2612 2425 
Q 2875 2025 2875 1525 
Q 2875 775 2512 412 
Q 2150 50 1675 50 
Q 1000 50 650 562 
Q 300 1075 300 2050 
Q 300 3200 725 3812 
Q 1150 4425 1875 4425 
Q 2225 4425 2437 4225 
Q 2650 4025 2650 3875 
Q 2650 3725 2587 3650 
Q 2525 3575 2375 3575 
Q 2250 3575 2187 3637 
Q 2125 3700 2125 3825 
Q 2125 3875 2150 3925 
Q 2150 3975 2150 4025 
Q 2150 4125 2075 4187 
Q 2000 4250 1800 4250 
Q 1375 4250 1075 3862 
Q 775 3475 775 2175 
Q 925 2500 1187 2662 
Q 1450 2825 1750 2825 
z
" transform="scale(0.015625)"/>
     </defs>
     <use xlink:href="#SimSun-4e91"/>
     <use xlink:href="#SimSun-51fd" x="100"/>
     <use xlink:href="#SimSun-6570" x="200"/>
     <use xlink:href="#SimSun-49" x="300"/>
     <use xlink:href="#SimSun-44" x="350"/>
     <use xlink:href="#SimSun-3a" x="400"/>
     <use xlink:href="#SimSun-20" x="450"/>
     <use xlink:href="#SimSun-31" x="500"/>
     <use xlink:href="#SimSun-36" x="550"/>
     <use xlink:href="#SimSun-35" x="600"/>
    </g>
   </g>
  </g>
 </g>
 <defs>
  <clipPath id="p3fddac36cb">
   <rect x="71.6375" y="29.059375" width="963.613409" height="106.2575"/>
  </clipPath>
  <clipPath id="p1d3f2f2832">
   <rect x="71.6375" y="203.659375" width="963.613409" height="106.2575"/>
  </clipPath>
  <clipPath id="pc657b3ab3f">
   <rect x="71.6375" y="378.259375" width="963.613409" height="106.2575"/>
  </clipPath>
  <clipPath id="p331c3a48f8">
   <rect x="71.6375" y="552.859375" width="963.613409" height="106.2575"/>
  </clipPath>
 </defs>
</svg>
