<?xml version="1.0" encoding="utf-8" standalone="no"?>
<!DOCTYPE svg PUBLIC "-//W3C//DTD SVG 1.1//EN"
  "http://www.w3.org/Graphics/SVG/1.1/DTD/svg11.dtd">
<svg xmlns:xlink="http://www.w3.org/1999/xlink" width="1050.602344pt" height="690.95375pt" viewBox="0 0 1050.602344 690.95375" xmlns="http://www.w3.org/2000/svg" version="1.1">
 <metadata>
  <rdf:RDF xmlns:dc="http://purl.org/dc/elements/1.1/" xmlns:cc="http://creativecommons.org/ns#" xmlns:rdf="http://www.w3.org/1999/02/22-rdf-syntax-ns#">
   <cc:Work>
    <dc:type rdf:resource="http://purl.org/dc/dcmitype/StillImage"/>
    <dc:date>2024-02-22T12:35:11.182016</dc:date>
    <dc:format>image/svg+xml</dc:format>
    <dc:creator>
     <cc:Agent>
      <dc:title>Matplotlib v3.7.1, https://matplotlib.org/</dc:title>
     </cc:Agent>
    </dc:creator>
   </cc:Work>
  </rdf:RDF>
 </metadata>
 <defs>
  <style type="text/css">*{stroke-linejoin: round; stroke-linecap: butt}</style>
 </defs>
 <g id="figure_1">
  <g id="patch_1">
   <path d="M 0 690.95375 
L 1050.602344 690.95375 
L 1050.602344 0 
L 0 0 
z
" style="fill: #ffffff"/>
  </g>
  <g id="axes_1">
   <g id="patch_2">
    <path d="M 61.6375 192.988125 
L 1032.554189 192.988125 
L 1032.554189 29.059375 
L 61.6375 29.059375 
z
" style="fill: #ffffff"/>
   </g>
   <g id="matplotlib.axis_1">
    <g id="xtick_1">
     <g id="line2d_1">
      <defs>
       <path id="m7e45b2488f" d="M 0 0 
L 0 3.5 
" style="stroke: #000000; stroke-width: 0.8"/>
      </defs>
      <g>
       <use xlink:href="#m7e45b2488f" x="105.770077" y="192.988125" style="stroke: #000000; stroke-width: 0.8"/>
      </g>
     </g>
     <g id="text_1">
      <!-- 0 -->
      <g transform="translate(100.770077 213.875625) scale(0.2 -0.2)">
       <defs>
        <path id="TimesNewRomanPSMT-30" d="M 231 2094 
Q 231 2819 450 3342 
Q 669 3866 1031 4122 
Q 1313 4325 1613 4325 
Q 2100 4325 2488 3828 
Q 2972 3213 2972 2159 
Q 2972 1422 2759 906 
Q 2547 391 2217 158 
Q 1888 -75 1581 -75 
Q 975 -75 572 641 
Q 231 1244 231 2094 
z
M 844 2016 
Q 844 1141 1059 588 
Q 1238 122 1591 122 
Q 1759 122 1940 273 
Q 2122 425 2216 781 
Q 2359 1319 2359 2297 
Q 2359 3022 2209 3506 
Q 2097 3866 1919 4016 
Q 1791 4119 1609 4119 
Q 1397 4119 1231 3928 
Q 1006 3669 925 3112 
Q 844 2556 844 2016 
z
" transform="scale(0.015625)"/>
       </defs>
       <use xlink:href="#TimesNewRomanPSMT-30"/>
      </g>
     </g>
    </g>
    <g id="xtick_2">
     <g id="line2d_2">
      <g>
       <use xlink:href="#m7e45b2488f" x="259.542121" y="192.988125" style="stroke: #000000; stroke-width: 0.8"/>
      </g>
     </g>
     <g id="text_2">
      <!-- 50 -->
      <g transform="translate(249.542121 213.875625) scale(0.2 -0.2)">
       <defs>
        <path id="TimesNewRomanPSMT-35" d="M 2778 4238 
L 2534 3706 
L 1259 3706 
L 981 3138 
Q 1809 3016 2294 2522 
Q 2709 2097 2709 1522 
Q 2709 1188 2573 903 
Q 2438 619 2231 419 
Q 2025 219 1772 97 
Q 1413 -75 1034 -75 
Q 653 -75 479 54 
Q 306 184 306 341 
Q 306 428 378 495 
Q 450 563 559 563 
Q 641 563 702 538 
Q 763 513 909 409 
Q 1144 247 1384 247 
Q 1750 247 2026 523 
Q 2303 800 2303 1197 
Q 2303 1581 2056 1914 
Q 1809 2247 1375 2428 
Q 1034 2569 447 2591 
L 1259 4238 
L 2778 4238 
z
" transform="scale(0.015625)"/>
       </defs>
       <use xlink:href="#TimesNewRomanPSMT-35"/>
       <use xlink:href="#TimesNewRomanPSMT-30" x="50"/>
      </g>
     </g>
    </g>
    <g id="xtick_3">
     <g id="line2d_3">
      <g>
       <use xlink:href="#m7e45b2488f" x="413.314166" y="192.988125" style="stroke: #000000; stroke-width: 0.8"/>
      </g>
     </g>
     <g id="text_3">
      <!-- 100 -->
      <g transform="translate(398.314166 213.875625) scale(0.2 -0.2)">
       <defs>
        <path id="TimesNewRomanPSMT-31" d="M 750 3822 
L 1781 4325 
L 1884 4325 
L 1884 747 
Q 1884 391 1914 303 
Q 1944 216 2037 169 
Q 2131 122 2419 116 
L 2419 0 
L 825 0 
L 825 116 
Q 1125 122 1212 167 
Q 1300 213 1334 289 
Q 1369 366 1369 747 
L 1369 3034 
Q 1369 3497 1338 3628 
Q 1316 3728 1258 3775 
Q 1200 3822 1119 3822 
Q 1003 3822 797 3725 
L 750 3822 
z
" transform="scale(0.015625)"/>
       </defs>
       <use xlink:href="#TimesNewRomanPSMT-31"/>
       <use xlink:href="#TimesNewRomanPSMT-30" x="50"/>
       <use xlink:href="#TimesNewRomanPSMT-30" x="100"/>
      </g>
     </g>
    </g>
    <g id="xtick_4">
     <g id="line2d_4">
      <g>
       <use xlink:href="#m7e45b2488f" x="567.08621" y="192.988125" style="stroke: #000000; stroke-width: 0.8"/>
      </g>
     </g>
     <g id="text_4">
      <!-- 150 -->
      <g transform="translate(552.08621 213.875625) scale(0.2 -0.2)">
       <use xlink:href="#TimesNewRomanPSMT-31"/>
       <use xlink:href="#TimesNewRomanPSMT-35" x="50"/>
       <use xlink:href="#TimesNewRomanPSMT-30" x="100"/>
      </g>
     </g>
    </g>
    <g id="xtick_5">
     <g id="line2d_5">
      <g>
       <use xlink:href="#m7e45b2488f" x="720.858255" y="192.988125" style="stroke: #000000; stroke-width: 0.8"/>
      </g>
     </g>
     <g id="text_5">
      <!-- 200 -->
      <g transform="translate(705.858255 213.875625) scale(0.2 -0.2)">
       <defs>
        <path id="TimesNewRomanPSMT-32" d="M 2934 816 
L 2638 0 
L 138 0 
L 138 116 
Q 1241 1122 1691 1759 
Q 2141 2397 2141 2925 
Q 2141 3328 1894 3587 
Q 1647 3847 1303 3847 
Q 991 3847 742 3664 
Q 494 3481 375 3128 
L 259 3128 
Q 338 3706 661 4015 
Q 984 4325 1469 4325 
Q 1984 4325 2329 3994 
Q 2675 3663 2675 3213 
Q 2675 2891 2525 2569 
Q 2294 2063 1775 1497 
Q 997 647 803 472 
L 1909 472 
Q 2247 472 2383 497 
Q 2519 522 2628 598 
Q 2738 675 2819 816 
L 2934 816 
z
" transform="scale(0.015625)"/>
       </defs>
       <use xlink:href="#TimesNewRomanPSMT-32"/>
       <use xlink:href="#TimesNewRomanPSMT-30" x="50"/>
       <use xlink:href="#TimesNewRomanPSMT-30" x="100"/>
      </g>
     </g>
    </g>
    <g id="xtick_6">
     <g id="line2d_6">
      <g>
       <use xlink:href="#m7e45b2488f" x="874.630299" y="192.988125" style="stroke: #000000; stroke-width: 0.8"/>
      </g>
     </g>
     <g id="text_6">
      <!-- 250 -->
      <g transform="translate(859.630299 213.875625) scale(0.2 -0.2)">
       <use xlink:href="#TimesNewRomanPSMT-32"/>
       <use xlink:href="#TimesNewRomanPSMT-35" x="50"/>
       <use xlink:href="#TimesNewRomanPSMT-30" x="100"/>
      </g>
     </g>
    </g>
    <g id="xtick_7">
     <g id="line2d_7">
      <g>
       <use xlink:href="#m7e45b2488f" x="1028.402344" y="192.988125" style="stroke: #000000; stroke-width: 0.8"/>
      </g>
     </g>
     <g id="text_7">
      <!-- 300 -->
      <g transform="translate(1013.402344 213.875625) scale(0.2 -0.2)">
       <defs>
        <path id="TimesNewRomanPSMT-33" d="M 325 3431 
Q 506 3859 782 4092 
Q 1059 4325 1472 4325 
Q 1981 4325 2253 3994 
Q 2459 3747 2459 3466 
Q 2459 3003 1878 2509 
Q 2269 2356 2469 2072 
Q 2669 1788 2669 1403 
Q 2669 853 2319 450 
Q 1863 -75 997 -75 
Q 569 -75 414 31 
Q 259 138 259 259 
Q 259 350 332 419 
Q 406 488 509 488 
Q 588 488 669 463 
Q 722 447 909 348 
Q 1097 250 1169 231 
Q 1284 197 1416 197 
Q 1734 197 1970 444 
Q 2206 691 2206 1028 
Q 2206 1275 2097 1509 
Q 2016 1684 1919 1775 
Q 1784 1900 1550 2001 
Q 1316 2103 1072 2103 
L 972 2103 
L 972 2197 
Q 1219 2228 1467 2375 
Q 1716 2522 1828 2728 
Q 1941 2934 1941 3181 
Q 1941 3503 1739 3701 
Q 1538 3900 1238 3900 
Q 753 3900 428 3381 
L 325 3431 
z
" transform="scale(0.015625)"/>
       </defs>
       <use xlink:href="#TimesNewRomanPSMT-33"/>
       <use xlink:href="#TimesNewRomanPSMT-30" x="50"/>
       <use xlink:href="#TimesNewRomanPSMT-30" x="100"/>
      </g>
     </g>
    </g>
   </g>
   <g id="matplotlib.axis_2">
    <g id="ytick_1">
     <g id="line2d_8">
      <defs>
       <path id="ma7fa22cf76" d="M 0 0 
L -3.5 0 
" style="stroke: #000000; stroke-width: 0.8"/>
      </defs>
      <g>
       <use xlink:href="#ma7fa22cf76" x="61.6375" y="182.217797" style="stroke: #000000; stroke-width: 0.8"/>
      </g>
     </g>
     <g id="text_8">
      <!-- 0.0 -->
      <g transform="translate(29.6375 189.161547) scale(0.2 -0.2)">
       <defs>
        <path id="TimesNewRomanPSMT-2e" d="M 800 606 
Q 947 606 1047 504 
Q 1147 403 1147 259 
Q 1147 116 1045 14 
Q 944 -88 800 -88 
Q 656 -88 554 14 
Q 453 116 453 259 
Q 453 406 554 506 
Q 656 606 800 606 
z
" transform="scale(0.015625)"/>
       </defs>
       <use xlink:href="#TimesNewRomanPSMT-30"/>
       <use xlink:href="#TimesNewRomanPSMT-2e" x="50"/>
       <use xlink:href="#TimesNewRomanPSMT-30" x="75"/>
      </g>
     </g>
    </g>
    <g id="ytick_2">
     <g id="line2d_9">
      <g>
       <use xlink:href="#ma7fa22cf76" x="61.6375" y="137.007856" style="stroke: #000000; stroke-width: 0.8"/>
      </g>
     </g>
     <g id="text_9">
      <!-- 1.0 -->
      <g transform="translate(29.6375 143.951606) scale(0.2 -0.2)">
       <use xlink:href="#TimesNewRomanPSMT-31"/>
       <use xlink:href="#TimesNewRomanPSMT-2e" x="50"/>
       <use xlink:href="#TimesNewRomanPSMT-30" x="75"/>
      </g>
     </g>
    </g>
    <g id="ytick_3">
     <g id="line2d_10">
      <g>
       <use xlink:href="#ma7fa22cf76" x="61.6375" y="91.797915" style="stroke: #000000; stroke-width: 0.8"/>
      </g>
     </g>
     <g id="text_10">
      <!-- 2.0 -->
      <g transform="translate(29.6375 98.741665) scale(0.2 -0.2)">
       <use xlink:href="#TimesNewRomanPSMT-32"/>
       <use xlink:href="#TimesNewRomanPSMT-2e" x="50"/>
       <use xlink:href="#TimesNewRomanPSMT-30" x="75"/>
      </g>
     </g>
    </g>
    <g id="ytick_4">
     <g id="line2d_11">
      <g>
       <use xlink:href="#ma7fa22cf76" x="61.6375" y="46.587974" style="stroke: #000000; stroke-width: 0.8"/>
      </g>
     </g>
     <g id="text_11">
      <!-- 3.0 -->
      <g transform="translate(29.6375 53.531724) scale(0.2 -0.2)">
       <use xlink:href="#TimesNewRomanPSMT-33"/>
       <use xlink:href="#TimesNewRomanPSMT-2e" x="50"/>
       <use xlink:href="#TimesNewRomanPSMT-30" x="75"/>
      </g>
     </g>
    </g>
    <g id="text_12">
     <!-- CPU使用率 -->
     <g transform="translate(23.059375 156.02375) rotate(-90) scale(0.2 -0.2)">
      <defs>
       <path id="SimSun-43" d="M 1725 50 
Q 1025 50 612 575 
Q 200 1100 200 2225 
Q 200 3175 637 3800 
Q 1075 4425 1825 4425 
Q 2000 4425 2175 4375 
Q 2350 4300 2475 4300 
Q 2575 4300 2637 4325 
Q 2700 4350 2750 4425 
L 2975 3325 
L 2825 3275 
Q 2675 3750 2425 4000 
Q 2175 4250 1775 4250 
Q 1250 4250 962 3675 
Q 675 3100 675 2250 
Q 675 1325 925 800 
Q 1175 275 1750 275 
Q 2150 275 2437 562 
Q 2725 850 2825 1325 
L 2975 1250 
Q 2850 725 2512 387 
Q 2175 50 1725 50 
z
" transform="scale(0.015625)"/>
       <path id="SimSun-50" d="M 950 2100 
L 950 450 
Q 950 350 1012 300 
Q 1075 250 1175 250 
L 1350 250 
L 1350 100 
L 150 100 
L 150 250 
L 325 250 
Q 450 250 500 300 
Q 550 350 550 450 
L 550 4025 
Q 550 4125 500 4175 
Q 450 4225 325 4225 
L 175 4225 
L 175 4375 
L 1650 4375 
Q 2275 4375 2612 4062 
Q 2950 3750 2950 3275 
Q 2950 2700 2587 2400 
Q 2225 2100 1725 2100 
L 950 2100 
z
M 1575 2250 
Q 1950 2250 2237 2475 
Q 2525 2700 2525 3250 
Q 2525 3750 2287 3987 
Q 2050 4225 1525 4225 
L 1175 4225 
Q 1075 4225 1012 4175 
Q 950 4125 950 4025 
L 950 2250 
L 1575 2250 
z
" transform="scale(0.015625)"/>
       <path id="SimSun-55" d="M 1625 250 
Q 2000 250 2262 500 
Q 2525 750 2525 1125 
L 2525 4025 
Q 2525 4125 2475 4175 
Q 2425 4225 2300 4225 
L 2150 4225 
L 2150 4375 
L 3050 4375 
L 3050 4225 
L 2900 4225 
Q 2800 4225 2737 4175 
Q 2675 4125 2675 4025 
L 2675 1125 
Q 2675 625 2337 337 
Q 2000 50 1575 50 
Q 1125 50 787 300 
Q 450 550 450 1100 
L 450 4025 
Q 450 4125 400 4175 
Q 350 4225 225 4225 
L 100 4225 
L 100 4375 
L 1200 4375 
L 1200 4225 
L 1075 4225 
Q 975 4225 912 4175 
Q 850 4125 850 4025 
L 850 1100 
Q 850 600 1062 425 
Q 1275 250 1625 250 
z
" transform="scale(0.015625)"/>
       <path id="SimSun-4f7f" d="M 2875 3150 
L 2875 2100 
L 3825 2100 
Q 3850 2825 3850 3150 
L 2875 3150 
z
M 4175 3150 
Q 4175 2800 4150 2100 
L 5150 2100 
L 5150 3150 
L 4175 3150 
z
M 5475 3100 
L 5475 2425 
Q 5475 2100 5500 1800 
L 5150 1675 
L 5150 1950 
L 4150 1950 
Q 4125 1175 3875 600 
Q 4275 275 4875 75 
Q 5475 -125 6075 -150 
L 6075 -250 
Q 5700 -300 5600 -575 
Q 4525 -325 3725 350 
Q 3425 25 2925 -225 
Q 2425 -475 1875 -650 
L 1825 -550 
Q 2400 -325 2850 -25 
Q 3300 275 3500 575 
Q 3200 925 2825 1650 
L 2900 1700 
Q 3325 1100 3625 825 
Q 3800 1300 3825 1950 
L 2875 1950 
L 2875 1825 
L 2525 1675 
Q 2550 2075 2550 2562 
Q 2550 3050 2525 3500 
L 2875 3300 
L 3850 3300 
L 3850 4025 
L 2975 4025 
Q 2650 4025 2375 3950 
L 2150 4175 
L 3850 4175 
L 3850 4525 
Q 3850 4775 3825 5225 
L 4350 5000 
L 4175 4825 
L 4175 4175 
L 5300 4175 
L 5600 4475 
L 6050 4025 
L 4175 4025 
L 4175 3300 
L 5100 3300 
L 5275 3525 
L 5650 3225 
L 5475 3100 
z
M 1675 3175 
L 1675 -450 
L 1325 -625 
Q 1350 -75 1350 350 
L 1350 3200 
Q 900 2475 350 1900 
L 275 1950 
Q 700 2525 1112 3400 
Q 1525 4275 1800 5250 
L 2325 4925 
L 2125 4800 
Q 1725 3925 1500 3525 
L 1875 3325 
L 1675 3175 
z
" transform="scale(0.015625)"/>
       <path id="SimSun-7528" d="M 3400 3150 
L 3400 1825 
L 5075 1825 
L 5075 3150 
L 3400 3150 
z
M 4075 100 
Q 4725 50 4900 62 
Q 5075 75 5075 400 
L 5075 1675 
L 3400 1675 
Q 3400 75 3425 -225 
L 3050 -400 
Q 3075 1025 3075 1675 
L 1425 1675 
Q 1250 350 375 -600 
L 300 -550 
Q 775 225 950 1025 
Q 1125 1825 1125 3225 
Q 1125 4625 1100 5075 
L 1475 4825 
L 5050 4825 
L 5225 5100 
L 5625 4800 
L 5425 4600 
L 5425 225 
Q 5450 -400 4875 -575 
Q 4825 -150 4075 -25 
L 4075 100 
z
M 1475 4675 
L 1475 3300 
L 3075 3300 
L 3075 4675 
L 1475 4675 
z
M 3400 4675 
L 3400 3300 
L 5075 3300 
L 5075 4675 
L 3400 4675 
z
M 1475 3150 
Q 1450 2100 1425 1825 
L 3075 1825 
L 3075 3150 
L 1475 3150 
z
" transform="scale(0.015625)"/>
       <path id="SimSun-7387" d="M 875 3725 
L 925 3800 
Q 1375 3650 1550 3525 
Q 1725 3400 1725 3250 
Q 1725 3175 1662 3025 
Q 1600 2875 1550 2875 
Q 1500 2875 1425 3050 
Q 1275 3325 875 3725 
z
M 550 1850 
Q 875 1925 2000 2575 
L 2050 2500 
Q 1675 2225 1337 1937 
Q 1000 1650 875 1425 
L 550 1850 
z
M 5200 3450 
Q 4800 3150 4275 2800 
L 4225 2875 
Q 4775 3400 5050 3925 
L 5450 3525 
L 5200 3450 
z
M 4325 2500 
L 4350 2575 
Q 5225 2350 5375 2212 
Q 5525 2075 5525 1900 
Q 5525 1775 5487 1662 
Q 5450 1550 5400 1550 
Q 5325 1550 5200 1800 
Q 4975 2150 4325 2500 
z
M 3150 3900 
Q 2500 3300 2300 3150 
Q 2800 3150 3400 3175 
Q 3700 3500 3850 3825 
L 4250 3450 
Q 4050 3400 3450 2825 
Q 2850 2250 2475 1950 
Q 3150 1975 3850 2000 
Q 3750 2175 3550 2450 
L 3600 2500 
Q 4050 2250 4200 2100 
Q 4350 1950 4350 1850 
Q 4350 1775 4250 1625 
Q 4150 1475 4100 1475 
Q 4075 1475 4050 1550 
Q 4000 1700 3900 1900 
Q 3650 1875 3075 1800 
L 3500 1550 
L 3325 1425 
L 3325 975 
L 5325 975 
L 5650 1300 
L 6100 825 
L 3325 825 
Q 3325 -275 3350 -525 
L 2975 -650 
Q 3000 0 3000 825 
L 1125 825 
Q 800 825 525 750 
L 300 975 
L 3000 975 
L 3000 1775 
Q 2450 1700 2200 1525 
L 1950 1950 
Q 2275 1950 2675 2350 
Q 3075 2750 3325 3050 
Q 2400 2950 2150 2775 
L 1950 3175 
Q 2150 3150 2475 3575 
Q 2800 4000 2900 4225 
L 1450 4225 
Q 1125 4225 850 4150 
L 625 4375 
L 3100 4375 
Q 3050 4800 2675 5200 
L 2725 5250 
Q 3225 5050 3337 4912 
Q 3450 4775 3450 4700 
Q 3450 4550 3250 4375 
L 5025 4375 
L 5350 4675 
L 5775 4225 
L 3050 4225 
L 3375 3950 
L 3150 3900 
z
" transform="scale(0.015625)"/>
      </defs>
      <use xlink:href="#SimSun-43"/>
      <use xlink:href="#SimSun-50" x="50"/>
      <use xlink:href="#SimSun-55" x="100"/>
      <use xlink:href="#SimSun-4f7f" x="150"/>
      <use xlink:href="#SimSun-7528" x="250"/>
      <use xlink:href="#SimSun-7387" x="350"/>
     </g>
    </g>
   </g>
   <g id="line2d_12">
    <path d="M 105.770077 111.220106 
L 108.845518 117.314409 
L 111.920959 124.032606 
L 114.996399 128.69827 
L 118.07184 130.741759 
L 121.147281 135.506885 
L 124.222722 150.507545 
L 127.298163 137.297202 
L 130.373604 143.997317 
L 133.449045 142.365237 
L 136.524486 151.294199 
L 139.599927 151.719173 
L 142.675367 150.896351 
L 145.750808 154.594523 
L 148.826249 154.576442 
L 151.90169 154.377517 
L 154.977131 158.138983 
L 158.052572 158.753838 
L 161.128013 158.844262 
L 164.203454 159.251149 
L 167.278895 160.58032 
L 170.354335 159.621871 
L 173.429776 157.732091 
L 176.505217 165.680001 
L 179.580658 169.093347 
L 182.656099 162.940277 
L 185.73154 165.146527 
L 188.806981 175.011329 
L 191.882422 175.929098 
L 194.957863 175.825108 
L 198.033303 167.063423 
L 201.108744 168.464932 
L 204.184185 174.030278 
L 207.259626 169.947816 
L 210.335067 173.062786 
L 213.410508 174.098093 
L 216.485949 171.512081 
L 219.56139 173.306923 
L 222.636831 175.549331 
L 225.712272 176.277213 
L 228.787712 174.676779 
L 231.863153 169.653957 
L 234.938594 170.861058 
L 238.014035 170.083452 
L 241.089476 170.842976 
L 244.164917 168.636726 
L 247.240358 167.813909 
L 250.315799 166.710786 
L 253.39124 167.705403 
L 256.46668 167.08151 
L 259.542121 158.799045 
L 262.617562 164.251367 
L 265.693003 151.009378 
L 268.768444 142.925841 
L 271.843885 134.069213 
L 274.919326 119.014299 
L 277.994767 119.755742 
L 281.070208 125.904295 
L 284.145648 123.065109 
L 287.221089 120.768445 
L 290.29653 100.437535 
L 293.371971 90.296944 
L 296.447412 105.451319 
L 299.522853 88.199199 
L 302.598294 97.526016 
L 305.673735 102.015359 
L 308.749176 82.398766 
L 311.824616 80.685311 
L 314.900057 86.734402 
L 317.975498 87.032783 
L 321.050939 90.776173 
L 324.12638 82.557 
L 327.201821 71.846772 
L 330.277262 53.776351 
L 333.352703 77.913939 
L 336.428144 73.849565 
L 339.503584 63.650202 
L 342.579025 58.05322 
L 345.654466 76.535039 
L 348.729907 39.860739 
L 351.805348 64.888955 
L 354.880789 63.320174 
L 361.031671 81.987357 
L 364.107112 71.005867 
L 367.182552 49.341258 
L 370.257993 67.76431 
L 373.333434 64.558927 
L 376.408875 69.079917 
L 379.484316 65.567109 
L 382.559757 55.453643 
L 385.635198 58.098427 
L 388.710639 58.351602 
L 391.78608 56.326194 
L 394.86152 62.782178 
L 397.936961 65.313934 
L 401.012402 49.77527 
L 404.087843 56.122753 
L 407.163284 68.483144 
L 410.238725 77.131812 
L 413.314166 51.683134 
L 416.389607 36.510682 
L 419.465048 69.315015 
L 422.540488 73.334172 
L 425.615929 75.938266 
L 428.69137 70.757209 
L 431.766811 73.307053 
L 434.842252 72.547518 
L 437.917693 69.500369 
L 440.993134 71.200265 
L 444.068575 71.028471 
L 447.144016 51.212948 
L 450.219457 69.229108 
L 453.294897 81.851727 
L 456.370338 89.555507 
L 459.445779 76.819861 
L 462.52122 88.343874 
L 465.596661 79.681656 
L 468.672102 47.157617 
L 471.747543 51.136094 
L 474.822984 54.648902 
L 477.898425 43.825646 
L 480.973865 49.237274 
L 484.049306 50.249983 
L 487.124747 52.78174 
L 490.200188 70.675829 
L 493.275629 70.106186 
L 496.35107 68.93977 
L 499.426511 69.617913 
L 502.501952 73.713934 
L 505.577393 76.426539 
L 508.652833 79.654525 
L 511.728274 80.658191 
L 514.803715 77.891336 
L 517.879156 84.4287 
L 520.954597 88.022889 
L 524.030038 89.130528 
L 527.105479 93.990594 
L 530.18092 97.245711 
L 533.256361 102.562404 
L 536.331801 112.847664 
L 539.407242 115.596427 
L 542.482683 120.641858 
L 545.558124 126.333785 
L 548.633565 129.091597 
L 551.709006 133.038422 
L 554.784447 134.408284 
L 557.859888 135.181373 
L 560.935329 139.087514 
L 564.010769 139.006138 
L 567.08621 148.066208 
L 570.161651 134.448975 
L 573.237092 136.144343 
L 576.312533 145.769544 
L 579.387974 157.117241 
L 582.463415 163.103033 
L 585.538856 162.090334 
L 588.614297 164.658254 
L 591.689737 165.933176 
L 594.765178 168.844694 
L 597.840619 173.623385 
L 603.991501 172.25805 
L 607.066942 170.603361 
L 610.142383 166.213481 
L 619.368705 168.709069 
L 622.444146 169.115955 
L 625.519587 167.881724 
L 631.670469 169.794104 
L 634.74591 171.489478 
L 637.821351 175.047498 
L 640.896792 170.535546 
L 643.972233 166.991091 
L 647.047673 172.8729 
L 650.123114 173.311439 
L 653.198555 172.588084 
L 656.273996 170.381834 
L 659.349437 173.664076 
L 662.424878 175.192167 
L 665.500319 177.163329 
L 668.57576 177.041258 
L 674.726642 169.595185 
L 680.877523 170.336622 
L 683.952964 167.108635 
L 687.028405 167.407022 
L 690.103846 167.05438 
L 693.179287 165.309277 
L 696.254728 163.943942 
L 699.330169 157.230264 
L 702.40561 158.003352 
L 705.48105 163.012619 
L 708.556491 151.262553 
L 711.631932 149.748022 
L 714.707373 136.849622 
L 717.782814 134.656937 
L 720.858255 137.622714 
L 723.933696 142.487302 
L 727.009137 142.125622 
L 730.084578 141.131002 
L 733.160018 129.168456 
L 739.3109 87.426116 
L 742.386341 111.690292 
L 745.461782 101.631076 
L 748.537223 98.669824 
L 751.612664 83.519975 
L 754.688105 71.679494 
L 757.763546 82.285749 
L 760.838986 87.729024 
L 763.914427 76.941931 
L 766.989868 79.925787 
L 770.065309 80.088537 
L 773.14075 82.728805 
L 776.216191 93.086396 
L 779.291632 77.190579 
L 782.367073 73.496934 
L 785.442514 77.484444 
L 788.517954 109.438835 
L 791.593395 77.701455 
L 794.668836 87.276925 
L 797.744277 98.17704 
L 800.819718 103.981995 
L 803.895159 104.569725 
L 806.9706 101.292004 
L 810.046041 82.312869 
L 813.121482 100.437535 
L 816.196922 103.032585 
L 819.272363 105.089639 
L 822.347804 113.521291 
L 825.423245 94.112665 
L 828.498686 100.704275 
L 831.574127 103.778549 
L 834.649568 110.46962 
L 837.725009 109.994918 
L 840.80045 112.549278 
L 843.87589 95.857768 
L 846.951331 91.861209 
L 850.026772 91.915459 
L 853.102213 84.862712 
L 856.177654 80.712441 
L 859.253095 75.341493 
L 862.328536 76.426539 
L 865.403977 87.900818 
L 868.479418 105.808478 
L 871.554858 99.908577 
L 874.630299 108.272419 
L 877.70574 109.633237 
L 880.781181 105.180058 
L 883.856622 92.760885 
L 886.932063 99.980914 
L 890.007504 102.557883 
L 893.082945 103.32645 
L 896.158386 104.63754 
L 899.233827 106.513751 
L 902.309267 106.061652 
L 905.384708 87.950552 
L 908.460149 81.499095 
L 911.53559 69.631484 
L 914.611031 46.610577 
L 917.686472 63.446761 
L 920.761913 72.628899 
L 923.837354 69.04827 
L 926.912795 78.895002 
L 929.988235 84.157439 
L 933.063676 85.269605 
L 936.139117 77.864216 
L 939.214558 74.306191 
L 942.289999 63.604995 
L 945.36544 79.546025 
L 948.440881 84.34732 
L 951.516322 85.595116 
L 954.591763 79.96195 
L 957.667203 86.481227 
L 960.742644 89.582627 
L 963.818085 96.997059 
L 966.893526 93.787154 
L 969.968967 96.047649 
L 973.044408 106.192761 
L 976.119849 110.460577 
L 979.19529 111.889211 
L 982.270731 113.896536 
L 985.346171 122.124742 
L 988.421612 121.112044 
L 988.421612 121.112044 
" clip-path="url(#pc2510587ff)" style="fill: none; stroke: #1f77b4; stroke-width: 1.5; stroke-linecap: square"/>
   </g>
   <g id="line2d_13">
    <path d="M 548.633565 130.927937 
L 551.709006 119.225474 
L 554.784447 136.233948 
L 557.859888 140.567207 
L 560.935329 130.589307 
L 564.010769 134.773134 
L 567.08621 136.61219 
L 570.161651 139.360656 
L 573.237092 146.201088 
L 576.312533 143.299869 
L 579.387974 145.611687 
L 582.463415 150.684896 
L 585.538856 143.275099 
L 588.614297 150.714883 
L 591.689737 157.131621 
L 594.765178 153.222462 
L 597.840619 163.093854 
L 600.91606 169.507402 
L 603.991501 157.736009 
L 607.066942 161.738398 
L 610.142383 162.925752 
L 613.217824 171.421738 
L 616.293265 162.514451 
L 619.368705 170.111526 
L 622.444146 165.871828 
L 625.519587 167.104119 
L 628.595028 181.283603 
L 631.670469 182.942081 
L 634.74591 181.83601 
L 637.821351 175.306719 
L 640.896792 178.991472 
L 643.972233 181.234996 
L 647.047673 180.667175 
L 650.123114 172.498328 
L 653.198555 181.72176 
L 656.273996 185.536818 
L 659.349437 170.258415 
L 662.424878 176.901866 
L 665.500319 178.479938 
L 668.57576 180.716111 
L 671.651201 181.721522 
L 677.802082 177.813275 
L 680.877523 162.890645 
L 683.952964 178.091429 
L 687.028405 170.40621 
L 690.103846 174.73166 
L 693.179287 168.729726 
L 696.254728 168.849571 
L 699.330169 157.662616 
L 702.40561 154.646795 
L 705.48105 160.561694 
L 708.556491 146.04606 
L 711.631932 156.741263 
L 714.707373 133.28805 
L 717.782814 126.142638 
L 720.858255 127.122498 
L 723.933696 134.327604 
L 727.009137 130.243957 
L 730.084578 117.744223 
L 733.160018 103.43467 
L 736.235459 99.196249 
L 739.3109 97.240597 
L 742.386341 96.604966 
L 745.461782 102.702244 
L 748.537223 98.426178 
L 751.612664 87.028515 
L 754.688105 87.131626 
L 757.763546 81.819606 
L 760.838986 83.336723 
L 763.914427 79.366654 
L 766.989868 78.233911 
L 770.065309 78.574481 
L 773.14075 72.532686 
L 776.216191 75.47071 
L 779.291632 80.107519 
L 782.367073 77.457863 
L 785.442514 84.260226 
L 788.517954 75.260565 
L 791.593395 59.578897 
L 794.668836 73.242789 
L 800.819718 85.780783 
L 803.895159 67.982906 
L 806.9706 86.382849 
L 810.046041 68.231597 
L 813.121482 77.726667 
L 816.196922 75.499242 
L 819.272363 77.560791 
L 822.347804 78.331373 
L 825.423245 75.482254 
L 828.498686 69.06321 
L 831.574127 69.078451 
L 834.649568 72.760973 
L 837.725009 73.100788 
L 840.80045 80.162211 
L 843.87589 73.629072 
L 846.951331 63.883781 
L 850.026772 77.235311 
L 853.102213 71.578259 
L 856.177654 66.160379 
L 859.253095 74.805049 
L 862.328536 81.004581 
L 865.403977 73.986888 
L 868.479418 78.149296 
L 871.554858 69.745071 
L 874.630299 76.440918 
L 877.70574 79.965593 
L 880.781181 84.831249 
L 883.856622 76.458983 
L 886.932063 75.708072 
L 890.007504 74.137523 
L 893.082945 81.530203 
L 896.158386 77.184306 
L 899.233827 74.014611 
L 902.309267 68.510921 
L 905.384708 71.155295 
L 908.460149 76.897361 
L 911.53559 63.242652 
L 914.611031 66.630091 
L 917.686472 63.455708 
L 920.761913 67.19345 
L 923.837354 67.398809 
L 926.912795 64.309913 
L 929.988235 66.563758 
L 933.063676 70.865893 
L 936.139117 74.922711 
L 939.214558 64.688683 
L 942.289999 79.091458 
L 945.36544 71.141164 
L 951.516322 80.581585 
L 954.591763 83.430974 
L 957.667203 75.08516 
L 960.742644 81.82936 
L 963.818085 97.385815 
L 966.893526 87.359933 
L 969.968967 108.837481 
L 973.044408 105.050679 
L 976.119849 105.387239 
L 979.19529 109.133701 
L 982.270731 112.343676 
L 985.346171 120.037464 
L 988.421612 115.859512 
L 988.421612 115.859512 
" clip-path="url(#pc2510587ff)" style="fill: none; stroke: #ff7f0e; stroke-width: 1.5; stroke-linecap: square"/>
   </g>
   <g id="line2d_14">
    <path d="M 548.633565 192.988125 
L 548.633565 29.059375 
" clip-path="url(#pc2510587ff)" style="fill: none; stroke-dasharray: 7.4,3.2; stroke-dashoffset: 0; stroke: #0000ff; stroke-width: 2"/>
   </g>
   <g id="patch_3">
    <path d="M 61.6375 192.988125 
L 61.6375 29.059375 
" style="fill: none; stroke: #000000; stroke-width: 0.8; stroke-linejoin: miter; stroke-linecap: square"/>
   </g>
   <g id="patch_4">
    <path d="M 1032.554189 192.988125 
L 1032.554189 29.059375 
" style="fill: none; stroke: #000000; stroke-width: 0.8; stroke-linejoin: miter; stroke-linecap: square"/>
   </g>
   <g id="patch_5">
    <path d="M 61.6375 192.988125 
L 1032.554189 192.988125 
" style="fill: none; stroke: #000000; stroke-width: 0.8; stroke-linejoin: miter; stroke-linecap: square"/>
   </g>
   <g id="patch_6">
    <path d="M 61.6375 29.059375 
L 1032.554189 29.059375 
" style="fill: none; stroke: #000000; stroke-width: 0.8; stroke-linejoin: miter; stroke-linecap: square"/>
   </g>
   <g id="text_13">
    <!-- 云函数ID: 28 -->
    <g transform="translate(487.095845 23.059375) scale(0.2 -0.2)">
     <defs>
      <path id="SimSun-4e91" d="M 1200 4450 
L 4500 4450 
L 4850 4800 
L 5350 4300 
L 1975 4300 
Q 1700 4300 1425 4225 
L 1200 4450 
z
M 1600 275 
Q 2300 300 4725 450 
Q 4425 975 3850 1700 
L 3925 1775 
Q 5200 725 5287 500 
Q 5375 275 5375 175 
Q 5375 0 5250 -162 
Q 5125 -325 5075 -325 
Q 5025 -325 4975 -200 
Q 4875 50 4775 300 
Q 1650 -25 1300 -300 
L 975 300 
Q 1225 350 1462 550 
Q 1700 750 2150 1462 
Q 2600 2175 2725 2600 
L 1250 2600 
Q 925 2600 650 2525 
L 425 2750 
L 5025 2750 
L 5450 3175 
L 6025 2600 
L 3250 2600 
Q 3000 2025 2500 1375 
Q 2000 725 1600 275 
z
" transform="scale(0.015625)"/>
      <path id="SimSun-51fd" d="M 3050 2275 
L 3050 3000 
Q 3050 3450 3025 3800 
L 3275 3625 
L 4450 4475 
L 1650 4475 
Q 1325 4475 1050 4400 
L 825 4625 
L 4450 4625 
L 4775 4875 
L 5150 4375 
Q 4875 4325 4550 4175 
Q 4225 4025 3400 3550 
L 3550 3450 
L 3375 3325 
L 3375 2400 
Q 4250 3225 4475 3600 
L 4875 3150 
L 4625 3125 
Q 3625 2425 3400 2275 
Q 4575 1675 4687 1487 
Q 4800 1300 4800 1150 
Q 4800 1025 4750 925 
Q 4700 825 4675 825 
Q 4575 825 4375 1150 
Q 4075 1600 3375 2150 
L 3375 725 
Q 3375 350 2875 150 
Q 2850 450 2200 650 
L 2200 750 
Q 2800 675 2925 700 
Q 3050 725 3050 850 
L 3050 2100 
Q 1850 1300 1625 1025 
L 1275 1400 
Q 1575 1475 2087 1725 
Q 2600 1975 3050 2275 
z
M 1700 3475 
L 1775 3550 
Q 2350 3200 2475 3025 
Q 2600 2850 2600 2775 
Q 2600 2650 2500 2525 
Q 2400 2400 2350 2400 
Q 2275 2400 2225 2575 
Q 2150 2875 1700 3475 
z
M 5150 0 
L 5150 2175 
Q 5150 2725 5125 3325 
L 5725 3050 
L 5500 2850 
L 5500 525 
Q 5500 100 5525 -400 
L 5150 -600 
L 5150 -150 
L 1250 -150 
L 1000 -375 
L 675 -50 
L 875 125 
L 875 2375 
Q 875 2800 850 3425 
L 1450 3150 
L 1225 2975 
L 1225 0 
L 5150 0 
z
" transform="scale(0.015625)"/>
      <path id="SimSun-6570" d="M 1875 1525 
Q 1675 1200 1500 900 
Q 1825 825 2275 725 
Q 2500 975 2725 1525 
L 1875 1525 
z
M 850 4900 
Q 1325 4600 1425 4450 
Q 1525 4300 1525 4225 
Q 1525 4100 1437 3975 
Q 1350 3850 1300 3850 
Q 1225 3850 1150 4100 
Q 1050 4450 775 4850 
L 850 4900 
z
M 3000 4975 
L 3450 4675 
Q 3250 4625 3100 4425 
Q 2925 4225 2525 3825 
L 2450 3875 
Q 2925 4625 3000 4975 
z
M 1875 5250 
L 2425 5000 
L 2225 4825 
L 2225 3675 
L 2850 3675 
L 3125 3950 
L 3550 3525 
L 2225 3525 
L 2225 3300 
Q 2800 3175 2937 3062 
Q 3075 2950 3075 2775 
Q 3075 2700 3050 2587 
Q 3025 2475 2975 2475 
Q 2925 2475 2800 2650 
Q 2600 2925 2225 3175 
L 2225 2400 
L 1925 2200 
L 2275 2050 
Q 2150 2000 1950 1675 
L 2725 1675 
L 2900 1900 
L 3275 1575 
L 3050 1450 
Q 2800 875 2600 650 
Q 3000 550 3137 437 
Q 3275 325 3275 150 
Q 3275 -25 3200 -25 
Q 3125 -25 3025 75 
Q 2750 275 2400 425 
Q 1525 -275 325 -500 
L 300 -425 
Q 1450 -50 2100 550 
Q 1600 725 1125 800 
Q 1225 950 1525 1525 
L 1200 1525 
Q 875 1525 600 1450 
L 375 1675 
L 1575 1675 
Q 1675 1925 1775 2275 
L 1900 2225 
L 1900 3250 
Q 1225 2475 350 2050 
L 300 2125 
Q 1225 2775 1700 3525 
L 1250 3525 
Q 925 3525 650 3450 
L 425 3675 
L 1900 3675 
Q 1900 4575 1875 5250 
z
M 3925 3525 
Q 4050 2075 4525 1100 
Q 4925 1950 5025 3525 
L 3925 3525 
z
M 4050 5250 
L 4625 4925 
Q 4425 4850 4325 4625 
Q 4225 4400 3950 3675 
L 5375 3675 
L 5675 3975 
L 6125 3525 
L 5400 3525 
Q 5250 1675 4750 775 
Q 5325 75 6100 -100 
L 6100 -200 
Q 5625 -275 5600 -500 
Q 4950 -50 4525 525 
Q 3700 -275 2550 -650 
L 2500 -575 
Q 3650 -50 4325 800 
Q 3850 1975 3825 3375 
Q 3575 2725 3100 2150 
L 3025 2200 
Q 3625 3200 4050 5250 
z
" transform="scale(0.015625)"/>
      <path id="SimSun-49" d="M 600 4225 
L 600 4375 
L 2600 4375 
L 2600 4225 
L 2025 4225 
Q 1925 4225 1862 4175 
Q 1800 4125 1800 4025 
L 1800 450 
Q 1800 350 1862 300 
Q 1925 250 2025 250 
L 2600 250 
L 2600 100 
L 600 100 
L 600 250 
L 1175 250 
Q 1300 250 1350 300 
Q 1400 350 1400 450 
L 1400 4025 
Q 1400 4125 1350 4175 
Q 1300 4225 1175 4225 
L 600 4225 
z
" transform="scale(0.015625)"/>
      <path id="SimSun-44" d="M 2500 2275 
Q 2500 3350 2175 3787 
Q 1850 4225 1275 4225 
Q 1100 4225 1012 4175 
Q 925 4125 925 4025 
L 925 450 
Q 925 350 1000 300 
Q 1075 250 1200 250 
Q 1750 250 2125 662 
Q 2500 1075 2500 2275 
z
M 525 4025 
Q 525 4125 475 4175 
Q 425 4225 300 4225 
L 150 4225 
L 150 4375 
L 1275 4375 
Q 2050 4375 2512 3875 
Q 2975 3375 2975 2325 
Q 2975 1175 2525 637 
Q 2075 100 1200 100 
L 125 100 
L 125 250 
L 300 250 
Q 425 250 475 300 
Q 525 350 525 450 
L 525 4025 
z
" transform="scale(0.015625)"/>
      <path id="SimSun-3a" d="M 1900 2725 
Q 1900 2575 1800 2475 
Q 1700 2375 1550 2375 
Q 1400 2375 1300 2475 
Q 1200 2575 1200 2725 
Q 1200 2875 1300 2975 
Q 1400 3075 1550 3075 
Q 1700 3075 1800 2975 
Q 1900 2875 1900 2725 
z
M 1900 375 
Q 1900 225 1800 125 
Q 1700 25 1550 25 
Q 1400 25 1300 125 
Q 1200 225 1200 375 
Q 1200 525 1300 625 
Q 1400 725 1550 725 
Q 1700 725 1800 625 
Q 1900 525 1900 375 
z
" transform="scale(0.015625)"/>
      <path id="SimSun-20" d="M 0 0 
Q 0 0 0 0 
z
" transform="scale(0.015625)"/>
      <path id="SimSun-32" d="M 2325 3325 
Q 2325 3775 2125 4012 
Q 1925 4250 1525 4250 
Q 1225 4250 1012 4087 
Q 800 3925 800 3675 
Q 800 3525 900 3425 
Q 975 3325 975 3225 
Q 975 3100 912 3037 
Q 850 2975 725 2975 
Q 575 2975 487 3062 
Q 400 3150 400 3350 
Q 400 3875 775 4150 
Q 1150 4425 1575 4425 
Q 2175 4425 2462 4125 
Q 2750 3825 2750 3375 
Q 2750 3075 2612 2775 
Q 2475 2475 2175 2200 
Q 1450 1500 1062 1062 
Q 675 625 600 475 
L 2075 475 
Q 2300 475 2450 650 
Q 2600 825 2650 1175 
L 2800 1175 
L 2650 100 
L 325 100 
L 325 425 
Q 450 650 737 1000 
Q 1025 1350 1500 1825 
Q 1925 2250 2125 2625 
Q 2325 3000 2325 3325 
z
" transform="scale(0.015625)"/>
      <path id="SimSun-38" d="M 625 1125 
Q 625 725 887 475 
Q 1150 225 1550 225 
Q 2025 225 2237 475 
Q 2450 725 2450 1100 
Q 2450 1425 2150 1725 
Q 1850 2025 1250 2275 
Q 950 2075 787 1775 
Q 625 1475 625 1125 
z
M 2825 1175 
Q 2825 700 2475 375 
Q 2125 50 1550 50 
Q 1025 50 650 375 
Q 275 700 275 1125 
Q 275 1550 487 1850 
Q 700 2150 1100 2375 
Q 750 2550 562 2812 
Q 375 3075 375 3400 
Q 375 3825 700 4125 
Q 1025 4425 1600 4425 
Q 2125 4425 2450 4125 
Q 2775 3825 2775 3400 
Q 2775 3100 2587 2837 
Q 2400 2575 2000 2375 
Q 2425 2125 2625 1825 
Q 2825 1525 2825 1175 
z
M 2425 3375 
Q 2425 3725 2225 3987 
Q 2025 4250 1600 4250 
Q 1125 4250 925 4000 
Q 725 3750 725 3475 
Q 725 3200 1012 2937 
Q 1300 2675 1825 2475 
Q 2125 2625 2275 2850 
Q 2425 3075 2425 3375 
z
" transform="scale(0.015625)"/>
     </defs>
     <use xlink:href="#SimSun-4e91"/>
     <use xlink:href="#SimSun-51fd" x="100"/>
     <use xlink:href="#SimSun-6570" x="200"/>
     <use xlink:href="#SimSun-49" x="300"/>
     <use xlink:href="#SimSun-44" x="350"/>
     <use xlink:href="#SimSun-3a" x="400"/>
     <use xlink:href="#SimSun-20" x="450"/>
     <use xlink:href="#SimSun-32" x="500"/>
     <use xlink:href="#SimSun-38" x="550"/>
    </g>
   </g>
   <g id="legend_1">
    <g id="patch_7">
     <path d="M 75.6375 101.934375 
L 199.6375 101.934375 
Q 203.6375 101.934375 203.6375 97.934375 
L 203.6375 43.059375 
Q 203.6375 39.059375 199.6375 39.059375 
L 75.6375 39.059375 
Q 71.6375 39.059375 71.6375 43.059375 
L 71.6375 97.934375 
Q 71.6375 101.934375 75.6375 101.934375 
z
" style="fill: #ffffff; opacity: 0.8; stroke: #cccccc; stroke-linejoin: miter"/>
    </g>
    <g id="line2d_15">
     <path d="M 79.6375 55.996875 
L 99.6375 55.996875 
L 119.6375 55.996875 
" style="fill: none; stroke: #1f77b4; stroke-width: 1.5; stroke-linecap: square"/>
    </g>
    <g id="text_14">
     <!-- 真实值 -->
     <g transform="translate(135.6375 62.996875) scale(0.2 -0.2)">
      <defs>
       <path id="SimSun-771f" d="M 2050 3450 
L 2050 2900 
L 4300 2900 
L 4300 3450 
L 2050 3450 
z
M 2050 2750 
L 2050 2225 
L 4300 2225 
L 4300 2750 
L 2050 2750 
z
M 2050 2075 
L 2050 1550 
L 4300 1550 
L 4300 2075 
L 2050 2075 
z
M 2050 1400 
L 2050 875 
L 4300 875 
L 4300 1400 
L 2050 1400 
z
M 2875 3600 
L 2925 4325 
L 1525 4325 
Q 1200 4325 925 4250 
L 700 4475 
L 2950 4475 
Q 2975 4825 2975 5275 
L 3550 5025 
L 3375 4925 
L 3300 4475 
L 5000 4475 
L 5325 4825 
L 5775 4325 
L 3275 4325 
L 3200 3600 
L 4275 3600 
L 4450 3875 
L 4850 3575 
L 4650 3375 
L 4650 875 
L 5300 875 
L 5675 1225 
L 6125 725 
L 1150 725 
Q 825 725 550 650 
L 325 875 
L 1700 875 
Q 1700 3200 1675 3775 
L 2050 3600 
L 2875 3600 
z
M 2425 725 
L 2825 350 
L 2575 300 
Q 1500 -425 800 -650 
L 775 -575 
Q 1950 125 2425 725 
z
M 3800 700 
Q 4575 375 4962 200 
Q 5350 25 5400 -112 
Q 5450 -250 5450 -325 
Q 5450 -400 5400 -525 
Q 5350 -650 5325 -650 
Q 5250 -650 5100 -450 
Q 4875 -150 3750 625 
L 3800 700 
z
" transform="scale(0.015625)"/>
       <path id="SimSun-5b9e" d="M 1950 3625 
Q 2575 3400 2700 3250 
Q 2825 3100 2825 2975 
Q 2825 2850 2750 2700 
Q 2675 2550 2625 2550 
Q 2550 2550 2450 2800 
Q 2275 3175 1900 3550 
L 1950 3625 
z
M 3575 1325 
Q 3500 1100 3425 925 
Q 4650 550 5087 325 
Q 5525 100 5512 -225 
Q 5500 -550 5400 -550 
Q 5300 -550 5075 -300 
Q 4625 175 3375 800 
Q 3025 175 2300 -150 
Q 1575 -475 425 -625 
L 425 -525 
Q 1475 -325 2200 100 
Q 2925 525 3200 1325 
L 1225 1325 
Q 900 1325 625 1250 
L 400 1475 
L 3225 1475 
Q 3325 1950 3375 2575 
Q 3425 3200 3425 3700 
L 4050 3400 
L 3850 3225 
Q 3750 2300 3625 1475 
L 5175 1475 
L 5550 1850 
L 6075 1325 
L 3575 1325 
z
M 1275 2700 
Q 1975 2425 2100 2262 
Q 2225 2100 2225 1975 
Q 2225 1850 2150 1700 
Q 2075 1550 2025 1550 
Q 1950 1550 1850 1800 
Q 1675 2175 1225 2625 
L 1275 2700 
z
M 2750 5225 
L 2825 5275 
Q 3225 5100 3425 4925 
Q 3625 4750 3625 4600 
Q 3625 4450 3512 4300 
Q 3400 4150 3325 4150 
Q 3250 4150 3200 4400 
Q 3100 4775 2750 5225 
z
M 4975 3225 
L 5350 3925 
L 1175 3925 
Q 1225 3525 1125 3300 
Q 1025 3075 787 3100 
Q 550 3125 550 3200 
Q 550 3300 700 3475 
Q 975 3825 1050 4375 
L 1150 4375 
L 1175 4075 
L 5300 4075 
L 5575 4350 
L 6050 3800 
Q 5625 3825 5050 3175 
L 4975 3225 
z
" transform="scale(0.015625)"/>
       <path id="SimSun-503c" d="M 1525 650 
Q 1525 -225 1550 -525 
L 1175 -650 
Q 1200 250 1200 550 
L 1200 3025 
Q 750 2300 325 1850 
L 250 1900 
Q 725 2625 1100 3525 
Q 1475 4425 1675 5200 
L 2200 4875 
L 1950 4725 
Q 1550 3800 1425 3475 
L 1725 3300 
L 1525 3150 
L 1525 650 
z
M 2875 3225 
L 2875 2475 
L 4800 2475 
L 4800 3225 
L 2875 3225 
z
M 2875 2325 
L 2875 1575 
L 4800 1575 
L 4800 2325 
L 2875 2325 
z
M 2875 1425 
L 2875 675 
L 4800 675 
L 4800 1425 
L 2875 1425 
z
M 2875 525 
L 2875 -225 
L 4800 -225 
L 4800 525 
L 2875 525 
z
M 3550 4250 
Q 3575 4825 3550 5225 
L 4125 4950 
L 3925 4800 
L 3900 4250 
L 5025 4250 
L 5350 4575 
L 5825 4100 
L 3900 4100 
L 3875 3375 
L 4750 3375 
L 4975 3625 
L 5350 3300 
L 5125 3150 
L 5125 -225 
L 5350 -225 
L 5675 100 
L 6150 -375 
L 2450 -375 
Q 2125 -375 1850 -450 
L 1625 -225 
L 2550 -225 
L 2550 2550 
Q 2550 2850 2525 3575 
L 2875 3375 
L 3525 3375 
L 3550 4100 
L 2800 4100 
Q 2475 4100 2200 4025 
L 1975 4250 
L 3550 4250 
z
" transform="scale(0.015625)"/>
      </defs>
      <use xlink:href="#SimSun-771f"/>
      <use xlink:href="#SimSun-5b9e" x="100"/>
      <use xlink:href="#SimSun-503c" x="200"/>
     </g>
    </g>
    <g id="line2d_16">
     <path d="M 79.6375 84.35625 
L 99.6375 84.35625 
L 119.6375 84.35625 
" style="fill: none; stroke: #ff7f0e; stroke-width: 1.5; stroke-linecap: square"/>
    </g>
    <g id="text_15">
     <!-- 预测值 -->
     <g transform="translate(135.6375 91.35625) scale(0.2 -0.2)">
      <defs>
       <path id="SimSun-9884" d="M 475 4825 
L 2225 4825 
L 2425 5075 
L 2825 4675 
Q 2600 4625 2387 4412 
Q 2175 4200 1800 3750 
Q 2050 3575 2037 3400 
Q 2025 3225 1937 3150 
Q 1850 3075 1825 3075 
Q 1725 3075 1650 3300 
Q 1525 3600 1050 4100 
L 1100 4150 
Q 1475 3975 1700 3825 
L 2225 4675 
L 1300 4675 
Q 975 4675 700 4600 
L 475 4825 
z
M 725 100 
Q 1175 50 1362 37 
Q 1550 25 1550 275 
L 1550 2875 
L 1125 2875 
Q 800 2875 525 2800 
L 300 3025 
L 2525 3025 
L 2725 3275 
L 3150 2875 
Q 2800 2825 2275 2075 
L 2200 2125 
L 2550 2875 
L 1875 2875 
L 1875 150 
Q 1875 -400 1350 -500 
Q 1325 -175 725 0 
L 725 100 
z
M 3250 775 
Q 3275 1425 3275 2287 
Q 3275 3150 3250 3900 
L 3600 3700 
L 4050 3700 
Q 4175 4400 4200 4675 
L 3650 4675 
Q 3325 4675 3050 4600 
L 2825 4825 
L 5325 4825 
L 5675 5150 
L 6125 4675 
L 4675 4675 
Q 4500 4425 4175 3700 
L 5300 3700 
L 5475 3975 
L 5875 3675 
L 5675 3475 
L 5675 1950 
Q 5675 1525 5700 1075 
L 5350 875 
L 5350 3550 
L 3600 3550 
L 3600 1000 
L 3250 775 
z
M 4850 2875 
L 4625 2675 
Q 4625 1475 4475 937 
Q 4325 400 3900 50 
Q 3475 -300 2425 -625 
L 2400 -550 
Q 3500 -50 3837 400 
Q 4175 850 4237 1587 
Q 4300 2325 4275 3175 
L 4850 2875 
z
M 4650 950 
Q 5725 375 5875 212 
Q 6025 50 6025 -125 
Q 6025 -225 5962 -387 
Q 5900 -550 5850 -550 
Q 5800 -550 5750 -450 
Q 5625 -250 5437 0 
Q 5250 250 4600 875 
L 4650 950 
z
" transform="scale(0.015625)"/>
       <path id="SimSun-6d4b" d="M 1975 1000 
Q 2000 1475 2000 2925 
Q 2000 4375 1975 5000 
L 2350 4775 
L 3575 4775 
L 3775 4975 
L 4100 4650 
L 3900 4500 
L 3900 2350 
Q 3900 1850 3925 1350 
L 3600 1200 
L 3600 4625 
L 2325 4625 
L 2325 1150 
L 1975 1000 
z
M 2775 3975 
L 3300 3700 
L 3125 3525 
Q 3150 1825 2875 937 
Q 2600 50 1375 -600 
L 1325 -500 
Q 2200 100 2475 725 
Q 2750 1350 2775 2187 
Q 2800 3025 2775 3975 
z
M 3100 950 
Q 3825 450 3937 262 
Q 4050 75 4050 -25 
Q 4050 -150 3975 -262 
Q 3900 -375 3850 -375 
Q 3750 -375 3650 -75 
Q 3500 375 3050 875 
L 3100 950 
z
M 4475 825 
Q 4500 1200 4500 1700 
L 4500 3400 
Q 4500 3950 4475 4300 
L 5025 4025 
L 4825 3825 
L 4825 1700 
Q 4825 1325 4850 950 
L 4475 825 
z
M 5375 150 
L 5375 4050 
Q 5375 4750 5350 5125 
L 5875 4875 
L 5700 4700 
L 5700 75 
Q 5700 -200 5600 -350 
Q 5500 -500 5200 -600 
Q 5025 -225 4450 -50 
L 4450 50 
Q 5125 -50 5250 -37 
Q 5375 -25 5375 150 
z
M 1850 3500 
Q 1375 1525 1300 1225 
Q 1200 900 1212 450 
Q 1225 0 1250 -175 
Q 1250 -275 1125 -275 
Q 1025 -275 875 -225 
Q 725 -175 725 0 
Q 725 125 800 375 
Q 875 625 875 775 
Q 875 950 762 1050 
Q 650 1150 275 1250 
L 275 1350 
Q 725 1300 837 1312 
Q 950 1325 1087 1537 
Q 1225 1750 1750 3525 
L 1850 3500 
z
M 375 3775 
Q 1075 3350 1112 3100 
Q 1150 2850 1050 2775 
Q 950 2700 900 2700 
Q 800 2700 725 2975 
Q 600 3350 325 3700 
L 375 3775 
z
M 800 5100 
Q 1475 4725 1550 4512 
Q 1625 4300 1525 4187 
Q 1425 4075 1350 4075 
Q 1275 4075 1200 4300 
Q 1075 4650 750 5025 
L 800 5100 
z
" transform="scale(0.015625)"/>
      </defs>
      <use xlink:href="#SimSun-9884"/>
      <use xlink:href="#SimSun-6d4b" x="100"/>
      <use xlink:href="#SimSun-503c" x="200"/>
     </g>
    </g>
   </g>
  </g>
  <g id="axes_2">
   <g id="patch_8">
    <path d="M 61.6375 425.788125 
L 1032.554189 425.788125 
L 1032.554189 261.859375 
L 61.6375 261.859375 
z
" style="fill: #ffffff"/>
   </g>
   <g id="matplotlib.axis_3">
    <g id="xtick_8">
     <g id="line2d_17">
      <g>
       <use xlink:href="#m7e45b2488f" x="105.770077" y="425.788125" style="stroke: #000000; stroke-width: 0.8"/>
      </g>
     </g>
     <g id="text_16">
      <!-- 0 -->
      <g transform="translate(100.770077 446.675625) scale(0.2 -0.2)">
       <use xlink:href="#TimesNewRomanPSMT-30"/>
      </g>
     </g>
    </g>
    <g id="xtick_9">
     <g id="line2d_18">
      <g>
       <use xlink:href="#m7e45b2488f" x="259.542121" y="425.788125" style="stroke: #000000; stroke-width: 0.8"/>
      </g>
     </g>
     <g id="text_17">
      <!-- 50 -->
      <g transform="translate(249.542121 446.675625) scale(0.2 -0.2)">
       <use xlink:href="#TimesNewRomanPSMT-35"/>
       <use xlink:href="#TimesNewRomanPSMT-30" x="50"/>
      </g>
     </g>
    </g>
    <g id="xtick_10">
     <g id="line2d_19">
      <g>
       <use xlink:href="#m7e45b2488f" x="413.314166" y="425.788125" style="stroke: #000000; stroke-width: 0.8"/>
      </g>
     </g>
     <g id="text_18">
      <!-- 100 -->
      <g transform="translate(398.314166 446.675625) scale(0.2 -0.2)">
       <use xlink:href="#TimesNewRomanPSMT-31"/>
       <use xlink:href="#TimesNewRomanPSMT-30" x="50"/>
       <use xlink:href="#TimesNewRomanPSMT-30" x="100"/>
      </g>
     </g>
    </g>
    <g id="xtick_11">
     <g id="line2d_20">
      <g>
       <use xlink:href="#m7e45b2488f" x="567.08621" y="425.788125" style="stroke: #000000; stroke-width: 0.8"/>
      </g>
     </g>
     <g id="text_19">
      <!-- 150 -->
      <g transform="translate(552.08621 446.675625) scale(0.2 -0.2)">
       <use xlink:href="#TimesNewRomanPSMT-31"/>
       <use xlink:href="#TimesNewRomanPSMT-35" x="50"/>
       <use xlink:href="#TimesNewRomanPSMT-30" x="100"/>
      </g>
     </g>
    </g>
    <g id="xtick_12">
     <g id="line2d_21">
      <g>
       <use xlink:href="#m7e45b2488f" x="720.858255" y="425.788125" style="stroke: #000000; stroke-width: 0.8"/>
      </g>
     </g>
     <g id="text_20">
      <!-- 200 -->
      <g transform="translate(705.858255 446.675625) scale(0.2 -0.2)">
       <use xlink:href="#TimesNewRomanPSMT-32"/>
       <use xlink:href="#TimesNewRomanPSMT-30" x="50"/>
       <use xlink:href="#TimesNewRomanPSMT-30" x="100"/>
      </g>
     </g>
    </g>
    <g id="xtick_13">
     <g id="line2d_22">
      <g>
       <use xlink:href="#m7e45b2488f" x="874.630299" y="425.788125" style="stroke: #000000; stroke-width: 0.8"/>
      </g>
     </g>
     <g id="text_21">
      <!-- 250 -->
      <g transform="translate(859.630299 446.675625) scale(0.2 -0.2)">
       <use xlink:href="#TimesNewRomanPSMT-32"/>
       <use xlink:href="#TimesNewRomanPSMT-35" x="50"/>
       <use xlink:href="#TimesNewRomanPSMT-30" x="100"/>
      </g>
     </g>
    </g>
    <g id="xtick_14">
     <g id="line2d_23">
      <g>
       <use xlink:href="#m7e45b2488f" x="1028.402344" y="425.788125" style="stroke: #000000; stroke-width: 0.8"/>
      </g>
     </g>
     <g id="text_22">
      <!-- 300 -->
      <g transform="translate(1013.402344 446.675625) scale(0.2 -0.2)">
       <use xlink:href="#TimesNewRomanPSMT-33"/>
       <use xlink:href="#TimesNewRomanPSMT-30" x="50"/>
       <use xlink:href="#TimesNewRomanPSMT-30" x="100"/>
      </g>
     </g>
    </g>
   </g>
   <g id="matplotlib.axis_4">
    <g id="ytick_5">
     <g id="line2d_24">
      <g>
       <use xlink:href="#ma7fa22cf76" x="61.6375" y="373.167458" style="stroke: #000000; stroke-width: 0.8"/>
      </g>
     </g>
     <g id="text_23">
      <!-- 0.5 -->
      <g transform="translate(29.6375 380.111208) scale(0.2 -0.2)">
       <use xlink:href="#TimesNewRomanPSMT-30"/>
       <use xlink:href="#TimesNewRomanPSMT-2e" x="50"/>
       <use xlink:href="#TimesNewRomanPSMT-35" x="75"/>
      </g>
     </g>
    </g>
    <g id="ytick_6">
     <g id="line2d_25">
      <g>
       <use xlink:href="#ma7fa22cf76" x="61.6375" y="314.839258" style="stroke: #000000; stroke-width: 0.8"/>
      </g>
     </g>
     <g id="text_24">
      <!-- 1.0 -->
      <g transform="translate(29.6375 321.783008) scale(0.2 -0.2)">
       <use xlink:href="#TimesNewRomanPSMT-31"/>
       <use xlink:href="#TimesNewRomanPSMT-2e" x="50"/>
       <use xlink:href="#TimesNewRomanPSMT-30" x="75"/>
      </g>
     </g>
    </g>
    <g id="text_25">
     <!-- CPU使用率 -->
     <g transform="translate(23.059375 388.82375) rotate(-90) scale(0.2 -0.2)">
      <use xlink:href="#SimSun-43"/>
      <use xlink:href="#SimSun-50" x="50"/>
      <use xlink:href="#SimSun-55" x="100"/>
      <use xlink:href="#SimSun-4f7f" x="150"/>
      <use xlink:href="#SimSun-7528" x="250"/>
      <use xlink:href="#SimSun-7387" x="350"/>
     </g>
    </g>
   </g>
   <g id="line2d_26">
    <path d="M 105.770077 386.979562 
L 108.845518 384.179817 
L 111.920959 375.220621 
L 114.996399 360.381929 
L 118.07184 362.621714 
L 121.147281 362.061768 
L 124.222722 354.502431 
L 127.298163 352.822592 
L 130.373604 349.462886 
L 133.449045 336.584011 
L 136.524486 335.184138 
L 139.599927 335.184138 
L 142.675367 331.544452 
L 145.750808 331.264472 
L 148.826249 327.624801 
L 151.90169 308.866447 
L 154.977131 308.586467 
L 158.052572 310.82628 
L 161.128013 306.626648 
L 164.203454 308.586467 
L 167.278895 300.467183 
L 170.354335 288.988208 
L 173.429776 282.828743 
L 179.580658 292.90786 
L 182.656099 296.267565 
L 185.73154 289.82812 
L 188.806981 278.069165 
L 191.882422 285.628502 
L 194.957863 293.747786 
L 198.033303 293.467806 
L 201.108744 290.948027 
L 204.184185 289.548154 
L 207.259626 314.465952 
L 210.335067 286.188449 
L 213.410508 295.707605 
L 216.485949 294.027752 
L 219.56139 298.227384 
L 222.636831 298.227384 
L 225.712272 297.107492 
L 228.787712 298.787331 
L 231.863153 304.106869 
L 234.938594 302.427016 
L 238.014035 302.986962 
L 241.089476 302.986962 
L 244.164917 285.068542 
L 247.240358 278.069165 
L 250.315799 287.028375 
L 253.39124 294.307732 
L 256.46668 299.067311 
L 259.542121 304.946795 
L 262.617562 294.867679 
L 265.693003 299.907237 
L 268.768444 306.346668 
L 271.843885 301.30711 
L 274.919326 299.347291 
L 277.994767 298.507364 
L 281.070208 295.707605 
L 284.145648 292.62788 
L 287.221089 294.867679 
L 290.29653 295.707605 
L 293.371971 290.388081 
L 296.447412 275.549386 
L 299.522853 278.349131 
L 302.598294 279.189058 
L 305.673735 280.308964 
L 308.749176 280.028984 
L 311.824616 291.228007 
L 314.900057 290.668047 
L 317.975498 288.988208 
L 321.050939 296.267565 
L 327.201821 292.3479 
L 330.277262 293.747786 
L 333.352703 288.988208 
L 336.428144 285.068542 
L 339.503584 288.988208 
L 342.579025 288.148282 
L 345.654466 285.908469 
L 348.729907 287.028375 
L 351.805348 283.66867 
L 354.880789 274.989426 
L 357.95623 275.549386 
L 361.031671 280.588944 
L 364.107112 281.148891 
L 367.182552 281.428871 
L 370.257993 284.228616 
L 373.333434 284.788576 
L 376.408875 288.708228 
L 379.484316 285.068542 
L 382.559757 277.789185 
L 385.635198 296.827512 
L 388.710639 300.467183 
L 391.78608 307.466574 
L 394.86152 323.425169 
L 397.936961 326.224928 
L 401.012402 328.464727 
L 404.087843 337.143957 
L 407.163284 337.423937 
L 410.238725 336.863991 
L 413.314166 353.382538 
L 416.389607 358.422096 
L 419.465048 362.341748 
L 422.540488 369.061145 
L 425.615929 369.621106 
L 428.69137 389.219375 
L 431.766811 376.620493 
L 434.842252 379.980199 
L 437.917693 385.019757 
L 440.993134 389.779335 
L 444.068575 392.01912 
L 447.144016 391.739168 
L 450.219457 397.058679 
L 453.294897 400.138404 
L 456.370338 401.538305 
L 459.445779 404.897996 
L 462.52122 406.297883 
L 465.596661 407.977735 
L 468.672102 408.817648 
L 471.747543 410.497501 
L 477.898425 412.737314 
L 480.973865 413.01728 
L 484.049306 413.01728 
L 487.124747 414.137186 
L 493.275629 415.257079 
L 496.35107 416.097019 
L 499.426511 415.817039 
L 502.501952 415.257079 
L 505.577393 415.817039 
L 508.652833 416.097019 
L 511.728274 415.257079 
L 514.803715 415.817039 
L 517.879156 414.697133 
L 520.954597 412.457334 
L 524.030038 412.737314 
L 527.105479 411.897373 
L 530.18092 409.937554 
L 533.256361 409.097628 
L 536.331801 406.577849 
L 539.407242 399.298492 
L 542.482683 400.698364 
L 545.558124 397.618639 
L 548.633565 391.179208 
L 551.709006 389.779335 
L 554.784447 383.339904 
L 557.859888 366.54138 
L 560.935329 368.781179 
L 564.010769 367.101326 
L 567.08621 361.221842 
L 570.161651 359.262023 
L 573.237092 355.342371 
L 576.312533 342.743475 
L 579.387974 340.783643 
L 582.463415 338.543843 
L 585.538856 336.863991 
L 588.614297 338.82381 
L 591.689737 334.064232 
L 594.765178 316.425791 
L 597.840619 308.866447 
L 600.91606 313.906005 
L 603.991501 312.786099 
L 607.066942 310.5463 
L 610.142383 304.106869 
L 613.217824 291.228007 
L 616.293265 288.988208 
L 619.368705 297.947404 
L 622.444146 298.227384 
L 625.519587 299.347291 
L 628.595028 294.867679 
L 631.670469 285.348522 
L 634.74591 290.108101 
L 637.821351 295.147659 
L 640.896792 294.587713 
L 643.972233 292.067933 
L 647.047673 294.027752 
L 650.123114 305.506742 
L 653.198555 277.789185 
L 656.273996 297.667438 
L 659.349437 294.867679 
L 662.424878 302.706996 
L 665.500319 305.786722 
L 668.57576 301.30711 
L 671.651201 305.226775 
L 674.726642 306.066688 
L 677.802082 306.346668 
L 680.877523 304.946795 
L 683.952964 307.746541 
L 687.028405 303.826889 
L 690.103846 301.86707 
L 693.179287 304.106869 
L 696.254728 306.626648 
L 699.330169 308.586467 
L 702.40561 307.466574 
L 705.48105 301.86707 
L 708.556491 303.266943 
L 711.631932 308.026521 
L 714.707373 304.666815 
L 717.782814 299.907237 
L 720.858255 293.187826 
L 723.933696 300.187217 
L 727.009137 302.986962 
L 730.084578 305.506742 
L 733.160018 304.946795 
L 736.235459 304.946795 
L 739.3109 303.266943 
L 742.386341 299.067311 
L 745.461782 300.467183 
L 748.537223 295.707605 
L 751.612664 285.348522 
L 754.688105 288.148282 
L 757.763546 293.467806 
L 760.838986 291.787953 
L 763.914427 291.228007 
L 766.989868 294.867679 
L 770.065309 293.467806 
L 773.14075 290.948027 
L 776.216191 294.307732 
L 779.291632 288.988208 
L 782.367073 288.428248 
L 785.442514 292.3479 
L 788.517954 290.388081 
L 791.593395 292.62788 
L 794.668836 292.067933 
L 797.744277 284.228616 
L 800.819718 284.788576 
L 803.895159 287.588321 
L 806.9706 292.3479 
L 810.046041 289.82812 
L 813.121482 291.787953 
L 816.196922 294.867679 
L 819.272363 302.147036 
L 822.347804 299.627257 
L 825.423245 290.948027 
L 828.498686 308.586467 
L 831.574127 314.465952 
L 834.649568 315.585865 
L 837.725009 334.344212 
L 840.80045 340.223696 
L 843.87589 337.983883 
L 846.951331 349.182906 
L 850.026772 350.022833 
L 853.102213 349.182906 
L 856.177654 364.301567 
L 859.253095 367.381307 
L 862.328536 372.700831 
L 865.403977 379.420239 
L 868.479418 381.660052 
L 871.554858 398.178599 
L 874.630299 388.659415 
L 877.70574 392.859061 
L 880.781181 395.378826 
L 883.856622 398.738531 
L 886.932063 401.818257 
L 890.007504 403.218143 
L 893.082945 406.297883 
L 896.158386 407.977735 
L 899.233827 408.817648 
L 902.309267 410.777481 
L 908.460149 412.457334 
L 911.53559 414.137186 
L 914.611031 414.977113 
L 917.686472 414.697133 
L 920.761913 415.817039 
L 923.837354 416.656965 
L 926.912795 416.376985 
L 929.988235 417.496892 
L 933.063676 417.776872 
L 936.139117 417.496892 
L 945.36544 418.336818 
L 948.440881 418.056838 
L 951.516322 417.496892 
L 957.667203 417.496892 
L 960.742644 416.376985 
L 963.818085 413.29726 
L 966.893526 413.577226 
L 969.968967 411.897373 
L 973.044408 409.377608 
L 976.119849 409.097628 
L 979.19529 405.737923 
L 982.270731 393.978953 
L 985.346171 394.538913 
L 988.421612 389.499355 
L 988.421612 389.499355 
" clip-path="url(#pa6837ca283)" style="fill: none; stroke: #1f77b4; stroke-width: 1.5; stroke-linecap: square"/>
   </g>
   <g id="line2d_27">
    <path d="M 548.633565 393.841807 
L 551.709006 387.208074 
L 554.784447 381.505717 
L 557.859888 370.196307 
L 560.935329 370.040276 
L 564.010769 370.747381 
L 567.08621 365.881974 
L 570.161651 366.2001 
L 573.237092 361.252075 
L 576.312533 341.508965 
L 579.387974 337.156209 
L 582.463415 342.0688 
L 585.538856 339.903693 
L 588.614297 341.739271 
L 591.689737 335.878602 
L 594.765178 328.863316 
L 597.840619 322.71839 
L 600.91606 323.685548 
L 603.991501 322.673034 
L 607.066942 318.946982 
L 610.142383 318.838323 
L 613.217824 307.6511 
L 616.293265 306.978511 
L 619.368705 310.552252 
L 622.444146 308.585869 
L 625.519587 313.431793 
L 628.595028 306.238614 
L 631.670469 294.548858 
L 634.74591 294.402325 
L 637.821351 304.440904 
L 640.896792 311.14912 
L 643.972233 312.43418 
L 647.047673 309.90055 
L 650.123114 310.935947 
L 653.198555 297.832981 
L 656.273996 306.044229 
L 659.349437 311.087806 
L 662.424878 309.543375 
L 665.500319 313.272827 
L 668.57576 305.674788 
L 671.651201 309.085391 
L 674.726642 312.200634 
L 677.802082 308.559878 
L 680.877523 310.406247 
L 683.952964 310.620491 
L 687.028405 301.915298 
L 690.103846 298.55854 
L 693.179287 302.910087 
L 696.254728 305.91608 
L 699.330169 306.867857 
L 702.40561 301.139258 
L 705.48105 303.492632 
L 708.556491 300.849557 
L 711.631932 304.049101 
L 714.707373 300.257111 
L 717.782814 302.172958 
L 723.933696 291.201807 
L 727.009137 296.31863 
L 730.084578 301.926159 
L 733.160018 293.304404 
L 736.235459 300.952855 
L 739.3109 288.366308 
L 742.386341 292.775456 
L 745.461782 290.373618 
L 748.537223 291.811288 
L 751.612664 291.619962 
L 754.688105 280.522054 
L 757.763546 288.067596 
L 760.838986 289.537405 
L 763.914427 285.571319 
L 766.989868 289.809194 
L 770.065309 278.593386 
L 773.14075 277.517215 
L 776.216191 284.53093 
L 779.291632 279.267282 
L 782.367073 283.042055 
L 785.442514 276.29892 
L 788.517954 281.938934 
L 791.593395 282.424953 
L 794.668836 276.845725 
L 797.744277 274.863099 
L 800.819718 269.310682 
L 803.895159 287.201984 
L 806.9706 271.35565 
L 810.046041 287.002426 
L 813.121482 282.505458 
L 816.196922 286.409048 
L 819.272363 287.82145 
L 822.347804 285.270646 
L 825.423245 289.317918 
L 828.498686 298.425636 
L 831.574127 299.008973 
L 834.649568 306.67642 
L 837.725009 312.746674 
L 840.80045 322.413434 
L 843.87589 318.230191 
L 846.951331 333.599225 
L 850.026772 336.700033 
L 853.102213 344.707578 
L 856.177654 342.809128 
L 859.253095 343.374081 
L 862.328536 355.458032 
L 865.403977 370.356093 
L 868.479418 362.356698 
L 871.554858 377.971651 
L 874.630299 368.028989 
L 877.70574 380.77835 
L 880.781181 382.081127 
L 883.856622 380.395948 
L 886.932063 382.851994 
L 890.007504 386.367675 
L 893.082945 387.23814 
L 896.158386 399.603114 
L 899.233827 400.08421 
L 902.309267 409.239057 
L 905.384708 405.628575 
L 908.460149 403.747843 
L 911.53559 399.182887 
L 914.611031 398.80691 
L 917.686472 400.501545 
L 920.761913 404.302672 
L 923.837354 410.106964 
L 926.912795 407.1895 
L 929.988235 406.209604 
L 933.063676 401.703639 
L 936.139117 413.834539 
L 939.214558 408.101309 
L 942.289999 412.270666 
L 945.36544 403.319689 
L 948.440881 413.203808 
L 951.516322 413.59899 
L 954.591763 408.121835 
L 957.667203 417.850145 
L 960.742644 398.423896 
L 963.818085 402.034003 
L 966.893526 402.634778 
L 969.968967 401.642548 
L 973.044408 401.994286 
L 976.119849 406.500195 
L 979.19529 397.656145 
L 982.270731 394.384718 
L 985.346171 397.645979 
L 988.421612 389.14015 
L 988.421612 389.14015 
" clip-path="url(#pa6837ca283)" style="fill: none; stroke: #ff7f0e; stroke-width: 1.5; stroke-linecap: square"/>
   </g>
   <g id="line2d_28">
    <path d="M 548.633565 425.788125 
L 548.633565 261.859375 
" clip-path="url(#pa6837ca283)" style="fill: none; stroke-dasharray: 7.4,3.2; stroke-dashoffset: 0; stroke: #0000ff; stroke-width: 2"/>
   </g>
   <g id="patch_9">
    <path d="M 61.6375 425.788125 
L 61.6375 261.859375 
" style="fill: none; stroke: #000000; stroke-width: 0.8; stroke-linejoin: miter; stroke-linecap: square"/>
   </g>
   <g id="patch_10">
    <path d="M 1032.554189 425.788125 
L 1032.554189 261.859375 
" style="fill: none; stroke: #000000; stroke-width: 0.8; stroke-linejoin: miter; stroke-linecap: square"/>
   </g>
   <g id="patch_11">
    <path d="M 61.6375 425.788125 
L 1032.554189 425.788125 
" style="fill: none; stroke: #000000; stroke-width: 0.8; stroke-linejoin: miter; stroke-linecap: square"/>
   </g>
   <g id="patch_12">
    <path d="M 61.6375 261.859375 
L 1032.554189 261.859375 
" style="fill: none; stroke: #000000; stroke-width: 0.8; stroke-linejoin: miter; stroke-linecap: square"/>
   </g>
   <g id="text_26">
    <!-- 云函数ID: 72 -->
    <g transform="translate(487.095845 255.859375) scale(0.2 -0.2)">
     <defs>
      <path id="SimSun-37" d="M 2825 4200 
Q 2300 3350 1987 2537 
Q 1675 1725 1675 1125 
Q 1675 1025 1700 850 
Q 1700 650 1700 400 
Q 1700 200 1637 125 
Q 1575 50 1425 50 
Q 1300 50 1212 137 
Q 1125 225 1125 450 
Q 1125 925 1337 1625 
Q 1550 2325 2475 4000 
L 1225 4000 
Q 950 4000 787 3825 
Q 625 3650 550 3300 
L 400 3325 
L 575 4375 
L 2825 4375 
L 2825 4200 
z
" transform="scale(0.015625)"/>
     </defs>
     <use xlink:href="#SimSun-4e91"/>
     <use xlink:href="#SimSun-51fd" x="100"/>
     <use xlink:href="#SimSun-6570" x="200"/>
     <use xlink:href="#SimSun-49" x="300"/>
     <use xlink:href="#SimSun-44" x="350"/>
     <use xlink:href="#SimSun-3a" x="400"/>
     <use xlink:href="#SimSun-20" x="450"/>
     <use xlink:href="#SimSun-37" x="500"/>
     <use xlink:href="#SimSun-32" x="550"/>
    </g>
   </g>
  </g>
  <g id="axes_3">
   <g id="patch_13">
    <path d="M 61.6375 658.588125 
L 1032.554189 658.588125 
L 1032.554189 494.659375 
L 61.6375 494.659375 
z
" style="fill: #ffffff"/>
   </g>
   <g id="matplotlib.axis_5">
    <g id="xtick_15">
     <g id="line2d_29">
      <g>
       <use xlink:href="#m7e45b2488f" x="105.770077" y="658.588125" style="stroke: #000000; stroke-width: 0.8"/>
      </g>
     </g>
     <g id="text_27">
      <!-- 0 -->
      <g transform="translate(100.770077 679.475625) scale(0.2 -0.2)">
       <use xlink:href="#TimesNewRomanPSMT-30"/>
      </g>
     </g>
    </g>
    <g id="xtick_16">
     <g id="line2d_30">
      <g>
       <use xlink:href="#m7e45b2488f" x="259.542121" y="658.588125" style="stroke: #000000; stroke-width: 0.8"/>
      </g>
     </g>
     <g id="text_28">
      <!-- 50 -->
      <g transform="translate(249.542121 679.475625) scale(0.2 -0.2)">
       <use xlink:href="#TimesNewRomanPSMT-35"/>
       <use xlink:href="#TimesNewRomanPSMT-30" x="50"/>
      </g>
     </g>
    </g>
    <g id="xtick_17">
     <g id="line2d_31">
      <g>
       <use xlink:href="#m7e45b2488f" x="413.314166" y="658.588125" style="stroke: #000000; stroke-width: 0.8"/>
      </g>
     </g>
     <g id="text_29">
      <!-- 100 -->
      <g transform="translate(398.314166 679.475625) scale(0.2 -0.2)">
       <use xlink:href="#TimesNewRomanPSMT-31"/>
       <use xlink:href="#TimesNewRomanPSMT-30" x="50"/>
       <use xlink:href="#TimesNewRomanPSMT-30" x="100"/>
      </g>
     </g>
    </g>
    <g id="xtick_18">
     <g id="line2d_32">
      <g>
       <use xlink:href="#m7e45b2488f" x="567.08621" y="658.588125" style="stroke: #000000; stroke-width: 0.8"/>
      </g>
     </g>
     <g id="text_30">
      <!-- 150 -->
      <g transform="translate(552.08621 679.475625) scale(0.2 -0.2)">
       <use xlink:href="#TimesNewRomanPSMT-31"/>
       <use xlink:href="#TimesNewRomanPSMT-35" x="50"/>
       <use xlink:href="#TimesNewRomanPSMT-30" x="100"/>
      </g>
     </g>
    </g>
    <g id="xtick_19">
     <g id="line2d_33">
      <g>
       <use xlink:href="#m7e45b2488f" x="720.858255" y="658.588125" style="stroke: #000000; stroke-width: 0.8"/>
      </g>
     </g>
     <g id="text_31">
      <!-- 200 -->
      <g transform="translate(705.858255 679.475625) scale(0.2 -0.2)">
       <use xlink:href="#TimesNewRomanPSMT-32"/>
       <use xlink:href="#TimesNewRomanPSMT-30" x="50"/>
       <use xlink:href="#TimesNewRomanPSMT-30" x="100"/>
      </g>
     </g>
    </g>
    <g id="xtick_20">
     <g id="line2d_34">
      <g>
       <use xlink:href="#m7e45b2488f" x="874.630299" y="658.588125" style="stroke: #000000; stroke-width: 0.8"/>
      </g>
     </g>
     <g id="text_32">
      <!-- 250 -->
      <g transform="translate(859.630299 679.475625) scale(0.2 -0.2)">
       <use xlink:href="#TimesNewRomanPSMT-32"/>
       <use xlink:href="#TimesNewRomanPSMT-35" x="50"/>
       <use xlink:href="#TimesNewRomanPSMT-30" x="100"/>
      </g>
     </g>
    </g>
    <g id="xtick_21">
     <g id="line2d_35">
      <g>
       <use xlink:href="#m7e45b2488f" x="1028.402344" y="658.588125" style="stroke: #000000; stroke-width: 0.8"/>
      </g>
     </g>
     <g id="text_33">
      <!-- 300 -->
      <g transform="translate(1013.402344 679.475625) scale(0.2 -0.2)">
       <use xlink:href="#TimesNewRomanPSMT-33"/>
       <use xlink:href="#TimesNewRomanPSMT-30" x="50"/>
       <use xlink:href="#TimesNewRomanPSMT-30" x="100"/>
      </g>
     </g>
    </g>
   </g>
   <g id="matplotlib.axis_6">
    <g id="ytick_7">
     <g id="line2d_36">
      <g>
       <use xlink:href="#ma7fa22cf76" x="61.6375" y="614.315099" style="stroke: #000000; stroke-width: 0.8"/>
      </g>
     </g>
     <g id="text_34">
      <!-- 1.0 -->
      <g transform="translate(29.6375 621.258849) scale(0.2 -0.2)">
       <use xlink:href="#TimesNewRomanPSMT-31"/>
       <use xlink:href="#TimesNewRomanPSMT-2e" x="50"/>
       <use xlink:href="#TimesNewRomanPSMT-30" x="75"/>
      </g>
     </g>
    </g>
    <g id="ytick_8">
     <g id="line2d_37">
      <g>
       <use xlink:href="#ma7fa22cf76" x="61.6375" y="558.812321" style="stroke: #000000; stroke-width: 0.8"/>
      </g>
     </g>
     <g id="text_35">
      <!-- 2.0 -->
      <g transform="translate(29.6375 565.756071) scale(0.2 -0.2)">
       <use xlink:href="#TimesNewRomanPSMT-32"/>
       <use xlink:href="#TimesNewRomanPSMT-2e" x="50"/>
       <use xlink:href="#TimesNewRomanPSMT-30" x="75"/>
      </g>
     </g>
    </g>
    <g id="ytick_9">
     <g id="line2d_38">
      <g>
       <use xlink:href="#ma7fa22cf76" x="61.6375" y="503.309542" style="stroke: #000000; stroke-width: 0.8"/>
      </g>
     </g>
     <g id="text_36">
      <!-- 3.0 -->
      <g transform="translate(29.6375 510.253292) scale(0.2 -0.2)">
       <use xlink:href="#TimesNewRomanPSMT-33"/>
       <use xlink:href="#TimesNewRomanPSMT-2e" x="50"/>
       <use xlink:href="#TimesNewRomanPSMT-30" x="75"/>
      </g>
     </g>
    </g>
    <g id="text_37">
     <!-- CPU使用率 -->
     <g transform="translate(23.059375 621.62375) rotate(-90) scale(0.2 -0.2)">
      <use xlink:href="#SimSun-43"/>
      <use xlink:href="#SimSun-50" x="50"/>
      <use xlink:href="#SimSun-55" x="100"/>
      <use xlink:href="#SimSun-4f7f" x="150"/>
      <use xlink:href="#SimSun-7528" x="250"/>
      <use xlink:href="#SimSun-7387" x="350"/>
     </g>
    </g>
   </g>
   <g id="line2d_39">
    <path d="M 105.770077 526.620713 
L 108.845518 521.026031 
L 111.920959 514.898527 
L 114.996399 517.562652 
L 118.07184 523.690157 
L 121.147281 523.290537 
L 124.222722 524.755815 
L 127.298163 523.556955 
L 130.373604 518.761513 
L 133.449045 518.22869 
L 136.524486 518.761513 
L 139.599927 517.163032 
L 142.675367 518.761513 
L 145.750808 517.42945 
L 148.826249 507.838566 
L 151.90169 520.493196 
L 154.977131 520.226791 
L 158.052572 523.157334 
L 161.128013 524.889017 
L 164.203454 527.020334 
L 167.278895 524.622613 
L 170.354335 536.078382 
L 173.429776 541.539861 
L 176.505217 547.933784 
L 179.580658 553.928073 
L 182.656099 552.462808 
L 185.73154 577.106035 
L 188.806981 564.451406 
L 191.882422 573.376252 
L 194.957863 580.302996 
L 198.033303 589.49426 
L 201.108744 591.359152 
L 204.184185 581.235446 
L 207.259626 594.955733 
L 210.335067 602.148889 
L 213.410508 606.811122 
L 216.485949 614.004278 
L 219.56139 619.998584 
L 222.636831 616.135591 
L 225.712272 618.266898 
L 231.863153 624.394406 
L 234.938594 627.191747 
L 238.014035 628.523809 
L 241.089476 633.85208 
L 244.164917 638.381104 
L 247.240358 640.912028 
L 250.315799 641.844477 
L 253.39124 643.043342 
L 259.542121 640.645623 
L 262.617562 646.639917 
L 268.768444 647.705575 
L 271.843885 648.105189 
L 274.919326 648.238398 
L 277.994767 641.178445 
L 281.070208 643.975778 
L 284.145648 644.641823 
L 287.221089 643.709374 
L 290.29653 642.910133 
L 293.371971 641.444863 
L 296.447412 635.850181 
L 299.522853 636.649421 
L 302.598294 633.585669 
L 305.673735 628.257398 
L 308.749176 626.658918 
L 311.824616 622.662716 
L 314.900057 603.214541 
L 317.975498 613.871076 
L 321.050939 609.741672 
L 324.12638 603.081339 
L 327.201821 598.818726 
L 330.277262 593.756873 
L 333.352703 576.839624 
L 336.428144 575.507555 
L 339.503584 570.845322 
L 342.579025 572.577011 
L 345.654466 570.978531 
L 348.729907 565.916678 
L 351.805348 555.659769 
L 354.880789 553.528453 
L 357.95623 557.25825 
L 361.031671 555.393351 
L 364.107112 554.860529 
L 367.182552 551.929972 
L 370.257993 539.808165 
L 373.333434 541.273444 
L 376.408875 549.931871 
L 379.484316 549.532251 
L 382.559757 549.532251 
L 385.635198 545.802468 
L 388.710639 539.941381 
L 391.78608 544.337203 
L 394.86152 549.665467 
L 397.936961 546.734923 
L 401.012402 543.005127 
L 404.087843 545.669265 
L 407.163284 558.989933 
L 410.238725 531.28294 
L 413.314166 546.068885 
L 416.389607 545.669265 
L 419.465048 547.534164 
L 422.540488 550.597909 
L 425.615929 546.601708 
L 428.69137 550.731112 
L 431.766811 552.19639 
L 434.842252 548.733011 
L 437.917693 550.331492 
L 440.993134 553.39525 
L 444.068575 547.134544 
L 447.144016 547.001328 
L 450.219457 550.464707 
L 453.294897 552.462808 
L 456.370338 554.727313 
L 459.445779 552.99563 
L 462.52122 550.198289 
L 465.596661 551.39715 
L 468.672102 552.729212 
L 471.747543 548.999429 
L 474.822984 546.868126 
L 477.898425 540.341001 
L 480.973865 544.337203 
L 484.049306 545.802468 
L 487.124747 547.800568 
L 490.200188 544.203987 
L 493.275629 545.935683 
L 496.35107 541.273444 
L 499.426511 535.145939 
L 502.501952 533.147838 
L 505.577393 529.418055 
L 508.652833 519.960373 
L 511.728274 522.091676 
L 514.803715 524.622613 
L 517.879156 523.423752 
L 520.954597 522.358094 
L 524.030038 526.620713 
L 527.105479 523.823372 
L 530.18092 526.620713 
L 533.256361 526.354296 
L 536.331801 523.556955 
L 539.407242 525.688258 
L 542.482683 526.887118 
L 545.558124 524.222993 
L 548.633565 526.753916 
L 551.709006 526.221093 
L 554.784447 519.161133 
L 557.859888 523.690157 
L 560.935329 526.487498 
L 564.010769 527.153536 
L 567.08621 527.286738 
L 570.161651 525.155435 
L 573.237092 521.425651 
L 576.312533 518.761513 
L 579.387974 519.693955 
L 582.463415 520.493196 
L 585.538856 520.493196 
L 588.614297 519.294335 
L 591.689737 505.041225 
L 594.765178 521.425651 
L 597.840619 523.823372 
L 600.91606 524.222993 
L 603.991501 531.149737 
L 607.066942 533.014636 
L 610.142383 534.213483 
L 613.217824 541.539861 
L 616.293265 548.066986 
L 619.368705 552.19639 
L 622.444146 559.789173 
L 625.519587 564.318197 
L 628.595028 589.09464 
L 631.670469 575.640764 
L 634.74591 583.766369 
L 637.821351 590.426703 
L 640.896792 595.754967 
L 643.972233 602.548509 
L 647.047673 607.610363 
L 650.123114 612.938627 
L 653.198555 619.199344 
L 656.273996 620.931033 
L 659.349437 625.992886 
L 662.424878 628.92343 
L 665.500319 627.458158 
L 668.57576 629.189847 
L 674.726642 633.186042 
L 677.802082 635.716972 
L 680.877523 636.516213 
L 683.952964 641.045237 
L 687.028405 643.975778 
L 690.103846 645.574259 
L 693.179287 645.840677 
L 696.254728 647.039544 
L 699.330169 647.439157 
L 702.40561 644.775019 
L 705.48105 649.836878 
L 708.556491 649.970087 
L 711.631932 649.57046 
L 714.707373 649.970087 
L 717.782814 649.836878 
L 720.858255 647.838771 
L 723.933696 647.705575 
L 727.009137 646.506708 
L 730.084578 644.242196 
L 733.160018 642.244102 
L 736.235459 639.313554 
L 739.3109 629.989088 
L 742.386341 628.257398 
L 745.461782 623.328748 
L 748.537223 613.338247 
L 751.612664 608.942432 
L 754.688105 602.681718 
L 757.763546 577.905276 
L 760.838986 584.965229 
L 763.914427 578.837725 
L 766.989868 572.177391 
L 770.065309 568.447601 
L 773.14075 560.588407 
L 776.216191 544.870025 
L 779.291632 546.068885 
L 782.367073 542.605506 
L 785.442514 543.671165 
L 788.517954 547.134544 
L 794.668836 537.94328 
L 797.744277 538.076482 
L 800.819718 535.012723 
L 803.895159 538.875723 
L 806.9706 545.136443 
L 810.046041 540.873823 
L 813.121482 527.286738 
L 816.196922 533.147838 
L 819.272363 541.539861 
L 822.347804 541.806266 
L 825.423245 538.3429 
L 828.498686 544.470405 
L 831.574127 538.875723 
L 834.649568 541.273444 
L 837.725009 541.007026 
L 840.80045 545.402847 
L 843.87589 544.203987 
L 846.951331 542.871924 
L 850.026772 552.862428 
L 853.102213 526.620713 
L 856.177654 532.615016 
L 859.253095 537.94328 
L 862.328536 541.273444 
L 865.403977 542.605506 
L 868.479418 537.277242 
L 871.554858 546.601708 
L 874.630299 548.200188 
L 877.70574 546.202088 
L 880.781181 549.665467 
L 883.856622 548.599809 
L 886.932063 533.680661 
L 890.007504 545.402847 
L 893.082945 537.676862 
L 896.158386 537.410444 
L 899.233827 547.667366 
L 902.309267 546.068885 
L 905.384708 538.076482 
L 908.460149 545.003227 
L 911.53559 547.667366 
L 914.611031 544.870025 
L 917.686472 546.068885 
L 920.761913 545.802468 
L 923.837354 542.472304 
L 926.912795 542.205886 
L 929.988235 540.873823 
L 933.063676 535.412344 
L 936.139117 542.072684 
L 939.214558 531.948978 
L 942.289999 529.950877 
L 945.36544 526.620713 
L 948.440881 527.952776 
L 951.516322 519.693955 
L 954.591763 518.761513 
L 957.667203 520.226791 
L 960.742644 512.101186 
L 963.818085 508.104984 
L 966.893526 506.506504 
L 969.968967 503.442745 
L 973.044408 503.17634 
L 976.119849 502.110682 
L 979.19529 509.037427 
L 982.270731 512.500806 
L 985.346171 509.836667 
L 988.421612 514.765311 
L 988.421612 514.765311 
" clip-path="url(#p11644e4eae)" style="fill: none; stroke: #1f77b4; stroke-width: 1.5; stroke-linecap: square"/>
   </g>
   <g id="line2d_40">
    <path d="M 548.633565 521.723325 
L 551.709006 524.763397 
L 554.784447 513.291207 
L 557.859888 519.058935 
L 560.935329 519.891139 
L 564.010769 522.320301 
L 567.08621 522.794158 
L 570.161651 514.771478 
L 573.237092 511.879402 
L 576.312533 520.818473 
L 579.387974 521.415978 
L 582.463415 518.819976 
L 585.538856 519.622551 
L 588.614297 524.370089 
L 591.689737 514.68242 
L 594.765178 517.676389 
L 597.840619 520.447939 
L 600.91606 526.027946 
L 603.991501 528.098748 
L 607.066942 532.426288 
L 610.142383 527.896192 
L 613.217824 542.100513 
L 616.293265 538.13914 
L 619.368705 553.311367 
L 622.444146 560.60023 
L 625.519587 562.539385 
L 628.595028 571.273565 
L 631.670469 570.079733 
L 634.74591 578.663421 
L 637.821351 584.888856 
L 640.896792 590.636212 
L 643.972233 582.161808 
L 647.047673 595.065268 
L 650.123114 602.379744 
L 653.198555 602.446418 
L 656.273996 611.691036 
L 659.349437 615.32029 
L 662.424878 623.368956 
L 665.500319 622.967589 
L 668.57576 622.913261 
L 674.726642 626.820756 
L 677.802082 635.709482 
L 680.877523 630.647146 
L 683.952964 637.16645 
L 687.028405 634.370671 
L 690.103846 643.126346 
L 693.179287 640.250052 
L 696.254728 644.934733 
L 699.330169 642.279202 
L 702.40561 641.656318 
L 705.48105 644.989464 
L 708.556491 641.085769 
L 711.631932 651.136818 
L 714.707373 650.622337 
L 717.782814 649.331276 
L 720.858255 642.326477 
L 723.933696 643.775889 
L 727.009137 647.044817 
L 730.084578 643.17542 
L 733.160018 641.544236 
L 736.235459 631.787954 
L 739.3109 640.285721 
L 742.386341 624.740512 
L 745.461782 623.143897 
L 748.537223 623.44353 
L 751.612664 623.408727 
L 754.688105 618.451358 
L 757.763546 609.15396 
L 760.838986 606.010009 
L 763.914427 612.915906 
L 766.989868 602.031203 
L 770.065309 599.74432 
L 773.14075 591.687579 
L 776.216191 578.123407 
L 779.291632 578.320762 
L 782.367073 576.828039 
L 785.442514 578.107732 
L 788.517954 570.163232 
L 791.593395 559.005375 
L 794.668836 555.904353 
L 797.744277 555.656712 
L 800.819718 559.788822 
L 803.895159 555.445462 
L 806.9706 556.546558 
L 810.046041 554.76422 
L 813.121482 540.817293 
L 816.196922 549.027416 
L 819.272363 549.912763 
L 822.347804 547.829218 
L 825.423245 546.666589 
L 828.498686 540.091601 
L 831.574127 543.045963 
L 834.649568 544.36875 
L 837.725009 546.428291 
L 840.80045 539.695223 
L 843.87589 545.749298 
L 846.951331 543.780998 
L 850.026772 547.480293 
L 853.102213 540.121401 
L 856.177654 539.380346 
L 859.253095 550.182053 
L 862.328536 553.11339 
L 865.403977 548.283926 
L 868.479418 544.387567 
L 871.554858 543.843893 
L 874.630299 549.47621 
L 877.70574 549.005622 
L 880.781181 550.131834 
L 883.856622 551.121813 
L 886.932063 549.274435 
L 890.007504 551.973429 
L 893.082945 553.837004 
L 896.158386 553.323608 
L 899.233827 555.409734 
L 902.309267 550.518128 
L 905.384708 556.005134 
L 908.460149 555.010457 
L 911.53559 559.614247 
L 914.611031 561.881274 
L 917.686472 558.537169 
L 920.761913 547.87372 
L 923.837354 551.471823 
L 926.912795 551.712887 
L 929.988235 556.433642 
L 933.063676 558.639645 
L 936.139117 549.461707 
L 939.214558 549.431298 
L 942.289999 545.54301 
L 945.36544 544.376809 
L 948.440881 541.957121 
L 951.516322 535.870334 
L 954.591763 537.811732 
L 957.667203 533.473116 
L 960.742644 543.326104 
L 963.818085 533.40007 
L 966.893526 536.410699 
L 969.968967 529.729133 
L 973.044408 535.934209 
L 976.119849 530.67076 
L 979.19529 530.944681 
L 982.270731 533.432385 
L 985.346171 529.813295 
L 988.421612 535.415281 
L 988.421612 535.415281 
" clip-path="url(#p11644e4eae)" style="fill: none; stroke: #ff7f0e; stroke-width: 1.5; stroke-linecap: square"/>
   </g>
   <g id="line2d_41">
    <path d="M 548.633565 658.588125 
L 548.633565 494.659375 
" clip-path="url(#p11644e4eae)" style="fill: none; stroke-dasharray: 7.4,3.2; stroke-dashoffset: 0; stroke: #0000ff; stroke-width: 2"/>
   </g>
   <g id="patch_14">
    <path d="M 61.6375 658.588125 
L 61.6375 494.659375 
" style="fill: none; stroke: #000000; stroke-width: 0.8; stroke-linejoin: miter; stroke-linecap: square"/>
   </g>
   <g id="patch_15">
    <path d="M 1032.554189 658.588125 
L 1032.554189 494.659375 
" style="fill: none; stroke: #000000; stroke-width: 0.8; stroke-linejoin: miter; stroke-linecap: square"/>
   </g>
   <g id="patch_16">
    <path d="M 61.6375 658.588125 
L 1032.554189 658.588125 
" style="fill: none; stroke: #000000; stroke-width: 0.8; stroke-linejoin: miter; stroke-linecap: square"/>
   </g>
   <g id="patch_17">
    <path d="M 61.6375 494.659375 
L 1032.554189 494.659375 
" style="fill: none; stroke: #000000; stroke-width: 0.8; stroke-linejoin: miter; stroke-linecap: square"/>
   </g>
   <g id="text_38">
    <!-- 云函数ID: 150 -->
    <g transform="translate(482.095845 488.659375) scale(0.2 -0.2)">
     <defs>
      <path id="SimSun-31" d="M 1825 4450 
L 1825 650 
Q 1825 450 1950 350 
Q 2075 250 2300 250 
L 2550 250 
L 2550 100 
L 725 100 
L 725 250 
L 950 250 
Q 1200 250 1312 350 
Q 1425 450 1425 650 
L 1425 3675 
Q 1425 3775 1362 3837 
Q 1300 3900 1175 3900 
L 725 3900 
L 725 4050 
L 950 4050 
Q 1250 4050 1437 4150 
Q 1625 4250 1725 4450 
L 1825 4450 
z
" transform="scale(0.015625)"/>
      <path id="SimSun-35" d="M 1725 2850 
Q 2200 2850 2500 2487 
Q 2800 2125 2800 1525 
Q 2800 850 2487 450 
Q 2175 50 1525 50 
Q 1075 50 725 312 
Q 375 575 375 950 
Q 375 1100 462 1212 
Q 550 1325 700 1325 
Q 850 1325 900 1225 
Q 950 1125 950 1050 
Q 950 900 875 825 
Q 800 725 800 625 
Q 800 425 1037 325 
Q 1275 225 1550 225 
Q 1950 225 2162 550 
Q 2375 875 2375 1475 
Q 2375 1975 2187 2287 
Q 2000 2600 1625 2600 
Q 1350 2600 1150 2500 
Q 950 2400 775 2075 
L 550 2100 
L 675 4375 
L 2725 4375 
L 2650 4000 
L 850 4000 
L 750 2350 
Q 1000 2700 1237 2775 
Q 1475 2850 1725 2850 
z
" transform="scale(0.015625)"/>
      <path id="SimSun-30" d="M 1600 4225 
Q 1250 4225 1012 3687 
Q 775 3150 775 2250 
Q 775 1300 1012 775 
Q 1250 250 1600 250 
Q 1975 250 2187 775 
Q 2400 1300 2400 2250 
Q 2400 3150 2200 3687 
Q 2000 4225 1600 4225 
z
M 1600 50 
Q 1050 50 675 625 
Q 300 1200 300 2250 
Q 300 3225 662 3825 
Q 1025 4425 1600 4425 
Q 2150 4425 2512 3850 
Q 2875 3275 2875 2250 
Q 2875 1225 2512 637 
Q 2150 50 1600 50 
z
" transform="scale(0.015625)"/>
     </defs>
     <use xlink:href="#SimSun-4e91"/>
     <use xlink:href="#SimSun-51fd" x="100"/>
     <use xlink:href="#SimSun-6570" x="200"/>
     <use xlink:href="#SimSun-49" x="300"/>
     <use xlink:href="#SimSun-44" x="350"/>
     <use xlink:href="#SimSun-3a" x="400"/>
     <use xlink:href="#SimSun-20" x="450"/>
     <use xlink:href="#SimSun-31" x="500"/>
     <use xlink:href="#SimSun-35" x="550"/>
     <use xlink:href="#SimSun-30" x="600"/>
    </g>
   </g>
  </g>
 </g>
 <defs>
  <clipPath id="pc2510587ff">
   <rect x="61.6375" y="29.059375" width="970.916689" height="163.92875"/>
  </clipPath>
  <clipPath id="pa6837ca283">
   <rect x="61.6375" y="261.859375" width="970.916689" height="163.92875"/>
  </clipPath>
  <clipPath id="p11644e4eae">
   <rect x="61.6375" y="494.659375" width="970.916689" height="163.92875"/>
  </clipPath>
 </defs>
</svg>
