<?xml version="1.0" encoding="utf-8" standalone="no"?>
<!DOCTYPE svg PUBLIC "-//W3C//DTD SVG 1.1//EN"
  "http://www.w3.org/Graphics/SVG/1.1/DTD/svg11.dtd">
<svg xmlns:xlink="http://www.w3.org/1999/xlink" width="1050.557536pt" height="691.4825pt" viewBox="0 0 1050.557536 691.4825" xmlns="http://www.w3.org/2000/svg" version="1.1">
 <metadata>
  <rdf:RDF xmlns:dc="http://purl.org/dc/elements/1.1/" xmlns:cc="http://creativecommons.org/ns#" xmlns:rdf="http://www.w3.org/1999/02/22-rdf-syntax-ns#">
   <cc:Work>
    <dc:type rdf:resource="http://purl.org/dc/dcmitype/StillImage"/>
    <dc:date>2024-02-22T19:37:02.421972</dc:date>
    <dc:format>image/svg+xml</dc:format>
    <dc:creator>
     <cc:Agent>
      <dc:title>Matplotlib v3.7.4, https://matplotlib.org/</dc:title>
     </cc:Agent>
    </dc:creator>
   </cc:Work>
  </rdf:RDF>
 </metadata>
 <defs>
  <style type="text/css">*{stroke-linejoin: round; stroke-linecap: butt}</style>
 </defs>
 <g id="figure_1">
  <g id="patch_1">
   <path d="M 0 691.4825 
L 1050.557536 691.4825 
L 1050.557536 0 
L 0 0 
z
" style="fill: #ffffff"/>
  </g>
  <g id="axes_1">
   <g id="patch_2">
    <path d="M 61.6375 193.516875 
L 1032.509189 193.516875 
L 1032.509189 29.059375 
L 61.6375 29.059375 
z
" style="fill: #ffffff"/>
   </g>
   <g id="matplotlib.axis_1">
    <g id="xtick_1">
     <g id="line2d_1">
      <defs>
       <path id="mabba566e24" d="M 0 0 
L 0 3.5 
" style="stroke: #000000; stroke-width: 0.8"/>
      </defs>
      <g>
       <use xlink:href="#mabba566e24" x="105.768031" y="193.516875" style="stroke: #000000; stroke-width: 0.8"/>
      </g>
     </g>
     <g id="text_1">
      <!-- 0 -->
      <g transform="translate(100.768031 214.404375) scale(0.2 -0.2)">
       <defs>
        <path id="TimesNewRomanPSMT-30" d="M 231 2094 
Q 231 2819 450 3342 
Q 669 3866 1031 4122 
Q 1313 4325 1613 4325 
Q 2100 4325 2488 3828 
Q 2972 3213 2972 2159 
Q 2972 1422 2759 906 
Q 2547 391 2217 158 
Q 1888 -75 1581 -75 
Q 975 -75 572 641 
Q 231 1244 231 2094 
z
M 844 2016 
Q 844 1141 1059 588 
Q 1238 122 1591 122 
Q 1759 122 1940 273 
Q 2122 425 2216 781 
Q 2359 1319 2359 2297 
Q 2359 3022 2209 3506 
Q 2097 3866 1919 4016 
Q 1791 4119 1609 4119 
Q 1397 4119 1231 3928 
Q 1006 3669 925 3112 
Q 844 2556 844 2016 
z
" transform="scale(0.015625)"/>
       </defs>
       <use xlink:href="#TimesNewRomanPSMT-30"/>
      </g>
     </g>
    </g>
    <g id="xtick_2">
     <g id="line2d_2">
      <g>
       <use xlink:href="#mabba566e24" x="259.532949" y="193.516875" style="stroke: #000000; stroke-width: 0.8"/>
      </g>
     </g>
     <g id="text_2">
      <!-- 50 -->
      <g transform="translate(249.532949 214.404375) scale(0.2 -0.2)">
       <defs>
        <path id="TimesNewRomanPSMT-35" d="M 2778 4238 
L 2534 3706 
L 1259 3706 
L 981 3138 
Q 1809 3016 2294 2522 
Q 2709 2097 2709 1522 
Q 2709 1188 2573 903 
Q 2438 619 2231 419 
Q 2025 219 1772 97 
Q 1413 -75 1034 -75 
Q 653 -75 479 54 
Q 306 184 306 341 
Q 306 428 378 495 
Q 450 563 559 563 
Q 641 563 702 538 
Q 763 513 909 409 
Q 1144 247 1384 247 
Q 1750 247 2026 523 
Q 2303 800 2303 1197 
Q 2303 1581 2056 1914 
Q 1809 2247 1375 2428 
Q 1034 2569 447 2591 
L 1259 4238 
L 2778 4238 
z
" transform="scale(0.015625)"/>
       </defs>
       <use xlink:href="#TimesNewRomanPSMT-35"/>
       <use xlink:href="#TimesNewRomanPSMT-30" x="50"/>
      </g>
     </g>
    </g>
    <g id="xtick_3">
     <g id="line2d_3">
      <g>
       <use xlink:href="#mabba566e24" x="413.297866" y="193.516875" style="stroke: #000000; stroke-width: 0.8"/>
      </g>
     </g>
     <g id="text_3">
      <!-- 100 -->
      <g transform="translate(398.297866 214.404375) scale(0.2 -0.2)">
       <defs>
        <path id="TimesNewRomanPSMT-31" d="M 750 3822 
L 1781 4325 
L 1884 4325 
L 1884 747 
Q 1884 391 1914 303 
Q 1944 216 2037 169 
Q 2131 122 2419 116 
L 2419 0 
L 825 0 
L 825 116 
Q 1125 122 1212 167 
Q 1300 213 1334 289 
Q 1369 366 1369 747 
L 1369 3034 
Q 1369 3497 1338 3628 
Q 1316 3728 1258 3775 
Q 1200 3822 1119 3822 
Q 1003 3822 797 3725 
L 750 3822 
z
" transform="scale(0.015625)"/>
       </defs>
       <use xlink:href="#TimesNewRomanPSMT-31"/>
       <use xlink:href="#TimesNewRomanPSMT-30" x="50"/>
       <use xlink:href="#TimesNewRomanPSMT-30" x="100"/>
      </g>
     </g>
    </g>
    <g id="xtick_4">
     <g id="line2d_4">
      <g>
       <use xlink:href="#mabba566e24" x="567.062784" y="193.516875" style="stroke: #000000; stroke-width: 0.8"/>
      </g>
     </g>
     <g id="text_4">
      <!-- 150 -->
      <g transform="translate(552.062784 214.404375) scale(0.2 -0.2)">
       <use xlink:href="#TimesNewRomanPSMT-31"/>
       <use xlink:href="#TimesNewRomanPSMT-35" x="50"/>
       <use xlink:href="#TimesNewRomanPSMT-30" x="100"/>
      </g>
     </g>
    </g>
    <g id="xtick_5">
     <g id="line2d_5">
      <g>
       <use xlink:href="#mabba566e24" x="720.827701" y="193.516875" style="stroke: #000000; stroke-width: 0.8"/>
      </g>
     </g>
     <g id="text_5">
      <!-- 200 -->
      <g transform="translate(705.827701 214.404375) scale(0.2 -0.2)">
       <defs>
        <path id="TimesNewRomanPSMT-32" d="M 2934 816 
L 2638 0 
L 138 0 
L 138 116 
Q 1241 1122 1691 1759 
Q 2141 2397 2141 2925 
Q 2141 3328 1894 3587 
Q 1647 3847 1303 3847 
Q 991 3847 742 3664 
Q 494 3481 375 3128 
L 259 3128 
Q 338 3706 661 4015 
Q 984 4325 1469 4325 
Q 1984 4325 2329 3994 
Q 2675 3663 2675 3213 
Q 2675 2891 2525 2569 
Q 2294 2063 1775 1497 
Q 997 647 803 472 
L 1909 472 
Q 2247 472 2383 497 
Q 2519 522 2628 598 
Q 2738 675 2819 816 
L 2934 816 
z
" transform="scale(0.015625)"/>
       </defs>
       <use xlink:href="#TimesNewRomanPSMT-32"/>
       <use xlink:href="#TimesNewRomanPSMT-30" x="50"/>
       <use xlink:href="#TimesNewRomanPSMT-30" x="100"/>
      </g>
     </g>
    </g>
    <g id="xtick_6">
     <g id="line2d_6">
      <g>
       <use xlink:href="#mabba566e24" x="874.592619" y="193.516875" style="stroke: #000000; stroke-width: 0.8"/>
      </g>
     </g>
     <g id="text_6">
      <!-- 250 -->
      <g transform="translate(859.592619 214.404375) scale(0.2 -0.2)">
       <use xlink:href="#TimesNewRomanPSMT-32"/>
       <use xlink:href="#TimesNewRomanPSMT-35" x="50"/>
       <use xlink:href="#TimesNewRomanPSMT-30" x="100"/>
      </g>
     </g>
    </g>
    <g id="xtick_7">
     <g id="line2d_7">
      <g>
       <use xlink:href="#mabba566e24" x="1028.357536" y="193.516875" style="stroke: #000000; stroke-width: 0.8"/>
      </g>
     </g>
     <g id="text_7">
      <!-- 300 -->
      <g transform="translate(1013.357536 214.404375) scale(0.2 -0.2)">
       <defs>
        <path id="TimesNewRomanPSMT-33" d="M 325 3431 
Q 506 3859 782 4092 
Q 1059 4325 1472 4325 
Q 1981 4325 2253 3994 
Q 2459 3747 2459 3466 
Q 2459 3003 1878 2509 
Q 2269 2356 2469 2072 
Q 2669 1788 2669 1403 
Q 2669 853 2319 450 
Q 1863 -75 997 -75 
Q 569 -75 414 31 
Q 259 138 259 259 
Q 259 350 332 419 
Q 406 488 509 488 
Q 588 488 669 463 
Q 722 447 909 348 
Q 1097 250 1169 231 
Q 1284 197 1416 197 
Q 1734 197 1970 444 
Q 2206 691 2206 1028 
Q 2206 1275 2097 1509 
Q 2016 1684 1919 1775 
Q 1784 1900 1550 2001 
Q 1316 2103 1072 2103 
L 972 2103 
L 972 2197 
Q 1219 2228 1467 2375 
Q 1716 2522 1828 2728 
Q 1941 2934 1941 3181 
Q 1941 3503 1739 3701 
Q 1538 3900 1238 3900 
Q 753 3900 428 3381 
L 325 3431 
z
" transform="scale(0.015625)"/>
       </defs>
       <use xlink:href="#TimesNewRomanPSMT-33"/>
       <use xlink:href="#TimesNewRomanPSMT-30" x="50"/>
       <use xlink:href="#TimesNewRomanPSMT-30" x="100"/>
      </g>
     </g>
    </g>
   </g>
   <g id="matplotlib.axis_2">
    <g id="ytick_1">
     <g id="line2d_8">
      <defs>
       <path id="m7938cfdd79" d="M 0 0 
L -3.5 0 
" style="stroke: #000000; stroke-width: 0.8"/>
      </defs>
      <g>
       <use xlink:href="#m7938cfdd79" x="61.6375" y="191.594733" style="stroke: #000000; stroke-width: 0.8"/>
      </g>
     </g>
     <g id="text_8">
      <!-- 0.0 -->
      <g transform="translate(29.6375 198.538483) scale(0.2 -0.2)">
       <defs>
        <path id="TimesNewRomanPSMT-2e" d="M 800 606 
Q 947 606 1047 504 
Q 1147 403 1147 259 
Q 1147 116 1045 14 
Q 944 -88 800 -88 
Q 656 -88 554 14 
Q 453 116 453 259 
Q 453 406 554 506 
Q 656 606 800 606 
z
" transform="scale(0.015625)"/>
       </defs>
       <use xlink:href="#TimesNewRomanPSMT-30"/>
       <use xlink:href="#TimesNewRomanPSMT-2e" x="50"/>
       <use xlink:href="#TimesNewRomanPSMT-30" x="75"/>
      </g>
     </g>
    </g>
    <g id="ytick_2">
     <g id="line2d_9">
      <g>
       <use xlink:href="#m7938cfdd79" x="61.6375" y="140.46031" style="stroke: #000000; stroke-width: 0.8"/>
      </g>
     </g>
     <g id="text_9">
      <!-- 1.0 -->
      <g transform="translate(29.6375 147.40406) scale(0.2 -0.2)">
       <use xlink:href="#TimesNewRomanPSMT-31"/>
       <use xlink:href="#TimesNewRomanPSMT-2e" x="50"/>
       <use xlink:href="#TimesNewRomanPSMT-30" x="75"/>
      </g>
     </g>
    </g>
    <g id="ytick_3">
     <g id="line2d_10">
      <g>
       <use xlink:href="#m7938cfdd79" x="61.6375" y="89.325888" style="stroke: #000000; stroke-width: 0.8"/>
      </g>
     </g>
     <g id="text_10">
      <!-- 2.0 -->
      <g transform="translate(29.6375 96.269638) scale(0.2 -0.2)">
       <use xlink:href="#TimesNewRomanPSMT-32"/>
       <use xlink:href="#TimesNewRomanPSMT-2e" x="50"/>
       <use xlink:href="#TimesNewRomanPSMT-30" x="75"/>
      </g>
     </g>
    </g>
    <g id="ytick_4">
     <g id="line2d_11">
      <g>
       <use xlink:href="#m7938cfdd79" x="61.6375" y="38.191466" style="stroke: #000000; stroke-width: 0.8"/>
      </g>
     </g>
     <g id="text_11">
      <!-- 3.0 -->
      <g transform="translate(29.6375 45.135216) scale(0.2 -0.2)">
       <use xlink:href="#TimesNewRomanPSMT-33"/>
       <use xlink:href="#TimesNewRomanPSMT-2e" x="50"/>
       <use xlink:href="#TimesNewRomanPSMT-30" x="75"/>
      </g>
     </g>
    </g>
    <g id="text_12">
     <!-- CPU使用率 -->
     <g transform="translate(23.059375 156.288125) rotate(-90) scale(0.2 -0.2)">
      <defs>
       <path id="SimSun-43" d="M 1725 50 
Q 1025 50 612 575 
Q 200 1100 200 2225 
Q 200 3175 637 3800 
Q 1075 4425 1825 4425 
Q 2000 4425 2175 4375 
Q 2350 4300 2475 4300 
Q 2575 4300 2637 4325 
Q 2700 4350 2750 4425 
L 2975 3325 
L 2825 3275 
Q 2675 3750 2425 4000 
Q 2175 4250 1775 4250 
Q 1250 4250 962 3675 
Q 675 3100 675 2250 
Q 675 1325 925 800 
Q 1175 275 1750 275 
Q 2150 275 2437 562 
Q 2725 850 2825 1325 
L 2975 1250 
Q 2850 725 2512 387 
Q 2175 50 1725 50 
z
" transform="scale(0.015625)"/>
       <path id="SimSun-50" d="M 950 2100 
L 950 450 
Q 950 350 1012 300 
Q 1075 250 1175 250 
L 1350 250 
L 1350 100 
L 150 100 
L 150 250 
L 325 250 
Q 450 250 500 300 
Q 550 350 550 450 
L 550 4025 
Q 550 4125 500 4175 
Q 450 4225 325 4225 
L 175 4225 
L 175 4375 
L 1650 4375 
Q 2275 4375 2612 4062 
Q 2950 3750 2950 3275 
Q 2950 2700 2587 2400 
Q 2225 2100 1725 2100 
L 950 2100 
z
M 1575 2250 
Q 1950 2250 2237 2475 
Q 2525 2700 2525 3250 
Q 2525 3750 2287 3987 
Q 2050 4225 1525 4225 
L 1175 4225 
Q 1075 4225 1012 4175 
Q 950 4125 950 4025 
L 950 2250 
L 1575 2250 
z
" transform="scale(0.015625)"/>
       <path id="SimSun-55" d="M 1625 250 
Q 2000 250 2262 500 
Q 2525 750 2525 1125 
L 2525 4025 
Q 2525 4125 2475 4175 
Q 2425 4225 2300 4225 
L 2150 4225 
L 2150 4375 
L 3050 4375 
L 3050 4225 
L 2900 4225 
Q 2800 4225 2737 4175 
Q 2675 4125 2675 4025 
L 2675 1125 
Q 2675 625 2337 337 
Q 2000 50 1575 50 
Q 1125 50 787 300 
Q 450 550 450 1100 
L 450 4025 
Q 450 4125 400 4175 
Q 350 4225 225 4225 
L 100 4225 
L 100 4375 
L 1200 4375 
L 1200 4225 
L 1075 4225 
Q 975 4225 912 4175 
Q 850 4125 850 4025 
L 850 1100 
Q 850 600 1062 425 
Q 1275 250 1625 250 
z
" transform="scale(0.015625)"/>
       <path id="SimSun-4f7f" d="M 2875 3150 
L 2875 2100 
L 3825 2100 
Q 3850 2825 3850 3150 
L 2875 3150 
z
M 4175 3150 
Q 4175 2800 4150 2100 
L 5150 2100 
L 5150 3150 
L 4175 3150 
z
M 5475 3100 
L 5475 2425 
Q 5475 2100 5500 1800 
L 5150 1675 
L 5150 1950 
L 4150 1950 
Q 4125 1175 3875 600 
Q 4275 275 4875 75 
Q 5475 -125 6075 -150 
L 6075 -250 
Q 5700 -300 5600 -575 
Q 4525 -325 3725 350 
Q 3425 25 2925 -225 
Q 2425 -475 1875 -650 
L 1825 -550 
Q 2400 -325 2850 -25 
Q 3300 275 3500 575 
Q 3200 925 2825 1650 
L 2900 1700 
Q 3325 1100 3625 825 
Q 3800 1300 3825 1950 
L 2875 1950 
L 2875 1825 
L 2525 1675 
Q 2550 2075 2550 2562 
Q 2550 3050 2525 3500 
L 2875 3300 
L 3850 3300 
L 3850 4025 
L 2975 4025 
Q 2650 4025 2375 3950 
L 2150 4175 
L 3850 4175 
L 3850 4525 
Q 3850 4775 3825 5225 
L 4350 5000 
L 4175 4825 
L 4175 4175 
L 5300 4175 
L 5600 4475 
L 6050 4025 
L 4175 4025 
L 4175 3300 
L 5100 3300 
L 5275 3525 
L 5650 3225 
L 5475 3100 
z
M 1675 3175 
L 1675 -450 
L 1325 -625 
Q 1350 -75 1350 350 
L 1350 3200 
Q 900 2475 350 1900 
L 275 1950 
Q 700 2525 1112 3400 
Q 1525 4275 1800 5250 
L 2325 4925 
L 2125 4800 
Q 1725 3925 1500 3525 
L 1875 3325 
L 1675 3175 
z
" transform="scale(0.015625)"/>
       <path id="SimSun-7528" d="M 3400 3150 
L 3400 1825 
L 5075 1825 
L 5075 3150 
L 3400 3150 
z
M 4075 100 
Q 4725 50 4900 62 
Q 5075 75 5075 400 
L 5075 1675 
L 3400 1675 
Q 3400 75 3425 -225 
L 3050 -400 
Q 3075 1025 3075 1675 
L 1425 1675 
Q 1250 350 375 -600 
L 300 -550 
Q 775 225 950 1025 
Q 1125 1825 1125 3225 
Q 1125 4625 1100 5075 
L 1475 4825 
L 5050 4825 
L 5225 5100 
L 5625 4800 
L 5425 4600 
L 5425 225 
Q 5450 -400 4875 -575 
Q 4825 -150 4075 -25 
L 4075 100 
z
M 1475 4675 
L 1475 3300 
L 3075 3300 
L 3075 4675 
L 1475 4675 
z
M 3400 4675 
L 3400 3300 
L 5075 3300 
L 5075 4675 
L 3400 4675 
z
M 1475 3150 
Q 1450 2100 1425 1825 
L 3075 1825 
L 3075 3150 
L 1475 3150 
z
" transform="scale(0.015625)"/>
       <path id="SimSun-7387" d="M 875 3725 
L 925 3800 
Q 1375 3650 1550 3525 
Q 1725 3400 1725 3250 
Q 1725 3175 1662 3025 
Q 1600 2875 1550 2875 
Q 1500 2875 1425 3050 
Q 1275 3325 875 3725 
z
M 550 1850 
Q 875 1925 2000 2575 
L 2050 2500 
Q 1675 2225 1337 1937 
Q 1000 1650 875 1425 
L 550 1850 
z
M 5200 3450 
Q 4800 3150 4275 2800 
L 4225 2875 
Q 4775 3400 5050 3925 
L 5450 3525 
L 5200 3450 
z
M 4325 2500 
L 4350 2575 
Q 5225 2350 5375 2212 
Q 5525 2075 5525 1900 
Q 5525 1775 5487 1662 
Q 5450 1550 5400 1550 
Q 5325 1550 5200 1800 
Q 4975 2150 4325 2500 
z
M 3150 3900 
Q 2500 3300 2300 3150 
Q 2800 3150 3400 3175 
Q 3700 3500 3850 3825 
L 4250 3450 
Q 4050 3400 3450 2825 
Q 2850 2250 2475 1950 
Q 3150 1975 3850 2000 
Q 3750 2175 3550 2450 
L 3600 2500 
Q 4050 2250 4200 2100 
Q 4350 1950 4350 1850 
Q 4350 1775 4250 1625 
Q 4150 1475 4100 1475 
Q 4075 1475 4050 1550 
Q 4000 1700 3900 1900 
Q 3650 1875 3075 1800 
L 3500 1550 
L 3325 1425 
L 3325 975 
L 5325 975 
L 5650 1300 
L 6100 825 
L 3325 825 
Q 3325 -275 3350 -525 
L 2975 -650 
Q 3000 0 3000 825 
L 1125 825 
Q 800 825 525 750 
L 300 975 
L 3000 975 
L 3000 1775 
Q 2450 1700 2200 1525 
L 1950 1950 
Q 2275 1950 2675 2350 
Q 3075 2750 3325 3050 
Q 2400 2950 2150 2775 
L 1950 3175 
Q 2150 3150 2475 3575 
Q 2800 4000 2900 4225 
L 1450 4225 
Q 1125 4225 850 4150 
L 625 4375 
L 3100 4375 
Q 3050 4800 2675 5200 
L 2725 5250 
Q 3225 5050 3337 4912 
Q 3450 4775 3450 4700 
Q 3450 4550 3250 4375 
L 5025 4375 
L 5350 4675 
L 5775 4225 
L 3050 4225 
L 3375 3950 
L 3150 3900 
z
" transform="scale(0.015625)"/>
      </defs>
      <use xlink:href="#SimSun-43"/>
      <use xlink:href="#SimSun-50" x="50"/>
      <use xlink:href="#SimSun-55" x="100"/>
      <use xlink:href="#SimSun-4f7f" x="150"/>
      <use xlink:href="#SimSun-7528" x="250"/>
      <use xlink:href="#SimSun-7387" x="350"/>
     </g>
    </g>
   </g>
   <g id="line2d_12">
    <path d="M 105.768031 129.313003 
L 108.84333 133.70034 
L 111.918628 136.369554 
L 114.993926 135.571859 
L 118.069225 134.467355 
L 121.144523 140.572806 
L 124.219821 138.333119 
L 127.29512 138.455844 
L 130.370418 142.076158 
L 133.445716 143.54883 
L 136.521015 141.830712 
L 139.596313 143.610192 
L 142.671612 168.614923 
L 145.74691 137.320654 
L 148.822208 137.075211 
L 151.897507 138.05699 
L 154.972805 139.406943 
L 158.048103 139.560341 
L 161.123402 142.475006 
L 164.1987 158.265317 
L 167.273998 161.364059 
L 170.349297 165.045739 
L 173.424595 169.34103 
L 176.499893 170.609167 
L 179.575192 168.093351 
L 182.65049 169.566022 
L 185.725788 170.69098 
L 188.801087 172.777264 
L 191.876385 172.327282 
L 194.951683 174.024943 
L 198.026982 175.231715 
L 201.10228 177.706623 
L 204.177579 179.363377 
L 207.252877 184.384784 
L 210.328175 177.727077 
L 213.403474 184.55864 
L 216.478772 176.847562 
L 219.55407 183.812075 
L 222.629369 176.418035 
L 225.704667 180.498563 
L 228.779965 172.572729 
L 231.855264 174.413568 
L 234.930562 173.97381 
L 238.00586 174.935138 
L 241.081159 175.057859 
L 244.156457 175.998733 
L 247.231755 175.865783 
L 250.307054 176.765749 
L 253.382352 176.724841 
L 256.45765 176.827111 
L 259.532949 174.587421 
L 262.608247 176.172592 
L 265.683546 175.374894 
L 268.758844 177.553222 
L 271.834142 177.041875 
L 274.909441 178.044111 
L 277.984739 177.21573 
L 281.060037 181.705335 
L 284.135336 182.564395 
L 287.210634 184.405229 
L 290.285932 177.911161 
L 293.361231 178.852036 
L 296.436529 170.793248 
L 299.511827 177.952066 
L 302.587126 180.774692 
L 308.737722 181.807602 
L 311.813021 181.234899 
L 314.888319 180.058804 
L 317.963617 181.347395 
L 321.038916 179.925854 
L 324.114214 176.489623 
L 327.189513 178.954304 
L 330.264811 184.885899 
L 333.340109 182.789388 
L 336.415408 184.507503 
L 339.490706 185.714274 
L 342.566004 186.041534 
L 345.641303 185.969946 
L 348.716601 185.509739 
L 351.791899 178.90317 
L 354.867198 184.01661 
L 357.942496 179.179293 
L 361.017794 175.456707 
L 364.093093 177.911161 
L 367.168391 177.502085 
L 370.243689 179.077025 
L 373.318988 177.236188 
L 376.394286 173.94313 
L 379.469584 175.068088 
L 382.544883 174.86355 
L 385.620181 174.822642 
L 388.69548 175.333985 
L 391.770778 173.554508 
L 394.846076 172.715904 
L 397.921375 172.225015 
L 400.996673 171.01824 
L 404.071971 170.834156 
L 407.14727 169.095584 
L 410.222568 157.569887 
L 413.297866 157.416482 
L 416.373165 170.997786 
L 419.448463 169.791015 
L 422.523761 169.954645 
L 425.59906 158.684619 
L 428.674358 154.48137 
L 431.749656 154.072294 
L 434.824955 155.667687 
L 437.900253 145.972601 
L 440.975551 134.59008 
L 444.05085 137.228615 
L 447.126148 138.374027 
L 450.201447 140.828478 
L 453.276745 141.482998 
L 456.352043 146.228273 
L 459.427342 147.087331 
L 462.50264 143.242024 
L 465.577938 149.255431 
L 468.653237 144.510158 
L 471.728535 145.737384 
L 474.803833 137.555875 
L 477.879132 125.63133 
L 480.95443 111.671632 
L 484.029728 104.154869 
L 487.105027 67.675577 
L 490.180325 101.086806 
L 493.255623 109.319449 
L 496.330922 114.330619 
L 499.40622 98.530081 
L 502.481518 102.365165 
L 505.556817 91.780345 
L 508.632115 102.416302 
L 511.707414 88.456605 
L 514.782712 71.469747 
L 517.85801 63.288247 
L 520.933309 69.8539 
L 524.008607 78.99674 
L 527.083905 78.137673 
L 530.159204 81.031886 
L 533.234502 88.415703 
L 536.3098 61.631485 
L 539.385099 83.414755 
L 542.460397 75.683228 
L 545.535695 76.112755 
L 548.610994 79.364908 
L 551.686292 72.799243 
L 554.76159 74.087837 
L 557.836889 84.048818 
L 560.912187 93.109835 
L 563.987485 88.456605 
L 567.062784 76.184343 
L 570.138082 69.424372 
L 573.213381 67.828982 
L 576.288679 69.424372 
L 579.363977 73.535579 
L 582.439276 72.737884 
L 585.514574 149.500877 
L 588.589872 69.056204 
L 591.665171 68.19715 
L 594.740469 78.567212 
L 597.815767 86.666896 
L 600.891066 81.757993 
L 603.966364 85.501032 
L 607.041662 107.580876 
L 610.116961 104.103738 
L 613.192259 102.109494 
L 616.267557 101.59815 
L 619.342856 105.944578 
L 622.418154 103.541257 
L 625.493452 96.58698 
L 628.568751 76.91045 
L 631.644049 80.285322 
L 634.719348 93.989347 
L 637.794646 104.206005 
L 640.869944 101.700417 
L 643.945243 102.365165 
L 647.020541 95.564286 
L 650.095839 113.154527 
L 653.171138 114.58629 
L 656.246436 113.205664 
L 659.321734 101.24021 
L 662.397033 82.647734 
L 665.472331 91.882607 
L 668.547629 106.916128 
L 671.622928 101.24021 
L 674.698226 104.512814 
L 677.773524 111.109152 
L 680.848823 109.779656 
L 683.924121 109.01264 
L 686.999419 110.802349 
L 690.074718 113.665871 
L 693.150016 111.927304 
L 696.225315 100.984539 
L 699.300613 86.850986 
L 702.375911 89.980408 
L 705.45121 88.814544 
L 708.526508 90.164492 
L 711.601806 88.753185 
L 714.677105 82.801138 
L 717.752403 80.162603 
L 720.827701 74.455993 
L 723.903 79.119458 
L 726.978298 69.178923 
L 730.053596 72.246985 
L 733.128895 73.903747 
L 736.204193 69.97663 
L 739.279491 80.83758 
L 742.35479 88.998634 
L 745.430088 103.531035 
L 748.505386 106.813861 
L 751.580685 101.904959 
L 754.655983 95.093851 
L 757.731282 102.252669 
L 760.80658 113.665871 
L 763.881878 108.603564 
L 766.957177 110.393273 
L 770.032475 103.899203 
L 773.107773 105.024158 
L 776.183072 85.93056 
L 779.25837 94.899538 
L 782.333668 97.149454 
L 785.408967 100.012982 
L 788.484265 98.42782 
L 791.559563 104.563945 
L 794.634862 100.575462 
L 797.71016 104.154869 
L 800.785458 105.688906 
L 803.860757 102.007226 
L 806.936055 107.632013 
L 810.011353 104.308273 
L 813.086652 105.740037 
L 816.16195 105.177556 
L 819.237249 85.981703 
L 822.312547 83.967001 
L 825.387845 74.517365 
L 828.463144 80.83758 
L 831.538442 65.313165 
L 834.61374 63.196202 
L 837.689039 36.534716 
L 840.764337 39.899358 
L 843.839635 60.015638 
L 846.914934 54.503347 
L 849.990232 73.965107 
L 853.06553 61.324677 
L 856.140829 54.390857 
L 859.216127 72.799243 
L 862.291425 71.756099 
L 865.366724 77.708146 
L 868.442022 81.757993 
L 871.51732 79.610345 
L 874.592619 79.426267 
L 877.667917 84.457888 
L 880.743216 75.376419 
L 883.818514 71.756099 
L 886.893812 71.940189 
L 889.969111 67.143777 
L 893.044409 57.939577 
L 896.119707 56.937347 
L 899.195006 78.321763 
L 902.270304 72.615165 
L 905.345602 78.505853 
L 908.420901 83.292025 
L 911.496199 79.671704 
L 914.571497 84.948787 
L 917.646796 65.251806 
L 920.722094 86.625994 
L 923.797392 81.942084 
L 926.872691 84.68288 
L 929.947989 86.257826 
L 933.023287 87.382787 
L 936.098586 95.615423 
L 942.249183 93.876851 
L 945.324481 89.274757 
L 948.399779 89.019079 
L 951.475078 99.245966 
L 954.550376 100.984539 
L 957.625674 110.22964 
L 960.700973 110.5569 
L 963.776271 110.311457 
L 966.851569 109.411488 
L 969.926868 114.688564 
L 973.002166 115.956695 
L 976.077464 112.684091 
L 982.228061 127.247177 
L 985.303359 125.529056 
L 988.378658 119.433833 
L 988.378658 119.433833 
" clip-path="url(#p5a8542fe67)" style="fill: none; stroke: #1f77b4; stroke-width: 1.5; stroke-linecap: square"/>
   </g>
   <g id="line2d_13">
    <path d="M 548.610994 81.44359 
L 551.686292 80.198933 
L 554.76159 82.880845 
L 557.836889 82.928855 
L 560.912187 82.781888 
L 567.062784 85.508238 
L 570.138082 85.907945 
L 573.213381 84.945166 
L 576.288679 85.540447 
L 582.439276 83.106837 
L 585.514574 134.670281 
L 588.589872 70.628846 
L 591.665171 81.854232 
L 594.740469 83.235834 
L 597.815767 83.588788 
L 600.891066 84.390896 
L 603.966364 80.233252 
L 607.041662 85.565232 
L 610.116961 89.033307 
L 613.192259 83.048879 
L 616.267557 86.559258 
L 619.342856 85.28433 
L 622.418154 81.047845 
L 625.493452 81.330222 
L 628.568751 84.851975 
L 634.719348 85.846951 
L 637.794646 84.903081 
L 640.869944 82.528612 
L 647.020541 81.199274 
L 650.095839 82.733561 
L 653.171138 79.802993 
L 656.246436 84.41278 
L 659.321734 77.82539 
L 662.397033 80.47925 
L 665.472331 85.118613 
L 668.547629 87.562756 
L 671.622928 85.885939 
L 674.698226 84.906312 
L 677.773524 83.787788 
L 680.848823 84.705702 
L 683.924121 85.067994 
L 686.999419 85.874272 
L 690.074718 85.183349 
L 693.150016 85.532291 
L 696.225315 81.640359 
L 699.300613 82.28443 
L 702.375911 83.276554 
L 705.45121 81.412843 
L 708.526508 82.826972 
L 711.601806 84.822423 
L 714.677105 84.879369 
L 717.752403 85.527317 
L 720.827701 87.619117 
L 723.903 86.322172 
L 726.978298 84.897546 
L 730.053596 86.108066 
L 733.128895 83.945532 
L 736.204193 83.005368 
L 739.279491 88.499336 
L 742.35479 91.021047 
L 745.430088 90.747088 
L 748.505386 91.631909 
L 751.580685 93.878033 
L 754.655983 88.259409 
L 757.731282 85.352724 
L 760.80658 86.650157 
L 766.957177 86.301666 
L 770.032475 80.963236 
L 776.183072 89.262432 
L 779.25837 85.356613 
L 782.333668 82.393251 
L 785.408967 84.92238 
L 788.484265 86.682342 
L 791.559563 91.219693 
L 794.634862 82.799968 
L 797.71016 86.240721 
L 800.785458 83.478504 
L 803.860757 83.447489 
L 806.936055 80.127297 
L 810.011353 81.353093 
L 813.086652 83.161321 
L 816.16195 82.542107 
L 819.237249 83.596407 
L 822.312547 84.317053 
L 825.387845 83.947544 
L 828.463144 82.999358 
L 831.538442 84.815596 
L 834.61374 85.270835 
L 837.689039 81.377939 
L 840.764337 79.462488 
L 843.839635 73.119975 
L 846.914934 76.780417 
L 849.990232 75.738126 
L 853.06553 81.759615 
L 856.140829 77.102867 
L 859.216127 80.22534 
L 862.291425 76.192133 
L 865.366724 73.314281 
L 868.442022 73.296262 
L 871.51732 73.132312 
L 874.592619 77.699441 
L 877.667917 70.861384 
L 880.743216 61.635314 
L 883.818514 64.572648 
L 886.893812 71.713929 
L 889.969111 72.070137 
L 893.044409 73.813909 
L 896.119707 74.780723 
L 899.195006 73.698456 
L 902.270304 76.234889 
L 905.345602 77.459783 
L 908.420901 81.541425 
L 911.496199 79.648248 
L 914.571497 84.795858 
L 917.646796 80.083456 
L 920.722094 82.31169 
L 923.797392 83.155127 
L 926.872691 80.491795 
L 929.947989 79.626669 
L 933.023287 85.361465 
L 936.098586 84.911225 
L 939.173884 86.466201 
L 942.249183 85.986823 
L 945.324481 89.197927 
L 948.399779 94.290822 
L 951.475078 92.038608 
L 954.550376 88.753063 
L 957.625674 97.299665 
L 960.700973 99.145089 
L 963.776271 99.873098 
L 966.851569 103.110468 
L 973.002166 107.762778 
L 976.077464 110.533438 
L 979.152763 113.878513 
L 982.228061 113.330491 
L 985.303359 117.193579 
L 988.378658 119.925909 
L 988.378658 119.925909 
" clip-path="url(#p5a8542fe67)" style="fill: none; stroke: #ff7f0e; stroke-width: 1.5; stroke-linecap: square"/>
   </g>
   <g id="line2d_14">
    <path d="M 548.610994 193.516875 
L 548.610994 29.059375 
" clip-path="url(#p5a8542fe67)" style="fill: none; stroke-dasharray: 7.4,3.2; stroke-dashoffset: 0; stroke: #0000ff; stroke-width: 2"/>
   </g>
   <g id="patch_3">
    <path d="M 61.6375 193.516875 
L 61.6375 29.059375 
" style="fill: none; stroke: #000000; stroke-width: 0.8; stroke-linejoin: miter; stroke-linecap: square"/>
   </g>
   <g id="patch_4">
    <path d="M 1032.509189 193.516875 
L 1032.509189 29.059375 
" style="fill: none; stroke: #000000; stroke-width: 0.8; stroke-linejoin: miter; stroke-linecap: square"/>
   </g>
   <g id="patch_5">
    <path d="M 61.6375 193.516875 
L 1032.509189 193.516875 
" style="fill: none; stroke: #000000; stroke-width: 0.8; stroke-linejoin: miter; stroke-linecap: square"/>
   </g>
   <g id="patch_6">
    <path d="M 61.6375 29.059375 
L 1032.509189 29.059375 
" style="fill: none; stroke: #000000; stroke-width: 0.8; stroke-linejoin: miter; stroke-linecap: square"/>
   </g>
   <g id="text_13">
    <!-- 云函数ID: 28 -->
    <g transform="translate(487.073345 23.059375) scale(0.2 -0.2)">
     <defs>
      <path id="SimSun-4e91" d="M 1200 4450 
L 4500 4450 
L 4850 4800 
L 5350 4300 
L 1975 4300 
Q 1700 4300 1425 4225 
L 1200 4450 
z
M 1600 275 
Q 2300 300 4725 450 
Q 4425 975 3850 1700 
L 3925 1775 
Q 5200 725 5287 500 
Q 5375 275 5375 175 
Q 5375 0 5250 -162 
Q 5125 -325 5075 -325 
Q 5025 -325 4975 -200 
Q 4875 50 4775 300 
Q 1650 -25 1300 -300 
L 975 300 
Q 1225 350 1462 550 
Q 1700 750 2150 1462 
Q 2600 2175 2725 2600 
L 1250 2600 
Q 925 2600 650 2525 
L 425 2750 
L 5025 2750 
L 5450 3175 
L 6025 2600 
L 3250 2600 
Q 3000 2025 2500 1375 
Q 2000 725 1600 275 
z
" transform="scale(0.015625)"/>
      <path id="SimSun-51fd" d="M 3050 2275 
L 3050 3000 
Q 3050 3450 3025 3800 
L 3275 3625 
L 4450 4475 
L 1650 4475 
Q 1325 4475 1050 4400 
L 825 4625 
L 4450 4625 
L 4775 4875 
L 5150 4375 
Q 4875 4325 4550 4175 
Q 4225 4025 3400 3550 
L 3550 3450 
L 3375 3325 
L 3375 2400 
Q 4250 3225 4475 3600 
L 4875 3150 
L 4625 3125 
Q 3625 2425 3400 2275 
Q 4575 1675 4687 1487 
Q 4800 1300 4800 1150 
Q 4800 1025 4750 925 
Q 4700 825 4675 825 
Q 4575 825 4375 1150 
Q 4075 1600 3375 2150 
L 3375 725 
Q 3375 350 2875 150 
Q 2850 450 2200 650 
L 2200 750 
Q 2800 675 2925 700 
Q 3050 725 3050 850 
L 3050 2100 
Q 1850 1300 1625 1025 
L 1275 1400 
Q 1575 1475 2087 1725 
Q 2600 1975 3050 2275 
z
M 1700 3475 
L 1775 3550 
Q 2350 3200 2475 3025 
Q 2600 2850 2600 2775 
Q 2600 2650 2500 2525 
Q 2400 2400 2350 2400 
Q 2275 2400 2225 2575 
Q 2150 2875 1700 3475 
z
M 5150 0 
L 5150 2175 
Q 5150 2725 5125 3325 
L 5725 3050 
L 5500 2850 
L 5500 525 
Q 5500 100 5525 -400 
L 5150 -600 
L 5150 -150 
L 1250 -150 
L 1000 -375 
L 675 -50 
L 875 125 
L 875 2375 
Q 875 2800 850 3425 
L 1450 3150 
L 1225 2975 
L 1225 0 
L 5150 0 
z
" transform="scale(0.015625)"/>
      <path id="SimSun-6570" d="M 1875 1525 
Q 1675 1200 1500 900 
Q 1825 825 2275 725 
Q 2500 975 2725 1525 
L 1875 1525 
z
M 850 4900 
Q 1325 4600 1425 4450 
Q 1525 4300 1525 4225 
Q 1525 4100 1437 3975 
Q 1350 3850 1300 3850 
Q 1225 3850 1150 4100 
Q 1050 4450 775 4850 
L 850 4900 
z
M 3000 4975 
L 3450 4675 
Q 3250 4625 3100 4425 
Q 2925 4225 2525 3825 
L 2450 3875 
Q 2925 4625 3000 4975 
z
M 1875 5250 
L 2425 5000 
L 2225 4825 
L 2225 3675 
L 2850 3675 
L 3125 3950 
L 3550 3525 
L 2225 3525 
L 2225 3300 
Q 2800 3175 2937 3062 
Q 3075 2950 3075 2775 
Q 3075 2700 3050 2587 
Q 3025 2475 2975 2475 
Q 2925 2475 2800 2650 
Q 2600 2925 2225 3175 
L 2225 2400 
L 1925 2200 
L 2275 2050 
Q 2150 2000 1950 1675 
L 2725 1675 
L 2900 1900 
L 3275 1575 
L 3050 1450 
Q 2800 875 2600 650 
Q 3000 550 3137 437 
Q 3275 325 3275 150 
Q 3275 -25 3200 -25 
Q 3125 -25 3025 75 
Q 2750 275 2400 425 
Q 1525 -275 325 -500 
L 300 -425 
Q 1450 -50 2100 550 
Q 1600 725 1125 800 
Q 1225 950 1525 1525 
L 1200 1525 
Q 875 1525 600 1450 
L 375 1675 
L 1575 1675 
Q 1675 1925 1775 2275 
L 1900 2225 
L 1900 3250 
Q 1225 2475 350 2050 
L 300 2125 
Q 1225 2775 1700 3525 
L 1250 3525 
Q 925 3525 650 3450 
L 425 3675 
L 1900 3675 
Q 1900 4575 1875 5250 
z
M 3925 3525 
Q 4050 2075 4525 1100 
Q 4925 1950 5025 3525 
L 3925 3525 
z
M 4050 5250 
L 4625 4925 
Q 4425 4850 4325 4625 
Q 4225 4400 3950 3675 
L 5375 3675 
L 5675 3975 
L 6125 3525 
L 5400 3525 
Q 5250 1675 4750 775 
Q 5325 75 6100 -100 
L 6100 -200 
Q 5625 -275 5600 -500 
Q 4950 -50 4525 525 
Q 3700 -275 2550 -650 
L 2500 -575 
Q 3650 -50 4325 800 
Q 3850 1975 3825 3375 
Q 3575 2725 3100 2150 
L 3025 2200 
Q 3625 3200 4050 5250 
z
" transform="scale(0.015625)"/>
      <path id="SimSun-49" d="M 600 4225 
L 600 4375 
L 2600 4375 
L 2600 4225 
L 2025 4225 
Q 1925 4225 1862 4175 
Q 1800 4125 1800 4025 
L 1800 450 
Q 1800 350 1862 300 
Q 1925 250 2025 250 
L 2600 250 
L 2600 100 
L 600 100 
L 600 250 
L 1175 250 
Q 1300 250 1350 300 
Q 1400 350 1400 450 
L 1400 4025 
Q 1400 4125 1350 4175 
Q 1300 4225 1175 4225 
L 600 4225 
z
" transform="scale(0.015625)"/>
      <path id="SimSun-44" d="M 2500 2275 
Q 2500 3350 2175 3787 
Q 1850 4225 1275 4225 
Q 1100 4225 1012 4175 
Q 925 4125 925 4025 
L 925 450 
Q 925 350 1000 300 
Q 1075 250 1200 250 
Q 1750 250 2125 662 
Q 2500 1075 2500 2275 
z
M 525 4025 
Q 525 4125 475 4175 
Q 425 4225 300 4225 
L 150 4225 
L 150 4375 
L 1275 4375 
Q 2050 4375 2512 3875 
Q 2975 3375 2975 2325 
Q 2975 1175 2525 637 
Q 2075 100 1200 100 
L 125 100 
L 125 250 
L 300 250 
Q 425 250 475 300 
Q 525 350 525 450 
L 525 4025 
z
" transform="scale(0.015625)"/>
      <path id="SimSun-3a" d="M 1900 2725 
Q 1900 2575 1800 2475 
Q 1700 2375 1550 2375 
Q 1400 2375 1300 2475 
Q 1200 2575 1200 2725 
Q 1200 2875 1300 2975 
Q 1400 3075 1550 3075 
Q 1700 3075 1800 2975 
Q 1900 2875 1900 2725 
z
M 1900 375 
Q 1900 225 1800 125 
Q 1700 25 1550 25 
Q 1400 25 1300 125 
Q 1200 225 1200 375 
Q 1200 525 1300 625 
Q 1400 725 1550 725 
Q 1700 725 1800 625 
Q 1900 525 1900 375 
z
" transform="scale(0.015625)"/>
      <path id="SimSun-20" d="M 0 0 
Q 0 0 0 0 
z
" transform="scale(0.015625)"/>
      <path id="SimSun-32" d="M 2325 3325 
Q 2325 3775 2125 4012 
Q 1925 4250 1525 4250 
Q 1225 4250 1012 4087 
Q 800 3925 800 3675 
Q 800 3525 900 3425 
Q 975 3325 975 3225 
Q 975 3100 912 3037 
Q 850 2975 725 2975 
Q 575 2975 487 3062 
Q 400 3150 400 3350 
Q 400 3875 775 4150 
Q 1150 4425 1575 4425 
Q 2175 4425 2462 4125 
Q 2750 3825 2750 3375 
Q 2750 3075 2612 2775 
Q 2475 2475 2175 2200 
Q 1450 1500 1062 1062 
Q 675 625 600 475 
L 2075 475 
Q 2300 475 2450 650 
Q 2600 825 2650 1175 
L 2800 1175 
L 2650 100 
L 325 100 
L 325 425 
Q 450 650 737 1000 
Q 1025 1350 1500 1825 
Q 1925 2250 2125 2625 
Q 2325 3000 2325 3325 
z
" transform="scale(0.015625)"/>
      <path id="SimSun-38" d="M 625 1125 
Q 625 725 887 475 
Q 1150 225 1550 225 
Q 2025 225 2237 475 
Q 2450 725 2450 1100 
Q 2450 1425 2150 1725 
Q 1850 2025 1250 2275 
Q 950 2075 787 1775 
Q 625 1475 625 1125 
z
M 2825 1175 
Q 2825 700 2475 375 
Q 2125 50 1550 50 
Q 1025 50 650 375 
Q 275 700 275 1125 
Q 275 1550 487 1850 
Q 700 2150 1100 2375 
Q 750 2550 562 2812 
Q 375 3075 375 3400 
Q 375 3825 700 4125 
Q 1025 4425 1600 4425 
Q 2125 4425 2450 4125 
Q 2775 3825 2775 3400 
Q 2775 3100 2587 2837 
Q 2400 2575 2000 2375 
Q 2425 2125 2625 1825 
Q 2825 1525 2825 1175 
z
M 2425 3375 
Q 2425 3725 2225 3987 
Q 2025 4250 1600 4250 
Q 1125 4250 925 4000 
Q 725 3750 725 3475 
Q 725 3200 1012 2937 
Q 1300 2675 1825 2475 
Q 2125 2625 2275 2850 
Q 2425 3075 2425 3375 
z
" transform="scale(0.015625)"/>
     </defs>
     <use xlink:href="#SimSun-4e91"/>
     <use xlink:href="#SimSun-51fd" x="100"/>
     <use xlink:href="#SimSun-6570" x="200"/>
     <use xlink:href="#SimSun-49" x="300"/>
     <use xlink:href="#SimSun-44" x="350"/>
     <use xlink:href="#SimSun-3a" x="400"/>
     <use xlink:href="#SimSun-20" x="450"/>
     <use xlink:href="#SimSun-32" x="500"/>
     <use xlink:href="#SimSun-38" x="550"/>
    </g>
   </g>
   <g id="legend_1">
    <g id="patch_7">
     <path d="M 75.6375 101.934375 
L 199.6375 101.934375 
Q 203.6375 101.934375 203.6375 97.934375 
L 203.6375 43.059375 
Q 203.6375 39.059375 199.6375 39.059375 
L 75.6375 39.059375 
Q 71.6375 39.059375 71.6375 43.059375 
L 71.6375 97.934375 
Q 71.6375 101.934375 75.6375 101.934375 
z
" style="fill: #ffffff; opacity: 0.8; stroke: #cccccc; stroke-linejoin: miter"/>
    </g>
    <g id="line2d_15">
     <path d="M 79.6375 55.996875 
L 99.6375 55.996875 
L 119.6375 55.996875 
" style="fill: none; stroke: #1f77b4; stroke-width: 1.5; stroke-linecap: square"/>
    </g>
    <g id="text_14">
     <!-- 真实值 -->
     <g transform="translate(135.6375 62.996875) scale(0.2 -0.2)">
      <defs>
       <path id="SimSun-771f" d="M 2050 3450 
L 2050 2900 
L 4300 2900 
L 4300 3450 
L 2050 3450 
z
M 2050 2750 
L 2050 2225 
L 4300 2225 
L 4300 2750 
L 2050 2750 
z
M 2050 2075 
L 2050 1550 
L 4300 1550 
L 4300 2075 
L 2050 2075 
z
M 2050 1400 
L 2050 875 
L 4300 875 
L 4300 1400 
L 2050 1400 
z
M 2875 3600 
L 2925 4325 
L 1525 4325 
Q 1200 4325 925 4250 
L 700 4475 
L 2950 4475 
Q 2975 4825 2975 5275 
L 3550 5025 
L 3375 4925 
L 3300 4475 
L 5000 4475 
L 5325 4825 
L 5775 4325 
L 3275 4325 
L 3200 3600 
L 4275 3600 
L 4450 3875 
L 4850 3575 
L 4650 3375 
L 4650 875 
L 5300 875 
L 5675 1225 
L 6125 725 
L 1150 725 
Q 825 725 550 650 
L 325 875 
L 1700 875 
Q 1700 3200 1675 3775 
L 2050 3600 
L 2875 3600 
z
M 2425 725 
L 2825 350 
L 2575 300 
Q 1500 -425 800 -650 
L 775 -575 
Q 1950 125 2425 725 
z
M 3800 700 
Q 4575 375 4962 200 
Q 5350 25 5400 -112 
Q 5450 -250 5450 -325 
Q 5450 -400 5400 -525 
Q 5350 -650 5325 -650 
Q 5250 -650 5100 -450 
Q 4875 -150 3750 625 
L 3800 700 
z
" transform="scale(0.015625)"/>
       <path id="SimSun-5b9e" d="M 1950 3625 
Q 2575 3400 2700 3250 
Q 2825 3100 2825 2975 
Q 2825 2850 2750 2700 
Q 2675 2550 2625 2550 
Q 2550 2550 2450 2800 
Q 2275 3175 1900 3550 
L 1950 3625 
z
M 3575 1325 
Q 3500 1100 3425 925 
Q 4650 550 5087 325 
Q 5525 100 5512 -225 
Q 5500 -550 5400 -550 
Q 5300 -550 5075 -300 
Q 4625 175 3375 800 
Q 3025 175 2300 -150 
Q 1575 -475 425 -625 
L 425 -525 
Q 1475 -325 2200 100 
Q 2925 525 3200 1325 
L 1225 1325 
Q 900 1325 625 1250 
L 400 1475 
L 3225 1475 
Q 3325 1950 3375 2575 
Q 3425 3200 3425 3700 
L 4050 3400 
L 3850 3225 
Q 3750 2300 3625 1475 
L 5175 1475 
L 5550 1850 
L 6075 1325 
L 3575 1325 
z
M 1275 2700 
Q 1975 2425 2100 2262 
Q 2225 2100 2225 1975 
Q 2225 1850 2150 1700 
Q 2075 1550 2025 1550 
Q 1950 1550 1850 1800 
Q 1675 2175 1225 2625 
L 1275 2700 
z
M 2750 5225 
L 2825 5275 
Q 3225 5100 3425 4925 
Q 3625 4750 3625 4600 
Q 3625 4450 3512 4300 
Q 3400 4150 3325 4150 
Q 3250 4150 3200 4400 
Q 3100 4775 2750 5225 
z
M 4975 3225 
L 5350 3925 
L 1175 3925 
Q 1225 3525 1125 3300 
Q 1025 3075 787 3100 
Q 550 3125 550 3200 
Q 550 3300 700 3475 
Q 975 3825 1050 4375 
L 1150 4375 
L 1175 4075 
L 5300 4075 
L 5575 4350 
L 6050 3800 
Q 5625 3825 5050 3175 
L 4975 3225 
z
" transform="scale(0.015625)"/>
       <path id="SimSun-503c" d="M 1525 650 
Q 1525 -225 1550 -525 
L 1175 -650 
Q 1200 250 1200 550 
L 1200 3025 
Q 750 2300 325 1850 
L 250 1900 
Q 725 2625 1100 3525 
Q 1475 4425 1675 5200 
L 2200 4875 
L 1950 4725 
Q 1550 3800 1425 3475 
L 1725 3300 
L 1525 3150 
L 1525 650 
z
M 2875 3225 
L 2875 2475 
L 4800 2475 
L 4800 3225 
L 2875 3225 
z
M 2875 2325 
L 2875 1575 
L 4800 1575 
L 4800 2325 
L 2875 2325 
z
M 2875 1425 
L 2875 675 
L 4800 675 
L 4800 1425 
L 2875 1425 
z
M 2875 525 
L 2875 -225 
L 4800 -225 
L 4800 525 
L 2875 525 
z
M 3550 4250 
Q 3575 4825 3550 5225 
L 4125 4950 
L 3925 4800 
L 3900 4250 
L 5025 4250 
L 5350 4575 
L 5825 4100 
L 3900 4100 
L 3875 3375 
L 4750 3375 
L 4975 3625 
L 5350 3300 
L 5125 3150 
L 5125 -225 
L 5350 -225 
L 5675 100 
L 6150 -375 
L 2450 -375 
Q 2125 -375 1850 -450 
L 1625 -225 
L 2550 -225 
L 2550 2550 
Q 2550 2850 2525 3575 
L 2875 3375 
L 3525 3375 
L 3550 4100 
L 2800 4100 
Q 2475 4100 2200 4025 
L 1975 4250 
L 3550 4250 
z
" transform="scale(0.015625)"/>
      </defs>
      <use xlink:href="#SimSun-771f"/>
      <use xlink:href="#SimSun-5b9e" x="100"/>
      <use xlink:href="#SimSun-503c" x="200"/>
     </g>
    </g>
    <g id="line2d_16">
     <path d="M 79.6375 84.35625 
L 99.6375 84.35625 
L 119.6375 84.35625 
" style="fill: none; stroke: #ff7f0e; stroke-width: 1.5; stroke-linecap: square"/>
    </g>
    <g id="text_15">
     <!-- 预测值 -->
     <g transform="translate(135.6375 91.35625) scale(0.2 -0.2)">
      <defs>
       <path id="SimSun-9884" d="M 475 4825 
L 2225 4825 
L 2425 5075 
L 2825 4675 
Q 2600 4625 2387 4412 
Q 2175 4200 1800 3750 
Q 2050 3575 2037 3400 
Q 2025 3225 1937 3150 
Q 1850 3075 1825 3075 
Q 1725 3075 1650 3300 
Q 1525 3600 1050 4100 
L 1100 4150 
Q 1475 3975 1700 3825 
L 2225 4675 
L 1300 4675 
Q 975 4675 700 4600 
L 475 4825 
z
M 725 100 
Q 1175 50 1362 37 
Q 1550 25 1550 275 
L 1550 2875 
L 1125 2875 
Q 800 2875 525 2800 
L 300 3025 
L 2525 3025 
L 2725 3275 
L 3150 2875 
Q 2800 2825 2275 2075 
L 2200 2125 
L 2550 2875 
L 1875 2875 
L 1875 150 
Q 1875 -400 1350 -500 
Q 1325 -175 725 0 
L 725 100 
z
M 3250 775 
Q 3275 1425 3275 2287 
Q 3275 3150 3250 3900 
L 3600 3700 
L 4050 3700 
Q 4175 4400 4200 4675 
L 3650 4675 
Q 3325 4675 3050 4600 
L 2825 4825 
L 5325 4825 
L 5675 5150 
L 6125 4675 
L 4675 4675 
Q 4500 4425 4175 3700 
L 5300 3700 
L 5475 3975 
L 5875 3675 
L 5675 3475 
L 5675 1950 
Q 5675 1525 5700 1075 
L 5350 875 
L 5350 3550 
L 3600 3550 
L 3600 1000 
L 3250 775 
z
M 4850 2875 
L 4625 2675 
Q 4625 1475 4475 937 
Q 4325 400 3900 50 
Q 3475 -300 2425 -625 
L 2400 -550 
Q 3500 -50 3837 400 
Q 4175 850 4237 1587 
Q 4300 2325 4275 3175 
L 4850 2875 
z
M 4650 950 
Q 5725 375 5875 212 
Q 6025 50 6025 -125 
Q 6025 -225 5962 -387 
Q 5900 -550 5850 -550 
Q 5800 -550 5750 -450 
Q 5625 -250 5437 0 
Q 5250 250 4600 875 
L 4650 950 
z
" transform="scale(0.015625)"/>
       <path id="SimSun-6d4b" d="M 1975 1000 
Q 2000 1475 2000 2925 
Q 2000 4375 1975 5000 
L 2350 4775 
L 3575 4775 
L 3775 4975 
L 4100 4650 
L 3900 4500 
L 3900 2350 
Q 3900 1850 3925 1350 
L 3600 1200 
L 3600 4625 
L 2325 4625 
L 2325 1150 
L 1975 1000 
z
M 2775 3975 
L 3300 3700 
L 3125 3525 
Q 3150 1825 2875 937 
Q 2600 50 1375 -600 
L 1325 -500 
Q 2200 100 2475 725 
Q 2750 1350 2775 2187 
Q 2800 3025 2775 3975 
z
M 3100 950 
Q 3825 450 3937 262 
Q 4050 75 4050 -25 
Q 4050 -150 3975 -262 
Q 3900 -375 3850 -375 
Q 3750 -375 3650 -75 
Q 3500 375 3050 875 
L 3100 950 
z
M 4475 825 
Q 4500 1200 4500 1700 
L 4500 3400 
Q 4500 3950 4475 4300 
L 5025 4025 
L 4825 3825 
L 4825 1700 
Q 4825 1325 4850 950 
L 4475 825 
z
M 5375 150 
L 5375 4050 
Q 5375 4750 5350 5125 
L 5875 4875 
L 5700 4700 
L 5700 75 
Q 5700 -200 5600 -350 
Q 5500 -500 5200 -600 
Q 5025 -225 4450 -50 
L 4450 50 
Q 5125 -50 5250 -37 
Q 5375 -25 5375 150 
z
M 1850 3500 
Q 1375 1525 1300 1225 
Q 1200 900 1212 450 
Q 1225 0 1250 -175 
Q 1250 -275 1125 -275 
Q 1025 -275 875 -225 
Q 725 -175 725 0 
Q 725 125 800 375 
Q 875 625 875 775 
Q 875 950 762 1050 
Q 650 1150 275 1250 
L 275 1350 
Q 725 1300 837 1312 
Q 950 1325 1087 1537 
Q 1225 1750 1750 3525 
L 1850 3500 
z
M 375 3775 
Q 1075 3350 1112 3100 
Q 1150 2850 1050 2775 
Q 950 2700 900 2700 
Q 800 2700 725 2975 
Q 600 3350 325 3700 
L 375 3775 
z
M 800 5100 
Q 1475 4725 1550 4512 
Q 1625 4300 1525 4187 
Q 1425 4075 1350 4075 
Q 1275 4075 1200 4300 
Q 1075 4650 750 5025 
L 800 5100 
z
" transform="scale(0.015625)"/>
      </defs>
      <use xlink:href="#SimSun-9884"/>
      <use xlink:href="#SimSun-6d4b" x="100"/>
      <use xlink:href="#SimSun-503c" x="200"/>
     </g>
    </g>
   </g>
  </g>
  <g id="axes_2">
   <g id="patch_8">
    <path d="M 61.6375 426.316875 
L 1032.509189 426.316875 
L 1032.509189 261.859375 
L 61.6375 261.859375 
z
" style="fill: #ffffff"/>
   </g>
   <g id="matplotlib.axis_3">
    <g id="xtick_8">
     <g id="line2d_17">
      <g>
       <use xlink:href="#mabba566e24" x="105.768031" y="426.316875" style="stroke: #000000; stroke-width: 0.8"/>
      </g>
     </g>
     <g id="text_16">
      <!-- 0 -->
      <g transform="translate(100.768031 447.204375) scale(0.2 -0.2)">
       <use xlink:href="#TimesNewRomanPSMT-30"/>
      </g>
     </g>
    </g>
    <g id="xtick_9">
     <g id="line2d_18">
      <g>
       <use xlink:href="#mabba566e24" x="259.532949" y="426.316875" style="stroke: #000000; stroke-width: 0.8"/>
      </g>
     </g>
     <g id="text_17">
      <!-- 50 -->
      <g transform="translate(249.532949 447.204375) scale(0.2 -0.2)">
       <use xlink:href="#TimesNewRomanPSMT-35"/>
       <use xlink:href="#TimesNewRomanPSMT-30" x="50"/>
      </g>
     </g>
    </g>
    <g id="xtick_10">
     <g id="line2d_19">
      <g>
       <use xlink:href="#mabba566e24" x="413.297866" y="426.316875" style="stroke: #000000; stroke-width: 0.8"/>
      </g>
     </g>
     <g id="text_18">
      <!-- 100 -->
      <g transform="translate(398.297866 447.204375) scale(0.2 -0.2)">
       <use xlink:href="#TimesNewRomanPSMT-31"/>
       <use xlink:href="#TimesNewRomanPSMT-30" x="50"/>
       <use xlink:href="#TimesNewRomanPSMT-30" x="100"/>
      </g>
     </g>
    </g>
    <g id="xtick_11">
     <g id="line2d_20">
      <g>
       <use xlink:href="#mabba566e24" x="567.062784" y="426.316875" style="stroke: #000000; stroke-width: 0.8"/>
      </g>
     </g>
     <g id="text_19">
      <!-- 150 -->
      <g transform="translate(552.062784 447.204375) scale(0.2 -0.2)">
       <use xlink:href="#TimesNewRomanPSMT-31"/>
       <use xlink:href="#TimesNewRomanPSMT-35" x="50"/>
       <use xlink:href="#TimesNewRomanPSMT-30" x="100"/>
      </g>
     </g>
    </g>
    <g id="xtick_12">
     <g id="line2d_21">
      <g>
       <use xlink:href="#mabba566e24" x="720.827701" y="426.316875" style="stroke: #000000; stroke-width: 0.8"/>
      </g>
     </g>
     <g id="text_20">
      <!-- 200 -->
      <g transform="translate(705.827701 447.204375) scale(0.2 -0.2)">
       <use xlink:href="#TimesNewRomanPSMT-32"/>
       <use xlink:href="#TimesNewRomanPSMT-30" x="50"/>
       <use xlink:href="#TimesNewRomanPSMT-30" x="100"/>
      </g>
     </g>
    </g>
    <g id="xtick_13">
     <g id="line2d_22">
      <g>
       <use xlink:href="#mabba566e24" x="874.592619" y="426.316875" style="stroke: #000000; stroke-width: 0.8"/>
      </g>
     </g>
     <g id="text_21">
      <!-- 250 -->
      <g transform="translate(859.592619 447.204375) scale(0.2 -0.2)">
       <use xlink:href="#TimesNewRomanPSMT-32"/>
       <use xlink:href="#TimesNewRomanPSMT-35" x="50"/>
       <use xlink:href="#TimesNewRomanPSMT-30" x="100"/>
      </g>
     </g>
    </g>
    <g id="xtick_14">
     <g id="line2d_23">
      <g>
       <use xlink:href="#mabba566e24" x="1028.357536" y="426.316875" style="stroke: #000000; stroke-width: 0.8"/>
      </g>
     </g>
     <g id="text_22">
      <!-- 300 -->
      <g transform="translate(1013.357536 447.204375) scale(0.2 -0.2)">
       <use xlink:href="#TimesNewRomanPSMT-33"/>
       <use xlink:href="#TimesNewRomanPSMT-30" x="50"/>
       <use xlink:href="#TimesNewRomanPSMT-30" x="100"/>
      </g>
     </g>
    </g>
   </g>
   <g id="matplotlib.axis_4">
    <g id="ytick_5">
     <g id="line2d_24">
      <g>
       <use xlink:href="#m7938cfdd79" x="61.6375" y="416.927235" style="stroke: #000000; stroke-width: 0.8"/>
      </g>
     </g>
     <g id="text_23">
      <!-- 0.0 -->
      <g transform="translate(29.6375 423.870985) scale(0.2 -0.2)">
       <use xlink:href="#TimesNewRomanPSMT-30"/>
       <use xlink:href="#TimesNewRomanPSMT-2e" x="50"/>
       <use xlink:href="#TimesNewRomanPSMT-30" x="75"/>
      </g>
     </g>
    </g>
    <g id="ytick_6">
     <g id="line2d_25">
      <g>
       <use xlink:href="#m7938cfdd79" x="61.6375" y="362.601366" style="stroke: #000000; stroke-width: 0.8"/>
      </g>
     </g>
     <g id="text_24">
      <!-- 0.5 -->
      <g transform="translate(29.6375 369.545116) scale(0.2 -0.2)">
       <use xlink:href="#TimesNewRomanPSMT-30"/>
       <use xlink:href="#TimesNewRomanPSMT-2e" x="50"/>
       <use xlink:href="#TimesNewRomanPSMT-35" x="75"/>
      </g>
     </g>
    </g>
    <g id="ytick_7">
     <g id="line2d_26">
      <g>
       <use xlink:href="#m7938cfdd79" x="61.6375" y="308.275497" style="stroke: #000000; stroke-width: 0.8"/>
      </g>
     </g>
     <g id="text_25">
      <!-- 1.0 -->
      <g transform="translate(29.6375 315.219247) scale(0.2 -0.2)">
       <use xlink:href="#TimesNewRomanPSMT-31"/>
       <use xlink:href="#TimesNewRomanPSMT-2e" x="50"/>
       <use xlink:href="#TimesNewRomanPSMT-30" x="75"/>
      </g>
     </g>
    </g>
    <g id="text_26">
     <!-- CPU使用率 -->
     <g transform="translate(23.059375 389.088125) rotate(-90) scale(0.2 -0.2)">
      <use xlink:href="#SimSun-43"/>
      <use xlink:href="#SimSun-50" x="50"/>
      <use xlink:href="#SimSun-55" x="100"/>
      <use xlink:href="#SimSun-4f7f" x="150"/>
      <use xlink:href="#SimSun-7528" x="250"/>
      <use xlink:href="#SimSun-7387" x="350"/>
     </g>
    </g>
   </g>
   <g id="line2d_27">
    <path d="M 105.768031 303.234062 
L 108.84333 304.277111 
L 111.918628 298.540305 
L 114.993926 299.061829 
L 118.069225 293.325024 
L 121.144523 301.147939 
L 124.219821 293.846548 
L 127.29512 301.147939 
L 130.370418 302.712525 
L 133.445716 298.540305 
L 136.521015 299.061829 
L 139.596313 298.540305 
L 142.671612 290.195853 
L 145.74691 282.372925 
L 148.822208 293.846548 
L 151.897507 295.411134 
L 154.972805 293.846548 
L 158.048103 298.540305 
L 161.123402 295.932658 
L 164.1987 298.540305 
L 167.273998 300.626415 
L 170.349297 300.104891 
L 173.424595 298.018768 
L 176.499893 299.583354 
L 179.575192 298.540305 
L 182.65049 296.454182 
L 185.725788 298.540305 
L 188.801087 291.760439 
L 191.876385 295.411134 
L 194.951683 294.88961 
L 198.026982 294.88961 
L 201.10228 291.760439 
L 204.177579 289.152792 
L 207.252877 280.286815 
L 210.328175 281.329864 
L 213.403474 285.502096 
L 216.478772 281.329864 
L 219.55407 287.588206 
L 222.629369 289.152792 
L 225.704667 284.980559 
L 228.779965 288.631267 
L 231.855264 286.545145 
L 234.930562 286.02362 
L 238.00586 288.10973 
L 241.081159 291.238901 
L 244.156457 288.10973 
L 247.231755 288.631267 
L 250.307054 282.894449 
L 253.382352 289.152792 
L 256.45765 293.846548 
L 259.532949 284.459035 
L 262.608247 284.459035 
L 268.758844 283.415973 
L 271.834142 283.937511 
L 274.909441 287.066682 
L 277.984739 287.588206 
L 281.060037 285.502096 
L 284.135336 285.502096 
L 287.210634 287.066682 
L 290.285932 288.10973 
L 293.361231 288.631267 
L 296.436529 285.502096 
L 299.511827 278.200692 
L 302.587126 281.329864 
L 305.662424 279.765278 
L 308.737722 280.808339 
L 311.813021 282.894449 
L 314.888319 282.894449 
L 317.963617 289.152792 
L 321.038916 285.502096 
L 324.114214 284.459035 
L 327.189513 285.502096 
L 330.264811 288.10973 
L 333.340109 285.502096 
L 336.415408 285.502096 
L 339.490706 293.846548 
L 342.566004 293.325024 
L 345.641303 299.583354 
L 348.716601 299.061829 
L 351.791899 289.152792 
L 354.867198 269.334716 
L 357.942496 302.712525 
L 361.017794 298.018768 
L 364.093093 306.884757 
L 367.168391 304.277111 
L 370.243689 311.578508 
L 373.318988 295.411134 
L 376.394286 322.530607 
L 379.469584 324.095193 
L 382.544883 328.788943 
L 385.620181 332.961176 
L 388.69548 330.875059 
L 391.770778 322.530607 
L 394.846076 337.133402 
L 397.921375 341.827152 
L 400.996673 338.697987 
L 404.071971 343.913268 
L 407.14727 338.176457 
L 410.222568 329.832004 
L 413.297866 350.693135 
L 416.373165 353.300776 
L 419.448463 355.386892 
L 422.523761 353.822306 
L 425.59906 360.602173 
L 428.674358 359.037587 
L 431.749656 365.29593 
L 434.824955 366.860515 
L 437.900253 369.989687 
L 440.975551 371.554272 
L 444.05085 369.468156 
L 447.126148 398.15221 
L 450.201447 373.640382 
L 453.276745 376.248029 
L 456.352043 377.812608 
L 459.427342 380.420255 
L 462.50264 381.46331 
L 465.577938 381.984841 
L 468.653237 384.592481 
L 471.728535 385.635536 
L 474.803833 387.200122 
L 477.879132 389.286232 
L 484.029728 389.286232 
L 487.105027 391.893874 
L 493.255623 393.979983 
L 496.330922 394.501514 
L 499.40622 395.544576 
L 502.481518 395.023038 
L 505.556817 396.587624 
L 508.632115 397.630685 
L 511.707414 397.630685 
L 517.85801 398.673747 
L 520.933309 398.673747 
L 527.083905 400.759857 
L 530.159204 400.759857 
L 536.3098 401.802905 
L 539.385099 400.759857 
L 542.460397 401.802905 
L 545.535695 401.802905 
L 548.610994 402.845966 
L 551.686292 402.324442 
L 554.76159 403.889028 
L 557.836889 402.845966 
L 560.912187 402.845966 
L 563.987485 403.889028 
L 567.062784 403.889028 
L 570.138082 404.410552 
L 573.213381 403.889028 
L 579.363977 403.889028 
L 582.439276 404.410552 
L 585.514574 403.889028 
L 588.589872 404.410552 
L 591.665171 404.410552 
L 594.740469 403.889028 
L 597.815767 405.453613 
L 600.891066 404.410552 
L 603.966364 404.410552 
L 607.041662 403.889028 
L 622.418154 403.889028 
L 625.493452 403.367491 
L 628.568751 402.324442 
L 631.644049 399.716795 
L 637.794646 400.759857 
L 643.945243 398.673747 
L 647.020541 398.673747 
L 650.095839 396.0661 
L 653.171138 396.587624 
L 656.246436 396.587624 
L 659.321734 395.544576 
L 662.397033 393.458459 
L 665.472331 392.415398 
L 668.547629 377.291084 
L 671.622928 386.678591 
L 674.698226 382.506365 
L 677.773524 382.506365 
L 680.848823 378.855669 
L 683.924121 376.769553 
L 686.999419 365.81746 
L 690.074718 373.640382 
L 693.150016 367.90357 
L 696.225315 367.90357 
L 699.300613 362.688289 
L 702.375911 358.516063 
L 705.45121 317.31532 
L 708.526508 347.563964 
L 711.601806 336.09034 
L 714.677105 342.348683 
L 717.752403 336.611871 
L 720.827701 336.09034 
L 723.903 311.578508 
L 726.978298 335.568816 
L 730.053596 331.918114 
L 733.128895 333.4827 
L 736.204193 328.788943 
L 739.279491 325.659778 
L 742.35479 306.884757 
L 745.430088 315.750734 
L 748.505386 315.22921 
L 751.580685 319.401436 
L 754.655983 317.31532 
L 757.731282 317.83685 
L 760.80658 310.535453 
L 763.881878 322.530607 
L 766.957177 322.009076 
L 770.032475 322.009076 
L 773.107773 317.31532 
L 776.183072 314.186155 
L 779.25837 303.755586 
L 782.333668 298.018768 
L 785.408967 300.104891 
L 788.484265 299.061829 
L 791.559563 295.932658 
L 794.634862 300.104891 
L 797.71016 297.497244 
L 800.785458 306.36322 
L 803.860757 306.36322 
L 810.011353 301.147939 
L 813.086652 300.626415 
L 816.16195 288.10973 
L 819.237249 287.066682 
L 822.312547 285.502096 
L 825.387845 288.10973 
L 828.463144 294.368073 
L 831.538442 295.411134 
L 834.61374 292.281963 
L 837.689039 291.238901 
L 840.764337 283.415973 
L 843.839635 287.066682 
L 846.914934 292.281963 
L 849.990232 291.760439 
L 853.06553 292.803487 
L 856.140829 272.463887 
L 859.216127 280.286815 
L 862.291425 293.846548 
L 865.366724 294.88961 
L 868.442022 288.10973 
L 871.51732 292.803487 
L 874.592619 296.454182 
L 877.667917 295.932658 
L 880.743216 294.88961 
L 883.818514 295.411134 
L 886.893812 296.97572 
L 889.969111 363.731344 
L 893.044409 271.420826 
L 896.119707 275.593058 
L 899.195006 286.02362 
L 902.270304 285.502096 
L 905.345602 288.10973 
L 908.420901 294.368073 
L 914.571497 298.540305 
L 917.646796 298.540305 
L 920.722094 302.191001 
L 923.797392 302.191001 
L 926.872691 295.932658 
L 929.947989 294.368073 
L 933.023287 296.97572 
L 936.098586 301.669476 
L 939.173884 307.406282 
L 942.249183 304.798648 
L 945.324481 305.320172 
L 948.399779 303.755586 
L 951.475078 306.884757 
L 954.550376 306.36322 
L 957.625674 305.320172 
L 960.700973 308.449337 
L 963.776271 294.88961 
L 966.851569 289.152792 
L 969.926868 300.104891 
L 973.002166 301.669476 
L 976.077464 301.669476 
L 979.152763 304.277111 
L 982.228061 300.104891 
L 985.303359 305.841696 
L 988.378658 303.234062 
L 988.378658 303.234062 
" clip-path="url(#pd7426b5852)" style="fill: none; stroke: #1f77b4; stroke-width: 1.5; stroke-linecap: square"/>
   </g>
   <g id="line2d_28">
    <path d="M 548.610994 416.420245 
L 551.686292 413.627846 
L 554.76159 411.974136 
L 557.836889 411.671337 
L 560.912187 416.66753 
L 563.987485 416.090389 
L 567.062784 415.036318 
L 570.138082 413.295516 
L 573.213381 413.854563 
L 576.288679 414.106576 
L 579.363977 418.293458 
L 582.439276 416.278184 
L 585.514574 416.393123 
L 588.589872 418.841534 
L 591.665171 415.304469 
L 594.740469 412.633537 
L 597.815767 416.470539 
L 600.891066 415.647148 
L 603.966364 415.158173 
L 607.041662 416.056156 
L 610.116961 411.669083 
L 613.192259 415.21721 
L 616.267557 411.876411 
L 619.342856 414.308256 
L 622.418154 411.585567 
L 625.493452 410.180541 
L 628.568751 409.033006 
L 631.644049 405.059048 
L 634.719348 408.234109 
L 637.794646 408.437317 
L 640.869944 407.595846 
L 647.020541 401.788722 
L 650.095839 400.374047 
L 653.171138 397.62373 
L 656.246436 396.509664 
L 659.321734 395.844473 
L 662.397033 394.217321 
L 665.472331 387.403246 
L 668.547629 370.981418 
L 671.622928 378.744765 
L 674.698226 379.650144 
L 677.773524 376.896013 
L 680.848823 371.965838 
L 683.924121 368.752095 
L 686.999419 364.599375 
L 690.074718 364.315046 
L 693.150016 361.724386 
L 696.225315 357.061818 
L 699.300613 359.890431 
L 702.375911 355.637681 
L 705.45121 331.936889 
L 708.526508 351.375313 
L 711.601806 346.717706 
L 714.677105 344.668614 
L 717.752403 340.429845 
L 720.827701 340.39174 
L 723.903 339.288755 
L 726.978298 339.215535 
L 733.128895 334.515335 
L 736.204193 332.377493 
L 739.279491 328.066483 
L 742.35479 311.891267 
L 745.430088 328.645872 
L 748.505386 324.464029 
L 751.580685 323.888927 
L 754.655983 324.071736 
L 760.80658 323.900604 
L 763.881878 322.418207 
L 766.957177 323.512132 
L 770.032475 321.488498 
L 773.107773 321.165435 
L 776.183072 316.73222 
L 779.25837 313.399361 
L 782.333668 315.092382 
L 785.408967 315.209645 
L 788.484265 316.048158 
L 791.559563 319.246915 
L 794.634862 316.300799 
L 797.71016 309.762712 
L 800.785458 312.689096 
L 803.860757 314.074843 
L 806.936055 318.114593 
L 810.011353 317.58044 
L 813.086652 313.908898 
L 816.16195 302.629604 
L 819.237249 310.120662 
L 822.312547 314.995771 
L 825.387845 312.298895 
L 828.463144 313.819404 
L 831.538442 314.065258 
L 834.61374 312.626375 
L 837.689039 316.224613 
L 840.764337 314.307142 
L 843.839635 315.481281 
L 846.914934 317.224297 
L 849.990232 317.822538 
L 853.06553 308.538332 
L 856.140829 313.382627 
L 859.216127 313.618203 
L 862.291425 314.780983 
L 865.366724 315.644726 
L 868.442022 314.918432 
L 871.51732 315.31748 
L 874.592619 312.960485 
L 877.667917 314.961363 
L 880.743216 313.053159 
L 883.818514 315.275223 
L 886.893812 313.60845 
L 889.969111 347.665426 
L 893.044409 310.510416 
L 896.119707 312.851278 
L 899.195006 314.548955 
L 902.270304 315.17606 
L 905.345602 316.75773 
L 908.420901 315.753571 
L 911.496199 316.409073 
L 920.722094 316.487117 
L 923.797392 318.302272 
L 926.872691 306.348623 
L 929.947989 312.129311 
L 933.023287 316.856614 
L 936.098586 317.332449 
L 939.173884 318.37882 
L 942.249183 320.621024 
L 945.324481 319.578202 
L 948.399779 317.841591 
L 951.475078 319.834535 
L 954.550376 318.807301 
L 957.625674 320.135702 
L 960.700973 318.682648 
L 963.776271 313.005909 
L 966.851569 315.853012 
L 969.926868 317.572708 
L 973.002166 318.463819 
L 976.077464 317.947515 
L 979.152763 316.9901 
L 982.228061 317.710216 
L 985.303359 315.135901 
L 988.378658 313.663802 
L 988.378658 313.663802 
" clip-path="url(#pd7426b5852)" style="fill: none; stroke: #ff7f0e; stroke-width: 1.5; stroke-linecap: square"/>
   </g>
   <g id="line2d_29">
    <path d="M 548.610994 426.316875 
L 548.610994 261.859375 
" clip-path="url(#pd7426b5852)" style="fill: none; stroke-dasharray: 7.4,3.2; stroke-dashoffset: 0; stroke: #0000ff; stroke-width: 2"/>
   </g>
   <g id="patch_9">
    <path d="M 61.6375 426.316875 
L 61.6375 261.859375 
" style="fill: none; stroke: #000000; stroke-width: 0.8; stroke-linejoin: miter; stroke-linecap: square"/>
   </g>
   <g id="patch_10">
    <path d="M 1032.509189 426.316875 
L 1032.509189 261.859375 
" style="fill: none; stroke: #000000; stroke-width: 0.8; stroke-linejoin: miter; stroke-linecap: square"/>
   </g>
   <g id="patch_11">
    <path d="M 61.6375 426.316875 
L 1032.509189 426.316875 
" style="fill: none; stroke: #000000; stroke-width: 0.8; stroke-linejoin: miter; stroke-linecap: square"/>
   </g>
   <g id="patch_12">
    <path d="M 61.6375 261.859375 
L 1032.509189 261.859375 
" style="fill: none; stroke: #000000; stroke-width: 0.8; stroke-linejoin: miter; stroke-linecap: square"/>
   </g>
   <g id="text_27">
    <!-- 云函数ID: 72 -->
    <g transform="translate(487.073345 255.859375) scale(0.2 -0.2)">
     <defs>
      <path id="SimSun-37" d="M 2825 4200 
Q 2300 3350 1987 2537 
Q 1675 1725 1675 1125 
Q 1675 1025 1700 850 
Q 1700 650 1700 400 
Q 1700 200 1637 125 
Q 1575 50 1425 50 
Q 1300 50 1212 137 
Q 1125 225 1125 450 
Q 1125 925 1337 1625 
Q 1550 2325 2475 4000 
L 1225 4000 
Q 950 4000 787 3825 
Q 625 3650 550 3300 
L 400 3325 
L 575 4375 
L 2825 4375 
L 2825 4200 
z
" transform="scale(0.015625)"/>
     </defs>
     <use xlink:href="#SimSun-4e91"/>
     <use xlink:href="#SimSun-51fd" x="100"/>
     <use xlink:href="#SimSun-6570" x="200"/>
     <use xlink:href="#SimSun-49" x="300"/>
     <use xlink:href="#SimSun-44" x="350"/>
     <use xlink:href="#SimSun-3a" x="400"/>
     <use xlink:href="#SimSun-20" x="450"/>
     <use xlink:href="#SimSun-37" x="500"/>
     <use xlink:href="#SimSun-32" x="550"/>
    </g>
   </g>
  </g>
  <g id="axes_3">
   <g id="patch_13">
    <path d="M 61.6375 659.116875 
L 1032.509189 659.116875 
L 1032.509189 494.659375 
L 61.6375 494.659375 
z
" style="fill: #ffffff"/>
   </g>
   <g id="matplotlib.axis_5">
    <g id="xtick_15">
     <g id="line2d_30">
      <g>
       <use xlink:href="#mabba566e24" x="105.768031" y="659.116875" style="stroke: #000000; stroke-width: 0.8"/>
      </g>
     </g>
     <g id="text_28">
      <!-- 0 -->
      <g transform="translate(100.768031 680.004375) scale(0.2 -0.2)">
       <use xlink:href="#TimesNewRomanPSMT-30"/>
      </g>
     </g>
    </g>
    <g id="xtick_16">
     <g id="line2d_31">
      <g>
       <use xlink:href="#mabba566e24" x="259.532949" y="659.116875" style="stroke: #000000; stroke-width: 0.8"/>
      </g>
     </g>
     <g id="text_29">
      <!-- 50 -->
      <g transform="translate(249.532949 680.004375) scale(0.2 -0.2)">
       <use xlink:href="#TimesNewRomanPSMT-35"/>
       <use xlink:href="#TimesNewRomanPSMT-30" x="50"/>
      </g>
     </g>
    </g>
    <g id="xtick_17">
     <g id="line2d_32">
      <g>
       <use xlink:href="#mabba566e24" x="413.297866" y="659.116875" style="stroke: #000000; stroke-width: 0.8"/>
      </g>
     </g>
     <g id="text_30">
      <!-- 100 -->
      <g transform="translate(398.297866 680.004375) scale(0.2 -0.2)">
       <use xlink:href="#TimesNewRomanPSMT-31"/>
       <use xlink:href="#TimesNewRomanPSMT-30" x="50"/>
       <use xlink:href="#TimesNewRomanPSMT-30" x="100"/>
      </g>
     </g>
    </g>
    <g id="xtick_18">
     <g id="line2d_33">
      <g>
       <use xlink:href="#mabba566e24" x="567.062784" y="659.116875" style="stroke: #000000; stroke-width: 0.8"/>
      </g>
     </g>
     <g id="text_31">
      <!-- 150 -->
      <g transform="translate(552.062784 680.004375) scale(0.2 -0.2)">
       <use xlink:href="#TimesNewRomanPSMT-31"/>
       <use xlink:href="#TimesNewRomanPSMT-35" x="50"/>
       <use xlink:href="#TimesNewRomanPSMT-30" x="100"/>
      </g>
     </g>
    </g>
    <g id="xtick_19">
     <g id="line2d_34">
      <g>
       <use xlink:href="#mabba566e24" x="720.827701" y="659.116875" style="stroke: #000000; stroke-width: 0.8"/>
      </g>
     </g>
     <g id="text_32">
      <!-- 200 -->
      <g transform="translate(705.827701 680.004375) scale(0.2 -0.2)">
       <use xlink:href="#TimesNewRomanPSMT-32"/>
       <use xlink:href="#TimesNewRomanPSMT-30" x="50"/>
       <use xlink:href="#TimesNewRomanPSMT-30" x="100"/>
      </g>
     </g>
    </g>
    <g id="xtick_20">
     <g id="line2d_35">
      <g>
       <use xlink:href="#mabba566e24" x="874.592619" y="659.116875" style="stroke: #000000; stroke-width: 0.8"/>
      </g>
     </g>
     <g id="text_33">
      <!-- 250 -->
      <g transform="translate(859.592619 680.004375) scale(0.2 -0.2)">
       <use xlink:href="#TimesNewRomanPSMT-32"/>
       <use xlink:href="#TimesNewRomanPSMT-35" x="50"/>
       <use xlink:href="#TimesNewRomanPSMT-30" x="100"/>
      </g>
     </g>
    </g>
    <g id="xtick_21">
     <g id="line2d_36">
      <g>
       <use xlink:href="#mabba566e24" x="1028.357536" y="659.116875" style="stroke: #000000; stroke-width: 0.8"/>
      </g>
     </g>
     <g id="text_34">
      <!-- 300 -->
      <g transform="translate(1013.357536 680.004375) scale(0.2 -0.2)">
       <use xlink:href="#TimesNewRomanPSMT-33"/>
       <use xlink:href="#TimesNewRomanPSMT-30" x="50"/>
       <use xlink:href="#TimesNewRomanPSMT-30" x="100"/>
      </g>
     </g>
    </g>
   </g>
   <g id="matplotlib.axis_6">
    <g id="ytick_8">
     <g id="line2d_37">
      <g>
       <use xlink:href="#m7938cfdd79" x="61.6375" y="616.696359" style="stroke: #000000; stroke-width: 0.8"/>
      </g>
     </g>
     <g id="text_35">
      <!-- 1.0 -->
      <g transform="translate(29.6375 623.640109) scale(0.2 -0.2)">
       <use xlink:href="#TimesNewRomanPSMT-31"/>
       <use xlink:href="#TimesNewRomanPSMT-2e" x="50"/>
       <use xlink:href="#TimesNewRomanPSMT-30" x="75"/>
      </g>
     </g>
    </g>
    <g id="ytick_9">
     <g id="line2d_38">
      <g>
       <use xlink:href="#m7938cfdd79" x="61.6375" y="562.901449" style="stroke: #000000; stroke-width: 0.8"/>
      </g>
     </g>
     <g id="text_36">
      <!-- 2.0 -->
      <g transform="translate(29.6375 569.845199) scale(0.2 -0.2)">
       <use xlink:href="#TimesNewRomanPSMT-32"/>
       <use xlink:href="#TimesNewRomanPSMT-2e" x="50"/>
       <use xlink:href="#TimesNewRomanPSMT-30" x="75"/>
      </g>
     </g>
    </g>
    <g id="ytick_10">
     <g id="line2d_39">
      <g>
       <use xlink:href="#m7938cfdd79" x="61.6375" y="509.106539" style="stroke: #000000; stroke-width: 0.8"/>
      </g>
     </g>
     <g id="text_37">
      <!-- 3.0 -->
      <g transform="translate(29.6375 516.050289) scale(0.2 -0.2)">
       <use xlink:href="#TimesNewRomanPSMT-33"/>
       <use xlink:href="#TimesNewRomanPSMT-2e" x="50"/>
       <use xlink:href="#TimesNewRomanPSMT-30" x="75"/>
      </g>
     </g>
    </g>
    <g id="text_38">
     <!-- CPU使用率 -->
     <g transform="translate(23.059375 621.888125) rotate(-90) scale(0.2 -0.2)">
      <use xlink:href="#SimSun-43"/>
      <use xlink:href="#SimSun-50" x="50"/>
      <use xlink:href="#SimSun-55" x="100"/>
      <use xlink:href="#SimSun-4f7f" x="150"/>
      <use xlink:href="#SimSun-7528" x="250"/>
      <use xlink:href="#SimSun-7387" x="350"/>
     </g>
    </g>
   </g>
   <g id="line2d_40">
    <path d="M 105.768031 526.148773 
L 108.84333 523.824832 
L 111.918628 524.341259 
L 114.993926 527.181627 
L 118.069225 524.857686 
L 121.144523 526.6652 
L 124.219821 523.824832 
L 127.29512 525.374126 
L 130.370418 502.134716 
L 133.445716 519.435157 
L 136.521015 526.92342 
L 139.596313 526.40698 
L 142.671612 527.698067 
L 145.74691 530.280215 
L 148.822208 526.92342 
L 151.897507 531.829509 
L 154.972805 535.702744 
L 158.048103 536.477391 
L 161.123402 535.702744 
L 164.1987 540.092406 
L 167.273998 535.960964 
L 170.349297 542.15814 
L 173.424595 542.15814 
L 176.499893 550.162817 
L 179.575192 549.904597 
L 182.65049 555.068906 
L 185.725788 555.327126 
L 188.801087 557.651067 
L 191.876385 561.524302 
L 198.026982 570.820059 
L 201.10228 565.65575 
L 204.177579 609.035962 
L 207.252877 575.467941 
L 210.328175 577.533668 
L 213.403474 580.890464 
L 216.478772 586.054779 
L 219.55407 588.1205 
L 222.629369 592.768382 
L 225.704667 594.317676 
L 228.779965 596.89983 
L 231.855264 600.514852 
L 234.930562 603.871653 
L 238.00586 606.712021 
L 241.081159 608.261315 
L 244.156457 612.13455 
L 247.231755 614.458491 
L 250.307054 616.265999 
L 253.382352 619.881017 
L 256.45765 622.979605 
L 259.532949 621.688528 
L 265.683546 627.36927 
L 268.758844 628.660347 
L 271.834142 630.726072 
L 274.909441 630.984288 
L 277.984739 630.209641 
L 281.060037 628.660347 
L 284.135336 630.209641 
L 287.210634 632.017149 
L 290.285932 632.275366 
L 293.361231 633.82466 
L 296.436529 634.34109 
L 299.511827 635.632167 
L 302.587126 637.181461 
L 305.662424 637.697891 
L 308.737722 637.439675 
L 311.813021 638.988969 
L 314.888319 641.31291 
L 317.963617 643.895067 
L 321.038916 645.186145 
L 324.114214 645.702575 
L 327.189513 646.993652 
L 333.340109 646.993652 
L 336.415408 647.510082 
L 339.490706 648.284729 
L 345.641303 648.801163 
L 348.716601 648.801163 
L 351.791899 641.054693 
L 354.867198 651.383317 
L 357.942496 650.866887 
L 361.017794 651.383317 
L 364.093093 650.866887 
L 367.168391 651.641534 
L 370.243689 650.866887 
L 373.318988 650.866887 
L 379.469584 651.383317 
L 382.544883 651.125101 
L 385.620181 651.125101 
L 388.69548 648.801163 
L 391.770778 649.57581 
L 394.846076 649.059376 
L 397.921375 649.059376 
L 400.996673 648.542946 
L 407.14727 645.960792 
L 410.222568 645.444358 
L 413.297866 644.411498 
L 416.373165 643.12042 
L 419.448463 642.087557 
L 422.523761 639.763616 
L 425.59906 630.209641 
L 428.674358 633.566443 
L 431.749656 630.984288 
L 434.824955 629.434994 
L 437.900253 626.336406 
L 440.975551 624.528899 
L 444.05085 615.233138 
L 447.126148 616.265999 
L 450.201447 612.650984 
L 453.276745 610.327043 
L 456.352043 605.679161 
L 459.427342 605.162727 
L 462.50264 569.787199 
L 465.577938 593.026595 
L 468.653237 589.669794 
L 471.728535 586.829426 
L 474.803833 582.181544 
L 477.879132 582.439758 
L 480.95443 576.242588 
L 484.029728 575.467941 
L 487.105027 571.078279 
L 490.180325 573.40222 
L 493.255623 565.913964 
L 496.330922 563.331809 
L 499.40622 548.097096 
L 502.481518 550.679244 
L 505.556817 550.421037 
L 508.632115 550.679244 
L 511.707414 547.064229 
L 514.782712 547.322449 
L 517.85801 544.740288 
L 520.933309 551.712111 
L 524.008607 552.228538 
L 527.083905 550.937464 
L 530.159204 550.937464 
L 533.234502 543.449214 
L 536.3098 543.449214 
L 539.385099 541.89992 
L 542.460397 543.190994 
L 545.535695 542.416347 
L 548.610994 534.41167 
L 551.686292 545.256715 
L 554.76159 539.575979 
L 557.836889 547.580656 
L 560.912187 549.38817 
L 563.987485 549.904597 
L 567.062784 542.932774 
L 570.138082 548.097096 
L 573.213381 530.021995 
L 576.288679 534.669877 
L 579.363977 533.637023 
L 582.439276 542.416347 
L 585.514574 544.482068 
L 588.589872 547.838876 
L 591.665171 548.613523 
L 594.740469 544.223861 
L 597.815767 542.674567 
L 600.891066 543.449214 
L 603.966364 547.322449 
L 607.041662 550.679244 
L 610.116961 546.547802 
L 613.192259 540.608846 
L 616.267557 542.416347 
L 619.342856 549.38817 
L 622.418154 548.871743 
L 625.493452 542.416347 
L 628.568751 548.097096 
L 631.644049 551.712111 
L 634.719348 550.937464 
L 637.794646 546.547802 
L 640.869944 546.289582 
L 643.945243 548.613523 
L 647.020541 589.153367 
L 650.095839 525.115906 
L 653.171138 527.181627 
L 656.246436 536.219171 
L 659.321734 537.510258 
L 662.397033 537.510258 
L 665.472331 540.350626 
L 668.547629 544.998508 
L 671.622928 543.449214 
L 674.698226 548.355303 
L 677.773524 544.482068 
L 680.848823 549.904597 
L 683.924121 542.416347 
L 686.999419 541.6417 
L 690.074718 547.838876 
L 693.150016 554.294259 
L 696.225315 553.003185 
L 699.300613 552.228538 
L 702.375911 548.613523 
L 705.45121 552.744965 
L 708.526508 552.744965 
L 711.601806 555.327126 
L 714.677105 552.228538 
L 717.752403 553.777832 
L 720.827701 540.350626 
L 723.903 536.735611 
L 726.978298 549.38817 
L 730.053596 550.421037 
L 733.128895 542.674567 
L 736.204193 542.15814 
L 739.279491 539.575979 
L 742.35479 544.740288 
L 745.430088 548.871743 
L 748.505386 555.327126 
L 751.580685 551.453891 
L 754.655983 549.64639 
L 757.731282 542.674567 
L 760.80658 542.932774 
L 766.957177 551.712111 
L 770.032475 551.453891 
L 773.107773 552.744965 
L 776.183072 549.38817 
L 782.333668 549.38817 
L 785.408967 551.712111 
L 788.484265 551.453891 
L 791.559563 549.12995 
L 794.634862 547.064229 
L 797.71016 547.064229 
L 800.785458 552.744965 
L 803.860757 540.867053 
L 806.936055 542.674567 
L 810.011353 548.355303 
L 813.086652 536.735611 
L 816.16195 543.707421 
L 819.237249 546.547802 
L 822.312547 546.806009 
L 825.387845 534.15345 
L 828.463144 539.575979 
L 831.538442 534.928097 
L 834.61374 534.928097 
L 837.689039 527.181627 
L 840.764337 536.219171 
L 843.839635 534.41167 
L 846.914934 531.571289 
L 849.990232 523.824832 
L 853.06553 526.148773 
L 856.140829 524.599479 
L 859.216127 523.566612 
L 862.291425 526.92342 
L 865.366724 524.083039 
L 868.442022 514.012641 
L 871.51732 521.242671 
L 874.592619 516.078362 
L 877.667917 511.43048 
L 880.743216 513.496201 
L 883.818514 510.914053 
L 886.893812 504.200437 
L 889.969111 514.270848 
L 893.044409 507.557245 
L 896.119707 510.397613 
L 899.195006 510.397613 
L 902.270304 505.491524 
L 905.345602 513.237994 
L 908.420901 516.078362 
L 911.496199 520.984451 
L 914.571497 515.045495 
L 917.646796 506.266171 
L 920.722094 524.599479 
L 923.797392 517.627656 
L 926.872691 522.791965 
L 929.947989 524.341259 
L 933.023287 527.181627 
L 936.098586 522.791965 
L 939.173884 526.148773 
L 942.249183 514.270848 
L 945.324481 520.209804 
L 948.399779 520.468024 
L 951.475078 525.890553 
L 954.550376 520.209804 
L 957.625674 524.857686 
L 960.700973 524.083039 
L 963.776271 521.242671 
L 966.851569 526.92342 
L 969.926868 526.92342 
L 973.002166 525.115906 
L 976.077464 521.242671 
L 979.152763 504.458657 
L 982.228061 518.66051 
L 985.303359 517.885863 
L 988.378658 519.693377 
L 988.378658 519.693377 
" clip-path="url(#pc1bde9eda1)" style="fill: none; stroke: #1f77b4; stroke-width: 1.5; stroke-linecap: square"/>
   </g>
   <g id="line2d_41">
    <path d="M 548.610994 547.805157 
L 551.686292 547.815315 
L 554.76159 549.247754 
L 557.836889 549.015673 
L 560.912187 548.966755 
L 563.987485 551.191041 
L 567.062784 551.498524 
L 570.138082 546.637928 
L 573.213381 535.099243 
L 576.288679 547.468521 
L 579.363977 551.524753 
L 582.439276 551.643019 
L 585.514574 553.278527 
L 588.589872 552.750762 
L 591.665171 553.603748 
L 594.740469 553.610649 
L 597.815767 554.885306 
L 600.891066 555.024041 
L 603.966364 554.711068 
L 607.041662 555.358933 
L 610.116961 548.083859 
L 613.192259 552.257857 
L 616.267557 552.271016 
L 619.342856 551.424712 
L 622.418154 553.761581 
L 625.493452 553.923814 
L 628.568751 554.585569 
L 631.644049 554.110659 
L 634.719348 554.057394 
L 637.794646 552.62643 
L 640.869944 547.889447 
L 643.945243 548.046549 
L 647.020541 584.24073 
L 650.095839 543.530593 
L 653.171138 539.939972 
L 656.246436 542.031704 
L 659.321734 542.092151 
L 662.397033 543.717912 
L 665.472331 545.630943 
L 668.547629 546.962341 
L 671.622928 547.958065 
L 674.698226 548.309092 
L 677.773524 546.03839 
L 680.848823 545.989332 
L 683.924121 539.244845 
L 686.999419 545.312481 
L 690.074718 547.945188 
L 693.150016 549.30157 
L 696.225315 551.484454 
L 699.300613 548.289237 
L 702.375911 550.192931 
L 705.45121 551.310127 
L 708.526508 550.194778 
L 711.601806 553.599926 
L 714.677105 552.141643 
L 717.752403 549.715751 
L 720.827701 545.542433 
L 723.903 549.550735 
L 726.978298 552.917701 
L 730.053596 551.240291 
L 733.128895 550.93586 
L 736.204193 553.742458 
L 739.279491 555.028646 
L 742.35479 557.252559 
L 745.430088 555.614691 
L 748.505386 555.576778 
L 751.580685 556.584673 
L 754.655983 555.163213 
L 757.731282 552.083158 
L 760.80658 555.926496 
L 763.881878 556.256386 
L 766.957177 558.067825 
L 770.032475 560.261149 
L 773.107773 559.132359 
L 776.183072 560.003032 
L 779.25837 560.756914 
L 782.333668 556.89476 
L 785.408967 559.295797 
L 788.484265 558.626641 
L 791.559563 556.092692 
L 794.634862 543.730661 
L 797.71016 551.598462 
L 800.785458 558.443593 
L 803.860757 553.05645 
L 806.936055 550.13047 
L 810.011353 551.351965 
L 813.086652 551.972575 
L 816.16195 551.211664 
L 819.237249 550.603828 
L 822.312547 549.142455 
L 825.387845 549.240238 
L 828.463144 547.730742 
L 831.538442 540.852201 
L 834.61374 545.900219 
L 837.689039 544.47545 
L 840.764337 543.661043 
L 843.839635 545.222072 
L 846.914934 541.704725 
L 849.990232 539.389018 
L 853.06553 537.542707 
L 856.140829 538.339478 
L 859.216127 537.101374 
L 862.291425 535.500187 
L 865.366724 534.710624 
L 868.442022 526.266141 
L 871.51732 528.747671 
L 874.592619 530.118803 
L 877.667917 528.797909 
L 880.743216 528.950907 
L 883.818514 533.621439 
L 886.893812 533.812735 
L 889.969111 535.525852 
L 893.044409 535.353987 
L 896.119707 539.616982 
L 899.195006 537.318577 
L 902.270304 536.022476 
L 905.345602 529.039225 
L 908.420901 533.712758 
L 911.496199 532.744135 
L 914.571497 535.886498 
L 917.646796 534.788822 
L 920.722094 534.268137 
L 923.797392 532.098707 
L 926.872691 531.967449 
L 929.947989 532.540874 
L 933.023287 533.494747 
L 936.098586 532.814189 
L 939.173884 525.41241 
L 942.249183 514.375916 
L 945.324481 522.73952 
L 948.399779 525.800773 
L 951.475078 525.824488 
L 954.550376 526.858432 
L 957.625674 529.075791 
L 960.700973 530.934723 
L 963.776271 529.361035 
L 966.851569 530.369841 
L 969.926868 530.916613 
L 973.002166 531.681654 
L 976.077464 529.476453 
L 979.152763 523.360233 
L 985.303359 529.011945 
L 988.378658 526.822494 
L 988.378658 526.822494 
" clip-path="url(#pc1bde9eda1)" style="fill: none; stroke: #ff7f0e; stroke-width: 1.5; stroke-linecap: square"/>
   </g>
   <g id="line2d_42">
    <path d="M 548.610994 659.116875 
L 548.610994 494.659375 
" clip-path="url(#pc1bde9eda1)" style="fill: none; stroke-dasharray: 7.4,3.2; stroke-dashoffset: 0; stroke: #0000ff; stroke-width: 2"/>
   </g>
   <g id="patch_14">
    <path d="M 61.6375 659.116875 
L 61.6375 494.659375 
" style="fill: none; stroke: #000000; stroke-width: 0.8; stroke-linejoin: miter; stroke-linecap: square"/>
   </g>
   <g id="patch_15">
    <path d="M 1032.509189 659.116875 
L 1032.509189 494.659375 
" style="fill: none; stroke: #000000; stroke-width: 0.8; stroke-linejoin: miter; stroke-linecap: square"/>
   </g>
   <g id="patch_16">
    <path d="M 61.6375 659.116875 
L 1032.509189 659.116875 
" style="fill: none; stroke: #000000; stroke-width: 0.8; stroke-linejoin: miter; stroke-linecap: square"/>
   </g>
   <g id="patch_17">
    <path d="M 61.6375 494.659375 
L 1032.509189 494.659375 
" style="fill: none; stroke: #000000; stroke-width: 0.8; stroke-linejoin: miter; stroke-linecap: square"/>
   </g>
   <g id="text_39">
    <!-- 云函数ID: 150 -->
    <g transform="translate(482.073345 488.659375) scale(0.2 -0.2)">
     <defs>
      <path id="SimSun-31" d="M 1825 4450 
L 1825 650 
Q 1825 450 1950 350 
Q 2075 250 2300 250 
L 2550 250 
L 2550 100 
L 725 100 
L 725 250 
L 950 250 
Q 1200 250 1312 350 
Q 1425 450 1425 650 
L 1425 3675 
Q 1425 3775 1362 3837 
Q 1300 3900 1175 3900 
L 725 3900 
L 725 4050 
L 950 4050 
Q 1250 4050 1437 4150 
Q 1625 4250 1725 4450 
L 1825 4450 
z
" transform="scale(0.015625)"/>
      <path id="SimSun-35" d="M 1725 2850 
Q 2200 2850 2500 2487 
Q 2800 2125 2800 1525 
Q 2800 850 2487 450 
Q 2175 50 1525 50 
Q 1075 50 725 312 
Q 375 575 375 950 
Q 375 1100 462 1212 
Q 550 1325 700 1325 
Q 850 1325 900 1225 
Q 950 1125 950 1050 
Q 950 900 875 825 
Q 800 725 800 625 
Q 800 425 1037 325 
Q 1275 225 1550 225 
Q 1950 225 2162 550 
Q 2375 875 2375 1475 
Q 2375 1975 2187 2287 
Q 2000 2600 1625 2600 
Q 1350 2600 1150 2500 
Q 950 2400 775 2075 
L 550 2100 
L 675 4375 
L 2725 4375 
L 2650 4000 
L 850 4000 
L 750 2350 
Q 1000 2700 1237 2775 
Q 1475 2850 1725 2850 
z
" transform="scale(0.015625)"/>
      <path id="SimSun-30" d="M 1600 4225 
Q 1250 4225 1012 3687 
Q 775 3150 775 2250 
Q 775 1300 1012 775 
Q 1250 250 1600 250 
Q 1975 250 2187 775 
Q 2400 1300 2400 2250 
Q 2400 3150 2200 3687 
Q 2000 4225 1600 4225 
z
M 1600 50 
Q 1050 50 675 625 
Q 300 1200 300 2250 
Q 300 3225 662 3825 
Q 1025 4425 1600 4425 
Q 2150 4425 2512 3850 
Q 2875 3275 2875 2250 
Q 2875 1225 2512 637 
Q 2150 50 1600 50 
z
" transform="scale(0.015625)"/>
     </defs>
     <use xlink:href="#SimSun-4e91"/>
     <use xlink:href="#SimSun-51fd" x="100"/>
     <use xlink:href="#SimSun-6570" x="200"/>
     <use xlink:href="#SimSun-49" x="300"/>
     <use xlink:href="#SimSun-44" x="350"/>
     <use xlink:href="#SimSun-3a" x="400"/>
     <use xlink:href="#SimSun-20" x="450"/>
     <use xlink:href="#SimSun-31" x="500"/>
     <use xlink:href="#SimSun-35" x="550"/>
     <use xlink:href="#SimSun-30" x="600"/>
    </g>
   </g>
  </g>
 </g>
 <defs>
  <clipPath id="p5a8542fe67">
   <rect x="61.6375" y="29.059375" width="970.871689" height="164.4575"/>
  </clipPath>
  <clipPath id="pd7426b5852">
   <rect x="61.6375" y="261.859375" width="970.871689" height="164.4575"/>
  </clipPath>
  <clipPath id="pc1bde9eda1">
   <rect x="61.6375" y="494.659375" width="970.871689" height="164.4575"/>
  </clipPath>
 </defs>
</svg>
