<?xml version="1.0" encoding="utf-8" standalone="no"?>
<!DOCTYPE svg PUBLIC "-//W3C//DTD SVG 1.1//EN"
  "http://www.w3.org/Graphics/SVG/1.1/DTD/svg11.dtd">
<svg xmlns:xlink="http://www.w3.org/1999/xlink" width="1050.557536pt" height="691.4825pt" viewBox="0 0 1050.557536 691.4825" xmlns="http://www.w3.org/2000/svg" version="1.1">
 <metadata>
  <rdf:RDF xmlns:dc="http://purl.org/dc/elements/1.1/" xmlns:cc="http://creativecommons.org/ns#" xmlns:rdf="http://www.w3.org/1999/02/22-rdf-syntax-ns#">
   <cc:Work>
    <dc:type rdf:resource="http://purl.org/dc/dcmitype/StillImage"/>
    <dc:date>2024-02-21T19:34:30.488153</dc:date>
    <dc:format>image/svg+xml</dc:format>
    <dc:creator>
     <cc:Agent>
      <dc:title>Matplotlib v3.7.4, https://matplotlib.org/</dc:title>
     </cc:Agent>
    </dc:creator>
   </cc:Work>
  </rdf:RDF>
 </metadata>
 <defs>
  <style type="text/css">*{stroke-linejoin: round; stroke-linecap: butt}</style>
 </defs>
 <g id="figure_1">
  <g id="patch_1">
   <path d="M 0 691.4825 
L 1050.557536 691.4825 
L 1050.557536 0 
L 0 0 
z
" style="fill: #ffffff"/>
  </g>
  <g id="axes_1">
   <g id="patch_2">
    <path d="M 61.6375 193.516875 
L 1032.509189 193.516875 
L 1032.509189 29.059375 
L 61.6375 29.059375 
z
" style="fill: #ffffff"/>
   </g>
   <g id="matplotlib.axis_1">
    <g id="xtick_1">
     <g id="line2d_1">
      <defs>
       <path id="m480a683647" d="M 0 0 
L 0 3.5 
" style="stroke: #000000; stroke-width: 0.8"/>
      </defs>
      <g>
       <use xlink:href="#m480a683647" x="105.768031" y="193.516875" style="stroke: #000000; stroke-width: 0.8"/>
      </g>
     </g>
     <g id="text_1">
      <!-- 0 -->
      <g transform="translate(100.768031 214.404375) scale(0.2 -0.2)">
       <defs>
        <path id="TimesNewRomanPSMT-30" d="M 231 2094 
Q 231 2819 450 3342 
Q 669 3866 1031 4122 
Q 1313 4325 1613 4325 
Q 2100 4325 2488 3828 
Q 2972 3213 2972 2159 
Q 2972 1422 2759 906 
Q 2547 391 2217 158 
Q 1888 -75 1581 -75 
Q 975 -75 572 641 
Q 231 1244 231 2094 
z
M 844 2016 
Q 844 1141 1059 588 
Q 1238 122 1591 122 
Q 1759 122 1940 273 
Q 2122 425 2216 781 
Q 2359 1319 2359 2297 
Q 2359 3022 2209 3506 
Q 2097 3866 1919 4016 
Q 1791 4119 1609 4119 
Q 1397 4119 1231 3928 
Q 1006 3669 925 3112 
Q 844 2556 844 2016 
z
" transform="scale(0.015625)"/>
       </defs>
       <use xlink:href="#TimesNewRomanPSMT-30"/>
      </g>
     </g>
    </g>
    <g id="xtick_2">
     <g id="line2d_2">
      <g>
       <use xlink:href="#m480a683647" x="259.532949" y="193.516875" style="stroke: #000000; stroke-width: 0.8"/>
      </g>
     </g>
     <g id="text_2">
      <!-- 50 -->
      <g transform="translate(249.532949 214.404375) scale(0.2 -0.2)">
       <defs>
        <path id="TimesNewRomanPSMT-35" d="M 2778 4238 
L 2534 3706 
L 1259 3706 
L 981 3138 
Q 1809 3016 2294 2522 
Q 2709 2097 2709 1522 
Q 2709 1188 2573 903 
Q 2438 619 2231 419 
Q 2025 219 1772 97 
Q 1413 -75 1034 -75 
Q 653 -75 479 54 
Q 306 184 306 341 
Q 306 428 378 495 
Q 450 563 559 563 
Q 641 563 702 538 
Q 763 513 909 409 
Q 1144 247 1384 247 
Q 1750 247 2026 523 
Q 2303 800 2303 1197 
Q 2303 1581 2056 1914 
Q 1809 2247 1375 2428 
Q 1034 2569 447 2591 
L 1259 4238 
L 2778 4238 
z
" transform="scale(0.015625)"/>
       </defs>
       <use xlink:href="#TimesNewRomanPSMT-35"/>
       <use xlink:href="#TimesNewRomanPSMT-30" x="50"/>
      </g>
     </g>
    </g>
    <g id="xtick_3">
     <g id="line2d_3">
      <g>
       <use xlink:href="#m480a683647" x="413.297866" y="193.516875" style="stroke: #000000; stroke-width: 0.8"/>
      </g>
     </g>
     <g id="text_3">
      <!-- 100 -->
      <g transform="translate(398.297866 214.404375) scale(0.2 -0.2)">
       <defs>
        <path id="TimesNewRomanPSMT-31" d="M 750 3822 
L 1781 4325 
L 1884 4325 
L 1884 747 
Q 1884 391 1914 303 
Q 1944 216 2037 169 
Q 2131 122 2419 116 
L 2419 0 
L 825 0 
L 825 116 
Q 1125 122 1212 167 
Q 1300 213 1334 289 
Q 1369 366 1369 747 
L 1369 3034 
Q 1369 3497 1338 3628 
Q 1316 3728 1258 3775 
Q 1200 3822 1119 3822 
Q 1003 3822 797 3725 
L 750 3822 
z
" transform="scale(0.015625)"/>
       </defs>
       <use xlink:href="#TimesNewRomanPSMT-31"/>
       <use xlink:href="#TimesNewRomanPSMT-30" x="50"/>
       <use xlink:href="#TimesNewRomanPSMT-30" x="100"/>
      </g>
     </g>
    </g>
    <g id="xtick_4">
     <g id="line2d_4">
      <g>
       <use xlink:href="#m480a683647" x="567.062784" y="193.516875" style="stroke: #000000; stroke-width: 0.8"/>
      </g>
     </g>
     <g id="text_4">
      <!-- 150 -->
      <g transform="translate(552.062784 214.404375) scale(0.2 -0.2)">
       <use xlink:href="#TimesNewRomanPSMT-31"/>
       <use xlink:href="#TimesNewRomanPSMT-35" x="50"/>
       <use xlink:href="#TimesNewRomanPSMT-30" x="100"/>
      </g>
     </g>
    </g>
    <g id="xtick_5">
     <g id="line2d_5">
      <g>
       <use xlink:href="#m480a683647" x="720.827701" y="193.516875" style="stroke: #000000; stroke-width: 0.8"/>
      </g>
     </g>
     <g id="text_5">
      <!-- 200 -->
      <g transform="translate(705.827701 214.404375) scale(0.2 -0.2)">
       <defs>
        <path id="TimesNewRomanPSMT-32" d="M 2934 816 
L 2638 0 
L 138 0 
L 138 116 
Q 1241 1122 1691 1759 
Q 2141 2397 2141 2925 
Q 2141 3328 1894 3587 
Q 1647 3847 1303 3847 
Q 991 3847 742 3664 
Q 494 3481 375 3128 
L 259 3128 
Q 338 3706 661 4015 
Q 984 4325 1469 4325 
Q 1984 4325 2329 3994 
Q 2675 3663 2675 3213 
Q 2675 2891 2525 2569 
Q 2294 2063 1775 1497 
Q 997 647 803 472 
L 1909 472 
Q 2247 472 2383 497 
Q 2519 522 2628 598 
Q 2738 675 2819 816 
L 2934 816 
z
" transform="scale(0.015625)"/>
       </defs>
       <use xlink:href="#TimesNewRomanPSMT-32"/>
       <use xlink:href="#TimesNewRomanPSMT-30" x="50"/>
       <use xlink:href="#TimesNewRomanPSMT-30" x="100"/>
      </g>
     </g>
    </g>
    <g id="xtick_6">
     <g id="line2d_6">
      <g>
       <use xlink:href="#m480a683647" x="874.592619" y="193.516875" style="stroke: #000000; stroke-width: 0.8"/>
      </g>
     </g>
     <g id="text_6">
      <!-- 250 -->
      <g transform="translate(859.592619 214.404375) scale(0.2 -0.2)">
       <use xlink:href="#TimesNewRomanPSMT-32"/>
       <use xlink:href="#TimesNewRomanPSMT-35" x="50"/>
       <use xlink:href="#TimesNewRomanPSMT-30" x="100"/>
      </g>
     </g>
    </g>
    <g id="xtick_7">
     <g id="line2d_7">
      <g>
       <use xlink:href="#m480a683647" x="1028.357536" y="193.516875" style="stroke: #000000; stroke-width: 0.8"/>
      </g>
     </g>
     <g id="text_7">
      <!-- 300 -->
      <g transform="translate(1013.357536 214.404375) scale(0.2 -0.2)">
       <defs>
        <path id="TimesNewRomanPSMT-33" d="M 325 3431 
Q 506 3859 782 4092 
Q 1059 4325 1472 4325 
Q 1981 4325 2253 3994 
Q 2459 3747 2459 3466 
Q 2459 3003 1878 2509 
Q 2269 2356 2469 2072 
Q 2669 1788 2669 1403 
Q 2669 853 2319 450 
Q 1863 -75 997 -75 
Q 569 -75 414 31 
Q 259 138 259 259 
Q 259 350 332 419 
Q 406 488 509 488 
Q 588 488 669 463 
Q 722 447 909 348 
Q 1097 250 1169 231 
Q 1284 197 1416 197 
Q 1734 197 1970 444 
Q 2206 691 2206 1028 
Q 2206 1275 2097 1509 
Q 2016 1684 1919 1775 
Q 1784 1900 1550 2001 
Q 1316 2103 1072 2103 
L 972 2103 
L 972 2197 
Q 1219 2228 1467 2375 
Q 1716 2522 1828 2728 
Q 1941 2934 1941 3181 
Q 1941 3503 1739 3701 
Q 1538 3900 1238 3900 
Q 753 3900 428 3381 
L 325 3431 
z
" transform="scale(0.015625)"/>
       </defs>
       <use xlink:href="#TimesNewRomanPSMT-33"/>
       <use xlink:href="#TimesNewRomanPSMT-30" x="50"/>
       <use xlink:href="#TimesNewRomanPSMT-30" x="100"/>
      </g>
     </g>
    </g>
   </g>
   <g id="matplotlib.axis_2">
    <g id="ytick_1">
     <g id="line2d_8">
      <defs>
       <path id="m210198db9b" d="M 0 0 
L -3.5 0 
" style="stroke: #000000; stroke-width: 0.8"/>
      </defs>
      <g>
       <use xlink:href="#m210198db9b" x="61.6375" y="191.414184" style="stroke: #000000; stroke-width: 0.8"/>
      </g>
     </g>
     <g id="text_8">
      <!-- 0.0 -->
      <g transform="translate(29.6375 198.357934) scale(0.2 -0.2)">
       <defs>
        <path id="TimesNewRomanPSMT-2e" d="M 800 606 
Q 947 606 1047 504 
Q 1147 403 1147 259 
Q 1147 116 1045 14 
Q 944 -88 800 -88 
Q 656 -88 554 14 
Q 453 116 453 259 
Q 453 406 554 506 
Q 656 606 800 606 
z
" transform="scale(0.015625)"/>
       </defs>
       <use xlink:href="#TimesNewRomanPSMT-30"/>
       <use xlink:href="#TimesNewRomanPSMT-2e" x="50"/>
       <use xlink:href="#TimesNewRomanPSMT-30" x="75"/>
      </g>
     </g>
    </g>
    <g id="ytick_2">
     <g id="line2d_9">
      <g>
       <use xlink:href="#m210198db9b" x="61.6375" y="143.358249" style="stroke: #000000; stroke-width: 0.8"/>
      </g>
     </g>
     <g id="text_9">
      <!-- 1.0 -->
      <g transform="translate(29.6375 150.301999) scale(0.2 -0.2)">
       <use xlink:href="#TimesNewRomanPSMT-31"/>
       <use xlink:href="#TimesNewRomanPSMT-2e" x="50"/>
       <use xlink:href="#TimesNewRomanPSMT-30" x="75"/>
      </g>
     </g>
    </g>
    <g id="ytick_3">
     <g id="line2d_10">
      <g>
       <use xlink:href="#m210198db9b" x="61.6375" y="95.302314" style="stroke: #000000; stroke-width: 0.8"/>
      </g>
     </g>
     <g id="text_10">
      <!-- 2.0 -->
      <g transform="translate(29.6375 102.246064) scale(0.2 -0.2)">
       <use xlink:href="#TimesNewRomanPSMT-32"/>
       <use xlink:href="#TimesNewRomanPSMT-2e" x="50"/>
       <use xlink:href="#TimesNewRomanPSMT-30" x="75"/>
      </g>
     </g>
    </g>
    <g id="ytick_4">
     <g id="line2d_11">
      <g>
       <use xlink:href="#m210198db9b" x="61.6375" y="47.24638" style="stroke: #000000; stroke-width: 0.8"/>
      </g>
     </g>
     <g id="text_11">
      <!-- 3.0 -->
      <g transform="translate(29.6375 54.19013) scale(0.2 -0.2)">
       <use xlink:href="#TimesNewRomanPSMT-33"/>
       <use xlink:href="#TimesNewRomanPSMT-2e" x="50"/>
       <use xlink:href="#TimesNewRomanPSMT-30" x="75"/>
      </g>
     </g>
    </g>
    <g id="text_12">
     <!-- CPU使用率 -->
     <g transform="translate(23.059375 156.288125) rotate(-90) scale(0.2 -0.2)">
      <defs>
       <path id="SimSun-43" d="M 1725 50 
Q 1025 50 612 575 
Q 200 1100 200 2225 
Q 200 3175 637 3800 
Q 1075 4425 1825 4425 
Q 2000 4425 2175 4375 
Q 2350 4300 2475 4300 
Q 2575 4300 2637 4325 
Q 2700 4350 2750 4425 
L 2975 3325 
L 2825 3275 
Q 2675 3750 2425 4000 
Q 2175 4250 1775 4250 
Q 1250 4250 962 3675 
Q 675 3100 675 2250 
Q 675 1325 925 800 
Q 1175 275 1750 275 
Q 2150 275 2437 562 
Q 2725 850 2825 1325 
L 2975 1250 
Q 2850 725 2512 387 
Q 2175 50 1725 50 
z
" transform="scale(0.015625)"/>
       <path id="SimSun-50" d="M 950 2100 
L 950 450 
Q 950 350 1012 300 
Q 1075 250 1175 250 
L 1350 250 
L 1350 100 
L 150 100 
L 150 250 
L 325 250 
Q 450 250 500 300 
Q 550 350 550 450 
L 550 4025 
Q 550 4125 500 4175 
Q 450 4225 325 4225 
L 175 4225 
L 175 4375 
L 1650 4375 
Q 2275 4375 2612 4062 
Q 2950 3750 2950 3275 
Q 2950 2700 2587 2400 
Q 2225 2100 1725 2100 
L 950 2100 
z
M 1575 2250 
Q 1950 2250 2237 2475 
Q 2525 2700 2525 3250 
Q 2525 3750 2287 3987 
Q 2050 4225 1525 4225 
L 1175 4225 
Q 1075 4225 1012 4175 
Q 950 4125 950 4025 
L 950 2250 
L 1575 2250 
z
" transform="scale(0.015625)"/>
       <path id="SimSun-55" d="M 1625 250 
Q 2000 250 2262 500 
Q 2525 750 2525 1125 
L 2525 4025 
Q 2525 4125 2475 4175 
Q 2425 4225 2300 4225 
L 2150 4225 
L 2150 4375 
L 3050 4375 
L 3050 4225 
L 2900 4225 
Q 2800 4225 2737 4175 
Q 2675 4125 2675 4025 
L 2675 1125 
Q 2675 625 2337 337 
Q 2000 50 1575 50 
Q 1125 50 787 300 
Q 450 550 450 1100 
L 450 4025 
Q 450 4125 400 4175 
Q 350 4225 225 4225 
L 100 4225 
L 100 4375 
L 1200 4375 
L 1200 4225 
L 1075 4225 
Q 975 4225 912 4175 
Q 850 4125 850 4025 
L 850 1100 
Q 850 600 1062 425 
Q 1275 250 1625 250 
z
" transform="scale(0.015625)"/>
       <path id="SimSun-4f7f" d="M 2875 3150 
L 2875 2100 
L 3825 2100 
Q 3850 2825 3850 3150 
L 2875 3150 
z
M 4175 3150 
Q 4175 2800 4150 2100 
L 5150 2100 
L 5150 3150 
L 4175 3150 
z
M 5475 3100 
L 5475 2425 
Q 5475 2100 5500 1800 
L 5150 1675 
L 5150 1950 
L 4150 1950 
Q 4125 1175 3875 600 
Q 4275 275 4875 75 
Q 5475 -125 6075 -150 
L 6075 -250 
Q 5700 -300 5600 -575 
Q 4525 -325 3725 350 
Q 3425 25 2925 -225 
Q 2425 -475 1875 -650 
L 1825 -550 
Q 2400 -325 2850 -25 
Q 3300 275 3500 575 
Q 3200 925 2825 1650 
L 2900 1700 
Q 3325 1100 3625 825 
Q 3800 1300 3825 1950 
L 2875 1950 
L 2875 1825 
L 2525 1675 
Q 2550 2075 2550 2562 
Q 2550 3050 2525 3500 
L 2875 3300 
L 3850 3300 
L 3850 4025 
L 2975 4025 
Q 2650 4025 2375 3950 
L 2150 4175 
L 3850 4175 
L 3850 4525 
Q 3850 4775 3825 5225 
L 4350 5000 
L 4175 4825 
L 4175 4175 
L 5300 4175 
L 5600 4475 
L 6050 4025 
L 4175 4025 
L 4175 3300 
L 5100 3300 
L 5275 3525 
L 5650 3225 
L 5475 3100 
z
M 1675 3175 
L 1675 -450 
L 1325 -625 
Q 1350 -75 1350 350 
L 1350 3200 
Q 900 2475 350 1900 
L 275 1950 
Q 700 2525 1112 3400 
Q 1525 4275 1800 5250 
L 2325 4925 
L 2125 4800 
Q 1725 3925 1500 3525 
L 1875 3325 
L 1675 3175 
z
" transform="scale(0.015625)"/>
       <path id="SimSun-7528" d="M 3400 3150 
L 3400 1825 
L 5075 1825 
L 5075 3150 
L 3400 3150 
z
M 4075 100 
Q 4725 50 4900 62 
Q 5075 75 5075 400 
L 5075 1675 
L 3400 1675 
Q 3400 75 3425 -225 
L 3050 -400 
Q 3075 1025 3075 1675 
L 1425 1675 
Q 1250 350 375 -600 
L 300 -550 
Q 775 225 950 1025 
Q 1125 1825 1125 3225 
Q 1125 4625 1100 5075 
L 1475 4825 
L 5050 4825 
L 5225 5100 
L 5625 4800 
L 5425 4600 
L 5425 225 
Q 5450 -400 4875 -575 
Q 4825 -150 4075 -25 
L 4075 100 
z
M 1475 4675 
L 1475 3300 
L 3075 3300 
L 3075 4675 
L 1475 4675 
z
M 3400 4675 
L 3400 3300 
L 5075 3300 
L 5075 4675 
L 3400 4675 
z
M 1475 3150 
Q 1450 2100 1425 1825 
L 3075 1825 
L 3075 3150 
L 1475 3150 
z
" transform="scale(0.015625)"/>
       <path id="SimSun-7387" d="M 875 3725 
L 925 3800 
Q 1375 3650 1550 3525 
Q 1725 3400 1725 3250 
Q 1725 3175 1662 3025 
Q 1600 2875 1550 2875 
Q 1500 2875 1425 3050 
Q 1275 3325 875 3725 
z
M 550 1850 
Q 875 1925 2000 2575 
L 2050 2500 
Q 1675 2225 1337 1937 
Q 1000 1650 875 1425 
L 550 1850 
z
M 5200 3450 
Q 4800 3150 4275 2800 
L 4225 2875 
Q 4775 3400 5050 3925 
L 5450 3525 
L 5200 3450 
z
M 4325 2500 
L 4350 2575 
Q 5225 2350 5375 2212 
Q 5525 2075 5525 1900 
Q 5525 1775 5487 1662 
Q 5450 1550 5400 1550 
Q 5325 1550 5200 1800 
Q 4975 2150 4325 2500 
z
M 3150 3900 
Q 2500 3300 2300 3150 
Q 2800 3150 3400 3175 
Q 3700 3500 3850 3825 
L 4250 3450 
Q 4050 3400 3450 2825 
Q 2850 2250 2475 1950 
Q 3150 1975 3850 2000 
Q 3750 2175 3550 2450 
L 3600 2500 
Q 4050 2250 4200 2100 
Q 4350 1950 4350 1850 
Q 4350 1775 4250 1625 
Q 4150 1475 4100 1475 
Q 4075 1475 4050 1550 
Q 4000 1700 3900 1900 
Q 3650 1875 3075 1800 
L 3500 1550 
L 3325 1425 
L 3325 975 
L 5325 975 
L 5650 1300 
L 6100 825 
L 3325 825 
Q 3325 -275 3350 -525 
L 2975 -650 
Q 3000 0 3000 825 
L 1125 825 
Q 800 825 525 750 
L 300 975 
L 3000 975 
L 3000 1775 
Q 2450 1700 2200 1525 
L 1950 1950 
Q 2275 1950 2675 2350 
Q 3075 2750 3325 3050 
Q 2400 2950 2150 2775 
L 1950 3175 
Q 2150 3150 2475 3575 
Q 2800 4000 2900 4225 
L 1450 4225 
Q 1125 4225 850 4150 
L 625 4375 
L 3100 4375 
Q 3050 4800 2675 5200 
L 2725 5250 
Q 3225 5050 3337 4912 
Q 3450 4775 3450 4700 
Q 3450 4550 3250 4375 
L 5025 4375 
L 5350 4675 
L 5775 4225 
L 3050 4225 
L 3375 3950 
L 3150 3900 
z
" transform="scale(0.015625)"/>
      </defs>
      <use xlink:href="#SimSun-43"/>
      <use xlink:href="#SimSun-50" x="50"/>
      <use xlink:href="#SimSun-55" x="100"/>
      <use xlink:href="#SimSun-4f7f" x="150"/>
      <use xlink:href="#SimSun-7528" x="250"/>
      <use xlink:href="#SimSun-7387" x="350"/>
     </g>
    </g>
   </g>
   <g id="line2d_12">
    <path d="M 105.768031 115.947144 
L 108.84333 122.425088 
L 111.918628 129.566199 
L 114.993926 134.525569 
L 118.069225 136.697697 
L 121.144523 141.762791 
L 124.219821 157.707752 
L 127.29512 143.66581 
L 130.370418 150.787701 
L 133.445716 149.05288 
L 136.521015 158.543927 
L 139.596313 158.995653 
L 142.671612 158.121033 
L 145.74691 162.052008 
L 148.822208 162.032788 
L 151.897507 161.821341 
L 154.972805 165.819594 
L 158.048103 166.473154 
L 161.123402 166.569271 
L 164.1987 167.001771 
L 167.273998 168.414614 
L 170.349297 167.395831 
L 173.424595 165.387087 
L 176.499893 173.835323 
L 179.575192 177.463541 
L 182.65049 170.923132 
L 185.725788 173.268267 
L 188.801087 183.754064 
L 191.876385 184.729607 
L 194.951683 184.619072 
L 198.026982 175.305833 
L 201.10228 176.795568 
L 204.177579 182.711255 
L 207.252877 178.3718 
L 210.328175 181.682859 
L 213.403474 182.78334 
L 216.478772 180.034537 
L 219.55407 181.942364 
L 222.629369 184.325933 
L 225.704667 185.099636 
L 228.779965 183.398454 
L 231.855264 178.059442 
L 234.930562 179.342531 
L 238.00586 178.515975 
L 241.081159 179.323311 
L 244.156457 176.978176 
L 247.231755 176.103562 
L 250.307054 174.930997 
L 253.382352 175.988226 
L 256.45765 175.325058 
L 259.532949 166.521207 
L 262.608247 172.316756 
L 265.683546 158.241176 
L 268.758844 149.648775 
L 271.834142 140.234616 
L 274.909441 124.231987 
L 277.984739 125.020103 
L 281.060037 131.555712 
L 284.135336 128.537797 
L 287.210634 126.096557 
L 290.285932 104.485804 
L 293.361231 93.706856 
L 296.436529 109.815209 
L 299.511827 91.477057 
L 302.587126 101.391003 
L 305.662424 106.162953 
L 308.737722 85.311483 
L 311.813021 83.490165 
L 314.888319 89.92005 
L 317.963617 90.237215 
L 321.038916 94.216253 
L 324.114214 85.479678 
L 327.189513 74.095234 
L 330.264811 54.887269 
L 333.340109 80.544334 
L 336.415408 76.224105 
L 339.490706 65.382686 
L 342.566004 59.43337 
L 345.641303 79.078631 
L 348.716601 40.095662 
L 351.791899 66.699419 
L 354.867198 65.031882 
L 361.017794 84.874176 
L 364.093093 73.201395 
L 367.168391 50.172985 
L 370.243689 69.75578 
L 373.318988 66.348616 
L 376.394286 71.154204 
L 379.469584 67.420263 
L 382.544883 56.670148 
L 385.620181 59.481423 
L 388.69548 59.750535 
L 391.770778 57.597627 
L 394.846076 64.460019 
L 397.921375 67.151151 
L 400.996673 50.634318 
L 404.071971 57.38138 
L 407.14727 70.519864 
L 410.222568 79.712972 
L 413.297866 52.662283 
L 416.373165 36.534716 
L 419.448463 71.404102 
L 422.523761 75.676268 
L 425.59906 78.444291 
L 428.674358 72.937083 
L 431.749656 75.647441 
L 434.824955 74.840093 
L 437.900253 71.601124 
L 440.975551 73.408029 
L 444.05085 73.225421 
L 447.126148 52.162498 
L 450.201447 71.312787 
L 453.276745 84.730007 
L 456.352043 92.918746 
L 459.427342 79.381382 
L 462.50264 91.630839 
L 465.577938 82.423329 
L 468.653237 47.851882 
L 471.728535 52.080807 
L 474.803833 55.814748 
L 477.879132 44.310162 
L 480.95443 50.062455 
L 484.029728 51.138915 
L 487.105027 53.830047 
L 490.180325 72.85058 
L 493.255623 72.245078 
L 496.330922 71.005235 
L 499.40622 71.726068 
L 502.481518 76.079936 
L 505.556817 78.963301 
L 508.632115 82.394491 
L 511.707414 83.461338 
L 514.782712 80.520308 
L 517.85801 87.469203 
L 520.933309 91.289648 
L 524.008607 92.467014 
L 527.083905 97.633024 
L 530.159204 101.093053 
L 533.234502 106.744435 
L 536.3098 117.677158 
L 539.385099 120.598957 
L 542.460397 125.962001 
L 545.535695 132.012239 
L 548.610994 134.943657 
L 551.686292 139.138937 
L 554.76159 140.595033 
L 557.836889 141.416788 
L 560.912187 145.568822 
L 563.987485 145.482325 
L 567.062784 155.112731 
L 570.138082 140.638285 
L 573.213381 142.440378 
L 576.288679 152.671491 
L 579.363977 164.733533 
L 582.439276 171.096133 
L 585.514574 170.019685 
L 588.589872 172.749257 
L 591.665171 174.104435 
L 594.740469 177.199236 
L 597.815767 182.278749 
L 603.966364 180.827465 
L 607.041662 179.068612 
L 610.116961 174.402386 
L 619.342856 177.055073 
L 622.418154 177.487573 
L 625.493452 176.175646 
L 631.644049 178.208412 
L 634.719348 180.01051 
L 637.794646 183.79251 
L 640.869944 178.996528 
L 643.945243 175.228948 
L 647.020541 181.48102 
L 650.095839 181.947165 
L 653.171138 181.178274 
L 656.246436 178.833139 
L 659.321734 182.322 
L 662.397033 183.946286 
L 665.472331 186.041534 
L 668.547629 185.911779 
L 674.698226 177.99697 
L 680.848823 178.785081 
L 683.924121 175.353891 
L 686.999419 175.671061 
L 690.074718 175.29622 
L 693.150016 173.441262 
L 696.225315 171.989979 
L 699.300613 164.85367 
L 702.375911 165.675425 
L 705.45121 171.000028 
L 708.526508 158.510288 
L 711.601806 156.900416 
L 714.677105 143.190054 
L 717.752403 140.859338 
L 720.827701 144.011812 
L 723.903 149.18263 
L 726.978298 148.798181 
L 730.053596 147.74095 
L 733.128895 135.025354 
L 739.279491 90.655308 
L 742.35479 116.446928 
L 745.430088 105.754479 
L 748.505386 102.606814 
L 751.580685 86.503273 
L 754.655983 73.917427 
L 757.731282 85.191352 
L 760.80658 90.977284 
L 763.881878 79.511138 
L 766.957177 82.682829 
L 770.032475 82.855824 
L 773.107773 85.662298 
L 776.183072 96.671907 
L 779.25837 79.775438 
L 782.333668 75.849275 
L 785.408967 80.087801 
L 788.484265 114.053741 
L 791.559563 80.318474 
L 794.634862 90.496726 
L 797.71016 102.083009 
L 800.785458 108.25339 
L 803.860757 108.878117 
L 806.936055 105.394063 
L 810.011353 85.220179 
L 813.086652 104.485804 
L 816.16195 107.244214 
L 819.237249 109.430761 
L 822.312547 118.39319 
L 825.387845 97.76278 
L 828.463144 104.769335 
L 831.538442 108.037136 
L 834.61374 115.149415 
L 837.689039 114.64483 
L 840.764337 117.359988 
L 843.839635 99.617737 
L 846.914934 95.369592 
L 849.990232 95.427258 
L 853.06553 87.930537 
L 856.140829 83.519003 
L 859.216127 77.80995 
L 862.291425 78.963301 
L 865.366724 91.159893 
L 868.442022 110.194851 
L 871.51732 103.923548 
L 874.592619 112.813898 
L 877.667917 114.260382 
L 880.743216 109.526871 
L 883.818514 96.325904 
L 886.893812 104.000438 
L 889.969111 106.739629 
L 893.044409 107.556578 
L 896.119707 108.950202 
L 899.195006 110.944522 
L 902.270304 110.463963 
L 905.345602 91.212757 
L 908.420901 84.355178 
L 911.496199 71.740492 
L 914.571497 47.270406 
L 917.646796 65.166438 
L 920.722094 74.926597 
L 923.797392 71.120565 
L 926.872691 81.587155 
L 929.947989 87.180866 
L 933.023287 88.363043 
L 936.098586 80.491481 
L 939.173884 76.709476 
L 942.249183 65.334633 
L 945.324481 82.27916 
L 948.399779 87.3827 
L 951.475078 88.709046 
L 954.550376 82.721268 
L 957.625674 89.650938 
L 960.700973 92.947572 
L 963.776271 100.828747 
L 966.851569 97.416777 
L 969.926868 99.819571 
L 973.002166 110.603325 
L 976.077464 115.139802 
L 979.152763 116.65837 
L 982.228061 118.792058 
L 985.303359 127.538234 
L 988.378658 126.461786 
L 988.378658 126.461786 
" clip-path="url(#p132fe7226b)" style="fill: none; stroke: #1f77b4; stroke-width: 1.5; stroke-linecap: square"/>
   </g>
   <g id="line2d_13">
    <path d="M 548.610994 122.202098 
L 551.686292 122.247148 
L 554.76159 126.074949 
L 557.836889 129.429867 
L 560.912187 130.017581 
L 563.987485 133.781994 
L 567.062784 132.761939 
L 570.138082 137.987769 
L 573.213381 140.061334 
L 576.288679 143.541445 
L 579.363977 145.23363 
L 582.439276 149.026665 
L 585.514574 150.714236 
L 588.589872 154.263747 
L 591.665171 154.508185 
L 594.740469 154.526483 
L 597.815767 157.616265 
L 600.891066 164.350494 
L 603.966364 164.597424 
L 607.041662 167.24904 
L 610.116961 170.274212 
L 613.192259 170.966962 
L 616.267557 172.522669 
L 619.342856 173.558913 
L 622.418154 173.710833 
L 625.493452 170.947101 
L 631.644049 175.688247 
L 634.719348 174.601522 
L 640.869944 176.913636 
L 643.945243 178.199916 
L 647.020541 180.58109 
L 650.095839 179.759381 
L 653.171138 181.820131 
L 656.246436 179.582237 
L 659.321734 180.494587 
L 662.397033 181.185154 
L 665.472331 180.152915 
L 668.547629 179.458308 
L 671.622928 179.329784 
L 674.698226 175.618821 
L 677.773524 172.595544 
L 680.848823 170.768474 
L 683.924121 170.338287 
L 686.999419 169.46581 
L 690.074718 164.401176 
L 693.150016 163.862161 
L 696.225315 160.103529 
L 699.300613 155.462291 
L 702.375911 153.577464 
L 705.45121 148.676372 
L 708.526508 147.358066 
L 717.752403 134.156159 
L 720.827701 130.736329 
L 723.903 126.671033 
L 726.978298 120.966345 
L 733.128895 113.992988 
L 736.204193 108.120357 
L 739.279491 105.620158 
L 742.35479 99.939645 
L 748.505386 93.150758 
L 751.580685 88.447966 
L 754.655983 85.063029 
L 757.731282 83.156799 
L 760.80658 80.906194 
L 763.881878 80.465793 
L 766.957177 75.786568 
L 770.032475 74.407747 
L 773.107773 72.275291 
L 776.183072 69.291605 
L 779.25837 70.386419 
L 782.333668 66.303152 
L 785.408967 65.932184 
L 788.484265 63.044144 
L 791.559563 63.30951 
L 794.634862 65.972743 
L 797.71016 63.050022 
L 803.860757 61.713674 
L 806.936055 61.679565 
L 810.011353 63.57688 
L 813.086652 63.655753 
L 816.16195 60.773511 
L 819.237249 61.32655 
L 822.312547 65.40072 
L 825.387845 63.54268 
L 828.463144 63.065501 
L 831.538442 65.634256 
L 834.61374 65.80794 
L 837.689039 68.20866 
L 840.764337 69.310521 
L 843.839635 69.407405 
L 846.914934 66.599224 
L 849.990232 71.274336 
L 853.06553 74.490733 
L 859.216127 74.30832 
L 862.291425 71.521965 
L 865.366724 72.170925 
L 868.442022 75.036497 
L 871.51732 75.419782 
L 874.592619 73.528951 
L 877.667917 73.651958 
L 880.743216 71.492932 
L 883.818514 70.166414 
L 886.893812 70.608659 
L 889.969111 70.708854 
L 896.119707 70.691485 
L 899.195006 68.964449 
L 902.270304 68.989724 
L 905.345602 70.511214 
L 908.420901 69.870193 
L 911.496199 69.090241 
L 914.571497 69.299717 
L 917.646796 68.639792 
L 920.722094 70.460343 
L 923.797392 69.482875 
L 926.872691 72.024133 
L 929.947989 72.705151 
L 933.023287 73.926994 
L 936.098586 77.314474 
L 939.173884 78.64994 
L 942.249183 80.678913 
L 945.324481 81.838806 
L 948.399779 81.365683 
L 951.475078 88.806698 
L 954.550376 90.621703 
L 957.625674 90.382839 
L 960.700973 91.718866 
L 963.776271 97.665707 
L 966.851569 97.034746 
L 969.926868 98.321719 
L 973.002166 101.966292 
L 976.077464 104.895939 
L 979.152763 106.14846 
L 982.228061 109.924043 
L 985.303359 110.834313 
L 988.378658 117.243042 
L 988.378658 117.243042 
" clip-path="url(#p132fe7226b)" style="fill: none; stroke: #ff7f0e; stroke-width: 1.5; stroke-linecap: square"/>
   </g>
   <g id="line2d_14">
    <path d="M 548.610994 193.516875 
L 548.610994 29.059375 
" clip-path="url(#p132fe7226b)" style="fill: none; stroke-dasharray: 7.4,3.2; stroke-dashoffset: 0; stroke: #0000ff; stroke-width: 2"/>
   </g>
   <g id="patch_3">
    <path d="M 61.6375 193.516875 
L 61.6375 29.059375 
" style="fill: none; stroke: #000000; stroke-width: 0.8; stroke-linejoin: miter; stroke-linecap: square"/>
   </g>
   <g id="patch_4">
    <path d="M 1032.509189 193.516875 
L 1032.509189 29.059375 
" style="fill: none; stroke: #000000; stroke-width: 0.8; stroke-linejoin: miter; stroke-linecap: square"/>
   </g>
   <g id="patch_5">
    <path d="M 61.6375 193.516875 
L 1032.509189 193.516875 
" style="fill: none; stroke: #000000; stroke-width: 0.8; stroke-linejoin: miter; stroke-linecap: square"/>
   </g>
   <g id="patch_6">
    <path d="M 61.6375 29.059375 
L 1032.509189 29.059375 
" style="fill: none; stroke: #000000; stroke-width: 0.8; stroke-linejoin: miter; stroke-linecap: square"/>
   </g>
   <g id="text_13">
    <!-- 云函数ID: 28 -->
    <g transform="translate(487.073345 23.059375) scale(0.2 -0.2)">
     <defs>
      <path id="SimSun-4e91" d="M 1200 4450 
L 4500 4450 
L 4850 4800 
L 5350 4300 
L 1975 4300 
Q 1700 4300 1425 4225 
L 1200 4450 
z
M 1600 275 
Q 2300 300 4725 450 
Q 4425 975 3850 1700 
L 3925 1775 
Q 5200 725 5287 500 
Q 5375 275 5375 175 
Q 5375 0 5250 -162 
Q 5125 -325 5075 -325 
Q 5025 -325 4975 -200 
Q 4875 50 4775 300 
Q 1650 -25 1300 -300 
L 975 300 
Q 1225 350 1462 550 
Q 1700 750 2150 1462 
Q 2600 2175 2725 2600 
L 1250 2600 
Q 925 2600 650 2525 
L 425 2750 
L 5025 2750 
L 5450 3175 
L 6025 2600 
L 3250 2600 
Q 3000 2025 2500 1375 
Q 2000 725 1600 275 
z
" transform="scale(0.015625)"/>
      <path id="SimSun-51fd" d="M 3050 2275 
L 3050 3000 
Q 3050 3450 3025 3800 
L 3275 3625 
L 4450 4475 
L 1650 4475 
Q 1325 4475 1050 4400 
L 825 4625 
L 4450 4625 
L 4775 4875 
L 5150 4375 
Q 4875 4325 4550 4175 
Q 4225 4025 3400 3550 
L 3550 3450 
L 3375 3325 
L 3375 2400 
Q 4250 3225 4475 3600 
L 4875 3150 
L 4625 3125 
Q 3625 2425 3400 2275 
Q 4575 1675 4687 1487 
Q 4800 1300 4800 1150 
Q 4800 1025 4750 925 
Q 4700 825 4675 825 
Q 4575 825 4375 1150 
Q 4075 1600 3375 2150 
L 3375 725 
Q 3375 350 2875 150 
Q 2850 450 2200 650 
L 2200 750 
Q 2800 675 2925 700 
Q 3050 725 3050 850 
L 3050 2100 
Q 1850 1300 1625 1025 
L 1275 1400 
Q 1575 1475 2087 1725 
Q 2600 1975 3050 2275 
z
M 1700 3475 
L 1775 3550 
Q 2350 3200 2475 3025 
Q 2600 2850 2600 2775 
Q 2600 2650 2500 2525 
Q 2400 2400 2350 2400 
Q 2275 2400 2225 2575 
Q 2150 2875 1700 3475 
z
M 5150 0 
L 5150 2175 
Q 5150 2725 5125 3325 
L 5725 3050 
L 5500 2850 
L 5500 525 
Q 5500 100 5525 -400 
L 5150 -600 
L 5150 -150 
L 1250 -150 
L 1000 -375 
L 675 -50 
L 875 125 
L 875 2375 
Q 875 2800 850 3425 
L 1450 3150 
L 1225 2975 
L 1225 0 
L 5150 0 
z
" transform="scale(0.015625)"/>
      <path id="SimSun-6570" d="M 1875 1525 
Q 1675 1200 1500 900 
Q 1825 825 2275 725 
Q 2500 975 2725 1525 
L 1875 1525 
z
M 850 4900 
Q 1325 4600 1425 4450 
Q 1525 4300 1525 4225 
Q 1525 4100 1437 3975 
Q 1350 3850 1300 3850 
Q 1225 3850 1150 4100 
Q 1050 4450 775 4850 
L 850 4900 
z
M 3000 4975 
L 3450 4675 
Q 3250 4625 3100 4425 
Q 2925 4225 2525 3825 
L 2450 3875 
Q 2925 4625 3000 4975 
z
M 1875 5250 
L 2425 5000 
L 2225 4825 
L 2225 3675 
L 2850 3675 
L 3125 3950 
L 3550 3525 
L 2225 3525 
L 2225 3300 
Q 2800 3175 2937 3062 
Q 3075 2950 3075 2775 
Q 3075 2700 3050 2587 
Q 3025 2475 2975 2475 
Q 2925 2475 2800 2650 
Q 2600 2925 2225 3175 
L 2225 2400 
L 1925 2200 
L 2275 2050 
Q 2150 2000 1950 1675 
L 2725 1675 
L 2900 1900 
L 3275 1575 
L 3050 1450 
Q 2800 875 2600 650 
Q 3000 550 3137 437 
Q 3275 325 3275 150 
Q 3275 -25 3200 -25 
Q 3125 -25 3025 75 
Q 2750 275 2400 425 
Q 1525 -275 325 -500 
L 300 -425 
Q 1450 -50 2100 550 
Q 1600 725 1125 800 
Q 1225 950 1525 1525 
L 1200 1525 
Q 875 1525 600 1450 
L 375 1675 
L 1575 1675 
Q 1675 1925 1775 2275 
L 1900 2225 
L 1900 3250 
Q 1225 2475 350 2050 
L 300 2125 
Q 1225 2775 1700 3525 
L 1250 3525 
Q 925 3525 650 3450 
L 425 3675 
L 1900 3675 
Q 1900 4575 1875 5250 
z
M 3925 3525 
Q 4050 2075 4525 1100 
Q 4925 1950 5025 3525 
L 3925 3525 
z
M 4050 5250 
L 4625 4925 
Q 4425 4850 4325 4625 
Q 4225 4400 3950 3675 
L 5375 3675 
L 5675 3975 
L 6125 3525 
L 5400 3525 
Q 5250 1675 4750 775 
Q 5325 75 6100 -100 
L 6100 -200 
Q 5625 -275 5600 -500 
Q 4950 -50 4525 525 
Q 3700 -275 2550 -650 
L 2500 -575 
Q 3650 -50 4325 800 
Q 3850 1975 3825 3375 
Q 3575 2725 3100 2150 
L 3025 2200 
Q 3625 3200 4050 5250 
z
" transform="scale(0.015625)"/>
      <path id="SimSun-49" d="M 600 4225 
L 600 4375 
L 2600 4375 
L 2600 4225 
L 2025 4225 
Q 1925 4225 1862 4175 
Q 1800 4125 1800 4025 
L 1800 450 
Q 1800 350 1862 300 
Q 1925 250 2025 250 
L 2600 250 
L 2600 100 
L 600 100 
L 600 250 
L 1175 250 
Q 1300 250 1350 300 
Q 1400 350 1400 450 
L 1400 4025 
Q 1400 4125 1350 4175 
Q 1300 4225 1175 4225 
L 600 4225 
z
" transform="scale(0.015625)"/>
      <path id="SimSun-44" d="M 2500 2275 
Q 2500 3350 2175 3787 
Q 1850 4225 1275 4225 
Q 1100 4225 1012 4175 
Q 925 4125 925 4025 
L 925 450 
Q 925 350 1000 300 
Q 1075 250 1200 250 
Q 1750 250 2125 662 
Q 2500 1075 2500 2275 
z
M 525 4025 
Q 525 4125 475 4175 
Q 425 4225 300 4225 
L 150 4225 
L 150 4375 
L 1275 4375 
Q 2050 4375 2512 3875 
Q 2975 3375 2975 2325 
Q 2975 1175 2525 637 
Q 2075 100 1200 100 
L 125 100 
L 125 250 
L 300 250 
Q 425 250 475 300 
Q 525 350 525 450 
L 525 4025 
z
" transform="scale(0.015625)"/>
      <path id="SimSun-3a" d="M 1900 2725 
Q 1900 2575 1800 2475 
Q 1700 2375 1550 2375 
Q 1400 2375 1300 2475 
Q 1200 2575 1200 2725 
Q 1200 2875 1300 2975 
Q 1400 3075 1550 3075 
Q 1700 3075 1800 2975 
Q 1900 2875 1900 2725 
z
M 1900 375 
Q 1900 225 1800 125 
Q 1700 25 1550 25 
Q 1400 25 1300 125 
Q 1200 225 1200 375 
Q 1200 525 1300 625 
Q 1400 725 1550 725 
Q 1700 725 1800 625 
Q 1900 525 1900 375 
z
" transform="scale(0.015625)"/>
      <path id="SimSun-20" d="M 0 0 
Q 0 0 0 0 
z
" transform="scale(0.015625)"/>
      <path id="SimSun-32" d="M 2325 3325 
Q 2325 3775 2125 4012 
Q 1925 4250 1525 4250 
Q 1225 4250 1012 4087 
Q 800 3925 800 3675 
Q 800 3525 900 3425 
Q 975 3325 975 3225 
Q 975 3100 912 3037 
Q 850 2975 725 2975 
Q 575 2975 487 3062 
Q 400 3150 400 3350 
Q 400 3875 775 4150 
Q 1150 4425 1575 4425 
Q 2175 4425 2462 4125 
Q 2750 3825 2750 3375 
Q 2750 3075 2612 2775 
Q 2475 2475 2175 2200 
Q 1450 1500 1062 1062 
Q 675 625 600 475 
L 2075 475 
Q 2300 475 2450 650 
Q 2600 825 2650 1175 
L 2800 1175 
L 2650 100 
L 325 100 
L 325 425 
Q 450 650 737 1000 
Q 1025 1350 1500 1825 
Q 1925 2250 2125 2625 
Q 2325 3000 2325 3325 
z
" transform="scale(0.015625)"/>
      <path id="SimSun-38" d="M 625 1125 
Q 625 725 887 475 
Q 1150 225 1550 225 
Q 2025 225 2237 475 
Q 2450 725 2450 1100 
Q 2450 1425 2150 1725 
Q 1850 2025 1250 2275 
Q 950 2075 787 1775 
Q 625 1475 625 1125 
z
M 2825 1175 
Q 2825 700 2475 375 
Q 2125 50 1550 50 
Q 1025 50 650 375 
Q 275 700 275 1125 
Q 275 1550 487 1850 
Q 700 2150 1100 2375 
Q 750 2550 562 2812 
Q 375 3075 375 3400 
Q 375 3825 700 4125 
Q 1025 4425 1600 4425 
Q 2125 4425 2450 4125 
Q 2775 3825 2775 3400 
Q 2775 3100 2587 2837 
Q 2400 2575 2000 2375 
Q 2425 2125 2625 1825 
Q 2825 1525 2825 1175 
z
M 2425 3375 
Q 2425 3725 2225 3987 
Q 2025 4250 1600 4250 
Q 1125 4250 925 4000 
Q 725 3750 725 3475 
Q 725 3200 1012 2937 
Q 1300 2675 1825 2475 
Q 2125 2625 2275 2850 
Q 2425 3075 2425 3375 
z
" transform="scale(0.015625)"/>
     </defs>
     <use xlink:href="#SimSun-4e91"/>
     <use xlink:href="#SimSun-51fd" x="100"/>
     <use xlink:href="#SimSun-6570" x="200"/>
     <use xlink:href="#SimSun-49" x="300"/>
     <use xlink:href="#SimSun-44" x="350"/>
     <use xlink:href="#SimSun-3a" x="400"/>
     <use xlink:href="#SimSun-20" x="450"/>
     <use xlink:href="#SimSun-32" x="500"/>
     <use xlink:href="#SimSun-38" x="550"/>
    </g>
   </g>
   <g id="legend_1">
    <g id="patch_7">
     <path d="M 75.6375 101.934375 
L 199.6375 101.934375 
Q 203.6375 101.934375 203.6375 97.934375 
L 203.6375 43.059375 
Q 203.6375 39.059375 199.6375 39.059375 
L 75.6375 39.059375 
Q 71.6375 39.059375 71.6375 43.059375 
L 71.6375 97.934375 
Q 71.6375 101.934375 75.6375 101.934375 
z
" style="fill: #ffffff; opacity: 0.8; stroke: #cccccc; stroke-linejoin: miter"/>
    </g>
    <g id="line2d_15">
     <path d="M 79.6375 55.996875 
L 99.6375 55.996875 
L 119.6375 55.996875 
" style="fill: none; stroke: #1f77b4; stroke-width: 1.5; stroke-linecap: square"/>
    </g>
    <g id="text_14">
     <!-- 真实值 -->
     <g transform="translate(135.6375 62.996875) scale(0.2 -0.2)">
      <defs>
       <path id="SimSun-771f" d="M 2050 3450 
L 2050 2900 
L 4300 2900 
L 4300 3450 
L 2050 3450 
z
M 2050 2750 
L 2050 2225 
L 4300 2225 
L 4300 2750 
L 2050 2750 
z
M 2050 2075 
L 2050 1550 
L 4300 1550 
L 4300 2075 
L 2050 2075 
z
M 2050 1400 
L 2050 875 
L 4300 875 
L 4300 1400 
L 2050 1400 
z
M 2875 3600 
L 2925 4325 
L 1525 4325 
Q 1200 4325 925 4250 
L 700 4475 
L 2950 4475 
Q 2975 4825 2975 5275 
L 3550 5025 
L 3375 4925 
L 3300 4475 
L 5000 4475 
L 5325 4825 
L 5775 4325 
L 3275 4325 
L 3200 3600 
L 4275 3600 
L 4450 3875 
L 4850 3575 
L 4650 3375 
L 4650 875 
L 5300 875 
L 5675 1225 
L 6125 725 
L 1150 725 
Q 825 725 550 650 
L 325 875 
L 1700 875 
Q 1700 3200 1675 3775 
L 2050 3600 
L 2875 3600 
z
M 2425 725 
L 2825 350 
L 2575 300 
Q 1500 -425 800 -650 
L 775 -575 
Q 1950 125 2425 725 
z
M 3800 700 
Q 4575 375 4962 200 
Q 5350 25 5400 -112 
Q 5450 -250 5450 -325 
Q 5450 -400 5400 -525 
Q 5350 -650 5325 -650 
Q 5250 -650 5100 -450 
Q 4875 -150 3750 625 
L 3800 700 
z
" transform="scale(0.015625)"/>
       <path id="SimSun-5b9e" d="M 1950 3625 
Q 2575 3400 2700 3250 
Q 2825 3100 2825 2975 
Q 2825 2850 2750 2700 
Q 2675 2550 2625 2550 
Q 2550 2550 2450 2800 
Q 2275 3175 1900 3550 
L 1950 3625 
z
M 3575 1325 
Q 3500 1100 3425 925 
Q 4650 550 5087 325 
Q 5525 100 5512 -225 
Q 5500 -550 5400 -550 
Q 5300 -550 5075 -300 
Q 4625 175 3375 800 
Q 3025 175 2300 -150 
Q 1575 -475 425 -625 
L 425 -525 
Q 1475 -325 2200 100 
Q 2925 525 3200 1325 
L 1225 1325 
Q 900 1325 625 1250 
L 400 1475 
L 3225 1475 
Q 3325 1950 3375 2575 
Q 3425 3200 3425 3700 
L 4050 3400 
L 3850 3225 
Q 3750 2300 3625 1475 
L 5175 1475 
L 5550 1850 
L 6075 1325 
L 3575 1325 
z
M 1275 2700 
Q 1975 2425 2100 2262 
Q 2225 2100 2225 1975 
Q 2225 1850 2150 1700 
Q 2075 1550 2025 1550 
Q 1950 1550 1850 1800 
Q 1675 2175 1225 2625 
L 1275 2700 
z
M 2750 5225 
L 2825 5275 
Q 3225 5100 3425 4925 
Q 3625 4750 3625 4600 
Q 3625 4450 3512 4300 
Q 3400 4150 3325 4150 
Q 3250 4150 3200 4400 
Q 3100 4775 2750 5225 
z
M 4975 3225 
L 5350 3925 
L 1175 3925 
Q 1225 3525 1125 3300 
Q 1025 3075 787 3100 
Q 550 3125 550 3200 
Q 550 3300 700 3475 
Q 975 3825 1050 4375 
L 1150 4375 
L 1175 4075 
L 5300 4075 
L 5575 4350 
L 6050 3800 
Q 5625 3825 5050 3175 
L 4975 3225 
z
" transform="scale(0.015625)"/>
       <path id="SimSun-503c" d="M 1525 650 
Q 1525 -225 1550 -525 
L 1175 -650 
Q 1200 250 1200 550 
L 1200 3025 
Q 750 2300 325 1850 
L 250 1900 
Q 725 2625 1100 3525 
Q 1475 4425 1675 5200 
L 2200 4875 
L 1950 4725 
Q 1550 3800 1425 3475 
L 1725 3300 
L 1525 3150 
L 1525 650 
z
M 2875 3225 
L 2875 2475 
L 4800 2475 
L 4800 3225 
L 2875 3225 
z
M 2875 2325 
L 2875 1575 
L 4800 1575 
L 4800 2325 
L 2875 2325 
z
M 2875 1425 
L 2875 675 
L 4800 675 
L 4800 1425 
L 2875 1425 
z
M 2875 525 
L 2875 -225 
L 4800 -225 
L 4800 525 
L 2875 525 
z
M 3550 4250 
Q 3575 4825 3550 5225 
L 4125 4950 
L 3925 4800 
L 3900 4250 
L 5025 4250 
L 5350 4575 
L 5825 4100 
L 3900 4100 
L 3875 3375 
L 4750 3375 
L 4975 3625 
L 5350 3300 
L 5125 3150 
L 5125 -225 
L 5350 -225 
L 5675 100 
L 6150 -375 
L 2450 -375 
Q 2125 -375 1850 -450 
L 1625 -225 
L 2550 -225 
L 2550 2550 
Q 2550 2850 2525 3575 
L 2875 3375 
L 3525 3375 
L 3550 4100 
L 2800 4100 
Q 2475 4100 2200 4025 
L 1975 4250 
L 3550 4250 
z
" transform="scale(0.015625)"/>
      </defs>
      <use xlink:href="#SimSun-771f"/>
      <use xlink:href="#SimSun-5b9e" x="100"/>
      <use xlink:href="#SimSun-503c" x="200"/>
     </g>
    </g>
    <g id="line2d_16">
     <path d="M 79.6375 84.35625 
L 99.6375 84.35625 
L 119.6375 84.35625 
" style="fill: none; stroke: #ff7f0e; stroke-width: 1.5; stroke-linecap: square"/>
    </g>
    <g id="text_15">
     <!-- 预测值 -->
     <g transform="translate(135.6375 91.35625) scale(0.2 -0.2)">
      <defs>
       <path id="SimSun-9884" d="M 475 4825 
L 2225 4825 
L 2425 5075 
L 2825 4675 
Q 2600 4625 2387 4412 
Q 2175 4200 1800 3750 
Q 2050 3575 2037 3400 
Q 2025 3225 1937 3150 
Q 1850 3075 1825 3075 
Q 1725 3075 1650 3300 
Q 1525 3600 1050 4100 
L 1100 4150 
Q 1475 3975 1700 3825 
L 2225 4675 
L 1300 4675 
Q 975 4675 700 4600 
L 475 4825 
z
M 725 100 
Q 1175 50 1362 37 
Q 1550 25 1550 275 
L 1550 2875 
L 1125 2875 
Q 800 2875 525 2800 
L 300 3025 
L 2525 3025 
L 2725 3275 
L 3150 2875 
Q 2800 2825 2275 2075 
L 2200 2125 
L 2550 2875 
L 1875 2875 
L 1875 150 
Q 1875 -400 1350 -500 
Q 1325 -175 725 0 
L 725 100 
z
M 3250 775 
Q 3275 1425 3275 2287 
Q 3275 3150 3250 3900 
L 3600 3700 
L 4050 3700 
Q 4175 4400 4200 4675 
L 3650 4675 
Q 3325 4675 3050 4600 
L 2825 4825 
L 5325 4825 
L 5675 5150 
L 6125 4675 
L 4675 4675 
Q 4500 4425 4175 3700 
L 5300 3700 
L 5475 3975 
L 5875 3675 
L 5675 3475 
L 5675 1950 
Q 5675 1525 5700 1075 
L 5350 875 
L 5350 3550 
L 3600 3550 
L 3600 1000 
L 3250 775 
z
M 4850 2875 
L 4625 2675 
Q 4625 1475 4475 937 
Q 4325 400 3900 50 
Q 3475 -300 2425 -625 
L 2400 -550 
Q 3500 -50 3837 400 
Q 4175 850 4237 1587 
Q 4300 2325 4275 3175 
L 4850 2875 
z
M 4650 950 
Q 5725 375 5875 212 
Q 6025 50 6025 -125 
Q 6025 -225 5962 -387 
Q 5900 -550 5850 -550 
Q 5800 -550 5750 -450 
Q 5625 -250 5437 0 
Q 5250 250 4600 875 
L 4650 950 
z
" transform="scale(0.015625)"/>
       <path id="SimSun-6d4b" d="M 1975 1000 
Q 2000 1475 2000 2925 
Q 2000 4375 1975 5000 
L 2350 4775 
L 3575 4775 
L 3775 4975 
L 4100 4650 
L 3900 4500 
L 3900 2350 
Q 3900 1850 3925 1350 
L 3600 1200 
L 3600 4625 
L 2325 4625 
L 2325 1150 
L 1975 1000 
z
M 2775 3975 
L 3300 3700 
L 3125 3525 
Q 3150 1825 2875 937 
Q 2600 50 1375 -600 
L 1325 -500 
Q 2200 100 2475 725 
Q 2750 1350 2775 2187 
Q 2800 3025 2775 3975 
z
M 3100 950 
Q 3825 450 3937 262 
Q 4050 75 4050 -25 
Q 4050 -150 3975 -262 
Q 3900 -375 3850 -375 
Q 3750 -375 3650 -75 
Q 3500 375 3050 875 
L 3100 950 
z
M 4475 825 
Q 4500 1200 4500 1700 
L 4500 3400 
Q 4500 3950 4475 4300 
L 5025 4025 
L 4825 3825 
L 4825 1700 
Q 4825 1325 4850 950 
L 4475 825 
z
M 5375 150 
L 5375 4050 
Q 5375 4750 5350 5125 
L 5875 4875 
L 5700 4700 
L 5700 75 
Q 5700 -200 5600 -350 
Q 5500 -500 5200 -600 
Q 5025 -225 4450 -50 
L 4450 50 
Q 5125 -50 5250 -37 
Q 5375 -25 5375 150 
z
M 1850 3500 
Q 1375 1525 1300 1225 
Q 1200 900 1212 450 
Q 1225 0 1250 -175 
Q 1250 -275 1125 -275 
Q 1025 -275 875 -225 
Q 725 -175 725 0 
Q 725 125 800 375 
Q 875 625 875 775 
Q 875 950 762 1050 
Q 650 1150 275 1250 
L 275 1350 
Q 725 1300 837 1312 
Q 950 1325 1087 1537 
Q 1225 1750 1750 3525 
L 1850 3500 
z
M 375 3775 
Q 1075 3350 1112 3100 
Q 1150 2850 1050 2775 
Q 950 2700 900 2700 
Q 800 2700 725 2975 
Q 600 3350 325 3700 
L 375 3775 
z
M 800 5100 
Q 1475 4725 1550 4512 
Q 1625 4300 1525 4187 
Q 1425 4075 1350 4075 
Q 1275 4075 1200 4300 
Q 1075 4650 750 5025 
L 800 5100 
z
" transform="scale(0.015625)"/>
      </defs>
      <use xlink:href="#SimSun-9884"/>
      <use xlink:href="#SimSun-6d4b" x="100"/>
      <use xlink:href="#SimSun-503c" x="200"/>
     </g>
    </g>
   </g>
  </g>
  <g id="axes_2">
   <g id="patch_8">
    <path d="M 61.6375 426.316875 
L 1032.509189 426.316875 
L 1032.509189 261.859375 
L 61.6375 261.859375 
z
" style="fill: #ffffff"/>
   </g>
   <g id="matplotlib.axis_3">
    <g id="xtick_8">
     <g id="line2d_17">
      <g>
       <use xlink:href="#m480a683647" x="105.768031" y="426.316875" style="stroke: #000000; stroke-width: 0.8"/>
      </g>
     </g>
     <g id="text_16">
      <!-- 0 -->
      <g transform="translate(100.768031 447.204375) scale(0.2 -0.2)">
       <use xlink:href="#TimesNewRomanPSMT-30"/>
      </g>
     </g>
    </g>
    <g id="xtick_9">
     <g id="line2d_18">
      <g>
       <use xlink:href="#m480a683647" x="259.532949" y="426.316875" style="stroke: #000000; stroke-width: 0.8"/>
      </g>
     </g>
     <g id="text_17">
      <!-- 50 -->
      <g transform="translate(249.532949 447.204375) scale(0.2 -0.2)">
       <use xlink:href="#TimesNewRomanPSMT-35"/>
       <use xlink:href="#TimesNewRomanPSMT-30" x="50"/>
      </g>
     </g>
    </g>
    <g id="xtick_10">
     <g id="line2d_19">
      <g>
       <use xlink:href="#m480a683647" x="413.297866" y="426.316875" style="stroke: #000000; stroke-width: 0.8"/>
      </g>
     </g>
     <g id="text_18">
      <!-- 100 -->
      <g transform="translate(398.297866 447.204375) scale(0.2 -0.2)">
       <use xlink:href="#TimesNewRomanPSMT-31"/>
       <use xlink:href="#TimesNewRomanPSMT-30" x="50"/>
       <use xlink:href="#TimesNewRomanPSMT-30" x="100"/>
      </g>
     </g>
    </g>
    <g id="xtick_11">
     <g id="line2d_20">
      <g>
       <use xlink:href="#m480a683647" x="567.062784" y="426.316875" style="stroke: #000000; stroke-width: 0.8"/>
      </g>
     </g>
     <g id="text_19">
      <!-- 150 -->
      <g transform="translate(552.062784 447.204375) scale(0.2 -0.2)">
       <use xlink:href="#TimesNewRomanPSMT-31"/>
       <use xlink:href="#TimesNewRomanPSMT-35" x="50"/>
       <use xlink:href="#TimesNewRomanPSMT-30" x="100"/>
      </g>
     </g>
    </g>
    <g id="xtick_12">
     <g id="line2d_21">
      <g>
       <use xlink:href="#m480a683647" x="720.827701" y="426.316875" style="stroke: #000000; stroke-width: 0.8"/>
      </g>
     </g>
     <g id="text_20">
      <!-- 200 -->
      <g transform="translate(705.827701 447.204375) scale(0.2 -0.2)">
       <use xlink:href="#TimesNewRomanPSMT-32"/>
       <use xlink:href="#TimesNewRomanPSMT-30" x="50"/>
       <use xlink:href="#TimesNewRomanPSMT-30" x="100"/>
      </g>
     </g>
    </g>
    <g id="xtick_13">
     <g id="line2d_22">
      <g>
       <use xlink:href="#m480a683647" x="874.592619" y="426.316875" style="stroke: #000000; stroke-width: 0.8"/>
      </g>
     </g>
     <g id="text_21">
      <!-- 250 -->
      <g transform="translate(859.592619 447.204375) scale(0.2 -0.2)">
       <use xlink:href="#TimesNewRomanPSMT-32"/>
       <use xlink:href="#TimesNewRomanPSMT-35" x="50"/>
       <use xlink:href="#TimesNewRomanPSMT-30" x="100"/>
      </g>
     </g>
    </g>
    <g id="xtick_14">
     <g id="line2d_23">
      <g>
       <use xlink:href="#m480a683647" x="1028.357536" y="426.316875" style="stroke: #000000; stroke-width: 0.8"/>
      </g>
     </g>
     <g id="text_22">
      <!-- 300 -->
      <g transform="translate(1013.357536 447.204375) scale(0.2 -0.2)">
       <use xlink:href="#TimesNewRomanPSMT-33"/>
       <use xlink:href="#TimesNewRomanPSMT-30" x="50"/>
       <use xlink:href="#TimesNewRomanPSMT-30" x="100"/>
      </g>
     </g>
    </g>
   </g>
   <g id="matplotlib.axis_4">
    <g id="ytick_5">
     <g id="line2d_24">
      <g>
       <use xlink:href="#m210198db9b" x="61.6375" y="369.251302" style="stroke: #000000; stroke-width: 0.8"/>
      </g>
     </g>
     <g id="text_23">
      <!-- 0.5 -->
      <g transform="translate(29.6375 376.195052) scale(0.2 -0.2)">
       <use xlink:href="#TimesNewRomanPSMT-30"/>
       <use xlink:href="#TimesNewRomanPSMT-2e" x="50"/>
       <use xlink:href="#TimesNewRomanPSMT-35" x="75"/>
      </g>
     </g>
    </g>
    <g id="ytick_6">
     <g id="line2d_25">
      <g>
       <use xlink:href="#m210198db9b" x="61.6375" y="309.890217" style="stroke: #000000; stroke-width: 0.8"/>
      </g>
     </g>
     <g id="text_24">
      <!-- 1.0 -->
      <g transform="translate(29.6375 316.833967) scale(0.2 -0.2)">
       <use xlink:href="#TimesNewRomanPSMT-31"/>
       <use xlink:href="#TimesNewRomanPSMT-2e" x="50"/>
       <use xlink:href="#TimesNewRomanPSMT-30" x="75"/>
      </g>
     </g>
    </g>
    <g id="text_25">
     <!-- CPU使用率 -->
     <g transform="translate(23.059375 389.088125) rotate(-90) scale(0.2 -0.2)">
      <use xlink:href="#SimSun-43"/>
      <use xlink:href="#SimSun-50" x="50"/>
      <use xlink:href="#SimSun-55" x="100"/>
      <use xlink:href="#SimSun-4f7f" x="150"/>
      <use xlink:href="#SimSun-7528" x="250"/>
      <use xlink:href="#SimSun-7387" x="350"/>
     </g>
    </g>
   </g>
   <g id="line2d_26">
    <path d="M 105.768031 383.307994 
L 108.84333 380.45867 
L 111.918628 371.340823 
L 114.993926 356.239365 
L 118.069225 358.518813 
L 121.144523 357.948951 
L 124.219821 350.255752 
L 127.29512 348.546166 
L 130.370418 345.126966 
L 133.445716 332.020029 
L 136.521015 330.595367 
L 139.596313 330.595367 
L 142.671612 326.891229 
L 145.74691 326.606291 
L 148.822208 322.902167 
L 151.897507 303.811638 
L 154.972805 303.5267 
L 158.048103 305.806176 
L 161.123402 301.532176 
L 164.1987 303.5267 
L 167.273998 295.263638 
L 170.349297 283.581391 
L 173.424595 277.312853 
L 179.575192 287.570453 
L 182.65049 290.989653 
L 185.725788 284.436177 
L 188.801087 272.468992 
L 191.876385 280.162191 
L 194.951683 288.425253 
L 198.026982 288.140315 
L 201.10228 285.575915 
L 204.177579 284.151253 
L 207.252877 309.510299 
L 210.328175 280.732053 
L 213.403474 290.419777 
L 216.478772 288.710177 
L 219.55407 292.984176 
L 222.629369 292.984176 
L 225.704667 291.844453 
L 228.779965 293.554038 
L 231.855264 298.967776 
L 234.930562 297.258176 
L 238.00586 297.828038 
L 241.081159 297.828038 
L 244.156457 279.592315 
L 247.231755 272.468992 
L 250.307054 281.586853 
L 253.382352 288.995115 
L 256.45765 293.838976 
L 259.532949 299.822576 
L 262.608247 289.564977 
L 265.683546 294.693776 
L 268.758844 301.247238 
L 271.834142 296.118438 
L 274.909441 294.123914 
L 277.984739 293.269114 
L 281.060037 290.419777 
L 284.135336 287.285515 
L 287.210634 289.564977 
L 290.285932 290.419777 
L 293.361231 285.006053 
L 296.436529 269.904592 
L 299.511827 272.753916 
L 302.587126 273.608716 
L 305.662424 274.748454 
L 308.737722 274.463516 
L 311.813021 285.860853 
L 314.888319 285.290977 
L 317.963617 283.581391 
L 321.038916 290.989653 
L 327.189513 287.000577 
L 330.264811 288.425253 
L 333.340109 283.581391 
L 336.415408 279.592315 
L 339.490706 283.581391 
L 342.566004 282.726591 
L 345.641303 280.447115 
L 348.716601 281.586853 
L 351.791899 278.167653 
L 354.867198 269.334716 
L 357.942496 269.904592 
L 361.017794 275.033392 
L 364.093093 275.603254 
L 367.168391 275.888192 
L 370.243689 278.737515 
L 373.318988 279.307391 
L 376.394286 283.296453 
L 379.469584 279.592315 
L 382.544883 272.184054 
L 385.620181 291.559515 
L 388.69548 295.263638 
L 391.770778 302.386976 
L 394.846076 318.628168 
L 397.921375 321.477506 
L 400.996673 323.756967 
L 404.071971 332.589891 
L 407.14727 332.874829 
L 410.222568 332.304967 
L 413.297866 349.116028 
L 416.373165 354.244827 
L 419.448463 358.233889 
L 422.523761 365.072274 
L 425.59906 365.642151 
L 428.674358 385.58747 
L 431.749656 372.765485 
L 434.824955 376.184684 
L 437.900253 381.313484 
L 440.975551 386.157346 
L 444.05085 388.436793 
L 447.126148 388.151884 
L 450.201447 393.565593 
L 453.276745 396.699855 
L 456.352043 398.124545 
L 459.427342 401.543731 
L 462.50264 402.968407 
L 465.577938 404.678007 
L 468.653237 405.532792 
L 471.728535 407.242392 
L 477.879132 409.521868 
L 480.95443 409.806792 
L 484.029728 409.806792 
L 487.105027 410.94653 
L 493.255623 412.086254 
L 496.330922 412.941068 
L 499.40622 412.65613 
L 502.481518 412.086254 
L 505.556817 412.65613 
L 508.632115 412.941068 
L 511.707414 412.086254 
L 514.782712 412.65613 
L 517.85801 411.516392 
L 520.933309 409.23693 
L 524.008607 409.521868 
L 527.083905 408.667054 
L 530.159204 406.67253 
L 533.234502 405.81773 
L 536.3098 403.25333 
L 539.385099 395.845069 
L 542.460397 397.269731 
L 545.535695 394.135469 
L 548.610994 387.582008 
L 551.686292 386.157346 
L 554.76159 379.603884 
L 557.836889 362.507889 
L 560.912187 364.787351 
L 563.987485 363.077751 
L 567.062784 357.094151 
L 570.138082 355.099627 
L 573.213381 351.110566 
L 576.288679 338.288566 
L 579.363977 336.294029 
L 582.439276 334.014567 
L 585.514574 332.304967 
L 588.589872 334.299491 
L 591.665171 329.455629 
L 594.740469 311.504844 
L 597.815767 303.811638 
L 600.891066 308.940437 
L 603.966364 307.800699 
L 607.041662 305.521238 
L 610.116961 298.967776 
L 613.192259 285.860853 
L 616.267557 283.581391 
L 619.342856 292.699238 
L 622.418154 292.984176 
L 625.493452 294.123914 
L 628.568751 289.564977 
L 631.644049 279.877253 
L 634.719348 284.721115 
L 637.794646 289.849915 
L 640.869944 289.280053 
L 643.945243 286.715653 
L 647.020541 288.710177 
L 650.095839 300.392438 
L 653.171138 272.184054 
L 656.246436 292.414314 
L 659.321734 289.564977 
L 662.397033 297.543114 
L 665.472331 300.677376 
L 668.547629 296.118438 
L 671.622928 300.107514 
L 674.698226 300.9623 
L 677.773524 301.247238 
L 680.848823 299.822576 
L 683.924121 302.6719 
L 686.999419 298.682838 
L 690.074718 296.688314 
L 693.150016 298.967776 
L 696.225315 301.532176 
L 699.300613 303.5267 
L 702.375911 302.386976 
L 705.45121 296.688314 
L 708.526508 298.112976 
L 711.601806 302.956838 
L 714.677105 299.537638 
L 717.752403 294.693776 
L 720.827701 287.855377 
L 723.903 294.978714 
L 726.978298 297.828038 
L 730.053596 300.392438 
L 733.128895 299.822576 
L 736.204193 299.822576 
L 739.279491 298.112976 
L 742.35479 293.838976 
L 745.430088 295.263638 
L 748.505386 290.419777 
L 751.580685 279.877253 
L 754.655983 282.726591 
L 757.731282 288.140315 
L 760.80658 286.430715 
L 763.881878 285.860853 
L 766.957177 289.564977 
L 770.032475 288.140315 
L 773.107773 285.575915 
L 776.183072 288.995115 
L 779.25837 283.581391 
L 782.333668 283.011515 
L 785.408967 287.000577 
L 788.484265 285.006053 
L 791.559563 287.285515 
L 794.634862 286.715653 
L 797.71016 278.737515 
L 800.785458 279.307391 
L 803.860757 282.156715 
L 806.936055 287.000577 
L 810.011353 284.436177 
L 813.086652 286.430715 
L 816.16195 289.564977 
L 819.237249 296.973238 
L 822.312547 294.408838 
L 825.387845 285.575915 
L 828.463144 303.5267 
L 831.538442 309.510299 
L 834.61374 310.650044 
L 837.689039 329.740567 
L 840.764337 335.724167 
L 843.839635 333.444691 
L 846.914934 344.842028 
L 849.990232 345.696828 
L 853.06553 344.842028 
L 856.140829 360.228413 
L 859.216127 363.362689 
L 862.291425 368.776412 
L 865.366724 375.614808 
L 868.442022 377.894284 
L 871.51732 394.705345 
L 874.592619 385.017594 
L 877.667917 389.291607 
L 880.743216 391.855993 
L 883.818514 395.275193 
L 886.893812 398.409455 
L 889.969111 399.834131 
L 893.044409 402.968407 
L 896.119707 404.678007 
L 899.195006 405.532792 
L 902.270304 407.52733 
L 908.420901 409.23693 
L 911.496199 410.94653 
L 914.571497 411.80133 
L 917.646796 411.516392 
L 920.722094 412.65613 
L 923.797392 413.51093 
L 926.872691 413.225992 
L 929.947989 414.36573 
L 933.023287 414.650668 
L 936.098586 414.36573 
L 945.324481 415.22053 
L 948.399779 414.935592 
L 951.475078 414.36573 
L 957.625674 414.36573 
L 960.700973 413.225992 
L 963.776271 410.09173 
L 966.851569 410.376654 
L 969.926868 408.667054 
L 973.002166 406.102668 
L 976.077464 405.81773 
L 979.152763 402.398531 
L 982.228061 390.431331 
L 985.303359 391.001207 
L 988.378658 385.872408 
L 988.378658 385.872408 
" clip-path="url(#pe004a98b44)" style="fill: none; stroke: #1f77b4; stroke-width: 1.5; stroke-linecap: square"/>
   </g>
   <g id="line2d_27">
    <path d="M 548.610994 384.109367 
L 551.686292 382.126915 
L 554.76159 378.724826 
L 557.836889 373.013512 
L 560.912187 366.541886 
L 563.987485 364.629519 
L 567.062784 358.534211 
L 570.138082 355.057749 
L 573.213381 347.024246 
L 576.288679 345.276207 
L 579.363977 337.422204 
L 582.439276 335.707778 
L 585.514574 331.909156 
L 588.589872 329.164718 
L 591.665171 323.779683 
L 594.740469 320.047352 
L 597.815767 315.159079 
L 600.891066 313.34528 
L 603.966364 312.980067 
L 607.041662 309.903421 
L 610.116961 305.168564 
L 613.192259 301.675784 
L 616.267557 301.600435 
L 619.342856 299.387222 
L 622.418154 300.578321 
L 625.493452 297.803384 
L 628.568751 296.966671 
L 631.644049 296.317596 
L 634.719348 293.256108 
L 637.794646 293.610296 
L 640.869944 293.414959 
L 643.945243 290.211504 
L 647.020541 288.703652 
L 650.095839 289.086513 
L 653.171138 291.137408 
L 656.246436 290.723736 
L 659.321734 291.599114 
L 662.397033 294.024618 
L 665.472331 294.691243 
L 668.547629 292.918267 
L 671.622928 297.057419 
L 674.698226 296.401579 
L 677.773524 297.968816 
L 680.848823 298.513358 
L 683.924121 296.516287 
L 686.999419 299.657866 
L 690.074718 299.530123 
L 693.150016 300.689576 
L 696.225315 300.784612 
L 699.300613 301.120811 
L 702.375911 298.54925 
L 705.45121 298.964761 
L 708.526508 301.566256 
L 711.601806 301.45844 
L 714.677105 299.868205 
L 717.752403 299.579941 
L 720.827701 300.048115 
L 723.903 298.189359 
L 726.978298 297.730228 
L 730.053596 296.138224 
L 736.204193 294.495184 
L 739.279491 294.528967 
L 742.35479 293.20513 
L 745.430088 291.018029 
L 748.505386 292.408328 
L 751.580685 291.922675 
L 754.655983 290.417342 
L 757.731282 292.067203 
L 760.80658 287.934845 
L 763.881878 288.248654 
L 766.957177 286.433333 
L 770.032475 287.76678 
L 773.107773 286.424162 
L 776.183072 286.125397 
L 779.25837 286.141361 
L 782.333668 283.164252 
L 785.408967 285.840487 
L 788.484265 286.71094 
L 791.559563 285.258482 
L 794.634862 285.269082 
L 797.71016 286.000895 
L 803.860757 287.684086 
L 806.936055 289.99624 
L 810.011353 292.663531 
L 813.086652 293.316639 
L 816.16195 294.761766 
L 822.312547 300.756377 
L 825.387845 305.647155 
L 828.463144 306.315619 
L 831.538442 309.321048 
L 834.61374 314.710118 
L 837.689039 316.779028 
L 840.764337 322.869333 
L 843.839635 328.489263 
L 846.914934 332.447259 
L 849.990232 335.864208 
L 853.06553 338.734478 
L 856.140829 340.325733 
L 859.216127 347.670222 
L 862.291425 351.521704 
L 865.366724 356.116604 
L 868.442022 358.524021 
L 871.51732 364.17687 
L 874.592619 368.846002 
L 877.667917 372.152627 
L 880.743216 378.080054 
L 883.818514 379.808449 
L 886.893812 382.794856 
L 889.969111 387.466068 
L 893.044409 391.468603 
L 896.119707 394.586051 
L 899.195006 396.189604 
L 902.270304 399.522005 
L 905.345602 400.78708 
L 908.420901 403.634253 
L 914.571497 407.892515 
L 917.646796 409.56594 
L 920.722094 411.373137 
L 923.797392 411.120496 
L 926.872691 415.216666 
L 929.947989 412.759813 
L 933.023287 418.841534 
L 936.098586 415.06884 
L 939.173884 417.104464 
L 942.249183 416.841519 
L 945.324481 416.759405 
L 948.399779 415.421358 
L 951.475078 414.740382 
L 954.550376 414.477593 
L 957.625674 412.488816 
L 960.700973 408.560243 
L 963.776271 407.441366 
L 966.851569 404.847529 
L 969.926868 402.086164 
L 973.002166 404.353681 
L 976.077464 399.476985 
L 979.152763 397.391233 
L 982.228061 395.012899 
L 985.303359 389.307091 
L 988.378658 387.924647 
L 988.378658 387.924647 
" clip-path="url(#pe004a98b44)" style="fill: none; stroke: #ff7f0e; stroke-width: 1.5; stroke-linecap: square"/>
   </g>
   <g id="line2d_28">
    <path d="M 548.610994 426.316875 
L 548.610994 261.859375 
" clip-path="url(#pe004a98b44)" style="fill: none; stroke-dasharray: 7.4,3.2; stroke-dashoffset: 0; stroke: #0000ff; stroke-width: 2"/>
   </g>
   <g id="patch_9">
    <path d="M 61.6375 426.316875 
L 61.6375 261.859375 
" style="fill: none; stroke: #000000; stroke-width: 0.8; stroke-linejoin: miter; stroke-linecap: square"/>
   </g>
   <g id="patch_10">
    <path d="M 1032.509189 426.316875 
L 1032.509189 261.859375 
" style="fill: none; stroke: #000000; stroke-width: 0.8; stroke-linejoin: miter; stroke-linecap: square"/>
   </g>
   <g id="patch_11">
    <path d="M 61.6375 426.316875 
L 1032.509189 426.316875 
" style="fill: none; stroke: #000000; stroke-width: 0.8; stroke-linejoin: miter; stroke-linecap: square"/>
   </g>
   <g id="patch_12">
    <path d="M 61.6375 261.859375 
L 1032.509189 261.859375 
" style="fill: none; stroke: #000000; stroke-width: 0.8; stroke-linejoin: miter; stroke-linecap: square"/>
   </g>
   <g id="text_26">
    <!-- 云函数ID: 72 -->
    <g transform="translate(487.073345 255.859375) scale(0.2 -0.2)">
     <defs>
      <path id="SimSun-37" d="M 2825 4200 
Q 2300 3350 1987 2537 
Q 1675 1725 1675 1125 
Q 1675 1025 1700 850 
Q 1700 650 1700 400 
Q 1700 200 1637 125 
Q 1575 50 1425 50 
Q 1300 50 1212 137 
Q 1125 225 1125 450 
Q 1125 925 1337 1625 
Q 1550 2325 2475 4000 
L 1225 4000 
Q 950 4000 787 3825 
Q 625 3650 550 3300 
L 400 3325 
L 575 4375 
L 2825 4375 
L 2825 4200 
z
" transform="scale(0.015625)"/>
     </defs>
     <use xlink:href="#SimSun-4e91"/>
     <use xlink:href="#SimSun-51fd" x="100"/>
     <use xlink:href="#SimSun-6570" x="200"/>
     <use xlink:href="#SimSun-49" x="300"/>
     <use xlink:href="#SimSun-44" x="350"/>
     <use xlink:href="#SimSun-3a" x="400"/>
     <use xlink:href="#SimSun-20" x="450"/>
     <use xlink:href="#SimSun-37" x="500"/>
     <use xlink:href="#SimSun-32" x="550"/>
    </g>
   </g>
  </g>
  <g id="axes_3">
   <g id="patch_13">
    <path d="M 61.6375 659.116875 
L 1032.509189 659.116875 
L 1032.509189 494.659375 
L 61.6375 494.659375 
z
" style="fill: #ffffff"/>
   </g>
   <g id="matplotlib.axis_5">
    <g id="xtick_15">
     <g id="line2d_29">
      <g>
       <use xlink:href="#m480a683647" x="105.768031" y="659.116875" style="stroke: #000000; stroke-width: 0.8"/>
      </g>
     </g>
     <g id="text_27">
      <!-- 0 -->
      <g transform="translate(100.768031 680.004375) scale(0.2 -0.2)">
       <use xlink:href="#TimesNewRomanPSMT-30"/>
      </g>
     </g>
    </g>
    <g id="xtick_16">
     <g id="line2d_30">
      <g>
       <use xlink:href="#m480a683647" x="259.532949" y="659.116875" style="stroke: #000000; stroke-width: 0.8"/>
      </g>
     </g>
     <g id="text_28">
      <!-- 50 -->
      <g transform="translate(249.532949 680.004375) scale(0.2 -0.2)">
       <use xlink:href="#TimesNewRomanPSMT-35"/>
       <use xlink:href="#TimesNewRomanPSMT-30" x="50"/>
      </g>
     </g>
    </g>
    <g id="xtick_17">
     <g id="line2d_31">
      <g>
       <use xlink:href="#m480a683647" x="413.297866" y="659.116875" style="stroke: #000000; stroke-width: 0.8"/>
      </g>
     </g>
     <g id="text_29">
      <!-- 100 -->
      <g transform="translate(398.297866 680.004375) scale(0.2 -0.2)">
       <use xlink:href="#TimesNewRomanPSMT-31"/>
       <use xlink:href="#TimesNewRomanPSMT-30" x="50"/>
       <use xlink:href="#TimesNewRomanPSMT-30" x="100"/>
      </g>
     </g>
    </g>
    <g id="xtick_18">
     <g id="line2d_32">
      <g>
       <use xlink:href="#m480a683647" x="567.062784" y="659.116875" style="stroke: #000000; stroke-width: 0.8"/>
      </g>
     </g>
     <g id="text_30">
      <!-- 150 -->
      <g transform="translate(552.062784 680.004375) scale(0.2 -0.2)">
       <use xlink:href="#TimesNewRomanPSMT-31"/>
       <use xlink:href="#TimesNewRomanPSMT-35" x="50"/>
       <use xlink:href="#TimesNewRomanPSMT-30" x="100"/>
      </g>
     </g>
    </g>
    <g id="xtick_19">
     <g id="line2d_33">
      <g>
       <use xlink:href="#m480a683647" x="720.827701" y="659.116875" style="stroke: #000000; stroke-width: 0.8"/>
      </g>
     </g>
     <g id="text_31">
      <!-- 200 -->
      <g transform="translate(705.827701 680.004375) scale(0.2 -0.2)">
       <use xlink:href="#TimesNewRomanPSMT-32"/>
       <use xlink:href="#TimesNewRomanPSMT-30" x="50"/>
       <use xlink:href="#TimesNewRomanPSMT-30" x="100"/>
      </g>
     </g>
    </g>
    <g id="xtick_20">
     <g id="line2d_34">
      <g>
       <use xlink:href="#m480a683647" x="874.592619" y="659.116875" style="stroke: #000000; stroke-width: 0.8"/>
      </g>
     </g>
     <g id="text_32">
      <!-- 250 -->
      <g transform="translate(859.592619 680.004375) scale(0.2 -0.2)">
       <use xlink:href="#TimesNewRomanPSMT-32"/>
       <use xlink:href="#TimesNewRomanPSMT-35" x="50"/>
       <use xlink:href="#TimesNewRomanPSMT-30" x="100"/>
      </g>
     </g>
    </g>
    <g id="xtick_21">
     <g id="line2d_35">
      <g>
       <use xlink:href="#m480a683647" x="1028.357536" y="659.116875" style="stroke: #000000; stroke-width: 0.8"/>
      </g>
     </g>
     <g id="text_33">
      <!-- 300 -->
      <g transform="translate(1013.357536 680.004375) scale(0.2 -0.2)">
       <use xlink:href="#TimesNewRomanPSMT-33"/>
       <use xlink:href="#TimesNewRomanPSMT-30" x="50"/>
       <use xlink:href="#TimesNewRomanPSMT-30" x="100"/>
      </g>
     </g>
    </g>
   </g>
   <g id="matplotlib.axis_6">
    <g id="ytick_7">
     <g id="line2d_36">
      <g>
       <use xlink:href="#m210198db9b" x="61.6375" y="615.589287" style="stroke: #000000; stroke-width: 0.8"/>
      </g>
     </g>
     <g id="text_34">
      <!-- 1.0 -->
      <g transform="translate(29.6375 622.533037) scale(0.2 -0.2)">
       <use xlink:href="#TimesNewRomanPSMT-31"/>
       <use xlink:href="#TimesNewRomanPSMT-2e" x="50"/>
       <use xlink:href="#TimesNewRomanPSMT-30" x="75"/>
      </g>
     </g>
    </g>
    <g id="ytick_8">
     <g id="line2d_37">
      <g>
       <use xlink:href="#m210198db9b" x="61.6375" y="559.46811" style="stroke: #000000; stroke-width: 0.8"/>
      </g>
     </g>
     <g id="text_35">
      <!-- 2.0 -->
      <g transform="translate(29.6375 566.41186) scale(0.2 -0.2)">
       <use xlink:href="#TimesNewRomanPSMT-32"/>
       <use xlink:href="#TimesNewRomanPSMT-2e" x="50"/>
       <use xlink:href="#TimesNewRomanPSMT-30" x="75"/>
      </g>
     </g>
    </g>
    <g id="ytick_9">
     <g id="line2d_38">
      <g>
       <use xlink:href="#m210198db9b" x="61.6375" y="503.346934" style="stroke: #000000; stroke-width: 0.8"/>
      </g>
     </g>
     <g id="text_36">
      <!-- 3.0 -->
      <g transform="translate(29.6375 510.290684) scale(0.2 -0.2)">
       <use xlink:href="#TimesNewRomanPSMT-33"/>
       <use xlink:href="#TimesNewRomanPSMT-2e" x="50"/>
       <use xlink:href="#TimesNewRomanPSMT-30" x="75"/>
      </g>
     </g>
    </g>
    <g id="text_37">
     <!-- CPU使用率 -->
     <g transform="translate(23.059375 621.888125) rotate(-90) scale(0.2 -0.2)">
      <use xlink:href="#SimSun-43"/>
      <use xlink:href="#SimSun-50" x="50"/>
      <use xlink:href="#SimSun-55" x="100"/>
      <use xlink:href="#SimSun-4f7f" x="150"/>
      <use xlink:href="#SimSun-7528" x="250"/>
      <use xlink:href="#SimSun-7387" x="350"/>
     </g>
    </g>
   </g>
   <g id="line2d_39">
    <path d="M 105.768031 526.917832 
L 108.84333 521.260816 
L 111.918628 515.06504 
L 114.993926 517.758848 
L 118.069225 523.954624 
L 121.144523 523.550551 
L 124.219821 525.032156 
L 127.29512 523.819938 
L 130.370418 518.971066 
L 133.445716 518.432307 
L 136.521015 518.971066 
L 139.596313 517.354776 
L 142.671612 518.971066 
L 145.74691 517.624162 
L 148.822208 507.926419 
L 151.897507 520.722043 
L 154.972805 520.45267 
L 158.048103 523.415865 
L 161.123402 525.166842 
L 164.1987 527.321905 
L 167.273998 524.897469 
L 170.349297 536.480875 
L 173.424595 542.003206 
L 176.499893 548.468368 
L 179.575192 554.529444 
L 182.65049 553.047853 
L 185.725788 577.965649 
L 188.801087 565.170025 
L 191.876385 574.194309 
L 194.951683 581.19823 
L 198.026982 590.4919 
L 201.10228 592.37757 
L 204.177579 582.141068 
L 207.252877 596.014224 
L 210.328175 603.287524 
L 213.403474 608.001703 
L 216.478772 615.275003 
L 219.55407 621.336096 
L 222.629369 617.430063 
L 225.704667 619.585116 
L 231.855264 625.780895 
L 234.930562 628.609403 
L 238.00586 629.956307 
L 241.081159 635.343944 
L 244.156457 639.92343 
L 247.231755 642.482552 
L 250.307054 643.42539 
L 253.382352 644.637613 
L 259.532949 642.213179 
L 262.608247 648.27426 
L 268.758844 649.351791 
L 271.834142 649.755857 
L 274.909441 649.890551 
L 277.984739 642.751938 
L 281.060037 645.580438 
L 284.135336 646.253904 
L 287.210634 645.311065 
L 290.285932 644.50292 
L 293.361231 643.021324 
L 296.436529 637.364308 
L 299.511827 638.172453 
L 302.587126 635.074565 
L 305.662424 629.686928 
L 308.737722 628.070637 
L 311.813021 624.029911 
L 314.888319 604.365049 
L 317.963617 615.140317 
L 321.038916 610.964904 
L 324.114214 604.230363 
L 327.189513 599.920257 
L 330.264811 594.802006 
L 333.340109 577.696269 
L 336.415408 576.349358 
L 339.490706 571.63518 
L 342.566004 573.386164 
L 345.641303 571.769873 
L 348.716601 566.651622 
L 351.791899 556.280434 
L 354.867198 554.125371 
L 357.942496 557.896724 
L 361.017794 556.011048 
L 364.093093 555.472289 
L 367.168391 552.50908 
L 370.243689 540.252215 
L 373.318988 541.733819 
L 376.394286 550.488717 
L 379.469584 550.084645 
L 382.544883 550.084645 
L 385.620181 546.313305 
L 388.69548 540.386915 
L 391.770778 544.831714 
L 394.846076 550.219345 
L 397.921375 547.25615 
L 400.996673 543.484796 
L 404.071971 546.178618 
L 407.14727 559.647701 
L 410.222568 531.632004 
L 413.297866 546.582691 
L 416.373165 546.178618 
L 419.448463 548.064295 
L 422.523761 551.162176 
L 425.59906 547.12145 
L 428.674358 551.296863 
L 431.749656 552.778467 
L 434.824955 549.276499 
L 437.900253 550.89279 
L 440.975551 553.990685 
L 444.05085 547.660222 
L 447.126148 547.525523 
L 450.201447 551.02749 
L 453.276745 553.047853 
L 456.352043 555.337589 
L 459.427342 553.586612 
L 462.50264 550.758104 
L 465.577938 551.970321 
L 468.653237 553.317226 
L 471.728535 549.545886 
L 474.803833 547.390836 
L 477.879132 540.790988 
L 480.95443 544.831714 
L 484.029728 546.313305 
L 487.105027 548.333668 
L 490.180325 544.697014 
L 493.255623 546.448005 
L 496.330922 541.733819 
L 499.40622 535.538044 
L 502.481518 533.517681 
L 505.556817 529.746341 
L 508.632115 520.183284 
L 511.707414 522.338334 
L 514.782712 524.897469 
L 517.85801 523.685251 
L 520.933309 522.60772 
L 524.008607 526.917832 
L 527.083905 524.089324 
L 530.159204 526.917832 
L 533.234502 526.648446 
L 536.3098 523.819938 
L 539.385099 525.974987 
L 542.460397 527.187205 
L 545.535695 524.493397 
L 548.610994 527.052519 
L 551.686292 526.51376 
L 554.76159 519.375139 
L 557.836889 523.954624 
L 560.912187 526.783132 
L 563.987485 527.456591 
L 567.062784 527.591278 
L 570.138082 525.436228 
L 573.213381 521.664888 
L 576.288679 518.971066 
L 579.363977 519.913898 
L 582.439276 520.722043 
L 585.514574 520.722043 
L 588.589872 519.509825 
L 591.665171 505.097911 
L 594.740469 521.664888 
L 597.815767 524.089324 
L 600.891066 524.493397 
L 603.966364 531.497317 
L 607.041662 533.382994 
L 610.116961 534.595199 
L 613.192259 542.003206 
L 616.267557 548.603054 
L 619.342856 552.778467 
L 622.418154 560.455846 
L 625.493452 565.035332 
L 628.568751 590.087828 
L 631.644049 576.484052 
L 634.719348 584.70019 
L 637.794646 591.434732 
L 640.869944 596.822362 
L 643.945243 603.691597 
L 647.020541 608.809848 
L 650.095839 614.197478 
L 653.171138 620.527951 
L 656.246436 622.278934 
L 659.321734 627.397185 
L 662.397033 630.36038 
L 665.472331 628.878783 
L 668.547629 630.629766 
L 674.698226 634.670486 
L 677.773524 637.229614 
L 680.848823 638.03776 
L 683.924121 642.617245 
L 686.999419 645.580438 
L 690.074718 647.196729 
L 693.150016 647.466115 
L 696.225315 648.678339 
L 699.300613 649.082405 
L 702.375911 646.388583 
L 705.45121 651.506841 
L 708.526508 651.641534 
L 711.601806 651.237455 
L 714.677105 651.641534 
L 717.752403 651.506841 
L 720.827701 649.486471 
L 723.903 649.351791 
L 726.978298 648.139567 
L 730.053596 645.849824 
L 733.128895 643.829468 
L 736.204193 640.866268 
L 739.279491 631.437911 
L 742.35479 629.686928 
L 745.430088 624.703363 
L 748.505386 614.601551 
L 751.580685 610.156759 
L 754.655983 603.82629 
L 757.731282 578.773794 
L 760.80658 585.912408 
L 763.881878 579.716633 
L 766.957177 572.982091 
L 770.032475 569.210744 
L 773.107773 561.263985 
L 776.183072 545.370473 
L 779.25837 546.582691 
L 782.333668 543.080724 
L 785.408967 544.158255 
L 788.484265 547.660222 
L 794.634862 538.366552 
L 797.71016 538.501238 
L 800.785458 535.403344 
L 803.860757 539.309384 
L 806.936055 545.639859 
L 810.011353 541.329747 
L 813.086652 527.591278 
L 816.16195 533.517681 
L 819.237249 542.003206 
L 822.312547 542.272578 
L 825.387845 538.770625 
L 828.463144 544.9664 
L 831.538442 539.309384 
L 834.61374 541.733819 
L 837.689039 541.464433 
L 840.764337 545.909232 
L 843.839635 544.697014 
L 846.914934 543.35011 
L 849.990232 553.451925 
L 853.06553 526.917832 
L 856.140829 532.978922 
L 859.216127 538.366552 
L 862.291425 541.733819 
L 865.366724 543.080724 
L 868.442022 537.693093 
L 871.51732 547.12145 
L 874.592619 548.73774 
L 877.667917 546.717377 
L 880.743216 550.219345 
L 883.818514 549.141813 
L 886.893812 534.05644 
L 889.969111 545.909232 
L 893.044409 538.097166 
L 896.119707 537.82778 
L 899.195006 548.198981 
L 902.270304 546.582691 
L 905.345602 538.501238 
L 908.420901 545.505159 
L 911.496199 548.198981 
L 914.571497 545.370473 
L 917.646796 546.582691 
L 920.722094 546.313305 
L 923.797392 542.946037 
L 926.872691 542.676651 
L 929.947989 541.329747 
L 933.023287 535.807417 
L 936.098586 542.541965 
L 939.173884 532.305463 
L 942.249183 530.2851 
L 945.324481 526.917832 
L 948.399779 528.264737 
L 951.475078 519.913898 
L 954.550376 518.971066 
L 957.625674 520.45267 
L 960.700973 512.236531 
L 963.776271 508.195805 
L 966.851569 506.579515 
L 969.926868 503.48162 
L 973.002166 503.212247 
L 976.077464 502.134716 
L 979.152763 509.138637 
L 982.228061 512.640604 
L 985.303359 509.946782 
L 988.378658 514.93034 
L 988.378658 514.93034 
" clip-path="url(#p624eac8d57)" style="fill: none; stroke: #1f77b4; stroke-width: 1.5; stroke-linecap: square"/>
   </g>
   <g id="line2d_40">
    <path d="M 548.610994 518.765156 
L 551.686292 515.886405 
L 554.76159 517.352675 
L 557.836889 516.203425 
L 560.912187 514.573567 
L 563.987485 516.433045 
L 567.062784 513.871046 
L 570.138082 516.150546 
L 573.213381 515.654336 
L 576.288679 517.946267 
L 579.363977 517.959861 
L 582.439276 519.031371 
L 585.514574 517.701005 
L 588.589872 520.660413 
L 591.665171 521.429542 
L 594.740469 522.391721 
L 597.815767 525.345523 
L 600.891066 530.80819 
L 603.966364 531.142939 
L 607.041662 535.376302 
L 610.116961 538.234689 
L 613.192259 540.081201 
L 616.267557 545.407844 
L 619.342856 547.926357 
L 622.418154 551.665437 
L 625.493452 551.189472 
L 628.568751 557.596175 
L 631.644049 565.665592 
L 634.719348 567.938241 
L 637.794646 572.563574 
L 643.945243 580.940732 
L 647.020541 587.098782 
L 650.095839 589.948572 
L 653.171138 597.020124 
L 656.246436 600.22005 
L 659.321734 604.119921 
L 662.397033 610.32683 
L 665.472331 612.674328 
L 668.547629 618.341895 
L 671.622928 621.196776 
L 674.698226 625.042702 
L 677.773524 627.493055 
L 680.848823 631.181491 
L 683.924121 633.997415 
L 686.999419 635.900519 
L 690.074718 637.26253 
L 693.150016 641.573131 
L 696.225315 639.786168 
L 699.300613 639.678804 
L 702.375911 644.096171 
L 705.45121 642.746044 
L 708.526508 644.537983 
L 711.601806 644.945568 
L 714.677105 643.281973 
L 717.752403 643.803905 
L 720.827701 643.145775 
L 726.978298 639.685093 
L 730.053596 636.70083 
L 733.128895 636.272687 
L 736.204193 631.721421 
L 739.279491 629.832814 
L 742.35479 626.157263 
L 745.430088 623.524028 
L 748.505386 621.187009 
L 751.580685 616.472717 
L 754.655983 609.84576 
L 757.731282 607.91263 
L 760.80658 603.241911 
L 763.881878 599.545414 
L 766.957177 594.018741 
L 770.032475 591.000145 
L 773.107773 587.710504 
L 776.183072 583.526896 
L 779.25837 579.950648 
L 782.333668 573.569528 
L 785.408967 570.91295 
L 788.484265 567.2508 
L 791.559563 564.294122 
L 794.634862 562.772744 
L 797.71016 558.807871 
L 800.785458 557.965178 
L 803.860757 554.570909 
L 806.936055 551.358211 
L 810.011353 551.295685 
L 813.086652 548.655946 
L 816.16195 546.397306 
L 819.237249 546.922297 
L 822.312547 548.873952 
L 825.387845 543.732828 
L 828.463144 543.72979 
L 831.538442 544.127601 
L 834.61374 543.587557 
L 837.689039 543.965231 
L 840.764337 543.891063 
L 843.839635 544.361623 
L 846.914934 541.025518 
L 849.990232 543.43169 
L 853.06553 546.825691 
L 856.140829 547.210242 
L 859.216127 545.826421 
L 862.291425 544.170739 
L 865.366724 546.07175 
L 868.442022 549.928777 
L 871.51732 549.676518 
L 874.592619 550.832391 
L 877.667917 550.962113 
L 880.743216 550.168646 
L 883.818514 551.197407 
L 886.893812 550.683843 
L 893.044409 552.003652 
L 896.119707 551.622259 
L 899.195006 550.741766 
L 902.270304 551.38726 
L 905.345602 552.999202 
L 908.420901 552.02593 
L 911.496199 552.083198 
L 914.571497 552.760363 
L 917.646796 549.881933 
L 920.722094 550.116075 
L 923.797392 548.355705 
L 926.872691 547.77156 
L 929.947989 546.203385 
L 933.023287 545.622933 
L 936.098586 542.834138 
L 939.173884 542.140006 
L 942.249183 540.179788 
L 945.324481 537.515309 
L 948.399779 534.669433 
L 951.475078 535.403759 
L 954.550376 533.84495 
L 957.625674 531.856579 
L 960.700973 529.661563 
L 963.776271 529.62003 
L 966.851569 527.523627 
L 969.926868 525.098616 
L 973.002166 523.893061 
L 976.077464 523.036439 
L 979.152763 523.36787 
L 982.228061 518.986761 
L 985.303359 517.302338 
L 988.378658 516.884457 
L 988.378658 516.884457 
" clip-path="url(#p624eac8d57)" style="fill: none; stroke: #ff7f0e; stroke-width: 1.5; stroke-linecap: square"/>
   </g>
   <g id="line2d_41">
    <path d="M 548.610994 659.116875 
L 548.610994 494.659375 
" clip-path="url(#p624eac8d57)" style="fill: none; stroke-dasharray: 7.4,3.2; stroke-dashoffset: 0; stroke: #0000ff; stroke-width: 2"/>
   </g>
   <g id="patch_14">
    <path d="M 61.6375 659.116875 
L 61.6375 494.659375 
" style="fill: none; stroke: #000000; stroke-width: 0.8; stroke-linejoin: miter; stroke-linecap: square"/>
   </g>
   <g id="patch_15">
    <path d="M 1032.509189 659.116875 
L 1032.509189 494.659375 
" style="fill: none; stroke: #000000; stroke-width: 0.8; stroke-linejoin: miter; stroke-linecap: square"/>
   </g>
   <g id="patch_16">
    <path d="M 61.6375 659.116875 
L 1032.509189 659.116875 
" style="fill: none; stroke: #000000; stroke-width: 0.8; stroke-linejoin: miter; stroke-linecap: square"/>
   </g>
   <g id="patch_17">
    <path d="M 61.6375 494.659375 
L 1032.509189 494.659375 
" style="fill: none; stroke: #000000; stroke-width: 0.8; stroke-linejoin: miter; stroke-linecap: square"/>
   </g>
   <g id="text_38">
    <!-- 云函数ID: 150 -->
    <g transform="translate(482.073345 488.659375) scale(0.2 -0.2)">
     <defs>
      <path id="SimSun-31" d="M 1825 4450 
L 1825 650 
Q 1825 450 1950 350 
Q 2075 250 2300 250 
L 2550 250 
L 2550 100 
L 725 100 
L 725 250 
L 950 250 
Q 1200 250 1312 350 
Q 1425 450 1425 650 
L 1425 3675 
Q 1425 3775 1362 3837 
Q 1300 3900 1175 3900 
L 725 3900 
L 725 4050 
L 950 4050 
Q 1250 4050 1437 4150 
Q 1625 4250 1725 4450 
L 1825 4450 
z
" transform="scale(0.015625)"/>
      <path id="SimSun-35" d="M 1725 2850 
Q 2200 2850 2500 2487 
Q 2800 2125 2800 1525 
Q 2800 850 2487 450 
Q 2175 50 1525 50 
Q 1075 50 725 312 
Q 375 575 375 950 
Q 375 1100 462 1212 
Q 550 1325 700 1325 
Q 850 1325 900 1225 
Q 950 1125 950 1050 
Q 950 900 875 825 
Q 800 725 800 625 
Q 800 425 1037 325 
Q 1275 225 1550 225 
Q 1950 225 2162 550 
Q 2375 875 2375 1475 
Q 2375 1975 2187 2287 
Q 2000 2600 1625 2600 
Q 1350 2600 1150 2500 
Q 950 2400 775 2075 
L 550 2100 
L 675 4375 
L 2725 4375 
L 2650 4000 
L 850 4000 
L 750 2350 
Q 1000 2700 1237 2775 
Q 1475 2850 1725 2850 
z
" transform="scale(0.015625)"/>
      <path id="SimSun-30" d="M 1600 4225 
Q 1250 4225 1012 3687 
Q 775 3150 775 2250 
Q 775 1300 1012 775 
Q 1250 250 1600 250 
Q 1975 250 2187 775 
Q 2400 1300 2400 2250 
Q 2400 3150 2200 3687 
Q 2000 4225 1600 4225 
z
M 1600 50 
Q 1050 50 675 625 
Q 300 1200 300 2250 
Q 300 3225 662 3825 
Q 1025 4425 1600 4425 
Q 2150 4425 2512 3850 
Q 2875 3275 2875 2250 
Q 2875 1225 2512 637 
Q 2150 50 1600 50 
z
" transform="scale(0.015625)"/>
     </defs>
     <use xlink:href="#SimSun-4e91"/>
     <use xlink:href="#SimSun-51fd" x="100"/>
     <use xlink:href="#SimSun-6570" x="200"/>
     <use xlink:href="#SimSun-49" x="300"/>
     <use xlink:href="#SimSun-44" x="350"/>
     <use xlink:href="#SimSun-3a" x="400"/>
     <use xlink:href="#SimSun-20" x="450"/>
     <use xlink:href="#SimSun-31" x="500"/>
     <use xlink:href="#SimSun-35" x="550"/>
     <use xlink:href="#SimSun-30" x="600"/>
    </g>
   </g>
  </g>
 </g>
 <defs>
  <clipPath id="p132fe7226b">
   <rect x="61.6375" y="29.059375" width="970.871689" height="164.4575"/>
  </clipPath>
  <clipPath id="pe004a98b44">
   <rect x="61.6375" y="261.859375" width="970.871689" height="164.4575"/>
  </clipPath>
  <clipPath id="p624eac8d57">
   <rect x="61.6375" y="494.659375" width="970.871689" height="164.4575"/>
  </clipPath>
 </defs>
</svg>
