<?xml version="1.0" encoding="utf-8" standalone="no"?>
<!DOCTYPE svg PUBLIC "-//W3C//DTD SVG 1.1//EN"
  "http://www.w3.org/Graphics/SVG/1.1/DTD/svg11.dtd">
<svg xmlns:xlink="http://www.w3.org/1999/xlink" width="1050.580384pt" height="691.4825pt" viewBox="0 0 1050.580384 691.4825" xmlns="http://www.w3.org/2000/svg" version="1.1">
 <metadata>
  <rdf:RDF xmlns:dc="http://purl.org/dc/elements/1.1/" xmlns:cc="http://creativecommons.org/ns#" xmlns:rdf="http://www.w3.org/1999/02/22-rdf-syntax-ns#">
   <cc:Work>
    <dc:type rdf:resource="http://purl.org/dc/dcmitype/StillImage"/>
    <dc:date>2024-02-27T09:57:48.479125</dc:date>
    <dc:format>image/svg+xml</dc:format>
    <dc:creator>
     <cc:Agent>
      <dc:title>Matplotlib v3.7.4, https://matplotlib.org/</dc:title>
     </cc:Agent>
    </dc:creator>
   </cc:Work>
  </rdf:RDF>
 </metadata>
 <defs>
  <style type="text/css">*{stroke-linejoin: round; stroke-linecap: butt}</style>
 </defs>
 <g id="figure_1">
  <g id="patch_1">
   <path d="M 0 691.4825 
L 1050.580384 691.4825 
L 1050.580384 0 
L 0 0 
z
" style="fill: #ffffff"/>
  </g>
  <g id="axes_1">
   <g id="patch_2">
    <path d="M 71.6375 135.316875 
L 1032.489189 135.316875 
L 1032.489189 29.059375 
L 71.6375 29.059375 
z
" style="fill: #ffffff"/>
   </g>
   <g id="matplotlib.axis_1">
    <g id="xtick_1">
     <g id="line2d_1">
      <defs>
       <path id="mf3d1521f67" d="M 0 0 
L 0 3.5 
" style="stroke: #000000; stroke-width: 0.8"/>
      </defs>
      <g>
       <use xlink:href="#mf3d1521f67" x="115.312577" y="135.316875" style="stroke: #000000; stroke-width: 0.8"/>
      </g>
     </g>
     <g id="text_1">
      <!-- 0 -->
      <g transform="translate(110.312577 156.204375) scale(0.2 -0.2)">
       <defs>
        <path id="TimesNewRomanPSMT-30" d="M 231 2094 
Q 231 2819 450 3342 
Q 669 3866 1031 4122 
Q 1313 4325 1613 4325 
Q 2100 4325 2488 3828 
Q 2972 3213 2972 2159 
Q 2972 1422 2759 906 
Q 2547 391 2217 158 
Q 1888 -75 1581 -75 
Q 975 -75 572 641 
Q 231 1244 231 2094 
z
M 844 2016 
Q 844 1141 1059 588 
Q 1238 122 1591 122 
Q 1759 122 1940 273 
Q 2122 425 2216 781 
Q 2359 1319 2359 2297 
Q 2359 3022 2209 3506 
Q 2097 3866 1919 4016 
Q 1791 4119 1609 4119 
Q 1397 4119 1231 3928 
Q 1006 3669 925 3112 
Q 844 2556 844 2016 
z
" transform="scale(0.015625)"/>
       </defs>
       <use xlink:href="#TimesNewRomanPSMT-30"/>
      </g>
     </g>
    </g>
    <g id="xtick_2">
     <g id="line2d_2">
      <g>
       <use xlink:href="#mf3d1521f67" x="267.490545" y="135.316875" style="stroke: #000000; stroke-width: 0.8"/>
      </g>
     </g>
     <g id="text_2">
      <!-- 50 -->
      <g transform="translate(257.490545 156.204375) scale(0.2 -0.2)">
       <defs>
        <path id="TimesNewRomanPSMT-35" d="M 2778 4238 
L 2534 3706 
L 1259 3706 
L 981 3138 
Q 1809 3016 2294 2522 
Q 2709 2097 2709 1522 
Q 2709 1188 2573 903 
Q 2438 619 2231 419 
Q 2025 219 1772 97 
Q 1413 -75 1034 -75 
Q 653 -75 479 54 
Q 306 184 306 341 
Q 306 428 378 495 
Q 450 563 559 563 
Q 641 563 702 538 
Q 763 513 909 409 
Q 1144 247 1384 247 
Q 1750 247 2026 523 
Q 2303 800 2303 1197 
Q 2303 1581 2056 1914 
Q 1809 2247 1375 2428 
Q 1034 2569 447 2591 
L 1259 4238 
L 2778 4238 
z
" transform="scale(0.015625)"/>
       </defs>
       <use xlink:href="#TimesNewRomanPSMT-35"/>
       <use xlink:href="#TimesNewRomanPSMT-30" x="50"/>
      </g>
     </g>
    </g>
    <g id="xtick_3">
     <g id="line2d_3">
      <g>
       <use xlink:href="#mf3d1521f67" x="419.668513" y="135.316875" style="stroke: #000000; stroke-width: 0.8"/>
      </g>
     </g>
     <g id="text_3">
      <!-- 100 -->
      <g transform="translate(404.668513 156.204375) scale(0.2 -0.2)">
       <defs>
        <path id="TimesNewRomanPSMT-31" d="M 750 3822 
L 1781 4325 
L 1884 4325 
L 1884 747 
Q 1884 391 1914 303 
Q 1944 216 2037 169 
Q 2131 122 2419 116 
L 2419 0 
L 825 0 
L 825 116 
Q 1125 122 1212 167 
Q 1300 213 1334 289 
Q 1369 366 1369 747 
L 1369 3034 
Q 1369 3497 1338 3628 
Q 1316 3728 1258 3775 
Q 1200 3822 1119 3822 
Q 1003 3822 797 3725 
L 750 3822 
z
" transform="scale(0.015625)"/>
       </defs>
       <use xlink:href="#TimesNewRomanPSMT-31"/>
       <use xlink:href="#TimesNewRomanPSMT-30" x="50"/>
       <use xlink:href="#TimesNewRomanPSMT-30" x="100"/>
      </g>
     </g>
    </g>
    <g id="xtick_4">
     <g id="line2d_4">
      <g>
       <use xlink:href="#mf3d1521f67" x="571.84648" y="135.316875" style="stroke: #000000; stroke-width: 0.8"/>
      </g>
     </g>
     <g id="text_4">
      <!-- 150 -->
      <g transform="translate(556.84648 156.204375) scale(0.2 -0.2)">
       <use xlink:href="#TimesNewRomanPSMT-31"/>
       <use xlink:href="#TimesNewRomanPSMT-35" x="50"/>
       <use xlink:href="#TimesNewRomanPSMT-30" x="100"/>
      </g>
     </g>
    </g>
    <g id="xtick_5">
     <g id="line2d_5">
      <g>
       <use xlink:href="#mf3d1521f67" x="724.024448" y="135.316875" style="stroke: #000000; stroke-width: 0.8"/>
      </g>
     </g>
     <g id="text_5">
      <!-- 200 -->
      <g transform="translate(709.024448 156.204375) scale(0.2 -0.2)">
       <defs>
        <path id="TimesNewRomanPSMT-32" d="M 2934 816 
L 2638 0 
L 138 0 
L 138 116 
Q 1241 1122 1691 1759 
Q 2141 2397 2141 2925 
Q 2141 3328 1894 3587 
Q 1647 3847 1303 3847 
Q 991 3847 742 3664 
Q 494 3481 375 3128 
L 259 3128 
Q 338 3706 661 4015 
Q 984 4325 1469 4325 
Q 1984 4325 2329 3994 
Q 2675 3663 2675 3213 
Q 2675 2891 2525 2569 
Q 2294 2063 1775 1497 
Q 997 647 803 472 
L 1909 472 
Q 2247 472 2383 497 
Q 2519 522 2628 598 
Q 2738 675 2819 816 
L 2934 816 
z
" transform="scale(0.015625)"/>
       </defs>
       <use xlink:href="#TimesNewRomanPSMT-32"/>
       <use xlink:href="#TimesNewRomanPSMT-30" x="50"/>
       <use xlink:href="#TimesNewRomanPSMT-30" x="100"/>
      </g>
     </g>
    </g>
    <g id="xtick_6">
     <g id="line2d_6">
      <g>
       <use xlink:href="#mf3d1521f67" x="876.202416" y="135.316875" style="stroke: #000000; stroke-width: 0.8"/>
      </g>
     </g>
     <g id="text_6">
      <!-- 250 -->
      <g transform="translate(861.202416 156.204375) scale(0.2 -0.2)">
       <use xlink:href="#TimesNewRomanPSMT-32"/>
       <use xlink:href="#TimesNewRomanPSMT-35" x="50"/>
       <use xlink:href="#TimesNewRomanPSMT-30" x="100"/>
      </g>
     </g>
    </g>
    <g id="xtick_7">
     <g id="line2d_7">
      <g>
       <use xlink:href="#mf3d1521f67" x="1028.380384" y="135.316875" style="stroke: #000000; stroke-width: 0.8"/>
      </g>
     </g>
     <g id="text_7">
      <!-- 300 -->
      <g transform="translate(1013.380384 156.204375) scale(0.2 -0.2)">
       <defs>
        <path id="TimesNewRomanPSMT-33" d="M 325 3431 
Q 506 3859 782 4092 
Q 1059 4325 1472 4325 
Q 1981 4325 2253 3994 
Q 2459 3747 2459 3466 
Q 2459 3003 1878 2509 
Q 2269 2356 2469 2072 
Q 2669 1788 2669 1403 
Q 2669 853 2319 450 
Q 1863 -75 997 -75 
Q 569 -75 414 31 
Q 259 138 259 259 
Q 259 350 332 419 
Q 406 488 509 488 
Q 588 488 669 463 
Q 722 447 909 348 
Q 1097 250 1169 231 
Q 1284 197 1416 197 
Q 1734 197 1970 444 
Q 2206 691 2206 1028 
Q 2206 1275 2097 1509 
Q 2016 1684 1919 1775 
Q 1784 1900 1550 2001 
Q 1316 2103 1072 2103 
L 972 2103 
L 972 2197 
Q 1219 2228 1467 2375 
Q 1716 2522 1828 2728 
Q 1941 2934 1941 3181 
Q 1941 3503 1739 3701 
Q 1538 3900 1238 3900 
Q 753 3900 428 3381 
L 325 3431 
z
" transform="scale(0.015625)"/>
       </defs>
       <use xlink:href="#TimesNewRomanPSMT-33"/>
       <use xlink:href="#TimesNewRomanPSMT-30" x="50"/>
       <use xlink:href="#TimesNewRomanPSMT-30" x="100"/>
      </g>
     </g>
    </g>
   </g>
   <g id="matplotlib.axis_2">
    <g id="ytick_1">
     <g id="line2d_8">
      <defs>
       <path id="m280f69677e" d="M 0 0 
L -3.5 0 
" style="stroke: #000000; stroke-width: 0.8"/>
      </defs>
      <g>
       <use xlink:href="#m280f69677e" x="71.6375" y="133.854856" style="stroke: #000000; stroke-width: 0.8"/>
      </g>
     </g>
     <g id="text_8">
      <!-- 0.0 -->
      <g transform="translate(39.6375 140.798606) scale(0.2 -0.2)">
       <defs>
        <path id="TimesNewRomanPSMT-2e" d="M 800 606 
Q 947 606 1047 504 
Q 1147 403 1147 259 
Q 1147 116 1045 14 
Q 944 -88 800 -88 
Q 656 -88 554 14 
Q 453 116 453 259 
Q 453 406 554 506 
Q 656 606 800 606 
z
" transform="scale(0.015625)"/>
       </defs>
       <use xlink:href="#TimesNewRomanPSMT-30"/>
       <use xlink:href="#TimesNewRomanPSMT-2e" x="50"/>
       <use xlink:href="#TimesNewRomanPSMT-30" x="75"/>
      </g>
     </g>
    </g>
    <g id="ytick_2">
     <g id="line2d_9">
      <g>
       <use xlink:href="#m280f69677e" x="71.6375" y="71.83152" style="stroke: #000000; stroke-width: 0.8"/>
      </g>
     </g>
     <g id="text_9">
      <!-- 2.0 -->
      <g transform="translate(39.6375 78.77527) scale(0.2 -0.2)">
       <use xlink:href="#TimesNewRomanPSMT-32"/>
       <use xlink:href="#TimesNewRomanPSMT-2e" x="50"/>
       <use xlink:href="#TimesNewRomanPSMT-30" x="75"/>
      </g>
     </g>
    </g>
    <g id="text_10">
     <!-- CPU使用率 -->
     <g transform="translate(33.059375 127.188125) rotate(-90) scale(0.2 -0.2)">
      <defs>
       <path id="SimSun-43" d="M 1725 50 
Q 1025 50 612 575 
Q 200 1100 200 2225 
Q 200 3175 637 3800 
Q 1075 4425 1825 4425 
Q 2000 4425 2175 4375 
Q 2350 4300 2475 4300 
Q 2575 4300 2637 4325 
Q 2700 4350 2750 4425 
L 2975 3325 
L 2825 3275 
Q 2675 3750 2425 4000 
Q 2175 4250 1775 4250 
Q 1250 4250 962 3675 
Q 675 3100 675 2250 
Q 675 1325 925 800 
Q 1175 275 1750 275 
Q 2150 275 2437 562 
Q 2725 850 2825 1325 
L 2975 1250 
Q 2850 725 2512 387 
Q 2175 50 1725 50 
z
" transform="scale(0.015625)"/>
       <path id="SimSun-50" d="M 950 2100 
L 950 450 
Q 950 350 1012 300 
Q 1075 250 1175 250 
L 1350 250 
L 1350 100 
L 150 100 
L 150 250 
L 325 250 
Q 450 250 500 300 
Q 550 350 550 450 
L 550 4025 
Q 550 4125 500 4175 
Q 450 4225 325 4225 
L 175 4225 
L 175 4375 
L 1650 4375 
Q 2275 4375 2612 4062 
Q 2950 3750 2950 3275 
Q 2950 2700 2587 2400 
Q 2225 2100 1725 2100 
L 950 2100 
z
M 1575 2250 
Q 1950 2250 2237 2475 
Q 2525 2700 2525 3250 
Q 2525 3750 2287 3987 
Q 2050 4225 1525 4225 
L 1175 4225 
Q 1075 4225 1012 4175 
Q 950 4125 950 4025 
L 950 2250 
L 1575 2250 
z
" transform="scale(0.015625)"/>
       <path id="SimSun-55" d="M 1625 250 
Q 2000 250 2262 500 
Q 2525 750 2525 1125 
L 2525 4025 
Q 2525 4125 2475 4175 
Q 2425 4225 2300 4225 
L 2150 4225 
L 2150 4375 
L 3050 4375 
L 3050 4225 
L 2900 4225 
Q 2800 4225 2737 4175 
Q 2675 4125 2675 4025 
L 2675 1125 
Q 2675 625 2337 337 
Q 2000 50 1575 50 
Q 1125 50 787 300 
Q 450 550 450 1100 
L 450 4025 
Q 450 4125 400 4175 
Q 350 4225 225 4225 
L 100 4225 
L 100 4375 
L 1200 4375 
L 1200 4225 
L 1075 4225 
Q 975 4225 912 4175 
Q 850 4125 850 4025 
L 850 1100 
Q 850 600 1062 425 
Q 1275 250 1625 250 
z
" transform="scale(0.015625)"/>
       <path id="SimSun-4f7f" d="M 2875 3150 
L 2875 2100 
L 3825 2100 
Q 3850 2825 3850 3150 
L 2875 3150 
z
M 4175 3150 
Q 4175 2800 4150 2100 
L 5150 2100 
L 5150 3150 
L 4175 3150 
z
M 5475 3100 
L 5475 2425 
Q 5475 2100 5500 1800 
L 5150 1675 
L 5150 1950 
L 4150 1950 
Q 4125 1175 3875 600 
Q 4275 275 4875 75 
Q 5475 -125 6075 -150 
L 6075 -250 
Q 5700 -300 5600 -575 
Q 4525 -325 3725 350 
Q 3425 25 2925 -225 
Q 2425 -475 1875 -650 
L 1825 -550 
Q 2400 -325 2850 -25 
Q 3300 275 3500 575 
Q 3200 925 2825 1650 
L 2900 1700 
Q 3325 1100 3625 825 
Q 3800 1300 3825 1950 
L 2875 1950 
L 2875 1825 
L 2525 1675 
Q 2550 2075 2550 2562 
Q 2550 3050 2525 3500 
L 2875 3300 
L 3850 3300 
L 3850 4025 
L 2975 4025 
Q 2650 4025 2375 3950 
L 2150 4175 
L 3850 4175 
L 3850 4525 
Q 3850 4775 3825 5225 
L 4350 5000 
L 4175 4825 
L 4175 4175 
L 5300 4175 
L 5600 4475 
L 6050 4025 
L 4175 4025 
L 4175 3300 
L 5100 3300 
L 5275 3525 
L 5650 3225 
L 5475 3100 
z
M 1675 3175 
L 1675 -450 
L 1325 -625 
Q 1350 -75 1350 350 
L 1350 3200 
Q 900 2475 350 1900 
L 275 1950 
Q 700 2525 1112 3400 
Q 1525 4275 1800 5250 
L 2325 4925 
L 2125 4800 
Q 1725 3925 1500 3525 
L 1875 3325 
L 1675 3175 
z
" transform="scale(0.015625)"/>
       <path id="SimSun-7528" d="M 3400 3150 
L 3400 1825 
L 5075 1825 
L 5075 3150 
L 3400 3150 
z
M 4075 100 
Q 4725 50 4900 62 
Q 5075 75 5075 400 
L 5075 1675 
L 3400 1675 
Q 3400 75 3425 -225 
L 3050 -400 
Q 3075 1025 3075 1675 
L 1425 1675 
Q 1250 350 375 -600 
L 300 -550 
Q 775 225 950 1025 
Q 1125 1825 1125 3225 
Q 1125 4625 1100 5075 
L 1475 4825 
L 5050 4825 
L 5225 5100 
L 5625 4800 
L 5425 4600 
L 5425 225 
Q 5450 -400 4875 -575 
Q 4825 -150 4075 -25 
L 4075 100 
z
M 1475 4675 
L 1475 3300 
L 3075 3300 
L 3075 4675 
L 1475 4675 
z
M 3400 4675 
L 3400 3300 
L 5075 3300 
L 5075 4675 
L 3400 4675 
z
M 1475 3150 
Q 1450 2100 1425 1825 
L 3075 1825 
L 3075 3150 
L 1475 3150 
z
" transform="scale(0.015625)"/>
       <path id="SimSun-7387" d="M 875 3725 
L 925 3800 
Q 1375 3650 1550 3525 
Q 1725 3400 1725 3250 
Q 1725 3175 1662 3025 
Q 1600 2875 1550 2875 
Q 1500 2875 1425 3050 
Q 1275 3325 875 3725 
z
M 550 1850 
Q 875 1925 2000 2575 
L 2050 2500 
Q 1675 2225 1337 1937 
Q 1000 1650 875 1425 
L 550 1850 
z
M 5200 3450 
Q 4800 3150 4275 2800 
L 4225 2875 
Q 4775 3400 5050 3925 
L 5450 3525 
L 5200 3450 
z
M 4325 2500 
L 4350 2575 
Q 5225 2350 5375 2212 
Q 5525 2075 5525 1900 
Q 5525 1775 5487 1662 
Q 5450 1550 5400 1550 
Q 5325 1550 5200 1800 
Q 4975 2150 4325 2500 
z
M 3150 3900 
Q 2500 3300 2300 3150 
Q 2800 3150 3400 3175 
Q 3700 3500 3850 3825 
L 4250 3450 
Q 4050 3400 3450 2825 
Q 2850 2250 2475 1950 
Q 3150 1975 3850 2000 
Q 3750 2175 3550 2450 
L 3600 2500 
Q 4050 2250 4200 2100 
Q 4350 1950 4350 1850 
Q 4350 1775 4250 1625 
Q 4150 1475 4100 1475 
Q 4075 1475 4050 1550 
Q 4000 1700 3900 1900 
Q 3650 1875 3075 1800 
L 3500 1550 
L 3325 1425 
L 3325 975 
L 5325 975 
L 5650 1300 
L 6100 825 
L 3325 825 
Q 3325 -275 3350 -525 
L 2975 -650 
Q 3000 0 3000 825 
L 1125 825 
Q 800 825 525 750 
L 300 975 
L 3000 975 
L 3000 1775 
Q 2450 1700 2200 1525 
L 1950 1950 
Q 2275 1950 2675 2350 
Q 3075 2750 3325 3050 
Q 2400 2950 2150 2775 
L 1950 3175 
Q 2150 3150 2475 3575 
Q 2800 4000 2900 4225 
L 1450 4225 
Q 1125 4225 850 4150 
L 625 4375 
L 3100 4375 
Q 3050 4800 2675 5200 
L 2725 5250 
Q 3225 5050 3337 4912 
Q 3450 4775 3450 4700 
Q 3450 4550 3250 4375 
L 5025 4375 
L 5350 4675 
L 5775 4225 
L 3050 4225 
L 3375 3950 
L 3150 3900 
z
" transform="scale(0.015625)"/>
      </defs>
      <use xlink:href="#SimSun-43"/>
      <use xlink:href="#SimSun-50" x="50"/>
      <use xlink:href="#SimSun-55" x="100"/>
      <use xlink:href="#SimSun-4f7f" x="150"/>
      <use xlink:href="#SimSun-7528" x="250"/>
      <use xlink:href="#SimSun-7387" x="350"/>
     </g>
    </g>
   </g>
   <g id="line2d_10">
    <path d="M 115.312577 96.082643 
L 118.356136 98.743445 
L 121.399695 100.362253 
L 124.443255 99.878472 
L 127.486814 99.20862 
L 130.530374 102.911414 
L 133.573933 101.553103 
L 136.617492 101.627532 
L 139.661052 103.823157 
L 142.704611 104.716293 
L 145.74817 103.6743 
L 148.79173 104.753508 
L 151.835289 119.918212 
L 154.878848 100.93907 
L 157.922408 100.790215 
L 160.965967 101.385638 
L 164.009526 102.204349 
L 167.053086 102.297381 
L 170.096645 104.065047 
L 173.140205 113.641451 
L 176.183764 115.520756 
L 179.227323 117.753597 
L 182.270883 120.358577 
L 185.314442 121.127668 
L 188.358001 119.601892 
L 191.401561 120.495029 
L 194.44512 121.177286 
L 197.488679 122.442561 
L 200.532239 122.169659 
L 203.575798 123.199246 
L 206.619357 123.931121 
L 209.662917 125.432087 
L 212.706476 126.436864 
L 215.750036 129.482214 
L 218.793595 125.444492 
L 221.837154 129.587653 
L 224.880714 124.911089 
L 227.924273 129.134881 
L 230.967832 124.650592 
L 234.011392 127.125324 
L 237.054951 122.318516 
L 240.09851 123.434937 
L 243.14207 123.168234 
L 246.185629 123.751254 
L 249.229188 123.825682 
L 252.272748 124.396297 
L 255.316307 124.315666 
L 258.359867 124.861472 
L 264.446985 124.898686 
L 267.490545 123.540373 
L 270.534104 124.501738 
L 273.577663 124.017955 
L 276.621223 125.339053 
L 279.664782 125.028935 
L 282.708341 125.636764 
L 285.751901 125.134373 
L 288.79546 127.857199 
L 291.83902 128.378196 
L 294.882579 129.494613 
L 297.926138 125.556134 
L 300.969698 126.126749 
L 304.013257 121.239308 
L 307.056816 125.580942 
L 310.100376 127.292789 
L 316.187494 127.919222 
L 319.231054 127.571892 
L 322.274613 126.858622 
L 325.318172 127.640118 
L 328.361732 126.777991 
L 331.405291 124.694009 
L 334.448851 126.188772 
L 337.49241 129.786127 
L 340.535969 128.514648 
L 343.579529 129.556639 
L 346.623088 130.288514 
L 349.666647 130.486989 
L 352.710207 130.443572 
L 355.753766 130.164469 
L 358.797325 126.15776 
L 361.840885 129.258926 
L 364.884444 126.325222 
L 367.928003 124.067572 
L 370.971563 125.556134 
L 374.015122 125.30804 
L 377.058682 126.263199 
L 380.102241 125.14678 
L 383.1458 123.149628 
L 386.18936 123.831885 
L 392.276478 123.683029 
L 395.320038 123.993145 
L 398.363597 122.913939 
L 401.407156 122.405348 
L 404.450716 122.107637 
L 407.494275 121.37576 
L 410.537834 121.264118 
L 413.581394 120.20972 
L 416.624953 113.219691 
L 419.668513 113.126656 
L 422.712072 121.363355 
L 425.755631 120.631481 
L 428.799191 120.730718 
L 431.84275 113.895747 
L 434.886309 111.346588 
L 437.929869 111.098494 
L 440.973428 112.066058 
L 444.016987 106.186246 
L 447.060547 99.283049 
L 450.104106 100.883251 
L 453.147665 101.577913 
L 456.191225 103.066472 
L 459.234784 103.463421 
L 462.278344 106.341304 
L 465.321903 106.8623 
L 468.365462 104.530224 
L 471.409022 108.177195 
L 474.452581 105.299313 
L 477.49614 106.043593 
L 480.5397 101.081725 
L 483.583259 93.849805 
L 486.626818 85.38362 
L 489.670378 80.824903 
L 492.713937 58.701182 
L 495.757496 78.964204 
L 498.801056 83.957083 
L 501.844615 86.996224 
L 504.888175 77.413619 
L 507.931734 79.739495 
L 510.975293 73.320083 
L 514.018853 79.770508 
L 517.062412 71.304323 
L 520.105971 61.002245 
L 523.149531 56.040383 
L 526.19309 60.022277 
L 529.236649 65.567166 
L 532.280209 65.046165 
L 535.323768 66.801428 
L 538.367327 71.279517 
L 541.410887 55.035601 
L 544.454446 68.246575 
L 547.498006 63.557609 
L 550.541565 63.818106 
L 553.585124 65.79045 
L 556.628684 61.808549 
L 559.672243 62.590047 
L 562.715802 68.631117 
L 565.759362 74.126383 
L 568.802921 71.304323 
L 571.84648 63.861522 
L 574.89004 59.76178 
L 577.933599 58.794218 
L 580.977158 59.76178 
L 584.020718 62.255117 
L 587.064277 61.771337 
L 590.107837 108.326051 
L 593.151396 59.538496 
L 596.194955 59.017502 
L 599.238515 65.306669 
L 602.282074 70.218912 
L 605.325633 67.241793 
L 608.369193 69.511847 
L 611.412752 82.902685 
L 614.456311 80.793893 
L 617.499871 79.584437 
L 620.54343 79.274321 
L 623.586989 81.910314 
L 626.630549 80.452764 
L 629.674108 76.235179 
L 632.717668 64.301887 
L 635.761227 66.348657 
L 638.804786 74.659784 
L 641.848346 80.855916 
L 644.891905 79.336343 
L 647.935464 79.739495 
L 650.979024 75.614943 
L 654.022583 86.282956 
L 657.066142 87.151283 
L 660.109702 86.313969 
L 663.153261 79.05724 
L 666.19682 67.781397 
L 669.24038 73.382102 
L 672.283939 82.499533 
L 675.327499 79.05724 
L 678.371058 81.041987 
L 681.414617 85.042491 
L 684.458177 84.236186 
L 687.501736 83.771012 
L 690.545295 84.856423 
L 693.588855 86.593072 
L 696.632414 85.538678 
L 699.675973 78.902182 
L 702.719533 70.330558 
L 705.763092 72.228469 
L 708.806651 71.521404 
L 711.850211 72.340111 
L 714.89377 71.484191 
L 717.93733 67.874433 
L 720.980889 66.274231 
L 724.024448 62.813324 
L 727.068008 65.641592 
L 730.111567 59.612921 
L 733.155126 61.473619 
L 736.198686 62.478402 
L 739.242245 60.09671 
L 742.285804 66.683587 
L 745.329364 71.633049 
L 748.372923 80.446564 
L 751.416482 82.437511 
L 754.460042 79.460392 
L 757.503601 75.329636 
L 760.547161 79.671269 
L 763.59072 86.593072 
L 766.634279 83.522918 
L 769.677839 84.608329 
L 772.721398 80.669848 
L 775.764957 81.352103 
L 778.808517 69.772344 
L 781.852076 75.211791 
L 784.895635 76.576305 
L 787.939195 78.312958 
L 790.982754 77.3516 
L 794.026313 81.072996 
L 797.069873 78.654088 
L 800.113432 80.824903 
L 803.156992 81.755255 
L 806.200551 79.522414 
L 809.24411 82.933698 
L 812.28767 80.917938 
L 815.331229 81.786265 
L 818.374788 81.445135 
L 821.418348 69.80336 
L 824.461907 68.581498 
L 827.505466 62.850544 
L 830.549026 66.683587 
L 833.592585 57.268442 
L 836.636144 55.98456 
L 839.679704 39.815077 
L 842.723263 41.855644 
L 845.766823 54.055632 
L 848.810382 50.712574 
L 851.853941 62.515614 
L 854.897501 54.84953 
L 857.94106 50.644352 
L 860.984619 61.808549 
L 864.028179 61.17591 
L 867.071738 64.785668 
L 870.115297 67.241793 
L 873.158857 65.939301 
L 876.202416 65.827663 
L 879.245975 68.879207 
L 882.289535 63.371538 
L 885.333094 61.17591 
L 888.376654 61.287556 
L 891.420213 58.378659 
L 894.463772 52.796557 
L 897.507332 52.188731 
L 900.550891 65.157811 
L 903.59445 61.696911 
L 906.63801 65.269456 
L 909.681569 68.172142 
L 912.725128 65.976514 
L 915.768688 69.176924 
L 918.812247 57.231229 
L 921.855806 70.194106 
L 924.899366 67.353439 
L 927.942925 69.015659 
L 930.986485 69.970822 
L 934.030044 70.653081 
L 937.073603 75.645956 
L 943.160722 74.591558 
L 946.204281 71.800511 
L 949.247841 71.645449 
L 952.2914 77.847784 
L 955.334959 78.902182 
L 958.378519 84.50909 
L 961.422078 84.707564 
L 964.465637 84.55871 
L 967.509197 84.012902 
L 970.552756 87.213309 
L 973.596316 87.982397 
L 976.639875 85.997649 
L 982.726994 94.829774 
L 985.770553 93.787779 
L 988.814112 90.091189 
L 988.814112 90.091189 
" clip-path="url(#pc4d56f42aa)" style="fill: none; stroke: #1f77b4; stroke-width: 1.5; stroke-linecap: square"/>
   </g>
   <g id="line2d_11">
    <path d="M 553.585124 57.76043 
L 556.628684 56.113204 
L 559.672243 56.442981 
L 562.715802 55.150064 
L 565.759362 54.671658 
L 568.802921 55.797535 
L 574.89004 56.395335 
L 577.933599 55.20304 
L 580.977158 54.708331 
L 584.020718 53.796903 
L 587.064277 48.143754 
L 590.107837 66.521412 
L 593.151396 44.582757 
L 596.194955 44.016336 
L 599.238515 45.193378 
L 602.282074 49.07658 
L 605.325633 49.109526 
L 608.369193 50.103964 
L 611.412752 51.460926 
L 614.456311 51.214625 
L 620.54343 47.961091 
L 623.586989 49.429011 
L 626.630549 43.17611 
L 629.674108 40.732184 
L 632.717668 43.352916 
L 635.761227 45.602955 
L 638.804786 46.074145 
L 641.848346 47.850162 
L 644.891905 47.018128 
L 647.935464 50.216875 
L 650.979024 51.075637 
L 654.022583 50.901167 
L 657.066142 51.892551 
L 660.109702 51.205442 
L 663.153261 45.15184 
L 666.19682 44.114769 
L 669.24038 45.846742 
L 672.283939 46.014965 
L 675.327499 49.216366 
L 678.371058 49.105075 
L 681.414617 49.305054 
L 684.458177 49.165401 
L 687.501736 51.062107 
L 690.545295 50.771177 
L 693.588855 51.356238 
L 696.632414 51.210951 
L 699.675973 47.684113 
L 702.719533 45.411309 
L 705.763092 45.227914 
L 708.806651 45.968044 
L 711.850211 44.665094 
L 714.89377 44.617197 
L 717.93733 46.116481 
L 720.980889 45.224321 
L 724.024448 44.672148 
L 727.068008 44.306024 
L 730.111567 42.990445 
L 733.155126 43.445191 
L 736.198686 40.969938 
L 742.285804 39.871085 
L 745.329364 38.26142 
L 748.372923 42.009729 
L 751.416482 38.843153 
L 754.460042 40.236411 
L 757.503601 40.848747 
L 760.547161 39.412265 
L 763.59072 40.708155 
L 766.634279 39.154231 
L 769.677839 38.745045 
L 772.721398 39.490218 
L 775.764957 38.630575 
L 778.808517 36.7752 
L 781.852076 36.401786 
L 784.895635 37.363108 
L 787.939195 36.113903 
L 794.026313 39.268605 
L 797.069873 40.607208 
L 800.113432 37.095099 
L 803.156992 36.742232 
L 806.200551 33.889261 
L 809.24411 36.017495 
L 812.28767 37.454709 
L 815.331229 35.598166 
L 818.374788 35.773058 
L 821.418348 34.331719 
L 824.461907 34.095214 
L 827.505466 36.96454 
L 830.549026 37.239765 
L 833.592585 38.513628 
L 836.636144 36.544042 
L 839.679704 37.817447 
L 842.723263 39.80395 
L 845.766823 36.483176 
L 848.810382 37.491478 
L 851.853941 38.255882 
L 854.897501 38.095799 
L 857.94106 39.906257 
L 860.984619 40.964947 
L 864.028179 39.431312 
L 867.071738 40.487887 
L 873.158857 40.696554 
L 876.202416 42.540291 
L 879.245975 44.938804 
L 882.289535 39.922686 
L 885.333094 40.987639 
L 888.376654 39.805887 
L 891.420213 43.540659 
L 894.463772 44.714788 
L 897.507332 44.989857 
L 900.550891 46.850571 
L 906.63801 47.414722 
L 909.681569 49.118458 
L 912.725128 52.040582 
L 915.768688 47.996403 
L 918.812247 44.470705 
L 921.855806 46.325547 
L 924.899366 49.388973 
L 927.942925 49.848665 
L 930.986485 49.09184 
L 934.030044 52.741954 
L 937.073603 51.356556 
L 940.117163 51.662332 
L 943.160722 50.447597 
L 946.204281 51.322093 
L 949.247841 55.240829 
L 952.2914 57.834885 
L 955.334959 51.036532 
L 958.378519 54.299619 
L 961.422078 55.939954 
L 964.465637 56.521813 
L 967.509197 57.573449 
L 973.596316 57.774116 
L 976.639875 59.757018 
L 979.683434 59.680544 
L 982.726994 59.053228 
L 985.770553 60.607855 
L 988.814112 60.82637 
L 988.814112 60.82637 
" clip-path="url(#pc4d56f42aa)" style="fill: none; stroke: #ff7f0e; stroke-width: 1.5; stroke-linecap: square"/>
   </g>
   <g id="line2d_12">
    <path d="M 553.585124 135.316875 
L 553.585124 29.059375 
" clip-path="url(#pc4d56f42aa)" style="fill: none; stroke-dasharray: 7.4,3.2; stroke-dashoffset: 0; stroke: #0000ff; stroke-width: 2"/>
   </g>
   <g id="patch_3">
    <path d="M 71.6375 135.316875 
L 71.6375 29.059375 
" style="fill: none; stroke: #000000; stroke-width: 0.8; stroke-linejoin: miter; stroke-linecap: square"/>
   </g>
   <g id="patch_4">
    <path d="M 1032.489189 135.316875 
L 1032.489189 29.059375 
" style="fill: none; stroke: #000000; stroke-width: 0.8; stroke-linejoin: miter; stroke-linecap: square"/>
   </g>
   <g id="patch_5">
    <path d="M 71.6375 135.316875 
L 1032.489189 135.316875 
" style="fill: none; stroke: #000000; stroke-width: 0.8; stroke-linejoin: miter; stroke-linecap: square"/>
   </g>
   <g id="patch_6">
    <path d="M 71.6375 29.059375 
L 1032.489189 29.059375 
" style="fill: none; stroke: #000000; stroke-width: 0.8; stroke-linejoin: miter; stroke-linecap: square"/>
   </g>
   <g id="text_11">
    <!-- 云函数ID: 28 -->
    <g transform="translate(492.063345 23.059375) scale(0.2 -0.2)">
     <defs>
      <path id="SimSun-4e91" d="M 1200 4450 
L 4500 4450 
L 4850 4800 
L 5350 4300 
L 1975 4300 
Q 1700 4300 1425 4225 
L 1200 4450 
z
M 1600 275 
Q 2300 300 4725 450 
Q 4425 975 3850 1700 
L 3925 1775 
Q 5200 725 5287 500 
Q 5375 275 5375 175 
Q 5375 0 5250 -162 
Q 5125 -325 5075 -325 
Q 5025 -325 4975 -200 
Q 4875 50 4775 300 
Q 1650 -25 1300 -300 
L 975 300 
Q 1225 350 1462 550 
Q 1700 750 2150 1462 
Q 2600 2175 2725 2600 
L 1250 2600 
Q 925 2600 650 2525 
L 425 2750 
L 5025 2750 
L 5450 3175 
L 6025 2600 
L 3250 2600 
Q 3000 2025 2500 1375 
Q 2000 725 1600 275 
z
" transform="scale(0.015625)"/>
      <path id="SimSun-51fd" d="M 3050 2275 
L 3050 3000 
Q 3050 3450 3025 3800 
L 3275 3625 
L 4450 4475 
L 1650 4475 
Q 1325 4475 1050 4400 
L 825 4625 
L 4450 4625 
L 4775 4875 
L 5150 4375 
Q 4875 4325 4550 4175 
Q 4225 4025 3400 3550 
L 3550 3450 
L 3375 3325 
L 3375 2400 
Q 4250 3225 4475 3600 
L 4875 3150 
L 4625 3125 
Q 3625 2425 3400 2275 
Q 4575 1675 4687 1487 
Q 4800 1300 4800 1150 
Q 4800 1025 4750 925 
Q 4700 825 4675 825 
Q 4575 825 4375 1150 
Q 4075 1600 3375 2150 
L 3375 725 
Q 3375 350 2875 150 
Q 2850 450 2200 650 
L 2200 750 
Q 2800 675 2925 700 
Q 3050 725 3050 850 
L 3050 2100 
Q 1850 1300 1625 1025 
L 1275 1400 
Q 1575 1475 2087 1725 
Q 2600 1975 3050 2275 
z
M 1700 3475 
L 1775 3550 
Q 2350 3200 2475 3025 
Q 2600 2850 2600 2775 
Q 2600 2650 2500 2525 
Q 2400 2400 2350 2400 
Q 2275 2400 2225 2575 
Q 2150 2875 1700 3475 
z
M 5150 0 
L 5150 2175 
Q 5150 2725 5125 3325 
L 5725 3050 
L 5500 2850 
L 5500 525 
Q 5500 100 5525 -400 
L 5150 -600 
L 5150 -150 
L 1250 -150 
L 1000 -375 
L 675 -50 
L 875 125 
L 875 2375 
Q 875 2800 850 3425 
L 1450 3150 
L 1225 2975 
L 1225 0 
L 5150 0 
z
" transform="scale(0.015625)"/>
      <path id="SimSun-6570" d="M 1875 1525 
Q 1675 1200 1500 900 
Q 1825 825 2275 725 
Q 2500 975 2725 1525 
L 1875 1525 
z
M 850 4900 
Q 1325 4600 1425 4450 
Q 1525 4300 1525 4225 
Q 1525 4100 1437 3975 
Q 1350 3850 1300 3850 
Q 1225 3850 1150 4100 
Q 1050 4450 775 4850 
L 850 4900 
z
M 3000 4975 
L 3450 4675 
Q 3250 4625 3100 4425 
Q 2925 4225 2525 3825 
L 2450 3875 
Q 2925 4625 3000 4975 
z
M 1875 5250 
L 2425 5000 
L 2225 4825 
L 2225 3675 
L 2850 3675 
L 3125 3950 
L 3550 3525 
L 2225 3525 
L 2225 3300 
Q 2800 3175 2937 3062 
Q 3075 2950 3075 2775 
Q 3075 2700 3050 2587 
Q 3025 2475 2975 2475 
Q 2925 2475 2800 2650 
Q 2600 2925 2225 3175 
L 2225 2400 
L 1925 2200 
L 2275 2050 
Q 2150 2000 1950 1675 
L 2725 1675 
L 2900 1900 
L 3275 1575 
L 3050 1450 
Q 2800 875 2600 650 
Q 3000 550 3137 437 
Q 3275 325 3275 150 
Q 3275 -25 3200 -25 
Q 3125 -25 3025 75 
Q 2750 275 2400 425 
Q 1525 -275 325 -500 
L 300 -425 
Q 1450 -50 2100 550 
Q 1600 725 1125 800 
Q 1225 950 1525 1525 
L 1200 1525 
Q 875 1525 600 1450 
L 375 1675 
L 1575 1675 
Q 1675 1925 1775 2275 
L 1900 2225 
L 1900 3250 
Q 1225 2475 350 2050 
L 300 2125 
Q 1225 2775 1700 3525 
L 1250 3525 
Q 925 3525 650 3450 
L 425 3675 
L 1900 3675 
Q 1900 4575 1875 5250 
z
M 3925 3525 
Q 4050 2075 4525 1100 
Q 4925 1950 5025 3525 
L 3925 3525 
z
M 4050 5250 
L 4625 4925 
Q 4425 4850 4325 4625 
Q 4225 4400 3950 3675 
L 5375 3675 
L 5675 3975 
L 6125 3525 
L 5400 3525 
Q 5250 1675 4750 775 
Q 5325 75 6100 -100 
L 6100 -200 
Q 5625 -275 5600 -500 
Q 4950 -50 4525 525 
Q 3700 -275 2550 -650 
L 2500 -575 
Q 3650 -50 4325 800 
Q 3850 1975 3825 3375 
Q 3575 2725 3100 2150 
L 3025 2200 
Q 3625 3200 4050 5250 
z
" transform="scale(0.015625)"/>
      <path id="SimSun-49" d="M 600 4225 
L 600 4375 
L 2600 4375 
L 2600 4225 
L 2025 4225 
Q 1925 4225 1862 4175 
Q 1800 4125 1800 4025 
L 1800 450 
Q 1800 350 1862 300 
Q 1925 250 2025 250 
L 2600 250 
L 2600 100 
L 600 100 
L 600 250 
L 1175 250 
Q 1300 250 1350 300 
Q 1400 350 1400 450 
L 1400 4025 
Q 1400 4125 1350 4175 
Q 1300 4225 1175 4225 
L 600 4225 
z
" transform="scale(0.015625)"/>
      <path id="SimSun-44" d="M 2500 2275 
Q 2500 3350 2175 3787 
Q 1850 4225 1275 4225 
Q 1100 4225 1012 4175 
Q 925 4125 925 4025 
L 925 450 
Q 925 350 1000 300 
Q 1075 250 1200 250 
Q 1750 250 2125 662 
Q 2500 1075 2500 2275 
z
M 525 4025 
Q 525 4125 475 4175 
Q 425 4225 300 4225 
L 150 4225 
L 150 4375 
L 1275 4375 
Q 2050 4375 2512 3875 
Q 2975 3375 2975 2325 
Q 2975 1175 2525 637 
Q 2075 100 1200 100 
L 125 100 
L 125 250 
L 300 250 
Q 425 250 475 300 
Q 525 350 525 450 
L 525 4025 
z
" transform="scale(0.015625)"/>
      <path id="SimSun-3a" d="M 1900 2725 
Q 1900 2575 1800 2475 
Q 1700 2375 1550 2375 
Q 1400 2375 1300 2475 
Q 1200 2575 1200 2725 
Q 1200 2875 1300 2975 
Q 1400 3075 1550 3075 
Q 1700 3075 1800 2975 
Q 1900 2875 1900 2725 
z
M 1900 375 
Q 1900 225 1800 125 
Q 1700 25 1550 25 
Q 1400 25 1300 125 
Q 1200 225 1200 375 
Q 1200 525 1300 625 
Q 1400 725 1550 725 
Q 1700 725 1800 625 
Q 1900 525 1900 375 
z
" transform="scale(0.015625)"/>
      <path id="SimSun-20" d="M 0 0 
Q 0 0 0 0 
z
" transform="scale(0.015625)"/>
      <path id="SimSun-32" d="M 2325 3325 
Q 2325 3775 2125 4012 
Q 1925 4250 1525 4250 
Q 1225 4250 1012 4087 
Q 800 3925 800 3675 
Q 800 3525 900 3425 
Q 975 3325 975 3225 
Q 975 3100 912 3037 
Q 850 2975 725 2975 
Q 575 2975 487 3062 
Q 400 3150 400 3350 
Q 400 3875 775 4150 
Q 1150 4425 1575 4425 
Q 2175 4425 2462 4125 
Q 2750 3825 2750 3375 
Q 2750 3075 2612 2775 
Q 2475 2475 2175 2200 
Q 1450 1500 1062 1062 
Q 675 625 600 475 
L 2075 475 
Q 2300 475 2450 650 
Q 2600 825 2650 1175 
L 2800 1175 
L 2650 100 
L 325 100 
L 325 425 
Q 450 650 737 1000 
Q 1025 1350 1500 1825 
Q 1925 2250 2125 2625 
Q 2325 3000 2325 3325 
z
" transform="scale(0.015625)"/>
      <path id="SimSun-38" d="M 625 1125 
Q 625 725 887 475 
Q 1150 225 1550 225 
Q 2025 225 2237 475 
Q 2450 725 2450 1100 
Q 2450 1425 2150 1725 
Q 1850 2025 1250 2275 
Q 950 2075 787 1775 
Q 625 1475 625 1125 
z
M 2825 1175 
Q 2825 700 2475 375 
Q 2125 50 1550 50 
Q 1025 50 650 375 
Q 275 700 275 1125 
Q 275 1550 487 1850 
Q 700 2150 1100 2375 
Q 750 2550 562 2812 
Q 375 3075 375 3400 
Q 375 3825 700 4125 
Q 1025 4425 1600 4425 
Q 2125 4425 2450 4125 
Q 2775 3825 2775 3400 
Q 2775 3100 2587 2837 
Q 2400 2575 2000 2375 
Q 2425 2125 2625 1825 
Q 2825 1525 2825 1175 
z
M 2425 3375 
Q 2425 3725 2225 3987 
Q 2025 4250 1600 4250 
Q 1125 4250 925 4000 
Q 725 3750 725 3475 
Q 725 3200 1012 2937 
Q 1300 2675 1825 2475 
Q 2125 2625 2275 2850 
Q 2425 3075 2425 3375 
z
" transform="scale(0.015625)"/>
     </defs>
     <use xlink:href="#SimSun-4e91"/>
     <use xlink:href="#SimSun-51fd" x="100"/>
     <use xlink:href="#SimSun-6570" x="200"/>
     <use xlink:href="#SimSun-49" x="300"/>
     <use xlink:href="#SimSun-44" x="350"/>
     <use xlink:href="#SimSun-3a" x="400"/>
     <use xlink:href="#SimSun-20" x="450"/>
     <use xlink:href="#SimSun-32" x="500"/>
     <use xlink:href="#SimSun-38" x="550"/>
    </g>
   </g>
   <g id="legend_1">
    <g id="patch_7">
     <path d="M 85.6375 101.934375 
L 209.6375 101.934375 
Q 213.6375 101.934375 213.6375 97.934375 
L 213.6375 43.059375 
Q 213.6375 39.059375 209.6375 39.059375 
L 85.6375 39.059375 
Q 81.6375 39.059375 81.6375 43.059375 
L 81.6375 97.934375 
Q 81.6375 101.934375 85.6375 101.934375 
z
" style="fill: #ffffff; opacity: 0.8; stroke: #cccccc; stroke-linejoin: miter"/>
    </g>
    <g id="line2d_13">
     <path d="M 89.6375 55.996875 
L 109.6375 55.996875 
L 129.6375 55.996875 
" style="fill: none; stroke: #1f77b4; stroke-width: 1.5; stroke-linecap: square"/>
    </g>
    <g id="text_12">
     <!-- 真实值 -->
     <g transform="translate(145.6375 62.996875) scale(0.2 -0.2)">
      <defs>
       <path id="SimSun-771f" d="M 2050 3450 
L 2050 2900 
L 4300 2900 
L 4300 3450 
L 2050 3450 
z
M 2050 2750 
L 2050 2225 
L 4300 2225 
L 4300 2750 
L 2050 2750 
z
M 2050 2075 
L 2050 1550 
L 4300 1550 
L 4300 2075 
L 2050 2075 
z
M 2050 1400 
L 2050 875 
L 4300 875 
L 4300 1400 
L 2050 1400 
z
M 2875 3600 
L 2925 4325 
L 1525 4325 
Q 1200 4325 925 4250 
L 700 4475 
L 2950 4475 
Q 2975 4825 2975 5275 
L 3550 5025 
L 3375 4925 
L 3300 4475 
L 5000 4475 
L 5325 4825 
L 5775 4325 
L 3275 4325 
L 3200 3600 
L 4275 3600 
L 4450 3875 
L 4850 3575 
L 4650 3375 
L 4650 875 
L 5300 875 
L 5675 1225 
L 6125 725 
L 1150 725 
Q 825 725 550 650 
L 325 875 
L 1700 875 
Q 1700 3200 1675 3775 
L 2050 3600 
L 2875 3600 
z
M 2425 725 
L 2825 350 
L 2575 300 
Q 1500 -425 800 -650 
L 775 -575 
Q 1950 125 2425 725 
z
M 3800 700 
Q 4575 375 4962 200 
Q 5350 25 5400 -112 
Q 5450 -250 5450 -325 
Q 5450 -400 5400 -525 
Q 5350 -650 5325 -650 
Q 5250 -650 5100 -450 
Q 4875 -150 3750 625 
L 3800 700 
z
" transform="scale(0.015625)"/>
       <path id="SimSun-5b9e" d="M 1950 3625 
Q 2575 3400 2700 3250 
Q 2825 3100 2825 2975 
Q 2825 2850 2750 2700 
Q 2675 2550 2625 2550 
Q 2550 2550 2450 2800 
Q 2275 3175 1900 3550 
L 1950 3625 
z
M 3575 1325 
Q 3500 1100 3425 925 
Q 4650 550 5087 325 
Q 5525 100 5512 -225 
Q 5500 -550 5400 -550 
Q 5300 -550 5075 -300 
Q 4625 175 3375 800 
Q 3025 175 2300 -150 
Q 1575 -475 425 -625 
L 425 -525 
Q 1475 -325 2200 100 
Q 2925 525 3200 1325 
L 1225 1325 
Q 900 1325 625 1250 
L 400 1475 
L 3225 1475 
Q 3325 1950 3375 2575 
Q 3425 3200 3425 3700 
L 4050 3400 
L 3850 3225 
Q 3750 2300 3625 1475 
L 5175 1475 
L 5550 1850 
L 6075 1325 
L 3575 1325 
z
M 1275 2700 
Q 1975 2425 2100 2262 
Q 2225 2100 2225 1975 
Q 2225 1850 2150 1700 
Q 2075 1550 2025 1550 
Q 1950 1550 1850 1800 
Q 1675 2175 1225 2625 
L 1275 2700 
z
M 2750 5225 
L 2825 5275 
Q 3225 5100 3425 4925 
Q 3625 4750 3625 4600 
Q 3625 4450 3512 4300 
Q 3400 4150 3325 4150 
Q 3250 4150 3200 4400 
Q 3100 4775 2750 5225 
z
M 4975 3225 
L 5350 3925 
L 1175 3925 
Q 1225 3525 1125 3300 
Q 1025 3075 787 3100 
Q 550 3125 550 3200 
Q 550 3300 700 3475 
Q 975 3825 1050 4375 
L 1150 4375 
L 1175 4075 
L 5300 4075 
L 5575 4350 
L 6050 3800 
Q 5625 3825 5050 3175 
L 4975 3225 
z
" transform="scale(0.015625)"/>
       <path id="SimSun-503c" d="M 1525 650 
Q 1525 -225 1550 -525 
L 1175 -650 
Q 1200 250 1200 550 
L 1200 3025 
Q 750 2300 325 1850 
L 250 1900 
Q 725 2625 1100 3525 
Q 1475 4425 1675 5200 
L 2200 4875 
L 1950 4725 
Q 1550 3800 1425 3475 
L 1725 3300 
L 1525 3150 
L 1525 650 
z
M 2875 3225 
L 2875 2475 
L 4800 2475 
L 4800 3225 
L 2875 3225 
z
M 2875 2325 
L 2875 1575 
L 4800 1575 
L 4800 2325 
L 2875 2325 
z
M 2875 1425 
L 2875 675 
L 4800 675 
L 4800 1425 
L 2875 1425 
z
M 2875 525 
L 2875 -225 
L 4800 -225 
L 4800 525 
L 2875 525 
z
M 3550 4250 
Q 3575 4825 3550 5225 
L 4125 4950 
L 3925 4800 
L 3900 4250 
L 5025 4250 
L 5350 4575 
L 5825 4100 
L 3900 4100 
L 3875 3375 
L 4750 3375 
L 4975 3625 
L 5350 3300 
L 5125 3150 
L 5125 -225 
L 5350 -225 
L 5675 100 
L 6150 -375 
L 2450 -375 
Q 2125 -375 1850 -450 
L 1625 -225 
L 2550 -225 
L 2550 2550 
Q 2550 2850 2525 3575 
L 2875 3375 
L 3525 3375 
L 3550 4100 
L 2800 4100 
Q 2475 4100 2200 4025 
L 1975 4250 
L 3550 4250 
z
" transform="scale(0.015625)"/>
      </defs>
      <use xlink:href="#SimSun-771f"/>
      <use xlink:href="#SimSun-5b9e" x="100"/>
      <use xlink:href="#SimSun-503c" x="200"/>
     </g>
    </g>
    <g id="line2d_14">
     <path d="M 89.6375 84.35625 
L 109.6375 84.35625 
L 129.6375 84.35625 
" style="fill: none; stroke: #ff7f0e; stroke-width: 1.5; stroke-linecap: square"/>
    </g>
    <g id="text_13">
     <!-- 预测值 -->
     <g transform="translate(145.6375 91.35625) scale(0.2 -0.2)">
      <defs>
       <path id="SimSun-9884" d="M 475 4825 
L 2225 4825 
L 2425 5075 
L 2825 4675 
Q 2600 4625 2387 4412 
Q 2175 4200 1800 3750 
Q 2050 3575 2037 3400 
Q 2025 3225 1937 3150 
Q 1850 3075 1825 3075 
Q 1725 3075 1650 3300 
Q 1525 3600 1050 4100 
L 1100 4150 
Q 1475 3975 1700 3825 
L 2225 4675 
L 1300 4675 
Q 975 4675 700 4600 
L 475 4825 
z
M 725 100 
Q 1175 50 1362 37 
Q 1550 25 1550 275 
L 1550 2875 
L 1125 2875 
Q 800 2875 525 2800 
L 300 3025 
L 2525 3025 
L 2725 3275 
L 3150 2875 
Q 2800 2825 2275 2075 
L 2200 2125 
L 2550 2875 
L 1875 2875 
L 1875 150 
Q 1875 -400 1350 -500 
Q 1325 -175 725 0 
L 725 100 
z
M 3250 775 
Q 3275 1425 3275 2287 
Q 3275 3150 3250 3900 
L 3600 3700 
L 4050 3700 
Q 4175 4400 4200 4675 
L 3650 4675 
Q 3325 4675 3050 4600 
L 2825 4825 
L 5325 4825 
L 5675 5150 
L 6125 4675 
L 4675 4675 
Q 4500 4425 4175 3700 
L 5300 3700 
L 5475 3975 
L 5875 3675 
L 5675 3475 
L 5675 1950 
Q 5675 1525 5700 1075 
L 5350 875 
L 5350 3550 
L 3600 3550 
L 3600 1000 
L 3250 775 
z
M 4850 2875 
L 4625 2675 
Q 4625 1475 4475 937 
Q 4325 400 3900 50 
Q 3475 -300 2425 -625 
L 2400 -550 
Q 3500 -50 3837 400 
Q 4175 850 4237 1587 
Q 4300 2325 4275 3175 
L 4850 2875 
z
M 4650 950 
Q 5725 375 5875 212 
Q 6025 50 6025 -125 
Q 6025 -225 5962 -387 
Q 5900 -550 5850 -550 
Q 5800 -550 5750 -450 
Q 5625 -250 5437 0 
Q 5250 250 4600 875 
L 4650 950 
z
" transform="scale(0.015625)"/>
       <path id="SimSun-6d4b" d="M 1975 1000 
Q 2000 1475 2000 2925 
Q 2000 4375 1975 5000 
L 2350 4775 
L 3575 4775 
L 3775 4975 
L 4100 4650 
L 3900 4500 
L 3900 2350 
Q 3900 1850 3925 1350 
L 3600 1200 
L 3600 4625 
L 2325 4625 
L 2325 1150 
L 1975 1000 
z
M 2775 3975 
L 3300 3700 
L 3125 3525 
Q 3150 1825 2875 937 
Q 2600 50 1375 -600 
L 1325 -500 
Q 2200 100 2475 725 
Q 2750 1350 2775 2187 
Q 2800 3025 2775 3975 
z
M 3100 950 
Q 3825 450 3937 262 
Q 4050 75 4050 -25 
Q 4050 -150 3975 -262 
Q 3900 -375 3850 -375 
Q 3750 -375 3650 -75 
Q 3500 375 3050 875 
L 3100 950 
z
M 4475 825 
Q 4500 1200 4500 1700 
L 4500 3400 
Q 4500 3950 4475 4300 
L 5025 4025 
L 4825 3825 
L 4825 1700 
Q 4825 1325 4850 950 
L 4475 825 
z
M 5375 150 
L 5375 4050 
Q 5375 4750 5350 5125 
L 5875 4875 
L 5700 4700 
L 5700 75 
Q 5700 -200 5600 -350 
Q 5500 -500 5200 -600 
Q 5025 -225 4450 -50 
L 4450 50 
Q 5125 -50 5250 -37 
Q 5375 -25 5375 150 
z
M 1850 3500 
Q 1375 1525 1300 1225 
Q 1200 900 1212 450 
Q 1225 0 1250 -175 
Q 1250 -275 1125 -275 
Q 1025 -275 875 -225 
Q 725 -175 725 0 
Q 725 125 800 375 
Q 875 625 875 775 
Q 875 950 762 1050 
Q 650 1150 275 1250 
L 275 1350 
Q 725 1300 837 1312 
Q 950 1325 1087 1537 
Q 1225 1750 1750 3525 
L 1850 3500 
z
M 375 3775 
Q 1075 3350 1112 3100 
Q 1150 2850 1050 2775 
Q 950 2700 900 2700 
Q 800 2700 725 2975 
Q 600 3350 325 3700 
L 375 3775 
z
M 800 5100 
Q 1475 4725 1550 4512 
Q 1625 4300 1525 4187 
Q 1425 4075 1350 4075 
Q 1275 4075 1200 4300 
Q 1075 4650 750 5025 
L 800 5100 
z
" transform="scale(0.015625)"/>
      </defs>
      <use xlink:href="#SimSun-9884"/>
      <use xlink:href="#SimSun-6d4b" x="100"/>
      <use xlink:href="#SimSun-503c" x="200"/>
     </g>
    </g>
   </g>
  </g>
  <g id="axes_2">
   <g id="patch_8">
    <path d="M 71.6375 309.916875 
L 1032.489189 309.916875 
L 1032.489189 203.659375 
L 71.6375 203.659375 
z
" style="fill: #ffffff"/>
   </g>
   <g id="matplotlib.axis_3">
    <g id="xtick_8">
     <g id="line2d_15">
      <g>
       <use xlink:href="#mf3d1521f67" x="115.312577" y="309.916875" style="stroke: #000000; stroke-width: 0.8"/>
      </g>
     </g>
     <g id="text_14">
      <!-- 0 -->
      <g transform="translate(110.312577 330.804375) scale(0.2 -0.2)">
       <use xlink:href="#TimesNewRomanPSMT-30"/>
      </g>
     </g>
    </g>
    <g id="xtick_9">
     <g id="line2d_16">
      <g>
       <use xlink:href="#mf3d1521f67" x="267.490545" y="309.916875" style="stroke: #000000; stroke-width: 0.8"/>
      </g>
     </g>
     <g id="text_15">
      <!-- 50 -->
      <g transform="translate(257.490545 330.804375) scale(0.2 -0.2)">
       <use xlink:href="#TimesNewRomanPSMT-35"/>
       <use xlink:href="#TimesNewRomanPSMT-30" x="50"/>
      </g>
     </g>
    </g>
    <g id="xtick_10">
     <g id="line2d_17">
      <g>
       <use xlink:href="#mf3d1521f67" x="419.668513" y="309.916875" style="stroke: #000000; stroke-width: 0.8"/>
      </g>
     </g>
     <g id="text_16">
      <!-- 100 -->
      <g transform="translate(404.668513 330.804375) scale(0.2 -0.2)">
       <use xlink:href="#TimesNewRomanPSMT-31"/>
       <use xlink:href="#TimesNewRomanPSMT-30" x="50"/>
       <use xlink:href="#TimesNewRomanPSMT-30" x="100"/>
      </g>
     </g>
    </g>
    <g id="xtick_11">
     <g id="line2d_18">
      <g>
       <use xlink:href="#mf3d1521f67" x="571.84648" y="309.916875" style="stroke: #000000; stroke-width: 0.8"/>
      </g>
     </g>
     <g id="text_17">
      <!-- 150 -->
      <g transform="translate(556.84648 330.804375) scale(0.2 -0.2)">
       <use xlink:href="#TimesNewRomanPSMT-31"/>
       <use xlink:href="#TimesNewRomanPSMT-35" x="50"/>
       <use xlink:href="#TimesNewRomanPSMT-30" x="100"/>
      </g>
     </g>
    </g>
    <g id="xtick_12">
     <g id="line2d_19">
      <g>
       <use xlink:href="#mf3d1521f67" x="724.024448" y="309.916875" style="stroke: #000000; stroke-width: 0.8"/>
      </g>
     </g>
     <g id="text_18">
      <!-- 200 -->
      <g transform="translate(709.024448 330.804375) scale(0.2 -0.2)">
       <use xlink:href="#TimesNewRomanPSMT-32"/>
       <use xlink:href="#TimesNewRomanPSMT-30" x="50"/>
       <use xlink:href="#TimesNewRomanPSMT-30" x="100"/>
      </g>
     </g>
    </g>
    <g id="xtick_13">
     <g id="line2d_20">
      <g>
       <use xlink:href="#mf3d1521f67" x="876.202416" y="309.916875" style="stroke: #000000; stroke-width: 0.8"/>
      </g>
     </g>
     <g id="text_19">
      <!-- 250 -->
      <g transform="translate(861.202416 330.804375) scale(0.2 -0.2)">
       <use xlink:href="#TimesNewRomanPSMT-32"/>
       <use xlink:href="#TimesNewRomanPSMT-35" x="50"/>
       <use xlink:href="#TimesNewRomanPSMT-30" x="100"/>
      </g>
     </g>
    </g>
    <g id="xtick_14">
     <g id="line2d_21">
      <g>
       <use xlink:href="#mf3d1521f67" x="1028.380384" y="309.916875" style="stroke: #000000; stroke-width: 0.8"/>
      </g>
     </g>
     <g id="text_20">
      <!-- 300 -->
      <g transform="translate(1013.380384 330.804375) scale(0.2 -0.2)">
       <use xlink:href="#TimesNewRomanPSMT-33"/>
       <use xlink:href="#TimesNewRomanPSMT-30" x="50"/>
       <use xlink:href="#TimesNewRomanPSMT-30" x="100"/>
      </g>
     </g>
    </g>
   </g>
   <g id="matplotlib.axis_4">
    <g id="ytick_3">
     <g id="line2d_22">
      <g>
       <use xlink:href="#m280f69677e" x="71.6375" y="273.781312" style="stroke: #000000; stroke-width: 0.8"/>
      </g>
     </g>
     <g id="text_21">
      <!-- 0.5 -->
      <g transform="translate(39.6375 280.725062) scale(0.2 -0.2)">
       <use xlink:href="#TimesNewRomanPSMT-30"/>
       <use xlink:href="#TimesNewRomanPSMT-2e" x="50"/>
       <use xlink:href="#TimesNewRomanPSMT-35" x="75"/>
      </g>
     </g>
    </g>
    <g id="ytick_4">
     <g id="line2d_23">
      <g>
       <use xlink:href="#m280f69677e" x="71.6375" y="235.750061" style="stroke: #000000; stroke-width: 0.8"/>
      </g>
     </g>
     <g id="text_22">
      <!-- 1.0 -->
      <g transform="translate(39.6375 242.693811) scale(0.2 -0.2)">
       <use xlink:href="#TimesNewRomanPSMT-31"/>
       <use xlink:href="#TimesNewRomanPSMT-2e" x="50"/>
       <use xlink:href="#TimesNewRomanPSMT-30" x="75"/>
      </g>
     </g>
    </g>
    <g id="text_23">
     <!-- CPU使用率 -->
     <g transform="translate(33.059375 301.788125) rotate(-90) scale(0.2 -0.2)">
      <use xlink:href="#SimSun-43"/>
      <use xlink:href="#SimSun-50" x="50"/>
      <use xlink:href="#SimSun-55" x="100"/>
      <use xlink:href="#SimSun-4f7f" x="150"/>
      <use xlink:href="#SimSun-7528" x="250"/>
      <use xlink:href="#SimSun-7387" x="350"/>
     </g>
    </g>
   </g>
   <g id="line2d_24">
    <path d="M 115.312577 232.220765 
L 118.356136 232.950959 
L 121.399695 228.934864 
L 124.443255 229.299961 
L 127.486814 225.283865 
L 130.530374 230.760358 
L 133.573933 225.648962 
L 136.617492 230.760358 
L 139.661052 231.855659 
L 142.704611 228.934864 
L 145.74817 229.299961 
L 148.79173 228.934864 
L 151.835289 223.093264 
L 154.878848 217.616762 
L 157.922408 225.648962 
L 160.965967 226.744263 
L 164.009526 225.648962 
L 167.053086 228.934864 
L 170.096645 227.10936 
L 173.140205 228.934864 
L 176.183764 230.395261 
L 179.227323 230.030164 
L 182.270883 228.569757 
L 185.314442 229.665058 
L 188.358001 228.934864 
L 191.401561 227.474457 
L 194.44512 228.934864 
L 197.488679 224.188565 
L 200.532239 226.744263 
L 203.575798 226.379166 
L 206.619357 226.379166 
L 209.662917 224.188565 
L 212.706476 222.363061 
L 215.750036 216.156364 
L 218.793595 216.886559 
L 221.837154 219.807363 
L 224.880714 216.886559 
L 227.924273 221.26776 
L 230.967832 222.363061 
L 234.011392 219.442257 
L 237.054951 221.997964 
L 240.09851 220.537557 
L 243.14207 220.17246 
L 246.185629 221.632858 
L 249.229188 223.823458 
L 252.272748 221.632858 
L 255.316307 221.997964 
L 258.359867 217.981859 
L 261.403426 222.363061 
L 264.446985 225.648962 
L 267.490545 219.07716 
L 270.534104 219.07716 
L 276.621223 218.346956 
L 279.664782 218.712062 
L 282.708341 220.902663 
L 285.751901 221.26776 
L 288.79546 219.807363 
L 291.83902 219.807363 
L 294.882579 220.902663 
L 297.926138 221.632858 
L 300.969698 221.997964 
L 304.013257 219.807363 
L 307.056816 214.695958 
L 310.100376 216.886559 
L 313.143935 215.791258 
L 316.187494 216.521462 
L 319.231054 217.981859 
L 322.274613 217.981859 
L 325.318172 222.363061 
L 328.361732 219.807363 
L 331.405291 219.07716 
L 334.448851 219.807363 
L 337.49241 221.632858 
L 340.535969 219.807363 
L 343.579529 219.807363 
L 346.623088 225.648962 
L 349.666647 225.283865 
L 352.710207 229.665058 
L 355.753766 229.299961 
L 358.797325 222.363061 
L 361.840885 208.489261 
L 364.884444 231.855659 
L 367.928003 228.569757 
L 370.971563 234.776463 
L 374.015122 232.950959 
L 377.058682 238.06236 
L 380.102241 226.744263 
L 383.1458 245.729463 
L 386.18936 246.824763 
L 389.232919 250.11066 
L 392.276478 253.031464 
L 395.320038 251.571062 
L 398.363597 245.729463 
L 401.407156 255.952264 
L 404.450716 259.238161 
L 407.494275 257.047564 
L 410.537834 260.698563 
L 413.581394 256.682463 
L 416.624953 250.840863 
L 419.668513 265.444861 
L 422.712072 267.270361 
L 425.755631 268.730763 
L 428.799191 267.635462 
L 431.84275 272.381761 
L 434.886309 271.286461 
L 437.929869 275.667663 
L 440.973428 276.762963 
L 444.016987 278.953564 
L 447.060547 280.048864 
L 450.104106 278.588462 
L 453.147665 298.668959 
L 456.191225 281.509262 
L 459.234784 283.334766 
L 462.278344 284.430062 
L 465.321903 286.255565 
L 468.365462 286.985764 
L 471.409022 287.350866 
L 474.452581 289.176365 
L 477.49614 289.906564 
L 480.5397 291.001864 
L 483.583259 292.462262 
L 489.670378 292.462262 
L 492.713937 294.287762 
L 498.801056 295.74816 
L 501.844615 296.113261 
L 504.888175 296.843465 
L 507.931734 296.478358 
L 510.975293 297.573659 
L 514.018853 298.303862 
L 517.062412 298.303862 
L 523.149531 299.034066 
L 526.19309 299.034066 
L 532.280209 300.494463 
L 535.323768 300.494463 
L 541.410887 301.224657 
L 544.454446 300.494463 
L 547.498006 301.224657 
L 550.541565 301.224657 
L 553.585124 301.954861 
L 556.628684 301.589764 
L 559.672243 302.685064 
L 562.715802 301.954861 
L 565.759362 301.954861 
L 568.802921 302.685064 
L 571.84648 302.685064 
L 574.89004 303.050161 
L 577.933599 302.685064 
L 584.020718 302.685064 
L 587.064277 303.050161 
L 590.107837 302.685064 
L 593.151396 303.050161 
L 596.194955 303.050161 
L 599.238515 302.685064 
L 602.282074 303.780364 
L 605.325633 303.050161 
L 608.369193 303.050161 
L 611.412752 302.685064 
L 626.630549 302.685064 
L 629.674108 302.319958 
L 632.717668 301.589764 
L 635.761227 299.76426 
L 641.848346 300.494463 
L 647.935464 299.034066 
L 650.979024 299.034066 
L 654.022583 297.208562 
L 657.066142 297.573659 
L 660.109702 297.573659 
L 663.153261 296.843465 
L 666.19682 295.383063 
L 669.24038 294.652859 
L 672.283939 284.064964 
L 675.327499 290.636763 
L 678.371058 287.715963 
L 681.414617 287.715963 
L 684.458177 285.160265 
L 687.501736 283.699863 
L 690.545295 276.032764 
L 693.588855 281.509262 
L 696.632414 277.493162 
L 699.675973 277.493162 
L 702.719533 273.842163 
L 705.763092 270.921364 
L 708.806651 242.07846 
L 711.850211 263.254261 
L 714.89377 255.22206 
L 717.93733 259.603262 
L 720.980889 255.587162 
L 724.024448 255.22206 
L 727.068008 238.06236 
L 730.111567 254.856963 
L 733.155126 252.301261 
L 736.198686 253.396561 
L 739.242245 250.11066 
L 742.285804 247.920064 
L 745.329364 234.776463 
L 748.372923 240.983159 
L 751.416482 240.618062 
L 754.460042 243.538862 
L 757.503601 242.07846 
L 760.547161 242.443561 
L 763.59072 237.332161 
L 766.634279 245.729463 
L 769.677839 245.364361 
L 772.721398 245.364361 
L 775.764957 242.07846 
L 778.808517 239.887863 
L 781.852076 232.585862 
L 784.895635 228.569757 
L 787.939195 230.030164 
L 790.982754 229.299961 
L 794.026313 227.10936 
L 797.069873 230.030164 
L 800.113432 228.20466 
L 803.156992 234.411357 
L 806.200551 234.411357 
L 812.28767 230.760358 
L 815.331229 230.395261 
L 818.374788 221.632858 
L 821.418348 220.902663 
L 824.461907 219.807363 
L 827.505466 221.632858 
L 830.549026 226.014059 
L 833.592585 226.744263 
L 836.636144 224.553662 
L 839.679704 223.823458 
L 842.723263 218.346956 
L 845.766823 220.902663 
L 848.810382 224.553662 
L 851.853941 224.188565 
L 854.897501 224.918759 
L 857.94106 210.679862 
L 860.984619 216.156364 
L 864.028179 225.648962 
L 867.071738 226.379166 
L 870.115297 221.632858 
L 873.158857 224.918759 
L 876.202416 227.474457 
L 879.245975 227.10936 
L 882.289535 226.379166 
L 885.333094 226.744263 
L 888.376654 227.839563 
L 891.420213 274.572362 
L 894.463772 209.949659 
L 897.507332 212.870463 
L 900.550891 220.17246 
L 903.59445 219.807363 
L 906.63801 221.632858 
L 909.681569 226.014059 
L 915.768688 228.934864 
L 918.812247 228.934864 
L 921.855806 231.490562 
L 924.899366 231.490562 
L 927.942925 227.10936 
L 930.986485 226.014059 
L 934.030044 227.839563 
L 937.073603 231.125464 
L 940.117163 235.14156 
L 943.160722 233.316065 
L 946.204281 233.681162 
L 949.247841 232.585862 
L 952.2914 234.776463 
L 955.334959 234.411357 
L 958.378519 233.681162 
L 961.422078 235.871759 
L 964.465637 226.379166 
L 967.509197 222.363061 
L 970.552756 230.030164 
L 973.596316 231.125464 
L 976.639875 231.125464 
L 979.683434 232.950959 
L 982.726994 230.030164 
L 985.770553 234.04626 
L 988.814112 232.220765 
L 988.814112 232.220765 
" clip-path="url(#p775c92aa6a)" style="fill: none; stroke: #1f77b4; stroke-width: 1.5; stroke-linecap: square"/>
   </g>
   <g id="line2d_25">
    <path d="M 553.585124 304.465439 
L 556.628684 305.086989 
L 559.672243 302.94148 
L 562.715802 299.680876 
L 565.759362 302.627187 
L 568.802921 302.751591 
L 571.84648 302.760133 
L 574.89004 302.392261 
L 580.977158 300.077192 
L 584.020718 301.752387 
L 587.064277 301.724251 
L 590.107837 303.030739 
L 593.151396 301.959431 
L 596.194955 301.749449 
L 599.238515 298.274411 
L 602.282074 299.501787 
L 605.325633 297.969984 
L 608.369193 299.408565 
L 611.412752 300.557517 
L 614.456311 300.083295 
L 617.499871 302.369021 
L 620.54343 302.493988 
L 623.586989 303.249117 
L 626.630549 302.151577 
L 629.674108 304.97916 
L 632.717668 303.753525 
L 635.761227 295.967485 
L 638.804786 298.348836 
L 641.848346 298.701847 
L 644.891905 301.881197 
L 647.935464 300.160485 
L 650.979024 300.831578 
L 654.022583 297.092935 
L 657.066142 299.435858 
L 660.109702 300.898042 
L 663.153261 299.566328 
L 666.19682 299.425032 
L 669.24038 294.466171 
L 672.283939 286.716704 
L 678.371058 289.123566 
L 681.414617 288.945025 
L 684.458177 285.5508 
L 687.501736 285.663861 
L 690.545295 282.095652 
L 696.632414 279.47496 
L 699.675973 276.445306 
L 702.719533 274.757939 
L 705.763092 271.776352 
L 708.806651 259.7128 
L 711.850211 264.670029 
L 714.89377 261.623555 
L 717.93733 258.883024 
L 720.980889 258.392317 
L 724.024448 255.501104 
L 727.068008 253.564189 
L 730.111567 253.39711 
L 733.155126 252.499813 
L 736.198686 251.059758 
L 739.242245 248.821313 
L 742.285804 247.686983 
L 745.329364 234.021732 
L 748.372923 239.575729 
L 754.460042 239.382073 
L 757.503601 241.715539 
L 760.547161 239.697553 
L 763.59072 236.375527 
L 766.634279 239.995035 
L 769.677839 238.770738 
L 772.721398 239.882972 
L 775.764957 239.93738 
L 778.808517 241.329233 
L 781.852076 229.142497 
L 784.895635 231.632819 
L 787.939195 231.609571 
L 790.982754 234.325598 
L 794.026313 234.479969 
L 797.069873 235.398384 
L 800.113432 237.484696 
L 803.156992 236.62444 
L 806.200551 240.120935 
L 809.24411 239.257791 
L 812.28767 238.060555 
L 815.331229 241.191464 
L 818.374788 227.11227 
L 821.418348 229.194099 
L 827.505466 235.768844 
L 830.549026 234.910234 
L 833.592585 236.531287 
L 836.636144 236.528779 
L 839.679704 242.561115 
L 842.723263 241.853621 
L 845.766823 240.627868 
L 848.810382 241.40772 
L 854.897501 232.018064 
L 857.94106 233.45475 
L 864.028179 233.083941 
L 867.071738 236.10211 
L 870.115297 233.873282 
L 873.158857 235.67638 
L 876.202416 238.246672 
L 879.245975 240.64025 
L 882.289535 239.284227 
L 885.333094 239.654424 
L 888.376654 236.605458 
L 891.420213 241.264687 
L 894.463772 232.255166 
L 897.507332 233.650796 
L 900.550891 233.394262 
L 903.59445 236.947923 
L 906.63801 235.575215 
L 909.681569 237.052301 
L 912.725128 237.937847 
L 915.768688 237.662385 
L 918.812247 238.666223 
L 921.855806 237.077554 
L 924.899366 237.982181 
L 927.942925 230.651296 
L 930.986485 231.639665 
L 934.030044 234.424269 
L 937.073603 236.582807 
L 940.117163 238.551203 
L 943.160722 240.661663 
L 946.204281 240.170983 
L 949.247841 241.38551 
L 952.2914 240.285286 
L 955.334959 240.695044 
L 958.378519 242.55285 
L 961.422078 241.727149 
L 964.465637 232.536808 
L 970.552756 236.579285 
L 973.596316 237.76831 
L 976.639875 238.140248 
L 979.683434 239.517462 
L 982.726994 241.492731 
L 985.770553 243.223735 
L 988.814112 240.752322 
L 988.814112 240.752322 
" clip-path="url(#p775c92aa6a)" style="fill: none; stroke: #ff7f0e; stroke-width: 1.5; stroke-linecap: square"/>
   </g>
   <g id="line2d_26">
    <path d="M 553.585124 309.916875 
L 553.585124 203.659375 
" clip-path="url(#p775c92aa6a)" style="fill: none; stroke-dasharray: 7.4,3.2; stroke-dashoffset: 0; stroke: #0000ff; stroke-width: 2"/>
   </g>
   <g id="patch_9">
    <path d="M 71.6375 309.916875 
L 71.6375 203.659375 
" style="fill: none; stroke: #000000; stroke-width: 0.8; stroke-linejoin: miter; stroke-linecap: square"/>
   </g>
   <g id="patch_10">
    <path d="M 1032.489189 309.916875 
L 1032.489189 203.659375 
" style="fill: none; stroke: #000000; stroke-width: 0.8; stroke-linejoin: miter; stroke-linecap: square"/>
   </g>
   <g id="patch_11">
    <path d="M 71.6375 309.916875 
L 1032.489189 309.916875 
" style="fill: none; stroke: #000000; stroke-width: 0.8; stroke-linejoin: miter; stroke-linecap: square"/>
   </g>
   <g id="patch_12">
    <path d="M 71.6375 203.659375 
L 1032.489189 203.659375 
" style="fill: none; stroke: #000000; stroke-width: 0.8; stroke-linejoin: miter; stroke-linecap: square"/>
   </g>
   <g id="text_24">
    <!-- 云函数ID: 72 -->
    <g transform="translate(492.063345 197.659375) scale(0.2 -0.2)">
     <defs>
      <path id="SimSun-37" d="M 2825 4200 
Q 2300 3350 1987 2537 
Q 1675 1725 1675 1125 
Q 1675 1025 1700 850 
Q 1700 650 1700 400 
Q 1700 200 1637 125 
Q 1575 50 1425 50 
Q 1300 50 1212 137 
Q 1125 225 1125 450 
Q 1125 925 1337 1625 
Q 1550 2325 2475 4000 
L 1225 4000 
Q 950 4000 787 3825 
Q 625 3650 550 3300 
L 400 3325 
L 575 4375 
L 2825 4375 
L 2825 4200 
z
" transform="scale(0.015625)"/>
     </defs>
     <use xlink:href="#SimSun-4e91"/>
     <use xlink:href="#SimSun-51fd" x="100"/>
     <use xlink:href="#SimSun-6570" x="200"/>
     <use xlink:href="#SimSun-49" x="300"/>
     <use xlink:href="#SimSun-44" x="350"/>
     <use xlink:href="#SimSun-3a" x="400"/>
     <use xlink:href="#SimSun-20" x="450"/>
     <use xlink:href="#SimSun-37" x="500"/>
     <use xlink:href="#SimSun-32" x="550"/>
    </g>
   </g>
  </g>
  <g id="axes_3">
   <g id="patch_13">
    <path d="M 71.6375 484.516875 
L 1032.489189 484.516875 
L 1032.489189 378.259375 
L 71.6375 378.259375 
z
" style="fill: #ffffff"/>
   </g>
   <g id="matplotlib.axis_5">
    <g id="xtick_15">
     <g id="line2d_27">
      <g>
       <use xlink:href="#mf3d1521f67" x="115.312577" y="484.516875" style="stroke: #000000; stroke-width: 0.8"/>
      </g>
     </g>
     <g id="text_25">
      <!-- 0 -->
      <g transform="translate(110.312577 505.404375) scale(0.2 -0.2)">
       <use xlink:href="#TimesNewRomanPSMT-30"/>
      </g>
     </g>
    </g>
    <g id="xtick_16">
     <g id="line2d_28">
      <g>
       <use xlink:href="#mf3d1521f67" x="267.490545" y="484.516875" style="stroke: #000000; stroke-width: 0.8"/>
      </g>
     </g>
     <g id="text_26">
      <!-- 50 -->
      <g transform="translate(257.490545 505.404375) scale(0.2 -0.2)">
       <use xlink:href="#TimesNewRomanPSMT-35"/>
       <use xlink:href="#TimesNewRomanPSMT-30" x="50"/>
      </g>
     </g>
    </g>
    <g id="xtick_17">
     <g id="line2d_29">
      <g>
       <use xlink:href="#mf3d1521f67" x="419.668513" y="484.516875" style="stroke: #000000; stroke-width: 0.8"/>
      </g>
     </g>
     <g id="text_27">
      <!-- 100 -->
      <g transform="translate(404.668513 505.404375) scale(0.2 -0.2)">
       <use xlink:href="#TimesNewRomanPSMT-31"/>
       <use xlink:href="#TimesNewRomanPSMT-30" x="50"/>
       <use xlink:href="#TimesNewRomanPSMT-30" x="100"/>
      </g>
     </g>
    </g>
    <g id="xtick_18">
     <g id="line2d_30">
      <g>
       <use xlink:href="#mf3d1521f67" x="571.84648" y="484.516875" style="stroke: #000000; stroke-width: 0.8"/>
      </g>
     </g>
     <g id="text_28">
      <!-- 150 -->
      <g transform="translate(556.84648 505.404375) scale(0.2 -0.2)">
       <use xlink:href="#TimesNewRomanPSMT-31"/>
       <use xlink:href="#TimesNewRomanPSMT-35" x="50"/>
       <use xlink:href="#TimesNewRomanPSMT-30" x="100"/>
      </g>
     </g>
    </g>
    <g id="xtick_19">
     <g id="line2d_31">
      <g>
       <use xlink:href="#mf3d1521f67" x="724.024448" y="484.516875" style="stroke: #000000; stroke-width: 0.8"/>
      </g>
     </g>
     <g id="text_29">
      <!-- 200 -->
      <g transform="translate(709.024448 505.404375) scale(0.2 -0.2)">
       <use xlink:href="#TimesNewRomanPSMT-32"/>
       <use xlink:href="#TimesNewRomanPSMT-30" x="50"/>
       <use xlink:href="#TimesNewRomanPSMT-30" x="100"/>
      </g>
     </g>
    </g>
    <g id="xtick_20">
     <g id="line2d_32">
      <g>
       <use xlink:href="#mf3d1521f67" x="876.202416" y="484.516875" style="stroke: #000000; stroke-width: 0.8"/>
      </g>
     </g>
     <g id="text_30">
      <!-- 250 -->
      <g transform="translate(861.202416 505.404375) scale(0.2 -0.2)">
       <use xlink:href="#TimesNewRomanPSMT-32"/>
       <use xlink:href="#TimesNewRomanPSMT-35" x="50"/>
       <use xlink:href="#TimesNewRomanPSMT-30" x="100"/>
      </g>
     </g>
    </g>
    <g id="xtick_21">
     <g id="line2d_33">
      <g>
       <use xlink:href="#mf3d1521f67" x="1028.380384" y="484.516875" style="stroke: #000000; stroke-width: 0.8"/>
      </g>
     </g>
     <g id="text_31">
      <!-- 300 -->
      <g transform="translate(1013.380384 505.404375) scale(0.2 -0.2)">
       <use xlink:href="#TimesNewRomanPSMT-33"/>
       <use xlink:href="#TimesNewRomanPSMT-30" x="50"/>
       <use xlink:href="#TimesNewRomanPSMT-30" x="100"/>
      </g>
     </g>
    </g>
   </g>
   <g id="matplotlib.axis_6">
    <g id="ytick_5">
     <g id="line2d_34">
      <g>
       <use xlink:href="#m280f69677e" x="71.6375" y="433.381233" style="stroke: #000000; stroke-width: 0.8"/>
      </g>
     </g>
     <g id="text_32">
      <!-- 2.5 -->
      <g transform="translate(39.6375 440.324983) scale(0.2 -0.2)">
       <use xlink:href="#TimesNewRomanPSMT-32"/>
       <use xlink:href="#TimesNewRomanPSMT-2e" x="50"/>
       <use xlink:href="#TimesNewRomanPSMT-35" x="75"/>
      </g>
     </g>
    </g>
    <g id="ytick_6">
     <g id="line2d_35">
      <g>
       <use xlink:href="#m280f69677e" x="71.6375" y="379.527313" style="stroke: #000000; stroke-width: 0.8"/>
      </g>
     </g>
     <g id="text_33">
      <!-- 5.0 -->
      <g transform="translate(39.6375 386.471063) scale(0.2 -0.2)">
       <use xlink:href="#TimesNewRomanPSMT-35"/>
       <use xlink:href="#TimesNewRomanPSMT-2e" x="50"/>
       <use xlink:href="#TimesNewRomanPSMT-30" x="75"/>
      </g>
     </g>
    </g>
    <g id="text_34">
     <!-- CPU使用率 -->
     <g transform="translate(33.059375 476.388125) rotate(-90) scale(0.2 -0.2)">
      <use xlink:href="#SimSun-43"/>
      <use xlink:href="#SimSun-50" x="50"/>
      <use xlink:href="#SimSun-55" x="100"/>
      <use xlink:href="#SimSun-4f7f" x="150"/>
      <use xlink:href="#SimSun-7528" x="250"/>
      <use xlink:href="#SimSun-7387" x="350"/>
     </g>
    </g>
   </g>
   <g id="line2d_36">
    <path d="M 115.312577 429.43482 
L 118.356136 428.504224 
L 121.399695 428.711022 
L 124.443255 429.848415 
L 127.486814 428.917819 
L 130.530374 429.641618 
L 133.573933 428.504224 
L 136.617492 429.124622 
L 139.661052 419.818661 
L 142.704611 426.746428 
L 145.74817 429.745019 
L 148.79173 429.538216 
L 151.835289 430.055218 
L 154.878848 431.08921 
L 157.922408 429.745019 
L 160.965967 431.709607 
L 164.009526 433.260601 
L 167.053086 433.570799 
L 170.096645 433.260601 
L 173.140205 435.018392 
L 176.183764 433.364002 
L 179.227323 435.845592 
L 182.270883 435.845592 
L 185.314442 439.050975 
L 188.358001 438.947573 
L 191.401561 441.015563 
L 194.44512 441.118964 
L 197.488679 442.04956 
L 200.532239 443.600554 
L 206.619357 447.322936 
L 209.662917 445.254946 
L 212.706476 462.626065 
L 215.750036 449.184128 
L 218.793595 450.011325 
L 221.837154 451.355516 
L 224.880714 453.423508 
L 227.924273 454.250703 
L 230.967832 456.111895 
L 234.011392 456.732293 
L 237.054951 457.766288 
L 243.14207 460.558076 
L 246.185629 461.695469 
L 249.229188 462.315867 
L 252.272748 463.86686 
L 255.316307 464.797456 
L 258.359867 465.521252 
L 261.403426 466.968846 
L 264.446985 468.209641 
L 267.490545 467.692643 
L 273.577663 469.967433 
L 276.621223 470.48443 
L 279.664782 471.311626 
L 282.708341 471.415026 
L 285.751901 471.104828 
L 288.79546 470.48443 
L 294.882579 471.828624 
L 297.926138 471.932024 
L 300.969698 472.552421 
L 304.013257 472.75922 
L 310.100376 473.896615 
L 313.143935 474.103413 
L 316.187494 474.000013 
L 319.231054 474.620411 
L 325.318172 476.585003 
L 328.361732 477.102 
L 331.405291 477.308799 
L 334.448851 477.825796 
L 340.535969 477.825796 
L 352.710207 478.549594 
L 355.753766 478.549594 
L 358.797325 475.447607 
L 361.840885 479.583589 
L 364.884444 479.37679 
L 367.928003 479.583589 
L 370.971563 479.37679 
L 374.015122 479.686989 
L 377.058682 479.37679 
L 383.1458 479.480189 
L 386.18936 479.583589 
L 392.276478 479.480189 
L 395.320038 478.549594 
L 398.363597 478.859793 
L 401.407156 478.652993 
L 404.450716 478.652993 
L 407.494275 478.446194 
L 413.581394 477.412199 
L 416.624953 477.205399 
L 425.755631 475.861206 
L 428.799191 474.930609 
L 431.84275 471.104828 
L 434.886309 472.449021 
L 437.929869 471.415026 
L 440.973428 470.794629 
L 444.016987 469.553834 
L 447.060547 468.830038 
L 450.104106 465.107655 
L 453.147665 465.521252 
L 456.191225 464.07366 
L 459.234784 463.143064 
L 462.278344 461.281872 
L 465.321903 461.075072 
L 468.365462 446.909338 
L 471.409022 456.215294 
L 474.452581 454.871101 
L 477.49614 453.733707 
L 480.5397 451.872515 
L 483.583259 451.975914 
L 486.626818 449.494327 
L 489.670378 449.184128 
L 492.713937 447.426337 
L 495.757496 448.356933 
L 498.801056 445.358345 
L 501.844615 444.32435 
L 504.888175 438.22378 
L 507.931734 439.257772 
L 510.975293 439.154376 
L 514.018853 439.257772 
L 517.062412 437.81018 
L 520.105971 437.913581 
L 523.149531 436.879584 
L 526.19309 439.671372 
L 529.236649 439.87817 
L 532.280209 439.361173 
L 535.323768 439.361173 
L 538.367327 436.362588 
L 541.410887 436.362588 
L 544.454446 435.74219 
L 547.498006 436.259186 
L 550.541565 435.948988 
L 553.585124 432.743605 
L 556.628684 437.086381 
L 559.672243 434.811594 
L 562.715802 438.016977 
L 565.759362 438.740776 
L 568.802921 438.947573 
L 571.84648 436.155785 
L 574.89004 438.22378 
L 577.933599 430.985809 
L 580.977158 432.847001 
L 584.020718 432.433406 
L 587.064277 435.948988 
L 590.107837 436.776183 
L 593.151396 438.120379 
L 596.194955 438.430577 
L 599.238515 436.672786 
L 602.282074 436.052389 
L 605.325633 436.362588 
L 608.369193 437.913581 
L 611.412752 439.257772 
L 614.456311 437.603383 
L 617.499871 435.225194 
L 620.54343 435.948988 
L 623.586989 438.740776 
L 626.630549 438.533979 
L 629.674108 435.948988 
L 632.717668 438.22378 
L 635.761227 439.671372 
L 638.804786 439.361173 
L 641.848346 437.603383 
L 644.891905 437.499981 
L 647.935464 438.430577 
L 650.979024 454.664303 
L 654.022583 429.02122 
L 657.066142 429.848415 
L 660.109702 433.467398 
L 663.153261 433.984399 
L 666.19682 433.984399 
L 669.24038 435.121793 
L 672.283939 436.982985 
L 675.327499 436.362588 
L 678.371058 438.327176 
L 681.414617 436.776183 
L 684.458177 438.947573 
L 687.501736 435.948988 
L 690.545295 435.638789 
L 696.632414 440.705364 
L 699.675973 440.188368 
L 702.719533 439.87817 
L 705.763092 438.430577 
L 708.806651 440.084967 
L 711.850211 440.084967 
L 714.89377 441.118964 
L 717.93733 439.87817 
L 720.980889 440.498567 
L 724.024448 435.121793 
L 727.068008 433.674201 
L 730.111567 438.740776 
L 733.155126 439.154376 
L 736.198686 436.052389 
L 739.242245 435.845592 
L 742.285804 434.811594 
L 745.329364 436.879584 
L 748.372923 438.533979 
L 751.416482 441.118964 
L 754.460042 439.567971 
L 757.503601 438.844177 
L 760.547161 436.052389 
L 763.59072 436.155785 
L 769.677839 439.671372 
L 772.721398 439.567971 
L 775.764957 440.084967 
L 778.808517 438.740776 
L 784.895635 438.740776 
L 787.939195 439.671372 
L 790.982754 439.567971 
L 797.069873 437.81018 
L 800.113432 437.81018 
L 803.156992 440.084967 
L 806.200551 435.32859 
L 809.24411 436.052389 
L 812.28767 438.327176 
L 815.331229 433.674201 
L 818.374788 436.465984 
L 821.418348 437.603383 
L 824.461907 437.706779 
L 827.505466 432.640203 
L 830.549026 434.811594 
L 833.592585 432.950402 
L 836.636144 432.950402 
L 839.679704 429.848415 
L 842.723263 433.467398 
L 845.766823 432.743605 
L 848.810382 431.606206 
L 851.853941 428.504224 
L 854.897501 429.43482 
L 857.94106 428.814423 
L 860.984619 428.400823 
L 864.028179 429.745019 
L 867.071738 428.60762 
L 870.115297 424.575042 
L 873.158857 427.470227 
L 876.202416 425.402237 
L 879.245975 423.541045 
L 882.289535 424.36824 
L 885.333094 423.334248 
L 888.376654 420.645855 
L 891.420213 424.678439 
L 894.463772 421.990052 
L 897.507332 423.127445 
L 900.550891 423.127445 
L 903.59445 421.162857 
L 906.63801 424.264844 
L 909.681569 425.402237 
L 912.725128 427.366826 
L 915.768688 424.988637 
L 918.812247 421.473055 
L 921.855806 428.814423 
L 924.899366 426.022635 
L 927.942925 428.090624 
L 930.986485 428.711022 
L 934.030044 429.848415 
L 937.073603 428.090624 
L 940.117163 429.43482 
L 943.160722 424.678439 
L 946.204281 427.056627 
L 949.247841 427.160028 
L 952.2914 429.331419 
L 955.334959 427.056627 
L 958.378519 428.917819 
L 961.422078 428.60762 
L 964.465637 427.470227 
L 967.509197 429.745019 
L 970.552756 429.745019 
L 973.596316 429.02122 
L 976.639875 427.470227 
L 979.683434 420.749257 
L 982.726994 426.436229 
L 985.770553 426.126031 
L 988.814112 426.849829 
L 988.814112 426.849829 
" clip-path="url(#p35a3510825)" style="fill: none; stroke: #1f77b4; stroke-width: 1.5; stroke-linecap: square"/>
   </g>
   <g id="line2d_37">
    <path d="M 553.585124 429.068224 
L 556.628684 430.876198 
L 559.672243 429.019479 
L 562.715802 428.926858 
L 565.759362 428.561762 
L 568.802921 430.248883 
L 571.84648 428.523951 
L 574.89004 429.077982 
L 577.933599 420.330054 
L 580.977158 426.655944 
L 584.020718 426.903638 
L 587.064277 426.995052 
L 590.107837 427.963474 
L 593.151396 428.171597 
L 596.194955 426.870399 
L 599.238515 427.47941 
L 602.282074 430.261784 
L 605.325633 427.996339 
L 608.369193 430.989707 
L 611.412752 428.613059 
L 614.456311 423.160952 
L 617.499871 421.742968 
L 620.54343 423.16183 
L 623.586989 426.005003 
L 626.630549 426.60064 
L 629.674108 426.822984 
L 632.717668 426.902919 
L 635.761227 428.836559 
L 638.804786 427.356076 
L 641.848346 429.16633 
L 644.891905 428.826487 
L 647.935464 426.928132 
L 650.979024 436.606775 
L 654.022583 426.543801 
L 657.066142 427.26722 
L 660.109702 428.930361 
L 663.153261 430.180857 
L 666.19682 430.373387 
L 669.24038 432.618514 
L 672.283939 433.98765 
L 675.327499 433.967821 
L 678.371058 431.963439 
L 681.414617 431.690147 
L 684.458177 431.816629 
L 687.501736 426.957951 
L 690.545295 430.718084 
L 693.588855 431.218763 
L 696.632414 434.110882 
L 699.675973 434.964054 
L 702.719533 433.998195 
L 705.763092 432.612885 
L 708.806651 433.734804 
L 714.89377 433.725401 
L 717.93733 433.449828 
L 720.980889 432.917543 
L 724.024448 425.282252 
L 727.068008 426.906936 
L 730.111567 427.963336 
L 733.155126 429.717095 
L 736.198686 430.091914 
L 739.242245 429.398124 
L 742.285804 430.118538 
L 745.329364 429.335045 
L 748.372923 427.956253 
L 751.416482 426.959892 
L 754.460042 428.172794 
L 757.503601 425.947912 
L 760.547161 422.577127 
L 763.59072 424.921983 
L 766.634279 422.70857 
L 769.677839 424.676749 
L 772.721398 422.846927 
L 775.764957 422.521937 
L 778.808517 422.063043 
L 781.852076 419.808101 
L 784.895635 420.918444 
L 787.939195 419.760435 
L 790.982754 417.171448 
L 794.026313 417.600507 
L 797.069873 413.546205 
L 800.113432 413.02323 
L 803.156992 412.841624 
L 806.200551 411.555202 
L 809.24411 411.62352 
L 812.28767 408.686252 
L 815.331229 407.119106 
L 818.374788 407.877218 
L 821.418348 404.434134 
L 824.461907 403.107236 
L 827.505466 402.196542 
L 830.549026 400.195776 
L 833.592585 393.400566 
L 836.636144 392.902537 
L 839.679704 393.060867 
L 842.723263 392.791612 
L 845.766823 392.184157 
L 848.810382 389.957021 
L 851.853941 390.000255 
L 854.897501 390.639162 
L 857.94106 391.499591 
L 860.984619 389.097804 
L 864.028179 387.396595 
L 867.071738 387.898641 
L 870.115297 383.089261 
L 873.158857 386.236188 
L 876.202416 387.670596 
L 879.245975 389.826908 
L 882.289535 387.391192 
L 885.333094 388.839231 
L 888.376654 387.996582 
L 891.420213 391.659226 
L 894.463772 390.2763 
L 897.507332 394.680784 
L 900.550891 395.623111 
L 903.59445 396.940287 
L 906.63801 391.482838 
L 909.681569 398.441976 
L 912.725128 398.480937 
L 915.768688 397.599193 
L 918.812247 399.470781 
L 921.855806 399.280906 
L 924.899366 400.328303 
L 927.942925 400.161797 
L 930.986485 400.466973 
L 934.030044 402.364738 
L 937.073603 402.329798 
L 940.117163 401.371833 
L 943.160722 399.554024 
L 946.204281 401.943608 
L 949.247841 403.019176 
L 952.2914 402.669328 
L 955.334959 404.624928 
L 958.378519 404.132559 
L 961.422078 404.17436 
L 964.465637 405.501818 
L 967.509197 404.644419 
L 970.552756 406.753542 
L 973.596316 404.876804 
L 976.639875 402.731832 
L 979.683434 404.295568 
L 982.726994 403.010784 
L 985.770553 405.867192 
L 988.814112 405.009813 
L 988.814112 405.009813 
" clip-path="url(#p35a3510825)" style="fill: none; stroke: #ff7f0e; stroke-width: 1.5; stroke-linecap: square"/>
   </g>
   <g id="line2d_38">
    <path d="M 553.585124 484.516875 
L 553.585124 378.259375 
" clip-path="url(#p35a3510825)" style="fill: none; stroke-dasharray: 7.4,3.2; stroke-dashoffset: 0; stroke: #0000ff; stroke-width: 2"/>
   </g>
   <g id="patch_14">
    <path d="M 71.6375 484.516875 
L 71.6375 378.259375 
" style="fill: none; stroke: #000000; stroke-width: 0.8; stroke-linejoin: miter; stroke-linecap: square"/>
   </g>
   <g id="patch_15">
    <path d="M 1032.489189 484.516875 
L 1032.489189 378.259375 
" style="fill: none; stroke: #000000; stroke-width: 0.8; stroke-linejoin: miter; stroke-linecap: square"/>
   </g>
   <g id="patch_16">
    <path d="M 71.6375 484.516875 
L 1032.489189 484.516875 
" style="fill: none; stroke: #000000; stroke-width: 0.8; stroke-linejoin: miter; stroke-linecap: square"/>
   </g>
   <g id="patch_17">
    <path d="M 71.6375 378.259375 
L 1032.489189 378.259375 
" style="fill: none; stroke: #000000; stroke-width: 0.8; stroke-linejoin: miter; stroke-linecap: square"/>
   </g>
   <g id="text_35">
    <!-- 云函数ID: 150 -->
    <g transform="translate(487.063345 372.259375) scale(0.2 -0.2)">
     <defs>
      <path id="SimSun-31" d="M 1825 4450 
L 1825 650 
Q 1825 450 1950 350 
Q 2075 250 2300 250 
L 2550 250 
L 2550 100 
L 725 100 
L 725 250 
L 950 250 
Q 1200 250 1312 350 
Q 1425 450 1425 650 
L 1425 3675 
Q 1425 3775 1362 3837 
Q 1300 3900 1175 3900 
L 725 3900 
L 725 4050 
L 950 4050 
Q 1250 4050 1437 4150 
Q 1625 4250 1725 4450 
L 1825 4450 
z
" transform="scale(0.015625)"/>
      <path id="SimSun-35" d="M 1725 2850 
Q 2200 2850 2500 2487 
Q 2800 2125 2800 1525 
Q 2800 850 2487 450 
Q 2175 50 1525 50 
Q 1075 50 725 312 
Q 375 575 375 950 
Q 375 1100 462 1212 
Q 550 1325 700 1325 
Q 850 1325 900 1225 
Q 950 1125 950 1050 
Q 950 900 875 825 
Q 800 725 800 625 
Q 800 425 1037 325 
Q 1275 225 1550 225 
Q 1950 225 2162 550 
Q 2375 875 2375 1475 
Q 2375 1975 2187 2287 
Q 2000 2600 1625 2600 
Q 1350 2600 1150 2500 
Q 950 2400 775 2075 
L 550 2100 
L 675 4375 
L 2725 4375 
L 2650 4000 
L 850 4000 
L 750 2350 
Q 1000 2700 1237 2775 
Q 1475 2850 1725 2850 
z
" transform="scale(0.015625)"/>
      <path id="SimSun-30" d="M 1600 4225 
Q 1250 4225 1012 3687 
Q 775 3150 775 2250 
Q 775 1300 1012 775 
Q 1250 250 1600 250 
Q 1975 250 2187 775 
Q 2400 1300 2400 2250 
Q 2400 3150 2200 3687 
Q 2000 4225 1600 4225 
z
M 1600 50 
Q 1050 50 675 625 
Q 300 1200 300 2250 
Q 300 3225 662 3825 
Q 1025 4425 1600 4425 
Q 2150 4425 2512 3850 
Q 2875 3275 2875 2250 
Q 2875 1225 2512 637 
Q 2150 50 1600 50 
z
" transform="scale(0.015625)"/>
     </defs>
     <use xlink:href="#SimSun-4e91"/>
     <use xlink:href="#SimSun-51fd" x="100"/>
     <use xlink:href="#SimSun-6570" x="200"/>
     <use xlink:href="#SimSun-49" x="300"/>
     <use xlink:href="#SimSun-44" x="350"/>
     <use xlink:href="#SimSun-3a" x="400"/>
     <use xlink:href="#SimSun-20" x="450"/>
     <use xlink:href="#SimSun-31" x="500"/>
     <use xlink:href="#SimSun-35" x="550"/>
     <use xlink:href="#SimSun-30" x="600"/>
    </g>
   </g>
  </g>
  <g id="axes_4">
   <g id="patch_18">
    <path d="M 71.6375 659.116875 
L 1032.489189 659.116875 
L 1032.489189 552.859375 
L 71.6375 552.859375 
z
" style="fill: #ffffff"/>
   </g>
   <g id="matplotlib.axis_7">
    <g id="xtick_22">
     <g id="line2d_39">
      <g>
       <use xlink:href="#mf3d1521f67" x="115.312577" y="659.116875" style="stroke: #000000; stroke-width: 0.8"/>
      </g>
     </g>
     <g id="text_36">
      <!-- 0 -->
      <g transform="translate(110.312577 680.004375) scale(0.2 -0.2)">
       <use xlink:href="#TimesNewRomanPSMT-30"/>
      </g>
     </g>
    </g>
    <g id="xtick_23">
     <g id="line2d_40">
      <g>
       <use xlink:href="#mf3d1521f67" x="267.490545" y="659.116875" style="stroke: #000000; stroke-width: 0.8"/>
      </g>
     </g>
     <g id="text_37">
      <!-- 50 -->
      <g transform="translate(257.490545 680.004375) scale(0.2 -0.2)">
       <use xlink:href="#TimesNewRomanPSMT-35"/>
       <use xlink:href="#TimesNewRomanPSMT-30" x="50"/>
      </g>
     </g>
    </g>
    <g id="xtick_24">
     <g id="line2d_41">
      <g>
       <use xlink:href="#mf3d1521f67" x="419.668513" y="659.116875" style="stroke: #000000; stroke-width: 0.8"/>
      </g>
     </g>
     <g id="text_38">
      <!-- 100 -->
      <g transform="translate(404.668513 680.004375) scale(0.2 -0.2)">
       <use xlink:href="#TimesNewRomanPSMT-31"/>
       <use xlink:href="#TimesNewRomanPSMT-30" x="50"/>
       <use xlink:href="#TimesNewRomanPSMT-30" x="100"/>
      </g>
     </g>
    </g>
    <g id="xtick_25">
     <g id="line2d_42">
      <g>
       <use xlink:href="#mf3d1521f67" x="571.84648" y="659.116875" style="stroke: #000000; stroke-width: 0.8"/>
      </g>
     </g>
     <g id="text_39">
      <!-- 150 -->
      <g transform="translate(556.84648 680.004375) scale(0.2 -0.2)">
       <use xlink:href="#TimesNewRomanPSMT-31"/>
       <use xlink:href="#TimesNewRomanPSMT-35" x="50"/>
       <use xlink:href="#TimesNewRomanPSMT-30" x="100"/>
      </g>
     </g>
    </g>
    <g id="xtick_26">
     <g id="line2d_43">
      <g>
       <use xlink:href="#mf3d1521f67" x="724.024448" y="659.116875" style="stroke: #000000; stroke-width: 0.8"/>
      </g>
     </g>
     <g id="text_40">
      <!-- 200 -->
      <g transform="translate(709.024448 680.004375) scale(0.2 -0.2)">
       <use xlink:href="#TimesNewRomanPSMT-32"/>
       <use xlink:href="#TimesNewRomanPSMT-30" x="50"/>
       <use xlink:href="#TimesNewRomanPSMT-30" x="100"/>
      </g>
     </g>
    </g>
    <g id="xtick_27">
     <g id="line2d_44">
      <g>
       <use xlink:href="#mf3d1521f67" x="876.202416" y="659.116875" style="stroke: #000000; stroke-width: 0.8"/>
      </g>
     </g>
     <g id="text_41">
      <!-- 250 -->
      <g transform="translate(861.202416 680.004375) scale(0.2 -0.2)">
       <use xlink:href="#TimesNewRomanPSMT-32"/>
       <use xlink:href="#TimesNewRomanPSMT-35" x="50"/>
       <use xlink:href="#TimesNewRomanPSMT-30" x="100"/>
      </g>
     </g>
    </g>
    <g id="xtick_28">
     <g id="line2d_45">
      <g>
       <use xlink:href="#mf3d1521f67" x="1028.380384" y="659.116875" style="stroke: #000000; stroke-width: 0.8"/>
      </g>
     </g>
     <g id="text_42">
      <!-- 300 -->
      <g transform="translate(1013.380384 680.004375) scale(0.2 -0.2)">
       <use xlink:href="#TimesNewRomanPSMT-33"/>
       <use xlink:href="#TimesNewRomanPSMT-30" x="50"/>
       <use xlink:href="#TimesNewRomanPSMT-30" x="100"/>
      </g>
     </g>
    </g>
   </g>
   <g id="matplotlib.axis_8">
    <g id="ytick_7">
     <g id="line2d_46">
      <g>
       <use xlink:href="#m280f69677e" x="71.6375" y="624.278848" style="stroke: #000000; stroke-width: 0.8"/>
      </g>
     </g>
     <g id="text_43">
      <!-- 10.0 -->
      <g transform="translate(29.6375 631.222598) scale(0.2 -0.2)">
       <use xlink:href="#TimesNewRomanPSMT-31"/>
       <use xlink:href="#TimesNewRomanPSMT-30" x="50"/>
       <use xlink:href="#TimesNewRomanPSMT-2e" x="100"/>
       <use xlink:href="#TimesNewRomanPSMT-30" x="125"/>
      </g>
     </g>
    </g>
    <g id="ytick_8">
     <g id="line2d_47">
      <g>
       <use xlink:href="#m280f69677e" x="71.6375" y="554.528165" style="stroke: #000000; stroke-width: 0.8"/>
      </g>
     </g>
     <g id="text_44">
      <!-- 20.0 -->
      <g transform="translate(29.6375 561.471915) scale(0.2 -0.2)">
       <use xlink:href="#TimesNewRomanPSMT-32"/>
       <use xlink:href="#TimesNewRomanPSMT-30" x="50"/>
       <use xlink:href="#TimesNewRomanPSMT-2e" x="100"/>
       <use xlink:href="#TimesNewRomanPSMT-30" x="125"/>
      </g>
     </g>
    </g>
    <g id="text_45">
     <!-- CPU使用率 -->
     <g transform="translate(23.059375 650.988125) rotate(-90) scale(0.2 -0.2)">
      <use xlink:href="#SimSun-43"/>
      <use xlink:href="#SimSun-50" x="50"/>
      <use xlink:href="#SimSun-55" x="100"/>
      <use xlink:href="#SimSun-4f7f" x="150"/>
      <use xlink:href="#SimSun-7528" x="250"/>
      <use xlink:href="#SimSun-7387" x="350"/>
     </g>
    </g>
   </g>
   <g id="line2d_48">
    <path d="M 115.312577 595.060286 
L 118.356136 594.3279 
L 121.399695 599.7015 
L 124.443255 600.963985 
L 127.486814 599.278809 
L 130.530374 601.960021 
L 133.573933 602.738438 
L 136.617492 601.095122 
L 139.661052 601.268099 
L 142.704611 604.425011 
L 145.74817 605.808868 
L 148.79173 600.749147 
L 151.835289 654.286989 
L 154.878848 599.840998 
L 157.922408 599.624769 
L 160.965967 600.489682 
L 164.009526 604.338523 
L 167.053086 600.403187 
L 170.096645 602.003272 
L 173.140205 601.18161 
L 176.183764 601.61406 
L 179.227323 600.619421 
L 185.314442 604.770979 
L 188.358001 598.976092 
L 191.401561 604.684484 
L 194.44512 605.852113 
L 197.488679 604.381767 
L 200.532239 608.317103 
L 203.575798 608.749553 
L 206.619357 604.857468 
L 209.662917 606.457553 
L 212.706476 606.933253 
L 215.750036 610.306394 
L 218.793595 613.969692 
L 221.837154 616.020367 
L 224.880714 609.156905 
L 227.924273 613.132691 
L 230.967832 614.806706 
L 234.011392 616.104068 
L 237.054951 616.731825 
L 240.09851 618.531395 
L 243.14207 616.271471 
L 246.185629 615.769262 
L 252.272748 619.368396 
L 255.316307 616.271471 
L 258.359867 617.150326 
L 261.403426 613.802296 
L 264.446985 619.159146 
L 267.490545 619.6195 
L 270.534104 618.112888 
L 273.577663 618.40584 
L 276.621223 619.41025 
L 279.664782 616.39702 
L 282.708341 618.40584 
L 285.751901 618.99175 
L 288.79546 618.280291 
L 291.83902 617.275881 
L 294.882579 619.954306 
L 297.926138 613.46749 
L 300.969698 619.075445 
L 304.013257 615.267061 
L 307.056816 614.890401 
L 310.100376 615.476311 
L 313.143935 617.066624 
L 316.187494 615.560012 
L 319.231054 617.819937 
L 322.274613 616.731825 
L 325.318172 615.267061 
L 328.361732 617.108472 
L 331.405291 619.954306 
L 334.448851 615.05781 
L 337.49241 614.430047 
L 340.535969 613.383789 
L 346.623088 613.132691 
L 349.666647 615.015956 
L 352.710207 617.778083 
L 355.753766 616.522568 
L 358.797325 617.485131 
L 361.840885 617.610687 
L 364.884444 618.698792 
L 367.928003 617.987333 
L 370.971563 613.718595 
L 374.015122 614.388199 
L 377.058682 612.756038 
L 380.102241 616.313325 
L 383.1458 616.187763 
L 386.18936 612.630483 
L 389.232919 612.46308 
L 392.276478 613.634893 
L 395.320038 612.923435 
L 398.363597 610.454266 
L 401.407156 611.66792 
L 404.450716 610.789065 
L 407.494275 609.073197 
L 410.537834 610.161308 
L 413.581394 593.030538 
L 416.624953 586.564656 
L 419.668513 591.691329 
L 422.712072 594.718509 
L 425.755631 594.376732 
L 428.799191 596.329749 
L 431.84275 596.280924 
L 434.886309 599.601055 
L 437.929869 601.700548 
L 440.973428 604.07905 
L 444.016987 602.248788 
L 447.060547 581.198041 
L 456.191225 586.875748 
L 459.234784 588.0629 
L 462.278344 599.181158 
L 465.321903 598.644073 
L 468.365462 601.222061 
L 471.409022 600.623599 
L 474.452581 598.690112 
L 477.49614 595.145384 
L 480.5397 602.000484 
L 483.583259 581.350091 
L 486.626818 572.317391 
L 489.670378 575.922105 
L 492.713937 569.984913 
L 495.757496 585.729046 
L 498.801056 589.492789 
L 501.844615 593.998682 
L 504.888175 596.65479 
L 507.931734 594.994724 
L 510.975293 597.603397 
L 514.018853 600.733808 
L 517.062412 594.378129 
L 520.105971 577.982532 
L 523.149531 578.907431 
L 526.19309 582.062953 
L 529.236649 592.911967 
L 532.280209 591.740154 
L 535.323768 591.398377 
L 538.367327 587.541162 
L 541.410887 589.005926 
L 544.454446 591.544853 
L 547.498006 594.572033 
L 550.541565 598.673369 
L 553.585124 597.745689 
L 556.628684 581.517494 
L 562.715802 596.23768 
L 565.759362 595.240241 
L 568.802921 595.731287 
L 571.84648 595.552722 
L 574.89004 597.025862 
L 577.933599 592.427899 
L 580.977158 593.142145 
L 584.020718 594.749194 
L 587.064277 597.918672 
L 590.107837 642.235463 
L 593.151396 565.891946 
L 596.194955 557.689261 
L 599.238515 572.16115 
L 602.282074 581.535627 
L 605.325633 584.850184 
L 608.369193 587.511866 
L 611.412752 592.081938 
L 614.456311 592.165633 
L 617.499871 597.338343 
L 620.54343 598.09723 
L 623.586989 599.570363 
L 626.630549 601.17742 
L 629.674108 585.123606 
L 632.717668 583.042239 
L 635.761227 590.073111 
L 638.804786 598.476677 
L 641.848346 595.240241 
L 644.891905 597.963307 
L 647.935464 597.47226 
L 650.979024 598.231154 
L 654.022583 599.436446 
L 657.066142 600.373891 
L 660.109702 602.56127 
L 663.153261 596.043769 
L 666.19682 590.508354 
L 669.24038 598.766835 
L 672.283939 603.766569 
L 675.327499 599.347164 
L 678.371058 602.56127 
L 681.414617 602.56127 
L 684.458177 598.990041 
L 687.501736 602.6952 
L 690.545295 602.516635 
L 693.588855 602.963041 
L 696.632414 598.9454 
L 699.675973 597.47226 
L 702.719533 597.740108 
L 705.763092 602.427353 
L 708.806651 603.543363 
L 711.850211 600.597097 
L 714.89377 602.159512 
L 717.93733 600.95422 
L 720.980889 594.70456 
L 724.024448 602.338071 
L 727.068008 602.382718 
L 730.111567 603.543363 
L 733.155126 602.204154 
L 736.198686 600.46318 
L 739.242245 601.623825 
L 742.285804 601.757742 
L 745.329364 601.088144 
L 748.372923 604.391532 
L 751.416482 607.025316 
L 754.460042 603.230881 
L 757.503601 603.320164 
L 760.547161 605.730748 
L 763.59072 603.588004 
L 766.634279 598.900759 
L 769.677839 603.855845 
L 772.721398 600.418533 
L 775.764957 600.731021 
L 778.808517 602.114871 
L 781.852076 600.552456 
L 784.895635 599.972134 
L 787.939195 602.276693 
L 790.982754 602.204154 
L 794.026313 599.972134 
L 797.069873 600.597097 
L 800.113432 600.284616 
L 803.156992 603.320164 
L 806.200551 604.257615 
L 809.24411 591.942433 
L 812.28767 592.734799 
L 815.331229 593.88987 
L 818.374788 589.068707 
L 821.418348 590.776195 
L 824.461907 590.374437 
L 827.505466 580.308024 
L 830.549026 580.023441 
L 833.592585 577.467778 
L 836.636144 576.262485 
L 839.679704 578.371737 
L 842.723263 574.354096 
L 845.766823 588.666936 
L 848.810382 582.640482 
L 851.853941 586.75856 
L 854.897501 583.59467 
L 857.94106 578.221084 
L 860.984619 589.018478 
L 864.028179 588.666936 
L 867.071738 589.671353 
L 870.115297 589.621124 
L 873.158857 590.022895 
L 876.202416 590.022895 
L 879.245975 591.730389 
L 882.289535 589.922451 
L 885.333094 588.466054 
L 888.376654 578.522403 
L 891.420213 578.968802 
L 894.463772 578.466607 
L 897.507332 585.553268 
L 900.550891 584.297754 
L 903.59445 584.59908 
L 906.63801 586.457241 
L 909.681569 589.269583 
L 912.725128 589.520687 
L 915.768688 590.424653 
L 918.812247 576.395005 
L 924.899366 586.658123 
L 927.942925 586.457241 
L 930.986485 586.105692 
L 934.030044 586.959442 
L 937.073603 586.858998 
L 940.117163 585.452824 
L 943.160722 585.854595 
L 946.204281 582.389378 
L 949.247841 581.234308 
L 952.2914 584.699524 
L 955.334959 586.407012 
L 961.422078 587.662526 
L 964.465637 585.90481 
L 967.509197 588.164735 
L 970.552756 588.767381 
L 973.596316 588.114513 
L 976.639875 582.74092 
L 979.683434 589.169138 
L 982.726994 592.483695 
L 985.770553 591.981493 
L 988.814112 583.192906 
L 988.814112 583.192906 
" clip-path="url(#pf0542b6a2d)" style="fill: none; stroke: #1f77b4; stroke-width: 1.5; stroke-linecap: square"/>
   </g>
   <g id="line2d_49">
    <path d="M 553.585124 611.696351 
L 556.628684 610.03866 
L 562.715802 608.102665 
L 565.759362 607.573982 
L 568.802921 609.978087 
L 571.84648 610.484912 
L 574.89004 612.310771 
L 577.933599 611.659219 
L 580.977158 612.514992 
L 584.020718 610.224914 
L 587.064277 610.504076 
L 590.107837 624.101553 
L 593.151396 603.81876 
L 596.194955 606.162233 
L 599.238515 607.287236 
L 602.282074 609.809088 
L 605.325633 610.395477 
L 608.369193 611.972859 
L 611.412752 611.849033 
L 614.456311 612.728699 
L 617.499871 611.515744 
L 620.54343 612.009544 
L 626.630549 608.403359 
L 629.674108 607.4239 
L 632.717668 609.014041 
L 635.761227 610.173934 
L 638.804786 611.114618 
L 641.848346 611.068833 
L 644.891905 610.282241 
L 650.979024 612.990473 
L 654.022583 613.113753 
L 657.066142 613.745409 
L 660.109702 610.254449 
L 663.153261 607.498349 
L 666.19682 608.987273 
L 669.24038 610.202697 
L 672.283939 609.896933 
L 675.327499 610.597968 
L 681.414617 609.931743 
L 684.458177 610.427965 
L 687.501736 612.111618 
L 690.545295 612.418945 
L 693.588855 613.072006 
L 696.632414 612.454685 
L 699.675973 612.206881 
L 702.719533 610.928297 
L 705.763092 610.453282 
L 708.806651 611.65763 
L 711.850211 610.623213 
L 714.89377 610.161129 
L 717.93733 611.64851 
L 720.980889 611.216699 
L 724.024448 613.073655 
L 727.068008 611.255679 
L 730.111567 612.054471 
L 733.155126 611.236688 
L 736.198686 611.249879 
L 739.242245 613.50063 
L 742.285804 612.374703 
L 745.329364 611.851215 
L 748.372923 612.419251 
L 751.416482 611.850809 
L 754.460042 614.596545 
L 757.503601 614.010888 
L 760.547161 613.203934 
L 763.59072 614.700927 
L 766.634279 614.296728 
L 769.677839 615.75073 
L 772.721398 613.203076 
L 775.764957 613.702756 
L 778.808517 613.475998 
L 781.852076 613.39535 
L 784.895635 614.254449 
L 787.939195 613.315074 
L 790.982754 613.98128 
L 794.026313 615.005373 
L 797.069873 615.198446 
L 803.156992 613.748083 
L 806.200551 612.426907 
L 809.24411 609.646408 
L 812.28767 612.368676 
L 815.331229 612.533065 
L 818.374788 614.02038 
L 821.418348 612.520859 
L 824.461907 612.10941 
L 827.505466 612.972719 
L 830.549026 614.113846 
L 833.592585 612.304857 
L 836.636144 611.908089 
L 842.723263 610.498316 
L 845.766823 609.474043 
L 848.810382 611.48128 
L 851.853941 612.103177 
L 854.897501 610.865636 
L 860.984619 611.623126 
L 864.028179 611.072165 
L 867.071738 611.137401 
L 873.158857 612.30952 
L 876.202416 612.053799 
L 879.245975 613.41488 
L 882.289535 611.696617 
L 885.333094 610.235131 
L 888.376654 609.995149 
L 891.420213 613.284782 
L 894.463772 612.20394 
L 897.507332 613.709255 
L 900.550891 615.823143 
L 903.59445 614.759298 
L 906.63801 616.31087 
L 909.681569 615.525282 
L 912.725128 616.979803 
L 915.768688 615.238038 
L 918.812247 613.718954 
L 921.855806 611.566132 
L 924.899366 614.585183 
L 927.942925 613.85786 
L 930.986485 614.163357 
L 934.030044 616.236635 
L 937.073603 615.396554 
L 940.117163 615.033039 
L 943.160722 616.480781 
L 946.204281 616.122314 
L 949.247841 618.494324 
L 952.2914 619.745734 
L 955.334959 616.584491 
L 958.378519 617.344802 
L 961.422078 617.565467 
L 964.465637 618.188953 
L 967.509197 618.438262 
L 970.552756 618.052569 
L 973.596316 619.838443 
L 976.639875 621.992635 
L 979.683434 623.049608 
L 982.726994 621.346199 
L 985.770553 623.180552 
L 988.814112 623.171266 
L 988.814112 623.171266 
" clip-path="url(#pf0542b6a2d)" style="fill: none; stroke: #ff7f0e; stroke-width: 1.5; stroke-linecap: square"/>
   </g>
   <g id="line2d_50">
    <path d="M 553.585124 659.116875 
L 553.585124 552.859375 
" clip-path="url(#pf0542b6a2d)" style="fill: none; stroke-dasharray: 7.4,3.2; stroke-dashoffset: 0; stroke: #0000ff; stroke-width: 2"/>
   </g>
   <g id="patch_19">
    <path d="M 71.6375 659.116875 
L 71.6375 552.859375 
" style="fill: none; stroke: #000000; stroke-width: 0.8; stroke-linejoin: miter; stroke-linecap: square"/>
   </g>
   <g id="patch_20">
    <path d="M 1032.489189 659.116875 
L 1032.489189 552.859375 
" style="fill: none; stroke: #000000; stroke-width: 0.8; stroke-linejoin: miter; stroke-linecap: square"/>
   </g>
   <g id="patch_21">
    <path d="M 71.6375 659.116875 
L 1032.489189 659.116875 
" style="fill: none; stroke: #000000; stroke-width: 0.8; stroke-linejoin: miter; stroke-linecap: square"/>
   </g>
   <g id="patch_22">
    <path d="M 71.6375 552.859375 
L 1032.489189 552.859375 
" style="fill: none; stroke: #000000; stroke-width: 0.8; stroke-linejoin: miter; stroke-linecap: square"/>
   </g>
   <g id="text_46">
    <!-- 云函数ID: 165 -->
    <g transform="translate(487.063345 546.859375) scale(0.2 -0.2)">
     <defs>
      <path id="SimSun-36" d="M 775 1800 
Q 775 1050 1037 637 
Q 1300 225 1675 225 
Q 2050 225 2250 500 
Q 2450 775 2450 1525 
Q 2450 2025 2237 2300 
Q 2025 2575 1725 2575 
Q 1450 2575 1212 2412 
Q 975 2250 775 1800 
z
M 1750 2825 
Q 2350 2825 2612 2425 
Q 2875 2025 2875 1525 
Q 2875 775 2512 412 
Q 2150 50 1675 50 
Q 1000 50 650 562 
Q 300 1075 300 2050 
Q 300 3200 725 3812 
Q 1150 4425 1875 4425 
Q 2225 4425 2437 4225 
Q 2650 4025 2650 3875 
Q 2650 3725 2587 3650 
Q 2525 3575 2375 3575 
Q 2250 3575 2187 3637 
Q 2125 3700 2125 3825 
Q 2125 3875 2150 3925 
Q 2150 3975 2150 4025 
Q 2150 4125 2075 4187 
Q 2000 4250 1800 4250 
Q 1375 4250 1075 3862 
Q 775 3475 775 2175 
Q 925 2500 1187 2662 
Q 1450 2825 1750 2825 
z
" transform="scale(0.015625)"/>
     </defs>
     <use xlink:href="#SimSun-4e91"/>
     <use xlink:href="#SimSun-51fd" x="100"/>
     <use xlink:href="#SimSun-6570" x="200"/>
     <use xlink:href="#SimSun-49" x="300"/>
     <use xlink:href="#SimSun-44" x="350"/>
     <use xlink:href="#SimSun-3a" x="400"/>
     <use xlink:href="#SimSun-20" x="450"/>
     <use xlink:href="#SimSun-31" x="500"/>
     <use xlink:href="#SimSun-36" x="550"/>
     <use xlink:href="#SimSun-35" x="600"/>
    </g>
   </g>
  </g>
 </g>
 <defs>
  <clipPath id="pc4d56f42aa">
   <rect x="71.6375" y="29.059375" width="960.851689" height="106.2575"/>
  </clipPath>
  <clipPath id="p775c92aa6a">
   <rect x="71.6375" y="203.659375" width="960.851689" height="106.2575"/>
  </clipPath>
  <clipPath id="p35a3510825">
   <rect x="71.6375" y="378.259375" width="960.851689" height="106.2575"/>
  </clipPath>
  <clipPath id="pf0542b6a2d">
   <rect x="71.6375" y="552.859375" width="960.851689" height="106.2575"/>
  </clipPath>
 </defs>
</svg>
