<?xml version="1.0" encoding="utf-8" standalone="no"?>
<!DOCTYPE svg PUBLIC "-//W3C//DTD SVG 1.1//EN"
  "http://www.w3.org/Graphics/SVG/1.1/DTD/svg11.dtd">
<svg xmlns:xlink="http://www.w3.org/1999/xlink" width="1050.864218pt" height="690.95375pt" viewBox="0 0 1050.864218 690.95375" xmlns="http://www.w3.org/2000/svg" version="1.1">
 <metadata>
  <rdf:RDF xmlns:dc="http://purl.org/dc/elements/1.1/" xmlns:cc="http://creativecommons.org/ns#" xmlns:rdf="http://www.w3.org/1999/02/22-rdf-syntax-ns#">
   <cc:Work>
    <dc:type rdf:resource="http://purl.org/dc/dcmitype/StillImage"/>
    <dc:date>2024-05-20T22:30:36.138819</dc:date>
    <dc:format>image/svg+xml</dc:format>
    <dc:creator>
     <cc:Agent>
      <dc:title>Matplotlib v3.7.1, https://matplotlib.org/</dc:title>
     </cc:Agent>
    </dc:creator>
   </cc:Work>
  </rdf:RDF>
 </metadata>
 <defs>
  <style type="text/css">*{stroke-linejoin: round; stroke-linecap: butt}</style>
 </defs>
 <g id="figure_1">
  <g id="patch_1">
   <path d="M 0 690.95375 
L 1050.864218 690.95375 
L 1050.864218 0 
L 0 0 
z
" style="fill: #ffffff"/>
  </g>
  <g id="axes_1">
   <g id="patch_2">
    <path d="M 71.6375 134.788125 
L 1031.176099 134.788125 
L 1031.176099 29.059375 
L 71.6375 29.059375 
z
" style="fill: #ffffff"/>
   </g>
   <g id="matplotlib.axis_1">
    <g id="xtick_1">
     <g id="line2d_1">
      <defs>
       <path id="mc69a085180" d="M 0 0 
L 0 3.5 
" style="stroke: #000000; stroke-width: 0.8"/>
      </defs>
      <g>
       <use xlink:href="#mc69a085180" x="115.252891" y="134.788125" style="stroke: #000000; stroke-width: 0.8"/>
      </g>
     </g>
     <g id="text_1">
      <!-- 0 -->
      <g transform="translate(110.252891 155.675625) scale(0.2 -0.2)">
       <defs>
        <path id="TimesNewRomanPSMT-30" d="M 231 2094 
Q 231 2819 450 3342 
Q 669 3866 1031 4122 
Q 1313 4325 1613 4325 
Q 2100 4325 2488 3828 
Q 2972 3213 2972 2159 
Q 2972 1422 2759 906 
Q 2547 391 2217 158 
Q 1888 -75 1581 -75 
Q 975 -75 572 641 
Q 231 1244 231 2094 
z
M 844 2016 
Q 844 1141 1059 588 
Q 1238 122 1591 122 
Q 1759 122 1940 273 
Q 2122 425 2216 781 
Q 2359 1319 2359 2297 
Q 2359 3022 2209 3506 
Q 2097 3866 1919 4016 
Q 1791 4119 1609 4119 
Q 1397 4119 1231 3928 
Q 1006 3669 925 3112 
Q 844 2556 844 2016 
z
" transform="scale(0.015625)"/>
       </defs>
       <use xlink:href="#TimesNewRomanPSMT-30"/>
      </g>
     </g>
    </g>
    <g id="xtick_2">
     <g id="line2d_2">
      <g>
       <use xlink:href="#mc69a085180" x="229.429307" y="134.788125" style="stroke: #000000; stroke-width: 0.8"/>
      </g>
     </g>
     <g id="text_2">
      <!-- 25 -->
      <g transform="translate(219.429307 155.675625) scale(0.2 -0.2)">
       <defs>
        <path id="TimesNewRomanPSMT-32" d="M 2934 816 
L 2638 0 
L 138 0 
L 138 116 
Q 1241 1122 1691 1759 
Q 2141 2397 2141 2925 
Q 2141 3328 1894 3587 
Q 1647 3847 1303 3847 
Q 991 3847 742 3664 
Q 494 3481 375 3128 
L 259 3128 
Q 338 3706 661 4015 
Q 984 4325 1469 4325 
Q 1984 4325 2329 3994 
Q 2675 3663 2675 3213 
Q 2675 2891 2525 2569 
Q 2294 2063 1775 1497 
Q 997 647 803 472 
L 1909 472 
Q 2247 472 2383 497 
Q 2519 522 2628 598 
Q 2738 675 2819 816 
L 2934 816 
z
" transform="scale(0.015625)"/>
        <path id="TimesNewRomanPSMT-35" d="M 2778 4238 
L 2534 3706 
L 1259 3706 
L 981 3138 
Q 1809 3016 2294 2522 
Q 2709 2097 2709 1522 
Q 2709 1188 2573 903 
Q 2438 619 2231 419 
Q 2025 219 1772 97 
Q 1413 -75 1034 -75 
Q 653 -75 479 54 
Q 306 184 306 341 
Q 306 428 378 495 
Q 450 563 559 563 
Q 641 563 702 538 
Q 763 513 909 409 
Q 1144 247 1384 247 
Q 1750 247 2026 523 
Q 2303 800 2303 1197 
Q 2303 1581 2056 1914 
Q 1809 2247 1375 2428 
Q 1034 2569 447 2591 
L 1259 4238 
L 2778 4238 
z
" transform="scale(0.015625)"/>
       </defs>
       <use xlink:href="#TimesNewRomanPSMT-32"/>
       <use xlink:href="#TimesNewRomanPSMT-35" x="50"/>
      </g>
     </g>
    </g>
    <g id="xtick_3">
     <g id="line2d_3">
      <g>
       <use xlink:href="#mc69a085180" x="343.605723" y="134.788125" style="stroke: #000000; stroke-width: 0.8"/>
      </g>
     </g>
     <g id="text_3">
      <!-- 50 -->
      <g transform="translate(333.605723 155.675625) scale(0.2 -0.2)">
       <use xlink:href="#TimesNewRomanPSMT-35"/>
       <use xlink:href="#TimesNewRomanPSMT-30" x="50"/>
      </g>
     </g>
    </g>
    <g id="xtick_4">
     <g id="line2d_4">
      <g>
       <use xlink:href="#mc69a085180" x="457.782139" y="134.788125" style="stroke: #000000; stroke-width: 0.8"/>
      </g>
     </g>
     <g id="text_4">
      <!-- 75 -->
      <g transform="translate(447.782139 155.675625) scale(0.2 -0.2)">
       <defs>
        <path id="TimesNewRomanPSMT-37" d="M 644 4238 
L 2916 4238 
L 2916 4119 
L 1503 -88 
L 1153 -88 
L 2419 3728 
L 1253 3728 
Q 900 3728 750 3644 
Q 488 3500 328 3200 
L 238 3234 
L 644 4238 
z
" transform="scale(0.015625)"/>
       </defs>
       <use xlink:href="#TimesNewRomanPSMT-37"/>
       <use xlink:href="#TimesNewRomanPSMT-35" x="50"/>
      </g>
     </g>
    </g>
    <g id="xtick_5">
     <g id="line2d_5">
      <g>
       <use xlink:href="#mc69a085180" x="571.958555" y="134.788125" style="stroke: #000000; stroke-width: 0.8"/>
      </g>
     </g>
     <g id="text_5">
      <!-- 100 -->
      <g transform="translate(556.958555 155.675625) scale(0.2 -0.2)">
       <defs>
        <path id="TimesNewRomanPSMT-31" d="M 750 3822 
L 1781 4325 
L 1884 4325 
L 1884 747 
Q 1884 391 1914 303 
Q 1944 216 2037 169 
Q 2131 122 2419 116 
L 2419 0 
L 825 0 
L 825 116 
Q 1125 122 1212 167 
Q 1300 213 1334 289 
Q 1369 366 1369 747 
L 1369 3034 
Q 1369 3497 1338 3628 
Q 1316 3728 1258 3775 
Q 1200 3822 1119 3822 
Q 1003 3822 797 3725 
L 750 3822 
z
" transform="scale(0.015625)"/>
       </defs>
       <use xlink:href="#TimesNewRomanPSMT-31"/>
       <use xlink:href="#TimesNewRomanPSMT-30" x="50"/>
       <use xlink:href="#TimesNewRomanPSMT-30" x="100"/>
      </g>
     </g>
    </g>
    <g id="xtick_6">
     <g id="line2d_6">
      <g>
       <use xlink:href="#mc69a085180" x="686.134971" y="134.788125" style="stroke: #000000; stroke-width: 0.8"/>
      </g>
     </g>
     <g id="text_6">
      <!-- 125 -->
      <g transform="translate(671.134971 155.675625) scale(0.2 -0.2)">
       <use xlink:href="#TimesNewRomanPSMT-31"/>
       <use xlink:href="#TimesNewRomanPSMT-32" x="50"/>
       <use xlink:href="#TimesNewRomanPSMT-35" x="100"/>
      </g>
     </g>
    </g>
    <g id="xtick_7">
     <g id="line2d_7">
      <g>
       <use xlink:href="#mc69a085180" x="800.311386" y="134.788125" style="stroke: #000000; stroke-width: 0.8"/>
      </g>
     </g>
     <g id="text_7">
      <!-- 150 -->
      <g transform="translate(785.311386 155.675625) scale(0.2 -0.2)">
       <use xlink:href="#TimesNewRomanPSMT-31"/>
       <use xlink:href="#TimesNewRomanPSMT-35" x="50"/>
       <use xlink:href="#TimesNewRomanPSMT-30" x="100"/>
      </g>
     </g>
    </g>
    <g id="xtick_8">
     <g id="line2d_8">
      <g>
       <use xlink:href="#mc69a085180" x="914.487802" y="134.788125" style="stroke: #000000; stroke-width: 0.8"/>
      </g>
     </g>
     <g id="text_8">
      <!-- 175 -->
      <g transform="translate(899.487802 155.675625) scale(0.2 -0.2)">
       <use xlink:href="#TimesNewRomanPSMT-31"/>
       <use xlink:href="#TimesNewRomanPSMT-37" x="50"/>
       <use xlink:href="#TimesNewRomanPSMT-35" x="100"/>
      </g>
     </g>
    </g>
    <g id="xtick_9">
     <g id="line2d_9">
      <g>
       <use xlink:href="#mc69a085180" x="1028.664218" y="134.788125" style="stroke: #000000; stroke-width: 0.8"/>
      </g>
     </g>
     <g id="text_9">
      <!-- 200 -->
      <g transform="translate(1013.664218 155.675625) scale(0.2 -0.2)">
       <use xlink:href="#TimesNewRomanPSMT-32"/>
       <use xlink:href="#TimesNewRomanPSMT-30" x="50"/>
       <use xlink:href="#TimesNewRomanPSMT-30" x="100"/>
      </g>
     </g>
    </g>
   </g>
   <g id="matplotlib.axis_2">
    <g id="ytick_1">
     <g id="line2d_10">
      <defs>
       <path id="m7b5e4a3be2" d="M 0 0 
L -3.5 0 
" style="stroke: #000000; stroke-width: 0.8"/>
      </defs>
      <g>
       <use xlink:href="#m7b5e4a3be2" x="71.6375" y="108.142141" style="stroke: #000000; stroke-width: 0.8"/>
      </g>
     </g>
     <g id="text_10">
      <!-- 1.0 -->
      <g transform="translate(39.6375 115.085891) scale(0.2 -0.2)">
       <defs>
        <path id="TimesNewRomanPSMT-2e" d="M 800 606 
Q 947 606 1047 504 
Q 1147 403 1147 259 
Q 1147 116 1045 14 
Q 944 -88 800 -88 
Q 656 -88 554 14 
Q 453 116 453 259 
Q 453 406 554 506 
Q 656 606 800 606 
z
" transform="scale(0.015625)"/>
       </defs>
       <use xlink:href="#TimesNewRomanPSMT-31"/>
       <use xlink:href="#TimesNewRomanPSMT-2e" x="50"/>
       <use xlink:href="#TimesNewRomanPSMT-30" x="75"/>
      </g>
     </g>
    </g>
    <g id="ytick_2">
     <g id="line2d_11">
      <g>
       <use xlink:href="#m7b5e4a3be2" x="71.6375" y="71.595734" style="stroke: #000000; stroke-width: 0.8"/>
      </g>
     </g>
     <g id="text_11">
      <!-- 2.0 -->
      <g transform="translate(39.6375 78.539484) scale(0.2 -0.2)">
       <use xlink:href="#TimesNewRomanPSMT-32"/>
       <use xlink:href="#TimesNewRomanPSMT-2e" x="50"/>
       <use xlink:href="#TimesNewRomanPSMT-30" x="75"/>
      </g>
     </g>
    </g>
    <g id="ytick_3">
     <g id="line2d_12">
      <g>
       <use xlink:href="#m7b5e4a3be2" x="71.6375" y="35.049327" style="stroke: #000000; stroke-width: 0.8"/>
      </g>
     </g>
     <g id="text_12">
      <!-- 3.0 -->
      <g transform="translate(39.6375 41.993077) scale(0.2 -0.2)">
       <defs>
        <path id="TimesNewRomanPSMT-33" d="M 325 3431 
Q 506 3859 782 4092 
Q 1059 4325 1472 4325 
Q 1981 4325 2253 3994 
Q 2459 3747 2459 3466 
Q 2459 3003 1878 2509 
Q 2269 2356 2469 2072 
Q 2669 1788 2669 1403 
Q 2669 853 2319 450 
Q 1863 -75 997 -75 
Q 569 -75 414 31 
Q 259 138 259 259 
Q 259 350 332 419 
Q 406 488 509 488 
Q 588 488 669 463 
Q 722 447 909 348 
Q 1097 250 1169 231 
Q 1284 197 1416 197 
Q 1734 197 1970 444 
Q 2206 691 2206 1028 
Q 2206 1275 2097 1509 
Q 2016 1684 1919 1775 
Q 1784 1900 1550 2001 
Q 1316 2103 1072 2103 
L 972 2103 
L 972 2197 
Q 1219 2228 1467 2375 
Q 1716 2522 1828 2728 
Q 1941 2934 1941 3181 
Q 1941 3503 1739 3701 
Q 1538 3900 1238 3900 
Q 753 3900 428 3381 
L 325 3431 
z
" transform="scale(0.015625)"/>
       </defs>
       <use xlink:href="#TimesNewRomanPSMT-33"/>
       <use xlink:href="#TimesNewRomanPSMT-2e" x="50"/>
       <use xlink:href="#TimesNewRomanPSMT-30" x="75"/>
      </g>
     </g>
    </g>
    <g id="text_13">
     <!-- CPU使用率 -->
     <g transform="translate(33.059375 126.92375) rotate(-90) scale(0.2 -0.2)">
      <defs>
       <path id="SimSun-43" d="M 1725 50 
Q 1025 50 612 575 
Q 200 1100 200 2225 
Q 200 3175 637 3800 
Q 1075 4425 1825 4425 
Q 2000 4425 2175 4375 
Q 2350 4300 2475 4300 
Q 2575 4300 2637 4325 
Q 2700 4350 2750 4425 
L 2975 3325 
L 2825 3275 
Q 2675 3750 2425 4000 
Q 2175 4250 1775 4250 
Q 1250 4250 962 3675 
Q 675 3100 675 2250 
Q 675 1325 925 800 
Q 1175 275 1750 275 
Q 2150 275 2437 562 
Q 2725 850 2825 1325 
L 2975 1250 
Q 2850 725 2512 387 
Q 2175 50 1725 50 
z
" transform="scale(0.015625)"/>
       <path id="SimSun-50" d="M 950 2100 
L 950 450 
Q 950 350 1012 300 
Q 1075 250 1175 250 
L 1350 250 
L 1350 100 
L 150 100 
L 150 250 
L 325 250 
Q 450 250 500 300 
Q 550 350 550 450 
L 550 4025 
Q 550 4125 500 4175 
Q 450 4225 325 4225 
L 175 4225 
L 175 4375 
L 1650 4375 
Q 2275 4375 2612 4062 
Q 2950 3750 2950 3275 
Q 2950 2700 2587 2400 
Q 2225 2100 1725 2100 
L 950 2100 
z
M 1575 2250 
Q 1950 2250 2237 2475 
Q 2525 2700 2525 3250 
Q 2525 3750 2287 3987 
Q 2050 4225 1525 4225 
L 1175 4225 
Q 1075 4225 1012 4175 
Q 950 4125 950 4025 
L 950 2250 
L 1575 2250 
z
" transform="scale(0.015625)"/>
       <path id="SimSun-55" d="M 1625 250 
Q 2000 250 2262 500 
Q 2525 750 2525 1125 
L 2525 4025 
Q 2525 4125 2475 4175 
Q 2425 4225 2300 4225 
L 2150 4225 
L 2150 4375 
L 3050 4375 
L 3050 4225 
L 2900 4225 
Q 2800 4225 2737 4175 
Q 2675 4125 2675 4025 
L 2675 1125 
Q 2675 625 2337 337 
Q 2000 50 1575 50 
Q 1125 50 787 300 
Q 450 550 450 1100 
L 450 4025 
Q 450 4125 400 4175 
Q 350 4225 225 4225 
L 100 4225 
L 100 4375 
L 1200 4375 
L 1200 4225 
L 1075 4225 
Q 975 4225 912 4175 
Q 850 4125 850 4025 
L 850 1100 
Q 850 600 1062 425 
Q 1275 250 1625 250 
z
" transform="scale(0.015625)"/>
       <path id="SimSun-4f7f" d="M 2875 3150 
L 2875 2100 
L 3825 2100 
Q 3850 2825 3850 3150 
L 2875 3150 
z
M 4175 3150 
Q 4175 2800 4150 2100 
L 5150 2100 
L 5150 3150 
L 4175 3150 
z
M 5475 3100 
L 5475 2425 
Q 5475 2100 5500 1800 
L 5150 1675 
L 5150 1950 
L 4150 1950 
Q 4125 1175 3875 600 
Q 4275 275 4875 75 
Q 5475 -125 6075 -150 
L 6075 -250 
Q 5700 -300 5600 -575 
Q 4525 -325 3725 350 
Q 3425 25 2925 -225 
Q 2425 -475 1875 -650 
L 1825 -550 
Q 2400 -325 2850 -25 
Q 3300 275 3500 575 
Q 3200 925 2825 1650 
L 2900 1700 
Q 3325 1100 3625 825 
Q 3800 1300 3825 1950 
L 2875 1950 
L 2875 1825 
L 2525 1675 
Q 2550 2075 2550 2562 
Q 2550 3050 2525 3500 
L 2875 3300 
L 3850 3300 
L 3850 4025 
L 2975 4025 
Q 2650 4025 2375 3950 
L 2150 4175 
L 3850 4175 
L 3850 4525 
Q 3850 4775 3825 5225 
L 4350 5000 
L 4175 4825 
L 4175 4175 
L 5300 4175 
L 5600 4475 
L 6050 4025 
L 4175 4025 
L 4175 3300 
L 5100 3300 
L 5275 3525 
L 5650 3225 
L 5475 3100 
z
M 1675 3175 
L 1675 -450 
L 1325 -625 
Q 1350 -75 1350 350 
L 1350 3200 
Q 900 2475 350 1900 
L 275 1950 
Q 700 2525 1112 3400 
Q 1525 4275 1800 5250 
L 2325 4925 
L 2125 4800 
Q 1725 3925 1500 3525 
L 1875 3325 
L 1675 3175 
z
" transform="scale(0.015625)"/>
       <path id="SimSun-7528" d="M 3400 3150 
L 3400 1825 
L 5075 1825 
L 5075 3150 
L 3400 3150 
z
M 4075 100 
Q 4725 50 4900 62 
Q 5075 75 5075 400 
L 5075 1675 
L 3400 1675 
Q 3400 75 3425 -225 
L 3050 -400 
Q 3075 1025 3075 1675 
L 1425 1675 
Q 1250 350 375 -600 
L 300 -550 
Q 775 225 950 1025 
Q 1125 1825 1125 3225 
Q 1125 4625 1100 5075 
L 1475 4825 
L 5050 4825 
L 5225 5100 
L 5625 4800 
L 5425 4600 
L 5425 225 
Q 5450 -400 4875 -575 
Q 4825 -150 4075 -25 
L 4075 100 
z
M 1475 4675 
L 1475 3300 
L 3075 3300 
L 3075 4675 
L 1475 4675 
z
M 3400 4675 
L 3400 3300 
L 5075 3300 
L 5075 4675 
L 3400 4675 
z
M 1475 3150 
Q 1450 2100 1425 1825 
L 3075 1825 
L 3075 3150 
L 1475 3150 
z
" transform="scale(0.015625)"/>
       <path id="SimSun-7387" d="M 875 3725 
L 925 3800 
Q 1375 3650 1550 3525 
Q 1725 3400 1725 3250 
Q 1725 3175 1662 3025 
Q 1600 2875 1550 2875 
Q 1500 2875 1425 3050 
Q 1275 3325 875 3725 
z
M 550 1850 
Q 875 1925 2000 2575 
L 2050 2500 
Q 1675 2225 1337 1937 
Q 1000 1650 875 1425 
L 550 1850 
z
M 5200 3450 
Q 4800 3150 4275 2800 
L 4225 2875 
Q 4775 3400 5050 3925 
L 5450 3525 
L 5200 3450 
z
M 4325 2500 
L 4350 2575 
Q 5225 2350 5375 2212 
Q 5525 2075 5525 1900 
Q 5525 1775 5487 1662 
Q 5450 1550 5400 1550 
Q 5325 1550 5200 1800 
Q 4975 2150 4325 2500 
z
M 3150 3900 
Q 2500 3300 2300 3150 
Q 2800 3150 3400 3175 
Q 3700 3500 3850 3825 
L 4250 3450 
Q 4050 3400 3450 2825 
Q 2850 2250 2475 1950 
Q 3150 1975 3850 2000 
Q 3750 2175 3550 2450 
L 3600 2500 
Q 4050 2250 4200 2100 
Q 4350 1950 4350 1850 
Q 4350 1775 4250 1625 
Q 4150 1475 4100 1475 
Q 4075 1475 4050 1550 
Q 4000 1700 3900 1900 
Q 3650 1875 3075 1800 
L 3500 1550 
L 3325 1425 
L 3325 975 
L 5325 975 
L 5650 1300 
L 6100 825 
L 3325 825 
Q 3325 -275 3350 -525 
L 2975 -650 
Q 3000 0 3000 825 
L 1125 825 
Q 800 825 525 750 
L 300 975 
L 3000 975 
L 3000 1775 
Q 2450 1700 2200 1525 
L 1950 1950 
Q 2275 1950 2675 2350 
Q 3075 2750 3325 3050 
Q 2400 2950 2150 2775 
L 1950 3175 
Q 2150 3150 2475 3575 
Q 2800 4000 2900 4225 
L 1450 4225 
Q 1125 4225 850 4150 
L 625 4375 
L 3100 4375 
Q 3050 4800 2675 5200 
L 2725 5250 
Q 3225 5050 3337 4912 
Q 3450 4775 3450 4700 
Q 3450 4550 3250 4375 
L 5025 4375 
L 5350 4675 
L 5775 4225 
L 3050 4225 
L 3375 3950 
L 3150 3900 
z
" transform="scale(0.015625)"/>
      </defs>
      <use xlink:href="#SimSun-43"/>
      <use xlink:href="#SimSun-50" x="50"/>
      <use xlink:href="#SimSun-55" x="100"/>
      <use xlink:href="#SimSun-4f7f" x="150"/>
      <use xlink:href="#SimSun-7528" x="250"/>
      <use xlink:href="#SimSun-7387" x="350"/>
     </g>
    </g>
   </g>
   <g id="line2d_13">
    <path d="M 115.252891 129.982273 
L 119.819948 129.850706 
L 124.387004 128.608126 
L 128.954061 120.370567 
L 133.521117 120.260927 
L 138.088174 129.967654 
L 142.655231 129.105159 
L 147.222287 129.222108 
L 151.789344 121.16728 
L 156.356401 118.163166 
L 160.923457 117.870794 
L 165.490514 119.011042 
L 170.057571 112.081844 
L 174.624627 103.946614 
L 179.191684 105.832408 
L 183.75874 106.651048 
L 188.325797 108.405275 
L 192.892854 108.873068 
L 197.45991 112.264575 
L 202.026967 112.878555 
L 206.594024 110.130266 
L 211.16108 114.428122 
L 215.728137 111.036617 
L 220.295194 111.91373 
L 224.86225 106.066304 
L 229.429307 97.543684 
L 233.996363 87.566515 
L 238.56342 82.19419 
L 243.130477 56.121988 
L 247.697533 80.001408 
L 252.26459 85.88538 
L 256.831647 89.466925 
L 261.398703 78.174085 
L 265.96576 80.915067 
L 270.532817 73.349965 
L 275.099873 80.951615 
L 279.66693 70.974446 
L 284.233986 58.833728 
L 288.801043 52.986309 
L 293.3681 57.678862 
L 297.935156 64.213363 
L 302.502213 63.599377 
L 307.06927 65.667908 
L 311.636326 70.945213 
L 316.203383 51.8022 
L 320.77044 67.370974 
L 325.337496 61.845155 
L 329.904553 62.152144 
L 334.471609 64.476497 
L 339.038666 59.783936 
L 343.605723 60.70491 
L 348.172779 67.824146 
L 352.739836 74.300168 
L 357.306893 70.974446 
L 361.873949 62.203308 
L 366.441006 57.371873 
L 371.008063 56.231628 
L 375.575119 57.371873 
L 380.142176 60.310204 
L 384.709232 59.740081 
L 389.276289 114.603546 
L 393.843346 57.108739 
L 398.410402 56.494762 
L 402.977459 63.906375 
L 407.544516 69.695319 
L 412.111572 66.186865 
L 416.678629 68.862062 
L 421.245686 84.642801 
L 425.812742 82.157647 
L 430.379799 80.732335 
L 434.946855 80.366872 
L 439.513912 83.473318 
L 444.080969 81.755635 
L 448.648025 76.785326 
L 453.215082 62.722266 
L 457.782139 65.134329 
L 462.349195 74.928766 
L 466.916252 82.230738 
L 471.483309 80.439964 
L 476.050365 80.915067 
L 480.617422 76.054395 
L 485.184478 88.626358 
L 489.751535 89.649657 
L 494.318592 88.662906 
L 498.885648 80.111048 
L 503.452705 66.822774 
L 508.019762 73.423052 
L 512.586818 84.167697 
L 517.153875 80.111048 
L 521.720932 82.450018 
L 526.287988 87.164503 
L 530.855045 86.214296 
L 535.422102 85.6661 
L 539.989158 86.945227 
L 544.556215 88.991822 
L 549.123271 87.749247 
L 553.690328 79.928316 
L 558.257385 69.82689 
L 562.824441 72.063527 
L 567.391498 71.23027 
L 571.958555 72.195094 
L 576.525611 71.186416 
L 581.092668 66.932414 
L 585.659725 65.04662 
L 590.226781 60.968035 
L 594.793838 64.301072 
L 599.360894 57.196448 
L 603.927951 59.38923 
L 608.495008 60.573338 
L 613.062064 57.766579 
L 617.629121 65.529034 
L 622.196178 71.361842 
L 626.763234 81.748329 
L 631.330291 84.094605 
L 635.897348 80.586152 
L 640.464404 75.718169 
L 645.031461 80.834665 
L 649.598517 88.991822 
L 654.165574 85.373728 
L 658.732631 86.652856 
L 663.299687 82.011463 
L 667.866744 82.815482 
L 672.433801 69.16905 
L 677.000857 75.579291 
L 681.567914 77.187334 
L 686.134971 79.233932 
L 690.702027 78.100998 
L 695.269084 82.486562 
L 699.83614 79.635944 
L 704.403197 82.19419 
L 708.970254 83.290586 
L 713.53731 80.659244 
L 718.104367 84.679349 
L 722.671424 82.30383 
L 727.23848 83.32713 
L 731.805537 82.925118 
L 736.372594 69.205603 
L 740.93965 67.765671 
L 745.506707 61.011898 
L 750.073763 65.529034 
L 754.64082 54.433543 
L 759.207877 52.920523 
L 763.774933 33.865227 
L 768.34199 36.269979 
L 772.909047 50.647334 
L 777.476103 46.707631 
L 782.04316 60.617192 
L 786.610217 51.58292 
L 791.177273 46.627233 
L 795.74433 59.783936 
L 800.311386 59.038387 
L 804.878443 63.292389 
L 809.4455 66.186865 
L 814.012556 64.651914 
L 818.579613 64.520352 
L 823.14667 68.116514 
L 827.713726 61.625875 
L 832.280783 59.038387 
L 836.84784 59.169959 
L 841.414896 55.741903 
L 845.981953 49.163547 
L 850.549009 48.447241 
L 855.116066 63.730949 
L 859.683123 59.652373 
L 864.250179 63.86252 
L 868.817236 67.283257 
L 873.384293 64.695769 
L 877.951349 68.467365 
L 882.518406 54.389688 
L 887.085463 69.666086 
L 891.652519 66.318437 
L 896.219576 68.277318 
L 900.786632 69.402951 
L 905.353689 70.206975 
L 909.920746 76.090943 
L 919.054859 74.848363 
L 923.621916 71.55919 
L 928.188972 71.376454 
L 932.756029 78.685737 
L 937.323086 79.928316 
L 941.890142 86.535905 
L 946.457199 86.769802 
L 951.024255 86.59438 
L 955.591312 85.951161 
L 960.158369 89.722753 
L 964.725425 90.629102 
L 969.292482 88.290132 
L 978.426595 98.69855 
L 982.993652 97.470588 
L 987.560709 93.114256 
L 987.560709 93.114256 
" clip-path="url(#p516fda4ac0)" style="fill: none; stroke: #1f77b4; stroke-width: 1.5; stroke-linecap: square"/>
   </g>
   <g id="line2d_14">
    <path d="M 772.909047 47.470467 
L 777.476103 48.886751 
L 782.04316 46.322031 
L 786.610217 46.081264 
L 791.177273 46.989769 
L 795.74433 49.208996 
L 800.311386 49.222267 
L 804.878443 47.271959 
L 809.4455 42.846078 
L 814.012556 43.181298 
L 818.579613 42.142981 
L 823.14667 43.521536 
L 827.713726 40.982433 
L 832.280783 36.947136 
L 836.84784 37.72482 
L 841.414896 38.150745 
L 845.981953 38.603464 
L 850.549009 39.234127 
L 855.116066 41.449704 
L 859.683123 41.183145 
L 864.250179 39.666353 
L 868.817236 38.604597 
L 873.384293 40.56611 
L 877.951349 40.237504 
L 882.518406 41.089695 
L 887.085463 41.011414 
L 891.652519 39.572658 
L 896.219576 41.789333 
L 900.786632 37.160666 
L 905.353689 43.153746 
L 909.920746 43.558246 
L 914.487802 43.5677 
L 919.054859 41.571787 
L 923.621916 43.766974 
L 928.188972 42.255026 
L 932.756029 44.615052 
L 937.323086 43.849184 
L 941.890142 43.766521 
L 946.457199 41.977602 
L 951.024255 45.340386 
L 955.591312 48.205559 
L 960.158369 49.529456 
L 964.725425 51.201468 
L 969.292482 51.74748 
L 973.859539 47.546621 
L 978.426595 52.193473 
L 982.993652 51.803864 
L 987.560709 52.818202 
" clip-path="url(#p516fda4ac0)" style="fill: none; stroke: #ff7f0e; stroke-width: 1.5; stroke-linecap: square"/>
   </g>
   <g id="line2d_15">
    <path d="M 772.909047 134.788125 
L 772.909047 29.059375 
" clip-path="url(#p516fda4ac0)" style="fill: none; stroke-dasharray: 7.4,3.2; stroke-dashoffset: 0; stroke: #0000ff; stroke-width: 2"/>
   </g>
   <g id="patch_3">
    <path d="M 71.6375 134.788125 
L 71.6375 29.059375 
" style="fill: none; stroke: #000000; stroke-width: 0.8; stroke-linejoin: miter; stroke-linecap: square"/>
   </g>
   <g id="patch_4">
    <path d="M 1031.176099 134.788125 
L 1031.176099 29.059375 
" style="fill: none; stroke: #000000; stroke-width: 0.8; stroke-linejoin: miter; stroke-linecap: square"/>
   </g>
   <g id="patch_5">
    <path d="M 71.6375 134.788125 
L 1031.176099 134.788125 
" style="fill: none; stroke: #000000; stroke-width: 0.8; stroke-linejoin: miter; stroke-linecap: square"/>
   </g>
   <g id="patch_6">
    <path d="M 71.6375 29.059375 
L 1031.176099 29.059375 
" style="fill: none; stroke: #000000; stroke-width: 0.8; stroke-linejoin: miter; stroke-linecap: square"/>
   </g>
   <g id="text_14">
    <!-- 云函数ID: 28 -->
    <g transform="translate(491.4068 23.059375) scale(0.2 -0.2)">
     <defs>
      <path id="SimSun-4e91" d="M 1200 4450 
L 4500 4450 
L 4850 4800 
L 5350 4300 
L 1975 4300 
Q 1700 4300 1425 4225 
L 1200 4450 
z
M 1600 275 
Q 2300 300 4725 450 
Q 4425 975 3850 1700 
L 3925 1775 
Q 5200 725 5287 500 
Q 5375 275 5375 175 
Q 5375 0 5250 -162 
Q 5125 -325 5075 -325 
Q 5025 -325 4975 -200 
Q 4875 50 4775 300 
Q 1650 -25 1300 -300 
L 975 300 
Q 1225 350 1462 550 
Q 1700 750 2150 1462 
Q 2600 2175 2725 2600 
L 1250 2600 
Q 925 2600 650 2525 
L 425 2750 
L 5025 2750 
L 5450 3175 
L 6025 2600 
L 3250 2600 
Q 3000 2025 2500 1375 
Q 2000 725 1600 275 
z
" transform="scale(0.015625)"/>
      <path id="SimSun-51fd" d="M 3050 2275 
L 3050 3000 
Q 3050 3450 3025 3800 
L 3275 3625 
L 4450 4475 
L 1650 4475 
Q 1325 4475 1050 4400 
L 825 4625 
L 4450 4625 
L 4775 4875 
L 5150 4375 
Q 4875 4325 4550 4175 
Q 4225 4025 3400 3550 
L 3550 3450 
L 3375 3325 
L 3375 2400 
Q 4250 3225 4475 3600 
L 4875 3150 
L 4625 3125 
Q 3625 2425 3400 2275 
Q 4575 1675 4687 1487 
Q 4800 1300 4800 1150 
Q 4800 1025 4750 925 
Q 4700 825 4675 825 
Q 4575 825 4375 1150 
Q 4075 1600 3375 2150 
L 3375 725 
Q 3375 350 2875 150 
Q 2850 450 2200 650 
L 2200 750 
Q 2800 675 2925 700 
Q 3050 725 3050 850 
L 3050 2100 
Q 1850 1300 1625 1025 
L 1275 1400 
Q 1575 1475 2087 1725 
Q 2600 1975 3050 2275 
z
M 1700 3475 
L 1775 3550 
Q 2350 3200 2475 3025 
Q 2600 2850 2600 2775 
Q 2600 2650 2500 2525 
Q 2400 2400 2350 2400 
Q 2275 2400 2225 2575 
Q 2150 2875 1700 3475 
z
M 5150 0 
L 5150 2175 
Q 5150 2725 5125 3325 
L 5725 3050 
L 5500 2850 
L 5500 525 
Q 5500 100 5525 -400 
L 5150 -600 
L 5150 -150 
L 1250 -150 
L 1000 -375 
L 675 -50 
L 875 125 
L 875 2375 
Q 875 2800 850 3425 
L 1450 3150 
L 1225 2975 
L 1225 0 
L 5150 0 
z
" transform="scale(0.015625)"/>
      <path id="SimSun-6570" d="M 1875 1525 
Q 1675 1200 1500 900 
Q 1825 825 2275 725 
Q 2500 975 2725 1525 
L 1875 1525 
z
M 850 4900 
Q 1325 4600 1425 4450 
Q 1525 4300 1525 4225 
Q 1525 4100 1437 3975 
Q 1350 3850 1300 3850 
Q 1225 3850 1150 4100 
Q 1050 4450 775 4850 
L 850 4900 
z
M 3000 4975 
L 3450 4675 
Q 3250 4625 3100 4425 
Q 2925 4225 2525 3825 
L 2450 3875 
Q 2925 4625 3000 4975 
z
M 1875 5250 
L 2425 5000 
L 2225 4825 
L 2225 3675 
L 2850 3675 
L 3125 3950 
L 3550 3525 
L 2225 3525 
L 2225 3300 
Q 2800 3175 2937 3062 
Q 3075 2950 3075 2775 
Q 3075 2700 3050 2587 
Q 3025 2475 2975 2475 
Q 2925 2475 2800 2650 
Q 2600 2925 2225 3175 
L 2225 2400 
L 1925 2200 
L 2275 2050 
Q 2150 2000 1950 1675 
L 2725 1675 
L 2900 1900 
L 3275 1575 
L 3050 1450 
Q 2800 875 2600 650 
Q 3000 550 3137 437 
Q 3275 325 3275 150 
Q 3275 -25 3200 -25 
Q 3125 -25 3025 75 
Q 2750 275 2400 425 
Q 1525 -275 325 -500 
L 300 -425 
Q 1450 -50 2100 550 
Q 1600 725 1125 800 
Q 1225 950 1525 1525 
L 1200 1525 
Q 875 1525 600 1450 
L 375 1675 
L 1575 1675 
Q 1675 1925 1775 2275 
L 1900 2225 
L 1900 3250 
Q 1225 2475 350 2050 
L 300 2125 
Q 1225 2775 1700 3525 
L 1250 3525 
Q 925 3525 650 3450 
L 425 3675 
L 1900 3675 
Q 1900 4575 1875 5250 
z
M 3925 3525 
Q 4050 2075 4525 1100 
Q 4925 1950 5025 3525 
L 3925 3525 
z
M 4050 5250 
L 4625 4925 
Q 4425 4850 4325 4625 
Q 4225 4400 3950 3675 
L 5375 3675 
L 5675 3975 
L 6125 3525 
L 5400 3525 
Q 5250 1675 4750 775 
Q 5325 75 6100 -100 
L 6100 -200 
Q 5625 -275 5600 -500 
Q 4950 -50 4525 525 
Q 3700 -275 2550 -650 
L 2500 -575 
Q 3650 -50 4325 800 
Q 3850 1975 3825 3375 
Q 3575 2725 3100 2150 
L 3025 2200 
Q 3625 3200 4050 5250 
z
" transform="scale(0.015625)"/>
      <path id="SimSun-49" d="M 600 4225 
L 600 4375 
L 2600 4375 
L 2600 4225 
L 2025 4225 
Q 1925 4225 1862 4175 
Q 1800 4125 1800 4025 
L 1800 450 
Q 1800 350 1862 300 
Q 1925 250 2025 250 
L 2600 250 
L 2600 100 
L 600 100 
L 600 250 
L 1175 250 
Q 1300 250 1350 300 
Q 1400 350 1400 450 
L 1400 4025 
Q 1400 4125 1350 4175 
Q 1300 4225 1175 4225 
L 600 4225 
z
" transform="scale(0.015625)"/>
      <path id="SimSun-44" d="M 2500 2275 
Q 2500 3350 2175 3787 
Q 1850 4225 1275 4225 
Q 1100 4225 1012 4175 
Q 925 4125 925 4025 
L 925 450 
Q 925 350 1000 300 
Q 1075 250 1200 250 
Q 1750 250 2125 662 
Q 2500 1075 2500 2275 
z
M 525 4025 
Q 525 4125 475 4175 
Q 425 4225 300 4225 
L 150 4225 
L 150 4375 
L 1275 4375 
Q 2050 4375 2512 3875 
Q 2975 3375 2975 2325 
Q 2975 1175 2525 637 
Q 2075 100 1200 100 
L 125 100 
L 125 250 
L 300 250 
Q 425 250 475 300 
Q 525 350 525 450 
L 525 4025 
z
" transform="scale(0.015625)"/>
      <path id="SimSun-3a" d="M 1900 2725 
Q 1900 2575 1800 2475 
Q 1700 2375 1550 2375 
Q 1400 2375 1300 2475 
Q 1200 2575 1200 2725 
Q 1200 2875 1300 2975 
Q 1400 3075 1550 3075 
Q 1700 3075 1800 2975 
Q 1900 2875 1900 2725 
z
M 1900 375 
Q 1900 225 1800 125 
Q 1700 25 1550 25 
Q 1400 25 1300 125 
Q 1200 225 1200 375 
Q 1200 525 1300 625 
Q 1400 725 1550 725 
Q 1700 725 1800 625 
Q 1900 525 1900 375 
z
" transform="scale(0.015625)"/>
      <path id="SimSun-20" d="M 0 0 
Q 0 0 0 0 
z
" transform="scale(0.015625)"/>
      <path id="SimSun-32" d="M 2325 3325 
Q 2325 3775 2125 4012 
Q 1925 4250 1525 4250 
Q 1225 4250 1012 4087 
Q 800 3925 800 3675 
Q 800 3525 900 3425 
Q 975 3325 975 3225 
Q 975 3100 912 3037 
Q 850 2975 725 2975 
Q 575 2975 487 3062 
Q 400 3150 400 3350 
Q 400 3875 775 4150 
Q 1150 4425 1575 4425 
Q 2175 4425 2462 4125 
Q 2750 3825 2750 3375 
Q 2750 3075 2612 2775 
Q 2475 2475 2175 2200 
Q 1450 1500 1062 1062 
Q 675 625 600 475 
L 2075 475 
Q 2300 475 2450 650 
Q 2600 825 2650 1175 
L 2800 1175 
L 2650 100 
L 325 100 
L 325 425 
Q 450 650 737 1000 
Q 1025 1350 1500 1825 
Q 1925 2250 2125 2625 
Q 2325 3000 2325 3325 
z
" transform="scale(0.015625)"/>
      <path id="SimSun-38" d="M 625 1125 
Q 625 725 887 475 
Q 1150 225 1550 225 
Q 2025 225 2237 475 
Q 2450 725 2450 1100 
Q 2450 1425 2150 1725 
Q 1850 2025 1250 2275 
Q 950 2075 787 1775 
Q 625 1475 625 1125 
z
M 2825 1175 
Q 2825 700 2475 375 
Q 2125 50 1550 50 
Q 1025 50 650 375 
Q 275 700 275 1125 
Q 275 1550 487 1850 
Q 700 2150 1100 2375 
Q 750 2550 562 2812 
Q 375 3075 375 3400 
Q 375 3825 700 4125 
Q 1025 4425 1600 4425 
Q 2125 4425 2450 4125 
Q 2775 3825 2775 3400 
Q 2775 3100 2587 2837 
Q 2400 2575 2000 2375 
Q 2425 2125 2625 1825 
Q 2825 1525 2825 1175 
z
M 2425 3375 
Q 2425 3725 2225 3987 
Q 2025 4250 1600 4250 
Q 1125 4250 925 4000 
Q 725 3750 725 3475 
Q 725 3200 1012 2937 
Q 1300 2675 1825 2475 
Q 2125 2625 2275 2850 
Q 2425 3075 2425 3375 
z
" transform="scale(0.015625)"/>
     </defs>
     <use xlink:href="#SimSun-4e91"/>
     <use xlink:href="#SimSun-51fd" x="100"/>
     <use xlink:href="#SimSun-6570" x="200"/>
     <use xlink:href="#SimSun-49" x="300"/>
     <use xlink:href="#SimSun-44" x="350"/>
     <use xlink:href="#SimSun-3a" x="400"/>
     <use xlink:href="#SimSun-20" x="450"/>
     <use xlink:href="#SimSun-32" x="500"/>
     <use xlink:href="#SimSun-38" x="550"/>
    </g>
   </g>
   <g id="legend_1">
    <g id="patch_7">
     <path d="M 85.6375 101.934375 
L 209.6375 101.934375 
Q 213.6375 101.934375 213.6375 97.934375 
L 213.6375 43.059375 
Q 213.6375 39.059375 209.6375 39.059375 
L 85.6375 39.059375 
Q 81.6375 39.059375 81.6375 43.059375 
L 81.6375 97.934375 
Q 81.6375 101.934375 85.6375 101.934375 
z
" style="fill: #ffffff; opacity: 0.8; stroke: #cccccc; stroke-linejoin: miter"/>
    </g>
    <g id="line2d_16">
     <path d="M 89.6375 55.996875 
L 109.6375 55.996875 
L 129.6375 55.996875 
" style="fill: none; stroke: #1f77b4; stroke-width: 1.5; stroke-linecap: square"/>
    </g>
    <g id="text_15">
     <!-- 真实值 -->
     <g transform="translate(145.6375 62.996875) scale(0.2 -0.2)">
      <defs>
       <path id="SimSun-771f" d="M 2050 3450 
L 2050 2900 
L 4300 2900 
L 4300 3450 
L 2050 3450 
z
M 2050 2750 
L 2050 2225 
L 4300 2225 
L 4300 2750 
L 2050 2750 
z
M 2050 2075 
L 2050 1550 
L 4300 1550 
L 4300 2075 
L 2050 2075 
z
M 2050 1400 
L 2050 875 
L 4300 875 
L 4300 1400 
L 2050 1400 
z
M 2875 3600 
L 2925 4325 
L 1525 4325 
Q 1200 4325 925 4250 
L 700 4475 
L 2950 4475 
Q 2975 4825 2975 5275 
L 3550 5025 
L 3375 4925 
L 3300 4475 
L 5000 4475 
L 5325 4825 
L 5775 4325 
L 3275 4325 
L 3200 3600 
L 4275 3600 
L 4450 3875 
L 4850 3575 
L 4650 3375 
L 4650 875 
L 5300 875 
L 5675 1225 
L 6125 725 
L 1150 725 
Q 825 725 550 650 
L 325 875 
L 1700 875 
Q 1700 3200 1675 3775 
L 2050 3600 
L 2875 3600 
z
M 2425 725 
L 2825 350 
L 2575 300 
Q 1500 -425 800 -650 
L 775 -575 
Q 1950 125 2425 725 
z
M 3800 700 
Q 4575 375 4962 200 
Q 5350 25 5400 -112 
Q 5450 -250 5450 -325 
Q 5450 -400 5400 -525 
Q 5350 -650 5325 -650 
Q 5250 -650 5100 -450 
Q 4875 -150 3750 625 
L 3800 700 
z
" transform="scale(0.015625)"/>
       <path id="SimSun-5b9e" d="M 1950 3625 
Q 2575 3400 2700 3250 
Q 2825 3100 2825 2975 
Q 2825 2850 2750 2700 
Q 2675 2550 2625 2550 
Q 2550 2550 2450 2800 
Q 2275 3175 1900 3550 
L 1950 3625 
z
M 3575 1325 
Q 3500 1100 3425 925 
Q 4650 550 5087 325 
Q 5525 100 5512 -225 
Q 5500 -550 5400 -550 
Q 5300 -550 5075 -300 
Q 4625 175 3375 800 
Q 3025 175 2300 -150 
Q 1575 -475 425 -625 
L 425 -525 
Q 1475 -325 2200 100 
Q 2925 525 3200 1325 
L 1225 1325 
Q 900 1325 625 1250 
L 400 1475 
L 3225 1475 
Q 3325 1950 3375 2575 
Q 3425 3200 3425 3700 
L 4050 3400 
L 3850 3225 
Q 3750 2300 3625 1475 
L 5175 1475 
L 5550 1850 
L 6075 1325 
L 3575 1325 
z
M 1275 2700 
Q 1975 2425 2100 2262 
Q 2225 2100 2225 1975 
Q 2225 1850 2150 1700 
Q 2075 1550 2025 1550 
Q 1950 1550 1850 1800 
Q 1675 2175 1225 2625 
L 1275 2700 
z
M 2750 5225 
L 2825 5275 
Q 3225 5100 3425 4925 
Q 3625 4750 3625 4600 
Q 3625 4450 3512 4300 
Q 3400 4150 3325 4150 
Q 3250 4150 3200 4400 
Q 3100 4775 2750 5225 
z
M 4975 3225 
L 5350 3925 
L 1175 3925 
Q 1225 3525 1125 3300 
Q 1025 3075 787 3100 
Q 550 3125 550 3200 
Q 550 3300 700 3475 
Q 975 3825 1050 4375 
L 1150 4375 
L 1175 4075 
L 5300 4075 
L 5575 4350 
L 6050 3800 
Q 5625 3825 5050 3175 
L 4975 3225 
z
" transform="scale(0.015625)"/>
       <path id="SimSun-503c" d="M 1525 650 
Q 1525 -225 1550 -525 
L 1175 -650 
Q 1200 250 1200 550 
L 1200 3025 
Q 750 2300 325 1850 
L 250 1900 
Q 725 2625 1100 3525 
Q 1475 4425 1675 5200 
L 2200 4875 
L 1950 4725 
Q 1550 3800 1425 3475 
L 1725 3300 
L 1525 3150 
L 1525 650 
z
M 2875 3225 
L 2875 2475 
L 4800 2475 
L 4800 3225 
L 2875 3225 
z
M 2875 2325 
L 2875 1575 
L 4800 1575 
L 4800 2325 
L 2875 2325 
z
M 2875 1425 
L 2875 675 
L 4800 675 
L 4800 1425 
L 2875 1425 
z
M 2875 525 
L 2875 -225 
L 4800 -225 
L 4800 525 
L 2875 525 
z
M 3550 4250 
Q 3575 4825 3550 5225 
L 4125 4950 
L 3925 4800 
L 3900 4250 
L 5025 4250 
L 5350 4575 
L 5825 4100 
L 3900 4100 
L 3875 3375 
L 4750 3375 
L 4975 3625 
L 5350 3300 
L 5125 3150 
L 5125 -225 
L 5350 -225 
L 5675 100 
L 6150 -375 
L 2450 -375 
Q 2125 -375 1850 -450 
L 1625 -225 
L 2550 -225 
L 2550 2550 
Q 2550 2850 2525 3575 
L 2875 3375 
L 3525 3375 
L 3550 4100 
L 2800 4100 
Q 2475 4100 2200 4025 
L 1975 4250 
L 3550 4250 
z
" transform="scale(0.015625)"/>
      </defs>
      <use xlink:href="#SimSun-771f"/>
      <use xlink:href="#SimSun-5b9e" x="100"/>
      <use xlink:href="#SimSun-503c" x="200"/>
     </g>
    </g>
    <g id="line2d_17">
     <path d="M 89.6375 84.35625 
L 109.6375 84.35625 
L 129.6375 84.35625 
" style="fill: none; stroke: #ff7f0e; stroke-width: 1.5; stroke-linecap: square"/>
    </g>
    <g id="text_16">
     <!-- 预测值 -->
     <g transform="translate(145.6375 91.35625) scale(0.2 -0.2)">
      <defs>
       <path id="SimSun-9884" d="M 475 4825 
L 2225 4825 
L 2425 5075 
L 2825 4675 
Q 2600 4625 2387 4412 
Q 2175 4200 1800 3750 
Q 2050 3575 2037 3400 
Q 2025 3225 1937 3150 
Q 1850 3075 1825 3075 
Q 1725 3075 1650 3300 
Q 1525 3600 1050 4100 
L 1100 4150 
Q 1475 3975 1700 3825 
L 2225 4675 
L 1300 4675 
Q 975 4675 700 4600 
L 475 4825 
z
M 725 100 
Q 1175 50 1362 37 
Q 1550 25 1550 275 
L 1550 2875 
L 1125 2875 
Q 800 2875 525 2800 
L 300 3025 
L 2525 3025 
L 2725 3275 
L 3150 2875 
Q 2800 2825 2275 2075 
L 2200 2125 
L 2550 2875 
L 1875 2875 
L 1875 150 
Q 1875 -400 1350 -500 
Q 1325 -175 725 0 
L 725 100 
z
M 3250 775 
Q 3275 1425 3275 2287 
Q 3275 3150 3250 3900 
L 3600 3700 
L 4050 3700 
Q 4175 4400 4200 4675 
L 3650 4675 
Q 3325 4675 3050 4600 
L 2825 4825 
L 5325 4825 
L 5675 5150 
L 6125 4675 
L 4675 4675 
Q 4500 4425 4175 3700 
L 5300 3700 
L 5475 3975 
L 5875 3675 
L 5675 3475 
L 5675 1950 
Q 5675 1525 5700 1075 
L 5350 875 
L 5350 3550 
L 3600 3550 
L 3600 1000 
L 3250 775 
z
M 4850 2875 
L 4625 2675 
Q 4625 1475 4475 937 
Q 4325 400 3900 50 
Q 3475 -300 2425 -625 
L 2400 -550 
Q 3500 -50 3837 400 
Q 4175 850 4237 1587 
Q 4300 2325 4275 3175 
L 4850 2875 
z
M 4650 950 
Q 5725 375 5875 212 
Q 6025 50 6025 -125 
Q 6025 -225 5962 -387 
Q 5900 -550 5850 -550 
Q 5800 -550 5750 -450 
Q 5625 -250 5437 0 
Q 5250 250 4600 875 
L 4650 950 
z
" transform="scale(0.015625)"/>
       <path id="SimSun-6d4b" d="M 1975 1000 
Q 2000 1475 2000 2925 
Q 2000 4375 1975 5000 
L 2350 4775 
L 3575 4775 
L 3775 4975 
L 4100 4650 
L 3900 4500 
L 3900 2350 
Q 3900 1850 3925 1350 
L 3600 1200 
L 3600 4625 
L 2325 4625 
L 2325 1150 
L 1975 1000 
z
M 2775 3975 
L 3300 3700 
L 3125 3525 
Q 3150 1825 2875 937 
Q 2600 50 1375 -600 
L 1325 -500 
Q 2200 100 2475 725 
Q 2750 1350 2775 2187 
Q 2800 3025 2775 3975 
z
M 3100 950 
Q 3825 450 3937 262 
Q 4050 75 4050 -25 
Q 4050 -150 3975 -262 
Q 3900 -375 3850 -375 
Q 3750 -375 3650 -75 
Q 3500 375 3050 875 
L 3100 950 
z
M 4475 825 
Q 4500 1200 4500 1700 
L 4500 3400 
Q 4500 3950 4475 4300 
L 5025 4025 
L 4825 3825 
L 4825 1700 
Q 4825 1325 4850 950 
L 4475 825 
z
M 5375 150 
L 5375 4050 
Q 5375 4750 5350 5125 
L 5875 4875 
L 5700 4700 
L 5700 75 
Q 5700 -200 5600 -350 
Q 5500 -500 5200 -600 
Q 5025 -225 4450 -50 
L 4450 50 
Q 5125 -50 5250 -37 
Q 5375 -25 5375 150 
z
M 1850 3500 
Q 1375 1525 1300 1225 
Q 1200 900 1212 450 
Q 1225 0 1250 -175 
Q 1250 -275 1125 -275 
Q 1025 -275 875 -225 
Q 725 -175 725 0 
Q 725 125 800 375 
Q 875 625 875 775 
Q 875 950 762 1050 
Q 650 1150 275 1250 
L 275 1350 
Q 725 1300 837 1312 
Q 950 1325 1087 1537 
Q 1225 1750 1750 3525 
L 1850 3500 
z
M 375 3775 
Q 1075 3350 1112 3100 
Q 1150 2850 1050 2775 
Q 950 2700 900 2700 
Q 800 2700 725 2975 
Q 600 3350 325 3700 
L 375 3775 
z
M 800 5100 
Q 1475 4725 1550 4512 
Q 1625 4300 1525 4187 
Q 1425 4075 1350 4075 
Q 1275 4075 1200 4300 
Q 1075 4650 750 5025 
L 800 5100 
z
" transform="scale(0.015625)"/>
      </defs>
      <use xlink:href="#SimSun-9884"/>
      <use xlink:href="#SimSun-6d4b" x="100"/>
      <use xlink:href="#SimSun-503c" x="200"/>
     </g>
    </g>
   </g>
  </g>
  <g id="axes_2">
   <g id="patch_8">
    <path d="M 71.6375 309.388125 
L 1031.176099 309.388125 
L 1031.176099 203.659375 
L 71.6375 203.659375 
z
" style="fill: #ffffff"/>
   </g>
   <g id="matplotlib.axis_3">
    <g id="xtick_10">
     <g id="line2d_18">
      <g>
       <use xlink:href="#mc69a085180" x="115.252891" y="309.388125" style="stroke: #000000; stroke-width: 0.8"/>
      </g>
     </g>
     <g id="text_17">
      <!-- 0 -->
      <g transform="translate(110.252891 330.275625) scale(0.2 -0.2)">
       <use xlink:href="#TimesNewRomanPSMT-30"/>
      </g>
     </g>
    </g>
    <g id="xtick_11">
     <g id="line2d_19">
      <g>
       <use xlink:href="#mc69a085180" x="229.429307" y="309.388125" style="stroke: #000000; stroke-width: 0.8"/>
      </g>
     </g>
     <g id="text_18">
      <!-- 25 -->
      <g transform="translate(219.429307 330.275625) scale(0.2 -0.2)">
       <use xlink:href="#TimesNewRomanPSMT-32"/>
       <use xlink:href="#TimesNewRomanPSMT-35" x="50"/>
      </g>
     </g>
    </g>
    <g id="xtick_12">
     <g id="line2d_20">
      <g>
       <use xlink:href="#mc69a085180" x="343.605723" y="309.388125" style="stroke: #000000; stroke-width: 0.8"/>
      </g>
     </g>
     <g id="text_19">
      <!-- 50 -->
      <g transform="translate(333.605723 330.275625) scale(0.2 -0.2)">
       <use xlink:href="#TimesNewRomanPSMT-35"/>
       <use xlink:href="#TimesNewRomanPSMT-30" x="50"/>
      </g>
     </g>
    </g>
    <g id="xtick_13">
     <g id="line2d_21">
      <g>
       <use xlink:href="#mc69a085180" x="457.782139" y="309.388125" style="stroke: #000000; stroke-width: 0.8"/>
      </g>
     </g>
     <g id="text_20">
      <!-- 75 -->
      <g transform="translate(447.782139 330.275625) scale(0.2 -0.2)">
       <use xlink:href="#TimesNewRomanPSMT-37"/>
       <use xlink:href="#TimesNewRomanPSMT-35" x="50"/>
      </g>
     </g>
    </g>
    <g id="xtick_14">
     <g id="line2d_22">
      <g>
       <use xlink:href="#mc69a085180" x="571.958555" y="309.388125" style="stroke: #000000; stroke-width: 0.8"/>
      </g>
     </g>
     <g id="text_21">
      <!-- 100 -->
      <g transform="translate(556.958555 330.275625) scale(0.2 -0.2)">
       <use xlink:href="#TimesNewRomanPSMT-31"/>
       <use xlink:href="#TimesNewRomanPSMT-30" x="50"/>
       <use xlink:href="#TimesNewRomanPSMT-30" x="100"/>
      </g>
     </g>
    </g>
    <g id="xtick_15">
     <g id="line2d_23">
      <g>
       <use xlink:href="#mc69a085180" x="686.134971" y="309.388125" style="stroke: #000000; stroke-width: 0.8"/>
      </g>
     </g>
     <g id="text_22">
      <!-- 125 -->
      <g transform="translate(671.134971 330.275625) scale(0.2 -0.2)">
       <use xlink:href="#TimesNewRomanPSMT-31"/>
       <use xlink:href="#TimesNewRomanPSMT-32" x="50"/>
       <use xlink:href="#TimesNewRomanPSMT-35" x="100"/>
      </g>
     </g>
    </g>
    <g id="xtick_16">
     <g id="line2d_24">
      <g>
       <use xlink:href="#mc69a085180" x="800.311386" y="309.388125" style="stroke: #000000; stroke-width: 0.8"/>
      </g>
     </g>
     <g id="text_23">
      <!-- 150 -->
      <g transform="translate(785.311386 330.275625) scale(0.2 -0.2)">
       <use xlink:href="#TimesNewRomanPSMT-31"/>
       <use xlink:href="#TimesNewRomanPSMT-35" x="50"/>
       <use xlink:href="#TimesNewRomanPSMT-30" x="100"/>
      </g>
     </g>
    </g>
    <g id="xtick_17">
     <g id="line2d_25">
      <g>
       <use xlink:href="#mc69a085180" x="914.487802" y="309.388125" style="stroke: #000000; stroke-width: 0.8"/>
      </g>
     </g>
     <g id="text_24">
      <!-- 175 -->
      <g transform="translate(899.487802 330.275625) scale(0.2 -0.2)">
       <use xlink:href="#TimesNewRomanPSMT-31"/>
       <use xlink:href="#TimesNewRomanPSMT-37" x="50"/>
       <use xlink:href="#TimesNewRomanPSMT-35" x="100"/>
      </g>
     </g>
    </g>
    <g id="xtick_18">
     <g id="line2d_26">
      <g>
       <use xlink:href="#mc69a085180" x="1028.664218" y="309.388125" style="stroke: #000000; stroke-width: 0.8"/>
      </g>
     </g>
     <g id="text_25">
      <!-- 200 -->
      <g transform="translate(1013.664218 330.275625) scale(0.2 -0.2)">
       <use xlink:href="#TimesNewRomanPSMT-32"/>
       <use xlink:href="#TimesNewRomanPSMT-30" x="50"/>
       <use xlink:href="#TimesNewRomanPSMT-30" x="100"/>
      </g>
     </g>
    </g>
   </g>
   <g id="matplotlib.axis_4">
    <g id="ytick_4">
     <g id="line2d_27">
      <g>
       <use xlink:href="#m7b5e4a3be2" x="71.6375" y="273.852244" style="stroke: #000000; stroke-width: 0.8"/>
      </g>
     </g>
     <g id="text_26">
      <!-- 0.5 -->
      <g transform="translate(39.6375 280.795994) scale(0.2 -0.2)">
       <use xlink:href="#TimesNewRomanPSMT-30"/>
       <use xlink:href="#TimesNewRomanPSMT-2e" x="50"/>
       <use xlink:href="#TimesNewRomanPSMT-35" x="75"/>
      </g>
     </g>
    </g>
    <g id="ytick_5">
     <g id="line2d_28">
      <g>
       <use xlink:href="#m7b5e4a3be2" x="71.6375" y="234.894299" style="stroke: #000000; stroke-width: 0.8"/>
      </g>
     </g>
     <g id="text_27">
      <!-- 1.0 -->
      <g transform="translate(39.6375 241.838049) scale(0.2 -0.2)">
       <use xlink:href="#TimesNewRomanPSMT-31"/>
       <use xlink:href="#TimesNewRomanPSMT-2e" x="50"/>
       <use xlink:href="#TimesNewRomanPSMT-30" x="75"/>
      </g>
     </g>
    </g>
    <g id="text_28">
     <!-- CPU使用率 -->
     <g transform="translate(33.059375 301.52375) rotate(-90) scale(0.2 -0.2)">
      <use xlink:href="#SimSun-43"/>
      <use xlink:href="#SimSun-50" x="50"/>
      <use xlink:href="#SimSun-55" x="100"/>
      <use xlink:href="#SimSun-4f7f" x="150"/>
      <use xlink:href="#SimSun-7528" x="250"/>
      <use xlink:href="#SimSun-7387" x="350"/>
     </g>
    </g>
   </g>
   <g id="line2d_29">
    <path d="M 115.252891 256.710751 
L 119.819948 260.450712 
L 124.387004 256.336753 
L 128.954061 250.352813 
L 133.521117 265.312662 
L 138.088174 267.182643 
L 142.655231 268.67863 
L 147.222287 267.556641 
L 151.789344 272.418591 
L 156.356401 271.296602 
L 160.923457 275.784559 
L 165.490514 276.906548 
L 170.057571 279.150526 
L 174.624627 280.272516 
L 179.191684 278.776528 
L 183.75874 299.34632 
L 188.325797 281.768498 
L 192.892854 283.638483 
L 197.45991 284.760468 
L 202.026967 286.630453 
L 206.594024 287.378444 
L 211.16108 287.752442 
L 215.728137 289.622423 
L 220.295194 290.370414 
L 224.86225 291.492403 
L 229.429307 292.988386 
L 238.56342 292.988386 
L 243.130477 294.858368 
L 252.26459 296.35435 
L 256.831647 296.728348 
L 261.398703 297.476344 
L 265.96576 297.102341 
L 270.532817 298.224331 
L 275.099873 298.972327 
L 279.66693 298.972327 
L 288.801043 299.720322 
L 293.3681 299.720322 
L 302.502213 301.216305 
L 307.06927 301.216305 
L 316.203383 301.964292 
L 320.77044 301.216305 
L 325.337496 301.964292 
L 329.904553 301.964292 
L 334.471609 302.712288 
L 339.038666 302.338294 
L 343.605723 303.460283 
L 348.172779 302.712288 
L 352.739836 302.712288 
L 357.306893 303.460283 
L 361.873949 303.460283 
L 366.441006 303.834277 
L 371.008063 303.460283 
L 380.142176 303.460283 
L 384.709232 303.834277 
L 389.276289 303.460283 
L 393.843346 303.834277 
L 398.410402 303.834277 
L 402.977459 303.460283 
L 407.544516 304.582273 
L 412.111572 303.834277 
L 416.678629 303.834277 
L 421.245686 303.460283 
L 444.080969 303.460283 
L 448.648025 303.086281 
L 453.215082 302.338294 
L 457.782139 300.468309 
L 466.916252 301.216305 
L 476.050365 299.720322 
L 480.617422 299.720322 
L 485.184478 297.850337 
L 489.751535 298.224331 
L 494.318592 298.224331 
L 498.885648 297.476344 
L 503.452705 295.980357 
L 508.019762 295.232361 
L 512.586818 284.386475 
L 517.153875 291.118405 
L 521.720932 288.126436 
L 526.287988 288.126436 
L 530.855045 285.508464 
L 535.422102 284.012477 
L 539.989158 276.158557 
L 544.556215 281.768498 
L 549.123271 277.654539 
L 553.690328 277.654539 
L 558.257385 273.914578 
L 562.824441 270.922608 
L 567.391498 241.376899 
L 571.958555 263.068684 
L 576.525611 254.840766 
L 581.092668 259.328723 
L 585.659725 255.214764 
L 590.226781 254.840766 
L 594.793838 237.26294 
L 599.360894 254.466772 
L 603.927951 251.848796 
L 608.495008 252.970785 
L 613.062064 249.604817 
L 617.629121 247.360843 
L 622.196178 233.896977 
L 626.763234 240.25491 
L 631.330291 239.880917 
L 635.897348 242.872887 
L 640.464404 241.376899 
L 645.031461 241.750897 
L 649.598517 236.514949 
L 654.165574 245.116865 
L 658.732631 244.742867 
L 663.299687 244.742867 
L 667.866744 241.376899 
L 672.433801 239.132925 
L 677.000857 231.652999 
L 681.567914 227.539035 
L 686.134971 229.035027 
L 690.702027 228.287031 
L 695.269084 226.043053 
L 699.83614 229.035027 
L 704.403197 227.165042 
L 708.970254 233.522975 
L 713.53731 233.522975 
L 722.671424 229.783014 
L 727.23848 229.40902 
L 731.805537 220.433106 
L 736.372594 219.68512 
L 740.93965 218.56313 
L 745.506707 220.433106 
L 750.073763 224.921063 
L 754.64082 225.669059 
L 759.207877 223.425081 
L 763.774933 222.677085 
L 768.34199 217.067139 
L 772.909047 219.68512 
L 777.476103 223.425081 
L 782.04316 223.051087 
L 786.610217 223.799074 
L 791.177273 209.213223 
L 795.74433 214.823169 
L 800.311386 224.54707 
L 804.878443 225.295066 
L 809.4455 220.433106 
L 814.012556 223.799074 
L 818.579613 226.417046 
L 823.14667 226.043053 
L 827.713726 225.295066 
L 832.280783 225.669059 
L 836.84784 226.791048 
L 841.414896 274.662569 
L 845.981953 208.465227 
L 850.549009 211.457202 
L 855.116066 218.937124 
L 859.683123 218.56313 
L 864.250179 220.433106 
L 868.817236 224.921063 
L 877.951349 227.913038 
L 882.518406 227.913038 
L 887.085463 230.531009 
L 891.652519 230.531009 
L 896.219576 226.043053 
L 900.786632 224.921063 
L 905.353689 226.791048 
L 909.920746 230.157016 
L 914.487802 234.270971 
L 919.054859 232.400995 
L 923.621916 232.774988 
L 928.188972 231.652999 
L 932.756029 233.896977 
L 937.323086 233.522975 
L 941.890142 232.774988 
L 946.457199 235.018962 
L 951.024255 225.295066 
L 955.591312 221.181102 
L 960.158369 229.035027 
L 964.725425 230.157016 
L 969.292482 230.157016 
L 973.859539 232.026992 
L 978.426595 229.035027 
L 982.993652 233.148981 
L 987.560709 231.279005 
L 987.560709 231.279005 
" clip-path="url(#p9116c6b5c5)" style="fill: none; stroke: #1f77b4; stroke-width: 1.5; stroke-linecap: square"/>
   </g>
   <g id="line2d_30">
    <path d="M 772.909047 221.366404 
L 777.476103 223.481163 
L 782.04316 221.878514 
L 786.610217 218.960558 
L 791.177273 220.653778 
L 795.74433 220.843835 
L 800.311386 219.579215 
L 804.878443 220.919349 
L 809.4455 223.164563 
L 814.012556 220.814168 
L 818.579613 221.149048 
L 823.14667 220.782922 
L 827.713726 221.345654 
L 832.280783 221.716656 
L 836.84784 219.567706 
L 841.414896 222.658499 
L 845.981953 219.61008 
L 850.549009 220.919795 
L 855.116066 220.786043 
L 859.683123 222.580031 
L 864.250179 220.956511 
L 868.817236 224.457401 
L 873.384293 223.844327 
L 877.951349 227.919391 
L 882.518406 227.966594 
L 887.085463 228.128257 
L 891.652519 229.690558 
L 896.219576 230.192414 
L 900.786632 231.13486 
L 905.353689 232.211727 
L 909.920746 234.083848 
L 914.487802 236.112677 
L 919.054859 237.175013 
L 923.621916 237.481313 
L 928.188972 238.336858 
L 932.756029 239.69496 
L 937.323086 240.292439 
L 941.890142 240.230463 
L 946.457199 241.286566 
L 951.024255 240.690373 
L 955.591312 241.430186 
L 960.158369 243.151029 
L 964.725425 244.848679 
L 969.292482 244.97696 
L 973.859539 247.243918 
L 978.426595 246.598051 
L 982.993652 248.447625 
L 987.560709 249.63493 
" clip-path="url(#p9116c6b5c5)" style="fill: none; stroke: #ff7f0e; stroke-width: 1.5; stroke-linecap: square"/>
   </g>
   <g id="line2d_31">
    <path d="M 772.909047 309.388125 
L 772.909047 203.659375 
" clip-path="url(#p9116c6b5c5)" style="fill: none; stroke-dasharray: 7.4,3.2; stroke-dashoffset: 0; stroke: #0000ff; stroke-width: 2"/>
   </g>
   <g id="patch_9">
    <path d="M 71.6375 309.388125 
L 71.6375 203.659375 
" style="fill: none; stroke: #000000; stroke-width: 0.8; stroke-linejoin: miter; stroke-linecap: square"/>
   </g>
   <g id="patch_10">
    <path d="M 1031.176099 309.388125 
L 1031.176099 203.659375 
" style="fill: none; stroke: #000000; stroke-width: 0.8; stroke-linejoin: miter; stroke-linecap: square"/>
   </g>
   <g id="patch_11">
    <path d="M 71.6375 309.388125 
L 1031.176099 309.388125 
" style="fill: none; stroke: #000000; stroke-width: 0.8; stroke-linejoin: miter; stroke-linecap: square"/>
   </g>
   <g id="patch_12">
    <path d="M 71.6375 203.659375 
L 1031.176099 203.659375 
" style="fill: none; stroke: #000000; stroke-width: 0.8; stroke-linejoin: miter; stroke-linecap: square"/>
   </g>
   <g id="text_29">
    <!-- 云函数ID: 72 -->
    <g transform="translate(491.4068 197.659375) scale(0.2 -0.2)">
     <defs>
      <path id="SimSun-37" d="M 2825 4200 
Q 2300 3350 1987 2537 
Q 1675 1725 1675 1125 
Q 1675 1025 1700 850 
Q 1700 650 1700 400 
Q 1700 200 1637 125 
Q 1575 50 1425 50 
Q 1300 50 1212 137 
Q 1125 225 1125 450 
Q 1125 925 1337 1625 
Q 1550 2325 2475 4000 
L 1225 4000 
Q 950 4000 787 3825 
Q 625 3650 550 3300 
L 400 3325 
L 575 4375 
L 2825 4375 
L 2825 4200 
z
" transform="scale(0.015625)"/>
     </defs>
     <use xlink:href="#SimSun-4e91"/>
     <use xlink:href="#SimSun-51fd" x="100"/>
     <use xlink:href="#SimSun-6570" x="200"/>
     <use xlink:href="#SimSun-49" x="300"/>
     <use xlink:href="#SimSun-44" x="350"/>
     <use xlink:href="#SimSun-3a" x="400"/>
     <use xlink:href="#SimSun-20" x="450"/>
     <use xlink:href="#SimSun-37" x="500"/>
     <use xlink:href="#SimSun-32" x="550"/>
    </g>
   </g>
  </g>
  <g id="axes_3">
   <g id="patch_13">
    <path d="M 71.6375 483.988125 
L 1031.176099 483.988125 
L 1031.176099 378.259375 
L 71.6375 378.259375 
z
" style="fill: #ffffff"/>
   </g>
   <g id="matplotlib.axis_5">
    <g id="xtick_19">
     <g id="line2d_32">
      <g>
       <use xlink:href="#mc69a085180" x="115.252891" y="483.988125" style="stroke: #000000; stroke-width: 0.8"/>
      </g>
     </g>
     <g id="text_30">
      <!-- 0 -->
      <g transform="translate(110.252891 504.875625) scale(0.2 -0.2)">
       <use xlink:href="#TimesNewRomanPSMT-30"/>
      </g>
     </g>
    </g>
    <g id="xtick_20">
     <g id="line2d_33">
      <g>
       <use xlink:href="#mc69a085180" x="229.429307" y="483.988125" style="stroke: #000000; stroke-width: 0.8"/>
      </g>
     </g>
     <g id="text_31">
      <!-- 25 -->
      <g transform="translate(219.429307 504.875625) scale(0.2 -0.2)">
       <use xlink:href="#TimesNewRomanPSMT-32"/>
       <use xlink:href="#TimesNewRomanPSMT-35" x="50"/>
      </g>
     </g>
    </g>
    <g id="xtick_21">
     <g id="line2d_34">
      <g>
       <use xlink:href="#mc69a085180" x="343.605723" y="483.988125" style="stroke: #000000; stroke-width: 0.8"/>
      </g>
     </g>
     <g id="text_32">
      <!-- 50 -->
      <g transform="translate(333.605723 504.875625) scale(0.2 -0.2)">
       <use xlink:href="#TimesNewRomanPSMT-35"/>
       <use xlink:href="#TimesNewRomanPSMT-30" x="50"/>
      </g>
     </g>
    </g>
    <g id="xtick_22">
     <g id="line2d_35">
      <g>
       <use xlink:href="#mc69a085180" x="457.782139" y="483.988125" style="stroke: #000000; stroke-width: 0.8"/>
      </g>
     </g>
     <g id="text_33">
      <!-- 75 -->
      <g transform="translate(447.782139 504.875625) scale(0.2 -0.2)">
       <use xlink:href="#TimesNewRomanPSMT-37"/>
       <use xlink:href="#TimesNewRomanPSMT-35" x="50"/>
      </g>
     </g>
    </g>
    <g id="xtick_23">
     <g id="line2d_36">
      <g>
       <use xlink:href="#mc69a085180" x="571.958555" y="483.988125" style="stroke: #000000; stroke-width: 0.8"/>
      </g>
     </g>
     <g id="text_34">
      <!-- 100 -->
      <g transform="translate(556.958555 504.875625) scale(0.2 -0.2)">
       <use xlink:href="#TimesNewRomanPSMT-31"/>
       <use xlink:href="#TimesNewRomanPSMT-30" x="50"/>
       <use xlink:href="#TimesNewRomanPSMT-30" x="100"/>
      </g>
     </g>
    </g>
    <g id="xtick_24">
     <g id="line2d_37">
      <g>
       <use xlink:href="#mc69a085180" x="686.134971" y="483.988125" style="stroke: #000000; stroke-width: 0.8"/>
      </g>
     </g>
     <g id="text_35">
      <!-- 125 -->
      <g transform="translate(671.134971 504.875625) scale(0.2 -0.2)">
       <use xlink:href="#TimesNewRomanPSMT-31"/>
       <use xlink:href="#TimesNewRomanPSMT-32" x="50"/>
       <use xlink:href="#TimesNewRomanPSMT-35" x="100"/>
      </g>
     </g>
    </g>
    <g id="xtick_25">
     <g id="line2d_38">
      <g>
       <use xlink:href="#mc69a085180" x="800.311386" y="483.988125" style="stroke: #000000; stroke-width: 0.8"/>
      </g>
     </g>
     <g id="text_36">
      <!-- 150 -->
      <g transform="translate(785.311386 504.875625) scale(0.2 -0.2)">
       <use xlink:href="#TimesNewRomanPSMT-31"/>
       <use xlink:href="#TimesNewRomanPSMT-35" x="50"/>
       <use xlink:href="#TimesNewRomanPSMT-30" x="100"/>
      </g>
     </g>
    </g>
    <g id="xtick_26">
     <g id="line2d_39">
      <g>
       <use xlink:href="#mc69a085180" x="914.487802" y="483.988125" style="stroke: #000000; stroke-width: 0.8"/>
      </g>
     </g>
     <g id="text_37">
      <!-- 175 -->
      <g transform="translate(899.487802 504.875625) scale(0.2 -0.2)">
       <use xlink:href="#TimesNewRomanPSMT-31"/>
       <use xlink:href="#TimesNewRomanPSMT-37" x="50"/>
       <use xlink:href="#TimesNewRomanPSMT-35" x="100"/>
      </g>
     </g>
    </g>
    <g id="xtick_27">
     <g id="line2d_40">
      <g>
       <use xlink:href="#mc69a085180" x="1028.664218" y="483.988125" style="stroke: #000000; stroke-width: 0.8"/>
      </g>
     </g>
     <g id="text_38">
      <!-- 200 -->
      <g transform="translate(1013.664218 504.875625) scale(0.2 -0.2)">
       <use xlink:href="#TimesNewRomanPSMT-32"/>
       <use xlink:href="#TimesNewRomanPSMT-30" x="50"/>
       <use xlink:href="#TimesNewRomanPSMT-30" x="100"/>
      </g>
     </g>
    </g>
   </g>
   <g id="matplotlib.axis_6">
    <g id="ytick_6">
     <g id="line2d_41">
      <g>
       <use xlink:href="#m7b5e4a3be2" x="71.6375" y="457.97577" style="stroke: #000000; stroke-width: 0.8"/>
      </g>
     </g>
     <g id="text_39">
      <!-- 1.0 -->
      <g transform="translate(39.6375 464.91952) scale(0.2 -0.2)">
       <use xlink:href="#TimesNewRomanPSMT-31"/>
       <use xlink:href="#TimesNewRomanPSMT-2e" x="50"/>
       <use xlink:href="#TimesNewRomanPSMT-30" x="75"/>
      </g>
     </g>
    </g>
    <g id="ytick_7">
     <g id="line2d_42">
      <g>
       <use xlink:href="#m7b5e4a3be2" x="71.6375" y="422.153974" style="stroke: #000000; stroke-width: 0.8"/>
      </g>
     </g>
     <g id="text_40">
      <!-- 2.0 -->
      <g transform="translate(39.6375 429.097724) scale(0.2 -0.2)">
       <use xlink:href="#TimesNewRomanPSMT-32"/>
       <use xlink:href="#TimesNewRomanPSMT-2e" x="50"/>
       <use xlink:href="#TimesNewRomanPSMT-30" x="75"/>
      </g>
     </g>
    </g>
    <g id="ytick_8">
     <g id="line2d_43">
      <g>
       <use xlink:href="#m7b5e4a3be2" x="71.6375" y="386.332179" style="stroke: #000000; stroke-width: 0.8"/>
      </g>
     </g>
     <g id="text_41">
      <!-- 3.0 -->
      <g transform="translate(39.6375 393.275929) scale(0.2 -0.2)">
       <use xlink:href="#TimesNewRomanPSMT-33"/>
       <use xlink:href="#TimesNewRomanPSMT-2e" x="50"/>
       <use xlink:href="#TimesNewRomanPSMT-30" x="75"/>
      </g>
     </g>
    </g>
    <g id="text_42">
     <!-- CPU使用率 -->
     <g transform="translate(33.059375 476.12375) rotate(-90) scale(0.2 -0.2)">
      <use xlink:href="#SimSun-43"/>
      <use xlink:href="#SimSun-50" x="50"/>
      <use xlink:href="#SimSun-55" x="100"/>
      <use xlink:href="#SimSun-4f7f" x="150"/>
      <use xlink:href="#SimSun-7528" x="250"/>
      <use xlink:href="#SimSun-7387" x="350"/>
     </g>
    </g>
   </g>
   <g id="line2d_44">
    <path d="M 115.252891 479.182273 
L 124.387004 477.462827 
L 128.954061 477.118937 
L 133.521117 476.431159 
L 138.088174 475.571437 
L 142.655231 474.883657 
L 147.222287 473.336155 
L 151.789344 466.974205 
L 156.356401 469.209485 
L 160.923457 467.490039 
L 165.490514 466.458371 
L 170.057571 464.395035 
L 174.624627 463.191424 
L 179.191684 457.001417 
L 183.75874 457.689195 
L 188.325797 455.281972 
L 192.892854 453.73447 
L 197.45991 450.639466 
L 202.026967 450.295575 
L 206.594024 426.739165 
L 211.16108 442.214178 
L 215.728137 439.978898 
L 220.295194 438.08751 
L 224.86225 434.992505 
L 229.429307 435.164449 
L 233.996363 431.037781 
L 238.56342 430.521946 
L 243.130477 427.59889 
L 247.697533 429.146392 
L 252.26459 424.159995 
L 256.831647 422.440549 
L 261.398703 412.29582 
L 265.96576 414.015261 
L 270.532817 413.843322 
L 275.099873 414.015261 
L 279.66693 411.608039 
L 284.233986 411.779986 
L 288.801043 410.060537 
L 293.3681 414.703043 
L 297.935156 415.046929 
L 302.502213 414.187209 
L 307.06927 414.187209 
L 311.636326 409.200816 
L 316.203383 409.200816 
L 320.77044 408.169148 
L 325.337496 409.028868 
L 329.904553 408.513034 
L 334.471609 403.182755 
L 339.038666 410.404423 
L 343.605723 406.621646 
L 348.172779 411.951925 
L 352.739836 413.155541 
L 357.306893 413.499427 
L 361.873949 408.856921 
L 366.441006 412.29582 
L 371.008063 400.25969 
L 375.575119 403.354694 
L 380.142176 402.666921 
L 384.709232 408.513034 
L 389.276289 409.888589 
L 393.843346 412.123873 
L 398.410402 412.639707 
L 402.977459 409.71665 
L 407.544516 408.684982 
L 412.111572 409.200816 
L 416.678629 411.779986 
L 421.245686 414.015261 
L 425.812742 411.264152 
L 430.379799 407.309427 
L 434.946855 408.513034 
L 439.513912 413.155541 
L 444.080969 412.811654 
L 448.648025 408.513034 
L 453.215082 412.29582 
L 457.782139 414.703043 
L 462.349195 414.187209 
L 466.916252 411.264152 
L 471.483309 411.092205 
L 476.050365 412.639707 
L 480.617422 439.635012 
L 485.184478 396.992746 
L 489.751535 398.368301 
L 494.318592 404.386362 
L 498.885648 405.246091 
L 503.452705 405.246091 
L 508.019762 407.13748 
L 512.586818 410.232484 
L 517.153875 409.200816 
L 521.720932 412.467759 
L 526.287988 409.888589 
L 530.855045 413.499427 
L 535.422102 408.513034 
L 539.989158 407.9972 
L 544.556215 412.123873 
L 549.123271 416.422484 
L 553.690328 415.562763 
L 558.257385 415.046929 
L 562.824441 412.639707 
L 567.391498 415.390816 
L 571.958555 415.390816 
L 576.525611 417.110266 
L 581.092668 415.046929 
L 585.659725 416.078598 
L 590.226781 407.13748 
L 594.793838 404.730257 
L 599.360894 413.155541 
L 603.927951 413.843322 
L 608.495008 408.684982 
L 613.062064 408.341095 
L 617.629121 406.621646 
L 622.196178 410.060537 
L 626.763234 412.811654 
L 631.330291 417.110266 
L 635.897348 414.531095 
L 640.464404 413.327488 
L 645.031461 408.684982 
L 649.598517 408.856921 
L 658.732631 414.703043 
L 663.299687 414.531095 
L 667.866744 415.390816 
L 672.433801 413.155541 
L 681.567914 413.155541 
L 686.134971 414.703043 
L 690.702027 414.531095 
L 695.269084 412.983593 
L 699.83614 411.608039 
L 704.403197 411.608039 
L 708.970254 415.390816 
L 713.53731 407.481366 
L 718.104367 408.684982 
L 722.671424 412.467759 
L 727.23848 404.730257 
L 731.805537 409.372755 
L 736.372594 411.264152 
L 740.93965 411.436091 
L 745.506707 403.010807 
L 750.073763 406.621646 
L 754.64082 403.526641 
L 759.207877 403.526641 
L 763.774933 398.368301 
L 768.34199 404.386362 
L 772.909047 403.182755 
L 777.476103 401.291358 
L 782.04316 396.133026 
L 786.610217 397.680528 
L 791.177273 396.64886 
L 795.74433 395.961078 
L 800.311386 398.196362 
L 804.878443 396.304965 
L 809.4455 389.599131 
L 814.012556 394.413576 
L 818.579613 390.974685 
L 823.14667 387.879681 
L 827.713726 389.255236 
L 832.280783 387.535795 
L 836.84784 383.065227 
L 841.414896 389.77107 
L 845.981953 385.300511 
L 850.549009 387.1919 
L 855.116066 387.1919 
L 859.683123 383.924956 
L 864.250179 389.083297 
L 868.817236 390.974685 
L 873.384293 394.241629 
L 877.951349 390.286904 
L 882.518406 384.44079 
L 887.085463 396.64886 
L 891.652519 392.006354 
L 896.219576 395.445244 
L 900.786632 396.476912 
L 905.353689 398.368301 
L 909.920746 395.445244 
L 914.487802 397.680528 
L 919.054859 389.77107 
L 923.621916 393.725795 
L 928.188972 393.897742 
L 932.756029 397.50858 
L 937.323086 393.725795 
L 941.890142 396.820799 
L 946.457199 396.304965 
L 951.024255 394.413576 
L 955.591312 398.196362 
L 960.158369 398.196362 
L 964.725425 396.992746 
L 969.292482 394.413576 
L 973.859539 383.237175 
L 978.426595 392.694127 
L 982.993652 392.178293 
L 987.560709 393.381908 
L 987.560709 393.381908 
" clip-path="url(#pe80e051eb8)" style="fill: none; stroke: #1f77b4; stroke-width: 1.5; stroke-linecap: square"/>
   </g>
   <g id="line2d_45">
    <path d="M 772.909047 404.565945 
L 777.476103 403.695079 
L 782.04316 402.379385 
L 786.610217 402.601534 
L 791.177273 403.729369 
L 795.74433 404.142375 
L 800.311386 404.571103 
L 804.878443 403.268673 
L 809.4455 400.936164 
L 814.012556 401.605634 
L 818.579613 402.126046 
L 823.14667 403.697368 
L 827.713726 402.986407 
L 832.280783 403.78689 
L 836.84784 403.002566 
L 841.414896 404.061811 
L 845.981953 403.914418 
L 850.549009 405.303322 
L 855.116066 407.128845 
L 859.683123 406.993426 
L 864.250179 402.250875 
L 868.817236 404.784088 
L 873.384293 406.106948 
L 877.951349 404.708222 
L 882.518406 404.915818 
L 887.085463 405.827004 
L 891.652519 404.956958 
L 896.219576 406.077167 
L 900.786632 405.292424 
L 905.353689 407.042756 
L 909.920746 406.206889 
L 914.487802 406.738395 
L 919.054859 405.047113 
L 923.621916 405.367658 
L 928.188972 406.246723 
L 932.756029 407.212167 
L 937.323086 406.892391 
L 941.890142 407.865026 
L 946.457199 407.827866 
L 951.024255 409.120398 
L 955.591312 409.269815 
L 960.158369 409.860747 
L 964.725425 409.527681 
L 969.292482 408.738634 
L 973.859539 408.826525 
L 978.426595 409.652374 
L 982.993652 408.932795 
L 987.560709 410.076029 
" clip-path="url(#pe80e051eb8)" style="fill: none; stroke: #ff7f0e; stroke-width: 1.5; stroke-linecap: square"/>
   </g>
   <g id="line2d_46">
    <path d="M 772.909047 483.988125 
L 772.909047 378.259375 
" clip-path="url(#pe80e051eb8)" style="fill: none; stroke-dasharray: 7.4,3.2; stroke-dashoffset: 0; stroke: #0000ff; stroke-width: 2"/>
   </g>
   <g id="patch_14">
    <path d="M 71.6375 483.988125 
L 71.6375 378.259375 
" style="fill: none; stroke: #000000; stroke-width: 0.8; stroke-linejoin: miter; stroke-linecap: square"/>
   </g>
   <g id="patch_15">
    <path d="M 1031.176099 483.988125 
L 1031.176099 378.259375 
" style="fill: none; stroke: #000000; stroke-width: 0.8; stroke-linejoin: miter; stroke-linecap: square"/>
   </g>
   <g id="patch_16">
    <path d="M 71.6375 483.988125 
L 1031.176099 483.988125 
" style="fill: none; stroke: #000000; stroke-width: 0.8; stroke-linejoin: miter; stroke-linecap: square"/>
   </g>
   <g id="patch_17">
    <path d="M 71.6375 378.259375 
L 1031.176099 378.259375 
" style="fill: none; stroke: #000000; stroke-width: 0.8; stroke-linejoin: miter; stroke-linecap: square"/>
   </g>
   <g id="text_43">
    <!-- 云函数ID: 150 -->
    <g transform="translate(486.4068 372.259375) scale(0.2 -0.2)">
     <defs>
      <path id="SimSun-31" d="M 1825 4450 
L 1825 650 
Q 1825 450 1950 350 
Q 2075 250 2300 250 
L 2550 250 
L 2550 100 
L 725 100 
L 725 250 
L 950 250 
Q 1200 250 1312 350 
Q 1425 450 1425 650 
L 1425 3675 
Q 1425 3775 1362 3837 
Q 1300 3900 1175 3900 
L 725 3900 
L 725 4050 
L 950 4050 
Q 1250 4050 1437 4150 
Q 1625 4250 1725 4450 
L 1825 4450 
z
" transform="scale(0.015625)"/>
      <path id="SimSun-35" d="M 1725 2850 
Q 2200 2850 2500 2487 
Q 2800 2125 2800 1525 
Q 2800 850 2487 450 
Q 2175 50 1525 50 
Q 1075 50 725 312 
Q 375 575 375 950 
Q 375 1100 462 1212 
Q 550 1325 700 1325 
Q 850 1325 900 1225 
Q 950 1125 950 1050 
Q 950 900 875 825 
Q 800 725 800 625 
Q 800 425 1037 325 
Q 1275 225 1550 225 
Q 1950 225 2162 550 
Q 2375 875 2375 1475 
Q 2375 1975 2187 2287 
Q 2000 2600 1625 2600 
Q 1350 2600 1150 2500 
Q 950 2400 775 2075 
L 550 2100 
L 675 4375 
L 2725 4375 
L 2650 4000 
L 850 4000 
L 750 2350 
Q 1000 2700 1237 2775 
Q 1475 2850 1725 2850 
z
" transform="scale(0.015625)"/>
      <path id="SimSun-30" d="M 1600 4225 
Q 1250 4225 1012 3687 
Q 775 3150 775 2250 
Q 775 1300 1012 775 
Q 1250 250 1600 250 
Q 1975 250 2187 775 
Q 2400 1300 2400 2250 
Q 2400 3150 2200 3687 
Q 2000 4225 1600 4225 
z
M 1600 50 
Q 1050 50 675 625 
Q 300 1200 300 2250 
Q 300 3225 662 3825 
Q 1025 4425 1600 4425 
Q 2150 4425 2512 3850 
Q 2875 3275 2875 2250 
Q 2875 1225 2512 637 
Q 2150 50 1600 50 
z
" transform="scale(0.015625)"/>
     </defs>
     <use xlink:href="#SimSun-4e91"/>
     <use xlink:href="#SimSun-51fd" x="100"/>
     <use xlink:href="#SimSun-6570" x="200"/>
     <use xlink:href="#SimSun-49" x="300"/>
     <use xlink:href="#SimSun-44" x="350"/>
     <use xlink:href="#SimSun-3a" x="400"/>
     <use xlink:href="#SimSun-20" x="450"/>
     <use xlink:href="#SimSun-31" x="500"/>
     <use xlink:href="#SimSun-35" x="550"/>
     <use xlink:href="#SimSun-30" x="600"/>
    </g>
   </g>
  </g>
  <g id="axes_4">
   <g id="patch_18">
    <path d="M 71.6375 658.588125 
L 1031.176099 658.588125 
L 1031.176099 552.859375 
L 71.6375 552.859375 
z
" style="fill: #ffffff"/>
   </g>
   <g id="matplotlib.axis_7">
    <g id="xtick_28">
     <g id="line2d_47">
      <g>
       <use xlink:href="#mc69a085180" x="115.252891" y="658.588125" style="stroke: #000000; stroke-width: 0.8"/>
      </g>
     </g>
     <g id="text_44">
      <!-- 0 -->
      <g transform="translate(110.252891 679.475625) scale(0.2 -0.2)">
       <use xlink:href="#TimesNewRomanPSMT-30"/>
      </g>
     </g>
    </g>
    <g id="xtick_29">
     <g id="line2d_48">
      <g>
       <use xlink:href="#mc69a085180" x="229.429307" y="658.588125" style="stroke: #000000; stroke-width: 0.8"/>
      </g>
     </g>
     <g id="text_45">
      <!-- 25 -->
      <g transform="translate(219.429307 679.475625) scale(0.2 -0.2)">
       <use xlink:href="#TimesNewRomanPSMT-32"/>
       <use xlink:href="#TimesNewRomanPSMT-35" x="50"/>
      </g>
     </g>
    </g>
    <g id="xtick_30">
     <g id="line2d_49">
      <g>
       <use xlink:href="#mc69a085180" x="343.605723" y="658.588125" style="stroke: #000000; stroke-width: 0.8"/>
      </g>
     </g>
     <g id="text_46">
      <!-- 50 -->
      <g transform="translate(333.605723 679.475625) scale(0.2 -0.2)">
       <use xlink:href="#TimesNewRomanPSMT-35"/>
       <use xlink:href="#TimesNewRomanPSMT-30" x="50"/>
      </g>
     </g>
    </g>
    <g id="xtick_31">
     <g id="line2d_50">
      <g>
       <use xlink:href="#mc69a085180" x="457.782139" y="658.588125" style="stroke: #000000; stroke-width: 0.8"/>
      </g>
     </g>
     <g id="text_47">
      <!-- 75 -->
      <g transform="translate(447.782139 679.475625) scale(0.2 -0.2)">
       <use xlink:href="#TimesNewRomanPSMT-37"/>
       <use xlink:href="#TimesNewRomanPSMT-35" x="50"/>
      </g>
     </g>
    </g>
    <g id="xtick_32">
     <g id="line2d_51">
      <g>
       <use xlink:href="#mc69a085180" x="571.958555" y="658.588125" style="stroke: #000000; stroke-width: 0.8"/>
      </g>
     </g>
     <g id="text_48">
      <!-- 100 -->
      <g transform="translate(556.958555 679.475625) scale(0.2 -0.2)">
       <use xlink:href="#TimesNewRomanPSMT-31"/>
       <use xlink:href="#TimesNewRomanPSMT-30" x="50"/>
       <use xlink:href="#TimesNewRomanPSMT-30" x="100"/>
      </g>
     </g>
    </g>
    <g id="xtick_33">
     <g id="line2d_52">
      <g>
       <use xlink:href="#mc69a085180" x="686.134971" y="658.588125" style="stroke: #000000; stroke-width: 0.8"/>
      </g>
     </g>
     <g id="text_49">
      <!-- 125 -->
      <g transform="translate(671.134971 679.475625) scale(0.2 -0.2)">
       <use xlink:href="#TimesNewRomanPSMT-31"/>
       <use xlink:href="#TimesNewRomanPSMT-32" x="50"/>
       <use xlink:href="#TimesNewRomanPSMT-35" x="100"/>
      </g>
     </g>
    </g>
    <g id="xtick_34">
     <g id="line2d_53">
      <g>
       <use xlink:href="#mc69a085180" x="800.311386" y="658.588125" style="stroke: #000000; stroke-width: 0.8"/>
      </g>
     </g>
     <g id="text_50">
      <!-- 150 -->
      <g transform="translate(785.311386 679.475625) scale(0.2 -0.2)">
       <use xlink:href="#TimesNewRomanPSMT-31"/>
       <use xlink:href="#TimesNewRomanPSMT-35" x="50"/>
       <use xlink:href="#TimesNewRomanPSMT-30" x="100"/>
      </g>
     </g>
    </g>
    <g id="xtick_35">
     <g id="line2d_54">
      <g>
       <use xlink:href="#mc69a085180" x="914.487802" y="658.588125" style="stroke: #000000; stroke-width: 0.8"/>
      </g>
     </g>
     <g id="text_51">
      <!-- 175 -->
      <g transform="translate(899.487802 679.475625) scale(0.2 -0.2)">
       <use xlink:href="#TimesNewRomanPSMT-31"/>
       <use xlink:href="#TimesNewRomanPSMT-37" x="50"/>
       <use xlink:href="#TimesNewRomanPSMT-35" x="100"/>
      </g>
     </g>
    </g>
    <g id="xtick_36">
     <g id="line2d_55">
      <g>
       <use xlink:href="#mc69a085180" x="1028.664218" y="658.588125" style="stroke: #000000; stroke-width: 0.8"/>
      </g>
     </g>
     <g id="text_52">
      <!-- 200 -->
      <g transform="translate(1013.664218 679.475625) scale(0.2 -0.2)">
       <use xlink:href="#TimesNewRomanPSMT-32"/>
       <use xlink:href="#TimesNewRomanPSMT-30" x="50"/>
       <use xlink:href="#TimesNewRomanPSMT-30" x="100"/>
      </g>
     </g>
    </g>
   </g>
   <g id="matplotlib.axis_8">
    <g id="ytick_9">
     <g id="line2d_56">
      <g>
       <use xlink:href="#m7b5e4a3be2" x="71.6375" y="633.368147" style="stroke: #000000; stroke-width: 0.8"/>
      </g>
     </g>
     <g id="text_53">
      <!-- 10.0 -->
      <g transform="translate(29.6375 640.311897) scale(0.2 -0.2)">
       <use xlink:href="#TimesNewRomanPSMT-31"/>
       <use xlink:href="#TimesNewRomanPSMT-30" x="50"/>
       <use xlink:href="#TimesNewRomanPSMT-2e" x="100"/>
       <use xlink:href="#TimesNewRomanPSMT-30" x="125"/>
      </g>
     </g>
    </g>
    <g id="ytick_10">
     <g id="line2d_57">
      <g>
       <use xlink:href="#m7b5e4a3be2" x="71.6375" y="554.071508" style="stroke: #000000; stroke-width: 0.8"/>
      </g>
     </g>
     <g id="text_54">
      <!-- 20.0 -->
      <g transform="translate(29.6375 561.015258) scale(0.2 -0.2)">
       <use xlink:href="#TimesNewRomanPSMT-32"/>
       <use xlink:href="#TimesNewRomanPSMT-30" x="50"/>
       <use xlink:href="#TimesNewRomanPSMT-2e" x="100"/>
       <use xlink:href="#TimesNewRomanPSMT-30" x="125"/>
      </g>
     </g>
    </g>
    <g id="text_55">
     <!-- CPU使用率 -->
     <g transform="translate(23.059375 650.72375) rotate(-90) scale(0.2 -0.2)">
      <use xlink:href="#SimSun-43"/>
      <use xlink:href="#SimSun-50" x="50"/>
      <use xlink:href="#SimSun-55" x="100"/>
      <use xlink:href="#SimSun-4f7f" x="150"/>
      <use xlink:href="#SimSun-7528" x="250"/>
      <use xlink:href="#SimSun-7387" x="350"/>
     </g>
    </g>
   </g>
   <g id="line2d_58">
    <path d="M 115.252891 616.081477 
L 119.819948 617.318506 
L 124.387004 597.843249 
L 128.954061 590.492458 
L 133.521117 596.320758 
L 138.088174 599.762232 
L 142.655231 599.37368 
L 147.222287 601.593984 
L 151.789344 601.538477 
L 156.356401 605.312995 
L 160.923457 607.699821 
L 165.490514 610.403841 
L 170.057571 608.323092 
L 174.624627 584.391377 
L 188.325797 590.846125 
L 192.892854 592.195748 
L 197.45991 604.835632 
L 202.026967 604.225043 
L 206.594024 607.155849 
L 211.16108 606.475482 
L 215.728137 604.277381 
L 220.295194 600.247529 
L 224.86225 608.040806 
L 229.429307 584.564237 
L 233.996363 574.295336 
L 238.56342 578.393386 
L 243.130477 571.64364 
L 247.697533 589.542487 
L 252.26459 593.821329 
L 256.831647 598.943891 
L 261.398703 601.963509 
L 265.96576 600.07625 
L 270.532817 603.041941 
L 275.099873 606.600775 
L 279.66693 599.375268 
L 284.233986 580.735799 
L 288.801043 581.787278 
L 293.3681 585.37466 
L 297.935156 597.708451 
L 302.502213 596.376265 
L 307.06927 595.987713 
L 311.636326 591.602606 
L 316.203383 593.267835 
L 320.77044 596.154236 
L 325.337496 599.59571 
L 329.904553 604.258347 
L 334.471609 603.203706 
L 339.038666 584.75455 
L 348.172779 601.489314 
L 352.739836 600.355367 
L 357.306893 600.913617 
L 361.873949 600.710615 
L 366.441006 602.385365 
L 371.008063 597.158133 
L 375.575119 597.970129 
L 380.142176 599.797117 
L 384.709232 603.400364 
L 389.276289 653.782273 
L 393.843346 566.990517 
L 398.410402 557.665227 
L 402.977459 574.117713 
L 407.544516 584.775165 
L 412.111572 588.543346 
L 416.678629 591.569301 
L 421.245686 596.764825 
L 425.812742 596.859974 
L 430.379799 602.740613 
L 434.946855 603.60336 
L 439.513912 605.278103 
L 444.080969 607.105098 
L 448.648025 588.854188 
L 453.215082 586.487969 
L 457.782139 594.481073 
L 462.349195 604.034737 
L 466.916252 600.355367 
L 471.483309 603.451107 
L 476.050365 602.892857 
L 480.617422 603.755612 
L 485.184478 605.125858 
L 489.751535 606.1916 
L 494.318592 608.67834 
L 498.885648 601.268865 
L 503.452705 594.975883 
L 508.019762 604.364605 
L 512.586818 610.048594 
L 517.153875 605.024357 
L 521.720932 608.67834 
L 526.287988 608.67834 
L 530.855045 604.618359 
L 535.422102 608.830599 
L 539.989158 608.627596 
L 544.556215 609.135096 
L 549.123271 604.567608 
L 553.690328 602.892857 
L 558.257385 603.197361 
L 562.824441 608.526095 
L 567.391498 609.79484 
L 571.958555 606.445354 
L 576.525611 608.221598 
L 581.092668 606.851352 
L 585.659725 599.746374 
L 590.226781 608.424594 
L 594.793838 608.475352 
L 599.360894 609.79484 
L 603.927951 608.272349 
L 608.495008 606.293109 
L 613.062064 607.612597 
L 617.629121 607.764842 
L 622.196178 607.003604 
L 626.763234 610.759088 
L 631.330291 613.753327 
L 635.897348 609.439593 
L 640.464404 609.541094 
L 645.031461 612.281587 
L 649.598517 609.845591 
L 654.165574 604.516857 
L 658.732631 610.150087 
L 663.299687 606.242351 
L 667.866744 606.597606 
L 672.433801 608.170848 
L 677.000857 606.394603 
L 681.567914 605.734859 
L 686.134971 608.354816 
L 690.702027 608.272349 
L 695.269084 605.734859 
L 699.83614 606.445354 
L 704.403197 606.090106 
L 708.970254 609.541094 
L 713.53731 610.606844 
L 718.104367 596.606228 
L 722.671424 597.507036 
L 727.23848 598.820187 
L 731.805537 593.339209 
L 736.372594 595.28038 
L 740.93965 594.823638 
L 745.506707 583.379554 
L 750.073763 583.056023 
L 754.64082 580.150596 
L 759.207877 578.78035 
L 763.774933 581.17827 
L 768.34199 576.610782 
L 772.909047 592.882452 
L 777.476103 586.031228 
L 782.04316 590.712899 
L 786.610217 587.116004 
L 791.177273 581.006998 
L 795.74433 593.282106 
L 800.311386 592.882452 
L 804.878443 594.024332 
L 809.4455 593.967229 
L 814.012556 594.423985 
L 818.579613 594.423985 
L 823.14667 596.365164 
L 827.713726 594.309794 
L 832.280783 592.654078 
L 836.84784 581.349556 
L 841.414896 581.857048 
L 845.981953 581.286124 
L 850.549009 589.342653 
L 855.116066 587.915311 
L 859.683123 588.257876 
L 864.250179 590.370341 
L 868.817236 593.567575 
L 873.384293 593.853045 
L 877.951349 594.880726 
L 882.518406 578.931006 
L 887.085463 584.878254 
L 891.652519 590.598716 
L 896.219576 590.370341 
L 900.786632 589.97068 
L 905.353689 590.941274 
L 909.920746 590.827083 
L 914.487802 589.228462 
L 919.054859 589.685218 
L 923.621916 585.745758 
L 928.188972 584.432607 
L 932.756029 588.372067 
L 937.323086 590.313238 
L 946.457199 591.74058 
L 951.024255 589.742306 
L 955.591312 592.31152 
L 960.158369 592.996643 
L 964.725425 592.254425 
L 969.292482 586.145411 
L 973.859539 593.453384 
L 978.426595 597.221566 
L 982.993652 596.650634 
L 987.560709 586.659255 
L 987.560709 586.659255 
" clip-path="url(#pc298b589ac)" style="fill: none; stroke: #1f77b4; stroke-width: 1.5; stroke-linecap: square"/>
   </g>
   <g id="line2d_59">
    <path d="M 772.909047 581.478161 
L 777.476103 579.69837 
L 782.04316 575.615112 
L 786.610217 575.007858 
L 791.177273 579.383006 
L 795.74433 580.090113 
L 800.311386 582.374492 
L 804.878443 579.553612 
L 809.4455 575.303696 
L 814.012556 578.697149 
L 818.579613 582.191832 
L 823.14667 582.639566 
L 827.713726 583.094848 
L 832.280783 573.851141 
L 836.84784 575.571372 
L 841.414896 577.336023 
L 845.981953 576.752016 
L 850.549009 577.793437 
L 855.116066 582.802519 
L 859.683123 579.226542 
L 864.250179 581.236046 
L 868.817236 577.289802 
L 873.384293 582.538791 
L 877.951349 577.438024 
L 882.518406 580.702479 
L 887.085463 573.468352 
L 891.652519 568.916487 
L 896.219576 571.711444 
L 900.786632 569.359639 
L 905.353689 573.213668 
L 909.920746 571.36025 
L 914.487802 569.407569 
L 919.054859 569.523091 
L 923.621916 569.933014 
L 928.188972 571.437461 
L 932.756029 571.48344 
L 937.323086 570.264425 
L 941.890142 567.002964 
L 946.457199 565.889942 
L 951.024255 568.666946 
L 955.591312 571.128737 
L 960.158369 572.299323 
L 964.725425 572.383099 
L 969.292482 571.161286 
L 973.859539 571.086963 
L 978.426595 575.143828 
L 982.993652 573.971805 
L 987.560709 576.370648 
" clip-path="url(#pc298b589ac)" style="fill: none; stroke: #ff7f0e; stroke-width: 1.5; stroke-linecap: square"/>
   </g>
   <g id="line2d_60">
    <path d="M 772.909047 658.588125 
L 772.909047 552.859375 
" clip-path="url(#pc298b589ac)" style="fill: none; stroke-dasharray: 7.4,3.2; stroke-dashoffset: 0; stroke: #0000ff; stroke-width: 2"/>
   </g>
   <g id="patch_19">
    <path d="M 71.6375 658.588125 
L 71.6375 552.859375 
" style="fill: none; stroke: #000000; stroke-width: 0.8; stroke-linejoin: miter; stroke-linecap: square"/>
   </g>
   <g id="patch_20">
    <path d="M 1031.176099 658.588125 
L 1031.176099 552.859375 
" style="fill: none; stroke: #000000; stroke-width: 0.8; stroke-linejoin: miter; stroke-linecap: square"/>
   </g>
   <g id="patch_21">
    <path d="M 71.6375 658.588125 
L 1031.176099 658.588125 
" style="fill: none; stroke: #000000; stroke-width: 0.8; stroke-linejoin: miter; stroke-linecap: square"/>
   </g>
   <g id="patch_22">
    <path d="M 71.6375 552.859375 
L 1031.176099 552.859375 
" style="fill: none; stroke: #000000; stroke-width: 0.8; stroke-linejoin: miter; stroke-linecap: square"/>
   </g>
   <g id="text_56">
    <!-- 云函数ID: 165 -->
    <g transform="translate(486.4068 546.859375) scale(0.2 -0.2)">
     <defs>
      <path id="SimSun-36" d="M 775 1800 
Q 775 1050 1037 637 
Q 1300 225 1675 225 
Q 2050 225 2250 500 
Q 2450 775 2450 1525 
Q 2450 2025 2237 2300 
Q 2025 2575 1725 2575 
Q 1450 2575 1212 2412 
Q 975 2250 775 1800 
z
M 1750 2825 
Q 2350 2825 2612 2425 
Q 2875 2025 2875 1525 
Q 2875 775 2512 412 
Q 2150 50 1675 50 
Q 1000 50 650 562 
Q 300 1075 300 2050 
Q 300 3200 725 3812 
Q 1150 4425 1875 4425 
Q 2225 4425 2437 4225 
Q 2650 4025 2650 3875 
Q 2650 3725 2587 3650 
Q 2525 3575 2375 3575 
Q 2250 3575 2187 3637 
Q 2125 3700 2125 3825 
Q 2125 3875 2150 3925 
Q 2150 3975 2150 4025 
Q 2150 4125 2075 4187 
Q 2000 4250 1800 4250 
Q 1375 4250 1075 3862 
Q 775 3475 775 2175 
Q 925 2500 1187 2662 
Q 1450 2825 1750 2825 
z
" transform="scale(0.015625)"/>
     </defs>
     <use xlink:href="#SimSun-4e91"/>
     <use xlink:href="#SimSun-51fd" x="100"/>
     <use xlink:href="#SimSun-6570" x="200"/>
     <use xlink:href="#SimSun-49" x="300"/>
     <use xlink:href="#SimSun-44" x="350"/>
     <use xlink:href="#SimSun-3a" x="400"/>
     <use xlink:href="#SimSun-20" x="450"/>
     <use xlink:href="#SimSun-31" x="500"/>
     <use xlink:href="#SimSun-36" x="550"/>
     <use xlink:href="#SimSun-35" x="600"/>
    </g>
   </g>
  </g>
 </g>
 <defs>
  <clipPath id="p516fda4ac0">
   <rect x="71.6375" y="29.059375" width="959.538599" height="105.72875"/>
  </clipPath>
  <clipPath id="p9116c6b5c5">
   <rect x="71.6375" y="203.659375" width="959.538599" height="105.72875"/>
  </clipPath>
  <clipPath id="pe80e051eb8">
   <rect x="71.6375" y="378.259375" width="959.538599" height="105.72875"/>
  </clipPath>
  <clipPath id="pc298b589ac">
   <rect x="71.6375" y="552.859375" width="959.538599" height="105.72875"/>
  </clipPath>
 </defs>
</svg>
