<?xml version="1.0" encoding="utf-8" standalone="no"?>
<!DOCTYPE svg PUBLIC "-//W3C//DTD SVG 1.1//EN"
  "http://www.w3.org/Graphics/SVG/1.1/DTD/svg11.dtd">
<svg xmlns:xlink="http://www.w3.org/1999/xlink" width="1050.735187pt" height="691.34625pt" viewBox="0 0 1050.735187 691.34625" xmlns="http://www.w3.org/2000/svg" version="1.1">
 <metadata>
  <rdf:RDF xmlns:dc="http://purl.org/dc/elements/1.1/" xmlns:cc="http://creativecommons.org/ns#" xmlns:rdf="http://www.w3.org/1999/02/22-rdf-syntax-ns#">
   <cc:Work>
    <dc:type rdf:resource="http://purl.org/dc/dcmitype/StillImage"/>
    <dc:date>2024-02-24T21:59:21.735580</dc:date>
    <dc:format>image/svg+xml</dc:format>
    <dc:creator>
     <cc:Agent>
      <dc:title>Matplotlib v3.7.4, https://matplotlib.org/</dc:title>
     </cc:Agent>
    </dc:creator>
   </cc:Work>
  </rdf:RDF>
 </metadata>
 <defs>
  <style type="text/css">*{stroke-linejoin: round; stroke-linecap: butt}</style>
 </defs>
 <g id="figure_1">
  <g id="patch_1">
   <path d="M 0 691.34625 
L 1050.735187 691.34625 
L 1050.735187 0 
L 0 0 
z
" style="fill: #ffffff"/>
  </g>
  <g id="axes_1">
   <g id="patch_2">
    <path d="M 56.6375 193.380625 
L 1031.086099 193.380625 
L 1031.086099 27.340625 
L 56.6375 27.340625 
z
" style="fill: #ffffff"/>
   </g>
   <g id="matplotlib.axis_1">
    <g id="xtick_1">
     <g id="line2d_1">
      <defs>
       <path id="mcac9de76ec" d="M 0 0 
L 0 3.5 
" style="stroke: #000000; stroke-width: 0.8"/>
      </defs>
      <g>
       <use xlink:href="#mcac9de76ec" x="100.930618" y="193.380625" style="stroke: #000000; stroke-width: 0.8"/>
      </g>
     </g>
     <g id="text_1">
      <!-- 0 -->
      <g transform="translate(95.930618 214.268125) scale(0.2 -0.2)">
       <defs>
        <path id="TimesNewRomanPSMT-30" d="M 231 2094 
Q 231 2819 450 3342 
Q 669 3866 1031 4122 
Q 1313 4325 1613 4325 
Q 2100 4325 2488 3828 
Q 2972 3213 2972 2159 
Q 2972 1422 2759 906 
Q 2547 391 2217 158 
Q 1888 -75 1581 -75 
Q 975 -75 572 641 
Q 231 1244 231 2094 
z
M 844 2016 
Q 844 1141 1059 588 
Q 1238 122 1591 122 
Q 1759 122 1940 273 
Q 2122 425 2216 781 
Q 2359 1319 2359 2297 
Q 2359 3022 2209 3506 
Q 2097 3866 1919 4016 
Q 1791 4119 1609 4119 
Q 1397 4119 1231 3928 
Q 1006 3669 925 3112 
Q 844 2556 844 2016 
z
" transform="scale(0.015625)"/>
       </defs>
       <use xlink:href="#TimesNewRomanPSMT-30"/>
      </g>
     </g>
    </g>
    <g id="xtick_2">
     <g id="line2d_2">
      <g>
       <use xlink:href="#mcac9de76ec" x="216.881189" y="193.380625" style="stroke: #000000; stroke-width: 0.8"/>
      </g>
     </g>
     <g id="text_2">
      <!-- 25 -->
      <g transform="translate(206.881189 214.268125) scale(0.2 -0.2)">
       <defs>
        <path id="TimesNewRomanPSMT-32" d="M 2934 816 
L 2638 0 
L 138 0 
L 138 116 
Q 1241 1122 1691 1759 
Q 2141 2397 2141 2925 
Q 2141 3328 1894 3587 
Q 1647 3847 1303 3847 
Q 991 3847 742 3664 
Q 494 3481 375 3128 
L 259 3128 
Q 338 3706 661 4015 
Q 984 4325 1469 4325 
Q 1984 4325 2329 3994 
Q 2675 3663 2675 3213 
Q 2675 2891 2525 2569 
Q 2294 2063 1775 1497 
Q 997 647 803 472 
L 1909 472 
Q 2247 472 2383 497 
Q 2519 522 2628 598 
Q 2738 675 2819 816 
L 2934 816 
z
" transform="scale(0.015625)"/>
        <path id="TimesNewRomanPSMT-35" d="M 2778 4238 
L 2534 3706 
L 1259 3706 
L 981 3138 
Q 1809 3016 2294 2522 
Q 2709 2097 2709 1522 
Q 2709 1188 2573 903 
Q 2438 619 2231 419 
Q 2025 219 1772 97 
Q 1413 -75 1034 -75 
Q 653 -75 479 54 
Q 306 184 306 341 
Q 306 428 378 495 
Q 450 563 559 563 
Q 641 563 702 538 
Q 763 513 909 409 
Q 1144 247 1384 247 
Q 1750 247 2026 523 
Q 2303 800 2303 1197 
Q 2303 1581 2056 1914 
Q 1809 2247 1375 2428 
Q 1034 2569 447 2591 
L 1259 4238 
L 2778 4238 
z
" transform="scale(0.015625)"/>
       </defs>
       <use xlink:href="#TimesNewRomanPSMT-32"/>
       <use xlink:href="#TimesNewRomanPSMT-35" x="50"/>
      </g>
     </g>
    </g>
    <g id="xtick_3">
     <g id="line2d_3">
      <g>
       <use xlink:href="#mcac9de76ec" x="332.83176" y="193.380625" style="stroke: #000000; stroke-width: 0.8"/>
      </g>
     </g>
     <g id="text_3">
      <!-- 50 -->
      <g transform="translate(322.83176 214.268125) scale(0.2 -0.2)">
       <use xlink:href="#TimesNewRomanPSMT-35"/>
       <use xlink:href="#TimesNewRomanPSMT-30" x="50"/>
      </g>
     </g>
    </g>
    <g id="xtick_4">
     <g id="line2d_4">
      <g>
       <use xlink:href="#mcac9de76ec" x="448.782331" y="193.380625" style="stroke: #000000; stroke-width: 0.8"/>
      </g>
     </g>
     <g id="text_4">
      <!-- 75 -->
      <g transform="translate(438.782331 214.268125) scale(0.2 -0.2)">
       <defs>
        <path id="TimesNewRomanPSMT-37" d="M 644 4238 
L 2916 4238 
L 2916 4119 
L 1503 -88 
L 1153 -88 
L 2419 3728 
L 1253 3728 
Q 900 3728 750 3644 
Q 488 3500 328 3200 
L 238 3234 
L 644 4238 
z
" transform="scale(0.015625)"/>
       </defs>
       <use xlink:href="#TimesNewRomanPSMT-37"/>
       <use xlink:href="#TimesNewRomanPSMT-35" x="50"/>
      </g>
     </g>
    </g>
    <g id="xtick_5">
     <g id="line2d_5">
      <g>
       <use xlink:href="#mcac9de76ec" x="564.732903" y="193.380625" style="stroke: #000000; stroke-width: 0.8"/>
      </g>
     </g>
     <g id="text_5">
      <!-- 100 -->
      <g transform="translate(549.732903 214.268125) scale(0.2 -0.2)">
       <defs>
        <path id="TimesNewRomanPSMT-31" d="M 750 3822 
L 1781 4325 
L 1884 4325 
L 1884 747 
Q 1884 391 1914 303 
Q 1944 216 2037 169 
Q 2131 122 2419 116 
L 2419 0 
L 825 0 
L 825 116 
Q 1125 122 1212 167 
Q 1300 213 1334 289 
Q 1369 366 1369 747 
L 1369 3034 
Q 1369 3497 1338 3628 
Q 1316 3728 1258 3775 
Q 1200 3822 1119 3822 
Q 1003 3822 797 3725 
L 750 3822 
z
" transform="scale(0.015625)"/>
       </defs>
       <use xlink:href="#TimesNewRomanPSMT-31"/>
       <use xlink:href="#TimesNewRomanPSMT-30" x="50"/>
       <use xlink:href="#TimesNewRomanPSMT-30" x="100"/>
      </g>
     </g>
    </g>
    <g id="xtick_6">
     <g id="line2d_6">
      <g>
       <use xlink:href="#mcac9de76ec" x="680.683474" y="193.380625" style="stroke: #000000; stroke-width: 0.8"/>
      </g>
     </g>
     <g id="text_6">
      <!-- 125 -->
      <g transform="translate(665.683474 214.268125) scale(0.2 -0.2)">
       <use xlink:href="#TimesNewRomanPSMT-31"/>
       <use xlink:href="#TimesNewRomanPSMT-32" x="50"/>
       <use xlink:href="#TimesNewRomanPSMT-35" x="100"/>
      </g>
     </g>
    </g>
    <g id="xtick_7">
     <g id="line2d_7">
      <g>
       <use xlink:href="#mcac9de76ec" x="796.634045" y="193.380625" style="stroke: #000000; stroke-width: 0.8"/>
      </g>
     </g>
     <g id="text_7">
      <!-- 150 -->
      <g transform="translate(781.634045 214.268125) scale(0.2 -0.2)">
       <use xlink:href="#TimesNewRomanPSMT-31"/>
       <use xlink:href="#TimesNewRomanPSMT-35" x="50"/>
       <use xlink:href="#TimesNewRomanPSMT-30" x="100"/>
      </g>
     </g>
    </g>
    <g id="xtick_8">
     <g id="line2d_8">
      <g>
       <use xlink:href="#mcac9de76ec" x="912.584616" y="193.380625" style="stroke: #000000; stroke-width: 0.8"/>
      </g>
     </g>
     <g id="text_8">
      <!-- 175 -->
      <g transform="translate(897.584616 214.268125) scale(0.2 -0.2)">
       <use xlink:href="#TimesNewRomanPSMT-31"/>
       <use xlink:href="#TimesNewRomanPSMT-37" x="50"/>
       <use xlink:href="#TimesNewRomanPSMT-35" x="100"/>
      </g>
     </g>
    </g>
    <g id="xtick_9">
     <g id="line2d_9">
      <g>
       <use xlink:href="#mcac9de76ec" x="1028.535187" y="193.380625" style="stroke: #000000; stroke-width: 0.8"/>
      </g>
     </g>
     <g id="text_9">
      <!-- 200 -->
      <g transform="translate(1013.535187 214.268125) scale(0.2 -0.2)">
       <use xlink:href="#TimesNewRomanPSMT-32"/>
       <use xlink:href="#TimesNewRomanPSMT-30" x="50"/>
       <use xlink:href="#TimesNewRomanPSMT-30" x="100"/>
      </g>
     </g>
    </g>
   </g>
   <g id="matplotlib.axis_2">
    <g id="ytick_1">
     <g id="line2d_10">
      <defs>
       <path id="m297c2a0a8e" d="M 0 0 
L -3.5 0 
" style="stroke: #000000; stroke-width: 0.8"/>
      </defs>
      <g>
       <use xlink:href="#m297c2a0a8e" x="56.6375" y="191.529408" style="stroke: #000000; stroke-width: 0.8"/>
      </g>
     </g>
     <g id="text_10">
      <!-- 0 -->
      <g transform="translate(39.6375 198.473158) scale(0.2 -0.2)">
       <use xlink:href="#TimesNewRomanPSMT-30"/>
      </g>
     </g>
    </g>
    <g id="ytick_2">
     <g id="line2d_11">
      <g>
       <use xlink:href="#m297c2a0a8e" x="56.6375" y="134.568859" style="stroke: #000000; stroke-width: 0.8"/>
      </g>
     </g>
     <g id="text_11">
      <!-- 20 -->
      <g transform="translate(29.6375 141.512609) scale(0.2 -0.2)">
       <use xlink:href="#TimesNewRomanPSMT-32"/>
       <use xlink:href="#TimesNewRomanPSMT-30" x="50"/>
      </g>
     </g>
    </g>
    <g id="ytick_3">
     <g id="line2d_12">
      <g>
       <use xlink:href="#m297c2a0a8e" x="56.6375" y="77.60831" style="stroke: #000000; stroke-width: 0.8"/>
      </g>
     </g>
     <g id="text_12">
      <!-- 40 -->
      <g transform="translate(29.6375 84.55206) scale(0.2 -0.2)">
       <defs>
        <path id="TimesNewRomanPSMT-34" d="M 2978 1563 
L 2978 1119 
L 2409 1119 
L 2409 0 
L 1894 0 
L 1894 1119 
L 100 1119 
L 100 1519 
L 2066 4325 
L 2409 4325 
L 2409 1563 
L 2978 1563 
z
M 1894 1563 
L 1894 3666 
L 406 1563 
L 1894 1563 
z
" transform="scale(0.015625)"/>
       </defs>
       <use xlink:href="#TimesNewRomanPSMT-34"/>
       <use xlink:href="#TimesNewRomanPSMT-30" x="50"/>
      </g>
     </g>
    </g>
    <g id="text_13">
     <!-- CPU使用率 -->
     <g transform="translate(23.059375 155.360625) rotate(-90) scale(0.2 -0.2)">
      <defs>
       <path id="SimSun-43" d="M 1725 50 
Q 1025 50 612 575 
Q 200 1100 200 2225 
Q 200 3175 637 3800 
Q 1075 4425 1825 4425 
Q 2000 4425 2175 4375 
Q 2350 4300 2475 4300 
Q 2575 4300 2637 4325 
Q 2700 4350 2750 4425 
L 2975 3325 
L 2825 3275 
Q 2675 3750 2425 4000 
Q 2175 4250 1775 4250 
Q 1250 4250 962 3675 
Q 675 3100 675 2250 
Q 675 1325 925 800 
Q 1175 275 1750 275 
Q 2150 275 2437 562 
Q 2725 850 2825 1325 
L 2975 1250 
Q 2850 725 2512 387 
Q 2175 50 1725 50 
z
" transform="scale(0.015625)"/>
       <path id="SimSun-50" d="M 950 2100 
L 950 450 
Q 950 350 1012 300 
Q 1075 250 1175 250 
L 1350 250 
L 1350 100 
L 150 100 
L 150 250 
L 325 250 
Q 450 250 500 300 
Q 550 350 550 450 
L 550 4025 
Q 550 4125 500 4175 
Q 450 4225 325 4225 
L 175 4225 
L 175 4375 
L 1650 4375 
Q 2275 4375 2612 4062 
Q 2950 3750 2950 3275 
Q 2950 2700 2587 2400 
Q 2225 2100 1725 2100 
L 950 2100 
z
M 1575 2250 
Q 1950 2250 2237 2475 
Q 2525 2700 2525 3250 
Q 2525 3750 2287 3987 
Q 2050 4225 1525 4225 
L 1175 4225 
Q 1075 4225 1012 4175 
Q 950 4125 950 4025 
L 950 2250 
L 1575 2250 
z
" transform="scale(0.015625)"/>
       <path id="SimSun-55" d="M 1625 250 
Q 2000 250 2262 500 
Q 2525 750 2525 1125 
L 2525 4025 
Q 2525 4125 2475 4175 
Q 2425 4225 2300 4225 
L 2150 4225 
L 2150 4375 
L 3050 4375 
L 3050 4225 
L 2900 4225 
Q 2800 4225 2737 4175 
Q 2675 4125 2675 4025 
L 2675 1125 
Q 2675 625 2337 337 
Q 2000 50 1575 50 
Q 1125 50 787 300 
Q 450 550 450 1100 
L 450 4025 
Q 450 4125 400 4175 
Q 350 4225 225 4225 
L 100 4225 
L 100 4375 
L 1200 4375 
L 1200 4225 
L 1075 4225 
Q 975 4225 912 4175 
Q 850 4125 850 4025 
L 850 1100 
Q 850 600 1062 425 
Q 1275 250 1625 250 
z
" transform="scale(0.015625)"/>
       <path id="SimSun-4f7f" d="M 2875 3150 
L 2875 2100 
L 3825 2100 
Q 3850 2825 3850 3150 
L 2875 3150 
z
M 4175 3150 
Q 4175 2800 4150 2100 
L 5150 2100 
L 5150 3150 
L 4175 3150 
z
M 5475 3100 
L 5475 2425 
Q 5475 2100 5500 1800 
L 5150 1675 
L 5150 1950 
L 4150 1950 
Q 4125 1175 3875 600 
Q 4275 275 4875 75 
Q 5475 -125 6075 -150 
L 6075 -250 
Q 5700 -300 5600 -575 
Q 4525 -325 3725 350 
Q 3425 25 2925 -225 
Q 2425 -475 1875 -650 
L 1825 -550 
Q 2400 -325 2850 -25 
Q 3300 275 3500 575 
Q 3200 925 2825 1650 
L 2900 1700 
Q 3325 1100 3625 825 
Q 3800 1300 3825 1950 
L 2875 1950 
L 2875 1825 
L 2525 1675 
Q 2550 2075 2550 2562 
Q 2550 3050 2525 3500 
L 2875 3300 
L 3850 3300 
L 3850 4025 
L 2975 4025 
Q 2650 4025 2375 3950 
L 2150 4175 
L 3850 4175 
L 3850 4525 
Q 3850 4775 3825 5225 
L 4350 5000 
L 4175 4825 
L 4175 4175 
L 5300 4175 
L 5600 4475 
L 6050 4025 
L 4175 4025 
L 4175 3300 
L 5100 3300 
L 5275 3525 
L 5650 3225 
L 5475 3100 
z
M 1675 3175 
L 1675 -450 
L 1325 -625 
Q 1350 -75 1350 350 
L 1350 3200 
Q 900 2475 350 1900 
L 275 1950 
Q 700 2525 1112 3400 
Q 1525 4275 1800 5250 
L 2325 4925 
L 2125 4800 
Q 1725 3925 1500 3525 
L 1875 3325 
L 1675 3175 
z
" transform="scale(0.015625)"/>
       <path id="SimSun-7528" d="M 3400 3150 
L 3400 1825 
L 5075 1825 
L 5075 3150 
L 3400 3150 
z
M 4075 100 
Q 4725 50 4900 62 
Q 5075 75 5075 400 
L 5075 1675 
L 3400 1675 
Q 3400 75 3425 -225 
L 3050 -400 
Q 3075 1025 3075 1675 
L 1425 1675 
Q 1250 350 375 -600 
L 300 -550 
Q 775 225 950 1025 
Q 1125 1825 1125 3225 
Q 1125 4625 1100 5075 
L 1475 4825 
L 5050 4825 
L 5225 5100 
L 5625 4800 
L 5425 4600 
L 5425 225 
Q 5450 -400 4875 -575 
Q 4825 -150 4075 -25 
L 4075 100 
z
M 1475 4675 
L 1475 3300 
L 3075 3300 
L 3075 4675 
L 1475 4675 
z
M 3400 4675 
L 3400 3300 
L 5075 3300 
L 5075 4675 
L 3400 4675 
z
M 1475 3150 
Q 1450 2100 1425 1825 
L 3075 1825 
L 3075 3150 
L 1475 3150 
z
" transform="scale(0.015625)"/>
       <path id="SimSun-7387" d="M 875 3725 
L 925 3800 
Q 1375 3650 1550 3525 
Q 1725 3400 1725 3250 
Q 1725 3175 1662 3025 
Q 1600 2875 1550 2875 
Q 1500 2875 1425 3050 
Q 1275 3325 875 3725 
z
M 550 1850 
Q 875 1925 2000 2575 
L 2050 2500 
Q 1675 2225 1337 1937 
Q 1000 1650 875 1425 
L 550 1850 
z
M 5200 3450 
Q 4800 3150 4275 2800 
L 4225 2875 
Q 4775 3400 5050 3925 
L 5450 3525 
L 5200 3450 
z
M 4325 2500 
L 4350 2575 
Q 5225 2350 5375 2212 
Q 5525 2075 5525 1900 
Q 5525 1775 5487 1662 
Q 5450 1550 5400 1550 
Q 5325 1550 5200 1800 
Q 4975 2150 4325 2500 
z
M 3150 3900 
Q 2500 3300 2300 3150 
Q 2800 3150 3400 3175 
Q 3700 3500 3850 3825 
L 4250 3450 
Q 4050 3400 3450 2825 
Q 2850 2250 2475 1950 
Q 3150 1975 3850 2000 
Q 3750 2175 3550 2450 
L 3600 2500 
Q 4050 2250 4200 2100 
Q 4350 1950 4350 1850 
Q 4350 1775 4250 1625 
Q 4150 1475 4100 1475 
Q 4075 1475 4050 1550 
Q 4000 1700 3900 1900 
Q 3650 1875 3075 1800 
L 3500 1550 
L 3325 1425 
L 3325 975 
L 5325 975 
L 5650 1300 
L 6100 825 
L 3325 825 
Q 3325 -275 3350 -525 
L 2975 -650 
Q 3000 0 3000 825 
L 1125 825 
Q 800 825 525 750 
L 300 975 
L 3000 975 
L 3000 1775 
Q 2450 1700 2200 1525 
L 1950 1950 
Q 2275 1950 2675 2350 
Q 3075 2750 3325 3050 
Q 2400 2950 2150 2775 
L 1950 3175 
Q 2150 3150 2475 3575 
Q 2800 4000 2900 4225 
L 1450 4225 
Q 1125 4225 850 4150 
L 625 4375 
L 3100 4375 
Q 3050 4800 2675 5200 
L 2725 5250 
Q 3225 5050 3337 4912 
Q 3450 4775 3450 4700 
Q 3450 4550 3250 4375 
L 5025 4375 
L 5350 4675 
L 5775 4225 
L 3050 4225 
L 3375 3950 
L 3150 3900 
z
" transform="scale(0.015625)"/>
      </defs>
      <use xlink:href="#SimSun-43"/>
      <use xlink:href="#SimSun-50" x="50"/>
      <use xlink:href="#SimSun-55" x="100"/>
      <use xlink:href="#SimSun-4f7f" x="150"/>
      <use xlink:href="#SimSun-7528" x="250"/>
      <use xlink:href="#SimSun-7387" x="350"/>
     </g>
    </g>
   </g>
   <g id="line2d_13">
    <path d="M 100.930618 145.960971 
L 105.568641 114.632667 
L 110.206664 148.808996 
L 114.844687 163.049133 
L 119.48271 128.872804 
L 124.120732 120.328721 
L 128.758755 120.328721 
L 133.396778 117.480694 
L 138.034801 126.024776 
L 142.672824 143.112941 
L 147.310847 114.632667 
L 151.948869 123.176749 
L 156.586892 123.176749 
L 161.224915 117.480694 
L 165.862938 128.872804 
L 170.500961 151.657023 
L 175.138984 137.416886 
L 179.777007 154.505051 
L 184.415029 126.024776 
L 189.053052 137.416886 
L 193.691075 137.416886 
L 198.329098 103.240562 
L 202.967121 117.480694 
L 207.605144 145.960971 
L 212.243166 160.201106 
L 216.881189 143.112941 
L 221.519212 148.808996 
L 226.157235 140.264914 
L 230.795258 140.264914 
L 235.433281 83.304364 
L 240.071303 49.128035 
L 244.709326 77.60831 
L 249.347349 54.82409 
L 253.985372 66.2162 
L 258.623395 46.280018 
L 263.261418 66.2162 
L 267.899441 117.480694 
L 272.537463 83.304364 
L 277.175486 89.000419 
L 281.813509 145.960971 
L 286.451532 117.480694 
L 291.089555 106.08859 
L 295.727578 111.784639 
L 300.3656 69.064227 
L 305.003623 46.280018 
L 309.641646 108.936612 
L 314.279669 103.240562 
L 318.917692 89.000419 
L 323.555715 165.897161 
L 328.193738 177.289271 
L 332.83176 174.441243 
L 337.469783 174.441243 
L 342.107806 182.985326 
L 346.745829 177.289271 
L 351.383852 177.289271 
L 356.021875 185.833352 
L 360.659897 177.289271 
L 365.29792 177.289271 
L 369.935943 185.833352 
L 374.573966 174.441243 
L 379.211989 177.289271 
L 383.850012 171.593216 
L 388.488034 182.985326 
L 393.126057 163.049133 
L 397.76408 180.137298 
L 402.402103 185.833352 
L 407.040126 171.593216 
L 411.678149 168.745188 
L 416.316172 185.833352 
L 420.954194 171.593216 
L 425.592217 171.593216 
L 430.23024 157.353078 
L 434.868263 151.657023 
L 439.506286 151.657023 
L 444.144309 154.505051 
L 448.782331 126.024776 
L 453.420354 143.112941 
L 458.058377 103.240562 
L 462.6964 157.353078 
L 467.334423 97.544502 
L 471.972446 126.024776 
L 476.610469 123.176749 
L 481.248491 100.392529 
L 485.886514 126.024776 
L 490.524537 131.720831 
L 495.16256 148.808996 
L 499.800583 134.568859 
L 504.438606 163.049133 
L 509.076628 140.264914 
L 513.714651 134.568859 
L 518.352674 103.240562 
L 522.990697 83.304364 
L 527.62872 100.392529 
L 532.266743 51.976062 
L 536.904765 80.456337 
L 541.542788 100.392529 
L 546.180811 80.456337 
L 550.818834 106.08859 
L 555.456857 77.60831 
L 560.09488 46.280018 
L 564.732903 37.735925 
L 569.370925 49.128035 
L 574.008948 120.328721 
L 578.646971 69.064227 
L 583.284994 83.304364 
L 587.923017 83.304364 
L 597.199062 106.08859 
L 601.837085 120.328721 
L 606.475108 77.60831 
L 615.751154 117.480694 
L 620.389177 94.696474 
L 625.0272 111.784639 
L 629.665222 151.657023 
L 634.303245 145.960971 
L 638.941268 160.201106 
L 643.579291 185.833352 
L 648.217314 171.593216 
L 652.855337 174.441243 
L 657.493359 182.985326 
L 662.131382 185.833352 
L 666.769405 174.441243 
L 671.407428 180.137298 
L 676.045451 182.985326 
L 680.683474 182.985326 
L 685.321496 180.137298 
L 689.959519 182.985326 
L 694.597542 182.985326 
L 699.235565 177.289271 
L 703.873588 182.985326 
L 708.511611 180.137298 
L 713.149634 174.441243 
L 717.787656 160.201106 
L 722.425679 177.289271 
L 727.063702 180.137298 
L 731.701725 171.593216 
L 736.339748 180.137298 
L 740.977771 180.137298 
L 745.615793 157.353078 
L 750.253816 171.593216 
L 754.891839 163.049133 
L 759.529862 171.593216 
L 768.805908 154.505051 
L 773.443931 143.112941 
L 778.081953 123.176749 
L 782.719976 131.720831 
L 787.357999 94.696474 
L 791.996022 134.568859 
L 796.634045 143.112941 
L 801.272068 111.784639 
L 805.91009 128.872804 
L 810.548113 154.505051 
L 815.186136 123.176749 
L 819.824159 168.745188 
L 824.462182 137.416886 
L 829.100205 165.897161 
L 833.738227 128.872804 
L 838.37625 114.632667 
L 843.014273 69.064227 
L 847.652296 77.60831 
L 852.290319 94.696474 
L 856.928342 69.064227 
L 861.566365 71.912255 
L 866.204387 49.128035 
L 870.84241 103.240562 
L 875.480433 34.887898 
L 880.118456 83.304364 
L 884.756479 117.480694 
L 889.394502 111.784639 
L 894.032524 143.112941 
L 898.670547 100.392529 
L 903.30857 117.480694 
L 907.946593 94.696474 
L 912.584616 106.08859 
L 917.222639 91.848447 
L 921.860662 134.568859 
L 926.498684 128.872804 
L 931.136707 143.112941 
L 935.77473 148.808996 
L 940.412753 131.720831 
L 945.050776 171.593216 
L 949.688799 182.985326 
L 954.326821 174.441243 
L 958.964844 182.985326 
L 963.602867 177.289271 
L 977.516936 185.833352 
L 982.154958 185.833352 
L 986.792981 182.985326 
L 986.792981 182.985326 
" clip-path="url(#p8fc50897e4)" style="fill: none; stroke: #1f77b4; stroke-width: 1.5; stroke-linecap: square"/>
   </g>
   <g id="line2d_14">
    <path d="M 546.180811 105.072489 
L 550.818834 109.852858 
L 555.456857 110.735544 
L 560.09488 110.245767 
L 564.732903 109.866172 
L 569.370925 111.532439 
L 574.008948 114.558729 
L 578.646971 109.606161 
L 583.284994 107.674406 
L 587.923017 112.724314 
L 592.56104 114.92218 
L 597.199062 116.645148 
L 601.837085 118.676534 
L 606.475108 120.098669 
L 611.113131 124.848209 
L 615.751154 122.233125 
L 620.389177 122.179726 
L 625.0272 126.800378 
L 629.665222 128.134092 
L 634.303245 128.145962 
L 638.941268 129.871233 
L 643.579291 133.010779 
L 648.217314 136.935128 
L 652.855337 136.944134 
L 657.493359 137.043733 
L 662.131382 137.005692 
L 666.769405 137.847484 
L 671.407428 138.514888 
L 676.045451 139.785817 
L 680.683474 135.328701 
L 685.321496 134.850789 
L 689.959519 137.457926 
L 694.597542 141.864577 
L 699.235565 140.464215 
L 703.873588 137.941684 
L 708.511611 136.176562 
L 713.149634 133.839431 
L 717.787656 133.854467 
L 722.425679 132.04259 
L 727.063702 133.766976 
L 731.701725 131.111379 
L 736.339748 127.787612 
L 740.977771 130.880755 
L 745.615793 125.831798 
L 750.253816 124.976077 
L 754.891839 125.39404 
L 759.529862 124.296582 
L 764.167885 125.082141 
L 768.805908 118.049476 
L 773.443931 121.89131 
L 778.081953 118.354444 
L 782.719976 119.005252 
L 787.357999 115.847069 
L 791.996022 115.955685 
L 796.634045 115.442632 
L 801.272068 118.023646 
L 805.91009 113.464253 
L 810.548113 114.361709 
L 815.186136 113.282726 
L 819.824159 114.837156 
L 824.462182 112.023286 
L 829.100205 111.571812 
L 833.738227 112.367088 
L 838.37625 114.458625 
L 843.014273 115.414482 
L 847.652296 116.07936 
L 852.290319 116.832439 
L 856.928342 119.389258 
L 861.566365 119.855242 
L 866.204387 119.086371 
L 870.84241 124.404639 
L 875.480433 120.567944 
L 880.118456 124.370525 
L 884.756479 126.43031 
L 889.394502 130.83556 
L 894.032524 131.126301 
L 898.670547 129.838233 
L 903.30857 128.913105 
L 907.946593 125.722953 
L 912.584616 133.799385 
L 917.222639 133.842256 
L 921.860662 131.898887 
L 926.498684 135.494356 
L 931.136707 137.074968 
L 935.77473 137.76485 
L 940.412753 136.07083 
L 945.050776 137.785031 
L 949.688799 135.979124 
L 954.326821 134.274244 
L 958.964844 132.748654 
L 963.602867 133.917942 
L 968.24089 136.191511 
L 972.878913 131.809137 
L 977.516936 129.383125 
L 982.154958 132.219641 
L 986.792981 135.054496 
" clip-path="url(#p8fc50897e4)" style="fill: none; stroke: #ff7f0e; stroke-width: 1.5; stroke-linecap: square"/>
   </g>
   <g id="line2d_15">
    <path d="M 546.180811 193.380625 
L 546.180811 27.340625 
" clip-path="url(#p8fc50897e4)" style="fill: none; stroke-dasharray: 7.4,3.2; stroke-dashoffset: 0; stroke: #0000ff; stroke-width: 2"/>
   </g>
   <g id="patch_3">
    <path d="M 56.6375 193.380625 
L 56.6375 27.340625 
" style="fill: none; stroke: #000000; stroke-width: 0.8; stroke-linejoin: miter; stroke-linecap: square"/>
   </g>
   <g id="patch_4">
    <path d="M 1031.086099 193.380625 
L 1031.086099 27.340625 
" style="fill: none; stroke: #000000; stroke-width: 0.8; stroke-linejoin: miter; stroke-linecap: square"/>
   </g>
   <g id="patch_5">
    <path d="M 56.6375 193.380625 
L 1031.086099 193.380625 
" style="fill: none; stroke: #000000; stroke-width: 0.8; stroke-linejoin: miter; stroke-linecap: square"/>
   </g>
   <g id="patch_6">
    <path d="M 56.6375 27.340625 
L 1031.086099 27.340625 
" style="fill: none; stroke: #000000; stroke-width: 0.8; stroke-linejoin: miter; stroke-linecap: square"/>
   </g>
   <g id="text_14">
    <!-- API_ID: 36 -->
    <g transform="translate(493.8618 21.340625) scale(0.2 -0.2)">
     <defs>
      <path id="SimSun-41" d="M 2025 1700 
L 900 1700 
L 675 750 
Q 650 625 650 550 
Q 650 450 687 350 
Q 725 250 900 250 
L 975 250 
L 975 100 
L 50 100 
L 50 250 
L 125 250 
Q 225 250 300 312 
Q 375 375 400 525 
L 1375 4350 
L 1750 4475 
L 2700 525 
Q 2750 375 2825 312 
Q 2900 250 3000 250 
L 3075 250 
L 3075 100 
L 2000 100 
L 2000 250 
L 2100 250 
Q 2250 250 2275 312 
Q 2300 375 2300 425 
Q 2300 525 2275 600 
L 2025 1700 
z
M 325 250 
L 325 250 
z
M 575 250 
L 575 250 
z
M 2350 250 
L 2350 250 
z
M 2775 250 
L 2775 250 
z
M 1500 3925 
L 1475 3925 
L 950 1850 
L 2000 1850 
L 1500 3925 
z
" transform="scale(0.015625)"/>
      <path id="SimSun-49" d="M 600 4225 
L 600 4375 
L 2600 4375 
L 2600 4225 
L 2025 4225 
Q 1925 4225 1862 4175 
Q 1800 4125 1800 4025 
L 1800 450 
Q 1800 350 1862 300 
Q 1925 250 2025 250 
L 2600 250 
L 2600 100 
L 600 100 
L 600 250 
L 1175 250 
Q 1300 250 1350 300 
Q 1400 350 1400 450 
L 1400 4025 
Q 1400 4125 1350 4175 
Q 1300 4225 1175 4225 
L 600 4225 
z
" transform="scale(0.015625)"/>
      <path id="SimSun-5f" d="M 0 -875 
L 0 -725 
L 3175 -725 
L 3175 -875 
L 0 -875 
z
" transform="scale(0.015625)"/>
      <path id="SimSun-44" d="M 2500 2275 
Q 2500 3350 2175 3787 
Q 1850 4225 1275 4225 
Q 1100 4225 1012 4175 
Q 925 4125 925 4025 
L 925 450 
Q 925 350 1000 300 
Q 1075 250 1200 250 
Q 1750 250 2125 662 
Q 2500 1075 2500 2275 
z
M 525 4025 
Q 525 4125 475 4175 
Q 425 4225 300 4225 
L 150 4225 
L 150 4375 
L 1275 4375 
Q 2050 4375 2512 3875 
Q 2975 3375 2975 2325 
Q 2975 1175 2525 637 
Q 2075 100 1200 100 
L 125 100 
L 125 250 
L 300 250 
Q 425 250 475 300 
Q 525 350 525 450 
L 525 4025 
z
" transform="scale(0.015625)"/>
      <path id="SimSun-3a" d="M 1900 2725 
Q 1900 2575 1800 2475 
Q 1700 2375 1550 2375 
Q 1400 2375 1300 2475 
Q 1200 2575 1200 2725 
Q 1200 2875 1300 2975 
Q 1400 3075 1550 3075 
Q 1700 3075 1800 2975 
Q 1900 2875 1900 2725 
z
M 1900 375 
Q 1900 225 1800 125 
Q 1700 25 1550 25 
Q 1400 25 1300 125 
Q 1200 225 1200 375 
Q 1200 525 1300 625 
Q 1400 725 1550 725 
Q 1700 725 1800 625 
Q 1900 525 1900 375 
z
" transform="scale(0.015625)"/>
      <path id="SimSun-20" d="M 0 0 
Q 0 0 0 0 
z
" transform="scale(0.015625)"/>
      <path id="SimSun-33" d="M 2800 1250 
Q 2800 775 2450 412 
Q 2100 50 1475 50 
Q 1025 50 700 300 
Q 375 550 375 875 
Q 375 1025 475 1137 
Q 575 1250 675 1250 
Q 825 1250 887 1137 
Q 950 1025 950 950 
Q 950 825 900 750 
Q 850 650 850 575 
Q 850 425 1037 325 
Q 1225 225 1450 225 
Q 1900 225 2125 487 
Q 2350 750 2350 1300 
Q 2350 1750 2112 2025 
Q 1875 2300 1225 2300 
L 1225 2475 
Q 1725 2475 1962 2712 
Q 2200 2950 2200 3375 
Q 2200 3725 2012 3987 
Q 1825 4250 1425 4250 
Q 1250 4250 1050 4162 
Q 850 4075 850 3875 
Q 850 3675 900 3625 
Q 950 3575 950 3500 
Q 950 3375 900 3300 
Q 850 3225 725 3225 
Q 625 3225 537 3300 
Q 450 3375 450 3575 
Q 450 3950 775 4187 
Q 1100 4425 1525 4425 
Q 2025 4425 2325 4112 
Q 2625 3800 2625 3450 
Q 2625 3075 2437 2812 
Q 2250 2550 1850 2425 
Q 2400 2225 2600 1900 
Q 2800 1575 2800 1250 
z
" transform="scale(0.015625)"/>
      <path id="SimSun-36" d="M 775 1800 
Q 775 1050 1037 637 
Q 1300 225 1675 225 
Q 2050 225 2250 500 
Q 2450 775 2450 1525 
Q 2450 2025 2237 2300 
Q 2025 2575 1725 2575 
Q 1450 2575 1212 2412 
Q 975 2250 775 1800 
z
M 1750 2825 
Q 2350 2825 2612 2425 
Q 2875 2025 2875 1525 
Q 2875 775 2512 412 
Q 2150 50 1675 50 
Q 1000 50 650 562 
Q 300 1075 300 2050 
Q 300 3200 725 3812 
Q 1150 4425 1875 4425 
Q 2225 4425 2437 4225 
Q 2650 4025 2650 3875 
Q 2650 3725 2587 3650 
Q 2525 3575 2375 3575 
Q 2250 3575 2187 3637 
Q 2125 3700 2125 3825 
Q 2125 3875 2150 3925 
Q 2150 3975 2150 4025 
Q 2150 4125 2075 4187 
Q 2000 4250 1800 4250 
Q 1375 4250 1075 3862 
Q 775 3475 775 2175 
Q 925 2500 1187 2662 
Q 1450 2825 1750 2825 
z
" transform="scale(0.015625)"/>
     </defs>
     <use xlink:href="#SimSun-41"/>
     <use xlink:href="#SimSun-50" x="50"/>
     <use xlink:href="#SimSun-49" x="100"/>
     <use xlink:href="#SimSun-5f" x="150"/>
     <use xlink:href="#SimSun-49" x="200"/>
     <use xlink:href="#SimSun-44" x="250"/>
     <use xlink:href="#SimSun-3a" x="300"/>
     <use xlink:href="#SimSun-20" x="350"/>
     <use xlink:href="#SimSun-33" x="400"/>
     <use xlink:href="#SimSun-36" x="450"/>
    </g>
   </g>
   <g id="legend_1">
    <g id="patch_7">
     <path d="M 70.6375 100.215625 
L 194.6375 100.215625 
Q 198.6375 100.215625 198.6375 96.215625 
L 198.6375 41.340625 
Q 198.6375 37.340625 194.6375 37.340625 
L 70.6375 37.340625 
Q 66.6375 37.340625 66.6375 41.340625 
L 66.6375 96.215625 
Q 66.6375 100.215625 70.6375 100.215625 
z
" style="fill: #ffffff; opacity: 0.8; stroke: #cccccc; stroke-linejoin: miter"/>
    </g>
    <g id="line2d_16">
     <path d="M 74.6375 54.278125 
L 94.6375 54.278125 
L 114.6375 54.278125 
" style="fill: none; stroke: #1f77b4; stroke-width: 1.5; stroke-linecap: square"/>
    </g>
    <g id="text_15">
     <!-- 真实值 -->
     <g transform="translate(130.6375 61.278125) scale(0.2 -0.2)">
      <defs>
       <path id="SimSun-771f" d="M 2050 3450 
L 2050 2900 
L 4300 2900 
L 4300 3450 
L 2050 3450 
z
M 2050 2750 
L 2050 2225 
L 4300 2225 
L 4300 2750 
L 2050 2750 
z
M 2050 2075 
L 2050 1550 
L 4300 1550 
L 4300 2075 
L 2050 2075 
z
M 2050 1400 
L 2050 875 
L 4300 875 
L 4300 1400 
L 2050 1400 
z
M 2875 3600 
L 2925 4325 
L 1525 4325 
Q 1200 4325 925 4250 
L 700 4475 
L 2950 4475 
Q 2975 4825 2975 5275 
L 3550 5025 
L 3375 4925 
L 3300 4475 
L 5000 4475 
L 5325 4825 
L 5775 4325 
L 3275 4325 
L 3200 3600 
L 4275 3600 
L 4450 3875 
L 4850 3575 
L 4650 3375 
L 4650 875 
L 5300 875 
L 5675 1225 
L 6125 725 
L 1150 725 
Q 825 725 550 650 
L 325 875 
L 1700 875 
Q 1700 3200 1675 3775 
L 2050 3600 
L 2875 3600 
z
M 2425 725 
L 2825 350 
L 2575 300 
Q 1500 -425 800 -650 
L 775 -575 
Q 1950 125 2425 725 
z
M 3800 700 
Q 4575 375 4962 200 
Q 5350 25 5400 -112 
Q 5450 -250 5450 -325 
Q 5450 -400 5400 -525 
Q 5350 -650 5325 -650 
Q 5250 -650 5100 -450 
Q 4875 -150 3750 625 
L 3800 700 
z
" transform="scale(0.015625)"/>
       <path id="SimSun-5b9e" d="M 1950 3625 
Q 2575 3400 2700 3250 
Q 2825 3100 2825 2975 
Q 2825 2850 2750 2700 
Q 2675 2550 2625 2550 
Q 2550 2550 2450 2800 
Q 2275 3175 1900 3550 
L 1950 3625 
z
M 3575 1325 
Q 3500 1100 3425 925 
Q 4650 550 5087 325 
Q 5525 100 5512 -225 
Q 5500 -550 5400 -550 
Q 5300 -550 5075 -300 
Q 4625 175 3375 800 
Q 3025 175 2300 -150 
Q 1575 -475 425 -625 
L 425 -525 
Q 1475 -325 2200 100 
Q 2925 525 3200 1325 
L 1225 1325 
Q 900 1325 625 1250 
L 400 1475 
L 3225 1475 
Q 3325 1950 3375 2575 
Q 3425 3200 3425 3700 
L 4050 3400 
L 3850 3225 
Q 3750 2300 3625 1475 
L 5175 1475 
L 5550 1850 
L 6075 1325 
L 3575 1325 
z
M 1275 2700 
Q 1975 2425 2100 2262 
Q 2225 2100 2225 1975 
Q 2225 1850 2150 1700 
Q 2075 1550 2025 1550 
Q 1950 1550 1850 1800 
Q 1675 2175 1225 2625 
L 1275 2700 
z
M 2750 5225 
L 2825 5275 
Q 3225 5100 3425 4925 
Q 3625 4750 3625 4600 
Q 3625 4450 3512 4300 
Q 3400 4150 3325 4150 
Q 3250 4150 3200 4400 
Q 3100 4775 2750 5225 
z
M 4975 3225 
L 5350 3925 
L 1175 3925 
Q 1225 3525 1125 3300 
Q 1025 3075 787 3100 
Q 550 3125 550 3200 
Q 550 3300 700 3475 
Q 975 3825 1050 4375 
L 1150 4375 
L 1175 4075 
L 5300 4075 
L 5575 4350 
L 6050 3800 
Q 5625 3825 5050 3175 
L 4975 3225 
z
" transform="scale(0.015625)"/>
       <path id="SimSun-503c" d="M 1525 650 
Q 1525 -225 1550 -525 
L 1175 -650 
Q 1200 250 1200 550 
L 1200 3025 
Q 750 2300 325 1850 
L 250 1900 
Q 725 2625 1100 3525 
Q 1475 4425 1675 5200 
L 2200 4875 
L 1950 4725 
Q 1550 3800 1425 3475 
L 1725 3300 
L 1525 3150 
L 1525 650 
z
M 2875 3225 
L 2875 2475 
L 4800 2475 
L 4800 3225 
L 2875 3225 
z
M 2875 2325 
L 2875 1575 
L 4800 1575 
L 4800 2325 
L 2875 2325 
z
M 2875 1425 
L 2875 675 
L 4800 675 
L 4800 1425 
L 2875 1425 
z
M 2875 525 
L 2875 -225 
L 4800 -225 
L 4800 525 
L 2875 525 
z
M 3550 4250 
Q 3575 4825 3550 5225 
L 4125 4950 
L 3925 4800 
L 3900 4250 
L 5025 4250 
L 5350 4575 
L 5825 4100 
L 3900 4100 
L 3875 3375 
L 4750 3375 
L 4975 3625 
L 5350 3300 
L 5125 3150 
L 5125 -225 
L 5350 -225 
L 5675 100 
L 6150 -375 
L 2450 -375 
Q 2125 -375 1850 -450 
L 1625 -225 
L 2550 -225 
L 2550 2550 
Q 2550 2850 2525 3575 
L 2875 3375 
L 3525 3375 
L 3550 4100 
L 2800 4100 
Q 2475 4100 2200 4025 
L 1975 4250 
L 3550 4250 
z
" transform="scale(0.015625)"/>
      </defs>
      <use xlink:href="#SimSun-771f"/>
      <use xlink:href="#SimSun-5b9e" x="100"/>
      <use xlink:href="#SimSun-503c" x="200"/>
     </g>
    </g>
    <g id="line2d_17">
     <path d="M 74.6375 82.6375 
L 94.6375 82.6375 
L 114.6375 82.6375 
" style="fill: none; stroke: #ff7f0e; stroke-width: 1.5; stroke-linecap: square"/>
    </g>
    <g id="text_16">
     <!-- 预测值 -->
     <g transform="translate(130.6375 89.6375) scale(0.2 -0.2)">
      <defs>
       <path id="SimSun-9884" d="M 475 4825 
L 2225 4825 
L 2425 5075 
L 2825 4675 
Q 2600 4625 2387 4412 
Q 2175 4200 1800 3750 
Q 2050 3575 2037 3400 
Q 2025 3225 1937 3150 
Q 1850 3075 1825 3075 
Q 1725 3075 1650 3300 
Q 1525 3600 1050 4100 
L 1100 4150 
Q 1475 3975 1700 3825 
L 2225 4675 
L 1300 4675 
Q 975 4675 700 4600 
L 475 4825 
z
M 725 100 
Q 1175 50 1362 37 
Q 1550 25 1550 275 
L 1550 2875 
L 1125 2875 
Q 800 2875 525 2800 
L 300 3025 
L 2525 3025 
L 2725 3275 
L 3150 2875 
Q 2800 2825 2275 2075 
L 2200 2125 
L 2550 2875 
L 1875 2875 
L 1875 150 
Q 1875 -400 1350 -500 
Q 1325 -175 725 0 
L 725 100 
z
M 3250 775 
Q 3275 1425 3275 2287 
Q 3275 3150 3250 3900 
L 3600 3700 
L 4050 3700 
Q 4175 4400 4200 4675 
L 3650 4675 
Q 3325 4675 3050 4600 
L 2825 4825 
L 5325 4825 
L 5675 5150 
L 6125 4675 
L 4675 4675 
Q 4500 4425 4175 3700 
L 5300 3700 
L 5475 3975 
L 5875 3675 
L 5675 3475 
L 5675 1950 
Q 5675 1525 5700 1075 
L 5350 875 
L 5350 3550 
L 3600 3550 
L 3600 1000 
L 3250 775 
z
M 4850 2875 
L 4625 2675 
Q 4625 1475 4475 937 
Q 4325 400 3900 50 
Q 3475 -300 2425 -625 
L 2400 -550 
Q 3500 -50 3837 400 
Q 4175 850 4237 1587 
Q 4300 2325 4275 3175 
L 4850 2875 
z
M 4650 950 
Q 5725 375 5875 212 
Q 6025 50 6025 -125 
Q 6025 -225 5962 -387 
Q 5900 -550 5850 -550 
Q 5800 -550 5750 -450 
Q 5625 -250 5437 0 
Q 5250 250 4600 875 
L 4650 950 
z
" transform="scale(0.015625)"/>
       <path id="SimSun-6d4b" d="M 1975 1000 
Q 2000 1475 2000 2925 
Q 2000 4375 1975 5000 
L 2350 4775 
L 3575 4775 
L 3775 4975 
L 4100 4650 
L 3900 4500 
L 3900 2350 
Q 3900 1850 3925 1350 
L 3600 1200 
L 3600 4625 
L 2325 4625 
L 2325 1150 
L 1975 1000 
z
M 2775 3975 
L 3300 3700 
L 3125 3525 
Q 3150 1825 2875 937 
Q 2600 50 1375 -600 
L 1325 -500 
Q 2200 100 2475 725 
Q 2750 1350 2775 2187 
Q 2800 3025 2775 3975 
z
M 3100 950 
Q 3825 450 3937 262 
Q 4050 75 4050 -25 
Q 4050 -150 3975 -262 
Q 3900 -375 3850 -375 
Q 3750 -375 3650 -75 
Q 3500 375 3050 875 
L 3100 950 
z
M 4475 825 
Q 4500 1200 4500 1700 
L 4500 3400 
Q 4500 3950 4475 4300 
L 5025 4025 
L 4825 3825 
L 4825 1700 
Q 4825 1325 4850 950 
L 4475 825 
z
M 5375 150 
L 5375 4050 
Q 5375 4750 5350 5125 
L 5875 4875 
L 5700 4700 
L 5700 75 
Q 5700 -200 5600 -350 
Q 5500 -500 5200 -600 
Q 5025 -225 4450 -50 
L 4450 50 
Q 5125 -50 5250 -37 
Q 5375 -25 5375 150 
z
M 1850 3500 
Q 1375 1525 1300 1225 
Q 1200 900 1212 450 
Q 1225 0 1250 -175 
Q 1250 -275 1125 -275 
Q 1025 -275 875 -225 
Q 725 -175 725 0 
Q 725 125 800 375 
Q 875 625 875 775 
Q 875 950 762 1050 
Q 650 1150 275 1250 
L 275 1350 
Q 725 1300 837 1312 
Q 950 1325 1087 1537 
Q 1225 1750 1750 3525 
L 1850 3500 
z
M 375 3775 
Q 1075 3350 1112 3100 
Q 1150 2850 1050 2775 
Q 950 2700 900 2700 
Q 800 2700 725 2975 
Q 600 3350 325 3700 
L 375 3775 
z
M 800 5100 
Q 1475 4725 1550 4512 
Q 1625 4300 1525 4187 
Q 1425 4075 1350 4075 
Q 1275 4075 1200 4300 
Q 1075 4650 750 5025 
L 800 5100 
z
" transform="scale(0.015625)"/>
      </defs>
      <use xlink:href="#SimSun-9884"/>
      <use xlink:href="#SimSun-6d4b" x="100"/>
      <use xlink:href="#SimSun-503c" x="200"/>
     </g>
    </g>
   </g>
  </g>
  <g id="axes_2">
   <g id="patch_8">
    <path d="M 56.6375 426.180625 
L 1031.086099 426.180625 
L 1031.086099 260.140625 
L 56.6375 260.140625 
z
" style="fill: #ffffff"/>
   </g>
   <g id="matplotlib.axis_3">
    <g id="xtick_10">
     <g id="line2d_18">
      <g>
       <use xlink:href="#mcac9de76ec" x="100.930618" y="426.180625" style="stroke: #000000; stroke-width: 0.8"/>
      </g>
     </g>
     <g id="text_17">
      <!-- 0 -->
      <g transform="translate(95.930618 447.068125) scale(0.2 -0.2)">
       <use xlink:href="#TimesNewRomanPSMT-30"/>
      </g>
     </g>
    </g>
    <g id="xtick_11">
     <g id="line2d_19">
      <g>
       <use xlink:href="#mcac9de76ec" x="216.881189" y="426.180625" style="stroke: #000000; stroke-width: 0.8"/>
      </g>
     </g>
     <g id="text_18">
      <!-- 25 -->
      <g transform="translate(206.881189 447.068125) scale(0.2 -0.2)">
       <use xlink:href="#TimesNewRomanPSMT-32"/>
       <use xlink:href="#TimesNewRomanPSMT-35" x="50"/>
      </g>
     </g>
    </g>
    <g id="xtick_12">
     <g id="line2d_20">
      <g>
       <use xlink:href="#mcac9de76ec" x="332.83176" y="426.180625" style="stroke: #000000; stroke-width: 0.8"/>
      </g>
     </g>
     <g id="text_19">
      <!-- 50 -->
      <g transform="translate(322.83176 447.068125) scale(0.2 -0.2)">
       <use xlink:href="#TimesNewRomanPSMT-35"/>
       <use xlink:href="#TimesNewRomanPSMT-30" x="50"/>
      </g>
     </g>
    </g>
    <g id="xtick_13">
     <g id="line2d_21">
      <g>
       <use xlink:href="#mcac9de76ec" x="448.782331" y="426.180625" style="stroke: #000000; stroke-width: 0.8"/>
      </g>
     </g>
     <g id="text_20">
      <!-- 75 -->
      <g transform="translate(438.782331 447.068125) scale(0.2 -0.2)">
       <use xlink:href="#TimesNewRomanPSMT-37"/>
       <use xlink:href="#TimesNewRomanPSMT-35" x="50"/>
      </g>
     </g>
    </g>
    <g id="xtick_14">
     <g id="line2d_22">
      <g>
       <use xlink:href="#mcac9de76ec" x="564.732903" y="426.180625" style="stroke: #000000; stroke-width: 0.8"/>
      </g>
     </g>
     <g id="text_21">
      <!-- 100 -->
      <g transform="translate(549.732903 447.068125) scale(0.2 -0.2)">
       <use xlink:href="#TimesNewRomanPSMT-31"/>
       <use xlink:href="#TimesNewRomanPSMT-30" x="50"/>
       <use xlink:href="#TimesNewRomanPSMT-30" x="100"/>
      </g>
     </g>
    </g>
    <g id="xtick_15">
     <g id="line2d_23">
      <g>
       <use xlink:href="#mcac9de76ec" x="680.683474" y="426.180625" style="stroke: #000000; stroke-width: 0.8"/>
      </g>
     </g>
     <g id="text_22">
      <!-- 125 -->
      <g transform="translate(665.683474 447.068125) scale(0.2 -0.2)">
       <use xlink:href="#TimesNewRomanPSMT-31"/>
       <use xlink:href="#TimesNewRomanPSMT-32" x="50"/>
       <use xlink:href="#TimesNewRomanPSMT-35" x="100"/>
      </g>
     </g>
    </g>
    <g id="xtick_16">
     <g id="line2d_24">
      <g>
       <use xlink:href="#mcac9de76ec" x="796.634045" y="426.180625" style="stroke: #000000; stroke-width: 0.8"/>
      </g>
     </g>
     <g id="text_23">
      <!-- 150 -->
      <g transform="translate(781.634045 447.068125) scale(0.2 -0.2)">
       <use xlink:href="#TimesNewRomanPSMT-31"/>
       <use xlink:href="#TimesNewRomanPSMT-35" x="50"/>
       <use xlink:href="#TimesNewRomanPSMT-30" x="100"/>
      </g>
     </g>
    </g>
    <g id="xtick_17">
     <g id="line2d_25">
      <g>
       <use xlink:href="#mcac9de76ec" x="912.584616" y="426.180625" style="stroke: #000000; stroke-width: 0.8"/>
      </g>
     </g>
     <g id="text_24">
      <!-- 175 -->
      <g transform="translate(897.584616 447.068125) scale(0.2 -0.2)">
       <use xlink:href="#TimesNewRomanPSMT-31"/>
       <use xlink:href="#TimesNewRomanPSMT-37" x="50"/>
       <use xlink:href="#TimesNewRomanPSMT-35" x="100"/>
      </g>
     </g>
    </g>
    <g id="xtick_18">
     <g id="line2d_26">
      <g>
       <use xlink:href="#mcac9de76ec" x="1028.535187" y="426.180625" style="stroke: #000000; stroke-width: 0.8"/>
      </g>
     </g>
     <g id="text_25">
      <!-- 200 -->
      <g transform="translate(1013.535187 447.068125) scale(0.2 -0.2)">
       <use xlink:href="#TimesNewRomanPSMT-32"/>
       <use xlink:href="#TimesNewRomanPSMT-30" x="50"/>
       <use xlink:href="#TimesNewRomanPSMT-30" x="100"/>
      </g>
     </g>
    </g>
   </g>
   <g id="matplotlib.axis_4">
    <g id="ytick_4">
     <g id="line2d_27">
      <g>
       <use xlink:href="#m297c2a0a8e" x="56.6375" y="418.626329" style="stroke: #000000; stroke-width: 0.8"/>
      </g>
     </g>
     <g id="text_26">
      <!-- 0 -->
      <g transform="translate(39.6375 425.570079) scale(0.2 -0.2)">
       <use xlink:href="#TimesNewRomanPSMT-30"/>
      </g>
     </g>
    </g>
    <g id="ytick_5">
     <g id="line2d_28">
      <g>
       <use xlink:href="#m297c2a0a8e" x="56.6375" y="336.594573" style="stroke: #000000; stroke-width: 0.8"/>
      </g>
     </g>
     <g id="text_27">
      <!-- 50 -->
      <g transform="translate(29.6375 343.538323) scale(0.2 -0.2)">
       <use xlink:href="#TimesNewRomanPSMT-35"/>
       <use xlink:href="#TimesNewRomanPSMT-30" x="50"/>
      </g>
     </g>
    </g>
    <g id="text_28">
     <!-- CPU使用率 -->
     <g transform="translate(23.059375 388.160625) rotate(-90) scale(0.2 -0.2)">
      <use xlink:href="#SimSun-43"/>
      <use xlink:href="#SimSun-50" x="50"/>
      <use xlink:href="#SimSun-55" x="100"/>
      <use xlink:href="#SimSun-4f7f" x="150"/>
      <use xlink:href="#SimSun-7528" x="250"/>
      <use xlink:href="#SimSun-7387" x="350"/>
     </g>
    </g>
   </g>
   <g id="line2d_29">
    <path d="M 100.930618 418.626329 
L 578.646971 418.626329 
L 583.284994 403.860613 
L 587.923017 418.626329 
L 592.56104 416.985694 
L 597.199062 418.626329 
L 625.0272 418.626329 
L 629.665222 407.141883 
L 634.303245 307.063128 
L 638.941268 356.282194 
L 643.579291 416.985694 
L 648.217314 416.985694 
L 652.855337 418.626329 
L 657.493359 418.626329 
L 662.131382 416.985694 
L 666.769405 418.626329 
L 699.235565 418.626329 
L 703.873588 416.985694 
L 708.511611 405.501248 
L 713.149634 274.250426 
L 717.787656 272.609803 
L 722.425679 284.094249 
L 727.063702 300.5006 
L 731.701725 280.812979 
L 736.339748 279.172331 
L 740.977771 292.297425 
L 745.615793 289.016154 
L 750.253816 284.094249 
L 754.891839 285.734884 
L 759.529862 412.063789 
L 764.167885 418.626329 
L 778.081953 418.626329 
L 782.719976 410.423153 
L 787.357999 269.328533 
L 791.996022 269.328533 
L 796.634045 284.094249 
L 801.272068 284.094249 
L 805.91009 269.328533 
L 810.548113 269.328533 
L 815.186136 292.297425 
L 819.824159 267.687898 
L 824.462182 269.328533 
L 829.100205 280.812979 
L 833.738227 267.687898 
L 838.37625 269.328533 
L 843.014273 287.375507 
L 847.652296 269.328533 
L 852.290319 267.687898 
L 856.928342 269.328533 
L 861.566365 290.656777 
L 866.204387 267.687898 
L 870.84241 267.687898 
L 875.480433 295.578695 
L 880.118456 267.687898 
L 884.756479 267.687898 
L 894.032524 274.250426 
L 898.670547 267.687898 
L 903.30857 269.328533 
L 907.946593 292.297425 
L 912.584616 267.687898 
L 917.222639 267.687898 
L 921.860662 293.938047 
L 926.498684 269.328533 
L 931.136707 267.687898 
L 935.77473 267.687898 
L 940.412753 289.016154 
L 945.050776 267.687898 
L 949.688799 267.687898 
L 954.326821 280.812979 
L 958.964844 282.453601 
L 963.602867 267.687898 
L 968.24089 267.687898 
L 972.878913 356.282194 
L 977.516936 416.985694 
L 982.154958 418.626329 
L 986.792981 418.626329 
L 986.792981 418.626329 
" clip-path="url(#pe45ea63641)" style="fill: none; stroke: #1f77b4; stroke-width: 1.5; stroke-linecap: square"/>
   </g>
   <g id="line2d_30">
    <path d="M 546.180811 418.627929 
L 550.818834 418.62748 
L 555.456857 418.625173 
L 560.09488 418.625405 
L 564.732903 418.625992 
L 569.370925 418.629629 
L 574.008948 418.633352 
L 578.646971 418.627799 
L 583.284994 418.623678 
L 587.923017 418.630019 
L 592.56104 418.628503 
L 597.199062 418.625535 
L 601.837085 418.625334 
L 606.475108 418.624983 
L 611.113131 418.62903 
L 615.751154 418.626538 
L 620.389177 418.627206 
L 625.0272 418.626085 
L 629.665222 418.625046 
L 634.303245 418.623615 
L 638.941268 418.624462 
L 643.579291 418.62174 
L 648.217314 418.620558 
L 652.855337 418.625695 
L 657.493359 418.617824 
L 662.131382 418.618355 
L 666.769405 418.617934 
L 671.407428 418.61519 
L 676.045451 418.616844 
L 680.683474 418.613187 
L 685.321496 418.61368 
L 689.959519 418.615942 
L 694.597542 418.61346 
L 699.235565 418.616443 
L 703.873588 418.616229 
L 708.511611 418.610844 
L 713.149634 418.615196 
L 717.787656 418.613363 
L 722.425679 418.615411 
L 727.063702 418.618165 
L 731.701725 418.616587 
L 736.339748 418.614749 
L 740.977771 418.614381 
L 745.615793 418.613388 
L 750.253816 418.617031 
L 754.891839 418.616636 
L 759.529862 418.61725 
L 764.167885 418.614513 
L 768.805908 418.612831 
L 773.443931 418.61126 
L 778.081953 418.611441 
L 782.719976 418.609976 
L 787.357999 418.605371 
L 791.996022 418.608178 
L 796.634045 418.608113 
L 801.272068 418.608938 
L 805.91009 418.60925 
L 810.548113 418.606326 
L 815.186136 418.6094 
L 819.824159 418.605157 
L 824.462182 418.604308 
L 829.100205 418.604137 
L 833.738227 418.598988 
L 838.37625 418.60022 
L 843.014273 418.601343 
L 847.652296 418.600763 
L 852.290319 418.602626 
L 856.928342 418.604813 
L 861.566365 418.601183 
L 866.204387 418.599059 
L 870.84241 418.601568 
L 875.480433 418.59936 
L 880.118456 418.600353 
L 884.756479 418.599723 
L 889.394502 418.599566 
L 894.032524 418.596869 
L 898.670547 418.596855 
L 903.30857 418.599539 
L 907.946593 418.594219 
L 912.584616 418.598329 
L 917.222639 418.59784 
L 921.860662 418.596669 
L 926.498684 418.599365 
L 931.136707 418.599313 
L 935.77473 418.598187 
L 940.412753 418.598691 
L 945.050776 418.597842 
L 949.688799 418.602059 
L 954.326821 418.600573 
L 958.964844 418.595605 
L 963.602867 418.597496 
L 968.24089 418.599091 
L 972.878913 418.597682 
L 977.516936 418.599523 
L 982.154958 418.595756 
L 986.792981 418.602066 
" clip-path="url(#pe45ea63641)" style="fill: none; stroke: #ff7f0e; stroke-width: 1.5; stroke-linecap: square"/>
   </g>
   <g id="line2d_31">
    <path d="M 546.180811 426.180625 
L 546.180811 260.140625 
" clip-path="url(#pe45ea63641)" style="fill: none; stroke-dasharray: 7.4,3.2; stroke-dashoffset: 0; stroke: #0000ff; stroke-width: 2"/>
   </g>
   <g id="patch_9">
    <path d="M 56.6375 426.180625 
L 56.6375 260.140625 
" style="fill: none; stroke: #000000; stroke-width: 0.8; stroke-linejoin: miter; stroke-linecap: square"/>
   </g>
   <g id="patch_10">
    <path d="M 1031.086099 426.180625 
L 1031.086099 260.140625 
" style="fill: none; stroke: #000000; stroke-width: 0.8; stroke-linejoin: miter; stroke-linecap: square"/>
   </g>
   <g id="patch_11">
    <path d="M 56.6375 426.180625 
L 1031.086099 426.180625 
" style="fill: none; stroke: #000000; stroke-width: 0.8; stroke-linejoin: miter; stroke-linecap: square"/>
   </g>
   <g id="patch_12">
    <path d="M 56.6375 260.140625 
L 1031.086099 260.140625 
" style="fill: none; stroke: #000000; stroke-width: 0.8; stroke-linejoin: miter; stroke-linecap: square"/>
   </g>
   <g id="text_29">
    <!-- API_ID: 291 -->
    <g transform="translate(488.8618 254.140625) scale(0.2 -0.2)">
     <defs>
      <path id="SimSun-32" d="M 2325 3325 
Q 2325 3775 2125 4012 
Q 1925 4250 1525 4250 
Q 1225 4250 1012 4087 
Q 800 3925 800 3675 
Q 800 3525 900 3425 
Q 975 3325 975 3225 
Q 975 3100 912 3037 
Q 850 2975 725 2975 
Q 575 2975 487 3062 
Q 400 3150 400 3350 
Q 400 3875 775 4150 
Q 1150 4425 1575 4425 
Q 2175 4425 2462 4125 
Q 2750 3825 2750 3375 
Q 2750 3075 2612 2775 
Q 2475 2475 2175 2200 
Q 1450 1500 1062 1062 
Q 675 625 600 475 
L 2075 475 
Q 2300 475 2450 650 
Q 2600 825 2650 1175 
L 2800 1175 
L 2650 100 
L 325 100 
L 325 425 
Q 450 650 737 1000 
Q 1025 1350 1500 1825 
Q 1925 2250 2125 2625 
Q 2325 3000 2325 3325 
z
" transform="scale(0.015625)"/>
      <path id="SimSun-39" d="M 700 3050 
Q 700 2500 912 2212 
Q 1125 1925 1450 1925 
Q 1825 1925 2100 2275 
Q 2375 2625 2375 2925 
Q 2375 3525 2175 3887 
Q 1975 4250 1525 4250 
Q 1100 4250 900 3912 
Q 700 3575 700 3050 
z
M 1375 1700 
Q 875 1700 575 2012 
Q 275 2325 275 3025 
Q 275 3625 600 4025 
Q 925 4425 1525 4425 
Q 2150 4425 2500 3925 
Q 2850 3425 2850 2475 
Q 2850 1425 2437 737 
Q 2025 50 1300 50 
Q 975 50 737 200 
Q 500 350 500 600 
Q 500 700 562 800 
Q 625 900 775 900 
Q 925 900 975 787 
Q 1025 675 1025 525 
Q 1025 425 1050 362 
Q 1075 300 1100 275 
Q 1125 250 1187 237 
Q 1250 225 1325 225 
Q 1775 225 2050 725 
Q 2325 1225 2375 2400 
Q 2250 2100 2000 1900 
Q 1750 1700 1375 1700 
z
" transform="scale(0.015625)"/>
      <path id="SimSun-31" d="M 1825 4450 
L 1825 650 
Q 1825 450 1950 350 
Q 2075 250 2300 250 
L 2550 250 
L 2550 100 
L 725 100 
L 725 250 
L 950 250 
Q 1200 250 1312 350 
Q 1425 450 1425 650 
L 1425 3675 
Q 1425 3775 1362 3837 
Q 1300 3900 1175 3900 
L 725 3900 
L 725 4050 
L 950 4050 
Q 1250 4050 1437 4150 
Q 1625 4250 1725 4450 
L 1825 4450 
z
" transform="scale(0.015625)"/>
     </defs>
     <use xlink:href="#SimSun-41"/>
     <use xlink:href="#SimSun-50" x="50"/>
     <use xlink:href="#SimSun-49" x="100"/>
     <use xlink:href="#SimSun-5f" x="150"/>
     <use xlink:href="#SimSun-49" x="200"/>
     <use xlink:href="#SimSun-44" x="250"/>
     <use xlink:href="#SimSun-3a" x="300"/>
     <use xlink:href="#SimSun-20" x="350"/>
     <use xlink:href="#SimSun-32" x="400"/>
     <use xlink:href="#SimSun-39" x="450"/>
     <use xlink:href="#SimSun-31" x="500"/>
    </g>
   </g>
  </g>
  <g id="axes_3">
   <g id="patch_13">
    <path d="M 56.6375 658.980625 
L 1031.086099 658.980625 
L 1031.086099 492.940625 
L 56.6375 492.940625 
z
" style="fill: #ffffff"/>
   </g>
   <g id="matplotlib.axis_5">
    <g id="xtick_19">
     <g id="line2d_32">
      <g>
       <use xlink:href="#mcac9de76ec" x="100.930618" y="658.980625" style="stroke: #000000; stroke-width: 0.8"/>
      </g>
     </g>
     <g id="text_30">
      <!-- 0 -->
      <g transform="translate(95.930618 679.868125) scale(0.2 -0.2)">
       <use xlink:href="#TimesNewRomanPSMT-30"/>
      </g>
     </g>
    </g>
    <g id="xtick_20">
     <g id="line2d_33">
      <g>
       <use xlink:href="#mcac9de76ec" x="216.881189" y="658.980625" style="stroke: #000000; stroke-width: 0.8"/>
      </g>
     </g>
     <g id="text_31">
      <!-- 25 -->
      <g transform="translate(206.881189 679.868125) scale(0.2 -0.2)">
       <use xlink:href="#TimesNewRomanPSMT-32"/>
       <use xlink:href="#TimesNewRomanPSMT-35" x="50"/>
      </g>
     </g>
    </g>
    <g id="xtick_21">
     <g id="line2d_34">
      <g>
       <use xlink:href="#mcac9de76ec" x="332.83176" y="658.980625" style="stroke: #000000; stroke-width: 0.8"/>
      </g>
     </g>
     <g id="text_32">
      <!-- 50 -->
      <g transform="translate(322.83176 679.868125) scale(0.2 -0.2)">
       <use xlink:href="#TimesNewRomanPSMT-35"/>
       <use xlink:href="#TimesNewRomanPSMT-30" x="50"/>
      </g>
     </g>
    </g>
    <g id="xtick_22">
     <g id="line2d_35">
      <g>
       <use xlink:href="#mcac9de76ec" x="448.782331" y="658.980625" style="stroke: #000000; stroke-width: 0.8"/>
      </g>
     </g>
     <g id="text_33">
      <!-- 75 -->
      <g transform="translate(438.782331 679.868125) scale(0.2 -0.2)">
       <use xlink:href="#TimesNewRomanPSMT-37"/>
       <use xlink:href="#TimesNewRomanPSMT-35" x="50"/>
      </g>
     </g>
    </g>
    <g id="xtick_23">
     <g id="line2d_36">
      <g>
       <use xlink:href="#mcac9de76ec" x="564.732903" y="658.980625" style="stroke: #000000; stroke-width: 0.8"/>
      </g>
     </g>
     <g id="text_34">
      <!-- 100 -->
      <g transform="translate(549.732903 679.868125) scale(0.2 -0.2)">
       <use xlink:href="#TimesNewRomanPSMT-31"/>
       <use xlink:href="#TimesNewRomanPSMT-30" x="50"/>
       <use xlink:href="#TimesNewRomanPSMT-30" x="100"/>
      </g>
     </g>
    </g>
    <g id="xtick_24">
     <g id="line2d_37">
      <g>
       <use xlink:href="#mcac9de76ec" x="680.683474" y="658.980625" style="stroke: #000000; stroke-width: 0.8"/>
      </g>
     </g>
     <g id="text_35">
      <!-- 125 -->
      <g transform="translate(665.683474 679.868125) scale(0.2 -0.2)">
       <use xlink:href="#TimesNewRomanPSMT-31"/>
       <use xlink:href="#TimesNewRomanPSMT-32" x="50"/>
       <use xlink:href="#TimesNewRomanPSMT-35" x="100"/>
      </g>
     </g>
    </g>
    <g id="xtick_25">
     <g id="line2d_38">
      <g>
       <use xlink:href="#mcac9de76ec" x="796.634045" y="658.980625" style="stroke: #000000; stroke-width: 0.8"/>
      </g>
     </g>
     <g id="text_36">
      <!-- 150 -->
      <g transform="translate(781.634045 679.868125) scale(0.2 -0.2)">
       <use xlink:href="#TimesNewRomanPSMT-31"/>
       <use xlink:href="#TimesNewRomanPSMT-35" x="50"/>
       <use xlink:href="#TimesNewRomanPSMT-30" x="100"/>
      </g>
     </g>
    </g>
    <g id="xtick_26">
     <g id="line2d_39">
      <g>
       <use xlink:href="#mcac9de76ec" x="912.584616" y="658.980625" style="stroke: #000000; stroke-width: 0.8"/>
      </g>
     </g>
     <g id="text_37">
      <!-- 175 -->
      <g transform="translate(897.584616 679.868125) scale(0.2 -0.2)">
       <use xlink:href="#TimesNewRomanPSMT-31"/>
       <use xlink:href="#TimesNewRomanPSMT-37" x="50"/>
       <use xlink:href="#TimesNewRomanPSMT-35" x="100"/>
      </g>
     </g>
    </g>
    <g id="xtick_27">
     <g id="line2d_40">
      <g>
       <use xlink:href="#mcac9de76ec" x="1028.535187" y="658.980625" style="stroke: #000000; stroke-width: 0.8"/>
      </g>
     </g>
     <g id="text_38">
      <!-- 200 -->
      <g transform="translate(1013.535187 679.868125) scale(0.2 -0.2)">
       <use xlink:href="#TimesNewRomanPSMT-32"/>
       <use xlink:href="#TimesNewRomanPSMT-30" x="50"/>
       <use xlink:href="#TimesNewRomanPSMT-30" x="100"/>
      </g>
     </g>
    </g>
   </g>
   <g id="matplotlib.axis_6">
    <g id="ytick_6">
     <g id="line2d_41">
      <g>
       <use xlink:href="#m297c2a0a8e" x="56.6375" y="653.251972" style="stroke: #000000; stroke-width: 0.8"/>
      </g>
     </g>
     <g id="text_39">
      <!-- 0 -->
      <g transform="translate(39.6375 660.195722) scale(0.2 -0.2)">
       <use xlink:href="#TimesNewRomanPSMT-30"/>
      </g>
     </g>
    </g>
    <g id="ytick_7">
     <g id="line2d_42">
      <g>
       <use xlink:href="#m297c2a0a8e" x="56.6375" y="607.786474" style="stroke: #000000; stroke-width: 0.8"/>
      </g>
     </g>
     <g id="text_40">
      <!-- 25 -->
      <g transform="translate(29.6375 614.730224) scale(0.2 -0.2)">
       <use xlink:href="#TimesNewRomanPSMT-32"/>
       <use xlink:href="#TimesNewRomanPSMT-35" x="50"/>
      </g>
     </g>
    </g>
    <g id="ytick_8">
     <g id="line2d_43">
      <g>
       <use xlink:href="#m297c2a0a8e" x="56.6375" y="562.320975" style="stroke: #000000; stroke-width: 0.8"/>
      </g>
     </g>
     <g id="text_41">
      <!-- 50 -->
      <g transform="translate(29.6375 569.264725) scale(0.2 -0.2)">
       <use xlink:href="#TimesNewRomanPSMT-35"/>
       <use xlink:href="#TimesNewRomanPSMT-30" x="50"/>
      </g>
     </g>
    </g>
    <g id="ytick_9">
     <g id="line2d_44">
      <g>
       <use xlink:href="#m297c2a0a8e" x="56.6375" y="516.855477" style="stroke: #000000; stroke-width: 0.8"/>
      </g>
     </g>
     <g id="text_42">
      <!-- 75 -->
      <g transform="translate(29.6375 523.799227) scale(0.2 -0.2)">
       <use xlink:href="#TimesNewRomanPSMT-37"/>
       <use xlink:href="#TimesNewRomanPSMT-35" x="50"/>
      </g>
     </g>
    </g>
    <g id="text_43">
     <!-- CPU使用率 -->
     <g transform="translate(23.059375 620.960625) rotate(-90) scale(0.2 -0.2)">
      <use xlink:href="#SimSun-43"/>
      <use xlink:href="#SimSun-50" x="50"/>
      <use xlink:href="#SimSun-55" x="100"/>
      <use xlink:href="#SimSun-4f7f" x="150"/>
      <use xlink:href="#SimSun-7528" x="250"/>
      <use xlink:href="#SimSun-7387" x="350"/>
     </g>
    </g>
   </g>
   <g id="line2d_45">
    <path d="M 100.930618 640.521632 
L 105.568641 575.051315 
L 110.206664 624.154055 
L 114.844687 647.796113 
L 119.48271 649.614732 
L 124.120732 640.521632 
L 128.758755 644.158872 
L 133.396778 642.340252 
L 138.034801 642.340252 
L 142.672824 645.977492 
L 147.310847 644.158872 
L 151.948869 549.590636 
L 156.586892 645.977492 
L 161.224915 640.521632 
L 165.862938 647.796113 
L 175.138984 644.158872 
L 179.777007 640.521632 
L 184.415029 644.158872 
L 189.053052 649.614732 
L 193.691075 649.614732 
L 198.329098 645.977492 
L 202.967121 547.772023 
L 207.605144 644.158872 
L 216.881189 651.433352 
L 221.519212 647.796113 
L 226.157235 645.977492 
L 235.433281 649.614732 
L 240.071303 644.158872 
L 249.347349 647.796113 
L 253.985372 645.977492 
L 258.623395 640.521632 
L 263.261418 500.487898 
L 267.899441 631.428533 
L 272.537463 647.796113 
L 277.175486 636.884393 
L 281.813509 651.433352 
L 291.089555 644.158872 
L 295.727578 649.614732 
L 300.3656 640.521632 
L 305.003623 651.433352 
L 309.641646 649.614732 
L 314.279669 649.614732 
L 318.917692 647.796113 
L 323.555715 644.158872 
L 332.83176 647.796113 
L 337.469783 595.056134 
L 342.107806 567.776835 
L 346.745829 651.433352 
L 351.383852 647.796113 
L 356.021875 645.977492 
L 360.659897 640.521632 
L 365.29792 640.521632 
L 369.935943 651.433352 
L 374.573966 636.884393 
L 379.211989 640.521632 
L 383.850012 647.796113 
L 388.488034 642.340252 
L 393.126057 649.614732 
L 397.76408 645.977492 
L 407.040126 649.614732 
L 411.678149 649.614732 
L 416.316172 647.796113 
L 420.954194 644.158872 
L 425.592217 647.796113 
L 430.23024 645.977492 
L 434.868263 647.796113 
L 439.506286 538.678923 
L 444.144309 620.516813 
L 448.782331 638.703012 
L 453.420354 580.507175 
L 458.058377 631.428533 
L 462.6964 607.786474 
L 467.334423 615.060953 
L 471.972446 627.791293 
L 476.610469 618.698193 
L 481.248491 565.958215 
L 485.886514 624.154055 
L 490.524537 624.154055 
L 495.16256 611.423713 
L 499.800583 644.158872 
L 504.438606 629.609913 
L 509.076628 631.428533 
L 513.714651 631.428533 
L 518.352674 580.507175 
L 522.990697 647.796113 
L 527.62872 649.614732 
L 532.266743 635.065773 
L 536.904765 636.884393 
L 541.542788 640.521632 
L 546.180811 611.423713 
L 550.818834 625.972673 
L 560.09488 644.158872 
L 564.732903 633.247153 
L 569.370925 616.879573 
L 574.008948 645.977492 
L 578.646971 625.972673 
L 583.284994 625.972673 
L 587.923017 618.698193 
L 592.56104 624.154055 
L 597.199062 638.703012 
L 601.837085 625.972673 
L 606.475108 627.791293 
L 611.113131 591.418894 
L 615.751154 616.879573 
L 620.389177 615.060953 
L 625.0272 593.237514 
L 629.665222 613.242333 
L 634.303245 629.609913 
L 638.941268 625.972673 
L 643.579291 640.521632 
L 648.217314 631.428533 
L 652.855337 627.791293 
L 657.493359 640.521632 
L 662.131382 635.065773 
L 666.769405 627.791293 
L 671.407428 629.609913 
L 676.045451 642.340252 
L 680.683474 640.521632 
L 685.321496 611.423713 
L 689.959519 631.428533 
L 694.597542 649.614732 
L 699.235565 645.977492 
L 703.873588 582.325795 
L 708.511611 629.609913 
L 713.149634 633.247153 
L 717.787656 649.614732 
L 722.425679 618.698193 
L 727.063702 635.065773 
L 731.701725 640.521632 
L 736.339748 647.796113 
L 740.977771 645.977492 
L 745.615793 635.065773 
L 750.253816 645.977492 
L 754.891839 629.609913 
L 759.529862 627.791293 
L 764.167885 638.703012 
L 768.805908 625.972673 
L 773.443931 644.158872 
L 778.081953 638.703012 
L 782.719976 647.796113 
L 787.357999 644.158872 
L 791.996022 589.600274 
L 796.634045 627.791293 
L 801.272068 618.698193 
L 805.91009 635.065773 
L 810.548113 647.796113 
L 815.186136 638.703012 
L 819.824159 624.154055 
L 824.462182 638.703012 
L 829.100205 651.433352 
L 833.738227 638.703012 
L 838.37625 633.247153 
L 843.014273 620.516813 
L 847.652296 624.154055 
L 852.290319 642.340252 
L 856.928342 635.065773 
L 861.566365 644.158872 
L 866.204387 642.340252 
L 870.84241 638.703012 
L 875.480433 622.335433 
L 880.118456 642.340252 
L 884.756479 645.977492 
L 889.394502 647.796113 
L 894.032524 645.977492 
L 898.670547 595.056134 
L 903.30857 636.884393 
L 907.946593 640.521632 
L 912.584616 645.977492 
L 917.222639 635.065773 
L 921.860662 600.511994 
L 926.498684 589.600274 
L 931.136707 576.869935 
L 935.77473 584.144415 
L 940.412753 593.237514 
L 945.050776 584.144415 
L 949.688799 585.963034 
L 954.326821 604.149234 
L 958.964844 582.325795 
L 963.602867 589.600274 
L 968.24089 600.511994 
L 972.878913 567.776835 
L 977.516936 596.874758 
L 982.154958 564.139595 
L 986.792981 582.325795 
L 986.792981 582.325795 
" clip-path="url(#p2469d7b6b6)" style="fill: none; stroke: #1f77b4; stroke-width: 1.5; stroke-linecap: square"/>
   </g>
   <g id="line2d_46">
    <path d="M 546.180811 633.393804 
L 550.818834 629.64323 
L 555.456857 627.338645 
L 560.09488 629.664219 
L 564.732903 629.84974 
L 569.370925 629.849183 
L 574.008948 630.639123 
L 578.646971 629.886739 
L 583.284994 630.335123 
L 587.923017 632.232388 
L 592.56104 633.167937 
L 597.199062 632.114742 
L 601.837085 631.368851 
L 606.475108 633.736981 
L 611.113131 635.657325 
L 615.751154 635.614358 
L 620.389177 635.330727 
L 625.0272 638.170014 
L 629.665222 637.700912 
L 634.303245 638.8963 
L 638.941268 638.06838 
L 643.579291 637.761646 
L 648.217314 636.577948 
L 652.855337 640.261895 
L 657.493359 637.955271 
L 662.131382 637.444858 
L 666.769405 636.043802 
L 671.407428 635.198226 
L 676.045451 636.163532 
L 680.683474 634.460467 
L 685.321496 634.339543 
L 689.959519 634.460399 
L 694.597542 632.852902 
L 699.235565 635.430211 
L 703.873588 634.14996 
L 708.511611 631.512291 
L 713.149634 632.60035 
L 717.787656 631.241344 
L 722.425679 631.229857 
L 727.063702 632.989297 
L 731.701725 632.052533 
L 736.339748 633.33487 
L 740.977771 632.062889 
L 745.615793 633.848535 
L 750.253816 631.541491 
L 754.891839 631.355738 
L 759.529862 633.225173 
L 764.167885 631.627312 
L 768.805908 631.509223 
L 773.443931 632.757236 
L 778.081953 632.49254 
L 782.719976 631.494271 
L 787.357999 633.181802 
L 791.996022 631.518619 
L 796.634045 632.988341 
L 801.272068 631.637755 
L 805.91009 632.410034 
L 810.548113 630.273839 
L 815.186136 633.87243 
L 819.824159 633.977446 
L 824.462182 635.037095 
L 829.100205 633.149421 
L 833.738227 632.630091 
L 838.37625 630.24979 
L 843.014273 632.301721 
L 847.652296 632.551822 
L 852.290319 632.019846 
L 856.928342 634.126137 
L 861.566365 632.682755 
L 866.204387 630.931568 
L 870.84241 633.471889 
L 875.480433 632.862441 
L 880.118456 634.023091 
L 884.756479 632.77779 
L 889.394502 632.25836 
L 894.032524 632.53412 
L 898.670547 631.770594 
L 903.30857 634.121829 
L 907.946593 631.396247 
L 912.584616 631.921073 
L 917.222639 631.949793 
L 921.860662 631.90126 
L 926.498684 632.436822 
L 931.136707 633.175939 
L 935.77473 630.609778 
L 940.412753 630.264407 
L 945.050776 631.57863 
L 949.688799 631.742397 
L 954.326821 632.62956 
L 958.964844 631.613306 
L 963.602867 630.223199 
L 968.24089 630.054245 
L 972.878913 629.6045 
L 977.516936 629.191185 
L 982.154958 629.08998 
L 986.792981 629.890936 
" clip-path="url(#p2469d7b6b6)" style="fill: none; stroke: #ff7f0e; stroke-width: 1.5; stroke-linecap: square"/>
   </g>
   <g id="line2d_47">
    <path d="M 546.180811 658.980625 
L 546.180811 492.940625 
" clip-path="url(#p2469d7b6b6)" style="fill: none; stroke-dasharray: 7.4,3.2; stroke-dashoffset: 0; stroke: #0000ff; stroke-width: 2"/>
   </g>
   <g id="patch_14">
    <path d="M 56.6375 658.980625 
L 56.6375 492.940625 
" style="fill: none; stroke: #000000; stroke-width: 0.8; stroke-linejoin: miter; stroke-linecap: square"/>
   </g>
   <g id="patch_15">
    <path d="M 1031.086099 658.980625 
L 1031.086099 492.940625 
" style="fill: none; stroke: #000000; stroke-width: 0.8; stroke-linejoin: miter; stroke-linecap: square"/>
   </g>
   <g id="patch_16">
    <path d="M 56.6375 658.980625 
L 1031.086099 658.980625 
" style="fill: none; stroke: #000000; stroke-width: 0.8; stroke-linejoin: miter; stroke-linecap: square"/>
   </g>
   <g id="patch_17">
    <path d="M 56.6375 492.940625 
L 1031.086099 492.940625 
" style="fill: none; stroke: #000000; stroke-width: 0.8; stroke-linejoin: miter; stroke-linecap: square"/>
   </g>
   <g id="text_44">
    <!-- API_ID: 85153 -->
    <g transform="translate(478.8618 486.940625) scale(0.2 -0.2)">
     <defs>
      <path id="SimSun-38" d="M 625 1125 
Q 625 725 887 475 
Q 1150 225 1550 225 
Q 2025 225 2237 475 
Q 2450 725 2450 1100 
Q 2450 1425 2150 1725 
Q 1850 2025 1250 2275 
Q 950 2075 787 1775 
Q 625 1475 625 1125 
z
M 2825 1175 
Q 2825 700 2475 375 
Q 2125 50 1550 50 
Q 1025 50 650 375 
Q 275 700 275 1125 
Q 275 1550 487 1850 
Q 700 2150 1100 2375 
Q 750 2550 562 2812 
Q 375 3075 375 3400 
Q 375 3825 700 4125 
Q 1025 4425 1600 4425 
Q 2125 4425 2450 4125 
Q 2775 3825 2775 3400 
Q 2775 3100 2587 2837 
Q 2400 2575 2000 2375 
Q 2425 2125 2625 1825 
Q 2825 1525 2825 1175 
z
M 2425 3375 
Q 2425 3725 2225 3987 
Q 2025 4250 1600 4250 
Q 1125 4250 925 4000 
Q 725 3750 725 3475 
Q 725 3200 1012 2937 
Q 1300 2675 1825 2475 
Q 2125 2625 2275 2850 
Q 2425 3075 2425 3375 
z
" transform="scale(0.015625)"/>
      <path id="SimSun-35" d="M 1725 2850 
Q 2200 2850 2500 2487 
Q 2800 2125 2800 1525 
Q 2800 850 2487 450 
Q 2175 50 1525 50 
Q 1075 50 725 312 
Q 375 575 375 950 
Q 375 1100 462 1212 
Q 550 1325 700 1325 
Q 850 1325 900 1225 
Q 950 1125 950 1050 
Q 950 900 875 825 
Q 800 725 800 625 
Q 800 425 1037 325 
Q 1275 225 1550 225 
Q 1950 225 2162 550 
Q 2375 875 2375 1475 
Q 2375 1975 2187 2287 
Q 2000 2600 1625 2600 
Q 1350 2600 1150 2500 
Q 950 2400 775 2075 
L 550 2100 
L 675 4375 
L 2725 4375 
L 2650 4000 
L 850 4000 
L 750 2350 
Q 1000 2700 1237 2775 
Q 1475 2850 1725 2850 
z
" transform="scale(0.015625)"/>
     </defs>
     <use xlink:href="#SimSun-41"/>
     <use xlink:href="#SimSun-50" x="50"/>
     <use xlink:href="#SimSun-49" x="100"/>
     <use xlink:href="#SimSun-5f" x="150"/>
     <use xlink:href="#SimSun-49" x="200"/>
     <use xlink:href="#SimSun-44" x="250"/>
     <use xlink:href="#SimSun-3a" x="300"/>
     <use xlink:href="#SimSun-20" x="350"/>
     <use xlink:href="#SimSun-38" x="400"/>
     <use xlink:href="#SimSun-35" x="450"/>
     <use xlink:href="#SimSun-31" x="500"/>
     <use xlink:href="#SimSun-35" x="550"/>
     <use xlink:href="#SimSun-33" x="600"/>
    </g>
   </g>
  </g>
 </g>
 <defs>
  <clipPath id="p8fc50897e4">
   <rect x="56.6375" y="27.340625" width="974.448599" height="166.04"/>
  </clipPath>
  <clipPath id="pe45ea63641">
   <rect x="56.6375" y="260.140625" width="974.448599" height="166.04"/>
  </clipPath>
  <clipPath id="p2469d7b6b6">
   <rect x="56.6375" y="492.940625" width="974.448599" height="166.04"/>
  </clipPath>
 </defs>
</svg>
