<?xml version="1.0" encoding="utf-8" standalone="no"?>
<!DOCTYPE svg PUBLIC "-//W3C//DTD SVG 1.1//EN"
  "http://www.w3.org/Graphics/SVG/1.1/DTD/svg11.dtd">
<svg xmlns:xlink="http://www.w3.org/1999/xlink" width="1050.735187pt" height="691.34625pt" viewBox="0 0 1050.735187 691.34625" xmlns="http://www.w3.org/2000/svg" version="1.1">
 <metadata>
  <rdf:RDF xmlns:dc="http://purl.org/dc/elements/1.1/" xmlns:cc="http://creativecommons.org/ns#" xmlns:rdf="http://www.w3.org/1999/02/22-rdf-syntax-ns#">
   <cc:Work>
    <dc:type rdf:resource="http://purl.org/dc/dcmitype/StillImage"/>
    <dc:date>2024-02-25T20:44:26.159186</dc:date>
    <dc:format>image/svg+xml</dc:format>
    <dc:creator>
     <cc:Agent>
      <dc:title>Matplotlib v3.7.4, https://matplotlib.org/</dc:title>
     </cc:Agent>
    </dc:creator>
   </cc:Work>
  </rdf:RDF>
 </metadata>
 <defs>
  <style type="text/css">*{stroke-linejoin: round; stroke-linecap: butt}</style>
 </defs>
 <g id="figure_1">
  <g id="patch_1">
   <path d="M 0 691.34625 
L 1050.735187 691.34625 
L 1050.735187 0 
L 0 0 
z
" style="fill: #ffffff"/>
  </g>
  <g id="axes_1">
   <g id="patch_2">
    <path d="M 56.6375 193.380625 
L 1031.086099 193.380625 
L 1031.086099 27.340625 
L 56.6375 27.340625 
z
" style="fill: #ffffff"/>
   </g>
   <g id="matplotlib.axis_1">
    <g id="xtick_1">
     <g id="line2d_1">
      <defs>
       <path id="m9b587c1c7c" d="M 0 0 
L 0 3.5 
" style="stroke: #000000; stroke-width: 0.8"/>
      </defs>
      <g>
       <use xlink:href="#m9b587c1c7c" x="100.930618" y="193.380625" style="stroke: #000000; stroke-width: 0.8"/>
      </g>
     </g>
     <g id="text_1">
      <!-- 0 -->
      <g transform="translate(95.930618 214.268125) scale(0.2 -0.2)">
       <defs>
        <path id="TimesNewRomanPSMT-30" d="M 231 2094 
Q 231 2819 450 3342 
Q 669 3866 1031 4122 
Q 1313 4325 1613 4325 
Q 2100 4325 2488 3828 
Q 2972 3213 2972 2159 
Q 2972 1422 2759 906 
Q 2547 391 2217 158 
Q 1888 -75 1581 -75 
Q 975 -75 572 641 
Q 231 1244 231 2094 
z
M 844 2016 
Q 844 1141 1059 588 
Q 1238 122 1591 122 
Q 1759 122 1940 273 
Q 2122 425 2216 781 
Q 2359 1319 2359 2297 
Q 2359 3022 2209 3506 
Q 2097 3866 1919 4016 
Q 1791 4119 1609 4119 
Q 1397 4119 1231 3928 
Q 1006 3669 925 3112 
Q 844 2556 844 2016 
z
" transform="scale(0.015625)"/>
       </defs>
       <use xlink:href="#TimesNewRomanPSMT-30"/>
      </g>
     </g>
    </g>
    <g id="xtick_2">
     <g id="line2d_2">
      <g>
       <use xlink:href="#m9b587c1c7c" x="216.881189" y="193.380625" style="stroke: #000000; stroke-width: 0.8"/>
      </g>
     </g>
     <g id="text_2">
      <!-- 25 -->
      <g transform="translate(206.881189 214.268125) scale(0.2 -0.2)">
       <defs>
        <path id="TimesNewRomanPSMT-32" d="M 2934 816 
L 2638 0 
L 138 0 
L 138 116 
Q 1241 1122 1691 1759 
Q 2141 2397 2141 2925 
Q 2141 3328 1894 3587 
Q 1647 3847 1303 3847 
Q 991 3847 742 3664 
Q 494 3481 375 3128 
L 259 3128 
Q 338 3706 661 4015 
Q 984 4325 1469 4325 
Q 1984 4325 2329 3994 
Q 2675 3663 2675 3213 
Q 2675 2891 2525 2569 
Q 2294 2063 1775 1497 
Q 997 647 803 472 
L 1909 472 
Q 2247 472 2383 497 
Q 2519 522 2628 598 
Q 2738 675 2819 816 
L 2934 816 
z
" transform="scale(0.015625)"/>
        <path id="TimesNewRomanPSMT-35" d="M 2778 4238 
L 2534 3706 
L 1259 3706 
L 981 3138 
Q 1809 3016 2294 2522 
Q 2709 2097 2709 1522 
Q 2709 1188 2573 903 
Q 2438 619 2231 419 
Q 2025 219 1772 97 
Q 1413 -75 1034 -75 
Q 653 -75 479 54 
Q 306 184 306 341 
Q 306 428 378 495 
Q 450 563 559 563 
Q 641 563 702 538 
Q 763 513 909 409 
Q 1144 247 1384 247 
Q 1750 247 2026 523 
Q 2303 800 2303 1197 
Q 2303 1581 2056 1914 
Q 1809 2247 1375 2428 
Q 1034 2569 447 2591 
L 1259 4238 
L 2778 4238 
z
" transform="scale(0.015625)"/>
       </defs>
       <use xlink:href="#TimesNewRomanPSMT-32"/>
       <use xlink:href="#TimesNewRomanPSMT-35" x="50"/>
      </g>
     </g>
    </g>
    <g id="xtick_3">
     <g id="line2d_3">
      <g>
       <use xlink:href="#m9b587c1c7c" x="332.83176" y="193.380625" style="stroke: #000000; stroke-width: 0.8"/>
      </g>
     </g>
     <g id="text_3">
      <!-- 50 -->
      <g transform="translate(322.83176 214.268125) scale(0.2 -0.2)">
       <use xlink:href="#TimesNewRomanPSMT-35"/>
       <use xlink:href="#TimesNewRomanPSMT-30" x="50"/>
      </g>
     </g>
    </g>
    <g id="xtick_4">
     <g id="line2d_4">
      <g>
       <use xlink:href="#m9b587c1c7c" x="448.782331" y="193.380625" style="stroke: #000000; stroke-width: 0.8"/>
      </g>
     </g>
     <g id="text_4">
      <!-- 75 -->
      <g transform="translate(438.782331 214.268125) scale(0.2 -0.2)">
       <defs>
        <path id="TimesNewRomanPSMT-37" d="M 644 4238 
L 2916 4238 
L 2916 4119 
L 1503 -88 
L 1153 -88 
L 2419 3728 
L 1253 3728 
Q 900 3728 750 3644 
Q 488 3500 328 3200 
L 238 3234 
L 644 4238 
z
" transform="scale(0.015625)"/>
       </defs>
       <use xlink:href="#TimesNewRomanPSMT-37"/>
       <use xlink:href="#TimesNewRomanPSMT-35" x="50"/>
      </g>
     </g>
    </g>
    <g id="xtick_5">
     <g id="line2d_5">
      <g>
       <use xlink:href="#m9b587c1c7c" x="564.732903" y="193.380625" style="stroke: #000000; stroke-width: 0.8"/>
      </g>
     </g>
     <g id="text_5">
      <!-- 100 -->
      <g transform="translate(549.732903 214.268125) scale(0.2 -0.2)">
       <defs>
        <path id="TimesNewRomanPSMT-31" d="M 750 3822 
L 1781 4325 
L 1884 4325 
L 1884 747 
Q 1884 391 1914 303 
Q 1944 216 2037 169 
Q 2131 122 2419 116 
L 2419 0 
L 825 0 
L 825 116 
Q 1125 122 1212 167 
Q 1300 213 1334 289 
Q 1369 366 1369 747 
L 1369 3034 
Q 1369 3497 1338 3628 
Q 1316 3728 1258 3775 
Q 1200 3822 1119 3822 
Q 1003 3822 797 3725 
L 750 3822 
z
" transform="scale(0.015625)"/>
       </defs>
       <use xlink:href="#TimesNewRomanPSMT-31"/>
       <use xlink:href="#TimesNewRomanPSMT-30" x="50"/>
       <use xlink:href="#TimesNewRomanPSMT-30" x="100"/>
      </g>
     </g>
    </g>
    <g id="xtick_6">
     <g id="line2d_6">
      <g>
       <use xlink:href="#m9b587c1c7c" x="680.683474" y="193.380625" style="stroke: #000000; stroke-width: 0.8"/>
      </g>
     </g>
     <g id="text_6">
      <!-- 125 -->
      <g transform="translate(665.683474 214.268125) scale(0.2 -0.2)">
       <use xlink:href="#TimesNewRomanPSMT-31"/>
       <use xlink:href="#TimesNewRomanPSMT-32" x="50"/>
       <use xlink:href="#TimesNewRomanPSMT-35" x="100"/>
      </g>
     </g>
    </g>
    <g id="xtick_7">
     <g id="line2d_7">
      <g>
       <use xlink:href="#m9b587c1c7c" x="796.634045" y="193.380625" style="stroke: #000000; stroke-width: 0.8"/>
      </g>
     </g>
     <g id="text_7">
      <!-- 150 -->
      <g transform="translate(781.634045 214.268125) scale(0.2 -0.2)">
       <use xlink:href="#TimesNewRomanPSMT-31"/>
       <use xlink:href="#TimesNewRomanPSMT-35" x="50"/>
       <use xlink:href="#TimesNewRomanPSMT-30" x="100"/>
      </g>
     </g>
    </g>
    <g id="xtick_8">
     <g id="line2d_8">
      <g>
       <use xlink:href="#m9b587c1c7c" x="912.584616" y="193.380625" style="stroke: #000000; stroke-width: 0.8"/>
      </g>
     </g>
     <g id="text_8">
      <!-- 175 -->
      <g transform="translate(897.584616 214.268125) scale(0.2 -0.2)">
       <use xlink:href="#TimesNewRomanPSMT-31"/>
       <use xlink:href="#TimesNewRomanPSMT-37" x="50"/>
       <use xlink:href="#TimesNewRomanPSMT-35" x="100"/>
      </g>
     </g>
    </g>
    <g id="xtick_9">
     <g id="line2d_9">
      <g>
       <use xlink:href="#m9b587c1c7c" x="1028.535187" y="193.380625" style="stroke: #000000; stroke-width: 0.8"/>
      </g>
     </g>
     <g id="text_9">
      <!-- 200 -->
      <g transform="translate(1013.535187 214.268125) scale(0.2 -0.2)">
       <use xlink:href="#TimesNewRomanPSMT-32"/>
       <use xlink:href="#TimesNewRomanPSMT-30" x="50"/>
       <use xlink:href="#TimesNewRomanPSMT-30" x="100"/>
      </g>
     </g>
    </g>
   </g>
   <g id="matplotlib.axis_2">
    <g id="ytick_1">
     <g id="line2d_10">
      <defs>
       <path id="mfa85bef916" d="M 0 0 
L -3.5 0 
" style="stroke: #000000; stroke-width: 0.8"/>
      </defs>
      <g>
       <use xlink:href="#mfa85bef916" x="56.6375" y="185.833347" style="stroke: #000000; stroke-width: 0.8"/>
      </g>
     </g>
     <g id="text_10">
      <!-- 0 -->
      <g transform="translate(39.6375 192.777097) scale(0.2 -0.2)">
       <use xlink:href="#TimesNewRomanPSMT-30"/>
      </g>
     </g>
    </g>
    <g id="ytick_2">
     <g id="line2d_11">
      <g>
       <use xlink:href="#mfa85bef916" x="56.6375" y="125.455167" style="stroke: #000000; stroke-width: 0.8"/>
      </g>
     </g>
     <g id="text_11">
      <!-- 2 -->
      <g transform="translate(39.6375 132.398917) scale(0.2 -0.2)">
       <use xlink:href="#TimesNewRomanPSMT-32"/>
      </g>
     </g>
    </g>
    <g id="ytick_3">
     <g id="line2d_12">
      <g>
       <use xlink:href="#mfa85bef916" x="56.6375" y="65.076988" style="stroke: #000000; stroke-width: 0.8"/>
      </g>
     </g>
     <g id="text_12">
      <!-- 4 -->
      <g transform="translate(39.6375 72.020738) scale(0.2 -0.2)">
       <defs>
        <path id="TimesNewRomanPSMT-34" d="M 2978 1563 
L 2978 1119 
L 2409 1119 
L 2409 0 
L 1894 0 
L 1894 1119 
L 100 1119 
L 100 1519 
L 2066 4325 
L 2409 4325 
L 2409 1563 
L 2978 1563 
z
M 1894 1563 
L 1894 3666 
L 406 1563 
L 1894 1563 
z
" transform="scale(0.015625)"/>
       </defs>
       <use xlink:href="#TimesNewRomanPSMT-34"/>
      </g>
     </g>
    </g>
    <g id="text_13">
     <!-- CPU使用率 -->
     <g transform="translate(33.059375 155.360625) rotate(-90) scale(0.2 -0.2)">
      <defs>
       <path id="SimSun-43" d="M 1725 50 
Q 1025 50 612 575 
Q 200 1100 200 2225 
Q 200 3175 637 3800 
Q 1075 4425 1825 4425 
Q 2000 4425 2175 4375 
Q 2350 4300 2475 4300 
Q 2575 4300 2637 4325 
Q 2700 4350 2750 4425 
L 2975 3325 
L 2825 3275 
Q 2675 3750 2425 4000 
Q 2175 4250 1775 4250 
Q 1250 4250 962 3675 
Q 675 3100 675 2250 
Q 675 1325 925 800 
Q 1175 275 1750 275 
Q 2150 275 2437 562 
Q 2725 850 2825 1325 
L 2975 1250 
Q 2850 725 2512 387 
Q 2175 50 1725 50 
z
" transform="scale(0.015625)"/>
       <path id="SimSun-50" d="M 950 2100 
L 950 450 
Q 950 350 1012 300 
Q 1075 250 1175 250 
L 1350 250 
L 1350 100 
L 150 100 
L 150 250 
L 325 250 
Q 450 250 500 300 
Q 550 350 550 450 
L 550 4025 
Q 550 4125 500 4175 
Q 450 4225 325 4225 
L 175 4225 
L 175 4375 
L 1650 4375 
Q 2275 4375 2612 4062 
Q 2950 3750 2950 3275 
Q 2950 2700 2587 2400 
Q 2225 2100 1725 2100 
L 950 2100 
z
M 1575 2250 
Q 1950 2250 2237 2475 
Q 2525 2700 2525 3250 
Q 2525 3750 2287 3987 
Q 2050 4225 1525 4225 
L 1175 4225 
Q 1075 4225 1012 4175 
Q 950 4125 950 4025 
L 950 2250 
L 1575 2250 
z
" transform="scale(0.015625)"/>
       <path id="SimSun-55" d="M 1625 250 
Q 2000 250 2262 500 
Q 2525 750 2525 1125 
L 2525 4025 
Q 2525 4125 2475 4175 
Q 2425 4225 2300 4225 
L 2150 4225 
L 2150 4375 
L 3050 4375 
L 3050 4225 
L 2900 4225 
Q 2800 4225 2737 4175 
Q 2675 4125 2675 4025 
L 2675 1125 
Q 2675 625 2337 337 
Q 2000 50 1575 50 
Q 1125 50 787 300 
Q 450 550 450 1100 
L 450 4025 
Q 450 4125 400 4175 
Q 350 4225 225 4225 
L 100 4225 
L 100 4375 
L 1200 4375 
L 1200 4225 
L 1075 4225 
Q 975 4225 912 4175 
Q 850 4125 850 4025 
L 850 1100 
Q 850 600 1062 425 
Q 1275 250 1625 250 
z
" transform="scale(0.015625)"/>
       <path id="SimSun-4f7f" d="M 2875 3150 
L 2875 2100 
L 3825 2100 
Q 3850 2825 3850 3150 
L 2875 3150 
z
M 4175 3150 
Q 4175 2800 4150 2100 
L 5150 2100 
L 5150 3150 
L 4175 3150 
z
M 5475 3100 
L 5475 2425 
Q 5475 2100 5500 1800 
L 5150 1675 
L 5150 1950 
L 4150 1950 
Q 4125 1175 3875 600 
Q 4275 275 4875 75 
Q 5475 -125 6075 -150 
L 6075 -250 
Q 5700 -300 5600 -575 
Q 4525 -325 3725 350 
Q 3425 25 2925 -225 
Q 2425 -475 1875 -650 
L 1825 -550 
Q 2400 -325 2850 -25 
Q 3300 275 3500 575 
Q 3200 925 2825 1650 
L 2900 1700 
Q 3325 1100 3625 825 
Q 3800 1300 3825 1950 
L 2875 1950 
L 2875 1825 
L 2525 1675 
Q 2550 2075 2550 2562 
Q 2550 3050 2525 3500 
L 2875 3300 
L 3850 3300 
L 3850 4025 
L 2975 4025 
Q 2650 4025 2375 3950 
L 2150 4175 
L 3850 4175 
L 3850 4525 
Q 3850 4775 3825 5225 
L 4350 5000 
L 4175 4825 
L 4175 4175 
L 5300 4175 
L 5600 4475 
L 6050 4025 
L 4175 4025 
L 4175 3300 
L 5100 3300 
L 5275 3525 
L 5650 3225 
L 5475 3100 
z
M 1675 3175 
L 1675 -450 
L 1325 -625 
Q 1350 -75 1350 350 
L 1350 3200 
Q 900 2475 350 1900 
L 275 1950 
Q 700 2525 1112 3400 
Q 1525 4275 1800 5250 
L 2325 4925 
L 2125 4800 
Q 1725 3925 1500 3525 
L 1875 3325 
L 1675 3175 
z
" transform="scale(0.015625)"/>
       <path id="SimSun-7528" d="M 3400 3150 
L 3400 1825 
L 5075 1825 
L 5075 3150 
L 3400 3150 
z
M 4075 100 
Q 4725 50 4900 62 
Q 5075 75 5075 400 
L 5075 1675 
L 3400 1675 
Q 3400 75 3425 -225 
L 3050 -400 
Q 3075 1025 3075 1675 
L 1425 1675 
Q 1250 350 375 -600 
L 300 -550 
Q 775 225 950 1025 
Q 1125 1825 1125 3225 
Q 1125 4625 1100 5075 
L 1475 4825 
L 5050 4825 
L 5225 5100 
L 5625 4800 
L 5425 4600 
L 5425 225 
Q 5450 -400 4875 -575 
Q 4825 -150 4075 -25 
L 4075 100 
z
M 1475 4675 
L 1475 3300 
L 3075 3300 
L 3075 4675 
L 1475 4675 
z
M 3400 4675 
L 3400 3300 
L 5075 3300 
L 5075 4675 
L 3400 4675 
z
M 1475 3150 
Q 1450 2100 1425 1825 
L 3075 1825 
L 3075 3150 
L 1475 3150 
z
" transform="scale(0.015625)"/>
       <path id="SimSun-7387" d="M 875 3725 
L 925 3800 
Q 1375 3650 1550 3525 
Q 1725 3400 1725 3250 
Q 1725 3175 1662 3025 
Q 1600 2875 1550 2875 
Q 1500 2875 1425 3050 
Q 1275 3325 875 3725 
z
M 550 1850 
Q 875 1925 2000 2575 
L 2050 2500 
Q 1675 2225 1337 1937 
Q 1000 1650 875 1425 
L 550 1850 
z
M 5200 3450 
Q 4800 3150 4275 2800 
L 4225 2875 
Q 4775 3400 5050 3925 
L 5450 3525 
L 5200 3450 
z
M 4325 2500 
L 4350 2575 
Q 5225 2350 5375 2212 
Q 5525 2075 5525 1900 
Q 5525 1775 5487 1662 
Q 5450 1550 5400 1550 
Q 5325 1550 5200 1800 
Q 4975 2150 4325 2500 
z
M 3150 3900 
Q 2500 3300 2300 3150 
Q 2800 3150 3400 3175 
Q 3700 3500 3850 3825 
L 4250 3450 
Q 4050 3400 3450 2825 
Q 2850 2250 2475 1950 
Q 3150 1975 3850 2000 
Q 3750 2175 3550 2450 
L 3600 2500 
Q 4050 2250 4200 2100 
Q 4350 1950 4350 1850 
Q 4350 1775 4250 1625 
Q 4150 1475 4100 1475 
Q 4075 1475 4050 1550 
Q 4000 1700 3900 1900 
Q 3650 1875 3075 1800 
L 3500 1550 
L 3325 1425 
L 3325 975 
L 5325 975 
L 5650 1300 
L 6100 825 
L 3325 825 
Q 3325 -275 3350 -525 
L 2975 -650 
Q 3000 0 3000 825 
L 1125 825 
Q 800 825 525 750 
L 300 975 
L 3000 975 
L 3000 1775 
Q 2450 1700 2200 1525 
L 1950 1950 
Q 2275 1950 2675 2350 
Q 3075 2750 3325 3050 
Q 2400 2950 2150 2775 
L 1950 3175 
Q 2150 3150 2475 3575 
Q 2800 4000 2900 4225 
L 1450 4225 
Q 1125 4225 850 4150 
L 625 4375 
L 3100 4375 
Q 3050 4800 2675 5200 
L 2725 5250 
Q 3225 5050 3337 4912 
Q 3450 4775 3450 4700 
Q 3450 4550 3250 4375 
L 5025 4375 
L 5350 4675 
L 5775 4225 
L 3050 4225 
L 3375 3950 
L 3150 3900 
z
" transform="scale(0.015625)"/>
      </defs>
      <use xlink:href="#SimSun-43"/>
      <use xlink:href="#SimSun-50" x="50"/>
      <use xlink:href="#SimSun-55" x="100"/>
      <use xlink:href="#SimSun-4f7f" x="150"/>
      <use xlink:href="#SimSun-7528" x="250"/>
      <use xlink:href="#SimSun-7387" x="350"/>
     </g>
    </g>
   </g>
   <g id="line2d_13">
    <path d="M 100.930618 155.644262 
L 105.568641 155.644262 
L 110.206664 185.833352 
L 114.844687 185.833352 
L 119.48271 155.644262 
L 124.120732 185.833352 
L 128.758755 155.644262 
L 133.396778 185.833352 
L 138.034801 185.833352 
L 142.672824 155.644262 
L 147.310847 185.833352 
L 151.948869 155.644262 
L 156.586892 185.833352 
L 161.224915 155.644262 
L 165.862938 95.266084 
L 170.500961 155.644262 
L 184.415029 155.644262 
L 189.053052 185.833352 
L 193.691075 185.833352 
L 198.329098 125.45516 
L 202.967121 95.266084 
L 207.605144 185.833352 
L 216.881189 125.45516 
L 221.519212 125.45516 
L 226.157235 185.833352 
L 230.795258 155.644262 
L 249.347349 155.644262 
L 253.985372 185.833352 
L 258.623395 185.833352 
L 263.261418 95.266084 
L 267.899441 155.644262 
L 277.175486 155.644262 
L 281.813509 185.833352 
L 286.451532 155.644262 
L 291.089555 155.644262 
L 295.727578 185.833352 
L 300.3656 155.644262 
L 305.003623 185.833352 
L 314.279669 185.833352 
L 318.917692 155.644262 
L 328.193738 155.644262 
L 332.83176 125.45516 
L 337.469783 185.833352 
L 342.107806 125.45516 
L 346.745829 185.833352 
L 351.383852 155.644262 
L 356.021875 185.833352 
L 360.659897 185.833352 
L 365.29792 155.644262 
L 369.935943 155.644262 
L 374.573966 125.45516 
L 379.211989 125.45516 
L 383.850012 155.644262 
L 393.126057 155.644262 
L 397.76408 185.833352 
L 402.402103 185.833352 
L 411.678149 125.45516 
L 416.316172 185.833352 
L 420.954194 155.644262 
L 425.592217 185.833352 
L 434.868263 125.45516 
L 439.506286 185.833352 
L 444.144309 155.644262 
L 453.420354 155.644262 
L 458.058377 185.833352 
L 462.6964 155.644262 
L 467.334423 155.644262 
L 471.972446 185.833352 
L 476.610469 155.644262 
L 481.248491 155.644262 
L 485.886514 185.833352 
L 490.524537 155.644262 
L 499.800583 155.644262 
L 504.438606 125.45516 
L 513.714651 185.833352 
L 518.352674 155.644262 
L 522.990697 155.644262 
L 527.62872 185.833352 
L 532.266743 185.833352 
L 536.904765 155.644262 
L 541.542788 155.644262 
L 546.180811 185.833352 
L 550.818834 185.833352 
L 555.456857 155.644262 
L 564.732903 155.644262 
L 569.370925 185.833352 
L 574.008948 125.45516 
L 583.284994 185.833352 
L 587.923017 125.45516 
L 592.56104 95.266084 
L 597.199062 155.644262 
L 611.113131 155.644262 
L 615.751154 185.833352 
L 625.0272 125.45516 
L 629.665222 155.644262 
L 643.579291 155.644262 
L 648.217314 95.266084 
L 652.855337 65.076988 
L 657.493359 95.266084 
L 666.769405 95.266084 
L 671.407428 34.887898 
L 676.045451 34.887898 
L 680.683474 125.45516 
L 685.321496 125.45516 
L 689.959519 155.644262 
L 694.597542 155.644262 
L 699.235565 185.833352 
L 703.873588 155.644262 
L 708.511611 155.644262 
L 713.149634 185.833352 
L 717.787656 185.833352 
L 722.425679 155.644262 
L 727.063702 155.644262 
L 731.701725 185.833352 
L 740.977771 185.833352 
L 745.615793 155.644262 
L 750.253816 185.833352 
L 754.891839 185.833352 
L 759.529862 155.644262 
L 764.167885 185.833352 
L 768.805908 155.644262 
L 773.443931 95.266084 
L 778.081953 155.644262 
L 782.719976 95.266084 
L 787.357999 65.076988 
L 791.996022 155.644262 
L 801.272068 155.644262 
L 805.91009 185.833352 
L 810.548113 125.45516 
L 819.824159 185.833352 
L 829.100205 125.45516 
L 833.738227 185.833352 
L 838.37625 155.644262 
L 847.652296 155.644262 
L 852.290319 185.833352 
L 856.928342 185.833352 
L 861.566365 155.644262 
L 880.118456 155.644262 
L 884.756479 125.45516 
L 889.394502 185.833352 
L 898.670547 185.833352 
L 903.30857 125.45516 
L 907.946593 155.644262 
L 921.860662 155.644262 
L 926.498684 185.833352 
L 931.136707 155.644262 
L 935.77473 155.644262 
L 940.412753 185.833352 
L 945.050776 155.644262 
L 949.688799 155.644262 
L 954.326821 125.45516 
L 958.964844 155.644262 
L 972.878913 155.644262 
L 977.516936 185.833352 
L 986.792981 185.833352 
L 986.792981 185.833352 
" clip-path="url(#p6e9cc2e9a7)" style="fill: none; stroke: #1f77b4; stroke-width: 1.5; stroke-linecap: square"/>
   </g>
   <g id="line2d_14">
    <path d="M 546.180811 168.917099 
L 550.818834 171.364498 
L 555.456857 174.54574 
L 560.09488 175.114799 
L 564.732903 171.555379 
L 569.370925 169.854088 
L 574.008948 167.955163 
L 578.646971 168.738295 
L 583.284994 170.059278 
L 587.923017 171.038402 
L 592.56104 168.852738 
L 597.199062 163.954326 
L 601.837085 158.314515 
L 606.475108 155.98186 
L 611.113131 154.938204 
L 615.751154 155.961563 
L 620.389177 158.51042 
L 625.0272 161.123811 
L 629.665222 161.776637 
L 634.303245 160.207249 
L 638.941268 160.79318 
L 643.579291 161.025535 
L 648.217314 161.787837 
L 652.855337 161.351717 
L 657.493359 160.525774 
L 662.131382 158.090308 
L 666.769405 156.85135 
L 671.407428 156.637306 
L 676.045451 159.650685 
L 680.683474 163.359125 
L 685.321496 165.574414 
L 689.959519 167.037147 
L 694.597542 165.147249 
L 699.235565 162.621611 
L 703.873588 160.648681 
L 708.511611 159.426406 
L 713.149634 160.150042 
L 717.787656 160.423538 
L 722.425679 161.029536 
L 727.063702 162.89908 
L 731.701725 161.598884 
L 736.339748 158.538332 
L 740.977771 157.050537 
L 745.615793 155.22254 
L 750.253816 154.135855 
L 754.891839 152.824315 
L 759.529862 153.007365 
L 764.167885 152.243451 
L 768.805908 152.08483 
L 773.443931 152.006015 
L 778.081953 154.277159 
L 782.719976 155.233351 
L 787.357999 156.799714 
L 791.996022 156.681557 
L 796.634045 155.166801 
L 801.272068 154.308181 
L 805.91009 154.339073 
L 810.548113 155.122291 
L 815.186136 155.823282 
L 819.824159 156.353201 
L 824.462182 157.075902 
L 829.100205 157.583522 
L 833.738227 156.011889 
L 838.37625 155.236662 
L 843.014273 155.035185 
L 847.652296 154.997585 
L 852.290319 154.715581 
L 856.928342 155.632748 
L 861.566365 154.044603 
L 866.204387 154.420737 
L 870.84241 155.997033 
L 875.480433 157.520356 
L 880.118456 160.4711 
L 884.756479 160.875464 
L 889.394502 161.090515 
L 894.032524 160.950722 
L 898.670547 160.01906 
L 903.30857 162.362381 
L 907.946593 164.730649 
L 912.584616 166.410075 
L 917.222639 166.660437 
L 921.860662 165.580676 
L 926.498684 164.562023 
L 931.136707 163.51016 
L 935.77473 162.842291 
L 940.412753 161.767784 
L 945.050776 159.253476 
L 949.688799 156.990207 
L 954.326821 152.704446 
L 958.964844 150.137494 
L 963.602867 149.208523 
L 968.24089 149.864732 
L 972.878913 152.406291 
L 977.516936 151.794074 
L 982.154958 151.739904 
L 986.792981 149.471251 
" clip-path="url(#p6e9cc2e9a7)" style="fill: none; stroke: #ff7f0e; stroke-width: 1.5; stroke-linecap: square"/>
   </g>
   <g id="line2d_15">
    <path d="M 546.180811 193.380625 
L 546.180811 27.340625 
" clip-path="url(#p6e9cc2e9a7)" style="fill: none; stroke-dasharray: 7.4,3.2; stroke-dashoffset: 0; stroke: #0000ff; stroke-width: 2"/>
   </g>
   <g id="patch_3">
    <path d="M 56.6375 193.380625 
L 56.6375 27.340625 
" style="fill: none; stroke: #000000; stroke-width: 0.8; stroke-linejoin: miter; stroke-linecap: square"/>
   </g>
   <g id="patch_4">
    <path d="M 1031.086099 193.380625 
L 1031.086099 27.340625 
" style="fill: none; stroke: #000000; stroke-width: 0.8; stroke-linejoin: miter; stroke-linecap: square"/>
   </g>
   <g id="patch_5">
    <path d="M 56.6375 193.380625 
L 1031.086099 193.380625 
" style="fill: none; stroke: #000000; stroke-width: 0.8; stroke-linejoin: miter; stroke-linecap: square"/>
   </g>
   <g id="patch_6">
    <path d="M 56.6375 27.340625 
L 1031.086099 27.340625 
" style="fill: none; stroke: #000000; stroke-width: 0.8; stroke-linejoin: miter; stroke-linecap: square"/>
   </g>
   <g id="text_14">
    <!-- API_ID: 85265 -->
    <g transform="translate(478.8618 21.340625) scale(0.2 -0.2)">
     <defs>
      <path id="SimSun-41" d="M 2025 1700 
L 900 1700 
L 675 750 
Q 650 625 650 550 
Q 650 450 687 350 
Q 725 250 900 250 
L 975 250 
L 975 100 
L 50 100 
L 50 250 
L 125 250 
Q 225 250 300 312 
Q 375 375 400 525 
L 1375 4350 
L 1750 4475 
L 2700 525 
Q 2750 375 2825 312 
Q 2900 250 3000 250 
L 3075 250 
L 3075 100 
L 2000 100 
L 2000 250 
L 2100 250 
Q 2250 250 2275 312 
Q 2300 375 2300 425 
Q 2300 525 2275 600 
L 2025 1700 
z
M 325 250 
L 325 250 
z
M 575 250 
L 575 250 
z
M 2350 250 
L 2350 250 
z
M 2775 250 
L 2775 250 
z
M 1500 3925 
L 1475 3925 
L 950 1850 
L 2000 1850 
L 1500 3925 
z
" transform="scale(0.015625)"/>
      <path id="SimSun-49" d="M 600 4225 
L 600 4375 
L 2600 4375 
L 2600 4225 
L 2025 4225 
Q 1925 4225 1862 4175 
Q 1800 4125 1800 4025 
L 1800 450 
Q 1800 350 1862 300 
Q 1925 250 2025 250 
L 2600 250 
L 2600 100 
L 600 100 
L 600 250 
L 1175 250 
Q 1300 250 1350 300 
Q 1400 350 1400 450 
L 1400 4025 
Q 1400 4125 1350 4175 
Q 1300 4225 1175 4225 
L 600 4225 
z
" transform="scale(0.015625)"/>
      <path id="SimSun-5f" d="M 0 -875 
L 0 -725 
L 3175 -725 
L 3175 -875 
L 0 -875 
z
" transform="scale(0.015625)"/>
      <path id="SimSun-44" d="M 2500 2275 
Q 2500 3350 2175 3787 
Q 1850 4225 1275 4225 
Q 1100 4225 1012 4175 
Q 925 4125 925 4025 
L 925 450 
Q 925 350 1000 300 
Q 1075 250 1200 250 
Q 1750 250 2125 662 
Q 2500 1075 2500 2275 
z
M 525 4025 
Q 525 4125 475 4175 
Q 425 4225 300 4225 
L 150 4225 
L 150 4375 
L 1275 4375 
Q 2050 4375 2512 3875 
Q 2975 3375 2975 2325 
Q 2975 1175 2525 637 
Q 2075 100 1200 100 
L 125 100 
L 125 250 
L 300 250 
Q 425 250 475 300 
Q 525 350 525 450 
L 525 4025 
z
" transform="scale(0.015625)"/>
      <path id="SimSun-3a" d="M 1900 2725 
Q 1900 2575 1800 2475 
Q 1700 2375 1550 2375 
Q 1400 2375 1300 2475 
Q 1200 2575 1200 2725 
Q 1200 2875 1300 2975 
Q 1400 3075 1550 3075 
Q 1700 3075 1800 2975 
Q 1900 2875 1900 2725 
z
M 1900 375 
Q 1900 225 1800 125 
Q 1700 25 1550 25 
Q 1400 25 1300 125 
Q 1200 225 1200 375 
Q 1200 525 1300 625 
Q 1400 725 1550 725 
Q 1700 725 1800 625 
Q 1900 525 1900 375 
z
" transform="scale(0.015625)"/>
      <path id="SimSun-20" d="M 0 0 
Q 0 0 0 0 
z
" transform="scale(0.015625)"/>
      <path id="SimSun-38" d="M 625 1125 
Q 625 725 887 475 
Q 1150 225 1550 225 
Q 2025 225 2237 475 
Q 2450 725 2450 1100 
Q 2450 1425 2150 1725 
Q 1850 2025 1250 2275 
Q 950 2075 787 1775 
Q 625 1475 625 1125 
z
M 2825 1175 
Q 2825 700 2475 375 
Q 2125 50 1550 50 
Q 1025 50 650 375 
Q 275 700 275 1125 
Q 275 1550 487 1850 
Q 700 2150 1100 2375 
Q 750 2550 562 2812 
Q 375 3075 375 3400 
Q 375 3825 700 4125 
Q 1025 4425 1600 4425 
Q 2125 4425 2450 4125 
Q 2775 3825 2775 3400 
Q 2775 3100 2587 2837 
Q 2400 2575 2000 2375 
Q 2425 2125 2625 1825 
Q 2825 1525 2825 1175 
z
M 2425 3375 
Q 2425 3725 2225 3987 
Q 2025 4250 1600 4250 
Q 1125 4250 925 4000 
Q 725 3750 725 3475 
Q 725 3200 1012 2937 
Q 1300 2675 1825 2475 
Q 2125 2625 2275 2850 
Q 2425 3075 2425 3375 
z
" transform="scale(0.015625)"/>
      <path id="SimSun-35" d="M 1725 2850 
Q 2200 2850 2500 2487 
Q 2800 2125 2800 1525 
Q 2800 850 2487 450 
Q 2175 50 1525 50 
Q 1075 50 725 312 
Q 375 575 375 950 
Q 375 1100 462 1212 
Q 550 1325 700 1325 
Q 850 1325 900 1225 
Q 950 1125 950 1050 
Q 950 900 875 825 
Q 800 725 800 625 
Q 800 425 1037 325 
Q 1275 225 1550 225 
Q 1950 225 2162 550 
Q 2375 875 2375 1475 
Q 2375 1975 2187 2287 
Q 2000 2600 1625 2600 
Q 1350 2600 1150 2500 
Q 950 2400 775 2075 
L 550 2100 
L 675 4375 
L 2725 4375 
L 2650 4000 
L 850 4000 
L 750 2350 
Q 1000 2700 1237 2775 
Q 1475 2850 1725 2850 
z
" transform="scale(0.015625)"/>
      <path id="SimSun-32" d="M 2325 3325 
Q 2325 3775 2125 4012 
Q 1925 4250 1525 4250 
Q 1225 4250 1012 4087 
Q 800 3925 800 3675 
Q 800 3525 900 3425 
Q 975 3325 975 3225 
Q 975 3100 912 3037 
Q 850 2975 725 2975 
Q 575 2975 487 3062 
Q 400 3150 400 3350 
Q 400 3875 775 4150 
Q 1150 4425 1575 4425 
Q 2175 4425 2462 4125 
Q 2750 3825 2750 3375 
Q 2750 3075 2612 2775 
Q 2475 2475 2175 2200 
Q 1450 1500 1062 1062 
Q 675 625 600 475 
L 2075 475 
Q 2300 475 2450 650 
Q 2600 825 2650 1175 
L 2800 1175 
L 2650 100 
L 325 100 
L 325 425 
Q 450 650 737 1000 
Q 1025 1350 1500 1825 
Q 1925 2250 2125 2625 
Q 2325 3000 2325 3325 
z
" transform="scale(0.015625)"/>
      <path id="SimSun-36" d="M 775 1800 
Q 775 1050 1037 637 
Q 1300 225 1675 225 
Q 2050 225 2250 500 
Q 2450 775 2450 1525 
Q 2450 2025 2237 2300 
Q 2025 2575 1725 2575 
Q 1450 2575 1212 2412 
Q 975 2250 775 1800 
z
M 1750 2825 
Q 2350 2825 2612 2425 
Q 2875 2025 2875 1525 
Q 2875 775 2512 412 
Q 2150 50 1675 50 
Q 1000 50 650 562 
Q 300 1075 300 2050 
Q 300 3200 725 3812 
Q 1150 4425 1875 4425 
Q 2225 4425 2437 4225 
Q 2650 4025 2650 3875 
Q 2650 3725 2587 3650 
Q 2525 3575 2375 3575 
Q 2250 3575 2187 3637 
Q 2125 3700 2125 3825 
Q 2125 3875 2150 3925 
Q 2150 3975 2150 4025 
Q 2150 4125 2075 4187 
Q 2000 4250 1800 4250 
Q 1375 4250 1075 3862 
Q 775 3475 775 2175 
Q 925 2500 1187 2662 
Q 1450 2825 1750 2825 
z
" transform="scale(0.015625)"/>
     </defs>
     <use xlink:href="#SimSun-41"/>
     <use xlink:href="#SimSun-50" x="50"/>
     <use xlink:href="#SimSun-49" x="100"/>
     <use xlink:href="#SimSun-5f" x="150"/>
     <use xlink:href="#SimSun-49" x="200"/>
     <use xlink:href="#SimSun-44" x="250"/>
     <use xlink:href="#SimSun-3a" x="300"/>
     <use xlink:href="#SimSun-20" x="350"/>
     <use xlink:href="#SimSun-38" x="400"/>
     <use xlink:href="#SimSun-35" x="450"/>
     <use xlink:href="#SimSun-32" x="500"/>
     <use xlink:href="#SimSun-36" x="550"/>
     <use xlink:href="#SimSun-35" x="600"/>
    </g>
   </g>
   <g id="legend_1">
    <g id="patch_7">
     <path d="M 70.6375 100.215625 
L 194.6375 100.215625 
Q 198.6375 100.215625 198.6375 96.215625 
L 198.6375 41.340625 
Q 198.6375 37.340625 194.6375 37.340625 
L 70.6375 37.340625 
Q 66.6375 37.340625 66.6375 41.340625 
L 66.6375 96.215625 
Q 66.6375 100.215625 70.6375 100.215625 
z
" style="fill: #ffffff; opacity: 0.8; stroke: #cccccc; stroke-linejoin: miter"/>
    </g>
    <g id="line2d_16">
     <path d="M 74.6375 54.278125 
L 94.6375 54.278125 
L 114.6375 54.278125 
" style="fill: none; stroke: #1f77b4; stroke-width: 1.5; stroke-linecap: square"/>
    </g>
    <g id="text_15">
     <!-- 真实值 -->
     <g transform="translate(130.6375 61.278125) scale(0.2 -0.2)">
      <defs>
       <path id="SimSun-771f" d="M 2050 3450 
L 2050 2900 
L 4300 2900 
L 4300 3450 
L 2050 3450 
z
M 2050 2750 
L 2050 2225 
L 4300 2225 
L 4300 2750 
L 2050 2750 
z
M 2050 2075 
L 2050 1550 
L 4300 1550 
L 4300 2075 
L 2050 2075 
z
M 2050 1400 
L 2050 875 
L 4300 875 
L 4300 1400 
L 2050 1400 
z
M 2875 3600 
L 2925 4325 
L 1525 4325 
Q 1200 4325 925 4250 
L 700 4475 
L 2950 4475 
Q 2975 4825 2975 5275 
L 3550 5025 
L 3375 4925 
L 3300 4475 
L 5000 4475 
L 5325 4825 
L 5775 4325 
L 3275 4325 
L 3200 3600 
L 4275 3600 
L 4450 3875 
L 4850 3575 
L 4650 3375 
L 4650 875 
L 5300 875 
L 5675 1225 
L 6125 725 
L 1150 725 
Q 825 725 550 650 
L 325 875 
L 1700 875 
Q 1700 3200 1675 3775 
L 2050 3600 
L 2875 3600 
z
M 2425 725 
L 2825 350 
L 2575 300 
Q 1500 -425 800 -650 
L 775 -575 
Q 1950 125 2425 725 
z
M 3800 700 
Q 4575 375 4962 200 
Q 5350 25 5400 -112 
Q 5450 -250 5450 -325 
Q 5450 -400 5400 -525 
Q 5350 -650 5325 -650 
Q 5250 -650 5100 -450 
Q 4875 -150 3750 625 
L 3800 700 
z
" transform="scale(0.015625)"/>
       <path id="SimSun-5b9e" d="M 1950 3625 
Q 2575 3400 2700 3250 
Q 2825 3100 2825 2975 
Q 2825 2850 2750 2700 
Q 2675 2550 2625 2550 
Q 2550 2550 2450 2800 
Q 2275 3175 1900 3550 
L 1950 3625 
z
M 3575 1325 
Q 3500 1100 3425 925 
Q 4650 550 5087 325 
Q 5525 100 5512 -225 
Q 5500 -550 5400 -550 
Q 5300 -550 5075 -300 
Q 4625 175 3375 800 
Q 3025 175 2300 -150 
Q 1575 -475 425 -625 
L 425 -525 
Q 1475 -325 2200 100 
Q 2925 525 3200 1325 
L 1225 1325 
Q 900 1325 625 1250 
L 400 1475 
L 3225 1475 
Q 3325 1950 3375 2575 
Q 3425 3200 3425 3700 
L 4050 3400 
L 3850 3225 
Q 3750 2300 3625 1475 
L 5175 1475 
L 5550 1850 
L 6075 1325 
L 3575 1325 
z
M 1275 2700 
Q 1975 2425 2100 2262 
Q 2225 2100 2225 1975 
Q 2225 1850 2150 1700 
Q 2075 1550 2025 1550 
Q 1950 1550 1850 1800 
Q 1675 2175 1225 2625 
L 1275 2700 
z
M 2750 5225 
L 2825 5275 
Q 3225 5100 3425 4925 
Q 3625 4750 3625 4600 
Q 3625 4450 3512 4300 
Q 3400 4150 3325 4150 
Q 3250 4150 3200 4400 
Q 3100 4775 2750 5225 
z
M 4975 3225 
L 5350 3925 
L 1175 3925 
Q 1225 3525 1125 3300 
Q 1025 3075 787 3100 
Q 550 3125 550 3200 
Q 550 3300 700 3475 
Q 975 3825 1050 4375 
L 1150 4375 
L 1175 4075 
L 5300 4075 
L 5575 4350 
L 6050 3800 
Q 5625 3825 5050 3175 
L 4975 3225 
z
" transform="scale(0.015625)"/>
       <path id="SimSun-503c" d="M 1525 650 
Q 1525 -225 1550 -525 
L 1175 -650 
Q 1200 250 1200 550 
L 1200 3025 
Q 750 2300 325 1850 
L 250 1900 
Q 725 2625 1100 3525 
Q 1475 4425 1675 5200 
L 2200 4875 
L 1950 4725 
Q 1550 3800 1425 3475 
L 1725 3300 
L 1525 3150 
L 1525 650 
z
M 2875 3225 
L 2875 2475 
L 4800 2475 
L 4800 3225 
L 2875 3225 
z
M 2875 2325 
L 2875 1575 
L 4800 1575 
L 4800 2325 
L 2875 2325 
z
M 2875 1425 
L 2875 675 
L 4800 675 
L 4800 1425 
L 2875 1425 
z
M 2875 525 
L 2875 -225 
L 4800 -225 
L 4800 525 
L 2875 525 
z
M 3550 4250 
Q 3575 4825 3550 5225 
L 4125 4950 
L 3925 4800 
L 3900 4250 
L 5025 4250 
L 5350 4575 
L 5825 4100 
L 3900 4100 
L 3875 3375 
L 4750 3375 
L 4975 3625 
L 5350 3300 
L 5125 3150 
L 5125 -225 
L 5350 -225 
L 5675 100 
L 6150 -375 
L 2450 -375 
Q 2125 -375 1850 -450 
L 1625 -225 
L 2550 -225 
L 2550 2550 
Q 2550 2850 2525 3575 
L 2875 3375 
L 3525 3375 
L 3550 4100 
L 2800 4100 
Q 2475 4100 2200 4025 
L 1975 4250 
L 3550 4250 
z
" transform="scale(0.015625)"/>
      </defs>
      <use xlink:href="#SimSun-771f"/>
      <use xlink:href="#SimSun-5b9e" x="100"/>
      <use xlink:href="#SimSun-503c" x="200"/>
     </g>
    </g>
    <g id="line2d_17">
     <path d="M 74.6375 82.6375 
L 94.6375 82.6375 
L 114.6375 82.6375 
" style="fill: none; stroke: #ff7f0e; stroke-width: 1.5; stroke-linecap: square"/>
    </g>
    <g id="text_16">
     <!-- 预测值 -->
     <g transform="translate(130.6375 89.6375) scale(0.2 -0.2)">
      <defs>
       <path id="SimSun-9884" d="M 475 4825 
L 2225 4825 
L 2425 5075 
L 2825 4675 
Q 2600 4625 2387 4412 
Q 2175 4200 1800 3750 
Q 2050 3575 2037 3400 
Q 2025 3225 1937 3150 
Q 1850 3075 1825 3075 
Q 1725 3075 1650 3300 
Q 1525 3600 1050 4100 
L 1100 4150 
Q 1475 3975 1700 3825 
L 2225 4675 
L 1300 4675 
Q 975 4675 700 4600 
L 475 4825 
z
M 725 100 
Q 1175 50 1362 37 
Q 1550 25 1550 275 
L 1550 2875 
L 1125 2875 
Q 800 2875 525 2800 
L 300 3025 
L 2525 3025 
L 2725 3275 
L 3150 2875 
Q 2800 2825 2275 2075 
L 2200 2125 
L 2550 2875 
L 1875 2875 
L 1875 150 
Q 1875 -400 1350 -500 
Q 1325 -175 725 0 
L 725 100 
z
M 3250 775 
Q 3275 1425 3275 2287 
Q 3275 3150 3250 3900 
L 3600 3700 
L 4050 3700 
Q 4175 4400 4200 4675 
L 3650 4675 
Q 3325 4675 3050 4600 
L 2825 4825 
L 5325 4825 
L 5675 5150 
L 6125 4675 
L 4675 4675 
Q 4500 4425 4175 3700 
L 5300 3700 
L 5475 3975 
L 5875 3675 
L 5675 3475 
L 5675 1950 
Q 5675 1525 5700 1075 
L 5350 875 
L 5350 3550 
L 3600 3550 
L 3600 1000 
L 3250 775 
z
M 4850 2875 
L 4625 2675 
Q 4625 1475 4475 937 
Q 4325 400 3900 50 
Q 3475 -300 2425 -625 
L 2400 -550 
Q 3500 -50 3837 400 
Q 4175 850 4237 1587 
Q 4300 2325 4275 3175 
L 4850 2875 
z
M 4650 950 
Q 5725 375 5875 212 
Q 6025 50 6025 -125 
Q 6025 -225 5962 -387 
Q 5900 -550 5850 -550 
Q 5800 -550 5750 -450 
Q 5625 -250 5437 0 
Q 5250 250 4600 875 
L 4650 950 
z
" transform="scale(0.015625)"/>
       <path id="SimSun-6d4b" d="M 1975 1000 
Q 2000 1475 2000 2925 
Q 2000 4375 1975 5000 
L 2350 4775 
L 3575 4775 
L 3775 4975 
L 4100 4650 
L 3900 4500 
L 3900 2350 
Q 3900 1850 3925 1350 
L 3600 1200 
L 3600 4625 
L 2325 4625 
L 2325 1150 
L 1975 1000 
z
M 2775 3975 
L 3300 3700 
L 3125 3525 
Q 3150 1825 2875 937 
Q 2600 50 1375 -600 
L 1325 -500 
Q 2200 100 2475 725 
Q 2750 1350 2775 2187 
Q 2800 3025 2775 3975 
z
M 3100 950 
Q 3825 450 3937 262 
Q 4050 75 4050 -25 
Q 4050 -150 3975 -262 
Q 3900 -375 3850 -375 
Q 3750 -375 3650 -75 
Q 3500 375 3050 875 
L 3100 950 
z
M 4475 825 
Q 4500 1200 4500 1700 
L 4500 3400 
Q 4500 3950 4475 4300 
L 5025 4025 
L 4825 3825 
L 4825 1700 
Q 4825 1325 4850 950 
L 4475 825 
z
M 5375 150 
L 5375 4050 
Q 5375 4750 5350 5125 
L 5875 4875 
L 5700 4700 
L 5700 75 
Q 5700 -200 5600 -350 
Q 5500 -500 5200 -600 
Q 5025 -225 4450 -50 
L 4450 50 
Q 5125 -50 5250 -37 
Q 5375 -25 5375 150 
z
M 1850 3500 
Q 1375 1525 1300 1225 
Q 1200 900 1212 450 
Q 1225 0 1250 -175 
Q 1250 -275 1125 -275 
Q 1025 -275 875 -225 
Q 725 -175 725 0 
Q 725 125 800 375 
Q 875 625 875 775 
Q 875 950 762 1050 
Q 650 1150 275 1250 
L 275 1350 
Q 725 1300 837 1312 
Q 950 1325 1087 1537 
Q 1225 1750 1750 3525 
L 1850 3500 
z
M 375 3775 
Q 1075 3350 1112 3100 
Q 1150 2850 1050 2775 
Q 950 2700 900 2700 
Q 800 2700 725 2975 
Q 600 3350 325 3700 
L 375 3775 
z
M 800 5100 
Q 1475 4725 1550 4512 
Q 1625 4300 1525 4187 
Q 1425 4075 1350 4075 
Q 1275 4075 1200 4300 
Q 1075 4650 750 5025 
L 800 5100 
z
" transform="scale(0.015625)"/>
      </defs>
      <use xlink:href="#SimSun-9884"/>
      <use xlink:href="#SimSun-6d4b" x="100"/>
      <use xlink:href="#SimSun-503c" x="200"/>
     </g>
    </g>
   </g>
  </g>
  <g id="axes_2">
   <g id="patch_8">
    <path d="M 56.6375 426.180625 
L 1031.086099 426.180625 
L 1031.086099 260.140625 
L 56.6375 260.140625 
z
" style="fill: #ffffff"/>
   </g>
   <g id="matplotlib.axis_3">
    <g id="xtick_10">
     <g id="line2d_18">
      <g>
       <use xlink:href="#m9b587c1c7c" x="100.930618" y="426.180625" style="stroke: #000000; stroke-width: 0.8"/>
      </g>
     </g>
     <g id="text_17">
      <!-- 0 -->
      <g transform="translate(95.930618 447.068125) scale(0.2 -0.2)">
       <use xlink:href="#TimesNewRomanPSMT-30"/>
      </g>
     </g>
    </g>
    <g id="xtick_11">
     <g id="line2d_19">
      <g>
       <use xlink:href="#m9b587c1c7c" x="216.881189" y="426.180625" style="stroke: #000000; stroke-width: 0.8"/>
      </g>
     </g>
     <g id="text_18">
      <!-- 25 -->
      <g transform="translate(206.881189 447.068125) scale(0.2 -0.2)">
       <use xlink:href="#TimesNewRomanPSMT-32"/>
       <use xlink:href="#TimesNewRomanPSMT-35" x="50"/>
      </g>
     </g>
    </g>
    <g id="xtick_12">
     <g id="line2d_20">
      <g>
       <use xlink:href="#m9b587c1c7c" x="332.83176" y="426.180625" style="stroke: #000000; stroke-width: 0.8"/>
      </g>
     </g>
     <g id="text_19">
      <!-- 50 -->
      <g transform="translate(322.83176 447.068125) scale(0.2 -0.2)">
       <use xlink:href="#TimesNewRomanPSMT-35"/>
       <use xlink:href="#TimesNewRomanPSMT-30" x="50"/>
      </g>
     </g>
    </g>
    <g id="xtick_13">
     <g id="line2d_21">
      <g>
       <use xlink:href="#m9b587c1c7c" x="448.782331" y="426.180625" style="stroke: #000000; stroke-width: 0.8"/>
      </g>
     </g>
     <g id="text_20">
      <!-- 75 -->
      <g transform="translate(438.782331 447.068125) scale(0.2 -0.2)">
       <use xlink:href="#TimesNewRomanPSMT-37"/>
       <use xlink:href="#TimesNewRomanPSMT-35" x="50"/>
      </g>
     </g>
    </g>
    <g id="xtick_14">
     <g id="line2d_22">
      <g>
       <use xlink:href="#m9b587c1c7c" x="564.732903" y="426.180625" style="stroke: #000000; stroke-width: 0.8"/>
      </g>
     </g>
     <g id="text_21">
      <!-- 100 -->
      <g transform="translate(549.732903 447.068125) scale(0.2 -0.2)">
       <use xlink:href="#TimesNewRomanPSMT-31"/>
       <use xlink:href="#TimesNewRomanPSMT-30" x="50"/>
       <use xlink:href="#TimesNewRomanPSMT-30" x="100"/>
      </g>
     </g>
    </g>
    <g id="xtick_15">
     <g id="line2d_23">
      <g>
       <use xlink:href="#m9b587c1c7c" x="680.683474" y="426.180625" style="stroke: #000000; stroke-width: 0.8"/>
      </g>
     </g>
     <g id="text_22">
      <!-- 125 -->
      <g transform="translate(665.683474 447.068125) scale(0.2 -0.2)">
       <use xlink:href="#TimesNewRomanPSMT-31"/>
       <use xlink:href="#TimesNewRomanPSMT-32" x="50"/>
       <use xlink:href="#TimesNewRomanPSMT-35" x="100"/>
      </g>
     </g>
    </g>
    <g id="xtick_16">
     <g id="line2d_24">
      <g>
       <use xlink:href="#m9b587c1c7c" x="796.634045" y="426.180625" style="stroke: #000000; stroke-width: 0.8"/>
      </g>
     </g>
     <g id="text_23">
      <!-- 150 -->
      <g transform="translate(781.634045 447.068125) scale(0.2 -0.2)">
       <use xlink:href="#TimesNewRomanPSMT-31"/>
       <use xlink:href="#TimesNewRomanPSMT-35" x="50"/>
       <use xlink:href="#TimesNewRomanPSMT-30" x="100"/>
      </g>
     </g>
    </g>
    <g id="xtick_17">
     <g id="line2d_25">
      <g>
       <use xlink:href="#m9b587c1c7c" x="912.584616" y="426.180625" style="stroke: #000000; stroke-width: 0.8"/>
      </g>
     </g>
     <g id="text_24">
      <!-- 175 -->
      <g transform="translate(897.584616 447.068125) scale(0.2 -0.2)">
       <use xlink:href="#TimesNewRomanPSMT-31"/>
       <use xlink:href="#TimesNewRomanPSMT-37" x="50"/>
       <use xlink:href="#TimesNewRomanPSMT-35" x="100"/>
      </g>
     </g>
    </g>
    <g id="xtick_18">
     <g id="line2d_26">
      <g>
       <use xlink:href="#m9b587c1c7c" x="1028.535187" y="426.180625" style="stroke: #000000; stroke-width: 0.8"/>
      </g>
     </g>
     <g id="text_25">
      <!-- 200 -->
      <g transform="translate(1013.535187 447.068125) scale(0.2 -0.2)">
       <use xlink:href="#TimesNewRomanPSMT-32"/>
       <use xlink:href="#TimesNewRomanPSMT-30" x="50"/>
       <use xlink:href="#TimesNewRomanPSMT-30" x="100"/>
      </g>
     </g>
    </g>
   </g>
   <g id="matplotlib.axis_4">
    <g id="ytick_4">
     <g id="line2d_27">
      <g>
       <use xlink:href="#mfa85bef916" x="56.6375" y="380.896989" style="stroke: #000000; stroke-width: 0.8"/>
      </g>
     </g>
     <g id="text_26">
      <!-- 8 -->
      <g transform="translate(39.6375 387.840739) scale(0.2 -0.2)">
       <defs>
        <path id="TimesNewRomanPSMT-38" d="M 1228 2134 
Q 725 2547 579 2797 
Q 434 3047 434 3316 
Q 434 3728 753 4026 
Q 1072 4325 1600 4325 
Q 2113 4325 2425 4047 
Q 2738 3769 2738 3413 
Q 2738 3175 2569 2928 
Q 2400 2681 1866 2347 
Q 2416 1922 2594 1678 
Q 2831 1359 2831 1006 
Q 2831 559 2490 242 
Q 2150 -75 1597 -75 
Q 994 -75 656 303 
Q 388 606 388 966 
Q 388 1247 577 1523 
Q 766 1800 1228 2134 
z
M 1719 2469 
Q 2094 2806 2194 3001 
Q 2294 3197 2294 3444 
Q 2294 3772 2109 3958 
Q 1925 4144 1606 4144 
Q 1288 4144 1088 3959 
Q 888 3775 888 3528 
Q 888 3366 970 3203 
Q 1053 3041 1206 2894 
L 1719 2469 
z
M 1375 2016 
Q 1116 1797 991 1539 
Q 866 1281 866 981 
Q 866 578 1086 336 
Q 1306 94 1647 94 
Q 1984 94 2187 284 
Q 2391 475 2391 747 
Q 2391 972 2272 1150 
Q 2050 1481 1375 2016 
z
" transform="scale(0.015625)"/>
       </defs>
       <use xlink:href="#TimesNewRomanPSMT-38"/>
      </g>
     </g>
    </g>
    <g id="ytick_5">
     <g id="line2d_28">
      <g>
       <use xlink:href="#mfa85bef916" x="56.6375" y="305.424261" style="stroke: #000000; stroke-width: 0.8"/>
      </g>
     </g>
     <g id="text_27">
      <!-- 10 -->
      <g transform="translate(29.6375 312.368011) scale(0.2 -0.2)">
       <use xlink:href="#TimesNewRomanPSMT-31"/>
       <use xlink:href="#TimesNewRomanPSMT-30" x="50"/>
      </g>
     </g>
    </g>
    <g id="text_28">
     <!-- CPU使用率 -->
     <g transform="translate(23.059375 388.160625) rotate(-90) scale(0.2 -0.2)">
      <use xlink:href="#SimSun-43"/>
      <use xlink:href="#SimSun-50" x="50"/>
      <use xlink:href="#SimSun-55" x="100"/>
      <use xlink:href="#SimSun-4f7f" x="150"/>
      <use xlink:href="#SimSun-7528" x="250"/>
      <use xlink:href="#SimSun-7387" x="350"/>
     </g>
    </g>
   </g>
   <g id="line2d_29">
    <path d="M 100.930618 380.896989 
L 105.568641 343.160625 
L 110.206664 380.896989 
L 138.034801 380.896989 
L 142.672824 418.633352 
L 151.948869 343.160625 
L 161.224915 418.633352 
L 165.862938 380.896989 
L 170.500961 418.633352 
L 179.777007 418.633352 
L 184.415029 343.160625 
L 189.053052 380.896989 
L 193.691075 343.160625 
L 198.329098 418.633352 
L 202.967121 380.896989 
L 212.243166 380.896989 
L 216.881189 343.160625 
L 221.519212 380.896989 
L 226.157235 380.896989 
L 230.795258 343.160625 
L 235.433281 343.160625 
L 240.071303 418.633352 
L 244.709326 380.896989 
L 267.899441 380.896989 
L 272.537463 418.633352 
L 277.175486 380.896989 
L 286.451532 380.896989 
L 291.089555 343.160625 
L 295.727578 380.896989 
L 300.3656 267.687898 
L 305.003623 380.896989 
L 309.641646 418.633352 
L 318.917692 267.687898 
L 323.555715 267.687898 
L 328.193738 380.896989 
L 342.107806 380.896989 
L 346.745829 343.160625 
L 351.383852 380.896989 
L 356.021875 305.424261 
L 360.659897 418.633352 
L 369.935943 343.160625 
L 374.573966 380.896989 
L 379.211989 380.896989 
L 383.850012 305.424261 
L 388.488034 343.160625 
L 393.126057 343.160625 
L 397.76408 380.896989 
L 402.402103 343.160625 
L 407.040126 380.896989 
L 411.678149 343.160625 
L 416.316172 380.896989 
L 420.954194 305.424261 
L 425.592217 380.896989 
L 434.868263 380.896989 
L 439.506286 418.633352 
L 444.144309 380.896989 
L 453.420354 380.896989 
L 458.058377 343.160625 
L 462.6964 418.633352 
L 471.972446 343.160625 
L 476.610469 380.896989 
L 513.714651 380.896989 
L 518.352674 267.687898 
L 522.990697 380.896989 
L 564.732903 380.896989 
L 569.370925 418.633352 
L 574.008948 380.896989 
L 583.284994 380.896989 
L 587.923017 343.160625 
L 592.56104 267.687898 
L 597.199062 380.896989 
L 601.837085 305.424261 
L 606.475108 380.896989 
L 611.113131 380.896989 
L 615.751154 267.687898 
L 620.389177 380.896989 
L 625.0272 418.633352 
L 629.665222 380.896989 
L 634.303245 418.633352 
L 638.941268 380.896989 
L 648.217314 380.896989 
L 652.855337 418.633352 
L 657.493359 418.633352 
L 662.131382 380.896989 
L 666.769405 418.633352 
L 671.407428 380.896989 
L 676.045451 380.896989 
L 680.683474 305.424261 
L 685.321496 418.633352 
L 689.959519 380.896989 
L 699.235565 380.896989 
L 703.873588 343.160625 
L 708.511611 418.633352 
L 713.149634 380.896989 
L 717.787656 418.633352 
L 731.701725 418.633352 
L 736.339748 380.896989 
L 740.977771 418.633352 
L 745.615793 343.160625 
L 754.891839 418.633352 
L 768.805908 418.633352 
L 773.443931 380.896989 
L 778.081953 380.896989 
L 782.719976 418.633352 
L 787.357999 380.896989 
L 805.91009 380.896989 
L 810.548113 267.687898 
L 815.186136 380.896989 
L 819.824159 380.896989 
L 824.462182 418.633352 
L 833.738227 343.160625 
L 838.37625 380.896989 
L 852.290319 380.896989 
L 856.928342 418.633352 
L 861.566365 343.160625 
L 866.204387 380.896989 
L 870.84241 343.160625 
L 875.480433 380.896989 
L 880.118456 343.160625 
L 884.756479 343.160625 
L 889.394502 380.896989 
L 898.670547 380.896989 
L 903.30857 343.160625 
L 907.946593 380.896989 
L 926.498684 380.896989 
L 931.136707 418.633352 
L 935.77473 418.633352 
L 940.412753 380.896989 
L 945.050776 380.896989 
L 949.688799 418.633352 
L 954.326821 380.896989 
L 986.792981 380.896989 
L 986.792981 380.896989 
" clip-path="url(#p3a3800ad9e)" style="fill: none; stroke: #1f77b4; stroke-width: 1.5; stroke-linecap: square"/>
   </g>
   <g id="line2d_30">
    <path d="M 546.180811 373.592895 
L 550.818834 371.552364 
L 555.456857 371.133426 
L 560.09488 370.225659 
L 564.732903 369.876358 
L 569.370925 369.429672 
L 574.008948 369.629947 
L 578.646971 369.812767 
L 583.284994 369.028872 
L 587.923017 369.782717 
L 592.56104 370.493196 
L 597.199062 370.269025 
L 601.837085 370.993252 
L 606.475108 369.582226 
L 611.113131 369.913858 
L 615.751154 370.883632 
L 620.389177 372.786508 
L 625.0272 372.838835 
L 629.665222 372.605127 
L 634.303245 371.628731 
L 638.941268 369.932715 
L 643.579291 368.232561 
L 648.217314 368.592335 
L 652.855337 370.519647 
L 657.493359 372.559494 
L 662.131382 372.95756 
L 666.769405 373.389742 
L 671.407428 373.684665 
L 676.045451 372.746525 
L 680.683474 372.888282 
L 685.321496 372.260288 
L 689.959519 373.63511 
L 694.597542 374.209229 
L 699.235565 374.541328 
L 703.873588 372.726659 
L 708.511611 372.772112 
L 713.149634 374.234889 
L 717.787656 376.708538 
L 722.425679 377.689756 
L 727.063702 376.640628 
L 731.701725 374.847444 
L 736.339748 372.926286 
L 740.977771 372.073402 
L 745.615793 373.458731 
L 750.253816 374.541868 
L 754.891839 375.337387 
L 759.529862 375.433728 
L 764.167885 373.71817 
L 768.805908 372.068147 
L 773.443931 370.933691 
L 778.081953 371.864094 
L 782.719976 373.170106 
L 787.357999 373.966021 
L 791.996022 374.047462 
L 796.634045 374.559323 
L 801.272068 373.465281 
L 805.91009 374.380749 
L 810.548113 375.710981 
L 815.186136 376.372264 
L 819.824159 377.125281 
L 824.462182 376.954445 
L 829.100205 375.642675 
L 833.738227 373.350911 
L 838.37625 372.894292 
L 843.014273 373.462402 
L 847.652296 373.806053 
L 852.290319 373.826747 
L 856.928342 372.245461 
L 861.566365 369.680258 
L 866.204387 368.122329 
L 870.84241 368.745753 
L 875.480433 368.281541 
L 880.118456 369.269273 
L 884.756479 368.627891 
L 889.394502 368.645669 
L 894.032524 368.89388 
L 898.670547 368.845224 
L 903.30857 370.089228 
L 907.946593 370.847499 
L 912.584616 371.873847 
L 917.222639 370.793589 
L 921.860662 370.438817 
L 926.498684 370.315702 
L 931.136707 371.204934 
L 935.77473 372.33554 
L 940.412753 373.159274 
L 945.050776 373.114504 
L 949.688799 372.734289 
L 954.326821 372.252875 
L 958.964844 372.45538 
L 963.602867 372.070091 
L 968.24089 373.033099 
L 972.878913 373.468844 
L 977.516936 373.086218 
L 982.154958 373.340258 
L 986.792981 373.393557 
" clip-path="url(#p3a3800ad9e)" style="fill: none; stroke: #ff7f0e; stroke-width: 1.5; stroke-linecap: square"/>
   </g>
   <g id="line2d_31">
    <path d="M 546.180811 426.180625 
L 546.180811 260.140625 
" clip-path="url(#p3a3800ad9e)" style="fill: none; stroke-dasharray: 7.4,3.2; stroke-dashoffset: 0; stroke: #0000ff; stroke-width: 2"/>
   </g>
   <g id="patch_9">
    <path d="M 56.6375 426.180625 
L 56.6375 260.140625 
" style="fill: none; stroke: #000000; stroke-width: 0.8; stroke-linejoin: miter; stroke-linecap: square"/>
   </g>
   <g id="patch_10">
    <path d="M 1031.086099 426.180625 
L 1031.086099 260.140625 
" style="fill: none; stroke: #000000; stroke-width: 0.8; stroke-linejoin: miter; stroke-linecap: square"/>
   </g>
   <g id="patch_11">
    <path d="M 56.6375 426.180625 
L 1031.086099 426.180625 
" style="fill: none; stroke: #000000; stroke-width: 0.8; stroke-linejoin: miter; stroke-linecap: square"/>
   </g>
   <g id="patch_12">
    <path d="M 56.6375 260.140625 
L 1031.086099 260.140625 
" style="fill: none; stroke: #000000; stroke-width: 0.8; stroke-linejoin: miter; stroke-linecap: square"/>
   </g>
   <g id="text_29">
    <!-- API_ID: 85267 -->
    <g transform="translate(478.8618 254.140625) scale(0.2 -0.2)">
     <defs>
      <path id="SimSun-37" d="M 2825 4200 
Q 2300 3350 1987 2537 
Q 1675 1725 1675 1125 
Q 1675 1025 1700 850 
Q 1700 650 1700 400 
Q 1700 200 1637 125 
Q 1575 50 1425 50 
Q 1300 50 1212 137 
Q 1125 225 1125 450 
Q 1125 925 1337 1625 
Q 1550 2325 2475 4000 
L 1225 4000 
Q 950 4000 787 3825 
Q 625 3650 550 3300 
L 400 3325 
L 575 4375 
L 2825 4375 
L 2825 4200 
z
" transform="scale(0.015625)"/>
     </defs>
     <use xlink:href="#SimSun-41"/>
     <use xlink:href="#SimSun-50" x="50"/>
     <use xlink:href="#SimSun-49" x="100"/>
     <use xlink:href="#SimSun-5f" x="150"/>
     <use xlink:href="#SimSun-49" x="200"/>
     <use xlink:href="#SimSun-44" x="250"/>
     <use xlink:href="#SimSun-3a" x="300"/>
     <use xlink:href="#SimSun-20" x="350"/>
     <use xlink:href="#SimSun-38" x="400"/>
     <use xlink:href="#SimSun-35" x="450"/>
     <use xlink:href="#SimSun-32" x="500"/>
     <use xlink:href="#SimSun-36" x="550"/>
     <use xlink:href="#SimSun-37" x="600"/>
    </g>
   </g>
  </g>
  <g id="axes_3">
   <g id="patch_13">
    <path d="M 56.6375 658.980625 
L 1031.086099 658.980625 
L 1031.086099 492.940625 
L 56.6375 492.940625 
z
" style="fill: #ffffff"/>
   </g>
   <g id="matplotlib.axis_5">
    <g id="xtick_19">
     <g id="line2d_32">
      <g>
       <use xlink:href="#m9b587c1c7c" x="100.930618" y="658.980625" style="stroke: #000000; stroke-width: 0.8"/>
      </g>
     </g>
     <g id="text_30">
      <!-- 0 -->
      <g transform="translate(95.930618 679.868125) scale(0.2 -0.2)">
       <use xlink:href="#TimesNewRomanPSMT-30"/>
      </g>
     </g>
    </g>
    <g id="xtick_20">
     <g id="line2d_33">
      <g>
       <use xlink:href="#m9b587c1c7c" x="216.881189" y="658.980625" style="stroke: #000000; stroke-width: 0.8"/>
      </g>
     </g>
     <g id="text_31">
      <!-- 25 -->
      <g transform="translate(206.881189 679.868125) scale(0.2 -0.2)">
       <use xlink:href="#TimesNewRomanPSMT-32"/>
       <use xlink:href="#TimesNewRomanPSMT-35" x="50"/>
      </g>
     </g>
    </g>
    <g id="xtick_21">
     <g id="line2d_34">
      <g>
       <use xlink:href="#m9b587c1c7c" x="332.83176" y="658.980625" style="stroke: #000000; stroke-width: 0.8"/>
      </g>
     </g>
     <g id="text_32">
      <!-- 50 -->
      <g transform="translate(322.83176 679.868125) scale(0.2 -0.2)">
       <use xlink:href="#TimesNewRomanPSMT-35"/>
       <use xlink:href="#TimesNewRomanPSMT-30" x="50"/>
      </g>
     </g>
    </g>
    <g id="xtick_22">
     <g id="line2d_35">
      <g>
       <use xlink:href="#m9b587c1c7c" x="448.782331" y="658.980625" style="stroke: #000000; stroke-width: 0.8"/>
      </g>
     </g>
     <g id="text_33">
      <!-- 75 -->
      <g transform="translate(438.782331 679.868125) scale(0.2 -0.2)">
       <use xlink:href="#TimesNewRomanPSMT-37"/>
       <use xlink:href="#TimesNewRomanPSMT-35" x="50"/>
      </g>
     </g>
    </g>
    <g id="xtick_23">
     <g id="line2d_36">
      <g>
       <use xlink:href="#m9b587c1c7c" x="564.732903" y="658.980625" style="stroke: #000000; stroke-width: 0.8"/>
      </g>
     </g>
     <g id="text_34">
      <!-- 100 -->
      <g transform="translate(549.732903 679.868125) scale(0.2 -0.2)">
       <use xlink:href="#TimesNewRomanPSMT-31"/>
       <use xlink:href="#TimesNewRomanPSMT-30" x="50"/>
       <use xlink:href="#TimesNewRomanPSMT-30" x="100"/>
      </g>
     </g>
    </g>
    <g id="xtick_24">
     <g id="line2d_37">
      <g>
       <use xlink:href="#m9b587c1c7c" x="680.683474" y="658.980625" style="stroke: #000000; stroke-width: 0.8"/>
      </g>
     </g>
     <g id="text_35">
      <!-- 125 -->
      <g transform="translate(665.683474 679.868125) scale(0.2 -0.2)">
       <use xlink:href="#TimesNewRomanPSMT-31"/>
       <use xlink:href="#TimesNewRomanPSMT-32" x="50"/>
       <use xlink:href="#TimesNewRomanPSMT-35" x="100"/>
      </g>
     </g>
    </g>
    <g id="xtick_25">
     <g id="line2d_38">
      <g>
       <use xlink:href="#m9b587c1c7c" x="796.634045" y="658.980625" style="stroke: #000000; stroke-width: 0.8"/>
      </g>
     </g>
     <g id="text_36">
      <!-- 150 -->
      <g transform="translate(781.634045 679.868125) scale(0.2 -0.2)">
       <use xlink:href="#TimesNewRomanPSMT-31"/>
       <use xlink:href="#TimesNewRomanPSMT-35" x="50"/>
       <use xlink:href="#TimesNewRomanPSMT-30" x="100"/>
      </g>
     </g>
    </g>
    <g id="xtick_26">
     <g id="line2d_39">
      <g>
       <use xlink:href="#m9b587c1c7c" x="912.584616" y="658.980625" style="stroke: #000000; stroke-width: 0.8"/>
      </g>
     </g>
     <g id="text_37">
      <!-- 175 -->
      <g transform="translate(897.584616 679.868125) scale(0.2 -0.2)">
       <use xlink:href="#TimesNewRomanPSMT-31"/>
       <use xlink:href="#TimesNewRomanPSMT-37" x="50"/>
       <use xlink:href="#TimesNewRomanPSMT-35" x="100"/>
      </g>
     </g>
    </g>
    <g id="xtick_27">
     <g id="line2d_40">
      <g>
       <use xlink:href="#m9b587c1c7c" x="1028.535187" y="658.980625" style="stroke: #000000; stroke-width: 0.8"/>
      </g>
     </g>
     <g id="text_38">
      <!-- 200 -->
      <g transform="translate(1013.535187 679.868125) scale(0.2 -0.2)">
       <use xlink:href="#TimesNewRomanPSMT-32"/>
       <use xlink:href="#TimesNewRomanPSMT-30" x="50"/>
       <use xlink:href="#TimesNewRomanPSMT-30" x="100"/>
      </g>
     </g>
    </g>
   </g>
   <g id="matplotlib.axis_6">
    <g id="ytick_6">
     <g id="line2d_41">
      <g>
       <use xlink:href="#mfa85bef916" x="56.6375" y="623.13108" style="stroke: #000000; stroke-width: 0.8"/>
      </g>
     </g>
     <g id="text_39">
      <!-- 15 -->
      <g transform="translate(29.6375 630.07483) scale(0.2 -0.2)">
       <use xlink:href="#TimesNewRomanPSMT-31"/>
       <use xlink:href="#TimesNewRomanPSMT-35" x="50"/>
      </g>
     </g>
    </g>
    <g id="ytick_7">
     <g id="line2d_42">
      <g>
       <use xlink:href="#mfa85bef916" x="56.6375" y="575.960625" style="stroke: #000000; stroke-width: 0.8"/>
      </g>
     </g>
     <g id="text_40">
      <!-- 20 -->
      <g transform="translate(29.6375 582.904375) scale(0.2 -0.2)">
       <use xlink:href="#TimesNewRomanPSMT-32"/>
       <use xlink:href="#TimesNewRomanPSMT-30" x="50"/>
      </g>
     </g>
    </g>
    <g id="ytick_8">
     <g id="line2d_43">
      <g>
       <use xlink:href="#mfa85bef916" x="56.6375" y="528.79017" style="stroke: #000000; stroke-width: 0.8"/>
      </g>
     </g>
     <g id="text_41">
      <!-- 25 -->
      <g transform="translate(29.6375 535.73392) scale(0.2 -0.2)">
       <use xlink:href="#TimesNewRomanPSMT-32"/>
       <use xlink:href="#TimesNewRomanPSMT-35" x="50"/>
      </g>
     </g>
    </g>
    <g id="text_42">
     <!-- CPU使用率 -->
     <g transform="translate(23.059375 620.960625) rotate(-90) scale(0.2 -0.2)">
      <use xlink:href="#SimSun-43"/>
      <use xlink:href="#SimSun-50" x="50"/>
      <use xlink:href="#SimSun-55" x="100"/>
      <use xlink:href="#SimSun-4f7f" x="150"/>
      <use xlink:href="#SimSun-7528" x="250"/>
      <use xlink:href="#SimSun-7387" x="350"/>
     </g>
    </g>
   </g>
   <g id="line2d_44">
    <path d="M 100.930618 594.828807 
L 105.568641 623.13108 
L 110.206664 604.262898 
L 119.48271 623.13108 
L 124.120732 613.696998 
L 128.758755 613.696998 
L 133.396778 623.13108 
L 138.034801 604.262898 
L 142.672824 613.696998 
L 147.310847 613.696998 
L 151.948869 641.999261 
L 156.586892 623.13108 
L 161.224915 623.13108 
L 165.862938 604.262898 
L 170.500961 623.13108 
L 179.777007 604.262898 
L 184.415029 623.13108 
L 189.053052 613.696998 
L 193.691075 623.13108 
L 198.329098 604.262898 
L 202.967121 632.56517 
L 207.605144 623.13108 
L 212.243166 623.13108 
L 216.881189 594.828807 
L 221.519212 623.13108 
L 226.157235 623.13108 
L 230.795258 604.262898 
L 235.433281 641.999261 
L 240.071303 575.960625 
L 249.347349 632.56517 
L 253.985372 566.526534 
L 258.623395 613.696998 
L 263.261418 528.79017 
L 267.899441 547.658352 
L 272.537463 500.487898 
L 277.175486 613.696998 
L 281.813509 613.696998 
L 286.451532 566.526534 
L 291.089555 604.262898 
L 295.727578 547.658352 
L 300.3656 528.79017 
L 305.003623 623.13108 
L 314.279669 585.394716 
L 318.917692 641.999261 
L 323.555715 641.999261 
L 328.193738 604.262898 
L 332.83176 623.13108 
L 337.469783 613.696998 
L 342.107806 594.828807 
L 351.383852 613.696998 
L 365.29792 613.696998 
L 369.935943 604.262898 
L 374.573966 623.13108 
L 379.211989 585.394716 
L 383.850012 604.262898 
L 388.488034 613.696998 
L 393.126057 604.262898 
L 397.76408 613.696998 
L 402.402103 632.56517 
L 407.040126 585.394716 
L 411.678149 594.828807 
L 416.316172 613.696998 
L 430.23024 613.696998 
L 434.868263 623.13108 
L 439.506286 623.13108 
L 444.144309 594.828807 
L 448.782331 623.13108 
L 453.420354 623.13108 
L 458.058377 594.828807 
L 462.6964 623.13108 
L 467.334423 632.56517 
L 471.972446 538.224261 
L 476.610469 604.262898 
L 481.248491 623.13108 
L 485.886514 623.13108 
L 490.524537 538.224261 
L 495.16256 557.092443 
L 499.800583 613.696998 
L 504.438606 623.13108 
L 509.076628 575.960625 
L 513.714651 613.696998 
L 518.352674 632.56517 
L 522.990697 604.262898 
L 527.62872 632.56517 
L 532.266743 575.960625 
L 536.904765 613.696998 
L 541.542788 641.999261 
L 546.180811 575.960625 
L 550.818834 613.696998 
L 555.456857 566.526534 
L 560.09488 632.56517 
L 564.732903 632.56517 
L 569.370925 613.696998 
L 574.008948 575.960625 
L 578.646971 613.696998 
L 583.284994 613.696998 
L 587.923017 632.56517 
L 597.199062 613.696998 
L 601.837085 528.79017 
L 606.475108 632.56517 
L 611.113131 613.696998 
L 615.751154 604.262898 
L 620.389177 613.696998 
L 625.0272 604.262898 
L 629.665222 575.960625 
L 634.303245 604.262898 
L 638.941268 623.13108 
L 643.579291 613.696998 
L 648.217314 594.828807 
L 652.855337 613.696998 
L 662.131382 632.56517 
L 666.769405 604.262898 
L 671.407428 613.696998 
L 676.045451 604.262898 
L 680.683474 613.696998 
L 685.321496 594.828807 
L 694.597542 613.696998 
L 699.235565 613.696998 
L 703.873588 623.13108 
L 708.511611 641.999261 
L 713.149634 623.13108 
L 717.787656 632.56517 
L 722.425679 623.13108 
L 727.063702 632.56517 
L 731.701725 613.696998 
L 736.339748 641.999261 
L 740.977771 641.999261 
L 745.615793 651.433352 
L 750.253816 604.262898 
L 759.529862 641.999261 
L 764.167885 575.960625 
L 768.805908 604.262898 
L 773.443931 594.828807 
L 778.081953 632.56517 
L 782.719976 604.262898 
L 787.357999 585.394716 
L 791.996022 623.13108 
L 796.634045 557.092443 
L 801.272068 538.224261 
L 805.91009 623.13108 
L 810.548113 604.262898 
L 815.186136 594.828807 
L 819.824159 613.696998 
L 824.462182 623.13108 
L 833.738227 585.394716 
L 838.37625 594.828807 
L 843.014273 538.224261 
L 847.652296 623.13108 
L 852.290319 585.394716 
L 856.928342 585.394716 
L 861.566365 623.13108 
L 866.204387 538.224261 
L 870.84241 604.262898 
L 884.756479 632.56517 
L 889.394502 613.696998 
L 894.032524 623.13108 
L 898.670547 613.696998 
L 903.30857 632.56517 
L 907.946593 613.696998 
L 912.584616 623.13108 
L 917.222639 613.696998 
L 921.860662 613.696998 
L 926.498684 623.13108 
L 931.136707 594.828807 
L 935.77473 604.262898 
L 940.412753 623.13108 
L 945.050776 604.262898 
L 949.688799 604.262898 
L 954.326821 613.696998 
L 958.964844 585.394716 
L 963.602867 613.696998 
L 968.24089 613.696998 
L 972.878913 632.56517 
L 977.516936 613.696998 
L 982.154958 613.696998 
L 986.792981 528.79017 
L 986.792981 528.79017 
" clip-path="url(#p93fb2199f1)" style="fill: none; stroke: #1f77b4; stroke-width: 1.5; stroke-linecap: square"/>
   </g>
   <g id="line2d_45">
    <path d="M 546.180811 616.028385 
L 550.818834 611.614747 
L 555.456857 611.111434 
L 560.09488 610.24491 
L 564.732903 611.50259 
L 569.370925 611.29044 
L 574.008948 611.184059 
L 578.646971 610.874326 
L 583.284994 611.238005 
L 587.923017 611.758124 
L 592.56104 611.060295 
L 597.199062 612.348043 
L 601.837085 613.663879 
L 606.475108 613.112342 
L 611.113131 613.592065 
L 615.751154 614.268868 
L 620.389177 616.871571 
L 625.0272 618.189549 
L 629.665222 619.35419 
L 634.303245 619.069109 
L 638.941268 619.281278 
L 643.579291 618.972589 
L 648.217314 619.820678 
L 652.855337 620.214002 
L 657.493359 621.610101 
L 662.131382 621.771859 
L 666.769405 622.161234 
L 671.407428 624.089616 
L 676.045451 624.449984 
L 680.683474 625.182047 
L 685.321496 624.497848 
L 689.959519 623.291641 
L 694.597542 622.465424 
L 699.235565 622.41406 
L 703.873588 622.621118 
L 708.511611 623.233754 
L 713.149634 624.366168 
L 717.787656 625.12246 
L 722.425679 623.662562 
L 727.063702 621.855289 
L 731.701725 621.416377 
L 736.339748 621.155183 
L 740.977771 621.695204 
L 745.615793 621.312497 
L 750.253816 619.187394 
L 754.891839 618.400907 
L 759.529862 617.958648 
L 764.167885 617.147042 
L 768.805908 616.903573 
L 773.443931 617.335252 
L 778.081953 617.736394 
L 782.719976 617.54168 
L 787.357999 615.853977 
L 791.996022 614.454954 
L 796.634045 614.483502 
L 801.272068 614.452687 
L 805.91009 613.648333 
L 810.548113 614.094388 
L 815.186136 613.635269 
L 819.824159 612.93663 
L 824.462182 613.027716 
L 829.100205 612.658855 
L 833.738227 611.75395 
L 838.37625 611.701839 
L 843.014273 612.578367 
L 847.652296 612.473282 
L 852.290319 612.384085 
L 856.928342 614.053965 
L 861.566365 615.422632 
L 866.204387 615.942724 
L 870.84241 617.044053 
L 875.480433 616.898562 
L 880.118456 616.077608 
L 884.756479 616.169891 
L 889.394502 615.802244 
L 894.032524 617.027229 
L 898.670547 618.870481 
L 903.30857 619.979782 
L 907.946593 618.559004 
L 912.584616 618.898885 
L 917.222639 618.658457 
L 921.860662 617.947564 
L 926.498684 617.744735 
L 931.136707 617.188753 
L 935.77473 616.894603 
L 940.412753 616.387287 
L 945.050776 616.281022 
L 949.688799 616.576072 
L 954.326821 616.540434 
L 958.964844 616.875053 
L 963.602867 616.082646 
L 968.24089 615.674252 
L 972.878913 615.159855 
L 977.516936 613.536877 
L 982.154958 612.251613 
L 986.792981 611.868248 
" clip-path="url(#p93fb2199f1)" style="fill: none; stroke: #ff7f0e; stroke-width: 1.5; stroke-linecap: square"/>
   </g>
   <g id="line2d_46">
    <path d="M 546.180811 658.980625 
L 546.180811 492.940625 
" clip-path="url(#p93fb2199f1)" style="fill: none; stroke-dasharray: 7.4,3.2; stroke-dashoffset: 0; stroke: #0000ff; stroke-width: 2"/>
   </g>
   <g id="patch_14">
    <path d="M 56.6375 658.980625 
L 56.6375 492.940625 
" style="fill: none; stroke: #000000; stroke-width: 0.8; stroke-linejoin: miter; stroke-linecap: square"/>
   </g>
   <g id="patch_15">
    <path d="M 1031.086099 658.980625 
L 1031.086099 492.940625 
" style="fill: none; stroke: #000000; stroke-width: 0.8; stroke-linejoin: miter; stroke-linecap: square"/>
   </g>
   <g id="patch_16">
    <path d="M 56.6375 658.980625 
L 1031.086099 658.980625 
" style="fill: none; stroke: #000000; stroke-width: 0.8; stroke-linejoin: miter; stroke-linecap: square"/>
   </g>
   <g id="patch_17">
    <path d="M 56.6375 492.940625 
L 1031.086099 492.940625 
" style="fill: none; stroke: #000000; stroke-width: 0.8; stroke-linejoin: miter; stroke-linecap: square"/>
   </g>
   <g id="text_43">
    <!-- API_ID: 85619 -->
    <g transform="translate(478.8618 486.940625) scale(0.2 -0.2)">
     <defs>
      <path id="SimSun-31" d="M 1825 4450 
L 1825 650 
Q 1825 450 1950 350 
Q 2075 250 2300 250 
L 2550 250 
L 2550 100 
L 725 100 
L 725 250 
L 950 250 
Q 1200 250 1312 350 
Q 1425 450 1425 650 
L 1425 3675 
Q 1425 3775 1362 3837 
Q 1300 3900 1175 3900 
L 725 3900 
L 725 4050 
L 950 4050 
Q 1250 4050 1437 4150 
Q 1625 4250 1725 4450 
L 1825 4450 
z
" transform="scale(0.015625)"/>
      <path id="SimSun-39" d="M 700 3050 
Q 700 2500 912 2212 
Q 1125 1925 1450 1925 
Q 1825 1925 2100 2275 
Q 2375 2625 2375 2925 
Q 2375 3525 2175 3887 
Q 1975 4250 1525 4250 
Q 1100 4250 900 3912 
Q 700 3575 700 3050 
z
M 1375 1700 
Q 875 1700 575 2012 
Q 275 2325 275 3025 
Q 275 3625 600 4025 
Q 925 4425 1525 4425 
Q 2150 4425 2500 3925 
Q 2850 3425 2850 2475 
Q 2850 1425 2437 737 
Q 2025 50 1300 50 
Q 975 50 737 200 
Q 500 350 500 600 
Q 500 700 562 800 
Q 625 900 775 900 
Q 925 900 975 787 
Q 1025 675 1025 525 
Q 1025 425 1050 362 
Q 1075 300 1100 275 
Q 1125 250 1187 237 
Q 1250 225 1325 225 
Q 1775 225 2050 725 
Q 2325 1225 2375 2400 
Q 2250 2100 2000 1900 
Q 1750 1700 1375 1700 
z
" transform="scale(0.015625)"/>
     </defs>
     <use xlink:href="#SimSun-41"/>
     <use xlink:href="#SimSun-50" x="50"/>
     <use xlink:href="#SimSun-49" x="100"/>
     <use xlink:href="#SimSun-5f" x="150"/>
     <use xlink:href="#SimSun-49" x="200"/>
     <use xlink:href="#SimSun-44" x="250"/>
     <use xlink:href="#SimSun-3a" x="300"/>
     <use xlink:href="#SimSun-20" x="350"/>
     <use xlink:href="#SimSun-38" x="400"/>
     <use xlink:href="#SimSun-35" x="450"/>
     <use xlink:href="#SimSun-36" x="500"/>
     <use xlink:href="#SimSun-31" x="550"/>
     <use xlink:href="#SimSun-39" x="600"/>
    </g>
   </g>
  </g>
 </g>
 <defs>
  <clipPath id="p6e9cc2e9a7">
   <rect x="56.6375" y="27.340625" width="974.448599" height="166.04"/>
  </clipPath>
  <clipPath id="p3a3800ad9e">
   <rect x="56.6375" y="260.140625" width="974.448599" height="166.04"/>
  </clipPath>
  <clipPath id="p93fb2199f1">
   <rect x="56.6375" y="492.940625" width="974.448599" height="166.04"/>
  </clipPath>
 </defs>
</svg>
