<?xml version="1.0" encoding="utf-8" standalone="no"?>
<!DOCTYPE svg PUBLIC "-//W3C//DTD SVG 1.1//EN"
  "http://www.w3.org/Graphics/SVG/1.1/DTD/svg11.dtd">
<svg xmlns:xlink="http://www.w3.org/1999/xlink" width="1050.602344pt" height="690.95375pt" viewBox="0 0 1050.602344 690.95375" xmlns="http://www.w3.org/2000/svg" version="1.1">
 <metadata>
  <rdf:RDF xmlns:dc="http://purl.org/dc/elements/1.1/" xmlns:cc="http://creativecommons.org/ns#" xmlns:rdf="http://www.w3.org/1999/02/22-rdf-syntax-ns#">
   <cc:Work>
    <dc:type rdf:resource="http://purl.org/dc/dcmitype/StillImage"/>
    <dc:date>2024-02-21T15:41:20.663721</dc:date>
    <dc:format>image/svg+xml</dc:format>
    <dc:creator>
     <cc:Agent>
      <dc:title>Matplotlib v3.7.1, https://matplotlib.org/</dc:title>
     </cc:Agent>
    </dc:creator>
   </cc:Work>
  </rdf:RDF>
 </metadata>
 <defs>
  <style type="text/css">*{stroke-linejoin: round; stroke-linecap: butt}</style>
 </defs>
 <g id="figure_1">
  <g id="patch_1">
   <path d="M 0 690.95375 
L 1050.602344 690.95375 
L 1050.602344 0 
L 0 0 
z
" style="fill: #ffffff"/>
  </g>
  <g id="axes_1">
   <g id="patch_2">
    <path d="M 61.6375 192.988125 
L 1032.554189 192.988125 
L 1032.554189 29.059375 
L 61.6375 29.059375 
z
" style="fill: #ffffff"/>
   </g>
   <g id="matplotlib.axis_1">
    <g id="xtick_1">
     <g id="line2d_1">
      <defs>
       <path id="m9a4a6c204b" d="M 0 0 
L 0 3.5 
" style="stroke: #000000; stroke-width: 0.8"/>
      </defs>
      <g>
       <use xlink:href="#m9a4a6c204b" x="105.770077" y="192.988125" style="stroke: #000000; stroke-width: 0.8"/>
      </g>
     </g>
     <g id="text_1">
      <!-- 0 -->
      <g transform="translate(100.770077 213.875625) scale(0.2 -0.2)">
       <defs>
        <path id="TimesNewRomanPSMT-30" d="M 231 2094 
Q 231 2819 450 3342 
Q 669 3866 1031 4122 
Q 1313 4325 1613 4325 
Q 2100 4325 2488 3828 
Q 2972 3213 2972 2159 
Q 2972 1422 2759 906 
Q 2547 391 2217 158 
Q 1888 -75 1581 -75 
Q 975 -75 572 641 
Q 231 1244 231 2094 
z
M 844 2016 
Q 844 1141 1059 588 
Q 1238 122 1591 122 
Q 1759 122 1940 273 
Q 2122 425 2216 781 
Q 2359 1319 2359 2297 
Q 2359 3022 2209 3506 
Q 2097 3866 1919 4016 
Q 1791 4119 1609 4119 
Q 1397 4119 1231 3928 
Q 1006 3669 925 3112 
Q 844 2556 844 2016 
z
" transform="scale(0.015625)"/>
       </defs>
       <use xlink:href="#TimesNewRomanPSMT-30"/>
      </g>
     </g>
    </g>
    <g id="xtick_2">
     <g id="line2d_2">
      <g>
       <use xlink:href="#m9a4a6c204b" x="259.542121" y="192.988125" style="stroke: #000000; stroke-width: 0.8"/>
      </g>
     </g>
     <g id="text_2">
      <!-- 50 -->
      <g transform="translate(249.542121 213.875625) scale(0.2 -0.2)">
       <defs>
        <path id="TimesNewRomanPSMT-35" d="M 2778 4238 
L 2534 3706 
L 1259 3706 
L 981 3138 
Q 1809 3016 2294 2522 
Q 2709 2097 2709 1522 
Q 2709 1188 2573 903 
Q 2438 619 2231 419 
Q 2025 219 1772 97 
Q 1413 -75 1034 -75 
Q 653 -75 479 54 
Q 306 184 306 341 
Q 306 428 378 495 
Q 450 563 559 563 
Q 641 563 702 538 
Q 763 513 909 409 
Q 1144 247 1384 247 
Q 1750 247 2026 523 
Q 2303 800 2303 1197 
Q 2303 1581 2056 1914 
Q 1809 2247 1375 2428 
Q 1034 2569 447 2591 
L 1259 4238 
L 2778 4238 
z
" transform="scale(0.015625)"/>
       </defs>
       <use xlink:href="#TimesNewRomanPSMT-35"/>
       <use xlink:href="#TimesNewRomanPSMT-30" x="50"/>
      </g>
     </g>
    </g>
    <g id="xtick_3">
     <g id="line2d_3">
      <g>
       <use xlink:href="#m9a4a6c204b" x="413.314166" y="192.988125" style="stroke: #000000; stroke-width: 0.8"/>
      </g>
     </g>
     <g id="text_3">
      <!-- 100 -->
      <g transform="translate(398.314166 213.875625) scale(0.2 -0.2)">
       <defs>
        <path id="TimesNewRomanPSMT-31" d="M 750 3822 
L 1781 4325 
L 1884 4325 
L 1884 747 
Q 1884 391 1914 303 
Q 1944 216 2037 169 
Q 2131 122 2419 116 
L 2419 0 
L 825 0 
L 825 116 
Q 1125 122 1212 167 
Q 1300 213 1334 289 
Q 1369 366 1369 747 
L 1369 3034 
Q 1369 3497 1338 3628 
Q 1316 3728 1258 3775 
Q 1200 3822 1119 3822 
Q 1003 3822 797 3725 
L 750 3822 
z
" transform="scale(0.015625)"/>
       </defs>
       <use xlink:href="#TimesNewRomanPSMT-31"/>
       <use xlink:href="#TimesNewRomanPSMT-30" x="50"/>
       <use xlink:href="#TimesNewRomanPSMT-30" x="100"/>
      </g>
     </g>
    </g>
    <g id="xtick_4">
     <g id="line2d_4">
      <g>
       <use xlink:href="#m9a4a6c204b" x="567.08621" y="192.988125" style="stroke: #000000; stroke-width: 0.8"/>
      </g>
     </g>
     <g id="text_4">
      <!-- 150 -->
      <g transform="translate(552.08621 213.875625) scale(0.2 -0.2)">
       <use xlink:href="#TimesNewRomanPSMT-31"/>
       <use xlink:href="#TimesNewRomanPSMT-35" x="50"/>
       <use xlink:href="#TimesNewRomanPSMT-30" x="100"/>
      </g>
     </g>
    </g>
    <g id="xtick_5">
     <g id="line2d_5">
      <g>
       <use xlink:href="#m9a4a6c204b" x="720.858255" y="192.988125" style="stroke: #000000; stroke-width: 0.8"/>
      </g>
     </g>
     <g id="text_5">
      <!-- 200 -->
      <g transform="translate(705.858255 213.875625) scale(0.2 -0.2)">
       <defs>
        <path id="TimesNewRomanPSMT-32" d="M 2934 816 
L 2638 0 
L 138 0 
L 138 116 
Q 1241 1122 1691 1759 
Q 2141 2397 2141 2925 
Q 2141 3328 1894 3587 
Q 1647 3847 1303 3847 
Q 991 3847 742 3664 
Q 494 3481 375 3128 
L 259 3128 
Q 338 3706 661 4015 
Q 984 4325 1469 4325 
Q 1984 4325 2329 3994 
Q 2675 3663 2675 3213 
Q 2675 2891 2525 2569 
Q 2294 2063 1775 1497 
Q 997 647 803 472 
L 1909 472 
Q 2247 472 2383 497 
Q 2519 522 2628 598 
Q 2738 675 2819 816 
L 2934 816 
z
" transform="scale(0.015625)"/>
       </defs>
       <use xlink:href="#TimesNewRomanPSMT-32"/>
       <use xlink:href="#TimesNewRomanPSMT-30" x="50"/>
       <use xlink:href="#TimesNewRomanPSMT-30" x="100"/>
      </g>
     </g>
    </g>
    <g id="xtick_6">
     <g id="line2d_6">
      <g>
       <use xlink:href="#m9a4a6c204b" x="874.630299" y="192.988125" style="stroke: #000000; stroke-width: 0.8"/>
      </g>
     </g>
     <g id="text_6">
      <!-- 250 -->
      <g transform="translate(859.630299 213.875625) scale(0.2 -0.2)">
       <use xlink:href="#TimesNewRomanPSMT-32"/>
       <use xlink:href="#TimesNewRomanPSMT-35" x="50"/>
       <use xlink:href="#TimesNewRomanPSMT-30" x="100"/>
      </g>
     </g>
    </g>
    <g id="xtick_7">
     <g id="line2d_7">
      <g>
       <use xlink:href="#m9a4a6c204b" x="1028.402344" y="192.988125" style="stroke: #000000; stroke-width: 0.8"/>
      </g>
     </g>
     <g id="text_7">
      <!-- 300 -->
      <g transform="translate(1013.402344 213.875625) scale(0.2 -0.2)">
       <defs>
        <path id="TimesNewRomanPSMT-33" d="M 325 3431 
Q 506 3859 782 4092 
Q 1059 4325 1472 4325 
Q 1981 4325 2253 3994 
Q 2459 3747 2459 3466 
Q 2459 3003 1878 2509 
Q 2269 2356 2469 2072 
Q 2669 1788 2669 1403 
Q 2669 853 2319 450 
Q 1863 -75 997 -75 
Q 569 -75 414 31 
Q 259 138 259 259 
Q 259 350 332 419 
Q 406 488 509 488 
Q 588 488 669 463 
Q 722 447 909 348 
Q 1097 250 1169 231 
Q 1284 197 1416 197 
Q 1734 197 1970 444 
Q 2206 691 2206 1028 
Q 2206 1275 2097 1509 
Q 2016 1684 1919 1775 
Q 1784 1900 1550 2001 
Q 1316 2103 1072 2103 
L 972 2103 
L 972 2197 
Q 1219 2228 1467 2375 
Q 1716 2522 1828 2728 
Q 1941 2934 1941 3181 
Q 1941 3503 1739 3701 
Q 1538 3900 1238 3900 
Q 753 3900 428 3381 
L 325 3431 
z
" transform="scale(0.015625)"/>
       </defs>
       <use xlink:href="#TimesNewRomanPSMT-33"/>
       <use xlink:href="#TimesNewRomanPSMT-30" x="50"/>
       <use xlink:href="#TimesNewRomanPSMT-30" x="100"/>
      </g>
     </g>
    </g>
   </g>
   <g id="matplotlib.axis_2">
    <g id="ytick_1">
     <g id="line2d_8">
      <defs>
       <path id="me8dd2658ef" d="M 0 0 
L -3.5 0 
" style="stroke: #000000; stroke-width: 0.8"/>
      </defs>
      <g>
       <use xlink:href="#me8dd2658ef" x="61.6375" y="189.633419" style="stroke: #000000; stroke-width: 0.8"/>
      </g>
     </g>
     <g id="text_8">
      <!-- 0.0 -->
      <g transform="translate(29.6375 196.577169) scale(0.2 -0.2)">
       <defs>
        <path id="TimesNewRomanPSMT-2e" d="M 800 606 
Q 947 606 1047 504 
Q 1147 403 1147 259 
Q 1147 116 1045 14 
Q 944 -88 800 -88 
Q 656 -88 554 14 
Q 453 116 453 259 
Q 453 406 554 506 
Q 656 606 800 606 
z
" transform="scale(0.015625)"/>
       </defs>
       <use xlink:href="#TimesNewRomanPSMT-30"/>
       <use xlink:href="#TimesNewRomanPSMT-2e" x="50"/>
       <use xlink:href="#TimesNewRomanPSMT-30" x="75"/>
      </g>
     </g>
    </g>
    <g id="ytick_2">
     <g id="line2d_9">
      <g>
       <use xlink:href="#me8dd2658ef" x="61.6375" y="142.122562" style="stroke: #000000; stroke-width: 0.8"/>
      </g>
     </g>
     <g id="text_9">
      <!-- 1.0 -->
      <g transform="translate(29.6375 149.066312) scale(0.2 -0.2)">
       <use xlink:href="#TimesNewRomanPSMT-31"/>
       <use xlink:href="#TimesNewRomanPSMT-2e" x="50"/>
       <use xlink:href="#TimesNewRomanPSMT-30" x="75"/>
      </g>
     </g>
    </g>
    <g id="ytick_3">
     <g id="line2d_10">
      <g>
       <use xlink:href="#me8dd2658ef" x="61.6375" y="94.611705" style="stroke: #000000; stroke-width: 0.8"/>
      </g>
     </g>
     <g id="text_10">
      <!-- 2.0 -->
      <g transform="translate(29.6375 101.555455) scale(0.2 -0.2)">
       <use xlink:href="#TimesNewRomanPSMT-32"/>
       <use xlink:href="#TimesNewRomanPSMT-2e" x="50"/>
       <use xlink:href="#TimesNewRomanPSMT-30" x="75"/>
      </g>
     </g>
    </g>
    <g id="ytick_4">
     <g id="line2d_11">
      <g>
       <use xlink:href="#me8dd2658ef" x="61.6375" y="47.100848" style="stroke: #000000; stroke-width: 0.8"/>
      </g>
     </g>
     <g id="text_11">
      <!-- 3.0 -->
      <g transform="translate(29.6375 54.044598) scale(0.2 -0.2)">
       <use xlink:href="#TimesNewRomanPSMT-33"/>
       <use xlink:href="#TimesNewRomanPSMT-2e" x="50"/>
       <use xlink:href="#TimesNewRomanPSMT-30" x="75"/>
      </g>
     </g>
    </g>
    <g id="text_12">
     <!-- CPU使用率 -->
     <g transform="translate(23.059375 156.02375) rotate(-90) scale(0.2 -0.2)">
      <defs>
       <path id="SimSun-43" d="M 1725 50 
Q 1025 50 612 575 
Q 200 1100 200 2225 
Q 200 3175 637 3800 
Q 1075 4425 1825 4425 
Q 2000 4425 2175 4375 
Q 2350 4300 2475 4300 
Q 2575 4300 2637 4325 
Q 2700 4350 2750 4425 
L 2975 3325 
L 2825 3275 
Q 2675 3750 2425 4000 
Q 2175 4250 1775 4250 
Q 1250 4250 962 3675 
Q 675 3100 675 2250 
Q 675 1325 925 800 
Q 1175 275 1750 275 
Q 2150 275 2437 562 
Q 2725 850 2825 1325 
L 2975 1250 
Q 2850 725 2512 387 
Q 2175 50 1725 50 
z
" transform="scale(0.015625)"/>
       <path id="SimSun-50" d="M 950 2100 
L 950 450 
Q 950 350 1012 300 
Q 1075 250 1175 250 
L 1350 250 
L 1350 100 
L 150 100 
L 150 250 
L 325 250 
Q 450 250 500 300 
Q 550 350 550 450 
L 550 4025 
Q 550 4125 500 4175 
Q 450 4225 325 4225 
L 175 4225 
L 175 4375 
L 1650 4375 
Q 2275 4375 2612 4062 
Q 2950 3750 2950 3275 
Q 2950 2700 2587 2400 
Q 2225 2100 1725 2100 
L 950 2100 
z
M 1575 2250 
Q 1950 2250 2237 2475 
Q 2525 2700 2525 3250 
Q 2525 3750 2287 3987 
Q 2050 4225 1525 4225 
L 1175 4225 
Q 1075 4225 1012 4175 
Q 950 4125 950 4025 
L 950 2250 
L 1575 2250 
z
" transform="scale(0.015625)"/>
       <path id="SimSun-55" d="M 1625 250 
Q 2000 250 2262 500 
Q 2525 750 2525 1125 
L 2525 4025 
Q 2525 4125 2475 4175 
Q 2425 4225 2300 4225 
L 2150 4225 
L 2150 4375 
L 3050 4375 
L 3050 4225 
L 2900 4225 
Q 2800 4225 2737 4175 
Q 2675 4125 2675 4025 
L 2675 1125 
Q 2675 625 2337 337 
Q 2000 50 1575 50 
Q 1125 50 787 300 
Q 450 550 450 1100 
L 450 4025 
Q 450 4125 400 4175 
Q 350 4225 225 4225 
L 100 4225 
L 100 4375 
L 1200 4375 
L 1200 4225 
L 1075 4225 
Q 975 4225 912 4175 
Q 850 4125 850 4025 
L 850 1100 
Q 850 600 1062 425 
Q 1275 250 1625 250 
z
" transform="scale(0.015625)"/>
       <path id="SimSun-4f7f" d="M 2875 3150 
L 2875 2100 
L 3825 2100 
Q 3850 2825 3850 3150 
L 2875 3150 
z
M 4175 3150 
Q 4175 2800 4150 2100 
L 5150 2100 
L 5150 3150 
L 4175 3150 
z
M 5475 3100 
L 5475 2425 
Q 5475 2100 5500 1800 
L 5150 1675 
L 5150 1950 
L 4150 1950 
Q 4125 1175 3875 600 
Q 4275 275 4875 75 
Q 5475 -125 6075 -150 
L 6075 -250 
Q 5700 -300 5600 -575 
Q 4525 -325 3725 350 
Q 3425 25 2925 -225 
Q 2425 -475 1875 -650 
L 1825 -550 
Q 2400 -325 2850 -25 
Q 3300 275 3500 575 
Q 3200 925 2825 1650 
L 2900 1700 
Q 3325 1100 3625 825 
Q 3800 1300 3825 1950 
L 2875 1950 
L 2875 1825 
L 2525 1675 
Q 2550 2075 2550 2562 
Q 2550 3050 2525 3500 
L 2875 3300 
L 3850 3300 
L 3850 4025 
L 2975 4025 
Q 2650 4025 2375 3950 
L 2150 4175 
L 3850 4175 
L 3850 4525 
Q 3850 4775 3825 5225 
L 4350 5000 
L 4175 4825 
L 4175 4175 
L 5300 4175 
L 5600 4475 
L 6050 4025 
L 4175 4025 
L 4175 3300 
L 5100 3300 
L 5275 3525 
L 5650 3225 
L 5475 3100 
z
M 1675 3175 
L 1675 -450 
L 1325 -625 
Q 1350 -75 1350 350 
L 1350 3200 
Q 900 2475 350 1900 
L 275 1950 
Q 700 2525 1112 3400 
Q 1525 4275 1800 5250 
L 2325 4925 
L 2125 4800 
Q 1725 3925 1500 3525 
L 1875 3325 
L 1675 3175 
z
" transform="scale(0.015625)"/>
       <path id="SimSun-7528" d="M 3400 3150 
L 3400 1825 
L 5075 1825 
L 5075 3150 
L 3400 3150 
z
M 4075 100 
Q 4725 50 4900 62 
Q 5075 75 5075 400 
L 5075 1675 
L 3400 1675 
Q 3400 75 3425 -225 
L 3050 -400 
Q 3075 1025 3075 1675 
L 1425 1675 
Q 1250 350 375 -600 
L 300 -550 
Q 775 225 950 1025 
Q 1125 1825 1125 3225 
Q 1125 4625 1100 5075 
L 1475 4825 
L 5050 4825 
L 5225 5100 
L 5625 4800 
L 5425 4600 
L 5425 225 
Q 5450 -400 4875 -575 
Q 4825 -150 4075 -25 
L 4075 100 
z
M 1475 4675 
L 1475 3300 
L 3075 3300 
L 3075 4675 
L 1475 4675 
z
M 3400 4675 
L 3400 3300 
L 5075 3300 
L 5075 4675 
L 3400 4675 
z
M 1475 3150 
Q 1450 2100 1425 1825 
L 3075 1825 
L 3075 3150 
L 1475 3150 
z
" transform="scale(0.015625)"/>
       <path id="SimSun-7387" d="M 875 3725 
L 925 3800 
Q 1375 3650 1550 3525 
Q 1725 3400 1725 3250 
Q 1725 3175 1662 3025 
Q 1600 2875 1550 2875 
Q 1500 2875 1425 3050 
Q 1275 3325 875 3725 
z
M 550 1850 
Q 875 1925 2000 2575 
L 2050 2500 
Q 1675 2225 1337 1937 
Q 1000 1650 875 1425 
L 550 1850 
z
M 5200 3450 
Q 4800 3150 4275 2800 
L 4225 2875 
Q 4775 3400 5050 3925 
L 5450 3525 
L 5200 3450 
z
M 4325 2500 
L 4350 2575 
Q 5225 2350 5375 2212 
Q 5525 2075 5525 1900 
Q 5525 1775 5487 1662 
Q 5450 1550 5400 1550 
Q 5325 1550 5200 1800 
Q 4975 2150 4325 2500 
z
M 3150 3900 
Q 2500 3300 2300 3150 
Q 2800 3150 3400 3175 
Q 3700 3500 3850 3825 
L 4250 3450 
Q 4050 3400 3450 2825 
Q 2850 2250 2475 1950 
Q 3150 1975 3850 2000 
Q 3750 2175 3550 2450 
L 3600 2500 
Q 4050 2250 4200 2100 
Q 4350 1950 4350 1850 
Q 4350 1775 4250 1625 
Q 4150 1475 4100 1475 
Q 4075 1475 4050 1550 
Q 4000 1700 3900 1900 
Q 3650 1875 3075 1800 
L 3500 1550 
L 3325 1425 
L 3325 975 
L 5325 975 
L 5650 1300 
L 6100 825 
L 3325 825 
Q 3325 -275 3350 -525 
L 2975 -650 
Q 3000 0 3000 825 
L 1125 825 
Q 800 825 525 750 
L 300 975 
L 3000 975 
L 3000 1775 
Q 2450 1700 2200 1525 
L 1950 1950 
Q 2275 1950 2675 2350 
Q 3075 2750 3325 3050 
Q 2400 2950 2150 2775 
L 1950 3175 
Q 2150 3150 2475 3575 
Q 2800 4000 2900 4225 
L 1450 4225 
Q 1125 4225 850 4150 
L 625 4375 
L 3100 4375 
Q 3050 4800 2675 5200 
L 2725 5250 
Q 3225 5050 3337 4912 
Q 3450 4775 3450 4700 
Q 3450 4550 3250 4375 
L 5025 4375 
L 5350 4675 
L 5775 4225 
L 3050 4225 
L 3375 3950 
L 3150 3900 
z
" transform="scale(0.015625)"/>
      </defs>
      <use xlink:href="#SimSun-43"/>
      <use xlink:href="#SimSun-50" x="50"/>
      <use xlink:href="#SimSun-55" x="100"/>
      <use xlink:href="#SimSun-4f7f" x="150"/>
      <use xlink:href="#SimSun-7528" x="250"/>
      <use xlink:href="#SimSun-7387" x="350"/>
     </g>
    </g>
   </g>
   <g id="line2d_12">
    <path d="M 105.770077 115.022369 
L 108.845518 121.426836 
L 111.920959 128.486949 
L 114.996399 133.390067 
L 118.07184 135.537558 
L 121.147281 140.5452 
L 124.222722 156.309305 
L 127.298163 142.426634 
L 130.373604 149.467745 
L 133.449045 147.752601 
L 136.524486 157.135995 
L 139.599927 157.582598 
L 142.675367 156.717898 
L 145.750808 160.604286 
L 148.826249 160.585284 
L 151.90169 160.376235 
L 154.977131 164.329137 
L 158.052572 164.975285 
L 161.128013 165.070311 
L 164.203454 165.497906 
L 167.278895 166.894723 
L 170.354335 165.887496 
L 173.429776 163.901537 
L 176.505217 172.253948 
L 179.580658 175.841013 
L 182.656099 169.374788 
L 185.73154 171.693323 
L 188.806981 182.060185 
L 191.882422 183.024663 
L 194.957863 182.915381 
L 198.033303 173.707778 
L 201.108744 175.180615 
L 204.184185 181.029204 
L 207.259626 176.73897 
L 210.335067 180.012473 
L 213.410508 181.100471 
L 216.485949 178.382846 
L 219.56139 180.269034 
L 222.636831 182.625567 
L 225.712272 183.390495 
L 228.787712 181.708609 
L 231.863153 176.430154 
L 234.938594 177.69869 
L 238.014035 176.881509 
L 241.089476 177.679688 
L 244.164917 175.361153 
L 247.240358 174.496459 
L 250.315799 173.337194 
L 253.39124 174.382431 
L 256.46668 173.726786 
L 259.542121 165.022792 
L 262.617562 170.752605 
L 265.693003 156.836678 
L 268.768444 148.341737 
L 271.843885 139.034359 
L 274.919326 123.213241 
L 277.994767 123.992418 
L 281.070208 130.453896 
L 284.145648 127.470212 
L 287.221089 125.056662 
L 290.29653 103.69103 
L 293.371971 93.034343 
L 296.447412 108.959986 
L 299.522853 90.829836 
L 302.598294 100.631333 
L 305.673735 105.349156 
L 308.749176 84.734196 
L 311.824616 82.933535 
L 314.900057 89.29049 
L 317.975498 89.604057 
L 321.050939 93.537963 
L 324.12638 84.900483 
L 327.201821 73.645168 
L 330.277262 54.65507 
L 333.352703 80.021118 
L 336.428144 75.749891 
L 339.503584 65.031442 
L 342.579025 59.149607 
L 345.654466 78.57204 
L 348.729907 40.031237 
L 351.805348 66.33324 
L 354.880789 64.684617 
L 361.031671 84.301849 
L 364.107112 72.761466 
L 367.182552 49.994258 
L 370.257993 69.354933 
L 373.333434 65.986415 
L 376.408875 70.737497 
L 379.484316 67.045908 
L 382.559757 56.417727 
L 385.635198 59.197114 
L 388.710639 59.463174 
L 391.78608 57.334686 
L 394.86152 64.11924 
L 397.936961 66.779848 
L 401.012402 50.450358 
L 404.087843 57.120891 
L 407.163284 70.110351 
L 410.238725 79.199185 
L 413.314166 52.455321 
L 416.389607 36.510682 
L 419.465048 70.98456 
L 422.540488 75.208268 
L 425.615929 77.944894 
L 428.69137 72.500153 
L 431.766811 75.179768 
L 434.842252 74.381578 
L 437.917693 71.179347 
L 440.993134 72.965757 
L 444.068575 72.78522 
L 447.144016 51.961205 
L 450.219457 70.89428 
L 453.294897 84.159315 
L 456.370338 92.255172 
L 459.445779 78.871357 
L 462.52122 90.981874 
L 465.596661 81.878801 
L 468.672102 47.699482 
L 471.747543 51.88044 
L 474.822984 55.572029 
L 477.898425 44.197934 
L 480.973865 49.884982 
L 484.049306 50.949231 
L 487.124747 53.609839 
L 490.200188 72.414631 
L 493.275629 71.815996 
L 496.35107 70.590217 
L 499.426511 71.302873 
L 502.501952 75.607358 
L 505.577393 78.458018 
L 508.652833 81.850289 
L 511.728274 82.905035 
L 514.803715 79.997364 
L 517.879156 86.867442 
L 520.954597 90.644553 
L 524.030038 91.808564 
L 527.105479 96.915979 
L 530.18092 100.336762 
L 533.256361 105.924043 
L 536.331801 116.732761 
L 539.407242 119.621419 
L 542.482683 124.923632 
L 545.558124 130.905245 
L 548.633565 133.803413 
L 551.709006 137.951108 
L 554.784447 139.390688 
L 557.859888 140.203122 
L 560.935329 144.308062 
L 564.010769 144.222545 
L 567.08621 153.743718 
L 570.161651 139.433449 
L 573.237092 141.215101 
L 576.312533 151.330168 
L 579.387974 163.255395 
L 582.463415 169.545827 
L 585.538856 168.481589 
L 588.614297 171.1802 
L 591.689737 172.520008 
L 594.765178 175.579705 
L 597.840619 180.601603 
L 603.991501 179.166781 
L 607.066942 177.427878 
L 610.142383 172.814579 
L 619.368705 175.437177 
L 622.444146 175.864772 
L 625.519587 174.567726 
L 631.670469 176.577434 
L 634.74591 178.359093 
L 637.821351 182.098194 
L 640.896792 177.356611 
L 643.972233 173.631765 
L 647.047673 179.812922 
L 650.123114 180.273781 
L 653.198555 179.513611 
L 656.273996 177.195076 
L 659.349437 180.644364 
L 662.424878 182.250226 
L 665.500319 184.321709 
L 668.57576 184.193425 
L 674.726642 176.368391 
L 680.877523 177.147563 
L 683.952964 173.755291 
L 687.028405 174.068864 
L 690.103846 173.698274 
L 693.179287 171.864357 
L 696.254728 170.429534 
L 699.330169 163.374169 
L 702.40561 164.186604 
L 705.48105 169.450812 
L 708.556491 157.102738 
L 711.631932 155.511126 
L 714.707373 141.956275 
L 717.782814 139.651995 
L 720.858255 142.768712 
L 723.933696 147.880879 
L 727.009137 147.500792 
L 730.084578 146.455552 
L 733.160018 133.884183 
L 739.3109 90.017407 
L 742.386341 115.516485 
L 745.461782 104.945315 
L 748.537223 101.833353 
L 751.612664 85.912468 
L 754.688105 73.469377 
L 757.763546 84.615427 
L 760.838986 90.335732 
L 763.914427 78.999641 
L 766.989868 82.135356 
L 770.065309 82.30639 
L 773.14075 85.081031 
L 776.216191 95.965763 
L 779.291632 79.260943 
L 782.367073 75.379313 
L 785.442514 79.569764 
L 788.517954 113.150442 
L 791.593395 79.79782 
L 794.668836 89.860624 
L 797.744277 101.315489 
L 800.819718 107.415882 
L 803.895159 108.033523 
L 806.9706 104.588987 
L 810.046041 84.643927 
L 813.121482 103.69103 
L 816.196922 106.418152 
L 819.272363 108.579898 
L 822.347804 117.440671 
L 825.423245 97.044262 
L 828.498686 103.971345 
L 831.574127 107.202081 
L 834.649568 114.233688 
L 837.725009 113.734827 
L 840.80045 116.419188 
L 843.87589 98.87818 
L 846.951331 94.67822 
L 850.026772 94.735231 
L 853.102213 87.323542 
L 856.177654 82.962047 
L 859.253095 77.317749 
L 862.328536 78.458018 
L 865.403977 90.516269 
L 868.479418 109.335322 
L 871.554858 103.135151 
L 874.630299 111.924663 
L 877.70574 113.354739 
L 880.781181 108.674919 
L 883.856622 95.623684 
L 886.932063 103.21117 
L 890.007504 105.919291 
L 893.082945 106.726973 
L 896.158386 108.10479 
L 899.233827 110.07649 
L 902.309267 109.601381 
L 905.384708 90.568534 
L 908.460149 83.788737 
L 911.53559 71.317135 
L 914.611031 47.124601 
L 917.686472 64.817647 
L 920.761913 74.4671 
L 923.837354 70.704239 
L 926.912795 81.05211 
L 929.988235 86.582374 
L 933.063676 87.751143 
L 936.139117 79.968864 
L 939.214558 76.229757 
L 942.289999 64.983934 
L 945.36544 81.736267 
L 948.440881 86.781919 
L 951.516322 88.093221 
L 954.591763 82.17336 
L 957.667203 89.02443 
L 960.742644 92.283672 
L 963.818085 100.075454 
L 966.893526 96.702184 
L 969.968967 99.077725 
L 973.044408 109.739163 
L 976.119849 114.224185 
L 979.19529 115.725528 
L 982.270731 117.835014 
L 985.346171 126.481987 
L 988.421612 125.417748 
L 988.421612 125.417748 
" clip-path="url(#pc6b29682ff)" style="fill: none; stroke: #1f77b4; stroke-width: 1.5; stroke-linecap: square"/>
   </g>
   <g id="line2d_13">
    <path d="M 548.633565 131.960467 
L 551.709006 144.152071 
L 554.784447 108.128935 
L 557.859888 146.104341 
L 560.935329 144.205256 
L 564.010769 142.619286 
L 567.08621 149.746446 
L 570.161651 149.222114 
L 573.237092 148.340814 
L 576.312533 150.546522 
L 579.387974 161.675592 
L 582.463415 163.778577 
L 585.538856 161.594839 
L 588.614297 165.363273 
L 591.689737 167.499021 
L 594.765178 171.023909 
L 597.840619 169.401521 
L 600.91606 166.528614 
L 603.991501 171.330538 
L 607.066942 172.752204 
L 610.142383 174.349983 
L 613.217824 174.553074 
L 616.293265 171.53313 
L 619.368705 177.058642 
L 622.444146 170.962815 
L 625.519587 181.17184 
L 628.595028 176.448562 
L 631.670469 173.403924 
L 634.74591 179.955218 
L 637.821351 176.981253 
L 640.896792 176.06289 
L 643.972233 176.189921 
L 647.047673 181.655143 
L 650.123114 177.376803 
L 653.198555 179.190761 
L 656.273996 177.316376 
L 659.349437 184.58198 
L 662.424878 185.536818 
L 665.500319 181.255691 
L 668.57576 176.272957 
L 671.651201 179.239169 
L 674.726642 181.002924 
L 677.802082 181.433957 
L 680.877523 176.991329 
L 683.952964 180.744601 
L 687.028405 180.646749 
L 690.103846 177.901378 
L 693.179287 170.983986 
L 696.254728 173.8555 
L 699.330169 169.668974 
L 702.40561 169.326029 
L 705.48105 169.687183 
L 708.556491 161.79623 
L 711.631932 161.545984 
L 714.707373 150.812327 
L 717.782814 148.20399 
L 720.858255 143.758246 
L 723.933696 138.372693 
L 727.009137 140.146258 
L 730.084578 125.852853 
L 733.160018 120.705214 
L 736.235459 122.664821 
L 739.3109 119.986854 
L 742.386341 109.834971 
L 745.461782 115.23728 
L 748.537223 113.757419 
L 751.612664 102.514655 
L 754.688105 99.977641 
L 757.763546 100.927059 
L 760.838986 101.149332 
L 763.914427 94.917875 
L 766.989868 100.673986 
L 770.065309 96.980744 
L 773.14075 91.381303 
L 776.216191 90.027036 
L 779.291632 92.550604 
L 782.367073 91.19167 
L 785.442514 93.238136 
L 788.517954 96.355858 
L 791.593395 93.123955 
L 794.668836 88.54803 
L 797.744277 94.42982 
L 800.819718 87.864123 
L 803.895159 85.705028 
L 806.9706 86.745263 
L 810.046041 89.197763 
L 813.121482 82.647709 
L 816.196922 87.114448 
L 819.272363 83.704574 
L 822.347804 87.905853 
L 825.423245 87.764113 
L 828.498686 85.794232 
L 831.574127 97.306465 
L 834.649568 84.709604 
L 837.725009 85.632362 
L 840.80045 89.028349 
L 843.87589 88.943099 
L 846.951331 84.620683 
L 850.026772 82.863407 
L 853.102213 85.654666 
L 856.177654 88.147876 
L 859.253095 90.483975 
L 862.328536 84.673526 
L 865.403977 83.082956 
L 868.479418 86.902715 
L 871.554858 87.783279 
L 874.630299 81.448357 
L 877.70574 85.046063 
L 880.781181 80.421635 
L 883.856622 95.564039 
L 886.932063 92.853047 
L 890.007504 83.486316 
L 893.082945 86.020158 
L 896.158386 83.722584 
L 899.233827 91.400627 
L 902.309267 84.823705 
L 905.384708 85.85975 
L 908.460149 87.678511 
L 911.53559 92.612021 
L 914.611031 76.330175 
L 917.686472 84.328344 
L 920.761913 84.95166 
L 923.837354 84.328593 
L 926.912795 84.329737 
L 929.988235 88.319782 
L 933.063676 90.783654 
L 939.214558 82.437879 
L 942.289999 89.946282 
L 945.36544 87.639873 
L 948.440881 99.728454 
L 951.516322 96.542767 
L 954.591763 95.463129 
L 957.667203 95.493248 
L 960.742644 106.242684 
L 963.818085 105.257885 
L 966.893526 103.969267 
L 969.968967 105.623253 
L 973.044408 108.79294 
L 976.119849 114.370762 
L 979.19529 115.308269 
L 982.270731 120.389682 
L 985.346171 124.811168 
L 988.421612 132.773961 
L 988.421612 132.773961 
" clip-path="url(#pc6b29682ff)" style="fill: none; stroke: #ff7f0e; stroke-width: 1.5; stroke-linecap: square"/>
   </g>
   <g id="line2d_14">
    <path d="M 548.633565 192.988125 
L 548.633565 29.059375 
" clip-path="url(#pc6b29682ff)" style="fill: none; stroke-dasharray: 7.4,3.2; stroke-dashoffset: 0; stroke: #0000ff; stroke-width: 2"/>
   </g>
   <g id="patch_3">
    <path d="M 61.6375 192.988125 
L 61.6375 29.059375 
" style="fill: none; stroke: #000000; stroke-width: 0.8; stroke-linejoin: miter; stroke-linecap: square"/>
   </g>
   <g id="patch_4">
    <path d="M 1032.554189 192.988125 
L 1032.554189 29.059375 
" style="fill: none; stroke: #000000; stroke-width: 0.8; stroke-linejoin: miter; stroke-linecap: square"/>
   </g>
   <g id="patch_5">
    <path d="M 61.6375 192.988125 
L 1032.554189 192.988125 
" style="fill: none; stroke: #000000; stroke-width: 0.8; stroke-linejoin: miter; stroke-linecap: square"/>
   </g>
   <g id="patch_6">
    <path d="M 61.6375 29.059375 
L 1032.554189 29.059375 
" style="fill: none; stroke: #000000; stroke-width: 0.8; stroke-linejoin: miter; stroke-linecap: square"/>
   </g>
   <g id="text_13">
    <!-- 云函数ID: 28 -->
    <g transform="translate(487.095845 23.059375) scale(0.2 -0.2)">
     <defs>
      <path id="SimSun-4e91" d="M 1200 4450 
L 4500 4450 
L 4850 4800 
L 5350 4300 
L 1975 4300 
Q 1700 4300 1425 4225 
L 1200 4450 
z
M 1600 275 
Q 2300 300 4725 450 
Q 4425 975 3850 1700 
L 3925 1775 
Q 5200 725 5287 500 
Q 5375 275 5375 175 
Q 5375 0 5250 -162 
Q 5125 -325 5075 -325 
Q 5025 -325 4975 -200 
Q 4875 50 4775 300 
Q 1650 -25 1300 -300 
L 975 300 
Q 1225 350 1462 550 
Q 1700 750 2150 1462 
Q 2600 2175 2725 2600 
L 1250 2600 
Q 925 2600 650 2525 
L 425 2750 
L 5025 2750 
L 5450 3175 
L 6025 2600 
L 3250 2600 
Q 3000 2025 2500 1375 
Q 2000 725 1600 275 
z
" transform="scale(0.015625)"/>
      <path id="SimSun-51fd" d="M 3050 2275 
L 3050 3000 
Q 3050 3450 3025 3800 
L 3275 3625 
L 4450 4475 
L 1650 4475 
Q 1325 4475 1050 4400 
L 825 4625 
L 4450 4625 
L 4775 4875 
L 5150 4375 
Q 4875 4325 4550 4175 
Q 4225 4025 3400 3550 
L 3550 3450 
L 3375 3325 
L 3375 2400 
Q 4250 3225 4475 3600 
L 4875 3150 
L 4625 3125 
Q 3625 2425 3400 2275 
Q 4575 1675 4687 1487 
Q 4800 1300 4800 1150 
Q 4800 1025 4750 925 
Q 4700 825 4675 825 
Q 4575 825 4375 1150 
Q 4075 1600 3375 2150 
L 3375 725 
Q 3375 350 2875 150 
Q 2850 450 2200 650 
L 2200 750 
Q 2800 675 2925 700 
Q 3050 725 3050 850 
L 3050 2100 
Q 1850 1300 1625 1025 
L 1275 1400 
Q 1575 1475 2087 1725 
Q 2600 1975 3050 2275 
z
M 1700 3475 
L 1775 3550 
Q 2350 3200 2475 3025 
Q 2600 2850 2600 2775 
Q 2600 2650 2500 2525 
Q 2400 2400 2350 2400 
Q 2275 2400 2225 2575 
Q 2150 2875 1700 3475 
z
M 5150 0 
L 5150 2175 
Q 5150 2725 5125 3325 
L 5725 3050 
L 5500 2850 
L 5500 525 
Q 5500 100 5525 -400 
L 5150 -600 
L 5150 -150 
L 1250 -150 
L 1000 -375 
L 675 -50 
L 875 125 
L 875 2375 
Q 875 2800 850 3425 
L 1450 3150 
L 1225 2975 
L 1225 0 
L 5150 0 
z
" transform="scale(0.015625)"/>
      <path id="SimSun-6570" d="M 1875 1525 
Q 1675 1200 1500 900 
Q 1825 825 2275 725 
Q 2500 975 2725 1525 
L 1875 1525 
z
M 850 4900 
Q 1325 4600 1425 4450 
Q 1525 4300 1525 4225 
Q 1525 4100 1437 3975 
Q 1350 3850 1300 3850 
Q 1225 3850 1150 4100 
Q 1050 4450 775 4850 
L 850 4900 
z
M 3000 4975 
L 3450 4675 
Q 3250 4625 3100 4425 
Q 2925 4225 2525 3825 
L 2450 3875 
Q 2925 4625 3000 4975 
z
M 1875 5250 
L 2425 5000 
L 2225 4825 
L 2225 3675 
L 2850 3675 
L 3125 3950 
L 3550 3525 
L 2225 3525 
L 2225 3300 
Q 2800 3175 2937 3062 
Q 3075 2950 3075 2775 
Q 3075 2700 3050 2587 
Q 3025 2475 2975 2475 
Q 2925 2475 2800 2650 
Q 2600 2925 2225 3175 
L 2225 2400 
L 1925 2200 
L 2275 2050 
Q 2150 2000 1950 1675 
L 2725 1675 
L 2900 1900 
L 3275 1575 
L 3050 1450 
Q 2800 875 2600 650 
Q 3000 550 3137 437 
Q 3275 325 3275 150 
Q 3275 -25 3200 -25 
Q 3125 -25 3025 75 
Q 2750 275 2400 425 
Q 1525 -275 325 -500 
L 300 -425 
Q 1450 -50 2100 550 
Q 1600 725 1125 800 
Q 1225 950 1525 1525 
L 1200 1525 
Q 875 1525 600 1450 
L 375 1675 
L 1575 1675 
Q 1675 1925 1775 2275 
L 1900 2225 
L 1900 3250 
Q 1225 2475 350 2050 
L 300 2125 
Q 1225 2775 1700 3525 
L 1250 3525 
Q 925 3525 650 3450 
L 425 3675 
L 1900 3675 
Q 1900 4575 1875 5250 
z
M 3925 3525 
Q 4050 2075 4525 1100 
Q 4925 1950 5025 3525 
L 3925 3525 
z
M 4050 5250 
L 4625 4925 
Q 4425 4850 4325 4625 
Q 4225 4400 3950 3675 
L 5375 3675 
L 5675 3975 
L 6125 3525 
L 5400 3525 
Q 5250 1675 4750 775 
Q 5325 75 6100 -100 
L 6100 -200 
Q 5625 -275 5600 -500 
Q 4950 -50 4525 525 
Q 3700 -275 2550 -650 
L 2500 -575 
Q 3650 -50 4325 800 
Q 3850 1975 3825 3375 
Q 3575 2725 3100 2150 
L 3025 2200 
Q 3625 3200 4050 5250 
z
" transform="scale(0.015625)"/>
      <path id="SimSun-49" d="M 600 4225 
L 600 4375 
L 2600 4375 
L 2600 4225 
L 2025 4225 
Q 1925 4225 1862 4175 
Q 1800 4125 1800 4025 
L 1800 450 
Q 1800 350 1862 300 
Q 1925 250 2025 250 
L 2600 250 
L 2600 100 
L 600 100 
L 600 250 
L 1175 250 
Q 1300 250 1350 300 
Q 1400 350 1400 450 
L 1400 4025 
Q 1400 4125 1350 4175 
Q 1300 4225 1175 4225 
L 600 4225 
z
" transform="scale(0.015625)"/>
      <path id="SimSun-44" d="M 2500 2275 
Q 2500 3350 2175 3787 
Q 1850 4225 1275 4225 
Q 1100 4225 1012 4175 
Q 925 4125 925 4025 
L 925 450 
Q 925 350 1000 300 
Q 1075 250 1200 250 
Q 1750 250 2125 662 
Q 2500 1075 2500 2275 
z
M 525 4025 
Q 525 4125 475 4175 
Q 425 4225 300 4225 
L 150 4225 
L 150 4375 
L 1275 4375 
Q 2050 4375 2512 3875 
Q 2975 3375 2975 2325 
Q 2975 1175 2525 637 
Q 2075 100 1200 100 
L 125 100 
L 125 250 
L 300 250 
Q 425 250 475 300 
Q 525 350 525 450 
L 525 4025 
z
" transform="scale(0.015625)"/>
      <path id="SimSun-3a" d="M 1900 2725 
Q 1900 2575 1800 2475 
Q 1700 2375 1550 2375 
Q 1400 2375 1300 2475 
Q 1200 2575 1200 2725 
Q 1200 2875 1300 2975 
Q 1400 3075 1550 3075 
Q 1700 3075 1800 2975 
Q 1900 2875 1900 2725 
z
M 1900 375 
Q 1900 225 1800 125 
Q 1700 25 1550 25 
Q 1400 25 1300 125 
Q 1200 225 1200 375 
Q 1200 525 1300 625 
Q 1400 725 1550 725 
Q 1700 725 1800 625 
Q 1900 525 1900 375 
z
" transform="scale(0.015625)"/>
      <path id="SimSun-20" d="M 0 0 
Q 0 0 0 0 
z
" transform="scale(0.015625)"/>
      <path id="SimSun-32" d="M 2325 3325 
Q 2325 3775 2125 4012 
Q 1925 4250 1525 4250 
Q 1225 4250 1012 4087 
Q 800 3925 800 3675 
Q 800 3525 900 3425 
Q 975 3325 975 3225 
Q 975 3100 912 3037 
Q 850 2975 725 2975 
Q 575 2975 487 3062 
Q 400 3150 400 3350 
Q 400 3875 775 4150 
Q 1150 4425 1575 4425 
Q 2175 4425 2462 4125 
Q 2750 3825 2750 3375 
Q 2750 3075 2612 2775 
Q 2475 2475 2175 2200 
Q 1450 1500 1062 1062 
Q 675 625 600 475 
L 2075 475 
Q 2300 475 2450 650 
Q 2600 825 2650 1175 
L 2800 1175 
L 2650 100 
L 325 100 
L 325 425 
Q 450 650 737 1000 
Q 1025 1350 1500 1825 
Q 1925 2250 2125 2625 
Q 2325 3000 2325 3325 
z
" transform="scale(0.015625)"/>
      <path id="SimSun-38" d="M 625 1125 
Q 625 725 887 475 
Q 1150 225 1550 225 
Q 2025 225 2237 475 
Q 2450 725 2450 1100 
Q 2450 1425 2150 1725 
Q 1850 2025 1250 2275 
Q 950 2075 787 1775 
Q 625 1475 625 1125 
z
M 2825 1175 
Q 2825 700 2475 375 
Q 2125 50 1550 50 
Q 1025 50 650 375 
Q 275 700 275 1125 
Q 275 1550 487 1850 
Q 700 2150 1100 2375 
Q 750 2550 562 2812 
Q 375 3075 375 3400 
Q 375 3825 700 4125 
Q 1025 4425 1600 4425 
Q 2125 4425 2450 4125 
Q 2775 3825 2775 3400 
Q 2775 3100 2587 2837 
Q 2400 2575 2000 2375 
Q 2425 2125 2625 1825 
Q 2825 1525 2825 1175 
z
M 2425 3375 
Q 2425 3725 2225 3987 
Q 2025 4250 1600 4250 
Q 1125 4250 925 4000 
Q 725 3750 725 3475 
Q 725 3200 1012 2937 
Q 1300 2675 1825 2475 
Q 2125 2625 2275 2850 
Q 2425 3075 2425 3375 
z
" transform="scale(0.015625)"/>
     </defs>
     <use xlink:href="#SimSun-4e91"/>
     <use xlink:href="#SimSun-51fd" x="100"/>
     <use xlink:href="#SimSun-6570" x="200"/>
     <use xlink:href="#SimSun-49" x="300"/>
     <use xlink:href="#SimSun-44" x="350"/>
     <use xlink:href="#SimSun-3a" x="400"/>
     <use xlink:href="#SimSun-20" x="450"/>
     <use xlink:href="#SimSun-32" x="500"/>
     <use xlink:href="#SimSun-38" x="550"/>
    </g>
   </g>
   <g id="legend_1">
    <g id="patch_7">
     <path d="M 75.6375 101.934375 
L 199.6375 101.934375 
Q 203.6375 101.934375 203.6375 97.934375 
L 203.6375 43.059375 
Q 203.6375 39.059375 199.6375 39.059375 
L 75.6375 39.059375 
Q 71.6375 39.059375 71.6375 43.059375 
L 71.6375 97.934375 
Q 71.6375 101.934375 75.6375 101.934375 
z
" style="fill: #ffffff; opacity: 0.8; stroke: #cccccc; stroke-linejoin: miter"/>
    </g>
    <g id="line2d_15">
     <path d="M 79.6375 55.996875 
L 99.6375 55.996875 
L 119.6375 55.996875 
" style="fill: none; stroke: #1f77b4; stroke-width: 1.5; stroke-linecap: square"/>
    </g>
    <g id="text_14">
     <!-- 真实值 -->
     <g transform="translate(135.6375 62.996875) scale(0.2 -0.2)">
      <defs>
       <path id="SimSun-771f" d="M 2050 3450 
L 2050 2900 
L 4300 2900 
L 4300 3450 
L 2050 3450 
z
M 2050 2750 
L 2050 2225 
L 4300 2225 
L 4300 2750 
L 2050 2750 
z
M 2050 2075 
L 2050 1550 
L 4300 1550 
L 4300 2075 
L 2050 2075 
z
M 2050 1400 
L 2050 875 
L 4300 875 
L 4300 1400 
L 2050 1400 
z
M 2875 3600 
L 2925 4325 
L 1525 4325 
Q 1200 4325 925 4250 
L 700 4475 
L 2950 4475 
Q 2975 4825 2975 5275 
L 3550 5025 
L 3375 4925 
L 3300 4475 
L 5000 4475 
L 5325 4825 
L 5775 4325 
L 3275 4325 
L 3200 3600 
L 4275 3600 
L 4450 3875 
L 4850 3575 
L 4650 3375 
L 4650 875 
L 5300 875 
L 5675 1225 
L 6125 725 
L 1150 725 
Q 825 725 550 650 
L 325 875 
L 1700 875 
Q 1700 3200 1675 3775 
L 2050 3600 
L 2875 3600 
z
M 2425 725 
L 2825 350 
L 2575 300 
Q 1500 -425 800 -650 
L 775 -575 
Q 1950 125 2425 725 
z
M 3800 700 
Q 4575 375 4962 200 
Q 5350 25 5400 -112 
Q 5450 -250 5450 -325 
Q 5450 -400 5400 -525 
Q 5350 -650 5325 -650 
Q 5250 -650 5100 -450 
Q 4875 -150 3750 625 
L 3800 700 
z
" transform="scale(0.015625)"/>
       <path id="SimSun-5b9e" d="M 1950 3625 
Q 2575 3400 2700 3250 
Q 2825 3100 2825 2975 
Q 2825 2850 2750 2700 
Q 2675 2550 2625 2550 
Q 2550 2550 2450 2800 
Q 2275 3175 1900 3550 
L 1950 3625 
z
M 3575 1325 
Q 3500 1100 3425 925 
Q 4650 550 5087 325 
Q 5525 100 5512 -225 
Q 5500 -550 5400 -550 
Q 5300 -550 5075 -300 
Q 4625 175 3375 800 
Q 3025 175 2300 -150 
Q 1575 -475 425 -625 
L 425 -525 
Q 1475 -325 2200 100 
Q 2925 525 3200 1325 
L 1225 1325 
Q 900 1325 625 1250 
L 400 1475 
L 3225 1475 
Q 3325 1950 3375 2575 
Q 3425 3200 3425 3700 
L 4050 3400 
L 3850 3225 
Q 3750 2300 3625 1475 
L 5175 1475 
L 5550 1850 
L 6075 1325 
L 3575 1325 
z
M 1275 2700 
Q 1975 2425 2100 2262 
Q 2225 2100 2225 1975 
Q 2225 1850 2150 1700 
Q 2075 1550 2025 1550 
Q 1950 1550 1850 1800 
Q 1675 2175 1225 2625 
L 1275 2700 
z
M 2750 5225 
L 2825 5275 
Q 3225 5100 3425 4925 
Q 3625 4750 3625 4600 
Q 3625 4450 3512 4300 
Q 3400 4150 3325 4150 
Q 3250 4150 3200 4400 
Q 3100 4775 2750 5225 
z
M 4975 3225 
L 5350 3925 
L 1175 3925 
Q 1225 3525 1125 3300 
Q 1025 3075 787 3100 
Q 550 3125 550 3200 
Q 550 3300 700 3475 
Q 975 3825 1050 4375 
L 1150 4375 
L 1175 4075 
L 5300 4075 
L 5575 4350 
L 6050 3800 
Q 5625 3825 5050 3175 
L 4975 3225 
z
" transform="scale(0.015625)"/>
       <path id="SimSun-503c" d="M 1525 650 
Q 1525 -225 1550 -525 
L 1175 -650 
Q 1200 250 1200 550 
L 1200 3025 
Q 750 2300 325 1850 
L 250 1900 
Q 725 2625 1100 3525 
Q 1475 4425 1675 5200 
L 2200 4875 
L 1950 4725 
Q 1550 3800 1425 3475 
L 1725 3300 
L 1525 3150 
L 1525 650 
z
M 2875 3225 
L 2875 2475 
L 4800 2475 
L 4800 3225 
L 2875 3225 
z
M 2875 2325 
L 2875 1575 
L 4800 1575 
L 4800 2325 
L 2875 2325 
z
M 2875 1425 
L 2875 675 
L 4800 675 
L 4800 1425 
L 2875 1425 
z
M 2875 525 
L 2875 -225 
L 4800 -225 
L 4800 525 
L 2875 525 
z
M 3550 4250 
Q 3575 4825 3550 5225 
L 4125 4950 
L 3925 4800 
L 3900 4250 
L 5025 4250 
L 5350 4575 
L 5825 4100 
L 3900 4100 
L 3875 3375 
L 4750 3375 
L 4975 3625 
L 5350 3300 
L 5125 3150 
L 5125 -225 
L 5350 -225 
L 5675 100 
L 6150 -375 
L 2450 -375 
Q 2125 -375 1850 -450 
L 1625 -225 
L 2550 -225 
L 2550 2550 
Q 2550 2850 2525 3575 
L 2875 3375 
L 3525 3375 
L 3550 4100 
L 2800 4100 
Q 2475 4100 2200 4025 
L 1975 4250 
L 3550 4250 
z
" transform="scale(0.015625)"/>
      </defs>
      <use xlink:href="#SimSun-771f"/>
      <use xlink:href="#SimSun-5b9e" x="100"/>
      <use xlink:href="#SimSun-503c" x="200"/>
     </g>
    </g>
    <g id="line2d_16">
     <path d="M 79.6375 84.35625 
L 99.6375 84.35625 
L 119.6375 84.35625 
" style="fill: none; stroke: #ff7f0e; stroke-width: 1.5; stroke-linecap: square"/>
    </g>
    <g id="text_15">
     <!-- 预测值 -->
     <g transform="translate(135.6375 91.35625) scale(0.2 -0.2)">
      <defs>
       <path id="SimSun-9884" d="M 475 4825 
L 2225 4825 
L 2425 5075 
L 2825 4675 
Q 2600 4625 2387 4412 
Q 2175 4200 1800 3750 
Q 2050 3575 2037 3400 
Q 2025 3225 1937 3150 
Q 1850 3075 1825 3075 
Q 1725 3075 1650 3300 
Q 1525 3600 1050 4100 
L 1100 4150 
Q 1475 3975 1700 3825 
L 2225 4675 
L 1300 4675 
Q 975 4675 700 4600 
L 475 4825 
z
M 725 100 
Q 1175 50 1362 37 
Q 1550 25 1550 275 
L 1550 2875 
L 1125 2875 
Q 800 2875 525 2800 
L 300 3025 
L 2525 3025 
L 2725 3275 
L 3150 2875 
Q 2800 2825 2275 2075 
L 2200 2125 
L 2550 2875 
L 1875 2875 
L 1875 150 
Q 1875 -400 1350 -500 
Q 1325 -175 725 0 
L 725 100 
z
M 3250 775 
Q 3275 1425 3275 2287 
Q 3275 3150 3250 3900 
L 3600 3700 
L 4050 3700 
Q 4175 4400 4200 4675 
L 3650 4675 
Q 3325 4675 3050 4600 
L 2825 4825 
L 5325 4825 
L 5675 5150 
L 6125 4675 
L 4675 4675 
Q 4500 4425 4175 3700 
L 5300 3700 
L 5475 3975 
L 5875 3675 
L 5675 3475 
L 5675 1950 
Q 5675 1525 5700 1075 
L 5350 875 
L 5350 3550 
L 3600 3550 
L 3600 1000 
L 3250 775 
z
M 4850 2875 
L 4625 2675 
Q 4625 1475 4475 937 
Q 4325 400 3900 50 
Q 3475 -300 2425 -625 
L 2400 -550 
Q 3500 -50 3837 400 
Q 4175 850 4237 1587 
Q 4300 2325 4275 3175 
L 4850 2875 
z
M 4650 950 
Q 5725 375 5875 212 
Q 6025 50 6025 -125 
Q 6025 -225 5962 -387 
Q 5900 -550 5850 -550 
Q 5800 -550 5750 -450 
Q 5625 -250 5437 0 
Q 5250 250 4600 875 
L 4650 950 
z
" transform="scale(0.015625)"/>
       <path id="SimSun-6d4b" d="M 1975 1000 
Q 2000 1475 2000 2925 
Q 2000 4375 1975 5000 
L 2350 4775 
L 3575 4775 
L 3775 4975 
L 4100 4650 
L 3900 4500 
L 3900 2350 
Q 3900 1850 3925 1350 
L 3600 1200 
L 3600 4625 
L 2325 4625 
L 2325 1150 
L 1975 1000 
z
M 2775 3975 
L 3300 3700 
L 3125 3525 
Q 3150 1825 2875 937 
Q 2600 50 1375 -600 
L 1325 -500 
Q 2200 100 2475 725 
Q 2750 1350 2775 2187 
Q 2800 3025 2775 3975 
z
M 3100 950 
Q 3825 450 3937 262 
Q 4050 75 4050 -25 
Q 4050 -150 3975 -262 
Q 3900 -375 3850 -375 
Q 3750 -375 3650 -75 
Q 3500 375 3050 875 
L 3100 950 
z
M 4475 825 
Q 4500 1200 4500 1700 
L 4500 3400 
Q 4500 3950 4475 4300 
L 5025 4025 
L 4825 3825 
L 4825 1700 
Q 4825 1325 4850 950 
L 4475 825 
z
M 5375 150 
L 5375 4050 
Q 5375 4750 5350 5125 
L 5875 4875 
L 5700 4700 
L 5700 75 
Q 5700 -200 5600 -350 
Q 5500 -500 5200 -600 
Q 5025 -225 4450 -50 
L 4450 50 
Q 5125 -50 5250 -37 
Q 5375 -25 5375 150 
z
M 1850 3500 
Q 1375 1525 1300 1225 
Q 1200 900 1212 450 
Q 1225 0 1250 -175 
Q 1250 -275 1125 -275 
Q 1025 -275 875 -225 
Q 725 -175 725 0 
Q 725 125 800 375 
Q 875 625 875 775 
Q 875 950 762 1050 
Q 650 1150 275 1250 
L 275 1350 
Q 725 1300 837 1312 
Q 950 1325 1087 1537 
Q 1225 1750 1750 3525 
L 1850 3500 
z
M 375 3775 
Q 1075 3350 1112 3100 
Q 1150 2850 1050 2775 
Q 950 2700 900 2700 
Q 800 2700 725 2975 
Q 600 3350 325 3700 
L 375 3775 
z
M 800 5100 
Q 1475 4725 1550 4512 
Q 1625 4300 1525 4187 
Q 1425 4075 1350 4075 
Q 1275 4075 1200 4300 
Q 1075 4650 750 5025 
L 800 5100 
z
" transform="scale(0.015625)"/>
      </defs>
      <use xlink:href="#SimSun-9884"/>
      <use xlink:href="#SimSun-6d4b" x="100"/>
      <use xlink:href="#SimSun-503c" x="200"/>
     </g>
    </g>
   </g>
  </g>
  <g id="axes_2">
   <g id="patch_8">
    <path d="M 61.6375 425.788125 
L 1032.554189 425.788125 
L 1032.554189 261.859375 
L 61.6375 261.859375 
z
" style="fill: #ffffff"/>
   </g>
   <g id="matplotlib.axis_3">
    <g id="xtick_8">
     <g id="line2d_17">
      <g>
       <use xlink:href="#m9a4a6c204b" x="105.770077" y="425.788125" style="stroke: #000000; stroke-width: 0.8"/>
      </g>
     </g>
     <g id="text_16">
      <!-- 0 -->
      <g transform="translate(100.770077 446.675625) scale(0.2 -0.2)">
       <use xlink:href="#TimesNewRomanPSMT-30"/>
      </g>
     </g>
    </g>
    <g id="xtick_9">
     <g id="line2d_18">
      <g>
       <use xlink:href="#m9a4a6c204b" x="259.542121" y="425.788125" style="stroke: #000000; stroke-width: 0.8"/>
      </g>
     </g>
     <g id="text_17">
      <!-- 50 -->
      <g transform="translate(249.542121 446.675625) scale(0.2 -0.2)">
       <use xlink:href="#TimesNewRomanPSMT-35"/>
       <use xlink:href="#TimesNewRomanPSMT-30" x="50"/>
      </g>
     </g>
    </g>
    <g id="xtick_10">
     <g id="line2d_19">
      <g>
       <use xlink:href="#m9a4a6c204b" x="413.314166" y="425.788125" style="stroke: #000000; stroke-width: 0.8"/>
      </g>
     </g>
     <g id="text_18">
      <!-- 100 -->
      <g transform="translate(398.314166 446.675625) scale(0.2 -0.2)">
       <use xlink:href="#TimesNewRomanPSMT-31"/>
       <use xlink:href="#TimesNewRomanPSMT-30" x="50"/>
       <use xlink:href="#TimesNewRomanPSMT-30" x="100"/>
      </g>
     </g>
    </g>
    <g id="xtick_11">
     <g id="line2d_20">
      <g>
       <use xlink:href="#m9a4a6c204b" x="567.08621" y="425.788125" style="stroke: #000000; stroke-width: 0.8"/>
      </g>
     </g>
     <g id="text_19">
      <!-- 150 -->
      <g transform="translate(552.08621 446.675625) scale(0.2 -0.2)">
       <use xlink:href="#TimesNewRomanPSMT-31"/>
       <use xlink:href="#TimesNewRomanPSMT-35" x="50"/>
       <use xlink:href="#TimesNewRomanPSMT-30" x="100"/>
      </g>
     </g>
    </g>
    <g id="xtick_12">
     <g id="line2d_21">
      <g>
       <use xlink:href="#m9a4a6c204b" x="720.858255" y="425.788125" style="stroke: #000000; stroke-width: 0.8"/>
      </g>
     </g>
     <g id="text_20">
      <!-- 200 -->
      <g transform="translate(705.858255 446.675625) scale(0.2 -0.2)">
       <use xlink:href="#TimesNewRomanPSMT-32"/>
       <use xlink:href="#TimesNewRomanPSMT-30" x="50"/>
       <use xlink:href="#TimesNewRomanPSMT-30" x="100"/>
      </g>
     </g>
    </g>
    <g id="xtick_13">
     <g id="line2d_22">
      <g>
       <use xlink:href="#m9a4a6c204b" x="874.630299" y="425.788125" style="stroke: #000000; stroke-width: 0.8"/>
      </g>
     </g>
     <g id="text_21">
      <!-- 250 -->
      <g transform="translate(859.630299 446.675625) scale(0.2 -0.2)">
       <use xlink:href="#TimesNewRomanPSMT-32"/>
       <use xlink:href="#TimesNewRomanPSMT-35" x="50"/>
       <use xlink:href="#TimesNewRomanPSMT-30" x="100"/>
      </g>
     </g>
    </g>
    <g id="xtick_14">
     <g id="line2d_23">
      <g>
       <use xlink:href="#m9a4a6c204b" x="1028.402344" y="425.788125" style="stroke: #000000; stroke-width: 0.8"/>
      </g>
     </g>
     <g id="text_22">
      <!-- 300 -->
      <g transform="translate(1013.402344 446.675625) scale(0.2 -0.2)">
       <use xlink:href="#TimesNewRomanPSMT-33"/>
       <use xlink:href="#TimesNewRomanPSMT-30" x="50"/>
       <use xlink:href="#TimesNewRomanPSMT-30" x="100"/>
      </g>
     </g>
    </g>
   </g>
   <g id="matplotlib.axis_4">
    <g id="ytick_5">
     <g id="line2d_24">
      <g>
       <use xlink:href="#me8dd2658ef" x="61.6375" y="377.914652" style="stroke: #000000; stroke-width: 0.8"/>
      </g>
     </g>
     <g id="text_23">
      <!-- 1.0 -->
      <g transform="translate(29.6375 384.858402) scale(0.2 -0.2)">
       <use xlink:href="#TimesNewRomanPSMT-31"/>
       <use xlink:href="#TimesNewRomanPSMT-2e" x="50"/>
       <use xlink:href="#TimesNewRomanPSMT-30" x="75"/>
      </g>
     </g>
    </g>
    <g id="ytick_6">
     <g id="line2d_25">
      <g>
       <use xlink:href="#me8dd2658ef" x="61.6375" y="325.921176" style="stroke: #000000; stroke-width: 0.8"/>
      </g>
     </g>
     <g id="text_24">
      <!-- 2.0 -->
      <g transform="translate(29.6375 332.864926) scale(0.2 -0.2)">
       <use xlink:href="#TimesNewRomanPSMT-32"/>
       <use xlink:href="#TimesNewRomanPSMT-2e" x="50"/>
       <use xlink:href="#TimesNewRomanPSMT-30" x="75"/>
      </g>
     </g>
    </g>
    <g id="ytick_7">
     <g id="line2d_26">
      <g>
       <use xlink:href="#me8dd2658ef" x="61.6375" y="273.9277" style="stroke: #000000; stroke-width: 0.8"/>
      </g>
     </g>
     <g id="text_25">
      <!-- 3.0 -->
      <g transform="translate(29.6375 280.87145) scale(0.2 -0.2)">
       <use xlink:href="#TimesNewRomanPSMT-33"/>
       <use xlink:href="#TimesNewRomanPSMT-2e" x="50"/>
       <use xlink:href="#TimesNewRomanPSMT-30" x="75"/>
      </g>
     </g>
    </g>
    <g id="text_26">
     <!-- CPU使用率 -->
     <g transform="translate(23.059375 388.82375) rotate(-90) scale(0.2 -0.2)">
      <use xlink:href="#SimSun-43"/>
      <use xlink:href="#SimSun-50" x="50"/>
      <use xlink:href="#SimSun-55" x="100"/>
      <use xlink:href="#SimSun-4f7f" x="150"/>
      <use xlink:href="#SimSun-7528" x="250"/>
      <use xlink:href="#SimSun-7387" x="350"/>
     </g>
    </g>
   </g>
   <g id="line2d_27">
    <path d="M 105.770077 293.893198 
L 108.845518 304.624647 
L 111.920959 309.740811 
L 114.996399 315.730462 
L 118.07184 321.345747 
L 121.147281 319.973127 
L 124.222722 343.058224 
L 127.298163 331.203716 
L 130.373604 339.564266 
L 133.449045 346.05305 
L 136.524486 354.663172 
L 139.599927 356.410152 
L 142.675367 346.926542 
L 145.750808 359.77933 
L 148.826249 366.517681 
L 151.90169 370.885133 
L 154.977131 377.623483 
L 158.052572 383.238784 
L 161.128013 379.620039 
L 164.203454 381.616588 
L 170.354335 387.356669 
L 173.429776 389.977141 
L 176.505217 391.224981 
L 179.580658 396.216358 
L 182.656099 400.459023 
L 185.73154 402.829923 
L 188.806981 403.703415 
L 191.882422 404.82648 
L 198.033303 402.580362 
L 201.108744 408.195652 
L 207.259626 409.193931 
L 210.335067 409.568278 
L 213.410508 409.693064 
L 216.485949 403.079496 
L 219.56139 405.69996 
L 222.636831 406.323892 
L 225.712272 405.450399 
L 228.787712 404.701693 
L 231.863153 403.329068 
L 234.938594 398.088124 
L 238.014035 398.83683 
L 241.089476 395.966792 
L 244.164917 390.975414 
L 247.240358 389.478001 
L 250.315799 385.73447 
L 253.39124 367.515954 
L 256.46668 377.498703 
L 259.542121 373.630391 
L 262.617562 367.391174 
L 265.693003 363.398076 
L 268.768444 358.656271 
L 271.843885 342.808658 
L 274.919326 341.560812 
L 277.994767 337.19336 
L 281.070208 338.815559 
L 284.145648 337.318147 
L 287.221089 332.576342 
L 290.29653 322.967952 
L 293.371971 320.971394 
L 296.447412 324.465365 
L 299.522853 322.718379 
L 302.598294 322.219246 
L 305.673735 319.473981 
L 308.749176 308.118606 
L 311.824616 309.491238 
L 314.900057 317.602215 
L 317.975498 317.227862 
L 321.050939 317.227862 
L 324.12638 313.733903 
L 327.201821 308.243399 
L 330.277262 312.361283 
L 333.352703 317.352655 
L 336.428144 314.607402 
L 339.503584 311.113431 
L 342.579025 313.609123 
L 345.654466 326.087558 
L 348.729907 300.132409 
L 351.805348 313.983476 
L 354.880789 313.609123 
L 357.95623 315.356109 
L 361.031671 318.226141 
L 364.107112 314.48261 
L 367.182552 318.350922 
L 370.257993 319.723554 
L 373.333434 316.479156 
L 376.408875 317.976568 
L 379.484316 320.846614 
L 382.559757 314.981756 
L 385.635198 314.856963 
L 388.710639 318.101361 
L 391.78608 319.973127 
L 394.86152 322.094453 
L 397.936961 320.47226 
L 401.012402 317.851788 
L 404.087843 318.974848 
L 407.163284 320.222687 
L 410.238725 316.728729 
L 413.314166 314.732183 
L 416.389607 308.617752 
L 419.465048 312.361283 
L 422.540488 313.733903 
L 425.615929 315.605669 
L 428.69137 312.236491 
L 431.766811 313.858696 
L 434.842252 309.491238 
L 437.917693 303.751161 
L 440.993134 301.879395 
L 444.068575 298.385436 
L 447.144016 289.52574 
L 450.219457 291.522286 
L 453.294897 293.893198 
L 456.370338 292.770139 
L 459.445779 291.771859 
L 462.52122 295.764964 
L 465.596661 293.144492 
L 468.672102 295.764964 
L 471.747543 295.515391 
L 474.822984 292.894919 
L 477.898425 294.891465 
L 480.973865 296.014524 
L 484.049306 293.518845 
L 487.124747 295.889744 
L 490.200188 295.390611 
L 493.275629 288.777034 
L 496.35107 293.019699 
L 499.426511 295.640171 
L 502.501952 296.264097 
L 505.577393 296.388878 
L 508.652833 294.392331 
L 511.728274 290.898373 
L 514.803715 288.402681 
L 517.879156 289.276167 
L 520.954597 290.024874 
L 524.030038 290.024874 
L 527.105479 288.901814 
L 530.18092 275.549893 
L 533.256361 290.898373 
L 536.331801 293.144492 
L 539.407242 293.518845 
L 542.482683 300.007629 
L 545.558124 301.754615 
L 548.633565 302.877662 
L 551.709006 309.740811 
L 554.784447 315.855242 
L 557.859888 319.723554 
L 560.935329 326.836264 
L 564.010769 331.078929 
L 567.08621 354.288819 
L 570.161651 341.685598 
L 573.237092 349.297442 
L 576.312533 355.536659 
L 579.387974 360.52803 
L 582.463415 366.892034 
L 585.538856 371.633839 
L 588.614297 376.62521 
L 591.689737 382.490078 
L 594.765178 384.112277 
L 597.840619 388.854081 
L 600.91606 391.599334 
L 603.991501 390.226708 
L 607.066942 391.848907 
L 613.217824 395.592432 
L 616.293265 397.963338 
L 619.368705 398.712044 
L 622.444146 402.954709 
L 625.519587 405.69996 
L 628.595028 407.197373 
L 631.670469 407.446945 
L 634.74591 408.570011 
L 637.821351 408.944358 
L 640.896792 406.448666 
L 643.972233 411.190477 
L 647.047673 411.315264 
L 650.123114 410.940904 
L 653.198555 411.315264 
L 656.273996 411.190477 
L 659.349437 409.318705 
L 662.424878 409.193931 
L 665.500319 408.070865 
L 668.57576 405.949533 
L 671.651201 404.077773 
L 674.726642 401.332516 
L 677.802082 392.597613 
L 680.877523 390.975414 
L 683.952964 386.35839 
L 687.028405 376.999564 
L 690.103846 372.881685 
L 693.179287 367.016821 
L 696.254728 343.806931 
L 699.330169 350.420501 
L 702.40561 344.680423 
L 705.48105 338.441206 
L 708.556491 334.947241 
L 711.631932 327.584964 
L 714.707373 312.860417 
L 717.782814 313.983476 
L 720.858255 310.739078 
L 723.933696 311.737357 
L 727.009137 314.981756 
L 733.160018 306.371633 
L 736.235459 306.496413 
L 739.3109 303.626368 
L 742.386341 307.245119 
L 745.461782 313.10999 
L 748.537223 309.116885 
L 751.612664 296.388878 
L 754.688105 301.879395 
L 757.763546 309.740811 
L 760.838986 309.990372 
L 763.914427 306.745986 
L 766.989868 312.486064 
L 770.065309 307.245119 
L 773.14075 309.491238 
L 776.216191 309.241665 
L 779.291632 313.35955 
L 782.367073 312.236491 
L 785.442514 310.988651 
L 788.517954 320.34748 
L 791.593395 295.764964 
L 794.668836 301.380261 
L 797.744277 306.371633 
L 800.819718 309.491238 
L 803.895159 310.739078 
L 806.9706 305.747707 
L 810.046041 314.48261 
L 813.121482 315.980022 
L 816.196922 314.108257 
L 819.272363 317.352655 
L 822.347804 316.354376 
L 825.423245 302.378528 
L 828.498686 313.35955 
L 831.574127 306.12206 
L 834.649568 305.872487 
L 837.725009 315.480889 
L 840.80045 313.983476 
L 843.87589 306.496413 
L 846.951331 312.985197 
L 850.026772 315.480889 
L 853.102213 312.860417 
L 856.177654 313.983476 
L 859.253095 313.733903 
L 862.328536 310.614298 
L 865.403977 310.364725 
L 868.479418 309.116885 
L 871.554858 304.000721 
L 874.630299 310.239945 
L 877.70574 300.756335 
L 880.781181 298.884569 
L 883.856622 295.764964 
L 886.932063 297.012804 
L 890.007504 289.276167 
L 893.082945 288.402681 
L 896.158386 289.775313 
L 899.233827 282.16347 
L 902.309267 278.419938 
L 905.384708 276.922525 
L 908.460149 274.05248 
L 911.53559 273.80292 
L 914.611031 272.804641 
L 917.686472 279.293425 
L 920.761913 282.537823 
L 923.837354 280.042131 
L 926.912795 284.659149 
L 929.988235 290.024874 
L 933.063676 288.777034 
L 936.139117 281.789117 
L 939.214558 287.529194 
L 942.289999 286.905268 
L 945.36544 287.030061 
L 948.440881 291.147933 
L 951.516322 287.529194 
L 954.591763 276.298599 
L 957.667203 283.286529 
L 960.742644 283.910443 
L 963.818085 281.289971 
L 966.893526 284.284796 
L 969.968967 280.416484 
L 973.044408 269.310682 
L 976.119849 283.286529 
L 979.19529 287.404414 
L 982.270731 286.406135 
L 985.346171 292.894919 
L 988.421612 296.51367 
L 988.421612 296.51367 
" clip-path="url(#p821c59bce0)" style="fill: none; stroke: #1f77b4; stroke-width: 1.5; stroke-linecap: square"/>
   </g>
   <g id="line2d_28">
    <path d="M 548.633565 333.058338 
L 551.709006 340.943418 
L 554.784447 320.85177 
L 557.859888 339.385872 
L 560.935329 343.124625 
L 564.010769 341.852154 
L 567.08621 349.172965 
L 570.161651 345.375739 
L 573.237092 346.406844 
L 576.312533 347.897854 
L 579.387974 364.001306 
L 582.463415 366.522826 
L 585.538856 364.562625 
L 588.614297 361.372677 
L 591.689737 375.545432 
L 594.765178 386.60596 
L 597.840619 384.494557 
L 600.91606 391.556183 
L 603.991501 392.531715 
L 607.066942 395.68841 
L 610.142383 399.762015 
L 613.217824 400.940777 
L 616.293265 397.642214 
L 619.368705 403.271067 
L 622.444146 402.731521 
L 625.519587 407.742651 
L 628.595028 405.988891 
L 631.670469 403.041154 
L 634.74591 412.430067 
L 637.821351 406.773211 
L 640.896792 409.23963 
L 643.972233 405.107198 
L 647.047673 411.13387 
L 650.123114 404.943487 
L 653.198555 410.661611 
L 656.273996 406.759786 
L 659.349437 415.48957 
L 662.424878 418.336818 
L 665.500319 411.244556 
L 668.57576 405.137984 
L 671.651201 409.61839 
L 674.726642 410.242539 
L 677.802082 407.566588 
L 680.877523 403.883966 
L 683.952964 405.531557 
L 687.028405 406.06263 
L 690.103846 404.186711 
L 693.179287 394.368994 
L 696.254728 399.591406 
L 699.330169 391.419471 
L 702.40561 390.741857 
L 705.48105 384.683469 
L 708.556491 382.603757 
L 711.631932 381.509773 
L 714.707373 373.909095 
L 717.782814 366.848678 
L 720.858255 367.991913 
L 723.933696 358.18969 
L 727.009137 361.738173 
L 730.084578 355.881094 
L 733.160018 350.911831 
L 736.235459 352.340017 
L 742.386341 345.742295 
L 745.461782 347.890304 
L 748.537223 348.45833 
L 751.612664 341.412987 
L 754.688105 336.277317 
L 757.763546 339.937379 
L 760.838986 339.317067 
L 763.914427 339.021826 
L 766.989868 338.286179 
L 770.065309 336.481154 
L 773.14075 332.721229 
L 776.216191 335.173267 
L 779.291632 333.65607 
L 782.367073 337.106128 
L 785.442514 334.63795 
L 788.517954 340.446126 
L 791.593395 335.516326 
L 794.668836 337.169163 
L 797.744277 341.297343 
L 800.819718 335.662372 
L 803.895159 333.969732 
L 806.9706 334.064922 
L 810.046041 336.789299 
L 813.121482 334.743057 
L 816.196922 336.845064 
L 819.272363 332.687338 
L 822.347804 334.917788 
L 825.423245 338.157153 
L 828.498686 336.312343 
L 831.574127 343.075374 
L 834.649568 339.120227 
L 837.725009 333.268249 
L 840.80045 334.99118 
L 843.87589 337.097345 
L 846.951331 333.470146 
L 850.026772 331.853754 
L 853.102213 333.677411 
L 856.177654 332.656638 
L 859.253095 337.974563 
L 862.328536 331.281576 
L 865.403977 327.295178 
L 868.479418 329.327729 
L 871.554858 329.754283 
L 874.630299 324.519437 
L 877.70574 325.109522 
L 880.781181 321.154226 
L 883.856622 334.310101 
L 886.932063 328.30154 
L 890.007504 322.679344 
L 893.082945 324.354431 
L 896.158386 323.371982 
L 899.233827 323.783338 
L 902.309267 321.436549 
L 905.384708 323.591878 
L 908.460149 323.045032 
L 911.53559 324.737065 
L 914.611031 314.391758 
L 917.686472 321.865545 
L 920.761913 320.227844 
L 923.837354 319.648061 
L 926.912795 317.946966 
L 929.988235 320.663249 
L 933.063676 320.933685 
L 936.139117 319.471613 
L 939.214558 314.397745 
L 942.289999 322.069066 
L 945.36544 317.408177 
L 948.440881 323.938464 
L 951.516322 322.345452 
L 954.591763 321.694056 
L 957.667203 314.914605 
L 960.742644 326.66542 
L 966.893526 319.625264 
L 969.968967 323.323922 
L 973.044408 321.822741 
L 976.119849 320.88767 
L 979.19529 325.152363 
L 982.270731 324.325895 
L 985.346171 327.529386 
L 988.421612 326.17999 
L 988.421612 326.17999 
" clip-path="url(#p821c59bce0)" style="fill: none; stroke: #ff7f0e; stroke-width: 1.5; stroke-linecap: square"/>
   </g>
   <g id="line2d_29">
    <path d="M 548.633565 425.788125 
L 548.633565 261.859375 
" clip-path="url(#p821c59bce0)" style="fill: none; stroke-dasharray: 7.4,3.2; stroke-dashoffset: 0; stroke: #0000ff; stroke-width: 2"/>
   </g>
   <g id="patch_9">
    <path d="M 61.6375 425.788125 
L 61.6375 261.859375 
" style="fill: none; stroke: #000000; stroke-width: 0.8; stroke-linejoin: miter; stroke-linecap: square"/>
   </g>
   <g id="patch_10">
    <path d="M 1032.554189 425.788125 
L 1032.554189 261.859375 
" style="fill: none; stroke: #000000; stroke-width: 0.8; stroke-linejoin: miter; stroke-linecap: square"/>
   </g>
   <g id="patch_11">
    <path d="M 61.6375 425.788125 
L 1032.554189 425.788125 
" style="fill: none; stroke: #000000; stroke-width: 0.8; stroke-linejoin: miter; stroke-linecap: square"/>
   </g>
   <g id="patch_12">
    <path d="M 61.6375 261.859375 
L 1032.554189 261.859375 
" style="fill: none; stroke: #000000; stroke-width: 0.8; stroke-linejoin: miter; stroke-linecap: square"/>
   </g>
   <g id="text_27">
    <!-- 云函数ID: 150 -->
    <g transform="translate(482.095845 255.859375) scale(0.2 -0.2)">
     <defs>
      <path id="SimSun-31" d="M 1825 4450 
L 1825 650 
Q 1825 450 1950 350 
Q 2075 250 2300 250 
L 2550 250 
L 2550 100 
L 725 100 
L 725 250 
L 950 250 
Q 1200 250 1312 350 
Q 1425 450 1425 650 
L 1425 3675 
Q 1425 3775 1362 3837 
Q 1300 3900 1175 3900 
L 725 3900 
L 725 4050 
L 950 4050 
Q 1250 4050 1437 4150 
Q 1625 4250 1725 4450 
L 1825 4450 
z
" transform="scale(0.015625)"/>
      <path id="SimSun-35" d="M 1725 2850 
Q 2200 2850 2500 2487 
Q 2800 2125 2800 1525 
Q 2800 850 2487 450 
Q 2175 50 1525 50 
Q 1075 50 725 312 
Q 375 575 375 950 
Q 375 1100 462 1212 
Q 550 1325 700 1325 
Q 850 1325 900 1225 
Q 950 1125 950 1050 
Q 950 900 875 825 
Q 800 725 800 625 
Q 800 425 1037 325 
Q 1275 225 1550 225 
Q 1950 225 2162 550 
Q 2375 875 2375 1475 
Q 2375 1975 2187 2287 
Q 2000 2600 1625 2600 
Q 1350 2600 1150 2500 
Q 950 2400 775 2075 
L 550 2100 
L 675 4375 
L 2725 4375 
L 2650 4000 
L 850 4000 
L 750 2350 
Q 1000 2700 1237 2775 
Q 1475 2850 1725 2850 
z
" transform="scale(0.015625)"/>
      <path id="SimSun-30" d="M 1600 4225 
Q 1250 4225 1012 3687 
Q 775 3150 775 2250 
Q 775 1300 1012 775 
Q 1250 250 1600 250 
Q 1975 250 2187 775 
Q 2400 1300 2400 2250 
Q 2400 3150 2200 3687 
Q 2000 4225 1600 4225 
z
M 1600 50 
Q 1050 50 675 625 
Q 300 1200 300 2250 
Q 300 3225 662 3825 
Q 1025 4425 1600 4425 
Q 2150 4425 2512 3850 
Q 2875 3275 2875 2250 
Q 2875 1225 2512 637 
Q 2150 50 1600 50 
z
" transform="scale(0.015625)"/>
     </defs>
     <use xlink:href="#SimSun-4e91"/>
     <use xlink:href="#SimSun-51fd" x="100"/>
     <use xlink:href="#SimSun-6570" x="200"/>
     <use xlink:href="#SimSun-49" x="300"/>
     <use xlink:href="#SimSun-44" x="350"/>
     <use xlink:href="#SimSun-3a" x="400"/>
     <use xlink:href="#SimSun-20" x="450"/>
     <use xlink:href="#SimSun-31" x="500"/>
     <use xlink:href="#SimSun-35" x="550"/>
     <use xlink:href="#SimSun-30" x="600"/>
    </g>
   </g>
  </g>
  <g id="axes_3">
   <g id="patch_13">
    <path d="M 61.6375 658.588125 
L 1032.554189 658.588125 
L 1032.554189 494.659375 
L 61.6375 494.659375 
z
" style="fill: #ffffff"/>
   </g>
   <g id="matplotlib.axis_5">
    <g id="xtick_15">
     <g id="line2d_30">
      <g>
       <use xlink:href="#m9a4a6c204b" x="105.770077" y="658.588125" style="stroke: #000000; stroke-width: 0.8"/>
      </g>
     </g>
     <g id="text_28">
      <!-- 0 -->
      <g transform="translate(100.770077 679.475625) scale(0.2 -0.2)">
       <use xlink:href="#TimesNewRomanPSMT-30"/>
      </g>
     </g>
    </g>
    <g id="xtick_16">
     <g id="line2d_31">
      <g>
       <use xlink:href="#m9a4a6c204b" x="259.542121" y="658.588125" style="stroke: #000000; stroke-width: 0.8"/>
      </g>
     </g>
     <g id="text_29">
      <!-- 50 -->
      <g transform="translate(249.542121 679.475625) scale(0.2 -0.2)">
       <use xlink:href="#TimesNewRomanPSMT-35"/>
       <use xlink:href="#TimesNewRomanPSMT-30" x="50"/>
      </g>
     </g>
    </g>
    <g id="xtick_17">
     <g id="line2d_32">
      <g>
       <use xlink:href="#m9a4a6c204b" x="413.314166" y="658.588125" style="stroke: #000000; stroke-width: 0.8"/>
      </g>
     </g>
     <g id="text_30">
      <!-- 100 -->
      <g transform="translate(398.314166 679.475625) scale(0.2 -0.2)">
       <use xlink:href="#TimesNewRomanPSMT-31"/>
       <use xlink:href="#TimesNewRomanPSMT-30" x="50"/>
       <use xlink:href="#TimesNewRomanPSMT-30" x="100"/>
      </g>
     </g>
    </g>
    <g id="xtick_18">
     <g id="line2d_33">
      <g>
       <use xlink:href="#m9a4a6c204b" x="567.08621" y="658.588125" style="stroke: #000000; stroke-width: 0.8"/>
      </g>
     </g>
     <g id="text_31">
      <!-- 150 -->
      <g transform="translate(552.08621 679.475625) scale(0.2 -0.2)">
       <use xlink:href="#TimesNewRomanPSMT-31"/>
       <use xlink:href="#TimesNewRomanPSMT-35" x="50"/>
       <use xlink:href="#TimesNewRomanPSMT-30" x="100"/>
      </g>
     </g>
    </g>
    <g id="xtick_19">
     <g id="line2d_34">
      <g>
       <use xlink:href="#m9a4a6c204b" x="720.858255" y="658.588125" style="stroke: #000000; stroke-width: 0.8"/>
      </g>
     </g>
     <g id="text_32">
      <!-- 200 -->
      <g transform="translate(705.858255 679.475625) scale(0.2 -0.2)">
       <use xlink:href="#TimesNewRomanPSMT-32"/>
       <use xlink:href="#TimesNewRomanPSMT-30" x="50"/>
       <use xlink:href="#TimesNewRomanPSMT-30" x="100"/>
      </g>
     </g>
    </g>
    <g id="xtick_20">
     <g id="line2d_35">
      <g>
       <use xlink:href="#m9a4a6c204b" x="874.630299" y="658.588125" style="stroke: #000000; stroke-width: 0.8"/>
      </g>
     </g>
     <g id="text_33">
      <!-- 250 -->
      <g transform="translate(859.630299 679.475625) scale(0.2 -0.2)">
       <use xlink:href="#TimesNewRomanPSMT-32"/>
       <use xlink:href="#TimesNewRomanPSMT-35" x="50"/>
       <use xlink:href="#TimesNewRomanPSMT-30" x="100"/>
      </g>
     </g>
    </g>
    <g id="xtick_21">
     <g id="line2d_36">
      <g>
       <use xlink:href="#m9a4a6c204b" x="1028.402344" y="658.588125" style="stroke: #000000; stroke-width: 0.8"/>
      </g>
     </g>
     <g id="text_34">
      <!-- 300 -->
      <g transform="translate(1013.402344 679.475625) scale(0.2 -0.2)">
       <use xlink:href="#TimesNewRomanPSMT-33"/>
       <use xlink:href="#TimesNewRomanPSMT-30" x="50"/>
       <use xlink:href="#TimesNewRomanPSMT-30" x="100"/>
      </g>
     </g>
    </g>
   </g>
   <g id="matplotlib.axis_6">
    <g id="ytick_8">
     <g id="line2d_37">
      <g>
       <use xlink:href="#me8dd2658ef" x="61.6375" y="611.021381" style="stroke: #000000; stroke-width: 0.8"/>
      </g>
     </g>
     <g id="text_35">
      <!-- 0.5 -->
      <g transform="translate(29.6375 617.965131) scale(0.2 -0.2)">
       <use xlink:href="#TimesNewRomanPSMT-30"/>
       <use xlink:href="#TimesNewRomanPSMT-2e" x="50"/>
       <use xlink:href="#TimesNewRomanPSMT-35" x="75"/>
      </g>
     </g>
    </g>
    <g id="ytick_9">
     <g id="line2d_38">
      <g>
       <use xlink:href="#me8dd2658ef" x="61.6375" y="535.072498" style="stroke: #000000; stroke-width: 0.8"/>
      </g>
     </g>
     <g id="text_36">
      <!-- 1.0 -->
      <g transform="translate(29.6375 542.016248) scale(0.2 -0.2)">
       <use xlink:href="#TimesNewRomanPSMT-31"/>
       <use xlink:href="#TimesNewRomanPSMT-2e" x="50"/>
       <use xlink:href="#TimesNewRomanPSMT-30" x="75"/>
      </g>
     </g>
    </g>
    <g id="text_37">
     <!-- CPU使用率 -->
     <g transform="translate(23.059375 621.62375) rotate(-90) scale(0.2 -0.2)">
      <use xlink:href="#SimSun-43"/>
      <use xlink:href="#SimSun-50" x="50"/>
      <use xlink:href="#SimSun-55" x="100"/>
      <use xlink:href="#SimSun-4f7f" x="150"/>
      <use xlink:href="#SimSun-7528" x="250"/>
      <use xlink:href="#SimSun-7387" x="350"/>
     </g>
    </g>
   </g>
   <g id="line2d_39">
    <path d="M 105.770077 549.806582 
L 108.845518 559.376145 
L 111.920959 564.312826 
L 114.996399 570.464675 
L 118.07184 577.300086 
L 121.147281 579.350702 
L 124.222722 602.515098 
L 127.298163 583.603839 
L 130.373604 588.464577 
L 133.449045 595.603762 
L 136.524486 597.046794 
L 139.599927 601.451836 
L 142.675367 595.375913 
L 145.750808 605.932822 
L 148.826249 609.958092 
L 151.90169 610.641637 
L 154.977131 616.109954 
L 158.052572 617.477043 
L 161.128013 614.439091 
L 164.203454 619.983356 
L 167.278895 621.426389 
L 170.354335 623.85674 
L 173.429776 625.45166 
L 176.505217 625.983299 
L 179.580658 624.464341 
L 182.656099 631.603526 
L 185.73154 633.198464 
L 188.806981 634.413648 
L 191.882422 635.780719 
L 194.957863 633.806029 
L 198.033303 630.160493 
L 201.108744 637.375639 
L 204.184185 636.540208 
L 210.335067 638.590824 
L 213.410508 638.590824 
L 216.485949 628.793422 
L 219.56139 631.527582 
L 222.636831 631.679487 
L 225.712272 627.806085 
L 228.787712 628.413687 
L 231.863153 624.464341 
L 234.938594 619.983356 
L 238.014035 623.932683 
L 241.089476 620.211204 
L 244.164917 614.894769 
L 247.240358 613.451737 
L 250.315799 611.477082 
L 253.39124 593.325297 
L 256.46668 600.236634 
L 259.542121 598.186018 
L 262.617562 588.692407 
L 265.693003 522.313087 
L 268.768444 534.237067 
L 271.843885 520.718149 
L 274.919326 521.249807 
L 277.994767 521.933352 
L 281.070208 516.009334 
L 284.145648 518.135893 
L 287.221089 515.325789 
L 290.29653 503.629658 
L 293.371971 506.819515 
L 296.447412 516.161221 
L 299.522853 510.616956 
L 302.598294 512.66759 
L 305.673735 516.389069 
L 308.749176 505.908122 
L 311.824616 508.186587 
L 314.900057 521.705504 
L 317.975498 524.439647 
L 321.050939 524.51559 
L 324.12638 517.756158 
L 327.201821 518.971325 
L 330.277262 524.135855 
L 333.352703 527.401674 
L 336.428144 523.680177 
L 339.503584 528.009257 
L 342.579025 527.401674 
L 345.654466 550.110383 
L 348.729907 517.604254 
L 351.805348 530.059873 
L 354.880789 531.199114 
L 357.95623 532.794034 
L 361.031671 537.123123 
L 364.107112 530.135816 
L 367.182552 542.135739 
L 370.257993 543.730677 
L 373.333434 540.00918 
L 376.408875 545.933198 
L 379.484316 548.515454 
L 382.559757 538.642109 
L 385.635198 545.70535 
L 388.710639 547.300269 
L 391.78608 549.047103 
L 394.86152 550.414174 
L 397.936961 546.388885 
L 401.012402 546.464838 
L 404.087843 543.350933 
L 407.163284 548.211662 
L 410.238725 543.27499 
L 413.314166 539.553492 
L 416.389607 534.085162 
L 419.465048 539.173739 
L 422.540488 534.540858 
L 425.615929 539.173739 
L 428.69137 534.920611 
L 431.766811 532.186432 
L 434.842252 534.616802 
L 437.917693 530.287721 
L 440.993134 529.528233 
L 444.068575 523.22448 
L 447.144016 517.832102 
L 450.219457 513.730852 
L 453.294897 519.275135 
L 456.370338 510.844804 
L 459.445779 513.199212 
L 462.52122 513.42706 
L 465.596661 513.882756 
L 468.672102 520.718149 
L 471.747543 517.376405 
L 474.822984 519.199173 
L 477.898425 517.832102 
L 480.973865 518.895382 
L 484.049306 516.009334 
L 487.124747 517.224501 
L 490.200188 519.958679 
L 493.275629 507.50306 
L 496.35107 513.351117 
L 499.426511 520.718149 
L 502.501952 520.642206 
L 505.577393 525.275096 
L 508.652833 520.794111 
L 511.728274 518.05995 
L 514.803715 519.502983 
L 517.879156 519.578926 
L 520.954597 528.464935 
L 524.030038 527.629504 
L 527.105479 532.414281 
L 530.18092 527.857352 
L 533.256361 537.882611 
L 536.331801 538.793995 
L 539.407242 538.186403 
L 542.482683 551.933159 
L 545.558124 554.515424 
L 548.633565 558.616657 
L 551.709006 560.059689 
L 554.784447 568.262172 
L 557.859888 572.970987 
L 560.935329 579.806398 
L 564.010769 583.755725 
L 567.08621 600.16069 
L 570.161651 585.654455 
L 573.237092 590.439232 
L 576.312533 599.932842 
L 579.387974 602.818908 
L 582.463415 606.16067 
L 585.538856 604.641675 
L 588.614297 608.894812 
L 591.689737 616.261859 
L 594.765178 615.426427 
L 597.840619 617.401082 
L 600.91606 617.477043 
L 603.991501 616.56565 
L 607.066942 624.616228 
L 610.142383 626.438996 
L 613.217824 626.742806 
L 616.293265 629.704797 
L 619.368705 629.097213 
L 622.444146 626.742806 
L 625.519587 634.641496 
L 628.595028 634.94527 
L 631.670469 633.578199 
L 634.74591 635.021231 
L 637.821351 637.755374 
L 640.896792 631.299734 
L 643.972233 635.325023 
L 647.047673 636.160454 
L 650.123114 637.907297 
L 653.198555 638.287032 
L 656.273996 634.94527 
L 659.349437 633.198464 
L 662.424878 632.438957 
L 665.500319 631.147829 
L 668.57576 629.097213 
L 671.651201 628.793422 
L 674.726642 622.945347 
L 677.802082 616.034011 
L 680.877523 620.818769 
L 683.952964 613.679585 
L 687.028405 607.755589 
L 690.103846 607.907476 
L 693.179287 600.844253 
L 696.254728 587.856994 
L 699.330169 590.363288 
L 702.40561 591.046833 
L 705.48105 582.160806 
L 708.556491 506.211914 
L 711.631932 527.781409 
L 714.707373 520.794111 
L 717.782814 528.237087 
L 720.858255 524.51559 
L 723.933696 522.161182 
L 727.009137 524.28776 
L 730.084578 520.718149 
L 733.160018 513.503003 
L 736.235459 518.05995 
L 739.3109 509.401771 
L 742.386341 515.857429 
L 745.461782 519.275135 
L 748.537223 515.705524 
L 751.612664 502.110682 
L 754.688105 509.325828 
L 757.763546 518.05995 
L 760.838986 519.958679 
L 763.914427 513.275155 
L 766.989868 519.275135 
L 773.14075 518.05995 
L 776.216191 521.401694 
L 779.291632 523.832063 
L 782.367073 523.983968 
L 785.442514 520.718149 
L 788.517954 551.629368 
L 791.593395 512.36378 
L 794.668836 522.161182 
L 797.744277 523.983968 
L 800.819718 534.996555 
L 803.895159 539.933227 
L 806.9706 526.414319 
L 810.046041 537.730707 
L 813.121482 542.363588 
L 816.196922 539.553492 
L 819.272363 542.819293 
L 822.347804 549.654695 
L 825.423245 533.553522 
L 828.498686 535.756034 
L 831.574127 544.33826 
L 834.649568 539.705379 
L 837.725009 549.730638 
L 840.80045 546.844582 
L 843.87589 542.895236 
L 846.951331 541.072469 
L 850.026772 542.287644 
L 853.102213 538.11046 
L 856.177654 541.528165 
L 859.253095 543.730677 
L 862.328536 536.439588 
L 865.403977 535.983882 
L 868.479418 534.540858 
L 871.554858 530.135816 
L 874.630299 536.591474 
L 877.70574 528.61684 
L 880.781181 526.338376 
L 883.856622 525.427001 
L 886.932063 523.482695 
L 890.007504 518.546013 
L 893.082945 523.649774 
L 896.158386 526.262414 
L 899.233827 513.685293 
L 902.309267 511.011883 
L 905.384708 514.475166 
L 908.460149 503.477771 
L 911.53559 512.956189 
L 914.611031 506.333434 
L 917.686472 512.166317 
L 920.761913 512.834669 
L 923.837354 515.021998 
L 926.912795 512.470108 
L 929.988235 517.148557 
L 933.063676 514.900477 
L 936.139117 506.880266 
L 939.214558 515.933373 
L 942.289999 513.138461 
L 945.36544 520.672591 
L 948.440881 520.976382 
L 951.516322 519.639677 
L 954.591763 513.989084 
L 957.667203 517.756158 
L 960.742644 522.616879 
L 963.818085 524.925728 
L 966.893526 531.913025 
L 969.968967 528.388992 
L 973.044408 534.525666 
L 976.119849 535.011729 
L 979.19529 544.064844 
L 982.270731 543.821813 
L 985.346171 549.715446 
L 988.421612 553.847072 
L 988.421612 553.847072 
" clip-path="url(#pa28cbf272e)" style="fill: none; stroke: #1f77b4; stroke-width: 1.5; stroke-linecap: square"/>
   </g>
   <g id="line2d_40">
    <path d="M 548.633565 572.857489 
L 551.709006 581.249069 
L 554.784447 523.19319 
L 557.859888 577.431438 
L 560.935329 580.573021 
L 564.010769 577.926229 
L 567.08621 581.338702 
L 570.161651 588.881994 
L 573.237092 584.077136 
L 576.312533 593.365152 
L 579.387974 599.911747 
L 582.463415 609.822828 
L 585.538856 603.805067 
L 591.689737 617.54817 
L 594.765178 621.53364 
L 597.840619 621.162995 
L 600.91606 618.05321 
L 603.991501 625.116705 
L 607.066942 631.382884 
L 610.142383 630.197795 
L 613.217824 628.193045 
L 616.293265 627.778779 
L 619.368705 638.202469 
L 622.444146 629.643611 
L 625.519587 641.506694 
L 628.595028 633.610919 
L 631.670469 629.458786 
L 634.74591 638.599823 
L 637.821351 635.657805 
L 640.896792 633.428648 
L 643.972233 627.178584 
L 647.047673 642.375915 
L 650.123114 630.318717 
L 653.198555 638.287412 
L 656.273996 635.306064 
L 659.349437 643.750736 
L 662.424878 651.136818 
L 665.500319 636.090306 
L 668.57576 628.757931 
L 671.651201 635.297463 
L 674.726642 633.190062 
L 677.802082 635.353361 
L 680.877523 625.782576 
L 683.952964 629.982785 
L 687.028405 630.935898 
L 690.103846 628.129107 
L 693.179287 615.259982 
L 696.254728 616.692657 
L 699.330169 607.940034 
L 702.40561 613.226713 
L 705.48105 610.225976 
L 708.556491 596.031246 
L 711.631932 602.810216 
L 714.707373 591.459723 
L 717.782814 580.936151 
L 720.858255 584.246895 
L 723.933696 567.861866 
L 727.009137 578.893231 
L 730.084578 557.680112 
L 733.160018 568.68781 
L 736.235459 567.113116 
L 739.3109 558.65691 
L 742.386341 535.834132 
L 745.461782 552.278155 
L 748.537223 556.614261 
L 751.612664 529.504621 
L 754.688105 529.405554 
L 757.763546 533.039211 
L 760.838986 528.446647 
L 763.914427 531.359765 
L 766.989868 547.336946 
L 770.065309 533.966068 
L 773.14075 522.038557 
L 776.216191 534.518658 
L 779.291632 524.503494 
L 782.367073 531.698378 
L 785.442514 530.727193 
L 788.517954 554.051996 
L 791.593395 528.711652 
L 794.668836 543.849843 
L 797.744277 559.993144 
L 800.819718 536.887625 
L 806.9706 531.27953 
L 810.046041 533.889111 
L 813.121482 541.545739 
L 816.196922 533.720927 
L 819.272363 528.590294 
L 822.347804 528.936259 
L 825.423245 540.969835 
L 828.498686 558.017475 
L 831.574127 572.702451 
L 834.649568 557.522087 
L 837.725009 537.687701 
L 840.80045 545.650031 
L 843.87589 554.872289 
L 846.951331 536.835131 
L 850.026772 536.75581 
L 853.102213 529.88747 
L 856.177654 539.115297 
L 859.253095 552.077975 
L 862.328536 528.230568 
L 865.403977 526.206788 
L 868.479418 546.537965 
L 871.554858 545.708899 
L 874.630299 522.604077 
L 877.70574 525.639059 
L 880.781181 523.653088 
L 883.856622 553.376455 
L 886.932063 541.460135 
L 890.007504 507.674702 
L 893.082945 524.552511 
L 896.158386 517.19857 
L 899.233827 530.624378 
L 902.309267 531.185063 
L 905.384708 523.056079 
L 908.460149 525.57418 
L 911.53559 530.264362 
L 914.611031 520.582614 
L 917.686472 521.869197 
L 920.761913 517.940005 
L 923.837354 505.59783 
L 926.912795 508.289021 
L 929.988235 529.637476 
L 933.063676 504.637311 
L 936.139117 510.822278 
L 939.214558 513.745609 
L 942.289999 528.480798 
L 945.36544 503.550129 
L 948.440881 526.04525 
L 951.516322 525.027674 
L 954.591763 525.824644 
L 957.667203 514.271781 
L 960.742644 540.670977 
L 963.818085 549.330759 
L 966.893526 521.648537 
L 969.968967 525.643586 
L 973.044408 521.475374 
L 976.119849 528.949043 
L 979.19529 533.560982 
L 982.270731 540.443962 
L 985.346171 551.772626 
L 988.421612 559.01928 
L 988.421612 559.01928 
" clip-path="url(#pa28cbf272e)" style="fill: none; stroke: #ff7f0e; stroke-width: 1.5; stroke-linecap: square"/>
   </g>
   <g id="line2d_41">
    <path d="M 548.633565 658.588125 
L 548.633565 494.659375 
" clip-path="url(#pa28cbf272e)" style="fill: none; stroke-dasharray: 7.4,3.2; stroke-dashoffset: 0; stroke: #0000ff; stroke-width: 2"/>
   </g>
   <g id="patch_14">
    <path d="M 61.6375 658.588125 
L 61.6375 494.659375 
" style="fill: none; stroke: #000000; stroke-width: 0.8; stroke-linejoin: miter; stroke-linecap: square"/>
   </g>
   <g id="patch_15">
    <path d="M 1032.554189 658.588125 
L 1032.554189 494.659375 
" style="fill: none; stroke: #000000; stroke-width: 0.8; stroke-linejoin: miter; stroke-linecap: square"/>
   </g>
   <g id="patch_16">
    <path d="M 61.6375 658.588125 
L 1032.554189 658.588125 
" style="fill: none; stroke: #000000; stroke-width: 0.8; stroke-linejoin: miter; stroke-linecap: square"/>
   </g>
   <g id="patch_17">
    <path d="M 61.6375 494.659375 
L 1032.554189 494.659375 
" style="fill: none; stroke: #000000; stroke-width: 0.8; stroke-linejoin: miter; stroke-linecap: square"/>
   </g>
   <g id="text_38">
    <!-- 云函数ID: 160 -->
    <g transform="translate(482.095845 488.659375) scale(0.2 -0.2)">
     <defs>
      <path id="SimSun-36" d="M 775 1800 
Q 775 1050 1037 637 
Q 1300 225 1675 225 
Q 2050 225 2250 500 
Q 2450 775 2450 1525 
Q 2450 2025 2237 2300 
Q 2025 2575 1725 2575 
Q 1450 2575 1212 2412 
Q 975 2250 775 1800 
z
M 1750 2825 
Q 2350 2825 2612 2425 
Q 2875 2025 2875 1525 
Q 2875 775 2512 412 
Q 2150 50 1675 50 
Q 1000 50 650 562 
Q 300 1075 300 2050 
Q 300 3200 725 3812 
Q 1150 4425 1875 4425 
Q 2225 4425 2437 4225 
Q 2650 4025 2650 3875 
Q 2650 3725 2587 3650 
Q 2525 3575 2375 3575 
Q 2250 3575 2187 3637 
Q 2125 3700 2125 3825 
Q 2125 3875 2150 3925 
Q 2150 3975 2150 4025 
Q 2150 4125 2075 4187 
Q 2000 4250 1800 4250 
Q 1375 4250 1075 3862 
Q 775 3475 775 2175 
Q 925 2500 1187 2662 
Q 1450 2825 1750 2825 
z
" transform="scale(0.015625)"/>
     </defs>
     <use xlink:href="#SimSun-4e91"/>
     <use xlink:href="#SimSun-51fd" x="100"/>
     <use xlink:href="#SimSun-6570" x="200"/>
     <use xlink:href="#SimSun-49" x="300"/>
     <use xlink:href="#SimSun-44" x="350"/>
     <use xlink:href="#SimSun-3a" x="400"/>
     <use xlink:href="#SimSun-20" x="450"/>
     <use xlink:href="#SimSun-31" x="500"/>
     <use xlink:href="#SimSun-36" x="550"/>
     <use xlink:href="#SimSun-30" x="600"/>
    </g>
   </g>
  </g>
 </g>
 <defs>
  <clipPath id="pc6b29682ff">
   <rect x="61.6375" y="29.059375" width="970.916689" height="163.92875"/>
  </clipPath>
  <clipPath id="p821c59bce0">
   <rect x="61.6375" y="261.859375" width="970.916689" height="163.92875"/>
  </clipPath>
  <clipPath id="pa28cbf272e">
   <rect x="61.6375" y="494.659375" width="970.916689" height="163.92875"/>
  </clipPath>
 </defs>
</svg>
