<?xml version="1.0" encoding="utf-8" standalone="no"?>
<!DOCTYPE svg PUBLIC "-//W3C//DTD SVG 1.1//EN"
  "http://www.w3.org/Graphics/SVG/1.1/DTD/svg11.dtd">
<svg xmlns:xlink="http://www.w3.org/1999/xlink" width="1050.150808pt" height="691.4825pt" viewBox="0 0 1050.150808 691.4825" xmlns="http://www.w3.org/2000/svg" version="1.1">
 <metadata>
  <rdf:RDF xmlns:dc="http://purl.org/dc/elements/1.1/" xmlns:cc="http://creativecommons.org/ns#" xmlns:rdf="http://www.w3.org/1999/02/22-rdf-syntax-ns#">
   <cc:Work>
    <dc:type rdf:resource="http://purl.org/dc/dcmitype/StillImage"/>
    <dc:date>2024-02-26T16:59:36.363715</dc:date>
    <dc:format>image/svg+xml</dc:format>
    <dc:creator>
     <cc:Agent>
      <dc:title>Matplotlib v3.7.4, https://matplotlib.org/</dc:title>
     </cc:Agent>
    </dc:creator>
   </cc:Work>
  </rdf:RDF>
 </metadata>
 <defs>
  <style type="text/css">*{stroke-linejoin: round; stroke-linecap: butt}</style>
 </defs>
 <g id="figure_1">
  <g id="patch_1">
   <path d="M 0 691.4825 
L 1050.150808 691.4825 
L 1050.150808 0 
L 0 0 
z
" style="fill: #ffffff"/>
  </g>
  <g id="axes_1">
   <g id="patch_2">
    <path d="M 71.6375 135.316875 
L 1035.250909 135.316875 
L 1035.250909 29.059375 
L 71.6375 29.059375 
z
" style="fill: #ffffff"/>
   </g>
   <g id="matplotlib.axis_1">
    <g id="xtick_1">
     <g id="line2d_1">
      <defs>
       <path id="m58942b6217" d="M 0 0 
L 0 3.5 
" style="stroke: #000000; stroke-width: 0.8"/>
      </defs>
      <g>
       <use xlink:href="#m58942b6217" x="115.43811" y="135.316875" style="stroke: #000000; stroke-width: 0.8"/>
      </g>
     </g>
     <g id="text_1">
      <!-- 0 -->
      <g transform="translate(110.43811 156.204375) scale(0.2 -0.2)">
       <defs>
        <path id="TimesNewRomanPSMT-30" d="M 231 2094 
Q 231 2819 450 3342 
Q 669 3866 1031 4122 
Q 1313 4325 1613 4325 
Q 2100 4325 2488 3828 
Q 2972 3213 2972 2159 
Q 2972 1422 2759 906 
Q 2547 391 2217 158 
Q 1888 -75 1581 -75 
Q 975 -75 572 641 
Q 231 1244 231 2094 
z
M 844 2016 
Q 844 1141 1059 588 
Q 1238 122 1591 122 
Q 1759 122 1940 273 
Q 2122 425 2216 781 
Q 2359 1319 2359 2297 
Q 2359 3022 2209 3506 
Q 2097 3866 1919 4016 
Q 1791 4119 1609 4119 
Q 1397 4119 1231 3928 
Q 1006 3669 925 3112 
Q 844 2556 844 2016 
z
" transform="scale(0.015625)"/>
       </defs>
       <use xlink:href="#TimesNewRomanPSMT-30"/>
      </g>
     </g>
    </g>
    <g id="xtick_2">
     <g id="line2d_2">
      <g>
       <use xlink:href="#m58942b6217" x="267.523559" y="135.316875" style="stroke: #000000; stroke-width: 0.8"/>
      </g>
     </g>
     <g id="text_2">
      <!-- 50 -->
      <g transform="translate(257.523559 156.204375) scale(0.2 -0.2)">
       <defs>
        <path id="TimesNewRomanPSMT-35" d="M 2778 4238 
L 2534 3706 
L 1259 3706 
L 981 3138 
Q 1809 3016 2294 2522 
Q 2709 2097 2709 1522 
Q 2709 1188 2573 903 
Q 2438 619 2231 419 
Q 2025 219 1772 97 
Q 1413 -75 1034 -75 
Q 653 -75 479 54 
Q 306 184 306 341 
Q 306 428 378 495 
Q 450 563 559 563 
Q 641 563 702 538 
Q 763 513 909 409 
Q 1144 247 1384 247 
Q 1750 247 2026 523 
Q 2303 800 2303 1197 
Q 2303 1581 2056 1914 
Q 1809 2247 1375 2428 
Q 1034 2569 447 2591 
L 1259 4238 
L 2778 4238 
z
" transform="scale(0.015625)"/>
       </defs>
       <use xlink:href="#TimesNewRomanPSMT-35"/>
       <use xlink:href="#TimesNewRomanPSMT-30" x="50"/>
      </g>
     </g>
    </g>
    <g id="xtick_3">
     <g id="line2d_3">
      <g>
       <use xlink:href="#m58942b6217" x="419.609009" y="135.316875" style="stroke: #000000; stroke-width: 0.8"/>
      </g>
     </g>
     <g id="text_3">
      <!-- 100 -->
      <g transform="translate(404.609009 156.204375) scale(0.2 -0.2)">
       <defs>
        <path id="TimesNewRomanPSMT-31" d="M 750 3822 
L 1781 4325 
L 1884 4325 
L 1884 747 
Q 1884 391 1914 303 
Q 1944 216 2037 169 
Q 2131 122 2419 116 
L 2419 0 
L 825 0 
L 825 116 
Q 1125 122 1212 167 
Q 1300 213 1334 289 
Q 1369 366 1369 747 
L 1369 3034 
Q 1369 3497 1338 3628 
Q 1316 3728 1258 3775 
Q 1200 3822 1119 3822 
Q 1003 3822 797 3725 
L 750 3822 
z
" transform="scale(0.015625)"/>
       </defs>
       <use xlink:href="#TimesNewRomanPSMT-31"/>
       <use xlink:href="#TimesNewRomanPSMT-30" x="50"/>
       <use xlink:href="#TimesNewRomanPSMT-30" x="100"/>
      </g>
     </g>
    </g>
    <g id="xtick_4">
     <g id="line2d_4">
      <g>
       <use xlink:href="#m58942b6217" x="571.694459" y="135.316875" style="stroke: #000000; stroke-width: 0.8"/>
      </g>
     </g>
     <g id="text_4">
      <!-- 150 -->
      <g transform="translate(556.694459 156.204375) scale(0.2 -0.2)">
       <use xlink:href="#TimesNewRomanPSMT-31"/>
       <use xlink:href="#TimesNewRomanPSMT-35" x="50"/>
       <use xlink:href="#TimesNewRomanPSMT-30" x="100"/>
      </g>
     </g>
    </g>
    <g id="xtick_5">
     <g id="line2d_5">
      <g>
       <use xlink:href="#m58942b6217" x="723.779908" y="135.316875" style="stroke: #000000; stroke-width: 0.8"/>
      </g>
     </g>
     <g id="text_5">
      <!-- 200 -->
      <g transform="translate(708.779908 156.204375) scale(0.2 -0.2)">
       <defs>
        <path id="TimesNewRomanPSMT-32" d="M 2934 816 
L 2638 0 
L 138 0 
L 138 116 
Q 1241 1122 1691 1759 
Q 2141 2397 2141 2925 
Q 2141 3328 1894 3587 
Q 1647 3847 1303 3847 
Q 991 3847 742 3664 
Q 494 3481 375 3128 
L 259 3128 
Q 338 3706 661 4015 
Q 984 4325 1469 4325 
Q 1984 4325 2329 3994 
Q 2675 3663 2675 3213 
Q 2675 2891 2525 2569 
Q 2294 2063 1775 1497 
Q 997 647 803 472 
L 1909 472 
Q 2247 472 2383 497 
Q 2519 522 2628 598 
Q 2738 675 2819 816 
L 2934 816 
z
" transform="scale(0.015625)"/>
       </defs>
       <use xlink:href="#TimesNewRomanPSMT-32"/>
       <use xlink:href="#TimesNewRomanPSMT-30" x="50"/>
       <use xlink:href="#TimesNewRomanPSMT-30" x="100"/>
      </g>
     </g>
    </g>
    <g id="xtick_6">
     <g id="line2d_6">
      <g>
       <use xlink:href="#m58942b6217" x="875.865358" y="135.316875" style="stroke: #000000; stroke-width: 0.8"/>
      </g>
     </g>
     <g id="text_6">
      <!-- 250 -->
      <g transform="translate(860.865358 156.204375) scale(0.2 -0.2)">
       <use xlink:href="#TimesNewRomanPSMT-32"/>
       <use xlink:href="#TimesNewRomanPSMT-35" x="50"/>
       <use xlink:href="#TimesNewRomanPSMT-30" x="100"/>
      </g>
     </g>
    </g>
    <g id="xtick_7">
     <g id="line2d_7">
      <g>
       <use xlink:href="#m58942b6217" x="1027.950808" y="135.316875" style="stroke: #000000; stroke-width: 0.8"/>
      </g>
     </g>
     <g id="text_7">
      <!-- 300 -->
      <g transform="translate(1012.950808 156.204375) scale(0.2 -0.2)">
       <defs>
        <path id="TimesNewRomanPSMT-33" d="M 325 3431 
Q 506 3859 782 4092 
Q 1059 4325 1472 4325 
Q 1981 4325 2253 3994 
Q 2459 3747 2459 3466 
Q 2459 3003 1878 2509 
Q 2269 2356 2469 2072 
Q 2669 1788 2669 1403 
Q 2669 853 2319 450 
Q 1863 -75 997 -75 
Q 569 -75 414 31 
Q 259 138 259 259 
Q 259 350 332 419 
Q 406 488 509 488 
Q 588 488 669 463 
Q 722 447 909 348 
Q 1097 250 1169 231 
Q 1284 197 1416 197 
Q 1734 197 1970 444 
Q 2206 691 2206 1028 
Q 2206 1275 2097 1509 
Q 2016 1684 1919 1775 
Q 1784 1900 1550 2001 
Q 1316 2103 1072 2103 
L 972 2103 
L 972 2197 
Q 1219 2228 1467 2375 
Q 1716 2522 1828 2728 
Q 1941 2934 1941 3181 
Q 1941 3503 1739 3701 
Q 1538 3900 1238 3900 
Q 753 3900 428 3381 
L 325 3431 
z
" transform="scale(0.015625)"/>
       </defs>
       <use xlink:href="#TimesNewRomanPSMT-33"/>
       <use xlink:href="#TimesNewRomanPSMT-30" x="50"/>
       <use xlink:href="#TimesNewRomanPSMT-30" x="100"/>
      </g>
     </g>
    </g>
   </g>
   <g id="matplotlib.axis_2">
    <g id="ytick_1">
     <g id="line2d_8">
      <defs>
       <path id="m6216860f18" d="M 0 0 
L -3.5 0 
" style="stroke: #000000; stroke-width: 0.8"/>
      </defs>
      <g>
       <use xlink:href="#m6216860f18" x="71.6375" y="134.074961" style="stroke: #000000; stroke-width: 0.8"/>
      </g>
     </g>
     <g id="text_8">
      <!-- 0.0 -->
      <g transform="translate(39.6375 141.018711) scale(0.2 -0.2)">
       <defs>
        <path id="TimesNewRomanPSMT-2e" d="M 800 606 
Q 947 606 1047 504 
Q 1147 403 1147 259 
Q 1147 116 1045 14 
Q 944 -88 800 -88 
Q 656 -88 554 14 
Q 453 116 453 259 
Q 453 406 554 506 
Q 656 606 800 606 
z
" transform="scale(0.015625)"/>
       </defs>
       <use xlink:href="#TimesNewRomanPSMT-30"/>
       <use xlink:href="#TimesNewRomanPSMT-2e" x="50"/>
       <use xlink:href="#TimesNewRomanPSMT-30" x="75"/>
      </g>
     </g>
    </g>
    <g id="ytick_2">
     <g id="line2d_9">
      <g>
       <use xlink:href="#m6216860f18" x="71.6375" y="67.998122" style="stroke: #000000; stroke-width: 0.8"/>
      </g>
     </g>
     <g id="text_9">
      <!-- 2.0 -->
      <g transform="translate(39.6375 74.941872) scale(0.2 -0.2)">
       <use xlink:href="#TimesNewRomanPSMT-32"/>
       <use xlink:href="#TimesNewRomanPSMT-2e" x="50"/>
       <use xlink:href="#TimesNewRomanPSMT-30" x="75"/>
      </g>
     </g>
    </g>
    <g id="text_10">
     <!-- CPU使用率 -->
     <g transform="translate(33.059375 127.188125) rotate(-90) scale(0.2 -0.2)">
      <defs>
       <path id="SimSun-43" d="M 1725 50 
Q 1025 50 612 575 
Q 200 1100 200 2225 
Q 200 3175 637 3800 
Q 1075 4425 1825 4425 
Q 2000 4425 2175 4375 
Q 2350 4300 2475 4300 
Q 2575 4300 2637 4325 
Q 2700 4350 2750 4425 
L 2975 3325 
L 2825 3275 
Q 2675 3750 2425 4000 
Q 2175 4250 1775 4250 
Q 1250 4250 962 3675 
Q 675 3100 675 2250 
Q 675 1325 925 800 
Q 1175 275 1750 275 
Q 2150 275 2437 562 
Q 2725 850 2825 1325 
L 2975 1250 
Q 2850 725 2512 387 
Q 2175 50 1725 50 
z
" transform="scale(0.015625)"/>
       <path id="SimSun-50" d="M 950 2100 
L 950 450 
Q 950 350 1012 300 
Q 1075 250 1175 250 
L 1350 250 
L 1350 100 
L 150 100 
L 150 250 
L 325 250 
Q 450 250 500 300 
Q 550 350 550 450 
L 550 4025 
Q 550 4125 500 4175 
Q 450 4225 325 4225 
L 175 4225 
L 175 4375 
L 1650 4375 
Q 2275 4375 2612 4062 
Q 2950 3750 2950 3275 
Q 2950 2700 2587 2400 
Q 2225 2100 1725 2100 
L 950 2100 
z
M 1575 2250 
Q 1950 2250 2237 2475 
Q 2525 2700 2525 3250 
Q 2525 3750 2287 3987 
Q 2050 4225 1525 4225 
L 1175 4225 
Q 1075 4225 1012 4175 
Q 950 4125 950 4025 
L 950 2250 
L 1575 2250 
z
" transform="scale(0.015625)"/>
       <path id="SimSun-55" d="M 1625 250 
Q 2000 250 2262 500 
Q 2525 750 2525 1125 
L 2525 4025 
Q 2525 4125 2475 4175 
Q 2425 4225 2300 4225 
L 2150 4225 
L 2150 4375 
L 3050 4375 
L 3050 4225 
L 2900 4225 
Q 2800 4225 2737 4175 
Q 2675 4125 2675 4025 
L 2675 1125 
Q 2675 625 2337 337 
Q 2000 50 1575 50 
Q 1125 50 787 300 
Q 450 550 450 1100 
L 450 4025 
Q 450 4125 400 4175 
Q 350 4225 225 4225 
L 100 4225 
L 100 4375 
L 1200 4375 
L 1200 4225 
L 1075 4225 
Q 975 4225 912 4175 
Q 850 4125 850 4025 
L 850 1100 
Q 850 600 1062 425 
Q 1275 250 1625 250 
z
" transform="scale(0.015625)"/>
       <path id="SimSun-4f7f" d="M 2875 3150 
L 2875 2100 
L 3825 2100 
Q 3850 2825 3850 3150 
L 2875 3150 
z
M 4175 3150 
Q 4175 2800 4150 2100 
L 5150 2100 
L 5150 3150 
L 4175 3150 
z
M 5475 3100 
L 5475 2425 
Q 5475 2100 5500 1800 
L 5150 1675 
L 5150 1950 
L 4150 1950 
Q 4125 1175 3875 600 
Q 4275 275 4875 75 
Q 5475 -125 6075 -150 
L 6075 -250 
Q 5700 -300 5600 -575 
Q 4525 -325 3725 350 
Q 3425 25 2925 -225 
Q 2425 -475 1875 -650 
L 1825 -550 
Q 2400 -325 2850 -25 
Q 3300 275 3500 575 
Q 3200 925 2825 1650 
L 2900 1700 
Q 3325 1100 3625 825 
Q 3800 1300 3825 1950 
L 2875 1950 
L 2875 1825 
L 2525 1675 
Q 2550 2075 2550 2562 
Q 2550 3050 2525 3500 
L 2875 3300 
L 3850 3300 
L 3850 4025 
L 2975 4025 
Q 2650 4025 2375 3950 
L 2150 4175 
L 3850 4175 
L 3850 4525 
Q 3850 4775 3825 5225 
L 4350 5000 
L 4175 4825 
L 4175 4175 
L 5300 4175 
L 5600 4475 
L 6050 4025 
L 4175 4025 
L 4175 3300 
L 5100 3300 
L 5275 3525 
L 5650 3225 
L 5475 3100 
z
M 1675 3175 
L 1675 -450 
L 1325 -625 
Q 1350 -75 1350 350 
L 1350 3200 
Q 900 2475 350 1900 
L 275 1950 
Q 700 2525 1112 3400 
Q 1525 4275 1800 5250 
L 2325 4925 
L 2125 4800 
Q 1725 3925 1500 3525 
L 1875 3325 
L 1675 3175 
z
" transform="scale(0.015625)"/>
       <path id="SimSun-7528" d="M 3400 3150 
L 3400 1825 
L 5075 1825 
L 5075 3150 
L 3400 3150 
z
M 4075 100 
Q 4725 50 4900 62 
Q 5075 75 5075 400 
L 5075 1675 
L 3400 1675 
Q 3400 75 3425 -225 
L 3050 -400 
Q 3075 1025 3075 1675 
L 1425 1675 
Q 1250 350 375 -600 
L 300 -550 
Q 775 225 950 1025 
Q 1125 1825 1125 3225 
Q 1125 4625 1100 5075 
L 1475 4825 
L 5050 4825 
L 5225 5100 
L 5625 4800 
L 5425 4600 
L 5425 225 
Q 5450 -400 4875 -575 
Q 4825 -150 4075 -25 
L 4075 100 
z
M 1475 4675 
L 1475 3300 
L 3075 3300 
L 3075 4675 
L 1475 4675 
z
M 3400 4675 
L 3400 3300 
L 5075 3300 
L 5075 4675 
L 3400 4675 
z
M 1475 3150 
Q 1450 2100 1425 1825 
L 3075 1825 
L 3075 3150 
L 1475 3150 
z
" transform="scale(0.015625)"/>
       <path id="SimSun-7387" d="M 875 3725 
L 925 3800 
Q 1375 3650 1550 3525 
Q 1725 3400 1725 3250 
Q 1725 3175 1662 3025 
Q 1600 2875 1550 2875 
Q 1500 2875 1425 3050 
Q 1275 3325 875 3725 
z
M 550 1850 
Q 875 1925 2000 2575 
L 2050 2500 
Q 1675 2225 1337 1937 
Q 1000 1650 875 1425 
L 550 1850 
z
M 5200 3450 
Q 4800 3150 4275 2800 
L 4225 2875 
Q 4775 3400 5050 3925 
L 5450 3525 
L 5200 3450 
z
M 4325 2500 
L 4350 2575 
Q 5225 2350 5375 2212 
Q 5525 2075 5525 1900 
Q 5525 1775 5487 1662 
Q 5450 1550 5400 1550 
Q 5325 1550 5200 1800 
Q 4975 2150 4325 2500 
z
M 3150 3900 
Q 2500 3300 2300 3150 
Q 2800 3150 3400 3175 
Q 3700 3500 3850 3825 
L 4250 3450 
Q 4050 3400 3450 2825 
Q 2850 2250 2475 1950 
Q 3150 1975 3850 2000 
Q 3750 2175 3550 2450 
L 3600 2500 
Q 4050 2250 4200 2100 
Q 4350 1950 4350 1850 
Q 4350 1775 4250 1625 
Q 4150 1475 4100 1475 
Q 4075 1475 4050 1550 
Q 4000 1700 3900 1900 
Q 3650 1875 3075 1800 
L 3500 1550 
L 3325 1425 
L 3325 975 
L 5325 975 
L 5650 1300 
L 6100 825 
L 3325 825 
Q 3325 -275 3350 -525 
L 2975 -650 
Q 3000 0 3000 825 
L 1125 825 
Q 800 825 525 750 
L 300 975 
L 3000 975 
L 3000 1775 
Q 2450 1700 2200 1525 
L 1950 1950 
Q 2275 1950 2675 2350 
Q 3075 2750 3325 3050 
Q 2400 2950 2150 2775 
L 1950 3175 
Q 2150 3150 2475 3575 
Q 2800 4000 2900 4225 
L 1450 4225 
Q 1125 4225 850 4150 
L 625 4375 
L 3100 4375 
Q 3050 4800 2675 5200 
L 2725 5250 
Q 3225 5050 3337 4912 
Q 3450 4775 3450 4700 
Q 3450 4550 3250 4375 
L 5025 4375 
L 5350 4675 
L 5775 4225 
L 3050 4225 
L 3375 3950 
L 3150 3900 
z
" transform="scale(0.015625)"/>
      </defs>
      <use xlink:href="#SimSun-43"/>
      <use xlink:href="#SimSun-50" x="50"/>
      <use xlink:href="#SimSun-55" x="100"/>
      <use xlink:href="#SimSun-4f7f" x="150"/>
      <use xlink:href="#SimSun-7528" x="250"/>
      <use xlink:href="#SimSun-7387" x="350"/>
     </g>
    </g>
   </g>
   <g id="line2d_10">
    <path d="M 115.43811 95.135881 
L 118.479818 93.834164 
L 121.521527 96.668863 
L 124.563236 98.393467 
L 127.604945 97.878068 
L 130.646654 97.164438 
L 133.688363 101.109226 
L 136.730072 99.662144 
L 139.771781 99.741437 
L 142.81349 102.080556 
L 145.855199 103.032062 
L 148.896908 101.921971 
L 151.938617 103.071709 
L 154.980326 119.227495 
L 158.022035 99.007981 
L 161.063744 98.849398 
L 164.105453 99.483734 
L 167.147162 100.355951 
L 170.188871 100.455064 
L 173.23058 102.338255 
L 176.272289 112.54052 
L 179.313998 114.542646 
L 182.355707 116.921413 
L 185.397416 119.69664 
L 188.439125 120.515995 
L 191.480834 118.890503 
L 194.522543 119.842009 
L 197.564252 120.568855 
L 200.605961 121.916822 
L 203.64767 121.626085 
L 206.689379 122.722959 
L 209.731088 123.502665 
L 212.772797 125.101726 
L 215.814506 126.17217 
L 218.856215 129.416547 
L 221.897924 125.114942 
L 224.939633 129.528877 
L 227.981342 124.546679 
L 231.023051 129.046515 
L 234.06476 124.269158 
L 237.106469 126.905624 
L 240.148178 121.78467 
L 243.189887 122.974053 
L 246.231596 122.689921 
L 249.273305 123.311044 
L 252.315014 123.390336 
L 255.356723 123.998243 
L 258.398432 123.912343 
L 261.440141 124.493819 
L 267.523559 124.533466 
L 270.565268 123.086381 
L 273.606977 124.110575 
L 276.648686 123.595174 
L 279.690395 125.002612 
L 282.732104 124.672226 
L 285.773813 125.31978 
L 288.815522 124.784556 
L 291.857231 127.68533 
L 294.89894 128.240377 
L 297.940649 129.429757 
L 300.982358 125.23388 
L 304.024067 125.841788 
L 307.065776 120.634931 
L 310.107485 125.260309 
L 313.149194 127.084034 
L 319.232612 127.751406 
L 322.274321 127.381378 
L 325.31603 126.621492 
L 328.357739 127.454063 
L 331.399448 126.535592 
L 334.441157 124.315411 
L 337.482866 125.907864 
L 340.524575 129.740322 
L 343.566284 128.385747 
L 346.607993 129.495837 
L 349.649702 130.275543 
L 352.691411 130.486989 
L 355.73312 130.440735 
L 358.774829 130.143391 
L 361.816538 125.874826 
L 364.858247 129.178667 
L 367.899956 126.053232 
L 370.941665 123.648035 
L 373.983374 125.23388 
L 377.025083 124.969572 
L 380.066792 125.987156 
L 383.108501 124.797773 
L 386.15021 122.670099 
L 389.191919 123.396944 
L 395.275337 123.238359 
L 398.317046 123.568743 
L 401.358755 122.419006 
L 404.400464 121.877177 
L 407.442173 121.560009 
L 410.483882 120.780301 
L 413.525591 120.661362 
L 416.5673 119.538055 
L 419.609009 112.091196 
L 422.650718 111.99208 
L 425.692427 120.767085 
L 428.734136 119.987379 
L 431.775845 120.093102 
L 434.817554 112.811435 
L 437.859263 110.095677 
L 440.900972 109.831369 
L 443.942681 110.862168 
L 446.98439 104.598084 
L 450.026099 97.243732 
L 453.067808 98.948514 
L 456.109517 99.688575 
L 459.151226 101.274418 
L 462.192935 101.697309 
L 465.234644 104.763275 
L 468.276353 105.31832 
L 471.318062 102.833833 
L 474.359771 106.71915 
L 477.40148 103.653185 
L 480.443189 104.446107 
L 483.484898 99.159959 
L 486.526607 91.455401 
L 489.568316 82.435913 
L 492.610025 77.579263 
L 495.651734 54.009658 
L 498.693443 75.596959 
L 501.735152 80.916145 
L 504.776861 84.153908 
L 507.81857 73.945036 
L 510.860279 76.422919 
L 513.901988 69.583969 
L 516.943697 76.455959 
L 519.985406 67.43647 
L 523.027115 56.461106 
L 526.068824 51.174964 
L 529.110533 55.417092 
L 532.152242 61.324365 
L 535.193951 60.769314 
L 538.23566 62.639291 
L 541.277369 67.410043 
L 544.319078 50.104514 
L 547.360787 64.178885 
L 550.402496 59.183474 
L 553.444205 59.460996 
L 556.485914 61.562241 
L 559.527623 57.320105 
L 562.569332 58.152678 
L 565.611041 64.588559 
L 568.65275 70.442965 
L 571.694459 67.43647 
L 574.736167 59.507249 
L 577.777876 55.13957 
L 580.819585 54.108774 
L 583.861294 55.13957 
L 586.903003 57.795859 
L 589.944712 57.280461 
L 592.986421 106.877735 
L 596.02813 54.901693 
L 599.069839 54.34665 
L 602.111548 61.046843 
L 605.153257 66.280123 
L 608.194966 63.108436 
L 611.236675 65.526848 
L 614.278384 79.792838 
L 617.320093 77.546227 
L 620.361802 76.257727 
L 623.403511 75.927343 
L 626.44522 78.73561 
L 629.486929 77.182803 
L 632.528638 72.68958 
L 635.570347 59.976394 
L 638.612056 62.156929 
L 641.653765 71.011226 
L 644.695474 77.612303 
L 647.737183 75.993419 
L 650.778892 76.422919 
L 653.820601 72.028809 
L 656.86231 83.394024 
L 659.904019 84.3191 
L 662.945728 83.427064 
L 665.987437 75.696075 
L 669.029146 63.683305 
L 672.070855 69.650042 
L 675.112564 79.363338 
L 678.154273 75.696075 
L 681.195982 77.810534 
L 684.237691 82.072489 
L 687.2794 81.213489 
L 690.321109 80.717913 
L 693.362818 81.874261 
L 696.404527 83.724408 
L 699.446236 82.601105 
L 702.487945 75.530883 
L 705.529654 66.399065 
L 708.571363 68.421013 
L 711.613072 67.667738 
L 714.654781 68.539952 
L 717.69649 67.628093 
L 720.738199 63.782421 
L 723.779908 62.07764 
L 726.821617 58.390547 
L 729.863326 61.403654 
L 732.905035 54.980983 
L 735.946744 56.963286 
L 738.988453 58.033735 
L 742.030162 55.496389 
L 745.071871 62.513748 
L 748.11358 67.786681 
L 751.155289 77.176198 
L 754.196998 79.297262 
L 757.238707 76.125575 
L 760.280416 71.724856 
L 763.322125 76.350234 
L 766.363834 83.724408 
L 769.405543 80.453605 
L 772.447252 81.609953 
L 775.488961 77.414075 
L 778.53067 78.140918 
L 781.572379 65.804369 
L 784.614088 71.599309 
L 787.655797 73.053 
L 790.697506 74.903152 
L 793.739215 73.878964 
L 796.780924 77.84357 
L 799.822633 75.266575 
L 802.864342 77.579263 
L 805.906051 78.570418 
L 808.94776 76.191651 
L 811.989469 79.825878 
L 815.031178 77.678378 
L 818.072887 78.603454 
L 821.114596 78.24003 
L 824.156305 65.837413 
L 827.198014 64.535696 
L 830.239723 58.430199 
L 833.281432 62.513748 
L 836.323141 52.483282 
L 839.36485 51.115492 
L 842.406559 33.889261 
L 845.448268 36.063188 
L 848.489977 49.0605 
L 851.531686 45.498959 
L 854.573395 58.07338 
L 857.615104 49.906283 
L 860.656813 45.426278 
L 863.698522 57.320105 
L 866.740231 56.64612 
L 869.78194 60.491792 
L 872.823649 63.108436 
L 875.865358 61.720821 
L 878.907067 61.601886 
L 881.948776 64.852863 
L 884.990485 58.985242 
L 888.032194 56.64612 
L 891.073903 56.765062 
L 894.115612 53.666056 
L 897.157321 47.719139 
L 900.19903 47.071588 
L 903.240739 60.888256 
L 906.282448 57.201171 
L 909.324157 61.007198 
L 912.365866 64.099588 
L 915.407575 61.760465 
L 918.449284 65.170037 
L 921.490993 52.443637 
L 924.532702 66.253696 
L 927.574411 63.227378 
L 930.61612 64.998232 
L 933.657829 66.015819 
L 936.699538 66.742667 
L 939.741247 72.061849 
L 945.824665 70.938541 
L 948.866374 67.965086 
L 951.908083 67.79989 
L 954.949792 74.407576 
L 957.991501 75.530883 
L 961.03321 81.504228 
L 964.074919 81.715674 
L 967.116628 81.557091 
L 970.158337 80.975612 
L 973.200046 84.38518 
L 976.241755 85.204531 
L 979.283464 83.090072 
L 985.366882 92.499415 
L 988.408591 91.389321 
L 991.4503 87.451142 
L 991.4503 87.451142 
" clip-path="url(#pca868a98bf)" style="fill: none; stroke: #1f77b4; stroke-width: 1.5; stroke-linecap: square"/>
   </g>
   <g id="line2d_11">
    <path d="M 556.485914 69.586246 
L 559.527623 46.188005 
L 562.569332 46.422691 
L 565.611041 45.484504 
L 568.65275 51.382553 
L 571.694459 47.786235 
L 574.736167 46.713698 
L 577.777876 45.998264 
L 580.819585 46.978522 
L 583.861294 46.793193 
L 586.903003 47.511935 
L 589.944712 48.604762 
L 592.986421 63.871667 
L 596.02813 47.092069 
L 599.069839 44.648482 
L 602.111548 44.766959 
L 605.153257 44.482876 
L 608.194966 44.608703 
L 611.236675 44.190381 
L 614.278384 44.258241 
L 617.320093 43.330782 
L 620.361802 44.442704 
L 623.403511 44.425816 
L 629.486929 44.134754 
L 632.528638 42.550962 
L 635.570347 42.207495 
L 641.653765 42.62588 
L 644.695474 42.676348 
L 650.778892 43.392365 
L 659.904019 44.809519 
L 662.945728 44.755317 
L 665.987437 45.215915 
L 669.029146 44.662369 
L 672.070855 44.724747 
L 681.195982 44.529224 
L 684.237691 45.526812 
L 687.2794 46.073796 
L 690.321109 46.828151 
L 696.404527 47.691301 
L 699.446236 47.790228 
L 702.487945 48.101676 
L 705.529654 47.02617 
L 708.571363 46.575827 
L 711.613072 46.278724 
L 714.654781 46.600073 
L 723.779908 46.563161 
L 729.863326 46.805993 
L 735.946744 45.824427 
L 738.988453 45.931192 
L 742.030162 45.097895 
L 748.11358 44.452424 
L 751.155289 44.424429 
L 754.196998 44.054085 
L 757.238707 44.167797 
L 760.280416 44.090548 
L 763.322125 43.878035 
L 769.405543 43.802109 
L 772.447252 43.382384 
L 775.488961 43.258535 
L 778.53067 43.725119 
L 781.572379 43.99478 
L 784.614088 43.74274 
L 787.655797 44.604536 
L 790.697506 45.253315 
L 793.739215 45.668117 
L 796.780924 45.706493 
L 799.822633 45.894312 
L 802.864342 45.670606 
L 805.906051 46.139632 
L 808.94776 46.01223 
L 811.989469 46.064313 
L 815.031178 47.210176 
L 818.072887 47.927185 
L 824.156305 48.747934 
L 827.198014 47.238454 
L 830.239723 47.034504 
L 842.406559 45.634206 
L 845.448268 44.952218 
L 851.531686 43.390892 
L 854.573395 42.803569 
L 857.615104 42.396282 
L 860.656813 41.704818 
L 863.698522 40.881548 
L 869.78194 39.632197 
L 872.823649 39.1477 
L 875.865358 38.98998 
L 878.907067 39.13887 
L 881.948776 39.159476 
L 884.990485 39.066804 
L 888.032194 38.794221 
L 891.073903 38.68414 
L 894.115612 38.996242 
L 897.157321 39.434138 
L 903.240739 40.089629 
L 906.282448 40.488849 
L 909.324157 41.089295 
L 912.365866 41.858584 
L 915.407575 42.427049 
L 918.449284 43.162869 
L 921.490993 44.048713 
L 924.532702 44.00921 
L 927.574411 44.47711 
L 930.61612 45.714063 
L 933.657829 46.790593 
L 939.741247 47.951021 
L 942.782956 49.103217 
L 945.824665 50.133919 
L 948.866374 52.214716 
L 951.908083 52.991724 
L 954.949792 55.370153 
L 957.991501 56.554251 
L 961.03321 57.037086 
L 964.074919 57.14563 
L 967.116628 59.665884 
L 970.158337 60.261517 
L 973.200046 61.07071 
L 976.241755 62.26456 
L 979.283464 64.620271 
L 982.325173 66.438001 
L 985.366882 68.516494 
L 988.408591 70.335531 
L 991.4503 73.818772 
L 991.4503 73.818772 
" clip-path="url(#pca868a98bf)" style="fill: none; stroke: #ff7f0e; stroke-width: 1.5; stroke-linecap: square"/>
   </g>
   <g id="line2d_12">
    <path d="M 556.485914 135.316875 
L 556.485914 29.059375 
" clip-path="url(#pca868a98bf)" style="fill: none; stroke-dasharray: 7.4,3.2; stroke-dashoffset: 0; stroke: #0000ff; stroke-width: 2"/>
   </g>
   <g id="patch_3">
    <path d="M 71.6375 135.316875 
L 71.6375 29.059375 
" style="fill: none; stroke: #000000; stroke-width: 0.8; stroke-linejoin: miter; stroke-linecap: square"/>
   </g>
   <g id="patch_4">
    <path d="M 1035.250909 135.316875 
L 1035.250909 29.059375 
" style="fill: none; stroke: #000000; stroke-width: 0.8; stroke-linejoin: miter; stroke-linecap: square"/>
   </g>
   <g id="patch_5">
    <path d="M 71.6375 135.316875 
L 1035.250909 135.316875 
" style="fill: none; stroke: #000000; stroke-width: 0.8; stroke-linejoin: miter; stroke-linecap: square"/>
   </g>
   <g id="patch_6">
    <path d="M 71.6375 29.059375 
L 1035.250909 29.059375 
" style="fill: none; stroke: #000000; stroke-width: 0.8; stroke-linejoin: miter; stroke-linecap: square"/>
   </g>
   <g id="text_11">
    <!-- 云函数ID: 28 -->
    <g transform="translate(493.444205 23.059375) scale(0.2 -0.2)">
     <defs>
      <path id="SimSun-4e91" d="M 1200 4450 
L 4500 4450 
L 4850 4800 
L 5350 4300 
L 1975 4300 
Q 1700 4300 1425 4225 
L 1200 4450 
z
M 1600 275 
Q 2300 300 4725 450 
Q 4425 975 3850 1700 
L 3925 1775 
Q 5200 725 5287 500 
Q 5375 275 5375 175 
Q 5375 0 5250 -162 
Q 5125 -325 5075 -325 
Q 5025 -325 4975 -200 
Q 4875 50 4775 300 
Q 1650 -25 1300 -300 
L 975 300 
Q 1225 350 1462 550 
Q 1700 750 2150 1462 
Q 2600 2175 2725 2600 
L 1250 2600 
Q 925 2600 650 2525 
L 425 2750 
L 5025 2750 
L 5450 3175 
L 6025 2600 
L 3250 2600 
Q 3000 2025 2500 1375 
Q 2000 725 1600 275 
z
" transform="scale(0.015625)"/>
      <path id="SimSun-51fd" d="M 3050 2275 
L 3050 3000 
Q 3050 3450 3025 3800 
L 3275 3625 
L 4450 4475 
L 1650 4475 
Q 1325 4475 1050 4400 
L 825 4625 
L 4450 4625 
L 4775 4875 
L 5150 4375 
Q 4875 4325 4550 4175 
Q 4225 4025 3400 3550 
L 3550 3450 
L 3375 3325 
L 3375 2400 
Q 4250 3225 4475 3600 
L 4875 3150 
L 4625 3125 
Q 3625 2425 3400 2275 
Q 4575 1675 4687 1487 
Q 4800 1300 4800 1150 
Q 4800 1025 4750 925 
Q 4700 825 4675 825 
Q 4575 825 4375 1150 
Q 4075 1600 3375 2150 
L 3375 725 
Q 3375 350 2875 150 
Q 2850 450 2200 650 
L 2200 750 
Q 2800 675 2925 700 
Q 3050 725 3050 850 
L 3050 2100 
Q 1850 1300 1625 1025 
L 1275 1400 
Q 1575 1475 2087 1725 
Q 2600 1975 3050 2275 
z
M 1700 3475 
L 1775 3550 
Q 2350 3200 2475 3025 
Q 2600 2850 2600 2775 
Q 2600 2650 2500 2525 
Q 2400 2400 2350 2400 
Q 2275 2400 2225 2575 
Q 2150 2875 1700 3475 
z
M 5150 0 
L 5150 2175 
Q 5150 2725 5125 3325 
L 5725 3050 
L 5500 2850 
L 5500 525 
Q 5500 100 5525 -400 
L 5150 -600 
L 5150 -150 
L 1250 -150 
L 1000 -375 
L 675 -50 
L 875 125 
L 875 2375 
Q 875 2800 850 3425 
L 1450 3150 
L 1225 2975 
L 1225 0 
L 5150 0 
z
" transform="scale(0.015625)"/>
      <path id="SimSun-6570" d="M 1875 1525 
Q 1675 1200 1500 900 
Q 1825 825 2275 725 
Q 2500 975 2725 1525 
L 1875 1525 
z
M 850 4900 
Q 1325 4600 1425 4450 
Q 1525 4300 1525 4225 
Q 1525 4100 1437 3975 
Q 1350 3850 1300 3850 
Q 1225 3850 1150 4100 
Q 1050 4450 775 4850 
L 850 4900 
z
M 3000 4975 
L 3450 4675 
Q 3250 4625 3100 4425 
Q 2925 4225 2525 3825 
L 2450 3875 
Q 2925 4625 3000 4975 
z
M 1875 5250 
L 2425 5000 
L 2225 4825 
L 2225 3675 
L 2850 3675 
L 3125 3950 
L 3550 3525 
L 2225 3525 
L 2225 3300 
Q 2800 3175 2937 3062 
Q 3075 2950 3075 2775 
Q 3075 2700 3050 2587 
Q 3025 2475 2975 2475 
Q 2925 2475 2800 2650 
Q 2600 2925 2225 3175 
L 2225 2400 
L 1925 2200 
L 2275 2050 
Q 2150 2000 1950 1675 
L 2725 1675 
L 2900 1900 
L 3275 1575 
L 3050 1450 
Q 2800 875 2600 650 
Q 3000 550 3137 437 
Q 3275 325 3275 150 
Q 3275 -25 3200 -25 
Q 3125 -25 3025 75 
Q 2750 275 2400 425 
Q 1525 -275 325 -500 
L 300 -425 
Q 1450 -50 2100 550 
Q 1600 725 1125 800 
Q 1225 950 1525 1525 
L 1200 1525 
Q 875 1525 600 1450 
L 375 1675 
L 1575 1675 
Q 1675 1925 1775 2275 
L 1900 2225 
L 1900 3250 
Q 1225 2475 350 2050 
L 300 2125 
Q 1225 2775 1700 3525 
L 1250 3525 
Q 925 3525 650 3450 
L 425 3675 
L 1900 3675 
Q 1900 4575 1875 5250 
z
M 3925 3525 
Q 4050 2075 4525 1100 
Q 4925 1950 5025 3525 
L 3925 3525 
z
M 4050 5250 
L 4625 4925 
Q 4425 4850 4325 4625 
Q 4225 4400 3950 3675 
L 5375 3675 
L 5675 3975 
L 6125 3525 
L 5400 3525 
Q 5250 1675 4750 775 
Q 5325 75 6100 -100 
L 6100 -200 
Q 5625 -275 5600 -500 
Q 4950 -50 4525 525 
Q 3700 -275 2550 -650 
L 2500 -575 
Q 3650 -50 4325 800 
Q 3850 1975 3825 3375 
Q 3575 2725 3100 2150 
L 3025 2200 
Q 3625 3200 4050 5250 
z
" transform="scale(0.015625)"/>
      <path id="SimSun-49" d="M 600 4225 
L 600 4375 
L 2600 4375 
L 2600 4225 
L 2025 4225 
Q 1925 4225 1862 4175 
Q 1800 4125 1800 4025 
L 1800 450 
Q 1800 350 1862 300 
Q 1925 250 2025 250 
L 2600 250 
L 2600 100 
L 600 100 
L 600 250 
L 1175 250 
Q 1300 250 1350 300 
Q 1400 350 1400 450 
L 1400 4025 
Q 1400 4125 1350 4175 
Q 1300 4225 1175 4225 
L 600 4225 
z
" transform="scale(0.015625)"/>
      <path id="SimSun-44" d="M 2500 2275 
Q 2500 3350 2175 3787 
Q 1850 4225 1275 4225 
Q 1100 4225 1012 4175 
Q 925 4125 925 4025 
L 925 450 
Q 925 350 1000 300 
Q 1075 250 1200 250 
Q 1750 250 2125 662 
Q 2500 1075 2500 2275 
z
M 525 4025 
Q 525 4125 475 4175 
Q 425 4225 300 4225 
L 150 4225 
L 150 4375 
L 1275 4375 
Q 2050 4375 2512 3875 
Q 2975 3375 2975 2325 
Q 2975 1175 2525 637 
Q 2075 100 1200 100 
L 125 100 
L 125 250 
L 300 250 
Q 425 250 475 300 
Q 525 350 525 450 
L 525 4025 
z
" transform="scale(0.015625)"/>
      <path id="SimSun-3a" d="M 1900 2725 
Q 1900 2575 1800 2475 
Q 1700 2375 1550 2375 
Q 1400 2375 1300 2475 
Q 1200 2575 1200 2725 
Q 1200 2875 1300 2975 
Q 1400 3075 1550 3075 
Q 1700 3075 1800 2975 
Q 1900 2875 1900 2725 
z
M 1900 375 
Q 1900 225 1800 125 
Q 1700 25 1550 25 
Q 1400 25 1300 125 
Q 1200 225 1200 375 
Q 1200 525 1300 625 
Q 1400 725 1550 725 
Q 1700 725 1800 625 
Q 1900 525 1900 375 
z
" transform="scale(0.015625)"/>
      <path id="SimSun-20" d="M 0 0 
Q 0 0 0 0 
z
" transform="scale(0.015625)"/>
      <path id="SimSun-32" d="M 2325 3325 
Q 2325 3775 2125 4012 
Q 1925 4250 1525 4250 
Q 1225 4250 1012 4087 
Q 800 3925 800 3675 
Q 800 3525 900 3425 
Q 975 3325 975 3225 
Q 975 3100 912 3037 
Q 850 2975 725 2975 
Q 575 2975 487 3062 
Q 400 3150 400 3350 
Q 400 3875 775 4150 
Q 1150 4425 1575 4425 
Q 2175 4425 2462 4125 
Q 2750 3825 2750 3375 
Q 2750 3075 2612 2775 
Q 2475 2475 2175 2200 
Q 1450 1500 1062 1062 
Q 675 625 600 475 
L 2075 475 
Q 2300 475 2450 650 
Q 2600 825 2650 1175 
L 2800 1175 
L 2650 100 
L 325 100 
L 325 425 
Q 450 650 737 1000 
Q 1025 1350 1500 1825 
Q 1925 2250 2125 2625 
Q 2325 3000 2325 3325 
z
" transform="scale(0.015625)"/>
      <path id="SimSun-38" d="M 625 1125 
Q 625 725 887 475 
Q 1150 225 1550 225 
Q 2025 225 2237 475 
Q 2450 725 2450 1100 
Q 2450 1425 2150 1725 
Q 1850 2025 1250 2275 
Q 950 2075 787 1775 
Q 625 1475 625 1125 
z
M 2825 1175 
Q 2825 700 2475 375 
Q 2125 50 1550 50 
Q 1025 50 650 375 
Q 275 700 275 1125 
Q 275 1550 487 1850 
Q 700 2150 1100 2375 
Q 750 2550 562 2812 
Q 375 3075 375 3400 
Q 375 3825 700 4125 
Q 1025 4425 1600 4425 
Q 2125 4425 2450 4125 
Q 2775 3825 2775 3400 
Q 2775 3100 2587 2837 
Q 2400 2575 2000 2375 
Q 2425 2125 2625 1825 
Q 2825 1525 2825 1175 
z
M 2425 3375 
Q 2425 3725 2225 3987 
Q 2025 4250 1600 4250 
Q 1125 4250 925 4000 
Q 725 3750 725 3475 
Q 725 3200 1012 2937 
Q 1300 2675 1825 2475 
Q 2125 2625 2275 2850 
Q 2425 3075 2425 3375 
z
" transform="scale(0.015625)"/>
     </defs>
     <use xlink:href="#SimSun-4e91"/>
     <use xlink:href="#SimSun-51fd" x="100"/>
     <use xlink:href="#SimSun-6570" x="200"/>
     <use xlink:href="#SimSun-49" x="300"/>
     <use xlink:href="#SimSun-44" x="350"/>
     <use xlink:href="#SimSun-3a" x="400"/>
     <use xlink:href="#SimSun-20" x="450"/>
     <use xlink:href="#SimSun-32" x="500"/>
     <use xlink:href="#SimSun-38" x="550"/>
    </g>
   </g>
   <g id="legend_1">
    <g id="patch_7">
     <path d="M 85.6375 101.934375 
L 209.6375 101.934375 
Q 213.6375 101.934375 213.6375 97.934375 
L 213.6375 43.059375 
Q 213.6375 39.059375 209.6375 39.059375 
L 85.6375 39.059375 
Q 81.6375 39.059375 81.6375 43.059375 
L 81.6375 97.934375 
Q 81.6375 101.934375 85.6375 101.934375 
z
" style="fill: #ffffff; opacity: 0.8; stroke: #cccccc; stroke-linejoin: miter"/>
    </g>
    <g id="line2d_13">
     <path d="M 89.6375 55.996875 
L 109.6375 55.996875 
L 129.6375 55.996875 
" style="fill: none; stroke: #1f77b4; stroke-width: 1.5; stroke-linecap: square"/>
    </g>
    <g id="text_12">
     <!-- 真实值 -->
     <g transform="translate(145.6375 62.996875) scale(0.2 -0.2)">
      <defs>
       <path id="SimSun-771f" d="M 2050 3450 
L 2050 2900 
L 4300 2900 
L 4300 3450 
L 2050 3450 
z
M 2050 2750 
L 2050 2225 
L 4300 2225 
L 4300 2750 
L 2050 2750 
z
M 2050 2075 
L 2050 1550 
L 4300 1550 
L 4300 2075 
L 2050 2075 
z
M 2050 1400 
L 2050 875 
L 4300 875 
L 4300 1400 
L 2050 1400 
z
M 2875 3600 
L 2925 4325 
L 1525 4325 
Q 1200 4325 925 4250 
L 700 4475 
L 2950 4475 
Q 2975 4825 2975 5275 
L 3550 5025 
L 3375 4925 
L 3300 4475 
L 5000 4475 
L 5325 4825 
L 5775 4325 
L 3275 4325 
L 3200 3600 
L 4275 3600 
L 4450 3875 
L 4850 3575 
L 4650 3375 
L 4650 875 
L 5300 875 
L 5675 1225 
L 6125 725 
L 1150 725 
Q 825 725 550 650 
L 325 875 
L 1700 875 
Q 1700 3200 1675 3775 
L 2050 3600 
L 2875 3600 
z
M 2425 725 
L 2825 350 
L 2575 300 
Q 1500 -425 800 -650 
L 775 -575 
Q 1950 125 2425 725 
z
M 3800 700 
Q 4575 375 4962 200 
Q 5350 25 5400 -112 
Q 5450 -250 5450 -325 
Q 5450 -400 5400 -525 
Q 5350 -650 5325 -650 
Q 5250 -650 5100 -450 
Q 4875 -150 3750 625 
L 3800 700 
z
" transform="scale(0.015625)"/>
       <path id="SimSun-5b9e" d="M 1950 3625 
Q 2575 3400 2700 3250 
Q 2825 3100 2825 2975 
Q 2825 2850 2750 2700 
Q 2675 2550 2625 2550 
Q 2550 2550 2450 2800 
Q 2275 3175 1900 3550 
L 1950 3625 
z
M 3575 1325 
Q 3500 1100 3425 925 
Q 4650 550 5087 325 
Q 5525 100 5512 -225 
Q 5500 -550 5400 -550 
Q 5300 -550 5075 -300 
Q 4625 175 3375 800 
Q 3025 175 2300 -150 
Q 1575 -475 425 -625 
L 425 -525 
Q 1475 -325 2200 100 
Q 2925 525 3200 1325 
L 1225 1325 
Q 900 1325 625 1250 
L 400 1475 
L 3225 1475 
Q 3325 1950 3375 2575 
Q 3425 3200 3425 3700 
L 4050 3400 
L 3850 3225 
Q 3750 2300 3625 1475 
L 5175 1475 
L 5550 1850 
L 6075 1325 
L 3575 1325 
z
M 1275 2700 
Q 1975 2425 2100 2262 
Q 2225 2100 2225 1975 
Q 2225 1850 2150 1700 
Q 2075 1550 2025 1550 
Q 1950 1550 1850 1800 
Q 1675 2175 1225 2625 
L 1275 2700 
z
M 2750 5225 
L 2825 5275 
Q 3225 5100 3425 4925 
Q 3625 4750 3625 4600 
Q 3625 4450 3512 4300 
Q 3400 4150 3325 4150 
Q 3250 4150 3200 4400 
Q 3100 4775 2750 5225 
z
M 4975 3225 
L 5350 3925 
L 1175 3925 
Q 1225 3525 1125 3300 
Q 1025 3075 787 3100 
Q 550 3125 550 3200 
Q 550 3300 700 3475 
Q 975 3825 1050 4375 
L 1150 4375 
L 1175 4075 
L 5300 4075 
L 5575 4350 
L 6050 3800 
Q 5625 3825 5050 3175 
L 4975 3225 
z
" transform="scale(0.015625)"/>
       <path id="SimSun-503c" d="M 1525 650 
Q 1525 -225 1550 -525 
L 1175 -650 
Q 1200 250 1200 550 
L 1200 3025 
Q 750 2300 325 1850 
L 250 1900 
Q 725 2625 1100 3525 
Q 1475 4425 1675 5200 
L 2200 4875 
L 1950 4725 
Q 1550 3800 1425 3475 
L 1725 3300 
L 1525 3150 
L 1525 650 
z
M 2875 3225 
L 2875 2475 
L 4800 2475 
L 4800 3225 
L 2875 3225 
z
M 2875 2325 
L 2875 1575 
L 4800 1575 
L 4800 2325 
L 2875 2325 
z
M 2875 1425 
L 2875 675 
L 4800 675 
L 4800 1425 
L 2875 1425 
z
M 2875 525 
L 2875 -225 
L 4800 -225 
L 4800 525 
L 2875 525 
z
M 3550 4250 
Q 3575 4825 3550 5225 
L 4125 4950 
L 3925 4800 
L 3900 4250 
L 5025 4250 
L 5350 4575 
L 5825 4100 
L 3900 4100 
L 3875 3375 
L 4750 3375 
L 4975 3625 
L 5350 3300 
L 5125 3150 
L 5125 -225 
L 5350 -225 
L 5675 100 
L 6150 -375 
L 2450 -375 
Q 2125 -375 1850 -450 
L 1625 -225 
L 2550 -225 
L 2550 2550 
Q 2550 2850 2525 3575 
L 2875 3375 
L 3525 3375 
L 3550 4100 
L 2800 4100 
Q 2475 4100 2200 4025 
L 1975 4250 
L 3550 4250 
z
" transform="scale(0.015625)"/>
      </defs>
      <use xlink:href="#SimSun-771f"/>
      <use xlink:href="#SimSun-5b9e" x="100"/>
      <use xlink:href="#SimSun-503c" x="200"/>
     </g>
    </g>
    <g id="line2d_14">
     <path d="M 89.6375 84.35625 
L 109.6375 84.35625 
L 129.6375 84.35625 
" style="fill: none; stroke: #ff7f0e; stroke-width: 1.5; stroke-linecap: square"/>
    </g>
    <g id="text_13">
     <!-- 预测值 -->
     <g transform="translate(145.6375 91.35625) scale(0.2 -0.2)">
      <defs>
       <path id="SimSun-9884" d="M 475 4825 
L 2225 4825 
L 2425 5075 
L 2825 4675 
Q 2600 4625 2387 4412 
Q 2175 4200 1800 3750 
Q 2050 3575 2037 3400 
Q 2025 3225 1937 3150 
Q 1850 3075 1825 3075 
Q 1725 3075 1650 3300 
Q 1525 3600 1050 4100 
L 1100 4150 
Q 1475 3975 1700 3825 
L 2225 4675 
L 1300 4675 
Q 975 4675 700 4600 
L 475 4825 
z
M 725 100 
Q 1175 50 1362 37 
Q 1550 25 1550 275 
L 1550 2875 
L 1125 2875 
Q 800 2875 525 2800 
L 300 3025 
L 2525 3025 
L 2725 3275 
L 3150 2875 
Q 2800 2825 2275 2075 
L 2200 2125 
L 2550 2875 
L 1875 2875 
L 1875 150 
Q 1875 -400 1350 -500 
Q 1325 -175 725 0 
L 725 100 
z
M 3250 775 
Q 3275 1425 3275 2287 
Q 3275 3150 3250 3900 
L 3600 3700 
L 4050 3700 
Q 4175 4400 4200 4675 
L 3650 4675 
Q 3325 4675 3050 4600 
L 2825 4825 
L 5325 4825 
L 5675 5150 
L 6125 4675 
L 4675 4675 
Q 4500 4425 4175 3700 
L 5300 3700 
L 5475 3975 
L 5875 3675 
L 5675 3475 
L 5675 1950 
Q 5675 1525 5700 1075 
L 5350 875 
L 5350 3550 
L 3600 3550 
L 3600 1000 
L 3250 775 
z
M 4850 2875 
L 4625 2675 
Q 4625 1475 4475 937 
Q 4325 400 3900 50 
Q 3475 -300 2425 -625 
L 2400 -550 
Q 3500 -50 3837 400 
Q 4175 850 4237 1587 
Q 4300 2325 4275 3175 
L 4850 2875 
z
M 4650 950 
Q 5725 375 5875 212 
Q 6025 50 6025 -125 
Q 6025 -225 5962 -387 
Q 5900 -550 5850 -550 
Q 5800 -550 5750 -450 
Q 5625 -250 5437 0 
Q 5250 250 4600 875 
L 4650 950 
z
" transform="scale(0.015625)"/>
       <path id="SimSun-6d4b" d="M 1975 1000 
Q 2000 1475 2000 2925 
Q 2000 4375 1975 5000 
L 2350 4775 
L 3575 4775 
L 3775 4975 
L 4100 4650 
L 3900 4500 
L 3900 2350 
Q 3900 1850 3925 1350 
L 3600 1200 
L 3600 4625 
L 2325 4625 
L 2325 1150 
L 1975 1000 
z
M 2775 3975 
L 3300 3700 
L 3125 3525 
Q 3150 1825 2875 937 
Q 2600 50 1375 -600 
L 1325 -500 
Q 2200 100 2475 725 
Q 2750 1350 2775 2187 
Q 2800 3025 2775 3975 
z
M 3100 950 
Q 3825 450 3937 262 
Q 4050 75 4050 -25 
Q 4050 -150 3975 -262 
Q 3900 -375 3850 -375 
Q 3750 -375 3650 -75 
Q 3500 375 3050 875 
L 3100 950 
z
M 4475 825 
Q 4500 1200 4500 1700 
L 4500 3400 
Q 4500 3950 4475 4300 
L 5025 4025 
L 4825 3825 
L 4825 1700 
Q 4825 1325 4850 950 
L 4475 825 
z
M 5375 150 
L 5375 4050 
Q 5375 4750 5350 5125 
L 5875 4875 
L 5700 4700 
L 5700 75 
Q 5700 -200 5600 -350 
Q 5500 -500 5200 -600 
Q 5025 -225 4450 -50 
L 4450 50 
Q 5125 -50 5250 -37 
Q 5375 -25 5375 150 
z
M 1850 3500 
Q 1375 1525 1300 1225 
Q 1200 900 1212 450 
Q 1225 0 1250 -175 
Q 1250 -275 1125 -275 
Q 1025 -275 875 -225 
Q 725 -175 725 0 
Q 725 125 800 375 
Q 875 625 875 775 
Q 875 950 762 1050 
Q 650 1150 275 1250 
L 275 1350 
Q 725 1300 837 1312 
Q 950 1325 1087 1537 
Q 1225 1750 1750 3525 
L 1850 3500 
z
M 375 3775 
Q 1075 3350 1112 3100 
Q 1150 2850 1050 2775 
Q 950 2700 900 2700 
Q 800 2700 725 2975 
Q 600 3350 325 3700 
L 375 3775 
z
M 800 5100 
Q 1475 4725 1550 4512 
Q 1625 4300 1525 4187 
Q 1425 4075 1350 4075 
Q 1275 4075 1200 4300 
Q 1075 4650 750 5025 
L 800 5100 
z
" transform="scale(0.015625)"/>
      </defs>
      <use xlink:href="#SimSun-9884"/>
      <use xlink:href="#SimSun-6d4b" x="100"/>
      <use xlink:href="#SimSun-503c" x="200"/>
     </g>
    </g>
   </g>
  </g>
  <g id="axes_2">
   <g id="patch_8">
    <path d="M 71.6375 309.916875 
L 1035.250909 309.916875 
L 1035.250909 203.659375 
L 71.6375 203.659375 
z
" style="fill: #ffffff"/>
   </g>
   <g id="matplotlib.axis_3">
    <g id="xtick_8">
     <g id="line2d_15">
      <g>
       <use xlink:href="#m58942b6217" x="115.43811" y="309.916875" style="stroke: #000000; stroke-width: 0.8"/>
      </g>
     </g>
     <g id="text_14">
      <!-- 0 -->
      <g transform="translate(110.43811 330.804375) scale(0.2 -0.2)">
       <use xlink:href="#TimesNewRomanPSMT-30"/>
      </g>
     </g>
    </g>
    <g id="xtick_9">
     <g id="line2d_16">
      <g>
       <use xlink:href="#m58942b6217" x="267.523559" y="309.916875" style="stroke: #000000; stroke-width: 0.8"/>
      </g>
     </g>
     <g id="text_15">
      <!-- 50 -->
      <g transform="translate(257.523559 330.804375) scale(0.2 -0.2)">
       <use xlink:href="#TimesNewRomanPSMT-35"/>
       <use xlink:href="#TimesNewRomanPSMT-30" x="50"/>
      </g>
     </g>
    </g>
    <g id="xtick_10">
     <g id="line2d_17">
      <g>
       <use xlink:href="#m58942b6217" x="419.609009" y="309.916875" style="stroke: #000000; stroke-width: 0.8"/>
      </g>
     </g>
     <g id="text_16">
      <!-- 100 -->
      <g transform="translate(404.609009 330.804375) scale(0.2 -0.2)">
       <use xlink:href="#TimesNewRomanPSMT-31"/>
       <use xlink:href="#TimesNewRomanPSMT-30" x="50"/>
       <use xlink:href="#TimesNewRomanPSMT-30" x="100"/>
      </g>
     </g>
    </g>
    <g id="xtick_11">
     <g id="line2d_18">
      <g>
       <use xlink:href="#m58942b6217" x="571.694459" y="309.916875" style="stroke: #000000; stroke-width: 0.8"/>
      </g>
     </g>
     <g id="text_17">
      <!-- 150 -->
      <g transform="translate(556.694459 330.804375) scale(0.2 -0.2)">
       <use xlink:href="#TimesNewRomanPSMT-31"/>
       <use xlink:href="#TimesNewRomanPSMT-35" x="50"/>
       <use xlink:href="#TimesNewRomanPSMT-30" x="100"/>
      </g>
     </g>
    </g>
    <g id="xtick_12">
     <g id="line2d_19">
      <g>
       <use xlink:href="#m58942b6217" x="723.779908" y="309.916875" style="stroke: #000000; stroke-width: 0.8"/>
      </g>
     </g>
     <g id="text_18">
      <!-- 200 -->
      <g transform="translate(708.779908 330.804375) scale(0.2 -0.2)">
       <use xlink:href="#TimesNewRomanPSMT-32"/>
       <use xlink:href="#TimesNewRomanPSMT-30" x="50"/>
       <use xlink:href="#TimesNewRomanPSMT-30" x="100"/>
      </g>
     </g>
    </g>
    <g id="xtick_13">
     <g id="line2d_20">
      <g>
       <use xlink:href="#m58942b6217" x="875.865358" y="309.916875" style="stroke: #000000; stroke-width: 0.8"/>
      </g>
     </g>
     <g id="text_19">
      <!-- 250 -->
      <g transform="translate(860.865358 330.804375) scale(0.2 -0.2)">
       <use xlink:href="#TimesNewRomanPSMT-32"/>
       <use xlink:href="#TimesNewRomanPSMT-35" x="50"/>
       <use xlink:href="#TimesNewRomanPSMT-30" x="100"/>
      </g>
     </g>
    </g>
    <g id="xtick_14">
     <g id="line2d_21">
      <g>
       <use xlink:href="#m58942b6217" x="1027.950808" y="309.916875" style="stroke: #000000; stroke-width: 0.8"/>
      </g>
     </g>
     <g id="text_20">
      <!-- 300 -->
      <g transform="translate(1012.950808 330.804375) scale(0.2 -0.2)">
       <use xlink:href="#TimesNewRomanPSMT-33"/>
       <use xlink:href="#TimesNewRomanPSMT-30" x="50"/>
       <use xlink:href="#TimesNewRomanPSMT-30" x="100"/>
      </g>
     </g>
    </g>
   </g>
   <g id="matplotlib.axis_4">
    <g id="ytick_3">
     <g id="line2d_22">
      <g>
       <use xlink:href="#m6216860f18" x="71.6375" y="274.676592" style="stroke: #000000; stroke-width: 0.8"/>
      </g>
     </g>
     <g id="text_21">
      <!-- 0.5 -->
      <g transform="translate(39.6375 281.620342) scale(0.2 -0.2)">
       <use xlink:href="#TimesNewRomanPSMT-30"/>
       <use xlink:href="#TimesNewRomanPSMT-2e" x="50"/>
       <use xlink:href="#TimesNewRomanPSMT-35" x="75"/>
      </g>
     </g>
    </g>
    <g id="ytick_4">
     <g id="line2d_23">
      <g>
       <use xlink:href="#m6216860f18" x="71.6375" y="236.123859" style="stroke: #000000; stroke-width: 0.8"/>
      </g>
     </g>
     <g id="text_22">
      <!-- 1.0 -->
      <g transform="translate(39.6375 243.067609) scale(0.2 -0.2)">
       <use xlink:href="#TimesNewRomanPSMT-31"/>
       <use xlink:href="#TimesNewRomanPSMT-2e" x="50"/>
       <use xlink:href="#TimesNewRomanPSMT-30" x="75"/>
      </g>
     </g>
    </g>
    <g id="text_23">
     <!-- CPU使用率 -->
     <g transform="translate(33.059375 301.788125) rotate(-90) scale(0.2 -0.2)">
      <use xlink:href="#SimSun-43"/>
      <use xlink:href="#SimSun-50" x="50"/>
      <use xlink:href="#SimSun-55" x="100"/>
      <use xlink:href="#SimSun-4f7f" x="150"/>
      <use xlink:href="#SimSun-7528" x="250"/>
      <use xlink:href="#SimSun-7387" x="350"/>
     </g>
    </g>
   </g>
   <g id="line2d_24">
    <path d="M 115.43811 231.43585 
L 118.479818 232.546169 
L 121.521527 233.286376 
L 124.563236 229.215212 
L 127.604945 229.585315 
L 130.646654 225.514151 
L 133.688363 231.065738 
L 136.730072 225.884255 
L 139.771781 231.065738 
L 142.81349 232.176057 
L 145.855199 229.215212 
L 148.896908 229.585315 
L 151.938617 229.215212 
L 154.980326 223.293513 
L 158.022035 217.741918 
L 161.063744 225.884255 
L 164.105453 226.994574 
L 167.147162 225.884255 
L 170.188871 229.215212 
L 173.23058 227.364677 
L 176.272289 229.215212 
L 179.313998 230.695634 
L 182.355707 230.325531 
L 185.397416 228.8451 
L 188.439125 229.955419 
L 191.480834 229.215212 
L 194.522543 227.73478 
L 197.564252 229.215212 
L 200.605961 224.403832 
L 203.64767 226.994574 
L 206.689379 226.62447 
L 209.731088 226.62447 
L 212.772797 224.403832 
L 215.814506 222.553297 
L 218.856215 216.261495 
L 221.897924 217.001702 
L 224.939633 219.962556 
L 227.981342 217.001702 
L 231.023051 221.442978 
L 234.06476 222.553297 
L 237.106469 219.592443 
L 240.148178 222.183194 
L 243.189887 220.702762 
L 246.231596 220.332659 
L 249.273305 221.813082 
L 252.315014 224.03372 
L 255.356723 221.813082 
L 258.398432 222.183194 
L 261.440141 218.112021 
L 264.48185 222.553297 
L 267.523559 225.884255 
L 270.565268 219.22234 
L 273.606977 219.22234 
L 279.690395 218.482124 
L 282.732104 218.852237 
L 285.773813 221.072875 
L 288.815522 221.442978 
L 291.857231 219.962556 
L 294.89894 219.962556 
L 297.940649 221.072875 
L 300.982358 221.813082 
L 304.024067 222.183194 
L 307.065776 219.962556 
L 310.107485 214.781064 
L 313.149194 217.001702 
L 316.190903 215.891383 
L 319.232612 216.631598 
L 322.274321 218.112021 
L 325.31603 218.112021 
L 328.357739 222.553297 
L 331.399448 219.962556 
L 334.441157 219.22234 
L 337.482866 219.962556 
L 340.524575 221.813082 
L 343.566284 219.962556 
L 346.607993 219.962556 
L 349.649702 225.884255 
L 352.691411 225.514151 
L 355.73312 229.955419 
L 358.774829 229.585315 
L 361.816538 222.553297 
L 364.858247 208.489261 
L 367.899956 232.176057 
L 370.941665 228.8451 
L 373.983374 235.136911 
L 377.025083 233.286376 
L 380.066792 238.467864 
L 383.108501 226.994574 
L 386.15021 246.240097 
L 389.191919 247.350417 
L 392.233628 250.681369 
L 395.275337 253.642223 
L 398.317046 252.161796 
L 401.358755 246.240097 
L 404.400464 256.603073 
L 407.442173 259.934026 
L 410.483882 257.713392 
L 413.525591 261.414453 
L 416.5673 257.343284 
L 419.609009 251.421585 
L 422.650718 266.225832 
L 425.692427 268.076363 
L 428.734136 269.55679 
L 431.775845 268.446471 
L 434.817554 273.25785 
L 437.859263 272.147531 
L 440.900972 276.588808 
L 443.942681 277.699127 
L 446.98439 279.919765 
L 450.026099 281.030084 
L 453.067808 279.549657 
L 456.109517 299.905496 
L 459.151226 282.510507 
L 462.192935 284.361041 
L 465.234644 285.471356 
L 468.276353 287.321891 
L 471.318062 288.062102 
L 474.359771 288.43221 
L 477.40148 290.28274 
L 480.443189 291.022952 
L 483.484898 292.133271 
L 486.526607 293.613693 
L 492.610025 293.613693 
L 495.651734 295.464225 
L 501.735152 296.944647 
L 504.776861 297.314755 
L 507.81857 298.054971 
L 510.860279 297.684858 
L 513.901988 298.795177 
L 516.943697 299.535393 
L 519.985406 299.535393 
L 526.068824 300.275609 
L 529.110533 300.275609 
L 535.193951 301.756031 
L 538.23566 301.756031 
L 544.319078 302.496238 
L 547.360787 301.756031 
L 550.402496 302.496238 
L 553.444205 302.496238 
L 556.485914 303.236454 
L 559.527623 302.86635 
L 562.569332 303.97667 
L 565.611041 303.236454 
L 568.65275 303.236454 
L 571.694459 303.97667 
L 574.736167 303.97667 
L 577.777876 304.346773 
L 580.819585 303.97667 
L 586.903003 303.97667 
L 589.944712 304.346773 
L 592.986421 303.97667 
L 596.02813 304.346773 
L 599.069839 304.346773 
L 602.111548 303.97667 
L 605.153257 305.086989 
L 608.194966 304.346773 
L 611.236675 304.346773 
L 614.278384 303.97667 
L 629.486929 303.97667 
L 632.528638 303.606557 
L 635.570347 302.86635 
L 638.612056 301.015815 
L 644.695474 301.756031 
L 650.778892 300.275609 
L 653.820601 300.275609 
L 656.86231 298.425074 
L 659.904019 298.795177 
L 662.945728 298.795177 
L 665.987437 298.054971 
L 669.029146 296.574544 
L 672.070855 295.834328 
L 675.112564 285.101253 
L 678.154273 291.763163 
L 681.195982 288.802313 
L 684.237691 288.802313 
L 687.2794 286.211572 
L 690.321109 284.731145 
L 693.362818 276.958916 
L 696.404527 282.510507 
L 699.446236 278.439338 
L 702.487945 278.439338 
L 705.529654 274.738277 
L 708.571363 271.777428 
L 711.613072 242.539032 
L 714.654781 264.005194 
L 717.69649 255.862857 
L 720.738199 260.304133 
L 723.779908 256.232965 
L 726.821617 255.862857 
L 729.863326 238.467864 
L 732.905035 255.492754 
L 735.946744 252.902008 
L 738.988453 254.012327 
L 742.030162 250.681369 
L 745.071871 248.460736 
L 748.11358 235.136911 
L 751.155289 241.428713 
L 754.196998 241.05861 
L 757.238707 244.019459 
L 760.280416 242.539032 
L 763.322125 242.90914 
L 766.363834 237.727652 
L 769.405543 246.240097 
L 772.447252 245.86999 
L 775.488961 245.86999 
L 778.53067 242.539032 
L 781.572379 240.318399 
L 784.614088 232.916273 
L 787.655797 228.8451 
L 790.697506 230.325531 
L 793.739215 229.585315 
L 796.780924 227.364677 
L 799.822633 230.325531 
L 802.864342 228.474996 
L 805.906051 234.766798 
L 808.94776 234.766798 
L 815.031178 231.065738 
L 818.072887 230.695634 
L 821.114596 221.813082 
L 824.156305 221.072875 
L 827.198014 219.962556 
L 830.239723 221.813082 
L 833.281432 226.254358 
L 836.323141 226.994574 
L 839.36485 224.773936 
L 842.406559 224.03372 
L 845.448268 218.482124 
L 848.489977 221.072875 
L 851.531686 224.773936 
L 854.573395 224.403832 
L 857.615104 225.144039 
L 860.656813 210.7099 
L 863.698522 216.261495 
L 866.740231 225.884255 
L 869.78194 226.62447 
L 872.823649 221.813082 
L 875.865358 225.144039 
L 878.907067 227.73478 
L 881.948776 227.364677 
L 884.990485 226.62447 
L 888.032194 226.994574 
L 891.073903 228.104893 
L 894.115612 275.478489 
L 897.157321 209.969684 
L 900.19903 212.930538 
L 903.240739 220.332659 
L 906.282448 219.962556 
L 909.324157 221.813082 
L 912.365866 226.254358 
L 918.449284 229.215212 
L 921.490993 229.215212 
L 924.532702 231.805954 
L 927.574411 231.805954 
L 930.61612 227.364677 
L 933.657829 226.254358 
L 936.699538 228.104893 
L 939.741247 231.43585 
L 942.782956 235.507014 
L 945.824665 233.656488 
L 948.866374 234.026592 
L 951.908083 232.916273 
L 954.949792 235.136911 
L 957.991501 234.766798 
L 961.03321 234.026592 
L 964.074919 236.247225 
L 967.116628 226.62447 
L 970.158337 222.553297 
L 973.200046 230.325531 
L 976.241755 231.43585 
L 979.283464 231.43585 
L 982.325173 233.286376 
L 985.366882 230.325531 
L 988.408591 234.396695 
L 991.4503 232.546169 
L 991.4503 232.546169 
" clip-path="url(#p3914b1809e)" style="fill: none; stroke: #1f77b4; stroke-width: 1.5; stroke-linecap: square"/>
   </g>
   <g id="line2d_25">
    <path d="M 556.485914 280.627166 
L 559.527623 282.323221 
L 562.569332 288.033341 
L 565.611041 291.389162 
L 568.65275 293.941032 
L 574.736167 297.353967 
L 577.777876 298.226625 
L 583.861294 297.16345 
L 592.986421 297.536651 
L 596.02813 297.874988 
L 599.069839 297.997559 
L 605.153257 298.008038 
L 608.194966 298.261352 
L 614.278384 298.350511 
L 620.361802 298.61309 
L 629.486929 297.997357 
L 632.528638 297.647154 
L 635.570347 297.117671 
L 638.612056 296.457193 
L 644.695474 296.770331 
L 647.737183 296.703333 
L 656.86231 295.978706 
L 659.904019 295.362371 
L 662.945728 294.545051 
L 665.987437 293.8784 
L 669.029146 292.942153 
L 672.070855 291.514495 
L 675.112564 289.318022 
L 684.237691 288.047336 
L 687.2794 286.99781 
L 690.321109 286.30506 
L 693.362818 285.11515 
L 696.404527 283.560266 
L 699.446236 281.526297 
L 702.487945 279.657448 
L 708.571363 275.076214 
L 711.613072 272.562517 
L 717.69649 271.672463 
L 720.738199 270.955889 
L 723.779908 269.715792 
L 726.821617 268.770634 
L 732.905035 266.365665 
L 735.946744 264.922593 
L 738.988453 263.640119 
L 742.030162 261.993074 
L 745.071871 260.042961 
L 748.11358 257.655273 
L 751.155289 258.25464 
L 754.196998 258.269576 
L 757.238707 257.823026 
L 760.280416 256.854957 
L 763.322125 256.290647 
L 766.363834 255.287287 
L 769.405543 254.571609 
L 775.488961 252.52809 
L 778.53067 250.932298 
L 781.572379 249.139643 
L 784.614088 246.592838 
L 787.655797 247.624003 
L 793.739215 248.003252 
L 796.780924 247.96563 
L 799.822633 248.09583 
L 802.864342 247.313374 
L 805.906051 246.679993 
L 808.94776 246.666146 
L 811.989469 246.179671 
L 815.031178 245.065423 
L 818.072887 243.570652 
L 821.114596 241.875461 
L 824.156305 242.768167 
L 827.198014 243.466051 
L 836.323141 244.933839 
L 842.406559 245.01644 
L 845.448268 245.559232 
L 848.489977 245.829174 
L 851.531686 245.381143 
L 854.573395 244.710683 
L 857.615104 243.730155 
L 860.656813 234.580998 
L 863.698522 226.538684 
L 866.740231 229.829419 
L 869.78194 235.550564 
L 872.823649 242.102813 
L 875.865358 244.903079 
L 878.907067 244.437557 
L 881.948776 243.245891 
L 884.990485 237.090246 
L 888.032194 229.982222 
L 891.073903 235.952462 
L 894.115612 247.343059 
L 897.157321 233.569609 
L 900.19903 222.681963 
L 903.240739 225.229402 
L 906.282448 226.792559 
L 909.324157 236.134958 
L 912.365866 237.609296 
L 915.407575 240.538553 
L 918.449284 241.298816 
L 921.490993 243.251494 
L 924.532702 242.078947 
L 930.61612 240.359214 
L 933.657829 238.629798 
L 936.699538 237.646835 
L 939.741247 239.940303 
L 942.782956 240.855988 
L 945.824665 243.661039 
L 948.866374 244.033449 
L 951.908083 245.508655 
L 954.949792 245.787793 
L 957.991501 246.656605 
L 961.03321 246.440348 
L 964.074919 246.900589 
L 967.116628 246.823669 
L 970.158337 246.445408 
L 973.200046 246.55745 
L 976.241755 248.097237 
L 982.325173 249.691925 
L 985.366882 250.369881 
L 988.408591 251.404842 
L 991.4503 252.068969 
L 991.4503 252.068969 
" clip-path="url(#p3914b1809e)" style="fill: none; stroke: #ff7f0e; stroke-width: 1.5; stroke-linecap: square"/>
   </g>
   <g id="line2d_26">
    <path d="M 556.485914 309.916875 
L 556.485914 203.659375 
" clip-path="url(#p3914b1809e)" style="fill: none; stroke-dasharray: 7.4,3.2; stroke-dashoffset: 0; stroke: #0000ff; stroke-width: 2"/>
   </g>
   <g id="patch_9">
    <path d="M 71.6375 309.916875 
L 71.6375 203.659375 
" style="fill: none; stroke: #000000; stroke-width: 0.8; stroke-linejoin: miter; stroke-linecap: square"/>
   </g>
   <g id="patch_10">
    <path d="M 1035.250909 309.916875 
L 1035.250909 203.659375 
" style="fill: none; stroke: #000000; stroke-width: 0.8; stroke-linejoin: miter; stroke-linecap: square"/>
   </g>
   <g id="patch_11">
    <path d="M 71.6375 309.916875 
L 1035.250909 309.916875 
" style="fill: none; stroke: #000000; stroke-width: 0.8; stroke-linejoin: miter; stroke-linecap: square"/>
   </g>
   <g id="patch_12">
    <path d="M 71.6375 203.659375 
L 1035.250909 203.659375 
" style="fill: none; stroke: #000000; stroke-width: 0.8; stroke-linejoin: miter; stroke-linecap: square"/>
   </g>
   <g id="text_24">
    <!-- 云函数ID: 72 -->
    <g transform="translate(493.444205 197.659375) scale(0.2 -0.2)">
     <defs>
      <path id="SimSun-37" d="M 2825 4200 
Q 2300 3350 1987 2537 
Q 1675 1725 1675 1125 
Q 1675 1025 1700 850 
Q 1700 650 1700 400 
Q 1700 200 1637 125 
Q 1575 50 1425 50 
Q 1300 50 1212 137 
Q 1125 225 1125 450 
Q 1125 925 1337 1625 
Q 1550 2325 2475 4000 
L 1225 4000 
Q 950 4000 787 3825 
Q 625 3650 550 3300 
L 400 3325 
L 575 4375 
L 2825 4375 
L 2825 4200 
z
" transform="scale(0.015625)"/>
     </defs>
     <use xlink:href="#SimSun-4e91"/>
     <use xlink:href="#SimSun-51fd" x="100"/>
     <use xlink:href="#SimSun-6570" x="200"/>
     <use xlink:href="#SimSun-49" x="300"/>
     <use xlink:href="#SimSun-44" x="350"/>
     <use xlink:href="#SimSun-3a" x="400"/>
     <use xlink:href="#SimSun-20" x="450"/>
     <use xlink:href="#SimSun-37" x="500"/>
     <use xlink:href="#SimSun-32" x="550"/>
    </g>
   </g>
  </g>
  <g id="axes_3">
   <g id="patch_13">
    <path d="M 71.6375 484.516875 
L 1035.250909 484.516875 
L 1035.250909 378.259375 
L 71.6375 378.259375 
z
" style="fill: #ffffff"/>
   </g>
   <g id="matplotlib.axis_5">
    <g id="xtick_15">
     <g id="line2d_27">
      <g>
       <use xlink:href="#m58942b6217" x="115.43811" y="484.516875" style="stroke: #000000; stroke-width: 0.8"/>
      </g>
     </g>
     <g id="text_25">
      <!-- 0 -->
      <g transform="translate(110.43811 505.404375) scale(0.2 -0.2)">
       <use xlink:href="#TimesNewRomanPSMT-30"/>
      </g>
     </g>
    </g>
    <g id="xtick_16">
     <g id="line2d_28">
      <g>
       <use xlink:href="#m58942b6217" x="267.523559" y="484.516875" style="stroke: #000000; stroke-width: 0.8"/>
      </g>
     </g>
     <g id="text_26">
      <!-- 50 -->
      <g transform="translate(257.523559 505.404375) scale(0.2 -0.2)">
       <use xlink:href="#TimesNewRomanPSMT-35"/>
       <use xlink:href="#TimesNewRomanPSMT-30" x="50"/>
      </g>
     </g>
    </g>
    <g id="xtick_17">
     <g id="line2d_29">
      <g>
       <use xlink:href="#m58942b6217" x="419.609009" y="484.516875" style="stroke: #000000; stroke-width: 0.8"/>
      </g>
     </g>
     <g id="text_27">
      <!-- 100 -->
      <g transform="translate(404.609009 505.404375) scale(0.2 -0.2)">
       <use xlink:href="#TimesNewRomanPSMT-31"/>
       <use xlink:href="#TimesNewRomanPSMT-30" x="50"/>
       <use xlink:href="#TimesNewRomanPSMT-30" x="100"/>
      </g>
     </g>
    </g>
    <g id="xtick_18">
     <g id="line2d_30">
      <g>
       <use xlink:href="#m58942b6217" x="571.694459" y="484.516875" style="stroke: #000000; stroke-width: 0.8"/>
      </g>
     </g>
     <g id="text_28">
      <!-- 150 -->
      <g transform="translate(556.694459 505.404375) scale(0.2 -0.2)">
       <use xlink:href="#TimesNewRomanPSMT-31"/>
       <use xlink:href="#TimesNewRomanPSMT-35" x="50"/>
       <use xlink:href="#TimesNewRomanPSMT-30" x="100"/>
      </g>
     </g>
    </g>
    <g id="xtick_19">
     <g id="line2d_31">
      <g>
       <use xlink:href="#m58942b6217" x="723.779908" y="484.516875" style="stroke: #000000; stroke-width: 0.8"/>
      </g>
     </g>
     <g id="text_29">
      <!-- 200 -->
      <g transform="translate(708.779908 505.404375) scale(0.2 -0.2)">
       <use xlink:href="#TimesNewRomanPSMT-32"/>
       <use xlink:href="#TimesNewRomanPSMT-30" x="50"/>
       <use xlink:href="#TimesNewRomanPSMT-30" x="100"/>
      </g>
     </g>
    </g>
    <g id="xtick_20">
     <g id="line2d_32">
      <g>
       <use xlink:href="#m58942b6217" x="875.865358" y="484.516875" style="stroke: #000000; stroke-width: 0.8"/>
      </g>
     </g>
     <g id="text_30">
      <!-- 250 -->
      <g transform="translate(860.865358 505.404375) scale(0.2 -0.2)">
       <use xlink:href="#TimesNewRomanPSMT-32"/>
       <use xlink:href="#TimesNewRomanPSMT-35" x="50"/>
       <use xlink:href="#TimesNewRomanPSMT-30" x="100"/>
      </g>
     </g>
    </g>
    <g id="xtick_21">
     <g id="line2d_33">
      <g>
       <use xlink:href="#m58942b6217" x="1027.950808" y="484.516875" style="stroke: #000000; stroke-width: 0.8"/>
      </g>
     </g>
     <g id="text_31">
      <!-- 300 -->
      <g transform="translate(1012.950808 505.404375) scale(0.2 -0.2)">
       <use xlink:href="#TimesNewRomanPSMT-33"/>
       <use xlink:href="#TimesNewRomanPSMT-30" x="50"/>
       <use xlink:href="#TimesNewRomanPSMT-30" x="100"/>
      </g>
     </g>
    </g>
   </g>
   <g id="matplotlib.axis_6">
    <g id="ytick_5">
     <g id="line2d_34">
      <g>
       <use xlink:href="#m6216860f18" x="71.6375" y="460.750089" style="stroke: #000000; stroke-width: 0.8"/>
      </g>
     </g>
     <g id="text_32">
      <!-- 1.0 -->
      <g transform="translate(39.6375 467.693839) scale(0.2 -0.2)">
       <use xlink:href="#TimesNewRomanPSMT-31"/>
       <use xlink:href="#TimesNewRomanPSMT-2e" x="50"/>
       <use xlink:href="#TimesNewRomanPSMT-30" x="75"/>
      </g>
     </g>
    </g>
    <g id="ytick_6">
     <g id="line2d_35">
      <g>
       <use xlink:href="#m6216860f18" x="71.6375" y="431.598458" style="stroke: #000000; stroke-width: 0.8"/>
      </g>
     </g>
     <g id="text_33">
      <!-- 2.0 -->
      <g transform="translate(39.6375 438.542208) scale(0.2 -0.2)">
       <use xlink:href="#TimesNewRomanPSMT-32"/>
       <use xlink:href="#TimesNewRomanPSMT-2e" x="50"/>
       <use xlink:href="#TimesNewRomanPSMT-30" x="75"/>
      </g>
     </g>
    </g>
    <g id="ytick_7">
     <g id="line2d_36">
      <g>
       <use xlink:href="#m6216860f18" x="71.6375" y="402.446828" style="stroke: #000000; stroke-width: 0.8"/>
      </g>
     </g>
     <g id="text_34">
      <!-- 3.0 -->
      <g transform="translate(39.6375 409.390578) scale(0.2 -0.2)">
       <use xlink:href="#TimesNewRomanPSMT-33"/>
       <use xlink:href="#TimesNewRomanPSMT-2e" x="50"/>
       <use xlink:href="#TimesNewRomanPSMT-30" x="75"/>
      </g>
     </g>
    </g>
    <g id="text_35">
     <!-- CPU使用率 -->
     <g transform="translate(33.059375 476.388125) rotate(-90) scale(0.2 -0.2)">
      <use xlink:href="#SimSun-43"/>
      <use xlink:href="#SimSun-50" x="50"/>
      <use xlink:href="#SimSun-55" x="100"/>
      <use xlink:href="#SimSun-4f7f" x="150"/>
      <use xlink:href="#SimSun-7528" x="250"/>
      <use xlink:href="#SimSun-7387" x="350"/>
     </g>
    </g>
   </g>
   <g id="line2d_37">
    <path d="M 115.43811 411.402207 
L 118.479818 411.682068 
L 121.521527 410.422717 
L 124.563236 410.70257 
L 127.604945 412.241775 
L 130.646654 410.982424 
L 133.688363 411.961921 
L 136.730072 410.422717 
L 139.771781 411.262284 
L 142.81349 398.668775 
L 145.855199 408.043938 
L 148.896908 412.101851 
L 151.938617 411.821991 
L 154.980326 412.521635 
L 158.022035 413.920909 
L 161.063744 412.101851 
L 164.105453 414.760476 
L 167.147162 416.859395 
L 170.188871 417.279178 
L 173.23058 416.859395 
L 176.272289 419.238166 
L 179.313998 416.999325 
L 182.355707 420.357594 
L 185.397416 420.357594 
L 188.439125 424.695353 
L 191.480834 424.555423 
L 194.522543 427.353978 
L 197.564252 427.493909 
L 200.605961 428.75326 
L 203.64767 430.852178 
L 209.731088 435.889578 
L 212.772797 433.091023 
L 215.814506 456.598896 
L 218.856215 438.40828 
L 221.897924 439.527704 
L 224.939633 441.346762 
L 227.981342 444.14532 
L 231.023051 445.264741 
L 234.06476 447.783443 
L 237.106469 448.62301 
L 240.148178 450.022288 
L 243.189887 451.981279 
L 246.231596 453.80034 
L 249.273305 455.339545 
L 252.315014 456.179112 
L 255.356723 458.27803 
L 258.398432 459.537381 
L 261.440141 460.516875 
L 264.48185 462.475865 
L 267.523559 464.154999 
L 270.565268 463.455361 
L 276.648686 466.533773 
L 279.690395 467.233412 
L 282.732104 468.352834 
L 285.773813 468.492762 
L 288.815522 468.072979 
L 291.857231 467.233412 
L 294.89894 468.072979 
L 297.940649 469.052473 
L 300.982358 469.192401 
L 304.024067 470.031969 
L 307.065776 470.311824 
L 310.107485 471.011463 
L 313.149194 471.85103 
L 316.190903 472.130885 
L 319.232612 471.990956 
L 322.274321 472.830524 
L 325.31603 474.089875 
L 328.357739 475.489154 
L 331.399448 476.188793 
L 334.441157 476.468648 
L 337.482866 477.168287 
L 343.566284 477.168287 
L 346.607993 477.448142 
L 349.649702 477.867926 
L 355.73312 478.147783 
L 358.774829 478.147783 
L 361.816538 473.949946 
L 364.858247 479.54706 
L 367.899956 479.267205 
L 370.941665 479.54706 
L 373.983374 479.267205 
L 377.025083 479.686989 
L 380.066792 479.267205 
L 383.108501 479.267205 
L 389.191919 479.54706 
L 392.233628 479.407132 
L 395.275337 479.407132 
L 398.317046 478.147783 
L 401.358755 478.567566 
L 404.400464 478.287709 
L 407.442173 478.287709 
L 410.483882 478.007854 
L 416.5673 476.608576 
L 419.609009 476.32872 
L 422.650718 475.769009 
L 425.692427 475.06937 
L 428.734136 474.509658 
L 431.775845 473.250307 
L 434.817554 468.072979 
L 437.859263 469.89204 
L 440.900972 468.492762 
L 443.942681 467.653195 
L 446.98439 465.974061 
L 450.026099 464.994567 
L 453.067808 459.957165 
L 456.109517 460.516875 
L 459.151226 458.557887 
L 462.192935 457.298536 
L 465.234644 454.779834 
L 468.276353 454.499978 
L 471.318062 435.329867 
L 474.359771 447.92337 
L 477.40148 446.104308 
L 480.443189 444.565104 
L 483.484898 442.046402 
L 486.526607 442.186329 
L 489.568316 438.828063 
L 492.610025 438.40828 
L 495.651734 436.029508 
L 498.693443 437.288859 
L 501.735152 433.230949 
L 504.776861 431.831672 
L 507.81857 423.575933 
L 510.860279 424.975207 
L 513.901988 424.835284 
L 516.943697 424.975207 
L 519.985406 423.016219 
L 523.027115 423.156149 
L 526.068824 421.756868 
L 529.110533 425.534921 
L 532.152242 425.814774 
L 535.193951 425.115137 
L 538.23566 425.115137 
L 541.277369 421.057231 
L 544.319078 421.057231 
L 547.360787 420.217664 
L 550.402496 420.917301 
L 553.444205 420.497517 
L 556.485914 416.159757 
L 559.527623 422.036721 
L 562.569332 418.958313 
L 565.611041 423.296072 
L 568.65275 424.27557 
L 571.694459 424.555423 
L 574.736167 420.77737 
L 577.777876 423.575933 
L 580.819585 413.780979 
L 583.861294 416.299681 
L 586.903003 415.739974 
L 589.944712 420.497517 
L 592.986421 421.616938 
L 596.02813 423.436002 
L 599.069839 423.855786 
L 602.111548 421.477014 
L 605.153257 420.637447 
L 608.194966 421.057231 
L 611.236675 423.156149 
L 614.278384 424.975207 
L 617.320093 422.736365 
L 620.361802 419.518027 
L 623.403511 420.497517 
L 626.44522 424.27557 
L 629.486929 423.995716 
L 632.528638 420.497517 
L 635.570347 423.575933 
L 638.612056 425.534921 
L 641.653765 425.115137 
L 644.695474 422.736365 
L 647.737183 422.596435 
L 650.778892 423.855786 
L 653.820601 445.824455 
L 656.86231 411.122354 
L 659.904019 412.241775 
L 662.945728 417.139248 
L 665.987437 417.838892 
L 669.029146 417.838892 
L 672.070855 419.378096 
L 675.112564 421.896798 
L 678.154273 421.057231 
L 681.195982 423.715856 
L 684.237691 421.616938 
L 687.2794 424.555423 
L 690.321109 420.497517 
L 693.362818 420.077733 
L 699.446236 426.934195 
L 702.487945 426.234558 
L 705.529654 425.814774 
L 708.571363 423.855786 
L 711.613072 426.094628 
L 714.654781 426.094628 
L 717.69649 427.493909 
L 720.738199 425.814774 
L 723.779908 426.654341 
L 726.821617 419.378096 
L 729.863326 417.419108 
L 732.905035 424.27557 
L 735.946744 424.835284 
L 738.988453 420.637447 
L 742.030162 420.357594 
L 745.071871 418.958313 
L 748.11358 421.756868 
L 751.155289 423.995716 
L 754.196998 427.493909 
L 757.238707 425.39499 
L 760.280416 424.4155 
L 763.322125 420.637447 
L 766.363834 420.77737 
L 772.447252 425.534921 
L 775.488961 425.39499 
L 778.53067 426.094628 
L 781.572379 424.27557 
L 787.655797 424.27557 
L 790.697506 425.534921 
L 793.739215 425.39499 
L 796.780924 424.13564 
L 799.822633 423.016219 
L 802.864342 423.016219 
L 805.906051 426.094628 
L 808.94776 419.65795 
L 811.989469 420.637447 
L 815.031178 423.715856 
L 818.072887 417.419108 
L 821.114596 421.197154 
L 824.156305 422.736365 
L 827.198014 422.876289 
L 830.239723 416.019827 
L 833.281432 418.958313 
L 836.323141 416.439611 
L 839.36485 416.439611 
L 842.406559 412.241775 
L 845.448268 417.139248 
L 848.489977 416.159757 
L 851.531686 414.620546 
L 854.573395 410.422717 
L 857.615104 411.682068 
L 860.656813 410.8425 
L 863.698522 410.282787 
L 866.740231 412.101851 
L 869.78194 410.56264 
L 872.823649 405.10546 
L 875.865358 409.023436 
L 878.907067 406.22488 
L 881.948776 403.706179 
L 884.990485 404.825599 
L 888.032194 403.426325 
L 891.073903 399.788196 
L 894.115612 405.245383 
L 897.157321 401.60726 
L 900.19903 403.146465 
L 903.240739 403.146465 
L 906.282448 400.48784 
L 909.324157 404.685676 
L 912.365866 406.22488 
L 915.407575 408.883505 
L 918.449284 405.665167 
L 921.490993 400.907623 
L 924.532702 410.8425 
L 927.574411 407.064448 
L 930.61612 409.863003 
L 933.657829 410.70257 
L 936.699538 412.241775 
L 939.741247 409.863003 
L 942.782956 411.682068 
L 945.824665 405.245383 
L 948.866374 408.463722 
L 951.908083 408.603652 
L 954.949792 411.542137 
L 957.991501 408.463722 
L 961.03321 410.982424 
L 964.074919 410.56264 
L 967.116628 409.023436 
L 970.158337 412.101851 
L 973.200046 412.101851 
L 976.241755 411.122354 
L 979.283464 409.023436 
L 982.325173 399.928126 
L 985.366882 407.624155 
L 988.408591 407.204371 
L 991.4503 408.183868 
L 991.4503 408.183868 
" clip-path="url(#p41c9d8bdf1)" style="fill: none; stroke: #1f77b4; stroke-width: 1.5; stroke-linecap: square"/>
   </g>
   <g id="line2d_38">
    <path d="M 556.485914 436.265324 
L 559.527623 432.103108 
L 562.569332 430.379475 
L 565.611041 429.0315 
L 568.65275 429.595968 
L 571.694459 429.925329 
L 574.736167 429.463058 
L 577.777876 428.602702 
L 580.819585 425.718728 
L 583.861294 425.983013 
L 586.903003 426.74644 
L 592.986421 429.530726 
L 599.069839 431.171474 
L 602.111548 431.56541 
L 605.153257 432.492544 
L 608.194966 432.886608 
L 611.236675 432.675725 
L 614.278384 431.937521 
L 617.320093 430.726468 
L 620.361802 430.144332 
L 623.403511 421.229654 
L 626.44522 424.289575 
L 629.486929 426.784611 
L 632.528638 429.838116 
L 635.570347 432.273019 
L 638.612056 433.609139 
L 641.653765 434.050875 
L 644.695474 434.278212 
L 647.737183 434.767916 
L 650.778892 438.194892 
L 653.820601 448.56901 
L 656.86231 435.328974 
L 659.904019 428.903587 
L 662.945728 430.476396 
L 665.987437 432.821758 
L 669.029146 435.456231 
L 672.070855 436.220745 
L 675.112564 437.339464 
L 678.154273 437.932793 
L 681.195982 438.108211 
L 687.2794 437.822777 
L 690.321109 437.568535 
L 693.362818 436.545564 
L 696.404527 436.116293 
L 699.446236 437.27141 
L 705.529654 438.126793 
L 711.613072 438.058506 
L 714.654781 437.954266 
L 717.69649 437.678534 
L 723.779908 436.567589 
L 726.821617 435.668979 
L 729.863326 432.92399 
L 732.905035 431.618614 
L 735.946744 432.526899 
L 738.988453 432.169334 
L 745.071871 432.403969 
L 748.11358 432.520796 
L 751.155289 432.340631 
L 754.196998 432.004744 
L 760.280416 430.975705 
L 763.322125 430.187299 
L 766.363834 425.907567 
L 769.405543 424.032803 
L 772.447252 425.226376 
L 775.488961 424.229656 
L 778.53067 423.536121 
L 784.614088 422.946334 
L 790.697506 419.402047 
L 793.739215 416.809304 
L 799.822633 412.071312 
L 802.864342 403.693321 
L 805.906051 403.808876 
L 808.94776 404.943643 
L 811.989469 403.844795 
L 815.031178 401.650373 
L 818.072887 400.316147 
L 821.114596 398.604582 
L 824.156305 396.344181 
L 830.239723 392.629091 
L 833.281432 391.325168 
L 836.323141 390.544087 
L 839.36485 386.841299 
L 842.406559 387.553565 
L 845.448268 389.575627 
L 848.489977 389.850969 
L 851.531686 389.119361 
L 854.573395 389.173455 
L 857.615104 388.674542 
L 860.656813 388.442813 
L 866.740231 387.690361 
L 869.78194 387.455607 
L 872.823649 387.433283 
L 875.865358 383.983083 
L 878.907067 384.777668 
L 881.948776 386.242434 
L 884.990485 386.960156 
L 888.032194 386.589796 
L 891.073903 387.021597 
L 894.115612 387.05354 
L 897.157321 387.41547 
L 900.19903 387.602015 
L 903.240739 387.438475 
L 909.324157 387.514358 
L 912.365866 384.794411 
L 915.407575 386.756082 
L 918.449284 387.8181 
L 921.490993 389.124087 
L 924.532702 387.696352 
L 927.574411 388.481602 
L 930.61612 387.767335 
L 933.657829 387.627314 
L 936.699538 386.953998 
L 939.741247 387.002747 
L 942.782956 386.498761 
L 945.824665 386.533957 
L 948.866374 384.982451 
L 951.908083 385.249182 
L 954.949792 385.892015 
L 957.991501 386.351053 
L 961.03321 385.506899 
L 964.074919 386.058133 
L 967.116628 385.981847 
L 970.158337 385.703787 
L 973.200046 385.225086 
L 976.241755 384.971622 
L 979.283464 385.015173 
L 982.325173 384.397334 
L 985.366882 384.305958 
L 988.408591 383.089261 
L 991.4503 383.765698 
L 991.4503 383.765698 
" clip-path="url(#p41c9d8bdf1)" style="fill: none; stroke: #ff7f0e; stroke-width: 1.5; stroke-linecap: square"/>
   </g>
   <g id="line2d_39">
    <path d="M 556.485914 484.516875 
L 556.485914 378.259375 
" clip-path="url(#p41c9d8bdf1)" style="fill: none; stroke-dasharray: 7.4,3.2; stroke-dashoffset: 0; stroke: #0000ff; stroke-width: 2"/>
   </g>
   <g id="patch_14">
    <path d="M 71.6375 484.516875 
L 71.6375 378.259375 
" style="fill: none; stroke: #000000; stroke-width: 0.8; stroke-linejoin: miter; stroke-linecap: square"/>
   </g>
   <g id="patch_15">
    <path d="M 1035.250909 484.516875 
L 1035.250909 378.259375 
" style="fill: none; stroke: #000000; stroke-width: 0.8; stroke-linejoin: miter; stroke-linecap: square"/>
   </g>
   <g id="patch_16">
    <path d="M 71.6375 484.516875 
L 1035.250909 484.516875 
" style="fill: none; stroke: #000000; stroke-width: 0.8; stroke-linejoin: miter; stroke-linecap: square"/>
   </g>
   <g id="patch_17">
    <path d="M 71.6375 378.259375 
L 1035.250909 378.259375 
" style="fill: none; stroke: #000000; stroke-width: 0.8; stroke-linejoin: miter; stroke-linecap: square"/>
   </g>
   <g id="text_36">
    <!-- 云函数ID: 150 -->
    <g transform="translate(488.444205 372.259375) scale(0.2 -0.2)">
     <defs>
      <path id="SimSun-31" d="M 1825 4450 
L 1825 650 
Q 1825 450 1950 350 
Q 2075 250 2300 250 
L 2550 250 
L 2550 100 
L 725 100 
L 725 250 
L 950 250 
Q 1200 250 1312 350 
Q 1425 450 1425 650 
L 1425 3675 
Q 1425 3775 1362 3837 
Q 1300 3900 1175 3900 
L 725 3900 
L 725 4050 
L 950 4050 
Q 1250 4050 1437 4150 
Q 1625 4250 1725 4450 
L 1825 4450 
z
" transform="scale(0.015625)"/>
      <path id="SimSun-35" d="M 1725 2850 
Q 2200 2850 2500 2487 
Q 2800 2125 2800 1525 
Q 2800 850 2487 450 
Q 2175 50 1525 50 
Q 1075 50 725 312 
Q 375 575 375 950 
Q 375 1100 462 1212 
Q 550 1325 700 1325 
Q 850 1325 900 1225 
Q 950 1125 950 1050 
Q 950 900 875 825 
Q 800 725 800 625 
Q 800 425 1037 325 
Q 1275 225 1550 225 
Q 1950 225 2162 550 
Q 2375 875 2375 1475 
Q 2375 1975 2187 2287 
Q 2000 2600 1625 2600 
Q 1350 2600 1150 2500 
Q 950 2400 775 2075 
L 550 2100 
L 675 4375 
L 2725 4375 
L 2650 4000 
L 850 4000 
L 750 2350 
Q 1000 2700 1237 2775 
Q 1475 2850 1725 2850 
z
" transform="scale(0.015625)"/>
      <path id="SimSun-30" d="M 1600 4225 
Q 1250 4225 1012 3687 
Q 775 3150 775 2250 
Q 775 1300 1012 775 
Q 1250 250 1600 250 
Q 1975 250 2187 775 
Q 2400 1300 2400 2250 
Q 2400 3150 2200 3687 
Q 2000 4225 1600 4225 
z
M 1600 50 
Q 1050 50 675 625 
Q 300 1200 300 2250 
Q 300 3225 662 3825 
Q 1025 4425 1600 4425 
Q 2150 4425 2512 3850 
Q 2875 3275 2875 2250 
Q 2875 1225 2512 637 
Q 2150 50 1600 50 
z
" transform="scale(0.015625)"/>
     </defs>
     <use xlink:href="#SimSun-4e91"/>
     <use xlink:href="#SimSun-51fd" x="100"/>
     <use xlink:href="#SimSun-6570" x="200"/>
     <use xlink:href="#SimSun-49" x="300"/>
     <use xlink:href="#SimSun-44" x="350"/>
     <use xlink:href="#SimSun-3a" x="400"/>
     <use xlink:href="#SimSun-20" x="450"/>
     <use xlink:href="#SimSun-31" x="500"/>
     <use xlink:href="#SimSun-35" x="550"/>
     <use xlink:href="#SimSun-30" x="600"/>
    </g>
   </g>
  </g>
  <g id="axes_4">
   <g id="patch_18">
    <path d="M 71.6375 659.116875 
L 1035.250909 659.116875 
L 1035.250909 552.859375 
L 71.6375 552.859375 
z
" style="fill: #ffffff"/>
   </g>
   <g id="matplotlib.axis_7">
    <g id="xtick_22">
     <g id="line2d_40">
      <g>
       <use xlink:href="#m58942b6217" x="115.43811" y="659.116875" style="stroke: #000000; stroke-width: 0.8"/>
      </g>
     </g>
     <g id="text_37">
      <!-- 0 -->
      <g transform="translate(110.43811 680.004375) scale(0.2 -0.2)">
       <use xlink:href="#TimesNewRomanPSMT-30"/>
      </g>
     </g>
    </g>
    <g id="xtick_23">
     <g id="line2d_41">
      <g>
       <use xlink:href="#m58942b6217" x="267.523559" y="659.116875" style="stroke: #000000; stroke-width: 0.8"/>
      </g>
     </g>
     <g id="text_38">
      <!-- 50 -->
      <g transform="translate(257.523559 680.004375) scale(0.2 -0.2)">
       <use xlink:href="#TimesNewRomanPSMT-35"/>
       <use xlink:href="#TimesNewRomanPSMT-30" x="50"/>
      </g>
     </g>
    </g>
    <g id="xtick_24">
     <g id="line2d_42">
      <g>
       <use xlink:href="#m58942b6217" x="419.609009" y="659.116875" style="stroke: #000000; stroke-width: 0.8"/>
      </g>
     </g>
     <g id="text_39">
      <!-- 100 -->
      <g transform="translate(404.609009 680.004375) scale(0.2 -0.2)">
       <use xlink:href="#TimesNewRomanPSMT-31"/>
       <use xlink:href="#TimesNewRomanPSMT-30" x="50"/>
       <use xlink:href="#TimesNewRomanPSMT-30" x="100"/>
      </g>
     </g>
    </g>
    <g id="xtick_25">
     <g id="line2d_43">
      <g>
       <use xlink:href="#m58942b6217" x="571.694459" y="659.116875" style="stroke: #000000; stroke-width: 0.8"/>
      </g>
     </g>
     <g id="text_40">
      <!-- 150 -->
      <g transform="translate(556.694459 680.004375) scale(0.2 -0.2)">
       <use xlink:href="#TimesNewRomanPSMT-31"/>
       <use xlink:href="#TimesNewRomanPSMT-35" x="50"/>
       <use xlink:href="#TimesNewRomanPSMT-30" x="100"/>
      </g>
     </g>
    </g>
    <g id="xtick_26">
     <g id="line2d_44">
      <g>
       <use xlink:href="#m58942b6217" x="723.779908" y="659.116875" style="stroke: #000000; stroke-width: 0.8"/>
      </g>
     </g>
     <g id="text_41">
      <!-- 200 -->
      <g transform="translate(708.779908 680.004375) scale(0.2 -0.2)">
       <use xlink:href="#TimesNewRomanPSMT-32"/>
       <use xlink:href="#TimesNewRomanPSMT-30" x="50"/>
       <use xlink:href="#TimesNewRomanPSMT-30" x="100"/>
      </g>
     </g>
    </g>
    <g id="xtick_27">
     <g id="line2d_45">
      <g>
       <use xlink:href="#m58942b6217" x="875.865358" y="659.116875" style="stroke: #000000; stroke-width: 0.8"/>
      </g>
     </g>
     <g id="text_42">
      <!-- 250 -->
      <g transform="translate(860.865358 680.004375) scale(0.2 -0.2)">
       <use xlink:href="#TimesNewRomanPSMT-32"/>
       <use xlink:href="#TimesNewRomanPSMT-35" x="50"/>
       <use xlink:href="#TimesNewRomanPSMT-30" x="100"/>
      </g>
     </g>
    </g>
    <g id="xtick_28">
     <g id="line2d_46">
      <g>
       <use xlink:href="#m58942b6217" x="1027.950808" y="659.116875" style="stroke: #000000; stroke-width: 0.8"/>
      </g>
     </g>
     <g id="text_43">
      <!-- 300 -->
      <g transform="translate(1012.950808 680.004375) scale(0.2 -0.2)">
       <use xlink:href="#TimesNewRomanPSMT-33"/>
       <use xlink:href="#TimesNewRomanPSMT-30" x="50"/>
       <use xlink:href="#TimesNewRomanPSMT-30" x="100"/>
      </g>
     </g>
    </g>
   </g>
   <g id="matplotlib.axis_8">
    <g id="ytick_8">
     <g id="line2d_47">
      <g>
       <use xlink:href="#m6216860f18" x="71.6375" y="624.278848" style="stroke: #000000; stroke-width: 0.8"/>
      </g>
     </g>
     <g id="text_44">
      <!-- 10.0 -->
      <g transform="translate(29.6375 631.222598) scale(0.2 -0.2)">
       <use xlink:href="#TimesNewRomanPSMT-31"/>
       <use xlink:href="#TimesNewRomanPSMT-30" x="50"/>
       <use xlink:href="#TimesNewRomanPSMT-2e" x="100"/>
       <use xlink:href="#TimesNewRomanPSMT-30" x="125"/>
      </g>
     </g>
    </g>
    <g id="ytick_9">
     <g id="line2d_48">
      <g>
       <use xlink:href="#m6216860f18" x="71.6375" y="554.528165" style="stroke: #000000; stroke-width: 0.8"/>
      </g>
     </g>
     <g id="text_45">
      <!-- 20.0 -->
      <g transform="translate(29.6375 561.471915) scale(0.2 -0.2)">
       <use xlink:href="#TimesNewRomanPSMT-32"/>
       <use xlink:href="#TimesNewRomanPSMT-30" x="50"/>
       <use xlink:href="#TimesNewRomanPSMT-2e" x="100"/>
       <use xlink:href="#TimesNewRomanPSMT-30" x="125"/>
      </g>
     </g>
    </g>
    <g id="text_46">
     <!-- CPU使用率 -->
     <g transform="translate(23.059375 650.988125) rotate(-90) scale(0.2 -0.2)">
      <use xlink:href="#SimSun-43"/>
      <use xlink:href="#SimSun-50" x="50"/>
      <use xlink:href="#SimSun-55" x="100"/>
      <use xlink:href="#SimSun-4f7f" x="150"/>
      <use xlink:href="#SimSun-7528" x="250"/>
      <use xlink:href="#SimSun-7387" x="350"/>
     </g>
    </g>
   </g>
   <g id="line2d_49">
    <path d="M 115.43811 592.81431 
L 118.479818 595.060286 
L 121.521527 594.3279 
L 124.563236 599.7015 
L 127.604945 600.963985 
L 130.646654 599.278809 
L 133.688363 601.960021 
L 136.730072 602.738438 
L 139.771781 601.095122 
L 142.81349 601.268099 
L 145.855199 604.425011 
L 148.896908 605.808868 
L 151.938617 600.749147 
L 154.980326 654.286989 
L 158.022035 599.840998 
L 161.063744 599.624769 
L 164.105453 600.489682 
L 167.147162 604.338523 
L 170.188871 600.403187 
L 173.23058 602.003272 
L 176.272289 601.18161 
L 179.313998 601.61406 
L 182.355707 600.619421 
L 188.439125 604.770979 
L 191.480834 598.976092 
L 194.522543 604.684484 
L 197.564252 605.852113 
L 200.605961 604.381767 
L 203.64767 608.317103 
L 206.689379 608.749553 
L 209.731088 604.857468 
L 212.772797 606.457553 
L 215.814506 606.933253 
L 218.856215 610.306394 
L 221.897924 613.969692 
L 224.939633 616.020367 
L 227.981342 609.156905 
L 231.023051 613.132691 
L 234.06476 614.806706 
L 237.106469 616.104068 
L 240.148178 616.731825 
L 243.189887 618.531395 
L 246.231596 616.271471 
L 249.273305 615.769262 
L 255.356723 619.368396 
L 258.398432 616.271471 
L 261.440141 617.150326 
L 264.48185 613.802296 
L 267.523559 619.159146 
L 270.565268 619.6195 
L 273.606977 618.112888 
L 276.648686 618.40584 
L 279.690395 619.41025 
L 282.732104 616.39702 
L 285.773813 618.40584 
L 288.815522 618.99175 
L 291.857231 618.280291 
L 294.89894 617.275881 
L 297.940649 619.954306 
L 300.982358 613.46749 
L 304.024067 619.075445 
L 307.065776 615.267061 
L 310.107485 614.890401 
L 313.149194 615.476311 
L 316.190903 617.066624 
L 319.232612 615.560012 
L 322.274321 617.819937 
L 325.31603 616.731825 
L 328.357739 615.267061 
L 331.399448 617.108472 
L 334.441157 619.954306 
L 337.482866 615.05781 
L 340.524575 614.430047 
L 343.566284 613.383789 
L 349.649702 613.132691 
L 352.691411 615.015956 
L 355.73312 617.778083 
L 358.774829 616.522568 
L 361.816538 617.485131 
L 364.858247 617.610687 
L 367.899956 618.698792 
L 370.941665 617.987333 
L 373.983374 613.718595 
L 377.025083 614.388199 
L 380.066792 612.756038 
L 383.108501 616.313325 
L 386.15021 616.187763 
L 389.191919 612.630483 
L 392.233628 612.46308 
L 395.275337 613.634893 
L 398.317046 612.923435 
L 401.358755 610.454266 
L 404.400464 611.66792 
L 407.442173 610.789065 
L 410.483882 609.073197 
L 413.525591 610.161308 
L 416.5673 593.030538 
L 419.609009 586.564656 
L 422.650718 591.691329 
L 425.692427 594.718509 
L 428.734136 594.376732 
L 431.775845 596.329749 
L 434.817554 596.280924 
L 437.859263 599.601055 
L 440.900972 601.700548 
L 443.942681 604.07905 
L 446.98439 602.248788 
L 450.026099 581.198041 
L 459.151226 586.875748 
L 462.192935 588.0629 
L 465.234644 599.181158 
L 468.276353 598.644073 
L 471.318062 601.222061 
L 474.359771 600.623599 
L 477.40148 598.690112 
L 480.443189 595.145384 
L 483.484898 602.000484 
L 486.526607 581.350091 
L 489.568316 572.317391 
L 492.610025 575.922105 
L 495.651734 569.984913 
L 498.693443 585.729046 
L 501.735152 589.492789 
L 504.776861 593.998682 
L 507.81857 596.65479 
L 510.860279 594.994724 
L 513.901988 597.603397 
L 516.943697 600.733808 
L 519.985406 594.378129 
L 523.027115 577.982532 
L 526.068824 578.907431 
L 529.110533 582.062953 
L 532.152242 592.911967 
L 535.193951 591.740154 
L 538.23566 591.398377 
L 541.277369 587.541162 
L 544.319078 589.005926 
L 547.360787 591.544853 
L 550.402496 594.572033 
L 553.444205 598.673369 
L 556.485914 597.745689 
L 559.527623 581.517494 
L 565.611041 596.23768 
L 568.65275 595.240241 
L 571.694459 595.731287 
L 574.736167 595.552722 
L 577.777876 597.025862 
L 580.819585 592.427899 
L 583.861294 593.142145 
L 586.903003 594.749194 
L 589.944712 597.918672 
L 592.986421 642.235463 
L 596.02813 565.891946 
L 599.069839 557.689261 
L 602.111548 572.16115 
L 605.153257 581.535627 
L 608.194966 584.850184 
L 611.236675 587.511866 
L 614.278384 592.081938 
L 617.320093 592.165633 
L 620.361802 597.338343 
L 623.403511 598.09723 
L 626.44522 599.570363 
L 629.486929 601.17742 
L 632.528638 585.123606 
L 635.570347 583.042239 
L 638.612056 590.073111 
L 641.653765 598.476677 
L 644.695474 595.240241 
L 647.737183 597.963307 
L 650.778892 597.47226 
L 653.820601 598.231154 
L 656.86231 599.436446 
L 659.904019 600.373891 
L 662.945728 602.56127 
L 665.987437 596.043769 
L 669.029146 590.508354 
L 672.070855 598.766835 
L 675.112564 603.766569 
L 678.154273 599.347164 
L 681.195982 602.56127 
L 684.237691 602.56127 
L 687.2794 598.990041 
L 690.321109 602.6952 
L 693.362818 602.516635 
L 696.404527 602.963041 
L 699.446236 598.9454 
L 702.487945 597.47226 
L 705.529654 597.740108 
L 708.571363 602.427353 
L 711.613072 603.543363 
L 714.654781 600.597097 
L 717.69649 602.159512 
L 720.738199 600.95422 
L 723.779908 594.70456 
L 726.821617 602.338071 
L 729.863326 602.382718 
L 732.905035 603.543363 
L 735.946744 602.204154 
L 738.988453 600.46318 
L 742.030162 601.623825 
L 745.071871 601.757742 
L 748.11358 601.088144 
L 751.155289 604.391532 
L 754.196998 607.025316 
L 757.238707 603.230881 
L 760.280416 603.320164 
L 763.322125 605.730748 
L 766.363834 603.588004 
L 769.405543 598.900759 
L 772.447252 603.855845 
L 775.488961 600.418533 
L 778.53067 600.731021 
L 781.572379 602.114871 
L 784.614088 600.552456 
L 787.655797 599.972134 
L 790.697506 602.276693 
L 793.739215 602.204154 
L 796.780924 599.972134 
L 799.822633 600.597097 
L 802.864342 600.284616 
L 805.906051 603.320164 
L 808.94776 604.257615 
L 811.989469 591.942433 
L 815.031178 592.734799 
L 818.072887 593.88987 
L 821.114596 589.068707 
L 824.156305 590.776195 
L 827.198014 590.374437 
L 830.239723 580.308024 
L 833.281432 580.023441 
L 836.323141 577.467778 
L 839.36485 576.262485 
L 842.406559 578.371737 
L 845.448268 574.354096 
L 848.489977 588.666936 
L 851.531686 582.640482 
L 854.573395 586.75856 
L 857.615104 583.59467 
L 860.656813 578.221084 
L 863.698522 589.018478 
L 866.740231 588.666936 
L 869.78194 589.671353 
L 872.823649 589.621124 
L 875.865358 590.022895 
L 878.907067 590.022895 
L 881.948776 591.730389 
L 884.990485 589.922451 
L 888.032194 588.466054 
L 891.073903 578.522403 
L 894.115612 578.968802 
L 897.157321 578.466607 
L 900.19903 585.553268 
L 903.240739 584.297754 
L 906.282448 584.59908 
L 909.324157 586.457241 
L 912.365866 589.269583 
L 915.407575 589.520687 
L 918.449284 590.424653 
L 921.490993 576.395005 
L 927.574411 586.658123 
L 930.61612 586.457241 
L 933.657829 586.105692 
L 936.699538 586.959442 
L 939.741247 586.858998 
L 942.782956 585.452824 
L 945.824665 585.854595 
L 948.866374 582.389378 
L 951.908083 581.234308 
L 954.949792 584.699524 
L 957.991501 586.407012 
L 964.074919 587.662526 
L 967.116628 585.90481 
L 970.158337 588.164735 
L 973.200046 588.767381 
L 976.241755 588.114513 
L 979.283464 582.74092 
L 982.325173 589.169138 
L 985.366882 592.483695 
L 988.408591 591.981493 
L 991.4503 583.192906 
L 991.4503 583.192906 
" clip-path="url(#p41adef7dda)" style="fill: none; stroke: #1f77b4; stroke-width: 1.5; stroke-linecap: square"/>
   </g>
   <g id="line2d_50">
    <path d="M 556.485914 628.075258 
L 559.527623 616.206528 
L 562.569332 613.768883 
L 565.611041 612.643687 
L 568.65275 612.291806 
L 571.694459 611.782726 
L 574.736167 611.612589 
L 580.819585 611.526081 
L 586.903003 612.081884 
L 589.944712 612.726484 
L 592.986421 614.770294 
L 596.02813 613.358093 
L 599.069839 613.339939 
L 602.111548 613.921512 
L 605.153257 613.659831 
L 608.194966 614.616753 
L 611.236675 613.822086 
L 617.320093 613.821201 
L 626.44522 613.055057 
L 629.486929 613.043675 
L 632.528638 612.638578 
L 635.570347 612.769555 
L 641.653765 613.413583 
L 644.695474 614.272043 
L 647.737183 614.144339 
L 650.778892 614.593924 
L 653.820601 614.458836 
L 656.86231 614.562926 
L 659.904019 614.397904 
L 662.945728 614.118157 
L 665.987437 614.196064 
L 669.029146 613.428244 
L 675.112564 614.120019 
L 681.195982 615.405893 
L 684.237691 615.784243 
L 687.2794 616.003763 
L 690.321109 615.83525 
L 693.362818 616.455889 
L 696.404527 616.159153 
L 699.446236 615.743646 
L 702.487945 615.516595 
L 705.529654 614.275981 
L 708.571363 614.45569 
L 711.613072 614.830587 
L 714.654781 615.44953 
L 717.69649 615.949676 
L 723.779908 616.54744 
L 726.821617 616.491111 
L 729.863326 616.844895 
L 732.905035 616.79754 
L 735.946744 616.254635 
L 738.988453 616.115336 
L 742.030162 614.486342 
L 745.071871 614.729564 
L 751.155289 614.973371 
L 754.196998 615.584545 
L 757.238707 615.932455 
L 766.363834 616.565048 
L 769.405543 616.031342 
L 772.447252 615.666882 
L 775.488961 615.980675 
L 778.53067 614.499453 
L 781.572379 614.522914 
L 784.614088 614.790841 
L 787.655797 614.813046 
L 790.697506 615.432508 
L 796.780924 615.772189 
L 799.822633 615.666091 
L 802.864342 616.013768 
L 805.906051 615.82921 
L 808.94776 615.485883 
L 811.989469 615.610075 
L 815.031178 614.396275 
L 821.114596 614.615197 
L 824.156305 614.822165 
L 827.198014 615.346751 
L 830.239723 615.059759 
L 833.281432 615.409233 
L 839.36485 615.303759 
L 848.489977 614.498488 
L 851.531686 613.770792 
L 854.573395 613.756763 
L 857.615104 613.051445 
L 860.656813 613.060032 
L 863.698522 613.504948 
L 866.740231 613.347576 
L 878.907067 613.704965 
L 881.948776 614.005839 
L 884.990485 614.105478 
L 891.073903 613.015291 
L 897.157321 612.822445 
L 900.19903 612.968056 
L 903.240739 612.932169 
L 906.282448 613.243187 
L 909.324157 613.434816 
L 912.365866 613.796496 
L 915.407575 614.007568 
L 918.449284 614.002659 
L 921.490993 613.87578 
L 927.574411 612.770866 
L 933.657829 612.595022 
L 936.699538 612.481932 
L 942.782956 612.922111 
L 945.824665 613.196131 
L 954.949792 614.429095 
L 957.991501 614.523413 
L 964.074919 613.428809 
L 967.116628 613.38953 
L 973.200046 613.640248 
L 976.241755 613.952238 
L 985.366882 614.269442 
L 988.408591 614.669364 
L 991.4503 614.876831 
L 991.4503 614.876831 
" clip-path="url(#p41adef7dda)" style="fill: none; stroke: #ff7f0e; stroke-width: 1.5; stroke-linecap: square"/>
   </g>
   <g id="line2d_51">
    <path d="M 556.485914 659.116875 
L 556.485914 552.859375 
" clip-path="url(#p41adef7dda)" style="fill: none; stroke-dasharray: 7.4,3.2; stroke-dashoffset: 0; stroke: #0000ff; stroke-width: 2"/>
   </g>
   <g id="patch_19">
    <path d="M 71.6375 659.116875 
L 71.6375 552.859375 
" style="fill: none; stroke: #000000; stroke-width: 0.8; stroke-linejoin: miter; stroke-linecap: square"/>
   </g>
   <g id="patch_20">
    <path d="M 1035.250909 659.116875 
L 1035.250909 552.859375 
" style="fill: none; stroke: #000000; stroke-width: 0.8; stroke-linejoin: miter; stroke-linecap: square"/>
   </g>
   <g id="patch_21">
    <path d="M 71.6375 659.116875 
L 1035.250909 659.116875 
" style="fill: none; stroke: #000000; stroke-width: 0.8; stroke-linejoin: miter; stroke-linecap: square"/>
   </g>
   <g id="patch_22">
    <path d="M 71.6375 552.859375 
L 1035.250909 552.859375 
" style="fill: none; stroke: #000000; stroke-width: 0.8; stroke-linejoin: miter; stroke-linecap: square"/>
   </g>
   <g id="text_47">
    <!-- 云函数ID: 165 -->
    <g transform="translate(488.444205 546.859375) scale(0.2 -0.2)">
     <defs>
      <path id="SimSun-36" d="M 775 1800 
Q 775 1050 1037 637 
Q 1300 225 1675 225 
Q 2050 225 2250 500 
Q 2450 775 2450 1525 
Q 2450 2025 2237 2300 
Q 2025 2575 1725 2575 
Q 1450 2575 1212 2412 
Q 975 2250 775 1800 
z
M 1750 2825 
Q 2350 2825 2612 2425 
Q 2875 2025 2875 1525 
Q 2875 775 2512 412 
Q 2150 50 1675 50 
Q 1000 50 650 562 
Q 300 1075 300 2050 
Q 300 3200 725 3812 
Q 1150 4425 1875 4425 
Q 2225 4425 2437 4225 
Q 2650 4025 2650 3875 
Q 2650 3725 2587 3650 
Q 2525 3575 2375 3575 
Q 2250 3575 2187 3637 
Q 2125 3700 2125 3825 
Q 2125 3875 2150 3925 
Q 2150 3975 2150 4025 
Q 2150 4125 2075 4187 
Q 2000 4250 1800 4250 
Q 1375 4250 1075 3862 
Q 775 3475 775 2175 
Q 925 2500 1187 2662 
Q 1450 2825 1750 2825 
z
" transform="scale(0.015625)"/>
     </defs>
     <use xlink:href="#SimSun-4e91"/>
     <use xlink:href="#SimSun-51fd" x="100"/>
     <use xlink:href="#SimSun-6570" x="200"/>
     <use xlink:href="#SimSun-49" x="300"/>
     <use xlink:href="#SimSun-44" x="350"/>
     <use xlink:href="#SimSun-3a" x="400"/>
     <use xlink:href="#SimSun-20" x="450"/>
     <use xlink:href="#SimSun-31" x="500"/>
     <use xlink:href="#SimSun-36" x="550"/>
     <use xlink:href="#SimSun-35" x="600"/>
    </g>
   </g>
  </g>
 </g>
 <defs>
  <clipPath id="pca868a98bf">
   <rect x="71.6375" y="29.059375" width="963.613409" height="106.2575"/>
  </clipPath>
  <clipPath id="p3914b1809e">
   <rect x="71.6375" y="203.659375" width="963.613409" height="106.2575"/>
  </clipPath>
  <clipPath id="p41c9d8bdf1">
   <rect x="71.6375" y="378.259375" width="963.613409" height="106.2575"/>
  </clipPath>
  <clipPath id="p41adef7dda">
   <rect x="71.6375" y="552.859375" width="963.613409" height="106.2575"/>
  </clipPath>
 </defs>
</svg>
