<?xml version="1.0" encoding="utf-8" standalone="no"?>
<!DOCTYPE svg PUBLIC "-//W3C//DTD SVG 1.1//EN"
  "http://www.w3.org/Graphics/SVG/1.1/DTD/svg11.dtd">
<svg xmlns:xlink="http://www.w3.org/1999/xlink" width="691.23pt" height="331.39125pt" viewBox="0 0 691.23 331.39125" xmlns="http://www.w3.org/2000/svg" version="1.1">
 <metadata>
  <rdf:RDF xmlns:dc="http://purl.org/dc/elements/1.1/" xmlns:cc="http://creativecommons.org/ns#" xmlns:rdf="http://www.w3.org/1999/02/22-rdf-syntax-ns#">
   <cc:Work>
    <dc:type rdf:resource="http://purl.org/dc/dcmitype/StillImage"/>
    <dc:date>2024-02-15T10:55:59.326615</dc:date>
    <dc:format>image/svg+xml</dc:format>
    <dc:creator>
     <cc:Agent>
      <dc:title>Matplotlib v3.7.1, https://matplotlib.org/</dc:title>
     </cc:Agent>
    </dc:creator>
   </cc:Work>
  </rdf:RDF>
 </metadata>
 <defs>
  <style type="text/css">*{stroke-linejoin: round; stroke-linecap: butt}</style>
 </defs>
 <g id="figure_1">
  <g id="patch_1">
   <path d="M 0 331.39125 
L 691.23 331.39125 
L 691.23 0 
L 0 0 
z
" style="fill: #ffffff"/>
  </g>
  <g id="axes_1">
   <g id="patch_2">
    <path d="M 44.2 300.31625 
L 684.03 300.31625 
L 684.03 30.35625 
L 44.2 30.35625 
z
" style="fill: #ffffff"/>
   </g>
   <g id="matplotlib.axis_1">
    <g id="xtick_1">
     <g id="line2d_1">
      <defs>
       <path id="ma6d29a2cb1" d="M 0 0 
L 0 3.5 
" style="stroke: #000000; stroke-width: 0.8"/>
      </defs>
      <g>
       <use xlink:href="#ma6d29a2cb1" x="73.283182" y="300.31625" style="stroke: #000000; stroke-width: 0.8"/>
      </g>
     </g>
     <g id="text_1">
      <!-- 0 -->
      <g transform="translate(68.283182 321.613125) scale(0.2 -0.2)">
       <defs>
        <path id="SimSun-30" d="M 1600 4225 
Q 1250 4225 1012 3687 
Q 775 3150 775 2250 
Q 775 1300 1012 775 
Q 1250 250 1600 250 
Q 1975 250 2187 775 
Q 2400 1300 2400 2250 
Q 2400 3150 2200 3687 
Q 2000 4225 1600 4225 
z
M 1600 50 
Q 1050 50 675 625 
Q 300 1200 300 2250 
Q 300 3225 662 3825 
Q 1025 4425 1600 4425 
Q 2150 4425 2512 3850 
Q 2875 3275 2875 2250 
Q 2875 1225 2512 637 
Q 2150 50 1600 50 
z
" transform="scale(0.015625)"/>
       </defs>
       <use xlink:href="#SimSun-30"/>
      </g>
     </g>
    </g>
    <g id="xtick_2">
     <g id="line2d_2">
      <g>
       <use xlink:href="#ma6d29a2cb1" x="161.414036" y="300.31625" style="stroke: #000000; stroke-width: 0.8"/>
      </g>
     </g>
     <g id="text_2">
      <!-- 5 -->
      <g transform="translate(156.414036 321.613125) scale(0.2 -0.2)">
       <defs>
        <path id="SimSun-35" d="M 1725 2850 
Q 2200 2850 2500 2487 
Q 2800 2125 2800 1525 
Q 2800 850 2487 450 
Q 2175 50 1525 50 
Q 1075 50 725 312 
Q 375 575 375 950 
Q 375 1100 462 1212 
Q 550 1325 700 1325 
Q 850 1325 900 1225 
Q 950 1125 950 1050 
Q 950 900 875 825 
Q 800 725 800 625 
Q 800 425 1037 325 
Q 1275 225 1550 225 
Q 1950 225 2162 550 
Q 2375 875 2375 1475 
Q 2375 1975 2187 2287 
Q 2000 2600 1625 2600 
Q 1350 2600 1150 2500 
Q 950 2400 775 2075 
L 550 2100 
L 675 4375 
L 2725 4375 
L 2650 4000 
L 850 4000 
L 750 2350 
Q 1000 2700 1237 2775 
Q 1475 2850 1725 2850 
z
" transform="scale(0.015625)"/>
       </defs>
       <use xlink:href="#SimSun-35"/>
      </g>
     </g>
    </g>
    <g id="xtick_3">
     <g id="line2d_3">
      <g>
       <use xlink:href="#ma6d29a2cb1" x="249.54489" y="300.31625" style="stroke: #000000; stroke-width: 0.8"/>
      </g>
     </g>
     <g id="text_3">
      <!-- 10 -->
      <g transform="translate(239.54489 321.613125) scale(0.2 -0.2)">
       <defs>
        <path id="SimSun-31" d="M 1825 4450 
L 1825 650 
Q 1825 450 1950 350 
Q 2075 250 2300 250 
L 2550 250 
L 2550 100 
L 725 100 
L 725 250 
L 950 250 
Q 1200 250 1312 350 
Q 1425 450 1425 650 
L 1425 3675 
Q 1425 3775 1362 3837 
Q 1300 3900 1175 3900 
L 725 3900 
L 725 4050 
L 950 4050 
Q 1250 4050 1437 4150 
Q 1625 4250 1725 4450 
L 1825 4450 
z
" transform="scale(0.015625)"/>
       </defs>
       <use xlink:href="#SimSun-31"/>
       <use xlink:href="#SimSun-30" x="50"/>
      </g>
     </g>
    </g>
    <g id="xtick_4">
     <g id="line2d_4">
      <g>
       <use xlink:href="#ma6d29a2cb1" x="337.675744" y="300.31625" style="stroke: #000000; stroke-width: 0.8"/>
      </g>
     </g>
     <g id="text_4">
      <!-- 15 -->
      <g transform="translate(327.675744 321.613125) scale(0.2 -0.2)">
       <use xlink:href="#SimSun-31"/>
       <use xlink:href="#SimSun-35" x="50"/>
      </g>
     </g>
    </g>
    <g id="xtick_5">
     <g id="line2d_5">
      <g>
       <use xlink:href="#ma6d29a2cb1" x="425.806598" y="300.31625" style="stroke: #000000; stroke-width: 0.8"/>
      </g>
     </g>
     <g id="text_5">
      <!-- 20 -->
      <g transform="translate(415.806598 321.613125) scale(0.2 -0.2)">
       <defs>
        <path id="SimSun-32" d="M 2325 3325 
Q 2325 3775 2125 4012 
Q 1925 4250 1525 4250 
Q 1225 4250 1012 4087 
Q 800 3925 800 3675 
Q 800 3525 900 3425 
Q 975 3325 975 3225 
Q 975 3100 912 3037 
Q 850 2975 725 2975 
Q 575 2975 487 3062 
Q 400 3150 400 3350 
Q 400 3875 775 4150 
Q 1150 4425 1575 4425 
Q 2175 4425 2462 4125 
Q 2750 3825 2750 3375 
Q 2750 3075 2612 2775 
Q 2475 2475 2175 2200 
Q 1450 1500 1062 1062 
Q 675 625 600 475 
L 2075 475 
Q 2300 475 2450 650 
Q 2600 825 2650 1175 
L 2800 1175 
L 2650 100 
L 325 100 
L 325 425 
Q 450 650 737 1000 
Q 1025 1350 1500 1825 
Q 1925 2250 2125 2625 
Q 2325 3000 2325 3325 
z
" transform="scale(0.015625)"/>
       </defs>
       <use xlink:href="#SimSun-32"/>
       <use xlink:href="#SimSun-30" x="50"/>
      </g>
     </g>
    </g>
    <g id="xtick_6">
     <g id="line2d_6">
      <g>
       <use xlink:href="#ma6d29a2cb1" x="513.937452" y="300.31625" style="stroke: #000000; stroke-width: 0.8"/>
      </g>
     </g>
     <g id="text_6">
      <!-- 25 -->
      <g transform="translate(503.937452 321.613125) scale(0.2 -0.2)">
       <use xlink:href="#SimSun-32"/>
       <use xlink:href="#SimSun-35" x="50"/>
      </g>
     </g>
    </g>
    <g id="xtick_7">
     <g id="line2d_7">
      <g>
       <use xlink:href="#ma6d29a2cb1" x="602.068306" y="300.31625" style="stroke: #000000; stroke-width: 0.8"/>
      </g>
     </g>
     <g id="text_7">
      <!-- 30 -->
      <g transform="translate(592.068306 321.613125) scale(0.2 -0.2)">
       <defs>
        <path id="SimSun-33" d="M 2800 1250 
Q 2800 775 2450 412 
Q 2100 50 1475 50 
Q 1025 50 700 300 
Q 375 550 375 875 
Q 375 1025 475 1137 
Q 575 1250 675 1250 
Q 825 1250 887 1137 
Q 950 1025 950 950 
Q 950 825 900 750 
Q 850 650 850 575 
Q 850 425 1037 325 
Q 1225 225 1450 225 
Q 1900 225 2125 487 
Q 2350 750 2350 1300 
Q 2350 1750 2112 2025 
Q 1875 2300 1225 2300 
L 1225 2475 
Q 1725 2475 1962 2712 
Q 2200 2950 2200 3375 
Q 2200 3725 2012 3987 
Q 1825 4250 1425 4250 
Q 1250 4250 1050 4162 
Q 850 4075 850 3875 
Q 850 3675 900 3625 
Q 950 3575 950 3500 
Q 950 3375 900 3300 
Q 850 3225 725 3225 
Q 625 3225 537 3300 
Q 450 3375 450 3575 
Q 450 3950 775 4187 
Q 1100 4425 1525 4425 
Q 2025 4425 2325 4112 
Q 2625 3800 2625 3450 
Q 2625 3075 2437 2812 
Q 2250 2550 1850 2425 
Q 2400 2225 2600 1900 
Q 2800 1575 2800 1250 
z
" transform="scale(0.015625)"/>
       </defs>
       <use xlink:href="#SimSun-33"/>
       <use xlink:href="#SimSun-30" x="50"/>
      </g>
     </g>
    </g>
   </g>
   <g id="matplotlib.axis_2">
    <g id="ytick_1">
     <g id="line2d_8">
      <defs>
       <path id="md898a98110" d="M 0 0 
L -3.5 0 
" style="stroke: #000000; stroke-width: 0.8"/>
      </defs>
      <g>
       <use xlink:href="#md898a98110" x="44.2" y="230.801014" style="stroke: #000000; stroke-width: 0.8"/>
      </g>
     </g>
     <g id="text_8">
      <!-- 0.3 -->
      <g transform="translate(7.2 237.949451) scale(0.2 -0.2)">
       <defs>
        <path id="SimSun-2e" d="M 800 25 
Q 650 25 537 125 
Q 425 225 425 400 
Q 425 575 537 675 
Q 650 775 800 775 
Q 950 775 1062 662 
Q 1175 550 1175 400 
Q 1175 225 1062 125 
Q 950 25 800 25 
z
" transform="scale(0.015625)"/>
       </defs>
       <use xlink:href="#SimSun-30"/>
       <use xlink:href="#SimSun-2e" x="50"/>
       <use xlink:href="#SimSun-33" x="100"/>
      </g>
     </g>
    </g>
    <g id="ytick_2">
     <g id="line2d_9">
      <g>
       <use xlink:href="#md898a98110" x="44.2" y="159.976402" style="stroke: #000000; stroke-width: 0.8"/>
      </g>
     </g>
     <g id="text_9">
      <!-- 0.4 -->
      <g transform="translate(7.2 167.12484) scale(0.2 -0.2)">
       <defs>
        <path id="SimSun-34" d="M 2300 575 
Q 2300 400 2400 325 
Q 2500 250 2675 250 
L 2900 250 
L 2900 100 
L 1250 100 
L 1250 250 
L 1525 250 
Q 1725 250 1812 325 
Q 1900 400 1900 575 
L 1900 1400 
L 225 1400 
L 225 1525 
L 2050 4425 
L 2300 4425 
L 2300 1550 
L 2975 1550 
L 2975 1400 
L 2300 1400 
L 2300 575 
z
M 1875 3800 
L 450 1550 
L 1900 1550 
L 1900 3800 
L 1875 3800 
z
" transform="scale(0.015625)"/>
       </defs>
       <use xlink:href="#SimSun-30"/>
       <use xlink:href="#SimSun-2e" x="50"/>
       <use xlink:href="#SimSun-34" x="100"/>
      </g>
     </g>
    </g>
    <g id="ytick_3">
     <g id="line2d_10">
      <g>
       <use xlink:href="#md898a98110" x="44.2" y="89.151791" style="stroke: #000000; stroke-width: 0.8"/>
      </g>
     </g>
     <g id="text_10">
      <!-- 0.5 -->
      <g transform="translate(7.2 96.300228) scale(0.2 -0.2)">
       <use xlink:href="#SimSun-30"/>
       <use xlink:href="#SimSun-2e" x="50"/>
       <use xlink:href="#SimSun-35" x="100"/>
      </g>
     </g>
    </g>
   </g>
   <g id="line2d_11">
    <path d="M 73.283182 144.544349 
L 90.909353 176.065718 
L 108.535523 189.057879 
L 126.161694 185.278791 
L 143.787865 195.571801 
L 161.414036 204.82059 
L 179.040207 211.806221 
L 196.666377 219.614657 
L 214.292548 220.835156 
L 231.918719 224.472609 
L 249.54489 208.329028 
L 267.171061 226.784892 
L 284.797231 233.148569 
L 302.423402 237.864718 
L 320.049573 243.871993 
L 337.675744 246.587007 
L 355.301915 252.038473 
L 372.928085 250.84122 
L 390.554256 253.806812 
L 408.180427 253.12511 
L 425.806598 260.907666 
L 443.432769 260.909864 
L 461.058939 265.112294 
L 478.68511 265.796165 
L 496.311281 267.757752 
L 513.937452 272.140153 
L 531.563623 273.340988 
L 549.189793 274.34266 
L 566.815964 279.002373 
L 584.442135 279.435435 
L 602.068306 282.528049 
L 619.694477 284.571555 
L 637.320647 283.123373 
L 654.946818 288.045341 
" clip-path="url(#pd9b81aa2a5)" style="fill: none; stroke: #1f77b4; stroke-width: 1.5; stroke-linecap: square"/>
    <defs>
     <path id="m03d17749c5" d="M 0 3 
C 0.795609 3 1.55874 2.683901 2.12132 2.12132 
C 2.683901 1.55874 3 0.795609 3 0 
C 3 -0.795609 2.683901 -1.55874 2.12132 -2.12132 
C 1.55874 -2.683901 0.795609 -3 0 -3 
C -0.795609 -3 -1.55874 -2.683901 -2.12132 -2.12132 
C -2.683901 -1.55874 -3 -0.795609 -3 0 
C -3 0.795609 -2.683901 1.55874 -2.12132 2.12132 
C -1.55874 2.683901 -0.795609 3 0 3 
z
" style="stroke: #1f77b4"/>
    </defs>
    <g clip-path="url(#pd9b81aa2a5)">
     <use xlink:href="#m03d17749c5" x="73.283182" y="144.544349" style="fill: #1f77b4; stroke: #1f77b4"/>
     <use xlink:href="#m03d17749c5" x="90.909353" y="176.065718" style="fill: #1f77b4; stroke: #1f77b4"/>
     <use xlink:href="#m03d17749c5" x="108.535523" y="189.057879" style="fill: #1f77b4; stroke: #1f77b4"/>
     <use xlink:href="#m03d17749c5" x="126.161694" y="185.278791" style="fill: #1f77b4; stroke: #1f77b4"/>
     <use xlink:href="#m03d17749c5" x="143.787865" y="195.571801" style="fill: #1f77b4; stroke: #1f77b4"/>
     <use xlink:href="#m03d17749c5" x="161.414036" y="204.82059" style="fill: #1f77b4; stroke: #1f77b4"/>
     <use xlink:href="#m03d17749c5" x="179.040207" y="211.806221" style="fill: #1f77b4; stroke: #1f77b4"/>
     <use xlink:href="#m03d17749c5" x="196.666377" y="219.614657" style="fill: #1f77b4; stroke: #1f77b4"/>
     <use xlink:href="#m03d17749c5" x="214.292548" y="220.835156" style="fill: #1f77b4; stroke: #1f77b4"/>
     <use xlink:href="#m03d17749c5" x="231.918719" y="224.472609" style="fill: #1f77b4; stroke: #1f77b4"/>
     <use xlink:href="#m03d17749c5" x="249.54489" y="208.329028" style="fill: #1f77b4; stroke: #1f77b4"/>
     <use xlink:href="#m03d17749c5" x="267.171061" y="226.784892" style="fill: #1f77b4; stroke: #1f77b4"/>
     <use xlink:href="#m03d17749c5" x="284.797231" y="233.148569" style="fill: #1f77b4; stroke: #1f77b4"/>
     <use xlink:href="#m03d17749c5" x="302.423402" y="237.864718" style="fill: #1f77b4; stroke: #1f77b4"/>
     <use xlink:href="#m03d17749c5" x="320.049573" y="243.871993" style="fill: #1f77b4; stroke: #1f77b4"/>
     <use xlink:href="#m03d17749c5" x="337.675744" y="246.587007" style="fill: #1f77b4; stroke: #1f77b4"/>
     <use xlink:href="#m03d17749c5" x="355.301915" y="252.038473" style="fill: #1f77b4; stroke: #1f77b4"/>
     <use xlink:href="#m03d17749c5" x="372.928085" y="250.84122" style="fill: #1f77b4; stroke: #1f77b4"/>
     <use xlink:href="#m03d17749c5" x="390.554256" y="253.806812" style="fill: #1f77b4; stroke: #1f77b4"/>
     <use xlink:href="#m03d17749c5" x="408.180427" y="253.12511" style="fill: #1f77b4; stroke: #1f77b4"/>
     <use xlink:href="#m03d17749c5" x="425.806598" y="260.907666" style="fill: #1f77b4; stroke: #1f77b4"/>
     <use xlink:href="#m03d17749c5" x="443.432769" y="260.909864" style="fill: #1f77b4; stroke: #1f77b4"/>
     <use xlink:href="#m03d17749c5" x="461.058939" y="265.112294" style="fill: #1f77b4; stroke: #1f77b4"/>
     <use xlink:href="#m03d17749c5" x="478.68511" y="265.796165" style="fill: #1f77b4; stroke: #1f77b4"/>
     <use xlink:href="#m03d17749c5" x="496.311281" y="267.757752" style="fill: #1f77b4; stroke: #1f77b4"/>
     <use xlink:href="#m03d17749c5" x="513.937452" y="272.140153" style="fill: #1f77b4; stroke: #1f77b4"/>
     <use xlink:href="#m03d17749c5" x="531.563623" y="273.340988" style="fill: #1f77b4; stroke: #1f77b4"/>
     <use xlink:href="#m03d17749c5" x="549.189793" y="274.34266" style="fill: #1f77b4; stroke: #1f77b4"/>
     <use xlink:href="#m03d17749c5" x="566.815964" y="279.002373" style="fill: #1f77b4; stroke: #1f77b4"/>
     <use xlink:href="#m03d17749c5" x="584.442135" y="279.435435" style="fill: #1f77b4; stroke: #1f77b4"/>
     <use xlink:href="#m03d17749c5" x="602.068306" y="282.528049" style="fill: #1f77b4; stroke: #1f77b4"/>
     <use xlink:href="#m03d17749c5" x="619.694477" y="284.571555" style="fill: #1f77b4; stroke: #1f77b4"/>
     <use xlink:href="#m03d17749c5" x="637.320647" y="283.123373" style="fill: #1f77b4; stroke: #1f77b4"/>
     <use xlink:href="#m03d17749c5" x="654.946818" y="288.045341" style="fill: #1f77b4; stroke: #1f77b4"/>
    </g>
   </g>
   <g id="line2d_12">
    <path d="M 73.283182 98.106322 
L 90.909353 93.935356 
L 108.535523 82.084111 
L 126.161694 93.528448 
L 143.787865 102.023514 
L 161.414036 88.731501 
L 179.040207 108.815932 
L 196.666377 118.218404 
L 214.292548 96.43886 
L 231.918719 97.185449 
L 249.54489 83.713812 
L 267.171061 105.657402 
L 284.797231 94.705733 
L 302.423402 118.40723 
L 320.049573 112.422613 
L 337.675744 103.203332 
L 355.301915 117.684978 
L 372.928085 104.104891 
L 390.554256 67.089303 
L 408.180427 104.030445 
L 425.806598 108.541303 
L 443.432769 103.632002 
L 461.058939 106.648204 
L 478.68511 98.649161 
L 496.311281 109.984837 
L 513.937452 101.336279 
L 531.563623 108.250803 
L 549.189793 85.786937 
L 566.815964 42.627159 
L 584.442135 94.736634 
L 602.068306 104.940258 
L 619.694477 105.533481 
L 637.320647 88.173633 
L 654.946818 89.337683 
" clip-path="url(#pd9b81aa2a5)" style="fill: none; stroke: #ff7f0e; stroke-width: 1.5; stroke-linecap: square"/>
    <defs>
     <path id="md7863b32e0" d="M 0 3 
C 0.795609 3 1.55874 2.683901 2.12132 2.12132 
C 2.683901 1.55874 3 0.795609 3 0 
C 3 -0.795609 2.683901 -1.55874 2.12132 -2.12132 
C 1.55874 -2.683901 0.795609 -3 0 -3 
C -0.795609 -3 -1.55874 -2.683901 -2.12132 -2.12132 
C -2.683901 -1.55874 -3 -0.795609 -3 0 
C -3 0.795609 -2.683901 1.55874 -2.12132 2.12132 
C -1.55874 2.683901 -0.795609 3 0 3 
z
" style="stroke: #ff7f0e"/>
    </defs>
    <g clip-path="url(#pd9b81aa2a5)">
     <use xlink:href="#md7863b32e0" x="73.283182" y="98.106322" style="fill: #ff7f0e; stroke: #ff7f0e"/>
     <use xlink:href="#md7863b32e0" x="90.909353" y="93.935356" style="fill: #ff7f0e; stroke: #ff7f0e"/>
     <use xlink:href="#md7863b32e0" x="108.535523" y="82.084111" style="fill: #ff7f0e; stroke: #ff7f0e"/>
     <use xlink:href="#md7863b32e0" x="126.161694" y="93.528448" style="fill: #ff7f0e; stroke: #ff7f0e"/>
     <use xlink:href="#md7863b32e0" x="143.787865" y="102.023514" style="fill: #ff7f0e; stroke: #ff7f0e"/>
     <use xlink:href="#md7863b32e0" x="161.414036" y="88.731501" style="fill: #ff7f0e; stroke: #ff7f0e"/>
     <use xlink:href="#md7863b32e0" x="179.040207" y="108.815932" style="fill: #ff7f0e; stroke: #ff7f0e"/>
     <use xlink:href="#md7863b32e0" x="196.666377" y="118.218404" style="fill: #ff7f0e; stroke: #ff7f0e"/>
     <use xlink:href="#md7863b32e0" x="214.292548" y="96.43886" style="fill: #ff7f0e; stroke: #ff7f0e"/>
     <use xlink:href="#md7863b32e0" x="231.918719" y="97.185449" style="fill: #ff7f0e; stroke: #ff7f0e"/>
     <use xlink:href="#md7863b32e0" x="249.54489" y="83.713812" style="fill: #ff7f0e; stroke: #ff7f0e"/>
     <use xlink:href="#md7863b32e0" x="267.171061" y="105.657402" style="fill: #ff7f0e; stroke: #ff7f0e"/>
     <use xlink:href="#md7863b32e0" x="284.797231" y="94.705733" style="fill: #ff7f0e; stroke: #ff7f0e"/>
     <use xlink:href="#md7863b32e0" x="302.423402" y="118.40723" style="fill: #ff7f0e; stroke: #ff7f0e"/>
     <use xlink:href="#md7863b32e0" x="320.049573" y="112.422613" style="fill: #ff7f0e; stroke: #ff7f0e"/>
     <use xlink:href="#md7863b32e0" x="337.675744" y="103.203332" style="fill: #ff7f0e; stroke: #ff7f0e"/>
     <use xlink:href="#md7863b32e0" x="355.301915" y="117.684978" style="fill: #ff7f0e; stroke: #ff7f0e"/>
     <use xlink:href="#md7863b32e0" x="372.928085" y="104.104891" style="fill: #ff7f0e; stroke: #ff7f0e"/>
     <use xlink:href="#md7863b32e0" x="390.554256" y="67.089303" style="fill: #ff7f0e; stroke: #ff7f0e"/>
     <use xlink:href="#md7863b32e0" x="408.180427" y="104.030445" style="fill: #ff7f0e; stroke: #ff7f0e"/>
     <use xlink:href="#md7863b32e0" x="425.806598" y="108.541303" style="fill: #ff7f0e; stroke: #ff7f0e"/>
     <use xlink:href="#md7863b32e0" x="443.432769" y="103.632002" style="fill: #ff7f0e; stroke: #ff7f0e"/>
     <use xlink:href="#md7863b32e0" x="461.058939" y="106.648204" style="fill: #ff7f0e; stroke: #ff7f0e"/>
     <use xlink:href="#md7863b32e0" x="478.68511" y="98.649161" style="fill: #ff7f0e; stroke: #ff7f0e"/>
     <use xlink:href="#md7863b32e0" x="496.311281" y="109.984837" style="fill: #ff7f0e; stroke: #ff7f0e"/>
     <use xlink:href="#md7863b32e0" x="513.937452" y="101.336279" style="fill: #ff7f0e; stroke: #ff7f0e"/>
     <use xlink:href="#md7863b32e0" x="531.563623" y="108.250803" style="fill: #ff7f0e; stroke: #ff7f0e"/>
     <use xlink:href="#md7863b32e0" x="549.189793" y="85.786937" style="fill: #ff7f0e; stroke: #ff7f0e"/>
     <use xlink:href="#md7863b32e0" x="566.815964" y="42.627159" style="fill: #ff7f0e; stroke: #ff7f0e"/>
     <use xlink:href="#md7863b32e0" x="584.442135" y="94.736634" style="fill: #ff7f0e; stroke: #ff7f0e"/>
     <use xlink:href="#md7863b32e0" x="602.068306" y="104.940258" style="fill: #ff7f0e; stroke: #ff7f0e"/>
     <use xlink:href="#md7863b32e0" x="619.694477" y="105.533481" style="fill: #ff7f0e; stroke: #ff7f0e"/>
     <use xlink:href="#md7863b32e0" x="637.320647" y="88.173633" style="fill: #ff7f0e; stroke: #ff7f0e"/>
     <use xlink:href="#md7863b32e0" x="654.946818" y="89.337683" style="fill: #ff7f0e; stroke: #ff7f0e"/>
    </g>
   </g>
   <g id="patch_3">
    <path d="M 44.2 300.31625 
L 44.2 30.35625 
" style="fill: none; stroke: #000000; stroke-width: 0.8; stroke-linejoin: miter; stroke-linecap: square"/>
   </g>
   <g id="patch_4">
    <path d="M 684.03 300.31625 
L 684.03 30.35625 
" style="fill: none; stroke: #000000; stroke-width: 0.8; stroke-linejoin: miter; stroke-linecap: square"/>
   </g>
   <g id="patch_5">
    <path d="M 44.2 300.31625 
L 684.03 300.31625 
" style="fill: none; stroke: #000000; stroke-width: 0.8; stroke-linejoin: miter; stroke-linecap: square"/>
   </g>
   <g id="patch_6">
    <path d="M 44.2 30.35625 
L 684.03 30.35625 
" style="fill: none; stroke: #000000; stroke-width: 0.8; stroke-linejoin: miter; stroke-linecap: square"/>
   </g>
   <g id="text_11">
    <!-- loss results -->
    <g transform="translate(292.115 24.35625) scale(0.24 -0.24)">
     <defs>
      <path id="SimSun-6c" d="M 925 4375 
Q 1150 4375 1350 4425 
Q 1550 4475 1725 4575 
L 1775 4575 
L 1775 450 
Q 1775 350 1837 300 
Q 1900 250 2000 250 
L 2575 250 
L 2575 100 
L 625 100 
L 625 250 
L 1200 250 
Q 1325 250 1375 300 
Q 1425 350 1425 450 
L 1425 4025 
Q 1425 4125 1375 4175 
Q 1325 4225 1200 4225 
L 650 4225 
L 650 4375 
L 925 4375 
z
" transform="scale(0.015625)"/>
      <path id="SimSun-6f" d="M 2900 1500 
Q 2900 875 2525 462 
Q 2150 50 1600 50 
Q 1025 50 662 475 
Q 300 900 300 1500 
Q 300 2050 662 2500 
Q 1025 2950 1600 2950 
Q 2200 2950 2550 2500 
Q 2900 2050 2900 1500 
z
M 700 1475 
Q 700 825 962 512 
Q 1225 200 1600 200 
Q 2025 200 2262 537 
Q 2500 875 2500 1475 
Q 2500 2125 2237 2462 
Q 1975 2800 1600 2800 
Q 1250 2800 975 2462 
Q 700 2125 700 1475 
z
" transform="scale(0.015625)"/>
      <path id="SimSun-73" d="M 625 2175 
Q 625 2550 912 2750 
Q 1200 2950 1600 2950 
Q 1825 2950 2025 2900 
Q 2225 2825 2300 2825 
Q 2375 2825 2425 2850 
Q 2475 2875 2550 2950 
L 2650 2125 
L 2500 2100 
Q 2400 2425 2162 2612 
Q 1925 2800 1625 2800 
Q 1300 2800 1112 2675 
Q 925 2550 925 2325 
Q 925 2125 1012 2012 
Q 1100 1900 1325 1850 
Q 1500 1775 1775 1700 
Q 2025 1600 2250 1500 
Q 2450 1400 2587 1237 
Q 2725 1075 2725 875 
Q 2725 500 2462 287 
Q 2200 75 1700 75 
Q 1375 75 1225 150 
Q 1050 200 950 200 
Q 875 200 787 162 
Q 700 125 600 75 
L 525 1000 
L 675 1025 
Q 750 625 1000 425 
Q 1250 225 1700 225 
Q 2050 225 2237 350 
Q 2425 475 2425 725 
Q 2425 900 2325 1012 
Q 2225 1125 2125 1175 
Q 1875 1275 1575 1400 
Q 1275 1500 1050 1600 
Q 825 1700 725 1850 
Q 625 2000 625 2175 
z
" transform="scale(0.015625)"/>
      <path id="SimSun-20" d="M 0 0 
Q 0 0 0 0 
z
" transform="scale(0.015625)"/>
      <path id="SimSun-72" d="M 1275 2125 
Q 1525 2525 1812 2737 
Q 2100 2950 2400 2950 
Q 2650 2950 2787 2837 
Q 2925 2725 2925 2575 
Q 2925 2450 2862 2375 
Q 2800 2300 2675 2300 
Q 2550 2300 2487 2375 
Q 2425 2450 2450 2575 
Q 2450 2650 2425 2700 
Q 2400 2750 2275 2750 
Q 2075 2750 1787 2500 
Q 1500 2250 1275 1800 
L 1275 450 
Q 1275 350 1337 300 
Q 1400 250 1500 250 
L 2050 250 
L 2050 100 
L 200 100 
L 200 250 
L 700 250 
Q 825 250 875 300 
Q 925 350 925 450 
L 925 2525 
Q 925 2625 875 2687 
Q 825 2750 700 2750 
L 225 2750 
L 225 2900 
L 425 2900 
Q 600 2900 837 2937 
Q 1075 2975 1200 3025 
L 1275 3025 
L 1275 2125 
z
" transform="scale(0.015625)"/>
      <path id="SimSun-65" d="M 2400 1650 
Q 2425 2200 2212 2487 
Q 2000 2775 1650 2775 
Q 1275 2775 1037 2475 
Q 800 2175 800 1650 
L 2400 1650 
z
M 800 1500 
Q 800 825 1062 537 
Q 1325 250 1750 250 
Q 2075 250 2300 437 
Q 2525 625 2625 900 
L 2750 850 
Q 2675 575 2412 312 
Q 2150 50 1700 50 
Q 1125 50 762 425 
Q 400 800 400 1500 
Q 400 2125 762 2537 
Q 1125 2950 1650 2950 
Q 2125 2950 2475 2625 
Q 2825 2300 2825 1500 
L 800 1500 
z
" transform="scale(0.015625)"/>
      <path id="SimSun-75" d="M 1450 325 
Q 1750 325 1962 475 
Q 2175 625 2275 950 
L 2275 2525 
Q 2275 2625 2225 2687 
Q 2175 2750 2050 2750 
L 1900 2750 
L 1900 2900 
L 2050 2900 
Q 2200 2900 2325 2925 
Q 2450 2950 2575 3050 
L 2625 3050 
L 2625 600 
Q 2625 500 2687 450 
Q 2750 400 2850 400 
L 3000 400 
L 3000 250 
L 2850 250 
Q 2725 250 2600 212 
Q 2475 175 2325 100 
L 2275 100 
L 2275 625 
Q 2150 350 1900 212 
Q 1650 75 1325 75 
Q 925 75 725 300 
Q 525 525 525 1025 
L 525 2525 
Q 525 2625 475 2687 
Q 425 2750 300 2750 
L 150 2750 
L 150 2900 
L 300 2900 
Q 450 2900 575 2925 
Q 700 2950 825 3050 
L 875 3050 
L 875 975 
Q 875 625 1025 475 
Q 1175 325 1450 325 
z
" transform="scale(0.015625)"/>
      <path id="SimSun-74" d="M 1500 900 
Q 1500 550 1625 425 
Q 1750 300 2000 300 
Q 2250 300 2400 462 
Q 2550 625 2600 925 
L 2725 875 
Q 2675 525 2462 300 
Q 2250 75 1900 75 
Q 1525 75 1337 300 
Q 1150 525 1150 1000 
L 1150 2750 
L 400 2750 
L 400 2900 
L 600 2900 
Q 900 2900 1087 3087 
Q 1275 3275 1325 3675 
L 1350 3875 
L 1500 3875 
L 1500 2900 
L 2500 2900 
L 2500 2750 
L 1500 2750 
L 1500 900 
z
" transform="scale(0.015625)"/>
     </defs>
     <use xlink:href="#SimSun-6c"/>
     <use xlink:href="#SimSun-6f" x="50"/>
     <use xlink:href="#SimSun-73" x="100"/>
     <use xlink:href="#SimSun-73" x="150"/>
     <use xlink:href="#SimSun-20" x="200"/>
     <use xlink:href="#SimSun-72" x="250"/>
     <use xlink:href="#SimSun-65" x="300"/>
     <use xlink:href="#SimSun-73" x="350"/>
     <use xlink:href="#SimSun-75" x="400"/>
     <use xlink:href="#SimSun-6c" x="450"/>
     <use xlink:href="#SimSun-74" x="500"/>
     <use xlink:href="#SimSun-73" x="550"/>
    </g>
   </g>
   <g id="legend_1">
    <g id="patch_7">
     <path d="M 58.2 290.31625 
L 222.2 290.31625 
Q 226.2 290.31625 226.2 286.31625 
L 226.2 234.25375 
Q 226.2 230.25375 222.2 230.25375 
L 58.2 230.25375 
Q 54.2 230.25375 54.2 234.25375 
L 54.2 286.31625 
Q 54.2 290.31625 58.2 290.31625 
z
" style="fill: #ffffff; opacity: 0.8; stroke: #cccccc; stroke-linejoin: miter"/>
    </g>
    <g id="line2d_13">
     <path d="M 62.2 245.550625 
L 82.2 245.550625 
L 102.2 245.550625 
" style="fill: none; stroke: #1f77b4; stroke-width: 1.5; stroke-linecap: square"/>
     <g>
      <use xlink:href="#m03d17749c5" x="82.2" y="245.550625" style="fill: #1f77b4; stroke: #1f77b4"/>
     </g>
    </g>
    <g id="text_12">
     <!-- train_loss -->
     <g transform="translate(118.2 252.550625) scale(0.2 -0.2)">
      <defs>
       <path id="SimSun-61" d="M 1225 75 
Q 775 75 525 287 
Q 275 500 275 775 
Q 275 1225 662 1512 
Q 1050 1800 2200 1925 
L 2200 2225 
Q 2200 2475 2087 2637 
Q 1975 2800 1575 2800 
Q 1150 2800 975 2662 
Q 800 2525 850 2375 
Q 875 2325 875 2275 
Q 875 2225 837 2150 
Q 800 2075 650 2075 
Q 550 2075 487 2137 
Q 425 2200 425 2325 
Q 425 2550 750 2750 
Q 1075 2950 1550 2950 
Q 2050 2950 2300 2762 
Q 2550 2575 2550 2225 
L 2550 575 
Q 2550 375 2587 337 
Q 2625 300 2725 300 
Q 2850 300 2900 412 
Q 2950 525 2950 725 
L 3075 725 
Q 3075 375 2950 237 
Q 2825 100 2625 100 
Q 2450 100 2350 175 
Q 2250 250 2200 425 
Q 1950 250 1737 162 
Q 1525 75 1225 75 
z
M 700 850 
Q 700 625 837 437 
Q 975 250 1275 250 
Q 1500 250 1725 337 
Q 1950 425 2200 600 
L 2200 1775 
Q 1350 1675 1025 1437 
Q 700 1200 700 850 
z
" transform="scale(0.015625)"/>
       <path id="SimSun-69" d="M 1425 2525 
Q 1425 2625 1375 2687 
Q 1325 2750 1200 2750 
L 675 2750 
L 675 2900 
L 925 2900 
Q 1150 2900 1350 2937 
Q 1550 2975 1725 3075 
L 1775 3075 
L 1775 450 
Q 1775 350 1837 300 
Q 1900 250 2000 250 
L 2525 250 
L 2525 100 
L 675 100 
L 675 250 
L 1200 250 
Q 1325 250 1375 300 
Q 1425 350 1425 450 
L 1425 2525 
z
M 1725 3025 
L 1725 3025 
z
M 1625 4425 
Q 1750 4425 1850 4337 
Q 1950 4250 1950 4125 
Q 1950 4000 1850 3900 
Q 1750 3800 1625 3800 
Q 1500 3800 1400 3900 
Q 1300 4000 1300 4125 
Q 1300 4250 1400 4337 
Q 1500 4425 1625 4425 
z
" transform="scale(0.015625)"/>
       <path id="SimSun-6e" d="M 200 100 
L 200 250 
L 325 250 
Q 450 250 500 300 
Q 550 350 550 450 
L 550 2600 
Q 550 2675 525 2712 
Q 500 2750 425 2750 
L 225 2750 
L 225 2900 
L 400 2900 
Q 525 2900 637 2925 
Q 750 2950 850 3025 
L 900 3025 
L 900 2450 
Q 1125 2700 1350 2825 
Q 1575 2950 1825 2950 
Q 2250 2950 2450 2725 
Q 2650 2500 2650 2050 
L 2650 450 
Q 2650 350 2712 300 
Q 2775 250 2875 250 
L 3000 250 
L 3000 100 
L 1950 100 
L 1950 250 
L 2075 250 
Q 2200 250 2250 300 
Q 2300 350 2300 450 
L 2300 2125 
Q 2300 2425 2175 2587 
Q 2050 2750 1800 2750 
Q 1575 2750 1337 2600 
Q 1100 2450 900 2175 
L 900 450 
Q 900 350 962 300 
Q 1025 250 1125 250 
L 1250 250 
L 1250 100 
L 200 100 
z
" transform="scale(0.015625)"/>
       <path id="SimSun-5f" d="M 0 -875 
L 0 -725 
L 3175 -725 
L 3175 -875 
L 0 -875 
z
" transform="scale(0.015625)"/>
      </defs>
      <use xlink:href="#SimSun-74"/>
      <use xlink:href="#SimSun-72" x="50"/>
      <use xlink:href="#SimSun-61" x="100"/>
      <use xlink:href="#SimSun-69" x="150"/>
      <use xlink:href="#SimSun-6e" x="200"/>
      <use xlink:href="#SimSun-5f" x="250"/>
      <use xlink:href="#SimSun-6c" x="300"/>
      <use xlink:href="#SimSun-6f" x="350"/>
      <use xlink:href="#SimSun-73" x="400"/>
      <use xlink:href="#SimSun-73" x="450"/>
     </g>
    </g>
    <g id="line2d_14">
     <path d="M 62.2 272.581875 
L 82.2 272.581875 
L 102.2 272.581875 
" style="fill: none; stroke: #ff7f0e; stroke-width: 1.5; stroke-linecap: square"/>
     <g>
      <use xlink:href="#md7863b32e0" x="82.2" y="272.581875" style="fill: #ff7f0e; stroke: #ff7f0e"/>
     </g>
    </g>
    <g id="text_13">
     <!-- test_loss -->
     <g transform="translate(118.2 279.581875) scale(0.2 -0.2)">
      <use xlink:href="#SimSun-74"/>
      <use xlink:href="#SimSun-65" x="50"/>
      <use xlink:href="#SimSun-73" x="100"/>
      <use xlink:href="#SimSun-74" x="150"/>
      <use xlink:href="#SimSun-5f" x="200"/>
      <use xlink:href="#SimSun-6c" x="250"/>
      <use xlink:href="#SimSun-6f" x="300"/>
      <use xlink:href="#SimSun-73" x="350"/>
      <use xlink:href="#SimSun-73" x="400"/>
     </g>
    </g>
   </g>
  </g>
 </g>
 <defs>
  <clipPath id="pd9b81aa2a5">
   <rect x="44.2" y="30.35625" width="639.83" height="269.96"/>
  </clipPath>
 </defs>
</svg>
