<?xml version="1.0" encoding="utf-8" standalone="no"?>
<!DOCTYPE svg PUBLIC "-//W3C//DTD SVG 1.1//EN"
  "http://www.w3.org/Graphics/SVG/1.1/DTD/svg11.dtd">
<svg xmlns:xlink="http://www.w3.org/1999/xlink" width="1050.655063pt" height="714.40625pt" viewBox="0 0 1050.655063 714.40625" xmlns="http://www.w3.org/2000/svg" version="1.1">
 <metadata>
  <rdf:RDF xmlns:dc="http://purl.org/dc/elements/1.1/" xmlns:cc="http://creativecommons.org/ns#" xmlns:rdf="http://www.w3.org/1999/02/22-rdf-syntax-ns#">
   <cc:Work>
    <dc:type rdf:resource="http://purl.org/dc/dcmitype/StillImage"/>
    <dc:date>2024-02-27T20:19:41.445986</dc:date>
    <dc:format>image/svg+xml</dc:format>
    <dc:creator>
     <cc:Agent>
      <dc:title>Matplotlib v3.7.1, https://matplotlib.org/</dc:title>
     </cc:Agent>
    </dc:creator>
   </cc:Work>
  </rdf:RDF>
 </metadata>
 <defs>
  <style type="text/css">*{stroke-linejoin: round; stroke-linecap: butt}</style>
 </defs>
 <g id="figure_1">
  <g id="patch_1">
   <path d="M 0 714.40625 
L 1050.655063 714.40625 
L 1050.655063 0 
L 0 0 
z
" style="fill: #ffffff"/>
  </g>
  <g id="axes_1">
   <g id="patch_2">
    <path d="M 71.6375 321.070625 
L 1032.564189 321.070625 
L 1032.564189 27.340625 
L 71.6375 27.340625 
z
" style="fill: #ffffff"/>
   </g>
   <g id="matplotlib.axis_1">
    <g id="xtick_1">
     <g id="line2d_1">
      <defs>
       <path id="m29f7181484" d="M 0 0 
L 0 3.5 
" style="stroke: #000000; stroke-width: 0.8"/>
      </defs>
      <g>
       <use xlink:href="#m29f7181484" x="115.315986" y="321.070625" style="stroke: #000000; stroke-width: 0.8"/>
      </g>
     </g>
     <g id="text_1">
      <!-- 0 -->
      <g transform="translate(110.315986 341.958125) scale(0.2 -0.2)">
       <defs>
        <path id="TimesNewRomanPSMT-30" d="M 231 2094 
Q 231 2819 450 3342 
Q 669 3866 1031 4122 
Q 1313 4325 1613 4325 
Q 2100 4325 2488 3828 
Q 2972 3213 2972 2159 
Q 2972 1422 2759 906 
Q 2547 391 2217 158 
Q 1888 -75 1581 -75 
Q 975 -75 572 641 
Q 231 1244 231 2094 
z
M 844 2016 
Q 844 1141 1059 588 
Q 1238 122 1591 122 
Q 1759 122 1940 273 
Q 2122 425 2216 781 
Q 2359 1319 2359 2297 
Q 2359 3022 2209 3506 
Q 2097 3866 1919 4016 
Q 1791 4119 1609 4119 
Q 1397 4119 1231 3928 
Q 1006 3669 925 3112 
Q 844 2556 844 2016 
z
" transform="scale(0.015625)"/>
       </defs>
       <use xlink:href="#TimesNewRomanPSMT-30"/>
      </g>
     </g>
    </g>
    <g id="xtick_2">
     <g id="line2d_2">
      <g>
       <use xlink:href="#m29f7181484" x="267.505832" y="321.070625" style="stroke: #000000; stroke-width: 0.8"/>
      </g>
     </g>
     <g id="text_2">
      <!-- 50 -->
      <g transform="translate(257.505832 341.958125) scale(0.2 -0.2)">
       <defs>
        <path id="TimesNewRomanPSMT-35" d="M 2778 4238 
L 2534 3706 
L 1259 3706 
L 981 3138 
Q 1809 3016 2294 2522 
Q 2709 2097 2709 1522 
Q 2709 1188 2573 903 
Q 2438 619 2231 419 
Q 2025 219 1772 97 
Q 1413 -75 1034 -75 
Q 653 -75 479 54 
Q 306 184 306 341 
Q 306 428 378 495 
Q 450 563 559 563 
Q 641 563 702 538 
Q 763 513 909 409 
Q 1144 247 1384 247 
Q 1750 247 2026 523 
Q 2303 800 2303 1197 
Q 2303 1581 2056 1914 
Q 1809 2247 1375 2428 
Q 1034 2569 447 2591 
L 1259 4238 
L 2778 4238 
z
" transform="scale(0.015625)"/>
       </defs>
       <use xlink:href="#TimesNewRomanPSMT-35"/>
       <use xlink:href="#TimesNewRomanPSMT-30" x="50"/>
      </g>
     </g>
    </g>
    <g id="xtick_3">
     <g id="line2d_3">
      <g>
       <use xlink:href="#m29f7181484" x="419.695678" y="321.070625" style="stroke: #000000; stroke-width: 0.8"/>
      </g>
     </g>
     <g id="text_3">
      <!-- 100 -->
      <g transform="translate(404.695678 341.958125) scale(0.2 -0.2)">
       <defs>
        <path id="TimesNewRomanPSMT-31" d="M 750 3822 
L 1781 4325 
L 1884 4325 
L 1884 747 
Q 1884 391 1914 303 
Q 1944 216 2037 169 
Q 2131 122 2419 116 
L 2419 0 
L 825 0 
L 825 116 
Q 1125 122 1212 167 
Q 1300 213 1334 289 
Q 1369 366 1369 747 
L 1369 3034 
Q 1369 3497 1338 3628 
Q 1316 3728 1258 3775 
Q 1200 3822 1119 3822 
Q 1003 3822 797 3725 
L 750 3822 
z
" transform="scale(0.015625)"/>
       </defs>
       <use xlink:href="#TimesNewRomanPSMT-31"/>
       <use xlink:href="#TimesNewRomanPSMT-30" x="50"/>
       <use xlink:href="#TimesNewRomanPSMT-30" x="100"/>
      </g>
     </g>
    </g>
    <g id="xtick_4">
     <g id="line2d_4">
      <g>
       <use xlink:href="#m29f7181484" x="571.885525" y="321.070625" style="stroke: #000000; stroke-width: 0.8"/>
      </g>
     </g>
     <g id="text_4">
      <!-- 150 -->
      <g transform="translate(556.885525 341.958125) scale(0.2 -0.2)">
       <use xlink:href="#TimesNewRomanPSMT-31"/>
       <use xlink:href="#TimesNewRomanPSMT-35" x="50"/>
       <use xlink:href="#TimesNewRomanPSMT-30" x="100"/>
      </g>
     </g>
    </g>
    <g id="xtick_5">
     <g id="line2d_5">
      <g>
       <use xlink:href="#m29f7181484" x="724.075371" y="321.070625" style="stroke: #000000; stroke-width: 0.8"/>
      </g>
     </g>
     <g id="text_5">
      <!-- 200 -->
      <g transform="translate(709.075371 341.958125) scale(0.2 -0.2)">
       <defs>
        <path id="TimesNewRomanPSMT-32" d="M 2934 816 
L 2638 0 
L 138 0 
L 138 116 
Q 1241 1122 1691 1759 
Q 2141 2397 2141 2925 
Q 2141 3328 1894 3587 
Q 1647 3847 1303 3847 
Q 991 3847 742 3664 
Q 494 3481 375 3128 
L 259 3128 
Q 338 3706 661 4015 
Q 984 4325 1469 4325 
Q 1984 4325 2329 3994 
Q 2675 3663 2675 3213 
Q 2675 2891 2525 2569 
Q 2294 2063 1775 1497 
Q 997 647 803 472 
L 1909 472 
Q 2247 472 2383 497 
Q 2519 522 2628 598 
Q 2738 675 2819 816 
L 2934 816 
z
" transform="scale(0.015625)"/>
       </defs>
       <use xlink:href="#TimesNewRomanPSMT-32"/>
       <use xlink:href="#TimesNewRomanPSMT-30" x="50"/>
       <use xlink:href="#TimesNewRomanPSMT-30" x="100"/>
      </g>
     </g>
    </g>
    <g id="xtick_6">
     <g id="line2d_6">
      <g>
       <use xlink:href="#m29f7181484" x="876.265217" y="321.070625" style="stroke: #000000; stroke-width: 0.8"/>
      </g>
     </g>
     <g id="text_6">
      <!-- 250 -->
      <g transform="translate(861.265217 341.958125) scale(0.2 -0.2)">
       <use xlink:href="#TimesNewRomanPSMT-32"/>
       <use xlink:href="#TimesNewRomanPSMT-35" x="50"/>
       <use xlink:href="#TimesNewRomanPSMT-30" x="100"/>
      </g>
     </g>
    </g>
    <g id="xtick_7">
     <g id="line2d_7">
      <g>
       <use xlink:href="#m29f7181484" x="1028.455063" y="321.070625" style="stroke: #000000; stroke-width: 0.8"/>
      </g>
     </g>
     <g id="text_7">
      <!-- 300 -->
      <g transform="translate(1013.455063 341.958125) scale(0.2 -0.2)">
       <defs>
        <path id="TimesNewRomanPSMT-33" d="M 325 3431 
Q 506 3859 782 4092 
Q 1059 4325 1472 4325 
Q 1981 4325 2253 3994 
Q 2459 3747 2459 3466 
Q 2459 3003 1878 2509 
Q 2269 2356 2469 2072 
Q 2669 1788 2669 1403 
Q 2669 853 2319 450 
Q 1863 -75 997 -75 
Q 569 -75 414 31 
Q 259 138 259 259 
Q 259 350 332 419 
Q 406 488 509 488 
Q 588 488 669 463 
Q 722 447 909 348 
Q 1097 250 1169 231 
Q 1284 197 1416 197 
Q 1734 197 1970 444 
Q 2206 691 2206 1028 
Q 2206 1275 2097 1509 
Q 2016 1684 1919 1775 
Q 1784 1900 1550 2001 
Q 1316 2103 1072 2103 
L 972 2103 
L 972 2197 
Q 1219 2228 1467 2375 
Q 1716 2522 1828 2728 
Q 1941 2934 1941 3181 
Q 1941 3503 1739 3701 
Q 1538 3900 1238 3900 
Q 753 3900 428 3381 
L 325 3431 
z
" transform="scale(0.015625)"/>
       </defs>
       <use xlink:href="#TimesNewRomanPSMT-33"/>
       <use xlink:href="#TimesNewRomanPSMT-30" x="50"/>
       <use xlink:href="#TimesNewRomanPSMT-30" x="100"/>
      </g>
     </g>
    </g>
   </g>
   <g id="matplotlib.axis_2">
    <g id="ytick_1">
     <g id="line2d_8">
      <defs>
       <path id="m808372c984" d="M 0 0 
L -3.5 0 
" style="stroke: #000000; stroke-width: 0.8"/>
      </defs>
      <g>
       <use xlink:href="#m808372c984" x="71.6375" y="262.803399" style="stroke: #000000; stroke-width: 0.8"/>
      </g>
     </g>
     <g id="text_8">
      <!-- 10.0 -->
      <g transform="translate(29.6375 269.747149) scale(0.2 -0.2)">
       <defs>
        <path id="TimesNewRomanPSMT-2e" d="M 800 606 
Q 947 606 1047 504 
Q 1147 403 1147 259 
Q 1147 116 1045 14 
Q 944 -88 800 -88 
Q 656 -88 554 14 
Q 453 116 453 259 
Q 453 406 554 506 
Q 656 606 800 606 
z
" transform="scale(0.015625)"/>
       </defs>
       <use xlink:href="#TimesNewRomanPSMT-31"/>
       <use xlink:href="#TimesNewRomanPSMT-30" x="50"/>
       <use xlink:href="#TimesNewRomanPSMT-2e" x="100"/>
       <use xlink:href="#TimesNewRomanPSMT-30" x="125"/>
      </g>
     </g>
    </g>
    <g id="ytick_2">
     <g id="line2d_9">
      <g>
       <use xlink:href="#m808372c984" x="71.6375" y="201.105785" style="stroke: #000000; stroke-width: 0.8"/>
      </g>
     </g>
     <g id="text_9">
      <!-- 20.0 -->
      <g transform="translate(29.6375 208.049535) scale(0.2 -0.2)">
       <use xlink:href="#TimesNewRomanPSMT-32"/>
       <use xlink:href="#TimesNewRomanPSMT-30" x="50"/>
       <use xlink:href="#TimesNewRomanPSMT-2e" x="100"/>
       <use xlink:href="#TimesNewRomanPSMT-30" x="125"/>
      </g>
     </g>
    </g>
    <g id="ytick_3">
     <g id="line2d_10">
      <g>
       <use xlink:href="#m808372c984" x="71.6375" y="139.408171" style="stroke: #000000; stroke-width: 0.8"/>
      </g>
     </g>
     <g id="text_10">
      <!-- 30.0 -->
      <g transform="translate(29.6375 146.351921) scale(0.2 -0.2)">
       <use xlink:href="#TimesNewRomanPSMT-33"/>
       <use xlink:href="#TimesNewRomanPSMT-30" x="50"/>
       <use xlink:href="#TimesNewRomanPSMT-2e" x="100"/>
       <use xlink:href="#TimesNewRomanPSMT-30" x="125"/>
      </g>
     </g>
    </g>
    <g id="ytick_4">
     <g id="line2d_11">
      <g>
       <use xlink:href="#m808372c984" x="71.6375" y="77.710557" style="stroke: #000000; stroke-width: 0.8"/>
      </g>
     </g>
     <g id="text_11">
      <!-- 40.0 -->
      <g transform="translate(29.6375 84.654307) scale(0.2 -0.2)">
       <defs>
        <path id="TimesNewRomanPSMT-34" d="M 2978 1563 
L 2978 1119 
L 2409 1119 
L 2409 0 
L 1894 0 
L 1894 1119 
L 100 1119 
L 100 1519 
L 2066 4325 
L 2409 4325 
L 2409 1563 
L 2978 1563 
z
M 1894 1563 
L 1894 3666 
L 406 1563 
L 1894 1563 
z
" transform="scale(0.015625)"/>
       </defs>
       <use xlink:href="#TimesNewRomanPSMT-34"/>
       <use xlink:href="#TimesNewRomanPSMT-30" x="50"/>
       <use xlink:href="#TimesNewRomanPSMT-2e" x="100"/>
       <use xlink:href="#TimesNewRomanPSMT-30" x="125"/>
      </g>
     </g>
    </g>
    <g id="text_12">
     <!-- CPU使用率 -->
     <g transform="translate(23.059375 219.205625) rotate(-90) scale(0.2 -0.2)">
      <defs>
       <path id="SimSun-43" d="M 1725 50 
Q 1025 50 612 575 
Q 200 1100 200 2225 
Q 200 3175 637 3800 
Q 1075 4425 1825 4425 
Q 2000 4425 2175 4375 
Q 2350 4300 2475 4300 
Q 2575 4300 2637 4325 
Q 2700 4350 2750 4425 
L 2975 3325 
L 2825 3275 
Q 2675 3750 2425 4000 
Q 2175 4250 1775 4250 
Q 1250 4250 962 3675 
Q 675 3100 675 2250 
Q 675 1325 925 800 
Q 1175 275 1750 275 
Q 2150 275 2437 562 
Q 2725 850 2825 1325 
L 2975 1250 
Q 2850 725 2512 387 
Q 2175 50 1725 50 
z
" transform="scale(0.015625)"/>
       <path id="SimSun-50" d="M 950 2100 
L 950 450 
Q 950 350 1012 300 
Q 1075 250 1175 250 
L 1350 250 
L 1350 100 
L 150 100 
L 150 250 
L 325 250 
Q 450 250 500 300 
Q 550 350 550 450 
L 550 4025 
Q 550 4125 500 4175 
Q 450 4225 325 4225 
L 175 4225 
L 175 4375 
L 1650 4375 
Q 2275 4375 2612 4062 
Q 2950 3750 2950 3275 
Q 2950 2700 2587 2400 
Q 2225 2100 1725 2100 
L 950 2100 
z
M 1575 2250 
Q 1950 2250 2237 2475 
Q 2525 2700 2525 3250 
Q 2525 3750 2287 3987 
Q 2050 4225 1525 4225 
L 1175 4225 
Q 1075 4225 1012 4175 
Q 950 4125 950 4025 
L 950 2250 
L 1575 2250 
z
" transform="scale(0.015625)"/>
       <path id="SimSun-55" d="M 1625 250 
Q 2000 250 2262 500 
Q 2525 750 2525 1125 
L 2525 4025 
Q 2525 4125 2475 4175 
Q 2425 4225 2300 4225 
L 2150 4225 
L 2150 4375 
L 3050 4375 
L 3050 4225 
L 2900 4225 
Q 2800 4225 2737 4175 
Q 2675 4125 2675 4025 
L 2675 1125 
Q 2675 625 2337 337 
Q 2000 50 1575 50 
Q 1125 50 787 300 
Q 450 550 450 1100 
L 450 4025 
Q 450 4125 400 4175 
Q 350 4225 225 4225 
L 100 4225 
L 100 4375 
L 1200 4375 
L 1200 4225 
L 1075 4225 
Q 975 4225 912 4175 
Q 850 4125 850 4025 
L 850 1100 
Q 850 600 1062 425 
Q 1275 250 1625 250 
z
" transform="scale(0.015625)"/>
       <path id="SimSun-4f7f" d="M 2875 3150 
L 2875 2100 
L 3825 2100 
Q 3850 2825 3850 3150 
L 2875 3150 
z
M 4175 3150 
Q 4175 2800 4150 2100 
L 5150 2100 
L 5150 3150 
L 4175 3150 
z
M 5475 3100 
L 5475 2425 
Q 5475 2100 5500 1800 
L 5150 1675 
L 5150 1950 
L 4150 1950 
Q 4125 1175 3875 600 
Q 4275 275 4875 75 
Q 5475 -125 6075 -150 
L 6075 -250 
Q 5700 -300 5600 -575 
Q 4525 -325 3725 350 
Q 3425 25 2925 -225 
Q 2425 -475 1875 -650 
L 1825 -550 
Q 2400 -325 2850 -25 
Q 3300 275 3500 575 
Q 3200 925 2825 1650 
L 2900 1700 
Q 3325 1100 3625 825 
Q 3800 1300 3825 1950 
L 2875 1950 
L 2875 1825 
L 2525 1675 
Q 2550 2075 2550 2562 
Q 2550 3050 2525 3500 
L 2875 3300 
L 3850 3300 
L 3850 4025 
L 2975 4025 
Q 2650 4025 2375 3950 
L 2150 4175 
L 3850 4175 
L 3850 4525 
Q 3850 4775 3825 5225 
L 4350 5000 
L 4175 4825 
L 4175 4175 
L 5300 4175 
L 5600 4475 
L 6050 4025 
L 4175 4025 
L 4175 3300 
L 5100 3300 
L 5275 3525 
L 5650 3225 
L 5475 3100 
z
M 1675 3175 
L 1675 -450 
L 1325 -625 
Q 1350 -75 1350 350 
L 1350 3200 
Q 900 2475 350 1900 
L 275 1950 
Q 700 2525 1112 3400 
Q 1525 4275 1800 5250 
L 2325 4925 
L 2125 4800 
Q 1725 3925 1500 3525 
L 1875 3325 
L 1675 3175 
z
" transform="scale(0.015625)"/>
       <path id="SimSun-7528" d="M 3400 3150 
L 3400 1825 
L 5075 1825 
L 5075 3150 
L 3400 3150 
z
M 4075 100 
Q 4725 50 4900 62 
Q 5075 75 5075 400 
L 5075 1675 
L 3400 1675 
Q 3400 75 3425 -225 
L 3050 -400 
Q 3075 1025 3075 1675 
L 1425 1675 
Q 1250 350 375 -600 
L 300 -550 
Q 775 225 950 1025 
Q 1125 1825 1125 3225 
Q 1125 4625 1100 5075 
L 1475 4825 
L 5050 4825 
L 5225 5100 
L 5625 4800 
L 5425 4600 
L 5425 225 
Q 5450 -400 4875 -575 
Q 4825 -150 4075 -25 
L 4075 100 
z
M 1475 4675 
L 1475 3300 
L 3075 3300 
L 3075 4675 
L 1475 4675 
z
M 3400 4675 
L 3400 3300 
L 5075 3300 
L 5075 4675 
L 3400 4675 
z
M 1475 3150 
Q 1450 2100 1425 1825 
L 3075 1825 
L 3075 3150 
L 1475 3150 
z
" transform="scale(0.015625)"/>
       <path id="SimSun-7387" d="M 875 3725 
L 925 3800 
Q 1375 3650 1550 3525 
Q 1725 3400 1725 3250 
Q 1725 3175 1662 3025 
Q 1600 2875 1550 2875 
Q 1500 2875 1425 3050 
Q 1275 3325 875 3725 
z
M 550 1850 
Q 875 1925 2000 2575 
L 2050 2500 
Q 1675 2225 1337 1937 
Q 1000 1650 875 1425 
L 550 1850 
z
M 5200 3450 
Q 4800 3150 4275 2800 
L 4225 2875 
Q 4775 3400 5050 3925 
L 5450 3525 
L 5200 3450 
z
M 4325 2500 
L 4350 2575 
Q 5225 2350 5375 2212 
Q 5525 2075 5525 1900 
Q 5525 1775 5487 1662 
Q 5450 1550 5400 1550 
Q 5325 1550 5200 1800 
Q 4975 2150 4325 2500 
z
M 3150 3900 
Q 2500 3300 2300 3150 
Q 2800 3150 3400 3175 
Q 3700 3500 3850 3825 
L 4250 3450 
Q 4050 3400 3450 2825 
Q 2850 2250 2475 1950 
Q 3150 1975 3850 2000 
Q 3750 2175 3550 2450 
L 3600 2500 
Q 4050 2250 4200 2100 
Q 4350 1950 4350 1850 
Q 4350 1775 4250 1625 
Q 4150 1475 4100 1475 
Q 4075 1475 4050 1550 
Q 4000 1700 3900 1900 
Q 3650 1875 3075 1800 
L 3500 1550 
L 3325 1425 
L 3325 975 
L 5325 975 
L 5650 1300 
L 6100 825 
L 3325 825 
Q 3325 -275 3350 -525 
L 2975 -650 
Q 3000 0 3000 825 
L 1125 825 
Q 800 825 525 750 
L 300 975 
L 3000 975 
L 3000 1775 
Q 2450 1700 2200 1525 
L 1950 1950 
Q 2275 1950 2675 2350 
Q 3075 2750 3325 3050 
Q 2400 2950 2150 2775 
L 1950 3175 
Q 2150 3150 2475 3575 
Q 2800 4000 2900 4225 
L 1450 4225 
Q 1125 4225 850 4150 
L 625 4375 
L 3100 4375 
Q 3050 4800 2675 5200 
L 2725 5250 
Q 3225 5050 3337 4912 
Q 3450 4775 3450 4700 
Q 3450 4550 3250 4375 
L 5025 4375 
L 5350 4675 
L 5775 4225 
L 3050 4225 
L 3375 3950 
L 3150 3900 
z
" transform="scale(0.015625)"/>
      </defs>
      <use xlink:href="#SimSun-43"/>
      <use xlink:href="#SimSun-50" x="50"/>
      <use xlink:href="#SimSun-55" x="100"/>
      <use xlink:href="#SimSun-4f7f" x="150"/>
      <use xlink:href="#SimSun-7528" x="250"/>
      <use xlink:href="#SimSun-7387" x="350"/>
     </g>
    </g>
   </g>
   <g id="line2d_12">
    <path d="M 115.315986 103.62356 
L 118.359783 69.072905 
L 121.40358 110.410288 
L 124.447377 97.145315 
L 127.491174 146.071501 
L 130.53497 133.485206 
L 133.578767 204.314052 
L 136.622564 224.304089 
L 139.666361 246.638624 
L 142.710158 239.296605 
L 145.753955 247.934275 
L 148.797752 249.229925 
L 151.841549 265.271301 
L 154.885346 270.207111 
L 157.929143 275.759897 
L 160.97294 263.111888 
L 164.016737 262.926797 
L 167.060534 278.289501 
L 170.104331 245.898254 
L 173.148127 211.162491 
L 176.191924 215.35793 
L 179.235721 192.838304 
L 182.279518 178.462748 
L 185.323315 174.329019 
L 188.367112 184.632521 
L 191.410909 149.711661 
L 194.454706 156.868583 
L 197.498503 209.866846 
L 200.5423 227.080486 
L 203.586097 235.656445 
L 206.629894 239.975283 
L 209.673691 242.134702 
L 212.717487 230.905732 
L 215.761284 246.823716 
L 218.805081 223.995594 
L 221.848878 237.198891 
L 224.892675 219.183187 
L 227.936472 244.047324 
L 230.980269 256.510239 
L 234.024066 275.081222 
L 240.11166 287.482444 
L 243.155457 290.567325 
L 246.199254 301.364407 
L 249.243051 303.64722 
L 252.286847 292.479951 
L 255.330644 271.502761 
L 258.374441 214.679265 
L 261.418238 201.722751 
L 264.462035 133.546893 
L 267.505832 102.574688 
L 270.549629 46.923437 
L 273.593426 65.432745 
L 276.637223 86.965199 
L 279.68102 51.489071 
L 282.724817 95.479476 
L 285.768614 92.76479 
L 288.812411 82.152793 
L 291.856207 120.035124 
L 294.900004 117.382125 
L 297.943801 177.722383 
L 300.987598 164.765882 
L 304.031395 142.801535 
L 307.075192 131.881054 
L 310.118989 114.050471 
L 313.162786 145.20775 
L 316.206583 129.968432 
L 319.25038 134.719151 
L 322.294177 90.790468 
L 325.337974 192.221325 
L 328.381771 199.74843 
L 331.425568 255.95496 
L 334.469364 274.772733 
L 337.513161 296.551992 
L 340.556958 301.30271 
L 343.600755 285.137934 
L 346.644552 280.140428 
L 349.688349 286.865469 
L 352.732146 271.749551 
L 355.775943 279.646847 
L 358.81974 234.17571 
L 361.863537 233.065151 
L 364.907334 238.679633 
L 367.951131 235.347962 
L 370.994928 215.111134 
L 374.038724 214.30907 
L 377.082521 192.283024 
L 380.126318 184.324026 
L 383.170115 186.545144 
L 386.213912 159.891777 
L 389.257709 180.498781 
L 392.301506 181.547641 
L 395.345303 197.527324 
L 398.3891 205.48631 
L 401.432897 249.538414 
L 404.476694 228.43783 
L 407.520491 217.825832 
L 410.564288 215.666425 
L 413.608084 229.98027 
L 416.651881 203.203505 
L 419.695678 211.409287 
L 422.739475 193.887163 
L 425.783272 216.036608 
L 428.827069 264.099049 
L 431.870866 263.420377 
L 434.914663 278.536291 
L 437.95846 292.294859 
L 441.002257 292.973531 
L 444.046054 302.536662 
L 447.089851 285.754913 
L 450.133648 286.618678 
L 453.177445 268.541279 
L 456.221241 293.467111 
L 459.265038 284.274168 
L 462.308835 205.671407 
L 465.352632 157.115379 
L 468.396429 169.886784 
L 471.440226 157.732358 
L 474.484023 96.096443 
L 477.52782 89.988392 
L 480.571617 59.201273 
L 483.615414 46.861774 
L 486.659211 40.691989 
L 489.703008 59.201273 
L 492.746805 74.625676 
L 495.790601 66.913475 
L 498.834398 50.686995 
L 501.878195 107.387118 
L 504.921992 135.768011 
L 507.965789 162.236293 
L 511.009586 166.246623 
L 514.053383 140.51873 
L 517.09718 127.623928 
L 520.140977 142.739836 
L 523.184774 159.583282 
L 526.228571 158.781218 
L 529.272368 198.452785 
L 532.316165 199.74843 
L 535.359961 231.27592 
L 538.403758 268.664671 
L 541.447555 262.618307 
L 544.491352 259.656819 
L 547.535149 267.369021 
L 550.578946 240.40717 
L 553.622743 245.466367 
L 556.66654 229.42499 
L 559.710337 252.314805 
L 562.754134 208.201008 
L 565.797931 192.283024 
L 568.841728 168.961322 
L 571.885525 163.408539 
L 574.929321 145.269437 
L 577.973118 154.647477 
L 581.016915 159.398196 
L 584.060712 164.827593 
L 587.104509 226.155019 
L 590.148306 247.564092 
L 593.192103 242.813373 
L 596.2359 240.468863 
L 599.279697 226.957088 
L 602.323494 247.995968 
L 605.367291 202.956708 
L 608.411088 214.370769 
L 611.454885 232.386473 
L 614.498682 232.201382 
L 617.542478 256.757035 
L 620.586275 253.610456 
L 623.630072 258.176078 
L 626.673869 275.944991 
L 629.717666 275.513107 
L 632.761463 275.328016 
L 635.80526 290.69072 
L 638.849057 270.577299 
L 641.892854 288.284514 
L 644.936651 263.173581 
L 647.980448 256.818728 
L 651.024245 256.757035 
L 654.068042 213.507007 
L 657.111838 198.020904 
L 660.155635 156.375015 
L 663.199432 107.818999 
L 666.243229 114.358931 
L 669.287026 123.798682 
L 672.330823 122.317929 
L 675.37462 118.554371 
L 678.418417 58.029027 
L 681.462214 64.754067 
L 684.506011 68.147432 
L 687.549808 79.129599 
L 690.593605 130.832195 
L 693.637402 178.339362 
L 696.681198 195.861485 
L 699.724995 235.533059 
L 702.768792 246.083345 
L 705.812589 232.81836 
L 708.856386 250.895757 
L 711.900183 275.389712 
L 714.94398 256.757035 
L 717.987777 275.20462 
L 721.031574 284.397563 
L 724.075371 276.685362 
L 727.119168 294.454275 
L 730.162965 303.277033 
L 733.206762 307.719261 
L 736.250558 285.261329 
L 739.294355 274.032362 
L 742.338152 249.908596 
L 748.425746 262.680001 
L 751.469543 238.062654 
L 754.51334 222.638251 
L 757.557137 205.733106 
L 760.600934 197.21884 
L 763.644731 202.278043 
L 766.688528 186.236649 
L 769.732325 199.871828 
L 772.776122 178.894641 
L 775.819919 180.745565 
L 778.863715 200.180311 
L 781.907512 231.461011 
L 784.951309 234.792682 
L 787.995106 239.543401 
L 791.038903 204.93103 
L 794.0827 233.86722 
L 797.126497 208.201008 
L 800.170294 217.023769 
L 803.214091 187.470606 
L 806.257888 215.851511 
L 809.301685 239.358304 
L 812.345482 238.741332 
L 815.389279 210.66891 
L 818.433075 212.026265 
L 821.476872 215.851511 
L 824.520669 233.12685 
L 827.564466 223.316928 
L 830.608263 193.702078 
L 833.65206 185.064403 
L 836.695857 183.830446 
L 839.739654 189.383229 
L 842.783451 210.66891 
L 845.827248 162.668162 
L 848.871045 154.153897 
L 851.914842 115.901395 
L 854.958639 124.600758 
L 858.002435 104.240526 
L 861.046232 115.654599 
L 864.090029 118.245887 
L 867.133826 150.452038 
L 870.177623 92.456283 
L 873.22142 106.70844 
L 876.265217 101.464129 
L 879.309014 98.81113 
L 882.352811 94.430605 
L 885.396608 144.714158 
L 888.440405 175.994846 
L 891.484202 203.943869 
L 894.527999 248.798043 
L 897.571795 246.576925 
L 900.615592 242.319793 
L 903.659389 237.137192 
L 906.703186 185.187789 
L 909.746983 171.552622 
L 912.79078 180.190297 
L 915.834577 206.041589 
L 918.878374 200.488806 
L 921.922171 191.542648 
L 924.965968 214.86435 
L 928.009765 214.123973 
L 931.053562 219.985251 
L 934.097359 170.442063 
L 937.141156 182.6582 
L 940.184952 157.979154 
L 943.228749 191.851131 
L 946.272546 171.799406 
L 949.316343 174.143922 
L 955.403937 212.890028 
L 958.447734 228.561222 
L 961.491531 245.713157 
L 964.535328 244.972792 
L 967.579125 235.409661 
L 970.622922 218.257726 
L 973.666719 191.172465 
L 976.710516 189.93852 
L 979.754312 192.468109 
L 982.798109 227.63576 
L 985.841906 260.643986 
L 988.885703 270.947482 
L 988.885703 270.947482 
" clip-path="url(#pc8823715a4)" style="fill: none; stroke: #1f77b4; stroke-width: 1.5; stroke-linecap: square"/>
   </g>
   <g id="line2d_13">
    <path d="M 553.622743 241.370513 
L 556.66654 232.762004 
L 559.710337 238.926717 
L 562.754134 238.008192 
L 565.797931 228.945896 
L 568.841728 223.711882 
L 571.885525 210.772185 
L 574.929321 223.666152 
L 577.973118 215.119242 
L 581.016915 212.168727 
L 584.060712 218.281273 
L 587.104509 221.389125 
L 590.148306 219.327415 
L 593.192103 230.316631 
L 596.2359 227.847905 
L 599.279697 227.169228 
L 602.323494 239.871331 
L 605.367291 246.156435 
L 608.411088 243.593902 
L 611.454885 245.376136 
L 614.498682 256.982314 
L 617.542478 253.425005 
L 620.586275 255.754782 
L 623.630072 252.438886 
L 626.673869 248.305869 
L 629.717666 243.890435 
L 632.761463 246.011861 
L 635.80526 227.637378 
L 638.849057 218.874069 
L 641.892854 203.03806 
L 644.936651 193.655772 
L 647.980448 180.781304 
L 651.024245 157.073203 
L 654.068042 145.260611 
L 657.111838 131.509836 
L 660.155635 115.447225 
L 663.199432 124.280365 
L 666.243229 116.749012 
L 669.287026 105.082636 
L 672.330823 109.292527 
L 675.37462 106.004273 
L 678.418417 109.843123 
L 681.462214 110.955753 
L 684.506011 112.813408 
L 687.549808 124.466274 
L 690.593605 131.685143 
L 693.637402 141.995199 
L 696.681198 151.598277 
L 702.768792 182.9208 
L 705.812589 183.920988 
L 708.856386 209.350413 
L 711.900183 209.784483 
L 714.94398 226.305053 
L 717.987777 226.094337 
L 721.031574 224.559758 
L 724.075371 247.81769 
L 727.119168 253.641564 
L 730.162965 249.40822 
L 733.206762 247.32438 
L 736.250558 252.63751 
L 739.294355 246.507877 
L 742.338152 244.977835 
L 745.381949 237.911707 
L 748.425746 223.905475 
L 751.469543 228.804646 
L 754.51334 221.170842 
L 757.557137 214.649468 
L 760.600934 209.688422 
L 763.644731 205.608672 
L 766.688528 210.542041 
L 769.732325 210.997517 
L 772.776122 214.281075 
L 775.819919 220.054446 
L 778.863715 224.229739 
L 781.907512 218.960904 
L 784.951309 227.965984 
L 787.995106 229.920742 
L 791.038903 230.616665 
L 794.0827 223.590331 
L 797.126497 227.389682 
L 800.170294 219.255984 
L 803.214091 221.985309 
L 806.257888 223.951923 
L 809.301685 220.596052 
L 812.345482 219.323649 
L 815.389279 209.969851 
L 818.433075 212.954493 
L 821.476872 200.477297 
L 824.520669 197.428309 
L 827.564466 202.648778 
L 830.608263 176.607153 
L 833.65206 179.043623 
L 836.695857 165.708643 
L 839.739654 160.848894 
L 842.783451 155.662081 
L 845.827248 145.59276 
L 848.871045 145.25761 
L 851.914842 133.563415 
L 854.958639 137.107184 
L 858.002435 134.108774 
L 861.046232 129.206696 
L 864.090029 135.298131 
L 867.133826 129.807624 
L 870.177623 142.371807 
L 873.22142 149.082126 
L 876.265217 147.670486 
L 879.309014 163.849964 
L 882.352811 174.902763 
L 885.396608 179.977805 
L 888.440405 188.397539 
L 891.484202 194.796915 
L 894.527999 201.613875 
L 897.571795 215.419147 
L 900.615592 216.51349 
L 903.659389 225.080193 
L 906.703186 232.342244 
L 909.746983 235.902647 
L 912.79078 241.620916 
L 915.834577 235.627408 
L 918.878374 242.915318 
L 921.922171 245.742724 
L 924.965968 246.736416 
L 928.009765 236.430813 
L 931.053562 237.2549 
L 934.097359 234.049417 
L 937.141156 230.151793 
L 940.184952 222.158697 
L 943.228749 217.820372 
L 946.272546 222.026768 
L 949.316343 222.65502 
L 952.36014 226.126958 
L 955.403937 214.686172 
L 958.447734 212.499946 
L 961.491531 212.243089 
L 964.535328 213.230744 
L 967.579125 223.662292 
L 970.622922 232.787458 
L 973.666719 230.80434 
L 976.710516 231.588952 
L 979.754312 227.379285 
L 982.798109 232.853193 
L 985.841906 225.289567 
L 988.885703 226.875996 
L 988.885703 226.875996 
" clip-path="url(#pc8823715a4)" style="fill: none; stroke: #ff0000; stroke-width: 2; stroke-linecap: square"/>
   </g>
   <g id="line2d_14">
    <path d="M 553.622743 239.983738 
L 556.66654 227.139814 
L 559.710337 223.204356 
L 562.754134 224.405481 
L 565.797931 212.489508 
L 568.841728 207.86334 
L 571.885525 205.02981 
L 574.929321 222.236389 
L 577.973118 222.143046 
L 581.016915 226.117467 
L 584.060712 223.074745 
L 587.104509 226.560552 
L 590.148306 227.337709 
L 593.192103 241.468174 
L 596.2359 240.486962 
L 599.279697 250.890315 
L 602.323494 246.914305 
L 605.367291 254.910166 
L 608.411088 257.003943 
L 611.454885 244.748349 
L 614.498682 257.10204 
L 617.542478 258.304206 
L 620.586275 258.401327 
L 623.630072 258.682909 
L 626.673869 254.635474 
L 629.717666 231.753237 
L 632.761463 233.769553 
L 635.80526 210.281323 
L 638.849057 207.124811 
L 641.892854 189.580423 
L 644.936651 182.549123 
L 647.980448 171.440874 
L 651.024245 167.050958 
L 654.068042 153.750247 
L 657.111838 127.116767 
L 660.155635 108.832755 
L 663.199432 110.396566 
L 666.243229 109.790685 
L 669.287026 97.518922 
L 672.330823 103.589597 
L 675.37462 109.203491 
L 678.418417 109.615791 
L 681.462214 102.352039 
L 684.506011 130.1347 
L 687.549808 119.492248 
L 690.593605 128.103928 
L 693.637402 131.102797 
L 696.681198 137.176827 
L 699.724995 142.349707 
L 702.768792 168.916463 
L 705.812589 162.525794 
L 708.856386 183.366968 
L 714.94398 215.941923 
L 717.987777 230.443589 
L 721.031574 238.223097 
L 724.075371 247.174516 
L 727.119168 253.41658 
L 730.162965 252.569498 
L 733.206762 258.340946 
L 736.250558 251.160205 
L 739.294355 254.430377 
L 742.338152 258.990827 
L 745.381949 243.853337 
L 748.425746 237.066932 
L 751.469543 231.520127 
L 754.51334 222.177138 
L 757.557137 229.916876 
L 760.600934 224.388159 
L 763.644731 232.124744 
L 766.688528 226.684014 
L 769.732325 234.353917 
L 772.776122 229.064393 
L 775.819919 234.827503 
L 778.863715 228.802922 
L 781.907512 229.411499 
L 784.951309 213.249619 
L 787.995106 218.650608 
L 791.038903 215.994844 
L 794.0827 223.358339 
L 797.126497 207.070185 
L 800.170294 215.751719 
L 803.214091 214.474892 
L 806.257888 216.990548 
L 809.301685 209.686045 
L 812.345482 229.475163 
L 815.389279 206.845159 
L 818.433075 203.073058 
L 821.476872 193.653147 
L 824.520669 186.718791 
L 827.564466 175.59788 
L 830.608263 181.527482 
L 833.65206 172.846995 
L 836.695857 171.282737 
L 839.739654 159.916172 
L 842.783451 151.509676 
L 845.827248 138.555905 
L 851.914842 141.417267 
L 854.958639 145.107582 
L 858.002435 132.1584 
L 861.046232 145.910728 
L 864.090029 151.923753 
L 867.133826 141.213694 
L 870.177623 147.283817 
L 873.22142 141.449193 
L 876.265217 150.039985 
L 879.309014 144.148923 
L 882.352811 163.542575 
L 885.396608 168.249553 
L 888.440405 167.197422 
L 891.484202 178.165444 
L 894.527999 179.316449 
L 897.571795 188.599029 
L 900.615592 191.631848 
L 903.659389 195.502035 
L 906.703186 204.774976 
L 909.746983 215.339302 
L 912.79078 224.461226 
L 915.834577 224.119004 
L 918.878374 240.00046 
L 921.922171 240.425787 
L 924.965968 260.619597 
L 928.009765 251.504004 
L 931.053562 252.357876 
L 934.097359 245.736092 
L 937.141156 250.444988 
L 940.184952 250.673021 
L 943.228749 248.683271 
L 946.272546 244.444685 
L 949.316343 237.478937 
L 952.36014 254.766727 
L 958.447734 251.447695 
L 961.491531 251.717126 
L 964.535328 249.263599 
L 967.579125 246.583198 
L 970.622922 244.13393 
L 973.666719 240.065725 
L 976.710516 235.433755 
L 979.754312 233.208448 
L 985.841906 206.361099 
L 988.885703 215.887685 
L 988.885703 215.887685 
" clip-path="url(#pc8823715a4)" style="fill: none; stroke-dasharray: 9.6,2.4,1.5,2.4; stroke-dashoffset: 0; stroke: #000000; stroke-opacity: 0.9; stroke-width: 1.5"/>
   </g>
   <g id="line2d_15">
    <path d="M 553.622743 321.070625 
L 553.622743 27.340625 
" clip-path="url(#pc8823715a4)" style="fill: none; stroke-dasharray: 7.4,3.2; stroke-dashoffset: 0; stroke: #0000ff; stroke-width: 2"/>
   </g>
   <g id="patch_3">
    <path d="M 71.6375 321.070625 
L 71.6375 27.340625 
" style="fill: none; stroke: #000000; stroke-width: 0.8; stroke-linejoin: miter; stroke-linecap: square"/>
   </g>
   <g id="patch_4">
    <path d="M 1032.564189 321.070625 
L 1032.564189 27.340625 
" style="fill: none; stroke: #000000; stroke-width: 0.8; stroke-linejoin: miter; stroke-linecap: square"/>
   </g>
   <g id="patch_5">
    <path d="M 71.6375 321.070625 
L 1032.564189 321.070625 
" style="fill: none; stroke: #000000; stroke-width: 0.8; stroke-linejoin: miter; stroke-linecap: square"/>
   </g>
   <g id="patch_6">
    <path d="M 71.6375 27.340625 
L 1032.564189 27.340625 
" style="fill: none; stroke: #000000; stroke-width: 0.8; stroke-linejoin: miter; stroke-linecap: square"/>
   </g>
   <g id="text_13">
    <!-- API_ID: 5 -->
    <g transform="translate(507.100845 21.340625) scale(0.2 -0.2)">
     <defs>
      <path id="SimSun-41" d="M 2025 1700 
L 900 1700 
L 675 750 
Q 650 625 650 550 
Q 650 450 687 350 
Q 725 250 900 250 
L 975 250 
L 975 100 
L 50 100 
L 50 250 
L 125 250 
Q 225 250 300 312 
Q 375 375 400 525 
L 1375 4350 
L 1750 4475 
L 2700 525 
Q 2750 375 2825 312 
Q 2900 250 3000 250 
L 3075 250 
L 3075 100 
L 2000 100 
L 2000 250 
L 2100 250 
Q 2250 250 2275 312 
Q 2300 375 2300 425 
Q 2300 525 2275 600 
L 2025 1700 
z
M 325 250 
L 325 250 
z
M 575 250 
L 575 250 
z
M 2350 250 
L 2350 250 
z
M 2775 250 
L 2775 250 
z
M 1500 3925 
L 1475 3925 
L 950 1850 
L 2000 1850 
L 1500 3925 
z
" transform="scale(0.015625)"/>
      <path id="SimSun-49" d="M 600 4225 
L 600 4375 
L 2600 4375 
L 2600 4225 
L 2025 4225 
Q 1925 4225 1862 4175 
Q 1800 4125 1800 4025 
L 1800 450 
Q 1800 350 1862 300 
Q 1925 250 2025 250 
L 2600 250 
L 2600 100 
L 600 100 
L 600 250 
L 1175 250 
Q 1300 250 1350 300 
Q 1400 350 1400 450 
L 1400 4025 
Q 1400 4125 1350 4175 
Q 1300 4225 1175 4225 
L 600 4225 
z
" transform="scale(0.015625)"/>
      <path id="SimSun-5f" d="M 0 -875 
L 0 -725 
L 3175 -725 
L 3175 -875 
L 0 -875 
z
" transform="scale(0.015625)"/>
      <path id="SimSun-44" d="M 2500 2275 
Q 2500 3350 2175 3787 
Q 1850 4225 1275 4225 
Q 1100 4225 1012 4175 
Q 925 4125 925 4025 
L 925 450 
Q 925 350 1000 300 
Q 1075 250 1200 250 
Q 1750 250 2125 662 
Q 2500 1075 2500 2275 
z
M 525 4025 
Q 525 4125 475 4175 
Q 425 4225 300 4225 
L 150 4225 
L 150 4375 
L 1275 4375 
Q 2050 4375 2512 3875 
Q 2975 3375 2975 2325 
Q 2975 1175 2525 637 
Q 2075 100 1200 100 
L 125 100 
L 125 250 
L 300 250 
Q 425 250 475 300 
Q 525 350 525 450 
L 525 4025 
z
" transform="scale(0.015625)"/>
      <path id="SimSun-3a" d="M 1900 2725 
Q 1900 2575 1800 2475 
Q 1700 2375 1550 2375 
Q 1400 2375 1300 2475 
Q 1200 2575 1200 2725 
Q 1200 2875 1300 2975 
Q 1400 3075 1550 3075 
Q 1700 3075 1800 2975 
Q 1900 2875 1900 2725 
z
M 1900 375 
Q 1900 225 1800 125 
Q 1700 25 1550 25 
Q 1400 25 1300 125 
Q 1200 225 1200 375 
Q 1200 525 1300 625 
Q 1400 725 1550 725 
Q 1700 725 1800 625 
Q 1900 525 1900 375 
z
" transform="scale(0.015625)"/>
      <path id="SimSun-20" d="M 0 0 
Q 0 0 0 0 
z
" transform="scale(0.015625)"/>
      <path id="SimSun-35" d="M 1725 2850 
Q 2200 2850 2500 2487 
Q 2800 2125 2800 1525 
Q 2800 850 2487 450 
Q 2175 50 1525 50 
Q 1075 50 725 312 
Q 375 575 375 950 
Q 375 1100 462 1212 
Q 550 1325 700 1325 
Q 850 1325 900 1225 
Q 950 1125 950 1050 
Q 950 900 875 825 
Q 800 725 800 625 
Q 800 425 1037 325 
Q 1275 225 1550 225 
Q 1950 225 2162 550 
Q 2375 875 2375 1475 
Q 2375 1975 2187 2287 
Q 2000 2600 1625 2600 
Q 1350 2600 1150 2500 
Q 950 2400 775 2075 
L 550 2100 
L 675 4375 
L 2725 4375 
L 2650 4000 
L 850 4000 
L 750 2350 
Q 1000 2700 1237 2775 
Q 1475 2850 1725 2850 
z
" transform="scale(0.015625)"/>
     </defs>
     <use xlink:href="#SimSun-41"/>
     <use xlink:href="#SimSun-50" x="50"/>
     <use xlink:href="#SimSun-49" x="100"/>
     <use xlink:href="#SimSun-5f" x="150"/>
     <use xlink:href="#SimSun-49" x="200"/>
     <use xlink:href="#SimSun-44" x="250"/>
     <use xlink:href="#SimSun-3a" x="300"/>
     <use xlink:href="#SimSun-20" x="350"/>
     <use xlink:href="#SimSun-35" x="400"/>
    </g>
   </g>
   <g id="legend_1">
    <g id="patch_7">
     <path d="M 85.6375 127.325 
L 229.6375 127.325 
Q 233.6375 127.325 233.6375 123.325 
L 233.6375 41.340625 
Q 233.6375 37.340625 229.6375 37.340625 
L 85.6375 37.340625 
Q 81.6375 37.340625 81.6375 41.340625 
L 81.6375 123.325 
Q 81.6375 127.325 85.6375 127.325 
z
" style="fill: #ffffff; opacity: 0.8; stroke: #cccccc; stroke-linejoin: miter"/>
    </g>
    <g id="line2d_16">
     <path d="M 89.6375 54.278125 
L 109.6375 54.278125 
L 129.6375 54.278125 
" style="fill: none; stroke: #1f77b4; stroke-width: 1.5; stroke-linecap: square"/>
    </g>
    <g id="text_14">
     <!-- 真实值 -->
     <g transform="translate(145.6375 61.278125) scale(0.2 -0.2)">
      <defs>
       <path id="SimSun-771f" d="M 2050 3450 
L 2050 2900 
L 4300 2900 
L 4300 3450 
L 2050 3450 
z
M 2050 2750 
L 2050 2225 
L 4300 2225 
L 4300 2750 
L 2050 2750 
z
M 2050 2075 
L 2050 1550 
L 4300 1550 
L 4300 2075 
L 2050 2075 
z
M 2050 1400 
L 2050 875 
L 4300 875 
L 4300 1400 
L 2050 1400 
z
M 2875 3600 
L 2925 4325 
L 1525 4325 
Q 1200 4325 925 4250 
L 700 4475 
L 2950 4475 
Q 2975 4825 2975 5275 
L 3550 5025 
L 3375 4925 
L 3300 4475 
L 5000 4475 
L 5325 4825 
L 5775 4325 
L 3275 4325 
L 3200 3600 
L 4275 3600 
L 4450 3875 
L 4850 3575 
L 4650 3375 
L 4650 875 
L 5300 875 
L 5675 1225 
L 6125 725 
L 1150 725 
Q 825 725 550 650 
L 325 875 
L 1700 875 
Q 1700 3200 1675 3775 
L 2050 3600 
L 2875 3600 
z
M 2425 725 
L 2825 350 
L 2575 300 
Q 1500 -425 800 -650 
L 775 -575 
Q 1950 125 2425 725 
z
M 3800 700 
Q 4575 375 4962 200 
Q 5350 25 5400 -112 
Q 5450 -250 5450 -325 
Q 5450 -400 5400 -525 
Q 5350 -650 5325 -650 
Q 5250 -650 5100 -450 
Q 4875 -150 3750 625 
L 3800 700 
z
" transform="scale(0.015625)"/>
       <path id="SimSun-5b9e" d="M 1950 3625 
Q 2575 3400 2700 3250 
Q 2825 3100 2825 2975 
Q 2825 2850 2750 2700 
Q 2675 2550 2625 2550 
Q 2550 2550 2450 2800 
Q 2275 3175 1900 3550 
L 1950 3625 
z
M 3575 1325 
Q 3500 1100 3425 925 
Q 4650 550 5087 325 
Q 5525 100 5512 -225 
Q 5500 -550 5400 -550 
Q 5300 -550 5075 -300 
Q 4625 175 3375 800 
Q 3025 175 2300 -150 
Q 1575 -475 425 -625 
L 425 -525 
Q 1475 -325 2200 100 
Q 2925 525 3200 1325 
L 1225 1325 
Q 900 1325 625 1250 
L 400 1475 
L 3225 1475 
Q 3325 1950 3375 2575 
Q 3425 3200 3425 3700 
L 4050 3400 
L 3850 3225 
Q 3750 2300 3625 1475 
L 5175 1475 
L 5550 1850 
L 6075 1325 
L 3575 1325 
z
M 1275 2700 
Q 1975 2425 2100 2262 
Q 2225 2100 2225 1975 
Q 2225 1850 2150 1700 
Q 2075 1550 2025 1550 
Q 1950 1550 1850 1800 
Q 1675 2175 1225 2625 
L 1275 2700 
z
M 2750 5225 
L 2825 5275 
Q 3225 5100 3425 4925 
Q 3625 4750 3625 4600 
Q 3625 4450 3512 4300 
Q 3400 4150 3325 4150 
Q 3250 4150 3200 4400 
Q 3100 4775 2750 5225 
z
M 4975 3225 
L 5350 3925 
L 1175 3925 
Q 1225 3525 1125 3300 
Q 1025 3075 787 3100 
Q 550 3125 550 3200 
Q 550 3300 700 3475 
Q 975 3825 1050 4375 
L 1150 4375 
L 1175 4075 
L 5300 4075 
L 5575 4350 
L 6050 3800 
Q 5625 3825 5050 3175 
L 4975 3225 
z
" transform="scale(0.015625)"/>
       <path id="SimSun-503c" d="M 1525 650 
Q 1525 -225 1550 -525 
L 1175 -650 
Q 1200 250 1200 550 
L 1200 3025 
Q 750 2300 325 1850 
L 250 1900 
Q 725 2625 1100 3525 
Q 1475 4425 1675 5200 
L 2200 4875 
L 1950 4725 
Q 1550 3800 1425 3475 
L 1725 3300 
L 1525 3150 
L 1525 650 
z
M 2875 3225 
L 2875 2475 
L 4800 2475 
L 4800 3225 
L 2875 3225 
z
M 2875 2325 
L 2875 1575 
L 4800 1575 
L 4800 2325 
L 2875 2325 
z
M 2875 1425 
L 2875 675 
L 4800 675 
L 4800 1425 
L 2875 1425 
z
M 2875 525 
L 2875 -225 
L 4800 -225 
L 4800 525 
L 2875 525 
z
M 3550 4250 
Q 3575 4825 3550 5225 
L 4125 4950 
L 3925 4800 
L 3900 4250 
L 5025 4250 
L 5350 4575 
L 5825 4100 
L 3900 4100 
L 3875 3375 
L 4750 3375 
L 4975 3625 
L 5350 3300 
L 5125 3150 
L 5125 -225 
L 5350 -225 
L 5675 100 
L 6150 -375 
L 2450 -375 
Q 2125 -375 1850 -450 
L 1625 -225 
L 2550 -225 
L 2550 2550 
Q 2550 2850 2525 3575 
L 2875 3375 
L 3525 3375 
L 3550 4100 
L 2800 4100 
Q 2475 4100 2200 4025 
L 1975 4250 
L 3550 4250 
z
" transform="scale(0.015625)"/>
      </defs>
      <use xlink:href="#SimSun-771f"/>
      <use xlink:href="#SimSun-5b9e" x="100"/>
      <use xlink:href="#SimSun-503c" x="200"/>
     </g>
    </g>
    <g id="line2d_17">
     <path d="M 89.6375 82.871875 
L 109.6375 82.871875 
L 129.6375 82.871875 
" style="fill: none; stroke: #ff0000; stroke-width: 2; stroke-linecap: square"/>
    </g>
    <g id="text_15">
     <!-- 本文模型 -->
     <g transform="translate(145.6375 89.871875) scale(0.2 -0.2)">
      <defs>
       <path id="SimSun-672c" d="M 3400 850 
Q 3400 -50 3425 -525 
L 3000 -675 
Q 3025 425 3025 850 
L 1975 850 
L 1750 800 
L 1550 1000 
L 3025 1000 
L 3025 3200 
Q 2075 1250 300 325 
L 275 425 
Q 1925 1550 2800 3625 
L 1325 3625 
Q 1000 3625 725 3550 
L 500 3775 
L 3025 3775 
Q 3025 4450 3000 5250 
L 3650 4950 
L 3400 4750 
L 3400 3775 
L 5100 3775 
L 5450 4125 
L 5950 3625 
L 3650 3625 
Q 4475 1550 6100 1025 
L 6100 925 
Q 5625 900 5550 625 
Q 4200 1500 3525 3625 
L 3400 3625 
L 3400 1000 
L 4150 1000 
L 4450 1300 
L 4900 850 
L 3400 850 
z
" transform="scale(0.015625)"/>
       <path id="SimSun-6587" d="M 2825 5150 
Q 3175 4925 3337 4737 
Q 3500 4550 3500 4425 
Q 3500 4300 3400 4162 
Q 3300 4025 3225 4025 
Q 3150 4025 3100 4275 
Q 3025 4675 2750 5100 
L 2825 5150 
z
M 450 3875 
L 5100 3875 
L 5500 4275 
L 6050 3725 
L 4500 3725 
Q 4175 2100 3400 1025 
Q 4400 125 6025 0 
L 6025 -100 
Q 5550 -175 5475 -475 
Q 3950 -25 3175 825 
Q 2000 -250 325 -575 
L 300 -500 
Q 1925 -25 2975 1050 
Q 2250 2125 1950 3725 
L 1275 3725 
Q 950 3725 675 3650 
L 450 3875 
z
M 2100 3725 
Q 2450 2275 3175 1300 
Q 3825 2275 4100 3725 
L 2100 3725 
z
" transform="scale(0.015625)"/>
       <path id="SimSun-6a21" d="M 1275 -625 
Q 1300 225 1300 2575 
Q 950 1675 275 925 
L 225 975 
Q 1000 2200 1250 3625 
L 675 3625 
L 450 3575 
L 250 3775 
L 1300 3775 
Q 1300 4900 1275 5250 
L 1875 5000 
L 1625 4825 
L 1625 3775 
L 1900 3775 
L 2200 4075 
L 2650 3625 
L 1625 3625 
L 1625 3000 
Q 2200 2725 2337 2562 
Q 2475 2400 2475 2250 
Q 2475 2150 2412 2012 
Q 2350 1875 2300 1875 
Q 2225 1875 2125 2150 
Q 1950 2550 1625 2850 
Q 1625 250 1650 -475 
L 1275 -625 
z
M 4475 4400 
Q 4475 4825 4450 5275 
L 5025 5000 
L 4800 4825 
L 4800 4400 
L 5300 4400 
L 5600 4700 
L 6050 4250 
L 4800 4250 
Q 4800 3975 4825 3775 
L 4475 3650 
L 4475 4250 
L 3625 4250 
L 3625 3775 
L 3275 3600 
Q 3300 3900 3300 4250 
L 2675 4250 
L 2450 4200 
L 2250 4400 
L 3300 4400 
Q 3300 4750 3275 5250 
L 3825 5000 
L 3625 4850 
L 3625 4400 
L 4475 4400 
z
M 2825 1500 
Q 2850 2175 2850 2625 
Q 2850 3075 2825 3675 
L 3175 3475 
L 5000 3475 
L 5200 3700 
L 5550 3400 
L 5350 3250 
Q 5350 1975 5375 1700 
L 5025 1550 
L 5025 1850 
L 4150 1850 
Q 4125 1525 4075 1125 
L 5325 1125 
L 5650 1450 
L 6125 975 
L 4275 975 
Q 4550 550 4987 237 
Q 5425 -75 6100 -125 
L 6100 -225 
Q 5775 -275 5625 -550 
Q 4650 -175 4150 975 
L 4050 975 
Q 3650 -425 1875 -650 
L 1850 -575 
Q 2675 -375 3100 37 
Q 3525 450 3700 975 
L 2850 975 
Q 2525 975 2250 900 
L 2025 1125 
L 3725 1125 
Q 3775 1375 3800 1850 
L 3175 1850 
L 3175 1650 
L 2825 1500 
z
M 3175 3325 
L 3175 2750 
L 5025 2750 
L 5025 3325 
L 3175 3325 
z
M 3175 2600 
L 3175 2000 
L 5025 2000 
L 5025 2600 
L 3175 2600 
z
" transform="scale(0.015625)"/>
       <path id="SimSun-578b" d="M 2575 1675 
Q 2600 2250 2600 2600 
L 2600 3400 
L 1875 3400 
Q 1825 2075 500 1350 
L 450 1425 
Q 1475 2200 1550 3400 
L 1300 3400 
Q 975 3400 700 3325 
L 475 3550 
L 1550 3550 
L 1550 4600 
L 1225 4600 
L 925 4550 
L 725 4750 
L 3000 4750 
L 3300 5050 
L 3750 4600 
L 2925 4600 
L 2925 3550 
L 3200 3550 
L 3525 3875 
L 4000 3400 
L 2925 3400 
L 2925 2600 
Q 2925 2100 2950 1875 
L 2575 1675 
z
M 1875 4600 
L 1875 3550 
L 2600 3550 
L 2600 4600 
L 1875 4600 
z
M 4175 2525 
Q 4200 3100 4200 3650 
Q 4200 4200 4175 4600 
L 4700 4400 
L 4525 4225 
L 4525 2650 
L 4175 2525 
z
M 5200 5225 
L 5725 4975 
L 5550 4800 
L 5550 2225 
Q 5600 1750 5025 1525 
Q 5000 1825 4250 2000 
L 4250 2125 
Q 4900 2050 5062 2062 
Q 5225 2075 5225 2375 
L 5225 4450 
Q 5225 4775 5200 5225 
z
M 3025 1025 
Q 3025 1400 3000 1850 
L 3600 1600 
L 3375 1425 
L 3375 1025 
L 4550 1025 
L 4900 1375 
L 5400 875 
L 3375 875 
L 3375 -150 
L 5025 -150 
L 5425 250 
L 5975 -300 
L 1275 -300 
Q 950 -300 675 -375 
L 450 -150 
L 3025 -150 
L 3025 875 
L 2000 875 
Q 1675 875 1400 800 
L 1175 1025 
L 3025 1025 
z
" transform="scale(0.015625)"/>
      </defs>
      <use xlink:href="#SimSun-672c"/>
      <use xlink:href="#SimSun-6587" x="100"/>
      <use xlink:href="#SimSun-6a21" x="200"/>
      <use xlink:href="#SimSun-578b" x="300"/>
     </g>
    </g>
    <g id="line2d_18">
     <path d="M 89.6375 109.746875 
L 109.6375 109.746875 
L 129.6375 109.746875 
" style="fill: none; stroke-dasharray: 9.6,2.4,1.5,2.4; stroke-dashoffset: 0; stroke: #000000; stroke-opacity: 0.9; stroke-width: 1.5"/>
    </g>
    <g id="text_16">
     <!-- DLinear -->
     <g transform="translate(145.6375 116.746875) scale(0.2 -0.2)">
      <defs>
       <path id="SimSun-4c" d="M 1000 450 
Q 1000 350 1062 300 
Q 1125 250 1225 250 
L 1900 250 
Q 2250 250 2500 462 
Q 2750 675 2875 1125 
L 3000 1075 
L 2775 100 
L 200 100 
L 200 250 
L 375 250 
Q 500 250 550 300 
Q 600 350 600 450 
L 600 4025 
Q 600 4125 550 4175 
Q 500 4225 375 4225 
L 225 4225 
L 225 4375 
L 1400 4375 
L 1400 4225 
L 1225 4225 
Q 1125 4225 1062 4175 
Q 1000 4125 1000 4025 
L 1000 450 
z
" transform="scale(0.015625)"/>
       <path id="SimSun-69" d="M 1425 2525 
Q 1425 2625 1375 2687 
Q 1325 2750 1200 2750 
L 675 2750 
L 675 2900 
L 925 2900 
Q 1150 2900 1350 2937 
Q 1550 2975 1725 3075 
L 1775 3075 
L 1775 450 
Q 1775 350 1837 300 
Q 1900 250 2000 250 
L 2525 250 
L 2525 100 
L 675 100 
L 675 250 
L 1200 250 
Q 1325 250 1375 300 
Q 1425 350 1425 450 
L 1425 2525 
z
M 1725 3025 
L 1725 3025 
z
M 1625 4425 
Q 1750 4425 1850 4337 
Q 1950 4250 1950 4125 
Q 1950 4000 1850 3900 
Q 1750 3800 1625 3800 
Q 1500 3800 1400 3900 
Q 1300 4000 1300 4125 
Q 1300 4250 1400 4337 
Q 1500 4425 1625 4425 
z
" transform="scale(0.015625)"/>
       <path id="SimSun-6e" d="M 200 100 
L 200 250 
L 325 250 
Q 450 250 500 300 
Q 550 350 550 450 
L 550 2600 
Q 550 2675 525 2712 
Q 500 2750 425 2750 
L 225 2750 
L 225 2900 
L 400 2900 
Q 525 2900 637 2925 
Q 750 2950 850 3025 
L 900 3025 
L 900 2450 
Q 1125 2700 1350 2825 
Q 1575 2950 1825 2950 
Q 2250 2950 2450 2725 
Q 2650 2500 2650 2050 
L 2650 450 
Q 2650 350 2712 300 
Q 2775 250 2875 250 
L 3000 250 
L 3000 100 
L 1950 100 
L 1950 250 
L 2075 250 
Q 2200 250 2250 300 
Q 2300 350 2300 450 
L 2300 2125 
Q 2300 2425 2175 2587 
Q 2050 2750 1800 2750 
Q 1575 2750 1337 2600 
Q 1100 2450 900 2175 
L 900 450 
Q 900 350 962 300 
Q 1025 250 1125 250 
L 1250 250 
L 1250 100 
L 200 100 
z
" transform="scale(0.015625)"/>
       <path id="SimSun-65" d="M 2400 1650 
Q 2425 2200 2212 2487 
Q 2000 2775 1650 2775 
Q 1275 2775 1037 2475 
Q 800 2175 800 1650 
L 2400 1650 
z
M 800 1500 
Q 800 825 1062 537 
Q 1325 250 1750 250 
Q 2075 250 2300 437 
Q 2525 625 2625 900 
L 2750 850 
Q 2675 575 2412 312 
Q 2150 50 1700 50 
Q 1125 50 762 425 
Q 400 800 400 1500 
Q 400 2125 762 2537 
Q 1125 2950 1650 2950 
Q 2125 2950 2475 2625 
Q 2825 2300 2825 1500 
L 800 1500 
z
" transform="scale(0.015625)"/>
       <path id="SimSun-61" d="M 1225 75 
Q 775 75 525 287 
Q 275 500 275 775 
Q 275 1225 662 1512 
Q 1050 1800 2200 1925 
L 2200 2225 
Q 2200 2475 2087 2637 
Q 1975 2800 1575 2800 
Q 1150 2800 975 2662 
Q 800 2525 850 2375 
Q 875 2325 875 2275 
Q 875 2225 837 2150 
Q 800 2075 650 2075 
Q 550 2075 487 2137 
Q 425 2200 425 2325 
Q 425 2550 750 2750 
Q 1075 2950 1550 2950 
Q 2050 2950 2300 2762 
Q 2550 2575 2550 2225 
L 2550 575 
Q 2550 375 2587 337 
Q 2625 300 2725 300 
Q 2850 300 2900 412 
Q 2950 525 2950 725 
L 3075 725 
Q 3075 375 2950 237 
Q 2825 100 2625 100 
Q 2450 100 2350 175 
Q 2250 250 2200 425 
Q 1950 250 1737 162 
Q 1525 75 1225 75 
z
M 700 850 
Q 700 625 837 437 
Q 975 250 1275 250 
Q 1500 250 1725 337 
Q 1950 425 2200 600 
L 2200 1775 
Q 1350 1675 1025 1437 
Q 700 1200 700 850 
z
" transform="scale(0.015625)"/>
       <path id="SimSun-72" d="M 1275 2125 
Q 1525 2525 1812 2737 
Q 2100 2950 2400 2950 
Q 2650 2950 2787 2837 
Q 2925 2725 2925 2575 
Q 2925 2450 2862 2375 
Q 2800 2300 2675 2300 
Q 2550 2300 2487 2375 
Q 2425 2450 2450 2575 
Q 2450 2650 2425 2700 
Q 2400 2750 2275 2750 
Q 2075 2750 1787 2500 
Q 1500 2250 1275 1800 
L 1275 450 
Q 1275 350 1337 300 
Q 1400 250 1500 250 
L 2050 250 
L 2050 100 
L 200 100 
L 200 250 
L 700 250 
Q 825 250 875 300 
Q 925 350 925 450 
L 925 2525 
Q 925 2625 875 2687 
Q 825 2750 700 2750 
L 225 2750 
L 225 2900 
L 425 2900 
Q 600 2900 837 2937 
Q 1075 2975 1200 3025 
L 1275 3025 
L 1275 2125 
z
" transform="scale(0.015625)"/>
      </defs>
      <use xlink:href="#SimSun-44"/>
      <use xlink:href="#SimSun-4c" x="50"/>
      <use xlink:href="#SimSun-69" x="100"/>
      <use xlink:href="#SimSun-6e" x="150"/>
      <use xlink:href="#SimSun-65" x="200"/>
      <use xlink:href="#SimSun-61" x="250"/>
      <use xlink:href="#SimSun-72" x="300"/>
     </g>
    </g>
   </g>
  </g>
  <g id="axes_2">
   <g id="patch_8">
    <path d="M 71.6375 682.040625 
L 1032.564189 682.040625 
L 1032.564189 388.310625 
L 71.6375 388.310625 
z
" style="fill: #ffffff"/>
   </g>
   <g id="matplotlib.axis_3">
    <g id="xtick_8">
     <g id="line2d_19">
      <g>
       <use xlink:href="#m29f7181484" x="115.315986" y="682.040625" style="stroke: #000000; stroke-width: 0.8"/>
      </g>
     </g>
     <g id="text_17">
      <!-- 0 -->
      <g transform="translate(110.315986 702.928125) scale(0.2 -0.2)">
       <use xlink:href="#TimesNewRomanPSMT-30"/>
      </g>
     </g>
    </g>
    <g id="xtick_9">
     <g id="line2d_20">
      <g>
       <use xlink:href="#m29f7181484" x="267.505832" y="682.040625" style="stroke: #000000; stroke-width: 0.8"/>
      </g>
     </g>
     <g id="text_18">
      <!-- 50 -->
      <g transform="translate(257.505832 702.928125) scale(0.2 -0.2)">
       <use xlink:href="#TimesNewRomanPSMT-35"/>
       <use xlink:href="#TimesNewRomanPSMT-30" x="50"/>
      </g>
     </g>
    </g>
    <g id="xtick_10">
     <g id="line2d_21">
      <g>
       <use xlink:href="#m29f7181484" x="419.695678" y="682.040625" style="stroke: #000000; stroke-width: 0.8"/>
      </g>
     </g>
     <g id="text_19">
      <!-- 100 -->
      <g transform="translate(404.695678 702.928125) scale(0.2 -0.2)">
       <use xlink:href="#TimesNewRomanPSMT-31"/>
       <use xlink:href="#TimesNewRomanPSMT-30" x="50"/>
       <use xlink:href="#TimesNewRomanPSMT-30" x="100"/>
      </g>
     </g>
    </g>
    <g id="xtick_11">
     <g id="line2d_22">
      <g>
       <use xlink:href="#m29f7181484" x="571.885525" y="682.040625" style="stroke: #000000; stroke-width: 0.8"/>
      </g>
     </g>
     <g id="text_20">
      <!-- 150 -->
      <g transform="translate(556.885525 702.928125) scale(0.2 -0.2)">
       <use xlink:href="#TimesNewRomanPSMT-31"/>
       <use xlink:href="#TimesNewRomanPSMT-35" x="50"/>
       <use xlink:href="#TimesNewRomanPSMT-30" x="100"/>
      </g>
     </g>
    </g>
    <g id="xtick_12">
     <g id="line2d_23">
      <g>
       <use xlink:href="#m29f7181484" x="724.075371" y="682.040625" style="stroke: #000000; stroke-width: 0.8"/>
      </g>
     </g>
     <g id="text_21">
      <!-- 200 -->
      <g transform="translate(709.075371 702.928125) scale(0.2 -0.2)">
       <use xlink:href="#TimesNewRomanPSMT-32"/>
       <use xlink:href="#TimesNewRomanPSMT-30" x="50"/>
       <use xlink:href="#TimesNewRomanPSMT-30" x="100"/>
      </g>
     </g>
    </g>
    <g id="xtick_13">
     <g id="line2d_24">
      <g>
       <use xlink:href="#m29f7181484" x="876.265217" y="682.040625" style="stroke: #000000; stroke-width: 0.8"/>
      </g>
     </g>
     <g id="text_22">
      <!-- 250 -->
      <g transform="translate(861.265217 702.928125) scale(0.2 -0.2)">
       <use xlink:href="#TimesNewRomanPSMT-32"/>
       <use xlink:href="#TimesNewRomanPSMT-35" x="50"/>
       <use xlink:href="#TimesNewRomanPSMT-30" x="100"/>
      </g>
     </g>
    </g>
    <g id="xtick_14">
     <g id="line2d_25">
      <g>
       <use xlink:href="#m29f7181484" x="1028.455063" y="682.040625" style="stroke: #000000; stroke-width: 0.8"/>
      </g>
     </g>
     <g id="text_23">
      <!-- 300 -->
      <g transform="translate(1013.455063 702.928125) scale(0.2 -0.2)">
       <use xlink:href="#TimesNewRomanPSMT-33"/>
       <use xlink:href="#TimesNewRomanPSMT-30" x="50"/>
       <use xlink:href="#TimesNewRomanPSMT-30" x="100"/>
      </g>
     </g>
    </g>
   </g>
   <g id="matplotlib.axis_4">
    <g id="ytick_5">
     <g id="line2d_26">
      <g>
       <use xlink:href="#m808372c984" x="71.6375" y="673.727513" style="stroke: #000000; stroke-width: 0.8"/>
      </g>
     </g>
     <g id="text_24">
      <!-- 0.0 -->
      <g transform="translate(39.6375 680.671263) scale(0.2 -0.2)">
       <use xlink:href="#TimesNewRomanPSMT-30"/>
       <use xlink:href="#TimesNewRomanPSMT-2e" x="50"/>
       <use xlink:href="#TimesNewRomanPSMT-30" x="75"/>
      </g>
     </g>
    </g>
    <g id="ytick_6">
     <g id="line2d_27">
      <g>
       <use xlink:href="#m808372c984" x="71.6375" y="623.345009" style="stroke: #000000; stroke-width: 0.8"/>
      </g>
     </g>
     <g id="text_25">
      <!-- 10.0 -->
      <g transform="translate(29.6375 630.288759) scale(0.2 -0.2)">
       <use xlink:href="#TimesNewRomanPSMT-31"/>
       <use xlink:href="#TimesNewRomanPSMT-30" x="50"/>
       <use xlink:href="#TimesNewRomanPSMT-2e" x="100"/>
       <use xlink:href="#TimesNewRomanPSMT-30" x="125"/>
      </g>
     </g>
    </g>
    <g id="ytick_7">
     <g id="line2d_28">
      <g>
       <use xlink:href="#m808372c984" x="71.6375" y="572.962504" style="stroke: #000000; stroke-width: 0.8"/>
      </g>
     </g>
     <g id="text_26">
      <!-- 20.0 -->
      <g transform="translate(29.6375 579.906254) scale(0.2 -0.2)">
       <use xlink:href="#TimesNewRomanPSMT-32"/>
       <use xlink:href="#TimesNewRomanPSMT-30" x="50"/>
       <use xlink:href="#TimesNewRomanPSMT-2e" x="100"/>
       <use xlink:href="#TimesNewRomanPSMT-30" x="125"/>
      </g>
     </g>
    </g>
    <g id="ytick_8">
     <g id="line2d_29">
      <g>
       <use xlink:href="#m808372c984" x="71.6375" y="522.579999" style="stroke: #000000; stroke-width: 0.8"/>
      </g>
     </g>
     <g id="text_27">
      <!-- 30.0 -->
      <g transform="translate(29.6375 529.523749) scale(0.2 -0.2)">
       <use xlink:href="#TimesNewRomanPSMT-33"/>
       <use xlink:href="#TimesNewRomanPSMT-30" x="50"/>
       <use xlink:href="#TimesNewRomanPSMT-2e" x="100"/>
       <use xlink:href="#TimesNewRomanPSMT-30" x="125"/>
      </g>
     </g>
    </g>
    <g id="ytick_9">
     <g id="line2d_30">
      <g>
       <use xlink:href="#m808372c984" x="71.6375" y="472.197495" style="stroke: #000000; stroke-width: 0.8"/>
      </g>
     </g>
     <g id="text_28">
      <!-- 40.0 -->
      <g transform="translate(29.6375 479.141245) scale(0.2 -0.2)">
       <use xlink:href="#TimesNewRomanPSMT-34"/>
       <use xlink:href="#TimesNewRomanPSMT-30" x="50"/>
       <use xlink:href="#TimesNewRomanPSMT-2e" x="100"/>
       <use xlink:href="#TimesNewRomanPSMT-30" x="125"/>
      </g>
     </g>
    </g>
    <g id="ytick_10">
     <g id="line2d_31">
      <g>
       <use xlink:href="#m808372c984" x="71.6375" y="421.81499" style="stroke: #000000; stroke-width: 0.8"/>
      </g>
     </g>
     <g id="text_29">
      <!-- 50.0 -->
      <g transform="translate(29.6375 428.75874) scale(0.2 -0.2)">
       <use xlink:href="#TimesNewRomanPSMT-35"/>
       <use xlink:href="#TimesNewRomanPSMT-30" x="50"/>
       <use xlink:href="#TimesNewRomanPSMT-2e" x="100"/>
       <use xlink:href="#TimesNewRomanPSMT-30" x="125"/>
      </g>
     </g>
    </g>
    <g id="text_30">
     <!-- CPU使用率 -->
     <g transform="translate(23.059375 580.175625) rotate(-90) scale(0.2 -0.2)">
      <use xlink:href="#SimSun-43"/>
      <use xlink:href="#SimSun-50" x="50"/>
      <use xlink:href="#SimSun-55" x="100"/>
      <use xlink:href="#SimSun-4f7f" x="150"/>
      <use xlink:href="#SimSun-7528" x="250"/>
      <use xlink:href="#SimSun-7387" x="350"/>
     </g>
    </g>
   </g>
   <g id="line2d_32">
    <path d="M 115.315986 588.077255 
L 118.359783 547.771242 
L 121.40358 542.733001 
L 124.447377 547.771242 
L 127.491174 567.924254 
L 130.53497 502.426998 
L 133.578767 542.733001 
L 136.622564 623.345009 
L 139.666361 608.230257 
L 148.797752 608.230257 
L 151.841549 588.077255 
L 154.885346 623.345009 
L 157.929143 572.962504 
L 160.97294 613.268508 
L 164.016737 572.962504 
L 167.060534 628.383259 
L 170.104331 628.383259 
L 173.148127 648.536261 
L 176.191924 643.49801 
L 179.235721 648.536261 
L 182.279518 648.536261 
L 185.323315 663.651011 
L 188.367112 658.612762 
L 191.410909 638.45976 
L 194.454706 613.268508 
L 197.498503 537.694741 
L 200.5423 562.886003 
L 203.586097 462.120994 
L 206.629894 467.159264 
L 209.673691 401.661989 
L 212.717487 477.235745 
L 215.761284 497.388747 
L 218.805081 421.81499 
L 221.848878 522.579999 
L 224.892675 482.274015 
L 227.936472 467.159264 
L 230.980269 537.694741 
L 234.024066 502.426998 
L 237.067863 603.192007 
L 240.11166 532.6565 
L 243.155457 507.465248 
L 246.199254 507.465248 
L 249.243051 487.312246 
L 252.286847 552.809502 
L 255.330644 502.426998 
L 258.374441 522.579999 
L 261.418238 447.006262 
L 264.462035 648.536261 
L 267.505832 578.000754 
L 270.549629 663.651011 
L 273.593426 648.536261 
L 276.637223 668.689261 
L 279.68102 658.612762 
L 282.724817 628.383259 
L 285.768614 633.421509 
L 288.812411 648.536261 
L 291.856207 618.306758 
L 294.900004 643.49801 
L 297.943801 562.886003 
L 300.987598 598.153761 
L 304.031395 608.230257 
L 307.075192 598.153761 
L 310.118989 567.924254 
L 313.162786 583.039005 
L 316.206583 547.771242 
L 319.25038 552.809502 
L 322.294177 562.886003 
L 325.337974 517.541749 
L 328.381771 572.962504 
L 331.425568 557.847743 
L 334.469364 583.039005 
L 337.513161 583.039005 
L 340.556958 648.536261 
L 343.600755 578.000754 
L 346.644552 578.000754 
L 349.688349 583.039005 
L 352.732146 608.230257 
L 355.775943 552.809502 
L 358.81974 588.077255 
L 361.863537 552.809502 
L 364.907334 603.192007 
L 367.951131 663.651011 
L 370.994928 623.345009 
L 374.038724 648.536261 
L 377.082521 658.612762 
L 380.126318 648.536261 
L 383.170115 663.651011 
L 386.213912 628.383259 
L 389.257709 643.49801 
L 392.301506 613.268508 
L 395.345303 668.689261 
L 398.3891 633.421509 
L 401.432897 512.503499 
L 404.476694 497.388747 
L 407.520491 557.847743 
L 410.564288 527.61824 
L 413.608084 436.929742 
L 416.651881 477.235745 
L 419.695678 431.891511 
L 422.739475 436.929742 
L 425.783272 436.929742 
L 428.827069 472.197495 
L 431.870866 482.274015 
L 434.914663 457.082744 
L 437.95846 436.929742 
L 441.002257 542.733001 
L 444.046054 542.733001 
L 447.089851 562.886003 
L 450.133648 547.771242 
L 453.177445 502.426998 
L 456.221241 502.426998 
L 459.265038 537.694741 
L 462.308835 552.809502 
L 465.352632 537.694741 
L 468.396429 603.192007 
L 471.440226 572.962504 
L 474.484023 623.345009 
L 477.52782 658.612762 
L 480.571617 618.306758 
L 483.615414 618.306758 
L 486.659211 633.421509 
L 489.703008 583.039005 
L 492.746805 613.268508 
L 495.790601 583.039005 
L 498.834398 633.421509 
L 501.878195 542.733001 
L 504.921992 552.809502 
L 507.965789 527.61824 
L 511.009586 537.694741 
L 514.053383 512.503499 
L 517.09718 542.733001 
L 520.140977 542.733001 
L 523.184774 547.771242 
L 526.228571 643.49801 
L 529.272368 628.383259 
L 532.316165 603.192007 
L 535.359961 603.192007 
L 538.403758 583.039005 
L 541.447555 628.383259 
L 544.491352 537.694741 
L 547.535149 593.115511 
L 550.578946 613.268508 
L 553.622743 598.153761 
L 556.66654 638.45976 
L 559.710337 613.268508 
L 562.754134 623.345009 
L 565.797931 648.536261 
L 568.841728 633.421509 
L 571.885525 633.421509 
L 574.929321 658.612762 
L 577.973118 613.268508 
L 581.016915 658.612762 
L 584.060712 603.192007 
L 587.104509 613.268508 
L 590.148306 618.306758 
L 593.192103 547.771242 
L 596.2359 557.847743 
L 599.279697 502.426998 
L 602.323494 457.082744 
L 605.367291 507.465248 
L 608.411088 517.541749 
L 611.454885 507.465248 
L 614.498682 502.426998 
L 617.542478 406.700239 
L 620.586275 467.159264 
L 623.630072 467.159264 
L 626.673869 482.274015 
L 629.717666 557.847743 
L 632.761463 593.115511 
L 635.80526 583.039005 
L 638.849057 633.421509 
L 641.892854 618.306758 
L 644.936651 588.077255 
L 647.980448 628.383259 
L 651.024245 653.574511 
L 654.068042 603.192007 
L 657.111838 648.536261 
L 660.155635 648.536261 
L 663.199432 628.383259 
L 666.243229 663.651011 
L 672.330823 663.651011 
L 675.37462 623.345009 
L 678.418417 623.345009 
L 681.462214 593.115511 
L 684.506011 623.345009 
L 687.549808 628.383259 
L 690.593605 583.039005 
L 693.637402 578.000754 
L 696.681198 562.886003 
L 699.724995 562.886003 
L 702.768792 578.000754 
L 705.812589 547.771242 
L 708.856386 583.039005 
L 711.900183 537.694741 
L 714.94398 557.847743 
L 717.987777 588.077255 
L 721.031574 623.345009 
L 724.075371 603.192007 
L 727.119168 608.230257 
L 730.162965 547.771242 
L 733.206762 623.345009 
L 736.250558 557.847743 
L 739.294355 593.115511 
L 742.338152 537.694741 
L 745.381949 608.230257 
L 748.425746 623.345009 
L 751.469543 603.192007 
L 754.51334 557.847743 
L 757.557137 583.039005 
L 760.600934 588.077255 
L 763.644731 613.268508 
L 766.688528 583.039005 
L 769.732325 542.733001 
L 772.776122 552.809502 
L 775.819919 557.847743 
L 778.863715 567.924254 
L 781.907512 598.153761 
L 784.951309 502.426998 
L 787.995106 527.61824 
L 791.038903 472.197495 
L 794.0827 517.541749 
L 797.126497 477.235745 
L 800.170294 512.503499 
L 803.214091 507.465248 
L 806.257888 557.847743 
L 809.301685 436.929742 
L 812.345482 507.465248 
L 815.389279 487.312246 
L 818.433075 487.312246 
L 821.476872 482.274015 
L 824.520669 567.924254 
L 827.564466 578.000754 
L 830.608263 598.153761 
L 833.65206 648.536261 
L 836.695857 608.230257 
L 842.783451 598.153761 
L 845.827248 517.541749 
L 848.871045 537.694741 
L 851.914842 562.886003 
L 854.958639 598.153761 
L 858.002435 567.924254 
L 861.046232 557.847743 
L 864.090029 603.192007 
L 867.133826 583.039005 
L 870.177623 593.115511 
L 873.22142 507.465248 
L 876.265217 567.924254 
L 879.309014 517.541749 
L 882.352811 593.115511 
L 885.396608 532.6565 
L 888.440405 552.809502 
L 891.484202 583.039005 
L 894.527999 598.153761 
L 897.571795 608.230257 
L 900.615592 623.345009 
L 906.703186 593.115511 
L 909.746983 572.962504 
L 912.79078 542.733001 
L 915.834577 562.886003 
L 918.878374 567.924254 
L 921.922171 623.345009 
L 924.965968 648.536261 
L 931.053562 628.383259 
L 934.097359 648.536261 
L 937.141156 663.651011 
L 940.184952 623.345009 
L 943.228749 658.612762 
L 946.272546 633.421509 
L 952.36014 603.192007 
L 955.403937 613.268508 
L 958.447734 603.192007 
L 961.491531 598.153761 
L 964.535328 578.000754 
L 967.579125 598.153761 
L 970.622922 547.771242 
L 973.666719 583.039005 
L 976.710516 527.61824 
L 979.754312 502.426998 
L 982.798109 537.694741 
L 985.841906 537.694741 
L 988.885703 603.192007 
L 988.885703 603.192007 
" clip-path="url(#p3c6fb18b00)" style="fill: none; stroke: #1f77b4; stroke-width: 1.5; stroke-linecap: square"/>
   </g>
   <g id="line2d_33">
    <path d="M 553.622743 606.471379 
L 556.66654 615.361486 
L 559.710337 618.197991 
L 562.754134 606.416527 
L 565.797931 609.609682 
L 568.841728 601.056602 
L 571.885525 594.005398 
L 574.929321 586.667676 
L 577.973118 579.753343 
L 581.016915 568.571717 
L 584.060712 549.038252 
L 587.104509 538.941667 
L 590.148306 530.994878 
L 593.192103 517.41122 
L 596.2359 506.310893 
L 599.279697 503.408379 
L 602.323494 494.26275 
L 605.367291 494.223293 
L 608.411088 495.804569 
L 611.454885 486.842313 
L 614.498682 495.879428 
L 617.542478 498.103228 
L 620.586275 508.524429 
L 623.630072 506.019699 
L 626.673869 518.250484 
L 629.717666 526.284068 
L 632.761463 537.566586 
L 635.80526 542.10175 
L 638.849057 557.117262 
L 641.892854 565.230155 
L 644.936651 568.274191 
L 647.980448 586.805536 
L 651.024245 606.872392 
L 654.068042 603.203298 
L 657.111838 609.99233 
L 660.155635 613.7951 
L 663.199432 614.517596 
L 666.243229 615.953986 
L 669.287026 618.011317 
L 672.330823 605.091037 
L 675.37462 599.746929 
L 678.418417 595.833278 
L 681.462214 593.382622 
L 684.506011 587.735928 
L 687.549808 576.021099 
L 690.593605 565.723075 
L 693.637402 570.198178 
L 696.681198 571.49221 
L 699.724995 565.773862 
L 702.768792 566.632777 
L 705.812589 567.70743 
L 708.856386 572.371037 
L 711.900183 568.139789 
L 714.94398 568.899628 
L 717.987777 575.393806 
L 721.031574 579.309173 
L 724.075371 590.542874 
L 727.119168 593.637284 
L 730.162965 596.145569 
L 733.206762 588.951113 
L 736.250558 600.556388 
L 739.294355 600.209367 
L 742.338152 603.811386 
L 745.381949 599.212294 
L 748.425746 591.256509 
L 751.469543 594.197976 
L 754.51334 591.025694 
L 757.557137 591.042626 
L 760.600934 579.828423 
L 763.644731 574.045085 
L 766.688528 564.197304 
L 769.732325 557.000177 
L 772.776122 550.942482 
L 775.819919 540.351247 
L 778.863715 528.609241 
L 781.907512 519.436715 
L 784.951309 518.786244 
L 787.995106 503.884097 
L 791.038903 501.456418 
L 794.0827 505.415922 
L 797.126497 507.548449 
L 800.170294 513.542547 
L 803.214091 509.805172 
L 806.257888 517.44692 
L 809.301685 519.054739 
L 812.345482 522.657857 
L 815.389279 525.121544 
L 818.433075 538.493778 
L 821.476872 548.002596 
L 824.520669 558.668527 
L 827.564466 565.464853 
L 830.608263 571.515466 
L 833.65206 579.191838 
L 836.695857 587.272722 
L 839.739654 587.994352 
L 842.783451 586.823737 
L 845.827248 594.226291 
L 848.871045 599.06206 
L 851.914842 596.551915 
L 854.958639 599.505437 
L 858.002435 591.265908 
L 861.046232 603.171942 
L 864.090029 594.262986 
L 867.133826 593.637505 
L 873.22142 584.018522 
L 876.265217 584.041998 
L 879.309014 580.341975 
L 882.352811 575.157888 
L 885.396608 573.257387 
L 888.440405 581.013972 
L 891.484202 577.072986 
L 894.527999 588.090267 
L 897.571795 583.152207 
L 900.615592 589.861258 
L 903.659389 581.355453 
L 906.703186 590.038278 
L 909.746983 592.780098 
L 912.79078 587.293306 
L 915.834577 594.550479 
L 918.878374 590.512507 
L 921.922171 602.878336 
L 924.965968 592.261953 
L 928.009765 595.849312 
L 931.053562 593.305009 
L 934.097359 582.22908 
L 937.141156 566.576426 
L 940.184952 572.875671 
L 943.228749 558.473873 
L 946.272546 567.265393 
L 949.316343 559.600014 
L 952.36014 555.056567 
L 955.403937 546.96495 
L 958.447734 532.747149 
L 961.491531 528.485766 
L 964.535328 523.374895 
L 967.579125 520.654917 
L 970.622922 516.922144 
L 973.666719 522.918568 
L 976.710516 512.244421 
L 979.754312 510.863046 
L 982.798109 513.301277 
L 985.841906 513.155661 
L 988.885703 522.673531 
L 988.885703 522.673531 
" clip-path="url(#p3c6fb18b00)" style="fill: none; stroke: #ff0000; stroke-width: 2; stroke-linecap: square"/>
   </g>
   <g id="line2d_34">
    <path d="M 553.622743 607.28203 
L 556.66654 618.260502 
L 559.710337 614.714979 
L 562.754134 623.384985 
L 565.797931 617.475139 
L 568.841728 607.699585 
L 571.885525 595.87606 
L 574.929321 595.408803 
L 577.973118 576.260063 
L 581.016915 560.617979 
L 584.060712 543.681882 
L 587.104509 524.587197 
L 590.148306 507.104558 
L 593.192103 497.682189 
L 596.2359 493.238433 
L 599.279697 481.54191 
L 602.323494 473.92824 
L 605.367291 483.426929 
L 608.411088 480.258477 
L 611.454885 497.454535 
L 614.498682 503.926207 
L 617.542478 516.479214 
L 620.586275 525.317092 
L 623.630072 537.672341 
L 626.673869 530.704722 
L 632.761463 545.346215 
L 635.80526 545.009799 
L 638.849057 548.602462 
L 641.892854 560.242653 
L 644.936651 563.113964 
L 647.980448 583.598722 
L 651.024245 600.43717 
L 654.068042 600.516061 
L 657.111838 600.355723 
L 660.155635 605.700792 
L 663.199432 617.426682 
L 666.243229 622.46685 
L 669.287026 615.588707 
L 672.330823 598.618352 
L 675.37462 601.411334 
L 678.418417 582.029919 
L 681.462214 572.725087 
L 684.506011 576.663459 
L 687.549808 570.491937 
L 690.593605 563.352304 
L 693.637402 565.92657 
L 696.681198 560.297726 
L 699.724995 564.88064 
L 702.768792 579.620383 
L 705.812589 564.989451 
L 708.856386 568.824327 
L 711.900183 577.447063 
L 714.94398 578.494482 
L 717.987777 578.252125 
L 721.031574 575.433706 
L 724.075371 577.798384 
L 727.119168 579.867227 
L 730.162965 574.872403 
L 733.206762 573.235237 
L 736.250558 580.702925 
L 739.294355 586.111216 
L 742.338152 584.161543 
L 745.381949 586.654261 
L 748.425746 595.708371 
L 751.469543 588.378039 
L 754.51334 587.12823 
L 757.557137 586.687789 
L 760.600934 580.065706 
L 763.644731 577.100739 
L 766.688528 580.495509 
L 769.732325 574.876631 
L 772.776122 563.880645 
L 775.819919 558.863421 
L 778.863715 544.275473 
L 781.907512 533.264862 
L 784.951309 517.589375 
L 787.995106 521.151095 
L 791.038903 513.047235 
L 794.0827 515.410087 
L 797.126497 512.313842 
L 800.170294 520.252338 
L 803.214091 521.117403 
L 806.257888 526.440572 
L 809.301685 522.626866 
L 812.345482 543.575599 
L 815.389279 537.855733 
L 818.433075 549.437747 
L 821.476872 542.504425 
L 824.520669 557.767848 
L 827.564466 561.67519 
L 830.608263 571.061186 
L 833.65206 571.004153 
L 839.739654 588.998931 
L 842.783451 595.328466 
L 845.827248 600.832085 
L 848.871045 593.133303 
L 851.914842 604.576005 
L 854.958639 602.181864 
L 858.002435 601.19439 
L 861.046232 605.535909 
L 867.133826 597.48667 
L 870.177623 598.205644 
L 873.22142 586.027449 
L 876.265217 581.519471 
L 879.309014 580.037876 
L 882.352811 577.447543 
L 885.396608 581.799373 
L 888.440405 571.258944 
L 891.484202 578.599544 
L 894.527999 572.720224 
L 897.571795 579.761175 
L 900.615592 573.875656 
L 903.659389 571.659131 
L 906.703186 572.325141 
L 909.746983 574.953567 
L 912.79078 574.536765 
L 915.834577 577.828318 
L 918.878374 576.017514 
L 921.922171 569.068202 
L 924.965968 571.825744 
L 928.009765 563.073969 
L 931.053562 565.299633 
L 934.097359 557.357716 
L 937.141156 566.608522 
L 940.184952 560.165708 
L 943.228749 554.719488 
L 946.272546 551.160987 
L 949.316343 541.836435 
L 952.36014 546.043533 
L 955.403937 537.724839 
L 958.447734 534.157833 
L 961.491531 535.036304 
L 964.535328 538.25935 
L 967.579125 531.132229 
L 970.622922 533.066844 
L 973.666719 535.178191 
L 976.710516 534.683782 
L 979.754312 524.47287 
L 982.798109 530.005396 
L 985.841906 539.716987 
L 988.885703 542.046782 
L 988.885703 542.046782 
" clip-path="url(#p3c6fb18b00)" style="fill: none; stroke-dasharray: 9.6,2.4,1.5,2.4; stroke-dashoffset: 0; stroke: #000000; stroke-opacity: 0.9; stroke-width: 1.5"/>
   </g>
   <g id="line2d_35">
    <path d="M 553.622743 682.040625 
L 553.622743 388.310625 
" clip-path="url(#p3c6fb18b00)" style="fill: none; stroke-dasharray: 7.4,3.2; stroke-dashoffset: 0; stroke: #0000ff; stroke-width: 2"/>
   </g>
   <g id="patch_9">
    <path d="M 71.6375 682.040625 
L 71.6375 388.310625 
" style="fill: none; stroke: #000000; stroke-width: 0.8; stroke-linejoin: miter; stroke-linecap: square"/>
   </g>
   <g id="patch_10">
    <path d="M 1032.564189 682.040625 
L 1032.564189 388.310625 
" style="fill: none; stroke: #000000; stroke-width: 0.8; stroke-linejoin: miter; stroke-linecap: square"/>
   </g>
   <g id="patch_11">
    <path d="M 71.6375 682.040625 
L 1032.564189 682.040625 
" style="fill: none; stroke: #000000; stroke-width: 0.8; stroke-linejoin: miter; stroke-linecap: square"/>
   </g>
   <g id="patch_12">
    <path d="M 71.6375 388.310625 
L 1032.564189 388.310625 
" style="fill: none; stroke: #000000; stroke-width: 0.8; stroke-linejoin: miter; stroke-linecap: square"/>
   </g>
   <g id="text_31">
    <!-- API_ID: 36 -->
    <g transform="translate(502.100845 382.310625) scale(0.2 -0.2)">
     <defs>
      <path id="SimSun-33" d="M 2800 1250 
Q 2800 775 2450 412 
Q 2100 50 1475 50 
Q 1025 50 700 300 
Q 375 550 375 875 
Q 375 1025 475 1137 
Q 575 1250 675 1250 
Q 825 1250 887 1137 
Q 950 1025 950 950 
Q 950 825 900 750 
Q 850 650 850 575 
Q 850 425 1037 325 
Q 1225 225 1450 225 
Q 1900 225 2125 487 
Q 2350 750 2350 1300 
Q 2350 1750 2112 2025 
Q 1875 2300 1225 2300 
L 1225 2475 
Q 1725 2475 1962 2712 
Q 2200 2950 2200 3375 
Q 2200 3725 2012 3987 
Q 1825 4250 1425 4250 
Q 1250 4250 1050 4162 
Q 850 4075 850 3875 
Q 850 3675 900 3625 
Q 950 3575 950 3500 
Q 950 3375 900 3300 
Q 850 3225 725 3225 
Q 625 3225 537 3300 
Q 450 3375 450 3575 
Q 450 3950 775 4187 
Q 1100 4425 1525 4425 
Q 2025 4425 2325 4112 
Q 2625 3800 2625 3450 
Q 2625 3075 2437 2812 
Q 2250 2550 1850 2425 
Q 2400 2225 2600 1900 
Q 2800 1575 2800 1250 
z
" transform="scale(0.015625)"/>
      <path id="SimSun-36" d="M 775 1800 
Q 775 1050 1037 637 
Q 1300 225 1675 225 
Q 2050 225 2250 500 
Q 2450 775 2450 1525 
Q 2450 2025 2237 2300 
Q 2025 2575 1725 2575 
Q 1450 2575 1212 2412 
Q 975 2250 775 1800 
z
M 1750 2825 
Q 2350 2825 2612 2425 
Q 2875 2025 2875 1525 
Q 2875 775 2512 412 
Q 2150 50 1675 50 
Q 1000 50 650 562 
Q 300 1075 300 2050 
Q 300 3200 725 3812 
Q 1150 4425 1875 4425 
Q 2225 4425 2437 4225 
Q 2650 4025 2650 3875 
Q 2650 3725 2587 3650 
Q 2525 3575 2375 3575 
Q 2250 3575 2187 3637 
Q 2125 3700 2125 3825 
Q 2125 3875 2150 3925 
Q 2150 3975 2150 4025 
Q 2150 4125 2075 4187 
Q 2000 4250 1800 4250 
Q 1375 4250 1075 3862 
Q 775 3475 775 2175 
Q 925 2500 1187 2662 
Q 1450 2825 1750 2825 
z
" transform="scale(0.015625)"/>
     </defs>
     <use xlink:href="#SimSun-41"/>
     <use xlink:href="#SimSun-50" x="50"/>
     <use xlink:href="#SimSun-49" x="100"/>
     <use xlink:href="#SimSun-5f" x="150"/>
     <use xlink:href="#SimSun-49" x="200"/>
     <use xlink:href="#SimSun-44" x="250"/>
     <use xlink:href="#SimSun-3a" x="300"/>
     <use xlink:href="#SimSun-20" x="350"/>
     <use xlink:href="#SimSun-33" x="400"/>
     <use xlink:href="#SimSun-36" x="450"/>
    </g>
   </g>
  </g>
 </g>
 <defs>
  <clipPath id="pc8823715a4">
   <rect x="71.6375" y="27.340625" width="960.926689" height="293.73"/>
  </clipPath>
  <clipPath id="p3c6fb18b00">
   <rect x="71.6375" y="388.310625" width="960.926689" height="293.73"/>
  </clipPath>
 </defs>
</svg>
