<?xml version="1.0" encoding="utf-8" standalone="no"?>
<!DOCTYPE svg PUBLIC "-//W3C//DTD SVG 1.1//EN"
  "http://www.w3.org/Graphics/SVG/1.1/DTD/svg11.dtd">
<svg xmlns:xlink="http://www.w3.org/1999/xlink" width="691.2pt" height="330.750625pt" viewBox="0 0 691.2 330.750625" xmlns="http://www.w3.org/2000/svg" version="1.1">
 <metadata>
  <rdf:RDF xmlns:dc="http://purl.org/dc/elements/1.1/" xmlns:cc="http://creativecommons.org/ns#" xmlns:rdf="http://www.w3.org/1999/02/22-rdf-syntax-ns#">
   <cc:Work>
    <dc:type rdf:resource="http://purl.org/dc/dcmitype/StillImage"/>
    <dc:date>2024-02-21T16:16:09.434530</dc:date>
    <dc:format>image/svg+xml</dc:format>
    <dc:creator>
     <cc:Agent>
      <dc:title>Matplotlib v3.7.1, https://matplotlib.org/</dc:title>
     </cc:Agent>
    </dc:creator>
   </cc:Work>
  </rdf:RDF>
 </metadata>
 <defs>
  <style type="text/css">*{stroke-linejoin: round; stroke-linecap: butt}</style>
 </defs>
 <g id="figure_1">
  <g id="patch_1">
   <path d="M 0 330.750625 
L 691.2 330.750625 
L 691.2 0 
L 0 0 
z
" style="fill: #ffffff"/>
  </g>
  <g id="axes_1">
   <g id="patch_2">
    <path d="M 59.2 298.385 
L 684 298.385 
L 684 29.865 
L 59.2 29.865 
z
" style="fill: #ffffff"/>
   </g>
   <g id="matplotlib.axis_1">
    <g id="xtick_1">
     <g id="line2d_1">
      <defs>
       <path id="m0097efdce3" d="M 0 0 
L 0 3.5 
" style="stroke: #000000; stroke-width: 0.8"/>
      </defs>
      <g>
       <use xlink:href="#m0097efdce3" x="87.6" y="298.385" style="stroke: #000000; stroke-width: 0.8"/>
      </g>
     </g>
     <g id="text_1">
      <!-- 0 -->
      <g transform="translate(82.6 319.2725) scale(0.2 -0.2)">
       <defs>
        <path id="TimesNewRomanPSMT-30" d="M 231 2094 
Q 231 2819 450 3342 
Q 669 3866 1031 4122 
Q 1313 4325 1613 4325 
Q 2100 4325 2488 3828 
Q 2972 3213 2972 2159 
Q 2972 1422 2759 906 
Q 2547 391 2217 158 
Q 1888 -75 1581 -75 
Q 975 -75 572 641 
Q 231 1244 231 2094 
z
M 844 2016 
Q 844 1141 1059 588 
Q 1238 122 1591 122 
Q 1759 122 1940 273 
Q 2122 425 2216 781 
Q 2359 1319 2359 2297 
Q 2359 3022 2209 3506 
Q 2097 3866 1919 4016 
Q 1791 4119 1609 4119 
Q 1397 4119 1231 3928 
Q 1006 3669 925 3112 
Q 844 2556 844 2016 
z
" transform="scale(0.015625)"/>
       </defs>
       <use xlink:href="#TimesNewRomanPSMT-30"/>
      </g>
     </g>
    </g>
    <g id="xtick_2">
     <g id="line2d_2">
      <g>
       <use xlink:href="#m0097efdce3" x="196.830769" y="298.385" style="stroke: #000000; stroke-width: 0.8"/>
      </g>
     </g>
     <g id="text_2">
      <!-- 5 -->
      <g transform="translate(191.830769 319.2725) scale(0.2 -0.2)">
       <defs>
        <path id="TimesNewRomanPSMT-35" d="M 2778 4238 
L 2534 3706 
L 1259 3706 
L 981 3138 
Q 1809 3016 2294 2522 
Q 2709 2097 2709 1522 
Q 2709 1188 2573 903 
Q 2438 619 2231 419 
Q 2025 219 1772 97 
Q 1413 -75 1034 -75 
Q 653 -75 479 54 
Q 306 184 306 341 
Q 306 428 378 495 
Q 450 563 559 563 
Q 641 563 702 538 
Q 763 513 909 409 
Q 1144 247 1384 247 
Q 1750 247 2026 523 
Q 2303 800 2303 1197 
Q 2303 1581 2056 1914 
Q 1809 2247 1375 2428 
Q 1034 2569 447 2591 
L 1259 4238 
L 2778 4238 
z
" transform="scale(0.015625)"/>
       </defs>
       <use xlink:href="#TimesNewRomanPSMT-35"/>
      </g>
     </g>
    </g>
    <g id="xtick_3">
     <g id="line2d_3">
      <g>
       <use xlink:href="#m0097efdce3" x="306.061538" y="298.385" style="stroke: #000000; stroke-width: 0.8"/>
      </g>
     </g>
     <g id="text_3">
      <!-- 10 -->
      <g transform="translate(296.061538 319.2725) scale(0.2 -0.2)">
       <defs>
        <path id="TimesNewRomanPSMT-31" d="M 750 3822 
L 1781 4325 
L 1884 4325 
L 1884 747 
Q 1884 391 1914 303 
Q 1944 216 2037 169 
Q 2131 122 2419 116 
L 2419 0 
L 825 0 
L 825 116 
Q 1125 122 1212 167 
Q 1300 213 1334 289 
Q 1369 366 1369 747 
L 1369 3034 
Q 1369 3497 1338 3628 
Q 1316 3728 1258 3775 
Q 1200 3822 1119 3822 
Q 1003 3822 797 3725 
L 750 3822 
z
" transform="scale(0.015625)"/>
       </defs>
       <use xlink:href="#TimesNewRomanPSMT-31"/>
       <use xlink:href="#TimesNewRomanPSMT-30" x="50"/>
      </g>
     </g>
    </g>
    <g id="xtick_4">
     <g id="line2d_4">
      <g>
       <use xlink:href="#m0097efdce3" x="415.292308" y="298.385" style="stroke: #000000; stroke-width: 0.8"/>
      </g>
     </g>
     <g id="text_4">
      <!-- 15 -->
      <g transform="translate(405.292308 319.2725) scale(0.2 -0.2)">
       <use xlink:href="#TimesNewRomanPSMT-31"/>
       <use xlink:href="#TimesNewRomanPSMT-35" x="50"/>
      </g>
     </g>
    </g>
    <g id="xtick_5">
     <g id="line2d_5">
      <g>
       <use xlink:href="#m0097efdce3" x="524.523077" y="298.385" style="stroke: #000000; stroke-width: 0.8"/>
      </g>
     </g>
     <g id="text_5">
      <!-- 20 -->
      <g transform="translate(514.523077 319.2725) scale(0.2 -0.2)">
       <defs>
        <path id="TimesNewRomanPSMT-32" d="M 2934 816 
L 2638 0 
L 138 0 
L 138 116 
Q 1241 1122 1691 1759 
Q 2141 2397 2141 2925 
Q 2141 3328 1894 3587 
Q 1647 3847 1303 3847 
Q 991 3847 742 3664 
Q 494 3481 375 3128 
L 259 3128 
Q 338 3706 661 4015 
Q 984 4325 1469 4325 
Q 1984 4325 2329 3994 
Q 2675 3663 2675 3213 
Q 2675 2891 2525 2569 
Q 2294 2063 1775 1497 
Q 997 647 803 472 
L 1909 472 
Q 2247 472 2383 497 
Q 2519 522 2628 598 
Q 2738 675 2819 816 
L 2934 816 
z
" transform="scale(0.015625)"/>
       </defs>
       <use xlink:href="#TimesNewRomanPSMT-32"/>
       <use xlink:href="#TimesNewRomanPSMT-30" x="50"/>
      </g>
     </g>
    </g>
    <g id="xtick_6">
     <g id="line2d_6">
      <g>
       <use xlink:href="#m0097efdce3" x="633.753846" y="298.385" style="stroke: #000000; stroke-width: 0.8"/>
      </g>
     </g>
     <g id="text_6">
      <!-- 25 -->
      <g transform="translate(623.753846 319.2725) scale(0.2 -0.2)">
       <use xlink:href="#TimesNewRomanPSMT-32"/>
       <use xlink:href="#TimesNewRomanPSMT-35" x="50"/>
      </g>
     </g>
    </g>
   </g>
   <g id="matplotlib.axis_2">
    <g id="ytick_1">
     <g id="line2d_7">
      <defs>
       <path id="m45d72ca39d" d="M 0 0 
L -3.5 0 
" style="stroke: #000000; stroke-width: 0.8"/>
      </defs>
      <g>
       <use xlink:href="#m45d72ca39d" x="59.2" y="297.424266" style="stroke: #000000; stroke-width: 0.8"/>
      </g>
     </g>
     <g id="text_7">
      <!-- 0.000 -->
      <g transform="translate(7.2 304.368016) scale(0.2 -0.2)">
       <defs>
        <path id="TimesNewRomanPSMT-2e" d="M 800 606 
Q 947 606 1047 504 
Q 1147 403 1147 259 
Q 1147 116 1045 14 
Q 944 -88 800 -88 
Q 656 -88 554 14 
Q 453 116 453 259 
Q 453 406 554 506 
Q 656 606 800 606 
z
" transform="scale(0.015625)"/>
       </defs>
       <use xlink:href="#TimesNewRomanPSMT-30"/>
       <use xlink:href="#TimesNewRomanPSMT-2e" x="50"/>
       <use xlink:href="#TimesNewRomanPSMT-30" x="75"/>
       <use xlink:href="#TimesNewRomanPSMT-30" x="125"/>
       <use xlink:href="#TimesNewRomanPSMT-30" x="175"/>
      </g>
     </g>
    </g>
    <g id="ytick_2">
     <g id="line2d_8">
      <g>
       <use xlink:href="#m45d72ca39d" x="59.2" y="249.37489" style="stroke: #000000; stroke-width: 0.8"/>
      </g>
     </g>
     <g id="text_8">
      <!-- 0.025 -->
      <g transform="translate(7.2 256.31864) scale(0.2 -0.2)">
       <use xlink:href="#TimesNewRomanPSMT-30"/>
       <use xlink:href="#TimesNewRomanPSMT-2e" x="50"/>
       <use xlink:href="#TimesNewRomanPSMT-30" x="75"/>
       <use xlink:href="#TimesNewRomanPSMT-32" x="125"/>
       <use xlink:href="#TimesNewRomanPSMT-35" x="175"/>
      </g>
     </g>
    </g>
    <g id="ytick_3">
     <g id="line2d_9">
      <g>
       <use xlink:href="#m45d72ca39d" x="59.2" y="201.325515" style="stroke: #000000; stroke-width: 0.8"/>
      </g>
     </g>
     <g id="text_9">
      <!-- 0.050 -->
      <g transform="translate(7.2 208.269265) scale(0.2 -0.2)">
       <use xlink:href="#TimesNewRomanPSMT-30"/>
       <use xlink:href="#TimesNewRomanPSMT-2e" x="50"/>
       <use xlink:href="#TimesNewRomanPSMT-30" x="75"/>
       <use xlink:href="#TimesNewRomanPSMT-35" x="125"/>
       <use xlink:href="#TimesNewRomanPSMT-30" x="175"/>
      </g>
     </g>
    </g>
    <g id="ytick_4">
     <g id="line2d_10">
      <g>
       <use xlink:href="#m45d72ca39d" x="59.2" y="153.276139" style="stroke: #000000; stroke-width: 0.8"/>
      </g>
     </g>
     <g id="text_10">
      <!-- 0.075 -->
      <g transform="translate(7.2 160.219889) scale(0.2 -0.2)">
       <defs>
        <path id="TimesNewRomanPSMT-37" d="M 644 4238 
L 2916 4238 
L 2916 4119 
L 1503 -88 
L 1153 -88 
L 2419 3728 
L 1253 3728 
Q 900 3728 750 3644 
Q 488 3500 328 3200 
L 238 3234 
L 644 4238 
z
" transform="scale(0.015625)"/>
       </defs>
       <use xlink:href="#TimesNewRomanPSMT-30"/>
       <use xlink:href="#TimesNewRomanPSMT-2e" x="50"/>
       <use xlink:href="#TimesNewRomanPSMT-30" x="75"/>
       <use xlink:href="#TimesNewRomanPSMT-37" x="125"/>
       <use xlink:href="#TimesNewRomanPSMT-35" x="175"/>
      </g>
     </g>
    </g>
    <g id="ytick_5">
     <g id="line2d_11">
      <g>
       <use xlink:href="#m45d72ca39d" x="59.2" y="105.226764" style="stroke: #000000; stroke-width: 0.8"/>
      </g>
     </g>
     <g id="text_11">
      <!-- 0.100 -->
      <g transform="translate(7.2 112.170514) scale(0.2 -0.2)">
       <use xlink:href="#TimesNewRomanPSMT-30"/>
       <use xlink:href="#TimesNewRomanPSMT-2e" x="50"/>
       <use xlink:href="#TimesNewRomanPSMT-31" x="75"/>
       <use xlink:href="#TimesNewRomanPSMT-30" x="125"/>
       <use xlink:href="#TimesNewRomanPSMT-30" x="175"/>
      </g>
     </g>
    </g>
    <g id="ytick_6">
     <g id="line2d_12">
      <g>
       <use xlink:href="#m45d72ca39d" x="59.2" y="57.177388" style="stroke: #000000; stroke-width: 0.8"/>
      </g>
     </g>
     <g id="text_12">
      <!-- 0.125 -->
      <g transform="translate(7.2 64.121138) scale(0.2 -0.2)">
       <use xlink:href="#TimesNewRomanPSMT-30"/>
       <use xlink:href="#TimesNewRomanPSMT-2e" x="50"/>
       <use xlink:href="#TimesNewRomanPSMT-31" x="75"/>
       <use xlink:href="#TimesNewRomanPSMT-32" x="125"/>
       <use xlink:href="#TimesNewRomanPSMT-35" x="175"/>
      </g>
     </g>
    </g>
   </g>
   <g id="line2d_13">
    <path d="M 87.6 160.343137 
L 109.446154 232.770415 
L 131.292308 233.176844 
L 153.138462 238.656021 
L 174.984615 246.942494 
L 196.830769 248.979721 
L 218.676923 249.790461 
L 240.523077 250.465434 
L 262.369231 254.684498 
L 284.215385 269.278792 
L 306.061538 275.97339 
L 327.907692 282.545323 
L 349.753846 283.818521 
L 371.6 283.711189 
L 393.446154 282.997745 
L 415.292308 283.635645 
L 437.138462 284.596982 
L 458.984615 284.71707 
L 480.830769 282.341801 
L 502.676923 283.764106 
L 524.523077 284.352399 
L 546.369231 284.935688 
L 568.215385 285.302555 
L 590.061538 285.152481 
L 611.907692 285.696626 
L 633.753846 286.06897 
L 655.6 286.179545 
" clip-path="url(#p0b22eaa07b)" style="fill: none; stroke: #1f77b4; stroke-width: 1.5; stroke-linecap: square"/>
    <defs>
     <path id="m673fbccd1e" d="M 0 3 
C 0.795609 3 1.55874 2.683901 2.12132 2.12132 
C 2.683901 1.55874 3 0.795609 3 0 
C 3 -0.795609 2.683901 -1.55874 2.12132 -2.12132 
C 1.55874 -2.683901 0.795609 -3 0 -3 
C -0.795609 -3 -1.55874 -2.683901 -2.12132 -2.12132 
C -2.683901 -1.55874 -3 -0.795609 -3 0 
C -3 0.795609 -2.683901 1.55874 -2.12132 2.12132 
C -1.55874 2.683901 -0.795609 3 0 3 
z
" style="stroke: #1f77b4"/>
    </defs>
    <g clip-path="url(#p0b22eaa07b)">
     <use xlink:href="#m673fbccd1e" x="87.6" y="160.343137" style="fill: #1f77b4; stroke: #1f77b4"/>
     <use xlink:href="#m673fbccd1e" x="109.446154" y="232.770415" style="fill: #1f77b4; stroke: #1f77b4"/>
     <use xlink:href="#m673fbccd1e" x="131.292308" y="233.176844" style="fill: #1f77b4; stroke: #1f77b4"/>
     <use xlink:href="#m673fbccd1e" x="153.138462" y="238.656021" style="fill: #1f77b4; stroke: #1f77b4"/>
     <use xlink:href="#m673fbccd1e" x="174.984615" y="246.942494" style="fill: #1f77b4; stroke: #1f77b4"/>
     <use xlink:href="#m673fbccd1e" x="196.830769" y="248.979721" style="fill: #1f77b4; stroke: #1f77b4"/>
     <use xlink:href="#m673fbccd1e" x="218.676923" y="249.790461" style="fill: #1f77b4; stroke: #1f77b4"/>
     <use xlink:href="#m673fbccd1e" x="240.523077" y="250.465434" style="fill: #1f77b4; stroke: #1f77b4"/>
     <use xlink:href="#m673fbccd1e" x="262.369231" y="254.684498" style="fill: #1f77b4; stroke: #1f77b4"/>
     <use xlink:href="#m673fbccd1e" x="284.215385" y="269.278792" style="fill: #1f77b4; stroke: #1f77b4"/>
     <use xlink:href="#m673fbccd1e" x="306.061538" y="275.97339" style="fill: #1f77b4; stroke: #1f77b4"/>
     <use xlink:href="#m673fbccd1e" x="327.907692" y="282.545323" style="fill: #1f77b4; stroke: #1f77b4"/>
     <use xlink:href="#m673fbccd1e" x="349.753846" y="283.818521" style="fill: #1f77b4; stroke: #1f77b4"/>
     <use xlink:href="#m673fbccd1e" x="371.6" y="283.711189" style="fill: #1f77b4; stroke: #1f77b4"/>
     <use xlink:href="#m673fbccd1e" x="393.446154" y="282.997745" style="fill: #1f77b4; stroke: #1f77b4"/>
     <use xlink:href="#m673fbccd1e" x="415.292308" y="283.635645" style="fill: #1f77b4; stroke: #1f77b4"/>
     <use xlink:href="#m673fbccd1e" x="437.138462" y="284.596982" style="fill: #1f77b4; stroke: #1f77b4"/>
     <use xlink:href="#m673fbccd1e" x="458.984615" y="284.71707" style="fill: #1f77b4; stroke: #1f77b4"/>
     <use xlink:href="#m673fbccd1e" x="480.830769" y="282.341801" style="fill: #1f77b4; stroke: #1f77b4"/>
     <use xlink:href="#m673fbccd1e" x="502.676923" y="283.764106" style="fill: #1f77b4; stroke: #1f77b4"/>
     <use xlink:href="#m673fbccd1e" x="524.523077" y="284.352399" style="fill: #1f77b4; stroke: #1f77b4"/>
     <use xlink:href="#m673fbccd1e" x="546.369231" y="284.935688" style="fill: #1f77b4; stroke: #1f77b4"/>
     <use xlink:href="#m673fbccd1e" x="568.215385" y="285.302555" style="fill: #1f77b4; stroke: #1f77b4"/>
     <use xlink:href="#m673fbccd1e" x="590.061538" y="285.152481" style="fill: #1f77b4; stroke: #1f77b4"/>
     <use xlink:href="#m673fbccd1e" x="611.907692" y="285.696626" style="fill: #1f77b4; stroke: #1f77b4"/>
     <use xlink:href="#m673fbccd1e" x="633.753846" y="286.06897" style="fill: #1f77b4; stroke: #1f77b4"/>
     <use xlink:href="#m673fbccd1e" x="655.6" y="286.179545" style="fill: #1f77b4; stroke: #1f77b4"/>
    </g>
   </g>
   <g id="line2d_14">
    <path d="M 87.6 91.960097 
L 109.446154 96.440156 
L 131.292308 97.034057 
L 153.138462 97.564922 
L 174.984615 112.411979 
L 196.830769 100.770917 
L 218.676923 110.080997 
L 240.523077 100.276897 
L 262.369231 114.040444 
L 284.215385 120.437212 
L 306.061538 122.299821 
L 327.907692 123.289837 
L 349.753846 120.380878 
L 371.6 134.912785 
L 393.446154 131.251104 
L 415.292308 124.440851 
L 437.138462 128.622442 
L 458.984615 138.885521 
L 480.830769 130.890703 
L 502.676923 123.50031 
L 524.523077 136.418185 
L 546.369231 139.961942 
L 568.215385 134.343113 
L 590.061538 136.312877 
L 611.907692 134.52035 
L 633.753846 137.162731 
L 655.6 132.567698 
" clip-path="url(#p0b22eaa07b)" style="fill: none; stroke: #ff7f0e; stroke-width: 1.5; stroke-linecap: square"/>
    <defs>
     <path id="mdae71e3096" d="M 0 3 
C 0.795609 3 1.55874 2.683901 2.12132 2.12132 
C 2.683901 1.55874 3 0.795609 3 0 
C 3 -0.795609 2.683901 -1.55874 2.12132 -2.12132 
C 1.55874 -2.683901 0.795609 -3 0 -3 
C -0.795609 -3 -1.55874 -2.683901 -2.12132 -2.12132 
C -2.683901 -1.55874 -3 -0.795609 -3 0 
C -3 0.795609 -2.683901 1.55874 -2.12132 2.12132 
C -1.55874 2.683901 -0.795609 3 0 3 
z
" style="stroke: #ff7f0e"/>
    </defs>
    <g clip-path="url(#p0b22eaa07b)">
     <use xlink:href="#mdae71e3096" x="87.6" y="91.960097" style="fill: #ff7f0e; stroke: #ff7f0e"/>
     <use xlink:href="#mdae71e3096" x="109.446154" y="96.440156" style="fill: #ff7f0e; stroke: #ff7f0e"/>
     <use xlink:href="#mdae71e3096" x="131.292308" y="97.034057" style="fill: #ff7f0e; stroke: #ff7f0e"/>
     <use xlink:href="#mdae71e3096" x="153.138462" y="97.564922" style="fill: #ff7f0e; stroke: #ff7f0e"/>
     <use xlink:href="#mdae71e3096" x="174.984615" y="112.411979" style="fill: #ff7f0e; stroke: #ff7f0e"/>
     <use xlink:href="#mdae71e3096" x="196.830769" y="100.770917" style="fill: #ff7f0e; stroke: #ff7f0e"/>
     <use xlink:href="#mdae71e3096" x="218.676923" y="110.080997" style="fill: #ff7f0e; stroke: #ff7f0e"/>
     <use xlink:href="#mdae71e3096" x="240.523077" y="100.276897" style="fill: #ff7f0e; stroke: #ff7f0e"/>
     <use xlink:href="#mdae71e3096" x="262.369231" y="114.040444" style="fill: #ff7f0e; stroke: #ff7f0e"/>
     <use xlink:href="#mdae71e3096" x="284.215385" y="120.437212" style="fill: #ff7f0e; stroke: #ff7f0e"/>
     <use xlink:href="#mdae71e3096" x="306.061538" y="122.299821" style="fill: #ff7f0e; stroke: #ff7f0e"/>
     <use xlink:href="#mdae71e3096" x="327.907692" y="123.289837" style="fill: #ff7f0e; stroke: #ff7f0e"/>
     <use xlink:href="#mdae71e3096" x="349.753846" y="120.380878" style="fill: #ff7f0e; stroke: #ff7f0e"/>
     <use xlink:href="#mdae71e3096" x="371.6" y="134.912785" style="fill: #ff7f0e; stroke: #ff7f0e"/>
     <use xlink:href="#mdae71e3096" x="393.446154" y="131.251104" style="fill: #ff7f0e; stroke: #ff7f0e"/>
     <use xlink:href="#mdae71e3096" x="415.292308" y="124.440851" style="fill: #ff7f0e; stroke: #ff7f0e"/>
     <use xlink:href="#mdae71e3096" x="437.138462" y="128.622442" style="fill: #ff7f0e; stroke: #ff7f0e"/>
     <use xlink:href="#mdae71e3096" x="458.984615" y="138.885521" style="fill: #ff7f0e; stroke: #ff7f0e"/>
     <use xlink:href="#mdae71e3096" x="480.830769" y="130.890703" style="fill: #ff7f0e; stroke: #ff7f0e"/>
     <use xlink:href="#mdae71e3096" x="502.676923" y="123.50031" style="fill: #ff7f0e; stroke: #ff7f0e"/>
     <use xlink:href="#mdae71e3096" x="524.523077" y="136.418185" style="fill: #ff7f0e; stroke: #ff7f0e"/>
     <use xlink:href="#mdae71e3096" x="546.369231" y="139.961942" style="fill: #ff7f0e; stroke: #ff7f0e"/>
     <use xlink:href="#mdae71e3096" x="568.215385" y="134.343113" style="fill: #ff7f0e; stroke: #ff7f0e"/>
     <use xlink:href="#mdae71e3096" x="590.061538" y="136.312877" style="fill: #ff7f0e; stroke: #ff7f0e"/>
     <use xlink:href="#mdae71e3096" x="611.907692" y="134.52035" style="fill: #ff7f0e; stroke: #ff7f0e"/>
     <use xlink:href="#mdae71e3096" x="633.753846" y="137.162731" style="fill: #ff7f0e; stroke: #ff7f0e"/>
     <use xlink:href="#mdae71e3096" x="655.6" y="132.567698" style="fill: #ff7f0e; stroke: #ff7f0e"/>
    </g>
   </g>
   <g id="line2d_15">
    <path d="M 87.6 106.425273 
L 109.446154 93.788711 
L 131.292308 94.391246 
L 153.138462 99.980004 
L 174.984615 125.677998 
L 196.830769 79.430891 
L 218.676923 117.554917 
L 240.523077 42.070455 
L 262.369231 68.604927 
L 284.215385 80.233975 
L 306.061538 84.45844 
L 327.907692 74.248902 
L 349.753846 58.264235 
L 371.6 105.096178 
L 393.446154 90.08251 
L 415.292308 84.105069 
L 437.138462 88.413519 
L 458.984615 111.829677 
L 480.830769 106.517966 
L 502.676923 86.506805 
L 524.523077 120.135565 
L 546.369231 113.762425 
L 568.215385 103.762172 
L 590.061538 106.868673 
L 611.907692 98.023672 
L 633.753846 105.009543 
L 655.6 106.631908 
" clip-path="url(#p0b22eaa07b)" style="fill: none; stroke: #2ca02c; stroke-width: 1.5; stroke-linecap: square"/>
    <defs>
     <path id="m363dde93b8" d="M 0 3 
C 0.795609 3 1.55874 2.683901 2.12132 2.12132 
C 2.683901 1.55874 3 0.795609 3 0 
C 3 -0.795609 2.683901 -1.55874 2.12132 -2.12132 
C 1.55874 -2.683901 0.795609 -3 0 -3 
C -0.795609 -3 -1.55874 -2.683901 -2.12132 -2.12132 
C -2.683901 -1.55874 -3 -0.795609 -3 0 
C -3 0.795609 -2.683901 1.55874 -2.12132 2.12132 
C -1.55874 2.683901 -0.795609 3 0 3 
z
" style="stroke: #2ca02c"/>
    </defs>
    <g clip-path="url(#p0b22eaa07b)">
     <use xlink:href="#m363dde93b8" x="87.6" y="106.425273" style="fill: #2ca02c; stroke: #2ca02c"/>
     <use xlink:href="#m363dde93b8" x="109.446154" y="93.788711" style="fill: #2ca02c; stroke: #2ca02c"/>
     <use xlink:href="#m363dde93b8" x="131.292308" y="94.391246" style="fill: #2ca02c; stroke: #2ca02c"/>
     <use xlink:href="#m363dde93b8" x="153.138462" y="99.980004" style="fill: #2ca02c; stroke: #2ca02c"/>
     <use xlink:href="#m363dde93b8" x="174.984615" y="125.677998" style="fill: #2ca02c; stroke: #2ca02c"/>
     <use xlink:href="#m363dde93b8" x="196.830769" y="79.430891" style="fill: #2ca02c; stroke: #2ca02c"/>
     <use xlink:href="#m363dde93b8" x="218.676923" y="117.554917" style="fill: #2ca02c; stroke: #2ca02c"/>
     <use xlink:href="#m363dde93b8" x="240.523077" y="42.070455" style="fill: #2ca02c; stroke: #2ca02c"/>
     <use xlink:href="#m363dde93b8" x="262.369231" y="68.604927" style="fill: #2ca02c; stroke: #2ca02c"/>
     <use xlink:href="#m363dde93b8" x="284.215385" y="80.233975" style="fill: #2ca02c; stroke: #2ca02c"/>
     <use xlink:href="#m363dde93b8" x="306.061538" y="84.45844" style="fill: #2ca02c; stroke: #2ca02c"/>
     <use xlink:href="#m363dde93b8" x="327.907692" y="74.248902" style="fill: #2ca02c; stroke: #2ca02c"/>
     <use xlink:href="#m363dde93b8" x="349.753846" y="58.264235" style="fill: #2ca02c; stroke: #2ca02c"/>
     <use xlink:href="#m363dde93b8" x="371.6" y="105.096178" style="fill: #2ca02c; stroke: #2ca02c"/>
     <use xlink:href="#m363dde93b8" x="393.446154" y="90.08251" style="fill: #2ca02c; stroke: #2ca02c"/>
     <use xlink:href="#m363dde93b8" x="415.292308" y="84.105069" style="fill: #2ca02c; stroke: #2ca02c"/>
     <use xlink:href="#m363dde93b8" x="437.138462" y="88.413519" style="fill: #2ca02c; stroke: #2ca02c"/>
     <use xlink:href="#m363dde93b8" x="458.984615" y="111.829677" style="fill: #2ca02c; stroke: #2ca02c"/>
     <use xlink:href="#m363dde93b8" x="480.830769" y="106.517966" style="fill: #2ca02c; stroke: #2ca02c"/>
     <use xlink:href="#m363dde93b8" x="502.676923" y="86.506805" style="fill: #2ca02c; stroke: #2ca02c"/>
     <use xlink:href="#m363dde93b8" x="524.523077" y="120.135565" style="fill: #2ca02c; stroke: #2ca02c"/>
     <use xlink:href="#m363dde93b8" x="546.369231" y="113.762425" style="fill: #2ca02c; stroke: #2ca02c"/>
     <use xlink:href="#m363dde93b8" x="568.215385" y="103.762172" style="fill: #2ca02c; stroke: #2ca02c"/>
     <use xlink:href="#m363dde93b8" x="590.061538" y="106.868673" style="fill: #2ca02c; stroke: #2ca02c"/>
     <use xlink:href="#m363dde93b8" x="611.907692" y="98.023672" style="fill: #2ca02c; stroke: #2ca02c"/>
     <use xlink:href="#m363dde93b8" x="633.753846" y="105.009543" style="fill: #2ca02c; stroke: #2ca02c"/>
     <use xlink:href="#m363dde93b8" x="655.6" y="106.631908" style="fill: #2ca02c; stroke: #2ca02c"/>
    </g>
   </g>
   <g id="patch_3">
    <path d="M 59.2 298.385 
L 59.2 29.865 
" style="fill: none; stroke: #000000; stroke-width: 0.8; stroke-linejoin: miter; stroke-linecap: square"/>
   </g>
   <g id="patch_4">
    <path d="M 684 298.385 
L 684 29.865 
" style="fill: none; stroke: #000000; stroke-width: 0.8; stroke-linejoin: miter; stroke-linecap: square"/>
   </g>
   <g id="patch_5">
    <path d="M 59.2 298.385 
L 684 298.385 
" style="fill: none; stroke: #000000; stroke-width: 0.8; stroke-linejoin: miter; stroke-linecap: square"/>
   </g>
   <g id="patch_6">
    <path d="M 59.2 29.865 
L 684 29.865 
" style="fill: none; stroke: #000000; stroke-width: 0.8; stroke-linejoin: miter; stroke-linecap: square"/>
   </g>
   <g id="text_13">
    <!-- loss results -->
    <g transform="translate(318.59375 23.865) scale(0.24 -0.24)">
     <defs>
      <path id="TimesNewRomanPSMT-6c" d="M 1184 4444 
L 1184 647 
Q 1184 378 1223 290 
Q 1263 203 1344 158 
Q 1425 113 1647 113 
L 1647 0 
L 244 0 
L 244 113 
Q 441 113 512 153 
Q 584 194 625 287 
Q 666 381 666 647 
L 666 3247 
Q 666 3731 644 3842 
Q 622 3953 573 3993 
Q 525 4034 450 4034 
Q 369 4034 244 3984 
L 191 4094 
L 1044 4444 
L 1184 4444 
z
" transform="scale(0.015625)"/>
      <path id="TimesNewRomanPSMT-6f" d="M 1600 2947 
Q 2250 2947 2644 2453 
Q 2978 2031 2978 1484 
Q 2978 1100 2793 706 
Q 2609 313 2286 112 
Q 1963 -88 1566 -88 
Q 919 -88 538 428 
Q 216 863 216 1403 
Q 216 1797 411 2186 
Q 606 2575 925 2761 
Q 1244 2947 1600 2947 
z
M 1503 2744 
Q 1338 2744 1170 2645 
Q 1003 2547 900 2300 
Q 797 2053 797 1666 
Q 797 1041 1045 587 
Q 1294 134 1700 134 
Q 2003 134 2200 384 
Q 2397 634 2397 1244 
Q 2397 2006 2069 2444 
Q 1847 2744 1503 2744 
z
" transform="scale(0.015625)"/>
      <path id="TimesNewRomanPSMT-73" d="M 2050 2947 
L 2050 1972 
L 1947 1972 
Q 1828 2431 1642 2597 
Q 1456 2763 1169 2763 
Q 950 2763 815 2647 
Q 681 2531 681 2391 
Q 681 2216 781 2091 
Q 878 1963 1175 1819 
L 1631 1597 
Q 2266 1288 2266 781 
Q 2266 391 1970 151 
Q 1675 -88 1309 -88 
Q 1047 -88 709 6 
Q 606 38 541 38 
Q 469 38 428 -44 
L 325 -44 
L 325 978 
L 428 978 
Q 516 541 762 319 
Q 1009 97 1316 97 
Q 1531 97 1667 223 
Q 1803 350 1803 528 
Q 1803 744 1651 891 
Q 1500 1038 1047 1263 
Q 594 1488 453 1669 
Q 313 1847 313 2119 
Q 313 2472 555 2709 
Q 797 2947 1181 2947 
Q 1350 2947 1591 2875 
Q 1750 2828 1803 2828 
Q 1853 2828 1881 2850 
Q 1909 2872 1947 2947 
L 2050 2947 
z
" transform="scale(0.015625)"/>
      <path id="TimesNewRomanPSMT-20" transform="scale(0.015625)"/>
      <path id="TimesNewRomanPSMT-72" d="M 1038 2947 
L 1038 2303 
Q 1397 2947 1775 2947 
Q 1947 2947 2059 2842 
Q 2172 2738 2172 2600 
Q 2172 2478 2090 2393 
Q 2009 2309 1897 2309 
Q 1788 2309 1652 2417 
Q 1516 2525 1450 2525 
Q 1394 2525 1328 2463 
Q 1188 2334 1038 2041 
L 1038 669 
Q 1038 431 1097 309 
Q 1138 225 1241 169 
Q 1344 113 1538 113 
L 1538 0 
L 72 0 
L 72 113 
Q 291 113 397 181 
Q 475 231 506 341 
Q 522 394 522 644 
L 522 1753 
Q 522 2253 501 2348 
Q 481 2444 426 2487 
Q 372 2531 291 2531 
Q 194 2531 72 2484 
L 41 2597 
L 906 2947 
L 1038 2947 
z
" transform="scale(0.015625)"/>
      <path id="TimesNewRomanPSMT-65" d="M 681 1784 
Q 678 1147 991 784 
Q 1303 422 1725 422 
Q 2006 422 2214 576 
Q 2422 731 2563 1106 
L 2659 1044 
Q 2594 616 2278 264 
Q 1963 -88 1488 -88 
Q 972 -88 605 314 
Q 238 716 238 1394 
Q 238 2128 614 2539 
Q 991 2950 1559 2950 
Q 2041 2950 2350 2633 
Q 2659 2316 2659 1784 
L 681 1784 
z
M 681 1966 
L 2006 1966 
Q 1991 2241 1941 2353 
Q 1863 2528 1708 2628 
Q 1553 2728 1384 2728 
Q 1125 2728 920 2526 
Q 716 2325 681 1966 
z
" transform="scale(0.015625)"/>
      <path id="TimesNewRomanPSMT-75" d="M 2709 2863 
L 2709 1128 
Q 2709 631 2732 520 
Q 2756 409 2807 365 
Q 2859 322 2928 322 
Q 3025 322 3147 375 
L 3191 266 
L 2334 -88 
L 2194 -88 
L 2194 519 
Q 1825 119 1631 15 
Q 1438 -88 1222 -88 
Q 981 -88 804 51 
Q 628 191 559 409 
Q 491 628 491 1028 
L 491 2306 
Q 491 2509 447 2587 
Q 403 2666 317 2708 
Q 231 2750 6 2747 
L 6 2863 
L 1009 2863 
L 1009 947 
Q 1009 547 1148 422 
Q 1288 297 1484 297 
Q 1619 297 1789 381 
Q 1959 466 2194 703 
L 2194 2325 
Q 2194 2569 2105 2655 
Q 2016 2741 1734 2747 
L 1734 2863 
L 2709 2863 
z
" transform="scale(0.015625)"/>
      <path id="TimesNewRomanPSMT-74" d="M 1031 3803 
L 1031 2863 
L 1700 2863 
L 1700 2644 
L 1031 2644 
L 1031 788 
Q 1031 509 1111 412 
Q 1191 316 1316 316 
Q 1419 316 1516 380 
Q 1613 444 1666 569 
L 1788 569 
Q 1678 263 1478 108 
Q 1278 -47 1066 -47 
Q 922 -47 784 33 
Q 647 113 581 261 
Q 516 409 516 719 
L 516 2644 
L 63 2644 
L 63 2747 
Q 234 2816 414 2980 
Q 594 3144 734 3369 
Q 806 3488 934 3803 
L 1031 3803 
z
" transform="scale(0.015625)"/>
     </defs>
     <use xlink:href="#TimesNewRomanPSMT-6c"/>
     <use xlink:href="#TimesNewRomanPSMT-6f" x="27.783203"/>
     <use xlink:href="#TimesNewRomanPSMT-73" x="77.783203"/>
     <use xlink:href="#TimesNewRomanPSMT-73" x="116.699219"/>
     <use xlink:href="#TimesNewRomanPSMT-20" x="155.615234"/>
     <use xlink:href="#TimesNewRomanPSMT-72" x="180.615234"/>
     <use xlink:href="#TimesNewRomanPSMT-65" x="213.916016"/>
     <use xlink:href="#TimesNewRomanPSMT-73" x="258.300781"/>
     <use xlink:href="#TimesNewRomanPSMT-75" x="297.216797"/>
     <use xlink:href="#TimesNewRomanPSMT-6c" x="347.216797"/>
     <use xlink:href="#TimesNewRomanPSMT-74" x="375"/>
     <use xlink:href="#TimesNewRomanPSMT-73" x="402.783203"/>
    </g>
   </g>
   <g id="legend_1">
    <g id="patch_7">
     <path d="M 73.2 209.598437 
L 214.975 209.598437 
Q 218.975 209.598437 218.975 205.598437 
L 218.975 122.651562 
Q 218.975 118.651562 214.975 118.651562 
L 73.2 118.651562 
Q 69.2 118.651562 69.2 122.651562 
L 69.2 205.598437 
Q 69.2 209.598437 73.2 209.598437 
z
" style="fill: #ffffff; opacity: 0.8; stroke: #cccccc; stroke-linejoin: miter"/>
    </g>
    <g id="line2d_16">
     <path d="M 77.2 133.651562 
L 97.2 133.651562 
L 117.2 133.651562 
" style="fill: none; stroke: #1f77b4; stroke-width: 1.5; stroke-linecap: square"/>
     <g>
      <use xlink:href="#m673fbccd1e" x="97.2" y="133.651562" style="fill: #1f77b4; stroke: #1f77b4"/>
     </g>
    </g>
    <g id="text_14">
     <!-- train_loss -->
     <g transform="translate(133.2 140.651562) scale(0.2 -0.2)">
      <defs>
       <path id="TimesNewRomanPSMT-61" d="M 1822 413 
Q 1381 72 1269 19 
Q 1100 -59 909 -59 
Q 613 -59 420 144 
Q 228 347 228 678 
Q 228 888 322 1041 
Q 450 1253 767 1440 
Q 1084 1628 1822 1897 
L 1822 2009 
Q 1822 2438 1686 2597 
Q 1550 2756 1291 2756 
Q 1094 2756 978 2650 
Q 859 2544 859 2406 
L 866 2225 
Q 866 2081 792 2003 
Q 719 1925 600 1925 
Q 484 1925 411 2006 
Q 338 2088 338 2228 
Q 338 2497 613 2722 
Q 888 2947 1384 2947 
Q 1766 2947 2009 2819 
Q 2194 2722 2281 2516 
Q 2338 2381 2338 1966 
L 2338 994 
Q 2338 584 2353 492 
Q 2369 400 2405 369 
Q 2441 338 2488 338 
Q 2538 338 2575 359 
Q 2641 400 2828 588 
L 2828 413 
Q 2478 -56 2159 -56 
Q 2006 -56 1915 50 
Q 1825 156 1822 413 
z
M 1822 616 
L 1822 1706 
Q 1350 1519 1213 1441 
Q 966 1303 859 1153 
Q 753 1003 753 825 
Q 753 600 887 451 
Q 1022 303 1197 303 
Q 1434 303 1822 616 
z
" transform="scale(0.015625)"/>
       <path id="TimesNewRomanPSMT-69" d="M 928 4444 
Q 1059 4444 1151 4351 
Q 1244 4259 1244 4128 
Q 1244 3997 1151 3903 
Q 1059 3809 928 3809 
Q 797 3809 703 3903 
Q 609 3997 609 4128 
Q 609 4259 701 4351 
Q 794 4444 928 4444 
z
M 1188 2947 
L 1188 647 
Q 1188 378 1227 289 
Q 1266 200 1342 156 
Q 1419 113 1622 113 
L 1622 0 
L 231 0 
L 231 113 
Q 441 113 512 153 
Q 584 194 626 287 
Q 669 381 669 647 
L 669 1750 
Q 669 2216 641 2353 
Q 619 2453 572 2492 
Q 525 2531 444 2531 
Q 356 2531 231 2484 
L 188 2597 
L 1050 2947 
L 1188 2947 
z
" transform="scale(0.015625)"/>
       <path id="TimesNewRomanPSMT-6e" d="M 1034 2341 
Q 1538 2947 1994 2947 
Q 2228 2947 2397 2830 
Q 2566 2713 2666 2444 
Q 2734 2256 2734 1869 
L 2734 647 
Q 2734 375 2778 278 
Q 2813 200 2889 156 
Q 2966 113 3172 113 
L 3172 0 
L 1756 0 
L 1756 113 
L 1816 113 
Q 2016 113 2095 173 
Q 2175 234 2206 353 
Q 2219 400 2219 647 
L 2219 1819 
Q 2219 2209 2117 2386 
Q 2016 2563 1775 2563 
Q 1403 2563 1034 2156 
L 1034 647 
Q 1034 356 1069 288 
Q 1113 197 1189 155 
Q 1266 113 1500 113 
L 1500 0 
L 84 0 
L 84 113 
L 147 113 
Q 366 113 442 223 
Q 519 334 519 647 
L 519 1709 
Q 519 2225 495 2337 
Q 472 2450 423 2490 
Q 375 2531 294 2531 
Q 206 2531 84 2484 
L 38 2597 
L 900 2947 
L 1034 2947 
L 1034 2341 
z
" transform="scale(0.015625)"/>
       <path id="TimesNewRomanPSMT-5f" d="M 3256 -1381 
L -53 -1381 
L -53 -1119 
L 3256 -1119 
L 3256 -1381 
z
" transform="scale(0.015625)"/>
      </defs>
      <use xlink:href="#TimesNewRomanPSMT-74"/>
      <use xlink:href="#TimesNewRomanPSMT-72" x="27.783203"/>
      <use xlink:href="#TimesNewRomanPSMT-61" x="61.083984"/>
      <use xlink:href="#TimesNewRomanPSMT-69" x="105.46875"/>
      <use xlink:href="#TimesNewRomanPSMT-6e" x="133.251953"/>
      <use xlink:href="#TimesNewRomanPSMT-5f" x="183.251953"/>
      <use xlink:href="#TimesNewRomanPSMT-6c" x="233.251953"/>
      <use xlink:href="#TimesNewRomanPSMT-6f" x="261.035156"/>
      <use xlink:href="#TimesNewRomanPSMT-73" x="311.035156"/>
      <use xlink:href="#TimesNewRomanPSMT-73" x="349.951172"/>
     </g>
    </g>
    <g id="line2d_17">
     <path d="M 77.2 161.967187 
L 97.2 161.967187 
L 117.2 161.967187 
" style="fill: none; stroke: #ff7f0e; stroke-width: 1.5; stroke-linecap: square"/>
     <g>
      <use xlink:href="#mdae71e3096" x="97.2" y="161.967187" style="fill: #ff7f0e; stroke: #ff7f0e"/>
     </g>
    </g>
    <g id="text_15">
     <!-- vali_loss -->
     <g transform="translate(133.2 168.967187) scale(0.2 -0.2)">
      <defs>
       <path id="TimesNewRomanPSMT-76" d="M 53 2863 
L 1400 2863 
L 1400 2747 
L 1313 2747 
Q 1191 2747 1127 2687 
Q 1063 2628 1063 2528 
Q 1063 2419 1128 2269 
L 1794 688 
L 2463 2328 
Q 2534 2503 2534 2594 
Q 2534 2638 2509 2666 
Q 2475 2713 2422 2730 
Q 2369 2747 2206 2747 
L 2206 2863 
L 3141 2863 
L 3141 2747 
Q 2978 2734 2916 2681 
Q 2806 2588 2719 2369 
L 1703 -88 
L 1575 -88 
L 553 2328 
Q 484 2497 421 2570 
Q 359 2644 263 2694 
Q 209 2722 53 2747 
L 53 2863 
z
" transform="scale(0.015625)"/>
      </defs>
      <use xlink:href="#TimesNewRomanPSMT-76"/>
      <use xlink:href="#TimesNewRomanPSMT-61" x="50"/>
      <use xlink:href="#TimesNewRomanPSMT-6c" x="94.384766"/>
      <use xlink:href="#TimesNewRomanPSMT-69" x="122.167969"/>
      <use xlink:href="#TimesNewRomanPSMT-5f" x="149.951172"/>
      <use xlink:href="#TimesNewRomanPSMT-6c" x="199.951172"/>
      <use xlink:href="#TimesNewRomanPSMT-6f" x="227.734375"/>
      <use xlink:href="#TimesNewRomanPSMT-73" x="277.734375"/>
      <use xlink:href="#TimesNewRomanPSMT-73" x="316.650391"/>
     </g>
    </g>
    <g id="line2d_18">
     <path d="M 77.2 190.282812 
L 97.2 190.282812 
L 117.2 190.282812 
" style="fill: none; stroke: #2ca02c; stroke-width: 1.5; stroke-linecap: square"/>
     <g>
      <use xlink:href="#m363dde93b8" x="97.2" y="190.282812" style="fill: #2ca02c; stroke: #2ca02c"/>
     </g>
    </g>
    <g id="text_16">
     <!-- test_loss -->
     <g transform="translate(133.2 197.282812) scale(0.2 -0.2)">
      <use xlink:href="#TimesNewRomanPSMT-74"/>
      <use xlink:href="#TimesNewRomanPSMT-65" x="27.783203"/>
      <use xlink:href="#TimesNewRomanPSMT-73" x="72.167969"/>
      <use xlink:href="#TimesNewRomanPSMT-74" x="111.083984"/>
      <use xlink:href="#TimesNewRomanPSMT-5f" x="138.867188"/>
      <use xlink:href="#TimesNewRomanPSMT-6c" x="188.867188"/>
      <use xlink:href="#TimesNewRomanPSMT-6f" x="216.650391"/>
      <use xlink:href="#TimesNewRomanPSMT-73" x="266.650391"/>
      <use xlink:href="#TimesNewRomanPSMT-73" x="305.566406"/>
     </g>
    </g>
   </g>
  </g>
 </g>
 <defs>
  <clipPath id="p0b22eaa07b">
   <rect x="59.2" y="29.865" width="624.8" height="268.52"/>
  </clipPath>
 </defs>
</svg>
