<?xml version="1.0" encoding="utf-8" standalone="no"?>
<!DOCTYPE svg PUBLIC "-//W3C//DTD SVG 1.1//EN"
  "http://www.w3.org/Graphics/SVG/1.1/DTD/svg11.dtd">
<svg xmlns:xlink="http://www.w3.org/1999/xlink" width="689.879915pt" height="330.750625pt" viewBox="0 0 689.879915 330.750625" xmlns="http://www.w3.org/2000/svg" version="1.1">
 <metadata>
  <rdf:RDF xmlns:dc="http://purl.org/dc/elements/1.1/" xmlns:cc="http://creativecommons.org/ns#" xmlns:rdf="http://www.w3.org/1999/02/22-rdf-syntax-ns#">
   <cc:Work>
    <dc:type rdf:resource="http://purl.org/dc/dcmitype/StillImage"/>
    <dc:date>2024-02-22T13:48:54.778939</dc:date>
    <dc:format>image/svg+xml</dc:format>
    <dc:creator>
     <cc:Agent>
      <dc:title>Matplotlib v3.7.4, https://matplotlib.org/</dc:title>
     </cc:Agent>
    </dc:creator>
   </cc:Work>
  </rdf:RDF>
 </metadata>
 <defs>
  <style type="text/css">*{stroke-linejoin: round; stroke-linecap: butt}</style>
 </defs>
 <g id="figure_1">
  <g id="patch_1">
   <path d="M 0 330.750625 
L 689.879915 330.750625 
L 689.879915 0 
L 0 0 
z
" style="fill: #ffffff"/>
  </g>
  <g id="axes_1">
   <g id="patch_2">
    <path d="M 49.2 298.385 
L 676.92885 298.385 
L 676.92885 29.865 
L 49.2 29.865 
z
" style="fill: #ffffff"/>
   </g>
   <g id="matplotlib.axis_1">
    <g id="xtick_1">
     <g id="line2d_1">
      <defs>
       <path id="me059eae7bf" d="M 0 0 
L 0 3.5 
" style="stroke: #000000; stroke-width: 0.8"/>
      </defs>
      <g>
       <use xlink:href="#me059eae7bf" x="77.73313" y="298.385" style="stroke: #000000; stroke-width: 0.8"/>
      </g>
     </g>
     <g id="text_1">
      <!-- 0.0 -->
      <g transform="translate(65.23313 319.2725) scale(0.2 -0.2)">
       <defs>
        <path id="TimesNewRomanPSMT-30" d="M 231 2094 
Q 231 2819 450 3342 
Q 669 3866 1031 4122 
Q 1313 4325 1613 4325 
Q 2100 4325 2488 3828 
Q 2972 3213 2972 2159 
Q 2972 1422 2759 906 
Q 2547 391 2217 158 
Q 1888 -75 1581 -75 
Q 975 -75 572 641 
Q 231 1244 231 2094 
z
M 844 2016 
Q 844 1141 1059 588 
Q 1238 122 1591 122 
Q 1759 122 1940 273 
Q 2122 425 2216 781 
Q 2359 1319 2359 2297 
Q 2359 3022 2209 3506 
Q 2097 3866 1919 4016 
Q 1791 4119 1609 4119 
Q 1397 4119 1231 3928 
Q 1006 3669 925 3112 
Q 844 2556 844 2016 
z
" transform="scale(0.015625)"/>
        <path id="TimesNewRomanPSMT-2e" d="M 800 606 
Q 947 606 1047 504 
Q 1147 403 1147 259 
Q 1147 116 1045 14 
Q 944 -88 800 -88 
Q 656 -88 554 14 
Q 453 116 453 259 
Q 453 406 554 506 
Q 656 606 800 606 
z
" transform="scale(0.015625)"/>
       </defs>
       <use xlink:href="#TimesNewRomanPSMT-30"/>
       <use xlink:href="#TimesNewRomanPSMT-2e" x="50"/>
       <use xlink:href="#TimesNewRomanPSMT-30" x="75"/>
      </g>
     </g>
    </g>
    <g id="xtick_2">
     <g id="line2d_2">
      <g>
       <use xlink:href="#me059eae7bf" x="161.654099" y="298.385" style="stroke: #000000; stroke-width: 0.8"/>
      </g>
     </g>
     <g id="text_2">
      <!-- 2.5 -->
      <g transform="translate(149.154099 319.2725) scale(0.2 -0.2)">
       <defs>
        <path id="TimesNewRomanPSMT-32" d="M 2934 816 
L 2638 0 
L 138 0 
L 138 116 
Q 1241 1122 1691 1759 
Q 2141 2397 2141 2925 
Q 2141 3328 1894 3587 
Q 1647 3847 1303 3847 
Q 991 3847 742 3664 
Q 494 3481 375 3128 
L 259 3128 
Q 338 3706 661 4015 
Q 984 4325 1469 4325 
Q 1984 4325 2329 3994 
Q 2675 3663 2675 3213 
Q 2675 2891 2525 2569 
Q 2294 2063 1775 1497 
Q 997 647 803 472 
L 1909 472 
Q 2247 472 2383 497 
Q 2519 522 2628 598 
Q 2738 675 2819 816 
L 2934 816 
z
" transform="scale(0.015625)"/>
        <path id="TimesNewRomanPSMT-35" d="M 2778 4238 
L 2534 3706 
L 1259 3706 
L 981 3138 
Q 1809 3016 2294 2522 
Q 2709 2097 2709 1522 
Q 2709 1188 2573 903 
Q 2438 619 2231 419 
Q 2025 219 1772 97 
Q 1413 -75 1034 -75 
Q 653 -75 479 54 
Q 306 184 306 341 
Q 306 428 378 495 
Q 450 563 559 563 
Q 641 563 702 538 
Q 763 513 909 409 
Q 1144 247 1384 247 
Q 1750 247 2026 523 
Q 2303 800 2303 1197 
Q 2303 1581 2056 1914 
Q 1809 2247 1375 2428 
Q 1034 2569 447 2591 
L 1259 4238 
L 2778 4238 
z
" transform="scale(0.015625)"/>
       </defs>
       <use xlink:href="#TimesNewRomanPSMT-32"/>
       <use xlink:href="#TimesNewRomanPSMT-2e" x="50"/>
       <use xlink:href="#TimesNewRomanPSMT-35" x="75"/>
      </g>
     </g>
    </g>
    <g id="xtick_3">
     <g id="line2d_3">
      <g>
       <use xlink:href="#me059eae7bf" x="245.575068" y="298.385" style="stroke: #000000; stroke-width: 0.8"/>
      </g>
     </g>
     <g id="text_3">
      <!-- 5.0 -->
      <g transform="translate(233.075068 319.2725) scale(0.2 -0.2)">
       <use xlink:href="#TimesNewRomanPSMT-35"/>
       <use xlink:href="#TimesNewRomanPSMT-2e" x="50"/>
       <use xlink:href="#TimesNewRomanPSMT-30" x="75"/>
      </g>
     </g>
    </g>
    <g id="xtick_4">
     <g id="line2d_4">
      <g>
       <use xlink:href="#me059eae7bf" x="329.496037" y="298.385" style="stroke: #000000; stroke-width: 0.8"/>
      </g>
     </g>
     <g id="text_4">
      <!-- 7.5 -->
      <g transform="translate(316.996037 319.2725) scale(0.2 -0.2)">
       <defs>
        <path id="TimesNewRomanPSMT-37" d="M 644 4238 
L 2916 4238 
L 2916 4119 
L 1503 -88 
L 1153 -88 
L 2419 3728 
L 1253 3728 
Q 900 3728 750 3644 
Q 488 3500 328 3200 
L 238 3234 
L 644 4238 
z
" transform="scale(0.015625)"/>
       </defs>
       <use xlink:href="#TimesNewRomanPSMT-37"/>
       <use xlink:href="#TimesNewRomanPSMT-2e" x="50"/>
       <use xlink:href="#TimesNewRomanPSMT-35" x="75"/>
      </g>
     </g>
    </g>
    <g id="xtick_5">
     <g id="line2d_5">
      <g>
       <use xlink:href="#me059eae7bf" x="413.417007" y="298.385" style="stroke: #000000; stroke-width: 0.8"/>
      </g>
     </g>
     <g id="text_5">
      <!-- 10.0 -->
      <g transform="translate(395.917007 319.2725) scale(0.2 -0.2)">
       <defs>
        <path id="TimesNewRomanPSMT-31" d="M 750 3822 
L 1781 4325 
L 1884 4325 
L 1884 747 
Q 1884 391 1914 303 
Q 1944 216 2037 169 
Q 2131 122 2419 116 
L 2419 0 
L 825 0 
L 825 116 
Q 1125 122 1212 167 
Q 1300 213 1334 289 
Q 1369 366 1369 747 
L 1369 3034 
Q 1369 3497 1338 3628 
Q 1316 3728 1258 3775 
Q 1200 3822 1119 3822 
Q 1003 3822 797 3725 
L 750 3822 
z
" transform="scale(0.015625)"/>
       </defs>
       <use xlink:href="#TimesNewRomanPSMT-31"/>
       <use xlink:href="#TimesNewRomanPSMT-30" x="50"/>
       <use xlink:href="#TimesNewRomanPSMT-2e" x="100"/>
       <use xlink:href="#TimesNewRomanPSMT-30" x="125"/>
      </g>
     </g>
    </g>
    <g id="xtick_6">
     <g id="line2d_6">
      <g>
       <use xlink:href="#me059eae7bf" x="497.337976" y="298.385" style="stroke: #000000; stroke-width: 0.8"/>
      </g>
     </g>
     <g id="text_6">
      <!-- 12.5 -->
      <g transform="translate(479.837976 319.2725) scale(0.2 -0.2)">
       <use xlink:href="#TimesNewRomanPSMT-31"/>
       <use xlink:href="#TimesNewRomanPSMT-32" x="50"/>
       <use xlink:href="#TimesNewRomanPSMT-2e" x="100"/>
       <use xlink:href="#TimesNewRomanPSMT-35" x="125"/>
      </g>
     </g>
    </g>
    <g id="xtick_7">
     <g id="line2d_7">
      <g>
       <use xlink:href="#me059eae7bf" x="581.258945" y="298.385" style="stroke: #000000; stroke-width: 0.8"/>
      </g>
     </g>
     <g id="text_7">
      <!-- 15.0 -->
      <g transform="translate(563.758945 319.2725) scale(0.2 -0.2)">
       <use xlink:href="#TimesNewRomanPSMT-31"/>
       <use xlink:href="#TimesNewRomanPSMT-35" x="50"/>
       <use xlink:href="#TimesNewRomanPSMT-2e" x="100"/>
       <use xlink:href="#TimesNewRomanPSMT-30" x="125"/>
      </g>
     </g>
    </g>
    <g id="xtick_8">
     <g id="line2d_8">
      <g>
       <use xlink:href="#me059eae7bf" x="665.179915" y="298.385" style="stroke: #000000; stroke-width: 0.8"/>
      </g>
     </g>
     <g id="text_8">
      <!-- 17.5 -->
      <g transform="translate(647.679915 319.2725) scale(0.2 -0.2)">
       <use xlink:href="#TimesNewRomanPSMT-31"/>
       <use xlink:href="#TimesNewRomanPSMT-37" x="50"/>
       <use xlink:href="#TimesNewRomanPSMT-2e" x="100"/>
       <use xlink:href="#TimesNewRomanPSMT-35" x="125"/>
      </g>
     </g>
    </g>
   </g>
   <g id="matplotlib.axis_2">
    <g id="ytick_1">
     <g id="line2d_9">
      <defs>
       <path id="m7c832ebbf8" d="M 0 0 
L -3.5 0 
" style="stroke: #000000; stroke-width: 0.8"/>
      </defs>
      <g>
       <use xlink:href="#m7c832ebbf8" x="49.2" y="240.023125" style="stroke: #000000; stroke-width: 0.8"/>
      </g>
     </g>
     <g id="text_9">
      <!-- 0.05 -->
      <g transform="translate(7.2 246.966875) scale(0.2 -0.2)">
       <use xlink:href="#TimesNewRomanPSMT-30"/>
       <use xlink:href="#TimesNewRomanPSMT-2e" x="50"/>
       <use xlink:href="#TimesNewRomanPSMT-30" x="75"/>
       <use xlink:href="#TimesNewRomanPSMT-35" x="125"/>
      </g>
     </g>
    </g>
    <g id="ytick_2">
     <g id="line2d_10">
      <g>
       <use xlink:href="#m7c832ebbf8" x="49.2" y="177.666138" style="stroke: #000000; stroke-width: 0.8"/>
      </g>
     </g>
     <g id="text_10">
      <!-- 0.10 -->
      <g transform="translate(7.2 184.609888) scale(0.2 -0.2)">
       <use xlink:href="#TimesNewRomanPSMT-30"/>
       <use xlink:href="#TimesNewRomanPSMT-2e" x="50"/>
       <use xlink:href="#TimesNewRomanPSMT-31" x="75"/>
       <use xlink:href="#TimesNewRomanPSMT-30" x="125"/>
      </g>
     </g>
    </g>
    <g id="ytick_3">
     <g id="line2d_11">
      <g>
       <use xlink:href="#m7c832ebbf8" x="49.2" y="115.309151" style="stroke: #000000; stroke-width: 0.8"/>
      </g>
     </g>
     <g id="text_11">
      <!-- 0.15 -->
      <g transform="translate(7.2 122.252901) scale(0.2 -0.2)">
       <use xlink:href="#TimesNewRomanPSMT-30"/>
       <use xlink:href="#TimesNewRomanPSMT-2e" x="50"/>
       <use xlink:href="#TimesNewRomanPSMT-31" x="75"/>
       <use xlink:href="#TimesNewRomanPSMT-35" x="125"/>
      </g>
     </g>
    </g>
    <g id="ytick_4">
     <g id="line2d_12">
      <g>
       <use xlink:href="#m7c832ebbf8" x="49.2" y="52.952164" style="stroke: #000000; stroke-width: 0.8"/>
      </g>
     </g>
     <g id="text_12">
      <!-- 0.20 -->
      <g transform="translate(7.2 59.895914) scale(0.2 -0.2)">
       <use xlink:href="#TimesNewRomanPSMT-30"/>
       <use xlink:href="#TimesNewRomanPSMT-2e" x="50"/>
       <use xlink:href="#TimesNewRomanPSMT-32" x="75"/>
       <use xlink:href="#TimesNewRomanPSMT-30" x="125"/>
      </g>
     </g>
    </g>
   </g>
   <g id="line2d_13">
    <path d="M 77.73313 246.604919 
L 111.301517 269.781982 
L 144.869905 275.092739 
L 178.438293 277.940217 
L 212.00668 279.878717 
L 245.575068 281.051614 
L 279.143456 281.951701 
L 312.711844 282.877677 
L 346.280231 283.449598 
L 379.848619 283.85587 
L 413.417007 284.392836 
L 446.985394 284.767564 
L 480.553782 284.935746 
L 514.12217 285.272311 
L 547.690558 285.620267 
L 581.258945 285.677583 
L 614.827333 285.944864 
L 648.395721 286.179545 
" clip-path="url(#p37fe65c972)" style="fill: none; stroke: #1f77b4; stroke-width: 1.5; stroke-linecap: square"/>
    <defs>
     <path id="m6695a56bf6" d="M 0 3 
C 0.795609 3 1.55874 2.683901 2.12132 2.12132 
C 2.683901 1.55874 3 0.795609 3 0 
C 3 -0.795609 2.683901 -1.55874 2.12132 -2.12132 
C 1.55874 -2.683901 0.795609 -3 0 -3 
C -0.795609 -3 -1.55874 -2.683901 -2.12132 -2.12132 
C -2.683901 -1.55874 -3 -0.795609 -3 0 
C -3 0.795609 -2.683901 1.55874 -2.12132 2.12132 
C -1.55874 2.683901 -0.795609 3 0 3 
z
" style="stroke: #1f77b4"/>
    </defs>
    <g clip-path="url(#p37fe65c972)">
     <use xlink:href="#m6695a56bf6" x="77.73313" y="246.604919" style="fill: #1f77b4; stroke: #1f77b4"/>
     <use xlink:href="#m6695a56bf6" x="111.301517" y="269.781982" style="fill: #1f77b4; stroke: #1f77b4"/>
     <use xlink:href="#m6695a56bf6" x="144.869905" y="275.092739" style="fill: #1f77b4; stroke: #1f77b4"/>
     <use xlink:href="#m6695a56bf6" x="178.438293" y="277.940217" style="fill: #1f77b4; stroke: #1f77b4"/>
     <use xlink:href="#m6695a56bf6" x="212.00668" y="279.878717" style="fill: #1f77b4; stroke: #1f77b4"/>
     <use xlink:href="#m6695a56bf6" x="245.575068" y="281.051614" style="fill: #1f77b4; stroke: #1f77b4"/>
     <use xlink:href="#m6695a56bf6" x="279.143456" y="281.951701" style="fill: #1f77b4; stroke: #1f77b4"/>
     <use xlink:href="#m6695a56bf6" x="312.711844" y="282.877677" style="fill: #1f77b4; stroke: #1f77b4"/>
     <use xlink:href="#m6695a56bf6" x="346.280231" y="283.449598" style="fill: #1f77b4; stroke: #1f77b4"/>
     <use xlink:href="#m6695a56bf6" x="379.848619" y="283.85587" style="fill: #1f77b4; stroke: #1f77b4"/>
     <use xlink:href="#m6695a56bf6" x="413.417007" y="284.392836" style="fill: #1f77b4; stroke: #1f77b4"/>
     <use xlink:href="#m6695a56bf6" x="446.985394" y="284.767564" style="fill: #1f77b4; stroke: #1f77b4"/>
     <use xlink:href="#m6695a56bf6" x="480.553782" y="284.935746" style="fill: #1f77b4; stroke: #1f77b4"/>
     <use xlink:href="#m6695a56bf6" x="514.12217" y="285.272311" style="fill: #1f77b4; stroke: #1f77b4"/>
     <use xlink:href="#m6695a56bf6" x="547.690558" y="285.620267" style="fill: #1f77b4; stroke: #1f77b4"/>
     <use xlink:href="#m6695a56bf6" x="581.258945" y="285.677583" style="fill: #1f77b4; stroke: #1f77b4"/>
     <use xlink:href="#m6695a56bf6" x="614.827333" y="285.944864" style="fill: #1f77b4; stroke: #1f77b4"/>
     <use xlink:href="#m6695a56bf6" x="648.395721" y="286.179545" style="fill: #1f77b4; stroke: #1f77b4"/>
    </g>
   </g>
   <g id="line2d_14">
    <path d="M 77.73313 81.656225 
L 111.301517 42.070455 
L 144.869905 78.490897 
L 178.438293 88.011021 
L 212.00668 74.872625 
L 245.575068 75.768087 
L 279.143456 93.754911 
L 312.711844 89.573345 
L 346.280231 79.100725 
L 379.848619 97.059209 
L 413.417007 96.570157 
L 446.985394 95.197388 
L 480.553782 111.432687 
L 514.12217 91.549977 
L 547.690558 104.606883 
L 581.258945 91.866014 
L 614.827333 103.994713 
L 648.395721 110.683145 
" clip-path="url(#p37fe65c972)" style="fill: none; stroke: #ff7f0e; stroke-width: 1.5; stroke-linecap: square"/>
    <defs>
     <path id="m54d93355b9" d="M 0 3 
C 0.795609 3 1.55874 2.683901 2.12132 2.12132 
C 2.683901 1.55874 3 0.795609 3 0 
C 3 -0.795609 2.683901 -1.55874 2.12132 -2.12132 
C 1.55874 -2.683901 0.795609 -3 0 -3 
C -0.795609 -3 -1.55874 -2.683901 -2.12132 -2.12132 
C -2.683901 -1.55874 -3 -0.795609 -3 0 
C -3 0.795609 -2.683901 1.55874 -2.12132 2.12132 
C -1.55874 2.683901 -0.795609 3 0 3 
z
" style="stroke: #ff7f0e"/>
    </defs>
    <g clip-path="url(#p37fe65c972)">
     <use xlink:href="#m54d93355b9" x="77.73313" y="81.656225" style="fill: #ff7f0e; stroke: #ff7f0e"/>
     <use xlink:href="#m54d93355b9" x="111.301517" y="42.070455" style="fill: #ff7f0e; stroke: #ff7f0e"/>
     <use xlink:href="#m54d93355b9" x="144.869905" y="78.490897" style="fill: #ff7f0e; stroke: #ff7f0e"/>
     <use xlink:href="#m54d93355b9" x="178.438293" y="88.011021" style="fill: #ff7f0e; stroke: #ff7f0e"/>
     <use xlink:href="#m54d93355b9" x="212.00668" y="74.872625" style="fill: #ff7f0e; stroke: #ff7f0e"/>
     <use xlink:href="#m54d93355b9" x="245.575068" y="75.768087" style="fill: #ff7f0e; stroke: #ff7f0e"/>
     <use xlink:href="#m54d93355b9" x="279.143456" y="93.754911" style="fill: #ff7f0e; stroke: #ff7f0e"/>
     <use xlink:href="#m54d93355b9" x="312.711844" y="89.573345" style="fill: #ff7f0e; stroke: #ff7f0e"/>
     <use xlink:href="#m54d93355b9" x="346.280231" y="79.100725" style="fill: #ff7f0e; stroke: #ff7f0e"/>
     <use xlink:href="#m54d93355b9" x="379.848619" y="97.059209" style="fill: #ff7f0e; stroke: #ff7f0e"/>
     <use xlink:href="#m54d93355b9" x="413.417007" y="96.570157" style="fill: #ff7f0e; stroke: #ff7f0e"/>
     <use xlink:href="#m54d93355b9" x="446.985394" y="95.197388" style="fill: #ff7f0e; stroke: #ff7f0e"/>
     <use xlink:href="#m54d93355b9" x="480.553782" y="111.432687" style="fill: #ff7f0e; stroke: #ff7f0e"/>
     <use xlink:href="#m54d93355b9" x="514.12217" y="91.549977" style="fill: #ff7f0e; stroke: #ff7f0e"/>
     <use xlink:href="#m54d93355b9" x="547.690558" y="104.606883" style="fill: #ff7f0e; stroke: #ff7f0e"/>
     <use xlink:href="#m54d93355b9" x="581.258945" y="91.866014" style="fill: #ff7f0e; stroke: #ff7f0e"/>
     <use xlink:href="#m54d93355b9" x="614.827333" y="103.994713" style="fill: #ff7f0e; stroke: #ff7f0e"/>
     <use xlink:href="#m54d93355b9" x="648.395721" y="110.683145" style="fill: #ff7f0e; stroke: #ff7f0e"/>
    </g>
   </g>
   <g id="line2d_15">
    <path d="M 77.73313 227.331888 
L 111.301517 204.340344 
L 144.869905 234.174398 
L 178.438293 237.229761 
L 212.00668 221.644195 
L 245.575068 231.206983 
L 279.143456 235.268289 
L 312.711844 229.311498 
L 346.280231 230.530151 
L 379.848619 238.370701 
L 413.417007 240.536861 
L 446.985394 235.15326 
L 480.553782 242.063787 
L 514.12217 235.254402 
L 547.690558 238.401699 
L 581.258945 240.038089 
L 614.827333 240.919474 
L 648.395721 240.448216 
" clip-path="url(#p37fe65c972)" style="fill: none; stroke: #2ca02c; stroke-width: 1.5; stroke-linecap: square"/>
    <defs>
     <path id="m83f15c3c70" d="M 0 3 
C 0.795609 3 1.55874 2.683901 2.12132 2.12132 
C 2.683901 1.55874 3 0.795609 3 0 
C 3 -0.795609 2.683901 -1.55874 2.12132 -2.12132 
C 1.55874 -2.683901 0.795609 -3 0 -3 
C -0.795609 -3 -1.55874 -2.683901 -2.12132 -2.12132 
C -2.683901 -1.55874 -3 -0.795609 -3 0 
C -3 0.795609 -2.683901 1.55874 -2.12132 2.12132 
C -1.55874 2.683901 -0.795609 3 0 3 
z
" style="stroke: #2ca02c"/>
    </defs>
    <g clip-path="url(#p37fe65c972)">
     <use xlink:href="#m83f15c3c70" x="77.73313" y="227.331888" style="fill: #2ca02c; stroke: #2ca02c"/>
     <use xlink:href="#m83f15c3c70" x="111.301517" y="204.340344" style="fill: #2ca02c; stroke: #2ca02c"/>
     <use xlink:href="#m83f15c3c70" x="144.869905" y="234.174398" style="fill: #2ca02c; stroke: #2ca02c"/>
     <use xlink:href="#m83f15c3c70" x="178.438293" y="237.229761" style="fill: #2ca02c; stroke: #2ca02c"/>
     <use xlink:href="#m83f15c3c70" x="212.00668" y="221.644195" style="fill: #2ca02c; stroke: #2ca02c"/>
     <use xlink:href="#m83f15c3c70" x="245.575068" y="231.206983" style="fill: #2ca02c; stroke: #2ca02c"/>
     <use xlink:href="#m83f15c3c70" x="279.143456" y="235.268289" style="fill: #2ca02c; stroke: #2ca02c"/>
     <use xlink:href="#m83f15c3c70" x="312.711844" y="229.311498" style="fill: #2ca02c; stroke: #2ca02c"/>
     <use xlink:href="#m83f15c3c70" x="346.280231" y="230.530151" style="fill: #2ca02c; stroke: #2ca02c"/>
     <use xlink:href="#m83f15c3c70" x="379.848619" y="238.370701" style="fill: #2ca02c; stroke: #2ca02c"/>
     <use xlink:href="#m83f15c3c70" x="413.417007" y="240.536861" style="fill: #2ca02c; stroke: #2ca02c"/>
     <use xlink:href="#m83f15c3c70" x="446.985394" y="235.15326" style="fill: #2ca02c; stroke: #2ca02c"/>
     <use xlink:href="#m83f15c3c70" x="480.553782" y="242.063787" style="fill: #2ca02c; stroke: #2ca02c"/>
     <use xlink:href="#m83f15c3c70" x="514.12217" y="235.254402" style="fill: #2ca02c; stroke: #2ca02c"/>
     <use xlink:href="#m83f15c3c70" x="547.690558" y="238.401699" style="fill: #2ca02c; stroke: #2ca02c"/>
     <use xlink:href="#m83f15c3c70" x="581.258945" y="240.038089" style="fill: #2ca02c; stroke: #2ca02c"/>
     <use xlink:href="#m83f15c3c70" x="614.827333" y="240.919474" style="fill: #2ca02c; stroke: #2ca02c"/>
     <use xlink:href="#m83f15c3c70" x="648.395721" y="240.448216" style="fill: #2ca02c; stroke: #2ca02c"/>
    </g>
   </g>
   <g id="patch_3">
    <path d="M 49.2 298.385 
L 49.2 29.865 
" style="fill: none; stroke: #000000; stroke-width: 0.8; stroke-linejoin: miter; stroke-linecap: square"/>
   </g>
   <g id="patch_4">
    <path d="M 676.92885 298.385 
L 676.92885 29.865 
" style="fill: none; stroke: #000000; stroke-width: 0.8; stroke-linejoin: miter; stroke-linecap: square"/>
   </g>
   <g id="patch_5">
    <path d="M 49.2 298.385 
L 676.92885 298.385 
" style="fill: none; stroke: #000000; stroke-width: 0.8; stroke-linejoin: miter; stroke-linecap: square"/>
   </g>
   <g id="patch_6">
    <path d="M 49.2 29.865 
L 676.92885 29.865 
" style="fill: none; stroke: #000000; stroke-width: 0.8; stroke-linejoin: miter; stroke-linecap: square"/>
   </g>
   <g id="text_13">
    <!-- loss results -->
    <g transform="translate(310.058175 23.865) scale(0.24 -0.24)">
     <defs>
      <path id="TimesNewRomanPSMT-6c" d="M 1184 4444 
L 1184 647 
Q 1184 378 1223 290 
Q 1263 203 1344 158 
Q 1425 113 1647 113 
L 1647 0 
L 244 0 
L 244 113 
Q 441 113 512 153 
Q 584 194 625 287 
Q 666 381 666 647 
L 666 3247 
Q 666 3731 644 3842 
Q 622 3953 573 3993 
Q 525 4034 450 4034 
Q 369 4034 244 3984 
L 191 4094 
L 1044 4444 
L 1184 4444 
z
" transform="scale(0.015625)"/>
      <path id="TimesNewRomanPSMT-6f" d="M 1600 2947 
Q 2250 2947 2644 2453 
Q 2978 2031 2978 1484 
Q 2978 1100 2793 706 
Q 2609 313 2286 112 
Q 1963 -88 1566 -88 
Q 919 -88 538 428 
Q 216 863 216 1403 
Q 216 1797 411 2186 
Q 606 2575 925 2761 
Q 1244 2947 1600 2947 
z
M 1503 2744 
Q 1338 2744 1170 2645 
Q 1003 2547 900 2300 
Q 797 2053 797 1666 
Q 797 1041 1045 587 
Q 1294 134 1700 134 
Q 2003 134 2200 384 
Q 2397 634 2397 1244 
Q 2397 2006 2069 2444 
Q 1847 2744 1503 2744 
z
" transform="scale(0.015625)"/>
      <path id="TimesNewRomanPSMT-73" d="M 2050 2947 
L 2050 1972 
L 1947 1972 
Q 1828 2431 1642 2597 
Q 1456 2763 1169 2763 
Q 950 2763 815 2647 
Q 681 2531 681 2391 
Q 681 2216 781 2091 
Q 878 1963 1175 1819 
L 1631 1597 
Q 2266 1288 2266 781 
Q 2266 391 1970 151 
Q 1675 -88 1309 -88 
Q 1047 -88 709 6 
Q 606 38 541 38 
Q 469 38 428 -44 
L 325 -44 
L 325 978 
L 428 978 
Q 516 541 762 319 
Q 1009 97 1316 97 
Q 1531 97 1667 223 
Q 1803 350 1803 528 
Q 1803 744 1651 891 
Q 1500 1038 1047 1263 
Q 594 1488 453 1669 
Q 313 1847 313 2119 
Q 313 2472 555 2709 
Q 797 2947 1181 2947 
Q 1350 2947 1591 2875 
Q 1750 2828 1803 2828 
Q 1853 2828 1881 2850 
Q 1909 2872 1947 2947 
L 2050 2947 
z
" transform="scale(0.015625)"/>
      <path id="TimesNewRomanPSMT-20" transform="scale(0.015625)"/>
      <path id="TimesNewRomanPSMT-72" d="M 1038 2947 
L 1038 2303 
Q 1397 2947 1775 2947 
Q 1947 2947 2059 2842 
Q 2172 2738 2172 2600 
Q 2172 2478 2090 2393 
Q 2009 2309 1897 2309 
Q 1788 2309 1652 2417 
Q 1516 2525 1450 2525 
Q 1394 2525 1328 2463 
Q 1188 2334 1038 2041 
L 1038 669 
Q 1038 431 1097 309 
Q 1138 225 1241 169 
Q 1344 113 1538 113 
L 1538 0 
L 72 0 
L 72 113 
Q 291 113 397 181 
Q 475 231 506 341 
Q 522 394 522 644 
L 522 1753 
Q 522 2253 501 2348 
Q 481 2444 426 2487 
Q 372 2531 291 2531 
Q 194 2531 72 2484 
L 41 2597 
L 906 2947 
L 1038 2947 
z
" transform="scale(0.015625)"/>
      <path id="TimesNewRomanPSMT-65" d="M 681 1784 
Q 678 1147 991 784 
Q 1303 422 1725 422 
Q 2006 422 2214 576 
Q 2422 731 2563 1106 
L 2659 1044 
Q 2594 616 2278 264 
Q 1963 -88 1488 -88 
Q 972 -88 605 314 
Q 238 716 238 1394 
Q 238 2128 614 2539 
Q 991 2950 1559 2950 
Q 2041 2950 2350 2633 
Q 2659 2316 2659 1784 
L 681 1784 
z
M 681 1966 
L 2006 1966 
Q 1991 2241 1941 2353 
Q 1863 2528 1708 2628 
Q 1553 2728 1384 2728 
Q 1125 2728 920 2526 
Q 716 2325 681 1966 
z
" transform="scale(0.015625)"/>
      <path id="TimesNewRomanPSMT-75" d="M 2709 2863 
L 2709 1128 
Q 2709 631 2732 520 
Q 2756 409 2807 365 
Q 2859 322 2928 322 
Q 3025 322 3147 375 
L 3191 266 
L 2334 -88 
L 2194 -88 
L 2194 519 
Q 1825 119 1631 15 
Q 1438 -88 1222 -88 
Q 981 -88 804 51 
Q 628 191 559 409 
Q 491 628 491 1028 
L 491 2306 
Q 491 2509 447 2587 
Q 403 2666 317 2708 
Q 231 2750 6 2747 
L 6 2863 
L 1009 2863 
L 1009 947 
Q 1009 547 1148 422 
Q 1288 297 1484 297 
Q 1619 297 1789 381 
Q 1959 466 2194 703 
L 2194 2325 
Q 2194 2569 2105 2655 
Q 2016 2741 1734 2747 
L 1734 2863 
L 2709 2863 
z
" transform="scale(0.015625)"/>
      <path id="TimesNewRomanPSMT-74" d="M 1031 3803 
L 1031 2863 
L 1700 2863 
L 1700 2644 
L 1031 2644 
L 1031 788 
Q 1031 509 1111 412 
Q 1191 316 1316 316 
Q 1419 316 1516 380 
Q 1613 444 1666 569 
L 1788 569 
Q 1678 263 1478 108 
Q 1278 -47 1066 -47 
Q 922 -47 784 33 
Q 647 113 581 261 
Q 516 409 516 719 
L 516 2644 
L 63 2644 
L 63 2747 
Q 234 2816 414 2980 
Q 594 3144 734 3369 
Q 806 3488 934 3803 
L 1031 3803 
z
" transform="scale(0.015625)"/>
     </defs>
     <use xlink:href="#TimesNewRomanPSMT-6c"/>
     <use xlink:href="#TimesNewRomanPSMT-6f" x="27.783203"/>
     <use xlink:href="#TimesNewRomanPSMT-73" x="77.783203"/>
     <use xlink:href="#TimesNewRomanPSMT-73" x="116.699219"/>
     <use xlink:href="#TimesNewRomanPSMT-20" x="155.615234"/>
     <use xlink:href="#TimesNewRomanPSMT-72" x="180.615234"/>
     <use xlink:href="#TimesNewRomanPSMT-65" x="213.916016"/>
     <use xlink:href="#TimesNewRomanPSMT-73" x="258.300781"/>
     <use xlink:href="#TimesNewRomanPSMT-75" x="297.216797"/>
     <use xlink:href="#TimesNewRomanPSMT-6c" x="347.216797"/>
     <use xlink:href="#TimesNewRomanPSMT-74" x="375"/>
     <use xlink:href="#TimesNewRomanPSMT-73" x="402.783203"/>
    </g>
   </g>
   <g id="legend_1">
    <g id="patch_7">
     <path d="M 521.15385 209.598437 
L 662.92885 209.598437 
Q 666.92885 209.598437 666.92885 205.598437 
L 666.92885 122.651562 
Q 666.92885 118.651562 662.92885 118.651562 
L 521.15385 118.651562 
Q 517.15385 118.651562 517.15385 122.651562 
L 517.15385 205.598437 
Q 517.15385 209.598437 521.15385 209.598437 
z
" style="fill: #ffffff; opacity: 0.8; stroke: #cccccc; stroke-linejoin: miter"/>
    </g>
    <g id="line2d_16">
     <path d="M 525.15385 133.651562 
L 545.15385 133.651562 
L 565.15385 133.651562 
" style="fill: none; stroke: #1f77b4; stroke-width: 1.5; stroke-linecap: square"/>
     <g>
      <use xlink:href="#m6695a56bf6" x="545.15385" y="133.651562" style="fill: #1f77b4; stroke: #1f77b4"/>
     </g>
    </g>
    <g id="text_14">
     <!-- train_loss -->
     <g transform="translate(581.15385 140.651562) scale(0.2 -0.2)">
      <defs>
       <path id="TimesNewRomanPSMT-61" d="M 1822 413 
Q 1381 72 1269 19 
Q 1100 -59 909 -59 
Q 613 -59 420 144 
Q 228 347 228 678 
Q 228 888 322 1041 
Q 450 1253 767 1440 
Q 1084 1628 1822 1897 
L 1822 2009 
Q 1822 2438 1686 2597 
Q 1550 2756 1291 2756 
Q 1094 2756 978 2650 
Q 859 2544 859 2406 
L 866 2225 
Q 866 2081 792 2003 
Q 719 1925 600 1925 
Q 484 1925 411 2006 
Q 338 2088 338 2228 
Q 338 2497 613 2722 
Q 888 2947 1384 2947 
Q 1766 2947 2009 2819 
Q 2194 2722 2281 2516 
Q 2338 2381 2338 1966 
L 2338 994 
Q 2338 584 2353 492 
Q 2369 400 2405 369 
Q 2441 338 2488 338 
Q 2538 338 2575 359 
Q 2641 400 2828 588 
L 2828 413 
Q 2478 -56 2159 -56 
Q 2006 -56 1915 50 
Q 1825 156 1822 413 
z
M 1822 616 
L 1822 1706 
Q 1350 1519 1213 1441 
Q 966 1303 859 1153 
Q 753 1003 753 825 
Q 753 600 887 451 
Q 1022 303 1197 303 
Q 1434 303 1822 616 
z
" transform="scale(0.015625)"/>
       <path id="TimesNewRomanPSMT-69" d="M 928 4444 
Q 1059 4444 1151 4351 
Q 1244 4259 1244 4128 
Q 1244 3997 1151 3903 
Q 1059 3809 928 3809 
Q 797 3809 703 3903 
Q 609 3997 609 4128 
Q 609 4259 701 4351 
Q 794 4444 928 4444 
z
M 1188 2947 
L 1188 647 
Q 1188 378 1227 289 
Q 1266 200 1342 156 
Q 1419 113 1622 113 
L 1622 0 
L 231 0 
L 231 113 
Q 441 113 512 153 
Q 584 194 626 287 
Q 669 381 669 647 
L 669 1750 
Q 669 2216 641 2353 
Q 619 2453 572 2492 
Q 525 2531 444 2531 
Q 356 2531 231 2484 
L 188 2597 
L 1050 2947 
L 1188 2947 
z
" transform="scale(0.015625)"/>
       <path id="TimesNewRomanPSMT-6e" d="M 1034 2341 
Q 1538 2947 1994 2947 
Q 2228 2947 2397 2830 
Q 2566 2713 2666 2444 
Q 2734 2256 2734 1869 
L 2734 647 
Q 2734 375 2778 278 
Q 2813 200 2889 156 
Q 2966 113 3172 113 
L 3172 0 
L 1756 0 
L 1756 113 
L 1816 113 
Q 2016 113 2095 173 
Q 2175 234 2206 353 
Q 2219 400 2219 647 
L 2219 1819 
Q 2219 2209 2117 2386 
Q 2016 2563 1775 2563 
Q 1403 2563 1034 2156 
L 1034 647 
Q 1034 356 1069 288 
Q 1113 197 1189 155 
Q 1266 113 1500 113 
L 1500 0 
L 84 0 
L 84 113 
L 147 113 
Q 366 113 442 223 
Q 519 334 519 647 
L 519 1709 
Q 519 2225 495 2337 
Q 472 2450 423 2490 
Q 375 2531 294 2531 
Q 206 2531 84 2484 
L 38 2597 
L 900 2947 
L 1034 2947 
L 1034 2341 
z
" transform="scale(0.015625)"/>
       <path id="TimesNewRomanPSMT-5f" d="M 3256 -1381 
L -53 -1381 
L -53 -1119 
L 3256 -1119 
L 3256 -1381 
z
" transform="scale(0.015625)"/>
      </defs>
      <use xlink:href="#TimesNewRomanPSMT-74"/>
      <use xlink:href="#TimesNewRomanPSMT-72" x="27.783203"/>
      <use xlink:href="#TimesNewRomanPSMT-61" x="61.083984"/>
      <use xlink:href="#TimesNewRomanPSMT-69" x="105.46875"/>
      <use xlink:href="#TimesNewRomanPSMT-6e" x="133.251953"/>
      <use xlink:href="#TimesNewRomanPSMT-5f" x="183.251953"/>
      <use xlink:href="#TimesNewRomanPSMT-6c" x="233.251953"/>
      <use xlink:href="#TimesNewRomanPSMT-6f" x="261.035156"/>
      <use xlink:href="#TimesNewRomanPSMT-73" x="311.035156"/>
      <use xlink:href="#TimesNewRomanPSMT-73" x="349.951172"/>
     </g>
    </g>
    <g id="line2d_17">
     <path d="M 525.15385 161.967187 
L 545.15385 161.967187 
L 565.15385 161.967187 
" style="fill: none; stroke: #ff7f0e; stroke-width: 1.5; stroke-linecap: square"/>
     <g>
      <use xlink:href="#m54d93355b9" x="545.15385" y="161.967187" style="fill: #ff7f0e; stroke: #ff7f0e"/>
     </g>
    </g>
    <g id="text_15">
     <!-- vali_loss -->
     <g transform="translate(581.15385 168.967187) scale(0.2 -0.2)">
      <defs>
       <path id="TimesNewRomanPSMT-76" d="M 53 2863 
L 1400 2863 
L 1400 2747 
L 1313 2747 
Q 1191 2747 1127 2687 
Q 1063 2628 1063 2528 
Q 1063 2419 1128 2269 
L 1794 688 
L 2463 2328 
Q 2534 2503 2534 2594 
Q 2534 2638 2509 2666 
Q 2475 2713 2422 2730 
Q 2369 2747 2206 2747 
L 2206 2863 
L 3141 2863 
L 3141 2747 
Q 2978 2734 2916 2681 
Q 2806 2588 2719 2369 
L 1703 -88 
L 1575 -88 
L 553 2328 
Q 484 2497 421 2570 
Q 359 2644 263 2694 
Q 209 2722 53 2747 
L 53 2863 
z
" transform="scale(0.015625)"/>
      </defs>
      <use xlink:href="#TimesNewRomanPSMT-76"/>
      <use xlink:href="#TimesNewRomanPSMT-61" x="50"/>
      <use xlink:href="#TimesNewRomanPSMT-6c" x="94.384766"/>
      <use xlink:href="#TimesNewRomanPSMT-69" x="122.167969"/>
      <use xlink:href="#TimesNewRomanPSMT-5f" x="149.951172"/>
      <use xlink:href="#TimesNewRomanPSMT-6c" x="199.951172"/>
      <use xlink:href="#TimesNewRomanPSMT-6f" x="227.734375"/>
      <use xlink:href="#TimesNewRomanPSMT-73" x="277.734375"/>
      <use xlink:href="#TimesNewRomanPSMT-73" x="316.650391"/>
     </g>
    </g>
    <g id="line2d_18">
     <path d="M 525.15385 190.282812 
L 545.15385 190.282812 
L 565.15385 190.282812 
" style="fill: none; stroke: #2ca02c; stroke-width: 1.5; stroke-linecap: square"/>
     <g>
      <use xlink:href="#m83f15c3c70" x="545.15385" y="190.282812" style="fill: #2ca02c; stroke: #2ca02c"/>
     </g>
    </g>
    <g id="text_16">
     <!-- test_loss -->
     <g transform="translate(581.15385 197.282812) scale(0.2 -0.2)">
      <use xlink:href="#TimesNewRomanPSMT-74"/>
      <use xlink:href="#TimesNewRomanPSMT-65" x="27.783203"/>
      <use xlink:href="#TimesNewRomanPSMT-73" x="72.167969"/>
      <use xlink:href="#TimesNewRomanPSMT-74" x="111.083984"/>
      <use xlink:href="#TimesNewRomanPSMT-5f" x="138.867188"/>
      <use xlink:href="#TimesNewRomanPSMT-6c" x="188.867188"/>
      <use xlink:href="#TimesNewRomanPSMT-6f" x="216.650391"/>
      <use xlink:href="#TimesNewRomanPSMT-73" x="266.650391"/>
      <use xlink:href="#TimesNewRomanPSMT-73" x="305.566406"/>
     </g>
    </g>
   </g>
  </g>
 </g>
 <defs>
  <clipPath id="p37fe65c972">
   <rect x="49.2" y="29.865" width="627.72885" height="268.52"/>
  </clipPath>
 </defs>
</svg>
