<?xml version="1.0" encoding="utf-8" standalone="no"?>
<!DOCTYPE svg PUBLIC "-//W3C//DTD SVG 1.1//EN"
  "http://www.w3.org/Graphics/SVG/1.1/DTD/svg11.dtd">
<svg xmlns:xlink="http://www.w3.org/1999/xlink" width="691.18pt" height="330.750625pt" viewBox="0 0 691.18 330.750625" xmlns="http://www.w3.org/2000/svg" version="1.1">
 <metadata>
  <rdf:RDF xmlns:dc="http://purl.org/dc/elements/1.1/" xmlns:cc="http://creativecommons.org/ns#" xmlns:rdf="http://www.w3.org/1999/02/22-rdf-syntax-ns#">
   <cc:Work>
    <dc:type rdf:resource="http://purl.org/dc/dcmitype/StillImage"/>
    <dc:date>2024-02-16T14:16:39.819759</dc:date>
    <dc:format>image/svg+xml</dc:format>
    <dc:creator>
     <cc:Agent>
      <dc:title>Matplotlib v3.7.1, https://matplotlib.org/</dc:title>
     </cc:Agent>
    </dc:creator>
   </cc:Work>
  </rdf:RDF>
 </metadata>
 <defs>
  <style type="text/css">*{stroke-linejoin: round; stroke-linecap: butt}</style>
 </defs>
 <g id="figure_1">
  <g id="patch_1">
   <path d="M 0 330.750625 
L 691.18 330.750625 
L 691.18 0 
L 0 0 
z
" style="fill: #ffffff"/>
  </g>
  <g id="axes_1">
   <g id="patch_2">
    <path d="M 39.2 298.385 
L 683.98 298.385 
L 683.98 29.865 
L 39.2 29.865 
z
" style="fill: #ffffff"/>
   </g>
   <g id="matplotlib.axis_1">
    <g id="xtick_1">
     <g id="line2d_1">
      <defs>
       <path id="m4c701dd9c0" d="M 0 0 
L 0 3.5 
" style="stroke: #000000; stroke-width: 0.8"/>
      </defs>
      <g>
       <use xlink:href="#m4c701dd9c0" x="68.508182" y="298.385" style="stroke: #000000; stroke-width: 0.8"/>
      </g>
     </g>
     <g id="text_1">
      <!-- 0 -->
      <g transform="translate(63.508182 319.2725) scale(0.2 -0.2)">
       <defs>
        <path id="TimesNewRomanPSMT-30" d="M 231 2094 
Q 231 2819 450 3342 
Q 669 3866 1031 4122 
Q 1313 4325 1613 4325 
Q 2100 4325 2488 3828 
Q 2972 3213 2972 2159 
Q 2972 1422 2759 906 
Q 2547 391 2217 158 
Q 1888 -75 1581 -75 
Q 975 -75 572 641 
Q 231 1244 231 2094 
z
M 844 2016 
Q 844 1141 1059 588 
Q 1238 122 1591 122 
Q 1759 122 1940 273 
Q 2122 425 2216 781 
Q 2359 1319 2359 2297 
Q 2359 3022 2209 3506 
Q 2097 3866 1919 4016 
Q 1791 4119 1609 4119 
Q 1397 4119 1231 3928 
Q 1006 3669 925 3112 
Q 844 2556 844 2016 
z
" transform="scale(0.015625)"/>
       </defs>
       <use xlink:href="#TimesNewRomanPSMT-30"/>
      </g>
     </g>
    </g>
    <g id="xtick_2">
     <g id="line2d_2">
      <g>
       <use xlink:href="#m4c701dd9c0" x="142.70611" y="298.385" style="stroke: #000000; stroke-width: 0.8"/>
      </g>
     </g>
     <g id="text_2">
      <!-- 10 -->
      <g transform="translate(132.70611 319.2725) scale(0.2 -0.2)">
       <defs>
        <path id="TimesNewRomanPSMT-31" d="M 750 3822 
L 1781 4325 
L 1884 4325 
L 1884 747 
Q 1884 391 1914 303 
Q 1944 216 2037 169 
Q 2131 122 2419 116 
L 2419 0 
L 825 0 
L 825 116 
Q 1125 122 1212 167 
Q 1300 213 1334 289 
Q 1369 366 1369 747 
L 1369 3034 
Q 1369 3497 1338 3628 
Q 1316 3728 1258 3775 
Q 1200 3822 1119 3822 
Q 1003 3822 797 3725 
L 750 3822 
z
" transform="scale(0.015625)"/>
       </defs>
       <use xlink:href="#TimesNewRomanPSMT-31"/>
       <use xlink:href="#TimesNewRomanPSMT-30" x="50"/>
      </g>
     </g>
    </g>
    <g id="xtick_3">
     <g id="line2d_3">
      <g>
       <use xlink:href="#m4c701dd9c0" x="216.904039" y="298.385" style="stroke: #000000; stroke-width: 0.8"/>
      </g>
     </g>
     <g id="text_3">
      <!-- 20 -->
      <g transform="translate(206.904039 319.2725) scale(0.2 -0.2)">
       <defs>
        <path id="TimesNewRomanPSMT-32" d="M 2934 816 
L 2638 0 
L 138 0 
L 138 116 
Q 1241 1122 1691 1759 
Q 2141 2397 2141 2925 
Q 2141 3328 1894 3587 
Q 1647 3847 1303 3847 
Q 991 3847 742 3664 
Q 494 3481 375 3128 
L 259 3128 
Q 338 3706 661 4015 
Q 984 4325 1469 4325 
Q 1984 4325 2329 3994 
Q 2675 3663 2675 3213 
Q 2675 2891 2525 2569 
Q 2294 2063 1775 1497 
Q 997 647 803 472 
L 1909 472 
Q 2247 472 2383 497 
Q 2519 522 2628 598 
Q 2738 675 2819 816 
L 2934 816 
z
" transform="scale(0.015625)"/>
       </defs>
       <use xlink:href="#TimesNewRomanPSMT-32"/>
       <use xlink:href="#TimesNewRomanPSMT-30" x="50"/>
      </g>
     </g>
    </g>
    <g id="xtick_4">
     <g id="line2d_4">
      <g>
       <use xlink:href="#m4c701dd9c0" x="291.101968" y="298.385" style="stroke: #000000; stroke-width: 0.8"/>
      </g>
     </g>
     <g id="text_4">
      <!-- 30 -->
      <g transform="translate(281.101968 319.2725) scale(0.2 -0.2)">
       <defs>
        <path id="TimesNewRomanPSMT-33" d="M 325 3431 
Q 506 3859 782 4092 
Q 1059 4325 1472 4325 
Q 1981 4325 2253 3994 
Q 2459 3747 2459 3466 
Q 2459 3003 1878 2509 
Q 2269 2356 2469 2072 
Q 2669 1788 2669 1403 
Q 2669 853 2319 450 
Q 1863 -75 997 -75 
Q 569 -75 414 31 
Q 259 138 259 259 
Q 259 350 332 419 
Q 406 488 509 488 
Q 588 488 669 463 
Q 722 447 909 348 
Q 1097 250 1169 231 
Q 1284 197 1416 197 
Q 1734 197 1970 444 
Q 2206 691 2206 1028 
Q 2206 1275 2097 1509 
Q 2016 1684 1919 1775 
Q 1784 1900 1550 2001 
Q 1316 2103 1072 2103 
L 972 2103 
L 972 2197 
Q 1219 2228 1467 2375 
Q 1716 2522 1828 2728 
Q 1941 2934 1941 3181 
Q 1941 3503 1739 3701 
Q 1538 3900 1238 3900 
Q 753 3900 428 3381 
L 325 3431 
z
" transform="scale(0.015625)"/>
       </defs>
       <use xlink:href="#TimesNewRomanPSMT-33"/>
       <use xlink:href="#TimesNewRomanPSMT-30" x="50"/>
      </g>
     </g>
    </g>
    <g id="xtick_5">
     <g id="line2d_5">
      <g>
       <use xlink:href="#m4c701dd9c0" x="365.299896" y="298.385" style="stroke: #000000; stroke-width: 0.8"/>
      </g>
     </g>
     <g id="text_5">
      <!-- 40 -->
      <g transform="translate(355.299896 319.2725) scale(0.2 -0.2)">
       <defs>
        <path id="TimesNewRomanPSMT-34" d="M 2978 1563 
L 2978 1119 
L 2409 1119 
L 2409 0 
L 1894 0 
L 1894 1119 
L 100 1119 
L 100 1519 
L 2066 4325 
L 2409 4325 
L 2409 1563 
L 2978 1563 
z
M 1894 1563 
L 1894 3666 
L 406 1563 
L 1894 1563 
z
" transform="scale(0.015625)"/>
       </defs>
       <use xlink:href="#TimesNewRomanPSMT-34"/>
       <use xlink:href="#TimesNewRomanPSMT-30" x="50"/>
      </g>
     </g>
    </g>
    <g id="xtick_6">
     <g id="line2d_6">
      <g>
       <use xlink:href="#m4c701dd9c0" x="439.497825" y="298.385" style="stroke: #000000; stroke-width: 0.8"/>
      </g>
     </g>
     <g id="text_6">
      <!-- 50 -->
      <g transform="translate(429.497825 319.2725) scale(0.2 -0.2)">
       <defs>
        <path id="TimesNewRomanPSMT-35" d="M 2778 4238 
L 2534 3706 
L 1259 3706 
L 981 3138 
Q 1809 3016 2294 2522 
Q 2709 2097 2709 1522 
Q 2709 1188 2573 903 
Q 2438 619 2231 419 
Q 2025 219 1772 97 
Q 1413 -75 1034 -75 
Q 653 -75 479 54 
Q 306 184 306 341 
Q 306 428 378 495 
Q 450 563 559 563 
Q 641 563 702 538 
Q 763 513 909 409 
Q 1144 247 1384 247 
Q 1750 247 2026 523 
Q 2303 800 2303 1197 
Q 2303 1581 2056 1914 
Q 1809 2247 1375 2428 
Q 1034 2569 447 2591 
L 1259 4238 
L 2778 4238 
z
" transform="scale(0.015625)"/>
       </defs>
       <use xlink:href="#TimesNewRomanPSMT-35"/>
       <use xlink:href="#TimesNewRomanPSMT-30" x="50"/>
      </g>
     </g>
    </g>
    <g id="xtick_7">
     <g id="line2d_7">
      <g>
       <use xlink:href="#m4c701dd9c0" x="513.695754" y="298.385" style="stroke: #000000; stroke-width: 0.8"/>
      </g>
     </g>
     <g id="text_7">
      <!-- 60 -->
      <g transform="translate(503.695754 319.2725) scale(0.2 -0.2)">
       <defs>
        <path id="TimesNewRomanPSMT-36" d="M 2869 4325 
L 2869 4209 
Q 2456 4169 2195 4045 
Q 1934 3922 1679 3669 
Q 1425 3416 1258 3105 
Q 1091 2794 978 2366 
Q 1428 2675 1881 2675 
Q 2316 2675 2634 2325 
Q 2953 1975 2953 1425 
Q 2953 894 2631 456 
Q 2244 -75 1606 -75 
Q 1172 -75 869 213 
Q 275 772 275 1663 
Q 275 2231 503 2743 
Q 731 3256 1154 3653 
Q 1578 4050 1965 4187 
Q 2353 4325 2688 4325 
L 2869 4325 
z
M 925 2138 
Q 869 1716 869 1456 
Q 869 1156 980 804 
Q 1091 453 1309 247 
Q 1469 100 1697 100 
Q 1969 100 2183 356 
Q 2397 613 2397 1088 
Q 2397 1622 2184 2012 
Q 1972 2403 1581 2403 
Q 1463 2403 1327 2353 
Q 1191 2303 925 2138 
z
" transform="scale(0.015625)"/>
       </defs>
       <use xlink:href="#TimesNewRomanPSMT-36"/>
       <use xlink:href="#TimesNewRomanPSMT-30" x="50"/>
      </g>
     </g>
    </g>
    <g id="xtick_8">
     <g id="line2d_8">
      <g>
       <use xlink:href="#m4c701dd9c0" x="587.893682" y="298.385" style="stroke: #000000; stroke-width: 0.8"/>
      </g>
     </g>
     <g id="text_8">
      <!-- 70 -->
      <g transform="translate(577.893682 319.2725) scale(0.2 -0.2)">
       <defs>
        <path id="TimesNewRomanPSMT-37" d="M 644 4238 
L 2916 4238 
L 2916 4119 
L 1503 -88 
L 1153 -88 
L 2419 3728 
L 1253 3728 
Q 900 3728 750 3644 
Q 488 3500 328 3200 
L 238 3234 
L 644 4238 
z
" transform="scale(0.015625)"/>
       </defs>
       <use xlink:href="#TimesNewRomanPSMT-37"/>
       <use xlink:href="#TimesNewRomanPSMT-30" x="50"/>
      </g>
     </g>
    </g>
    <g id="xtick_9">
     <g id="line2d_9">
      <g>
       <use xlink:href="#m4c701dd9c0" x="662.091611" y="298.385" style="stroke: #000000; stroke-width: 0.8"/>
      </g>
     </g>
     <g id="text_9">
      <!-- 80 -->
      <g transform="translate(652.091611 319.2725) scale(0.2 -0.2)">
       <defs>
        <path id="TimesNewRomanPSMT-38" d="M 1228 2134 
Q 725 2547 579 2797 
Q 434 3047 434 3316 
Q 434 3728 753 4026 
Q 1072 4325 1600 4325 
Q 2113 4325 2425 4047 
Q 2738 3769 2738 3413 
Q 2738 3175 2569 2928 
Q 2400 2681 1866 2347 
Q 2416 1922 2594 1678 
Q 2831 1359 2831 1006 
Q 2831 559 2490 242 
Q 2150 -75 1597 -75 
Q 994 -75 656 303 
Q 388 606 388 966 
Q 388 1247 577 1523 
Q 766 1800 1228 2134 
z
M 1719 2469 
Q 2094 2806 2194 3001 
Q 2294 3197 2294 3444 
Q 2294 3772 2109 3958 
Q 1925 4144 1606 4144 
Q 1288 4144 1088 3959 
Q 888 3775 888 3528 
Q 888 3366 970 3203 
Q 1053 3041 1206 2894 
L 1719 2469 
z
M 1375 2016 
Q 1116 1797 991 1539 
Q 866 1281 866 981 
Q 866 578 1086 336 
Q 1306 94 1647 94 
Q 1984 94 2187 284 
Q 2391 475 2391 747 
Q 2391 972 2272 1150 
Q 2050 1481 1375 2016 
z
" transform="scale(0.015625)"/>
       </defs>
       <use xlink:href="#TimesNewRomanPSMT-38"/>
       <use xlink:href="#TimesNewRomanPSMT-30" x="50"/>
      </g>
     </g>
    </g>
   </g>
   <g id="matplotlib.axis_2">
    <g id="ytick_1">
     <g id="line2d_10">
      <defs>
       <path id="ma5dae5bca9" d="M 0 0 
L -3.5 0 
" style="stroke: #000000; stroke-width: 0.8"/>
      </defs>
      <g>
       <use xlink:href="#ma5dae5bca9" x="39.2" y="296.45979" style="stroke: #000000; stroke-width: 0.8"/>
      </g>
     </g>
     <g id="text_10">
      <!-- 0.2 -->
      <g transform="translate(7.2 303.40354) scale(0.2 -0.2)">
       <defs>
        <path id="TimesNewRomanPSMT-2e" d="M 800 606 
Q 947 606 1047 504 
Q 1147 403 1147 259 
Q 1147 116 1045 14 
Q 944 -88 800 -88 
Q 656 -88 554 14 
Q 453 116 453 259 
Q 453 406 554 506 
Q 656 606 800 606 
z
" transform="scale(0.015625)"/>
       </defs>
       <use xlink:href="#TimesNewRomanPSMT-30"/>
       <use xlink:href="#TimesNewRomanPSMT-2e" x="50"/>
       <use xlink:href="#TimesNewRomanPSMT-32" x="75"/>
      </g>
     </g>
    </g>
    <g id="ytick_2">
     <g id="line2d_11">
      <g>
       <use xlink:href="#ma5dae5bca9" x="39.2" y="228.384293" style="stroke: #000000; stroke-width: 0.8"/>
      </g>
     </g>
     <g id="text_11">
      <!-- 0.3 -->
      <g transform="translate(7.2 235.328043) scale(0.2 -0.2)">
       <use xlink:href="#TimesNewRomanPSMT-30"/>
       <use xlink:href="#TimesNewRomanPSMT-2e" x="50"/>
       <use xlink:href="#TimesNewRomanPSMT-33" x="75"/>
      </g>
     </g>
    </g>
    <g id="ytick_3">
     <g id="line2d_12">
      <g>
       <use xlink:href="#ma5dae5bca9" x="39.2" y="160.308796" style="stroke: #000000; stroke-width: 0.8"/>
      </g>
     </g>
     <g id="text_12">
      <!-- 0.4 -->
      <g transform="translate(7.2 167.252546) scale(0.2 -0.2)">
       <use xlink:href="#TimesNewRomanPSMT-30"/>
       <use xlink:href="#TimesNewRomanPSMT-2e" x="50"/>
       <use xlink:href="#TimesNewRomanPSMT-34" x="75"/>
      </g>
     </g>
    </g>
    <g id="ytick_4">
     <g id="line2d_13">
      <g>
       <use xlink:href="#ma5dae5bca9" x="39.2" y="92.233298" style="stroke: #000000; stroke-width: 0.8"/>
      </g>
     </g>
     <g id="text_13">
      <!-- 0.5 -->
      <g transform="translate(7.2 99.177048) scale(0.2 -0.2)">
       <use xlink:href="#TimesNewRomanPSMT-30"/>
       <use xlink:href="#TimesNewRomanPSMT-2e" x="50"/>
       <use xlink:href="#TimesNewRomanPSMT-35" x="75"/>
      </g>
     </g>
    </g>
   </g>
   <g id="line2d_14">
    <path d="M 68.508182 129.410603 
L 75.927975 164.470963 
L 83.347768 177.027912 
L 90.76756 185.108133 
L 98.187353 194.276121 
L 105.607146 194.656758 
L 113.026939 197.565879 
L 120.446732 202.717452 
L 127.866525 206.996238 
L 135.286318 210.722776 
L 142.70611 213.259055 
L 150.125903 216.269586 
L 157.545696 214.985268 
L 164.965489 221.120624 
L 172.385282 219.863101 
L 179.805075 224.116354 
L 187.224868 225.642099 
L 194.644661 228.212843 
L 202.064453 232.509594 
L 209.484246 232.442099 
L 216.904039 233.612233 
L 224.323832 237.125222 
L 231.743625 239.130763 
L 239.163418 239.529911 
L 246.583211 239.851254 
L 254.003003 243.978816 
L 261.422796 243.829757 
L 268.842589 245.383189 
L 276.262382 247.46682 
L 283.682175 249.98874 
L 291.101968 250.325397 
L 298.521761 251.715709 
L 305.941554 252.869766 
L 313.361346 254.489919 
L 320.781139 255.405489 
L 328.200932 256.268633 
L 335.620725 258.181149 
L 343.040518 258.526096 
L 350.460311 260.244621 
L 357.880104 262.132118 
L 365.299896 263.18588 
L 372.719689 264.421425 
L 380.139482 264.861179 
L 387.559275 266.56261 
L 394.979068 267.214224 
L 402.398861 268.987215 
L 409.818654 269.50113 
L 417.238446 270.165352 
L 424.658239 270.805586 
L 432.078032 272.308699 
L 439.497825 272.924515 
L 446.917618 274.078115 
L 454.337411 275.079338 
L 461.757204 275.722823 
L 469.176997 276.73843 
L 476.596789 277.414318 
L 484.016582 277.349402 
L 491.436375 278.88865 
L 498.856168 279.19949 
L 506.275961 279.820265 
L 513.695754 280.87577 
L 521.115547 281.405161 
L 528.535339 281.514999 
L 535.955132 282.096418 
L 543.374925 282.903179 
L 550.794718 283.26676 
L 558.214511 283.571331 
L 565.634304 283.793125 
L 573.054097 284.324208 
L 580.47389 285.065326 
L 587.893682 284.665902 
L 595.313475 285.32877 
L 602.733268 285.55665 
L 610.153061 285.739127 
L 617.572854 285.742348 
L 624.992647 285.71783 
L 632.41244 285.496657 
L 639.832232 286.088152 
L 647.252025 286.179545 
L 654.671818 285.884606 
" clip-path="url(#p4f474a6a7a)" style="fill: none; stroke: #1f77b4; stroke-width: 1.5; stroke-linecap: square"/>
    <defs>
     <path id="m0e5d777d76" d="M 0 3 
C 0.795609 3 1.55874 2.683901 2.12132 2.12132 
C 2.683901 1.55874 3 0.795609 3 0 
C 3 -0.795609 2.683901 -1.55874 2.12132 -2.12132 
C 1.55874 -2.683901 0.795609 -3 0 -3 
C -0.795609 -3 -1.55874 -2.683901 -2.12132 -2.12132 
C -2.683901 -1.55874 -3 -0.795609 -3 0 
C -3 0.795609 -2.683901 1.55874 -2.12132 2.12132 
C -1.55874 2.683901 -0.795609 3 0 3 
z
" style="stroke: #1f77b4"/>
    </defs>
    <g clip-path="url(#p4f474a6a7a)">
     <use xlink:href="#m0e5d777d76" x="68.508182" y="129.410603" style="fill: #1f77b4; stroke: #1f77b4"/>
     <use xlink:href="#m0e5d777d76" x="75.927975" y="164.470963" style="fill: #1f77b4; stroke: #1f77b4"/>
     <use xlink:href="#m0e5d777d76" x="83.347768" y="177.027912" style="fill: #1f77b4; stroke: #1f77b4"/>
     <use xlink:href="#m0e5d777d76" x="90.76756" y="185.108133" style="fill: #1f77b4; stroke: #1f77b4"/>
     <use xlink:href="#m0e5d777d76" x="98.187353" y="194.276121" style="fill: #1f77b4; stroke: #1f77b4"/>
     <use xlink:href="#m0e5d777d76" x="105.607146" y="194.656758" style="fill: #1f77b4; stroke: #1f77b4"/>
     <use xlink:href="#m0e5d777d76" x="113.026939" y="197.565879" style="fill: #1f77b4; stroke: #1f77b4"/>
     <use xlink:href="#m0e5d777d76" x="120.446732" y="202.717452" style="fill: #1f77b4; stroke: #1f77b4"/>
     <use xlink:href="#m0e5d777d76" x="127.866525" y="206.996238" style="fill: #1f77b4; stroke: #1f77b4"/>
     <use xlink:href="#m0e5d777d76" x="135.286318" y="210.722776" style="fill: #1f77b4; stroke: #1f77b4"/>
     <use xlink:href="#m0e5d777d76" x="142.70611" y="213.259055" style="fill: #1f77b4; stroke: #1f77b4"/>
     <use xlink:href="#m0e5d777d76" x="150.125903" y="216.269586" style="fill: #1f77b4; stroke: #1f77b4"/>
     <use xlink:href="#m0e5d777d76" x="157.545696" y="214.985268" style="fill: #1f77b4; stroke: #1f77b4"/>
     <use xlink:href="#m0e5d777d76" x="164.965489" y="221.120624" style="fill: #1f77b4; stroke: #1f77b4"/>
     <use xlink:href="#m0e5d777d76" x="172.385282" y="219.863101" style="fill: #1f77b4; stroke: #1f77b4"/>
     <use xlink:href="#m0e5d777d76" x="179.805075" y="224.116354" style="fill: #1f77b4; stroke: #1f77b4"/>
     <use xlink:href="#m0e5d777d76" x="187.224868" y="225.642099" style="fill: #1f77b4; stroke: #1f77b4"/>
     <use xlink:href="#m0e5d777d76" x="194.644661" y="228.212843" style="fill: #1f77b4; stroke: #1f77b4"/>
     <use xlink:href="#m0e5d777d76" x="202.064453" y="232.509594" style="fill: #1f77b4; stroke: #1f77b4"/>
     <use xlink:href="#m0e5d777d76" x="209.484246" y="232.442099" style="fill: #1f77b4; stroke: #1f77b4"/>
     <use xlink:href="#m0e5d777d76" x="216.904039" y="233.612233" style="fill: #1f77b4; stroke: #1f77b4"/>
     <use xlink:href="#m0e5d777d76" x="224.323832" y="237.125222" style="fill: #1f77b4; stroke: #1f77b4"/>
     <use xlink:href="#m0e5d777d76" x="231.743625" y="239.130763" style="fill: #1f77b4; stroke: #1f77b4"/>
     <use xlink:href="#m0e5d777d76" x="239.163418" y="239.529911" style="fill: #1f77b4; stroke: #1f77b4"/>
     <use xlink:href="#m0e5d777d76" x="246.583211" y="239.851254" style="fill: #1f77b4; stroke: #1f77b4"/>
     <use xlink:href="#m0e5d777d76" x="254.003003" y="243.978816" style="fill: #1f77b4; stroke: #1f77b4"/>
     <use xlink:href="#m0e5d777d76" x="261.422796" y="243.829757" style="fill: #1f77b4; stroke: #1f77b4"/>
     <use xlink:href="#m0e5d777d76" x="268.842589" y="245.383189" style="fill: #1f77b4; stroke: #1f77b4"/>
     <use xlink:href="#m0e5d777d76" x="276.262382" y="247.46682" style="fill: #1f77b4; stroke: #1f77b4"/>
     <use xlink:href="#m0e5d777d76" x="283.682175" y="249.98874" style="fill: #1f77b4; stroke: #1f77b4"/>
     <use xlink:href="#m0e5d777d76" x="291.101968" y="250.325397" style="fill: #1f77b4; stroke: #1f77b4"/>
     <use xlink:href="#m0e5d777d76" x="298.521761" y="251.715709" style="fill: #1f77b4; stroke: #1f77b4"/>
     <use xlink:href="#m0e5d777d76" x="305.941554" y="252.869766" style="fill: #1f77b4; stroke: #1f77b4"/>
     <use xlink:href="#m0e5d777d76" x="313.361346" y="254.489919" style="fill: #1f77b4; stroke: #1f77b4"/>
     <use xlink:href="#m0e5d777d76" x="320.781139" y="255.405489" style="fill: #1f77b4; stroke: #1f77b4"/>
     <use xlink:href="#m0e5d777d76" x="328.200932" y="256.268633" style="fill: #1f77b4; stroke: #1f77b4"/>
     <use xlink:href="#m0e5d777d76" x="335.620725" y="258.181149" style="fill: #1f77b4; stroke: #1f77b4"/>
     <use xlink:href="#m0e5d777d76" x="343.040518" y="258.526096" style="fill: #1f77b4; stroke: #1f77b4"/>
     <use xlink:href="#m0e5d777d76" x="350.460311" y="260.244621" style="fill: #1f77b4; stroke: #1f77b4"/>
     <use xlink:href="#m0e5d777d76" x="357.880104" y="262.132118" style="fill: #1f77b4; stroke: #1f77b4"/>
     <use xlink:href="#m0e5d777d76" x="365.299896" y="263.18588" style="fill: #1f77b4; stroke: #1f77b4"/>
     <use xlink:href="#m0e5d777d76" x="372.719689" y="264.421425" style="fill: #1f77b4; stroke: #1f77b4"/>
     <use xlink:href="#m0e5d777d76" x="380.139482" y="264.861179" style="fill: #1f77b4; stroke: #1f77b4"/>
     <use xlink:href="#m0e5d777d76" x="387.559275" y="266.56261" style="fill: #1f77b4; stroke: #1f77b4"/>
     <use xlink:href="#m0e5d777d76" x="394.979068" y="267.214224" style="fill: #1f77b4; stroke: #1f77b4"/>
     <use xlink:href="#m0e5d777d76" x="402.398861" y="268.987215" style="fill: #1f77b4; stroke: #1f77b4"/>
     <use xlink:href="#m0e5d777d76" x="409.818654" y="269.50113" style="fill: #1f77b4; stroke: #1f77b4"/>
     <use xlink:href="#m0e5d777d76" x="417.238446" y="270.165352" style="fill: #1f77b4; stroke: #1f77b4"/>
     <use xlink:href="#m0e5d777d76" x="424.658239" y="270.805586" style="fill: #1f77b4; stroke: #1f77b4"/>
     <use xlink:href="#m0e5d777d76" x="432.078032" y="272.308699" style="fill: #1f77b4; stroke: #1f77b4"/>
     <use xlink:href="#m0e5d777d76" x="439.497825" y="272.924515" style="fill: #1f77b4; stroke: #1f77b4"/>
     <use xlink:href="#m0e5d777d76" x="446.917618" y="274.078115" style="fill: #1f77b4; stroke: #1f77b4"/>
     <use xlink:href="#m0e5d777d76" x="454.337411" y="275.079338" style="fill: #1f77b4; stroke: #1f77b4"/>
     <use xlink:href="#m0e5d777d76" x="461.757204" y="275.722823" style="fill: #1f77b4; stroke: #1f77b4"/>
     <use xlink:href="#m0e5d777d76" x="469.176997" y="276.73843" style="fill: #1f77b4; stroke: #1f77b4"/>
     <use xlink:href="#m0e5d777d76" x="476.596789" y="277.414318" style="fill: #1f77b4; stroke: #1f77b4"/>
     <use xlink:href="#m0e5d777d76" x="484.016582" y="277.349402" style="fill: #1f77b4; stroke: #1f77b4"/>
     <use xlink:href="#m0e5d777d76" x="491.436375" y="278.88865" style="fill: #1f77b4; stroke: #1f77b4"/>
     <use xlink:href="#m0e5d777d76" x="498.856168" y="279.19949" style="fill: #1f77b4; stroke: #1f77b4"/>
     <use xlink:href="#m0e5d777d76" x="506.275961" y="279.820265" style="fill: #1f77b4; stroke: #1f77b4"/>
     <use xlink:href="#m0e5d777d76" x="513.695754" y="280.87577" style="fill: #1f77b4; stroke: #1f77b4"/>
     <use xlink:href="#m0e5d777d76" x="521.115547" y="281.405161" style="fill: #1f77b4; stroke: #1f77b4"/>
     <use xlink:href="#m0e5d777d76" x="528.535339" y="281.514999" style="fill: #1f77b4; stroke: #1f77b4"/>
     <use xlink:href="#m0e5d777d76" x="535.955132" y="282.096418" style="fill: #1f77b4; stroke: #1f77b4"/>
     <use xlink:href="#m0e5d777d76" x="543.374925" y="282.903179" style="fill: #1f77b4; stroke: #1f77b4"/>
     <use xlink:href="#m0e5d777d76" x="550.794718" y="283.26676" style="fill: #1f77b4; stroke: #1f77b4"/>
     <use xlink:href="#m0e5d777d76" x="558.214511" y="283.571331" style="fill: #1f77b4; stroke: #1f77b4"/>
     <use xlink:href="#m0e5d777d76" x="565.634304" y="283.793125" style="fill: #1f77b4; stroke: #1f77b4"/>
     <use xlink:href="#m0e5d777d76" x="573.054097" y="284.324208" style="fill: #1f77b4; stroke: #1f77b4"/>
     <use xlink:href="#m0e5d777d76" x="580.47389" y="285.065326" style="fill: #1f77b4; stroke: #1f77b4"/>
     <use xlink:href="#m0e5d777d76" x="587.893682" y="284.665902" style="fill: #1f77b4; stroke: #1f77b4"/>
     <use xlink:href="#m0e5d777d76" x="595.313475" y="285.32877" style="fill: #1f77b4; stroke: #1f77b4"/>
     <use xlink:href="#m0e5d777d76" x="602.733268" y="285.55665" style="fill: #1f77b4; stroke: #1f77b4"/>
     <use xlink:href="#m0e5d777d76" x="610.153061" y="285.739127" style="fill: #1f77b4; stroke: #1f77b4"/>
     <use xlink:href="#m0e5d777d76" x="617.572854" y="285.742348" style="fill: #1f77b4; stroke: #1f77b4"/>
     <use xlink:href="#m0e5d777d76" x="624.992647" y="285.71783" style="fill: #1f77b4; stroke: #1f77b4"/>
     <use xlink:href="#m0e5d777d76" x="632.41244" y="285.496657" style="fill: #1f77b4; stroke: #1f77b4"/>
     <use xlink:href="#m0e5d777d76" x="639.832232" y="286.088152" style="fill: #1f77b4; stroke: #1f77b4"/>
     <use xlink:href="#m0e5d777d76" x="647.252025" y="286.179545" style="fill: #1f77b4; stroke: #1f77b4"/>
     <use xlink:href="#m0e5d777d76" x="654.671818" y="285.884606" style="fill: #1f77b4; stroke: #1f77b4"/>
    </g>
   </g>
   <g id="line2d_15">
    <path d="M 68.508182 42.070455 
L 75.927975 131.584341 
L 83.347768 136.535383 
L 90.76756 125.384162 
L 98.187353 142.444286 
L 105.607146 139.036883 
L 113.026939 151.719833 
L 120.446732 161.893899 
L 127.866525 165.242345 
L 135.286318 167.271072 
L 142.70611 176.8805 
L 150.125903 181.695754 
L 157.545696 180.09466 
L 164.965489 174.649116 
L 172.385282 189.955782 
L 179.805075 177.632924 
L 187.224868 195.789761 
L 194.644661 190.814576 
L 202.064453 201.888885 
L 209.484246 196.501406 
L 216.904039 192.967182 
L 224.323832 209.706653 
L 231.743625 211.973724 
L 239.163418 215.899102 
L 246.583211 213.796243 
L 254.003003 216.842437 
L 261.422796 219.550287 
L 268.842589 221.61326 
L 276.262382 226.970327 
L 283.682175 222.851462 
L 291.101968 225.168442 
L 298.521761 226.55079 
L 305.941554 233.906477 
L 313.361346 226.325045 
L 320.781139 235.452226 
L 328.200932 233.615992 
L 335.620725 234.048696 
L 343.040518 239.859222 
L 350.460311 241.776344 
L 357.880104 245.752199 
L 365.299896 242.924285 
L 372.719689 245.884133 
L 380.139482 248.589913 
L 387.559275 250.548058 
L 394.979068 251.230184 
L 402.398861 253.654812 
L 409.818654 253.318517 
L 417.238446 256.837241 
L 424.658239 251.847915 
L 432.078032 259.138375 
L 439.497825 253.863313 
L 446.917618 259.034683 
L 454.337411 263.534579 
L 461.757204 264.663195 
L 469.176997 261.447889 
L 476.596789 266.853506 
L 484.016582 266.456306 
L 491.436375 268.431421 
L 498.856168 268.524067 
L 506.275961 270.460777 
L 513.695754 269.321267 
L 521.115547 272.000318 
L 528.535339 270.305807 
L 535.955132 274.089158 
L 543.374925 274.872866 
L 550.794718 275.643083 
L 558.214511 275.719214 
L 565.634304 276.915785 
L 573.054097 276.761768 
L 580.47389 276.331579 
L 587.893682 277.182654 
L 595.313475 277.526598 
L 602.733268 277.48945 
L 610.153061 277.963288 
L 617.572854 278.10848 
L 624.992647 278.517072 
L 632.41244 278.51412 
L 639.832232 278.596449 
L 647.252025 278.621048 
L 654.671818 278.628656 
" clip-path="url(#p4f474a6a7a)" style="fill: none; stroke: #ff7f0e; stroke-width: 1.5; stroke-linecap: square"/>
    <defs>
     <path id="m40295fb9df" d="M 0 3 
C 0.795609 3 1.55874 2.683901 2.12132 2.12132 
C 2.683901 1.55874 3 0.795609 3 0 
C 3 -0.795609 2.683901 -1.55874 2.12132 -2.12132 
C 1.55874 -2.683901 0.795609 -3 0 -3 
C -0.795609 -3 -1.55874 -2.683901 -2.12132 -2.12132 
C -2.683901 -1.55874 -3 -0.795609 -3 0 
C -3 0.795609 -2.683901 1.55874 -2.12132 2.12132 
C -1.55874 2.683901 -0.795609 3 0 3 
z
" style="stroke: #ff7f0e"/>
    </defs>
    <g clip-path="url(#p4f474a6a7a)">
     <use xlink:href="#m40295fb9df" x="68.508182" y="42.070455" style="fill: #ff7f0e; stroke: #ff7f0e"/>
     <use xlink:href="#m40295fb9df" x="75.927975" y="131.584341" style="fill: #ff7f0e; stroke: #ff7f0e"/>
     <use xlink:href="#m40295fb9df" x="83.347768" y="136.535383" style="fill: #ff7f0e; stroke: #ff7f0e"/>
     <use xlink:href="#m40295fb9df" x="90.76756" y="125.384162" style="fill: #ff7f0e; stroke: #ff7f0e"/>
     <use xlink:href="#m40295fb9df" x="98.187353" y="142.444286" style="fill: #ff7f0e; stroke: #ff7f0e"/>
     <use xlink:href="#m40295fb9df" x="105.607146" y="139.036883" style="fill: #ff7f0e; stroke: #ff7f0e"/>
     <use xlink:href="#m40295fb9df" x="113.026939" y="151.719833" style="fill: #ff7f0e; stroke: #ff7f0e"/>
     <use xlink:href="#m40295fb9df" x="120.446732" y="161.893899" style="fill: #ff7f0e; stroke: #ff7f0e"/>
     <use xlink:href="#m40295fb9df" x="127.866525" y="165.242345" style="fill: #ff7f0e; stroke: #ff7f0e"/>
     <use xlink:href="#m40295fb9df" x="135.286318" y="167.271072" style="fill: #ff7f0e; stroke: #ff7f0e"/>
     <use xlink:href="#m40295fb9df" x="142.70611" y="176.8805" style="fill: #ff7f0e; stroke: #ff7f0e"/>
     <use xlink:href="#m40295fb9df" x="150.125903" y="181.695754" style="fill: #ff7f0e; stroke: #ff7f0e"/>
     <use xlink:href="#m40295fb9df" x="157.545696" y="180.09466" style="fill: #ff7f0e; stroke: #ff7f0e"/>
     <use xlink:href="#m40295fb9df" x="164.965489" y="174.649116" style="fill: #ff7f0e; stroke: #ff7f0e"/>
     <use xlink:href="#m40295fb9df" x="172.385282" y="189.955782" style="fill: #ff7f0e; stroke: #ff7f0e"/>
     <use xlink:href="#m40295fb9df" x="179.805075" y="177.632924" style="fill: #ff7f0e; stroke: #ff7f0e"/>
     <use xlink:href="#m40295fb9df" x="187.224868" y="195.789761" style="fill: #ff7f0e; stroke: #ff7f0e"/>
     <use xlink:href="#m40295fb9df" x="194.644661" y="190.814576" style="fill: #ff7f0e; stroke: #ff7f0e"/>
     <use xlink:href="#m40295fb9df" x="202.064453" y="201.888885" style="fill: #ff7f0e; stroke: #ff7f0e"/>
     <use xlink:href="#m40295fb9df" x="209.484246" y="196.501406" style="fill: #ff7f0e; stroke: #ff7f0e"/>
     <use xlink:href="#m40295fb9df" x="216.904039" y="192.967182" style="fill: #ff7f0e; stroke: #ff7f0e"/>
     <use xlink:href="#m40295fb9df" x="224.323832" y="209.706653" style="fill: #ff7f0e; stroke: #ff7f0e"/>
     <use xlink:href="#m40295fb9df" x="231.743625" y="211.973724" style="fill: #ff7f0e; stroke: #ff7f0e"/>
     <use xlink:href="#m40295fb9df" x="239.163418" y="215.899102" style="fill: #ff7f0e; stroke: #ff7f0e"/>
     <use xlink:href="#m40295fb9df" x="246.583211" y="213.796243" style="fill: #ff7f0e; stroke: #ff7f0e"/>
     <use xlink:href="#m40295fb9df" x="254.003003" y="216.842437" style="fill: #ff7f0e; stroke: #ff7f0e"/>
     <use xlink:href="#m40295fb9df" x="261.422796" y="219.550287" style="fill: #ff7f0e; stroke: #ff7f0e"/>
     <use xlink:href="#m40295fb9df" x="268.842589" y="221.61326" style="fill: #ff7f0e; stroke: #ff7f0e"/>
     <use xlink:href="#m40295fb9df" x="276.262382" y="226.970327" style="fill: #ff7f0e; stroke: #ff7f0e"/>
     <use xlink:href="#m40295fb9df" x="283.682175" y="222.851462" style="fill: #ff7f0e; stroke: #ff7f0e"/>
     <use xlink:href="#m40295fb9df" x="291.101968" y="225.168442" style="fill: #ff7f0e; stroke: #ff7f0e"/>
     <use xlink:href="#m40295fb9df" x="298.521761" y="226.55079" style="fill: #ff7f0e; stroke: #ff7f0e"/>
     <use xlink:href="#m40295fb9df" x="305.941554" y="233.906477" style="fill: #ff7f0e; stroke: #ff7f0e"/>
     <use xlink:href="#m40295fb9df" x="313.361346" y="226.325045" style="fill: #ff7f0e; stroke: #ff7f0e"/>
     <use xlink:href="#m40295fb9df" x="320.781139" y="235.452226" style="fill: #ff7f0e; stroke: #ff7f0e"/>
     <use xlink:href="#m40295fb9df" x="328.200932" y="233.615992" style="fill: #ff7f0e; stroke: #ff7f0e"/>
     <use xlink:href="#m40295fb9df" x="335.620725" y="234.048696" style="fill: #ff7f0e; stroke: #ff7f0e"/>
     <use xlink:href="#m40295fb9df" x="343.040518" y="239.859222" style="fill: #ff7f0e; stroke: #ff7f0e"/>
     <use xlink:href="#m40295fb9df" x="350.460311" y="241.776344" style="fill: #ff7f0e; stroke: #ff7f0e"/>
     <use xlink:href="#m40295fb9df" x="357.880104" y="245.752199" style="fill: #ff7f0e; stroke: #ff7f0e"/>
     <use xlink:href="#m40295fb9df" x="365.299896" y="242.924285" style="fill: #ff7f0e; stroke: #ff7f0e"/>
     <use xlink:href="#m40295fb9df" x="372.719689" y="245.884133" style="fill: #ff7f0e; stroke: #ff7f0e"/>
     <use xlink:href="#m40295fb9df" x="380.139482" y="248.589913" style="fill: #ff7f0e; stroke: #ff7f0e"/>
     <use xlink:href="#m40295fb9df" x="387.559275" y="250.548058" style="fill: #ff7f0e; stroke: #ff7f0e"/>
     <use xlink:href="#m40295fb9df" x="394.979068" y="251.230184" style="fill: #ff7f0e; stroke: #ff7f0e"/>
     <use xlink:href="#m40295fb9df" x="402.398861" y="253.654812" style="fill: #ff7f0e; stroke: #ff7f0e"/>
     <use xlink:href="#m40295fb9df" x="409.818654" y="253.318517" style="fill: #ff7f0e; stroke: #ff7f0e"/>
     <use xlink:href="#m40295fb9df" x="417.238446" y="256.837241" style="fill: #ff7f0e; stroke: #ff7f0e"/>
     <use xlink:href="#m40295fb9df" x="424.658239" y="251.847915" style="fill: #ff7f0e; stroke: #ff7f0e"/>
     <use xlink:href="#m40295fb9df" x="432.078032" y="259.138375" style="fill: #ff7f0e; stroke: #ff7f0e"/>
     <use xlink:href="#m40295fb9df" x="439.497825" y="253.863313" style="fill: #ff7f0e; stroke: #ff7f0e"/>
     <use xlink:href="#m40295fb9df" x="446.917618" y="259.034683" style="fill: #ff7f0e; stroke: #ff7f0e"/>
     <use xlink:href="#m40295fb9df" x="454.337411" y="263.534579" style="fill: #ff7f0e; stroke: #ff7f0e"/>
     <use xlink:href="#m40295fb9df" x="461.757204" y="264.663195" style="fill: #ff7f0e; stroke: #ff7f0e"/>
     <use xlink:href="#m40295fb9df" x="469.176997" y="261.447889" style="fill: #ff7f0e; stroke: #ff7f0e"/>
     <use xlink:href="#m40295fb9df" x="476.596789" y="266.853506" style="fill: #ff7f0e; stroke: #ff7f0e"/>
     <use xlink:href="#m40295fb9df" x="484.016582" y="266.456306" style="fill: #ff7f0e; stroke: #ff7f0e"/>
     <use xlink:href="#m40295fb9df" x="491.436375" y="268.431421" style="fill: #ff7f0e; stroke: #ff7f0e"/>
     <use xlink:href="#m40295fb9df" x="498.856168" y="268.524067" style="fill: #ff7f0e; stroke: #ff7f0e"/>
     <use xlink:href="#m40295fb9df" x="506.275961" y="270.460777" style="fill: #ff7f0e; stroke: #ff7f0e"/>
     <use xlink:href="#m40295fb9df" x="513.695754" y="269.321267" style="fill: #ff7f0e; stroke: #ff7f0e"/>
     <use xlink:href="#m40295fb9df" x="521.115547" y="272.000318" style="fill: #ff7f0e; stroke: #ff7f0e"/>
     <use xlink:href="#m40295fb9df" x="528.535339" y="270.305807" style="fill: #ff7f0e; stroke: #ff7f0e"/>
     <use xlink:href="#m40295fb9df" x="535.955132" y="274.089158" style="fill: #ff7f0e; stroke: #ff7f0e"/>
     <use xlink:href="#m40295fb9df" x="543.374925" y="274.872866" style="fill: #ff7f0e; stroke: #ff7f0e"/>
     <use xlink:href="#m40295fb9df" x="550.794718" y="275.643083" style="fill: #ff7f0e; stroke: #ff7f0e"/>
     <use xlink:href="#m40295fb9df" x="558.214511" y="275.719214" style="fill: #ff7f0e; stroke: #ff7f0e"/>
     <use xlink:href="#m40295fb9df" x="565.634304" y="276.915785" style="fill: #ff7f0e; stroke: #ff7f0e"/>
     <use xlink:href="#m40295fb9df" x="573.054097" y="276.761768" style="fill: #ff7f0e; stroke: #ff7f0e"/>
     <use xlink:href="#m40295fb9df" x="580.47389" y="276.331579" style="fill: #ff7f0e; stroke: #ff7f0e"/>
     <use xlink:href="#m40295fb9df" x="587.893682" y="277.182654" style="fill: #ff7f0e; stroke: #ff7f0e"/>
     <use xlink:href="#m40295fb9df" x="595.313475" y="277.526598" style="fill: #ff7f0e; stroke: #ff7f0e"/>
     <use xlink:href="#m40295fb9df" x="602.733268" y="277.48945" style="fill: #ff7f0e; stroke: #ff7f0e"/>
     <use xlink:href="#m40295fb9df" x="610.153061" y="277.963288" style="fill: #ff7f0e; stroke: #ff7f0e"/>
     <use xlink:href="#m40295fb9df" x="617.572854" y="278.10848" style="fill: #ff7f0e; stroke: #ff7f0e"/>
     <use xlink:href="#m40295fb9df" x="624.992647" y="278.517072" style="fill: #ff7f0e; stroke: #ff7f0e"/>
     <use xlink:href="#m40295fb9df" x="632.41244" y="278.51412" style="fill: #ff7f0e; stroke: #ff7f0e"/>
     <use xlink:href="#m40295fb9df" x="639.832232" y="278.596449" style="fill: #ff7f0e; stroke: #ff7f0e"/>
     <use xlink:href="#m40295fb9df" x="647.252025" y="278.621048" style="fill: #ff7f0e; stroke: #ff7f0e"/>
     <use xlink:href="#m40295fb9df" x="654.671818" y="278.628656" style="fill: #ff7f0e; stroke: #ff7f0e"/>
    </g>
   </g>
   <g id="patch_3">
    <path d="M 39.2 298.385 
L 39.2 29.865 
" style="fill: none; stroke: #000000; stroke-width: 0.8; stroke-linejoin: miter; stroke-linecap: square"/>
   </g>
   <g id="patch_4">
    <path d="M 683.98 298.385 
L 683.98 29.865 
" style="fill: none; stroke: #000000; stroke-width: 0.8; stroke-linejoin: miter; stroke-linecap: square"/>
   </g>
   <g id="patch_5">
    <path d="M 39.2 298.385 
L 683.98 298.385 
" style="fill: none; stroke: #000000; stroke-width: 0.8; stroke-linejoin: miter; stroke-linecap: square"/>
   </g>
   <g id="patch_6">
    <path d="M 39.2 29.865 
L 683.98 29.865 
" style="fill: none; stroke: #000000; stroke-width: 0.8; stroke-linejoin: miter; stroke-linecap: square"/>
   </g>
   <g id="text_14">
    <!-- loss results -->
    <g transform="translate(308.58375 23.865) scale(0.24 -0.24)">
     <defs>
      <path id="TimesNewRomanPSMT-6c" d="M 1184 4444 
L 1184 647 
Q 1184 378 1223 290 
Q 1263 203 1344 158 
Q 1425 113 1647 113 
L 1647 0 
L 244 0 
L 244 113 
Q 441 113 512 153 
Q 584 194 625 287 
Q 666 381 666 647 
L 666 3247 
Q 666 3731 644 3842 
Q 622 3953 573 3993 
Q 525 4034 450 4034 
Q 369 4034 244 3984 
L 191 4094 
L 1044 4444 
L 1184 4444 
z
" transform="scale(0.015625)"/>
      <path id="TimesNewRomanPSMT-6f" d="M 1600 2947 
Q 2250 2947 2644 2453 
Q 2978 2031 2978 1484 
Q 2978 1100 2793 706 
Q 2609 313 2286 112 
Q 1963 -88 1566 -88 
Q 919 -88 538 428 
Q 216 863 216 1403 
Q 216 1797 411 2186 
Q 606 2575 925 2761 
Q 1244 2947 1600 2947 
z
M 1503 2744 
Q 1338 2744 1170 2645 
Q 1003 2547 900 2300 
Q 797 2053 797 1666 
Q 797 1041 1045 587 
Q 1294 134 1700 134 
Q 2003 134 2200 384 
Q 2397 634 2397 1244 
Q 2397 2006 2069 2444 
Q 1847 2744 1503 2744 
z
" transform="scale(0.015625)"/>
      <path id="TimesNewRomanPSMT-73" d="M 2050 2947 
L 2050 1972 
L 1947 1972 
Q 1828 2431 1642 2597 
Q 1456 2763 1169 2763 
Q 950 2763 815 2647 
Q 681 2531 681 2391 
Q 681 2216 781 2091 
Q 878 1963 1175 1819 
L 1631 1597 
Q 2266 1288 2266 781 
Q 2266 391 1970 151 
Q 1675 -88 1309 -88 
Q 1047 -88 709 6 
Q 606 38 541 38 
Q 469 38 428 -44 
L 325 -44 
L 325 978 
L 428 978 
Q 516 541 762 319 
Q 1009 97 1316 97 
Q 1531 97 1667 223 
Q 1803 350 1803 528 
Q 1803 744 1651 891 
Q 1500 1038 1047 1263 
Q 594 1488 453 1669 
Q 313 1847 313 2119 
Q 313 2472 555 2709 
Q 797 2947 1181 2947 
Q 1350 2947 1591 2875 
Q 1750 2828 1803 2828 
Q 1853 2828 1881 2850 
Q 1909 2872 1947 2947 
L 2050 2947 
z
" transform="scale(0.015625)"/>
      <path id="TimesNewRomanPSMT-20" transform="scale(0.015625)"/>
      <path id="TimesNewRomanPSMT-72" d="M 1038 2947 
L 1038 2303 
Q 1397 2947 1775 2947 
Q 1947 2947 2059 2842 
Q 2172 2738 2172 2600 
Q 2172 2478 2090 2393 
Q 2009 2309 1897 2309 
Q 1788 2309 1652 2417 
Q 1516 2525 1450 2525 
Q 1394 2525 1328 2463 
Q 1188 2334 1038 2041 
L 1038 669 
Q 1038 431 1097 309 
Q 1138 225 1241 169 
Q 1344 113 1538 113 
L 1538 0 
L 72 0 
L 72 113 
Q 291 113 397 181 
Q 475 231 506 341 
Q 522 394 522 644 
L 522 1753 
Q 522 2253 501 2348 
Q 481 2444 426 2487 
Q 372 2531 291 2531 
Q 194 2531 72 2484 
L 41 2597 
L 906 2947 
L 1038 2947 
z
" transform="scale(0.015625)"/>
      <path id="TimesNewRomanPSMT-65" d="M 681 1784 
Q 678 1147 991 784 
Q 1303 422 1725 422 
Q 2006 422 2214 576 
Q 2422 731 2563 1106 
L 2659 1044 
Q 2594 616 2278 264 
Q 1963 -88 1488 -88 
Q 972 -88 605 314 
Q 238 716 238 1394 
Q 238 2128 614 2539 
Q 991 2950 1559 2950 
Q 2041 2950 2350 2633 
Q 2659 2316 2659 1784 
L 681 1784 
z
M 681 1966 
L 2006 1966 
Q 1991 2241 1941 2353 
Q 1863 2528 1708 2628 
Q 1553 2728 1384 2728 
Q 1125 2728 920 2526 
Q 716 2325 681 1966 
z
" transform="scale(0.015625)"/>
      <path id="TimesNewRomanPSMT-75" d="M 2709 2863 
L 2709 1128 
Q 2709 631 2732 520 
Q 2756 409 2807 365 
Q 2859 322 2928 322 
Q 3025 322 3147 375 
L 3191 266 
L 2334 -88 
L 2194 -88 
L 2194 519 
Q 1825 119 1631 15 
Q 1438 -88 1222 -88 
Q 981 -88 804 51 
Q 628 191 559 409 
Q 491 628 491 1028 
L 491 2306 
Q 491 2509 447 2587 
Q 403 2666 317 2708 
Q 231 2750 6 2747 
L 6 2863 
L 1009 2863 
L 1009 947 
Q 1009 547 1148 422 
Q 1288 297 1484 297 
Q 1619 297 1789 381 
Q 1959 466 2194 703 
L 2194 2325 
Q 2194 2569 2105 2655 
Q 2016 2741 1734 2747 
L 1734 2863 
L 2709 2863 
z
" transform="scale(0.015625)"/>
      <path id="TimesNewRomanPSMT-74" d="M 1031 3803 
L 1031 2863 
L 1700 2863 
L 1700 2644 
L 1031 2644 
L 1031 788 
Q 1031 509 1111 412 
Q 1191 316 1316 316 
Q 1419 316 1516 380 
Q 1613 444 1666 569 
L 1788 569 
Q 1678 263 1478 108 
Q 1278 -47 1066 -47 
Q 922 -47 784 33 
Q 647 113 581 261 
Q 516 409 516 719 
L 516 2644 
L 63 2644 
L 63 2747 
Q 234 2816 414 2980 
Q 594 3144 734 3369 
Q 806 3488 934 3803 
L 1031 3803 
z
" transform="scale(0.015625)"/>
     </defs>
     <use xlink:href="#TimesNewRomanPSMT-6c"/>
     <use xlink:href="#TimesNewRomanPSMT-6f" x="27.783203"/>
     <use xlink:href="#TimesNewRomanPSMT-73" x="77.783203"/>
     <use xlink:href="#TimesNewRomanPSMT-73" x="116.699219"/>
     <use xlink:href="#TimesNewRomanPSMT-20" x="155.615234"/>
     <use xlink:href="#TimesNewRomanPSMT-72" x="180.615234"/>
     <use xlink:href="#TimesNewRomanPSMT-65" x="213.916016"/>
     <use xlink:href="#TimesNewRomanPSMT-73" x="258.300781"/>
     <use xlink:href="#TimesNewRomanPSMT-75" x="297.216797"/>
     <use xlink:href="#TimesNewRomanPSMT-6c" x="347.216797"/>
     <use xlink:href="#TimesNewRomanPSMT-74" x="375"/>
     <use xlink:href="#TimesNewRomanPSMT-73" x="402.783203"/>
    </g>
   </g>
   <g id="legend_1">
    <g id="patch_7">
     <path d="M 528.205 102.49625 
L 669.98 102.49625 
Q 673.98 102.49625 673.98 98.49625 
L 673.98 43.865 
Q 673.98 39.865 669.98 39.865 
L 528.205 39.865 
Q 524.205 39.865 524.205 43.865 
L 524.205 98.49625 
Q 524.205 102.49625 528.205 102.49625 
z
" style="fill: #ffffff; opacity: 0.8; stroke: #cccccc; stroke-linejoin: miter"/>
    </g>
    <g id="line2d_16">
     <path d="M 532.205 54.865 
L 552.205 54.865 
L 572.205 54.865 
" style="fill: none; stroke: #1f77b4; stroke-width: 1.5; stroke-linecap: square"/>
     <g>
      <use xlink:href="#m0e5d777d76" x="552.205" y="54.865" style="fill: #1f77b4; stroke: #1f77b4"/>
     </g>
    </g>
    <g id="text_15">
     <!-- train_loss -->
     <g transform="translate(588.205 61.865) scale(0.2 -0.2)">
      <defs>
       <path id="TimesNewRomanPSMT-61" d="M 1822 413 
Q 1381 72 1269 19 
Q 1100 -59 909 -59 
Q 613 -59 420 144 
Q 228 347 228 678 
Q 228 888 322 1041 
Q 450 1253 767 1440 
Q 1084 1628 1822 1897 
L 1822 2009 
Q 1822 2438 1686 2597 
Q 1550 2756 1291 2756 
Q 1094 2756 978 2650 
Q 859 2544 859 2406 
L 866 2225 
Q 866 2081 792 2003 
Q 719 1925 600 1925 
Q 484 1925 411 2006 
Q 338 2088 338 2228 
Q 338 2497 613 2722 
Q 888 2947 1384 2947 
Q 1766 2947 2009 2819 
Q 2194 2722 2281 2516 
Q 2338 2381 2338 1966 
L 2338 994 
Q 2338 584 2353 492 
Q 2369 400 2405 369 
Q 2441 338 2488 338 
Q 2538 338 2575 359 
Q 2641 400 2828 588 
L 2828 413 
Q 2478 -56 2159 -56 
Q 2006 -56 1915 50 
Q 1825 156 1822 413 
z
M 1822 616 
L 1822 1706 
Q 1350 1519 1213 1441 
Q 966 1303 859 1153 
Q 753 1003 753 825 
Q 753 600 887 451 
Q 1022 303 1197 303 
Q 1434 303 1822 616 
z
" transform="scale(0.015625)"/>
       <path id="TimesNewRomanPSMT-69" d="M 928 4444 
Q 1059 4444 1151 4351 
Q 1244 4259 1244 4128 
Q 1244 3997 1151 3903 
Q 1059 3809 928 3809 
Q 797 3809 703 3903 
Q 609 3997 609 4128 
Q 609 4259 701 4351 
Q 794 4444 928 4444 
z
M 1188 2947 
L 1188 647 
Q 1188 378 1227 289 
Q 1266 200 1342 156 
Q 1419 113 1622 113 
L 1622 0 
L 231 0 
L 231 113 
Q 441 113 512 153 
Q 584 194 626 287 
Q 669 381 669 647 
L 669 1750 
Q 669 2216 641 2353 
Q 619 2453 572 2492 
Q 525 2531 444 2531 
Q 356 2531 231 2484 
L 188 2597 
L 1050 2947 
L 1188 2947 
z
" transform="scale(0.015625)"/>
       <path id="TimesNewRomanPSMT-6e" d="M 1034 2341 
Q 1538 2947 1994 2947 
Q 2228 2947 2397 2830 
Q 2566 2713 2666 2444 
Q 2734 2256 2734 1869 
L 2734 647 
Q 2734 375 2778 278 
Q 2813 200 2889 156 
Q 2966 113 3172 113 
L 3172 0 
L 1756 0 
L 1756 113 
L 1816 113 
Q 2016 113 2095 173 
Q 2175 234 2206 353 
Q 2219 400 2219 647 
L 2219 1819 
Q 2219 2209 2117 2386 
Q 2016 2563 1775 2563 
Q 1403 2563 1034 2156 
L 1034 647 
Q 1034 356 1069 288 
Q 1113 197 1189 155 
Q 1266 113 1500 113 
L 1500 0 
L 84 0 
L 84 113 
L 147 113 
Q 366 113 442 223 
Q 519 334 519 647 
L 519 1709 
Q 519 2225 495 2337 
Q 472 2450 423 2490 
Q 375 2531 294 2531 
Q 206 2531 84 2484 
L 38 2597 
L 900 2947 
L 1034 2947 
L 1034 2341 
z
" transform="scale(0.015625)"/>
       <path id="TimesNewRomanPSMT-5f" d="M 3256 -1381 
L -53 -1381 
L -53 -1119 
L 3256 -1119 
L 3256 -1381 
z
" transform="scale(0.015625)"/>
      </defs>
      <use xlink:href="#TimesNewRomanPSMT-74"/>
      <use xlink:href="#TimesNewRomanPSMT-72" x="27.783203"/>
      <use xlink:href="#TimesNewRomanPSMT-61" x="61.083984"/>
      <use xlink:href="#TimesNewRomanPSMT-69" x="105.46875"/>
      <use xlink:href="#TimesNewRomanPSMT-6e" x="133.251953"/>
      <use xlink:href="#TimesNewRomanPSMT-5f" x="183.251953"/>
      <use xlink:href="#TimesNewRomanPSMT-6c" x="233.251953"/>
      <use xlink:href="#TimesNewRomanPSMT-6f" x="261.035156"/>
      <use xlink:href="#TimesNewRomanPSMT-73" x="311.035156"/>
      <use xlink:href="#TimesNewRomanPSMT-73" x="349.951172"/>
     </g>
    </g>
    <g id="line2d_17">
     <path d="M 532.205 83.180625 
L 552.205 83.180625 
L 572.205 83.180625 
" style="fill: none; stroke: #ff7f0e; stroke-width: 1.5; stroke-linecap: square"/>
     <g>
      <use xlink:href="#m40295fb9df" x="552.205" y="83.180625" style="fill: #ff7f0e; stroke: #ff7f0e"/>
     </g>
    </g>
    <g id="text_16">
     <!-- test_loss -->
     <g transform="translate(588.205 90.180625) scale(0.2 -0.2)">
      <use xlink:href="#TimesNewRomanPSMT-74"/>
      <use xlink:href="#TimesNewRomanPSMT-65" x="27.783203"/>
      <use xlink:href="#TimesNewRomanPSMT-73" x="72.167969"/>
      <use xlink:href="#TimesNewRomanPSMT-74" x="111.083984"/>
      <use xlink:href="#TimesNewRomanPSMT-5f" x="138.867188"/>
      <use xlink:href="#TimesNewRomanPSMT-6c" x="188.867188"/>
      <use xlink:href="#TimesNewRomanPSMT-6f" x="216.650391"/>
      <use xlink:href="#TimesNewRomanPSMT-73" x="266.650391"/>
      <use xlink:href="#TimesNewRomanPSMT-73" x="305.566406"/>
     </g>
    </g>
   </g>
  </g>
 </g>
 <defs>
  <clipPath id="p4f474a6a7a">
   <rect x="39.2" y="29.865" width="644.78" height="268.52"/>
  </clipPath>
 </defs>
</svg>
