<?xml version="1.0" encoding="utf-8" standalone="no"?>
<!DOCTYPE svg PUBLIC "-//W3C//DTD SVG 1.1//EN"
  "http://www.w3.org/Graphics/SVG/1.1/DTD/svg11.dtd">
<svg xmlns:xlink="http://www.w3.org/1999/xlink" width="1395.767383pt" height="1411.34625pt" viewBox="0 0 1395.767383 1411.34625" xmlns="http://www.w3.org/2000/svg" version="1.1">
 <metadata>
  <rdf:RDF xmlns:dc="http://purl.org/dc/elements/1.1/" xmlns:cc="http://creativecommons.org/ns#" xmlns:rdf="http://www.w3.org/1999/02/22-rdf-syntax-ns#">
   <cc:Work>
    <dc:type rdf:resource="http://purl.org/dc/dcmitype/StillImage"/>
    <dc:date>2024-02-28T10:06:03.740654</dc:date>
    <dc:format>image/svg+xml</dc:format>
    <dc:creator>
     <cc:Agent>
      <dc:title>Matplotlib v3.7.4, https://matplotlib.org/</dc:title>
     </cc:Agent>
    </dc:creator>
   </cc:Work>
  </rdf:RDF>
 </metadata>
 <defs>
  <style type="text/css">*{stroke-linejoin: round; stroke-linecap: butt}</style>
 </defs>
 <g id="figure_1">
  <g id="patch_1">
   <path d="M 0 1411.34625 
L 1395.767383 1411.34625 
L 1395.767383 0 
L 0 0 
z
" style="fill: #ffffff"/>
  </g>
  <g id="axes_1">
   <g id="patch_2">
    <path d="M 56.6375 244.260625 
L 1376.081293 244.260625 
L 1376.081293 27.340625 
L 56.6375 27.340625 
z
" style="fill: #ffffff"/>
   </g>
   <g id="matplotlib.axis_1">
    <g id="xtick_1">
     <g id="line2d_1">
      <defs>
       <path id="mbcb627f0ef" d="M 0 0 
L 0 3.5 
" style="stroke: #000000; stroke-width: 0.8"/>
      </defs>
      <g>
       <use xlink:href="#mbcb627f0ef" x="116.612218" y="244.260625" style="stroke: #000000; stroke-width: 0.8"/>
      </g>
     </g>
     <g id="text_1">
      <!-- 0 -->
      <g transform="translate(111.612218 265.148125) scale(0.2 -0.2)">
       <defs>
        <path id="TimesNewRomanPSMT-30" d="M 231 2094 
Q 231 2819 450 3342 
Q 669 3866 1031 4122 
Q 1313 4325 1613 4325 
Q 2100 4325 2488 3828 
Q 2972 3213 2972 2159 
Q 2972 1422 2759 906 
Q 2547 391 2217 158 
Q 1888 -75 1581 -75 
Q 975 -75 572 641 
Q 231 1244 231 2094 
z
M 844 2016 
Q 844 1141 1059 588 
Q 1238 122 1591 122 
Q 1759 122 1940 273 
Q 2122 425 2216 781 
Q 2359 1319 2359 2297 
Q 2359 3022 2209 3506 
Q 2097 3866 1919 4016 
Q 1791 4119 1609 4119 
Q 1397 4119 1231 3928 
Q 1006 3669 925 3112 
Q 844 2556 844 2016 
z
" transform="scale(0.015625)"/>
       </defs>
       <use xlink:href="#TimesNewRomanPSMT-30"/>
      </g>
     </g>
    </g>
    <g id="xtick_2">
     <g id="line2d_2">
      <g>
       <use xlink:href="#mbcb627f0ef" x="296.177241" y="244.260625" style="stroke: #000000; stroke-width: 0.8"/>
      </g>
     </g>
     <g id="text_2">
      <!-- 25 -->
      <g transform="translate(286.177241 265.148125) scale(0.2 -0.2)">
       <defs>
        <path id="TimesNewRomanPSMT-32" d="M 2934 816 
L 2638 0 
L 138 0 
L 138 116 
Q 1241 1122 1691 1759 
Q 2141 2397 2141 2925 
Q 2141 3328 1894 3587 
Q 1647 3847 1303 3847 
Q 991 3847 742 3664 
Q 494 3481 375 3128 
L 259 3128 
Q 338 3706 661 4015 
Q 984 4325 1469 4325 
Q 1984 4325 2329 3994 
Q 2675 3663 2675 3213 
Q 2675 2891 2525 2569 
Q 2294 2063 1775 1497 
Q 997 647 803 472 
L 1909 472 
Q 2247 472 2383 497 
Q 2519 522 2628 598 
Q 2738 675 2819 816 
L 2934 816 
z
" transform="scale(0.015625)"/>
        <path id="TimesNewRomanPSMT-35" d="M 2778 4238 
L 2534 3706 
L 1259 3706 
L 981 3138 
Q 1809 3016 2294 2522 
Q 2709 2097 2709 1522 
Q 2709 1188 2573 903 
Q 2438 619 2231 419 
Q 2025 219 1772 97 
Q 1413 -75 1034 -75 
Q 653 -75 479 54 
Q 306 184 306 341 
Q 306 428 378 495 
Q 450 563 559 563 
Q 641 563 702 538 
Q 763 513 909 409 
Q 1144 247 1384 247 
Q 1750 247 2026 523 
Q 2303 800 2303 1197 
Q 2303 1581 2056 1914 
Q 1809 2247 1375 2428 
Q 1034 2569 447 2591 
L 1259 4238 
L 2778 4238 
z
" transform="scale(0.015625)"/>
       </defs>
       <use xlink:href="#TimesNewRomanPSMT-32"/>
       <use xlink:href="#TimesNewRomanPSMT-35" x="50"/>
      </g>
     </g>
    </g>
    <g id="xtick_3">
     <g id="line2d_3">
      <g>
       <use xlink:href="#mbcb627f0ef" x="475.742265" y="244.260625" style="stroke: #000000; stroke-width: 0.8"/>
      </g>
     </g>
     <g id="text_3">
      <!-- 50 -->
      <g transform="translate(465.742265 265.148125) scale(0.2 -0.2)">
       <use xlink:href="#TimesNewRomanPSMT-35"/>
       <use xlink:href="#TimesNewRomanPSMT-30" x="50"/>
      </g>
     </g>
    </g>
    <g id="xtick_4">
     <g id="line2d_4">
      <g>
       <use xlink:href="#mbcb627f0ef" x="655.307288" y="244.260625" style="stroke: #000000; stroke-width: 0.8"/>
      </g>
     </g>
     <g id="text_4">
      <!-- 75 -->
      <g transform="translate(645.307288 265.148125) scale(0.2 -0.2)">
       <defs>
        <path id="TimesNewRomanPSMT-37" d="M 644 4238 
L 2916 4238 
L 2916 4119 
L 1503 -88 
L 1153 -88 
L 2419 3728 
L 1253 3728 
Q 900 3728 750 3644 
Q 488 3500 328 3200 
L 238 3234 
L 644 4238 
z
" transform="scale(0.015625)"/>
       </defs>
       <use xlink:href="#TimesNewRomanPSMT-37"/>
       <use xlink:href="#TimesNewRomanPSMT-35" x="50"/>
      </g>
     </g>
    </g>
    <g id="xtick_5">
     <g id="line2d_5">
      <g>
       <use xlink:href="#mbcb627f0ef" x="834.872312" y="244.260625" style="stroke: #000000; stroke-width: 0.8"/>
      </g>
     </g>
     <g id="text_5">
      <!-- 100 -->
      <g transform="translate(819.872312 265.148125) scale(0.2 -0.2)">
       <defs>
        <path id="TimesNewRomanPSMT-31" d="M 750 3822 
L 1781 4325 
L 1884 4325 
L 1884 747 
Q 1884 391 1914 303 
Q 1944 216 2037 169 
Q 2131 122 2419 116 
L 2419 0 
L 825 0 
L 825 116 
Q 1125 122 1212 167 
Q 1300 213 1334 289 
Q 1369 366 1369 747 
L 1369 3034 
Q 1369 3497 1338 3628 
Q 1316 3728 1258 3775 
Q 1200 3822 1119 3822 
Q 1003 3822 797 3725 
L 750 3822 
z
" transform="scale(0.015625)"/>
       </defs>
       <use xlink:href="#TimesNewRomanPSMT-31"/>
       <use xlink:href="#TimesNewRomanPSMT-30" x="50"/>
       <use xlink:href="#TimesNewRomanPSMT-30" x="100"/>
      </g>
     </g>
    </g>
    <g id="xtick_6">
     <g id="line2d_6">
      <g>
       <use xlink:href="#mbcb627f0ef" x="1014.437335" y="244.260625" style="stroke: #000000; stroke-width: 0.8"/>
      </g>
     </g>
     <g id="text_6">
      <!-- 125 -->
      <g transform="translate(999.437335 265.148125) scale(0.2 -0.2)">
       <use xlink:href="#TimesNewRomanPSMT-31"/>
       <use xlink:href="#TimesNewRomanPSMT-32" x="50"/>
       <use xlink:href="#TimesNewRomanPSMT-35" x="100"/>
      </g>
     </g>
    </g>
    <g id="xtick_7">
     <g id="line2d_7">
      <g>
       <use xlink:href="#mbcb627f0ef" x="1194.002359" y="244.260625" style="stroke: #000000; stroke-width: 0.8"/>
      </g>
     </g>
     <g id="text_7">
      <!-- 150 -->
      <g transform="translate(1179.002359 265.148125) scale(0.2 -0.2)">
       <use xlink:href="#TimesNewRomanPSMT-31"/>
       <use xlink:href="#TimesNewRomanPSMT-35" x="50"/>
       <use xlink:href="#TimesNewRomanPSMT-30" x="100"/>
      </g>
     </g>
    </g>
    <g id="xtick_8">
     <g id="line2d_8">
      <g>
       <use xlink:href="#mbcb627f0ef" x="1373.567383" y="244.260625" style="stroke: #000000; stroke-width: 0.8"/>
      </g>
     </g>
     <g id="text_8">
      <!-- 175 -->
      <g transform="translate(1358.567383 265.148125) scale(0.2 -0.2)">
       <use xlink:href="#TimesNewRomanPSMT-31"/>
       <use xlink:href="#TimesNewRomanPSMT-37" x="50"/>
       <use xlink:href="#TimesNewRomanPSMT-35" x="100"/>
      </g>
     </g>
    </g>
   </g>
   <g id="matplotlib.axis_2">
    <g id="ytick_1">
     <g id="line2d_9">
      <defs>
       <path id="m6c37b4c096" d="M 0 0 
L -3.5 0 
" style="stroke: #000000; stroke-width: 0.8"/>
      </defs>
      <g>
       <use xlink:href="#m6c37b4c096" x="56.6375" y="236.127923" style="stroke: #000000; stroke-width: 0.8"/>
      </g>
     </g>
     <g id="text_9">
      <!-- 2 -->
      <g transform="translate(39.6375 243.071673) scale(0.2 -0.2)">
       <use xlink:href="#TimesNewRomanPSMT-32"/>
      </g>
     </g>
    </g>
    <g id="ytick_2">
     <g id="line2d_10">
      <g>
       <use xlink:href="#m6c37b4c096" x="56.6375" y="178.55128" style="stroke: #000000; stroke-width: 0.8"/>
      </g>
     </g>
     <g id="text_10">
      <!-- 4 -->
      <g transform="translate(39.6375 185.49503) scale(0.2 -0.2)">
       <defs>
        <path id="TimesNewRomanPSMT-34" d="M 2978 1563 
L 2978 1119 
L 2409 1119 
L 2409 0 
L 1894 0 
L 1894 1119 
L 100 1119 
L 100 1519 
L 2066 4325 
L 2409 4325 
L 2409 1563 
L 2978 1563 
z
M 1894 1563 
L 1894 3666 
L 406 1563 
L 1894 1563 
z
" transform="scale(0.015625)"/>
       </defs>
       <use xlink:href="#TimesNewRomanPSMT-34"/>
      </g>
     </g>
    </g>
    <g id="ytick_3">
     <g id="line2d_11">
      <g>
       <use xlink:href="#m6c37b4c096" x="56.6375" y="120.974636" style="stroke: #000000; stroke-width: 0.8"/>
      </g>
     </g>
     <g id="text_11">
      <!-- 6 -->
      <g transform="translate(39.6375 127.918386) scale(0.2 -0.2)">
       <defs>
        <path id="TimesNewRomanPSMT-36" d="M 2869 4325 
L 2869 4209 
Q 2456 4169 2195 4045 
Q 1934 3922 1679 3669 
Q 1425 3416 1258 3105 
Q 1091 2794 978 2366 
Q 1428 2675 1881 2675 
Q 2316 2675 2634 2325 
Q 2953 1975 2953 1425 
Q 2953 894 2631 456 
Q 2244 -75 1606 -75 
Q 1172 -75 869 213 
Q 275 772 275 1663 
Q 275 2231 503 2743 
Q 731 3256 1154 3653 
Q 1578 4050 1965 4187 
Q 2353 4325 2688 4325 
L 2869 4325 
z
M 925 2138 
Q 869 1716 869 1456 
Q 869 1156 980 804 
Q 1091 453 1309 247 
Q 1469 100 1697 100 
Q 1969 100 2183 356 
Q 2397 613 2397 1088 
Q 2397 1622 2184 2012 
Q 1972 2403 1581 2403 
Q 1463 2403 1327 2353 
Q 1191 2303 925 2138 
z
" transform="scale(0.015625)"/>
       </defs>
       <use xlink:href="#TimesNewRomanPSMT-36"/>
      </g>
     </g>
    </g>
    <g id="ytick_4">
     <g id="line2d_12">
      <g>
       <use xlink:href="#m6c37b4c096" x="56.6375" y="63.397993" style="stroke: #000000; stroke-width: 0.8"/>
      </g>
     </g>
     <g id="text_12">
      <!-- 8 -->
      <g transform="translate(39.6375 70.341743) scale(0.2 -0.2)">
       <defs>
        <path id="TimesNewRomanPSMT-38" d="M 1228 2134 
Q 725 2547 579 2797 
Q 434 3047 434 3316 
Q 434 3728 753 4026 
Q 1072 4325 1600 4325 
Q 2113 4325 2425 4047 
Q 2738 3769 2738 3413 
Q 2738 3175 2569 2928 
Q 2400 2681 1866 2347 
Q 2416 1922 2594 1678 
Q 2831 1359 2831 1006 
Q 2831 559 2490 242 
Q 2150 -75 1597 -75 
Q 994 -75 656 303 
Q 388 606 388 966 
Q 388 1247 577 1523 
Q 766 1800 1228 2134 
z
M 1719 2469 
Q 2094 2806 2194 3001 
Q 2294 3197 2294 3444 
Q 2294 3772 2109 3958 
Q 1925 4144 1606 4144 
Q 1288 4144 1088 3959 
Q 888 3775 888 3528 
Q 888 3366 970 3203 
Q 1053 3041 1206 2894 
L 1719 2469 
z
M 1375 2016 
Q 1116 1797 991 1539 
Q 866 1281 866 981 
Q 866 578 1086 336 
Q 1306 94 1647 94 
Q 1984 94 2187 284 
Q 2391 475 2391 747 
Q 2391 972 2272 1150 
Q 2050 1481 1375 2016 
z
" transform="scale(0.015625)"/>
       </defs>
       <use xlink:href="#TimesNewRomanPSMT-38"/>
      </g>
     </g>
    </g>
    <g id="text_13">
     <!-- CPU使用率 -->
     <g transform="translate(33.059375 180.800625) rotate(-90) scale(0.2 -0.2)">
      <defs>
       <path id="SimSun-43" d="M 1725 50 
Q 1025 50 612 575 
Q 200 1100 200 2225 
Q 200 3175 637 3800 
Q 1075 4425 1825 4425 
Q 2000 4425 2175 4375 
Q 2350 4300 2475 4300 
Q 2575 4300 2637 4325 
Q 2700 4350 2750 4425 
L 2975 3325 
L 2825 3275 
Q 2675 3750 2425 4000 
Q 2175 4250 1775 4250 
Q 1250 4250 962 3675 
Q 675 3100 675 2250 
Q 675 1325 925 800 
Q 1175 275 1750 275 
Q 2150 275 2437 562 
Q 2725 850 2825 1325 
L 2975 1250 
Q 2850 725 2512 387 
Q 2175 50 1725 50 
z
" transform="scale(0.015625)"/>
       <path id="SimSun-50" d="M 950 2100 
L 950 450 
Q 950 350 1012 300 
Q 1075 250 1175 250 
L 1350 250 
L 1350 100 
L 150 100 
L 150 250 
L 325 250 
Q 450 250 500 300 
Q 550 350 550 450 
L 550 4025 
Q 550 4125 500 4175 
Q 450 4225 325 4225 
L 175 4225 
L 175 4375 
L 1650 4375 
Q 2275 4375 2612 4062 
Q 2950 3750 2950 3275 
Q 2950 2700 2587 2400 
Q 2225 2100 1725 2100 
L 950 2100 
z
M 1575 2250 
Q 1950 2250 2237 2475 
Q 2525 2700 2525 3250 
Q 2525 3750 2287 3987 
Q 2050 4225 1525 4225 
L 1175 4225 
Q 1075 4225 1012 4175 
Q 950 4125 950 4025 
L 950 2250 
L 1575 2250 
z
" transform="scale(0.015625)"/>
       <path id="SimSun-55" d="M 1625 250 
Q 2000 250 2262 500 
Q 2525 750 2525 1125 
L 2525 4025 
Q 2525 4125 2475 4175 
Q 2425 4225 2300 4225 
L 2150 4225 
L 2150 4375 
L 3050 4375 
L 3050 4225 
L 2900 4225 
Q 2800 4225 2737 4175 
Q 2675 4125 2675 4025 
L 2675 1125 
Q 2675 625 2337 337 
Q 2000 50 1575 50 
Q 1125 50 787 300 
Q 450 550 450 1100 
L 450 4025 
Q 450 4125 400 4175 
Q 350 4225 225 4225 
L 100 4225 
L 100 4375 
L 1200 4375 
L 1200 4225 
L 1075 4225 
Q 975 4225 912 4175 
Q 850 4125 850 4025 
L 850 1100 
Q 850 600 1062 425 
Q 1275 250 1625 250 
z
" transform="scale(0.015625)"/>
       <path id="SimSun-4f7f" d="M 2875 3150 
L 2875 2100 
L 3825 2100 
Q 3850 2825 3850 3150 
L 2875 3150 
z
M 4175 3150 
Q 4175 2800 4150 2100 
L 5150 2100 
L 5150 3150 
L 4175 3150 
z
M 5475 3100 
L 5475 2425 
Q 5475 2100 5500 1800 
L 5150 1675 
L 5150 1950 
L 4150 1950 
Q 4125 1175 3875 600 
Q 4275 275 4875 75 
Q 5475 -125 6075 -150 
L 6075 -250 
Q 5700 -300 5600 -575 
Q 4525 -325 3725 350 
Q 3425 25 2925 -225 
Q 2425 -475 1875 -650 
L 1825 -550 
Q 2400 -325 2850 -25 
Q 3300 275 3500 575 
Q 3200 925 2825 1650 
L 2900 1700 
Q 3325 1100 3625 825 
Q 3800 1300 3825 1950 
L 2875 1950 
L 2875 1825 
L 2525 1675 
Q 2550 2075 2550 2562 
Q 2550 3050 2525 3500 
L 2875 3300 
L 3850 3300 
L 3850 4025 
L 2975 4025 
Q 2650 4025 2375 3950 
L 2150 4175 
L 3850 4175 
L 3850 4525 
Q 3850 4775 3825 5225 
L 4350 5000 
L 4175 4825 
L 4175 4175 
L 5300 4175 
L 5600 4475 
L 6050 4025 
L 4175 4025 
L 4175 3300 
L 5100 3300 
L 5275 3525 
L 5650 3225 
L 5475 3100 
z
M 1675 3175 
L 1675 -450 
L 1325 -625 
Q 1350 -75 1350 350 
L 1350 3200 
Q 900 2475 350 1900 
L 275 1950 
Q 700 2525 1112 3400 
Q 1525 4275 1800 5250 
L 2325 4925 
L 2125 4800 
Q 1725 3925 1500 3525 
L 1875 3325 
L 1675 3175 
z
" transform="scale(0.015625)"/>
       <path id="SimSun-7528" d="M 3400 3150 
L 3400 1825 
L 5075 1825 
L 5075 3150 
L 3400 3150 
z
M 4075 100 
Q 4725 50 4900 62 
Q 5075 75 5075 400 
L 5075 1675 
L 3400 1675 
Q 3400 75 3425 -225 
L 3050 -400 
Q 3075 1025 3075 1675 
L 1425 1675 
Q 1250 350 375 -600 
L 300 -550 
Q 775 225 950 1025 
Q 1125 1825 1125 3225 
Q 1125 4625 1100 5075 
L 1475 4825 
L 5050 4825 
L 5225 5100 
L 5625 4800 
L 5425 4600 
L 5425 225 
Q 5450 -400 4875 -575 
Q 4825 -150 4075 -25 
L 4075 100 
z
M 1475 4675 
L 1475 3300 
L 3075 3300 
L 3075 4675 
L 1475 4675 
z
M 3400 4675 
L 3400 3300 
L 5075 3300 
L 5075 4675 
L 3400 4675 
z
M 1475 3150 
Q 1450 2100 1425 1825 
L 3075 1825 
L 3075 3150 
L 1475 3150 
z
" transform="scale(0.015625)"/>
       <path id="SimSun-7387" d="M 875 3725 
L 925 3800 
Q 1375 3650 1550 3525 
Q 1725 3400 1725 3250 
Q 1725 3175 1662 3025 
Q 1600 2875 1550 2875 
Q 1500 2875 1425 3050 
Q 1275 3325 875 3725 
z
M 550 1850 
Q 875 1925 2000 2575 
L 2050 2500 
Q 1675 2225 1337 1937 
Q 1000 1650 875 1425 
L 550 1850 
z
M 5200 3450 
Q 4800 3150 4275 2800 
L 4225 2875 
Q 4775 3400 5050 3925 
L 5450 3525 
L 5200 3450 
z
M 4325 2500 
L 4350 2575 
Q 5225 2350 5375 2212 
Q 5525 2075 5525 1900 
Q 5525 1775 5487 1662 
Q 5450 1550 5400 1550 
Q 5325 1550 5200 1800 
Q 4975 2150 4325 2500 
z
M 3150 3900 
Q 2500 3300 2300 3150 
Q 2800 3150 3400 3175 
Q 3700 3500 3850 3825 
L 4250 3450 
Q 4050 3400 3450 2825 
Q 2850 2250 2475 1950 
Q 3150 1975 3850 2000 
Q 3750 2175 3550 2450 
L 3600 2500 
Q 4050 2250 4200 2100 
Q 4350 1950 4350 1850 
Q 4350 1775 4250 1625 
Q 4150 1475 4100 1475 
Q 4075 1475 4050 1550 
Q 4000 1700 3900 1900 
Q 3650 1875 3075 1800 
L 3500 1550 
L 3325 1425 
L 3325 975 
L 5325 975 
L 5650 1300 
L 6100 825 
L 3325 825 
Q 3325 -275 3350 -525 
L 2975 -650 
Q 3000 0 3000 825 
L 1125 825 
Q 800 825 525 750 
L 300 975 
L 3000 975 
L 3000 1775 
Q 2450 1700 2200 1525 
L 1950 1950 
Q 2275 1950 2675 2350 
Q 3075 2750 3325 3050 
Q 2400 2950 2150 2775 
L 1950 3175 
Q 2150 3150 2475 3575 
Q 2800 4000 2900 4225 
L 1450 4225 
Q 1125 4225 850 4150 
L 625 4375 
L 3100 4375 
Q 3050 4800 2675 5200 
L 2725 5250 
Q 3225 5050 3337 4912 
Q 3450 4775 3450 4700 
Q 3450 4550 3250 4375 
L 5025 4375 
L 5350 4675 
L 5775 4225 
L 3050 4225 
L 3375 3950 
L 3150 3900 
z
" transform="scale(0.015625)"/>
      </defs>
      <use xlink:href="#SimSun-43"/>
      <use xlink:href="#SimSun-50" x="50"/>
      <use xlink:href="#SimSun-55" x="100"/>
      <use xlink:href="#SimSun-4f7f" x="150"/>
      <use xlink:href="#SimSun-7528" x="250"/>
      <use xlink:href="#SimSun-7387" x="350"/>
     </g>
    </g>
   </g>
   <g id="line2d_13">
    <path d="M 116.612218 234.400625 
L 123.794819 220.870106 
L 130.97742 214.248799 
L 138.160021 182.005882 
L 145.342622 180.278577 
L 152.525223 193.809089 
L 159.707824 214.824564 
L 166.890424 211.082079 
L 174.073025 166.172306 
L 181.255626 186.612009 
L 188.438227 211.369962 
L 195.620828 194.960628 
L 202.803429 201.294052 
L 209.98603 204.172882 
L 217.168631 220.294347 
L 224.351232 127.308061 
L 231.533833 167.323838 
L 238.716434 144.293175 
L 245.899035 118.095807 
L 253.081636 90.746907 
L 260.264237 149.187192 
L 267.446838 178.263403 
L 274.629439 163.869229 
L 281.81204 185.74836 
L 288.99464 196.400042 
L 296.177241 187.475658 
L 303.359842 197.551574 
L 310.542443 231.233906 
L 317.725044 175.960326 
L 324.907645 191.793909 
L 332.090246 98.807629 
L 339.272847 152.929677 
L 346.455448 194.672738 
L 353.638049 201.00617 
L 360.82065 160.9904 
L 368.003251 184.021062 
L 375.185852 210.21843 
L 382.368453 194.384855 
L 389.551054 186.324126 
L 396.733655 182.581648 
L 403.916255 209.354782 
L 411.098856 208.20325 
L 418.281457 222.309528 
L 425.464058 214.824564 
L 432.646659 211.082079 
L 439.82926 165.884416 
L 447.011861 186.612009 
L 454.194462 139.399158 
L 461.377063 173.369387 
L 468.559664 204.748655 
L 475.742265 191.793909 
L 482.924866 213.960916 
L 490.107467 224.900474 
L 497.290068 230.65814 
L 504.472669 218.854932 
L 511.65527 213.097267 
L 518.837871 210.21843 
L 526.020471 194.384855 
L 533.203072 201.00617 
L 540.385673 218.567043 
L 547.568274 212.809384 
L 554.750875 224.612598 
L 561.933476 215.976096 
L 569.116077 226.052013 
L 576.298678 216.551862 
L 583.481279 226.339889 
L 590.66388 216.839745 
L 597.846481 226.627772 
L 605.029082 216.839745 
L 612.211683 154.656975 
L 619.394284 152.066021 
L 626.576885 179.702811 
L 633.759486 207.915367 
L 640.942087 207.627484 
L 648.124687 222.021645 
L 655.307288 185.74836 
L 662.489889 182.293758 
L 669.67249 209.066899 
L 676.855091 208.20325 
L 684.037692 135.944563 
L 691.220293 171.642075 
L 698.402894 203.884999 
L 705.585495 76.064856 
L 712.768096 156.096383 
L 719.950697 181.717992 
L 727.133298 179.990694 
L 734.315899 179.414928 
L 741.4985 106.868352 
L 748.681101 114.065432 
L 755.863702 88.73172 
L 763.046303 119.247339 
L 770.228903 91.322659 
L 777.411504 149.187192 
L 784.594105 163.869229 
L 791.776706 113.777556 
L 798.959307 131.626312 
L 806.141908 155.232741 
L 813.324509 181.142226 
L 820.50711 165.59654 
L 827.689711 200.718287 
L 834.872312 175.38456 
L 842.054913 205.612303 
L 849.237514 206.475952 
L 856.420115 221.445879 
L 863.602716 214.248799 
L 870.785317 210.794196 
L 877.967918 93.913612 
L 885.150519 179.414928 
L 892.333119 193.521206 
L 899.51572 171.642075 
L 906.698321 160.702523 
L 913.880922 184.021062 
L 921.063523 195.536387 
L 928.246124 215.976096 
L 935.428725 211.657852 
L 942.611326 209.354782 
L 949.793927 222.885294 
L 956.976528 215.112447 
L 964.159129 225.47624 
L 971.34173 216.551862 
L 978.524331 226.339889 
L 985.706932 216.839745 
L 992.889533 226.339889 
L 1000.072134 216.839745 
L 1007.254735 212.233611 
L 1014.437335 224.036825 
L 1021.619936 230.082374 
L 1028.802537 218.854932 
L 1035.985138 198.703106 
L 1043.167739 217.415511 
L 1050.35034 226.627772 
L 1057.532941 231.521789 
L 1064.715542 219.430691 
L 1071.898143 98.231863 
L 1079.080744 181.430116 
L 1086.263345 165.59654 
L 1093.445946 143.429533 
L 1100.628547 189.778728 
L 1107.811148 212.809384 
L 1114.993749 181.430116 
L 1122.17635 194.384855 
L 1129.358951 186.324126 
L 1136.541551 125.004998 
L 1143.724152 122.989824 
L 1150.906753 150.626614 
L 1158.089354 193.521206 
L 1165.271955 200.430404 
L 1172.454556 160.702523 
L 1179.637157 169.626901 
L 1186.819758 101.974349 
L 1194.002359 97.080332 
L 1201.18496 37.200625 
L 1208.367561 107.732007 
L 1215.550162 128.747483 
L 1222.732763 153.793319 
L 1229.915364 194.960628 
L 1237.097965 172.217855 
L 1244.280566 132.202078 
L 1251.463167 169.914778 
L 1258.645767 145.444707 
L 1265.828368 147.459894 
L 1273.010969 177.399748 
L 1280.19357 177.975514 
L 1287.376171 163.869229 
L 1294.558772 200.142521 
L 1301.741373 189.202962 
L 1308.923974 198.415223 
L 1316.106575 217.127628 
L 1316.106575 217.127628 
" clip-path="url(#pefd5f5c122)" style="fill: none; stroke: #1f77b4; stroke-width: 1.5; stroke-linecap: square"/>
   </g>
   <g id="line2d_14">
    <path d="M 1150.906753 176.115486 
L 1158.089354 175.467034 
L 1165.271955 176.9707 
L 1172.454556 176.991908 
L 1179.637157 179.037598 
L 1186.819758 176.723772 
L 1194.002359 176.803844 
L 1201.18496 177.298824 
L 1208.367561 177.611945 
L 1215.550162 180.582432 
L 1222.732763 178.593663 
L 1229.915364 179.943596 
L 1237.097965 180.663643 
L 1244.280566 179.522853 
L 1251.463167 180.798329 
L 1258.645767 177.909979 
L 1265.828368 178.590684 
L 1273.010969 180.028822 
L 1280.19357 178.505554 
L 1287.376171 177.149279 
L 1294.558772 177.333362 
L 1301.741373 175.280782 
L 1308.923974 174.479942 
L 1316.106575 174.456441 
" clip-path="url(#pefd5f5c122)" style="fill: none; stroke: #ff7f0e; stroke-width: 1.5; stroke-linecap: square"/>
   </g>
   <g id="line2d_15">
    <path d="M 1150.906753 244.260625 
L 1150.906753 27.340625 
" clip-path="url(#pefd5f5c122)" style="fill: none; stroke-dasharray: 7.4,3.2; stroke-dashoffset: 0; stroke: #0000ff; stroke-width: 2"/>
   </g>
   <g id="patch_3">
    <path d="M 56.6375 244.260625 
L 56.6375 27.340625 
" style="fill: none; stroke: #000000; stroke-width: 0.8; stroke-linejoin: miter; stroke-linecap: square"/>
   </g>
   <g id="patch_4">
    <path d="M 1376.081293 244.260625 
L 1376.081293 27.340625 
" style="fill: none; stroke: #000000; stroke-width: 0.8; stroke-linejoin: miter; stroke-linecap: square"/>
   </g>
   <g id="patch_5">
    <path d="M 56.6375 244.260625 
L 1376.081293 244.260625 
" style="fill: none; stroke: #000000; stroke-width: 0.8; stroke-linejoin: miter; stroke-linecap: square"/>
   </g>
   <g id="patch_6">
    <path d="M 56.6375 27.340625 
L 1376.081293 27.340625 
" style="fill: none; stroke: #000000; stroke-width: 0.8; stroke-linejoin: miter; stroke-linecap: square"/>
   </g>
   <g id="text_14">
    <!-- API_ID: 2 -->
    <g transform="translate(671.359396 21.340625) scale(0.2 -0.2)">
     <defs>
      <path id="SimSun-41" d="M 2025 1700 
L 900 1700 
L 675 750 
Q 650 625 650 550 
Q 650 450 687 350 
Q 725 250 900 250 
L 975 250 
L 975 100 
L 50 100 
L 50 250 
L 125 250 
Q 225 250 300 312 
Q 375 375 400 525 
L 1375 4350 
L 1750 4475 
L 2700 525 
Q 2750 375 2825 312 
Q 2900 250 3000 250 
L 3075 250 
L 3075 100 
L 2000 100 
L 2000 250 
L 2100 250 
Q 2250 250 2275 312 
Q 2300 375 2300 425 
Q 2300 525 2275 600 
L 2025 1700 
z
M 325 250 
L 325 250 
z
M 575 250 
L 575 250 
z
M 2350 250 
L 2350 250 
z
M 2775 250 
L 2775 250 
z
M 1500 3925 
L 1475 3925 
L 950 1850 
L 2000 1850 
L 1500 3925 
z
" transform="scale(0.015625)"/>
      <path id="SimSun-49" d="M 600 4225 
L 600 4375 
L 2600 4375 
L 2600 4225 
L 2025 4225 
Q 1925 4225 1862 4175 
Q 1800 4125 1800 4025 
L 1800 450 
Q 1800 350 1862 300 
Q 1925 250 2025 250 
L 2600 250 
L 2600 100 
L 600 100 
L 600 250 
L 1175 250 
Q 1300 250 1350 300 
Q 1400 350 1400 450 
L 1400 4025 
Q 1400 4125 1350 4175 
Q 1300 4225 1175 4225 
L 600 4225 
z
" transform="scale(0.015625)"/>
      <path id="SimSun-5f" d="M 0 -875 
L 0 -725 
L 3175 -725 
L 3175 -875 
L 0 -875 
z
" transform="scale(0.015625)"/>
      <path id="SimSun-44" d="M 2500 2275 
Q 2500 3350 2175 3787 
Q 1850 4225 1275 4225 
Q 1100 4225 1012 4175 
Q 925 4125 925 4025 
L 925 450 
Q 925 350 1000 300 
Q 1075 250 1200 250 
Q 1750 250 2125 662 
Q 2500 1075 2500 2275 
z
M 525 4025 
Q 525 4125 475 4175 
Q 425 4225 300 4225 
L 150 4225 
L 150 4375 
L 1275 4375 
Q 2050 4375 2512 3875 
Q 2975 3375 2975 2325 
Q 2975 1175 2525 637 
Q 2075 100 1200 100 
L 125 100 
L 125 250 
L 300 250 
Q 425 250 475 300 
Q 525 350 525 450 
L 525 4025 
z
" transform="scale(0.015625)"/>
      <path id="SimSun-3a" d="M 1900 2725 
Q 1900 2575 1800 2475 
Q 1700 2375 1550 2375 
Q 1400 2375 1300 2475 
Q 1200 2575 1200 2725 
Q 1200 2875 1300 2975 
Q 1400 3075 1550 3075 
Q 1700 3075 1800 2975 
Q 1900 2875 1900 2725 
z
M 1900 375 
Q 1900 225 1800 125 
Q 1700 25 1550 25 
Q 1400 25 1300 125 
Q 1200 225 1200 375 
Q 1200 525 1300 625 
Q 1400 725 1550 725 
Q 1700 725 1800 625 
Q 1900 525 1900 375 
z
" transform="scale(0.015625)"/>
      <path id="SimSun-20" d="M 0 0 
Q 0 0 0 0 
z
" transform="scale(0.015625)"/>
      <path id="SimSun-32" d="M 2325 3325 
Q 2325 3775 2125 4012 
Q 1925 4250 1525 4250 
Q 1225 4250 1012 4087 
Q 800 3925 800 3675 
Q 800 3525 900 3425 
Q 975 3325 975 3225 
Q 975 3100 912 3037 
Q 850 2975 725 2975 
Q 575 2975 487 3062 
Q 400 3150 400 3350 
Q 400 3875 775 4150 
Q 1150 4425 1575 4425 
Q 2175 4425 2462 4125 
Q 2750 3825 2750 3375 
Q 2750 3075 2612 2775 
Q 2475 2475 2175 2200 
Q 1450 1500 1062 1062 
Q 675 625 600 475 
L 2075 475 
Q 2300 475 2450 650 
Q 2600 825 2650 1175 
L 2800 1175 
L 2650 100 
L 325 100 
L 325 425 
Q 450 650 737 1000 
Q 1025 1350 1500 1825 
Q 1925 2250 2125 2625 
Q 2325 3000 2325 3325 
z
" transform="scale(0.015625)"/>
     </defs>
     <use xlink:href="#SimSun-41"/>
     <use xlink:href="#SimSun-50" x="50"/>
     <use xlink:href="#SimSun-49" x="100"/>
     <use xlink:href="#SimSun-5f" x="150"/>
     <use xlink:href="#SimSun-49" x="200"/>
     <use xlink:href="#SimSun-44" x="250"/>
     <use xlink:href="#SimSun-3a" x="300"/>
     <use xlink:href="#SimSun-20" x="350"/>
     <use xlink:href="#SimSun-32" x="400"/>
    </g>
   </g>
   <g id="legend_1">
    <g id="patch_7">
     <path d="M 70.6375 100.215625 
L 194.6375 100.215625 
Q 198.6375 100.215625 198.6375 96.215625 
L 198.6375 41.340625 
Q 198.6375 37.340625 194.6375 37.340625 
L 70.6375 37.340625 
Q 66.6375 37.340625 66.6375 41.340625 
L 66.6375 96.215625 
Q 66.6375 100.215625 70.6375 100.215625 
z
" style="fill: #ffffff; opacity: 0.8; stroke: #cccccc; stroke-linejoin: miter"/>
    </g>
    <g id="line2d_16">
     <path d="M 74.6375 54.278125 
L 94.6375 54.278125 
L 114.6375 54.278125 
" style="fill: none; stroke: #1f77b4; stroke-width: 1.5; stroke-linecap: square"/>
    </g>
    <g id="text_15">
     <!-- 真实值 -->
     <g transform="translate(130.6375 61.278125) scale(0.2 -0.2)">
      <defs>
       <path id="SimSun-771f" d="M 2050 3450 
L 2050 2900 
L 4300 2900 
L 4300 3450 
L 2050 3450 
z
M 2050 2750 
L 2050 2225 
L 4300 2225 
L 4300 2750 
L 2050 2750 
z
M 2050 2075 
L 2050 1550 
L 4300 1550 
L 4300 2075 
L 2050 2075 
z
M 2050 1400 
L 2050 875 
L 4300 875 
L 4300 1400 
L 2050 1400 
z
M 2875 3600 
L 2925 4325 
L 1525 4325 
Q 1200 4325 925 4250 
L 700 4475 
L 2950 4475 
Q 2975 4825 2975 5275 
L 3550 5025 
L 3375 4925 
L 3300 4475 
L 5000 4475 
L 5325 4825 
L 5775 4325 
L 3275 4325 
L 3200 3600 
L 4275 3600 
L 4450 3875 
L 4850 3575 
L 4650 3375 
L 4650 875 
L 5300 875 
L 5675 1225 
L 6125 725 
L 1150 725 
Q 825 725 550 650 
L 325 875 
L 1700 875 
Q 1700 3200 1675 3775 
L 2050 3600 
L 2875 3600 
z
M 2425 725 
L 2825 350 
L 2575 300 
Q 1500 -425 800 -650 
L 775 -575 
Q 1950 125 2425 725 
z
M 3800 700 
Q 4575 375 4962 200 
Q 5350 25 5400 -112 
Q 5450 -250 5450 -325 
Q 5450 -400 5400 -525 
Q 5350 -650 5325 -650 
Q 5250 -650 5100 -450 
Q 4875 -150 3750 625 
L 3800 700 
z
" transform="scale(0.015625)"/>
       <path id="SimSun-5b9e" d="M 1950 3625 
Q 2575 3400 2700 3250 
Q 2825 3100 2825 2975 
Q 2825 2850 2750 2700 
Q 2675 2550 2625 2550 
Q 2550 2550 2450 2800 
Q 2275 3175 1900 3550 
L 1950 3625 
z
M 3575 1325 
Q 3500 1100 3425 925 
Q 4650 550 5087 325 
Q 5525 100 5512 -225 
Q 5500 -550 5400 -550 
Q 5300 -550 5075 -300 
Q 4625 175 3375 800 
Q 3025 175 2300 -150 
Q 1575 -475 425 -625 
L 425 -525 
Q 1475 -325 2200 100 
Q 2925 525 3200 1325 
L 1225 1325 
Q 900 1325 625 1250 
L 400 1475 
L 3225 1475 
Q 3325 1950 3375 2575 
Q 3425 3200 3425 3700 
L 4050 3400 
L 3850 3225 
Q 3750 2300 3625 1475 
L 5175 1475 
L 5550 1850 
L 6075 1325 
L 3575 1325 
z
M 1275 2700 
Q 1975 2425 2100 2262 
Q 2225 2100 2225 1975 
Q 2225 1850 2150 1700 
Q 2075 1550 2025 1550 
Q 1950 1550 1850 1800 
Q 1675 2175 1225 2625 
L 1275 2700 
z
M 2750 5225 
L 2825 5275 
Q 3225 5100 3425 4925 
Q 3625 4750 3625 4600 
Q 3625 4450 3512 4300 
Q 3400 4150 3325 4150 
Q 3250 4150 3200 4400 
Q 3100 4775 2750 5225 
z
M 4975 3225 
L 5350 3925 
L 1175 3925 
Q 1225 3525 1125 3300 
Q 1025 3075 787 3100 
Q 550 3125 550 3200 
Q 550 3300 700 3475 
Q 975 3825 1050 4375 
L 1150 4375 
L 1175 4075 
L 5300 4075 
L 5575 4350 
L 6050 3800 
Q 5625 3825 5050 3175 
L 4975 3225 
z
" transform="scale(0.015625)"/>
       <path id="SimSun-503c" d="M 1525 650 
Q 1525 -225 1550 -525 
L 1175 -650 
Q 1200 250 1200 550 
L 1200 3025 
Q 750 2300 325 1850 
L 250 1900 
Q 725 2625 1100 3525 
Q 1475 4425 1675 5200 
L 2200 4875 
L 1950 4725 
Q 1550 3800 1425 3475 
L 1725 3300 
L 1525 3150 
L 1525 650 
z
M 2875 3225 
L 2875 2475 
L 4800 2475 
L 4800 3225 
L 2875 3225 
z
M 2875 2325 
L 2875 1575 
L 4800 1575 
L 4800 2325 
L 2875 2325 
z
M 2875 1425 
L 2875 675 
L 4800 675 
L 4800 1425 
L 2875 1425 
z
M 2875 525 
L 2875 -225 
L 4800 -225 
L 4800 525 
L 2875 525 
z
M 3550 4250 
Q 3575 4825 3550 5225 
L 4125 4950 
L 3925 4800 
L 3900 4250 
L 5025 4250 
L 5350 4575 
L 5825 4100 
L 3900 4100 
L 3875 3375 
L 4750 3375 
L 4975 3625 
L 5350 3300 
L 5125 3150 
L 5125 -225 
L 5350 -225 
L 5675 100 
L 6150 -375 
L 2450 -375 
Q 2125 -375 1850 -450 
L 1625 -225 
L 2550 -225 
L 2550 2550 
Q 2550 2850 2525 3575 
L 2875 3375 
L 3525 3375 
L 3550 4100 
L 2800 4100 
Q 2475 4100 2200 4025 
L 1975 4250 
L 3550 4250 
z
" transform="scale(0.015625)"/>
      </defs>
      <use xlink:href="#SimSun-771f"/>
      <use xlink:href="#SimSun-5b9e" x="100"/>
      <use xlink:href="#SimSun-503c" x="200"/>
     </g>
    </g>
    <g id="line2d_17">
     <path d="M 74.6375 82.6375 
L 94.6375 82.6375 
L 114.6375 82.6375 
" style="fill: none; stroke: #ff7f0e; stroke-width: 1.5; stroke-linecap: square"/>
    </g>
    <g id="text_16">
     <!-- 预测值 -->
     <g transform="translate(130.6375 89.6375) scale(0.2 -0.2)">
      <defs>
       <path id="SimSun-9884" d="M 475 4825 
L 2225 4825 
L 2425 5075 
L 2825 4675 
Q 2600 4625 2387 4412 
Q 2175 4200 1800 3750 
Q 2050 3575 2037 3400 
Q 2025 3225 1937 3150 
Q 1850 3075 1825 3075 
Q 1725 3075 1650 3300 
Q 1525 3600 1050 4100 
L 1100 4150 
Q 1475 3975 1700 3825 
L 2225 4675 
L 1300 4675 
Q 975 4675 700 4600 
L 475 4825 
z
M 725 100 
Q 1175 50 1362 37 
Q 1550 25 1550 275 
L 1550 2875 
L 1125 2875 
Q 800 2875 525 2800 
L 300 3025 
L 2525 3025 
L 2725 3275 
L 3150 2875 
Q 2800 2825 2275 2075 
L 2200 2125 
L 2550 2875 
L 1875 2875 
L 1875 150 
Q 1875 -400 1350 -500 
Q 1325 -175 725 0 
L 725 100 
z
M 3250 775 
Q 3275 1425 3275 2287 
Q 3275 3150 3250 3900 
L 3600 3700 
L 4050 3700 
Q 4175 4400 4200 4675 
L 3650 4675 
Q 3325 4675 3050 4600 
L 2825 4825 
L 5325 4825 
L 5675 5150 
L 6125 4675 
L 4675 4675 
Q 4500 4425 4175 3700 
L 5300 3700 
L 5475 3975 
L 5875 3675 
L 5675 3475 
L 5675 1950 
Q 5675 1525 5700 1075 
L 5350 875 
L 5350 3550 
L 3600 3550 
L 3600 1000 
L 3250 775 
z
M 4850 2875 
L 4625 2675 
Q 4625 1475 4475 937 
Q 4325 400 3900 50 
Q 3475 -300 2425 -625 
L 2400 -550 
Q 3500 -50 3837 400 
Q 4175 850 4237 1587 
Q 4300 2325 4275 3175 
L 4850 2875 
z
M 4650 950 
Q 5725 375 5875 212 
Q 6025 50 6025 -125 
Q 6025 -225 5962 -387 
Q 5900 -550 5850 -550 
Q 5800 -550 5750 -450 
Q 5625 -250 5437 0 
Q 5250 250 4600 875 
L 4650 950 
z
" transform="scale(0.015625)"/>
       <path id="SimSun-6d4b" d="M 1975 1000 
Q 2000 1475 2000 2925 
Q 2000 4375 1975 5000 
L 2350 4775 
L 3575 4775 
L 3775 4975 
L 4100 4650 
L 3900 4500 
L 3900 2350 
Q 3900 1850 3925 1350 
L 3600 1200 
L 3600 4625 
L 2325 4625 
L 2325 1150 
L 1975 1000 
z
M 2775 3975 
L 3300 3700 
L 3125 3525 
Q 3150 1825 2875 937 
Q 2600 50 1375 -600 
L 1325 -500 
Q 2200 100 2475 725 
Q 2750 1350 2775 2187 
Q 2800 3025 2775 3975 
z
M 3100 950 
Q 3825 450 3937 262 
Q 4050 75 4050 -25 
Q 4050 -150 3975 -262 
Q 3900 -375 3850 -375 
Q 3750 -375 3650 -75 
Q 3500 375 3050 875 
L 3100 950 
z
M 4475 825 
Q 4500 1200 4500 1700 
L 4500 3400 
Q 4500 3950 4475 4300 
L 5025 4025 
L 4825 3825 
L 4825 1700 
Q 4825 1325 4850 950 
L 4475 825 
z
M 5375 150 
L 5375 4050 
Q 5375 4750 5350 5125 
L 5875 4875 
L 5700 4700 
L 5700 75 
Q 5700 -200 5600 -350 
Q 5500 -500 5200 -600 
Q 5025 -225 4450 -50 
L 4450 50 
Q 5125 -50 5250 -37 
Q 5375 -25 5375 150 
z
M 1850 3500 
Q 1375 1525 1300 1225 
Q 1200 900 1212 450 
Q 1225 0 1250 -175 
Q 1250 -275 1125 -275 
Q 1025 -275 875 -225 
Q 725 -175 725 0 
Q 725 125 800 375 
Q 875 625 875 775 
Q 875 950 762 1050 
Q 650 1150 275 1250 
L 275 1350 
Q 725 1300 837 1312 
Q 950 1325 1087 1537 
Q 1225 1750 1750 3525 
L 1850 3500 
z
M 375 3775 
Q 1075 3350 1112 3100 
Q 1150 2850 1050 2775 
Q 950 2700 900 2700 
Q 800 2700 725 2975 
Q 600 3350 325 3700 
L 375 3775 
z
M 800 5100 
Q 1475 4725 1550 4512 
Q 1625 4300 1525 4187 
Q 1425 4075 1350 4075 
Q 1275 4075 1200 4300 
Q 1075 4650 750 5025 
L 800 5100 
z
" transform="scale(0.015625)"/>
      </defs>
      <use xlink:href="#SimSun-9884"/>
      <use xlink:href="#SimSun-6d4b" x="100"/>
      <use xlink:href="#SimSun-503c" x="200"/>
     </g>
    </g>
   </g>
  </g>
  <g id="axes_2">
   <g id="patch_8">
    <path d="M 56.6375 527.940625 
L 1376.081293 527.940625 
L 1376.081293 311.020625 
L 56.6375 311.020625 
z
" style="fill: #ffffff"/>
   </g>
   <g id="matplotlib.axis_3">
    <g id="xtick_9">
     <g id="line2d_18">
      <g>
       <use xlink:href="#mbcb627f0ef" x="116.612218" y="527.940625" style="stroke: #000000; stroke-width: 0.8"/>
      </g>
     </g>
     <g id="text_17">
      <!-- 0 -->
      <g transform="translate(111.612218 548.828125) scale(0.2 -0.2)">
       <use xlink:href="#TimesNewRomanPSMT-30"/>
      </g>
     </g>
    </g>
    <g id="xtick_10">
     <g id="line2d_19">
      <g>
       <use xlink:href="#mbcb627f0ef" x="296.177241" y="527.940625" style="stroke: #000000; stroke-width: 0.8"/>
      </g>
     </g>
     <g id="text_18">
      <!-- 25 -->
      <g transform="translate(286.177241 548.828125) scale(0.2 -0.2)">
       <use xlink:href="#TimesNewRomanPSMT-32"/>
       <use xlink:href="#TimesNewRomanPSMT-35" x="50"/>
      </g>
     </g>
    </g>
    <g id="xtick_11">
     <g id="line2d_20">
      <g>
       <use xlink:href="#mbcb627f0ef" x="475.742265" y="527.940625" style="stroke: #000000; stroke-width: 0.8"/>
      </g>
     </g>
     <g id="text_19">
      <!-- 50 -->
      <g transform="translate(465.742265 548.828125) scale(0.2 -0.2)">
       <use xlink:href="#TimesNewRomanPSMT-35"/>
       <use xlink:href="#TimesNewRomanPSMT-30" x="50"/>
      </g>
     </g>
    </g>
    <g id="xtick_12">
     <g id="line2d_21">
      <g>
       <use xlink:href="#mbcb627f0ef" x="655.307288" y="527.940625" style="stroke: #000000; stroke-width: 0.8"/>
      </g>
     </g>
     <g id="text_20">
      <!-- 75 -->
      <g transform="translate(645.307288 548.828125) scale(0.2 -0.2)">
       <use xlink:href="#TimesNewRomanPSMT-37"/>
       <use xlink:href="#TimesNewRomanPSMT-35" x="50"/>
      </g>
     </g>
    </g>
    <g id="xtick_13">
     <g id="line2d_22">
      <g>
       <use xlink:href="#mbcb627f0ef" x="834.872312" y="527.940625" style="stroke: #000000; stroke-width: 0.8"/>
      </g>
     </g>
     <g id="text_21">
      <!-- 100 -->
      <g transform="translate(819.872312 548.828125) scale(0.2 -0.2)">
       <use xlink:href="#TimesNewRomanPSMT-31"/>
       <use xlink:href="#TimesNewRomanPSMT-30" x="50"/>
       <use xlink:href="#TimesNewRomanPSMT-30" x="100"/>
      </g>
     </g>
    </g>
    <g id="xtick_14">
     <g id="line2d_23">
      <g>
       <use xlink:href="#mbcb627f0ef" x="1014.437335" y="527.940625" style="stroke: #000000; stroke-width: 0.8"/>
      </g>
     </g>
     <g id="text_22">
      <!-- 125 -->
      <g transform="translate(999.437335 548.828125) scale(0.2 -0.2)">
       <use xlink:href="#TimesNewRomanPSMT-31"/>
       <use xlink:href="#TimesNewRomanPSMT-32" x="50"/>
       <use xlink:href="#TimesNewRomanPSMT-35" x="100"/>
      </g>
     </g>
    </g>
    <g id="xtick_15">
     <g id="line2d_24">
      <g>
       <use xlink:href="#mbcb627f0ef" x="1194.002359" y="527.940625" style="stroke: #000000; stroke-width: 0.8"/>
      </g>
     </g>
     <g id="text_23">
      <!-- 150 -->
      <g transform="translate(1179.002359 548.828125) scale(0.2 -0.2)">
       <use xlink:href="#TimesNewRomanPSMT-31"/>
       <use xlink:href="#TimesNewRomanPSMT-35" x="50"/>
       <use xlink:href="#TimesNewRomanPSMT-30" x="100"/>
      </g>
     </g>
    </g>
    <g id="xtick_16">
     <g id="line2d_25">
      <g>
       <use xlink:href="#mbcb627f0ef" x="1373.567383" y="527.940625" style="stroke: #000000; stroke-width: 0.8"/>
      </g>
     </g>
     <g id="text_24">
      <!-- 175 -->
      <g transform="translate(1358.567383 548.828125) scale(0.2 -0.2)">
       <use xlink:href="#TimesNewRomanPSMT-31"/>
       <use xlink:href="#TimesNewRomanPSMT-37" x="50"/>
       <use xlink:href="#TimesNewRomanPSMT-35" x="100"/>
      </g>
     </g>
    </g>
   </g>
   <g id="matplotlib.axis_4">
    <g id="ytick_5">
     <g id="line2d_26">
      <g>
       <use xlink:href="#m6c37b4c096" x="56.6375" y="520.56425" style="stroke: #000000; stroke-width: 0.8"/>
      </g>
     </g>
     <g id="text_25">
      <!-- 2 -->
      <g transform="translate(39.6375 527.508) scale(0.2 -0.2)">
       <use xlink:href="#TimesNewRomanPSMT-32"/>
      </g>
     </g>
    </g>
    <g id="ytick_6">
     <g id="line2d_27">
      <g>
       <use xlink:href="#m6c37b4c096" x="56.6375" y="470.891706" style="stroke: #000000; stroke-width: 0.8"/>
      </g>
     </g>
     <g id="text_26">
      <!-- 4 -->
      <g transform="translate(39.6375 477.835456) scale(0.2 -0.2)">
       <use xlink:href="#TimesNewRomanPSMT-34"/>
      </g>
     </g>
    </g>
    <g id="ytick_7">
     <g id="line2d_28">
      <g>
       <use xlink:href="#m6c37b4c096" x="56.6375" y="421.219162" style="stroke: #000000; stroke-width: 0.8"/>
      </g>
     </g>
     <g id="text_27">
      <!-- 6 -->
      <g transform="translate(39.6375 428.162912) scale(0.2 -0.2)">
       <use xlink:href="#TimesNewRomanPSMT-36"/>
      </g>
     </g>
    </g>
    <g id="ytick_8">
     <g id="line2d_29">
      <g>
       <use xlink:href="#m6c37b4c096" x="56.6375" y="371.546619" style="stroke: #000000; stroke-width: 0.8"/>
      </g>
     </g>
     <g id="text_28">
      <!-- 8 -->
      <g transform="translate(39.6375 378.490369) scale(0.2 -0.2)">
       <use xlink:href="#TimesNewRomanPSMT-38"/>
      </g>
     </g>
    </g>
    <g id="ytick_9">
     <g id="line2d_30">
      <g>
       <use xlink:href="#m6c37b4c096" x="56.6375" y="321.874075" style="stroke: #000000; stroke-width: 0.8"/>
      </g>
     </g>
     <g id="text_29">
      <!-- 10 -->
      <g transform="translate(29.6375 328.817825) scale(0.2 -0.2)">
       <use xlink:href="#TimesNewRomanPSMT-31"/>
       <use xlink:href="#TimesNewRomanPSMT-30" x="50"/>
      </g>
     </g>
    </g>
    <g id="text_30">
     <!-- CPU使用率 -->
     <g transform="translate(23.059375 464.480625) rotate(-90) scale(0.2 -0.2)">
      <use xlink:href="#SimSun-43"/>
      <use xlink:href="#SimSun-50" x="50"/>
      <use xlink:href="#SimSun-55" x="100"/>
      <use xlink:href="#SimSun-4f7f" x="150"/>
      <use xlink:href="#SimSun-7528" x="250"/>
      <use xlink:href="#SimSun-7387" x="350"/>
     </g>
    </g>
   </g>
   <g id="line2d_31">
    <path d="M 116.612218 494.486166 
L 123.794819 482.813117 
L 130.97742 501.688683 
L 138.160021 486.290198 
L 145.342622 491.009085 
L 152.525223 505.662489 
L 159.707824 500.695234 
L 166.890424 510.629745 
L 174.073025 453.506321 
L 181.255626 462.199013 
L 188.438227 392.160722 
L 195.620828 443.820166 
L 202.803429 482.316392 
L 209.98603 489.022185 
L 217.168631 467.414631 
L 224.351232 456.735027 
L 231.533833 463.937545 
L 238.716434 479.832767 
L 245.899035 475.362237 
L 253.081636 473.126968 
L 260.264237 459.46702 
L 267.446838 440.343091 
L 274.629439 468.159713 
L 281.81204 407.310852 
L 288.99464 414.265013 
L 296.177241 430.160224 
L 303.359842 400.853415 
L 310.542443 435.872567 
L 317.725044 478.342586 
L 324.907645 487.035285 
L 332.090246 466.421181 
L 346.455448 320.880625 
L 353.638049 420.722437 
L 360.82065 445.807078 
L 368.003251 445.807078 
L 375.185852 470.891706 
L 382.368453 483.309842 
L 389.551054 501.937046 
L 396.733655 486.290198 
L 403.916255 491.009085 
L 411.098856 481.07458 
L 418.281457 500.695234 
L 425.464058 498.211603 
L 432.646659 509.387926 
L 439.82926 502.682133 
L 447.011861 511.623195 
L 454.194462 503.675583 
L 461.377063 512.119914 
L 468.559664 491.50581 
L 475.742265 493.492716 
L 482.924866 494.734528 
L 490.107467 495.231253 
L 497.290068 483.06148 
L 504.472669 489.270548 
L 511.65527 504.917396 
L 518.837871 512.865007 
L 526.020471 504.172308 
L 533.203072 499.95014 
L 540.385673 485.545104 
L 547.568274 490.51236 
L 554.750875 480.826217 
L 561.933476 488.277098 
L 569.116077 492.002535 
L 576.298678 493.741078 
L 583.481279 494.734528 
L 590.66388 445.558709 
L 597.846481 458.225202 
L 605.029082 464.682638 
L 612.211683 467.662988 
L 619.394284 469.401531 
L 626.576885 482.564755 
L 633.759486 489.022185 
L 640.942087 504.917396 
L 648.124687 487.780367 
L 655.307288 466.917906 
L 662.489889 444.068534 
L 669.67249 370.553169 
L 676.855091 408.304301 
L 684.037692 414.761738 
L 691.220293 417.990444 
L 698.402894 432.147123 
L 705.585495 426.683137 
L 712.768096 448.787427 
L 719.950697 472.133519 
L 727.133298 446.800528 
L 734.315899 433.885667 
L 741.4985 378.004055 
L 748.681101 449.284152 
L 755.863702 447.545609 
L 763.046303 421.964256 
L 770.228903 421.715887 
L 777.411504 409.049383 
L 784.594105 452.264502 
L 791.776706 486.538554 
L 798.959307 478.590949 
L 806.141908 437.611098 
L 813.324509 466.669538 
L 820.50711 493.492716 
L 827.689711 482.316392 
L 834.872312 489.022185 
L 842.054913 504.669039 
L 849.237514 500.198503 
L 856.420115 485.545104 
L 863.602716 503.178858 
L 870.785317 511.871557 
L 877.967918 503.675583 
L 885.150519 499.701784 
L 892.333119 497.714878 
L 899.51572 496.721428 
L 906.698321 508.642839 
L 913.880922 502.185408 
L 921.063523 498.95669 
L 928.246124 497.466515 
L 935.428725 508.891201 
L 942.611326 514.851907 
L 949.793927 505.165758 
L 956.976528 500.446871 
L 964.159129 510.629745 
L 971.34173 515.596994 
L 978.524331 518.080625 
L 985.706932 506.904301 
L 992.889533 501.191953 
L 1000.072134 510.878101 
L 1007.254735 503.427221 
L 1014.437335 499.453421 
L 1021.619936 423.206062 
L 1028.802537 372.540069 
L 1035.985138 409.297751 
L 1043.167739 440.094735 
L 1050.35034 380.984405 
L 1057.532941 425.938055 
L 1064.715542 473.126968 
L 1071.898143 484.551654 
L 1079.080744 440.343091 
L 1086.263345 455.741577 
L 1093.445946 488.028735 
L 1100.628547 492.002535 
L 1107.811148 493.741078 
L 1114.993749 482.316392 
L 1122.17635 389.677098 
L 1129.358951 455.244852 
L 1136.541551 413.271551 
L 1143.724152 466.917906 
L 1150.906753 444.068534 
L 1158.089354 482.316392 
L 1165.271955 451.767777 
L 1172.454556 486.290198 
L 1179.637157 491.009085 
L 1186.819758 493.244353 
L 1194.002359 494.486166 
L 1201.18496 408.304301 
L 1208.367561 452.016134 
L 1215.550162 486.290198 
L 1222.732763 503.427221 
L 1229.915364 499.453421 
L 1237.097965 460.46047 
L 1244.280566 490.51236 
L 1251.463167 505.414121 
L 1258.645767 513.113369 
L 1265.828368 504.420671 
L 1273.010969 499.95014 
L 1280.19357 473.126968 
L 1287.376171 496.721428 
L 1294.558772 496.224703 
L 1301.741373 495.97634 
L 1308.923974 495.97634 
L 1316.106575 495.727978 
L 1316.106575 495.727978 
" clip-path="url(#p814d2d20cd)" style="fill: none; stroke: #1f77b4; stroke-width: 1.5; stroke-linecap: square"/>
   </g>
   <g id="line2d_32">
    <path d="M 1150.906753 463.675723 
L 1158.089354 461.709832 
L 1165.271955 461.89779 
L 1172.454556 459.993482 
L 1179.637157 461.467101 
L 1186.819758 456.908939 
L 1194.002359 456.697544 
L 1201.18496 457.439428 
L 1208.367561 459.159899 
L 1215.550162 462.201062 
L 1222.732763 461.126145 
L 1229.915364 462.595808 
L 1237.097965 463.771141 
L 1244.280566 462.819508 
L 1251.463167 465.018466 
L 1258.645767 460.920802 
L 1265.828368 461.129485 
L 1273.010969 461.227011 
L 1280.19357 459.961199 
L 1287.376171 457.240125 
L 1294.558772 457.051634 
L 1301.741373 454.389727 
L 1308.923974 449.93397 
L 1316.106575 452.136055 
" clip-path="url(#p814d2d20cd)" style="fill: none; stroke: #ff7f0e; stroke-width: 1.5; stroke-linecap: square"/>
   </g>
   <g id="line2d_33">
    <path d="M 1150.906753 527.940625 
L 1150.906753 311.020625 
" clip-path="url(#p814d2d20cd)" style="fill: none; stroke-dasharray: 7.4,3.2; stroke-dashoffset: 0; stroke: #0000ff; stroke-width: 2"/>
   </g>
   <g id="patch_9">
    <path d="M 56.6375 527.940625 
L 56.6375 311.020625 
" style="fill: none; stroke: #000000; stroke-width: 0.8; stroke-linejoin: miter; stroke-linecap: square"/>
   </g>
   <g id="patch_10">
    <path d="M 1376.081293 527.940625 
L 1376.081293 311.020625 
" style="fill: none; stroke: #000000; stroke-width: 0.8; stroke-linejoin: miter; stroke-linecap: square"/>
   </g>
   <g id="patch_11">
    <path d="M 56.6375 527.940625 
L 1376.081293 527.940625 
" style="fill: none; stroke: #000000; stroke-width: 0.8; stroke-linejoin: miter; stroke-linecap: square"/>
   </g>
   <g id="patch_12">
    <path d="M 56.6375 311.020625 
L 1376.081293 311.020625 
" style="fill: none; stroke: #000000; stroke-width: 0.8; stroke-linejoin: miter; stroke-linecap: square"/>
   </g>
   <g id="text_31">
    <!-- API_ID: 3 -->
    <g transform="translate(671.359396 305.020625) scale(0.2 -0.2)">
     <defs>
      <path id="SimSun-33" d="M 2800 1250 
Q 2800 775 2450 412 
Q 2100 50 1475 50 
Q 1025 50 700 300 
Q 375 550 375 875 
Q 375 1025 475 1137 
Q 575 1250 675 1250 
Q 825 1250 887 1137 
Q 950 1025 950 950 
Q 950 825 900 750 
Q 850 650 850 575 
Q 850 425 1037 325 
Q 1225 225 1450 225 
Q 1900 225 2125 487 
Q 2350 750 2350 1300 
Q 2350 1750 2112 2025 
Q 1875 2300 1225 2300 
L 1225 2475 
Q 1725 2475 1962 2712 
Q 2200 2950 2200 3375 
Q 2200 3725 2012 3987 
Q 1825 4250 1425 4250 
Q 1250 4250 1050 4162 
Q 850 4075 850 3875 
Q 850 3675 900 3625 
Q 950 3575 950 3500 
Q 950 3375 900 3300 
Q 850 3225 725 3225 
Q 625 3225 537 3300 
Q 450 3375 450 3575 
Q 450 3950 775 4187 
Q 1100 4425 1525 4425 
Q 2025 4425 2325 4112 
Q 2625 3800 2625 3450 
Q 2625 3075 2437 2812 
Q 2250 2550 1850 2425 
Q 2400 2225 2600 1900 
Q 2800 1575 2800 1250 
z
" transform="scale(0.015625)"/>
     </defs>
     <use xlink:href="#SimSun-41"/>
     <use xlink:href="#SimSun-50" x="50"/>
     <use xlink:href="#SimSun-49" x="100"/>
     <use xlink:href="#SimSun-5f" x="150"/>
     <use xlink:href="#SimSun-49" x="200"/>
     <use xlink:href="#SimSun-44" x="250"/>
     <use xlink:href="#SimSun-3a" x="300"/>
     <use xlink:href="#SimSun-20" x="350"/>
     <use xlink:href="#SimSun-33" x="400"/>
    </g>
   </g>
  </g>
  <g id="axes_3">
   <g id="patch_13">
    <path d="M 56.6375 811.620625 
L 1376.081293 811.620625 
L 1376.081293 594.700625 
L 56.6375 594.700625 
z
" style="fill: #ffffff"/>
   </g>
   <g id="matplotlib.axis_5">
    <g id="xtick_17">
     <g id="line2d_34">
      <g>
       <use xlink:href="#mbcb627f0ef" x="116.612218" y="811.620625" style="stroke: #000000; stroke-width: 0.8"/>
      </g>
     </g>
     <g id="text_32">
      <!-- 0 -->
      <g transform="translate(111.612218 832.508125) scale(0.2 -0.2)">
       <use xlink:href="#TimesNewRomanPSMT-30"/>
      </g>
     </g>
    </g>
    <g id="xtick_18">
     <g id="line2d_35">
      <g>
       <use xlink:href="#mbcb627f0ef" x="296.177241" y="811.620625" style="stroke: #000000; stroke-width: 0.8"/>
      </g>
     </g>
     <g id="text_33">
      <!-- 25 -->
      <g transform="translate(286.177241 832.508125) scale(0.2 -0.2)">
       <use xlink:href="#TimesNewRomanPSMT-32"/>
       <use xlink:href="#TimesNewRomanPSMT-35" x="50"/>
      </g>
     </g>
    </g>
    <g id="xtick_19">
     <g id="line2d_36">
      <g>
       <use xlink:href="#mbcb627f0ef" x="475.742265" y="811.620625" style="stroke: #000000; stroke-width: 0.8"/>
      </g>
     </g>
     <g id="text_34">
      <!-- 50 -->
      <g transform="translate(465.742265 832.508125) scale(0.2 -0.2)">
       <use xlink:href="#TimesNewRomanPSMT-35"/>
       <use xlink:href="#TimesNewRomanPSMT-30" x="50"/>
      </g>
     </g>
    </g>
    <g id="xtick_20">
     <g id="line2d_37">
      <g>
       <use xlink:href="#mbcb627f0ef" x="655.307288" y="811.620625" style="stroke: #000000; stroke-width: 0.8"/>
      </g>
     </g>
     <g id="text_35">
      <!-- 75 -->
      <g transform="translate(645.307288 832.508125) scale(0.2 -0.2)">
       <use xlink:href="#TimesNewRomanPSMT-37"/>
       <use xlink:href="#TimesNewRomanPSMT-35" x="50"/>
      </g>
     </g>
    </g>
    <g id="xtick_21">
     <g id="line2d_38">
      <g>
       <use xlink:href="#mbcb627f0ef" x="834.872312" y="811.620625" style="stroke: #000000; stroke-width: 0.8"/>
      </g>
     </g>
     <g id="text_36">
      <!-- 100 -->
      <g transform="translate(819.872312 832.508125) scale(0.2 -0.2)">
       <use xlink:href="#TimesNewRomanPSMT-31"/>
       <use xlink:href="#TimesNewRomanPSMT-30" x="50"/>
       <use xlink:href="#TimesNewRomanPSMT-30" x="100"/>
      </g>
     </g>
    </g>
    <g id="xtick_22">
     <g id="line2d_39">
      <g>
       <use xlink:href="#mbcb627f0ef" x="1014.437335" y="811.620625" style="stroke: #000000; stroke-width: 0.8"/>
      </g>
     </g>
     <g id="text_37">
      <!-- 125 -->
      <g transform="translate(999.437335 832.508125) scale(0.2 -0.2)">
       <use xlink:href="#TimesNewRomanPSMT-31"/>
       <use xlink:href="#TimesNewRomanPSMT-32" x="50"/>
       <use xlink:href="#TimesNewRomanPSMT-35" x="100"/>
      </g>
     </g>
    </g>
    <g id="xtick_23">
     <g id="line2d_40">
      <g>
       <use xlink:href="#mbcb627f0ef" x="1194.002359" y="811.620625" style="stroke: #000000; stroke-width: 0.8"/>
      </g>
     </g>
     <g id="text_38">
      <!-- 150 -->
      <g transform="translate(1179.002359 832.508125) scale(0.2 -0.2)">
       <use xlink:href="#TimesNewRomanPSMT-31"/>
       <use xlink:href="#TimesNewRomanPSMT-35" x="50"/>
       <use xlink:href="#TimesNewRomanPSMT-30" x="100"/>
      </g>
     </g>
    </g>
    <g id="xtick_24">
     <g id="line2d_41">
      <g>
       <use xlink:href="#mbcb627f0ef" x="1373.567383" y="811.620625" style="stroke: #000000; stroke-width: 0.8"/>
      </g>
     </g>
     <g id="text_39">
      <!-- 175 -->
      <g transform="translate(1358.567383 832.508125) scale(0.2 -0.2)">
       <use xlink:href="#TimesNewRomanPSMT-31"/>
       <use xlink:href="#TimesNewRomanPSMT-37" x="50"/>
       <use xlink:href="#TimesNewRomanPSMT-35" x="100"/>
      </g>
     </g>
    </g>
   </g>
   <g id="matplotlib.axis_6">
    <g id="ytick_10">
     <g id="line2d_42">
      <g>
       <use xlink:href="#m6c37b4c096" x="56.6375" y="795.071344" style="stroke: #000000; stroke-width: 0.8"/>
      </g>
     </g>
     <g id="text_40">
      <!-- 2 -->
      <g transform="translate(39.6375 802.015094) scale(0.2 -0.2)">
       <use xlink:href="#TimesNewRomanPSMT-32"/>
      </g>
     </g>
    </g>
    <g id="ytick_11">
     <g id="line2d_43">
      <g>
       <use xlink:href="#m6c37b4c096" x="56.6375" y="741.557096" style="stroke: #000000; stroke-width: 0.8"/>
      </g>
     </g>
     <g id="text_41">
      <!-- 4 -->
      <g transform="translate(39.6375 748.500846) scale(0.2 -0.2)">
       <use xlink:href="#TimesNewRomanPSMT-34"/>
      </g>
     </g>
    </g>
    <g id="ytick_12">
     <g id="line2d_44">
      <g>
       <use xlink:href="#m6c37b4c096" x="56.6375" y="688.042848" style="stroke: #000000; stroke-width: 0.8"/>
      </g>
     </g>
     <g id="text_42">
      <!-- 6 -->
      <g transform="translate(39.6375 694.986598) scale(0.2 -0.2)">
       <use xlink:href="#TimesNewRomanPSMT-36"/>
      </g>
     </g>
    </g>
    <g id="ytick_13">
     <g id="line2d_45">
      <g>
       <use xlink:href="#m6c37b4c096" x="56.6375" y="634.528601" style="stroke: #000000; stroke-width: 0.8"/>
      </g>
     </g>
     <g id="text_43">
      <!-- 8 -->
      <g transform="translate(39.6375 641.472351) scale(0.2 -0.2)">
       <use xlink:href="#TimesNewRomanPSMT-38"/>
      </g>
     </g>
    </g>
    <g id="text_44">
     <!-- CPU使用率 -->
     <g transform="translate(33.059375 748.160625) rotate(-90) scale(0.2 -0.2)">
      <use xlink:href="#SimSun-43"/>
      <use xlink:href="#SimSun-50" x="50"/>
      <use xlink:href="#SimSun-55" x="100"/>
      <use xlink:href="#SimSun-4f7f" x="150"/>
      <use xlink:href="#SimSun-7528" x="250"/>
      <use xlink:href="#SimSun-7387" x="350"/>
     </g>
    </g>
   </g>
   <g id="line2d_46">
    <path d="M 116.612218 770.98993 
L 123.794819 769.652075 
L 130.97742 768.849362 
L 138.160021 768.581791 
L 145.342622 768.581791 
L 152.525223 768.31422 
L 159.707824 781.692782 
L 166.890424 775.003501 
L 174.073025 771.792643 
L 181.255626 769.919646 
L 188.438227 782.495495 
L 195.620828 748.781519 
L 202.803429 678.142716 
L 209.98603 669.848009 
L 217.168631 692.323984 
L 224.351232 703.561978 
L 231.533833 669.045289 
L 238.716434 731.924528 
L 245.899035 763.497936 
L 253.081636 779.284643 
L 260.264237 693.661846 
L 267.446838 730.854244 
L 274.629439 709.448553 
L 281.81204 685.367139 
L 288.99464 686.704987 
L 296.177241 714.26483 
L 303.359842 741.289532 
L 310.542443 754.668087 
L 317.725044 708.110691 
L 324.907645 738.078667 
L 332.090246 726.573108 
L 339.272847 760.822226 
L 346.455448 724.432541 
L 353.638049 732.994812 
L 360.82065 737.275961 
L 368.003251 766.173652 
L 375.185852 780.622498 
L 382.368453 787.846921 
L 389.551054 791.325344 
L 396.733655 779.819779 
L 403.916255 774.200782 
L 411.098856 798.014625 
L 418.281457 796.409199 
L 425.464058 755.738371 
L 432.646659 761.89251 
L 439.82926 765.103362 
L 447.011861 780.087356 
L 454.194462 787.57935 
L 461.377063 764.56822 
L 468.559664 753.062661 
L 475.742265 760.822226 
L 482.924866 764.56822 
L 490.107467 779.819779 
L 497.290068 747.176093 
L 504.472669 757.878945 
L 511.65527 762.962794 
L 518.837871 792.395634 
L 526.020471 793.733483 
L 533.203072 781.15764 
L 540.385673 788.114492 
L 547.568274 791.592915 
L 554.750875 779.819779 
L 561.933476 774.200782 
L 569.116077 784.636063 
L 576.298678 789.719918 
L 583.481279 779.017072 
L 590.66388 773.665646 
L 597.846481 770.98993 
L 605.029082 769.652075 
L 619.394284 768.581791 
L 626.576885 781.960353 
L 633.759486 681.353567 
L 640.942087 604.560625 
L 648.124687 659.680299 
L 655.307288 727.375815 
L 662.489889 747.711235 
L 669.67249 771.525072 
L 676.855091 756.541084 
L 684.037692 749.04909 
L 691.220293 745.303096 
L 698.402894 703.294414 
L 705.585495 642.020601 
L 712.768096 718.545966 
L 719.950697 730.051538 
L 727.133298 722.559537 
L 734.315899 745.303096 
L 741.4985 770.187217 
L 748.681101 756.005942 
L 755.863702 762.160081 
L 763.046303 738.346244 
L 770.228903 739.95167 
L 777.411504 740.75439 
L 784.594105 768.046649 
L 791.776706 768.046649 
L 798.959307 741.557096 
L 806.141908 754.935658 
L 813.324509 748.246377 
L 820.50711 704.632262 
L 827.689711 696.337555 
L 834.872312 732.45967 
L 842.054913 750.386945 
L 849.237514 772.595362 
L 856.420115 770.454788 
L 863.602716 769.384504 
L 870.785317 768.849362 
L 877.967918 768.581791 
L 885.150519 768.581791 
L 892.333119 768.31422 
L 899.51572 768.31422 
L 906.698321 781.692782 
L 913.880922 801.760625 
L 921.063523 785.171205 
L 928.246124 776.608927 
L 935.428725 759.2168 
L 942.611326 777.144069 
L 949.793927 772.595362 
L 956.976528 770.454788 
L 964.159129 769.384504 
L 971.34173 782.227924 
L 978.524331 788.649634 
L 985.706932 791.860486 
L 992.889533 766.708794 
L 1000.072134 780.890063 
L 1007.254735 774.73593 
L 1014.437335 784.903634 
L 1021.619936 776.608927 
L 1028.802537 772.327791 
L 1035.985138 783.83335 
L 1043.167739 776.073785 
L 1050.35034 772.060214 
L 1057.532941 676.53729 
L 1064.715542 695.802413 
L 1071.898143 678.41028 
L 1079.080744 709.983695 
L 1086.263345 712.391827 
L 1093.445946 753.865374 
L 1100.628547 774.468359 
L 1107.811148 664.229012 
L 1114.993749 729.78396 
L 1122.17635 735.670535 
L 1129.358951 725.235247 
L 1136.541551 746.640951 
L 1143.724152 744.232812 
L 1150.906753 635.866462 
L 1158.089354 675.199428 
L 1165.271955 708.378269 
L 1172.454556 698.210559 
L 1179.637157 746.640951 
L 1186.819758 757.611368 
L 1194.002359 709.448553 
L 1201.18496 752.259948 
L 1208.367561 746.908522 
L 1215.550162 757.611368 
L 1222.732763 762.962794 
L 1229.915364 752.259948 
L 1237.097965 733.529954 
L 1244.280566 750.922087 
L 1251.463167 772.862927 
L 1258.645767 770.722359 
L 1265.828368 769.384504 
L 1273.010969 768.849362 
L 1280.19357 755.203229 
L 1287.376171 775.271072 
L 1294.558772 771.792643 
L 1301.741373 769.919646 
L 1308.923974 769.116933 
L 1316.106575 768.849362 
L 1316.106575 768.849362 
" clip-path="url(#pf86f3bf61b)" style="fill: none; stroke: #1f77b4; stroke-width: 1.5; stroke-linecap: square"/>
   </g>
   <g id="line2d_47">
    <path d="M 1150.906753 746.922366 
L 1158.089354 747.041124 
L 1165.271955 747.245941 
L 1172.454556 747.790423 
L 1179.637157 749.694564 
L 1186.819758 749.105471 
L 1194.002359 748.524353 
L 1201.18496 749.361234 
L 1208.367561 749.331359 
L 1215.550162 749.691055 
L 1222.732763 749.286436 
L 1229.915364 749.987601 
L 1237.097965 749.746333 
L 1244.280566 749.612486 
L 1251.463167 750.260882 
L 1258.645767 748.778298 
L 1265.828368 749.217181 
L 1273.010969 749.514754 
L 1280.19357 749.155447 
L 1287.376171 748.996964 
L 1294.558772 748.913075 
L 1301.741373 748.829856 
L 1308.923974 747.739324 
L 1316.106575 748.221536 
" clip-path="url(#pf86f3bf61b)" style="fill: none; stroke: #ff7f0e; stroke-width: 1.5; stroke-linecap: square"/>
   </g>
   <g id="line2d_48">
    <path d="M 1150.906753 811.620625 
L 1150.906753 594.700625 
" clip-path="url(#pf86f3bf61b)" style="fill: none; stroke-dasharray: 7.4,3.2; stroke-dashoffset: 0; stroke: #0000ff; stroke-width: 2"/>
   </g>
   <g id="patch_14">
    <path d="M 56.6375 811.620625 
L 56.6375 594.700625 
" style="fill: none; stroke: #000000; stroke-width: 0.8; stroke-linejoin: miter; stroke-linecap: square"/>
   </g>
   <g id="patch_15">
    <path d="M 1376.081293 811.620625 
L 1376.081293 594.700625 
" style="fill: none; stroke: #000000; stroke-width: 0.8; stroke-linejoin: miter; stroke-linecap: square"/>
   </g>
   <g id="patch_16">
    <path d="M 56.6375 811.620625 
L 1376.081293 811.620625 
" style="fill: none; stroke: #000000; stroke-width: 0.8; stroke-linejoin: miter; stroke-linecap: square"/>
   </g>
   <g id="patch_17">
    <path d="M 56.6375 594.700625 
L 1376.081293 594.700625 
" style="fill: none; stroke: #000000; stroke-width: 0.8; stroke-linejoin: miter; stroke-linecap: square"/>
   </g>
   <g id="text_45">
    <!-- API_ID: 4 -->
    <g transform="translate(671.359396 588.700625) scale(0.2 -0.2)">
     <defs>
      <path id="SimSun-34" d="M 2300 575 
Q 2300 400 2400 325 
Q 2500 250 2675 250 
L 2900 250 
L 2900 100 
L 1250 100 
L 1250 250 
L 1525 250 
Q 1725 250 1812 325 
Q 1900 400 1900 575 
L 1900 1400 
L 225 1400 
L 225 1525 
L 2050 4425 
L 2300 4425 
L 2300 1550 
L 2975 1550 
L 2975 1400 
L 2300 1400 
L 2300 575 
z
M 1875 3800 
L 450 1550 
L 1900 1550 
L 1900 3800 
L 1875 3800 
z
" transform="scale(0.015625)"/>
     </defs>
     <use xlink:href="#SimSun-41"/>
     <use xlink:href="#SimSun-50" x="50"/>
     <use xlink:href="#SimSun-49" x="100"/>
     <use xlink:href="#SimSun-5f" x="150"/>
     <use xlink:href="#SimSun-49" x="200"/>
     <use xlink:href="#SimSun-44" x="250"/>
     <use xlink:href="#SimSun-3a" x="300"/>
     <use xlink:href="#SimSun-20" x="350"/>
     <use xlink:href="#SimSun-34" x="400"/>
    </g>
   </g>
  </g>
  <g id="axes_4">
   <g id="patch_18">
    <path d="M 56.6375 1095.300625 
L 1376.081293 1095.300625 
L 1376.081293 878.380625 
L 56.6375 878.380625 
z
" style="fill: #ffffff"/>
   </g>
   <g id="matplotlib.axis_7">
    <g id="xtick_25">
     <g id="line2d_49">
      <g>
       <use xlink:href="#mbcb627f0ef" x="116.612218" y="1095.300625" style="stroke: #000000; stroke-width: 0.8"/>
      </g>
     </g>
     <g id="text_46">
      <!-- 0 -->
      <g transform="translate(111.612218 1116.188125) scale(0.2 -0.2)">
       <use xlink:href="#TimesNewRomanPSMT-30"/>
      </g>
     </g>
    </g>
    <g id="xtick_26">
     <g id="line2d_50">
      <g>
       <use xlink:href="#mbcb627f0ef" x="296.177241" y="1095.300625" style="stroke: #000000; stroke-width: 0.8"/>
      </g>
     </g>
     <g id="text_47">
      <!-- 25 -->
      <g transform="translate(286.177241 1116.188125) scale(0.2 -0.2)">
       <use xlink:href="#TimesNewRomanPSMT-32"/>
       <use xlink:href="#TimesNewRomanPSMT-35" x="50"/>
      </g>
     </g>
    </g>
    <g id="xtick_27">
     <g id="line2d_51">
      <g>
       <use xlink:href="#mbcb627f0ef" x="475.742265" y="1095.300625" style="stroke: #000000; stroke-width: 0.8"/>
      </g>
     </g>
     <g id="text_48">
      <!-- 50 -->
      <g transform="translate(465.742265 1116.188125) scale(0.2 -0.2)">
       <use xlink:href="#TimesNewRomanPSMT-35"/>
       <use xlink:href="#TimesNewRomanPSMT-30" x="50"/>
      </g>
     </g>
    </g>
    <g id="xtick_28">
     <g id="line2d_52">
      <g>
       <use xlink:href="#mbcb627f0ef" x="655.307288" y="1095.300625" style="stroke: #000000; stroke-width: 0.8"/>
      </g>
     </g>
     <g id="text_49">
      <!-- 75 -->
      <g transform="translate(645.307288 1116.188125) scale(0.2 -0.2)">
       <use xlink:href="#TimesNewRomanPSMT-37"/>
       <use xlink:href="#TimesNewRomanPSMT-35" x="50"/>
      </g>
     </g>
    </g>
    <g id="xtick_29">
     <g id="line2d_53">
      <g>
       <use xlink:href="#mbcb627f0ef" x="834.872312" y="1095.300625" style="stroke: #000000; stroke-width: 0.8"/>
      </g>
     </g>
     <g id="text_50">
      <!-- 100 -->
      <g transform="translate(819.872312 1116.188125) scale(0.2 -0.2)">
       <use xlink:href="#TimesNewRomanPSMT-31"/>
       <use xlink:href="#TimesNewRomanPSMT-30" x="50"/>
       <use xlink:href="#TimesNewRomanPSMT-30" x="100"/>
      </g>
     </g>
    </g>
    <g id="xtick_30">
     <g id="line2d_54">
      <g>
       <use xlink:href="#mbcb627f0ef" x="1014.437335" y="1095.300625" style="stroke: #000000; stroke-width: 0.8"/>
      </g>
     </g>
     <g id="text_51">
      <!-- 125 -->
      <g transform="translate(999.437335 1116.188125) scale(0.2 -0.2)">
       <use xlink:href="#TimesNewRomanPSMT-31"/>
       <use xlink:href="#TimesNewRomanPSMT-32" x="50"/>
       <use xlink:href="#TimesNewRomanPSMT-35" x="100"/>
      </g>
     </g>
    </g>
    <g id="xtick_31">
     <g id="line2d_55">
      <g>
       <use xlink:href="#mbcb627f0ef" x="1194.002359" y="1095.300625" style="stroke: #000000; stroke-width: 0.8"/>
      </g>
     </g>
     <g id="text_52">
      <!-- 150 -->
      <g transform="translate(1179.002359 1116.188125) scale(0.2 -0.2)">
       <use xlink:href="#TimesNewRomanPSMT-31"/>
       <use xlink:href="#TimesNewRomanPSMT-35" x="50"/>
       <use xlink:href="#TimesNewRomanPSMT-30" x="100"/>
      </g>
     </g>
    </g>
    <g id="xtick_32">
     <g id="line2d_56">
      <g>
       <use xlink:href="#mbcb627f0ef" x="1373.567383" y="1095.300625" style="stroke: #000000; stroke-width: 0.8"/>
      </g>
     </g>
     <g id="text_53">
      <!-- 175 -->
      <g transform="translate(1358.567383 1116.188125) scale(0.2 -0.2)">
       <use xlink:href="#TimesNewRomanPSMT-31"/>
       <use xlink:href="#TimesNewRomanPSMT-37" x="50"/>
       <use xlink:href="#TimesNewRomanPSMT-35" x="100"/>
      </g>
     </g>
    </g>
   </g>
   <g id="matplotlib.axis_8">
    <g id="ytick_14">
     <g id="line2d_57">
      <g>
       <use xlink:href="#m6c37b4c096" x="56.6375" y="1054.81031" style="stroke: #000000; stroke-width: 0.8"/>
      </g>
     </g>
     <g id="text_54">
      <!-- 10 -->
      <g transform="translate(29.6375 1061.75406) scale(0.2 -0.2)">
       <use xlink:href="#TimesNewRomanPSMT-31"/>
       <use xlink:href="#TimesNewRomanPSMT-30" x="50"/>
      </g>
     </g>
    </g>
    <g id="ytick_15">
     <g id="line2d_58">
      <g>
       <use xlink:href="#m6c37b4c096" x="56.6375" y="1008.540953" style="stroke: #000000; stroke-width: 0.8"/>
      </g>
     </g>
     <g id="text_55">
      <!-- 20 -->
      <g transform="translate(29.6375 1015.484703) scale(0.2 -0.2)">
       <use xlink:href="#TimesNewRomanPSMT-32"/>
       <use xlink:href="#TimesNewRomanPSMT-30" x="50"/>
      </g>
     </g>
    </g>
    <g id="ytick_16">
     <g id="line2d_59">
      <g>
       <use xlink:href="#m6c37b4c096" x="56.6375" y="962.271596" style="stroke: #000000; stroke-width: 0.8"/>
      </g>
     </g>
     <g id="text_56">
      <!-- 30 -->
      <g transform="translate(29.6375 969.215346) scale(0.2 -0.2)">
       <defs>
        <path id="TimesNewRomanPSMT-33" d="M 325 3431 
Q 506 3859 782 4092 
Q 1059 4325 1472 4325 
Q 1981 4325 2253 3994 
Q 2459 3747 2459 3466 
Q 2459 3003 1878 2509 
Q 2269 2356 2469 2072 
Q 2669 1788 2669 1403 
Q 2669 853 2319 450 
Q 1863 -75 997 -75 
Q 569 -75 414 31 
Q 259 138 259 259 
Q 259 350 332 419 
Q 406 488 509 488 
Q 588 488 669 463 
Q 722 447 909 348 
Q 1097 250 1169 231 
Q 1284 197 1416 197 
Q 1734 197 1970 444 
Q 2206 691 2206 1028 
Q 2206 1275 2097 1509 
Q 2016 1684 1919 1775 
Q 1784 1900 1550 2001 
Q 1316 2103 1072 2103 
L 972 2103 
L 972 2197 
Q 1219 2228 1467 2375 
Q 1716 2522 1828 2728 
Q 1941 2934 1941 3181 
Q 1941 3503 1739 3701 
Q 1538 3900 1238 3900 
Q 753 3900 428 3381 
L 325 3431 
z
" transform="scale(0.015625)"/>
       </defs>
       <use xlink:href="#TimesNewRomanPSMT-33"/>
       <use xlink:href="#TimesNewRomanPSMT-30" x="50"/>
      </g>
     </g>
    </g>
    <g id="ytick_17">
     <g id="line2d_60">
      <g>
       <use xlink:href="#m6c37b4c096" x="56.6375" y="916.002239" style="stroke: #000000; stroke-width: 0.8"/>
      </g>
     </g>
     <g id="text_57">
      <!-- 40 -->
      <g transform="translate(29.6375 922.945989) scale(0.2 -0.2)">
       <use xlink:href="#TimesNewRomanPSMT-34"/>
       <use xlink:href="#TimesNewRomanPSMT-30" x="50"/>
      </g>
     </g>
    </g>
    <g id="text_58">
     <!-- CPU使用率 -->
     <g transform="translate(23.059375 1031.840625) rotate(-90) scale(0.2 -0.2)">
      <use xlink:href="#SimSun-43"/>
      <use xlink:href="#SimSun-50" x="50"/>
      <use xlink:href="#SimSun-55" x="100"/>
      <use xlink:href="#SimSun-4f7f" x="150"/>
      <use xlink:href="#SimSun-7528" x="250"/>
      <use xlink:href="#SimSun-7387" x="350"/>
     </g>
    </g>
   </g>
   <g id="line2d_61">
    <path d="M 116.612218 996.187034 
L 123.794819 969.99857 
L 130.97742 975.365815 
L 138.160021 1015.111202 
L 145.342622 1028.020357 
L 152.525223 1034.45179 
L 159.707824 1037.690649 
L 166.890424 1039.310078 
L 174.073025 1030.889052 
L 181.255626 1042.826546 
L 188.438227 1025.70688 
L 195.620828 1035.608529 
L 202.803429 1022.097876 
L 209.98603 1040.744426 
L 217.168631 1050.090834 
L 224.351232 1064.017911 
L 238.716434 1073.318053 
L 245.899035 1075.631521 
L 253.081636 1083.728658 
L 260.264237 1085.440625 
L 267.446838 1077.065871 
L 274.629439 1061.334289 
L 281.81204 1018.720215 
L 288.99464 1009.00364 
L 296.177241 957.876004 
L 303.359842 934.648784 
L 310.542443 892.913822 
L 317.725044 906.794647 
L 324.907645 922.942643 
L 332.090246 896.337762 
L 339.272847 929.327819 
L 346.455448 927.291974 
L 353.638049 919.333639 
L 360.82065 947.743021 
L 368.003251 945.753437 
L 375.185852 991.004863 
L 382.368453 981.288296 
L 389.551054 964.816407 
L 396.733655 956.626729 
L 403.916255 943.254905 
L 411.098856 966.620918 
L 418.281457 955.192381 
L 425.464058 958.755124 
L 432.646659 925.811356 
L 439.82926 1001.878163 
L 447.011861 1007.523022 
L 454.194462 1049.674409 
L 461.377063 1063.786563 
L 468.559664 1080.119647 
L 475.742265 1083.682389 
L 482.924866 1071.559817 
L 490.107467 1067.811999 
L 497.290068 1072.85536 
L 504.472669 1061.519366 
L 511.65527 1067.441845 
L 518.837871 1033.341331 
L 526.020471 1032.508481 
L 533.203072 1036.718992 
L 540.385673 1034.220447 
L 547.568274 1019.04409 
L 554.750875 1018.442593 
L 561.933476 1001.924434 
L 569.116077 995.955682 
L 576.298678 997.621382 
L 583.481279 977.633021 
L 590.66388 993.086987 
L 597.846481 993.873567 
L 605.029082 1005.857331 
L 612.211683 1011.826073 
L 619.394284 1044.8624 
L 626.576885 1029.03828 
L 633.759486 1021.079945 
L 640.942087 1019.460524 
L 648.124687 1030.195014 
L 655.307288 1010.114112 
L 662.489889 1016.267936 
L 669.67249 1003.127438 
L 676.855091 1019.738138 
L 684.037692 1055.781967 
L 691.220293 1055.273005 
L 698.402894 1066.608997 
L 705.585495 1076.927064 
L 712.768096 1077.436025 
L 719.950697 1084.607776 
L 727.133298 1072.022512 
L 734.315899 1072.670283 
L 741.4985 1059.113362 
L 748.681101 1077.80618 
L 755.863702 1070.912046 
L 763.046303 1011.964884 
L 770.228903 975.550897 
L 777.411504 985.128652 
L 784.594105 976.013592 
L 791.776706 929.790505 
L 798.959307 925.209849 
L 806.141908 902.121432 
L 813.324509 892.867578 
L 820.50711 888.240625 
L 827.689711 902.121432 
L 834.872312 913.688771 
L 842.054913 907.905102 
L 849.237514 895.736256 
L 856.420115 938.257806 
L 863.602716 959.541703 
L 870.785317 979.391262 
L 877.967918 982.398759 
L 885.150519 963.104446 
L 892.333119 953.43415 
L 899.51572 964.770137 
L 906.698321 977.401669 
L 913.880922 976.800171 
L 921.063523 1006.551369 
L 928.246124 1007.523022 
L 935.428725 1031.16667 
L 942.611326 1059.205898 
L 949.793927 1054.671503 
L 956.976528 1052.450572 
L 964.159129 1058.234241 
L 971.34173 1038.014537 
L 978.524331 1041.808619 
L 985.706932 1029.778589 
L 992.889533 1046.94452 
L 1000.072134 1013.861927 
L 1007.254735 1001.924434 
L 1014.437335 984.434614 
L 1021.619936 980.270373 
L 1028.802537 966.66718 
L 1035.985138 973.700124 
L 1043.167739 977.262867 
L 1050.35034 981.334575 
L 1057.532941 1027.326314 
L 1064.715542 1043.381782 
L 1071.898143 1039.81904 
L 1079.080744 1038.060803 
L 1086.263345 1027.927816 
L 1093.445946 1043.705662 
L 1100.628547 1009.92903 
L 1107.811148 1018.488863 
L 1114.993749 1031.999516 
L 1122.17635 1031.860709 
L 1129.358951 1050.275915 
L 1136.541551 1047.916177 
L 1143.724152 1051.340108 
L 1150.906753 1064.665684 
L 1158.089354 1064.341797 
L 1165.271955 1064.202991 
L 1172.454556 1075.724059 
L 1179.637157 1060.64025 
L 1186.819758 1073.919555 
L 1194.002359 1055.087924 
L 1201.18496 1050.322181 
L 1208.367561 1050.275915 
L 1215.550162 1017.841095 
L 1222.732763 1006.227485 
L 1229.915364 974.995669 
L 1237.097965 938.58169 
L 1244.280566 943.486231 
L 1251.463167 950.565454 
L 1258.645767 949.454982 
L 1265.828368 946.632549 
L 1273.010969 901.242321 
L 1280.19357 906.285681 
L 1287.376171 908.830492 
L 1294.558772 917.066432 
L 1301.741373 955.84015 
L 1308.923974 991.467558 
L 1316.106575 1004.608056 
L 1316.106575 1004.608056 
" clip-path="url(#p8334763ef7)" style="fill: none; stroke: #1f77b4; stroke-width: 1.5; stroke-linecap: square"/>
   </g>
   <g id="line2d_62">
    <path d="M 1150.906753 1031.672988 
L 1158.089354 1032.31401 
L 1165.271955 1031.538656 
L 1172.454556 1033.247047 
L 1179.637157 1035.594382 
L 1186.819758 1034.231081 
L 1194.002359 1036.510458 
L 1201.18496 1035.342233 
L 1208.367561 1034.951304 
L 1215.550162 1036.395399 
L 1222.732763 1036.82376 
L 1229.915364 1036.713269 
L 1237.097965 1037.370948 
L 1244.280566 1037.165215 
L 1251.463167 1037.926378 
L 1258.645767 1036.400995 
L 1265.828368 1036.255357 
L 1273.010969 1036.947798 
L 1280.19357 1036.442063 
L 1287.376171 1035.47586 
L 1294.558772 1033.67318 
L 1301.741373 1034.108584 
L 1308.923974 1033.679848 
L 1316.106575 1031.969497 
" clip-path="url(#p8334763ef7)" style="fill: none; stroke: #ff7f0e; stroke-width: 1.5; stroke-linecap: square"/>
   </g>
   <g id="line2d_63">
    <path d="M 1150.906753 1095.300625 
L 1150.906753 878.380625 
" clip-path="url(#p8334763ef7)" style="fill: none; stroke-dasharray: 7.4,3.2; stroke-dashoffset: 0; stroke: #0000ff; stroke-width: 2"/>
   </g>
   <g id="patch_19">
    <path d="M 56.6375 1095.300625 
L 56.6375 878.380625 
" style="fill: none; stroke: #000000; stroke-width: 0.8; stroke-linejoin: miter; stroke-linecap: square"/>
   </g>
   <g id="patch_20">
    <path d="M 1376.081293 1095.300625 
L 1376.081293 878.380625 
" style="fill: none; stroke: #000000; stroke-width: 0.8; stroke-linejoin: miter; stroke-linecap: square"/>
   </g>
   <g id="patch_21">
    <path d="M 56.6375 1095.300625 
L 1376.081293 1095.300625 
" style="fill: none; stroke: #000000; stroke-width: 0.8; stroke-linejoin: miter; stroke-linecap: square"/>
   </g>
   <g id="patch_22">
    <path d="M 56.6375 878.380625 
L 1376.081293 878.380625 
" style="fill: none; stroke: #000000; stroke-width: 0.8; stroke-linejoin: miter; stroke-linecap: square"/>
   </g>
   <g id="text_59">
    <!-- API_ID: 5 -->
    <g transform="translate(671.359396 872.380625) scale(0.2 -0.2)">
     <defs>
      <path id="SimSun-35" d="M 1725 2850 
Q 2200 2850 2500 2487 
Q 2800 2125 2800 1525 
Q 2800 850 2487 450 
Q 2175 50 1525 50 
Q 1075 50 725 312 
Q 375 575 375 950 
Q 375 1100 462 1212 
Q 550 1325 700 1325 
Q 850 1325 900 1225 
Q 950 1125 950 1050 
Q 950 900 875 825 
Q 800 725 800 625 
Q 800 425 1037 325 
Q 1275 225 1550 225 
Q 1950 225 2162 550 
Q 2375 875 2375 1475 
Q 2375 1975 2187 2287 
Q 2000 2600 1625 2600 
Q 1350 2600 1150 2500 
Q 950 2400 775 2075 
L 550 2100 
L 675 4375 
L 2725 4375 
L 2650 4000 
L 850 4000 
L 750 2350 
Q 1000 2700 1237 2775 
Q 1475 2850 1725 2850 
z
" transform="scale(0.015625)"/>
     </defs>
     <use xlink:href="#SimSun-41"/>
     <use xlink:href="#SimSun-50" x="50"/>
     <use xlink:href="#SimSun-49" x="100"/>
     <use xlink:href="#SimSun-5f" x="150"/>
     <use xlink:href="#SimSun-49" x="200"/>
     <use xlink:href="#SimSun-44" x="250"/>
     <use xlink:href="#SimSun-3a" x="300"/>
     <use xlink:href="#SimSun-20" x="350"/>
     <use xlink:href="#SimSun-35" x="400"/>
    </g>
   </g>
  </g>
  <g id="axes_5">
   <g id="patch_23">
    <path d="M 56.6375 1378.980625 
L 1376.081293 1378.980625 
L 1376.081293 1162.060625 
L 56.6375 1162.060625 
z
" style="fill: #ffffff"/>
   </g>
   <g id="matplotlib.axis_9">
    <g id="xtick_33">
     <g id="line2d_64">
      <g>
       <use xlink:href="#mbcb627f0ef" x="116.612218" y="1378.980625" style="stroke: #000000; stroke-width: 0.8"/>
      </g>
     </g>
     <g id="text_60">
      <!-- 0 -->
      <g transform="translate(111.612218 1399.868125) scale(0.2 -0.2)">
       <use xlink:href="#TimesNewRomanPSMT-30"/>
      </g>
     </g>
    </g>
    <g id="xtick_34">
     <g id="line2d_65">
      <g>
       <use xlink:href="#mbcb627f0ef" x="296.177241" y="1378.980625" style="stroke: #000000; stroke-width: 0.8"/>
      </g>
     </g>
     <g id="text_61">
      <!-- 25 -->
      <g transform="translate(286.177241 1399.868125) scale(0.2 -0.2)">
       <use xlink:href="#TimesNewRomanPSMT-32"/>
       <use xlink:href="#TimesNewRomanPSMT-35" x="50"/>
      </g>
     </g>
    </g>
    <g id="xtick_35">
     <g id="line2d_66">
      <g>
       <use xlink:href="#mbcb627f0ef" x="475.742265" y="1378.980625" style="stroke: #000000; stroke-width: 0.8"/>
      </g>
     </g>
     <g id="text_62">
      <!-- 50 -->
      <g transform="translate(465.742265 1399.868125) scale(0.2 -0.2)">
       <use xlink:href="#TimesNewRomanPSMT-35"/>
       <use xlink:href="#TimesNewRomanPSMT-30" x="50"/>
      </g>
     </g>
    </g>
    <g id="xtick_36">
     <g id="line2d_67">
      <g>
       <use xlink:href="#mbcb627f0ef" x="655.307288" y="1378.980625" style="stroke: #000000; stroke-width: 0.8"/>
      </g>
     </g>
     <g id="text_63">
      <!-- 75 -->
      <g transform="translate(645.307288 1399.868125) scale(0.2 -0.2)">
       <use xlink:href="#TimesNewRomanPSMT-37"/>
       <use xlink:href="#TimesNewRomanPSMT-35" x="50"/>
      </g>
     </g>
    </g>
    <g id="xtick_37">
     <g id="line2d_68">
      <g>
       <use xlink:href="#mbcb627f0ef" x="834.872312" y="1378.980625" style="stroke: #000000; stroke-width: 0.8"/>
      </g>
     </g>
     <g id="text_64">
      <!-- 100 -->
      <g transform="translate(819.872312 1399.868125) scale(0.2 -0.2)">
       <use xlink:href="#TimesNewRomanPSMT-31"/>
       <use xlink:href="#TimesNewRomanPSMT-30" x="50"/>
       <use xlink:href="#TimesNewRomanPSMT-30" x="100"/>
      </g>
     </g>
    </g>
    <g id="xtick_38">
     <g id="line2d_69">
      <g>
       <use xlink:href="#mbcb627f0ef" x="1014.437335" y="1378.980625" style="stroke: #000000; stroke-width: 0.8"/>
      </g>
     </g>
     <g id="text_65">
      <!-- 125 -->
      <g transform="translate(999.437335 1399.868125) scale(0.2 -0.2)">
       <use xlink:href="#TimesNewRomanPSMT-31"/>
       <use xlink:href="#TimesNewRomanPSMT-32" x="50"/>
       <use xlink:href="#TimesNewRomanPSMT-35" x="100"/>
      </g>
     </g>
    </g>
    <g id="xtick_39">
     <g id="line2d_70">
      <g>
       <use xlink:href="#mbcb627f0ef" x="1194.002359" y="1378.980625" style="stroke: #000000; stroke-width: 0.8"/>
      </g>
     </g>
     <g id="text_66">
      <!-- 150 -->
      <g transform="translate(1179.002359 1399.868125) scale(0.2 -0.2)">
       <use xlink:href="#TimesNewRomanPSMT-31"/>
       <use xlink:href="#TimesNewRomanPSMT-35" x="50"/>
       <use xlink:href="#TimesNewRomanPSMT-30" x="100"/>
      </g>
     </g>
    </g>
    <g id="xtick_40">
     <g id="line2d_71">
      <g>
       <use xlink:href="#mbcb627f0ef" x="1373.567383" y="1378.980625" style="stroke: #000000; stroke-width: 0.8"/>
      </g>
     </g>
     <g id="text_67">
      <!-- 175 -->
      <g transform="translate(1358.567383 1399.868125) scale(0.2 -0.2)">
       <use xlink:href="#TimesNewRomanPSMT-31"/>
       <use xlink:href="#TimesNewRomanPSMT-37" x="50"/>
       <use xlink:href="#TimesNewRomanPSMT-35" x="100"/>
      </g>
     </g>
    </g>
   </g>
   <g id="matplotlib.axis_10">
    <g id="ytick_18">
     <g id="line2d_72">
      <g>
       <use xlink:href="#m6c37b4c096" x="56.6375" y="1372.841381" style="stroke: #000000; stroke-width: 0.8"/>
      </g>
     </g>
     <g id="text_68">
      <!-- 0 -->
      <g transform="translate(39.6375 1379.785131) scale(0.2 -0.2)">
       <use xlink:href="#TimesNewRomanPSMT-30"/>
      </g>
     </g>
    </g>
    <g id="ytick_19">
     <g id="line2d_73">
      <g>
       <use xlink:href="#m6c37b4c096" x="56.6375" y="1298.426286" style="stroke: #000000; stroke-width: 0.8"/>
      </g>
     </g>
     <g id="text_69">
      <!-- 20 -->
      <g transform="translate(29.6375 1305.370036) scale(0.2 -0.2)">
       <use xlink:href="#TimesNewRomanPSMT-32"/>
       <use xlink:href="#TimesNewRomanPSMT-30" x="50"/>
      </g>
     </g>
    </g>
    <g id="ytick_20">
     <g id="line2d_74">
      <g>
       <use xlink:href="#m6c37b4c096" x="56.6375" y="1224.011191" style="stroke: #000000; stroke-width: 0.8"/>
      </g>
     </g>
     <g id="text_70">
      <!-- 40 -->
      <g transform="translate(29.6375 1230.954941) scale(0.2 -0.2)">
       <use xlink:href="#TimesNewRomanPSMT-34"/>
       <use xlink:href="#TimesNewRomanPSMT-30" x="50"/>
      </g>
     </g>
    </g>
    <g id="text_71">
     <!-- CPU使用率 -->
     <g transform="translate(23.059375 1315.520625) rotate(-90) scale(0.2 -0.2)">
      <use xlink:href="#SimSun-43"/>
      <use xlink:href="#SimSun-50" x="50"/>
      <use xlink:href="#SimSun-55" x="100"/>
      <use xlink:href="#SimSun-4f7f" x="150"/>
      <use xlink:href="#SimSun-7528" x="250"/>
      <use xlink:href="#SimSun-7387" x="350"/>
     </g>
    </g>
   </g>
   <g id="line2d_75">
    <path d="M 116.612218 1309.58855 
L 123.794819 1279.822505 
L 130.97742 1276.101758 
L 138.160021 1279.822505 
L 145.342622 1294.705531 
L 152.525223 1246.33572 
L 159.707824 1276.101758 
L 166.890424 1335.633833 
L 174.073025 1324.471569 
L 195.620828 1324.471569 
L 202.803429 1309.58855 
L 209.98603 1335.633833 
L 217.168631 1298.426286 
L 224.351232 1328.192324 
L 231.533833 1298.426286 
L 238.716434 1339.354588 
L 245.899035 1339.354588 
L 253.081636 1354.237607 
L 260.264237 1350.516852 
L 267.446838 1354.237607 
L 274.629439 1354.237607 
L 281.81204 1365.39987 
L 288.99464 1361.679116 
L 296.177241 1346.796097 
L 303.359842 1328.192324 
L 310.542443 1272.380996 
L 317.725044 1290.984776 
L 324.907645 1216.569682 
L 332.090246 1220.290451 
L 339.272847 1171.920625 
L 346.455448 1227.731946 
L 353.638049 1242.614965 
L 360.82065 1186.803644 
L 368.003251 1261.218739 
L 375.185852 1231.452715 
L 382.368453 1220.290451 
L 389.551054 1272.380996 
L 396.733655 1246.33572 
L 403.916255 1320.750814 
L 411.098856 1268.660248 
L 418.281457 1250.056474 
L 425.464058 1250.056474 
L 432.646659 1235.173455 
L 439.82926 1283.543267 
L 447.011861 1246.33572 
L 454.194462 1261.218739 
L 461.377063 1205.407432 
L 468.559664 1354.237607 
L 475.742265 1302.147041 
L 482.924866 1365.39987 
L 490.107467 1354.237607 
L 497.290068 1369.120625 
L 504.472669 1361.679116 
L 511.65527 1339.354588 
L 518.837871 1343.075343 
L 526.020471 1354.237607 
L 533.203072 1331.913079 
L 540.385673 1350.516852 
L 547.568274 1290.984776 
L 554.750875 1317.030063 
L 561.933476 1324.471569 
L 569.116077 1317.030063 
L 576.298678 1294.705531 
L 583.481279 1305.867795 
L 590.66388 1279.822505 
L 597.846481 1283.543267 
L 605.029082 1290.984776 
L 612.211683 1257.497984 
L 619.394284 1298.426286 
L 626.576885 1287.264015 
L 633.759486 1305.867795 
L 640.942087 1305.867795 
L 648.124687 1354.237607 
L 655.307288 1302.147041 
L 662.489889 1302.147041 
L 669.67249 1305.867795 
L 676.855091 1324.471569 
L 684.037692 1283.543267 
L 691.220293 1309.58855 
L 698.402894 1283.543267 
L 705.585495 1320.750814 
L 712.768096 1365.39987 
L 719.950697 1335.633833 
L 727.133298 1354.237607 
L 734.315899 1361.679116 
L 741.4985 1354.237607 
L 748.681101 1365.39987 
L 755.863702 1339.354588 
L 763.046303 1350.516852 
L 770.228903 1328.192324 
L 777.411504 1369.120625 
L 784.594105 1343.075343 
L 791.776706 1253.777229 
L 798.959307 1242.614965 
L 806.141908 1287.264015 
L 813.324509 1264.939486 
L 820.50711 1197.965908 
L 827.689711 1227.731946 
L 834.872312 1194.245168 
L 842.054913 1197.965908 
L 849.237514 1197.965908 
L 856.420115 1224.011191 
L 863.602716 1231.452715 
L 870.785317 1212.848927 
L 877.967918 1197.965908 
L 885.150519 1276.101758 
L 892.333119 1276.101758 
L 899.51572 1290.984776 
L 906.698321 1279.822505 
L 913.880922 1246.33572 
L 921.063523 1246.33572 
L 928.246124 1272.380996 
L 935.428725 1283.543267 
L 942.611326 1272.380996 
L 949.793927 1320.750814 
L 956.976528 1298.426286 
L 964.159129 1335.633833 
L 971.34173 1361.679116 
L 978.524331 1331.913079 
L 985.706932 1331.913079 
L 992.889533 1343.075343 
L 1000.072134 1305.867795 
L 1007.254735 1328.192324 
L 1014.437335 1305.867795 
L 1021.619936 1343.075343 
L 1028.802537 1276.101758 
L 1035.985138 1283.543267 
L 1043.167739 1264.939486 
L 1050.35034 1272.380996 
L 1057.532941 1253.777229 
L 1064.715542 1276.101758 
L 1071.898143 1276.101758 
L 1079.080744 1279.822505 
L 1086.263345 1350.516852 
L 1093.445946 1339.354588 
L 1100.628547 1320.750814 
L 1107.811148 1320.750814 
L 1114.993749 1305.867795 
L 1122.17635 1339.354588 
L 1129.358951 1272.380996 
L 1136.541551 1313.309308 
L 1143.724152 1328.192324 
L 1150.906753 1317.030063 
L 1158.089354 1346.796097 
L 1165.271955 1328.192324 
L 1172.454556 1335.633833 
L 1179.637157 1354.237607 
L 1186.819758 1343.075343 
L 1194.002359 1343.075343 
L 1201.18496 1361.679116 
L 1208.367561 1328.192324 
L 1215.550162 1361.679116 
L 1222.732763 1320.750814 
L 1229.915364 1328.192324 
L 1237.097965 1331.913079 
L 1244.280566 1279.822505 
L 1251.463167 1287.264015 
L 1258.645767 1246.33572 
L 1265.828368 1212.848927 
L 1273.010969 1250.056474 
L 1280.19357 1257.497984 
L 1287.376171 1250.056474 
L 1294.558772 1246.33572 
L 1301.741373 1175.64138 
L 1308.923974 1220.290451 
L 1316.106575 1220.290451 
L 1316.106575 1220.290451 
" clip-path="url(#p7c18b26499)" style="fill: none; stroke: #1f77b4; stroke-width: 1.5; stroke-linecap: square"/>
   </g>
   <g id="line2d_76">
    <path d="M 1150.906753 1315.91241 
L 1158.089354 1316.440278 
L 1165.271955 1315.952269 
L 1172.454556 1317.419339 
L 1179.637157 1319.071898 
L 1186.819758 1318.007062 
L 1194.002359 1319.916418 
L 1201.18496 1319.006281 
L 1208.367561 1318.777219 
L 1215.550162 1319.916475 
L 1222.732763 1320.291099 
L 1229.915364 1320.229258 
L 1237.097965 1320.873255 
L 1244.280566 1320.714362 
L 1251.463167 1321.24657 
L 1258.645767 1320.181475 
L 1265.828368 1320.19294 
L 1273.010969 1321.089831 
L 1280.19357 1320.611561 
L 1287.376171 1319.998297 
L 1294.558772 1318.223936 
L 1301.741373 1318.848907 
L 1308.923974 1318.434757 
L 1316.106575 1316.874857 
" clip-path="url(#p7c18b26499)" style="fill: none; stroke: #ff7f0e; stroke-width: 1.5; stroke-linecap: square"/>
   </g>
   <g id="line2d_77">
    <path d="M 1150.906753 1378.980625 
L 1150.906753 1162.060625 
" clip-path="url(#p7c18b26499)" style="fill: none; stroke-dasharray: 7.4,3.2; stroke-dashoffset: 0; stroke: #0000ff; stroke-width: 2"/>
   </g>
   <g id="patch_24">
    <path d="M 56.6375 1378.980625 
L 56.6375 1162.060625 
" style="fill: none; stroke: #000000; stroke-width: 0.8; stroke-linejoin: miter; stroke-linecap: square"/>
   </g>
   <g id="patch_25">
    <path d="M 1376.081293 1378.980625 
L 1376.081293 1162.060625 
" style="fill: none; stroke: #000000; stroke-width: 0.8; stroke-linejoin: miter; stroke-linecap: square"/>
   </g>
   <g id="patch_26">
    <path d="M 56.6375 1378.980625 
L 1376.081293 1378.980625 
" style="fill: none; stroke: #000000; stroke-width: 0.8; stroke-linejoin: miter; stroke-linecap: square"/>
   </g>
   <g id="patch_27">
    <path d="M 56.6375 1162.060625 
L 1376.081293 1162.060625 
" style="fill: none; stroke: #000000; stroke-width: 0.8; stroke-linejoin: miter; stroke-linecap: square"/>
   </g>
   <g id="text_72">
    <!-- API_ID: 36 -->
    <g transform="translate(666.359396 1156.060625) scale(0.2 -0.2)">
     <defs>
      <path id="SimSun-36" d="M 775 1800 
Q 775 1050 1037 637 
Q 1300 225 1675 225 
Q 2050 225 2250 500 
Q 2450 775 2450 1525 
Q 2450 2025 2237 2300 
Q 2025 2575 1725 2575 
Q 1450 2575 1212 2412 
Q 975 2250 775 1800 
z
M 1750 2825 
Q 2350 2825 2612 2425 
Q 2875 2025 2875 1525 
Q 2875 775 2512 412 
Q 2150 50 1675 50 
Q 1000 50 650 562 
Q 300 1075 300 2050 
Q 300 3200 725 3812 
Q 1150 4425 1875 4425 
Q 2225 4425 2437 4225 
Q 2650 4025 2650 3875 
Q 2650 3725 2587 3650 
Q 2525 3575 2375 3575 
Q 2250 3575 2187 3637 
Q 2125 3700 2125 3825 
Q 2125 3875 2150 3925 
Q 2150 3975 2150 4025 
Q 2150 4125 2075 4187 
Q 2000 4250 1800 4250 
Q 1375 4250 1075 3862 
Q 775 3475 775 2175 
Q 925 2500 1187 2662 
Q 1450 2825 1750 2825 
z
" transform="scale(0.015625)"/>
     </defs>
     <use xlink:href="#SimSun-41"/>
     <use xlink:href="#SimSun-50" x="50"/>
     <use xlink:href="#SimSun-49" x="100"/>
     <use xlink:href="#SimSun-5f" x="150"/>
     <use xlink:href="#SimSun-49" x="200"/>
     <use xlink:href="#SimSun-44" x="250"/>
     <use xlink:href="#SimSun-3a" x="300"/>
     <use xlink:href="#SimSun-20" x="350"/>
     <use xlink:href="#SimSun-33" x="400"/>
     <use xlink:href="#SimSun-36" x="450"/>
    </g>
   </g>
  </g>
 </g>
 <defs>
  <clipPath id="pefd5f5c122">
   <rect x="56.6375" y="27.340625" width="1319.443793" height="216.92"/>
  </clipPath>
  <clipPath id="p814d2d20cd">
   <rect x="56.6375" y="311.020625" width="1319.443793" height="216.92"/>
  </clipPath>
  <clipPath id="pf86f3bf61b">
   <rect x="56.6375" y="594.700625" width="1319.443793" height="216.92"/>
  </clipPath>
  <clipPath id="p8334763ef7">
   <rect x="56.6375" y="878.380625" width="1319.443793" height="216.92"/>
  </clipPath>
  <clipPath id="p7c18b26499">
   <rect x="56.6375" y="1162.060625" width="1319.443793" height="216.92"/>
  </clipPath>
 </defs>
</svg>
