<?xml version="1.0" encoding="utf-8" standalone="no"?>
<!DOCTYPE svg PUBLIC "-//W3C//DTD SVG 1.1//EN"
  "http://www.w3.org/Graphics/SVG/1.1/DTD/svg11.dtd">
<svg xmlns:xlink="http://www.w3.org/1999/xlink" width="1404.509909pt" height="1411.34625pt" viewBox="0 0 1404.509909 1411.34625" xmlns="http://www.w3.org/2000/svg" version="1.1">
 <metadata>
  <rdf:RDF xmlns:dc="http://purl.org/dc/elements/1.1/" xmlns:cc="http://creativecommons.org/ns#" xmlns:rdf="http://www.w3.org/1999/02/22-rdf-syntax-ns#">
   <cc:Work>
    <dc:type rdf:resource="http://purl.org/dc/dcmitype/StillImage"/>
    <dc:date>2024-02-28T10:21:58.261443</dc:date>
    <dc:format>image/svg+xml</dc:format>
    <dc:creator>
     <cc:Agent>
      <dc:title>Matplotlib v3.7.4, https://matplotlib.org/</dc:title>
     </cc:Agent>
    </dc:creator>
   </cc:Work>
  </rdf:RDF>
 </metadata>
 <defs>
  <style type="text/css">*{stroke-linejoin: round; stroke-linecap: butt}</style>
 </defs>
 <g id="figure_1">
  <g id="patch_1">
   <path d="M 0 1411.34625 
L 1404.509909 1411.34625 
L 1404.509909 0 
L 0 0 
z
" style="fill: #ffffff"/>
  </g>
  <g id="axes_1">
   <g id="patch_2">
    <path d="M 56.6375 244.260625 
L 1392.429545 244.260625 
L 1392.429545 27.340625 
L 56.6375 27.340625 
z
" style="fill: #ffffff"/>
   </g>
   <g id="matplotlib.axis_1">
    <g id="xtick_1">
     <g id="line2d_1">
      <defs>
       <path id="m08339ad2e9" d="M 0 0 
L 0 3.5 
" style="stroke: #000000; stroke-width: 0.8"/>
      </defs>
      <g>
       <use xlink:href="#m08339ad2e9" x="117.35532" y="244.260625" style="stroke: #000000; stroke-width: 0.8"/>
      </g>
     </g>
     <g id="text_1">
      <!-- 0 -->
      <g transform="translate(112.35532 265.148125) scale(0.2 -0.2)">
       <defs>
        <path id="TimesNewRomanPSMT-30" d="M 231 2094 
Q 231 2819 450 3342 
Q 669 3866 1031 4122 
Q 1313 4325 1613 4325 
Q 2100 4325 2488 3828 
Q 2972 3213 2972 2159 
Q 2972 1422 2759 906 
Q 2547 391 2217 158 
Q 1888 -75 1581 -75 
Q 975 -75 572 641 
Q 231 1244 231 2094 
z
M 844 2016 
Q 844 1141 1059 588 
Q 1238 122 1591 122 
Q 1759 122 1940 273 
Q 2122 425 2216 781 
Q 2359 1319 2359 2297 
Q 2359 3022 2209 3506 
Q 2097 3866 1919 4016 
Q 1791 4119 1609 4119 
Q 1397 4119 1231 3928 
Q 1006 3669 925 3112 
Q 844 2556 844 2016 
z
" transform="scale(0.015625)"/>
       </defs>
       <use xlink:href="#TimesNewRomanPSMT-30"/>
      </g>
     </g>
    </g>
    <g id="xtick_2">
     <g id="line2d_2">
      <g>
       <use xlink:href="#m08339ad2e9" x="298.063119" y="244.260625" style="stroke: #000000; stroke-width: 0.8"/>
      </g>
     </g>
     <g id="text_2">
      <!-- 25 -->
      <g transform="translate(288.063119 265.148125) scale(0.2 -0.2)">
       <defs>
        <path id="TimesNewRomanPSMT-32" d="M 2934 816 
L 2638 0 
L 138 0 
L 138 116 
Q 1241 1122 1691 1759 
Q 2141 2397 2141 2925 
Q 2141 3328 1894 3587 
Q 1647 3847 1303 3847 
Q 991 3847 742 3664 
Q 494 3481 375 3128 
L 259 3128 
Q 338 3706 661 4015 
Q 984 4325 1469 4325 
Q 1984 4325 2329 3994 
Q 2675 3663 2675 3213 
Q 2675 2891 2525 2569 
Q 2294 2063 1775 1497 
Q 997 647 803 472 
L 1909 472 
Q 2247 472 2383 497 
Q 2519 522 2628 598 
Q 2738 675 2819 816 
L 2934 816 
z
" transform="scale(0.015625)"/>
        <path id="TimesNewRomanPSMT-35" d="M 2778 4238 
L 2534 3706 
L 1259 3706 
L 981 3138 
Q 1809 3016 2294 2522 
Q 2709 2097 2709 1522 
Q 2709 1188 2573 903 
Q 2438 619 2231 419 
Q 2025 219 1772 97 
Q 1413 -75 1034 -75 
Q 653 -75 479 54 
Q 306 184 306 341 
Q 306 428 378 495 
Q 450 563 559 563 
Q 641 563 702 538 
Q 763 513 909 409 
Q 1144 247 1384 247 
Q 1750 247 2026 523 
Q 2303 800 2303 1197 
Q 2303 1581 2056 1914 
Q 1809 2247 1375 2428 
Q 1034 2569 447 2591 
L 1259 4238 
L 2778 4238 
z
" transform="scale(0.015625)"/>
       </defs>
       <use xlink:href="#TimesNewRomanPSMT-32"/>
       <use xlink:href="#TimesNewRomanPSMT-35" x="50"/>
      </g>
     </g>
    </g>
    <g id="xtick_3">
     <g id="line2d_3">
      <g>
       <use xlink:href="#m08339ad2e9" x="478.770917" y="244.260625" style="stroke: #000000; stroke-width: 0.8"/>
      </g>
     </g>
     <g id="text_3">
      <!-- 50 -->
      <g transform="translate(468.770917 265.148125) scale(0.2 -0.2)">
       <use xlink:href="#TimesNewRomanPSMT-35"/>
       <use xlink:href="#TimesNewRomanPSMT-30" x="50"/>
      </g>
     </g>
    </g>
    <g id="xtick_4">
     <g id="line2d_4">
      <g>
       <use xlink:href="#m08339ad2e9" x="659.478715" y="244.260625" style="stroke: #000000; stroke-width: 0.8"/>
      </g>
     </g>
     <g id="text_4">
      <!-- 75 -->
      <g transform="translate(649.478715 265.148125) scale(0.2 -0.2)">
       <defs>
        <path id="TimesNewRomanPSMT-37" d="M 644 4238 
L 2916 4238 
L 2916 4119 
L 1503 -88 
L 1153 -88 
L 2419 3728 
L 1253 3728 
Q 900 3728 750 3644 
Q 488 3500 328 3200 
L 238 3234 
L 644 4238 
z
" transform="scale(0.015625)"/>
       </defs>
       <use xlink:href="#TimesNewRomanPSMT-37"/>
       <use xlink:href="#TimesNewRomanPSMT-35" x="50"/>
      </g>
     </g>
    </g>
    <g id="xtick_5">
     <g id="line2d_5">
      <g>
       <use xlink:href="#m08339ad2e9" x="840.186514" y="244.260625" style="stroke: #000000; stroke-width: 0.8"/>
      </g>
     </g>
     <g id="text_5">
      <!-- 100 -->
      <g transform="translate(825.186514 265.148125) scale(0.2 -0.2)">
       <defs>
        <path id="TimesNewRomanPSMT-31" d="M 750 3822 
L 1781 4325 
L 1884 4325 
L 1884 747 
Q 1884 391 1914 303 
Q 1944 216 2037 169 
Q 2131 122 2419 116 
L 2419 0 
L 825 0 
L 825 116 
Q 1125 122 1212 167 
Q 1300 213 1334 289 
Q 1369 366 1369 747 
L 1369 3034 
Q 1369 3497 1338 3628 
Q 1316 3728 1258 3775 
Q 1200 3822 1119 3822 
Q 1003 3822 797 3725 
L 750 3822 
z
" transform="scale(0.015625)"/>
       </defs>
       <use xlink:href="#TimesNewRomanPSMT-31"/>
       <use xlink:href="#TimesNewRomanPSMT-30" x="50"/>
       <use xlink:href="#TimesNewRomanPSMT-30" x="100"/>
      </g>
     </g>
    </g>
    <g id="xtick_6">
     <g id="line2d_6">
      <g>
       <use xlink:href="#m08339ad2e9" x="1020.894312" y="244.260625" style="stroke: #000000; stroke-width: 0.8"/>
      </g>
     </g>
     <g id="text_6">
      <!-- 125 -->
      <g transform="translate(1005.894312 265.148125) scale(0.2 -0.2)">
       <use xlink:href="#TimesNewRomanPSMT-31"/>
       <use xlink:href="#TimesNewRomanPSMT-32" x="50"/>
       <use xlink:href="#TimesNewRomanPSMT-35" x="100"/>
      </g>
     </g>
    </g>
    <g id="xtick_7">
     <g id="line2d_7">
      <g>
       <use xlink:href="#m08339ad2e9" x="1201.60211" y="244.260625" style="stroke: #000000; stroke-width: 0.8"/>
      </g>
     </g>
     <g id="text_7">
      <!-- 150 -->
      <g transform="translate(1186.60211 265.148125) scale(0.2 -0.2)">
       <use xlink:href="#TimesNewRomanPSMT-31"/>
       <use xlink:href="#TimesNewRomanPSMT-35" x="50"/>
       <use xlink:href="#TimesNewRomanPSMT-30" x="100"/>
      </g>
     </g>
    </g>
    <g id="xtick_8">
     <g id="line2d_8">
      <g>
       <use xlink:href="#m08339ad2e9" x="1382.309909" y="244.260625" style="stroke: #000000; stroke-width: 0.8"/>
      </g>
     </g>
     <g id="text_8">
      <!-- 175 -->
      <g transform="translate(1367.309909 265.148125) scale(0.2 -0.2)">
       <use xlink:href="#TimesNewRomanPSMT-31"/>
       <use xlink:href="#TimesNewRomanPSMT-37" x="50"/>
       <use xlink:href="#TimesNewRomanPSMT-35" x="100"/>
      </g>
     </g>
    </g>
   </g>
   <g id="matplotlib.axis_2">
    <g id="ytick_1">
     <g id="line2d_9">
      <defs>
       <path id="m187e8b3444" d="M 0 0 
L -3.5 0 
" style="stroke: #000000; stroke-width: 0.8"/>
      </defs>
      <g>
       <use xlink:href="#m187e8b3444" x="56.6375" y="236.710439" style="stroke: #000000; stroke-width: 0.8"/>
      </g>
     </g>
     <g id="text_9">
      <!-- 2 -->
      <g transform="translate(39.6375 243.654189) scale(0.2 -0.2)">
       <use xlink:href="#TimesNewRomanPSMT-32"/>
      </g>
     </g>
    </g>
    <g id="ytick_2">
     <g id="line2d_10">
      <g>
       <use xlink:href="#m187e8b3444" x="56.6375" y="178.965195" style="stroke: #000000; stroke-width: 0.8"/>
      </g>
     </g>
     <g id="text_10">
      <!-- 4 -->
      <g transform="translate(39.6375 185.908945) scale(0.2 -0.2)">
       <defs>
        <path id="TimesNewRomanPSMT-34" d="M 2978 1563 
L 2978 1119 
L 2409 1119 
L 2409 0 
L 1894 0 
L 1894 1119 
L 100 1119 
L 100 1519 
L 2066 4325 
L 2409 4325 
L 2409 1563 
L 2978 1563 
z
M 1894 1563 
L 1894 3666 
L 406 1563 
L 1894 1563 
z
" transform="scale(0.015625)"/>
       </defs>
       <use xlink:href="#TimesNewRomanPSMT-34"/>
      </g>
     </g>
    </g>
    <g id="ytick_3">
     <g id="line2d_11">
      <g>
       <use xlink:href="#m187e8b3444" x="56.6375" y="121.219951" style="stroke: #000000; stroke-width: 0.8"/>
      </g>
     </g>
     <g id="text_11">
      <!-- 6 -->
      <g transform="translate(39.6375 128.163701) scale(0.2 -0.2)">
       <defs>
        <path id="TimesNewRomanPSMT-36" d="M 2869 4325 
L 2869 4209 
Q 2456 4169 2195 4045 
Q 1934 3922 1679 3669 
Q 1425 3416 1258 3105 
Q 1091 2794 978 2366 
Q 1428 2675 1881 2675 
Q 2316 2675 2634 2325 
Q 2953 1975 2953 1425 
Q 2953 894 2631 456 
Q 2244 -75 1606 -75 
Q 1172 -75 869 213 
Q 275 772 275 1663 
Q 275 2231 503 2743 
Q 731 3256 1154 3653 
Q 1578 4050 1965 4187 
Q 2353 4325 2688 4325 
L 2869 4325 
z
M 925 2138 
Q 869 1716 869 1456 
Q 869 1156 980 804 
Q 1091 453 1309 247 
Q 1469 100 1697 100 
Q 1969 100 2183 356 
Q 2397 613 2397 1088 
Q 2397 1622 2184 2012 
Q 1972 2403 1581 2403 
Q 1463 2403 1327 2353 
Q 1191 2303 925 2138 
z
" transform="scale(0.015625)"/>
       </defs>
       <use xlink:href="#TimesNewRomanPSMT-36"/>
      </g>
     </g>
    </g>
    <g id="ytick_4">
     <g id="line2d_12">
      <g>
       <use xlink:href="#m187e8b3444" x="56.6375" y="63.474707" style="stroke: #000000; stroke-width: 0.8"/>
      </g>
     </g>
     <g id="text_12">
      <!-- 8 -->
      <g transform="translate(39.6375 70.418457) scale(0.2 -0.2)">
       <defs>
        <path id="TimesNewRomanPSMT-38" d="M 1228 2134 
Q 725 2547 579 2797 
Q 434 3047 434 3316 
Q 434 3728 753 4026 
Q 1072 4325 1600 4325 
Q 2113 4325 2425 4047 
Q 2738 3769 2738 3413 
Q 2738 3175 2569 2928 
Q 2400 2681 1866 2347 
Q 2416 1922 2594 1678 
Q 2831 1359 2831 1006 
Q 2831 559 2490 242 
Q 2150 -75 1597 -75 
Q 994 -75 656 303 
Q 388 606 388 966 
Q 388 1247 577 1523 
Q 766 1800 1228 2134 
z
M 1719 2469 
Q 2094 2806 2194 3001 
Q 2294 3197 2294 3444 
Q 2294 3772 2109 3958 
Q 1925 4144 1606 4144 
Q 1288 4144 1088 3959 
Q 888 3775 888 3528 
Q 888 3366 970 3203 
Q 1053 3041 1206 2894 
L 1719 2469 
z
M 1375 2016 
Q 1116 1797 991 1539 
Q 866 1281 866 981 
Q 866 578 1086 336 
Q 1306 94 1647 94 
Q 1984 94 2187 284 
Q 2391 475 2391 747 
Q 2391 972 2272 1150 
Q 2050 1481 1375 2016 
z
" transform="scale(0.015625)"/>
       </defs>
       <use xlink:href="#TimesNewRomanPSMT-38"/>
      </g>
     </g>
    </g>
    <g id="text_13">
     <!-- CPU使用率 -->
     <g transform="translate(33.059375 180.800625) rotate(-90) scale(0.2 -0.2)">
      <defs>
       <path id="SimSun-43" d="M 1725 50 
Q 1025 50 612 575 
Q 200 1100 200 2225 
Q 200 3175 637 3800 
Q 1075 4425 1825 4425 
Q 2000 4425 2175 4375 
Q 2350 4300 2475 4300 
Q 2575 4300 2637 4325 
Q 2700 4350 2750 4425 
L 2975 3325 
L 2825 3275 
Q 2675 3750 2425 4000 
Q 2175 4250 1775 4250 
Q 1250 4250 962 3675 
Q 675 3100 675 2250 
Q 675 1325 925 800 
Q 1175 275 1750 275 
Q 2150 275 2437 562 
Q 2725 850 2825 1325 
L 2975 1250 
Q 2850 725 2512 387 
Q 2175 50 1725 50 
z
" transform="scale(0.015625)"/>
       <path id="SimSun-50" d="M 950 2100 
L 950 450 
Q 950 350 1012 300 
Q 1075 250 1175 250 
L 1350 250 
L 1350 100 
L 150 100 
L 150 250 
L 325 250 
Q 450 250 500 300 
Q 550 350 550 450 
L 550 4025 
Q 550 4125 500 4175 
Q 450 4225 325 4225 
L 175 4225 
L 175 4375 
L 1650 4375 
Q 2275 4375 2612 4062 
Q 2950 3750 2950 3275 
Q 2950 2700 2587 2400 
Q 2225 2100 1725 2100 
L 950 2100 
z
M 1575 2250 
Q 1950 2250 2237 2475 
Q 2525 2700 2525 3250 
Q 2525 3750 2287 3987 
Q 2050 4225 1525 4225 
L 1175 4225 
Q 1075 4225 1012 4175 
Q 950 4125 950 4025 
L 950 2250 
L 1575 2250 
z
" transform="scale(0.015625)"/>
       <path id="SimSun-55" d="M 1625 250 
Q 2000 250 2262 500 
Q 2525 750 2525 1125 
L 2525 4025 
Q 2525 4125 2475 4175 
Q 2425 4225 2300 4225 
L 2150 4225 
L 2150 4375 
L 3050 4375 
L 3050 4225 
L 2900 4225 
Q 2800 4225 2737 4175 
Q 2675 4125 2675 4025 
L 2675 1125 
Q 2675 625 2337 337 
Q 2000 50 1575 50 
Q 1125 50 787 300 
Q 450 550 450 1100 
L 450 4025 
Q 450 4125 400 4175 
Q 350 4225 225 4225 
L 100 4225 
L 100 4375 
L 1200 4375 
L 1200 4225 
L 1075 4225 
Q 975 4225 912 4175 
Q 850 4125 850 4025 
L 850 1100 
Q 850 600 1062 425 
Q 1275 250 1625 250 
z
" transform="scale(0.015625)"/>
       <path id="SimSun-4f7f" d="M 2875 3150 
L 2875 2100 
L 3825 2100 
Q 3850 2825 3850 3150 
L 2875 3150 
z
M 4175 3150 
Q 4175 2800 4150 2100 
L 5150 2100 
L 5150 3150 
L 4175 3150 
z
M 5475 3100 
L 5475 2425 
Q 5475 2100 5500 1800 
L 5150 1675 
L 5150 1950 
L 4150 1950 
Q 4125 1175 3875 600 
Q 4275 275 4875 75 
Q 5475 -125 6075 -150 
L 6075 -250 
Q 5700 -300 5600 -575 
Q 4525 -325 3725 350 
Q 3425 25 2925 -225 
Q 2425 -475 1875 -650 
L 1825 -550 
Q 2400 -325 2850 -25 
Q 3300 275 3500 575 
Q 3200 925 2825 1650 
L 2900 1700 
Q 3325 1100 3625 825 
Q 3800 1300 3825 1950 
L 2875 1950 
L 2875 1825 
L 2525 1675 
Q 2550 2075 2550 2562 
Q 2550 3050 2525 3500 
L 2875 3300 
L 3850 3300 
L 3850 4025 
L 2975 4025 
Q 2650 4025 2375 3950 
L 2150 4175 
L 3850 4175 
L 3850 4525 
Q 3850 4775 3825 5225 
L 4350 5000 
L 4175 4825 
L 4175 4175 
L 5300 4175 
L 5600 4475 
L 6050 4025 
L 4175 4025 
L 4175 3300 
L 5100 3300 
L 5275 3525 
L 5650 3225 
L 5475 3100 
z
M 1675 3175 
L 1675 -450 
L 1325 -625 
Q 1350 -75 1350 350 
L 1350 3200 
Q 900 2475 350 1900 
L 275 1950 
Q 700 2525 1112 3400 
Q 1525 4275 1800 5250 
L 2325 4925 
L 2125 4800 
Q 1725 3925 1500 3525 
L 1875 3325 
L 1675 3175 
z
" transform="scale(0.015625)"/>
       <path id="SimSun-7528" d="M 3400 3150 
L 3400 1825 
L 5075 1825 
L 5075 3150 
L 3400 3150 
z
M 4075 100 
Q 4725 50 4900 62 
Q 5075 75 5075 400 
L 5075 1675 
L 3400 1675 
Q 3400 75 3425 -225 
L 3050 -400 
Q 3075 1025 3075 1675 
L 1425 1675 
Q 1250 350 375 -600 
L 300 -550 
Q 775 225 950 1025 
Q 1125 1825 1125 3225 
Q 1125 4625 1100 5075 
L 1475 4825 
L 5050 4825 
L 5225 5100 
L 5625 4800 
L 5425 4600 
L 5425 225 
Q 5450 -400 4875 -575 
Q 4825 -150 4075 -25 
L 4075 100 
z
M 1475 4675 
L 1475 3300 
L 3075 3300 
L 3075 4675 
L 1475 4675 
z
M 3400 4675 
L 3400 3300 
L 5075 3300 
L 5075 4675 
L 3400 4675 
z
M 1475 3150 
Q 1450 2100 1425 1825 
L 3075 1825 
L 3075 3150 
L 1475 3150 
z
" transform="scale(0.015625)"/>
       <path id="SimSun-7387" d="M 875 3725 
L 925 3800 
Q 1375 3650 1550 3525 
Q 1725 3400 1725 3250 
Q 1725 3175 1662 3025 
Q 1600 2875 1550 2875 
Q 1500 2875 1425 3050 
Q 1275 3325 875 3725 
z
M 550 1850 
Q 875 1925 2000 2575 
L 2050 2500 
Q 1675 2225 1337 1937 
Q 1000 1650 875 1425 
L 550 1850 
z
M 5200 3450 
Q 4800 3150 4275 2800 
L 4225 2875 
Q 4775 3400 5050 3925 
L 5450 3525 
L 5200 3450 
z
M 4325 2500 
L 4350 2575 
Q 5225 2350 5375 2212 
Q 5525 2075 5525 1900 
Q 5525 1775 5487 1662 
Q 5450 1550 5400 1550 
Q 5325 1550 5200 1800 
Q 4975 2150 4325 2500 
z
M 3150 3900 
Q 2500 3300 2300 3150 
Q 2800 3150 3400 3175 
Q 3700 3500 3850 3825 
L 4250 3450 
Q 4050 3400 3450 2825 
Q 2850 2250 2475 1950 
Q 3150 1975 3850 2000 
Q 3750 2175 3550 2450 
L 3600 2500 
Q 4050 2250 4200 2100 
Q 4350 1950 4350 1850 
Q 4350 1775 4250 1625 
Q 4150 1475 4100 1475 
Q 4075 1475 4050 1550 
Q 4000 1700 3900 1900 
Q 3650 1875 3075 1800 
L 3500 1550 
L 3325 1425 
L 3325 975 
L 5325 975 
L 5650 1300 
L 6100 825 
L 3325 825 
Q 3325 -275 3350 -525 
L 2975 -650 
Q 3000 0 3000 825 
L 1125 825 
Q 800 825 525 750 
L 300 975 
L 3000 975 
L 3000 1775 
Q 2450 1700 2200 1525 
L 1950 1950 
Q 2275 1950 2675 2350 
Q 3075 2750 3325 3050 
Q 2400 2950 2150 2775 
L 1950 3175 
Q 2150 3150 2475 3575 
Q 2800 4000 2900 4225 
L 1450 4225 
Q 1125 4225 850 4150 
L 625 4375 
L 3100 4375 
Q 3050 4800 2675 5200 
L 2725 5250 
Q 3225 5050 3337 4912 
Q 3450 4775 3450 4700 
Q 3450 4550 3250 4375 
L 5025 4375 
L 5350 4675 
L 5775 4225 
L 3050 4225 
L 3375 3950 
L 3150 3900 
z
" transform="scale(0.015625)"/>
      </defs>
      <use xlink:href="#SimSun-43"/>
      <use xlink:href="#SimSun-50" x="50"/>
      <use xlink:href="#SimSun-55" x="100"/>
      <use xlink:href="#SimSun-4f7f" x="150"/>
      <use xlink:href="#SimSun-7528" x="250"/>
      <use xlink:href="#SimSun-7387" x="350"/>
     </g>
    </g>
   </g>
   <g id="line2d_13">
    <path d="M 117.35532 186.183351 
L 124.583632 196.866225 
L 131.811944 187.915706 
L 139.040256 198.021128 
L 146.268568 231.802091 
L 153.49688 176.366655 
L 160.725192 192.246602 
L 167.953504 98.988032 
L 175.181816 153.268565 
L 182.410128 195.133862 
L 189.63844 201.48584 
L 196.866752 161.352892 
L 204.095063 184.450995 
L 211.323375 210.725077 
L 218.551687 194.845136 
L 225.779999 186.760803 
L 233.008311 183.007365 
L 240.236623 209.858899 
L 247.464935 208.703995 
L 254.693247 222.85158 
L 261.921559 215.344699 
L 269.149871 211.591255 
L 276.378183 166.26124 
L 283.606495 187.049529 
L 290.834807 139.698425 
L 298.063119 173.768128 
L 305.291431 205.239284 
L 312.519742 192.246602 
L 319.748054 214.478521 
L 326.976366 225.450114 
L 334.204678 231.22464 
L 341.43299 219.386869 
L 348.661302 213.612343 
L 355.889614 210.725077 
L 363.117926 194.845136 
L 370.346238 201.48584 
L 377.57455 219.098136 
L 384.802862 213.323617 
L 392.031174 225.161395 
L 399.259486 216.499603 
L 406.487798 226.605024 
L 413.71611 217.077054 
L 420.944421 226.893744 
L 428.172733 217.36578 
L 435.401045 227.182469 
L 442.629357 217.36578 
L 449.857669 155.000921 
L 457.085981 152.402381 
L 464.314293 180.120099 
L 471.542605 208.415269 
L 478.770917 208.126543 
L 485.999229 222.562854 
L 493.227541 186.183351 
L 500.455853 182.718633 
L 507.684165 209.570173 
L 514.912477 208.703995 
L 522.140789 136.233714 
L 529.369101 172.035759 
L 536.597412 204.373099 
L 543.825724 76.178662 
L 551.054036 156.444544 
L 558.282348 182.141181 
L 565.51066 180.408825 
L 572.738972 179.831373 
L 579.967284 107.072359 
L 587.195596 114.290514 
L 594.423908 88.882617 
L 601.65222 119.487595 
L 608.880532 91.481144 
L 616.108844 149.515121 
L 623.337156 164.240151 
L 630.565468 114.001795 
L 637.79378 131.902818 
L 645.022091 155.578373 
L 652.250403 181.563729 
L 659.478715 165.972521 
L 666.707027 201.197114 
L 673.935339 175.789203 
L 681.163651 206.105462 
L 688.391963 206.971639 
L 695.620275 221.985402 
L 702.848587 214.767247 
L 710.076899 211.302529 
L 717.305211 94.079685 
L 724.533523 179.831373 
L 731.761835 193.978958 
L 738.990147 172.035759 
L 746.218459 161.064173 
L 753.44677 184.450995 
L 760.675082 196.00004 
L 767.903394 216.499603 
L 775.131706 212.168713 
L 782.360018 209.858899 
L 789.58833 223.429032 
L 796.816642 215.633425 
L 804.044954 226.027566 
L 811.273266 217.077054 
L 818.501578 226.893744 
L 825.72989 217.36578 
L 832.958202 226.893744 
L 840.186514 217.36578 
L 847.414826 212.746158 
L 854.643138 224.583936 
L 861.871449 230.647188 
L 869.099761 219.386869 
L 876.328073 199.176032 
L 883.556385 217.943232 
L 890.784697 227.182469 
L 898.013009 232.090817 
L 905.241321 219.964314 
L 912.469633 98.410581 
L 919.697945 181.852462 
L 926.926257 165.972521 
L 934.154569 143.740602 
L 941.382881 190.225521 
L 948.611193 213.323617 
L 955.839505 181.852462 
L 963.067817 194.845136 
L 970.296128 186.760803 
L 977.52444 125.262114 
L 984.752752 123.241039 
L 991.981064 150.958758 
L 999.209376 193.978958 
L 1006.437688 200.908388 
L 1013.666 161.064173 
L 1020.894312 170.014684 
L 1028.122624 102.164025 
L 1035.350936 97.255677 
L 1042.579248 37.200625 
L 1049.80756 107.938544 
L 1057.035872 129.015558 
L 1064.264184 154.134736 
L 1071.492496 195.422595 
L 1078.720808 172.613224 
L 1085.949119 132.48027 
L 1093.177431 170.303403 
L 1100.405743 145.761677 
L 1107.634055 147.782766 
L 1114.862367 177.810291 
L 1122.090679 178.387743 
L 1129.318991 164.240151 
L 1136.547303 200.619662 
L 1143.775615 189.648069 
L 1151.003927 198.887306 
L 1158.232239 217.654506 
L 1165.460551 212.746158 
L 1172.688863 196.00004 
L 1179.917175 187.338255 
L 1187.145487 125.550847 
L 1194.373798 180.986277 
L 1201.60211 194.55641 
L 1208.830422 215.633425 
L 1216.058734 211.591255 
L 1223.287046 209.858899 
L 1230.515358 194.267684 
L 1237.74367 186.760803 
L 1244.971982 197.154944 
L 1252.200294 188.204439 
L 1259.428606 198.021128 
L 1266.656918 217.36578 
L 1273.88523 226.893744 
L 1281.113542 217.36578 
L 1288.341854 227.182469 
L 1295.570166 231.802091 
L 1302.798477 234.400625 
L 1310.026789 221.119225 
L 1317.255101 214.478521 
L 1324.483413 66.650699 
L 1331.711725 137.388618 
L 1331.711725 137.388618 
" clip-path="url(#pf22dae809a)" style="fill: none; stroke: #1f77b4; stroke-width: 1.5; stroke-linecap: square"/>
   </g>
   <g id="line2d_14">
    <path d="M 1165.460551 184.383637 
L 1172.688863 183.483922 
L 1179.917175 182.778955 
L 1187.145487 183.14449 
L 1194.373798 183.417549 
L 1201.60211 184.620363 
L 1208.830422 186.355514 
L 1216.058734 187.284396 
L 1223.287046 186.243308 
L 1230.515358 185.335718 
L 1237.74367 184.748677 
L 1244.971982 183.577768 
L 1252.200294 183.695756 
L 1259.428606 184.578999 
L 1266.656918 184.284979 
L 1273.88523 184.567861 
L 1281.113542 184.679488 
L 1288.341854 184.091972 
L 1295.570166 183.863927 
L 1302.798477 184.067528 
L 1310.026789 183.562025 
L 1317.255101 183.506019 
L 1324.483413 183.417246 
L 1331.711725 183.01575 
" clip-path="url(#pf22dae809a)" style="fill: none; stroke: #ff7f0e; stroke-width: 1.5; stroke-linecap: square"/>
   </g>
   <g id="line2d_15">
    <path d="M 1165.460551 244.260625 
L 1165.460551 27.340625 
" clip-path="url(#pf22dae809a)" style="fill: none; stroke-dasharray: 7.4,3.2; stroke-dashoffset: 0; stroke: #0000ff; stroke-width: 2"/>
   </g>
   <g id="patch_3">
    <path d="M 56.6375 244.260625 
L 56.6375 27.340625 
" style="fill: none; stroke: #000000; stroke-width: 0.8; stroke-linejoin: miter; stroke-linecap: square"/>
   </g>
   <g id="patch_4">
    <path d="M 1392.429545 244.260625 
L 1392.429545 27.340625 
" style="fill: none; stroke: #000000; stroke-width: 0.8; stroke-linejoin: miter; stroke-linecap: square"/>
   </g>
   <g id="patch_5">
    <path d="M 56.6375 244.260625 
L 1392.429545 244.260625 
" style="fill: none; stroke: #000000; stroke-width: 0.8; stroke-linejoin: miter; stroke-linecap: square"/>
   </g>
   <g id="patch_6">
    <path d="M 56.6375 27.340625 
L 1392.429545 27.340625 
" style="fill: none; stroke: #000000; stroke-width: 0.8; stroke-linejoin: miter; stroke-linecap: square"/>
   </g>
   <g id="text_14">
    <!-- API_ID: 2 -->
    <g transform="translate(679.533523 21.340625) scale(0.2 -0.2)">
     <defs>
      <path id="SimSun-41" d="M 2025 1700 
L 900 1700 
L 675 750 
Q 650 625 650 550 
Q 650 450 687 350 
Q 725 250 900 250 
L 975 250 
L 975 100 
L 50 100 
L 50 250 
L 125 250 
Q 225 250 300 312 
Q 375 375 400 525 
L 1375 4350 
L 1750 4475 
L 2700 525 
Q 2750 375 2825 312 
Q 2900 250 3000 250 
L 3075 250 
L 3075 100 
L 2000 100 
L 2000 250 
L 2100 250 
Q 2250 250 2275 312 
Q 2300 375 2300 425 
Q 2300 525 2275 600 
L 2025 1700 
z
M 325 250 
L 325 250 
z
M 575 250 
L 575 250 
z
M 2350 250 
L 2350 250 
z
M 2775 250 
L 2775 250 
z
M 1500 3925 
L 1475 3925 
L 950 1850 
L 2000 1850 
L 1500 3925 
z
" transform="scale(0.015625)"/>
      <path id="SimSun-49" d="M 600 4225 
L 600 4375 
L 2600 4375 
L 2600 4225 
L 2025 4225 
Q 1925 4225 1862 4175 
Q 1800 4125 1800 4025 
L 1800 450 
Q 1800 350 1862 300 
Q 1925 250 2025 250 
L 2600 250 
L 2600 100 
L 600 100 
L 600 250 
L 1175 250 
Q 1300 250 1350 300 
Q 1400 350 1400 450 
L 1400 4025 
Q 1400 4125 1350 4175 
Q 1300 4225 1175 4225 
L 600 4225 
z
" transform="scale(0.015625)"/>
      <path id="SimSun-5f" d="M 0 -875 
L 0 -725 
L 3175 -725 
L 3175 -875 
L 0 -875 
z
" transform="scale(0.015625)"/>
      <path id="SimSun-44" d="M 2500 2275 
Q 2500 3350 2175 3787 
Q 1850 4225 1275 4225 
Q 1100 4225 1012 4175 
Q 925 4125 925 4025 
L 925 450 
Q 925 350 1000 300 
Q 1075 250 1200 250 
Q 1750 250 2125 662 
Q 2500 1075 2500 2275 
z
M 525 4025 
Q 525 4125 475 4175 
Q 425 4225 300 4225 
L 150 4225 
L 150 4375 
L 1275 4375 
Q 2050 4375 2512 3875 
Q 2975 3375 2975 2325 
Q 2975 1175 2525 637 
Q 2075 100 1200 100 
L 125 100 
L 125 250 
L 300 250 
Q 425 250 475 300 
Q 525 350 525 450 
L 525 4025 
z
" transform="scale(0.015625)"/>
      <path id="SimSun-3a" d="M 1900 2725 
Q 1900 2575 1800 2475 
Q 1700 2375 1550 2375 
Q 1400 2375 1300 2475 
Q 1200 2575 1200 2725 
Q 1200 2875 1300 2975 
Q 1400 3075 1550 3075 
Q 1700 3075 1800 2975 
Q 1900 2875 1900 2725 
z
M 1900 375 
Q 1900 225 1800 125 
Q 1700 25 1550 25 
Q 1400 25 1300 125 
Q 1200 225 1200 375 
Q 1200 525 1300 625 
Q 1400 725 1550 725 
Q 1700 725 1800 625 
Q 1900 525 1900 375 
z
" transform="scale(0.015625)"/>
      <path id="SimSun-20" d="M 0 0 
Q 0 0 0 0 
z
" transform="scale(0.015625)"/>
      <path id="SimSun-32" d="M 2325 3325 
Q 2325 3775 2125 4012 
Q 1925 4250 1525 4250 
Q 1225 4250 1012 4087 
Q 800 3925 800 3675 
Q 800 3525 900 3425 
Q 975 3325 975 3225 
Q 975 3100 912 3037 
Q 850 2975 725 2975 
Q 575 2975 487 3062 
Q 400 3150 400 3350 
Q 400 3875 775 4150 
Q 1150 4425 1575 4425 
Q 2175 4425 2462 4125 
Q 2750 3825 2750 3375 
Q 2750 3075 2612 2775 
Q 2475 2475 2175 2200 
Q 1450 1500 1062 1062 
Q 675 625 600 475 
L 2075 475 
Q 2300 475 2450 650 
Q 2600 825 2650 1175 
L 2800 1175 
L 2650 100 
L 325 100 
L 325 425 
Q 450 650 737 1000 
Q 1025 1350 1500 1825 
Q 1925 2250 2125 2625 
Q 2325 3000 2325 3325 
z
" transform="scale(0.015625)"/>
     </defs>
     <use xlink:href="#SimSun-41"/>
     <use xlink:href="#SimSun-50" x="50"/>
     <use xlink:href="#SimSun-49" x="100"/>
     <use xlink:href="#SimSun-5f" x="150"/>
     <use xlink:href="#SimSun-49" x="200"/>
     <use xlink:href="#SimSun-44" x="250"/>
     <use xlink:href="#SimSun-3a" x="300"/>
     <use xlink:href="#SimSun-20" x="350"/>
     <use xlink:href="#SimSun-32" x="400"/>
    </g>
   </g>
   <g id="legend_1">
    <g id="patch_7">
     <path d="M 70.6375 100.215625 
L 194.6375 100.215625 
Q 198.6375 100.215625 198.6375 96.215625 
L 198.6375 41.340625 
Q 198.6375 37.340625 194.6375 37.340625 
L 70.6375 37.340625 
Q 66.6375 37.340625 66.6375 41.340625 
L 66.6375 96.215625 
Q 66.6375 100.215625 70.6375 100.215625 
z
" style="fill: #ffffff; opacity: 0.8; stroke: #cccccc; stroke-linejoin: miter"/>
    </g>
    <g id="line2d_16">
     <path d="M 74.6375 54.278125 
L 94.6375 54.278125 
L 114.6375 54.278125 
" style="fill: none; stroke: #1f77b4; stroke-width: 1.5; stroke-linecap: square"/>
    </g>
    <g id="text_15">
     <!-- 真实值 -->
     <g transform="translate(130.6375 61.278125) scale(0.2 -0.2)">
      <defs>
       <path id="SimSun-771f" d="M 2050 3450 
L 2050 2900 
L 4300 2900 
L 4300 3450 
L 2050 3450 
z
M 2050 2750 
L 2050 2225 
L 4300 2225 
L 4300 2750 
L 2050 2750 
z
M 2050 2075 
L 2050 1550 
L 4300 1550 
L 4300 2075 
L 2050 2075 
z
M 2050 1400 
L 2050 875 
L 4300 875 
L 4300 1400 
L 2050 1400 
z
M 2875 3600 
L 2925 4325 
L 1525 4325 
Q 1200 4325 925 4250 
L 700 4475 
L 2950 4475 
Q 2975 4825 2975 5275 
L 3550 5025 
L 3375 4925 
L 3300 4475 
L 5000 4475 
L 5325 4825 
L 5775 4325 
L 3275 4325 
L 3200 3600 
L 4275 3600 
L 4450 3875 
L 4850 3575 
L 4650 3375 
L 4650 875 
L 5300 875 
L 5675 1225 
L 6125 725 
L 1150 725 
Q 825 725 550 650 
L 325 875 
L 1700 875 
Q 1700 3200 1675 3775 
L 2050 3600 
L 2875 3600 
z
M 2425 725 
L 2825 350 
L 2575 300 
Q 1500 -425 800 -650 
L 775 -575 
Q 1950 125 2425 725 
z
M 3800 700 
Q 4575 375 4962 200 
Q 5350 25 5400 -112 
Q 5450 -250 5450 -325 
Q 5450 -400 5400 -525 
Q 5350 -650 5325 -650 
Q 5250 -650 5100 -450 
Q 4875 -150 3750 625 
L 3800 700 
z
" transform="scale(0.015625)"/>
       <path id="SimSun-5b9e" d="M 1950 3625 
Q 2575 3400 2700 3250 
Q 2825 3100 2825 2975 
Q 2825 2850 2750 2700 
Q 2675 2550 2625 2550 
Q 2550 2550 2450 2800 
Q 2275 3175 1900 3550 
L 1950 3625 
z
M 3575 1325 
Q 3500 1100 3425 925 
Q 4650 550 5087 325 
Q 5525 100 5512 -225 
Q 5500 -550 5400 -550 
Q 5300 -550 5075 -300 
Q 4625 175 3375 800 
Q 3025 175 2300 -150 
Q 1575 -475 425 -625 
L 425 -525 
Q 1475 -325 2200 100 
Q 2925 525 3200 1325 
L 1225 1325 
Q 900 1325 625 1250 
L 400 1475 
L 3225 1475 
Q 3325 1950 3375 2575 
Q 3425 3200 3425 3700 
L 4050 3400 
L 3850 3225 
Q 3750 2300 3625 1475 
L 5175 1475 
L 5550 1850 
L 6075 1325 
L 3575 1325 
z
M 1275 2700 
Q 1975 2425 2100 2262 
Q 2225 2100 2225 1975 
Q 2225 1850 2150 1700 
Q 2075 1550 2025 1550 
Q 1950 1550 1850 1800 
Q 1675 2175 1225 2625 
L 1275 2700 
z
M 2750 5225 
L 2825 5275 
Q 3225 5100 3425 4925 
Q 3625 4750 3625 4600 
Q 3625 4450 3512 4300 
Q 3400 4150 3325 4150 
Q 3250 4150 3200 4400 
Q 3100 4775 2750 5225 
z
M 4975 3225 
L 5350 3925 
L 1175 3925 
Q 1225 3525 1125 3300 
Q 1025 3075 787 3100 
Q 550 3125 550 3200 
Q 550 3300 700 3475 
Q 975 3825 1050 4375 
L 1150 4375 
L 1175 4075 
L 5300 4075 
L 5575 4350 
L 6050 3800 
Q 5625 3825 5050 3175 
L 4975 3225 
z
" transform="scale(0.015625)"/>
       <path id="SimSun-503c" d="M 1525 650 
Q 1525 -225 1550 -525 
L 1175 -650 
Q 1200 250 1200 550 
L 1200 3025 
Q 750 2300 325 1850 
L 250 1900 
Q 725 2625 1100 3525 
Q 1475 4425 1675 5200 
L 2200 4875 
L 1950 4725 
Q 1550 3800 1425 3475 
L 1725 3300 
L 1525 3150 
L 1525 650 
z
M 2875 3225 
L 2875 2475 
L 4800 2475 
L 4800 3225 
L 2875 3225 
z
M 2875 2325 
L 2875 1575 
L 4800 1575 
L 4800 2325 
L 2875 2325 
z
M 2875 1425 
L 2875 675 
L 4800 675 
L 4800 1425 
L 2875 1425 
z
M 2875 525 
L 2875 -225 
L 4800 -225 
L 4800 525 
L 2875 525 
z
M 3550 4250 
Q 3575 4825 3550 5225 
L 4125 4950 
L 3925 4800 
L 3900 4250 
L 5025 4250 
L 5350 4575 
L 5825 4100 
L 3900 4100 
L 3875 3375 
L 4750 3375 
L 4975 3625 
L 5350 3300 
L 5125 3150 
L 5125 -225 
L 5350 -225 
L 5675 100 
L 6150 -375 
L 2450 -375 
Q 2125 -375 1850 -450 
L 1625 -225 
L 2550 -225 
L 2550 2550 
Q 2550 2850 2525 3575 
L 2875 3375 
L 3525 3375 
L 3550 4100 
L 2800 4100 
Q 2475 4100 2200 4025 
L 1975 4250 
L 3550 4250 
z
" transform="scale(0.015625)"/>
      </defs>
      <use xlink:href="#SimSun-771f"/>
      <use xlink:href="#SimSun-5b9e" x="100"/>
      <use xlink:href="#SimSun-503c" x="200"/>
     </g>
    </g>
    <g id="line2d_17">
     <path d="M 74.6375 82.6375 
L 94.6375 82.6375 
L 114.6375 82.6375 
" style="fill: none; stroke: #ff7f0e; stroke-width: 1.5; stroke-linecap: square"/>
    </g>
    <g id="text_16">
     <!-- 预测值 -->
     <g transform="translate(130.6375 89.6375) scale(0.2 -0.2)">
      <defs>
       <path id="SimSun-9884" d="M 475 4825 
L 2225 4825 
L 2425 5075 
L 2825 4675 
Q 2600 4625 2387 4412 
Q 2175 4200 1800 3750 
Q 2050 3575 2037 3400 
Q 2025 3225 1937 3150 
Q 1850 3075 1825 3075 
Q 1725 3075 1650 3300 
Q 1525 3600 1050 4100 
L 1100 4150 
Q 1475 3975 1700 3825 
L 2225 4675 
L 1300 4675 
Q 975 4675 700 4600 
L 475 4825 
z
M 725 100 
Q 1175 50 1362 37 
Q 1550 25 1550 275 
L 1550 2875 
L 1125 2875 
Q 800 2875 525 2800 
L 300 3025 
L 2525 3025 
L 2725 3275 
L 3150 2875 
Q 2800 2825 2275 2075 
L 2200 2125 
L 2550 2875 
L 1875 2875 
L 1875 150 
Q 1875 -400 1350 -500 
Q 1325 -175 725 0 
L 725 100 
z
M 3250 775 
Q 3275 1425 3275 2287 
Q 3275 3150 3250 3900 
L 3600 3700 
L 4050 3700 
Q 4175 4400 4200 4675 
L 3650 4675 
Q 3325 4675 3050 4600 
L 2825 4825 
L 5325 4825 
L 5675 5150 
L 6125 4675 
L 4675 4675 
Q 4500 4425 4175 3700 
L 5300 3700 
L 5475 3975 
L 5875 3675 
L 5675 3475 
L 5675 1950 
Q 5675 1525 5700 1075 
L 5350 875 
L 5350 3550 
L 3600 3550 
L 3600 1000 
L 3250 775 
z
M 4850 2875 
L 4625 2675 
Q 4625 1475 4475 937 
Q 4325 400 3900 50 
Q 3475 -300 2425 -625 
L 2400 -550 
Q 3500 -50 3837 400 
Q 4175 850 4237 1587 
Q 4300 2325 4275 3175 
L 4850 2875 
z
M 4650 950 
Q 5725 375 5875 212 
Q 6025 50 6025 -125 
Q 6025 -225 5962 -387 
Q 5900 -550 5850 -550 
Q 5800 -550 5750 -450 
Q 5625 -250 5437 0 
Q 5250 250 4600 875 
L 4650 950 
z
" transform="scale(0.015625)"/>
       <path id="SimSun-6d4b" d="M 1975 1000 
Q 2000 1475 2000 2925 
Q 2000 4375 1975 5000 
L 2350 4775 
L 3575 4775 
L 3775 4975 
L 4100 4650 
L 3900 4500 
L 3900 2350 
Q 3900 1850 3925 1350 
L 3600 1200 
L 3600 4625 
L 2325 4625 
L 2325 1150 
L 1975 1000 
z
M 2775 3975 
L 3300 3700 
L 3125 3525 
Q 3150 1825 2875 937 
Q 2600 50 1375 -600 
L 1325 -500 
Q 2200 100 2475 725 
Q 2750 1350 2775 2187 
Q 2800 3025 2775 3975 
z
M 3100 950 
Q 3825 450 3937 262 
Q 4050 75 4050 -25 
Q 4050 -150 3975 -262 
Q 3900 -375 3850 -375 
Q 3750 -375 3650 -75 
Q 3500 375 3050 875 
L 3100 950 
z
M 4475 825 
Q 4500 1200 4500 1700 
L 4500 3400 
Q 4500 3950 4475 4300 
L 5025 4025 
L 4825 3825 
L 4825 1700 
Q 4825 1325 4850 950 
L 4475 825 
z
M 5375 150 
L 5375 4050 
Q 5375 4750 5350 5125 
L 5875 4875 
L 5700 4700 
L 5700 75 
Q 5700 -200 5600 -350 
Q 5500 -500 5200 -600 
Q 5025 -225 4450 -50 
L 4450 50 
Q 5125 -50 5250 -37 
Q 5375 -25 5375 150 
z
M 1850 3500 
Q 1375 1525 1300 1225 
Q 1200 900 1212 450 
Q 1225 0 1250 -175 
Q 1250 -275 1125 -275 
Q 1025 -275 875 -225 
Q 725 -175 725 0 
Q 725 125 800 375 
Q 875 625 875 775 
Q 875 950 762 1050 
Q 650 1150 275 1250 
L 275 1350 
Q 725 1300 837 1312 
Q 950 1325 1087 1537 
Q 1225 1750 1750 3525 
L 1850 3500 
z
M 375 3775 
Q 1075 3350 1112 3100 
Q 1150 2850 1050 2775 
Q 950 2700 900 2700 
Q 800 2700 725 2975 
Q 600 3350 325 3700 
L 375 3775 
z
M 800 5100 
Q 1475 4725 1550 4512 
Q 1625 4300 1525 4187 
Q 1425 4075 1350 4075 
Q 1275 4075 1200 4300 
Q 1075 4650 750 5025 
L 800 5100 
z
" transform="scale(0.015625)"/>
      </defs>
      <use xlink:href="#SimSun-9884"/>
      <use xlink:href="#SimSun-6d4b" x="100"/>
      <use xlink:href="#SimSun-503c" x="200"/>
     </g>
    </g>
   </g>
  </g>
  <g id="axes_2">
   <g id="patch_8">
    <path d="M 56.6375 527.940625 
L 1392.429545 527.940625 
L 1392.429545 311.020625 
L 56.6375 311.020625 
z
" style="fill: #ffffff"/>
   </g>
   <g id="matplotlib.axis_3">
    <g id="xtick_9">
     <g id="line2d_18">
      <g>
       <use xlink:href="#m08339ad2e9" x="117.35532" y="527.940625" style="stroke: #000000; stroke-width: 0.8"/>
      </g>
     </g>
     <g id="text_17">
      <!-- 0 -->
      <g transform="translate(112.35532 548.828125) scale(0.2 -0.2)">
       <use xlink:href="#TimesNewRomanPSMT-30"/>
      </g>
     </g>
    </g>
    <g id="xtick_10">
     <g id="line2d_19">
      <g>
       <use xlink:href="#m08339ad2e9" x="298.063119" y="527.940625" style="stroke: #000000; stroke-width: 0.8"/>
      </g>
     </g>
     <g id="text_18">
      <!-- 25 -->
      <g transform="translate(288.063119 548.828125) scale(0.2 -0.2)">
       <use xlink:href="#TimesNewRomanPSMT-32"/>
       <use xlink:href="#TimesNewRomanPSMT-35" x="50"/>
      </g>
     </g>
    </g>
    <g id="xtick_11">
     <g id="line2d_20">
      <g>
       <use xlink:href="#m08339ad2e9" x="478.770917" y="527.940625" style="stroke: #000000; stroke-width: 0.8"/>
      </g>
     </g>
     <g id="text_19">
      <!-- 50 -->
      <g transform="translate(468.770917 548.828125) scale(0.2 -0.2)">
       <use xlink:href="#TimesNewRomanPSMT-35"/>
       <use xlink:href="#TimesNewRomanPSMT-30" x="50"/>
      </g>
     </g>
    </g>
    <g id="xtick_12">
     <g id="line2d_21">
      <g>
       <use xlink:href="#m08339ad2e9" x="659.478715" y="527.940625" style="stroke: #000000; stroke-width: 0.8"/>
      </g>
     </g>
     <g id="text_20">
      <!-- 75 -->
      <g transform="translate(649.478715 548.828125) scale(0.2 -0.2)">
       <use xlink:href="#TimesNewRomanPSMT-37"/>
       <use xlink:href="#TimesNewRomanPSMT-35" x="50"/>
      </g>
     </g>
    </g>
    <g id="xtick_13">
     <g id="line2d_22">
      <g>
       <use xlink:href="#m08339ad2e9" x="840.186514" y="527.940625" style="stroke: #000000; stroke-width: 0.8"/>
      </g>
     </g>
     <g id="text_21">
      <!-- 100 -->
      <g transform="translate(825.186514 548.828125) scale(0.2 -0.2)">
       <use xlink:href="#TimesNewRomanPSMT-31"/>
       <use xlink:href="#TimesNewRomanPSMT-30" x="50"/>
       <use xlink:href="#TimesNewRomanPSMT-30" x="100"/>
      </g>
     </g>
    </g>
    <g id="xtick_14">
     <g id="line2d_23">
      <g>
       <use xlink:href="#m08339ad2e9" x="1020.894312" y="527.940625" style="stroke: #000000; stroke-width: 0.8"/>
      </g>
     </g>
     <g id="text_22">
      <!-- 125 -->
      <g transform="translate(1005.894312 548.828125) scale(0.2 -0.2)">
       <use xlink:href="#TimesNewRomanPSMT-31"/>
       <use xlink:href="#TimesNewRomanPSMT-32" x="50"/>
       <use xlink:href="#TimesNewRomanPSMT-35" x="100"/>
      </g>
     </g>
    </g>
    <g id="xtick_15">
     <g id="line2d_24">
      <g>
       <use xlink:href="#m08339ad2e9" x="1201.60211" y="527.940625" style="stroke: #000000; stroke-width: 0.8"/>
      </g>
     </g>
     <g id="text_23">
      <!-- 150 -->
      <g transform="translate(1186.60211 548.828125) scale(0.2 -0.2)">
       <use xlink:href="#TimesNewRomanPSMT-31"/>
       <use xlink:href="#TimesNewRomanPSMT-35" x="50"/>
       <use xlink:href="#TimesNewRomanPSMT-30" x="100"/>
      </g>
     </g>
    </g>
    <g id="xtick_16">
     <g id="line2d_25">
      <g>
       <use xlink:href="#m08339ad2e9" x="1382.309909" y="527.940625" style="stroke: #000000; stroke-width: 0.8"/>
      </g>
     </g>
     <g id="text_24">
      <!-- 175 -->
      <g transform="translate(1367.309909 548.828125) scale(0.2 -0.2)">
       <use xlink:href="#TimesNewRomanPSMT-31"/>
       <use xlink:href="#TimesNewRomanPSMT-37" x="50"/>
       <use xlink:href="#TimesNewRomanPSMT-35" x="100"/>
      </g>
     </g>
    </g>
   </g>
   <g id="matplotlib.axis_4">
    <g id="ytick_5">
     <g id="line2d_26">
      <g>
       <use xlink:href="#m187e8b3444" x="56.6375" y="521.400487" style="stroke: #000000; stroke-width: 0.8"/>
      </g>
     </g>
     <g id="text_25">
      <!-- 2 -->
      <g transform="translate(39.6375 528.344237) scale(0.2 -0.2)">
       <use xlink:href="#TimesNewRomanPSMT-32"/>
      </g>
     </g>
    </g>
    <g id="ytick_6">
     <g id="line2d_27">
      <g>
       <use xlink:href="#m187e8b3444" x="56.6375" y="455.003181" style="stroke: #000000; stroke-width: 0.8"/>
      </g>
     </g>
     <g id="text_26">
      <!-- 4 -->
      <g transform="translate(39.6375 461.946931) scale(0.2 -0.2)">
       <use xlink:href="#TimesNewRomanPSMT-34"/>
      </g>
     </g>
    </g>
    <g id="ytick_7">
     <g id="line2d_28">
      <g>
       <use xlink:href="#m187e8b3444" x="56.6375" y="388.605876" style="stroke: #000000; stroke-width: 0.8"/>
      </g>
     </g>
     <g id="text_27">
      <!-- 6 -->
      <g transform="translate(39.6375 395.549626) scale(0.2 -0.2)">
       <use xlink:href="#TimesNewRomanPSMT-36"/>
      </g>
     </g>
    </g>
    <g id="ytick_8">
     <g id="line2d_29">
      <g>
       <use xlink:href="#m187e8b3444" x="56.6375" y="322.20857" style="stroke: #000000; stroke-width: 0.8"/>
      </g>
     </g>
     <g id="text_28">
      <!-- 8 -->
      <g transform="translate(39.6375 329.15232) scale(0.2 -0.2)">
       <use xlink:href="#TimesNewRomanPSMT-38"/>
      </g>
     </g>
    </g>
    <g id="text_29">
     <!-- CPU使用率 -->
     <g transform="translate(33.059375 464.480625) rotate(-90) scale(0.2 -0.2)">
      <use xlink:href="#SimSun-43"/>
      <use xlink:href="#SimSun-50" x="50"/>
      <use xlink:href="#SimSun-55" x="100"/>
      <use xlink:href="#SimSun-4f7f" x="150"/>
      <use xlink:href="#SimSun-7528" x="250"/>
      <use xlink:href="#SimSun-7387" x="350"/>
     </g>
    </g>
   </g>
   <g id="line2d_30">
    <path d="M 117.35532 498.825401 
L 124.583632 510.11294 
L 131.811944 482.558061 
L 139.040256 485.213958 
L 146.268568 486.873889 
L 153.49688 487.537862 
L 160.725192 471.270522 
L 167.953504 479.570185 
L 175.181816 500.485332 
L 182.410128 511.108907 
L 189.63844 499.489373 
L 196.866752 493.8456 
L 204.095063 474.590384 
L 211.323375 481.230116 
L 218.551687 468.282646 
L 225.779999 478.24224 
L 233.008311 483.222033 
L 240.236623 485.545945 
L 247.464935 486.873889 
L 254.693247 421.140556 
L 261.921559 438.071861 
L 269.149871 446.703518 
L 276.378183 450.687353 
L 283.606495 453.011264 
L 290.834807 470.606549 
L 298.063119 479.238199 
L 305.291431 500.485332 
L 312.519742 477.57826 
L 319.748054 449.691402 
L 326.976366 419.148639 
L 334.204678 320.880625 
L 341.43299 371.342577 
L 348.661302 379.974234 
L 355.889614 384.290047 
L 363.117926 403.213285 
L 370.346238 395.909572 
L 377.57455 425.456385 
L 384.802862 456.663112 
L 392.031174 422.800495 
L 399.259486 405.537196 
L 406.487798 330.840227 
L 413.71611 426.120357 
L 420.944421 423.796446 
L 428.172733 389.601842 
L 435.401045 389.269848 
L 442.629357 372.338527 
L 449.857669 430.104192 
L 457.085981 475.918329 
L 464.314293 465.294762 
L 471.542605 410.516981 
L 478.770917 449.359408 
L 485.999229 485.213958 
L 493.227541 470.274563 
L 500.455853 479.238199 
L 507.684165 500.153354 
L 514.912477 494.177586 
L 522.140789 474.590384 
L 529.369101 498.161429 
L 536.597412 509.780962 
L 543.825724 498.825401 
L 551.054036 493.513622 
L 558.282348 490.857724 
L 565.51066 489.529779 
L 572.738972 505.465133 
L 579.967284 496.833484 
L 587.195596 492.517655 
L 594.423908 490.525738 
L 601.65222 505.797119 
L 608.880532 513.764796 
L 616.108844 500.817318 
L 623.337156 494.50958 
L 630.565468 508.121031 
L 637.79378 514.760755 
L 645.022091 518.080625 
L 652.250403 503.14123 
L 659.478715 495.505531 
L 666.707027 508.453009 
L 673.935339 498.493415 
L 681.163651 493.181635 
L 688.391963 391.261765 
L 695.620275 323.536515 
L 702.848587 372.670522 
L 710.076899 413.836859 
L 717.305211 334.824062 
L 724.533523 394.913622 
L 731.761835 457.991057 
L 738.990147 473.262439 
L 746.218459 414.168838 
L 753.44677 434.751999 
L 760.675082 477.910254 
L 767.903394 483.222033 
L 775.131706 485.545945 
L 782.360018 470.274563 
L 789.58833 346.443587 
L 796.816642 434.088026 
L 804.044954 377.982301 
L 811.273266 449.691402 
L 818.501578 419.148639 
L 825.72989 470.274563 
L 832.958202 429.440219 
L 840.186514 475.58635 
L 847.414826 481.894088 
L 854.643138 484.881972 
L 861.871449 486.541903 
L 869.099761 371.342577 
L 876.328073 429.772198 
L 883.556385 475.58635 
L 890.784697 498.493415 
L 898.013009 493.181635 
L 905.241321 441.059745 
L 912.469633 481.230116 
L 919.697945 501.149304 
L 926.926257 511.440893 
L 934.154569 499.82136 
L 941.382881 493.8456 
L 948.611193 457.991057 
L 955.839505 489.529779 
L 963.067817 488.865807 
L 970.296128 488.53382 
L 977.52444 488.53382 
L 984.752752 488.201834 
L 991.981064 488.201834 
L 999.209376 471.602508 
L 1006.437688 479.902171 
L 1013.666 500.817318 
L 1020.894312 511.108907 
L 1028.122624 499.489373 
L 1035.350936 493.8456 
L 1042.579248 507.789037 
L 1049.80756 514.428769 
L 1057.035872 501.481299 
L 1064.264184 494.841566 
L 1071.492496 491.521696 
L 1078.720808 489.861765 
L 1085.949119 488.865807 
L 1093.177431 405.537196 
L 1100.405743 413.836859 
L 1107.634055 467.618673 
L 1114.862367 477.910254 
L 1122.090679 499.489373 
L 1129.318991 493.8456 
L 1136.547303 491.18971 
L 1143.775615 439.7318 
L 1151.003927 347.771532 
L 1158.232239 368.354693 
L 1165.460551 444.711601 
L 1172.688863 450.02338 
L 1179.917175 435.747965 
L 1187.145487 395.577594 
L 1194.373798 342.459753 
L 1201.60211 332.168172 
L 1208.830422 410.185003 
L 1216.058734 449.359408 
L 1223.287046 468.614632 
L 1230.515358 395.577594 
L 1237.74367 325.528432 
L 1244.971982 406.865141 
L 1252.200294 431.100158 
L 1259.428606 426.452335 
L 1266.656918 424.12844 
L 1273.88523 455.99914 
L 1281.113542 488.865807 
L 1288.341854 438.735833 
L 1295.570166 446.703518 
L 1302.798477 401.221367 
L 1310.026789 461.310927 
L 1317.255101 491.18971 
L 1324.483413 406.865141 
L 1331.711725 380.970185 
L 1331.711725 380.970185 
" clip-path="url(#pf550174224)" style="fill: none; stroke: #1f77b4; stroke-width: 1.5; stroke-linecap: square"/>
   </g>
   <g id="line2d_31">
    <path d="M 1165.460551 448.212483 
L 1172.688863 448.444509 
L 1179.917175 448.550983 
L 1187.145487 448.229596 
L 1194.373798 447.824244 
L 1201.60211 447.729689 
L 1208.830422 447.850775 
L 1216.058734 447.710503 
L 1223.287046 447.394782 
L 1230.515358 447.306781 
L 1237.74367 447.37854 
L 1244.971982 447.454922 
L 1252.200294 447.544759 
L 1259.428606 447.573602 
L 1266.656918 448.825118 
L 1273.88523 449.934287 
L 1281.113542 449.445003 
L 1288.341854 448.773147 
L 1295.570166 448.014556 
L 1302.798477 447.58492 
L 1310.026789 447.661856 
L 1317.255101 448.492443 
L 1324.483413 450.782778 
L 1331.711725 452.101826 
" clip-path="url(#pf550174224)" style="fill: none; stroke: #ff7f0e; stroke-width: 1.5; stroke-linecap: square"/>
   </g>
   <g id="line2d_32">
    <path d="M 1165.460551 527.940625 
L 1165.460551 311.020625 
" clip-path="url(#pf550174224)" style="fill: none; stroke-dasharray: 7.4,3.2; stroke-dashoffset: 0; stroke: #0000ff; stroke-width: 2"/>
   </g>
   <g id="patch_9">
    <path d="M 56.6375 527.940625 
L 56.6375 311.020625 
" style="fill: none; stroke: #000000; stroke-width: 0.8; stroke-linejoin: miter; stroke-linecap: square"/>
   </g>
   <g id="patch_10">
    <path d="M 1392.429545 527.940625 
L 1392.429545 311.020625 
" style="fill: none; stroke: #000000; stroke-width: 0.8; stroke-linejoin: miter; stroke-linecap: square"/>
   </g>
   <g id="patch_11">
    <path d="M 56.6375 527.940625 
L 1392.429545 527.940625 
" style="fill: none; stroke: #000000; stroke-width: 0.8; stroke-linejoin: miter; stroke-linecap: square"/>
   </g>
   <g id="patch_12">
    <path d="M 56.6375 311.020625 
L 1392.429545 311.020625 
" style="fill: none; stroke: #000000; stroke-width: 0.8; stroke-linejoin: miter; stroke-linecap: square"/>
   </g>
   <g id="text_30">
    <!-- API_ID: 3 -->
    <g transform="translate(679.533523 305.020625) scale(0.2 -0.2)">
     <defs>
      <path id="SimSun-33" d="M 2800 1250 
Q 2800 775 2450 412 
Q 2100 50 1475 50 
Q 1025 50 700 300 
Q 375 550 375 875 
Q 375 1025 475 1137 
Q 575 1250 675 1250 
Q 825 1250 887 1137 
Q 950 1025 950 950 
Q 950 825 900 750 
Q 850 650 850 575 
Q 850 425 1037 325 
Q 1225 225 1450 225 
Q 1900 225 2125 487 
Q 2350 750 2350 1300 
Q 2350 1750 2112 2025 
Q 1875 2300 1225 2300 
L 1225 2475 
Q 1725 2475 1962 2712 
Q 2200 2950 2200 3375 
Q 2200 3725 2012 3987 
Q 1825 4250 1425 4250 
Q 1250 4250 1050 4162 
Q 850 4075 850 3875 
Q 850 3675 900 3625 
Q 950 3575 950 3500 
Q 950 3375 900 3300 
Q 850 3225 725 3225 
Q 625 3225 537 3300 
Q 450 3375 450 3575 
Q 450 3950 775 4187 
Q 1100 4425 1525 4425 
Q 2025 4425 2325 4112 
Q 2625 3800 2625 3450 
Q 2625 3075 2437 2812 
Q 2250 2550 1850 2425 
Q 2400 2225 2600 1900 
Q 2800 1575 2800 1250 
z
" transform="scale(0.015625)"/>
     </defs>
     <use xlink:href="#SimSun-41"/>
     <use xlink:href="#SimSun-50" x="50"/>
     <use xlink:href="#SimSun-49" x="100"/>
     <use xlink:href="#SimSun-5f" x="150"/>
     <use xlink:href="#SimSun-49" x="200"/>
     <use xlink:href="#SimSun-44" x="250"/>
     <use xlink:href="#SimSun-3a" x="300"/>
     <use xlink:href="#SimSun-20" x="350"/>
     <use xlink:href="#SimSun-33" x="400"/>
    </g>
   </g>
  </g>
  <g id="axes_3">
   <g id="patch_13">
    <path d="M 56.6375 811.620625 
L 1392.429545 811.620625 
L 1392.429545 594.700625 
L 56.6375 594.700625 
z
" style="fill: #ffffff"/>
   </g>
   <g id="matplotlib.axis_5">
    <g id="xtick_17">
     <g id="line2d_33">
      <g>
       <use xlink:href="#m08339ad2e9" x="117.35532" y="811.620625" style="stroke: #000000; stroke-width: 0.8"/>
      </g>
     </g>
     <g id="text_31">
      <!-- 0 -->
      <g transform="translate(112.35532 832.508125) scale(0.2 -0.2)">
       <use xlink:href="#TimesNewRomanPSMT-30"/>
      </g>
     </g>
    </g>
    <g id="xtick_18">
     <g id="line2d_34">
      <g>
       <use xlink:href="#m08339ad2e9" x="298.063119" y="811.620625" style="stroke: #000000; stroke-width: 0.8"/>
      </g>
     </g>
     <g id="text_32">
      <!-- 25 -->
      <g transform="translate(288.063119 832.508125) scale(0.2 -0.2)">
       <use xlink:href="#TimesNewRomanPSMT-32"/>
       <use xlink:href="#TimesNewRomanPSMT-35" x="50"/>
      </g>
     </g>
    </g>
    <g id="xtick_19">
     <g id="line2d_35">
      <g>
       <use xlink:href="#m08339ad2e9" x="478.770917" y="811.620625" style="stroke: #000000; stroke-width: 0.8"/>
      </g>
     </g>
     <g id="text_33">
      <!-- 50 -->
      <g transform="translate(468.770917 832.508125) scale(0.2 -0.2)">
       <use xlink:href="#TimesNewRomanPSMT-35"/>
       <use xlink:href="#TimesNewRomanPSMT-30" x="50"/>
      </g>
     </g>
    </g>
    <g id="xtick_20">
     <g id="line2d_36">
      <g>
       <use xlink:href="#m08339ad2e9" x="659.478715" y="811.620625" style="stroke: #000000; stroke-width: 0.8"/>
      </g>
     </g>
     <g id="text_34">
      <!-- 75 -->
      <g transform="translate(649.478715 832.508125) scale(0.2 -0.2)">
       <use xlink:href="#TimesNewRomanPSMT-37"/>
       <use xlink:href="#TimesNewRomanPSMT-35" x="50"/>
      </g>
     </g>
    </g>
    <g id="xtick_21">
     <g id="line2d_37">
      <g>
       <use xlink:href="#m08339ad2e9" x="840.186514" y="811.620625" style="stroke: #000000; stroke-width: 0.8"/>
      </g>
     </g>
     <g id="text_35">
      <!-- 100 -->
      <g transform="translate(825.186514 832.508125) scale(0.2 -0.2)">
       <use xlink:href="#TimesNewRomanPSMT-31"/>
       <use xlink:href="#TimesNewRomanPSMT-30" x="50"/>
       <use xlink:href="#TimesNewRomanPSMT-30" x="100"/>
      </g>
     </g>
    </g>
    <g id="xtick_22">
     <g id="line2d_38">
      <g>
       <use xlink:href="#m08339ad2e9" x="1020.894312" y="811.620625" style="stroke: #000000; stroke-width: 0.8"/>
      </g>
     </g>
     <g id="text_36">
      <!-- 125 -->
      <g transform="translate(1005.894312 832.508125) scale(0.2 -0.2)">
       <use xlink:href="#TimesNewRomanPSMT-31"/>
       <use xlink:href="#TimesNewRomanPSMT-32" x="50"/>
       <use xlink:href="#TimesNewRomanPSMT-35" x="100"/>
      </g>
     </g>
    </g>
    <g id="xtick_23">
     <g id="line2d_39">
      <g>
       <use xlink:href="#m08339ad2e9" x="1201.60211" y="811.620625" style="stroke: #000000; stroke-width: 0.8"/>
      </g>
     </g>
     <g id="text_37">
      <!-- 150 -->
      <g transform="translate(1186.60211 832.508125) scale(0.2 -0.2)">
       <use xlink:href="#TimesNewRomanPSMT-31"/>
       <use xlink:href="#TimesNewRomanPSMT-35" x="50"/>
       <use xlink:href="#TimesNewRomanPSMT-30" x="100"/>
      </g>
     </g>
    </g>
    <g id="xtick_24">
     <g id="line2d_40">
      <g>
       <use xlink:href="#m08339ad2e9" x="1382.309909" y="811.620625" style="stroke: #000000; stroke-width: 0.8"/>
      </g>
     </g>
     <g id="text_38">
      <!-- 175 -->
      <g transform="translate(1367.309909 832.508125) scale(0.2 -0.2)">
       <use xlink:href="#TimesNewRomanPSMT-31"/>
       <use xlink:href="#TimesNewRomanPSMT-37" x="50"/>
       <use xlink:href="#TimesNewRomanPSMT-35" x="100"/>
      </g>
     </g>
    </g>
   </g>
   <g id="matplotlib.axis_6">
    <g id="ytick_9">
     <g id="line2d_41">
      <g>
       <use xlink:href="#m187e8b3444" x="56.6375" y="795.21348" style="stroke: #000000; stroke-width: 0.8"/>
      </g>
     </g>
     <g id="text_39">
      <!-- 2 -->
      <g transform="translate(39.6375 802.15723) scale(0.2 -0.2)">
       <use xlink:href="#TimesNewRomanPSMT-32"/>
      </g>
     </g>
    </g>
    <g id="ytick_10">
     <g id="line2d_42">
      <g>
       <use xlink:href="#m187e8b3444" x="56.6375" y="742.83632" style="stroke: #000000; stroke-width: 0.8"/>
      </g>
     </g>
     <g id="text_40">
      <!-- 4 -->
      <g transform="translate(39.6375 749.78007) scale(0.2 -0.2)">
       <use xlink:href="#TimesNewRomanPSMT-34"/>
      </g>
     </g>
    </g>
    <g id="ytick_11">
     <g id="line2d_43">
      <g>
       <use xlink:href="#m187e8b3444" x="56.6375" y="690.45916" style="stroke: #000000; stroke-width: 0.8"/>
      </g>
     </g>
     <g id="text_41">
      <!-- 6 -->
      <g transform="translate(39.6375 697.40291) scale(0.2 -0.2)">
       <use xlink:href="#TimesNewRomanPSMT-36"/>
      </g>
     </g>
    </g>
    <g id="ytick_12">
     <g id="line2d_44">
      <g>
       <use xlink:href="#m187e8b3444" x="56.6375" y="638.082" style="stroke: #000000; stroke-width: 0.8"/>
      </g>
     </g>
     <g id="text_42">
      <!-- 8 -->
      <g transform="translate(39.6375 645.02575) scale(0.2 -0.2)">
       <use xlink:href="#TimesNewRomanPSMT-38"/>
      </g>
     </g>
    </g>
    <g id="text_43">
     <!-- CPU使用率 -->
     <g transform="translate(33.059375 748.160625) rotate(-90) scale(0.2 -0.2)">
      <use xlink:href="#SimSun-43"/>
      <use xlink:href="#SimSun-50" x="50"/>
      <use xlink:href="#SimSun-55" x="100"/>
      <use xlink:href="#SimSun-4f7f" x="150"/>
      <use xlink:href="#SimSun-7528" x="250"/>
      <use xlink:href="#SimSun-7387" x="350"/>
     </g>
    </g>
   </g>
   <g id="line2d_45">
    <path d="M 117.35532 782.381076 
L 124.583632 683.912015 
L 131.811944 608.750794 
L 139.040256 662.699267 
L 146.268568 728.956367 
L 153.49688 748.859694 
L 160.725192 772.167527 
L 167.953504 757.501923 
L 175.181816 750.169122 
L 182.410128 746.502724 
L 189.63844 705.386655 
L 196.866752 645.414808 
L 204.095063 720.314138 
L 211.323375 731.575235 
L 218.551687 724.242427 
L 225.779999 746.502724 
L 233.008311 770.858099 
L 240.236623 756.978152 
L 247.464935 763.001526 
L 254.693247 739.693694 
L 261.921559 741.265007 
L 269.149871 742.05067 
L 276.378183 768.763015 
L 283.606495 768.763015 
L 290.834807 742.83632 
L 298.063119 755.93061 
L 305.291431 749.383465 
L 312.519742 706.696077 
L 319.748054 698.577619 
L 326.976366 733.932199 
L 334.204678 751.47855 
L 341.43299 773.215075 
L 348.661302 771.119984 
L 355.889614 770.072442 
L 363.117926 769.548671 
L 370.346238 769.286786 
L 377.57455 769.286786 
L 384.802862 769.0249 
L 392.031174 769.0249 
L 399.259486 782.11919 
L 406.487798 801.760625 
L 413.71611 785.523702 
L 420.944421 777.143358 
L 428.172733 760.120785 
L 435.401045 777.667129 
L 442.629357 773.215075 
L 449.857669 771.119984 
L 457.085981 770.072442 
L 464.314293 782.642961 
L 471.542605 788.928221 
L 478.770917 792.070847 
L 485.999229 767.453587 
L 493.227541 781.333527 
L 500.455853 775.31016 
L 507.684165 785.261817 
L 514.912477 777.143358 
L 522.140789 772.95319 
L 529.369101 784.214274 
L 536.597412 776.619587 
L 543.825724 772.691298 
L 551.054036 679.198075 
L 558.282348 698.053847 
L 565.51066 681.031268 
L 572.738972 711.9338 
L 579.967284 714.290764 
L 587.195596 754.883068 
L 594.423908 775.048274 
L 601.65222 667.151328 
L 608.880532 731.313343 
L 616.108844 737.074838 
L 623.337156 726.861283 
L 630.565468 747.812152 
L 637.79378 745.455182 
L 645.022091 639.391434 
L 652.250403 677.888641 
L 659.478715 710.362487 
L 666.707027 700.410824 
L 673.935339 747.812152 
L 681.163651 758.549466 
L 688.391963 711.410029 
L 695.620275 753.311755 
L 702.848587 748.074037 
L 710.076899 758.549466 
L 717.305211 763.787183 
L 724.533523 753.311755 
L 731.761835 734.979741 
L 738.990147 752.002321 
L 746.218459 773.476954 
L 753.44677 771.38187 
L 760.675082 770.072442 
L 767.903394 769.548671 
L 775.131706 756.192496 
L 782.360018 775.833931 
L 789.58833 772.429412 
L 796.816642 770.596213 
L 804.044954 769.810557 
L 811.273266 769.548671 
L 818.501578 782.381076 
L 825.72989 775.572045 
L 832.958202 772.429412 
L 840.186514 783.690503 
L 847.414826 776.357702 
L 854.643138 772.691298 
L 861.871449 770.858099 
L 869.099761 770.072442 
L 876.328073 782.642961 
L 883.556385 775.833931 
L 890.784697 772.429412 
L 898.013009 770.596213 
L 905.241321 782.904847 
L 912.469633 776.095816 
L 919.697945 759.335122 
L 926.926257 777.405244 
L 934.154569 773.215075 
L 941.382881 784.214274 
L 948.611193 763.525297 
L 955.839505 726.861283 
L 963.067817 761.168327 
L 970.296128 699.625161 
L 977.52444 747.288381 
L 984.752752 758.28758 
L 991.981064 776.619587 
L 999.209376 733.67032 
L 1006.437688 698.83951 
L 1013.666 747.026495 
L 1020.894312 758.025694 
L 1028.122624 737.336717 
L 1035.350936 740.217465 
L 1042.579248 741.526899 
L 1049.80756 715.862077 
L 1057.035872 755.668725 
L 1064.264184 762.21587 
L 1071.492496 765.620388 
L 1078.720808 741.265007 
L 1085.949119 728.956367 
L 1093.177431 709.576824 
L 1100.405743 739.431802 
L 1107.634055 727.908825 
L 1114.862367 604.560625 
L 1122.090679 686.792763 
L 1129.318991 675.531665 
L 1136.547303 722.147343 
L 1143.775615 680.245618 
L 1151.003927 632.844289 
L 1158.232239 661.651725 
L 1165.460551 728.432596 
L 1172.688863 748.859694 
L 1179.917175 719.528487 
L 1187.145487 744.407633 
L 1194.373798 717.433403 
L 1201.60211 743.098206 
L 1208.830422 756.192496 
L 1216.058734 775.572045 
L 1223.287046 772.429412 
L 1230.515358 770.596213 
L 1237.74367 769.810557 
L 1244.971982 769.548671 
L 1252.200294 782.381076 
L 1259.428606 788.666335 
L 1266.656918 778.976557 
L 1273.88523 774.000732 
L 1281.113542 784.47616 
L 1288.341854 776.881473 
L 1295.570166 772.95319 
L 1302.798477 783.952389 
L 1310.026789 763.525297 
L 1317.255101 779.238443 
L 1324.483413 774.262617 
L 1331.711725 771.643756 
L 1331.711725 771.643756 
" clip-path="url(#pd8ad4512f1)" style="fill: none; stroke: #1f77b4; stroke-width: 1.5; stroke-linecap: square"/>
   </g>
   <g id="line2d_46">
    <path d="M 1165.460551 739.604394 
L 1172.688863 739.911591 
L 1179.917175 741.312822 
L 1187.145487 741.116291 
L 1194.373798 740.624001 
L 1201.60211 740.654446 
L 1208.830422 740.65607 
L 1216.058734 740.735841 
L 1223.287046 741.442282 
L 1230.515358 740.952977 
L 1237.74367 740.272161 
L 1244.971982 739.846793 
L 1252.200294 740.135108 
L 1259.428606 740.80004 
L 1266.656918 741.678312 
L 1273.88523 741.438398 
L 1281.113542 741.444867 
L 1288.341854 744.528589 
L 1295.570166 744.960826 
L 1302.798477 745.516265 
L 1310.026789 744.569543 
L 1317.255101 744.929163 
L 1324.483413 746.470044 
L 1331.711725 747.196247 
" clip-path="url(#pd8ad4512f1)" style="fill: none; stroke: #ff7f0e; stroke-width: 1.5; stroke-linecap: square"/>
   </g>
   <g id="line2d_47">
    <path d="M 1165.460551 811.620625 
L 1165.460551 594.700625 
" clip-path="url(#pd8ad4512f1)" style="fill: none; stroke-dasharray: 7.4,3.2; stroke-dashoffset: 0; stroke: #0000ff; stroke-width: 2"/>
   </g>
   <g id="patch_14">
    <path d="M 56.6375 811.620625 
L 56.6375 594.700625 
" style="fill: none; stroke: #000000; stroke-width: 0.8; stroke-linejoin: miter; stroke-linecap: square"/>
   </g>
   <g id="patch_15">
    <path d="M 1392.429545 811.620625 
L 1392.429545 594.700625 
" style="fill: none; stroke: #000000; stroke-width: 0.8; stroke-linejoin: miter; stroke-linecap: square"/>
   </g>
   <g id="patch_16">
    <path d="M 56.6375 811.620625 
L 1392.429545 811.620625 
" style="fill: none; stroke: #000000; stroke-width: 0.8; stroke-linejoin: miter; stroke-linecap: square"/>
   </g>
   <g id="patch_17">
    <path d="M 56.6375 594.700625 
L 1392.429545 594.700625 
" style="fill: none; stroke: #000000; stroke-width: 0.8; stroke-linejoin: miter; stroke-linecap: square"/>
   </g>
   <g id="text_44">
    <!-- API_ID: 4 -->
    <g transform="translate(679.533523 588.700625) scale(0.2 -0.2)">
     <defs>
      <path id="SimSun-34" d="M 2300 575 
Q 2300 400 2400 325 
Q 2500 250 2675 250 
L 2900 250 
L 2900 100 
L 1250 100 
L 1250 250 
L 1525 250 
Q 1725 250 1812 325 
Q 1900 400 1900 575 
L 1900 1400 
L 225 1400 
L 225 1525 
L 2050 4425 
L 2300 4425 
L 2300 1550 
L 2975 1550 
L 2975 1400 
L 2300 1400 
L 2300 575 
z
M 1875 3800 
L 450 1550 
L 1900 1550 
L 1900 3800 
L 1875 3800 
z
" transform="scale(0.015625)"/>
     </defs>
     <use xlink:href="#SimSun-41"/>
     <use xlink:href="#SimSun-50" x="50"/>
     <use xlink:href="#SimSun-49" x="100"/>
     <use xlink:href="#SimSun-5f" x="150"/>
     <use xlink:href="#SimSun-49" x="200"/>
     <use xlink:href="#SimSun-44" x="250"/>
     <use xlink:href="#SimSun-3a" x="300"/>
     <use xlink:href="#SimSun-20" x="350"/>
     <use xlink:href="#SimSun-34" x="400"/>
    </g>
   </g>
  </g>
  <g id="axes_4">
   <g id="patch_18">
    <path d="M 56.6375 1095.300625 
L 1392.429545 1095.300625 
L 1392.429545 878.380625 
L 56.6375 878.380625 
z
" style="fill: #ffffff"/>
   </g>
   <g id="matplotlib.axis_7">
    <g id="xtick_25">
     <g id="line2d_48">
      <g>
       <use xlink:href="#m08339ad2e9" x="117.35532" y="1095.300625" style="stroke: #000000; stroke-width: 0.8"/>
      </g>
     </g>
     <g id="text_45">
      <!-- 0 -->
      <g transform="translate(112.35532 1116.188125) scale(0.2 -0.2)">
       <use xlink:href="#TimesNewRomanPSMT-30"/>
      </g>
     </g>
    </g>
    <g id="xtick_26">
     <g id="line2d_49">
      <g>
       <use xlink:href="#m08339ad2e9" x="298.063119" y="1095.300625" style="stroke: #000000; stroke-width: 0.8"/>
      </g>
     </g>
     <g id="text_46">
      <!-- 25 -->
      <g transform="translate(288.063119 1116.188125) scale(0.2 -0.2)">
       <use xlink:href="#TimesNewRomanPSMT-32"/>
       <use xlink:href="#TimesNewRomanPSMT-35" x="50"/>
      </g>
     </g>
    </g>
    <g id="xtick_27">
     <g id="line2d_50">
      <g>
       <use xlink:href="#m08339ad2e9" x="478.770917" y="1095.300625" style="stroke: #000000; stroke-width: 0.8"/>
      </g>
     </g>
     <g id="text_47">
      <!-- 50 -->
      <g transform="translate(468.770917 1116.188125) scale(0.2 -0.2)">
       <use xlink:href="#TimesNewRomanPSMT-35"/>
       <use xlink:href="#TimesNewRomanPSMT-30" x="50"/>
      </g>
     </g>
    </g>
    <g id="xtick_28">
     <g id="line2d_51">
      <g>
       <use xlink:href="#m08339ad2e9" x="659.478715" y="1095.300625" style="stroke: #000000; stroke-width: 0.8"/>
      </g>
     </g>
     <g id="text_48">
      <!-- 75 -->
      <g transform="translate(649.478715 1116.188125) scale(0.2 -0.2)">
       <use xlink:href="#TimesNewRomanPSMT-37"/>
       <use xlink:href="#TimesNewRomanPSMT-35" x="50"/>
      </g>
     </g>
    </g>
    <g id="xtick_29">
     <g id="line2d_52">
      <g>
       <use xlink:href="#m08339ad2e9" x="840.186514" y="1095.300625" style="stroke: #000000; stroke-width: 0.8"/>
      </g>
     </g>
     <g id="text_49">
      <!-- 100 -->
      <g transform="translate(825.186514 1116.188125) scale(0.2 -0.2)">
       <use xlink:href="#TimesNewRomanPSMT-31"/>
       <use xlink:href="#TimesNewRomanPSMT-30" x="50"/>
       <use xlink:href="#TimesNewRomanPSMT-30" x="100"/>
      </g>
     </g>
    </g>
    <g id="xtick_30">
     <g id="line2d_53">
      <g>
       <use xlink:href="#m08339ad2e9" x="1020.894312" y="1095.300625" style="stroke: #000000; stroke-width: 0.8"/>
      </g>
     </g>
     <g id="text_50">
      <!-- 125 -->
      <g transform="translate(1005.894312 1116.188125) scale(0.2 -0.2)">
       <use xlink:href="#TimesNewRomanPSMT-31"/>
       <use xlink:href="#TimesNewRomanPSMT-32" x="50"/>
       <use xlink:href="#TimesNewRomanPSMT-35" x="100"/>
      </g>
     </g>
    </g>
    <g id="xtick_31">
     <g id="line2d_54">
      <g>
       <use xlink:href="#m08339ad2e9" x="1201.60211" y="1095.300625" style="stroke: #000000; stroke-width: 0.8"/>
      </g>
     </g>
     <g id="text_51">
      <!-- 150 -->
      <g transform="translate(1186.60211 1116.188125) scale(0.2 -0.2)">
       <use xlink:href="#TimesNewRomanPSMT-31"/>
       <use xlink:href="#TimesNewRomanPSMT-35" x="50"/>
       <use xlink:href="#TimesNewRomanPSMT-30" x="100"/>
      </g>
     </g>
    </g>
    <g id="xtick_32">
     <g id="line2d_55">
      <g>
       <use xlink:href="#m08339ad2e9" x="1382.309909" y="1095.300625" style="stroke: #000000; stroke-width: 0.8"/>
      </g>
     </g>
     <g id="text_52">
      <!-- 175 -->
      <g transform="translate(1367.309909 1116.188125) scale(0.2 -0.2)">
       <use xlink:href="#TimesNewRomanPSMT-31"/>
       <use xlink:href="#TimesNewRomanPSMT-37" x="50"/>
       <use xlink:href="#TimesNewRomanPSMT-35" x="100"/>
      </g>
     </g>
    </g>
   </g>
   <g id="matplotlib.axis_8">
    <g id="ytick_13">
     <g id="line2d_56">
      <g>
       <use xlink:href="#m187e8b3444" x="56.6375" y="1052.2702" style="stroke: #000000; stroke-width: 0.8"/>
      </g>
     </g>
     <g id="text_53">
      <!-- 10 -->
      <g transform="translate(29.6375 1059.21395) scale(0.2 -0.2)">
       <use xlink:href="#TimesNewRomanPSMT-31"/>
       <use xlink:href="#TimesNewRomanPSMT-30" x="50"/>
      </g>
     </g>
    </g>
    <g id="ytick_14">
     <g id="line2d_57">
      <g>
       <use xlink:href="#m187e8b3444" x="56.6375" y="1006.706429" style="stroke: #000000; stroke-width: 0.8"/>
      </g>
     </g>
     <g id="text_54">
      <!-- 20 -->
      <g transform="translate(29.6375 1013.650179) scale(0.2 -0.2)">
       <use xlink:href="#TimesNewRomanPSMT-32"/>
       <use xlink:href="#TimesNewRomanPSMT-30" x="50"/>
      </g>
     </g>
    </g>
    <g id="ytick_15">
     <g id="line2d_58">
      <g>
       <use xlink:href="#m187e8b3444" x="56.6375" y="961.142658" style="stroke: #000000; stroke-width: 0.8"/>
      </g>
     </g>
     <g id="text_55">
      <!-- 30 -->
      <g transform="translate(29.6375 968.086408) scale(0.2 -0.2)">
       <defs>
        <path id="TimesNewRomanPSMT-33" d="M 325 3431 
Q 506 3859 782 4092 
Q 1059 4325 1472 4325 
Q 1981 4325 2253 3994 
Q 2459 3747 2459 3466 
Q 2459 3003 1878 2509 
Q 2269 2356 2469 2072 
Q 2669 1788 2669 1403 
Q 2669 853 2319 450 
Q 1863 -75 997 -75 
Q 569 -75 414 31 
Q 259 138 259 259 
Q 259 350 332 419 
Q 406 488 509 488 
Q 588 488 669 463 
Q 722 447 909 348 
Q 1097 250 1169 231 
Q 1284 197 1416 197 
Q 1734 197 1970 444 
Q 2206 691 2206 1028 
Q 2206 1275 2097 1509 
Q 2016 1684 1919 1775 
Q 1784 1900 1550 2001 
Q 1316 2103 1072 2103 
L 972 2103 
L 972 2197 
Q 1219 2228 1467 2375 
Q 1716 2522 1828 2728 
Q 1941 2934 1941 3181 
Q 1941 3503 1739 3701 
Q 1538 3900 1238 3900 
Q 753 3900 428 3381 
L 325 3431 
z
" transform="scale(0.015625)"/>
       </defs>
       <use xlink:href="#TimesNewRomanPSMT-33"/>
       <use xlink:href="#TimesNewRomanPSMT-30" x="50"/>
      </g>
     </g>
    </g>
    <g id="ytick_16">
     <g id="line2d_59">
      <g>
       <use xlink:href="#m187e8b3444" x="56.6375" y="915.578887" style="stroke: #000000; stroke-width: 0.8"/>
      </g>
     </g>
     <g id="text_56">
      <!-- 40 -->
      <g transform="translate(29.6375 922.522637) scale(0.2 -0.2)">
       <use xlink:href="#TimesNewRomanPSMT-34"/>
       <use xlink:href="#TimesNewRomanPSMT-30" x="50"/>
      </g>
     </g>
    </g>
    <g id="text_57">
     <!-- CPU使用率 -->
     <g transform="translate(23.059375 1031.840625) rotate(-90) scale(0.2 -0.2)">
      <use xlink:href="#SimSun-43"/>
      <use xlink:href="#SimSun-50" x="50"/>
      <use xlink:href="#SimSun-55" x="100"/>
      <use xlink:href="#SimSun-4f7f" x="150"/>
      <use xlink:href="#SimSun-7528" x="250"/>
      <use xlink:href="#SimSun-7387" x="350"/>
     </g>
    </g>
   </g>
   <g id="line2d_60">
    <path d="M 117.35532 924.646086 
L 124.583632 901.909756 
L 131.811944 892.797019 
L 139.040256 888.240625 
L 146.268568 901.909756 
L 153.49688 913.300699 
L 160.725192 907.605228 
L 167.953504 895.621951 
L 175.181816 937.495068 
L 182.410128 958.454395 
L 189.63844 978.001257 
L 196.866752 980.962892 
L 204.095063 961.962808 
L 211.323375 952.439979 
L 218.551687 963.603097 
L 225.779999 976.042005 
L 233.008311 975.44968 
L 240.236623 1004.747186 
L 247.464935 1005.704021 
L 254.693247 1028.987115 
L 261.921559 1056.598757 
L 269.149871 1052.13351 
L 276.378183 1049.946447 
L 283.606495 1055.641918 
L 290.834807 1035.730555 
L 298.063119 1039.466778 
L 305.291431 1027.620201 
L 312.519742 1044.52436 
L 319.748054 1011.946261 
L 326.976366 1000.190809 
L 334.204678 982.9677 
L 341.43299 978.866962 
L 348.661302 965.471211 
L 355.889614 972.396907 
L 363.117926 975.905319 
L 370.346238 979.914936 
L 377.57455 1025.205322 
L 384.802862 1041.015952 
L 392.031174 1037.507539 
L 399.259486 1035.776115 
L 406.487798 1025.797652 
L 413.71611 1041.334892 
L 420.944421 1008.073339 
L 428.172733 1016.502638 
L 435.401045 1029.80726 
L 442.629357 1029.670569 
L 449.857669 1047.804953 
L 457.085981 1045.481199 
L 464.314293 1048.852917 
L 471.542605 1061.975284 
L 478.770917 1061.656336 
L 485.999229 1061.519646 
L 493.227541 1072.865024 
L 500.455853 1058.011236 
L 507.684165 1071.088038 
L 514.912477 1052.54358 
L 522.140789 1047.850513 
L 529.369101 1047.804953 
L 536.597412 1015.864748 
L 543.825724 1004.428241 
L 551.054036 973.672695 
L 558.282348 937.814013 
L 565.51066 942.643761 
L 572.738972 949.61503 
L 579.967284 948.521492 
L 587.195596 945.742099 
L 594.423908 901.044051 
L 601.65222 906.010503 
L 608.880532 908.516506 
L 616.108844 916.626852 
L 623.337156 954.809288 
L 630.565468 989.893395 
L 637.79378 1002.833507 
L 645.022091 1032.131017 
L 652.250403 1039.922418 
L 659.478715 1030.126209 
L 666.707027 1043.476391 
L 673.935339 1061.565209 
L 681.163651 1047.804953 
L 688.391963 1061.428519 
L 695.620275 1068.21752 
L 702.848587 1062.522048 
L 710.076899 1075.644415 
L 717.305211 1082.160033 
L 724.533523 1085.440625 
L 731.761835 1068.855412 
L 738.990147 1060.562805 
L 746.218459 1042.747371 
L 753.44677 1047.531568 
L 760.675082 1052.17907 
L 767.903394 1033.999127 
L 775.131706 1022.608184 
L 782.360018 1010.123712 
L 789.58833 1003.835915 
L 796.816642 1007.572143 
L 804.044954 995.725552 
L 811.273266 1005.79515 
L 818.501578 990.30347 
L 825.72989 991.67038 
L 832.958202 1006.022966 
L 840.186514 1029.123805 
L 847.414826 1031.584248 
L 854.643138 1035.092661 
L 861.871449 1009.531378 
L 869.099761 1030.900793 
L 876.328073 1011.946261 
L 883.556385 1018.461882 
L 890.784697 996.636831 
L 898.013009 1017.596168 
L 905.241321 1034.955966 
L 912.469633 1034.500331 
L 919.697945 1013.76881 
L 926.926257 1014.771219 
L 934.154569 1017.596168 
L 941.382881 1030.354029 
L 948.611193 1023.109388 
L 955.839505 1001.238782 
L 963.067817 994.859847 
L 970.296128 993.948568 
L 977.52444 998.049306 
L 984.752752 1013.76881 
L 991.981064 978.320193 
L 999.209376 972.032397 
L 1006.437688 943.782873 
L 1013.666 950.207364 
L 1020.894312 935.171305 
L 1028.122624 943.600614 
L 1035.350936 945.514284 
L 1042.579248 969.298569 
L 1049.80756 926.468626 
L 1057.035872 936.993863 
L 1064.264184 933.120932 
L 1071.492496 931.161689 
L 1078.720808 927.926665 
L 1085.949119 965.061137 
L 1093.177431 988.161967 
L 1100.405743 1008.802358 
L 1107.634055 1041.927226 
L 1114.862367 1040.286928 
L 1122.090679 1037.143029 
L 1129.318991 1033.315672 
L 1136.547303 994.950968 
L 1143.775615 984.881379 
L 1151.003927 991.260314 
L 1158.232239 1010.351527 
L 1165.460551 1006.25079 
L 1172.688863 999.644039 
L 1179.917175 1016.867148 
L 1187.145487 1016.320379 
L 1194.373798 1020.648941 
L 1201.60211 984.061229 
L 1208.830422 993.082863 
L 1216.058734 974.857354 
L 1223.287046 999.871855 
L 1230.515358 985.063629 
L 1237.74367 986.795057 
L 1244.971982 1001.284338 
L 1252.200294 1015.409109 
L 1259.428606 1026.982306 
L 1266.656918 1039.649033 
L 1273.88523 1039.102273 
L 1281.113542 1032.039888 
L 1288.341854 1019.373161 
L 1295.570166 999.370659 
L 1302.798477 998.459389 
L 1310.026789 1000.327494 
L 1317.255101 1026.298851 
L 1324.483413 1050.675471 
L 1331.711725 1058.284616 
L 1331.711725 1058.284616 
" clip-path="url(#p69dbf3f994)" style="fill: none; stroke: #1f77b4; stroke-width: 1.5; stroke-linecap: square"/>
   </g>
   <g id="line2d_61">
    <path d="M 1165.460551 1039.408295 
L 1172.688863 1036.506865 
L 1179.917175 1035.12296 
L 1187.145487 1032.192577 
L 1194.373798 1030.290387 
L 1201.60211 1027.566962 
L 1208.830422 1025.146817 
L 1216.058734 1021.394151 
L 1223.287046 1022.063101 
L 1230.515358 1021.325582 
L 1237.74367 1021.227031 
L 1244.971982 1021.078569 
L 1252.200294 1021.254467 
L 1259.428606 1018.390158 
L 1266.656918 1014.566937 
L 1273.88523 1009.201274 
L 1281.113542 1005.362046 
L 1288.341854 1006.148423 
L 1295.570166 1008.171404 
L 1302.798477 1011.222673 
L 1310.026789 1016.538947 
L 1317.255101 1019.826314 
L 1324.483413 1020.252441 
L 1331.711725 1018.241201 
" clip-path="url(#p69dbf3f994)" style="fill: none; stroke: #ff7f0e; stroke-width: 1.5; stroke-linecap: square"/>
   </g>
   <g id="line2d_62">
    <path d="M 1165.460551 1095.300625 
L 1165.460551 878.380625 
" clip-path="url(#p69dbf3f994)" style="fill: none; stroke-dasharray: 7.4,3.2; stroke-dashoffset: 0; stroke: #0000ff; stroke-width: 2"/>
   </g>
   <g id="patch_19">
    <path d="M 56.6375 1095.300625 
L 56.6375 878.380625 
" style="fill: none; stroke: #000000; stroke-width: 0.8; stroke-linejoin: miter; stroke-linecap: square"/>
   </g>
   <g id="patch_20">
    <path d="M 1392.429545 1095.300625 
L 1392.429545 878.380625 
" style="fill: none; stroke: #000000; stroke-width: 0.8; stroke-linejoin: miter; stroke-linecap: square"/>
   </g>
   <g id="patch_21">
    <path d="M 56.6375 1095.300625 
L 1392.429545 1095.300625 
" style="fill: none; stroke: #000000; stroke-width: 0.8; stroke-linejoin: miter; stroke-linecap: square"/>
   </g>
   <g id="patch_22">
    <path d="M 56.6375 878.380625 
L 1392.429545 878.380625 
" style="fill: none; stroke: #000000; stroke-width: 0.8; stroke-linejoin: miter; stroke-linecap: square"/>
   </g>
   <g id="text_58">
    <!-- API_ID: 5 -->
    <g transform="translate(679.533523 872.380625) scale(0.2 -0.2)">
     <defs>
      <path id="SimSun-35" d="M 1725 2850 
Q 2200 2850 2500 2487 
Q 2800 2125 2800 1525 
Q 2800 850 2487 450 
Q 2175 50 1525 50 
Q 1075 50 725 312 
Q 375 575 375 950 
Q 375 1100 462 1212 
Q 550 1325 700 1325 
Q 850 1325 900 1225 
Q 950 1125 950 1050 
Q 950 900 875 825 
Q 800 725 800 625 
Q 800 425 1037 325 
Q 1275 225 1550 225 
Q 1950 225 2162 550 
Q 2375 875 2375 1475 
Q 2375 1975 2187 2287 
Q 2000 2600 1625 2600 
Q 1350 2600 1150 2500 
Q 950 2400 775 2075 
L 550 2100 
L 675 4375 
L 2725 4375 
L 2650 4000 
L 850 4000 
L 750 2350 
Q 1000 2700 1237 2775 
Q 1475 2850 1725 2850 
z
" transform="scale(0.015625)"/>
     </defs>
     <use xlink:href="#SimSun-41"/>
     <use xlink:href="#SimSun-50" x="50"/>
     <use xlink:href="#SimSun-49" x="100"/>
     <use xlink:href="#SimSun-5f" x="150"/>
     <use xlink:href="#SimSun-49" x="200"/>
     <use xlink:href="#SimSun-44" x="250"/>
     <use xlink:href="#SimSun-3a" x="300"/>
     <use xlink:href="#SimSun-20" x="350"/>
     <use xlink:href="#SimSun-35" x="400"/>
    </g>
   </g>
  </g>
  <g id="axes_5">
   <g id="patch_23">
    <path d="M 56.6375 1378.980625 
L 1392.429545 1378.980625 
L 1392.429545 1162.060625 
L 56.6375 1162.060625 
z
" style="fill: #ffffff"/>
   </g>
   <g id="matplotlib.axis_9">
    <g id="xtick_33">
     <g id="line2d_63">
      <g>
       <use xlink:href="#m08339ad2e9" x="117.35532" y="1378.980625" style="stroke: #000000; stroke-width: 0.8"/>
      </g>
     </g>
     <g id="text_59">
      <!-- 0 -->
      <g transform="translate(112.35532 1399.868125) scale(0.2 -0.2)">
       <use xlink:href="#TimesNewRomanPSMT-30"/>
      </g>
     </g>
    </g>
    <g id="xtick_34">
     <g id="line2d_64">
      <g>
       <use xlink:href="#m08339ad2e9" x="298.063119" y="1378.980625" style="stroke: #000000; stroke-width: 0.8"/>
      </g>
     </g>
     <g id="text_60">
      <!-- 25 -->
      <g transform="translate(288.063119 1399.868125) scale(0.2 -0.2)">
       <use xlink:href="#TimesNewRomanPSMT-32"/>
       <use xlink:href="#TimesNewRomanPSMT-35" x="50"/>
      </g>
     </g>
    </g>
    <g id="xtick_35">
     <g id="line2d_65">
      <g>
       <use xlink:href="#m08339ad2e9" x="478.770917" y="1378.980625" style="stroke: #000000; stroke-width: 0.8"/>
      </g>
     </g>
     <g id="text_61">
      <!-- 50 -->
      <g transform="translate(468.770917 1399.868125) scale(0.2 -0.2)">
       <use xlink:href="#TimesNewRomanPSMT-35"/>
       <use xlink:href="#TimesNewRomanPSMT-30" x="50"/>
      </g>
     </g>
    </g>
    <g id="xtick_36">
     <g id="line2d_66">
      <g>
       <use xlink:href="#m08339ad2e9" x="659.478715" y="1378.980625" style="stroke: #000000; stroke-width: 0.8"/>
      </g>
     </g>
     <g id="text_62">
      <!-- 75 -->
      <g transform="translate(649.478715 1399.868125) scale(0.2 -0.2)">
       <use xlink:href="#TimesNewRomanPSMT-37"/>
       <use xlink:href="#TimesNewRomanPSMT-35" x="50"/>
      </g>
     </g>
    </g>
    <g id="xtick_37">
     <g id="line2d_67">
      <g>
       <use xlink:href="#m08339ad2e9" x="840.186514" y="1378.980625" style="stroke: #000000; stroke-width: 0.8"/>
      </g>
     </g>
     <g id="text_63">
      <!-- 100 -->
      <g transform="translate(825.186514 1399.868125) scale(0.2 -0.2)">
       <use xlink:href="#TimesNewRomanPSMT-31"/>
       <use xlink:href="#TimesNewRomanPSMT-30" x="50"/>
       <use xlink:href="#TimesNewRomanPSMT-30" x="100"/>
      </g>
     </g>
    </g>
    <g id="xtick_38">
     <g id="line2d_68">
      <g>
       <use xlink:href="#m08339ad2e9" x="1020.894312" y="1378.980625" style="stroke: #000000; stroke-width: 0.8"/>
      </g>
     </g>
     <g id="text_64">
      <!-- 125 -->
      <g transform="translate(1005.894312 1399.868125) scale(0.2 -0.2)">
       <use xlink:href="#TimesNewRomanPSMT-31"/>
       <use xlink:href="#TimesNewRomanPSMT-32" x="50"/>
       <use xlink:href="#TimesNewRomanPSMT-35" x="100"/>
      </g>
     </g>
    </g>
    <g id="xtick_39">
     <g id="line2d_69">
      <g>
       <use xlink:href="#m08339ad2e9" x="1201.60211" y="1378.980625" style="stroke: #000000; stroke-width: 0.8"/>
      </g>
     </g>
     <g id="text_65">
      <!-- 150 -->
      <g transform="translate(1186.60211 1399.868125) scale(0.2 -0.2)">
       <use xlink:href="#TimesNewRomanPSMT-31"/>
       <use xlink:href="#TimesNewRomanPSMT-35" x="50"/>
       <use xlink:href="#TimesNewRomanPSMT-30" x="100"/>
      </g>
     </g>
    </g>
    <g id="xtick_40">
     <g id="line2d_70">
      <g>
       <use xlink:href="#m08339ad2e9" x="1382.309909" y="1378.980625" style="stroke: #000000; stroke-width: 0.8"/>
      </g>
     </g>
     <g id="text_66">
      <!-- 175 -->
      <g transform="translate(1367.309909 1399.868125) scale(0.2 -0.2)">
       <use xlink:href="#TimesNewRomanPSMT-31"/>
       <use xlink:href="#TimesNewRomanPSMT-37" x="50"/>
       <use xlink:href="#TimesNewRomanPSMT-35" x="100"/>
      </g>
     </g>
    </g>
   </g>
   <g id="matplotlib.axis_10">
    <g id="ytick_17">
     <g id="line2d_71">
      <g>
       <use xlink:href="#m187e8b3444" x="56.6375" y="1376.853959" style="stroke: #000000; stroke-width: 0.8"/>
      </g>
     </g>
     <g id="text_67">
      <!-- 0 -->
      <g transform="translate(39.6375 1383.797709) scale(0.2 -0.2)">
       <use xlink:href="#TimesNewRomanPSMT-30"/>
      </g>
     </g>
    </g>
    <g id="ytick_18">
     <g id="line2d_72">
      <g>
       <use xlink:href="#m187e8b3444" x="56.6375" y="1299.520626" style="stroke: #000000; stroke-width: 0.8"/>
      </g>
     </g>
     <g id="text_68">
      <!-- 20 -->
      <g transform="translate(29.6375 1306.464376) scale(0.2 -0.2)">
       <use xlink:href="#TimesNewRomanPSMT-32"/>
       <use xlink:href="#TimesNewRomanPSMT-30" x="50"/>
      </g>
     </g>
    </g>
    <g id="ytick_19">
     <g id="line2d_73">
      <g>
       <use xlink:href="#m187e8b3444" x="56.6375" y="1222.187292" style="stroke: #000000; stroke-width: 0.8"/>
      </g>
     </g>
     <g id="text_69">
      <!-- 40 -->
      <g transform="translate(29.6375 1229.131042) scale(0.2 -0.2)">
       <use xlink:href="#TimesNewRomanPSMT-34"/>
       <use xlink:href="#TimesNewRomanPSMT-30" x="50"/>
      </g>
     </g>
    </g>
    <g id="text_70">
     <!-- CPU使用率 -->
     <g transform="translate(23.059375 1315.520625) rotate(-90) scale(0.2 -0.2)">
      <use xlink:href="#SimSun-43"/>
      <use xlink:href="#SimSun-50" x="50"/>
      <use xlink:href="#SimSun-55" x="100"/>
      <use xlink:href="#SimSun-4f7f" x="150"/>
      <use xlink:href="#SimSun-7528" x="250"/>
      <use xlink:href="#SimSun-7387" x="350"/>
     </g>
    </g>
   </g>
   <g id="line2d_74">
    <path d="M 117.35532 1365.253959 
L 124.583632 1334.320626 
L 131.811944 1334.320626 
L 139.040256 1345.920626 
L 146.268568 1307.253959 
L 153.49688 1330.453959 
L 160.725192 1307.253959 
L 167.953504 1345.920626 
L 175.181816 1276.320625 
L 182.410128 1284.053959 
L 189.63844 1264.720618 
L 196.866752 1272.453951 
L 204.095063 1253.120625 
L 211.323375 1276.320625 
L 218.551687 1276.320625 
L 225.779999 1280.187285 
L 233.008311 1353.653959 
L 240.236623 1342.053959 
L 247.464935 1322.720626 
L 254.693247 1322.720626 
L 261.921559 1307.253959 
L 269.149871 1342.053959 
L 276.378183 1272.453951 
L 283.606495 1314.987296 
L 290.834807 1330.453959 
L 298.063119 1318.853963 
L 305.291431 1349.787292 
L 312.519742 1330.453959 
L 319.748054 1338.187292 
L 326.976366 1357.520626 
L 334.204678 1345.920626 
L 341.43299 1345.920626 
L 348.661302 1365.253959 
L 355.889614 1330.453959 
L 363.117926 1365.253959 
L 370.346238 1322.720626 
L 377.57455 1330.453959 
L 384.802862 1334.320626 
L 392.031174 1280.187285 
L 399.259486 1287.920618 
L 406.487798 1245.387292 
L 413.71611 1210.587292 
L 420.944421 1249.253959 
L 428.172733 1256.987292 
L 435.401045 1249.253959 
L 442.629357 1245.387292 
L 449.857669 1171.920625 
L 457.085981 1218.32064 
L 464.314293 1218.32064 
L 471.542605 1229.92064 
L 478.770917 1287.920618 
L 485.999229 1314.987296 
L 493.227541 1307.253959 
L 500.455853 1345.920626 
L 507.684165 1334.320626 
L 514.912477 1311.120626 
L 522.140789 1342.053959 
L 529.369101 1361.387293 
L 536.597412 1322.720626 
L 543.825724 1357.520626 
L 551.054036 1357.520626 
L 558.282348 1342.053959 
L 565.51066 1369.120625 
L 579.967284 1369.120625 
L 587.195596 1338.187292 
L 594.423908 1338.187292 
L 601.65222 1314.987296 
L 608.880532 1338.187292 
L 616.108844 1342.053959 
L 623.337156 1307.253959 
L 630.565468 1303.387292 
L 637.79378 1291.787292 
L 645.022091 1291.787292 
L 652.250403 1303.387292 
L 659.478715 1280.187285 
L 666.707027 1307.253959 
L 673.935339 1272.453951 
L 681.163651 1287.920618 
L 688.391963 1311.120626 
L 695.620275 1338.187292 
L 702.848587 1322.720626 
L 710.076899 1326.587292 
L 717.305211 1280.187285 
L 724.533523 1338.187292 
L 731.761835 1287.920618 
L 738.990147 1314.987296 
L 746.218459 1272.453951 
L 753.44677 1326.587292 
L 760.675082 1338.187292 
L 767.903394 1322.720626 
L 775.131706 1287.920618 
L 782.360018 1307.253959 
L 789.58833 1311.120626 
L 796.816642 1330.453959 
L 804.044954 1307.253959 
L 811.273266 1276.320625 
L 818.501578 1284.053959 
L 825.72989 1287.920618 
L 832.958202 1295.653959 
L 840.186514 1318.853963 
L 847.414826 1245.387292 
L 854.643138 1264.720618 
L 861.871449 1222.187292 
L 869.099761 1256.987292 
L 876.328073 1226.053959 
L 883.556385 1253.120625 
L 890.784697 1249.253959 
L 898.013009 1287.920618 
L 905.241321 1195.120625 
L 912.469633 1249.253959 
L 919.697945 1233.787292 
L 926.926257 1233.787292 
L 934.154569 1229.92064 
L 941.382881 1295.653959 
L 948.611193 1303.387292 
L 955.839505 1318.853963 
L 963.067817 1357.520626 
L 970.296128 1326.587292 
L 984.752752 1318.853963 
L 991.981064 1256.987292 
L 999.209376 1272.453951 
L 1006.437688 1291.787292 
L 1013.666 1318.853963 
L 1020.894312 1295.653959 
L 1028.122624 1287.920618 
L 1035.350936 1322.720626 
L 1042.579248 1307.253959 
L 1049.80756 1314.987296 
L 1057.035872 1249.253959 
L 1064.264184 1295.653959 
L 1071.492496 1256.987292 
L 1078.720808 1314.987296 
L 1085.949119 1268.587292 
L 1093.177431 1284.053959 
L 1100.405743 1307.253959 
L 1107.634055 1318.853963 
L 1114.862367 1326.587292 
L 1122.090679 1338.187292 
L 1136.547303 1314.987296 
L 1143.775615 1299.520626 
L 1151.003927 1276.320625 
L 1158.232239 1291.787292 
L 1165.460551 1295.653959 
L 1172.688863 1338.187292 
L 1179.917175 1357.520626 
L 1194.373798 1342.053959 
L 1201.60211 1357.520626 
L 1208.830422 1369.120625 
L 1216.058734 1338.187292 
L 1223.287046 1365.253959 
L 1230.515358 1345.920626 
L 1244.971982 1322.720626 
L 1252.200294 1330.453959 
L 1259.428606 1322.720626 
L 1266.656918 1318.853963 
L 1273.88523 1303.387292 
L 1281.113542 1318.853963 
L 1288.341854 1280.187285 
L 1295.570166 1307.253959 
L 1302.798477 1264.720618 
L 1310.026789 1245.387292 
L 1317.255101 1272.453951 
L 1324.483413 1272.453951 
L 1331.711725 1322.720626 
L 1331.711725 1322.720626 
" clip-path="url(#pa0061d6d6c)" style="fill: none; stroke: #1f77b4; stroke-width: 1.5; stroke-linecap: square"/>
   </g>
   <g id="line2d_75">
    <path d="M 1165.460551 1313.657491 
L 1172.688863 1314.22462 
L 1179.917175 1312.344056 
L 1187.145487 1308.41375 
L 1194.373798 1307.637448 
L 1201.60211 1306.552921 
L 1208.830422 1302.149754 
L 1216.058734 1300.203455 
L 1223.287046 1297.485914 
L 1230.515358 1299.235793 
L 1237.74367 1294.520837 
L 1244.971982 1293.776897 
L 1252.200294 1287.012672 
L 1259.428606 1287.147636 
L 1266.656918 1285.363965 
L 1273.88523 1282.695004 
L 1281.113542 1279.685418 
L 1288.341854 1277.966456 
L 1295.570166 1275.85865 
L 1302.798477 1277.222251 
L 1310.026789 1280.032762 
L 1317.255101 1283.989324 
L 1324.483413 1289.585587 
L 1331.711725 1291.853041 
" clip-path="url(#pa0061d6d6c)" style="fill: none; stroke: #ff7f0e; stroke-width: 1.5; stroke-linecap: square"/>
   </g>
   <g id="line2d_76">
    <path d="M 1165.460551 1378.980625 
L 1165.460551 1162.060625 
" clip-path="url(#pa0061d6d6c)" style="fill: none; stroke-dasharray: 7.4,3.2; stroke-dashoffset: 0; stroke: #0000ff; stroke-width: 2"/>
   </g>
   <g id="patch_24">
    <path d="M 56.6375 1378.980625 
L 56.6375 1162.060625 
" style="fill: none; stroke: #000000; stroke-width: 0.8; stroke-linejoin: miter; stroke-linecap: square"/>
   </g>
   <g id="patch_25">
    <path d="M 1392.429545 1378.980625 
L 1392.429545 1162.060625 
" style="fill: none; stroke: #000000; stroke-width: 0.8; stroke-linejoin: miter; stroke-linecap: square"/>
   </g>
   <g id="patch_26">
    <path d="M 56.6375 1378.980625 
L 1392.429545 1378.980625 
" style="fill: none; stroke: #000000; stroke-width: 0.8; stroke-linejoin: miter; stroke-linecap: square"/>
   </g>
   <g id="patch_27">
    <path d="M 56.6375 1162.060625 
L 1392.429545 1162.060625 
" style="fill: none; stroke: #000000; stroke-width: 0.8; stroke-linejoin: miter; stroke-linecap: square"/>
   </g>
   <g id="text_71">
    <!-- API_ID: 36 -->
    <g transform="translate(674.533523 1156.060625) scale(0.2 -0.2)">
     <defs>
      <path id="SimSun-36" d="M 775 1800 
Q 775 1050 1037 637 
Q 1300 225 1675 225 
Q 2050 225 2250 500 
Q 2450 775 2450 1525 
Q 2450 2025 2237 2300 
Q 2025 2575 1725 2575 
Q 1450 2575 1212 2412 
Q 975 2250 775 1800 
z
M 1750 2825 
Q 2350 2825 2612 2425 
Q 2875 2025 2875 1525 
Q 2875 775 2512 412 
Q 2150 50 1675 50 
Q 1000 50 650 562 
Q 300 1075 300 2050 
Q 300 3200 725 3812 
Q 1150 4425 1875 4425 
Q 2225 4425 2437 4225 
Q 2650 4025 2650 3875 
Q 2650 3725 2587 3650 
Q 2525 3575 2375 3575 
Q 2250 3575 2187 3637 
Q 2125 3700 2125 3825 
Q 2125 3875 2150 3925 
Q 2150 3975 2150 4025 
Q 2150 4125 2075 4187 
Q 2000 4250 1800 4250 
Q 1375 4250 1075 3862 
Q 775 3475 775 2175 
Q 925 2500 1187 2662 
Q 1450 2825 1750 2825 
z
" transform="scale(0.015625)"/>
     </defs>
     <use xlink:href="#SimSun-41"/>
     <use xlink:href="#SimSun-50" x="50"/>
     <use xlink:href="#SimSun-49" x="100"/>
     <use xlink:href="#SimSun-5f" x="150"/>
     <use xlink:href="#SimSun-49" x="200"/>
     <use xlink:href="#SimSun-44" x="250"/>
     <use xlink:href="#SimSun-3a" x="300"/>
     <use xlink:href="#SimSun-20" x="350"/>
     <use xlink:href="#SimSun-33" x="400"/>
     <use xlink:href="#SimSun-36" x="450"/>
    </g>
   </g>
  </g>
 </g>
 <defs>
  <clipPath id="pf22dae809a">
   <rect x="56.6375" y="27.340625" width="1335.792045" height="216.92"/>
  </clipPath>
  <clipPath id="pf550174224">
   <rect x="56.6375" y="311.020625" width="1335.792045" height="216.92"/>
  </clipPath>
  <clipPath id="pd8ad4512f1">
   <rect x="56.6375" y="594.700625" width="1335.792045" height="216.92"/>
  </clipPath>
  <clipPath id="p69dbf3f994">
   <rect x="56.6375" y="878.380625" width="1335.792045" height="216.92"/>
  </clipPath>
  <clipPath id="pa0061d6d6c">
   <rect x="56.6375" y="1162.060625" width="1335.792045" height="216.92"/>
  </clipPath>
 </defs>
</svg>
