<?xml version="1.0" encoding="utf-8" standalone="no"?>
<!DOCTYPE svg PUBLIC "-//W3C//DTD SVG 1.1//EN"
  "http://www.w3.org/Graphics/SVG/1.1/DTD/svg11.dtd">
<svg xmlns:xlink="http://www.w3.org/1999/xlink" width="1050.580384pt" height="691.4825pt" viewBox="0 0 1050.580384 691.4825" xmlns="http://www.w3.org/2000/svg" version="1.1">
 <metadata>
  <rdf:RDF xmlns:dc="http://purl.org/dc/elements/1.1/" xmlns:cc="http://creativecommons.org/ns#" xmlns:rdf="http://www.w3.org/1999/02/22-rdf-syntax-ns#">
   <cc:Work>
    <dc:type rdf:resource="http://purl.org/dc/dcmitype/StillImage"/>
    <dc:date>2024-02-27T09:40:57.236365</dc:date>
    <dc:format>image/svg+xml</dc:format>
    <dc:creator>
     <cc:Agent>
      <dc:title>Matplotlib v3.7.4, https://matplotlib.org/</dc:title>
     </cc:Agent>
    </dc:creator>
   </cc:Work>
  </rdf:RDF>
 </metadata>
 <defs>
  <style type="text/css">*{stroke-linejoin: round; stroke-linecap: butt}</style>
 </defs>
 <g id="figure_1">
  <g id="patch_1">
   <path d="M 0 691.4825 
L 1050.580384 691.4825 
L 1050.580384 0 
L 0 0 
z
" style="fill: #ffffff"/>
  </g>
  <g id="axes_1">
   <g id="patch_2">
    <path d="M 71.6375 135.316875 
L 1032.489189 135.316875 
L 1032.489189 29.059375 
L 71.6375 29.059375 
z
" style="fill: #ffffff"/>
   </g>
   <g id="matplotlib.axis_1">
    <g id="xtick_1">
     <g id="line2d_1">
      <defs>
       <path id="mec47a37fd0" d="M 0 0 
L 0 3.5 
" style="stroke: #000000; stroke-width: 0.8"/>
      </defs>
      <g>
       <use xlink:href="#mec47a37fd0" x="115.312577" y="135.316875" style="stroke: #000000; stroke-width: 0.8"/>
      </g>
     </g>
     <g id="text_1">
      <!-- 0 -->
      <g transform="translate(110.312577 156.204375) scale(0.2 -0.2)">
       <defs>
        <path id="TimesNewRomanPSMT-30" d="M 231 2094 
Q 231 2819 450 3342 
Q 669 3866 1031 4122 
Q 1313 4325 1613 4325 
Q 2100 4325 2488 3828 
Q 2972 3213 2972 2159 
Q 2972 1422 2759 906 
Q 2547 391 2217 158 
Q 1888 -75 1581 -75 
Q 975 -75 572 641 
Q 231 1244 231 2094 
z
M 844 2016 
Q 844 1141 1059 588 
Q 1238 122 1591 122 
Q 1759 122 1940 273 
Q 2122 425 2216 781 
Q 2359 1319 2359 2297 
Q 2359 3022 2209 3506 
Q 2097 3866 1919 4016 
Q 1791 4119 1609 4119 
Q 1397 4119 1231 3928 
Q 1006 3669 925 3112 
Q 844 2556 844 2016 
z
" transform="scale(0.015625)"/>
       </defs>
       <use xlink:href="#TimesNewRomanPSMT-30"/>
      </g>
     </g>
    </g>
    <g id="xtick_2">
     <g id="line2d_2">
      <g>
       <use xlink:href="#mec47a37fd0" x="267.490545" y="135.316875" style="stroke: #000000; stroke-width: 0.8"/>
      </g>
     </g>
     <g id="text_2">
      <!-- 50 -->
      <g transform="translate(257.490545 156.204375) scale(0.2 -0.2)">
       <defs>
        <path id="TimesNewRomanPSMT-35" d="M 2778 4238 
L 2534 3706 
L 1259 3706 
L 981 3138 
Q 1809 3016 2294 2522 
Q 2709 2097 2709 1522 
Q 2709 1188 2573 903 
Q 2438 619 2231 419 
Q 2025 219 1772 97 
Q 1413 -75 1034 -75 
Q 653 -75 479 54 
Q 306 184 306 341 
Q 306 428 378 495 
Q 450 563 559 563 
Q 641 563 702 538 
Q 763 513 909 409 
Q 1144 247 1384 247 
Q 1750 247 2026 523 
Q 2303 800 2303 1197 
Q 2303 1581 2056 1914 
Q 1809 2247 1375 2428 
Q 1034 2569 447 2591 
L 1259 4238 
L 2778 4238 
z
" transform="scale(0.015625)"/>
       </defs>
       <use xlink:href="#TimesNewRomanPSMT-35"/>
       <use xlink:href="#TimesNewRomanPSMT-30" x="50"/>
      </g>
     </g>
    </g>
    <g id="xtick_3">
     <g id="line2d_3">
      <g>
       <use xlink:href="#mec47a37fd0" x="419.668513" y="135.316875" style="stroke: #000000; stroke-width: 0.8"/>
      </g>
     </g>
     <g id="text_3">
      <!-- 100 -->
      <g transform="translate(404.668513 156.204375) scale(0.2 -0.2)">
       <defs>
        <path id="TimesNewRomanPSMT-31" d="M 750 3822 
L 1781 4325 
L 1884 4325 
L 1884 747 
Q 1884 391 1914 303 
Q 1944 216 2037 169 
Q 2131 122 2419 116 
L 2419 0 
L 825 0 
L 825 116 
Q 1125 122 1212 167 
Q 1300 213 1334 289 
Q 1369 366 1369 747 
L 1369 3034 
Q 1369 3497 1338 3628 
Q 1316 3728 1258 3775 
Q 1200 3822 1119 3822 
Q 1003 3822 797 3725 
L 750 3822 
z
" transform="scale(0.015625)"/>
       </defs>
       <use xlink:href="#TimesNewRomanPSMT-31"/>
       <use xlink:href="#TimesNewRomanPSMT-30" x="50"/>
       <use xlink:href="#TimesNewRomanPSMT-30" x="100"/>
      </g>
     </g>
    </g>
    <g id="xtick_4">
     <g id="line2d_4">
      <g>
       <use xlink:href="#mec47a37fd0" x="571.84648" y="135.316875" style="stroke: #000000; stroke-width: 0.8"/>
      </g>
     </g>
     <g id="text_4">
      <!-- 150 -->
      <g transform="translate(556.84648 156.204375) scale(0.2 -0.2)">
       <use xlink:href="#TimesNewRomanPSMT-31"/>
       <use xlink:href="#TimesNewRomanPSMT-35" x="50"/>
       <use xlink:href="#TimesNewRomanPSMT-30" x="100"/>
      </g>
     </g>
    </g>
    <g id="xtick_5">
     <g id="line2d_5">
      <g>
       <use xlink:href="#mec47a37fd0" x="724.024448" y="135.316875" style="stroke: #000000; stroke-width: 0.8"/>
      </g>
     </g>
     <g id="text_5">
      <!-- 200 -->
      <g transform="translate(709.024448 156.204375) scale(0.2 -0.2)">
       <defs>
        <path id="TimesNewRomanPSMT-32" d="M 2934 816 
L 2638 0 
L 138 0 
L 138 116 
Q 1241 1122 1691 1759 
Q 2141 2397 2141 2925 
Q 2141 3328 1894 3587 
Q 1647 3847 1303 3847 
Q 991 3847 742 3664 
Q 494 3481 375 3128 
L 259 3128 
Q 338 3706 661 4015 
Q 984 4325 1469 4325 
Q 1984 4325 2329 3994 
Q 2675 3663 2675 3213 
Q 2675 2891 2525 2569 
Q 2294 2063 1775 1497 
Q 997 647 803 472 
L 1909 472 
Q 2247 472 2383 497 
Q 2519 522 2628 598 
Q 2738 675 2819 816 
L 2934 816 
z
" transform="scale(0.015625)"/>
       </defs>
       <use xlink:href="#TimesNewRomanPSMT-32"/>
       <use xlink:href="#TimesNewRomanPSMT-30" x="50"/>
       <use xlink:href="#TimesNewRomanPSMT-30" x="100"/>
      </g>
     </g>
    </g>
    <g id="xtick_6">
     <g id="line2d_6">
      <g>
       <use xlink:href="#mec47a37fd0" x="876.202416" y="135.316875" style="stroke: #000000; stroke-width: 0.8"/>
      </g>
     </g>
     <g id="text_6">
      <!-- 250 -->
      <g transform="translate(861.202416 156.204375) scale(0.2 -0.2)">
       <use xlink:href="#TimesNewRomanPSMT-32"/>
       <use xlink:href="#TimesNewRomanPSMT-35" x="50"/>
       <use xlink:href="#TimesNewRomanPSMT-30" x="100"/>
      </g>
     </g>
    </g>
    <g id="xtick_7">
     <g id="line2d_7">
      <g>
       <use xlink:href="#mec47a37fd0" x="1028.380384" y="135.316875" style="stroke: #000000; stroke-width: 0.8"/>
      </g>
     </g>
     <g id="text_7">
      <!-- 300 -->
      <g transform="translate(1013.380384 156.204375) scale(0.2 -0.2)">
       <defs>
        <path id="TimesNewRomanPSMT-33" d="M 325 3431 
Q 506 3859 782 4092 
Q 1059 4325 1472 4325 
Q 1981 4325 2253 3994 
Q 2459 3747 2459 3466 
Q 2459 3003 1878 2509 
Q 2269 2356 2469 2072 
Q 2669 1788 2669 1403 
Q 2669 853 2319 450 
Q 1863 -75 997 -75 
Q 569 -75 414 31 
Q 259 138 259 259 
Q 259 350 332 419 
Q 406 488 509 488 
Q 588 488 669 463 
Q 722 447 909 348 
Q 1097 250 1169 231 
Q 1284 197 1416 197 
Q 1734 197 1970 444 
Q 2206 691 2206 1028 
Q 2206 1275 2097 1509 
Q 2016 1684 1919 1775 
Q 1784 1900 1550 2001 
Q 1316 2103 1072 2103 
L 972 2103 
L 972 2197 
Q 1219 2228 1467 2375 
Q 1716 2522 1828 2728 
Q 1941 2934 1941 3181 
Q 1941 3503 1739 3701 
Q 1538 3900 1238 3900 
Q 753 3900 428 3381 
L 325 3431 
z
" transform="scale(0.015625)"/>
       </defs>
       <use xlink:href="#TimesNewRomanPSMT-33"/>
       <use xlink:href="#TimesNewRomanPSMT-30" x="50"/>
       <use xlink:href="#TimesNewRomanPSMT-30" x="100"/>
      </g>
     </g>
    </g>
   </g>
   <g id="matplotlib.axis_2">
    <g id="ytick_1">
     <g id="line2d_8">
      <defs>
       <path id="m3cbd0dbedd" d="M 0 0 
L -3.5 0 
" style="stroke: #000000; stroke-width: 0.8"/>
      </defs>
      <g>
       <use xlink:href="#m3cbd0dbedd" x="71.6375" y="134.074961" style="stroke: #000000; stroke-width: 0.8"/>
      </g>
     </g>
     <g id="text_8">
      <!-- 0.0 -->
      <g transform="translate(39.6375 141.018711) scale(0.2 -0.2)">
       <defs>
        <path id="TimesNewRomanPSMT-2e" d="M 800 606 
Q 947 606 1047 504 
Q 1147 403 1147 259 
Q 1147 116 1045 14 
Q 944 -88 800 -88 
Q 656 -88 554 14 
Q 453 116 453 259 
Q 453 406 554 506 
Q 656 606 800 606 
z
" transform="scale(0.015625)"/>
       </defs>
       <use xlink:href="#TimesNewRomanPSMT-30"/>
       <use xlink:href="#TimesNewRomanPSMT-2e" x="50"/>
       <use xlink:href="#TimesNewRomanPSMT-30" x="75"/>
      </g>
     </g>
    </g>
    <g id="ytick_2">
     <g id="line2d_9">
      <g>
       <use xlink:href="#m3cbd0dbedd" x="71.6375" y="67.998122" style="stroke: #000000; stroke-width: 0.8"/>
      </g>
     </g>
     <g id="text_9">
      <!-- 2.0 -->
      <g transform="translate(39.6375 74.941872) scale(0.2 -0.2)">
       <use xlink:href="#TimesNewRomanPSMT-32"/>
       <use xlink:href="#TimesNewRomanPSMT-2e" x="50"/>
       <use xlink:href="#TimesNewRomanPSMT-30" x="75"/>
      </g>
     </g>
    </g>
    <g id="text_10">
     <!-- CPU使用率 -->
     <g transform="translate(33.059375 127.188125) rotate(-90) scale(0.2 -0.2)">
      <defs>
       <path id="SimSun-43" d="M 1725 50 
Q 1025 50 612 575 
Q 200 1100 200 2225 
Q 200 3175 637 3800 
Q 1075 4425 1825 4425 
Q 2000 4425 2175 4375 
Q 2350 4300 2475 4300 
Q 2575 4300 2637 4325 
Q 2700 4350 2750 4425 
L 2975 3325 
L 2825 3275 
Q 2675 3750 2425 4000 
Q 2175 4250 1775 4250 
Q 1250 4250 962 3675 
Q 675 3100 675 2250 
Q 675 1325 925 800 
Q 1175 275 1750 275 
Q 2150 275 2437 562 
Q 2725 850 2825 1325 
L 2975 1250 
Q 2850 725 2512 387 
Q 2175 50 1725 50 
z
" transform="scale(0.015625)"/>
       <path id="SimSun-50" d="M 950 2100 
L 950 450 
Q 950 350 1012 300 
Q 1075 250 1175 250 
L 1350 250 
L 1350 100 
L 150 100 
L 150 250 
L 325 250 
Q 450 250 500 300 
Q 550 350 550 450 
L 550 4025 
Q 550 4125 500 4175 
Q 450 4225 325 4225 
L 175 4225 
L 175 4375 
L 1650 4375 
Q 2275 4375 2612 4062 
Q 2950 3750 2950 3275 
Q 2950 2700 2587 2400 
Q 2225 2100 1725 2100 
L 950 2100 
z
M 1575 2250 
Q 1950 2250 2237 2475 
Q 2525 2700 2525 3250 
Q 2525 3750 2287 3987 
Q 2050 4225 1525 4225 
L 1175 4225 
Q 1075 4225 1012 4175 
Q 950 4125 950 4025 
L 950 2250 
L 1575 2250 
z
" transform="scale(0.015625)"/>
       <path id="SimSun-55" d="M 1625 250 
Q 2000 250 2262 500 
Q 2525 750 2525 1125 
L 2525 4025 
Q 2525 4125 2475 4175 
Q 2425 4225 2300 4225 
L 2150 4225 
L 2150 4375 
L 3050 4375 
L 3050 4225 
L 2900 4225 
Q 2800 4225 2737 4175 
Q 2675 4125 2675 4025 
L 2675 1125 
Q 2675 625 2337 337 
Q 2000 50 1575 50 
Q 1125 50 787 300 
Q 450 550 450 1100 
L 450 4025 
Q 450 4125 400 4175 
Q 350 4225 225 4225 
L 100 4225 
L 100 4375 
L 1200 4375 
L 1200 4225 
L 1075 4225 
Q 975 4225 912 4175 
Q 850 4125 850 4025 
L 850 1100 
Q 850 600 1062 425 
Q 1275 250 1625 250 
z
" transform="scale(0.015625)"/>
       <path id="SimSun-4f7f" d="M 2875 3150 
L 2875 2100 
L 3825 2100 
Q 3850 2825 3850 3150 
L 2875 3150 
z
M 4175 3150 
Q 4175 2800 4150 2100 
L 5150 2100 
L 5150 3150 
L 4175 3150 
z
M 5475 3100 
L 5475 2425 
Q 5475 2100 5500 1800 
L 5150 1675 
L 5150 1950 
L 4150 1950 
Q 4125 1175 3875 600 
Q 4275 275 4875 75 
Q 5475 -125 6075 -150 
L 6075 -250 
Q 5700 -300 5600 -575 
Q 4525 -325 3725 350 
Q 3425 25 2925 -225 
Q 2425 -475 1875 -650 
L 1825 -550 
Q 2400 -325 2850 -25 
Q 3300 275 3500 575 
Q 3200 925 2825 1650 
L 2900 1700 
Q 3325 1100 3625 825 
Q 3800 1300 3825 1950 
L 2875 1950 
L 2875 1825 
L 2525 1675 
Q 2550 2075 2550 2562 
Q 2550 3050 2525 3500 
L 2875 3300 
L 3850 3300 
L 3850 4025 
L 2975 4025 
Q 2650 4025 2375 3950 
L 2150 4175 
L 3850 4175 
L 3850 4525 
Q 3850 4775 3825 5225 
L 4350 5000 
L 4175 4825 
L 4175 4175 
L 5300 4175 
L 5600 4475 
L 6050 4025 
L 4175 4025 
L 4175 3300 
L 5100 3300 
L 5275 3525 
L 5650 3225 
L 5475 3100 
z
M 1675 3175 
L 1675 -450 
L 1325 -625 
Q 1350 -75 1350 350 
L 1350 3200 
Q 900 2475 350 1900 
L 275 1950 
Q 700 2525 1112 3400 
Q 1525 4275 1800 5250 
L 2325 4925 
L 2125 4800 
Q 1725 3925 1500 3525 
L 1875 3325 
L 1675 3175 
z
" transform="scale(0.015625)"/>
       <path id="SimSun-7528" d="M 3400 3150 
L 3400 1825 
L 5075 1825 
L 5075 3150 
L 3400 3150 
z
M 4075 100 
Q 4725 50 4900 62 
Q 5075 75 5075 400 
L 5075 1675 
L 3400 1675 
Q 3400 75 3425 -225 
L 3050 -400 
Q 3075 1025 3075 1675 
L 1425 1675 
Q 1250 350 375 -600 
L 300 -550 
Q 775 225 950 1025 
Q 1125 1825 1125 3225 
Q 1125 4625 1100 5075 
L 1475 4825 
L 5050 4825 
L 5225 5100 
L 5625 4800 
L 5425 4600 
L 5425 225 
Q 5450 -400 4875 -575 
Q 4825 -150 4075 -25 
L 4075 100 
z
M 1475 4675 
L 1475 3300 
L 3075 3300 
L 3075 4675 
L 1475 4675 
z
M 3400 4675 
L 3400 3300 
L 5075 3300 
L 5075 4675 
L 3400 4675 
z
M 1475 3150 
Q 1450 2100 1425 1825 
L 3075 1825 
L 3075 3150 
L 1475 3150 
z
" transform="scale(0.015625)"/>
       <path id="SimSun-7387" d="M 875 3725 
L 925 3800 
Q 1375 3650 1550 3525 
Q 1725 3400 1725 3250 
Q 1725 3175 1662 3025 
Q 1600 2875 1550 2875 
Q 1500 2875 1425 3050 
Q 1275 3325 875 3725 
z
M 550 1850 
Q 875 1925 2000 2575 
L 2050 2500 
Q 1675 2225 1337 1937 
Q 1000 1650 875 1425 
L 550 1850 
z
M 5200 3450 
Q 4800 3150 4275 2800 
L 4225 2875 
Q 4775 3400 5050 3925 
L 5450 3525 
L 5200 3450 
z
M 4325 2500 
L 4350 2575 
Q 5225 2350 5375 2212 
Q 5525 2075 5525 1900 
Q 5525 1775 5487 1662 
Q 5450 1550 5400 1550 
Q 5325 1550 5200 1800 
Q 4975 2150 4325 2500 
z
M 3150 3900 
Q 2500 3300 2300 3150 
Q 2800 3150 3400 3175 
Q 3700 3500 3850 3825 
L 4250 3450 
Q 4050 3400 3450 2825 
Q 2850 2250 2475 1950 
Q 3150 1975 3850 2000 
Q 3750 2175 3550 2450 
L 3600 2500 
Q 4050 2250 4200 2100 
Q 4350 1950 4350 1850 
Q 4350 1775 4250 1625 
Q 4150 1475 4100 1475 
Q 4075 1475 4050 1550 
Q 4000 1700 3900 1900 
Q 3650 1875 3075 1800 
L 3500 1550 
L 3325 1425 
L 3325 975 
L 5325 975 
L 5650 1300 
L 6100 825 
L 3325 825 
Q 3325 -275 3350 -525 
L 2975 -650 
Q 3000 0 3000 825 
L 1125 825 
Q 800 825 525 750 
L 300 975 
L 3000 975 
L 3000 1775 
Q 2450 1700 2200 1525 
L 1950 1950 
Q 2275 1950 2675 2350 
Q 3075 2750 3325 3050 
Q 2400 2950 2150 2775 
L 1950 3175 
Q 2150 3150 2475 3575 
Q 2800 4000 2900 4225 
L 1450 4225 
Q 1125 4225 850 4150 
L 625 4375 
L 3100 4375 
Q 3050 4800 2675 5200 
L 2725 5250 
Q 3225 5050 3337 4912 
Q 3450 4775 3450 4700 
Q 3450 4550 3250 4375 
L 5025 4375 
L 5350 4675 
L 5775 4225 
L 3050 4225 
L 3375 3950 
L 3150 3900 
z
" transform="scale(0.015625)"/>
      </defs>
      <use xlink:href="#SimSun-43"/>
      <use xlink:href="#SimSun-50" x="50"/>
      <use xlink:href="#SimSun-55" x="100"/>
      <use xlink:href="#SimSun-4f7f" x="150"/>
      <use xlink:href="#SimSun-7528" x="250"/>
      <use xlink:href="#SimSun-7387" x="350"/>
     </g>
    </g>
   </g>
   <g id="line2d_10">
    <path d="M 115.312577 93.834164 
L 118.356136 96.668863 
L 121.399695 98.393467 
L 124.443255 97.878068 
L 127.486814 97.164438 
L 130.530374 101.109226 
L 133.573933 99.662144 
L 136.617492 99.741437 
L 139.661052 102.080556 
L 142.704611 103.032062 
L 145.74817 101.921971 
L 148.79173 103.071709 
L 151.835289 119.227495 
L 154.878848 99.007981 
L 157.922408 98.849398 
L 160.965967 99.483734 
L 164.009526 100.355951 
L 167.053086 100.455064 
L 170.096645 102.338255 
L 173.140205 112.54052 
L 176.183764 114.542646 
L 179.227323 116.921413 
L 182.270883 119.69664 
L 185.314442 120.515995 
L 188.358001 118.890503 
L 191.401561 119.842009 
L 194.44512 120.568855 
L 197.488679 121.916822 
L 200.532239 121.626085 
L 203.575798 122.722959 
L 206.619357 123.502665 
L 209.662917 125.101726 
L 212.706476 126.17217 
L 215.750036 129.416547 
L 218.793595 125.114942 
L 221.837154 129.528877 
L 224.880714 124.546679 
L 227.924273 129.046515 
L 230.967832 124.269158 
L 234.011392 126.905624 
L 237.054951 121.78467 
L 240.09851 122.974053 
L 243.14207 122.689921 
L 246.185629 123.311044 
L 249.229188 123.390336 
L 252.272748 123.998243 
L 255.316307 123.912343 
L 258.359867 124.493819 
L 264.446985 124.533466 
L 267.490545 123.086381 
L 270.534104 124.110575 
L 273.577663 123.595174 
L 276.621223 125.002612 
L 279.664782 124.672226 
L 282.708341 125.31978 
L 285.751901 124.784556 
L 288.79546 127.68533 
L 291.83902 128.240377 
L 294.882579 129.429757 
L 297.926138 125.23388 
L 300.969698 125.841788 
L 304.013257 120.634931 
L 307.056816 125.260309 
L 310.100376 127.084034 
L 316.187494 127.751406 
L 319.231054 127.381378 
L 322.274613 126.621492 
L 325.318172 127.454063 
L 328.361732 126.535592 
L 331.405291 124.315411 
L 334.448851 125.907864 
L 337.49241 129.740322 
L 340.535969 128.385747 
L 343.579529 129.495837 
L 346.623088 130.275543 
L 349.666647 130.486989 
L 352.710207 130.440735 
L 355.753766 130.143391 
L 358.797325 125.874826 
L 361.840885 129.178667 
L 364.884444 126.053232 
L 367.928003 123.648035 
L 370.971563 125.23388 
L 374.015122 124.969572 
L 377.058682 125.987156 
L 380.102241 124.797773 
L 383.1458 122.670099 
L 386.18936 123.396944 
L 392.276478 123.238359 
L 395.320038 123.568743 
L 398.363597 122.419006 
L 401.407156 121.877177 
L 404.450716 121.560009 
L 407.494275 120.780301 
L 410.537834 120.661362 
L 413.581394 119.538055 
L 416.624953 112.091196 
L 419.668513 111.99208 
L 422.712072 120.767085 
L 425.755631 119.987379 
L 428.799191 120.093102 
L 431.84275 112.811435 
L 434.886309 110.095677 
L 437.929869 109.831369 
L 440.973428 110.862168 
L 444.016987 104.598084 
L 447.060547 97.243732 
L 450.104106 98.948514 
L 453.147665 99.688575 
L 456.191225 101.274418 
L 459.234784 101.697309 
L 462.278344 104.763275 
L 465.321903 105.31832 
L 468.365462 102.833833 
L 471.409022 106.71915 
L 474.452581 103.653185 
L 477.49614 104.446107 
L 480.5397 99.159959 
L 483.583259 91.455401 
L 486.626818 82.435913 
L 489.670378 77.579263 
L 492.713937 54.009658 
L 495.757496 75.596959 
L 498.801056 80.916145 
L 501.844615 84.153908 
L 504.888175 73.945036 
L 507.931734 76.422919 
L 510.975293 69.583969 
L 514.018853 76.455959 
L 517.062412 67.43647 
L 520.105971 56.461106 
L 523.149531 51.174964 
L 526.19309 55.417092 
L 529.236649 61.324365 
L 532.280209 60.769314 
L 535.323768 62.639291 
L 538.367327 67.410043 
L 541.410887 50.104514 
L 544.454446 64.178885 
L 547.498006 59.183474 
L 550.541565 59.460996 
L 553.585124 61.562241 
L 556.628684 57.320105 
L 559.672243 58.152678 
L 562.715802 64.588559 
L 565.759362 70.442965 
L 568.802921 67.43647 
L 571.84648 59.507249 
L 574.89004 55.13957 
L 577.933599 54.108774 
L 580.977158 55.13957 
L 584.020718 57.795859 
L 587.064277 57.280461 
L 590.107837 106.877735 
L 593.151396 54.901693 
L 596.194955 54.34665 
L 599.238515 61.046843 
L 602.282074 66.280123 
L 605.325633 63.108436 
L 608.369193 65.526848 
L 611.412752 79.792838 
L 614.456311 77.546227 
L 617.499871 76.257727 
L 620.54343 75.927343 
L 623.586989 78.73561 
L 626.630549 77.182803 
L 629.674108 72.68958 
L 632.717668 59.976394 
L 635.761227 62.156929 
L 638.804786 71.011226 
L 641.848346 77.612303 
L 644.891905 75.993419 
L 647.935464 76.422919 
L 650.979024 72.028809 
L 654.022583 83.394024 
L 657.066142 84.3191 
L 660.109702 83.427064 
L 663.153261 75.696075 
L 666.19682 63.683305 
L 669.24038 69.650042 
L 672.283939 79.363338 
L 675.327499 75.696075 
L 678.371058 77.810534 
L 681.414617 82.072489 
L 684.458177 81.213489 
L 687.501736 80.717913 
L 690.545295 81.874261 
L 693.588855 83.724408 
L 696.632414 82.601105 
L 699.675973 75.530883 
L 702.719533 66.399065 
L 705.763092 68.421013 
L 708.806651 67.667738 
L 711.850211 68.539952 
L 714.89377 67.628093 
L 717.93733 63.782421 
L 720.980889 62.07764 
L 724.024448 58.390547 
L 727.068008 61.403654 
L 730.111567 54.980983 
L 733.155126 56.963286 
L 736.198686 58.033735 
L 739.242245 55.496389 
L 742.285804 62.513748 
L 745.329364 67.786681 
L 748.372923 77.176198 
L 751.416482 79.297262 
L 754.460042 76.125575 
L 757.503601 71.724856 
L 760.547161 76.350234 
L 763.59072 83.724408 
L 766.634279 80.453605 
L 769.677839 81.609953 
L 772.721398 77.414075 
L 775.764957 78.140918 
L 778.808517 65.804369 
L 781.852076 71.599309 
L 784.895635 73.053 
L 787.939195 74.903152 
L 790.982754 73.878964 
L 794.026313 77.84357 
L 797.069873 75.266575 
L 800.113432 77.579263 
L 803.156992 78.570418 
L 806.200551 76.191651 
L 809.24411 79.825878 
L 812.28767 77.678378 
L 815.331229 78.603454 
L 818.374788 78.24003 
L 821.418348 65.837413 
L 824.461907 64.535696 
L 827.505466 58.430199 
L 830.549026 62.513748 
L 833.592585 52.483282 
L 836.636144 51.115492 
L 839.679704 33.889261 
L 842.723263 36.063188 
L 845.766823 49.0605 
L 848.810382 45.498959 
L 851.853941 58.07338 
L 854.897501 49.906283 
L 857.94106 45.426278 
L 860.984619 57.320105 
L 864.028179 56.64612 
L 867.071738 60.491792 
L 870.115297 63.108436 
L 873.158857 61.720821 
L 876.202416 61.601886 
L 879.245975 64.852863 
L 882.289535 58.985242 
L 885.333094 56.64612 
L 888.376654 56.765062 
L 891.420213 53.666056 
L 894.463772 47.719139 
L 897.507332 47.071588 
L 900.550891 60.888256 
L 903.59445 57.201171 
L 906.63801 61.007198 
L 909.681569 64.099588 
L 912.725128 61.760465 
L 915.768688 65.170037 
L 918.812247 52.443637 
L 921.855806 66.253696 
L 924.899366 63.227378 
L 927.942925 64.998232 
L 930.986485 66.015819 
L 934.030044 66.742667 
L 937.073603 72.061849 
L 943.160722 70.938541 
L 946.204281 67.965086 
L 949.247841 67.79989 
L 952.2914 74.407576 
L 955.334959 75.530883 
L 958.378519 81.504228 
L 961.422078 81.715674 
L 964.465637 81.557091 
L 967.509197 80.975612 
L 970.552756 84.38518 
L 973.596316 85.204531 
L 976.639875 83.090072 
L 982.726994 92.499415 
L 985.770553 91.389321 
L 988.814112 87.451142 
L 988.814112 87.451142 
" clip-path="url(#pf8bcaf1d10)" style="fill: none; stroke: #1f77b4; stroke-width: 1.5; stroke-linecap: square"/>
   </g>
   <g id="line2d_11">
    <path d="M 553.585124 49.217489 
L 556.628684 47.257895 
L 559.672243 45.585093 
L 562.715802 47.095857 
L 565.759362 48.047435 
L 568.802921 48.427775 
L 571.84648 47.476008 
L 574.89004 48.950436 
L 577.933599 49.936577 
L 580.977158 50.689742 
L 584.020718 50.039608 
L 587.064277 50.253767 
L 590.107837 49.27718 
L 593.151396 45.759127 
L 596.194955 45.371312 
L 599.238515 45.990545 
L 602.282074 47.073046 
L 605.325633 47.294333 
L 608.369193 48.776236 
L 614.456311 50.505854 
L 617.499871 50.754609 
L 620.54343 51.605779 
L 623.586989 50.830354 
L 629.674108 46.853774 
L 632.717668 46.371507 
L 638.804786 48.42293 
L 641.848346 49.257858 
L 644.891905 49.27566 
L 647.935464 49.639899 
L 650.979024 50.952542 
L 654.022583 50.602946 
L 657.066142 50.873378 
L 660.109702 50.933046 
L 663.153261 49.016129 
L 666.19682 46.344969 
L 669.24038 46.675826 
L 672.283939 47.170161 
L 678.371058 48.773456 
L 681.414617 48.670047 
L 684.458177 49.654857 
L 687.501736 49.422432 
L 690.545295 49.576198 
L 693.588855 51.136319 
L 696.632414 50.459041 
L 699.675973 49.411301 
L 702.719533 46.935766 
L 705.763092 46.377564 
L 708.806651 46.960547 
L 711.850211 48.851044 
L 714.89377 49.653912 
L 717.93733 49.041808 
L 720.980889 50.915992 
L 724.024448 51.118572 
L 727.068008 50.645032 
L 730.111567 51.247101 
L 733.155126 51.660721 
L 736.198686 51.03317 
L 739.242245 49.235062 
L 742.285804 47.726039 
L 745.329364 48.903678 
L 748.372923 49.951378 
L 754.460042 50.235028 
L 757.503601 51.284501 
L 760.547161 51.702295 
L 763.59072 52.717362 
L 766.634279 53.250381 
L 769.677839 53.266654 
L 772.721398 51.627976 
L 775.764957 50.570091 
L 778.808517 50.654508 
L 781.852076 50.301833 
L 784.895635 52.694251 
L 787.939195 52.399786 
L 790.982754 52.294967 
L 797.069873 53.741723 
L 800.113432 53.600709 
L 803.156992 55.200357 
L 809.24411 54.032564 
L 812.28767 51.207826 
L 815.331229 50.634091 
L 818.374788 51.529805 
L 824.461907 51.955871 
L 827.505466 52.30809 
L 830.549026 52.067763 
L 833.592585 53.198463 
L 836.636144 53.391796 
L 839.679704 53.159315 
L 842.723263 54.425341 
L 845.766823 52.471718 
L 848.810382 50.882342 
L 851.853941 49.824386 
L 854.897501 51.770786 
L 857.94106 52.41936 
L 860.984619 51.893903 
L 864.028179 52.378557 
L 867.071738 52.651683 
L 870.115297 53.378106 
L 873.158857 54.922055 
L 879.245975 55.876146 
L 882.289535 56.612225 
L 885.333094 53.752774 
L 888.376654 54.258523 
L 891.420213 55.344253 
L 894.463772 56.260219 
L 897.507332 57.512957 
L 900.550891 57.197398 
L 903.59445 58.130134 
L 906.63801 58.805584 
L 909.681569 59.001894 
L 912.725128 61.311446 
L 915.768688 62.417964 
L 918.812247 61.626226 
L 921.855806 59.54854 
L 924.899366 60.120243 
L 927.942925 60.805713 
L 930.986485 62.527076 
L 934.030044 62.819438 
L 937.073603 63.517495 
L 940.117163 65.479578 
L 943.160722 66.438962 
L 946.204281 66.977983 
L 949.247841 68.536608 
L 952.2914 69.785825 
L 955.334959 69.934203 
L 958.378519 68.391853 
L 961.422078 68.296971 
L 964.465637 69.962163 
L 967.509197 69.873271 
L 970.552756 73.02213 
L 973.596316 71.010785 
L 979.683434 72.798424 
L 982.726994 74.84522 
L 985.770553 74.825701 
L 988.814112 75.794892 
L 988.814112 75.794892 
" clip-path="url(#pf8bcaf1d10)" style="fill: none; stroke: #ff7f0e; stroke-width: 1.5; stroke-linecap: square"/>
   </g>
   <g id="line2d_12">
    <path d="M 553.585124 135.316875 
L 553.585124 29.059375 
" clip-path="url(#pf8bcaf1d10)" style="fill: none; stroke-dasharray: 7.4,3.2; stroke-dashoffset: 0; stroke: #0000ff; stroke-width: 2"/>
   </g>
   <g id="patch_3">
    <path d="M 71.6375 135.316875 
L 71.6375 29.059375 
" style="fill: none; stroke: #000000; stroke-width: 0.8; stroke-linejoin: miter; stroke-linecap: square"/>
   </g>
   <g id="patch_4">
    <path d="M 1032.489189 135.316875 
L 1032.489189 29.059375 
" style="fill: none; stroke: #000000; stroke-width: 0.8; stroke-linejoin: miter; stroke-linecap: square"/>
   </g>
   <g id="patch_5">
    <path d="M 71.6375 135.316875 
L 1032.489189 135.316875 
" style="fill: none; stroke: #000000; stroke-width: 0.8; stroke-linejoin: miter; stroke-linecap: square"/>
   </g>
   <g id="patch_6">
    <path d="M 71.6375 29.059375 
L 1032.489189 29.059375 
" style="fill: none; stroke: #000000; stroke-width: 0.8; stroke-linejoin: miter; stroke-linecap: square"/>
   </g>
   <g id="text_11">
    <!-- 云函数ID: 28 -->
    <g transform="translate(492.063345 23.059375) scale(0.2 -0.2)">
     <defs>
      <path id="SimSun-4e91" d="M 1200 4450 
L 4500 4450 
L 4850 4800 
L 5350 4300 
L 1975 4300 
Q 1700 4300 1425 4225 
L 1200 4450 
z
M 1600 275 
Q 2300 300 4725 450 
Q 4425 975 3850 1700 
L 3925 1775 
Q 5200 725 5287 500 
Q 5375 275 5375 175 
Q 5375 0 5250 -162 
Q 5125 -325 5075 -325 
Q 5025 -325 4975 -200 
Q 4875 50 4775 300 
Q 1650 -25 1300 -300 
L 975 300 
Q 1225 350 1462 550 
Q 1700 750 2150 1462 
Q 2600 2175 2725 2600 
L 1250 2600 
Q 925 2600 650 2525 
L 425 2750 
L 5025 2750 
L 5450 3175 
L 6025 2600 
L 3250 2600 
Q 3000 2025 2500 1375 
Q 2000 725 1600 275 
z
" transform="scale(0.015625)"/>
      <path id="SimSun-51fd" d="M 3050 2275 
L 3050 3000 
Q 3050 3450 3025 3800 
L 3275 3625 
L 4450 4475 
L 1650 4475 
Q 1325 4475 1050 4400 
L 825 4625 
L 4450 4625 
L 4775 4875 
L 5150 4375 
Q 4875 4325 4550 4175 
Q 4225 4025 3400 3550 
L 3550 3450 
L 3375 3325 
L 3375 2400 
Q 4250 3225 4475 3600 
L 4875 3150 
L 4625 3125 
Q 3625 2425 3400 2275 
Q 4575 1675 4687 1487 
Q 4800 1300 4800 1150 
Q 4800 1025 4750 925 
Q 4700 825 4675 825 
Q 4575 825 4375 1150 
Q 4075 1600 3375 2150 
L 3375 725 
Q 3375 350 2875 150 
Q 2850 450 2200 650 
L 2200 750 
Q 2800 675 2925 700 
Q 3050 725 3050 850 
L 3050 2100 
Q 1850 1300 1625 1025 
L 1275 1400 
Q 1575 1475 2087 1725 
Q 2600 1975 3050 2275 
z
M 1700 3475 
L 1775 3550 
Q 2350 3200 2475 3025 
Q 2600 2850 2600 2775 
Q 2600 2650 2500 2525 
Q 2400 2400 2350 2400 
Q 2275 2400 2225 2575 
Q 2150 2875 1700 3475 
z
M 5150 0 
L 5150 2175 
Q 5150 2725 5125 3325 
L 5725 3050 
L 5500 2850 
L 5500 525 
Q 5500 100 5525 -400 
L 5150 -600 
L 5150 -150 
L 1250 -150 
L 1000 -375 
L 675 -50 
L 875 125 
L 875 2375 
Q 875 2800 850 3425 
L 1450 3150 
L 1225 2975 
L 1225 0 
L 5150 0 
z
" transform="scale(0.015625)"/>
      <path id="SimSun-6570" d="M 1875 1525 
Q 1675 1200 1500 900 
Q 1825 825 2275 725 
Q 2500 975 2725 1525 
L 1875 1525 
z
M 850 4900 
Q 1325 4600 1425 4450 
Q 1525 4300 1525 4225 
Q 1525 4100 1437 3975 
Q 1350 3850 1300 3850 
Q 1225 3850 1150 4100 
Q 1050 4450 775 4850 
L 850 4900 
z
M 3000 4975 
L 3450 4675 
Q 3250 4625 3100 4425 
Q 2925 4225 2525 3825 
L 2450 3875 
Q 2925 4625 3000 4975 
z
M 1875 5250 
L 2425 5000 
L 2225 4825 
L 2225 3675 
L 2850 3675 
L 3125 3950 
L 3550 3525 
L 2225 3525 
L 2225 3300 
Q 2800 3175 2937 3062 
Q 3075 2950 3075 2775 
Q 3075 2700 3050 2587 
Q 3025 2475 2975 2475 
Q 2925 2475 2800 2650 
Q 2600 2925 2225 3175 
L 2225 2400 
L 1925 2200 
L 2275 2050 
Q 2150 2000 1950 1675 
L 2725 1675 
L 2900 1900 
L 3275 1575 
L 3050 1450 
Q 2800 875 2600 650 
Q 3000 550 3137 437 
Q 3275 325 3275 150 
Q 3275 -25 3200 -25 
Q 3125 -25 3025 75 
Q 2750 275 2400 425 
Q 1525 -275 325 -500 
L 300 -425 
Q 1450 -50 2100 550 
Q 1600 725 1125 800 
Q 1225 950 1525 1525 
L 1200 1525 
Q 875 1525 600 1450 
L 375 1675 
L 1575 1675 
Q 1675 1925 1775 2275 
L 1900 2225 
L 1900 3250 
Q 1225 2475 350 2050 
L 300 2125 
Q 1225 2775 1700 3525 
L 1250 3525 
Q 925 3525 650 3450 
L 425 3675 
L 1900 3675 
Q 1900 4575 1875 5250 
z
M 3925 3525 
Q 4050 2075 4525 1100 
Q 4925 1950 5025 3525 
L 3925 3525 
z
M 4050 5250 
L 4625 4925 
Q 4425 4850 4325 4625 
Q 4225 4400 3950 3675 
L 5375 3675 
L 5675 3975 
L 6125 3525 
L 5400 3525 
Q 5250 1675 4750 775 
Q 5325 75 6100 -100 
L 6100 -200 
Q 5625 -275 5600 -500 
Q 4950 -50 4525 525 
Q 3700 -275 2550 -650 
L 2500 -575 
Q 3650 -50 4325 800 
Q 3850 1975 3825 3375 
Q 3575 2725 3100 2150 
L 3025 2200 
Q 3625 3200 4050 5250 
z
" transform="scale(0.015625)"/>
      <path id="SimSun-49" d="M 600 4225 
L 600 4375 
L 2600 4375 
L 2600 4225 
L 2025 4225 
Q 1925 4225 1862 4175 
Q 1800 4125 1800 4025 
L 1800 450 
Q 1800 350 1862 300 
Q 1925 250 2025 250 
L 2600 250 
L 2600 100 
L 600 100 
L 600 250 
L 1175 250 
Q 1300 250 1350 300 
Q 1400 350 1400 450 
L 1400 4025 
Q 1400 4125 1350 4175 
Q 1300 4225 1175 4225 
L 600 4225 
z
" transform="scale(0.015625)"/>
      <path id="SimSun-44" d="M 2500 2275 
Q 2500 3350 2175 3787 
Q 1850 4225 1275 4225 
Q 1100 4225 1012 4175 
Q 925 4125 925 4025 
L 925 450 
Q 925 350 1000 300 
Q 1075 250 1200 250 
Q 1750 250 2125 662 
Q 2500 1075 2500 2275 
z
M 525 4025 
Q 525 4125 475 4175 
Q 425 4225 300 4225 
L 150 4225 
L 150 4375 
L 1275 4375 
Q 2050 4375 2512 3875 
Q 2975 3375 2975 2325 
Q 2975 1175 2525 637 
Q 2075 100 1200 100 
L 125 100 
L 125 250 
L 300 250 
Q 425 250 475 300 
Q 525 350 525 450 
L 525 4025 
z
" transform="scale(0.015625)"/>
      <path id="SimSun-3a" d="M 1900 2725 
Q 1900 2575 1800 2475 
Q 1700 2375 1550 2375 
Q 1400 2375 1300 2475 
Q 1200 2575 1200 2725 
Q 1200 2875 1300 2975 
Q 1400 3075 1550 3075 
Q 1700 3075 1800 2975 
Q 1900 2875 1900 2725 
z
M 1900 375 
Q 1900 225 1800 125 
Q 1700 25 1550 25 
Q 1400 25 1300 125 
Q 1200 225 1200 375 
Q 1200 525 1300 625 
Q 1400 725 1550 725 
Q 1700 725 1800 625 
Q 1900 525 1900 375 
z
" transform="scale(0.015625)"/>
      <path id="SimSun-20" d="M 0 0 
Q 0 0 0 0 
z
" transform="scale(0.015625)"/>
      <path id="SimSun-32" d="M 2325 3325 
Q 2325 3775 2125 4012 
Q 1925 4250 1525 4250 
Q 1225 4250 1012 4087 
Q 800 3925 800 3675 
Q 800 3525 900 3425 
Q 975 3325 975 3225 
Q 975 3100 912 3037 
Q 850 2975 725 2975 
Q 575 2975 487 3062 
Q 400 3150 400 3350 
Q 400 3875 775 4150 
Q 1150 4425 1575 4425 
Q 2175 4425 2462 4125 
Q 2750 3825 2750 3375 
Q 2750 3075 2612 2775 
Q 2475 2475 2175 2200 
Q 1450 1500 1062 1062 
Q 675 625 600 475 
L 2075 475 
Q 2300 475 2450 650 
Q 2600 825 2650 1175 
L 2800 1175 
L 2650 100 
L 325 100 
L 325 425 
Q 450 650 737 1000 
Q 1025 1350 1500 1825 
Q 1925 2250 2125 2625 
Q 2325 3000 2325 3325 
z
" transform="scale(0.015625)"/>
      <path id="SimSun-38" d="M 625 1125 
Q 625 725 887 475 
Q 1150 225 1550 225 
Q 2025 225 2237 475 
Q 2450 725 2450 1100 
Q 2450 1425 2150 1725 
Q 1850 2025 1250 2275 
Q 950 2075 787 1775 
Q 625 1475 625 1125 
z
M 2825 1175 
Q 2825 700 2475 375 
Q 2125 50 1550 50 
Q 1025 50 650 375 
Q 275 700 275 1125 
Q 275 1550 487 1850 
Q 700 2150 1100 2375 
Q 750 2550 562 2812 
Q 375 3075 375 3400 
Q 375 3825 700 4125 
Q 1025 4425 1600 4425 
Q 2125 4425 2450 4125 
Q 2775 3825 2775 3400 
Q 2775 3100 2587 2837 
Q 2400 2575 2000 2375 
Q 2425 2125 2625 1825 
Q 2825 1525 2825 1175 
z
M 2425 3375 
Q 2425 3725 2225 3987 
Q 2025 4250 1600 4250 
Q 1125 4250 925 4000 
Q 725 3750 725 3475 
Q 725 3200 1012 2937 
Q 1300 2675 1825 2475 
Q 2125 2625 2275 2850 
Q 2425 3075 2425 3375 
z
" transform="scale(0.015625)"/>
     </defs>
     <use xlink:href="#SimSun-4e91"/>
     <use xlink:href="#SimSun-51fd" x="100"/>
     <use xlink:href="#SimSun-6570" x="200"/>
     <use xlink:href="#SimSun-49" x="300"/>
     <use xlink:href="#SimSun-44" x="350"/>
     <use xlink:href="#SimSun-3a" x="400"/>
     <use xlink:href="#SimSun-20" x="450"/>
     <use xlink:href="#SimSun-32" x="500"/>
     <use xlink:href="#SimSun-38" x="550"/>
    </g>
   </g>
   <g id="legend_1">
    <g id="patch_7">
     <path d="M 85.6375 101.934375 
L 209.6375 101.934375 
Q 213.6375 101.934375 213.6375 97.934375 
L 213.6375 43.059375 
Q 213.6375 39.059375 209.6375 39.059375 
L 85.6375 39.059375 
Q 81.6375 39.059375 81.6375 43.059375 
L 81.6375 97.934375 
Q 81.6375 101.934375 85.6375 101.934375 
z
" style="fill: #ffffff; opacity: 0.8; stroke: #cccccc; stroke-linejoin: miter"/>
    </g>
    <g id="line2d_13">
     <path d="M 89.6375 55.996875 
L 109.6375 55.996875 
L 129.6375 55.996875 
" style="fill: none; stroke: #1f77b4; stroke-width: 1.5; stroke-linecap: square"/>
    </g>
    <g id="text_12">
     <!-- 真实值 -->
     <g transform="translate(145.6375 62.996875) scale(0.2 -0.2)">
      <defs>
       <path id="SimSun-771f" d="M 2050 3450 
L 2050 2900 
L 4300 2900 
L 4300 3450 
L 2050 3450 
z
M 2050 2750 
L 2050 2225 
L 4300 2225 
L 4300 2750 
L 2050 2750 
z
M 2050 2075 
L 2050 1550 
L 4300 1550 
L 4300 2075 
L 2050 2075 
z
M 2050 1400 
L 2050 875 
L 4300 875 
L 4300 1400 
L 2050 1400 
z
M 2875 3600 
L 2925 4325 
L 1525 4325 
Q 1200 4325 925 4250 
L 700 4475 
L 2950 4475 
Q 2975 4825 2975 5275 
L 3550 5025 
L 3375 4925 
L 3300 4475 
L 5000 4475 
L 5325 4825 
L 5775 4325 
L 3275 4325 
L 3200 3600 
L 4275 3600 
L 4450 3875 
L 4850 3575 
L 4650 3375 
L 4650 875 
L 5300 875 
L 5675 1225 
L 6125 725 
L 1150 725 
Q 825 725 550 650 
L 325 875 
L 1700 875 
Q 1700 3200 1675 3775 
L 2050 3600 
L 2875 3600 
z
M 2425 725 
L 2825 350 
L 2575 300 
Q 1500 -425 800 -650 
L 775 -575 
Q 1950 125 2425 725 
z
M 3800 700 
Q 4575 375 4962 200 
Q 5350 25 5400 -112 
Q 5450 -250 5450 -325 
Q 5450 -400 5400 -525 
Q 5350 -650 5325 -650 
Q 5250 -650 5100 -450 
Q 4875 -150 3750 625 
L 3800 700 
z
" transform="scale(0.015625)"/>
       <path id="SimSun-5b9e" d="M 1950 3625 
Q 2575 3400 2700 3250 
Q 2825 3100 2825 2975 
Q 2825 2850 2750 2700 
Q 2675 2550 2625 2550 
Q 2550 2550 2450 2800 
Q 2275 3175 1900 3550 
L 1950 3625 
z
M 3575 1325 
Q 3500 1100 3425 925 
Q 4650 550 5087 325 
Q 5525 100 5512 -225 
Q 5500 -550 5400 -550 
Q 5300 -550 5075 -300 
Q 4625 175 3375 800 
Q 3025 175 2300 -150 
Q 1575 -475 425 -625 
L 425 -525 
Q 1475 -325 2200 100 
Q 2925 525 3200 1325 
L 1225 1325 
Q 900 1325 625 1250 
L 400 1475 
L 3225 1475 
Q 3325 1950 3375 2575 
Q 3425 3200 3425 3700 
L 4050 3400 
L 3850 3225 
Q 3750 2300 3625 1475 
L 5175 1475 
L 5550 1850 
L 6075 1325 
L 3575 1325 
z
M 1275 2700 
Q 1975 2425 2100 2262 
Q 2225 2100 2225 1975 
Q 2225 1850 2150 1700 
Q 2075 1550 2025 1550 
Q 1950 1550 1850 1800 
Q 1675 2175 1225 2625 
L 1275 2700 
z
M 2750 5225 
L 2825 5275 
Q 3225 5100 3425 4925 
Q 3625 4750 3625 4600 
Q 3625 4450 3512 4300 
Q 3400 4150 3325 4150 
Q 3250 4150 3200 4400 
Q 3100 4775 2750 5225 
z
M 4975 3225 
L 5350 3925 
L 1175 3925 
Q 1225 3525 1125 3300 
Q 1025 3075 787 3100 
Q 550 3125 550 3200 
Q 550 3300 700 3475 
Q 975 3825 1050 4375 
L 1150 4375 
L 1175 4075 
L 5300 4075 
L 5575 4350 
L 6050 3800 
Q 5625 3825 5050 3175 
L 4975 3225 
z
" transform="scale(0.015625)"/>
       <path id="SimSun-503c" d="M 1525 650 
Q 1525 -225 1550 -525 
L 1175 -650 
Q 1200 250 1200 550 
L 1200 3025 
Q 750 2300 325 1850 
L 250 1900 
Q 725 2625 1100 3525 
Q 1475 4425 1675 5200 
L 2200 4875 
L 1950 4725 
Q 1550 3800 1425 3475 
L 1725 3300 
L 1525 3150 
L 1525 650 
z
M 2875 3225 
L 2875 2475 
L 4800 2475 
L 4800 3225 
L 2875 3225 
z
M 2875 2325 
L 2875 1575 
L 4800 1575 
L 4800 2325 
L 2875 2325 
z
M 2875 1425 
L 2875 675 
L 4800 675 
L 4800 1425 
L 2875 1425 
z
M 2875 525 
L 2875 -225 
L 4800 -225 
L 4800 525 
L 2875 525 
z
M 3550 4250 
Q 3575 4825 3550 5225 
L 4125 4950 
L 3925 4800 
L 3900 4250 
L 5025 4250 
L 5350 4575 
L 5825 4100 
L 3900 4100 
L 3875 3375 
L 4750 3375 
L 4975 3625 
L 5350 3300 
L 5125 3150 
L 5125 -225 
L 5350 -225 
L 5675 100 
L 6150 -375 
L 2450 -375 
Q 2125 -375 1850 -450 
L 1625 -225 
L 2550 -225 
L 2550 2550 
Q 2550 2850 2525 3575 
L 2875 3375 
L 3525 3375 
L 3550 4100 
L 2800 4100 
Q 2475 4100 2200 4025 
L 1975 4250 
L 3550 4250 
z
" transform="scale(0.015625)"/>
      </defs>
      <use xlink:href="#SimSun-771f"/>
      <use xlink:href="#SimSun-5b9e" x="100"/>
      <use xlink:href="#SimSun-503c" x="200"/>
     </g>
    </g>
    <g id="line2d_14">
     <path d="M 89.6375 84.35625 
L 109.6375 84.35625 
L 129.6375 84.35625 
" style="fill: none; stroke: #ff7f0e; stroke-width: 1.5; stroke-linecap: square"/>
    </g>
    <g id="text_13">
     <!-- 预测值 -->
     <g transform="translate(145.6375 91.35625) scale(0.2 -0.2)">
      <defs>
       <path id="SimSun-9884" d="M 475 4825 
L 2225 4825 
L 2425 5075 
L 2825 4675 
Q 2600 4625 2387 4412 
Q 2175 4200 1800 3750 
Q 2050 3575 2037 3400 
Q 2025 3225 1937 3150 
Q 1850 3075 1825 3075 
Q 1725 3075 1650 3300 
Q 1525 3600 1050 4100 
L 1100 4150 
Q 1475 3975 1700 3825 
L 2225 4675 
L 1300 4675 
Q 975 4675 700 4600 
L 475 4825 
z
M 725 100 
Q 1175 50 1362 37 
Q 1550 25 1550 275 
L 1550 2875 
L 1125 2875 
Q 800 2875 525 2800 
L 300 3025 
L 2525 3025 
L 2725 3275 
L 3150 2875 
Q 2800 2825 2275 2075 
L 2200 2125 
L 2550 2875 
L 1875 2875 
L 1875 150 
Q 1875 -400 1350 -500 
Q 1325 -175 725 0 
L 725 100 
z
M 3250 775 
Q 3275 1425 3275 2287 
Q 3275 3150 3250 3900 
L 3600 3700 
L 4050 3700 
Q 4175 4400 4200 4675 
L 3650 4675 
Q 3325 4675 3050 4600 
L 2825 4825 
L 5325 4825 
L 5675 5150 
L 6125 4675 
L 4675 4675 
Q 4500 4425 4175 3700 
L 5300 3700 
L 5475 3975 
L 5875 3675 
L 5675 3475 
L 5675 1950 
Q 5675 1525 5700 1075 
L 5350 875 
L 5350 3550 
L 3600 3550 
L 3600 1000 
L 3250 775 
z
M 4850 2875 
L 4625 2675 
Q 4625 1475 4475 937 
Q 4325 400 3900 50 
Q 3475 -300 2425 -625 
L 2400 -550 
Q 3500 -50 3837 400 
Q 4175 850 4237 1587 
Q 4300 2325 4275 3175 
L 4850 2875 
z
M 4650 950 
Q 5725 375 5875 212 
Q 6025 50 6025 -125 
Q 6025 -225 5962 -387 
Q 5900 -550 5850 -550 
Q 5800 -550 5750 -450 
Q 5625 -250 5437 0 
Q 5250 250 4600 875 
L 4650 950 
z
" transform="scale(0.015625)"/>
       <path id="SimSun-6d4b" d="M 1975 1000 
Q 2000 1475 2000 2925 
Q 2000 4375 1975 5000 
L 2350 4775 
L 3575 4775 
L 3775 4975 
L 4100 4650 
L 3900 4500 
L 3900 2350 
Q 3900 1850 3925 1350 
L 3600 1200 
L 3600 4625 
L 2325 4625 
L 2325 1150 
L 1975 1000 
z
M 2775 3975 
L 3300 3700 
L 3125 3525 
Q 3150 1825 2875 937 
Q 2600 50 1375 -600 
L 1325 -500 
Q 2200 100 2475 725 
Q 2750 1350 2775 2187 
Q 2800 3025 2775 3975 
z
M 3100 950 
Q 3825 450 3937 262 
Q 4050 75 4050 -25 
Q 4050 -150 3975 -262 
Q 3900 -375 3850 -375 
Q 3750 -375 3650 -75 
Q 3500 375 3050 875 
L 3100 950 
z
M 4475 825 
Q 4500 1200 4500 1700 
L 4500 3400 
Q 4500 3950 4475 4300 
L 5025 4025 
L 4825 3825 
L 4825 1700 
Q 4825 1325 4850 950 
L 4475 825 
z
M 5375 150 
L 5375 4050 
Q 5375 4750 5350 5125 
L 5875 4875 
L 5700 4700 
L 5700 75 
Q 5700 -200 5600 -350 
Q 5500 -500 5200 -600 
Q 5025 -225 4450 -50 
L 4450 50 
Q 5125 -50 5250 -37 
Q 5375 -25 5375 150 
z
M 1850 3500 
Q 1375 1525 1300 1225 
Q 1200 900 1212 450 
Q 1225 0 1250 -175 
Q 1250 -275 1125 -275 
Q 1025 -275 875 -225 
Q 725 -175 725 0 
Q 725 125 800 375 
Q 875 625 875 775 
Q 875 950 762 1050 
Q 650 1150 275 1250 
L 275 1350 
Q 725 1300 837 1312 
Q 950 1325 1087 1537 
Q 1225 1750 1750 3525 
L 1850 3500 
z
M 375 3775 
Q 1075 3350 1112 3100 
Q 1150 2850 1050 2775 
Q 950 2700 900 2700 
Q 800 2700 725 2975 
Q 600 3350 325 3700 
L 375 3775 
z
M 800 5100 
Q 1475 4725 1550 4512 
Q 1625 4300 1525 4187 
Q 1425 4075 1350 4075 
Q 1275 4075 1200 4300 
Q 1075 4650 750 5025 
L 800 5100 
z
" transform="scale(0.015625)"/>
      </defs>
      <use xlink:href="#SimSun-9884"/>
      <use xlink:href="#SimSun-6d4b" x="100"/>
      <use xlink:href="#SimSun-503c" x="200"/>
     </g>
    </g>
   </g>
  </g>
  <g id="axes_2">
   <g id="patch_8">
    <path d="M 71.6375 309.916875 
L 1032.489189 309.916875 
L 1032.489189 203.659375 
L 71.6375 203.659375 
z
" style="fill: #ffffff"/>
   </g>
   <g id="matplotlib.axis_3">
    <g id="xtick_8">
     <g id="line2d_15">
      <g>
       <use xlink:href="#mec47a37fd0" x="115.312577" y="309.916875" style="stroke: #000000; stroke-width: 0.8"/>
      </g>
     </g>
     <g id="text_14">
      <!-- 0 -->
      <g transform="translate(110.312577 330.804375) scale(0.2 -0.2)">
       <use xlink:href="#TimesNewRomanPSMT-30"/>
      </g>
     </g>
    </g>
    <g id="xtick_9">
     <g id="line2d_16">
      <g>
       <use xlink:href="#mec47a37fd0" x="267.490545" y="309.916875" style="stroke: #000000; stroke-width: 0.8"/>
      </g>
     </g>
     <g id="text_15">
      <!-- 50 -->
      <g transform="translate(257.490545 330.804375) scale(0.2 -0.2)">
       <use xlink:href="#TimesNewRomanPSMT-35"/>
       <use xlink:href="#TimesNewRomanPSMT-30" x="50"/>
      </g>
     </g>
    </g>
    <g id="xtick_10">
     <g id="line2d_17">
      <g>
       <use xlink:href="#mec47a37fd0" x="419.668513" y="309.916875" style="stroke: #000000; stroke-width: 0.8"/>
      </g>
     </g>
     <g id="text_16">
      <!-- 100 -->
      <g transform="translate(404.668513 330.804375) scale(0.2 -0.2)">
       <use xlink:href="#TimesNewRomanPSMT-31"/>
       <use xlink:href="#TimesNewRomanPSMT-30" x="50"/>
       <use xlink:href="#TimesNewRomanPSMT-30" x="100"/>
      </g>
     </g>
    </g>
    <g id="xtick_11">
     <g id="line2d_18">
      <g>
       <use xlink:href="#mec47a37fd0" x="571.84648" y="309.916875" style="stroke: #000000; stroke-width: 0.8"/>
      </g>
     </g>
     <g id="text_17">
      <!-- 150 -->
      <g transform="translate(556.84648 330.804375) scale(0.2 -0.2)">
       <use xlink:href="#TimesNewRomanPSMT-31"/>
       <use xlink:href="#TimesNewRomanPSMT-35" x="50"/>
       <use xlink:href="#TimesNewRomanPSMT-30" x="100"/>
      </g>
     </g>
    </g>
    <g id="xtick_12">
     <g id="line2d_19">
      <g>
       <use xlink:href="#mec47a37fd0" x="724.024448" y="309.916875" style="stroke: #000000; stroke-width: 0.8"/>
      </g>
     </g>
     <g id="text_18">
      <!-- 200 -->
      <g transform="translate(709.024448 330.804375) scale(0.2 -0.2)">
       <use xlink:href="#TimesNewRomanPSMT-32"/>
       <use xlink:href="#TimesNewRomanPSMT-30" x="50"/>
       <use xlink:href="#TimesNewRomanPSMT-30" x="100"/>
      </g>
     </g>
    </g>
    <g id="xtick_13">
     <g id="line2d_20">
      <g>
       <use xlink:href="#mec47a37fd0" x="876.202416" y="309.916875" style="stroke: #000000; stroke-width: 0.8"/>
      </g>
     </g>
     <g id="text_19">
      <!-- 250 -->
      <g transform="translate(861.202416 330.804375) scale(0.2 -0.2)">
       <use xlink:href="#TimesNewRomanPSMT-32"/>
       <use xlink:href="#TimesNewRomanPSMT-35" x="50"/>
       <use xlink:href="#TimesNewRomanPSMT-30" x="100"/>
      </g>
     </g>
    </g>
    <g id="xtick_14">
     <g id="line2d_21">
      <g>
       <use xlink:href="#mec47a37fd0" x="1028.380384" y="309.916875" style="stroke: #000000; stroke-width: 0.8"/>
      </g>
     </g>
     <g id="text_20">
      <!-- 300 -->
      <g transform="translate(1013.380384 330.804375) scale(0.2 -0.2)">
       <use xlink:href="#TimesNewRomanPSMT-33"/>
       <use xlink:href="#TimesNewRomanPSMT-30" x="50"/>
       <use xlink:href="#TimesNewRomanPSMT-30" x="100"/>
      </g>
     </g>
    </g>
   </g>
   <g id="matplotlib.axis_4">
    <g id="ytick_3">
     <g id="line2d_22">
      <g>
       <use xlink:href="#m3cbd0dbedd" x="71.6375" y="298.958045" style="stroke: #000000; stroke-width: 0.8"/>
      </g>
     </g>
     <g id="text_21">
      <!-- 0.0 -->
      <g transform="translate(39.6375 305.901795) scale(0.2 -0.2)">
       <use xlink:href="#TimesNewRomanPSMT-30"/>
       <use xlink:href="#TimesNewRomanPSMT-2e" x="50"/>
       <use xlink:href="#TimesNewRomanPSMT-30" x="75"/>
      </g>
     </g>
    </g>
    <g id="ytick_4">
     <g id="line2d_23">
      <g>
       <use xlink:href="#m3cbd0dbedd" x="71.6375" y="232.358528" style="stroke: #000000; stroke-width: 0.8"/>
      </g>
     </g>
     <g id="text_22">
      <!-- 1.0 -->
      <g transform="translate(39.6375 239.302278) scale(0.2 -0.2)">
       <use xlink:href="#TimesNewRomanPSMT-31"/>
       <use xlink:href="#TimesNewRomanPSMT-2e" x="50"/>
       <use xlink:href="#TimesNewRomanPSMT-30" x="75"/>
      </g>
     </g>
    </g>
    <g id="text_23">
     <!-- CPU使用率 -->
     <g transform="translate(33.059375 301.788125) rotate(-90) scale(0.2 -0.2)">
      <use xlink:href="#SimSun-43"/>
      <use xlink:href="#SimSun-50" x="50"/>
      <use xlink:href="#SimSun-55" x="100"/>
      <use xlink:href="#SimSun-4f7f" x="150"/>
      <use xlink:href="#SimSun-7528" x="250"/>
      <use xlink:href="#SimSun-7387" x="350"/>
     </g>
    </g>
   </g>
   <g id="line2d_24">
    <path d="M 115.312577 229.268313 
L 118.356136 229.907664 
L 121.399695 226.391213 
L 124.443255 226.710888 
L 127.486814 223.194438 
L 130.530374 227.989597 
L 133.573933 223.514113 
L 136.617492 227.989597 
L 139.661052 228.94863 
L 142.704611 226.391213 
L 145.74817 226.710888 
L 148.79173 226.391213 
L 151.835289 221.276371 
L 154.878848 216.481204 
L 157.922408 223.514113 
L 160.965967 224.473146 
L 164.009526 223.514113 
L 167.053086 226.391213 
L 170.096645 224.792821 
L 173.140205 226.391213 
L 176.183764 227.669922 
L 179.227323 227.350246 
L 182.270883 226.07153 
L 185.314442 227.030563 
L 188.358001 226.391213 
L 191.401561 225.112497 
L 194.44512 226.391213 
L 197.488679 222.235404 
L 200.532239 224.473146 
L 203.575798 224.153471 
L 206.619357 224.153471 
L 209.662917 222.235404 
L 212.706476 220.637013 
L 215.750036 215.202495 
L 218.793595 215.841846 
L 221.837154 218.399271 
L 224.880714 215.841846 
L 227.924273 219.677979 
L 230.967832 220.637013 
L 234.011392 218.079588 
L 237.054951 220.317337 
L 240.09851 219.038621 
L 243.14207 218.718946 
L 246.185629 219.997654 
L 249.229188 221.915721 
L 252.272748 219.997654 
L 255.316307 220.317337 
L 258.359867 216.800879 
L 261.403426 220.637013 
L 264.446985 223.514113 
L 267.490545 217.759912 
L 270.534104 217.759912 
L 276.621223 217.120554 
L 279.664782 217.440237 
L 282.708341 219.358304 
L 285.751901 219.677979 
L 288.79546 218.399271 
L 291.83902 218.399271 
L 294.882579 219.358304 
L 297.926138 219.997654 
L 300.969698 220.317337 
L 304.013257 218.399271 
L 307.056816 213.923779 
L 310.100376 215.841846 
L 313.143935 214.882812 
L 316.187494 215.52217 
L 319.231054 216.800879 
L 322.274613 216.800879 
L 325.318172 220.637013 
L 328.361732 218.399271 
L 331.405291 217.759912 
L 334.448851 218.399271 
L 337.49241 219.997654 
L 340.535969 218.399271 
L 343.579529 218.399271 
L 346.623088 223.514113 
L 349.666647 223.194438 
L 352.710207 227.030563 
L 355.753766 226.710888 
L 358.797325 220.637013 
L 361.840885 208.489261 
L 364.884444 228.94863 
L 367.928003 226.07153 
L 370.971563 231.506055 
L 374.015122 229.907664 
L 377.058682 234.383151 
L 380.102241 224.473146 
L 383.1458 241.096385 
L 386.18936 242.055419 
L 389.232919 244.932515 
L 392.276478 247.48994 
L 395.320038 246.211228 
L 398.363597 241.096385 
L 401.407156 250.047361 
L 404.450716 252.924457 
L 407.494275 251.006395 
L 410.537834 254.20317 
L 413.581394 250.686715 
L 416.624953 245.571873 
L 419.668513 258.358979 
L 422.712072 259.957366 
L 425.755631 261.236079 
L 428.799191 260.277046 
L 431.84275 264.432854 
L 434.886309 263.473821 
L 437.929869 267.309955 
L 440.973428 268.268988 
L 444.016987 270.187055 
L 447.060547 271.146088 
L 450.104106 269.867376 
L 453.147665 287.449645 
L 456.191225 272.424797 
L 459.234784 274.023188 
L 462.278344 274.982218 
L 465.321903 276.58061 
L 468.365462 277.219964 
L 471.409022 277.539643 
L 474.452581 279.138031 
L 477.49614 279.777385 
L 480.5397 280.736418 
L 483.583259 282.015127 
L 489.670378 282.015127 
L 492.713937 283.613516 
L 498.801056 284.892224 
L 501.844615 285.211903 
L 504.888175 285.851262 
L 507.931734 285.531578 
L 510.975293 286.490612 
L 514.018853 287.12997 
L 517.062412 287.12997 
L 523.149531 287.769328 
L 526.19309 287.769328 
L 532.280209 289.048037 
L 535.323768 289.048037 
L 541.410887 289.687387 
L 544.454446 289.048037 
L 547.498006 289.687387 
L 550.541565 289.687387 
L 553.585124 290.326745 
L 556.628684 290.00707 
L 559.672243 290.966104 
L 562.715802 290.326745 
L 565.759362 290.326745 
L 568.802921 290.966104 
L 571.84648 290.966104 
L 574.89004 291.285779 
L 577.933599 290.966104 
L 584.020718 290.966104 
L 587.064277 291.285779 
L 590.107837 290.966104 
L 593.151396 291.285779 
L 596.194955 291.285779 
L 599.238515 290.966104 
L 602.282074 291.925137 
L 605.325633 291.285779 
L 608.369193 291.285779 
L 611.412752 290.966104 
L 626.630549 290.966104 
L 629.674108 290.646421 
L 632.717668 290.00707 
L 635.761227 288.408679 
L 641.848346 289.048037 
L 647.935464 287.769328 
L 650.979024 287.769328 
L 654.022583 286.170937 
L 657.066142 286.490612 
L 660.109702 286.490612 
L 663.153261 285.851262 
L 666.19682 284.572549 
L 669.24038 283.933191 
L 672.283939 274.662543 
L 675.327499 280.416739 
L 678.371058 277.859318 
L 681.414617 277.859318 
L 684.458177 275.621576 
L 687.501736 274.342864 
L 690.545295 267.629634 
L 693.588855 272.424797 
L 696.632414 268.908342 
L 699.675973 268.908342 
L 702.719533 265.711567 
L 705.763092 263.154146 
L 708.806651 237.899606 
L 711.850211 256.440912 
L 714.89377 249.408003 
L 717.93733 253.244137 
L 720.980889 249.727682 
L 724.024448 249.408003 
L 727.068008 234.383151 
L 730.111567 249.088328 
L 733.155126 246.850582 
L 736.198686 247.809615 
L 739.242245 244.932515 
L 742.285804 243.014452 
L 745.329364 231.506055 
L 748.372923 236.940573 
L 751.416482 236.620897 
L 754.460042 239.178319 
L 757.503601 237.899606 
L 760.547161 238.219285 
L 763.59072 233.743797 
L 766.634279 241.096385 
L 769.677839 240.776706 
L 772.721398 240.776706 
L 775.764957 237.899606 
L 778.808517 235.981543 
L 781.852076 229.587988 
L 784.895635 226.07153 
L 787.939195 227.350246 
L 790.982754 226.710888 
L 794.026313 224.792821 
L 797.069873 227.350246 
L 800.113432 225.751855 
L 803.156992 231.186372 
L 806.200551 231.186372 
L 812.28767 227.989597 
L 815.331229 227.669922 
L 818.374788 219.997654 
L 821.418348 219.358304 
L 824.461907 218.399271 
L 827.505466 219.997654 
L 830.549026 223.833788 
L 833.592585 224.473146 
L 836.636144 222.555079 
L 839.679704 221.915721 
L 842.723263 217.120554 
L 845.766823 219.358304 
L 848.810382 222.555079 
L 851.853941 222.235404 
L 854.897501 222.874755 
L 857.94106 210.407328 
L 860.984619 215.202495 
L 864.028179 223.514113 
L 867.071738 224.153471 
L 870.115297 219.997654 
L 873.158857 222.874755 
L 876.202416 225.112497 
L 879.245975 224.792821 
L 882.289535 224.153471 
L 885.333094 224.473146 
L 888.376654 225.43218 
L 891.420213 266.350921 
L 894.463772 209.76797 
L 897.507332 212.325395 
L 900.550891 218.718946 
L 903.59445 218.399271 
L 906.63801 219.997654 
L 909.681569 223.833788 
L 915.768688 226.391213 
L 918.812247 226.391213 
L 921.855806 228.628955 
L 924.899366 228.628955 
L 927.942925 224.792821 
L 930.986485 223.833788 
L 934.030044 225.43218 
L 937.073603 228.30928 
L 940.117163 231.82573 
L 943.160722 230.227347 
L 946.204281 230.547022 
L 949.247841 229.587988 
L 952.2914 231.506055 
L 955.334959 231.186372 
L 958.378519 230.547022 
L 961.422078 232.465085 
L 964.465637 224.153471 
L 967.509197 220.637013 
L 970.552756 227.350246 
L 973.596316 228.30928 
L 976.639875 228.30928 
L 979.683434 229.907664 
L 982.726994 227.350246 
L 985.770553 230.866697 
L 988.814112 229.268313 
L 988.814112 229.268313 
" clip-path="url(#p3fc04002a0)" style="fill: none; stroke: #1f77b4; stroke-width: 1.5; stroke-linecap: square"/>
   </g>
   <g id="line2d_25">
    <path d="M 553.585124 302.433244 
L 556.628684 303.729649 
L 559.672243 303.482738 
L 562.715802 300.325277 
L 565.759362 299.425955 
L 568.802921 300.505023 
L 571.84648 305.086989 
L 574.89004 304.733143 
L 577.933599 302.515622 
L 580.977158 302.274744 
L 584.020718 303.370508 
L 587.064277 301.368308 
L 590.107837 302.019155 
L 593.151396 304.012867 
L 596.194955 303.469439 
L 599.238515 301.790821 
L 602.282074 301.087766 
L 605.325633 301.805731 
L 608.369193 302.978164 
L 611.412752 301.692708 
L 614.456311 304.059296 
L 617.499871 301.673153 
L 620.54343 300.907298 
L 623.586989 302.578406 
L 626.630549 303.036701 
L 629.674108 301.265622 
L 632.717668 300.942072 
L 635.761227 297.474972 
L 638.804786 295.78466 
L 641.848346 295.962658 
L 644.891905 297.649597 
L 647.935464 297.773315 
L 650.979024 296.84291 
L 654.022583 296.794092 
L 657.066142 297.158624 
L 660.109702 296.77969 
L 663.153261 295.589711 
L 666.19682 295.21431 
L 669.24038 293.11903 
L 672.283939 288.114362 
L 675.327499 286.738357 
L 678.371058 284.965083 
L 681.414617 287.000203 
L 684.458177 287.048497 
L 687.501736 285.206997 
L 690.545295 283.656789 
L 693.588855 281.825104 
L 696.632414 280.692657 
L 699.675973 278.932903 
L 705.763092 276.23269 
L 708.806651 269.632178 
L 711.850211 266.303325 
L 714.89377 265.559188 
L 717.93733 267.759183 
L 724.024448 265.558847 
L 730.111567 262.685689 
L 733.155126 262.654582 
L 736.198686 260.623417 
L 739.242245 257.986043 
L 742.285804 258.224348 
L 745.329364 253.957219 
L 748.372923 250.911512 
L 754.460042 254.521757 
L 757.503601 253.788481 
L 760.547161 250.895638 
L 763.59072 252.0146 
L 766.634279 251.120867 
L 769.677839 251.697775 
L 772.721398 252.908627 
L 775.764957 251.284508 
L 778.808517 248.847954 
L 781.852076 246.93872 
L 784.895635 245.965757 
L 787.939195 246.448461 
L 794.026313 249.51252 
L 797.069873 249.121371 
L 800.113432 249.179701 
L 803.156992 248.885066 
L 806.200551 251.347867 
L 812.28767 252.050271 
L 815.331229 251.716682 
L 818.374788 247.548977 
L 821.418348 245.307817 
L 824.461907 246.798381 
L 827.505466 248.693182 
L 830.549026 249.890148 
L 833.592585 249.934211 
L 836.636144 250.766922 
L 839.679704 252.063538 
L 842.723263 251.392819 
L 845.766823 253.261655 
L 848.810382 250.728397 
L 851.853941 249.981433 
L 857.94106 243.654997 
L 860.984619 246.468829 
L 864.028179 246.808063 
L 867.071738 249.702185 
L 870.115297 249.242417 
L 873.158857 248.567443 
L 876.202416 249.873769 
L 879.245975 251.487273 
L 882.289535 251.20673 
L 885.333094 252.820961 
L 888.376654 249.945615 
L 891.420213 248.139913 
L 894.463772 243.915251 
L 897.507332 245.54567 
L 900.550891 249.107199 
L 903.59445 248.642886 
L 906.63801 249.846366 
L 912.725128 250.737356 
L 915.768688 251.716686 
L 918.812247 251.925446 
L 924.899366 249.707465 
L 927.942925 247.490293 
L 930.986485 244.365019 
L 934.030044 247.645883 
L 937.073603 248.379151 
L 940.117163 248.989694 
L 943.160722 250.564617 
L 946.204281 250.169844 
L 952.2914 251.497983 
L 955.334959 251.380966 
L 958.378519 252.032948 
L 961.422078 251.299346 
L 964.465637 247.613912 
L 967.509197 247.567614 
L 970.552756 245.547484 
L 973.596316 251.965849 
L 976.639875 252.429618 
L 979.683434 254.679189 
L 982.726994 252.541863 
L 985.770553 254.242759 
L 988.814112 254.906301 
L 988.814112 254.906301 
" clip-path="url(#p3fc04002a0)" style="fill: none; stroke: #ff7f0e; stroke-width: 1.5; stroke-linecap: square"/>
   </g>
   <g id="line2d_26">
    <path d="M 553.585124 309.916875 
L 553.585124 203.659375 
" clip-path="url(#p3fc04002a0)" style="fill: none; stroke-dasharray: 7.4,3.2; stroke-dashoffset: 0; stroke: #0000ff; stroke-width: 2"/>
   </g>
   <g id="patch_9">
    <path d="M 71.6375 309.916875 
L 71.6375 203.659375 
" style="fill: none; stroke: #000000; stroke-width: 0.8; stroke-linejoin: miter; stroke-linecap: square"/>
   </g>
   <g id="patch_10">
    <path d="M 1032.489189 309.916875 
L 1032.489189 203.659375 
" style="fill: none; stroke: #000000; stroke-width: 0.8; stroke-linejoin: miter; stroke-linecap: square"/>
   </g>
   <g id="patch_11">
    <path d="M 71.6375 309.916875 
L 1032.489189 309.916875 
" style="fill: none; stroke: #000000; stroke-width: 0.8; stroke-linejoin: miter; stroke-linecap: square"/>
   </g>
   <g id="patch_12">
    <path d="M 71.6375 203.659375 
L 1032.489189 203.659375 
" style="fill: none; stroke: #000000; stroke-width: 0.8; stroke-linejoin: miter; stroke-linecap: square"/>
   </g>
   <g id="text_24">
    <!-- 云函数ID: 72 -->
    <g transform="translate(492.063345 197.659375) scale(0.2 -0.2)">
     <defs>
      <path id="SimSun-37" d="M 2825 4200 
Q 2300 3350 1987 2537 
Q 1675 1725 1675 1125 
Q 1675 1025 1700 850 
Q 1700 650 1700 400 
Q 1700 200 1637 125 
Q 1575 50 1425 50 
Q 1300 50 1212 137 
Q 1125 225 1125 450 
Q 1125 925 1337 1625 
Q 1550 2325 2475 4000 
L 1225 4000 
Q 950 4000 787 3825 
Q 625 3650 550 3300 
L 400 3325 
L 575 4375 
L 2825 4375 
L 2825 4200 
z
" transform="scale(0.015625)"/>
     </defs>
     <use xlink:href="#SimSun-4e91"/>
     <use xlink:href="#SimSun-51fd" x="100"/>
     <use xlink:href="#SimSun-6570" x="200"/>
     <use xlink:href="#SimSun-49" x="300"/>
     <use xlink:href="#SimSun-44" x="350"/>
     <use xlink:href="#SimSun-3a" x="400"/>
     <use xlink:href="#SimSun-20" x="450"/>
     <use xlink:href="#SimSun-37" x="500"/>
     <use xlink:href="#SimSun-32" x="550"/>
    </g>
   </g>
  </g>
  <g id="axes_3">
   <g id="patch_13">
    <path d="M 71.6375 484.516875 
L 1032.489189 484.516875 
L 1032.489189 378.259375 
L 71.6375 378.259375 
z
" style="fill: #ffffff"/>
   </g>
   <g id="matplotlib.axis_5">
    <g id="xtick_15">
     <g id="line2d_27">
      <g>
       <use xlink:href="#mec47a37fd0" x="115.312577" y="484.516875" style="stroke: #000000; stroke-width: 0.8"/>
      </g>
     </g>
     <g id="text_25">
      <!-- 0 -->
      <g transform="translate(110.312577 505.404375) scale(0.2 -0.2)">
       <use xlink:href="#TimesNewRomanPSMT-30"/>
      </g>
     </g>
    </g>
    <g id="xtick_16">
     <g id="line2d_28">
      <g>
       <use xlink:href="#mec47a37fd0" x="267.490545" y="484.516875" style="stroke: #000000; stroke-width: 0.8"/>
      </g>
     </g>
     <g id="text_26">
      <!-- 50 -->
      <g transform="translate(257.490545 505.404375) scale(0.2 -0.2)">
       <use xlink:href="#TimesNewRomanPSMT-35"/>
       <use xlink:href="#TimesNewRomanPSMT-30" x="50"/>
      </g>
     </g>
    </g>
    <g id="xtick_17">
     <g id="line2d_29">
      <g>
       <use xlink:href="#mec47a37fd0" x="419.668513" y="484.516875" style="stroke: #000000; stroke-width: 0.8"/>
      </g>
     </g>
     <g id="text_27">
      <!-- 100 -->
      <g transform="translate(404.668513 505.404375) scale(0.2 -0.2)">
       <use xlink:href="#TimesNewRomanPSMT-31"/>
       <use xlink:href="#TimesNewRomanPSMT-30" x="50"/>
       <use xlink:href="#TimesNewRomanPSMT-30" x="100"/>
      </g>
     </g>
    </g>
    <g id="xtick_18">
     <g id="line2d_30">
      <g>
       <use xlink:href="#mec47a37fd0" x="571.84648" y="484.516875" style="stroke: #000000; stroke-width: 0.8"/>
      </g>
     </g>
     <g id="text_28">
      <!-- 150 -->
      <g transform="translate(556.84648 505.404375) scale(0.2 -0.2)">
       <use xlink:href="#TimesNewRomanPSMT-31"/>
       <use xlink:href="#TimesNewRomanPSMT-35" x="50"/>
       <use xlink:href="#TimesNewRomanPSMT-30" x="100"/>
      </g>
     </g>
    </g>
    <g id="xtick_19">
     <g id="line2d_31">
      <g>
       <use xlink:href="#mec47a37fd0" x="724.024448" y="484.516875" style="stroke: #000000; stroke-width: 0.8"/>
      </g>
     </g>
     <g id="text_29">
      <!-- 200 -->
      <g transform="translate(709.024448 505.404375) scale(0.2 -0.2)">
       <use xlink:href="#TimesNewRomanPSMT-32"/>
       <use xlink:href="#TimesNewRomanPSMT-30" x="50"/>
       <use xlink:href="#TimesNewRomanPSMT-30" x="100"/>
      </g>
     </g>
    </g>
    <g id="xtick_20">
     <g id="line2d_32">
      <g>
       <use xlink:href="#mec47a37fd0" x="876.202416" y="484.516875" style="stroke: #000000; stroke-width: 0.8"/>
      </g>
     </g>
     <g id="text_30">
      <!-- 250 -->
      <g transform="translate(861.202416 505.404375) scale(0.2 -0.2)">
       <use xlink:href="#TimesNewRomanPSMT-32"/>
       <use xlink:href="#TimesNewRomanPSMT-35" x="50"/>
       <use xlink:href="#TimesNewRomanPSMT-30" x="100"/>
      </g>
     </g>
    </g>
    <g id="xtick_21">
     <g id="line2d_33">
      <g>
       <use xlink:href="#mec47a37fd0" x="1028.380384" y="484.516875" style="stroke: #000000; stroke-width: 0.8"/>
      </g>
     </g>
     <g id="text_31">
      <!-- 300 -->
      <g transform="translate(1013.380384 505.404375) scale(0.2 -0.2)">
       <use xlink:href="#TimesNewRomanPSMT-33"/>
       <use xlink:href="#TimesNewRomanPSMT-30" x="50"/>
       <use xlink:href="#TimesNewRomanPSMT-30" x="100"/>
      </g>
     </g>
    </g>
   </g>
   <g id="matplotlib.axis_6">
    <g id="ytick_5">
     <g id="line2d_34">
      <g>
       <use xlink:href="#m3cbd0dbedd" x="71.6375" y="440.477207" style="stroke: #000000; stroke-width: 0.8"/>
      </g>
     </g>
     <g id="text_32">
      <!-- 2.5 -->
      <g transform="translate(39.6375 447.420957) scale(0.2 -0.2)">
       <use xlink:href="#TimesNewRomanPSMT-32"/>
       <use xlink:href="#TimesNewRomanPSMT-2e" x="50"/>
       <use xlink:href="#TimesNewRomanPSMT-35" x="75"/>
      </g>
     </g>
    </g>
    <g id="ytick_6">
     <g id="line2d_35">
      <g>
       <use xlink:href="#m3cbd0dbedd" x="71.6375" y="394.875955" style="stroke: #000000; stroke-width: 0.8"/>
      </g>
     </g>
     <g id="text_33">
      <!-- 5.0 -->
      <g transform="translate(39.6375 401.819705) scale(0.2 -0.2)">
       <use xlink:href="#TimesNewRomanPSMT-35"/>
       <use xlink:href="#TimesNewRomanPSMT-2e" x="50"/>
       <use xlink:href="#TimesNewRomanPSMT-30" x="75"/>
      </g>
     </g>
    </g>
    <g id="text_34">
     <!-- CPU使用率 -->
     <g transform="translate(33.059375 476.388125) rotate(-90) scale(0.2 -0.2)">
      <use xlink:href="#SimSun-43"/>
      <use xlink:href="#SimSun-50" x="50"/>
      <use xlink:href="#SimSun-55" x="100"/>
      <use xlink:href="#SimSun-4f7f" x="150"/>
      <use xlink:href="#SimSun-7528" x="250"/>
      <use xlink:href="#SimSun-7387" x="350"/>
     </g>
    </g>
   </g>
   <g id="line2d_36">
    <path d="M 115.312577 437.135549 
L 118.356136 436.34756 
L 121.399695 436.522667 
L 124.443255 437.485764 
L 127.486814 436.697774 
L 130.530374 437.310657 
L 133.573933 436.34756 
L 136.617492 436.872886 
L 139.661052 428.992987 
L 142.704611 434.859131 
L 145.74817 437.398213 
L 148.79173 437.223101 
L 151.835289 437.660876 
L 154.878848 438.536418 
L 157.922408 437.398213 
L 160.965967 439.061744 
L 164.009526 440.375061 
L 167.053086 440.637724 
L 170.096645 440.375061 
L 173.140205 441.863485 
L 176.183764 440.462617 
L 179.227323 442.563923 
L 182.270883 442.563923 
L 185.314442 445.278108 
L 188.358001 445.190552 
L 191.401561 446.941639 
L 194.44512 447.029195 
L 197.488679 447.817185 
L 200.532239 449.130502 
L 206.619357 452.282459 
L 209.662917 450.531372 
L 212.706476 465.240511 
L 215.750036 453.858439 
L 218.793595 454.558875 
L 221.837154 455.69708 
L 224.880714 457.44817 
L 227.924273 458.148604 
L 230.967832 459.724583 
L 234.011392 460.24991 
L 237.054951 461.125454 
L 243.14207 463.489424 
L 246.185629 464.452521 
L 249.229188 464.977848 
L 252.272748 466.291164 
L 255.316307 467.079154 
L 258.359867 467.692034 
L 261.403426 468.917796 
L 264.446985 469.968449 
L 267.490545 469.530678 
L 273.577663 471.456874 
L 276.621223 471.894646 
L 279.664782 472.595081 
L 282.708341 472.682636 
L 285.751901 472.419973 
L 288.79546 471.894646 
L 294.882579 473.032853 
L 297.926138 473.120408 
L 300.969698 473.645735 
L 304.013257 473.820843 
L 310.100376 474.783942 
L 313.143935 474.95905 
L 316.187494 474.871495 
L 319.231054 475.396822 
L 325.318172 477.060357 
L 328.361732 477.498128 
L 331.405291 477.673237 
L 334.448851 478.111009 
L 340.535969 478.111009 
L 352.710207 478.72389 
L 355.753766 478.72389 
L 358.797325 476.097257 
L 361.840885 479.599434 
L 364.884444 479.424325 
L 367.928003 479.599434 
L 370.971563 479.424325 
L 374.015122 479.686989 
L 377.058682 479.424325 
L 383.1458 479.511879 
L 386.18936 479.599434 
L 392.276478 479.511879 
L 395.320038 478.72389 
L 398.363597 478.986554 
L 401.407156 478.811444 
L 404.450716 478.811444 
L 407.494275 478.636335 
L 413.581394 477.760792 
L 416.624953 477.585682 
L 425.755631 476.447475 
L 428.799191 475.659485 
L 431.84275 472.419973 
L 434.886309 473.55818 
L 437.929869 472.682636 
L 440.973428 472.15731 
L 444.016987 471.106656 
L 447.060547 470.493776 
L 450.104106 467.341817 
L 453.147665 467.692034 
L 456.191225 466.466274 
L 459.234784 465.678284 
L 462.278344 464.102304 
L 465.321903 463.927194 
L 468.365462 451.932242 
L 471.409022 459.812137 
L 474.452581 458.67393 
L 477.49614 457.710833 
L 480.5397 456.134853 
L 483.583259 456.222407 
L 486.626818 454.121102 
L 489.670378 453.858439 
L 492.713937 452.370015 
L 495.757496 453.158005 
L 498.801056 450.618926 
L 501.844615 449.743382 
L 504.888175 444.577674 
L 507.931734 445.453215 
L 510.975293 445.365664 
L 514.018853 445.453215 
L 517.062412 444.227455 
L 520.105971 444.31501 
L 523.149531 443.439465 
L 526.19309 445.803434 
L 529.236649 445.978542 
L 532.280209 445.540771 
L 535.323768 445.540771 
L 538.367327 443.001694 
L 541.410887 443.001694 
L 544.454446 442.476367 
L 547.498006 442.914138 
L 550.541565 442.651475 
L 553.585124 439.93729 
L 556.628684 443.614572 
L 559.672243 441.688377 
L 562.715802 444.402562 
L 565.759362 445.015444 
L 568.802921 445.190552 
L 571.84648 442.826582 
L 574.89004 444.577674 
L 577.933599 438.448862 
L 580.977158 440.024842 
L 584.020718 439.674627 
L 587.064277 442.651475 
L 590.107837 443.351909 
L 593.151396 444.490118 
L 596.194955 444.752781 
L 599.238515 443.264357 
L 602.282074 442.739031 
L 605.325633 443.001694 
L 608.369193 444.31501 
L 611.412752 445.453215 
L 614.456311 444.052347 
L 617.499871 442.038597 
L 620.54343 442.651475 
L 623.586989 445.015444 
L 626.630549 444.840337 
L 629.674108 442.651475 
L 632.717668 444.577674 
L 635.761227 445.803434 
L 638.804786 445.540771 
L 641.848346 444.052347 
L 644.891905 443.964791 
L 647.935464 444.752781 
L 650.979024 458.498823 
L 654.022583 436.78533 
L 657.066142 437.485764 
L 660.109702 440.550168 
L 663.153261 440.987943 
L 666.19682 440.987943 
L 669.24038 441.951041 
L 672.283939 443.527021 
L 675.327499 443.001694 
L 678.371058 444.665225 
L 681.414617 443.351909 
L 684.458177 445.190552 
L 687.501736 442.651475 
L 690.545295 442.388811 
L 696.632414 446.678976 
L 699.675973 446.241205 
L 702.719533 445.978542 
L 705.763092 444.752781 
L 708.806651 446.153649 
L 711.850211 446.153649 
L 714.89377 447.029195 
L 717.93733 445.978542 
L 720.980889 446.503868 
L 724.024448 441.951041 
L 727.068008 440.72528 
L 730.111567 445.015444 
L 733.155126 445.365664 
L 736.198686 442.739031 
L 739.242245 442.563923 
L 742.285804 441.688377 
L 745.329364 443.439465 
L 748.372923 444.840337 
L 751.416482 447.029195 
L 754.460042 445.715879 
L 757.503601 445.103 
L 760.547161 442.739031 
L 763.59072 442.826582 
L 769.677839 445.803434 
L 772.721398 445.715879 
L 775.764957 446.153649 
L 778.808517 445.015444 
L 784.895635 445.015444 
L 787.939195 445.803434 
L 790.982754 445.715879 
L 797.069873 444.227455 
L 800.113432 444.227455 
L 803.156992 446.153649 
L 806.200551 442.126148 
L 809.24411 442.739031 
L 812.28767 444.665225 
L 815.331229 440.72528 
L 818.374788 443.089245 
L 821.418348 444.052347 
L 824.461907 444.139899 
L 827.505466 439.849734 
L 830.549026 441.688377 
L 833.592585 440.112397 
L 836.636144 440.112397 
L 839.679704 437.485764 
L 842.723263 440.550168 
L 845.766823 439.93729 
L 848.810382 438.974188 
L 851.853941 436.34756 
L 854.897501 437.135549 
L 857.94106 436.610223 
L 860.984619 436.260004 
L 864.028179 437.398213 
L 867.071738 436.435111 
L 870.115297 433.020492 
L 873.158857 435.472014 
L 876.202416 433.720926 
L 879.245975 432.144947 
L 882.289535 432.845381 
L 885.333094 431.969839 
L 888.376654 429.693421 
L 891.420213 433.108044 
L 894.463772 430.83163 
L 897.507332 431.794727 
L 900.550891 431.794727 
L 903.59445 430.131196 
L 906.63801 432.757829 
L 909.681569 433.720926 
L 912.725128 435.384458 
L 915.768688 433.370707 
L 918.812247 430.393859 
L 921.855806 436.610223 
L 924.899366 434.246253 
L 927.942925 435.99734 
L 930.986485 436.522667 
L 934.030044 437.485764 
L 937.073603 435.99734 
L 940.117163 437.135549 
L 943.160722 433.108044 
L 946.204281 435.121795 
L 949.247841 435.20935 
L 952.2914 437.047994 
L 955.334959 435.121795 
L 958.378519 436.697774 
L 961.422078 436.435111 
L 964.465637 435.472014 
L 967.509197 437.398213 
L 970.552756 437.398213 
L 973.596316 436.78533 
L 976.639875 435.472014 
L 979.683434 429.780977 
L 982.726994 434.596468 
L 985.770553 434.333805 
L 988.814112 434.946687 
L 988.814112 434.946687 
" clip-path="url(#p95b36e1a10)" style="fill: none; stroke: #1f77b4; stroke-width: 1.5; stroke-linecap: square"/>
   </g>
   <g id="line2d_37">
    <path d="M 553.585124 440.257767 
L 556.628684 441.270207 
L 559.672243 442.032225 
L 562.715802 440.230869 
L 565.759362 440.419258 
L 571.84648 439.845207 
L 574.89004 441.339915 
L 577.933599 442.507714 
L 580.977158 440.5369 
L 584.020718 441.016315 
L 587.064277 443.227687 
L 590.107837 445.123284 
L 593.151396 442.842129 
L 596.194955 443.785979 
L 599.238515 442.530011 
L 602.282074 443.794415 
L 608.369193 443.006773 
L 611.412752 446.030215 
L 614.456311 445.106423 
L 617.499871 443.639813 
L 620.54343 443.974311 
L 623.586989 444.113631 
L 626.630549 443.853695 
L 629.674108 443.851046 
L 632.717668 444.016452 
L 635.761227 443.924342 
L 638.804786 443.595863 
L 641.848346 443.698253 
L 644.891905 442.654845 
L 647.935464 443.12565 
L 650.979024 443.044978 
L 654.022583 442.659481 
L 657.066142 442.056657 
L 660.109702 442.939809 
L 663.153261 441.516971 
L 666.19682 441.808802 
L 669.24038 440.958788 
L 672.283939 442.264777 
L 675.327499 440.233318 
L 678.371058 442.606577 
L 681.414617 442.225546 
L 684.458177 442.860025 
L 687.501736 441.084788 
L 690.545295 441.727426 
L 693.588855 441.979113 
L 696.632414 441.440974 
L 699.675973 442.198444 
L 702.719533 441.511182 
L 705.763092 442.184653 
L 708.806651 441.776955 
L 711.850211 442.497794 
L 717.93733 441.428967 
L 720.980889 444.971247 
L 724.024448 443.631841 
L 727.068008 441.661954 
L 730.111567 442.599075 
L 733.155126 442.204319 
L 739.242245 439.798713 
L 742.285804 438.274568 
L 745.329364 439.582644 
L 748.372923 437.327861 
L 751.416482 436.726438 
L 754.460042 435.074405 
L 757.503601 434.770366 
L 760.547161 432.948349 
L 763.59072 431.970035 
L 766.634279 430.205362 
L 769.677839 431.494194 
L 772.721398 429.628266 
L 775.764957 429.62804 
L 778.808517 428.669261 
L 784.895635 424.646809 
L 787.939195 423.54019 
L 790.982754 421.138163 
L 794.026313 420.512264 
L 797.069873 417.689223 
L 800.113432 416.342559 
L 803.156992 414.466081 
L 806.200551 414.701516 
L 809.24411 414.033825 
L 812.28767 413.612727 
L 815.331229 412.287734 
L 818.374788 410.507888 
L 821.418348 409.650942 
L 824.461907 408.07157 
L 827.505466 405.075109 
L 833.592585 402.639278 
L 836.636144 401.549746 
L 839.679704 399.141522 
L 842.723263 399.090997 
L 845.766823 398.720316 
L 848.810382 398.717759 
L 851.853941 398.203644 
L 854.897501 397.20569 
L 857.94106 395.473212 
L 860.984619 395.002055 
L 864.028179 392.061337 
L 867.071738 392.186376 
L 870.115297 390.805687 
L 873.158857 390.211552 
L 876.202416 389.978365 
L 879.245975 390.569943 
L 885.333094 390.9888 
L 888.376654 390.575701 
L 891.420213 390.842982 
L 894.463772 390.633915 
L 897.507332 388.369221 
L 900.550891 388.371804 
L 903.59445 387.744183 
L 906.63801 387.762249 
L 909.681569 386.961169 
L 912.725128 387.894941 
L 915.768688 388.623082 
L 918.812247 387.391516 
L 921.855806 388.755819 
L 924.899366 389.717877 
L 927.942925 389.171249 
L 930.986485 389.023448 
L 934.030044 388.472881 
L 937.073603 389.594238 
L 940.117163 388.743111 
L 943.160722 387.068621 
L 946.204281 386.960708 
L 949.247841 387.376173 
L 955.334959 387.846599 
L 958.378519 389.125664 
L 961.422078 388.502357 
L 964.465637 387.182491 
L 967.509197 386.052941 
L 970.552756 387.042745 
L 973.596316 385.391007 
L 976.639875 383.089261 
L 979.683434 384.654482 
L 982.726994 383.94298 
L 985.770553 383.791144 
L 988.814112 384.029714 
L 988.814112 384.029714 
" clip-path="url(#p95b36e1a10)" style="fill: none; stroke: #ff7f0e; stroke-width: 1.5; stroke-linecap: square"/>
   </g>
   <g id="line2d_38">
    <path d="M 553.585124 484.516875 
L 553.585124 378.259375 
" clip-path="url(#p95b36e1a10)" style="fill: none; stroke-dasharray: 7.4,3.2; stroke-dashoffset: 0; stroke: #0000ff; stroke-width: 2"/>
   </g>
   <g id="patch_14">
    <path d="M 71.6375 484.516875 
L 71.6375 378.259375 
" style="fill: none; stroke: #000000; stroke-width: 0.8; stroke-linejoin: miter; stroke-linecap: square"/>
   </g>
   <g id="patch_15">
    <path d="M 1032.489189 484.516875 
L 1032.489189 378.259375 
" style="fill: none; stroke: #000000; stroke-width: 0.8; stroke-linejoin: miter; stroke-linecap: square"/>
   </g>
   <g id="patch_16">
    <path d="M 71.6375 484.516875 
L 1032.489189 484.516875 
" style="fill: none; stroke: #000000; stroke-width: 0.8; stroke-linejoin: miter; stroke-linecap: square"/>
   </g>
   <g id="patch_17">
    <path d="M 71.6375 378.259375 
L 1032.489189 378.259375 
" style="fill: none; stroke: #000000; stroke-width: 0.8; stroke-linejoin: miter; stroke-linecap: square"/>
   </g>
   <g id="text_35">
    <!-- 云函数ID: 150 -->
    <g transform="translate(487.063345 372.259375) scale(0.2 -0.2)">
     <defs>
      <path id="SimSun-31" d="M 1825 4450 
L 1825 650 
Q 1825 450 1950 350 
Q 2075 250 2300 250 
L 2550 250 
L 2550 100 
L 725 100 
L 725 250 
L 950 250 
Q 1200 250 1312 350 
Q 1425 450 1425 650 
L 1425 3675 
Q 1425 3775 1362 3837 
Q 1300 3900 1175 3900 
L 725 3900 
L 725 4050 
L 950 4050 
Q 1250 4050 1437 4150 
Q 1625 4250 1725 4450 
L 1825 4450 
z
" transform="scale(0.015625)"/>
      <path id="SimSun-35" d="M 1725 2850 
Q 2200 2850 2500 2487 
Q 2800 2125 2800 1525 
Q 2800 850 2487 450 
Q 2175 50 1525 50 
Q 1075 50 725 312 
Q 375 575 375 950 
Q 375 1100 462 1212 
Q 550 1325 700 1325 
Q 850 1325 900 1225 
Q 950 1125 950 1050 
Q 950 900 875 825 
Q 800 725 800 625 
Q 800 425 1037 325 
Q 1275 225 1550 225 
Q 1950 225 2162 550 
Q 2375 875 2375 1475 
Q 2375 1975 2187 2287 
Q 2000 2600 1625 2600 
Q 1350 2600 1150 2500 
Q 950 2400 775 2075 
L 550 2100 
L 675 4375 
L 2725 4375 
L 2650 4000 
L 850 4000 
L 750 2350 
Q 1000 2700 1237 2775 
Q 1475 2850 1725 2850 
z
" transform="scale(0.015625)"/>
      <path id="SimSun-30" d="M 1600 4225 
Q 1250 4225 1012 3687 
Q 775 3150 775 2250 
Q 775 1300 1012 775 
Q 1250 250 1600 250 
Q 1975 250 2187 775 
Q 2400 1300 2400 2250 
Q 2400 3150 2200 3687 
Q 2000 4225 1600 4225 
z
M 1600 50 
Q 1050 50 675 625 
Q 300 1200 300 2250 
Q 300 3225 662 3825 
Q 1025 4425 1600 4425 
Q 2150 4425 2512 3850 
Q 2875 3275 2875 2250 
Q 2875 1225 2512 637 
Q 2150 50 1600 50 
z
" transform="scale(0.015625)"/>
     </defs>
     <use xlink:href="#SimSun-4e91"/>
     <use xlink:href="#SimSun-51fd" x="100"/>
     <use xlink:href="#SimSun-6570" x="200"/>
     <use xlink:href="#SimSun-49" x="300"/>
     <use xlink:href="#SimSun-44" x="350"/>
     <use xlink:href="#SimSun-3a" x="400"/>
     <use xlink:href="#SimSun-20" x="450"/>
     <use xlink:href="#SimSun-31" x="500"/>
     <use xlink:href="#SimSun-35" x="550"/>
     <use xlink:href="#SimSun-30" x="600"/>
    </g>
   </g>
  </g>
  <g id="axes_4">
   <g id="patch_18">
    <path d="M 71.6375 659.116875 
L 1032.489189 659.116875 
L 1032.489189 552.859375 
L 71.6375 552.859375 
z
" style="fill: #ffffff"/>
   </g>
   <g id="matplotlib.axis_7">
    <g id="xtick_22">
     <g id="line2d_39">
      <g>
       <use xlink:href="#mec47a37fd0" x="115.312577" y="659.116875" style="stroke: #000000; stroke-width: 0.8"/>
      </g>
     </g>
     <g id="text_36">
      <!-- 0 -->
      <g transform="translate(110.312577 680.004375) scale(0.2 -0.2)">
       <use xlink:href="#TimesNewRomanPSMT-30"/>
      </g>
     </g>
    </g>
    <g id="xtick_23">
     <g id="line2d_40">
      <g>
       <use xlink:href="#mec47a37fd0" x="267.490545" y="659.116875" style="stroke: #000000; stroke-width: 0.8"/>
      </g>
     </g>
     <g id="text_37">
      <!-- 50 -->
      <g transform="translate(257.490545 680.004375) scale(0.2 -0.2)">
       <use xlink:href="#TimesNewRomanPSMT-35"/>
       <use xlink:href="#TimesNewRomanPSMT-30" x="50"/>
      </g>
     </g>
    </g>
    <g id="xtick_24">
     <g id="line2d_41">
      <g>
       <use xlink:href="#mec47a37fd0" x="419.668513" y="659.116875" style="stroke: #000000; stroke-width: 0.8"/>
      </g>
     </g>
     <g id="text_38">
      <!-- 100 -->
      <g transform="translate(404.668513 680.004375) scale(0.2 -0.2)">
       <use xlink:href="#TimesNewRomanPSMT-31"/>
       <use xlink:href="#TimesNewRomanPSMT-30" x="50"/>
       <use xlink:href="#TimesNewRomanPSMT-30" x="100"/>
      </g>
     </g>
    </g>
    <g id="xtick_25">
     <g id="line2d_42">
      <g>
       <use xlink:href="#mec47a37fd0" x="571.84648" y="659.116875" style="stroke: #000000; stroke-width: 0.8"/>
      </g>
     </g>
     <g id="text_39">
      <!-- 150 -->
      <g transform="translate(556.84648 680.004375) scale(0.2 -0.2)">
       <use xlink:href="#TimesNewRomanPSMT-31"/>
       <use xlink:href="#TimesNewRomanPSMT-35" x="50"/>
       <use xlink:href="#TimesNewRomanPSMT-30" x="100"/>
      </g>
     </g>
    </g>
    <g id="xtick_26">
     <g id="line2d_43">
      <g>
       <use xlink:href="#mec47a37fd0" x="724.024448" y="659.116875" style="stroke: #000000; stroke-width: 0.8"/>
      </g>
     </g>
     <g id="text_40">
      <!-- 200 -->
      <g transform="translate(709.024448 680.004375) scale(0.2 -0.2)">
       <use xlink:href="#TimesNewRomanPSMT-32"/>
       <use xlink:href="#TimesNewRomanPSMT-30" x="50"/>
       <use xlink:href="#TimesNewRomanPSMT-30" x="100"/>
      </g>
     </g>
    </g>
    <g id="xtick_27">
     <g id="line2d_44">
      <g>
       <use xlink:href="#mec47a37fd0" x="876.202416" y="659.116875" style="stroke: #000000; stroke-width: 0.8"/>
      </g>
     </g>
     <g id="text_41">
      <!-- 250 -->
      <g transform="translate(861.202416 680.004375) scale(0.2 -0.2)">
       <use xlink:href="#TimesNewRomanPSMT-32"/>
       <use xlink:href="#TimesNewRomanPSMT-35" x="50"/>
       <use xlink:href="#TimesNewRomanPSMT-30" x="100"/>
      </g>
     </g>
    </g>
    <g id="xtick_28">
     <g id="line2d_45">
      <g>
       <use xlink:href="#mec47a37fd0" x="1028.380384" y="659.116875" style="stroke: #000000; stroke-width: 0.8"/>
      </g>
     </g>
     <g id="text_42">
      <!-- 300 -->
      <g transform="translate(1013.380384 680.004375) scale(0.2 -0.2)">
       <use xlink:href="#TimesNewRomanPSMT-33"/>
       <use xlink:href="#TimesNewRomanPSMT-30" x="50"/>
       <use xlink:href="#TimesNewRomanPSMT-30" x="100"/>
      </g>
     </g>
    </g>
   </g>
   <g id="matplotlib.axis_8">
    <g id="ytick_7">
     <g id="line2d_46">
      <g>
       <use xlink:href="#m3cbd0dbedd" x="71.6375" y="624.278848" style="stroke: #000000; stroke-width: 0.8"/>
      </g>
     </g>
     <g id="text_43">
      <!-- 10.0 -->
      <g transform="translate(29.6375 631.222598) scale(0.2 -0.2)">
       <use xlink:href="#TimesNewRomanPSMT-31"/>
       <use xlink:href="#TimesNewRomanPSMT-30" x="50"/>
       <use xlink:href="#TimesNewRomanPSMT-2e" x="100"/>
       <use xlink:href="#TimesNewRomanPSMT-30" x="125"/>
      </g>
     </g>
    </g>
    <g id="ytick_8">
     <g id="line2d_47">
      <g>
       <use xlink:href="#m3cbd0dbedd" x="71.6375" y="554.528165" style="stroke: #000000; stroke-width: 0.8"/>
      </g>
     </g>
     <g id="text_44">
      <!-- 20.0 -->
      <g transform="translate(29.6375 561.471915) scale(0.2 -0.2)">
       <use xlink:href="#TimesNewRomanPSMT-32"/>
       <use xlink:href="#TimesNewRomanPSMT-30" x="50"/>
       <use xlink:href="#TimesNewRomanPSMT-2e" x="100"/>
       <use xlink:href="#TimesNewRomanPSMT-30" x="125"/>
      </g>
     </g>
    </g>
    <g id="text_45">
     <!-- CPU使用率 -->
     <g transform="translate(23.059375 650.988125) rotate(-90) scale(0.2 -0.2)">
      <use xlink:href="#SimSun-43"/>
      <use xlink:href="#SimSun-50" x="50"/>
      <use xlink:href="#SimSun-55" x="100"/>
      <use xlink:href="#SimSun-4f7f" x="150"/>
      <use xlink:href="#SimSun-7528" x="250"/>
      <use xlink:href="#SimSun-7387" x="350"/>
     </g>
    </g>
   </g>
   <g id="line2d_48">
    <path d="M 115.312577 595.060286 
L 118.356136 594.3279 
L 121.399695 599.7015 
L 124.443255 600.963985 
L 127.486814 599.278809 
L 130.530374 601.960021 
L 133.573933 602.738438 
L 136.617492 601.095122 
L 139.661052 601.268099 
L 142.704611 604.425011 
L 145.74817 605.808868 
L 148.79173 600.749147 
L 151.835289 654.286989 
L 154.878848 599.840998 
L 157.922408 599.624769 
L 160.965967 600.489682 
L 164.009526 604.338523 
L 167.053086 600.403187 
L 170.096645 602.003272 
L 173.140205 601.18161 
L 176.183764 601.61406 
L 179.227323 600.619421 
L 185.314442 604.770979 
L 188.358001 598.976092 
L 191.401561 604.684484 
L 194.44512 605.852113 
L 197.488679 604.381767 
L 200.532239 608.317103 
L 203.575798 608.749553 
L 206.619357 604.857468 
L 209.662917 606.457553 
L 212.706476 606.933253 
L 215.750036 610.306394 
L 218.793595 613.969692 
L 221.837154 616.020367 
L 224.880714 609.156905 
L 227.924273 613.132691 
L 230.967832 614.806706 
L 234.011392 616.104068 
L 237.054951 616.731825 
L 240.09851 618.531395 
L 243.14207 616.271471 
L 246.185629 615.769262 
L 252.272748 619.368396 
L 255.316307 616.271471 
L 258.359867 617.150326 
L 261.403426 613.802296 
L 264.446985 619.159146 
L 267.490545 619.6195 
L 270.534104 618.112888 
L 273.577663 618.40584 
L 276.621223 619.41025 
L 279.664782 616.39702 
L 282.708341 618.40584 
L 285.751901 618.99175 
L 288.79546 618.280291 
L 291.83902 617.275881 
L 294.882579 619.954306 
L 297.926138 613.46749 
L 300.969698 619.075445 
L 304.013257 615.267061 
L 307.056816 614.890401 
L 310.100376 615.476311 
L 313.143935 617.066624 
L 316.187494 615.560012 
L 319.231054 617.819937 
L 322.274613 616.731825 
L 325.318172 615.267061 
L 328.361732 617.108472 
L 331.405291 619.954306 
L 334.448851 615.05781 
L 337.49241 614.430047 
L 340.535969 613.383789 
L 346.623088 613.132691 
L 349.666647 615.015956 
L 352.710207 617.778083 
L 355.753766 616.522568 
L 358.797325 617.485131 
L 361.840885 617.610687 
L 364.884444 618.698792 
L 367.928003 617.987333 
L 370.971563 613.718595 
L 374.015122 614.388199 
L 377.058682 612.756038 
L 380.102241 616.313325 
L 383.1458 616.187763 
L 386.18936 612.630483 
L 389.232919 612.46308 
L 392.276478 613.634893 
L 395.320038 612.923435 
L 398.363597 610.454266 
L 401.407156 611.66792 
L 404.450716 610.789065 
L 407.494275 609.073197 
L 410.537834 610.161308 
L 413.581394 593.030538 
L 416.624953 586.564656 
L 419.668513 591.691329 
L 422.712072 594.718509 
L 425.755631 594.376732 
L 428.799191 596.329749 
L 431.84275 596.280924 
L 434.886309 599.601055 
L 437.929869 601.700548 
L 440.973428 604.07905 
L 444.016987 602.248788 
L 447.060547 581.198041 
L 456.191225 586.875748 
L 459.234784 588.0629 
L 462.278344 599.181158 
L 465.321903 598.644073 
L 468.365462 601.222061 
L 471.409022 600.623599 
L 474.452581 598.690112 
L 477.49614 595.145384 
L 480.5397 602.000484 
L 483.583259 581.350091 
L 486.626818 572.317391 
L 489.670378 575.922105 
L 492.713937 569.984913 
L 495.757496 585.729046 
L 498.801056 589.492789 
L 501.844615 593.998682 
L 504.888175 596.65479 
L 507.931734 594.994724 
L 510.975293 597.603397 
L 514.018853 600.733808 
L 517.062412 594.378129 
L 520.105971 577.982532 
L 523.149531 578.907431 
L 526.19309 582.062953 
L 529.236649 592.911967 
L 532.280209 591.740154 
L 535.323768 591.398377 
L 538.367327 587.541162 
L 541.410887 589.005926 
L 544.454446 591.544853 
L 547.498006 594.572033 
L 550.541565 598.673369 
L 553.585124 597.745689 
L 556.628684 581.517494 
L 562.715802 596.23768 
L 565.759362 595.240241 
L 568.802921 595.731287 
L 571.84648 595.552722 
L 574.89004 597.025862 
L 577.933599 592.427899 
L 580.977158 593.142145 
L 584.020718 594.749194 
L 587.064277 597.918672 
L 590.107837 642.235463 
L 593.151396 565.891946 
L 596.194955 557.689261 
L 599.238515 572.16115 
L 602.282074 581.535627 
L 605.325633 584.850184 
L 608.369193 587.511866 
L 611.412752 592.081938 
L 614.456311 592.165633 
L 617.499871 597.338343 
L 620.54343 598.09723 
L 623.586989 599.570363 
L 626.630549 601.17742 
L 629.674108 585.123606 
L 632.717668 583.042239 
L 635.761227 590.073111 
L 638.804786 598.476677 
L 641.848346 595.240241 
L 644.891905 597.963307 
L 647.935464 597.47226 
L 650.979024 598.231154 
L 654.022583 599.436446 
L 657.066142 600.373891 
L 660.109702 602.56127 
L 663.153261 596.043769 
L 666.19682 590.508354 
L 669.24038 598.766835 
L 672.283939 603.766569 
L 675.327499 599.347164 
L 678.371058 602.56127 
L 681.414617 602.56127 
L 684.458177 598.990041 
L 687.501736 602.6952 
L 690.545295 602.516635 
L 693.588855 602.963041 
L 696.632414 598.9454 
L 699.675973 597.47226 
L 702.719533 597.740108 
L 705.763092 602.427353 
L 708.806651 603.543363 
L 711.850211 600.597097 
L 714.89377 602.159512 
L 717.93733 600.95422 
L 720.980889 594.70456 
L 724.024448 602.338071 
L 727.068008 602.382718 
L 730.111567 603.543363 
L 733.155126 602.204154 
L 736.198686 600.46318 
L 739.242245 601.623825 
L 742.285804 601.757742 
L 745.329364 601.088144 
L 748.372923 604.391532 
L 751.416482 607.025316 
L 754.460042 603.230881 
L 757.503601 603.320164 
L 760.547161 605.730748 
L 763.59072 603.588004 
L 766.634279 598.900759 
L 769.677839 603.855845 
L 772.721398 600.418533 
L 775.764957 600.731021 
L 778.808517 602.114871 
L 781.852076 600.552456 
L 784.895635 599.972134 
L 787.939195 602.276693 
L 790.982754 602.204154 
L 794.026313 599.972134 
L 797.069873 600.597097 
L 800.113432 600.284616 
L 803.156992 603.320164 
L 806.200551 604.257615 
L 809.24411 591.942433 
L 812.28767 592.734799 
L 815.331229 593.88987 
L 818.374788 589.068707 
L 821.418348 590.776195 
L 824.461907 590.374437 
L 827.505466 580.308024 
L 830.549026 580.023441 
L 833.592585 577.467778 
L 836.636144 576.262485 
L 839.679704 578.371737 
L 842.723263 574.354096 
L 845.766823 588.666936 
L 848.810382 582.640482 
L 851.853941 586.75856 
L 854.897501 583.59467 
L 857.94106 578.221084 
L 860.984619 589.018478 
L 864.028179 588.666936 
L 867.071738 589.671353 
L 870.115297 589.621124 
L 873.158857 590.022895 
L 876.202416 590.022895 
L 879.245975 591.730389 
L 882.289535 589.922451 
L 885.333094 588.466054 
L 888.376654 578.522403 
L 891.420213 578.968802 
L 894.463772 578.466607 
L 897.507332 585.553268 
L 900.550891 584.297754 
L 903.59445 584.59908 
L 906.63801 586.457241 
L 909.681569 589.269583 
L 912.725128 589.520687 
L 915.768688 590.424653 
L 918.812247 576.395005 
L 924.899366 586.658123 
L 927.942925 586.457241 
L 930.986485 586.105692 
L 934.030044 586.959442 
L 937.073603 586.858998 
L 940.117163 585.452824 
L 943.160722 585.854595 
L 946.204281 582.389378 
L 949.247841 581.234308 
L 952.2914 584.699524 
L 955.334959 586.407012 
L 961.422078 587.662526 
L 964.465637 585.90481 
L 967.509197 588.164735 
L 970.552756 588.767381 
L 973.596316 588.114513 
L 976.639875 582.74092 
L 979.683434 589.169138 
L 982.726994 592.483695 
L 985.770553 591.981493 
L 988.814112 583.192906 
L 988.814112 583.192906 
" clip-path="url(#pb0de2fca40)" style="fill: none; stroke: #1f77b4; stroke-width: 1.5; stroke-linecap: square"/>
   </g>
   <g id="line2d_49">
    <path d="M 553.585124 611.245661 
L 556.628684 609.437577 
L 559.672243 609.34876 
L 562.715802 609.647851 
L 565.759362 610.367625 
L 568.802921 609.340372 
L 571.84648 607.594177 
L 574.89004 608.911727 
L 577.933599 611.441714 
L 580.977158 610.914248 
L 584.020718 610.170009 
L 587.064277 611.414534 
L 590.107837 610.046502 
L 593.151396 605.661036 
L 596.194955 606.341909 
L 599.238515 605.983116 
L 602.282074 606.092687 
L 605.325633 606.049283 
L 608.369193 606.457054 
L 611.412752 608.47977 
L 614.456311 607.660018 
L 617.499871 608.882605 
L 620.54343 609.515225 
L 623.586989 607.08686 
L 626.630549 605.641672 
L 629.674108 605.504502 
L 632.717668 605.646568 
L 635.761227 606.648829 
L 641.848346 608.0323 
L 644.891905 607.539604 
L 647.935464 608.083554 
L 650.979024 609.6349 
L 654.022583 608.978746 
L 657.066142 608.115124 
L 660.109702 608.019316 
L 663.153261 606.09888 
L 666.19682 605.561669 
L 669.24038 606.006558 
L 672.283939 607.344263 
L 675.327499 606.246486 
L 678.371058 609.221462 
L 681.414617 607.587731 
L 684.458177 608.343585 
L 687.501736 607.853623 
L 690.545295 608.714198 
L 693.588855 609.30338 
L 699.675973 607.292411 
L 702.719533 605.791128 
L 705.763092 606.519256 
L 708.806651 608.617093 
L 711.850211 610.109051 
L 714.89377 609.72073 
L 717.93733 609.930246 
L 720.980889 611.83352 
L 724.024448 612.14382 
L 727.068008 611.519103 
L 730.111567 612.588496 
L 733.155126 611.641505 
L 736.198686 612.283172 
L 739.242245 611.297387 
L 742.285804 610.911195 
L 745.329364 612.871749 
L 748.372923 613.517799 
L 751.416482 613.523773 
L 754.460042 613.064649 
L 757.503601 613.685993 
L 760.547161 615.599605 
L 763.59072 615.752653 
L 766.634279 615.727428 
L 769.677839 616.277937 
L 772.721398 614.29432 
L 775.764957 614.926907 
L 784.895635 615.507083 
L 787.939195 616.111192 
L 790.982754 615.937058 
L 794.026313 616.896647 
L 797.069873 617.698878 
L 800.113432 616.713286 
L 803.156992 617.78985 
L 806.200551 616.681636 
L 812.28767 613.567948 
L 815.331229 613.764679 
L 818.374788 615.040642 
L 821.418348 615.51907 
L 827.505466 615.222293 
L 830.549026 614.720683 
L 833.592585 616.123266 
L 836.636144 616.663277 
L 839.679704 615.785487 
L 842.723263 615.539571 
L 845.766823 613.59733 
L 848.810382 613.746732 
L 851.853941 613.037788 
L 854.897501 615.200468 
L 860.984619 614.771784 
L 864.028179 614.780511 
L 867.071738 615.374796 
L 870.115297 616.231473 
L 873.158857 616.527211 
L 876.202416 616.260595 
L 879.245975 616.381042 
L 882.289535 615.647798 
L 885.333094 613.58207 
L 888.376654 614.762843 
L 891.420213 615.000477 
L 894.463772 616.887714 
L 897.507332 616.430625 
L 900.550891 615.643873 
L 903.59445 616.469419 
L 906.63801 616.363314 
L 909.681569 616.959488 
L 912.725128 617.944122 
L 915.768688 617.508466 
L 918.812247 615.705084 
L 921.855806 614.563511 
L 924.899366 615.039065 
L 927.942925 615.15594 
L 930.986485 615.672843 
L 934.030044 615.591409 
L 937.073603 616.637461 
L 940.117163 616.915685 
L 943.160722 616.730628 
L 946.204281 616.670281 
L 949.247841 617.546116 
L 952.2914 617.581258 
L 955.334959 616.961677 
L 958.378519 615.852538 
L 964.465637 616.156372 
L 967.509197 614.372647 
L 970.552756 617.683552 
L 973.596316 612.99916 
L 979.683434 612.571121 
L 982.726994 614.644319 
L 985.770553 613.803174 
L 988.814112 613.852598 
L 988.814112 613.852598 
" clip-path="url(#pb0de2fca40)" style="fill: none; stroke: #ff7f0e; stroke-width: 1.5; stroke-linecap: square"/>
   </g>
   <g id="line2d_50">
    <path d="M 553.585124 659.116875 
L 553.585124 552.859375 
" clip-path="url(#pb0de2fca40)" style="fill: none; stroke-dasharray: 7.4,3.2; stroke-dashoffset: 0; stroke: #0000ff; stroke-width: 2"/>
   </g>
   <g id="patch_19">
    <path d="M 71.6375 659.116875 
L 71.6375 552.859375 
" style="fill: none; stroke: #000000; stroke-width: 0.8; stroke-linejoin: miter; stroke-linecap: square"/>
   </g>
   <g id="patch_20">
    <path d="M 1032.489189 659.116875 
L 1032.489189 552.859375 
" style="fill: none; stroke: #000000; stroke-width: 0.8; stroke-linejoin: miter; stroke-linecap: square"/>
   </g>
   <g id="patch_21">
    <path d="M 71.6375 659.116875 
L 1032.489189 659.116875 
" style="fill: none; stroke: #000000; stroke-width: 0.8; stroke-linejoin: miter; stroke-linecap: square"/>
   </g>
   <g id="patch_22">
    <path d="M 71.6375 552.859375 
L 1032.489189 552.859375 
" style="fill: none; stroke: #000000; stroke-width: 0.8; stroke-linejoin: miter; stroke-linecap: square"/>
   </g>
   <g id="text_46">
    <!-- 云函数ID: 165 -->
    <g transform="translate(487.063345 546.859375) scale(0.2 -0.2)">
     <defs>
      <path id="SimSun-36" d="M 775 1800 
Q 775 1050 1037 637 
Q 1300 225 1675 225 
Q 2050 225 2250 500 
Q 2450 775 2450 1525 
Q 2450 2025 2237 2300 
Q 2025 2575 1725 2575 
Q 1450 2575 1212 2412 
Q 975 2250 775 1800 
z
M 1750 2825 
Q 2350 2825 2612 2425 
Q 2875 2025 2875 1525 
Q 2875 775 2512 412 
Q 2150 50 1675 50 
Q 1000 50 650 562 
Q 300 1075 300 2050 
Q 300 3200 725 3812 
Q 1150 4425 1875 4425 
Q 2225 4425 2437 4225 
Q 2650 4025 2650 3875 
Q 2650 3725 2587 3650 
Q 2525 3575 2375 3575 
Q 2250 3575 2187 3637 
Q 2125 3700 2125 3825 
Q 2125 3875 2150 3925 
Q 2150 3975 2150 4025 
Q 2150 4125 2075 4187 
Q 2000 4250 1800 4250 
Q 1375 4250 1075 3862 
Q 775 3475 775 2175 
Q 925 2500 1187 2662 
Q 1450 2825 1750 2825 
z
" transform="scale(0.015625)"/>
     </defs>
     <use xlink:href="#SimSun-4e91"/>
     <use xlink:href="#SimSun-51fd" x="100"/>
     <use xlink:href="#SimSun-6570" x="200"/>
     <use xlink:href="#SimSun-49" x="300"/>
     <use xlink:href="#SimSun-44" x="350"/>
     <use xlink:href="#SimSun-3a" x="400"/>
     <use xlink:href="#SimSun-20" x="450"/>
     <use xlink:href="#SimSun-31" x="500"/>
     <use xlink:href="#SimSun-36" x="550"/>
     <use xlink:href="#SimSun-35" x="600"/>
    </g>
   </g>
  </g>
 </g>
 <defs>
  <clipPath id="pf8bcaf1d10">
   <rect x="71.6375" y="29.059375" width="960.851689" height="106.2575"/>
  </clipPath>
  <clipPath id="p3fc04002a0">
   <rect x="71.6375" y="203.659375" width="960.851689" height="106.2575"/>
  </clipPath>
  <clipPath id="p95b36e1a10">
   <rect x="71.6375" y="378.259375" width="960.851689" height="106.2575"/>
  </clipPath>
  <clipPath id="pb0de2fca40">
   <rect x="71.6375" y="552.859375" width="960.851689" height="106.2575"/>
  </clipPath>
 </defs>
</svg>
