<?xml version="1.0" encoding="utf-8" standalone="no"?>
<!DOCTYPE svg PUBLIC "-//W3C//DTD SVG 1.1//EN"
  "http://www.w3.org/Graphics/SVG/1.1/DTD/svg11.dtd">
<svg xmlns:xlink="http://www.w3.org/1999/xlink" width="1050.648253pt" height="691.4825pt" viewBox="0 0 1050.648253 691.4825" xmlns="http://www.w3.org/2000/svg" version="1.1">
 <metadata>
  <rdf:RDF xmlns:dc="http://purl.org/dc/elements/1.1/" xmlns:cc="http://creativecommons.org/ns#" xmlns:rdf="http://www.w3.org/1999/02/22-rdf-syntax-ns#">
   <cc:Work>
    <dc:type rdf:resource="http://purl.org/dc/dcmitype/StillImage"/>
    <dc:date>2024-02-24T23:31:09.638620</dc:date>
    <dc:format>image/svg+xml</dc:format>
    <dc:creator>
     <cc:Agent>
      <dc:title>Matplotlib v3.7.4, https://matplotlib.org/</dc:title>
     </cc:Agent>
    </dc:creator>
   </cc:Work>
  </rdf:RDF>
 </metadata>
 <defs>
  <style type="text/css">*{stroke-linejoin: round; stroke-linecap: butt}</style>
 </defs>
 <g id="figure_1">
  <g id="patch_1">
   <path d="M 0 691.4825 
L 1050.648253 691.4825 
L 1050.648253 0 
L 0 0 
z
" style="fill: #ffffff"/>
  </g>
  <g id="axes_1">
   <g id="patch_2">
    <path d="M 61.6375 193.516875 
L 1031.954534 193.516875 
L 1031.954534 29.059375 
L 61.6375 29.059375 
z
" style="fill: #ffffff"/>
   </g>
   <g id="matplotlib.axis_1">
    <g id="xtick_1">
     <g id="line2d_1">
      <defs>
       <path id="m8ecb95d8c3" d="M 0 0 
L 0 3.5 
" style="stroke: #000000; stroke-width: 0.8"/>
      </defs>
      <g>
       <use xlink:href="#m8ecb95d8c3" x="105.74282" y="193.516875" style="stroke: #000000; stroke-width: 0.8"/>
      </g>
     </g>
     <g id="text_1">
      <!-- 0 -->
      <g transform="translate(100.74282 214.404375) scale(0.2 -0.2)">
       <defs>
        <path id="TimesNewRomanPSMT-30" d="M 231 2094 
Q 231 2819 450 3342 
Q 669 3866 1031 4122 
Q 1313 4325 1613 4325 
Q 2100 4325 2488 3828 
Q 2972 3213 2972 2159 
Q 2972 1422 2759 906 
Q 2547 391 2217 158 
Q 1888 -75 1581 -75 
Q 975 -75 572 641 
Q 231 1244 231 2094 
z
M 844 2016 
Q 844 1141 1059 588 
Q 1238 122 1591 122 
Q 1759 122 1940 273 
Q 2122 425 2216 781 
Q 2359 1319 2359 2297 
Q 2359 3022 2209 3506 
Q 2097 3866 1919 4016 
Q 1791 4119 1609 4119 
Q 1397 4119 1231 3928 
Q 1006 3669 925 3112 
Q 844 2556 844 2016 
z
" transform="scale(0.015625)"/>
       </defs>
       <use xlink:href="#TimesNewRomanPSMT-30"/>
      </g>
     </g>
    </g>
    <g id="xtick_2">
     <g id="line2d_2">
      <g>
       <use xlink:href="#m8ecb95d8c3" x="290.283906" y="193.516875" style="stroke: #000000; stroke-width: 0.8"/>
      </g>
     </g>
     <g id="text_2">
      <!-- 50 -->
      <g transform="translate(280.283906 214.404375) scale(0.2 -0.2)">
       <defs>
        <path id="TimesNewRomanPSMT-35" d="M 2778 4238 
L 2534 3706 
L 1259 3706 
L 981 3138 
Q 1809 3016 2294 2522 
Q 2709 2097 2709 1522 
Q 2709 1188 2573 903 
Q 2438 619 2231 419 
Q 2025 219 1772 97 
Q 1413 -75 1034 -75 
Q 653 -75 479 54 
Q 306 184 306 341 
Q 306 428 378 495 
Q 450 563 559 563 
Q 641 563 702 538 
Q 763 513 909 409 
Q 1144 247 1384 247 
Q 1750 247 2026 523 
Q 2303 800 2303 1197 
Q 2303 1581 2056 1914 
Q 1809 2247 1375 2428 
Q 1034 2569 447 2591 
L 1259 4238 
L 2778 4238 
z
" transform="scale(0.015625)"/>
       </defs>
       <use xlink:href="#TimesNewRomanPSMT-35"/>
       <use xlink:href="#TimesNewRomanPSMT-30" x="50"/>
      </g>
     </g>
    </g>
    <g id="xtick_3">
     <g id="line2d_3">
      <g>
       <use xlink:href="#m8ecb95d8c3" x="474.824993" y="193.516875" style="stroke: #000000; stroke-width: 0.8"/>
      </g>
     </g>
     <g id="text_3">
      <!-- 100 -->
      <g transform="translate(459.824993 214.404375) scale(0.2 -0.2)">
       <defs>
        <path id="TimesNewRomanPSMT-31" d="M 750 3822 
L 1781 4325 
L 1884 4325 
L 1884 747 
Q 1884 391 1914 303 
Q 1944 216 2037 169 
Q 2131 122 2419 116 
L 2419 0 
L 825 0 
L 825 116 
Q 1125 122 1212 167 
Q 1300 213 1334 289 
Q 1369 366 1369 747 
L 1369 3034 
Q 1369 3497 1338 3628 
Q 1316 3728 1258 3775 
Q 1200 3822 1119 3822 
Q 1003 3822 797 3725 
L 750 3822 
z
" transform="scale(0.015625)"/>
       </defs>
       <use xlink:href="#TimesNewRomanPSMT-31"/>
       <use xlink:href="#TimesNewRomanPSMT-30" x="50"/>
       <use xlink:href="#TimesNewRomanPSMT-30" x="100"/>
      </g>
     </g>
    </g>
    <g id="xtick_4">
     <g id="line2d_4">
      <g>
       <use xlink:href="#m8ecb95d8c3" x="659.36608" y="193.516875" style="stroke: #000000; stroke-width: 0.8"/>
      </g>
     </g>
     <g id="text_4">
      <!-- 150 -->
      <g transform="translate(644.36608 214.404375) scale(0.2 -0.2)">
       <use xlink:href="#TimesNewRomanPSMT-31"/>
       <use xlink:href="#TimesNewRomanPSMT-35" x="50"/>
       <use xlink:href="#TimesNewRomanPSMT-30" x="100"/>
      </g>
     </g>
    </g>
    <g id="xtick_5">
     <g id="line2d_5">
      <g>
       <use xlink:href="#m8ecb95d8c3" x="843.907167" y="193.516875" style="stroke: #000000; stroke-width: 0.8"/>
      </g>
     </g>
     <g id="text_5">
      <!-- 200 -->
      <g transform="translate(828.907167 214.404375) scale(0.2 -0.2)">
       <defs>
        <path id="TimesNewRomanPSMT-32" d="M 2934 816 
L 2638 0 
L 138 0 
L 138 116 
Q 1241 1122 1691 1759 
Q 2141 2397 2141 2925 
Q 2141 3328 1894 3587 
Q 1647 3847 1303 3847 
Q 991 3847 742 3664 
Q 494 3481 375 3128 
L 259 3128 
Q 338 3706 661 4015 
Q 984 4325 1469 4325 
Q 1984 4325 2329 3994 
Q 2675 3663 2675 3213 
Q 2675 2891 2525 2569 
Q 2294 2063 1775 1497 
Q 997 647 803 472 
L 1909 472 
Q 2247 472 2383 497 
Q 2519 522 2628 598 
Q 2738 675 2819 816 
L 2934 816 
z
" transform="scale(0.015625)"/>
       </defs>
       <use xlink:href="#TimesNewRomanPSMT-32"/>
       <use xlink:href="#TimesNewRomanPSMT-30" x="50"/>
       <use xlink:href="#TimesNewRomanPSMT-30" x="100"/>
      </g>
     </g>
    </g>
    <g id="xtick_6">
     <g id="line2d_6">
      <g>
       <use xlink:href="#m8ecb95d8c3" x="1028.448253" y="193.516875" style="stroke: #000000; stroke-width: 0.8"/>
      </g>
     </g>
     <g id="text_6">
      <!-- 250 -->
      <g transform="translate(1013.448253 214.404375) scale(0.2 -0.2)">
       <use xlink:href="#TimesNewRomanPSMT-32"/>
       <use xlink:href="#TimesNewRomanPSMT-35" x="50"/>
       <use xlink:href="#TimesNewRomanPSMT-30" x="100"/>
      </g>
     </g>
    </g>
   </g>
   <g id="matplotlib.axis_2">
    <g id="ytick_1">
     <g id="line2d_7">
      <defs>
       <path id="m20f7cf2663" d="M 0 0 
L -3.5 0 
" style="stroke: #000000; stroke-width: 0.8"/>
      </defs>
      <g>
       <use xlink:href="#m20f7cf2663" x="61.6375" y="191.594733" style="stroke: #000000; stroke-width: 0.8"/>
      </g>
     </g>
     <g id="text_7">
      <!-- 0.0 -->
      <g transform="translate(29.6375 198.538483) scale(0.2 -0.2)">
       <defs>
        <path id="TimesNewRomanPSMT-2e" d="M 800 606 
Q 947 606 1047 504 
Q 1147 403 1147 259 
Q 1147 116 1045 14 
Q 944 -88 800 -88 
Q 656 -88 554 14 
Q 453 116 453 259 
Q 453 406 554 506 
Q 656 606 800 606 
z
" transform="scale(0.015625)"/>
       </defs>
       <use xlink:href="#TimesNewRomanPSMT-30"/>
       <use xlink:href="#TimesNewRomanPSMT-2e" x="50"/>
       <use xlink:href="#TimesNewRomanPSMT-30" x="75"/>
      </g>
     </g>
    </g>
    <g id="ytick_2">
     <g id="line2d_8">
      <g>
       <use xlink:href="#m20f7cf2663" x="61.6375" y="140.46031" style="stroke: #000000; stroke-width: 0.8"/>
      </g>
     </g>
     <g id="text_8">
      <!-- 1.0 -->
      <g transform="translate(29.6375 147.40406) scale(0.2 -0.2)">
       <use xlink:href="#TimesNewRomanPSMT-31"/>
       <use xlink:href="#TimesNewRomanPSMT-2e" x="50"/>
       <use xlink:href="#TimesNewRomanPSMT-30" x="75"/>
      </g>
     </g>
    </g>
    <g id="ytick_3">
     <g id="line2d_9">
      <g>
       <use xlink:href="#m20f7cf2663" x="61.6375" y="89.325888" style="stroke: #000000; stroke-width: 0.8"/>
      </g>
     </g>
     <g id="text_9">
      <!-- 2.0 -->
      <g transform="translate(29.6375 96.269638) scale(0.2 -0.2)">
       <use xlink:href="#TimesNewRomanPSMT-32"/>
       <use xlink:href="#TimesNewRomanPSMT-2e" x="50"/>
       <use xlink:href="#TimesNewRomanPSMT-30" x="75"/>
      </g>
     </g>
    </g>
    <g id="ytick_4">
     <g id="line2d_10">
      <g>
       <use xlink:href="#m20f7cf2663" x="61.6375" y="38.191466" style="stroke: #000000; stroke-width: 0.8"/>
      </g>
     </g>
     <g id="text_10">
      <!-- 3.0 -->
      <g transform="translate(29.6375 45.135216) scale(0.2 -0.2)">
       <defs>
        <path id="TimesNewRomanPSMT-33" d="M 325 3431 
Q 506 3859 782 4092 
Q 1059 4325 1472 4325 
Q 1981 4325 2253 3994 
Q 2459 3747 2459 3466 
Q 2459 3003 1878 2509 
Q 2269 2356 2469 2072 
Q 2669 1788 2669 1403 
Q 2669 853 2319 450 
Q 1863 -75 997 -75 
Q 569 -75 414 31 
Q 259 138 259 259 
Q 259 350 332 419 
Q 406 488 509 488 
Q 588 488 669 463 
Q 722 447 909 348 
Q 1097 250 1169 231 
Q 1284 197 1416 197 
Q 1734 197 1970 444 
Q 2206 691 2206 1028 
Q 2206 1275 2097 1509 
Q 2016 1684 1919 1775 
Q 1784 1900 1550 2001 
Q 1316 2103 1072 2103 
L 972 2103 
L 972 2197 
Q 1219 2228 1467 2375 
Q 1716 2522 1828 2728 
Q 1941 2934 1941 3181 
Q 1941 3503 1739 3701 
Q 1538 3900 1238 3900 
Q 753 3900 428 3381 
L 325 3431 
z
" transform="scale(0.015625)"/>
       </defs>
       <use xlink:href="#TimesNewRomanPSMT-33"/>
       <use xlink:href="#TimesNewRomanPSMT-2e" x="50"/>
       <use xlink:href="#TimesNewRomanPSMT-30" x="75"/>
      </g>
     </g>
    </g>
    <g id="text_11">
     <!-- CPU使用率 -->
     <g transform="translate(23.059375 156.288125) rotate(-90) scale(0.2 -0.2)">
      <defs>
       <path id="SimSun-43" d="M 1725 50 
Q 1025 50 612 575 
Q 200 1100 200 2225 
Q 200 3175 637 3800 
Q 1075 4425 1825 4425 
Q 2000 4425 2175 4375 
Q 2350 4300 2475 4300 
Q 2575 4300 2637 4325 
Q 2700 4350 2750 4425 
L 2975 3325 
L 2825 3275 
Q 2675 3750 2425 4000 
Q 2175 4250 1775 4250 
Q 1250 4250 962 3675 
Q 675 3100 675 2250 
Q 675 1325 925 800 
Q 1175 275 1750 275 
Q 2150 275 2437 562 
Q 2725 850 2825 1325 
L 2975 1250 
Q 2850 725 2512 387 
Q 2175 50 1725 50 
z
" transform="scale(0.015625)"/>
       <path id="SimSun-50" d="M 950 2100 
L 950 450 
Q 950 350 1012 300 
Q 1075 250 1175 250 
L 1350 250 
L 1350 100 
L 150 100 
L 150 250 
L 325 250 
Q 450 250 500 300 
Q 550 350 550 450 
L 550 4025 
Q 550 4125 500 4175 
Q 450 4225 325 4225 
L 175 4225 
L 175 4375 
L 1650 4375 
Q 2275 4375 2612 4062 
Q 2950 3750 2950 3275 
Q 2950 2700 2587 2400 
Q 2225 2100 1725 2100 
L 950 2100 
z
M 1575 2250 
Q 1950 2250 2237 2475 
Q 2525 2700 2525 3250 
Q 2525 3750 2287 3987 
Q 2050 4225 1525 4225 
L 1175 4225 
Q 1075 4225 1012 4175 
Q 950 4125 950 4025 
L 950 2250 
L 1575 2250 
z
" transform="scale(0.015625)"/>
       <path id="SimSun-55" d="M 1625 250 
Q 2000 250 2262 500 
Q 2525 750 2525 1125 
L 2525 4025 
Q 2525 4125 2475 4175 
Q 2425 4225 2300 4225 
L 2150 4225 
L 2150 4375 
L 3050 4375 
L 3050 4225 
L 2900 4225 
Q 2800 4225 2737 4175 
Q 2675 4125 2675 4025 
L 2675 1125 
Q 2675 625 2337 337 
Q 2000 50 1575 50 
Q 1125 50 787 300 
Q 450 550 450 1100 
L 450 4025 
Q 450 4125 400 4175 
Q 350 4225 225 4225 
L 100 4225 
L 100 4375 
L 1200 4375 
L 1200 4225 
L 1075 4225 
Q 975 4225 912 4175 
Q 850 4125 850 4025 
L 850 1100 
Q 850 600 1062 425 
Q 1275 250 1625 250 
z
" transform="scale(0.015625)"/>
       <path id="SimSun-4f7f" d="M 2875 3150 
L 2875 2100 
L 3825 2100 
Q 3850 2825 3850 3150 
L 2875 3150 
z
M 4175 3150 
Q 4175 2800 4150 2100 
L 5150 2100 
L 5150 3150 
L 4175 3150 
z
M 5475 3100 
L 5475 2425 
Q 5475 2100 5500 1800 
L 5150 1675 
L 5150 1950 
L 4150 1950 
Q 4125 1175 3875 600 
Q 4275 275 4875 75 
Q 5475 -125 6075 -150 
L 6075 -250 
Q 5700 -300 5600 -575 
Q 4525 -325 3725 350 
Q 3425 25 2925 -225 
Q 2425 -475 1875 -650 
L 1825 -550 
Q 2400 -325 2850 -25 
Q 3300 275 3500 575 
Q 3200 925 2825 1650 
L 2900 1700 
Q 3325 1100 3625 825 
Q 3800 1300 3825 1950 
L 2875 1950 
L 2875 1825 
L 2525 1675 
Q 2550 2075 2550 2562 
Q 2550 3050 2525 3500 
L 2875 3300 
L 3850 3300 
L 3850 4025 
L 2975 4025 
Q 2650 4025 2375 3950 
L 2150 4175 
L 3850 4175 
L 3850 4525 
Q 3850 4775 3825 5225 
L 4350 5000 
L 4175 4825 
L 4175 4175 
L 5300 4175 
L 5600 4475 
L 6050 4025 
L 4175 4025 
L 4175 3300 
L 5100 3300 
L 5275 3525 
L 5650 3225 
L 5475 3100 
z
M 1675 3175 
L 1675 -450 
L 1325 -625 
Q 1350 -75 1350 350 
L 1350 3200 
Q 900 2475 350 1900 
L 275 1950 
Q 700 2525 1112 3400 
Q 1525 4275 1800 5250 
L 2325 4925 
L 2125 4800 
Q 1725 3925 1500 3525 
L 1875 3325 
L 1675 3175 
z
" transform="scale(0.015625)"/>
       <path id="SimSun-7528" d="M 3400 3150 
L 3400 1825 
L 5075 1825 
L 5075 3150 
L 3400 3150 
z
M 4075 100 
Q 4725 50 4900 62 
Q 5075 75 5075 400 
L 5075 1675 
L 3400 1675 
Q 3400 75 3425 -225 
L 3050 -400 
Q 3075 1025 3075 1675 
L 1425 1675 
Q 1250 350 375 -600 
L 300 -550 
Q 775 225 950 1025 
Q 1125 1825 1125 3225 
Q 1125 4625 1100 5075 
L 1475 4825 
L 5050 4825 
L 5225 5100 
L 5625 4800 
L 5425 4600 
L 5425 225 
Q 5450 -400 4875 -575 
Q 4825 -150 4075 -25 
L 4075 100 
z
M 1475 4675 
L 1475 3300 
L 3075 3300 
L 3075 4675 
L 1475 4675 
z
M 3400 4675 
L 3400 3300 
L 5075 3300 
L 5075 4675 
L 3400 4675 
z
M 1475 3150 
Q 1450 2100 1425 1825 
L 3075 1825 
L 3075 3150 
L 1475 3150 
z
" transform="scale(0.015625)"/>
       <path id="SimSun-7387" d="M 875 3725 
L 925 3800 
Q 1375 3650 1550 3525 
Q 1725 3400 1725 3250 
Q 1725 3175 1662 3025 
Q 1600 2875 1550 2875 
Q 1500 2875 1425 3050 
Q 1275 3325 875 3725 
z
M 550 1850 
Q 875 1925 2000 2575 
L 2050 2500 
Q 1675 2225 1337 1937 
Q 1000 1650 875 1425 
L 550 1850 
z
M 5200 3450 
Q 4800 3150 4275 2800 
L 4225 2875 
Q 4775 3400 5050 3925 
L 5450 3525 
L 5200 3450 
z
M 4325 2500 
L 4350 2575 
Q 5225 2350 5375 2212 
Q 5525 2075 5525 1900 
Q 5525 1775 5487 1662 
Q 5450 1550 5400 1550 
Q 5325 1550 5200 1800 
Q 4975 2150 4325 2500 
z
M 3150 3900 
Q 2500 3300 2300 3150 
Q 2800 3150 3400 3175 
Q 3700 3500 3850 3825 
L 4250 3450 
Q 4050 3400 3450 2825 
Q 2850 2250 2475 1950 
Q 3150 1975 3850 2000 
Q 3750 2175 3550 2450 
L 3600 2500 
Q 4050 2250 4200 2100 
Q 4350 1950 4350 1850 
Q 4350 1775 4250 1625 
Q 4150 1475 4100 1475 
Q 4075 1475 4050 1550 
Q 4000 1700 3900 1900 
Q 3650 1875 3075 1800 
L 3500 1550 
L 3325 1425 
L 3325 975 
L 5325 975 
L 5650 1300 
L 6100 825 
L 3325 825 
Q 3325 -275 3350 -525 
L 2975 -650 
Q 3000 0 3000 825 
L 1125 825 
Q 800 825 525 750 
L 300 975 
L 3000 975 
L 3000 1775 
Q 2450 1700 2200 1525 
L 1950 1950 
Q 2275 1950 2675 2350 
Q 3075 2750 3325 3050 
Q 2400 2950 2150 2775 
L 1950 3175 
Q 2150 3150 2475 3575 
Q 2800 4000 2900 4225 
L 1450 4225 
Q 1125 4225 850 4150 
L 625 4375 
L 3100 4375 
Q 3050 4800 2675 5200 
L 2725 5250 
Q 3225 5050 3337 4912 
Q 3450 4775 3450 4700 
Q 3450 4550 3250 4375 
L 5025 4375 
L 5350 4675 
L 5775 4225 
L 3050 4225 
L 3375 3950 
L 3150 3900 
z
" transform="scale(0.015625)"/>
      </defs>
      <use xlink:href="#SimSun-43"/>
      <use xlink:href="#SimSun-50" x="50"/>
      <use xlink:href="#SimSun-55" x="100"/>
      <use xlink:href="#SimSun-4f7f" x="150"/>
      <use xlink:href="#SimSun-7528" x="250"/>
      <use xlink:href="#SimSun-7387" x="350"/>
     </g>
    </g>
   </g>
   <g id="line2d_11">
    <path d="M 105.74282 176.724841 
L 109.433641 176.827111 
L 113.124463 174.587421 
L 116.815285 176.172592 
L 120.506107 175.374894 
L 124.196928 177.553222 
L 127.88775 177.041875 
L 131.578572 178.044111 
L 135.269394 177.21573 
L 138.960215 181.705335 
L 142.651037 182.564395 
L 146.341859 184.405229 
L 150.032681 177.911161 
L 153.723502 178.852036 
L 157.414324 170.793248 
L 161.105146 177.952066 
L 164.795967 180.774692 
L 172.177611 181.807602 
L 175.868433 181.234899 
L 179.559254 180.058804 
L 183.250076 181.347395 
L 186.940898 179.925854 
L 190.63172 176.489623 
L 194.322541 178.954304 
L 198.013363 184.885899 
L 201.704185 182.789388 
L 205.395007 184.507503 
L 209.085828 185.714274 
L 212.77665 186.041534 
L 216.467472 185.969946 
L 220.158294 185.509739 
L 223.849115 178.90317 
L 227.539937 184.01661 
L 231.230759 179.179293 
L 234.92158 175.456707 
L 238.612402 177.911161 
L 242.303224 177.502085 
L 245.994046 179.077025 
L 249.684867 177.236188 
L 253.375689 173.94313 
L 257.066511 175.068088 
L 260.757333 174.86355 
L 264.448154 174.822642 
L 268.138976 175.333985 
L 271.829798 173.554508 
L 275.52062 172.715904 
L 279.211441 172.225015 
L 282.902263 171.01824 
L 286.593085 170.834156 
L 290.283906 169.095584 
L 293.974728 157.569887 
L 297.66555 157.416482 
L 301.356372 170.997786 
L 305.047193 169.791015 
L 308.738015 169.954645 
L 312.428837 158.684619 
L 316.119659 154.48137 
L 319.81048 154.072294 
L 323.501302 155.667687 
L 327.192124 145.972601 
L 330.882946 134.59008 
L 334.573767 137.228615 
L 338.264589 138.374027 
L 341.955411 140.828478 
L 345.646232 141.482998 
L 349.337054 146.228273 
L 353.027876 147.087331 
L 356.718698 143.242024 
L 360.409519 149.255431 
L 364.100341 144.510158 
L 367.791163 145.737384 
L 371.481985 137.555875 
L 375.172806 125.63133 
L 378.863628 111.671632 
L 382.55445 104.154869 
L 386.245272 67.675577 
L 389.936093 101.086806 
L 393.626915 109.319449 
L 397.317737 114.330619 
L 401.008559 98.530081 
L 404.69938 102.365165 
L 408.390202 91.780345 
L 412.081024 102.416302 
L 415.771845 88.456605 
L 419.462667 71.469747 
L 423.153489 63.288247 
L 426.844311 69.8539 
L 430.535132 78.99674 
L 434.225954 78.137673 
L 437.916776 81.031886 
L 441.607598 88.415703 
L 445.298419 61.631485 
L 448.989241 83.414755 
L 452.680063 75.683228 
L 456.370885 76.112755 
L 460.061706 79.364908 
L 463.752528 72.799243 
L 467.44335 74.087837 
L 471.134171 84.048818 
L 474.824993 93.109835 
L 478.515815 88.456605 
L 482.206637 76.184343 
L 485.897458 69.424372 
L 489.58828 67.828982 
L 493.279102 69.424372 
L 496.969924 73.535579 
L 500.660745 72.737884 
L 504.351567 149.500877 
L 508.042389 69.056204 
L 511.733211 68.19715 
L 515.424032 78.567212 
L 519.114854 86.666896 
L 522.805676 81.757993 
L 526.496497 85.501032 
L 530.187319 107.580876 
L 533.878141 104.103738 
L 537.568963 102.109494 
L 541.259784 101.59815 
L 544.950606 105.944578 
L 548.641428 103.541257 
L 552.33225 96.58698 
L 556.023071 76.91045 
L 559.713893 80.285322 
L 563.404715 93.989347 
L 567.095537 104.206005 
L 570.786358 101.700417 
L 574.47718 102.365165 
L 578.168002 95.564286 
L 581.858824 113.154527 
L 585.549645 114.58629 
L 589.240467 113.205664 
L 592.931289 101.24021 
L 596.62211 82.647734 
L 600.312932 91.882607 
L 604.003754 106.916128 
L 607.694576 101.24021 
L 611.385397 104.512814 
L 615.076219 111.109152 
L 618.767041 109.779656 
L 622.457863 109.01264 
L 626.148684 110.802349 
L 629.839506 113.665871 
L 633.530328 111.927304 
L 637.22115 100.984539 
L 640.911971 86.850986 
L 644.602793 89.980408 
L 648.293615 88.814544 
L 651.984436 90.164492 
L 655.675258 88.753185 
L 659.36608 82.801138 
L 663.056902 80.162603 
L 666.747723 74.455993 
L 670.438545 79.119458 
L 674.129367 69.178923 
L 677.820189 72.246985 
L 681.51101 73.903747 
L 685.201832 69.97663 
L 688.892654 80.83758 
L 692.583476 88.998634 
L 696.274297 103.531035 
L 699.965119 106.813861 
L 703.655941 101.904959 
L 707.346762 95.093851 
L 711.037584 102.252669 
L 714.728406 113.665871 
L 718.419228 108.603564 
L 722.110049 110.393273 
L 725.800871 103.899203 
L 729.491693 105.024158 
L 733.182515 85.93056 
L 736.873336 94.899538 
L 740.564158 97.149454 
L 744.25498 100.012982 
L 747.945802 98.42782 
L 751.636623 104.563945 
L 755.327445 100.575462 
L 759.018267 104.154869 
L 762.709088 105.688906 
L 766.39991 102.007226 
L 770.090732 107.632013 
L 773.781554 104.308273 
L 777.472375 105.740037 
L 781.163197 105.177556 
L 784.854019 85.981703 
L 788.544841 83.967001 
L 792.235662 74.517365 
L 795.926484 80.83758 
L 799.617306 65.313165 
L 803.308128 63.196202 
L 806.998949 36.534716 
L 810.689771 39.899358 
L 814.380593 60.015638 
L 818.071415 54.503347 
L 821.762236 73.965107 
L 825.453058 61.324677 
L 829.14388 54.390857 
L 832.834701 72.799243 
L 836.525523 71.756099 
L 840.216345 77.708146 
L 843.907167 81.757993 
L 847.597988 79.610345 
L 851.28881 79.426267 
L 854.979632 84.457888 
L 858.670454 75.376419 
L 862.361275 71.756099 
L 866.052097 71.940189 
L 869.742919 67.143777 
L 873.433741 57.939577 
L 877.124562 56.937347 
L 880.815384 78.321763 
L 884.506206 72.615165 
L 888.197027 78.505853 
L 891.887849 83.292025 
L 895.578671 79.671704 
L 899.269493 84.948787 
L 902.960314 65.251806 
L 906.651136 86.625994 
L 910.341958 81.942084 
L 914.03278 84.68288 
L 917.723601 86.257826 
L 921.414423 87.382787 
L 925.105245 95.615423 
L 932.486888 93.876851 
L 936.17771 89.274757 
L 939.868532 89.019079 
L 943.559353 99.245966 
L 947.250175 100.984539 
L 950.940997 110.22964 
L 954.631819 110.5569 
L 958.32264 110.311457 
L 962.013462 109.411488 
L 965.704284 114.688564 
L 969.395106 115.956695 
L 973.085927 112.684091 
L 980.467571 127.247177 
L 984.158393 125.529056 
L 987.849214 119.433833 
L 987.849214 119.433833 
" clip-path="url(#pabf20a70d1)" style="fill: none; stroke: #1f77b4; stroke-width: 1.5; stroke-linecap: square"/>
   </g>
   <g id="line2d_12">
    <path d="M 637.22115 111.644513 
L 640.911971 111.319271 
L 644.602793 111.560087 
L 648.293615 111.506244 
L 651.984436 111.657625 
L 655.675258 113.571808 
L 659.36608 110.764233 
L 663.056902 110.93351 
L 666.747723 110.234127 
L 670.438545 110.397345 
L 674.129367 111.268439 
L 677.820189 110.362453 
L 681.51101 109.321326 
L 685.201832 110.087269 
L 688.892654 109.70007 
L 692.583476 108.550921 
L 696.274297 109.58402 
L 699.965119 109.057322 
L 703.655941 108.864521 
L 707.346762 108.151196 
L 711.037584 108.836883 
L 714.728406 108.174524 
L 718.419228 108.421735 
L 722.110049 107.647935 
L 725.800871 107.432215 
L 729.491693 106.702937 
L 733.182515 108.28941 
L 736.873336 108.799498 
L 740.564158 107.213775 
L 744.25498 107.164912 
L 747.945802 106.213611 
L 751.636623 106.520536 
L 755.327445 104.906523 
L 759.018267 106.872337 
L 762.709088 105.688168 
L 766.39991 105.856757 
L 770.090732 104.998562 
L 773.781554 104.417995 
L 777.472375 105.756294 
L 781.163197 105.876647 
L 784.854019 105.101951 
L 788.544841 104.05507 
L 792.235662 102.868542 
L 795.926484 102.766939 
L 799.617306 103.319532 
L 803.308128 103.233345 
L 806.998949 103.005762 
L 810.689771 102.151798 
L 814.380593 101.1137 
L 818.071415 102.221917 
L 821.762236 100.928702 
L 825.453058 101.437236 
L 829.14388 102.484105 
L 832.834701 101.347397 
L 836.525523 100.582052 
L 840.216345 102.04291 
L 843.907167 99.802351 
L 847.597988 100.463247 
L 851.28881 101.016285 
L 854.979632 101.511372 
L 858.670454 99.773982 
L 862.361275 101.638418 
L 866.052097 100.757291 
L 869.742919 102.194114 
L 873.433741 101.655474 
L 877.124562 101.856662 
L 880.815384 102.434218 
L 884.506206 102.223855 
L 888.197027 103.4018 
L 891.887849 103.2433 
L 895.578671 105.801054 
L 899.269493 103.952875 
L 902.960314 105.666815 
L 906.651136 105.739043 
L 910.341958 107.015756 
L 914.03278 107.175921 
L 917.723601 108.746301 
L 921.414423 108.798565 
L 925.105245 107.930611 
L 928.796067 109.978863 
L 932.486888 111.237314 
L 936.17771 110.444568 
L 939.868532 113.056447 
L 943.559353 112.75571 
L 947.250175 114.003584 
L 950.940997 115.830483 
L 954.631819 116.512458 
L 958.32264 115.800816 
L 962.013462 118.006032 
L 965.704284 118.909213 
L 969.395106 121.353838 
L 973.085927 121.600214 
L 976.776749 123.414964 
L 980.467571 123.681249 
L 984.158393 124.651282 
L 987.849214 125.294085 
" clip-path="url(#pabf20a70d1)" style="fill: none; stroke: #ff7f0e; stroke-width: 1.5; stroke-linecap: square"/>
   </g>
   <g id="line2d_13">
    <path d="M 637.22115 193.516875 
L 637.22115 29.059375 
" clip-path="url(#pabf20a70d1)" style="fill: none; stroke-dasharray: 7.4,3.2; stroke-dashoffset: 0; stroke: #0000ff; stroke-width: 2"/>
   </g>
   <g id="patch_3">
    <path d="M 61.6375 193.516875 
L 61.6375 29.059375 
" style="fill: none; stroke: #000000; stroke-width: 0.8; stroke-linejoin: miter; stroke-linecap: square"/>
   </g>
   <g id="patch_4">
    <path d="M 1031.954534 193.516875 
L 1031.954534 29.059375 
" style="fill: none; stroke: #000000; stroke-width: 0.8; stroke-linejoin: miter; stroke-linecap: square"/>
   </g>
   <g id="patch_5">
    <path d="M 61.6375 193.516875 
L 1031.954534 193.516875 
" style="fill: none; stroke: #000000; stroke-width: 0.8; stroke-linejoin: miter; stroke-linecap: square"/>
   </g>
   <g id="patch_6">
    <path d="M 61.6375 29.059375 
L 1031.954534 29.059375 
" style="fill: none; stroke: #000000; stroke-width: 0.8; stroke-linejoin: miter; stroke-linecap: square"/>
   </g>
   <g id="text_12">
    <!-- 云函数ID: 28 -->
    <g transform="translate(486.796017 23.059375) scale(0.2 -0.2)">
     <defs>
      <path id="SimSun-4e91" d="M 1200 4450 
L 4500 4450 
L 4850 4800 
L 5350 4300 
L 1975 4300 
Q 1700 4300 1425 4225 
L 1200 4450 
z
M 1600 275 
Q 2300 300 4725 450 
Q 4425 975 3850 1700 
L 3925 1775 
Q 5200 725 5287 500 
Q 5375 275 5375 175 
Q 5375 0 5250 -162 
Q 5125 -325 5075 -325 
Q 5025 -325 4975 -200 
Q 4875 50 4775 300 
Q 1650 -25 1300 -300 
L 975 300 
Q 1225 350 1462 550 
Q 1700 750 2150 1462 
Q 2600 2175 2725 2600 
L 1250 2600 
Q 925 2600 650 2525 
L 425 2750 
L 5025 2750 
L 5450 3175 
L 6025 2600 
L 3250 2600 
Q 3000 2025 2500 1375 
Q 2000 725 1600 275 
z
" transform="scale(0.015625)"/>
      <path id="SimSun-51fd" d="M 3050 2275 
L 3050 3000 
Q 3050 3450 3025 3800 
L 3275 3625 
L 4450 4475 
L 1650 4475 
Q 1325 4475 1050 4400 
L 825 4625 
L 4450 4625 
L 4775 4875 
L 5150 4375 
Q 4875 4325 4550 4175 
Q 4225 4025 3400 3550 
L 3550 3450 
L 3375 3325 
L 3375 2400 
Q 4250 3225 4475 3600 
L 4875 3150 
L 4625 3125 
Q 3625 2425 3400 2275 
Q 4575 1675 4687 1487 
Q 4800 1300 4800 1150 
Q 4800 1025 4750 925 
Q 4700 825 4675 825 
Q 4575 825 4375 1150 
Q 4075 1600 3375 2150 
L 3375 725 
Q 3375 350 2875 150 
Q 2850 450 2200 650 
L 2200 750 
Q 2800 675 2925 700 
Q 3050 725 3050 850 
L 3050 2100 
Q 1850 1300 1625 1025 
L 1275 1400 
Q 1575 1475 2087 1725 
Q 2600 1975 3050 2275 
z
M 1700 3475 
L 1775 3550 
Q 2350 3200 2475 3025 
Q 2600 2850 2600 2775 
Q 2600 2650 2500 2525 
Q 2400 2400 2350 2400 
Q 2275 2400 2225 2575 
Q 2150 2875 1700 3475 
z
M 5150 0 
L 5150 2175 
Q 5150 2725 5125 3325 
L 5725 3050 
L 5500 2850 
L 5500 525 
Q 5500 100 5525 -400 
L 5150 -600 
L 5150 -150 
L 1250 -150 
L 1000 -375 
L 675 -50 
L 875 125 
L 875 2375 
Q 875 2800 850 3425 
L 1450 3150 
L 1225 2975 
L 1225 0 
L 5150 0 
z
" transform="scale(0.015625)"/>
      <path id="SimSun-6570" d="M 1875 1525 
Q 1675 1200 1500 900 
Q 1825 825 2275 725 
Q 2500 975 2725 1525 
L 1875 1525 
z
M 850 4900 
Q 1325 4600 1425 4450 
Q 1525 4300 1525 4225 
Q 1525 4100 1437 3975 
Q 1350 3850 1300 3850 
Q 1225 3850 1150 4100 
Q 1050 4450 775 4850 
L 850 4900 
z
M 3000 4975 
L 3450 4675 
Q 3250 4625 3100 4425 
Q 2925 4225 2525 3825 
L 2450 3875 
Q 2925 4625 3000 4975 
z
M 1875 5250 
L 2425 5000 
L 2225 4825 
L 2225 3675 
L 2850 3675 
L 3125 3950 
L 3550 3525 
L 2225 3525 
L 2225 3300 
Q 2800 3175 2937 3062 
Q 3075 2950 3075 2775 
Q 3075 2700 3050 2587 
Q 3025 2475 2975 2475 
Q 2925 2475 2800 2650 
Q 2600 2925 2225 3175 
L 2225 2400 
L 1925 2200 
L 2275 2050 
Q 2150 2000 1950 1675 
L 2725 1675 
L 2900 1900 
L 3275 1575 
L 3050 1450 
Q 2800 875 2600 650 
Q 3000 550 3137 437 
Q 3275 325 3275 150 
Q 3275 -25 3200 -25 
Q 3125 -25 3025 75 
Q 2750 275 2400 425 
Q 1525 -275 325 -500 
L 300 -425 
Q 1450 -50 2100 550 
Q 1600 725 1125 800 
Q 1225 950 1525 1525 
L 1200 1525 
Q 875 1525 600 1450 
L 375 1675 
L 1575 1675 
Q 1675 1925 1775 2275 
L 1900 2225 
L 1900 3250 
Q 1225 2475 350 2050 
L 300 2125 
Q 1225 2775 1700 3525 
L 1250 3525 
Q 925 3525 650 3450 
L 425 3675 
L 1900 3675 
Q 1900 4575 1875 5250 
z
M 3925 3525 
Q 4050 2075 4525 1100 
Q 4925 1950 5025 3525 
L 3925 3525 
z
M 4050 5250 
L 4625 4925 
Q 4425 4850 4325 4625 
Q 4225 4400 3950 3675 
L 5375 3675 
L 5675 3975 
L 6125 3525 
L 5400 3525 
Q 5250 1675 4750 775 
Q 5325 75 6100 -100 
L 6100 -200 
Q 5625 -275 5600 -500 
Q 4950 -50 4525 525 
Q 3700 -275 2550 -650 
L 2500 -575 
Q 3650 -50 4325 800 
Q 3850 1975 3825 3375 
Q 3575 2725 3100 2150 
L 3025 2200 
Q 3625 3200 4050 5250 
z
" transform="scale(0.015625)"/>
      <path id="SimSun-49" d="M 600 4225 
L 600 4375 
L 2600 4375 
L 2600 4225 
L 2025 4225 
Q 1925 4225 1862 4175 
Q 1800 4125 1800 4025 
L 1800 450 
Q 1800 350 1862 300 
Q 1925 250 2025 250 
L 2600 250 
L 2600 100 
L 600 100 
L 600 250 
L 1175 250 
Q 1300 250 1350 300 
Q 1400 350 1400 450 
L 1400 4025 
Q 1400 4125 1350 4175 
Q 1300 4225 1175 4225 
L 600 4225 
z
" transform="scale(0.015625)"/>
      <path id="SimSun-44" d="M 2500 2275 
Q 2500 3350 2175 3787 
Q 1850 4225 1275 4225 
Q 1100 4225 1012 4175 
Q 925 4125 925 4025 
L 925 450 
Q 925 350 1000 300 
Q 1075 250 1200 250 
Q 1750 250 2125 662 
Q 2500 1075 2500 2275 
z
M 525 4025 
Q 525 4125 475 4175 
Q 425 4225 300 4225 
L 150 4225 
L 150 4375 
L 1275 4375 
Q 2050 4375 2512 3875 
Q 2975 3375 2975 2325 
Q 2975 1175 2525 637 
Q 2075 100 1200 100 
L 125 100 
L 125 250 
L 300 250 
Q 425 250 475 300 
Q 525 350 525 450 
L 525 4025 
z
" transform="scale(0.015625)"/>
      <path id="SimSun-3a" d="M 1900 2725 
Q 1900 2575 1800 2475 
Q 1700 2375 1550 2375 
Q 1400 2375 1300 2475 
Q 1200 2575 1200 2725 
Q 1200 2875 1300 2975 
Q 1400 3075 1550 3075 
Q 1700 3075 1800 2975 
Q 1900 2875 1900 2725 
z
M 1900 375 
Q 1900 225 1800 125 
Q 1700 25 1550 25 
Q 1400 25 1300 125 
Q 1200 225 1200 375 
Q 1200 525 1300 625 
Q 1400 725 1550 725 
Q 1700 725 1800 625 
Q 1900 525 1900 375 
z
" transform="scale(0.015625)"/>
      <path id="SimSun-20" d="M 0 0 
Q 0 0 0 0 
z
" transform="scale(0.015625)"/>
      <path id="SimSun-32" d="M 2325 3325 
Q 2325 3775 2125 4012 
Q 1925 4250 1525 4250 
Q 1225 4250 1012 4087 
Q 800 3925 800 3675 
Q 800 3525 900 3425 
Q 975 3325 975 3225 
Q 975 3100 912 3037 
Q 850 2975 725 2975 
Q 575 2975 487 3062 
Q 400 3150 400 3350 
Q 400 3875 775 4150 
Q 1150 4425 1575 4425 
Q 2175 4425 2462 4125 
Q 2750 3825 2750 3375 
Q 2750 3075 2612 2775 
Q 2475 2475 2175 2200 
Q 1450 1500 1062 1062 
Q 675 625 600 475 
L 2075 475 
Q 2300 475 2450 650 
Q 2600 825 2650 1175 
L 2800 1175 
L 2650 100 
L 325 100 
L 325 425 
Q 450 650 737 1000 
Q 1025 1350 1500 1825 
Q 1925 2250 2125 2625 
Q 2325 3000 2325 3325 
z
" transform="scale(0.015625)"/>
      <path id="SimSun-38" d="M 625 1125 
Q 625 725 887 475 
Q 1150 225 1550 225 
Q 2025 225 2237 475 
Q 2450 725 2450 1100 
Q 2450 1425 2150 1725 
Q 1850 2025 1250 2275 
Q 950 2075 787 1775 
Q 625 1475 625 1125 
z
M 2825 1175 
Q 2825 700 2475 375 
Q 2125 50 1550 50 
Q 1025 50 650 375 
Q 275 700 275 1125 
Q 275 1550 487 1850 
Q 700 2150 1100 2375 
Q 750 2550 562 2812 
Q 375 3075 375 3400 
Q 375 3825 700 4125 
Q 1025 4425 1600 4425 
Q 2125 4425 2450 4125 
Q 2775 3825 2775 3400 
Q 2775 3100 2587 2837 
Q 2400 2575 2000 2375 
Q 2425 2125 2625 1825 
Q 2825 1525 2825 1175 
z
M 2425 3375 
Q 2425 3725 2225 3987 
Q 2025 4250 1600 4250 
Q 1125 4250 925 4000 
Q 725 3750 725 3475 
Q 725 3200 1012 2937 
Q 1300 2675 1825 2475 
Q 2125 2625 2275 2850 
Q 2425 3075 2425 3375 
z
" transform="scale(0.015625)"/>
     </defs>
     <use xlink:href="#SimSun-4e91"/>
     <use xlink:href="#SimSun-51fd" x="100"/>
     <use xlink:href="#SimSun-6570" x="200"/>
     <use xlink:href="#SimSun-49" x="300"/>
     <use xlink:href="#SimSun-44" x="350"/>
     <use xlink:href="#SimSun-3a" x="400"/>
     <use xlink:href="#SimSun-20" x="450"/>
     <use xlink:href="#SimSun-32" x="500"/>
     <use xlink:href="#SimSun-38" x="550"/>
    </g>
   </g>
   <g id="legend_1">
    <g id="patch_7">
     <path d="M 75.6375 101.934375 
L 199.6375 101.934375 
Q 203.6375 101.934375 203.6375 97.934375 
L 203.6375 43.059375 
Q 203.6375 39.059375 199.6375 39.059375 
L 75.6375 39.059375 
Q 71.6375 39.059375 71.6375 43.059375 
L 71.6375 97.934375 
Q 71.6375 101.934375 75.6375 101.934375 
z
" style="fill: #ffffff; opacity: 0.8; stroke: #cccccc; stroke-linejoin: miter"/>
    </g>
    <g id="line2d_14">
     <path d="M 79.6375 55.996875 
L 99.6375 55.996875 
L 119.6375 55.996875 
" style="fill: none; stroke: #1f77b4; stroke-width: 1.5; stroke-linecap: square"/>
    </g>
    <g id="text_13">
     <!-- 真实值 -->
     <g transform="translate(135.6375 62.996875) scale(0.2 -0.2)">
      <defs>
       <path id="SimSun-771f" d="M 2050 3450 
L 2050 2900 
L 4300 2900 
L 4300 3450 
L 2050 3450 
z
M 2050 2750 
L 2050 2225 
L 4300 2225 
L 4300 2750 
L 2050 2750 
z
M 2050 2075 
L 2050 1550 
L 4300 1550 
L 4300 2075 
L 2050 2075 
z
M 2050 1400 
L 2050 875 
L 4300 875 
L 4300 1400 
L 2050 1400 
z
M 2875 3600 
L 2925 4325 
L 1525 4325 
Q 1200 4325 925 4250 
L 700 4475 
L 2950 4475 
Q 2975 4825 2975 5275 
L 3550 5025 
L 3375 4925 
L 3300 4475 
L 5000 4475 
L 5325 4825 
L 5775 4325 
L 3275 4325 
L 3200 3600 
L 4275 3600 
L 4450 3875 
L 4850 3575 
L 4650 3375 
L 4650 875 
L 5300 875 
L 5675 1225 
L 6125 725 
L 1150 725 
Q 825 725 550 650 
L 325 875 
L 1700 875 
Q 1700 3200 1675 3775 
L 2050 3600 
L 2875 3600 
z
M 2425 725 
L 2825 350 
L 2575 300 
Q 1500 -425 800 -650 
L 775 -575 
Q 1950 125 2425 725 
z
M 3800 700 
Q 4575 375 4962 200 
Q 5350 25 5400 -112 
Q 5450 -250 5450 -325 
Q 5450 -400 5400 -525 
Q 5350 -650 5325 -650 
Q 5250 -650 5100 -450 
Q 4875 -150 3750 625 
L 3800 700 
z
" transform="scale(0.015625)"/>
       <path id="SimSun-5b9e" d="M 1950 3625 
Q 2575 3400 2700 3250 
Q 2825 3100 2825 2975 
Q 2825 2850 2750 2700 
Q 2675 2550 2625 2550 
Q 2550 2550 2450 2800 
Q 2275 3175 1900 3550 
L 1950 3625 
z
M 3575 1325 
Q 3500 1100 3425 925 
Q 4650 550 5087 325 
Q 5525 100 5512 -225 
Q 5500 -550 5400 -550 
Q 5300 -550 5075 -300 
Q 4625 175 3375 800 
Q 3025 175 2300 -150 
Q 1575 -475 425 -625 
L 425 -525 
Q 1475 -325 2200 100 
Q 2925 525 3200 1325 
L 1225 1325 
Q 900 1325 625 1250 
L 400 1475 
L 3225 1475 
Q 3325 1950 3375 2575 
Q 3425 3200 3425 3700 
L 4050 3400 
L 3850 3225 
Q 3750 2300 3625 1475 
L 5175 1475 
L 5550 1850 
L 6075 1325 
L 3575 1325 
z
M 1275 2700 
Q 1975 2425 2100 2262 
Q 2225 2100 2225 1975 
Q 2225 1850 2150 1700 
Q 2075 1550 2025 1550 
Q 1950 1550 1850 1800 
Q 1675 2175 1225 2625 
L 1275 2700 
z
M 2750 5225 
L 2825 5275 
Q 3225 5100 3425 4925 
Q 3625 4750 3625 4600 
Q 3625 4450 3512 4300 
Q 3400 4150 3325 4150 
Q 3250 4150 3200 4400 
Q 3100 4775 2750 5225 
z
M 4975 3225 
L 5350 3925 
L 1175 3925 
Q 1225 3525 1125 3300 
Q 1025 3075 787 3100 
Q 550 3125 550 3200 
Q 550 3300 700 3475 
Q 975 3825 1050 4375 
L 1150 4375 
L 1175 4075 
L 5300 4075 
L 5575 4350 
L 6050 3800 
Q 5625 3825 5050 3175 
L 4975 3225 
z
" transform="scale(0.015625)"/>
       <path id="SimSun-503c" d="M 1525 650 
Q 1525 -225 1550 -525 
L 1175 -650 
Q 1200 250 1200 550 
L 1200 3025 
Q 750 2300 325 1850 
L 250 1900 
Q 725 2625 1100 3525 
Q 1475 4425 1675 5200 
L 2200 4875 
L 1950 4725 
Q 1550 3800 1425 3475 
L 1725 3300 
L 1525 3150 
L 1525 650 
z
M 2875 3225 
L 2875 2475 
L 4800 2475 
L 4800 3225 
L 2875 3225 
z
M 2875 2325 
L 2875 1575 
L 4800 1575 
L 4800 2325 
L 2875 2325 
z
M 2875 1425 
L 2875 675 
L 4800 675 
L 4800 1425 
L 2875 1425 
z
M 2875 525 
L 2875 -225 
L 4800 -225 
L 4800 525 
L 2875 525 
z
M 3550 4250 
Q 3575 4825 3550 5225 
L 4125 4950 
L 3925 4800 
L 3900 4250 
L 5025 4250 
L 5350 4575 
L 5825 4100 
L 3900 4100 
L 3875 3375 
L 4750 3375 
L 4975 3625 
L 5350 3300 
L 5125 3150 
L 5125 -225 
L 5350 -225 
L 5675 100 
L 6150 -375 
L 2450 -375 
Q 2125 -375 1850 -450 
L 1625 -225 
L 2550 -225 
L 2550 2550 
Q 2550 2850 2525 3575 
L 2875 3375 
L 3525 3375 
L 3550 4100 
L 2800 4100 
Q 2475 4100 2200 4025 
L 1975 4250 
L 3550 4250 
z
" transform="scale(0.015625)"/>
      </defs>
      <use xlink:href="#SimSun-771f"/>
      <use xlink:href="#SimSun-5b9e" x="100"/>
      <use xlink:href="#SimSun-503c" x="200"/>
     </g>
    </g>
    <g id="line2d_15">
     <path d="M 79.6375 84.35625 
L 99.6375 84.35625 
L 119.6375 84.35625 
" style="fill: none; stroke: #ff7f0e; stroke-width: 1.5; stroke-linecap: square"/>
    </g>
    <g id="text_14">
     <!-- 预测值 -->
     <g transform="translate(135.6375 91.35625) scale(0.2 -0.2)">
      <defs>
       <path id="SimSun-9884" d="M 475 4825 
L 2225 4825 
L 2425 5075 
L 2825 4675 
Q 2600 4625 2387 4412 
Q 2175 4200 1800 3750 
Q 2050 3575 2037 3400 
Q 2025 3225 1937 3150 
Q 1850 3075 1825 3075 
Q 1725 3075 1650 3300 
Q 1525 3600 1050 4100 
L 1100 4150 
Q 1475 3975 1700 3825 
L 2225 4675 
L 1300 4675 
Q 975 4675 700 4600 
L 475 4825 
z
M 725 100 
Q 1175 50 1362 37 
Q 1550 25 1550 275 
L 1550 2875 
L 1125 2875 
Q 800 2875 525 2800 
L 300 3025 
L 2525 3025 
L 2725 3275 
L 3150 2875 
Q 2800 2825 2275 2075 
L 2200 2125 
L 2550 2875 
L 1875 2875 
L 1875 150 
Q 1875 -400 1350 -500 
Q 1325 -175 725 0 
L 725 100 
z
M 3250 775 
Q 3275 1425 3275 2287 
Q 3275 3150 3250 3900 
L 3600 3700 
L 4050 3700 
Q 4175 4400 4200 4675 
L 3650 4675 
Q 3325 4675 3050 4600 
L 2825 4825 
L 5325 4825 
L 5675 5150 
L 6125 4675 
L 4675 4675 
Q 4500 4425 4175 3700 
L 5300 3700 
L 5475 3975 
L 5875 3675 
L 5675 3475 
L 5675 1950 
Q 5675 1525 5700 1075 
L 5350 875 
L 5350 3550 
L 3600 3550 
L 3600 1000 
L 3250 775 
z
M 4850 2875 
L 4625 2675 
Q 4625 1475 4475 937 
Q 4325 400 3900 50 
Q 3475 -300 2425 -625 
L 2400 -550 
Q 3500 -50 3837 400 
Q 4175 850 4237 1587 
Q 4300 2325 4275 3175 
L 4850 2875 
z
M 4650 950 
Q 5725 375 5875 212 
Q 6025 50 6025 -125 
Q 6025 -225 5962 -387 
Q 5900 -550 5850 -550 
Q 5800 -550 5750 -450 
Q 5625 -250 5437 0 
Q 5250 250 4600 875 
L 4650 950 
z
" transform="scale(0.015625)"/>
       <path id="SimSun-6d4b" d="M 1975 1000 
Q 2000 1475 2000 2925 
Q 2000 4375 1975 5000 
L 2350 4775 
L 3575 4775 
L 3775 4975 
L 4100 4650 
L 3900 4500 
L 3900 2350 
Q 3900 1850 3925 1350 
L 3600 1200 
L 3600 4625 
L 2325 4625 
L 2325 1150 
L 1975 1000 
z
M 2775 3975 
L 3300 3700 
L 3125 3525 
Q 3150 1825 2875 937 
Q 2600 50 1375 -600 
L 1325 -500 
Q 2200 100 2475 725 
Q 2750 1350 2775 2187 
Q 2800 3025 2775 3975 
z
M 3100 950 
Q 3825 450 3937 262 
Q 4050 75 4050 -25 
Q 4050 -150 3975 -262 
Q 3900 -375 3850 -375 
Q 3750 -375 3650 -75 
Q 3500 375 3050 875 
L 3100 950 
z
M 4475 825 
Q 4500 1200 4500 1700 
L 4500 3400 
Q 4500 3950 4475 4300 
L 5025 4025 
L 4825 3825 
L 4825 1700 
Q 4825 1325 4850 950 
L 4475 825 
z
M 5375 150 
L 5375 4050 
Q 5375 4750 5350 5125 
L 5875 4875 
L 5700 4700 
L 5700 75 
Q 5700 -200 5600 -350 
Q 5500 -500 5200 -600 
Q 5025 -225 4450 -50 
L 4450 50 
Q 5125 -50 5250 -37 
Q 5375 -25 5375 150 
z
M 1850 3500 
Q 1375 1525 1300 1225 
Q 1200 900 1212 450 
Q 1225 0 1250 -175 
Q 1250 -275 1125 -275 
Q 1025 -275 875 -225 
Q 725 -175 725 0 
Q 725 125 800 375 
Q 875 625 875 775 
Q 875 950 762 1050 
Q 650 1150 275 1250 
L 275 1350 
Q 725 1300 837 1312 
Q 950 1325 1087 1537 
Q 1225 1750 1750 3525 
L 1850 3500 
z
M 375 3775 
Q 1075 3350 1112 3100 
Q 1150 2850 1050 2775 
Q 950 2700 900 2700 
Q 800 2700 725 2975 
Q 600 3350 325 3700 
L 375 3775 
z
M 800 5100 
Q 1475 4725 1550 4512 
Q 1625 4300 1525 4187 
Q 1425 4075 1350 4075 
Q 1275 4075 1200 4300 
Q 1075 4650 750 5025 
L 800 5100 
z
" transform="scale(0.015625)"/>
      </defs>
      <use xlink:href="#SimSun-9884"/>
      <use xlink:href="#SimSun-6d4b" x="100"/>
      <use xlink:href="#SimSun-503c" x="200"/>
     </g>
    </g>
   </g>
  </g>
  <g id="axes_2">
   <g id="patch_8">
    <path d="M 61.6375 426.316875 
L 1031.954534 426.316875 
L 1031.954534 261.859375 
L 61.6375 261.859375 
z
" style="fill: #ffffff"/>
   </g>
   <g id="matplotlib.axis_3">
    <g id="xtick_7">
     <g id="line2d_16">
      <g>
       <use xlink:href="#m8ecb95d8c3" x="105.74282" y="426.316875" style="stroke: #000000; stroke-width: 0.8"/>
      </g>
     </g>
     <g id="text_15">
      <!-- 0 -->
      <g transform="translate(100.74282 447.204375) scale(0.2 -0.2)">
       <use xlink:href="#TimesNewRomanPSMT-30"/>
      </g>
     </g>
    </g>
    <g id="xtick_8">
     <g id="line2d_17">
      <g>
       <use xlink:href="#m8ecb95d8c3" x="290.283906" y="426.316875" style="stroke: #000000; stroke-width: 0.8"/>
      </g>
     </g>
     <g id="text_16">
      <!-- 50 -->
      <g transform="translate(280.283906 447.204375) scale(0.2 -0.2)">
       <use xlink:href="#TimesNewRomanPSMT-35"/>
       <use xlink:href="#TimesNewRomanPSMT-30" x="50"/>
      </g>
     </g>
    </g>
    <g id="xtick_9">
     <g id="line2d_18">
      <g>
       <use xlink:href="#m8ecb95d8c3" x="474.824993" y="426.316875" style="stroke: #000000; stroke-width: 0.8"/>
      </g>
     </g>
     <g id="text_17">
      <!-- 100 -->
      <g transform="translate(459.824993 447.204375) scale(0.2 -0.2)">
       <use xlink:href="#TimesNewRomanPSMT-31"/>
       <use xlink:href="#TimesNewRomanPSMT-30" x="50"/>
       <use xlink:href="#TimesNewRomanPSMT-30" x="100"/>
      </g>
     </g>
    </g>
    <g id="xtick_10">
     <g id="line2d_19">
      <g>
       <use xlink:href="#m8ecb95d8c3" x="659.36608" y="426.316875" style="stroke: #000000; stroke-width: 0.8"/>
      </g>
     </g>
     <g id="text_18">
      <!-- 150 -->
      <g transform="translate(644.36608 447.204375) scale(0.2 -0.2)">
       <use xlink:href="#TimesNewRomanPSMT-31"/>
       <use xlink:href="#TimesNewRomanPSMT-35" x="50"/>
       <use xlink:href="#TimesNewRomanPSMT-30" x="100"/>
      </g>
     </g>
    </g>
    <g id="xtick_11">
     <g id="line2d_20">
      <g>
       <use xlink:href="#m8ecb95d8c3" x="843.907167" y="426.316875" style="stroke: #000000; stroke-width: 0.8"/>
      </g>
     </g>
     <g id="text_19">
      <!-- 200 -->
      <g transform="translate(828.907167 447.204375) scale(0.2 -0.2)">
       <use xlink:href="#TimesNewRomanPSMT-32"/>
       <use xlink:href="#TimesNewRomanPSMT-30" x="50"/>
       <use xlink:href="#TimesNewRomanPSMT-30" x="100"/>
      </g>
     </g>
    </g>
    <g id="xtick_12">
     <g id="line2d_21">
      <g>
       <use xlink:href="#m8ecb95d8c3" x="1028.448253" y="426.316875" style="stroke: #000000; stroke-width: 0.8"/>
      </g>
     </g>
     <g id="text_20">
      <!-- 250 -->
      <g transform="translate(1013.448253 447.204375) scale(0.2 -0.2)">
       <use xlink:href="#TimesNewRomanPSMT-32"/>
       <use xlink:href="#TimesNewRomanPSMT-35" x="50"/>
       <use xlink:href="#TimesNewRomanPSMT-30" x="100"/>
      </g>
     </g>
    </g>
   </g>
   <g id="matplotlib.axis_4">
    <g id="ytick_5">
     <g id="line2d_22">
      <g>
       <use xlink:href="#m20f7cf2663" x="61.6375" y="371.774571" style="stroke: #000000; stroke-width: 0.8"/>
      </g>
     </g>
     <g id="text_21">
      <!-- 0.5 -->
      <g transform="translate(29.6375 378.718321) scale(0.2 -0.2)">
       <use xlink:href="#TimesNewRomanPSMT-30"/>
       <use xlink:href="#TimesNewRomanPSMT-2e" x="50"/>
       <use xlink:href="#TimesNewRomanPSMT-35" x="75"/>
      </g>
     </g>
    </g>
    <g id="ytick_6">
     <g id="line2d_23">
      <g>
       <use xlink:href="#m20f7cf2663" x="61.6375" y="312.105503" style="stroke: #000000; stroke-width: 0.8"/>
      </g>
     </g>
     <g id="text_22">
      <!-- 1.0 -->
      <g transform="translate(29.6375 319.049253) scale(0.2 -0.2)">
       <use xlink:href="#TimesNewRomanPSMT-31"/>
       <use xlink:href="#TimesNewRomanPSMT-2e" x="50"/>
       <use xlink:href="#TimesNewRomanPSMT-30" x="75"/>
      </g>
     </g>
    </g>
    <g id="text_23">
     <!-- CPU使用率 -->
     <g transform="translate(23.059375 389.088125) rotate(-90) scale(0.2 -0.2)">
      <use xlink:href="#SimSun-43"/>
      <use xlink:href="#SimSun-50" x="50"/>
      <use xlink:href="#SimSun-55" x="100"/>
      <use xlink:href="#SimSun-4f7f" x="150"/>
      <use xlink:href="#SimSun-7528" x="250"/>
      <use xlink:href="#SimSun-7387" x="350"/>
     </g>
    </g>
   </g>
   <g id="line2d_24">
    <path d="M 105.74282 291.101991 
L 109.433641 296.2574 
L 113.124463 285.946581 
L 116.815285 285.946581 
L 124.196928 284.80093 
L 127.88775 285.373763 
L 131.578572 288.810702 
L 135.269394 289.383521 
L 138.960215 287.092233 
L 142.651037 287.092233 
L 146.341859 288.810702 
L 150.032681 289.956339 
L 153.723502 290.529172 
L 157.414324 287.092233 
L 161.105146 279.072702 
L 164.795967 282.509642 
L 168.486789 280.791172 
L 172.177611 281.936823 
L 175.868433 284.228111 
L 179.559254 284.228111 
L 183.250076 291.101991 
L 186.940898 287.092233 
L 190.63172 285.946581 
L 194.322541 287.092233 
L 198.013363 289.956339 
L 201.704185 287.092233 
L 205.395007 287.092233 
L 209.085828 296.2574 
L 212.77665 295.684582 
L 216.467472 302.558447 
L 220.158294 301.985628 
L 223.849115 291.101991 
L 227.539937 269.334716 
L 231.230759 305.995386 
L 234.92158 300.839977 
L 238.612402 310.577977 
L 242.303224 307.713856 
L 245.994046 315.733379 
L 249.684867 297.97587 
L 253.375689 327.762668 
L 257.066511 329.481138 
L 260.757333 334.63654 
L 264.448154 339.219131 
L 268.138976 336.927836 
L 271.829798 327.762668 
L 275.52062 343.801715 
L 279.211441 348.957117 
L 282.902263 345.520185 
L 286.593085 351.248413 
L 290.283906 344.947359 
L 293.974728 335.782191 
L 297.66555 358.69511 
L 301.356372 361.559224 
L 305.047193 363.85052 
L 308.738015 362.13205 
L 312.428837 369.578748 
L 316.119659 367.860278 
L 319.81048 374.734157 
L 323.501302 376.452627 
L 327.192124 379.889567 
L 330.882946 381.608036 
L 334.573767 379.316741 
L 338.264589 410.822004 
L 341.955411 383.899325 
L 345.646232 386.763446 
L 349.337054 388.481909 
L 353.027876 391.34603 
L 356.718698 392.491674 
L 360.409519 393.064499 
L 364.100341 395.928613 
L 367.791163 397.074258 
L 371.481985 398.792727 
L 375.172806 401.084016 
L 382.55445 401.084016 
L 386.245272 403.948131 
L 393.626915 406.23942 
L 397.317737 406.812245 
L 401.008559 407.957897 
L 404.69938 407.385064 
L 408.390202 409.103534 
L 412.081024 410.249185 
L 415.771845 410.249185 
L 423.153489 411.394836 
L 426.844311 411.394836 
L 434.225954 413.686125 
L 437.916776 413.686125 
L 445.298419 414.831762 
L 448.989241 413.686125 
L 452.680063 414.831762 
L 456.370885 414.831762 
L 460.061706 415.977413 
L 463.752528 415.404594 
L 467.44335 417.123064 
L 471.134171 415.977413 
L 474.824993 415.977413 
L 478.515815 417.123064 
L 482.206637 417.123064 
L 485.897458 417.695883 
L 489.58828 417.123064 
L 496.969924 417.123064 
L 500.660745 417.695883 
L 504.351567 417.123064 
L 508.042389 417.695883 
L 511.733211 417.695883 
L 515.424032 417.123064 
L 519.114854 418.841534 
L 522.805676 417.695883 
L 526.496497 417.695883 
L 530.187319 417.123064 
L 548.641428 417.123064 
L 552.33225 416.550232 
L 556.023071 415.404594 
L 559.713893 412.540473 
L 567.095537 413.686125 
L 574.47718 411.394836 
L 578.168002 411.394836 
L 581.858824 408.530715 
L 585.549645 409.103534 
L 589.240467 409.103534 
L 592.931289 407.957897 
L 596.62211 405.666601 
L 600.312932 404.52095 
L 604.003754 387.90909 
L 607.694576 398.219902 
L 611.385397 393.637318 
L 615.076219 393.637318 
L 618.767041 389.62756 
L 622.457863 387.336264 
L 626.148684 375.306983 
L 629.839506 383.899325 
L 633.530328 377.598271 
L 637.22115 377.598271 
L 640.911971 371.870043 
L 644.602793 367.287459 
L 648.293615 322.034433 
L 651.984436 355.258171 
L 655.675258 342.656064 
L 659.36608 349.529943 
L 663.056902 343.228889 
L 666.747723 342.656064 
L 670.438545 315.733379 
L 674.129367 342.083245 
L 677.820189 338.07348 
L 681.51101 339.79195 
L 685.201832 334.63654 
L 688.892654 331.199608 
L 692.583476 310.577977 
L 696.274297 320.315963 
L 699.965119 319.743145 
L 703.655941 324.325728 
L 707.346762 322.034433 
L 711.037584 322.607259 
L 714.728406 314.587735 
L 718.419228 327.762668 
L 722.110049 327.189842 
L 725.800871 327.189842 
L 729.491693 322.034433 
L 733.182515 318.5975 
L 736.873336 307.141037 
L 740.564158 300.839977 
L 744.25498 303.131279 
L 747.945802 301.985628 
L 751.636623 298.548688 
L 755.327445 303.131279 
L 759.018267 300.267158 
L 762.709088 310.005144 
L 766.39991 310.005144 
L 773.781554 304.276916 
L 777.472375 303.704098 
L 781.163197 289.956339 
L 784.854019 288.810702 
L 788.544841 287.092233 
L 792.235662 289.956339 
L 795.926484 296.830219 
L 799.617306 297.97587 
L 803.308128 294.53893 
L 806.998949 293.393279 
L 810.689771 284.80093 
L 814.380593 288.810702 
L 818.071415 294.53893 
L 821.762236 293.966112 
L 825.453058 295.111749 
L 829.14388 272.771656 
L 832.834701 281.364005 
L 836.525523 296.2574 
L 840.216345 297.403051 
L 843.907167 289.956339 
L 847.597988 295.111749 
L 851.28881 299.121507 
L 854.979632 298.548688 
L 858.670454 297.403051 
L 862.361275 297.97587 
L 866.052097 299.69434 
L 869.742919 373.015687 
L 873.433741 271.626004 
L 877.124562 276.208595 
L 880.815384 287.665051 
L 884.506206 287.092233 
L 888.197027 289.956339 
L 891.887849 296.830219 
L 899.269493 301.41281 
L 902.960314 301.41281 
L 906.651136 305.422568 
L 910.341958 305.422568 
L 914.03278 298.548688 
L 917.723601 296.830219 
L 921.414423 299.69434 
L 925.105245 304.849749 
L 928.796067 311.150796 
L 932.486888 308.286689 
L 936.17771 308.859507 
L 939.868532 307.141037 
L 943.559353 310.577977 
L 947.250175 310.005144 
L 950.940997 308.859507 
L 954.631819 312.29644 
L 958.32264 297.403051 
L 962.013462 291.101991 
L 965.704284 303.131279 
L 969.395106 304.849749 
L 973.085927 304.849749 
L 976.776749 307.713856 
L 980.467571 303.131279 
L 984.158393 309.432326 
L 987.849214 306.568219 
L 987.849214 306.568219 
" clip-path="url(#pd27d9e80d7)" style="fill: none; stroke: #1f77b4; stroke-width: 1.5; stroke-linecap: square"/>
   </g>
   <g id="line2d_25">
    <path d="M 637.22115 393.227397 
L 640.911971 393.22623 
L 644.602793 395.219657 
L 648.293615 393.310791 
L 651.984436 395.020817 
L 655.675258 391.198674 
L 659.36608 394.360742 
L 663.056902 391.505569 
L 666.747723 393.286478 
L 670.438545 393.422125 
L 674.129367 392.714186 
L 677.820189 390.427066 
L 681.51101 390.407555 
L 685.201832 390.790958 
L 688.892654 391.470694 
L 692.583476 390.217179 
L 696.274297 389.815524 
L 699.965119 388.300688 
L 703.655941 388.122924 
L 707.346762 386.268573 
L 711.037584 384.684071 
L 714.728406 379.765244 
L 718.419228 383.984021 
L 722.110049 380.035485 
L 725.800871 379.755044 
L 729.491693 376.972716 
L 733.182515 375.212691 
L 736.873336 373.90617 
L 740.564158 374.180594 
L 744.25498 369.397079 
L 747.945802 368.592025 
L 751.636623 366.488928 
L 755.327445 368.74825 
L 759.018267 362.415863 
L 762.709088 364.427357 
L 766.39991 360.201659 
L 770.090732 361.119976 
L 773.781554 355.304114 
L 777.472375 355.696829 
L 781.163197 351.528833 
L 784.854019 353.568409 
L 788.544841 347.22334 
L 792.235662 351.202014 
L 795.926484 348.980989 
L 799.617306 347.129362 
L 803.308128 345.610002 
L 806.998949 348.951597 
L 810.689771 345.782907 
L 814.380593 345.248144 
L 818.071415 343.778234 
L 821.762236 340.157471 
L 825.453058 339.780739 
L 829.14388 341.048053 
L 832.834701 339.291393 
L 836.525523 342.762319 
L 840.216345 337.903341 
L 843.907167 340.339182 
L 847.597988 342.490278 
L 851.28881 339.634074 
L 854.979632 336.846583 
L 858.670454 341.706158 
L 862.361275 340.721647 
L 866.052097 337.108523 
L 869.742919 337.201157 
L 873.433741 340.244229 
L 877.124562 337.087596 
L 880.815384 339.094389 
L 884.506206 338.809146 
L 888.197027 336.706853 
L 891.887849 338.237921 
L 895.578671 339.036025 
L 899.269493 337.79715 
L 902.960314 337.33765 
L 906.651136 339.844672 
L 910.341958 342.480121 
L 914.03278 338.304144 
L 917.723601 338.314145 
L 921.414423 336.62831 
L 925.105245 341.072693 
L 928.796067 340.380346 
L 932.486888 340.054943 
L 936.17771 342.013202 
L 939.868532 337.959556 
L 943.559353 339.331084 
L 947.250175 338.51785 
L 950.940997 335.15414 
L 954.631819 334.936272 
L 958.32264 338.233539 
L 962.013462 335.504254 
L 965.704284 336.057888 
L 969.395106 334.305951 
L 973.085927 332.832457 
L 976.776749 333.948909 
L 980.467571 334.828409 
L 984.158393 331.647499 
L 987.849214 333.642498 
" clip-path="url(#pd27d9e80d7)" style="fill: none; stroke: #ff7f0e; stroke-width: 1.5; stroke-linecap: square"/>
   </g>
   <g id="line2d_26">
    <path d="M 637.22115 426.316875 
L 637.22115 261.859375 
" clip-path="url(#pd27d9e80d7)" style="fill: none; stroke-dasharray: 7.4,3.2; stroke-dashoffset: 0; stroke: #0000ff; stroke-width: 2"/>
   </g>
   <g id="patch_9">
    <path d="M 61.6375 426.316875 
L 61.6375 261.859375 
" style="fill: none; stroke: #000000; stroke-width: 0.8; stroke-linejoin: miter; stroke-linecap: square"/>
   </g>
   <g id="patch_10">
    <path d="M 1031.954534 426.316875 
L 1031.954534 261.859375 
" style="fill: none; stroke: #000000; stroke-width: 0.8; stroke-linejoin: miter; stroke-linecap: square"/>
   </g>
   <g id="patch_11">
    <path d="M 61.6375 426.316875 
L 1031.954534 426.316875 
" style="fill: none; stroke: #000000; stroke-width: 0.8; stroke-linejoin: miter; stroke-linecap: square"/>
   </g>
   <g id="patch_12">
    <path d="M 61.6375 261.859375 
L 1031.954534 261.859375 
" style="fill: none; stroke: #000000; stroke-width: 0.8; stroke-linejoin: miter; stroke-linecap: square"/>
   </g>
   <g id="text_24">
    <!-- 云函数ID: 72 -->
    <g transform="translate(486.796017 255.859375) scale(0.2 -0.2)">
     <defs>
      <path id="SimSun-37" d="M 2825 4200 
Q 2300 3350 1987 2537 
Q 1675 1725 1675 1125 
Q 1675 1025 1700 850 
Q 1700 650 1700 400 
Q 1700 200 1637 125 
Q 1575 50 1425 50 
Q 1300 50 1212 137 
Q 1125 225 1125 450 
Q 1125 925 1337 1625 
Q 1550 2325 2475 4000 
L 1225 4000 
Q 950 4000 787 3825 
Q 625 3650 550 3300 
L 400 3325 
L 575 4375 
L 2825 4375 
L 2825 4200 
z
" transform="scale(0.015625)"/>
     </defs>
     <use xlink:href="#SimSun-4e91"/>
     <use xlink:href="#SimSun-51fd" x="100"/>
     <use xlink:href="#SimSun-6570" x="200"/>
     <use xlink:href="#SimSun-49" x="300"/>
     <use xlink:href="#SimSun-44" x="350"/>
     <use xlink:href="#SimSun-3a" x="400"/>
     <use xlink:href="#SimSun-20" x="450"/>
     <use xlink:href="#SimSun-37" x="500"/>
     <use xlink:href="#SimSun-32" x="550"/>
    </g>
   </g>
  </g>
  <g id="axes_3">
   <g id="patch_13">
    <path d="M 61.6375 659.116875 
L 1031.954534 659.116875 
L 1031.954534 494.659375 
L 61.6375 494.659375 
z
" style="fill: #ffffff"/>
   </g>
   <g id="matplotlib.axis_5">
    <g id="xtick_13">
     <g id="line2d_27">
      <g>
       <use xlink:href="#m8ecb95d8c3" x="105.74282" y="659.116875" style="stroke: #000000; stroke-width: 0.8"/>
      </g>
     </g>
     <g id="text_25">
      <!-- 0 -->
      <g transform="translate(100.74282 680.004375) scale(0.2 -0.2)">
       <use xlink:href="#TimesNewRomanPSMT-30"/>
      </g>
     </g>
    </g>
    <g id="xtick_14">
     <g id="line2d_28">
      <g>
       <use xlink:href="#m8ecb95d8c3" x="290.283906" y="659.116875" style="stroke: #000000; stroke-width: 0.8"/>
      </g>
     </g>
     <g id="text_26">
      <!-- 50 -->
      <g transform="translate(280.283906 680.004375) scale(0.2 -0.2)">
       <use xlink:href="#TimesNewRomanPSMT-35"/>
       <use xlink:href="#TimesNewRomanPSMT-30" x="50"/>
      </g>
     </g>
    </g>
    <g id="xtick_15">
     <g id="line2d_29">
      <g>
       <use xlink:href="#m8ecb95d8c3" x="474.824993" y="659.116875" style="stroke: #000000; stroke-width: 0.8"/>
      </g>
     </g>
     <g id="text_27">
      <!-- 100 -->
      <g transform="translate(459.824993 680.004375) scale(0.2 -0.2)">
       <use xlink:href="#TimesNewRomanPSMT-31"/>
       <use xlink:href="#TimesNewRomanPSMT-30" x="50"/>
       <use xlink:href="#TimesNewRomanPSMT-30" x="100"/>
      </g>
     </g>
    </g>
    <g id="xtick_16">
     <g id="line2d_30">
      <g>
       <use xlink:href="#m8ecb95d8c3" x="659.36608" y="659.116875" style="stroke: #000000; stroke-width: 0.8"/>
      </g>
     </g>
     <g id="text_28">
      <!-- 150 -->
      <g transform="translate(644.36608 680.004375) scale(0.2 -0.2)">
       <use xlink:href="#TimesNewRomanPSMT-31"/>
       <use xlink:href="#TimesNewRomanPSMT-35" x="50"/>
       <use xlink:href="#TimesNewRomanPSMT-30" x="100"/>
      </g>
     </g>
    </g>
    <g id="xtick_17">
     <g id="line2d_31">
      <g>
       <use xlink:href="#m8ecb95d8c3" x="843.907167" y="659.116875" style="stroke: #000000; stroke-width: 0.8"/>
      </g>
     </g>
     <g id="text_29">
      <!-- 200 -->
      <g transform="translate(828.907167 680.004375) scale(0.2 -0.2)">
       <use xlink:href="#TimesNewRomanPSMT-32"/>
       <use xlink:href="#TimesNewRomanPSMT-30" x="50"/>
       <use xlink:href="#TimesNewRomanPSMT-30" x="100"/>
      </g>
     </g>
    </g>
    <g id="xtick_18">
     <g id="line2d_32">
      <g>
       <use xlink:href="#m8ecb95d8c3" x="1028.448253" y="659.116875" style="stroke: #000000; stroke-width: 0.8"/>
      </g>
     </g>
     <g id="text_30">
      <!-- 250 -->
      <g transform="translate(1013.448253 680.004375) scale(0.2 -0.2)">
       <use xlink:href="#TimesNewRomanPSMT-32"/>
       <use xlink:href="#TimesNewRomanPSMT-35" x="50"/>
       <use xlink:href="#TimesNewRomanPSMT-30" x="100"/>
      </g>
     </g>
    </g>
   </g>
   <g id="matplotlib.axis_6">
    <g id="ytick_7">
     <g id="line2d_33">
      <g>
       <use xlink:href="#m20f7cf2663" x="61.6375" y="622.44551" style="stroke: #000000; stroke-width: 0.8"/>
      </g>
     </g>
     <g id="text_31">
      <!-- 1.0 -->
      <g transform="translate(29.6375 629.38926) scale(0.2 -0.2)">
       <use xlink:href="#TimesNewRomanPSMT-31"/>
       <use xlink:href="#TimesNewRomanPSMT-2e" x="50"/>
       <use xlink:href="#TimesNewRomanPSMT-30" x="75"/>
      </g>
     </g>
    </g>
    <g id="ytick_8">
     <g id="line2d_34">
      <g>
       <use xlink:href="#m20f7cf2663" x="61.6375" y="577.500893" style="stroke: #000000; stroke-width: 0.8"/>
      </g>
     </g>
     <g id="text_32">
      <!-- 2.0 -->
      <g transform="translate(29.6375 584.444643) scale(0.2 -0.2)">
       <use xlink:href="#TimesNewRomanPSMT-32"/>
       <use xlink:href="#TimesNewRomanPSMT-2e" x="50"/>
       <use xlink:href="#TimesNewRomanPSMT-30" x="75"/>
      </g>
     </g>
    </g>
    <g id="ytick_9">
     <g id="line2d_35">
      <g>
       <use xlink:href="#m20f7cf2663" x="61.6375" y="532.556276" style="stroke: #000000; stroke-width: 0.8"/>
      </g>
     </g>
     <g id="text_33">
      <!-- 3.0 -->
      <g transform="translate(29.6375 539.500026) scale(0.2 -0.2)">
       <use xlink:href="#TimesNewRomanPSMT-33"/>
       <use xlink:href="#TimesNewRomanPSMT-2e" x="50"/>
       <use xlink:href="#TimesNewRomanPSMT-30" x="75"/>
      </g>
     </g>
    </g>
    <g id="text_34">
     <!-- CPU使用率 -->
     <g transform="translate(23.059375 621.888125) rotate(-90) scale(0.2 -0.2)">
      <use xlink:href="#SimSun-43"/>
      <use xlink:href="#SimSun-50" x="50"/>
      <use xlink:href="#SimSun-55" x="100"/>
      <use xlink:href="#SimSun-4f7f" x="150"/>
      <use xlink:href="#SimSun-7528" x="250"/>
      <use xlink:href="#SimSun-7387" x="350"/>
     </g>
    </g>
   </g>
   <g id="line2d_36">
    <path d="M 105.74282 625.106231 
L 109.433641 627.695041 
L 113.124463 626.616371 
L 120.506107 631.362523 
L 124.196928 632.441193 
L 127.88775 634.167066 
L 131.578572 634.382801 
L 135.269394 633.735598 
L 138.960215 632.441193 
L 142.651037 633.735598 
L 146.341859 635.245736 
L 150.032681 635.461471 
L 153.723502 636.755877 
L 157.414324 637.187344 
L 161.105146 638.266015 
L 164.795967 639.56042 
L 168.486789 639.991888 
L 172.177611 639.776153 
L 175.868433 641.070558 
L 179.559254 643.012166 
L 183.250076 645.16951 
L 186.940898 646.24818 
L 190.63172 646.679647 
L 194.322541 647.758318 
L 201.704185 647.758318 
L 205.395007 648.189785 
L 209.085828 648.836988 
L 216.467472 649.268458 
L 220.158294 649.268458 
L 223.849115 642.796431 
L 227.539937 651.425799 
L 231.230759 650.994331 
L 234.92158 651.425799 
L 238.612402 650.994331 
L 242.303224 651.641534 
L 245.994046 650.994331 
L 249.684867 650.994331 
L 257.066511 651.425799 
L 260.757333 651.210064 
L 264.448154 651.210064 
L 268.138976 649.268458 
L 271.829798 649.915661 
L 275.52062 649.484191 
L 279.211441 649.484191 
L 282.902263 649.052723 
L 290.283906 646.895383 
L 293.974728 646.463912 
L 297.66555 645.600977 
L 301.356372 644.522307 
L 305.047193 643.659369 
L 308.738015 641.717761 
L 312.428837 633.735598 
L 316.119659 636.540142 
L 319.81048 634.382801 
L 323.501302 633.088396 
L 327.192124 630.499585 
L 330.882946 628.989447 
L 334.573767 621.223017 
L 338.264589 622.085952 
L 341.955411 619.065676 
L 345.646232 617.124068 
L 349.337054 613.240852 
L 353.027876 612.809382 
L 356.718698 583.253805 
L 360.409519 602.669876 
L 364.100341 599.865332 
L 367.791163 597.492259 
L 371.481985 593.609043 
L 375.172806 593.824776 
L 378.863628 588.647159 
L 382.55445 587.999956 
L 386.245272 584.332478 
L 389.936093 586.274086 
L 393.626915 580.017791 
L 397.317737 577.860451 
L 401.008559 565.132139 
L 404.69938 567.289475 
L 408.390202 567.073748 
L 412.081024 567.289475 
L 415.771845 564.269199 
L 419.462667 564.484937 
L 423.153489 562.327591 
L 426.844311 568.152415 
L 430.535132 568.58388 
L 434.225954 567.505213 
L 437.916776 567.505213 
L 441.607598 561.248923 
L 445.298419 561.248923 
L 448.989241 559.954518 
L 452.680063 561.033185 
L 456.370885 560.385983 
L 460.061706 553.698228 
L 463.752528 562.759056 
L 467.44335 558.01291 
L 471.134171 564.700664 
L 474.824993 566.210807 
L 478.515815 566.642272 
L 482.206637 560.817448 
L 485.897458 565.132139 
L 489.58828 550.030739 
L 493.279102 553.913955 
L 496.969924 553.051026 
L 500.660745 560.385983 
L 504.351567 562.111853 
L 508.042389 564.916402 
L 511.733211 565.563604 
L 515.424032 561.896126 
L 519.114854 560.60172 
L 522.805676 561.248923 
L 526.496497 564.484937 
L 530.187319 567.289475 
L 533.878141 563.837734 
L 537.568963 558.87585 
L 541.259784 560.385983 
L 544.950606 566.210807 
L 548.641428 565.779342 
L 552.33225 560.385983 
L 556.023071 565.132139 
L 559.713893 568.152415 
L 563.404715 567.505213 
L 567.095537 563.837734 
L 570.786358 563.621996 
L 574.47718 565.563604 
L 578.168002 599.433868 
L 581.858824 545.931796 
L 585.549645 547.657666 
L 589.240467 555.208361 
L 592.931289 556.287039 
L 596.62211 556.287039 
L 600.312932 558.660112 
L 604.003754 562.543329 
L 607.694576 561.248923 
L 611.385397 565.347867 
L 615.076219 562.111853 
L 618.767041 566.642272 
L 622.457863 560.385983 
L 626.148684 559.73878 
L 629.839506 564.916402 
L 633.530328 570.309751 
L 637.22115 569.231083 
L 640.911971 568.58388 
L 644.602793 565.563604 
L 648.293615 569.015345 
L 651.984436 569.015345 
L 655.675258 571.172691 
L 659.36608 568.58388 
L 663.056902 569.878286 
L 666.747723 558.660112 
L 670.438545 555.639836 
L 674.129367 566.210807 
L 677.820189 567.073748 
L 681.51101 560.60172 
L 685.201832 560.170255 
L 688.892654 558.01291 
L 692.583476 562.327591 
L 696.274297 565.779342 
L 699.965119 571.172691 
L 703.655941 567.936677 
L 707.346762 566.426545 
L 711.037584 560.60172 
L 714.728406 560.817448 
L 722.110049 568.152415 
L 725.800871 567.936677 
L 729.491693 569.015345 
L 733.182515 566.210807 
L 740.564158 566.210807 
L 744.25498 568.152415 
L 747.945802 567.936677 
L 751.636623 565.995069 
L 755.327445 564.269199 
L 759.018267 564.269199 
L 762.709088 569.015345 
L 766.39991 559.091577 
L 770.090732 560.60172 
L 773.781554 565.347867 
L 777.472375 555.639836 
L 781.163197 561.46465 
L 784.854019 563.837734 
L 788.544841 564.053461 
L 792.235662 553.48249 
L 795.926484 558.01291 
L 799.617306 554.129693 
L 803.308128 554.129693 
L 806.998949 547.657666 
L 810.689771 555.208361 
L 814.380593 553.698228 
L 818.071415 551.325145 
L 821.762236 544.853128 
L 825.453058 546.794736 
L 829.14388 545.500331 
L 832.834701 544.63739 
L 836.525523 547.441939 
L 840.216345 545.068855 
L 843.907167 536.65523 
L 847.597988 542.695782 
L 851.28881 538.381101 
L 854.979632 534.497884 
L 858.670454 536.223755 
L 862.361275 534.06642 
L 866.052097 528.457322 
L 869.742919 536.870958 
L 873.433741 531.261871 
L 877.124562 533.634944 
L 880.815384 533.634944 
L 884.506206 529.536001 
L 888.197027 536.008028 
L 891.887849 538.381101 
L 895.578671 542.480044 
L 899.269493 537.51816 
L 902.960314 530.183203 
L 906.651136 545.500331 
L 910.341958 539.675506 
L 914.03278 543.990187 
L 917.723601 545.284593 
L 921.414423 547.657666 
L 925.105245 543.990187 
L 928.796067 546.794736 
L 932.486888 536.870958 
L 936.17771 541.832842 
L 939.868532 542.048579 
L 943.559353 546.578998 
L 947.250175 541.832842 
L 950.940997 545.716058 
L 954.631819 545.068855 
L 958.32264 542.695782 
L 962.013462 547.441939 
L 965.704284 547.441939 
L 969.395106 545.931796 
L 973.085927 542.695782 
L 976.776749 528.67306 
L 980.467571 540.538436 
L 984.158393 539.891233 
L 987.849214 541.401377 
L 987.849214 541.401377 
" clip-path="url(#p3058664183)" style="fill: none; stroke: #1f77b4; stroke-width: 1.5; stroke-linecap: square"/>
   </g>
   <g id="line2d_37">
    <path d="M 637.22115 574.64298 
L 640.911971 574.944229 
L 644.602793 574.357752 
L 648.293615 574.568357 
L 651.984436 572.328458 
L 655.675258 570.43328 
L 659.36608 567.560419 
L 663.056902 565.717202 
L 666.747723 564.413849 
L 670.438545 563.237551 
L 674.129367 559.612775 
L 677.820189 559.735201 
L 681.51101 558.21236 
L 685.201832 556.119907 
L 688.892654 554.272329 
L 692.583476 556.747586 
L 696.274297 554.942024 
L 699.965119 551.879068 
L 703.655941 550.457436 
L 707.346762 549.681774 
L 711.037584 547.275643 
L 714.728406 547.353428 
L 718.419228 545.475267 
L 722.110049 546.935057 
L 725.800871 544.764349 
L 729.491693 544.201575 
L 733.182515 546.295827 
L 736.873336 544.477813 
L 740.564158 542.113934 
L 744.25498 542.985929 
L 747.945802 541.535622 
L 751.636623 538.763242 
L 755.327445 537.107955 
L 759.018267 535.612707 
L 762.709088 537.197549 
L 766.39991 536.756225 
L 770.090732 536.178181 
L 773.781554 535.768973 
L 777.472375 537.820695 
L 781.163197 537.992327 
L 784.854019 535.532264 
L 788.544841 537.919236 
L 792.235662 534.916533 
L 795.926484 531.796859 
L 799.617306 530.773302 
L 803.308128 532.145782 
L 806.998949 532.902584 
L 810.689771 528.172961 
L 814.380593 527.874799 
L 818.071415 526.481585 
L 821.762236 528.247167 
L 825.453058 528.150898 
L 829.14388 525.387326 
L 832.834701 523.253576 
L 836.525523 520.861022 
L 840.216345 522.081178 
L 843.907167 519.672626 
L 847.597988 517.757485 
L 851.28881 516.762453 
L 854.979632 515.981894 
L 858.670454 513.171206 
L 862.361275 512.025544 
L 866.052097 511.205755 
L 869.742919 509.949851 
L 873.433741 510.981059 
L 877.124562 510.229861 
L 880.815384 508.480642 
L 884.506206 505.925596 
L 888.197027 503.895476 
L 891.887849 503.582762 
L 895.578671 503.73411 
L 899.269493 503.336163 
L 902.960314 502.134716 
L 906.651136 504.233565 
L 910.341958 505.452211 
L 914.03278 503.313553 
L 917.723601 505.359885 
L 921.414423 503.924559 
L 925.105245 507.257999 
L 928.796067 504.990089 
L 932.486888 505.67994 
L 936.17771 507.024151 
L 939.868532 506.836253 
L 943.559353 507.254034 
L 947.250175 509.828968 
L 950.940997 513.142188 
L 954.631819 517.805952 
L 958.32264 515.033808 
L 962.013462 519.18545 
L 965.704284 519.740659 
L 969.395106 524.108747 
L 973.085927 522.041423 
L 976.776749 527.241902 
L 980.467571 529.410563 
L 984.158393 532.965592 
L 987.849214 536.085566 
" clip-path="url(#p3058664183)" style="fill: none; stroke: #ff7f0e; stroke-width: 1.5; stroke-linecap: square"/>
   </g>
   <g id="line2d_38">
    <path d="M 637.22115 659.116875 
L 637.22115 494.659375 
" clip-path="url(#p3058664183)" style="fill: none; stroke-dasharray: 7.4,3.2; stroke-dashoffset: 0; stroke: #0000ff; stroke-width: 2"/>
   </g>
   <g id="patch_14">
    <path d="M 61.6375 659.116875 
L 61.6375 494.659375 
" style="fill: none; stroke: #000000; stroke-width: 0.8; stroke-linejoin: miter; stroke-linecap: square"/>
   </g>
   <g id="patch_15">
    <path d="M 1031.954534 659.116875 
L 1031.954534 494.659375 
" style="fill: none; stroke: #000000; stroke-width: 0.8; stroke-linejoin: miter; stroke-linecap: square"/>
   </g>
   <g id="patch_16">
    <path d="M 61.6375 659.116875 
L 1031.954534 659.116875 
" style="fill: none; stroke: #000000; stroke-width: 0.8; stroke-linejoin: miter; stroke-linecap: square"/>
   </g>
   <g id="patch_17">
    <path d="M 61.6375 494.659375 
L 1031.954534 494.659375 
" style="fill: none; stroke: #000000; stroke-width: 0.8; stroke-linejoin: miter; stroke-linecap: square"/>
   </g>
   <g id="text_35">
    <!-- 云函数ID: 150 -->
    <g transform="translate(481.796017 488.659375) scale(0.2 -0.2)">
     <defs>
      <path id="SimSun-31" d="M 1825 4450 
L 1825 650 
Q 1825 450 1950 350 
Q 2075 250 2300 250 
L 2550 250 
L 2550 100 
L 725 100 
L 725 250 
L 950 250 
Q 1200 250 1312 350 
Q 1425 450 1425 650 
L 1425 3675 
Q 1425 3775 1362 3837 
Q 1300 3900 1175 3900 
L 725 3900 
L 725 4050 
L 950 4050 
Q 1250 4050 1437 4150 
Q 1625 4250 1725 4450 
L 1825 4450 
z
" transform="scale(0.015625)"/>
      <path id="SimSun-35" d="M 1725 2850 
Q 2200 2850 2500 2487 
Q 2800 2125 2800 1525 
Q 2800 850 2487 450 
Q 2175 50 1525 50 
Q 1075 50 725 312 
Q 375 575 375 950 
Q 375 1100 462 1212 
Q 550 1325 700 1325 
Q 850 1325 900 1225 
Q 950 1125 950 1050 
Q 950 900 875 825 
Q 800 725 800 625 
Q 800 425 1037 325 
Q 1275 225 1550 225 
Q 1950 225 2162 550 
Q 2375 875 2375 1475 
Q 2375 1975 2187 2287 
Q 2000 2600 1625 2600 
Q 1350 2600 1150 2500 
Q 950 2400 775 2075 
L 550 2100 
L 675 4375 
L 2725 4375 
L 2650 4000 
L 850 4000 
L 750 2350 
Q 1000 2700 1237 2775 
Q 1475 2850 1725 2850 
z
" transform="scale(0.015625)"/>
      <path id="SimSun-30" d="M 1600 4225 
Q 1250 4225 1012 3687 
Q 775 3150 775 2250 
Q 775 1300 1012 775 
Q 1250 250 1600 250 
Q 1975 250 2187 775 
Q 2400 1300 2400 2250 
Q 2400 3150 2200 3687 
Q 2000 4225 1600 4225 
z
M 1600 50 
Q 1050 50 675 625 
Q 300 1200 300 2250 
Q 300 3225 662 3825 
Q 1025 4425 1600 4425 
Q 2150 4425 2512 3850 
Q 2875 3275 2875 2250 
Q 2875 1225 2512 637 
Q 2150 50 1600 50 
z
" transform="scale(0.015625)"/>
     </defs>
     <use xlink:href="#SimSun-4e91"/>
     <use xlink:href="#SimSun-51fd" x="100"/>
     <use xlink:href="#SimSun-6570" x="200"/>
     <use xlink:href="#SimSun-49" x="300"/>
     <use xlink:href="#SimSun-44" x="350"/>
     <use xlink:href="#SimSun-3a" x="400"/>
     <use xlink:href="#SimSun-20" x="450"/>
     <use xlink:href="#SimSun-31" x="500"/>
     <use xlink:href="#SimSun-35" x="550"/>
     <use xlink:href="#SimSun-30" x="600"/>
    </g>
   </g>
  </g>
 </g>
 <defs>
  <clipPath id="pabf20a70d1">
   <rect x="61.6375" y="29.059375" width="970.317034" height="164.4575"/>
  </clipPath>
  <clipPath id="pd27d9e80d7">
   <rect x="61.6375" y="261.859375" width="970.317034" height="164.4575"/>
  </clipPath>
  <clipPath id="p3058664183">
   <rect x="61.6375" y="494.659375" width="970.317034" height="164.4575"/>
  </clipPath>
 </defs>
</svg>
