<?xml version="1.0" encoding="utf-8" standalone="no"?>
<!DOCTYPE svg PUBLIC "-//W3C//DTD SVG 1.1//EN"
  "http://www.w3.org/Graphics/SVG/1.1/DTD/svg11.dtd">
<svg xmlns:xlink="http://www.w3.org/1999/xlink" width="1050.557536pt" height="691.4825pt" viewBox="0 0 1050.557536 691.4825" xmlns="http://www.w3.org/2000/svg" version="1.1">
 <metadata>
  <rdf:RDF xmlns:dc="http://purl.org/dc/elements/1.1/" xmlns:cc="http://creativecommons.org/ns#" xmlns:rdf="http://www.w3.org/1999/02/22-rdf-syntax-ns#">
   <cc:Work>
    <dc:type rdf:resource="http://purl.org/dc/dcmitype/StillImage"/>
    <dc:date>2024-02-22T21:03:12.575589</dc:date>
    <dc:format>image/svg+xml</dc:format>
    <dc:creator>
     <cc:Agent>
      <dc:title>Matplotlib v3.7.4, https://matplotlib.org/</dc:title>
     </cc:Agent>
    </dc:creator>
   </cc:Work>
  </rdf:RDF>
 </metadata>
 <defs>
  <style type="text/css">*{stroke-linejoin: round; stroke-linecap: butt}</style>
 </defs>
 <g id="figure_1">
  <g id="patch_1">
   <path d="M 0 691.4825 
L 1050.557536 691.4825 
L 1050.557536 0 
L 0 0 
z
" style="fill: #ffffff"/>
  </g>
  <g id="axes_1">
   <g id="patch_2">
    <path d="M 61.6375 193.516875 
L 1032.509189 193.516875 
L 1032.509189 29.059375 
L 61.6375 29.059375 
z
" style="fill: #ffffff"/>
   </g>
   <g id="matplotlib.axis_1">
    <g id="xtick_1">
     <g id="line2d_1">
      <defs>
       <path id="m46e980d0ca" d="M 0 0 
L 0 3.5 
" style="stroke: #000000; stroke-width: 0.8"/>
      </defs>
      <g>
       <use xlink:href="#m46e980d0ca" x="105.768031" y="193.516875" style="stroke: #000000; stroke-width: 0.8"/>
      </g>
     </g>
     <g id="text_1">
      <!-- 0 -->
      <g transform="translate(100.768031 214.404375) scale(0.2 -0.2)">
       <defs>
        <path id="TimesNewRomanPSMT-30" d="M 231 2094 
Q 231 2819 450 3342 
Q 669 3866 1031 4122 
Q 1313 4325 1613 4325 
Q 2100 4325 2488 3828 
Q 2972 3213 2972 2159 
Q 2972 1422 2759 906 
Q 2547 391 2217 158 
Q 1888 -75 1581 -75 
Q 975 -75 572 641 
Q 231 1244 231 2094 
z
M 844 2016 
Q 844 1141 1059 588 
Q 1238 122 1591 122 
Q 1759 122 1940 273 
Q 2122 425 2216 781 
Q 2359 1319 2359 2297 
Q 2359 3022 2209 3506 
Q 2097 3866 1919 4016 
Q 1791 4119 1609 4119 
Q 1397 4119 1231 3928 
Q 1006 3669 925 3112 
Q 844 2556 844 2016 
z
" transform="scale(0.015625)"/>
       </defs>
       <use xlink:href="#TimesNewRomanPSMT-30"/>
      </g>
     </g>
    </g>
    <g id="xtick_2">
     <g id="line2d_2">
      <g>
       <use xlink:href="#m46e980d0ca" x="259.532949" y="193.516875" style="stroke: #000000; stroke-width: 0.8"/>
      </g>
     </g>
     <g id="text_2">
      <!-- 50 -->
      <g transform="translate(249.532949 214.404375) scale(0.2 -0.2)">
       <defs>
        <path id="TimesNewRomanPSMT-35" d="M 2778 4238 
L 2534 3706 
L 1259 3706 
L 981 3138 
Q 1809 3016 2294 2522 
Q 2709 2097 2709 1522 
Q 2709 1188 2573 903 
Q 2438 619 2231 419 
Q 2025 219 1772 97 
Q 1413 -75 1034 -75 
Q 653 -75 479 54 
Q 306 184 306 341 
Q 306 428 378 495 
Q 450 563 559 563 
Q 641 563 702 538 
Q 763 513 909 409 
Q 1144 247 1384 247 
Q 1750 247 2026 523 
Q 2303 800 2303 1197 
Q 2303 1581 2056 1914 
Q 1809 2247 1375 2428 
Q 1034 2569 447 2591 
L 1259 4238 
L 2778 4238 
z
" transform="scale(0.015625)"/>
       </defs>
       <use xlink:href="#TimesNewRomanPSMT-35"/>
       <use xlink:href="#TimesNewRomanPSMT-30" x="50"/>
      </g>
     </g>
    </g>
    <g id="xtick_3">
     <g id="line2d_3">
      <g>
       <use xlink:href="#m46e980d0ca" x="413.297866" y="193.516875" style="stroke: #000000; stroke-width: 0.8"/>
      </g>
     </g>
     <g id="text_3">
      <!-- 100 -->
      <g transform="translate(398.297866 214.404375) scale(0.2 -0.2)">
       <defs>
        <path id="TimesNewRomanPSMT-31" d="M 750 3822 
L 1781 4325 
L 1884 4325 
L 1884 747 
Q 1884 391 1914 303 
Q 1944 216 2037 169 
Q 2131 122 2419 116 
L 2419 0 
L 825 0 
L 825 116 
Q 1125 122 1212 167 
Q 1300 213 1334 289 
Q 1369 366 1369 747 
L 1369 3034 
Q 1369 3497 1338 3628 
Q 1316 3728 1258 3775 
Q 1200 3822 1119 3822 
Q 1003 3822 797 3725 
L 750 3822 
z
" transform="scale(0.015625)"/>
       </defs>
       <use xlink:href="#TimesNewRomanPSMT-31"/>
       <use xlink:href="#TimesNewRomanPSMT-30" x="50"/>
       <use xlink:href="#TimesNewRomanPSMT-30" x="100"/>
      </g>
     </g>
    </g>
    <g id="xtick_4">
     <g id="line2d_4">
      <g>
       <use xlink:href="#m46e980d0ca" x="567.062784" y="193.516875" style="stroke: #000000; stroke-width: 0.8"/>
      </g>
     </g>
     <g id="text_4">
      <!-- 150 -->
      <g transform="translate(552.062784 214.404375) scale(0.2 -0.2)">
       <use xlink:href="#TimesNewRomanPSMT-31"/>
       <use xlink:href="#TimesNewRomanPSMT-35" x="50"/>
       <use xlink:href="#TimesNewRomanPSMT-30" x="100"/>
      </g>
     </g>
    </g>
    <g id="xtick_5">
     <g id="line2d_5">
      <g>
       <use xlink:href="#m46e980d0ca" x="720.827701" y="193.516875" style="stroke: #000000; stroke-width: 0.8"/>
      </g>
     </g>
     <g id="text_5">
      <!-- 200 -->
      <g transform="translate(705.827701 214.404375) scale(0.2 -0.2)">
       <defs>
        <path id="TimesNewRomanPSMT-32" d="M 2934 816 
L 2638 0 
L 138 0 
L 138 116 
Q 1241 1122 1691 1759 
Q 2141 2397 2141 2925 
Q 2141 3328 1894 3587 
Q 1647 3847 1303 3847 
Q 991 3847 742 3664 
Q 494 3481 375 3128 
L 259 3128 
Q 338 3706 661 4015 
Q 984 4325 1469 4325 
Q 1984 4325 2329 3994 
Q 2675 3663 2675 3213 
Q 2675 2891 2525 2569 
Q 2294 2063 1775 1497 
Q 997 647 803 472 
L 1909 472 
Q 2247 472 2383 497 
Q 2519 522 2628 598 
Q 2738 675 2819 816 
L 2934 816 
z
" transform="scale(0.015625)"/>
       </defs>
       <use xlink:href="#TimesNewRomanPSMT-32"/>
       <use xlink:href="#TimesNewRomanPSMT-30" x="50"/>
       <use xlink:href="#TimesNewRomanPSMT-30" x="100"/>
      </g>
     </g>
    </g>
    <g id="xtick_6">
     <g id="line2d_6">
      <g>
       <use xlink:href="#m46e980d0ca" x="874.592619" y="193.516875" style="stroke: #000000; stroke-width: 0.8"/>
      </g>
     </g>
     <g id="text_6">
      <!-- 250 -->
      <g transform="translate(859.592619 214.404375) scale(0.2 -0.2)">
       <use xlink:href="#TimesNewRomanPSMT-32"/>
       <use xlink:href="#TimesNewRomanPSMT-35" x="50"/>
       <use xlink:href="#TimesNewRomanPSMT-30" x="100"/>
      </g>
     </g>
    </g>
    <g id="xtick_7">
     <g id="line2d_7">
      <g>
       <use xlink:href="#m46e980d0ca" x="1028.357536" y="193.516875" style="stroke: #000000; stroke-width: 0.8"/>
      </g>
     </g>
     <g id="text_7">
      <!-- 300 -->
      <g transform="translate(1013.357536 214.404375) scale(0.2 -0.2)">
       <defs>
        <path id="TimesNewRomanPSMT-33" d="M 325 3431 
Q 506 3859 782 4092 
Q 1059 4325 1472 4325 
Q 1981 4325 2253 3994 
Q 2459 3747 2459 3466 
Q 2459 3003 1878 2509 
Q 2269 2356 2469 2072 
Q 2669 1788 2669 1403 
Q 2669 853 2319 450 
Q 1863 -75 997 -75 
Q 569 -75 414 31 
Q 259 138 259 259 
Q 259 350 332 419 
Q 406 488 509 488 
Q 588 488 669 463 
Q 722 447 909 348 
Q 1097 250 1169 231 
Q 1284 197 1416 197 
Q 1734 197 1970 444 
Q 2206 691 2206 1028 
Q 2206 1275 2097 1509 
Q 2016 1684 1919 1775 
Q 1784 1900 1550 2001 
Q 1316 2103 1072 2103 
L 972 2103 
L 972 2197 
Q 1219 2228 1467 2375 
Q 1716 2522 1828 2728 
Q 1941 2934 1941 3181 
Q 1941 3503 1739 3701 
Q 1538 3900 1238 3900 
Q 753 3900 428 3381 
L 325 3431 
z
" transform="scale(0.015625)"/>
       </defs>
       <use xlink:href="#TimesNewRomanPSMT-33"/>
       <use xlink:href="#TimesNewRomanPSMT-30" x="50"/>
       <use xlink:href="#TimesNewRomanPSMT-30" x="100"/>
      </g>
     </g>
    </g>
   </g>
   <g id="matplotlib.axis_2">
    <g id="ytick_1">
     <g id="line2d_8">
      <defs>
       <path id="md1243d6fde" d="M 0 0 
L -3.5 0 
" style="stroke: #000000; stroke-width: 0.8"/>
      </defs>
      <g>
       <use xlink:href="#md1243d6fde" x="61.6375" y="191.074546" style="stroke: #000000; stroke-width: 0.8"/>
      </g>
     </g>
     <g id="text_8">
      <!-- 0.0 -->
      <g transform="translate(29.6375 198.018296) scale(0.2 -0.2)">
       <defs>
        <path id="TimesNewRomanPSMT-2e" d="M 800 606 
Q 947 606 1047 504 
Q 1147 403 1147 259 
Q 1147 116 1045 14 
Q 944 -88 800 -88 
Q 656 -88 554 14 
Q 453 116 453 259 
Q 453 406 554 506 
Q 656 606 800 606 
z
" transform="scale(0.015625)"/>
       </defs>
       <use xlink:href="#TimesNewRomanPSMT-30"/>
       <use xlink:href="#TimesNewRomanPSMT-2e" x="50"/>
       <use xlink:href="#TimesNewRomanPSMT-30" x="75"/>
      </g>
     </g>
    </g>
    <g id="ytick_2">
     <g id="line2d_9">
      <g>
       <use xlink:href="#md1243d6fde" x="61.6375" y="144.730055" style="stroke: #000000; stroke-width: 0.8"/>
      </g>
     </g>
     <g id="text_9">
      <!-- 1.0 -->
      <g transform="translate(29.6375 151.673805) scale(0.2 -0.2)">
       <use xlink:href="#TimesNewRomanPSMT-31"/>
       <use xlink:href="#TimesNewRomanPSMT-2e" x="50"/>
       <use xlink:href="#TimesNewRomanPSMT-30" x="75"/>
      </g>
     </g>
    </g>
    <g id="ytick_3">
     <g id="line2d_10">
      <g>
       <use xlink:href="#md1243d6fde" x="61.6375" y="98.385564" style="stroke: #000000; stroke-width: 0.8"/>
      </g>
     </g>
     <g id="text_10">
      <!-- 2.0 -->
      <g transform="translate(29.6375 105.329314) scale(0.2 -0.2)">
       <use xlink:href="#TimesNewRomanPSMT-32"/>
       <use xlink:href="#TimesNewRomanPSMT-2e" x="50"/>
       <use xlink:href="#TimesNewRomanPSMT-30" x="75"/>
      </g>
     </g>
    </g>
    <g id="ytick_4">
     <g id="line2d_11">
      <g>
       <use xlink:href="#md1243d6fde" x="61.6375" y="52.041073" style="stroke: #000000; stroke-width: 0.8"/>
      </g>
     </g>
     <g id="text_11">
      <!-- 3.0 -->
      <g transform="translate(29.6375 58.984823) scale(0.2 -0.2)">
       <use xlink:href="#TimesNewRomanPSMT-33"/>
       <use xlink:href="#TimesNewRomanPSMT-2e" x="50"/>
       <use xlink:href="#TimesNewRomanPSMT-30" x="75"/>
      </g>
     </g>
    </g>
    <g id="text_12">
     <!-- CPU使用率 -->
     <g transform="translate(23.059375 156.288125) rotate(-90) scale(0.2 -0.2)">
      <defs>
       <path id="SimSun-43" d="M 1725 50 
Q 1025 50 612 575 
Q 200 1100 200 2225 
Q 200 3175 637 3800 
Q 1075 4425 1825 4425 
Q 2000 4425 2175 4375 
Q 2350 4300 2475 4300 
Q 2575 4300 2637 4325 
Q 2700 4350 2750 4425 
L 2975 3325 
L 2825 3275 
Q 2675 3750 2425 4000 
Q 2175 4250 1775 4250 
Q 1250 4250 962 3675 
Q 675 3100 675 2250 
Q 675 1325 925 800 
Q 1175 275 1750 275 
Q 2150 275 2437 562 
Q 2725 850 2825 1325 
L 2975 1250 
Q 2850 725 2512 387 
Q 2175 50 1725 50 
z
" transform="scale(0.015625)"/>
       <path id="SimSun-50" d="M 950 2100 
L 950 450 
Q 950 350 1012 300 
Q 1075 250 1175 250 
L 1350 250 
L 1350 100 
L 150 100 
L 150 250 
L 325 250 
Q 450 250 500 300 
Q 550 350 550 450 
L 550 4025 
Q 550 4125 500 4175 
Q 450 4225 325 4225 
L 175 4225 
L 175 4375 
L 1650 4375 
Q 2275 4375 2612 4062 
Q 2950 3750 2950 3275 
Q 2950 2700 2587 2400 
Q 2225 2100 1725 2100 
L 950 2100 
z
M 1575 2250 
Q 1950 2250 2237 2475 
Q 2525 2700 2525 3250 
Q 2525 3750 2287 3987 
Q 2050 4225 1525 4225 
L 1175 4225 
Q 1075 4225 1012 4175 
Q 950 4125 950 4025 
L 950 2250 
L 1575 2250 
z
" transform="scale(0.015625)"/>
       <path id="SimSun-55" d="M 1625 250 
Q 2000 250 2262 500 
Q 2525 750 2525 1125 
L 2525 4025 
Q 2525 4125 2475 4175 
Q 2425 4225 2300 4225 
L 2150 4225 
L 2150 4375 
L 3050 4375 
L 3050 4225 
L 2900 4225 
Q 2800 4225 2737 4175 
Q 2675 4125 2675 4025 
L 2675 1125 
Q 2675 625 2337 337 
Q 2000 50 1575 50 
Q 1125 50 787 300 
Q 450 550 450 1100 
L 450 4025 
Q 450 4125 400 4175 
Q 350 4225 225 4225 
L 100 4225 
L 100 4375 
L 1200 4375 
L 1200 4225 
L 1075 4225 
Q 975 4225 912 4175 
Q 850 4125 850 4025 
L 850 1100 
Q 850 600 1062 425 
Q 1275 250 1625 250 
z
" transform="scale(0.015625)"/>
       <path id="SimSun-4f7f" d="M 2875 3150 
L 2875 2100 
L 3825 2100 
Q 3850 2825 3850 3150 
L 2875 3150 
z
M 4175 3150 
Q 4175 2800 4150 2100 
L 5150 2100 
L 5150 3150 
L 4175 3150 
z
M 5475 3100 
L 5475 2425 
Q 5475 2100 5500 1800 
L 5150 1675 
L 5150 1950 
L 4150 1950 
Q 4125 1175 3875 600 
Q 4275 275 4875 75 
Q 5475 -125 6075 -150 
L 6075 -250 
Q 5700 -300 5600 -575 
Q 4525 -325 3725 350 
Q 3425 25 2925 -225 
Q 2425 -475 1875 -650 
L 1825 -550 
Q 2400 -325 2850 -25 
Q 3300 275 3500 575 
Q 3200 925 2825 1650 
L 2900 1700 
Q 3325 1100 3625 825 
Q 3800 1300 3825 1950 
L 2875 1950 
L 2875 1825 
L 2525 1675 
Q 2550 2075 2550 2562 
Q 2550 3050 2525 3500 
L 2875 3300 
L 3850 3300 
L 3850 4025 
L 2975 4025 
Q 2650 4025 2375 3950 
L 2150 4175 
L 3850 4175 
L 3850 4525 
Q 3850 4775 3825 5225 
L 4350 5000 
L 4175 4825 
L 4175 4175 
L 5300 4175 
L 5600 4475 
L 6050 4025 
L 4175 4025 
L 4175 3300 
L 5100 3300 
L 5275 3525 
L 5650 3225 
L 5475 3100 
z
M 1675 3175 
L 1675 -450 
L 1325 -625 
Q 1350 -75 1350 350 
L 1350 3200 
Q 900 2475 350 1900 
L 275 1950 
Q 700 2525 1112 3400 
Q 1525 4275 1800 5250 
L 2325 4925 
L 2125 4800 
Q 1725 3925 1500 3525 
L 1875 3325 
L 1675 3175 
z
" transform="scale(0.015625)"/>
       <path id="SimSun-7528" d="M 3400 3150 
L 3400 1825 
L 5075 1825 
L 5075 3150 
L 3400 3150 
z
M 4075 100 
Q 4725 50 4900 62 
Q 5075 75 5075 400 
L 5075 1675 
L 3400 1675 
Q 3400 75 3425 -225 
L 3050 -400 
Q 3075 1025 3075 1675 
L 1425 1675 
Q 1250 350 375 -600 
L 300 -550 
Q 775 225 950 1025 
Q 1125 1825 1125 3225 
Q 1125 4625 1100 5075 
L 1475 4825 
L 5050 4825 
L 5225 5100 
L 5625 4800 
L 5425 4600 
L 5425 225 
Q 5450 -400 4875 -575 
Q 4825 -150 4075 -25 
L 4075 100 
z
M 1475 4675 
L 1475 3300 
L 3075 3300 
L 3075 4675 
L 1475 4675 
z
M 3400 4675 
L 3400 3300 
L 5075 3300 
L 5075 4675 
L 3400 4675 
z
M 1475 3150 
Q 1450 2100 1425 1825 
L 3075 1825 
L 3075 3150 
L 1475 3150 
z
" transform="scale(0.015625)"/>
       <path id="SimSun-7387" d="M 875 3725 
L 925 3800 
Q 1375 3650 1550 3525 
Q 1725 3400 1725 3250 
Q 1725 3175 1662 3025 
Q 1600 2875 1550 2875 
Q 1500 2875 1425 3050 
Q 1275 3325 875 3725 
z
M 550 1850 
Q 875 1925 2000 2575 
L 2050 2500 
Q 1675 2225 1337 1937 
Q 1000 1650 875 1425 
L 550 1850 
z
M 5200 3450 
Q 4800 3150 4275 2800 
L 4225 2875 
Q 4775 3400 5050 3925 
L 5450 3525 
L 5200 3450 
z
M 4325 2500 
L 4350 2575 
Q 5225 2350 5375 2212 
Q 5525 2075 5525 1900 
Q 5525 1775 5487 1662 
Q 5450 1550 5400 1550 
Q 5325 1550 5200 1800 
Q 4975 2150 4325 2500 
z
M 3150 3900 
Q 2500 3300 2300 3150 
Q 2800 3150 3400 3175 
Q 3700 3500 3850 3825 
L 4250 3450 
Q 4050 3400 3450 2825 
Q 2850 2250 2475 1950 
Q 3150 1975 3850 2000 
Q 3750 2175 3550 2450 
L 3600 2500 
Q 4050 2250 4200 2100 
Q 4350 1950 4350 1850 
Q 4350 1775 4250 1625 
Q 4150 1475 4100 1475 
Q 4075 1475 4050 1550 
Q 4000 1700 3900 1900 
Q 3650 1875 3075 1800 
L 3500 1550 
L 3325 1425 
L 3325 975 
L 5325 975 
L 5650 1300 
L 6100 825 
L 3325 825 
Q 3325 -275 3350 -525 
L 2975 -650 
Q 3000 0 3000 825 
L 1125 825 
Q 800 825 525 750 
L 300 975 
L 3000 975 
L 3000 1775 
Q 2450 1700 2200 1525 
L 1950 1950 
Q 2275 1950 2675 2350 
Q 3075 2750 3325 3050 
Q 2400 2950 2150 2775 
L 1950 3175 
Q 2150 3150 2475 3575 
Q 2800 4000 2900 4225 
L 1450 4225 
Q 1125 4225 850 4150 
L 625 4375 
L 3100 4375 
Q 3050 4800 2675 5200 
L 2725 5250 
Q 3225 5050 3337 4912 
Q 3450 4775 3450 4700 
Q 3450 4550 3250 4375 
L 5025 4375 
L 5350 4675 
L 5775 4225 
L 3050 4225 
L 3375 3950 
L 3150 3900 
z
" transform="scale(0.015625)"/>
      </defs>
      <use xlink:href="#SimSun-43"/>
      <use xlink:href="#SimSun-50" x="50"/>
      <use xlink:href="#SimSun-55" x="100"/>
      <use xlink:href="#SimSun-4f7f" x="150"/>
      <use xlink:href="#SimSun-7528" x="250"/>
      <use xlink:href="#SimSun-7387" x="350"/>
     </g>
    </g>
   </g>
   <g id="line2d_12">
    <path d="M 105.768031 134.626953 
L 108.84333 138.603313 
L 111.918628 141.022494 
L 114.993926 140.299521 
L 118.069225 139.29848 
L 121.144523 144.832013 
L 124.219821 142.802125 
L 127.29512 142.913353 
L 130.370418 146.194541 
L 133.445716 147.529263 
L 136.521015 145.972086 
L 139.596313 147.584877 
L 142.671612 170.247331 
L 145.74691 141.884501 
L 148.822208 141.662049 
L 151.897507 142.551862 
L 154.972805 143.77536 
L 158.048103 143.914389 
L 161.123402 146.556027 
L 164.1987 160.867208 
L 167.273998 163.67568 
L 170.349297 167.012485 
L 173.424595 170.905422 
L 176.499893 172.054768 
L 179.575192 169.774617 
L 182.65049 171.109338 
L 185.725788 172.128918 
L 188.801087 174.019772 
L 191.876385 173.611942 
L 194.951683 175.150577 
L 198.026982 176.244307 
L 201.10228 178.487382 
L 204.177579 179.988942 
L 207.252877 184.539978 
L 210.328175 178.50592 
L 213.403474 184.697547 
L 216.478772 177.708792 
L 219.55407 184.020916 
L 222.629369 177.3195 
L 225.704667 181.017792 
L 228.779965 173.834396 
L 231.855264 175.502799 
L 234.930562 175.104233 
L 238.00586 175.975511 
L 241.081159 176.086737 
L 244.156457 176.939476 
L 247.231755 176.81898 
L 250.307054 177.634643 
L 253.382352 177.597566 
L 256.45765 177.690257 
L 259.532949 175.660366 
L 262.608247 177.097049 
L 265.683546 176.374073 
L 268.758844 178.34835 
L 271.834142 177.884903 
L 274.909441 178.793257 
L 277.984739 178.042473 
L 281.060037 182.111521 
L 284.135336 182.890111 
L 287.210634 184.558507 
L 290.285932 178.67276 
L 293.361231 179.5255 
L 296.436529 172.221606 
L 299.511827 178.709834 
L 302.587126 181.268055 
L 308.737722 182.204209 
L 311.813021 181.685153 
L 314.888319 180.619227 
L 317.963617 181.787111 
L 321.038916 180.49873 
L 324.114214 177.384382 
L 327.189513 179.618188 
L 330.264811 184.994152 
L 333.340109 183.094027 
L 336.415408 184.651201 
L 339.490706 185.74493 
L 342.566004 186.041534 
L 345.641303 185.976652 
L 348.716601 185.559554 
L 351.791899 179.571844 
L 354.867198 184.206292 
L 357.942496 179.822102 
L 361.017794 176.448223 
L 364.093093 178.67276 
L 367.168391 178.302004 
L 370.243689 179.729414 
L 373.318988 178.061014 
L 376.394286 175.076428 
L 379.469584 176.096007 
L 382.544883 175.910629 
L 385.620181 175.873553 
L 388.69548 176.336997 
L 391.770778 174.724209 
L 394.846076 173.96416 
L 397.921375 173.519254 
L 400.996673 172.425522 
L 404.071971 172.258682 
L 407.14727 170.682967 
L 410.222568 160.23692 
L 413.297866 160.097886 
L 416.373165 172.406984 
L 419.448463 171.313255 
L 422.523761 171.461557 
L 425.59906 161.247232 
L 428.674358 157.437716 
L 431.749656 157.066959 
L 434.824955 158.512907 
L 437.900253 149.725992 
L 440.975551 139.409709 
L 444.05085 141.801083 
L 447.126148 142.839201 
L 450.201447 145.063736 
L 453.276745 145.656944 
L 456.352043 149.957714 
L 459.427342 150.736301 
L 462.50264 147.251197 
L 465.577938 152.701307 
L 468.653237 148.40054 
L 471.728535 149.512807 
L 474.803833 142.097688 
L 477.879132 131.290154 
L 480.95443 118.638108 
L 484.029728 111.825465 
L 487.105027 78.76331 
L 490.180325 109.044798 
L 493.255623 116.506262 
L 496.330922 121.048018 
L 499.40622 106.72757 
L 502.481518 110.203409 
L 505.556817 100.610104 
L 508.632115 110.249756 
L 511.707414 97.59771 
L 514.782712 82.202067 
L 517.85801 74.786956 
L 520.933309 80.737581 
L 524.008607 89.023981 
L 527.083905 88.245386 
L 530.159204 90.868489 
L 533.234502 97.560639 
L 536.3098 73.285388 
L 539.385099 93.028147 
L 542.460397 86.020857 
L 545.535695 86.410149 
L 548.610994 89.357662 
L 551.686292 83.407025 
L 554.76159 84.574912 
L 557.836889 93.602814 
L 560.912187 101.815056 
L 563.987485 97.59771 
L 567.062784 86.475031 
L 570.138082 80.348289 
L 573.213381 78.902344 
L 576.288679 80.348289 
L 579.363977 84.074386 
L 582.439276 83.351414 
L 585.514574 152.923762 
L 588.589872 80.014609 
L 591.665171 79.236025 
L 594.740469 88.634689 
L 597.815767 95.975648 
L 600.891066 91.526579 
L 603.966364 94.918995 
L 607.041662 114.930547 
L 610.116961 111.779124 
L 613.192259 109.971687 
L 616.267557 109.508242 
L 619.342856 113.447526 
L 622.418154 111.269332 
L 625.493452 104.966485 
L 628.568751 87.133122 
L 631.644049 90.191857 
L 634.719348 102.612181 
L 637.794646 111.871811 
L 640.869944 109.60093 
L 643.945243 110.203409 
L 647.020541 104.039591 
L 650.095839 119.982095 
L 653.171138 121.279741 
L 656.246436 120.028442 
L 659.321734 109.183832 
L 662.397033 92.332975 
L 665.472331 100.702786 
L 668.547629 114.328068 
L 671.622928 109.183832 
L 674.698226 112.14988 
L 677.773524 118.128317 
L 680.848823 116.923359 
L 683.924121 116.228193 
L 686.999419 117.850254 
L 690.074718 120.44554 
L 693.150016 118.869831 
L 696.225315 108.95211 
L 699.300613 96.142494 
L 702.375911 98.978773 
L 705.45121 97.92212 
L 708.526508 99.145613 
L 711.601806 97.866508 
L 714.677105 92.472009 
L 717.752403 90.080634 
L 720.827701 84.908582 
L 723.903 89.135204 
L 726.978298 80.125832 
L 730.053596 82.906499 
L 733.128895 84.408067 
L 736.204193 80.848816 
L 739.279491 90.692384 
L 742.35479 98.088965 
L 745.430088 111.260067 
L 748.505386 114.23538 
L 751.580685 109.786311 
L 754.655983 103.613223 
L 757.731282 110.101451 
L 760.80658 120.44554 
L 763.881878 115.857436 
L 766.957177 117.479497 
L 770.032475 111.593748 
L 773.107773 112.613325 
L 776.183072 95.308287 
L 779.25837 103.437112 
L 782.333668 105.476271 
L 785.408967 108.071562 
L 788.484265 106.634888 
L 791.559563 112.196221 
L 794.634862 108.581353 
L 797.71016 111.825465 
L 800.785458 113.215804 
L 803.860757 109.878999 
L 806.936055 114.976894 
L 810.011353 111.964499 
L 813.086652 113.262145 
L 816.16195 112.752354 
L 819.237249 95.35464 
L 822.312547 93.528662 
L 825.387845 84.964204 
L 828.463144 90.692384 
L 831.538442 76.622193 
L 834.61374 74.703533 
L 837.689039 50.539516 
L 840.764337 53.588982 
L 843.839635 71.820902 
L 846.914934 66.824966 
L 849.990232 84.463678 
L 853.06553 73.007319 
L 856.140829 66.723013 
L 859.216127 83.407025 
L 862.291425 82.461595 
L 865.366724 87.856094 
L 868.442022 91.526579 
L 871.51732 89.580108 
L 874.592619 89.413273 
L 877.667917 93.973566 
L 880.743216 85.742788 
L 883.818514 82.461595 
L 886.893812 82.628441 
L 889.969111 78.281325 
L 893.044409 69.939313 
L 896.119707 69.030965 
L 899.195006 88.412232 
L 902.270304 83.24019 
L 905.345602 88.579078 
L 908.420901 92.916913 
L 911.496199 89.63572 
L 914.571497 94.41848 
L 917.646796 76.566581 
L 920.722094 95.938578 
L 923.797392 91.693425 
L 926.872691 94.177482 
L 929.947989 95.604897 
L 933.023287 96.624479 
L 936.098586 104.085938 
L 942.249183 102.510223 
L 945.324481 98.339223 
L 948.399779 98.107495 
L 951.475078 107.376396 
L 954.550376 108.95211 
L 957.625674 117.331192 
L 960.700973 117.627796 
L 963.776271 117.405345 
L 966.851569 116.589679 
L 969.926868 121.372434 
L 973.002166 122.521775 
L 976.077464 119.555727 
L 982.228061 132.75464 
L 985.303359 131.197461 
L 988.378658 125.673198 
L 988.378658 125.673198 
" clip-path="url(#p4dc2a29674)" style="fill: none; stroke: #1f77b4; stroke-width: 1.5; stroke-linecap: square"/>
   </g>
   <g id="line2d_13">
    <path d="M 548.610994 43.280942 
L 551.686292 44.91677 
L 554.76159 43.137742 
L 557.836889 44.028587 
L 560.912187 43.177983 
L 563.987485 44.54687 
L 567.062784 44.236968 
L 570.138082 44.91803 
L 573.213381 43.99102 
L 576.288679 44.398764 
L 579.363977 45.418843 
L 582.439276 43.570237 
L 585.514574 44.746444 
L 588.589872 44.902616 
L 591.665171 45.587601 
L 594.740469 45.112168 
L 597.815767 45.559381 
L 607.041662 45.90969 
L 610.116961 45.708415 
L 613.192259 45.39111 
L 616.267557 45.756888 
L 619.342856 46.403189 
L 622.418154 45.680747 
L 625.493452 46.441376 
L 628.568751 45.66941 
L 631.644049 45.572717 
L 634.719348 46.608608 
L 637.794646 46.505772 
L 640.869944 46.925858 
L 643.945243 47.171917 
L 653.171138 47.492891 
L 656.246436 47.906613 
L 659.321734 47.419866 
L 662.397033 47.574888 
L 665.472331 48.041029 
L 668.547629 48.081624 
L 671.622928 47.769512 
L 674.698226 47.069545 
L 677.773524 47.485852 
L 680.848823 48.029217 
L 683.924121 48.236371 
L 686.999419 46.929262 
L 690.074718 46.573858 
L 693.150016 48.363903 
L 696.225315 48.328103 
L 699.300613 46.388085 
L 702.375911 46.182555 
L 705.45121 47.39306 
L 708.526508 47.176547 
L 711.601806 47.101279 
L 714.677105 46.766604 
L 717.752403 47.134316 
L 720.827701 46.814005 
L 723.903 45.896641 
L 726.978298 46.670374 
L 730.053596 45.771197 
L 733.128895 47.037623 
L 736.204193 45.319056 
L 739.279491 44.990403 
L 742.35479 44.930516 
L 745.430088 44.328357 
L 748.505386 45.400888 
L 751.580685 44.681971 
L 754.655983 44.810829 
L 757.731282 44.686512 
L 760.80658 43.488427 
L 763.881878 42.647966 
L 766.957177 43.213772 
L 770.032475 42.769841 
L 773.107773 43.15868 
L 776.183072 43.16236 
L 779.25837 43.489267 
L 782.333668 42.134104 
L 785.408967 42.184213 
L 788.484265 41.859106 
L 791.559563 40.802476 
L 794.634862 41.377386 
L 797.71016 40.337075 
L 800.785458 39.63355 
L 803.860757 40.568229 
L 806.936055 39.296643 
L 810.011353 39.957164 
L 813.086652 39.482118 
L 816.16195 38.797973 
L 819.237249 39.270445 
L 822.312547 40.1736 
L 825.387845 39.099323 
L 828.463144 39.637307 
L 831.538442 38.287933 
L 834.61374 39.366563 
L 837.689039 39.663648 
L 840.764337 38.432371 
L 843.839635 37.874996 
L 846.914934 38.227858 
L 849.990232 38.747676 
L 853.06553 37.476897 
L 856.140829 37.737994 
L 859.216127 36.784874 
L 862.291425 37.825086 
L 865.366724 38.198776 
L 868.442022 38.359301 
L 871.51732 36.534716 
L 874.592619 38.53365 
L 877.667917 37.900365 
L 880.743216 37.731619 
L 883.818514 37.924718 
L 886.893812 37.152907 
L 889.969111 37.92327 
L 893.044409 38.113375 
L 896.119707 37.887614 
L 899.195006 39.190812 
L 902.270304 38.046361 
L 905.345602 37.239225 
L 908.420901 38.383024 
L 911.496199 39.871974 
L 914.571497 40.512087 
L 917.646796 39.834019 
L 920.722094 40.314004 
L 923.797392 40.62121 
L 926.872691 39.877719 
L 929.947989 42.257956 
L 933.023287 42.543218 
L 936.098586 43.175928 
L 939.173884 43.535442 
L 942.249183 43.339338 
L 945.324481 44.372102 
L 948.399779 44.679739 
L 954.550376 46.1168 
L 957.625674 47.563817 
L 960.700973 47.700531 
L 966.851569 50.947681 
L 969.926868 51.783689 
L 976.077464 54.408625 
L 979.152763 54.230498 
L 982.228061 57.176652 
L 985.303359 57.981997 
L 988.378658 59.812638 
L 988.378658 59.812638 
" clip-path="url(#p4dc2a29674)" style="fill: none; stroke: #ff7f0e; stroke-width: 1.5; stroke-linecap: square"/>
   </g>
   <g id="line2d_14">
    <path d="M 548.610994 193.516875 
L 548.610994 29.059375 
" clip-path="url(#p4dc2a29674)" style="fill: none; stroke-dasharray: 7.4,3.2; stroke-dashoffset: 0; stroke: #0000ff; stroke-width: 2"/>
   </g>
   <g id="patch_3">
    <path d="M 61.6375 193.516875 
L 61.6375 29.059375 
" style="fill: none; stroke: #000000; stroke-width: 0.8; stroke-linejoin: miter; stroke-linecap: square"/>
   </g>
   <g id="patch_4">
    <path d="M 1032.509189 193.516875 
L 1032.509189 29.059375 
" style="fill: none; stroke: #000000; stroke-width: 0.8; stroke-linejoin: miter; stroke-linecap: square"/>
   </g>
   <g id="patch_5">
    <path d="M 61.6375 193.516875 
L 1032.509189 193.516875 
" style="fill: none; stroke: #000000; stroke-width: 0.8; stroke-linejoin: miter; stroke-linecap: square"/>
   </g>
   <g id="patch_6">
    <path d="M 61.6375 29.059375 
L 1032.509189 29.059375 
" style="fill: none; stroke: #000000; stroke-width: 0.8; stroke-linejoin: miter; stroke-linecap: square"/>
   </g>
   <g id="text_13">
    <!-- 云函数ID: 28 -->
    <g transform="translate(487.073345 23.059375) scale(0.2 -0.2)">
     <defs>
      <path id="SimSun-4e91" d="M 1200 4450 
L 4500 4450 
L 4850 4800 
L 5350 4300 
L 1975 4300 
Q 1700 4300 1425 4225 
L 1200 4450 
z
M 1600 275 
Q 2300 300 4725 450 
Q 4425 975 3850 1700 
L 3925 1775 
Q 5200 725 5287 500 
Q 5375 275 5375 175 
Q 5375 0 5250 -162 
Q 5125 -325 5075 -325 
Q 5025 -325 4975 -200 
Q 4875 50 4775 300 
Q 1650 -25 1300 -300 
L 975 300 
Q 1225 350 1462 550 
Q 1700 750 2150 1462 
Q 2600 2175 2725 2600 
L 1250 2600 
Q 925 2600 650 2525 
L 425 2750 
L 5025 2750 
L 5450 3175 
L 6025 2600 
L 3250 2600 
Q 3000 2025 2500 1375 
Q 2000 725 1600 275 
z
" transform="scale(0.015625)"/>
      <path id="SimSun-51fd" d="M 3050 2275 
L 3050 3000 
Q 3050 3450 3025 3800 
L 3275 3625 
L 4450 4475 
L 1650 4475 
Q 1325 4475 1050 4400 
L 825 4625 
L 4450 4625 
L 4775 4875 
L 5150 4375 
Q 4875 4325 4550 4175 
Q 4225 4025 3400 3550 
L 3550 3450 
L 3375 3325 
L 3375 2400 
Q 4250 3225 4475 3600 
L 4875 3150 
L 4625 3125 
Q 3625 2425 3400 2275 
Q 4575 1675 4687 1487 
Q 4800 1300 4800 1150 
Q 4800 1025 4750 925 
Q 4700 825 4675 825 
Q 4575 825 4375 1150 
Q 4075 1600 3375 2150 
L 3375 725 
Q 3375 350 2875 150 
Q 2850 450 2200 650 
L 2200 750 
Q 2800 675 2925 700 
Q 3050 725 3050 850 
L 3050 2100 
Q 1850 1300 1625 1025 
L 1275 1400 
Q 1575 1475 2087 1725 
Q 2600 1975 3050 2275 
z
M 1700 3475 
L 1775 3550 
Q 2350 3200 2475 3025 
Q 2600 2850 2600 2775 
Q 2600 2650 2500 2525 
Q 2400 2400 2350 2400 
Q 2275 2400 2225 2575 
Q 2150 2875 1700 3475 
z
M 5150 0 
L 5150 2175 
Q 5150 2725 5125 3325 
L 5725 3050 
L 5500 2850 
L 5500 525 
Q 5500 100 5525 -400 
L 5150 -600 
L 5150 -150 
L 1250 -150 
L 1000 -375 
L 675 -50 
L 875 125 
L 875 2375 
Q 875 2800 850 3425 
L 1450 3150 
L 1225 2975 
L 1225 0 
L 5150 0 
z
" transform="scale(0.015625)"/>
      <path id="SimSun-6570" d="M 1875 1525 
Q 1675 1200 1500 900 
Q 1825 825 2275 725 
Q 2500 975 2725 1525 
L 1875 1525 
z
M 850 4900 
Q 1325 4600 1425 4450 
Q 1525 4300 1525 4225 
Q 1525 4100 1437 3975 
Q 1350 3850 1300 3850 
Q 1225 3850 1150 4100 
Q 1050 4450 775 4850 
L 850 4900 
z
M 3000 4975 
L 3450 4675 
Q 3250 4625 3100 4425 
Q 2925 4225 2525 3825 
L 2450 3875 
Q 2925 4625 3000 4975 
z
M 1875 5250 
L 2425 5000 
L 2225 4825 
L 2225 3675 
L 2850 3675 
L 3125 3950 
L 3550 3525 
L 2225 3525 
L 2225 3300 
Q 2800 3175 2937 3062 
Q 3075 2950 3075 2775 
Q 3075 2700 3050 2587 
Q 3025 2475 2975 2475 
Q 2925 2475 2800 2650 
Q 2600 2925 2225 3175 
L 2225 2400 
L 1925 2200 
L 2275 2050 
Q 2150 2000 1950 1675 
L 2725 1675 
L 2900 1900 
L 3275 1575 
L 3050 1450 
Q 2800 875 2600 650 
Q 3000 550 3137 437 
Q 3275 325 3275 150 
Q 3275 -25 3200 -25 
Q 3125 -25 3025 75 
Q 2750 275 2400 425 
Q 1525 -275 325 -500 
L 300 -425 
Q 1450 -50 2100 550 
Q 1600 725 1125 800 
Q 1225 950 1525 1525 
L 1200 1525 
Q 875 1525 600 1450 
L 375 1675 
L 1575 1675 
Q 1675 1925 1775 2275 
L 1900 2225 
L 1900 3250 
Q 1225 2475 350 2050 
L 300 2125 
Q 1225 2775 1700 3525 
L 1250 3525 
Q 925 3525 650 3450 
L 425 3675 
L 1900 3675 
Q 1900 4575 1875 5250 
z
M 3925 3525 
Q 4050 2075 4525 1100 
Q 4925 1950 5025 3525 
L 3925 3525 
z
M 4050 5250 
L 4625 4925 
Q 4425 4850 4325 4625 
Q 4225 4400 3950 3675 
L 5375 3675 
L 5675 3975 
L 6125 3525 
L 5400 3525 
Q 5250 1675 4750 775 
Q 5325 75 6100 -100 
L 6100 -200 
Q 5625 -275 5600 -500 
Q 4950 -50 4525 525 
Q 3700 -275 2550 -650 
L 2500 -575 
Q 3650 -50 4325 800 
Q 3850 1975 3825 3375 
Q 3575 2725 3100 2150 
L 3025 2200 
Q 3625 3200 4050 5250 
z
" transform="scale(0.015625)"/>
      <path id="SimSun-49" d="M 600 4225 
L 600 4375 
L 2600 4375 
L 2600 4225 
L 2025 4225 
Q 1925 4225 1862 4175 
Q 1800 4125 1800 4025 
L 1800 450 
Q 1800 350 1862 300 
Q 1925 250 2025 250 
L 2600 250 
L 2600 100 
L 600 100 
L 600 250 
L 1175 250 
Q 1300 250 1350 300 
Q 1400 350 1400 450 
L 1400 4025 
Q 1400 4125 1350 4175 
Q 1300 4225 1175 4225 
L 600 4225 
z
" transform="scale(0.015625)"/>
      <path id="SimSun-44" d="M 2500 2275 
Q 2500 3350 2175 3787 
Q 1850 4225 1275 4225 
Q 1100 4225 1012 4175 
Q 925 4125 925 4025 
L 925 450 
Q 925 350 1000 300 
Q 1075 250 1200 250 
Q 1750 250 2125 662 
Q 2500 1075 2500 2275 
z
M 525 4025 
Q 525 4125 475 4175 
Q 425 4225 300 4225 
L 150 4225 
L 150 4375 
L 1275 4375 
Q 2050 4375 2512 3875 
Q 2975 3375 2975 2325 
Q 2975 1175 2525 637 
Q 2075 100 1200 100 
L 125 100 
L 125 250 
L 300 250 
Q 425 250 475 300 
Q 525 350 525 450 
L 525 4025 
z
" transform="scale(0.015625)"/>
      <path id="SimSun-3a" d="M 1900 2725 
Q 1900 2575 1800 2475 
Q 1700 2375 1550 2375 
Q 1400 2375 1300 2475 
Q 1200 2575 1200 2725 
Q 1200 2875 1300 2975 
Q 1400 3075 1550 3075 
Q 1700 3075 1800 2975 
Q 1900 2875 1900 2725 
z
M 1900 375 
Q 1900 225 1800 125 
Q 1700 25 1550 25 
Q 1400 25 1300 125 
Q 1200 225 1200 375 
Q 1200 525 1300 625 
Q 1400 725 1550 725 
Q 1700 725 1800 625 
Q 1900 525 1900 375 
z
" transform="scale(0.015625)"/>
      <path id="SimSun-20" d="M 0 0 
Q 0 0 0 0 
z
" transform="scale(0.015625)"/>
      <path id="SimSun-32" d="M 2325 3325 
Q 2325 3775 2125 4012 
Q 1925 4250 1525 4250 
Q 1225 4250 1012 4087 
Q 800 3925 800 3675 
Q 800 3525 900 3425 
Q 975 3325 975 3225 
Q 975 3100 912 3037 
Q 850 2975 725 2975 
Q 575 2975 487 3062 
Q 400 3150 400 3350 
Q 400 3875 775 4150 
Q 1150 4425 1575 4425 
Q 2175 4425 2462 4125 
Q 2750 3825 2750 3375 
Q 2750 3075 2612 2775 
Q 2475 2475 2175 2200 
Q 1450 1500 1062 1062 
Q 675 625 600 475 
L 2075 475 
Q 2300 475 2450 650 
Q 2600 825 2650 1175 
L 2800 1175 
L 2650 100 
L 325 100 
L 325 425 
Q 450 650 737 1000 
Q 1025 1350 1500 1825 
Q 1925 2250 2125 2625 
Q 2325 3000 2325 3325 
z
" transform="scale(0.015625)"/>
      <path id="SimSun-38" d="M 625 1125 
Q 625 725 887 475 
Q 1150 225 1550 225 
Q 2025 225 2237 475 
Q 2450 725 2450 1100 
Q 2450 1425 2150 1725 
Q 1850 2025 1250 2275 
Q 950 2075 787 1775 
Q 625 1475 625 1125 
z
M 2825 1175 
Q 2825 700 2475 375 
Q 2125 50 1550 50 
Q 1025 50 650 375 
Q 275 700 275 1125 
Q 275 1550 487 1850 
Q 700 2150 1100 2375 
Q 750 2550 562 2812 
Q 375 3075 375 3400 
Q 375 3825 700 4125 
Q 1025 4425 1600 4425 
Q 2125 4425 2450 4125 
Q 2775 3825 2775 3400 
Q 2775 3100 2587 2837 
Q 2400 2575 2000 2375 
Q 2425 2125 2625 1825 
Q 2825 1525 2825 1175 
z
M 2425 3375 
Q 2425 3725 2225 3987 
Q 2025 4250 1600 4250 
Q 1125 4250 925 4000 
Q 725 3750 725 3475 
Q 725 3200 1012 2937 
Q 1300 2675 1825 2475 
Q 2125 2625 2275 2850 
Q 2425 3075 2425 3375 
z
" transform="scale(0.015625)"/>
     </defs>
     <use xlink:href="#SimSun-4e91"/>
     <use xlink:href="#SimSun-51fd" x="100"/>
     <use xlink:href="#SimSun-6570" x="200"/>
     <use xlink:href="#SimSun-49" x="300"/>
     <use xlink:href="#SimSun-44" x="350"/>
     <use xlink:href="#SimSun-3a" x="400"/>
     <use xlink:href="#SimSun-20" x="450"/>
     <use xlink:href="#SimSun-32" x="500"/>
     <use xlink:href="#SimSun-38" x="550"/>
    </g>
   </g>
   <g id="legend_1">
    <g id="patch_7">
     <path d="M 75.6375 101.934375 
L 199.6375 101.934375 
Q 203.6375 101.934375 203.6375 97.934375 
L 203.6375 43.059375 
Q 203.6375 39.059375 199.6375 39.059375 
L 75.6375 39.059375 
Q 71.6375 39.059375 71.6375 43.059375 
L 71.6375 97.934375 
Q 71.6375 101.934375 75.6375 101.934375 
z
" style="fill: #ffffff; opacity: 0.8; stroke: #cccccc; stroke-linejoin: miter"/>
    </g>
    <g id="line2d_15">
     <path d="M 79.6375 55.996875 
L 99.6375 55.996875 
L 119.6375 55.996875 
" style="fill: none; stroke: #1f77b4; stroke-width: 1.5; stroke-linecap: square"/>
    </g>
    <g id="text_14">
     <!-- 真实值 -->
     <g transform="translate(135.6375 62.996875) scale(0.2 -0.2)">
      <defs>
       <path id="SimSun-771f" d="M 2050 3450 
L 2050 2900 
L 4300 2900 
L 4300 3450 
L 2050 3450 
z
M 2050 2750 
L 2050 2225 
L 4300 2225 
L 4300 2750 
L 2050 2750 
z
M 2050 2075 
L 2050 1550 
L 4300 1550 
L 4300 2075 
L 2050 2075 
z
M 2050 1400 
L 2050 875 
L 4300 875 
L 4300 1400 
L 2050 1400 
z
M 2875 3600 
L 2925 4325 
L 1525 4325 
Q 1200 4325 925 4250 
L 700 4475 
L 2950 4475 
Q 2975 4825 2975 5275 
L 3550 5025 
L 3375 4925 
L 3300 4475 
L 5000 4475 
L 5325 4825 
L 5775 4325 
L 3275 4325 
L 3200 3600 
L 4275 3600 
L 4450 3875 
L 4850 3575 
L 4650 3375 
L 4650 875 
L 5300 875 
L 5675 1225 
L 6125 725 
L 1150 725 
Q 825 725 550 650 
L 325 875 
L 1700 875 
Q 1700 3200 1675 3775 
L 2050 3600 
L 2875 3600 
z
M 2425 725 
L 2825 350 
L 2575 300 
Q 1500 -425 800 -650 
L 775 -575 
Q 1950 125 2425 725 
z
M 3800 700 
Q 4575 375 4962 200 
Q 5350 25 5400 -112 
Q 5450 -250 5450 -325 
Q 5450 -400 5400 -525 
Q 5350 -650 5325 -650 
Q 5250 -650 5100 -450 
Q 4875 -150 3750 625 
L 3800 700 
z
" transform="scale(0.015625)"/>
       <path id="SimSun-5b9e" d="M 1950 3625 
Q 2575 3400 2700 3250 
Q 2825 3100 2825 2975 
Q 2825 2850 2750 2700 
Q 2675 2550 2625 2550 
Q 2550 2550 2450 2800 
Q 2275 3175 1900 3550 
L 1950 3625 
z
M 3575 1325 
Q 3500 1100 3425 925 
Q 4650 550 5087 325 
Q 5525 100 5512 -225 
Q 5500 -550 5400 -550 
Q 5300 -550 5075 -300 
Q 4625 175 3375 800 
Q 3025 175 2300 -150 
Q 1575 -475 425 -625 
L 425 -525 
Q 1475 -325 2200 100 
Q 2925 525 3200 1325 
L 1225 1325 
Q 900 1325 625 1250 
L 400 1475 
L 3225 1475 
Q 3325 1950 3375 2575 
Q 3425 3200 3425 3700 
L 4050 3400 
L 3850 3225 
Q 3750 2300 3625 1475 
L 5175 1475 
L 5550 1850 
L 6075 1325 
L 3575 1325 
z
M 1275 2700 
Q 1975 2425 2100 2262 
Q 2225 2100 2225 1975 
Q 2225 1850 2150 1700 
Q 2075 1550 2025 1550 
Q 1950 1550 1850 1800 
Q 1675 2175 1225 2625 
L 1275 2700 
z
M 2750 5225 
L 2825 5275 
Q 3225 5100 3425 4925 
Q 3625 4750 3625 4600 
Q 3625 4450 3512 4300 
Q 3400 4150 3325 4150 
Q 3250 4150 3200 4400 
Q 3100 4775 2750 5225 
z
M 4975 3225 
L 5350 3925 
L 1175 3925 
Q 1225 3525 1125 3300 
Q 1025 3075 787 3100 
Q 550 3125 550 3200 
Q 550 3300 700 3475 
Q 975 3825 1050 4375 
L 1150 4375 
L 1175 4075 
L 5300 4075 
L 5575 4350 
L 6050 3800 
Q 5625 3825 5050 3175 
L 4975 3225 
z
" transform="scale(0.015625)"/>
       <path id="SimSun-503c" d="M 1525 650 
Q 1525 -225 1550 -525 
L 1175 -650 
Q 1200 250 1200 550 
L 1200 3025 
Q 750 2300 325 1850 
L 250 1900 
Q 725 2625 1100 3525 
Q 1475 4425 1675 5200 
L 2200 4875 
L 1950 4725 
Q 1550 3800 1425 3475 
L 1725 3300 
L 1525 3150 
L 1525 650 
z
M 2875 3225 
L 2875 2475 
L 4800 2475 
L 4800 3225 
L 2875 3225 
z
M 2875 2325 
L 2875 1575 
L 4800 1575 
L 4800 2325 
L 2875 2325 
z
M 2875 1425 
L 2875 675 
L 4800 675 
L 4800 1425 
L 2875 1425 
z
M 2875 525 
L 2875 -225 
L 4800 -225 
L 4800 525 
L 2875 525 
z
M 3550 4250 
Q 3575 4825 3550 5225 
L 4125 4950 
L 3925 4800 
L 3900 4250 
L 5025 4250 
L 5350 4575 
L 5825 4100 
L 3900 4100 
L 3875 3375 
L 4750 3375 
L 4975 3625 
L 5350 3300 
L 5125 3150 
L 5125 -225 
L 5350 -225 
L 5675 100 
L 6150 -375 
L 2450 -375 
Q 2125 -375 1850 -450 
L 1625 -225 
L 2550 -225 
L 2550 2550 
Q 2550 2850 2525 3575 
L 2875 3375 
L 3525 3375 
L 3550 4100 
L 2800 4100 
Q 2475 4100 2200 4025 
L 1975 4250 
L 3550 4250 
z
" transform="scale(0.015625)"/>
      </defs>
      <use xlink:href="#SimSun-771f"/>
      <use xlink:href="#SimSun-5b9e" x="100"/>
      <use xlink:href="#SimSun-503c" x="200"/>
     </g>
    </g>
    <g id="line2d_16">
     <path d="M 79.6375 84.35625 
L 99.6375 84.35625 
L 119.6375 84.35625 
" style="fill: none; stroke: #ff7f0e; stroke-width: 1.5; stroke-linecap: square"/>
    </g>
    <g id="text_15">
     <!-- 预测值 -->
     <g transform="translate(135.6375 91.35625) scale(0.2 -0.2)">
      <defs>
       <path id="SimSun-9884" d="M 475 4825 
L 2225 4825 
L 2425 5075 
L 2825 4675 
Q 2600 4625 2387 4412 
Q 2175 4200 1800 3750 
Q 2050 3575 2037 3400 
Q 2025 3225 1937 3150 
Q 1850 3075 1825 3075 
Q 1725 3075 1650 3300 
Q 1525 3600 1050 4100 
L 1100 4150 
Q 1475 3975 1700 3825 
L 2225 4675 
L 1300 4675 
Q 975 4675 700 4600 
L 475 4825 
z
M 725 100 
Q 1175 50 1362 37 
Q 1550 25 1550 275 
L 1550 2875 
L 1125 2875 
Q 800 2875 525 2800 
L 300 3025 
L 2525 3025 
L 2725 3275 
L 3150 2875 
Q 2800 2825 2275 2075 
L 2200 2125 
L 2550 2875 
L 1875 2875 
L 1875 150 
Q 1875 -400 1350 -500 
Q 1325 -175 725 0 
L 725 100 
z
M 3250 775 
Q 3275 1425 3275 2287 
Q 3275 3150 3250 3900 
L 3600 3700 
L 4050 3700 
Q 4175 4400 4200 4675 
L 3650 4675 
Q 3325 4675 3050 4600 
L 2825 4825 
L 5325 4825 
L 5675 5150 
L 6125 4675 
L 4675 4675 
Q 4500 4425 4175 3700 
L 5300 3700 
L 5475 3975 
L 5875 3675 
L 5675 3475 
L 5675 1950 
Q 5675 1525 5700 1075 
L 5350 875 
L 5350 3550 
L 3600 3550 
L 3600 1000 
L 3250 775 
z
M 4850 2875 
L 4625 2675 
Q 4625 1475 4475 937 
Q 4325 400 3900 50 
Q 3475 -300 2425 -625 
L 2400 -550 
Q 3500 -50 3837 400 
Q 4175 850 4237 1587 
Q 4300 2325 4275 3175 
L 4850 2875 
z
M 4650 950 
Q 5725 375 5875 212 
Q 6025 50 6025 -125 
Q 6025 -225 5962 -387 
Q 5900 -550 5850 -550 
Q 5800 -550 5750 -450 
Q 5625 -250 5437 0 
Q 5250 250 4600 875 
L 4650 950 
z
" transform="scale(0.015625)"/>
       <path id="SimSun-6d4b" d="M 1975 1000 
Q 2000 1475 2000 2925 
Q 2000 4375 1975 5000 
L 2350 4775 
L 3575 4775 
L 3775 4975 
L 4100 4650 
L 3900 4500 
L 3900 2350 
Q 3900 1850 3925 1350 
L 3600 1200 
L 3600 4625 
L 2325 4625 
L 2325 1150 
L 1975 1000 
z
M 2775 3975 
L 3300 3700 
L 3125 3525 
Q 3150 1825 2875 937 
Q 2600 50 1375 -600 
L 1325 -500 
Q 2200 100 2475 725 
Q 2750 1350 2775 2187 
Q 2800 3025 2775 3975 
z
M 3100 950 
Q 3825 450 3937 262 
Q 4050 75 4050 -25 
Q 4050 -150 3975 -262 
Q 3900 -375 3850 -375 
Q 3750 -375 3650 -75 
Q 3500 375 3050 875 
L 3100 950 
z
M 4475 825 
Q 4500 1200 4500 1700 
L 4500 3400 
Q 4500 3950 4475 4300 
L 5025 4025 
L 4825 3825 
L 4825 1700 
Q 4825 1325 4850 950 
L 4475 825 
z
M 5375 150 
L 5375 4050 
Q 5375 4750 5350 5125 
L 5875 4875 
L 5700 4700 
L 5700 75 
Q 5700 -200 5600 -350 
Q 5500 -500 5200 -600 
Q 5025 -225 4450 -50 
L 4450 50 
Q 5125 -50 5250 -37 
Q 5375 -25 5375 150 
z
M 1850 3500 
Q 1375 1525 1300 1225 
Q 1200 900 1212 450 
Q 1225 0 1250 -175 
Q 1250 -275 1125 -275 
Q 1025 -275 875 -225 
Q 725 -175 725 0 
Q 725 125 800 375 
Q 875 625 875 775 
Q 875 950 762 1050 
Q 650 1150 275 1250 
L 275 1350 
Q 725 1300 837 1312 
Q 950 1325 1087 1537 
Q 1225 1750 1750 3525 
L 1850 3500 
z
M 375 3775 
Q 1075 3350 1112 3100 
Q 1150 2850 1050 2775 
Q 950 2700 900 2700 
Q 800 2700 725 2975 
Q 600 3350 325 3700 
L 375 3775 
z
M 800 5100 
Q 1475 4725 1550 4512 
Q 1625 4300 1525 4187 
Q 1425 4075 1350 4075 
Q 1275 4075 1200 4300 
Q 1075 4650 750 5025 
L 800 5100 
z
" transform="scale(0.015625)"/>
      </defs>
      <use xlink:href="#SimSun-9884"/>
      <use xlink:href="#SimSun-6d4b" x="100"/>
      <use xlink:href="#SimSun-503c" x="200"/>
     </g>
    </g>
   </g>
  </g>
  <g id="axes_2">
   <g id="patch_8">
    <path d="M 61.6375 426.316875 
L 1032.509189 426.316875 
L 1032.509189 261.859375 
L 61.6375 261.859375 
z
" style="fill: #ffffff"/>
   </g>
   <g id="matplotlib.axis_3">
    <g id="xtick_8">
     <g id="line2d_17">
      <g>
       <use xlink:href="#m46e980d0ca" x="105.768031" y="426.316875" style="stroke: #000000; stroke-width: 0.8"/>
      </g>
     </g>
     <g id="text_16">
      <!-- 0 -->
      <g transform="translate(100.768031 447.204375) scale(0.2 -0.2)">
       <use xlink:href="#TimesNewRomanPSMT-30"/>
      </g>
     </g>
    </g>
    <g id="xtick_9">
     <g id="line2d_18">
      <g>
       <use xlink:href="#m46e980d0ca" x="259.532949" y="426.316875" style="stroke: #000000; stroke-width: 0.8"/>
      </g>
     </g>
     <g id="text_17">
      <!-- 50 -->
      <g transform="translate(249.532949 447.204375) scale(0.2 -0.2)">
       <use xlink:href="#TimesNewRomanPSMT-35"/>
       <use xlink:href="#TimesNewRomanPSMT-30" x="50"/>
      </g>
     </g>
    </g>
    <g id="xtick_10">
     <g id="line2d_19">
      <g>
       <use xlink:href="#m46e980d0ca" x="413.297866" y="426.316875" style="stroke: #000000; stroke-width: 0.8"/>
      </g>
     </g>
     <g id="text_18">
      <!-- 100 -->
      <g transform="translate(398.297866 447.204375) scale(0.2 -0.2)">
       <use xlink:href="#TimesNewRomanPSMT-31"/>
       <use xlink:href="#TimesNewRomanPSMT-30" x="50"/>
       <use xlink:href="#TimesNewRomanPSMT-30" x="100"/>
      </g>
     </g>
    </g>
    <g id="xtick_11">
     <g id="line2d_20">
      <g>
       <use xlink:href="#m46e980d0ca" x="567.062784" y="426.316875" style="stroke: #000000; stroke-width: 0.8"/>
      </g>
     </g>
     <g id="text_19">
      <!-- 150 -->
      <g transform="translate(552.062784 447.204375) scale(0.2 -0.2)">
       <use xlink:href="#TimesNewRomanPSMT-31"/>
       <use xlink:href="#TimesNewRomanPSMT-35" x="50"/>
       <use xlink:href="#TimesNewRomanPSMT-30" x="100"/>
      </g>
     </g>
    </g>
    <g id="xtick_12">
     <g id="line2d_21">
      <g>
       <use xlink:href="#m46e980d0ca" x="720.827701" y="426.316875" style="stroke: #000000; stroke-width: 0.8"/>
      </g>
     </g>
     <g id="text_20">
      <!-- 200 -->
      <g transform="translate(705.827701 447.204375) scale(0.2 -0.2)">
       <use xlink:href="#TimesNewRomanPSMT-32"/>
       <use xlink:href="#TimesNewRomanPSMT-30" x="50"/>
       <use xlink:href="#TimesNewRomanPSMT-30" x="100"/>
      </g>
     </g>
    </g>
    <g id="xtick_13">
     <g id="line2d_22">
      <g>
       <use xlink:href="#m46e980d0ca" x="874.592619" y="426.316875" style="stroke: #000000; stroke-width: 0.8"/>
      </g>
     </g>
     <g id="text_21">
      <!-- 250 -->
      <g transform="translate(859.592619 447.204375) scale(0.2 -0.2)">
       <use xlink:href="#TimesNewRomanPSMT-32"/>
       <use xlink:href="#TimesNewRomanPSMT-35" x="50"/>
       <use xlink:href="#TimesNewRomanPSMT-30" x="100"/>
      </g>
     </g>
    </g>
    <g id="xtick_14">
     <g id="line2d_23">
      <g>
       <use xlink:href="#m46e980d0ca" x="1028.357536" y="426.316875" style="stroke: #000000; stroke-width: 0.8"/>
      </g>
     </g>
     <g id="text_22">
      <!-- 300 -->
      <g transform="translate(1013.357536 447.204375) scale(0.2 -0.2)">
       <use xlink:href="#TimesNewRomanPSMT-33"/>
       <use xlink:href="#TimesNewRomanPSMT-30" x="50"/>
       <use xlink:href="#TimesNewRomanPSMT-30" x="100"/>
      </g>
     </g>
    </g>
   </g>
   <g id="matplotlib.axis_4">
    <g id="ytick_5">
     <g id="line2d_24">
      <g>
       <use xlink:href="#md1243d6fde" x="61.6375" y="417.726164" style="stroke: #000000; stroke-width: 0.8"/>
      </g>
     </g>
     <g id="text_23">
      <!-- 0.0 -->
      <g transform="translate(29.6375 424.669914) scale(0.2 -0.2)">
       <use xlink:href="#TimesNewRomanPSMT-30"/>
       <use xlink:href="#TimesNewRomanPSMT-2e" x="50"/>
       <use xlink:href="#TimesNewRomanPSMT-30" x="75"/>
      </g>
     </g>
    </g>
    <g id="ytick_6">
     <g id="line2d_25">
      <g>
       <use xlink:href="#md1243d6fde" x="61.6375" y="363.106225" style="stroke: #000000; stroke-width: 0.8"/>
      </g>
     </g>
     <g id="text_24">
      <!-- 0.5 -->
      <g transform="translate(29.6375 370.049975) scale(0.2 -0.2)">
       <use xlink:href="#TimesNewRomanPSMT-30"/>
       <use xlink:href="#TimesNewRomanPSMT-2e" x="50"/>
       <use xlink:href="#TimesNewRomanPSMT-35" x="75"/>
      </g>
     </g>
    </g>
    <g id="ytick_7">
     <g id="line2d_26">
      <g>
       <use xlink:href="#md1243d6fde" x="61.6375" y="308.486286" style="stroke: #000000; stroke-width: 0.8"/>
      </g>
     </g>
     <g id="text_25">
      <!-- 1.0 -->
      <g transform="translate(29.6375 315.430036) scale(0.2 -0.2)">
       <use xlink:href="#TimesNewRomanPSMT-31"/>
       <use xlink:href="#TimesNewRomanPSMT-2e" x="50"/>
       <use xlink:href="#TimesNewRomanPSMT-30" x="75"/>
      </g>
     </g>
    </g>
    <g id="text_26">
     <!-- CPU使用率 -->
     <g transform="translate(23.059375 389.088125) rotate(-90) scale(0.2 -0.2)">
      <use xlink:href="#SimSun-43"/>
      <use xlink:href="#SimSun-50" x="50"/>
      <use xlink:href="#SimSun-55" x="100"/>
      <use xlink:href="#SimSun-4f7f" x="150"/>
      <use xlink:href="#SimSun-7528" x="250"/>
      <use xlink:href="#SimSun-7387" x="350"/>
     </g>
    </g>
   </g>
   <g id="line2d_27">
    <path d="M 105.768031 303.417562 
L 108.84333 304.466256 
L 111.918628 298.698397 
L 114.993926 299.222744 
L 118.069225 293.454885 
L 121.144523 301.320146 
L 124.219821 293.979233 
L 127.29512 301.320146 
L 130.370418 302.893201 
L 133.445716 298.698397 
L 136.521015 299.222744 
L 139.596313 298.698397 
L 142.671612 290.308776 
L 145.74691 282.443502 
L 148.822208 293.979233 
L 151.897507 295.552287 
L 154.972805 293.979233 
L 158.048103 298.698397 
L 161.123402 296.076635 
L 164.1987 298.698397 
L 167.273998 300.795799 
L 170.349297 300.271452 
L 173.424595 298.174037 
L 176.499893 299.747092 
L 179.575192 298.698397 
L 182.65049 296.600982 
L 185.725788 298.698397 
L 188.801087 291.881831 
L 191.876385 295.552287 
L 194.951683 295.02794 
L 198.026982 295.02794 
L 201.10228 291.881831 
L 204.177579 289.260068 
L 207.252877 280.3461 
L 210.328175 281.394794 
L 213.403474 285.589611 
L 216.478772 281.394794 
L 219.55407 287.687013 
L 222.629369 289.260068 
L 225.704667 285.065251 
L 228.779965 288.735721 
L 231.855264 286.638306 
L 234.930562 286.113959 
L 238.00586 288.211361 
L 241.081159 291.35747 
L 244.156457 288.211361 
L 247.231755 288.735721 
L 250.307054 282.967849 
L 253.382352 289.260068 
L 256.45765 293.979233 
L 259.532949 284.540904 
L 262.608247 284.540904 
L 268.758844 283.492196 
L 271.834142 284.016556 
L 274.909441 287.162666 
L 277.984739 287.687013 
L 281.060037 285.589611 
L 284.135336 285.589611 
L 287.210634 287.162666 
L 290.285932 288.211361 
L 293.361231 288.735721 
L 296.436529 285.589611 
L 299.511827 278.248685 
L 302.587126 281.394794 
L 305.662424 279.821739 
L 308.737722 280.870447 
L 311.813021 282.967849 
L 314.888319 282.967849 
L 317.963617 289.260068 
L 321.038916 285.589611 
L 324.114214 284.540904 
L 327.189513 285.589611 
L 330.264811 288.211361 
L 333.340109 285.589611 
L 336.415408 285.589611 
L 339.490706 293.979233 
L 342.566004 293.454885 
L 345.641303 299.747092 
L 348.716601 299.222744 
L 351.791899 289.260068 
L 354.867198 269.334716 
L 357.942496 302.893201 
L 361.017794 298.174037 
L 364.093093 307.088018 
L 367.168391 304.466256 
L 370.243689 311.807176 
L 373.318988 295.552287 
L 376.394286 322.81856 
L 379.469584 324.391615 
L 382.544883 329.110773 
L 385.620181 333.30559 
L 388.69548 331.208181 
L 391.770778 322.81856 
L 394.846076 337.500401 
L 397.921375 342.219559 
L 400.996673 339.073455 
L 404.071971 344.316967 
L 407.14727 338.549102 
L 410.222568 330.15948 
L 413.297866 351.133534 
L 416.373165 353.755289 
L 419.448463 355.852698 
L 422.523761 354.279643 
L 425.59906 361.09621 
L 428.674358 359.523155 
L 431.749656 365.815374 
L 434.824955 367.388429 
L 437.900253 370.534539 
L 440.975551 372.107593 
L 444.05085 370.010185 
L 447.126148 398.849507 
L 450.201447 374.204996 
L 453.276745 376.826758 
L 456.352043 378.399806 
L 459.427342 381.021569 
L 462.50264 382.07027 
L 465.577938 382.594623 
L 468.653237 385.216379 
L 471.728535 386.26508 
L 474.803833 387.838135 
L 477.879132 389.935537 
L 484.029728 389.935537 
L 487.105027 392.557295 
L 493.255623 394.654697 
L 496.330922 395.17905 
L 499.40622 396.227758 
L 502.481518 395.703398 
L 505.556817 397.276453 
L 508.632115 398.32516 
L 511.707414 398.32516 
L 517.85801 399.373868 
L 520.933309 399.373868 
L 527.083905 401.47127 
L 530.159204 401.47127 
L 536.3098 402.519964 
L 539.385099 401.47127 
L 542.460397 402.519964 
L 545.535695 402.519964 
L 548.610994 403.568672 
L 551.686292 403.044325 
L 554.76159 404.617379 
L 557.836889 403.568672 
L 560.912187 403.568672 
L 563.987485 404.617379 
L 567.062784 404.617379 
L 570.138082 405.141727 
L 573.213381 404.617379 
L 579.363977 404.617379 
L 582.439276 405.141727 
L 585.514574 404.617379 
L 588.589872 405.141727 
L 591.665171 405.141727 
L 594.740469 404.617379 
L 597.815767 406.190434 
L 600.891066 405.141727 
L 603.966364 405.141727 
L 607.041662 404.617379 
L 622.418154 404.617379 
L 625.493452 404.093019 
L 628.568751 403.044325 
L 631.644049 400.422562 
L 637.794646 401.47127 
L 643.945243 399.373868 
L 647.020541 399.373868 
L 650.095839 396.752105 
L 653.171138 397.276453 
L 656.246436 397.276453 
L 659.321734 396.227758 
L 662.397033 394.130349 
L 665.472331 393.081642 
L 668.547629 377.875459 
L 671.622928 387.313781 
L 674.698226 383.118971 
L 677.773524 383.118971 
L 680.848823 379.448514 
L 683.924121 377.351105 
L 686.999419 366.339728 
L 690.074718 374.204996 
L 693.150016 368.43713 
L 696.225315 368.43713 
L 699.300613 363.193618 
L 702.375911 358.998808 
L 705.45121 317.575042 
L 708.526508 347.987424 
L 711.601806 336.451693 
L 714.677105 342.743912 
L 717.752403 336.976047 
L 720.827701 336.451693 
L 723.903 311.807176 
L 726.978298 335.927346 
L 730.053596 332.256882 
L 733.128895 333.829937 
L 736.204193 329.110773 
L 739.279491 325.96467 
L 742.35479 307.088018 
L 745.430088 316.001987 
L 748.505386 315.47764 
L 751.580685 319.67245 
L 754.655983 317.575042 
L 757.731282 318.099396 
L 760.80658 310.758475 
L 763.881878 322.81856 
L 766.957177 322.294206 
L 770.032475 322.294206 
L 773.107773 317.575042 
L 776.183072 314.428939 
L 779.25837 303.941909 
L 782.333668 298.174037 
L 785.408967 300.271452 
L 788.484265 299.222744 
L 791.559563 296.076635 
L 794.634862 300.271452 
L 797.71016 297.64969 
L 800.785458 306.563658 
L 803.860757 306.563658 
L 810.011353 301.320146 
L 813.086652 300.795799 
L 816.16195 288.211361 
L 819.237249 287.162666 
L 822.312547 285.589611 
L 825.387845 288.211361 
L 828.463144 294.50358 
L 831.538442 295.552287 
L 834.61374 292.406178 
L 837.689039 291.35747 
L 840.764337 283.492196 
L 843.839635 287.162666 
L 846.914934 292.406178 
L 849.990232 291.881831 
L 853.06553 292.930525 
L 856.140829 272.480826 
L 859.216127 280.3461 
L 862.291425 293.979233 
L 865.366724 295.02794 
L 868.442022 288.211361 
L 871.51732 292.930525 
L 874.592619 296.600982 
L 877.667917 296.076635 
L 880.743216 295.02794 
L 883.818514 295.552287 
L 886.893812 297.125342 
L 889.969111 364.242319 
L 893.044409 271.432118 
L 896.119707 275.626935 
L 899.195006 286.113959 
L 902.270304 285.589611 
L 905.345602 288.211361 
L 908.420901 294.50358 
L 914.571497 298.698397 
L 917.646796 298.698397 
L 920.722094 302.368854 
L 923.797392 302.368854 
L 926.872691 296.076635 
L 929.947989 294.50358 
L 933.023287 297.125342 
L 936.098586 301.844507 
L 939.173884 307.612366 
L 942.249183 304.990616 
L 945.324481 305.514964 
L 948.399779 303.941909 
L 951.475078 307.088018 
L 954.550376 306.563658 
L 957.625674 305.514964 
L 960.700973 308.661067 
L 963.776271 295.02794 
L 966.851569 289.260068 
L 969.926868 300.271452 
L 973.002166 301.844507 
L 976.077464 301.844507 
L 979.152763 304.466256 
L 982.228061 300.271452 
L 985.303359 306.039311 
L 988.378658 303.417562 
L 988.378658 303.417562 
" clip-path="url(#p63dcb7702e)" style="fill: none; stroke: #1f77b4; stroke-width: 1.5; stroke-linecap: square"/>
   </g>
   <g id="line2d_28">
    <path d="M 548.610994 417.545726 
L 551.686292 417.952872 
L 554.76159 417.639149 
L 557.836889 417.606372 
L 560.912187 417.715812 
L 567.062784 418.645378 
L 570.138082 417.952012 
L 573.213381 417.413197 
L 576.288679 418.73798 
L 579.363977 418.202238 
L 582.439276 418.382169 
L 585.514574 418.403239 
L 588.589872 418.307342 
L 591.665171 417.897787 
L 594.740469 417.965035 
L 597.815767 418.155488 
L 600.891066 418.841534 
L 603.966364 418.689797 
L 607.041662 417.367931 
L 610.116961 416.823321 
L 613.192259 416.084261 
L 616.267557 416.352744 
L 619.342856 417.020233 
L 622.418154 415.415521 
L 625.493452 414.524853 
L 628.568751 413.467095 
L 631.644049 412.974002 
L 634.719348 414.117135 
L 637.794646 412.454277 
L 640.869944 410.593701 
L 643.945243 410.150509 
L 647.020541 407.840477 
L 650.095839 406.008381 
L 653.171138 405.952945 
L 656.246436 401.911883 
L 659.321734 401.67985 
L 662.397033 397.484316 
L 665.472331 394.655979 
L 668.547629 393.082156 
L 671.622928 389.699727 
L 674.698226 386.984484 
L 677.773524 386.221358 
L 680.848823 380.446525 
L 683.924121 379.547686 
L 686.999419 375.329819 
L 690.074718 370.344145 
L 693.150016 363.502308 
L 696.225315 362.122473 
L 699.300613 358.993651 
L 702.375911 353.141648 
L 705.45121 350.969282 
L 708.526508 350.683987 
L 711.601806 348.065982 
L 714.677105 346.250905 
L 717.752403 346.433128 
L 720.827701 341.178964 
L 723.903 340.929259 
L 726.978298 337.524863 
L 730.053596 337.284906 
L 733.128895 335.883805 
L 736.204193 334.045543 
L 739.279491 334.122961 
L 742.35479 331.315265 
L 745.430088 332.609256 
L 751.580685 330.86939 
L 754.655983 329.583206 
L 757.731282 329.615319 
L 760.80658 329.824896 
L 763.881878 328.301085 
L 766.957177 328.475807 
L 773.107773 327.100465 
L 776.183072 328.681782 
L 779.25837 326.142556 
L 782.333668 326.338667 
L 785.408967 326.921927 
L 788.484265 328.815236 
L 791.559563 329.120605 
L 794.634862 327.535022 
L 797.71016 328.75461 
L 800.785458 327.948503 
L 803.860757 327.025514 
L 806.936055 329.306532 
L 810.011353 328.456996 
L 813.086652 328.081097 
L 816.16195 327.589821 
L 819.237249 329.502565 
L 822.312547 328.631144 
L 825.387845 328.601414 
L 828.463144 328.094491 
L 831.538442 328.44551 
L 834.61374 328.481074 
L 837.689039 329.016731 
L 840.764337 328.437078 
L 843.839635 329.517078 
L 846.914934 329.073197 
L 849.990232 330.066136 
L 859.216127 330.950155 
L 862.291425 330.543726 
L 865.366724 332.347069 
L 868.442022 330.908874 
L 871.51732 331.206013 
L 874.592619 330.574544 
L 877.667917 331.840986 
L 880.743216 333.79074 
L 883.818514 331.434491 
L 886.893812 332.650537 
L 889.969111 332.001226 
L 893.044409 332.675527 
L 896.119707 331.845016 
L 902.270304 333.911835 
L 905.345602 333.899151 
L 908.420901 334.086453 
L 911.496199 334.910393 
L 914.571497 333.689966 
L 917.646796 333.804602 
L 920.722094 334.592028 
L 923.797392 334.099013 
L 926.872691 335.131292 
L 929.947989 335.031717 
L 933.023287 333.940738 
L 936.098586 334.646149 
L 939.173884 335.830778 
L 945.324481 336.838862 
L 948.399779 336.402078 
L 951.475078 334.744872 
L 954.550376 335.168348 
L 957.625674 337.155756 
L 960.700973 336.435396 
L 963.776271 337.372429 
L 966.851569 337.874717 
L 969.926868 337.594331 
L 973.002166 338.292834 
L 976.077464 337.798457 
L 982.228061 338.730074 
L 985.303359 338.486718 
L 988.378658 339.623802 
L 988.378658 339.623802 
" clip-path="url(#p63dcb7702e)" style="fill: none; stroke: #ff7f0e; stroke-width: 1.5; stroke-linecap: square"/>
   </g>
   <g id="line2d_29">
    <path d="M 548.610994 426.316875 
L 548.610994 261.859375 
" clip-path="url(#p63dcb7702e)" style="fill: none; stroke-dasharray: 7.4,3.2; stroke-dashoffset: 0; stroke: #0000ff; stroke-width: 2"/>
   </g>
   <g id="patch_9">
    <path d="M 61.6375 426.316875 
L 61.6375 261.859375 
" style="fill: none; stroke: #000000; stroke-width: 0.8; stroke-linejoin: miter; stroke-linecap: square"/>
   </g>
   <g id="patch_10">
    <path d="M 1032.509189 426.316875 
L 1032.509189 261.859375 
" style="fill: none; stroke: #000000; stroke-width: 0.8; stroke-linejoin: miter; stroke-linecap: square"/>
   </g>
   <g id="patch_11">
    <path d="M 61.6375 426.316875 
L 1032.509189 426.316875 
" style="fill: none; stroke: #000000; stroke-width: 0.8; stroke-linejoin: miter; stroke-linecap: square"/>
   </g>
   <g id="patch_12">
    <path d="M 61.6375 261.859375 
L 1032.509189 261.859375 
" style="fill: none; stroke: #000000; stroke-width: 0.8; stroke-linejoin: miter; stroke-linecap: square"/>
   </g>
   <g id="text_27">
    <!-- 云函数ID: 72 -->
    <g transform="translate(487.073345 255.859375) scale(0.2 -0.2)">
     <defs>
      <path id="SimSun-37" d="M 2825 4200 
Q 2300 3350 1987 2537 
Q 1675 1725 1675 1125 
Q 1675 1025 1700 850 
Q 1700 650 1700 400 
Q 1700 200 1637 125 
Q 1575 50 1425 50 
Q 1300 50 1212 137 
Q 1125 225 1125 450 
Q 1125 925 1337 1625 
Q 1550 2325 2475 4000 
L 1225 4000 
Q 950 4000 787 3825 
Q 625 3650 550 3300 
L 400 3325 
L 575 4375 
L 2825 4375 
L 2825 4200 
z
" transform="scale(0.015625)"/>
     </defs>
     <use xlink:href="#SimSun-4e91"/>
     <use xlink:href="#SimSun-51fd" x="100"/>
     <use xlink:href="#SimSun-6570" x="200"/>
     <use xlink:href="#SimSun-49" x="300"/>
     <use xlink:href="#SimSun-44" x="350"/>
     <use xlink:href="#SimSun-3a" x="400"/>
     <use xlink:href="#SimSun-20" x="450"/>
     <use xlink:href="#SimSun-37" x="500"/>
     <use xlink:href="#SimSun-32" x="550"/>
    </g>
   </g>
  </g>
  <g id="axes_3">
   <g id="patch_13">
    <path d="M 61.6375 659.116875 
L 1032.509189 659.116875 
L 1032.509189 494.659375 
L 61.6375 494.659375 
z
" style="fill: #ffffff"/>
   </g>
   <g id="matplotlib.axis_5">
    <g id="xtick_15">
     <g id="line2d_30">
      <g>
       <use xlink:href="#m46e980d0ca" x="105.768031" y="659.116875" style="stroke: #000000; stroke-width: 0.8"/>
      </g>
     </g>
     <g id="text_28">
      <!-- 0 -->
      <g transform="translate(100.768031 680.004375) scale(0.2 -0.2)">
       <use xlink:href="#TimesNewRomanPSMT-30"/>
      </g>
     </g>
    </g>
    <g id="xtick_16">
     <g id="line2d_31">
      <g>
       <use xlink:href="#m46e980d0ca" x="259.532949" y="659.116875" style="stroke: #000000; stroke-width: 0.8"/>
      </g>
     </g>
     <g id="text_29">
      <!-- 50 -->
      <g transform="translate(249.532949 680.004375) scale(0.2 -0.2)">
       <use xlink:href="#TimesNewRomanPSMT-35"/>
       <use xlink:href="#TimesNewRomanPSMT-30" x="50"/>
      </g>
     </g>
    </g>
    <g id="xtick_17">
     <g id="line2d_32">
      <g>
       <use xlink:href="#m46e980d0ca" x="413.297866" y="659.116875" style="stroke: #000000; stroke-width: 0.8"/>
      </g>
     </g>
     <g id="text_30">
      <!-- 100 -->
      <g transform="translate(398.297866 680.004375) scale(0.2 -0.2)">
       <use xlink:href="#TimesNewRomanPSMT-31"/>
       <use xlink:href="#TimesNewRomanPSMT-30" x="50"/>
       <use xlink:href="#TimesNewRomanPSMT-30" x="100"/>
      </g>
     </g>
    </g>
    <g id="xtick_18">
     <g id="line2d_33">
      <g>
       <use xlink:href="#m46e980d0ca" x="567.062784" y="659.116875" style="stroke: #000000; stroke-width: 0.8"/>
      </g>
     </g>
     <g id="text_31">
      <!-- 150 -->
      <g transform="translate(552.062784 680.004375) scale(0.2 -0.2)">
       <use xlink:href="#TimesNewRomanPSMT-31"/>
       <use xlink:href="#TimesNewRomanPSMT-35" x="50"/>
       <use xlink:href="#TimesNewRomanPSMT-30" x="100"/>
      </g>
     </g>
    </g>
    <g id="xtick_19">
     <g id="line2d_34">
      <g>
       <use xlink:href="#m46e980d0ca" x="720.827701" y="659.116875" style="stroke: #000000; stroke-width: 0.8"/>
      </g>
     </g>
     <g id="text_32">
      <!-- 200 -->
      <g transform="translate(705.827701 680.004375) scale(0.2 -0.2)">
       <use xlink:href="#TimesNewRomanPSMT-32"/>
       <use xlink:href="#TimesNewRomanPSMT-30" x="50"/>
       <use xlink:href="#TimesNewRomanPSMT-30" x="100"/>
      </g>
     </g>
    </g>
    <g id="xtick_20">
     <g id="line2d_35">
      <g>
       <use xlink:href="#m46e980d0ca" x="874.592619" y="659.116875" style="stroke: #000000; stroke-width: 0.8"/>
      </g>
     </g>
     <g id="text_33">
      <!-- 250 -->
      <g transform="translate(859.592619 680.004375) scale(0.2 -0.2)">
       <use xlink:href="#TimesNewRomanPSMT-32"/>
       <use xlink:href="#TimesNewRomanPSMT-35" x="50"/>
       <use xlink:href="#TimesNewRomanPSMT-30" x="100"/>
      </g>
     </g>
    </g>
    <g id="xtick_21">
     <g id="line2d_36">
      <g>
       <use xlink:href="#m46e980d0ca" x="1028.357536" y="659.116875" style="stroke: #000000; stroke-width: 0.8"/>
      </g>
     </g>
     <g id="text_34">
      <!-- 300 -->
      <g transform="translate(1013.357536 680.004375) scale(0.2 -0.2)">
       <use xlink:href="#TimesNewRomanPSMT-33"/>
       <use xlink:href="#TimesNewRomanPSMT-30" x="50"/>
       <use xlink:href="#TimesNewRomanPSMT-30" x="100"/>
      </g>
     </g>
    </g>
   </g>
   <g id="matplotlib.axis_6">
    <g id="ytick_8">
     <g id="line2d_37">
      <g>
       <use xlink:href="#md1243d6fde" x="61.6375" y="616.696359" style="stroke: #000000; stroke-width: 0.8"/>
      </g>
     </g>
     <g id="text_35">
      <!-- 1.0 -->
      <g transform="translate(29.6375 623.640109) scale(0.2 -0.2)">
       <use xlink:href="#TimesNewRomanPSMT-31"/>
       <use xlink:href="#TimesNewRomanPSMT-2e" x="50"/>
       <use xlink:href="#TimesNewRomanPSMT-30" x="75"/>
      </g>
     </g>
    </g>
    <g id="ytick_9">
     <g id="line2d_38">
      <g>
       <use xlink:href="#md1243d6fde" x="61.6375" y="562.901449" style="stroke: #000000; stroke-width: 0.8"/>
      </g>
     </g>
     <g id="text_36">
      <!-- 2.0 -->
      <g transform="translate(29.6375 569.845199) scale(0.2 -0.2)">
       <use xlink:href="#TimesNewRomanPSMT-32"/>
       <use xlink:href="#TimesNewRomanPSMT-2e" x="50"/>
       <use xlink:href="#TimesNewRomanPSMT-30" x="75"/>
      </g>
     </g>
    </g>
    <g id="ytick_10">
     <g id="line2d_39">
      <g>
       <use xlink:href="#md1243d6fde" x="61.6375" y="509.106539" style="stroke: #000000; stroke-width: 0.8"/>
      </g>
     </g>
     <g id="text_37">
      <!-- 3.0 -->
      <g transform="translate(29.6375 516.050289) scale(0.2 -0.2)">
       <use xlink:href="#TimesNewRomanPSMT-33"/>
       <use xlink:href="#TimesNewRomanPSMT-2e" x="50"/>
       <use xlink:href="#TimesNewRomanPSMT-30" x="75"/>
      </g>
     </g>
    </g>
    <g id="text_38">
     <!-- CPU使用率 -->
     <g transform="translate(23.059375 621.888125) rotate(-90) scale(0.2 -0.2)">
      <use xlink:href="#SimSun-43"/>
      <use xlink:href="#SimSun-50" x="50"/>
      <use xlink:href="#SimSun-55" x="100"/>
      <use xlink:href="#SimSun-4f7f" x="150"/>
      <use xlink:href="#SimSun-7528" x="250"/>
      <use xlink:href="#SimSun-7387" x="350"/>
     </g>
    </g>
   </g>
   <g id="line2d_40">
    <path d="M 105.768031 526.148773 
L 108.84333 523.824832 
L 111.918628 524.341259 
L 114.993926 527.181627 
L 118.069225 524.857686 
L 121.144523 526.6652 
L 124.219821 523.824832 
L 127.29512 525.374126 
L 130.370418 502.134716 
L 133.445716 519.435157 
L 136.521015 526.92342 
L 139.596313 526.40698 
L 142.671612 527.698067 
L 145.74691 530.280215 
L 148.822208 526.92342 
L 151.897507 531.829509 
L 154.972805 535.702744 
L 158.048103 536.477391 
L 161.123402 535.702744 
L 164.1987 540.092406 
L 167.273998 535.960964 
L 170.349297 542.15814 
L 173.424595 542.15814 
L 176.499893 550.162817 
L 179.575192 549.904597 
L 182.65049 555.068906 
L 185.725788 555.327126 
L 188.801087 557.651067 
L 191.876385 561.524302 
L 198.026982 570.820059 
L 201.10228 565.65575 
L 204.177579 609.035962 
L 207.252877 575.467941 
L 210.328175 577.533668 
L 213.403474 580.890464 
L 216.478772 586.054779 
L 219.55407 588.1205 
L 222.629369 592.768382 
L 225.704667 594.317676 
L 228.779965 596.89983 
L 231.855264 600.514852 
L 234.930562 603.871653 
L 238.00586 606.712021 
L 241.081159 608.261315 
L 244.156457 612.13455 
L 247.231755 614.458491 
L 250.307054 616.265999 
L 253.382352 619.881017 
L 256.45765 622.979605 
L 259.532949 621.688528 
L 265.683546 627.36927 
L 268.758844 628.660347 
L 271.834142 630.726072 
L 274.909441 630.984288 
L 277.984739 630.209641 
L 281.060037 628.660347 
L 284.135336 630.209641 
L 287.210634 632.017149 
L 290.285932 632.275366 
L 293.361231 633.82466 
L 296.436529 634.34109 
L 299.511827 635.632167 
L 302.587126 637.181461 
L 305.662424 637.697891 
L 308.737722 637.439675 
L 311.813021 638.988969 
L 314.888319 641.31291 
L 317.963617 643.895067 
L 321.038916 645.186145 
L 324.114214 645.702575 
L 327.189513 646.993652 
L 333.340109 646.993652 
L 336.415408 647.510082 
L 339.490706 648.284729 
L 345.641303 648.801163 
L 348.716601 648.801163 
L 351.791899 641.054693 
L 354.867198 651.383317 
L 357.942496 650.866887 
L 361.017794 651.383317 
L 364.093093 650.866887 
L 367.168391 651.641534 
L 370.243689 650.866887 
L 373.318988 650.866887 
L 379.469584 651.383317 
L 382.544883 651.125101 
L 385.620181 651.125101 
L 388.69548 648.801163 
L 391.770778 649.57581 
L 394.846076 649.059376 
L 397.921375 649.059376 
L 400.996673 648.542946 
L 407.14727 645.960792 
L 410.222568 645.444358 
L 413.297866 644.411498 
L 416.373165 643.12042 
L 419.448463 642.087557 
L 422.523761 639.763616 
L 425.59906 630.209641 
L 428.674358 633.566443 
L 431.749656 630.984288 
L 434.824955 629.434994 
L 437.900253 626.336406 
L 440.975551 624.528899 
L 444.05085 615.233138 
L 447.126148 616.265999 
L 450.201447 612.650984 
L 453.276745 610.327043 
L 456.352043 605.679161 
L 459.427342 605.162727 
L 462.50264 569.787199 
L 465.577938 593.026595 
L 468.653237 589.669794 
L 471.728535 586.829426 
L 474.803833 582.181544 
L 477.879132 582.439758 
L 480.95443 576.242588 
L 484.029728 575.467941 
L 487.105027 571.078279 
L 490.180325 573.40222 
L 493.255623 565.913964 
L 496.330922 563.331809 
L 499.40622 548.097096 
L 502.481518 550.679244 
L 505.556817 550.421037 
L 508.632115 550.679244 
L 511.707414 547.064229 
L 514.782712 547.322449 
L 517.85801 544.740288 
L 520.933309 551.712111 
L 524.008607 552.228538 
L 527.083905 550.937464 
L 530.159204 550.937464 
L 533.234502 543.449214 
L 536.3098 543.449214 
L 539.385099 541.89992 
L 542.460397 543.190994 
L 545.535695 542.416347 
L 548.610994 534.41167 
L 551.686292 545.256715 
L 554.76159 539.575979 
L 557.836889 547.580656 
L 560.912187 549.38817 
L 563.987485 549.904597 
L 567.062784 542.932774 
L 570.138082 548.097096 
L 573.213381 530.021995 
L 576.288679 534.669877 
L 579.363977 533.637023 
L 582.439276 542.416347 
L 585.514574 544.482068 
L 588.589872 547.838876 
L 591.665171 548.613523 
L 594.740469 544.223861 
L 597.815767 542.674567 
L 600.891066 543.449214 
L 603.966364 547.322449 
L 607.041662 550.679244 
L 610.116961 546.547802 
L 613.192259 540.608846 
L 616.267557 542.416347 
L 619.342856 549.38817 
L 622.418154 548.871743 
L 625.493452 542.416347 
L 628.568751 548.097096 
L 631.644049 551.712111 
L 634.719348 550.937464 
L 637.794646 546.547802 
L 640.869944 546.289582 
L 643.945243 548.613523 
L 647.020541 589.153367 
L 650.095839 525.115906 
L 653.171138 527.181627 
L 656.246436 536.219171 
L 659.321734 537.510258 
L 662.397033 537.510258 
L 665.472331 540.350626 
L 668.547629 544.998508 
L 671.622928 543.449214 
L 674.698226 548.355303 
L 677.773524 544.482068 
L 680.848823 549.904597 
L 683.924121 542.416347 
L 686.999419 541.6417 
L 690.074718 547.838876 
L 693.150016 554.294259 
L 696.225315 553.003185 
L 699.300613 552.228538 
L 702.375911 548.613523 
L 705.45121 552.744965 
L 708.526508 552.744965 
L 711.601806 555.327126 
L 714.677105 552.228538 
L 717.752403 553.777832 
L 720.827701 540.350626 
L 723.903 536.735611 
L 726.978298 549.38817 
L 730.053596 550.421037 
L 733.128895 542.674567 
L 736.204193 542.15814 
L 739.279491 539.575979 
L 742.35479 544.740288 
L 745.430088 548.871743 
L 748.505386 555.327126 
L 751.580685 551.453891 
L 754.655983 549.64639 
L 757.731282 542.674567 
L 760.80658 542.932774 
L 766.957177 551.712111 
L 770.032475 551.453891 
L 773.107773 552.744965 
L 776.183072 549.38817 
L 782.333668 549.38817 
L 785.408967 551.712111 
L 788.484265 551.453891 
L 791.559563 549.12995 
L 794.634862 547.064229 
L 797.71016 547.064229 
L 800.785458 552.744965 
L 803.860757 540.867053 
L 806.936055 542.674567 
L 810.011353 548.355303 
L 813.086652 536.735611 
L 816.16195 543.707421 
L 819.237249 546.547802 
L 822.312547 546.806009 
L 825.387845 534.15345 
L 828.463144 539.575979 
L 831.538442 534.928097 
L 834.61374 534.928097 
L 837.689039 527.181627 
L 840.764337 536.219171 
L 843.839635 534.41167 
L 846.914934 531.571289 
L 849.990232 523.824832 
L 853.06553 526.148773 
L 856.140829 524.599479 
L 859.216127 523.566612 
L 862.291425 526.92342 
L 865.366724 524.083039 
L 868.442022 514.012641 
L 871.51732 521.242671 
L 874.592619 516.078362 
L 877.667917 511.43048 
L 880.743216 513.496201 
L 883.818514 510.914053 
L 886.893812 504.200437 
L 889.969111 514.270848 
L 893.044409 507.557245 
L 896.119707 510.397613 
L 899.195006 510.397613 
L 902.270304 505.491524 
L 905.345602 513.237994 
L 908.420901 516.078362 
L 911.496199 520.984451 
L 914.571497 515.045495 
L 917.646796 506.266171 
L 920.722094 524.599479 
L 923.797392 517.627656 
L 926.872691 522.791965 
L 929.947989 524.341259 
L 933.023287 527.181627 
L 936.098586 522.791965 
L 939.173884 526.148773 
L 942.249183 514.270848 
L 945.324481 520.209804 
L 948.399779 520.468024 
L 951.475078 525.890553 
L 954.550376 520.209804 
L 957.625674 524.857686 
L 960.700973 524.083039 
L 963.776271 521.242671 
L 966.851569 526.92342 
L 969.926868 526.92342 
L 973.002166 525.115906 
L 976.077464 521.242671 
L 979.152763 504.458657 
L 982.228061 518.66051 
L 985.303359 517.885863 
L 988.378658 519.693377 
L 988.378658 519.693377 
" clip-path="url(#p1f41d324d6)" style="fill: none; stroke: #1f77b4; stroke-width: 1.5; stroke-linecap: square"/>
   </g>
   <g id="line2d_41">
    <path d="M 548.610994 588.868213 
L 551.686292 587.919996 
L 554.76159 588.984241 
L 557.836889 588.247398 
L 560.912187 588.479171 
L 563.987485 587.373986 
L 567.062784 588.230044 
L 570.138082 587.308036 
L 573.213381 587.327884 
L 576.288679 587.512632 
L 579.363977 585.4093 
L 582.439276 585.853595 
L 585.514574 585.688823 
L 588.589872 586.454896 
L 591.665171 585.015685 
L 594.740469 584.99426 
L 597.815767 585.302564 
L 600.891066 585.143288 
L 603.966364 585.620135 
L 607.041662 585.685533 
L 610.116961 584.997235 
L 613.192259 585.035142 
L 616.267557 584.344798 
L 619.342856 584.515021 
L 622.418154 584.57291 
L 625.493452 585.329319 
L 628.568751 585.269897 
L 631.644049 584.80619 
L 637.794646 585.052482 
L 640.869944 586.174475 
L 647.020541 585.468163 
L 650.095839 586.121639 
L 656.246436 586.53498 
L 665.472331 586.884609 
L 668.547629 587.335342 
L 671.622928 587.977378 
L 674.698226 588.246314 
L 677.773524 587.515999 
L 680.848823 587.931776 
L 690.074718 589.779723 
L 693.150016 589.540819 
L 702.375911 590.850368 
L 708.526508 591.890552 
L 711.601806 592.247472 
L 714.677105 592.8892 
L 717.752403 592.933615 
L 720.827701 592.3908 
L 723.903 592.740929 
L 726.978298 592.726339 
L 730.053596 593.207367 
L 733.128895 593.952868 
L 736.204193 594.053062 
L 739.279491 594.534648 
L 742.35479 593.3066 
L 745.430088 594.812575 
L 748.505386 595.405148 
L 751.580685 595.302408 
L 754.655983 595.42204 
L 760.80658 594.873664 
L 763.881878 594.817834 
L 766.957177 594.034799 
L 770.032475 594.213807 
L 773.107773 593.393558 
L 776.183072 593.79506 
L 782.333668 593.500242 
L 785.408967 593.155141 
L 788.484265 593.016322 
L 791.559563 593.28159 
L 794.634862 592.856495 
L 797.71016 591.641804 
L 800.785458 592.449516 
L 803.860757 591.449925 
L 806.936055 591.679563 
L 810.011353 590.479898 
L 813.086652 590.388066 
L 816.16195 589.712869 
L 819.237249 587.988549 
L 822.312547 587.63969 
L 825.387845 588.07021 
L 828.463144 586.728533 
L 831.538442 586.232505 
L 834.61374 586.088414 
L 837.689039 584.720938 
L 840.764337 584.288846 
L 843.839635 583.365729 
L 846.914934 581.482742 
L 849.990232 580.17865 
L 853.06553 579.510886 
L 856.140829 577.8647 
L 859.216127 577.334966 
L 862.291425 574.832132 
L 865.366724 573.022906 
L 868.442022 572.868267 
L 871.51732 571.420783 
L 874.592619 569.098279 
L 877.667917 568.624452 
L 880.743216 566.893014 
L 883.818514 564.95598 
L 886.893812 565.250176 
L 889.969111 562.98236 
L 893.044409 562.246055 
L 896.119707 560.832765 
L 899.195006 559.657918 
L 902.270304 559.335838 
L 905.345602 559.390245 
L 908.420901 558.805201 
L 911.496199 558.006877 
L 914.571497 557.513652 
L 917.646796 558.369332 
L 920.722094 557.186609 
L 923.797392 558.733364 
L 926.872691 557.776233 
L 929.947989 557.079656 
L 936.098586 556.792655 
L 939.173884 557.252585 
L 942.249183 558.067351 
L 948.399779 558.303536 
L 951.475078 558.738084 
L 954.550376 558.48375 
L 957.625674 559.10318 
L 960.700973 561.379679 
L 963.776271 559.648465 
L 966.851569 560.704418 
L 969.926868 560.90777 
L 973.002166 561.613966 
L 976.077464 561.393595 
L 979.152763 562.731983 
L 982.228061 563.167262 
L 985.303359 564.276025 
L 988.378658 564.187752 
L 988.378658 564.187752 
" clip-path="url(#p1f41d324d6)" style="fill: none; stroke: #ff7f0e; stroke-width: 1.5; stroke-linecap: square"/>
   </g>
   <g id="line2d_42">
    <path d="M 548.610994 659.116875 
L 548.610994 494.659375 
" clip-path="url(#p1f41d324d6)" style="fill: none; stroke-dasharray: 7.4,3.2; stroke-dashoffset: 0; stroke: #0000ff; stroke-width: 2"/>
   </g>
   <g id="patch_14">
    <path d="M 61.6375 659.116875 
L 61.6375 494.659375 
" style="fill: none; stroke: #000000; stroke-width: 0.8; stroke-linejoin: miter; stroke-linecap: square"/>
   </g>
   <g id="patch_15">
    <path d="M 1032.509189 659.116875 
L 1032.509189 494.659375 
" style="fill: none; stroke: #000000; stroke-width: 0.8; stroke-linejoin: miter; stroke-linecap: square"/>
   </g>
   <g id="patch_16">
    <path d="M 61.6375 659.116875 
L 1032.509189 659.116875 
" style="fill: none; stroke: #000000; stroke-width: 0.8; stroke-linejoin: miter; stroke-linecap: square"/>
   </g>
   <g id="patch_17">
    <path d="M 61.6375 494.659375 
L 1032.509189 494.659375 
" style="fill: none; stroke: #000000; stroke-width: 0.8; stroke-linejoin: miter; stroke-linecap: square"/>
   </g>
   <g id="text_39">
    <!-- 云函数ID: 150 -->
    <g transform="translate(482.073345 488.659375) scale(0.2 -0.2)">
     <defs>
      <path id="SimSun-31" d="M 1825 4450 
L 1825 650 
Q 1825 450 1950 350 
Q 2075 250 2300 250 
L 2550 250 
L 2550 100 
L 725 100 
L 725 250 
L 950 250 
Q 1200 250 1312 350 
Q 1425 450 1425 650 
L 1425 3675 
Q 1425 3775 1362 3837 
Q 1300 3900 1175 3900 
L 725 3900 
L 725 4050 
L 950 4050 
Q 1250 4050 1437 4150 
Q 1625 4250 1725 4450 
L 1825 4450 
z
" transform="scale(0.015625)"/>
      <path id="SimSun-35" d="M 1725 2850 
Q 2200 2850 2500 2487 
Q 2800 2125 2800 1525 
Q 2800 850 2487 450 
Q 2175 50 1525 50 
Q 1075 50 725 312 
Q 375 575 375 950 
Q 375 1100 462 1212 
Q 550 1325 700 1325 
Q 850 1325 900 1225 
Q 950 1125 950 1050 
Q 950 900 875 825 
Q 800 725 800 625 
Q 800 425 1037 325 
Q 1275 225 1550 225 
Q 1950 225 2162 550 
Q 2375 875 2375 1475 
Q 2375 1975 2187 2287 
Q 2000 2600 1625 2600 
Q 1350 2600 1150 2500 
Q 950 2400 775 2075 
L 550 2100 
L 675 4375 
L 2725 4375 
L 2650 4000 
L 850 4000 
L 750 2350 
Q 1000 2700 1237 2775 
Q 1475 2850 1725 2850 
z
" transform="scale(0.015625)"/>
      <path id="SimSun-30" d="M 1600 4225 
Q 1250 4225 1012 3687 
Q 775 3150 775 2250 
Q 775 1300 1012 775 
Q 1250 250 1600 250 
Q 1975 250 2187 775 
Q 2400 1300 2400 2250 
Q 2400 3150 2200 3687 
Q 2000 4225 1600 4225 
z
M 1600 50 
Q 1050 50 675 625 
Q 300 1200 300 2250 
Q 300 3225 662 3825 
Q 1025 4425 1600 4425 
Q 2150 4425 2512 3850 
Q 2875 3275 2875 2250 
Q 2875 1225 2512 637 
Q 2150 50 1600 50 
z
" transform="scale(0.015625)"/>
     </defs>
     <use xlink:href="#SimSun-4e91"/>
     <use xlink:href="#SimSun-51fd" x="100"/>
     <use xlink:href="#SimSun-6570" x="200"/>
     <use xlink:href="#SimSun-49" x="300"/>
     <use xlink:href="#SimSun-44" x="350"/>
     <use xlink:href="#SimSun-3a" x="400"/>
     <use xlink:href="#SimSun-20" x="450"/>
     <use xlink:href="#SimSun-31" x="500"/>
     <use xlink:href="#SimSun-35" x="550"/>
     <use xlink:href="#SimSun-30" x="600"/>
    </g>
   </g>
  </g>
 </g>
 <defs>
  <clipPath id="p4dc2a29674">
   <rect x="61.6375" y="29.059375" width="970.871689" height="164.4575"/>
  </clipPath>
  <clipPath id="p63dcb7702e">
   <rect x="61.6375" y="261.859375" width="970.871689" height="164.4575"/>
  </clipPath>
  <clipPath id="p1f41d324d6">
   <rect x="61.6375" y="494.659375" width="970.871689" height="164.4575"/>
  </clipPath>
 </defs>
</svg>
