<?xml version="1.0" encoding="utf-8" standalone="no"?>
<!DOCTYPE svg PUBLIC "-//W3C//DTD SVG 1.1//EN"
  "http://www.w3.org/Graphics/SVG/1.1/DTD/svg11.dtd">
<svg xmlns:xlink="http://www.w3.org/1999/xlink" width="1050.602344pt" height="690.95375pt" viewBox="0 0 1050.602344 690.95375" xmlns="http://www.w3.org/2000/svg" version="1.1">
 <metadata>
  <rdf:RDF xmlns:dc="http://purl.org/dc/elements/1.1/" xmlns:cc="http://creativecommons.org/ns#" xmlns:rdf="http://www.w3.org/1999/02/22-rdf-syntax-ns#">
   <cc:Work>
    <dc:type rdf:resource="http://purl.org/dc/dcmitype/StillImage"/>
    <dc:date>2024-02-21T15:20:36.813003</dc:date>
    <dc:format>image/svg+xml</dc:format>
    <dc:creator>
     <cc:Agent>
      <dc:title>Matplotlib v3.7.1, https://matplotlib.org/</dc:title>
     </cc:Agent>
    </dc:creator>
   </cc:Work>
  </rdf:RDF>
 </metadata>
 <defs>
  <style type="text/css">*{stroke-linejoin: round; stroke-linecap: butt}</style>
 </defs>
 <g id="figure_1">
  <g id="patch_1">
   <path d="M 0 690.95375 
L 1050.602344 690.95375 
L 1050.602344 0 
L 0 0 
z
" style="fill: #ffffff"/>
  </g>
  <g id="axes_1">
   <g id="patch_2">
    <path d="M 61.6375 192.988125 
L 1032.554189 192.988125 
L 1032.554189 29.059375 
L 61.6375 29.059375 
z
" style="fill: #ffffff"/>
   </g>
   <g id="matplotlib.axis_1">
    <g id="xtick_1">
     <g id="line2d_1">
      <defs>
       <path id="m6aa033204d" d="M 0 0 
L 0 3.5 
" style="stroke: #000000; stroke-width: 0.8"/>
      </defs>
      <g>
       <use xlink:href="#m6aa033204d" x="105.770077" y="192.988125" style="stroke: #000000; stroke-width: 0.8"/>
      </g>
     </g>
     <g id="text_1">
      <!-- 0 -->
      <g transform="translate(100.770077 213.875625) scale(0.2 -0.2)">
       <defs>
        <path id="TimesNewRomanPSMT-30" d="M 231 2094 
Q 231 2819 450 3342 
Q 669 3866 1031 4122 
Q 1313 4325 1613 4325 
Q 2100 4325 2488 3828 
Q 2972 3213 2972 2159 
Q 2972 1422 2759 906 
Q 2547 391 2217 158 
Q 1888 -75 1581 -75 
Q 975 -75 572 641 
Q 231 1244 231 2094 
z
M 844 2016 
Q 844 1141 1059 588 
Q 1238 122 1591 122 
Q 1759 122 1940 273 
Q 2122 425 2216 781 
Q 2359 1319 2359 2297 
Q 2359 3022 2209 3506 
Q 2097 3866 1919 4016 
Q 1791 4119 1609 4119 
Q 1397 4119 1231 3928 
Q 1006 3669 925 3112 
Q 844 2556 844 2016 
z
" transform="scale(0.015625)"/>
       </defs>
       <use xlink:href="#TimesNewRomanPSMT-30"/>
      </g>
     </g>
    </g>
    <g id="xtick_2">
     <g id="line2d_2">
      <g>
       <use xlink:href="#m6aa033204d" x="259.542121" y="192.988125" style="stroke: #000000; stroke-width: 0.8"/>
      </g>
     </g>
     <g id="text_2">
      <!-- 50 -->
      <g transform="translate(249.542121 213.875625) scale(0.2 -0.2)">
       <defs>
        <path id="TimesNewRomanPSMT-35" d="M 2778 4238 
L 2534 3706 
L 1259 3706 
L 981 3138 
Q 1809 3016 2294 2522 
Q 2709 2097 2709 1522 
Q 2709 1188 2573 903 
Q 2438 619 2231 419 
Q 2025 219 1772 97 
Q 1413 -75 1034 -75 
Q 653 -75 479 54 
Q 306 184 306 341 
Q 306 428 378 495 
Q 450 563 559 563 
Q 641 563 702 538 
Q 763 513 909 409 
Q 1144 247 1384 247 
Q 1750 247 2026 523 
Q 2303 800 2303 1197 
Q 2303 1581 2056 1914 
Q 1809 2247 1375 2428 
Q 1034 2569 447 2591 
L 1259 4238 
L 2778 4238 
z
" transform="scale(0.015625)"/>
       </defs>
       <use xlink:href="#TimesNewRomanPSMT-35"/>
       <use xlink:href="#TimesNewRomanPSMT-30" x="50"/>
      </g>
     </g>
    </g>
    <g id="xtick_3">
     <g id="line2d_3">
      <g>
       <use xlink:href="#m6aa033204d" x="413.314166" y="192.988125" style="stroke: #000000; stroke-width: 0.8"/>
      </g>
     </g>
     <g id="text_3">
      <!-- 100 -->
      <g transform="translate(398.314166 213.875625) scale(0.2 -0.2)">
       <defs>
        <path id="TimesNewRomanPSMT-31" d="M 750 3822 
L 1781 4325 
L 1884 4325 
L 1884 747 
Q 1884 391 1914 303 
Q 1944 216 2037 169 
Q 2131 122 2419 116 
L 2419 0 
L 825 0 
L 825 116 
Q 1125 122 1212 167 
Q 1300 213 1334 289 
Q 1369 366 1369 747 
L 1369 3034 
Q 1369 3497 1338 3628 
Q 1316 3728 1258 3775 
Q 1200 3822 1119 3822 
Q 1003 3822 797 3725 
L 750 3822 
z
" transform="scale(0.015625)"/>
       </defs>
       <use xlink:href="#TimesNewRomanPSMT-31"/>
       <use xlink:href="#TimesNewRomanPSMT-30" x="50"/>
       <use xlink:href="#TimesNewRomanPSMT-30" x="100"/>
      </g>
     </g>
    </g>
    <g id="xtick_4">
     <g id="line2d_4">
      <g>
       <use xlink:href="#m6aa033204d" x="567.08621" y="192.988125" style="stroke: #000000; stroke-width: 0.8"/>
      </g>
     </g>
     <g id="text_4">
      <!-- 150 -->
      <g transform="translate(552.08621 213.875625) scale(0.2 -0.2)">
       <use xlink:href="#TimesNewRomanPSMT-31"/>
       <use xlink:href="#TimesNewRomanPSMT-35" x="50"/>
       <use xlink:href="#TimesNewRomanPSMT-30" x="100"/>
      </g>
     </g>
    </g>
    <g id="xtick_5">
     <g id="line2d_5">
      <g>
       <use xlink:href="#m6aa033204d" x="720.858255" y="192.988125" style="stroke: #000000; stroke-width: 0.8"/>
      </g>
     </g>
     <g id="text_5">
      <!-- 200 -->
      <g transform="translate(705.858255 213.875625) scale(0.2 -0.2)">
       <defs>
        <path id="TimesNewRomanPSMT-32" d="M 2934 816 
L 2638 0 
L 138 0 
L 138 116 
Q 1241 1122 1691 1759 
Q 2141 2397 2141 2925 
Q 2141 3328 1894 3587 
Q 1647 3847 1303 3847 
Q 991 3847 742 3664 
Q 494 3481 375 3128 
L 259 3128 
Q 338 3706 661 4015 
Q 984 4325 1469 4325 
Q 1984 4325 2329 3994 
Q 2675 3663 2675 3213 
Q 2675 2891 2525 2569 
Q 2294 2063 1775 1497 
Q 997 647 803 472 
L 1909 472 
Q 2247 472 2383 497 
Q 2519 522 2628 598 
Q 2738 675 2819 816 
L 2934 816 
z
" transform="scale(0.015625)"/>
       </defs>
       <use xlink:href="#TimesNewRomanPSMT-32"/>
       <use xlink:href="#TimesNewRomanPSMT-30" x="50"/>
       <use xlink:href="#TimesNewRomanPSMT-30" x="100"/>
      </g>
     </g>
    </g>
    <g id="xtick_6">
     <g id="line2d_6">
      <g>
       <use xlink:href="#m6aa033204d" x="874.630299" y="192.988125" style="stroke: #000000; stroke-width: 0.8"/>
      </g>
     </g>
     <g id="text_6">
      <!-- 250 -->
      <g transform="translate(859.630299 213.875625) scale(0.2 -0.2)">
       <use xlink:href="#TimesNewRomanPSMT-32"/>
       <use xlink:href="#TimesNewRomanPSMT-35" x="50"/>
       <use xlink:href="#TimesNewRomanPSMT-30" x="100"/>
      </g>
     </g>
    </g>
    <g id="xtick_7">
     <g id="line2d_7">
      <g>
       <use xlink:href="#m6aa033204d" x="1028.402344" y="192.988125" style="stroke: #000000; stroke-width: 0.8"/>
      </g>
     </g>
     <g id="text_7">
      <!-- 300 -->
      <g transform="translate(1013.402344 213.875625) scale(0.2 -0.2)">
       <defs>
        <path id="TimesNewRomanPSMT-33" d="M 325 3431 
Q 506 3859 782 4092 
Q 1059 4325 1472 4325 
Q 1981 4325 2253 3994 
Q 2459 3747 2459 3466 
Q 2459 3003 1878 2509 
Q 2269 2356 2469 2072 
Q 2669 1788 2669 1403 
Q 2669 853 2319 450 
Q 1863 -75 997 -75 
Q 569 -75 414 31 
Q 259 138 259 259 
Q 259 350 332 419 
Q 406 488 509 488 
Q 588 488 669 463 
Q 722 447 909 348 
Q 1097 250 1169 231 
Q 1284 197 1416 197 
Q 1734 197 1970 444 
Q 2206 691 2206 1028 
Q 2206 1275 2097 1509 
Q 2016 1684 1919 1775 
Q 1784 1900 1550 2001 
Q 1316 2103 1072 2103 
L 972 2103 
L 972 2197 
Q 1219 2228 1467 2375 
Q 1716 2522 1828 2728 
Q 1941 2934 1941 3181 
Q 1941 3503 1739 3701 
Q 1538 3900 1238 3900 
Q 753 3900 428 3381 
L 325 3431 
z
" transform="scale(0.015625)"/>
       </defs>
       <use xlink:href="#TimesNewRomanPSMT-33"/>
       <use xlink:href="#TimesNewRomanPSMT-30" x="50"/>
       <use xlink:href="#TimesNewRomanPSMT-30" x="100"/>
      </g>
     </g>
    </g>
   </g>
   <g id="matplotlib.axis_2">
    <g id="ytick_1">
     <g id="line2d_8">
      <defs>
       <path id="m4b185f5dfb" d="M 0 0 
L -3.5 0 
" style="stroke: #000000; stroke-width: 0.8"/>
      </defs>
      <g>
       <use xlink:href="#m4b185f5dfb" x="61.6375" y="190.892194" style="stroke: #000000; stroke-width: 0.8"/>
      </g>
     </g>
     <g id="text_8">
      <!-- 0.0 -->
      <g transform="translate(29.6375 197.835944) scale(0.2 -0.2)">
       <defs>
        <path id="TimesNewRomanPSMT-2e" d="M 800 606 
Q 947 606 1047 504 
Q 1147 403 1147 259 
Q 1147 116 1045 14 
Q 944 -88 800 -88 
Q 656 -88 554 14 
Q 453 116 453 259 
Q 453 406 554 506 
Q 656 606 800 606 
z
" transform="scale(0.015625)"/>
       </defs>
       <use xlink:href="#TimesNewRomanPSMT-30"/>
       <use xlink:href="#TimesNewRomanPSMT-2e" x="50"/>
       <use xlink:href="#TimesNewRomanPSMT-30" x="75"/>
      </g>
     </g>
    </g>
    <g id="ytick_2">
     <g id="line2d_9">
      <g>
       <use xlink:href="#m4b185f5dfb" x="61.6375" y="142.990765" style="stroke: #000000; stroke-width: 0.8"/>
      </g>
     </g>
     <g id="text_9">
      <!-- 1.0 -->
      <g transform="translate(29.6375 149.934515) scale(0.2 -0.2)">
       <use xlink:href="#TimesNewRomanPSMT-31"/>
       <use xlink:href="#TimesNewRomanPSMT-2e" x="50"/>
       <use xlink:href="#TimesNewRomanPSMT-30" x="75"/>
      </g>
     </g>
    </g>
    <g id="ytick_3">
     <g id="line2d_10">
      <g>
       <use xlink:href="#m4b185f5dfb" x="61.6375" y="95.089336" style="stroke: #000000; stroke-width: 0.8"/>
      </g>
     </g>
     <g id="text_10">
      <!-- 2.0 -->
      <g transform="translate(29.6375 102.033086) scale(0.2 -0.2)">
       <use xlink:href="#TimesNewRomanPSMT-32"/>
       <use xlink:href="#TimesNewRomanPSMT-2e" x="50"/>
       <use xlink:href="#TimesNewRomanPSMT-30" x="75"/>
      </g>
     </g>
    </g>
    <g id="ytick_4">
     <g id="line2d_11">
      <g>
       <use xlink:href="#m4b185f5dfb" x="61.6375" y="47.187906" style="stroke: #000000; stroke-width: 0.8"/>
      </g>
     </g>
     <g id="text_11">
      <!-- 3.0 -->
      <g transform="translate(29.6375 54.131656) scale(0.2 -0.2)">
       <use xlink:href="#TimesNewRomanPSMT-33"/>
       <use xlink:href="#TimesNewRomanPSMT-2e" x="50"/>
       <use xlink:href="#TimesNewRomanPSMT-30" x="75"/>
      </g>
     </g>
    </g>
    <g id="text_12">
     <!-- CPU使用率 -->
     <g transform="translate(23.059375 156.02375) rotate(-90) scale(0.2 -0.2)">
      <defs>
       <path id="SimSun-43" d="M 1725 50 
Q 1025 50 612 575 
Q 200 1100 200 2225 
Q 200 3175 637 3800 
Q 1075 4425 1825 4425 
Q 2000 4425 2175 4375 
Q 2350 4300 2475 4300 
Q 2575 4300 2637 4325 
Q 2700 4350 2750 4425 
L 2975 3325 
L 2825 3275 
Q 2675 3750 2425 4000 
Q 2175 4250 1775 4250 
Q 1250 4250 962 3675 
Q 675 3100 675 2250 
Q 675 1325 925 800 
Q 1175 275 1750 275 
Q 2150 275 2437 562 
Q 2725 850 2825 1325 
L 2975 1250 
Q 2850 725 2512 387 
Q 2175 50 1725 50 
z
" transform="scale(0.015625)"/>
       <path id="SimSun-50" d="M 950 2100 
L 950 450 
Q 950 350 1012 300 
Q 1075 250 1175 250 
L 1350 250 
L 1350 100 
L 150 100 
L 150 250 
L 325 250 
Q 450 250 500 300 
Q 550 350 550 450 
L 550 4025 
Q 550 4125 500 4175 
Q 450 4225 325 4225 
L 175 4225 
L 175 4375 
L 1650 4375 
Q 2275 4375 2612 4062 
Q 2950 3750 2950 3275 
Q 2950 2700 2587 2400 
Q 2225 2100 1725 2100 
L 950 2100 
z
M 1575 2250 
Q 1950 2250 2237 2475 
Q 2525 2700 2525 3250 
Q 2525 3750 2287 3987 
Q 2050 4225 1525 4225 
L 1175 4225 
Q 1075 4225 1012 4175 
Q 950 4125 950 4025 
L 950 2250 
L 1575 2250 
z
" transform="scale(0.015625)"/>
       <path id="SimSun-55" d="M 1625 250 
Q 2000 250 2262 500 
Q 2525 750 2525 1125 
L 2525 4025 
Q 2525 4125 2475 4175 
Q 2425 4225 2300 4225 
L 2150 4225 
L 2150 4375 
L 3050 4375 
L 3050 4225 
L 2900 4225 
Q 2800 4225 2737 4175 
Q 2675 4125 2675 4025 
L 2675 1125 
Q 2675 625 2337 337 
Q 2000 50 1575 50 
Q 1125 50 787 300 
Q 450 550 450 1100 
L 450 4025 
Q 450 4125 400 4175 
Q 350 4225 225 4225 
L 100 4225 
L 100 4375 
L 1200 4375 
L 1200 4225 
L 1075 4225 
Q 975 4225 912 4175 
Q 850 4125 850 4025 
L 850 1100 
Q 850 600 1062 425 
Q 1275 250 1625 250 
z
" transform="scale(0.015625)"/>
       <path id="SimSun-4f7f" d="M 2875 3150 
L 2875 2100 
L 3825 2100 
Q 3850 2825 3850 3150 
L 2875 3150 
z
M 4175 3150 
Q 4175 2800 4150 2100 
L 5150 2100 
L 5150 3150 
L 4175 3150 
z
M 5475 3100 
L 5475 2425 
Q 5475 2100 5500 1800 
L 5150 1675 
L 5150 1950 
L 4150 1950 
Q 4125 1175 3875 600 
Q 4275 275 4875 75 
Q 5475 -125 6075 -150 
L 6075 -250 
Q 5700 -300 5600 -575 
Q 4525 -325 3725 350 
Q 3425 25 2925 -225 
Q 2425 -475 1875 -650 
L 1825 -550 
Q 2400 -325 2850 -25 
Q 3300 275 3500 575 
Q 3200 925 2825 1650 
L 2900 1700 
Q 3325 1100 3625 825 
Q 3800 1300 3825 1950 
L 2875 1950 
L 2875 1825 
L 2525 1675 
Q 2550 2075 2550 2562 
Q 2550 3050 2525 3500 
L 2875 3300 
L 3850 3300 
L 3850 4025 
L 2975 4025 
Q 2650 4025 2375 3950 
L 2150 4175 
L 3850 4175 
L 3850 4525 
Q 3850 4775 3825 5225 
L 4350 5000 
L 4175 4825 
L 4175 4175 
L 5300 4175 
L 5600 4475 
L 6050 4025 
L 4175 4025 
L 4175 3300 
L 5100 3300 
L 5275 3525 
L 5650 3225 
L 5475 3100 
z
M 1675 3175 
L 1675 -450 
L 1325 -625 
Q 1350 -75 1350 350 
L 1350 3200 
Q 900 2475 350 1900 
L 275 1950 
Q 700 2525 1112 3400 
Q 1525 4275 1800 5250 
L 2325 4925 
L 2125 4800 
Q 1725 3925 1500 3525 
L 1875 3325 
L 1675 3175 
z
" transform="scale(0.015625)"/>
       <path id="SimSun-7528" d="M 3400 3150 
L 3400 1825 
L 5075 1825 
L 5075 3150 
L 3400 3150 
z
M 4075 100 
Q 4725 50 4900 62 
Q 5075 75 5075 400 
L 5075 1675 
L 3400 1675 
Q 3400 75 3425 -225 
L 3050 -400 
Q 3075 1025 3075 1675 
L 1425 1675 
Q 1250 350 375 -600 
L 300 -550 
Q 775 225 950 1025 
Q 1125 1825 1125 3225 
Q 1125 4625 1100 5075 
L 1475 4825 
L 5050 4825 
L 5225 5100 
L 5625 4800 
L 5425 4600 
L 5425 225 
Q 5450 -400 4875 -575 
Q 4825 -150 4075 -25 
L 4075 100 
z
M 1475 4675 
L 1475 3300 
L 3075 3300 
L 3075 4675 
L 1475 4675 
z
M 3400 4675 
L 3400 3300 
L 5075 3300 
L 5075 4675 
L 3400 4675 
z
M 1475 3150 
Q 1450 2100 1425 1825 
L 3075 1825 
L 3075 3150 
L 1475 3150 
z
" transform="scale(0.015625)"/>
       <path id="SimSun-7387" d="M 875 3725 
L 925 3800 
Q 1375 3650 1550 3525 
Q 1725 3400 1725 3250 
Q 1725 3175 1662 3025 
Q 1600 2875 1550 2875 
Q 1500 2875 1425 3050 
Q 1275 3325 875 3725 
z
M 550 1850 
Q 875 1925 2000 2575 
L 2050 2500 
Q 1675 2225 1337 1937 
Q 1000 1650 875 1425 
L 550 1850 
z
M 5200 3450 
Q 4800 3150 4275 2800 
L 4225 2875 
Q 4775 3400 5050 3925 
L 5450 3525 
L 5200 3450 
z
M 4325 2500 
L 4350 2575 
Q 5225 2350 5375 2212 
Q 5525 2075 5525 1900 
Q 5525 1775 5487 1662 
Q 5450 1550 5400 1550 
Q 5325 1550 5200 1800 
Q 4975 2150 4325 2500 
z
M 3150 3900 
Q 2500 3300 2300 3150 
Q 2800 3150 3400 3175 
Q 3700 3500 3850 3825 
L 4250 3450 
Q 4050 3400 3450 2825 
Q 2850 2250 2475 1950 
Q 3150 1975 3850 2000 
Q 3750 2175 3550 2450 
L 3600 2500 
Q 4050 2250 4200 2100 
Q 4350 1950 4350 1850 
Q 4350 1775 4250 1625 
Q 4150 1475 4100 1475 
Q 4075 1475 4050 1550 
Q 4000 1700 3900 1900 
Q 3650 1875 3075 1800 
L 3500 1550 
L 3325 1425 
L 3325 975 
L 5325 975 
L 5650 1300 
L 6100 825 
L 3325 825 
Q 3325 -275 3350 -525 
L 2975 -650 
Q 3000 0 3000 825 
L 1125 825 
Q 800 825 525 750 
L 300 975 
L 3000 975 
L 3000 1775 
Q 2450 1700 2200 1525 
L 1950 1950 
Q 2275 1950 2675 2350 
Q 3075 2750 3325 3050 
Q 2400 2950 2150 2775 
L 1950 3175 
Q 2150 3150 2475 3575 
Q 2800 4000 2900 4225 
L 1450 4225 
Q 1125 4225 850 4150 
L 625 4375 
L 3100 4375 
Q 3050 4800 2675 5200 
L 2725 5250 
Q 3225 5050 3337 4912 
Q 3450 4775 3450 4700 
Q 3450 4550 3250 4375 
L 5025 4375 
L 5350 4675 
L 5775 4225 
L 3050 4225 
L 3375 3950 
L 3150 3900 
z
" transform="scale(0.015625)"/>
      </defs>
      <use xlink:href="#SimSun-43"/>
      <use xlink:href="#SimSun-50" x="50"/>
      <use xlink:href="#SimSun-55" x="100"/>
      <use xlink:href="#SimSun-4f7f" x="150"/>
      <use xlink:href="#SimSun-7528" x="250"/>
      <use xlink:href="#SimSun-7387" x="350"/>
     </g>
    </g>
   </g>
   <g id="line2d_12">
    <path d="M 105.770077 115.66779 
L 108.845518 122.124906 
L 111.920959 129.243058 
L 114.996399 134.186483 
L 118.07184 136.351627 
L 121.147281 141.400436 
L 124.222722 157.294133 
L 127.298163 143.297337 
L 130.373604 150.39633 
L 133.449045 148.667087 
L 136.524486 158.127619 
L 139.599927 158.577893 
L 142.675367 157.706085 
L 145.750808 161.624421 
L 148.826249 161.605263 
L 151.90169 161.394496 
L 154.977131 165.379894 
L 158.052572 166.031353 
L 161.128013 166.12716 
L 164.203454 166.55827 
L 167.278895 167.966571 
L 170.354335 166.951063 
L 173.429776 164.948778 
L 176.505217 173.369852 
L 179.580658 176.986405 
L 182.656099 170.467023 
L 185.73154 172.804618 
L 188.806981 183.256703 
L 191.882422 184.229109 
L 194.957863 184.118929 
L 198.033303 174.835633 
L 201.108744 176.320578 
L 204.184185 182.217246 
L 207.259626 177.891743 
L 210.335067 181.192157 
L 213.410508 182.289099 
L 216.485949 179.549134 
L 219.56139 181.450828 
L 222.636831 183.826733 
L 225.712272 184.597949 
L 228.787712 182.902236 
L 231.863153 177.58039 
L 234.938594 178.859353 
L 238.014035 178.035454 
L 241.089476 178.840195 
L 244.164917 176.5026 
L 247.240358 175.630798 
L 250.315799 174.462003 
L 253.39124 175.515832 
L 256.46668 174.854797 
L 259.542121 166.079251 
L 262.617562 171.856167 
L 265.693003 157.825841 
L 268.768444 149.261066 
L 271.843885 139.877175 
L 274.919326 123.925996 
L 277.994767 124.711579 
L 281.070208 131.226175 
L 284.145648 128.217963 
L 287.221089 125.784572 
L 290.29653 104.243299 
L 293.371971 93.499007 
L 296.447412 109.55557 
L 299.522853 91.276377 
L 302.598294 101.158449 
L 305.673735 105.915056 
L 308.749176 85.130626 
L 311.824616 83.315163 
L 314.900057 89.724376 
L 317.975498 90.040521 
L 321.050939 94.006766 
L 324.12638 85.298281 
L 327.201821 73.950439 
L 330.277262 54.80423 
L 333.352703 80.378804 
L 336.428144 76.072465 
L 339.503584 65.265902 
L 342.579025 59.335715 
L 345.654466 78.917813 
L 348.729907 40.060179 
L 351.805348 66.578402 
L 354.880789 64.916226 
L 361.031671 84.694725 
L 364.107112 73.059473 
L 367.182552 50.105102 
L 370.257993 69.624936 
L 373.333434 66.228726 
L 376.408875 71.018865 
L 379.484316 67.296928 
L 382.559757 56.581376 
L 385.635198 59.383613 
L 388.710639 59.651859 
L 391.78608 57.505873 
L 394.86152 64.346202 
L 397.936961 67.028682 
L 401.012402 50.564952 
L 404.087843 57.290321 
L 407.163284 70.386564 
L 410.238725 79.550114 
L 413.314166 52.586397 
L 416.389607 36.510682 
L 419.465048 71.267959 
L 422.540488 75.526389 
L 425.615929 78.285512 
L 428.69137 72.796011 
L 431.766811 75.497655 
L 434.842252 74.692903 
L 437.917693 71.464348 
L 440.993134 73.265443 
L 444.068575 73.083422 
L 447.144016 52.088219 
L 450.219457 71.176937 
L 453.294897 84.55102 
L 456.370338 92.71343 
L 459.445779 79.219591 
L 462.52122 91.429664 
L 465.596661 82.251758 
L 468.672102 47.791462 
L 471.747543 52.00679 
L 474.822984 55.728727 
L 477.898425 44.261129 
L 480.973865 49.994928 
L 484.049306 51.067926 
L 487.124747 53.750406 
L 490.200188 72.709786 
L 493.275629 72.106231 
L 496.35107 70.870374 
L 499.426511 71.588889 
L 502.501952 75.928759 
L 505.577393 78.802854 
L 508.652833 82.223012 
L 511.728274 83.286429 
L 514.803715 80.354855 
L 517.879156 87.281409 
L 520.954597 91.089571 
L 524.030038 92.263151 
L 527.105479 97.412552 
L 530.18092 100.861456 
L 533.256361 106.494668 
L 536.331801 117.392242 
L 539.407242 120.304647 
L 542.482683 125.650448 
L 545.558124 131.681234 
L 548.633565 134.603226 
L 551.709006 138.785018 
L 554.784447 140.236433 
L 557.859888 141.055546 
L 560.935329 145.194231 
L 564.010769 145.108011 
L 567.08621 154.707455 
L 570.161651 140.279545 
L 573.237092 142.075844 
L 576.312533 152.274064 
L 579.387974 164.297325 
L 582.463415 170.639468 
L 585.538856 169.566481 
L 588.614297 172.287277 
L 591.689737 173.638099 
L 594.765178 176.722949 
L 597.840619 181.786131 
L 603.991501 180.339513 
L 607.066942 178.586315 
L 610.142383 173.935091 
L 619.368705 176.579249 
L 622.444146 177.010359 
L 625.519587 175.70265 
L 631.670469 177.72888 
L 634.74591 179.525185 
L 637.821351 183.295025 
L 640.896792 178.514463 
L 643.972233 174.758995 
L 647.047673 180.990966 
L 650.123114 181.455613 
L 653.198555 180.689194 
L 656.273996 178.351599 
L 659.349437 181.829243 
L 662.424878 183.448306 
L 665.500319 185.536818 
L 668.57576 185.40748 
L 674.726642 177.518119 
L 680.877523 178.303696 
L 683.952964 174.883537 
L 687.028405 175.199687 
L 690.103846 174.826051 
L 693.179287 172.977058 
L 696.254728 171.53044 
L 699.330169 164.417075 
L 702.40561 165.236189 
L 705.48105 170.543673 
L 708.556491 158.094088 
L 711.631932 156.489392 
L 714.707373 142.823111 
L 717.782814 140.499889 
L 720.858255 143.642227 
L 723.933696 148.796419 
L 727.009137 148.413207 
L 730.084578 147.359375 
L 733.160018 134.684661 
L 739.3109 90.45727 
L 742.386341 116.165967 
L 745.461782 105.507895 
L 748.537223 102.370351 
L 751.612664 86.318585 
L 754.688105 73.773203 
L 757.763546 85.010881 
L 760.838986 90.778211 
L 763.914427 79.348929 
L 766.989868 82.510423 
L 770.065309 82.682862 
L 773.14075 85.480313 
L 776.216191 96.454525 
L 779.291632 79.61238 
L 782.367073 75.69884 
L 785.442514 79.923739 
L 788.517954 113.780474 
L 791.593395 80.15367 
L 794.668836 90.299197 
L 797.744277 101.84823 
L 800.819718 107.998772 
L 803.895159 108.621491 
L 806.9706 105.148638 
L 810.046041 85.039616 
L 813.121482 104.243299 
L 816.196922 106.99284 
L 819.272363 109.172357 
L 822.347804 118.105972 
L 825.423245 97.54189 
L 828.498686 104.525919 
L 831.574127 107.783214 
L 834.649568 114.872625 
L 837.725009 114.369663 
L 840.80045 117.076091 
L 843.87589 99.390884 
L 846.951331 95.156397 
L 850.026772 95.213877 
L 853.102213 87.741259 
L 856.177654 83.343909 
L 859.253095 77.653211 
L 862.328536 78.802854 
L 865.403977 90.960233 
L 868.479418 109.933991 
L 871.554858 103.682851 
L 874.630299 112.544618 
L 877.70574 113.98645 
L 880.781181 109.268159 
L 883.856622 96.109634 
L 886.932063 103.759494 
L 890.007504 106.489878 
L 893.082945 107.3042 
L 896.158386 108.693343 
L 899.233827 110.681251 
L 902.309267 110.202238 
L 905.384708 91.012927 
L 908.460149 84.177395 
L 911.53559 71.603268 
L 914.611031 47.211855 
L 917.686472 65.05035 
L 920.761913 74.779128 
L 923.837354 70.985334 
L 926.912795 81.418272 
L 929.988235 86.993998 
L 933.063676 88.172375 
L 936.139117 80.326121 
L 939.214558 76.556275 
L 942.289999 65.218004 
L 945.36544 82.108053 
L 948.440881 87.195184 
L 951.516322 88.517265 
L 954.591763 82.548739 
L 957.667203 89.456129 
L 960.742644 92.742164 
L 963.818085 100.598001 
L 966.893526 97.197 
L 969.968967 99.592069 
L 973.044408 110.341152 
L 976.119849 114.863044 
L 979.19529 116.376729 
L 982.270731 118.503557 
L 985.346171 127.221613 
L 988.421612 126.148626 
L 988.421612 126.148626 
" clip-path="url(#p9af725bd08)" style="fill: none; stroke: #1f77b4; stroke-width: 1.5; stroke-linecap: square"/>
   </g>
   <g id="line2d_13">
    <path d="M 548.633565 127.390387 
L 551.709006 127.462388 
L 554.784447 135.442548 
L 557.859888 139.933085 
L 560.935329 139.367097 
L 564.010769 144.299222 
L 567.08621 157.518005 
L 570.161651 143.977918 
L 573.237092 153.95188 
L 576.312533 152.622249 
L 579.387974 154.778371 
L 582.463415 160.243449 
L 588.614297 157.628785 
L 591.689737 162.463629 
L 594.765178 162.980079 
L 600.91606 170.933069 
L 603.991501 166.83635 
L 607.066942 168.976693 
L 610.142383 168.871835 
L 613.217824 169.067504 
L 616.293265 171.797596 
L 619.368705 177.492731 
L 622.444146 175.354688 
L 625.519587 174.014293 
L 628.595028 177.05225 
L 631.670469 184.672862 
L 634.74591 180.761538 
L 637.821351 179.268952 
L 640.896792 181.104133 
L 643.972233 179.819014 
L 647.047673 183.52262 
L 650.123114 181.580766 
L 653.198555 182.97237 
L 656.273996 181.613868 
L 659.349437 176.645329 
L 665.500319 180.142291 
L 668.57576 176.589733 
L 671.651201 179.833524 
L 674.726642 180.391151 
L 677.802082 176.956523 
L 680.877523 173.316329 
L 683.952964 178.669429 
L 687.028405 178.11163 
L 690.103846 167.202727 
L 693.179287 169.485743 
L 696.254728 166.127577 
L 699.330169 160.634204 
L 702.40561 159.849821 
L 705.48105 161.190085 
L 708.556491 154.837455 
L 711.631932 153.269305 
L 714.707373 139.864173 
L 717.782814 130.841352 
L 720.858255 129.230426 
L 723.933696 132.153361 
L 727.009137 127.799341 
L 730.084578 125.423344 
L 733.160018 112.096086 
L 736.235459 104.261966 
L 739.3109 111.116165 
L 742.386341 106.934807 
L 745.461782 106.168576 
L 748.537223 103.305223 
L 751.612664 89.767158 
L 754.688105 86.280132 
L 757.763546 89.273605 
L 760.838986 88.969715 
L 763.914427 89.581379 
L 766.989868 85.531843 
L 770.065309 76.053826 
L 773.14075 72.93074 
L 776.216191 81.831526 
L 779.291632 79.872495 
L 782.367073 72.748696 
L 785.442514 72.225416 
L 788.517954 77.746906 
L 791.593395 60.753352 
L 794.668836 69.656274 
L 797.744277 68.773759 
L 800.819718 71.304299 
L 803.895159 75.083327 
L 806.9706 69.913214 
L 810.046041 63.538892 
L 813.121482 71.044847 
L 816.196922 69.712338 
L 819.272363 69.798323 
L 822.347804 71.553885 
L 825.423245 65.416677 
L 828.498686 64.629193 
L 831.574127 66.776835 
L 837.725009 66.64865 
L 840.80045 69.281176 
L 843.87589 64.961292 
L 846.951331 64.412259 
L 850.026772 69.352932 
L 853.102213 74.574894 
L 856.177654 64.590443 
L 859.253095 62.512295 
L 862.328536 70.069402 
L 865.403977 71.13813 
L 868.479418 76.627814 
L 871.554858 74.577589 
L 874.630299 74.496138 
L 877.70574 77.299561 
L 880.781181 75.516567 
L 883.856622 75.855827 
L 886.932063 76.944221 
L 890.007504 72.375026 
L 893.082945 74.199511 
L 896.158386 76.694807 
L 899.233827 77.698151 
L 902.309267 72.242912 
L 905.384708 76.771439 
L 908.460149 75.198732 
L 911.53559 62.422175 
L 914.611031 64.843774 
L 917.686472 66.913608 
L 920.761913 65.761453 
L 923.837354 66.167592 
L 926.912795 69.393349 
L 929.988235 65.570797 
L 933.063676 72.99071 
L 936.139117 72.355999 
L 939.214558 72.329857 
L 942.289999 78.367843 
L 945.36544 82.438576 
L 948.440881 81.1364 
L 951.516322 86.884783 
L 954.591763 87.590096 
L 957.667203 86.626073 
L 960.742644 95.608927 
L 963.818085 93.624268 
L 966.893526 96.070639 
L 969.968967 105.560184 
L 973.044408 104.200666 
L 976.119849 109.518881 
L 979.19529 115.764591 
L 982.270731 117.925144 
L 985.346171 121.470506 
L 988.421612 125.460906 
L 988.421612 125.460906 
" clip-path="url(#p9af725bd08)" style="fill: none; stroke: #ff7f0e; stroke-width: 1.5; stroke-linecap: square"/>
   </g>
   <g id="line2d_14">
    <path d="M 548.633565 192.988125 
L 548.633565 29.059375 
" clip-path="url(#p9af725bd08)" style="fill: none; stroke-dasharray: 7.4,3.2; stroke-dashoffset: 0; stroke: #0000ff; stroke-width: 2"/>
   </g>
   <g id="patch_3">
    <path d="M 61.6375 192.988125 
L 61.6375 29.059375 
" style="fill: none; stroke: #000000; stroke-width: 0.8; stroke-linejoin: miter; stroke-linecap: square"/>
   </g>
   <g id="patch_4">
    <path d="M 1032.554189 192.988125 
L 1032.554189 29.059375 
" style="fill: none; stroke: #000000; stroke-width: 0.8; stroke-linejoin: miter; stroke-linecap: square"/>
   </g>
   <g id="patch_5">
    <path d="M 61.6375 192.988125 
L 1032.554189 192.988125 
" style="fill: none; stroke: #000000; stroke-width: 0.8; stroke-linejoin: miter; stroke-linecap: square"/>
   </g>
   <g id="patch_6">
    <path d="M 61.6375 29.059375 
L 1032.554189 29.059375 
" style="fill: none; stroke: #000000; stroke-width: 0.8; stroke-linejoin: miter; stroke-linecap: square"/>
   </g>
   <g id="text_13">
    <!-- 云函数ID: 28 -->
    <g transform="translate(487.095845 23.059375) scale(0.2 -0.2)">
     <defs>
      <path id="SimSun-4e91" d="M 1200 4450 
L 4500 4450 
L 4850 4800 
L 5350 4300 
L 1975 4300 
Q 1700 4300 1425 4225 
L 1200 4450 
z
M 1600 275 
Q 2300 300 4725 450 
Q 4425 975 3850 1700 
L 3925 1775 
Q 5200 725 5287 500 
Q 5375 275 5375 175 
Q 5375 0 5250 -162 
Q 5125 -325 5075 -325 
Q 5025 -325 4975 -200 
Q 4875 50 4775 300 
Q 1650 -25 1300 -300 
L 975 300 
Q 1225 350 1462 550 
Q 1700 750 2150 1462 
Q 2600 2175 2725 2600 
L 1250 2600 
Q 925 2600 650 2525 
L 425 2750 
L 5025 2750 
L 5450 3175 
L 6025 2600 
L 3250 2600 
Q 3000 2025 2500 1375 
Q 2000 725 1600 275 
z
" transform="scale(0.015625)"/>
      <path id="SimSun-51fd" d="M 3050 2275 
L 3050 3000 
Q 3050 3450 3025 3800 
L 3275 3625 
L 4450 4475 
L 1650 4475 
Q 1325 4475 1050 4400 
L 825 4625 
L 4450 4625 
L 4775 4875 
L 5150 4375 
Q 4875 4325 4550 4175 
Q 4225 4025 3400 3550 
L 3550 3450 
L 3375 3325 
L 3375 2400 
Q 4250 3225 4475 3600 
L 4875 3150 
L 4625 3125 
Q 3625 2425 3400 2275 
Q 4575 1675 4687 1487 
Q 4800 1300 4800 1150 
Q 4800 1025 4750 925 
Q 4700 825 4675 825 
Q 4575 825 4375 1150 
Q 4075 1600 3375 2150 
L 3375 725 
Q 3375 350 2875 150 
Q 2850 450 2200 650 
L 2200 750 
Q 2800 675 2925 700 
Q 3050 725 3050 850 
L 3050 2100 
Q 1850 1300 1625 1025 
L 1275 1400 
Q 1575 1475 2087 1725 
Q 2600 1975 3050 2275 
z
M 1700 3475 
L 1775 3550 
Q 2350 3200 2475 3025 
Q 2600 2850 2600 2775 
Q 2600 2650 2500 2525 
Q 2400 2400 2350 2400 
Q 2275 2400 2225 2575 
Q 2150 2875 1700 3475 
z
M 5150 0 
L 5150 2175 
Q 5150 2725 5125 3325 
L 5725 3050 
L 5500 2850 
L 5500 525 
Q 5500 100 5525 -400 
L 5150 -600 
L 5150 -150 
L 1250 -150 
L 1000 -375 
L 675 -50 
L 875 125 
L 875 2375 
Q 875 2800 850 3425 
L 1450 3150 
L 1225 2975 
L 1225 0 
L 5150 0 
z
" transform="scale(0.015625)"/>
      <path id="SimSun-6570" d="M 1875 1525 
Q 1675 1200 1500 900 
Q 1825 825 2275 725 
Q 2500 975 2725 1525 
L 1875 1525 
z
M 850 4900 
Q 1325 4600 1425 4450 
Q 1525 4300 1525 4225 
Q 1525 4100 1437 3975 
Q 1350 3850 1300 3850 
Q 1225 3850 1150 4100 
Q 1050 4450 775 4850 
L 850 4900 
z
M 3000 4975 
L 3450 4675 
Q 3250 4625 3100 4425 
Q 2925 4225 2525 3825 
L 2450 3875 
Q 2925 4625 3000 4975 
z
M 1875 5250 
L 2425 5000 
L 2225 4825 
L 2225 3675 
L 2850 3675 
L 3125 3950 
L 3550 3525 
L 2225 3525 
L 2225 3300 
Q 2800 3175 2937 3062 
Q 3075 2950 3075 2775 
Q 3075 2700 3050 2587 
Q 3025 2475 2975 2475 
Q 2925 2475 2800 2650 
Q 2600 2925 2225 3175 
L 2225 2400 
L 1925 2200 
L 2275 2050 
Q 2150 2000 1950 1675 
L 2725 1675 
L 2900 1900 
L 3275 1575 
L 3050 1450 
Q 2800 875 2600 650 
Q 3000 550 3137 437 
Q 3275 325 3275 150 
Q 3275 -25 3200 -25 
Q 3125 -25 3025 75 
Q 2750 275 2400 425 
Q 1525 -275 325 -500 
L 300 -425 
Q 1450 -50 2100 550 
Q 1600 725 1125 800 
Q 1225 950 1525 1525 
L 1200 1525 
Q 875 1525 600 1450 
L 375 1675 
L 1575 1675 
Q 1675 1925 1775 2275 
L 1900 2225 
L 1900 3250 
Q 1225 2475 350 2050 
L 300 2125 
Q 1225 2775 1700 3525 
L 1250 3525 
Q 925 3525 650 3450 
L 425 3675 
L 1900 3675 
Q 1900 4575 1875 5250 
z
M 3925 3525 
Q 4050 2075 4525 1100 
Q 4925 1950 5025 3525 
L 3925 3525 
z
M 4050 5250 
L 4625 4925 
Q 4425 4850 4325 4625 
Q 4225 4400 3950 3675 
L 5375 3675 
L 5675 3975 
L 6125 3525 
L 5400 3525 
Q 5250 1675 4750 775 
Q 5325 75 6100 -100 
L 6100 -200 
Q 5625 -275 5600 -500 
Q 4950 -50 4525 525 
Q 3700 -275 2550 -650 
L 2500 -575 
Q 3650 -50 4325 800 
Q 3850 1975 3825 3375 
Q 3575 2725 3100 2150 
L 3025 2200 
Q 3625 3200 4050 5250 
z
" transform="scale(0.015625)"/>
      <path id="SimSun-49" d="M 600 4225 
L 600 4375 
L 2600 4375 
L 2600 4225 
L 2025 4225 
Q 1925 4225 1862 4175 
Q 1800 4125 1800 4025 
L 1800 450 
Q 1800 350 1862 300 
Q 1925 250 2025 250 
L 2600 250 
L 2600 100 
L 600 100 
L 600 250 
L 1175 250 
Q 1300 250 1350 300 
Q 1400 350 1400 450 
L 1400 4025 
Q 1400 4125 1350 4175 
Q 1300 4225 1175 4225 
L 600 4225 
z
" transform="scale(0.015625)"/>
      <path id="SimSun-44" d="M 2500 2275 
Q 2500 3350 2175 3787 
Q 1850 4225 1275 4225 
Q 1100 4225 1012 4175 
Q 925 4125 925 4025 
L 925 450 
Q 925 350 1000 300 
Q 1075 250 1200 250 
Q 1750 250 2125 662 
Q 2500 1075 2500 2275 
z
M 525 4025 
Q 525 4125 475 4175 
Q 425 4225 300 4225 
L 150 4225 
L 150 4375 
L 1275 4375 
Q 2050 4375 2512 3875 
Q 2975 3375 2975 2325 
Q 2975 1175 2525 637 
Q 2075 100 1200 100 
L 125 100 
L 125 250 
L 300 250 
Q 425 250 475 300 
Q 525 350 525 450 
L 525 4025 
z
" transform="scale(0.015625)"/>
      <path id="SimSun-3a" d="M 1900 2725 
Q 1900 2575 1800 2475 
Q 1700 2375 1550 2375 
Q 1400 2375 1300 2475 
Q 1200 2575 1200 2725 
Q 1200 2875 1300 2975 
Q 1400 3075 1550 3075 
Q 1700 3075 1800 2975 
Q 1900 2875 1900 2725 
z
M 1900 375 
Q 1900 225 1800 125 
Q 1700 25 1550 25 
Q 1400 25 1300 125 
Q 1200 225 1200 375 
Q 1200 525 1300 625 
Q 1400 725 1550 725 
Q 1700 725 1800 625 
Q 1900 525 1900 375 
z
" transform="scale(0.015625)"/>
      <path id="SimSun-20" d="M 0 0 
Q 0 0 0 0 
z
" transform="scale(0.015625)"/>
      <path id="SimSun-32" d="M 2325 3325 
Q 2325 3775 2125 4012 
Q 1925 4250 1525 4250 
Q 1225 4250 1012 4087 
Q 800 3925 800 3675 
Q 800 3525 900 3425 
Q 975 3325 975 3225 
Q 975 3100 912 3037 
Q 850 2975 725 2975 
Q 575 2975 487 3062 
Q 400 3150 400 3350 
Q 400 3875 775 4150 
Q 1150 4425 1575 4425 
Q 2175 4425 2462 4125 
Q 2750 3825 2750 3375 
Q 2750 3075 2612 2775 
Q 2475 2475 2175 2200 
Q 1450 1500 1062 1062 
Q 675 625 600 475 
L 2075 475 
Q 2300 475 2450 650 
Q 2600 825 2650 1175 
L 2800 1175 
L 2650 100 
L 325 100 
L 325 425 
Q 450 650 737 1000 
Q 1025 1350 1500 1825 
Q 1925 2250 2125 2625 
Q 2325 3000 2325 3325 
z
" transform="scale(0.015625)"/>
      <path id="SimSun-38" d="M 625 1125 
Q 625 725 887 475 
Q 1150 225 1550 225 
Q 2025 225 2237 475 
Q 2450 725 2450 1100 
Q 2450 1425 2150 1725 
Q 1850 2025 1250 2275 
Q 950 2075 787 1775 
Q 625 1475 625 1125 
z
M 2825 1175 
Q 2825 700 2475 375 
Q 2125 50 1550 50 
Q 1025 50 650 375 
Q 275 700 275 1125 
Q 275 1550 487 1850 
Q 700 2150 1100 2375 
Q 750 2550 562 2812 
Q 375 3075 375 3400 
Q 375 3825 700 4125 
Q 1025 4425 1600 4425 
Q 2125 4425 2450 4125 
Q 2775 3825 2775 3400 
Q 2775 3100 2587 2837 
Q 2400 2575 2000 2375 
Q 2425 2125 2625 1825 
Q 2825 1525 2825 1175 
z
M 2425 3375 
Q 2425 3725 2225 3987 
Q 2025 4250 1600 4250 
Q 1125 4250 925 4000 
Q 725 3750 725 3475 
Q 725 3200 1012 2937 
Q 1300 2675 1825 2475 
Q 2125 2625 2275 2850 
Q 2425 3075 2425 3375 
z
" transform="scale(0.015625)"/>
     </defs>
     <use xlink:href="#SimSun-4e91"/>
     <use xlink:href="#SimSun-51fd" x="100"/>
     <use xlink:href="#SimSun-6570" x="200"/>
     <use xlink:href="#SimSun-49" x="300"/>
     <use xlink:href="#SimSun-44" x="350"/>
     <use xlink:href="#SimSun-3a" x="400"/>
     <use xlink:href="#SimSun-20" x="450"/>
     <use xlink:href="#SimSun-32" x="500"/>
     <use xlink:href="#SimSun-38" x="550"/>
    </g>
   </g>
   <g id="legend_1">
    <g id="patch_7">
     <path d="M 75.6375 101.934375 
L 199.6375 101.934375 
Q 203.6375 101.934375 203.6375 97.934375 
L 203.6375 43.059375 
Q 203.6375 39.059375 199.6375 39.059375 
L 75.6375 39.059375 
Q 71.6375 39.059375 71.6375 43.059375 
L 71.6375 97.934375 
Q 71.6375 101.934375 75.6375 101.934375 
z
" style="fill: #ffffff; opacity: 0.8; stroke: #cccccc; stroke-linejoin: miter"/>
    </g>
    <g id="line2d_15">
     <path d="M 79.6375 55.996875 
L 99.6375 55.996875 
L 119.6375 55.996875 
" style="fill: none; stroke: #1f77b4; stroke-width: 1.5; stroke-linecap: square"/>
    </g>
    <g id="text_14">
     <!-- 真实值 -->
     <g transform="translate(135.6375 62.996875) scale(0.2 -0.2)">
      <defs>
       <path id="SimSun-771f" d="M 2050 3450 
L 2050 2900 
L 4300 2900 
L 4300 3450 
L 2050 3450 
z
M 2050 2750 
L 2050 2225 
L 4300 2225 
L 4300 2750 
L 2050 2750 
z
M 2050 2075 
L 2050 1550 
L 4300 1550 
L 4300 2075 
L 2050 2075 
z
M 2050 1400 
L 2050 875 
L 4300 875 
L 4300 1400 
L 2050 1400 
z
M 2875 3600 
L 2925 4325 
L 1525 4325 
Q 1200 4325 925 4250 
L 700 4475 
L 2950 4475 
Q 2975 4825 2975 5275 
L 3550 5025 
L 3375 4925 
L 3300 4475 
L 5000 4475 
L 5325 4825 
L 5775 4325 
L 3275 4325 
L 3200 3600 
L 4275 3600 
L 4450 3875 
L 4850 3575 
L 4650 3375 
L 4650 875 
L 5300 875 
L 5675 1225 
L 6125 725 
L 1150 725 
Q 825 725 550 650 
L 325 875 
L 1700 875 
Q 1700 3200 1675 3775 
L 2050 3600 
L 2875 3600 
z
M 2425 725 
L 2825 350 
L 2575 300 
Q 1500 -425 800 -650 
L 775 -575 
Q 1950 125 2425 725 
z
M 3800 700 
Q 4575 375 4962 200 
Q 5350 25 5400 -112 
Q 5450 -250 5450 -325 
Q 5450 -400 5400 -525 
Q 5350 -650 5325 -650 
Q 5250 -650 5100 -450 
Q 4875 -150 3750 625 
L 3800 700 
z
" transform="scale(0.015625)"/>
       <path id="SimSun-5b9e" d="M 1950 3625 
Q 2575 3400 2700 3250 
Q 2825 3100 2825 2975 
Q 2825 2850 2750 2700 
Q 2675 2550 2625 2550 
Q 2550 2550 2450 2800 
Q 2275 3175 1900 3550 
L 1950 3625 
z
M 3575 1325 
Q 3500 1100 3425 925 
Q 4650 550 5087 325 
Q 5525 100 5512 -225 
Q 5500 -550 5400 -550 
Q 5300 -550 5075 -300 
Q 4625 175 3375 800 
Q 3025 175 2300 -150 
Q 1575 -475 425 -625 
L 425 -525 
Q 1475 -325 2200 100 
Q 2925 525 3200 1325 
L 1225 1325 
Q 900 1325 625 1250 
L 400 1475 
L 3225 1475 
Q 3325 1950 3375 2575 
Q 3425 3200 3425 3700 
L 4050 3400 
L 3850 3225 
Q 3750 2300 3625 1475 
L 5175 1475 
L 5550 1850 
L 6075 1325 
L 3575 1325 
z
M 1275 2700 
Q 1975 2425 2100 2262 
Q 2225 2100 2225 1975 
Q 2225 1850 2150 1700 
Q 2075 1550 2025 1550 
Q 1950 1550 1850 1800 
Q 1675 2175 1225 2625 
L 1275 2700 
z
M 2750 5225 
L 2825 5275 
Q 3225 5100 3425 4925 
Q 3625 4750 3625 4600 
Q 3625 4450 3512 4300 
Q 3400 4150 3325 4150 
Q 3250 4150 3200 4400 
Q 3100 4775 2750 5225 
z
M 4975 3225 
L 5350 3925 
L 1175 3925 
Q 1225 3525 1125 3300 
Q 1025 3075 787 3100 
Q 550 3125 550 3200 
Q 550 3300 700 3475 
Q 975 3825 1050 4375 
L 1150 4375 
L 1175 4075 
L 5300 4075 
L 5575 4350 
L 6050 3800 
Q 5625 3825 5050 3175 
L 4975 3225 
z
" transform="scale(0.015625)"/>
       <path id="SimSun-503c" d="M 1525 650 
Q 1525 -225 1550 -525 
L 1175 -650 
Q 1200 250 1200 550 
L 1200 3025 
Q 750 2300 325 1850 
L 250 1900 
Q 725 2625 1100 3525 
Q 1475 4425 1675 5200 
L 2200 4875 
L 1950 4725 
Q 1550 3800 1425 3475 
L 1725 3300 
L 1525 3150 
L 1525 650 
z
M 2875 3225 
L 2875 2475 
L 4800 2475 
L 4800 3225 
L 2875 3225 
z
M 2875 2325 
L 2875 1575 
L 4800 1575 
L 4800 2325 
L 2875 2325 
z
M 2875 1425 
L 2875 675 
L 4800 675 
L 4800 1425 
L 2875 1425 
z
M 2875 525 
L 2875 -225 
L 4800 -225 
L 4800 525 
L 2875 525 
z
M 3550 4250 
Q 3575 4825 3550 5225 
L 4125 4950 
L 3925 4800 
L 3900 4250 
L 5025 4250 
L 5350 4575 
L 5825 4100 
L 3900 4100 
L 3875 3375 
L 4750 3375 
L 4975 3625 
L 5350 3300 
L 5125 3150 
L 5125 -225 
L 5350 -225 
L 5675 100 
L 6150 -375 
L 2450 -375 
Q 2125 -375 1850 -450 
L 1625 -225 
L 2550 -225 
L 2550 2550 
Q 2550 2850 2525 3575 
L 2875 3375 
L 3525 3375 
L 3550 4100 
L 2800 4100 
Q 2475 4100 2200 4025 
L 1975 4250 
L 3550 4250 
z
" transform="scale(0.015625)"/>
      </defs>
      <use xlink:href="#SimSun-771f"/>
      <use xlink:href="#SimSun-5b9e" x="100"/>
      <use xlink:href="#SimSun-503c" x="200"/>
     </g>
    </g>
    <g id="line2d_16">
     <path d="M 79.6375 84.35625 
L 99.6375 84.35625 
L 119.6375 84.35625 
" style="fill: none; stroke: #ff7f0e; stroke-width: 1.5; stroke-linecap: square"/>
    </g>
    <g id="text_15">
     <!-- 预测值 -->
     <g transform="translate(135.6375 91.35625) scale(0.2 -0.2)">
      <defs>
       <path id="SimSun-9884" d="M 475 4825 
L 2225 4825 
L 2425 5075 
L 2825 4675 
Q 2600 4625 2387 4412 
Q 2175 4200 1800 3750 
Q 2050 3575 2037 3400 
Q 2025 3225 1937 3150 
Q 1850 3075 1825 3075 
Q 1725 3075 1650 3300 
Q 1525 3600 1050 4100 
L 1100 4150 
Q 1475 3975 1700 3825 
L 2225 4675 
L 1300 4675 
Q 975 4675 700 4600 
L 475 4825 
z
M 725 100 
Q 1175 50 1362 37 
Q 1550 25 1550 275 
L 1550 2875 
L 1125 2875 
Q 800 2875 525 2800 
L 300 3025 
L 2525 3025 
L 2725 3275 
L 3150 2875 
Q 2800 2825 2275 2075 
L 2200 2125 
L 2550 2875 
L 1875 2875 
L 1875 150 
Q 1875 -400 1350 -500 
Q 1325 -175 725 0 
L 725 100 
z
M 3250 775 
Q 3275 1425 3275 2287 
Q 3275 3150 3250 3900 
L 3600 3700 
L 4050 3700 
Q 4175 4400 4200 4675 
L 3650 4675 
Q 3325 4675 3050 4600 
L 2825 4825 
L 5325 4825 
L 5675 5150 
L 6125 4675 
L 4675 4675 
Q 4500 4425 4175 3700 
L 5300 3700 
L 5475 3975 
L 5875 3675 
L 5675 3475 
L 5675 1950 
Q 5675 1525 5700 1075 
L 5350 875 
L 5350 3550 
L 3600 3550 
L 3600 1000 
L 3250 775 
z
M 4850 2875 
L 4625 2675 
Q 4625 1475 4475 937 
Q 4325 400 3900 50 
Q 3475 -300 2425 -625 
L 2400 -550 
Q 3500 -50 3837 400 
Q 4175 850 4237 1587 
Q 4300 2325 4275 3175 
L 4850 2875 
z
M 4650 950 
Q 5725 375 5875 212 
Q 6025 50 6025 -125 
Q 6025 -225 5962 -387 
Q 5900 -550 5850 -550 
Q 5800 -550 5750 -450 
Q 5625 -250 5437 0 
Q 5250 250 4600 875 
L 4650 950 
z
" transform="scale(0.015625)"/>
       <path id="SimSun-6d4b" d="M 1975 1000 
Q 2000 1475 2000 2925 
Q 2000 4375 1975 5000 
L 2350 4775 
L 3575 4775 
L 3775 4975 
L 4100 4650 
L 3900 4500 
L 3900 2350 
Q 3900 1850 3925 1350 
L 3600 1200 
L 3600 4625 
L 2325 4625 
L 2325 1150 
L 1975 1000 
z
M 2775 3975 
L 3300 3700 
L 3125 3525 
Q 3150 1825 2875 937 
Q 2600 50 1375 -600 
L 1325 -500 
Q 2200 100 2475 725 
Q 2750 1350 2775 2187 
Q 2800 3025 2775 3975 
z
M 3100 950 
Q 3825 450 3937 262 
Q 4050 75 4050 -25 
Q 4050 -150 3975 -262 
Q 3900 -375 3850 -375 
Q 3750 -375 3650 -75 
Q 3500 375 3050 875 
L 3100 950 
z
M 4475 825 
Q 4500 1200 4500 1700 
L 4500 3400 
Q 4500 3950 4475 4300 
L 5025 4025 
L 4825 3825 
L 4825 1700 
Q 4825 1325 4850 950 
L 4475 825 
z
M 5375 150 
L 5375 4050 
Q 5375 4750 5350 5125 
L 5875 4875 
L 5700 4700 
L 5700 75 
Q 5700 -200 5600 -350 
Q 5500 -500 5200 -600 
Q 5025 -225 4450 -50 
L 4450 50 
Q 5125 -50 5250 -37 
Q 5375 -25 5375 150 
z
M 1850 3500 
Q 1375 1525 1300 1225 
Q 1200 900 1212 450 
Q 1225 0 1250 -175 
Q 1250 -275 1125 -275 
Q 1025 -275 875 -225 
Q 725 -175 725 0 
Q 725 125 800 375 
Q 875 625 875 775 
Q 875 950 762 1050 
Q 650 1150 275 1250 
L 275 1350 
Q 725 1300 837 1312 
Q 950 1325 1087 1537 
Q 1225 1750 1750 3525 
L 1850 3500 
z
M 375 3775 
Q 1075 3350 1112 3100 
Q 1150 2850 1050 2775 
Q 950 2700 900 2700 
Q 800 2700 725 2975 
Q 600 3350 325 3700 
L 375 3775 
z
M 800 5100 
Q 1475 4725 1550 4512 
Q 1625 4300 1525 4187 
Q 1425 4075 1350 4075 
Q 1275 4075 1200 4300 
Q 1075 4650 750 5025 
L 800 5100 
z
" transform="scale(0.015625)"/>
      </defs>
      <use xlink:href="#SimSun-9884"/>
      <use xlink:href="#SimSun-6d4b" x="100"/>
      <use xlink:href="#SimSun-503c" x="200"/>
     </g>
    </g>
   </g>
  </g>
  <g id="axes_2">
   <g id="patch_8">
    <path d="M 61.6375 425.788125 
L 1032.554189 425.788125 
L 1032.554189 261.859375 
L 61.6375 261.859375 
z
" style="fill: #ffffff"/>
   </g>
   <g id="matplotlib.axis_3">
    <g id="xtick_8">
     <g id="line2d_17">
      <g>
       <use xlink:href="#m6aa033204d" x="105.770077" y="425.788125" style="stroke: #000000; stroke-width: 0.8"/>
      </g>
     </g>
     <g id="text_16">
      <!-- 0 -->
      <g transform="translate(100.770077 446.675625) scale(0.2 -0.2)">
       <use xlink:href="#TimesNewRomanPSMT-30"/>
      </g>
     </g>
    </g>
    <g id="xtick_9">
     <g id="line2d_18">
      <g>
       <use xlink:href="#m6aa033204d" x="259.542121" y="425.788125" style="stroke: #000000; stroke-width: 0.8"/>
      </g>
     </g>
     <g id="text_17">
      <!-- 50 -->
      <g transform="translate(249.542121 446.675625) scale(0.2 -0.2)">
       <use xlink:href="#TimesNewRomanPSMT-35"/>
       <use xlink:href="#TimesNewRomanPSMT-30" x="50"/>
      </g>
     </g>
    </g>
    <g id="xtick_10">
     <g id="line2d_19">
      <g>
       <use xlink:href="#m6aa033204d" x="413.314166" y="425.788125" style="stroke: #000000; stroke-width: 0.8"/>
      </g>
     </g>
     <g id="text_18">
      <!-- 100 -->
      <g transform="translate(398.314166 446.675625) scale(0.2 -0.2)">
       <use xlink:href="#TimesNewRomanPSMT-31"/>
       <use xlink:href="#TimesNewRomanPSMT-30" x="50"/>
       <use xlink:href="#TimesNewRomanPSMT-30" x="100"/>
      </g>
     </g>
    </g>
    <g id="xtick_11">
     <g id="line2d_20">
      <g>
       <use xlink:href="#m6aa033204d" x="567.08621" y="425.788125" style="stroke: #000000; stroke-width: 0.8"/>
      </g>
     </g>
     <g id="text_19">
      <!-- 150 -->
      <g transform="translate(552.08621 446.675625) scale(0.2 -0.2)">
       <use xlink:href="#TimesNewRomanPSMT-31"/>
       <use xlink:href="#TimesNewRomanPSMT-35" x="50"/>
       <use xlink:href="#TimesNewRomanPSMT-30" x="100"/>
      </g>
     </g>
    </g>
    <g id="xtick_12">
     <g id="line2d_21">
      <g>
       <use xlink:href="#m6aa033204d" x="720.858255" y="425.788125" style="stroke: #000000; stroke-width: 0.8"/>
      </g>
     </g>
     <g id="text_20">
      <!-- 200 -->
      <g transform="translate(705.858255 446.675625) scale(0.2 -0.2)">
       <use xlink:href="#TimesNewRomanPSMT-32"/>
       <use xlink:href="#TimesNewRomanPSMT-30" x="50"/>
       <use xlink:href="#TimesNewRomanPSMT-30" x="100"/>
      </g>
     </g>
    </g>
    <g id="xtick_13">
     <g id="line2d_22">
      <g>
       <use xlink:href="#m6aa033204d" x="874.630299" y="425.788125" style="stroke: #000000; stroke-width: 0.8"/>
      </g>
     </g>
     <g id="text_21">
      <!-- 250 -->
      <g transform="translate(859.630299 446.675625) scale(0.2 -0.2)">
       <use xlink:href="#TimesNewRomanPSMT-32"/>
       <use xlink:href="#TimesNewRomanPSMT-35" x="50"/>
       <use xlink:href="#TimesNewRomanPSMT-30" x="100"/>
      </g>
     </g>
    </g>
    <g id="xtick_14">
     <g id="line2d_23">
      <g>
       <use xlink:href="#m6aa033204d" x="1028.402344" y="425.788125" style="stroke: #000000; stroke-width: 0.8"/>
      </g>
     </g>
     <g id="text_22">
      <!-- 300 -->
      <g transform="translate(1013.402344 446.675625) scale(0.2 -0.2)">
       <use xlink:href="#TimesNewRomanPSMT-33"/>
       <use xlink:href="#TimesNewRomanPSMT-30" x="50"/>
       <use xlink:href="#TimesNewRomanPSMT-30" x="100"/>
      </g>
     </g>
    </g>
   </g>
   <g id="matplotlib.axis_4">
    <g id="ytick_5">
     <g id="line2d_24">
      <g>
       <use xlink:href="#m4b185f5dfb" x="61.6375" y="383.284681" style="stroke: #000000; stroke-width: 0.8"/>
      </g>
     </g>
     <g id="text_23">
      <!-- 1.0 -->
      <g transform="translate(29.6375 390.228431) scale(0.2 -0.2)">
       <use xlink:href="#TimesNewRomanPSMT-31"/>
       <use xlink:href="#TimesNewRomanPSMT-2e" x="50"/>
       <use xlink:href="#TimesNewRomanPSMT-30" x="75"/>
      </g>
     </g>
    </g>
    <g id="ytick_6">
     <g id="line2d_25">
      <g>
       <use xlink:href="#m4b185f5dfb" x="61.6375" y="328.720337" style="stroke: #000000; stroke-width: 0.8"/>
      </g>
     </g>
     <g id="text_24">
      <!-- 2.0 -->
      <g transform="translate(29.6375 335.664087) scale(0.2 -0.2)">
       <use xlink:href="#TimesNewRomanPSMT-32"/>
       <use xlink:href="#TimesNewRomanPSMT-2e" x="50"/>
       <use xlink:href="#TimesNewRomanPSMT-30" x="75"/>
      </g>
     </g>
    </g>
    <g id="ytick_7">
     <g id="line2d_26">
      <g>
       <use xlink:href="#m4b185f5dfb" x="61.6375" y="274.155993" style="stroke: #000000; stroke-width: 0.8"/>
      </g>
     </g>
     <g id="text_25">
      <!-- 3.0 -->
      <g transform="translate(29.6375 281.099743) scale(0.2 -0.2)">
       <use xlink:href="#TimesNewRomanPSMT-33"/>
       <use xlink:href="#TimesNewRomanPSMT-2e" x="50"/>
       <use xlink:href="#TimesNewRomanPSMT-30" x="75"/>
      </g>
     </g>
    </g>
    <g id="text_26">
     <!-- CPU使用率 -->
     <g transform="translate(23.059375 388.82375) rotate(-90) scale(0.2 -0.2)">
      <use xlink:href="#SimSun-43"/>
      <use xlink:href="#SimSun-50" x="50"/>
      <use xlink:href="#SimSun-55" x="100"/>
      <use xlink:href="#SimSun-4f7f" x="150"/>
      <use xlink:href="#SimSun-7528" x="250"/>
      <use xlink:href="#SimSun-7387" x="350"/>
     </g>
    </g>
   </g>
   <g id="line2d_27">
    <path d="M 105.770077 295.108704 
L 108.845518 306.370781 
L 111.920959 311.739918 
L 114.996399 318.025733 
L 118.07184 323.918671 
L 121.147281 322.478181 
L 124.222722 346.704743 
L 127.298163 334.264077 
L 130.373604 343.038022 
L 133.449045 349.847651 
L 136.524486 358.883509 
L 139.599927 360.71687 
L 142.675367 350.764334 
L 145.750808 364.252641 
L 148.826249 371.324176 
L 151.90169 375.90758 
L 154.977131 382.979115 
L 158.052572 388.87207 
L 161.128013 385.074392 
L 164.203454 387.169663 
L 170.354335 393.193567 
L 173.429776 395.943611 
L 176.505217 397.253152 
L 179.580658 402.491333 
L 182.656099 406.943781 
L 185.73154 409.431911 
L 188.806981 410.348595 
L 191.882422 411.52719 
L 198.033303 409.170011 
L 201.108744 415.062954 
L 207.259626 416.110594 
L 210.335067 416.503451 
L 213.410508 416.634408 
L 216.485949 409.693825 
L 219.56139 412.44386 
L 222.636831 413.098644 
L 225.712272 412.18196 
L 228.787712 411.396233 
L 231.863153 409.955738 
L 234.938594 404.45565 
L 238.014035 405.241377 
L 241.089476 402.229426 
L 244.164917 396.991245 
L 247.240358 395.419791 
L 250.315799 391.491157 
L 253.39124 372.371809 
L 256.46668 382.848165 
L 259.542121 378.788581 
L 262.617562 372.240859 
L 265.693003 368.050318 
L 268.768444 363.07405 
L 271.843885 346.442836 
L 274.919326 345.13329 
L 277.994767 340.549885 
L 281.070208 342.252296 
L 284.145648 340.680842 
L 287.221089 335.704574 
L 290.29653 325.621088 
L 293.371971 323.525808 
L 296.447412 327.192542 
L 299.522853 325.359175 
L 302.598294 324.835361 
L 305.673735 321.954354 
L 308.749176 310.037501 
L 311.824616 311.478005 
L 314.900057 319.990037 
L 317.975498 319.597174 
L 321.050939 319.597174 
L 324.12638 315.930453 
L 327.201821 310.168465 
L 330.277262 314.489962 
L 333.352703 319.728137 
L 336.428144 316.847143 
L 339.503584 313.180409 
L 342.579025 315.799503 
L 345.654466 328.894946 
L 348.729907 301.656419 
L 351.805348 316.192366 
L 354.880789 315.799503 
L 357.95623 317.63287 
L 361.031671 320.644814 
L 364.107112 316.71618 
L 367.182552 320.775764 
L 370.257993 322.216268 
L 373.333434 318.811447 
L 376.408875 320.382901 
L 379.484316 323.394858 
L 382.559757 317.240006 
L 385.635198 317.109043 
L 388.710639 320.513864 
L 391.78608 322.478181 
L 394.86152 324.704398 
L 397.936961 323.001994 
L 401.012402 320.25195 
L 404.087843 321.430541 
L 407.163284 322.740081 
L 410.238725 319.07336 
L 413.314166 316.978093 
L 416.389607 310.561328 
L 419.465048 314.489962 
L 422.540488 315.930453 
L 425.615929 317.89477 
L 428.69137 314.358999 
L 431.766811 316.061416 
L 434.842252 311.478005 
L 437.917693 305.454104 
L 440.993134 303.489786 
L 444.068575 299.823066 
L 447.144016 290.525294 
L 450.219457 292.620561 
L 453.294897 295.108704 
L 456.370338 293.930114 
L 459.445779 292.882474 
L 462.52122 297.073022 
L 465.596661 294.322978 
L 468.672102 297.073022 
L 471.747543 296.811108 
L 474.822984 294.061064 
L 477.898425 296.156332 
L 480.973865 297.334922 
L 484.049306 294.715841 
L 487.124747 297.203972 
L 490.200188 296.680158 
L 493.275629 289.739567 
L 496.35107 294.192014 
L 499.426511 296.942058 
L 502.501952 297.596835 
L 505.577393 297.727785 
L 508.652833 295.632518 
L 511.728274 291.965797 
L 514.803715 289.346703 
L 517.879156 290.26338 
L 520.954597 291.049107 
L 524.030038 291.049107 
L 527.105479 289.870517 
L 530.18092 275.858397 
L 533.256361 291.965797 
L 536.331801 294.322978 
L 539.407242 294.715841 
L 542.482683 301.525469 
L 545.558124 303.358836 
L 548.633565 304.537414 
L 551.709006 311.739918 
L 554.784447 318.156683 
L 557.859888 322.216268 
L 560.935329 329.680673 
L 564.010769 334.13312 
L 567.08621 358.490646 
L 570.161651 345.264246 
L 573.237092 353.252465 
L 576.312533 359.800186 
L 579.387974 365.038361 
L 582.463415 371.717039 
L 585.538856 376.693307 
L 588.614297 381.931482 
L 591.689737 388.086343 
L 594.765178 389.788753 
L 597.840619 394.765021 
L 600.91606 397.646015 
L 603.991501 396.205518 
L 607.066942 397.907928 
L 613.217824 401.836556 
L 616.293265 404.324693 
L 619.368705 405.11042 
L 622.444146 409.562868 
L 625.519587 412.44386 
L 628.595028 414.015314 
L 631.670469 414.277227 
L 634.74591 415.455824 
L 637.821351 415.848681 
L 640.896792 413.229587 
L 643.972233 418.205862 
L 647.047673 418.336818 
L 650.123114 417.943948 
L 653.198555 418.336818 
L 656.273996 418.205862 
L 659.349437 416.241538 
L 662.424878 416.110594 
L 665.500319 414.931998 
L 668.57576 412.705774 
L 671.651201 410.741463 
L 674.726642 407.860464 
L 677.802082 398.693655 
L 680.877523 396.991245 
L 683.952964 392.145927 
L 687.028405 382.324345 
L 690.103846 378.002854 
L 693.179287 371.847996 
L 696.254728 347.49047 
L 699.330169 354.431055 
L 702.40561 348.407154 
L 705.48105 341.859432 
L 708.556491 338.192705 
L 711.631932 330.466393 
L 714.707373 315.013776 
L 717.782814 316.192366 
L 720.858255 312.787545 
L 723.933696 313.835186 
L 727.009137 317.240006 
L 733.160018 308.204148 
L 736.235459 308.335098 
L 739.3109 305.32314 
L 742.386341 309.120824 
L 745.461782 315.275689 
L 748.537223 311.085142 
L 751.612664 297.727785 
L 754.688105 303.489786 
L 757.763546 311.739918 
L 760.838986 312.001819 
L 763.914427 308.597011 
L 766.989868 314.620912 
L 770.065309 309.120824 
L 773.14075 311.478005 
L 776.216191 311.216092 
L 779.291632 315.537589 
L 782.367073 314.358999 
L 785.442514 313.049459 
L 788.517954 322.871044 
L 791.593395 297.073022 
L 794.668836 302.965973 
L 797.744277 308.204148 
L 800.819718 311.478005 
L 803.895159 312.787545 
L 806.9706 307.549371 
L 810.046041 316.71618 
L 813.121482 318.287633 
L 816.196922 316.323316 
L 819.272363 319.728137 
L 822.347804 318.680497 
L 825.423245 304.0136 
L 828.498686 315.537589 
L 831.574127 307.942234 
L 834.649568 307.680321 
L 837.725009 317.76382 
L 840.80045 316.192366 
L 843.87589 308.335098 
L 846.951331 315.144726 
L 850.026772 317.76382 
L 853.102213 315.013776 
L 856.177654 316.192366 
L 859.253095 315.930453 
L 862.328536 312.656595 
L 865.403977 312.394682 
L 868.479418 311.085142 
L 871.554858 305.716004 
L 874.630299 312.263732 
L 877.70574 302.311196 
L 880.781181 300.346879 
L 883.856622 297.073022 
L 886.932063 298.382562 
L 890.007504 290.26338 
L 893.082945 289.346703 
L 896.158386 290.787207 
L 899.233827 282.798988 
L 902.309267 278.870354 
L 905.384708 277.2989 
L 908.460149 274.286943 
L 911.53559 274.025043 
L 914.611031 272.977403 
L 917.686472 279.787031 
L 920.761913 283.191852 
L 923.837354 280.572758 
L 926.912795 285.418069 
L 929.988235 291.049107 
L 933.063676 289.739567 
L 936.139117 282.406125 
L 939.214558 288.430026 
L 942.289999 287.77525 
L 945.36544 287.906213 
L 948.440881 292.227697 
L 951.516322 288.430026 
L 954.591763 276.644124 
L 957.667203 283.977579 
L 960.742644 284.632342 
L 963.818085 281.882298 
L 966.893526 285.025206 
L 969.968967 280.965621 
L 973.044408 269.310682 
L 976.119849 283.977579 
L 979.19529 288.299076 
L 982.270731 287.251436 
L 985.346171 294.061064 
L 988.421612 297.858748 
L 988.421612 297.858748 
" clip-path="url(#p21eb5d19c8)" style="fill: none; stroke: #1f77b4; stroke-width: 1.5; stroke-linecap: square"/>
   </g>
   <g id="line2d_28">
    <path d="M 548.633565 298.892924 
L 551.709006 306.22033 
L 554.784447 311.218589 
L 557.859888 317.077288 
L 560.935329 321.016824 
L 564.010769 324.215306 
L 567.08621 337.500969 
L 570.161651 331.224144 
L 573.237092 341.614906 
L 576.312533 345.992466 
L 579.387974 352.779979 
L 582.463415 356.264409 
L 585.538856 352.852596 
L 588.614297 361.664743 
L 591.689737 368.218702 
L 594.765178 371.00054 
L 597.840619 377.127065 
L 600.91606 381.455626 
L 603.991501 379.662952 
L 607.066942 384.535026 
L 613.217824 389.765174 
L 616.293265 394.258705 
L 619.368705 394.696131 
L 622.444146 395.680495 
L 628.595028 402.425669 
L 631.670469 403.608201 
L 634.74591 405.644979 
L 637.821351 403.724171 
L 640.896792 404.004122 
L 643.972233 408.508613 
L 647.047673 410.992084 
L 650.123114 410.066147 
L 653.198555 412.334304 
L 656.273996 410.124694 
L 659.349437 405.301212 
L 662.424878 407.288191 
L 665.500319 408.521355 
L 668.57576 406.503941 
L 671.651201 405.726573 
L 674.726642 403.389498 
L 677.802082 398.762656 
L 680.877523 398.131094 
L 683.952964 396.83987 
L 687.028405 391.813472 
L 690.103846 387.891088 
L 693.179287 382.418583 
L 696.254728 372.502473 
L 699.330169 373.813575 
L 702.40561 371.390743 
L 705.48105 365.115948 
L 708.556491 362.415989 
L 711.631932 357.791469 
L 714.707373 345.571451 
L 717.782814 344.553907 
L 720.858255 341.465853 
L 723.933696 340.660125 
L 730.084578 334.113951 
L 733.160018 327.349185 
L 736.235459 324.321357 
L 739.3109 325.726957 
L 742.386341 324.96622 
L 745.461782 324.534863 
L 748.537223 322.491034 
L 751.612664 312.58926 
L 754.688105 317.295659 
L 757.763546 319.835762 
L 760.838986 317.40279 
L 763.914427 318.289754 
L 766.989868 316.665808 
L 770.065309 311.396073 
L 773.14075 315.493983 
L 776.216191 317.631686 
L 779.291632 316.47819 
L 782.367073 315.075921 
L 785.442514 313.489532 
L 788.517954 320.191757 
L 791.593395 308.332756 
L 794.668836 314.629381 
L 797.744277 314.635951 
L 800.819718 316.351013 
L 803.895159 318.202632 
L 806.9706 313.247887 
L 810.046041 317.057397 
L 813.121482 320.553138 
L 816.196922 318.554958 
L 819.272363 320.357416 
L 822.347804 322.608246 
L 825.423245 317.938064 
L 828.498686 318.800389 
L 831.574127 321.31662 
L 834.649568 320.382562 
L 837.725009 321.414019 
L 840.80045 320.169303 
L 843.87589 320.392618 
L 846.951331 321.213782 
L 850.026772 321.308918 
L 853.102213 320.693299 
L 856.177654 319.766514 
L 859.253095 315.816662 
L 862.328536 314.507655 
L 865.403977 316.199261 
L 868.479418 316.181087 
L 871.554858 312.755166 
L 874.630299 312.053192 
L 877.70574 309.874172 
L 880.781181 306.154959 
L 883.856622 305.670966 
L 886.932063 304.700301 
L 890.007504 300.605423 
L 893.082945 300.040553 
L 896.158386 299.856382 
L 899.233827 297.691099 
L 902.309267 297.995995 
L 905.384708 299.750318 
L 908.460149 297.757446 
L 911.53559 298.319624 
L 914.611031 298.064215 
L 917.686472 292.879274 
L 920.761913 297.94699 
L 923.837354 297.705149 
L 926.912795 296.868713 
L 929.988235 298.155773 
L 933.063676 297.295361 
L 936.139117 290.745174 
L 939.214558 294.168065 
L 942.289999 296.043555 
L 945.36544 296.064292 
L 948.440881 296.345003 
L 951.516322 294.248786 
L 954.591763 291.75341 
L 957.667203 290.2939 
L 960.742644 291.855675 
L 963.818085 292.075412 
L 966.893526 292.811184 
L 969.968967 293.045297 
L 973.044408 284.83401 
L 976.119849 292.751667 
L 979.19529 296.455243 
L 982.270731 297.080788 
L 985.346171 301.965842 
L 988.421612 303.856241 
L 988.421612 303.856241 
" clip-path="url(#p21eb5d19c8)" style="fill: none; stroke: #ff7f0e; stroke-width: 1.5; stroke-linecap: square"/>
   </g>
   <g id="line2d_29">
    <path d="M 548.633565 425.788125 
L 548.633565 261.859375 
" clip-path="url(#p21eb5d19c8)" style="fill: none; stroke-dasharray: 7.4,3.2; stroke-dashoffset: 0; stroke: #0000ff; stroke-width: 2"/>
   </g>
   <g id="patch_9">
    <path d="M 61.6375 425.788125 
L 61.6375 261.859375 
" style="fill: none; stroke: #000000; stroke-width: 0.8; stroke-linejoin: miter; stroke-linecap: square"/>
   </g>
   <g id="patch_10">
    <path d="M 1032.554189 425.788125 
L 1032.554189 261.859375 
" style="fill: none; stroke: #000000; stroke-width: 0.8; stroke-linejoin: miter; stroke-linecap: square"/>
   </g>
   <g id="patch_11">
    <path d="M 61.6375 425.788125 
L 1032.554189 425.788125 
" style="fill: none; stroke: #000000; stroke-width: 0.8; stroke-linejoin: miter; stroke-linecap: square"/>
   </g>
   <g id="patch_12">
    <path d="M 61.6375 261.859375 
L 1032.554189 261.859375 
" style="fill: none; stroke: #000000; stroke-width: 0.8; stroke-linejoin: miter; stroke-linecap: square"/>
   </g>
   <g id="text_27">
    <!-- 云函数ID: 150 -->
    <g transform="translate(482.095845 255.859375) scale(0.2 -0.2)">
     <defs>
      <path id="SimSun-31" d="M 1825 4450 
L 1825 650 
Q 1825 450 1950 350 
Q 2075 250 2300 250 
L 2550 250 
L 2550 100 
L 725 100 
L 725 250 
L 950 250 
Q 1200 250 1312 350 
Q 1425 450 1425 650 
L 1425 3675 
Q 1425 3775 1362 3837 
Q 1300 3900 1175 3900 
L 725 3900 
L 725 4050 
L 950 4050 
Q 1250 4050 1437 4150 
Q 1625 4250 1725 4450 
L 1825 4450 
z
" transform="scale(0.015625)"/>
      <path id="SimSun-35" d="M 1725 2850 
Q 2200 2850 2500 2487 
Q 2800 2125 2800 1525 
Q 2800 850 2487 450 
Q 2175 50 1525 50 
Q 1075 50 725 312 
Q 375 575 375 950 
Q 375 1100 462 1212 
Q 550 1325 700 1325 
Q 850 1325 900 1225 
Q 950 1125 950 1050 
Q 950 900 875 825 
Q 800 725 800 625 
Q 800 425 1037 325 
Q 1275 225 1550 225 
Q 1950 225 2162 550 
Q 2375 875 2375 1475 
Q 2375 1975 2187 2287 
Q 2000 2600 1625 2600 
Q 1350 2600 1150 2500 
Q 950 2400 775 2075 
L 550 2100 
L 675 4375 
L 2725 4375 
L 2650 4000 
L 850 4000 
L 750 2350 
Q 1000 2700 1237 2775 
Q 1475 2850 1725 2850 
z
" transform="scale(0.015625)"/>
      <path id="SimSun-30" d="M 1600 4225 
Q 1250 4225 1012 3687 
Q 775 3150 775 2250 
Q 775 1300 1012 775 
Q 1250 250 1600 250 
Q 1975 250 2187 775 
Q 2400 1300 2400 2250 
Q 2400 3150 2200 3687 
Q 2000 4225 1600 4225 
z
M 1600 50 
Q 1050 50 675 625 
Q 300 1200 300 2250 
Q 300 3225 662 3825 
Q 1025 4425 1600 4425 
Q 2150 4425 2512 3850 
Q 2875 3275 2875 2250 
Q 2875 1225 2512 637 
Q 2150 50 1600 50 
z
" transform="scale(0.015625)"/>
     </defs>
     <use xlink:href="#SimSun-4e91"/>
     <use xlink:href="#SimSun-51fd" x="100"/>
     <use xlink:href="#SimSun-6570" x="200"/>
     <use xlink:href="#SimSun-49" x="300"/>
     <use xlink:href="#SimSun-44" x="350"/>
     <use xlink:href="#SimSun-3a" x="400"/>
     <use xlink:href="#SimSun-20" x="450"/>
     <use xlink:href="#SimSun-31" x="500"/>
     <use xlink:href="#SimSun-35" x="550"/>
     <use xlink:href="#SimSun-30" x="600"/>
    </g>
   </g>
  </g>
  <g id="axes_3">
   <g id="patch_13">
    <path d="M 61.6375 658.588125 
L 1032.554189 658.588125 
L 1032.554189 494.659375 
L 61.6375 494.659375 
z
" style="fill: #ffffff"/>
   </g>
   <g id="matplotlib.axis_5">
    <g id="xtick_15">
     <g id="line2d_30">
      <g>
       <use xlink:href="#m6aa033204d" x="105.770077" y="658.588125" style="stroke: #000000; stroke-width: 0.8"/>
      </g>
     </g>
     <g id="text_28">
      <!-- 0 -->
      <g transform="translate(100.770077 679.475625) scale(0.2 -0.2)">
       <use xlink:href="#TimesNewRomanPSMT-30"/>
      </g>
     </g>
    </g>
    <g id="xtick_16">
     <g id="line2d_31">
      <g>
       <use xlink:href="#m6aa033204d" x="259.542121" y="658.588125" style="stroke: #000000; stroke-width: 0.8"/>
      </g>
     </g>
     <g id="text_29">
      <!-- 50 -->
      <g transform="translate(249.542121 679.475625) scale(0.2 -0.2)">
       <use xlink:href="#TimesNewRomanPSMT-35"/>
       <use xlink:href="#TimesNewRomanPSMT-30" x="50"/>
      </g>
     </g>
    </g>
    <g id="xtick_17">
     <g id="line2d_32">
      <g>
       <use xlink:href="#m6aa033204d" x="413.314166" y="658.588125" style="stroke: #000000; stroke-width: 0.8"/>
      </g>
     </g>
     <g id="text_30">
      <!-- 100 -->
      <g transform="translate(398.314166 679.475625) scale(0.2 -0.2)">
       <use xlink:href="#TimesNewRomanPSMT-31"/>
       <use xlink:href="#TimesNewRomanPSMT-30" x="50"/>
       <use xlink:href="#TimesNewRomanPSMT-30" x="100"/>
      </g>
     </g>
    </g>
    <g id="xtick_18">
     <g id="line2d_33">
      <g>
       <use xlink:href="#m6aa033204d" x="567.08621" y="658.588125" style="stroke: #000000; stroke-width: 0.8"/>
      </g>
     </g>
     <g id="text_31">
      <!-- 150 -->
      <g transform="translate(552.08621 679.475625) scale(0.2 -0.2)">
       <use xlink:href="#TimesNewRomanPSMT-31"/>
       <use xlink:href="#TimesNewRomanPSMT-35" x="50"/>
       <use xlink:href="#TimesNewRomanPSMT-30" x="100"/>
      </g>
     </g>
    </g>
    <g id="xtick_19">
     <g id="line2d_34">
      <g>
       <use xlink:href="#m6aa033204d" x="720.858255" y="658.588125" style="stroke: #000000; stroke-width: 0.8"/>
      </g>
     </g>
     <g id="text_32">
      <!-- 200 -->
      <g transform="translate(705.858255 679.475625) scale(0.2 -0.2)">
       <use xlink:href="#TimesNewRomanPSMT-32"/>
       <use xlink:href="#TimesNewRomanPSMT-30" x="50"/>
       <use xlink:href="#TimesNewRomanPSMT-30" x="100"/>
      </g>
     </g>
    </g>
    <g id="xtick_20">
     <g id="line2d_35">
      <g>
       <use xlink:href="#m6aa033204d" x="874.630299" y="658.588125" style="stroke: #000000; stroke-width: 0.8"/>
      </g>
     </g>
     <g id="text_33">
      <!-- 250 -->
      <g transform="translate(859.630299 679.475625) scale(0.2 -0.2)">
       <use xlink:href="#TimesNewRomanPSMT-32"/>
       <use xlink:href="#TimesNewRomanPSMT-35" x="50"/>
       <use xlink:href="#TimesNewRomanPSMT-30" x="100"/>
      </g>
     </g>
    </g>
    <g id="xtick_21">
     <g id="line2d_36">
      <g>
       <use xlink:href="#m6aa033204d" x="1028.402344" y="658.588125" style="stroke: #000000; stroke-width: 0.8"/>
      </g>
     </g>
     <g id="text_34">
      <!-- 300 -->
      <g transform="translate(1013.402344 679.475625) scale(0.2 -0.2)">
       <use xlink:href="#TimesNewRomanPSMT-33"/>
       <use xlink:href="#TimesNewRomanPSMT-30" x="50"/>
       <use xlink:href="#TimesNewRomanPSMT-30" x="100"/>
      </g>
     </g>
    </g>
   </g>
   <g id="matplotlib.axis_6">
    <g id="ytick_8">
     <g id="line2d_37">
      <g>
       <use xlink:href="#m4b185f5dfb" x="61.6375" y="620.620586" style="stroke: #000000; stroke-width: 0.8"/>
      </g>
     </g>
     <g id="text_35">
      <!-- 0.5 -->
      <g transform="translate(29.6375 627.564336) scale(0.2 -0.2)">
       <use xlink:href="#TimesNewRomanPSMT-30"/>
       <use xlink:href="#TimesNewRomanPSMT-2e" x="50"/>
       <use xlink:href="#TimesNewRomanPSMT-35" x="75"/>
      </g>
     </g>
    </g>
    <g id="ytick_9">
     <g id="line2d_38">
      <g>
       <use xlink:href="#m4b185f5dfb" x="61.6375" y="579.299142" style="stroke: #000000; stroke-width: 0.8"/>
      </g>
     </g>
     <g id="text_36">
      <!-- 0.8 -->
      <g transform="translate(29.6375 586.242892) scale(0.2 -0.2)">
       <defs>
        <path id="TimesNewRomanPSMT-38" d="M 1228 2134 
Q 725 2547 579 2797 
Q 434 3047 434 3316 
Q 434 3728 753 4026 
Q 1072 4325 1600 4325 
Q 2113 4325 2425 4047 
Q 2738 3769 2738 3413 
Q 2738 3175 2569 2928 
Q 2400 2681 1866 2347 
Q 2416 1922 2594 1678 
Q 2831 1359 2831 1006 
Q 2831 559 2490 242 
Q 2150 -75 1597 -75 
Q 994 -75 656 303 
Q 388 606 388 966 
Q 388 1247 577 1523 
Q 766 1800 1228 2134 
z
M 1719 2469 
Q 2094 2806 2194 3001 
Q 2294 3197 2294 3444 
Q 2294 3772 2109 3958 
Q 1925 4144 1606 4144 
Q 1288 4144 1088 3959 
Q 888 3775 888 3528 
Q 888 3366 970 3203 
Q 1053 3041 1206 2894 
L 1719 2469 
z
M 1375 2016 
Q 1116 1797 991 1539 
Q 866 1281 866 981 
Q 866 578 1086 336 
Q 1306 94 1647 94 
Q 1984 94 2187 284 
Q 2391 475 2391 747 
Q 2391 972 2272 1150 
Q 2050 1481 1375 2016 
z
" transform="scale(0.015625)"/>
       </defs>
       <use xlink:href="#TimesNewRomanPSMT-30"/>
       <use xlink:href="#TimesNewRomanPSMT-2e" x="50"/>
       <use xlink:href="#TimesNewRomanPSMT-38" x="75"/>
      </g>
     </g>
    </g>
    <g id="ytick_10">
     <g id="line2d_39">
      <g>
       <use xlink:href="#m4b185f5dfb" x="61.6375" y="537.977697" style="stroke: #000000; stroke-width: 0.8"/>
      </g>
     </g>
     <g id="text_37">
      <!-- 1.0 -->
      <g transform="translate(29.6375 544.921447) scale(0.2 -0.2)">
       <use xlink:href="#TimesNewRomanPSMT-31"/>
       <use xlink:href="#TimesNewRomanPSMT-2e" x="50"/>
       <use xlink:href="#TimesNewRomanPSMT-30" x="75"/>
      </g>
     </g>
    </g>
    <g id="ytick_11">
     <g id="line2d_40">
      <g>
       <use xlink:href="#m4b185f5dfb" x="61.6375" y="496.656252" style="stroke: #000000; stroke-width: 0.8"/>
      </g>
     </g>
     <g id="text_38">
      <!-- 1.2 -->
      <g transform="translate(29.6375 503.600002) scale(0.2 -0.2)">
       <use xlink:href="#TimesNewRomanPSMT-31"/>
       <use xlink:href="#TimesNewRomanPSMT-2e" x="50"/>
       <use xlink:href="#TimesNewRomanPSMT-32" x="75"/>
      </g>
     </g>
    </g>
    <g id="text_39">
     <!-- CPU使用率 -->
     <g transform="translate(23.059375 621.62375) rotate(-90) scale(0.2 -0.2)">
      <use xlink:href="#SimSun-43"/>
      <use xlink:href="#SimSun-50" x="50"/>
      <use xlink:href="#SimSun-55" x="100"/>
      <use xlink:href="#SimSun-4f7f" x="150"/>
      <use xlink:href="#SimSun-7528" x="250"/>
      <use xlink:href="#SimSun-7387" x="350"/>
     </g>
    </g>
   </g>
   <g id="line2d_41">
    <path d="M 105.770077 554.010418 
L 108.845518 564.423426 
L 111.920959 569.795219 
L 114.996399 576.48928 
L 118.07184 583.927153 
L 121.147281 586.158507 
L 124.222722 611.364574 
L 127.298163 590.786508 
L 130.373604 596.075664 
L 133.449045 603.844084 
L 136.524486 605.414303 
L 139.599927 610.207598 
L 142.675367 603.596154 
L 145.750808 615.08353 
L 148.826249 619.463581 
L 151.90169 620.207372 
L 154.977131 626.157658 
L 158.052572 627.64524 
L 161.128013 624.339528 
L 164.203454 630.372455 
L 167.278895 631.942674 
L 170.354335 634.587232 
L 173.429776 636.322725 
L 176.505217 636.901223 
L 179.580658 635.248387 
L 182.656099 643.016807 
L 185.73154 644.75232 
L 188.806981 646.074609 
L 191.882422 647.562171 
L 194.957863 645.413435 
L 198.033303 641.446588 
L 201.108744 649.297664 
L 204.184185 648.388599 
L 210.335067 650.619953 
L 213.410508 650.619953 
L 216.485949 639.959025 
L 219.56139 642.93417 
L 222.636831 643.099463 
L 225.712272 638.884666 
L 228.787712 639.545821 
L 231.863153 635.248387 
L 234.938594 630.372455 
L 238.014035 634.669869 
L 241.089476 630.620385 
L 244.164917 624.835369 
L 247.240358 623.26515 
L 250.315799 621.116452 
L 253.39124 601.3648 
L 256.46668 608.88529 
L 259.542121 606.653936 
L 262.617562 596.323575 
L 265.693003 524.093693 
L 268.768444 537.068632 
L 271.843885 522.35818 
L 274.919326 522.936698 
L 277.994767 523.680489 
L 281.070208 517.234338 
L 284.145648 519.548329 
L 287.221089 516.490547 
L 290.29653 503.763538 
L 293.371971 507.234544 
L 296.447412 517.399612 
L 299.522853 511.366684 
L 302.598294 513.598058 
L 305.673735 517.647542 
L 308.749176 506.242822 
L 311.824616 508.722107 
L 314.900057 523.432558 
L 317.975498 526.407684 
L 321.050939 526.490321 
L 324.12638 519.135124 
L 327.201821 520.457394 
L 330.277262 526.077117 
L 333.352703 529.630779 
L 336.428144 525.581275 
L 339.503584 530.291914 
L 342.579025 529.630779 
L 345.654466 554.340995 
L 348.729907 518.969831 
L 351.805348 532.523268 
L 354.880789 533.76292 
L 357.95623 535.498413 
L 361.031671 540.209061 
L 364.107112 532.605905 
L 367.182552 545.66348 
L 370.257993 547.398993 
L 373.333434 543.34949 
L 376.408875 549.795641 
L 379.484316 552.605492 
L 382.559757 541.861927 
L 385.635198 549.54771 
L 388.710639 551.283203 
L 391.78608 553.184 
L 394.86152 554.671563 
L 397.936961 550.291492 
L 401.012402 550.374138 
L 404.087843 546.985779 
L 407.163284 552.274925 
L 410.238725 546.903142 
L 413.314166 542.853639 
L 416.389607 536.903339 
L 419.465048 542.440415 
L 422.540488 537.399199 
L 425.615929 542.440415 
L 428.69137 537.812423 
L 431.766811 534.837258 
L 434.842252 537.481836 
L 437.917693 532.771198 
L 440.993134 531.94477 
L 444.068575 525.085415 
L 447.144016 519.217761 
L 450.219457 514.755034 
L 453.294897 520.787981 
L 456.370338 511.614615 
L 459.445779 514.176536 
L 462.52122 514.424467 
L 465.596661 514.920327 
L 468.672102 522.35818 
L 471.747543 518.721901 
L 474.822984 520.705324 
L 477.898425 519.217761 
L 480.973865 520.374757 
L 484.049306 517.234338 
L 487.124747 518.556607 
L 490.200188 521.531772 
L 493.275629 507.978335 
L 496.35107 514.34183 
L 499.426511 522.35818 
L 502.501952 522.275543 
L 505.577393 527.316769 
L 508.652833 522.440837 
L 511.728274 519.465692 
L 514.803715 521.035911 
L 517.879156 521.118548 
L 520.954597 530.787755 
L 524.030038 529.87869 
L 527.105479 535.085189 
L 530.18092 530.12662 
L 533.256361 541.035489 
L 536.331801 542.027201 
L 539.407242 541.366056 
L 542.482683 556.324429 
L 545.558124 559.13429 
L 548.633565 563.596998 
L 551.709006 565.167217 
L 554.784447 574.092653 
L 557.859888 579.216495 
L 560.935329 586.654368 
L 564.010769 590.951782 
L 567.08621 608.802653 
L 570.161651 593.017862 
L 573.237092 598.224361 
L 576.312533 608.554722 
L 579.387974 611.695161 
L 582.463415 615.33146 
L 585.538856 613.678584 
L 588.614297 618.306586 
L 591.689737 626.322951 
L 594.765178 625.413886 
L 597.840619 627.562584 
L 600.91606 627.64524 
L 603.991501 626.653519 
L 607.066942 635.41366 
L 610.142383 637.397084 
L 613.217824 637.727671 
L 616.293265 640.950727 
L 619.368705 640.289592 
L 622.444146 637.727671 
L 625.519587 646.322539 
L 628.595028 646.653087 
L 631.670469 645.165524 
L 634.74591 646.735743 
L 637.821351 649.710869 
L 640.896792 642.68624 
L 643.972233 647.066311 
L 647.047673 647.975376 
L 650.123114 649.876182 
L 653.198555 650.289386 
L 656.273996 646.653087 
L 659.349437 644.75232 
L 662.424878 643.925872 
L 665.500319 642.520946 
L 668.57576 640.289592 
L 671.651201 639.959025 
L 674.726642 633.595511 
L 677.802082 626.075021 
L 680.877523 631.2815 
L 683.952964 623.51308 
L 687.028405 617.066954 
L 690.103846 617.232227 
L 693.179287 609.546464 
L 696.254728 595.414529 
L 699.330169 598.141724 
L 702.40561 598.885515 
L 705.48105 589.216289 
L 708.556491 506.57339 
L 711.631932 530.043983 
L 714.707373 522.440837 
L 717.782814 530.539824 
L 720.858255 526.490321 
L 723.933696 523.9284 
L 727.009137 526.24241 
L 730.084578 522.35818 
L 733.160018 514.507103 
L 736.235459 519.465692 
L 739.3109 510.044396 
L 742.386341 517.069044 
L 745.461782 520.787981 
L 748.537223 516.903751 
L 751.612664 502.110682 
L 754.688105 509.961759 
L 757.763546 519.465692 
L 760.838986 521.531772 
L 763.914427 514.259173 
L 766.989868 520.787981 
L 773.14075 519.465692 
L 776.216191 523.101971 
L 779.291632 525.746549 
L 782.367073 525.911843 
L 785.442514 522.35818 
L 788.517954 555.993861 
L 791.593395 513.267471 
L 794.668836 523.9284 
L 797.744277 525.911843 
L 800.819718 537.89506 
L 803.895159 543.266843 
L 806.9706 528.556401 
L 810.046041 540.870195 
L 813.121482 545.911411 
L 816.196922 542.853639 
L 819.272363 546.407281 
L 822.347804 553.845144 
L 825.423245 536.324841 
L 828.498686 538.721478 
L 831.574127 548.060128 
L 834.649568 543.018912 
L 837.725009 553.927781 
L 840.80045 550.787352 
L 843.87589 546.489918 
L 846.951331 544.506495 
L 850.026772 545.828774 
L 853.102213 541.283419 
L 856.177654 545.002356 
L 859.253095 547.398993 
L 862.328536 539.465279 
L 865.403977 538.969409 
L 868.479418 537.399199 
L 871.554858 532.605905 
L 874.630299 539.630553 
L 877.70574 530.953048 
L 880.781181 528.473764 
L 883.856622 527.482062 
L 886.932063 525.366388 
L 890.007504 519.994595 
L 893.082945 525.548193 
L 896.158386 528.391107 
L 899.233827 514.70546 
L 902.309267 511.79642 
L 905.384708 515.56495 
L 908.460149 503.598264 
L 911.53559 513.912094 
L 914.611031 506.705621 
L 917.686472 513.052603 
L 920.761913 513.779863 
L 923.837354 516.159979 
L 926.912795 513.383171 
L 929.988235 518.47397 
L 933.063676 516.027748 
L 936.139117 507.30065 
L 939.214558 517.151681 
L 942.289999 514.110431 
L 945.36544 522.308606 
L 948.440881 522.639173 
L 951.516322 521.184654 
L 954.591763 515.036027 
L 957.667203 519.135124 
L 960.742644 524.42426 
L 963.818085 526.936607 
L 966.893526 534.539754 
L 969.968967 530.705118 
L 973.044408 537.382668 
L 976.119849 537.911572 
L 979.19529 547.762613 
L 982.270731 547.498161 
L 985.346171 553.91125 
L 988.421612 558.40703 
L 988.421612 558.40703 
" clip-path="url(#p2fe5c990ac)" style="fill: none; stroke: #1f77b4; stroke-width: 1.5; stroke-linecap: square"/>
   </g>
   <g id="line2d_42">
    <path d="M 548.633565 557.240715 
L 551.709006 566.08576 
L 554.784447 564.131419 
L 557.859888 575.121949 
L 560.935329 579.294383 
L 564.010769 582.118934 
L 567.08621 601.570072 
L 570.161651 586.920662 
L 573.237092 600.993288 
L 576.312533 604.324891 
L 579.387974 607.344212 
L 582.463415 610.081495 
L 585.538856 604.848061 
L 588.614297 616.99738 
L 591.689737 619.72426 
L 594.765178 620.191235 
L 597.840619 623.018717 
L 600.91606 627.779185 
L 603.991501 622.837719 
L 607.066942 630.931682 
L 610.142383 631.125763 
L 613.217824 630.710293 
L 619.368705 635.526069 
L 622.444146 635.14847 
L 625.519587 639.087042 
L 628.595028 643.232187 
L 631.670469 643.276658 
L 634.74591 643.66206 
L 637.821351 642.916929 
L 640.896792 646.139276 
L 643.972233 646.104834 
L 647.047673 651.136818 
L 650.123114 645.85913 
L 653.198555 642.295675 
L 656.273996 642.356933 
L 659.349437 640.380662 
L 662.424878 642.511646 
L 665.500319 642.486741 
L 668.57576 635.335792 
L 671.651201 631.257068 
L 674.726642 628.975548 
L 677.802082 622.339297 
L 680.877523 623.696008 
L 683.952964 615.980773 
L 687.028405 611.887133 
L 693.179287 595.948674 
L 696.254728 587.154957 
L 699.330169 584.34747 
L 702.40561 580.89871 
L 705.48105 572.055044 
L 708.556491 546.174198 
L 711.631932 545.157482 
L 714.707373 530.889169 
L 717.782814 529.214541 
L 720.858255 531.122992 
L 723.933696 527.821023 
L 727.009137 526.814504 
L 730.084578 527.940663 
L 733.160018 519.764477 
L 736.235459 515.96519 
L 739.3109 517.237175 
L 742.386341 516.367616 
L 745.461782 516.78746 
L 748.537223 516.768525 
L 751.612664 517.126323 
L 754.688105 518.838428 
L 757.763546 523.847043 
L 760.838986 524.538009 
L 763.914427 526.27768 
L 766.989868 521.902397 
L 770.065309 521.805632 
L 773.14075 531.296581 
L 776.216191 533.748536 
L 779.291632 528.720729 
L 782.367073 529.276568 
L 785.442514 525.370841 
L 788.517954 538.660447 
L 791.593395 525.457064 
L 794.668836 532.392475 
L 797.744277 536.898117 
L 800.819718 539.194769 
L 803.895159 541.247165 
L 806.9706 543.512241 
L 810.046041 549.95989 
L 813.121482 555.229204 
L 816.196922 549.956274 
L 819.272363 552.617511 
L 822.347804 551.800738 
L 825.423245 547.275678 
L 828.498686 553.334072 
L 831.574127 557.194786 
L 834.649568 555.092668 
L 837.725009 553.216452 
L 840.80045 553.261642 
L 843.87589 552.81635 
L 846.951331 555.797968 
L 850.026772 551.2595 
L 853.102213 549.067051 
L 856.177654 549.322409 
L 859.253095 545.049536 
L 862.328536 547.463286 
L 865.403977 545.446091 
L 868.479418 547.349449 
L 871.554858 544.755962 
L 874.630299 538.773319 
L 877.70574 536.985227 
L 883.856622 533.74363 
L 886.932063 533.047738 
L 890.007504 532.221527 
L 893.082945 529.32693 
L 896.158386 526.705366 
L 899.233827 524.865601 
L 902.309267 521.397472 
L 905.384708 521.210268 
L 908.460149 519.782801 
L 911.53559 522.93987 
L 914.611031 523.846413 
L 917.686472 523.985304 
L 920.761913 523.183131 
L 923.837354 522.00385 
L 926.912795 524.722928 
L 929.988235 515.245693 
L 933.063676 523.712192 
L 936.139117 514.42756 
L 939.214558 520.452803 
L 942.289999 525.67406 
L 945.36544 522.833746 
L 948.440881 531.092372 
L 951.516322 531.361937 
L 954.591763 530.493028 
L 957.667203 528.951557 
L 960.742644 529.311581 
L 963.818085 530.587606 
L 966.893526 534.546867 
L 969.968967 541.606135 
L 973.044408 538.165699 
L 976.119849 541.138834 
L 979.19529 548.675264 
L 982.270731 546.234816 
L 985.346171 554.021285 
L 988.421612 556.536114 
L 988.421612 556.536114 
" clip-path="url(#p2fe5c990ac)" style="fill: none; stroke: #ff7f0e; stroke-width: 1.5; stroke-linecap: square"/>
   </g>
   <g id="line2d_43">
    <path d="M 548.633565 658.588125 
L 548.633565 494.659375 
" clip-path="url(#p2fe5c990ac)" style="fill: none; stroke-dasharray: 7.4,3.2; stroke-dashoffset: 0; stroke: #0000ff; stroke-width: 2"/>
   </g>
   <g id="patch_14">
    <path d="M 61.6375 658.588125 
L 61.6375 494.659375 
" style="fill: none; stroke: #000000; stroke-width: 0.8; stroke-linejoin: miter; stroke-linecap: square"/>
   </g>
   <g id="patch_15">
    <path d="M 1032.554189 658.588125 
L 1032.554189 494.659375 
" style="fill: none; stroke: #000000; stroke-width: 0.8; stroke-linejoin: miter; stroke-linecap: square"/>
   </g>
   <g id="patch_16">
    <path d="M 61.6375 658.588125 
L 1032.554189 658.588125 
" style="fill: none; stroke: #000000; stroke-width: 0.8; stroke-linejoin: miter; stroke-linecap: square"/>
   </g>
   <g id="patch_17">
    <path d="M 61.6375 494.659375 
L 1032.554189 494.659375 
" style="fill: none; stroke: #000000; stroke-width: 0.8; stroke-linejoin: miter; stroke-linecap: square"/>
   </g>
   <g id="text_40">
    <!-- 云函数ID: 160 -->
    <g transform="translate(482.095845 488.659375) scale(0.2 -0.2)">
     <defs>
      <path id="SimSun-36" d="M 775 1800 
Q 775 1050 1037 637 
Q 1300 225 1675 225 
Q 2050 225 2250 500 
Q 2450 775 2450 1525 
Q 2450 2025 2237 2300 
Q 2025 2575 1725 2575 
Q 1450 2575 1212 2412 
Q 975 2250 775 1800 
z
M 1750 2825 
Q 2350 2825 2612 2425 
Q 2875 2025 2875 1525 
Q 2875 775 2512 412 
Q 2150 50 1675 50 
Q 1000 50 650 562 
Q 300 1075 300 2050 
Q 300 3200 725 3812 
Q 1150 4425 1875 4425 
Q 2225 4425 2437 4225 
Q 2650 4025 2650 3875 
Q 2650 3725 2587 3650 
Q 2525 3575 2375 3575 
Q 2250 3575 2187 3637 
Q 2125 3700 2125 3825 
Q 2125 3875 2150 3925 
Q 2150 3975 2150 4025 
Q 2150 4125 2075 4187 
Q 2000 4250 1800 4250 
Q 1375 4250 1075 3862 
Q 775 3475 775 2175 
Q 925 2500 1187 2662 
Q 1450 2825 1750 2825 
z
" transform="scale(0.015625)"/>
     </defs>
     <use xlink:href="#SimSun-4e91"/>
     <use xlink:href="#SimSun-51fd" x="100"/>
     <use xlink:href="#SimSun-6570" x="200"/>
     <use xlink:href="#SimSun-49" x="300"/>
     <use xlink:href="#SimSun-44" x="350"/>
     <use xlink:href="#SimSun-3a" x="400"/>
     <use xlink:href="#SimSun-20" x="450"/>
     <use xlink:href="#SimSun-31" x="500"/>
     <use xlink:href="#SimSun-36" x="550"/>
     <use xlink:href="#SimSun-30" x="600"/>
    </g>
   </g>
  </g>
 </g>
 <defs>
  <clipPath id="p9af725bd08">
   <rect x="61.6375" y="29.059375" width="970.916689" height="163.92875"/>
  </clipPath>
  <clipPath id="p21eb5d19c8">
   <rect x="61.6375" y="261.859375" width="970.916689" height="163.92875"/>
  </clipPath>
  <clipPath id="p2fe5c990ac">
   <rect x="61.6375" y="494.659375" width="970.916689" height="163.92875"/>
  </clipPath>
 </defs>
</svg>
