<?xml version="1.0" encoding="utf-8" standalone="no"?>
<!DOCTYPE svg PUBLIC "-//W3C//DTD SVG 1.1//EN"
  "http://www.w3.org/Graphics/SVG/1.1/DTD/svg11.dtd">
<svg xmlns:xlink="http://www.w3.org/1999/xlink" width="1050.587408pt" height="691.34625pt" viewBox="0 0 1050.587408 691.34625" xmlns="http://www.w3.org/2000/svg" version="1.1">
 <metadata>
  <rdf:RDF xmlns:dc="http://purl.org/dc/elements/1.1/" xmlns:cc="http://creativecommons.org/ns#" xmlns:rdf="http://www.w3.org/1999/02/22-rdf-syntax-ns#">
   <cc:Work>
    <dc:type rdf:resource="http://purl.org/dc/dcmitype/StillImage"/>
    <dc:date>2024-02-27T20:17:27.234131</dc:date>
    <dc:format>image/svg+xml</dc:format>
    <dc:creator>
     <cc:Agent>
      <dc:title>Matplotlib v3.7.4, https://matplotlib.org/</dc:title>
     </cc:Agent>
    </dc:creator>
   </cc:Work>
  </rdf:RDF>
 </metadata>
 <defs>
  <style type="text/css">*{stroke-linejoin: round; stroke-linecap: butt}</style>
 </defs>
 <g id="figure_1">
  <g id="patch_1">
   <path d="M 0 691.34625 
L 1050.587408 691.34625 
L 1050.587408 0 
L 0 0 
z
" style="fill: #ffffff"/>
  </g>
  <g id="axes_1">
   <g id="patch_2">
    <path d="M 61.6375 193.380625 
L 1032.539189 193.380625 
L 1032.539189 27.340625 
L 61.6375 27.340625 
z
" style="fill: #ffffff"/>
   </g>
   <g id="matplotlib.axis_1">
    <g id="xtick_1">
     <g id="line2d_1">
      <defs>
       <path id="med917ec1d3" d="M 0 0 
L 0 3.5 
" style="stroke: #000000; stroke-width: 0.8"/>
      </defs>
      <g>
       <use xlink:href="#med917ec1d3" x="105.769395" y="193.380625" style="stroke: #000000; stroke-width: 0.8"/>
      </g>
     </g>
     <g id="text_1">
      <!-- 0 -->
      <g transform="translate(100.769395 214.268125) scale(0.2 -0.2)">
       <defs>
        <path id="TimesNewRomanPSMT-30" d="M 231 2094 
Q 231 2819 450 3342 
Q 669 3866 1031 4122 
Q 1313 4325 1613 4325 
Q 2100 4325 2488 3828 
Q 2972 3213 2972 2159 
Q 2972 1422 2759 906 
Q 2547 391 2217 158 
Q 1888 -75 1581 -75 
Q 975 -75 572 641 
Q 231 1244 231 2094 
z
M 844 2016 
Q 844 1141 1059 588 
Q 1238 122 1591 122 
Q 1759 122 1940 273 
Q 2122 425 2216 781 
Q 2359 1319 2359 2297 
Q 2359 3022 2209 3506 
Q 2097 3866 1919 4016 
Q 1791 4119 1609 4119 
Q 1397 4119 1231 3928 
Q 1006 3669 925 3112 
Q 844 2556 844 2016 
z
" transform="scale(0.015625)"/>
       </defs>
       <use xlink:href="#TimesNewRomanPSMT-30"/>
      </g>
     </g>
    </g>
    <g id="xtick_2">
     <g id="line2d_2">
      <g>
       <use xlink:href="#med917ec1d3" x="259.539064" y="193.380625" style="stroke: #000000; stroke-width: 0.8"/>
      </g>
     </g>
     <g id="text_2">
      <!-- 50 -->
      <g transform="translate(249.539064 214.268125) scale(0.2 -0.2)">
       <defs>
        <path id="TimesNewRomanPSMT-35" d="M 2778 4238 
L 2534 3706 
L 1259 3706 
L 981 3138 
Q 1809 3016 2294 2522 
Q 2709 2097 2709 1522 
Q 2709 1188 2573 903 
Q 2438 619 2231 419 
Q 2025 219 1772 97 
Q 1413 -75 1034 -75 
Q 653 -75 479 54 
Q 306 184 306 341 
Q 306 428 378 495 
Q 450 563 559 563 
Q 641 563 702 538 
Q 763 513 909 409 
Q 1144 247 1384 247 
Q 1750 247 2026 523 
Q 2303 800 2303 1197 
Q 2303 1581 2056 1914 
Q 1809 2247 1375 2428 
Q 1034 2569 447 2591 
L 1259 4238 
L 2778 4238 
z
" transform="scale(0.015625)"/>
       </defs>
       <use xlink:href="#TimesNewRomanPSMT-35"/>
       <use xlink:href="#TimesNewRomanPSMT-30" x="50"/>
      </g>
     </g>
    </g>
    <g id="xtick_3">
     <g id="line2d_3">
      <g>
       <use xlink:href="#med917ec1d3" x="413.308733" y="193.380625" style="stroke: #000000; stroke-width: 0.8"/>
      </g>
     </g>
     <g id="text_3">
      <!-- 100 -->
      <g transform="translate(398.308733 214.268125) scale(0.2 -0.2)">
       <defs>
        <path id="TimesNewRomanPSMT-31" d="M 750 3822 
L 1781 4325 
L 1884 4325 
L 1884 747 
Q 1884 391 1914 303 
Q 1944 216 2037 169 
Q 2131 122 2419 116 
L 2419 0 
L 825 0 
L 825 116 
Q 1125 122 1212 167 
Q 1300 213 1334 289 
Q 1369 366 1369 747 
L 1369 3034 
Q 1369 3497 1338 3628 
Q 1316 3728 1258 3775 
Q 1200 3822 1119 3822 
Q 1003 3822 797 3725 
L 750 3822 
z
" transform="scale(0.015625)"/>
       </defs>
       <use xlink:href="#TimesNewRomanPSMT-31"/>
       <use xlink:href="#TimesNewRomanPSMT-30" x="50"/>
       <use xlink:href="#TimesNewRomanPSMT-30" x="100"/>
      </g>
     </g>
    </g>
    <g id="xtick_4">
     <g id="line2d_4">
      <g>
       <use xlink:href="#med917ec1d3" x="567.078402" y="193.380625" style="stroke: #000000; stroke-width: 0.8"/>
      </g>
     </g>
     <g id="text_4">
      <!-- 150 -->
      <g transform="translate(552.078402 214.268125) scale(0.2 -0.2)">
       <use xlink:href="#TimesNewRomanPSMT-31"/>
       <use xlink:href="#TimesNewRomanPSMT-35" x="50"/>
       <use xlink:href="#TimesNewRomanPSMT-30" x="100"/>
      </g>
     </g>
    </g>
    <g id="xtick_5">
     <g id="line2d_5">
      <g>
       <use xlink:href="#med917ec1d3" x="720.84807" y="193.380625" style="stroke: #000000; stroke-width: 0.8"/>
      </g>
     </g>
     <g id="text_5">
      <!-- 200 -->
      <g transform="translate(705.84807 214.268125) scale(0.2 -0.2)">
       <defs>
        <path id="TimesNewRomanPSMT-32" d="M 2934 816 
L 2638 0 
L 138 0 
L 138 116 
Q 1241 1122 1691 1759 
Q 2141 2397 2141 2925 
Q 2141 3328 1894 3587 
Q 1647 3847 1303 3847 
Q 991 3847 742 3664 
Q 494 3481 375 3128 
L 259 3128 
Q 338 3706 661 4015 
Q 984 4325 1469 4325 
Q 1984 4325 2329 3994 
Q 2675 3663 2675 3213 
Q 2675 2891 2525 2569 
Q 2294 2063 1775 1497 
Q 997 647 803 472 
L 1909 472 
Q 2247 472 2383 497 
Q 2519 522 2628 598 
Q 2738 675 2819 816 
L 2934 816 
z
" transform="scale(0.015625)"/>
       </defs>
       <use xlink:href="#TimesNewRomanPSMT-32"/>
       <use xlink:href="#TimesNewRomanPSMT-30" x="50"/>
       <use xlink:href="#TimesNewRomanPSMT-30" x="100"/>
      </g>
     </g>
    </g>
    <g id="xtick_6">
     <g id="line2d_6">
      <g>
       <use xlink:href="#med917ec1d3" x="874.617739" y="193.380625" style="stroke: #000000; stroke-width: 0.8"/>
      </g>
     </g>
     <g id="text_6">
      <!-- 250 -->
      <g transform="translate(859.617739 214.268125) scale(0.2 -0.2)">
       <use xlink:href="#TimesNewRomanPSMT-32"/>
       <use xlink:href="#TimesNewRomanPSMT-35" x="50"/>
       <use xlink:href="#TimesNewRomanPSMT-30" x="100"/>
      </g>
     </g>
    </g>
    <g id="xtick_7">
     <g id="line2d_7">
      <g>
       <use xlink:href="#med917ec1d3" x="1028.387408" y="193.380625" style="stroke: #000000; stroke-width: 0.8"/>
      </g>
     </g>
     <g id="text_7">
      <!-- 300 -->
      <g transform="translate(1013.387408 214.268125) scale(0.2 -0.2)">
       <defs>
        <path id="TimesNewRomanPSMT-33" d="M 325 3431 
Q 506 3859 782 4092 
Q 1059 4325 1472 4325 
Q 1981 4325 2253 3994 
Q 2459 3747 2459 3466 
Q 2459 3003 1878 2509 
Q 2269 2356 2469 2072 
Q 2669 1788 2669 1403 
Q 2669 853 2319 450 
Q 1863 -75 997 -75 
Q 569 -75 414 31 
Q 259 138 259 259 
Q 259 350 332 419 
Q 406 488 509 488 
Q 588 488 669 463 
Q 722 447 909 348 
Q 1097 250 1169 231 
Q 1284 197 1416 197 
Q 1734 197 1970 444 
Q 2206 691 2206 1028 
Q 2206 1275 2097 1509 
Q 2016 1684 1919 1775 
Q 1784 1900 1550 2001 
Q 1316 2103 1072 2103 
L 972 2103 
L 972 2197 
Q 1219 2228 1467 2375 
Q 1716 2522 1828 2728 
Q 1941 2934 1941 3181 
Q 1941 3503 1739 3701 
Q 1538 3900 1238 3900 
Q 753 3900 428 3381 
L 325 3431 
z
" transform="scale(0.015625)"/>
       </defs>
       <use xlink:href="#TimesNewRomanPSMT-33"/>
       <use xlink:href="#TimesNewRomanPSMT-30" x="50"/>
       <use xlink:href="#TimesNewRomanPSMT-30" x="100"/>
      </g>
     </g>
    </g>
   </g>
   <g id="matplotlib.axis_2">
    <g id="ytick_1">
     <g id="line2d_8">
      <defs>
       <path id="m8a644a55d1" d="M 0 0 
L -3.5 0 
" style="stroke: #000000; stroke-width: 0.8"/>
      </defs>
      <g>
       <use xlink:href="#m8a644a55d1" x="61.6375" y="170.798944" style="stroke: #000000; stroke-width: 0.8"/>
      </g>
     </g>
     <g id="text_8">
      <!-- 2.5 -->
      <g transform="translate(29.6375 177.742694) scale(0.2 -0.2)">
       <defs>
        <path id="TimesNewRomanPSMT-2e" d="M 800 606 
Q 947 606 1047 504 
Q 1147 403 1147 259 
Q 1147 116 1045 14 
Q 944 -88 800 -88 
Q 656 -88 554 14 
Q 453 116 453 259 
Q 453 406 554 506 
Q 656 606 800 606 
z
" transform="scale(0.015625)"/>
       </defs>
       <use xlink:href="#TimesNewRomanPSMT-32"/>
       <use xlink:href="#TimesNewRomanPSMT-2e" x="50"/>
       <use xlink:href="#TimesNewRomanPSMT-35" x="75"/>
      </g>
     </g>
    </g>
    <g id="ytick_2">
     <g id="line2d_9">
      <g>
       <use xlink:href="#m8a644a55d1" x="61.6375" y="120.684249" style="stroke: #000000; stroke-width: 0.8"/>
      </g>
     </g>
     <g id="text_9">
      <!-- 5.0 -->
      <g transform="translate(29.6375 127.627999) scale(0.2 -0.2)">
       <use xlink:href="#TimesNewRomanPSMT-35"/>
       <use xlink:href="#TimesNewRomanPSMT-2e" x="50"/>
       <use xlink:href="#TimesNewRomanPSMT-30" x="75"/>
      </g>
     </g>
    </g>
    <g id="ytick_3">
     <g id="line2d_10">
      <g>
       <use xlink:href="#m8a644a55d1" x="61.6375" y="70.569555" style="stroke: #000000; stroke-width: 0.8"/>
      </g>
     </g>
     <g id="text_10">
      <!-- 7.5 -->
      <g transform="translate(29.6375 77.513305) scale(0.2 -0.2)">
       <defs>
        <path id="TimesNewRomanPSMT-37" d="M 644 4238 
L 2916 4238 
L 2916 4119 
L 1503 -88 
L 1153 -88 
L 2419 3728 
L 1253 3728 
Q 900 3728 750 3644 
Q 488 3500 328 3200 
L 238 3234 
L 644 4238 
z
" transform="scale(0.015625)"/>
       </defs>
       <use xlink:href="#TimesNewRomanPSMT-37"/>
       <use xlink:href="#TimesNewRomanPSMT-2e" x="50"/>
       <use xlink:href="#TimesNewRomanPSMT-35" x="75"/>
      </g>
     </g>
    </g>
    <g id="text_11">
     <!-- CPU使用率 -->
     <g transform="translate(23.059375 155.360625) rotate(-90) scale(0.2 -0.2)">
      <defs>
       <path id="SimSun-43" d="M 1725 50 
Q 1025 50 612 575 
Q 200 1100 200 2225 
Q 200 3175 637 3800 
Q 1075 4425 1825 4425 
Q 2000 4425 2175 4375 
Q 2350 4300 2475 4300 
Q 2575 4300 2637 4325 
Q 2700 4350 2750 4425 
L 2975 3325 
L 2825 3275 
Q 2675 3750 2425 4000 
Q 2175 4250 1775 4250 
Q 1250 4250 962 3675 
Q 675 3100 675 2250 
Q 675 1325 925 800 
Q 1175 275 1750 275 
Q 2150 275 2437 562 
Q 2725 850 2825 1325 
L 2975 1250 
Q 2850 725 2512 387 
Q 2175 50 1725 50 
z
" transform="scale(0.015625)"/>
       <path id="SimSun-50" d="M 950 2100 
L 950 450 
Q 950 350 1012 300 
Q 1075 250 1175 250 
L 1350 250 
L 1350 100 
L 150 100 
L 150 250 
L 325 250 
Q 450 250 500 300 
Q 550 350 550 450 
L 550 4025 
Q 550 4125 500 4175 
Q 450 4225 325 4225 
L 175 4225 
L 175 4375 
L 1650 4375 
Q 2275 4375 2612 4062 
Q 2950 3750 2950 3275 
Q 2950 2700 2587 2400 
Q 2225 2100 1725 2100 
L 950 2100 
z
M 1575 2250 
Q 1950 2250 2237 2475 
Q 2525 2700 2525 3250 
Q 2525 3750 2287 3987 
Q 2050 4225 1525 4225 
L 1175 4225 
Q 1075 4225 1012 4175 
Q 950 4125 950 4025 
L 950 2250 
L 1575 2250 
z
" transform="scale(0.015625)"/>
       <path id="SimSun-55" d="M 1625 250 
Q 2000 250 2262 500 
Q 2525 750 2525 1125 
L 2525 4025 
Q 2525 4125 2475 4175 
Q 2425 4225 2300 4225 
L 2150 4225 
L 2150 4375 
L 3050 4375 
L 3050 4225 
L 2900 4225 
Q 2800 4225 2737 4175 
Q 2675 4125 2675 4025 
L 2675 1125 
Q 2675 625 2337 337 
Q 2000 50 1575 50 
Q 1125 50 787 300 
Q 450 550 450 1100 
L 450 4025 
Q 450 4125 400 4175 
Q 350 4225 225 4225 
L 100 4225 
L 100 4375 
L 1200 4375 
L 1200 4225 
L 1075 4225 
Q 975 4225 912 4175 
Q 850 4125 850 4025 
L 850 1100 
Q 850 600 1062 425 
Q 1275 250 1625 250 
z
" transform="scale(0.015625)"/>
       <path id="SimSun-4f7f" d="M 2875 3150 
L 2875 2100 
L 3825 2100 
Q 3850 2825 3850 3150 
L 2875 3150 
z
M 4175 3150 
Q 4175 2800 4150 2100 
L 5150 2100 
L 5150 3150 
L 4175 3150 
z
M 5475 3100 
L 5475 2425 
Q 5475 2100 5500 1800 
L 5150 1675 
L 5150 1950 
L 4150 1950 
Q 4125 1175 3875 600 
Q 4275 275 4875 75 
Q 5475 -125 6075 -150 
L 6075 -250 
Q 5700 -300 5600 -575 
Q 4525 -325 3725 350 
Q 3425 25 2925 -225 
Q 2425 -475 1875 -650 
L 1825 -550 
Q 2400 -325 2850 -25 
Q 3300 275 3500 575 
Q 3200 925 2825 1650 
L 2900 1700 
Q 3325 1100 3625 825 
Q 3800 1300 3825 1950 
L 2875 1950 
L 2875 1825 
L 2525 1675 
Q 2550 2075 2550 2562 
Q 2550 3050 2525 3500 
L 2875 3300 
L 3850 3300 
L 3850 4025 
L 2975 4025 
Q 2650 4025 2375 3950 
L 2150 4175 
L 3850 4175 
L 3850 4525 
Q 3850 4775 3825 5225 
L 4350 5000 
L 4175 4825 
L 4175 4175 
L 5300 4175 
L 5600 4475 
L 6050 4025 
L 4175 4025 
L 4175 3300 
L 5100 3300 
L 5275 3525 
L 5650 3225 
L 5475 3100 
z
M 1675 3175 
L 1675 -450 
L 1325 -625 
Q 1350 -75 1350 350 
L 1350 3200 
Q 900 2475 350 1900 
L 275 1950 
Q 700 2525 1112 3400 
Q 1525 4275 1800 5250 
L 2325 4925 
L 2125 4800 
Q 1725 3925 1500 3525 
L 1875 3325 
L 1675 3175 
z
" transform="scale(0.015625)"/>
       <path id="SimSun-7528" d="M 3400 3150 
L 3400 1825 
L 5075 1825 
L 5075 3150 
L 3400 3150 
z
M 4075 100 
Q 4725 50 4900 62 
Q 5075 75 5075 400 
L 5075 1675 
L 3400 1675 
Q 3400 75 3425 -225 
L 3050 -400 
Q 3075 1025 3075 1675 
L 1425 1675 
Q 1250 350 375 -600 
L 300 -550 
Q 775 225 950 1025 
Q 1125 1825 1125 3225 
Q 1125 4625 1100 5075 
L 1475 4825 
L 5050 4825 
L 5225 5100 
L 5625 4800 
L 5425 4600 
L 5425 225 
Q 5450 -400 4875 -575 
Q 4825 -150 4075 -25 
L 4075 100 
z
M 1475 4675 
L 1475 3300 
L 3075 3300 
L 3075 4675 
L 1475 4675 
z
M 3400 4675 
L 3400 3300 
L 5075 3300 
L 5075 4675 
L 3400 4675 
z
M 1475 3150 
Q 1450 2100 1425 1825 
L 3075 1825 
L 3075 3150 
L 1475 3150 
z
" transform="scale(0.015625)"/>
       <path id="SimSun-7387" d="M 875 3725 
L 925 3800 
Q 1375 3650 1550 3525 
Q 1725 3400 1725 3250 
Q 1725 3175 1662 3025 
Q 1600 2875 1550 2875 
Q 1500 2875 1425 3050 
Q 1275 3325 875 3725 
z
M 550 1850 
Q 875 1925 2000 2575 
L 2050 2500 
Q 1675 2225 1337 1937 
Q 1000 1650 875 1425 
L 550 1850 
z
M 5200 3450 
Q 4800 3150 4275 2800 
L 4225 2875 
Q 4775 3400 5050 3925 
L 5450 3525 
L 5200 3450 
z
M 4325 2500 
L 4350 2575 
Q 5225 2350 5375 2212 
Q 5525 2075 5525 1900 
Q 5525 1775 5487 1662 
Q 5450 1550 5400 1550 
Q 5325 1550 5200 1800 
Q 4975 2150 4325 2500 
z
M 3150 3900 
Q 2500 3300 2300 3150 
Q 2800 3150 3400 3175 
Q 3700 3500 3850 3825 
L 4250 3450 
Q 4050 3400 3450 2825 
Q 2850 2250 2475 1950 
Q 3150 1975 3850 2000 
Q 3750 2175 3550 2450 
L 3600 2500 
Q 4050 2250 4200 2100 
Q 4350 1950 4350 1850 
Q 4350 1775 4250 1625 
Q 4150 1475 4100 1475 
Q 4075 1475 4050 1550 
Q 4000 1700 3900 1900 
Q 3650 1875 3075 1800 
L 3500 1550 
L 3325 1425 
L 3325 975 
L 5325 975 
L 5650 1300 
L 6100 825 
L 3325 825 
Q 3325 -275 3350 -525 
L 2975 -650 
Q 3000 0 3000 825 
L 1125 825 
Q 800 825 525 750 
L 300 975 
L 3000 975 
L 3000 1775 
Q 2450 1700 2200 1525 
L 1950 1950 
Q 2275 1950 2675 2350 
Q 3075 2750 3325 3050 
Q 2400 2950 2150 2775 
L 1950 3175 
Q 2150 3150 2475 3575 
Q 2800 4000 2900 4225 
L 1450 4225 
Q 1125 4225 850 4150 
L 625 4375 
L 3100 4375 
Q 3050 4800 2675 5200 
L 2725 5250 
Q 3225 5050 3337 4912 
Q 3450 4775 3450 4700 
Q 3450 4550 3250 4375 
L 5025 4375 
L 5350 4675 
L 5775 4225 
L 3050 4225 
L 3375 3950 
L 3150 3900 
z
" transform="scale(0.015625)"/>
      </defs>
      <use xlink:href="#SimSun-43"/>
      <use xlink:href="#SimSun-50" x="50"/>
      <use xlink:href="#SimSun-55" x="100"/>
      <use xlink:href="#SimSun-4f7f" x="150"/>
      <use xlink:href="#SimSun-7528" x="250"/>
      <use xlink:href="#SimSun-7387" x="350"/>
     </g>
    </g>
   </g>
   <g id="line2d_11">
    <path d="M 105.769395 108.055344 
L 108.844788 134.515906 
L 111.920182 77.385156 
L 114.995575 38.897069 
L 118.070968 99.836537 
L 121.146362 100.237454 
L 124.221755 100.437918 
L 127.297149 80.592494 
L 130.372542 120.684249 
L 133.447935 130.707188 
L 136.523329 145.741597 
L 139.598722 113.066814 
L 142.674115 136.921409 
L 145.749509 138.925995 
L 151.900296 100.237454 
L 154.975689 100.437918 
L 158.051082 120.483796 
L 161.126476 110.66131 
L 164.201869 115.67278 
L 167.277262 148.147104 
L 170.352656 144.538845 
L 173.428049 162.580132 
L 176.503443 161.778298 
L 179.578836 171.199861 
L 182.654229 115.873243 
L 185.729623 98.232869 
L 188.805016 109.458559 
L 191.88041 125.094338 
L 194.955803 152.958115 
L 198.031196 166.990226 
L 201.10659 153.75995 
L 204.181983 157.368204 
L 207.257376 168.994817 
L 210.33277 185.031518 
L 213.408163 172.803535 
L 216.483557 166.789767 
L 219.55895 173.805827 
L 222.634343 177.414082 
L 225.709737 179.017751 
L 228.78513 169.99711 
L 231.860523 175.409496 
L 234.935917 167.992524 
L 238.01131 164.38426 
L 241.086704 152.557193 
L 244.162097 156.766828 
L 247.23749 168.794358 
L 250.312884 164.785182 
L 253.388277 162.780591 
L 256.46367 161.778298 
L 259.539064 161.176922 
L 262.614457 160.976464 
L 265.689851 160.976464 
L 268.765244 160.776005 
L 271.840637 170.798944 
L 274.916031 165.787474 
L 277.991424 163.381967 
L 281.066817 161.978757 
L 284.142211 171.40032 
L 287.217604 146.142514 
L 290.292998 93.221399 
L 293.368391 87.007178 
L 296.443784 103.845709 
L 299.519178 112.264979 
L 302.594571 86.405798 
L 305.669964 133.513609 
L 308.745358 157.167746 
L 311.820751 168.994817 
L 314.896145 104.848007 
L 317.971538 132.711774 
L 321.046931 116.675078 
L 324.122325 98.633786 
L 327.197718 99.636074 
L 333.348505 140.529673 
L 336.423898 150.552608 
L 339.499292 115.67278 
L 342.574685 138.124161 
L 345.650078 129.504437 
L 348.725472 155.16316 
L 351.800865 127.900768 
L 354.876258 134.315443 
L 357.951652 137.52279 
L 361.027045 159.172336 
L 364.102439 169.99711 
L 367.177832 175.409496 
L 370.253225 178.015458 
L 373.328619 169.395729 
L 376.404012 165.186094 
L 379.479406 183.026927 
L 382.554799 181.824176 
L 385.630192 151.354442 
L 388.705586 155.964994 
L 391.780979 158.370497 
L 394.856372 169.596192 
L 397.931766 175.209038 
L 401.007159 157.96958 
L 404.082553 149.349856 
L 407.157946 155.16316 
L 410.233339 157.96958 
L 413.308733 169.395729 
L 416.384126 144.939762 
L 419.459519 152.958115 
L 422.534913 156.766828 
L 425.610306 178.817297 
L 428.6857 179.819585 
L 431.761093 170.398027 
L 434.836486 175.609955 
L 437.91188 178.215916 
L 440.987273 169.395729 
L 444.062666 165.186094 
L 447.13806 173.003988 
L 450.213453 176.812706 
L 453.288847 168.794358 
L 456.36424 164.785182 
L 459.439633 162.780591 
L 462.515027 161.778298 
L 468.665813 160.976464 
L 471.741207 170.999403 
L 474.8166 95.626902 
L 477.891994 38.095235 
L 480.967387 79.389742 
L 484.04278 130.105808 
L 487.118174 145.340679 
L 490.193567 163.181508 
L 493.26896 151.955818 
L 496.344354 146.342972 
L 499.419747 143.536552 
L 502.495141 112.064525 
L 505.570534 66.159466 
L 508.645927 123.49067 
L 511.721321 132.110403 
L 514.796714 126.497553 
L 517.872107 143.536552 
L 520.947501 162.179215 
L 524.022894 151.5549 
L 527.098288 156.165453 
L 530.173681 138.324624 
L 533.249074 139.527376 
L 536.324468 140.128756 
L 539.399861 160.575546 
L 542.475254 160.575546 
L 545.550648 140.730127 
L 548.626041 150.753066 
L 551.701435 145.741597 
L 554.776828 113.066814 
L 557.852221 106.852593 
L 560.927615 133.914526 
L 564.003008 147.345265 
L 567.078402 163.983347 
L 570.153795 162.379674 
L 573.229188 161.577839 
L 576.304582 161.176922 
L 579.379975 160.976464 
L 582.455368 160.976464 
L 585.530762 160.776005 
L 588.606155 160.776005 
L 591.681549 170.798944 
L 594.756942 185.833352 
L 597.832335 173.404906 
L 600.907729 166.990226 
L 603.983122 153.960408 
L 607.058515 167.391143 
L 610.133909 163.983347 
L 613.209302 162.379674 
L 616.284696 161.577839 
L 619.360089 171.199861 
L 622.435482 176.010872 
L 625.510876 178.416375 
L 628.586269 159.573253 
L 631.661662 170.197563 
L 634.737056 165.587016 
L 637.812449 173.204447 
L 640.887843 166.990226 
L 643.963236 163.782889 
L 647.038629 172.402613 
L 650.114023 166.589309 
L 653.189416 163.582425 
L 656.264809 92.018648 
L 659.340203 106.451675 
L 662.415596 93.421853 
L 665.49099 117.075995 
L 668.566383 118.880117 
L 671.641776 149.951232 
L 674.71717 165.386557 
L 677.792563 82.797543 
L 680.867956 131.90994 
L 683.94335 136.320038 
L 687.018743 128.502139 
L 690.094137 144.538845 
L 693.16953 142.734718 
L 696.244923 61.548914 
L 699.320317 91.01635 
L 702.39571 115.873243 
L 705.471103 108.255807 
L 708.546497 144.538845 
L 711.62189 152.757652 
L 714.697284 116.675078 
L 717.772677 148.74848 
L 720.84807 144.739304 
L 723.923464 152.757652 
L 726.998857 156.766828 
L 730.07425 148.74848 
L 733.149644 134.71636 
L 736.225037 147.746183 
L 739.300431 164.183801 
L 742.375824 162.580132 
L 745.451217 161.577839 
L 748.526611 161.176922 
L 751.602004 150.953525 
L 754.677397 165.987933 
L 757.752791 163.381967 
L 760.828184 161.978757 
L 763.903578 161.377381 
L 766.978971 161.176922 
L 770.054364 170.999403 
L 773.129758 165.787474 
L 776.205151 163.381967 
L 779.280545 172.001695 
L 782.355938 166.38885 
L 785.431331 163.582425 
L 788.506725 162.179215 
L 791.582118 161.577839 
L 794.657511 171.199861 
L 797.732905 165.987933 
L 800.808298 163.381967 
L 803.883692 161.978757 
L 806.959085 171.40032 
L 810.034478 166.188392 
L 813.109872 153.359028 
L 816.185265 167.190685 
L 819.260658 163.983347 
L 822.336052 172.402613 
L 825.411445 156.56637 
L 828.486839 128.502139 
L 831.562232 154.762243 
L 834.637625 107.654427 
L 837.713019 144.137928 
L 840.788412 152.557193 
L 843.863805 166.589309 
L 846.939199 133.714072 
L 850.014592 107.053056 
L 853.089986 143.937469 
L 856.165379 152.356735 
L 859.240772 136.520492 
L 862.316166 138.725541 
L 865.391559 139.727839 
L 868.466952 120.082869 
L 871.542346 150.552608 
L 874.617739 155.564077 
L 877.693133 158.170043 
L 880.768526 139.527376 
L 883.843919 130.105808 
L 886.919313 115.271863 
L 889.994706 138.124161 
L 893.070099 129.303973 
L 896.145493 34.887898 
L 899.220886 97.831951 
L 902.29628 89.212218 
L 905.371673 124.893884 
L 908.447066 92.820482 
L 911.52246 56.537444 
L 914.597853 78.587908 
L 917.673246 129.704891 
L 920.74864 145.340679 
L 923.824033 122.889299 
L 926.899427 141.932879 
L 929.97482 121.28563 
L 933.050213 140.930586 
L 936.125607 150.953525 
L 939.201 165.787474 
L 942.276393 163.381967 
L 945.351787 161.978757 
L 948.42718 161.377381 
L 951.502574 161.176922 
L 954.577967 170.999403 
L 957.65336 175.810413 
L 960.728754 168.393436 
L 963.804147 164.584723 
L 966.879541 172.603071 
L 969.954934 166.789767 
L 973.030327 163.782889 
L 976.105721 172.202154 
L 979.181114 156.56637 
L 982.256507 168.593895 
L 985.331901 164.785182 
L 988.407294 162.780591 
L 988.407294 162.780591 
" clip-path="url(#pe5eed6bc8a)" style="fill: none; stroke: #1f77b4; stroke-width: 1.5; stroke-linecap: square"/>
   </g>
   <g id="line2d_12">
    <path d="M 548.626041 151.322277 
L 551.701435 152.74351 
L 557.852221 162.23184 
L 560.927615 162.224662 
L 564.003008 160.397828 
L 567.078402 162.532975 
L 570.153795 165.725582 
L 576.304582 165.746688 
L 579.379975 161.860387 
L 582.455368 164.336873 
L 585.530762 161.07128 
L 588.606155 164.197996 
L 591.681549 165.735413 
L 594.756942 164.204218 
L 597.832335 166.16244 
L 600.907729 164.237133 
L 603.983122 164.511432 
L 607.058515 157.432801 
L 610.133909 165.364768 
L 613.209302 164.592274 
L 616.284696 159.750356 
L 619.360089 157.023353 
L 622.435482 156.844707 
L 625.510876 159.150614 
L 628.586269 154.761182 
L 631.661662 152.382008 
L 634.737056 154.957941 
L 637.812449 154.625349 
L 640.887843 151.301693 
L 643.963236 152.577888 
L 647.038629 144.538243 
L 650.114023 149.376601 
L 653.189416 150.056835 
L 656.264809 139.547172 
L 659.340203 144.367555 
L 662.415596 138.391477 
L 665.49099 138.964784 
L 668.566383 141.224466 
L 671.641776 135.114066 
L 674.71717 132.997978 
L 677.792563 135.097319 
L 680.867956 134.091456 
L 683.94335 130.209433 
L 687.018743 130.62918 
L 690.094137 133.937619 
L 693.16953 131.729961 
L 696.244923 126.917865 
L 699.320317 131.86663 
L 702.39571 132.33959 
L 705.471103 128.851421 
L 708.546497 137.507859 
L 711.62189 135.676179 
L 714.697284 136.058897 
L 717.772677 143.825562 
L 720.84807 144.645486 
L 723.923464 150.560924 
L 726.998857 148.959926 
L 730.07425 150.375018 
L 736.225037 159.563614 
L 739.300431 152.731318 
L 742.375824 160.185755 
L 745.451217 157.833241 
L 748.526611 162.742089 
L 751.602004 160.480496 
L 754.677397 168.03765 
L 757.752791 166.991383 
L 760.828184 165.762957 
L 763.903578 167.570085 
L 766.978971 167.507271 
L 770.054364 165.913008 
L 773.129758 165.118194 
L 776.205151 168.731577 
L 779.280545 163.967078 
L 782.355938 161.646117 
L 785.431331 166.083352 
L 788.506725 164.059897 
L 791.582118 166.420776 
L 794.657511 159.383931 
L 797.732905 158.404813 
L 800.808298 159.829152 
L 803.883692 153.549928 
L 806.959085 157.150712 
L 810.034478 154.093808 
L 813.109872 153.662825 
L 816.185265 152.922964 
L 819.260658 154.526001 
L 822.336052 151.459706 
L 825.411445 148.839818 
L 828.486839 147.213963 
L 831.562232 149.731967 
L 834.637625 145.378642 
L 837.713019 142.174162 
L 840.788412 146.844508 
L 843.863805 136.712898 
L 846.939199 140.382576 
L 850.014592 138.816071 
L 853.089986 134.474862 
L 856.165379 136.834808 
L 859.240772 130.431699 
L 862.316166 133.688053 
L 865.391559 131.89282 
L 868.466952 129.787018 
L 871.542346 127.311986 
L 874.617739 128.89777 
L 877.693133 131.120159 
L 880.768526 132.417264 
L 883.843919 128.752613 
L 886.919313 129.607804 
L 889.994706 136.305844 
L 893.070099 130.626294 
L 896.145493 138.63721 
L 899.220886 138.762705 
L 902.29628 141.532287 
L 905.371673 145.492963 
L 908.447066 146.829626 
L 911.52246 150.71401 
L 914.597853 151.999061 
L 917.673246 152.570212 
L 920.74864 151.102964 
L 923.824033 156.917926 
L 929.97482 159.898844 
L 933.050213 166.499592 
L 936.125607 164.62333 
L 939.201 164.2031 
L 942.276393 169.972224 
L 945.351787 165.547735 
L 948.42718 167.010772 
L 951.502574 164.173836 
L 954.577967 165.933415 
L 957.65336 170.35129 
L 960.728754 166.494941 
L 963.804147 167.096977 
L 966.879541 167.987893 
L 969.954934 166.282396 
L 973.030327 162.499864 
L 976.105721 164.31744 
L 979.181114 165.523661 
L 982.256507 161.829857 
L 985.331901 166.503014 
L 988.407294 163.954939 
L 988.407294 163.954939 
" clip-path="url(#pe5eed6bc8a)" style="fill: none; stroke: #ff7f0e; stroke-width: 1.5; stroke-linecap: square"/>
   </g>
   <g id="line2d_13">
    <path d="M 548.626041 193.380625 
L 548.626041 27.340625 
" clip-path="url(#pe5eed6bc8a)" style="fill: none; stroke-dasharray: 7.4,3.2; stroke-dashoffset: 0; stroke: #0000ff; stroke-width: 2"/>
   </g>
   <g id="patch_3">
    <path d="M 61.6375 193.380625 
L 61.6375 27.340625 
" style="fill: none; stroke: #000000; stroke-width: 0.8; stroke-linejoin: miter; stroke-linecap: square"/>
   </g>
   <g id="patch_4">
    <path d="M 1032.539189 193.380625 
L 1032.539189 27.340625 
" style="fill: none; stroke: #000000; stroke-width: 0.8; stroke-linejoin: miter; stroke-linecap: square"/>
   </g>
   <g id="patch_5">
    <path d="M 61.6375 193.380625 
L 1032.539189 193.380625 
" style="fill: none; stroke: #000000; stroke-width: 0.8; stroke-linejoin: miter; stroke-linecap: square"/>
   </g>
   <g id="patch_6">
    <path d="M 61.6375 27.340625 
L 1032.539189 27.340625 
" style="fill: none; stroke: #000000; stroke-width: 0.8; stroke-linejoin: miter; stroke-linecap: square"/>
   </g>
   <g id="text_12">
    <!-- API_ID: 4 -->
    <g transform="translate(502.088345 21.340625) scale(0.2 -0.2)">
     <defs>
      <path id="SimSun-41" d="M 2025 1700 
L 900 1700 
L 675 750 
Q 650 625 650 550 
Q 650 450 687 350 
Q 725 250 900 250 
L 975 250 
L 975 100 
L 50 100 
L 50 250 
L 125 250 
Q 225 250 300 312 
Q 375 375 400 525 
L 1375 4350 
L 1750 4475 
L 2700 525 
Q 2750 375 2825 312 
Q 2900 250 3000 250 
L 3075 250 
L 3075 100 
L 2000 100 
L 2000 250 
L 2100 250 
Q 2250 250 2275 312 
Q 2300 375 2300 425 
Q 2300 525 2275 600 
L 2025 1700 
z
M 325 250 
L 325 250 
z
M 575 250 
L 575 250 
z
M 2350 250 
L 2350 250 
z
M 2775 250 
L 2775 250 
z
M 1500 3925 
L 1475 3925 
L 950 1850 
L 2000 1850 
L 1500 3925 
z
" transform="scale(0.015625)"/>
      <path id="SimSun-49" d="M 600 4225 
L 600 4375 
L 2600 4375 
L 2600 4225 
L 2025 4225 
Q 1925 4225 1862 4175 
Q 1800 4125 1800 4025 
L 1800 450 
Q 1800 350 1862 300 
Q 1925 250 2025 250 
L 2600 250 
L 2600 100 
L 600 100 
L 600 250 
L 1175 250 
Q 1300 250 1350 300 
Q 1400 350 1400 450 
L 1400 4025 
Q 1400 4125 1350 4175 
Q 1300 4225 1175 4225 
L 600 4225 
z
" transform="scale(0.015625)"/>
      <path id="SimSun-5f" d="M 0 -875 
L 0 -725 
L 3175 -725 
L 3175 -875 
L 0 -875 
z
" transform="scale(0.015625)"/>
      <path id="SimSun-44" d="M 2500 2275 
Q 2500 3350 2175 3787 
Q 1850 4225 1275 4225 
Q 1100 4225 1012 4175 
Q 925 4125 925 4025 
L 925 450 
Q 925 350 1000 300 
Q 1075 250 1200 250 
Q 1750 250 2125 662 
Q 2500 1075 2500 2275 
z
M 525 4025 
Q 525 4125 475 4175 
Q 425 4225 300 4225 
L 150 4225 
L 150 4375 
L 1275 4375 
Q 2050 4375 2512 3875 
Q 2975 3375 2975 2325 
Q 2975 1175 2525 637 
Q 2075 100 1200 100 
L 125 100 
L 125 250 
L 300 250 
Q 425 250 475 300 
Q 525 350 525 450 
L 525 4025 
z
" transform="scale(0.015625)"/>
      <path id="SimSun-3a" d="M 1900 2725 
Q 1900 2575 1800 2475 
Q 1700 2375 1550 2375 
Q 1400 2375 1300 2475 
Q 1200 2575 1200 2725 
Q 1200 2875 1300 2975 
Q 1400 3075 1550 3075 
Q 1700 3075 1800 2975 
Q 1900 2875 1900 2725 
z
M 1900 375 
Q 1900 225 1800 125 
Q 1700 25 1550 25 
Q 1400 25 1300 125 
Q 1200 225 1200 375 
Q 1200 525 1300 625 
Q 1400 725 1550 725 
Q 1700 725 1800 625 
Q 1900 525 1900 375 
z
" transform="scale(0.015625)"/>
      <path id="SimSun-20" d="M 0 0 
Q 0 0 0 0 
z
" transform="scale(0.015625)"/>
      <path id="SimSun-34" d="M 2300 575 
Q 2300 400 2400 325 
Q 2500 250 2675 250 
L 2900 250 
L 2900 100 
L 1250 100 
L 1250 250 
L 1525 250 
Q 1725 250 1812 325 
Q 1900 400 1900 575 
L 1900 1400 
L 225 1400 
L 225 1525 
L 2050 4425 
L 2300 4425 
L 2300 1550 
L 2975 1550 
L 2975 1400 
L 2300 1400 
L 2300 575 
z
M 1875 3800 
L 450 1550 
L 1900 1550 
L 1900 3800 
L 1875 3800 
z
" transform="scale(0.015625)"/>
     </defs>
     <use xlink:href="#SimSun-41"/>
     <use xlink:href="#SimSun-50" x="50"/>
     <use xlink:href="#SimSun-49" x="100"/>
     <use xlink:href="#SimSun-5f" x="150"/>
     <use xlink:href="#SimSun-49" x="200"/>
     <use xlink:href="#SimSun-44" x="250"/>
     <use xlink:href="#SimSun-3a" x="300"/>
     <use xlink:href="#SimSun-20" x="350"/>
     <use xlink:href="#SimSun-34" x="400"/>
    </g>
   </g>
   <g id="legend_1">
    <g id="patch_7">
     <path d="M 75.6375 100.215625 
L 199.6375 100.215625 
Q 203.6375 100.215625 203.6375 96.215625 
L 203.6375 41.340625 
Q 203.6375 37.340625 199.6375 37.340625 
L 75.6375 37.340625 
Q 71.6375 37.340625 71.6375 41.340625 
L 71.6375 96.215625 
Q 71.6375 100.215625 75.6375 100.215625 
z
" style="fill: #ffffff; opacity: 0.8; stroke: #cccccc; stroke-linejoin: miter"/>
    </g>
    <g id="line2d_14">
     <path d="M 79.6375 54.278125 
L 99.6375 54.278125 
L 119.6375 54.278125 
" style="fill: none; stroke: #1f77b4; stroke-width: 1.5; stroke-linecap: square"/>
    </g>
    <g id="text_13">
     <!-- 真实值 -->
     <g transform="translate(135.6375 61.278125) scale(0.2 -0.2)">
      <defs>
       <path id="SimSun-771f" d="M 2050 3450 
L 2050 2900 
L 4300 2900 
L 4300 3450 
L 2050 3450 
z
M 2050 2750 
L 2050 2225 
L 4300 2225 
L 4300 2750 
L 2050 2750 
z
M 2050 2075 
L 2050 1550 
L 4300 1550 
L 4300 2075 
L 2050 2075 
z
M 2050 1400 
L 2050 875 
L 4300 875 
L 4300 1400 
L 2050 1400 
z
M 2875 3600 
L 2925 4325 
L 1525 4325 
Q 1200 4325 925 4250 
L 700 4475 
L 2950 4475 
Q 2975 4825 2975 5275 
L 3550 5025 
L 3375 4925 
L 3300 4475 
L 5000 4475 
L 5325 4825 
L 5775 4325 
L 3275 4325 
L 3200 3600 
L 4275 3600 
L 4450 3875 
L 4850 3575 
L 4650 3375 
L 4650 875 
L 5300 875 
L 5675 1225 
L 6125 725 
L 1150 725 
Q 825 725 550 650 
L 325 875 
L 1700 875 
Q 1700 3200 1675 3775 
L 2050 3600 
L 2875 3600 
z
M 2425 725 
L 2825 350 
L 2575 300 
Q 1500 -425 800 -650 
L 775 -575 
Q 1950 125 2425 725 
z
M 3800 700 
Q 4575 375 4962 200 
Q 5350 25 5400 -112 
Q 5450 -250 5450 -325 
Q 5450 -400 5400 -525 
Q 5350 -650 5325 -650 
Q 5250 -650 5100 -450 
Q 4875 -150 3750 625 
L 3800 700 
z
" transform="scale(0.015625)"/>
       <path id="SimSun-5b9e" d="M 1950 3625 
Q 2575 3400 2700 3250 
Q 2825 3100 2825 2975 
Q 2825 2850 2750 2700 
Q 2675 2550 2625 2550 
Q 2550 2550 2450 2800 
Q 2275 3175 1900 3550 
L 1950 3625 
z
M 3575 1325 
Q 3500 1100 3425 925 
Q 4650 550 5087 325 
Q 5525 100 5512 -225 
Q 5500 -550 5400 -550 
Q 5300 -550 5075 -300 
Q 4625 175 3375 800 
Q 3025 175 2300 -150 
Q 1575 -475 425 -625 
L 425 -525 
Q 1475 -325 2200 100 
Q 2925 525 3200 1325 
L 1225 1325 
Q 900 1325 625 1250 
L 400 1475 
L 3225 1475 
Q 3325 1950 3375 2575 
Q 3425 3200 3425 3700 
L 4050 3400 
L 3850 3225 
Q 3750 2300 3625 1475 
L 5175 1475 
L 5550 1850 
L 6075 1325 
L 3575 1325 
z
M 1275 2700 
Q 1975 2425 2100 2262 
Q 2225 2100 2225 1975 
Q 2225 1850 2150 1700 
Q 2075 1550 2025 1550 
Q 1950 1550 1850 1800 
Q 1675 2175 1225 2625 
L 1275 2700 
z
M 2750 5225 
L 2825 5275 
Q 3225 5100 3425 4925 
Q 3625 4750 3625 4600 
Q 3625 4450 3512 4300 
Q 3400 4150 3325 4150 
Q 3250 4150 3200 4400 
Q 3100 4775 2750 5225 
z
M 4975 3225 
L 5350 3925 
L 1175 3925 
Q 1225 3525 1125 3300 
Q 1025 3075 787 3100 
Q 550 3125 550 3200 
Q 550 3300 700 3475 
Q 975 3825 1050 4375 
L 1150 4375 
L 1175 4075 
L 5300 4075 
L 5575 4350 
L 6050 3800 
Q 5625 3825 5050 3175 
L 4975 3225 
z
" transform="scale(0.015625)"/>
       <path id="SimSun-503c" d="M 1525 650 
Q 1525 -225 1550 -525 
L 1175 -650 
Q 1200 250 1200 550 
L 1200 3025 
Q 750 2300 325 1850 
L 250 1900 
Q 725 2625 1100 3525 
Q 1475 4425 1675 5200 
L 2200 4875 
L 1950 4725 
Q 1550 3800 1425 3475 
L 1725 3300 
L 1525 3150 
L 1525 650 
z
M 2875 3225 
L 2875 2475 
L 4800 2475 
L 4800 3225 
L 2875 3225 
z
M 2875 2325 
L 2875 1575 
L 4800 1575 
L 4800 2325 
L 2875 2325 
z
M 2875 1425 
L 2875 675 
L 4800 675 
L 4800 1425 
L 2875 1425 
z
M 2875 525 
L 2875 -225 
L 4800 -225 
L 4800 525 
L 2875 525 
z
M 3550 4250 
Q 3575 4825 3550 5225 
L 4125 4950 
L 3925 4800 
L 3900 4250 
L 5025 4250 
L 5350 4575 
L 5825 4100 
L 3900 4100 
L 3875 3375 
L 4750 3375 
L 4975 3625 
L 5350 3300 
L 5125 3150 
L 5125 -225 
L 5350 -225 
L 5675 100 
L 6150 -375 
L 2450 -375 
Q 2125 -375 1850 -450 
L 1625 -225 
L 2550 -225 
L 2550 2550 
Q 2550 2850 2525 3575 
L 2875 3375 
L 3525 3375 
L 3550 4100 
L 2800 4100 
Q 2475 4100 2200 4025 
L 1975 4250 
L 3550 4250 
z
" transform="scale(0.015625)"/>
      </defs>
      <use xlink:href="#SimSun-771f"/>
      <use xlink:href="#SimSun-5b9e" x="100"/>
      <use xlink:href="#SimSun-503c" x="200"/>
     </g>
    </g>
    <g id="line2d_15">
     <path d="M 79.6375 82.6375 
L 99.6375 82.6375 
L 119.6375 82.6375 
" style="fill: none; stroke: #ff7f0e; stroke-width: 1.5; stroke-linecap: square"/>
    </g>
    <g id="text_14">
     <!-- 预测值 -->
     <g transform="translate(135.6375 89.6375) scale(0.2 -0.2)">
      <defs>
       <path id="SimSun-9884" d="M 475 4825 
L 2225 4825 
L 2425 5075 
L 2825 4675 
Q 2600 4625 2387 4412 
Q 2175 4200 1800 3750 
Q 2050 3575 2037 3400 
Q 2025 3225 1937 3150 
Q 1850 3075 1825 3075 
Q 1725 3075 1650 3300 
Q 1525 3600 1050 4100 
L 1100 4150 
Q 1475 3975 1700 3825 
L 2225 4675 
L 1300 4675 
Q 975 4675 700 4600 
L 475 4825 
z
M 725 100 
Q 1175 50 1362 37 
Q 1550 25 1550 275 
L 1550 2875 
L 1125 2875 
Q 800 2875 525 2800 
L 300 3025 
L 2525 3025 
L 2725 3275 
L 3150 2875 
Q 2800 2825 2275 2075 
L 2200 2125 
L 2550 2875 
L 1875 2875 
L 1875 150 
Q 1875 -400 1350 -500 
Q 1325 -175 725 0 
L 725 100 
z
M 3250 775 
Q 3275 1425 3275 2287 
Q 3275 3150 3250 3900 
L 3600 3700 
L 4050 3700 
Q 4175 4400 4200 4675 
L 3650 4675 
Q 3325 4675 3050 4600 
L 2825 4825 
L 5325 4825 
L 5675 5150 
L 6125 4675 
L 4675 4675 
Q 4500 4425 4175 3700 
L 5300 3700 
L 5475 3975 
L 5875 3675 
L 5675 3475 
L 5675 1950 
Q 5675 1525 5700 1075 
L 5350 875 
L 5350 3550 
L 3600 3550 
L 3600 1000 
L 3250 775 
z
M 4850 2875 
L 4625 2675 
Q 4625 1475 4475 937 
Q 4325 400 3900 50 
Q 3475 -300 2425 -625 
L 2400 -550 
Q 3500 -50 3837 400 
Q 4175 850 4237 1587 
Q 4300 2325 4275 3175 
L 4850 2875 
z
M 4650 950 
Q 5725 375 5875 212 
Q 6025 50 6025 -125 
Q 6025 -225 5962 -387 
Q 5900 -550 5850 -550 
Q 5800 -550 5750 -450 
Q 5625 -250 5437 0 
Q 5250 250 4600 875 
L 4650 950 
z
" transform="scale(0.015625)"/>
       <path id="SimSun-6d4b" d="M 1975 1000 
Q 2000 1475 2000 2925 
Q 2000 4375 1975 5000 
L 2350 4775 
L 3575 4775 
L 3775 4975 
L 4100 4650 
L 3900 4500 
L 3900 2350 
Q 3900 1850 3925 1350 
L 3600 1200 
L 3600 4625 
L 2325 4625 
L 2325 1150 
L 1975 1000 
z
M 2775 3975 
L 3300 3700 
L 3125 3525 
Q 3150 1825 2875 937 
Q 2600 50 1375 -600 
L 1325 -500 
Q 2200 100 2475 725 
Q 2750 1350 2775 2187 
Q 2800 3025 2775 3975 
z
M 3100 950 
Q 3825 450 3937 262 
Q 4050 75 4050 -25 
Q 4050 -150 3975 -262 
Q 3900 -375 3850 -375 
Q 3750 -375 3650 -75 
Q 3500 375 3050 875 
L 3100 950 
z
M 4475 825 
Q 4500 1200 4500 1700 
L 4500 3400 
Q 4500 3950 4475 4300 
L 5025 4025 
L 4825 3825 
L 4825 1700 
Q 4825 1325 4850 950 
L 4475 825 
z
M 5375 150 
L 5375 4050 
Q 5375 4750 5350 5125 
L 5875 4875 
L 5700 4700 
L 5700 75 
Q 5700 -200 5600 -350 
Q 5500 -500 5200 -600 
Q 5025 -225 4450 -50 
L 4450 50 
Q 5125 -50 5250 -37 
Q 5375 -25 5375 150 
z
M 1850 3500 
Q 1375 1525 1300 1225 
Q 1200 900 1212 450 
Q 1225 0 1250 -175 
Q 1250 -275 1125 -275 
Q 1025 -275 875 -225 
Q 725 -175 725 0 
Q 725 125 800 375 
Q 875 625 875 775 
Q 875 950 762 1050 
Q 650 1150 275 1250 
L 275 1350 
Q 725 1300 837 1312 
Q 950 1325 1087 1537 
Q 1225 1750 1750 3525 
L 1850 3500 
z
M 375 3775 
Q 1075 3350 1112 3100 
Q 1150 2850 1050 2775 
Q 950 2700 900 2700 
Q 800 2700 725 2975 
Q 600 3350 325 3700 
L 375 3775 
z
M 800 5100 
Q 1475 4725 1550 4512 
Q 1625 4300 1525 4187 
Q 1425 4075 1350 4075 
Q 1275 4075 1200 4300 
Q 1075 4650 750 5025 
L 800 5100 
z
" transform="scale(0.015625)"/>
      </defs>
      <use xlink:href="#SimSun-9884"/>
      <use xlink:href="#SimSun-6d4b" x="100"/>
      <use xlink:href="#SimSun-503c" x="200"/>
     </g>
    </g>
   </g>
  </g>
  <g id="axes_2">
   <g id="patch_8">
    <path d="M 61.6375 426.180625 
L 1032.539189 426.180625 
L 1032.539189 260.140625 
L 61.6375 260.140625 
z
" style="fill: #ffffff"/>
   </g>
   <g id="matplotlib.axis_3">
    <g id="xtick_8">
     <g id="line2d_16">
      <g>
       <use xlink:href="#med917ec1d3" x="105.769395" y="426.180625" style="stroke: #000000; stroke-width: 0.8"/>
      </g>
     </g>
     <g id="text_15">
      <!-- 0 -->
      <g transform="translate(100.769395 447.068125) scale(0.2 -0.2)">
       <use xlink:href="#TimesNewRomanPSMT-30"/>
      </g>
     </g>
    </g>
    <g id="xtick_9">
     <g id="line2d_17">
      <g>
       <use xlink:href="#med917ec1d3" x="259.539064" y="426.180625" style="stroke: #000000; stroke-width: 0.8"/>
      </g>
     </g>
     <g id="text_16">
      <!-- 50 -->
      <g transform="translate(249.539064 447.068125) scale(0.2 -0.2)">
       <use xlink:href="#TimesNewRomanPSMT-35"/>
       <use xlink:href="#TimesNewRomanPSMT-30" x="50"/>
      </g>
     </g>
    </g>
    <g id="xtick_10">
     <g id="line2d_18">
      <g>
       <use xlink:href="#med917ec1d3" x="413.308733" y="426.180625" style="stroke: #000000; stroke-width: 0.8"/>
      </g>
     </g>
     <g id="text_17">
      <!-- 100 -->
      <g transform="translate(398.308733 447.068125) scale(0.2 -0.2)">
       <use xlink:href="#TimesNewRomanPSMT-31"/>
       <use xlink:href="#TimesNewRomanPSMT-30" x="50"/>
       <use xlink:href="#TimesNewRomanPSMT-30" x="100"/>
      </g>
     </g>
    </g>
    <g id="xtick_11">
     <g id="line2d_19">
      <g>
       <use xlink:href="#med917ec1d3" x="567.078402" y="426.180625" style="stroke: #000000; stroke-width: 0.8"/>
      </g>
     </g>
     <g id="text_18">
      <!-- 150 -->
      <g transform="translate(552.078402 447.068125) scale(0.2 -0.2)">
       <use xlink:href="#TimesNewRomanPSMT-31"/>
       <use xlink:href="#TimesNewRomanPSMT-35" x="50"/>
       <use xlink:href="#TimesNewRomanPSMT-30" x="100"/>
      </g>
     </g>
    </g>
    <g id="xtick_12">
     <g id="line2d_20">
      <g>
       <use xlink:href="#med917ec1d3" x="720.84807" y="426.180625" style="stroke: #000000; stroke-width: 0.8"/>
      </g>
     </g>
     <g id="text_19">
      <!-- 200 -->
      <g transform="translate(705.84807 447.068125) scale(0.2 -0.2)">
       <use xlink:href="#TimesNewRomanPSMT-32"/>
       <use xlink:href="#TimesNewRomanPSMT-30" x="50"/>
       <use xlink:href="#TimesNewRomanPSMT-30" x="100"/>
      </g>
     </g>
    </g>
    <g id="xtick_13">
     <g id="line2d_21">
      <g>
       <use xlink:href="#med917ec1d3" x="874.617739" y="426.180625" style="stroke: #000000; stroke-width: 0.8"/>
      </g>
     </g>
     <g id="text_20">
      <!-- 250 -->
      <g transform="translate(859.617739 447.068125) scale(0.2 -0.2)">
       <use xlink:href="#TimesNewRomanPSMT-32"/>
       <use xlink:href="#TimesNewRomanPSMT-35" x="50"/>
       <use xlink:href="#TimesNewRomanPSMT-30" x="100"/>
      </g>
     </g>
    </g>
    <g id="xtick_14">
     <g id="line2d_22">
      <g>
       <use xlink:href="#med917ec1d3" x="1028.387408" y="426.180625" style="stroke: #000000; stroke-width: 0.8"/>
      </g>
     </g>
     <g id="text_21">
      <!-- 300 -->
      <g transform="translate(1013.387408 447.068125) scale(0.2 -0.2)">
       <use xlink:href="#TimesNewRomanPSMT-33"/>
       <use xlink:href="#TimesNewRomanPSMT-30" x="50"/>
       <use xlink:href="#TimesNewRomanPSMT-30" x="100"/>
      </g>
     </g>
    </g>
   </g>
   <g id="matplotlib.axis_4">
    <g id="ytick_4">
     <g id="line2d_23">
      <g>
       <use xlink:href="#m8a644a55d1" x="61.6375" y="362.285516" style="stroke: #000000; stroke-width: 0.8"/>
      </g>
     </g>
     <g id="text_22">
      <!-- 20 -->
      <g transform="translate(34.6375 369.229266) scale(0.2 -0.2)">
       <use xlink:href="#TimesNewRomanPSMT-32"/>
       <use xlink:href="#TimesNewRomanPSMT-30" x="50"/>
      </g>
     </g>
    </g>
    <g id="ytick_5">
     <g id="line2d_24">
      <g>
       <use xlink:href="#m8a644a55d1" x="61.6375" y="298.108026" style="stroke: #000000; stroke-width: 0.8"/>
      </g>
     </g>
     <g id="text_23">
      <!-- 40 -->
      <g transform="translate(34.6375 305.051776) scale(0.2 -0.2)">
       <defs>
        <path id="TimesNewRomanPSMT-34" d="M 2978 1563 
L 2978 1119 
L 2409 1119 
L 2409 0 
L 1894 0 
L 1894 1119 
L 100 1119 
L 100 1519 
L 2066 4325 
L 2409 4325 
L 2409 1563 
L 2978 1563 
z
M 1894 1563 
L 1894 3666 
L 406 1563 
L 1894 1563 
z
" transform="scale(0.015625)"/>
       </defs>
       <use xlink:href="#TimesNewRomanPSMT-34"/>
       <use xlink:href="#TimesNewRomanPSMT-30" x="50"/>
      </g>
     </g>
    </g>
    <g id="text_24">
     <!-- CPU使用率 -->
     <g transform="translate(28.059375 388.160625) rotate(-90) scale(0.2 -0.2)">
      <use xlink:href="#SimSun-43"/>
      <use xlink:href="#SimSun-50" x="50"/>
      <use xlink:href="#SimSun-55" x="100"/>
      <use xlink:href="#SimSun-4f7f" x="150"/>
      <use xlink:href="#SimSun-7528" x="250"/>
      <use xlink:href="#SimSun-7387" x="350"/>
     </g>
    </g>
   </g>
   <g id="line2d_25">
    <path d="M 105.769395 310.462188 
L 108.844788 309.082371 
L 111.920182 306.804073 
L 114.995575 332.956399 
L 118.070968 349.225392 
L 121.146362 363.761596 
L 124.221755 387.090118 
L 127.297149 385.934921 
L 130.372542 383.720799 
L 133.447935 381.025344 
L 136.523329 354.006614 
L 139.598722 346.915005 
L 142.674115 351.407434 
L 145.749509 364.852613 
L 148.824902 361.964628 
L 151.900296 357.311757 
L 154.975689 369.441305 
L 158.051082 369.056237 
L 161.126476 372.104671 
L 164.201869 346.337406 
L 167.277262 352.690982 
L 170.352656 339.855484 
L 173.428049 357.472198 
L 176.503443 347.043356 
L 179.578836 348.262732 
L 185.729623 368.414466 
L 188.805016 376.565007 
L 191.88041 385.485677 
L 194.955803 385.100616 
L 198.031196 380.12686 
L 201.10659 371.20619 
L 204.181983 357.119226 
L 207.257376 356.477455 
L 210.33277 357.793087 
L 213.408163 376.083677 
L 216.483557 393.251157 
L 219.55895 398.609975 
L 222.634343 398.096555 
L 225.709737 404.257594 
L 228.78513 412.151426 
L 231.860523 403.262844 
L 234.935917 410.065657 
L 238.01131 405.41279 
L 241.086704 398.289089 
L 244.162097 389.913925 
L 247.23749 388.951262 
L 250.312884 385.228971 
L 253.388277 381.795473 
L 256.46367 373.644929 
L 259.539064 375.987412 
L 262.614457 361.09823 
L 265.689851 364.916792 
L 271.840637 333.245198 
L 274.916031 336.550341 
L 277.991424 338.186868 
L 281.066817 359.846771 
L 284.142211 346.626205 
L 287.217604 330.389302 
L 290.292998 351.150718 
L 293.368391 351.920847 
L 296.443784 365.109323 
L 299.519178 350.861925 
L 302.594571 346.947094 
L 305.669964 364.242926 
L 308.745358 366.48914 
L 311.820751 351.535786 
L 314.896145 363.344445 
L 317.971538 348.359001 
L 321.046931 356.92669 
L 324.122325 353.204396 
L 327.197718 349.706728 
L 330.273111 351.182807 
L 333.348505 339.085349 
L 336.423898 315.403858 
L 339.499292 301.926595 
L 342.574685 300.033359 
L 345.650078 313.510622 
L 348.725472 280.138334 
L 351.800865 284.309869 
L 354.876258 312.066626 
L 357.951652 319.511226 
L 361.027045 356.958785 
L 364.102439 354.808839 
L 367.177832 372.971068 
L 370.253225 359.622151 
L 373.328619 367.355538 
L 376.404012 369.633836 
L 379.479406 364.371284 
L 382.554799 371.334541 
L 385.630192 376.436655 
L 388.705586 385.421502 
L 391.780979 401.112897 
L 394.856372 408.974641 
L 397.931766 400.086057 
L 401.007159 387.603537 
L 404.082553 363.697417 
L 407.157946 371.013653 
L 410.233339 382.69396 
L 413.308733 369.280864 
L 416.384126 357.761004 
L 419.459519 352.017116 
L 422.534913 347.524692 
L 425.610306 350.09179 
L 428.6857 361.001968 
L 431.761093 350.412678 
L 434.836486 349.931348 
L 437.91188 349.674639 
L 440.987273 346.369496 
L 444.062666 351.118628 
L 447.13806 366.328693 
L 450.213453 365.911542 
L 453.288847 375.313548 
L 456.36424 363.986222 
L 459.439633 364.756351 
L 462.515027 365.109323 
L 465.59042 346.048607 
L 468.665813 344.540438 
L 474.8166 375.506079 
L 477.891994 373.709108 
L 480.967387 376.019498 
L 484.04278 372.36138 
L 487.118174 370.532323 
L 490.193567 337.513001 
L 493.26896 301.766141 
L 496.344354 299.937084 
L 499.419747 286.203105 
L 502.495141 285.721781 
L 505.570534 274.2661 
L 508.645927 279.785356 
L 511.721321 311.392777 
L 514.796714 307.95927 
L 517.872107 309.467445 
L 520.947501 342.294224 
L 524.022894 342.647202 
L 527.098288 336.421984 
L 530.173681 336.518252 
L 536.324468 287.647101 
L 539.399861 310.52638 
L 542.475254 318.773174 
L 545.550648 314.858355 
L 548.626041 356.220739 
L 551.701435 383.303645 
L 554.776828 395.272745 
L 557.852221 401.241252 
L 560.927615 409.038818 
L 564.003008 409.712682 
L 567.078402 410.065657 
L 570.153795 415.071502 
L 573.229188 412.729023 
L 576.304582 411.573829 
L 579.379975 415.809542 
L 582.455368 411.509652 
L 585.530762 410.964143 
L 588.606155 407.498558 
L 591.681549 412.151426 
L 594.756942 403.262844 
L 597.832335 408.46122 
L 600.907729 414.237195 
L 603.983122 409.135084 
L 607.058515 404.963548 
L 610.133909 412.504402 
L 613.209302 408.2366 
L 616.284696 406.118741 
L 619.360089 397.037627 
L 622.435482 389.30424 
L 625.510876 385.421502 
L 628.586269 385.068526 
L 631.661662 368.863707 
L 634.737056 370.403965 
L 637.812449 348.679883 
L 640.887843 368.318198 
L 643.963236 344.444176 
L 647.038629 348.551531 
L 650.114023 349.000772 
L 653.189416 336.3899 
L 656.264809 344.540438 
L 659.340203 351.792495 
L 662.415596 365.07724 
L 665.49099 363.665333 
L 668.566383 379.035842 
L 671.641776 373.869555 
L 674.71717 368.061488 
L 677.792563 347.524692 
L 680.867956 326.025231 
L 683.94335 324.90213 
L 687.018743 297.081188 
L 690.094137 299.199044 
L 693.16953 311.489039 
L 696.244923 306.386916 
L 699.320317 318.29185 
L 702.39571 308.215986 
L 705.471103 285.497161 
L 708.546497 269.356514 
L 711.62189 267.687898 
L 714.697284 306.964527 
L 717.772677 297.722965 
L 720.84807 301.124376 
L 723.923464 302.825076 
L 726.998857 310.077127 
L 730.07425 320.153003 
L 733.149644 333.18102 
L 736.225037 315.660574 
L 739.300431 318.099325 
L 742.375824 330.581833 
L 745.451217 323.971559 
L 748.526611 330.293034 
L 751.602004 355.899851 
L 754.677397 365.526474 
L 757.752791 378.329892 
L 760.828184 399.187573 
L 763.903578 401.594229 
L 766.978971 404.418039 
L 770.054364 410.611166 
L 773.129758 415.328212 
L 776.205151 411.28503 
L 779.280545 412.440225 
L 782.355938 414.654349 
L 785.431331 415.745366 
L 788.506725 414.686437 
L 791.582118 415.745366 
L 794.657511 416.290874 
L 797.732905 413.370799 
L 800.808298 415.103591 
L 803.883692 414.365549 
L 806.959085 410.77161 
L 810.034478 400.984543 
L 813.109872 405.701589 
L 816.185265 409.648505 
L 819.260658 406.824695 
L 822.336052 410.226101 
L 825.411445 411.926804 
L 828.486839 399.957702 
L 831.562232 401.979293 
L 834.637625 398.160734 
L 837.713019 401.080809 
L 840.788412 397.74358 
L 843.863805 391.229566 
L 846.939199 381.570853 
L 850.014592 365.526474 
L 853.089986 362.285516 
L 856.165379 339.823389 
L 859.240772 351.054449 
L 862.316166 361.483298 
L 865.391559 349.064951 
L 868.466952 352.466356 
L 871.542346 368.606997 
L 874.617739 359.012463 
L 877.693133 379.902237 
L 880.768526 372.714358 
L 883.843919 385.132702 
L 886.919313 370.500233 
L 889.994706 355.161811 
L 893.070099 321.821607 
L 896.145493 309.980865 
L 899.220886 313.671075 
L 902.29628 301.060197 
L 905.371673 296.375231 
L 908.447066 281.197269 
L 911.52246 304.108618 
L 914.597853 277.025722 
L 917.673246 290.791797 
L 920.74864 316.912033 
L 923.824033 326.763271 
L 926.899427 349.32166 
L 929.97482 336.550341 
L 933.050213 339.791305 
L 936.125607 328.592328 
L 939.201 329.394547 
L 942.276393 321.75744 
L 945.351787 342.037514 
L 948.42718 348.936593 
L 951.502574 360.424369 
L 954.577967 369.377126 
L 957.65336 364.242926 
L 960.728754 384.105864 
L 963.804147 400.471122 
L 966.879541 403.840442 
L 969.954934 410.354456 
L 973.030327 410.386546 
L 976.105721 411.990982 
L 979.181114 414.429727 
L 982.256507 417.221447 
L 985.331901 418.633352 
L 988.407294 417.734868 
L 988.407294 417.734868 
" clip-path="url(#p7903bc3d16)" style="fill: none; stroke: #1f77b4; stroke-width: 1.5; stroke-linecap: square"/>
   </g>
   <g id="line2d_26">
    <path d="M 548.626041 322.251874 
L 551.701435 329.297262 
L 554.776828 338.50313 
L 557.852221 346.657346 
L 560.927615 355.981577 
L 564.003008 359.467756 
L 567.078402 368.967283 
L 570.153795 376.097008 
L 573.229188 382.757031 
L 576.304582 375.888472 
L 579.379975 397.85634 
L 582.455368 396.198566 
L 585.530762 393.385954 
L 588.606155 393.132629 
L 591.681549 398.095833 
L 594.756942 403.481812 
L 597.832335 395.526548 
L 600.907729 399.6993 
L 603.983122 390.644207 
L 607.058515 394.936369 
L 610.133909 394.717138 
L 613.209302 392.059103 
L 616.284696 381.011646 
L 619.360089 371.345601 
L 622.435482 372.660425 
L 625.510876 367.693857 
L 628.586269 371.99927 
L 631.661662 362.838143 
L 634.737056 356.059741 
L 637.812449 360.901629 
L 640.887843 359.573634 
L 643.963236 357.122954 
L 647.038629 349.962881 
L 650.114023 347.624927 
L 653.189416 352.732913 
L 656.264809 340.130017 
L 659.340203 349.604988 
L 662.415596 346.772123 
L 665.49099 341.97421 
L 668.566383 338.768304 
L 671.641776 340.627609 
L 674.71717 337.05111 
L 677.792563 333.08013 
L 680.867956 327.319239 
L 683.94335 342.14486 
L 687.018743 327.658355 
L 690.094137 326.086301 
L 693.16953 326.333622 
L 696.244923 324.45647 
L 699.320317 320.795478 
L 702.39571 323.563167 
L 705.471103 316.137124 
L 708.546497 320.752598 
L 711.62189 317.013657 
L 714.697284 314.748763 
L 717.772677 318.021118 
L 720.84807 320.192737 
L 723.923464 324.120653 
L 726.998857 334.645146 
L 730.07425 323.406373 
L 733.149644 330.282243 
L 736.225037 338.06542 
L 739.300431 346.584042 
L 742.375824 346.48254 
L 745.451217 353.290455 
L 748.526611 361.854845 
L 751.602004 364.645902 
L 754.677397 375.279659 
L 757.752791 379.00741 
L 760.828184 382.397905 
L 763.903578 388.006097 
L 766.978971 380.620357 
L 770.054364 397.524637 
L 773.129758 398.765458 
L 776.205151 403.799412 
L 779.280545 396.023323 
L 782.355938 391.410676 
L 785.431331 394.818174 
L 788.506725 393.558415 
L 791.582118 395.045704 
L 794.657511 384.706515 
L 797.732905 391.412197 
L 803.883692 378.895675 
L 806.959085 377.986073 
L 810.034478 372.659862 
L 813.109872 370.342546 
L 816.185265 357.797635 
L 819.260658 362.634118 
L 822.336052 356.964942 
L 825.411445 357.764137 
L 828.486839 346.942394 
L 831.562232 349.640413 
L 834.637625 342.943235 
L 837.713019 343.970356 
L 840.788412 338.882677 
L 843.863805 330.896571 
L 846.939199 334.012512 
L 850.014592 333.76393 
L 853.089986 331.638117 
L 856.165379 328.626621 
L 859.240772 332.240748 
L 862.316166 328.789272 
L 865.391559 326.522107 
L 868.466952 329.474559 
L 871.542346 331.894166 
L 874.617739 319.369648 
L 877.693133 320.822065 
L 880.768526 319.631333 
L 883.843919 316.899523 
L 886.919313 325.556295 
L 889.994706 319.461393 
L 893.070099 310.50994 
L 896.145493 317.887093 
L 899.220886 319.805533 
L 902.29628 317.321307 
L 905.371673 322.708337 
L 908.447066 322.183888 
L 911.52246 326.949718 
L 914.597853 327.114149 
L 917.673246 337.449159 
L 920.74864 342.522363 
L 923.824033 339.723001 
L 926.899427 349.099617 
L 929.97482 352.449831 
L 933.050213 355.203669 
L 936.125607 370.238303 
L 939.201 373.658541 
L 942.276393 379.931404 
L 945.351787 379.280678 
L 948.42718 381.563674 
L 951.502574 382.401899 
L 954.577967 398.098342 
L 957.65336 390.017994 
L 960.728754 392.654044 
L 966.879541 393.09907 
L 969.954934 387.144623 
L 973.030327 392.300867 
L 976.105721 399.992843 
L 979.181114 390.169279 
L 982.256507 390.507782 
L 985.331901 387.259675 
L 988.407294 377.279973 
L 988.407294 377.279973 
" clip-path="url(#p7903bc3d16)" style="fill: none; stroke: #ff7f0e; stroke-width: 1.5; stroke-linecap: square"/>
   </g>
   <g id="line2d_27">
    <path d="M 548.626041 426.180625 
L 548.626041 260.140625 
" clip-path="url(#p7903bc3d16)" style="fill: none; stroke-dasharray: 7.4,3.2; stroke-dashoffset: 0; stroke: #0000ff; stroke-width: 2"/>
   </g>
   <g id="patch_9">
    <path d="M 61.6375 426.180625 
L 61.6375 260.140625 
" style="fill: none; stroke: #000000; stroke-width: 0.8; stroke-linejoin: miter; stroke-linecap: square"/>
   </g>
   <g id="patch_10">
    <path d="M 1032.539189 426.180625 
L 1032.539189 260.140625 
" style="fill: none; stroke: #000000; stroke-width: 0.8; stroke-linejoin: miter; stroke-linecap: square"/>
   </g>
   <g id="patch_11">
    <path d="M 61.6375 426.180625 
L 1032.539189 426.180625 
" style="fill: none; stroke: #000000; stroke-width: 0.8; stroke-linejoin: miter; stroke-linecap: square"/>
   </g>
   <g id="patch_12">
    <path d="M 61.6375 260.140625 
L 1032.539189 260.140625 
" style="fill: none; stroke: #000000; stroke-width: 0.8; stroke-linejoin: miter; stroke-linecap: square"/>
   </g>
   <g id="text_25">
    <!-- API_ID: 5 -->
    <g transform="translate(502.088345 254.140625) scale(0.2 -0.2)">
     <defs>
      <path id="SimSun-35" d="M 1725 2850 
Q 2200 2850 2500 2487 
Q 2800 2125 2800 1525 
Q 2800 850 2487 450 
Q 2175 50 1525 50 
Q 1075 50 725 312 
Q 375 575 375 950 
Q 375 1100 462 1212 
Q 550 1325 700 1325 
Q 850 1325 900 1225 
Q 950 1125 950 1050 
Q 950 900 875 825 
Q 800 725 800 625 
Q 800 425 1037 325 
Q 1275 225 1550 225 
Q 1950 225 2162 550 
Q 2375 875 2375 1475 
Q 2375 1975 2187 2287 
Q 2000 2600 1625 2600 
Q 1350 2600 1150 2500 
Q 950 2400 775 2075 
L 550 2100 
L 675 4375 
L 2725 4375 
L 2650 4000 
L 850 4000 
L 750 2350 
Q 1000 2700 1237 2775 
Q 1475 2850 1725 2850 
z
" transform="scale(0.015625)"/>
     </defs>
     <use xlink:href="#SimSun-41"/>
     <use xlink:href="#SimSun-50" x="50"/>
     <use xlink:href="#SimSun-49" x="100"/>
     <use xlink:href="#SimSun-5f" x="150"/>
     <use xlink:href="#SimSun-49" x="200"/>
     <use xlink:href="#SimSun-44" x="250"/>
     <use xlink:href="#SimSun-3a" x="300"/>
     <use xlink:href="#SimSun-20" x="350"/>
     <use xlink:href="#SimSun-35" x="400"/>
    </g>
   </g>
  </g>
  <g id="axes_3">
   <g id="patch_13">
    <path d="M 61.6375 658.980625 
L 1032.539189 658.980625 
L 1032.539189 492.940625 
L 61.6375 492.940625 
z
" style="fill: #ffffff"/>
   </g>
   <g id="matplotlib.axis_5">
    <g id="xtick_15">
     <g id="line2d_28">
      <g>
       <use xlink:href="#med917ec1d3" x="105.769395" y="658.980625" style="stroke: #000000; stroke-width: 0.8"/>
      </g>
     </g>
     <g id="text_26">
      <!-- 0 -->
      <g transform="translate(100.769395 679.868125) scale(0.2 -0.2)">
       <use xlink:href="#TimesNewRomanPSMT-30"/>
      </g>
     </g>
    </g>
    <g id="xtick_16">
     <g id="line2d_29">
      <g>
       <use xlink:href="#med917ec1d3" x="259.539064" y="658.980625" style="stroke: #000000; stroke-width: 0.8"/>
      </g>
     </g>
     <g id="text_27">
      <!-- 50 -->
      <g transform="translate(249.539064 679.868125) scale(0.2 -0.2)">
       <use xlink:href="#TimesNewRomanPSMT-35"/>
       <use xlink:href="#TimesNewRomanPSMT-30" x="50"/>
      </g>
     </g>
    </g>
    <g id="xtick_17">
     <g id="line2d_30">
      <g>
       <use xlink:href="#med917ec1d3" x="413.308733" y="658.980625" style="stroke: #000000; stroke-width: 0.8"/>
      </g>
     </g>
     <g id="text_28">
      <!-- 100 -->
      <g transform="translate(398.308733 679.868125) scale(0.2 -0.2)">
       <use xlink:href="#TimesNewRomanPSMT-31"/>
       <use xlink:href="#TimesNewRomanPSMT-30" x="50"/>
       <use xlink:href="#TimesNewRomanPSMT-30" x="100"/>
      </g>
     </g>
    </g>
    <g id="xtick_18">
     <g id="line2d_31">
      <g>
       <use xlink:href="#med917ec1d3" x="567.078402" y="658.980625" style="stroke: #000000; stroke-width: 0.8"/>
      </g>
     </g>
     <g id="text_29">
      <!-- 150 -->
      <g transform="translate(552.078402 679.868125) scale(0.2 -0.2)">
       <use xlink:href="#TimesNewRomanPSMT-31"/>
       <use xlink:href="#TimesNewRomanPSMT-35" x="50"/>
       <use xlink:href="#TimesNewRomanPSMT-30" x="100"/>
      </g>
     </g>
    </g>
    <g id="xtick_19">
     <g id="line2d_32">
      <g>
       <use xlink:href="#med917ec1d3" x="720.84807" y="658.980625" style="stroke: #000000; stroke-width: 0.8"/>
      </g>
     </g>
     <g id="text_30">
      <!-- 200 -->
      <g transform="translate(705.84807 679.868125) scale(0.2 -0.2)">
       <use xlink:href="#TimesNewRomanPSMT-32"/>
       <use xlink:href="#TimesNewRomanPSMT-30" x="50"/>
       <use xlink:href="#TimesNewRomanPSMT-30" x="100"/>
      </g>
     </g>
    </g>
    <g id="xtick_20">
     <g id="line2d_33">
      <g>
       <use xlink:href="#med917ec1d3" x="874.617739" y="658.980625" style="stroke: #000000; stroke-width: 0.8"/>
      </g>
     </g>
     <g id="text_31">
      <!-- 250 -->
      <g transform="translate(859.617739 679.868125) scale(0.2 -0.2)">
       <use xlink:href="#TimesNewRomanPSMT-32"/>
       <use xlink:href="#TimesNewRomanPSMT-35" x="50"/>
       <use xlink:href="#TimesNewRomanPSMT-30" x="100"/>
      </g>
     </g>
    </g>
    <g id="xtick_21">
     <g id="line2d_34">
      <g>
       <use xlink:href="#med917ec1d3" x="1028.387408" y="658.980625" style="stroke: #000000; stroke-width: 0.8"/>
      </g>
     </g>
     <g id="text_32">
      <!-- 300 -->
      <g transform="translate(1013.387408 679.868125) scale(0.2 -0.2)">
       <use xlink:href="#TimesNewRomanPSMT-33"/>
       <use xlink:href="#TimesNewRomanPSMT-30" x="50"/>
       <use xlink:href="#TimesNewRomanPSMT-30" x="100"/>
      </g>
     </g>
    </g>
   </g>
   <g id="matplotlib.axis_6">
    <g id="ytick_6">
     <g id="line2d_35">
      <g>
       <use xlink:href="#m8a644a55d1" x="61.6375" y="654.28138" style="stroke: #000000; stroke-width: 0.8"/>
      </g>
     </g>
     <g id="text_33">
      <!-- 0 -->
      <g transform="translate(44.6375 661.22513) scale(0.2 -0.2)">
       <use xlink:href="#TimesNewRomanPSMT-30"/>
      </g>
     </g>
    </g>
    <g id="ytick_7">
     <g id="line2d_36">
      <g>
       <use xlink:href="#m8a644a55d1" x="61.6375" y="597.320831" style="stroke: #000000; stroke-width: 0.8"/>
      </g>
     </g>
     <g id="text_34">
      <!-- 20 -->
      <g transform="translate(34.6375 604.264581) scale(0.2 -0.2)">
       <use xlink:href="#TimesNewRomanPSMT-32"/>
       <use xlink:href="#TimesNewRomanPSMT-30" x="50"/>
      </g>
     </g>
    </g>
    <g id="ytick_8">
     <g id="line2d_37">
      <g>
       <use xlink:href="#m8a644a55d1" x="61.6375" y="540.360282" style="stroke: #000000; stroke-width: 0.8"/>
      </g>
     </g>
     <g id="text_35">
      <!-- 40 -->
      <g transform="translate(34.6375 547.304032) scale(0.2 -0.2)">
       <use xlink:href="#TimesNewRomanPSMT-34"/>
       <use xlink:href="#TimesNewRomanPSMT-30" x="50"/>
      </g>
     </g>
    </g>
    <g id="text_36">
     <!-- CPU使用率 -->
     <g transform="translate(28.059375 620.960625) rotate(-90) scale(0.2 -0.2)">
      <use xlink:href="#SimSun-43"/>
      <use xlink:href="#SimSun-50" x="50"/>
      <use xlink:href="#SimSun-55" x="100"/>
      <use xlink:href="#SimSun-4f7f" x="150"/>
      <use xlink:href="#SimSun-7528" x="250"/>
      <use xlink:href="#SimSun-7387" x="350"/>
     </g>
    </g>
   </g>
   <g id="line2d_38">
    <path d="M 105.769395 605.864914 
L 108.844788 583.080689 
L 111.920182 580.232667 
L 114.995575 583.080689 
L 118.070968 594.472804 
L 121.146362 557.448447 
L 124.221755 580.232667 
L 127.297149 625.801106 
L 130.372542 617.257023 
L 139.598722 617.257023 
L 142.674115 605.864914 
L 145.749509 625.801106 
L 148.824902 597.320831 
L 151.900296 620.105051 
L 154.975689 597.320831 
L 158.051082 628.649133 
L 161.126476 628.649133 
L 164.201869 640.041243 
L 167.277262 637.193216 
L 170.352656 640.041243 
L 173.428049 640.041243 
L 176.503443 648.585325 
L 179.578836 645.737298 
L 182.654229 634.345188 
L 185.729623 620.105051 
L 188.805016 577.384634 
L 191.88041 591.624776 
L 194.955803 534.664227 
L 198.031196 537.512266 
L 201.10659 500.487898 
L 204.181983 543.20831 
L 207.257376 554.600419 
L 210.33277 511.880008 
L 213.408163 568.840557 
L 216.483557 546.056348 
L 219.55895 537.512266 
L 222.634343 577.384634 
L 225.709737 557.448447 
L 228.78513 614.408996 
L 231.860523 574.536612 
L 234.935917 560.296474 
L 238.01131 560.296474 
L 241.086704 548.904364 
L 244.162097 585.928721 
L 247.23749 557.448447 
L 250.312884 568.840557 
L 253.388277 526.120156 
L 256.46367 640.041243 
L 259.539064 600.168859 
L 262.614457 648.585325 
L 265.689851 640.041243 
L 268.765244 651.433352 
L 271.840637 645.737298 
L 274.916031 628.649133 
L 277.991424 631.497161 
L 281.066817 640.041243 
L 284.142211 622.953078 
L 287.217604 637.193216 
L 290.292998 591.624776 
L 293.368391 611.560971 
L 296.443784 617.257023 
L 299.519178 611.560971 
L 302.594571 594.472804 
L 305.669964 603.016886 
L 308.745358 583.080689 
L 311.820751 585.928721 
L 314.896145 591.624776 
L 317.971538 565.992529 
L 321.046931 597.320831 
L 324.122325 588.776743 
L 327.197718 603.016886 
L 330.273111 603.016886 
L 333.348505 640.041243 
L 336.423898 600.168859 
L 339.499292 600.168859 
L 342.574685 603.016886 
L 345.650078 617.257023 
L 348.725472 585.928721 
L 351.800865 605.864914 
L 354.876258 585.928721 
L 357.951652 614.408996 
L 361.027045 648.585325 
L 364.102439 625.801106 
L 367.177832 640.041243 
L 370.253225 645.737298 
L 373.328619 640.041243 
L 376.404012 648.585325 
L 379.479406 628.649133 
L 382.554799 637.193216 
L 385.630192 620.105051 
L 388.705586 651.433352 
L 391.780979 631.497161 
L 394.856372 563.144502 
L 397.931766 554.600419 
L 401.007159 588.776743 
L 404.082553 571.688579 
L 407.157946 520.42409 
L 410.233339 543.20831 
L 413.308733 517.576073 
L 416.384126 520.42409 
L 419.459519 520.42409 
L 422.534913 540.360282 
L 425.610306 546.056348 
L 428.6857 531.8162 
L 431.761093 520.42409 
L 434.836486 580.232667 
L 437.91188 580.232667 
L 440.987273 591.624776 
L 444.062666 583.080689 
L 447.13806 557.448447 
L 450.213453 557.448447 
L 453.288847 577.384634 
L 456.36424 585.928721 
L 459.439633 577.384634 
L 462.515027 614.408996 
L 465.59042 597.320831 
L 468.665813 625.801106 
L 471.741207 645.737298 
L 474.8166 622.953078 
L 477.891994 622.953078 
L 480.967387 631.497161 
L 484.04278 603.016886 
L 487.118174 620.105051 
L 490.193567 603.016886 
L 493.26896 631.497161 
L 496.344354 580.232667 
L 499.419747 585.928721 
L 502.495141 571.688579 
L 505.570534 577.384634 
L 508.645927 563.144502 
L 511.721321 580.232667 
L 514.796714 580.232667 
L 517.872107 583.080689 
L 520.947501 637.193216 
L 524.022894 628.649133 
L 527.098288 614.408996 
L 530.173681 614.408996 
L 533.249074 603.016886 
L 536.324468 628.649133 
L 539.399861 577.384634 
L 542.475254 608.712944 
L 545.550648 620.105051 
L 548.626041 611.560971 
L 551.701435 634.345188 
L 554.776828 620.105051 
L 557.852221 625.801106 
L 560.927615 640.041243 
L 564.003008 631.497161 
L 567.078402 631.497161 
L 570.153795 645.737298 
L 573.229188 620.105051 
L 576.304582 645.737298 
L 579.379975 614.408996 
L 582.455368 620.105051 
L 585.530762 622.953078 
L 588.606155 583.080689 
L 591.681549 588.776743 
L 594.756942 557.448447 
L 597.832335 531.8162 
L 600.907729 560.296474 
L 603.983122 565.992529 
L 607.058515 560.296474 
L 610.133909 557.448447 
L 613.209302 503.335925 
L 616.284696 537.512266 
L 619.360089 537.512266 
L 622.435482 546.056348 
L 625.510876 588.776743 
L 628.586269 608.712944 
L 631.661662 603.016886 
L 634.737056 631.497161 
L 637.812449 622.953078 
L 640.887843 605.864914 
L 643.963236 628.649133 
L 647.038629 642.889271 
L 650.114023 614.408996 
L 653.189416 640.041243 
L 656.264809 640.041243 
L 659.340203 628.649133 
L 662.415596 648.585325 
L 668.566383 648.585325 
L 671.641776 625.801106 
L 674.71717 625.801106 
L 677.792563 608.712944 
L 680.867956 625.801106 
L 683.94335 628.649133 
L 687.018743 603.016886 
L 690.094137 600.168859 
L 693.16953 591.624776 
L 696.244923 591.624776 
L 699.320317 600.168859 
L 702.39571 583.080689 
L 705.471103 603.016886 
L 708.546497 577.384634 
L 711.62189 588.776743 
L 714.697284 605.864914 
L 717.772677 625.801106 
L 720.84807 614.408996 
L 723.923464 617.257023 
L 726.998857 583.080689 
L 730.07425 625.801106 
L 733.149644 588.776743 
L 736.225037 608.712944 
L 739.300431 577.384634 
L 742.375824 617.257023 
L 745.451217 625.801106 
L 748.526611 614.408996 
L 751.602004 588.776743 
L 754.677397 603.016886 
L 757.752791 605.864914 
L 760.828184 620.105051 
L 763.903578 603.016886 
L 766.978971 580.232667 
L 770.054364 585.928721 
L 773.129758 588.776743 
L 776.205151 594.472804 
L 779.280545 611.560971 
L 782.355938 557.448447 
L 785.431331 571.688579 
L 788.506725 540.360282 
L 791.582118 565.992529 
L 794.657511 543.20831 
L 797.732905 563.144502 
L 800.808298 560.296474 
L 803.883692 588.776743 
L 806.959085 520.42409 
L 810.034478 560.296474 
L 813.109872 548.904364 
L 816.185265 548.904364 
L 819.260658 546.056348 
L 822.336052 594.472804 
L 825.411445 600.168859 
L 828.486839 611.560971 
L 831.562232 640.041243 
L 834.637625 617.257023 
L 840.788412 611.560971 
L 843.863805 565.992529 
L 846.939199 577.384634 
L 850.014592 591.624776 
L 853.089986 611.560971 
L 856.165379 594.472804 
L 859.240772 588.776743 
L 862.316166 614.408996 
L 865.391559 603.016886 
L 868.466952 608.712944 
L 871.542346 560.296474 
L 874.617739 594.472804 
L 877.693133 565.992529 
L 880.768526 608.712944 
L 883.843919 574.536612 
L 886.919313 585.928721 
L 889.994706 603.016886 
L 893.070099 611.560971 
L 896.145493 617.257023 
L 899.220886 625.801106 
L 905.371673 608.712944 
L 908.447066 597.320831 
L 911.52246 580.232667 
L 914.597853 591.624776 
L 917.673246 594.472804 
L 920.74864 625.801106 
L 923.824033 640.041243 
L 929.97482 628.649133 
L 933.050213 640.041243 
L 936.125607 648.585325 
L 939.201 625.801106 
L 942.276393 645.737298 
L 945.351787 631.497161 
L 951.502574 614.408996 
L 954.577967 620.105051 
L 957.65336 614.408996 
L 960.728754 611.560971 
L 963.804147 600.168859 
L 966.879541 611.560971 
L 969.954934 583.080689 
L 973.030327 603.016886 
L 976.105721 571.688579 
L 979.181114 557.448447 
L 982.256507 577.384634 
L 985.331901 577.384634 
L 988.407294 614.408996 
L 988.407294 614.408996 
" clip-path="url(#p59d65ea183)" style="fill: none; stroke: #1f77b4; stroke-width: 1.5; stroke-linecap: square"/>
   </g>
   <g id="line2d_39">
    <path d="M 548.626041 616.131848 
L 551.701435 621.481234 
L 554.776828 622.988225 
L 557.852221 616.167988 
L 560.927615 618.097977 
L 564.003008 613.434359 
L 567.078402 609.294171 
L 570.153795 605.344934 
L 573.229188 601.083497 
L 576.304582 595.066047 
L 579.379975 583.761591 
L 582.455368 578.054829 
L 585.530762 573.384392 
L 588.606155 565.527062 
L 591.681549 559.341975 
L 594.756942 557.452499 
L 597.832335 552.737724 
L 600.907729 552.374094 
L 603.983122 553.63675 
L 607.058515 548.695541 
L 610.133909 553.371856 
L 613.209302 554.879199 
L 616.284696 560.738795 
L 619.360089 559.403109 
L 622.435482 566.616051 
L 625.510876 570.899076 
L 628.586269 577.537484 
L 631.661662 580.126353 
L 634.737056 588.574813 
L 637.812449 593.276572 
L 640.887843 595.063787 
L 643.963236 605.104126 
L 647.038629 616.507057 
L 650.114023 614.582554 
L 653.189416 618.249972 
L 656.264809 620.763659 
L 659.340203 621.072156 
L 662.415596 621.771234 
L 665.49099 622.842832 
L 668.566383 615.447673 
L 671.641776 612.407569 
L 674.71717 610.089323 
L 677.792563 608.347165 
L 680.867956 605.739392 
L 683.94335 599.138646 
L 687.018743 593.051723 
L 690.094137 595.626518 
L 693.16953 596.396513 
L 696.244923 593.28629 
L 699.320317 593.83041 
L 702.39571 594.182519 
L 705.471103 597.07829 
L 708.546497 594.569252 
L 711.62189 594.757874 
L 714.697284 598.797255 
L 717.772677 600.916403 
L 720.84807 607.536244 
L 723.923464 609.147505 
L 726.998857 610.420354 
L 730.07425 606.383801 
L 733.149644 613.435837 
L 736.225037 612.759693 
L 739.300431 615.153313 
L 742.375824 612.375464 
L 745.451217 607.88694 
L 748.526611 609.339204 
L 751.602004 607.635495 
L 754.677397 607.225441 
L 757.752791 601.010342 
L 760.828184 597.692974 
L 763.903578 592.086734 
L 766.978971 587.941698 
L 770.054364 584.506805 
L 776.205151 572.180387 
L 779.280545 566.575533 
L 782.355938 566.100141 
L 785.431331 558.041945 
L 788.506725 556.442211 
L 791.582118 558.861401 
L 794.657511 560.269976 
L 797.732905 563.673178 
L 800.808298 561.598622 
L 803.883692 566.010059 
L 806.959085 566.731979 
L 810.034478 569.016315 
L 813.109872 570.344152 
L 816.185265 578.351899 
L 819.260658 583.43114 
L 822.336052 589.694934 
L 825.411445 593.419058 
L 828.486839 596.716615 
L 831.562232 601.038833 
L 834.637625 605.628902 
L 837.713019 606.227571 
L 840.788412 605.462101 
L 843.863805 609.700015 
L 846.939199 612.003691 
L 850.014592 610.769413 
L 853.089986 612.570241 
L 856.165379 607.832971 
L 859.240772 614.53131 
L 862.316166 609.525193 
L 865.391559 609.008533 
L 868.466952 606.230157 
L 871.542346 603.676413 
L 874.617739 603.510183 
L 877.693133 601.451272 
L 880.768526 598.476837 
L 883.843919 597.433044 
L 886.919313 602.015589 
L 889.994706 599.974642 
L 893.070099 606.016423 
L 896.145493 603.467768 
L 899.220886 607.20117 
L 902.29628 601.944856 
L 905.371673 606.985171 
L 908.447066 608.644604 
L 911.52246 605.638169 
L 914.597853 609.556198 
L 917.673246 607.191936 
L 920.74864 614.30544 
L 923.824033 608.372935 
L 926.899427 610.272713 
L 929.97482 609.006684 
L 933.050213 602.723733 
L 936.125607 593.469969 
L 939.201 597.10814 
L 942.276393 588.836253 
L 945.351787 593.818742 
L 948.42718 589.327648 
L 951.502574 587.124426 
L 954.577967 582.34754 
L 957.65336 574.456009 
L 960.728754 571.852245 
L 963.804147 569.061103 
L 969.954934 565.520217 
L 973.030327 568.506619 
L 976.105721 562.828773 
L 979.181114 561.69009 
L 982.256507 563.172836 
L 985.331901 563.444331 
L 988.407294 568.842295 
L 988.407294 568.842295 
" clip-path="url(#p59d65ea183)" style="fill: none; stroke: #ff7f0e; stroke-width: 1.5; stroke-linecap: square"/>
   </g>
   <g id="line2d_40">
    <path d="M 548.626041 658.980625 
L 548.626041 492.940625 
" clip-path="url(#p59d65ea183)" style="fill: none; stroke-dasharray: 7.4,3.2; stroke-dashoffset: 0; stroke: #0000ff; stroke-width: 2"/>
   </g>
   <g id="patch_14">
    <path d="M 61.6375 658.980625 
L 61.6375 492.940625 
" style="fill: none; stroke: #000000; stroke-width: 0.8; stroke-linejoin: miter; stroke-linecap: square"/>
   </g>
   <g id="patch_15">
    <path d="M 1032.539189 658.980625 
L 1032.539189 492.940625 
" style="fill: none; stroke: #000000; stroke-width: 0.8; stroke-linejoin: miter; stroke-linecap: square"/>
   </g>
   <g id="patch_16">
    <path d="M 61.6375 658.980625 
L 1032.539189 658.980625 
" style="fill: none; stroke: #000000; stroke-width: 0.8; stroke-linejoin: miter; stroke-linecap: square"/>
   </g>
   <g id="patch_17">
    <path d="M 61.6375 492.940625 
L 1032.539189 492.940625 
" style="fill: none; stroke: #000000; stroke-width: 0.8; stroke-linejoin: miter; stroke-linecap: square"/>
   </g>
   <g id="text_37">
    <!-- API_ID: 36 -->
    <g transform="translate(497.088345 486.940625) scale(0.2 -0.2)">
     <defs>
      <path id="SimSun-33" d="M 2800 1250 
Q 2800 775 2450 412 
Q 2100 50 1475 50 
Q 1025 50 700 300 
Q 375 550 375 875 
Q 375 1025 475 1137 
Q 575 1250 675 1250 
Q 825 1250 887 1137 
Q 950 1025 950 950 
Q 950 825 900 750 
Q 850 650 850 575 
Q 850 425 1037 325 
Q 1225 225 1450 225 
Q 1900 225 2125 487 
Q 2350 750 2350 1300 
Q 2350 1750 2112 2025 
Q 1875 2300 1225 2300 
L 1225 2475 
Q 1725 2475 1962 2712 
Q 2200 2950 2200 3375 
Q 2200 3725 2012 3987 
Q 1825 4250 1425 4250 
Q 1250 4250 1050 4162 
Q 850 4075 850 3875 
Q 850 3675 900 3625 
Q 950 3575 950 3500 
Q 950 3375 900 3300 
Q 850 3225 725 3225 
Q 625 3225 537 3300 
Q 450 3375 450 3575 
Q 450 3950 775 4187 
Q 1100 4425 1525 4425 
Q 2025 4425 2325 4112 
Q 2625 3800 2625 3450 
Q 2625 3075 2437 2812 
Q 2250 2550 1850 2425 
Q 2400 2225 2600 1900 
Q 2800 1575 2800 1250 
z
" transform="scale(0.015625)"/>
      <path id="SimSun-36" d="M 775 1800 
Q 775 1050 1037 637 
Q 1300 225 1675 225 
Q 2050 225 2250 500 
Q 2450 775 2450 1525 
Q 2450 2025 2237 2300 
Q 2025 2575 1725 2575 
Q 1450 2575 1212 2412 
Q 975 2250 775 1800 
z
M 1750 2825 
Q 2350 2825 2612 2425 
Q 2875 2025 2875 1525 
Q 2875 775 2512 412 
Q 2150 50 1675 50 
Q 1000 50 650 562 
Q 300 1075 300 2050 
Q 300 3200 725 3812 
Q 1150 4425 1875 4425 
Q 2225 4425 2437 4225 
Q 2650 4025 2650 3875 
Q 2650 3725 2587 3650 
Q 2525 3575 2375 3575 
Q 2250 3575 2187 3637 
Q 2125 3700 2125 3825 
Q 2125 3875 2150 3925 
Q 2150 3975 2150 4025 
Q 2150 4125 2075 4187 
Q 2000 4250 1800 4250 
Q 1375 4250 1075 3862 
Q 775 3475 775 2175 
Q 925 2500 1187 2662 
Q 1450 2825 1750 2825 
z
" transform="scale(0.015625)"/>
     </defs>
     <use xlink:href="#SimSun-41"/>
     <use xlink:href="#SimSun-50" x="50"/>
     <use xlink:href="#SimSun-49" x="100"/>
     <use xlink:href="#SimSun-5f" x="150"/>
     <use xlink:href="#SimSun-49" x="200"/>
     <use xlink:href="#SimSun-44" x="250"/>
     <use xlink:href="#SimSun-3a" x="300"/>
     <use xlink:href="#SimSun-20" x="350"/>
     <use xlink:href="#SimSun-33" x="400"/>
     <use xlink:href="#SimSun-36" x="450"/>
    </g>
   </g>
  </g>
 </g>
 <defs>
  <clipPath id="pe5eed6bc8a">
   <rect x="61.6375" y="27.340625" width="970.901689" height="166.04"/>
  </clipPath>
  <clipPath id="p7903bc3d16">
   <rect x="61.6375" y="260.140625" width="970.901689" height="166.04"/>
  </clipPath>
  <clipPath id="p59d65ea183">
   <rect x="61.6375" y="492.940625" width="970.901689" height="166.04"/>
  </clipPath>
 </defs>
</svg>
