<?xml version="1.0" encoding="utf-8" standalone="no"?>
<!DOCTYPE svg PUBLIC "-//W3C//DTD SVG 1.1//EN"
  "http://www.w3.org/Graphics/SVG/1.1/DTD/svg11.dtd">
<svg xmlns:xlink="http://www.w3.org/1999/xlink" width="1405.768292pt" height="1411.34625pt" viewBox="0 0 1405.768292 1411.34625" xmlns="http://www.w3.org/2000/svg" version="1.1">
 <metadata>
  <rdf:RDF xmlns:dc="http://purl.org/dc/elements/1.1/" xmlns:cc="http://creativecommons.org/ns#" xmlns:rdf="http://www.w3.org/1999/02/22-rdf-syntax-ns#">
   <cc:Work>
    <dc:type rdf:resource="http://purl.org/dc/dcmitype/StillImage"/>
    <dc:date>2024-02-28T12:28:29.912245</dc:date>
    <dc:format>image/svg+xml</dc:format>
    <dc:creator>
     <cc:Agent>
      <dc:title>Matplotlib v3.7.4, https://matplotlib.org/</dc:title>
     </cc:Agent>
    </dc:creator>
   </cc:Work>
  </rdf:RDF>
 </metadata>
 <defs>
  <style type="text/css">*{stroke-linejoin: round; stroke-linecap: butt}</style>
 </defs>
 <g id="figure_1">
  <g id="patch_1">
   <path d="M 0 1411.34625 
L 1405.768292 1411.34625 
L 1405.768292 0 
L 0 0 
z
" style="fill: #ffffff"/>
  </g>
  <g id="axes_1">
   <g id="patch_2">
    <path d="M 56.6375 244.260625 
L 1386.101293 244.260625 
L 1386.101293 27.340625 
L 56.6375 27.340625 
z
" style="fill: #ffffff"/>
   </g>
   <g id="matplotlib.axis_1">
    <g id="xtick_1">
     <g id="line2d_1">
      <defs>
       <path id="m81894f0e51" d="M 0 0 
L 0 3.5 
" style="stroke: #000000; stroke-width: 0.8"/>
      </defs>
      <g>
       <use xlink:href="#m81894f0e51" x="117.067672" y="244.260625" style="stroke: #000000; stroke-width: 0.8"/>
      </g>
     </g>
     <g id="text_1">
      <!-- 0 -->
      <g transform="translate(112.067672 265.148125) scale(0.2 -0.2)">
       <defs>
        <path id="TimesNewRomanPSMT-30" d="M 231 2094 
Q 231 2819 450 3342 
Q 669 3866 1031 4122 
Q 1313 4325 1613 4325 
Q 2100 4325 2488 3828 
Q 2972 3213 2972 2159 
Q 2972 1422 2759 906 
Q 2547 391 2217 158 
Q 1888 -75 1581 -75 
Q 975 -75 572 641 
Q 231 1244 231 2094 
z
M 844 2016 
Q 844 1141 1059 588 
Q 1238 122 1591 122 
Q 1759 122 1940 273 
Q 2122 425 2216 781 
Q 2359 1319 2359 2297 
Q 2359 3022 2209 3506 
Q 2097 3866 1919 4016 
Q 1791 4119 1609 4119 
Q 1397 4119 1231 3928 
Q 1006 3669 925 3112 
Q 844 2556 844 2016 
z
" transform="scale(0.015625)"/>
       </defs>
       <use xlink:href="#TimesNewRomanPSMT-30"/>
      </g>
     </g>
    </g>
    <g id="xtick_2">
     <g id="line2d_2">
      <g>
       <use xlink:href="#m81894f0e51" x="297.996332" y="244.260625" style="stroke: #000000; stroke-width: 0.8"/>
      </g>
     </g>
     <g id="text_2">
      <!-- 25 -->
      <g transform="translate(287.996332 265.148125) scale(0.2 -0.2)">
       <defs>
        <path id="TimesNewRomanPSMT-32" d="M 2934 816 
L 2638 0 
L 138 0 
L 138 116 
Q 1241 1122 1691 1759 
Q 2141 2397 2141 2925 
Q 2141 3328 1894 3587 
Q 1647 3847 1303 3847 
Q 991 3847 742 3664 
Q 494 3481 375 3128 
L 259 3128 
Q 338 3706 661 4015 
Q 984 4325 1469 4325 
Q 1984 4325 2329 3994 
Q 2675 3663 2675 3213 
Q 2675 2891 2525 2569 
Q 2294 2063 1775 1497 
Q 997 647 803 472 
L 1909 472 
Q 2247 472 2383 497 
Q 2519 522 2628 598 
Q 2738 675 2819 816 
L 2934 816 
z
" transform="scale(0.015625)"/>
        <path id="TimesNewRomanPSMT-35" d="M 2778 4238 
L 2534 3706 
L 1259 3706 
L 981 3138 
Q 1809 3016 2294 2522 
Q 2709 2097 2709 1522 
Q 2709 1188 2573 903 
Q 2438 619 2231 419 
Q 2025 219 1772 97 
Q 1413 -75 1034 -75 
Q 653 -75 479 54 
Q 306 184 306 341 
Q 306 428 378 495 
Q 450 563 559 563 
Q 641 563 702 538 
Q 763 513 909 409 
Q 1144 247 1384 247 
Q 1750 247 2026 523 
Q 2303 800 2303 1197 
Q 2303 1581 2056 1914 
Q 1809 2247 1375 2428 
Q 1034 2569 447 2591 
L 1259 4238 
L 2778 4238 
z
" transform="scale(0.015625)"/>
       </defs>
       <use xlink:href="#TimesNewRomanPSMT-32"/>
       <use xlink:href="#TimesNewRomanPSMT-35" x="50"/>
      </g>
     </g>
    </g>
    <g id="xtick_3">
     <g id="line2d_3">
      <g>
       <use xlink:href="#m81894f0e51" x="478.924992" y="244.260625" style="stroke: #000000; stroke-width: 0.8"/>
      </g>
     </g>
     <g id="text_3">
      <!-- 50 -->
      <g transform="translate(468.924992 265.148125) scale(0.2 -0.2)">
       <use xlink:href="#TimesNewRomanPSMT-35"/>
       <use xlink:href="#TimesNewRomanPSMT-30" x="50"/>
      </g>
     </g>
    </g>
    <g id="xtick_4">
     <g id="line2d_4">
      <g>
       <use xlink:href="#m81894f0e51" x="659.853652" y="244.260625" style="stroke: #000000; stroke-width: 0.8"/>
      </g>
     </g>
     <g id="text_4">
      <!-- 75 -->
      <g transform="translate(649.853652 265.148125) scale(0.2 -0.2)">
       <defs>
        <path id="TimesNewRomanPSMT-37" d="M 644 4238 
L 2916 4238 
L 2916 4119 
L 1503 -88 
L 1153 -88 
L 2419 3728 
L 1253 3728 
Q 900 3728 750 3644 
Q 488 3500 328 3200 
L 238 3234 
L 644 4238 
z
" transform="scale(0.015625)"/>
       </defs>
       <use xlink:href="#TimesNewRomanPSMT-37"/>
       <use xlink:href="#TimesNewRomanPSMT-35" x="50"/>
      </g>
     </g>
    </g>
    <g id="xtick_5">
     <g id="line2d_5">
      <g>
       <use xlink:href="#m81894f0e51" x="840.782312" y="244.260625" style="stroke: #000000; stroke-width: 0.8"/>
      </g>
     </g>
     <g id="text_5">
      <!-- 100 -->
      <g transform="translate(825.782312 265.148125) scale(0.2 -0.2)">
       <defs>
        <path id="TimesNewRomanPSMT-31" d="M 750 3822 
L 1781 4325 
L 1884 4325 
L 1884 747 
Q 1884 391 1914 303 
Q 1944 216 2037 169 
Q 2131 122 2419 116 
L 2419 0 
L 825 0 
L 825 116 
Q 1125 122 1212 167 
Q 1300 213 1334 289 
Q 1369 366 1369 747 
L 1369 3034 
Q 1369 3497 1338 3628 
Q 1316 3728 1258 3775 
Q 1200 3822 1119 3822 
Q 1003 3822 797 3725 
L 750 3822 
z
" transform="scale(0.015625)"/>
       </defs>
       <use xlink:href="#TimesNewRomanPSMT-31"/>
       <use xlink:href="#TimesNewRomanPSMT-30" x="50"/>
       <use xlink:href="#TimesNewRomanPSMT-30" x="100"/>
      </g>
     </g>
    </g>
    <g id="xtick_6">
     <g id="line2d_6">
      <g>
       <use xlink:href="#m81894f0e51" x="1021.710972" y="244.260625" style="stroke: #000000; stroke-width: 0.8"/>
      </g>
     </g>
     <g id="text_6">
      <!-- 125 -->
      <g transform="translate(1006.710972 265.148125) scale(0.2 -0.2)">
       <use xlink:href="#TimesNewRomanPSMT-31"/>
       <use xlink:href="#TimesNewRomanPSMT-32" x="50"/>
       <use xlink:href="#TimesNewRomanPSMT-35" x="100"/>
      </g>
     </g>
    </g>
    <g id="xtick_7">
     <g id="line2d_7">
      <g>
       <use xlink:href="#m81894f0e51" x="1202.639632" y="244.260625" style="stroke: #000000; stroke-width: 0.8"/>
      </g>
     </g>
     <g id="text_7">
      <!-- 150 -->
      <g transform="translate(1187.639632 265.148125) scale(0.2 -0.2)">
       <use xlink:href="#TimesNewRomanPSMT-31"/>
       <use xlink:href="#TimesNewRomanPSMT-35" x="50"/>
       <use xlink:href="#TimesNewRomanPSMT-30" x="100"/>
      </g>
     </g>
    </g>
    <g id="xtick_8">
     <g id="line2d_8">
      <g>
       <use xlink:href="#m81894f0e51" x="1383.568292" y="244.260625" style="stroke: #000000; stroke-width: 0.8"/>
      </g>
     </g>
     <g id="text_8">
      <!-- 175 -->
      <g transform="translate(1368.568292 265.148125) scale(0.2 -0.2)">
       <use xlink:href="#TimesNewRomanPSMT-31"/>
       <use xlink:href="#TimesNewRomanPSMT-37" x="50"/>
       <use xlink:href="#TimesNewRomanPSMT-35" x="100"/>
      </g>
     </g>
    </g>
   </g>
   <g id="matplotlib.axis_2">
    <g id="ytick_1">
     <g id="line2d_9">
      <defs>
       <path id="m191df8e361" d="M 0 0 
L -3.5 0 
" style="stroke: #000000; stroke-width: 0.8"/>
      </defs>
      <g>
       <use xlink:href="#m191df8e361" x="56.6375" y="239.074998" style="stroke: #000000; stroke-width: 0.8"/>
      </g>
     </g>
     <g id="text_9">
      <!-- 2 -->
      <g transform="translate(39.6375 246.018748) scale(0.2 -0.2)">
       <use xlink:href="#TimesNewRomanPSMT-32"/>
      </g>
     </g>
    </g>
    <g id="ytick_2">
     <g id="line2d_10">
      <g>
       <use xlink:href="#m191df8e361" x="56.6375" y="180.645366" style="stroke: #000000; stroke-width: 0.8"/>
      </g>
     </g>
     <g id="text_10">
      <!-- 4 -->
      <g transform="translate(39.6375 187.589116) scale(0.2 -0.2)">
       <defs>
        <path id="TimesNewRomanPSMT-34" d="M 2978 1563 
L 2978 1119 
L 2409 1119 
L 2409 0 
L 1894 0 
L 1894 1119 
L 100 1119 
L 100 1519 
L 2066 4325 
L 2409 4325 
L 2409 1563 
L 2978 1563 
z
M 1894 1563 
L 1894 3666 
L 406 1563 
L 1894 1563 
z
" transform="scale(0.015625)"/>
       </defs>
       <use xlink:href="#TimesNewRomanPSMT-34"/>
      </g>
     </g>
    </g>
    <g id="ytick_3">
     <g id="line2d_11">
      <g>
       <use xlink:href="#m191df8e361" x="56.6375" y="122.215735" style="stroke: #000000; stroke-width: 0.8"/>
      </g>
     </g>
     <g id="text_11">
      <!-- 6 -->
      <g transform="translate(39.6375 129.159485) scale(0.2 -0.2)">
       <defs>
        <path id="TimesNewRomanPSMT-36" d="M 2869 4325 
L 2869 4209 
Q 2456 4169 2195 4045 
Q 1934 3922 1679 3669 
Q 1425 3416 1258 3105 
Q 1091 2794 978 2366 
Q 1428 2675 1881 2675 
Q 2316 2675 2634 2325 
Q 2953 1975 2953 1425 
Q 2953 894 2631 456 
Q 2244 -75 1606 -75 
Q 1172 -75 869 213 
Q 275 772 275 1663 
Q 275 2231 503 2743 
Q 731 3256 1154 3653 
Q 1578 4050 1965 4187 
Q 2353 4325 2688 4325 
L 2869 4325 
z
M 925 2138 
Q 869 1716 869 1456 
Q 869 1156 980 804 
Q 1091 453 1309 247 
Q 1469 100 1697 100 
Q 1969 100 2183 356 
Q 2397 613 2397 1088 
Q 2397 1622 2184 2012 
Q 1972 2403 1581 2403 
Q 1463 2403 1327 2353 
Q 1191 2303 925 2138 
z
" transform="scale(0.015625)"/>
       </defs>
       <use xlink:href="#TimesNewRomanPSMT-36"/>
      </g>
     </g>
    </g>
    <g id="ytick_4">
     <g id="line2d_12">
      <g>
       <use xlink:href="#m191df8e361" x="56.6375" y="63.786103" style="stroke: #000000; stroke-width: 0.8"/>
      </g>
     </g>
     <g id="text_12">
      <!-- 8 -->
      <g transform="translate(39.6375 70.729853) scale(0.2 -0.2)">
       <defs>
        <path id="TimesNewRomanPSMT-38" d="M 1228 2134 
Q 725 2547 579 2797 
Q 434 3047 434 3316 
Q 434 3728 753 4026 
Q 1072 4325 1600 4325 
Q 2113 4325 2425 4047 
Q 2738 3769 2738 3413 
Q 2738 3175 2569 2928 
Q 2400 2681 1866 2347 
Q 2416 1922 2594 1678 
Q 2831 1359 2831 1006 
Q 2831 559 2490 242 
Q 2150 -75 1597 -75 
Q 994 -75 656 303 
Q 388 606 388 966 
Q 388 1247 577 1523 
Q 766 1800 1228 2134 
z
M 1719 2469 
Q 2094 2806 2194 3001 
Q 2294 3197 2294 3444 
Q 2294 3772 2109 3958 
Q 1925 4144 1606 4144 
Q 1288 4144 1088 3959 
Q 888 3775 888 3528 
Q 888 3366 970 3203 
Q 1053 3041 1206 2894 
L 1719 2469 
z
M 1375 2016 
Q 1116 1797 991 1539 
Q 866 1281 866 981 
Q 866 578 1086 336 
Q 1306 94 1647 94 
Q 1984 94 2187 284 
Q 2391 475 2391 747 
Q 2391 972 2272 1150 
Q 2050 1481 1375 2016 
z
" transform="scale(0.015625)"/>
       </defs>
       <use xlink:href="#TimesNewRomanPSMT-38"/>
      </g>
     </g>
    </g>
    <g id="text_13">
     <!-- CPU使用率 -->
     <g transform="translate(33.059375 180.800625) rotate(-90) scale(0.2 -0.2)">
      <defs>
       <path id="SimSun-43" d="M 1725 50 
Q 1025 50 612 575 
Q 200 1100 200 2225 
Q 200 3175 637 3800 
Q 1075 4425 1825 4425 
Q 2000 4425 2175 4375 
Q 2350 4300 2475 4300 
Q 2575 4300 2637 4325 
Q 2700 4350 2750 4425 
L 2975 3325 
L 2825 3275 
Q 2675 3750 2425 4000 
Q 2175 4250 1775 4250 
Q 1250 4250 962 3675 
Q 675 3100 675 2250 
Q 675 1325 925 800 
Q 1175 275 1750 275 
Q 2150 275 2437 562 
Q 2725 850 2825 1325 
L 2975 1250 
Q 2850 725 2512 387 
Q 2175 50 1725 50 
z
" transform="scale(0.015625)"/>
       <path id="SimSun-50" d="M 950 2100 
L 950 450 
Q 950 350 1012 300 
Q 1075 250 1175 250 
L 1350 250 
L 1350 100 
L 150 100 
L 150 250 
L 325 250 
Q 450 250 500 300 
Q 550 350 550 450 
L 550 4025 
Q 550 4125 500 4175 
Q 450 4225 325 4225 
L 175 4225 
L 175 4375 
L 1650 4375 
Q 2275 4375 2612 4062 
Q 2950 3750 2950 3275 
Q 2950 2700 2587 2400 
Q 2225 2100 1725 2100 
L 950 2100 
z
M 1575 2250 
Q 1950 2250 2237 2475 
Q 2525 2700 2525 3250 
Q 2525 3750 2287 3987 
Q 2050 4225 1525 4225 
L 1175 4225 
Q 1075 4225 1012 4175 
Q 950 4125 950 4025 
L 950 2250 
L 1575 2250 
z
" transform="scale(0.015625)"/>
       <path id="SimSun-55" d="M 1625 250 
Q 2000 250 2262 500 
Q 2525 750 2525 1125 
L 2525 4025 
Q 2525 4125 2475 4175 
Q 2425 4225 2300 4225 
L 2150 4225 
L 2150 4375 
L 3050 4375 
L 3050 4225 
L 2900 4225 
Q 2800 4225 2737 4175 
Q 2675 4125 2675 4025 
L 2675 1125 
Q 2675 625 2337 337 
Q 2000 50 1575 50 
Q 1125 50 787 300 
Q 450 550 450 1100 
L 450 4025 
Q 450 4125 400 4175 
Q 350 4225 225 4225 
L 100 4225 
L 100 4375 
L 1200 4375 
L 1200 4225 
L 1075 4225 
Q 975 4225 912 4175 
Q 850 4125 850 4025 
L 850 1100 
Q 850 600 1062 425 
Q 1275 250 1625 250 
z
" transform="scale(0.015625)"/>
       <path id="SimSun-4f7f" d="M 2875 3150 
L 2875 2100 
L 3825 2100 
Q 3850 2825 3850 3150 
L 2875 3150 
z
M 4175 3150 
Q 4175 2800 4150 2100 
L 5150 2100 
L 5150 3150 
L 4175 3150 
z
M 5475 3100 
L 5475 2425 
Q 5475 2100 5500 1800 
L 5150 1675 
L 5150 1950 
L 4150 1950 
Q 4125 1175 3875 600 
Q 4275 275 4875 75 
Q 5475 -125 6075 -150 
L 6075 -250 
Q 5700 -300 5600 -575 
Q 4525 -325 3725 350 
Q 3425 25 2925 -225 
Q 2425 -475 1875 -650 
L 1825 -550 
Q 2400 -325 2850 -25 
Q 3300 275 3500 575 
Q 3200 925 2825 1650 
L 2900 1700 
Q 3325 1100 3625 825 
Q 3800 1300 3825 1950 
L 2875 1950 
L 2875 1825 
L 2525 1675 
Q 2550 2075 2550 2562 
Q 2550 3050 2525 3500 
L 2875 3300 
L 3850 3300 
L 3850 4025 
L 2975 4025 
Q 2650 4025 2375 3950 
L 2150 4175 
L 3850 4175 
L 3850 4525 
Q 3850 4775 3825 5225 
L 4350 5000 
L 4175 4825 
L 4175 4175 
L 5300 4175 
L 5600 4475 
L 6050 4025 
L 4175 4025 
L 4175 3300 
L 5100 3300 
L 5275 3525 
L 5650 3225 
L 5475 3100 
z
M 1675 3175 
L 1675 -450 
L 1325 -625 
Q 1350 -75 1350 350 
L 1350 3200 
Q 900 2475 350 1900 
L 275 1950 
Q 700 2525 1112 3400 
Q 1525 4275 1800 5250 
L 2325 4925 
L 2125 4800 
Q 1725 3925 1500 3525 
L 1875 3325 
L 1675 3175 
z
" transform="scale(0.015625)"/>
       <path id="SimSun-7528" d="M 3400 3150 
L 3400 1825 
L 5075 1825 
L 5075 3150 
L 3400 3150 
z
M 4075 100 
Q 4725 50 4900 62 
Q 5075 75 5075 400 
L 5075 1675 
L 3400 1675 
Q 3400 75 3425 -225 
L 3050 -400 
Q 3075 1025 3075 1675 
L 1425 1675 
Q 1250 350 375 -600 
L 300 -550 
Q 775 225 950 1025 
Q 1125 1825 1125 3225 
Q 1125 4625 1100 5075 
L 1475 4825 
L 5050 4825 
L 5225 5100 
L 5625 4800 
L 5425 4600 
L 5425 225 
Q 5450 -400 4875 -575 
Q 4825 -150 4075 -25 
L 4075 100 
z
M 1475 4675 
L 1475 3300 
L 3075 3300 
L 3075 4675 
L 1475 4675 
z
M 3400 4675 
L 3400 3300 
L 5075 3300 
L 5075 4675 
L 3400 4675 
z
M 1475 3150 
Q 1450 2100 1425 1825 
L 3075 1825 
L 3075 3150 
L 1475 3150 
z
" transform="scale(0.015625)"/>
       <path id="SimSun-7387" d="M 875 3725 
L 925 3800 
Q 1375 3650 1550 3525 
Q 1725 3400 1725 3250 
Q 1725 3175 1662 3025 
Q 1600 2875 1550 2875 
Q 1500 2875 1425 3050 
Q 1275 3325 875 3725 
z
M 550 1850 
Q 875 1925 2000 2575 
L 2050 2500 
Q 1675 2225 1337 1937 
Q 1000 1650 875 1425 
L 550 1850 
z
M 5200 3450 
Q 4800 3150 4275 2800 
L 4225 2875 
Q 4775 3400 5050 3925 
L 5450 3525 
L 5200 3450 
z
M 4325 2500 
L 4350 2575 
Q 5225 2350 5375 2212 
Q 5525 2075 5525 1900 
Q 5525 1775 5487 1662 
Q 5450 1550 5400 1550 
Q 5325 1550 5200 1800 
Q 4975 2150 4325 2500 
z
M 3150 3900 
Q 2500 3300 2300 3150 
Q 2800 3150 3400 3175 
Q 3700 3500 3850 3825 
L 4250 3450 
Q 4050 3400 3450 2825 
Q 2850 2250 2475 1950 
Q 3150 1975 3850 2000 
Q 3750 2175 3550 2450 
L 3600 2500 
Q 4050 2250 4200 2100 
Q 4350 1950 4350 1850 
Q 4350 1775 4250 1625 
Q 4150 1475 4100 1475 
Q 4075 1475 4050 1550 
Q 4000 1700 3900 1900 
Q 3650 1875 3075 1800 
L 3500 1550 
L 3325 1425 
L 3325 975 
L 5325 975 
L 5650 1300 
L 6100 825 
L 3325 825 
Q 3325 -275 3350 -525 
L 2975 -650 
Q 3000 0 3000 825 
L 1125 825 
Q 800 825 525 750 
L 300 975 
L 3000 975 
L 3000 1775 
Q 2450 1700 2200 1525 
L 1950 1950 
Q 2275 1950 2675 2350 
Q 3075 2750 3325 3050 
Q 2400 2950 2150 2775 
L 1950 3175 
Q 2150 3150 2475 3575 
Q 2800 4000 2900 4225 
L 1450 4225 
Q 1125 4225 850 4150 
L 625 4375 
L 3100 4375 
Q 3050 4800 2675 5200 
L 2725 5250 
Q 3225 5050 3337 4912 
Q 3450 4775 3450 4700 
Q 3450 4550 3250 4375 
L 5025 4375 
L 5350 4675 
L 5775 4225 
L 3050 4225 
L 3375 3950 
L 3150 3900 
z
" transform="scale(0.015625)"/>
      </defs>
      <use xlink:href="#SimSun-43"/>
      <use xlink:href="#SimSun-50" x="50"/>
      <use xlink:href="#SimSun-55" x="100"/>
      <use xlink:href="#SimSun-4f7f" x="150"/>
      <use xlink:href="#SimSun-7528" x="250"/>
      <use xlink:href="#SimSun-7387" x="350"/>
     </g>
    </g>
   </g>
   <g id="line2d_13">
    <path d="M 117.067672 91.540186 
L 124.304819 150.846255 
L 131.541965 180.353225 
L 138.779112 165.745804 
L 146.016258 187.94907 
L 153.253404 198.758556 
L 160.490551 189.701958 
L 167.727697 199.927147 
L 174.964844 234.108477 
L 182.20199 178.016028 
L 189.439136 194.084183 
L 196.676283 99.720327 
L 203.913429 154.644184 
L 211.150576 197.005662 
L 218.387722 203.432922 
L 225.624868 162.824325 
L 232.862015 186.196183 
L 240.099161 212.781661 
L 247.336308 196.713514 
L 254.573454 188.533366 
L 261.8106 184.735444 
L 269.047747 211.905217 
L 276.284893 210.736626 
L 283.52204 225.051886 
L 290.759186 217.456034 
L 297.996332 213.658105 
L 305.233479 167.790846 
L 312.470625 188.825514 
L 319.707771 140.913213 
L 326.944918 175.386705 
L 334.182064 207.230851 
L 341.419211 194.084183 
L 348.656357 216.57959 
L 355.893503 227.681217 
L 363.13065 233.524181 
L 370.367796 221.546111 
L 377.604943 215.703147 
L 384.842089 212.781661 
L 392.079235 196.713514 
L 399.316382 203.432922 
L 406.553528 221.253956 
L 413.790675 215.410999 
L 421.027821 227.389076 
L 428.264967 218.624626 
L 435.502114 228.849815 
L 442.73926 219.208921 
L 449.976407 229.141956 
L 457.213553 219.501069 
L 464.450699 229.434104 
L 471.687846 219.501069 
L 478.924992 156.397071 
L 486.162139 153.767734 
L 493.399285 181.813958 
L 500.636431 210.444478 
L 507.873578 210.15233 
L 515.110724 224.759738 
L 522.347871 187.94907 
L 529.585017 184.443289 
L 536.822163 211.613069 
L 544.05931 210.736626 
L 551.296456 137.407438 
L 558.533603 173.633803 
L 565.770749 206.354401 
L 573.007895 76.640624 
L 580.245042 157.857804 
L 587.482188 183.858993 
L 594.719335 182.106106 
L 601.956481 181.52181 
L 609.193627 107.900468 
L 616.430774 115.204172 
L 623.66792 89.495144 
L 630.905066 120.462847 
L 638.142213 92.124468 
L 645.379359 150.846255 
L 652.616506 165.745804 
L 659.853652 114.912031 
L 667.090798 133.025213 
L 674.327945 156.981367 
L 681.565091 183.274697 
L 688.802238 167.498705 
L 696.039384 203.140774 
L 703.27653 177.431733 
L 710.513677 208.107295 
L 717.750823 208.983739 
L 724.98797 224.175442 
L 732.225116 216.871738 
L 739.462262 213.365957 
L 746.699409 94.753806 
L 753.936555 181.52181 
L 761.173702 195.83707 
L 768.410848 173.633803 
L 775.647994 162.532184 
L 782.885141 186.196183 
L 790.122287 197.882105 
L 797.359434 218.624626 
L 804.59658 214.242407 
L 811.833726 211.905217 
L 819.070873 225.636182 
L 826.308019 217.748182 
L 833.545166 228.265513 
L 840.782312 219.208921 
L 848.019458 229.141956 
L 855.256605 219.501069 
L 862.493751 229.141956 
L 869.730898 219.501069 
L 876.968044 214.826696 
L 884.20519 226.804773 
L 891.442337 232.939886 
L 898.679483 221.546111 
L 905.91663 201.095739 
L 913.153776 220.085365 
L 920.390922 229.434104 
L 927.628069 234.400625 
L 934.865215 222.1304 
L 942.102361 99.136031 
L 949.339508 183.566852 
L 956.576654 167.498705 
L 963.813801 145.003297 
L 971.050947 192.039148 
L 978.288093 215.410999 
L 985.52524 183.566852 
L 992.762386 196.713514 
L 999.999533 188.533366 
L 1007.236679 126.305805 
L 1014.473825 124.260777 
L 1021.710972 152.307001 
L 1028.948118 195.83707 
L 1036.185265 202.848626 
L 1043.422411 162.532184 
L 1050.659557 171.588775 
L 1057.896704 102.933961 
L 1065.13385 97.96744 
L 1072.370997 37.200625 
L 1079.608143 108.776918 
L 1086.845289 130.103734 
L 1094.082436 155.520621 
L 1101.319582 197.297816 
L 1108.556729 174.218113 
L 1115.793875 133.609509 
L 1123.031021 171.880916 
L 1130.268168 147.048325 
L 1137.505314 149.093367 
L 1144.742461 179.476775 
L 1151.979607 180.061071 
L 1159.216753 165.745804 
L 1166.4539 202.556478 
L 1173.691046 191.454852 
L 1180.928193 200.803591 
L 1188.165339 219.793217 
L 1195.402485 214.826696 
L 1202.639632 197.882105 
L 1209.876778 189.117662 
L 1217.113925 126.59796 
L 1224.351071 182.690402 
L 1231.588217 196.421366 
L 1238.825364 217.748182 
L 1246.06251 213.658105 
L 1253.299657 211.905217 
L 1260.536803 196.129218 
L 1267.773949 188.533366 
L 1275.011096 199.050697 
L 1282.248242 189.994112 
L 1289.485388 199.927147 
L 1296.722535 219.501069 
L 1303.959681 229.141956 
L 1311.196828 219.501069 
L 1318.433974 229.434104 
L 1325.67112 234.108477 
L 1325.67112 234.108477 
" clip-path="url(#pef4b42ba97)" style="fill: none; stroke: #1f77b4; stroke-width: 1.5; stroke-linecap: square"/>
   </g>
   <g id="line2d_14">
    <path d="M 1159.216753 178.991206 
L 1166.4539 180.18231 
L 1173.691046 179.320876 
L 1180.928193 185.551344 
L 1188.165339 191.475831 
L 1195.402485 184.478826 
L 1202.639632 191.15475 
L 1209.876778 188.983217 
L 1217.113925 188.851655 
L 1224.351071 193.927622 
L 1231.588217 191.828898 
L 1238.825364 194.141522 
L 1246.06251 195.999077 
L 1253.299657 196.648471 
L 1260.536803 194.616587 
L 1267.773949 196.562428 
L 1275.011096 197.216134 
L 1282.248242 196.02884 
L 1289.485388 194.597056 
L 1296.722535 195.567016 
L 1303.959681 190.867937 
L 1311.196828 197.583124 
L 1318.433974 196.937011 
L 1325.67112 193.359291 
" clip-path="url(#pef4b42ba97)" style="fill: none; stroke: #ff7f0e; stroke-width: 1.5; stroke-linecap: square"/>
   </g>
   <g id="line2d_15">
    <path d="M 1159.216753 244.260625 
L 1159.216753 27.340625 
" clip-path="url(#pef4b42ba97)" style="fill: none; stroke-dasharray: 7.4,3.2; stroke-dashoffset: 0; stroke: #0000ff; stroke-width: 2"/>
   </g>
   <g id="patch_3">
    <path d="M 56.6375 244.260625 
L 56.6375 27.340625 
" style="fill: none; stroke: #000000; stroke-width: 0.8; stroke-linejoin: miter; stroke-linecap: square"/>
   </g>
   <g id="patch_4">
    <path d="M 1386.101293 244.260625 
L 1386.101293 27.340625 
" style="fill: none; stroke: #000000; stroke-width: 0.8; stroke-linejoin: miter; stroke-linecap: square"/>
   </g>
   <g id="patch_5">
    <path d="M 56.6375 244.260625 
L 1386.101293 244.260625 
" style="fill: none; stroke: #000000; stroke-width: 0.8; stroke-linejoin: miter; stroke-linecap: square"/>
   </g>
   <g id="patch_6">
    <path d="M 56.6375 27.340625 
L 1386.101293 27.340625 
" style="fill: none; stroke: #000000; stroke-width: 0.8; stroke-linejoin: miter; stroke-linecap: square"/>
   </g>
   <g id="text_14">
    <!-- API_ID: 2 -->
    <g transform="translate(676.369396 21.340625) scale(0.2 -0.2)">
     <defs>
      <path id="SimSun-41" d="M 2025 1700 
L 900 1700 
L 675 750 
Q 650 625 650 550 
Q 650 450 687 350 
Q 725 250 900 250 
L 975 250 
L 975 100 
L 50 100 
L 50 250 
L 125 250 
Q 225 250 300 312 
Q 375 375 400 525 
L 1375 4350 
L 1750 4475 
L 2700 525 
Q 2750 375 2825 312 
Q 2900 250 3000 250 
L 3075 250 
L 3075 100 
L 2000 100 
L 2000 250 
L 2100 250 
Q 2250 250 2275 312 
Q 2300 375 2300 425 
Q 2300 525 2275 600 
L 2025 1700 
z
M 325 250 
L 325 250 
z
M 575 250 
L 575 250 
z
M 2350 250 
L 2350 250 
z
M 2775 250 
L 2775 250 
z
M 1500 3925 
L 1475 3925 
L 950 1850 
L 2000 1850 
L 1500 3925 
z
" transform="scale(0.015625)"/>
      <path id="SimSun-49" d="M 600 4225 
L 600 4375 
L 2600 4375 
L 2600 4225 
L 2025 4225 
Q 1925 4225 1862 4175 
Q 1800 4125 1800 4025 
L 1800 450 
Q 1800 350 1862 300 
Q 1925 250 2025 250 
L 2600 250 
L 2600 100 
L 600 100 
L 600 250 
L 1175 250 
Q 1300 250 1350 300 
Q 1400 350 1400 450 
L 1400 4025 
Q 1400 4125 1350 4175 
Q 1300 4225 1175 4225 
L 600 4225 
z
" transform="scale(0.015625)"/>
      <path id="SimSun-5f" d="M 0 -875 
L 0 -725 
L 3175 -725 
L 3175 -875 
L 0 -875 
z
" transform="scale(0.015625)"/>
      <path id="SimSun-44" d="M 2500 2275 
Q 2500 3350 2175 3787 
Q 1850 4225 1275 4225 
Q 1100 4225 1012 4175 
Q 925 4125 925 4025 
L 925 450 
Q 925 350 1000 300 
Q 1075 250 1200 250 
Q 1750 250 2125 662 
Q 2500 1075 2500 2275 
z
M 525 4025 
Q 525 4125 475 4175 
Q 425 4225 300 4225 
L 150 4225 
L 150 4375 
L 1275 4375 
Q 2050 4375 2512 3875 
Q 2975 3375 2975 2325 
Q 2975 1175 2525 637 
Q 2075 100 1200 100 
L 125 100 
L 125 250 
L 300 250 
Q 425 250 475 300 
Q 525 350 525 450 
L 525 4025 
z
" transform="scale(0.015625)"/>
      <path id="SimSun-3a" d="M 1900 2725 
Q 1900 2575 1800 2475 
Q 1700 2375 1550 2375 
Q 1400 2375 1300 2475 
Q 1200 2575 1200 2725 
Q 1200 2875 1300 2975 
Q 1400 3075 1550 3075 
Q 1700 3075 1800 2975 
Q 1900 2875 1900 2725 
z
M 1900 375 
Q 1900 225 1800 125 
Q 1700 25 1550 25 
Q 1400 25 1300 125 
Q 1200 225 1200 375 
Q 1200 525 1300 625 
Q 1400 725 1550 725 
Q 1700 725 1800 625 
Q 1900 525 1900 375 
z
" transform="scale(0.015625)"/>
      <path id="SimSun-20" d="M 0 0 
Q 0 0 0 0 
z
" transform="scale(0.015625)"/>
      <path id="SimSun-32" d="M 2325 3325 
Q 2325 3775 2125 4012 
Q 1925 4250 1525 4250 
Q 1225 4250 1012 4087 
Q 800 3925 800 3675 
Q 800 3525 900 3425 
Q 975 3325 975 3225 
Q 975 3100 912 3037 
Q 850 2975 725 2975 
Q 575 2975 487 3062 
Q 400 3150 400 3350 
Q 400 3875 775 4150 
Q 1150 4425 1575 4425 
Q 2175 4425 2462 4125 
Q 2750 3825 2750 3375 
Q 2750 3075 2612 2775 
Q 2475 2475 2175 2200 
Q 1450 1500 1062 1062 
Q 675 625 600 475 
L 2075 475 
Q 2300 475 2450 650 
Q 2600 825 2650 1175 
L 2800 1175 
L 2650 100 
L 325 100 
L 325 425 
Q 450 650 737 1000 
Q 1025 1350 1500 1825 
Q 1925 2250 2125 2625 
Q 2325 3000 2325 3325 
z
" transform="scale(0.015625)"/>
     </defs>
     <use xlink:href="#SimSun-41"/>
     <use xlink:href="#SimSun-50" x="50"/>
     <use xlink:href="#SimSun-49" x="100"/>
     <use xlink:href="#SimSun-5f" x="150"/>
     <use xlink:href="#SimSun-49" x="200"/>
     <use xlink:href="#SimSun-44" x="250"/>
     <use xlink:href="#SimSun-3a" x="300"/>
     <use xlink:href="#SimSun-20" x="350"/>
     <use xlink:href="#SimSun-32" x="400"/>
    </g>
   </g>
   <g id="legend_1">
    <g id="patch_7">
     <path d="M 70.6375 100.215625 
L 194.6375 100.215625 
Q 198.6375 100.215625 198.6375 96.215625 
L 198.6375 41.340625 
Q 198.6375 37.340625 194.6375 37.340625 
L 70.6375 37.340625 
Q 66.6375 37.340625 66.6375 41.340625 
L 66.6375 96.215625 
Q 66.6375 100.215625 70.6375 100.215625 
z
" style="fill: #ffffff; opacity: 0.8; stroke: #cccccc; stroke-linejoin: miter"/>
    </g>
    <g id="line2d_16">
     <path d="M 74.6375 54.278125 
L 94.6375 54.278125 
L 114.6375 54.278125 
" style="fill: none; stroke: #1f77b4; stroke-width: 1.5; stroke-linecap: square"/>
    </g>
    <g id="text_15">
     <!-- 真实值 -->
     <g transform="translate(130.6375 61.278125) scale(0.2 -0.2)">
      <defs>
       <path id="SimSun-771f" d="M 2050 3450 
L 2050 2900 
L 4300 2900 
L 4300 3450 
L 2050 3450 
z
M 2050 2750 
L 2050 2225 
L 4300 2225 
L 4300 2750 
L 2050 2750 
z
M 2050 2075 
L 2050 1550 
L 4300 1550 
L 4300 2075 
L 2050 2075 
z
M 2050 1400 
L 2050 875 
L 4300 875 
L 4300 1400 
L 2050 1400 
z
M 2875 3600 
L 2925 4325 
L 1525 4325 
Q 1200 4325 925 4250 
L 700 4475 
L 2950 4475 
Q 2975 4825 2975 5275 
L 3550 5025 
L 3375 4925 
L 3300 4475 
L 5000 4475 
L 5325 4825 
L 5775 4325 
L 3275 4325 
L 3200 3600 
L 4275 3600 
L 4450 3875 
L 4850 3575 
L 4650 3375 
L 4650 875 
L 5300 875 
L 5675 1225 
L 6125 725 
L 1150 725 
Q 825 725 550 650 
L 325 875 
L 1700 875 
Q 1700 3200 1675 3775 
L 2050 3600 
L 2875 3600 
z
M 2425 725 
L 2825 350 
L 2575 300 
Q 1500 -425 800 -650 
L 775 -575 
Q 1950 125 2425 725 
z
M 3800 700 
Q 4575 375 4962 200 
Q 5350 25 5400 -112 
Q 5450 -250 5450 -325 
Q 5450 -400 5400 -525 
Q 5350 -650 5325 -650 
Q 5250 -650 5100 -450 
Q 4875 -150 3750 625 
L 3800 700 
z
" transform="scale(0.015625)"/>
       <path id="SimSun-5b9e" d="M 1950 3625 
Q 2575 3400 2700 3250 
Q 2825 3100 2825 2975 
Q 2825 2850 2750 2700 
Q 2675 2550 2625 2550 
Q 2550 2550 2450 2800 
Q 2275 3175 1900 3550 
L 1950 3625 
z
M 3575 1325 
Q 3500 1100 3425 925 
Q 4650 550 5087 325 
Q 5525 100 5512 -225 
Q 5500 -550 5400 -550 
Q 5300 -550 5075 -300 
Q 4625 175 3375 800 
Q 3025 175 2300 -150 
Q 1575 -475 425 -625 
L 425 -525 
Q 1475 -325 2200 100 
Q 2925 525 3200 1325 
L 1225 1325 
Q 900 1325 625 1250 
L 400 1475 
L 3225 1475 
Q 3325 1950 3375 2575 
Q 3425 3200 3425 3700 
L 4050 3400 
L 3850 3225 
Q 3750 2300 3625 1475 
L 5175 1475 
L 5550 1850 
L 6075 1325 
L 3575 1325 
z
M 1275 2700 
Q 1975 2425 2100 2262 
Q 2225 2100 2225 1975 
Q 2225 1850 2150 1700 
Q 2075 1550 2025 1550 
Q 1950 1550 1850 1800 
Q 1675 2175 1225 2625 
L 1275 2700 
z
M 2750 5225 
L 2825 5275 
Q 3225 5100 3425 4925 
Q 3625 4750 3625 4600 
Q 3625 4450 3512 4300 
Q 3400 4150 3325 4150 
Q 3250 4150 3200 4400 
Q 3100 4775 2750 5225 
z
M 4975 3225 
L 5350 3925 
L 1175 3925 
Q 1225 3525 1125 3300 
Q 1025 3075 787 3100 
Q 550 3125 550 3200 
Q 550 3300 700 3475 
Q 975 3825 1050 4375 
L 1150 4375 
L 1175 4075 
L 5300 4075 
L 5575 4350 
L 6050 3800 
Q 5625 3825 5050 3175 
L 4975 3225 
z
" transform="scale(0.015625)"/>
       <path id="SimSun-503c" d="M 1525 650 
Q 1525 -225 1550 -525 
L 1175 -650 
Q 1200 250 1200 550 
L 1200 3025 
Q 750 2300 325 1850 
L 250 1900 
Q 725 2625 1100 3525 
Q 1475 4425 1675 5200 
L 2200 4875 
L 1950 4725 
Q 1550 3800 1425 3475 
L 1725 3300 
L 1525 3150 
L 1525 650 
z
M 2875 3225 
L 2875 2475 
L 4800 2475 
L 4800 3225 
L 2875 3225 
z
M 2875 2325 
L 2875 1575 
L 4800 1575 
L 4800 2325 
L 2875 2325 
z
M 2875 1425 
L 2875 675 
L 4800 675 
L 4800 1425 
L 2875 1425 
z
M 2875 525 
L 2875 -225 
L 4800 -225 
L 4800 525 
L 2875 525 
z
M 3550 4250 
Q 3575 4825 3550 5225 
L 4125 4950 
L 3925 4800 
L 3900 4250 
L 5025 4250 
L 5350 4575 
L 5825 4100 
L 3900 4100 
L 3875 3375 
L 4750 3375 
L 4975 3625 
L 5350 3300 
L 5125 3150 
L 5125 -225 
L 5350 -225 
L 5675 100 
L 6150 -375 
L 2450 -375 
Q 2125 -375 1850 -450 
L 1625 -225 
L 2550 -225 
L 2550 2550 
Q 2550 2850 2525 3575 
L 2875 3375 
L 3525 3375 
L 3550 4100 
L 2800 4100 
Q 2475 4100 2200 4025 
L 1975 4250 
L 3550 4250 
z
" transform="scale(0.015625)"/>
      </defs>
      <use xlink:href="#SimSun-771f"/>
      <use xlink:href="#SimSun-5b9e" x="100"/>
      <use xlink:href="#SimSun-503c" x="200"/>
     </g>
    </g>
    <g id="line2d_17">
     <path d="M 74.6375 82.6375 
L 94.6375 82.6375 
L 114.6375 82.6375 
" style="fill: none; stroke: #ff7f0e; stroke-width: 1.5; stroke-linecap: square"/>
    </g>
    <g id="text_16">
     <!-- 预测值 -->
     <g transform="translate(130.6375 89.6375) scale(0.2 -0.2)">
      <defs>
       <path id="SimSun-9884" d="M 475 4825 
L 2225 4825 
L 2425 5075 
L 2825 4675 
Q 2600 4625 2387 4412 
Q 2175 4200 1800 3750 
Q 2050 3575 2037 3400 
Q 2025 3225 1937 3150 
Q 1850 3075 1825 3075 
Q 1725 3075 1650 3300 
Q 1525 3600 1050 4100 
L 1100 4150 
Q 1475 3975 1700 3825 
L 2225 4675 
L 1300 4675 
Q 975 4675 700 4600 
L 475 4825 
z
M 725 100 
Q 1175 50 1362 37 
Q 1550 25 1550 275 
L 1550 2875 
L 1125 2875 
Q 800 2875 525 2800 
L 300 3025 
L 2525 3025 
L 2725 3275 
L 3150 2875 
Q 2800 2825 2275 2075 
L 2200 2125 
L 2550 2875 
L 1875 2875 
L 1875 150 
Q 1875 -400 1350 -500 
Q 1325 -175 725 0 
L 725 100 
z
M 3250 775 
Q 3275 1425 3275 2287 
Q 3275 3150 3250 3900 
L 3600 3700 
L 4050 3700 
Q 4175 4400 4200 4675 
L 3650 4675 
Q 3325 4675 3050 4600 
L 2825 4825 
L 5325 4825 
L 5675 5150 
L 6125 4675 
L 4675 4675 
Q 4500 4425 4175 3700 
L 5300 3700 
L 5475 3975 
L 5875 3675 
L 5675 3475 
L 5675 1950 
Q 5675 1525 5700 1075 
L 5350 875 
L 5350 3550 
L 3600 3550 
L 3600 1000 
L 3250 775 
z
M 4850 2875 
L 4625 2675 
Q 4625 1475 4475 937 
Q 4325 400 3900 50 
Q 3475 -300 2425 -625 
L 2400 -550 
Q 3500 -50 3837 400 
Q 4175 850 4237 1587 
Q 4300 2325 4275 3175 
L 4850 2875 
z
M 4650 950 
Q 5725 375 5875 212 
Q 6025 50 6025 -125 
Q 6025 -225 5962 -387 
Q 5900 -550 5850 -550 
Q 5800 -550 5750 -450 
Q 5625 -250 5437 0 
Q 5250 250 4600 875 
L 4650 950 
z
" transform="scale(0.015625)"/>
       <path id="SimSun-6d4b" d="M 1975 1000 
Q 2000 1475 2000 2925 
Q 2000 4375 1975 5000 
L 2350 4775 
L 3575 4775 
L 3775 4975 
L 4100 4650 
L 3900 4500 
L 3900 2350 
Q 3900 1850 3925 1350 
L 3600 1200 
L 3600 4625 
L 2325 4625 
L 2325 1150 
L 1975 1000 
z
M 2775 3975 
L 3300 3700 
L 3125 3525 
Q 3150 1825 2875 937 
Q 2600 50 1375 -600 
L 1325 -500 
Q 2200 100 2475 725 
Q 2750 1350 2775 2187 
Q 2800 3025 2775 3975 
z
M 3100 950 
Q 3825 450 3937 262 
Q 4050 75 4050 -25 
Q 4050 -150 3975 -262 
Q 3900 -375 3850 -375 
Q 3750 -375 3650 -75 
Q 3500 375 3050 875 
L 3100 950 
z
M 4475 825 
Q 4500 1200 4500 1700 
L 4500 3400 
Q 4500 3950 4475 4300 
L 5025 4025 
L 4825 3825 
L 4825 1700 
Q 4825 1325 4850 950 
L 4475 825 
z
M 5375 150 
L 5375 4050 
Q 5375 4750 5350 5125 
L 5875 4875 
L 5700 4700 
L 5700 75 
Q 5700 -200 5600 -350 
Q 5500 -500 5200 -600 
Q 5025 -225 4450 -50 
L 4450 50 
Q 5125 -50 5250 -37 
Q 5375 -25 5375 150 
z
M 1850 3500 
Q 1375 1525 1300 1225 
Q 1200 900 1212 450 
Q 1225 0 1250 -175 
Q 1250 -275 1125 -275 
Q 1025 -275 875 -225 
Q 725 -175 725 0 
Q 725 125 800 375 
Q 875 625 875 775 
Q 875 950 762 1050 
Q 650 1150 275 1250 
L 275 1350 
Q 725 1300 837 1312 
Q 950 1325 1087 1537 
Q 1225 1750 1750 3525 
L 1850 3500 
z
M 375 3775 
Q 1075 3350 1112 3100 
Q 1150 2850 1050 2775 
Q 950 2700 900 2700 
Q 800 2700 725 2975 
Q 600 3350 325 3700 
L 375 3775 
z
M 800 5100 
Q 1475 4725 1550 4512 
Q 1625 4300 1525 4187 
Q 1425 4075 1350 4075 
Q 1275 4075 1200 4300 
Q 1075 4650 750 5025 
L 800 5100 
z
" transform="scale(0.015625)"/>
      </defs>
      <use xlink:href="#SimSun-9884"/>
      <use xlink:href="#SimSun-6d4b" x="100"/>
      <use xlink:href="#SimSun-503c" x="200"/>
     </g>
    </g>
   </g>
  </g>
  <g id="axes_2">
   <g id="patch_8">
    <path d="M 56.6375 527.940625 
L 1386.101293 527.940625 
L 1386.101293 311.020625 
L 56.6375 311.020625 
z
" style="fill: #ffffff"/>
   </g>
   <g id="matplotlib.axis_3">
    <g id="xtick_9">
     <g id="line2d_18">
      <g>
       <use xlink:href="#m81894f0e51" x="117.067672" y="527.940625" style="stroke: #000000; stroke-width: 0.8"/>
      </g>
     </g>
     <g id="text_17">
      <!-- 0 -->
      <g transform="translate(112.067672 548.828125) scale(0.2 -0.2)">
       <use xlink:href="#TimesNewRomanPSMT-30"/>
      </g>
     </g>
    </g>
    <g id="xtick_10">
     <g id="line2d_19">
      <g>
       <use xlink:href="#m81894f0e51" x="297.996332" y="527.940625" style="stroke: #000000; stroke-width: 0.8"/>
      </g>
     </g>
     <g id="text_18">
      <!-- 25 -->
      <g transform="translate(287.996332 548.828125) scale(0.2 -0.2)">
       <use xlink:href="#TimesNewRomanPSMT-32"/>
       <use xlink:href="#TimesNewRomanPSMT-35" x="50"/>
      </g>
     </g>
    </g>
    <g id="xtick_11">
     <g id="line2d_20">
      <g>
       <use xlink:href="#m81894f0e51" x="478.924992" y="527.940625" style="stroke: #000000; stroke-width: 0.8"/>
      </g>
     </g>
     <g id="text_19">
      <!-- 50 -->
      <g transform="translate(468.924992 548.828125) scale(0.2 -0.2)">
       <use xlink:href="#TimesNewRomanPSMT-35"/>
       <use xlink:href="#TimesNewRomanPSMT-30" x="50"/>
      </g>
     </g>
    </g>
    <g id="xtick_12">
     <g id="line2d_21">
      <g>
       <use xlink:href="#m81894f0e51" x="659.853652" y="527.940625" style="stroke: #000000; stroke-width: 0.8"/>
      </g>
     </g>
     <g id="text_20">
      <!-- 75 -->
      <g transform="translate(649.853652 548.828125) scale(0.2 -0.2)">
       <use xlink:href="#TimesNewRomanPSMT-37"/>
       <use xlink:href="#TimesNewRomanPSMT-35" x="50"/>
      </g>
     </g>
    </g>
    <g id="xtick_13">
     <g id="line2d_22">
      <g>
       <use xlink:href="#m81894f0e51" x="840.782312" y="527.940625" style="stroke: #000000; stroke-width: 0.8"/>
      </g>
     </g>
     <g id="text_21">
      <!-- 100 -->
      <g transform="translate(825.782312 548.828125) scale(0.2 -0.2)">
       <use xlink:href="#TimesNewRomanPSMT-31"/>
       <use xlink:href="#TimesNewRomanPSMT-30" x="50"/>
       <use xlink:href="#TimesNewRomanPSMT-30" x="100"/>
      </g>
     </g>
    </g>
    <g id="xtick_14">
     <g id="line2d_23">
      <g>
       <use xlink:href="#m81894f0e51" x="1021.710972" y="527.940625" style="stroke: #000000; stroke-width: 0.8"/>
      </g>
     </g>
     <g id="text_22">
      <!-- 125 -->
      <g transform="translate(1006.710972 548.828125) scale(0.2 -0.2)">
       <use xlink:href="#TimesNewRomanPSMT-31"/>
       <use xlink:href="#TimesNewRomanPSMT-32" x="50"/>
       <use xlink:href="#TimesNewRomanPSMT-35" x="100"/>
      </g>
     </g>
    </g>
    <g id="xtick_15">
     <g id="line2d_24">
      <g>
       <use xlink:href="#m81894f0e51" x="1202.639632" y="527.940625" style="stroke: #000000; stroke-width: 0.8"/>
      </g>
     </g>
     <g id="text_23">
      <!-- 150 -->
      <g transform="translate(1187.639632 548.828125) scale(0.2 -0.2)">
       <use xlink:href="#TimesNewRomanPSMT-31"/>
       <use xlink:href="#TimesNewRomanPSMT-35" x="50"/>
       <use xlink:href="#TimesNewRomanPSMT-30" x="100"/>
      </g>
     </g>
    </g>
    <g id="xtick_16">
     <g id="line2d_25">
      <g>
       <use xlink:href="#m81894f0e51" x="1383.568292" y="527.940625" style="stroke: #000000; stroke-width: 0.8"/>
      </g>
     </g>
     <g id="text_24">
      <!-- 175 -->
      <g transform="translate(1368.568292 548.828125) scale(0.2 -0.2)">
       <use xlink:href="#TimesNewRomanPSMT-31"/>
       <use xlink:href="#TimesNewRomanPSMT-37" x="50"/>
       <use xlink:href="#TimesNewRomanPSMT-35" x="100"/>
      </g>
     </g>
    </g>
   </g>
   <g id="matplotlib.axis_4">
    <g id="ytick_5">
     <g id="line2d_26">
      <g>
       <use xlink:href="#m191df8e361" x="56.6375" y="521.400487" style="stroke: #000000; stroke-width: 0.8"/>
      </g>
     </g>
     <g id="text_25">
      <!-- 2 -->
      <g transform="translate(39.6375 528.344237) scale(0.2 -0.2)">
       <use xlink:href="#TimesNewRomanPSMT-32"/>
      </g>
     </g>
    </g>
    <g id="ytick_6">
     <g id="line2d_27">
      <g>
       <use xlink:href="#m191df8e361" x="56.6375" y="455.003181" style="stroke: #000000; stroke-width: 0.8"/>
      </g>
     </g>
     <g id="text_26">
      <!-- 4 -->
      <g transform="translate(39.6375 461.946931) scale(0.2 -0.2)">
       <use xlink:href="#TimesNewRomanPSMT-34"/>
      </g>
     </g>
    </g>
    <g id="ytick_7">
     <g id="line2d_28">
      <g>
       <use xlink:href="#m191df8e361" x="56.6375" y="388.605876" style="stroke: #000000; stroke-width: 0.8"/>
      </g>
     </g>
     <g id="text_27">
      <!-- 6 -->
      <g transform="translate(39.6375 395.549626) scale(0.2 -0.2)">
       <use xlink:href="#TimesNewRomanPSMT-36"/>
      </g>
     </g>
    </g>
    <g id="ytick_8">
     <g id="line2d_29">
      <g>
       <use xlink:href="#m191df8e361" x="56.6375" y="322.20857" style="stroke: #000000; stroke-width: 0.8"/>
      </g>
     </g>
     <g id="text_28">
      <!-- 8 -->
      <g transform="translate(39.6375 329.15232) scale(0.2 -0.2)">
       <use xlink:href="#TimesNewRomanPSMT-38"/>
      </g>
     </g>
    </g>
    <g id="text_29">
     <!-- CPU使用率 -->
     <g transform="translate(33.059375 464.480625) rotate(-90) scale(0.2 -0.2)">
      <use xlink:href="#SimSun-43"/>
      <use xlink:href="#SimSun-50" x="50"/>
      <use xlink:href="#SimSun-55" x="100"/>
      <use xlink:href="#SimSun-4f7f" x="150"/>
      <use xlink:href="#SimSun-7528" x="250"/>
      <use xlink:href="#SimSun-7387" x="350"/>
     </g>
    </g>
   </g>
   <g id="line2d_30">
    <path d="M 117.067672 496.501497 
L 124.304819 475.58635 
L 131.541965 481.894088 
L 138.779112 468.614632 
L 146.016258 494.841566 
L 153.253404 491.521696 
L 160.490551 506.461092 
L 167.727697 497.497456 
L 174.964844 509.448976 
L 182.20199 498.825401 
L 189.439136 510.11294 
L 196.676283 482.558061 
L 203.913429 485.213958 
L 211.150576 486.873889 
L 218.387722 487.537862 
L 225.624868 471.270522 
L 232.862015 479.570185 
L 240.099161 500.485332 
L 247.336308 511.108907 
L 254.573454 499.489373 
L 261.8106 493.8456 
L 269.047747 474.590384 
L 276.284893 481.230116 
L 283.52204 468.282646 
L 290.759186 478.24224 
L 297.996332 483.222033 
L 305.233479 485.545945 
L 312.470625 486.873889 
L 319.707771 421.140556 
L 326.944918 438.071861 
L 334.182064 446.703518 
L 341.419211 450.687353 
L 348.656357 453.011264 
L 355.893503 470.606549 
L 363.13065 479.238199 
L 370.367796 500.485332 
L 377.604943 477.57826 
L 384.842089 449.691402 
L 392.079235 419.148639 
L 399.316382 320.880625 
L 406.553528 371.342577 
L 413.790675 379.974234 
L 421.027821 384.290047 
L 428.264967 403.213285 
L 435.502114 395.909572 
L 442.73926 425.456385 
L 449.976407 456.663112 
L 457.213553 422.800495 
L 464.450699 405.537196 
L 471.687846 330.840227 
L 478.924992 426.120357 
L 486.162139 423.796446 
L 493.399285 389.601842 
L 500.636431 389.269848 
L 507.873578 372.338527 
L 515.110724 430.104192 
L 522.347871 475.918329 
L 529.585017 465.294762 
L 536.822163 410.516981 
L 544.05931 449.359408 
L 551.296456 485.213958 
L 558.533603 470.274563 
L 565.770749 479.238199 
L 573.007895 500.153354 
L 580.245042 494.177586 
L 587.482188 474.590384 
L 594.719335 498.161429 
L 601.956481 509.780962 
L 609.193627 498.825401 
L 616.430774 493.513622 
L 623.66792 490.857724 
L 630.905066 489.529779 
L 638.142213 505.465133 
L 645.379359 496.833484 
L 652.616506 492.517655 
L 659.853652 490.525738 
L 667.090798 505.797119 
L 674.327945 513.764796 
L 681.565091 500.817318 
L 688.802238 494.50958 
L 696.039384 508.121031 
L 703.27653 514.760755 
L 710.513677 518.080625 
L 717.750823 503.14123 
L 724.98797 495.505531 
L 732.225116 508.453009 
L 739.462262 498.493415 
L 746.699409 493.181635 
L 753.936555 391.261765 
L 761.173702 323.536515 
L 768.410848 372.670522 
L 775.647994 413.836859 
L 782.885141 334.824062 
L 790.122287 394.913622 
L 797.359434 457.991057 
L 804.59658 473.262439 
L 811.833726 414.168838 
L 819.070873 434.751999 
L 826.308019 477.910254 
L 833.545166 483.222033 
L 840.782312 485.545945 
L 848.019458 470.274563 
L 855.256605 346.443587 
L 862.493751 434.088026 
L 869.730898 377.982301 
L 876.968044 449.691402 
L 884.20519 419.148639 
L 891.442337 470.274563 
L 898.679483 429.440219 
L 905.91663 475.58635 
L 913.153776 481.894088 
L 920.390922 484.881972 
L 927.628069 486.541903 
L 934.865215 371.342577 
L 942.102361 429.772198 
L 949.339508 475.58635 
L 956.576654 498.493415 
L 963.813801 493.181635 
L 971.050947 441.059745 
L 978.288093 481.230116 
L 985.52524 501.149304 
L 992.762386 511.440893 
L 999.999533 499.82136 
L 1007.236679 493.8456 
L 1014.473825 457.991057 
L 1021.710972 489.529779 
L 1028.948118 488.865807 
L 1036.185265 488.53382 
L 1043.422411 488.53382 
L 1050.659557 488.201834 
L 1057.896704 488.201834 
L 1065.13385 471.602508 
L 1072.370997 479.902171 
L 1079.608143 500.817318 
L 1086.845289 511.108907 
L 1094.082436 499.489373 
L 1101.319582 493.8456 
L 1108.556729 507.789037 
L 1115.793875 514.428769 
L 1123.031021 501.481299 
L 1130.268168 494.841566 
L 1137.505314 491.521696 
L 1144.742461 489.861765 
L 1151.979607 488.865807 
L 1159.216753 405.537196 
L 1166.4539 413.836859 
L 1173.691046 467.618673 
L 1180.928193 477.910254 
L 1188.165339 499.489373 
L 1195.402485 493.8456 
L 1202.639632 491.18971 
L 1209.876778 439.7318 
L 1217.113925 347.771532 
L 1224.351071 368.354693 
L 1231.588217 444.711601 
L 1238.825364 450.02338 
L 1246.06251 435.747965 
L 1253.299657 395.577594 
L 1260.536803 342.459753 
L 1267.773949 332.168172 
L 1275.011096 410.185003 
L 1282.248242 449.359408 
L 1289.485388 468.614632 
L 1296.722535 395.577594 
L 1303.959681 325.528432 
L 1311.196828 406.865141 
L 1318.433974 431.100158 
L 1325.67112 426.452335 
L 1325.67112 426.452335 
" clip-path="url(#pc56ad369ad)" style="fill: none; stroke: #1f77b4; stroke-width: 1.5; stroke-linecap: square"/>
   </g>
   <g id="line2d_31">
    <path d="M 1159.216753 449.247503 
L 1166.4539 447.611737 
L 1173.691046 444.331403 
L 1180.928193 447.965498 
L 1188.165339 442.422215 
L 1195.402485 434.536168 
L 1202.639632 435.734319 
L 1209.876778 438.180125 
L 1217.113925 431.594588 
L 1224.351071 438.788216 
L 1231.588217 428.632301 
L 1238.825364 436.983936 
L 1246.06251 431.740369 
L 1253.299657 428.961319 
L 1260.536803 426.423382 
L 1267.773949 435.027146 
L 1275.011096 434.412406 
L 1282.248242 428.386583 
L 1289.485388 424.141437 
L 1296.722535 433.029767 
L 1303.959681 430.194678 
L 1311.196828 431.323002 
L 1318.433974 424.22396 
L 1325.67112 435.393904 
" clip-path="url(#pc56ad369ad)" style="fill: none; stroke: #ff7f0e; stroke-width: 1.5; stroke-linecap: square"/>
   </g>
   <g id="line2d_32">
    <path d="M 1159.216753 527.940625 
L 1159.216753 311.020625 
" clip-path="url(#pc56ad369ad)" style="fill: none; stroke-dasharray: 7.4,3.2; stroke-dashoffset: 0; stroke: #0000ff; stroke-width: 2"/>
   </g>
   <g id="patch_9">
    <path d="M 56.6375 527.940625 
L 56.6375 311.020625 
" style="fill: none; stroke: #000000; stroke-width: 0.8; stroke-linejoin: miter; stroke-linecap: square"/>
   </g>
   <g id="patch_10">
    <path d="M 1386.101293 527.940625 
L 1386.101293 311.020625 
" style="fill: none; stroke: #000000; stroke-width: 0.8; stroke-linejoin: miter; stroke-linecap: square"/>
   </g>
   <g id="patch_11">
    <path d="M 56.6375 527.940625 
L 1386.101293 527.940625 
" style="fill: none; stroke: #000000; stroke-width: 0.8; stroke-linejoin: miter; stroke-linecap: square"/>
   </g>
   <g id="patch_12">
    <path d="M 56.6375 311.020625 
L 1386.101293 311.020625 
" style="fill: none; stroke: #000000; stroke-width: 0.8; stroke-linejoin: miter; stroke-linecap: square"/>
   </g>
   <g id="text_30">
    <!-- API_ID: 3 -->
    <g transform="translate(676.369396 305.020625) scale(0.2 -0.2)">
     <defs>
      <path id="SimSun-33" d="M 2800 1250 
Q 2800 775 2450 412 
Q 2100 50 1475 50 
Q 1025 50 700 300 
Q 375 550 375 875 
Q 375 1025 475 1137 
Q 575 1250 675 1250 
Q 825 1250 887 1137 
Q 950 1025 950 950 
Q 950 825 900 750 
Q 850 650 850 575 
Q 850 425 1037 325 
Q 1225 225 1450 225 
Q 1900 225 2125 487 
Q 2350 750 2350 1300 
Q 2350 1750 2112 2025 
Q 1875 2300 1225 2300 
L 1225 2475 
Q 1725 2475 1962 2712 
Q 2200 2950 2200 3375 
Q 2200 3725 2012 3987 
Q 1825 4250 1425 4250 
Q 1250 4250 1050 4162 
Q 850 4075 850 3875 
Q 850 3675 900 3625 
Q 950 3575 950 3500 
Q 950 3375 900 3300 
Q 850 3225 725 3225 
Q 625 3225 537 3300 
Q 450 3375 450 3575 
Q 450 3950 775 4187 
Q 1100 4425 1525 4425 
Q 2025 4425 2325 4112 
Q 2625 3800 2625 3450 
Q 2625 3075 2437 2812 
Q 2250 2550 1850 2425 
Q 2400 2225 2600 1900 
Q 2800 1575 2800 1250 
z
" transform="scale(0.015625)"/>
     </defs>
     <use xlink:href="#SimSun-41"/>
     <use xlink:href="#SimSun-50" x="50"/>
     <use xlink:href="#SimSun-49" x="100"/>
     <use xlink:href="#SimSun-5f" x="150"/>
     <use xlink:href="#SimSun-49" x="200"/>
     <use xlink:href="#SimSun-44" x="250"/>
     <use xlink:href="#SimSun-3a" x="300"/>
     <use xlink:href="#SimSun-20" x="350"/>
     <use xlink:href="#SimSun-33" x="400"/>
    </g>
   </g>
  </g>
  <g id="axes_3">
   <g id="patch_13">
    <path d="M 56.6375 811.620625 
L 1386.101293 811.620625 
L 1386.101293 594.700625 
L 56.6375 594.700625 
z
" style="fill: #ffffff"/>
   </g>
   <g id="matplotlib.axis_5">
    <g id="xtick_17">
     <g id="line2d_33">
      <g>
       <use xlink:href="#m81894f0e51" x="117.067672" y="811.620625" style="stroke: #000000; stroke-width: 0.8"/>
      </g>
     </g>
     <g id="text_31">
      <!-- 0 -->
      <g transform="translate(112.067672 832.508125) scale(0.2 -0.2)">
       <use xlink:href="#TimesNewRomanPSMT-30"/>
      </g>
     </g>
    </g>
    <g id="xtick_18">
     <g id="line2d_34">
      <g>
       <use xlink:href="#m81894f0e51" x="297.996332" y="811.620625" style="stroke: #000000; stroke-width: 0.8"/>
      </g>
     </g>
     <g id="text_32">
      <!-- 25 -->
      <g transform="translate(287.996332 832.508125) scale(0.2 -0.2)">
       <use xlink:href="#TimesNewRomanPSMT-32"/>
       <use xlink:href="#TimesNewRomanPSMT-35" x="50"/>
      </g>
     </g>
    </g>
    <g id="xtick_19">
     <g id="line2d_35">
      <g>
       <use xlink:href="#m81894f0e51" x="478.924992" y="811.620625" style="stroke: #000000; stroke-width: 0.8"/>
      </g>
     </g>
     <g id="text_33">
      <!-- 50 -->
      <g transform="translate(468.924992 832.508125) scale(0.2 -0.2)">
       <use xlink:href="#TimesNewRomanPSMT-35"/>
       <use xlink:href="#TimesNewRomanPSMT-30" x="50"/>
      </g>
     </g>
    </g>
    <g id="xtick_20">
     <g id="line2d_36">
      <g>
       <use xlink:href="#m81894f0e51" x="659.853652" y="811.620625" style="stroke: #000000; stroke-width: 0.8"/>
      </g>
     </g>
     <g id="text_34">
      <!-- 75 -->
      <g transform="translate(649.853652 832.508125) scale(0.2 -0.2)">
       <use xlink:href="#TimesNewRomanPSMT-37"/>
       <use xlink:href="#TimesNewRomanPSMT-35" x="50"/>
      </g>
     </g>
    </g>
    <g id="xtick_21">
     <g id="line2d_37">
      <g>
       <use xlink:href="#m81894f0e51" x="840.782312" y="811.620625" style="stroke: #000000; stroke-width: 0.8"/>
      </g>
     </g>
     <g id="text_35">
      <!-- 100 -->
      <g transform="translate(825.782312 832.508125) scale(0.2 -0.2)">
       <use xlink:href="#TimesNewRomanPSMT-31"/>
       <use xlink:href="#TimesNewRomanPSMT-30" x="50"/>
       <use xlink:href="#TimesNewRomanPSMT-30" x="100"/>
      </g>
     </g>
    </g>
    <g id="xtick_22">
     <g id="line2d_38">
      <g>
       <use xlink:href="#m81894f0e51" x="1021.710972" y="811.620625" style="stroke: #000000; stroke-width: 0.8"/>
      </g>
     </g>
     <g id="text_36">
      <!-- 125 -->
      <g transform="translate(1006.710972 832.508125) scale(0.2 -0.2)">
       <use xlink:href="#TimesNewRomanPSMT-31"/>
       <use xlink:href="#TimesNewRomanPSMT-32" x="50"/>
       <use xlink:href="#TimesNewRomanPSMT-35" x="100"/>
      </g>
     </g>
    </g>
    <g id="xtick_23">
     <g id="line2d_39">
      <g>
       <use xlink:href="#m81894f0e51" x="1202.639632" y="811.620625" style="stroke: #000000; stroke-width: 0.8"/>
      </g>
     </g>
     <g id="text_37">
      <!-- 150 -->
      <g transform="translate(1187.639632 832.508125) scale(0.2 -0.2)">
       <use xlink:href="#TimesNewRomanPSMT-31"/>
       <use xlink:href="#TimesNewRomanPSMT-35" x="50"/>
       <use xlink:href="#TimesNewRomanPSMT-30" x="100"/>
      </g>
     </g>
    </g>
    <g id="xtick_24">
     <g id="line2d_40">
      <g>
       <use xlink:href="#m81894f0e51" x="1383.568292" y="811.620625" style="stroke: #000000; stroke-width: 0.8"/>
      </g>
     </g>
     <g id="text_38">
      <!-- 175 -->
      <g transform="translate(1368.568292 832.508125) scale(0.2 -0.2)">
       <use xlink:href="#TimesNewRomanPSMT-31"/>
       <use xlink:href="#TimesNewRomanPSMT-37" x="50"/>
       <use xlink:href="#TimesNewRomanPSMT-35" x="100"/>
      </g>
     </g>
    </g>
   </g>
   <g id="matplotlib.axis_6">
    <g id="ytick_9">
     <g id="line2d_41">
      <g>
       <use xlink:href="#m191df8e361" x="56.6375" y="795.21348" style="stroke: #000000; stroke-width: 0.8"/>
      </g>
     </g>
     <g id="text_39">
      <!-- 2 -->
      <g transform="translate(39.6375 802.15723) scale(0.2 -0.2)">
       <use xlink:href="#TimesNewRomanPSMT-32"/>
      </g>
     </g>
    </g>
    <g id="ytick_10">
     <g id="line2d_42">
      <g>
       <use xlink:href="#m191df8e361" x="56.6375" y="742.83632" style="stroke: #000000; stroke-width: 0.8"/>
      </g>
     </g>
     <g id="text_40">
      <!-- 4 -->
      <g transform="translate(39.6375 749.78007) scale(0.2 -0.2)">
       <use xlink:href="#TimesNewRomanPSMT-34"/>
      </g>
     </g>
    </g>
    <g id="ytick_11">
     <g id="line2d_43">
      <g>
       <use xlink:href="#m191df8e361" x="56.6375" y="690.45916" style="stroke: #000000; stroke-width: 0.8"/>
      </g>
     </g>
     <g id="text_41">
      <!-- 6 -->
      <g transform="translate(39.6375 697.40291) scale(0.2 -0.2)">
       <use xlink:href="#TimesNewRomanPSMT-36"/>
      </g>
     </g>
    </g>
    <g id="ytick_12">
     <g id="line2d_44">
      <g>
       <use xlink:href="#m191df8e361" x="56.6375" y="638.082" style="stroke: #000000; stroke-width: 0.8"/>
      </g>
     </g>
     <g id="text_42">
      <!-- 8 -->
      <g transform="translate(39.6375 645.02575) scale(0.2 -0.2)">
       <use xlink:href="#TimesNewRomanPSMT-38"/>
      </g>
     </g>
    </g>
    <g id="text_43">
     <!-- CPU使用率 -->
     <g transform="translate(33.059375 748.160625) rotate(-90) scale(0.2 -0.2)">
      <use xlink:href="#SimSun-43"/>
      <use xlink:href="#SimSun-50" x="50"/>
      <use xlink:href="#SimSun-55" x="100"/>
      <use xlink:href="#SimSun-4f7f" x="150"/>
      <use xlink:href="#SimSun-7528" x="250"/>
      <use xlink:href="#SimSun-7387" x="350"/>
     </g>
    </g>
   </g>
   <g id="line2d_45">
    <path d="M 117.067672 793.904046 
L 124.304819 781.595419 
L 131.541965 788.404449 
L 138.779112 791.808962 
L 146.016258 780.285985 
L 153.253404 774.786382 
L 160.490551 784.999931 
L 167.727697 789.975763 
L 174.964844 779.500335 
L 182.20199 774.262617 
L 189.439136 771.643756 
L 196.676283 770.334328 
L 211.150576 769.286786 
L 218.387722 782.381076 
L 225.624868 683.912015 
L 232.862015 608.750794 
L 240.099161 662.699267 
L 247.336308 728.956367 
L 254.573454 748.859694 
L 261.8106 772.167527 
L 269.047747 757.501923 
L 276.284893 750.169122 
L 283.52204 746.502724 
L 290.759186 705.386655 
L 297.996332 645.414808 
L 305.233479 720.314138 
L 312.470625 731.575235 
L 319.707771 724.242427 
L 326.944918 746.502724 
L 334.182064 770.858099 
L 341.419211 756.978152 
L 348.656357 763.001526 
L 355.893503 739.693694 
L 363.13065 741.265007 
L 370.367796 742.05067 
L 377.604943 768.763015 
L 384.842089 768.763015 
L 392.079235 742.83632 
L 399.316382 755.93061 
L 406.553528 749.383465 
L 413.790675 706.696077 
L 421.027821 698.577619 
L 428.264967 733.932199 
L 435.502114 751.47855 
L 442.73926 773.215075 
L 449.976407 771.119984 
L 457.213553 770.072442 
L 464.450699 769.548671 
L 471.687846 769.286786 
L 478.924992 769.286786 
L 486.162139 769.0249 
L 493.399285 769.0249 
L 500.636431 782.11919 
L 507.873578 801.760625 
L 515.110724 785.523702 
L 522.347871 777.143358 
L 529.585017 760.120785 
L 536.822163 777.667129 
L 544.05931 773.215075 
L 551.296456 771.119984 
L 558.533603 770.072442 
L 565.770749 782.642961 
L 573.007895 788.928221 
L 580.245042 792.070847 
L 587.482188 767.453587 
L 594.719335 781.333527 
L 601.956481 775.31016 
L 609.193627 785.261817 
L 616.430774 777.143358 
L 623.66792 772.95319 
L 630.905066 784.214274 
L 638.142213 776.619587 
L 645.379359 772.691298 
L 652.616506 679.198075 
L 659.853652 698.053847 
L 667.090798 681.031268 
L 674.327945 711.9338 
L 681.565091 714.290764 
L 688.802238 754.883068 
L 696.039384 775.048274 
L 703.27653 667.151328 
L 710.513677 731.313343 
L 717.750823 737.074838 
L 724.98797 726.861283 
L 732.225116 747.812152 
L 739.462262 745.455182 
L 746.699409 639.391434 
L 753.936555 677.888641 
L 761.173702 710.362487 
L 768.410848 700.410824 
L 775.647994 747.812152 
L 782.885141 758.549466 
L 790.122287 711.410029 
L 797.359434 753.311755 
L 804.59658 748.074037 
L 811.833726 758.549466 
L 819.070873 763.787183 
L 826.308019 753.311755 
L 833.545166 734.979741 
L 840.782312 752.002321 
L 848.019458 773.476954 
L 855.256605 771.38187 
L 862.493751 770.072442 
L 869.730898 769.548671 
L 876.968044 756.192496 
L 884.20519 775.833931 
L 891.442337 772.429412 
L 898.679483 770.596213 
L 905.91663 769.810557 
L 913.153776 769.548671 
L 920.390922 782.381076 
L 927.628069 775.572045 
L 934.865215 772.429412 
L 942.102361 783.690503 
L 949.339508 776.357702 
L 956.576654 772.691298 
L 963.813801 770.858099 
L 971.050947 770.072442 
L 978.288093 782.642961 
L 985.52524 775.833931 
L 992.762386 772.429412 
L 999.999533 770.596213 
L 1007.236679 782.904847 
L 1014.473825 776.095816 
L 1021.710972 759.335122 
L 1028.948118 777.405244 
L 1036.185265 773.215075 
L 1043.422411 784.214274 
L 1050.659557 763.525297 
L 1057.896704 726.861283 
L 1065.13385 761.168327 
L 1072.370997 699.625161 
L 1079.608143 747.288381 
L 1086.845289 758.28758 
L 1094.082436 776.619587 
L 1101.319582 733.67032 
L 1108.556729 698.83951 
L 1115.793875 747.026495 
L 1123.031021 758.025694 
L 1130.268168 737.336717 
L 1137.505314 740.217465 
L 1144.742461 741.526899 
L 1151.979607 715.862077 
L 1159.216753 755.668725 
L 1166.4539 762.21587 
L 1173.691046 765.620388 
L 1180.928193 741.265007 
L 1188.165339 728.956367 
L 1195.402485 709.576824 
L 1202.639632 739.431802 
L 1209.876778 727.908825 
L 1217.113925 604.560625 
L 1224.351071 686.792763 
L 1231.588217 675.531665 
L 1238.825364 722.147343 
L 1246.06251 680.245618 
L 1253.299657 632.844289 
L 1260.536803 661.651725 
L 1267.773949 728.432596 
L 1275.011096 748.859694 
L 1282.248242 719.528487 
L 1289.485388 744.407633 
L 1296.722535 717.433403 
L 1303.959681 743.098206 
L 1311.196828 756.192496 
L 1318.433974 775.572045 
L 1325.67112 772.429412 
L 1325.67112 772.429412 
" clip-path="url(#p9422783f44)" style="fill: none; stroke: #1f77b4; stroke-width: 1.5; stroke-linecap: square"/>
   </g>
   <g id="line2d_46">
    <path d="M 1159.216753 707.71757 
L 1166.4539 705.332933 
L 1173.691046 711.659958 
L 1180.928193 715.953312 
L 1188.165339 712.767254 
L 1195.402485 716.796319 
L 1202.639632 718.133251 
L 1209.876778 727.859461 
L 1217.113925 722.907793 
L 1224.351071 724.856772 
L 1231.588217 731.431527 
L 1238.825364 729.617778 
L 1246.06251 736.185303 
L 1253.299657 738.044769 
L 1260.536803 739.315217 
L 1267.773949 738.175528 
L 1275.011096 744.08163 
L 1282.248242 736.502515 
L 1289.485388 738.246158 
L 1296.722535 738.068558 
L 1303.959681 747.823372 
L 1311.196828 747.058801 
L 1318.433974 743.575317 
L 1325.67112 742.283478 
" clip-path="url(#p9422783f44)" style="fill: none; stroke: #ff7f0e; stroke-width: 1.5; stroke-linecap: square"/>
   </g>
   <g id="line2d_47">
    <path d="M 1159.216753 811.620625 
L 1159.216753 594.700625 
" clip-path="url(#p9422783f44)" style="fill: none; stroke-dasharray: 7.4,3.2; stroke-dashoffset: 0; stroke: #0000ff; stroke-width: 2"/>
   </g>
   <g id="patch_14">
    <path d="M 56.6375 811.620625 
L 56.6375 594.700625 
" style="fill: none; stroke: #000000; stroke-width: 0.8; stroke-linejoin: miter; stroke-linecap: square"/>
   </g>
   <g id="patch_15">
    <path d="M 1386.101293 811.620625 
L 1386.101293 594.700625 
" style="fill: none; stroke: #000000; stroke-width: 0.8; stroke-linejoin: miter; stroke-linecap: square"/>
   </g>
   <g id="patch_16">
    <path d="M 56.6375 811.620625 
L 1386.101293 811.620625 
" style="fill: none; stroke: #000000; stroke-width: 0.8; stroke-linejoin: miter; stroke-linecap: square"/>
   </g>
   <g id="patch_17">
    <path d="M 56.6375 594.700625 
L 1386.101293 594.700625 
" style="fill: none; stroke: #000000; stroke-width: 0.8; stroke-linejoin: miter; stroke-linecap: square"/>
   </g>
   <g id="text_44">
    <!-- API_ID: 4 -->
    <g transform="translate(676.369396 588.700625) scale(0.2 -0.2)">
     <defs>
      <path id="SimSun-34" d="M 2300 575 
Q 2300 400 2400 325 
Q 2500 250 2675 250 
L 2900 250 
L 2900 100 
L 1250 100 
L 1250 250 
L 1525 250 
Q 1725 250 1812 325 
Q 1900 400 1900 575 
L 1900 1400 
L 225 1400 
L 225 1525 
L 2050 4425 
L 2300 4425 
L 2300 1550 
L 2975 1550 
L 2975 1400 
L 2300 1400 
L 2300 575 
z
M 1875 3800 
L 450 1550 
L 1900 1550 
L 1900 3800 
L 1875 3800 
z
" transform="scale(0.015625)"/>
     </defs>
     <use xlink:href="#SimSun-41"/>
     <use xlink:href="#SimSun-50" x="50"/>
     <use xlink:href="#SimSun-49" x="100"/>
     <use xlink:href="#SimSun-5f" x="150"/>
     <use xlink:href="#SimSun-49" x="200"/>
     <use xlink:href="#SimSun-44" x="250"/>
     <use xlink:href="#SimSun-3a" x="300"/>
     <use xlink:href="#SimSun-20" x="350"/>
     <use xlink:href="#SimSun-34" x="400"/>
    </g>
   </g>
  </g>
  <g id="axes_4">
   <g id="patch_18">
    <path d="M 56.6375 1095.300625 
L 1386.101293 1095.300625 
L 1386.101293 878.380625 
L 56.6375 878.380625 
z
" style="fill: #ffffff"/>
   </g>
   <g id="matplotlib.axis_7">
    <g id="xtick_25">
     <g id="line2d_48">
      <g>
       <use xlink:href="#m81894f0e51" x="117.067672" y="1095.300625" style="stroke: #000000; stroke-width: 0.8"/>
      </g>
     </g>
     <g id="text_45">
      <!-- 0 -->
      <g transform="translate(112.067672 1116.188125) scale(0.2 -0.2)">
       <use xlink:href="#TimesNewRomanPSMT-30"/>
      </g>
     </g>
    </g>
    <g id="xtick_26">
     <g id="line2d_49">
      <g>
       <use xlink:href="#m81894f0e51" x="297.996332" y="1095.300625" style="stroke: #000000; stroke-width: 0.8"/>
      </g>
     </g>
     <g id="text_46">
      <!-- 25 -->
      <g transform="translate(287.996332 1116.188125) scale(0.2 -0.2)">
       <use xlink:href="#TimesNewRomanPSMT-32"/>
       <use xlink:href="#TimesNewRomanPSMT-35" x="50"/>
      </g>
     </g>
    </g>
    <g id="xtick_27">
     <g id="line2d_50">
      <g>
       <use xlink:href="#m81894f0e51" x="478.924992" y="1095.300625" style="stroke: #000000; stroke-width: 0.8"/>
      </g>
     </g>
     <g id="text_47">
      <!-- 50 -->
      <g transform="translate(468.924992 1116.188125) scale(0.2 -0.2)">
       <use xlink:href="#TimesNewRomanPSMT-35"/>
       <use xlink:href="#TimesNewRomanPSMT-30" x="50"/>
      </g>
     </g>
    </g>
    <g id="xtick_28">
     <g id="line2d_51">
      <g>
       <use xlink:href="#m81894f0e51" x="659.853652" y="1095.300625" style="stroke: #000000; stroke-width: 0.8"/>
      </g>
     </g>
     <g id="text_48">
      <!-- 75 -->
      <g transform="translate(649.853652 1116.188125) scale(0.2 -0.2)">
       <use xlink:href="#TimesNewRomanPSMT-37"/>
       <use xlink:href="#TimesNewRomanPSMT-35" x="50"/>
      </g>
     </g>
    </g>
    <g id="xtick_29">
     <g id="line2d_52">
      <g>
       <use xlink:href="#m81894f0e51" x="840.782312" y="1095.300625" style="stroke: #000000; stroke-width: 0.8"/>
      </g>
     </g>
     <g id="text_49">
      <!-- 100 -->
      <g transform="translate(825.782312 1116.188125) scale(0.2 -0.2)">
       <use xlink:href="#TimesNewRomanPSMT-31"/>
       <use xlink:href="#TimesNewRomanPSMT-30" x="50"/>
       <use xlink:href="#TimesNewRomanPSMT-30" x="100"/>
      </g>
     </g>
    </g>
    <g id="xtick_30">
     <g id="line2d_53">
      <g>
       <use xlink:href="#m81894f0e51" x="1021.710972" y="1095.300625" style="stroke: #000000; stroke-width: 0.8"/>
      </g>
     </g>
     <g id="text_50">
      <!-- 125 -->
      <g transform="translate(1006.710972 1116.188125) scale(0.2 -0.2)">
       <use xlink:href="#TimesNewRomanPSMT-31"/>
       <use xlink:href="#TimesNewRomanPSMT-32" x="50"/>
       <use xlink:href="#TimesNewRomanPSMT-35" x="100"/>
      </g>
     </g>
    </g>
    <g id="xtick_31">
     <g id="line2d_54">
      <g>
       <use xlink:href="#m81894f0e51" x="1202.639632" y="1095.300625" style="stroke: #000000; stroke-width: 0.8"/>
      </g>
     </g>
     <g id="text_51">
      <!-- 150 -->
      <g transform="translate(1187.639632 1116.188125) scale(0.2 -0.2)">
       <use xlink:href="#TimesNewRomanPSMT-31"/>
       <use xlink:href="#TimesNewRomanPSMT-35" x="50"/>
       <use xlink:href="#TimesNewRomanPSMT-30" x="100"/>
      </g>
     </g>
    </g>
    <g id="xtick_32">
     <g id="line2d_55">
      <g>
       <use xlink:href="#m81894f0e51" x="1383.568292" y="1095.300625" style="stroke: #000000; stroke-width: 0.8"/>
      </g>
     </g>
     <g id="text_52">
      <!-- 175 -->
      <g transform="translate(1368.568292 1116.188125) scale(0.2 -0.2)">
       <use xlink:href="#TimesNewRomanPSMT-31"/>
       <use xlink:href="#TimesNewRomanPSMT-37" x="50"/>
       <use xlink:href="#TimesNewRomanPSMT-35" x="100"/>
      </g>
     </g>
    </g>
   </g>
   <g id="matplotlib.axis_8">
    <g id="ytick_13">
     <g id="line2d_56">
      <g>
       <use xlink:href="#m191df8e361" x="56.6375" y="1052.2702" style="stroke: #000000; stroke-width: 0.8"/>
      </g>
     </g>
     <g id="text_53">
      <!-- 10 -->
      <g transform="translate(29.6375 1059.21395) scale(0.2 -0.2)">
       <use xlink:href="#TimesNewRomanPSMT-31"/>
       <use xlink:href="#TimesNewRomanPSMT-30" x="50"/>
      </g>
     </g>
    </g>
    <g id="ytick_14">
     <g id="line2d_57">
      <g>
       <use xlink:href="#m191df8e361" x="56.6375" y="1006.706429" style="stroke: #000000; stroke-width: 0.8"/>
      </g>
     </g>
     <g id="text_54">
      <!-- 20 -->
      <g transform="translate(29.6375 1013.650179) scale(0.2 -0.2)">
       <use xlink:href="#TimesNewRomanPSMT-32"/>
       <use xlink:href="#TimesNewRomanPSMT-30" x="50"/>
      </g>
     </g>
    </g>
    <g id="ytick_15">
     <g id="line2d_58">
      <g>
       <use xlink:href="#m191df8e361" x="56.6375" y="961.142658" style="stroke: #000000; stroke-width: 0.8"/>
      </g>
     </g>
     <g id="text_55">
      <!-- 30 -->
      <g transform="translate(29.6375 968.086408) scale(0.2 -0.2)">
       <defs>
        <path id="TimesNewRomanPSMT-33" d="M 325 3431 
Q 506 3859 782 4092 
Q 1059 4325 1472 4325 
Q 1981 4325 2253 3994 
Q 2459 3747 2459 3466 
Q 2459 3003 1878 2509 
Q 2269 2356 2469 2072 
Q 2669 1788 2669 1403 
Q 2669 853 2319 450 
Q 1863 -75 997 -75 
Q 569 -75 414 31 
Q 259 138 259 259 
Q 259 350 332 419 
Q 406 488 509 488 
Q 588 488 669 463 
Q 722 447 909 348 
Q 1097 250 1169 231 
Q 1284 197 1416 197 
Q 1734 197 1970 444 
Q 2206 691 2206 1028 
Q 2206 1275 2097 1509 
Q 2016 1684 1919 1775 
Q 1784 1900 1550 2001 
Q 1316 2103 1072 2103 
L 972 2103 
L 972 2197 
Q 1219 2228 1467 2375 
Q 1716 2522 1828 2728 
Q 1941 2934 1941 3181 
Q 1941 3503 1739 3701 
Q 1538 3900 1238 3900 
Q 753 3900 428 3381 
L 325 3431 
z
" transform="scale(0.015625)"/>
       </defs>
       <use xlink:href="#TimesNewRomanPSMT-33"/>
       <use xlink:href="#TimesNewRomanPSMT-30" x="50"/>
      </g>
     </g>
    </g>
    <g id="ytick_16">
     <g id="line2d_59">
      <g>
       <use xlink:href="#m191df8e361" x="56.6375" y="915.578887" style="stroke: #000000; stroke-width: 0.8"/>
      </g>
     </g>
     <g id="text_56">
      <!-- 40 -->
      <g transform="translate(29.6375 922.522637) scale(0.2 -0.2)">
       <use xlink:href="#TimesNewRomanPSMT-34"/>
       <use xlink:href="#TimesNewRomanPSMT-30" x="50"/>
      </g>
     </g>
    </g>
    <g id="text_57">
     <!-- CPU使用率 -->
     <g transform="translate(23.059375 1031.840625) rotate(-90) scale(0.2 -0.2)">
      <use xlink:href="#SimSun-43"/>
      <use xlink:href="#SimSun-50" x="50"/>
      <use xlink:href="#SimSun-55" x="100"/>
      <use xlink:href="#SimSun-4f7f" x="150"/>
      <use xlink:href="#SimSun-7528" x="250"/>
      <use xlink:href="#SimSun-7387" x="350"/>
     </g>
    </g>
   </g>
   <g id="line2d_60">
    <path d="M 117.067672 1014.315579 
L 124.304819 1001.375468 
L 131.541965 1017.732862 
L 138.779112 1053.227039 
L 146.016258 1052.725839 
L 153.253404 1063.888962 
L 160.490551 1074.049683 
L 167.727697 1074.550883 
L 174.964844 1081.613269 
L 182.20199 1069.219924 
L 189.439136 1069.857816 
L 196.676283 1056.507632 
L 203.913429 1074.915393 
L 211.150576 1068.126392 
L 218.387722 1010.078147 
L 225.624868 974.219456 
L 232.862015 983.651155 
L 240.099161 974.675095 
L 247.336308 929.156889 
L 254.573454 924.646086 
L 261.8106 901.909756 
L 269.047747 892.797019 
L 276.284893 888.240625 
L 283.52204 901.909756 
L 290.759186 913.300699 
L 297.996332 907.605228 
L 305.233479 895.621951 
L 312.470625 937.495068 
L 319.707771 958.454395 
L 326.944918 978.001257 
L 334.182064 980.962892 
L 341.419211 961.962808 
L 348.656357 952.439979 
L 355.893503 963.603097 
L 363.13065 976.042005 
L 370.367796 975.44968 
L 377.604943 1004.747186 
L 384.842089 1005.704021 
L 392.079235 1028.987115 
L 399.316382 1056.598757 
L 406.553528 1052.13351 
L 413.790675 1049.946447 
L 421.027821 1055.641918 
L 428.264967 1035.730555 
L 435.502114 1039.466778 
L 442.73926 1027.620201 
L 449.976407 1044.52436 
L 457.213553 1011.946261 
L 464.450699 1000.190809 
L 471.687846 982.9677 
L 478.924992 978.866962 
L 486.162139 965.471211 
L 493.399285 972.396907 
L 500.636431 975.905319 
L 507.873578 979.914936 
L 515.110724 1025.205322 
L 522.347871 1041.015952 
L 529.585017 1037.507539 
L 536.822163 1035.776115 
L 544.05931 1025.797652 
L 551.296456 1041.334892 
L 558.533603 1008.073339 
L 565.770749 1016.502638 
L 573.007895 1029.80726 
L 580.245042 1029.670569 
L 587.482188 1047.804953 
L 594.719335 1045.481199 
L 601.956481 1048.852917 
L 609.193627 1061.975284 
L 616.430774 1061.656336 
L 623.66792 1061.519646 
L 630.905066 1072.865024 
L 638.142213 1058.011236 
L 645.379359 1071.088038 
L 652.616506 1052.54358 
L 659.853652 1047.850513 
L 667.090798 1047.804953 
L 674.327945 1015.864748 
L 681.565091 1004.428241 
L 688.802238 973.672695 
L 696.039384 937.814013 
L 703.27653 942.643761 
L 710.513677 949.61503 
L 717.750823 948.521492 
L 724.98797 945.742099 
L 732.225116 901.044051 
L 739.462262 906.010503 
L 746.699409 908.516506 
L 753.936555 916.626852 
L 761.173702 954.809288 
L 768.410848 989.893395 
L 775.647994 1002.833507 
L 782.885141 1032.131017 
L 790.122287 1039.922418 
L 797.359434 1030.126209 
L 804.59658 1043.476391 
L 811.833726 1061.565209 
L 819.070873 1047.804953 
L 826.308019 1061.428519 
L 833.545166 1068.21752 
L 840.782312 1062.522048 
L 848.019458 1075.644415 
L 855.256605 1082.160033 
L 862.493751 1085.440625 
L 869.730898 1068.855412 
L 876.968044 1060.562805 
L 884.20519 1042.747371 
L 891.442337 1047.531568 
L 898.679483 1052.17907 
L 905.91663 1033.999127 
L 913.153776 1022.608184 
L 920.390922 1010.123712 
L 927.628069 1003.835915 
L 934.865215 1007.572143 
L 942.102361 995.725552 
L 949.339508 1005.79515 
L 956.576654 990.30347 
L 963.813801 991.67038 
L 971.050947 1006.022966 
L 978.288093 1029.123805 
L 985.52524 1031.584248 
L 992.762386 1035.092661 
L 999.999533 1009.531378 
L 1007.236679 1030.900793 
L 1014.473825 1011.946261 
L 1021.710972 1018.461882 
L 1028.948118 996.636831 
L 1036.185265 1017.596168 
L 1043.422411 1034.955966 
L 1050.659557 1034.500331 
L 1057.896704 1013.76881 
L 1065.13385 1014.771219 
L 1072.370997 1017.596168 
L 1079.608143 1030.354029 
L 1086.845289 1023.109388 
L 1094.082436 1001.238782 
L 1101.319582 994.859847 
L 1108.556729 993.948568 
L 1115.793875 998.049306 
L 1123.031021 1013.76881 
L 1130.268168 978.320193 
L 1137.505314 972.032397 
L 1144.742461 943.782873 
L 1151.979607 950.207364 
L 1159.216753 935.171305 
L 1166.4539 943.600614 
L 1173.691046 945.514284 
L 1180.928193 969.298569 
L 1188.165339 926.468626 
L 1195.402485 936.993863 
L 1202.639632 933.120932 
L 1209.876778 931.161689 
L 1217.113925 927.926665 
L 1224.351071 965.061137 
L 1231.588217 988.161967 
L 1238.825364 1008.802358 
L 1246.06251 1041.927226 
L 1253.299657 1040.286928 
L 1260.536803 1037.143029 
L 1267.773949 1033.315672 
L 1275.011096 994.950968 
L 1282.248242 984.881379 
L 1289.485388 991.260314 
L 1296.722535 1010.351527 
L 1303.959681 1006.25079 
L 1311.196828 999.644039 
L 1318.433974 1016.867148 
L 1325.67112 1016.320379 
L 1325.67112 1016.320379 
" clip-path="url(#p9072bbf95a)" style="fill: none; stroke: #1f77b4; stroke-width: 1.5; stroke-linecap: square"/>
   </g>
   <g id="line2d_61">
    <path d="M 1159.216753 929.734345 
L 1166.4539 928.596432 
L 1173.691046 933.441198 
L 1180.928193 924.30126 
L 1188.165339 934.241759 
L 1195.402485 944.442124 
L 1202.639632 946.772265 
L 1209.876778 966.388313 
L 1217.113925 976.991609 
L 1224.351071 989.354326 
L 1231.588217 1008.502029 
L 1238.825364 1018.586357 
L 1246.06251 1030.48447 
L 1253.299657 1051.849249 
L 1260.536803 1050.959366 
L 1267.773949 1059.759802 
L 1275.011096 1063.967486 
L 1282.248242 1070.499691 
L 1289.485388 1076.92504 
L 1296.722535 1075.378128 
L 1303.959681 1062.483745 
L 1311.196828 1066.790912 
L 1318.433974 1063.259066 
L 1325.67112 1064.651623 
" clip-path="url(#p9072bbf95a)" style="fill: none; stroke: #ff7f0e; stroke-width: 1.5; stroke-linecap: square"/>
   </g>
   <g id="line2d_62">
    <path d="M 1159.216753 1095.300625 
L 1159.216753 878.380625 
" clip-path="url(#p9072bbf95a)" style="fill: none; stroke-dasharray: 7.4,3.2; stroke-dashoffset: 0; stroke: #0000ff; stroke-width: 2"/>
   </g>
   <g id="patch_19">
    <path d="M 56.6375 1095.300625 
L 56.6375 878.380625 
" style="fill: none; stroke: #000000; stroke-width: 0.8; stroke-linejoin: miter; stroke-linecap: square"/>
   </g>
   <g id="patch_20">
    <path d="M 1386.101293 1095.300625 
L 1386.101293 878.380625 
" style="fill: none; stroke: #000000; stroke-width: 0.8; stroke-linejoin: miter; stroke-linecap: square"/>
   </g>
   <g id="patch_21">
    <path d="M 56.6375 1095.300625 
L 1386.101293 1095.300625 
" style="fill: none; stroke: #000000; stroke-width: 0.8; stroke-linejoin: miter; stroke-linecap: square"/>
   </g>
   <g id="patch_22">
    <path d="M 56.6375 878.380625 
L 1386.101293 878.380625 
" style="fill: none; stroke: #000000; stroke-width: 0.8; stroke-linejoin: miter; stroke-linecap: square"/>
   </g>
   <g id="text_58">
    <!-- API_ID: 5 -->
    <g transform="translate(676.369396 872.380625) scale(0.2 -0.2)">
     <defs>
      <path id="SimSun-35" d="M 1725 2850 
Q 2200 2850 2500 2487 
Q 2800 2125 2800 1525 
Q 2800 850 2487 450 
Q 2175 50 1525 50 
Q 1075 50 725 312 
Q 375 575 375 950 
Q 375 1100 462 1212 
Q 550 1325 700 1325 
Q 850 1325 900 1225 
Q 950 1125 950 1050 
Q 950 900 875 825 
Q 800 725 800 625 
Q 800 425 1037 325 
Q 1275 225 1550 225 
Q 1950 225 2162 550 
Q 2375 875 2375 1475 
Q 2375 1975 2187 2287 
Q 2000 2600 1625 2600 
Q 1350 2600 1150 2500 
Q 950 2400 775 2075 
L 550 2100 
L 675 4375 
L 2725 4375 
L 2650 4000 
L 850 4000 
L 750 2350 
Q 1000 2700 1237 2775 
Q 1475 2850 1725 2850 
z
" transform="scale(0.015625)"/>
     </defs>
     <use xlink:href="#SimSun-41"/>
     <use xlink:href="#SimSun-50" x="50"/>
     <use xlink:href="#SimSun-49" x="100"/>
     <use xlink:href="#SimSun-5f" x="150"/>
     <use xlink:href="#SimSun-49" x="200"/>
     <use xlink:href="#SimSun-44" x="250"/>
     <use xlink:href="#SimSun-3a" x="300"/>
     <use xlink:href="#SimSun-20" x="350"/>
     <use xlink:href="#SimSun-35" x="400"/>
    </g>
   </g>
  </g>
  <g id="axes_5">
   <g id="patch_23">
    <path d="M 56.6375 1378.980625 
L 1386.101293 1378.980625 
L 1386.101293 1162.060625 
L 56.6375 1162.060625 
z
" style="fill: #ffffff"/>
   </g>
   <g id="matplotlib.axis_9">
    <g id="xtick_33">
     <g id="line2d_63">
      <g>
       <use xlink:href="#m81894f0e51" x="117.067672" y="1378.980625" style="stroke: #000000; stroke-width: 0.8"/>
      </g>
     </g>
     <g id="text_59">
      <!-- 0 -->
      <g transform="translate(112.067672 1399.868125) scale(0.2 -0.2)">
       <use xlink:href="#TimesNewRomanPSMT-30"/>
      </g>
     </g>
    </g>
    <g id="xtick_34">
     <g id="line2d_64">
      <g>
       <use xlink:href="#m81894f0e51" x="297.996332" y="1378.980625" style="stroke: #000000; stroke-width: 0.8"/>
      </g>
     </g>
     <g id="text_60">
      <!-- 25 -->
      <g transform="translate(287.996332 1399.868125) scale(0.2 -0.2)">
       <use xlink:href="#TimesNewRomanPSMT-32"/>
       <use xlink:href="#TimesNewRomanPSMT-35" x="50"/>
      </g>
     </g>
    </g>
    <g id="xtick_35">
     <g id="line2d_65">
      <g>
       <use xlink:href="#m81894f0e51" x="478.924992" y="1378.980625" style="stroke: #000000; stroke-width: 0.8"/>
      </g>
     </g>
     <g id="text_61">
      <!-- 50 -->
      <g transform="translate(468.924992 1399.868125) scale(0.2 -0.2)">
       <use xlink:href="#TimesNewRomanPSMT-35"/>
       <use xlink:href="#TimesNewRomanPSMT-30" x="50"/>
      </g>
     </g>
    </g>
    <g id="xtick_36">
     <g id="line2d_66">
      <g>
       <use xlink:href="#m81894f0e51" x="659.853652" y="1378.980625" style="stroke: #000000; stroke-width: 0.8"/>
      </g>
     </g>
     <g id="text_62">
      <!-- 75 -->
      <g transform="translate(649.853652 1399.868125) scale(0.2 -0.2)">
       <use xlink:href="#TimesNewRomanPSMT-37"/>
       <use xlink:href="#TimesNewRomanPSMT-35" x="50"/>
      </g>
     </g>
    </g>
    <g id="xtick_37">
     <g id="line2d_67">
      <g>
       <use xlink:href="#m81894f0e51" x="840.782312" y="1378.980625" style="stroke: #000000; stroke-width: 0.8"/>
      </g>
     </g>
     <g id="text_63">
      <!-- 100 -->
      <g transform="translate(825.782312 1399.868125) scale(0.2 -0.2)">
       <use xlink:href="#TimesNewRomanPSMT-31"/>
       <use xlink:href="#TimesNewRomanPSMT-30" x="50"/>
       <use xlink:href="#TimesNewRomanPSMT-30" x="100"/>
      </g>
     </g>
    </g>
    <g id="xtick_38">
     <g id="line2d_68">
      <g>
       <use xlink:href="#m81894f0e51" x="1021.710972" y="1378.980625" style="stroke: #000000; stroke-width: 0.8"/>
      </g>
     </g>
     <g id="text_64">
      <!-- 125 -->
      <g transform="translate(1006.710972 1399.868125) scale(0.2 -0.2)">
       <use xlink:href="#TimesNewRomanPSMT-31"/>
       <use xlink:href="#TimesNewRomanPSMT-32" x="50"/>
       <use xlink:href="#TimesNewRomanPSMT-35" x="100"/>
      </g>
     </g>
    </g>
    <g id="xtick_39">
     <g id="line2d_69">
      <g>
       <use xlink:href="#m81894f0e51" x="1202.639632" y="1378.980625" style="stroke: #000000; stroke-width: 0.8"/>
      </g>
     </g>
     <g id="text_65">
      <!-- 150 -->
      <g transform="translate(1187.639632 1399.868125) scale(0.2 -0.2)">
       <use xlink:href="#TimesNewRomanPSMT-31"/>
       <use xlink:href="#TimesNewRomanPSMT-35" x="50"/>
       <use xlink:href="#TimesNewRomanPSMT-30" x="100"/>
      </g>
     </g>
    </g>
    <g id="xtick_40">
     <g id="line2d_70">
      <g>
       <use xlink:href="#m81894f0e51" x="1383.568292" y="1378.980625" style="stroke: #000000; stroke-width: 0.8"/>
      </g>
     </g>
     <g id="text_66">
      <!-- 175 -->
      <g transform="translate(1368.568292 1399.868125) scale(0.2 -0.2)">
       <use xlink:href="#TimesNewRomanPSMT-31"/>
       <use xlink:href="#TimesNewRomanPSMT-37" x="50"/>
       <use xlink:href="#TimesNewRomanPSMT-35" x="100"/>
      </g>
     </g>
    </g>
   </g>
   <g id="matplotlib.axis_10">
    <g id="ytick_17">
     <g id="line2d_71">
      <g>
       <use xlink:href="#m191df8e361" x="56.6375" y="1376.853959" style="stroke: #000000; stroke-width: 0.8"/>
      </g>
     </g>
     <g id="text_67">
      <!-- 0 -->
      <g transform="translate(39.6375 1383.797709) scale(0.2 -0.2)">
       <use xlink:href="#TimesNewRomanPSMT-30"/>
      </g>
     </g>
    </g>
    <g id="ytick_18">
     <g id="line2d_72">
      <g>
       <use xlink:href="#m191df8e361" x="56.6375" y="1299.520626" style="stroke: #000000; stroke-width: 0.8"/>
      </g>
     </g>
     <g id="text_68">
      <!-- 20 -->
      <g transform="translate(29.6375 1306.464376) scale(0.2 -0.2)">
       <use xlink:href="#TimesNewRomanPSMT-32"/>
       <use xlink:href="#TimesNewRomanPSMT-30" x="50"/>
      </g>
     </g>
    </g>
    <g id="ytick_19">
     <g id="line2d_73">
      <g>
       <use xlink:href="#m191df8e361" x="56.6375" y="1222.187292" style="stroke: #000000; stroke-width: 0.8"/>
      </g>
     </g>
     <g id="text_69">
      <!-- 40 -->
      <g transform="translate(29.6375 1229.131042) scale(0.2 -0.2)">
       <use xlink:href="#TimesNewRomanPSMT-34"/>
       <use xlink:href="#TimesNewRomanPSMT-30" x="50"/>
      </g>
     </g>
    </g>
    <g id="text_70">
     <!-- CPU使用率 -->
     <g transform="translate(23.059375 1315.520625) rotate(-90) scale(0.2 -0.2)">
      <use xlink:href="#SimSun-43"/>
      <use xlink:href="#SimSun-50" x="50"/>
      <use xlink:href="#SimSun-55" x="100"/>
      <use xlink:href="#SimSun-4f7f" x="150"/>
      <use xlink:href="#SimSun-7528" x="250"/>
      <use xlink:href="#SimSun-7387" x="350"/>
     </g>
    </g>
   </g>
   <g id="line2d_74">
    <path d="M 117.067672 1241.520625 
L 124.304819 1287.920618 
L 131.541965 1264.720618 
L 138.779112 1195.120625 
L 146.016258 1226.053959 
L 153.253404 1191.253973 
L 160.490551 1195.120625 
L 167.727697 1195.120625 
L 174.964844 1222.187292 
L 182.20199 1229.92064 
L 189.439136 1210.587292 
L 196.676283 1195.120625 
L 203.913429 1276.320625 
L 211.150576 1276.320625 
L 218.387722 1291.787292 
L 225.624868 1280.187285 
L 232.862015 1245.387292 
L 240.099161 1245.387292 
L 247.336308 1272.453951 
L 254.573454 1284.053959 
L 261.8106 1272.453951 
L 269.047747 1322.720626 
L 276.284893 1299.520626 
L 283.52204 1338.187292 
L 290.759186 1365.253959 
L 297.996332 1334.320626 
L 305.233479 1334.320626 
L 312.470625 1345.920626 
L 319.707771 1307.253959 
L 326.944918 1330.453959 
L 334.182064 1307.253959 
L 341.419211 1345.920626 
L 348.656357 1276.320625 
L 355.893503 1284.053959 
L 363.13065 1264.720618 
L 370.367796 1272.453951 
L 377.604943 1253.120625 
L 384.842089 1276.320625 
L 392.079235 1276.320625 
L 399.316382 1280.187285 
L 406.553528 1353.653959 
L 413.790675 1342.053959 
L 421.027821 1322.720626 
L 428.264967 1322.720626 
L 435.502114 1307.253959 
L 442.73926 1342.053959 
L 449.976407 1272.453951 
L 457.213553 1314.987296 
L 464.450699 1330.453959 
L 471.687846 1318.853963 
L 478.924992 1349.787292 
L 486.162139 1330.453959 
L 493.399285 1338.187292 
L 500.636431 1357.520626 
L 507.873578 1345.920626 
L 515.110724 1345.920626 
L 522.347871 1365.253959 
L 529.585017 1330.453959 
L 536.822163 1365.253959 
L 544.05931 1322.720626 
L 551.296456 1330.453959 
L 558.533603 1334.320626 
L 565.770749 1280.187285 
L 573.007895 1287.920618 
L 580.245042 1245.387292 
L 587.482188 1210.587292 
L 594.719335 1249.253959 
L 601.956481 1256.987292 
L 609.193627 1249.253959 
L 616.430774 1245.387292 
L 623.66792 1171.920625 
L 630.905066 1218.32064 
L 638.142213 1218.32064 
L 645.379359 1229.92064 
L 652.616506 1287.920618 
L 659.853652 1314.987296 
L 667.090798 1307.253959 
L 674.327945 1345.920626 
L 681.565091 1334.320626 
L 688.802238 1311.120626 
L 696.039384 1342.053959 
L 703.27653 1361.387293 
L 710.513677 1322.720626 
L 717.750823 1357.520626 
L 724.98797 1357.520626 
L 732.225116 1342.053959 
L 739.462262 1369.120625 
L 753.936555 1369.120625 
L 761.173702 1338.187292 
L 768.410848 1338.187292 
L 775.647994 1314.987296 
L 782.885141 1338.187292 
L 790.122287 1342.053959 
L 797.359434 1307.253959 
L 804.59658 1303.387292 
L 811.833726 1291.787292 
L 819.070873 1291.787292 
L 826.308019 1303.387292 
L 833.545166 1280.187285 
L 840.782312 1307.253959 
L 848.019458 1272.453951 
L 855.256605 1287.920618 
L 862.493751 1311.120626 
L 869.730898 1338.187292 
L 876.968044 1322.720626 
L 884.20519 1326.587292 
L 891.442337 1280.187285 
L 898.679483 1338.187292 
L 905.91663 1287.920618 
L 913.153776 1314.987296 
L 920.390922 1272.453951 
L 927.628069 1326.587292 
L 934.865215 1338.187292 
L 942.102361 1322.720626 
L 949.339508 1287.920618 
L 956.576654 1307.253959 
L 963.813801 1311.120626 
L 971.050947 1330.453959 
L 978.288093 1307.253959 
L 985.52524 1276.320625 
L 992.762386 1284.053959 
L 999.999533 1287.920618 
L 1007.236679 1295.653959 
L 1014.473825 1318.853963 
L 1021.710972 1245.387292 
L 1028.948118 1264.720618 
L 1036.185265 1222.187292 
L 1043.422411 1256.987292 
L 1050.659557 1226.053959 
L 1057.896704 1253.120625 
L 1065.13385 1249.253959 
L 1072.370997 1287.920618 
L 1079.608143 1195.120625 
L 1086.845289 1249.253959 
L 1094.082436 1233.787292 
L 1101.319582 1233.787292 
L 1108.556729 1229.92064 
L 1115.793875 1295.653959 
L 1123.031021 1303.387292 
L 1130.268168 1318.853963 
L 1137.505314 1357.520626 
L 1144.742461 1326.587292 
L 1159.216753 1318.853963 
L 1166.4539 1256.987292 
L 1173.691046 1272.453951 
L 1180.928193 1291.787292 
L 1188.165339 1318.853963 
L 1195.402485 1295.653959 
L 1202.639632 1287.920618 
L 1209.876778 1322.720626 
L 1217.113925 1307.253959 
L 1224.351071 1314.987296 
L 1231.588217 1249.253959 
L 1238.825364 1295.653959 
L 1246.06251 1256.987292 
L 1253.299657 1314.987296 
L 1260.536803 1268.587292 
L 1267.773949 1284.053959 
L 1275.011096 1307.253959 
L 1282.248242 1318.853963 
L 1289.485388 1326.587292 
L 1296.722535 1338.187292 
L 1311.196828 1314.987296 
L 1318.433974 1299.520626 
L 1325.67112 1276.320625 
L 1325.67112 1276.320625 
" clip-path="url(#p2f0e888000)" style="fill: none; stroke: #1f77b4; stroke-width: 1.5; stroke-linecap: square"/>
   </g>
   <g id="line2d_75">
    <path d="M 1159.216753 1344.870547 
L 1166.4539 1362.605148 
L 1173.691046 1358.688514 
L 1180.928193 1345.719906 
L 1188.165339 1360.629073 
L 1195.402485 1352.144741 
L 1202.639632 1348.134378 
L 1209.876778 1351.904922 
L 1217.113925 1352.616307 
L 1224.351071 1341.403455 
L 1231.588217 1339.230173 
L 1238.825364 1330.462175 
L 1246.06251 1323.410542 
L 1253.299657 1321.422158 
L 1260.536803 1316.226608 
L 1267.773949 1308.878778 
L 1275.011096 1306.432139 
L 1282.248242 1313.470511 
L 1289.485388 1310.550996 
L 1296.722535 1319.02169 
L 1303.959681 1315.879139 
L 1311.196828 1320.424549 
L 1318.433974 1322.470858 
L 1325.67112 1323.638639 
" clip-path="url(#p2f0e888000)" style="fill: none; stroke: #ff7f0e; stroke-width: 1.5; stroke-linecap: square"/>
   </g>
   <g id="line2d_76">
    <path d="M 1159.216753 1378.980625 
L 1159.216753 1162.060625 
" clip-path="url(#p2f0e888000)" style="fill: none; stroke-dasharray: 7.4,3.2; stroke-dashoffset: 0; stroke: #0000ff; stroke-width: 2"/>
   </g>
   <g id="patch_24">
    <path d="M 56.6375 1378.980625 
L 56.6375 1162.060625 
" style="fill: none; stroke: #000000; stroke-width: 0.8; stroke-linejoin: miter; stroke-linecap: square"/>
   </g>
   <g id="patch_25">
    <path d="M 1386.101293 1378.980625 
L 1386.101293 1162.060625 
" style="fill: none; stroke: #000000; stroke-width: 0.8; stroke-linejoin: miter; stroke-linecap: square"/>
   </g>
   <g id="patch_26">
    <path d="M 56.6375 1378.980625 
L 1386.101293 1378.980625 
" style="fill: none; stroke: #000000; stroke-width: 0.8; stroke-linejoin: miter; stroke-linecap: square"/>
   </g>
   <g id="patch_27">
    <path d="M 56.6375 1162.060625 
L 1386.101293 1162.060625 
" style="fill: none; stroke: #000000; stroke-width: 0.8; stroke-linejoin: miter; stroke-linecap: square"/>
   </g>
   <g id="text_71">
    <!-- API_ID: 36 -->
    <g transform="translate(671.369396 1156.060625) scale(0.2 -0.2)">
     <defs>
      <path id="SimSun-36" d="M 775 1800 
Q 775 1050 1037 637 
Q 1300 225 1675 225 
Q 2050 225 2250 500 
Q 2450 775 2450 1525 
Q 2450 2025 2237 2300 
Q 2025 2575 1725 2575 
Q 1450 2575 1212 2412 
Q 975 2250 775 1800 
z
M 1750 2825 
Q 2350 2825 2612 2425 
Q 2875 2025 2875 1525 
Q 2875 775 2512 412 
Q 2150 50 1675 50 
Q 1000 50 650 562 
Q 300 1075 300 2050 
Q 300 3200 725 3812 
Q 1150 4425 1875 4425 
Q 2225 4425 2437 4225 
Q 2650 4025 2650 3875 
Q 2650 3725 2587 3650 
Q 2525 3575 2375 3575 
Q 2250 3575 2187 3637 
Q 2125 3700 2125 3825 
Q 2125 3875 2150 3925 
Q 2150 3975 2150 4025 
Q 2150 4125 2075 4187 
Q 2000 4250 1800 4250 
Q 1375 4250 1075 3862 
Q 775 3475 775 2175 
Q 925 2500 1187 2662 
Q 1450 2825 1750 2825 
z
" transform="scale(0.015625)"/>
     </defs>
     <use xlink:href="#SimSun-41"/>
     <use xlink:href="#SimSun-50" x="50"/>
     <use xlink:href="#SimSun-49" x="100"/>
     <use xlink:href="#SimSun-5f" x="150"/>
     <use xlink:href="#SimSun-49" x="200"/>
     <use xlink:href="#SimSun-44" x="250"/>
     <use xlink:href="#SimSun-3a" x="300"/>
     <use xlink:href="#SimSun-20" x="350"/>
     <use xlink:href="#SimSun-33" x="400"/>
     <use xlink:href="#SimSun-36" x="450"/>
    </g>
   </g>
  </g>
 </g>
 <defs>
  <clipPath id="pef4b42ba97">
   <rect x="56.6375" y="27.340625" width="1329.463793" height="216.92"/>
  </clipPath>
  <clipPath id="pc56ad369ad">
   <rect x="56.6375" y="311.020625" width="1329.463793" height="216.92"/>
  </clipPath>
  <clipPath id="p9422783f44">
   <rect x="56.6375" y="594.700625" width="1329.463793" height="216.92"/>
  </clipPath>
  <clipPath id="p9072bbf95a">
   <rect x="56.6375" y="878.380625" width="1329.463793" height="216.92"/>
  </clipPath>
  <clipPath id="p2f0e888000">
   <rect x="56.6375" y="1162.060625" width="1329.463793" height="216.92"/>
  </clipPath>
 </defs>
</svg>
