<?xml version="1.0" encoding="utf-8" standalone="no"?>
<!DOCTYPE svg PUBLIC "-//W3C//DTD SVG 1.1//EN"
  "http://www.w3.org/Graphics/SVG/1.1/DTD/svg11.dtd">
<svg xmlns:xlink="http://www.w3.org/1999/xlink" width="1050.602344pt" height="690.95375pt" viewBox="0 0 1050.602344 690.95375" xmlns="http://www.w3.org/2000/svg" version="1.1">
 <metadata>
  <rdf:RDF xmlns:dc="http://purl.org/dc/elements/1.1/" xmlns:cc="http://creativecommons.org/ns#" xmlns:rdf="http://www.w3.org/1999/02/22-rdf-syntax-ns#">
   <cc:Work>
    <dc:type rdf:resource="http://purl.org/dc/dcmitype/StillImage"/>
    <dc:date>2024-02-21T16:26:29.895203</dc:date>
    <dc:format>image/svg+xml</dc:format>
    <dc:creator>
     <cc:Agent>
      <dc:title>Matplotlib v3.7.1, https://matplotlib.org/</dc:title>
     </cc:Agent>
    </dc:creator>
   </cc:Work>
  </rdf:RDF>
 </metadata>
 <defs>
  <style type="text/css">*{stroke-linejoin: round; stroke-linecap: butt}</style>
 </defs>
 <g id="figure_1">
  <g id="patch_1">
   <path d="M 0 690.95375 
L 1050.602344 690.95375 
L 1050.602344 0 
L 0 0 
z
" style="fill: #ffffff"/>
  </g>
  <g id="axes_1">
   <g id="patch_2">
    <path d="M 61.6375 192.988125 
L 1032.554189 192.988125 
L 1032.554189 29.059375 
L 61.6375 29.059375 
z
" style="fill: #ffffff"/>
   </g>
   <g id="matplotlib.axis_1">
    <g id="xtick_1">
     <g id="line2d_1">
      <defs>
       <path id="m3afd51c53c" d="M 0 0 
L 0 3.5 
" style="stroke: #000000; stroke-width: 0.8"/>
      </defs>
      <g>
       <use xlink:href="#m3afd51c53c" x="105.770077" y="192.988125" style="stroke: #000000; stroke-width: 0.8"/>
      </g>
     </g>
     <g id="text_1">
      <!-- 0 -->
      <g transform="translate(100.770077 213.875625) scale(0.2 -0.2)">
       <defs>
        <path id="TimesNewRomanPSMT-30" d="M 231 2094 
Q 231 2819 450 3342 
Q 669 3866 1031 4122 
Q 1313 4325 1613 4325 
Q 2100 4325 2488 3828 
Q 2972 3213 2972 2159 
Q 2972 1422 2759 906 
Q 2547 391 2217 158 
Q 1888 -75 1581 -75 
Q 975 -75 572 641 
Q 231 1244 231 2094 
z
M 844 2016 
Q 844 1141 1059 588 
Q 1238 122 1591 122 
Q 1759 122 1940 273 
Q 2122 425 2216 781 
Q 2359 1319 2359 2297 
Q 2359 3022 2209 3506 
Q 2097 3866 1919 4016 
Q 1791 4119 1609 4119 
Q 1397 4119 1231 3928 
Q 1006 3669 925 3112 
Q 844 2556 844 2016 
z
" transform="scale(0.015625)"/>
       </defs>
       <use xlink:href="#TimesNewRomanPSMT-30"/>
      </g>
     </g>
    </g>
    <g id="xtick_2">
     <g id="line2d_2">
      <g>
       <use xlink:href="#m3afd51c53c" x="259.542121" y="192.988125" style="stroke: #000000; stroke-width: 0.8"/>
      </g>
     </g>
     <g id="text_2">
      <!-- 50 -->
      <g transform="translate(249.542121 213.875625) scale(0.2 -0.2)">
       <defs>
        <path id="TimesNewRomanPSMT-35" d="M 2778 4238 
L 2534 3706 
L 1259 3706 
L 981 3138 
Q 1809 3016 2294 2522 
Q 2709 2097 2709 1522 
Q 2709 1188 2573 903 
Q 2438 619 2231 419 
Q 2025 219 1772 97 
Q 1413 -75 1034 -75 
Q 653 -75 479 54 
Q 306 184 306 341 
Q 306 428 378 495 
Q 450 563 559 563 
Q 641 563 702 538 
Q 763 513 909 409 
Q 1144 247 1384 247 
Q 1750 247 2026 523 
Q 2303 800 2303 1197 
Q 2303 1581 2056 1914 
Q 1809 2247 1375 2428 
Q 1034 2569 447 2591 
L 1259 4238 
L 2778 4238 
z
" transform="scale(0.015625)"/>
       </defs>
       <use xlink:href="#TimesNewRomanPSMT-35"/>
       <use xlink:href="#TimesNewRomanPSMT-30" x="50"/>
      </g>
     </g>
    </g>
    <g id="xtick_3">
     <g id="line2d_3">
      <g>
       <use xlink:href="#m3afd51c53c" x="413.314166" y="192.988125" style="stroke: #000000; stroke-width: 0.8"/>
      </g>
     </g>
     <g id="text_3">
      <!-- 100 -->
      <g transform="translate(398.314166 213.875625) scale(0.2 -0.2)">
       <defs>
        <path id="TimesNewRomanPSMT-31" d="M 750 3822 
L 1781 4325 
L 1884 4325 
L 1884 747 
Q 1884 391 1914 303 
Q 1944 216 2037 169 
Q 2131 122 2419 116 
L 2419 0 
L 825 0 
L 825 116 
Q 1125 122 1212 167 
Q 1300 213 1334 289 
Q 1369 366 1369 747 
L 1369 3034 
Q 1369 3497 1338 3628 
Q 1316 3728 1258 3775 
Q 1200 3822 1119 3822 
Q 1003 3822 797 3725 
L 750 3822 
z
" transform="scale(0.015625)"/>
       </defs>
       <use xlink:href="#TimesNewRomanPSMT-31"/>
       <use xlink:href="#TimesNewRomanPSMT-30" x="50"/>
       <use xlink:href="#TimesNewRomanPSMT-30" x="100"/>
      </g>
     </g>
    </g>
    <g id="xtick_4">
     <g id="line2d_4">
      <g>
       <use xlink:href="#m3afd51c53c" x="567.08621" y="192.988125" style="stroke: #000000; stroke-width: 0.8"/>
      </g>
     </g>
     <g id="text_4">
      <!-- 150 -->
      <g transform="translate(552.08621 213.875625) scale(0.2 -0.2)">
       <use xlink:href="#TimesNewRomanPSMT-31"/>
       <use xlink:href="#TimesNewRomanPSMT-35" x="50"/>
       <use xlink:href="#TimesNewRomanPSMT-30" x="100"/>
      </g>
     </g>
    </g>
    <g id="xtick_5">
     <g id="line2d_5">
      <g>
       <use xlink:href="#m3afd51c53c" x="720.858255" y="192.988125" style="stroke: #000000; stroke-width: 0.8"/>
      </g>
     </g>
     <g id="text_5">
      <!-- 200 -->
      <g transform="translate(705.858255 213.875625) scale(0.2 -0.2)">
       <defs>
        <path id="TimesNewRomanPSMT-32" d="M 2934 816 
L 2638 0 
L 138 0 
L 138 116 
Q 1241 1122 1691 1759 
Q 2141 2397 2141 2925 
Q 2141 3328 1894 3587 
Q 1647 3847 1303 3847 
Q 991 3847 742 3664 
Q 494 3481 375 3128 
L 259 3128 
Q 338 3706 661 4015 
Q 984 4325 1469 4325 
Q 1984 4325 2329 3994 
Q 2675 3663 2675 3213 
Q 2675 2891 2525 2569 
Q 2294 2063 1775 1497 
Q 997 647 803 472 
L 1909 472 
Q 2247 472 2383 497 
Q 2519 522 2628 598 
Q 2738 675 2819 816 
L 2934 816 
z
" transform="scale(0.015625)"/>
       </defs>
       <use xlink:href="#TimesNewRomanPSMT-32"/>
       <use xlink:href="#TimesNewRomanPSMT-30" x="50"/>
       <use xlink:href="#TimesNewRomanPSMT-30" x="100"/>
      </g>
     </g>
    </g>
    <g id="xtick_6">
     <g id="line2d_6">
      <g>
       <use xlink:href="#m3afd51c53c" x="874.630299" y="192.988125" style="stroke: #000000; stroke-width: 0.8"/>
      </g>
     </g>
     <g id="text_6">
      <!-- 250 -->
      <g transform="translate(859.630299 213.875625) scale(0.2 -0.2)">
       <use xlink:href="#TimesNewRomanPSMT-32"/>
       <use xlink:href="#TimesNewRomanPSMT-35" x="50"/>
       <use xlink:href="#TimesNewRomanPSMT-30" x="100"/>
      </g>
     </g>
    </g>
    <g id="xtick_7">
     <g id="line2d_7">
      <g>
       <use xlink:href="#m3afd51c53c" x="1028.402344" y="192.988125" style="stroke: #000000; stroke-width: 0.8"/>
      </g>
     </g>
     <g id="text_7">
      <!-- 300 -->
      <g transform="translate(1013.402344 213.875625) scale(0.2 -0.2)">
       <defs>
        <path id="TimesNewRomanPSMT-33" d="M 325 3431 
Q 506 3859 782 4092 
Q 1059 4325 1472 4325 
Q 1981 4325 2253 3994 
Q 2459 3747 2459 3466 
Q 2459 3003 1878 2509 
Q 2269 2356 2469 2072 
Q 2669 1788 2669 1403 
Q 2669 853 2319 450 
Q 1863 -75 997 -75 
Q 569 -75 414 31 
Q 259 138 259 259 
Q 259 350 332 419 
Q 406 488 509 488 
Q 588 488 669 463 
Q 722 447 909 348 
Q 1097 250 1169 231 
Q 1284 197 1416 197 
Q 1734 197 1970 444 
Q 2206 691 2206 1028 
Q 2206 1275 2097 1509 
Q 2016 1684 1919 1775 
Q 1784 1900 1550 2001 
Q 1316 2103 1072 2103 
L 972 2103 
L 972 2197 
Q 1219 2228 1467 2375 
Q 1716 2522 1828 2728 
Q 1941 2934 1941 3181 
Q 1941 3503 1739 3701 
Q 1538 3900 1238 3900 
Q 753 3900 428 3381 
L 325 3431 
z
" transform="scale(0.015625)"/>
       </defs>
       <use xlink:href="#TimesNewRomanPSMT-33"/>
       <use xlink:href="#TimesNewRomanPSMT-30" x="50"/>
       <use xlink:href="#TimesNewRomanPSMT-30" x="100"/>
      </g>
     </g>
    </g>
   </g>
   <g id="matplotlib.axis_2">
    <g id="ytick_1">
     <g id="line2d_8">
      <defs>
       <path id="m51be5634df" d="M 0 0 
L -3.5 0 
" style="stroke: #000000; stroke-width: 0.8"/>
      </defs>
      <g>
       <use xlink:href="#m51be5634df" x="61.6375" y="190.892194" style="stroke: #000000; stroke-width: 0.8"/>
      </g>
     </g>
     <g id="text_8">
      <!-- 0.0 -->
      <g transform="translate(29.6375 197.835944) scale(0.2 -0.2)">
       <defs>
        <path id="TimesNewRomanPSMT-2e" d="M 800 606 
Q 947 606 1047 504 
Q 1147 403 1147 259 
Q 1147 116 1045 14 
Q 944 -88 800 -88 
Q 656 -88 554 14 
Q 453 116 453 259 
Q 453 406 554 506 
Q 656 606 800 606 
z
" transform="scale(0.015625)"/>
       </defs>
       <use xlink:href="#TimesNewRomanPSMT-30"/>
       <use xlink:href="#TimesNewRomanPSMT-2e" x="50"/>
       <use xlink:href="#TimesNewRomanPSMT-30" x="75"/>
      </g>
     </g>
    </g>
    <g id="ytick_2">
     <g id="line2d_9">
      <g>
       <use xlink:href="#m51be5634df" x="61.6375" y="142.990765" style="stroke: #000000; stroke-width: 0.8"/>
      </g>
     </g>
     <g id="text_9">
      <!-- 1.0 -->
      <g transform="translate(29.6375 149.934515) scale(0.2 -0.2)">
       <use xlink:href="#TimesNewRomanPSMT-31"/>
       <use xlink:href="#TimesNewRomanPSMT-2e" x="50"/>
       <use xlink:href="#TimesNewRomanPSMT-30" x="75"/>
      </g>
     </g>
    </g>
    <g id="ytick_3">
     <g id="line2d_10">
      <g>
       <use xlink:href="#m51be5634df" x="61.6375" y="95.089336" style="stroke: #000000; stroke-width: 0.8"/>
      </g>
     </g>
     <g id="text_10">
      <!-- 2.0 -->
      <g transform="translate(29.6375 102.033086) scale(0.2 -0.2)">
       <use xlink:href="#TimesNewRomanPSMT-32"/>
       <use xlink:href="#TimesNewRomanPSMT-2e" x="50"/>
       <use xlink:href="#TimesNewRomanPSMT-30" x="75"/>
      </g>
     </g>
    </g>
    <g id="ytick_4">
     <g id="line2d_11">
      <g>
       <use xlink:href="#m51be5634df" x="61.6375" y="47.187906" style="stroke: #000000; stroke-width: 0.8"/>
      </g>
     </g>
     <g id="text_11">
      <!-- 3.0 -->
      <g transform="translate(29.6375 54.131656) scale(0.2 -0.2)">
       <use xlink:href="#TimesNewRomanPSMT-33"/>
       <use xlink:href="#TimesNewRomanPSMT-2e" x="50"/>
       <use xlink:href="#TimesNewRomanPSMT-30" x="75"/>
      </g>
     </g>
    </g>
    <g id="text_12">
     <!-- CPU使用率 -->
     <g transform="translate(23.059375 156.02375) rotate(-90) scale(0.2 -0.2)">
      <defs>
       <path id="SimSun-43" d="M 1725 50 
Q 1025 50 612 575 
Q 200 1100 200 2225 
Q 200 3175 637 3800 
Q 1075 4425 1825 4425 
Q 2000 4425 2175 4375 
Q 2350 4300 2475 4300 
Q 2575 4300 2637 4325 
Q 2700 4350 2750 4425 
L 2975 3325 
L 2825 3275 
Q 2675 3750 2425 4000 
Q 2175 4250 1775 4250 
Q 1250 4250 962 3675 
Q 675 3100 675 2250 
Q 675 1325 925 800 
Q 1175 275 1750 275 
Q 2150 275 2437 562 
Q 2725 850 2825 1325 
L 2975 1250 
Q 2850 725 2512 387 
Q 2175 50 1725 50 
z
" transform="scale(0.015625)"/>
       <path id="SimSun-50" d="M 950 2100 
L 950 450 
Q 950 350 1012 300 
Q 1075 250 1175 250 
L 1350 250 
L 1350 100 
L 150 100 
L 150 250 
L 325 250 
Q 450 250 500 300 
Q 550 350 550 450 
L 550 4025 
Q 550 4125 500 4175 
Q 450 4225 325 4225 
L 175 4225 
L 175 4375 
L 1650 4375 
Q 2275 4375 2612 4062 
Q 2950 3750 2950 3275 
Q 2950 2700 2587 2400 
Q 2225 2100 1725 2100 
L 950 2100 
z
M 1575 2250 
Q 1950 2250 2237 2475 
Q 2525 2700 2525 3250 
Q 2525 3750 2287 3987 
Q 2050 4225 1525 4225 
L 1175 4225 
Q 1075 4225 1012 4175 
Q 950 4125 950 4025 
L 950 2250 
L 1575 2250 
z
" transform="scale(0.015625)"/>
       <path id="SimSun-55" d="M 1625 250 
Q 2000 250 2262 500 
Q 2525 750 2525 1125 
L 2525 4025 
Q 2525 4125 2475 4175 
Q 2425 4225 2300 4225 
L 2150 4225 
L 2150 4375 
L 3050 4375 
L 3050 4225 
L 2900 4225 
Q 2800 4225 2737 4175 
Q 2675 4125 2675 4025 
L 2675 1125 
Q 2675 625 2337 337 
Q 2000 50 1575 50 
Q 1125 50 787 300 
Q 450 550 450 1100 
L 450 4025 
Q 450 4125 400 4175 
Q 350 4225 225 4225 
L 100 4225 
L 100 4375 
L 1200 4375 
L 1200 4225 
L 1075 4225 
Q 975 4225 912 4175 
Q 850 4125 850 4025 
L 850 1100 
Q 850 600 1062 425 
Q 1275 250 1625 250 
z
" transform="scale(0.015625)"/>
       <path id="SimSun-4f7f" d="M 2875 3150 
L 2875 2100 
L 3825 2100 
Q 3850 2825 3850 3150 
L 2875 3150 
z
M 4175 3150 
Q 4175 2800 4150 2100 
L 5150 2100 
L 5150 3150 
L 4175 3150 
z
M 5475 3100 
L 5475 2425 
Q 5475 2100 5500 1800 
L 5150 1675 
L 5150 1950 
L 4150 1950 
Q 4125 1175 3875 600 
Q 4275 275 4875 75 
Q 5475 -125 6075 -150 
L 6075 -250 
Q 5700 -300 5600 -575 
Q 4525 -325 3725 350 
Q 3425 25 2925 -225 
Q 2425 -475 1875 -650 
L 1825 -550 
Q 2400 -325 2850 -25 
Q 3300 275 3500 575 
Q 3200 925 2825 1650 
L 2900 1700 
Q 3325 1100 3625 825 
Q 3800 1300 3825 1950 
L 2875 1950 
L 2875 1825 
L 2525 1675 
Q 2550 2075 2550 2562 
Q 2550 3050 2525 3500 
L 2875 3300 
L 3850 3300 
L 3850 4025 
L 2975 4025 
Q 2650 4025 2375 3950 
L 2150 4175 
L 3850 4175 
L 3850 4525 
Q 3850 4775 3825 5225 
L 4350 5000 
L 4175 4825 
L 4175 4175 
L 5300 4175 
L 5600 4475 
L 6050 4025 
L 4175 4025 
L 4175 3300 
L 5100 3300 
L 5275 3525 
L 5650 3225 
L 5475 3100 
z
M 1675 3175 
L 1675 -450 
L 1325 -625 
Q 1350 -75 1350 350 
L 1350 3200 
Q 900 2475 350 1900 
L 275 1950 
Q 700 2525 1112 3400 
Q 1525 4275 1800 5250 
L 2325 4925 
L 2125 4800 
Q 1725 3925 1500 3525 
L 1875 3325 
L 1675 3175 
z
" transform="scale(0.015625)"/>
       <path id="SimSun-7528" d="M 3400 3150 
L 3400 1825 
L 5075 1825 
L 5075 3150 
L 3400 3150 
z
M 4075 100 
Q 4725 50 4900 62 
Q 5075 75 5075 400 
L 5075 1675 
L 3400 1675 
Q 3400 75 3425 -225 
L 3050 -400 
Q 3075 1025 3075 1675 
L 1425 1675 
Q 1250 350 375 -600 
L 300 -550 
Q 775 225 950 1025 
Q 1125 1825 1125 3225 
Q 1125 4625 1100 5075 
L 1475 4825 
L 5050 4825 
L 5225 5100 
L 5625 4800 
L 5425 4600 
L 5425 225 
Q 5450 -400 4875 -575 
Q 4825 -150 4075 -25 
L 4075 100 
z
M 1475 4675 
L 1475 3300 
L 3075 3300 
L 3075 4675 
L 1475 4675 
z
M 3400 4675 
L 3400 3300 
L 5075 3300 
L 5075 4675 
L 3400 4675 
z
M 1475 3150 
Q 1450 2100 1425 1825 
L 3075 1825 
L 3075 3150 
L 1475 3150 
z
" transform="scale(0.015625)"/>
       <path id="SimSun-7387" d="M 875 3725 
L 925 3800 
Q 1375 3650 1550 3525 
Q 1725 3400 1725 3250 
Q 1725 3175 1662 3025 
Q 1600 2875 1550 2875 
Q 1500 2875 1425 3050 
Q 1275 3325 875 3725 
z
M 550 1850 
Q 875 1925 2000 2575 
L 2050 2500 
Q 1675 2225 1337 1937 
Q 1000 1650 875 1425 
L 550 1850 
z
M 5200 3450 
Q 4800 3150 4275 2800 
L 4225 2875 
Q 4775 3400 5050 3925 
L 5450 3525 
L 5200 3450 
z
M 4325 2500 
L 4350 2575 
Q 5225 2350 5375 2212 
Q 5525 2075 5525 1900 
Q 5525 1775 5487 1662 
Q 5450 1550 5400 1550 
Q 5325 1550 5200 1800 
Q 4975 2150 4325 2500 
z
M 3150 3900 
Q 2500 3300 2300 3150 
Q 2800 3150 3400 3175 
Q 3700 3500 3850 3825 
L 4250 3450 
Q 4050 3400 3450 2825 
Q 2850 2250 2475 1950 
Q 3150 1975 3850 2000 
Q 3750 2175 3550 2450 
L 3600 2500 
Q 4050 2250 4200 2100 
Q 4350 1950 4350 1850 
Q 4350 1775 4250 1625 
Q 4150 1475 4100 1475 
Q 4075 1475 4050 1550 
Q 4000 1700 3900 1900 
Q 3650 1875 3075 1800 
L 3500 1550 
L 3325 1425 
L 3325 975 
L 5325 975 
L 5650 1300 
L 6100 825 
L 3325 825 
Q 3325 -275 3350 -525 
L 2975 -650 
Q 3000 0 3000 825 
L 1125 825 
Q 800 825 525 750 
L 300 975 
L 3000 975 
L 3000 1775 
Q 2450 1700 2200 1525 
L 1950 1950 
Q 2275 1950 2675 2350 
Q 3075 2750 3325 3050 
Q 2400 2950 2150 2775 
L 1950 3175 
Q 2150 3150 2475 3575 
Q 2800 4000 2900 4225 
L 1450 4225 
Q 1125 4225 850 4150 
L 625 4375 
L 3100 4375 
Q 3050 4800 2675 5200 
L 2725 5250 
Q 3225 5050 3337 4912 
Q 3450 4775 3450 4700 
Q 3450 4550 3250 4375 
L 5025 4375 
L 5350 4675 
L 5775 4225 
L 3050 4225 
L 3375 3950 
L 3150 3900 
z
" transform="scale(0.015625)"/>
      </defs>
      <use xlink:href="#SimSun-43"/>
      <use xlink:href="#SimSun-50" x="50"/>
      <use xlink:href="#SimSun-55" x="100"/>
      <use xlink:href="#SimSun-4f7f" x="150"/>
      <use xlink:href="#SimSun-7528" x="250"/>
      <use xlink:href="#SimSun-7387" x="350"/>
     </g>
    </g>
   </g>
   <g id="line2d_12">
    <path d="M 105.770077 115.66779 
L 108.845518 122.124906 
L 111.920959 129.243058 
L 114.996399 134.186483 
L 118.07184 136.351627 
L 121.147281 141.400436 
L 124.222722 157.294133 
L 127.298163 143.297337 
L 130.373604 150.39633 
L 133.449045 148.667087 
L 136.524486 158.127619 
L 139.599927 158.577893 
L 142.675367 157.706085 
L 145.750808 161.624421 
L 148.826249 161.605263 
L 151.90169 161.394496 
L 154.977131 165.379894 
L 158.052572 166.031353 
L 161.128013 166.12716 
L 164.203454 166.55827 
L 167.278895 167.966571 
L 170.354335 166.951063 
L 173.429776 164.948778 
L 176.505217 173.369852 
L 179.580658 176.986405 
L 182.656099 170.467023 
L 185.73154 172.804618 
L 188.806981 183.256703 
L 191.882422 184.229109 
L 194.957863 184.118929 
L 198.033303 174.835633 
L 201.108744 176.320578 
L 204.184185 182.217246 
L 207.259626 177.891743 
L 210.335067 181.192157 
L 213.410508 182.289099 
L 216.485949 179.549134 
L 219.56139 181.450828 
L 222.636831 183.826733 
L 225.712272 184.597949 
L 228.787712 182.902236 
L 231.863153 177.58039 
L 234.938594 178.859353 
L 238.014035 178.035454 
L 241.089476 178.840195 
L 244.164917 176.5026 
L 247.240358 175.630798 
L 250.315799 174.462003 
L 253.39124 175.515832 
L 256.46668 174.854797 
L 259.542121 166.079251 
L 262.617562 171.856167 
L 265.693003 157.825841 
L 268.768444 149.261066 
L 271.843885 139.877175 
L 274.919326 123.925996 
L 277.994767 124.711579 
L 281.070208 131.226175 
L 284.145648 128.217963 
L 287.221089 125.784572 
L 290.29653 104.243299 
L 293.371971 93.499007 
L 296.447412 109.55557 
L 299.522853 91.276377 
L 302.598294 101.158449 
L 305.673735 105.915056 
L 308.749176 85.130626 
L 311.824616 83.315163 
L 314.900057 89.724376 
L 317.975498 90.040521 
L 321.050939 94.006766 
L 324.12638 85.298281 
L 327.201821 73.950439 
L 330.277262 54.80423 
L 333.352703 80.378804 
L 336.428144 76.072465 
L 339.503584 65.265902 
L 342.579025 59.335715 
L 345.654466 78.917813 
L 348.729907 40.060179 
L 351.805348 66.578402 
L 354.880789 64.916226 
L 361.031671 84.694725 
L 364.107112 73.059473 
L 367.182552 50.105102 
L 370.257993 69.624936 
L 373.333434 66.228726 
L 376.408875 71.018865 
L 379.484316 67.296928 
L 382.559757 56.581376 
L 385.635198 59.383613 
L 388.710639 59.651859 
L 391.78608 57.505873 
L 394.86152 64.346202 
L 397.936961 67.028682 
L 401.012402 50.564952 
L 404.087843 57.290321 
L 407.163284 70.386564 
L 410.238725 79.550114 
L 413.314166 52.586397 
L 416.389607 36.510682 
L 419.465048 71.267959 
L 422.540488 75.526389 
L 425.615929 78.285512 
L 428.69137 72.796011 
L 431.766811 75.497655 
L 434.842252 74.692903 
L 437.917693 71.464348 
L 440.993134 73.265443 
L 444.068575 73.083422 
L 447.144016 52.088219 
L 450.219457 71.176937 
L 453.294897 84.55102 
L 456.370338 92.71343 
L 459.445779 79.219591 
L 462.52122 91.429664 
L 465.596661 82.251758 
L 468.672102 47.791462 
L 471.747543 52.00679 
L 474.822984 55.728727 
L 477.898425 44.261129 
L 480.973865 49.994928 
L 484.049306 51.067926 
L 487.124747 53.750406 
L 490.200188 72.709786 
L 493.275629 72.106231 
L 496.35107 70.870374 
L 499.426511 71.588889 
L 502.501952 75.928759 
L 505.577393 78.802854 
L 508.652833 82.223012 
L 511.728274 83.286429 
L 514.803715 80.354855 
L 517.879156 87.281409 
L 520.954597 91.089571 
L 524.030038 92.263151 
L 527.105479 97.412552 
L 530.18092 100.861456 
L 533.256361 106.494668 
L 536.331801 117.392242 
L 539.407242 120.304647 
L 542.482683 125.650448 
L 545.558124 131.681234 
L 548.633565 134.603226 
L 551.709006 138.785018 
L 554.784447 140.236433 
L 557.859888 141.055546 
L 560.935329 145.194231 
L 564.010769 145.108011 
L 567.08621 154.707455 
L 570.161651 140.279545 
L 573.237092 142.075844 
L 576.312533 152.274064 
L 579.387974 164.297325 
L 582.463415 170.639468 
L 585.538856 169.566481 
L 588.614297 172.287277 
L 591.689737 173.638099 
L 594.765178 176.722949 
L 597.840619 181.786131 
L 603.991501 180.339513 
L 607.066942 178.586315 
L 610.142383 173.935091 
L 619.368705 176.579249 
L 622.444146 177.010359 
L 625.519587 175.70265 
L 631.670469 177.72888 
L 634.74591 179.525185 
L 637.821351 183.295025 
L 640.896792 178.514463 
L 643.972233 174.758995 
L 647.047673 180.990966 
L 650.123114 181.455613 
L 653.198555 180.689194 
L 656.273996 178.351599 
L 659.349437 181.829243 
L 662.424878 183.448306 
L 665.500319 185.536818 
L 668.57576 185.40748 
L 674.726642 177.518119 
L 680.877523 178.303696 
L 683.952964 174.883537 
L 687.028405 175.199687 
L 690.103846 174.826051 
L 693.179287 172.977058 
L 696.254728 171.53044 
L 699.330169 164.417075 
L 702.40561 165.236189 
L 705.48105 170.543673 
L 708.556491 158.094088 
L 711.631932 156.489392 
L 714.707373 142.823111 
L 717.782814 140.499889 
L 720.858255 143.642227 
L 723.933696 148.796419 
L 727.009137 148.413207 
L 730.084578 147.359375 
L 733.160018 134.684661 
L 739.3109 90.45727 
L 742.386341 116.165967 
L 745.461782 105.507895 
L 748.537223 102.370351 
L 751.612664 86.318585 
L 754.688105 73.773203 
L 757.763546 85.010881 
L 760.838986 90.778211 
L 763.914427 79.348929 
L 766.989868 82.510423 
L 770.065309 82.682862 
L 773.14075 85.480313 
L 776.216191 96.454525 
L 779.291632 79.61238 
L 782.367073 75.69884 
L 785.442514 79.923739 
L 788.517954 113.780474 
L 791.593395 80.15367 
L 794.668836 90.299197 
L 797.744277 101.84823 
L 800.819718 107.998772 
L 803.895159 108.621491 
L 806.9706 105.148638 
L 810.046041 85.039616 
L 813.121482 104.243299 
L 816.196922 106.99284 
L 819.272363 109.172357 
L 822.347804 118.105972 
L 825.423245 97.54189 
L 828.498686 104.525919 
L 831.574127 107.783214 
L 834.649568 114.872625 
L 837.725009 114.369663 
L 840.80045 117.076091 
L 843.87589 99.390884 
L 846.951331 95.156397 
L 850.026772 95.213877 
L 853.102213 87.741259 
L 856.177654 83.343909 
L 859.253095 77.653211 
L 862.328536 78.802854 
L 865.403977 90.960233 
L 868.479418 109.933991 
L 871.554858 103.682851 
L 874.630299 112.544618 
L 877.70574 113.98645 
L 880.781181 109.268159 
L 883.856622 96.109634 
L 886.932063 103.759494 
L 890.007504 106.489878 
L 893.082945 107.3042 
L 896.158386 108.693343 
L 899.233827 110.681251 
L 902.309267 110.202238 
L 905.384708 91.012927 
L 908.460149 84.177395 
L 911.53559 71.603268 
L 914.611031 47.211855 
L 917.686472 65.05035 
L 920.761913 74.779128 
L 923.837354 70.985334 
L 926.912795 81.418272 
L 929.988235 86.993998 
L 933.063676 88.172375 
L 936.139117 80.326121 
L 939.214558 76.556275 
L 942.289999 65.218004 
L 945.36544 82.108053 
L 948.440881 87.195184 
L 951.516322 88.517265 
L 954.591763 82.548739 
L 957.667203 89.456129 
L 960.742644 92.742164 
L 963.818085 100.598001 
L 966.893526 97.197 
L 969.968967 99.592069 
L 973.044408 110.341152 
L 976.119849 114.863044 
L 979.19529 116.376729 
L 982.270731 118.503557 
L 985.346171 127.221613 
L 988.421612 126.148626 
L 988.421612 126.148626 
" clip-path="url(#p2435ad0b53)" style="fill: none; stroke: #1f77b4; stroke-width: 1.5; stroke-linecap: square"/>
   </g>
   <g id="line2d_13">
    <path d="M 548.633565 113.262842 
L 551.709006 112.394631 
L 554.784447 112.987548 
L 557.859888 113.020622 
L 560.935329 115.149763 
L 564.010769 114.802766 
L 567.08621 113.359077 
L 570.161651 112.736078 
L 573.237092 113.732736 
L 576.312533 112.925792 
L 579.387974 113.677895 
L 582.463415 112.749977 
L 585.538856 110.787503 
L 588.614297 113.388434 
L 591.689737 112.949135 
L 594.765178 114.073944 
L 597.840619 114.424133 
L 600.91606 111.937916 
L 603.991501 112.029652 
L 607.066942 111.959495 
L 610.142383 112.576464 
L 613.217824 111.066222 
L 616.293265 112.320986 
L 619.368705 112.892986 
L 622.444146 113.317706 
L 625.519587 111.312211 
L 628.595028 112.697037 
L 631.670469 112.87087 
L 634.74591 112.494624 
L 637.821351 112.888086 
L 640.896792 112.173449 
L 647.047673 112.671358 
L 650.123114 114.042737 
L 653.198555 112.491769 
L 656.273996 111.719492 
L 659.349437 111.469295 
L 662.424878 113.429622 
L 665.500319 112.753421 
L 668.57576 111.882469 
L 671.651201 112.279946 
L 674.726642 112.396493 
L 677.802082 111.865315 
L 680.877523 113.514392 
L 683.952964 113.109646 
L 687.028405 113.297041 
L 690.103846 113.249754 
L 693.179287 111.483799 
L 696.254728 113.177787 
L 699.330169 113.682017 
L 702.40561 113.539877 
L 705.48105 112.407851 
L 708.556491 113.046581 
L 711.631932 114.341676 
L 714.707373 113.1348 
L 717.782814 113.280201 
L 720.858255 112.014708 
L 723.933696 113.052783 
L 727.009137 112.140797 
L 730.084578 114.189703 
L 733.160018 113.106625 
L 736.235459 114.553968 
L 739.3109 111.920054 
L 742.386341 112.112765 
L 745.461782 112.568481 
L 748.537223 112.190271 
L 751.612664 113.953057 
L 754.688105 114.173799 
L 757.763546 112.735622 
L 763.914427 112.760627 
L 766.989868 112.997713 
L 770.065309 114.529808 
L 773.14075 111.794251 
L 776.216191 113.435287 
L 782.367073 112.91963 
L 785.442514 111.463722 
L 791.593395 113.056523 
L 794.668836 112.353083 
L 797.744277 113.457386 
L 800.819718 113.8546 
L 803.895159 111.547429 
L 806.9706 110.42394 
L 810.046041 112.816023 
L 813.121482 111.475377 
L 816.196922 112.397275 
L 819.272363 111.812712 
L 822.347804 113.052749 
L 825.423245 112.791451 
L 828.498686 113.218941 
L 831.574127 113.847428 
L 834.649568 112.630329 
L 837.725009 113.253129 
L 840.80045 113.745362 
L 843.87589 112.814909 
L 846.951331 112.124768 
L 850.026772 115.126271 
L 853.102213 113.69836 
L 856.177654 114.329359 
L 859.253095 112.474598 
L 862.328536 113.286933 
L 865.403977 112.103909 
L 868.479418 112.845636 
L 877.70574 114.250671 
L 880.781181 113.210484 
L 883.856622 111.694469 
L 886.932063 114.55997 
L 890.007504 111.750093 
L 893.082945 112.276537 
L 896.158386 113.393362 
L 902.309267 111.911129 
L 905.384708 113.166777 
L 911.53559 113.126965 
L 914.611031 113.611455 
L 917.686472 112.215288 
L 920.761913 113.398912 
L 923.837354 112.628319 
L 926.912795 110.996671 
L 929.988235 113.387726 
L 933.063676 112.442364 
L 936.139117 112.583968 
L 939.214558 112.843449 
L 945.36544 112.737249 
L 948.440881 110.439221 
L 951.516322 111.491377 
L 954.591763 113.708964 
L 957.667203 113.543908 
L 960.742644 113.186832 
L 963.818085 111.892314 
L 966.893526 113.431358 
L 969.968967 113.494423 
L 973.044408 113.027852 
L 976.119849 113.919269 
L 979.19529 112.130233 
L 982.270731 112.079686 
L 985.346171 112.430555 
L 988.421612 112.457228 
L 988.421612 112.457228 
" clip-path="url(#p2435ad0b53)" style="fill: none; stroke: #ff7f0e; stroke-width: 1.5; stroke-linecap: square"/>
   </g>
   <g id="line2d_14">
    <path d="M 548.633565 192.988125 
L 548.633565 29.059375 
" clip-path="url(#p2435ad0b53)" style="fill: none; stroke-dasharray: 7.4,3.2; stroke-dashoffset: 0; stroke: #0000ff; stroke-width: 2"/>
   </g>
   <g id="patch_3">
    <path d="M 61.6375 192.988125 
L 61.6375 29.059375 
" style="fill: none; stroke: #000000; stroke-width: 0.8; stroke-linejoin: miter; stroke-linecap: square"/>
   </g>
   <g id="patch_4">
    <path d="M 1032.554189 192.988125 
L 1032.554189 29.059375 
" style="fill: none; stroke: #000000; stroke-width: 0.8; stroke-linejoin: miter; stroke-linecap: square"/>
   </g>
   <g id="patch_5">
    <path d="M 61.6375 192.988125 
L 1032.554189 192.988125 
" style="fill: none; stroke: #000000; stroke-width: 0.8; stroke-linejoin: miter; stroke-linecap: square"/>
   </g>
   <g id="patch_6">
    <path d="M 61.6375 29.059375 
L 1032.554189 29.059375 
" style="fill: none; stroke: #000000; stroke-width: 0.8; stroke-linejoin: miter; stroke-linecap: square"/>
   </g>
   <g id="text_13">
    <!-- 云函数ID: 28 -->
    <g transform="translate(487.095845 23.059375) scale(0.2 -0.2)">
     <defs>
      <path id="SimSun-4e91" d="M 1200 4450 
L 4500 4450 
L 4850 4800 
L 5350 4300 
L 1975 4300 
Q 1700 4300 1425 4225 
L 1200 4450 
z
M 1600 275 
Q 2300 300 4725 450 
Q 4425 975 3850 1700 
L 3925 1775 
Q 5200 725 5287 500 
Q 5375 275 5375 175 
Q 5375 0 5250 -162 
Q 5125 -325 5075 -325 
Q 5025 -325 4975 -200 
Q 4875 50 4775 300 
Q 1650 -25 1300 -300 
L 975 300 
Q 1225 350 1462 550 
Q 1700 750 2150 1462 
Q 2600 2175 2725 2600 
L 1250 2600 
Q 925 2600 650 2525 
L 425 2750 
L 5025 2750 
L 5450 3175 
L 6025 2600 
L 3250 2600 
Q 3000 2025 2500 1375 
Q 2000 725 1600 275 
z
" transform="scale(0.015625)"/>
      <path id="SimSun-51fd" d="M 3050 2275 
L 3050 3000 
Q 3050 3450 3025 3800 
L 3275 3625 
L 4450 4475 
L 1650 4475 
Q 1325 4475 1050 4400 
L 825 4625 
L 4450 4625 
L 4775 4875 
L 5150 4375 
Q 4875 4325 4550 4175 
Q 4225 4025 3400 3550 
L 3550 3450 
L 3375 3325 
L 3375 2400 
Q 4250 3225 4475 3600 
L 4875 3150 
L 4625 3125 
Q 3625 2425 3400 2275 
Q 4575 1675 4687 1487 
Q 4800 1300 4800 1150 
Q 4800 1025 4750 925 
Q 4700 825 4675 825 
Q 4575 825 4375 1150 
Q 4075 1600 3375 2150 
L 3375 725 
Q 3375 350 2875 150 
Q 2850 450 2200 650 
L 2200 750 
Q 2800 675 2925 700 
Q 3050 725 3050 850 
L 3050 2100 
Q 1850 1300 1625 1025 
L 1275 1400 
Q 1575 1475 2087 1725 
Q 2600 1975 3050 2275 
z
M 1700 3475 
L 1775 3550 
Q 2350 3200 2475 3025 
Q 2600 2850 2600 2775 
Q 2600 2650 2500 2525 
Q 2400 2400 2350 2400 
Q 2275 2400 2225 2575 
Q 2150 2875 1700 3475 
z
M 5150 0 
L 5150 2175 
Q 5150 2725 5125 3325 
L 5725 3050 
L 5500 2850 
L 5500 525 
Q 5500 100 5525 -400 
L 5150 -600 
L 5150 -150 
L 1250 -150 
L 1000 -375 
L 675 -50 
L 875 125 
L 875 2375 
Q 875 2800 850 3425 
L 1450 3150 
L 1225 2975 
L 1225 0 
L 5150 0 
z
" transform="scale(0.015625)"/>
      <path id="SimSun-6570" d="M 1875 1525 
Q 1675 1200 1500 900 
Q 1825 825 2275 725 
Q 2500 975 2725 1525 
L 1875 1525 
z
M 850 4900 
Q 1325 4600 1425 4450 
Q 1525 4300 1525 4225 
Q 1525 4100 1437 3975 
Q 1350 3850 1300 3850 
Q 1225 3850 1150 4100 
Q 1050 4450 775 4850 
L 850 4900 
z
M 3000 4975 
L 3450 4675 
Q 3250 4625 3100 4425 
Q 2925 4225 2525 3825 
L 2450 3875 
Q 2925 4625 3000 4975 
z
M 1875 5250 
L 2425 5000 
L 2225 4825 
L 2225 3675 
L 2850 3675 
L 3125 3950 
L 3550 3525 
L 2225 3525 
L 2225 3300 
Q 2800 3175 2937 3062 
Q 3075 2950 3075 2775 
Q 3075 2700 3050 2587 
Q 3025 2475 2975 2475 
Q 2925 2475 2800 2650 
Q 2600 2925 2225 3175 
L 2225 2400 
L 1925 2200 
L 2275 2050 
Q 2150 2000 1950 1675 
L 2725 1675 
L 2900 1900 
L 3275 1575 
L 3050 1450 
Q 2800 875 2600 650 
Q 3000 550 3137 437 
Q 3275 325 3275 150 
Q 3275 -25 3200 -25 
Q 3125 -25 3025 75 
Q 2750 275 2400 425 
Q 1525 -275 325 -500 
L 300 -425 
Q 1450 -50 2100 550 
Q 1600 725 1125 800 
Q 1225 950 1525 1525 
L 1200 1525 
Q 875 1525 600 1450 
L 375 1675 
L 1575 1675 
Q 1675 1925 1775 2275 
L 1900 2225 
L 1900 3250 
Q 1225 2475 350 2050 
L 300 2125 
Q 1225 2775 1700 3525 
L 1250 3525 
Q 925 3525 650 3450 
L 425 3675 
L 1900 3675 
Q 1900 4575 1875 5250 
z
M 3925 3525 
Q 4050 2075 4525 1100 
Q 4925 1950 5025 3525 
L 3925 3525 
z
M 4050 5250 
L 4625 4925 
Q 4425 4850 4325 4625 
Q 4225 4400 3950 3675 
L 5375 3675 
L 5675 3975 
L 6125 3525 
L 5400 3525 
Q 5250 1675 4750 775 
Q 5325 75 6100 -100 
L 6100 -200 
Q 5625 -275 5600 -500 
Q 4950 -50 4525 525 
Q 3700 -275 2550 -650 
L 2500 -575 
Q 3650 -50 4325 800 
Q 3850 1975 3825 3375 
Q 3575 2725 3100 2150 
L 3025 2200 
Q 3625 3200 4050 5250 
z
" transform="scale(0.015625)"/>
      <path id="SimSun-49" d="M 600 4225 
L 600 4375 
L 2600 4375 
L 2600 4225 
L 2025 4225 
Q 1925 4225 1862 4175 
Q 1800 4125 1800 4025 
L 1800 450 
Q 1800 350 1862 300 
Q 1925 250 2025 250 
L 2600 250 
L 2600 100 
L 600 100 
L 600 250 
L 1175 250 
Q 1300 250 1350 300 
Q 1400 350 1400 450 
L 1400 4025 
Q 1400 4125 1350 4175 
Q 1300 4225 1175 4225 
L 600 4225 
z
" transform="scale(0.015625)"/>
      <path id="SimSun-44" d="M 2500 2275 
Q 2500 3350 2175 3787 
Q 1850 4225 1275 4225 
Q 1100 4225 1012 4175 
Q 925 4125 925 4025 
L 925 450 
Q 925 350 1000 300 
Q 1075 250 1200 250 
Q 1750 250 2125 662 
Q 2500 1075 2500 2275 
z
M 525 4025 
Q 525 4125 475 4175 
Q 425 4225 300 4225 
L 150 4225 
L 150 4375 
L 1275 4375 
Q 2050 4375 2512 3875 
Q 2975 3375 2975 2325 
Q 2975 1175 2525 637 
Q 2075 100 1200 100 
L 125 100 
L 125 250 
L 300 250 
Q 425 250 475 300 
Q 525 350 525 450 
L 525 4025 
z
" transform="scale(0.015625)"/>
      <path id="SimSun-3a" d="M 1900 2725 
Q 1900 2575 1800 2475 
Q 1700 2375 1550 2375 
Q 1400 2375 1300 2475 
Q 1200 2575 1200 2725 
Q 1200 2875 1300 2975 
Q 1400 3075 1550 3075 
Q 1700 3075 1800 2975 
Q 1900 2875 1900 2725 
z
M 1900 375 
Q 1900 225 1800 125 
Q 1700 25 1550 25 
Q 1400 25 1300 125 
Q 1200 225 1200 375 
Q 1200 525 1300 625 
Q 1400 725 1550 725 
Q 1700 725 1800 625 
Q 1900 525 1900 375 
z
" transform="scale(0.015625)"/>
      <path id="SimSun-20" d="M 0 0 
Q 0 0 0 0 
z
" transform="scale(0.015625)"/>
      <path id="SimSun-32" d="M 2325 3325 
Q 2325 3775 2125 4012 
Q 1925 4250 1525 4250 
Q 1225 4250 1012 4087 
Q 800 3925 800 3675 
Q 800 3525 900 3425 
Q 975 3325 975 3225 
Q 975 3100 912 3037 
Q 850 2975 725 2975 
Q 575 2975 487 3062 
Q 400 3150 400 3350 
Q 400 3875 775 4150 
Q 1150 4425 1575 4425 
Q 2175 4425 2462 4125 
Q 2750 3825 2750 3375 
Q 2750 3075 2612 2775 
Q 2475 2475 2175 2200 
Q 1450 1500 1062 1062 
Q 675 625 600 475 
L 2075 475 
Q 2300 475 2450 650 
Q 2600 825 2650 1175 
L 2800 1175 
L 2650 100 
L 325 100 
L 325 425 
Q 450 650 737 1000 
Q 1025 1350 1500 1825 
Q 1925 2250 2125 2625 
Q 2325 3000 2325 3325 
z
" transform="scale(0.015625)"/>
      <path id="SimSun-38" d="M 625 1125 
Q 625 725 887 475 
Q 1150 225 1550 225 
Q 2025 225 2237 475 
Q 2450 725 2450 1100 
Q 2450 1425 2150 1725 
Q 1850 2025 1250 2275 
Q 950 2075 787 1775 
Q 625 1475 625 1125 
z
M 2825 1175 
Q 2825 700 2475 375 
Q 2125 50 1550 50 
Q 1025 50 650 375 
Q 275 700 275 1125 
Q 275 1550 487 1850 
Q 700 2150 1100 2375 
Q 750 2550 562 2812 
Q 375 3075 375 3400 
Q 375 3825 700 4125 
Q 1025 4425 1600 4425 
Q 2125 4425 2450 4125 
Q 2775 3825 2775 3400 
Q 2775 3100 2587 2837 
Q 2400 2575 2000 2375 
Q 2425 2125 2625 1825 
Q 2825 1525 2825 1175 
z
M 2425 3375 
Q 2425 3725 2225 3987 
Q 2025 4250 1600 4250 
Q 1125 4250 925 4000 
Q 725 3750 725 3475 
Q 725 3200 1012 2937 
Q 1300 2675 1825 2475 
Q 2125 2625 2275 2850 
Q 2425 3075 2425 3375 
z
" transform="scale(0.015625)"/>
     </defs>
     <use xlink:href="#SimSun-4e91"/>
     <use xlink:href="#SimSun-51fd" x="100"/>
     <use xlink:href="#SimSun-6570" x="200"/>
     <use xlink:href="#SimSun-49" x="300"/>
     <use xlink:href="#SimSun-44" x="350"/>
     <use xlink:href="#SimSun-3a" x="400"/>
     <use xlink:href="#SimSun-20" x="450"/>
     <use xlink:href="#SimSun-32" x="500"/>
     <use xlink:href="#SimSun-38" x="550"/>
    </g>
   </g>
   <g id="legend_1">
    <g id="patch_7">
     <path d="M 75.6375 101.934375 
L 199.6375 101.934375 
Q 203.6375 101.934375 203.6375 97.934375 
L 203.6375 43.059375 
Q 203.6375 39.059375 199.6375 39.059375 
L 75.6375 39.059375 
Q 71.6375 39.059375 71.6375 43.059375 
L 71.6375 97.934375 
Q 71.6375 101.934375 75.6375 101.934375 
z
" style="fill: #ffffff; opacity: 0.8; stroke: #cccccc; stroke-linejoin: miter"/>
    </g>
    <g id="line2d_15">
     <path d="M 79.6375 55.996875 
L 99.6375 55.996875 
L 119.6375 55.996875 
" style="fill: none; stroke: #1f77b4; stroke-width: 1.5; stroke-linecap: square"/>
    </g>
    <g id="text_14">
     <!-- 真实值 -->
     <g transform="translate(135.6375 62.996875) scale(0.2 -0.2)">
      <defs>
       <path id="SimSun-771f" d="M 2050 3450 
L 2050 2900 
L 4300 2900 
L 4300 3450 
L 2050 3450 
z
M 2050 2750 
L 2050 2225 
L 4300 2225 
L 4300 2750 
L 2050 2750 
z
M 2050 2075 
L 2050 1550 
L 4300 1550 
L 4300 2075 
L 2050 2075 
z
M 2050 1400 
L 2050 875 
L 4300 875 
L 4300 1400 
L 2050 1400 
z
M 2875 3600 
L 2925 4325 
L 1525 4325 
Q 1200 4325 925 4250 
L 700 4475 
L 2950 4475 
Q 2975 4825 2975 5275 
L 3550 5025 
L 3375 4925 
L 3300 4475 
L 5000 4475 
L 5325 4825 
L 5775 4325 
L 3275 4325 
L 3200 3600 
L 4275 3600 
L 4450 3875 
L 4850 3575 
L 4650 3375 
L 4650 875 
L 5300 875 
L 5675 1225 
L 6125 725 
L 1150 725 
Q 825 725 550 650 
L 325 875 
L 1700 875 
Q 1700 3200 1675 3775 
L 2050 3600 
L 2875 3600 
z
M 2425 725 
L 2825 350 
L 2575 300 
Q 1500 -425 800 -650 
L 775 -575 
Q 1950 125 2425 725 
z
M 3800 700 
Q 4575 375 4962 200 
Q 5350 25 5400 -112 
Q 5450 -250 5450 -325 
Q 5450 -400 5400 -525 
Q 5350 -650 5325 -650 
Q 5250 -650 5100 -450 
Q 4875 -150 3750 625 
L 3800 700 
z
" transform="scale(0.015625)"/>
       <path id="SimSun-5b9e" d="M 1950 3625 
Q 2575 3400 2700 3250 
Q 2825 3100 2825 2975 
Q 2825 2850 2750 2700 
Q 2675 2550 2625 2550 
Q 2550 2550 2450 2800 
Q 2275 3175 1900 3550 
L 1950 3625 
z
M 3575 1325 
Q 3500 1100 3425 925 
Q 4650 550 5087 325 
Q 5525 100 5512 -225 
Q 5500 -550 5400 -550 
Q 5300 -550 5075 -300 
Q 4625 175 3375 800 
Q 3025 175 2300 -150 
Q 1575 -475 425 -625 
L 425 -525 
Q 1475 -325 2200 100 
Q 2925 525 3200 1325 
L 1225 1325 
Q 900 1325 625 1250 
L 400 1475 
L 3225 1475 
Q 3325 1950 3375 2575 
Q 3425 3200 3425 3700 
L 4050 3400 
L 3850 3225 
Q 3750 2300 3625 1475 
L 5175 1475 
L 5550 1850 
L 6075 1325 
L 3575 1325 
z
M 1275 2700 
Q 1975 2425 2100 2262 
Q 2225 2100 2225 1975 
Q 2225 1850 2150 1700 
Q 2075 1550 2025 1550 
Q 1950 1550 1850 1800 
Q 1675 2175 1225 2625 
L 1275 2700 
z
M 2750 5225 
L 2825 5275 
Q 3225 5100 3425 4925 
Q 3625 4750 3625 4600 
Q 3625 4450 3512 4300 
Q 3400 4150 3325 4150 
Q 3250 4150 3200 4400 
Q 3100 4775 2750 5225 
z
M 4975 3225 
L 5350 3925 
L 1175 3925 
Q 1225 3525 1125 3300 
Q 1025 3075 787 3100 
Q 550 3125 550 3200 
Q 550 3300 700 3475 
Q 975 3825 1050 4375 
L 1150 4375 
L 1175 4075 
L 5300 4075 
L 5575 4350 
L 6050 3800 
Q 5625 3825 5050 3175 
L 4975 3225 
z
" transform="scale(0.015625)"/>
       <path id="SimSun-503c" d="M 1525 650 
Q 1525 -225 1550 -525 
L 1175 -650 
Q 1200 250 1200 550 
L 1200 3025 
Q 750 2300 325 1850 
L 250 1900 
Q 725 2625 1100 3525 
Q 1475 4425 1675 5200 
L 2200 4875 
L 1950 4725 
Q 1550 3800 1425 3475 
L 1725 3300 
L 1525 3150 
L 1525 650 
z
M 2875 3225 
L 2875 2475 
L 4800 2475 
L 4800 3225 
L 2875 3225 
z
M 2875 2325 
L 2875 1575 
L 4800 1575 
L 4800 2325 
L 2875 2325 
z
M 2875 1425 
L 2875 675 
L 4800 675 
L 4800 1425 
L 2875 1425 
z
M 2875 525 
L 2875 -225 
L 4800 -225 
L 4800 525 
L 2875 525 
z
M 3550 4250 
Q 3575 4825 3550 5225 
L 4125 4950 
L 3925 4800 
L 3900 4250 
L 5025 4250 
L 5350 4575 
L 5825 4100 
L 3900 4100 
L 3875 3375 
L 4750 3375 
L 4975 3625 
L 5350 3300 
L 5125 3150 
L 5125 -225 
L 5350 -225 
L 5675 100 
L 6150 -375 
L 2450 -375 
Q 2125 -375 1850 -450 
L 1625 -225 
L 2550 -225 
L 2550 2550 
Q 2550 2850 2525 3575 
L 2875 3375 
L 3525 3375 
L 3550 4100 
L 2800 4100 
Q 2475 4100 2200 4025 
L 1975 4250 
L 3550 4250 
z
" transform="scale(0.015625)"/>
      </defs>
      <use xlink:href="#SimSun-771f"/>
      <use xlink:href="#SimSun-5b9e" x="100"/>
      <use xlink:href="#SimSun-503c" x="200"/>
     </g>
    </g>
    <g id="line2d_16">
     <path d="M 79.6375 84.35625 
L 99.6375 84.35625 
L 119.6375 84.35625 
" style="fill: none; stroke: #ff7f0e; stroke-width: 1.5; stroke-linecap: square"/>
    </g>
    <g id="text_15">
     <!-- 预测值 -->
     <g transform="translate(135.6375 91.35625) scale(0.2 -0.2)">
      <defs>
       <path id="SimSun-9884" d="M 475 4825 
L 2225 4825 
L 2425 5075 
L 2825 4675 
Q 2600 4625 2387 4412 
Q 2175 4200 1800 3750 
Q 2050 3575 2037 3400 
Q 2025 3225 1937 3150 
Q 1850 3075 1825 3075 
Q 1725 3075 1650 3300 
Q 1525 3600 1050 4100 
L 1100 4150 
Q 1475 3975 1700 3825 
L 2225 4675 
L 1300 4675 
Q 975 4675 700 4600 
L 475 4825 
z
M 725 100 
Q 1175 50 1362 37 
Q 1550 25 1550 275 
L 1550 2875 
L 1125 2875 
Q 800 2875 525 2800 
L 300 3025 
L 2525 3025 
L 2725 3275 
L 3150 2875 
Q 2800 2825 2275 2075 
L 2200 2125 
L 2550 2875 
L 1875 2875 
L 1875 150 
Q 1875 -400 1350 -500 
Q 1325 -175 725 0 
L 725 100 
z
M 3250 775 
Q 3275 1425 3275 2287 
Q 3275 3150 3250 3900 
L 3600 3700 
L 4050 3700 
Q 4175 4400 4200 4675 
L 3650 4675 
Q 3325 4675 3050 4600 
L 2825 4825 
L 5325 4825 
L 5675 5150 
L 6125 4675 
L 4675 4675 
Q 4500 4425 4175 3700 
L 5300 3700 
L 5475 3975 
L 5875 3675 
L 5675 3475 
L 5675 1950 
Q 5675 1525 5700 1075 
L 5350 875 
L 5350 3550 
L 3600 3550 
L 3600 1000 
L 3250 775 
z
M 4850 2875 
L 4625 2675 
Q 4625 1475 4475 937 
Q 4325 400 3900 50 
Q 3475 -300 2425 -625 
L 2400 -550 
Q 3500 -50 3837 400 
Q 4175 850 4237 1587 
Q 4300 2325 4275 3175 
L 4850 2875 
z
M 4650 950 
Q 5725 375 5875 212 
Q 6025 50 6025 -125 
Q 6025 -225 5962 -387 
Q 5900 -550 5850 -550 
Q 5800 -550 5750 -450 
Q 5625 -250 5437 0 
Q 5250 250 4600 875 
L 4650 950 
z
" transform="scale(0.015625)"/>
       <path id="SimSun-6d4b" d="M 1975 1000 
Q 2000 1475 2000 2925 
Q 2000 4375 1975 5000 
L 2350 4775 
L 3575 4775 
L 3775 4975 
L 4100 4650 
L 3900 4500 
L 3900 2350 
Q 3900 1850 3925 1350 
L 3600 1200 
L 3600 4625 
L 2325 4625 
L 2325 1150 
L 1975 1000 
z
M 2775 3975 
L 3300 3700 
L 3125 3525 
Q 3150 1825 2875 937 
Q 2600 50 1375 -600 
L 1325 -500 
Q 2200 100 2475 725 
Q 2750 1350 2775 2187 
Q 2800 3025 2775 3975 
z
M 3100 950 
Q 3825 450 3937 262 
Q 4050 75 4050 -25 
Q 4050 -150 3975 -262 
Q 3900 -375 3850 -375 
Q 3750 -375 3650 -75 
Q 3500 375 3050 875 
L 3100 950 
z
M 4475 825 
Q 4500 1200 4500 1700 
L 4500 3400 
Q 4500 3950 4475 4300 
L 5025 4025 
L 4825 3825 
L 4825 1700 
Q 4825 1325 4850 950 
L 4475 825 
z
M 5375 150 
L 5375 4050 
Q 5375 4750 5350 5125 
L 5875 4875 
L 5700 4700 
L 5700 75 
Q 5700 -200 5600 -350 
Q 5500 -500 5200 -600 
Q 5025 -225 4450 -50 
L 4450 50 
Q 5125 -50 5250 -37 
Q 5375 -25 5375 150 
z
M 1850 3500 
Q 1375 1525 1300 1225 
Q 1200 900 1212 450 
Q 1225 0 1250 -175 
Q 1250 -275 1125 -275 
Q 1025 -275 875 -225 
Q 725 -175 725 0 
Q 725 125 800 375 
Q 875 625 875 775 
Q 875 950 762 1050 
Q 650 1150 275 1250 
L 275 1350 
Q 725 1300 837 1312 
Q 950 1325 1087 1537 
Q 1225 1750 1750 3525 
L 1850 3500 
z
M 375 3775 
Q 1075 3350 1112 3100 
Q 1150 2850 1050 2775 
Q 950 2700 900 2700 
Q 800 2700 725 2975 
Q 600 3350 325 3700 
L 375 3775 
z
M 800 5100 
Q 1475 4725 1550 4512 
Q 1625 4300 1525 4187 
Q 1425 4075 1350 4075 
Q 1275 4075 1200 4300 
Q 1075 4650 750 5025 
L 800 5100 
z
" transform="scale(0.015625)"/>
      </defs>
      <use xlink:href="#SimSun-9884"/>
      <use xlink:href="#SimSun-6d4b" x="100"/>
      <use xlink:href="#SimSun-503c" x="200"/>
     </g>
    </g>
   </g>
  </g>
  <g id="axes_2">
   <g id="patch_8">
    <path d="M 61.6375 425.788125 
L 1032.554189 425.788125 
L 1032.554189 261.859375 
L 61.6375 261.859375 
z
" style="fill: #ffffff"/>
   </g>
   <g id="matplotlib.axis_3">
    <g id="xtick_8">
     <g id="line2d_17">
      <g>
       <use xlink:href="#m3afd51c53c" x="105.770077" y="425.788125" style="stroke: #000000; stroke-width: 0.8"/>
      </g>
     </g>
     <g id="text_16">
      <!-- 0 -->
      <g transform="translate(100.770077 446.675625) scale(0.2 -0.2)">
       <use xlink:href="#TimesNewRomanPSMT-30"/>
      </g>
     </g>
    </g>
    <g id="xtick_9">
     <g id="line2d_18">
      <g>
       <use xlink:href="#m3afd51c53c" x="259.542121" y="425.788125" style="stroke: #000000; stroke-width: 0.8"/>
      </g>
     </g>
     <g id="text_17">
      <!-- 50 -->
      <g transform="translate(249.542121 446.675625) scale(0.2 -0.2)">
       <use xlink:href="#TimesNewRomanPSMT-35"/>
       <use xlink:href="#TimesNewRomanPSMT-30" x="50"/>
      </g>
     </g>
    </g>
    <g id="xtick_10">
     <g id="line2d_19">
      <g>
       <use xlink:href="#m3afd51c53c" x="413.314166" y="425.788125" style="stroke: #000000; stroke-width: 0.8"/>
      </g>
     </g>
     <g id="text_18">
      <!-- 100 -->
      <g transform="translate(398.314166 446.675625) scale(0.2 -0.2)">
       <use xlink:href="#TimesNewRomanPSMT-31"/>
       <use xlink:href="#TimesNewRomanPSMT-30" x="50"/>
       <use xlink:href="#TimesNewRomanPSMT-30" x="100"/>
      </g>
     </g>
    </g>
    <g id="xtick_11">
     <g id="line2d_20">
      <g>
       <use xlink:href="#m3afd51c53c" x="567.08621" y="425.788125" style="stroke: #000000; stroke-width: 0.8"/>
      </g>
     </g>
     <g id="text_19">
      <!-- 150 -->
      <g transform="translate(552.08621 446.675625) scale(0.2 -0.2)">
       <use xlink:href="#TimesNewRomanPSMT-31"/>
       <use xlink:href="#TimesNewRomanPSMT-35" x="50"/>
       <use xlink:href="#TimesNewRomanPSMT-30" x="100"/>
      </g>
     </g>
    </g>
    <g id="xtick_12">
     <g id="line2d_21">
      <g>
       <use xlink:href="#m3afd51c53c" x="720.858255" y="425.788125" style="stroke: #000000; stroke-width: 0.8"/>
      </g>
     </g>
     <g id="text_20">
      <!-- 200 -->
      <g transform="translate(705.858255 446.675625) scale(0.2 -0.2)">
       <use xlink:href="#TimesNewRomanPSMT-32"/>
       <use xlink:href="#TimesNewRomanPSMT-30" x="50"/>
       <use xlink:href="#TimesNewRomanPSMT-30" x="100"/>
      </g>
     </g>
    </g>
    <g id="xtick_13">
     <g id="line2d_22">
      <g>
       <use xlink:href="#m3afd51c53c" x="874.630299" y="425.788125" style="stroke: #000000; stroke-width: 0.8"/>
      </g>
     </g>
     <g id="text_21">
      <!-- 250 -->
      <g transform="translate(859.630299 446.675625) scale(0.2 -0.2)">
       <use xlink:href="#TimesNewRomanPSMT-32"/>
       <use xlink:href="#TimesNewRomanPSMT-35" x="50"/>
       <use xlink:href="#TimesNewRomanPSMT-30" x="100"/>
      </g>
     </g>
    </g>
    <g id="xtick_14">
     <g id="line2d_23">
      <g>
       <use xlink:href="#m3afd51c53c" x="1028.402344" y="425.788125" style="stroke: #000000; stroke-width: 0.8"/>
      </g>
     </g>
     <g id="text_22">
      <!-- 300 -->
      <g transform="translate(1013.402344 446.675625) scale(0.2 -0.2)">
       <use xlink:href="#TimesNewRomanPSMT-33"/>
       <use xlink:href="#TimesNewRomanPSMT-30" x="50"/>
       <use xlink:href="#TimesNewRomanPSMT-30" x="100"/>
      </g>
     </g>
    </g>
   </g>
   <g id="matplotlib.axis_4">
    <g id="ytick_5">
     <g id="line2d_24">
      <g>
       <use xlink:href="#m51be5634df" x="61.6375" y="383.284681" style="stroke: #000000; stroke-width: 0.8"/>
      </g>
     </g>
     <g id="text_23">
      <!-- 1.0 -->
      <g transform="translate(29.6375 390.228431) scale(0.2 -0.2)">
       <use xlink:href="#TimesNewRomanPSMT-31"/>
       <use xlink:href="#TimesNewRomanPSMT-2e" x="50"/>
       <use xlink:href="#TimesNewRomanPSMT-30" x="75"/>
      </g>
     </g>
    </g>
    <g id="ytick_6">
     <g id="line2d_25">
      <g>
       <use xlink:href="#m51be5634df" x="61.6375" y="328.720337" style="stroke: #000000; stroke-width: 0.8"/>
      </g>
     </g>
     <g id="text_24">
      <!-- 2.0 -->
      <g transform="translate(29.6375 335.664087) scale(0.2 -0.2)">
       <use xlink:href="#TimesNewRomanPSMT-32"/>
       <use xlink:href="#TimesNewRomanPSMT-2e" x="50"/>
       <use xlink:href="#TimesNewRomanPSMT-30" x="75"/>
      </g>
     </g>
    </g>
    <g id="ytick_7">
     <g id="line2d_26">
      <g>
       <use xlink:href="#m51be5634df" x="61.6375" y="274.155993" style="stroke: #000000; stroke-width: 0.8"/>
      </g>
     </g>
     <g id="text_25">
      <!-- 3.0 -->
      <g transform="translate(29.6375 281.099743) scale(0.2 -0.2)">
       <use xlink:href="#TimesNewRomanPSMT-33"/>
       <use xlink:href="#TimesNewRomanPSMT-2e" x="50"/>
       <use xlink:href="#TimesNewRomanPSMT-30" x="75"/>
      </g>
     </g>
    </g>
    <g id="text_26">
     <!-- CPU使用率 -->
     <g transform="translate(23.059375 388.82375) rotate(-90) scale(0.2 -0.2)">
      <use xlink:href="#SimSun-43"/>
      <use xlink:href="#SimSun-50" x="50"/>
      <use xlink:href="#SimSun-55" x="100"/>
      <use xlink:href="#SimSun-4f7f" x="150"/>
      <use xlink:href="#SimSun-7528" x="250"/>
      <use xlink:href="#SimSun-7387" x="350"/>
     </g>
    </g>
   </g>
   <g id="line2d_27">
    <path d="M 105.770077 295.108704 
L 108.845518 306.370781 
L 111.920959 311.739918 
L 114.996399 318.025733 
L 118.07184 323.918671 
L 121.147281 322.478181 
L 124.222722 346.704743 
L 127.298163 334.264077 
L 130.373604 343.038022 
L 133.449045 349.847651 
L 136.524486 358.883509 
L 139.599927 360.71687 
L 142.675367 350.764334 
L 145.750808 364.252641 
L 148.826249 371.324176 
L 151.90169 375.90758 
L 154.977131 382.979115 
L 158.052572 388.87207 
L 161.128013 385.074392 
L 164.203454 387.169663 
L 170.354335 393.193567 
L 173.429776 395.943611 
L 176.505217 397.253152 
L 179.580658 402.491333 
L 182.656099 406.943781 
L 185.73154 409.431911 
L 188.806981 410.348595 
L 191.882422 411.52719 
L 198.033303 409.170011 
L 201.108744 415.062954 
L 207.259626 416.110594 
L 210.335067 416.503451 
L 213.410508 416.634408 
L 216.485949 409.693825 
L 219.56139 412.44386 
L 222.636831 413.098644 
L 225.712272 412.18196 
L 228.787712 411.396233 
L 231.863153 409.955738 
L 234.938594 404.45565 
L 238.014035 405.241377 
L 241.089476 402.229426 
L 244.164917 396.991245 
L 247.240358 395.419791 
L 250.315799 391.491157 
L 253.39124 372.371809 
L 256.46668 382.848165 
L 259.542121 378.788581 
L 262.617562 372.240859 
L 265.693003 368.050318 
L 268.768444 363.07405 
L 271.843885 346.442836 
L 274.919326 345.13329 
L 277.994767 340.549885 
L 281.070208 342.252296 
L 284.145648 340.680842 
L 287.221089 335.704574 
L 290.29653 325.621088 
L 293.371971 323.525808 
L 296.447412 327.192542 
L 299.522853 325.359175 
L 302.598294 324.835361 
L 305.673735 321.954354 
L 308.749176 310.037501 
L 311.824616 311.478005 
L 314.900057 319.990037 
L 317.975498 319.597174 
L 321.050939 319.597174 
L 324.12638 315.930453 
L 327.201821 310.168465 
L 330.277262 314.489962 
L 333.352703 319.728137 
L 336.428144 316.847143 
L 339.503584 313.180409 
L 342.579025 315.799503 
L 345.654466 328.894946 
L 348.729907 301.656419 
L 351.805348 316.192366 
L 354.880789 315.799503 
L 357.95623 317.63287 
L 361.031671 320.644814 
L 364.107112 316.71618 
L 367.182552 320.775764 
L 370.257993 322.216268 
L 373.333434 318.811447 
L 376.408875 320.382901 
L 379.484316 323.394858 
L 382.559757 317.240006 
L 385.635198 317.109043 
L 388.710639 320.513864 
L 391.78608 322.478181 
L 394.86152 324.704398 
L 397.936961 323.001994 
L 401.012402 320.25195 
L 404.087843 321.430541 
L 407.163284 322.740081 
L 410.238725 319.07336 
L 413.314166 316.978093 
L 416.389607 310.561328 
L 419.465048 314.489962 
L 422.540488 315.930453 
L 425.615929 317.89477 
L 428.69137 314.358999 
L 431.766811 316.061416 
L 434.842252 311.478005 
L 437.917693 305.454104 
L 440.993134 303.489786 
L 444.068575 299.823066 
L 447.144016 290.525294 
L 450.219457 292.620561 
L 453.294897 295.108704 
L 456.370338 293.930114 
L 459.445779 292.882474 
L 462.52122 297.073022 
L 465.596661 294.322978 
L 468.672102 297.073022 
L 471.747543 296.811108 
L 474.822984 294.061064 
L 477.898425 296.156332 
L 480.973865 297.334922 
L 484.049306 294.715841 
L 487.124747 297.203972 
L 490.200188 296.680158 
L 493.275629 289.739567 
L 496.35107 294.192014 
L 499.426511 296.942058 
L 502.501952 297.596835 
L 505.577393 297.727785 
L 508.652833 295.632518 
L 511.728274 291.965797 
L 514.803715 289.346703 
L 517.879156 290.26338 
L 520.954597 291.049107 
L 524.030038 291.049107 
L 527.105479 289.870517 
L 530.18092 275.858397 
L 533.256361 291.965797 
L 536.331801 294.322978 
L 539.407242 294.715841 
L 542.482683 301.525469 
L 545.558124 303.358836 
L 548.633565 304.537414 
L 551.709006 311.739918 
L 554.784447 318.156683 
L 557.859888 322.216268 
L 560.935329 329.680673 
L 564.010769 334.13312 
L 567.08621 358.490646 
L 570.161651 345.264246 
L 573.237092 353.252465 
L 576.312533 359.800186 
L 579.387974 365.038361 
L 582.463415 371.717039 
L 585.538856 376.693307 
L 588.614297 381.931482 
L 591.689737 388.086343 
L 594.765178 389.788753 
L 597.840619 394.765021 
L 600.91606 397.646015 
L 603.991501 396.205518 
L 607.066942 397.907928 
L 613.217824 401.836556 
L 616.293265 404.324693 
L 619.368705 405.11042 
L 622.444146 409.562868 
L 625.519587 412.44386 
L 628.595028 414.015314 
L 631.670469 414.277227 
L 634.74591 415.455824 
L 637.821351 415.848681 
L 640.896792 413.229587 
L 643.972233 418.205862 
L 647.047673 418.336818 
L 650.123114 417.943948 
L 653.198555 418.336818 
L 656.273996 418.205862 
L 659.349437 416.241538 
L 662.424878 416.110594 
L 665.500319 414.931998 
L 668.57576 412.705774 
L 671.651201 410.741463 
L 674.726642 407.860464 
L 677.802082 398.693655 
L 680.877523 396.991245 
L 683.952964 392.145927 
L 687.028405 382.324345 
L 690.103846 378.002854 
L 693.179287 371.847996 
L 696.254728 347.49047 
L 699.330169 354.431055 
L 702.40561 348.407154 
L 705.48105 341.859432 
L 708.556491 338.192705 
L 711.631932 330.466393 
L 714.707373 315.013776 
L 717.782814 316.192366 
L 720.858255 312.787545 
L 723.933696 313.835186 
L 727.009137 317.240006 
L 733.160018 308.204148 
L 736.235459 308.335098 
L 739.3109 305.32314 
L 742.386341 309.120824 
L 745.461782 315.275689 
L 748.537223 311.085142 
L 751.612664 297.727785 
L 754.688105 303.489786 
L 757.763546 311.739918 
L 760.838986 312.001819 
L 763.914427 308.597011 
L 766.989868 314.620912 
L 770.065309 309.120824 
L 773.14075 311.478005 
L 776.216191 311.216092 
L 779.291632 315.537589 
L 782.367073 314.358999 
L 785.442514 313.049459 
L 788.517954 322.871044 
L 791.593395 297.073022 
L 794.668836 302.965973 
L 797.744277 308.204148 
L 800.819718 311.478005 
L 803.895159 312.787545 
L 806.9706 307.549371 
L 810.046041 316.71618 
L 813.121482 318.287633 
L 816.196922 316.323316 
L 819.272363 319.728137 
L 822.347804 318.680497 
L 825.423245 304.0136 
L 828.498686 315.537589 
L 831.574127 307.942234 
L 834.649568 307.680321 
L 837.725009 317.76382 
L 840.80045 316.192366 
L 843.87589 308.335098 
L 846.951331 315.144726 
L 850.026772 317.76382 
L 853.102213 315.013776 
L 856.177654 316.192366 
L 859.253095 315.930453 
L 862.328536 312.656595 
L 865.403977 312.394682 
L 868.479418 311.085142 
L 871.554858 305.716004 
L 874.630299 312.263732 
L 877.70574 302.311196 
L 880.781181 300.346879 
L 883.856622 297.073022 
L 886.932063 298.382562 
L 890.007504 290.26338 
L 893.082945 289.346703 
L 896.158386 290.787207 
L 899.233827 282.798988 
L 902.309267 278.870354 
L 905.384708 277.2989 
L 908.460149 274.286943 
L 911.53559 274.025043 
L 914.611031 272.977403 
L 917.686472 279.787031 
L 920.761913 283.191852 
L 923.837354 280.572758 
L 926.912795 285.418069 
L 929.988235 291.049107 
L 933.063676 289.739567 
L 936.139117 282.406125 
L 939.214558 288.430026 
L 942.289999 287.77525 
L 945.36544 287.906213 
L 948.440881 292.227697 
L 951.516322 288.430026 
L 954.591763 276.644124 
L 957.667203 283.977579 
L 960.742644 284.632342 
L 963.818085 281.882298 
L 966.893526 285.025206 
L 969.968967 280.965621 
L 973.044408 269.310682 
L 976.119849 283.977579 
L 979.19529 288.299076 
L 982.270731 287.251436 
L 985.346171 294.061064 
L 988.421612 297.858748 
L 988.421612 297.858748 
" clip-path="url(#peee0cc0994)" style="fill: none; stroke: #1f77b4; stroke-width: 1.5; stroke-linecap: square"/>
   </g>
   <g id="line2d_28">
    <path d="M 548.633565 373.348706 
L 551.709006 374.38495 
L 554.784447 374.789684 
L 557.859888 373.084678 
L 564.010769 375.387279 
L 567.08621 373.683106 
L 570.161651 372.772582 
L 576.312533 373.169361 
L 579.387974 374.579729 
L 582.463415 373.104082 
L 585.538856 372.883485 
L 588.614297 373.014956 
L 591.689737 372.797924 
L 594.765178 373.565932 
L 597.840619 373.867862 
L 600.91606 373.621508 
L 603.991501 373.25063 
L 607.066942 373.750155 
L 610.142383 371.009348 
L 613.217824 372.590422 
L 616.293265 373.082961 
L 619.368705 372.050626 
L 622.444146 374.590442 
L 625.519587 373.125638 
L 628.595028 372.740924 
L 631.670469 372.915494 
L 634.74591 374.536955 
L 637.821351 373.502142 
L 640.896792 374.228573 
L 643.972233 373.099398 
L 650.123114 372.646992 
L 653.198555 370.990614 
L 656.273996 372.842272 
L 659.349437 372.297852 
L 662.424878 372.496886 
L 665.500319 371.968825 
L 668.57576 372.56856 
L 671.651201 372.658759 
L 674.726642 372.132851 
L 677.802082 372.720025 
L 683.952964 372.689551 
L 687.028405 371.789754 
L 690.103846 373.065665 
L 693.179287 373.020927 
L 696.254728 373.495748 
L 699.330169 370.975218 
L 702.40561 373.72921 
L 705.48105 372.631563 
L 708.556491 371.812611 
L 711.631932 371.662004 
L 714.707373 372.600087 
L 717.782814 372.392962 
L 720.858255 371.56545 
L 723.933696 372.183925 
L 727.009137 372.614371 
L 730.084578 373.576158 
L 733.160018 371.845778 
L 736.235459 373.675411 
L 739.3109 373.653881 
L 742.386341 372.807596 
L 745.461782 373.390745 
L 748.537223 371.599814 
L 757.763546 373.52336 
L 760.838986 373.065535 
L 763.914427 372.134516 
L 766.989868 373.204298 
L 770.065309 373.557919 
L 773.14075 372.971765 
L 776.216191 374.018007 
L 779.291632 372.159448 
L 782.367073 371.984267 
L 785.442514 372.773935 
L 788.517954 372.874594 
L 791.593395 373.138927 
L 794.668836 373.009804 
L 797.744277 370.628654 
L 800.819718 373.207875 
L 803.895159 373.396807 
L 810.046041 370.97125 
L 813.121482 371.669295 
L 816.196922 370.493157 
L 822.347804 373.501726 
L 825.423245 372.807499 
L 828.498686 372.967466 
L 831.574127 372.675501 
L 834.649568 373.495494 
L 837.725009 373.015138 
L 840.80045 374.169108 
L 843.87589 373.237777 
L 846.951331 371.987486 
L 850.026772 374.26602 
L 853.102213 372.662193 
L 856.177654 371.616752 
L 859.253095 374.13585 
L 862.328536 372.503169 
L 865.403977 372.010513 
L 868.479418 371.330322 
L 871.554858 373.133619 
L 874.630299 374.367277 
L 877.70574 373.400482 
L 880.781181 374.37706 
L 883.856622 374.024017 
L 886.932063 372.512796 
L 893.082945 372.937226 
L 896.158386 374.595815 
L 899.233827 372.705175 
L 902.309267 373.503254 
L 905.384708 373.72359 
L 908.460149 376.036709 
L 911.53559 373.265798 
L 914.611031 373.071416 
L 917.686472 374.543271 
L 920.761913 374.472788 
L 926.912795 372.966328 
L 929.988235 374.176283 
L 933.063676 374.031374 
L 936.139117 372.767073 
L 939.214558 373.090162 
L 942.289999 371.80156 
L 945.36544 373.031614 
L 948.440881 372.930923 
L 951.516322 373.773402 
L 954.591763 371.656787 
L 957.667203 373.274443 
L 960.742644 373.752679 
L 963.818085 373.322961 
L 966.893526 372.634464 
L 969.968967 374.203661 
L 973.044408 372.102878 
L 976.119849 374.380507 
L 979.19529 372.897314 
L 982.270731 372.891623 
L 985.346171 374.606079 
L 988.421612 373.705397 
L 988.421612 373.705397 
" clip-path="url(#peee0cc0994)" style="fill: none; stroke: #ff7f0e; stroke-width: 1.5; stroke-linecap: square"/>
   </g>
   <g id="line2d_29">
    <path d="M 548.633565 425.788125 
L 548.633565 261.859375 
" clip-path="url(#peee0cc0994)" style="fill: none; stroke-dasharray: 7.4,3.2; stroke-dashoffset: 0; stroke: #0000ff; stroke-width: 2"/>
   </g>
   <g id="patch_9">
    <path d="M 61.6375 425.788125 
L 61.6375 261.859375 
" style="fill: none; stroke: #000000; stroke-width: 0.8; stroke-linejoin: miter; stroke-linecap: square"/>
   </g>
   <g id="patch_10">
    <path d="M 1032.554189 425.788125 
L 1032.554189 261.859375 
" style="fill: none; stroke: #000000; stroke-width: 0.8; stroke-linejoin: miter; stroke-linecap: square"/>
   </g>
   <g id="patch_11">
    <path d="M 61.6375 425.788125 
L 1032.554189 425.788125 
" style="fill: none; stroke: #000000; stroke-width: 0.8; stroke-linejoin: miter; stroke-linecap: square"/>
   </g>
   <g id="patch_12">
    <path d="M 61.6375 261.859375 
L 1032.554189 261.859375 
" style="fill: none; stroke: #000000; stroke-width: 0.8; stroke-linejoin: miter; stroke-linecap: square"/>
   </g>
   <g id="text_27">
    <!-- 云函数ID: 150 -->
    <g transform="translate(482.095845 255.859375) scale(0.2 -0.2)">
     <defs>
      <path id="SimSun-31" d="M 1825 4450 
L 1825 650 
Q 1825 450 1950 350 
Q 2075 250 2300 250 
L 2550 250 
L 2550 100 
L 725 100 
L 725 250 
L 950 250 
Q 1200 250 1312 350 
Q 1425 450 1425 650 
L 1425 3675 
Q 1425 3775 1362 3837 
Q 1300 3900 1175 3900 
L 725 3900 
L 725 4050 
L 950 4050 
Q 1250 4050 1437 4150 
Q 1625 4250 1725 4450 
L 1825 4450 
z
" transform="scale(0.015625)"/>
      <path id="SimSun-35" d="M 1725 2850 
Q 2200 2850 2500 2487 
Q 2800 2125 2800 1525 
Q 2800 850 2487 450 
Q 2175 50 1525 50 
Q 1075 50 725 312 
Q 375 575 375 950 
Q 375 1100 462 1212 
Q 550 1325 700 1325 
Q 850 1325 900 1225 
Q 950 1125 950 1050 
Q 950 900 875 825 
Q 800 725 800 625 
Q 800 425 1037 325 
Q 1275 225 1550 225 
Q 1950 225 2162 550 
Q 2375 875 2375 1475 
Q 2375 1975 2187 2287 
Q 2000 2600 1625 2600 
Q 1350 2600 1150 2500 
Q 950 2400 775 2075 
L 550 2100 
L 675 4375 
L 2725 4375 
L 2650 4000 
L 850 4000 
L 750 2350 
Q 1000 2700 1237 2775 
Q 1475 2850 1725 2850 
z
" transform="scale(0.015625)"/>
      <path id="SimSun-30" d="M 1600 4225 
Q 1250 4225 1012 3687 
Q 775 3150 775 2250 
Q 775 1300 1012 775 
Q 1250 250 1600 250 
Q 1975 250 2187 775 
Q 2400 1300 2400 2250 
Q 2400 3150 2200 3687 
Q 2000 4225 1600 4225 
z
M 1600 50 
Q 1050 50 675 625 
Q 300 1200 300 2250 
Q 300 3225 662 3825 
Q 1025 4425 1600 4425 
Q 2150 4425 2512 3850 
Q 2875 3275 2875 2250 
Q 2875 1225 2512 637 
Q 2150 50 1600 50 
z
" transform="scale(0.015625)"/>
     </defs>
     <use xlink:href="#SimSun-4e91"/>
     <use xlink:href="#SimSun-51fd" x="100"/>
     <use xlink:href="#SimSun-6570" x="200"/>
     <use xlink:href="#SimSun-49" x="300"/>
     <use xlink:href="#SimSun-44" x="350"/>
     <use xlink:href="#SimSun-3a" x="400"/>
     <use xlink:href="#SimSun-20" x="450"/>
     <use xlink:href="#SimSun-31" x="500"/>
     <use xlink:href="#SimSun-35" x="550"/>
     <use xlink:href="#SimSun-30" x="600"/>
    </g>
   </g>
  </g>
  <g id="axes_3">
   <g id="patch_13">
    <path d="M 61.6375 658.588125 
L 1032.554189 658.588125 
L 1032.554189 494.659375 
L 61.6375 494.659375 
z
" style="fill: #ffffff"/>
   </g>
   <g id="matplotlib.axis_5">
    <g id="xtick_15">
     <g id="line2d_30">
      <g>
       <use xlink:href="#m3afd51c53c" x="105.770077" y="658.588125" style="stroke: #000000; stroke-width: 0.8"/>
      </g>
     </g>
     <g id="text_28">
      <!-- 0 -->
      <g transform="translate(100.770077 679.475625) scale(0.2 -0.2)">
       <use xlink:href="#TimesNewRomanPSMT-30"/>
      </g>
     </g>
    </g>
    <g id="xtick_16">
     <g id="line2d_31">
      <g>
       <use xlink:href="#m3afd51c53c" x="259.542121" y="658.588125" style="stroke: #000000; stroke-width: 0.8"/>
      </g>
     </g>
     <g id="text_29">
      <!-- 50 -->
      <g transform="translate(249.542121 679.475625) scale(0.2 -0.2)">
       <use xlink:href="#TimesNewRomanPSMT-35"/>
       <use xlink:href="#TimesNewRomanPSMT-30" x="50"/>
      </g>
     </g>
    </g>
    <g id="xtick_17">
     <g id="line2d_32">
      <g>
       <use xlink:href="#m3afd51c53c" x="413.314166" y="658.588125" style="stroke: #000000; stroke-width: 0.8"/>
      </g>
     </g>
     <g id="text_30">
      <!-- 100 -->
      <g transform="translate(398.314166 679.475625) scale(0.2 -0.2)">
       <use xlink:href="#TimesNewRomanPSMT-31"/>
       <use xlink:href="#TimesNewRomanPSMT-30" x="50"/>
       <use xlink:href="#TimesNewRomanPSMT-30" x="100"/>
      </g>
     </g>
    </g>
    <g id="xtick_18">
     <g id="line2d_33">
      <g>
       <use xlink:href="#m3afd51c53c" x="567.08621" y="658.588125" style="stroke: #000000; stroke-width: 0.8"/>
      </g>
     </g>
     <g id="text_31">
      <!-- 150 -->
      <g transform="translate(552.08621 679.475625) scale(0.2 -0.2)">
       <use xlink:href="#TimesNewRomanPSMT-31"/>
       <use xlink:href="#TimesNewRomanPSMT-35" x="50"/>
       <use xlink:href="#TimesNewRomanPSMT-30" x="100"/>
      </g>
     </g>
    </g>
    <g id="xtick_19">
     <g id="line2d_34">
      <g>
       <use xlink:href="#m3afd51c53c" x="720.858255" y="658.588125" style="stroke: #000000; stroke-width: 0.8"/>
      </g>
     </g>
     <g id="text_32">
      <!-- 200 -->
      <g transform="translate(705.858255 679.475625) scale(0.2 -0.2)">
       <use xlink:href="#TimesNewRomanPSMT-32"/>
       <use xlink:href="#TimesNewRomanPSMT-30" x="50"/>
       <use xlink:href="#TimesNewRomanPSMT-30" x="100"/>
      </g>
     </g>
    </g>
    <g id="xtick_20">
     <g id="line2d_35">
      <g>
       <use xlink:href="#m3afd51c53c" x="874.630299" y="658.588125" style="stroke: #000000; stroke-width: 0.8"/>
      </g>
     </g>
     <g id="text_33">
      <!-- 250 -->
      <g transform="translate(859.630299 679.475625) scale(0.2 -0.2)">
       <use xlink:href="#TimesNewRomanPSMT-32"/>
       <use xlink:href="#TimesNewRomanPSMT-35" x="50"/>
       <use xlink:href="#TimesNewRomanPSMT-30" x="100"/>
      </g>
     </g>
    </g>
    <g id="xtick_21">
     <g id="line2d_36">
      <g>
       <use xlink:href="#m3afd51c53c" x="1028.402344" y="658.588125" style="stroke: #000000; stroke-width: 0.8"/>
      </g>
     </g>
     <g id="text_34">
      <!-- 300 -->
      <g transform="translate(1013.402344 679.475625) scale(0.2 -0.2)">
       <use xlink:href="#TimesNewRomanPSMT-33"/>
       <use xlink:href="#TimesNewRomanPSMT-30" x="50"/>
       <use xlink:href="#TimesNewRomanPSMT-30" x="100"/>
      </g>
     </g>
    </g>
   </g>
   <g id="matplotlib.axis_6">
    <g id="ytick_8">
     <g id="line2d_37">
      <g>
       <use xlink:href="#m51be5634df" x="61.6375" y="621.033043" style="stroke: #000000; stroke-width: 0.8"/>
      </g>
     </g>
     <g id="text_35">
      <!-- 0.5 -->
      <g transform="translate(29.6375 627.976793) scale(0.2 -0.2)">
       <use xlink:href="#TimesNewRomanPSMT-30"/>
       <use xlink:href="#TimesNewRomanPSMT-2e" x="50"/>
       <use xlink:href="#TimesNewRomanPSMT-35" x="75"/>
      </g>
     </g>
    </g>
    <g id="ytick_9">
     <g id="line2d_38">
      <g>
       <use xlink:href="#m51be5634df" x="61.6375" y="579.567785" style="stroke: #000000; stroke-width: 0.8"/>
      </g>
     </g>
     <g id="text_36">
      <!-- 0.8 -->
      <g transform="translate(29.6375 586.511535) scale(0.2 -0.2)">
       <defs>
        <path id="TimesNewRomanPSMT-38" d="M 1228 2134 
Q 725 2547 579 2797 
Q 434 3047 434 3316 
Q 434 3728 753 4026 
Q 1072 4325 1600 4325 
Q 2113 4325 2425 4047 
Q 2738 3769 2738 3413 
Q 2738 3175 2569 2928 
Q 2400 2681 1866 2347 
Q 2416 1922 2594 1678 
Q 2831 1359 2831 1006 
Q 2831 559 2490 242 
Q 2150 -75 1597 -75 
Q 994 -75 656 303 
Q 388 606 388 966 
Q 388 1247 577 1523 
Q 766 1800 1228 2134 
z
M 1719 2469 
Q 2094 2806 2194 3001 
Q 2294 3197 2294 3444 
Q 2294 3772 2109 3958 
Q 1925 4144 1606 4144 
Q 1288 4144 1088 3959 
Q 888 3775 888 3528 
Q 888 3366 970 3203 
Q 1053 3041 1206 2894 
L 1719 2469 
z
M 1375 2016 
Q 1116 1797 991 1539 
Q 866 1281 866 981 
Q 866 578 1086 336 
Q 1306 94 1647 94 
Q 1984 94 2187 284 
Q 2391 475 2391 747 
Q 2391 972 2272 1150 
Q 2050 1481 1375 2016 
z
" transform="scale(0.015625)"/>
       </defs>
       <use xlink:href="#TimesNewRomanPSMT-30"/>
       <use xlink:href="#TimesNewRomanPSMT-2e" x="50"/>
       <use xlink:href="#TimesNewRomanPSMT-38" x="75"/>
      </g>
     </g>
    </g>
    <g id="ytick_10">
     <g id="line2d_39">
      <g>
       <use xlink:href="#m51be5634df" x="61.6375" y="538.102527" style="stroke: #000000; stroke-width: 0.8"/>
      </g>
     </g>
     <g id="text_37">
      <!-- 1.0 -->
      <g transform="translate(29.6375 545.046277) scale(0.2 -0.2)">
       <use xlink:href="#TimesNewRomanPSMT-31"/>
       <use xlink:href="#TimesNewRomanPSMT-2e" x="50"/>
       <use xlink:href="#TimesNewRomanPSMT-30" x="75"/>
      </g>
     </g>
    </g>
    <g id="ytick_11">
     <g id="line2d_40">
      <g>
       <use xlink:href="#m51be5634df" x="61.6375" y="496.637269" style="stroke: #000000; stroke-width: 0.8"/>
      </g>
     </g>
     <g id="text_38">
      <!-- 1.2 -->
      <g transform="translate(29.6375 503.581019) scale(0.2 -0.2)">
       <use xlink:href="#TimesNewRomanPSMT-31"/>
       <use xlink:href="#TimesNewRomanPSMT-2e" x="50"/>
       <use xlink:href="#TimesNewRomanPSMT-32" x="75"/>
      </g>
     </g>
    </g>
    <g id="text_39">
     <!-- CPU使用率 -->
     <g transform="translate(23.059375 621.62375) rotate(-90) scale(0.2 -0.2)">
      <use xlink:href="#SimSun-43"/>
      <use xlink:href="#SimSun-50" x="50"/>
      <use xlink:href="#SimSun-55" x="100"/>
      <use xlink:href="#SimSun-4f7f" x="150"/>
      <use xlink:href="#SimSun-7528" x="250"/>
      <use xlink:href="#SimSun-7387" x="350"/>
     </g>
    </g>
   </g>
   <g id="line2d_41">
    <path d="M 105.770077 554.191048 
L 108.845518 564.640296 
L 111.920959 570.030785 
L 114.996399 576.748144 
L 118.07184 584.211903 
L 121.147281 586.451023 
L 124.222722 611.744816 
L 127.298163 591.095131 
L 130.373604 596.402695 
L 133.449045 604.198152 
L 136.524486 605.773837 
L 139.599927 610.583814 
L 142.675367 603.949359 
L 145.750808 615.476716 
L 148.826249 619.872011 
L 151.90169 620.618391 
L 154.977131 626.589385 
L 158.052572 628.082145 
L 161.128013 624.764927 
L 164.203454 630.818851 
L 167.278895 632.394536 
L 170.354335 635.048298 
L 173.429776 636.789831 
L 176.505217 637.370342 
L 179.580658 635.711753 
L 182.656099 643.50721 
L 185.73154 645.248763 
L 188.806981 646.575654 
L 191.882422 648.068394 
L 194.957863 645.912179 
L 198.033303 641.931526 
L 201.108744 649.809927 
L 204.184185 648.897698 
L 210.335067 651.136818 
L 213.410508 651.136818 
L 216.485949 640.438786 
L 219.56139 643.424286 
L 222.636831 643.590154 
L 225.712272 639.360688 
L 228.787712 640.024144 
L 231.863153 635.711753 
L 234.938594 630.818851 
L 238.014035 635.131222 
L 241.089476 631.067645 
L 244.164917 625.262494 
L 247.240358 623.68681 
L 250.315799 621.530634 
L 253.39124 601.710239 
L 256.46668 609.256903 
L 259.542121 607.017783 
L 262.617562 596.651469 
L 265.693003 524.170202 
L 268.768444 537.190298 
L 271.843885 522.428649 
L 274.919326 523.00918 
L 277.994767 523.755559 
L 281.070208 517.286974 
L 284.145648 519.609018 
L 287.221089 516.540594 
L 290.29653 503.769291 
L 293.371971 507.252377 
L 296.447412 517.452823 
L 299.522853 511.398899 
L 302.598294 513.638038 
L 305.673735 517.701616 
L 308.749176 506.257204 
L 311.824616 508.745117 
L 314.900057 523.506766 
L 317.975498 526.492246 
L 321.050939 526.575171 
L 324.12638 519.194376 
L 327.201821 520.521247 
L 330.277262 526.160528 
L 333.352703 529.726559 
L 336.428144 525.662961 
L 339.503584 530.389994 
L 342.579025 529.726559 
L 345.654466 554.522775 
L 348.729907 519.028507 
L 351.805348 532.629114 
L 354.880789 533.873081 
L 357.95623 535.614614 
L 361.031671 540.341657 
L 364.107112 532.712039 
L 367.182552 545.81506 
L 370.257993 547.556613 
L 373.333434 543.493015 
L 376.408875 549.961601 
L 379.484316 552.781232 
L 382.559757 542.000275 
L 385.635198 549.712808 
L 388.710639 551.454341 
L 391.78608 553.361753 
L 394.86152 554.854493 
L 397.936961 550.459178 
L 401.012402 550.542112 
L 404.087843 547.14196 
L 407.163284 552.449514 
L 410.238725 547.059036 
L 413.314166 542.995439 
L 416.389607 537.024429 
L 419.465048 542.580777 
L 422.540488 537.522016 
L 425.615929 542.580777 
L 428.69137 537.936678 
L 431.766811 534.951159 
L 434.842252 537.60494 
L 437.917693 532.877907 
L 440.993134 532.048603 
L 444.068575 525.165375 
L 447.144016 519.2773 
L 450.219457 514.799041 
L 453.294897 520.852984 
L 456.370338 511.647692 
L 459.445779 514.21853 
L 462.52122 514.467323 
L 465.596661 514.964909 
L 468.672102 522.428649 
L 471.747543 518.779713 
L 474.822984 520.77004 
L 477.898425 519.2773 
L 480.973865 520.438322 
L 484.049306 517.286974 
L 487.124747 518.613845 
L 490.200188 521.599364 
L 493.275629 507.998757 
L 496.35107 514.384398 
L 499.426511 522.428649 
L 502.501952 522.345724 
L 505.577393 527.404495 
L 508.652833 522.511593 
L 511.728274 519.526093 
L 514.803715 521.101778 
L 517.879156 521.184702 
L 520.954597 530.887561 
L 524.030038 529.975332 
L 527.105479 535.199952 
L 530.18092 530.224126 
L 533.256361 541.170961 
L 536.331801 542.166124 
L 539.407242 541.502679 
L 542.482683 556.513112 
L 545.558124 559.332752 
L 548.633565 563.810992 
L 551.709006 565.386676 
L 554.784447 574.343175 
L 557.859888 579.484851 
L 560.935329 586.94861 
L 564.010769 591.260981 
L 567.08621 609.173979 
L 570.161651 593.334251 
L 573.237092 598.558871 
L 576.312533 608.925185 
L 579.387974 612.076554 
L 582.463415 615.725509 
L 585.538856 614.06688 
L 588.614297 618.710989 
L 591.689737 626.755254 
L 594.765178 625.843025 
L 597.840619 627.999201 
L 600.91606 628.082145 
L 603.991501 627.086972 
L 607.066942 635.877602 
L 610.142383 637.867929 
L 613.217824 638.199666 
L 616.293265 641.433939 
L 619.368705 640.770504 
L 622.444146 638.199666 
L 625.519587 646.824447 
L 628.595028 647.156145 
L 631.670469 645.663405 
L 634.74591 647.23909 
L 637.821351 650.22457 
L 640.896792 643.175492 
L 643.972233 647.570807 
L 647.047673 648.483036 
L 650.123114 650.390458 
L 653.198555 650.8051 
L 656.273996 647.156145 
L 659.349437 645.248763 
L 662.424878 644.419439 
L 665.500319 643.009624 
L 668.57576 640.770504 
L 671.651201 640.438786 
L 674.726642 634.053124 
L 677.802082 626.506461 
L 680.877523 631.73106 
L 683.952964 623.935603 
L 687.028405 617.467042 
L 690.103846 617.632891 
L 693.179287 609.920378 
L 696.254728 595.73926 
L 699.330169 598.475946 
L 702.40561 599.222326 
L 705.48105 589.519447 
L 708.556491 506.588921 
L 711.631932 530.141201 
L 714.707373 522.511593 
L 717.782814 530.638768 
L 720.858255 526.575171 
L 723.933696 524.004333 
L 727.009137 526.326397 
L 730.084578 522.428649 
L 733.160018 514.550247 
L 736.235459 519.526093 
L 739.3109 510.072008 
L 742.386341 517.121105 
L 745.461782 520.852984 
L 748.537223 516.955236 
L 751.612664 502.110682 
L 754.688105 509.989083 
L 757.763546 519.526093 
L 760.838986 521.599364 
L 763.914427 514.301454 
L 766.989868 520.852984 
L 773.14075 519.526093 
L 776.216191 523.175029 
L 779.291632 525.82881 
L 782.367073 525.994679 
L 785.442514 522.428649 
L 788.517954 556.181394 
L 791.593395 513.306301 
L 794.668836 524.004333 
L 797.744277 525.994679 
L 800.819718 538.019602 
L 803.895159 543.410081 
L 806.9706 528.648441 
L 810.046041 541.005092 
L 813.121482 546.063853 
L 816.196922 542.995439 
L 819.272363 546.561449 
L 822.347804 554.025199 
L 825.423245 536.443918 
L 828.498686 538.848897 
L 831.574127 548.220048 
L 834.649568 543.161288 
L 837.725009 554.108123 
L 840.80045 550.956764 
L 843.87589 546.644374 
L 846.951331 544.654047 
L 850.026772 545.980928 
L 853.102213 541.419754 
L 856.177654 545.151634 
L 859.253095 547.556613 
L 862.328536 539.595287 
L 865.403977 539.09769 
L 868.479418 537.522016 
L 871.554858 532.712039 
L 874.630299 539.761136 
L 877.70574 531.05343 
L 880.781181 528.565517 
L 883.856622 527.570363 
L 886.932063 525.447326 
L 890.007504 520.056838 
L 893.082945 525.629764 
L 896.158386 528.482573 
L 899.233827 514.749294 
L 902.309267 511.83013 
L 905.384708 515.611776 
L 908.460149 503.603442 
L 911.53559 513.953167 
L 914.611031 506.721613 
L 917.686472 513.090685 
L 920.761913 513.820476 
L 923.837354 516.208876 
L 926.912795 513.422403 
L 929.988235 518.53092 
L 933.063676 516.076185 
L 936.139117 507.318712 
L 939.214558 517.204029 
L 942.289999 514.152194 
L 945.36544 522.378902 
L 948.440881 522.71062 
L 951.516322 521.251038 
L 954.591763 515.081012 
L 957.667203 519.194376 
L 960.742644 524.50192 
L 963.818085 527.02301 
L 966.893526 534.652618 
L 969.968967 530.804637 
L 973.044408 537.505427 
L 976.119849 538.036172 
L 979.19529 547.921498 
L 982.270731 547.656126 
L 985.346171 554.091534 
L 988.421612 558.602961 
L 988.421612 558.602961 
" clip-path="url(#p867cf868b9)" style="fill: none; stroke: #1f77b4; stroke-width: 1.5; stroke-linecap: square"/>
   </g>
   <g id="line2d_42">
    <path d="M 548.633565 525.995727 
L 551.709006 516.674926 
L 554.784447 515.077255 
L 557.859888 513.759479 
L 560.935329 511.509109 
L 564.010769 520.200226 
L 567.08621 517.103191 
L 570.161651 517.289583 
L 573.237092 515.595108 
L 576.312533 508.487327 
L 579.387974 518.360702 
L 582.463415 513.496766 
L 585.538856 515.683114 
L 588.614297 517.545692 
L 591.689737 518.599174 
L 594.765178 517.217672 
L 597.840619 519.738743 
L 600.91606 517.285866 
L 603.991501 524.18681 
L 607.066942 519.102751 
L 610.142383 515.402052 
L 613.217824 518.453374 
L 616.293265 518.362441 
L 619.368705 517.071931 
L 622.444146 512.767232 
L 625.519587 512.138161 
L 628.595028 512.706452 
L 631.670469 525.487424 
L 634.74591 513.504952 
L 637.821351 515.938017 
L 640.896792 518.61857 
L 643.972233 517.854652 
L 647.047673 515.868656 
L 650.123114 517.757156 
L 653.198555 513.856204 
L 656.273996 513.618938 
L 659.349437 517.594905 
L 662.424878 511.356408 
L 665.500319 509.152819 
L 668.57576 505.198898 
L 671.651201 519.248551 
L 674.726642 515.001231 
L 677.802082 515.26426 
L 680.877523 516.894674 
L 683.952964 518.673992 
L 687.028405 518.523407 
L 690.103846 520.053872 
L 693.179287 509.976053 
L 696.254728 521.971575 
L 699.330169 515.385464 
L 702.40561 511.8154 
L 705.48105 513.453544 
L 708.556491 512.783307 
L 711.631932 519.247602 
L 714.707373 522.977505 
L 717.782814 507.073775 
L 720.858255 510.745764 
L 723.933696 510.72354 
L 727.009137 509.965396 
L 730.084578 518.253892 
L 733.160018 511.746217 
L 736.235459 515.319266 
L 739.3109 508.775942 
L 742.386341 516.417868 
L 745.461782 514.325457 
L 748.537223 521.541372 
L 751.612664 513.213886 
L 754.688105 513.670544 
L 757.763546 513.82105 
L 760.838986 511.169423 
L 763.914427 513.917913 
L 766.989868 519.411514 
L 770.065309 522.26976 
L 773.14075 517.999879 
L 776.216191 517.266727 
L 779.291632 511.518599 
L 782.367073 514.437744 
L 785.442514 515.991738 
L 788.517954 514.961093 
L 791.593395 518.31833 
L 794.668836 516.004471 
L 797.744277 512.084281 
L 800.819718 518.287228 
L 803.895159 511.069909 
L 806.9706 510.928855 
L 810.046041 515.969079 
L 813.121482 507.522307 
L 816.196922 507.299533 
L 819.272363 518.147795 
L 822.347804 514.5891 
L 825.423245 518.888955 
L 828.498686 513.594955 
L 831.574127 516.193928 
L 834.649568 507.202551 
L 837.725009 522.118918 
L 840.80045 517.630891 
L 843.87589 508.147028 
L 846.951331 513.07465 
L 850.026772 524.2311 
L 853.102213 517.667133 
L 856.177654 509.601806 
L 859.253095 514.12303 
L 862.328536 508.649657 
L 865.403977 519.91517 
L 868.479418 507.216174 
L 874.630299 517.859497 
L 877.70574 513.835305 
L 880.781181 517.728585 
L 883.856622 516.740609 
L 886.932063 526.297411 
L 890.007504 525.268566 
L 893.082945 515.742727 
L 896.158386 516.523965 
L 899.233827 515.677518 
L 902.309267 519.84927 
L 905.384708 512.04709 
L 908.460149 523.861598 
L 911.53559 517.850935 
L 914.611031 527.272278 
L 917.686472 518.452108 
L 920.761913 516.378561 
L 923.837354 512.975473 
L 926.912795 511.515495 
L 929.988235 512.800983 
L 933.063676 524.583697 
L 936.139117 512.882741 
L 939.214558 519.390496 
L 942.289999 511.292959 
L 945.36544 515.992548 
L 951.516322 510.569713 
L 954.591763 519.127071 
L 957.667203 511.398246 
L 960.742644 518.333297 
L 963.818085 520.067495 
L 966.893526 516.3977 
L 969.968967 515.750794 
L 973.044408 517.961264 
L 976.119849 521.29594 
L 979.19529 517.989202 
L 982.270731 514.183118 
L 985.346171 521.081729 
L 988.421612 514.973352 
L 988.421612 514.973352 
" clip-path="url(#p867cf868b9)" style="fill: none; stroke: #ff7f0e; stroke-width: 1.5; stroke-linecap: square"/>
   </g>
   <g id="line2d_43">
    <path d="M 548.633565 658.588125 
L 548.633565 494.659375 
" clip-path="url(#p867cf868b9)" style="fill: none; stroke-dasharray: 7.4,3.2; stroke-dashoffset: 0; stroke: #0000ff; stroke-width: 2"/>
   </g>
   <g id="patch_14">
    <path d="M 61.6375 658.588125 
L 61.6375 494.659375 
" style="fill: none; stroke: #000000; stroke-width: 0.8; stroke-linejoin: miter; stroke-linecap: square"/>
   </g>
   <g id="patch_15">
    <path d="M 1032.554189 658.588125 
L 1032.554189 494.659375 
" style="fill: none; stroke: #000000; stroke-width: 0.8; stroke-linejoin: miter; stroke-linecap: square"/>
   </g>
   <g id="patch_16">
    <path d="M 61.6375 658.588125 
L 1032.554189 658.588125 
" style="fill: none; stroke: #000000; stroke-width: 0.8; stroke-linejoin: miter; stroke-linecap: square"/>
   </g>
   <g id="patch_17">
    <path d="M 61.6375 494.659375 
L 1032.554189 494.659375 
" style="fill: none; stroke: #000000; stroke-width: 0.8; stroke-linejoin: miter; stroke-linecap: square"/>
   </g>
   <g id="text_40">
    <!-- 云函数ID: 160 -->
    <g transform="translate(482.095845 488.659375) scale(0.2 -0.2)">
     <defs>
      <path id="SimSun-36" d="M 775 1800 
Q 775 1050 1037 637 
Q 1300 225 1675 225 
Q 2050 225 2250 500 
Q 2450 775 2450 1525 
Q 2450 2025 2237 2300 
Q 2025 2575 1725 2575 
Q 1450 2575 1212 2412 
Q 975 2250 775 1800 
z
M 1750 2825 
Q 2350 2825 2612 2425 
Q 2875 2025 2875 1525 
Q 2875 775 2512 412 
Q 2150 50 1675 50 
Q 1000 50 650 562 
Q 300 1075 300 2050 
Q 300 3200 725 3812 
Q 1150 4425 1875 4425 
Q 2225 4425 2437 4225 
Q 2650 4025 2650 3875 
Q 2650 3725 2587 3650 
Q 2525 3575 2375 3575 
Q 2250 3575 2187 3637 
Q 2125 3700 2125 3825 
Q 2125 3875 2150 3925 
Q 2150 3975 2150 4025 
Q 2150 4125 2075 4187 
Q 2000 4250 1800 4250 
Q 1375 4250 1075 3862 
Q 775 3475 775 2175 
Q 925 2500 1187 2662 
Q 1450 2825 1750 2825 
z
" transform="scale(0.015625)"/>
     </defs>
     <use xlink:href="#SimSun-4e91"/>
     <use xlink:href="#SimSun-51fd" x="100"/>
     <use xlink:href="#SimSun-6570" x="200"/>
     <use xlink:href="#SimSun-49" x="300"/>
     <use xlink:href="#SimSun-44" x="350"/>
     <use xlink:href="#SimSun-3a" x="400"/>
     <use xlink:href="#SimSun-20" x="450"/>
     <use xlink:href="#SimSun-31" x="500"/>
     <use xlink:href="#SimSun-36" x="550"/>
     <use xlink:href="#SimSun-30" x="600"/>
    </g>
   </g>
  </g>
 </g>
 <defs>
  <clipPath id="p2435ad0b53">
   <rect x="61.6375" y="29.059375" width="970.916689" height="163.92875"/>
  </clipPath>
  <clipPath id="peee0cc0994">
   <rect x="61.6375" y="261.859375" width="970.916689" height="163.92875"/>
  </clipPath>
  <clipPath id="p867cf868b9">
   <rect x="61.6375" y="494.659375" width="970.916689" height="163.92875"/>
  </clipPath>
 </defs>
</svg>
