<?xml version="1.0" encoding="utf-8" standalone="no"?>
<!DOCTYPE svg PUBLIC "-//W3C//DTD SVG 1.1//EN"
  "http://www.w3.org/Graphics/SVG/1.1/DTD/svg11.dtd">
<svg xmlns:xlink="http://www.w3.org/1999/xlink" width="1405.768292pt" height="1410.86625pt" viewBox="0 0 1405.768292 1410.86625" xmlns="http://www.w3.org/2000/svg" version="1.1">
 <metadata>
  <rdf:RDF xmlns:dc="http://purl.org/dc/elements/1.1/" xmlns:cc="http://creativecommons.org/ns#" xmlns:rdf="http://www.w3.org/1999/02/22-rdf-syntax-ns#">
   <cc:Work>
    <dc:type rdf:resource="http://purl.org/dc/dcmitype/StillImage"/>
    <dc:date>2024-02-27T20:22:40.803543</dc:date>
    <dc:format>image/svg+xml</dc:format>
    <dc:creator>
     <cc:Agent>
      <dc:title>Matplotlib v3.7.1, https://matplotlib.org/</dc:title>
     </cc:Agent>
    </dc:creator>
   </cc:Work>
  </rdf:RDF>
 </metadata>
 <defs>
  <style type="text/css">*{stroke-linejoin: round; stroke-linecap: butt}</style>
 </defs>
 <g id="figure_1">
  <g id="patch_1">
   <path d="M 0 1410.86625 
L 1405.768292 1410.86625 
L 1405.768292 0 
L 0 0 
z
" style="fill: #ffffff"/>
  </g>
  <g id="axes_1">
   <g id="patch_2">
    <path d="M 56.6375 243.780625 
L 1386.101293 243.780625 
L 1386.101293 27.340625 
L 56.6375 27.340625 
z
" style="fill: #ffffff"/>
   </g>
   <g id="matplotlib.axis_1">
    <g id="xtick_1">
     <g id="line2d_1">
      <defs>
       <path id="mf26bf3eafa" d="M 0 0 
L 0 3.5 
" style="stroke: #000000; stroke-width: 0.8"/>
      </defs>
      <g>
       <use xlink:href="#mf26bf3eafa" x="117.067672" y="243.780625" style="stroke: #000000; stroke-width: 0.8"/>
      </g>
     </g>
     <g id="text_1">
      <!-- 0 -->
      <g transform="translate(112.067672 264.668125) scale(0.2 -0.2)">
       <defs>
        <path id="TimesNewRomanPSMT-30" d="M 231 2094 
Q 231 2819 450 3342 
Q 669 3866 1031 4122 
Q 1313 4325 1613 4325 
Q 2100 4325 2488 3828 
Q 2972 3213 2972 2159 
Q 2972 1422 2759 906 
Q 2547 391 2217 158 
Q 1888 -75 1581 -75 
Q 975 -75 572 641 
Q 231 1244 231 2094 
z
M 844 2016 
Q 844 1141 1059 588 
Q 1238 122 1591 122 
Q 1759 122 1940 273 
Q 2122 425 2216 781 
Q 2359 1319 2359 2297 
Q 2359 3022 2209 3506 
Q 2097 3866 1919 4016 
Q 1791 4119 1609 4119 
Q 1397 4119 1231 3928 
Q 1006 3669 925 3112 
Q 844 2556 844 2016 
z
" transform="scale(0.015625)"/>
       </defs>
       <use xlink:href="#TimesNewRomanPSMT-30"/>
      </g>
     </g>
    </g>
    <g id="xtick_2">
     <g id="line2d_2">
      <g>
       <use xlink:href="#mf26bf3eafa" x="297.996332" y="243.780625" style="stroke: #000000; stroke-width: 0.8"/>
      </g>
     </g>
     <g id="text_2">
      <!-- 25 -->
      <g transform="translate(287.996332 264.668125) scale(0.2 -0.2)">
       <defs>
        <path id="TimesNewRomanPSMT-32" d="M 2934 816 
L 2638 0 
L 138 0 
L 138 116 
Q 1241 1122 1691 1759 
Q 2141 2397 2141 2925 
Q 2141 3328 1894 3587 
Q 1647 3847 1303 3847 
Q 991 3847 742 3664 
Q 494 3481 375 3128 
L 259 3128 
Q 338 3706 661 4015 
Q 984 4325 1469 4325 
Q 1984 4325 2329 3994 
Q 2675 3663 2675 3213 
Q 2675 2891 2525 2569 
Q 2294 2063 1775 1497 
Q 997 647 803 472 
L 1909 472 
Q 2247 472 2383 497 
Q 2519 522 2628 598 
Q 2738 675 2819 816 
L 2934 816 
z
" transform="scale(0.015625)"/>
        <path id="TimesNewRomanPSMT-35" d="M 2778 4238 
L 2534 3706 
L 1259 3706 
L 981 3138 
Q 1809 3016 2294 2522 
Q 2709 2097 2709 1522 
Q 2709 1188 2573 903 
Q 2438 619 2231 419 
Q 2025 219 1772 97 
Q 1413 -75 1034 -75 
Q 653 -75 479 54 
Q 306 184 306 341 
Q 306 428 378 495 
Q 450 563 559 563 
Q 641 563 702 538 
Q 763 513 909 409 
Q 1144 247 1384 247 
Q 1750 247 2026 523 
Q 2303 800 2303 1197 
Q 2303 1581 2056 1914 
Q 1809 2247 1375 2428 
Q 1034 2569 447 2591 
L 1259 4238 
L 2778 4238 
z
" transform="scale(0.015625)"/>
       </defs>
       <use xlink:href="#TimesNewRomanPSMT-32"/>
       <use xlink:href="#TimesNewRomanPSMT-35" x="50"/>
      </g>
     </g>
    </g>
    <g id="xtick_3">
     <g id="line2d_3">
      <g>
       <use xlink:href="#mf26bf3eafa" x="478.924992" y="243.780625" style="stroke: #000000; stroke-width: 0.8"/>
      </g>
     </g>
     <g id="text_3">
      <!-- 50 -->
      <g transform="translate(468.924992 264.668125) scale(0.2 -0.2)">
       <use xlink:href="#TimesNewRomanPSMT-35"/>
       <use xlink:href="#TimesNewRomanPSMT-30" x="50"/>
      </g>
     </g>
    </g>
    <g id="xtick_4">
     <g id="line2d_4">
      <g>
       <use xlink:href="#mf26bf3eafa" x="659.853652" y="243.780625" style="stroke: #000000; stroke-width: 0.8"/>
      </g>
     </g>
     <g id="text_4">
      <!-- 75 -->
      <g transform="translate(649.853652 264.668125) scale(0.2 -0.2)">
       <defs>
        <path id="TimesNewRomanPSMT-37" d="M 644 4238 
L 2916 4238 
L 2916 4119 
L 1503 -88 
L 1153 -88 
L 2419 3728 
L 1253 3728 
Q 900 3728 750 3644 
Q 488 3500 328 3200 
L 238 3234 
L 644 4238 
z
" transform="scale(0.015625)"/>
       </defs>
       <use xlink:href="#TimesNewRomanPSMT-37"/>
       <use xlink:href="#TimesNewRomanPSMT-35" x="50"/>
      </g>
     </g>
    </g>
    <g id="xtick_5">
     <g id="line2d_5">
      <g>
       <use xlink:href="#mf26bf3eafa" x="840.782312" y="243.780625" style="stroke: #000000; stroke-width: 0.8"/>
      </g>
     </g>
     <g id="text_5">
      <!-- 100 -->
      <g transform="translate(825.782312 264.668125) scale(0.2 -0.2)">
       <defs>
        <path id="TimesNewRomanPSMT-31" d="M 750 3822 
L 1781 4325 
L 1884 4325 
L 1884 747 
Q 1884 391 1914 303 
Q 1944 216 2037 169 
Q 2131 122 2419 116 
L 2419 0 
L 825 0 
L 825 116 
Q 1125 122 1212 167 
Q 1300 213 1334 289 
Q 1369 366 1369 747 
L 1369 3034 
Q 1369 3497 1338 3628 
Q 1316 3728 1258 3775 
Q 1200 3822 1119 3822 
Q 1003 3822 797 3725 
L 750 3822 
z
" transform="scale(0.015625)"/>
       </defs>
       <use xlink:href="#TimesNewRomanPSMT-31"/>
       <use xlink:href="#TimesNewRomanPSMT-30" x="50"/>
       <use xlink:href="#TimesNewRomanPSMT-30" x="100"/>
      </g>
     </g>
    </g>
    <g id="xtick_6">
     <g id="line2d_6">
      <g>
       <use xlink:href="#mf26bf3eafa" x="1021.710972" y="243.780625" style="stroke: #000000; stroke-width: 0.8"/>
      </g>
     </g>
     <g id="text_6">
      <!-- 125 -->
      <g transform="translate(1006.710972 264.668125) scale(0.2 -0.2)">
       <use xlink:href="#TimesNewRomanPSMT-31"/>
       <use xlink:href="#TimesNewRomanPSMT-32" x="50"/>
       <use xlink:href="#TimesNewRomanPSMT-35" x="100"/>
      </g>
     </g>
    </g>
    <g id="xtick_7">
     <g id="line2d_7">
      <g>
       <use xlink:href="#mf26bf3eafa" x="1202.639632" y="243.780625" style="stroke: #000000; stroke-width: 0.8"/>
      </g>
     </g>
     <g id="text_7">
      <!-- 150 -->
      <g transform="translate(1187.639632 264.668125) scale(0.2 -0.2)">
       <use xlink:href="#TimesNewRomanPSMT-31"/>
       <use xlink:href="#TimesNewRomanPSMT-35" x="50"/>
       <use xlink:href="#TimesNewRomanPSMT-30" x="100"/>
      </g>
     </g>
    </g>
    <g id="xtick_8">
     <g id="line2d_8">
      <g>
       <use xlink:href="#mf26bf3eafa" x="1383.568292" y="243.780625" style="stroke: #000000; stroke-width: 0.8"/>
      </g>
     </g>
     <g id="text_8">
      <!-- 175 -->
      <g transform="translate(1368.568292 264.668125) scale(0.2 -0.2)">
       <use xlink:href="#TimesNewRomanPSMT-31"/>
       <use xlink:href="#TimesNewRomanPSMT-37" x="50"/>
       <use xlink:href="#TimesNewRomanPSMT-35" x="100"/>
      </g>
     </g>
    </g>
   </g>
   <g id="matplotlib.axis_2">
    <g id="ytick_1">
     <g id="line2d_9">
      <defs>
       <path id="m235df878fa" d="M 0 0 
L -3.5 0 
" style="stroke: #000000; stroke-width: 0.8"/>
      </defs>
      <g>
       <use xlink:href="#m235df878fa" x="56.6375" y="236.247146" style="stroke: #000000; stroke-width: 0.8"/>
      </g>
     </g>
     <g id="text_9">
      <!-- 2 -->
      <g transform="translate(39.6375 243.190896) scale(0.2 -0.2)">
       <use xlink:href="#TimesNewRomanPSMT-32"/>
      </g>
     </g>
    </g>
    <g id="ytick_2">
     <g id="line2d_10">
      <g>
       <use xlink:href="#m235df878fa" x="56.6375" y="178.629681" style="stroke: #000000; stroke-width: 0.8"/>
      </g>
     </g>
     <g id="text_10">
      <!-- 4 -->
      <g transform="translate(39.6375 185.573431) scale(0.2 -0.2)">
       <defs>
        <path id="TimesNewRomanPSMT-34" d="M 2978 1563 
L 2978 1119 
L 2409 1119 
L 2409 0 
L 1894 0 
L 1894 1119 
L 100 1119 
L 100 1519 
L 2066 4325 
L 2409 4325 
L 2409 1563 
L 2978 1563 
z
M 1894 1563 
L 1894 3666 
L 406 1563 
L 1894 1563 
z
" transform="scale(0.015625)"/>
       </defs>
       <use xlink:href="#TimesNewRomanPSMT-34"/>
      </g>
     </g>
    </g>
    <g id="ytick_3">
     <g id="line2d_11">
      <g>
       <use xlink:href="#m235df878fa" x="56.6375" y="121.012215" style="stroke: #000000; stroke-width: 0.8"/>
      </g>
     </g>
     <g id="text_11">
      <!-- 6 -->
      <g transform="translate(39.6375 127.955965) scale(0.2 -0.2)">
       <defs>
        <path id="TimesNewRomanPSMT-36" d="M 2869 4325 
L 2869 4209 
Q 2456 4169 2195 4045 
Q 1934 3922 1679 3669 
Q 1425 3416 1258 3105 
Q 1091 2794 978 2366 
Q 1428 2675 1881 2675 
Q 2316 2675 2634 2325 
Q 2953 1975 2953 1425 
Q 2953 894 2631 456 
Q 2244 -75 1606 -75 
Q 1172 -75 869 213 
Q 275 772 275 1663 
Q 275 2231 503 2743 
Q 731 3256 1154 3653 
Q 1578 4050 1965 4187 
Q 2353 4325 2688 4325 
L 2869 4325 
z
M 925 2138 
Q 869 1716 869 1456 
Q 869 1156 980 804 
Q 1091 453 1309 247 
Q 1469 100 1697 100 
Q 1969 100 2183 356 
Q 2397 613 2397 1088 
Q 2397 1622 2184 2012 
Q 1972 2403 1581 2403 
Q 1463 2403 1327 2353 
Q 1191 2303 925 2138 
z
" transform="scale(0.015625)"/>
       </defs>
       <use xlink:href="#TimesNewRomanPSMT-36"/>
      </g>
     </g>
    </g>
    <g id="ytick_4">
     <g id="line2d_12">
      <g>
       <use xlink:href="#m235df878fa" x="56.6375" y="63.394749" style="stroke: #000000; stroke-width: 0.8"/>
      </g>
     </g>
     <g id="text_12">
      <!-- 8 -->
      <g transform="translate(39.6375 70.338499) scale(0.2 -0.2)">
       <defs>
        <path id="TimesNewRomanPSMT-38" d="M 1228 2134 
Q 725 2547 579 2797 
Q 434 3047 434 3316 
Q 434 3728 753 4026 
Q 1072 4325 1600 4325 
Q 2113 4325 2425 4047 
Q 2738 3769 2738 3413 
Q 2738 3175 2569 2928 
Q 2400 2681 1866 2347 
Q 2416 1922 2594 1678 
Q 2831 1359 2831 1006 
Q 2831 559 2490 242 
Q 2150 -75 1597 -75 
Q 994 -75 656 303 
Q 388 606 388 966 
Q 388 1247 577 1523 
Q 766 1800 1228 2134 
z
M 1719 2469 
Q 2094 2806 2194 3001 
Q 2294 3197 2294 3444 
Q 2294 3772 2109 3958 
Q 1925 4144 1606 4144 
Q 1288 4144 1088 3959 
Q 888 3775 888 3528 
Q 888 3366 970 3203 
Q 1053 3041 1206 2894 
L 1719 2469 
z
M 1375 2016 
Q 1116 1797 991 1539 
Q 866 1281 866 981 
Q 866 578 1086 336 
Q 1306 94 1647 94 
Q 1984 94 2187 284 
Q 2391 475 2391 747 
Q 2391 972 2272 1150 
Q 2050 1481 1375 2016 
z
" transform="scale(0.015625)"/>
       </defs>
       <use xlink:href="#TimesNewRomanPSMT-38"/>
      </g>
     </g>
    </g>
    <g id="text_13">
     <!-- CPU使用率 -->
     <g transform="translate(33.059375 180.560625) rotate(-90) scale(0.2 -0.2)">
      <defs>
       <path id="SimSun-43" d="M 1725 50 
Q 1025 50 612 575 
Q 200 1100 200 2225 
Q 200 3175 637 3800 
Q 1075 4425 1825 4425 
Q 2000 4425 2175 4375 
Q 2350 4300 2475 4300 
Q 2575 4300 2637 4325 
Q 2700 4350 2750 4425 
L 2975 3325 
L 2825 3275 
Q 2675 3750 2425 4000 
Q 2175 4250 1775 4250 
Q 1250 4250 962 3675 
Q 675 3100 675 2250 
Q 675 1325 925 800 
Q 1175 275 1750 275 
Q 2150 275 2437 562 
Q 2725 850 2825 1325 
L 2975 1250 
Q 2850 725 2512 387 
Q 2175 50 1725 50 
z
" transform="scale(0.015625)"/>
       <path id="SimSun-50" d="M 950 2100 
L 950 450 
Q 950 350 1012 300 
Q 1075 250 1175 250 
L 1350 250 
L 1350 100 
L 150 100 
L 150 250 
L 325 250 
Q 450 250 500 300 
Q 550 350 550 450 
L 550 4025 
Q 550 4125 500 4175 
Q 450 4225 325 4225 
L 175 4225 
L 175 4375 
L 1650 4375 
Q 2275 4375 2612 4062 
Q 2950 3750 2950 3275 
Q 2950 2700 2587 2400 
Q 2225 2100 1725 2100 
L 950 2100 
z
M 1575 2250 
Q 1950 2250 2237 2475 
Q 2525 2700 2525 3250 
Q 2525 3750 2287 3987 
Q 2050 4225 1525 4225 
L 1175 4225 
Q 1075 4225 1012 4175 
Q 950 4125 950 4025 
L 950 2250 
L 1575 2250 
z
" transform="scale(0.015625)"/>
       <path id="SimSun-55" d="M 1625 250 
Q 2000 250 2262 500 
Q 2525 750 2525 1125 
L 2525 4025 
Q 2525 4125 2475 4175 
Q 2425 4225 2300 4225 
L 2150 4225 
L 2150 4375 
L 3050 4375 
L 3050 4225 
L 2900 4225 
Q 2800 4225 2737 4175 
Q 2675 4125 2675 4025 
L 2675 1125 
Q 2675 625 2337 337 
Q 2000 50 1575 50 
Q 1125 50 787 300 
Q 450 550 450 1100 
L 450 4025 
Q 450 4125 400 4175 
Q 350 4225 225 4225 
L 100 4225 
L 100 4375 
L 1200 4375 
L 1200 4225 
L 1075 4225 
Q 975 4225 912 4175 
Q 850 4125 850 4025 
L 850 1100 
Q 850 600 1062 425 
Q 1275 250 1625 250 
z
" transform="scale(0.015625)"/>
       <path id="SimSun-4f7f" d="M 2875 3150 
L 2875 2100 
L 3825 2100 
Q 3850 2825 3850 3150 
L 2875 3150 
z
M 4175 3150 
Q 4175 2800 4150 2100 
L 5150 2100 
L 5150 3150 
L 4175 3150 
z
M 5475 3100 
L 5475 2425 
Q 5475 2100 5500 1800 
L 5150 1675 
L 5150 1950 
L 4150 1950 
Q 4125 1175 3875 600 
Q 4275 275 4875 75 
Q 5475 -125 6075 -150 
L 6075 -250 
Q 5700 -300 5600 -575 
Q 4525 -325 3725 350 
Q 3425 25 2925 -225 
Q 2425 -475 1875 -650 
L 1825 -550 
Q 2400 -325 2850 -25 
Q 3300 275 3500 575 
Q 3200 925 2825 1650 
L 2900 1700 
Q 3325 1100 3625 825 
Q 3800 1300 3825 1950 
L 2875 1950 
L 2875 1825 
L 2525 1675 
Q 2550 2075 2550 2562 
Q 2550 3050 2525 3500 
L 2875 3300 
L 3850 3300 
L 3850 4025 
L 2975 4025 
Q 2650 4025 2375 3950 
L 2150 4175 
L 3850 4175 
L 3850 4525 
Q 3850 4775 3825 5225 
L 4350 5000 
L 4175 4825 
L 4175 4175 
L 5300 4175 
L 5600 4475 
L 6050 4025 
L 4175 4025 
L 4175 3300 
L 5100 3300 
L 5275 3525 
L 5650 3225 
L 5475 3100 
z
M 1675 3175 
L 1675 -450 
L 1325 -625 
Q 1350 -75 1350 350 
L 1350 3200 
Q 900 2475 350 1900 
L 275 1950 
Q 700 2525 1112 3400 
Q 1525 4275 1800 5250 
L 2325 4925 
L 2125 4800 
Q 1725 3925 1500 3525 
L 1875 3325 
L 1675 3175 
z
" transform="scale(0.015625)"/>
       <path id="SimSun-7528" d="M 3400 3150 
L 3400 1825 
L 5075 1825 
L 5075 3150 
L 3400 3150 
z
M 4075 100 
Q 4725 50 4900 62 
Q 5075 75 5075 400 
L 5075 1675 
L 3400 1675 
Q 3400 75 3425 -225 
L 3050 -400 
Q 3075 1025 3075 1675 
L 1425 1675 
Q 1250 350 375 -600 
L 300 -550 
Q 775 225 950 1025 
Q 1125 1825 1125 3225 
Q 1125 4625 1100 5075 
L 1475 4825 
L 5050 4825 
L 5225 5100 
L 5625 4800 
L 5425 4600 
L 5425 225 
Q 5450 -400 4875 -575 
Q 4825 -150 4075 -25 
L 4075 100 
z
M 1475 4675 
L 1475 3300 
L 3075 3300 
L 3075 4675 
L 1475 4675 
z
M 3400 4675 
L 3400 3300 
L 5075 3300 
L 5075 4675 
L 3400 4675 
z
M 1475 3150 
Q 1450 2100 1425 1825 
L 3075 1825 
L 3075 3150 
L 1475 3150 
z
" transform="scale(0.015625)"/>
       <path id="SimSun-7387" d="M 875 3725 
L 925 3800 
Q 1375 3650 1550 3525 
Q 1725 3400 1725 3250 
Q 1725 3175 1662 3025 
Q 1600 2875 1550 2875 
Q 1500 2875 1425 3050 
Q 1275 3325 875 3725 
z
M 550 1850 
Q 875 1925 2000 2575 
L 2050 2500 
Q 1675 2225 1337 1937 
Q 1000 1650 875 1425 
L 550 1850 
z
M 5200 3450 
Q 4800 3150 4275 2800 
L 4225 2875 
Q 4775 3400 5050 3925 
L 5450 3525 
L 5200 3450 
z
M 4325 2500 
L 4350 2575 
Q 5225 2350 5375 2212 
Q 5525 2075 5525 1900 
Q 5525 1775 5487 1662 
Q 5450 1550 5400 1550 
Q 5325 1550 5200 1800 
Q 4975 2150 4325 2500 
z
M 3150 3900 
Q 2500 3300 2300 3150 
Q 2800 3150 3400 3175 
Q 3700 3500 3850 3825 
L 4250 3450 
Q 4050 3400 3450 2825 
Q 2850 2250 2475 1950 
Q 3150 1975 3850 2000 
Q 3750 2175 3550 2450 
L 3600 2500 
Q 4050 2250 4200 2100 
Q 4350 1950 4350 1850 
Q 4350 1775 4250 1625 
Q 4150 1475 4100 1475 
Q 4075 1475 4050 1550 
Q 4000 1700 3900 1900 
Q 3650 1875 3075 1800 
L 3500 1550 
L 3325 1425 
L 3325 975 
L 5325 975 
L 5650 1300 
L 6100 825 
L 3325 825 
Q 3325 -275 3350 -525 
L 2975 -650 
Q 3000 0 3000 825 
L 1125 825 
Q 800 825 525 750 
L 300 975 
L 3000 975 
L 3000 1775 
Q 2450 1700 2200 1525 
L 1950 1950 
Q 2275 1950 2675 2350 
Q 3075 2750 3325 3050 
Q 2400 2950 2150 2775 
L 1950 3175 
Q 2150 3150 2475 3575 
Q 2800 4000 2900 4225 
L 1450 4225 
Q 1125 4225 850 4150 
L 625 4375 
L 3100 4375 
Q 3050 4800 2675 5200 
L 2725 5250 
Q 3225 5050 3337 4912 
Q 3450 4775 3450 4700 
Q 3450 4550 3250 4375 
L 5025 4375 
L 5350 4675 
L 5775 4225 
L 3050 4225 
L 3375 3950 
L 3150 3900 
z
" transform="scale(0.015625)"/>
      </defs>
      <use xlink:href="#SimSun-43"/>
      <use xlink:href="#SimSun-50" x="50"/>
      <use xlink:href="#SimSun-55" x="100"/>
      <use xlink:href="#SimSun-4f7f" x="150"/>
      <use xlink:href="#SimSun-7528" x="250"/>
      <use xlink:href="#SimSun-7387" x="350"/>
     </g>
    </g>
   </g>
   <g id="line2d_13">
    <path d="M 117.067672 196.491099 
L 124.304819 187.560386 
L 131.541965 197.643447 
L 138.779112 231.34966 
L 146.016258 176.03689 
L 153.253404 191.881699 
L 160.490551 98.829491 
L 167.727697 152.989912 
L 174.964844 194.76257 
L 182.20199 201.100492 
L 189.439136 161.05635 
L 196.676283 184.103342 
L 203.913429 210.319284 
L 211.150576 194.474482 
L 218.387722 186.408038 
L 225.624868 182.662906 
L 232.862015 209.455023 
L 240.099161 208.302675 
L 247.336308 222.418954 
L 254.573454 214.928684 
L 261.8106 211.183545 
L 269.047747 165.953837 
L 276.284893 186.696125 
L 283.52204 139.4498 
L 290.759186 173.444114 
L 297.996332 204.84563 
L 305.233479 191.881699 
L 312.470625 214.064423 
L 319.707771 225.011738 
L 326.944918 230.773486 
L 334.182064 218.96191 
L 341.419211 213.200162 
L 348.656357 210.319284 
L 355.893503 194.474482 
L 363.13065 201.100492 
L 370.367796 218.673816 
L 377.604943 212.912075 
L 384.842089 224.723657 
L 392.079235 216.081032 
L 399.316382 226.164093 
L 406.553528 216.657206 
L 413.790675 226.452173 
L 421.027821 216.945293 
L 428.264967 226.74026 
L 435.502114 216.945293 
L 442.73926 154.718435 
L 449.976407 152.125644 
L 457.213553 179.782029 
L 464.450699 208.014588 
L 471.687846 207.726501 
L 478.924992 222.130867 
L 486.162139 185.831864 
L 493.399285 182.374812 
L 500.636431 209.166936 
L 507.873578 208.302675 
L 515.110724 135.992756 
L 522.347871 171.715578 
L 529.585017 203.981362 
L 536.822163 76.070593 
L 544.05931 156.158863 
L 551.296456 181.798638 
L 558.533603 180.070116 
L 565.770749 179.493942 
L 573.007895 106.895929 
L 580.245042 114.098112 
L 587.482188 88.746438 
L 594.719335 119.283693 
L 601.956481 91.339214 
L 609.193627 149.244774 
L 616.430774 163.93722 
L 623.66792 113.810032 
L 630.905066 131.671443 
L 638.142213 155.294609 
L 645.379359 181.222464 
L 652.616506 165.665756 
L 659.853652 200.812405 
L 667.090798 175.460716 
L 674.327945 205.709891 
L 681.565091 206.574152 
L 688.802238 221.554693 
L 696.039384 214.35251 
L 703.27653 210.895458 
L 710.513677 93.932005 
L 717.750823 179.493942 
L 724.98797 193.610221 
L 732.225116 171.715578 
L 739.462262 160.76827 
L 746.699409 184.103342 
L 753.936555 195.626831 
L 761.173702 216.081032 
L 768.410848 211.759726 
L 775.647994 209.455023 
L 782.885141 222.995128 
L 790.122287 215.216771 
L 797.359434 225.587912 
L 804.59658 216.657206 
L 811.833726 226.452173 
L 819.070873 216.945293 
L 826.308019 226.452173 
L 833.545166 216.945293 
L 840.782312 212.335894 
L 848.019458 224.147476 
L 855.256605 230.197311 
L 862.493751 218.96191 
L 869.730898 198.795795 
L 876.968044 217.521467 
L 884.20519 226.74026 
L 891.442337 231.637747 
L 898.679483 219.538077 
L 905.91663 98.253317 
L 913.153776 181.510558 
L 920.390922 165.665756 
L 927.628069 143.483033 
L 934.865215 189.86509 
L 942.102361 212.912075 
L 949.339508 181.510558 
L 956.576654 194.474482 
L 963.813801 186.408038 
L 971.050947 125.045434 
L 978.288093 123.028831 
L 985.52524 150.685216 
L 992.762386 193.610221 
L 999.999533 200.524317 
L 1007.236679 160.76827 
L 1014.473825 169.698975 
L 1021.710972 101.998456 
L 1028.948118 97.100969 
L 1036.185265 37.178807 
L 1043.422411 107.760197 
L 1050.659557 128.790572 
L 1057.896704 153.854167 
L 1065.13385 195.050663 
L 1072.370997 172.291766 
L 1079.608143 132.247617 
L 1086.845289 169.987055 
L 1094.082436 145.499635 
L 1101.319582 147.516251 
L 1108.556729 177.477333 
L 1115.793875 178.053507 
L 1123.031021 163.93722 
L 1130.268168 200.23623 
L 1137.505314 189.288915 
L 1144.742461 198.507708 
L 1151.979607 217.23338 
L 1159.216753 212.335894 
L 1166.4539 195.626831 
L 1173.691046 186.984212 
L 1180.928193 125.333528 
L 1188.165339 180.64629 
L 1195.402485 194.186395 
L 1202.639632 215.216771 
L 1209.876778 211.183545 
L 1217.113925 209.455023 
L 1224.351071 193.898308 
L 1231.588217 186.408038 
L 1238.825364 196.779179 
L 1246.06251 187.84848 
L 1253.299657 197.643447 
L 1260.536803 216.945293 
L 1267.773949 226.452173 
L 1275.011096 216.945293 
L 1282.248242 226.74026 
L 1289.485388 231.34966 
L 1296.722535 233.942443 
L 1303.959681 220.690432 
L 1311.196828 214.064423 
L 1318.433974 66.563714 
L 1325.67112 137.145104 
L 1325.67112 137.145104 
" clip-path="url(#p6be04bc704)" style="fill: none; stroke: #1f77b4; stroke-width: 1.5; stroke-linecap: square"/>
   </g>
   <g id="line2d_14">
    <path d="M 1159.216753 209.505651 
L 1166.4539 205.233648 
L 1173.691046 202.841309 
L 1180.928193 205.200081 
L 1188.165339 201.398023 
L 1195.402485 202.633453 
L 1202.639632 206.823728 
L 1209.876778 214.173674 
L 1217.113925 216.559481 
L 1224.351071 211.995983 
L 1231.588217 209.740864 
L 1238.825364 216.000031 
L 1246.06251 212.943319 
L 1253.299657 208.393175 
L 1260.536803 209.443649 
L 1267.773949 211.503214 
L 1275.011096 213.854953 
L 1282.248242 211.295695 
L 1289.485388 210.633657 
L 1296.722535 216.323018 
L 1303.959681 217.916408 
L 1311.196828 211.212393 
L 1318.433974 208.789022 
L 1325.67112 206.957225 
" clip-path="url(#p6be04bc704)" style="fill: none; stroke: #ff7f0e; stroke-width: 1.5; stroke-linecap: square"/>
   </g>
   <g id="line2d_15">
    <path d="M 1159.216753 243.780625 
L 1159.216753 27.340625 
" clip-path="url(#p6be04bc704)" style="fill: none; stroke-dasharray: 7.4,3.2; stroke-dashoffset: 0; stroke: #0000ff; stroke-width: 2"/>
   </g>
   <g id="patch_3">
    <path d="M 56.6375 243.780625 
L 56.6375 27.340625 
" style="fill: none; stroke: #000000; stroke-width: 0.8; stroke-linejoin: miter; stroke-linecap: square"/>
   </g>
   <g id="patch_4">
    <path d="M 1386.101293 243.780625 
L 1386.101293 27.340625 
" style="fill: none; stroke: #000000; stroke-width: 0.8; stroke-linejoin: miter; stroke-linecap: square"/>
   </g>
   <g id="patch_5">
    <path d="M 56.6375 243.780625 
L 1386.101293 243.780625 
" style="fill: none; stroke: #000000; stroke-width: 0.8; stroke-linejoin: miter; stroke-linecap: square"/>
   </g>
   <g id="patch_6">
    <path d="M 56.6375 27.340625 
L 1386.101293 27.340625 
" style="fill: none; stroke: #000000; stroke-width: 0.8; stroke-linejoin: miter; stroke-linecap: square"/>
   </g>
   <g id="text_14">
    <!-- API_ID: 2 -->
    <g transform="translate(676.369396 21.340625) scale(0.2 -0.2)">
     <defs>
      <path id="SimSun-41" d="M 2025 1700 
L 900 1700 
L 675 750 
Q 650 625 650 550 
Q 650 450 687 350 
Q 725 250 900 250 
L 975 250 
L 975 100 
L 50 100 
L 50 250 
L 125 250 
Q 225 250 300 312 
Q 375 375 400 525 
L 1375 4350 
L 1750 4475 
L 2700 525 
Q 2750 375 2825 312 
Q 2900 250 3000 250 
L 3075 250 
L 3075 100 
L 2000 100 
L 2000 250 
L 2100 250 
Q 2250 250 2275 312 
Q 2300 375 2300 425 
Q 2300 525 2275 600 
L 2025 1700 
z
M 325 250 
L 325 250 
z
M 575 250 
L 575 250 
z
M 2350 250 
L 2350 250 
z
M 2775 250 
L 2775 250 
z
M 1500 3925 
L 1475 3925 
L 950 1850 
L 2000 1850 
L 1500 3925 
z
" transform="scale(0.015625)"/>
      <path id="SimSun-49" d="M 600 4225 
L 600 4375 
L 2600 4375 
L 2600 4225 
L 2025 4225 
Q 1925 4225 1862 4175 
Q 1800 4125 1800 4025 
L 1800 450 
Q 1800 350 1862 300 
Q 1925 250 2025 250 
L 2600 250 
L 2600 100 
L 600 100 
L 600 250 
L 1175 250 
Q 1300 250 1350 300 
Q 1400 350 1400 450 
L 1400 4025 
Q 1400 4125 1350 4175 
Q 1300 4225 1175 4225 
L 600 4225 
z
" transform="scale(0.015625)"/>
      <path id="SimSun-5f" d="M 0 -875 
L 0 -725 
L 3175 -725 
L 3175 -875 
L 0 -875 
z
" transform="scale(0.015625)"/>
      <path id="SimSun-44" d="M 2500 2275 
Q 2500 3350 2175 3787 
Q 1850 4225 1275 4225 
Q 1100 4225 1012 4175 
Q 925 4125 925 4025 
L 925 450 
Q 925 350 1000 300 
Q 1075 250 1200 250 
Q 1750 250 2125 662 
Q 2500 1075 2500 2275 
z
M 525 4025 
Q 525 4125 475 4175 
Q 425 4225 300 4225 
L 150 4225 
L 150 4375 
L 1275 4375 
Q 2050 4375 2512 3875 
Q 2975 3375 2975 2325 
Q 2975 1175 2525 637 
Q 2075 100 1200 100 
L 125 100 
L 125 250 
L 300 250 
Q 425 250 475 300 
Q 525 350 525 450 
L 525 4025 
z
" transform="scale(0.015625)"/>
      <path id="SimSun-3a" d="M 1900 2725 
Q 1900 2575 1800 2475 
Q 1700 2375 1550 2375 
Q 1400 2375 1300 2475 
Q 1200 2575 1200 2725 
Q 1200 2875 1300 2975 
Q 1400 3075 1550 3075 
Q 1700 3075 1800 2975 
Q 1900 2875 1900 2725 
z
M 1900 375 
Q 1900 225 1800 125 
Q 1700 25 1550 25 
Q 1400 25 1300 125 
Q 1200 225 1200 375 
Q 1200 525 1300 625 
Q 1400 725 1550 725 
Q 1700 725 1800 625 
Q 1900 525 1900 375 
z
" transform="scale(0.015625)"/>
      <path id="SimSun-20" d="M 0 0 
Q 0 0 0 0 
z
" transform="scale(0.015625)"/>
      <path id="SimSun-32" d="M 2325 3325 
Q 2325 3775 2125 4012 
Q 1925 4250 1525 4250 
Q 1225 4250 1012 4087 
Q 800 3925 800 3675 
Q 800 3525 900 3425 
Q 975 3325 975 3225 
Q 975 3100 912 3037 
Q 850 2975 725 2975 
Q 575 2975 487 3062 
Q 400 3150 400 3350 
Q 400 3875 775 4150 
Q 1150 4425 1575 4425 
Q 2175 4425 2462 4125 
Q 2750 3825 2750 3375 
Q 2750 3075 2612 2775 
Q 2475 2475 2175 2200 
Q 1450 1500 1062 1062 
Q 675 625 600 475 
L 2075 475 
Q 2300 475 2450 650 
Q 2600 825 2650 1175 
L 2800 1175 
L 2650 100 
L 325 100 
L 325 425 
Q 450 650 737 1000 
Q 1025 1350 1500 1825 
Q 1925 2250 2125 2625 
Q 2325 3000 2325 3325 
z
" transform="scale(0.015625)"/>
     </defs>
     <use xlink:href="#SimSun-41"/>
     <use xlink:href="#SimSun-50" x="50"/>
     <use xlink:href="#SimSun-49" x="100"/>
     <use xlink:href="#SimSun-5f" x="150"/>
     <use xlink:href="#SimSun-49" x="200"/>
     <use xlink:href="#SimSun-44" x="250"/>
     <use xlink:href="#SimSun-3a" x="300"/>
     <use xlink:href="#SimSun-20" x="350"/>
     <use xlink:href="#SimSun-32" x="400"/>
    </g>
   </g>
   <g id="legend_1">
    <g id="patch_7">
     <path d="M 70.6375 100.215625 
L 194.6375 100.215625 
Q 198.6375 100.215625 198.6375 96.215625 
L 198.6375 41.340625 
Q 198.6375 37.340625 194.6375 37.340625 
L 70.6375 37.340625 
Q 66.6375 37.340625 66.6375 41.340625 
L 66.6375 96.215625 
Q 66.6375 100.215625 70.6375 100.215625 
z
" style="fill: #ffffff; opacity: 0.8; stroke: #cccccc; stroke-linejoin: miter"/>
    </g>
    <g id="line2d_16">
     <path d="M 74.6375 54.278125 
L 94.6375 54.278125 
L 114.6375 54.278125 
" style="fill: none; stroke: #1f77b4; stroke-width: 1.5; stroke-linecap: square"/>
    </g>
    <g id="text_15">
     <!-- 真实值 -->
     <g transform="translate(130.6375 61.278125) scale(0.2 -0.2)">
      <defs>
       <path id="SimSun-771f" d="M 2050 3450 
L 2050 2900 
L 4300 2900 
L 4300 3450 
L 2050 3450 
z
M 2050 2750 
L 2050 2225 
L 4300 2225 
L 4300 2750 
L 2050 2750 
z
M 2050 2075 
L 2050 1550 
L 4300 1550 
L 4300 2075 
L 2050 2075 
z
M 2050 1400 
L 2050 875 
L 4300 875 
L 4300 1400 
L 2050 1400 
z
M 2875 3600 
L 2925 4325 
L 1525 4325 
Q 1200 4325 925 4250 
L 700 4475 
L 2950 4475 
Q 2975 4825 2975 5275 
L 3550 5025 
L 3375 4925 
L 3300 4475 
L 5000 4475 
L 5325 4825 
L 5775 4325 
L 3275 4325 
L 3200 3600 
L 4275 3600 
L 4450 3875 
L 4850 3575 
L 4650 3375 
L 4650 875 
L 5300 875 
L 5675 1225 
L 6125 725 
L 1150 725 
Q 825 725 550 650 
L 325 875 
L 1700 875 
Q 1700 3200 1675 3775 
L 2050 3600 
L 2875 3600 
z
M 2425 725 
L 2825 350 
L 2575 300 
Q 1500 -425 800 -650 
L 775 -575 
Q 1950 125 2425 725 
z
M 3800 700 
Q 4575 375 4962 200 
Q 5350 25 5400 -112 
Q 5450 -250 5450 -325 
Q 5450 -400 5400 -525 
Q 5350 -650 5325 -650 
Q 5250 -650 5100 -450 
Q 4875 -150 3750 625 
L 3800 700 
z
" transform="scale(0.015625)"/>
       <path id="SimSun-5b9e" d="M 1950 3625 
Q 2575 3400 2700 3250 
Q 2825 3100 2825 2975 
Q 2825 2850 2750 2700 
Q 2675 2550 2625 2550 
Q 2550 2550 2450 2800 
Q 2275 3175 1900 3550 
L 1950 3625 
z
M 3575 1325 
Q 3500 1100 3425 925 
Q 4650 550 5087 325 
Q 5525 100 5512 -225 
Q 5500 -550 5400 -550 
Q 5300 -550 5075 -300 
Q 4625 175 3375 800 
Q 3025 175 2300 -150 
Q 1575 -475 425 -625 
L 425 -525 
Q 1475 -325 2200 100 
Q 2925 525 3200 1325 
L 1225 1325 
Q 900 1325 625 1250 
L 400 1475 
L 3225 1475 
Q 3325 1950 3375 2575 
Q 3425 3200 3425 3700 
L 4050 3400 
L 3850 3225 
Q 3750 2300 3625 1475 
L 5175 1475 
L 5550 1850 
L 6075 1325 
L 3575 1325 
z
M 1275 2700 
Q 1975 2425 2100 2262 
Q 2225 2100 2225 1975 
Q 2225 1850 2150 1700 
Q 2075 1550 2025 1550 
Q 1950 1550 1850 1800 
Q 1675 2175 1225 2625 
L 1275 2700 
z
M 2750 5225 
L 2825 5275 
Q 3225 5100 3425 4925 
Q 3625 4750 3625 4600 
Q 3625 4450 3512 4300 
Q 3400 4150 3325 4150 
Q 3250 4150 3200 4400 
Q 3100 4775 2750 5225 
z
M 4975 3225 
L 5350 3925 
L 1175 3925 
Q 1225 3525 1125 3300 
Q 1025 3075 787 3100 
Q 550 3125 550 3200 
Q 550 3300 700 3475 
Q 975 3825 1050 4375 
L 1150 4375 
L 1175 4075 
L 5300 4075 
L 5575 4350 
L 6050 3800 
Q 5625 3825 5050 3175 
L 4975 3225 
z
" transform="scale(0.015625)"/>
       <path id="SimSun-503c" d="M 1525 650 
Q 1525 -225 1550 -525 
L 1175 -650 
Q 1200 250 1200 550 
L 1200 3025 
Q 750 2300 325 1850 
L 250 1900 
Q 725 2625 1100 3525 
Q 1475 4425 1675 5200 
L 2200 4875 
L 1950 4725 
Q 1550 3800 1425 3475 
L 1725 3300 
L 1525 3150 
L 1525 650 
z
M 2875 3225 
L 2875 2475 
L 4800 2475 
L 4800 3225 
L 2875 3225 
z
M 2875 2325 
L 2875 1575 
L 4800 1575 
L 4800 2325 
L 2875 2325 
z
M 2875 1425 
L 2875 675 
L 4800 675 
L 4800 1425 
L 2875 1425 
z
M 2875 525 
L 2875 -225 
L 4800 -225 
L 4800 525 
L 2875 525 
z
M 3550 4250 
Q 3575 4825 3550 5225 
L 4125 4950 
L 3925 4800 
L 3900 4250 
L 5025 4250 
L 5350 4575 
L 5825 4100 
L 3900 4100 
L 3875 3375 
L 4750 3375 
L 4975 3625 
L 5350 3300 
L 5125 3150 
L 5125 -225 
L 5350 -225 
L 5675 100 
L 6150 -375 
L 2450 -375 
Q 2125 -375 1850 -450 
L 1625 -225 
L 2550 -225 
L 2550 2550 
Q 2550 2850 2525 3575 
L 2875 3375 
L 3525 3375 
L 3550 4100 
L 2800 4100 
Q 2475 4100 2200 4025 
L 1975 4250 
L 3550 4250 
z
" transform="scale(0.015625)"/>
      </defs>
      <use xlink:href="#SimSun-771f"/>
      <use xlink:href="#SimSun-5b9e" x="100"/>
      <use xlink:href="#SimSun-503c" x="200"/>
     </g>
    </g>
    <g id="line2d_17">
     <path d="M 74.6375 82.6375 
L 94.6375 82.6375 
L 114.6375 82.6375 
" style="fill: none; stroke: #ff7f0e; stroke-width: 1.5; stroke-linecap: square"/>
    </g>
    <g id="text_16">
     <!-- 预测值 -->
     <g transform="translate(130.6375 89.6375) scale(0.2 -0.2)">
      <defs>
       <path id="SimSun-9884" d="M 475 4825 
L 2225 4825 
L 2425 5075 
L 2825 4675 
Q 2600 4625 2387 4412 
Q 2175 4200 1800 3750 
Q 2050 3575 2037 3400 
Q 2025 3225 1937 3150 
Q 1850 3075 1825 3075 
Q 1725 3075 1650 3300 
Q 1525 3600 1050 4100 
L 1100 4150 
Q 1475 3975 1700 3825 
L 2225 4675 
L 1300 4675 
Q 975 4675 700 4600 
L 475 4825 
z
M 725 100 
Q 1175 50 1362 37 
Q 1550 25 1550 275 
L 1550 2875 
L 1125 2875 
Q 800 2875 525 2800 
L 300 3025 
L 2525 3025 
L 2725 3275 
L 3150 2875 
Q 2800 2825 2275 2075 
L 2200 2125 
L 2550 2875 
L 1875 2875 
L 1875 150 
Q 1875 -400 1350 -500 
Q 1325 -175 725 0 
L 725 100 
z
M 3250 775 
Q 3275 1425 3275 2287 
Q 3275 3150 3250 3900 
L 3600 3700 
L 4050 3700 
Q 4175 4400 4200 4675 
L 3650 4675 
Q 3325 4675 3050 4600 
L 2825 4825 
L 5325 4825 
L 5675 5150 
L 6125 4675 
L 4675 4675 
Q 4500 4425 4175 3700 
L 5300 3700 
L 5475 3975 
L 5875 3675 
L 5675 3475 
L 5675 1950 
Q 5675 1525 5700 1075 
L 5350 875 
L 5350 3550 
L 3600 3550 
L 3600 1000 
L 3250 775 
z
M 4850 2875 
L 4625 2675 
Q 4625 1475 4475 937 
Q 4325 400 3900 50 
Q 3475 -300 2425 -625 
L 2400 -550 
Q 3500 -50 3837 400 
Q 4175 850 4237 1587 
Q 4300 2325 4275 3175 
L 4850 2875 
z
M 4650 950 
Q 5725 375 5875 212 
Q 6025 50 6025 -125 
Q 6025 -225 5962 -387 
Q 5900 -550 5850 -550 
Q 5800 -550 5750 -450 
Q 5625 -250 5437 0 
Q 5250 250 4600 875 
L 4650 950 
z
" transform="scale(0.015625)"/>
       <path id="SimSun-6d4b" d="M 1975 1000 
Q 2000 1475 2000 2925 
Q 2000 4375 1975 5000 
L 2350 4775 
L 3575 4775 
L 3775 4975 
L 4100 4650 
L 3900 4500 
L 3900 2350 
Q 3900 1850 3925 1350 
L 3600 1200 
L 3600 4625 
L 2325 4625 
L 2325 1150 
L 1975 1000 
z
M 2775 3975 
L 3300 3700 
L 3125 3525 
Q 3150 1825 2875 937 
Q 2600 50 1375 -600 
L 1325 -500 
Q 2200 100 2475 725 
Q 2750 1350 2775 2187 
Q 2800 3025 2775 3975 
z
M 3100 950 
Q 3825 450 3937 262 
Q 4050 75 4050 -25 
Q 4050 -150 3975 -262 
Q 3900 -375 3850 -375 
Q 3750 -375 3650 -75 
Q 3500 375 3050 875 
L 3100 950 
z
M 4475 825 
Q 4500 1200 4500 1700 
L 4500 3400 
Q 4500 3950 4475 4300 
L 5025 4025 
L 4825 3825 
L 4825 1700 
Q 4825 1325 4850 950 
L 4475 825 
z
M 5375 150 
L 5375 4050 
Q 5375 4750 5350 5125 
L 5875 4875 
L 5700 4700 
L 5700 75 
Q 5700 -200 5600 -350 
Q 5500 -500 5200 -600 
Q 5025 -225 4450 -50 
L 4450 50 
Q 5125 -50 5250 -37 
Q 5375 -25 5375 150 
z
M 1850 3500 
Q 1375 1525 1300 1225 
Q 1200 900 1212 450 
Q 1225 0 1250 -175 
Q 1250 -275 1125 -275 
Q 1025 -275 875 -225 
Q 725 -175 725 0 
Q 725 125 800 375 
Q 875 625 875 775 
Q 875 950 762 1050 
Q 650 1150 275 1250 
L 275 1350 
Q 725 1300 837 1312 
Q 950 1325 1087 1537 
Q 1225 1750 1750 3525 
L 1850 3500 
z
M 375 3775 
Q 1075 3350 1112 3100 
Q 1150 2850 1050 2775 
Q 950 2700 900 2700 
Q 800 2700 725 2975 
Q 600 3350 325 3700 
L 375 3775 
z
M 800 5100 
Q 1475 4725 1550 4512 
Q 1625 4300 1525 4187 
Q 1425 4075 1350 4075 
Q 1275 4075 1200 4300 
Q 1075 4650 750 5025 
L 800 5100 
z
" transform="scale(0.015625)"/>
      </defs>
      <use xlink:href="#SimSun-9884"/>
      <use xlink:href="#SimSun-6d4b" x="100"/>
      <use xlink:href="#SimSun-503c" x="200"/>
     </g>
    </g>
   </g>
  </g>
  <g id="axes_2">
   <g id="patch_8">
    <path d="M 56.6375 527.460625 
L 1386.101293 527.460625 
L 1386.101293 311.020625 
L 56.6375 311.020625 
z
" style="fill: #ffffff"/>
   </g>
   <g id="matplotlib.axis_3">
    <g id="xtick_9">
     <g id="line2d_18">
      <g>
       <use xlink:href="#mf26bf3eafa" x="117.067672" y="527.460625" style="stroke: #000000; stroke-width: 0.8"/>
      </g>
     </g>
     <g id="text_17">
      <!-- 0 -->
      <g transform="translate(112.067672 548.348125) scale(0.2 -0.2)">
       <use xlink:href="#TimesNewRomanPSMT-30"/>
      </g>
     </g>
    </g>
    <g id="xtick_10">
     <g id="line2d_19">
      <g>
       <use xlink:href="#mf26bf3eafa" x="297.996332" y="527.460625" style="stroke: #000000; stroke-width: 0.8"/>
      </g>
     </g>
     <g id="text_18">
      <!-- 25 -->
      <g transform="translate(287.996332 548.348125) scale(0.2 -0.2)">
       <use xlink:href="#TimesNewRomanPSMT-32"/>
       <use xlink:href="#TimesNewRomanPSMT-35" x="50"/>
      </g>
     </g>
    </g>
    <g id="xtick_11">
     <g id="line2d_20">
      <g>
       <use xlink:href="#mf26bf3eafa" x="478.924992" y="527.460625" style="stroke: #000000; stroke-width: 0.8"/>
      </g>
     </g>
     <g id="text_19">
      <!-- 50 -->
      <g transform="translate(468.924992 548.348125) scale(0.2 -0.2)">
       <use xlink:href="#TimesNewRomanPSMT-35"/>
       <use xlink:href="#TimesNewRomanPSMT-30" x="50"/>
      </g>
     </g>
    </g>
    <g id="xtick_12">
     <g id="line2d_21">
      <g>
       <use xlink:href="#mf26bf3eafa" x="659.853652" y="527.460625" style="stroke: #000000; stroke-width: 0.8"/>
      </g>
     </g>
     <g id="text_20">
      <!-- 75 -->
      <g transform="translate(649.853652 548.348125) scale(0.2 -0.2)">
       <use xlink:href="#TimesNewRomanPSMT-37"/>
       <use xlink:href="#TimesNewRomanPSMT-35" x="50"/>
      </g>
     </g>
    </g>
    <g id="xtick_13">
     <g id="line2d_22">
      <g>
       <use xlink:href="#mf26bf3eafa" x="840.782312" y="527.460625" style="stroke: #000000; stroke-width: 0.8"/>
      </g>
     </g>
     <g id="text_21">
      <!-- 100 -->
      <g transform="translate(825.782312 548.348125) scale(0.2 -0.2)">
       <use xlink:href="#TimesNewRomanPSMT-31"/>
       <use xlink:href="#TimesNewRomanPSMT-30" x="50"/>
       <use xlink:href="#TimesNewRomanPSMT-30" x="100"/>
      </g>
     </g>
    </g>
    <g id="xtick_14">
     <g id="line2d_23">
      <g>
       <use xlink:href="#mf26bf3eafa" x="1021.710972" y="527.460625" style="stroke: #000000; stroke-width: 0.8"/>
      </g>
     </g>
     <g id="text_22">
      <!-- 125 -->
      <g transform="translate(1006.710972 548.348125) scale(0.2 -0.2)">
       <use xlink:href="#TimesNewRomanPSMT-31"/>
       <use xlink:href="#TimesNewRomanPSMT-32" x="50"/>
       <use xlink:href="#TimesNewRomanPSMT-35" x="100"/>
      </g>
     </g>
    </g>
    <g id="xtick_15">
     <g id="line2d_24">
      <g>
       <use xlink:href="#mf26bf3eafa" x="1202.639632" y="527.460625" style="stroke: #000000; stroke-width: 0.8"/>
      </g>
     </g>
     <g id="text_23">
      <!-- 150 -->
      <g transform="translate(1187.639632 548.348125) scale(0.2 -0.2)">
       <use xlink:href="#TimesNewRomanPSMT-31"/>
       <use xlink:href="#TimesNewRomanPSMT-35" x="50"/>
       <use xlink:href="#TimesNewRomanPSMT-30" x="100"/>
      </g>
     </g>
    </g>
    <g id="xtick_16">
     <g id="line2d_25">
      <g>
       <use xlink:href="#mf26bf3eafa" x="1383.568292" y="527.460625" style="stroke: #000000; stroke-width: 0.8"/>
      </g>
     </g>
     <g id="text_24">
      <!-- 175 -->
      <g transform="translate(1368.568292 548.348125) scale(0.2 -0.2)">
       <use xlink:href="#TimesNewRomanPSMT-31"/>
       <use xlink:href="#TimesNewRomanPSMT-37" x="50"/>
       <use xlink:href="#TimesNewRomanPSMT-35" x="100"/>
      </g>
     </g>
    </g>
   </g>
   <g id="matplotlib.axis_4">
    <g id="ytick_5">
     <g id="line2d_26">
      <g>
       <use xlink:href="#m235df878fa" x="56.6375" y="520.934959" style="stroke: #000000; stroke-width: 0.8"/>
      </g>
     </g>
     <g id="text_25">
      <!-- 2 -->
      <g transform="translate(39.6375 527.878709) scale(0.2 -0.2)">
       <use xlink:href="#TimesNewRomanPSMT-32"/>
      </g>
     </g>
    </g>
    <g id="ytick_6">
     <g id="line2d_27">
      <g>
       <use xlink:href="#m235df878fa" x="56.6375" y="454.684577" style="stroke: #000000; stroke-width: 0.8"/>
      </g>
     </g>
     <g id="text_26">
      <!-- 4 -->
      <g transform="translate(39.6375 461.628327) scale(0.2 -0.2)">
       <use xlink:href="#TimesNewRomanPSMT-34"/>
      </g>
     </g>
    </g>
    <g id="ytick_7">
     <g id="line2d_28">
      <g>
       <use xlink:href="#m235df878fa" x="56.6375" y="388.434195" style="stroke: #000000; stroke-width: 0.8"/>
      </g>
     </g>
     <g id="text_27">
      <!-- 6 -->
      <g transform="translate(39.6375 395.377945) scale(0.2 -0.2)">
       <use xlink:href="#TimesNewRomanPSMT-36"/>
      </g>
     </g>
    </g>
    <g id="ytick_8">
     <g id="line2d_29">
      <g>
       <use xlink:href="#m235df878fa" x="56.6375" y="322.183813" style="stroke: #000000; stroke-width: 0.8"/>
      </g>
     </g>
     <g id="text_28">
      <!-- 8 -->
      <g transform="translate(39.6375 329.127563) scale(0.2 -0.2)">
       <use xlink:href="#TimesNewRomanPSMT-38"/>
      </g>
     </g>
    </g>
    <g id="text_29">
     <!-- CPU使用率 -->
     <g transform="translate(33.059375 464.240625) rotate(-90) scale(0.2 -0.2)">
      <use xlink:href="#SimSun-43"/>
      <use xlink:href="#SimSun-50" x="50"/>
      <use xlink:href="#SimSun-55" x="100"/>
      <use xlink:href="#SimSun-4f7f" x="150"/>
      <use xlink:href="#SimSun-7528" x="250"/>
      <use xlink:href="#SimSun-7387" x="350"/>
     </g>
    </g>
   </g>
   <g id="line2d_30">
    <path d="M 117.067672 509.672389 
L 124.304819 482.178483 
L 131.541965 484.828504 
L 138.779112 486.484762 
L 146.016258 487.147265 
L 153.253404 470.915921 
L 160.490551 479.197219 
L 167.727697 500.066085 
L 174.964844 510.666152 
L 182.20199 499.07233 
L 189.439136 493.441045 
L 196.676283 474.228437 
L 203.913429 480.853477 
L 211.150576 467.934657 
L 218.387722 477.872212 
L 225.624868 482.840986 
L 232.862015 485.159755 
L 240.099161 486.484762 
L 247.336308 420.896883 
L 254.573454 437.790722 
L 261.8106 446.403279 
L 269.047747 450.378299 
L 276.284893 452.697068 
L 283.52204 470.253418 
L 290.759186 478.865967 
L 297.996332 500.066085 
L 305.233479 477.209701 
L 312.470625 449.384552 
L 319.707771 418.909373 
L 326.944918 320.858807 
L 334.182064 371.209096 
L 341.419211 379.821654 
L 348.656357 384.127917 
L 355.893503 403.009281 
L 363.13065 395.72173 
L 370.367796 425.203162 
L 377.604943 456.340835 
L 384.842089 422.553149 
L 392.079235 405.32805 
L 399.316382 330.79637 
L 406.553528 425.865665 
L 413.790675 423.546896 
L 421.027821 389.427958 
L 428.264967 389.096698 
L 435.502114 372.202843 
L 442.73926 429.840684 
L 449.976407 475.553443 
L 457.213553 464.953384 
L 464.450699 410.296816 
L 471.687846 449.053292 
L 478.924992 484.828504 
L 486.162139 469.922166 
L 493.399285 478.865967 
L 500.636431 499.734841 
L 507.873578 493.772297 
L 515.110724 474.228437 
L 522.347871 497.747324 
L 529.585017 509.341145 
L 536.822163 498.409827 
L 544.05931 493.109802 
L 551.296456 490.459781 
L 558.533603 489.134775 
L 565.770749 505.034867 
L 573.007895 496.422317 
L 580.245042 492.116039 
L 587.482188 490.128529 
L 594.719335 505.366118 
L 601.956481 513.316165 
L 609.193627 500.397337 
L 616.430774 494.103556 
L 623.66792 507.684887 
L 630.905066 514.309919 
L 638.142213 517.622443 
L 645.379359 502.716106 
L 652.616506 495.097303 
L 659.853652 508.016131 
L 667.090798 498.078575 
L 674.327945 492.77855 
L 681.565091 391.084208 
L 688.802238 323.50882 
L 696.039384 372.534103 
L 703.27653 413.609348 
L 710.513677 334.77139 
L 717.750823 394.727983 
L 724.98797 457.665841 
L 732.225116 472.903431 
L 739.462262 413.940592 
L 746.699409 434.478206 
L 753.936555 477.540961 
L 761.173702 482.840986 
L 768.410848 485.159755 
L 775.647994 469.922166 
L 782.885141 346.365203 
L 790.122287 433.815703 
L 797.359434 377.834128 
L 804.59658 449.384552 
L 811.833726 418.909373 
L 819.070873 469.922166 
L 826.308019 429.178181 
L 833.545166 475.2222 
L 840.782312 481.51598 
L 848.019458 484.497252 
L 855.256605 486.15351 
L 862.493751 371.209096 
L 869.730898 429.509424 
L 876.968044 475.2222 
L 884.20519 498.078575 
L 891.442337 492.77855 
L 898.679483 440.771994 
L 905.91663 480.853477 
L 913.153776 500.728588 
L 920.390922 510.997403 
L 927.628069 499.403582 
L 934.865215 493.441045 
L 942.102361 457.665841 
L 949.339508 489.134775 
L 956.576654 488.472271 
L 963.813801 488.14102 
L 971.050947 488.14102 
L 978.288093 487.809768 
L 985.52524 487.809768 
L 992.762386 471.247173 
L 999.999533 479.52847 
L 1007.236679 500.397337 
L 1014.473825 510.666152 
L 1021.710972 499.07233 
L 1028.948118 493.441045 
L 1036.185265 507.353628 
L 1043.422411 513.978668 
L 1050.659557 501.059848 
L 1057.896704 494.434808 
L 1065.13385 491.122284 
L 1072.370997 489.466026 
L 1079.608143 488.472271 
L 1086.845289 405.32805 
L 1094.082436 413.609348 
L 1101.319582 467.272154 
L 1108.556729 477.540961 
L 1115.793875 499.07233 
L 1123.031021 493.441045 
L 1130.268168 490.791032 
L 1137.505314 439.446988 
L 1144.742461 347.69021 
L 1151.979607 368.227824 
L 1159.216753 444.41577 
L 1166.4539 449.715795 
L 1173.691046 435.471969 
L 1180.928193 395.390487 
L 1188.165339 342.390184 
L 1195.402485 332.121377 
L 1202.639632 409.965572 
L 1209.876778 449.053292 
L 1217.113925 468.265908 
L 1224.351071 395.390487 
L 1231.588217 325.496329 
L 1238.825364 406.653057 
L 1246.06251 430.834447 
L 1253.299657 426.196908 
L 1260.536803 423.878155 
L 1267.773949 455.678332 
L 1275.011096 488.472271 
L 1282.248242 438.453225 
L 1289.485388 446.403279 
L 1296.722535 401.021772 
L 1303.959681 460.978365 
L 1311.196828 490.791032 
L 1318.433974 406.653057 
L 1325.67112 380.815401 
L 1325.67112 380.815401 
" clip-path="url(#p3b98519cb1)" style="fill: none; stroke: #1f77b4; stroke-width: 1.5; stroke-linecap: square"/>
   </g>
   <g id="line2d_31">
    <path d="M 1159.216753 373.478474 
L 1166.4539 379.323438 
L 1173.691046 384.571244 
L 1180.928193 387.571707 
L 1188.165339 397.236723 
L 1195.402485 414.246689 
L 1202.639632 413.83301 
L 1209.876778 418.916007 
L 1217.113925 423.194581 
L 1224.351071 420.61203 
L 1231.588217 422.328729 
L 1238.825364 418.732892 
L 1246.06251 425.734801 
L 1253.299657 421.908336 
L 1260.536803 427.37415 
L 1267.773949 443.627394 
L 1275.011096 438.715175 
L 1282.248242 454.291574 
L 1289.485388 457.428327 
L 1296.722535 472.519178 
L 1303.959681 467.106674 
L 1311.196828 465.030284 
L 1318.433974 468.791016 
L 1325.67112 475.864193 
" clip-path="url(#p3b98519cb1)" style="fill: none; stroke: #ff7f0e; stroke-width: 1.5; stroke-linecap: square"/>
   </g>
   <g id="line2d_32">
    <path d="M 1159.216753 527.460625 
L 1159.216753 311.020625 
" clip-path="url(#p3b98519cb1)" style="fill: none; stroke-dasharray: 7.4,3.2; stroke-dashoffset: 0; stroke: #0000ff; stroke-width: 2"/>
   </g>
   <g id="patch_9">
    <path d="M 56.6375 527.460625 
L 56.6375 311.020625 
" style="fill: none; stroke: #000000; stroke-width: 0.8; stroke-linejoin: miter; stroke-linecap: square"/>
   </g>
   <g id="patch_10">
    <path d="M 1386.101293 527.460625 
L 1386.101293 311.020625 
" style="fill: none; stroke: #000000; stroke-width: 0.8; stroke-linejoin: miter; stroke-linecap: square"/>
   </g>
   <g id="patch_11">
    <path d="M 56.6375 527.460625 
L 1386.101293 527.460625 
" style="fill: none; stroke: #000000; stroke-width: 0.8; stroke-linejoin: miter; stroke-linecap: square"/>
   </g>
   <g id="patch_12">
    <path d="M 56.6375 311.020625 
L 1386.101293 311.020625 
" style="fill: none; stroke: #000000; stroke-width: 0.8; stroke-linejoin: miter; stroke-linecap: square"/>
   </g>
   <g id="text_30">
    <!-- API_ID: 3 -->
    <g transform="translate(676.369396 305.020625) scale(0.2 -0.2)">
     <defs>
      <path id="SimSun-33" d="M 2800 1250 
Q 2800 775 2450 412 
Q 2100 50 1475 50 
Q 1025 50 700 300 
Q 375 550 375 875 
Q 375 1025 475 1137 
Q 575 1250 675 1250 
Q 825 1250 887 1137 
Q 950 1025 950 950 
Q 950 825 900 750 
Q 850 650 850 575 
Q 850 425 1037 325 
Q 1225 225 1450 225 
Q 1900 225 2125 487 
Q 2350 750 2350 1300 
Q 2350 1750 2112 2025 
Q 1875 2300 1225 2300 
L 1225 2475 
Q 1725 2475 1962 2712 
Q 2200 2950 2200 3375 
Q 2200 3725 2012 3987 
Q 1825 4250 1425 4250 
Q 1250 4250 1050 4162 
Q 850 4075 850 3875 
Q 850 3675 900 3625 
Q 950 3575 950 3500 
Q 950 3375 900 3300 
Q 850 3225 725 3225 
Q 625 3225 537 3300 
Q 450 3375 450 3575 
Q 450 3950 775 4187 
Q 1100 4425 1525 4425 
Q 2025 4425 2325 4112 
Q 2625 3800 2625 3450 
Q 2625 3075 2437 2812 
Q 2250 2550 1850 2425 
Q 2400 2225 2600 1900 
Q 2800 1575 2800 1250 
z
" transform="scale(0.015625)"/>
     </defs>
     <use xlink:href="#SimSun-41"/>
     <use xlink:href="#SimSun-50" x="50"/>
     <use xlink:href="#SimSun-49" x="100"/>
     <use xlink:href="#SimSun-5f" x="150"/>
     <use xlink:href="#SimSun-49" x="200"/>
     <use xlink:href="#SimSun-44" x="250"/>
     <use xlink:href="#SimSun-3a" x="300"/>
     <use xlink:href="#SimSun-20" x="350"/>
     <use xlink:href="#SimSun-33" x="400"/>
    </g>
   </g>
  </g>
  <g id="axes_3">
   <g id="patch_13">
    <path d="M 56.6375 811.140625 
L 1386.101293 811.140625 
L 1386.101293 594.700625 
L 56.6375 594.700625 
z
" style="fill: #ffffff"/>
   </g>
   <g id="matplotlib.axis_5">
    <g id="xtick_17">
     <g id="line2d_33">
      <g>
       <use xlink:href="#mf26bf3eafa" x="117.067672" y="811.140625" style="stroke: #000000; stroke-width: 0.8"/>
      </g>
     </g>
     <g id="text_31">
      <!-- 0 -->
      <g transform="translate(112.067672 832.028125) scale(0.2 -0.2)">
       <use xlink:href="#TimesNewRomanPSMT-30"/>
      </g>
     </g>
    </g>
    <g id="xtick_18">
     <g id="line2d_34">
      <g>
       <use xlink:href="#mf26bf3eafa" x="297.996332" y="811.140625" style="stroke: #000000; stroke-width: 0.8"/>
      </g>
     </g>
     <g id="text_32">
      <!-- 25 -->
      <g transform="translate(287.996332 832.028125) scale(0.2 -0.2)">
       <use xlink:href="#TimesNewRomanPSMT-32"/>
       <use xlink:href="#TimesNewRomanPSMT-35" x="50"/>
      </g>
     </g>
    </g>
    <g id="xtick_19">
     <g id="line2d_35">
      <g>
       <use xlink:href="#mf26bf3eafa" x="478.924992" y="811.140625" style="stroke: #000000; stroke-width: 0.8"/>
      </g>
     </g>
     <g id="text_33">
      <!-- 50 -->
      <g transform="translate(468.924992 832.028125) scale(0.2 -0.2)">
       <use xlink:href="#TimesNewRomanPSMT-35"/>
       <use xlink:href="#TimesNewRomanPSMT-30" x="50"/>
      </g>
     </g>
    </g>
    <g id="xtick_20">
     <g id="line2d_36">
      <g>
       <use xlink:href="#mf26bf3eafa" x="659.853652" y="811.140625" style="stroke: #000000; stroke-width: 0.8"/>
      </g>
     </g>
     <g id="text_34">
      <!-- 75 -->
      <g transform="translate(649.853652 832.028125) scale(0.2 -0.2)">
       <use xlink:href="#TimesNewRomanPSMT-37"/>
       <use xlink:href="#TimesNewRomanPSMT-35" x="50"/>
      </g>
     </g>
    </g>
    <g id="xtick_21">
     <g id="line2d_37">
      <g>
       <use xlink:href="#mf26bf3eafa" x="840.782312" y="811.140625" style="stroke: #000000; stroke-width: 0.8"/>
      </g>
     </g>
     <g id="text_35">
      <!-- 100 -->
      <g transform="translate(825.782312 832.028125) scale(0.2 -0.2)">
       <use xlink:href="#TimesNewRomanPSMT-31"/>
       <use xlink:href="#TimesNewRomanPSMT-30" x="50"/>
       <use xlink:href="#TimesNewRomanPSMT-30" x="100"/>
      </g>
     </g>
    </g>
    <g id="xtick_22">
     <g id="line2d_38">
      <g>
       <use xlink:href="#mf26bf3eafa" x="1021.710972" y="811.140625" style="stroke: #000000; stroke-width: 0.8"/>
      </g>
     </g>
     <g id="text_36">
      <!-- 125 -->
      <g transform="translate(1006.710972 832.028125) scale(0.2 -0.2)">
       <use xlink:href="#TimesNewRomanPSMT-31"/>
       <use xlink:href="#TimesNewRomanPSMT-32" x="50"/>
       <use xlink:href="#TimesNewRomanPSMT-35" x="100"/>
      </g>
     </g>
    </g>
    <g id="xtick_23">
     <g id="line2d_39">
      <g>
       <use xlink:href="#mf26bf3eafa" x="1202.639632" y="811.140625" style="stroke: #000000; stroke-width: 0.8"/>
      </g>
     </g>
     <g id="text_37">
      <!-- 150 -->
      <g transform="translate(1187.639632 832.028125) scale(0.2 -0.2)">
       <use xlink:href="#TimesNewRomanPSMT-31"/>
       <use xlink:href="#TimesNewRomanPSMT-35" x="50"/>
       <use xlink:href="#TimesNewRomanPSMT-30" x="100"/>
      </g>
     </g>
    </g>
    <g id="xtick_24">
     <g id="line2d_40">
      <g>
       <use xlink:href="#mf26bf3eafa" x="1383.568292" y="811.140625" style="stroke: #000000; stroke-width: 0.8"/>
      </g>
     </g>
     <g id="text_38">
      <!-- 175 -->
      <g transform="translate(1368.568292 832.028125) scale(0.2 -0.2)">
       <use xlink:href="#TimesNewRomanPSMT-31"/>
       <use xlink:href="#TimesNewRomanPSMT-37" x="50"/>
       <use xlink:href="#TimesNewRomanPSMT-35" x="100"/>
      </g>
     </g>
    </g>
   </g>
   <g id="matplotlib.axis_6">
    <g id="ytick_9">
     <g id="line2d_41">
      <g>
       <use xlink:href="#m235df878fa" x="56.6375" y="794.769786" style="stroke: #000000; stroke-width: 0.8"/>
      </g>
     </g>
     <g id="text_39">
      <!-- 2 -->
      <g transform="translate(39.6375 801.713536) scale(0.2 -0.2)">
       <use xlink:href="#TimesNewRomanPSMT-32"/>
      </g>
     </g>
    </g>
    <g id="ytick_10">
     <g id="line2d_42">
      <g>
       <use xlink:href="#m235df878fa" x="56.6375" y="742.508526" style="stroke: #000000; stroke-width: 0.8"/>
      </g>
     </g>
     <g id="text_40">
      <!-- 4 -->
      <g transform="translate(39.6375 749.452276) scale(0.2 -0.2)">
       <use xlink:href="#TimesNewRomanPSMT-34"/>
      </g>
     </g>
    </g>
    <g id="ytick_11">
     <g id="line2d_43">
      <g>
       <use xlink:href="#m235df878fa" x="56.6375" y="690.247266" style="stroke: #000000; stroke-width: 0.8"/>
      </g>
     </g>
     <g id="text_41">
      <!-- 6 -->
      <g transform="translate(39.6375 697.191016) scale(0.2 -0.2)">
       <use xlink:href="#TimesNewRomanPSMT-36"/>
      </g>
     </g>
    </g>
    <g id="ytick_12">
     <g id="line2d_44">
      <g>
       <use xlink:href="#m235df878fa" x="56.6375" y="637.986006" style="stroke: #000000; stroke-width: 0.8"/>
      </g>
     </g>
     <g id="text_42">
      <!-- 8 -->
      <g transform="translate(39.6375 644.929756) scale(0.2 -0.2)">
       <use xlink:href="#TimesNewRomanPSMT-38"/>
      </g>
     </g>
    </g>
    <g id="text_43">
     <!-- CPU使用率 -->
     <g transform="translate(33.059375 747.920625) rotate(-90) scale(0.2 -0.2)">
      <use xlink:href="#SimSun-43"/>
      <use xlink:href="#SimSun-50" x="50"/>
      <use xlink:href="#SimSun-55" x="100"/>
      <use xlink:href="#SimSun-4f7f" x="150"/>
      <use xlink:href="#SimSun-7528" x="250"/>
      <use xlink:href="#SimSun-7387" x="350"/>
     </g>
    </g>
   </g>
   <g id="line2d_45">
    <path d="M 117.067672 683.714609 
L 124.304819 608.719704 
L 131.541965 662.5488 
L 138.779112 728.659287 
L 146.016258 748.518571 
L 153.253404 771.774828 
L 160.490551 757.141677 
L 167.727697 749.825101 
L 174.964844 746.166817 
L 182.20199 705.14173 
L 189.439136 645.302588 
L 196.676283 720.036181 
L 203.913429 731.272359 
L 211.150576 723.955778 
L 218.387722 746.166817 
L 225.624868 770.468298 
L 232.862015 756.619065 
L 240.099161 762.62911 
L 247.336308 739.372853 
L 254.573454 740.94069 
L 261.8106 741.724614 
L 269.047747 768.37785 
L 276.284893 768.37785 
L 283.52204 742.508526 
L 290.759186 755.573841 
L 297.996332 749.041183 
L 305.233479 706.448254 
L 312.470625 698.34776 
L 319.707771 733.624108 
L 326.944918 751.131632 
L 334.182064 772.820059 
L 341.419211 770.729604 
L 348.656357 769.68438 
L 355.893503 769.161768 
L 363.13065 768.900462 
L 370.367796 768.900462 
L 377.604943 768.639156 
L 384.842089 768.639156 
L 392.079235 781.704471 
L 399.316382 801.302443 
L 406.553528 785.101449 
L 413.790675 776.73965 
L 421.027821 759.754744 
L 428.264967 777.262262 
L 435.502114 772.820059 
L 442.73926 770.729604 
L 449.976407 769.68438 
L 457.213553 782.227083 
L 464.450699 788.498434 
L 471.687846 791.634107 
L 478.924992 767.071319 
L 486.162139 780.920546 
L 493.399285 774.910507 
L 500.636431 784.840143 
L 507.873578 776.73965 
L 515.110724 772.558753 
L 522.347871 783.794919 
L 529.585017 776.217037 
L 536.822163 772.29744 
L 544.05931 679.0111 
L 551.296456 697.825148 
L 558.533603 680.840236 
L 565.770749 711.674387 
L 573.007895 714.026135 
L 580.245042 754.528617 
L 587.482188 774.649201 
L 594.719335 666.991009 
L 601.956481 731.011047 
L 609.193627 736.759793 
L 616.430774 726.568838 
L 623.66792 747.473347 
L 630.905066 745.121593 
L 638.142213 639.292543 
L 645.379359 677.704563 
L 652.616506 710.106551 
L 659.853652 700.176908 
L 667.090798 747.473347 
L 674.327945 758.186901 
L 681.565091 711.151775 
L 688.802238 752.96078 
L 696.039384 747.734653 
L 703.27653 758.186901 
L 710.513677 763.413029 
L 717.750823 752.96078 
L 724.98797 734.669332 
L 732.225116 751.654244 
L 739.462262 773.081359 
L 746.699409 770.99091 
L 753.936555 769.68438 
L 761.173702 769.161768 
L 768.410848 755.835147 
L 775.647994 775.433119 
L 782.885141 772.036134 
L 790.122287 770.206992 
L 797.359434 769.423074 
L 804.59658 769.161768 
L 811.833726 781.965777 
L 819.070873 775.171813 
L 826.308019 772.036134 
L 833.545166 783.272307 
L 840.782312 775.955731 
L 848.019458 772.29744 
L 855.256605 770.468298 
L 862.493751 769.68438 
L 869.730898 782.227083 
L 876.968044 775.433119 
L 884.20519 772.036134 
L 891.442337 770.206992 
L 898.679483 782.488389 
L 905.91663 775.694425 
L 913.153776 758.970819 
L 920.390922 777.000956 
L 927.628069 772.820059 
L 934.865215 783.794919 
L 942.102361 763.151722 
L 949.339508 726.568838 
L 956.576654 760.799968 
L 963.813801 699.392984 
L 971.050947 746.950735 
L 978.288093 757.925595 
L 985.52524 776.217037 
L 992.762386 733.362808 
L 999.999533 698.609072 
L 1007.236679 746.689429 
L 1014.473825 757.664289 
L 1021.710972 737.021093 
L 1028.948118 739.895465 
L 1036.185265 741.202002 
L 1043.422411 715.593972 
L 1050.659557 755.312535 
L 1057.896704 761.845192 
L 1065.13385 765.242177 
L 1072.370997 740.94069 
L 1079.608143 728.659287 
L 1086.845289 709.322626 
L 1094.082436 739.111541 
L 1101.319582 727.614062 
L 1108.556729 604.538807 
L 1115.793875 686.588981 
L 1123.031021 675.352802 
L 1130.268168 721.865329 
L 1137.505314 680.056324 
L 1144.742461 632.759885 
L 1151.979607 661.503576 
L 1159.216753 728.136674 
L 1166.4539 748.518571 
L 1173.691046 719.252269 
L 1180.928193 744.076362 
L 1188.165339 717.16182 
L 1195.402485 742.769832 
L 1202.639632 755.835147 
L 1209.876778 775.171813 
L 1217.113925 772.036134 
L 1224.351071 770.206992 
L 1231.588217 769.423074 
L 1238.825364 769.161768 
L 1246.06251 781.965777 
L 1253.299657 788.237128 
L 1260.536803 778.568792 
L 1267.773949 773.603977 
L 1275.011096 784.056225 
L 1282.248242 776.478344 
L 1289.485388 772.558753 
L 1296.722535 783.533613 
L 1303.959681 763.151722 
L 1311.196828 778.830098 
L 1318.433974 773.865283 
L 1325.67112 771.252216 
L 1325.67112 771.252216 
" clip-path="url(#p994bfc0bde)" style="fill: none; stroke: #1f77b4; stroke-width: 1.5; stroke-linecap: square"/>
   </g>
   <g id="line2d_46">
    <path d="M 1159.216753 687.090773 
L 1166.4539 692.788345 
L 1173.691046 696.260813 
L 1180.928193 707.193602 
L 1188.165339 718.341165 
L 1195.402485 725.473674 
L 1202.639632 737.71285 
L 1209.876778 742.205435 
L 1217.113925 750.604746 
L 1224.351071 751.615611 
L 1231.588217 755.861755 
L 1238.825364 764.268006 
L 1246.06251 768.818954 
L 1253.299657 778.482805 
L 1260.536803 788.671878 
L 1267.773949 794.442036 
L 1275.011096 790.041301 
L 1282.248242 796.474078 
L 1289.485388 791.329047 
L 1296.722535 796.959073 
L 1303.959681 792.631821 
L 1311.196828 786.072094 
L 1318.433974 778.142907 
L 1325.67112 781.173056 
" clip-path="url(#p994bfc0bde)" style="fill: none; stroke: #ff7f0e; stroke-width: 1.5; stroke-linecap: square"/>
   </g>
   <g id="line2d_47">
    <path d="M 1159.216753 811.140625 
L 1159.216753 594.700625 
" clip-path="url(#p994bfc0bde)" style="fill: none; stroke-dasharray: 7.4,3.2; stroke-dashoffset: 0; stroke: #0000ff; stroke-width: 2"/>
   </g>
   <g id="patch_14">
    <path d="M 56.6375 811.140625 
L 56.6375 594.700625 
" style="fill: none; stroke: #000000; stroke-width: 0.8; stroke-linejoin: miter; stroke-linecap: square"/>
   </g>
   <g id="patch_15">
    <path d="M 1386.101293 811.140625 
L 1386.101293 594.700625 
" style="fill: none; stroke: #000000; stroke-width: 0.8; stroke-linejoin: miter; stroke-linecap: square"/>
   </g>
   <g id="patch_16">
    <path d="M 56.6375 811.140625 
L 1386.101293 811.140625 
" style="fill: none; stroke: #000000; stroke-width: 0.8; stroke-linejoin: miter; stroke-linecap: square"/>
   </g>
   <g id="patch_17">
    <path d="M 56.6375 594.700625 
L 1386.101293 594.700625 
" style="fill: none; stroke: #000000; stroke-width: 0.8; stroke-linejoin: miter; stroke-linecap: square"/>
   </g>
   <g id="text_44">
    <!-- API_ID: 4 -->
    <g transform="translate(676.369396 588.700625) scale(0.2 -0.2)">
     <defs>
      <path id="SimSun-34" d="M 2300 575 
Q 2300 400 2400 325 
Q 2500 250 2675 250 
L 2900 250 
L 2900 100 
L 1250 100 
L 1250 250 
L 1525 250 
Q 1725 250 1812 325 
Q 1900 400 1900 575 
L 1900 1400 
L 225 1400 
L 225 1525 
L 2050 4425 
L 2300 4425 
L 2300 1550 
L 2975 1550 
L 2975 1400 
L 2300 1400 
L 2300 575 
z
M 1875 3800 
L 450 1550 
L 1900 1550 
L 1900 3800 
L 1875 3800 
z
" transform="scale(0.015625)"/>
     </defs>
     <use xlink:href="#SimSun-41"/>
     <use xlink:href="#SimSun-50" x="50"/>
     <use xlink:href="#SimSun-49" x="100"/>
     <use xlink:href="#SimSun-5f" x="150"/>
     <use xlink:href="#SimSun-49" x="200"/>
     <use xlink:href="#SimSun-44" x="250"/>
     <use xlink:href="#SimSun-3a" x="300"/>
     <use xlink:href="#SimSun-20" x="350"/>
     <use xlink:href="#SimSun-34" x="400"/>
    </g>
   </g>
  </g>
  <g id="axes_4">
   <g id="patch_18">
    <path d="M 56.6375 1094.820625 
L 1386.101293 1094.820625 
L 1386.101293 878.380625 
L 56.6375 878.380625 
z
" style="fill: #ffffff"/>
   </g>
   <g id="matplotlib.axis_7">
    <g id="xtick_25">
     <g id="line2d_48">
      <g>
       <use xlink:href="#mf26bf3eafa" x="117.067672" y="1094.820625" style="stroke: #000000; stroke-width: 0.8"/>
      </g>
     </g>
     <g id="text_45">
      <!-- 0 -->
      <g transform="translate(112.067672 1115.708125) scale(0.2 -0.2)">
       <use xlink:href="#TimesNewRomanPSMT-30"/>
      </g>
     </g>
    </g>
    <g id="xtick_26">
     <g id="line2d_49">
      <g>
       <use xlink:href="#mf26bf3eafa" x="297.996332" y="1094.820625" style="stroke: #000000; stroke-width: 0.8"/>
      </g>
     </g>
     <g id="text_46">
      <!-- 25 -->
      <g transform="translate(287.996332 1115.708125) scale(0.2 -0.2)">
       <use xlink:href="#TimesNewRomanPSMT-32"/>
       <use xlink:href="#TimesNewRomanPSMT-35" x="50"/>
      </g>
     </g>
    </g>
    <g id="xtick_27">
     <g id="line2d_50">
      <g>
       <use xlink:href="#mf26bf3eafa" x="478.924992" y="1094.820625" style="stroke: #000000; stroke-width: 0.8"/>
      </g>
     </g>
     <g id="text_47">
      <!-- 50 -->
      <g transform="translate(468.924992 1115.708125) scale(0.2 -0.2)">
       <use xlink:href="#TimesNewRomanPSMT-35"/>
       <use xlink:href="#TimesNewRomanPSMT-30" x="50"/>
      </g>
     </g>
    </g>
    <g id="xtick_28">
     <g id="line2d_51">
      <g>
       <use xlink:href="#mf26bf3eafa" x="659.853652" y="1094.820625" style="stroke: #000000; stroke-width: 0.8"/>
      </g>
     </g>
     <g id="text_48">
      <!-- 75 -->
      <g transform="translate(649.853652 1115.708125) scale(0.2 -0.2)">
       <use xlink:href="#TimesNewRomanPSMT-37"/>
       <use xlink:href="#TimesNewRomanPSMT-35" x="50"/>
      </g>
     </g>
    </g>
    <g id="xtick_29">
     <g id="line2d_52">
      <g>
       <use xlink:href="#mf26bf3eafa" x="840.782312" y="1094.820625" style="stroke: #000000; stroke-width: 0.8"/>
      </g>
     </g>
     <g id="text_49">
      <!-- 100 -->
      <g transform="translate(825.782312 1115.708125) scale(0.2 -0.2)">
       <use xlink:href="#TimesNewRomanPSMT-31"/>
       <use xlink:href="#TimesNewRomanPSMT-30" x="50"/>
       <use xlink:href="#TimesNewRomanPSMT-30" x="100"/>
      </g>
     </g>
    </g>
    <g id="xtick_30">
     <g id="line2d_53">
      <g>
       <use xlink:href="#mf26bf3eafa" x="1021.710972" y="1094.820625" style="stroke: #000000; stroke-width: 0.8"/>
      </g>
     </g>
     <g id="text_50">
      <!-- 125 -->
      <g transform="translate(1006.710972 1115.708125) scale(0.2 -0.2)">
       <use xlink:href="#TimesNewRomanPSMT-31"/>
       <use xlink:href="#TimesNewRomanPSMT-32" x="50"/>
       <use xlink:href="#TimesNewRomanPSMT-35" x="100"/>
      </g>
     </g>
    </g>
    <g id="xtick_31">
     <g id="line2d_54">
      <g>
       <use xlink:href="#mf26bf3eafa" x="1202.639632" y="1094.820625" style="stroke: #000000; stroke-width: 0.8"/>
      </g>
     </g>
     <g id="text_51">
      <!-- 150 -->
      <g transform="translate(1187.639632 1115.708125) scale(0.2 -0.2)">
       <use xlink:href="#TimesNewRomanPSMT-31"/>
       <use xlink:href="#TimesNewRomanPSMT-35" x="50"/>
       <use xlink:href="#TimesNewRomanPSMT-30" x="100"/>
      </g>
     </g>
    </g>
    <g id="xtick_32">
     <g id="line2d_55">
      <g>
       <use xlink:href="#mf26bf3eafa" x="1383.568292" y="1094.820625" style="stroke: #000000; stroke-width: 0.8"/>
      </g>
     </g>
     <g id="text_52">
      <!-- 175 -->
      <g transform="translate(1368.568292 1115.708125) scale(0.2 -0.2)">
       <use xlink:href="#TimesNewRomanPSMT-31"/>
       <use xlink:href="#TimesNewRomanPSMT-37" x="50"/>
       <use xlink:href="#TimesNewRomanPSMT-35" x="100"/>
      </g>
     </g>
    </g>
   </g>
   <g id="matplotlib.axis_8">
    <g id="ytick_13">
     <g id="line2d_56">
      <g>
       <use xlink:href="#m235df878fa" x="56.6375" y="1051.885418" style="stroke: #000000; stroke-width: 0.8"/>
      </g>
     </g>
     <g id="text_53">
      <!-- 10 -->
      <g transform="translate(29.6375 1058.829168) scale(0.2 -0.2)">
       <use xlink:href="#TimesNewRomanPSMT-31"/>
       <use xlink:href="#TimesNewRomanPSMT-30" x="50"/>
      </g>
     </g>
    </g>
    <g id="ytick_14">
     <g id="line2d_57">
      <g>
       <use xlink:href="#m235df878fa" x="56.6375" y="1006.42247" style="stroke: #000000; stroke-width: 0.8"/>
      </g>
     </g>
     <g id="text_54">
      <!-- 20 -->
      <g transform="translate(29.6375 1013.36622) scale(0.2 -0.2)">
       <use xlink:href="#TimesNewRomanPSMT-32"/>
       <use xlink:href="#TimesNewRomanPSMT-30" x="50"/>
      </g>
     </g>
    </g>
    <g id="ytick_15">
     <g id="line2d_58">
      <g>
       <use xlink:href="#m235df878fa" x="56.6375" y="960.959523" style="stroke: #000000; stroke-width: 0.8"/>
      </g>
     </g>
     <g id="text_55">
      <!-- 30 -->
      <g transform="translate(29.6375 967.903273) scale(0.2 -0.2)">
       <defs>
        <path id="TimesNewRomanPSMT-33" d="M 325 3431 
Q 506 3859 782 4092 
Q 1059 4325 1472 4325 
Q 1981 4325 2253 3994 
Q 2459 3747 2459 3466 
Q 2459 3003 1878 2509 
Q 2269 2356 2469 2072 
Q 2669 1788 2669 1403 
Q 2669 853 2319 450 
Q 1863 -75 997 -75 
Q 569 -75 414 31 
Q 259 138 259 259 
Q 259 350 332 419 
Q 406 488 509 488 
Q 588 488 669 463 
Q 722 447 909 348 
Q 1097 250 1169 231 
Q 1284 197 1416 197 
Q 1734 197 1970 444 
Q 2206 691 2206 1028 
Q 2206 1275 2097 1509 
Q 2016 1684 1919 1775 
Q 1784 1900 1550 2001 
Q 1316 2103 1072 2103 
L 972 2103 
L 972 2197 
Q 1219 2228 1467 2375 
Q 1716 2522 1828 2728 
Q 1941 2934 1941 3181 
Q 1941 3503 1739 3701 
Q 1538 3900 1238 3900 
Q 753 3900 428 3381 
L 325 3431 
z
" transform="scale(0.015625)"/>
       </defs>
       <use xlink:href="#TimesNewRomanPSMT-33"/>
       <use xlink:href="#TimesNewRomanPSMT-30" x="50"/>
      </g>
     </g>
    </g>
    <g id="ytick_16">
     <g id="line2d_59">
      <g>
       <use xlink:href="#m235df878fa" x="56.6375" y="915.496575" style="stroke: #000000; stroke-width: 0.8"/>
      </g>
     </g>
     <g id="text_56">
      <!-- 40 -->
      <g transform="translate(29.6375 922.440325) scale(0.2 -0.2)">
       <use xlink:href="#TimesNewRomanPSMT-34"/>
       <use xlink:href="#TimesNewRomanPSMT-30" x="50"/>
      </g>
     </g>
    </g>
    <g id="text_57">
     <!-- CPU使用率 -->
     <g transform="translate(23.059375 1031.600625) rotate(-90) scale(0.2 -0.2)">
      <use xlink:href="#SimSun-43"/>
      <use xlink:href="#SimSun-50" x="50"/>
      <use xlink:href="#SimSun-55" x="100"/>
      <use xlink:href="#SimSun-4f7f" x="150"/>
      <use xlink:href="#SimSun-7528" x="250"/>
      <use xlink:href="#SimSun-7387" x="350"/>
     </g>
    </g>
   </g>
   <g id="line2d_60">
    <path d="M 117.067672 901.857691 
L 124.304819 892.765119 
L 131.541965 888.218807 
L 138.779112 901.857691 
L 146.016258 913.223428 
L 153.253404 907.540559 
L 160.490551 895.583799 
L 167.727697 937.364259 
L 174.964844 958.277208 
L 182.20199 977.780817 
L 189.439136 980.735898 
L 196.676283 961.777857 
L 203.913429 952.2761 
L 211.150576 963.414517 
L 218.387722 975.8259 
L 225.624868 975.234885 
L 232.862015 1004.467562 
L 240.099161 1005.42228 
L 247.336308 1028.653853 
L 254.573454 1056.204397 
L 261.8106 1051.74903 
L 269.047747 1049.566806 
L 276.284893 1055.249675 
L 283.52204 1035.382371 
L 290.759186 1039.110327 
L 297.996332 1027.289964 
L 305.233479 1044.156717 
L 312.470625 1011.650707 
L 319.707771 999.921267 
L 326.944918 982.73627 
L 334.182064 978.644606 
L 341.419211 965.278498 
L 348.656357 972.188868 
L 355.893503 975.689517 
L 363.13065 979.690261 
L 370.367796 1024.880429 
L 377.604943 1040.656073 
L 384.842089 1037.155424 
L 392.079235 1035.427831 
L 399.316382 1025.471448 
L 406.553528 1040.974308 
L 413.790675 1007.786355 
L 421.027821 1016.197002 
L 428.264967 1029.472183 
L 435.502114 1029.335795 
L 442.73926 1047.430051 
L 449.976407 1045.111439 
L 457.213553 1048.475697 
L 464.450699 1061.569026 
L 471.687846 1061.250784 
L 478.924992 1061.114397 
L 486.162139 1072.43467 
L 493.399285 1057.61375 
L 500.636431 1070.661615 
L 507.873578 1052.158193 
L 515.110724 1047.47551 
L 522.347871 1047.430051 
L 529.585017 1015.560524 
L 536.822163 1004.149323 
L 544.05931 973.461833 
L 551.296456 937.682498 
L 558.533603 942.50156 
L 565.770749 949.457403 
L 573.007895 948.366284 
L 580.245042 945.593042 
L 587.482188 900.993901 
L 594.719335 905.949363 
L 601.956481 908.449822 
L 609.193627 916.542221 
L 616.430774 954.640167 
L 623.66792 989.64664 
L 630.905066 1002.558118 
L 638.142213 1031.790799 
L 645.379359 1039.564959 
L 652.616506 1029.790427 
L 659.853652 1043.111067 
L 667.090798 1061.159859 
L 674.327945 1047.430051 
L 681.565091 1061.023471 
L 688.802238 1067.797449 
L 696.039384 1062.114581 
L 703.27653 1075.20791 
L 710.513677 1081.709111 
L 717.750823 1084.982443 
L 724.98797 1068.43393 
L 732.225116 1060.159673 
L 739.462262 1042.383661 
L 746.699409 1047.157271 
L 753.936555 1051.79449 
L 761.173702 1033.654775 
L 768.410848 1022.289038 
L 775.647994 1009.832191 
L 782.885141 1003.558308 
L 790.122287 1007.286269 
L 797.359434 995.465892 
L 804.59658 1005.513208 
L 811.833726 990.055807 
L 819.070873 991.419692 
L 826.308019 1005.740519 
L 833.545166 1028.790241 
L 840.782312 1031.24524 
L 848.019458 1034.745889 
L 855.256605 1009.241168 
L 862.493751 1030.563297 
L 869.730898 1011.650707 
L 876.968044 1018.15191 
L 884.20519 996.375154 
L 891.442337 1017.288112 
L 898.679483 1034.609497 
L 905.91663 1034.15487 
L 913.153776 1013.469224 
L 920.390922 1014.469414 
L 927.628069 1017.288112 
L 934.865215 1030.017742 
L 942.102361 1022.789133 
L 949.339508 1000.966922 
L 956.576654 994.602102 
L 963.813801 993.69284 
L 971.050947 997.784503 
L 978.288093 1013.469224 
L 985.52524 978.099047 
L 992.762386 971.825164 
L 999.999533 943.638151 
L 1007.236679 950.048426 
L 1014.473825 935.045639 
L 1021.710972 943.456295 
L 1028.948118 945.36573 
L 1036.185265 969.097386 
L 1043.422411 926.362217 
L 1050.659557 936.864164 
L 1057.896704 932.999803 
L 1065.13385 931.044895 
L 1072.370997 927.81703 
L 1079.608143 964.86933 
L 1086.845289 987.919043 
L 1094.082436 1008.513762 
L 1101.319582 1041.565331 
L 1108.556729 1039.928662 
L 1115.793875 1036.79172 
L 1123.031021 1032.972832 
L 1130.268168 994.693021 
L 1137.505314 984.645714 
L 1144.742461 991.010534 
L 1151.979607 1010.059502 
L 1159.216753 1005.967839 
L 1166.4539 999.375708 
L 1173.691046 1016.560705 
L 1180.928193 1016.015146 
L 1188.165339 1020.33413 
L 1195.402485 983.82738 
L 1202.639632 992.82905 
L 1209.876778 974.643871 
L 1217.113925 999.603019 
L 1224.351071 984.827561 
L 1231.588217 986.555158 
L 1238.825364 1001.012377 
L 1246.06251 1015.105892 
L 1253.299657 1026.653481 
L 1260.536803 1039.292179 
L 1267.773949 1038.746629 
L 1275.011096 1031.699871 
L 1282.248242 1019.061173 
L 1289.485388 999.102933 
L 1296.722535 998.193679 
L 1303.959681 1000.057651 
L 1311.196828 1025.971538 
L 1318.433974 1050.294217 
L 1325.67112 1057.886525 
L 1325.67112 1057.886525 
" clip-path="url(#p73acbc3693)" style="fill: none; stroke: #1f77b4; stroke-width: 1.5; stroke-linecap: square"/>
   </g>
   <g id="line2d_61">
    <path d="M 1159.216753 1023.177125 
L 1166.4539 1036.197961 
L 1173.691046 1043.746926 
L 1180.928193 1050.355645 
L 1188.165339 1044.729054 
L 1195.402485 1044.290361 
L 1202.639632 1041.70412 
L 1209.876778 1032.836366 
L 1217.113925 1034.181157 
L 1224.351071 1030.127188 
L 1231.588217 1018.769164 
L 1238.825364 1016.72018 
L 1246.06251 1013.768377 
L 1253.299657 1017.214379 
L 1260.536803 1016.971139 
L 1267.773949 1007.353081 
L 1275.011096 1017.033755 
L 1282.248242 1018.616141 
L 1289.485388 1026.736657 
L 1296.722535 1024.596723 
L 1303.959681 1034.4873 
L 1311.196828 1031.911738 
L 1318.433974 1033.572787 
L 1325.67112 1028.28297 
" clip-path="url(#p73acbc3693)" style="fill: none; stroke: #ff7f0e; stroke-width: 1.5; stroke-linecap: square"/>
   </g>
   <g id="line2d_62">
    <path d="M 1159.216753 1094.820625 
L 1159.216753 878.380625 
" clip-path="url(#p73acbc3693)" style="fill: none; stroke-dasharray: 7.4,3.2; stroke-dashoffset: 0; stroke: #0000ff; stroke-width: 2"/>
   </g>
   <g id="patch_19">
    <path d="M 56.6375 1094.820625 
L 56.6375 878.380625 
" style="fill: none; stroke: #000000; stroke-width: 0.8; stroke-linejoin: miter; stroke-linecap: square"/>
   </g>
   <g id="patch_20">
    <path d="M 1386.101293 1094.820625 
L 1386.101293 878.380625 
" style="fill: none; stroke: #000000; stroke-width: 0.8; stroke-linejoin: miter; stroke-linecap: square"/>
   </g>
   <g id="patch_21">
    <path d="M 56.6375 1094.820625 
L 1386.101293 1094.820625 
" style="fill: none; stroke: #000000; stroke-width: 0.8; stroke-linejoin: miter; stroke-linecap: square"/>
   </g>
   <g id="patch_22">
    <path d="M 56.6375 878.380625 
L 1386.101293 878.380625 
" style="fill: none; stroke: #000000; stroke-width: 0.8; stroke-linejoin: miter; stroke-linecap: square"/>
   </g>
   <g id="text_58">
    <!-- API_ID: 5 -->
    <g transform="translate(676.369396 872.380625) scale(0.2 -0.2)">
     <defs>
      <path id="SimSun-35" d="M 1725 2850 
Q 2200 2850 2500 2487 
Q 2800 2125 2800 1525 
Q 2800 850 2487 450 
Q 2175 50 1525 50 
Q 1075 50 725 312 
Q 375 575 375 950 
Q 375 1100 462 1212 
Q 550 1325 700 1325 
Q 850 1325 900 1225 
Q 950 1125 950 1050 
Q 950 900 875 825 
Q 800 725 800 625 
Q 800 425 1037 325 
Q 1275 225 1550 225 
Q 1950 225 2162 550 
Q 2375 875 2375 1475 
Q 2375 1975 2187 2287 
Q 2000 2600 1625 2600 
Q 1350 2600 1150 2500 
Q 950 2400 775 2075 
L 550 2100 
L 675 4375 
L 2725 4375 
L 2650 4000 
L 850 4000 
L 750 2350 
Q 1000 2700 1237 2775 
Q 1475 2850 1725 2850 
z
" transform="scale(0.015625)"/>
     </defs>
     <use xlink:href="#SimSun-41"/>
     <use xlink:href="#SimSun-50" x="50"/>
     <use xlink:href="#SimSun-49" x="100"/>
     <use xlink:href="#SimSun-5f" x="150"/>
     <use xlink:href="#SimSun-49" x="200"/>
     <use xlink:href="#SimSun-44" x="250"/>
     <use xlink:href="#SimSun-3a" x="300"/>
     <use xlink:href="#SimSun-20" x="350"/>
     <use xlink:href="#SimSun-35" x="400"/>
    </g>
   </g>
  </g>
  <g id="axes_5">
   <g id="patch_23">
    <path d="M 56.6375 1378.500625 
L 1386.101293 1378.500625 
L 1386.101293 1162.060625 
L 56.6375 1162.060625 
z
" style="fill: #ffffff"/>
   </g>
   <g id="matplotlib.axis_9">
    <g id="xtick_33">
     <g id="line2d_63">
      <g>
       <use xlink:href="#mf26bf3eafa" x="117.067672" y="1378.500625" style="stroke: #000000; stroke-width: 0.8"/>
      </g>
     </g>
     <g id="text_59">
      <!-- 0 -->
      <g transform="translate(112.067672 1399.388125) scale(0.2 -0.2)">
       <use xlink:href="#TimesNewRomanPSMT-30"/>
      </g>
     </g>
    </g>
    <g id="xtick_34">
     <g id="line2d_64">
      <g>
       <use xlink:href="#mf26bf3eafa" x="297.996332" y="1378.500625" style="stroke: #000000; stroke-width: 0.8"/>
      </g>
     </g>
     <g id="text_60">
      <!-- 25 -->
      <g transform="translate(287.996332 1399.388125) scale(0.2 -0.2)">
       <use xlink:href="#TimesNewRomanPSMT-32"/>
       <use xlink:href="#TimesNewRomanPSMT-35" x="50"/>
      </g>
     </g>
    </g>
    <g id="xtick_35">
     <g id="line2d_65">
      <g>
       <use xlink:href="#mf26bf3eafa" x="478.924992" y="1378.500625" style="stroke: #000000; stroke-width: 0.8"/>
      </g>
     </g>
     <g id="text_61">
      <!-- 50 -->
      <g transform="translate(468.924992 1399.388125) scale(0.2 -0.2)">
       <use xlink:href="#TimesNewRomanPSMT-35"/>
       <use xlink:href="#TimesNewRomanPSMT-30" x="50"/>
      </g>
     </g>
    </g>
    <g id="xtick_36">
     <g id="line2d_66">
      <g>
       <use xlink:href="#mf26bf3eafa" x="659.853652" y="1378.500625" style="stroke: #000000; stroke-width: 0.8"/>
      </g>
     </g>
     <g id="text_62">
      <!-- 75 -->
      <g transform="translate(649.853652 1399.388125) scale(0.2 -0.2)">
       <use xlink:href="#TimesNewRomanPSMT-37"/>
       <use xlink:href="#TimesNewRomanPSMT-35" x="50"/>
      </g>
     </g>
    </g>
    <g id="xtick_37">
     <g id="line2d_67">
      <g>
       <use xlink:href="#mf26bf3eafa" x="840.782312" y="1378.500625" style="stroke: #000000; stroke-width: 0.8"/>
      </g>
     </g>
     <g id="text_63">
      <!-- 100 -->
      <g transform="translate(825.782312 1399.388125) scale(0.2 -0.2)">
       <use xlink:href="#TimesNewRomanPSMT-31"/>
       <use xlink:href="#TimesNewRomanPSMT-30" x="50"/>
       <use xlink:href="#TimesNewRomanPSMT-30" x="100"/>
      </g>
     </g>
    </g>
    <g id="xtick_38">
     <g id="line2d_68">
      <g>
       <use xlink:href="#mf26bf3eafa" x="1021.710972" y="1378.500625" style="stroke: #000000; stroke-width: 0.8"/>
      </g>
     </g>
     <g id="text_64">
      <!-- 125 -->
      <g transform="translate(1006.710972 1399.388125) scale(0.2 -0.2)">
       <use xlink:href="#TimesNewRomanPSMT-31"/>
       <use xlink:href="#TimesNewRomanPSMT-32" x="50"/>
       <use xlink:href="#TimesNewRomanPSMT-35" x="100"/>
      </g>
     </g>
    </g>
    <g id="xtick_39">
     <g id="line2d_69">
      <g>
       <use xlink:href="#mf26bf3eafa" x="1202.639632" y="1378.500625" style="stroke: #000000; stroke-width: 0.8"/>
      </g>
     </g>
     <g id="text_65">
      <!-- 150 -->
      <g transform="translate(1187.639632 1399.388125) scale(0.2 -0.2)">
       <use xlink:href="#TimesNewRomanPSMT-31"/>
       <use xlink:href="#TimesNewRomanPSMT-35" x="50"/>
       <use xlink:href="#TimesNewRomanPSMT-30" x="100"/>
      </g>
     </g>
    </g>
    <g id="xtick_40">
     <g id="line2d_70">
      <g>
       <use xlink:href="#mf26bf3eafa" x="1383.568292" y="1378.500625" style="stroke: #000000; stroke-width: 0.8"/>
      </g>
     </g>
     <g id="text_66">
      <!-- 175 -->
      <g transform="translate(1368.568292 1399.388125) scale(0.2 -0.2)">
       <use xlink:href="#TimesNewRomanPSMT-31"/>
       <use xlink:href="#TimesNewRomanPSMT-37" x="50"/>
       <use xlink:href="#TimesNewRomanPSMT-35" x="100"/>
      </g>
     </g>
    </g>
   </g>
   <g id="matplotlib.axis_10">
    <g id="ytick_17">
     <g id="line2d_71">
      <g>
       <use xlink:href="#m235df878fa" x="56.6375" y="1376.378665" style="stroke: #000000; stroke-width: 0.8"/>
      </g>
     </g>
     <g id="text_67">
      <!-- 0 -->
      <g transform="translate(39.6375 1383.322415) scale(0.2 -0.2)">
       <use xlink:href="#TimesNewRomanPSMT-30"/>
      </g>
     </g>
    </g>
    <g id="ytick_18">
     <g id="line2d_72">
      <g>
       <use xlink:href="#m235df878fa" x="56.6375" y="1299.216454" style="stroke: #000000; stroke-width: 0.8"/>
      </g>
     </g>
     <g id="text_68">
      <!-- 20 -->
      <g transform="translate(29.6375 1306.160204) scale(0.2 -0.2)">
       <use xlink:href="#TimesNewRomanPSMT-32"/>
       <use xlink:href="#TimesNewRomanPSMT-30" x="50"/>
      </g>
     </g>
    </g>
    <g id="ytick_19">
     <g id="line2d_73">
      <g>
       <use xlink:href="#m235df878fa" x="56.6375" y="1222.054244" style="stroke: #000000; stroke-width: 0.8"/>
      </g>
     </g>
     <g id="text_69">
      <!-- 40 -->
      <g transform="translate(29.6375 1228.997994) scale(0.2 -0.2)">
       <use xlink:href="#TimesNewRomanPSMT-34"/>
       <use xlink:href="#TimesNewRomanPSMT-30" x="50"/>
      </g>
     </g>
    </g>
    <g id="text_70">
     <!-- CPU使用率 -->
     <g transform="translate(23.059375 1315.280625) rotate(-90) scale(0.2 -0.2)">
      <use xlink:href="#SimSun-43"/>
      <use xlink:href="#SimSun-50" x="50"/>
      <use xlink:href="#SimSun-55" x="100"/>
      <use xlink:href="#SimSun-4f7f" x="150"/>
      <use xlink:href="#SimSun-7528" x="250"/>
      <use xlink:href="#SimSun-7387" x="350"/>
     </g>
    </g>
   </g>
   <g id="line2d_74">
    <path d="M 117.067672 1333.939449 
L 124.304819 1333.939449 
L 131.541965 1345.513781 
L 138.779112 1306.932676 
L 146.016258 1330.081339 
L 153.253404 1306.932676 
L 160.490551 1345.513781 
L 167.727697 1276.067791 
L 174.964844 1283.784012 
L 182.20199 1264.493452 
L 189.439136 1272.209673 
L 196.676283 1252.919128 
L 203.913429 1276.067791 
L 211.150576 1276.067791 
L 218.387722 1279.925894 
L 225.624868 1353.230002 
L 232.862015 1341.65567 
L 240.099161 1322.365118 
L 247.336308 1322.365118 
L 254.573454 1306.932676 
L 261.8106 1341.65567 
L 269.047747 1272.209673 
L 276.284893 1314.6489 
L 283.52204 1330.081339 
L 290.759186 1318.507011 
L 297.996332 1349.371891 
L 305.233479 1330.081339 
L 312.470625 1337.79756 
L 319.707771 1357.088112 
L 326.944918 1345.513781 
L 334.182064 1345.513781 
L 341.419211 1364.804334 
L 348.656357 1330.081339 
L 355.893503 1364.804334 
L 363.13065 1322.365118 
L 370.367796 1330.081339 
L 377.604943 1333.939449 
L 384.842089 1279.925894 
L 392.079235 1287.642116 
L 399.316382 1245.202907 
L 406.553528 1210.479912 
L 413.790675 1249.061018 
L 421.027821 1256.777239 
L 428.264967 1249.061018 
L 435.502114 1245.202907 
L 442.73926 1171.898807 
L 449.976407 1218.196148 
L 457.213553 1218.196148 
L 464.450699 1229.77048 
L 471.687846 1287.642116 
L 478.924992 1314.6489 
L 486.162139 1306.932676 
L 493.399285 1345.513781 
L 500.636431 1333.939449 
L 507.873578 1310.790786 
L 515.110724 1341.65567 
L 522.347871 1360.946223 
L 529.585017 1322.365118 
L 536.822163 1357.088112 
L 544.05931 1357.088112 
L 551.296456 1341.65567 
L 558.533603 1368.662443 
L 573.007895 1368.662443 
L 580.245042 1337.79756 
L 587.482188 1337.79756 
L 594.719335 1314.6489 
L 601.956481 1337.79756 
L 609.193627 1341.65567 
L 616.430774 1306.932676 
L 623.66792 1303.074565 
L 630.905066 1291.500233 
L 638.142213 1291.500233 
L 645.379359 1303.074565 
L 652.616506 1279.925894 
L 659.853652 1306.932676 
L 667.090798 1272.209673 
L 674.327945 1287.642116 
L 681.565091 1310.790786 
L 688.802238 1337.79756 
L 696.039384 1322.365118 
L 703.27653 1326.223228 
L 710.513677 1279.925894 
L 717.750823 1337.79756 
L 724.98797 1287.642116 
L 732.225116 1314.6489 
L 739.462262 1272.209673 
L 746.699409 1326.223228 
L 753.936555 1337.79756 
L 761.173702 1322.365118 
L 768.410848 1287.642116 
L 775.647994 1306.932676 
L 782.885141 1310.790786 
L 790.122287 1330.081339 
L 797.359434 1306.932676 
L 804.59658 1276.067791 
L 811.833726 1283.784012 
L 819.070873 1287.642116 
L 826.308019 1295.358344 
L 833.545166 1318.507011 
L 840.782312 1245.202907 
L 848.019458 1264.493452 
L 855.256605 1222.054244 
L 862.493751 1256.777239 
L 869.730898 1225.912354 
L 876.968044 1252.919128 
L 884.20519 1249.061018 
L 891.442337 1287.642116 
L 898.679483 1195.04747 
L 905.91663 1249.061018 
L 913.153776 1233.628575 
L 920.390922 1233.628575 
L 927.628069 1229.77048 
L 934.865215 1295.358344 
L 942.102361 1303.074565 
L 949.339508 1318.507011 
L 956.576654 1357.088112 
L 963.813801 1326.223228 
L 978.288093 1318.507011 
L 985.52524 1256.777239 
L 992.762386 1272.209673 
L 999.999533 1291.500233 
L 1007.236679 1318.507011 
L 1014.473825 1295.358344 
L 1021.710972 1287.642116 
L 1028.948118 1322.365118 
L 1036.185265 1306.932676 
L 1043.422411 1314.6489 
L 1050.659557 1249.061018 
L 1057.896704 1295.358344 
L 1065.13385 1256.777239 
L 1072.370997 1314.6489 
L 1079.608143 1268.35157 
L 1086.845289 1283.784012 
L 1094.082436 1306.932676 
L 1101.319582 1318.507011 
L 1108.556729 1326.223228 
L 1115.793875 1337.79756 
L 1130.268168 1314.6489 
L 1137.505314 1299.216454 
L 1144.742461 1276.067791 
L 1151.979607 1291.500233 
L 1159.216753 1295.358344 
L 1166.4539 1337.79756 
L 1173.691046 1357.088112 
L 1188.165339 1341.65567 
L 1195.402485 1357.088112 
L 1202.639632 1368.662443 
L 1209.876778 1337.79756 
L 1217.113925 1364.804334 
L 1224.351071 1345.513781 
L 1238.825364 1322.365118 
L 1246.06251 1330.081339 
L 1253.299657 1322.365118 
L 1260.536803 1318.507011 
L 1267.773949 1303.074565 
L 1275.011096 1318.507011 
L 1282.248242 1279.925894 
L 1289.485388 1306.932676 
L 1296.722535 1264.493452 
L 1303.959681 1245.202907 
L 1311.196828 1272.209673 
L 1318.433974 1272.209673 
L 1325.67112 1322.365118 
L 1325.67112 1322.365118 
" clip-path="url(#pb59cc582d4)" style="fill: none; stroke: #1f77b4; stroke-width: 1.5; stroke-linecap: square"/>
   </g>
   <g id="line2d_75">
    <path d="M 1159.216753 1308.439728 
L 1166.4539 1319.75048 
L 1173.691046 1327.595137 
L 1180.928193 1329.94547 
L 1188.165339 1321.433995 
L 1195.402485 1326.459625 
L 1202.639632 1321.790906 
L 1209.876778 1323.648364 
L 1217.113925 1307.790229 
L 1224.351071 1312.830473 
L 1231.588217 1306.921873 
L 1238.825364 1303.245965 
L 1246.06251 1301.64957 
L 1253.299657 1298.402458 
L 1260.536803 1288.950915 
L 1267.773949 1282.135532 
L 1275.011096 1282.889467 
L 1282.248242 1273.652204 
L 1289.485388 1274.884672 
L 1296.722535 1266.266531 
L 1303.959681 1263.730864 
L 1311.196828 1258.653524 
L 1318.433974 1258.476774 
L 1325.67112 1254.128901 
" clip-path="url(#pb59cc582d4)" style="fill: none; stroke: #ff7f0e; stroke-width: 1.5; stroke-linecap: square"/>
   </g>
   <g id="line2d_76">
    <path d="M 1159.216753 1378.500625 
L 1159.216753 1162.060625 
" clip-path="url(#pb59cc582d4)" style="fill: none; stroke-dasharray: 7.4,3.2; stroke-dashoffset: 0; stroke: #0000ff; stroke-width: 2"/>
   </g>
   <g id="patch_24">
    <path d="M 56.6375 1378.500625 
L 56.6375 1162.060625 
" style="fill: none; stroke: #000000; stroke-width: 0.8; stroke-linejoin: miter; stroke-linecap: square"/>
   </g>
   <g id="patch_25">
    <path d="M 1386.101293 1378.500625 
L 1386.101293 1162.060625 
" style="fill: none; stroke: #000000; stroke-width: 0.8; stroke-linejoin: miter; stroke-linecap: square"/>
   </g>
   <g id="patch_26">
    <path d="M 56.6375 1378.500625 
L 1386.101293 1378.500625 
" style="fill: none; stroke: #000000; stroke-width: 0.8; stroke-linejoin: miter; stroke-linecap: square"/>
   </g>
   <g id="patch_27">
    <path d="M 56.6375 1162.060625 
L 1386.101293 1162.060625 
" style="fill: none; stroke: #000000; stroke-width: 0.8; stroke-linejoin: miter; stroke-linecap: square"/>
   </g>
   <g id="text_71">
    <!-- API_ID: 36 -->
    <g transform="translate(671.369396 1156.060625) scale(0.2 -0.2)">
     <defs>
      <path id="SimSun-36" d="M 775 1800 
Q 775 1050 1037 637 
Q 1300 225 1675 225 
Q 2050 225 2250 500 
Q 2450 775 2450 1525 
Q 2450 2025 2237 2300 
Q 2025 2575 1725 2575 
Q 1450 2575 1212 2412 
Q 975 2250 775 1800 
z
M 1750 2825 
Q 2350 2825 2612 2425 
Q 2875 2025 2875 1525 
Q 2875 775 2512 412 
Q 2150 50 1675 50 
Q 1000 50 650 562 
Q 300 1075 300 2050 
Q 300 3200 725 3812 
Q 1150 4425 1875 4425 
Q 2225 4425 2437 4225 
Q 2650 4025 2650 3875 
Q 2650 3725 2587 3650 
Q 2525 3575 2375 3575 
Q 2250 3575 2187 3637 
Q 2125 3700 2125 3825 
Q 2125 3875 2150 3925 
Q 2150 3975 2150 4025 
Q 2150 4125 2075 4187 
Q 2000 4250 1800 4250 
Q 1375 4250 1075 3862 
Q 775 3475 775 2175 
Q 925 2500 1187 2662 
Q 1450 2825 1750 2825 
z
" transform="scale(0.015625)"/>
     </defs>
     <use xlink:href="#SimSun-41"/>
     <use xlink:href="#SimSun-50" x="50"/>
     <use xlink:href="#SimSun-49" x="100"/>
     <use xlink:href="#SimSun-5f" x="150"/>
     <use xlink:href="#SimSun-49" x="200"/>
     <use xlink:href="#SimSun-44" x="250"/>
     <use xlink:href="#SimSun-3a" x="300"/>
     <use xlink:href="#SimSun-20" x="350"/>
     <use xlink:href="#SimSun-33" x="400"/>
     <use xlink:href="#SimSun-36" x="450"/>
    </g>
   </g>
  </g>
 </g>
 <defs>
  <clipPath id="p6be04bc704">
   <rect x="56.6375" y="27.340625" width="1329.463793" height="216.44"/>
  </clipPath>
  <clipPath id="p3b98519cb1">
   <rect x="56.6375" y="311.020625" width="1329.463793" height="216.44"/>
  </clipPath>
  <clipPath id="p994bfc0bde">
   <rect x="56.6375" y="594.700625" width="1329.463793" height="216.44"/>
  </clipPath>
  <clipPath id="p73acbc3693">
   <rect x="56.6375" y="878.380625" width="1329.463793" height="216.44"/>
  </clipPath>
  <clipPath id="pb59cc582d4">
   <rect x="56.6375" y="1162.060625" width="1329.463793" height="216.44"/>
  </clipPath>
 </defs>
</svg>
